<?xml version="1.0" encoding="UTF-8"?>
<svg xmlns="http://www.w3.org/2000/svg" xmlns:xlink="http://www.w3.org/1999/xlink" width="16" height="16" viewBox="0 0 16 16" version="1.1">
<g id="surface1">
<path style=" stroke:none;fill-rule:nonzero;fill:rgb(100%,100%,100%);fill-opacity:1;" d="M 9.332031 14 L 8 15.332031 L 6.667969 14 L 3.328125 14 C 2.59375 14 2 13.40625 2 12.671875 L 2 3.328125 C 2 2.59375 2.59375 2 3.328125 2 L 12.671875 2 C 13.40625 2 14 2.59375 14 3.328125 L 14 12.671875 C 14 13.40625 13.40625 14 12.671875 14 Z M 4.238281 12 L 11.898438 12 C 11.027344 10.746094 9.59375 10 8.066406 10 C 6.539062 10 5.109375 10.746094 4.238281 12 Z M 8 8.667969 C 9.289062 8.667969 10.332031 7.621094 10.332031 6.332031 C 10.332031 5.042969 9.289062 4 8 4 C 6.710938 4 5.667969 5.042969 5.667969 6.332031 C 5.667969 7.621094 6.710938 8.667969 8 8.667969 Z M 8 8.667969 "/>
</g>
</svg>
