<?xml version="1.0" encoding="UTF-8"?>
<svg xmlns="http://www.w3.org/2000/svg" xmlns:xlink="http://www.w3.org/1999/xlink" width="16" height="16" viewBox="0 0 16 16" version="1.1">
<g id="surface1">
<path style=" stroke:none;fill-rule:nonzero;fill:rgb(100%,100%,100%);fill-opacity:1;" d="M 8 14.667969 C 4.6875 14.667969 2 11.980469 2 8.667969 C 2 5.351562 4.6875 2.667969 8 2.667969 C 11.3125 2.667969 14 5.351562 14 8.667969 C 14 11.980469 11.3125 14.667969 8 14.667969 Z M 8.667969 8.667969 L 8.667969 5.332031 L 7.332031 5.332031 L 7.332031 10 L 10.667969 10 L 10.667969 8.667969 Z M 1.164062 4.1875 L 3.519531 1.832031 L 4.464844 2.773438 L 2.105469 5.132812 Z M 12.476562 1.832031 L 14.835938 4.1875 L 13.894531 5.132812 L 11.535156 2.773438 L 12.480469 1.832031 Z M 12.476562 1.832031 "/>
</g>
</svg>
