<?xml version="1.0" encoding="UTF-8"?>
<svg xmlns="http://www.w3.org/2000/svg" xmlns:xlink="http://www.w3.org/1999/xlink" width="16" height="16" viewBox="0 0 16 16" version="1.1">
<g id="surface1">
<path style=" stroke:none;fill-rule:nonzero;fill:rgb(100%,100%,100%);fill-opacity:1;" d="M 3.046875 0.472656 L 0.21875 3.300781 L 1.632812 4.71875 L 1.65625 4.691406 C 0.320312 7.226562 0.574219 10.414062 2.546875 12.703125 C 5.125 15.691406 9.652344 16.015625 12.671875 13.414062 C 15.242188 11.195312 15.867188 7.570312 14.390625 4.695312 L 15.78125 3.300781 L 12.953125 0.472656 L 11.632812 1.796875 C 9.425781 0.515625 6.652344 0.5 4.398438 1.824219 Z M 7.894531 2.421875 C 9.5 2.382812 11.109375 3.03125 12.242188 4.34375 C 14.25 6.671875 13.976562 10.1875 11.632812 12.210938 C 9.289062 14.234375 5.765625 13.984375 3.757812 11.65625 C 1.75 9.328125 2.023438 5.808594 4.367188 3.789062 C 5.390625 2.902344 6.644531 2.453125 7.894531 2.421875 Z M 7.894531 2.421875 "/>
<path style=" stroke:none;fill-rule:nonzero;fill:rgb(100%,100%,100%);fill-opacity:1;" d="M 7 4.121094 L 7 9.125 L 12.003906 9.125 L 12.003906 7.125 L 9 7.125 L 9 4.121094 Z M 7 4.121094 "/>
</g>
</svg>
