<?xml version="1.0" encoding="UTF-8"?>
<svg xmlns="http://www.w3.org/2000/svg" xmlns:xlink="http://www.w3.org/1999/xlink" width="16" height="16" viewBox="0 0 16 16" version="1.1">
<g id="surface1">
<path style=" stroke:none;fill-rule:nonzero;fill:rgb(100%,100%,100%);fill-opacity:1;" d="M 8.34375 1.335938 C 9.3125 4.078125 12.117188 5.730469 14.988281 5.253906 C 14.878906 6.554688 13.941406 7.632812 12.667969 7.925781 L 12.667969 12.667969 L 14 12.667969 L 14 14 L 2 14 L 2 12.667969 L 3.332031 12.667969 L 3.332031 7.925781 C 2.058594 7.632812 1.121094 6.554688 1.011719 5.253906 C 3.882812 5.730469 6.6875 4.082031 7.660156 1.335938 Z M 11.332031 8 L 4.667969 8 L 4.667969 12.667969 L 11.332031 12.667969 Z M 8 3.550781 L 7.925781 3.65625 C 6.875 5.09375 5.339844 6.101562 3.601562 6.492188 L 3.363281 6.539062 L 3.808594 6.664062 L 12.191406 6.664062 L 12.636719 6.539062 L 12.628906 6.539062 C 10.800781 6.191406 9.171875 5.160156 8.074219 3.652344 Z M 8 3.550781 "/>
</g>
</svg>
