<?xml version="1.0" encoding="UTF-8"?>
<svg xmlns="http://www.w3.org/2000/svg" xmlns:xlink="http://www.w3.org/1999/xlink" width="16" height="16" viewBox="0 0 16 16" version="1.1">
<g id="surface1">
<path style=" stroke:none;fill-rule:evenodd;fill:rgb(100%,100%,100%);fill-opacity:1;" d="M 4.304688 0 C 3.414062 0 2.523438 0.34375 1.84375 1.023438 L 1.023438 1.84375 C -0.339844 3.207031 -0.339844 5.40625 1.023438 6.769531 L 1.453125 7.21875 L 7.171875 1.421875 L 6.734375 0.992188 C 6.054688 0.335938 5.179688 0 4.304688 0 Z M 11.695312 0 C 10.804688 0 9.914062 0.34375 9.230469 1.023438 L 14.976562 6.769531 C 16.339844 5.40625 16.339844 3.207031 14.976562 1.84375 L 14.15625 1.023438 C 13.476562 0.34375 12.585938 0 11.695312 0 Z M 8.40625 1.847656 L 1.839844 8.414062 L 7.585938 14.160156 L 14.152344 7.59375 Z M 8.445312 3.984375 C 8.617188 3.992188 8.78125 4.039062 8.9375 4.109375 C 9.039062 4.15625 9.140625 4.210938 9.226562 4.289062 C 9.414062 4.453125 9.539062 4.683594 9.5625 4.976562 C 9.570312 5.039062 9.5625 5.101562 9.5625 5.164062 C 9.554688 5.453125 9.4375 5.742188 9.230469 5.945312 C 8.429688 6.847656 6.835938 5.824219 7.324219 4.71875 C 7.484375 4.199219 7.96875 3.96875 8.445312 3.984375 Z M 10.90625 6.449219 C 11.195312 6.460938 11.476562 6.5625 11.6875 6.75 C 11.875 6.914062 12 7.148438 12.023438 7.4375 C 12.070312 7.789062 11.945312 8.160156 11.695312 8.410156 C 10.890625 9.3125 9.296875 8.285156 9.785156 7.179688 C 9.882812 6.859375 10.109375 6.648438 10.382812 6.539062 C 10.546875 6.476562 10.726562 6.441406 10.90625 6.449219 Z M 5.164062 7.269531 C 5.445312 7.28125 5.730469 7.382812 5.941406 7.570312 C 6.128906 7.734375 6.257812 7.96875 6.277344 8.257812 C 6.328125 8.609375 6.203125 8.980469 5.945312 9.230469 C 5.144531 10.132812 3.550781 9.109375 4.039062 8.003906 C 4.117188 7.765625 4.257812 7.59375 4.4375 7.46875 C 4.648438 7.328125 4.90625 7.257812 5.164062 7.269531 Z M 14.546875 8.78125 L 8.828125 14.578125 L 9.265625 15.007812 C 9.945312 15.664062 10.820312 16 11.695312 16 C 12.585938 16 13.476562 15.660156 14.15625 14.976562 L 14.976562 14.15625 C 16.339844 12.792969 16.339844 10.59375 14.976562 9.230469 Z M 1.023438 9.230469 C -0.339844 10.59375 -0.339844 12.792969 1.023438 14.15625 L 1.84375 14.976562 C 3.207031 16.339844 5.40625 16.339844 6.769531 14.976562 Z M 7.625 9.734375 C 7.910156 9.742188 8.195312 9.847656 8.40625 10.03125 C 8.59375 10.199219 8.71875 10.429688 8.738281 10.71875 C 8.789062 11.074219 8.664062 11.445312 8.410156 11.695312 C 7.609375 12.59375 6.011719 11.570312 6.5 10.464844 C 6.664062 9.945312 7.148438 9.710938 7.625 9.734375 Z M 7.625 9.734375 "/>
</g>
</svg>
