<?xml version="1.0" encoding="UTF-8"?>
<svg xmlns="http://www.w3.org/2000/svg" xmlns:xlink="http://www.w3.org/1999/xlink" width="16" height="16" viewBox="0 0 16 16" version="1.1">
<g id="surface1">
<path style=" stroke:none;fill-rule:nonzero;fill:rgb(100%,100%,100%);fill-opacity:1;" d="M 1.332031 13.332031 L 14.667969 13.332031 L 14.667969 14.667969 L 1.332031 14.667969 Z M 2.667969 8 L 4 8 L 4 12.667969 L 2.667969 12.667969 Z M 6 8 L 7.332031 8 L 7.332031 12.667969 L 6 12.667969 Z M 8.667969 8 L 10 8 L 10 12.667969 L 8.667969 12.667969 Z M 12 8 L 13.332031 8 L 13.332031 12.667969 L 12 12.667969 Z M 1.332031 4.667969 L 8 1.332031 L 14.667969 4.667969 L 14.667969 7.332031 L 1.332031 7.332031 Z M 8 5.332031 C 8.367188 5.332031 8.667969 5.035156 8.667969 4.667969 C 8.667969 4.296875 8.367188 4 8 4 C 7.632812 4 7.332031 4.296875 7.332031 4.667969 C 7.332031 5.035156 7.632812 5.332031 8 5.332031 Z M 8 5.332031 "/>
</g>
</svg>
