<?xml version="1.0" encoding="UTF-8"?>
<svg xmlns="http://www.w3.org/2000/svg" xmlns:xlink="http://www.w3.org/1999/xlink" width="16" height="16" viewBox="0 0 16 16" version="1.1">
<g id="surface1">
<path style=" stroke:none;fill-rule:nonzero;fill:rgb(100%,100%,100%);fill-opacity:1;" d="M 13.992188 4 L 13 4 L 13 12 L 13.992188 12 Z M 13.992188 4 "/>
<path style=" stroke:none;fill-rule:nonzero;fill:rgb(100%,100%,100%);fill-opacity:1;" d="M 12.492188 4 L 10.992188 4 L 10.992188 12 L 12.492188 12 Z M 12.492188 4 "/>
<path style=" stroke:none;fill-rule:nonzero;fill:rgb(100%,100%,100%);fill-opacity:1;" d="M 9.992188 4 L 9 4 L 9 12 L 9.992188 12 Z M 9.992188 4 "/>
<path style=" stroke:none;fill-rule:nonzero;fill:rgb(100%,100%,100%);fill-opacity:1;" d="M 7.992188 4 L 5.992188 4 L 5.992188 12 L 7.992188 12 Z M 7.992188 4 "/>
<path style=" stroke:none;fill-rule:nonzero;fill:rgb(100%,100%,100%);fill-opacity:1;" d="M 3.992188 4 L 1.992188 4 L 1.992188 12 L 3.992188 12 Z M 3.992188 4 "/>
<path style=" stroke:none;fill-rule:nonzero;fill:rgb(100%,100%,100%);fill-opacity:1;" d="M 5.34375 4 L 4.644531 4 L 4.644531 12 L 5.34375 12 Z M 5.34375 4 "/>
<path style=" stroke:none;fill-rule:nonzero;fill:rgb(100%,100%,100%);fill-opacity:1;" d="M 0.503906 2 C 0.226562 1.996094 0 2.222656 0.00390625 2.5 L 0.00390625 13.5 C 0 13.777344 0.226562 14.003906 0.503906 14 L 15.496094 14 C 15.773438 14.003906 16 13.777344 16 13.5 L 16 2.5 C 16 2.222656 15.773438 1.996094 15.496094 2 Z M 1 3 L 15 3 L 15 13 L 1 13 Z M 1 3 "/>
</g>
</svg>
