<?xml version="1.0" encoding="UTF-8"?>
<svg xmlns="http://www.w3.org/2000/svg" xmlns:xlink="http://www.w3.org/1999/xlink" width="16" height="16" viewBox="0 0 16 16" version="1.1">
<g id="surface1">
<path style=" stroke:none;fill-rule:nonzero;fill:rgb(100%,100%,100%);fill-opacity:1;" d="M 2.421875 2 C 1.078125 2.027344 0 3.214844 0 4.671875 C 0 6.140625 1.105469 7.335938 2.46875 7.335938 L 2.875 7.359375 L 0.53125 11.746094 C 0.320312 12.148438 0.445312 12.664062 0.820312 12.898438 L 2.59375 14.007812 C 2.785156 14.125 3.015625 14.15625 3.226562 14.09375 C 3.445312 14.03125 3.625 13.882812 3.734375 13.671875 L 7.207031 7.175781 L 9.328125 7.175781 C 9.503906 7.175781 9.675781 7.101562 9.804688 6.960938 C 9.929688 6.828125 10 6.640625 10 6.445312 L 10 2.671875 C 10 2.496094 9.933594 2.324219 9.820312 2.195312 C 9.703125 2.070312 9.539062 2 9.375 2 L 2.46875 2 C 2.453125 2 2.4375 2 2.421875 2 Z M 7.304688 8.992188 C 6.882812 9.828125 5.335938 12.679688 5.335938 12.679688 L 7.339844 12.679688 Z M 7.304688 8.992188 "/>
<path style=" stroke:none;fill-rule:evenodd;fill:rgb(100%,100%,100%);fill-opacity:1;" d="M 11 0 L 16 0 L 16 2 L 11 2 Z M 11 0 "/>
<path style=" stroke:none;fill-rule:evenodd;fill:rgb(100%,100%,100%);fill-opacity:1;" d="M 11 3 L 16 3 L 16 4 L 11 4 Z M 11 3 "/>
<path style=" stroke:none;fill-rule:evenodd;fill:rgb(100%,100%,100%);fill-opacity:1;" d="M 11 5 L 16 5 L 16 7 L 11 7 Z M 11 5 "/>
<path style=" stroke:none;fill-rule:evenodd;fill:rgb(100%,100%,100%);fill-opacity:1;" d="M 11 8 L 16 8 L 16 9 L 11 9 Z M 11 8 "/>
<path style=" stroke:none;fill-rule:evenodd;fill:rgb(100%,100%,100%);fill-opacity:1;" d="M 11 10 L 16 10 L 16 11 L 11 11 Z M 11 10 "/>
<path style=" stroke:none;fill-rule:evenodd;fill:rgb(100%,100%,100%);fill-opacity:1;" d="M 11 12 L 16 12 L 16 14 L 11 14 Z M 11 12 "/>
<path style=" stroke:none;fill-rule:evenodd;fill:rgb(100%,100%,100%);fill-opacity:1;" d="M 11 15 L 16 15 L 16 16 L 11 16 Z M 11 15 "/>
</g>
</svg>
