<?xml version="1.0" encoding="UTF-8"?>
<svg xmlns="http://www.w3.org/2000/svg" xmlns:xlink="http://www.w3.org/1999/xlink" width="16" height="16" viewBox="0 0 16 16" version="1.1">
<g id="surface1">
<path style=" stroke:none;fill-rule:nonzero;fill:rgb(100%,100%,100%);fill-opacity:1;" d="M 8 8.667969 L 12 14.667969 L 4 14.667969 Z M 7.292969 7.039062 C 7.027344 6.789062 6.914062 6.414062 7.007812 6.0625 C 7.097656 5.707031 7.375 5.429688 7.726562 5.339844 C 8.082031 5.25 8.457031 5.359375 8.707031 5.625 C 9.074219 6.019531 9.0625 6.632812 8.683594 7.015625 C 8.300781 7.394531 7.6875 7.40625 7.292969 7.039062 Z M 3.519531 1.855469 L 4.464844 2.796875 C 2.511719 4.75 2.511719 7.917969 4.464844 9.871094 L 3.519531 10.8125 C 1.046875 8.339844 1.046875 4.328125 3.519531 1.855469 Z M 12.476562 1.855469 C 14.953125 4.328125 14.953125 8.339844 12.476562 10.8125 L 11.535156 9.871094 C 13.488281 7.917969 13.488281 4.75 11.535156 2.796875 Z M 5.40625 3.742188 L 6.347656 4.683594 C 5.4375 5.59375 5.4375 7.070312 6.347656 7.984375 L 5.40625 8.925781 C 3.976562 7.492188 3.976562 5.171875 5.40625 3.742188 Z M 10.59375 3.742188 C 12.023438 5.171875 12.023438 7.492188 10.59375 8.925781 L 9.648438 7.984375 C 10.5625 7.070312 10.5625 5.59375 9.648438 4.683594 Z M 10.59375 3.742188 "/>
</g>
</svg>
