<?xml version="1.0" encoding="UTF-8"?>
<svg xmlns="http://www.w3.org/2000/svg" xmlns:xlink="http://www.w3.org/1999/xlink" width="16" height="16" viewBox="0 0 16 16" version="1.1">
<g id="surface1">
<path style=" stroke:none;fill-rule:nonzero;fill:rgb(100%,100%,100%);fill-opacity:1;" d="M 8.242188 8.910156 L 9.425781 9.59375 C 8.722656 11.160156 8.648438 12.9375 9.21875 14.554688 C 8.816406 14.628906 8.410156 14.667969 8 14.667969 C 7.054688 14.667969 6.121094 14.46875 5.261719 14.078125 Z M 10.589844 10.265625 L 13.410156 11.894531 C 12.675781 12.914062 11.667969 13.707031 10.503906 14.179688 C 10.058594 12.984375 10.0625 11.664062 10.507812 10.46875 Z M 5.90625 7.5625 L 7.089844 8.242188 L 4.105469 13.410156 C 3.003906 12.617188 2.167969 11.503906 1.710938 10.21875 C 3.324219 9.921875 4.769531 9.042969 5.769531 7.746094 Z M 14.605469 7.078125 C 14.644531 7.378906 14.667969 7.6875 14.667969 8 C 14.667969 8.945312 14.46875 9.878906 14.082031 10.738281 L 11.257812 9.109375 C 12.050781 8.0625 13.207031 7.34375 14.5 7.097656 Z M 1.921875 5.261719 L 4.742188 6.890625 C 3.925781 7.96875 2.730469 8.695312 1.398438 8.925781 C 1.355469 8.617188 1.332031 8.308594 1.332031 8 C 1.332031 7.023438 1.542969 6.097656 1.921875 5.261719 Z M 11.894531 2.589844 C 13 3.382812 13.832031 4.496094 14.289062 5.777344 C 12.675781 6.078125 11.230469 6.957031 10.230469 8.253906 L 10.09375 8.4375 L 8.910156 7.757812 Z M 8 1.332031 C 8.976562 1.332031 9.902344 1.542969 10.738281 1.921875 L 7.757812 7.089844 L 6.574219 6.40625 C 7.28125 4.839844 7.355469 3.0625 6.78125 1.445312 C 7.183594 1.371094 7.589844 1.332031 8 1.332031 Z M 5.496094 1.820312 C 5.941406 3.019531 5.9375 4.335938 5.492188 5.535156 L 5.410156 5.734375 L 2.589844 4.105469 C 3.296875 3.125 4.253906 2.355469 5.363281 1.875 Z M 5.496094 1.820312 "/>
</g>
</svg>
