<?xml version="1.0" encoding="UTF-8"?>
<svg xmlns="http://www.w3.org/2000/svg" xmlns:xlink="http://www.w3.org/1999/xlink" width="16" height="16" viewBox="0 0 16 16" version="1.1">
<g id="surface1">
<path style=" stroke:none;fill-rule:nonzero;fill:rgb(100%,100%,100%);fill-opacity:1;" d="M 8 1.332031 C 11.683594 1.332031 14.667969 4.316406 14.667969 8 C 14.667969 11.683594 11.683594 14.667969 8 14.667969 C 4.316406 14.667969 1.332031 11.683594 1.332031 8 C 1.332031 4.316406 4.316406 1.332031 8 1.332031 Z M 8.242188 8.910156 L 5.929688 12.917969 C 6.871094 13.308594 7.902344 13.429688 8.902344 13.257812 C 8.726562 12.011719 8.90625 10.742188 9.425781 9.59375 Z M 10.589844 10.265625 C 10.242188 11.082031 10.109375 11.976562 10.199219 12.859375 C 11.007812 12.492188 11.710938 11.929688 12.25 11.222656 Z M 5.90625 7.5625 C 5.171875 8.582031 4.164062 9.375 2.996094 9.847656 C 3.347656 10.800781 3.964844 11.632812 4.777344 12.25 L 7.089844 8.242188 Z M 13.308594 7.476562 L 13.136719 7.554688 C 12.398438 7.917969 11.753906 8.453125 11.257812 9.109375 L 12.917969 10.070312 C 13.261719 9.25 13.398438 8.359375 13.308594 7.472656 Z M 2.667969 8 C 2.667969 8.175781 2.675781 8.351562 2.691406 8.527344 C 3.503906 8.160156 4.207031 7.597656 4.742188 6.890625 L 3.082031 5.929688 C 2.808594 6.585938 2.664062 7.289062 2.667969 8 Z M 11.222656 3.75 L 8.910156 7.757812 L 10.09375 8.4375 C 10.828125 7.417969 11.835938 6.625 13.003906 6.152344 C 12.675781 5.265625 12.121094 4.484375 11.390625 3.882812 Z M 8 2.667969 C 7.691406 2.667969 7.390625 2.691406 7.09375 2.742188 C 7.273438 3.988281 7.089844 5.257812 6.574219 6.40625 L 7.757812 7.089844 L 10.070312 3.082031 C 9.414062 2.808594 8.710938 2.664062 8 2.667969 Z M 5.800781 3.140625 L 5.675781 3.199219 C 4.917969 3.566406 4.257812 4.105469 3.75 4.777344 L 5.410156 5.734375 C 5.757812 4.917969 5.890625 4.023438 5.800781 3.140625 Z M 5.800781 3.140625 "/>
</g>
</svg>
