<?xml version="1.0" encoding="UTF-8"?>
<svg xmlns="http://www.w3.org/2000/svg" xmlns:xlink="http://www.w3.org/1999/xlink" width="16" height="16" viewBox="0 0 16 16" version="1.1">
<g id="surface1">
<path style=" stroke:none;fill-rule:nonzero;fill:rgb(100%,100%,100%);fill-opacity:1;" d="M 5 7.332031 C 5.738281 7.332031 6.332031 6.738281 6.332031 6 C 6.332031 5.261719 5.738281 4.667969 5 4.667969 L 2 4.667969 L 2 7.332031 Z M 5.667969 8.667969 L 2 8.667969 L 2 11.332031 L 5.667969 11.332031 C 6.402344 11.332031 7 10.738281 7 10 C 7 9.261719 6.402344 8.667969 5.667969 8.667969 Z M 7.042969 7.714844 C 8.070312 8.332031 8.558594 9.558594 8.238281 10.714844 C 7.917969 11.867188 6.863281 12.667969 5.667969 12.667969 L 0.667969 12.667969 L 0.667969 3.332031 L 5 3.332031 C 6.035156 3.332031 6.980469 3.933594 7.417969 4.875 C 7.855469 5.8125 7.707031 6.921875 7.042969 7.714844 Z M 10.332031 4 L 14 4 L 14 5 L 10.332031 5 Z M 15.332031 9.667969 L 10.332031 9.667969 L 10.332031 9.832031 C 10.332031 10.679688 10.914062 11.417969 11.738281 11.617188 C 12.5625 11.816406 13.414062 11.421875 13.800781 10.667969 L 15.222656 10.667969 C 14.800781 12.195312 13.316406 13.175781 11.746094 12.96875 C 10.175781 12.757812 9.003906 11.417969 9 9.832031 L 9 8.832031 C 9 7.085938 10.417969 5.667969 12.167969 5.667969 C 13.914062 5.667969 15.332031 7.085938 15.332031 8.832031 Z M 13.929688 8.332031 C 13.707031 7.546875 12.984375 7 12.167969 7 C 11.347656 7 10.625 7.546875 10.402344 8.332031 Z M 13.929688 8.332031 "/>
</g>
</svg>
