<?xml version="1.0" encoding="UTF-8"?>
<svg xmlns="http://www.w3.org/2000/svg" xmlns:xlink="http://www.w3.org/1999/xlink" width="16" height="16" viewBox="0 0 16 16" version="1.1">
<g id="surface1">
<path style=" stroke:none;fill-rule:nonzero;fill:rgb(100%,100%,100%);fill-opacity:1;" d="M 12.332031 6 C 13 6.707031 13.332031 7.597656 13.332031 8.667969 C 13.332031 10.976562 10.867188 11.515625 9.667969 14.667969 C 9.222656 14.285156 9 13.726562 9 13 C 9 10.679688 12.332031 9.472656 12.332031 6 Z M 9.667969 3.332031 C 10.464844 4.160156 10.867188 5.046875 10.867188 6 C 10.867188 9.300781 6.835938 9.792969 7.667969 14.667969 C 6.554688 13.894531 6 12.78125 6 11.332031 C 6 9.117188 9.667969 7.332031 9.667969 3.332031 Z M 6.667969 0.667969 C 7.554688 1.777344 8 2.777344 8 3.667969 C 8 7.832031 2.332031 9.148438 5.332031 14.667969 C 3.589844 14.28125 2.332031 12.667969 2.332031 10.667969 C 2.332031 6.332031 6.667969 5.667969 6.667969 0.667969 Z M 6.667969 0.667969 "/>
</g>
</svg>
