<?xml version="1.0" encoding="UTF-8"?>
<svg xmlns="http://www.w3.org/2000/svg" xmlns:xlink="http://www.w3.org/1999/xlink" width="16" height="16" viewBox="0 0 16 16" version="1.1">
<g id="surface1">
<path style=" stroke:none;fill-rule:nonzero;fill:rgb(100%,100%,100%);fill-opacity:1;" d="M 8.015625 0.0625 C 7.921875 0.0625 7.828125 0.0859375 7.75 0.132812 L 4.035156 2.257812 C 3.878906 2.34375 3.78125 2.507812 3.78125 2.6875 L 3.78125 6.648438 L 0.3125 8.632812 C 0.15625 8.71875 0.0625 8.882812 0.0625 9.0625 L 0.0625 13.3125 C 0.0625 13.492188 0.15625 13.65625 0.3125 13.742188 L 4.035156 15.867188 C 4.191406 15.957031 4.382812 15.957031 4.539062 15.867188 L 8 13.882812 L 11.46875 15.867188 C 11.625 15.957031 11.816406 15.957031 11.972656 15.867188 L 15.6875 13.742188 C 15.84375 13.65625 15.9375 13.492188 15.9375 13.3125 L 15.9375 9.0625 C 15.9375 8.882812 15.84375 8.71875 15.6875 8.632812 L 12.226562 6.648438 L 12.226562 2.6875 C 12.226562 2.507812 12.128906 2.34375 11.972656 2.257812 L 8.25 0.132812 C 8.179688 0.0898438 8.101562 0.0703125 8.015625 0.0625 Z M 8 1.132812 L 11.21875 2.976562 L 11.21875 6.9375 C 11.21875 7.117188 11.3125 7.28125 11.46875 7.367188 L 14.929688 9.351562 L 14.929688 13.023438 L 11.71875 14.867188 L 8.25 12.882812 C 8.09375 12.789062 7.90625 12.789062 7.75 12.882812 L 4.289062 14.867188 L 1.070312 13.023438 L 1.070312 9.351562 L 4.539062 7.367188 C 4.695312 7.28125 4.789062 7.117188 4.789062 6.9375 L 4.789062 2.976562 Z M 8 1.132812 "/>
<path style=" stroke:none;fill-rule:nonzero;fill:rgb(100%,100%,100%);fill-opacity:1;" d="M 4.304688 6.4375 C 4.117188 6.433594 3.945312 6.53125 3.851562 6.6875 C 3.785156 6.804688 3.765625 6.9375 3.800781 7.066406 C 3.835938 7.195312 3.921875 7.304688 4.035156 7.367188 L 7.75 9.492188 C 7.90625 9.585938 8.09375 9.585938 8.25 9.492188 L 11.972656 7.367188 C 12.085938 7.304688 12.171875 7.195312 12.207031 7.066406 C 12.242188 6.9375 12.226562 6.804688 12.15625 6.6875 C 12.089844 6.574219 11.980469 6.492188 11.851562 6.453125 C 11.722656 6.421875 11.585938 6.4375 11.46875 6.507812 L 8 8.492188 L 4.539062 6.507812 C 4.46875 6.464844 4.386719 6.441406 4.304688 6.4375 Z M 4.304688 6.4375 "/>
<path style=" stroke:none;fill-rule:nonzero;fill:rgb(100%,100%,100%);fill-opacity:1;" d="M 8 8.5625 C 7.867188 8.5625 7.738281 8.617188 7.644531 8.710938 C 7.550781 8.804688 7.496094 8.929688 7.5 9.0625 L 7.5 13.3125 C 7.496094 13.445312 7.550781 13.570312 7.644531 13.664062 C 7.738281 13.757812 7.867188 13.8125 8 13.8125 C 8.132812 13.8125 8.261719 13.757812 8.355469 13.664062 C 8.449219 13.570312 8.503906 13.445312 8.5 13.3125 L 8.5 9.0625 C 8.503906 8.929688 8.449219 8.804688 8.355469 8.710938 C 8.261719 8.617188 8.132812 8.5625 8 8.5625 Z M 8 8.5625 "/>
<path style=" stroke:none;fill-rule:nonzero;fill:rgb(100%,100%,100%);fill-opacity:1;" d="M 8 8.492188 L 4.289062 10.617188 L 0.816406 8.632812 L 0.3125 9.492188 L 4.289062 11.757812 L 8 9.632812 L 11.71875 11.757812 L 15.6875 9.492188 L 15.183594 8.632812 L 11.71875 10.617188 Z M 8 8.492188 "/>
<path style=" stroke:none;fill-rule:nonzero;fill:rgb(100%,100%,100%);fill-opacity:1;" d="M 3.78125 11.1875 L 3.78125 15.4375 L 4.789062 15.4375 L 4.789062 11.1875 Z M 3.78125 11.1875 "/>
<path style=" stroke:none;fill-rule:nonzero;fill:rgb(100%,100%,100%);fill-opacity:1;" d="M 11.21875 11.1875 L 11.21875 15.4375 L 12.226562 15.4375 L 12.226562 11.1875 Z M 11.21875 11.1875 "/>
<path style=" stroke:none;fill-rule:nonzero;fill:rgb(100%,100%,100%);fill-opacity:1;" d="M 4.539062 2.257812 L 4.035156 3.117188 L 8 5.382812 L 11.972656 3.117188 L 11.46875 2.257812 L 8 4.242188 Z M 4.539062 2.257812 "/>
<path style=" stroke:none;fill-rule:nonzero;fill:rgb(100%,100%,100%);fill-opacity:1;" d="M 7.5 4.8125 L 7.5 9.0625 L 8.5 9.0625 L 8.5 4.8125 Z M 7.5 4.8125 "/>
</g>
</svg>
