<?xml version="1.0" encoding="UTF-8"?>
<svg xmlns="http://www.w3.org/2000/svg" xmlns:xlink="http://www.w3.org/1999/xlink" width="16" height="16" viewBox="0 0 16 16" version="1.1">
<g id="surface1">
<path style=" stroke:none;fill-rule:nonzero;fill:rgb(100%,100%,100%);fill-opacity:1;" d="M 11 1.332031 C 13.023438 1.332031 14.667969 2.976562 14.667969 5 L 14.667969 6.667969 C 14.667969 7.257812 14.410156 7.789062 14 8.15625 L 14 11.332031 C 14 12.179688 13.464844 12.9375 12.667969 13.21875 L 12.667969 14 C 12.667969 14.367188 12.367188 14.667969 12 14.667969 L 4 14.667969 C 3.632812 14.667969 3.332031 14.367188 3.332031 14 L 3.332031 13.21875 C 2.535156 12.9375 2 12.179688 2 11.332031 L 2 4 C 2 2.527344 3.195312 1.332031 4.667969 1.332031 Z M 6.332031 7.332031 L 3.332031 7.332031 L 3.332031 11.332031 C 3.332031 11.671875 3.585938 11.957031 3.921875 11.996094 L 4 12 L 12 12 C 12.339844 12 12.621094 11.746094 12.660156 11.410156 L 12.667969 11.332031 L 12.667969 8.667969 L 8.644531 8.667969 C 8.476562 9.816406 7.492188 10.667969 6.332031 10.667969 L 4 10.667969 L 4 9.332031 L 6.332031 9.332031 C 6.847656 9.332031 7.277344 8.941406 7.328125 8.429688 L 7.332031 8.332031 C 7.332031 7.816406 6.941406 7.386719 6.429688 7.339844 Z M 11 2.667969 L 4.667969 2.667969 C 3.96875 2.667969 3.390625 3.203125 3.335938 3.898438 L 3.332031 4 L 3.332031 6 L 6.332031 6 C 7.234375 6 8.054688 6.519531 8.441406 7.332031 L 12.667969 7.332031 C 13.003906 7.332031 13.289062 7.082031 13.328125 6.746094 L 13.332031 6.667969 L 13.332031 5 C 13.332031 3.761719 12.363281 2.738281 11.128906 2.671875 Z M 11 2.667969 "/>
</g>
</svg>
