<?xml version="1.0" encoding="UTF-8"?>
<svg xmlns="http://www.w3.org/2000/svg" xmlns:xlink="http://www.w3.org/1999/xlink" width="16" height="16" viewBox="0 0 16 16" version="1.1">
<g id="surface1">
<path style=" stroke:none;fill-rule:nonzero;fill:rgb(100%,100%,100%);fill-opacity:1;" d="M 10.667969 10.667969 C 11.769531 10.667969 12.667969 11.5625 12.667969 12.667969 C 12.667969 13.769531 11.769531 14.667969 10.667969 14.667969 C 9.5625 14.667969 8.667969 13.769531 8.667969 12.667969 C 8.667969 11.5625 9.5625 10.667969 10.667969 10.667969 Z M 4 8 C 5.472656 8 6.667969 9.191406 6.667969 10.667969 C 6.667969 12.140625 5.472656 13.332031 4 13.332031 C 2.527344 13.332031 1.332031 12.140625 1.332031 10.667969 C 1.332031 9.191406 2.527344 8 4 8 Z M 9.667969 1.332031 C 11.691406 1.332031 13.332031 2.976562 13.332031 5 C 13.332031 7.023438 11.691406 8.667969 9.667969 8.667969 C 7.640625 8.667969 6 7.023438 6 5 C 6 2.976562 7.640625 1.332031 9.667969 1.332031 Z M 9.667969 1.332031 "/>
</g>
</svg>
