<?xml version="1.0" encoding="UTF-8"?>
<svg xmlns="http://www.w3.org/2000/svg" xmlns:xlink="http://www.w3.org/1999/xlink" width="16" height="16" viewBox="0 0 16 16" version="1.1">
<g id="surface1">
<path style=" stroke:none;fill-rule:nonzero;fill:rgb(100%,100%,100%);fill-opacity:1;" d="M 10.332031 1.332031 C 11.03125 1.332031 11.691406 1.644531 12.132812 2.179688 C 12.578125 2.71875 12.757812 3.425781 12.625 4.109375 L 12.613281 4.152344 C 13.800781 4.550781 14.621094 5.640625 14.664062 6.890625 C 14.710938 8.144531 13.972656 9.289062 12.816406 9.769531 L 12.09375 14.109375 C 12.039062 14.429688 11.761719 14.667969 11.433594 14.667969 L 4.566406 14.667969 C 4.238281 14.667969 3.960938 14.429688 3.90625 14.109375 L 3.222656 9.996094 C 2.269531 9.941406 1.488281 9.222656 1.355469 8.28125 C 1.21875 7.335938 1.769531 6.429688 2.667969 6.113281 L 2.667969 6 C 2.667969 4.628906 3.371094 3.351562 4.53125 2.617188 C 5.6875 1.886719 7.144531 1.796875 8.382812 2.386719 C 8.8125 1.730469 9.546875 1.332031 10.332031 1.332031 Z M 7.332031 10 L 6 10 L 6 13.332031 L 7.332031 13.332031 Z M 10 10 L 8.667969 10 L 8.667969 13.332031 L 10 13.332031 Z M 11.667969 8.667969 C 12.339844 8.667969 12.949219 8.261719 13.207031 7.636719 C 13.464844 7.015625 13.320312 6.296875 12.84375 5.820312 C 12.367188 5.34375 11.652344 5.203125 11.03125 5.460938 L 10.914062 5.515625 C 10.273438 5.84375 9.488281 5.605469 9.136719 4.976562 L 9.089844 4.886719 C 8.65625 3.941406 7.707031 3.332031 6.667969 3.332031 C 5.238281 3.332031 4.074219 4.457031 4.003906 5.84375 L 4 5.976562 L 4.003906 6.089844 C 4.011719 6.625 3.699219 7.113281 3.210938 7.332031 L 3.113281 7.371094 C 2.804688 7.480469 2.621094 7.792969 2.675781 8.113281 C 2.730469 8.433594 3.007812 8.664062 3.332031 8.667969 Z M 11.667969 8.667969 "/>
</g>
</svg>
