<?xml version="1.0" encoding="UTF-8"?>
<svg xmlns="http://www.w3.org/2000/svg" xmlns:xlink="http://www.w3.org/1999/xlink" width="16" height="16" viewBox="0 0 16 16" version="1.1">
<g id="surface1">
<path style=" stroke:none;fill-rule:nonzero;fill:rgb(100%,100%,100%);fill-opacity:1;" d="M 6.570312 13.140625 L 8 10.667969 L 3.378906 10.667969 C 4.078125 11.875 5.226562 12.765625 6.570312 13.140625 Z M 2.835938 9.332031 L 5.691406 9.332031 L 3.378906 5.332031 C 2.910156 6.144531 2.664062 7.0625 2.667969 8 C 2.667969 8.460938 2.726562 8.90625 2.835938 9.332031 Z M 4.261719 4.195312 L 5.691406 6.667969 L 8 2.667969 C 6.601562 2.664062 5.257812 3.214844 4.261719 4.195312 Z M 9.429688 2.859375 L 8 5.332031 L 12.621094 5.332031 C 11.921875 4.125 10.773438 3.234375 9.429688 2.859375 Z M 13.164062 6.667969 L 10.308594 6.667969 L 12.621094 10.667969 C 13.089844 9.855469 13.335938 8.9375 13.332031 8 C 13.332031 7.539062 13.273438 7.09375 13.164062 6.667969 Z M 11.738281 11.804688 L 10.308594 9.332031 L 8 13.332031 C 9.398438 13.335938 10.742188 12.785156 11.738281 11.804688 Z M 8 14.667969 C 4.316406 14.667969 1.332031 11.683594 1.332031 8 C 1.332031 4.316406 4.316406 1.332031 8 1.332031 C 11.683594 1.332031 14.667969 4.316406 14.667969 8 C 14.667969 11.683594 11.683594 14.667969 8 14.667969 Z M 8.769531 6.667969 L 7.230469 6.667969 L 6.460938 8 L 7.230469 9.332031 L 8.769531 9.332031 L 9.539062 8 Z M 8.769531 6.667969 "/>
</g>
</svg>
