<?xml version="1.0" encoding="UTF-8"?>
<svg xmlns="http://www.w3.org/2000/svg" xmlns:xlink="http://www.w3.org/1999/xlink" width="16" height="16" viewBox="0 0 16 16" version="1.1">
<g id="surface1">
<path style=" stroke:none;fill-rule:nonzero;fill:rgb(100%,100%,100%);fill-opacity:1;" d="M 13.183594 2.816406 C 14.746094 4.375 14.746094 6.910156 13.183594 8.472656 L 8.472656 13.183594 C 6.910156 14.746094 4.375 14.746094 2.816406 13.183594 C 1.253906 11.625 1.253906 9.089844 2.816406 7.527344 L 7.527344 2.816406 C 9.089844 1.253906 11.625 1.253906 13.183594 2.816406 Z M 9.414062 10.355469 L 5.644531 6.585938 L 3.757812 8.472656 C 2.714844 9.511719 2.714844 11.203125 3.757812 12.242188 C 4.796875 13.285156 6.488281 13.285156 7.527344 12.242188 Z M 12.242188 3.757812 C 11.203125 2.714844 9.511719 2.714844 8.472656 3.757812 L 6.585938 5.644531 L 10.359375 9.414062 L 12.242188 7.527344 C 13.285156 6.488281 13.285156 4.796875 12.242188 3.757812 Z M 12.242188 3.757812 "/>
</g>
</svg>
