<?xml version="1.0" encoding="UTF-8"?>
<svg xmlns="http://www.w3.org/2000/svg" xmlns:xlink="http://www.w3.org/1999/xlink" width="16" height="16" viewBox="0 0 16 16" version="1.1">
<g id="surface1">
<path style=" stroke:none;fill-rule:nonzero;fill:rgb(100%,100%,100%);fill-opacity:1;" d="M 9.449219 2 C 9.800781 2 10.140625 2.140625 10.390625 2.390625 L 13.609375 5.609375 C 13.859375 5.859375 14 6.199219 14 6.550781 L 14 11.332031 L 15.332031 11.332031 L 15.332031 12.667969 L 9.914062 12.667969 C 9.621094 13.816406 8.574219 14.667969 7.332031 14.667969 C 6.089844 14.667969 5.046875 13.816406 4.75 12.667969 L 2 12.667969 C 1.632812 12.667969 1.332031 12.367188 1.332031 12 L 1.332031 3.332031 C 1.332031 2.597656 1.929688 2 2.667969 2 Z M 7.332031 10.667969 C 6.597656 10.667969 6 11.261719 6 12 C 6 12.738281 6.597656 13.332031 7.332031 13.332031 C 8.070312 13.332031 8.667969 12.738281 8.667969 12 C 8.667969 11.261719 8.070312 10.667969 7.332031 10.667969 Z M 9.332031 4.667969 L 4 4.667969 L 4 8.667969 L 9.332031 8.667969 Z M 8 6 L 8 7.332031 L 5.332031 7.332031 L 5.332031 6 Z M 8 6 "/>
</g>
</svg>
