<?xml version="1.0" encoding="UTF-8"?>
<svg xmlns="http://www.w3.org/2000/svg" xmlns:xlink="http://www.w3.org/1999/xlink" width="16" height="16" viewBox="0 0 16 16" version="1.1">
<g id="surface1">
<path style=" stroke:none;fill-rule:nonzero;fill:rgb(100%,100%,100%);fill-opacity:1;" d="M 2 2 L 14 2 C 14.367188 2 14.667969 2.296875 14.667969 2.667969 L 14.667969 13.332031 C 14.667969 13.703125 14.367188 14 14 14 L 10 14 C 10 13.554688 9.964844 13.109375 9.898438 12.667969 L 13.332031 12.667969 L 13.332031 3.332031 L 2.667969 3.332031 L 2.667969 5.433594 C 2.226562 5.367188 1.78125 5.332031 1.332031 5.332031 L 1.332031 2.667969 C 1.332031 2.296875 1.632812 2 2 2 Z M 8.667969 14 L 7.332031 14 C 7.332031 10.6875 4.648438 8 1.332031 8 L 1.332031 6.667969 C 5.382812 6.667969 8.667969 9.949219 8.667969 14 Z M 6 14 L 4.667969 14 C 4.667969 12.160156 3.175781 10.667969 1.332031 10.667969 L 1.332031 9.332031 C 3.910156 9.332031 6 11.421875 6 14 Z M 3.332031 14 L 1.332031 14 L 1.332031 12 C 2.4375 12 3.332031 12.894531 3.332031 14 Z M 3.332031 14 "/>
</g>
</svg>
