<?xml version="1.0" encoding="UTF-8"?>
<svg xmlns="http://www.w3.org/2000/svg" xmlns:xlink="http://www.w3.org/1999/xlink" width="16" height="16" viewBox="0 0 16 16" version="1.1">
<g id="surface1">
<path style=" stroke:none;fill-rule:nonzero;fill:rgb(100%,100%,100%);fill-opacity:1;" d="M 14.667969 8 L 13.332031 8 L 13.332031 3.332031 L 2.667969 3.332031 L 2.667969 12.257812 L 3.84375 11.332031 L 8 11.332031 L 8 12.667969 L 4.304688 12.667969 L 1.332031 15 L 1.332031 2.667969 C 1.332031 2.296875 1.632812 2 2 2 L 14 2 C 14.367188 2 14.667969 2.296875 14.667969 2.667969 Z M 9.429688 12.714844 C 9.300781 12.246094 9.300781 11.753906 9.429688 11.285156 L 8.78125 10.910156 L 9.445312 9.757812 L 10.097656 10.132812 C 10.4375 9.785156 10.863281 9.539062 11.332031 9.417969 L 11.332031 8.667969 L 12.667969 8.667969 L 12.667969 9.417969 C 13.144531 9.539062 13.570312 9.789062 13.902344 10.132812 L 14.554688 9.757812 L 15.21875 10.910156 L 14.570312 11.285156 C 14.699219 11.753906 14.699219 12.246094 14.570312 12.714844 L 15.21875 13.089844 L 14.554688 14.242188 L 13.902344 13.867188 C 13.570312 14.207031 13.144531 14.460938 12.667969 14.582031 L 12.667969 15.332031 L 11.332031 15.332031 L 11.332031 14.582031 C 10.863281 14.460938 10.4375 14.214844 10.097656 13.867188 L 9.445312 14.242188 L 8.78125 13.089844 Z M 12 13.332031 C 12.738281 13.332031 13.332031 12.738281 13.332031 12 C 13.332031 11.261719 12.738281 10.667969 12 10.667969 C 11.261719 10.667969 10.667969 11.261719 10.667969 12 C 10.667969 12.738281 11.261719 13.332031 12 13.332031 Z M 12 13.332031 "/>
</g>
</svg>
