<?xml version="1.0" encoding="UTF-8"?>
<svg xmlns="http://www.w3.org/2000/svg" xmlns:xlink="http://www.w3.org/1999/xlink" width="16" height="16" viewBox="0 0 16 16" version="1.1">
<g id="surface1">
<path style=" stroke:none;fill-rule:nonzero;fill:rgb(100%,100%,100%);fill-opacity:1;" d="M 1.332031 8 C 1.332031 4.316406 4.316406 1.332031 8 1.332031 C 11.683594 1.332031 14.667969 4.316406 14.667969 8 C 14.667969 11.683594 11.683594 14.667969 8 14.667969 L 1.332031 14.667969 L 3.285156 12.714844 C 2.035156 11.464844 1.332031 9.769531 1.332031 8 Z M 4.550781 13.332031 L 8 13.332031 C 10.945312 13.332031 13.332031 10.945312 13.332031 8 C 13.332031 5.054688 10.945312 2.667969 8 2.667969 C 5.054688 2.667969 2.667969 5.054688 2.667969 8 C 2.667969 9.433594 3.234375 10.777344 4.230469 11.769531 L 5.171875 12.714844 Z M 7.332031 4 L 8.667969 4 L 8.667969 12 L 7.332031 12 Z M 4.667969 6 L 6 6 L 6 10 L 4.667969 10 Z M 10 6 L 11.332031 6 L 11.332031 10 L 10 10 Z M 10 6 "/>
</g>
</svg>
