<?xml version="1.0" encoding="UTF-8"?>
<svg xmlns="http://www.w3.org/2000/svg" xmlns:xlink="http://www.w3.org/1999/xlink" width="16" height="16" viewBox="0 0 16 16" version="1.1">
<g id="surface1">
<path style=" stroke:none;fill-rule:nonzero;fill:rgb(100%,100%,100%);fill-opacity:1;" d="M 7.332031 12.667969 L 7.332031 8.667969 L 6 8 L 6 6 L 10 6 L 10 8 L 8.667969 8.667969 L 8.667969 12.667969 L 12 13.332031 L 12 14.667969 L 4 14.667969 L 4 13.332031 Z M 6.667969 1.480469 L 6.667969 0.667969 L 9.332031 0.667969 L 9.332031 1.480469 C 11.671875 2.015625 13.464844 3.890625 13.898438 6.246094 C 14.335938 8.605469 13.324219 10.996094 11.328125 12.324219 L 10.589844 11.214844 C 12.300781 10.074219 13.0625 7.949219 12.464844 5.980469 C 11.871094 4.011719 10.054688 2.667969 8 2.667969 C 5.941406 2.667969 4.128906 4.011719 3.535156 5.980469 C 2.9375 7.949219 3.699219 10.074219 5.410156 11.214844 L 4.671875 12.324219 C 2.675781 10.996094 1.664062 8.605469 2.101562 6.246094 C 2.535156 3.890625 4.328125 2.015625 6.667969 1.480469 Z M 6.667969 1.480469 "/>
</g>
</svg>
