<?xml version="1.0" encoding="UTF-8"?>
<svg xmlns="http://www.w3.org/2000/svg" xmlns:xlink="http://www.w3.org/1999/xlink" width="16" height="16" viewBox="0 0 16 16" version="1.1">
<g id="surface1">
<path style=" stroke:none;fill-rule:evenodd;fill:rgb(100%,100%,100%);fill-opacity:1;" d="M 7.765625 2.53125 C 5.25 2.53125 3.164062 4.488281 3.007812 7 C 3.007812 7 3.003906 7 3 7 C 1.34375 7 0 8.34375 0 10 C 0 11.65625 1.34375 13 3 13 C 3.015625 13 3.03125 13 3.050781 13 L 12 13 L 12 12.992188 C 14.246094 12.859375 16 11 16 8.75 C 16 6.402344 14.097656 4.5 11.75 4.5 C 11.710938 4.5 11.664062 4.5 11.625 4.5 C 10.726562 3.265625 9.292969 2.53125 7.765625 2.53125 Z M 7.765625 2.53125 "/>
</g>
</svg>
