<?xml version="1.0" encoding="UTF-8"?>
<svg xmlns="http://www.w3.org/2000/svg" xmlns:xlink="http://www.w3.org/1999/xlink" width="16" height="16" viewBox="0 0 16 16" version="1.1">
<g id="surface1">
<path style=" stroke:none;fill-rule:nonzero;fill:rgb(100%,100%,100%);fill-opacity:1;" d="M 9.5625 0.00390625 C 7.804688 -0.0351562 5.769531 0.476562 3.546875 1.820312 L 3.523438 1.835938 L 3.5 1.859375 C 0.5 4.132812 -0.367188 7.195312 0.132812 9.859375 C 0.632812 12.527344 2.429688 14.839844 4.785156 15.730469 L 4.835938 15.746094 L 4.894531 15.761719 C 7.15625 16.144531 8.457031 16.078125 9.296875 15.484375 C 9.710938 15.1875 9.945312 14.761719 10.054688 14.34375 C 10.15625 13.921875 10.164062 13.492188 10.164062 13.070312 C 10.15625 12.21875 10.132812 11.390625 10.464844 10.710938 C 10.792969 10.03125 11.453125 9.40625 13.15625 8.992188 C 14.78125 8.609375 15.75 7.46875 15.953125 6.183594 C 16.15625 4.898438 15.695312 3.476562 14.714844 2.3125 C 13.734375 1.148438 12.210938 0.265625 10.296875 0.0507812 C 10.054688 0.0234375 9.8125 0.0078125 9.5625 0.00390625 Z M 9 2 C 9.550781 2 10 2.445312 10 3 C 10 3.554688 9.550781 4 9 4 C 8.445312 4 8 3.554688 8 3 C 8 2.445312 8.445312 2 9 2 Z M 5.441406 3.601562 C 5.992188 3.601562 6.441406 4.046875 6.441406 4.601562 C 6.441406 5.15625 5.992188 5.601562 5.441406 5.601562 C 4.890625 5.601562 4.441406 5.15625 4.441406 4.601562 C 4.441406 4.046875 4.890625 3.601562 5.441406 3.601562 Z M 13 4 C 13.550781 4 14 4.445312 14 5 C 14 5.554688 13.550781 6 13 6 C 12.445312 6 12 5.554688 12 5 C 12 4.445312 12.445312 4 13 4 Z M 3 7 C 3.550781 7 4 7.445312 4 8 C 4 8.554688 3.550781 9 3 9 C 2.445312 9 2 8.554688 2 8 C 2 7.445312 2.445312 7 3 7 Z M 3 7 "/>
</g>
</svg>
