<?xml version="1.0" encoding="UTF-8"?>
<svg xmlns="http://www.w3.org/2000/svg" xmlns:xlink="http://www.w3.org/1999/xlink" width="16" height="16" viewBox="0 0 16 16" version="1.1">
<g id="surface1">
<path style=" stroke:none;fill-rule:nonzero;fill:rgb(100%,100%,100%);fill-opacity:1;" d="M 6 12.667969 L 8 12.667969 L 8 8.628906 L 5.332031 6.300781 L 2.667969 8.628906 L 2.667969 12.667969 L 4.667969 12.667969 L 4.667969 10 L 6 10 Z M 14 14 L 2 14 C 1.632812 14 1.332031 13.703125 1.332031 13.332031 L 1.332031 8.324219 C 1.332031 8.132812 1.417969 7.949219 1.5625 7.820312 L 4 5.695312 L 4 2.667969 C 4 2.296875 4.296875 2 4.667969 2 L 14 2 C 14.367188 2 14.667969 2.296875 14.667969 2.667969 L 14.667969 13.332031 C 14.667969 13.703125 14.367188 14 14 14 Z M 10.667969 7.332031 L 10.667969 8.667969 L 12 8.667969 L 12 7.332031 Z M 10.667969 10 L 10.667969 11.332031 L 12 11.332031 L 12 10 Z M 10.667969 4.667969 L 10.667969 6 L 12 6 L 12 4.667969 Z M 8 4.667969 L 8 6 L 9.332031 6 L 9.332031 4.667969 Z M 8 4.667969 "/>
</g>
</svg>
