<?xml version="1.0" encoding="UTF-8"?>
<svg xmlns="http://www.w3.org/2000/svg" xmlns:xlink="http://www.w3.org/1999/xlink" width="16" height="16" viewBox="0 0 16 16" version="1.1">
<g id="surface1">
<path style=" stroke:none;fill-rule:nonzero;fill:rgb(100%,100%,100%);fill-opacity:1;" d="M 10.886719 9 C 12.011719 8.117188 12.667969 6.765625 12.667969 5.332031 L 14 5.332031 C 14 7.242188 13.09375 9.035156 11.558594 10.164062 L 13.242188 13.082031 C 13.613281 13.71875 13.394531 14.535156 12.757812 14.902344 L 10.40625 10.832031 C 9.644531 11.164062 8.828125 11.335938 8 11.332031 C 7.171875 11.335938 6.355469 11.164062 5.59375 10.832031 L 3.242188 14.902344 C 2.605469 14.535156 2.386719 13.71875 2.757812 13.082031 L 6.132812 7.234375 C 5.445312 6.5625 5.175781 5.570312 5.425781 4.644531 C 5.671875 3.714844 6.402344 2.992188 7.332031 2.75 L 7.332031 1.332031 L 8.667969 1.332031 L 8.667969 2.75 C 9.597656 2.992188 10.328125 3.714844 10.574219 4.644531 C 10.824219 5.570312 10.554688 6.5625 9.867188 7.234375 Z M 9.734375 9.667969 L 8.714844 7.902344 C 8.246094 8.03125 7.753906 8.03125 7.285156 7.902344 L 6.269531 9.667969 C 6.804688 9.882812 7.386719 10 8 10 C 8.613281 10 9.199219 9.882812 9.734375 9.667969 Z M 8 6.667969 C 8.738281 6.667969 9.332031 6.070312 9.332031 5.332031 C 9.332031 4.597656 8.738281 4 8 4 C 7.261719 4 6.667969 4.597656 6.667969 5.332031 C 6.667969 6.070312 7.261719 6.667969 8 6.667969 Z M 8 6.667969 "/>
</g>
</svg>
