<?xml version="1.0" encoding="UTF-8"?>
<svg xmlns="http://www.w3.org/2000/svg" xmlns:xlink="http://www.w3.org/1999/xlink" width="16" height="16" viewBox="0 0 16 16" version="1.1">
<g id="surface1">
<path style=" stroke:none;fill-rule:evenodd;fill:rgb(100%,100%,100%);fill-opacity:1;" d="M 9.375 0.109375 C 7.566406 -0.203125 5.652344 0.101562 4.023438 1.070312 C 0.707031 2.902344 -0.851562 7.074219 0.453125 10.632812 C 1.640625 14.230469 5.460938 16.535156 9.195312 15.90625 C 13.054688 15.390625 16.058594 11.886719 15.988281 7.992188 C 15.992188 6.105469 15.3125 4.257812 14.085938 2.820312 C 12.878906 1.359375 11.183594 0.425781 9.375 0.109375 Z M 9.027344 2.109375 C 10.398438 2.351562 11.6875 3.035156 12.554688 4.097656 C 12.5625 4.101562 12.566406 4.109375 12.570312 4.109375 C 13.484375 5.179688 14.007812 6.59375 14.003906 7.992188 C 14.003906 8 14.003906 8.007812 14.003906 8.015625 C 14.0625 10.835938 11.710938 13.566406 8.917969 13.929688 C 8.902344 13.929688 8.890625 13.933594 8.875 13.9375 C 6.167969 14.398438 3.195312 12.597656 2.339844 9.988281 C 2.335938 9.976562 2.328125 9.96875 2.328125 9.960938 C 1.375 7.382812 2.589844 4.125 5 2.804688 C 5.007812 2.796875 5.023438 2.789062 5.035156 2.78125 C 6.210938 2.078125 7.660156 1.875 9.027344 2.109375 Z M 9.027344 2.109375 "/>
<path style=" stroke:none;fill-rule:nonzero;fill:rgb(100%,100%,100%);fill-opacity:1;" d="M 11.316406 3 L 5.914062 6.617188 L 4.683594 13 L 10.085938 9.382812 Z M 11.316406 3 "/>
</g>
</svg>
