<?xml version="1.0" encoding="UTF-8"?>
<svg xmlns="http://www.w3.org/2000/svg" xmlns:xlink="http://www.w3.org/1999/xlink" width="16" height="16" viewBox="0 0 16 16" version="1.1">
<g id="surface1">
<path style=" stroke:none;fill-rule:nonzero;fill:rgb(100%,100%,100%);fill-opacity:1;" d="M 2 1.332031 L 12.671875 1.332031 C 13.40625 1.332031 14 1.933594 14 2.660156 L 14 13.339844 C 14 14.074219 13.40625 14.667969 12.671875 14.667969 L 2 14.667969 Z M 4.667969 2.667969 L 3.332031 2.667969 L 3.332031 13.332031 L 4.667969 13.332031 Z M 6 13.332031 L 12.667969 13.332031 L 12.667969 2.667969 L 6 2.667969 Z M 7.332031 10.667969 C 7.332031 9.5625 8.230469 8.667969 9.332031 8.667969 C 10.4375 8.667969 11.332031 9.5625 11.332031 10.667969 Z M 9.332031 8 C 8.597656 8 8 7.402344 8 6.667969 C 8 5.929688 8.597656 5.332031 9.332031 5.332031 C 10.070312 5.332031 10.667969 5.929688 10.667969 6.667969 C 10.667969 7.402344 10.070312 8 9.332031 8 Z M 14.667969 4 L 16 4 L 16 6.667969 L 14.667969 6.667969 Z M 14.667969 8 L 16 8 L 16 10.667969 L 14.667969 10.667969 Z M 14.667969 8 "/>
</g>
</svg>
