<?xml version="1.0" encoding="UTF-8"?>
<svg xmlns="http://www.w3.org/2000/svg" xmlns:xlink="http://www.w3.org/1999/xlink" width="16" height="16" viewBox="0 0 16 16" version="1.1">
<g id="surface1">
<path style=" stroke:none;fill-rule:nonzero;fill:rgb(100%,100%,100%);fill-opacity:1;" d="M 1.332031 6.332031 L 1.332031 2.667969 C 1.332031 2.296875 1.632812 2 2 2 L 14 2 C 14.367188 2 14.667969 2.296875 14.667969 2.667969 L 14.667969 6.332031 C 13.746094 6.332031 13 7.078125 13 8 C 13 8.921875 13.746094 9.667969 14.667969 9.667969 L 14.667969 13.332031 C 14.667969 13.703125 14.367188 14 14 14 L 2 14 C 1.632812 14 1.332031 13.703125 1.332031 13.332031 L 1.332031 9.667969 C 2.253906 9.667969 3 8.921875 3 8 C 3 7.078125 2.253906 6.332031 1.332031 6.332031 Z M 9.332031 3.332031 L 2.667969 3.332031 L 2.667969 5.3125 C 3.6875 5.816406 4.335938 6.859375 4.335938 8 C 4.335938 9.140625 3.6875 10.183594 2.667969 10.6875 L 2.667969 12.667969 L 9.332031 12.667969 Z M 10.667969 3.332031 L 10.667969 12.667969 L 13.332031 12.667969 L 13.332031 10.6875 C 12.3125 10.183594 11.664062 9.140625 11.664062 8 C 11.664062 6.859375 12.3125 5.816406 13.332031 5.3125 L 13.332031 3.332031 Z M 10.667969 3.332031 "/>
</g>
</svg>
