<?xml version="1.0" encoding="UTF-8"?>
<svg xmlns="http://www.w3.org/2000/svg" xmlns:xlink="http://www.w3.org/1999/xlink" width="16" height="16" viewBox="0 0 16 16" version="1.1">
<g id="surface1">
<path style=" stroke:none;fill-rule:nonzero;fill:rgb(100%,100%,100%);fill-opacity:1;" d="M 8 1.332031 C 11.683594 1.332031 14.667969 4.316406 14.667969 8 C 14.667969 11.683594 11.683594 14.667969 8 14.667969 C 4.316406 14.667969 1.332031 11.683594 1.332031 8 C 1.332031 4.316406 4.316406 1.332031 8 1.332031 Z M 6 5.332031 C 4.527344 5.332031 3.332031 6.527344 3.332031 8 C 3.335938 9.050781 3.953125 10.003906 4.914062 10.433594 C 5.871094 10.863281 6.996094 10.6875 7.78125 9.984375 L 7.886719 9.886719 L 6.941406 8.941406 C 6.433594 9.453125 5.609375 9.464844 5.085938 8.96875 C 4.558594 8.472656 4.523438 7.648438 5.003906 7.113281 C 5.484375 6.574219 6.308594 6.515625 6.859375 6.980469 L 6.941406 7.058594 L 7.886719 6.117188 C 7.386719 5.613281 6.707031 5.332031 6 5.332031 Z M 10.667969 5.332031 C 9.195312 5.332031 8 6.527344 8 8 C 8 9.050781 8.621094 10.003906 9.578125 10.433594 C 10.539062 10.863281 11.664062 10.6875 12.445312 9.984375 L 12.550781 9.886719 L 11.609375 8.941406 C 11.097656 9.453125 10.273438 9.464844 9.75 8.96875 C 9.226562 8.472656 9.191406 7.648438 9.671875 7.113281 C 10.152344 6.574219 10.972656 6.515625 11.527344 6.980469 L 11.609375 7.058594 L 12.550781 6.117188 C 12.054688 5.613281 11.375 5.332031 10.667969 5.332031 Z M 10.667969 5.332031 "/>
</g>
</svg>
