<?xml version="1.0" encoding="UTF-8"?>
<svg xmlns="http://www.w3.org/2000/svg" xmlns:xlink="http://www.w3.org/1999/xlink" width="16" height="16" viewBox="0 0 16 16" version="1.1">
<g id="surface1">
<path style=" stroke:none;fill-rule:nonzero;fill:rgb(100%,100%,100%);fill-opacity:1;" d="M 8 1.332031 C 11.683594 1.332031 14.667969 4.316406 14.667969 8 C 14.667969 11.683594 11.683594 14.667969 8 14.667969 C 4.316406 14.667969 1.332031 11.683594 1.332031 8 C 1.332031 4.316406 4.316406 1.332031 8 1.332031 Z M 8 2.667969 C 5.054688 2.667969 2.667969 5.054688 2.667969 8 C 2.667969 10.945312 5.054688 13.332031 8 13.332031 C 10.945312 13.332031 13.332031 10.945312 13.332031 8 C 13.332031 5.054688 10.945312 2.667969 8 2.667969 Z M 6 5.332031 C 6.738281 5.332031 7.402344 5.632812 7.886719 6.117188 L 6.941406 7.058594 C 6.421875 6.535156 5.578125 6.535156 5.058594 7.058594 C 4.535156 7.578125 4.535156 8.421875 5.058594 8.941406 C 5.578125 9.464844 6.421875 9.464844 6.941406 8.941406 L 7.886719 9.886719 C 7.121094 10.648438 5.976562 10.875 4.980469 10.460938 C 3.984375 10.050781 3.335938 9.078125 3.332031 8 C 3.332031 6.527344 4.527344 5.332031 6 5.332031 Z M 10.667969 5.332031 C 11.402344 5.332031 12.070312 5.632812 12.550781 6.117188 L 11.609375 7.058594 C 11.089844 6.535156 10.246094 6.535156 9.722656 7.058594 C 9.203125 7.578125 9.203125 8.421875 9.722656 8.941406 C 10.246094 9.464844 11.089844 9.464844 11.609375 8.941406 L 12.550781 9.886719 C 11.789062 10.648438 10.644531 10.875 9.648438 10.460938 C 8.652344 10.050781 8 9.078125 8 8 C 8 6.527344 9.195312 5.332031 10.667969 5.332031 Z M 10.667969 5.332031 "/>
</g>
</svg>
