<?xml version="1.0" encoding="UTF-8"?>
<svg xmlns="http://www.w3.org/2000/svg" xmlns:xlink="http://www.w3.org/1999/xlink" width="16" height="16" viewBox="0 0 16 16" version="1.1">
<g id="surface1">
<path style=" stroke:none;fill-rule:nonzero;fill:rgb(100%,100%,100%);fill-opacity:1;" d="M 2.949219 1 C 1.3125 1.027344 0 2.277344 0 3.808594 C 0 5.363281 1.34375 6.621094 3 6.621094 C 3.4375 6.621094 3.875 6.53125 4.273438 6.355469 L 6.027344 8 L 4.273438 9.644531 C 3.875 9.46875 3.4375 9.378906 3 9.378906 C 1.34375 9.378906 0 10.636719 0 12.191406 C 0 13.742188 1.34375 15 3 15 C 4.65625 15 6 13.742188 6 12.191406 C 6 11.796875 5.910156 11.410156 5.742188 11.054688 L 7.515625 9.394531 L 11.59375 13.214844 C 12.84375 14.386719 14.265625 14.632812 15.160156 14.652344 C 15.695312 14.664062 16.039062 14.59375 16.039062 14.59375 L 9.003906 8 L 7.515625 6.605469 L 5.742188 4.945312 C 5.910156 4.589844 6 4.203125 6 3.808594 C 6 2.257812 4.65625 1 3 1 C 2.984375 1 2.964844 1 2.949219 1 Z M 15.160156 1.347656 C 14.265625 1.367188 12.84375 1.613281 11.59375 2.785156 L 8.996094 5.21875 L 10.484375 6.613281 L 16.039062 1.40625 C 16.039062 1.40625 15.695312 1.335938 15.160156 1.347656 Z M 3 2.261719 C 3.914062 2.261719 4.652344 2.953125 4.65625 3.808594 C 4.652344 4.664062 3.914062 5.359375 3 5.359375 C 3 5.359375 2.996094 5.359375 2.996094 5.359375 C 2.085938 5.355469 1.347656 4.664062 1.347656 3.808594 C 1.347656 2.953125 2.085938 2.261719 3 2.261719 Z M 2.996094 10.640625 C 2.996094 10.640625 3 10.640625 3 10.640625 C 3.914062 10.640625 4.652344 11.335938 4.65625 12.191406 C 4.652344 13.046875 3.914062 13.738281 3 13.738281 C 2.085938 13.738281 1.347656 13.046875 1.347656 12.191406 C 1.347656 11.335938 2.085938 10.644531 2.996094 10.640625 Z M 2.996094 10.640625 "/>
</g>
</svg>
