<?xml version="1.0" encoding="UTF-8"?>
<svg xmlns="http://www.w3.org/2000/svg" xmlns:xlink="http://www.w3.org/1999/xlink" width="16" height="16" viewBox="0 0 16 16" version="1.1">
<g id="surface1">
<path style=" stroke:none;fill-rule:nonzero;fill:rgb(100%,100%,100%);fill-opacity:1;" d="M 8 1.332031 C 11.683594 1.332031 14.667969 4.316406 14.667969 8 C 14.667969 11.683594 11.683594 14.667969 8 14.667969 C 4.316406 14.667969 1.332031 11.683594 1.332031 8 C 1.332031 4.316406 4.316406 1.332031 8 1.332031 Z M 11.0625 4.9375 C 10.929688 4.800781 10.714844 4.78125 10.554688 4.890625 C 8.628906 6.242188 7.542969 7.042969 7.292969 7.292969 C 6.902344 7.683594 6.902344 8.316406 7.292969 8.707031 C 7.683594 9.097656 8.316406 9.097656 8.707031 8.707031 C 8.851562 8.5625 9.652344 7.472656 11.105469 5.441406 C 11.21875 5.285156 11.199219 5.070312 11.0625 4.9375 Z M 11.667969 7.332031 C 11.296875 7.332031 11 7.632812 11 8 C 11 8.367188 11.296875 8.667969 11.667969 8.667969 C 12.035156 8.667969 12.332031 8.367188 12.332031 8 C 12.332031 7.632812 12.035156 7.332031 11.667969 7.332031 Z M 4.332031 7.332031 C 3.964844 7.332031 3.667969 7.632812 3.667969 8 C 3.667969 8.367188 3.964844 8.667969 4.332031 8.667969 C 4.703125 8.667969 5 8.367188 5 8 C 5 7.632812 4.703125 7.332031 4.332031 7.332031 Z M 5.878906 4.9375 C 5.617188 4.675781 5.195312 4.675781 4.9375 4.9375 C 4.675781 5.195312 4.675781 5.617188 4.9375 5.878906 C 5.195312 6.136719 5.617188 6.136719 5.878906 5.878906 C 6.136719 5.617188 6.136719 5.195312 5.878906 4.9375 Z M 8 3.667969 C 7.632812 3.667969 7.332031 3.964844 7.332031 4.332031 C 7.332031 4.703125 7.632812 5 8 5 C 8.367188 5 8.667969 4.703125 8.667969 4.332031 C 8.667969 3.964844 8.367188 3.667969 8 3.667969 Z M 8 3.667969 "/>
</g>
</svg>
