<?xml version="1.0" encoding="UTF-8"?>
<svg xmlns="http://www.w3.org/2000/svg" xmlns:xlink="http://www.w3.org/1999/xlink" width="16" height="16" viewBox="0 0 16 16" version="1.1">
<g id="surface1">
<path style=" stroke:none;fill-rule:nonzero;fill:rgb(100%,100%,100%);fill-opacity:1;" d="M 3.332031 8.332031 C 3.332031 8.542969 3.640625 8.90625 4.351562 9.261719 C 5.277344 9.722656 6.585938 10 8 10 C 9.414062 10 10.722656 9.722656 11.648438 9.261719 C 12.359375 8.90625 12.667969 8.542969 12.667969 8.332031 L 12.667969 6.886719 C 11.566406 7.566406 9.882812 8 8 8 C 6.117188 8 4.433594 7.566406 3.332031 6.886719 Z M 12.667969 10.21875 C 11.566406 10.898438 9.882812 11.332031 8 11.332031 C 6.117188 11.332031 4.433594 10.898438 3.332031 10.21875 L 3.332031 11.667969 C 3.332031 11.875 3.640625 12.238281 4.351562 12.59375 C 5.277344 13.058594 6.585938 13.332031 8 13.332031 C 9.414062 13.332031 10.722656 13.058594 11.648438 12.59375 C 12.359375 12.238281 12.667969 11.875 12.667969 11.667969 Z M 2 11.667969 L 2 5 C 2 3.34375 4.6875 2 8 2 C 11.3125 2 14 3.34375 14 5 L 14 11.667969 C 14 13.324219 11.3125 14.667969 8 14.667969 C 4.6875 14.667969 2 13.324219 2 11.667969 Z M 8 6.667969 C 9.414062 6.667969 10.722656 6.390625 11.648438 5.929688 C 12.359375 5.570312 12.667969 5.207031 12.667969 5 C 12.667969 4.792969 12.359375 4.429688 11.648438 4.070312 C 10.722656 3.609375 9.414062 3.332031 8 3.332031 C 6.585938 3.332031 5.277344 3.609375 4.351562 4.070312 C 3.640625 4.429688 3.332031 4.792969 3.332031 5 C 3.332031 5.207031 3.640625 5.570312 4.351562 5.929688 C 5.277344 6.390625 6.585938 6.667969 8 6.667969 Z M 8 6.667969 "/>
</g>
</svg>
