<?xml version="1.0" encoding="UTF-8"?>
<svg xmlns="http://www.w3.org/2000/svg" xmlns:xlink="http://www.w3.org/1999/xlink" width="16" height="16" viewBox="0 0 16 16" version="1.1">
<g id="surface1">
<path style=" stroke:none;fill-rule:nonzero;fill:rgb(100%,100%,100%);fill-opacity:1;" d="M 13.332031 4.667969 L 13.332031 13.332031 C 13.332031 14.070312 12.738281 14.667969 12 14.667969 L 4 14.667969 C 3.261719 14.667969 2.667969 14.070312 2.667969 13.332031 L 2.667969 4.667969 L 1.332031 4.667969 L 1.332031 3.332031 L 14.667969 3.332031 L 14.667969 4.667969 Z M 4 4.667969 L 4 13.332031 L 12 13.332031 L 12 4.667969 Z M 7.332031 6 L 8.667969 6 L 8.667969 7.332031 L 7.332031 7.332031 Z M 7.332031 8 L 8.667969 8 L 8.667969 9.332031 L 7.332031 9.332031 Z M 7.332031 10 L 8.667969 10 L 8.667969 11.332031 L 7.332031 11.332031 Z M 4.667969 1.332031 L 11.332031 1.332031 L 11.332031 2.667969 L 4.667969 2.667969 Z M 4.667969 1.332031 "/>
</g>
</svg>
