<?xml version="1.0" encoding="UTF-8"?>
<svg xmlns="http://www.w3.org/2000/svg" xmlns:xlink="http://www.w3.org/1999/xlink" width="16" height="16" viewBox="0 0 16 16" version="1.1">
<g id="surface1">
<path style=" stroke:none;fill-rule:nonzero;fill:rgb(100%,100%,100%);fill-opacity:1;" d="M 6.71875 7.332031 C 7.117188 7.332031 7.441406 7.632812 7.433594 8 C 7.433594 8.367188 7.117188 8.667969 6.71875 8.667969 C 6.324219 8.667969 6 8.367188 6 8 C 6 7.632812 6.316406 7.332031 6.71875 7.332031 Z M 9.28125 7.332031 C 9.683594 7.332031 10 7.632812 10 8 C 10 8.367188 9.683594 8.667969 9.28125 8.667969 C 8.890625 8.667969 8.566406 8.367188 8.566406 8 C 8.566406 7.632812 8.882812 7.332031 9.28125 7.332031 Z M 12.59375 1.332031 C 13.371094 1.332031 14 1.976562 14 2.773438 L 14 15.332031 L 12.527344 14.003906 L 11.695312 13.21875 L 10.816406 12.386719 L 11.183594 13.679688 L 3.40625 13.679688 C 2.628906 13.679688 2 13.039062 2 12.238281 L 2 2.773438 C 2 1.976562 2.628906 1.332031 3.40625 1.332031 Z M 9.949219 10.476562 C 11.460938 10.425781 12.046875 9.410156 12.046875 9.410156 C 12.046875 7.15625 11.058594 5.328125 11.058594 5.328125 C 10.070312 4.574219 9.132812 4.59375 9.132812 4.59375 L 9.035156 4.707031 C 10.203125 5.070312 10.742188 5.597656 10.742188 5.597656 C 10.105469 5.238281 9.40625 5.007812 8.679688 4.925781 C 8.21875 4.871094 7.753906 4.878906 7.292969 4.9375 C 7.253906 4.9375 7.21875 4.945312 7.175781 4.953125 C 6.9375 4.972656 6.355469 5.0625 5.621094 5.394531 C 5.367188 5.511719 5.214844 5.597656 5.214844 5.597656 C 5.214844 5.597656 5.785156 5.042969 7.019531 4.679688 L 6.949219 4.59375 C 6.949219 4.59375 6.011719 4.574219 5.023438 5.332031 C 5.023438 5.332031 4.035156 7.15625 4.035156 9.410156 C 4.035156 9.410156 4.613281 10.425781 6.128906 10.476562 C 6.128906 10.476562 6.382812 10.160156 6.589844 9.894531 C 5.714844 9.628906 5.386719 9.066406 5.386719 9.066406 C 5.386719 9.066406 5.457031 9.117188 5.578125 9.1875 C 5.585938 9.195312 5.59375 9.203125 5.605469 9.207031 C 5.628906 9.222656 5.648438 9.230469 5.667969 9.242188 C 5.839844 9.339844 6.011719 9.417969 6.167969 9.480469 C 6.449219 9.59375 6.785156 9.707031 7.175781 9.78125 C 7.761719 9.898438 8.367188 9.898438 8.953125 9.789062 C 9.296875 9.726562 9.628906 9.628906 9.949219 9.488281 C 10.1875 9.398438 10.453125 9.265625 10.734375 9.074219 C 10.734375 9.074219 10.394531 9.648438 9.496094 9.910156 C 9.699219 10.175781 9.949219 10.476562 9.949219 10.476562 Z M 9.949219 10.476562 "/>
</g>
</svg>
