<?xml version="1.0" encoding="UTF-8"?>
<svg xmlns="http://www.w3.org/2000/svg" xmlns:xlink="http://www.w3.org/1999/xlink" width="16" height="16" viewBox="0 0 16 16" version="1.1">
<g id="surface1">
<path style=" stroke:none;fill-rule:nonzero;fill:rgb(100%,100%,100%);fill-opacity:1;" d="M 2.667969 2 L 13.332031 2 C 13.703125 2 14 2.296875 14 2.667969 L 14 13.332031 C 14 13.703125 13.703125 14 13.332031 14 L 2.667969 14 C 2.296875 14 2 13.703125 2 13.332031 L 2 2.667969 C 2 2.296875 2.296875 2 2.667969 2 Z M 3.332031 3.332031 L 3.332031 12.667969 L 12.667969 12.667969 L 12.667969 3.332031 Z M 7.332031 8.527344 C 6.609375 8.210938 6.207031 7.433594 6.367188 6.660156 C 6.53125 5.886719 7.210938 5.332031 8 5.332031 C 8.789062 5.332031 9.46875 5.886719 9.632812 6.660156 C 9.792969 7.433594 9.390625 8.210938 8.667969 8.527344 L 8.667969 10.667969 L 7.332031 10.667969 Z M 7.332031 8.527344 "/>
</g>
</svg>
