<?xml version="1.0" encoding="UTF-8"?>
<svg xmlns="http://www.w3.org/2000/svg" xmlns:xlink="http://www.w3.org/1999/xlink" width="16" height="16" viewBox="0 0 16 16" version="1.1">
<g id="surface1">
<path style=" stroke:none;fill-rule:evenodd;fill:rgb(100%,100%,100%);fill-opacity:1;" d="M 8 4 C 6.894531 4 6 3.105469 6 2 C 6 0.894531 6.894531 0 8 0 C 9.105469 0 10 0.894531 10 2 C 10 3.105469 9.105469 4 8 4 Z M 8 4 "/>
<path style=" stroke:none;fill-rule:evenodd;fill:rgb(100%,100%,100%);fill-opacity:1;" d="M 8 10 C 6.894531 10 6 9.105469 6 8 C 6 6.894531 6.894531 6 8 6 C 9.105469 6 10 6.894531 10 8 C 10 9.105469 9.105469 10 8 10 Z M 8 10 "/>
<path style=" stroke:none;fill-rule:evenodd;fill:rgb(100%,100%,100%);fill-opacity:1;" d="M 8 16 C 6.894531 16 6 15.105469 6 14 C 6 12.894531 6.894531 12 8 12 C 9.105469 12 10 12.894531 10 14 C 10 15.105469 9.105469 16 8 16 Z M 8 16 "/>
</g>
</svg>
