<?xml version="1.0" encoding="UTF-8"?>
<svg xmlns="http://www.w3.org/2000/svg" xmlns:xlink="http://www.w3.org/1999/xlink" width="16" height="16" viewBox="0 0 16 16" version="1.1">
<g id="surface1">
<path style=" stroke:none;fill-rule:nonzero;fill:rgb(100%,100%,100%);fill-opacity:1;" d="M 8 1.332031 C 4.320312 1.332031 1.332031 4.320312 1.332031 8 C 1.332031 11.679688 4.320312 14.667969 8 14.667969 C 11.671875 14.667969 14.667969 11.679688 14.667969 8 C 14.667969 4.320312 11.671875 1.332031 8 1.332031 Z M 12.402344 4.40625 C 13.222656 5.40625 13.679688 6.65625 13.691406 7.949219 C 13.503906 7.914062 11.621094 7.53125 9.726562 7.769531 C 9.683594 7.675781 9.648438 7.574219 9.605469 7.472656 C 9.488281 7.195312 9.363281 6.917969 9.230469 6.648438 C 11.324219 5.792969 12.28125 4.566406 12.402344 4.40625 Z M 8 2.316406 C 9.445312 2.316406 10.769531 2.859375 11.773438 3.75 C 11.671875 3.894531 10.8125 5.042969 8.789062 5.800781 C 7.855469 4.089844 6.820312 2.683594 6.660156 2.46875 C 7.101562 2.367188 7.550781 2.316406 8 2.316406 Z M 5.578125 2.851562 C 6.339844 3.910156 7.046875 5.007812 7.6875 6.140625 C 5.027344 6.851562 2.679688 6.835938 2.425781 6.835938 C 2.796875 5.089844 3.960938 3.613281 5.578125 2.851562 Z M 2.300781 8.007812 L 2.300781 7.832031 C 2.546875 7.839844 5.308594 7.875 8.152344 7.023438 C 8.320312 7.339844 8.46875 7.667969 8.613281 7.992188 C 8.542969 8.015625 8.460938 8.035156 8.390625 8.058594 C 5.453125 9.003906 3.894531 11.59375 3.761719 11.808594 C 2.824219 10.765625 2.300781 9.410156 2.300781 8.007812 Z M 8 13.699219 C 6.734375 13.699219 5.503906 13.277344 4.507812 12.496094 C 4.609375 12.289062 5.765625 10.0625 8.976562 8.941406 C 8.992188 8.933594 8.996094 8.933594 9.011719 8.925781 C 9.554688 10.324219 9.960938 11.769531 10.226562 13.242188 C 9.523438 13.542969 8.765625 13.699219 8 13.699219 Z M 11.175781 12.722656 C 11.117188 12.375 10.8125 10.710938 10.066406 8.664062 C 11.855469 8.382812 13.414062 8.847656 13.609375 8.910156 C 13.363281 10.464844 12.480469 11.847656 11.175781 12.722656 Z M 11.175781 12.722656 "/>
</g>
</svg>
