<?xml version="1.0" encoding="UTF-8"?>
<svg xmlns="http://www.w3.org/2000/svg" xmlns:xlink="http://www.w3.org/1999/xlink" width="16" height="16" viewBox="0 0 16 16" version="1.1">
<g id="surface1">
<path style=" stroke:none;fill-rule:nonzero;fill:rgb(100%,100%,100%);fill-opacity:1;" d="M 13.761719 5.722656 C 13.648438 5.25 13.46875 4.757812 13.246094 4.375 C 12.734375 3.492188 12.269531 2.886719 11.128906 2.164062 C 9.988281 1.441406 8.71875 1.332031 8.113281 1.332031 C 6.503906 1.332031 5.304688 1.90625 4.429688 2.589844 C 2.230469 4.3125 2 7.332031 2 7.332031 C 2 7.332031 2.8125 5.96875 4.359375 4.984375 C 5.296875 4.386719 6.628906 4 7.710938 4 C 10.589844 4 10.667969 6.667969 10.667969 6.667969 L 6 6.667969 C 6 5.332031 6.667969 4.667969 6.667969 4.667969 C 6.667969 4.667969 3.332031 6 3.332031 9.363281 C 3.332031 9.6875 3.332031 10.277344 3.5 10.882812 C 3.652344 11.445312 3.964844 12.019531 4.253906 12.453125 C 5.066406 13.675781 6.285156 14.195312 6.863281 14.390625 C 7.527344 14.609375 8.214844 14.667969 8.871094 14.667969 C 10.683594 14.667969 12.121094 14.074219 12.667969 13.816406 L 12.667969 11.035156 C 12.160156 11.339844 10.878906 12 9.332031 12 C 6 12 6 9.332031 6 9.332031 L 14 9.332031 L 14 7.671875 C 14 7.671875 13.972656 6.613281 13.761719 5.722656 Z M 13.761719 5.722656 "/>
</g>
</svg>
