<?xml version="1.0" encoding="UTF-8"?>
<svg xmlns="http://www.w3.org/2000/svg" xmlns:xlink="http://www.w3.org/1999/xlink" width="16" height="16" viewBox="0 0 16 16" version="1.1">
<g id="surface1">
<path style=" stroke:none;fill-rule:evenodd;fill:rgb(100%,100%,100%);fill-opacity:1;" d="M 3 0 C 1.335938 0 0 1.335938 0 3 L 0 13 C 0 14.664062 1.335938 16 3 16 L 13 16 C 14.664062 16 16 14.664062 16 13 L 16 3 C 16 1.335938 14.664062 0 13 0 Z M 5 1.640625 C 5.75 1.640625 6.359375 2.25 6.359375 3 C 6.359375 3.75 5.75 4.359375 5 4.359375 C 4.25 4.359375 3.640625 3.75 3.640625 3 C 3.640625 2.25 4.25 1.640625 5 1.640625 Z M 11 2 L 13.5 7 L 8.5 7 Z M 5 5 C 7.578125 5 7 10 7 10 L 6 10 L 6 14 L 4 14 L 4 10 L 3 10 C 3 10 2.421875 5 5 5 Z M 8.5 9 L 13.5 9 L 11 14 Z M 8.5 9 "/>
</g>
</svg>
