<?xml version="1.0" encoding="UTF-8"?>
<svg xmlns="http://www.w3.org/2000/svg" xmlns:xlink="http://www.w3.org/1999/xlink" width="16" height="16" viewBox="0 0 16 16" version="1.1">
<g id="surface1">
<path style=" stroke:none;fill-rule:nonzero;fill:rgb(100%,100%,100%);fill-opacity:1;" d="M 5.753906 5.167969 C 5.609375 5.304688 5.390625 5.3125 5.257812 5.3125 L 3.851562 5.3125 C 3.445312 5.3125 3.203125 5.3125 3.039062 5.335938 C 2.949219 5.347656 2.839844 5.390625 2.785156 5.414062 C 2.761719 5.425781 2.761719 5.414062 2.773438 5.402344 L 5.984375 2.109375 C 5.996094 2.097656 6.003906 2.097656 5.996094 2.121094 C 5.960938 2.203125 5.933594 2.289062 5.917969 2.375 C 5.894531 2.542969 5.894531 2.785156 5.894531 3.195312 L 5.894531 4.671875 C 5.894531 4.804688 5.882812 5.027344 5.753906 5.167969 Z M 8.875 14.625 C 8.5 14.382812 8.304688 14.058594 8.226562 13.859375 C 8.148438 13.667969 8.105469 13.460938 8.105469 13.25 C 8.105469 12.328125 8.855469 11.578125 9.777344 11.578125 C 10.050781 11.578125 10.269531 11.796875 10.269531 12.074219 C 10.273438 12.253906 10.175781 12.421875 10.019531 12.507812 C 9.960938 12.539062 9.898438 12.5625 9.832031 12.574219 C 9.777344 12.585938 9.566406 12.609375 9.46875 12.695312 C 9.347656 12.789062 9.277344 12.933594 9.269531 13.085938 C 9.269531 13.246094 9.332031 13.402344 9.445312 13.515625 C 9.644531 13.714844 9.910156 13.828125 10.195312 13.828125 C 10.945312 13.824219 11.550781 13.214844 11.546875 12.464844 C 11.546875 11.789062 11.097656 11.1875 10.503906 10.921875 C 10.414062 10.878906 10.269531 10.84375 10.140625 10.8125 C 10.03125 10.789062 9.921875 10.769531 9.808594 10.757812 C 9.347656 10.699219 8.191406 10.335938 8.117188 9.304688 C 8.117188 9.304688 7.777344 10.855469 7.09375 11.277344 C 7.027344 11.3125 6.941406 11.34375 6.839844 11.367188 C 6.742188 11.386719 6.632812 11.398438 6.597656 11.398438 C 5.488281 11.464844 4.3125 11.113281 3.5 10.269531 C 3.5 10.269531 2.949219 9.816406 2.664062 8.539062 C 2.597656 8.230469 2.464844 7.675781 2.386719 7.152344 C 2.355469 6.964844 2.34375 6.820312 2.332031 6.6875 C 2.332031 6.144531 2.664062 5.78125 3.082031 5.726562 L 5.324219 5.726562 C 5.707031 5.726562 5.929688 5.625 6.070312 5.492188 C 6.257812 5.3125 6.300781 5.058594 6.300781 4.757812 L 6.300781 2.421875 C 6.355469 2.011719 6.71875 1.667969 7.257812 1.667969 L 7.523438 1.667969 C 7.632812 1.667969 7.765625 1.679688 7.886719 1.6875 C 7.972656 1.699219 8.050781 1.722656 8.183594 1.753906 C 8.851562 1.921875 8.996094 2.609375 8.996094 2.609375 L 10.898438 2.941406 C 11.503906 3.050781 12.996094 3.152344 13.285156 4.671875 C 13.953125 8.285156 13.546875 11.789062 13.515625 11.789062 C 13.042969 15.203125 10.226562 15.035156 10.226562 15.035156 C 9.746094 15.046875 9.269531 14.902344 8.875 14.625 Z M 10.621094 7.753906 C 10.601562 7.808594 10.578125 7.875 10.589844 7.90625 C 10.601562 7.941406 10.625 7.953125 10.644531 7.964844 C 10.777344 8.03125 10.996094 8.0625 11.316406 8.097656 C 11.632812 8.128906 11.855469 8.152344 11.996094 8.128906 C 12.019531 8.128906 12.042969 8.117188 12.0625 8.085938 C 12.085938 8.050781 12.074219 7.984375 12.074219 7.929688 C 12.042969 7.628906 11.765625 7.410156 11.402344 7.363281 C 11.039062 7.332031 10.734375 7.476562 10.621094 7.753906 Z M 10.621094 7.753906 "/>
</g>
</svg>
