<?xml version="1.0" encoding="UTF-8"?>
<svg xmlns="http://www.w3.org/2000/svg" xmlns:xlink="http://www.w3.org/1999/xlink" width="16" height="16" viewBox="0 0 16 16" version="1.1">
<g id="surface1">
<path style=" stroke:none;fill-rule:nonzero;fill:rgb(100%,100%,100%);fill-opacity:1;" d="M 0.496094 0.00390625 C 0.226562 0.0078125 0.0078125 0.226562 0.00390625 0.496094 L 0.00390625 3.5 C 0 3.777344 0.21875 4 0.496094 4.003906 C 0.773438 4.007812 1 3.78125 1 3.5 L 1 1 L 3.5 1 C 3.78125 1 4.007812 0.773438 4.003906 0.496094 C 4 0.21875 3.777344 0 3.5 0.00390625 Z M 12.5 0.00390625 C 12.226562 0 12 0.21875 12 0.496094 C 11.996094 0.773438 12.222656 1 12.5 1 L 15 1 L 15 3.5 C 15 3.777344 15.21875 4 15.496094 4.003906 C 15.773438 4.007812 16 3.78125 16 3.5 L 16 0.496094 C 15.992188 0.21875 15.773438 0 15.496094 0.00390625 Z M 8 3.75 C 5.5625 3.75 3.148438 5.117188 1.570312 7.742188 L 1.414062 8 L 1.570312 8.257812 C 3.148438 10.882812 5.5625 12.242188 8 12.242188 C 10.4375 12.242188 12.851562 10.882812 14.429688 8.257812 L 14.585938 8 L 14.429688 7.742188 C 12.851562 5.117188 10.4375 3.75 8 3.75 Z M 8 4.742188 C 9.914062 4.742188 11.753906 5.96875 13.160156 8 C 11.753906 10.03125 9.914062 11.25 8 11.25 C 6.085938 11.25 4.246094 10.03125 2.839844 8 C 4.246094 5.96875 6.085938 4.742188 8 4.742188 Z M 9.636719 6.203125 L 6.21875 9.59375 C 6.828125 10.207031 7.710938 10.453125 8.546875 10.234375 C 9.382812 10.015625 10.03125 9.367188 10.257812 8.53125 C 10.484375 7.703125 10.246094 6.8125 9.636719 6.203125 Z M 0.496094 12 C 0.21875 12 0 12.226562 0.00390625 12.5 L 0.00390625 15.496094 C 0 15.773438 0.21875 15.992188 0.496094 16 L 3.5 16 C 3.78125 16 4.007812 15.773438 4.003906 15.496094 C 4 15.21875 3.777344 15 3.5 15 L 1 15 L 1 12.5 C 1 12.222656 0.773438 11.996094 0.496094 12 Z M 15.496094 12 C 15.21875 12 15 12.226562 15 12.5 L 15 15 L 12.5 15 C 12.226562 15 12 15.21875 12 15.496094 C 11.996094 15.773438 12.222656 16 12.5 16 L 15.496094 16 C 15.773438 16 16 15.773438 16 15.496094 L 16 12.5 C 16 12.222656 15.773438 11.996094 15.496094 12 Z M 15.496094 12 "/>
<path style=" stroke:none;fill-rule:evenodd;fill:rgb(100%,100%,100%);fill-opacity:1;" d="M 8 4.746094 C 6.210938 4.746094 4.75 6.210938 4.75 8 C 4.75 9.789062 6.210938 11.25 8 11.25 C 9.65625 11.25 10.914062 9.945312 11.109375 8.339844 C 11.195312 8.25 11.246094 8.125 11.25 8 C 11.246094 7.871094 11.191406 7.746094 11.101562 7.65625 C 10.898438 6.054688 9.652344 4.746094 8 4.746094 Z M 8 5.75 C 9.25 5.75 10.25 6.75 10.25 8 C 10.25 9.25 9.25 10.242188 8 10.242188 C 6.75 10.242188 5.75 9.25 5.75 8 C 5.75 6.75 6.75 5.75 8 5.75 Z M 8 5.75 "/>
</g>
</svg>
