<?xml version="1.0" encoding="UTF-8"?>
<svg xmlns="http://www.w3.org/2000/svg" xmlns:xlink="http://www.w3.org/1999/xlink" width="16" height="16" viewBox="0 0 16 16" version="1.1">
<g id="surface1">
<path style=" stroke:none;fill-rule:nonzero;fill:rgb(100%,100%,100%);fill-opacity:1;" d="M 8 3.75 C 7.679688 3.75 7.367188 3.773438 7.050781 3.820312 L 7.757812 4.765625 C 7.835938 4.757812 7.917969 4.742188 8 4.742188 C 9.914062 4.742188 11.753906 5.96875 13.160156 8 C 12.667969 8.710938 12.121094 9.3125 11.539062 9.804688 L 12.242188 10.746094 C 13.066406 10.109375 13.8125 9.285156 14.429688 8.257812 L 14.585938 8 L 14.429688 7.742188 C 12.851562 5.117188 10.4375 3.75 8 3.75 Z M 8 4.746094 C 7.917969 4.746094 7.84375 4.765625 7.761719 4.769531 L 8.554688 5.828125 C 8.914062 5.921875 9.242188 6.09375 9.507812 6.335938 L 9.179688 6.65625 L 10.945312 9.019531 C 11.019531 8.800781 11.078125 8.578125 11.109375 8.339844 C 11.195312 8.25 11.246094 8.128906 11.25 8 C 11.246094 7.871094 11.191406 7.746094 11.101562 7.65625 C 10.898438 6.054688 9.652344 4.746094 8 4.746094 Z M 3.757812 5.253906 C 2.929688 5.890625 2.1875 6.71875 1.570312 7.742188 L 1.414062 8 L 1.570312 8.257812 C 3.148438 10.882812 5.5625 12.242188 8 12.242188 C 8.316406 12.242188 8.632812 12.21875 8.945312 12.171875 L 8.234375 11.226562 C 8.1875 11.226562 8.136719 11.242188 8.089844 11.242188 C 8.140625 11.238281 8.183594 11.226562 8.230469 11.222656 L 6.671875 9.144531 L 6.320312 9.492188 C 5.96875 9.09375 5.75 8.578125 5.75 8 C 5.75 7.976562 5.757812 7.949219 5.757812 7.921875 L 4.96875 6.867188 C 4.835938 7.222656 4.75 7.601562 4.75 8 C 4.75 9.761719 6.164062 11.191406 7.914062 11.242188 C 6.03125 11.203125 4.226562 10 2.839844 8 C 3.328125 7.289062 3.875 6.6875 4.460938 6.195312 Z M 3.757812 5.253906 "/>
<path style=" stroke:none;fill-rule:nonzero;fill:rgb(100%,100%,100%);fill-opacity:1;" d="M 1.0625 0 L 13.066406 16 L 14.9375 16 L 2.9375 0 Z M 1.0625 0 "/>
</g>
</svg>
