<?xml version="1.0" encoding="UTF-8"?>
<svg xmlns="http://www.w3.org/2000/svg" xmlns:xlink="http://www.w3.org/1999/xlink" width="16" height="16" viewBox="0 0 16 16" version="1.1">
<g id="surface1">
<path style=" stroke:none;fill-rule:nonzero;fill:rgb(100%,100%,100%);fill-opacity:1;" d="M 0.789062 8 C 1.414062 4.585938 4.40625 2 8 2 C 11.59375 2 14.585938 4.585938 15.210938 8 C 14.585938 11.414062 11.59375 14 8 14 C 4.40625 14 1.414062 11.414062 0.789062 8 Z M 8 11.332031 C 9.839844 11.332031 11.332031 9.839844 11.332031 8 C 11.332031 6.160156 9.839844 4.667969 8 4.667969 C 6.160156 4.667969 4.667969 6.160156 4.667969 8 C 4.667969 9.839844 6.160156 11.332031 8 11.332031 Z M 8 10 C 6.894531 10 6 9.105469 6 8 C 6 6.894531 6.894531 6 8 6 C 9.105469 6 10 6.894531 10 8 C 10 9.105469 9.105469 10 8 10 Z M 8 10 "/>
</g>
</svg>
