<?xml version="1.0" encoding="UTF-8"?>
<svg xmlns="http://www.w3.org/2000/svg" xmlns:xlink="http://www.w3.org/1999/xlink" width="16" height="16" viewBox="0 0 16 16" version="1.1">
<g id="surface1">
<path style=" stroke:none;fill-rule:nonzero;fill:rgb(100%,100%,100%);fill-opacity:1;" d="M 10.269531 14 L 10.269531 9.355469 L 11.824219 9.355469 L 12.054688 7.550781 L 10.269531 7.550781 L 10.269531 6.398438 C 10.269531 5.875 10.414062 5.519531 11.164062 5.519531 L 12.117188 5.519531 L 12.117188 3.90625 C 11.65625 3.855469 11.191406 3.832031 10.726562 3.832031 C 9.347656 3.832031 8.402344 4.675781 8.402344 6.21875 L 8.402344 7.550781 L 6.84375 7.550781 L 6.84375 9.355469 L 8.402344 9.355469 L 8.402344 14 L 2.667969 14 C 2.296875 14 2 13.703125 2 13.332031 L 2 2.667969 C 2 2.296875 2.296875 2 2.667969 2 L 13.332031 2 C 13.703125 2 14 2.296875 14 2.667969 L 14 13.332031 C 14 13.703125 13.703125 14 13.332031 14 Z M 10.269531 14 "/>
</g>
</svg>
