<?xml version="1.0" encoding="UTF-8"?>
<svg xmlns="http://www.w3.org/2000/svg" xmlns:xlink="http://www.w3.org/1999/xlink" width="16" height="16" viewBox="0 0 16 16" version="1.1">
<g id="surface1">
<path style=" stroke:none;fill-rule:nonzero;fill:rgb(100%,100%,100%);fill-opacity:1;" d="M 8 8 L 12.667969 8 L 12.667969 9.332031 L 8 9.332031 L 8 14 L 6.667969 14 L 6.667969 5.332031 C 6.667969 3.859375 7.859375 2.667969 9.332031 2.667969 L 14 2.667969 L 14 4 L 9.332031 4 C 8.597656 4 8 4.597656 8 5.332031 Z M 3 6.667969 C 1.710938 6.667969 0.667969 5.621094 0.667969 4.332031 C 0.667969 3.042969 1.710938 2 3 2 C 4.289062 2 5.332031 3.042969 5.332031 4.332031 C 5.332031 5.621094 4.289062 6.667969 3 6.667969 Z M 3 5.332031 C 3.550781 5.332031 4 4.886719 4 4.332031 C 4 3.78125 3.550781 3.332031 3 3.332031 C 2.449219 3.332031 2 3.78125 2 4.332031 C 2 4.886719 2.449219 5.332031 3 5.332031 Z M 3 5.332031 "/>
</g>
</svg>
