<?xml version="1.0" encoding="UTF-8"?>
<svg xmlns="http://www.w3.org/2000/svg" xmlns:xlink="http://www.w3.org/1999/xlink" width="16" height="16" viewBox="0 0 16 16" version="1.1">
<g id="surface1">
<path style=" stroke:none;fill-rule:nonzero;fill:rgb(100%,100%,100%);fill-opacity:1;" d="M 9.996094 1.332031 L 14 5.332031 L 14 8.171875 C 13.609375 7.847656 13.15625 7.609375 12.667969 7.472656 L 12.667969 6 L 9.332031 6 L 9.332031 2.667969 L 3.332031 2.667969 L 3.332031 13.332031 L 6.707031 13.332031 C 6.78125 13.8125 6.96875 14.269531 7.25 14.667969 L 2.660156 14.667969 C 2.328125 14.667969 2.042969 14.414062 2.003906 14.082031 L 2 14.003906 L 2 1.996094 C 2 1.664062 2.257812 1.375 2.589844 1.339844 L 2.667969 1.332031 Z M 11.667969 8.667969 C 12.957031 8.667969 14 9.710938 14 11 L 14 11.070312 C 14.859375 11.3125 15.421875 12.140625 15.324219 13.03125 C 15.230469 13.917969 14.503906 14.609375 13.613281 14.664062 L 13.5 14.667969 L 9.832031 14.667969 L 9.722656 14.664062 C 8.828125 14.609375 8.105469 13.917969 8.007812 13.027344 C 7.914062 12.140625 8.472656 11.3125 9.335938 11.070312 L 9.332031 11 C 9.332031 9.710938 10.378906 8.667969 11.667969 8.667969 Z M 11.667969 10 C 11.1875 10 10.777344 10.339844 10.683594 10.808594 L 10.671875 10.902344 L 10.667969 11 L 10.667969 12.078125 L 9.703125 12.351562 C 9.476562 12.410156 9.320312 12.625 9.332031 12.859375 C 9.347656 13.097656 9.523438 13.292969 9.757812 13.328125 L 9.828125 13.332031 L 13.503906 13.332031 C 13.753906 13.332031 13.964844 13.144531 13.996094 12.898438 C 14.027344 12.648438 13.871094 12.414062 13.628906 12.351562 L 12.953125 12.160156 L 12.667969 12.078125 L 12.667969 11 L 12.660156 10.902344 C 12.613281 10.390625 12.183594 10 11.667969 10 Z M 11.667969 10 "/>
</g>
</svg>
