<?xml version="1.0" encoding="UTF-8"?>
<svg xmlns="http://www.w3.org/2000/svg" xmlns:xlink="http://www.w3.org/1999/xlink" width="16" height="16" viewBox="0 0 16 16" version="1.1">
<g id="surface1">
<path style=" stroke:none;fill-rule:nonzero;fill:rgb(100%,100%,100%);fill-opacity:1;" d="M 10.667969 1.332031 L 14 4.667969 L 14 14.003906 C 14 14.371094 13.703125 14.667969 13.339844 14.667969 L 2.660156 14.667969 C 2.296875 14.664062 2.003906 14.371094 2 14.003906 L 2 1.996094 C 2 1.628906 2.296875 1.332031 2.660156 1.332031 Z M 8 10.667969 C 9.472656 10.667969 10.667969 9.472656 10.667969 8 C 10.667969 6.527344 9.472656 5.332031 8 5.332031 L 5.332031 5.332031 L 5.332031 10.667969 Z M 6.667969 6.667969 L 8 6.667969 C 8.738281 6.667969 9.332031 7.261719 9.332031 8 C 9.332031 8.738281 8.738281 9.332031 8 9.332031 L 6.667969 9.332031 Z M 6.667969 6.667969 "/>
</g>
</svg>
