<?xml version="1.0" encoding="UTF-8"?>
<svg xmlns="http://www.w3.org/2000/svg" xmlns:xlink="http://www.w3.org/1999/xlink" width="16" height="16" viewBox="0 0 16 16" version="1.1">
<g id="surface1">
<path style=" stroke:none;fill-rule:nonzero;fill:rgb(100%,100%,100%);fill-opacity:1;" d="M 2.5 -0.00390625 C 2.226562 -0.00390625 2 0.222656 2 0.5 L 2 15.5 C 2 15.777344 2.226562 16.003906 2.5 16 L 13.5 16 C 13.773438 16.003906 14 15.777344 14 15.5 L 14 3.496094 C 14 3.367188 13.945312 3.242188 13.855469 3.148438 L 10.867188 0.148438 C 10.773438 0.0546875 10.644531 -0.00390625 10.511719 -0.00390625 Z M 2.996094 1 L 10 1 L 10.003906 3.5 C 10 3.773438 10.226562 3.996094 10.5 4 L 13 4 L 13 15 L 2.996094 15 Z M 7.609375 5.507812 C 7.382812 5.515625 7.15625 5.609375 7.015625 5.824219 L 7 5.839844 L 6.992188 5.859375 C 6.789062 6.378906 6.871094 6.925781 6.96875 7.398438 C 6.96875 7.398438 6.96875 7.40625 6.96875 7.414062 C 6.992188 7.664062 7.09375 7.875 7.160156 8.046875 C 7.226562 8.226562 7.257812 8.34375 7.203125 8.453125 L 7.1875 8.484375 C 6.953125 9.285156 6.558594 10.046875 6.195312 10.835938 C 5.640625 11.125 5.03125 11.382812 4.496094 11.820312 C 4.238281 11.960938 4.050781 12.203125 3.984375 12.492188 C 3.953125 12.632812 3.953125 12.796875 4.015625 12.945312 C 4.078125 13.097656 4.210938 13.226562 4.382812 13.304688 L 4.390625 13.304688 L 4.398438 13.308594 C 4.703125 13.414062 5.023438 13.367188 5.285156 13.25 L 5.300781 13.234375 C 6.164062 12.773438 6.609375 11.910156 7.078125 11.203125 C 7.71875 11 8.359375 10.824219 9.015625 10.6875 C 9.535156 11.125 10.148438 11.507812 10.867188 11.5625 C 11.160156 11.632812 11.480469 11.578125 11.730469 11.40625 C 11.859375 11.316406 11.96875 11.195312 12.023438 11.035156 C 12.078125 10.875 12.070312 10.691406 11.996094 10.511719 L 11.988281 10.492188 L 11.972656 10.476562 C 11.804688 10.207031 11.550781 10.058594 11.289062 9.980469 C 11.03125 9.90625 10.761719 9.890625 10.527344 9.890625 L 10.511719 9.890625 C 10.03125 9.875 9.601562 9.964844 9.191406 9.980469 C 8.914062 9.671875 8.648438 9.34375 8.414062 9 L 8.398438 8.976562 L 8.378906 8.953125 C 8.226562 8.820312 8.203125 8.710938 8.21875 8.539062 C 8.226562 8.371094 8.296875 8.15625 8.363281 7.921875 L 8.363281 7.898438 C 8.46875 7.363281 8.617188 6.738281 8.414062 6.117188 C 8.335938 5.820312 8.09375 5.613281 7.824219 5.539062 C 7.757812 5.515625 7.679688 5.507812 7.609375 5.507812 Z M 7.609375 6.1875 C 7.652344 6.40625 7.570312 6.65625 7.539062 6.894531 C 7.53125 6.867188 7.519531 6.84375 7.515625 6.8125 L 7.515625 6.777344 L 7.5 6.746094 C 7.472656 6.6875 7.476562 6.414062 7.550781 6.273438 C 7.585938 6.207031 7.625 6.183594 7.609375 6.1875 Z M 7.90625 9.375 C 8.09375 9.632812 8.28125 9.882812 8.476562 10.128906 C 8.382812 10.15625 8.328125 10.183594 8.203125 10.210938 C 7.976562 10.257812 7.734375 10.304688 7.507812 10.386719 C 7.5 10.390625 7.5 10.390625 7.492188 10.394531 C 7.539062 10.296875 7.578125 10.195312 7.617188 10.085938 L 7.632812 10.054688 C 7.75 9.859375 7.800781 9.652344 7.847656 9.484375 C 7.863281 9.429688 7.890625 9.421875 7.90625 9.375 Z M 10.671875 10.527344 C 10.761719 10.5 10.929688 10.5625 11.007812 10.664062 C 11.046875 10.71875 11.054688 10.765625 11.050781 10.785156 C 11.046875 10.804688 11.03125 10.824219 10.992188 10.851562 C 10.921875 10.875 10.835938 10.882812 10.742188 10.867188 C 10.507812 10.796875 10.335938 10.664062 10.121094 10.570312 C 10.28125 10.5625 10.4375 10.523438 10.601562 10.53125 L 10.636719 10.53125 Z M 5.109375 12.226562 C 4.984375 12.351562 4.894531 12.546875 4.746094 12.640625 L 4.726562 12.644531 L 4.710938 12.667969 C 4.695312 12.679688 4.632812 12.6875 4.59375 12.671875 C 4.585938 12.671875 4.585938 12.671875 4.585938 12.667969 C 4.671875 12.484375 4.90625 12.359375 5.109375 12.226562 Z M 5.109375 12.226562 "/>
</g>
</svg>
