<?xml version="1.0" encoding="UTF-8"?>
<svg xmlns="http://www.w3.org/2000/svg" xmlns:xlink="http://www.w3.org/1999/xlink" width="16" height="16" viewBox="0 0 16 16" version="1.1">
<g id="surface1">
<path style=" stroke:none;fill-rule:nonzero;fill:rgb(100%,100%,100%);fill-opacity:1;" d="M 5.730469 8.542969 C 5.644531 8.1875 5.644531 7.816406 5.730469 7.460938 L 5.070312 7.078125 L 5.734375 5.921875 L 6.398438 6.304688 C 6.660156 6.054688 6.984375 5.867188 7.332031 5.761719 L 7.332031 5 L 8.667969 5 L 8.667969 5.761719 C 9.019531 5.867188 9.339844 6.058594 9.601562 6.304688 L 10.265625 5.921875 L 10.929688 7.078125 L 10.269531 7.460938 C 10.355469 7.816406 10.355469 8.183594 10.269531 8.539062 L 10.929688 8.921875 L 10.265625 10.078125 L 9.601562 9.695312 C 9.339844 9.945312 9.015625 10.132812 8.667969 10.238281 L 8.667969 11 L 7.332031 11 L 7.332031 10.238281 C 6.984375 10.132812 6.660156 9.945312 6.398438 9.695312 L 5.734375 10.078125 L 5.070312 8.921875 Z M 8 9 C 8.550781 9 9 8.550781 9 8 C 9 7.449219 8.550781 7 8 7 C 7.449219 7 7 7.449219 7 8 C 7 8.550781 7.449219 9 8 9 Z M 10 2.667969 L 3.332031 2.667969 L 3.332031 13.332031 L 12.667969 13.332031 L 12.667969 5.332031 L 10 5.332031 Z M 2 1.996094 C 2 1.628906 2.296875 1.332031 2.664062 1.332031 L 10.667969 1.332031 L 14 4.667969 L 14 13.996094 C 14.003906 14.363281 13.707031 14.664062 13.339844 14.667969 L 2.660156 14.667969 C 2.296875 14.664062 2.003906 14.371094 2 14.003906 Z M 2 1.996094 "/>
</g>
</svg>
