<?xml version="1.0" encoding="UTF-8"?>
<svg xmlns="http://www.w3.org/2000/svg" xmlns:xlink="http://www.w3.org/1999/xlink" width="16" height="16" viewBox="0 0 16 16" version="1.1">
<g id="surface1">
<path style=" stroke:none;fill-rule:nonzero;fill:rgb(100%,100%,100%);fill-opacity:1;" d="M 7.332031 10 L 8.667969 10 L 8.667969 11.332031 L 7.332031 11.332031 Z M 8.667969 8.902344 L 8.667969 9.332031 L 7.332031 9.332031 L 7.332031 8.332031 C 7.332031 7.964844 7.632812 7.667969 8 7.667969 C 8.527344 7.667969 8.964844 7.257812 8.996094 6.730469 C 9.03125 6.207031 8.652344 5.746094 8.132812 5.675781 C 7.609375 5.605469 7.121094 5.953125 7.019531 6.46875 L 5.710938 6.207031 C 5.9375 5.085938 6.9375 4.292969 8.082031 4.335938 C 9.222656 4.375 10.171875 5.234375 10.316406 6.371094 C 10.460938 7.503906 9.761719 8.578125 8.667969 8.902344 Z M 10 2.667969 L 3.332031 2.667969 L 3.332031 13.332031 L 12.667969 13.332031 L 12.667969 5.332031 L 10 5.332031 Z M 2 1.996094 C 2 1.628906 2.296875 1.332031 2.664062 1.332031 L 10.667969 1.332031 L 14 4.667969 L 14 13.996094 C 14.003906 14.363281 13.707031 14.664062 13.339844 14.667969 L 2.660156 14.667969 C 2.296875 14.664062 2.003906 14.371094 2 14.003906 Z M 2 1.996094 "/>
</g>
</svg>
