<?xml version="1.0" encoding="UTF-8"?>
<svg xmlns="http://www.w3.org/2000/svg" xmlns:xlink="http://www.w3.org/1999/xlink" width="16" height="16" viewBox="0 0 16 16" version="1.1">
<g id="surface1">
<path style=" stroke:none;fill-rule:nonzero;fill:rgb(100%,100%,100%);fill-opacity:1;" d="M 12.023438 11.078125 L 14.875 13.933594 L 13.933594 14.875 L 11.078125 12.023438 C 10.015625 12.875 8.695312 13.335938 7.332031 13.332031 C 5.054688 13.335938 2.96875 12.042969 1.957031 10 L 6 10 L 5.128906 11.449219 C 5.808594 11.8125 6.566406 12 7.332031 12 C 8.546875 12 9.714844 11.53125 10.582031 10.683594 L 10.683594 10.582031 C 11.53125 9.714844 12 8.546875 12 7.332031 C 12 6.871094 11.933594 6.421875 11.808594 6 L 13.183594 6 C 13.28125 6.429688 13.332031 6.875 13.332031 7.332031 C 13.335938 8.695312 12.871094 10.015625 12.023438 11.078125 Z M 12.710938 4.667969 L 8.667969 4.667969 L 9.535156 3.21875 C 8.859375 2.855469 8.101562 2.664062 7.332031 2.667969 C 4.753906 2.667969 2.667969 4.753906 2.667969 7.332031 C 2.667969 7.796875 2.734375 8.242188 2.859375 8.667969 L 1.480469 8.667969 C 1.382812 8.230469 1.332031 7.78125 1.332031 7.332031 C 1.332031 4.019531 4.019531 1.332031 7.332031 1.332031 C 9.613281 1.332031 11.695312 2.625 12.710938 4.667969 Z M 12.710938 4.667969 "/>
</g>
</svg>
