<?xml version="1.0" encoding="UTF-8"?>
<svg xmlns="http://www.w3.org/2000/svg" xmlns:xlink="http://www.w3.org/1999/xlink" width="16" height="16" viewBox="0 0 16 16" version="1.1">
<g id="surface1">
<path style=" stroke:none;fill-rule:nonzero;fill:rgb(100%,100%,100%);fill-opacity:1;" d="M 4 14.332031 C 2.710938 14.332031 1.667969 13.289062 1.667969 12 C 1.667969 10.710938 2.710938 9.667969 4 9.667969 C 5.058594 9.667969 5.949219 10.371094 6.238281 11.332031 L 10 11.332031 L 10 10 L 11.332031 10 L 11.332031 6.160156 L 9.839844 4.667969 L 6 4.667969 L 6 6 L 2 6 L 2 2 L 6 2 L 6 3.332031 L 9.839844 3.332031 L 12 1.171875 L 14.828125 4 L 12.667969 6.160156 L 12.667969 10 L 14 10 L 14 14 L 10 14 L 10 12.667969 L 6.238281 12.667969 C 5.949219 13.628906 5.058594 14.332031 4 14.332031 Z M 4 11 C 3.449219 11 3 11.449219 3 12 C 3 12.550781 3.449219 13 4 13 C 4.550781 13 5 12.550781 5 12 C 5 11.449219 4.550781 11 4 11 Z M 12.667969 11.332031 L 11.332031 11.332031 L 11.332031 12.667969 L 12.667969 12.667969 Z M 12 3.058594 L 11.058594 4 L 12 4.941406 L 12.941406 4 Z M 4.667969 3.332031 L 3.332031 3.332031 L 3.332031 4.667969 L 4.667969 4.667969 Z M 4.667969 3.332031 "/>
</g>
</svg>
