<?xml version="1.0" encoding="UTF-8"?>
<svg xmlns="http://www.w3.org/2000/svg" xmlns:xlink="http://www.w3.org/1999/xlink" width="16" height="16" viewBox="0 0 16 16" version="1.1">
<g id="surface1">
<path style=" stroke:none;fill-rule:nonzero;fill:rgb(100%,100%,100%);fill-opacity:1;" d="M 8 0.5 C 5.238281 0.5 3 2.738281 3 5.5 C 3 7.074219 3.742188 8.554688 5 9.5 C 4.257812 9.5 3.621094 9.90625 3.273438 10.5 L 0 10.5 L 0 14.5 L 3.273438 14.5 C 3.621094 15.09375 4.257812 15.5 5 15.5 L 11 15.5 C 11.742188 15.5 12.378906 15.09375 12.726562 14.5 L 16 14.5 L 16 10.5 L 12.726562 10.5 C 12.378906 9.90625 11.742188 9.5 11 9.5 C 12.257812 8.554688 13 7.074219 13 5.5 C 13 2.738281 10.761719 0.5 8 0.5 Z M 7.945312 2.5 C 7.945312 2.5 7.949219 2.5 7.949219 2.5 C 7.96875 2.5 7.984375 2.5 8 2.5 C 8.445312 2.5 8.890625 2.601562 9.289062 2.789062 L 7.292969 4.796875 C 6.90625 5.1875 6.90625 5.816406 7.292969 6.207031 C 7.480469 6.398438 7.734375 6.5 8 6.5 C 8.265625 6.5 8.523438 6.398438 8.710938 6.207031 L 10.707031 4.210938 C 10.898438 4.613281 11 5.054688 11 5.5 C 11 7.15625 9.65625 8.5 8 8.5 C 6.34375 8.5 5 7.15625 5 5.5 C 5 3.863281 6.3125 2.53125 7.945312 2.5 Z M 7.945312 2.5 "/>
</g>
</svg>
