<?xml version="1.0" encoding="UTF-8"?>
<svg xmlns="http://www.w3.org/2000/svg" xmlns:xlink="http://www.w3.org/1999/xlink" width="16" height="16" viewBox="0 0 16 16" version="1.1">
<g id="surface1">
<path style=" stroke:none;fill-rule:nonzero;fill:rgb(100%,100%,100%);fill-opacity:1;" d="M 8 1.332031 C 11.679688 1.332031 14.667969 4.320312 14.667969 8 C 14.667969 11.679688 11.679688 14.667969 8 14.667969 C 4.320312 14.667969 1.332031 11.679688 1.332031 8 C 1.332031 4.320312 4.320312 1.332031 8 1.332031 Z M 8 13.332031 C 10.953125 13.332031 13.332031 10.953125 13.332031 8 C 13.332031 5.046875 10.953125 2.667969 8 2.667969 C 6.585938 2.664062 5.226562 3.226562 4.226562 4.226562 C 3.226562 5.226562 2.664062 6.585938 2.667969 8 C 2.667969 10.953125 5.046875 13.332031 8 13.332031 Z M 8 12 C 5.785156 12 4 10.214844 4 8 C 4 5.785156 5.785156 4 8 4 C 10.214844 4 12 5.785156 12 8 C 12 10.214844 10.214844 12 8 12 Z M 8 6.667969 C 7.265625 6.667969 6.667969 7.265625 6.667969 8 C 6.667969 8.734375 7.265625 9.332031 8 9.332031 C 8.734375 9.332031 9.332031 8.734375 9.332031 8 C 9.332031 7.265625 8.734375 6.667969 8 6.667969 Z M 8 6.667969 "/>
</g>
</svg>
