<?xml version="1.0" encoding="UTF-8"?>
<svg xmlns="http://www.w3.org/2000/svg" xmlns:xlink="http://www.w3.org/1999/xlink" width="16" height="16" viewBox="0 0 16 16" version="1.1">
<g id="surface1">
<path style=" stroke:none;fill-rule:nonzero;fill:rgb(100%,100%,100%);fill-opacity:1;" d="M 8.277344 3.332031 L 14 3.332031 C 14.367188 3.332031 14.667969 3.632812 14.667969 4 L 14.667969 13.332031 C 14.667969 13.703125 14.367188 14 14 14 L 2 14 C 1.632812 14 1.332031 13.703125 1.332031 13.332031 L 1.332031 2.667969 C 1.332031 2.296875 1.632812 2 2 2 L 6.941406 2 Z M 7.332031 10.667969 L 7.332031 12 L 8.667969 12 L 8.667969 10.667969 Z M 5.710938 7.207031 L 7.019531 7.46875 C 7.121094 6.953125 7.609375 6.605469 8.132812 6.675781 C 8.652344 6.746094 9.03125 7.207031 8.996094 7.730469 C 8.964844 8.257812 8.527344 8.667969 8 8.667969 L 7.332031 8.667969 L 7.332031 10 L 8 10 C 9.230469 10 10.246094 9.046875 10.328125 7.820312 C 10.410156 6.59375 9.523438 5.515625 8.304688 5.351562 C 7.085938 5.191406 5.953125 6.003906 5.710938 7.207031 Z M 5.710938 7.207031 "/>
</g>
</svg>
