<?xml version="1.0" encoding="UTF-8"?>
<svg xmlns="http://www.w3.org/2000/svg" xmlns:xlink="http://www.w3.org/1999/xlink" width="16" height="16" viewBox="0 0 16 16" version="1.1">
<g id="surface1">
<path style=" stroke:none;fill-rule:nonzero;fill:rgb(100%,100%,100%);fill-opacity:1;" d="M 4 4.667969 L 4 2.667969 C 4 2.296875 4.296875 2 4.667969 2 L 8.941406 2 L 10.277344 3.332031 L 14 3.332031 C 14.367188 3.332031 14.667969 3.632812 14.667969 4 L 14.667969 10.667969 C 14.667969 11.035156 14.367188 11.332031 14 11.332031 L 12 11.332031 L 12 13.332031 C 12 13.703125 11.703125 14 11.332031 14 L 2 14 C 1.632812 14 1.332031 13.703125 1.332031 13.332031 L 1.332031 5.332031 C 1.332031 4.964844 1.632812 4.667969 2 4.667969 Z M 4 6 L 2.667969 6 L 2.667969 12.667969 L 10.667969 12.667969 L 10.667969 11.332031 L 4 11.332031 Z M 4 6 "/>
</g>
</svg>
