<?xml version="1.0" encoding="UTF-8"?>
<svg xmlns="http://www.w3.org/2000/svg" xmlns:xlink="http://www.w3.org/1999/xlink" width="16" height="16" viewBox="0 0 16 16" version="1.1">
<g id="surface1">
<path style=" stroke:none;fill-rule:evenodd;fill:rgb(100%,100%,100%);fill-opacity:1;" d="M 3.953125 0 C 2.867188 0.0273438 2 0.914062 2 2 C 2 2.710938 2.382812 3.371094 2.996094 3.726562 L 2.996094 12.273438 C 2.382812 12.628906 2 13.289062 2 14 C 2 15.105469 2.894531 16 4 16 C 5.105469 16 6 15.105469 6 14 C 6 13.285156 5.617188 12.625 5 12.265625 L 5 11 C 5 10.84375 5.023438 10.796875 5.117188 10.679688 C 5.210938 10.570312 5.40625 10.414062 5.699219 10.265625 C 6.289062 9.972656 7.246094 9.71875 8.246094 9.46875 C 9.246094 9.21875 10.289062 8.976562 11.199219 8.519531 C 11.65625 8.292969 12.085938 8.007812 12.429688 7.585938 C 12.773438 7.171875 13 6.601562 13 6 L 13 4.730469 C 13.617188 4.375 14 3.714844 14 3 C 14 1.894531 13.105469 1 12 1 C 10.894531 1 10 1.894531 10 3 C 10 3.710938 10.382812 4.375 11 4.730469 L 11 6 C 11 6.15625 10.976562 6.203125 10.882812 6.320312 C 10.789062 6.429688 10.601562 6.585938 10.304688 6.734375 C 9.710938 7.027344 8.757812 7.28125 7.757812 7.53125 C 6.820312 7.765625 5.863281 8.023438 5 8.421875 L 5 3.734375 C 5.617188 3.375 6 2.714844 6 2 C 6 0.894531 5.105469 0 4 0 C 3.984375 0 3.96875 0 3.953125 0 Z M 3.953125 0 "/>
</g>
</svg>
