<?xml version="1.0" encoding="UTF-8"?>
<svg xmlns="http://www.w3.org/2000/svg" xmlns:xlink="http://www.w3.org/1999/xlink" width="16" height="16" viewBox="0 0 16 16" version="1.1">
<g id="surface1">
<path style=" stroke:none;fill-rule:nonzero;fill:rgb(100%,100%,100%);fill-opacity:1;" d="M 2 2 L 7.332031 2 L 7.332031 7.332031 L 2 7.332031 Z M 2 8.667969 L 7.332031 8.667969 L 7.332031 14 L 2 14 Z M 8.667969 2 L 14 2 L 14 7.332031 L 8.667969 7.332031 Z M 8.667969 8.667969 L 14 8.667969 L 14 14 L 8.667969 14 Z M 10 3.332031 L 10 6 L 12.667969 6 L 12.667969 3.332031 Z M 10 10 L 10 12.667969 L 12.667969 12.667969 L 12.667969 10 Z M 3.332031 3.332031 L 3.332031 6 L 6 6 L 6 3.332031 Z M 3.332031 10 L 3.332031 12.667969 L 6 12.667969 L 6 10 Z M 3.332031 10 "/>
</g>
</svg>
