<?xml version="1.0" encoding="UTF-8"?>
<svg xmlns="http://www.w3.org/2000/svg" xmlns:xlink="http://www.w3.org/1999/xlink" width="16" height="16" viewBox="0 0 16 16" version="1.1">
<g id="surface1">
<path style=" stroke:none;fill-rule:nonzero;fill:rgb(100%,100%,100%);fill-opacity:1;" d="M 8 1.332031 C 10 1.332031 11.898438 2.230469 13.160156 3.78125 L 8.941406 8 L 13.160156 12.21875 C 11.898438 13.769531 10 14.667969 8 14.667969 C 4.316406 14.667969 1.332031 11.683594 1.332031 8 C 1.332031 4.316406 4.316406 1.332031 8 1.332031 Z M 8 2.667969 C 5.691406 2.667969 3.644531 4.152344 2.929688 6.351562 C 2.214844 8.546875 2.996094 10.953125 4.863281 12.3125 C 6.730469 13.671875 9.261719 13.671875 11.132812 12.316406 L 11.269531 12.214844 L 7.058594 8 L 11.269531 3.785156 L 11.132812 3.683594 C 10.277344 3.0625 9.257812 2.707031 8.203125 2.671875 Z M 8 3.332031 C 8.550781 3.332031 9 3.78125 9 4.332031 C 9 4.886719 8.550781 5.332031 8 5.332031 C 7.449219 5.332031 7 4.886719 7 4.332031 C 7 3.78125 7.449219 3.332031 8 3.332031 Z M 8 3.332031 "/>
</g>
</svg>
