<?xml version="1.0" encoding="UTF-8"?>
<svg xmlns="http://www.w3.org/2000/svg" xmlns:xlink="http://www.w3.org/1999/xlink" width="16" height="16" viewBox="0 0 16 16" version="1.1">
<g id="surface1">
<path style=" stroke:none;fill-rule:nonzero;fill:rgb(100%,100%,100%);fill-opacity:1;" d="M 2 12.667969 L 2 2.667969 C 2 2.296875 2.296875 2 2.667969 2 L 8.667969 2 C 9.035156 2 9.332031 2.296875 9.332031 2.667969 L 9.332031 8 L 10.667969 8 C 11.402344 8 12 8.597656 12 9.332031 L 12 12 C 12 12.367188 12.296875 12.667969 12.667969 12.667969 C 13.035156 12.667969 13.332031 12.367188 13.332031 12 L 13.332031 7.332031 L 12 7.332031 C 11.632812 7.332031 11.332031 7.035156 11.332031 6.667969 L 11.332031 4.277344 L 10.230469 3.171875 L 11.171875 2.230469 L 14.472656 5.527344 C 14.597656 5.652344 14.667969 5.824219 14.667969 6 L 14.667969 12 C 14.667969 13.105469 13.769531 14 12.667969 14 C 11.5625 14 10.667969 13.105469 10.667969 12 L 10.667969 9.332031 L 9.332031 9.332031 L 9.332031 12.667969 L 10 12.667969 L 10 14 L 1.332031 14 L 1.332031 12.667969 Z M 3.332031 3.332031 L 3.332031 7.332031 L 8 7.332031 L 8 3.332031 Z M 3.332031 3.332031 "/>
</g>
</svg>
