<?xml version="1.0" encoding="UTF-8"?>
<svg xmlns="http://www.w3.org/2000/svg" xmlns:xlink="http://www.w3.org/1999/xlink" width="16" height="16" viewBox="0 0 16 16" version="1.1">
<g id="surface1">
<path style=" stroke:none;fill-rule:evenodd;fill:rgb(100%,100%,100%);fill-opacity:1;" d="M 8 0 C 3.59375 0 0 3.59375 0 8 C 0 9.84375 0.632812 11.542969 1.6875 12.898438 L 0.296875 14.289062 C 0.105469 14.476562 0 14.734375 0 15 C 0 15.265625 0.105469 15.523438 0.296875 15.710938 C 0.6875 16.097656 1.3125 16.097656 1.703125 15.710938 L 3.105469 14.308594 C 4.460938 15.363281 6.15625 15.996094 8 15.996094 C 12.132812 15.996094 15.292969 12.730469 15.703125 8.703125 C 15.890625 8.515625 15.992188 8.265625 15.996094 8 C 16 7.734375 15.890625 7.476562 15.703125 7.285156 C 15.546875 5.785156 15.007812 4.390625 14.183594 3.230469 L 15.710938 1.703125 C 16.097656 1.3125 16.097656 0.6875 15.710938 0.296875 C 15.515625 0.101562 15.246094 -0.0078125 14.96875 0 C 14.714844 0.0078125 14.46875 0.113281 14.289062 0.296875 L 12.824219 1.761719 C 11.523438 0.664062 9.859375 0 8 0 Z M 8 2 C 9.078125 2 10.085938 2.285156 10.960938 2.78125 C 10.589844 2.820312 10.210938 2.898438 9.8125 3.015625 C 9.3125 3.171875 8.78125 3.410156 8.25 3.683594 C 7.757812 3.351562 7.257812 3.0625 6.773438 2.855469 C 6.382812 2.6875 6 2.566406 5.625 2.492188 C 6.351562 2.179688 7.15625 2 8 2 Z M 4.871094 3.757812 C 5.210938 3.765625 5.671875 3.875 6.1875 4.101562 C 6.421875 4.203125 6.671875 4.332031 6.921875 4.476562 C 6.484375 4.773438 6.054688 5.09375 5.625 5.460938 C 5.203125 5.820312 4.828125 6.203125 4.46875 6.578125 C 4.347656 6.324219 4.242188 6.070312 4.164062 5.835938 C 3.988281 5.320312 3.929688 4.867188 3.953125 4.542969 C 3.984375 4.21875 4.078125 4.050781 4.207031 3.9375 C 4.335938 3.824219 4.53125 3.75 4.871094 3.757812 Z M 11.601562 4.117188 C 11.941406 4.144531 12.125 4.242188 12.242188 4.367188 C 12.359375 4.492188 12.429688 4.671875 12.421875 4.996094 C 12.410156 5.320312 12.296875 5.765625 12.0625 6.257812 C 11.960938 6.484375 11.820312 6.71875 11.671875 6.960938 C 11.363281 6.546875 11.03125 6.132812 10.652344 5.726562 C 10.273438 5.320312 9.875 4.957031 9.476562 4.613281 C 9.746094 4.496094 10.007812 4.390625 10.25 4.316406 C 10.789062 4.148438 11.261719 4.09375 11.601562 4.117188 Z M 8.15625 5.328125 C 8.640625 5.710938 9.125 6.140625 9.585938 6.640625 C 10.054688 7.140625 10.445312 7.648438 10.78125 8.148438 C 10.386719 8.613281 9.9375 9.082031 9.421875 9.527344 C 8.898438 9.972656 8.367188 10.34375 7.84375 10.671875 C 7.359375 10.292969 6.875 9.867188 6.414062 9.367188 C 5.945312 8.867188 5.554688 8.359375 5.214844 7.851562 C 5.609375 7.390625 6.058594 6.929688 6.578125 6.480469 C 7.097656 6.035156 7.632812 5.65625 8.15625 5.328125 Z M 2.59375 5.40625 C 2.640625 5.683594 2.710938 5.96875 2.804688 6.257812 C 2.96875 6.734375 3.21875 7.234375 3.515625 7.742188 C 3.164062 8.222656 2.859375 8.703125 2.640625 9.171875 C 2.511719 9.445312 2.414062 9.710938 2.335938 9.976562 C 2.125 9.359375 2 8.695312 2 8 C 2 7.070312 2.21875 6.191406 2.59375 5.40625 Z M 13.664062 6.023438 C 13.882812 6.640625 14.003906 7.304688 14.003906 8 C 14.003906 8.9375 13.785156 9.820312 13.40625 10.605469 C 13.359375 10.320312 13.292969 10.03125 13.195312 9.734375 C 13.03125 9.25 12.78125 8.734375 12.492188 8.222656 C 12.839844 7.75 13.148438 7.28125 13.363281 6.820312 C 13.492188 6.554688 13.585938 6.289062 13.664062 6.023438 Z M 8.027344 7 C 7.773438 6.992188 7.523438 7.085938 7.335938 7.253906 C 6.921875 7.621094 6.886719 8.253906 7.253906 8.664062 C 7.621094 9.078125 8.253906 9.117188 8.664062 8.746094 C 9.078125 8.378906 9.113281 7.746094 8.746094 7.335938 C 8.5625 7.128906 8.304688 7.007812 8.027344 7 Z M 4.351562 8.992188 C 4.613281 9.34375 4.890625 9.6875 5.195312 10.03125 C 5.234375 10.121094 5.285156 10.203125 5.355469 10.273438 C 5.410156 10.328125 5.476562 10.382812 5.546875 10.417969 C 5.875 10.757812 6.210938 11.070312 6.554688 11.367188 C 6.273438 11.492188 6.003906 11.597656 5.75 11.675781 C 5.210938 11.84375 4.738281 11.902344 4.398438 11.875 C 4.058594 11.851562 3.875 11.765625 3.757812 11.640625 C 3.640625 11.515625 3.570312 11.324219 3.578125 11 C 3.589844 10.671875 3.703125 10.226562 3.9375 9.734375 C 4.046875 9.496094 4.1875 9.25 4.351562 8.992188 Z M 11.515625 9.382812 C 11.648438 9.652344 11.757812 9.914062 11.835938 10.15625 C 12.011719 10.671875 12.070312 11.125 12.046875 11.449219 C 12.015625 11.773438 11.921875 11.957031 11.792969 12.070312 C 11.664062 12.183594 11.46875 12.242188 11.128906 12.234375 C 10.789062 12.226562 10.328125 12.117188 9.8125 11.894531 C 9.5625 11.789062 9.304688 11.65625 9.039062 11.5 C 9.398438 11.25 9.761719 10.976562 10.117188 10.683594 C 10.210938 10.652344 10.296875 10.601562 10.367188 10.539062 C 10.429688 10.488281 10.484375 10.421875 10.523438 10.351562 C 10.878906 10.035156 11.207031 9.710938 11.515625 9.382812 Z M 7.746094 12.289062 C 8.242188 12.632812 8.738281 12.929688 9.226562 13.140625 C 9.621094 13.3125 10.007812 13.433594 10.386719 13.511719 C 9.65625 13.828125 8.851562 14.003906 8 14.003906 C 6.921875 14.003906 5.90625 13.71875 5.03125 13.21875 C 5.40625 13.179688 5.789062 13.101562 6.1875 12.976562 C 6.691406 12.820312 7.21875 12.578125 7.746094 12.289062 Z M 7.746094 12.289062 "/>
</g>
</svg>
