<?xml version="1.0" encoding="UTF-8"?>
<svg xmlns="http://www.w3.org/2000/svg" xmlns:xlink="http://www.w3.org/1999/xlink" width="16" height="16" viewBox="0 0 16 16" version="1.1">
<g id="surface1">
<path style=" stroke:none;fill-rule:nonzero;fill:rgb(100%,100%,100%);fill-opacity:1;" d="M 8 1.332031 C 10.578125 1.332031 12.667969 3.421875 12.667969 6 L 13.382812 6 C 13.730469 6 14.019531 6.269531 14.046875 6.617188 L 14.613281 13.949219 C 14.640625 14.316406 14.363281 14.636719 13.996094 14.664062 L 13.945312 14.667969 L 2.054688 14.667969 C 1.683594 14.667969 1.386719 14.367188 1.386719 14 L 1.386719 13.949219 L 1.953125 6.617188 C 1.980469 6.269531 2.269531 6 2.617188 6 L 3.332031 6 C 3.332031 3.421875 5.421875 1.332031 8 1.332031 Z M 12.765625 7.332031 L 3.234375 7.332031 L 2.773438 13.332031 L 13.226562 13.332031 Z M 9.332031 8.667969 L 9.332031 10 L 6.667969 10 L 6.667969 8.667969 Z M 8 2.667969 C 6.214844 2.667969 4.746094 4.074219 4.671875 5.855469 L 4.667969 6 L 11.332031 6 C 11.332031 4.214844 9.925781 2.746094 8.144531 2.671875 Z M 8 2.667969 "/>
</g>
</svg>
