<?xml version="1.0" encoding="UTF-8"?>
<svg xmlns="http://www.w3.org/2000/svg" xmlns:xlink="http://www.w3.org/1999/xlink" width="16" height="16" viewBox="0 0 16 16" version="1.1">
<g id="surface1">
<path style=" stroke:none;fill-rule:nonzero;fill:rgb(100%,100%,100%);fill-opacity:1;" d="M 11.574219 7.363281 C 12.511719 6.433594 14.027344 6.433594 14.964844 7.363281 C 15.902344 8.292969 15.902344 9.800781 14.964844 10.726562 L 11.332031 14.332031 L 7.703125 10.726562 C 6.765625 9.800781 6.765625 8.292969 7.703125 7.363281 C 8.636719 6.433594 10.15625 6.433594 11.089844 7.363281 L 11.332031 7.601562 Z M 12.828125 3.171875 C 13.457031 3.800781 13.832031 4.582031 13.953125 5.398438 C 13.066406 5.230469 12.128906 5.390625 11.332031 5.871094 C 9.898438 5.003906 8.003906 5.183594 6.761719 6.417969 C 5.34375 7.828125 5.300781 10.09375 6.644531 11.550781 L 6.761719 11.675781 L 8.375 13.277344 L 7.332031 14.324219 L 1.679688 8.660156 C 0.277344 7.089844 0.332031 4.679688 1.839844 3.171875 C 3.347656 1.660156 5.761719 1.613281 7.335938 3.019531 C 8.898438 1.613281 11.320312 1.660156 12.828125 3.171875 Z M 12.828125 3.171875 "/>
</g>
</svg>
