<?xml version="1.0" encoding="UTF-8"?>
<svg xmlns="http://www.w3.org/2000/svg" xmlns:xlink="http://www.w3.org/1999/xlink" width="16" height="16" viewBox="0 0 16 16" version="1.1">
<g id="surface1">
<path style=" stroke:none;fill-rule:nonzero;fill:rgb(100%,100%,100%);fill-opacity:1;" d="M 11 2 C 13.023438 2 14.667969 3.667969 14.667969 6 C 14.667969 10.667969 9.667969 13.332031 8 14.332031 C 6.679688 13.542969 3.277344 11.707031 1.910156 8.667969 L 5.042969 8.667969 L 5.667969 7.628906 L 7.667969 10.960938 L 9.042969 8.667969 L 11.332031 8.667969 L 11.332031 7.332031 L 8.289062 7.332031 L 7.667969 8.371094 L 5.667969 5.039062 L 4.289062 7.332031 L 1.472656 7.332031 C 1.382812 6.910156 1.332031 6.464844 1.332031 6 C 1.332031 3.667969 3 2 5 2 C 6.238281 2 7.332031 2.667969 8 3.332031 C 8.667969 2.667969 9.761719 2 11 2 Z M 11 2 "/>
</g>
</svg>
