<?xml version="1.0" encoding="UTF-8"?>
<svg xmlns="http://www.w3.org/2000/svg" xmlns:xlink="http://www.w3.org/1999/xlink" width="16" height="16" viewBox="0 0 16 16" version="1.1">
<g id="surface1">
<path style=" stroke:none;fill-rule:nonzero;fill:rgb(100%,100%,100%);fill-opacity:1;" d="M 4 12.667969 L 12 12.667969 L 12 6.105469 L 8 2.46875 L 4 6.105469 Z M 12.667969 14 L 3.332031 14 C 2.964844 14 2.667969 13.703125 2.667969 13.332031 L 2.667969 7.332031 L 0.667969 7.332031 L 7.550781 1.074219 C 7.804688 0.84375 8.195312 0.84375 8.449219 1.074219 L 15.332031 7.332031 L 13.332031 7.332031 L 13.332031 13.332031 C 13.332031 13.703125 13.035156 14 12.667969 14 Z M 5 8.667969 L 6.332031 8.667969 C 6.332031 9.585938 7.078125 10.332031 8 10.332031 C 8.921875 10.332031 9.667969 9.585938 9.667969 8.667969 L 11 8.667969 C 11 10.324219 9.65625 11.667969 8 11.667969 C 6.34375 11.667969 5 10.324219 5 8.667969 Z M 5 8.667969 "/>
</g>
</svg>
