<?xml version="1.0" encoding="UTF-8"?>
<svg xmlns="http://www.w3.org/2000/svg" xmlns:xlink="http://www.w3.org/1999/xlink" width="16" height="16" viewBox="0 0 16 16" version="1.1">
<g id="surface1">
<path style=" stroke:none;fill-rule:nonzero;fill:rgb(100%,100%,100%);fill-opacity:1;" d="M 14 13.332031 L 15.332031 13.332031 L 15.332031 14.667969 L 0.667969 14.667969 L 0.667969 13.332031 L 2 13.332031 L 2 2 C 2 1.632812 2.296875 1.332031 2.667969 1.332031 L 13.332031 1.332031 C 13.703125 1.332031 14 1.632812 14 2 Z M 7.332031 5.332031 L 6 5.332031 L 6 6.667969 L 7.332031 6.667969 L 7.332031 8 L 8.667969 8 L 8.667969 6.667969 L 10 6.667969 L 10 5.332031 L 8.667969 5.332031 L 8.667969 4 L 7.332031 4 Z M 9.332031 13.332031 L 10.667969 13.332031 L 10.667969 9.332031 L 5.332031 9.332031 L 5.332031 13.332031 L 6.667969 13.332031 L 6.667969 10.667969 L 9.332031 10.667969 Z M 9.332031 13.332031 "/>
</g>
</svg>
