<?xml version="1.0" encoding="UTF-8"?>
<svg xmlns="http://www.w3.org/2000/svg" xmlns:xlink="http://www.w3.org/1999/xlink" width="16" height="16" viewBox="0 0 16 16" version="1.1">
<g id="surface1">
<path style=" stroke:none;fill-rule:nonzero;fill:rgb(100%,100%,100%);fill-opacity:1;" d="M 2.667969 2 L 13.332031 2 C 13.703125 2 14 2.296875 14 2.667969 L 14 13.332031 C 14 13.703125 13.703125 14 13.332031 14 L 2.667969 14 C 2.296875 14 2 13.703125 2 13.332031 L 2 2.667969 C 2 2.296875 2.296875 2 2.667969 2 Z M 3.332031 3.332031 L 3.332031 12.667969 L 12.667969 12.667969 L 12.667969 3.332031 Z M 4.660156 9.375 L 5.171875 7.195312 L 4.375 7.195312 L 4.617188 6.269531 L 6.53125 6.269531 L 5.773438 9.382812 C 5.730469 9.539062 5.707031 9.699219 5.703125 9.863281 C 5.703125 10.0625 5.796875 10.121094 5.945312 10.152344 C 6.035156 10.175781 6.75 10.160156 7.140625 9.261719 L 7.636719 7.195312 L 6.828125 7.195312 L 7.070312 6.269531 L 8.792969 6.269531 L 8.570312 7.320312 C 8.871094 6.734375 9.476562 6.179688 10.070312 6.179688 C 10.703125 6.179688 11.226562 6.648438 11.226562 7.546875 C 11.226562 7.777344 11.195312 8.027344 11.117188 8.3125 L 10.792969 9.515625 C 10.765625 9.621094 10.75 9.730469 10.742188 9.839844 C 10.742188 10.046875 10.824219 10.152344 10.976562 10.152344 C 11.125 10.152344 11.316406 10.039062 11.539062 9.398438 L 11.980469 9.578125 C 11.71875 10.53125 11.246094 10.925781 10.652344 10.925781 C 9.960938 10.925781 9.628906 10.5 9.628906 9.910156 C 9.628906 9.746094 9.648438 9.566406 9.699219 9.386719 L 10.03125 8.152344 C 10.070312 8.015625 10.078125 7.890625 10.078125 7.777344 C 10.078125 7.378906 9.847656 7.136719 9.476562 7.136719 C 9.003906 7.136719 8.691406 7.492188 8.53125 8.171875 L 7.886719 10.859375 L 6.761719 10.859375 L 6.960938 10.015625 C 6.628906 10.582031 6.171875 10.929688 5.601562 10.929688 C 4.917969 10.929688 4.597656 10.519531 4.597656 9.902344 C 4.597656 9.746094 4.617188 9.554688 4.65625 9.375 Z M 5.75 5.75 C 5.335938 5.75 5 5.414062 5 5 C 5 4.585938 5.335938 4.25 5.75 4.25 C 6.164062 4.25 6.5 4.585938 6.5 5 C 6.5 5.414062 6.164062 5.75 5.75 5.75 Z M 5.75 5.75 "/>
</g>
</svg>
