<?xml version="1.0" encoding="UTF-8"?>
<svg xmlns="http://www.w3.org/2000/svg" xmlns:xlink="http://www.w3.org/1999/xlink" width="16" height="16" viewBox="0 0 16 16" version="1.1">
<g id="surface1">
<path style=" stroke:none;fill-rule:nonzero;fill:rgb(100%,100%,100%);fill-opacity:1;" d="M 1.140625 12 L 14.859375 12 C 15.488281 12 16 12.511719 16 13.140625 L 16 14.859375 C 16 15.488281 15.488281 16 14.859375 16 L 1.140625 16 C 0.511719 16 0 15.488281 0 14.859375 L 0 13.140625 C 0 12.511719 0.511719 12 1.140625 12 Z M 1.140625 12 "/>
<path style=" stroke:none;fill-rule:nonzero;fill:rgb(100%,100%,100%);fill-opacity:1;" d="M 1.140625 6 L 14.859375 6 C 15.488281 6 16 6.511719 16 7.140625 L 16 8.859375 C 16 9.488281 15.488281 10 14.859375 10 L 1.140625 10 C 0.511719 10 0 9.488281 0 8.859375 L 0 7.140625 C 0 6.511719 0.511719 6 1.140625 6 Z M 1.140625 6 "/>
<path style=" stroke:none;fill-rule:nonzero;fill:rgb(100%,100%,100%);fill-opacity:1;" d="M 1.140625 0 L 14.859375 0 C 15.488281 0 16 0.511719 16 1.140625 L 16 2.859375 C 16 3.488281 15.488281 4 14.859375 4 L 1.140625 4 C 0.511719 4 0 3.488281 0 2.859375 L 0 1.140625 C 0 0.511719 0.511719 0 1.140625 0 Z M 1.140625 0 "/>
</g>
</svg>
