<?xml version="1.0" encoding="UTF-8"?>
<svg xmlns="http://www.w3.org/2000/svg" xmlns:xlink="http://www.w3.org/1999/xlink" width="16" height="16" viewBox="0 0 16 16" version="1.1">
<g id="surface1">
<path style=" stroke:none;fill-rule:nonzero;fill:rgb(100%,100%,100%);fill-opacity:1;" d="M 8 1.332031 C 11.683594 1.332031 14.667969 4.316406 14.667969 8 C 14.667969 11.683594 11.683594 14.667969 8 14.667969 C 4.316406 14.667969 1.332031 11.683594 1.332031 8 C 1.332031 4.316406 4.316406 1.332031 8 1.332031 Z M 4.796875 9.789062 L 3.347656 11.238281 C 3.683594 11.71875 4.09375 12.144531 4.558594 12.503906 L 4.761719 12.652344 L 6.210938 11.203125 C 5.675781 10.902344 5.21875 10.46875 4.890625 9.945312 Z M 11.203125 9.789062 C 10.902344 10.324219 10.46875 10.78125 9.945312 11.109375 L 9.789062 11.203125 L 11.238281 12.652344 C 11.71875 12.316406 12.144531 11.90625 12.503906 11.441406 L 12.652344 11.238281 Z M 8 5.332031 C 6.527344 5.332031 5.332031 6.527344 5.332031 8 C 5.332031 9.472656 6.527344 10.667969 8 10.667969 C 9.472656 10.667969 10.667969 9.472656 10.667969 8 C 10.667969 6.527344 9.472656 5.332031 8 5.332031 Z M 4.761719 3.347656 C 4.28125 3.683594 3.855469 4.09375 3.496094 4.558594 L 3.347656 4.761719 L 4.796875 6.210938 C 5.097656 5.675781 5.53125 5.21875 6.054688 4.890625 L 6.210938 4.796875 Z M 11.238281 3.347656 L 9.789062 4.796875 C 10.324219 5.097656 10.78125 5.53125 11.109375 6.054688 L 11.203125 6.210938 L 12.652344 4.761719 C 12.316406 4.28125 11.90625 3.855469 11.441406 3.496094 Z M 11.238281 3.347656 "/>
</g>
</svg>
