<?xml version="1.0" encoding="UTF-8"?>
<svg xmlns="http://www.w3.org/2000/svg" xmlns:xlink="http://www.w3.org/1999/xlink" width="16" height="16" viewBox="0 0 16 16" version="1.1">
<g id="surface1">
<path style=" stroke:none;fill-rule:nonzero;fill:rgb(100%,100%,100%);fill-opacity:1;" d="M 7.332031 12 L 5.292969 12 C 5.097656 11.152344 4.203125 10.457031 3.835938 10 C 2.089844 7.820312 2.324219 4.660156 4.371094 2.757812 C 6.417969 0.859375 9.585938 0.859375 11.628906 2.761719 C 13.675781 4.664062 13.910156 7.820312 12.164062 10 C 11.796875 10.457031 10.902344 11.152344 10.707031 12 L 8.667969 12 L 8.667969 8.667969 L 7.332031 8.667969 Z M 10.667969 13.332031 L 10.667969 14 C 10.667969 14.738281 10.070312 15.332031 9.332031 15.332031 L 6.667969 15.332031 C 5.929688 15.332031 5.332031 14.738281 5.332031 14 L 5.332031 13.332031 Z M 10.667969 13.332031 "/>
</g>
</svg>
