<?xml version="1.0" encoding="UTF-8"?>
<svg xmlns="http://www.w3.org/2000/svg" xmlns:xlink="http://www.w3.org/1999/xlink" width="16" height="16" viewBox="0 0 16 16" version="1.1">
<g id="surface1">
<path style=" stroke:none;fill-rule:evenodd;fill:rgb(100%,100%,100%);fill-opacity:1;" d="M 2.5 0 C 2.222656 -0.00390625 1.996094 0.226562 2 0.5 L 2 15.5 C 1.996094 15.773438 2.222656 16 2.5 16 L 12.5 15.996094 C 12.78125 16 13.007812 15.773438 13.003906 15.492188 L 13.003906 0.5 C 13.007812 0.21875 12.78125 -0.0078125 12.5 -0.00390625 Z M 3 1.003906 L 12 1 L 12 15 L 3 15.003906 Z M 3 1.003906 "/>
<path style=" stroke:none;fill-rule:nonzero;fill:rgb(100%,100%,100%);fill-opacity:1;" d="M 4.992188 3 L 4.992188 12.992188 L 9.703125 12.992188 L 11.796875 10.390625 L 9.996094 7.460938 L 10 3 Z M 6 3.996094 L 8.996094 3.996094 L 8.992188 6.992188 L 5.992188 6.992188 Z M 6 7.992188 L 9 8 L 10.335938 10 L 7.328125 9.992188 Z M 6 7.992188 "/>
</g>
</svg>
