<?xml version="1.0" encoding="UTF-8"?>
<svg xmlns="http://www.w3.org/2000/svg" xmlns:xlink="http://www.w3.org/1999/xlink" width="16" height="16" viewBox="0 0 16 16" version="1.1">
<g id="surface1">
<path style=" stroke:none;fill-rule:nonzero;fill:rgb(100%,100%,100%);fill-opacity:1;" d="M 8 1.332031 C 8.367188 1.332031 8.667969 1.632812 8.667969 2 L 8.667969 4 C 8.667969 4.367188 8.367188 4.667969 8 4.667969 C 7.632812 4.667969 7.332031 4.367188 7.332031 4 L 7.332031 2 C 7.332031 1.632812 7.632812 1.332031 8 1.332031 Z M 8 11.332031 C 8.367188 11.332031 8.667969 11.632812 8.667969 12 L 8.667969 14 C 8.667969 14.367188 8.367188 14.667969 8 14.667969 C 7.632812 14.667969 7.332031 14.367188 7.332031 14 L 7.332031 12 C 7.332031 11.632812 7.632812 11.332031 8 11.332031 Z M 14.667969 8 C 14.667969 8.367188 14.367188 8.667969 14 8.667969 L 12 8.667969 C 11.632812 8.667969 11.332031 8.367188 11.332031 8 C 11.332031 7.632812 11.632812 7.332031 12 7.332031 L 14 7.332031 C 14.367188 7.332031 14.667969 7.632812 14.667969 8 Z M 4.667969 8 C 4.667969 8.367188 4.367188 8.667969 4 8.667969 L 2 8.667969 C 1.632812 8.667969 1.332031 8.367188 1.332031 8 C 1.332031 7.632812 1.632812 7.332031 2 7.332031 L 4 7.332031 C 4.367188 7.332031 4.667969 7.632812 4.667969 8 Z M 12.714844 12.714844 C 12.453125 12.972656 12.03125 12.972656 11.769531 12.714844 L 10.355469 11.300781 C 10.105469 11.039062 10.109375 10.621094 10.367188 10.367188 C 10.621094 10.109375 11.039062 10.105469 11.300781 10.355469 L 12.714844 11.769531 C 12.839844 11.894531 12.910156 12.066406 12.910156 12.242188 C 12.910156 12.417969 12.839844 12.589844 12.714844 12.714844 Z M 5.644531 5.644531 C 5.382812 5.902344 4.960938 5.902344 4.699219 5.644531 L 3.285156 4.230469 C 3.027344 3.96875 3.027344 3.546875 3.285156 3.285156 C 3.546875 3.027344 3.96875 3.027344 4.230469 3.285156 L 5.644531 4.699219 C 5.902344 4.960938 5.902344 5.382812 5.644531 5.644531 Z M 3.285156 12.714844 C 3.027344 12.453125 3.027344 12.03125 3.285156 11.769531 L 4.699219 10.355469 C 4.867188 10.183594 5.117188 10.113281 5.347656 10.175781 C 5.582031 10.238281 5.765625 10.417969 5.824219 10.652344 C 5.886719 10.882812 5.816406 11.132812 5.644531 11.300781 L 4.230469 12.714844 C 4.105469 12.839844 3.933594 12.910156 3.757812 12.910156 C 3.582031 12.910156 3.410156 12.839844 3.285156 12.714844 Z M 10.355469 5.644531 C 10.097656 5.382812 10.097656 4.960938 10.355469 4.699219 L 11.769531 3.285156 C 12.03125 3.027344 12.453125 3.023438 12.714844 3.285156 C 12.972656 3.546875 12.972656 3.96875 12.714844 4.230469 L 11.300781 5.644531 C 11.039062 5.902344 10.617188 5.902344 10.355469 5.644531 Z M 10.355469 5.644531 "/>
</g>
</svg>
