<?xml version="1.0" encoding="UTF-8"?>
<svg xmlns="http://www.w3.org/2000/svg" xmlns:xlink="http://www.w3.org/1999/xlink" width="16" height="16" viewBox="0 0 16 16" version="1.1">
<g id="surface1">
<path style=" stroke:none;fill-rule:nonzero;fill:rgb(100%,100%,100%);fill-opacity:1;" d="M 4.667969 6.667969 L 13.332031 6.667969 C 13.703125 6.667969 14 6.964844 14 7.332031 L 14 14 C 14 14.367188 13.703125 14.667969 13.332031 14.667969 L 2.667969 14.667969 C 2.296875 14.667969 2 14.367188 2 14 L 2 7.332031 C 2 6.964844 2.296875 6.667969 2.667969 6.667969 L 3.332031 6.667969 L 3.332031 6 C 3.332031 3.835938 4.820312 1.953125 6.925781 1.457031 C 9.035156 0.960938 11.207031 1.976562 12.175781 3.914062 L 10.980469 4.507812 C 10.289062 3.125 8.738281 2.398438 7.234375 2.753906 C 5.730469 3.109375 4.664062 4.453125 4.667969 6 Z M 3.332031 8 L 3.332031 13.332031 L 12.667969 13.332031 L 12.667969 8 Z M 6.667969 10 L 9.332031 10 L 9.332031 11.332031 L 6.667969 11.332031 Z M 6.667969 10 "/>
</g>
</svg>
