<?xml version="1.0" encoding="UTF-8"?>
<svg xmlns="http://www.w3.org/2000/svg" xmlns:xlink="http://www.w3.org/1999/xlink" width="16" height="16" viewBox="0 0 16 16" version="1.1">
<g id="surface1">
<path style=" stroke:none;fill-rule:nonzero;fill:rgb(100%,100%,100%);fill-opacity:1;" d="M 3.332031 7.332031 L 8.667969 7.332031 L 8.667969 8.667969 L 3.332031 8.667969 L 3.332031 10.667969 L 0 8 L 3.332031 5.332031 Z M 2.667969 12 L 4.472656 12 C 6.617188 13.890625 9.871094 13.753906 11.847656 11.691406 C 13.828125 9.628906 13.828125 6.371094 11.847656 4.308594 C 9.871094 2.246094 6.617188 2.109375 4.472656 4 L 2.667969 4 C 3.925781 2.320312 5.902344 1.332031 8 1.332031 C 11.683594 1.332031 14.667969 4.316406 14.667969 8 C 14.667969 11.683594 11.683594 14.667969 8 14.667969 C 5.902344 14.667969 3.925781 13.679688 2.667969 12 Z M 2.667969 12 "/>
</g>
</svg>
