<?xml version="1.0" encoding="UTF-8"?>
<svg xmlns="http://www.w3.org/2000/svg" xmlns:xlink="http://www.w3.org/1999/xlink" width="16" height="16" viewBox="0 0 16 16" version="1.1">
<g id="surface1">
<path style=" stroke:none;fill-rule:evenodd;fill:rgb(100%,100%,100%);fill-opacity:1;" d="M 7.96875 0.0078125 C 7.695312 0.015625 7.476562 0.234375 7.476562 0.507812 C 7.476562 0.539062 7.484375 0.574219 7.492188 0.605469 C 7.535156 0.839844 7.742188 1.007812 7.980469 1.007812 C 9.835938 1.007812 11.617188 1.75 12.929688 3.0625 C 14.242188 4.375 14.976562 6.15625 14.976562 8.015625 C 14.976562 8.289062 15.203125 8.515625 15.476562 8.515625 C 15.753906 8.515625 15.976562 8.289062 15.976562 8.015625 C 15.976562 5.890625 15.136719 3.851562 13.636719 2.351562 C 12.132812 0.851562 10.101562 0.0078125 7.976562 0.0078125 C 7.976562 0.0078125 7.96875 0.0078125 7.96875 0.0078125 Z M 7.96875 2.007812 C 7.695312 2.015625 7.480469 2.238281 7.480469 2.507812 C 7.480469 2.539062 7.484375 2.570312 7.492188 2.601562 C 7.535156 2.835938 7.742188 3.007812 7.984375 3.007812 C 9.3125 3.007812 10.578125 3.539062 11.515625 4.476562 C 12.453125 5.414062 12.984375 6.6875 12.984375 8.015625 C 12.984375 8.285156 13.203125 8.503906 13.476562 8.507812 C 13.75 8.507812 13.972656 8.289062 13.976562 8.015625 C 13.976562 6.421875 13.347656 4.894531 12.222656 3.769531 C 11.097656 2.644531 9.570312 2.007812 7.984375 2.007812 C 7.976562 2.007812 7.976562 2.007812 7.96875 2.007812 Z M 7.960938 4.015625 C 7.6875 4.023438 7.472656 4.242188 7.472656 4.515625 C 7.472656 4.542969 7.476562 4.574219 7.484375 4.601562 C 7.527344 4.84375 7.734375 5.015625 7.976562 5.015625 C 8.773438 5.015625 9.535156 5.328125 10.097656 5.890625 C 10.660156 6.453125 10.976562 7.210938 10.976562 8.007812 C 10.976562 8.285156 11.203125 8.507812 11.480469 8.507812 C 11.75 8.503906 11.96875 8.28125 11.972656 8.007812 C 11.972656 6.949219 11.554688 5.929688 10.804688 5.179688 C 10.054688 4.429688 9.035156 4.015625 7.976562 4.015625 C 7.96875 4.015625 7.96875 4.015625 7.960938 4.015625 Z M 7.960938 4.015625 "/>
<path style=" stroke:none;fill-rule:nonzero;fill:rgb(100%,100%,100%);fill-opacity:1;" d="M 4.644531 15.9375 C 3.105469 15.71875 1.746094 14.832031 0.871094 13.484375 C 0.257812 12.535156 0.0195312 11.710938 0.0234375 10.523438 C 0.0234375 9.59375 0.148438 9.015625 0.507812 8.257812 C 0.875 7.484375 1.171875 7.128906 2.871094 5.4375 L 4.523438 3.789062 L 5.585938 4.851562 L 6.648438 5.917969 L 5.046875 7.53125 C 3.125 9.472656 3.078125 9.539062 3.078125 10.527344 C 3.078125 11.109375 3.09375 11.1875 3.28125 11.570312 C 3.53125 12.078125 3.917969 12.445312 4.476562 12.707031 C 4.847656 12.882812 4.957031 12.90625 5.429688 12.898438 C 5.828125 12.898438 6.054688 12.859375 6.335938 12.75 C 6.679688 12.621094 6.859375 12.460938 8.375 10.957031 L 10.039062 9.304688 L 11.117188 10.390625 L 12.195312 11.46875 L 10.425781 13.222656 C 8.917969 14.714844 8.582031 15.015625 8.164062 15.25 C 7.0625 15.871094 5.835938 16.109375 4.648438 15.9375 Z M 4.644531 15.9375 "/>
</g>
</svg>
