<?xml version="1.0" encoding="UTF-8"?>
<svg xmlns="http://www.w3.org/2000/svg" xmlns:xlink="http://www.w3.org/1999/xlink" width="16" height="16" viewBox="0 0 16 16" version="1.1">
<g id="surface1">
<path style=" stroke:none;fill-rule:nonzero;fill:rgb(100%,100%,100%);fill-opacity:1;" d="M 10.734375 2 C 10.644531 2.441406 10.644531 2.894531 10.734375 3.332031 L 3.007812 3.332031 L 8.039062 7.773438 L 11.40625 4.761719 C 11.691406 5.113281 12.046875 5.40625 12.449219 5.617188 L 8.046875 9.558594 L 2.667969 4.8125 L 2.667969 12.667969 L 13.332031 12.667969 L 13.332031 5.933594 C 13.773438 6.023438 14.226562 6.023438 14.667969 5.933594 L 14.667969 13.332031 C 14.667969 13.703125 14.367188 14 14 14 L 2 14 C 1.632812 14 1.332031 13.703125 1.332031 13.332031 L 1.332031 2.667969 C 1.332031 2.296875 1.632812 2 2 2 Z M 14 4.667969 C 12.894531 4.667969 12 3.769531 12 2.667969 C 12 1.5625 12.894531 0.667969 14 0.667969 C 15.105469 0.667969 16 1.5625 16 2.667969 C 16 3.769531 15.105469 4.667969 14 4.667969 Z M 14 4.667969 "/>
</g>
</svg>
