<?xml version="1.0" encoding="UTF-8"?>
<svg xmlns="http://www.w3.org/2000/svg" xmlns:xlink="http://www.w3.org/1999/xlink" width="16" height="16" viewBox="0 0 16 16" version="1.1">
<g id="surface1">
<path style=" stroke:none;fill-rule:nonzero;fill:rgb(100%,100%,100%);fill-opacity:1;" d="M 7.332031 13.296875 C 4.171875 12.9375 1.839844 10.175781 2.015625 7 C 2.191406 3.824219 4.820312 1.335938 8 1.332031 C 11.1875 1.332031 13.816406 3.820312 13.996094 7 C 14.171875 10.179688 11.832031 12.945312 8.667969 13.296875 L 8.667969 16 L 7.332031 16 Z M 8 12 C 10.578125 12 12.667969 9.910156 12.667969 7.332031 C 12.667969 4.757812 10.578125 2.667969 8 2.667969 C 5.421875 2.667969 3.332031 4.757812 3.332031 7.332031 C 3.332031 9.910156 5.421875 12 8 12 Z M 8 12 "/>
</g>
</svg>
