<?xml version="1.0" encoding="UTF-8"?>
<svg xmlns="http://www.w3.org/2000/svg" xmlns:xlink="http://www.w3.org/1999/xlink" width="16" height="16" viewBox="0 0 16 16" version="1.1">
<g id="surface1">
<path style=" stroke:none;fill-rule:nonzero;fill:rgb(100%,100%,100%);fill-opacity:1;" d="M 10.160156 3.011719 L 5.671875 7.5 L 5.199219 8.914062 L 4.503906 9.609375 L 6.390625 11.496094 L 7.085938 10.800781 L 8.5 10.328125 L 12.988281 5.839844 Z M 14.40625 5.367188 C 14.664062 5.628906 14.664062 6.050781 14.40625 6.308594 L 9.21875 11.496094 L 7.804688 11.964844 L 6.863281 12.910156 C 6.601562 13.167969 6.179688 13.167969 5.917969 12.910156 L 3.089844 10.082031 C 2.832031 9.820312 2.832031 9.398438 3.089844 9.136719 L 4.035156 8.195312 L 4.503906 6.78125 L 9.691406 1.59375 C 9.949219 1.335938 10.371094 1.335938 10.632812 1.59375 Z M 10.160156 4.894531 L 11.105469 5.839844 L 7.804688 9.136719 L 6.863281 8.195312 Z M 2.855469 11.261719 L 4.742188 13.144531 L 3.796875 14.089844 L 0.96875 13.144531 Z M 2.855469 11.261719 "/>
</g>
</svg>
