<?xml version="1.0" encoding="UTF-8"?>
<svg xmlns="http://www.w3.org/2000/svg" xmlns:xlink="http://www.w3.org/1999/xlink" width="16" height="16" viewBox="0 0 16 16" version="1.1">
<g id="surface1">
<path style=" stroke:none;fill-rule:evenodd;fill:rgb(100%,100%,100%);fill-opacity:1;" d="M 5.5 1 C 5.222656 1 5 1.222656 5 1.5 L 5 3.5 L 4 3.5 C 3.722656 3.5 3.5 3.722656 3.5 4 L 3.5 5 L 1.5 5 C 1.222656 5 1 5.222656 1 5.5 L 1 6.5 C 1 6.777344 1.222656 7 1.5 7 L 3.5 7 L 3.5 9 L 1.5 9 C 1.222656 9 1 9.222656 1 9.5 L 1 10.5 C 1 10.777344 1.222656 11 1.5 11 L 3.5 11 L 3.5 12 C 3.5 12.277344 3.722656 12.5 4 12.5 L 5 12.5 L 5 14.5 C 5 14.777344 5.222656 15 5.5 15 L 6.5 15 C 6.777344 15 7 14.777344 7 14.5 L 7 12.5 L 9 12.5 L 9 14.5 C 9 14.777344 9.222656 15 9.5 15 L 10.5 15 C 10.777344 15 11 14.777344 11 14.5 L 11 12.5 L 12 12.5 C 12.277344 12.5 12.5 12.277344 12.5 12 L 12.5 11 L 14.5 11 C 14.777344 11 15 10.777344 15 10.5 L 15 9.5 C 15 9.222656 14.777344 9 14.5 9 L 12.5 9 L 12.5 7 L 14.5 7 C 14.777344 7 15 6.777344 15 6.5 L 15 5.5 C 15 5.222656 14.777344 5 14.5 5 L 12.5 5 L 12.5 4 C 12.5 3.722656 12.277344 3.5 12 3.5 L 11 3.5 L 11 1.5 C 11 1.222656 10.777344 1 10.5 1 L 9.5 1 C 9.222656 1 9 1.222656 9 1.5 L 9 3.5 L 7 3.5 L 7 1.5 C 7 1.222656 6.777344 1 6.5 1 Z M 5.5 5 L 10.5 5 C 10.777344 5 11 5.222656 11 5.5 L 11 10.5 C 11 10.777344 10.777344 11 10.5 11 L 5.5 11 C 5.222656 11 5 10.777344 5 10.5 L 5 5.5 C 5 5.222656 5.222656 5 5.5 5 Z M 5.5 5 "/>
</g>
</svg>
