<?xml version="1.0" encoding="UTF-8"?>
<svg xmlns="http://www.w3.org/2000/svg" xmlns:xlink="http://www.w3.org/1999/xlink" width="16" height="16" viewBox="0 0 16 16" version="1.1">
<g id="surface1">
<path style=" stroke:none;fill-rule:nonzero;fill:rgb(100%,100%,100%);fill-opacity:1;" d="M 13.332031 2 C 13.703125 2 14 2.296875 14 2.667969 L 14 13.332031 C 14 13.703125 13.703125 14 13.332031 14 L 2.667969 14 C 2.296875 14 2 13.703125 2 13.332031 L 2 2.667969 C 2 2.296875 2.296875 2 2.667969 2 Z M 7.332031 3.332031 L 3.332031 3.332031 L 3.332031 7.332031 L 4.667969 7.332031 L 4.667969 6 L 6.667969 8 L 4.667969 10 L 4.667969 8.667969 L 3.332031 8.667969 L 3.332031 12.667969 L 7.332031 12.667969 L 7.332031 11.332031 L 8.667969 11.332031 L 8.667969 12.667969 L 12.667969 12.667969 L 12.667969 8.667969 L 11.332031 8.667969 L 11.332031 10 L 9.332031 8 L 11.332031 6 L 11.332031 7.332031 L 12.667969 7.332031 L 12.667969 3.332031 L 8.667969 3.332031 L 8.667969 4.667969 L 7.332031 4.667969 Z M 8.667969 8.667969 L 8.667969 10 L 7.332031 10 L 7.332031 8.667969 Z M 8.667969 6 L 8.667969 7.332031 L 7.332031 7.332031 L 7.332031 6 Z M 8.667969 6 "/>
</g>
</svg>
