<?xml version="1.0" encoding="UTF-8"?>
<svg xmlns="http://www.w3.org/2000/svg" xmlns:xlink="http://www.w3.org/1999/xlink" width="16" height="16" viewBox="0 0 16 16" version="1.1">
<g id="surface1">
<path style=" stroke:none;fill-rule:nonzero;fill:rgb(100%,100%,100%);fill-opacity:1;" d="M 14 0.667969 L 14 8.667969 C 14 11.566406 11.925781 14.050781 9.074219 14.570312 C 6.21875 15.085938 3.40625 13.492188 2.382812 10.777344 C 1.363281 8.0625 2.429688 5.007812 4.917969 3.519531 L 9.332031 0.96875 L 9.332031 2.816406 Z M 12.667969 2.746094 L 8 4.898438 L 8 3.277344 L 5.730469 4.585938 C 4.308594 5.378906 3.398438 6.855469 3.335938 8.484375 L 3.332031 8.667969 C 3.332031 11.214844 5.375 13.292969 7.921875 13.335938 C 10.464844 13.378906 12.578125 11.371094 12.664062 8.828125 L 12.667969 8.667969 Z M 8 5.332031 C 9.839844 5.332031 11.332031 6.824219 11.332031 8.667969 C 11.332031 10.507812 9.839844 12 8 12 C 6.160156 12 4.667969 10.507812 4.667969 8.667969 C 4.667969 6.824219 6.160156 5.332031 8 5.332031 Z M 8 6.667969 C 6.894531 6.667969 6 7.5625 6 8.667969 C 6 9.769531 6.894531 10.667969 8 10.667969 C 9.105469 10.667969 10 9.769531 10 8.667969 C 10 7.5625 9.105469 6.667969 8 6.667969 Z M 8 6.667969 "/>
</g>
</svg>
