<?xml version="1.0" encoding="UTF-8"?>
<svg xmlns="http://www.w3.org/2000/svg" xmlns:xlink="http://www.w3.org/1999/xlink" width="16" height="16" viewBox="0 0 16 16" version="1.1">
<g id="surface1">
<path style=" stroke:none;fill-rule:nonzero;fill:rgb(100%,100%,100%);fill-opacity:1;" d="M 10.949219 11.894531 C 10.246094 12.289062 9.46875 12.542969 8.667969 12.628906 L 8.667969 15.332031 L 7.332031 15.332031 L 7.332031 12.628906 C 4.546875 12.316406 2.347656 10.117188 2.035156 7.332031 L 3.378906 7.332031 C 3.589844 8.792969 4.476562 10.066406 5.773438 10.769531 C 7.070312 11.472656 8.621094 11.523438 9.960938 10.902344 L 8.925781 9.871094 C 7.917969 10.160156 6.835938 9.960938 5.996094 9.332031 C 5.160156 8.703125 4.667969 7.714844 4.667969 6.667969 L 4.667969 5.609375 L 0.929688 1.871094 L 1.871094 0.929688 L 15.070312 14.128906 L 14.128906 15.070312 Z M 6.023438 6.964844 L 7.703125 8.644531 C 6.835938 8.511719 6.152344 7.832031 6.023438 6.964844 Z M 12.917969 10.105469 L 11.953125 9.144531 C 12.292969 8.605469 12.523438 7.992188 12.621094 7.332031 L 13.964844 7.332031 C 13.851562 8.332031 13.492188 9.285156 12.917969 10.105469 Z M 10.976562 8.167969 L 9.945312 7.136719 C 9.980469 6.984375 10 6.828125 10 6.667969 L 10 4 C 10 3.03125 9.304688 2.199219 8.347656 2.027344 C 7.394531 1.859375 6.453125 2.398438 6.121094 3.3125 L 5.125 2.3125 C 5.886719 1.015625 7.421875 0.386719 8.875 0.78125 C 10.324219 1.175781 11.332031 2.496094 11.332031 4 L 11.332031 6.667969 C 11.335938 7.1875 11.210938 7.703125 10.976562 8.167969 Z M 10.976562 8.167969 "/>
</g>
</svg>
