<?xml version="1.0" encoding="UTF-8"?>
<svg xmlns="http://www.w3.org/2000/svg" xmlns:xlink="http://www.w3.org/1999/xlink" width="16" height="16" viewBox="0 0 16 16" version="1.1">
<g id="surface1">
<path style=" stroke:none;fill-rule:evenodd;fill:rgb(100%,100%,100%);fill-opacity:1;" d="M 8 0 C 6.335938 0 5 1.335938 5 3 L 5 8 C 5 9.664062 6.335938 11 8 11 C 9.664062 11 11 9.664062 11 8 L 11 3 C 11 1.335938 9.664062 0 8 0 Z M 2 8 L 2 10 C 2 12.210938 3.789062 14 6 14 L 6 16 L 10 16 L 10 14 C 12.210938 14 14 12.210938 14 10 L 14 8 L 12 8 L 12 9 C 12 10.65625 10.65625 12 9 12 L 7 12 C 5.34375 12 4 10.65625 4 9 L 4 8 Z M 2 8 "/>
</g>
</svg>
