<?xml version="1.0" encoding="UTF-8"?>
<svg xmlns="http://www.w3.org/2000/svg" xmlns:xlink="http://www.w3.org/1999/xlink" width="16" height="16" viewBox="0 0 16 16" version="1.1">
<g id="surface1">
<path style=" stroke:none;fill-rule:evenodd;fill:rgb(100%,100%,100%);fill-opacity:1;" d="M 8 0 C 7.050781 0 6.21875 0.445312 5.667969 1.132812 L 10.976562 8.21875 C 10.984375 8.144531 11 8.074219 11 8 L 11 3 C 11 1.335938 9.664062 0 8 0 Z M 5.023438 2.769531 C 5.015625 2.847656 5 2.921875 5 3 L 5 5.257812 L 9.140625 10.773438 C 9.617188 10.578125 10.023438 10.257812 10.339844 9.859375 Z M 5 7.753906 L 5 8 C 5 9.453125 6.023438 10.65625 7.386719 10.9375 Z M 2 8 L 2 10 C 2 12.210938 3.789062 14 6 14 L 6 16 L 10 16 L 10 14.421875 L 8.1875 12 L 7 12 C 5.34375 12 4 10.65625 4 9 L 4 8 Z M 12 8 L 12 9 C 12 9.171875 11.984375 9.347656 11.953125 9.519531 L 13.609375 11.726562 C 13.867188 11.1875 14 10.597656 14 10 L 14 8 Z M 11.210938 11.023438 C 10.867188 11.402344 10.429688 11.6875 9.941406 11.84375 L 11.375 13.757812 C 11.851562 13.578125 12.296875 13.316406 12.671875 12.976562 Z M 11.210938 11.023438 "/>
<path style=" stroke:none;fill-rule:nonzero;fill:rgb(100%,100%,100%);fill-opacity:1;" d="M 1.25 0 C 1.25 0.164062 1.304688 0.320312 1.402344 0.453125 L 13.0625 16 L 14.75 16 C 14.75 15.835938 14.695312 15.679688 14.601562 15.554688 L 2.9375 0 Z M 1.25 0 "/>
</g>
</svg>
