<?xml version="1.0" encoding="UTF-8"?>
<svg xmlns="http://www.w3.org/2000/svg" xmlns:xlink="http://www.w3.org/1999/xlink" width="16" height="16" viewBox="0 0 16 16" version="1.1">
<g id="surface1">
<path style=" stroke:none;fill-rule:nonzero;fill:rgb(100%,100%,100%);fill-opacity:1;" d="M 8 14.667969 C 4.316406 14.667969 1.332031 11.683594 1.332031 8 C 1.332031 4.316406 4.316406 1.332031 8 1.332031 C 11.683594 1.332031 14.667969 4.316406 14.667969 8 C 14.667969 11.683594 11.683594 14.667969 8 14.667969 Z M 8 13.332031 C 10.945312 13.332031 13.332031 10.945312 13.332031 8 C 13.332031 5.054688 10.945312 2.667969 8 2.667969 C 5.054688 2.667969 2.667969 5.054688 2.667969 8 C 2.667969 10.945312 5.054688 13.332031 8 13.332031 Z M 6.699219 7.332031 L 10 7.332031 L 10 8.667969 L 6.699219 8.667969 C 6.816406 9.242188 7.230469 9.714844 7.785156 9.910156 C 8.34375 10.101562 8.960938 9.988281 9.410156 9.605469 L 10.542969 10.363281 C 9.746094 11.226562 8.519531 11.550781 7.402344 11.183594 C 6.285156 10.820312 5.484375 9.835938 5.351562 8.667969 L 4.667969 8.667969 L 4.667969 7.332031 L 5.351562 7.332031 C 5.480469 6.164062 6.285156 5.179688 7.402344 4.8125 C 8.519531 4.449219 9.75 4.769531 10.542969 5.636719 L 9.410156 6.394531 C 8.960938 6.011719 8.34375 5.898438 7.785156 6.089844 C 7.230469 6.285156 6.816406 6.757812 6.699219 7.332031 Z M 6.699219 7.332031 "/>
</g>
</svg>
