<?xml version="1.0" encoding="UTF-8"?>
<svg xmlns="http://www.w3.org/2000/svg" xmlns:xlink="http://www.w3.org/1999/xlink" width="16" height="16" viewBox="0 0 16 16" version="1.1">
<g id="surface1">
<path style=" stroke:none;fill-rule:nonzero;fill:rgb(100%,100%,100%);fill-opacity:1;" d="M 8 14.667969 C 4.316406 14.667969 1.332031 11.683594 1.332031 8 C 1.332031 4.316406 4.316406 1.332031 8 1.332031 C 11.683594 1.332031 14.667969 4.316406 14.667969 8 C 14.667969 11.683594 11.683594 14.667969 8 14.667969 Z M 6 8.667969 L 6 10 L 5.332031 10 L 5.332031 11.332031 L 10.667969 11.332031 L 10.667969 10 L 7.332031 10 L 7.332031 8.667969 L 9.332031 8.667969 L 9.332031 7.332031 L 7.332031 7.332031 L 7.332031 6.667969 C 7.332031 6.222656 7.625 5.832031 8.050781 5.707031 C 8.476562 5.582031 8.933594 5.75 9.171875 6.125 L 10.496094 5.792969 C 10.078125 4.757812 8.984375 4.164062 7.890625 4.378906 C 6.792969 4.589844 6 5.550781 6 6.667969 L 6 7.332031 L 5.332031 7.332031 L 5.332031 8.667969 Z M 6 8.667969 "/>
</g>
</svg>
