<?xml version="1.0" encoding="UTF-8"?>
<svg xmlns="http://www.w3.org/2000/svg" xmlns:xlink="http://www.w3.org/1999/xlink" width="16" height="16" viewBox="0 0 16 16" version="1.1">
<g id="surface1">
<path style=" stroke:none;fill-rule:nonzero;fill:rgb(100%,100%,100%);fill-opacity:1;" d="M 3.332031 6.667969 C 2.601562 6.667969 2 7.265625 2 8 C 2 8.734375 2.601562 9.332031 3.332031 9.332031 C 4.066406 9.332031 4.667969 8.734375 4.667969 8 C 4.667969 7.265625 4.066406 6.667969 3.332031 6.667969 Z M 12.667969 6.667969 C 11.933594 6.667969 11.332031 7.265625 11.332031 8 C 11.332031 8.734375 11.933594 9.332031 12.667969 9.332031 C 13.398438 9.332031 14 8.734375 14 8 C 14 7.265625 13.398438 6.667969 12.667969 6.667969 Z M 8 6.667969 C 7.265625 6.667969 6.667969 7.265625 6.667969 8 C 6.667969 8.734375 7.265625 9.332031 8 9.332031 C 8.734375 9.332031 9.332031 8.734375 9.332031 8 C 9.332031 7.265625 8.734375 6.667969 8 6.667969 Z M 8 6.667969 "/>
</g>
</svg>
