<?xml version="1.0" encoding="UTF-8"?>
<svg xmlns="http://www.w3.org/2000/svg" xmlns:xlink="http://www.w3.org/1999/xlink" width="16" height="16" viewBox="0 0 16 16" version="1.1">
<g id="surface1">
<path style=" stroke:none;fill-rule:nonzero;fill:rgb(100%,100%,100%);fill-opacity:1;" d="M 13.332031 2 L 13.332031 11.332031 C 13.332031 12.539062 12.523438 13.597656 11.355469 13.910156 C 10.191406 14.222656 8.960938 13.710938 8.355469 12.664062 C 7.753906 11.621094 7.925781 10.300781 8.78125 9.445312 C 9.632812 8.59375 10.953125 8.417969 12 9.023438 L 12 4 L 6 4 L 6 11.332031 C 6 12.539062 5.1875 13.597656 4.023438 13.910156 C 2.855469 14.222656 1.628906 13.710938 1.023438 12.664062 C 0.421875 11.621094 0.59375 10.300781 1.449219 9.445312 C 2.300781 8.59375 3.621094 8.417969 4.667969 9.023438 L 4.667969 2 Z M 13.332031 2 "/>
</g>
</svg>
