<?xml version="1.0" encoding="UTF-8"?>
<svg xmlns="http://www.w3.org/2000/svg" xmlns:xlink="http://www.w3.org/1999/xlink" width="16" height="16" viewBox="0 0 16 16" version="1.1">
<g id="surface1">
<path style=" stroke:none;fill-rule:nonzero;fill:rgb(100%,100%,100%);fill-opacity:1;" d="M 0.613281 15.882812 L 0.613281 9.203125 L 1.6875 9.203125 L 3.929688 13.664062 L 3.929688 9.203125 L 4.960938 9.203125 L 4.960938 15.882812 L 3.847656 15.882812 L 1.640625 11.527344 L 1.640625 15.882812 Z M 0.613281 15.882812 "/>
<path style=" stroke:none;fill-rule:nonzero;fill:rgb(100%,100%,100%);fill-opacity:1;" d="M 6.132812 15.882812 L 6.132812 9.203125 L 9.886719 9.203125 L 9.886719 10.335938 L 7.234375 10.335938 L 7.234375 11.914062 L 9.527344 11.914062 L 9.527344 13.046875 L 7.234375 13.046875 L 7.234375 15.882812 Z M 6.132812 15.882812 "/>
<path style=" stroke:none;fill-rule:nonzero;fill:rgb(100%,100%,100%);fill-opacity:1;" d="M 14.316406 13.429688 L 15.386719 13.84375 C 15.21875 14.589844 14.941406 15.136719 14.554688 15.484375 C 14.164062 15.828125 13.6875 16 13.117188 16 C 12.40625 16 11.824219 15.722656 11.382812 15.171875 C 10.871094 14.539062 10.617188 13.679688 10.617188 12.601562 C 10.617188 11.460938 10.875 10.570312 11.386719 9.929688 C 11.832031 9.367188 12.433594 9.089844 13.1875 9.089844 C 13.800781 9.089844 14.3125 9.296875 14.726562 9.71875 C 15.023438 10.015625 15.234375 10.457031 15.375 11.046875 L 14.28125 11.363281 C 14.210938 11 14.070312 10.726562 13.859375 10.53125 C 13.65625 10.339844 13.410156 10.242188 13.125 10.242188 C 12.722656 10.242188 12.390625 10.417969 12.140625 10.773438 C 11.882812 11.125 11.757812 11.703125 11.757812 12.515625 C 11.757812 13.359375 11.878906 13.957031 12.128906 14.3125 C 12.378906 14.667969 12.703125 14.84375 13.101562 14.84375 C 13.390625 14.84375 13.640625 14.734375 13.855469 14.507812 C 14.070312 14.28125 14.222656 13.921875 14.316406 13.429688 Z M 14.316406 13.429688 "/>
<path style=" stroke:none;fill-rule:evenodd;fill:rgb(100%,100%,100%);fill-opacity:1;" d="M 5.414062 7.988281 C 5.390625 7.972656 5.367188 7.953125 5.34375 7.933594 C 5.25 7.84375 5.195312 7.714844 5.1875 7.582031 C 5.1875 7.449219 5.234375 7.320312 5.328125 7.226562 C 6.054688 6.457031 7.0625 6.007812 8.121094 5.980469 C 9.179688 5.953125 10.207031 6.351562 10.976562 7.078125 C 11.171875 7.269531 11.183594 7.578125 11 7.78125 C 10.90625 7.875 10.78125 7.933594 10.648438 7.9375 C 10.515625 7.941406 10.386719 7.890625 10.289062 7.796875 C 9.714844 7.25 8.945312 6.960938 8.148438 6.976562 C 7.351562 7 6.601562 7.335938 6.054688 7.914062 C 5.886719 8.089844 5.617188 8.121094 5.414062 7.988281 Z M 5.414062 7.988281 "/>
<path style=" stroke:none;fill-rule:evenodd;fill:rgb(100%,100%,100%);fill-opacity:1;" d="M 3.96875 6.601562 C 3.941406 6.585938 3.917969 6.570312 3.898438 6.546875 C 3.800781 6.457031 3.742188 6.328125 3.742188 6.199219 C 3.734375 6.066406 3.789062 5.9375 3.875 5.839844 C 4.976562 4.6875 6.484375 4.023438 8.074219 3.980469 C 9.664062 3.9375 11.207031 4.535156 12.359375 5.632812 C 12.558594 5.824219 12.5625 6.136719 12.375 6.335938 C 12.183594 6.53125 11.875 6.535156 11.675781 6.351562 C 10.714844 5.4375 9.429688 4.945312 8.101562 4.976562 C 6.777344 5.015625 5.515625 5.570312 4.601562 6.53125 C 4.4375 6.703125 4.171875 6.734375 3.96875 6.601562 Z M 3.96875 6.601562 "/>
<path style=" stroke:none;fill-rule:evenodd;fill:rgb(100%,100%,100%);fill-opacity:1;" d="M 2.523438 5.226562 C 2.492188 5.210938 2.46875 5.191406 2.445312 5.171875 C 2.347656 5.078125 2.289062 4.953125 2.289062 4.820312 C 2.285156 4.6875 2.335938 4.558594 2.425781 4.460938 C 3.886719 2.925781 5.898438 2.03125 8.023438 1.976562 C 10.140625 1.921875 12.203125 2.71875 13.742188 4.179688 C 13.835938 4.273438 13.890625 4.398438 13.894531 4.53125 C 13.898438 4.664062 13.851562 4.789062 13.757812 4.886719 C 13.664062 4.984375 13.539062 5.039062 13.40625 5.042969 C 13.273438 5.046875 13.148438 5 13.050781 4.90625 C 11.703125 3.625 9.90625 2.929688 8.046875 2.976562 C 6.195312 3.023438 4.429688 3.804688 3.152344 5.152344 C 2.984375 5.324219 2.722656 5.359375 2.523438 5.226562 Z M 2.523438 5.226562 "/>
<path style=" stroke:none;fill-rule:evenodd;fill:rgb(100%,100%,100%);fill-opacity:1;" d="M 1.085938 3.015625 C 0.960938 3.210938 0.992188 3.46875 1.15625 3.632812 C 1.25 3.730469 1.378906 3.78125 1.511719 3.78125 C 1.640625 3.78125 1.773438 3.726562 1.867188 3.632812 C 5.34375 0.15625 10.953125 0.109375 14.488281 3.53125 C 14.582031 3.625 14.710938 3.679688 14.84375 3.679688 C 14.976562 3.679688 15.105469 3.625 15.199219 3.523438 C 15.289062 3.429688 15.34375 3.300781 15.335938 3.167969 C 15.335938 3.035156 15.28125 2.90625 15.179688 2.820312 C 11.265625 -0.976562 5.015625 -0.929688 1.15625 2.929688 C 1.132812 2.953125 1.109375 2.984375 1.085938 3.015625 Z M 1.085938 3.015625 "/>
</g>
</svg>
