<?xml version="1.0" encoding="UTF-8"?>
<svg xmlns="http://www.w3.org/2000/svg" xmlns:xlink="http://www.w3.org/1999/xlink" width="16" height="16" viewBox="0 0 16 16" version="1.1">
<g id="surface1">
<path style=" stroke:none;fill-rule:nonzero;fill:rgb(100%,100%,100%);fill-opacity:1;" d="M 6.1875 -0.00390625 C 5.777344 0.015625 5.433594 0.347656 5.351562 0.800781 L 4.078125 7.945312 L 3.460938 6.550781 C 3.304688 6.199219 2.980469 5.984375 2.632812 6 C 2.28125 6.015625 1.972656 6.257812 1.84375 6.625 L 0.0625 11.628906 C -0.117188 12.140625 0.101562 12.722656 0.554688 12.929688 C 0.773438 13.027344 1.019531 13.023438 1.234375 12.917969 C 1.453125 12.8125 1.625 12.617188 1.710938 12.367188 L 2.753906 9.4375 L 3.648438 11.445312 C 3.816406 11.828125 4.183594 12.046875 4.5625 11.988281 C 4.9375 11.929688 5.238281 11.613281 5.3125 11.195312 L 6.074219 6.921875 L 7.117188 15.136719 C 7.175781 15.625 7.546875 16 7.984375 16.003906 C 8.425781 16.011719 8.804688 15.65625 8.875 15.164062 L 9.898438 8.242188 L 10.6875 12.210938 C 10.777344 12.65625 11.125 12.976562 11.527344 12.992188 C 11.929688 13.003906 12.292969 12.710938 12.40625 12.273438 L 13.5625 7.742188 L 14.316406 9.445312 C 14.421875 9.683594 14.605469 9.867188 14.828125 9.949219 C 15.054688 10.03125 15.296875 10.015625 15.507812 9.898438 C 15.949219 9.648438 16.125 9.046875 15.90625 8.554688 L 14.125 4.550781 C 13.960938 4.1875 13.617188 3.96875 13.25 4.007812 C 12.890625 4.042969 12.582031 4.328125 12.476562 4.71875 L 11.664062 7.929688 L 10.648438 2.78125 C 10.554688 2.3125 10.183594 1.984375 9.757812 1.992188 C 9.328125 2.007812 8.972656 2.359375 8.902344 2.832031 L 8.070312 8.46875 L 7.105469 0.859375 C 7.042969 0.347656 6.644531 -0.0234375 6.1875 -0.00390625 Z M 6.1875 -0.00390625 "/>
</g>
</svg>
