<?xml version="1.0" encoding="UTF-8"?>
<svg xmlns="http://www.w3.org/2000/svg" xmlns:xlink="http://www.w3.org/1999/xlink" width="16" height="16" viewBox="0 0 16 16" version="1.1">
<g id="surface1">
<path style=" stroke:none;fill-rule:nonzero;fill:rgb(100%,100%,100%);fill-opacity:1;" d="M 9.84375 13.007812 C 11.941406 12.234375 13.335938 10.234375 13.335938 8 C 13.335938 5.765625 11.941406 3.765625 9.84375 2.992188 C 11.140625 3.984375 12 5.957031 12 8 C 12 10.042969 11.140625 12.015625 9.84375 13.007812 Z M 6.15625 2.992188 C 4.058594 3.765625 2.664062 5.765625 2.664062 8 C 2.664062 10.234375 4.058594 12.234375 6.15625 13.007812 C 4.859375 12.015625 4 10.042969 4 8 C 4 5.957031 4.859375 3.984375 6.15625 2.992188 Z M 8 14.667969 C 4.316406 14.667969 1.332031 11.683594 1.332031 8 C 1.332031 4.316406 4.316406 1.332031 8 1.332031 C 11.683594 1.332031 14.667969 4.316406 14.667969 8 C 14.667969 11.683594 11.683594 14.667969 8 14.667969 Z M 8 12.332031 C 9.332031 12.332031 10.667969 10.3125 10.667969 8 C 10.667969 5.6875 9.332031 3.667969 8 3.667969 C 6.667969 3.667969 5.332031 5.6875 5.332031 8 C 5.332031 10.3125 6.667969 12.332031 8 12.332031 Z M 8 12.332031 "/>
</g>
</svg>
