<?xml version="1.0" encoding="UTF-8"?>
<svg xmlns="http://www.w3.org/2000/svg" xmlns:xlink="http://www.w3.org/1999/xlink" width="16" height="16" viewBox="0 0 16 16" version="1.1">
<g id="surface1">
<path style=" stroke:none;fill-rule:nonzero;fill:rgb(100%,100%,100%);fill-opacity:1;" d="M 4.617188 14 C 3.410156 12.441406 2.667969 10.328125 2.667969 8 C 2.667969 5.671875 3.410156 3.558594 4.617188 2 L 5.957031 2 C 4.824219 3.59375 4.132812 5.695312 4.132812 8 C 4.132812 10.304688 4.824219 12.40625 5.957031 14 Z M 11.382812 14 L 10.039062 14 C 11.175781 12.40625 11.863281 10.304688 11.863281 8 C 11.863281 5.695312 11.175781 3.59375 10.039062 2 L 11.382812 2 C 12.589844 3.558594 13.332031 5.671875 13.332031 8 C 13.332031 10.328125 12.589844 12.441406 11.382812 14 Z M 11.382812 14 "/>
</g>
</svg>
