<?xml version="1.0" encoding="UTF-8"?>
<svg xmlns="http://www.w3.org/2000/svg" xmlns:xlink="http://www.w3.org/1999/xlink" width="16" height="16" viewBox="0 0 16 16" version="1.1">
<g id="surface1">
<path style=" stroke:none;fill-rule:nonzero;fill:rgb(100%,100%,100%);fill-opacity:1;" d="M 11.0625 0.691406 L 15.296875 4.925781 C 15.382812 5.011719 15.414062 5.144531 15.375 5.261719 C 15.335938 5.382812 15.234375 5.46875 15.109375 5.488281 L 14.128906 5.644531 L 10.355469 1.871094 L 10.5 0.882812 C 10.515625 0.757812 10.601562 0.652344 10.722656 0.613281 C 10.84375 0.574219 10.976562 0.605469 11.0625 0.691406 Z M 3.0625 13.433594 C 5.542969 11.210938 8.394531 10.546875 11.492188 9.753906 L 11.789062 7.074219 L 8.925781 4.210938 L 6.246094 4.507812 C 5.453125 7.605469 4.785156 10.453125 2.566406 12.9375 L 1.636719 12.007812 C 3.519531 9.808594 4.230469 7.371094 5.171875 3.285156 L 9.414062 2.816406 L 13.183594 6.585938 L 12.714844 10.828125 C 8.628906 11.769531 6.191406 12.480469 3.992188 14.363281 Z M 6.585938 9.414062 C 6.238281 9.078125 6.101562 8.582031 6.222656 8.117188 C 6.34375 7.652344 6.707031 7.285156 7.175781 7.164062 C 7.640625 7.042969 8.136719 7.179688 8.472656 7.527344 C 8.96875 8.050781 8.960938 8.878906 8.449219 9.390625 C 7.9375 9.902344 7.109375 9.910156 6.585938 9.414062 Z M 6.585938 9.414062 "/>
</g>
</svg>
