<?xml version="1.0" encoding="UTF-8"?>
<svg xmlns="http://www.w3.org/2000/svg" xmlns:xlink="http://www.w3.org/1999/xlink" width="16" height="16" viewBox="0 0 16 16" version="1.1">
<g id="surface1">
<path style=" stroke:none;fill-rule:nonzero;fill:rgb(100%,100%,100%);fill-opacity:1;" d="M 3.757812 8.472656 L 4.976562 9.691406 L 5.921875 8.746094 L 4.699219 7.527344 L 5.644531 6.585938 L 6.863281 7.804688 L 7.804688 6.863281 L 6.585938 5.644531 L 7.53125 4.699219 L 8.746094 5.921875 L 9.691406 4.976562 L 8.46875 3.757812 L 10.355469 1.871094 C 10.617188 1.613281 11.039062 1.613281 11.300781 1.871094 L 14.128906 4.699219 C 14.386719 4.960938 14.386719 5.382812 14.128906 5.644531 L 5.644531 14.128906 C 5.382812 14.386719 4.960938 14.386719 4.699219 14.128906 L 1.871094 11.300781 C 1.613281 11.039062 1.613281 10.617188 1.871094 10.355469 Z M 9.414062 12.242188 L 12.242188 9.414062 L 14 11.171875 L 14 14 L 11.171875 14 Z M 3.757812 6.585938 L 1.871094 4.699219 C 1.746094 4.574219 1.675781 4.40625 1.675781 4.226562 C 1.675781 4.050781 1.746094 3.882812 1.871094 3.757812 L 3.757812 1.871094 C 4.019531 1.609375 4.441406 1.609375 4.699219 1.871094 L 6.585938 3.757812 Z M 3.757812 6.585938 "/>
</g>
</svg>
