<?xml version="1.0" encoding="UTF-8"?>
<svg xmlns="http://www.w3.org/2000/svg" xmlns:xlink="http://www.w3.org/1999/xlink" width="16" height="16" viewBox="0 0 16 16" version="1.1">
<g id="surface1">
<path style=" stroke:none;fill-rule:nonzero;fill:rgb(100%,100%,100%);fill-opacity:1;" d="M 14 10.945312 L 14 13.304688 C 14 13.652344 13.730469 13.945312 13.378906 13.96875 C 13.089844 13.988281 12.851562 14 12.667969 14 C 6.773438 14 2 9.226562 2 3.332031 C 2 3.148438 2.011719 2.910156 2.03125 2.621094 C 2.054688 2.269531 2.347656 2 2.695312 2 L 5.054688 2 C 5.226562 2 5.367188 2.128906 5.386719 2.300781 C 5.402344 2.453125 5.414062 2.574219 5.429688 2.667969 C 5.558594 3.59375 5.832031 4.492188 6.234375 5.335938 C 6.296875 5.46875 6.253906 5.628906 6.136719 5.714844 L 4.695312 6.742188 C 5.578125 8.789062 7.210938 10.425781 9.257812 11.304688 L 10.285156 9.867188 C 10.371094 9.746094 10.535156 9.707031 10.667969 9.769531 C 11.511719 10.167969 12.410156 10.441406 13.335938 10.570312 C 13.425781 10.585938 13.550781 10.601562 13.703125 10.613281 C 13.871094 10.632812 14 10.777344 14 10.945312 Z M 14 10.945312 "/>
</g>
</svg>
