<?xml version="1.0" encoding="UTF-8"?>
<svg xmlns="http://www.w3.org/2000/svg" xmlns:xlink="http://www.w3.org/1999/xlink" width="16" height="16" viewBox="0 0 16 16" version="1.1">
<g id="surface1">
<path style=" stroke:none;fill-rule:nonzero;fill:rgb(100%,100%,100%);fill-opacity:1;" d="M 12 1.332031 C 12.367188 1.332031 12.667969 1.632812 12.667969 2 L 12.667969 6.734375 C 10.863281 6.363281 9.101562 7.527344 8.734375 9.332031 L 8 9.332031 L 8 14.667969 L 4 14.667969 C 3.632812 14.667969 3.332031 14.367188 3.332031 14 L 3.332031 2 C 3.332031 1.632812 3.632812 1.332031 4 1.332031 Z M 12 8 C 13.105469 8 14 8.894531 14 10 L 14 10.667969 L 14.667969 10.667969 L 14.667969 14 C 14.667969 14.367188 14.367188 14.667969 14 14.667969 L 10 14.667969 C 9.632812 14.667969 9.332031 14.367188 9.332031 14 L 9.332031 10.667969 L 10 10.667969 L 10 10 C 10 8.894531 10.894531 8 12 8 Z M 12 9.332031 C 11.65625 9.332031 11.332031 9.632812 11.332031 10 L 11.332031 10.667969 L 12.667969 10.667969 L 12.667969 10 C 12.667969 9.632812 12.367188 9.332031 12 9.332031 Z M 12 9.332031 "/>
</g>
</svg>
