<?xml version="1.0" encoding="UTF-8"?>
<svg xmlns="http://www.w3.org/2000/svg" xmlns:xlink="http://www.w3.org/1999/xlink" width="16" height="16" viewBox="0 0 16 16" version="1.1">
<g id="surface1">
<path style=" stroke:none;fill-rule:nonzero;fill:rgb(100%,100%,100%);fill-opacity:1;" d="M 13.34375 0.242188 C 12.085938 0.25 10.640625 0.328125 9.320312 0.929688 C 8.441406 1.328125 7.617188 2.003906 7.097656 2.996094 C 7.058594 3.070312 7.03125 3.15625 6.996094 3.234375 C 8.617188 4.40625 9.519531 6.515625 9.5 9.335938 C 11.953125 8.054688 14.632812 5.851562 15.515625 1.445312 C 15.570312 1.152344 15.496094 0.847656 15.304688 0.617188 C 15.117188 0.382812 14.832031 0.25 14.53125 0.25 C 14.164062 0.25 13.765625 0.242188 13.34375 0.242188 Z M 13.34375 0.242188 "/>
<path style=" stroke:none;fill-rule:nonzero;fill:rgb(100%,100%,100%);fill-opacity:1;" d="M 1.46875 2.996094 C 1.15625 2.996094 0.863281 3.140625 0.671875 3.386719 C 0.484375 3.632812 0.421875 3.953125 0.5 4.25 C 0.773438 5.320312 1.296875 6.921875 2.328125 8.4375 C 3.203125 9.71875 4.71875 10.734375 6.464844 11.429688 L 6.464844 15.996094 L 8.464844 15.996094 L 8.464844 10.0625 C 8.65625 6.984375 7.777344 5.007812 6.28125 4.007812 C 4.78125 3.007812 2.992188 2.996094 1.46875 2.996094 Z M 1.46875 2.996094 "/>
</g>
</svg>
