<?xml version="1.0" encoding="UTF-8"?>
<svg xmlns="http://www.w3.org/2000/svg" xmlns:xlink="http://www.w3.org/1999/xlink" width="16" height="16" viewBox="0 0 16 16" version="1.1">
<g id="surface1">
<path style=" stroke:none;fill-rule:nonzero;fill:rgb(100%,100%,100%);fill-opacity:1;" d="M 2 1 C 0.894531 1 0 1.894531 0 3 L 0 13 C 0 14.105469 0.894531 15 2 15 L 8 15 L 8 1 Z M 9 1 L 9 3 L 10 3 L 10 5 L 9 5 L 9 15 L 12 15 L 12 1 Z M 13 1 L 13 3 L 14 3 L 14 5 L 13 5 L 13 15 L 16 15 L 16 1 Z M 2 3 L 6 3 L 6 5 L 2 5 Z M 2 12 L 6 12 L 6 13 L 2 13 Z M 2 12 "/>
</g>
</svg>
