<?xml version="1.0" encoding="UTF-8"?>
<svg xmlns="http://www.w3.org/2000/svg" xmlns:xlink="http://www.w3.org/1999/xlink" width="16" height="16" viewBox="0 0 16 16" version="1.1">
<g id="surface1">
<path style=" stroke:none;fill-rule:nonzero;fill:rgb(100%,100%,100%);fill-opacity:1;" d="M 6 2 L 6 6 L 2 6 C 1.445312 6 1 6.445312 1 7 L 1 9 C 1 9.554688 1.445312 10 2 10 L 6 10 L 6 14 C 6 14.554688 6.445312 15 7 15 L 9 15 C 9.554688 15 10 14.554688 10 14 L 10 10 L 14 10 C 14.554688 10 15 9.554688 15 9 L 15 7 C 15 6.445312 14.554688 6 14 6 L 10 6 L 10 2 C 10 1.445312 9.554688 1 9 1 L 7 1 C 6.445312 1 6 1.445312 6 2 Z M 6 2 "/>
</g>
</svg>
