<?xml version="1.0" encoding="UTF-8"?>
<svg xmlns="http://www.w3.org/2000/svg" xmlns:xlink="http://www.w3.org/1999/xlink" width="16" height="16" viewBox="0 0 16 16" version="1.1">
<g id="surface1">
<path style=" stroke:none;fill-rule:nonzero;fill:rgb(100%,100%,100%);fill-opacity:1;" d="M 7.042969 11.332031 C 6.796875 11.792969 6.667969 12.308594 6.667969 12.832031 C 6.667969 13.515625 6.882812 14.148438 7.25 14.667969 L 4.667969 14.667969 L 4.667969 11.332031 Z M 11.667969 8.667969 C 12.957031 8.667969 14 9.710938 14 11 L 14 11.070312 C 14.859375 11.3125 15.421875 12.140625 15.324219 13.03125 C 15.230469 13.917969 14.503906 14.609375 13.613281 14.664062 L 13.5 14.667969 L 9.832031 14.667969 L 9.722656 14.664062 C 8.828125 14.609375 8.105469 13.917969 8.007812 13.027344 C 7.914062 12.140625 8.472656 11.3125 9.335938 11.070312 L 9.332031 11 C 9.332031 9.710938 10.378906 8.667969 11.667969 8.667969 Z M 14 5.332031 C 14.367188 5.332031 14.667969 5.632812 14.667969 6 L 14.667969 8.898438 C 13.984375 7.917969 12.863281 7.332031 11.667969 7.332031 L 11.519531 7.335938 C 9.933594 7.398438 8.570312 8.472656 8.136719 10 L 3.332031 10 L 3.332031 13.332031 L 2 13.332031 C 1.632812 13.332031 1.332031 13.035156 1.332031 12.667969 L 1.332031 6 C 1.332031 5.632812 1.632812 5.332031 2 5.332031 Z M 5.332031 6.667969 L 3.332031 6.667969 L 3.332031 8 L 5.332031 8 Z M 11.332031 1.332031 C 11.703125 1.332031 12 1.632812 12 2 L 12 4 L 4 4 L 4 2 C 4 1.632812 4.296875 1.332031 4.667969 1.332031 Z M 11.332031 1.332031 "/>
</g>
</svg>
