<?xml version="1.0" encoding="UTF-8"?>
<svg xmlns="http://www.w3.org/2000/svg" xmlns:xlink="http://www.w3.org/1999/xlink" width="16" height="16" viewBox="0 0 16 16" version="1.1">
<g id="surface1">
<path style=" stroke:none;fill-rule:nonzero;fill:rgb(100%,100%,100%);fill-opacity:1;" d="M 8 12.667969 C 8.550781 12.667969 9 13.113281 9 13.667969 C 9 14.21875 8.550781 14.667969 8 14.667969 C 7.449219 14.667969 7 14.21875 7 13.667969 C 7 13.113281 7.449219 12.667969 8 12.667969 Z M 8 1.332031 C 10.210938 1.332031 12 3.125 12 5.332031 C 12 6.777344 11.496094 7.527344 10.21875 8.617188 C 8.933594 9.707031 8.667969 10.199219 8.667969 11.332031 L 7.332031 11.332031 C 7.332031 9.683594 7.859375 8.871094 9.355469 7.597656 C 10.367188 6.738281 10.667969 6.289062 10.667969 5.332031 C 10.667969 3.859375 9.472656 2.667969 8 2.667969 C 6.527344 2.667969 5.332031 3.859375 5.332031 5.332031 L 5.332031 6 L 4 6 L 4 5.332031 C 4 3.125 5.789062 1.332031 8 1.332031 Z M 8 1.332031 "/>
</g>
</svg>
