<?xml version="1.0" encoding="UTF-8"?>
<svg xmlns="http://www.w3.org/2000/svg" xmlns:xlink="http://www.w3.org/1999/xlink" width="16" height="16" viewBox="0 0 16 16" version="1.1">
<g id="surface1">
<path style=" stroke:none;fill-rule:nonzero;fill:rgb(100%,100%,100%);fill-opacity:1;" d="M 4 2 L 4 0.667969 L 5.332031 0.667969 L 5.332031 2 L 14.003906 2 C 14.371094 2 14.667969 2.296875 14.667969 2.660156 L 14.667969 13.339844 C 14.664062 13.703125 14.371094 13.996094 14.003906 14 L 1.996094 14 C 1.628906 14 1.332031 13.703125 1.332031 13.339844 L 1.332031 2.660156 C 1.335938 2.296875 1.628906 2.003906 1.996094 2 Z M 2.667969 3.332031 L 2.667969 12.667969 L 13.332031 12.667969 L 13.332031 3.332031 Z M 6 10 C 4.894531 10 4 9.105469 4 8 C 4 6.894531 4.894531 6 6 6 C 7.105469 6 8 6.894531 8 8 C 8 9.105469 7.105469 10 6 10 Z M 9.332031 6 L 12 6 L 12 7.332031 L 9.332031 7.332031 Z M 9.332031 8.667969 L 12 8.667969 L 12 10 L 9.332031 10 Z M 9.332031 8.667969 "/>
</g>
</svg>
