<?xml version="1.0" encoding="UTF-8"?>
<svg xmlns="http://www.w3.org/2000/svg" xmlns:xlink="http://www.w3.org/1999/xlink" width="16" height="16" viewBox="0 0 16 16" version="1.1">
<g id="surface1">
<path style=" stroke:none;fill-rule:nonzero;fill:rgb(100%,100%,100%);fill-opacity:1;" d="M 5.332031 13.332031 L 5.332031 14.621094 C 5.332031 14.75 5.257812 14.867188 5.140625 14.921875 C 5.023438 14.980469 4.886719 14.960938 4.785156 14.878906 L 2.039062 12.589844 C 1.933594 12.5 1.890625 12.351562 1.941406 12.21875 C 1.988281 12.085938 2.113281 12 2.253906 12 L 12 12 C 12.738281 12 13.332031 11.402344 13.332031 10.667969 L 13.332031 5.332031 L 14.667969 5.332031 L 14.667969 10.667969 C 14.667969 12.140625 13.472656 13.332031 12 13.332031 Z M 10.667969 2.667969 L 10.667969 1.378906 C 10.667969 1.25 10.742188 1.132812 10.859375 1.078125 C 10.976562 1.019531 11.113281 1.039062 11.214844 1.121094 L 13.960938 3.410156 C 14.066406 3.5 14.109375 3.648438 14.058594 3.78125 C 14.011719 3.914062 13.886719 4 13.746094 4 L 4 4 C 3.261719 4 2.667969 4.597656 2.667969 5.332031 L 2.667969 10.667969 L 1.332031 10.667969 L 1.332031 5.332031 C 1.332031 3.859375 2.527344 2.667969 4 2.667969 Z M 10.667969 2.667969 "/>
</g>
</svg>
