<?xml version="1.0" encoding="UTF-8"?>
<svg xmlns="http://www.w3.org/2000/svg" xmlns:xlink="http://www.w3.org/1999/xlink" width="16" height="16" viewBox="0 0 16 16" version="1.1">
<g id="surface1">
<path style=" stroke:none;fill-rule:nonzero;fill:rgb(100%,100%,100%);fill-opacity:1;" d="M 9.511719 8.097656 L 8.941406 8.667969 L 13.65625 13.378906 L 12.714844 14.324219 L 8 9.609375 L 3.285156 14.324219 L 2.34375 13.378906 L 8.570312 7.15625 C 8.175781 6.183594 8.582031 4.785156 9.648438 3.714844 C 10.953125 2.414062 12.746094 2.097656 13.65625 3.011719 C 14.566406 3.921875 14.25 5.714844 12.949219 7.015625 C 11.882812 8.085938 10.484375 8.488281 9.511719 8.097656 Z M 2.816406 2.539062 L 7.292969 7.015625 L 5.40625 8.902344 L 2.8125 6.308594 C 1.773438 5.269531 1.773438 3.578125 2.8125 2.539062 Z M 12.007812 6.074219 C 12.84375 5.234375 13.019531 4.257812 12.714844 3.953125 C 12.410156 3.648438 11.429688 3.820312 10.59375 4.660156 C 9.753906 5.496094 9.582031 6.476562 9.886719 6.78125 C 10.1875 7.085938 11.167969 6.910156 12.007812 6.074219 Z M 12.007812 6.074219 "/>
</g>
</svg>
