<?xml version="1.0" encoding="UTF-8"?>
<svg xmlns="http://www.w3.org/2000/svg" xmlns:xlink="http://www.w3.org/1999/xlink" width="16" height="16" viewBox="0 0 16 16" version="1.1">
<g id="surface1">
<path style=" stroke:none;fill-rule:nonzero;fill:rgb(100%,100%,100%);fill-opacity:1;" d="M 2.667969 10 L 2.667969 5.667969 C 2.667969 4.011719 4.011719 2.667969 5.667969 2.667969 C 7.324219 2.667969 8.667969 4.011719 8.667969 5.667969 L 8.667969 10.332031 C 8.667969 11.253906 9.414062 12 10.332031 12 C 11.253906 12 12 11.253906 12 10.332031 L 12 5.886719 C 11.082031 5.5625 10.53125 4.621094 10.695312 3.664062 C 10.859375 2.703125 11.691406 2 12.667969 2 C 13.640625 2 14.472656 2.703125 14.636719 3.664062 C 14.804688 4.621094 14.253906 5.5625 13.332031 5.886719 L 13.332031 10.332031 C 13.332031 11.988281 11.988281 13.332031 10.332031 13.332031 C 8.675781 13.332031 7.332031 11.988281 7.332031 10.332031 L 7.332031 5.667969 C 7.332031 4.746094 6.585938 4 5.667969 4 C 4.746094 4 4 4.746094 4 5.667969 L 4 10 L 6 10 L 3.332031 13.332031 L 0.667969 10 Z M 12.667969 4.667969 C 13.035156 4.667969 13.332031 4.367188 13.332031 4 C 13.332031 3.632812 13.035156 3.332031 12.667969 3.332031 C 12.296875 3.332031 12 3.632812 12 4 C 12 4.367188 12.296875 4.667969 12.667969 4.667969 Z M 12.667969 4.667969 "/>
</g>
</svg>
