<?xml version="1.0" encoding="UTF-8"?>
<svg xmlns="http://www.w3.org/2000/svg" xmlns:xlink="http://www.w3.org/1999/xlink" width="16" height="16" viewBox="0 0 16 16" version="1.1">
<g id="surface1">
<path style=" stroke:none;fill-rule:nonzero;fill:rgb(100%,100%,100%);fill-opacity:1;" d="M 3.285156 8.804688 L 4.699219 10.21875 L 5.644531 9.277344 L 4.230469 7.863281 L 5.644531 6.449219 L 7.527344 8.332031 L 8.472656 7.390625 L 6.585938 5.503906 L 8 4.089844 L 9.414062 5.503906 L 10.355469 4.5625 L 8.941406 3.148438 L 10.828125 1.261719 C 11.089844 1 11.511719 1 11.769531 1.261719 L 15.070312 4.5625 C 15.332031 4.824219 15.332031 5.246094 15.070312 5.503906 L 5.171875 15.40625 C 4.910156 15.664062 4.488281 15.664062 4.230469 15.40625 L 0.929688 12.105469 C 0.667969 11.84375 0.667969 11.421875 0.929688 11.160156 Z M 3.285156 8.804688 "/>
</g>
</svg>
