<?xml version="1.0" encoding="UTF-8"?>
<svg xmlns="http://www.w3.org/2000/svg" xmlns:xlink="http://www.w3.org/1999/xlink" width="16" height="16" viewBox="0 0 16 16" version="1.1">
<g id="surface1">
<path style=" stroke:none;fill-rule:nonzero;fill:rgb(100%,100%,100%);fill-opacity:1;" d="M 0.5 1 C 0.222656 1 -0.00390625 1.226562 -0.00390625 1.503906 L -0.00390625 14.496094 C -0.00390625 14.773438 0.222656 15 0.5 15 L 15.5 15 C 15.777344 15 16.003906 14.773438 16 14.496094 L 16 1.503906 C 16.003906 1.226562 15.777344 1 15.5 1 Z M 0.992188 2.007812 L 15 2.007812 L 15 14 L 0.992188 14 Z M 0.992188 2.007812 "/>
<path style=" stroke:none;fill-rule:nonzero;fill:rgb(100%,100%,100%);fill-opacity:1;" d="M 5.210938 12.359375 L 5.210938 10.609375 L 2.773438 10.609375 L 2.773438 9.15625 L 5.355469 3.640625 L 6.3125 3.640625 L 6.3125 9.148438 L 7.046875 9.148438 L 7.046875 10.609375 L 6.3125 10.609375 L 6.3125 12.359375 Z M 5.210938 9.148438 L 5.210938 6.179688 L 3.84375 9.148438 Z M 5.210938 9.148438 "/>
<path style=" stroke:none;fill-rule:nonzero;fill:rgb(100%,100%,100%);fill-opacity:1;" d="M 7.863281 12.359375 L 7.863281 3.679688 L 9.0625 3.679688 L 9.0625 7.53125 L 11.488281 3.679688 L 13.101562 3.679688 L 10.863281 7.058594 L 13.226562 12.359375 L 11.671875 12.359375 L 10.039062 8.285156 L 9.0625 9.734375 L 9.0625 12.359375 Z M 7.863281 12.359375 "/>
</g>
</svg>
