<?xml version="1.0" encoding="UTF-8"?>
<svg xmlns="http://www.w3.org/2000/svg" xmlns:xlink="http://www.w3.org/1999/xlink" width="16" height="16" viewBox="0 0 16 16" version="1.1">
<g id="surface1">
<path style=" stroke:none;fill-rule:nonzero;fill:rgb(100%,100%,100%);fill-opacity:1;" d="M 0.5 1 C 0.222656 1 -0.00390625 1.226562 -0.00390625 1.503906 L -0.00390625 14.496094 C -0.00390625 14.773438 0.222656 15 0.5 15 L 15.5 15 C 15.777344 15 16.003906 14.773438 16 14.496094 L 16 1.503906 C 16.003906 1.226562 15.777344 1 15.5 1 Z M 0.992188 2.007812 L 15 2.007812 L 15 14 L 0.992188 14 Z M 0.992188 2.007812 "/>
<path style=" stroke:none;fill-rule:nonzero;fill:rgb(100%,100%,100%);fill-opacity:1;" d="M 8.171875 12.359375 L 6.867188 12.359375 L 6.347656 10.386719 L 3.972656 10.386719 L 3.484375 12.359375 L 2.210938 12.359375 L 4.523438 3.679688 L 5.792969 3.679688 Z M 5.960938 8.921875 L 5.144531 5.703125 L 4.34375 8.921875 Z M 5.960938 8.921875 "/>
<path style=" stroke:none;fill-rule:nonzero;fill:rgb(100%,100%,100%);fill-opacity:1;" d="M 8.808594 3.679688 L 11 3.679688 C 11.496094 3.679688 11.875 3.734375 12.132812 3.84375 C 12.484375 3.992188 12.78125 4.257812 13.03125 4.640625 C 13.277344 5.023438 13.46875 5.496094 13.59375 6.054688 C 13.726562 6.605469 13.789062 7.289062 13.789062 8.101562 C 13.789062 8.8125 13.730469 9.429688 13.609375 9.945312 C 13.460938 10.578125 13.25 11.09375 12.972656 11.484375 C 12.765625 11.777344 12.484375 12.007812 12.128906 12.171875 C 11.863281 12.296875 11.507812 12.359375 11.066406 12.359375 L 8.808594 12.359375 Z M 10.007812 5.148438 L 10.007812 10.898438 L 10.90625 10.898438 C 11.242188 10.898438 11.484375 10.867188 11.632812 10.8125 C 11.824219 10.742188 11.984375 10.621094 12.113281 10.453125 C 12.242188 10.28125 12.347656 10.003906 12.429688 9.617188 C 12.507812 9.226562 12.550781 8.695312 12.550781 8.023438 C 12.550781 7.351562 12.507812 6.835938 12.429688 6.476562 C 12.347656 6.117188 12.234375 5.835938 12.085938 5.636719 C 11.945312 5.4375 11.757812 5.296875 11.53125 5.226562 C 11.367188 5.171875 11.039062 5.148438 10.546875 5.148438 Z M 10.007812 5.148438 "/>
</g>
</svg>
