<?xml version="1.0" encoding="UTF-8"?>
<svg xmlns="http://www.w3.org/2000/svg" xmlns:xlink="http://www.w3.org/1999/xlink" width="16" height="16" viewBox="0 0 16 16" version="1.1">
<g id="surface1">
<path style=" stroke:none;fill-rule:nonzero;fill:rgb(100%,100%,100%);fill-opacity:1;" d="M 8.667969 1.332031 L 8.667969 2 L 13.332031 2 L 13.332031 3.332031 L 8.667969 3.332031 L 8.667969 12.667969 L 11.332031 12.667969 L 11.332031 14 L 4.667969 14 L 4.667969 12.667969 L 7.332031 12.667969 L 7.332031 3.332031 L 2.667969 3.332031 L 2.667969 2 L 7.332031 2 L 7.332031 1.332031 Z M 3.332031 4.230469 L 5.21875 6.113281 C 5.703125 6.597656 6 7.261719 6 8 C 6 9.472656 4.808594 10.667969 3.332031 10.667969 C 1.859375 10.667969 0.667969 9.472656 0.667969 8 C 0.667969 7.261719 0.964844 6.597656 1.449219 6.113281 Z M 12.667969 4.230469 L 14.550781 6.113281 C 15.035156 6.597656 15.332031 7.261719 15.332031 8 C 15.332031 9.472656 14.140625 10.667969 12.667969 10.667969 C 11.191406 10.667969 10 9.472656 10 8 C 10 7.261719 10.296875 6.597656 10.78125 6.113281 Z M 12.667969 6.113281 L 11.722656 7.058594 C 11.476562 7.308594 11.332031 7.640625 11.332031 8 L 14 8 C 14 7.640625 13.859375 7.308594 13.609375 7.058594 Z M 3.332031 6.113281 L 2.390625 7.058594 C 2.140625 7.308594 2 7.640625 2 8 L 4.667969 8 C 4.667969 7.640625 4.523438 7.308594 4.277344 7.058594 Z M 3.332031 6.113281 "/>
</g>
</svg>
