<?xml version="1.0" encoding="UTF-8"?>
<svg xmlns="http://www.w3.org/2000/svg" xmlns:xlink="http://www.w3.org/1999/xlink" width="16" height="16" viewBox="0 0 16 16" version="1.1">
<g id="surface1">
<path style=" stroke:none;fill-rule:nonzero;fill:rgb(100%,100%,100%);fill-opacity:1;" d="M 3.597656 1 C 3.34375 1 3.125 1.179688 3.070312 1.433594 C 3 1.734375 3.1875 2.035156 3.476562 2.101562 L 7.226562 3.007812 C 7.273438 3.144531 7.335938 3.28125 7.4375 3.394531 C 7.460938 3.414062 7.488281 3.421875 7.511719 3.441406 L 7.511719 14.878906 L 2.921875 14.878906 C 2.78125 14.878906 2.640625 14.9375 2.539062 15.042969 C 2.4375 15.148438 2.382812 15.292969 2.382812 15.441406 C 2.382812 15.75 2.625 15.996094 2.921875 15.996094 L 13.011719 15.996094 C 13.3125 16 13.554688 15.75 13.554688 15.441406 C 13.554688 15.289062 13.5 15.148438 13.398438 15.042969 C 13.296875 14.9375 13.15625 14.878906 13.011719 14.878906 L 8.59375 14.878906 L 8.59375 3.5 C 8.652344 3.46875 8.710938 3.425781 8.757812 3.375 L 12.339844 4.242188 C 12.480469 4.273438 12.632812 4.25 12.753906 4.171875 C 12.875 4.09375 12.964844 3.960938 12.996094 3.816406 C 13.0625 3.515625 12.878906 3.214844 12.585938 3.148438 L 8.945312 2.269531 C 8.796875 1.941406 8.476562 1.71875 8.09375 1.707031 C 7.859375 1.703125 7.667969 1.789062 7.515625 1.921875 L 3.71875 1.007812 C 3.679688 1 3.636719 1 3.597656 1 Z M 3.597656 1 "/>
<path style=" stroke:none;fill-rule:nonzero;fill:rgb(100%,100%,100%);fill-opacity:1;" d="M 12.933594 4.726562 C 12.722656 4.738281 12.53125 4.859375 12.429688 5.054688 L 10 9.390625 C 9.960938 9.464844 9.933594 9.550781 9.925781 9.636719 L 9.914062 9.636719 L 9.914062 10.167969 C 9.914062 11.222656 10.515625 12.1875 11.453125 12.695312 C 12.386719 13.203125 13.519531 13.203125 14.453125 12.695312 C 15.390625 12.1875 15.992188 11.222656 15.992188 10.167969 L 15.992188 9.820312 C 16.015625 9.671875 15.992188 9.519531 15.917969 9.390625 L 13.492188 5.054688 C 13.378906 4.84375 13.164062 4.71875 12.933594 4.726562 Z M 12.964844 6.632812 L 14.324219 9.074219 L 11.59375 9.074219 Z M 12.964844 6.632812 "/>
<path style=" stroke:none;fill-rule:nonzero;fill:rgb(100%,100%,100%);fill-opacity:1;" d="M 3.019531 2.59375 C 2.808594 2.601562 2.617188 2.726562 2.515625 2.914062 L 0.0859375 7.253906 C 0.046875 7.328125 0.0195312 7.414062 0.0078125 7.5 L 0 7.5 L 0 8.03125 C 0 9.085938 0.601562 10.046875 1.539062 10.554688 C 2.472656 11.0625 3.605469 11.0625 4.539062 10.554688 C 5.476562 10.046875 6.074219 9.085938 6.074219 8.03125 L 6.074219 7.6875 C 6.101562 7.539062 6.078125 7.382812 6.003906 7.253906 L 3.578125 2.914062 C 3.464844 2.710938 3.25 2.585938 3.015625 2.59375 Z M 3.050781 4.5 L 4.410156 6.9375 L 1.679688 6.9375 Z M 3.050781 4.5 "/>
</g>
</svg>
