<?xml version="1.0" encoding="UTF-8"?>
<svg xmlns="http://www.w3.org/2000/svg" xmlns:xlink="http://www.w3.org/1999/xlink" width="16" height="16" viewBox="0 0 16 16" version="1.1">
<g id="surface1">
<path style=" stroke:none;fill-rule:nonzero;fill:rgb(100%,100%,100%);fill-opacity:1;" d="M 4 1.332031 C 4 1.675781 4.328125 2 4.667969 2 L 11.332031 2 C 11.675781 2 12 1.671875 12 1.332031 L 13.332031 1.332031 C 13.332031 2.4375 12.4375 3.332031 11.332031 3.332031 L 8.667969 3.332031 L 8.667969 4.707031 C 11.296875 5.035156 13.332031 7.28125 13.332031 10 L 13.332031 14 C 13.332031 14.367188 13.035156 14.667969 12.667969 14.667969 L 3.332031 14.667969 C 2.964844 14.667969 2.667969 14.367188 2.667969 14 L 2.667969 10 C 2.667969 7.28125 4.703125 5.035156 7.332031 4.707031 L 7.332031 3.332031 L 4.667969 3.332031 C 3.558594 3.332031 2.667969 2.441406 2.667969 1.332031 Z M 8 6 C 5.839844 6 4 7.839844 4 10 L 4 13.332031 L 12 13.332031 L 12 10 C 12 7.839844 10.160156 6 8 6 Z M 8 7.332031 C 8.496094 7.332031 8.957031 7.46875 9.355469 7.703125 L 7.527344 9.527344 C 7.269531 9.789062 7.269531 10.210938 7.527344 10.472656 C 7.769531 10.710938 8.148438 10.730469 8.40625 10.527344 L 8.472656 10.472656 L 10.296875 8.644531 C 10.53125 9.042969 10.667969 9.503906 10.667969 10 C 10.667969 11.472656 9.472656 12.667969 8 12.667969 C 6.527344 12.667969 5.332031 11.472656 5.332031 10 C 5.332031 8.527344 6.527344 7.332031 8 7.332031 Z M 8 7.332031 "/>
</g>
</svg>
