<?xml version="1.0" encoding="UTF-8"?>
<svg xmlns="http://www.w3.org/2000/svg" xmlns:xlink="http://www.w3.org/1999/xlink" width="16" height="16" viewBox="0 0 16 16" version="1.1">
<g id="surface1">
<path style=" stroke:none;fill-rule:nonzero;fill:rgb(100%,100%,100%);fill-opacity:1;" d="M 6.457031 5.042969 L 8 6.585938 L 12.25 2.335938 C 12.769531 1.816406 13.613281 1.816406 14.136719 2.335938 L 14.605469 2.808594 L 6.457031 10.957031 C 6.953125 12.132812 6.550781 13.496094 5.492188 14.210938 C 4.433594 14.925781 3.015625 14.789062 2.113281 13.886719 C 1.210938 12.984375 1.074219 11.566406 1.789062 10.507812 C 2.503906 9.449219 3.867188 9.046875 5.042969 9.542969 L 6.585938 8 L 5.042969 6.457031 C 3.867188 6.953125 2.503906 6.550781 1.789062 5.492188 C 1.074219 4.433594 1.210938 3.015625 2.113281 2.113281 C 3.015625 1.210938 4.433594 1.074219 5.492188 1.789062 C 6.550781 2.503906 6.953125 3.867188 6.457031 5.042969 Z M 4 5.332031 C 4.738281 5.332031 5.332031 4.738281 5.332031 4 C 5.332031 3.261719 4.738281 2.667969 4 2.667969 C 3.261719 2.667969 2.667969 3.261719 2.667969 4 C 2.667969 4.738281 3.261719 5.332031 4 5.332031 Z M 4 13.332031 C 4.738281 13.332031 5.332031 12.738281 5.332031 12 C 5.332031 11.261719 4.738281 10.667969 4 10.667969 C 3.261719 10.667969 2.667969 11.261719 2.667969 12 C 2.667969 12.738281 3.261719 13.332031 4 13.332031 Z M 10.355469 8.941406 L 14.605469 13.191406 L 14.136719 13.664062 C 13.613281 14.183594 12.769531 14.183594 12.25 13.664062 L 8.941406 10.355469 Z M 10.355469 8.941406 "/>
</g>
</svg>
