<?xml version="1.0" encoding="UTF-8"?>
<svg xmlns="http://www.w3.org/2000/svg" xmlns:xlink="http://www.w3.org/1999/xlink" width="16" height="16" viewBox="0 0 16 16" version="1.1">
<g id="surface1">
<path style=" stroke:none;fill-rule:nonzero;fill:rgb(100%,100%,100%);fill-opacity:1;" d="M 12.019531 11.078125 L 14.875 13.933594 L 13.933594 14.875 L 11.078125 12.019531 C 10.015625 12.871094 8.695312 13.335938 7.332031 13.332031 C 4.019531 13.332031 1.332031 10.644531 1.332031 7.332031 C 1.332031 4.019531 4.019531 1.332031 7.332031 1.332031 C 10.644531 1.332031 13.332031 4.019531 13.332031 7.332031 C 13.335938 8.695312 12.871094 10.015625 12.019531 11.078125 Z M 8.117188 4.785156 C 6.949219 4.425781 5.683594 4.90625 5.050781 5.957031 C 4.417969 7.007812 4.582031 8.351562 5.449219 9.21875 C 6.316406 10.085938 7.660156 10.25 8.710938 9.617188 C 9.757812 8.984375 10.242188 7.71875 9.882812 6.546875 C 9.636719 7.089844 9.066406 7.402344 8.480469 7.320312 C 7.890625 7.234375 7.429688 6.773438 7.347656 6.1875 C 7.265625 5.601562 7.578125 5.027344 8.117188 4.785156 Z M 8.117188 4.785156 "/>
</g>
</svg>
