<?xml version="1.0" encoding="UTF-8"?>
<svg xmlns="http://www.w3.org/2000/svg" xmlns:xlink="http://www.w3.org/1999/xlink" width="16" height="16" viewBox="0 0 16 16" version="1.1">
<g id="surface1">
<path style=" stroke:none;fill-rule:nonzero;fill:rgb(100%,100%,100%);fill-opacity:1;" d="M 4 2 C 6.328125 2 8.253906 3.703125 8.609375 5.929688 C 9.390625 5.148438 10.472656 4.667969 11.667969 4.667969 L 14.667969 4.667969 L 14.667969 6.332031 C 14.667969 8.726562 12.726562 10.667969 10.332031 10.667969 L 8.667969 10.667969 L 8.667969 14 L 7.332031 14 L 7.332031 8.667969 L 6 8.667969 C 3.421875 8.667969 1.332031 6.578125 1.332031 4 L 1.332031 2 Z M 13.332031 6 L 11.667969 6 C 10.011719 6 8.667969 7.34375 8.667969 9 L 8.667969 9.332031 L 10.332031 9.332031 C 11.988281 9.332031 13.332031 7.988281 13.332031 6.332031 Z M 4 3.332031 L 2.667969 3.332031 L 2.667969 4 C 2.667969 5.839844 4.160156 7.332031 6 7.332031 L 7.332031 7.332031 L 7.332031 6.667969 C 7.332031 4.824219 5.839844 3.332031 4 3.332031 Z M 4 3.332031 "/>
</g>
</svg>
