<?xml version="1.0" encoding="UTF-8"?>
<svg xmlns="http://www.w3.org/2000/svg" xmlns:xlink="http://www.w3.org/1999/xlink" width="16" height="16" viewBox="0 0 16 16" version="1.1">
<g id="surface1">
<path style=" stroke:none;fill-rule:evenodd;fill:rgb(100%,100%,100%);fill-opacity:1;" d="M 4 1 C 2.335938 1 1 2.335938 1 4 L 1 12 C 1 13.664062 2.335938 15 4 15 L 12 15 C 13.664062 15 15 13.664062 15 12 L 15 4 C 15 2.335938 13.664062 1 12 1 Z M 3 3 L 4 3 L 4 7 L 3 7 Z M 5 3 L 6 3 L 6 7 L 5 7 Z M 7 3 L 8 3 L 8 7 L 7 7 Z M 7 3 "/>
</g>
</svg>
