<?xml version="1.0" encoding="UTF-8"?>
<svg xmlns="http://www.w3.org/2000/svg" xmlns:xlink="http://www.w3.org/1999/xlink" width="16" height="16" viewBox="0 0 16 16" version="1.1">
<g id="surface1">
<path style=" stroke:none;fill-rule:nonzero;fill:rgb(100%,100%,100%);fill-opacity:1;" d="M 6 2 L 6 3.332031 L 2.667969 3.332031 L 2.667969 12.667969 L 13.332031 12.667969 L 13.332031 6.667969 L 14.667969 6.667969 L 14.667969 13.332031 C 14.667969 13.703125 14.367188 14 14 14 L 2 14 C 1.632812 14 1.332031 13.703125 1.332031 13.332031 L 1.332031 2.667969 C 1.332031 2.296875 1.632812 2 2 2 Z M 10.667969 3.332031 L 10.667969 0.667969 L 15.332031 4.667969 L 9.332031 4.667969 C 8.597656 4.667969 8 5.261719 8 6 L 8 10 L 6.667969 10 L 6.667969 6 C 6.667969 4.527344 7.859375 3.332031 9.332031 3.332031 Z M 10.667969 3.332031 "/>
</g>
</svg>
