<?xml version="1.0" encoding="UTF-8"?>
<svg xmlns="http://www.w3.org/2000/svg" xmlns:xlink="http://www.w3.org/1999/xlink" width="16" height="16" viewBox="0 0 16 16" version="1.1">
<g id="surface1">
<path style=" stroke:none;fill-rule:nonzero;fill:rgb(100%,100%,100%);fill-opacity:1;" d="M 2.523438 1.882812 L 8 0.667969 L 13.476562 1.882812 C 13.78125 1.953125 14 2.222656 14 2.535156 L 14 9.191406 C 14 10.53125 13.332031 11.777344 12.21875 12.519531 L 8 15.332031 L 3.78125 12.519531 C 2.667969 11.777344 2 10.53125 2 9.191406 L 2 2.535156 C 2 2.222656 2.21875 1.953125 2.523438 1.882812 Z M 3.332031 3.070312 L 3.332031 9.191406 C 3.332031 10.085938 3.777344 10.917969 4.519531 11.410156 L 8 13.730469 L 11.480469 11.410156 C 12.222656 10.917969 12.667969 10.085938 12.667969 9.191406 L 12.667969 3.070312 L 8 2.035156 Z M 8 7.332031 C 7.078125 7.332031 6.332031 6.585938 6.332031 5.667969 C 6.332031 4.746094 7.078125 4 8 4 C 8.921875 4 9.667969 4.746094 9.667969 5.667969 C 9.667969 6.585938 8.921875 7.332031 8 7.332031 Z M 5.019531 10.667969 C 5.183594 9.144531 6.46875 7.996094 8 7.996094 C 9.53125 7.996094 10.816406 9.144531 10.980469 10.667969 Z M 5.019531 10.667969 "/>
</g>
</svg>
