<?xml version="1.0" encoding="UTF-8"?>
<svg xmlns="http://www.w3.org/2000/svg" xmlns:xlink="http://www.w3.org/1999/xlink" width="16" height="16" viewBox="0 0 16 16" version="1.1">
<g id="surface1">
<path style=" stroke:none;fill-rule:nonzero;fill:rgb(100%,100%,100%);fill-opacity:1;" d="M 3.332031 11.285156 C 1.304688 10.113281 0.28125 7.757812 0.804688 5.476562 C 1.328125 3.195312 3.277344 1.519531 5.613281 1.351562 C 7.949219 1.179688 10.121094 2.550781 10.972656 4.734375 C 12.90625 4.351562 14.792969 5.566406 15.25 7.480469 C 15.707031 9.398438 14.566406 11.332031 12.667969 11.863281 L 12.667969 10.441406 C 13.507812 10.042969 14.03125 9.179688 14 8.246094 C 13.964844 7.316406 13.378906 6.496094 12.507812 6.15625 C 11.640625 5.820312 10.652344 6.035156 10 6.699219 L 10 6.667969 C 10 4.828125 8.746094 3.226562 6.964844 2.785156 C 5.179688 2.339844 3.324219 3.171875 2.464844 4.796875 C 1.605469 6.421875 1.964844 8.421875 3.332031 9.648438 Z M 4.667969 10.667969 L 6 10.667969 L 6 13.332031 L 4.667969 13.332031 Z M 10 10.667969 L 11.332031 10.667969 L 11.332031 13.332031 L 10 13.332031 Z M 7.332031 12.667969 L 8.667969 12.667969 L 8.667969 15.332031 L 7.332031 15.332031 Z M 7.332031 12.667969 "/>
</g>
</svg>
