<?xml version="1.0" encoding="UTF-8"?>
<svg xmlns="http://www.w3.org/2000/svg" xmlns:xlink="http://www.w3.org/1999/xlink" width="16" height="16" viewBox="0 0 16 16" version="1.1">
<g id="surface1">
<path style=" stroke:none;fill-rule:evenodd;fill:rgb(100%,100%,100%);fill-opacity:1;" d="M 4 0 C 2.890625 0 2 0.890625 2 2 L 2 14 C 2 15.109375 2.890625 16 4 16 L 12 16 C 13.109375 16 14 15.109375 14 14 L 14 5 L 9 0 Z M 5 6 L 6 6 L 6 8 L 4 8 L 4 7 C 4 6.445312 4.445312 6 5 6 Z M 7 6 L 9 6 L 9 8 L 7 8 Z M 10 6 L 11 6 C 11.554688 6 12 6.445312 12 7 L 12 8 L 10 8 Z M 4 9 L 12 9 L 12 11 L 4 11 Z M 4 12 L 6 12 L 6 14 L 5 14 C 4.445312 14 4 13.554688 4 13 Z M 7 12 L 9 12 L 9 14 L 7 14 Z M 10 12 L 12 12 L 12 13 C 12 13.554688 11.554688 14 11 14 L 10 14 Z M 10 12 "/>
</g>
</svg>
