<?xml version="1.0" encoding="UTF-8"?>
<svg xmlns="http://www.w3.org/2000/svg" xmlns:xlink="http://www.w3.org/1999/xlink" width="16" height="16" viewBox="0 0 16 16" version="1.1">
<g id="surface1">
<path style=" stroke:none;fill-rule:evenodd;fill:rgb(100%,100%,100%);fill-opacity:1;" d="M 9.5 1.625 C 8.195312 1.625 7 2.847656 7 4.5 L 7 8 L 4 8 L 4 7 L 5 7 L 5 6 L 2 6 L 2 8 L 1 8 C 0.445312 8 0 8.445312 0 9 L 0 10 C 0 10.554688 0.445312 11 1 11 L 1 14 C 1 14.554688 1.445312 15 2 15 L 14 15 C 14.554688 15 15 14.554688 15 14 L 15 11 C 15.554688 11 16 10.554688 16 10 L 16 9 C 16 8.445312 15.554688 8 15 8 L 14 8 L 14 6 L 11 6 L 11 7 L 12 7 L 12 8 L 9 8 L 9 4.5 C 9 3.648438 9.304688 3.628906 9.5 3.628906 C 9.695312 3.628906 10 3.648438 10 4.5 L 12.003906 4.5 C 12.003906 2.847656 10.804688 1.625 9.5 1.625 Z M 9.5 1.625 "/>
</g>
</svg>
