<?xml version="1.0" encoding="UTF-8"?>
<svg xmlns="http://www.w3.org/2000/svg" xmlns:xlink="http://www.w3.org/1999/xlink" width="16" height="16" viewBox="0 0 16 16" version="1.1">
<g id="surface1">
<path style=" stroke:none;fill-rule:nonzero;fill:rgb(100%,100%,100%);fill-opacity:1;" d="M 7.914062 14.507812 C 7.121094 14.507812 6.589844 14.136719 6.117188 13.804688 C 5.785156 13.566406 5.46875 13.339844 5.097656 13.277344 C 4.917969 13.25 4.742188 13.234375 4.5625 13.234375 C 4.246094 13.234375 3.996094 13.28125 3.820312 13.316406 C 3.707031 13.339844 3.609375 13.355469 3.535156 13.355469 C 3.457031 13.355469 3.359375 13.335938 3.324219 13.203125 C 3.289062 13.097656 3.269531 12.996094 3.246094 12.898438 C 3.195312 12.652344 3.148438 12.5 3.058594 12.484375 C 2.066406 12.335938 1.46875 12.105469 1.355469 11.835938 C 1.34375 11.804688 1.335938 11.773438 1.335938 11.75 C 1.328125 11.667969 1.386719 11.601562 1.46875 11.585938 C 2.257812 11.453125 2.964844 11.035156 3.5625 10.347656 C 4.027344 9.8125 4.253906 9.292969 4.273438 9.238281 C 4.273438 9.230469 4.28125 9.230469 4.28125 9.230469 C 4.394531 8.996094 4.414062 8.796875 4.347656 8.632812 C 4.21875 8.328125 3.796875 8.195312 3.507812 8.105469 C 3.433594 8.085938 3.371094 8.0625 3.320312 8.046875 C 3.074219 7.949219 2.660156 7.738281 2.714844 7.449219 C 2.753906 7.242188 3.03125 7.09375 3.257812 7.09375 C 3.320312 7.09375 3.371094 7.101562 3.417969 7.128906 C 3.671875 7.242188 3.898438 7.300781 4.09375 7.300781 C 4.339844 7.300781 4.453125 7.210938 4.484375 7.179688 C 4.476562 7.046875 4.46875 6.917969 4.460938 6.785156 C 4.402344 5.875 4.332031 4.746094 4.621094 4.097656 C 5.484375 2.160156 7.324219 2.003906 7.867188 2.003906 L 8.105469 2 L 8.136719 2 C 8.679688 2 10.515625 2.152344 11.382812 4.09375 C 11.675781 4.738281 11.601562 5.871094 11.542969 6.78125 L 11.539062 6.824219 C 11.53125 6.945312 11.523438 7.0625 11.515625 7.179688 C 11.546875 7.203125 11.652344 7.292969 11.871094 7.296875 C 12.0625 7.289062 12.269531 7.226562 12.507812 7.121094 C 12.574219 7.09375 12.644531 7.078125 12.714844 7.078125 C 12.800781 7.078125 12.882812 7.097656 12.953125 7.121094 L 12.960938 7.121094 C 13.160156 7.195312 13.289062 7.335938 13.289062 7.480469 C 13.296875 7.617188 13.1875 7.824219 12.679688 8.03125 C 12.628906 8.050781 12.566406 8.074219 12.492188 8.09375 C 12.207031 8.179688 11.785156 8.316406 11.652344 8.621094 C 11.578125 8.78125 11.609375 8.984375 11.722656 9.214844 C 11.722656 9.222656 11.726562 9.222656 11.726562 9.222656 C 11.761719 9.304688 12.617188 11.253906 14.53125 11.574219 C 14.609375 11.585938 14.667969 11.65625 14.667969 11.738281 C 14.667969 11.769531 14.660156 11.800781 14.644531 11.824219 C 14.53125 12.097656 13.941406 12.320312 12.941406 12.476562 C 12.851562 12.492188 12.804688 12.644531 12.753906 12.890625 C 12.730469 12.992188 12.707031 13.09375 12.679688 13.195312 C 12.648438 13.292969 12.585938 13.347656 12.480469 13.347656 L 12.464844 13.347656 C 12.394531 13.347656 12.304688 13.339844 12.183594 13.316406 C 11.9375 13.261719 11.6875 13.238281 11.4375 13.238281 C 11.261719 13.238281 11.082031 13.253906 10.902344 13.28125 C 10.535156 13.34375 10.21875 13.570312 9.882812 13.808594 C 9.402344 14.136719 8.871094 14.507812 8.082031 14.507812 Z M 7.914062 14.507812 "/>
</g>
</svg>
