<?xml version="1.0" encoding="UTF-8"?>
<svg xmlns="http://www.w3.org/2000/svg" xmlns:xlink="http://www.w3.org/1999/xlink" width="16" height="16" viewBox="0 0 16 16" version="1.1">
<g id="surface1">
<path style=" stroke:none;fill-rule:nonzero;fill:rgb(100%,100%,100%);fill-opacity:1;" d="M 4.019531 11.621094 C 1.648438 10.667969 0.28125 8.167969 0.765625 5.660156 C 1.25 3.148438 3.445312 1.335938 6 1.332031 C 8.199219 1.332031 10.175781 2.683594 10.972656 4.734375 C 12.921875 4.550781 14.671875 5.929688 14.945312 7.867188 C 15.21875 9.808594 13.921875 11.621094 12 11.984375 C 11.992188 9.851562 10.3125 8.101562 8.183594 8.003906 C 6.050781 7.90625 4.21875 9.496094 4.019531 11.621094 Z M 8.667969 10.84375 L 9.976562 10.089844 L 10.644531 11.242188 L 9.332031 12 L 10.644531 12.757812 L 9.976562 13.910156 L 8.667969 13.15625 L 8.667969 14.667969 L 7.332031 14.667969 L 7.332031 13.15625 L 6.023438 13.910156 L 5.355469 12.757812 L 6.667969 12 L 5.355469 11.242188 L 6.023438 10.089844 L 7.332031 10.84375 L 7.332031 9.332031 L 8.667969 9.332031 Z M 8.667969 10.84375 "/>
</g>
</svg>
