<?xml version="1.0" encoding="UTF-8"?>
<svg xmlns="http://www.w3.org/2000/svg" xmlns:xlink="http://www.w3.org/1999/xlink" width="16" height="16" viewBox="0 0 16 16" version="1.1">
<g id="surface1">
<path style=" stroke:none;fill-rule:nonzero;fill:rgb(100%,100%,100%);fill-opacity:1;" d="M 3 16 L 1 12 L 2 12 L 2 0 L 4 0 L 4 12 L 5 12 Z M 3 16 "/>
<path style=" stroke:none;fill-rule:evenodd;fill:rgb(100%,100%,100%);fill-opacity:1;" d="M 7 6 L 14 6 C 14.554688 6 15 6.445312 15 7 L 15 14 C 15 14.554688 14.554688 15 14 15 L 7 15 C 6.445312 15 6 14.554688 6 14 L 6 7 C 6 6.445312 6.445312 6 7 6 Z M 7 6 "/>
<path style=" stroke:none;fill-rule:evenodd;fill:rgb(100%,100%,100%);fill-opacity:1;" d="M 7 1 L 9 1 C 9.554688 1 10 1.445312 10 2 L 10 4 C 10 4.554688 9.554688 5 9 5 L 7 5 C 6.445312 5 6 4.554688 6 4 L 6 2 C 6 1.445312 6.445312 1 7 1 Z M 7 1 "/>
</g>
</svg>
