<?xml version="1.0" encoding="UTF-8"?>
<svg xmlns="http://www.w3.org/2000/svg" xmlns:xlink="http://www.w3.org/1999/xlink" width="16" height="16" viewBox="0 0 16 16" version="1.1">
<g id="surface1">
<path style=" stroke:none;fill-rule:evenodd;fill:rgb(100%,100%,100%);fill-opacity:1;" d="M 10 8 C 10.074219 9.523438 8.144531 10.570312 6.90625 9.675781 C 5.585938 8.902344 5.765625 6.71875 7.195312 6.171875 C 8.460938 5.570312 10.039062 6.59375 10 8 Z M 10 8 "/>
<path style=" stroke:none;fill-rule:evenodd;fill:rgb(100%,100%,100%);fill-opacity:1;" d="M 9.371094 4.25 C 7.109375 3.351562 4.421875 4.90625 4.070312 7.3125 C 3.585938 9.695312 5.578125 12.0625 8.007812 11.992188 C 9.414062 12 10.75 11.226562 11.453125 10.007812 C 12.734375 7.9375 11.679688 5.023438 9.371094 4.25 Z M 9.015625 5.171875 C 9.027344 5.179688 9.039062 5.183594 9.046875 5.1875 C 10.710938 5.734375 11.53125 7.992188 10.601562 9.484375 C 10.601562 9.492188 10.601562 9.5 10.59375 9.507812 C 10.085938 10.40625 9.042969 11.007812 8.007812 10.996094 C 8 10.996094 7.992188 10.996094 7.984375 10.996094 C 6.230469 11.054688 4.683594 9.207031 5.046875 7.492188 C 5.046875 7.480469 5.050781 7.46875 5.054688 7.460938 C 5.300781 5.726562 7.390625 4.519531 9.015625 5.171875 Z M 9.015625 5.171875 "/>
<path style=" stroke:none;fill-rule:evenodd;fill:rgb(100%,100%,100%);fill-opacity:1;" d="M 7.363281 2.042969 C 4.292969 2.304688 1.835938 5.148438 2.011719 8.21875 C 2.058594 11.382812 4.851562 14.078125 8.015625 14 C 8.5 14 8.984375 13.9375 9.460938 13.816406 C 12.46875 13.128906 14.507812 9.96875 13.90625 6.945312 C 13.421875 3.902344 10.414062 1.65625 7.363281 2.042969 Z M 7.480469 3.023438 C 9.96875 2.699219 12.539062 4.625 12.921875 7.109375 C 12.921875 7.113281 12.921875 7.121094 12.921875 7.128906 C 13.417969 9.585938 11.679688 12.289062 9.230469 12.84375 C 9.226562 12.84375 9.21875 12.847656 9.21875 12.851562 C 8.820312 12.949219 8.40625 13 8 13 C 7.996094 13 7.992188 13 7.992188 13 C 5.421875 13.0625 3.03125 10.765625 3 8.199219 C 3 8.191406 3 8.183594 3 8.179688 C 2.851562 5.671875 4.953125 3.242188 7.453125 3.03125 C 7.460938 3.03125 7.46875 3.027344 7.480469 3.023438 Z M 7.480469 3.023438 "/>
<path style=" stroke:none;fill-rule:evenodd;fill:rgb(100%,100%,100%);fill-opacity:1;" d="M 10.507812 0.40625 C 8.753906 -0.175781 6.804688 -0.15625 5.0625 0.566406 C 1.515625 1.898438 -0.65625 5.882812 0.15625 9.578125 C 0.832031 13.246094 4.277344 16.070312 8.007812 16 C 9.96875 16.007812 11.90625 15.261719 13.359375 13.945312 L 13.367188 13.9375 C 16.214844 11.449219 16.847656 6.960938 14.796875 3.785156 L 14.789062 3.777344 C 13.820312 2.152344 12.265625 0.984375 10.507812 0.40625 Z M 10.191406 1.371094 C 11.734375 1.882812 13.109375 2.894531 13.941406 4.296875 C 13.945312 4.300781 13.945312 4.308594 13.945312 4.316406 C 15.722656 7.050781 15.15625 11.050781 12.703125 13.1875 C 12.695312 13.191406 12.695312 13.195312 12.695312 13.195312 C 11.429688 14.351562 9.710938 15.003906 8 15 C 7.996094 15 7.992188 15 7.992188 15 C 4.777344 15.058594 1.710938 12.546875 1.140625 9.390625 C 1.140625 9.382812 1.132812 9.375 1.132812 9.367188 C 0.433594 6.183594 2.359375 2.636719 5.414062 1.496094 C 5.421875 1.492188 5.421875 1.492188 5.429688 1.488281 C 6.929688 0.859375 8.648438 0.859375 10.191406 1.371094 Z M 10.191406 1.371094 "/>
</g>
</svg>
