<?xml version="1.0" encoding="UTF-8"?>
<svg xmlns="http://www.w3.org/2000/svg" xmlns:xlink="http://www.w3.org/1999/xlink" width="16" height="16" viewBox="0 0 16 16" version="1.1">
<g id="surface1">
<path style=" stroke:none;fill-rule:nonzero;fill:rgb(100%,100%,100%);fill-opacity:1;" d="M 2.667969 1.332031 L 13.332031 1.332031 C 13.703125 1.332031 14 1.632812 14 2 L 14 14 C 14 14.367188 13.703125 14.667969 13.332031 14.667969 L 2.667969 14.667969 C 2.296875 14.667969 2 14.367188 2 14 L 2 2 C 2 1.632812 2.296875 1.332031 2.667969 1.332031 Z M 8 13.332031 C 9.839844 13.332031 11.332031 11.839844 11.332031 10 C 11.332031 8.160156 9.839844 6.667969 8 6.667969 C 6.160156 6.667969 4.667969 8.160156 4.667969 10 C 4.667969 11.839844 6.160156 13.332031 8 13.332031 Z M 8 5.332031 C 8.550781 5.332031 9 4.886719 9 4.332031 C 9 3.78125 8.550781 3.332031 8 3.332031 C 7.449219 3.332031 7 3.78125 7 4.332031 C 7 4.886719 7.449219 5.332031 8 5.332031 Z M 8 12 C 6.894531 12 6 11.105469 6 10 C 6 8.894531 6.894531 8 8 8 C 9.105469 8 10 8.894531 10 10 C 10 11.105469 9.105469 12 8 12 Z M 8 12 "/>
</g>
</svg>
