<?xml version="1.0" encoding="UTF-8"?>
<svg xmlns="http://www.w3.org/2000/svg" xmlns:xlink="http://www.w3.org/1999/xlink" width="16" height="16" viewBox="0 0 16 16" version="1.1">
<g id="surface1">
<path style=" stroke:none;fill-rule:nonzero;fill:rgb(100%,100%,100%);fill-opacity:1;" d="M 3.332031 2.667969 L 3.332031 13.332031 L 12.667969 13.332031 L 12.667969 2.667969 Z M 2.667969 1.332031 L 13.332031 1.332031 C 13.703125 1.332031 14 1.632812 14 2 L 14 14 C 14 14.367188 13.703125 14.667969 13.332031 14.667969 L 2.667969 14.667969 C 2.296875 14.667969 2 14.367188 2 14 L 2 2 C 2 1.632812 2.296875 1.332031 2.667969 1.332031 Z M 8 11.332031 C 8.921875 11.332031 9.667969 10.585938 9.667969 9.667969 C 9.667969 8.746094 8.921875 8 8 8 C 7.078125 8 6.332031 8.746094 6.332031 9.667969 C 6.332031 10.585938 7.078125 11.332031 8 11.332031 Z M 8 12.667969 C 6.34375 12.667969 5 11.324219 5 9.667969 C 5 8.011719 6.34375 6.667969 8 6.667969 C 9.65625 6.667969 11 8.011719 11 9.667969 C 11 11.324219 9.65625 12.667969 8 12.667969 Z M 8 5.667969 C 7.449219 5.667969 7 5.21875 7 4.667969 C 7 4.113281 7.449219 3.667969 8 3.667969 C 8.550781 3.667969 9 4.113281 9 4.667969 C 9 5.21875 8.550781 5.667969 8 5.667969 Z M 8 5.667969 "/>
</g>
</svg>
