<?xml version="1.0" encoding="UTF-8"?>
<svg xmlns="http://www.w3.org/2000/svg" xmlns:xlink="http://www.w3.org/1999/xlink" width="16" height="16" viewBox="0 0 16 16" version="1.1">
<g id="surface1">
<path style=" stroke:none;fill-rule:nonzero;fill:rgb(100%,100%,100%);fill-opacity:1;" d="M 13.332031 2 C 13.703125 2 14 2.296875 14 2.667969 L 14 13.332031 C 14 13.703125 13.703125 14 13.332031 14 L 2.667969 14 C 2.296875 14 2 13.703125 2 13.332031 L 2 2.667969 C 2 2.296875 2.296875 2 2.667969 2 Z M 7.332031 3.332031 L 3.332031 3.332031 L 3.332031 12.667969 L 7.332031 12.667969 L 7.332031 10 L 8.667969 10 L 8.667969 12.667969 L 12.667969 12.667969 L 12.667969 3.332031 L 8.667969 3.332031 L 8.667969 6 L 7.332031 6 Z M 10 6 L 12 8 L 10 10 L 10 8.667969 L 6 8.667969 L 6 10 L 4 8 L 6 6 L 6 7.332031 L 10 7.332031 Z M 10 6 "/>
</g>
</svg>
