<?xml version="1.0" encoding="UTF-8"?>
<svg xmlns="http://www.w3.org/2000/svg" xmlns:xlink="http://www.w3.org/1999/xlink" width="16" height="16" viewBox="0 0 16 16" version="1.1">
<g id="surface1">
<path style=" stroke:none;fill-rule:nonzero;fill:rgb(100%,100%,100%);fill-opacity:1;" d="M 11.332031 8.667969 C 12.804688 8.667969 14 9.859375 14 11.332031 C 14 12.804688 12.804688 14 11.332031 14 C 9.859375 14 8.667969 12.804688 8.667969 11.332031 L 7.332031 11.332031 C 7.332031 12.671875 6.339844 13.800781 5.011719 13.976562 C 3.6875 14.152344 2.4375 13.3125 2.089844 12.019531 C 1.746094 10.730469 2.410156 9.378906 3.648438 8.867188 C 4.882812 8.355469 6.308594 8.839844 6.976562 10 L 9.023438 10 C 9.5 9.175781 10.378906 8.667969 11.332031 8.667969 Z M 4.667969 10 C 3.929688 10 3.332031 10.597656 3.332031 11.332031 C 3.332031 12.070312 3.929688 12.667969 4.667969 12.667969 C 5.402344 12.667969 6 12.070312 6 11.332031 C 6 10.597656 5.402344 10 4.667969 10 Z M 11.332031 10 C 10.597656 10 10 10.597656 10 11.332031 C 10 12.070312 10.597656 12.667969 11.332031 12.667969 C 12.070312 12.667969 12.667969 12.070312 12.667969 11.332031 C 12.667969 10.597656 12.070312 10 11.332031 10 Z M 10.667969 2 C 12.140625 2 13.332031 3.195312 13.332031 4.667969 L 13.332031 6.667969 L 14.667969 6.667969 L 14.667969 8 L 1.332031 8 L 1.332031 6.667969 L 2.667969 6.667969 L 2.667969 4.667969 C 2.667969 3.195312 3.859375 2 5.332031 2 Z M 10.667969 3.332031 L 5.332031 3.332031 C 4.628906 3.332031 4 3.964844 4 4.667969 L 4 6.667969 L 12 6.667969 L 12 4.667969 C 12 3.964844 11.367188 3.332031 10.667969 3.332031 Z M 10.667969 3.332031 "/>
</g>
</svg>
