<?xml version="1.0" encoding="UTF-8"?>
<svg xmlns="http://www.w3.org/2000/svg" xmlns:xlink="http://www.w3.org/1999/xlink" width="16" height="16" viewBox="0 0 16 16" version="1.1">
<g id="surface1">
<path style=" stroke:none;fill-rule:evenodd;fill:rgb(100%,100%,100%);fill-opacity:1;" d="M 1.289062 5.582031 C 1.078125 5.667969 0.773438 5.78125 0.632812 6.222656 C 0.484375 6.664062 0.664062 6.941406 0.78125 7.132812 C 0.898438 7.328125 1.03125 7.484375 1.1875 7.648438 C 1.503906 7.984375 1.910156 8.328125 2.3125 8.679688 C 2.71875 9.023438 3.125 9.367188 3.429688 9.640625 C 3.578125 9.773438 3.703125 9.890625 3.78125 9.976562 C 3.859375 10.058594 3.867188 10.152344 3.816406 9.984375 C 3.761719 9.820312 3.804688 9.902344 3.789062 10.015625 C 3.777344 10.125 3.742188 10.296875 3.703125 10.496094 C 3.617188 10.898438 3.484375 11.410156 3.359375 11.929688 C 3.234375 12.445312 3.113281 12.960938 3.054688 13.414062 C 3.023438 13.644531 3 13.851562 3.019531 14.078125 C 3.039062 14.304688 3.046875 14.625 3.421875 14.898438 C 3.796875 15.171875 4.109375 15.085938 4.328125 15.03125 C 4.550781 14.984375 4.742188 14.90625 4.949219 14.804688 C 5.363281 14.609375 5.820312 14.335938 6.273438 14.054688 C 6.726562 13.78125 7.179688 13.496094 7.535156 13.292969 C 7.710938 13.1875 7.867188 13.109375 7.96875 13.0625 C 8.070312 13.015625 8.15625 13.03125 7.984375 13.03125 C 7.808594 13.03125 7.898438 13.015625 8 13.066406 C 8.101562 13.113281 8.261719 13.191406 8.4375 13.296875 C 8.789062 13.5 9.234375 13.789062 9.6875 14.066406 C 10.140625 14.34375 10.59375 14.617188 11.007812 14.820312 C 11.210938 14.917969 11.402344 15 11.625 15.054688 C 11.84375 15.109375 12.164062 15.195312 12.539062 14.921875 C 12.914062 14.648438 12.929688 14.324219 12.945312 14.101562 C 12.960938 13.875 12.945312 13.664062 12.914062 13.4375 C 12.851562 12.984375 12.738281 12.46875 12.613281 11.953125 C 12.492188 11.4375 12.363281 10.917969 12.28125 10.519531 C 12.234375 10.320312 12.203125 10.148438 12.195312 10.035156 C 12.179688 9.921875 12.21875 9.84375 12.164062 10.007812 C 12.109375 10.171875 12.125 10.082031 12.203125 10 C 12.28125 9.914062 12.40625 9.796875 12.5625 9.660156 C 12.863281 9.386719 13.273438 9.046875 13.679688 8.703125 C 14.085938 8.359375 14.484375 8.015625 14.804688 7.683594 C 14.960938 7.515625 15.101562 7.359375 15.21875 7.164062 C 15.335938 6.972656 15.511719 6.703125 15.367188 6.265625 C 15.226562 5.820312 14.929688 5.707031 14.722656 5.617188 C 14.515625 5.53125 14.3125 5.484375 14.085938 5.445312 C 13.632812 5.359375 13.101562 5.3125 12.574219 5.269531 C 12.046875 5.226562 11.507812 5.191406 11.101562 5.148438 C 10.898438 5.125 10.726562 5.101562 10.617188 5.078125 C 10.507812 5.058594 10.441406 4.992188 10.582031 5.09375 C 10.722656 5.199219 10.644531 5.15625 10.589844 5.054688 C 10.53125 4.957031 10.460938 4.800781 10.378906 4.613281 C 10.214844 4.242188 10.015625 3.746094 9.816406 3.253906 C 9.617188 2.761719 9.40625 2.273438 9.1875 1.867188 C 9.078125 1.664062 8.972656 1.492188 8.828125 1.320312 C 8.679688 1.148438 8.476562 0.890625 8.015625 0.886719 C 7.550781 0.882812 7.347656 1.140625 7.199219 1.3125 C 7.054688 1.484375 6.945312 1.664062 6.835938 1.867188 C 6.617188 2.269531 6.40625 2.75 6.203125 3.242188 C 6 3.734375 5.800781 4.226562 5.632812 4.601562 C 5.550781 4.789062 5.46875 4.945312 5.414062 5.039062 C 5.359375 5.140625 5.28125 5.179688 5.421875 5.078125 C 5.566406 4.976562 5.496094 5.039062 5.382812 5.0625 C 5.273438 5.085938 5.109375 5.109375 4.90625 5.128906 C 4.5 5.171875 3.960938 5.207031 3.429688 5.246094 C 2.898438 5.285156 2.382812 5.328125 1.929688 5.410156 C 1.703125 5.453125 1.5 5.496094 1.289062 5.582031 Z M 2.53125 6.851562 C 2.839844 6.8125 3.15625 6.765625 3.546875 6.738281 C 4.0625 6.703125 4.597656 6.671875 5.054688 6.625 C 5.28125 6.601562 5.492188 6.570312 5.679688 6.53125 C 5.875 6.492188 6.039062 6.484375 6.304688 6.296875 C 6.5625 6.105469 6.621094 5.957031 6.71875 5.785156 C 6.8125 5.617188 6.90625 5.429688 7 5.21875 C 7.1875 4.796875 7.382812 4.296875 7.585938 3.820312 C 7.734375 3.464844 7.875 3.171875 8.007812 2.894531 C 8.140625 3.171875 8.277344 3.46875 8.421875 3.824219 C 8.617188 4.304688 8.816406 4.796875 9.003906 5.21875 C 9.09375 5.429688 9.183594 5.617188 9.28125 5.789062 C 9.375 5.960938 9.4375 6.117188 9.699219 6.308594 C 9.960938 6.5 10.125 6.503906 10.320312 6.546875 C 10.507812 6.585938 10.710938 6.617188 10.941406 6.640625 C 11.398438 6.6875 11.933594 6.71875 12.453125 6.761719 C 12.835938 6.789062 13.148438 6.835938 13.457031 6.882812 C 13.234375 7.09375 13 7.3125 12.707031 7.558594 C 12.3125 7.890625 11.902344 8.234375 11.5625 8.542969 C 11.390625 8.695312 11.230469 8.84375 11.097656 8.984375 C 10.964844 9.132812 10.839844 9.226562 10.742188 9.539062 C 10.640625 9.84375 10.679688 10.007812 10.703125 10.203125 C 10.722656 10.398438 10.757812 10.601562 10.804688 10.828125 C 10.902344 11.277344 11.039062 11.789062 11.15625 12.296875 C 11.25 12.671875 11.304688 12.992188 11.359375 13.296875 C 11.089844 13.148438 10.804688 12.992188 10.476562 12.789062 C 10.035156 12.515625 9.585938 12.226562 9.1875 12 C 8.984375 11.882812 8.804688 11.78125 8.625 11.703125 C 8.445312 11.617188 8.3125 11.523438 7.988281 11.523438 C 7.664062 11.523438 7.523438 11.617188 7.347656 11.695312 C 7.167969 11.777344 6.984375 11.878906 6.789062 11.992188 C 6.386719 12.21875 5.933594 12.503906 5.492188 12.773438 C 5.164062 12.976562 4.882812 13.128906 4.609375 13.273438 C 4.664062 12.972656 4.71875 12.65625 4.8125 12.28125 C 4.933594 11.78125 5.070312 11.261719 5.167969 10.8125 C 5.21875 10.585938 5.257812 10.382812 5.28125 10.1875 C 5.304688 9.992188 5.34375 9.835938 5.242188 9.53125 C 5.140625 9.21875 5.015625 9.113281 4.882812 8.96875 C 4.75 8.824219 4.601562 8.675781 4.429688 8.523438 C 4.09375 8.210938 3.679688 7.875 3.285156 7.539062 C 2.992188 7.289062 2.757812 7.0625 2.53125 6.851562 Z M 2.53125 6.851562 "/>
</g>
</svg>
