<?xml version="1.0" encoding="UTF-8"?>
<svg xmlns="http://www.w3.org/2000/svg" xmlns:xlink="http://www.w3.org/1999/xlink" width="16" height="16" viewBox="0 0 16 16" version="1.1">
<g id="surface1">
<path style=" stroke:none;fill-rule:nonzero;fill:rgb(100%,100%,100%);fill-opacity:1;" d="M 11.332031 2.667969 C 13.175781 2.667969 14.667969 4.160156 14.667969 6 C 14.667969 7.839844 13.175781 9.332031 11.332031 9.332031 C 11.128906 9.332031 10.929688 9.316406 10.738281 9.28125 L 8.972656 10.605469 C 8.988281 10.734375 9 10.867188 9 11 C 9 12.472656 7.808594 13.667969 6.332031 13.667969 C 4.859375 13.667969 3.667969 12.472656 3.667969 11 C 3.667969 10.882812 3.675781 10.765625 3.6875 10.652344 L 1.136719 9.621094 L 1.636719 8.382812 L 4.1875 9.414062 C 4.675781 8.757812 5.453125 8.332031 6.332031 8.332031 C 6.441406 8.332031 6.546875 8.339844 6.652344 8.351562 L 8.015625 6.3125 C 8.003906 6.210938 8 6.105469 8 6 C 8 4.160156 9.492188 2.667969 11.332031 2.667969 Z M 6.332031 9.667969 C 6.023438 9.667969 5.738281 9.773438 5.511719 9.949219 L 6.582031 10.382812 C 6.925781 10.519531 7.089844 10.910156 6.953125 11.25 C 6.8125 11.589844 6.425781 11.757812 6.082031 11.617188 L 5.011719 11.1875 C 5.105469 11.835938 5.660156 12.335938 6.335938 12.335938 C 7.070312 12.335938 7.667969 11.738281 7.667969 11 C 7.667969 10.265625 7.070312 9.667969 6.335938 9.667969 Z M 8.574219 7.875 L 7.921875 8.855469 C 8.109375 8.996094 8.28125 9.164062 8.425781 9.347656 L 9.332031 8.667969 C 9.039062 8.445312 8.78125 8.175781 8.574219 7.875 Z M 11.332031 4 C 10.230469 4 9.332031 4.894531 9.332031 6 C 9.332031 7.105469 10.230469 8 11.332031 8 C 12.4375 8 13.332031 7.105469 13.332031 6 C 13.332031 4.894531 12.4375 4 11.332031 4 Z M 11.332031 4.667969 C 12.070312 4.667969 12.667969 5.261719 12.667969 6 C 12.667969 6.738281 12.070312 7.332031 11.332031 7.332031 C 10.597656 7.332031 10 6.738281 10 6 C 10 5.261719 10.597656 4.667969 11.332031 4.667969 Z M 11.332031 4.667969 "/>
</g>
</svg>
