<?xml version="1.0" encoding="UTF-8"?>
<svg xmlns="http://www.w3.org/2000/svg" xmlns:xlink="http://www.w3.org/1999/xlink" width="16" height="16" viewBox="0 0 16 16" version="1.1">
<g id="surface1">
<path style=" stroke:none;fill-rule:nonzero;fill:rgb(100%,100%,100%);fill-opacity:1;" d="M 8.003906 1.332031 C 4.503906 1.332031 1.632812 4.035156 1.359375 7.464844 L 4.933594 8.941406 C 5.234375 8.734375 5.601562 8.613281 5.996094 8.613281 C 6.03125 8.613281 6.066406 8.617188 6.101562 8.617188 L 7.6875 6.316406 L 7.6875 6.285156 C 7.6875 4.898438 8.816406 3.769531 10.203125 3.769531 C 11.589844 3.769531 12.714844 4.898438 12.714844 6.285156 C 12.714844 7.671875 11.589844 8.796875 10.203125 8.796875 L 10.144531 8.796875 L 7.878906 10.414062 C 7.878906 10.445312 7.882812 10.476562 7.882812 10.503906 C 7.882812 11.546875 7.039062 12.390625 6 12.390625 C 5.089844 12.390625 4.324219 11.738281 4.148438 10.875 L 1.589844 9.816406 C 2.382812 12.613281 4.953125 14.667969 8.003906 14.667969 C 11.683594 14.667969 14.667969 11.683594 14.667969 8 C 14.667969 4.320312 11.683594 1.332031 8.003906 1.332031 Z M 4.71875 11.113281 C 4.863281 11.414062 5.117188 11.664062 5.449219 11.804688 C 6.167969 12.105469 7 11.761719 7.300781 11.042969 C 7.445312 10.691406 7.445312 10.308594 7.300781 9.957031 C 7.160156 9.609375 6.886719 9.335938 6.539062 9.191406 C 6.191406 9.046875 5.820312 9.050781 5.492188 9.175781 L 6.339844 9.523438 C 6.871094 9.746094 7.121094 10.355469 6.898438 10.886719 C 6.679688 11.417969 6.070312 11.671875 5.539062 11.449219 Z M 11.878906 6.28125 C 11.878906 5.359375 11.125 4.605469 10.203125 4.605469 C 9.277344 4.605469 8.527344 5.359375 8.527344 6.28125 C 8.527344 7.207031 9.277344 7.957031 10.203125 7.957031 C 11.128906 7.957031 11.878906 7.207031 11.878906 6.28125 Z M 10.207031 5.019531 C 10.898438 5.019531 11.464844 5.582031 11.464844 6.277344 C 11.464844 6.972656 10.902344 7.539062 10.207031 7.539062 C 9.511719 7.539062 8.949219 6.972656 8.949219 6.277344 C 8.949219 5.582031 9.511719 5.019531 10.207031 5.019531 Z M 10.207031 5.019531 "/>
</g>
</svg>
