<?xml version="1.0" encoding="UTF-8"?>
<svg xmlns="http://www.w3.org/2000/svg" xmlns:xlink="http://www.w3.org/1999/xlink" width="16" height="16" viewBox="0 0 16 16" version="1.1">
<g id="surface1">
<path style=" stroke:none;fill-rule:nonzero;fill:rgb(100%,100%,100%);fill-opacity:1;" d="M 8 1.332031 C 11.683594 1.332031 14.667969 4.316406 14.667969 8 C 14.667969 11.683594 11.683594 14.667969 8 14.667969 C 4.316406 14.667969 1.332031 11.683594 1.332031 8 C 1.332031 4.316406 4.316406 1.332031 8 1.332031 Z M 5.332031 8.667969 L 2.707031 8.667969 C 3.011719 11.082031 4.917969 12.988281 7.332031 13.292969 L 7.332031 10.667969 C 6.230469 10.667969 5.332031 9.769531 5.332031 8.667969 Z M 13.292969 8.667969 L 10.667969 8.667969 C 10.667969 9.769531 9.769531 10.667969 8.667969 10.667969 L 8.667969 13.292969 C 11.082031 12.988281 12.988281 11.082031 13.292969 8.667969 Z M 8 2.667969 C 5.3125 2.667969 3.042969 4.667969 2.707031 7.332031 L 5.332031 7.332031 C 5.332031 6.964844 5.632812 6.667969 6 6.667969 L 10 6.667969 C 10.367188 6.667969 10.667969 6.964844 10.667969 7.332031 L 13.292969 7.332031 C 12.957031 4.667969 10.6875 2.667969 8 2.667969 Z M 8 2.667969 "/>
</g>
</svg>
