<?xml version="1.0" encoding="UTF-8"?>
<svg xmlns="http://www.w3.org/2000/svg" xmlns:xlink="http://www.w3.org/1999/xlink" width="16" height="16" viewBox="0 0 16 16" version="1.1">
<g id="surface1">
<path style=" stroke:none;fill-rule:nonzero;fill:rgb(100%,100%,100%);fill-opacity:1;" d="M 14 8.667969 L 14 13.332031 C 14 13.703125 13.703125 14 13.332031 14 L 2.667969 14 C 2.296875 14 2 13.703125 2 13.332031 L 2 8.667969 L 1.332031 8.667969 L 1.332031 7.332031 L 2 4 L 14 4 L 14.667969 7.332031 L 14.667969 8.667969 Z M 3.332031 8.667969 L 3.332031 12.667969 L 12.667969 12.667969 L 12.667969 8.667969 Z M 4 9.332031 L 9.332031 9.332031 L 9.332031 11.332031 L 4 11.332031 Z M 2 2 L 14 2 L 14 3.332031 L 2 3.332031 Z M 2 2 "/>
</g>
</svg>
