<?xml version="1.0" encoding="UTF-8"?>
<svg xmlns="http://www.w3.org/2000/svg" xmlns:xlink="http://www.w3.org/1999/xlink" width="16" height="16" viewBox="0 0 16 16" version="1.1">
<g id="surface1">
<path style=" stroke:none;fill-rule:nonzero;fill:rgb(100%,100%,100%);fill-opacity:1;" d="M 14.667969 13.332031 L 14.667969 14.667969 L 1.332031 14.667969 L 1.332031 13.332031 L 2 13.332031 L 2 8.828125 C 1.167969 8.273438 0.667969 7.335938 0.667969 6.332031 C 0.667969 5.78125 0.816406 5.25 1.089844 4.796875 L 2.898438 1.667969 C 3.015625 1.460938 3.234375 1.332031 3.472656 1.332031 L 12.527344 1.332031 C 12.765625 1.332031 12.984375 1.460938 13.105469 1.667969 L 14.90625 4.789062 C 15.730469 6.160156 15.332031 7.941406 14 8.828125 L 14 13.332031 Z M 3.859375 2.667969 L 2.238281 5.476562 C 1.910156 6.28125 2.261719 7.207031 3.042969 7.59375 C 3.820312 7.980469 4.769531 7.703125 5.214844 6.953125 C 5.4375 6.394531 6.226562 6.394531 6.453125 6.953125 C 6.703125 7.585938 7.316406 8 8 8 C 8.683594 8 9.296875 7.585938 9.546875 6.953125 C 9.769531 6.394531 10.5625 6.394531 10.785156 6.953125 C 11.019531 7.535156 11.5625 7.933594 12.1875 7.984375 C 12.8125 8.039062 13.414062 7.738281 13.746094 7.207031 C 14.074219 6.675781 14.082031 6 13.757812 5.464844 L 12.140625 2.667969 Z M 3.859375 2.667969 "/>
</g>
</svg>
