<?xml version="1.0" encoding="UTF-8"?>
<svg xmlns="http://www.w3.org/2000/svg" xmlns:xlink="http://www.w3.org/1999/xlink" width="16" height="16" viewBox="0 0 16 16" version="1.1">
<g id="surface1">
<path style=" stroke:none;fill-rule:evenodd;fill:rgb(100%,100%,100%);fill-opacity:1;" d="M 6 0 C 4.890625 0 4 0.890625 4 2 L 4 4 L 2 4 C 0.890625 4 0 4.890625 0 6 L 0 14 C 0 15.109375 0.890625 16 2 16 L 14 16 C 15.109375 16 16 15.109375 16 14 L 16 6 C 16 4.890625 15.109375 4 14 4 L 12 4 L 12 2 C 12 0.890625 11.109375 0 10 0 Z M 6.5 2 L 9.5 2 C 9.777344 2 10 2.222656 10 2.5 L 10 3.5 C 10 3.777344 9.777344 4 9.5 4 L 6.5 4 C 6.222656 4 6 3.777344 6 3.5 L 6 2.5 C 6 2.222656 6.222656 2 6.5 2 Z M 6.5 2 "/>
</g>
</svg>
