<?xml version="1.0" encoding="UTF-8"?>
<svg xmlns="http://www.w3.org/2000/svg" xmlns:xlink="http://www.w3.org/1999/xlink" width="16" height="16" viewBox="0 0 16 16" version="1.1">
<g id="surface1">
<path style=" stroke:none;fill-rule:nonzero;fill:rgb(100%,100%,100%);fill-opacity:1;" d="M 8.324219 2.082031 L 13.496094 3.375 C 13.792969 3.449219 14 3.714844 14 4.019531 L 14 4.667969 L 14.667969 4.667969 C 15.398438 4.667969 16 5.265625 16 6 L 16 8 C 16 9.105469 15.105469 10 14 10 L 13.71875 10 C 13.363281 10.898438 12.683594 11.65625 11.789062 12.105469 L 8.597656 13.703125 C 8.21875 13.890625 7.78125 13.890625 7.402344 13.703125 L 4.210938 12.105469 C 3.316406 11.65625 2.636719 10.898438 2.28125 10 L 2 10 C 0.894531 10 0 9.105469 0 8 L 0 6 C 0 5.261719 0.597656 4.667969 1.332031 4.667969 L 2 4.667969 L 2 4.019531 C 2 3.714844 2.207031 3.449219 2.503906 3.375 L 7.675781 2.082031 C 7.886719 2.027344 8.113281 2.027344 8.324219 2.082031 Z M 8 3.375 L 3.332031 4.539062 L 3.332031 8.527344 C 3.332031 9.539062 3.902344 10.460938 4.808594 10.914062 L 8 12.507812 L 11.191406 10.914062 C 12.097656 10.460938 12.667969 9.539062 12.667969 8.527344 L 12.667969 4.542969 Z M 2 6 L 1.332031 6 L 1.332031 8 C 1.332031 8.367188 1.632812 8.667969 2 8.667969 Z M 14.667969 6 L 14 6 L 14 8.667969 C 14.367188 8.667969 14.667969 8.367188 14.667969 8 Z M 14.667969 6 "/>
</g>
</svg>
