<?xml version="1.0" encoding="UTF-8"?>
<svg xmlns="http://www.w3.org/2000/svg" xmlns:xlink="http://www.w3.org/1999/xlink" width="16" height="16" viewBox="0 0 16 16" version="1.1">
<g id="surface1">
<path style=" stroke:none;fill-rule:nonzero;fill:rgb(100%,100%,100%);fill-opacity:1;" d="M 9.078125 14 C 9.023438 14 8.984375 13.960938 8.996094 13.914062 L 8.996094 2.085938 C 8.996094 2.046875 9.023438 2.007812 9.070312 2.007812 L 10.925781 2.007812 C 12.625 2.007812 14 3.386719 14 5.082031 L 14 10.925781 C 14 12.625 12.625 14 10.925781 14 Z M 11.359375 7.382812 C 10.691406 7.382812 10.144531 7.929688 10.144531 8.597656 C 10.144531 9.269531 10.691406 9.816406 11.359375 9.816406 C 12.03125 9.816406 12.578125 9.269531 12.578125 8.597656 C 12.578125 7.929688 12.03125 7.382812 11.359375 7.382812 Z M 3.867188 5.601562 C 3.867188 4.976562 4.375 4.46875 4.996094 4.46875 C 5.621094 4.46875 6.128906 4.976562 6.128906 5.601562 C 6.128906 6.222656 5.621094 6.730469 4.996094 6.730469 C 4.375 6.730469 3.867188 6.222656 3.867188 5.601562 Z M 7.691406 2 C 7.75 2 7.789062 2.039062 7.777344 2.085938 L 7.777344 13.90625 C 7.777344 13.953125 7.742188 13.992188 7.691406 13.992188 L 5.074219 13.992188 C 3.375 13.992188 2 12.613281 2 10.917969 L 2 5.074219 C 2 3.375 3.375 2 5.074219 2 Z M 6.816406 13.03125 L 6.816406 2.960938 L 5.074219 2.960938 C 4.507812 2.960938 3.980469 3.1875 3.582031 3.582031 C 3.183594 3.972656 2.957031 4.511719 2.960938 5.074219 L 2.960938 10.917969 C 2.960938 11.484375 3.1875 12.011719 3.582031 12.40625 C 3.972656 12.808594 4.511719 13.035156 5.074219 13.03125 Z M 6.816406 13.03125 "/>
</g>
</svg>
