<?xml version="1.0" encoding="UTF-8"?>
<svg xmlns="http://www.w3.org/2000/svg" xmlns:xlink="http://www.w3.org/1999/xlink" width="16" height="16" viewBox="0 0 16 16" version="1.1">
<g id="surface1">
<path style=" stroke:none;fill-rule:evenodd;fill:rgb(100%,100%,100%);fill-opacity:1;" d="M 6 1.5 C 2.6875 1.5 0 4.1875 0 7.5 C 0 10.8125 2.6875 13.5 6 13.5 L 14 13.5 L 14 14.5 L 16 14.5 L 16 10.5 L 12 10.5 L 12 7.5 C 12 4.1875 9.3125 1.5 6 1.5 Z M 5.945312 4.5 L 5.949219 4.5 C 5.96875 4.5 5.984375 4.5 6 4.5 C 7.65625 4.5 9 5.84375 9 7.5 C 9 9.15625 7.65625 10.5 6 10.5 C 4.34375 10.5 3 9.15625 3 7.5 C 3 5.863281 4.3125 4.53125 5.945312 4.5 Z M 5.945312 4.5 "/>
</g>
</svg>
