<?xml version="1.0" encoding="UTF-8"?>
<svg xmlns="http://www.w3.org/2000/svg" xmlns:xlink="http://www.w3.org/1999/xlink" width="16" height="16" viewBox="0 0 16 16" version="1.1">
<g id="surface1">
<path style=" stroke:none;fill-rule:nonzero;fill:rgb(100%,100%,100%);fill-opacity:1;" d="M 14.625 5.578125 L 16 6.109375 C 15.785156 7.070312 15.429688 7.773438 14.929688 8.21875 C 14.429688 8.664062 13.8125 8.882812 13.082031 8.882812 C 12.164062 8.882812 11.421875 8.53125 10.851562 7.820312 C 10.195312 7.007812 9.867188 5.90625 9.867188 4.515625 C 9.867188 3.054688 10.195312 1.90625 10.855469 1.078125 C 11.429688 0.359375 12.203125 0 13.171875 0 C 13.960938 0 14.617188 0.269531 15.148438 0.808594 C 15.53125 1.191406 15.804688 1.757812 15.984375 2.515625 L 14.578125 2.921875 C 14.484375 2.460938 14.304688 2.101562 14.039062 1.859375 C 13.773438 1.609375 13.457031 1.484375 13.09375 1.484375 C 12.574219 1.484375 12.148438 1.710938 11.820312 2.164062 C 11.492188 2.617188 11.328125 3.363281 11.328125 4.40625 C 11.328125 5.488281 11.492188 6.257812 11.8125 6.714844 C 12.132812 7.171875 12.546875 7.398438 13.058594 7.398438 C 13.433594 7.398438 13.757812 7.257812 14.03125 6.96875 C 14.304688 6.671875 14.5 6.210938 14.625 5.578125 Z M 14.625 5.578125 "/>
<path style=" stroke:none;fill-rule:evenodd;fill:rgb(100%,100%,100%);fill-opacity:1;" d="M 4 0 C 2.890625 0 2 0.890625 2 2 L 2 7.757812 C 0.75 8.59375 0 10 0 11.5 C 0 13.984375 2.015625 16 4.5 16 C 6.984375 16 9 13.984375 9 11.5 C 9 9.996094 8.25 8.59375 7 7.757812 L 7 2 C 7 0.890625 6.109375 0 5 0 Z M 4 1 L 5 1 C 5.554688 1 6 1.445312 6 2 L 6 8.335938 C 7.21875 8.917969 8 10.148438 8 11.5 C 8 13.433594 6.433594 15 4.5 15 C 2.566406 15 1 13.433594 1 11.5 C 1 10.148438 1.78125 8.917969 3 8.335938 L 3 2 C 3 1.445312 3.445312 1 4 1 Z M 4 2 L 4 9.054688 C 2.835938 9.289062 2 10.3125 2 11.5 C 2 12.882812 3.117188 14 4.5 14 C 5.882812 14 7 12.882812 7 11.5 C 7 10.3125 6.164062 9.289062 5 9.050781 L 5 2 Z M 4 2 "/>
</g>
</svg>
