<?xml version="1.0" encoding="UTF-8"?>
<svg xmlns="http://www.w3.org/2000/svg" xmlns:xlink="http://www.w3.org/1999/xlink" width="16" height="16" viewBox="0 0 16 16" version="1.1">
<g id="surface1">
<path style=" stroke:none;fill-rule:nonzero;fill:rgb(100%,100%,100%);fill-opacity:1;" d="M 7.332031 3.332031 L 7.332031 10 L 6 10 L 6 7.332031 C 4.527344 7.332031 3.332031 6.140625 3.332031 4.667969 C 3.332031 3.195312 4.527344 2 6 2 L 11.332031 2 L 11.332031 3.332031 L 10 3.332031 L 10 10 L 8.667969 10 L 8.667969 3.332031 Z M 6 3.332031 C 5.261719 3.332031 4.667969 3.929688 4.667969 4.667969 C 4.667969 5.402344 5.261719 6 6 6 Z M 4.667969 11.332031 L 12.667969 11.332031 L 12.667969 12.667969 L 4.667969 12.667969 L 4.667969 14.332031 L 2 12 L 4.667969 9.667969 Z M 4.667969 11.332031 "/>
</g>
</svg>
