<?xml version="1.0" encoding="UTF-8"?>
<svg xmlns="http://www.w3.org/2000/svg" xmlns:xlink="http://www.w3.org/1999/xlink" width="16" height="16" viewBox="0 0 16 16" version="1.1">
<g id="surface1">
<path style=" stroke:none;fill-rule:nonzero;fill:rgb(100%,100%,100%);fill-opacity:1;" d="M 6.265625 10.667969 L 2 10.667969 C 1.261719 10.667969 0.667969 10.070312 0.667969 9.332031 L 0.667969 7.929688 C 0.667969 7.757812 0.699219 7.582031 0.765625 7.421875 L 2.832031 2.414062 C 2.933594 2.164062 3.175781 2 3.445312 2 L 14.667969 2 C 15.035156 2 15.332031 2.296875 15.332031 2.667969 L 15.332031 9.332031 C 15.332031 9.703125 15.035156 10 14.667969 10 L 12.34375 10 C 12.128906 10 11.925781 10.105469 11.800781 10.28125 L 8.164062 15.433594 C 8.070312 15.566406 7.890625 15.613281 7.742188 15.539062 L 6.535156 14.933594 C 5.832031 14.582031 5.472656 13.792969 5.664062 13.03125 Z M 11.332031 8.941406 L 11.332031 3.332031 L 3.894531 3.332031 L 2 7.929688 L 2 9.332031 L 6.265625 9.332031 C 6.679688 9.332031 7.066406 9.523438 7.320312 9.847656 C 7.570312 10.171875 7.660156 10.597656 7.558594 10.996094 L 6.957031 13.359375 C 6.917969 13.511719 6.992188 13.671875 7.128906 13.742188 L 7.570312 13.960938 L 10.710938 9.511719 C 10.878906 9.277344 11.089844 9.085938 11.332031 8.941406 Z M 12.667969 8.667969 L 14 8.667969 L 14 3.332031 L 12.667969 3.332031 Z M 12.667969 8.667969 "/>
</g>
</svg>
