<?xml version="1.0" encoding="UTF-8"?>
<svg xmlns="http://www.w3.org/2000/svg" xmlns:xlink="http://www.w3.org/1999/xlink" width="16" height="16" viewBox="0 0 16 16" version="1.1">
<g id="surface1">
<path style=" stroke:none;fill-rule:nonzero;fill:rgb(100%,100%,100%);fill-opacity:1;" d="M 14 2 C 14.367188 2 14.667969 2.296875 14.667969 2.667969 L 14.667969 6.332031 C 13.746094 6.332031 13 7.078125 13 8 C 13 8.921875 13.746094 9.667969 14.667969 9.667969 L 14.667969 13.332031 C 14.667969 13.703125 14.367188 14 14 14 L 2 14 C 1.632812 14 1.332031 13.703125 1.332031 13.332031 L 1.332031 9.667969 C 2.253906 9.667969 3 8.921875 3 8 C 3 7.078125 2.253906 6.332031 1.332031 6.332031 L 1.332031 2.667969 C 1.332031 2.296875 1.632812 2 2 2 Z M 13.332031 3.332031 L 2.667969 3.332031 L 2.667969 5.3125 L 2.769531 5.367188 C 3.691406 5.867188 4.28125 6.8125 4.332031 7.859375 L 4.332031 8 C 4.332031 9.097656 3.734375 10.109375 2.769531 10.632812 L 2.667969 10.6875 L 2.667969 12.667969 L 13.332031 12.667969 L 13.332031 10.6875 L 13.230469 10.632812 C 12.308594 10.132812 11.71875 9.1875 11.667969 8.140625 L 11.667969 8 C 11.667969 6.863281 12.296875 5.875 13.230469 5.367188 L 13.332031 5.3125 Z M 13.332031 3.332031 "/>
</g>
</svg>
