<?xml version="1.0" encoding="UTF-8"?>
<svg xmlns="http://www.w3.org/2000/svg" xmlns:xlink="http://www.w3.org/1999/xlink" width="16" height="16" viewBox="0 0 16 16" version="1.1">
<g id="surface1">
<path style=" stroke:none;fill-rule:nonzero;fill:rgb(100%,100%,100%);fill-opacity:1;" d="M 11.746094 3.980469 L 12.714844 3.011719 L 13.65625 3.953125 L 12.6875 4.921875 C 14.675781 7.410156 14.375 11.015625 12 13.136719 C 9.628906 15.261719 6.007812 15.160156 3.757812 12.910156 C 1.507812 10.65625 1.40625 7.039062 3.527344 4.667969 C 5.652344 2.292969 9.257812 1.992188 11.746094 3.980469 Z M 8 13.332031 C 10.578125 13.332031 12.667969 11.242188 12.667969 8.667969 C 12.667969 6.089844 10.578125 4 8 4 C 5.421875 4 3.332031 6.089844 3.332031 8.667969 C 3.332031 11.242188 5.421875 13.332031 8 13.332031 Z M 7.332031 5.332031 L 8.667969 5.332031 L 8.667969 9.332031 L 7.332031 9.332031 Z M 5.332031 0.667969 L 10.667969 0.667969 L 10.667969 2 L 5.332031 2 Z M 5.332031 0.667969 "/>
</g>
</svg>
