<?xml version="1.0" encoding="UTF-8"?>
<svg xmlns="http://www.w3.org/2000/svg" xmlns:xlink="http://www.w3.org/1999/xlink" width="16" height="16" viewBox="0 0 16 16" version="1.1">
<g id="surface1">
<path style=" stroke:none;fill-rule:nonzero;fill:rgb(100%,100%,100%);fill-opacity:1;" d="M 5.964844 5.691406 C 8.058594 4.09375 11.03125 4.394531 12.761719 6.375 C 14.496094 8.355469 14.394531 11.339844 12.535156 13.203125 C 10.675781 15.0625 7.6875 15.164062 5.707031 13.429688 C 3.726562 11.699219 3.429688 8.726562 5.023438 6.632812 L 3.109375 4.714844 L 1.457031 6.367188 L 0.515625 5.425781 L 4.757812 1.179688 L 5.699219 2.125 L 4.050781 3.773438 L 5.96875 5.691406 Z M 9 13.332031 C 11.023438 13.332031 12.667969 11.691406 12.667969 9.667969 C 12.667969 7.640625 11.023438 6 9 6 C 6.976562 6 5.332031 7.640625 5.332031 9.667969 C 5.332031 11.691406 6.976562 13.332031 9 13.332031 Z M 9 13.332031 "/>
</g>
</svg>
