<?xml version="1.0" encoding="UTF-8"?>
<svg xmlns="http://www.w3.org/2000/svg" xmlns:xlink="http://www.w3.org/1999/xlink" width="16" height="16" viewBox="0 0 16 16" version="1.1">
<g id="surface1">
<path style=" stroke:none;fill-rule:nonzero;fill:rgb(100%,100%,100%);fill-opacity:1;" d="M 3.332031 3.332031 L 3.332031 12.667969 L 12.667969 12.667969 L 12.667969 3.332031 Z M 3.332031 2 L 12.667969 2 C 13.402344 2 14 2.597656 14 3.332031 L 14 12.667969 C 14 13.402344 13.402344 14 12.667969 14 L 3.332031 14 C 2.597656 14 2 13.402344 2 12.667969 L 2 3.332031 C 2 2.597656 2.597656 2 3.332031 2 Z M 5.332031 4.667969 L 6.667969 4.667969 C 7.035156 4.667969 7.332031 4.964844 7.332031 5.332031 L 7.332031 10.667969 C 7.332031 11.035156 7.035156 11.332031 6.667969 11.332031 L 5.332031 11.332031 C 4.964844 11.332031 4.667969 11.035156 4.667969 10.667969 L 4.667969 5.332031 C 4.667969 4.964844 4.964844 4.667969 5.332031 4.667969 Z M 9.332031 4.667969 L 10.667969 4.667969 C 11.035156 4.667969 11.332031 4.964844 11.332031 5.332031 L 11.332031 8 C 11.332031 8.367188 11.035156 8.667969 10.667969 8.667969 L 9.332031 8.667969 C 8.964844 8.667969 8.667969 8.367188 8.667969 8 L 8.667969 5.332031 C 8.667969 4.964844 8.964844 4.667969 9.332031 4.667969 Z M 9.332031 4.667969 "/>
</g>
</svg>
