<?xml version="1.0" encoding="UTF-8"?>
<svg xmlns="http://www.w3.org/2000/svg" xmlns:xlink="http://www.w3.org/1999/xlink" width="16" height="16" viewBox="0 0 16 16" version="1.1">
<g id="surface1">
<path style=" stroke:none;fill-rule:nonzero;fill:rgb(100%,100%,100%);fill-opacity:1;" d="M 6.8125 2.960938 C 6.539062 2.960938 6.3125 3.179688 6.3125 3.453125 L 6.3125 5.953125 L 2.007812 5.953125 C 1.453125 5.953125 1.007812 6.40625 1.007812 6.960938 L 1.007812 8.453125 L 0.0078125 8.453125 L -0.0078125 10.453125 L 1.230469 10.453125 C 1.609375 9.515625 2.542969 8.78125 3.570312 8.757812 C 3.570312 8.757812 3.578125 8.757812 3.578125 8.757812 C 3.597656 8.757812 3.613281 8.757812 3.628906 8.757812 C 4.671875 8.757812 5.640625 9.492188 6.027344 10.453125 L 10.601562 10.453125 C 10.980469 9.511719 11.914062 8.78125 12.9375 8.757812 C 12.945312 8.757812 12.945312 8.757812 12.953125 8.757812 C 12.96875 8.757812 12.984375 8.757812 13 8.757812 C 14.046875 8.757812 15.007812 9.492188 15.398438 10.453125 L 16.007812 10.453125 L 16.007812 8.453125 L 15.007812 8.453125 L 15.007812 6.984375 C 15.007812 6.414062 14.546875 5.953125 13.976562 5.953125 L 13.21875 5.953125 L 10.394531 3.132812 C 10.28125 3.023438 10.128906 2.960938 9.96875 2.960938 Z M 7.789062 4.453125 L 9.789062 4.453125 L 11.554688 6.453125 L 7.789062 6.453125 Z M 3.59375 9.640625 C 2.667969 9.664062 1.929688 10.414062 1.929688 11.339844 C 1.929688 11.789062 2.109375 12.226562 2.429688 12.542969 C 2.746094 12.859375 3.179688 13.039062 3.632812 13.039062 C 4.570312 13.039062 5.328125 12.28125 5.328125 11.339844 C 5.328125 10.402344 4.570312 9.640625 3.632812 9.640625 C 3.617188 9.640625 3.605469 9.640625 3.59375 9.640625 Z M 12.960938 9.640625 C 12.039062 9.664062 11.300781 10.414062 11.300781 11.339844 C 11.300781 12.28125 12.0625 13.039062 13 13.039062 C 13.9375 13.039062 14.699219 12.28125 14.699219 11.339844 C 14.699219 10.402344 13.9375 9.640625 13 9.640625 C 12.984375 9.640625 12.976562 9.640625 12.960938 9.640625 Z M 12.960938 9.640625 "/>
</g>
</svg>
