<?xml version="1.0" encoding="UTF-8"?>
<svg xmlns="http://www.w3.org/2000/svg" xmlns:xlink="http://www.w3.org/1999/xlink" width="16" height="16" viewBox="0 0 16 16" version="1.1">
<g id="surface1">
<path style=" stroke:none;fill-rule:nonzero;fill:rgb(100%,100%,100%);fill-opacity:1;" d="M 8 0.667969 L 10 4 L 8.667969 4 L 8.667969 8.921875 L 10.667969 7.921875 L 10.664062 7.332031 L 10 7.332031 L 10 4.667969 L 12.667969 4.667969 L 12.667969 7.332031 L 12 7.332031 L 12 8.746094 L 8.667969 10.410156 L 8.667969 11.449219 C 9.445312 11.722656 10 12.460938 10 13.332031 C 10 14.4375 9.105469 15.332031 8 15.332031 C 6.894531 15.332031 6 14.4375 6 13.332031 C 6 12.542969 6.460938 11.859375 7.125 11.535156 L 4 9.332031 L 4 7.820312 C 3.601562 7.589844 3.332031 7.160156 3.332031 6.667969 C 3.332031 5.929688 3.929688 5.332031 4.667969 5.332031 C 5.402344 5.332031 6 5.929688 6 6.667969 C 6 7.160156 5.730469 7.589844 5.332031 7.820312 L 5.332031 8.667969 L 7.332031 10.058594 L 7.332031 4 L 6 4 Z M 8 12.667969 C 7.632812 12.667969 7.332031 12.964844 7.332031 13.332031 C 7.332031 13.703125 7.632812 14 8 14 C 8.367188 14 8.667969 13.703125 8.667969 13.332031 C 8.667969 12.964844 8.367188 12.667969 8 12.667969 Z M 8 12.667969 "/>
</g>
</svg>
