<?xml version="1.0" encoding="UTF-8"?>
<svg xmlns="http://www.w3.org/2000/svg" xmlns:xlink="http://www.w3.org/1999/xlink" width="16" height="16" viewBox="0 0 16 16" version="1.1">
<g id="surface1">
<path style=" stroke:none;fill-rule:nonzero;fill:rgb(100%,100%,100%);fill-opacity:1;" d="M 9.332031 9.5 L 9.332031 10.894531 C 8.109375 10.460938 6.75 10.648438 5.691406 11.398438 C 4.628906 12.148438 4 13.367188 4 14.667969 L 2.667969 14.664062 C 2.667969 13.015625 3.429688 11.460938 4.734375 10.449219 C 6.039062 9.4375 7.734375 9.089844 9.332031 9.5 Z M 8 8.667969 C 5.789062 8.667969 4 6.875 4 4.667969 C 4 2.457031 5.789062 0.667969 8 0.667969 C 10.210938 0.667969 12 2.457031 12 4.667969 C 12 6.875 10.210938 8.667969 8 8.667969 Z M 8 7.332031 C 9.472656 7.332031 10.667969 6.140625 10.667969 4.667969 C 10.667969 3.191406 9.472656 2 8 2 C 6.527344 2 5.332031 3.191406 5.332031 4.667969 C 5.332031 6.140625 6.527344 7.332031 8 7.332031 Z M 12.667969 11.722656 L 14.082031 10.308594 L 15.023438 11.253906 L 13.609375 12.667969 L 15.023438 14.082031 L 14.082031 15.023438 L 12.667969 13.609375 L 11.253906 15.023438 L 10.308594 14.082031 L 11.722656 12.667969 L 10.308594 11.253906 L 11.253906 10.308594 Z M 12.667969 11.722656 "/>
</g>
</svg>
