<?xml version="1.0" encoding="UTF-8"?>
<svg xmlns="http://www.w3.org/2000/svg" xmlns:xlink="http://www.w3.org/1999/xlink" width="16" height="16" viewBox="0 0 16 16" version="1.1">
<g id="surface1">
<path style=" stroke:none;fill-rule:nonzero;fill:rgb(100%,100%,100%);fill-opacity:1;" d="M 8 0 C 4.695312 0 2 2.695312 2 6 C 2 7.105469 2.898438 8 4 8 L 4.539062 8 C 5.179688 9.113281 6.316406 9.851562 7.59375 9.984375 C 7.671875 9.460938 8.003906 8.988281 8.519531 8.785156 C 9.554688 8.375 10.335938 7.507812 10.625 6.4375 C 10.6875 6.191406 10.828125 5.988281 11 5.8125 L 11 7.996094 C 10.492188 8.765625 9.765625 9.371094 8.886719 9.71875 C 8.628906 9.820312 8.507812 10.109375 8.609375 10.367188 C 8.710938 10.625 9 10.75 9.257812 10.648438 C 10.527344 10.144531 11.550781 9.191406 12.152344 7.992188 C 13.164062 7.914062 13.960938 7.09375 14 6.078125 C 14 6.074219 14 6.074219 14 6.070312 C 14 6.0625 14 6.054688 14 6.046875 C 14 6.03125 14.003906 6.015625 14.003906 6 C 14.003906 2.695312 11.3125 0 8 0 Z M 8 0.996094 C 10.054688 0.996094 11.808594 2.234375 12.578125 4 L 11.460938 4 C 10.746094 2.765625 9.429688 2.007812 8 2.003906 C 7.984375 2.003906 7.960938 2.003906 7.941406 2.003906 C 6.535156 2.023438 5.242188 2.78125 4.539062 4 L 3.421875 4 C 4.191406 2.234375 5.945312 0.996094 8 0.996094 Z M 3.996094 10.46875 C 3.117188 10.472656 2.382812 10.816406 1.839844 11.304688 C 1.296875 11.796875 0.917969 12.414062 0.652344 13.015625 C 0.121094 14.226562 0.00390625 15.417969 0.00390625 15.417969 L -0.0546875 16 L 16.054688 16 L 16 15.417969 C 16 15.417969 15.882812 14.226562 15.351562 13.015625 C 15.085938 12.414062 14.710938 11.796875 14.167969 11.304688 C 13.625 10.8125 12.890625 10.46875 12.007812 10.46875 C 10.90625 11.457031 9.480469 12.003906 8 12.003906 C 6.523438 12.003906 5.097656 11.457031 3.996094 10.46875 Z M 3.996094 10.46875 "/>
</g>
</svg>
