<?xml version="1.0" encoding="UTF-8"?>
<svg xmlns="http://www.w3.org/2000/svg" xmlns:xlink="http://www.w3.org/1999/xlink" width="16" height="16" viewBox="0 0 16 16" version="1.1">
<g id="surface1">
<path style=" stroke:none;fill-rule:nonzero;fill:rgb(100%,100%,100%);fill-opacity:1;" d="M 11.996094 2.003906 C 13.617188 2.003906 14.664062 3.011719 14.664062 5 C 14.664062 6.148438 14 7.625 13.445312 8.488281 C 11.585938 11.378906 9.289062 14.316406 7.015625 14.316406 C 4.542969 14.316406 3.902344 9.761719 3.621094 8.695312 C 3.339844 7.628906 3.265625 7.222656 2.839844 6.539062 C 2.628906 6.6875 2.335938 6.894531 1.953125 7.160156 C 1.804688 7.265625 1.597656 7.230469 1.492188 7.082031 L 0.617188 5.871094 C 0.527344 5.746094 0.535156 5.574219 0.632812 5.457031 C 2.519531 3.277344 4.085938 2.183594 5.332031 2.183594 C 6.929688 2.183594 7.414062 4.0625 7.550781 5 C 7.75 6.410156 8.007812 8.160156 8.378906 8.914062 C 8.75 8.386719 9.832031 6.988281 9.691406 6.253906 C 9.628906 5.929688 8.8125 6.378906 8.433594 6.308594 C 8.148438 6.253906 7.894531 6.039062 7.894531 5.625 C 7.894531 4.75 9.128906 2.003906 11.996094 2.003906 Z M 12 3.335938 C 10.535156 3.335938 9.832031 4.359375 9.566406 4.808594 C 10.398438 4.839844 10.878906 5.351562 10.988281 6.011719 C 11.246094 7.5625 9.710938 9.289062 9.425781 9.71875 C 9.164062 10.121094 7.386719 11.9375 6.59375 7.480469 C 6.519531 7.0625 6.347656 6.039062 6.152344 4.6875 C 6.039062 3.921875 5.570312 3.515625 5.332031 3.515625 C 4.769531 3.515625 4.050781 3.949219 2.761719 5.191406 C 4.03125 5.113281 4.457031 6.707031 4.703125 7.613281 C 5.25 9.601562 5.753906 12.984375 7.117188 12.984375 C 8.269531 12.984375 10.078125 11.21875 12.03125 8.289062 C 12.171875 8.082031 13.34375 6.273438 13.34375 4.933594 C 13.34375 3.335938 12.363281 3.335938 12 3.335938 Z M 12 3.335938 "/>
</g>
</svg>
