<?xml version="1.0" encoding="UTF-8"?>
<svg xmlns="http://www.w3.org/2000/svg" xmlns:xlink="http://www.w3.org/1999/xlink" width="16" height="16" viewBox="0 0 16 16" version="1.1">
<g id="surface1">
<path style=" stroke:none;fill-rule:nonzero;fill:rgb(100%,100%,100%);fill-opacity:1;" d="M 0.78125 5.535156 C 0.59375 5.257812 0.613281 5.257812 1 4.917969 C 1.820312 4.199219 2.597656 3.410156 3.492188 2.777344 C 4.300781 2.210938 5.375 1.84375 6.109375 2.746094 C 6.785156 3.578125 6.800781 4.839844 6.972656 5.847656 C 7.144531 6.890625 7.308594 7.957031 7.671875 8.953125 C 7.773438 9.234375 7.96875 9.765625 8.320312 9.808594 C 8.769531 9.871094 9.230469 9.078125 9.441406 8.78125 C 9.984375 7.996094 10.722656 6.9375 10.628906 5.925781 C 10.539062 4.851562 9.378906 5.050781 8.652344 5.308594 C 8.769531 4.101562 9.890625 2.746094 10.972656 2.289062 C 12.121094 1.8125 13.824219 1.820312 14.398438 3.113281 C 15.015625 4.515625 14.460938 6.144531 13.792969 7.414062 C 13.0625 8.792969 12.121094 10.066406 11.113281 11.257812 C 10.226562 12.316406 9.175781 13.480469 7.851562 13.984375 C 6.34375 14.5625 5.445312 13.4375 4.933594 12.136719 C 4.371094 10.722656 4.089844 9.132812 3.683594 7.660156 C 3.515625 7.039062 3.3125 6.328125 2.90625 5.816406 C 2.378906 5.152344 1.78125 5.773438 1.257812 6.132812 C 1.078125 5.957031 0.929688 5.730469 0.78125 5.535156 Z M 0.78125 5.535156 "/>
</g>
</svg>
