<?xml version="1.0" encoding="UTF-8"?>
<svg xmlns="http://www.w3.org/2000/svg" xmlns:xlink="http://www.w3.org/1999/xlink" width="16" height="16" viewBox="0 0 16 16" version="1.1">
<g id="surface1">
<path style=" stroke:none;fill-rule:nonzero;fill:rgb(100%,100%,100%);fill-opacity:1;" d="M 3.25 2 L 12.75 2 C 12.964844 2 13.164062 2.101562 13.289062 2.273438 L 15.839844 5.777344 C 15.933594 5.90625 15.921875 6.082031 15.816406 6.199219 L 8.246094 14.402344 C 8.121094 14.535156 7.910156 14.542969 7.773438 14.421875 C 7.769531 14.414062 5.242188 11.675781 0.183594 6.199219 C 0.078125 6.082031 0.0664062 5.90625 0.160156 5.777344 L 2.710938 2.273438 C 2.835938 2.101562 3.035156 2 3.25 2 Z M 3.589844 3.332031 L 1.722656 5.898438 L 8 12.699219 L 14.277344 5.898438 L 12.410156 3.332031 Z M 3.589844 3.332031 "/>
</g>
</svg>
