<?xml version="1.0" encoding="UTF-8"?>
<svg xmlns="http://www.w3.org/2000/svg" xmlns:xlink="http://www.w3.org/1999/xlink" width="16" height="16" viewBox="0 0 16 16" version="1.1">
<g id="surface1">
<path style=" stroke:none;fill-rule:nonzero;fill:rgb(100%,100%,100%);fill-opacity:1;" d="M 9.144531 1.296875 L 11.632812 2.253906 L 11.15625 3.5 L 10.535156 3.257812 L 10.035156 4.554688 C 10.554688 4.863281 11 5.285156 11.332031 5.785156 L 12.601562 5.222656 L 12.328125 4.613281 L 13.546875 4.070312 L 14.632812 6.507812 L 13.414062 7.046875 L 13.144531 6.441406 L 11.875 7.003906 C 11.957031 7.324219 12 7.65625 12 8 C 12 8.269531 11.972656 8.535156 11.921875 8.792969 L 13.21875 9.289062 L 13.457031 8.667969 L 14.703125 9.144531 L 13.746094 11.632812 L 12.5 11.15625 L 12.738281 10.535156 L 11.445312 10.035156 C 11.136719 10.554688 10.714844 11 10.214844 11.332031 L 10.777344 12.601562 L 11.386719 12.328125 L 11.929688 13.546875 L 9.492188 14.632812 L 8.953125 13.414062 L 9.558594 13.144531 L 8.996094 11.875 C 8.675781 11.957031 8.34375 12 8 12 C 7.730469 12 7.464844 11.972656 7.207031 11.921875 L 6.710938 13.21875 L 7.332031 13.457031 L 6.855469 14.703125 L 4.367188 13.746094 L 4.84375 12.5 L 5.464844 12.738281 L 5.964844 11.445312 C 5.445312 11.136719 5 10.714844 4.667969 10.214844 L 3.398438 10.777344 L 3.667969 11.386719 L 2.453125 11.929688 L 1.367188 9.492188 L 2.585938 8.953125 L 2.855469 9.5625 L 4.125 8.996094 C 4.042969 8.675781 4 8.34375 4 8 C 4 7.730469 4.027344 7.464844 4.078125 7.207031 L 2.78125 6.710938 L 2.542969 7.332031 L 1.296875 6.855469 L 2.253906 4.367188 L 3.5 4.84375 L 3.257812 5.464844 L 4.554688 5.964844 C 4.863281 5.445312 5.285156 5 5.785156 4.667969 L 5.222656 3.398438 L 4.613281 3.667969 L 4.070312 2.453125 L 6.507812 1.367188 L 7.046875 2.585938 L 6.441406 2.855469 L 7.003906 4.125 C 7.324219 4.042969 7.65625 4 8 4 C 8.269531 4 8.535156 4.027344 8.792969 4.078125 L 9.289062 2.78125 L 8.667969 2.542969 Z M 8 5.332031 C 6.527344 5.332031 5.332031 6.527344 5.332031 8 C 5.332031 9.472656 6.527344 10.667969 8 10.667969 C 9.472656 10.667969 10.667969 9.472656 10.667969 8 C 10.667969 6.527344 9.472656 5.332031 8 5.332031 Z M 7.667969 8.578125 C 7.984375 8.761719 8.09375 9.167969 7.910156 9.488281 C 7.726562 9.808594 7.320312 9.914062 7 9.730469 C 6.679688 9.546875 6.570312 9.140625 6.757812 8.820312 C 6.941406 8.503906 7.347656 8.394531 7.667969 8.578125 Z M 9.332031 7.332031 C 9.703125 7.332031 10 7.632812 10 8 C 10 8.367188 9.703125 8.667969 9.332031 8.667969 C 8.964844 8.667969 8.667969 8.367188 8.667969 8 C 8.667969 7.632812 8.964844 7.332031 9.332031 7.332031 Z M 7.910156 6.511719 C 8.09375 6.832031 7.984375 7.238281 7.667969 7.421875 C 7.347656 7.605469 6.941406 7.496094 6.757812 7.179688 C 6.570312 6.859375 6.679688 6.453125 7 6.269531 C 7.320312 6.085938 7.726562 6.191406 7.910156 6.511719 Z M 7.910156 6.511719 "/>
</g>
</svg>
