<?xml version="1.0" encoding="UTF-8"?>
<svg xmlns="http://www.w3.org/2000/svg" xmlns:xlink="http://www.w3.org/1999/xlink" width="16" height="16" viewBox="0 0 16 16" version="1.1">
<g id="surface1">
<path style=" stroke:none;fill-rule:nonzero;fill:rgb(100%,100%,100%);fill-opacity:1;" d="M 11.035156 11.507812 C 10.835938 11.496094 10.636719 11.566406 10.488281 11.703125 C 10.339844 11.839844 10.253906 12.03125 10.246094 12.230469 C 10.246094 12.242188 10.253906 12.242188 10.253906 12.253906 L 10.246094 12.253906 C 10.246094 13.128906 10.039062 13.640625 9.714844 13.964844 C 9.390625 14.289062 8.855469 14.496094 7.957031 14.496094 C 7.105469 14.496094 6.59375 14.296875 6.273438 13.972656 C 5.953125 13.648438 5.75 13.128906 5.75 12.253906 C 5.75 11.835938 5.414062 11.5 5 11.5 C 4.582031 11.5 4.242188 11.835938 4.242188 12.253906 C 4.242188 13.128906 4.042969 13.648438 3.71875 13.972656 C 3.398438 14.296875 2.875 14.496094 2 14.496094 C 1.800781 14.496094 1.609375 14.578125 1.46875 14.71875 C 1.328125 14.859375 1.246094 15.050781 1.25 15.25 C 1.246094 15.449219 1.328125 15.640625 1.46875 15.78125 C 1.609375 15.921875 1.800781 16.003906 2 16.003906 C 3.125 16.003906 4.101562 15.703125 4.773438 15.03125 C 4.929688 14.875 4.882812 14.585938 5 14.40625 C 5.109375 14.585938 5.0625 14.875 5.210938 15.03125 C 5.882812 15.703125 6.851562 16.003906 7.957031 16.003906 C 9.101562 16.003906 10.085938 15.710938 10.769531 15.035156 C 10.925781 14.882812 10.875 14.585938 10.992188 14.398438 C 11.109375 14.582031 11.054688 14.875 11.203125 15.03125 C 11.890625 15.707031 12.875 16.003906 14.003906 16.003906 C 14.417969 16 14.75 15.664062 14.75 15.25 C 14.75 14.835938 14.417969 14.5 14.003906 14.496094 C 13.125 14.496094 12.589844 14.289062 12.261719 13.964844 C 11.933594 13.640625 11.726562 13.128906 11.742188 12.265625 L 11.734375 12.265625 C 11.734375 12.261719 11.742188 12.257812 11.742188 12.253906 C 11.742188 11.855469 11.429688 11.53125 11.035156 11.507812 Z M 11.035156 11.507812 "/>
<path style=" stroke:none;fill-rule:nonzero;fill:rgb(100%,100%,100%);fill-opacity:1;" d="M 5.035156 6.007812 C 4.988281 6.007812 4.941406 6.007812 4.894531 6.015625 C 4.703125 6.042969 4.53125 6.144531 4.414062 6.296875 C 4.382812 6.332031 4.355469 6.371094 4.335938 6.414062 C 4.277344 6.515625 4.246094 6.632812 4.242188 6.753906 C 4.242188 7.628906 4.042969 8.140625 3.71875 8.46875 C 3.398438 8.789062 2.875 9 2 9 C 1.800781 8.996094 1.609375 9.078125 1.46875 9.21875 C 1.328125 9.359375 1.246094 9.550781 1.25 9.75 C 1.246094 9.953125 1.328125 10.140625 1.46875 10.28125 C 1.609375 10.425781 1.800781 10.503906 2 10.503906 C 3.125 10.503906 4.101562 10.203125 4.773438 9.53125 C 4.929688 9.375 4.882812 9.089844 5 8.90625 C 5.109375 9.085938 5.0625 9.378906 5.210938 9.53125 C 5.882812 10.203125 6.851562 10.503906 7.957031 10.503906 C 9.101562 10.503906 10.085938 10.210938 10.769531 9.539062 C 10.925781 9.382812 10.875 9.085938 10.992188 8.902344 C 11.109375 9.082031 11.054688 9.375 11.203125 9.53125 C 11.890625 10.207031 12.875 10.503906 14.003906 10.503906 C 14.417969 10.5 14.75 10.164062 14.75 9.75 C 14.75 9.335938 14.417969 9 14.003906 9 C 13.125 9 12.589844 8.789062 12.261719 8.46875 C 11.933594 8.140625 11.726562 7.628906 11.742188 6.765625 L 11.734375 6.765625 C 11.734375 6.761719 11.742188 6.757812 11.742188 6.753906 C 11.734375 6.351562 11.40625 6.03125 11.007812 6.023438 C 10.605469 6.019531 10.269531 6.328125 10.246094 6.730469 C 10.246094 6.742188 10.253906 6.742188 10.253906 6.753906 L 10.246094 6.753906 C 10.246094 7.628906 10.039062 8.140625 9.714844 8.46875 C 9.390625 8.789062 8.855469 9 7.957031 9 C 7.105469 9 6.59375 8.796875 6.273438 8.472656 C 5.953125 8.148438 5.75 7.628906 5.75 6.753906 C 5.75 6.703125 5.746094 6.65625 5.734375 6.605469 C 5.726562 6.5625 5.710938 6.515625 5.691406 6.472656 C 5.671875 6.429688 5.648438 6.386719 5.625 6.347656 C 5.601562 6.308594 5.570312 6.273438 5.539062 6.234375 C 5.40625 6.101562 5.226562 6.015625 5.035156 6.007812 Z M 5.035156 6.007812 "/>
<path style=" stroke:none;fill-rule:nonzero;fill:rgb(100%,100%,100%);fill-opacity:1;" d="M 9.25 7 L 7.25 7 L 7.25 4 L 5.75 4 L 8.25 0 L 10.75 4 L 9.25 4 Z M 9.25 7 "/>
</g>
</svg>
