<?xml version="1.0" encoding="UTF-8"?>
<svg xmlns="http://www.w3.org/2000/svg" xmlns:xlink="http://www.w3.org/1999/xlink" width="16" height="16" viewBox="0 0 16 16" version="1.1">
<g id="surface1">
<path style=" stroke:none;fill-rule:nonzero;fill:rgb(100%,100%,100%);fill-opacity:1;" d="M 6.667969 9.785156 L 6.667969 9.742188 C 6.667969 8.070312 8.011719 6.664062 9.835938 6.253906 C 9.59375 4.71875 7.972656 3.464844 5.933594 3.464844 C 3.71875 3.464844 2 4.941406 2 6.652344 C 2 7.300781 2.238281 7.921875 2.691406 8.453125 C 2.714844 8.476562 2.75 8.515625 2.792969 8.5625 C 3.1875 8.964844 3.421875 9.492188 3.460938 10.054688 C 3.9375 9.777344 4.496094 9.675781 5.039062 9.757812 C 5.148438 9.777344 5.238281 9.789062 5.308594 9.800781 C 5.757812 9.859375 6.214844 9.851562 6.667969 9.785156 Z M 6.972656 11.085938 C 6.363281 11.1875 5.746094 11.199219 5.136719 11.121094 C 5.035156 11.109375 4.933594 11.09375 4.832031 11.078125 C 4.585938 11.039062 4.328125 11.085938 4.113281 11.21875 L 2.84375 11.984375 C 2.746094 12.042969 2.632812 12.070312 2.515625 12.0625 C 2.378906 12.050781 2.246094 11.984375 2.15625 11.878906 C 2.066406 11.773438 2.019531 11.632812 2.03125 11.492188 L 2.132812 10.308594 C 2.15625 10.003906 2.050781 9.707031 1.839844 9.492188 C 1.785156 9.433594 1.730469 9.375 1.679688 9.316406 C 1.042969 8.570312 0.667969 7.648438 0.667969 6.652344 C 0.667969 4.15625 3.023438 2.132812 5.933594 2.132812 C 8.640625 2.132812 10.867188 3.882812 11.167969 6.136719 C 13.414062 6.242188 15.199219 7.816406 15.199219 9.742188 C 15.199219 10.539062 14.894531 11.273438 14.378906 11.871094 C 14.347656 11.910156 14.304688 11.957031 14.25 12.007812 C 14.082031 12.179688 13.992188 12.417969 14.011719 12.660156 L 14.09375 13.609375 C 14.101562 13.722656 14.066406 13.832031 13.992188 13.917969 C 13.917969 14.003906 13.8125 14.054688 13.699219 14.0625 C 13.609375 14.070312 13.515625 14.046875 13.4375 14 L 12.40625 13.386719 C 12.230469 13.285156 12.027344 13.246094 11.824219 13.273438 C 11.726562 13.289062 11.644531 13.300781 11.578125 13.3125 C 11.367188 13.335938 11.152344 13.351562 10.933594 13.351562 C 9.136719 13.351562 7.601562 12.414062 6.972656 11.085938 Z M 11.621094 11.957031 C 12 11.898438 12.382812 11.941406 12.738281 12.074219 C 12.832031 11.695312 13.027344 11.351562 13.300781 11.074219 C 13.335938 11.039062 13.359375 11.011719 13.371094 10.996094 C 13.699219 10.621094 13.867188 10.1875 13.867188 9.742188 C 13.867188 8.539062 12.597656 7.464844 10.933594 7.464844 C 9.269531 7.464844 8 8.539062 8 9.742188 C 8 10.945312 9.269531 12.019531 10.933594 12.019531 C 11.09375 12.019531 11.253906 12.007812 11.410156 11.988281 C 11.460938 11.980469 11.535156 11.972656 11.621094 11.957031 Z M 11.621094 11.957031 "/>
</g>
</svg>
