<?xml version="1.0" encoding="UTF-8"?>
<svg xmlns="http://www.w3.org/2000/svg" xmlns:xlink="http://www.w3.org/1999/xlink" width="16" height="16" viewBox="0 0 16 16" version="1.1">
<g id="surface1">
<path style=" stroke:none;fill-rule:nonzero;fill:rgb(100%,100%,100%);fill-opacity:1;" d="M 1.335938 14.667969 L 2.238281 11.355469 C 1.644531 10.335938 1.332031 9.179688 1.332031 8 C 1.332031 4.316406 4.316406 1.332031 8 1.332031 C 11.683594 1.332031 14.667969 4.316406 14.667969 8 C 14.667969 11.683594 11.683594 14.667969 8 14.667969 C 6.820312 14.667969 5.664062 14.355469 4.648438 13.761719 Z M 5.59375 4.871094 C 5.507812 4.878906 5.421875 4.898438 5.347656 4.9375 C 5.273438 4.980469 5.207031 5.03125 5.152344 5.089844 C 5.070312 5.164062 5.023438 5.230469 4.976562 5.292969 C 4.730469 5.617188 4.597656 6.007812 4.601562 6.414062 C 4.601562 6.738281 4.6875 7.058594 4.820312 7.355469 C 5.09375 7.957031 5.542969 8.59375 6.132812 9.183594 C 6.277344 9.324219 6.414062 9.46875 6.566406 9.601562 C 7.300781 10.25 8.179688 10.714844 9.125 10.964844 L 9.503906 11.023438 C 9.628906 11.03125 9.753906 11.019531 9.875 11.015625 C 10.070312 11.003906 10.257812 10.953125 10.429688 10.859375 C 10.542969 10.800781 10.59375 10.773438 10.6875 10.714844 C 10.6875 10.714844 10.714844 10.695312 10.769531 10.652344 C 10.859375 10.585938 10.914062 10.539062 10.988281 10.460938 C 11.046875 10.402344 11.09375 10.335938 11.128906 10.261719 C 11.183594 10.152344 11.234375 9.945312 11.253906 9.769531 C 11.269531 9.640625 11.265625 9.566406 11.265625 9.523438 C 11.261719 9.453125 11.203125 9.378906 11.136719 9.347656 L 10.75 9.171875 C 10.75 9.171875 10.171875 8.917969 9.816406 8.757812 C 9.777344 8.742188 9.738281 8.734375 9.699219 8.730469 C 9.605469 8.722656 9.515625 8.753906 9.445312 8.816406 L 9.445312 8.8125 C 9.441406 8.8125 9.398438 8.851562 8.914062 9.4375 C 8.859375 9.511719 8.761719 9.546875 8.671875 9.523438 C 8.628906 9.511719 8.585938 9.496094 8.542969 9.480469 C 8.460938 9.445312 8.433594 9.429688 8.375 9.40625 L 8.371094 9.40625 C 7.992188 9.238281 7.636719 9.011719 7.324219 8.738281 C 7.242188 8.664062 7.164062 8.585938 7.082031 8.507812 C 6.820312 8.257812 6.59375 7.972656 6.402344 7.660156 L 6.363281 7.597656 C 6.335938 7.554688 6.3125 7.511719 6.296875 7.460938 C 6.269531 7.363281 6.335938 7.285156 6.335938 7.285156 C 6.335938 7.285156 6.5 7.109375 6.574219 7.011719 C 6.636719 6.933594 6.695312 6.847656 6.75 6.761719 C 6.828125 6.636719 6.851562 6.507812 6.8125 6.40625 C 6.625 5.949219 6.429688 5.496094 6.234375 5.046875 C 6.191406 4.957031 6.078125 4.890625 5.96875 4.878906 C 5.933594 4.875 5.898438 4.871094 5.863281 4.867188 C 5.773438 4.863281 5.683594 4.863281 5.59375 4.871094 Z M 5.59375 4.871094 "/>
</g>
</svg>
