<?xml version="1.0" encoding="UTF-8"?>
<svg xmlns="http://www.w3.org/2000/svg" xmlns:xlink="http://www.w3.org/1999/xlink" width="16" height="16" viewBox="0 0 16 16" version="1.1">
<g id="surface1">
<path style=" stroke:none;fill-rule:nonzero;fill:rgb(100%,100%,100%);fill-opacity:1;" d="M 12.226562 0.00390625 C 10.609375 0.00390625 9.09375 -0.0351562 7.960938 0.9375 C 6.882812 1.863281 6.429688 3.71875 6.378906 6.695312 L 1.050781 12.027344 C 0.445312 12.632812 0.109375 13.273438 0.0234375 13.886719 C -0.0625 14.5 0.117188 15.09375 0.511719 15.488281 C 0.90625 15.882812 1.507812 16.0625 2.121094 15.976562 C 2.734375 15.890625 3.367188 15.554688 3.972656 14.949219 L 9.304688 9.617188 C 12.28125 9.566406 14.136719 9.117188 15.0625 8.039062 C 16.035156 6.90625 16 5.390625 16 3.773438 C 15.992188 3.558594 15.863281 3.367188 15.664062 3.285156 C 15.46875 3.203125 15.238281 3.25 15.085938 3.398438 L 12.011719 6.460938 L 9.539062 6.460938 L 9.539062 3.988281 L 12.609375 0.921875 C 12.765625 0.769531 12.8125 0.539062 12.726562 0.335938 C 12.640625 0.132812 12.445312 0.00390625 12.226562 0.00390625 Z M 2 13 C 2.554688 13 3 13.445312 3 14 C 3 14.554688 2.554688 15 2 15 C 1.449219 15 1 14.554688 1 14 C 1 13.445312 1.449219 13 2 13 Z M 2 13 "/>
</g>
</svg>
