<?xml version="1.0" encoding="UTF-8"?>
<svg xmlns="http://www.w3.org/2000/svg" xmlns:xlink="http://www.w3.org/1999/xlink" width="16" height="16" viewBox="0 0 16 16" version="1.1">
<g id="surface1">
<path style=" stroke:none;fill-rule:nonzero;fill:rgb(0%,0%,0%);fill-opacity:1;" d="M 8 8.667969 C 9.105469 8.667969 10 9.5625 10 10.667969 C 10 11.234375 9.765625 11.742188 9.386719 12.109375 L 8.113281 13.332031 L 10 13.332031 L 10 14.667969 L 6 14.667969 L 6 13.515625 L 8.460938 11.148438 C 8.589844 11.023438 8.667969 10.855469 8.667969 10.667969 C 8.667969 10.296875 8.367188 10 8 10 C 7.632812 10 7.332031 10.296875 7.332031 10.667969 L 6 10.667969 C 6 9.5625 6.894531 8.667969 8 8.667969 Z M 12 8.667969 L 12 11.332031 L 13.332031 11.332031 L 13.332031 8.667969 L 14.667969 8.667969 L 14.667969 14.667969 L 13.332031 14.667969 L 13.332031 12.667969 L 10.667969 12.667969 L 10.667969 8.667969 Z M 2.667969 8 C 2.667969 9.683594 3.449219 11.1875 4.667969 12.164062 L 4.667969 13.773438 C 2.675781 12.621094 1.332031 10.46875 1.332031 8 Z M 8 1.332031 C 11.457031 1.332031 14.300781 3.964844 14.632812 7.332031 L 13.292969 7.332031 C 12.964844 4.703125 10.71875 2.667969 8 2.667969 C 6.167969 2.667969 4.550781 3.589844 3.589844 5 L 5.332031 5 L 5.332031 6.332031 L 1.332031 6.332031 L 1.332031 2.332031 L 2.667969 2.332031 L 2.667969 4 C 3.882812 2.378906 5.820312 1.332031 8 1.332031 Z M 8 1.332031 "/>
</g>
</svg>
