<?xml version="1.0" encoding="UTF-8"?>
<svg xmlns="http://www.w3.org/2000/svg" xmlns:xlink="http://www.w3.org/1999/xlink" width="16" height="16" viewBox="0 0 16 16" version="1.1">
<g id="surface1">
<path style=" stroke:none;fill-rule:nonzero;fill:rgb(0%,0%,0%);fill-opacity:1;" d="M 9.332031 14 L 8 15.332031 L 6.667969 14 L 3.328125 14 C 2.59375 14 2 13.40625 2 12.671875 L 2 3.328125 C 2 2.59375 2.59375 2 3.328125 2 L 12.671875 2 C 13.40625 2 14 2.59375 14 3.328125 L 14 12.671875 C 14 13.40625 13.40625 14 12.671875 14 Z M 12.667969 12.667969 L 12.667969 3.332031 L 3.332031 3.332031 L 3.332031 12.667969 L 7.21875 12.667969 L 8 13.449219 L 8.78125 12.667969 Z M 5.316406 12.121094 C 4.90625 11.941406 4.511719 11.722656 4.148438 11.46875 C 5.007812 10.136719 6.484375 9.332031 8.066406 9.332031 C 9.667969 9.332031 11.078125 10.136719 11.921875 11.363281 C 11.5625 11.628906 11.175781 11.859375 10.769531 12.046875 C 10.144531 11.179688 9.136719 10.664062 8.066406 10.667969 C 6.925781 10.667969 5.914062 11.242188 5.316406 12.121094 Z M 8 8.667969 C 6.710938 8.667969 5.667969 7.621094 5.667969 6.332031 C 5.667969 5.042969 6.710938 4 8 4 C 9.289062 4 10.332031 5.042969 10.332031 6.332031 C 10.332031 7.621094 9.289062 8.667969 8 8.667969 Z M 8 7.332031 C 8.550781 7.332031 9 6.886719 9 6.332031 C 9 5.78125 8.550781 5.332031 8 5.332031 C 7.449219 5.332031 7 5.78125 7 6.332031 C 7 6.886719 7.449219 7.332031 8 7.332031 Z M 8 7.332031 "/>
</g>
</svg>
