<?xml version="1.0" encoding="UTF-8"?>
<svg xmlns="http://www.w3.org/2000/svg" xmlns:xlink="http://www.w3.org/1999/xlink" width="16" height="16" viewBox="0 0 16 16" version="1.1">
<g id="surface1">
<path style=" stroke:none;fill-rule:nonzero;fill:rgb(0%,0%,0%);fill-opacity:1;" d="M 8 1.332031 C 11.679688 1.332031 14.667969 4.320312 14.667969 8 C 14.667969 11.679688 11.679688 14.667969 8 14.667969 C 4.320312 14.667969 1.332031 11.679688 1.332031 8 C 1.332031 4.320312 4.320312 1.332031 8 1.332031 Z M 4.015625 10.277344 C 4.992188 11.738281 6.464844 12.667969 8.105469 12.667969 C 9.75 12.667969 11.21875 11.738281 12.199219 10.277344 C 11.085938 9.242188 9.625 8.664062 8.105469 8.667969 C 6.585938 8.664062 5.125 9.242188 4.015625 10.277344 Z M 8 7.332031 C 9.105469 7.332031 10 6.4375 10 5.332031 C 10 4.230469 9.105469 3.332031 8 3.332031 C 6.894531 3.332031 6 4.230469 6 5.332031 C 6 6.4375 6.894531 7.332031 8 7.332031 Z M 8 7.332031 "/>
</g>
</svg>
