<?xml version="1.0" encoding="UTF-8"?>
<svg xmlns="http://www.w3.org/2000/svg" xmlns:xlink="http://www.w3.org/1999/xlink" width="16" height="16" viewBox="0 0 16 16" version="1.1">
<g id="surface1">
<path style=" stroke:none;fill-rule:nonzero;fill:rgb(0%,0%,0%);fill-opacity:1;" d="M 6.496094 14.496094 C 3.539062 13.816406 1.332031 11.164062 1.332031 8 C 1.332031 4.316406 4.316406 1.332031 8 1.332031 C 11.683594 1.332031 14.667969 4.316406 14.667969 8 C 14.667969 11.164062 12.460938 13.816406 9.503906 14.496094 L 8 16 Z M 4.675781 12.171875 C 5.296875 12.667969 6.019531 13.019531 6.796875 13.199219 L 7.167969 13.285156 L 8 14.113281 L 8.832031 13.285156 L 9.203125 13.195312 C 10.03125 13.007812 10.796875 12.621094 11.445312 12.074219 C 10.566406 11.171875 9.363281 10.664062 8.105469 10.667969 C 6.75 10.667969 5.527344 11.246094 4.675781 12.171875 Z M 3.742188 11.214844 C 4.875 10.011719 6.457031 9.332031 8.105469 9.332031 C 9.699219 9.332031 11.222656 9.964844 12.347656 11.089844 C 13.933594 8.859375 13.574219 5.792969 11.515625 3.988281 C 9.460938 2.1875 6.371094 2.230469 4.371094 4.09375 C 2.367188 5.957031 2.097656 9.03125 3.742188 11.214844 Z M 8 8.667969 C 6.527344 8.667969 5.332031 7.472656 5.332031 6 C 5.332031 4.527344 6.527344 3.332031 8 3.332031 C 9.472656 3.332031 10.667969 4.527344 10.667969 6 C 10.667969 7.472656 9.472656 8.667969 8 8.667969 Z M 8 7.332031 C 8.738281 7.332031 9.332031 6.738281 9.332031 6 C 9.332031 5.261719 8.738281 4.667969 8 4.667969 C 7.261719 4.667969 6.667969 5.261719 6.667969 6 C 6.667969 6.738281 7.261719 7.332031 8 7.332031 Z M 8 7.332031 "/>
</g>
</svg>
