<?xml version="1.0" encoding="UTF-8"?>
<svg xmlns="http://www.w3.org/2000/svg" xmlns:xlink="http://www.w3.org/1999/xlink" width="16" height="16" viewBox="0 0 16 16" version="1.1">
<g id="surface1">
<path style=" stroke:none;fill-rule:nonzero;fill:rgb(0%,0%,0%);fill-opacity:1;" d="M 2.667969 13.332031 L 2.667969 9.332031 C 2.667969 6.386719 5.054688 4 8 4 C 10.945312 4 13.332031 6.386719 13.332031 9.332031 L 13.332031 13.332031 L 14 13.332031 L 14 14.667969 L 2 14.667969 L 2 13.332031 Z M 4 13.332031 L 12 13.332031 L 12 9.332031 C 12 7.125 10.210938 5.332031 8 5.332031 C 5.789062 5.332031 4 7.125 4 9.332031 Z M 7.332031 1.332031 L 8.667969 1.332031 L 8.667969 3.332031 L 7.332031 3.332031 Z M 13.183594 3.207031 L 14.128906 4.148438 L 12.714844 5.5625 L 11.769531 4.621094 Z M 1.871094 4.148438 L 2.816406 3.207031 L 4.230469 4.617188 L 3.285156 5.5625 Z M 4.667969 9.332031 C 4.667969 7.492188 6.160156 6 8 6 L 8 7.332031 C 6.894531 7.332031 6 8.230469 6 9.332031 Z M 4.667969 9.332031 "/>
</g>
</svg>
