<?xml version="1.0" encoding="UTF-8"?>
<svg xmlns="http://www.w3.org/2000/svg" xmlns:xlink="http://www.w3.org/1999/xlink" width="16" height="16" viewBox="0 0 16 16" version="1.1">
<g id="surface1">
<path style=" stroke:none;fill-rule:nonzero;fill:rgb(0%,0%,0%);fill-opacity:1;" d="M 8 1.332031 C 11.128906 1.332031 13.667969 3.871094 13.667969 7 C 13.667969 11.332031 10 15 8 15 C 6 15 2.332031 11.332031 2.332031 7 C 2.332031 3.871094 4.871094 1.332031 8 1.332031 Z M 8 2.667969 C 5.605469 2.667969 3.667969 4.605469 3.667969 7 C 3.667969 10.195312 6.441406 13.667969 8 13.667969 C 9.558594 13.667969 12.332031 10.195312 12.332031 7 C 12.332031 4.605469 10.394531 2.667969 8 2.667969 Z M 11.667969 7.332031 C 11.773438 7.332031 11.878906 7.339844 11.984375 7.351562 C 12.078125 8.25 11.761719 9.148438 11.121094 9.789062 C 10.480469 10.429688 9.585938 10.746094 8.683594 10.648438 C 8.59375 9.804688 8.867188 8.960938 9.4375 8.328125 C 10.003906 7.695312 10.816406 7.332031 11.667969 7.332031 Z M 4.332031 7.332031 C 5.183594 7.332031 5.996094 7.695312 6.5625 8.328125 C 7.132812 8.960938 7.40625 9.804688 7.316406 10.648438 C 6.414062 10.746094 5.519531 10.429688 4.878906 9.789062 C 4.238281 9.148438 3.921875 8.25 4.015625 7.351562 C 4.121094 7.339844 4.226562 7.332031 4.332031 7.332031 Z M 4.332031 7.332031 "/>
</g>
</svg>
