<?xml version="1.0" encoding="UTF-8"?>
<svg xmlns="http://www.w3.org/2000/svg" xmlns:xlink="http://www.w3.org/1999/xlink" width="16" height="16" viewBox="0 0 16 16" version="1.1">
<g id="surface1">
<path style=" stroke:none;fill-rule:nonzero;fill:rgb(0%,0%,0%);fill-opacity:1;" d="M 14.28125 10.238281 C 11.726562 9.46875 10.246094 9.011719 9.828125 8.863281 C 10.226562 8.171875 10.523438 7.425781 10.710938 6.652344 L 8.535156 6.652344 L 8.535156 5.914062 L 11.199219 5.914062 L 11.199219 5.460938 L 8.535156 5.460938 L 8.535156 4.230469 L 7.507812 4.230469 C 7.324219 4.230469 7.300781 4.394531 7.300781 4.394531 L 7.300781 5.457031 L 4.800781 5.457031 L 4.800781 5.910156 L 7.300781 5.910156 L 7.300781 6.644531 L 5.253906 6.644531 L 5.253906 7.054688 L 9.402344 7.054688 C 9.257812 7.558594 9.058594 8.046875 8.8125 8.507812 C 7.871094 8.199219 7.347656 7.984375 6.203125 7.878906 C 4.03125 7.667969 3.53125 8.863281 3.449219 9.59375 C 3.332031 10.710938 4.320312 11.617188 5.792969 11.617188 C 7.265625 11.617188 8.246094 10.933594 9.179688 9.800781 C 9.957031 10.175781 11.402344 10.820312 13.519531 11.738281 C 12.28125 13.570312 10.210938 14.667969 8 14.667969 C 4.316406 14.667969 1.332031 11.683594 1.332031 8 C 1.332031 4.316406 4.316406 1.332031 8 1.332031 C 11.683594 1.332031 14.667969 4.316406 14.667969 8 C 14.667969 8.761719 14.539062 9.519531 14.28125 10.238281 Z M 5.621094 10.910156 C 4.0625 10.910156 3.820312 9.925781 3.898438 9.515625 C 3.980469 9.105469 4.433594 8.570312 5.300781 8.570312 C 6.296875 8.570312 7.1875 8.828125 8.261719 9.34375 C 7.503906 10.332031 6.582031 10.910156 5.621094 10.910156 Z M 5.621094 10.910156 "/>
</g>
</svg>
