<?xml version="1.0" encoding="UTF-8"?>
<svg xmlns="http://www.w3.org/2000/svg" xmlns:xlink="http://www.w3.org/1999/xlink" width="16" height="16" viewBox="0 0 16 16" version="1.1">
<g id="surface1">
<path style=" stroke:none;fill-rule:nonzero;fill:rgb(0%,0%,0%);fill-opacity:1;" d="M 8 1.332031 C 11.683594 1.332031 14.667969 4.316406 14.667969 8 C 14.667969 11.683594 11.683594 14.667969 8 14.667969 C 4.316406 14.667969 1.332031 11.683594 1.332031 8 C 1.332031 4.316406 4.316406 1.332031 8 1.332031 Z M 5.882812 10.230469 C 5.617188 9.910156 5.292969 9.796875 4.894531 9.890625 L 4.796875 9.917969 L 4.402344 10.59375 C 4.25 10.84375 4.320312 11.171875 4.566406 11.335938 C 4.808594 11.5 5.140625 11.441406 5.3125 11.203125 L 5.355469 11.144531 Z M 8.808594 5.773438 C 8.480469 6.042969 8.152344 6.839844 8.613281 7.632812 L 10.640625 11.140625 C 10.785156 11.390625 11.097656 11.484375 11.355469 11.355469 C 11.613281 11.230469 11.730469 10.925781 11.625 10.660156 L 11.589844 10.59375 L 11.058594 9.664062 L 11.851562 9.664062 C 11.996094 9.667969 12.136719 9.609375 12.238281 9.503906 C 12.339844 9.402344 12.398438 9.261719 12.398438 9.117188 C 12.398438 8.839844 12.191406 8.605469 11.917969 8.574219 L 11.847656 8.570312 L 10.421875 8.570312 L 8.960938 6.039062 Z M 8.992188 3.742188 C 8.753906 3.605469 8.453125 3.667969 8.285156 3.882812 L 8.242188 3.945312 L 7.996094 4.367188 L 7.757812 3.945312 C 7.613281 3.699219 7.300781 3.605469 7.042969 3.730469 C 6.785156 3.855469 6.667969 4.160156 6.773438 4.425781 L 6.808594 4.492188 L 7.367188 5.464844 L 5.574219 8.566406 L 4.175781 8.566406 C 4.03125 8.566406 3.890625 8.625 3.789062 8.726562 C 3.6875 8.828125 3.628906 8.96875 3.628906 9.113281 C 3.628906 9.394531 3.835938 9.625 4.109375 9.660156 L 4.175781 9.664062 L 9.164062 9.664062 C 9.390625 9.238281 9.125 8.628906 8.625 8.570312 L 8.542969 8.566406 L 6.839844 8.566406 L 9.191406 4.492188 C 9.34375 4.230469 9.253906 3.894531 8.992188 3.742188 Z M 8.992188 3.742188 "/>
</g>
</svg>
