<?xml version="1.0" encoding="UTF-8"?>
<svg xmlns="http://www.w3.org/2000/svg" xmlns:xlink="http://www.w3.org/1999/xlink" width="16" height="16" viewBox="0 0 16 16" version="1.1">
<g id="surface1">
<path style=" stroke:none;fill-rule:nonzero;fill:rgb(0%,0%,0%);fill-opacity:1;" d="M 4.5 1.667969 C 6.066406 1.667969 7.332031 2.933594 7.332031 4.5 L 7.332031 7.332031 L 4.5 7.332031 C 2.933594 7.332031 1.667969 6.066406 1.667969 4.5 C 1.667969 2.933594 2.933594 1.667969 4.5 1.667969 Z M 6 6 L 6 4.5 C 6 3.671875 5.328125 3 4.5 3 C 3.671875 3 3 3.671875 3 4.5 C 3 5.328125 3.671875 6 4.5 6 Z M 4.5 8.667969 L 7.332031 8.667969 L 7.332031 11.5 C 7.332031 13.066406 6.066406 14.332031 4.5 14.332031 C 2.933594 14.332031 1.667969 13.066406 1.667969 11.5 C 1.667969 9.933594 2.933594 8.667969 4.5 8.667969 Z M 4.5 10 C 3.671875 10 3 10.671875 3 11.5 C 3 12.328125 3.671875 13 4.5 13 C 5.328125 13 6 12.328125 6 11.5 L 6 10 Z M 11.5 1.667969 C 13.066406 1.667969 14.332031 2.933594 14.332031 4.5 C 14.332031 6.066406 13.066406 7.332031 11.5 7.332031 L 8.667969 7.332031 L 8.667969 4.5 C 8.667969 2.933594 9.933594 1.667969 11.5 1.667969 Z M 11.5 6 C 12.328125 6 13 5.328125 13 4.5 C 13 3.671875 12.328125 3 11.5 3 C 10.671875 3 10 3.671875 10 4.5 L 10 6 Z M 8.667969 8.667969 L 11.5 8.667969 C 13.066406 8.667969 14.332031 9.933594 14.332031 11.5 C 14.332031 13.066406 13.066406 14.332031 11.5 14.332031 C 9.933594 14.332031 8.667969 13.066406 8.667969 11.5 Z M 10 10 L 10 11.5 C 10 12.328125 10.671875 13 11.5 13 C 12.328125 13 13 12.328125 13 11.5 C 13 10.671875 12.328125 10 11.5 10 Z M 10 10 "/>
</g>
</svg>
