<?xml version="1.0" encoding="UTF-8"?>
<svg xmlns="http://www.w3.org/2000/svg" xmlns:xlink="http://www.w3.org/1999/xlink" width="16" height="16" viewBox="0 0 16 16" version="1.1">
<g id="surface1">
<path style=" stroke:none;fill-rule:evenodd;fill:rgb(0%,0%,0%);fill-opacity:1;" d="M 4 1 C 2.890625 1 2 1.890625 2 3 L 2 7 C 3.570312 7 5 8.421875 5.007812 9.992188 L 11 9.992188 C 11 8.425781 12.429688 7 14 7 L 14 3 C 14 1.890625 13.109375 1 12 1 Z M 4 1 "/>
<path style=" stroke:none;fill-rule:nonzero;fill:rgb(0%,0%,0%);fill-opacity:1;" d="M 2 8 C 0.894531 8 0 8.898438 0 10 L 0 16 L 16 16 L 16 15 L 15.996094 15 L 15.996094 10 C 15.996094 8.898438 15.105469 8.007812 14.003906 8 C 12.898438 8 12.003906 8.898438 12.003906 10 L 12.003906 11 L 4 11 L 4 10 C 4 8.898438 3.105469 8 2 8 Z M 2 8 "/>
</g>
</svg>
