<?xml version="1.0" encoding="UTF-8"?>
<svg xmlns="http://www.w3.org/2000/svg" xmlns:xlink="http://www.w3.org/1999/xlink" width="16" height="16" viewBox="0 0 16 16" version="1.1">
<g id="surface1">
<path style=" stroke:none;fill-rule:evenodd;fill:rgb(0%,0%,0%);fill-opacity:1;" d="M 14.15625 1.023438 C 12.789062 -0.34375 10.59375 -0.34375 9.230469 1.023438 L 14.976562 6.769531 C 16.34375 5.40625 16.34375 3.210938 14.976562 1.84375 Z M 8.40625 1.847656 L 1.839844 8.414062 L 7.585938 14.160156 L 14.152344 7.59375 Z M 9.226562 4.289062 C 9.414062 4.453125 9.539062 4.683594 9.5625 4.976562 C 9.609375 5.328125 9.484375 5.695312 9.230469 5.945312 C 8.429688 6.851562 6.835938 5.824219 7.324219 4.71875 C 7.582031 3.886719 8.664062 3.789062 9.226562 4.289062 Z M 11.6875 6.75 C 11.875 6.914062 12 7.148438 12.023438 7.4375 C 12.070312 7.789062 11.945312 8.160156 11.695312 8.410156 C 10.890625 9.3125 9.296875 8.289062 9.785156 7.179688 C 10.046875 6.351562 11.125 6.253906 11.6875 6.75 Z M 5.941406 7.570312 C 6.128906 7.734375 6.257812 7.96875 6.277344 8.257812 C 6.328125 8.609375 6.203125 8.980469 5.945312 9.230469 C 5.148438 10.132812 3.550781 9.109375 4.039062 8.003906 C 4.296875 7.171875 5.382812 7.074219 5.941406 7.570312 Z M 8.40625 10.03125 C 8.589844 10.195312 8.71875 10.429688 8.738281 10.71875 C 8.789062 11.070312 8.664062 11.445312 8.410156 11.695312 C 7.609375 12.59375 6.015625 11.570312 6.5 10.464844 C 6.761719 9.632812 7.84375 9.539062 8.40625 10.03125 Z M 1.023438 9.230469 C -0.34375 10.59375 -0.34375 12.789062 1.023438 14.15625 L 1.84375 14.976562 C 3.210938 16.34375 5.40625 16.34375 6.769531 14.976562 Z M 1.023438 9.230469 "/>
</g>
</svg>
