<?xml version="1.0" encoding="UTF-8"?>
<svg xmlns="http://www.w3.org/2000/svg" xmlns:xlink="http://www.w3.org/1999/xlink" width="16" height="16" viewBox="0 0 16 16" version="1.1">
<g id="surface1">
<path style=" stroke:none;fill-rule:evenodd;fill:rgb(0%,0%,0%);fill-opacity:1;" d="M 4 14 C 4 15.109375 4.890625 16 6 16 L 10 16 C 11.109375 16 12 15.109375 12 14 L 12 2 C 12 0.890625 11.109375 0 10 0 L 6 0 C 4.890625 0 4 0.890625 4 2 Z M 5 14 L 5 2 C 5 1.445312 5.445312 1 6 1 L 10 1 C 10.554688 1 11 1.445312 11 2 L 11 14 C 11 14.554688 10.554688 15 10 15 L 6 15 C 5.445312 15 5 14.554688 5 14 Z M 5 14 "/>
<path style=" stroke:none;fill-rule:evenodd;fill:rgb(0%,0%,0%);fill-opacity:1;" d="M 6 13 L 6 7 C 6 6.445312 6.445312 6 7 6 L 9 6 C 9.554688 6 10 6.445312 10 7 L 10 13 C 10 13.554688 9.554688 14 9 14 L 7 14 C 6.445312 14 6 13.554688 6 13 Z M 6 13 "/>
</g>
</svg>
