<?xml version="1.0" encoding="UTF-8"?>
<svg xmlns="http://www.w3.org/2000/svg" xmlns:xlink="http://www.w3.org/1999/xlink" width="16" height="16" viewBox="0 0 16 16" version="1.1">
<g id="surface1">
<path style=" stroke:none;fill-rule:nonzero;fill:rgb(0%,0%,0%);fill-opacity:1;" d="M 3.667969 8 L 2.667969 8 L 2.667969 4.667969 L 1.332031 4.667969 L 1.332031 3.332031 L 5.332031 3.332031 L 5.332031 4.667969 L 4 4.667969 L 4 6.53125 L 10.542969 4.777344 L 10.15625 3.332031 L 8 3.332031 L 8 2 L 10.652344 2 C 10.960938 1.992188 11.230469 2.195312 11.3125 2.492188 L 12.347656 6.359375 L 11.058594 6.703125 L 10.886719 6.066406 Z M 3.332031 14 C 1.859375 14 0.667969 12.804688 0.667969 11.332031 C 0.667969 9.859375 1.859375 8.667969 3.332031 8.667969 C 4.804688 8.667969 6 9.859375 6 11.332031 C 6 12.804688 4.804688 14 3.332031 14 Z M 3.332031 12 C 3.703125 12 4 11.703125 4 11.332031 C 4 10.964844 3.703125 10.667969 3.332031 10.667969 C 2.964844 10.667969 2.667969 10.964844 2.667969 11.332031 C 2.667969 11.703125 2.964844 12 3.332031 12 Z M 12 14 C 10.160156 14 8.667969 12.507812 8.667969 10.667969 C 8.667969 8.824219 10.160156 7.332031 12 7.332031 C 13.839844 7.332031 15.332031 8.824219 15.332031 10.667969 C 15.332031 12.507812 13.839844 14 12 14 Z M 12 11.332031 C 12.367188 11.332031 12.667969 11.035156 12.667969 10.667969 C 12.667969 10.296875 12.367188 10 12 10 C 11.632812 10 11.332031 10.296875 11.332031 10.667969 C 11.332031 11.035156 11.632812 11.332031 12 11.332031 Z M 12 11.332031 "/>
</g>
</svg>
