<?xml version="1.0" encoding="UTF-8"?>
<svg xmlns="http://www.w3.org/2000/svg" xmlns:xlink="http://www.w3.org/1999/xlink" width="16" height="16" viewBox="0 0 16 16" version="1.1">
<g id="surface1">
<path style=" stroke:none;fill-rule:nonzero;fill:rgb(0%,0%,0%);fill-opacity:1;" d="M 12.667969 6 C 13.113281 6.707031 13.332031 7.597656 13.332031 8.667969 C 13.332031 10.667969 11 11.332031 10 14.667969 C 9.554688 14.285156 9.332031 13.726562 9.332031 13 C 9.332031 10.679688 12.667969 9.472656 12.667969 6 Z M 9.667969 3.332031 C 10.109375 4.152344 10.339844 5.070312 10.332031 6 C 10.332031 9.332031 6.332031 10 7.667969 14.667969 C 6.554688 13.894531 6 12.78125 6 11.332031 C 6 9.117188 9.667969 7.332031 9.667969 3.332031 Z M 6.667969 0.667969 C 7.113281 1.554688 7.332031 2.554688 7.332031 3.667969 C 7.332031 7.667969 1.332031 8.667969 5.332031 14.667969 C 3.667969 14.332031 2.332031 12.667969 2.332031 10.667969 C 2.332031 6.332031 6.667969 5.667969 6.667969 0.667969 Z M 6.667969 0.667969 "/>
</g>
</svg>
