<?xml version="1.0" encoding="UTF-8"?>
<svg xmlns="http://www.w3.org/2000/svg" xmlns:xlink="http://www.w3.org/1999/xlink" width="16" height="16" viewBox="0 0 16 16" version="1.1">
<g id="surface1">
<path style=" stroke:none;fill-rule:evenodd;fill:rgb(0%,0%,0%);fill-opacity:1;" d="M 8.003906 -0.0078125 C 6.625 -0.0117188 5.246094 0.34375 4.023438 1.070312 C 0.707031 2.902344 -0.851562 7.078125 0.453125 10.632812 C 1.640625 14.230469 5.460938 16.535156 9.195312 15.90625 C 13.054688 15.390625 16.058594 11.886719 15.988281 7.992188 C 15.992188 6.105469 15.3125 4.257812 14.085938 2.820312 C 12.878906 1.359375 11.183594 0.425781 9.375 0.109375 C 8.921875 0.03125 8.460938 -0.0078125 8.003906 -0.0078125 Z M 7.992188 2.015625 C 8.335938 2.019531 8.6875 2.050781 9.027344 2.109375 C 10.398438 2.351562 11.6875 3.039062 12.554688 4.097656 L 12.5625 4.101562 L 12.570312 4.109375 C 13.484375 5.175781 14.007812 6.59375 14.003906 7.992188 L 14.003906 8.015625 C 14.023438 9.125 13.671875 10.210938 13.070312 11.152344 C 11.296875 9.542969 6.492188 5.128906 4.679688 3 C 4.785156 2.933594 4.890625 2.867188 5 2.804688 L 5.019531 2.796875 L 5.035156 2.78125 C 5.917969 2.253906 6.953125 2.007812 7.992188 2.015625 Z M 2.894531 4.894531 L 11.105469 13.105469 C 10.4375 13.527344 9.699219 13.828125 8.917969 13.929688 L 8.894531 13.929688 L 8.875 13.9375 C 6.167969 14.398438 3.191406 12.597656 2.339844 9.988281 L 2.332031 9.972656 L 2.328125 9.960938 C 1.722656 8.320312 2 6.410156 2.894531 4.894531 Z M 2.894531 4.894531 "/>
</g>
</svg>
