<?xml version="1.0" encoding="UTF-8"?>
<svg xmlns="http://www.w3.org/2000/svg" xmlns:xlink="http://www.w3.org/1999/xlink" width="16" height="16" viewBox="0 0 16 16" version="1.1">
<g id="surface1">
<path style=" stroke:none;fill-rule:nonzero;fill:rgb(0%,0%,0%);fill-opacity:1;" d="M 8.859375 4.144531 L 12.152344 1.582031 C 12.417969 1.378906 12.792969 1.402344 13.03125 1.636719 L 15.027344 3.632812 C 15.265625 3.871094 15.289062 4.25 15.082031 4.515625 L 12.523438 7.808594 C 12.890625 9.296875 12.550781 10.875 11.601562 12.085938 C 10.652344 13.292969 9.203125 14 7.667969 14 C 5.332031 14 2.332031 13 0.667969 12 C 3.320312 10 2.699219 8.792969 3 7.667969 C 3.707031 5.035156 6.226562 3.496094 8.859375 4.144531 Z M 11.132812 5.398438 C 11.179688 5.4375 11.222656 5.480469 11.261719 5.527344 L 12.019531 6.28125 L 13.671875 4.160156 L 12.507812 2.996094 L 10.382812 4.648438 Z M 11.132812 5.398438 "/>
</g>
</svg>
