<?xml version="1.0" encoding="UTF-8"?>
<svg xmlns="http://www.w3.org/2000/svg" xmlns:xlink="http://www.w3.org/1999/xlink" width="16" height="16" viewBox="0 0 16 16" version="1.1">
<g id="surface1">
<path style=" stroke:none;fill-rule:nonzero;fill:rgb(0%,0%,0%);fill-opacity:1;" d="M 11.023438 10.632812 L 12.4375 9.21875 L 10.316406 7.097656 L 12.671875 4.742188 L 11.261719 3.328125 L 8.902344 5.683594 L 6.78125 3.5625 L 5.367188 4.976562 Z M 10.082031 11.574219 L 4.425781 5.917969 L 2.539062 7.804688 L 8.195312 13.460938 Z M 8.902344 3.796875 L 10.789062 1.910156 C 11.046875 1.652344 11.46875 1.652344 11.730469 1.910156 L 14.089844 4.269531 C 14.347656 4.53125 14.347656 4.953125 14.089844 5.210938 L 12.203125 7.097656 L 13.851562 8.746094 C 13.976562 8.871094 14.046875 9.042969 14.046875 9.21875 C 14.046875 9.394531 13.976562 9.566406 13.851562 9.691406 L 8.667969 14.875 C 8.40625 15.136719 7.984375 15.136719 7.722656 14.875 L 1.125 8.277344 C 0.863281 8.015625 0.863281 7.59375 1.125 7.332031 L 6.308594 2.148438 C 6.433594 2.023438 6.605469 1.953125 6.78125 1.953125 C 6.957031 1.953125 7.128906 2.023438 7.253906 2.148438 Z M 8.902344 3.796875 "/>
</g>
</svg>
