<?xml version="1.0" encoding="UTF-8"?>
<svg xmlns="http://www.w3.org/2000/svg" xmlns:xlink="http://www.w3.org/1999/xlink" width="16" height="16" viewBox="0 0 16 16" version="1.1">
<g id="surface1">
<path style=" stroke:none;fill-rule:evenodd;fill:rgb(0%,0%,0%);fill-opacity:1;" d="M 7.320312 5.929688 C 7.3125 5.898438 7.3125 5.867188 7.3125 5.839844 C 7.308594 5.707031 7.359375 5.578125 7.453125 5.484375 C 7.546875 5.390625 7.679688 5.335938 7.8125 5.335938 C 8.871094 5.335938 9.886719 5.757812 10.636719 6.507812 C 11.386719 7.257812 11.804688 8.273438 11.804688 9.335938 C 11.804688 9.609375 11.585938 9.828125 11.3125 9.835938 C 11.179688 9.835938 11.054688 9.78125 10.960938 9.6875 C 10.867188 9.59375 10.8125 9.46875 10.8125 9.335938 C 10.8125 8.539062 10.496094 7.777344 9.933594 7.214844 C 9.367188 6.652344 8.605469 6.339844 7.8125 6.339844 C 7.570312 6.339844 7.359375 6.164062 7.320312 5.929688 Z M 7.320312 5.929688 "/>
<path style=" stroke:none;fill-rule:evenodd;fill:rgb(0%,0%,0%);fill-opacity:1;" d="M 7.324219 3.925781 C 7.320312 3.898438 7.316406 3.867188 7.3125 3.835938 C 7.3125 3.703125 7.367188 3.578125 7.460938 3.484375 C 7.554688 3.386719 7.679688 3.335938 7.8125 3.335938 C 9.40625 3.335938 10.929688 3.96875 12.054688 5.09375 C 13.179688 6.21875 13.8125 7.75 13.8125 9.339844 C 13.808594 9.617188 13.585938 9.835938 13.308594 9.835938 C 13.039062 9.828125 12.820312 9.609375 12.816406 9.335938 C 12.816406 8.011719 12.289062 6.742188 11.351562 5.804688 C 10.414062 4.867188 9.140625 4.335938 7.816406 4.335938 C 7.574219 4.335938 7.367188 4.164062 7.324219 3.925781 Z M 7.324219 3.925781 "/>
<path style=" stroke:none;fill-rule:evenodd;fill:rgb(0%,0%,0%);fill-opacity:1;" d="M 7.324219 1.929688 C 7.320312 1.898438 7.3125 1.867188 7.3125 1.835938 C 7.3125 1.703125 7.367188 1.574219 7.460938 1.480469 C 7.554688 1.382812 7.679688 1.332031 7.8125 1.332031 C 9.9375 1.332031 11.96875 2.175781 13.46875 3.675781 C 14.96875 5.179688 15.8125 7.21875 15.8125 9.335938 C 15.8125 9.46875 15.757812 9.601562 15.664062 9.695312 C 15.570312 9.789062 15.445312 9.839844 15.3125 9.839844 C 15.179688 9.839844 15.054688 9.789062 14.960938 9.695312 C 14.867188 9.601562 14.8125 9.472656 14.8125 9.339844 C 14.8125 7.484375 14.078125 5.695312 12.765625 4.382812 C 11.453125 3.070312 9.671875 2.335938 7.8125 2.335938 C 7.578125 2.335938 7.371094 2.164062 7.324219 1.929688 Z M 7.324219 1.929688 "/>
<path style=" stroke:none;fill-rule:nonzero;fill:rgb(0%,0%,0%);fill-opacity:1;" d="M 0.1875 12.78125 L 1.203125 12.632812 C 1.230469 12.945312 1.316406 13.1875 1.460938 13.355469 C 1.609375 13.523438 1.78125 13.605469 1.976562 13.605469 C 2.195312 13.605469 2.375 13.507812 2.523438 13.308594 C 2.671875 13.109375 2.75 12.835938 2.75 12.488281 C 2.75 12.164062 2.679688 11.90625 2.53125 11.722656 C 2.390625 11.539062 2.21875 11.445312 2.015625 11.445312 C 1.882812 11.445312 1.71875 11.476562 1.535156 11.539062 L 1.648438 10.5 C 1.921875 10.503906 2.132812 10.429688 2.292969 10.28125 C 2.445312 10.125 2.523438 9.914062 2.523438 9.636719 C 2.523438 9.40625 2.46875 9.226562 2.355469 9.09375 C 2.242188 8.960938 2.101562 8.898438 1.921875 8.898438 C 1.75 8.898438 1.59375 8.972656 1.460938 9.125 C 1.335938 9.273438 1.257812 9.496094 1.234375 9.789062 L 0.265625 9.589844 C 0.367188 8.980469 0.5625 8.535156 0.851562 8.257812 C 1.144531 7.984375 1.511719 7.84375 1.953125 7.84375 C 2.453125 7.84375 2.847656 8.023438 3.140625 8.378906 C 3.4375 8.734375 3.582031 9.125 3.582031 9.558594 C 3.582031 9.851562 3.515625 10.113281 3.382812 10.347656 C 3.25 10.578125 3.054688 10.785156 2.789062 10.960938 C 3.09375 11.046875 3.34375 11.226562 3.539062 11.503906 C 3.730469 11.78125 3.828125 12.132812 3.828125 12.554688 C 3.828125 13.164062 3.648438 13.671875 3.28125 14.070312 C 2.921875 14.46875 2.488281 14.667969 1.984375 14.667969 C 1.507812 14.667969 1.101562 14.5 0.765625 14.164062 C 0.4375 13.824219 0.242188 13.363281 0.1875 12.78125 Z M 0.1875 12.78125 "/>
<path style=" stroke:none;fill-rule:nonzero;fill:rgb(0%,0%,0%);fill-opacity:1;" d="M 7.273438 12.097656 L 7.273438 10.96875 L 9.65625 10.96875 L 9.65625 13.632812 C 9.414062 13.914062 9.078125 14.15625 8.636719 14.359375 C 8.195312 14.5625 7.753906 14.667969 7.3125 14.667969 C 6.769531 14.667969 6.292969 14.535156 5.878906 14.273438 C 5.464844 14.003906 5.136719 13.605469 4.894531 13.078125 C 4.65625 12.546875 4.535156 11.921875 4.535156 11.203125 C 4.535156 10.46875 4.65625 9.839844 4.898438 9.316406 C 5.144531 8.796875 5.460938 8.40625 5.851562 8.148438 C 6.242188 7.886719 6.710938 7.757812 7.257812 7.757812 C 7.90625 7.757812 8.429688 7.925781 8.820312 8.257812 C 9.21875 8.589844 9.46875 9.078125 9.585938 9.722656 L 8.492188 9.972656 C 8.40625 9.628906 8.257812 9.367188 8.039062 9.1875 C 7.820312 9 7.558594 8.914062 7.257812 8.914062 C 6.785156 8.914062 6.402344 9.09375 6.109375 9.460938 C 5.820312 9.828125 5.671875 10.382812 5.671875 11.132812 C 5.671875 11.9375 5.832031 12.554688 6.148438 12.972656 C 6.417969 13.335938 6.785156 13.515625 7.246094 13.515625 C 7.460938 13.515625 7.6875 13.464844 7.914062 13.363281 C 8.148438 13.257812 8.359375 13.121094 8.539062 12.945312 L 8.539062 12.097656 Z M 7.273438 12.097656 "/>
</g>
</svg>
