<?xml version="1.0" encoding="UTF-8"?>
<svg xmlns="http://www.w3.org/2000/svg" xmlns:xlink="http://www.w3.org/1999/xlink" width="16" height="16" viewBox="0 0 16 16" version="1.1">
<g id="surface1">
<path style=" stroke:none;fill-rule:nonzero;fill:rgb(0%,0%,0%);fill-opacity:1;" d="M 8 1.332031 C 9.472656 1.332031 10.667969 2.527344 10.667969 4 L 10.667969 10 L 11.332031 10 C 11.699219 10 12 9.699219 12 9.332031 L 12 5.332031 C 12 4.964844 12.296875 4.667969 12.667969 4.667969 C 13.035156 4.667969 13.332031 4.964844 13.332031 5.332031 L 13.332031 9.332031 C 13.332031 10.441406 12.441406 11.332031 11.332031 11.332031 L 10.667969 11.332031 L 10.667969 13.332031 L 12 13.332031 L 12 14.667969 L 4 14.667969 L 4 13.332031 L 5.332031 13.332031 L 5.332031 9.332031 L 4.667969 9.332031 C 3.5625 9.332031 2.667969 8.4375 2.667969 7.332031 L 2.667969 6 C 2.667969 5.632812 2.964844 5.332031 3.332031 5.332031 C 3.703125 5.332031 4 5.632812 4 6 L 4 7.332031 C 4 7.699219 4.300781 8 4.667969 8 L 5.332031 8 L 5.332031 4 C 5.332031 2.527344 6.527344 1.332031 8 1.332031 Z M 8 2.667969 C 7.261719 2.667969 6.667969 3.261719 6.667969 4 L 6.667969 13.332031 L 9.332031 13.332031 L 9.332031 4 C 9.332031 3.261719 8.738281 2.667969 8 2.667969 Z M 8 2.667969 "/>
</g>
</svg>
