<?xml version="1.0" encoding="UTF-8"?>
<svg xmlns="http://www.w3.org/2000/svg" xmlns:xlink="http://www.w3.org/1999/xlink" width="16" height="16" viewBox="0 0 16 16" version="1.1">
<g id="surface1">
<path style=" stroke:none;fill-rule:evenodd;fill:rgb(0%,0%,0%);fill-opacity:1;" d="M 3 0 L 3 2 C 1.890625 2 1 2.890625 1 4 L 15 4 C 15 2.890625 14.109375 2 13 2 L 13 0 L 11 0 L 11 2 L 5 2 L 5 0 Z M 1 5 L 1 14 C 1 15.109375 1.890625 16 3 16 L 13 16 C 14.109375 16 15 15.109375 15 14 L 15 5 Z M 3 7 L 6 7 L 6 10 L 3 10 Z M 3 7 "/>
</g>
</svg>
