<?xml version="1.0" encoding="UTF-8"?>
<svg xmlns="http://www.w3.org/2000/svg" xmlns:xlink="http://www.w3.org/1999/xlink" width="16" height="16" viewBox="0 0 16 16" version="1.1">
<g id="surface1">
<path style=" stroke:none;fill-rule:nonzero;fill:rgb(0%,0%,0%);fill-opacity:1;" d="M 6.667969 2 L 9.332031 2 C 12.277344 2 14.667969 4.386719 14.667969 7.332031 C 14.667969 10.277344 12.277344 12.667969 9.332031 12.667969 L 9.332031 15 C 6 13.667969 1.332031 11.667969 1.332031 7.332031 C 1.332031 4.386719 3.722656 2 6.667969 2 Z M 8 11.332031 L 9.332031 11.332031 C 11.542969 11.332031 13.332031 9.542969 13.332031 7.332031 C 13.332031 5.125 11.542969 3.332031 9.332031 3.332031 L 6.667969 3.332031 C 4.457031 3.332031 2.667969 5.125 2.667969 7.332031 C 2.667969 9.738281 4.308594 11.3125 8 12.988281 Z M 8 11.332031 "/>
</g>
</svg>
