<?xml version="1.0" encoding="UTF-8"?>
<svg xmlns="http://www.w3.org/2000/svg" xmlns:xlink="http://www.w3.org/1999/xlink" width="16" height="16" viewBox="0 0 16 16" version="1.1">
<g id="surface1">
<path style=" stroke:none;fill-rule:nonzero;fill:rgb(0%,0%,0%);fill-opacity:1;" d="M 8 1.332031 C 11.683594 1.332031 14.667969 4.316406 14.667969 8 C 14.667969 11.683594 11.683594 14.667969 8 14.667969 C 6.867188 14.667969 5.796875 14.382812 4.863281 13.882812 L 1.332031 14.667969 L 2.117188 11.140625 C 1.617188 10.203125 1.332031 9.136719 1.332031 8 C 1.332031 4.316406 4.316406 1.332031 8 1.332031 Z M 8 4.667969 C 6.933594 4.667969 6 5.558594 6 6.667969 L 6 7.332031 L 5.332031 7.332031 L 5.332031 10.667969 L 10.667969 10.667969 L 10.667969 7.332031 L 10 7.332031 L 10 6.667969 C 10 5.5625 9.105469 4.667969 8 4.667969 Z M 9.332031 8.667969 L 9.332031 9.332031 L 6.667969 9.332031 L 6.667969 8.667969 Z M 8 6 C 8.316406 6 8.667969 6.328125 8.667969 6.667969 L 8.667969 7.332031 L 7.332031 7.332031 L 7.332031 6.667969 C 7.332031 6.328125 7.65625 6 8 6 Z M 8 6 "/>
</g>
</svg>
