<?xml version="1.0" encoding="UTF-8"?>
<svg xmlns="http://www.w3.org/2000/svg" xmlns:xlink="http://www.w3.org/1999/xlink" width="16" height="16" viewBox="0 0 16 16" version="1.1">
<g id="surface1">
<path style=" stroke:none;fill-rule:nonzero;fill:rgb(0%,0%,0%);fill-opacity:1;" d="M 14 2 C 14.367188 2 14.667969 2.296875 14.667969 2.667969 L 14.667969 12 C 14.667969 12.367188 14.367188 12.667969 14 12.667969 L 4.304688 12.667969 L 1.332031 15 L 1.332031 2.667969 C 1.332031 2.296875 1.632812 2 2 2 Z M 13.332031 3.332031 L 2.667969 3.332031 L 2.667969 12.257812 L 3.84375 11.332031 L 13.332031 11.332031 Z M 7.011719 4.941406 L 7.308594 5.398438 C 6.195312 6.003906 6.214844 6.96875 6.214844 7.175781 C 6.320312 7.164062 6.425781 7.160156 6.535156 7.171875 C 7.136719 7.226562 7.609375 7.71875 7.609375 8.332031 C 7.609375 8.976562 7.089844 9.5 6.445312 9.5 C 6.085938 9.5 5.742188 9.335938 5.527344 9.105469 C 5.183594 8.742188 5 8.332031 5 7.671875 C 5 6.503906 5.820312 5.457031 7.011719 4.941406 Z M 10.34375 4.941406 L 10.640625 5.398438 C 9.53125 6.003906 9.546875 6.96875 9.546875 7.175781 C 9.652344 7.164062 9.761719 7.160156 9.867188 7.171875 C 10.46875 7.226562 10.945312 7.71875 10.945312 8.332031 C 10.945312 8.976562 10.421875 9.5 9.777344 9.5 C 9.417969 9.5 9.078125 9.335938 8.863281 9.105469 C 8.519531 8.742188 8.332031 8.332031 8.332031 7.671875 C 8.332031 6.503906 9.152344 5.457031 10.34375 4.941406 Z M 10.34375 4.941406 "/>
</g>
</svg>
