<?xml version="1.0" encoding="UTF-8"?>
<svg xmlns="http://www.w3.org/2000/svg" xmlns:xlink="http://www.w3.org/1999/xlink" width="16" height="16" viewBox="0 0 16 16" version="1.1">
<g id="surface1">
<path style=" stroke:none;fill-rule:nonzero;fill:rgb(0%,0%,0%);fill-opacity:1;" d="M 4.667969 4.667969 L 4.667969 2 C 4.667969 1.632812 4.964844 1.332031 5.332031 1.332031 L 14 1.332031 C 14.367188 1.332031 14.667969 1.632812 14.667969 2 L 14.667969 10.667969 C 14.667969 11.035156 14.367188 11.332031 14 11.332031 L 11.332031 11.332031 L 11.332031 13.996094 C 11.332031 14.367188 11.035156 14.667969 10.660156 14.667969 L 2.003906 14.667969 C 1.828125 14.667969 1.65625 14.597656 1.53125 14.46875 C 1.402344 14.34375 1.332031 14.171875 1.332031 13.996094 L 1.335938 5.339844 C 1.335938 4.96875 1.632812 4.667969 2.007812 4.667969 Z M 6 4.667969 L 10.660156 4.667969 C 11.03125 4.667969 11.332031 4.964844 11.332031 5.339844 L 11.332031 10 L 13.332031 10 L 13.332031 2.667969 L 6 2.667969 Z M 5.667969 12 L 9.4375 8.230469 L 8.496094 7.285156 L 5.667969 10.113281 L 4.253906 8.699219 L 3.3125 9.644531 Z M 5.667969 12 "/>
</g>
</svg>
