<?xml version="1.0" encoding="UTF-8"?>
<svg xmlns="http://www.w3.org/2000/svg" xmlns:xlink="http://www.w3.org/1999/xlink" width="16" height="16" viewBox="0 0 16 16" version="1.1">
<g id="surface1">
<path style=" stroke:none;fill-rule:nonzero;fill:rgb(0%,0%,0%);fill-opacity:1;" d="M 14 2 C 14.367188 2 14.667969 2.296875 14.667969 2.667969 L 14.667969 13.332031 C 14.667969 13.703125 14.367188 14 14 14 L 2 14 C 1.632812 14 1.332031 13.703125 1.332031 13.332031 L 1.332031 2.667969 C 1.332031 2.296875 1.632812 2 2 2 Z M 6 5.332031 C 4.527344 5.332031 3.332031 6.527344 3.332031 8 C 3.332031 9.472656 4.527344 10.667969 6 10.667969 C 6.734375 10.667969 7.398438 10.367188 7.886719 9.886719 L 6.941406 8.941406 C 6.703125 9.183594 6.367188 9.332031 6 9.332031 C 5.261719 9.332031 4.667969 8.738281 4.667969 8 C 4.667969 7.261719 5.261719 6.667969 6 6.667969 C 6.367188 6.667969 6.699219 6.8125 6.941406 7.058594 L 7.886719 6.117188 C 7.402344 5.632812 6.738281 5.332031 6 5.332031 Z M 10.667969 5.332031 C 9.195312 5.332031 8 6.527344 8 8 C 8 9.472656 9.195312 10.667969 10.667969 10.667969 C 11.402344 10.667969 12.070312 10.367188 12.550781 9.886719 L 11.609375 8.941406 C 11.367188 9.183594 11.035156 9.332031 10.667969 9.332031 C 9.929688 9.332031 9.332031 8.738281 9.332031 8 C 9.332031 7.261719 9.929688 6.667969 10.667969 6.667969 C 11.035156 6.667969 11.367188 6.816406 11.609375 7.058594 L 12.550781 6.117188 C 12.070312 5.632812 11.402344 5.332031 10.667969 5.332031 Z M 10.667969 5.332031 "/>
</g>
</svg>
