<?xml version="1.0" encoding="UTF-8"?>
<svg xmlns="http://www.w3.org/2000/svg" xmlns:xlink="http://www.w3.org/1999/xlink" width="16" height="16" viewBox="0 0 16 16" version="1.1">
<g id="surface1">
<path style=" stroke:none;fill-rule:nonzero;fill:rgb(0%,0%,0%);fill-opacity:1;" d="M 2.34375 1.398438 L 15.070312 14.128906 L 14.128906 15.070312 L 12.785156 13.726562 C 12.324219 13.910156 11.828125 14 11.332031 14 L 4.667969 14 C 2.714844 14 1.050781 12.597656 0.722656 10.671875 C 0.394531 8.75 1.5 6.871094 3.339844 6.226562 C 3.308594 5.648438 3.390625 5.066406 3.574219 4.515625 L 1.398438 2.34375 Z M 4.667969 6 C 4.667969 6.054688 4.667969 6.109375 4.671875 6.160156 L 4.71875 7.152344 L 3.78125 7.484375 C 2.558594 7.917969 1.824219 9.167969 2.039062 10.449219 C 2.257812 11.726562 3.367188 12.664062 4.667969 12.667969 L 11.332031 12.667969 C 11.457031 12.667969 11.578125 12.65625 11.699219 12.640625 L 4.6875 5.628906 C 4.671875 5.75 4.667969 5.875 4.667969 6 Z M 8 1.332031 C 9.277344 1.332031 10.5 1.855469 11.378906 2.78125 C 12.257812 3.707031 12.722656 4.949219 12.660156 6.226562 C 13.78125 6.621094 14.667969 7.492188 15.082031 8.609375 C 15.496094 9.722656 15.394531 10.960938 14.800781 11.992188 L 13.808594 10.996094 C 14.207031 10.003906 13.976562 8.871094 13.21875 8.113281 C 12.464844 7.355469 11.328125 7.125 10.335938 7.527344 L 9.339844 6.53125 C 9.925781 6.191406 10.605469 6 11.332031 6 C 11.332031 4.753906 10.640625 3.613281 9.535156 3.042969 C 8.433594 2.46875 7.101562 2.558594 6.082031 3.273438 L 5.128906 2.320312 C 5.949219 1.679688 6.960938 1.332031 8 1.332031 Z M 8 1.332031 "/>
</g>
</svg>
