<?xml version="1.0" encoding="UTF-8"?>
<svg xmlns="http://www.w3.org/2000/svg" xmlns:xlink="http://www.w3.org/1999/xlink" width="16" height="16" viewBox="0 0 16 16" version="1.1">
<g id="surface1">
<path style=" stroke:none;fill-rule:evenodd;fill:rgb(0%,0%,0%);fill-opacity:1;" d="M 1.289062 0 C 1.316406 0.078125 1.351562 0.148438 1.402344 0.21875 L 13.25 16 L 15.121094 16 L 3.109375 0 Z M 7.765625 2.53125 C 7.304688 2.53125 6.847656 2.601562 6.40625 2.730469 L 13.742188 12.503906 C 15.132812 11.765625 16 10.320312 16 8.75 C 16 6.402344 14.097656 4.5 11.75 4.5 C 11.710938 4.5 11.664062 4.5 11.625 4.5 C 10.726562 3.265625 9.292969 2.53125 7.765625 2.53125 Z M 3.65625 4.882812 C 3.277344 5.527344 3.054688 6.253906 3.007812 7 C 3.007812 7 3.003906 7 3 7 C 1.34375 7 0 8.34375 0 10 C 0 11.65625 1.34375 13 3 13 C 3.015625 13 3.03125 13 3.050781 13 L 9.75 13 Z M 3.65625 4.882812 "/>
</g>
</svg>
