<?xml version="1.0" encoding="UTF-8"?>
<svg xmlns="http://www.w3.org/2000/svg" xmlns:xlink="http://www.w3.org/1999/xlink" width="16" height="16" viewBox="0 0 16 16" version="1.1">
<g id="surface1">
<path style=" stroke:none;fill-rule:nonzero;fill:rgb(0%,0%,0%);fill-opacity:1;" d="M 8 14.667969 C 4.316406 14.667969 1.332031 11.683594 1.332031 8 C 1.332031 4.316406 4.316406 1.332031 8 1.332031 C 11.683594 1.332031 14.667969 4.316406 14.667969 8 C 14.667969 11.683594 11.683594 14.667969 8 14.667969 Z M 3.550781 10.949219 C 4.75 12.742188 6.910156 13.636719 9.027344 13.21875 C 11.144531 12.796875 12.796875 11.140625 13.21875 9.027344 C 13.636719 6.910156 12.742188 4.75 10.949219 3.550781 C 11.535156 5.640625 10.949219 7.882812 9.414062 9.414062 C 7.882812 10.949219 5.640625 11.535156 3.550781 10.949219 Z M 3.550781 10.949219 "/>
</g>
</svg>
