<?xml version="1.0" encoding="UTF-8"?>
<svg xmlns="http://www.w3.org/2000/svg" xmlns:xlink="http://www.w3.org/1999/xlink" width="16" height="16" viewBox="0 0 16 16" version="1.1">
<g id="surface1">
<path style=" stroke:none;fill-rule:nonzero;fill:rgb(0%,0%,0%);fill-opacity:1;" d="M 10.953125 1 C 9.867188 1.027344 9 1.914062 9 3 C 9 4.105469 9.894531 5 11 5 C 11.714844 5 12.375 4.617188 12.730469 4 L 15.992188 4 L 15.996094 1.996094 L 12.726562 1.996094 C 12.371094 1.382812 11.710938 1 11 1 C 10.984375 1 10.96875 1 10.953125 1 Z M 8.359375 3.695312 L 5.660156 6.113281 C 5.445312 6.039062 5.226562 6 5 6 C 4.289062 6 3.625 6.382812 3.269531 7 L 0 7 L 0 9 L 3.265625 9 C 3.625 9.617188 4.285156 10 5 10 C 6.105469 10 7 9.105469 7 8 C 7 7.859375 6.984375 7.714844 6.953125 7.574219 L 9.539062 5.304688 Z M 11 11 C 9.894531 11 9 11.894531 9 13 C 9 14.105469 9.894531 15 11 15 C 11.714844 15 12.375 14.617188 12.734375 14 L 15.996094 14 L 15.992188 12 L 12.734375 12 C 12.375 11.382812 11.714844 11 11 11 Z M 11 11 "/>
</g>
</svg>
