<?xml version="1.0" encoding="UTF-8"?>
<svg xmlns="http://www.w3.org/2000/svg" xmlns:xlink="http://www.w3.org/1999/xlink" width="16" height="16" viewBox="0 0 16 16" version="1.1">
<g id="surface1">
<path style=" stroke:none;fill-rule:nonzero;fill:rgb(0%,0%,0%);fill-opacity:1;" d="M 6.28125 2.933594 C 3.886719 3.738281 2.386719 6.109375 2.683594 8.617188 C 2.980469 11.121094 4.992188 13.078125 7.507812 13.300781 C 10.019531 13.523438 12.347656 11.957031 13.082031 9.539062 C 10.816406 10.511719 8.25 10.859375 5.382812 10.582031 C 4.910156 7.832031 5.207031 5.285156 6.28125 2.933594 Z M 7.910156 2.65625 C 7.46875 3.449219 7.125 4.292969 6.882812 5.171875 C 7.914062 5.191406 8.898438 5.609375 9.628906 6.339844 C 10.316406 7.027344 10.730469 7.945312 10.789062 8.914062 C 11.675781 8.6875 12.515625 8.367188 13.3125 7.960938 C 13.304688 6.539062 12.730469 5.179688 11.714844 4.183594 C 10.703125 3.1875 9.332031 2.640625 7.910156 2.65625 Z M 3.261719 12.703125 C 0.660156 10.101562 0.660156 5.878906 3.261719 3.277344 C 5.867188 0.671875 10.089844 0.671875 12.691406 3.277344 C 15.292969 5.878906 15.292969 10.101562 12.691406 12.703125 C 10.089844 15.308594 5.867188 15.308594 3.261719 12.703125 Z M 6.609375 6.507812 C 6.480469 7.445312 6.464844 8.390625 6.558594 9.328125 C 7.53125 9.371094 8.503906 9.324219 9.464844 9.183594 C 9.46875 8.46875 9.1875 7.785156 8.683594 7.285156 C 8.136719 6.734375 7.382812 6.453125 6.609375 6.507812 Z M 6.609375 6.507812 "/>
</g>
</svg>
