<?xml version="1.0" encoding="UTF-8"?>
<svg xmlns="http://www.w3.org/2000/svg" xmlns:xlink="http://www.w3.org/1999/xlink" width="16" height="16" viewBox="0 0 16 16" version="1.1">
<g id="surface1">
<path style=" stroke:none;fill-rule:nonzero;fill:rgb(0%,0%,0%);fill-opacity:1;" d="M 8 1.332031 C 11.683594 1.332031 14.667969 4.316406 14.667969 8 C 14.667969 11.683594 11.683594 14.667969 8 14.667969 C 4.316406 14.667969 1.332031 11.683594 1.332031 8 C 1.332031 4.316406 4.316406 1.332031 8 1.332031 Z M 9.332031 6.667969 L 6.667969 6.667969 C 6.328125 6.667969 6.042969 6.917969 6.003906 7.253906 L 6 7.332031 L 6 10 L 7 10 L 7 12.667969 L 9 12.667969 L 9 10 L 10 10 L 10 7.332031 C 10 6.996094 9.746094 6.710938 9.410156 6.671875 Z M 8 3.332031 C 7.261719 3.332031 6.667969 3.929688 6.667969 4.667969 C 6.667969 5.402344 7.261719 6 8 6 C 8.738281 6 9.332031 5.402344 9.332031 4.667969 C 9.332031 3.929688 8.738281 3.332031 8 3.332031 Z M 8 3.332031 "/>
</g>
</svg>
