<?xml version="1.0" encoding="UTF-8"?>
<svg xmlns="http://www.w3.org/2000/svg" xmlns:xlink="http://www.w3.org/1999/xlink" width="16" height="16" viewBox="0 0 16 16" version="1.1">
<g id="surface1">
<path style=" stroke:none;fill-rule:nonzero;fill:rgb(0%,0%,0%);fill-opacity:1;" d="M 8 0.0546875 C 6.472656 0.0546875 5.085938 0.277344 4.042969 0.648438 C 3.519531 0.835938 3.082031 1.054688 2.742188 1.335938 C 2.402344 1.625 2.144531 2.007812 2.144531 2.460938 L 2.144531 5.359375 C 2.234375 5.472656 2.378906 5.601562 2.609375 5.742188 C 3.085938 6.039062 3.851562 6.320312 4.824219 6.523438 C 6.769531 6.921875 9.230469 6.921875 11.175781 6.523438 C 12.148438 6.320312 12.914062 6.039062 13.390625 5.742188 C 13.625 5.601562 13.765625 5.46875 13.855469 5.359375 L 13.855469 2.460938 C 13.851562 2.300781 13.808594 2.003906 13.683594 1.820312 C 13.558594 1.640625 13.476562 1.523438 13.257812 1.335938 C 12.917969 1.054688 12.476562 0.835938 11.953125 0.648438 C 10.90625 0.277344 9.527344 0.0546875 8 0.0546875 Z M 13.855469 6.890625 C 13.214844 7.25 12.40625 7.527344 11.421875 7.726562 C 9.28125 8.171875 6.71875 8.171875 4.578125 7.726562 C 3.601562 7.527344 2.785156 7.25 2.144531 6.890625 L 2.144531 9.726562 C 2.234375 9.835938 2.378906 9.96875 2.609375 10.109375 C 3.085938 10.40625 3.851562 10.6875 4.824219 10.886719 C 6.769531 11.289062 9.230469 11.289062 11.175781 10.886719 C 12.148438 10.6875 12.914062 10.40625 13.390625 10.109375 C 13.625 9.96875 13.765625 9.835938 13.855469 9.722656 Z M 13.855469 11.253906 C 13.214844 11.613281 12.40625 11.890625 11.421875 12.09375 C 9.28125 12.535156 6.71875 12.535156 4.578125 12.09375 C 3.601562 11.890625 2.785156 11.617188 2.144531 11.257812 L 2.144531 13.519531 C 2.144531 13.523438 2.144531 13.53125 2.144531 13.535156 L 2.144531 13.804688 L 2.195312 13.804688 C 2.296875 14.265625 2.644531 14.636719 3.09375 14.914062 C 3.632812 15.246094 4.351562 15.5 5.222656 15.675781 C 6.960938 16.03125 9.039062 16.03125 10.777344 15.675781 C 11.648438 15.5 12.359375 15.246094 12.898438 14.914062 C 13.351562 14.636719 13.699219 14.265625 13.804688 13.804688 L 13.855469 13.804688 Z M 13.855469 11.253906 "/>
</g>
</svg>
