<?xml version="1.0" encoding="UTF-8"?>
<svg xmlns="http://www.w3.org/2000/svg" xmlns:xlink="http://www.w3.org/1999/xlink" width="16" height="16" viewBox="0 0 16 16" version="1.1">
<g id="surface1">
<path style=" stroke:none;fill-rule:nonzero;fill:rgb(0%,0%,0%);fill-opacity:1;" d="M 12.667969 1.332031 C 13.035156 1.332031 13.332031 1.632812 13.332031 2 L 13.332031 14 C 13.332031 14.367188 13.035156 14.667969 12.667969 14.667969 L 3.332031 14.667969 C 2.964844 14.667969 2.667969 14.367188 2.667969 14 L 2.667969 2 C 2.667969 1.632812 2.964844 1.332031 3.332031 1.332031 Z M 8 4.667969 C 6.734375 4.667969 5.578125 5.386719 5.015625 6.523438 C 4.453125 7.65625 4.585938 9.011719 5.351562 10.019531 C 6.121094 11.027344 7.394531 11.511719 8.636719 11.273438 L 8 10 C 6.894531 10 6 9.105469 6 8 C 6 6.894531 6.894531 6 8 6 C 9.066406 6 10 6.894531 10 8 L 8.332031 8 L 9.753906 10.835938 C 11.019531 10.054688 11.613281 8.523438 11.207031 7.089844 C 10.800781 5.65625 9.492188 4.667969 8 4.667969 Z M 8 4.667969 "/>
</g>
</svg>
