<?xml version="1.0" encoding="UTF-8"?>
<svg xmlns="http://www.w3.org/2000/svg" xmlns:xlink="http://www.w3.org/1999/xlink" width="16" height="16" viewBox="0 0 16 16" version="1.1">
<g id="surface1">
<path style=" stroke:none;fill-rule:nonzero;fill:rgb(0%,0%,0%);fill-opacity:1;" d="M 6 6 L 2 6 C 1.445312 6 1 6.445312 1 7 L 1 9 C 1 9.554688 1.445312 10 2 10 L 14 10 C 14.554688 10 15 9.554688 15 9 L 15 7 C 15 6.445312 14.554688 6 14 6 Z M 6 6 "/>
<path style=" stroke:none;fill-rule:evenodd;fill:rgb(0%,0%,0%);fill-opacity:1;" d="M 9.414062 3.757812 C 8.632812 4.539062 7.367188 4.539062 6.585938 3.757812 C 5.804688 2.976562 5.804688 1.710938 6.585938 0.929688 C 7.367188 0.148438 8.632812 0.148438 9.414062 0.929688 C 10.195312 1.710938 10.195312 2.976562 9.414062 3.757812 Z M 9.414062 3.757812 "/>
<path style=" stroke:none;fill-rule:evenodd;fill:rgb(0%,0%,0%);fill-opacity:1;" d="M 9.414062 15.070312 C 8.632812 15.851562 7.367188 15.851562 6.585938 15.070312 C 5.804688 14.289062 5.804688 13.023438 6.585938 12.242188 C 7.367188 11.460938 8.632812 11.460938 9.414062 12.242188 C 10.195312 13.023438 10.195312 14.289062 9.414062 15.070312 Z M 9.414062 15.070312 "/>
</g>
</svg>
