<?xml version="1.0" encoding="UTF-8"?>
<svg xmlns="http://www.w3.org/2000/svg" xmlns:xlink="http://www.w3.org/1999/xlink" width="16" height="16" viewBox="0 0 16 16" version="1.1">
<g id="surface1">
<path style=" stroke:none;fill-rule:nonzero;fill:rgb(0%,0%,0%);fill-opacity:1;" d="M 7 1 L 7 2.890625 C 6.679688 2.949219 6.386719 3.035156 6.128906 3.148438 C 5.628906 3.375 5.234375 3.703125 4.949219 4.140625 C 4.667969 4.578125 4.527344 5.070312 4.527344 5.617188 C 4.527344 6.085938 4.636719 6.527344 4.855469 6.9375 C 5.078125 7.34375 5.378906 7.671875 5.753906 7.921875 C 6.128906 8.171875 6.71875 8.40625 7.527344 8.617188 C 8.429688 8.859375 8.996094 9.03125 9.230469 9.140625 C 9.464844 9.238281 9.640625 9.367188 9.753906 9.527344 C 9.867188 9.6875 9.925781 9.882812 9.925781 10.109375 C 9.925781 10.496094 9.761719 10.820312 9.433594 11.085938 C 9.105469 11.34375 8.65625 11.476562 8.082031 11.476562 C 6.925781 11.476562 6.242188 10.835938 6.035156 9.554688 L 4.183594 9.746094 C 4.402344 11.667969 5.347656 12.773438 7 13.085938 L 7 15 L 9 15 L 9 13.117188 C 9.8125 13 10.449219 12.726562 10.894531 12.296875 C 11.507812 11.703125 11.816406 10.972656 11.816406 10.101562 C 11.816406 9.5 11.703125 8.992188 11.480469 8.570312 C 11.257812 8.148438 10.929688 7.804688 10.503906 7.539062 C 10.082031 7.269531 9.394531 7.015625 8.441406 6.773438 C 7.539062 6.546875 6.964844 6.34375 6.714844 6.15625 C 6.464844 5.96875 6.339844 5.742188 6.339844 5.46875 C 6.339844 5.1875 6.476562 4.957031 6.753906 4.769531 C 7.03125 4.585938 7.421875 4.492188 7.933594 4.492188 C 8.445312 4.492188 8.835938 4.597656 9.113281 4.8125 C 9.390625 5.023438 9.570312 5.398438 9.652344 5.9375 L 11.550781 5.851562 C 11.515625 4.875 11.1875 4.125 10.566406 3.601562 C 10.15625 3.25 9.625 3.03125 9 2.914062 L 9 1 Z M 7 1 "/>
</g>
</svg>
