<?xml version="1.0" encoding="UTF-8"?>
<svg xmlns="http://www.w3.org/2000/svg" xmlns:xlink="http://www.w3.org/1999/xlink" width="16" height="16" viewBox="0 0 16 16" version="1.1">
<g id="surface1">
<path style=" stroke:none;fill-rule:nonzero;fill:rgb(0%,0%,0%);fill-opacity:1;" d="M 10.875 12.757812 L 13.585938 12.757812 C 13.695312 12.757812 13.800781 12.800781 13.878906 12.878906 C 13.957031 12.957031 14 13.0625 14 13.171875 L 14 13.585938 C 14 13.695312 13.957031 13.800781 13.878906 13.878906 C 13.800781 13.957031 13.695312 14 13.585938 14 L 2.414062 14 C 2.183594 14 2 13.816406 2 13.585938 L 2 13.171875 C 2 13.0625 2.042969 12.957031 2.121094 12.878906 C 2.199219 12.800781 2.304688 12.757812 2.414062 12.757812 L 4.914062 12.757812 L 4.277344 10.6875 L 5.734375 10.6875 C 5.914062 10.6875 6.074219 10.804688 6.128906 10.972656 L 6.722656 12.757812 L 9.066406 12.757812 L 9.882812 10.070312 L 3.449219 10.070312 C 3.21875 10.070312 3.035156 9.882812 3.035156 9.65625 L 3.035156 4.898438 C 3.035156 4.667969 3.21875 4.484375 3.449219 4.484375 L 12.550781 4.484375 C 12.78125 4.484375 12.964844 4.667969 12.964844 4.898438 L 12.964844 9.65625 C 12.964844 9.882812 12.78125 10.070312 12.550781 10.070312 L 11.691406 10.070312 Z M 2.621094 2 L 13.378906 2 C 13.609375 2 13.792969 2.183594 13.792969 2.414062 L 13.792969 2.828125 C 13.792969 2.9375 13.75 3.042969 13.671875 3.121094 C 13.59375 3.199219 13.488281 3.242188 13.378906 3.242188 L 2.621094 3.242188 C 2.390625 3.242188 2.207031 3.054688 2.207031 2.828125 L 2.207031 2.414062 C 2.207031 2.183594 2.390625 2 2.621094 2 Z M 4.792969 5.722656 C 4.765625 5.722656 4.738281 5.734375 4.71875 5.753906 C 4.699219 5.773438 4.6875 5.800781 4.6875 5.828125 L 4.6875 8.515625 C 4.6875 8.574219 4.734375 8.621094 4.792969 8.621094 L 11.207031 8.621094 C 11.265625 8.621094 11.3125 8.574219 11.3125 8.515625 L 11.3125 5.828125 C 11.3125 5.800781 11.300781 5.773438 11.28125 5.753906 C 11.261719 5.734375 11.234375 5.722656 11.207031 5.722656 Z M 4.792969 5.722656 "/>
</g>
</svg>
