<?xml version="1.0" encoding="UTF-8"?>
<svg xmlns="http://www.w3.org/2000/svg" xmlns:xlink="http://www.w3.org/1999/xlink" width="16" height="16" viewBox="0 0 16 16" version="1.1">
<g id="surface1">
<path style=" stroke:none;fill-rule:nonzero;fill:rgb(0%,0%,0%);fill-opacity:1;" d="M 7.332031 7.332031 L 7.332031 3.886719 L 6.113281 5.105469 L 5.171875 4.160156 L 8 1.332031 L 10.828125 4.160156 L 9.886719 5.105469 L 8.667969 3.886719 L 8.667969 7.332031 L 12.113281 7.332031 L 10.894531 6.113281 L 11.839844 5.171875 L 14.667969 8 L 11.839844 10.828125 L 10.894531 9.886719 L 12.113281 8.667969 L 8.667969 8.667969 L 8.667969 12.113281 L 9.886719 10.894531 L 10.828125 11.839844 L 8 14.667969 L 5.171875 11.839844 L 6.113281 10.894531 L 7.332031 12.113281 L 7.332031 8.667969 L 3.886719 8.667969 L 5.105469 9.886719 L 4.160156 10.828125 L 1.332031 8 L 4.160156 5.171875 L 5.105469 6.113281 L 3.886719 7.332031 Z M 7.332031 7.332031 "/>
</g>
</svg>
