<?xml version="1.0" encoding="UTF-8"?>
<svg xmlns="http://www.w3.org/2000/svg" xmlns:xlink="http://www.w3.org/1999/xlink" width="16" height="16" viewBox="0 0 16 16" version="1.1">
<g id="surface1">
<path style=" stroke:none;fill-rule:nonzero;fill:rgb(0%,0%,0%);fill-opacity:1;" d="M 13.324219 7.714844 C 13.269531 6.664062 12.90625 5.65625 12.277344 4.8125 C 12.085938 5.019531 11.878906 5.214844 11.664062 5.394531 C 10.996094 5.945312 10.253906 6.398438 9.457031 6.734375 C 9.566406 6.96875 9.667969 7.191406 9.757812 7.40625 L 9.757812 7.410156 C 9.785156 7.46875 9.808594 7.527344 9.832031 7.589844 C 10.839844 7.476562 11.90625 7.515625 12.9375 7.65625 C 13.074219 7.675781 13.203125 7.695312 13.324219 7.714844 Z M 7.070312 2.746094 C 7.71875 3.664062 8.316406 4.613281 8.863281 5.59375 C 9.679688 5.273438 10.351562 4.867188 10.894531 4.417969 C 11.085938 4.261719 11.261719 4.09375 11.425781 3.914062 C 10.46875 3.105469 9.253906 2.664062 8 2.667969 C 7.6875 2.667969 7.375 2.695312 7.070312 2.746094 Z M 2.835938 6.664062 C 3.289062 6.652344 3.742188 6.625 4.195312 6.582031 C 5.289062 6.484375 6.371094 6.300781 7.4375 6.035156 C 6.878906 5.066406 6.28125 4.128906 5.636719 3.214844 C 4.246094 3.90625 3.226562 5.164062 2.835938 6.664062 Z M 3.855469 11.355469 C 4.113281 10.980469 4.453125 10.554688 4.90625 10.089844 C 5.875 9.097656 7.019531 8.324219 8.34375 7.898438 L 8.382812 7.886719 C 8.273438 7.644531 8.171875 7.425781 8.066406 7.222656 C 6.84375 7.578125 5.554688 7.800781 4.269531 7.917969 C 3.640625 7.972656 3.078125 7.996094 2.667969 8.003906 C 2.664062 9.222656 3.085938 10.410156 3.855469 11.355469 Z M 10.003906 12.941406 C 9.746094 11.648438 9.382812 10.375 8.914062 9.136719 C 7.582031 9.621094 6.515625 10.332031 5.695312 11.175781 C 5.363281 11.511719 5.070312 11.882812 4.816406 12.28125 C 5.738281 12.964844 6.851562 13.335938 8 13.332031 C 8.6875 13.335938 9.367188 13.203125 10.003906 12.945312 Z M 11.253906 12.226562 C 12.292969 11.425781 13 10.269531 13.242188 8.980469 C 13.015625 8.921875 12.730469 8.867188 12.414062 8.824219 C 11.710938 8.722656 10.996094 8.714844 10.292969 8.800781 C 10.691406 9.917969 11.011719 11.066406 11.253906 12.226562 Z M 8 14.667969 C 4.316406 14.667969 1.332031 11.683594 1.332031 8 C 1.332031 4.316406 4.316406 1.332031 8 1.332031 C 11.683594 1.332031 14.667969 4.316406 14.667969 8 C 14.667969 11.683594 11.683594 14.667969 8 14.667969 Z M 8 14.667969 "/>
</g>
</svg>
