<?xml version="1.0" encoding="UTF-8"?>
<svg xmlns="http://www.w3.org/2000/svg" xmlns:xlink="http://www.w3.org/1999/xlink" width="16" height="16" viewBox="0 0 16 16" version="1.1">
<g id="surface1">
<path style=" stroke:none;fill-rule:nonzero;fill:rgb(0%,0%,0%);fill-opacity:1;" d="M 2.75 3.632812 C 2.375 3.632812 2 4.132812 2 5.125 L 0 5.125 L 0 6.132812 L 6 6.132812 L 6 5.125 L 3.5 5.125 C 3.5 4.132812 3.125 3.632812 2.75 3.632812 Z M 13.25 3.632812 C 12.875 3.632812 12.5 4.132812 12.5 5.125 L 10 5.125 L 10 6.132812 L 15.996094 6.132812 L 15.996094 5.125 L 14 5.125 C 14 4.132812 13.625 3.632812 13.25 3.632812 Z M 2.007812 6.382812 L 2.007812 8.929688 C 2.011719 9.335938 2.34375 9.671875 2.753906 9.671875 L 3.261719 9.671875 C 2.984375 10.375 2.960938 11.070312 2.960938 11.621094 C 2.960938 12.03125 3.296875 12.363281 3.703125 12.367188 C 4.117188 12.367188 4.457031 12.035156 4.460938 11.621094 C 4.460938 10.8125 4.457031 10.296875 5.019531 9.671875 L 5.203125 9.671875 C 5.871094 10.570312 6.953125 10.976562 7.980469 10.949219 C 9.015625 10.921875 10.054688 10.492188 10.757812 9.671875 L 10.992188 9.671875 C 11.550781 10.296875 11.539062 10.808594 11.539062 11.621094 C 11.539062 12.035156 11.875 12.367188 12.289062 12.367188 C 12.703125 12.367188 13.039062 12.035156 13.042969 11.621094 C 13.042969 11.070312 13.023438 10.375 12.742188 9.671875 L 13.242188 9.671875 C 13.65625 9.671875 13.992188 9.34375 13.996094 8.929688 L 13.996094 6.382812 L 12.5 6.382812 L 12.5 8.171875 L 11.585938 8.171875 C 10.484375 7.28125 9.292969 6.773438 8.0625 6.773438 C 6.820312 6.773438 5.601562 7.28125 4.429688 8.171875 L 3.507812 8.171875 L 3.507812 6.382812 Z M 2.007812 6.382812 "/>
</g>
</svg>
