<?xml version="1.0" encoding="UTF-8"?>
<svg xmlns="http://www.w3.org/2000/svg" xmlns:xlink="http://www.w3.org/1999/xlink" width="16" height="16" viewBox="0 0 16 16" version="1.1">
<g id="surface1">
<path style=" stroke:none;fill-rule:nonzero;fill:rgb(0%,0%,0%);fill-opacity:1;" d="M 3.332031 14 C 2.996094 14 2.710938 13.746094 2.671875 13.410156 L 2.667969 13.332031 L 2.667969 7.332031 L 0.667969 7.332031 L 7.550781 1.074219 C 7.78125 0.863281 8.125 0.84375 8.382812 1.019531 L 8.449219 1.074219 L 15.332031 7.332031 L 13.332031 7.332031 L 13.332031 13.332031 C 13.332031 13.671875 13.082031 13.957031 12.746094 13.996094 L 12.667969 14 Z M 8 2.46875 L 4 6.105469 L 4 12.667969 L 6.90625 12.667969 L 7.832031 11.667969 L 5.332031 9.332031 L 8.667969 7.332031 L 7 6 L 9 4 L 8.667969 6 L 10.332031 7.332031 L 7.667969 9.332031 L 10 11.332031 L 9.167969 12.667969 L 12 12.667969 L 12 6.105469 Z M 8 2.46875 "/>
</g>
</svg>
