<?xml version="1.0" encoding="UTF-8"?>
<svg xmlns="http://www.w3.org/2000/svg" xmlns:xlink="http://www.w3.org/1999/xlink" width="16" height="16" viewBox="0 0 16 16" version="1.1">
<g id="surface1">
<path style=" stroke:none;fill-rule:nonzero;fill:rgb(0%,0%,0%);fill-opacity:1;" d="M 8.457031 2.6875 C 6.222656 2.496094 4.109375 3.71875 3.164062 5.75 C 2.21875 7.78125 2.644531 10.1875 4.230469 11.769531 C 5.8125 13.355469 8.21875 13.78125 10.25 12.835938 C 12.28125 11.890625 13.503906 9.777344 13.3125 7.542969 C 13.265625 6.984375 13.132812 6.433594 12.910156 5.917969 L 13.910156 4.914062 C 14.410156 5.867188 14.667969 6.925781 14.667969 8 C 14.667969 11.683594 11.683594 14.667969 8 14.667969 C 4.316406 14.667969 1.332031 11.683594 1.332031 8 C 1.332031 4.316406 4.316406 1.332031 8 1.332031 C 9.074219 1.332031 10.132812 1.589844 11.085938 2.089844 L 10.082031 3.089844 C 9.566406 2.867188 9.015625 2.734375 8.457031 2.6875 Z M 13.65625 1.398438 L 14.601562 2.34375 L 8.472656 8.472656 L 7.53125 8.472656 L 7.53125 7.527344 Z M 13.65625 1.398438 "/>
</g>
</svg>
