<?xml version="1.0" encoding="UTF-8"?>
<svg xmlns="http://www.w3.org/2000/svg" xmlns:xlink="http://www.w3.org/1999/xlink" width="16" height="16" viewBox="0 0 16 16" version="1.1">
<g id="surface1">
<path style=" stroke:none;fill-rule:nonzero;fill:rgb(0%,0%,0%);fill-opacity:1;" d="M 8 1.332031 C 11.683594 1.332031 14.667969 4.316406 14.667969 8 C 14.667969 9.039062 14.425781 10.066406 13.957031 10.996094 C 13.90625 10.808594 13.816406 10.632812 13.691406 10.480469 L 13.609375 10.390625 L 12.667969 9.449219 L 11.722656 10.390625 L 11.644531 10.476562 C 11.300781 10.886719 11.234375 11.464844 11.480469 11.941406 C 11.722656 12.417969 12.230469 12.703125 12.765625 12.664062 C 11.511719 13.945312 9.792969 14.667969 8 14.667969 C 4.316406 14.667969 1.332031 11.683594 1.332031 8 C 1.332031 4.316406 4.316406 1.332031 8 1.332031 Z M 8 10 C 7.078125 10 6.246094 10.375 5.644531 10.976562 L 5.535156 11.089844 L 6.164062 11.664062 C 6.691406 11.453125 7.320312 11.332031 8 11.332031 C 8.601562 11.332031 9.167969 11.429688 9.65625 11.597656 L 9.835938 11.664062 L 10.464844 11.089844 C 9.835938 10.394531 8.9375 10 8 10 Z M 5.667969 6.667969 C 5.113281 6.667969 4.667969 7.113281 4.667969 7.667969 C 4.667969 8.21875 5.113281 8.667969 5.667969 8.667969 C 6.21875 8.667969 6.667969 8.21875 6.667969 7.667969 C 6.667969 7.113281 6.21875 6.667969 5.667969 6.667969 Z M 10.332031 6.667969 C 9.78125 6.667969 9.332031 7.113281 9.332031 7.667969 C 9.332031 8.21875 9.78125 8.667969 10.332031 8.667969 C 10.886719 8.667969 11.332031 8.21875 11.332031 7.667969 C 11.332031 7.113281 10.886719 6.667969 10.332031 6.667969 Z M 10.332031 6.667969 "/>
</g>
</svg>
