<?xml version="1.0" encoding="UTF-8"?>
<svg xmlns="http://www.w3.org/2000/svg" xmlns:xlink="http://www.w3.org/1999/xlink" width="16" height="16" viewBox="0 0 16 16" version="1.1">
<g id="surface1">
<path style=" stroke:none;fill-rule:nonzero;fill:rgb(0%,0%,0%);fill-opacity:1;" d="M 9.332031 6.667969 L 10.667969 6.667969 L 10.667969 7.171875 C 11.585938 6.554688 12.773438 6.5 13.746094 7.019531 C 14.722656 7.542969 15.332031 8.558594 15.332031 9.667969 L 15.332031 13.332031 L 14 13.332031 L 14 9.667969 C 14 8.714844 13.214844 8 12.332031 8 C 11.449219 8 10.667969 8.714844 10.667969 9.667969 L 10.667969 13.332031 L 9.332031 13.332031 Z M 8 2.667969 L 8 4 L 2.667969 4 L 2.667969 7.332031 L 8 7.332031 L 8 8.667969 L 2.667969 8.667969 L 2.667969 12 L 8 12 L 8 13.332031 L 1.332031 13.332031 L 1.332031 2.667969 Z M 8 2.667969 "/>
</g>
</svg>
