<?xml version="1.0" encoding="UTF-8"?>
<svg xmlns="http://www.w3.org/2000/svg" xmlns:xlink="http://www.w3.org/1999/xlink" width="16" height="16" viewBox="0 0 16 16" version="1.1">
<g id="surface1">
<path style=" stroke:none;fill-rule:nonzero;fill:rgb(0%,0%,0%);fill-opacity:1;" d="M 12.917969 10.070312 C 13.804688 7.960938 13.25 5.523438 11.539062 4.007812 C 9.824219 2.492188 7.339844 2.234375 5.351562 3.367188 L 4.691406 2.210938 C 6.75 1.035156 9.28125 1.039062 11.332031 2.226562 C 14.328125 3.953125 15.472656 7.65625 14.078125 10.738281 L 14.972656 11.257812 L 12.195312 12.730469 L 12.085938 9.589844 Z M 3.082031 5.929688 C 2.195312 8.039062 2.75 10.476562 4.460938 11.992188 C 6.175781 13.507812 8.660156 13.765625 10.648438 12.632812 L 11.308594 13.789062 C 9.25 14.964844 6.71875 14.960938 4.667969 13.773438 C 1.671875 12.046875 0.527344 8.34375 1.921875 5.261719 L 1.027344 4.746094 L 3.804688 3.269531 L 3.914062 6.410156 L 3.082031 5.933594 Z M 8.941406 9.886719 L 7.054688 8 L 5.171875 9.886719 L 4.226562 8.941406 L 7.058594 6.113281 L 8.941406 8 L 10.828125 6.113281 L 11.769531 7.058594 Z M 8.941406 9.886719 "/>
</g>
</svg>
