<?xml version="1.0" encoding="UTF-8"?>
<svg xmlns="http://www.w3.org/2000/svg" xmlns:xlink="http://www.w3.org/1999/xlink" width="16" height="16" viewBox="0 0 16 16" version="1.1">
<g id="surface1">
<path style=" stroke:none;fill-rule:nonzero;fill:rgb(0%,0%,0%);fill-opacity:1;" d="M 6.667969 4 L 6.667969 5.332031 L 3.332031 5.332031 L 3.332031 12.667969 L 10.667969 12.667969 L 10.667969 9.332031 L 12 9.332031 L 12 13.332031 C 12 13.703125 11.703125 14 11.332031 14 L 2.667969 14 C 2.296875 14 2 13.703125 2 13.332031 L 2 4.667969 C 2 4.296875 2.296875 4 2.667969 4 Z M 14 2 L 14 7.332031 L 12.667969 7.332031 L 12.667969 4.273438 L 7.472656 9.472656 L 6.527344 8.527344 L 11.722656 3.332031 L 8.667969 3.332031 L 8.667969 2 Z M 14 2 "/>
</g>
</svg>
