<?xml version="1.0" encoding="UTF-8"?>
<svg xmlns="http://www.w3.org/2000/svg" xmlns:xlink="http://www.w3.org/1999/xlink" width="16" height="16" viewBox="0 0 16 16" version="1.1">
<g id="surface1">
<path style=" stroke:none;fill-rule:nonzero;fill:rgb(0%,0%,0%);fill-opacity:1;" d="M 3.011719 3.957031 L 0.929688 1.871094 L 1.871094 0.929688 L 15.070312 14.128906 L 14.128906 15.070312 L 11.921875 12.863281 C 10.75 13.609375 9.386719 14.003906 8 14 C 4.40625 14 1.414062 11.414062 0.789062 8 C 1.074219 6.445312 1.855469 5.027344 3.015625 3.957031 Z M 9.839844 10.78125 L 8.863281 9.804688 C 8.097656 10.171875 7.183594 10.015625 6.585938 9.414062 C 5.984375 8.816406 5.828125 7.902344 6.195312 7.136719 L 5.21875 6.160156 C 4.34375 7.484375 4.519531 9.238281 5.640625 10.359375 C 6.761719 11.480469 8.515625 11.65625 9.839844 10.78125 Z M 5.316406 2.507812 C 6.148438 2.179688 7.054688 2 8 2 C 11.59375 2 14.585938 4.585938 15.210938 8 C 15.007812 9.109375 14.550781 10.160156 13.871094 11.0625 L 11.296875 8.488281 C 11.453125 7.445312 11.105469 6.386719 10.359375 5.640625 C 9.613281 4.894531 8.554688 4.546875 7.511719 4.703125 Z M 5.316406 2.507812 "/>
</g>
</svg>
