<?xml version="1.0" encoding="UTF-8"?>
<svg xmlns="http://www.w3.org/2000/svg" xmlns:xlink="http://www.w3.org/1999/xlink" width="16" height="16" viewBox="0 0 16 16" version="1.1">
<g id="surface1">
<path style=" stroke:none;fill-rule:nonzero;fill:rgb(0%,0%,0%);fill-opacity:1;" d="M 8 2 C 11.59375 2 14.585938 4.585938 15.210938 8 C 14.585938 11.414062 11.59375 14 8 14 C 4.40625 14 1.414062 11.414062 0.789062 8 C 1.414062 4.585938 4.40625 2 8 2 Z M 8 12.667969 C 10.800781 12.667969 13.226562 10.730469 13.851562 8 C 13.226562 5.273438 10.796875 3.339844 8 3.339844 C 5.203125 3.339844 2.773438 5.273438 2.148438 8 C 2.773438 10.730469 5.199219 12.667969 8 12.667969 Z M 8 11 C 6.34375 11 5 9.65625 5 8 C 5 6.34375 6.34375 5 8 5 C 9.65625 5 11 6.34375 11 8 C 11 9.65625 9.65625 11 8 11 Z M 8 9.667969 C 8.921875 9.667969 9.667969 8.921875 9.667969 8 C 9.667969 7.078125 8.921875 6.332031 8 6.332031 C 7.078125 6.332031 6.332031 7.078125 6.332031 8 C 6.332031 8.921875 7.078125 9.667969 8 9.667969 Z M 8 9.667969 "/>
</g>
</svg>
