<?xml version="1.0" encoding="UTF-8"?>
<svg xmlns="http://www.w3.org/2000/svg" xmlns:xlink="http://www.w3.org/1999/xlink" width="16" height="16" viewBox="0 0 16 16" version="1.1">
<g id="surface1">
<path style=" stroke:none;fill-rule:evenodd;fill:rgb(0%,0%,0%);fill-opacity:1;" d="M 4 5 L 4 14 L 12 14 L 12 5 Z M 5 6 L 11 6 L 11 13 L 5 13 Z M 5 6 "/>
<path style=" stroke:none;fill-rule:evenodd;fill:rgb(0%,0%,0%);fill-opacity:1;" d="M 5 7 L 11 7 L 11 8 L 5 8 Z M 5 7 "/>
<path style=" stroke:none;fill-rule:evenodd;fill:rgb(0%,0%,0%);fill-opacity:1;" d="M 5 9 L 11 9 L 11 10 L 5 10 Z M 5 9 "/>
<path style=" stroke:none;fill-rule:evenodd;fill:rgb(0%,0%,0%);fill-opacity:1;" d="M 6 6 L 7 6 L 7 13 L 6 13 Z M 6 6 "/>
<path style=" stroke:none;fill-rule:nonzero;fill:rgb(0%,0%,0%);fill-opacity:1;" d="M 2.5 -0.00390625 C 2.226562 -0.00390625 2 0.222656 2 0.5 L 2 15.5 C 2 15.777344 2.226562 16.003906 2.5 16 L 13.5 16 C 13.773438 16.003906 14 15.777344 14 15.5 L 14 3.496094 C 14 3.367188 13.945312 3.242188 13.855469 3.148438 L 10.867188 0.148438 C 10.773438 0.0546875 10.644531 -0.00390625 10.511719 -0.00390625 Z M 2.996094 1 L 10 1 L 10.003906 3.5 C 10 3.773438 10.226562 3.996094 10.5 4 L 13 4 L 13 15 L 2.996094 15 Z M 2.996094 1 "/>
<path style=" stroke:none;fill-rule:evenodd;fill:rgb(0%,0%,0%);fill-opacity:1;" d="M 5 11 L 11 11 L 11 12 L 5 12 Z M 5 11 "/>
</g>
</svg>
