<?xml version="1.0" encoding="UTF-8"?>
<svg xmlns="http://www.w3.org/2000/svg" xmlns:xlink="http://www.w3.org/1999/xlink" width="16" height="16" viewBox="0 0 16 16" version="1.1">
<g id="surface1">
<path style=" stroke:none;fill-rule:nonzero;fill:rgb(0%,0%,0%);fill-opacity:1;" d="M 10.667969 5.332031 L 10.667969 6.667969 L 8.667969 6.667969 L 8.667969 9.667969 C 8.667969 10.371094 8.222656 11 7.558594 11.238281 C 6.894531 11.472656 6.15625 11.265625 5.707031 10.71875 C 5.261719 10.175781 5.210938 9.40625 5.574219 8.804688 C 5.9375 8.199219 6.644531 7.890625 7.332031 8.035156 L 7.332031 5.332031 L 10 5.332031 L 10 2.667969 L 3.332031 2.667969 L 3.332031 13.332031 L 12.667969 13.332031 L 12.667969 5.332031 Z M 2 1.996094 C 2 1.628906 2.296875 1.332031 2.664062 1.332031 L 10.667969 1.332031 L 14 4.667969 L 14 13.996094 C 14.003906 14.363281 13.707031 14.664062 13.339844 14.667969 L 2.660156 14.667969 C 2.296875 14.664062 2.003906 14.371094 2 14.003906 Z M 2 1.996094 "/>
</g>
</svg>
