<?xml version="1.0" encoding="UTF-8"?>
<svg xmlns="http://www.w3.org/2000/svg" xmlns:xlink="http://www.w3.org/1999/xlink" width="16" height="16" viewBox="0 0 16 16" version="1.1">
<g id="surface1">
<path style=" stroke:none;fill-rule:evenodd;fill:rgb(0%,0%,0%);fill-opacity:1;" d="M 6 0 L 5.09375 3.632812 C 3.679688 4.574219 2.75 6.179688 2.75 8 C 2.75 9.820312 3.679688 11.425781 5.09375 12.367188 L 6 16 L 10 16 L 10.90625 12.367188 C 12.320312 11.425781 13.25 9.820312 13.25 8 C 13.25 6.179688 12.320312 4.574219 10.90625 3.632812 L 10 0 Z M 7.941406 4.25 L 7.945312 4.25 C 7.960938 4.25 7.980469 4.25 8 4.25 C 10.074219 4.25 11.75 5.925781 11.75 8 C 11.75 10.074219 10.074219 11.75 8 11.75 C 5.925781 11.75 4.25 10.074219 4.25 8 C 4.25 5.949219 5.890625 4.28125 7.941406 4.25 Z M 6.671875 5.859375 C 6.628906 5.859375 6.585938 5.863281 6.539062 5.867188 C 5.886719 5.921875 5.328125 6.355469 5.101562 6.972656 C 4.875 7.585938 5.03125 8.28125 5.492188 8.742188 L 8 11.109375 L 10.507812 8.742188 C 10.972656 8.273438 11.125 7.578125 10.894531 6.960938 C 10.664062 6.339844 10.09375 5.914062 9.433594 5.867188 C 8.882812 5.828125 8.347656 6.058594 8 6.488281 C 7.675781 6.085938 7.1875 5.859375 6.671875 5.859375 Z M 6.671875 5.859375 "/>
</g>
</svg>
