<?xml version="1.0" encoding="UTF-8"?>
<svg xmlns="http://www.w3.org/2000/svg" xmlns:xlink="http://www.w3.org/1999/xlink" width="16" height="16" viewBox="0 0 16 16" version="1.1">
<g id="surface1">
<path style=" stroke:none;fill-rule:nonzero;fill:rgb(0%,0%,0%);fill-opacity:1;" d="M -0.00390625 0.00390625 L -0.00390625 16 L 16 16 L 16 5 L 12.503906 5 L 12.503906 5.992188 L 15 5.992188 L 15 15 L 6.996094 15 L 6.996094 10.246094 L 6 10.246094 L 6 15 L 1 15 L 1 5.992188 L 2.433594 5.992188 L 2.433594 5 L 1 5 L 1 1 L 8 1 L 8 5 L 4.625 5 L 4.625 5.992188 L 6 5.992188 L 6 7.867188 L 6.996094 7.867188 L 6.996094 5.992188 L 10.5625 5.992188 L 10.5625 5 L 8.996094 5 L 8.996094 0.00390625 Z M -0.00390625 0.00390625 "/>
</g>
</svg>
