<?xml version="1.0" encoding="UTF-8"?>
<svg xmlns="http://www.w3.org/2000/svg" xmlns:xlink="http://www.w3.org/1999/xlink" width="16" height="16" viewBox="0 0 16 16" version="1.1">
<g id="surface1">
<path style=" stroke:none;fill-rule:nonzero;fill:rgb(0%,0%,0%);fill-opacity:1;" d="M 1.054688 8.671875 C -0.03125 5.933594 1.304688 2.832031 4.042969 1.746094 C 6.78125 0.65625 9.882812 1.996094 10.972656 4.734375 C 12.105469 4.515625 13.273438 4.839844 14.128906 5.617188 C 14.984375 6.390625 15.425781 7.523438 15.316406 8.671875 L 13.976562 8.671875 C 14.121094 7.671875 13.609375 6.691406 12.703125 6.242188 C 11.796875 5.792969 10.707031 5.976562 10 6.699219 L 10 6.667969 C 10 4.984375 8.945312 3.484375 7.367188 2.910156 C 5.785156 2.332031 4.015625 2.808594 2.933594 4.097656 C 1.855469 5.386719 1.695312 7.214844 2.539062 8.671875 Z M 2.667969 12.667969 L 14 12.667969 L 14 14 L 2.667969 14 Z M 1.332031 10 L 15.332031 10 L 15.332031 11.332031 L 1.332031 11.332031 Z M 1.332031 10 "/>
</g>
</svg>
