<?xml version="1.0" encoding="UTF-8"?>
<svg xmlns="http://www.w3.org/2000/svg" xmlns:xlink="http://www.w3.org/1999/xlink" width="16" height="16" viewBox="0 0 16 16" version="1.1">
<g id="surface1">
<path style=" stroke:none;fill-rule:nonzero;fill:rgb(0%,0%,0%);fill-opacity:1;" d="M 14.667969 8.75 C 13.136719 7.648438 11.042969 7.769531 9.648438 9.035156 C 8.25 10.296875 7.925781 12.367188 8.867188 14 L 2 14 C 1.632812 14 1.332031 13.703125 1.332031 13.332031 L 1.332031 2.667969 C 1.332031 2.296875 1.632812 2 2 2 L 6.941406 2 L 8.277344 3.332031 L 14 3.332031 C 14.367188 3.332031 14.667969 3.632812 14.667969 4 Z M 12 11.332031 L 12 9 L 15.332031 12 L 12 15 L 12 12.667969 L 10 12.667969 L 10 11.332031 Z M 12 11.332031 "/>
</g>
</svg>
