<?xml version="1.0" encoding="UTF-8"?>
<svg xmlns="http://www.w3.org/2000/svg" xmlns:xlink="http://www.w3.org/1999/xlink" width="16" height="16" viewBox="0 0 16 16" version="1.1">
<g id="surface1">
<path style=" stroke:none;fill-rule:nonzero;fill:rgb(0%,0%,0%);fill-opacity:1;" d="M 7.25 0 L 7.25 3.1875 L 4.53125 0.472656 L 3.46875 1.527344 L 7.25 5.304688 L 7.25 7.25 L 5.3125 7.25 L 1.53125 3.46875 L 0.46875 4.53125 L 3.183594 7.25 L 0.00390625 7.25 L 0.00390625 8.75 L 3.191406 8.75 L 0.46875 11.46875 L 1.53125 12.527344 L 5.316406 8.75 L 7.25 8.75 L 7.25 10.6875 L 3.46875 14.46875 L 4.53125 15.53125 L 7.25 12.816406 L 7.25 15.996094 L 8.75 15.996094 L 8.75 12.808594 L 11.46875 15.53125 L 12.527344 14.46875 L 8.75 10.683594 L 8.75 8.75 L 10.6875 8.75 L 14.472656 12.527344 L 15.527344 11.46875 L 12.804688 8.75 L 16 8.75 L 16 7.25 L 12.8125 7.25 L 15.527344 4.53125 L 14.472656 3.46875 L 10.695312 7.25 L 8.75 7.25 L 8.75 5.3125 L 12.527344 1.527344 L 11.46875 0.472656 L 8.75 3.195312 L 8.75 0 Z M 7.25 0 "/>
</g>
</svg>
