<?xml version="1.0" encoding="UTF-8"?>
<svg xmlns="http://www.w3.org/2000/svg" xmlns:xlink="http://www.w3.org/1999/xlink" width="16" height="16" viewBox="0 0 16 16" version="1.1">
<g id="surface1">
<path style=" stroke:none;fill-rule:evenodd;fill:rgb(0%,0%,0%);fill-opacity:1;" d="M 4 0 C 3.445312 0 3 0.445312 3 1 L 3 10 L 13 10 L 13 1 C 13 0.445312 12.554688 0 12 0 Z M 7 4 L 9 4 L 9 7 L 7 7 Z M 3 11 L 3 15 C 3 15.554688 3.445312 16 4 16 L 12 16 C 12.554688 16 13 15.554688 13 15 L 13 11 L 11 11 L 11 12 L 5 12 L 5 11 Z M 3 11 "/>
</g>
</svg>
