<?xml version="1.0" encoding="UTF-8"?>
<svg xmlns="http://www.w3.org/2000/svg" xmlns:xlink="http://www.w3.org/1999/xlink" width="16" height="16" viewBox="0 0 16 16" version="1.1">
<g id="surface1">
<path style=" stroke:none;fill-rule:nonzero;fill:rgb(0%,0%,0%);fill-opacity:1;" d="M 2.9375 9.683594 L 5.207031 7.414062 L 7.089844 9.300781 L 9.195312 7.195312 L 8 6 L 11.332031 6 L 11.332031 9.332031 L 10.136719 8.136719 L 7.089844 11.183594 L 5.207031 9.300781 L 3.554688 10.949219 C 5.109375 13.289062 8.210938 14.023438 10.648438 12.625 C 13.085938 11.230469 14.023438 8.183594 12.789062 5.660156 C 11.558594 3.136719 8.582031 2 5.980469 3.058594 C 3.382812 4.121094 2.050781 7.019531 2.9375 9.683594 Z M 1.910156 10.71875 L 1.90625 10.714844 L 1.90625 10.710938 C 1.527344 9.859375 1.332031 8.933594 1.332031 8 C 1.332031 4.316406 4.316406 1.332031 8 1.332031 C 11.683594 1.332031 14.667969 4.316406 14.667969 8 C 14.667969 11.683594 11.683594 14.667969 8 14.667969 C 5.285156 14.667969 2.953125 13.046875 1.910156 10.71875 Z M 1.910156 10.71875 "/>
</g>
</svg>
