<?xml version="1.0" encoding="UTF-8"?>
<svg xmlns="http://www.w3.org/2000/svg" xmlns:xlink="http://www.w3.org/1999/xlink" width="16" height="16" viewBox="0 0 16 16" version="1.1">
<g id="surface1">
<path style=" stroke:none;fill-rule:nonzero;fill:rgb(0%,0%,0%);fill-opacity:1;" d="M 13.332031 8.667969 L 13.332031 13.332031 C 13.332031 13.703125 13.035156 14 12.667969 14 L 3.332031 14 C 2.964844 14 2.667969 13.703125 2.667969 13.332031 L 2.667969 8.667969 Z M 9.667969 1.332031 C 10.46875 1.332031 11.210938 1.742188 11.640625 2.417969 C 12.066406 3.097656 12.117188 3.945312 11.773438 4.667969 L 14 4.667969 C 14.367188 4.667969 14.667969 4.964844 14.667969 5.332031 L 14.667969 7.332031 C 14.667969 7.703125 14.367188 8 14 8 L 2 8 C 1.632812 8 1.332031 7.703125 1.332031 7.332031 L 1.332031 5.332031 C 1.332031 4.964844 1.632812 4.667969 2 4.667969 L 4.226562 4.667969 C 3.734375 3.636719 4.0625 2.402344 4.996094 1.75 C 5.933594 1.097656 7.203125 1.21875 8 2.035156 C 8.4375 1.585938 9.039062 1.332031 9.667969 1.332031 Z M 6.332031 2.667969 C 5.800781 2.667969 5.359375 3.085938 5.335938 3.617188 C 5.308594 4.152344 5.707031 4.609375 6.238281 4.660156 L 6.332031 4.667969 L 7.332031 4.667969 L 7.332031 3.667969 C 7.332031 3.152344 6.941406 2.722656 6.429688 2.671875 Z M 9.667969 2.667969 L 9.570312 2.671875 C 9.09375 2.71875 8.714844 3.09375 8.671875 3.570312 L 8.667969 3.667969 L 8.667969 4.667969 L 9.667969 4.667969 L 9.761719 4.660156 C 10.273438 4.613281 10.667969 4.179688 10.667969 3.667969 C 10.667969 3.152344 10.273438 2.722656 9.761719 2.671875 Z M 9.667969 2.667969 "/>
</g>
</svg>
