<?xml version="1.0" encoding="UTF-8"?>
<svg xmlns="http://www.w3.org/2000/svg" xmlns:xlink="http://www.w3.org/1999/xlink" width="16" height="16" viewBox="0 0 16 16" version="1.1">
<g id="surface1">
<path style=" stroke:none;fill-rule:nonzero;fill:rgb(0%,0%,0%);fill-opacity:1;" d="M 4 6.667969 L 4 13.332031 L 12.667969 13.332031 L 12.667969 6.667969 Z M 12 5.332031 L 13.332031 5.332031 C 13.703125 5.332031 14 5.632812 14 6 L 14 14 C 14 14.367188 13.703125 14.667969 13.332031 14.667969 L 2.667969 14.667969 C 2.296875 14.667969 2 14.367188 2 14 L 2 6 C 2 5.632812 2.296875 5.332031 2.667969 5.332031 L 4 5.332031 L 4 4.667969 C 4 2.457031 5.789062 0.667969 8 0.667969 C 10.210938 0.667969 12 2.457031 12 4.667969 Z M 10.667969 5.332031 L 10.667969 4.667969 C 10.667969 3.195312 9.472656 2 8 2 C 6.527344 2 5.332031 3.195312 5.332031 4.667969 L 5.332031 5.332031 Z M 4.667969 7.332031 L 6 7.332031 L 6 8.667969 L 4.667969 8.667969 Z M 4.667969 9.332031 L 6 9.332031 L 6 10.667969 L 4.667969 10.667969 Z M 4.667969 11.332031 L 6 11.332031 L 6 12.667969 L 4.667969 12.667969 Z M 4.667969 11.332031 "/>
</g>
</svg>
