<?xml version="1.0" encoding="UTF-8"?>
<svg xmlns="http://www.w3.org/2000/svg" xmlns:xlink="http://www.w3.org/1999/xlink" width="16" height="16" viewBox="0 0 16 16" version="1.1">
<g id="surface1">
<path style=" stroke:none;fill-rule:nonzero;fill:rgb(0%,0%,0%);fill-opacity:1;" d="M 3.921875 12.433594 C 3.722656 12.300781 3.550781 12.132812 3.347656 11.890625 C 3.246094 11.761719 3.140625 11.632812 3.039062 11.503906 C 2.730469 11.121094 2.535156 10.945312 2.332031 10.871094 C 1.988281 10.75 1.804688 10.367188 1.929688 10.019531 C 2.054688 9.671875 2.4375 9.492188 2.785156 9.617188 C 3.285156 9.796875 3.625 10.105469 4.082031 10.675781 C 4.019531 10.597656 4.308594 10.960938 4.371094 11.035156 C 4.496094 11.1875 4.589844 11.277344 4.664062 11.328125 C 4.800781 11.417969 5.054688 11.457031 5.429688 11.421875 C 5.445312 11.164062 5.492188 10.917969 5.566406 10.691406 C 3.585938 10.207031 2.464844 8.929688 2.464844 6.425781 C 2.464844 5.601562 2.714844 4.855469 3.171875 4.230469 C 3.027344 3.636719 3.046875 2.914062 3.375 2.105469 C 3.449219 1.917969 3.601562 1.777344 3.792969 1.714844 C 3.847656 1.699219 3.878906 1.691406 3.933594 1.683594 C 4.46875 1.601562 5.222656 1.796875 6.207031 2.414062 C 6.796875 2.277344 7.398438 2.210938 8 2.210938 C 8.609375 2.210938 9.210938 2.28125 9.789062 2.414062 C 10.773438 1.792969 11.53125 1.597656 12.070312 1.683594 C 12.128906 1.691406 12.175781 1.703125 12.214844 1.71875 C 12.402344 1.78125 12.554688 1.921875 12.625 2.105469 C 12.953125 2.914062 12.972656 3.636719 12.828125 4.230469 C 13.289062 4.855469 13.535156 5.59375 13.535156 6.425781 C 13.535156 8.929688 12.417969 10.203125 10.4375 10.6875 C 10.523438 10.964844 10.566406 11.273438 10.566406 11.609375 C 10.566406 12.210938 10.5625 12.816406 10.558594 13.417969 C 10.867188 13.484375 11.085938 13.761719 11.082031 14.078125 C 11.078125 14.390625 10.855469 14.664062 10.542969 14.722656 C 9.785156 14.875 9.222656 14.371094 9.222656 13.707031 L 9.222656 13.410156 L 9.226562 12.941406 C 9.230469 12.46875 9.230469 12.046875 9.230469 11.609375 C 9.230469 11.144531 9.109375 10.839844 8.949219 10.703125 C 8.507812 10.320312 8.730469 9.597656 9.308594 9.535156 C 11.285156 9.3125 12.199219 8.546875 12.199219 6.425781 C 12.199219 5.789062 11.992188 5.265625 11.589844 4.824219 C 11.417969 4.636719 11.371094 4.363281 11.464844 4.128906 C 11.574219 3.851562 11.621094 3.488281 11.527344 3.050781 L 11.523438 3.054688 C 11.195312 3.144531 10.78125 3.347656 10.285156 3.6875 C 10.121094 3.796875 9.917969 3.828125 9.726562 3.777344 C 9.164062 3.621094 8.582031 3.542969 8 3.542969 C 7.40625 3.542969 6.820312 3.621094 6.273438 3.777344 C 6.082031 3.828125 5.882812 3.796875 5.71875 3.6875 C 5.21875 3.347656 4.800781 3.148438 4.472656 3.054688 C 4.378906 3.492188 4.425781 3.851562 4.535156 4.128906 C 4.628906 4.363281 4.582031 4.636719 4.410156 4.824219 C 4.011719 5.261719 3.800781 5.796875 3.800781 6.425781 C 3.800781 8.542969 4.714844 9.3125 6.679688 9.535156 C 7.257812 9.597656 7.480469 10.316406 7.042969 10.699219 C 6.914062 10.8125 6.757812 11.1875 6.757812 11.609375 L 6.757812 13.707031 C 6.757812 14.367188 6.203125 14.859375 5.453125 14.726562 C 5.136719 14.671875 4.90625 14.402344 4.898438 14.082031 C 4.894531 13.765625 5.113281 13.488281 5.425781 13.417969 L 5.425781 12.757812 C 4.816406 12.800781 4.316406 12.699219 3.921875 12.433594 Z M 3.921875 12.433594 "/>
</g>
</svg>
