<?xml version="1.0" encoding="UTF-8"?>
<svg xmlns="http://www.w3.org/2000/svg" xmlns:xlink="http://www.w3.org/1999/xlink" width="16" height="16" viewBox="0 0 16 16" version="1.1">
<g id="surface1">
<path style=" stroke:none;fill-rule:nonzero;fill:rgb(0%,0%,0%);fill-opacity:1;" d="M 13.332031 4 L 15.332031 4 L 15.332031 5.332031 L 14.667969 5.332031 L 14.667969 12.667969 L 15.332031 12.667969 L 15.332031 14 L 0.667969 14 L 0.667969 12.667969 L 1.332031 12.667969 L 1.332031 5.332031 L 0.667969 5.332031 L 0.667969 4 L 2.667969 4 L 2.667969 2.667969 C 2.667969 2.296875 2.964844 2 3.332031 2 L 12.667969 2 C 13.035156 2 13.332031 2.296875 13.332031 2.667969 Z M 13.332031 5.332031 L 2.667969 5.332031 L 2.667969 12.667969 L 4.667969 12.667969 L 4.667969 8 L 6 8 L 6 12.667969 L 7.332031 12.667969 L 7.332031 8 L 8.667969 8 L 8.667969 12.667969 L 10 12.667969 L 10 8 L 11.332031 8 L 11.332031 12.667969 L 13.332031 12.667969 Z M 4 3.332031 L 4 4 L 12 4 L 12 3.332031 Z M 4 3.332031 "/>
</g>
</svg>
