<?xml version="1.0" encoding="UTF-8"?>
<svg xmlns="http://www.w3.org/2000/svg" xmlns:xlink="http://www.w3.org/1999/xlink" width="16" height="16" viewBox="0 0 16 16" version="1.1">
<g id="surface1">
<path style=" stroke:none;fill-rule:evenodd;fill:rgb(0%,0%,0%);fill-opacity:1;" d="M 4 0 L 4 4 L 0 4 L 0 6 L 4 6 L 4 10 L 0 10 L 0 12 L 4 12 L 4 16 L 6 16 L 6 12 L 10 12 L 10 16 L 12 16 L 12 12 L 16 12 L 16 10 L 12 10 L 12 6 L 16 6 L 16 4 L 12 4 L 12 0 L 10 0 L 10 4 L 6 4 L 6 0 Z M 6 6 L 10 6 L 10 10 L 6 10 Z M 6 6 "/>
</g>
</svg>
