<?xml version="1.0" encoding="UTF-8"?>
<svg xmlns="http://www.w3.org/2000/svg" xmlns:xlink="http://www.w3.org/1999/xlink" width="16" height="16" viewBox="0 0 16 16" version="1.1">
<g id="surface1">
<path style=" stroke:none;fill-rule:nonzero;fill:rgb(0%,0%,0%);fill-opacity:1;" d="M 6.367188 7.667969 C 5.539062 7.667969 4.867188 6.996094 4.867188 6.167969 C 4.867188 5.339844 5.539062 4.667969 6.367188 4.667969 C 7.195312 4.667969 7.867188 5.339844 7.867188 6.167969 C 7.867188 6.996094 7.195312 7.667969 6.367188 7.667969 Z M 6.667969 13.164062 L 6.667969 10.933594 C 6.667969 10.609375 6.761719 10.308594 6.9375 10.042969 C 5.734375 9.871094 4.515625 10.214844 3.582031 10.984375 C 4.308594 12.0625 5.40625 12.839844 6.667969 13.164062 Z M 2.96875 9.773438 C 3.941406 9.054688 5.121094 8.664062 6.332031 8.667969 C 7.027344 8.667969 7.695312 8.792969 8.3125 9.019531 C 8.898438 8.792969 9.59375 8.667969 10.332031 8.667969 C 11.441406 8.667969 12.457031 8.949219 13.136719 9.4375 C 13.753906 7.222656 12.882812 4.863281 10.976562 3.578125 C 9.070312 2.296875 6.554688 2.378906 4.738281 3.785156 C 2.917969 5.191406 2.207031 7.605469 2.96875 9.773438 Z M 12.585938 10.722656 C 12.324219 10.367188 11.449219 10 10.332031 10 C 8.996094 10 8 10.53125 8 10.933594 L 8 13.332031 C 9.882812 13.335938 11.625 12.34375 12.585938 10.722656 Z M 8 14.667969 C 4.316406 14.667969 1.332031 11.683594 1.332031 8 C 1.332031 4.316406 4.316406 1.332031 8 1.332031 C 11.683594 1.332031 14.667969 4.316406 14.667969 8 C 14.667969 11.683594 11.683594 14.667969 8 14.667969 Z M 10.332031 8.332031 C 9.597656 8.332031 9 7.738281 9 7 C 9 6.261719 9.597656 5.667969 10.332031 5.667969 C 11.070312 5.667969 11.667969 6.261719 11.667969 7 C 11.667969 7.738281 11.070312 8.332031 10.332031 8.332031 Z M 10.332031 8.332031 "/>
</g>
</svg>
