<?xml version="1.0" encoding="UTF-8"?>
<svg xmlns="http://www.w3.org/2000/svg" xmlns:xlink="http://www.w3.org/1999/xlink" width="16" height="16" viewBox="0 0 16 16" version="1.1">
<g id="surface1">
<path style=" stroke:none;fill-rule:nonzero;fill:rgb(0%,0%,0%);fill-opacity:1;" d="M 2.667969 2.667969 L 2.667969 7.332031 L 7.332031 7.332031 L 7.332031 2.667969 L 8.667969 2.667969 L 8.667969 13.332031 L 7.332031 13.332031 L 7.332031 8.667969 L 2.667969 8.667969 L 2.667969 13.332031 L 1.332031 13.332031 L 1.332031 2.667969 Z M 12.332031 5.332031 C 13.714844 5.332031 14.832031 6.453125 14.832031 7.832031 C 14.832031 8.40625 14.640625 8.933594 14.320312 9.351562 L 14.21875 9.472656 L 12.023438 12 L 14.667969 12 L 14.667969 13.332031 L 10 13.332031 L 10 12.296875 L 13.214844 8.597656 C 13.390625 8.394531 13.5 8.125 13.5 7.832031 C 13.5 7.1875 12.976562 6.667969 12.332031 6.667969 C 11.722656 6.667969 11.21875 7.136719 11.171875 7.738281 L 11.167969 7.832031 L 9.832031 7.832031 C 9.832031 6.453125 10.953125 5.332031 12.332031 5.332031 Z M 12.332031 5.332031 "/>
</g>
</svg>
