<?xml version="1.0" encoding="UTF-8"?>
<svg xmlns="http://www.w3.org/2000/svg" xmlns:xlink="http://www.w3.org/1999/xlink" width="16" height="16" viewBox="0 0 16 16" version="1.1">
<g id="surface1">
<path style=" stroke:none;fill-rule:nonzero;fill:rgb(0%,0%,0%);fill-opacity:1;" d="M 14.667969 5.332031 L 14.664062 6.667969 L 12.996094 8.589844 C 14.054688 8.878906 14.832031 9.847656 14.832031 11 C 14.832031 12.378906 13.714844 13.5 12.332031 13.5 C 11.117188 13.5 10.101562 12.628906 9.878906 11.476562 L 11.1875 11.222656 C 11.292969 11.761719 11.765625 12.167969 12.332031 12.167969 C 12.976562 12.167969 13.5 11.644531 13.5 11 C 13.5 10.355469 12.976562 9.832031 12.332031 9.832031 C 12.144531 9.832031 11.960938 9.878906 11.804688 9.960938 L 10.933594 8.929688 L 12.898438 6.667969 L 10 6.667969 L 10 5.332031 Z M 2.667969 2.667969 L 2.667969 7.332031 L 7.332031 7.332031 L 7.332031 2.667969 L 8.667969 2.667969 L 8.667969 13.332031 L 7.332031 13.332031 L 7.332031 8.667969 L 2.667969 8.667969 L 2.667969 13.332031 L 1.332031 13.332031 L 1.332031 2.667969 Z M 2.667969 2.667969 "/>
</g>
</svg>
