<?xml version="1.0" encoding="UTF-8"?>
<svg xmlns="http://www.w3.org/2000/svg" xmlns:xlink="http://www.w3.org/1999/xlink" width="16" height="16" viewBox="0 0 16 16" version="1.1">
<g id="surface1">
<path style=" stroke:none;fill-rule:nonzero;fill:rgb(0%,0%,0%);fill-opacity:1;" d="M 3.332031 6 C 3.703125 6 4 6.296875 4 6.667969 C 5.046875 6.664062 6.066406 7.015625 6.886719 7.667969 L 8.332031 7.667969 C 9.222656 7.667969 10.019531 8.054688 10.570312 8.667969 L 12.667969 8.667969 C 13.953125 8.667969 15.125 9.40625 15.675781 10.566406 C 14.101562 12.648438 11.546875 14 8.667969 14 C 6.808594 14 5.234375 13.597656 3.960938 12.894531 C 3.863281 13.160156 3.613281 13.332031 3.332031 13.332031 L 1.332031 13.332031 C 0.964844 13.332031 0.667969 13.035156 0.667969 12.667969 L 0.667969 6.667969 C 0.667969 6.296875 0.964844 6 1.332031 6 Z M 4 8 L 4 11.347656 L 4.03125 11.371094 C 5.226562 12.210938 6.785156 12.667969 8.667969 12.667969 C 10.667969 12.667969 12.53125 11.894531 13.890625 10.578125 L 13.980469 10.492188 L 13.898438 10.425781 C 13.582031 10.179688 13.203125 10.03125 12.804688 10.003906 L 12.667969 10 L 11.257812 10 C 11.308594 10.214844 11.332031 10.4375 11.332031 10.667969 L 11.332031 11.332031 L 5.332031 11.332031 L 5.332031 10 L 9.859375 10 L 9.835938 9.949219 C 9.578125 9.402344 9.042969 9.042969 8.441406 9.003906 L 8.332031 9 L 6.378906 9 C 5.753906 8.359375 4.898438 8 4 8 Z M 2.667969 7.332031 L 2 7.332031 L 2 12 L 2.667969 12 Z M 12 3.332031 C 13.105469 3.332031 14 4.230469 14 5.332031 C 14 6.4375 13.105469 7.332031 12 7.332031 C 10.894531 7.332031 10 6.4375 10 5.332031 C 10 4.230469 10.894531 3.332031 12 3.332031 Z M 12 4.667969 C 11.632812 4.667969 11.332031 4.964844 11.332031 5.332031 C 11.332031 5.703125 11.632812 6 12 6 C 12.367188 6 12.667969 5.703125 12.667969 5.332031 C 12.667969 4.964844 12.367188 4.667969 12 4.667969 Z M 7.332031 1.332031 C 8.4375 1.332031 9.332031 2.230469 9.332031 3.332031 C 9.332031 4.4375 8.4375 5.332031 7.332031 5.332031 C 6.230469 5.332031 5.332031 4.4375 5.332031 3.332031 C 5.332031 2.230469 6.230469 1.332031 7.332031 1.332031 Z M 7.332031 2.667969 C 6.964844 2.667969 6.667969 2.964844 6.667969 3.332031 C 6.667969 3.703125 6.964844 4 7.332031 4 C 7.703125 4 8 3.703125 8 3.332031 C 8 2.964844 7.703125 2.667969 7.332031 2.667969 Z M 7.332031 2.667969 "/>
</g>
</svg>
