<?xml version="1.0" encoding="UTF-8"?>
<svg xmlns="http://www.w3.org/2000/svg" xmlns:xlink="http://www.w3.org/1999/xlink" width="16" height="16" viewBox="0 0 16 16" version="1.1">
<g id="surface1">
<path style=" stroke:none;fill-rule:nonzero;fill:rgb(0%,0%,0%);fill-opacity:1;" d="M 8 12.667969 C 8.550781 12.667969 9 13.113281 9 13.667969 C 9 14.21875 8.550781 14.667969 8 14.667969 C 7.449219 14.667969 7 14.21875 7 13.667969 C 7 13.113281 7.449219 12.667969 8 12.667969 Z M 13 12.667969 C 13.550781 12.667969 14 13.113281 14 13.667969 C 14 14.21875 13.550781 14.667969 13 14.667969 C 12.449219 14.667969 12 14.21875 12 13.667969 C 12 13.113281 12.449219 12.667969 13 12.667969 Z M 3 12.667969 C 3.550781 12.667969 4 13.113281 4 13.667969 C 4 14.21875 3.550781 14.667969 3 14.667969 C 2.449219 14.667969 2 14.21875 2 13.667969 C 2 13.113281 2.449219 12.667969 3 12.667969 Z M 11.332031 4.667969 C 13.175781 4.667969 14.667969 6.160156 14.667969 8 C 14.667969 9.839844 13.175781 11.332031 11.332031 11.332031 C 10.105469 11.332031 8.992188 10.640625 8 9.253906 C 7.007812 10.640625 5.894531 11.332031 4.667969 11.332031 C 2.824219 11.332031 1.332031 9.839844 1.332031 8 C 1.332031 6.160156 2.824219 4.667969 4.667969 4.667969 C 5.894531 4.667969 7.007812 5.359375 8 6.746094 C 8.992188 5.359375 10.105469 4.667969 11.332031 4.667969 Z M 8 1.332031 C 8.550781 1.332031 9 1.78125 9 2.332031 C 9 2.886719 8.550781 3.332031 8 3.332031 C 7.449219 3.332031 7 2.886719 7 2.332031 C 7 1.78125 7.449219 1.332031 8 1.332031 Z M 3 1.332031 C 3.550781 1.332031 4 1.78125 4 2.332031 C 4 2.886719 3.550781 3.332031 3 3.332031 C 2.449219 3.332031 2 2.886719 2 2.332031 C 2 1.78125 2.449219 1.332031 3 1.332031 Z M 13 1.332031 C 13.550781 1.332031 14 1.78125 14 2.332031 C 14 2.886719 13.550781 3.332031 13 3.332031 C 12.449219 3.332031 12 2.886719 12 2.332031 C 12 1.78125 12.449219 1.332031 13 1.332031 Z M 13 1.332031 "/>
</g>
</svg>
