<?xml version="1.0" encoding="UTF-8"?>
<svg xmlns="http://www.w3.org/2000/svg" xmlns:xlink="http://www.w3.org/1999/xlink" width="16" height="16" viewBox="0 0 16 16" version="1.1">
<g id="surface1">
<path style=" stroke:none;fill-rule:evenodd;fill:rgb(0%,0%,0%);fill-opacity:1;" d="M 4.789062 0.996094 C 4.757812 1 4.71875 1.003906 4.6875 1.011719 C 4.679688 1.011719 4.667969 1.011719 4.65625 1.011719 C 4.578125 1.015625 4.492188 1.011719 4.414062 1.019531 C 2.5625 1.179688 0.960938 2.390625 0.324219 4.125 C -0.3125 5.863281 0.121094 7.820312 1.4375 9.125 C 1.445312 9.128906 1.449219 9.132812 1.453125 9.140625 L 7.507812 14.808594 C 7.785156 15.070312 8.21875 15.070312 8.496094 14.808594 L 14.542969 9.140625 C 14.546875 9.132812 14.554688 9.128906 14.554688 9.125 C 15.882812 7.808594 16.320312 5.84375 15.664062 4.097656 C 15.007812 2.351562 13.375 1.144531 11.507812 1.011719 C 10.167969 0.914062 8.992188 1.617188 8.023438 2.515625 C 7.132812 1.671875 6.046875 1 4.796875 1.003906 C 4.796875 1.003906 4.796875 0.996094 4.789062 0.996094 Z M 4.804688 2.453125 C 5.828125 2.445312 6.800781 2.898438 7.441406 3.683594 C 7.578125 3.851562 7.785156 3.949219 8 3.949219 C 8.21875 3.949219 8.425781 3.851562 8.5625 3.683594 C 9.25 2.84375 10.3125 2.382812 11.40625 2.460938 C 12.71875 2.550781 13.851562 3.390625 14.304688 4.605469 C 14.765625 5.820312 14.46875 7.179688 13.539062 8.097656 L 8 13.289062 L 2.460938 8.097656 C 1.539062 7.1875 1.238281 5.835938 1.683594 4.628906 C 2.125 3.421875 3.238281 2.570312 4.539062 2.460938 C 4.628906 2.453125 4.71875 2.453125 4.804688 2.453125 Z M 4.804688 2.453125 "/>
</g>
</svg>
