<?xml version="1.0" encoding="UTF-8"?>
<svg xmlns="http://www.w3.org/2000/svg" xmlns:xlink="http://www.w3.org/1999/xlink" width="16" height="16" viewBox="0 0 16 16" version="1.1">
<g id="surface1">
<path style=" stroke:none;fill-rule:nonzero;fill:rgb(0%,0%,0%);fill-opacity:1;" d="M 12.667969 9.332031 L 12.667969 11.332031 L 14.667969 11.332031 L 14.667969 12.667969 L 12.667969 12.667969 L 12.667969 14.667969 L 11.332031 14.667969 L 11.332031 12.667969 L 9.332031 12.667969 L 9.332031 11.332031 L 11.332031 11.332031 L 11.332031 9.332031 Z M 13.496094 3.171875 C 14.933594 4.617188 15.046875 6.875 13.832031 8.445312 C 13.285156 8.160156 12.660156 8 12 8 C 9.789062 8 8 9.789062 8 12 C 8 12.671875 8.164062 13.308594 8.460938 13.863281 L 8 14.324219 L 2.347656 8.660156 C 0.945312 7.089844 0.996094 4.679688 2.503906 3.171875 C 4.015625 1.660156 6.429688 1.613281 8 3.019531 C 9.566406 1.613281 11.988281 1.660156 13.496094 3.171875 Z M 13.496094 3.171875 "/>
</g>
</svg>
