<?xml version="1.0" encoding="UTF-8"?>
<svg xmlns="http://www.w3.org/2000/svg" xmlns:xlink="http://www.w3.org/1999/xlink" width="16" height="16" viewBox="0 0 16 16" version="1.1">
<g id="surface1">
<path style=" stroke:none;fill-rule:nonzero;fill:rgb(0%,0%,0%);fill-opacity:1;" d="M 8 1.332031 C 11.683594 1.332031 14.667969 4.316406 14.667969 8 C 14.667969 11.683594 11.683594 14.667969 8 14.667969 C 4.316406 14.667969 1.332031 11.683594 1.332031 8 L 2.667969 8 C 2.667969 10.945312 5.054688 13.332031 8 13.332031 C 10.945312 13.332031 13.332031 10.945312 13.332031 8 C 13.332031 5.054688 10.945312 2.667969 8 2.667969 C 6.355469 2.667969 4.886719 3.410156 3.910156 4.578125 L 5.332031 6 L 1.332031 6 L 1.332031 2 L 2.964844 3.628906 C 4.1875 2.222656 5.988281 1.332031 8 1.332031 Z M 8.667969 4.667969 L 8.667969 7.722656 L 10.828125 9.886719 L 9.886719 10.828125 L 7.332031 8.273438 L 7.332031 4.667969 Z M 8.667969 4.667969 "/>
</g>
</svg>
