<?xml version="1.0" encoding="UTF-8"?>
<svg xmlns="http://www.w3.org/2000/svg" xmlns:xlink="http://www.w3.org/1999/xlink" width="16" height="16" viewBox="0 0 16 16" version="1.1">
<g id="surface1">
<path style=" stroke:none;fill-rule:nonzero;fill:rgb(0%,0%,0%);fill-opacity:1;" d="M 12.21875 2.835938 L 11.269531 3.785156 C 9.179688 2.15625 6.152344 2.304688 4.230469 4.230469 C 2.644531 5.8125 2.265625 8.140625 3.089844 10.082031 L 4.699219 8.46875 C 4.558594 7.46875 4.871094 6.414062 5.644531 5.644531 C 6.78125 4.503906 8.542969 4.363281 9.839844 5.21875 L 8.863281 6.195312 C 8.117188 5.839844 7.203125 5.96875 6.585938 6.585938 C 5.96875 7.203125 5.839844 8.117188 6.195312 8.863281 L 1.894531 13.160156 C 1.871094 10.828125 1.5 9.953125 1.371094 8.695312 C 1.167969 6.765625 1.808594 4.765625 3.285156 3.285156 C 5.730469 0.84375 9.601562 0.691406 12.21875 2.835938 Z M 14.105469 2.839844 C 14.128906 5.171875 14.5 6.046875 14.628906 7.304688 C 14.832031 9.234375 14.191406 11.234375 12.714844 12.714844 C 10.269531 15.15625 6.398438 15.308594 3.78125 13.164062 L 4.730469 12.214844 C 6.820312 13.84375 9.847656 13.695312 11.769531 11.769531 C 13.355469 10.1875 13.734375 7.859375 12.910156 5.917969 L 11.300781 7.53125 C 11.441406 8.53125 11.128906 9.585938 10.355469 10.355469 C 9.21875 11.496094 7.457031 11.636719 6.160156 10.78125 L 7.136719 9.804688 C 7.882812 10.160156 8.796875 10.03125 9.414062 9.414062 C 10.03125 8.796875 10.160156 7.882812 9.804688 7.136719 Z M 14.105469 2.839844 "/>
</g>
</svg>
