<?xml version="1.0" encoding="UTF-8"?>
<svg xmlns="http://www.w3.org/2000/svg" xmlns:xlink="http://www.w3.org/1999/xlink" width="16" height="16" viewBox="0 0 16 16" version="1.1">
<g id="surface1">
<path style=" stroke:none;fill-rule:nonzero;fill:rgb(0%,0%,0%);fill-opacity:1;" d="M 7.332031 1.332031 L 7.332031 7.332031 L 12 7.332031 L 12 14 C 12 14.367188 11.703125 14.667969 11.332031 14.667969 L 3.332031 14.667969 C 2.964844 14.667969 2.667969 14.367188 2.667969 14 L 2.667969 2 C 2.667969 1.632812 2.964844 1.332031 3.332031 1.332031 Z M 8.667969 4.667969 C 9.402344 4.667969 10 5.261719 10 6 L 8.667969 6 Z M 8.667969 2.667969 C 10.507812 2.667969 12 4.160156 12 6 L 10.667969 6 C 10.667969 4.894531 9.769531 4 8.667969 4 Z M 8.667969 0.667969 C 11.613281 0.667969 14 3.054688 14 6 L 12.667969 6 C 12.667969 3.789062 10.875 2 8.667969 2 Z M 8.667969 0.667969 "/>
</g>
</svg>
