<?xml version="1.0" encoding="UTF-8"?>
<svg xmlns="http://www.w3.org/2000/svg" xmlns:xlink="http://www.w3.org/1999/xlink" width="16" height="16" viewBox="0 0 16 16" version="1.1">
<g id="surface1">
<path style=" stroke:none;fill-rule:nonzero;fill:rgb(0%,0%,0%);fill-opacity:1;" d="M 14 1.332031 L 14 7.332031 L 12 7.332031 L 12 8 C 12 9.472656 10.808594 10.667969 9.332031 10.667969 L 8.414062 10.667969 L 8.003906 12.742188 L 8.613281 13.621094 C 8.820312 13.925781 8.746094 14.339844 8.441406 14.546875 C 8.332031 14.625 8.199219 14.667969 8.0625 14.667969 L 2 14.667969 L 3.542969 7.984375 L 2 7.332031 L 4.667969 1.332031 Z M 12.667969 2.667969 L 5.535156 2.667969 L 3.769531 6.632812 L 5.09375 7.191406 L 3.675781 13.332031 L 6.792969 13.332031 L 6.589844 13.035156 L 7.972656 6 L 12.667969 6 Z M 10.664062 7.332031 L 9.070312 7.332031 L 8.675781 9.332031 L 9.332031 9.332031 C 10.070312 9.332031 10.667969 8.738281 10.667969 8 Z M 10.664062 7.332031 "/>
</g>
</svg>
