<?xml version="1.0" encoding="UTF-8"?>
<svg xmlns="http://www.w3.org/2000/svg" xmlns:xlink="http://www.w3.org/1999/xlink" width="16" height="16" viewBox="0 0 16 16" version="1.1">
<g id="surface1">
<path style=" stroke:none;fill-rule:nonzero;fill:rgb(0%,0%,0%);fill-opacity:1;" d="M 13.332031 8.667969 C 13.703125 8.667969 14 8.964844 14 9.332031 L 14 13.332031 C 14 13.703125 13.703125 14 13.332031 14 L 2.667969 14 C 2.296875 14 2 13.703125 2 13.332031 L 2 9.332031 C 2 8.964844 2.296875 8.667969 2.667969 8.667969 Z M 12.667969 10 L 3.332031 10 L 3.332031 12.667969 L 12.667969 12.667969 Z M 8 0.667969 C 9.839844 0.667969 11.332031 2.160156 11.332031 4 C 11.332031 5.839844 9.839844 7.332031 8 7.332031 C 6.160156 7.332031 4.667969 5.839844 4.667969 4 C 4.667969 2.160156 6.160156 0.667969 8 0.667969 Z M 8.667969 2 L 7.332031 2 L 7.332031 3.332031 L 6 3.332031 L 6 4.667969 L 7.332031 4.664062 L 7.332031 6 L 8.667969 6 L 8.667969 4.664062 L 10 4.667969 L 10 3.332031 L 8.667969 3.332031 Z M 8.667969 2 "/>
</g>
</svg>
