<?xml version="1.0" encoding="UTF-8"?>
<svg xmlns="http://www.w3.org/2000/svg" xmlns:xlink="http://www.w3.org/1999/xlink" width="16" height="16" viewBox="0 0 16 16" version="1.1">
<g id="surface1">
<path style=" stroke:none;fill-rule:nonzero;fill:rgb(0%,0%,0%);fill-opacity:1;" d="M 8 1.332031 C 9.8125 1.332031 10.039062 1.339844 10.746094 1.375 C 11.457031 1.40625 11.941406 1.519531 12.367188 1.683594 C 12.808594 1.851562 13.175781 2.082031 13.546875 2.453125 C 13.886719 2.785156 14.148438 3.1875 14.316406 3.632812 C 14.480469 4.058594 14.59375 4.542969 14.625 5.253906 C 14.65625 5.960938 14.667969 6.1875 14.667969 8 C 14.667969 9.8125 14.660156 10.039062 14.625 10.746094 C 14.59375 11.457031 14.480469 11.941406 14.316406 12.367188 C 14.148438 12.8125 13.886719 13.214844 13.546875 13.546875 C 13.214844 13.886719 12.8125 14.148438 12.367188 14.316406 C 11.941406 14.480469 11.457031 14.59375 10.746094 14.625 C 10.039062 14.65625 9.8125 14.667969 8 14.667969 C 6.1875 14.667969 5.960938 14.660156 5.253906 14.625 C 4.542969 14.59375 4.058594 14.480469 3.632812 14.316406 C 3.1875 14.148438 2.785156 13.886719 2.453125 13.546875 C 2.113281 13.214844 1.851562 12.8125 1.683594 12.367188 C 1.519531 11.941406 1.40625 11.457031 1.375 10.746094 C 1.34375 10.039062 1.332031 9.8125 1.332031 8 C 1.332031 6.1875 1.339844 5.960938 1.375 5.253906 C 1.40625 4.542969 1.519531 4.058594 1.683594 3.632812 C 1.851562 3.1875 2.113281 2.785156 2.453125 2.453125 C 2.785156 2.113281 3.1875 1.851562 3.632812 1.683594 C 4.058594 1.519531 4.542969 1.40625 5.253906 1.375 C 5.960938 1.34375 6.1875 1.332031 8 1.332031 Z M 8 4.667969 C 6.160156 4.667969 4.667969 6.160156 4.667969 8 C 4.667969 9.839844 6.160156 11.332031 8 11.332031 C 9.839844 11.332031 11.332031 9.839844 11.332031 8 C 11.332031 6.160156 9.839844 4.667969 8 4.667969 Z M 12.332031 4.5 C 12.332031 4.039062 11.960938 3.667969 11.5 3.667969 C 11.039062 3.667969 10.667969 4.039062 10.667969 4.5 C 10.667969 4.960938 11.039062 5.332031 11.5 5.332031 C 11.960938 5.332031 12.332031 4.960938 12.332031 4.5 Z M 8 6 C 9.105469 6 10 6.894531 10 8 C 10 9.105469 9.105469 10 8 10 C 6.894531 10 6 9.105469 6 8 C 6 6.894531 6.894531 6 8 6 Z M 8 6 "/>
</g>
</svg>
