<?xml version="1.0" encoding="UTF-8"?>
<svg xmlns="http://www.w3.org/2000/svg" xmlns:xlink="http://www.w3.org/1999/xlink" width="16" height="16" viewBox="0 0 16 16" version="1.1">
<g id="surface1">
<path style=" stroke:none;fill-rule:nonzero;fill:rgb(0%,0%,0%);fill-opacity:1;" d="M 6.875 7.710938 L 12.167969 2.417969 L 13.582031 3.832031 L 12.640625 4.773438 L 14.054688 6.1875 L 11.699219 8.546875 L 10.285156 7.132812 L 8.289062 9.125 C 9.046875 10.582031 8.628906 12.378906 7.304688 13.351562 C 5.976562 14.324219 4.140625 14.183594 2.976562 13.023438 C 1.8125 11.859375 1.671875 10.019531 2.644531 8.691406 C 3.617188 7.367188 5.414062 6.949219 6.875 7.710938 Z M 6.277344 11.609375 C 6.621094 11.273438 6.761719 10.777344 6.640625 10.3125 C 6.515625 9.847656 6.152344 9.484375 5.6875 9.359375 C 5.222656 9.238281 4.726562 9.378906 4.390625 9.722656 C 3.886719 10.246094 3.894531 11.078125 4.40625 11.59375 C 4.921875 12.105469 5.753906 12.113281 6.277344 11.609375 Z M 6.277344 11.609375 "/>
</g>
</svg>
