<?xml version="1.0" encoding="UTF-8"?>
<svg xmlns="http://www.w3.org/2000/svg" xmlns:xlink="http://www.w3.org/1999/xlink" width="16" height="16" viewBox="0 0 16 16" version="1.1">
<g id="surface1">
<path style=" stroke:none;fill-rule:nonzero;fill:rgb(0%,0%,0%);fill-opacity:1;" d="M 12.984375 0.195312 L 5.507812 8.15625 C 5.140625 8.007812 4.757812 7.914062 4.363281 7.882812 C 4.242188 7.875 4.117188 7.867188 3.992188 7.867188 C 1.945312 7.882812 0.242188 9.457031 0.0703125 11.5 C -0.117188 13.679688 1.5 15.605469 3.6875 15.789062 C 5.867188 15.976562 7.789062 14.359375 7.976562 12.175781 C 8.046875 11.378906 7.867188 10.578125 7.476562 9.882812 L 9.546875 7.628906 L 11.484375 9.414062 L 13.269531 7.476562 L 11.332031 5.691406 L 12.226562 4.722656 L 14.164062 6.507812 L 15.945312 4.570312 L 13.882812 2.671875 L 14.710938 1.835938 Z M 3.976562 10.617188 C 4.027344 10.617188 4.078125 10.617188 4.128906 10.621094 C 4.796875 10.679688 5.296875 11.273438 5.242188 11.941406 C 5.179688 12.613281 4.589844 13.109375 3.921875 13.054688 C 3.25 12.996094 2.75 12.40625 2.808594 11.734375 C 2.859375 11.117188 3.359375 10.640625 3.976562 10.617188 Z M 3.976562 10.617188 "/>
</g>
</svg>
