<?xml version="1.0" encoding="UTF-8"?>
<svg xmlns="http://www.w3.org/2000/svg" xmlns:xlink="http://www.w3.org/1999/xlink" width="16" height="16" viewBox="0 0 16 16" version="1.1">
<g id="surface1">
<path style=" stroke:none;fill-rule:nonzero;fill:rgb(0%,0%,0%);fill-opacity:1;" d="M 1.140625 0 L 5.859375 0 C 6.488281 0 7 0.511719 7 1.140625 L 7 9.859375 C 7 10.488281 6.488281 11 5.859375 11 L 1.140625 11 C 0.511719 11 0 10.488281 0 9.859375 L 0 1.140625 C 0 0.511719 0.511719 0 1.140625 0 Z M 1.140625 0 "/>
<path style=" stroke:none;fill-rule:nonzero;fill:rgb(0%,0%,0%);fill-opacity:1;" d="M 1.140625 13 L 5.859375 13 C 6.488281 13 7 13.511719 7 14.140625 L 7 14.859375 C 7 15.488281 6.488281 16 5.859375 16 L 1.140625 16 C 0.511719 16 0 15.488281 0 14.859375 L 0 14.140625 C 0 13.511719 0.511719 13 1.140625 13 Z M 1.140625 13 "/>
<path style=" stroke:none;fill-rule:nonzero;fill:rgb(0%,0%,0%);fill-opacity:1;" d="M 10.140625 0 L 14.859375 0 C 15.488281 0 16 0.511719 16 1.140625 L 16 1.859375 C 16 2.488281 15.488281 3 14.859375 3 L 10.140625 3 C 9.511719 3 9 2.488281 9 1.859375 L 9 1.140625 C 9 0.511719 9.511719 0 10.140625 0 Z M 10.140625 0 "/>
<path style=" stroke:none;fill-rule:nonzero;fill:rgb(0%,0%,0%);fill-opacity:1;" d="M 10.140625 5 L 14.859375 5 C 15.488281 5 16 5.511719 16 6.140625 L 16 14.859375 C 16 15.488281 15.488281 16 14.859375 16 L 10.140625 16 C 9.511719 16 9 15.488281 9 14.859375 L 9 6.140625 C 9 5.511719 9.511719 5 10.140625 5 Z M 10.140625 5 "/>
</g>
</svg>
