<?xml version="1.0" encoding="UTF-8"?>
<svg xmlns="http://www.w3.org/2000/svg" xmlns:xlink="http://www.w3.org/1999/xlink" width="16" height="16" viewBox="0 0 16 16" version="1.1">
<g id="surface1">
<path style=" stroke:none;fill-rule:nonzero;fill:rgb(0%,0%,0%);fill-opacity:1;" d="M -0.015625 8.765625 L -0.015625 1.132812 L 1.210938 1.132812 L 3.773438 6.226562 L 3.773438 1.132812 L 4.953125 1.132812 L 4.953125 8.765625 L 3.679688 8.765625 L 1.160156 3.789062 L 1.160156 8.765625 Z M -0.015625 8.765625 "/>
<path style=" stroke:none;fill-rule:nonzero;fill:rgb(0%,0%,0%);fill-opacity:1;" d="M 6.03125 4.992188 C 6.03125 4.085938 6.164062 3.335938 6.429688 2.75 C 6.703125 2.160156 7.054688 1.71875 7.488281 1.429688 C 7.921875 1.144531 8.445312 1 9.066406 1 C 9.960938 1 10.691406 1.34375 11.253906 2.023438 C 11.820312 2.710938 12.101562 3.683594 12.101562 4.945312 C 12.101562 6.226562 11.804688 7.226562 11.207031 7.945312 C 10.679688 8.578125 9.96875 8.898438 9.070312 8.898438 C 8.164062 8.898438 7.449219 8.582031 6.925781 7.953125 C 6.328125 7.234375 6.03125 6.25 6.03125 4.992188 Z M 7.332031 4.945312 C 7.332031 5.820312 7.5 6.480469 7.832031 6.921875 C 8.164062 7.359375 8.578125 7.578125 9.070312 7.578125 C 9.570312 7.578125 9.976562 7.359375 10.304688 6.929688 C 10.632812 6.492188 10.796875 5.820312 10.796875 4.914062 C 10.796875 4.03125 10.632812 3.375 10.316406 2.953125 C 10 2.53125 9.585938 2.320312 9.070312 2.320312 C 8.554688 2.320312 8.140625 2.53125 7.816406 2.960938 C 7.492188 3.382812 7.332031 4.046875 7.332031 4.945312 Z M 7.332031 4.945312 "/>
<path style=" stroke:none;fill-rule:nonzero;fill:rgb(0%,0%,0%);fill-opacity:1;" d="M 12.46875 9.539062 L 13.695312 7.398438 L 12.515625 5.390625 L 13.617188 5.390625 L 14.21875 6.53125 L 14.851562 5.390625 L 15.90625 5.390625 L 14.757812 7.351562 L 16.015625 9.539062 L 14.914062 9.539062 L 14.21875 8.25 L 13.515625 9.539062 Z M 12.46875 9.539062 "/>
<path style=" stroke:none;fill-rule:evenodd;fill:rgb(0%,0%,0%);fill-opacity:1;" d="M 2 11 C 0.890625 11 0 11.890625 0 13 L 0 14 C 0 15.109375 0.890625 16 2 16 L 14 16 C 15.109375 16 16 15.109375 16 14 L 16 13 C 16 11.890625 15.109375 11 14 11 Z M 12 12 L 14 12 C 14.554688 12 15 12.445312 15 13 L 15 14 C 15 14.554688 14.554688 15 14 15 L 12 15 Z M 12 12 "/>
</g>
</svg>
