<?xml version="1.0" encoding="UTF-8"?>
<svg xmlns="http://www.w3.org/2000/svg" xmlns:xlink="http://www.w3.org/1999/xlink" width="16" height="16" viewBox="0 0 16 16" version="1.1">
<g id="surface1">
<path style=" stroke:none;fill-rule:nonzero;fill:rgb(0%,0%,0%);fill-opacity:1;" d="M 9 0 L 7 0.00390625 L 7 4 L 6 4 L 0 10 L 16 10 L 10 4 L 9 4 Z M 9 0 "/>
<path style=" stroke:none;fill-rule:evenodd;fill:rgb(0%,0%,0%);fill-opacity:1;" d="M 10 11 C 10 11.71875 9.617188 12.375 9 12.734375 C 8.382812 13.09375 7.617188 13.09375 7 12.734375 C 6.382812 12.375 6 11.71875 6 11 Z M 10 11 "/>
<path style=" stroke:none;fill-rule:nonzero;fill:rgb(0%,0%,0%);fill-opacity:1;" d="M 7.78125 9.554688 L 6.859375 10 L 8 10 L 7.996094 10 Z M 8 10 L 9.074219 10 L 8.230469 9.5625 Z M 4.210938 11.289062 L 2.125 12.300781 L 2.570312 13.203125 L 4.648438 12.1875 C 4.46875 11.90625 4.320312 11.605469 4.210938 11.289062 Z M 11.746094 11.398438 C 11.628906 11.714844 11.472656 12.011719 11.28125 12.289062 L 13.324219 13.355469 L 13.789062 12.46875 Z M 6.027344 13.484375 L 5.160156 15.59375 L 6.089844 15.96875 L 6.953125 13.863281 C 6.628906 13.773438 6.320312 13.648438 6.027344 13.484375 Z M 9.925781 13.507812 C 9.632812 13.667969 9.320312 13.789062 8.996094 13.875 L 9.847656 16.023438 L 10.777344 15.65625 Z M 9.925781 13.507812 "/>
</g>
</svg>
