<?xml version="1.0" encoding="UTF-8"?>
<svg xmlns="http://www.w3.org/2000/svg" xmlns:xlink="http://www.w3.org/1999/xlink" width="16" height="16" viewBox="0 0 16 16" version="1.1">
<g id="surface1">
<path style=" stroke:none;fill-rule:nonzero;fill:rgb(0%,0%,0%);fill-opacity:1;" d="M 2.667969 2 L 13.332031 2 C 13.703125 2 14 2.296875 14 2.667969 L 14 13.332031 C 14 13.703125 13.703125 14 13.332031 14 L 2.667969 14 C 2.296875 14 2 13.703125 2 13.332031 L 2 2.667969 C 2 2.296875 2.296875 2 2.667969 2 Z M 3.332031 3.332031 L 3.332031 12.667969 L 12.667969 12.667969 L 12.667969 3.332031 Z M 5 6 C 4.449219 6 4 5.550781 4 5 C 4 4.449219 4.449219 4 5 4 C 5.550781 4 6 4.449219 6 5 C 6 5.550781 5.550781 6 5 6 Z M 4.332031 6.667969 L 5.667969 6.667969 L 5.667969 11.667969 L 4.332031 11.667969 Z M 8 6.953125 C 8.390625 6.578125 8.84375 6.332031 9.332031 6.332031 C 10.714844 6.332031 11.667969 7.453125 11.667969 8.832031 L 11.667969 11.667969 L 10.332031 11.667969 L 10.332031 8.832031 C 10.332031 8.1875 9.8125 7.667969 9.167969 7.667969 C 8.523438 7.667969 8 8.1875 8 8.832031 L 8 11.667969 L 6.667969 11.667969 L 6.667969 6.667969 L 8 6.667969 Z M 8 6.953125 "/>
</g>
</svg>
