<?xml version="1.0" encoding="UTF-8"?>
<svg xmlns="http://www.w3.org/2000/svg" xmlns:xlink="http://www.w3.org/1999/xlink" width="16" height="16" viewBox="0 0 16 16" version="1.1">
<g id="surface1">
<path style=" stroke:none;fill-rule:nonzero;fill:rgb(0%,0%,0%);fill-opacity:1;" d="M 11.769531 9.886719 L 10.828125 8.941406 L 11.769531 8 C 12.8125 6.957031 12.8125 5.269531 11.769531 4.230469 C 10.730469 3.1875 9.042969 3.1875 8 4.230469 L 7.058594 5.171875 L 6.113281 4.230469 L 7.058594 3.285156 C 8.621094 1.746094 11.136719 1.753906 12.691406 3.308594 C 14.246094 4.863281 14.253906 7.378906 12.714844 8.941406 Z M 9.886719 11.769531 L 8.941406 12.714844 C 7.933594 13.738281 6.457031 14.144531 5.066406 13.773438 C 3.675781 13.40625 2.59375 12.324219 2.226562 10.933594 C 1.855469 9.542969 2.261719 8.066406 3.285156 7.058594 L 4.230469 6.113281 L 5.171875 7.058594 L 4.230469 8 C 3.1875 9.042969 3.1875 10.730469 4.230469 11.769531 C 5.269531 12.8125 6.957031 12.8125 8 11.769531 L 8.941406 10.828125 Z M 9.886719 5.171875 L 10.828125 6.113281 L 6.113281 10.828125 L 5.171875 9.886719 Z M 3.851562 1.527344 L 5.136719 1.183594 L 5.828125 3.761719 L 4.539062 4.105469 L 3.851562 1.53125 Z M 10.171875 12.242188 L 11.460938 11.894531 L 12.148438 14.472656 L 10.863281 14.816406 Z M 1.527344 3.851562 L 4.105469 4.539062 L 3.757812 5.828125 L 1.183594 5.136719 Z M 12.242188 10.171875 L 14.816406 10.863281 L 14.472656 12.148438 L 11.894531 11.460938 Z M 12.242188 10.171875 "/>
</g>
</svg>
