<?xml version="1.0" encoding="UTF-8"?>
<svg xmlns="http://www.w3.org/2000/svg" xmlns:xlink="http://www.w3.org/1999/xlink" width="16" height="16" viewBox="0 0 16 16" version="1.1">
<g id="surface1">
<path style=" stroke:none;fill-rule:nonzero;fill:rgb(0%,0%,0%);fill-opacity:1;" d="M 8 14.667969 C 4.316406 14.667969 1.332031 11.683594 1.332031 8 C 1.332031 4.316406 4.316406 1.332031 8 1.332031 C 10.097656 1.332031 12.074219 2.320312 13.332031 4 L 11.527344 4 C 9.382812 2.109375 6.128906 2.246094 4.148438 4.308594 C 2.171875 6.371094 2.171875 9.628906 4.152344 11.691406 C 6.128906 13.753906 9.382812 13.890625 11.527344 12 L 13.335938 12 C 12.074219 13.679688 10.097656 14.667969 8 14.667969 Z M 12.667969 10.667969 L 12.667969 8.667969 L 7.332031 8.667969 L 7.332031 7.332031 L 12.667969 7.332031 L 12.667969 5.332031 L 16 8 Z M 12.667969 10.667969 "/>
</g>
</svg>
