<?xml version="1.0" encoding="UTF-8"?>
<svg xmlns="http://www.w3.org/2000/svg" xmlns:xlink="http://www.w3.org/1999/xlink" width="16" height="16" viewBox="0 0 16 16" version="1.1">
<g id="surface1">
<path style=" stroke:none;fill-rule:nonzero;fill:rgb(0%,0%,0%);fill-opacity:1;" d="M 5.667969 3.667969 C 6.609375 3.980469 7.03125 5.105469 7.21875 6.347656 L 4.203125 8.089844 L 4.871094 9.242188 L 7.34375 7.816406 C 7.375 8.71875 7.332031 9.539062 7.332031 10 C 7.332031 12 6.667969 14 4 14 C 1.332031 14 1.332031 14 1.332031 11.332031 C 1.332031 6.332031 3.667969 3 5.667969 3.667969 Z M 14.667969 11.332031 L 14.667969 11.625 C 14.664062 14 14.566406 14 12 14 C 9.335938 14 8.667969 12 8.667969 10 C 8.667969 9.539062 8.628906 8.71875 8.65625 7.816406 L 11.132812 9.242188 L 11.796875 8.089844 L 8.78125 6.347656 C 8.96875 5.105469 9.394531 3.980469 10.335938 3.667969 C 12.335938 3 14.667969 6.332031 14.667969 11.332031 Z M 8.667969 1.332031 L 8.667969 7.332031 L 7.332031 7.332031 L 7.332031 1.332031 Z M 8.667969 1.332031 "/>
</g>
</svg>
