<?xml version="1.0" encoding="UTF-8"?>
<svg xmlns="http://www.w3.org/2000/svg" xmlns:xlink="http://www.w3.org/1999/xlink" width="16" height="16" viewBox="0 0 16 16" version="1.1">
<g id="surface1">
<path style=" stroke:none;fill-rule:nonzero;fill:rgb(0%,0%,0%);fill-opacity:1;" d="M 1.496094 4.570312 L 7.660156 0.875 C 7.871094 0.746094 8.136719 0.746094 8.347656 0.875 L 14.503906 4.570312 C 14.605469 4.628906 14.667969 4.738281 14.667969 4.855469 L 14.667969 13.332031 C 14.667969 13.703125 14.367188 14 14 14 L 2 14 C 1.632812 14 1.332031 13.703125 1.332031 13.332031 L 1.332031 4.855469 C 1.332031 4.738281 1.394531 4.628906 1.496094 4.570312 Z M 2.667969 5.421875 L 2.667969 12.667969 L 13.332031 12.667969 L 13.332031 5.421875 L 8.003906 2.222656 Z M 8.039062 9.132812 L 11.570312 6.15625 L 12.429688 7.175781 L 8.050781 10.867188 L 3.574219 7.179688 L 4.425781 6.152344 Z M 8.039062 9.132812 "/>
</g>
</svg>
