<?xml version="1.0" encoding="UTF-8"?>
<svg xmlns="http://www.w3.org/2000/svg" xmlns:xlink="http://www.w3.org/1999/xlink" width="16" height="16" viewBox="0 0 16 16" version="1.1">
<g id="surface1">
<path style=" stroke:none;fill-rule:nonzero;fill:rgb(0%,0%,0%);fill-opacity:1;" d="M 1.332031 3.332031 L 6 1.332031 L 10 3.332031 L 14.203125 1.53125 C 14.304688 1.488281 14.421875 1.5 14.515625 1.5625 C 14.609375 1.621094 14.667969 1.726562 14.667969 1.839844 L 14.667969 12.667969 L 10 14.667969 L 6 12.667969 L 1.796875 14.46875 C 1.695312 14.511719 1.578125 14.5 1.484375 14.4375 C 1.390625 14.378906 1.332031 14.273438 1.332031 14.160156 Z M 9.957031 4.800781 L 5.957031 2.800781 L 2.667969 4.210938 L 2.667969 12.644531 L 6.042969 11.199219 L 10.042969 13.199219 L 13.332031 11.785156 L 13.332031 3.355469 Z M 9.957031 4.800781 "/>
</g>
</svg>
