<?xml version="1.0" encoding="UTF-8"?>
<svg xmlns="http://www.w3.org/2000/svg" xmlns:xlink="http://www.w3.org/1999/xlink" width="16" height="16" viewBox="0 0 16 16" version="1.1">
<g id="surface1">
<path style=" stroke:none;fill-rule:evenodd;fill:rgb(0%,0%,0%);fill-opacity:1;" d="M 6 1 C 4.890625 1 4 1.890625 4 3 L 2 3 L 2 5 L 4 5 L 4 7 L 2 7 L 2 9 L 4 9 L 4 11 L 2 11 L 2 13 L 4 13 C 4 14.109375 4.890625 15 6 15 L 10 15 C 11.109375 15 12 14.109375 12 13 L 14 13 L 14 11 L 12 11 L 12 9 L 14 9 L 14 7 L 12 7 L 12 5 L 14 5 L 14 3 L 12 3 C 12 1.890625 11.109375 1 10 1 Z M 6 1 "/>
</g>
</svg>
