<?xml version="1.0" encoding="UTF-8"?>
<svg xmlns="http://www.w3.org/2000/svg" xmlns:xlink="http://www.w3.org/1999/xlink" width="16" height="16" viewBox="0 0 16 16" version="1.1">
<g id="surface1">
<path style=" stroke:none;fill-rule:nonzero;fill:rgb(0%,0%,0%);fill-opacity:1;" d="M 2.085938 2.429688 C 2.199219 2.59375 2.363281 2.714844 2.554688 2.773438 C 7.992188 4.40625 11.71875 9.410156 11.71875 15.09375 C 11.71875 15.320312 11.808594 15.539062 11.96875 15.699219 C 12.132812 15.859375 12.351562 15.953125 12.578125 15.949219 C 13.054688 15.945312 13.429688 15.5625 13.429688 15.09375 C 13.429688 8.660156 9.207031 2.984375 3.046875 1.132812 C 2.59375 1 2.117188 1.253906 1.976562 1.707031 C 1.90625 1.953125 1.945312 2.214844 2.085938 2.429688 Z M 2.085938 2.429688 "/>
<path style=" stroke:none;fill-rule:nonzero;fill:rgb(0%,0%,0%);fill-opacity:1;" d="M 14.476562 0.0546875 C 14.449219 0.0546875 14.421875 0.0546875 14.398438 0.0585938 C 14.359375 0.0625 14.316406 0.0703125 14.273438 0.0820312 C 14.261719 0.0859375 14.25 0.09375 14.238281 0.09375 C 14.21875 0.101562 14.195312 0.109375 14.179688 0.117188 L 10.472656 1.402344 C 10.1875 1.5 9.972656 1.742188 9.914062 2.039062 C 9.851562 2.339844 9.953125 2.648438 10.179688 2.851562 L 10.878906 3.484375 L 0.859375 14.003906 C 0.535156 14.34375 0.546875 14.890625 0.890625 15.214844 C 1.054688 15.375 1.277344 15.460938 1.507812 15.453125 C 1.734375 15.445312 1.953125 15.351562 2.109375 15.1875 L 12.148438 4.636719 L 12.804688 5.226562 C 13.023438 5.421875 13.328125 5.496094 13.609375 5.417969 C 13.890625 5.339844 14.117188 5.125 14.203125 4.84375 L 15.308594 1.25 C 15.320312 1.21875 15.328125 1.1875 15.335938 1.15625 C 15.34375 1.140625 15.347656 1.117188 15.351562 1.101562 C 15.359375 1.070312 15.363281 1.039062 15.367188 1.011719 C 15.367188 1.007812 15.367188 1 15.367188 0.996094 C 15.371094 0.964844 15.375 0.933594 15.375 0.898438 C 15.375 0.871094 15.371094 0.84375 15.367188 0.8125 C 15.367188 0.804688 15.367188 0.804688 15.367188 0.796875 C 15.363281 0.765625 15.359375 0.738281 15.351562 0.710938 C 15.347656 0.6875 15.34375 0.671875 15.335938 0.648438 C 15.328125 0.625 15.320312 0.59375 15.308594 0.570312 C 15.296875 0.546875 15.289062 0.53125 15.28125 0.507812 C 15.265625 0.484375 15.25 0.460938 15.234375 0.4375 C 15.222656 0.417969 15.210938 0.398438 15.195312 0.382812 C 15.179688 0.359375 15.15625 0.335938 15.140625 0.320312 C 15.113281 0.289062 15.085938 0.265625 15.054688 0.242188 C 15.03125 0.222656 15.003906 0.203125 14.976562 0.1875 C 14.9375 0.160156 14.898438 0.136719 14.859375 0.117188 C 14.851562 0.117188 14.847656 0.113281 14.84375 0.109375 C 14.820312 0.101562 14.792969 0.09375 14.769531 0.0859375 C 14.734375 0.078125 14.703125 0.0703125 14.664062 0.0664062 C 14.625 0.0585938 14.585938 0.0546875 14.546875 0.0507812 C 14.523438 0.0507812 14.5 0.0507812 14.472656 0.0507812 Z M 14.476562 0.0546875 "/>
</g>
</svg>
