<?xml version="1.0" encoding="UTF-8"?>
<svg xmlns="http://www.w3.org/2000/svg" xmlns:xlink="http://www.w3.org/1999/xlink" width="16" height="16" viewBox="0 0 16 16" version="1.1">
<g id="surface1">
<path style=" stroke:none;fill-rule:nonzero;fill:rgb(0%,0%,0%);fill-opacity:1;" d="M 2.667969 2 L 13.332031 2 C 13.703125 2 14 2.296875 14 2.667969 L 14 13.332031 C 14 13.703125 13.703125 14 13.332031 14 L 2.667969 14 C 2.296875 14 2 13.703125 2 13.332031 L 2 2.667969 C 2 2.296875 2.296875 2 2.667969 2 Z M 11.535156 10.625 C 11.464844 10.59375 11.433594 10.492188 11.433594 10.425781 L 11.433594 5.335938 C 11.433594 5.269531 11.464844 5.171875 11.535156 5.101562 L 12.171875 4.367188 L 12.171875 4.332031 L 9.894531 4.332031 L 8.1875 8.652344 L 6.242188 4.332031 L 3.902344 4.332031 L 3.902344 4.367188 L 4.503906 5.203125 C 4.636719 5.335938 4.671875 5.539062 4.671875 5.707031 L 4.671875 9.386719 C 4.703125 9.589844 4.671875 9.824219 4.570312 10.023438 L 3.667969 11.261719 L 3.667969 11.296875 L 6.078125 11.296875 L 6.078125 11.261719 L 5.171875 10.058594 C 5.074219 9.855469 5.039062 9.65625 5.074219 9.421875 L 5.074219 6.074219 C 5.105469 6.140625 5.140625 6.140625 5.171875 6.273438 L 7.449219 11.363281 L 7.484375 11.363281 L 9.691406 5.839844 C 9.660156 6.039062 9.660156 6.273438 9.660156 6.441406 L 9.660156 10.394531 C 9.660156 10.492188 9.625 10.558594 9.558594 10.625 L 8.890625 11.261719 L 8.890625 11.296875 L 12.171875 11.296875 L 12.171875 11.261719 Z M 11.535156 10.625 "/>
</g>
</svg>
