<?xml version="1.0" encoding="UTF-8"?>
<svg xmlns="http://www.w3.org/2000/svg" xmlns:xlink="http://www.w3.org/1999/xlink" width="16" height="16" viewBox="0 0 16 16" version="1.1">
<g id="surface1">
<path style=" stroke:none;fill-rule:nonzero;fill:rgb(0%,0%,0%);fill-opacity:1;" d="M 10.035156 5.691406 L 12.390625 3.332031 L 9.332031 3.332031 L 9.332031 2 L 14.667969 2 L 14.667969 7.332031 L 13.332031 7.332031 L 13.332031 4.277344 L 10.976562 6.632812 C 12.570312 8.726562 12.273438 11.699219 10.292969 13.429688 C 8.308594 15.164062 5.324219 15.0625 3.464844 13.203125 C 1.605469 11.339844 1.503906 8.355469 3.234375 6.375 C 4.96875 4.394531 7.941406 4.09375 10.03125 5.691406 Z M 7 13.332031 C 9.023438 13.332031 10.667969 11.691406 10.667969 9.667969 C 10.667969 7.640625 9.023438 6 7 6 C 4.976562 6 3.332031 7.640625 3.332031 9.667969 C 3.332031 11.691406 4.976562 13.332031 7 13.332031 Z M 7 13.332031 "/>
</g>
</svg>
