<?xml version="1.0" encoding="UTF-8"?>
<svg xmlns="http://www.w3.org/2000/svg" xmlns:xlink="http://www.w3.org/1999/xlink" width="16" height="16" viewBox="0 0 16 16" version="1.1">
<g id="surface1">
<path style=" stroke:none;fill-rule:evenodd;fill:rgb(0%,0%,0%);fill-opacity:1;" d="M 1 2 C 0.445312 2 0 2.445312 0 3 L 0 13 C 0 13.554688 0.445312 14 1 14 L 15 14 C 15.554688 14 16 13.554688 16 13 L 16 3 C 16 2.445312 15.554688 2 15 2 Z M 2 4 L 11 4 L 11 12 L 2 12 Z M 12 4 L 14 4 L 14 6 L 12 6 Z M 4.921875 6 C 4.53125 6 4.234375 6.234375 3.957031 6.523438 C 3.679688 6.8125 3.378906 7.207031 2.984375 7.71875 L 3.699219 8.273438 C 4.09375 7.761719 4.390625 7.375 4.605469 7.152344 C 4.820312 6.929688 4.921875 6.910156 4.921875 6.910156 C 4.925781 6.910156 5.023438 6.929688 5.242188 7.152344 C 5.457031 7.375 5.75 7.761719 6.148438 8.273438 C 6.546875 8.789062 6.84375 9.171875 7.125 9.460938 C 7.402344 9.75 7.695312 9.988281 8.089844 9.988281 C 8.484375 9.988281 8.777344 9.75 9.054688 9.460938 C 9.335938 9.171875 9.632812 8.789062 10.03125 8.273438 L 9.316406 7.71875 C 8.921875 8.234375 8.625 8.617188 8.40625 8.84375 C 8.191406 9.070312 8.09375 9.085938 8.089844 9.085938 C 8.085938 9.085938 7.992188 9.070312 7.773438 8.84375 C 7.554688 8.617188 7.261719 8.234375 6.867188 7.71875 C 6.46875 7.207031 6.171875 6.8125 5.890625 6.523438 C 5.609375 6.234375 5.316406 6 4.921875 6 Z M 12 7 L 14 7 L 14 8 L 12 8 Z M 13 10 C 13.554688 10 14 10.445312 14 11 C 14 11.554688 13.554688 12 13 12 C 12.445312 12 12 11.554688 12 11 C 12 10.445312 12.445312 10 13 10 Z M 13 10 "/>
</g>
</svg>
