<?xml version="1.0" encoding="UTF-8"?>
<svg xmlns="http://www.w3.org/2000/svg" xmlns:xlink="http://www.w3.org/1999/xlink" width="16" height="16" viewBox="0 0 16 16" version="1.1">
<g id="surface1">
<path style=" stroke:none;fill-rule:nonzero;fill:rgb(0%,0%,0%);fill-opacity:1;" d="M 0.5 1 C 0.222656 1 -0.00390625 1.226562 -0.00390625 1.503906 L -0.00390625 14.496094 C -0.00390625 14.773438 0.222656 15 0.5 15 L 15.5 15 C 15.777344 15 16.003906 14.773438 16 14.496094 L 16 1.503906 C 16.003906 1.226562 15.777344 1 15.5 1 Z M 5.539062 3.5 L 6.441406 3.5 L 6.28125 4.59375 C 6.464844 4.609375 6.640625 4.632812 6.816406 4.65625 C 6.992188 4.6875 7.164062 4.71875 7.320312 4.757812 L 7.320312 5.855469 C 7.140625 5.796875 6.945312 5.75 6.734375 5.703125 C 6.53125 5.65625 6.328125 5.625 6.125 5.605469 L 5.882812 7.273438 C 6.113281 7.359375 6.34375 7.445312 6.570312 7.546875 C 6.804688 7.640625 7.011719 7.761719 7.195312 7.90625 C 7.382812 8.046875 7.535156 8.222656 7.648438 8.429688 C 7.765625 8.628906 7.828125 8.875 7.828125 9.164062 C 7.828125 9.5 7.757812 9.789062 7.632812 10.039062 C 7.503906 10.28125 7.328125 10.492188 7.101562 10.660156 C 6.878906 10.828125 6.609375 10.960938 6.304688 11.050781 C 6 11.140625 5.664062 11.199219 5.300781 11.21875 L 5.109375 12.5 L 4.210938 12.5 L 4.390625 11.210938 C 3.914062 11.179688 3.453125 11.101562 3 10.976562 L 3 9.78125 C 3.242188 9.859375 3.5 9.929688 3.765625 10 C 4.03125 10.0625 4.296875 10.109375 4.554688 10.140625 L 4.824219 8.285156 C 4.601562 8.210938 4.382812 8.125 4.164062 8.027344 C 3.945312 7.929688 3.753906 7.8125 3.585938 7.671875 C 3.414062 7.527344 3.273438 7.351562 3.171875 7.152344 C 3.0625 6.945312 3.007812 6.703125 3.007812 6.414062 C 3.007812 6.175781 3.054688 5.945312 3.148438 5.734375 C 3.242188 5.515625 3.382812 5.328125 3.574219 5.160156 C 3.769531 4.992188 4.015625 4.851562 4.3125 4.742188 C 4.609375 4.632812 4.96875 4.5625 5.382812 4.546875 Z M 9 4.5 L 13 4.5 L 13 5.5 L 9 5.5 Z M 5.222656 5.59375 C 4.898438 5.628906 4.671875 5.710938 4.539062 5.835938 C 4.40625 5.960938 4.34375 6.117188 4.34375 6.304688 C 4.34375 6.460938 4.398438 6.59375 4.515625 6.695312 C 4.632812 6.804688 4.800781 6.898438 5.023438 6.984375 Z M 9 6.5 L 13 6.5 L 13 7.5 L 9 7.5 Z M 9 8.5 L 13 8.5 L 13 9.5 L 9 9.5 Z M 5.683594 8.578125 L 5.453125 10.148438 C 5.636719 10.128906 5.796875 10.09375 5.925781 10.046875 C 6.054688 10 6.160156 9.941406 6.238281 9.875 C 6.320312 9.800781 6.378906 9.722656 6.414062 9.636719 C 6.453125 9.550781 6.472656 9.460938 6.472656 9.359375 C 6.472656 9.164062 6.410156 9.007812 6.28125 8.890625 C 6.160156 8.769531 5.960938 8.664062 5.683594 8.578125 Z M 9 10.5 L 13 10.5 L 13 11.5 L 9 11.5 Z M 9 10.5 "/>
</g>
</svg>
