<?xml version="1.0" encoding="UTF-8"?>
<svg xmlns="http://www.w3.org/2000/svg" xmlns:xlink="http://www.w3.org/1999/xlink" width="16" height="16" viewBox="0 0 16 16" version="1.1">
<g id="surface1">
<path style=" stroke:none;fill-rule:nonzero;fill:rgb(0%,0%,0%);fill-opacity:1;" d="M 10.667969 13.554688 L 10.667969 12 L 9.332031 12 L 9.332031 9.332031 L 2.222656 9.332031 C 2.074219 8.789062 2 8.230469 2 7.667969 C 2 4.625 4.140625 2.085938 7 1.472656 C 6.214844 3.582031 6.835938 5.953125 8.550781 7.40625 C 10.269531 8.859375 12.710938 9.078125 14.660156 7.957031 C 14.546875 10.445312 12.984375 12.636719 10.667969 13.558594 Z M 4.667969 13.332031 L 9.332031 13.332031 L 9.332031 14.667969 L 4.667969 14.667969 Z M 1.332031 10.667969 L 8 10.667969 L 8 12 L 1.332031 12 Z M 1.332031 10.667969 "/>
</g>
</svg>
