<?xml version="1.0" encoding="UTF-8"?>
<svg xmlns="http://www.w3.org/2000/svg" xmlns:xlink="http://www.w3.org/1999/xlink" width="16" height="16" viewBox="0 0 16 16" version="1.1">
<g id="surface1">
<path style=" stroke:none;fill-rule:nonzero;fill:rgb(0%,0%,0%);fill-opacity:1;" d="M 9.925781 1.332031 L 6.964844 6.457031 C 8.96875 5.964844 11.039062 6.953125 11.921875 8.816406 C 12.800781 10.683594 12.242188 12.910156 10.589844 14.140625 C 8.933594 15.371094 6.640625 15.269531 5.105469 13.890625 C 3.570312 12.511719 3.21875 10.242188 4.265625 8.464844 L 8.382812 1.332031 Z M 8 7.667969 C 6.34375 7.667969 5 9.011719 5 10.667969 C 5 12.324219 6.34375 13.667969 8 13.667969 C 9.65625 13.667969 11 12.324219 11 10.667969 C 11 9.011719 9.65625 7.667969 8 7.667969 Z M 8 7.667969 "/>
</g>
</svg>
