<?xml version="1.0" encoding="UTF-8"?>
<svg xmlns="http://www.w3.org/2000/svg" xmlns:xlink="http://www.w3.org/1999/xlink" width="16" height="16" viewBox="0 0 16 16" version="1.1">
<g id="surface1">
<path style=" stroke:none;fill-rule:evenodd;fill:rgb(0%,0%,0%);fill-opacity:1;" d="M 3 1 C 1.890625 1 1 1.890625 1 3 L 1 13 C 1 14.109375 1.890625 15 3 15 L 13 15 C 14.109375 15 15 14.109375 15 13 L 15 3 C 15 1.890625 14.109375 1 13 1 Z M 4 4 L 6 4 L 6 9 L 4 9 Z M 10 4 L 12 4 L 12 9 L 10 9 Z M 8 11 C 10 11 10 13 10 13 L 6 13 C 6 13 6 11 8 11 Z M 8 11 "/>
</g>
</svg>
