<?xml version="1.0" encoding="UTF-8"?>
<svg xmlns="http://www.w3.org/2000/svg" xmlns:xlink="http://www.w3.org/1999/xlink" width="16" height="16" viewBox="0 0 16 16" version="1.1">
<g id="surface1">
<path style=" stroke:none;fill-rule:nonzero;fill:rgb(0%,0%,0%);fill-opacity:1;" d="M 11.917969 1 C 11.90625 1 11.890625 1.003906 11.878906 1.007812 C 11.78125 1.015625 11.695312 1.0625 11.625 1.128906 L 9.875 2.878906 C 9.875 2.882812 9.875 2.882812 9.871094 2.886719 L 2.046875 10.714844 C 2.03125 10.726562 2.019531 10.734375 2.007812 10.75 C 1.992188 10.761719 1.984375 10.773438 1.972656 10.789062 C 1.96875 10.789062 1.96875 10.792969 1.96875 10.792969 L 1.132812 11.625 C 1.050781 11.710938 1.007812 11.820312 1.007812 11.9375 L 1.007812 14.558594 C 1.003906 14.796875 1.195312 14.996094 1.4375 15 L 4.066406 15 C 4.183594 15 4.296875 14.953125 4.375 14.867188 L 14.867188 4.367188 C 15.039062 4.199219 15.039062 3.925781 14.867188 3.757812 L 12.246094 1.128906 C 12.160156 1.042969 12.039062 0.996094 11.917969 1 Z M 10.1875 3.804688 L 12.195312 5.8125 L 4.9375 13.070312 L 2.9375 11.058594 Z M 2.3125 11.679688 L 4.320312 13.683594 L 3.882812 14.121094 L 1.875 14.121094 L 1.875 12.117188 Z M 2.3125 11.679688 "/>
<path style=" stroke:none;fill-rule:nonzero;fill:rgb(0%,0%,0%);fill-opacity:1;" d="M 1.378906 13.25 C 1.285156 13.265625 1.199219 13.308594 1.132812 13.375 C 0.96875 13.546875 0.96875 13.820312 1.132812 13.992188 L 2.007812 14.867188 C 2.085938 14.953125 2.199219 15 2.316406 15 C 2.429688 15 2.542969 14.953125 2.625 14.867188 C 2.710938 14.789062 2.753906 14.675781 2.753906 14.558594 C 2.753906 14.445312 2.710938 14.332031 2.625 14.25 L 1.75 13.375 C 1.652344 13.28125 1.515625 13.230469 1.378906 13.25 Z M 1.378906 13.25 "/>
</g>
</svg>
