<?xml version="1.0" encoding="UTF-8"?>
<svg xmlns="http://www.w3.org/2000/svg" xmlns:xlink="http://www.w3.org/1999/xlink" width="16" height="16" viewBox="0 0 16 16" version="1.1">
<g id="surface1">
<path style=" stroke:none;fill-rule:nonzero;fill:rgb(0%,0%,0%);fill-opacity:1;" d="M 12 1.332031 C 12.367188 1.332031 12.667969 1.632812 12.667969 2 L 12.667969 7.6875 C 11.492188 6.632812 9.808594 6.371094 8.367188 7.015625 C 6.925781 7.660156 6 9.089844 6 10.667969 C 6 12.824219 7.839844 14.667969 10 14.667969 L 4 14.667969 C 3.632812 14.667969 3.332031 14.367188 3.332031 14 L 3.332031 2 C 3.332031 1.632812 3.632812 1.332031 4 1.332031 Z M 10 8 C 10.957031 8 11.839844 8.511719 12.316406 9.34375 C 12.789062 10.175781 12.785156 11.195312 12.296875 12.019531 L 13.769531 13.496094 L 12.828125 14.4375 L 11.355469 12.964844 C 10.386719 13.535156 9.164062 13.4375 8.300781 12.71875 C 7.433594 12.003906 7.113281 10.820312 7.492188 9.761719 C 7.875 8.707031 8.875 8 10 8 Z M 10 9.332031 C 9.261719 9.332031 8.667969 9.929688 8.667969 10.667969 C 8.667969 11.402344 9.261719 12 10 12 C 10.738281 12 11.332031 11.402344 11.332031 10.667969 C 11.332031 9.929688 10.738281 9.332031 10 9.332031 Z M 10 9.332031 "/>
</g>
</svg>
