<?xml version="1.0" encoding="UTF-8"?>
<svg xmlns="http://www.w3.org/2000/svg" xmlns:xlink="http://www.w3.org/1999/xlink" width="16" height="16" viewBox="0 0 16 16" version="1.1">
<g id="surface1">
<path style=" stroke:none;fill-rule:evenodd;fill:rgb(0%,0%,0%);fill-opacity:1;" d="M 1 1 C 0.445312 1 0 1.445312 0 2 L 0 13 C 0 13.554688 0.445312 14 1 14 L 2 14 L 2 4 C 2 3.445312 2.445312 3 3 3 L 6 3 C 6.554688 3 7 3.445312 7 4 L 7 14 L 15 14 C 15.554688 14 16 13.554688 16 13 L 16 2 C 16 1.445312 15.554688 1 15 1 Z M 9 3 L 14 3 L 14 6 L 9 6 Z M 4 4 C 3.445312 4 3 4.445312 3 5 L 3 14 C 3 14.554688 3.445312 15 4 15 L 5 15 C 5.554688 15 6 14.554688 6 14 L 6 5 C 6 4.445312 5.554688 4 5 4 Z M 9 7 L 10 7 L 10 8 L 9 8 Z M 11 7 L 12 7 L 12 8 L 11 8 Z M 13 7 L 14 7 L 14 8 L 13 8 Z M 9 9 L 10 9 L 10 10 L 9 10 Z M 11 9 L 12 9 L 12 10 L 11 10 Z M 13 9 L 14 9 L 14 10 L 13 10 Z M 9 11 L 10 11 L 10 12 L 9 12 Z M 11 11 L 12 11 L 12 12 L 11 12 Z M 13 11 L 14 11 L 14 12 L 13 12 Z M 13 11 "/>
</g>
</svg>
