<?xml version="1.0" encoding="UTF-8"?>
<svg xmlns="http://www.w3.org/2000/svg" xmlns:xlink="http://www.w3.org/1999/xlink" width="16" height="16" viewBox="0 0 16 16" version="1.1">
<g id="surface1">
<path style=" stroke:none;fill-rule:nonzero;fill:rgb(0%,0%,0%);fill-opacity:1;" d="M 8 14.667969 C 4.316406 14.667969 1.332031 11.683594 1.332031 8 C 1.332031 5.015625 3.296875 2.488281 6 1.636719 L 6 3.054688 C 3.636719 4.015625 2.28125 6.511719 2.769531 9.015625 C 3.257812 11.519531 5.449219 13.328125 8 13.332031 C 10.171875 13.332031 12.128906 12.015625 12.945312 10 L 14.363281 10 C 13.511719 12.703125 10.984375 14.667969 8 14.667969 Z M 14.632812 8.667969 L 7.332031 8.667969 L 7.332031 1.367188 C 7.550781 1.34375 7.773438 1.332031 8 1.332031 C 11.683594 1.332031 14.667969 4.316406 14.667969 8 C 14.667969 8.226562 14.65625 8.449219 14.632812 8.667969 Z M 8.667969 2.707031 L 8.667969 7.332031 L 13.292969 7.332031 C 12.988281 4.917969 11.082031 3.011719 8.667969 2.707031 Z M 8.667969 2.707031 "/>
</g>
</svg>
