<?xml version="1.0" encoding="UTF-8"?>
<svg xmlns="http://www.w3.org/2000/svg" xmlns:xlink="http://www.w3.org/1999/xlink" width="16" height="16" viewBox="0 0 16 16" version="1.1">
<g id="surface1">
<path style=" stroke:none;fill-rule:nonzero;fill:rgb(0%,0%,0%);fill-opacity:1;" d="M 14.667969 9 L 14.667969 14 C 14.667969 14.367188 14.367188 14.667969 14 14.667969 L 13.332031 14.667969 C 12.964844 14.667969 12.667969 14.367188 12.667969 14 L 12.667969 13.332031 L 3.332031 13.332031 L 3.332031 14 C 3.332031 14.367188 3.035156 14.667969 2.667969 14.667969 L 2 14.667969 C 1.632812 14.667969 1.332031 14.367188 1.332031 14 L 1.332031 9 L 0.503906 8.792969 C 0.207031 8.71875 0 8.453125 0 8.148438 L 0 7.667969 C 0 7.484375 0.148438 7.332031 0.332031 7.332031 L 1.621094 7.332031 L 2.988281 4.140625 C 3.195312 3.652344 3.679688 3.332031 4.210938 3.332031 L 5.332031 3.332031 L 5.332031 2 L 7.332031 2 L 7.332031 3.332031 L 8.667969 3.332031 L 8.667969 2 L 10.667969 2 L 10.667969 3.332031 L 11.789062 3.332031 C 12.320312 3.332031 12.800781 3.652344 13.011719 4.140625 L 14.378906 7.332031 L 15.667969 7.332031 C 15.851562 7.332031 16 7.484375 16 7.667969 L 16 8.148438 C 16 8.453125 15.792969 8.71875 15.496094 8.792969 Z M 2.667969 10 L 2.667969 11.332031 C 2.667969 11.703125 2.964844 12 3.332031 12 L 5.496094 12 C 5.613281 12 5.722656 11.9375 5.78125 11.835938 C 5.84375 11.738281 5.84375 11.613281 5.789062 11.507812 C 5.253906 10.503906 4.210938 10 2.667969 10 Z M 13.332031 10 C 11.789062 10 10.746094 10.503906 10.210938 11.507812 C 10.152344 11.613281 10.15625 11.738281 10.21875 11.839844 C 10.277344 11.9375 10.386719 12 10.503906 12 L 12.667969 12 C 13.035156 12 13.332031 11.703125 13.332031 11.332031 Z M 4 4.667969 L 3.03125 7.085938 C 2.949219 7.292969 2.976562 7.523438 3.101562 7.707031 C 3.222656 7.890625 3.429688 8 3.652344 8 L 12.347656 8 C 12.570312 8 12.777344 7.890625 12.898438 7.707031 C 13.023438 7.523438 13.050781 7.292969 12.96875 7.085938 L 12 4.667969 Z M 4 4.667969 "/>
</g>
</svg>
