<?xml version="1.0" encoding="UTF-8"?>
<svg xmlns="http://www.w3.org/2000/svg" xmlns:xlink="http://www.w3.org/1999/xlink" width="16" height="16" viewBox="0 0 16 16" version="1.1">
<g id="surface1">
<path style=" stroke:none;fill-rule:nonzero;fill:rgb(0%,0%,0%);fill-opacity:1;" d="M 2 2 L 14 2 C 14.367188 2 14.667969 2.296875 14.667969 2.667969 L 14.667969 13.332031 C 14.667969 13.703125 14.367188 14 14 14 L 2 14 C 1.632812 14 1.332031 13.703125 1.332031 13.332031 L 1.332031 2.667969 C 1.332031 2.296875 1.632812 2 2 2 Z M 7.417969 8 L 2.667969 8 L 2.667969 12.667969 L 13.332031 12.667969 L 13.332031 8 L 12.582031 8 C 12.277344 9.175781 11.214844 10 10 10 C 8.785156 10 7.722656 9.175781 7.417969 8 Z M 7.417969 6.667969 C 7.722656 5.488281 8.785156 4.667969 10 4.667969 C 11.214844 4.667969 12.277344 5.488281 12.582031 6.667969 L 13.332031 6.667969 L 13.332031 3.332031 L 2.667969 3.332031 L 2.667969 6.667969 Z M 10 8.667969 C 10.738281 8.667969 11.332031 8.070312 11.332031 7.332031 C 11.332031 6.597656 10.738281 6 10 6 C 9.261719 6 8.667969 6.597656 8.667969 7.332031 C 8.667969 8.070312 9.261719 8.667969 10 8.667969 Z M 4 10 L 5.332031 10 L 5.332031 11.332031 L 4 11.332031 Z M 4 10 "/>
</g>
</svg>
