<?xml version="1.0" encoding="UTF-8"?>
<svg xmlns="http://www.w3.org/2000/svg" xmlns:xlink="http://www.w3.org/1999/xlink" width="16" height="16" viewBox="0 0 16 16" version="1.1">
<g id="surface1">
<path style=" stroke:none;fill-rule:nonzero;fill:rgb(0%,0%,0%);fill-opacity:1;" d="M 7.332031 1.332031 C 10.046875 1.332031 12.285156 3.355469 12.621094 5.976562 L 14.121094 8.335938 C 14.222656 8.492188 14.203125 8.722656 13.972656 8.820312 L 12.667969 9.378906 L 12.667969 11.332031 C 12.667969 12.070312 12.070312 12.667969 11.332031 12.667969 L 10 12.667969 L 10 14.667969 L 4 14.667969 L 4 12.203125 C 4 11.417969 3.710938 10.671875 3.171875 10 C 2.4375 9.085938 2 7.929688 2 6.667969 C 2 3.722656 4.386719 1.332031 7.332031 1.332031 Z M 7.332031 4.667969 C 6.964844 4.667969 6.667969 4.964844 6.667969 5.332031 L 6.667969 6 L 6 6 C 5.632812 6 5.332031 6.296875 5.332031 6.667969 C 5.332031 7.035156 5.632812 7.332031 6 7.332031 L 6.667969 7.332031 L 6.667969 8 C 6.667969 8.367188 6.964844 8.667969 7.332031 8.667969 C 7.703125 8.667969 8 8.367188 8 8 L 8 7.332031 L 8.667969 7.332031 C 9.035156 7.332031 9.332031 7.035156 9.332031 6.667969 C 9.332031 6.296875 9.035156 6 8.667969 6 L 8 6 L 8 5.332031 C 8 4.964844 7.703125 4.667969 7.332031 4.667969 Z M 7.332031 4.667969 "/>
</g>
</svg>
