<?xml version="1.0" encoding="UTF-8"?>
<svg xmlns="http://www.w3.org/2000/svg" xmlns:xlink="http://www.w3.org/1999/xlink" width="16" height="16" viewBox="0 0 16 16" version="1.1">
<g id="surface1">
<path style=" stroke:none;fill-rule:nonzero;fill:rgb(0%,0%,0%);fill-opacity:1;" d="M 13.273438 9.6875 C 13.136719 9.261719 12.988281 8.84375 12.824219 8.429688 L 12.21875 6.929688 C 12.21875 6.914062 12.226562 6.621094 12.226562 6.46875 C 12.226562 3.90625 11.003906 1.332031 8 1.332031 C 4.996094 1.332031 3.773438 3.90625 3.773438 6.464844 C 3.773438 6.621094 3.78125 6.914062 3.78125 6.929688 L 3.175781 8.429688 C 3.007812 8.855469 2.84375 9.304688 2.726562 9.6875 C 2.152344 11.511719 2.335938 12.265625 2.480469 12.28125 C 2.78125 12.320312 3.660156 10.910156 3.660156 10.910156 C 3.660156 11.726562 4.085938 12.789062 5.003906 13.558594 C 4.660156 13.664062 4.238281 13.824219 3.96875 14.023438 C 3.722656 14.203125 3.753906 14.382812 3.796875 14.457031 C 3.992188 14.777344 7.101562 14.660156 8 14.5625 C 8.898438 14.660156 12.011719 14.777344 12.203125 14.457031 C 12.246094 14.382812 12.277344 14.203125 12.035156 14.023438 C 11.761719 13.824219 11.339844 13.664062 10.996094 13.558594 C 11.914062 12.789062 12.339844 11.726562 12.339844 10.910156 C 12.339844 10.910156 13.21875 12.320312 13.519531 12.28125 C 13.664062 12.265625 13.847656 11.511719 13.273438 9.6875 "/>
</g>
</svg>
