<?xml version="1.0" encoding="UTF-8"?>
<svg xmlns="http://www.w3.org/2000/svg" xmlns:xlink="http://www.w3.org/1999/xlink" width="16" height="16" viewBox="0 0 16 16" version="1.1">
<g id="surface1">
<path style=" stroke:none;fill-rule:nonzero;fill:rgb(0%,0%,0%);fill-opacity:1;" d="M 12.855469 0.210938 L 14.859375 0.210938 C 15.488281 0.210938 15.996094 0.726562 15.996094 1.359375 L 15.996094 3.375 C 15.996094 4.007812 15.488281 4.523438 14.859375 4.523438 L 12.855469 4.523438 C 12.222656 4.523438 11.714844 4.007812 11.714844 3.375 L 11.714844 1.359375 C 11.714844 0.726562 12.222656 0.210938 12.855469 0.210938 Z M 12.855469 0.210938 "/>
<path style=" stroke:none;fill-rule:nonzero;fill:rgb(0%,0%,0%);fill-opacity:1;" d="M 1.140625 0.0351562 L 3.144531 0.0351562 C 3.773438 0.0351562 4.28125 0.546875 4.28125 1.183594 L 4.28125 3.195312 C 4.28125 3.832031 3.773438 4.34375 3.144531 4.34375 L 1.140625 4.34375 C 0.511719 4.34375 0.00390625 3.832031 0.00390625 3.195312 L 0.00390625 1.183594 C 0.00390625 0.546875 0.511719 0.0351562 1.140625 0.0351562 Z M 1.140625 0.0351562 "/>
<path style=" stroke:none;fill-rule:nonzero;fill:rgb(0%,0%,0%);fill-opacity:1;" d="M 1.140625 11.6875 L 3.144531 11.6875 C 3.773438 11.6875 4.28125 12.199219 4.28125 12.835938 L 4.28125 14.851562 C 4.28125 15.484375 3.773438 15.996094 3.144531 15.996094 L 1.140625 15.996094 C 0.511719 15.996094 0.00390625 15.484375 0.00390625 14.851562 L 0.00390625 12.835938 C 0.00390625 12.199219 0.511719 11.6875 1.140625 11.6875 Z M 1.140625 11.6875 "/>
<path style=" stroke:none;fill-rule:nonzero;fill:rgb(0%,0%,0%);fill-opacity:1;" d="M 9.488281 0.09375 C 9.078125 0.09375 8.75 0.425781 8.75 0.835938 L 8.75 6.703125 C 8.75 7.117188 9.078125 7.449219 9.488281 7.449219 L 11.011719 7.449219 C 11.210938 7.453125 11.398438 7.375 11.539062 7.234375 C 11.679688 7.09375 11.757812 6.902344 11.757812 6.703125 C 11.757812 6.507812 11.679688 6.3125 11.539062 6.171875 C 11.398438 6.035156 11.210938 5.957031 11.011719 5.960938 L 10.226562 5.960938 L 10.226562 0.835938 C 10.226562 0.425781 9.898438 0.09375 9.488281 0.09375 Z M 9.488281 0.09375 "/>
<path style=" stroke:none;fill-rule:nonzero;fill:rgb(0%,0%,0%);fill-opacity:1;" d="M 12.273438 8.742188 C 12.078125 8.742188 11.882812 8.820312 11.742188 8.960938 C 11.601562 9.101562 11.523438 9.289062 11.523438 9.492188 L 11.523438 12.390625 C 11.523438 12.59375 11.601562 12.78125 11.742188 12.921875 C 11.882812 13.0625 12.078125 13.140625 12.273438 13.140625 C 12.679688 13.140625 13.015625 12.804688 13.015625 12.390625 L 13.015625 10.234375 L 15.25 10.234375 C 15.449219 10.234375 15.640625 10.15625 15.78125 10.019531 C 15.921875 9.878906 16 9.6875 16 9.492188 C 16 9.289062 15.921875 9.101562 15.78125 8.960938 C 15.640625 8.820312 15.449219 8.742188 15.25 8.742188 Z M 12.273438 8.742188 "/>
<path style=" stroke:none;fill-rule:nonzero;fill:rgb(0%,0%,0%);fill-opacity:1;" d="M 0.742188 5.882812 C 0.332031 5.882812 0 6.21875 0 6.625 C 0 7.039062 0.332031 7.375 0.742188 7.375 L 3.859375 7.375 C 4.269531 7.375 4.601562 7.039062 4.601562 6.625 C 4.601562 6.21875 4.269531 5.882812 3.859375 5.882812 Z M 0.742188 5.882812 "/>
<path style=" stroke:none;fill-rule:nonzero;fill:rgb(0%,0%,0%);fill-opacity:1;" d="M 6.636719 2.875 C 6.226562 2.875 5.898438 3.210938 5.898438 3.625 L 5.898438 7.382812 C 5.898438 7.792969 6.226562 8.125 6.636719 8.125 C 7.046875 8.125 7.375 7.792969 7.375 7.382812 L 7.375 3.625 C 7.375 3.210938 7.046875 2.875 6.636719 2.875 Z M 6.636719 2.875 "/>
<path style=" stroke:none;fill-rule:nonzero;fill:rgb(0%,0%,0%);fill-opacity:1;" d="M 6.671875 12.234375 C 6.261719 12.234375 5.929688 12.566406 5.929688 12.976562 L 5.929688 15.246094 C 5.929688 15.445312 6.007812 15.636719 6.144531 15.78125 C 6.28125 15.921875 6.472656 16 6.671875 16 C 6.867188 16 7.058594 15.921875 7.195312 15.78125 C 7.335938 15.636719 7.414062 15.445312 7.410156 15.246094 L 7.410156 12.976562 C 7.410156 12.566406 7.078125 12.234375 6.671875 12.234375 Z M 6.671875 12.234375 "/>
<path style=" stroke:none;fill-rule:nonzero;fill:rgb(0%,0%,0%);fill-opacity:1;" d="M 13.761719 5.875 L 13.800781 5.875 C 14.199219 5.875 14.523438 6.195312 14.523438 6.601562 L 14.523438 6.640625 C 14.523438 7.039062 14.199219 7.363281 13.800781 7.363281 L 13.761719 7.363281 C 13.359375 7.363281 13.039062 7.039062 13.039062 6.640625 L 13.039062 6.601562 C 13.039062 6.195312 13.359375 5.875 13.761719 5.875 Z M 13.761719 5.875 "/>
<path style=" stroke:none;fill-rule:nonzero;fill:rgb(0%,0%,0%);fill-opacity:1;" d="M 15.234375 11.585938 L 15.273438 11.585938 C 15.671875 11.585938 15.996094 11.90625 15.996094 12.3125 L 15.996094 12.351562 C 15.996094 12.75 15.671875 13.074219 15.273438 13.074219 L 15.234375 13.074219 C 14.835938 13.074219 14.515625 12.75 14.515625 12.351562 L 14.515625 12.3125 C 14.515625 11.90625 14.835938 11.585938 15.234375 11.585938 Z M 15.234375 11.585938 "/>
<path style=" stroke:none;fill-rule:nonzero;fill:rgb(0%,0%,0%);fill-opacity:1;" d="M 9.5 13.71875 L 9.539062 13.71875 C 9.941406 13.71875 10.261719 14.039062 10.261719 14.445312 L 10.261719 14.480469 C 10.261719 14.882812 9.941406 15.207031 9.539062 15.207031 L 9.5 15.207031 C 9.101562 15.207031 8.78125 14.882812 8.78125 14.480469 L 8.78125 14.445312 C 8.78125 14.039062 9.101562 13.71875 9.5 13.71875 Z M 9.5 13.71875 "/>
<path style=" stroke:none;fill-rule:nonzero;fill:rgb(0%,0%,0%);fill-opacity:1;" d="M 8.023438 10.867188 L 8.0625 10.867188 C 8.460938 10.867188 8.785156 11.191406 8.785156 11.59375 L 8.785156 11.632812 C 8.785156 12.03125 8.460938 12.359375 8.0625 12.359375 L 8.023438 12.359375 C 7.625 12.359375 7.304688 12.03125 7.304688 11.632812 L 7.304688 11.59375 C 7.304688 11.191406 7.625 10.867188 8.023438 10.867188 Z M 8.023438 10.867188 "/>
<path style=" stroke:none;fill-rule:nonzero;fill:rgb(0%,0%,0%);fill-opacity:1;" d="M 6.601562 9.398438 L 6.640625 9.398438 C 7.039062 9.398438 7.359375 9.71875 7.359375 10.125 L 7.359375 10.164062 C 7.359375 10.5625 7.039062 10.890625 6.640625 10.890625 L 6.601562 10.890625 C 6.199219 10.890625 5.878906 10.5625 5.878906 10.164062 L 5.878906 10.125 C 5.878906 9.71875 6.199219 9.398438 6.601562 9.398438 Z M 6.601562 9.398438 "/>
<path style=" stroke:none;fill-rule:nonzero;fill:rgb(0%,0%,0%);fill-opacity:1;" d="M 7.988281 7.964844 L 8.027344 7.964844 C 8.429688 7.964844 8.75 8.289062 8.75 8.6875 L 8.75 8.726562 C 8.75 9.132812 8.429688 9.453125 8.027344 9.453125 L 7.988281 9.453125 C 7.589844 9.453125 7.265625 9.132812 7.265625 8.726562 L 7.265625 8.6875 C 7.265625 8.289062 7.589844 7.964844 7.988281 7.964844 Z M 7.988281 7.964844 "/>
<path style=" stroke:none;fill-rule:nonzero;fill:rgb(0%,0%,0%);fill-opacity:1;" d="M 9.5 9.433594 L 9.539062 9.433594 C 9.941406 9.433594 10.261719 9.757812 10.261719 10.160156 L 10.261719 10.195312 C 10.261719 10.601562 9.941406 10.921875 9.539062 10.921875 L 9.5 10.921875 C 9.101562 10.921875 8.78125 10.601562 8.78125 10.195312 L 8.78125 10.160156 C 8.78125 9.757812 9.101562 9.433594 9.5 9.433594 Z M 9.5 9.433594 "/>
<path style=" stroke:none;fill-rule:nonzero;fill:rgb(0%,0%,0%);fill-opacity:1;" d="M 3.78125 8.695312 L 3.820312 8.695312 C 4.21875 8.695312 4.539062 9.015625 4.539062 9.417969 L 4.539062 9.457031 C 4.539062 9.859375 4.21875 10.183594 3.820312 10.183594 L 3.78125 10.183594 C 3.382812 10.183594 3.0625 9.859375 3.0625 9.457031 L 3.0625 9.417969 C 3.0625 9.015625 3.382812 8.695312 3.78125 8.695312 Z M 3.78125 8.695312 "/>
<path style=" stroke:none;fill-rule:nonzero;fill:rgb(0%,0%,0%);fill-opacity:1;" d="M 0.726562 8.71875 L 0.761719 8.71875 C 1.164062 8.71875 1.484375 9.039062 1.484375 9.445312 L 1.484375 9.484375 C 1.484375 9.882812 1.164062 10.210938 0.761719 10.210938 L 0.726562 10.210938 C 0.324219 10.210938 0.00390625 9.882812 0.00390625 9.484375 L 0.00390625 9.445312 C 0.00390625 9.039062 0.324219 8.71875 0.726562 8.71875 Z M 0.726562 8.71875 "/>
<path style=" stroke:none;fill-rule:nonzero;fill:rgb(0%,0%,0%);fill-opacity:1;" d="M 8.058594 1.570312 L 8.671875 1.570312 C 9.070312 1.570312 9.390625 1.890625 9.390625 2.292969 L 9.390625 2.339844 C 9.390625 2.742188 9.070312 3.0625 8.671875 3.0625 L 8.058594 3.0625 C 7.660156 3.0625 7.339844 2.742188 7.339844 2.339844 L 7.339844 2.292969 C 7.339844 1.890625 7.660156 1.570312 8.058594 1.570312 Z M 8.058594 1.570312 "/>
<path style=" stroke:none;fill-rule:nonzero;fill:rgb(0%,0%,0%);fill-opacity:1;" d="M 6.578125 0 L 6.617188 0 C 7.015625 0 7.335938 0.324219 7.335938 0.726562 L 7.335938 0.765625 C 7.335938 1.164062 7.015625 1.492188 6.617188 1.492188 L 6.578125 1.492188 C 6.175781 1.492188 5.855469 1.164062 5.855469 0.765625 L 5.855469 0.726562 C 5.855469 0.324219 6.175781 0 6.578125 0 Z M 6.578125 0 "/>
<path style=" stroke:none;fill-rule:nonzero;fill:rgb(0%,0%,0%);fill-opacity:1;" d="M 12.265625 14.5 C 11.855469 14.5 11.523438 14.835938 11.523438 15.246094 C 11.523438 15.445312 11.601562 15.636719 11.738281 15.78125 C 11.875 15.921875 12.066406 16 12.265625 16 L 15.25 16 C 15.453125 16 15.640625 15.921875 15.78125 15.78125 C 15.921875 15.640625 16 15.445312 16 15.246094 C 16 15.046875 15.921875 14.859375 15.78125 14.71875 C 15.640625 14.578125 15.449219 14.5 15.25 14.5 Z M 12.265625 14.5 "/>
</g>
</svg>
