<?xml version="1.0" encoding="UTF-8"?>
<svg xmlns="http://www.w3.org/2000/svg" xmlns:xlink="http://www.w3.org/1999/xlink" width="16" height="16" viewBox="0 0 16 16" version="1.1">
<g id="surface1">
<path style=" stroke:none;fill-rule:nonzero;fill:rgb(0%,0%,0%);fill-opacity:1;" d="M 10 2 L 14 2 L 14 5.332031 L 12.667969 5.332031 L 12.667969 3.332031 L 10 3.332031 Z M 6 2 L 6 3.332031 L 3.332031 3.332031 L 3.332031 5.332031 L 2 5.332031 L 2 2 Z M 10 14 L 10 12.667969 L 12.667969 12.667969 L 12.667969 10.667969 L 14 10.667969 L 14 14 Z M 6 14 L 2 14 L 2 10.667969 L 3.332031 10.667969 L 3.332031 12.667969 L 6 12.667969 Z M 2 7.332031 L 14 7.332031 L 14 8.667969 L 2 8.667969 Z M 2 7.332031 "/>
</g>
</svg>
