<?xml version="1.0" encoding="UTF-8"?>
<svg xmlns="http://www.w3.org/2000/svg" xmlns:xlink="http://www.w3.org/1999/xlink" width="16" height="16" viewBox="0 0 16 16" version="1.1">
<g id="surface1">
<path style=" stroke:none;fill-rule:nonzero;fill:rgb(0%,0%,0%);fill-opacity:1;" d="M 13.042969 8.066406 L 14.0625 9.832031 C 14.707031 10.949219 14.324219 12.375 13.207031 13.019531 C 12.851562 13.226562 12.453125 13.332031 12.042969 13.332031 L 10.667969 13.332031 L 10.667969 15 L 7.332031 12.667969 L 10.667969 10.332031 L 10.667969 12 L 12.042969 12 C 12.214844 12 12.390625 11.953125 12.542969 11.867188 C 13.019531 11.589844 13.183594 10.976562 12.90625 10.5 L 11.886719 8.730469 Z M 4.871094 6.089844 L 5.222656 10.144531 L 3.78125 9.308594 L 3.09375 10.5 C 3.003906 10.652344 2.957031 10.824219 2.957031 11 C 2.957031 11.550781 3.40625 12 3.957031 12 L 6 12 L 6 13.332031 L 3.957031 13.332031 C 2.671875 13.332031 1.625 12.289062 1.625 11 C 1.625 10.589844 1.734375 10.1875 1.9375 9.832031 L 2.625 8.640625 L 1.183594 7.808594 L 4.867188 6.089844 Z M 9.167969 1.980469 C 9.519531 2.183594 9.816406 2.480469 10.019531 2.832031 L 10.707031 4.023438 L 12.152344 3.191406 L 11.796875 7.242188 L 8.109375 5.523438 L 9.554688 4.691406 L 8.867188 3.5 C 8.777344 3.347656 8.652344 3.222656 8.5 3.132812 C 8.023438 2.859375 7.410156 3.023438 7.132812 3.5 L 6.113281 5.269531 L 4.957031 4.601562 L 5.980469 2.832031 C 6.625 1.71875 8.050781 1.335938 9.167969 1.980469 Z M 9.167969 1.980469 "/>
</g>
</svg>
