<?xml version="1.0" encoding="UTF-8"?>
<svg xmlns="http://www.w3.org/2000/svg" xmlns:xlink="http://www.w3.org/1999/xlink" width="16" height="16" viewBox="0 0 16 16" version="1.1">
<g id="surface1">
<path style=" stroke:none;fill-rule:nonzero;fill:rgb(0%,0%,0%);fill-opacity:1;" d="M 9.449219 6.507812 C 10.664062 6.238281 11.777344 5.632812 12.667969 4.761719 L 12.667969 2.667969 L 3.332031 2.667969 L 3.332031 4.761719 C 4.222656 5.632812 5.335938 6.238281 6.550781 6.507812 C 6.847656 5.988281 7.402344 5.667969 8 5.667969 C 8.597656 5.667969 9.152344 5.988281 9.449219 6.507812 Z M 9.585938 7.84375 C 9.367188 8.53125 8.722656 9 8 9 C 7.277344 9 6.632812 8.53125 6.414062 7.84375 C 5.300781 7.617188 4.253906 7.160156 3.332031 6.5 L 3.332031 13.332031 L 12.667969 13.332031 L 12.667969 6.5 C 11.746094 7.160156 10.699219 7.617188 9.585938 7.84375 Z M 2.667969 1.332031 L 13.332031 1.332031 C 13.703125 1.332031 14 1.632812 14 2 L 14 14 C 14 14.367188 13.703125 14.667969 13.332031 14.667969 L 2.667969 14.667969 C 2.296875 14.667969 2 14.367188 2 14 L 2 2 C 2 1.632812 2.296875 1.332031 2.667969 1.332031 Z M 2.667969 1.332031 "/>
</g>
</svg>
