<?xml version="1.0" encoding="UTF-8"?>
<svg xmlns="http://www.w3.org/2000/svg" xmlns:xlink="http://www.w3.org/1999/xlink" width="16" height="16" viewBox="0 0 16 16" version="1.1">
<g id="surface1">
<path style=" stroke:none;fill-rule:nonzero;fill:rgb(0%,0%,0%);fill-opacity:1;" d="M 8.046875 0.390625 C 7.648438 0.398438 7.242188 0.4375 6.84375 0.515625 C 6.292969 0.617188 5.929688 1.140625 6.03125 1.6875 C 6.132812 2.234375 6.660156 2.59375 7.207031 2.492188 C 9.5625 2.054688 11.914062 3.207031 13.023438 5.332031 C 13.875 6.96875 13.820312 8.871094 12.972656 10.429688 L 11.867188 9.75 C 11.476562 9.507812 10.96875 9.765625 10.933594 10.226562 L 10.5625 14.53125 C 10.53125 14.878906 10.800781 15.179688 11.148438 15.195312 C 11.25 15.203125 11.351562 15.179688 11.441406 15.136719 L 15.5625 13.125 C 15.992188 12.90625 16.015625 12.304688 15.609375 12.046875 L 14.679688 11.476562 C 15.882812 9.328125 15.984375 6.671875 14.804688 4.40625 C 13.484375 1.863281 10.84375 0.335938 8.046875 0.390625 Z M 4.851562 1.277344 C 4.75 1.273438 4.648438 1.292969 4.558594 1.335938 L 0.4375 3.34375 C 0.0117188 3.5625 -0.015625 4.164062 0.390625 4.417969 L 1.398438 5.039062 C 0.492188 7.007812 0.453125 9.320312 1.421875 11.355469 C 2.777344 14.203125 5.78125 15.894531 8.914062 15.570312 C 9.46875 15.511719 9.867188 15.015625 9.8125 14.460938 C 9.753906 13.914062 9.257812 13.507812 8.710938 13.5625 C 6.414062 13.800781 4.226562 12.578125 3.234375 10.492188 C 2.5625 9.078125 2.558594 7.492188 3.125 6.101562 L 4.125 6.726562 C 4.515625 6.964844 5.023438 6.703125 5.0625 6.25 L 5.4375 1.945312 C 5.46875 1.59375 5.203125 1.292969 4.851562 1.277344 Z M 4.851562 1.277344 "/>
</g>
</svg>
