<?xml version="1.0" encoding="UTF-8"?>
<svg xmlns="http://www.w3.org/2000/svg" xmlns:xlink="http://www.w3.org/1999/xlink" width="16" height="16" viewBox="0 0 16 16" version="1.1">
<g id="surface1">
<path style=" stroke:none;fill-rule:nonzero;fill:rgb(0%,0%,0%);fill-opacity:1;" d="M 4.242188 4 L 10.097656 10.441406 L 10.578125 10.253906 C 11.703125 9.8125 12.488281 8.816406 12.640625 7.65625 C 10.394531 7.816406 8.398438 6.226562 8.050781 4 Z M 9.332031 3.332031 C 9.332031 4.398438 9.898438 5.386719 10.820312 5.925781 C 11.742188 6.460938 12.878906 6.46875 13.808594 5.945312 C 13.933594 6.355469 14 6.792969 14 7.242188 C 14 9.171875 12.785156 10.820312 11.066406 11.496094 L 13.332031 14 L 2 14 L 2 2.667969 L 9.40625 2.667969 C 9.359375 2.886719 9.332031 3.109375 9.332031 3.332031 Z M 12.332031 5 C 11.414062 5 10.667969 4.253906 10.667969 3.332031 C 10.667969 2.414062 11.414062 1.667969 12.332031 1.667969 C 13.253906 1.667969 14 2.414062 14 3.332031 C 14 4.253906 13.253906 5 12.332031 5 Z M 3.332031 4.980469 L 3.332031 12.667969 L 10.320312 12.667969 Z M 3.332031 4.980469 "/>
</g>
</svg>
