<?xml version="1.0" encoding="UTF-8"?>
<svg xmlns="http://www.w3.org/2000/svg" xmlns:xlink="http://www.w3.org/1999/xlink" width="16" height="16" viewBox="0 0 16 16" version="1.1">
<g id="surface1">
<path style=" stroke:none;fill-rule:nonzero;fill:rgb(0%,0%,0%);fill-opacity:1;" d="M 11.332031 8 C 11.703125 8 12 8.296875 12 8.667969 L 12 14.667969 L 4 14.667969 L 4 8.667969 C 4 8.296875 4.296875 8 4.667969 8 Z M 6.667969 9.332031 L 5.332031 9.332031 L 5.332031 10.667969 L 6.667969 10.667969 Z M 8 4 C 9.515625 4 10.902344 4.855469 11.578125 6.210938 L 10.386719 6.808594 C 9.933594 5.902344 9.011719 5.332031 8 5.332031 C 6.988281 5.332031 6.066406 5.902344 5.613281 6.808594 L 4.421875 6.210938 C 5.097656 4.855469 6.484375 4 8 4 Z M 8 1.332031 C 10.527344 1.332031 12.835938 2.757812 13.964844 5.019531 L 12.769531 5.613281 C 11.867188 3.808594 10.019531 2.667969 8 2.667969 C 5.980469 2.667969 4.132812 3.808594 3.230469 5.613281 L 2.035156 5.019531 C 3.164062 2.757812 5.472656 1.332031 8 1.332031 Z M 8 1.332031 "/>
</g>
</svg>
