<?xml version="1.0" encoding="UTF-8"?>
<svg xmlns="http://www.w3.org/2000/svg" xmlns:xlink="http://www.w3.org/1999/xlink" width="16" height="16" viewBox="0 0 16 16" version="1.1">
<g id="surface1">
<path style=" stroke:none;fill-rule:evenodd;fill:rgb(0%,0%,0%);fill-opacity:1;" d="M 7.992188 0 C 7.71875 0.0078125 7.5 0.226562 7.5 0.5 C 7.5 0.53125 7.507812 0.5625 7.515625 0.597656 C 7.558594 0.832031 7.765625 1 8.003906 1 C 9.859375 1 11.640625 1.742188 12.953125 3.054688 C 14.265625 4.367188 15 6.148438 15 8.007812 C 15 8.28125 15.226562 8.507812 15.5 8.507812 C 15.777344 8.507812 16 8.28125 16 8.007812 C 16 5.882812 15.160156 3.84375 13.660156 2.34375 C 12.160156 0.84375 10.125 0 8 0 C 8 0 7.992188 0 7.992188 0 Z M 7.992188 2 C 7.71875 2.007812 7.503906 2.230469 7.503906 2.5 C 7.503906 2.53125 7.507812 2.5625 7.515625 2.59375 C 7.558594 2.828125 7.765625 3 8.007812 3 C 9.335938 3 10.601562 3.53125 11.539062 4.46875 C 12.476562 5.40625 13.007812 6.679688 13.007812 8.007812 C 13.007812 8.273438 13.226562 8.496094 13.5 8.5 C 13.773438 8.5 13.996094 8.28125 14 8.007812 C 14 6.414062 13.371094 4.886719 12.246094 3.761719 C 11.121094 2.636719 9.59375 2 8.007812 2 C 8 2 7.992188 2 7.992188 2 Z M 7.984375 4.007812 C 7.710938 4.015625 7.496094 4.234375 7.496094 4.507812 C 7.496094 4.535156 7.5 4.566406 7.507812 4.59375 C 7.550781 4.832031 7.757812 5.007812 8 5.007812 C 8.796875 5.007812 9.558594 5.320312 10.121094 5.882812 C 10.683594 6.445312 11 7.203125 11 8 C 11 8.132812 11.054688 8.257812 11.148438 8.351562 C 11.242188 8.445312 11.371094 8.5 11.503906 8.5 C 11.773438 8.496094 11.992188 8.273438 11.996094 8 C 11.996094 6.941406 11.578125 5.921875 10.828125 5.171875 C 10.078125 4.421875 9.058594 4.007812 8 4.007812 C 7.992188 4.007812 7.984375 4.007812 7.984375 4.007812 Z M 5.78125 6.414062 C 5.527344 6.414062 5.273438 6.511719 5.078125 6.707031 L 0.292969 11.492188 C -0.101562 11.882812 -0.101562 12.511719 0.292969 12.90625 L 3.09375 15.707031 C 3.484375 16.097656 4.117188 16.097656 4.507812 15.707031 L 9.292969 10.921875 C 9.683594 10.53125 9.683594 9.898438 9.292969 9.507812 L 6.492188 6.707031 C 6.296875 6.511719 6.039062 6.414062 5.78125 6.414062 Z M 6 8.5 C 6.828125 8.5 7.5 9.171875 7.5 10 C 7.5 10.828125 6.828125 11.5 6 11.5 C 5.171875 11.5 4.5 10.828125 4.5 10 C 4.5 9.171875 5.171875 8.5 6 8.5 Z M 6 8.5 "/>
</g>
</svg>
