<?xml version="1.0" encoding="UTF-8"?>
<svg xmlns="http://www.w3.org/2000/svg" xmlns:xlink="http://www.w3.org/1999/xlink" width="16" height="16" viewBox="0 0 16 16" version="1.1">
<g id="surface1">
<path style=" stroke:none;fill-rule:nonzero;fill:rgb(0%,0%,0%);fill-opacity:1;" d="M 9.332031 3 L 9.332031 6 C 13.015625 6 16 8.984375 16 12.667969 C 16 12.847656 15.992188 13.027344 15.980469 13.207031 C 15.003906 11.355469 13.09375 10.078125 10.875 10.003906 L 10.667969 10 L 9.332031 10 L 9.332031 13 L 4 8 Z M 5.332031 3 L 5.332031 4.824219 L 1.945312 8 L 5.332031 11.175781 L 5.332031 13 L 0 8 Z M 8 6.078125 L 5.949219 8 L 8 9.921875 L 8 8.667969 L 10.6875 8.667969 L 10.921875 8.671875 C 11.777344 8.699219 12.601562 8.878906 13.371094 9.183594 C 12.394531 8.050781 10.945312 7.332031 9.332031 7.332031 L 8 7.332031 Z M 8 6.078125 "/>
</g>
</svg>
