<?xml version="1.0" encoding="UTF-8"?>
<svg xmlns="http://www.w3.org/2000/svg" xmlns:xlink="http://www.w3.org/1999/xlink" width="16" height="16" viewBox="0 0 16 16" version="1.1">
<g id="surface1">
<path style=" stroke:none;fill-rule:nonzero;fill:rgb(0%,0%,0%);fill-opacity:1;" d="M 2.5 3 C 2.226562 3 2 3.226562 2 3.5 L 2 9.5 C 2 9.773438 2.226562 10 2.5 10 L 4 10 L 6 9 L 8.5 9 C 8.773438 9 9.203125 9.101562 9.445312 9.222656 L 10.554688 9.777344 C 10.796875 9.898438 11.226562 10 11.5 10 L 13.5 10 C 13.773438 10 14 9.773438 14 9.5 L 14 3.5 C 14 3.226562 13.773438 3 13.5 3 L 11.5 3 C 11.226562 3 10.796875 3.101562 10.554688 3.222656 L 9.445312 3.777344 C 9.203125 3.898438 8.773438 4 8.5 4 L 6 4 L 4 3 Z M 3 4 L 4 4 L 4 9 L 3 9 Z M 6 5 L 7 5 L 7 8 L 6 8 Z M 9 5 L 10 5 L 10 8 L 9 8 Z M 9 5 "/>
<path style=" stroke:none;fill-rule:nonzero;fill:rgb(0%,0%,0%);fill-opacity:1;" d="M 2 7 L 1 7 L 1 14 L 0 14 L 0 6 L 2 6 Z M 2 7 "/>
<path style=" stroke:none;fill-rule:nonzero;fill:rgb(0%,0%,0%);fill-opacity:1;" d="M 14 6 L 16 6 L 16 14 L 15 14 L 15 7 L 14 7 Z M 14 6 "/>
</g>
</svg>
