<?xml version="1.0" encoding="UTF-8"?>
<svg xmlns="http://www.w3.org/2000/svg" xmlns:xlink="http://www.w3.org/1999/xlink" width="16" height="16" viewBox="0 0 16 16" version="1.1">
<g id="surface1">
<path style=" stroke:none;fill-rule:nonzero;fill:rgb(0%,0%,0%);fill-opacity:1;" d="M 6 6.574219 L 3.980469 8 L 6 9.425781 Z M 7.273438 11.546875 C 7.164062 11.699219 6.957031 11.734375 6.808594 11.628906 L 2.050781 8.273438 C 1.964844 8.210938 1.910156 8.109375 1.910156 8 C 1.910156 7.890625 1.964844 7.789062 2.050781 7.726562 L 6.808594 4.371094 C 6.910156 4.300781 7.042969 4.289062 7.152344 4.347656 C 7.265625 4.40625 7.332031 4.519531 7.332031 4.644531 L 7.332031 11.355469 C 7.332031 11.425781 7.3125 11.492188 7.273438 11.546875 Z M 12 9.425781 L 12 6.574219 L 9.980469 8 Z M 8.050781 8.273438 C 7.964844 8.210938 7.910156 8.109375 7.910156 8 C 7.910156 7.890625 7.964844 7.789062 8.050781 7.726562 L 12.808594 4.371094 C 12.910156 4.300781 13.042969 4.289062 13.152344 4.347656 C 13.265625 4.40625 13.332031 4.519531 13.332031 4.644531 L 13.332031 11.355469 C 13.332031 11.480469 13.265625 11.59375 13.152344 11.652344 C 13.042969 11.710938 12.910156 11.699219 12.808594 11.628906 Z M 8.050781 8.273438 "/>
</g>
</svg>
