<?xml version="1.0" encoding="UTF-8"?>
<svg xmlns="http://www.w3.org/2000/svg" xmlns:xlink="http://www.w3.org/1999/xlink" width="16" height="16" viewBox="0 0 16 16" version="1.1">
<g id="surface1">
<path style=" stroke:none;fill-rule:nonzero;fill:rgb(0%,0%,0%);fill-opacity:1;" d="M 3.554688 10.621094 C 3.40625 9.980469 3.332031 9.324219 3.332031 8.667969 C 3.332031 5.273438 5.269531 2.375 8 1.210938 C 10.730469 2.375 12.667969 5.273438 12.667969 8.667969 C 12.667969 9.339844 12.589844 9.992188 12.445312 10.621094 L 13.792969 11.816406 C 13.914062 11.921875 13.941406 12.097656 13.859375 12.238281 L 12.21875 14.96875 C 12.167969 15.054688 12.074219 15.113281 11.972656 15.125 C 11.871094 15.140625 11.769531 15.105469 11.699219 15.03125 L 10.195312 13.527344 C 10.070312 13.402344 9.902344 13.332031 9.722656 13.332031 L 6.277344 13.332031 C 6.097656 13.332031 5.929688 13.402344 5.804688 13.527344 L 4.300781 15.03125 C 4.230469 15.105469 4.128906 15.140625 4.027344 15.125 C 3.925781 15.113281 3.832031 15.054688 3.78125 14.96875 L 2.140625 12.238281 C 2.058594 12.101562 2.085938 11.921875 2.207031 11.816406 Z M 8 8.667969 C 8.738281 8.667969 9.332031 8.070312 9.332031 7.332031 C 9.332031 6.597656 8.738281 6 8 6 C 7.261719 6 6.667969 6.597656 6.667969 7.332031 C 6.667969 8.070312 7.261719 8.667969 8 8.667969 Z M 8 8.667969 "/>
</g>
</svg>
