<?xml version="1.0" encoding="UTF-8"?>
<svg xmlns="http://www.w3.org/2000/svg" xmlns:xlink="http://www.w3.org/1999/xlink" width="16" height="16" viewBox="0 0 16 16" version="1.1">
<g id="surface1">
<path style=" stroke:none;fill-rule:nonzero;fill:rgb(0%,0%,0%);fill-opacity:1;" d="M 8 1.332031 C 11.683594 1.332031 14.667969 4.316406 14.667969 8 C 14.667969 9.425781 14.21875 10.742188 13.460938 11.828125 L 11.332031 8 L 13.332031 8 C 13.332031 5.464844 11.550781 3.28125 9.066406 2.773438 C 6.585938 2.269531 4.085938 3.578125 3.09375 5.910156 C 2.101562 8.242188 2.882812 10.949219 4.96875 12.390625 C 7.054688 13.828125 9.863281 13.601562 11.691406 11.847656 L 12.359375 13.042969 C 11.148438 14.09375 9.601562 14.667969 8 14.667969 C 4.316406 14.667969 1.332031 11.683594 1.332031 8 C 1.332031 4.316406 4.316406 1.332031 8 1.332031 Z M 8 4.667969 C 9.105469 4.667969 10 5.5625 10 6.667969 L 10 7.332031 L 10.667969 7.332031 L 10.667969 10.667969 L 5.332031 10.667969 L 5.332031 7.332031 L 6 7.332031 L 6 6.667969 C 6 5.5625 6.894531 4.667969 8 4.667969 Z M 8 6 C 7.660156 6 7.378906 6.253906 7.339844 6.589844 L 7.332031 6.667969 L 7.332031 7.332031 L 8.667969 7.332031 L 8.667969 6.667969 C 8.667969 6.328125 8.414062 6.042969 8.078125 6.003906 Z M 8 6 "/>
</g>
</svg>
