<?xml version="1.0" encoding="UTF-8"?>
<svg xmlns="http://www.w3.org/2000/svg" xmlns:xlink="http://www.w3.org/1999/xlink" width="16" height="16" viewBox="0 0 16 16" version="1.1">
<g id="surface1">
<path style=" stroke:none;fill-rule:nonzero;fill:rgb(0%,0%,0%);fill-opacity:1;" d="M 2.003906 1.003906 L 2.003906 7.996094 L 1.007812 7.996094 C 0.453125 7.996094 0.0078125 8.445312 0.0078125 9 L 0.0078125 13 L 1 13 L 1 13.496094 C 1 13.773438 1.226562 14 1.503906 14 L 4.519531 14 C 4.789062 14 5.003906 13.78125 5.003906 13.515625 L 5.003906 13 L 11 13.007812 L 11 13.507812 C 11.003906 13.78125 11.222656 14 11.492188 14 L 14.507812 14 C 14.640625 14 14.765625 13.945312 14.859375 13.851562 C 14.953125 13.761719 15.003906 13.632812 15.003906 13.5 L 15.003906 13.003906 L 16 13 L 16 9 C 16 8.445312 15.554688 7.996094 15 7.996094 L 4.003906 7.996094 L 4.003906 2.003906 Z M 8.003906 9 C 8.554688 9 9.003906 9.445312 9.003906 10 C 9.003906 10.554688 8.554688 11 8.003906 11 C 7.453125 11 7.003906 10.554688 7.003906 10 C 7.003906 9.445312 7.453125 9 8.003906 9 Z M 11.003906 9 C 11.554688 9 12.003906 9.445312 12.003906 10 C 12.003906 10.554688 11.554688 11 11.003906 11 C 10.453125 11 10.003906 10.554688 10.003906 10 C 10.003906 9.445312 10.453125 9 11.003906 9 Z M 14.003906 9 C 14.554688 9 15.003906 9.445312 15.003906 10 C 15.003906 10.554688 14.554688 11 14.003906 11 C 13.453125 11 13.003906 10.554688 13.003906 10 C 13.003906 9.445312 13.453125 9 14.003906 9 Z M 14.003906 9 "/>
</g>
</svg>
