<?xml version="1.0" encoding="UTF-8"?>
<svg xmlns="http://www.w3.org/2000/svg" xmlns:xlink="http://www.w3.org/1999/xlink" width="16" height="16" viewBox="0 0 16 16" version="1.1">
<g id="surface1">
<path style=" stroke:none;fill-rule:nonzero;fill:rgb(0%,0%,0%);fill-opacity:1;" d="M 6.339844 0 C 5.65625 0 5.09375 0.570312 5.09375 1.253906 L 5.09375 14.75 C 5.09375 15.4375 5.65625 16 6.339844 16 L 9.65625 16 C 10.335938 16 10.90625 15.4375 10.910156 14.75 L 10.910156 13 L 8.289062 13 L 8.289062 12 L 10.910156 12 L 10.910156 10 L 8.289062 10 L 8.289062 9.074219 L 10.910156 9.074219 L 10.910156 7 L 8.289062 7 L 8.289062 6.074219 L 10.910156 6.074219 L 10.910156 4 L 8.289062 4 L 8.289062 3.003906 L 10.910156 3.003906 L 10.910156 1.253906 C 10.910156 0.570312 10.335938 0 9.65625 0 Z M 6.339844 0 "/>
</g>
</svg>
