<?xml version="1.0" encoding="UTF-8"?>
<svg xmlns="http://www.w3.org/2000/svg" xmlns:xlink="http://www.w3.org/1999/xlink" width="16" height="16" viewBox="0 0 16 16" version="1.1">
<g id="surface1">
<path style=" stroke:none;fill-rule:nonzero;fill:rgb(0%,0%,0%);fill-opacity:1;" d="M 6.667969 13.332031 L 4 13.332031 L 4 14.667969 L 2.667969 14.667969 L 2.667969 13.332031 L 2 13.332031 C 1.632812 13.332031 1.332031 13.035156 1.332031 12.667969 L 1.332031 2.667969 C 1.332031 2.296875 1.632812 2 2 2 L 6.667969 2 L 6.667969 1.058594 C 6.667969 0.960938 6.710938 0.867188 6.785156 0.804688 C 6.859375 0.742188 6.957031 0.714844 7.054688 0.730469 L 14.109375 1.90625 C 14.429688 1.960938 14.667969 2.238281 14.667969 2.566406 L 14.667969 4 L 15.332031 4 L 15.332031 5.332031 L 14.667969 5.332031 L 14.667969 10 L 15.332031 10 L 15.332031 11.332031 L 14.667969 11.332031 L 14.667969 12.769531 C 14.667969 13.09375 14.429688 13.371094 14.109375 13.425781 L 13.332031 13.554688 L 13.332031 14.667969 L 12 14.667969 L 12 13.777344 L 7.054688 14.601562 C 6.957031 14.617188 6.859375 14.589844 6.785156 14.527344 C 6.710938 14.464844 6.667969 14.371094 6.667969 14.273438 Z M 8 13.09375 L 13.332031 12.203125 L 13.332031 3.128906 L 8 2.242188 Z M 11 9.332031 C 10.449219 9.332031 10 8.585938 10 7.667969 C 10 6.746094 10.449219 6 11 6 C 11.550781 6 12 6.746094 12 7.667969 C 12 8.585938 11.550781 9.332031 11 9.332031 Z M 11 9.332031 "/>
</g>
</svg>
