<?xml version="1.0" encoding="UTF-8"?>
<svg xmlns="http://www.w3.org/2000/svg" xmlns:xlink="http://www.w3.org/1999/xlink" width="16" height="16" viewBox="0 0 16 16" version="1.1">
<g id="surface1">
<path style=" stroke:none;fill-rule:nonzero;fill:rgb(0%,0%,0%);fill-opacity:1;" d="M 3.78125 2.839844 L 8.941406 8 L 8 8.941406 L 3.785156 4.730469 C 2.164062 6.824219 2.324219 9.789062 4.160156 11.699219 C 5.996094 13.605469 8.957031 13.875 11.109375 12.332031 C 13.261719 10.789062 13.957031 7.898438 12.738281 5.546875 C 11.519531 3.191406 8.761719 2.089844 6.257812 2.957031 L 5.234375 1.933594 C 6.101562 1.535156 7.046875 1.332031 8 1.332031 C 11.683594 1.332031 14.667969 4.316406 14.667969 8 C 14.667969 11.683594 11.683594 14.667969 8 14.667969 C 4.316406 14.667969 1.332031 11.683594 1.332031 8 C 1.332031 6 2.230469 4.101562 3.78125 2.839844 Z M 3.78125 2.839844 "/>
</g>
</svg>
