<?xml version="1.0" encoding="UTF-8"?>
<svg xmlns="http://www.w3.org/2000/svg" xmlns:xlink="http://www.w3.org/1999/xlink" width="16" height="16" viewBox="0 0 16 16" version="1.1">
<g id="surface1">
<path style=" stroke:none;fill-rule:nonzero;fill:rgb(0%,0%,0%);fill-opacity:1;" d="M 8 9.414062 L 6.457031 10.957031 C 6.953125 12.132812 6.550781 13.496094 5.492188 14.210938 C 4.433594 14.925781 3.015625 14.789062 2.113281 13.886719 C 1.210938 12.984375 1.074219 11.566406 1.789062 10.507812 C 2.503906 9.449219 3.867188 9.046875 5.042969 9.542969 L 6.585938 8 L 2.808594 4.222656 C 2.285156 3.703125 2.285156 2.855469 2.808594 2.335938 L 3.277344 1.863281 L 8 6.585938 L 12.71875 1.867188 L 13.191406 2.335938 C 13.714844 2.855469 13.714844 3.703125 13.191406 4.222656 L 9.414062 8 L 10.957031 9.542969 C 12.132812 9.046875 13.496094 9.449219 14.210938 10.507812 C 14.921875 11.566406 14.789062 12.984375 13.882812 13.886719 C 12.980469 14.789062 11.566406 14.925781 10.507812 14.210938 C 9.449219 13.496094 9.046875 12.132812 9.542969 10.957031 Z M 4 13.332031 C 4.738281 13.332031 5.332031 12.738281 5.332031 12 C 5.332031 11.261719 4.738281 10.667969 4 10.667969 C 3.261719 10.667969 2.667969 11.261719 2.667969 12 C 2.667969 12.738281 3.261719 13.332031 4 13.332031 Z M 12 13.332031 C 12.738281 13.332031 13.332031 12.738281 13.332031 12 C 13.332031 11.261719 12.738281 10.667969 12 10.667969 C 11.261719 10.667969 10.667969 11.261719 10.667969 12 C 10.667969 12.738281 11.261719 13.332031 12 13.332031 Z M 12 13.332031 "/>
</g>
</svg>
