<?xml version="1.0" encoding="UTF-8"?>
<svg xmlns="http://www.w3.org/2000/svg" xmlns:xlink="http://www.w3.org/1999/xlink" width="16" height="16" viewBox="0 0 16 16" version="1.1">
<g id="surface1">
<path style=" stroke:none;fill-rule:nonzero;fill:rgb(0%,0%,0%);fill-opacity:1;" d="M 8.101562 0.00390625 C 4.617188 -0.0898438 1.316406 2.328125 0.351562 5.679688 C 0.351562 5.679688 0.351562 5.6875 0.351562 5.6875 C -0.714844 9.027344 0.703125 12.882812 3.679688 14.730469 C 6.59375 16.664062 10.679688 16.359375 13.277344 14.015625 C 15.945312 11.742188 16.773438 7.714844 15.226562 4.570312 C 13.960938 1.851562 11.121094 0.0234375 8.117188 0.00390625 Z M 8.085938 1 C 8.09375 1 8.097656 1 8.101562 1 C 10.710938 1.007812 13.230469 2.632812 14.328125 5 C 14.328125 5.003906 14.328125 5.007812 14.332031 5.007812 C 15.671875 7.71875 14.925781 11.304688 12.621094 13.261719 C 12.617188 13.265625 12.617188 13.273438 12.613281 13.273438 C 10.378906 15.296875 6.742188 15.5625 4.234375 13.898438 C 4.230469 13.894531 4.222656 13.890625 4.21875 13.890625 C 1.648438 12.296875 0.382812 8.859375 1.304688 5.984375 C 1.304688 5.976562 1.304688 5.972656 1.3125 5.96875 C 2.140625 3.070312 5.078125 0.914062 8.085938 1 Z M 8.085938 1 "/>
<path style=" stroke:none;fill-rule:nonzero;fill:rgb(0%,0%,0%);fill-opacity:1;" d="M 7.109375 3.753906 C 5.289062 3.753906 3.800781 5.234375 3.800781 7.054688 C 3.800781 8.871094 5.289062 10.359375 7.109375 10.359375 C 7.742188 10.359375 8.335938 10.171875 8.84375 9.859375 L 11.210938 12.09375 C 11.445312 12.3125 11.820312 12.304688 12.046875 12.070312 C 12.152344 11.957031 12.210938 11.804688 12.207031 11.648438 C 12.203125 11.492188 12.136719 11.339844 12.023438 11.234375 L 9.71875 9.0625 C 10.148438 8.5 10.40625 7.804688 10.40625 7.054688 C 10.40625 5.234375 8.921875 3.753906 7.109375 3.753906 Z M 7.109375 4.9375 C 8.285156 4.9375 9.226562 5.875 9.226562 7.054688 C 9.226562 8.230469 8.285156 9.175781 7.109375 9.175781 C 5.929688 9.175781 4.984375 8.230469 4.984375 7.054688 C 4.984375 5.875 5.929688 4.9375 7.109375 4.9375 Z M 7.109375 4.9375 "/>
<path style=" stroke:none;fill-rule:nonzero;fill:rgb(0%,0%,0%);fill-opacity:1;" d="M 8.976562 9.171875 L 11.617188 11.664062 "/>
</g>
</svg>
