<?xml version="1.0" encoding="UTF-8"?>
<svg xmlns="http://www.w3.org/2000/svg" xmlns:xlink="http://www.w3.org/1999/xlink" width="16" height="16" viewBox="0 0 16 16" version="1.1">
<g id="surface1">
<path style=" stroke:none;fill-rule:nonzero;fill:rgb(0%,0%,0%);fill-opacity:1;" d="M 7.332031 2 C 7.703125 2 8 2.296875 8 2.667969 L 8 4 L 11.332031 4 C 11.703125 4 12 4.296875 12 4.667969 L 12 8 L 13.332031 8 C 13.703125 8 14 8.296875 14 8.667969 L 14 13.332031 C 14 13.703125 13.703125 14 13.332031 14 L 8.667969 14 C 8.296875 14 8 13.703125 8 13.332031 L 8 12 L 4.667969 12 C 4.296875 12 4 11.703125 4 11.332031 L 4 8 L 2.667969 8 C 2.296875 8 2 7.703125 2 7.332031 L 2 2.667969 C 2 2.296875 2.296875 2 2.667969 2 Z M 10.667969 5.332031 L 8 5.332031 L 8 7.332031 C 8 7.703125 7.703125 8 7.332031 8 L 5.332031 8 L 5.332031 10.667969 L 8 10.667969 L 8 8.667969 C 8 8.296875 8.296875 8 8.667969 8 L 10.667969 8 Z M 10.667969 5.332031 "/>
</g>
</svg>
