<?xml version="1.0" encoding="UTF-8"?>
<svg xmlns="http://www.w3.org/2000/svg" xmlns:xlink="http://www.w3.org/1999/xlink" width="16" height="16" viewBox="0 0 16 16" version="1.1">
<g id="surface1">
<path style=" stroke:none;fill-rule:nonzero;fill:rgb(0%,0%,0%);fill-opacity:1;" d="M 5.601562 8.519531 C 5.484375 8.519531 5.367188 8.550781 5.265625 8.609375 L 2.898438 10.003906 C 2.589844 10.183594 2.484375 10.578125 2.664062 10.882812 L 2.917969 11.308594 C 2.3125 12.015625 2.195312 12.8125 2.054688 13.367188 C 1.964844 13.710938 1.859375 13.976562 1.648438 14.21875 C 1.433594 14.457031 1.085938 14.703125 0.398438 14.921875 C 0.253906 14.960938 0.132812 15.0625 0.0625 15.1875 C -0.0078125 15.320312 -0.0195312 15.476562 0.0234375 15.617188 C 0.117188 15.90625 0.429688 16.066406 0.726562 15.976562 C 1.546875 15.71875 2.113281 15.367188 2.488281 14.945312 C 2.867188 14.519531 3.023438 14.046875 3.132812 13.632812 C 3.265625 13.117188 3.328125 12.714844 3.539062 12.34375 L 3.601562 12.453125 C 3.6875 12.601562 3.835938 12.710938 4 12.75 C 4.167969 12.792969 4.34375 12.765625 4.492188 12.679688 L 6.859375 11.289062 C 7.011719 11.199219 7.117188 11.054688 7.164062 10.890625 C 7.207031 10.726562 7.179688 10.546875 7.09375 10.398438 L 6.15625 8.828125 C 6.039062 8.640625 5.828125 8.523438 5.601562 8.519531 Z M 5.601562 8.519531 "/>
<path style=" stroke:none;fill-rule:evenodd;fill:rgb(0%,0%,0%);fill-opacity:1;" d="M 6.335938 6.234375 C 6.335938 6.203125 6.34375 6.171875 6.351562 6.144531 C 6.378906 6.015625 6.460938 5.90625 6.574219 5.835938 C 6.6875 5.765625 6.820312 5.742188 6.953125 5.773438 C 7.984375 6.023438 8.875 6.667969 9.429688 7.570312 C 9.980469 8.476562 10.148438 9.5625 9.902344 10.59375 C 9.835938 10.859375 9.570312 11.023438 9.304688 10.964844 C 9.179688 10.9375 9.066406 10.851562 8.996094 10.742188 C 8.929688 10.625 8.90625 10.492188 8.9375 10.359375 C 9.125 9.585938 8.992188 8.773438 8.578125 8.097656 C 8.164062 7.417969 7.492188 6.9375 6.71875 6.75 C 6.484375 6.691406 6.320312 6.476562 6.335938 6.234375 Z M 6.335938 6.234375 "/>
<path style=" stroke:none;fill-rule:evenodd;fill:rgb(0%,0%,0%);fill-opacity:1;" d="M 6.8125 4.289062 C 6.8125 4.257812 6.816406 4.226562 6.824219 4.199219 C 6.851562 4.070312 6.9375 3.957031 7.046875 3.890625 C 7.164062 3.820312 7.296875 3.796875 7.429688 3.828125 C 8.976562 4.203125 10.304688 5.175781 11.136719 6.53125 C 11.96875 7.890625 12.222656 9.523438 11.851562 11.070312 C 11.78125 11.335938 11.511719 11.5 11.246094 11.433594 C 10.984375 11.367188 10.820312 11.101562 10.882812 10.835938 C 11.195312 9.546875 10.976562 8.1875 10.285156 7.054688 C 9.59375 5.925781 8.484375 5.113281 7.195312 4.804688 C 6.960938 4.746094 6.796875 4.53125 6.8125 4.289062 Z M 6.8125 4.289062 "/>
<path style=" stroke:none;fill-rule:evenodd;fill:rgb(0%,0%,0%);fill-opacity:1;" d="M 7.28125 2.347656 C 7.28125 2.316406 7.28125 2.28125 7.289062 2.25 C 7.320312 2.125 7.402344 2.011719 7.515625 1.941406 C 7.628906 1.875 7.765625 1.851562 7.894531 1.882812 C 9.957031 2.378906 11.738281 3.675781 12.84375 5.484375 C 13.953125 7.296875 14.292969 9.476562 13.796875 11.539062 C 13.765625 11.667969 13.683594 11.78125 13.570312 11.847656 C 13.457031 11.917969 13.320312 11.9375 13.195312 11.90625 C 13.0625 11.875 12.953125 11.796875 12.882812 11.683594 C 12.8125 11.570312 12.789062 11.433594 12.820312 11.304688 C 13.257812 9.5 12.960938 7.59375 11.992188 6.007812 C 11.023438 4.425781 9.464844 3.289062 7.660156 2.855469 C 7.429688 2.796875 7.265625 2.585938 7.28125 2.347656 Z M 7.28125 2.347656 "/>
<path style=" stroke:none;fill-rule:evenodd;fill:rgb(0%,0%,0%);fill-opacity:1;" d="M 8.476562 0 C 8.242188 -0.0078125 8.039062 0.144531 7.976562 0.367188 C 7.941406 0.5 7.960938 0.632812 8.023438 0.75 C 8.09375 0.863281 8.203125 0.945312 8.328125 0.984375 C 13.085938 2.257812 15.929688 7.089844 14.730469 11.863281 C 14.695312 11.992188 14.714844 12.128906 14.78125 12.242188 C 14.851562 12.359375 14.960938 12.445312 15.09375 12.476562 C 15.21875 12.507812 15.359375 12.484375 15.46875 12.417969 C 15.585938 12.347656 15.664062 12.234375 15.695312 12.109375 C 17.023438 6.8125 13.859375 1.429688 8.585938 0.015625 C 8.554688 0.0078125 8.515625 0.00390625 8.476562 0 Z M 8.476562 0 "/>
</g>
</svg>
