<?xml version="1.0" encoding="UTF-8"?>
<svg xmlns="http://www.w3.org/2000/svg" xmlns:xlink="http://www.w3.org/1999/xlink" width="16" height="16" viewBox="0 0 16 16" version="1.1">
<g id="surface1">
<path style=" stroke:none;fill-rule:nonzero;fill:rgb(0%,0%,0%);fill-opacity:1;" d="M 2.105469 2.980469 C 3.710938 1.375 6.28125 1.28125 8 2.761719 C 9.71875 1.28125 12.285156 1.375 13.886719 2.976562 C 15.492188 4.578125 15.59375 7.140625 14.121094 8.863281 L 8.941406 14.058594 C 8.449219 14.550781 7.660156 14.578125 7.128906 14.125 L 7.058594 14.058594 L 1.878906 8.863281 C 0.40625 7.144531 0.507812 4.582031 2.105469 2.980469 Z M 3.050781 3.921875 C 1.917969 5.054688 1.875 6.878906 2.953125 8.0625 L 3.050781 8.164062 L 8 13.113281 L 11.535156 9.578125 L 9.179688 7.222656 L 8.472656 7.929688 C 7.691406 8.710938 6.425781 8.710938 5.644531 7.929688 C 4.863281 7.148438 4.863281 5.882812 5.644531 5.101562 L 7.042969 3.699219 C 5.890625 2.777344 4.242188 2.832031 3.152344 3.824219 Z M 8.707031 5.808594 C 8.96875 5.546875 9.390625 5.546875 9.648438 5.808594 L 12.476562 8.636719 L 12.949219 8.164062 C 14.101562 7.011719 14.125 5.152344 13 3.972656 C 11.875 2.792969 10.015625 2.726562 8.808594 3.824219 L 8.707031 3.921875 L 6.585938 6.042969 C 6.347656 6.28125 6.324219 6.664062 6.535156 6.929688 L 6.585938 6.984375 C 6.824219 7.226562 7.207031 7.246094 7.46875 7.039062 L 7.527344 6.984375 Z M 8.707031 5.808594 "/>
</g>
</svg>
