<?xml version="1.0" encoding="UTF-8"?>
<svg xmlns="http://www.w3.org/2000/svg" xmlns:xlink="http://www.w3.org/1999/xlink" width="16" height="16" viewBox="0 0 16 16" version="1.1">
<g id="surface1">
<path style=" stroke:none;fill-rule:nonzero;fill:rgb(0%,0%,0%);fill-opacity:1;" d="M 2.226562 11.332031 C 1.945312 10.847656 1.726562 10.324219 1.574219 9.78125 C 2.246094 9.441406 2.667969 8.753906 2.667969 8 C 2.667969 7.25 2.246094 6.558594 1.574219 6.21875 C 1.878906 5.128906 2.449219 4.132812 3.242188 3.328125 C 3.875 3.738281 4.683594 3.757812 5.332031 3.382812 C 5.984375 3.003906 6.371094 2.296875 6.332031 1.542969 C 7.425781 1.261719 8.574219 1.261719 9.667969 1.546875 C 9.628906 2.296875 10.015625 3.007812 10.667969 3.382812 C 11.316406 3.757812 12.125 3.738281 12.757812 3.328125 C 13.144531 3.71875 13.484375 4.167969 13.773438 4.667969 C 14.0625 5.164062 14.277344 5.6875 14.425781 6.21875 C 13.753906 6.558594 13.332031 7.246094 13.332031 8 C 13.332031 8.75 13.753906 9.441406 14.425781 9.78125 C 14.121094 10.871094 13.550781 11.867188 12.757812 12.671875 C 12.125 12.261719 11.316406 12.242188 10.667969 12.617188 C 10.015625 12.996094 9.628906 13.703125 9.667969 14.457031 C 8.574219 14.738281 7.425781 14.738281 6.332031 14.453125 C 6.371094 13.703125 5.984375 12.992188 5.332031 12.617188 C 4.683594 12.242188 3.875 12.261719 3.242188 12.671875 C 2.847656 12.269531 2.507812 11.820312 2.226562 11.332031 Z M 6 11.464844 C 6.710938 11.875 7.246094 12.53125 7.5 13.3125 C 7.832031 13.34375 8.167969 13.34375 8.5 13.3125 C 8.753906 12.53125 9.289062 11.875 10 11.464844 C 10.710938 11.054688 11.546875 10.917969 12.351562 11.089844 C 12.542969 10.816406 12.710938 10.527344 12.847656 10.222656 C 12.300781 9.613281 12 8.820312 12 8 C 12 7.160156 12.3125 6.375 12.847656 5.777344 C 12.710938 5.472656 12.542969 5.183594 12.347656 4.910156 C 11.546875 5.082031 10.710938 4.945312 10 4.535156 C 9.289062 4.125 8.753906 3.46875 8.5 2.6875 C 8.167969 2.65625 7.832031 2.65625 7.5 2.6875 C 7.246094 3.46875 6.710938 4.125 6 4.535156 C 5.289062 4.945312 4.453125 5.082031 3.648438 4.910156 C 3.457031 5.183594 3.289062 5.472656 3.152344 5.777344 C 3.699219 6.386719 4 7.179688 4 8 C 4 8.839844 3.6875 9.625 3.152344 10.222656 C 3.289062 10.527344 3.457031 10.816406 3.652344 11.089844 C 4.453125 10.917969 5.289062 11.054688 6 11.464844 Z M 8 10 C 6.894531 10 6 9.105469 6 8 C 6 6.894531 6.894531 6 8 6 C 9.105469 6 10 6.894531 10 8 C 10 9.105469 9.105469 10 8 10 Z M 8 8.667969 C 8.367188 8.667969 8.667969 8.367188 8.667969 8 C 8.667969 7.632812 8.367188 7.332031 8 7.332031 C 7.632812 7.332031 7.332031 7.632812 7.332031 8 C 7.332031 8.367188 7.632812 8.667969 8 8.667969 Z M 8 8.667969 "/>
</g>
</svg>
