<?xml version="1.0" encoding="UTF-8"?>
<svg xmlns="http://www.w3.org/2000/svg" xmlns:xlink="http://www.w3.org/1999/xlink" width="16" height="16" viewBox="0 0 16 16" version="1.1">
<g id="surface1">
<path style=" stroke:none;fill-rule:nonzero;fill:rgb(0%,0%,0%);fill-opacity:1;" d="M 12.949219 0 C 11.3125 0.0273438 10 1.363281 10 3 C 10 3.125 10.007812 3.246094 10.023438 3.367188 L 5.085938 5.84375 C 4.523438 5.304688 3.777344 5 3 5 C 1.34375 5 0 6.34375 0 8 C 0 9.65625 1.34375 11 3 11 C 3.777344 11 4.523438 10.695312 5.082031 10.15625 L 10.023438 12.628906 C 10.007812 12.75 10 12.875 10 13 C 10 14.65625 11.34375 16 13 16 C 14.65625 16 16 14.65625 16 13 C 16 11.34375 14.65625 10 13 10 C 12.222656 10 11.476562 10.304688 10.917969 10.84375 L 5.976562 8.375 C 5.992188 8.25 6 8.125 6 8 C 6 7.875 5.992188 7.753906 5.976562 7.632812 L 10.921875 5.164062 C 11.480469 5.699219 12.226562 6 13 6 C 14.65625 6 16 4.65625 16 3 C 16 1.34375 14.65625 0 13 0 C 12.984375 0 12.96875 0 12.949219 0 Z M 12.949219 0 "/>
</g>
</svg>
