<?xml version="1.0" encoding="UTF-8"?>
<svg xmlns="http://www.w3.org/2000/svg" xmlns:xlink="http://www.w3.org/1999/xlink" width="16" height="16" viewBox="0 0 16 16" version="1.1">
<g id="surface1">
<path style=" stroke:none;fill-rule:nonzero;fill:rgb(0%,0%,0%);fill-opacity:1;" d="M 2.667969 4.277344 L 0.503906 2.113281 L 1.449219 1.171875 L 3.609375 3.332031 L 13.769531 3.332031 C 13.980469 3.332031 14.179688 3.433594 14.304688 3.601562 C 14.429688 3.769531 14.46875 3.988281 14.410156 4.191406 L 12.808594 9.523438 C 12.726562 9.808594 12.464844 10 12.171875 10 L 4 10 L 4 11.332031 L 11.332031 11.332031 L 11.332031 12.667969 L 3.332031 12.667969 C 2.964844 12.667969 2.667969 12.367188 2.667969 12 Z M 4 4.667969 L 4 8.667969 L 11.675781 8.667969 L 12.875 4.667969 Z M 3.667969 15.332031 C 3.113281 15.332031 2.667969 14.886719 2.667969 14.332031 C 2.667969 13.78125 3.113281 13.332031 3.667969 13.332031 C 4.21875 13.332031 4.667969 13.78125 4.667969 14.332031 C 4.667969 14.886719 4.21875 15.332031 3.667969 15.332031 Z M 11.667969 15.332031 C 11.113281 15.332031 10.667969 14.886719 10.667969 14.332031 C 10.667969 13.78125 11.113281 13.332031 11.667969 13.332031 C 12.21875 13.332031 12.667969 13.78125 12.667969 14.332031 C 12.667969 14.886719 12.21875 15.332031 11.667969 15.332031 Z M 11.667969 15.332031 "/>
</g>
</svg>
