<?xml version="1.0" encoding="UTF-8"?>
<svg xmlns="http://www.w3.org/2000/svg" xmlns:xlink="http://www.w3.org/1999/xlink" width="16" height="16" viewBox="0 0 16 16" version="1.1">
<g id="surface1">
<path style=" stroke:none;fill-rule:nonzero;fill:rgb(0%,0%,0%);fill-opacity:1;" d="M 11.753906 0.4375 C 11.570312 0.453125 11.398438 0.53125 11.273438 0.660156 L 9.273438 2.660156 C 8.980469 2.953125 8.980469 3.421875 9.273438 3.71875 L 9.734375 4.1875 L 6.621094 7.304688 L 4.796875 5.480469 L 4.445312 5.835938 L 1.445312 8.832031 C 0.328125 9.949219 0.328125 11.429688 0.589844 12.53125 C 0.851562 13.625 1.382812 14.457031 1.382812 14.457031 L 1.429688 14.546875 L 1.527344 14.601562 C 1.527344 14.601562 2.335938 15.140625 3.433594 15.414062 C 4.53125 15.6875 6.007812 15.679688 7.152344 14.539062 L 10.503906 11.1875 L 8.6875 9.367188 L 11.804688 6.25 L 12.269531 6.71875 C 12.5625 7.015625 13.039062 7.015625 13.332031 6.71875 L 15.332031 4.71875 C 15.625 4.425781 15.625 3.949219 15.332031 3.65625 L 12.328125 0.660156 C 12.195312 0.523438 12.015625 0.445312 11.828125 0.4375 C 11.804688 0.4375 11.777344 0.4375 11.753906 0.4375 Z M 11.800781 2.1875 L 13.800781 4.1875 L 12.800781 5.1875 L 10.800781 3.1875 Z M 11.800781 2.1875 "/>
</g>
</svg>
