<?xml version="1.0" encoding="UTF-8"?>
<svg xmlns="http://www.w3.org/2000/svg" xmlns:xlink="http://www.w3.org/1999/xlink" width="16" height="16" viewBox="0 0 16 16" version="1.1">
<g id="surface1">
<path style=" stroke:none;fill-rule:nonzero;fill:rgb(0%,0%,0%);fill-opacity:1;" d="M 5.332031 7.554688 L 12.148438 3.011719 C 12.25 2.945312 12.382812 2.9375 12.492188 2.996094 C 12.597656 3.054688 12.667969 3.167969 12.667969 3.289062 L 12.667969 12.710938 C 12.667969 12.832031 12.597656 12.945312 12.492188 13.003906 C 12.382812 13.0625 12.25 13.054688 12.148438 12.988281 L 5.332031 8.445312 L 5.332031 12.667969 C 5.332031 13.035156 5.035156 13.332031 4.667969 13.332031 C 4.296875 13.332031 4 13.035156 4 12.667969 L 4 3.332031 C 4 2.964844 4.296875 2.667969 4.667969 2.667969 C 5.035156 2.667969 5.332031 2.964844 5.332031 3.332031 Z M 5.332031 7.554688 "/>
</g>
</svg>
