<?xml version="1.0" encoding="UTF-8"?>
<svg xmlns="http://www.w3.org/2000/svg" xmlns:xlink="http://www.w3.org/1999/xlink" width="16" height="16" viewBox="0 0 16 16" version="1.1">
<g id="surface1">
<path style=" stroke:none;fill-rule:nonzero;fill:rgb(0%,0%,0%);fill-opacity:1;" d="M 8.667969 12.28125 C 8.953125 12.238281 9.242188 12.285156 9.492188 12.421875 C 10.332031 12.863281 11.363281 12.707031 12.035156 12.035156 C 12.707031 11.363281 12.863281 10.332031 12.421875 9.492188 C 12.285156 9.242188 12.238281 8.953125 12.28125 8.667969 C 12.496094 7.300781 12.042969 5.914062 11.066406 4.933594 C 10.085938 3.957031 8.699219 3.503906 7.332031 3.71875 C 7.046875 3.761719 6.757812 3.714844 6.507812 3.578125 C 5.664062 3.136719 4.636719 3.292969 3.964844 3.964844 C 3.292969 4.636719 3.136719 5.667969 3.578125 6.507812 C 3.714844 6.757812 3.761719 7.046875 3.71875 7.332031 C 3.503906 8.699219 3.957031 10.085938 4.933594 11.066406 C 5.914062 12.042969 7.300781 12.496094 8.667969 12.28125 Z M 8 13.667969 C 6.34375 13.667969 4.769531 12.941406 3.695312 11.6875 C 2.617188 10.429688 2.144531 8.761719 2.398438 7.125 C 1.6875 5.769531 1.9375 4.105469 3.023438 3.023438 C 4.105469 1.9375 5.769531 1.6875 7.125 2.398438 C 8.914062 2.121094 10.730469 2.710938 12.007812 3.992188 C 13.289062 5.269531 13.878906 7.085938 13.601562 8.875 C 14.3125 10.230469 14.0625 11.894531 12.976562 12.976562 C 11.894531 14.0625 10.230469 14.3125 8.875 13.601562 C 8.589844 13.644531 8.296875 13.667969 8 13.667969 Z M 8.035156 11.332031 C 6.167969 11.332031 5.332031 10.414062 5.332031 9.722656 C 5.332031 9.371094 5.59375 9.121094 5.953125 9.121094 C 6.753906 9.121094 6.542969 10.273438 8.035156 10.273438 C 8.796875 10.273438 9.21875 9.855469 9.21875 9.433594 C 9.21875 9.175781 9.09375 8.894531 8.589844 8.769531 L 6.929688 8.351562 C 5.59375 8.015625 5.351562 7.292969 5.351562 6.613281 C 5.351562 5.199219 6.679688 4.667969 7.925781 4.667969 C 9.074219 4.667969 10.429688 5.304688 10.429688 6.152344 C 10.429688 6.515625 10.109375 6.726562 9.757812 6.726562 C 9.074219 6.726562 9.199219 5.78125 7.824219 5.78125 C 7.140625 5.78125 6.757812 6.089844 6.757812 6.53125 C 6.757812 6.976562 7.292969 7.117188 7.761719 7.222656 L 8.984375 7.496094 C 10.328125 7.796875 10.667969 8.585938 10.667969 9.324219 C 10.667969 10.476562 9.785156 11.332031 8.011719 11.332031 Z M 8.035156 11.332031 "/>
</g>
</svg>
