<?xml version="1.0" encoding="UTF-8"?>
<svg xmlns="http://www.w3.org/2000/svg" xmlns:xlink="http://www.w3.org/1999/xlink" width="16" height="16" viewBox="0 0 16 16" version="1.1">
<g id="surface1">
<path style=" stroke:none;fill-rule:nonzero;fill:rgb(0%,0%,0%);fill-opacity:1;" d="M 8.667969 12 L 8.667969 13.332031 L 11.332031 13.332031 L 11.332031 14.667969 L 4.667969 14.667969 L 4.667969 13.332031 L 7.332031 13.332031 L 7.332031 12 L 2 12 C 1.632812 12 1.332031 11.703125 1.332031 11.332031 L 1.332031 2.667969 C 1.332031 2.296875 1.632812 2 2 2 L 14 2 C 14.367188 2 14.667969 2.296875 14.667969 2.667969 L 14.667969 11.332031 C 14.667969 11.703125 14.367188 12 14 12 Z M 2.667969 3.332031 L 2.667969 10.667969 L 13.332031 10.667969 L 13.332031 3.332031 Z M 6.667969 5 L 10 7 L 6.667969 9 Z M 6.667969 5 "/>
</g>
</svg>
