<?xml version="1.0" encoding="UTF-8"?>
<svg xmlns="http://www.w3.org/2000/svg" xmlns:xlink="http://www.w3.org/1999/xlink" width="16" height="16" viewBox="0 0 16 16" version="1.1">
<g id="surface1">
<path style=" stroke:none;fill-rule:nonzero;fill:rgb(0%,0%,0%);fill-opacity:1;" d="M 5.445312 2 C 5.730469 1.199219 6.484375 0.667969 7.332031 0.667969 L 8.667969 0.667969 C 9.539062 0.667969 10.277344 1.222656 10.554688 2 L 14 2 C 14.367188 2 14.667969 2.296875 14.667969 2.667969 L 14.667969 13.332031 C 14.667969 13.703125 14.367188 14 14 14 L 2 14 C 1.632812 14 1.332031 13.703125 1.332031 13.332031 L 1.332031 2.667969 C 1.332031 2.296875 1.632812 2 2 2 Z M 6.667969 6 L 6.667969 10 L 10 8 Z M 7.332031 2 C 6.964844 2 6.667969 2.296875 6.667969 2.667969 C 6.667969 3.035156 6.964844 3.332031 7.332031 3.332031 L 8.667969 3.332031 C 9.035156 3.332031 9.332031 3.035156 9.332031 2.667969 C 9.332031 2.296875 9.035156 2 8.667969 2 Z M 7.332031 2 "/>
</g>
</svg>
