<?xml version="1.0" encoding="UTF-8"?>
<svg xmlns="http://www.w3.org/2000/svg" xmlns:xlink="http://www.w3.org/1999/xlink" width="16" height="16" viewBox="0 0 16 16" version="1.1">
<g id="surface1">
<path style=" stroke:none;fill-rule:evenodd;fill:rgb(0%,0%,0%);fill-opacity:1;" d="M 0 0 L 0 14 C 0 15.109375 0.890625 16 2 16 L 5 16 C 6.109375 16 7 15.109375 7 14 L 7 12 L 9 12 L 9 14 C 9 15.109375 9.890625 16 11 16 L 14 16 C 15.109375 16 16 15.109375 16 14 L 16 13 L 12 13 L 12 11 L 16 11 L 16 0 L 13.5 0 C 13.222656 0 13 0.222656 13 0.5 C 13 0.777344 13.222656 1 13.5 1 L 15 1 L 15 10.273438 C 14.703125 10.101562 14.367188 10 14 10 L 5.398438 10 C 5.34375 10 5.289062 10.015625 5.234375 10.023438 C 5.15625 10.015625 5.078125 10 5 10 L 2 10 C 1.632812 10 1.296875 10.101562 1 10.273438 L 1 1 L 2.5 1 C 2.777344 1 3 0.777344 3 0.5 C 3 0.222656 2.777344 0 2.5 0 Z M 0 0 "/>
</g>
</svg>
