<?xml version="1.0" encoding="UTF-8"?>
<svg xmlns="http://www.w3.org/2000/svg" xmlns:xlink="http://www.w3.org/1999/xlink" width="16" height="16" viewBox="0 0 16 16" version="1.1">
<g id="surface1">
<path style=" stroke:none;fill-rule:evenodd;fill:rgb(0%,0%,0%);fill-opacity:1;" d="M 13.550781 2.332031 C 13.351562 2.148438 13.042969 2.148438 12.851562 2.34375 C 12.828125 2.367188 12.804688 2.390625 12.789062 2.417969 C 12.65625 2.617188 12.679688 2.882812 12.851562 3.046875 C 14.164062 4.363281 14.902344 6.144531 14.902344 8 C 14.902344 9.859375 14.160156 11.640625 12.84375 12.953125 C 12.652344 13.148438 12.648438 13.460938 12.84375 13.65625 C 13.039062 13.851562 13.359375 13.851562 13.554688 13.65625 C 15.054688 12.15625 15.902344 10.121094 15.902344 8 C 15.902344 5.875 15.058594 3.84375 13.558594 2.34375 C 13.554688 2.335938 13.550781 2.335938 13.546875 2.332031 Z M 12.132812 3.75 C 11.9375 3.5625 11.628906 3.566406 11.4375 3.757812 C 11.414062 3.78125 11.398438 3.804688 11.382812 3.828125 C 11.242188 4.03125 11.269531 4.296875 11.4375 4.46875 C 12.378906 5.40625 12.898438 6.679688 12.898438 8.007812 C 12.898438 9.332031 12.375 10.601562 11.4375 11.539062 C 11.25 11.734375 11.25 12.046875 11.4375 12.242188 C 11.628906 12.433594 11.941406 12.4375 12.140625 12.246094 C 13.265625 11.121094 13.898438 9.59375 13.898438 8 C 13.898438 6.410156 13.273438 4.882812 12.148438 3.757812 C 12.140625 3.757812 12.140625 3.753906 12.140625 3.75 Z M 10.710938 5.160156 C 10.515625 4.976562 10.203125 4.976562 10.015625 5.171875 C 9.992188 5.191406 9.976562 5.214844 9.960938 5.242188 C 9.820312 5.4375 9.84375 5.710938 10.015625 5.878906 C 10.578125 6.445312 10.898438 7.203125 10.898438 8 C 10.898438 8.796875 10.585938 9.554688 10.023438 10.117188 C 9.828125 10.3125 9.828125 10.632812 10.023438 10.828125 C 10.21875 11.015625 10.53125 11.015625 10.726562 10.824219 C 11.476562 10.074219 11.898438 9.054688 11.898438 7.996094 C 11.898438 6.9375 11.476562 5.921875 10.726562 5.171875 C 10.71875 5.167969 10.71875 5.164062 10.71875 5.160156 Z M 10.710938 5.160156 "/>
<path style=" stroke:none;fill-rule:nonzero;fill:rgb(0%,0%,0%);fill-opacity:1;" d="M 0.0976562 5.5 L 0.0976562 10.5 L 3.097656 10.5 L 7.097656 14.5 C 9.433594 10.164062 9.9375 5.835938 7.097656 1.5 L 3.097656 5.5 Z M 0.0976562 5.5 "/>
</g>
</svg>
