<?xml version="1.0" encoding="UTF-8"?>
<svg xmlns="http://www.w3.org/2000/svg" xmlns:xlink="http://www.w3.org/1999/xlink" width="16" height="16" viewBox="0 0 16 16" version="1.1">
<g id="surface1">
<path style=" stroke:none;fill-rule:evenodd;fill:rgb(0%,0%,0%);fill-opacity:1;" d="M 7.101562 1.5 L 6.121094 2.476562 L 8.9375 6.234375 C 8.71875 4.65625 8.132812 3.078125 7.101562 1.5 Z M 13.199219 2.195312 C 13.070312 2.195312 12.945312 2.246094 12.851562 2.34375 C 12.828125 2.367188 12.804688 2.390625 12.789062 2.417969 C 12.65625 2.617188 12.679688 2.878906 12.851562 3.046875 C 14.164062 4.359375 14.902344 6.144531 14.898438 8 C 14.898438 9.546875 14.382812 11.035156 13.453125 12.25 L 14.078125 13.078125 C 15.25 11.65625 15.902344 9.859375 15.902344 8 C 15.902344 5.878906 15.058594 3.84375 13.558594 2.34375 C 13.554688 2.339844 13.546875 2.335938 13.546875 2.332031 C 13.453125 2.238281 13.324219 2.195312 13.199219 2.195312 Z M 11.785156 3.609375 C 11.65625 3.613281 11.53125 3.664062 11.4375 3.757812 C 11.414062 3.78125 11.398438 3.804688 11.382812 3.828125 C 11.242188 4.03125 11.269531 4.296875 11.4375 4.46875 C 12.378906 5.40625 12.898438 6.679688 12.898438 8.007812 C 12.898438 8.914062 12.636719 9.789062 12.179688 10.554688 L 12.828125 11.414062 C 13.515625 10.421875 13.898438 9.230469 13.898438 8 C 13.898438 6.410156 13.273438 4.882812 12.144531 3.757812 C 12.140625 3.757812 12.140625 3.753906 12.140625 3.75 L 12.132812 3.75 C 12.035156 3.65625 11.910156 3.609375 11.785156 3.609375 Z M 3.648438 4.949219 L 3.101562 5.5 L 0.101562 5.5 L 0.101562 10.5 L 3.101562 10.5 L 7.101562 14.5 C 7.664062 13.445312 8.117188 12.398438 8.449219 11.34375 Z M 10.359375 5.023438 C 10.234375 5.023438 10.109375 5.074219 10.015625 5.171875 C 9.992188 5.191406 9.976562 5.214844 9.960938 5.242188 C 9.820312 5.441406 9.847656 5.710938 10.019531 5.878906 C 10.582031 6.441406 10.898438 7.203125 10.898438 8 C 10.898438 8.242188 10.859375 8.484375 10.804688 8.71875 L 11.515625 9.671875 C 11.757812 9.148438 11.898438 8.582031 11.898438 7.996094 C 11.898438 6.9375 11.476562 5.921875 10.726562 5.171875 C 10.71875 5.171875 10.71875 5.164062 10.71875 5.160156 L 10.710938 5.160156 C 10.613281 5.066406 10.484375 5.023438 10.359375 5.023438 Z M 10.359375 5.023438 "/>
<path style=" stroke:none;fill-rule:nonzero;fill:rgb(0%,0%,0%);fill-opacity:1;" d="M 1.34375 0 C 1.34375 0.164062 1.398438 0.320312 1.496094 0.453125 L 13.164062 16 L 14.84375 16 C 14.84375 15.835938 14.792969 15.679688 14.695312 15.546875 L 3.035156 0 Z M 1.34375 0 "/>
</g>
</svg>
