<?xml version="1.0" encoding="UTF-8"?>
<svg xmlns="http://www.w3.org/2000/svg" xmlns:xlink="http://www.w3.org/1999/xlink" width="16" height="16" viewBox="0 0 16 16" version="1.1">
<g id="surface1">
<path style=" stroke:none;fill-rule:nonzero;fill:rgb(0%,0%,0%);fill-opacity:1;" d="M 2.667969 6.667969 C 3.035156 6.667969 3.332031 6.964844 3.332031 7.332031 L 3.332031 12 C 3.332031 12.367188 3.035156 12.667969 2.667969 12.667969 C 2.296875 12.667969 2 12.367188 2 12 L 2 7.332031 C 2 6.964844 2.296875 6.667969 2.667969 6.667969 Z M 4.667969 7.332031 C 5.035156 7.332031 5.332031 7.632812 5.332031 8 L 5.332031 12 C 5.332031 12.367188 5.035156 12.667969 4.667969 12.667969 C 4.296875 12.667969 4 12.367188 4 12 L 4 8 C 4 7.632812 4.296875 7.332031 4.667969 7.332031 Z M 6.667969 4.667969 C 7.035156 4.667969 7.332031 4.964844 7.332031 5.332031 L 7.332031 12 C 7.332031 12.367188 7.035156 12.667969 6.667969 12.667969 C 6.296875 12.667969 6 12.367188 6 12 L 6 5.332031 C 6 4.964844 6.296875 4.667969 6.667969 4.667969 Z M 10 4 C 12.152344 4 13.917969 5.699219 13.996094 7.851562 L 14 8.023438 C 15.1875 8.191406 16.054688 9.238281 16 10.4375 C 15.949219 11.636719 14.992188 12.597656 13.792969 12.664062 L 13.667969 12.667969 L 11.332031 12.667969 C 10.980469 12.667969 10.6875 12.390625 10.667969 12.039062 C 10.648438 11.6875 10.90625 11.378906 11.253906 11.339844 L 11.332031 11.332031 L 13.722656 11.332031 C 14.21875 11.304688 14.621094 10.917969 14.664062 10.421875 C 14.710938 9.929688 14.382812 9.476562 13.902344 9.359375 L 13.8125 9.34375 L 12.632812 9.175781 L 12.667969 7.984375 L 12.664062 7.867188 C 12.59375 6.5 11.5 5.40625 10.132812 5.335938 L 10 5.332031 C 9.820312 5.332031 9.644531 5.351562 9.476562 5.382812 L 9.332031 5.417969 L 9.332031 12 C 9.332031 12.339844 9.082031 12.621094 8.746094 12.660156 L 8.667969 12.667969 C 8.296875 12.667969 8 12.367188 8 12 L 8 4.535156 C 8.605469 4.183594 9.296875 4 10 4 Z M 0.667969 8 C 1.035156 8 1.332031 8.296875 1.332031 8.667969 L 1.332031 11.332031 C 1.332031 11.703125 1.035156 12 0.667969 12 C 0.296875 12 0 11.703125 0 11.332031 L 0 8.667969 C 0 8.296875 0.296875 8 0.667969 8 Z M 0.667969 8 "/>
</g>
</svg>
