<?xml version="1.0" encoding="UTF-8"?>
<svg xmlns="http://www.w3.org/2000/svg" xmlns:xlink="http://www.w3.org/1999/xlink" width="16" height="16" viewBox="0 0 16 16" version="1.1">
<g id="surface1">
<path style=" stroke:none;fill-rule:nonzero;fill:rgb(0%,0%,0%);fill-opacity:1;" d="M 14 2 C 14.367188 2 14.667969 2.296875 14.667969 2.667969 L 14.667969 13.332031 C 14.667969 13.703125 14.367188 14 14 14 L 2 14 C 1.632812 14 1.332031 13.703125 1.332031 13.332031 L 1.332031 2.667969 C 1.332031 2.296875 1.632812 2 2 2 Z M 11.195312 3.746094 C 10.519531 3.746094 9.953125 4.199219 9.773438 4.8125 L 8.441406 4.8125 L 6.800781 7.605469 L 5.84375 7.605469 C 5.664062 6.988281 5.09375 6.539062 4.421875 6.539062 C 3.601562 6.539062 2.9375 7.199219 2.9375 8.015625 C 2.9375 8.835938 3.601562 9.5 4.421875 9.5 C 5.09375 9.5 5.664062 9.046875 5.84375 8.433594 L 6.824219 8.433594 L 8.433594 11.1875 L 9.78125 11.1875 C 9.957031 11.804688 10.527344 12.253906 11.199219 12.253906 C 12.019531 12.253906 12.683594 11.589844 12.683594 10.773438 C 12.683594 9.957031 12.019531 9.292969 11.199219 9.292969 C 10.527344 9.292969 9.957031 9.742188 9.78125 10.359375 L 8.902344 10.359375 L 7.53125 8 L 8.898438 5.644531 L 9.773438 5.644531 C 9.953125 6.257812 10.519531 6.710938 11.195312 6.710938 C 12.011719 6.710938 12.675781 6.046875 12.675781 5.230469 C 12.675781 4.410156 12.011719 3.746094 11.195312 3.746094 Z M 11.203125 10.03125 C 11.632812 10.03125 11.980469 10.382812 11.980469 10.8125 C 11.980469 11.238281 11.632812 11.589844 11.203125 11.589844 C 10.824219 11.589844 10.511719 11.320312 10.4375 10.960938 C 10.4375 10.960938 10.417969 10.8125 10.4375 10.660156 C 10.511719 10.300781 10.824219 10.03125 11.203125 10.03125 Z M 4.433594 7.226562 C 4.863281 7.226562 5.210938 7.574219 5.210938 8.003906 C 5.210938 8.433594 4.863281 8.78125 4.433594 8.78125 C 4.003906 8.78125 3.65625 8.433594 3.65625 8.003906 C 3.65625 7.574219 4.003906 7.226562 4.433594 7.226562 Z M 11.199219 4.417969 C 11.628906 4.417969 11.980469 4.769531 11.980469 5.199219 C 11.980469 5.625 11.628906 5.976562 11.199219 5.976562 C 10.824219 5.976562 10.507812 5.707031 10.4375 5.347656 C 10.421875 5.210938 10.4375 5.050781 10.4375 5.050781 C 10.507812 4.6875 10.824219 4.417969 11.199219 4.417969 Z M 11.199219 4.417969 "/>
</g>
</svg>
