<?xml version="1.0" encoding="UTF-8"?>
<svg xmlns="http://www.w3.org/2000/svg" xmlns:xlink="http://www.w3.org/1999/xlink" width="16" height="16" viewBox="0 0 16 16" version="1.1">
<g id="surface1">
<path style=" stroke:none;fill-rule:nonzero;fill:rgb(0%,0%,0%);fill-opacity:1;" d="M 4.226562 9.332031 C 3.648438 7.691406 4.195312 5.859375 5.585938 4.808594 C 6.976562 3.757812 8.882812 3.726562 10.308594 4.734375 C 11.730469 5.738281 12.339844 7.550781 11.8125 9.210938 C 11.285156 10.871094 9.742188 12 8 12 L 8 9.332031 Z M 4 13.332031 L 10 13.332031 L 10 14.667969 L 4 14.667969 Z M 0.667969 7.332031 L 2.667969 7.332031 L 2.667969 8.667969 L 0.667969 8.667969 Z M 1.332031 10.667969 L 6.667969 10.667969 L 6.667969 12 L 1.332031 12 Z M 7.332031 0.667969 L 8.667969 0.667969 L 8.667969 2.667969 L 7.332031 2.667969 Z M 2.34375 3.285156 L 3.285156 2.34375 L 4.699219 3.757812 L 3.757812 4.699219 Z M 11.300781 12.242188 L 12.242188 11.300781 L 13.65625 12.714844 L 12.714844 13.65625 Z M 12.714844 2.34375 L 13.65625 3.285156 L 12.242188 4.699219 L 11.300781 3.757812 Z M 15.332031 7.332031 L 15.332031 8.667969 L 13.332031 8.667969 L 13.332031 7.332031 Z M 15.332031 7.332031 "/>
</g>
</svg>
