<?xml version="1.0" encoding="UTF-8"?>
<svg xmlns="http://www.w3.org/2000/svg" xmlns:xlink="http://www.w3.org/1999/xlink" width="16" height="16" viewBox="0 0 16 16" version="1.1">
<g id="surface1">
<path style=" stroke:none;fill-rule:nonzero;fill:rgb(0%,0%,0%);fill-opacity:1;" d="M 3.730469 3.332031 L 7 7.285156 L 10.269531 3.332031 L 12 3.332031 L 7.867188 8.332031 L 12 13.328125 L 12 13.332031 L 10.273438 13.332031 L 7 9.378906 L 3.726562 13.332031 L 2 13.332031 L 2 13.328125 L 6.132812 8.332031 L 2 3.332031 Z M 14.367188 4.386719 C 14.554688 4.207031 14.585938 3.914062 14.441406 3.699219 C 14.292969 3.484375 14.007812 3.40625 13.773438 3.515625 C 13.535156 3.628906 13.414062 3.894531 13.488281 4.148438 L 12.714844 4.367188 C 12.601562 3.964844 12.683594 3.53125 12.933594 3.195312 C 13.1875 2.863281 13.582031 2.667969 14 2.667969 C 14.546875 2.667969 15.035156 3 15.238281 3.507812 C 15.441406 4.015625 15.3125 4.59375 14.914062 4.96875 L 13.828125 6 L 15.332031 6 L 15.332031 6.667969 L 12.667969 6.667969 L 12.667969 6 Z M 14.367188 4.386719 "/>
</g>
</svg>
