<?xml version="1.0" encoding="UTF-8"?>
<svg xmlns="http://www.w3.org/2000/svg" xmlns:xlink="http://www.w3.org/1999/xlink" width="16" height="16" viewBox="0 0 16 16" version="1.1">
<g id="surface1">
<path style=" stroke:none;fill-rule:evenodd;fill:rgb(0%,0%,0%);fill-opacity:1;" d="M 5 0 L 5 2.316406 L 3.359375 0.648438 L 2.640625 1.351562 L 5 3.746094 L 5 5 L 3.746094 5 L 1.351562 2.640625 L 0.648438 3.359375 L 2.316406 5 L 0 5 L 0 6 L 2.371094 6 L 0.65625 7.640625 L 1.34375 8.363281 L 3.8125 6 L 5 6 L 5 7.253906 L 2.640625 9.648438 L 3.359375 10.351562 L 5 8.683594 L 5 11 L 6 11 L 6 8.628906 L 7.640625 10.34375 L 8.363281 9.65625 L 6 7.1875 L 6 6 L 7.1875 6 L 9.65625 8.363281 L 10.34375 7.640625 L 8.628906 6 L 11 6 L 11 5 L 8.683594 5 L 10.351562 3.359375 L 9.648438 2.640625 L 7.253906 5 L 6 5 L 6 3.8125 L 8.363281 1.34375 L 7.640625 0.65625 L 6 2.371094 L 6 0 Z M 11 0 C 10.355469 0 9.789062 0.308594 9.421875 0.78125 L 10.148438 1.507812 C 10.320312 1.210938 10.628906 1 11 1 L 12 1 C 12.554688 1 13 1.445312 13 2 L 13 8.335938 C 14.21875 8.917969 15 10.148438 15 11.5 C 15 13.433594 13.433594 15 11.5 15 C 9.566406 15 8 13.433594 8 11.5 C 8 11.175781 8.046875 10.859375 8.132812 10.554688 L 7.023438 11.742188 C 7.148438 14.109375 9.097656 16 11.5 16 C 13.984375 16 16 13.984375 16 11.5 C 16 9.996094 15.25 8.59375 14 7.757812 L 14 2 C 14 0.890625 13.109375 0 12 0 Z M 11 8 L 11 9.054688 C 9.835938 9.289062 9 10.3125 9 11.5 C 9 12.882812 10.117188 14 11.5 14 C 12.882812 14 14 12.882812 14 11.5 C 14 10.3125 13.164062 9.289062 12 9.050781 L 12 8 Z M 11 8 "/>
</g>
</svg>
