<?xml version="1.0" encoding="UTF-8"?>
<svg xmlns="http://www.w3.org/2000/svg" xmlns:xlink="http://www.w3.org/1999/xlink" width="16" height="16" viewBox="0 0 16 16" version="1.1">
<g id="surface1">
<path style=" stroke:none;fill-rule:nonzero;fill:rgb(0%,0%,0%);fill-opacity:1;" d="M 8 0 C 11.351562 0 13.027344 2.667969 13.027344 8.007812 C 13.027344 13.335938 11.351562 16 8 16 C 6.445312 16 5.214844 15.398438 4.3125 14.195312 C 3.421875 12.984375 2.972656 10.90625 2.972656 7.960938 C 2.972656 2.65625 4.648438 0 8 0 Z M 9.964844 6.769531 C 9.90625 5.007812 9.714844 3.84375 9.382812 3.273438 C 9.0625 2.703125 8.597656 2.417969 8 2.417969 C 7.40625 2.417969 6.945312 2.707031 6.617188 3.285156 C 6.285156 3.855469 6.09375 5.015625 6.046875 6.769531 Z M 9.964844 9.230469 L 6.046875 9.230469 C 6.09375 10.992188 6.28125 12.15625 6.605469 12.726562 C 6.9375 13.296875 7.402344 13.582031 8 13.582031 C 8.597656 13.582031 9.0625 13.296875 9.382812 12.726562 C 9.714844 12.148438 9.90625 10.984375 9.964844 9.230469 Z M 9.964844 9.230469 "/>
</g>
</svg>
