<?xml version="1.0" encoding="UTF-8"?>
<svg xmlns="http://www.w3.org/2000/svg" xmlns:xlink="http://www.w3.org/1999/xlink" width="16" height="16" viewBox="0 0 16 16" version="1.1">
<g id="surface1">
<path style=" stroke:none;fill-rule:nonzero;fill:rgb(0%,0%,0%);fill-opacity:1;" d="M 11.332031 12 L 11.332031 10.667969 L 11.667969 10.667969 C 12.726562 10.667969 13.652344 9.953125 13.921875 8.929688 C 14.191406 7.90625 13.738281 6.828125 12.820312 6.304688 C 11.898438 5.78125 10.742188 5.945312 10 6.699219 L 10 6.667969 C 10 4.632812 8.472656 2.921875 6.453125 2.695312 C 4.429688 2.464844 2.558594 3.789062 2.101562 5.769531 C 1.644531 7.753906 2.75 9.761719 4.667969 10.4375 L 4.667969 11.832031 C 2.226562 11.199219 0.5625 8.945312 0.675781 6.429688 C 0.789062 3.910156 2.648438 1.816406 5.136719 1.40625 C 7.621094 0.996094 10.058594 2.382812 10.972656 4.730469 C 12.339844 4.46875 13.738281 5.003906 14.578125 6.113281 C 15.421875 7.222656 15.566406 8.710938 14.949219 9.960938 C 14.328125 11.207031 13.058594 11.996094 11.667969 12 Z M 8.667969 10.671875 L 10.667969 10.671875 L 7.332031 15.003906 L 7.332031 12.003906 L 5.332031 12.003906 L 8.667969 7.667969 Z M 8.667969 10.671875 "/>
</g>
</svg>
