<?xml version="1.0" encoding="UTF-8"?>
<svg xmlns="http://www.w3.org/2000/svg" xmlns:xlink="http://www.w3.org/1999/xlink" width="16" height="16" viewBox="0 0 16 16" version="1.1">
<g id="surface1">
<path style=" stroke:none;fill-rule:evenodd;fill:rgb(0%,0%,0%);fill-opacity:1;" d="M 6.265625 0 C 5.011719 0 4 1.007812 4 2.265625 L 4 13.734375 C 4 14.992188 5.011719 16 6.265625 16 L 9.734375 16 C 10.992188 16 12 14.992188 12 13.734375 L 12 2.265625 C 12 1.007812 10.992188 0 9.734375 0 Z M 7.953125 1 C 7.96875 1 7.984375 1 8 1 C 9.105469 1 10 1.894531 10 3 C 10 4.105469 9.105469 5 8 5 C 6.894531 5 6 4.105469 6 3 C 6 1.914062 6.867188 1.027344 7.953125 1 Z M 7.953125 6 C 7.96875 6 7.984375 6 8 6 C 9.105469 6 10 6.894531 10 8 C 10 9.105469 9.105469 10 8 10 C 6.894531 10 6 9.105469 6 8 C 6 6.914062 6.867188 6.027344 7.953125 6 Z M 7.953125 11 C 7.96875 11 7.984375 11 8 11 C 9.105469 11 10 11.894531 10 13 C 10 14.105469 9.105469 15 8 15 C 6.894531 15 6 14.105469 6 13 C 6 11.914062 6.867188 11.027344 7.953125 11 Z M 7.953125 11 "/>
</g>
</svg>
