<?xml version="1.0" encoding="UTF-8"?>
<svg xmlns="http://www.w3.org/2000/svg" xmlns:xlink="http://www.w3.org/1999/xlink" width="16" height="16" viewBox="0 0 16 16" version="1.1">
<g id="surface1">
<path style=" stroke:none;fill-rule:nonzero;fill:rgb(0%,0%,0%);fill-opacity:1;" d="M 3.5 2 L 12.5 2 C 13.328125 2 14 2.671875 14 3.5 L 14 12.5 C 14 13.328125 13.328125 14 12.5 14 L 3.5 14 C 2.671875 14 2 13.328125 2 12.5 L 2 3.5 C 2 2.671875 2.671875 2 3.5 2 Z M 8.78125 4.28125 L 8.78125 8.121094 C 8.78125 8.515625 9.101562 8.839844 9.5 8.839844 L 11.71875 8.839844 C 12.117188 8.839844 12.441406 8.519531 12.441406 8.121094 L 12.441406 4.28125 C 12.441406 3.882812 12.117188 3.558594 11.71875 3.558594 L 9.5 3.558594 C 9.101562 3.558594 8.78125 3.882812 8.78125 4.28125 Z M 3.558594 4.28125 L 3.558594 11.121094 C 3.558594 11.515625 3.882812 11.839844 4.28125 11.839844 L 6.5 11.839844 C 6.898438 11.839844 7.21875 11.519531 7.21875 11.121094 L 7.21875 4.28125 C 7.21875 3.882812 6.898438 3.558594 6.5 3.558594 L 4.28125 3.558594 C 3.882812 3.558594 3.558594 3.882812 3.558594 4.28125 Z M 3.558594 4.28125 "/>
</g>
</svg>
