<?xml version="1.0" encoding="UTF-8"?>
<svg xmlns="http://www.w3.org/2000/svg" xmlns:xlink="http://www.w3.org/1999/xlink" width="16" height="16" viewBox="0 0 16 16" version="1.1">
<g id="surface1">
<path style=" stroke:none;fill-rule:nonzero;fill:rgb(0%,0%,0%);fill-opacity:1;" d="M 2.667969 8 L 13.332031 8 C 13.703125 8 14 8.296875 14 8.667969 L 14 14 C 14 14.367188 13.703125 14.667969 13.332031 14.667969 L 2.667969 14.667969 C 2.296875 14.667969 2 14.367188 2 14 L 2 8.667969 C 2 8.296875 2.296875 8 2.667969 8 Z M 3.332031 1.332031 L 12.667969 1.332031 L 12.667969 6.667969 L 3.332031 6.667969 Z M 6 3.332031 L 6 4.667969 L 7.332031 4.667969 L 7.332031 3.332031 Z M 8.667969 3.332031 L 8.667969 4.667969 L 10 4.667969 L 10 3.332031 Z M 8.667969 3.332031 "/>
</g>
</svg>
