<?xml version="1.0" encoding="UTF-8"?>
<svg xmlns="http://www.w3.org/2000/svg" xmlns:xlink="http://www.w3.org/1999/xlink" width="16" height="16" viewBox="0 0 16 16" version="1.1">
<g id="surface1">
<path style=" stroke:none;fill-rule:nonzero;fill:rgb(0%,0%,0%);fill-opacity:1;" d="M 5.777344 12.847656 L 6.449219 11.6875 C 7.601562 12.171875 8.917969 12.089844 10 11.464844 C 11.085938 10.839844 11.8125 9.742188 11.96875 8.5 L 13.3125 8.5 C 13.238281 9.265625 13.003906 10.003906 12.617188 10.667969 C 12.359375 11.121094 12.03125 11.53125 11.652344 11.890625 C 11.210938 11.753906 10.734375 11.808594 10.332031 12.042969 C 9.933594 12.269531 9.648438 12.65625 9.542969 13.105469 C 8.300781 13.484375 6.960938 13.390625 5.777344 12.847656 Z M 4.910156 12.347656 C 3.851562 11.597656 3.101562 10.480469 2.808594 9.214844 C 3.128906 8.910156 3.332031 8.480469 3.332031 8 C 3.332031 7.519531 3.128906 7.085938 2.804688 6.785156 C 2.925781 6.273438 3.121094 5.785156 3.382812 5.332031 C 3.765625 4.667969 4.285156 4.09375 4.910156 3.652344 L 5.582031 4.8125 C 4.585938 5.570312 4 6.746094 4 8 C 4 9.25 4.585938 10.429688 5.582031 11.1875 Z M 5.777344 3.152344 C 6.960938 2.609375 8.296875 2.519531 9.542969 2.894531 C 9.644531 3.328125 9.917969 3.71875 10.332031 3.957031 C 10.75 4.199219 11.226562 4.238281 11.652344 4.109375 C 12.597656 5 13.1875 6.207031 13.3125 7.5 L 11.96875 7.5 C 11.8125 6.257812 11.085938 5.160156 10 4.535156 C 8.917969 3.910156 7.601562 3.828125 6.449219 4.3125 Z M 10.667969 3.382812 C 10.355469 3.203125 10.160156 2.875 10.160156 2.515625 C 10.160156 2.15625 10.351562 1.824219 10.664062 1.644531 C 10.972656 1.464844 11.355469 1.46875 11.667969 1.648438 C 12.140625 1.925781 12.300781 2.535156 12.027344 3.011719 C 11.753906 3.488281 11.144531 3.652344 10.667969 3.382812 Z M 2.667969 8 C 2.667969 8.550781 2.21875 9 1.667969 9 C 1.113281 9 0.667969 8.550781 0.667969 8 C 0.667969 7.449219 1.113281 7 1.667969 7 C 2.21875 7 2.667969 7.449219 2.667969 8 Z M 10.667969 12.617188 C 10.976562 12.4375 11.359375 12.433594 11.671875 12.613281 C 11.980469 12.792969 12.171875 13.125 12.171875 13.484375 C 12.171875 13.84375 11.980469 14.171875 11.667969 14.351562 C 11.1875 14.621094 10.582031 14.457031 10.304688 13.980469 C 10.03125 13.503906 10.191406 12.898438 10.667969 12.617188 Z M 10.667969 12.617188 "/>
</g>
</svg>
