<?xml version="1.0" encoding="UTF-8"?>
<svg xmlns="http://www.w3.org/2000/svg" xmlns:xlink="http://www.w3.org/1999/xlink" width="16" height="16" viewBox="0 0 16 16" version="1.1">
<g id="surface1">
<path style=" stroke:none;fill-rule:nonzero;fill:rgb(0%,0%,0%);fill-opacity:1;" d="M 8.667969 9.375 L 8.667969 14.667969 L 2.667969 14.667969 C 2.667969 13.136719 3.324219 11.679688 4.472656 10.667969 C 5.621094 9.652344 7.148438 9.183594 8.667969 9.375 Z M 8 8.667969 C 5.789062 8.667969 4 6.875 4 4.667969 C 4 2.457031 5.789062 0.667969 8 0.667969 C 10.210938 0.667969 12 2.457031 12 4.667969 C 12 6.875 10.210938 8.667969 8 8.667969 Z M 11.863281 13.277344 L 14.21875 10.917969 L 15.160156 11.863281 L 11.863281 15.160156 L 9.503906 12.804688 L 10.449219 11.863281 Z M 11.863281 13.277344 "/>
</g>
</svg>
