<?xml version="1.0" encoding="UTF-8"?>
<svg xmlns="http://www.w3.org/2000/svg" xmlns:xlink="http://www.w3.org/1999/xlink" width="16" height="16" viewBox="0 0 16 16" version="1.1">
<g id="surface1">
<path style=" stroke:none;fill-rule:nonzero;fill:rgb(0%,0%,0%);fill-opacity:1;" d="M 7.96875 1 C 5.785156 1.035156 4.03125 2.816406 4.03125 5 C 4.03125 7.210938 5.820312 9 8.03125 9 C 10.242188 9 12.03125 7.210938 12.03125 5 C 12.03125 2.792969 10.242188 1 8.03125 1 C 8.007812 1 7.992188 1 7.96875 1 Z M 4.023438 9.46875 C 3.144531 9.46875 2.414062 9.8125 1.867188 10.304688 C 1.320312 10.792969 0.945312 11.414062 0.679688 12.015625 C 0.148438 13.226562 0.03125 14.414062 0.03125 14.414062 L -0.0273438 15 L 8.8125 15 L 8.230469 13.988281 C 7.957031 13.515625 8.117188 12.90625 8.59375 12.632812 L 8.8125 12.5 L 8.59375 12.371094 C 8.117188 12.09375 7.957031 11.488281 8.230469 11.015625 L 8.242188 11 C 8.171875 11 8.101562 11 8.03125 11 C 6.550781 11 5.125 10.453125 4.023438 9.46875 Z M 4.023438 9.46875 "/>
<path style=" stroke:none;fill-rule:nonzero;fill:rgb(0%,0%,0%);fill-opacity:1;" d="M 11.6875 9 L 11.6875 10.257812 C 11.660156 10.269531 11.632812 10.28125 11.609375 10.289062 C 11.601562 10.292969 11.601562 10.292969 11.59375 10.296875 C 11.578125 10.304688 11.558594 10.3125 11.539062 10.320312 C 11.535156 10.320312 11.53125 10.324219 11.527344 10.328125 C 11.503906 10.335938 11.484375 10.347656 11.460938 10.359375 C 11.445312 10.367188 11.429688 10.375 11.414062 10.382812 C 11.402344 10.390625 11.390625 10.398438 11.378906 10.402344 C 11.375 10.40625 11.375 10.40625 11.375 10.40625 C 11.351562 10.417969 11.332031 10.429688 11.3125 10.441406 C 11.289062 10.453125 11.273438 10.46875 11.25 10.480469 C 11.246094 10.484375 11.238281 10.488281 11.234375 10.492188 C 11.230469 10.492188 11.226562 10.496094 11.226562 10.496094 C 11.207031 10.507812 11.1875 10.523438 11.167969 10.539062 C 11.128906 10.5625 11.09375 10.59375 11.054688 10.621094 L 9.96875 9.992188 L 9.09375 11.507812 L 10.179688 12.140625 C 10.179688 12.164062 10.171875 12.195312 10.171875 12.21875 L 10.171875 12.226562 C 10.167969 12.25 10.164062 12.273438 10.164062 12.296875 C 10.164062 12.304688 10.164062 12.3125 10.160156 12.324219 C 10.15625 12.34375 10.15625 12.367188 10.15625 12.382812 C 10.15625 12.390625 10.15625 12.394531 10.15625 12.398438 C 10.15625 12.421875 10.15625 12.441406 10.15625 12.460938 C 10.15625 12.476562 10.15625 12.488281 10.15625 12.5 C 10.15625 12.5 10.15625 12.503906 10.15625 12.507812 C 10.15625 12.523438 10.15625 12.539062 10.15625 12.554688 C 10.15625 12.570312 10.15625 12.582031 10.15625 12.597656 C 10.15625 12.601562 10.15625 12.601562 10.15625 12.601562 C 10.15625 12.625 10.15625 12.648438 10.160156 12.671875 C 10.164062 12.703125 10.164062 12.730469 10.167969 12.757812 C 10.171875 12.792969 10.175781 12.828125 10.179688 12.859375 L 9.09375 13.492188 L 9.96875 15.007812 L 11.054688 14.378906 C 11.0625 14.382812 11.066406 14.386719 11.070312 14.390625 C 11.089844 14.40625 11.109375 14.417969 11.125 14.429688 C 11.132812 14.4375 11.132812 14.4375 11.140625 14.441406 C 11.15625 14.453125 11.175781 14.46875 11.195312 14.484375 C 11.242188 14.515625 11.289062 14.546875 11.339844 14.574219 C 11.34375 14.578125 11.351562 14.578125 11.359375 14.585938 C 11.425781 14.625 11.5 14.660156 11.570312 14.695312 C 11.609375 14.710938 11.648438 14.726562 11.683594 14.742188 L 11.6875 14.742188 L 11.6875 16 L 13.4375 16 L 13.4375 14.742188 C 13.460938 14.730469 13.488281 14.71875 13.515625 14.710938 C 13.535156 14.699219 13.558594 14.6875 13.578125 14.679688 C 13.585938 14.679688 13.585938 14.675781 13.59375 14.671875 C 13.617188 14.664062 13.636719 14.652344 13.65625 14.640625 C 13.664062 14.640625 13.664062 14.636719 13.671875 14.632812 C 13.679688 14.632812 13.6875 14.625 13.695312 14.625 C 13.710938 14.613281 13.726562 14.601562 13.746094 14.59375 C 13.773438 14.578125 13.796875 14.5625 13.820312 14.546875 C 13.84375 14.53125 13.867188 14.519531 13.890625 14.5 C 13.914062 14.484375 13.9375 14.46875 13.960938 14.453125 C 13.984375 14.4375 14 14.425781 14.023438 14.414062 C 14.023438 14.40625 14.03125 14.40625 14.03125 14.402344 C 14.042969 14.394531 14.054688 14.386719 14.0625 14.378906 L 15.152344 15.007812 L 16.027344 13.492188 L 14.9375 12.863281 C 14.9375 12.851562 14.941406 12.84375 14.945312 12.832031 C 14.945312 12.828125 14.945312 12.828125 14.945312 12.828125 C 14.945312 12.816406 14.945312 12.804688 14.945312 12.796875 C 14.949219 12.789062 14.949219 12.78125 14.953125 12.773438 C 14.953125 12.75 14.953125 12.734375 14.957031 12.710938 C 14.957031 12.707031 14.957031 12.703125 14.957031 12.703125 C 14.960938 12.679688 14.960938 12.65625 14.960938 12.632812 C 14.960938 12.625 14.960938 12.625 14.960938 12.625 C 14.960938 12.605469 14.964844 12.585938 14.964844 12.570312 C 14.964844 12.5625 14.964844 12.558594 14.964844 12.554688 C 14.964844 12.539062 14.96875 12.515625 14.96875 12.5 C 14.96875 12.5 14.96875 12.496094 14.96875 12.492188 C 14.96875 12.492188 14.96875 12.484375 14.96875 12.484375 C 14.96875 12.460938 14.964844 12.4375 14.964844 12.414062 C 14.964844 12.40625 14.964844 12.402344 14.960938 12.398438 C 14.960938 12.375 14.960938 12.351562 14.960938 12.328125 C 14.957031 12.296875 14.953125 12.269531 14.953125 12.242188 C 14.945312 12.207031 14.945312 12.171875 14.9375 12.140625 L 16.027344 11.507812 L 15.152344 9.992188 L 14.0625 10.621094 C 14.039062 10.601562 14.015625 10.585938 13.992188 10.570312 C 13.992188 10.5625 13.984375 10.5625 13.980469 10.558594 C 13.960938 10.546875 13.945312 10.53125 13.921875 10.515625 C 13.875 10.484375 13.828125 10.453125 13.78125 10.425781 C 13.773438 10.421875 13.765625 10.421875 13.765625 10.414062 C 13.695312 10.375 13.625 10.339844 13.546875 10.304688 C 13.511719 10.289062 13.476562 10.273438 13.4375 10.257812 L 13.4375 9 Z M 12.5625 11.40625 C 13.164062 11.40625 13.65625 11.898438 13.65625 12.5 C 13.65625 13.101562 13.164062 13.59375 12.5625 13.59375 C 11.953125 13.59375 11.46875 13.101562 11.46875 12.5 C 11.46875 11.898438 11.953125 11.40625 12.5625 11.40625 Z M 12.5625 11.40625 "/>
</g>
</svg>
