<?xml version="1.0" encoding="UTF-8"?>
<svg xmlns="http://www.w3.org/2000/svg" xmlns:xlink="http://www.w3.org/1999/xlink" width="16" height="16" viewBox="0 0 16 16" version="1.1">
<g id="surface1">
<path style=" stroke:none;fill-rule:nonzero;fill:rgb(0%,0%,0%);fill-opacity:1;" d="M 7.96875 1 C 5.78125 1.035156 4.03125 2.816406 4.03125 5 C 4.03125 7.210938 5.820312 9 8.03125 9 C 10.238281 9 12.03125 7.210938 12.03125 5 C 12.03125 2.792969 10.238281 1 8.03125 1 C 8.007812 1 7.988281 1 7.96875 1 Z M 13.273438 8 L 13.273438 9.082031 C 13.09375 9.113281 12.929688 9.164062 12.78125 9.226562 C 12.492188 9.355469 12.265625 9.546875 12.101562 9.796875 C 11.945312 10.046875 11.863281 10.328125 11.863281 10.640625 C 11.863281 10.90625 11.925781 11.15625 12.050781 11.390625 C 12.179688 11.625 12.351562 11.8125 12.5625 11.953125 C 12.78125 12.097656 13.117188 12.230469 13.578125 12.351562 C 14.09375 12.492188 14.414062 12.589844 14.550781 12.648438 C 14.6875 12.707031 14.78125 12.78125 14.851562 12.875 C 14.914062 12.964844 14.945312 13.074219 14.945312 13.203125 C 14.945312 13.425781 14.851562 13.613281 14.664062 13.765625 C 14.476562 13.914062 14.222656 13.984375 13.894531 13.984375 C 13.234375 13.984375 12.84375 13.621094 12.726562 12.890625 L 11.664062 13 C 11.789062 14.09375 12.332031 14.726562 13.273438 14.90625 L 13.273438 16 L 14.421875 16 L 14.421875 14.921875 C 14.882812 14.855469 15.25 14.703125 15.5 14.453125 C 15.851562 14.117188 16.027344 13.699219 16.027344 13.203125 C 16.027344 12.859375 15.964844 12.566406 15.835938 12.328125 C 15.707031 12.085938 15.523438 11.886719 15.28125 11.734375 C 15.039062 11.582031 14.644531 11.4375 14.101562 11.296875 C 13.585938 11.171875 13.257812 11.054688 13.113281 10.945312 C 12.96875 10.839844 12.898438 10.710938 12.898438 10.554688 C 12.898438 10.394531 12.976562 10.261719 13.132812 10.15625 C 13.292969 10.046875 13.519531 9.992188 13.8125 9.992188 C 14.101562 9.992188 14.328125 10.054688 14.484375 10.179688 C 14.640625 10.300781 14.742188 10.515625 14.789062 10.820312 L 15.875 10.773438 C 15.855469 10.214844 15.667969 9.785156 15.3125 9.484375 C 15.078125 9.289062 14.777344 9.160156 14.421875 9.09375 L 14.421875 8 Z M 4.023438 9.46875 C 3.144531 9.46875 2.410156 9.8125 1.867188 10.304688 C 1.320312 10.792969 0.945312 11.414062 0.679688 12.015625 C 0.148438 13.226562 0.03125 14.414062 0.03125 14.414062 L -0.03125 15 L 11.464844 15 C 11.445312 14.976562 11.421875 14.964844 11.402344 14.945312 C 10.976562 14.4375 10.75 13.796875 10.671875 13.109375 L 10.558594 12.109375 L 11.3125 12.03125 C 11.273438 11.96875 11.207031 11.9375 11.171875 11.875 L 11.171875 11.867188 L 11.167969 11.867188 C 10.96875 11.492188 10.863281 11.0625 10.863281 10.636719 C 10.863281 10.515625 10.871094 10.398438 10.890625 10.273438 C 10.011719 10.75 9.027344 11 8.03125 11 C 6.550781 11 5.125 10.453125 4.023438 9.46875 Z M 4.023438 9.46875 "/>
</g>
</svg>
