<?xml version="1.0" encoding="UTF-8"?>
<svg xmlns="http://www.w3.org/2000/svg" xmlns:xlink="http://www.w3.org/1999/xlink" width="16" height="16" viewBox="0 0 16 16" version="1.1">
<g id="surface1">
<path style=" stroke:none;fill-rule:nonzero;fill:rgb(0%,0%,0%);fill-opacity:1;" d="M 8 11.332031 C 10.441406 11.332031 12.578125 12.382812 13.738281 13.949219 L 12.511719 14.53125 C 11.566406 13.410156 9.898438 12.667969 8 12.667969 C 6.101562 12.667969 4.433594 13.410156 3.488281 14.53125 L 2.261719 13.949219 C 3.425781 12.382812 5.558594 11.332031 8 11.332031 Z M 8 1.332031 C 9.839844 1.332031 11.332031 2.824219 11.332031 4.667969 L 11.332031 6.667969 C 11.332031 8.453125 9.925781 9.917969 8.144531 9.996094 L 8 10 C 6.160156 10 4.667969 8.507812 4.667969 6.667969 L 4.667969 4.667969 C 4.667969 2.882812 6.074219 1.414062 7.855469 1.335938 Z M 8 2.667969 C 6.941406 2.667969 6.066406 3.492188 6.003906 4.550781 L 6 4.667969 L 6 6.667969 C 6 7.75 6.859375 8.636719 7.941406 8.667969 C 9.023438 8.699219 9.933594 7.863281 9.996094 6.785156 L 10 6.667969 L 10 4.667969 C 10 3.5625 9.105469 2.667969 8 2.667969 Z M 8 2.667969 "/>
</g>
</svg>
