<?xml version="1.0" encoding="UTF-8"?>
<svg xmlns="http://www.w3.org/2000/svg" xmlns:xlink="http://www.w3.org/1999/xlink" width="16" height="16" viewBox="0 0 16 16" version="1.1">
<g id="surface1">
<path style=" stroke:none;fill-rule:nonzero;fill:rgb(0%,0%,0%);fill-opacity:1;" d="M 1.332031 12.667969 L 14.667969 12.667969 L 14.667969 14 L 1.332031 14 Z M 7.332031 5.332031 L 8.667969 5.332031 L 8.667969 10.667969 L 7.332031 10.667969 Z M 5.308594 5.332031 L 6.726562 5.332031 L 4.734375 10.644531 L 3.402344 10.644531 L 1.410156 5.332031 L 2.828125 5.332031 L 4.070312 8.742188 Z M 11.332031 9.332031 L 11.332031 10.667969 L 10 10.667969 L 10 5.332031 L 12.667969 5.332031 C 13.769531 5.332031 14.667969 6.230469 14.667969 7.332031 C 14.667969 8.4375 13.769531 9.332031 12.667969 9.332031 Z M 11.332031 6.667969 L 11.332031 8 L 12.667969 8 C 13.035156 8 13.332031 7.703125 13.332031 7.332031 C 13.332031 6.964844 13.035156 6.667969 12.667969 6.667969 Z M 1.332031 2 L 14.667969 2 L 14.667969 3.332031 L 1.332031 3.332031 Z M 1.332031 2 "/>
</g>
</svg>
