<?xml version="1.0" encoding="UTF-8"?>
<svg xmlns="http://www.w3.org/2000/svg" xmlns:xlink="http://www.w3.org/1999/xlink" width="16" height="16" viewBox="0 0 16 16" version="1.1">
<g id="surface1">
<path style=" stroke:none;fill-rule:nonzero;fill:rgb(0%,0%,0%);fill-opacity:1;" d="M 2 2 L 14 2 C 14.367188 2 14.667969 2.296875 14.667969 2.667969 L 14.667969 13.332031 C 14.667969 13.703125 14.367188 14 14 14 L 2 14 C 1.632812 14 1.332031 13.703125 1.332031 13.332031 L 1.332031 2.667969 C 1.332031 2.296875 1.632812 2 2 2 Z M 7.332031 5.667969 L 7.332031 10.332031 L 8.667969 10.332031 L 8.667969 5.667969 Z M 7.144531 5.667969 L 5.734375 5.667969 L 4.734375 8.410156 L 3.738281 5.667969 L 2.328125 5.667969 L 4.070312 10.308594 L 5.402344 10.308594 Z M 10.667969 9 L 11.667969 9 C 12.585938 9 13.332031 8.253906 13.332031 7.332031 C 13.332031 6.414062 12.585938 5.667969 11.667969 5.667969 L 9.332031 5.667969 L 9.332031 10.332031 L 10.667969 10.332031 Z M 10.667969 7.667969 L 10.667969 7 L 11.667969 7 C 11.851562 7 12 7.148438 12 7.332031 C 12 7.515625 11.851562 7.667969 11.667969 7.667969 Z M 10.667969 7.667969 "/>
</g>
</svg>
