<?xml version="1.0" encoding="UTF-8"?>
<svg xmlns="http://www.w3.org/2000/svg" xmlns:xlink="http://www.w3.org/1999/xlink" width="16" height="16" viewBox="0 0 16 16" version="1.1">
<g id="surface1">
<path style=" stroke:none;fill-rule:nonzero;fill:rgb(0%,0%,0%);fill-opacity:1;" d="M 0.667969 2.667969 L 15.332031 2.667969 L 15.332031 4 L 0.667969 4 Z M 0.667969 12 L 15.332031 12 L 15.332031 13.332031 L 0.667969 13.332031 Z M 13.082031 9.941406 L 12.964844 9.363281 L 11.664062 9.363281 L 11.460938 9.9375 L 10.417969 9.941406 C 11.089844 8.335938 11.585938 7.148438 11.910156 6.375 C 11.992188 6.171875 12.144531 6.070312 12.367188 6.070312 C 12.535156 6.074219 12.8125 6.074219 13.195312 6.070312 L 14 9.941406 Z M 11.957031 8.566406 L 12.796875 8.566406 L 12.484375 7.113281 Z M 5.246094 6.070312 L 6.292969 6.070312 L 4.675781 9.941406 L 3.617188 9.941406 C 3.257812 8.5625 2.996094 7.539062 2.828125 6.871094 C 2.777344 6.667969 2.675781 6.523438 2.476562 6.457031 C 2.300781 6.398438 2.007812 6.304688 1.601562 6.179688 L 1.601562 6.070312 L 3.273438 6.070312 C 3.5625 6.070312 3.730469 6.210938 3.785156 6.496094 L 4.199219 8.691406 Z M 7.734375 6.070312 L 6.90625 9.941406 L 5.910156 9.941406 L 6.734375 6.070312 Z M 9.753906 6 C 10.050781 6 10.425781 6.09375 10.644531 6.179688 L 10.46875 6.980469 C 10.273438 6.902344 9.953125 6.796875 9.683594 6.800781 C 9.289062 6.808594 9.046875 6.972656 9.046875 7.128906 C 9.046875 7.386719 9.46875 7.515625 9.902344 7.796875 C 10.398438 8.117188 10.460938 8.402344 10.457031 8.714844 C 10.449219 9.363281 9.902344 10 8.746094 10 C 8.21875 9.992188 8.03125 9.949219 7.601562 9.796875 L 7.78125 8.957031 C 8.21875 9.140625 8.40625 9.199219 8.777344 9.199219 C 9.121094 9.199219 9.414062 9.0625 9.417969 8.820312 C 9.417969 8.648438 9.316406 8.566406 8.929688 8.351562 C 8.546875 8.140625 8.007812 7.847656 8.011719 7.257812 C 8.023438 6.507812 8.738281 6 9.753906 6 Z M 9.753906 6 "/>
</g>
</svg>
