<?xml version="1.0" encoding="UTF-8"?>
<svg xmlns="http://www.w3.org/2000/svg" xmlns:xlink="http://www.w3.org/1999/xlink" width="16" height="16" viewBox="0 0 16 16" version="1.1">
<g id="surface1">
<path style=" stroke:none;fill-rule:evenodd;fill:rgb(0%,0%,0%);fill-opacity:1;" d="M 4.464844 1 C 4.34375 1 4.226562 1.007812 4.109375 1.019531 C 2.367188 1.171875 0.871094 2.320312 0.273438 3.960938 C 0.0078125 4.695312 -0.0664062 5.484375 0.0625 6.25 L 4.210938 6.25 L 5.796875 3.5 C 5.898438 3.324219 6.085938 3.226562 6.28125 3.25 C 6.480469 3.269531 6.648438 3.40625 6.703125 3.59375 L 8.601562 9.433594 L 10.054688 6.523438 C 10.140625 6.359375 10.3125 6.253906 10.5 6.25 L 15.9375 6.25 C 16.070312 5.46875 15.992188 4.671875 15.71875 3.929688 C 15.101562 2.28125 13.578125 1.140625 11.820312 1.015625 C 10.351562 0.90625 8.925781 1.53125 8 2.675781 C 7.140625 1.609375 5.835938 0.992188 4.464844 1 Z M 6.109375 4.972656 L 4.933594 6.996094 C 4.84375 7.152344 4.679688 7.246094 4.5 7.246094 L 0.351562 7.246094 C 0.578125 7.78125 0.90625 8.269531 1.320312 8.679688 L 8 15 L 14.679688 8.679688 C 15.09375 8.269531 15.421875 7.78125 15.648438 7.246094 L 10.808594 7.246094 L 8.949219 10.96875 C 8.859375 11.148438 8.667969 11.257812 8.464844 11.242188 C 8.265625 11.226562 8.089844 11.09375 8.023438 10.898438 Z M 6.109375 4.972656 "/>
</g>
</svg>
