<?xml version="1.0" encoding="UTF-8"?>
<svg xmlns="http://www.w3.org/2000/svg" xmlns:xlink="http://www.w3.org/1999/xlink" width="16" height="16" viewBox="0 0 16 16" version="1.1">
<g id="surface1">
<path style=" stroke:none;fill-rule:nonzero;fill:rgb(0%,0%,0%);fill-opacity:1;" d="M 6.667969 4.8125 L 4.402344 6.667969 L 2 6.667969 L 2 9.332031 L 4.402344 9.332031 L 6.667969 11.1875 Z M 3.925781 10.667969 L 1.332031 10.667969 C 0.964844 10.667969 0.667969 10.367188 0.667969 10 L 0.667969 6 C 0.667969 5.632812 0.964844 5.332031 1.332031 5.332031 L 3.925781 5.332031 L 7.457031 2.445312 C 7.554688 2.363281 7.691406 2.347656 7.808594 2.402344 C 7.925781 2.457031 8 2.574219 8 2.703125 L 8 13.296875 C 8 13.425781 7.925781 13.542969 7.808594 13.597656 C 7.691406 13.652344 7.554688 13.636719 7.457031 13.554688 Z M 12.9375 13.421875 L 11.992188 12.480469 C 13.273438 11.339844 14.003906 9.710938 14 8 C 14 6.199219 13.191406 4.492188 11.796875 3.355469 L 12.742188 2.40625 C 14.386719 3.800781 15.335938 5.847656 15.332031 8 C 15.332031 10.148438 14.410156 12.082031 12.9375 13.421875 Z M 10.574219 11.0625 L 9.628906 10.113281 C 10.285156 9.609375 10.667969 8.828125 10.667969 8 C 10.667969 7.046875 10.167969 6.210938 9.414062 5.738281 L 10.371094 4.78125 C 11.398438 5.53125 12 6.730469 12 8 C 12 9.226562 11.445312 10.328125 10.574219 11.0625 Z M 10.574219 11.0625 "/>
</g>
</svg>
