<?xml version="1.0" encoding="UTF-8"?>
<svg xmlns="http://www.w3.org/2000/svg" xmlns:xlink="http://www.w3.org/1999/xlink" width="16" height="16" viewBox="0 0 16 16" version="1.1">
<g id="surface1">
<path style=" stroke:none;fill-rule:nonzero;fill:rgb(0%,0%,0%);fill-opacity:1;" d="M 3.925781 10.667969 L 1.332031 10.667969 C 0.964844 10.667969 0.667969 10.367188 0.667969 10 L 0.667969 6 C 0.667969 5.632812 0.964844 5.332031 1.332031 5.332031 L 3.925781 5.332031 L 7.457031 2.445312 C 7.554688 2.363281 7.691406 2.347656 7.808594 2.402344 C 7.925781 2.457031 8 2.574219 8 2.703125 L 8 13.296875 C 8 13.425781 7.925781 13.542969 7.808594 13.597656 C 7.691406 13.652344 7.554688 13.636719 7.457031 13.554688 Z M 13.609375 8 L 15.964844 10.355469 L 15.023438 11.300781 L 12.667969 8.941406 L 10.308594 11.300781 L 9.367188 10.355469 L 11.722656 8 L 9.367188 5.644531 L 10.308594 4.699219 L 12.667969 7.058594 L 15.023438 4.699219 L 15.964844 5.644531 Z M 13.609375 8 "/>
</g>
</svg>
