<?xml version="1.0" encoding="UTF-8"?>
<svg xmlns="http://www.w3.org/2000/svg" xmlns:xlink="http://www.w3.org/1999/xlink" width="16" height="16" viewBox="0 0 16 16" version="1.1">
<g id="surface1">
<path style=" stroke:none;fill-rule:nonzero;fill:rgb(0%,0%,0%);fill-opacity:1;" d="M 8.050781 0.734375 C 7.460938 0.734375 6.914062 1.101562 6.566406 1.679688 C 4.945312 4.390625 1.882812 9.695312 0.296875 12.53125 C -0.046875 13.15625 -0.09375 13.851562 0.210938 14.386719 C 0.519531 14.921875 1.140625 15.21875 1.859375 15.226562 C 4.96875 15.273438 10.714844 15.273438 13.96875 15.234375 C 14.757812 15.226562 15.4375 14.898438 15.773438 14.320312 C 16.105469 13.742188 16.054688 12.992188 15.667969 12.304688 C 14.050781 9.421875 11.101562 4.320312 9.527344 1.679688 C 9.179688 1.101562 8.640625 0.734375 8.050781 0.734375 Z M 7 5.265625 L 9 5.265625 L 9 10.265625 L 7 10.265625 Z M 7 11.265625 L 9 11.265625 L 9 13.265625 L 7 13.265625 Z M 7 11.265625 "/>
</g>
</svg>
