<?xml version="1.0" encoding="UTF-8"?>
<svg xmlns="http://www.w3.org/2000/svg" xmlns:xlink="http://www.w3.org/1999/xlink" width="16" height="16" viewBox="0 0 16 16" version="1.1">
<g id="surface1">
<path style=" stroke:none;fill-rule:nonzero;fill:rgb(0%,0%,0%);fill-opacity:1;" d="M 0.00390625 0.00390625 L 0.00390625 16 L 16 16 L 16 0.00390625 Z M 1 1 L 15 1 L 15 15 L 5.429688 15 C 5.429688 15 5.4375 14.320312 5.597656 13.613281 C 5.679688 13.257812 5.796875 12.90625 5.953125 12.648438 C 6.105469 12.390625 6.28125 12.242188 6.476562 12.1875 C 6.988281 12.054688 8.429688 12.085938 9.65625 12.179688 C 10.882812 12.28125 11.945312 12.425781 11.945312 12.425781 C 12.078125 12.441406 12.210938 12.394531 12.300781 12.296875 L 14.300781 10.296875 C 14.390625 10.210938 14.4375 10.085938 14.425781 9.960938 C 14.414062 9.835938 14.351562 9.722656 14.25 9.648438 L 7.359375 4.734375 L 6.40625 1.859375 C 6.347656 1.6875 6.1875 1.574219 6.003906 1.574219 C 5.875 1.574219 5.753906 1.632812 5.671875 1.726562 L 1 7.363281 Z M 6.792969 5.742188 C 6.921875 5.734375 7.054688 5.769531 7.164062 5.839844 L 7.695312 6.179688 C 7.984375 6.359375 8.070312 6.742188 7.890625 7.035156 C 7.804688 7.175781 7.664062 7.277344 7.5 7.3125 C 7.339844 7.351562 7.171875 7.324219 7.03125 7.234375 L 6.5 6.898438 C 6.207031 6.710938 6.117188 6.328125 6.296875 6.039062 C 6.40625 5.867188 6.589844 5.757812 6.792969 5.742188 Z M 6.792969 5.742188 "/>
</g>
</svg>
