<?xml version="1.0" encoding="UTF-8"?>
<svg xmlns="http://www.w3.org/2000/svg" xmlns:xlink="http://www.w3.org/1999/xlink" width="16" height="16" viewBox="0 0 16 16" version="1.1">
<g id="surface1">
<path style=" stroke:none;fill-rule:nonzero;fill:rgb(0%,0%,0%);fill-opacity:1;" d="M 11.015625 11.253906 C 10.8125 11.242188 10.617188 11.3125 10.46875 11.453125 C 10.320312 11.585938 10.234375 11.777344 10.226562 11.976562 C 10.226562 11.984375 10.234375 11.992188 10.234375 12 L 10.226562 12 C 10.226562 12.875 10.019531 13.390625 9.695312 13.710938 C 9.367188 14.039062 8.835938 14.242188 7.9375 14.242188 C 7.085938 14.242188 6.574219 14.042969 6.253906 13.71875 C 5.933594 13.398438 5.730469 12.875 5.730469 12 C 5.730469 11.585938 5.390625 11.25 4.976562 11.25 C 4.5625 11.25 4.226562 11.585938 4.226562 12 C 4.226562 12.875 4.023438 13.398438 3.699219 13.71875 C 3.375 14.042969 2.855469 14.242188 1.980469 14.242188 C 1.78125 14.242188 1.585938 14.320312 1.445312 14.464844 C 1.304688 14.605469 1.226562 14.796875 1.226562 15 C 1.226562 15.195312 1.304688 15.390625 1.445312 15.53125 C 1.585938 15.671875 1.78125 15.75 1.980469 15.75 C 3.105469 15.75 4.078125 15.453125 4.757812 14.773438 C 4.90625 14.625 4.863281 14.335938 4.976562 14.15625 C 5.089844 14.335938 5.039062 14.625 5.191406 14.773438 C 5.859375 15.453125 6.828125 15.75 7.9375 15.75 C 9.078125 15.75 10.066406 15.460938 10.75 14.78125 C 10.90625 14.628906 10.851562 14.332031 10.96875 14.148438 C 11.085938 14.328125 11.03125 14.625 11.1875 14.773438 C 11.867188 15.453125 12.851562 15.75 13.984375 15.75 C 14.398438 15.75 14.730469 15.410156 14.726562 15 C 14.730469 14.585938 14.398438 14.246094 13.984375 14.242188 C 13.109375 14.242188 12.570312 14.039062 12.242188 13.710938 C 11.914062 13.390625 11.703125 12.875 11.726562 12.015625 L 11.71875 12.015625 C 11.71875 12.007812 11.726562 12.007812 11.726562 12 C 11.722656 11.601562 11.414062 11.277344 11.015625 11.253906 Z M 11.015625 11.253906 "/>
<path style=" stroke:none;fill-rule:nonzero;fill:rgb(0%,0%,0%);fill-opacity:1;" d="M 5.015625 5.757812 C 4.96875 5.753906 4.921875 5.757812 4.875 5.765625 C 4.683594 5.789062 4.511719 5.890625 4.394531 6.042969 C 4.363281 6.078125 4.335938 6.117188 4.3125 6.164062 C 4.257812 6.265625 4.226562 6.382812 4.226562 6.5 C 4.226562 7.375 4.023438 7.890625 3.699219 8.210938 C 3.375 8.539062 2.855469 8.742188 1.980469 8.742188 C 1.78125 8.742188 1.585938 8.824219 1.445312 8.964844 C 1.304688 9.105469 1.226562 9.296875 1.226562 9.5 C 1.226562 9.695312 1.304688 9.890625 1.445312 10.03125 C 1.585938 10.171875 1.78125 10.25 1.980469 10.25 C 3.105469 10.25 4.078125 9.953125 4.757812 9.277344 C 4.90625 9.125 4.863281 8.835938 4.976562 8.65625 C 5.089844 8.835938 5.039062 9.125 5.191406 9.277344 C 5.859375 9.953125 6.828125 10.25 7.9375 10.25 C 9.078125 10.25 10.066406 9.960938 10.75 9.28125 C 10.90625 9.128906 10.851562 8.835938 10.96875 8.648438 C 11.085938 8.828125 11.03125 9.125 11.1875 9.277344 C 11.867188 9.953125 12.851562 10.25 13.984375 10.25 C 14.398438 10.25 14.730469 9.914062 14.726562 9.5 C 14.730469 9.085938 14.398438 8.75 13.984375 8.742188 C 13.109375 8.742188 12.570312 8.539062 12.242188 8.210938 C 11.914062 7.890625 11.703125 7.375 11.726562 6.515625 L 11.71875 6.515625 C 11.71875 6.507812 11.726562 6.507812 11.726562 6.5 C 11.710938 6.101562 11.386719 5.78125 10.984375 5.773438 C 10.585938 5.765625 10.25 6.078125 10.226562 6.476562 C 10.226562 6.488281 10.234375 6.492188 10.234375 6.5 L 10.226562 6.5 C 10.226562 7.375 10.019531 7.890625 9.695312 8.210938 C 9.367188 8.539062 8.835938 8.742188 7.9375 8.742188 C 7.085938 8.742188 6.574219 8.546875 6.253906 8.21875 C 5.933594 7.898438 5.730469 7.375 5.730469 6.5 C 5.730469 6.453125 5.726562 6.402344 5.714844 6.351562 C 5.703125 6.308594 5.6875 6.265625 5.671875 6.21875 C 5.652344 6.175781 5.632812 6.132812 5.601562 6.09375 C 5.578125 6.054688 5.546875 6.015625 5.515625 5.984375 C 5.382812 5.847656 5.203125 5.765625 5.015625 5.757812 Z M 5.015625 5.757812 "/>
<path style=" stroke:none;fill-rule:nonzero;fill:rgb(0%,0%,0%);fill-opacity:1;" d="M 5.039062 0.0078125 C 4.992188 0.0078125 4.941406 0.0117188 4.898438 0.015625 C 4.703125 0.046875 4.535156 0.148438 4.414062 0.296875 C 4.382812 0.335938 4.359375 0.375 4.335938 0.414062 C 4.28125 0.523438 4.25 0.636719 4.246094 0.757812 C 4.246094 1.632812 4.046875 2.144531 3.722656 2.46875 C 3.398438 2.789062 2.875 3 2 3 C 1.804688 3 1.609375 3.078125 1.46875 3.21875 C 1.328125 3.359375 1.25 3.554688 1.25 3.753906 C 1.25 3.953125 1.328125 4.144531 1.46875 4.289062 C 1.609375 4.429688 1.804688 4.507812 2 4.507812 C 3.125 4.507812 4.101562 4.210938 4.777344 3.53125 C 4.929688 3.382812 4.882812 3.09375 5 2.914062 C 5.109375 3.089844 5.0625 3.382812 5.210938 3.53125 C 5.882812 4.210938 6.851562 4.507812 7.960938 4.507812 C 9.101562 4.507812 10.085938 4.214844 10.773438 3.539062 C 10.929688 3.382812 10.875 3.085938 10.992188 2.90625 C 11.109375 3.085938 11.054688 3.378906 11.207031 3.53125 C 11.890625 4.210938 12.875 4.507812 14.007812 4.507812 C 14.417969 4.503906 14.75 4.164062 14.75 3.753906 C 14.75 3.339844 14.417969 3 14.007812 3 C 13.128906 3 12.59375 2.792969 12.265625 2.46875 C 11.9375 2.140625 11.726562 1.632812 11.746094 0.773438 L 11.738281 0.773438 C 11.738281 0.765625 11.746094 0.761719 11.746094 0.757812 C 11.734375 0.355469 11.40625 0.03125 11.007812 0.0273438 C 10.605469 0.0234375 10.273438 0.335938 10.25 0.734375 C 10.25 0.742188 10.257812 0.746094 10.257812 0.757812 L 10.25 0.757812 C 10.25 1.632812 10.042969 2.144531 9.71875 2.46875 C 9.390625 2.789062 8.859375 3 7.960938 3 C 7.109375 3 6.59375 2.796875 6.273438 2.476562 C 5.957031 2.152344 5.75 1.632812 5.75 0.757812 C 5.75 0.707031 5.75 0.65625 5.738281 0.609375 C 5.726562 0.5625 5.710938 0.515625 5.695312 0.476562 C 5.675781 0.429688 5.652344 0.390625 5.625 0.351562 C 5.601562 0.3125 5.570312 0.273438 5.539062 0.238281 C 5.40625 0.101562 5.226562 0.0195312 5.039062 0.0078125 Z M 5.039062 0.0078125 "/>
</g>
</svg>
