<?xml version="1.0" encoding="UTF-8"?>
<svg xmlns="http://www.w3.org/2000/svg" xmlns:xlink="http://www.w3.org/1999/xlink" width="16" height="16" viewBox="0 0 16 16" version="1.1">
<g id="surface1">
<path style=" stroke:none;fill-rule:nonzero;fill:rgb(0%,0%,0%);fill-opacity:1;" d="M 2.773438 0 C 2.476562 -0.00390625 2.242188 0.234375 2.234375 0.527344 L 2.234375 1.597656 C 2.234375 1.742188 2.292969 1.875 2.390625 1.976562 C 2.492188 2.078125 2.632812 2.132812 2.773438 2.132812 L 3.308594 2.132812 L 3.308594 5.710938 C 2.75 6.179688 2.28125 6.671875 2.101562 7.21875 C 1.890625 7.867188 1.960938 8.53125 2.171875 9.148438 C 2.570312 10.285156 3.46875 11.320312 4.316406 12.339844 L 3.332031 15.300781 C 3.28125 15.460938 3.304688 15.640625 3.40625 15.78125 C 3.507812 15.914062 3.664062 16 3.835938 16 L 12.375 16 C 12.542969 16 12.703125 15.914062 12.804688 15.78125 C 12.902344 15.640625 12.929688 15.460938 12.875 15.300781 L 11.890625 12.339844 C 12.382812 11.460938 13.199219 10.679688 13.695312 9.65625 C 13.960938 9.109375 14.105469 8.46875 13.976562 7.773438 C 13.867188 7.144531 13.46875 6.472656 12.90625 5.757812 L 12.90625 2.132812 L 13.445312 2.132812 C 13.734375 2.128906 13.96875 1.890625 13.96875 1.597656 L 13.96875 0.527344 C 13.96875 0.238281 13.734375 0.00390625 13.445312 0 Z M 5.296875 1.597656 L 6.382812 1.597656 C 6.6875 1.597656 6.933594 1.84375 6.933594 2.148438 L 6.933594 2.164062 C 6.933594 2.441406 6.710938 2.664062 6.433594 2.664062 L 5.351562 2.664062 C 5.046875 2.664062 4.796875 2.417969 4.796875 2.117188 L 4.796875 2.097656 C 4.796875 1.820312 5.023438 1.597656 5.296875 1.597656 Z M 7.851562 6.585938 C 7.898438 6.585938 7.949219 6.585938 8 6.585938 C 10.1875 6.585938 11.960938 7.023438 11.960938 7.570312 C 11.960938 8.117188 10.1875 8.5625 8 8.5625 C 5.8125 8.5625 4.039062 8.117188 4.039062 7.570312 C 4.039062 7.039062 5.722656 6.601562 7.851562 6.585938 Z M 7.851562 6.585938 "/>
</g>
</svg>
