<?xml version="1.0" encoding="UTF-8"?>
<svg xmlns="http://www.w3.org/2000/svg" xmlns:xlink="http://www.w3.org/1999/xlink" width="16" height="16" viewBox="0 0 16 16" version="1.1">
<g id="surface1">
<path style=" stroke:none;fill-rule:nonzero;fill:rgb(0%,0%,0%);fill-opacity:1;" d="M 12.761719 5.996094 L 6.230469 9.734375 L 6.183594 9.765625 C 6.121094 9.796875 6.054688 9.8125 5.984375 9.808594 C 5.824219 9.8125 5.675781 9.722656 5.597656 9.582031 L 5.566406 9.519531 L 4.347656 6.886719 C 4.332031 6.855469 4.332031 6.824219 4.332031 6.792969 C 4.332031 6.671875 4.421875 6.578125 4.546875 6.578125 C 4.59375 6.578125 4.640625 6.59375 4.6875 6.625 L 6.121094 7.636719 C 6.230469 7.699219 6.355469 7.742188 6.492188 7.742188 C 6.574219 7.742188 6.652344 7.726562 6.726562 7.699219 L 12.242188 5.265625 C 11.289062 4.183594 9.757812 3.464844 8 3.464844 C 5.054688 3.464844 2.734375 5.480469 2.734375 7.867188 C 2.734375 8.777344 3.066406 9.648438 3.6875 10.386719 C 3.71875 10.425781 3.769531 10.480469 3.832031 10.542969 C 4.359375 11.097656 4.628906 11.847656 4.566406 12.613281 L 4.546875 12.808594 L 5.023438 12.519531 C 5.566406 12.191406 6.203125 12.0625 6.828125 12.160156 C 6.96875 12.183594 7.085938 12.203125 7.175781 12.210938 C 7.445312 12.25 7.722656 12.265625 8 12.265625 C 10.945312 12.265625 13.265625 10.253906 13.265625 7.867188 C 13.265625 7.203125 13.085938 6.566406 12.761719 5.996094 Z M 4.128906 14.628906 C 3.914062 14.761719 3.644531 14.761719 3.425781 14.632812 C 3.210938 14.5 3.089844 14.257812 3.109375 14.007812 L 3.234375 12.5 C 3.269531 12.121094 3.132812 11.742188 2.871094 11.46875 C 2.800781 11.394531 2.730469 11.320312 2.667969 11.246094 C 1.871094 10.296875 1.398438 9.128906 1.398438 7.867188 C 1.398438 4.699219 4.355469 2.132812 8 2.132812 C 11.644531 2.132812 14.601562 4.699219 14.601562 7.867188 C 14.601562 11.035156 11.644531 13.601562 8 13.601562 C 7.660156 13.601562 7.328125 13.578125 7 13.535156 C 6.875 13.515625 6.746094 13.5 6.621094 13.480469 C 6.308594 13.429688 5.988281 13.492188 5.71875 13.65625 Z M 4.128906 14.628906 "/>
</g>
</svg>
