<?xml version="1.0" encoding="UTF-8"?>
<svg xmlns="http://www.w3.org/2000/svg" xmlns:xlink="http://www.w3.org/1999/xlink" width="16" height="16" viewBox="0 0 16 16" version="1.1">
<g id="surface1">
<path style=" stroke:none;fill-rule:nonzero;fill:rgb(0%,0%,0%);fill-opacity:1;" d="M 5.332031 6.894531 L 5.332031 8.355469 C 4.535156 8.816406 4 9.679688 4 10.667969 C 4 12.140625 5.191406 13.332031 6.667969 13.332031 C 7.652344 13.332031 8.515625 12.796875 8.976562 12 L 10.4375 12 C 9.890625 13.554688 8.40625 14.667969 6.667969 14.667969 C 4.457031 14.667969 2.667969 12.875 2.667969 10.667969 C 2.667969 8.925781 3.78125 7.441406 5.332031 6.894531 Z M 8 11.332031 C 6.894531 11.332031 6 10.4375 6 9.332031 L 6 6.667969 C 6 5.96875 6.355469 5.355469 6.894531 5 C 6.355469 4.644531 6 4.03125 6 3.332031 C 6 2.230469 6.894531 1.332031 8 1.332031 C 9.105469 1.332031 10 2.230469 10 3.332031 C 10 4.03125 9.644531 4.644531 9.105469 5 C 9.644531 5.355469 10 5.96875 10 6.667969 L 10 10 L 10.957031 10 C 11.386719 10 11.792969 10.210938 12.039062 10.558594 L 12.097656 10.648438 L 13.90625 13.65625 L 12.761719 14.34375 L 10.957031 11.332031 Z M 8 6 C 7.632812 6 7.332031 6.296875 7.332031 6.667969 L 7.332031 9.332031 C 7.332031 9.703125 7.632812 10 8 10 L 8.664062 10 L 8.667969 6.667969 C 8.667969 6.296875 8.367188 6 8 6 Z M 8 2.667969 C 7.632812 2.667969 7.332031 2.964844 7.332031 3.332031 C 7.332031 3.703125 7.632812 4 8 4 C 8.367188 4 8.667969 3.703125 8.667969 3.332031 C 8.667969 2.964844 8.367188 2.667969 8 2.667969 Z M 8 2.667969 "/>
</g>
</svg>
