<?xml version="1.0" encoding="UTF-8"?>
<svg xmlns="http://www.w3.org/2000/svg" xmlns:xlink="http://www.w3.org/1999/xlink" width="16" height="16" viewBox="0 0 16 16" version="1.1">
<g id="surface1">
<path style=" stroke:none;fill-rule:nonzero;fill:rgb(0%,0%,0%);fill-opacity:1;" d="M 8 12 C 8.476562 12 8.914062 12.167969 9.257812 12.445312 L 8 14 L 6.742188 12.445312 C 7.097656 12.15625 7.542969 12 8 12 Z M 1.871094 0.929688 L 13.65625 12.714844 L 12.714844 13.65625 L 10.257812 11.203125 L 10.09375 11.40625 C 9.503906 10.925781 8.761719 10.664062 8 10.667969 C 7.238281 10.664062 6.5 10.925781 5.90625 11.40625 L 4.648438 9.851562 C 5.523438 9.140625 6.605469 8.730469 7.730469 8.671875 L 6.546875 7.492188 C 5.546875 7.714844 4.609375 8.167969 3.8125 8.8125 L 2.554688 7.257812 C 3.273438 6.675781 4.078125 6.214844 4.945312 5.886719 L 3.921875 4.867188 C 3.132812 5.21875 2.390625 5.675781 1.714844 6.21875 L 0.460938 4.664062 C 1.070312 4.171875 1.726562 3.738281 2.425781 3.371094 L 0.929688 1.871094 Z M 10.722656 7.914062 L 8.144531 5.335938 L 8 5.332031 C 10.0625 5.332031 11.957031 6.054688 13.445312 7.257812 L 12.1875 8.8125 C 11.742188 8.453125 11.25 8.148438 10.722656 7.914062 Z M 8 2 C 10.855469 2 13.480469 2.996094 15.539062 4.664062 L 14.285156 6.21875 C 12.507812 4.78125 10.289062 3.996094 8 4 C 7.617188 4 7.242188 4.019531 6.875 4.0625 L 5.148438 2.339844 C 6.0625 2.117188 7.019531 2 8 2 Z M 8 2 "/>
</g>
</svg>
