<?xml version="1.0" encoding="UTF-8"?>
<svg xmlns="http://www.w3.org/2000/svg" xmlns:xlink="http://www.w3.org/1999/xlink" width="16" height="16" viewBox="0 0 16 16" version="1.1">
<g id="surface1">
<path style=" stroke:none;fill-rule:nonzero;fill:rgb(0%,0%,0%);fill-opacity:1;" d="M 7 11.332031 L 2.667969 11.332031 L 2.667969 10 L 7 10 C 8.179688 10 9.175781 10.882812 9.316406 12.054688 C 9.457031 13.226562 8.699219 14.320312 7.550781 14.601562 C 6.40625 14.878906 5.230469 14.257812 4.816406 13.152344 L 6.0625 12.683594 C 6.242188 13.160156 6.746094 13.425781 7.238281 13.304688 C 7.726562 13.183594 8.054688 12.714844 7.992188 12.214844 C 7.933594 11.710938 7.507812 11.332031 7 11.332031 Z M 3.332031 7.332031 L 12.332031 7.332031 C 13.515625 7.332031 14.507812 8.214844 14.648438 9.386719 C 14.789062 10.5625 14.03125 11.652344 12.886719 11.933594 C 11.738281 12.214844 10.5625 11.59375 10.148438 10.488281 L 11.398438 10.019531 C 11.574219 10.492188 12.078125 10.757812 12.570312 10.636719 C 13.0625 10.519531 13.386719 10.050781 13.324219 9.546875 C 13.265625 9.046875 12.839844 8.667969 12.332031 8.667969 L 3.332031 8.667969 C 2.230469 8.667969 1.332031 7.769531 1.332031 6.667969 C 1.332031 5.5625 2.230469 4.667969 3.332031 4.667969 L 9 4.667969 C 9.507812 4.667969 9.933594 4.289062 9.992188 3.785156 C 10.054688 3.285156 9.726562 2.816406 9.238281 2.695312 C 8.746094 2.574219 8.242188 2.839844 8.0625 3.316406 L 6.816406 2.847656 C 7.210938 1.792969 8.304688 1.171875 9.414062 1.371094 C 10.523438 1.574219 11.332031 2.539062 11.332031 3.667969 C 11.332031 4.957031 10.289062 6 9 6 L 3.332031 6 C 2.964844 6 2.667969 6.296875 2.667969 6.667969 C 2.667969 7.035156 2.964844 7.332031 3.332031 7.332031 Z M 3.332031 7.332031 "/>
</g>
</svg>
