<?xml version="1.0" encoding="UTF-8"?>
<svg xmlns="http://www.w3.org/2000/svg" xmlns:xlink="http://www.w3.org/1999/xlink" width="16" height="16" viewBox="0 0 16 16" version="1.1">
<g id="surface1">
<path style=" stroke:none;fill-rule:nonzero;fill:rgb(0%,0%,0%);fill-opacity:1;" d="M 6.507812 2 C 6.226562 2 6 2.226562 6.003906 2.503906 L 6.003906 13.5 C 6 13.78125 6.226562 14.007812 6.507812 14.003906 L 7.832031 14.003906 L 7.832031 11.589844 C 7.832031 11.3125 7.898438 11.0625 8 10.828125 L 8 4 L 14 4 L 14 5.1875 C 14.742188 5.492188 15.394531 6.003906 15.871094 6.664062 L 15.875 6.671875 C 15.902344 6.707031 15.921875 6.742188 15.945312 6.777344 L 15.964844 6.8125 C 15.96875 6.820312 15.96875 6.820312 15.972656 6.828125 C 15.984375 6.84375 15.988281 6.859375 15.996094 6.875 L 15.996094 2.503906 C 16 2.226562 15.777344 2.007812 15.503906 2 Z M 6.507812 2 "/>
<path style=" stroke:none;fill-rule:nonzero;fill:rgb(0%,0%,0%);fill-opacity:1;" d="M 0.488281 -0.00390625 C 0.46875 -0.00390625 0.453125 -0.00390625 0.4375 0.00390625 C 0.1875 0.03125 0.00390625 0.246094 0 0.496094 L 0 15.503906 C 0 15.847656 0.339844 16.089844 0.664062 15.976562 L 6.59375 13.898438 C 6.792969 13.832031 6.929688 13.648438 6.929688 13.4375 L 6.976562 2.5625 C 6.976562 2.351562 6.84375 2.160156 6.640625 2.089844 L 0.664062 0.0234375 C 0.609375 0.00390625 0.546875 -0.0078125 0.488281 -0.00390625 Z M 2 2.71875 L 6 4 L 6 7 L 2 7 Z M 6 8.675781 L 6 12 L 2 13.34375 L 2 9 Z M 6 8.675781 "/>
<path style=" stroke:none;fill-rule:evenodd;fill:rgb(0%,0%,0%);fill-opacity:1;" d="M 12.625 6.085938 C 11.71875 6.042969 10.765625 6.480469 10.125 7.351562 L 10.125 7.359375 L 10.117188 7.363281 C 9.820312 7.78125 9.828125 8.125 9.808594 8.5 C 9.789062 8.878906 9.800781 9.277344 9.828125 9.65625 C 9.847656 9.945312 9.875 10.179688 9.898438 10.398438 C 9.390625 10.5625 9.023438 11.03125 9.023438 11.59375 L 9.023438 14.742188 C 9.023438 15.4375 9.585938 16 10.289062 16 L 14.730469 16 C 15.433594 16 16 15.4375 16 14.742188 L 16 11.59375 C 16 11.039062 15.640625 10.574219 15.136719 10.40625 C 15.164062 10.195312 15.195312 9.984375 15.210938 9.726562 C 15.242188 9.351562 15.257812 8.960938 15.234375 8.570312 C 15.210938 8.1875 15.175781 7.820312 14.945312 7.421875 L 14.929688 7.390625 L 14.90625 7.359375 C 14.363281 6.605469 13.527344 6.128906 12.625 6.085938 Z M 12.546875 7.65625 C 12.921875 7.671875 13.308594 7.890625 13.585938 8.257812 C 13.585938 8.273438 13.632812 8.421875 13.648438 8.664062 C 13.664062 8.9375 13.65625 9.28125 13.632812 9.609375 C 13.609375 9.882812 13.578125 10.125 13.554688 10.335938 L 11.492188 10.335938 C 11.460938 10.101562 11.429688 9.835938 11.410156 9.546875 C 11.386719 9.210938 11.375 8.859375 11.390625 8.59375 C 11.40625 8.398438 11.460938 8.246094 11.453125 8.234375 C 11.8125 7.773438 12.179688 7.640625 12.546875 7.65625 Z M 12.507812 11.554688 C 13.078125 11.554688 13.539062 12.007812 13.539062 12.578125 C 13.539062 12.957031 13.328125 13.304688 12.984375 13.484375 L 12.984375 14.269531 C 12.984375 14.53125 12.773438 14.742188 12.507812 14.742188 C 12.246094 14.742188 12.03125 14.53125 12.03125 14.269531 L 12.03125 13.484375 C 11.695312 13.304688 11.476562 12.957031 11.476562 12.578125 C 11.476562 12.007812 11.941406 11.554688 12.507812 11.554688 Z M 12.507812 11.554688 "/>
</g>
</svg>
