<?xml version="1.0" encoding="UTF-8"?>
<svg xmlns="http://www.w3.org/2000/svg" xmlns:xlink="http://www.w3.org/1999/xlink" width="16" height="16" viewBox="0 0 16 16" version="1.1">
<g id="surface1">
<path style=" stroke:none;fill-rule:nonzero;fill:rgb(0%,0%,0%);fill-opacity:1;" d="M 6.507812 2 C 6.226562 2 6 2.226562 6.003906 2.503906 L 6.003906 13.5 C 6 13.78125 6.226562 14.003906 6.507812 14.003906 L 15.503906 14.003906 C 15.78125 14 16 13.773438 16 13.5 L 16 2.503906 C 16 2.226562 15.78125 2.007812 15.503906 2 Z M 8 4 L 14 4 L 14 12 L 8 12 Z M 8 4 "/>
<path style=" stroke:none;fill-rule:nonzero;fill:rgb(0%,0%,0%);fill-opacity:1;" d="M 0.492188 -0.00390625 C 0.472656 -0.00390625 0.453125 -0.00390625 0.4375 0.00390625 C 0.1875 0.03125 0.00390625 0.246094 0.00390625 0.496094 L 0.00390625 15.503906 C 0.00390625 15.847656 0.34375 16.089844 0.664062 15.976562 L 6.59375 13.898438 C 6.792969 13.832031 6.929688 13.648438 6.933594 13.4375 L 6.976562 2.5625 C 6.976562 2.351562 6.84375 2.160156 6.644531 2.089844 L 0.664062 0.0234375 C 0.609375 0.00390625 0.550781 -0.0078125 0.492188 -0.00390625 Z M 2 2.71875 L 6 4 L 6 7 L 2 7 Z M 6 8.675781 L 6 12 L 2 13.34375 L 2 9 Z M 6 8.675781 "/>
</g>
</svg>
