<?xml version="1.0" encoding="UTF-8"?>
<svg xmlns="http://www.w3.org/2000/svg" xmlns:xlink="http://www.w3.org/1999/xlink" width="16" height="16" viewBox="0 0 16 16" version="1.1">
<g id="surface1">
<path style=" stroke:none;fill-rule:nonzero;fill:rgb(0%,0%,0%);fill-opacity:1;" d="M 3.613281 13.019531 C 4.824219 14.082031 6.386719 14.667969 8 14.667969 C 9.613281 14.667969 11.175781 14.082031 12.390625 13.019531 C 13.433594 11.957031 9.992188 8.179688 8 6.675781 C 6.011719 8.179688 2.566406 11.957031 3.613281 13.019531 Z M 9.8125 5.015625 C 11.203125 6.660156 13.96875 10.746094 13.1875 12.1875 C 14.148438 11.003906 14.667969 9.527344 14.667969 8.003906 C 14.667969 6.21875 13.953125 4.511719 12.683594 3.261719 C 12.683594 3.261719 12.667969 3.246094 12.636719 3.238281 C 12.585938 3.21875 12.535156 3.210938 12.480469 3.210938 C 12.152344 3.210938 11.378906 3.453125 9.8125 5.015625 Z M 3.363281 3.238281 C 3.332031 3.25 3.316406 3.261719 3.316406 3.261719 C 2.046875 4.511719 1.332031 6.21875 1.332031 8.003906 C 1.332031 9.589844 1.886719 11.042969 2.8125 12.1875 C 2.035156 10.738281 4.800781 6.660156 6.1875 5.015625 C 4.621094 3.453125 3.847656 3.210938 3.519531 3.210938 C 3.464844 3.210938 3.414062 3.21875 3.363281 3.238281 Z M 8 3.304688 C 8 3.304688 6.363281 2.347656 5.085938 2.304688 C 4.585938 2.285156 4.277344 2.46875 4.242188 2.492188 C 5.433594 1.691406 6.699219 1.332031 7.992188 1.332031 L 8 1.332031 C 9.296875 1.332031 10.558594 1.691406 11.757812 2.492188 C 11.722656 2.464844 11.417969 2.285156 10.914062 2.304688 C 9.636719 2.347656 8 3.304688 8 3.304688 Z M 8 3.304688 "/>
</g>
</svg>
