<?xml version="1.0" encoding="UTF-8"?>
<svg xmlns="http://www.w3.org/2000/svg" xmlns:xlink="http://www.w3.org/1999/xlink" width="16" height="16" viewBox="0 0 16 16" version="1.1">
<g id="surface1">
<path style=" stroke:none;fill-rule:nonzero;fill:rgb(0%,0%,0%);fill-opacity:1;" d="M 8.265625 9.023438 L 11.601562 13.464844 C 11.675781 13.566406 11.6875 13.703125 11.632812 13.816406 C 11.574219 13.929688 11.460938 14 11.332031 14 L 4.667969 14 C 4.539062 14 4.425781 13.929688 4.367188 13.816406 C 4.3125 13.703125 4.324219 13.566406 4.398438 13.464844 L 7.734375 9.023438 C 7.796875 8.9375 7.894531 8.886719 8 8.886719 C 8.105469 8.886719 8.203125 8.9375 8.265625 9.023438 Z M 12 12.667969 L 12 11.332031 L 13.332031 11.332031 L 13.332031 3.332031 L 2.667969 3.332031 L 2.667969 11.332031 L 4 11.332031 L 4 12.667969 L 1.996094 12.667969 C 1.820312 12.667969 1.648438 12.597656 1.527344 12.46875 C 1.402344 12.34375 1.332031 12.175781 1.332031 12 L 1.332031 2.667969 C 1.332031 2.296875 1.636719 2 1.996094 2 L 14.003906 2 C 14.371094 2 14.667969 2.296875 14.667969 2.667969 L 14.667969 12 C 14.667969 12.367188 14.363281 12.667969 14.003906 12.667969 Z M 12 12.667969 "/>
</g>
</svg>
