<?xml version="1.0" encoding="UTF-8"?>
<svg xmlns="http://www.w3.org/2000/svg" xmlns:xlink="http://www.w3.org/1999/xlink" width="16" height="16" viewBox="0 0 16 16" version="1.1">
<g id="surface1">
<path style=" stroke:none;fill-rule:nonzero;fill:rgb(0%,0%,0%);fill-opacity:1;" d="M 3.117188 0 C 2.890625 0 1.835938 1.8125 1.8125 2.84375 C 1.789062 3.875 2.1875 4.820312 2.996094 5.625 C 3.804688 6.433594 5.6875 8.132812 7.296875 9.542969 C 8.914062 10.953125 11.371094 13.367188 12.304688 14.507812 C 13.234375 15.644531 12.773438 16 13.03125 16 C 13.296875 16 14.191406 14.082031 14.1875 13.15625 C 14.15625 12.070312 14.078125 11.492188 13 10.421875 C 11.925781 9.351562 10.414062 7.984375 8.804688 6.574219 C 7.191406 5.164062 4.617188 2.878906 3.875 1.8125 C 3.132812 0.75 3.351562 0 3.117188 0 Z M 3.117188 0 "/>
<path style=" stroke:none;fill-rule:nonzero;fill:rgb(0%,0%,0%);fill-opacity:1;" d="M 11.46875 0.0078125 C 11.335938 0.0664062 10.203125 1.421875 9.882812 2.039062 C 9.5625 2.652344 9.507812 3.101562 9.734375 3.363281 C 9.953125 3.621094 10.523438 4.117188 11.023438 4.515625 C 11.53125 4.914062 12.214844 5.679688 12.410156 6.101562 C 12.605469 6.523438 12.234375 6.859375 12.382812 6.789062 C 12.53125 6.71875 13.609375 5.34375 13.882812 4.796875 C 14.1875 4.164062 14.3125 3.847656 14.015625 3.503906 C 13.722656 3.15625 13.265625 2.757812 12.765625 2.359375 C 12.261719 1.960938 11.472656 1.304688 11.363281 0.875 C 11.257812 0.445312 11.601562 -0.0546875 11.46875 0.0078125 Z M 11.46875 0.0078125 "/>
<path style=" stroke:none;fill-rule:nonzero;fill:rgb(0%,0%,0%);fill-opacity:1;" d="M 3.6875 9.203125 C 3.554688 9.265625 2.414062 10.625 2.097656 11.238281 C 1.78125 11.851562 1.726562 12.304688 1.949219 12.5625 C 2.171875 12.820312 2.742188 13.320312 3.242188 13.71875 C 3.742188 14.117188 4.429688 14.882812 4.625 15.304688 C 4.820312 15.726562 4.453125 16.0625 4.601562 15.992188 C 4.75 15.921875 5.828125 14.546875 6.101562 14 C 6.40625 13.367188 6.53125 13.046875 6.234375 12.703125 C 5.9375 12.359375 5.480469 11.960938 4.976562 11.5625 C 4.476562 11.160156 3.6875 10.503906 3.578125 10.074219 C 3.46875 9.644531 3.816406 9.144531 3.6875 9.203125 Z M 3.6875 9.203125 "/>
</g>
</svg>
