<?xml version="1.0" encoding="UTF-8"?>
<svg xmlns="http://www.w3.org/2000/svg" xmlns:xlink="http://www.w3.org/1999/xlink" width="16" height="16" viewBox="0 0 16 16" version="1.1">
<g id="surface1">
<path style=" stroke:none;fill-rule:nonzero;fill:rgb(0%,0%,0%);fill-opacity:1;" d="M 2 7.332031 L 14 7.332031 L 14 8.667969 L 2 8.667969 Z M 12 12 L 12 14 L 10.667969 14 L 10.667969 12 L 8.667969 12 L 11.332031 9.332031 L 14 12 Z M 5.332031 12 L 5.332031 14 L 4 14 L 4 12 L 2 12 L 4.667969 9.332031 L 7.332031 12 Z M 12 4 L 14 4 L 11.332031 6.667969 L 8.667969 4 L 10.667969 4 L 10.667969 2 L 12 2 Z M 5.332031 4 L 7.332031 4 L 4.667969 6.667969 L 2 4 L 4 4 L 4 2 L 5.332031 2 Z M 5.332031 4 "/>
</g>
</svg>
