<?xml version="1.0" encoding="UTF-8"?>
<svg xmlns="http://www.w3.org/2000/svg" xmlns:xlink="http://www.w3.org/1999/xlink" width="16" height="16" viewBox="0 0 16 16" version="1.1">
<g id="surface1">
<path style=" stroke:none;fill-rule:nonzero;fill:rgb(0%,0%,0%);fill-opacity:1;" d="M 14.664062 12.152344 C 14.664062 12.636719 14.394531 13.570312 13.789062 14.085938 C 13.667969 14.175781 13.542969 14.125 13.597656 13.988281 C 13.773438 13.558594 14.179688 12.558594 13.988281 12.328125 C 13.855469 12.152344 13.300781 12.164062 12.832031 12.207031 C 12.613281 12.234375 12.425781 12.246094 12.277344 12.277344 C 12.144531 12.289062 12.117188 12.167969 12.25 12.074219 C 12.425781 11.949219 12.613281 11.855469 12.832031 11.789062 C 13.597656 11.558594 14.484375 11.699219 14.613281 11.84375 C 14.636719 11.871094 14.664062 11.949219 14.664062 12.152344 Z M 13.382812 13.015625 C 13.207031 13.152344 13.023438 13.273438 12.828125 13.382812 C 11.414062 14.234375 9.582031 14.679688 7.992188 14.679688 C 5.429688 14.679688 3.136719 13.734375 1.398438 12.152344 C 1.25 12.03125 1.375 11.855469 1.546875 11.949219 C 3.421875 13.042969 5.738281 13.707031 8.140625 13.707031 C 9.652344 13.707031 11.28125 13.421875 12.832031 12.816406 C 12.9375 12.773438 13.058594 12.71875 13.164062 12.679688 C 13.410156 12.570312 13.625 12.84375 13.382812 13.015625 Z M 9.269531 5.664062 C 9.269531 4.96875 9.296875 4.558594 9.066406 4.210938 C 8.863281 3.921875 8.511719 3.746094 8.023438 3.773438 C 7.488281 3.804688 6.917969 4.152344 6.773438 4.792969 C 6.746094 4.9375 6.660156 5.082031 6.480469 5.113281 L 4.859375 4.90625 C 4.742188 4.878906 4.566406 4.792969 4.625 4.558594 C 4.972656 2.726562 6.539062 2.085938 8.023438 2 L 8.371094 2 C 9.183594 2 10.230469 2.234375 10.898438 2.84375 C 11.707031 3.601562 11.621094 4.617188 11.621094 5.722656 L 11.621094 8.339844 C 11.621094 9.125 11.941406 9.472656 12.261719 9.882812 C 12.347656 10.03125 12.378906 10.203125 12.230469 10.320312 C 11.910156 10.609375 11.300781 11.132812 10.953125 11.421875 C 10.835938 11.511719 10.628906 11.519531 10.546875 11.453125 C 10.035156 11.023438 9.90625 10.785156 9.589844 10.347656 C 9.035156 10.929688 8.574219 11.25 8.019531 11.421875 C 7.632812 11.519531 7.230469 11.570312 6.832031 11.566406 C 5.4375 11.566406 4.332031 10.699219 4.332031 8.980469 C 4.332031 7.613281 5.058594 6.683594 6.132812 6.246094 C 7.207031 5.804688 8.765625 5.664062 9.269531 5.664062 Z M 8.953125 9.125 C 9.296875 8.542969 9.269531 8.066406 9.269531 7 C 8.835938 7 8.398438 7.03125 8.023438 7.121094 C 7.324219 7.320312 6.773438 7.761719 6.773438 8.6875 C 6.773438 9.414062 7.152344 9.910156 7.789062 9.910156 C 7.878906 9.910156 7.953125 9.898438 8.023438 9.878906 C 8.46875 9.757812 8.746094 9.53125 8.953125 9.125 Z M 8.953125 9.125 "/>
</g>
</svg>
