<?xml version="1.0" encoding="UTF-8"?>
<svg xmlns="http://www.w3.org/2000/svg" xmlns:xlink="http://www.w3.org/1999/xlink" width="16" height="16" viewBox="0 0 16 16" version="1.1">
<g id="surface1">
<path style=" stroke:none;fill-rule:nonzero;fill:rgb(0%,0%,0%);fill-opacity:1;" d="M 8.667969 6.582031 L 8.667969 13.285156 C 11.078125 12.984375 12.992188 11.0625 13.292969 8.636719 L 11.332031 8.636719 L 13.800781 4.667969 C 14.371094 5.671875 14.667969 6.808594 14.667969 7.964844 C 14.667969 11.667969 11.683594 14.667969 8 14.667969 C 4.316406 14.667969 1.332031 11.667969 1.332031 7.964844 C 1.332031 6.765625 1.648438 5.640625 2.199219 4.667969 L 4.667969 8.636719 L 2.707031 8.636719 C 3.007812 11.0625 4.921875 12.984375 7.332031 13.285156 L 7.332031 6.582031 C 6.035156 6.242188 5.191406 4.996094 5.359375 3.664062 C 5.53125 2.335938 6.660156 1.335938 8 1.332031 C 9.34375 1.332031 10.480469 2.332031 10.648438 3.664062 C 10.816406 4.996094 9.96875 6.246094 8.667969 6.582031 Z M 8 5.332031 C 8.738281 5.332031 9.332031 4.738281 9.332031 4 C 9.332031 3.261719 8.738281 2.667969 8 2.667969 C 7.261719 2.667969 6.667969 3.261719 6.667969 4 C 6.667969 4.738281 7.261719 5.332031 8 5.332031 Z M 8 5.332031 "/>
</g>
</svg>
