<?xml version="1.0" encoding="UTF-8"?>
<svg xmlns="http://www.w3.org/2000/svg" xmlns:xlink="http://www.w3.org/1999/xlink" width="16" height="16" viewBox="0 0 16 16" version="1.1">
<g id="surface1">
<path style=" stroke:none;fill-rule:nonzero;fill:rgb(0%,0%,0%);fill-opacity:1;" d="M 4.667969 7.667969 C 3.011719 7.667969 1.667969 6.324219 1.667969 4.667969 C 1.667969 3.011719 3.011719 1.667969 4.667969 1.667969 C 6.324219 1.667969 7.667969 3.011719 7.667969 4.667969 C 7.667969 6.324219 6.324219 7.667969 4.667969 7.667969 Z M 4.667969 14.332031 C 3.011719 14.332031 1.667969 12.988281 1.667969 11.332031 C 1.667969 9.675781 3.011719 8.332031 4.667969 8.332031 C 6.324219 8.332031 7.667969 9.675781 7.667969 11.332031 C 7.667969 12.988281 6.324219 14.332031 4.667969 14.332031 Z M 11.332031 7.667969 C 9.675781 7.667969 8.332031 6.324219 8.332031 4.667969 C 8.332031 3.011719 9.675781 1.667969 11.332031 1.667969 C 12.988281 1.667969 14.332031 3.011719 14.332031 4.667969 C 14.332031 6.324219 12.988281 7.667969 11.332031 7.667969 Z M 11.332031 14.332031 C 9.675781 14.332031 8.332031 12.988281 8.332031 11.332031 C 8.332031 9.675781 9.675781 8.332031 11.332031 8.332031 C 12.988281 8.332031 14.332031 9.675781 14.332031 11.332031 C 14.332031 12.988281 12.988281 14.332031 11.332031 14.332031 Z M 11.332031 14.332031 "/>
</g>
</svg>
