<?xml version="1.0" encoding="UTF-8"?>
<svg xmlns="http://www.w3.org/2000/svg" xmlns:xlink="http://www.w3.org/1999/xlink" width="16" height="16" viewBox="0 0 16 16" version="1.1">
<g id="surface1">
<path style=" stroke:none;fill-rule:evenodd;fill:rgb(0%,0%,0%);fill-opacity:1;" d="M 2 4 C 0.890625 4 0 4.890625 0 6 L 0 10 C 0 11.109375 0.890625 12 2 12 L 14 12 C 15.109375 12 16 11.109375 16 10 L 16 6 C 16 4.890625 15.109375 4 14 4 Z M 2 5 L 14 5 C 14.554688 5 15 5.445312 15 6 L 15 10 C 15 10.554688 14.554688 11 14 11 L 2 11 C 1.445312 11 1 10.554688 1 10 L 1 6 C 1 5.445312 1.445312 5 2 5 Z M 2 5 "/>
<path style=" stroke:none;fill-rule:evenodd;fill:rgb(0%,0%,0%);fill-opacity:1;" d="M 3 6 L 9 6 C 9.554688 6 10 6.445312 10 7 L 10 9 C 10 9.554688 9.554688 10 9 10 L 3 10 C 2.445312 10 2 9.554688 2 9 L 2 7 C 2 6.445312 2.445312 6 3 6 Z M 3 6 "/>
</g>
</svg>
