<?xml version="1.0" encoding="UTF-8"?>
<svg xmlns="http://www.w3.org/2000/svg" xmlns:xlink="http://www.w3.org/1999/xlink" width="16" height="16" viewBox="0 0 16 16" version="1.1">
<g id="surface1">
<path style=" stroke:none;fill-rule:nonzero;fill:rgb(0%,0%,0%);fill-opacity:1;" d="M 5.332031 12.667969 L 2 12.667969 C 1.632812 12.667969 1.332031 12.367188 1.332031 12 L 1.332031 4 C 1.332031 3.632812 1.632812 3.332031 2 3.332031 L 6.417969 3.332031 L 5.636719 4.667969 L 2.667969 4.667969 L 2.667969 11.332031 L 5.332031 11.332031 Z M 8.25 12.667969 L 9.027344 11.332031 L 12 11.332031 L 12 4.667969 L 9.332031 4.667969 L 9.332031 3.332031 L 12.667969 3.332031 C 13.035156 3.332031 13.332031 3.632812 13.332031 4 L 13.332031 12 C 13.332031 12.367188 13.035156 12.667969 12.667969 12.667969 Z M 14 6 L 15.332031 6 L 15.332031 10 L 14 10 Z M 8 7.332031 L 10 7.332031 L 6.667969 12.667969 L 6.667969 8.667969 L 4.667969 8.667969 L 8 3.332031 Z M 8 7.332031 "/>
</g>
</svg>
