<?xml version="1.0" encoding="UTF-8"?>
<svg xmlns="http://www.w3.org/2000/svg" xmlns:xlink="http://www.w3.org/1999/xlink" width="16" height="16" viewBox="0 0 16 16" version="1.1">
<g id="surface1">
<path style=" stroke:none;fill-rule:nonzero;fill:rgb(0%,0%,0%);fill-opacity:1;" d="M 8.667969 8 L 10.667969 8 L 7.332031 12.667969 L 7.332031 9.332031 L 5.332031 9.332031 L 8.667969 4.667969 Z M 7.332031 4 L 4.667969 4 L 4.667969 13.332031 L 11.332031 13.332031 L 11.332031 4 L 8.667969 4 L 8.667969 2.667969 L 7.332031 2.667969 Z M 6 2.667969 L 6 2 C 6 1.632812 6.296875 1.332031 6.667969 1.332031 L 9.332031 1.332031 C 9.703125 1.332031 10 1.632812 10 2 L 10 2.667969 L 12 2.667969 C 12.367188 2.667969 12.667969 2.964844 12.667969 3.332031 L 12.667969 14 C 12.667969 14.367188 12.367188 14.667969 12 14.667969 L 4 14.667969 C 3.632812 14.667969 3.332031 14.367188 3.332031 14 L 3.332031 3.332031 C 3.332031 2.964844 3.632812 2.667969 4 2.667969 Z M 6 2.667969 "/>
</g>
</svg>
