<?xml version="1.0" encoding="UTF-8"?>
<svg xmlns="http://www.w3.org/2000/svg" xmlns:xlink="http://www.w3.org/1999/xlink" width="16" height="16" viewBox="0 0 16 16" version="1.1">
<g id="surface1">
<path style=" stroke:none;fill-rule:nonzero;fill:rgb(0%,0%,0%);fill-opacity:1;" d="M 0.5 4 C 0.222656 4 -0.00390625 4.226562 -0.00390625 4.5 L -0.00390625 12.5 C -0.00390625 12.773438 0.222656 13 0.5 13 L 14.503906 13 C 14.78125 13 15.007812 12.773438 15.007812 12.5 L 15.007812 11 L 15.507812 11 C 15.78125 10.996094 16.003906 10.773438 16 10.5 L 16 6.5 C 16.003906 6.226562 15.78125 6.003906 15.507812 6 L 15.007812 6 L 15.007812 4.5 C 15.007812 4.226562 14.78125 4 14.503906 4 Z M 1 4.996094 L 14 4.996094 L 14 6.5 C 14.003906 6.777344 14.226562 7 14.503906 6.996094 L 15.007812 6.996094 L 15.007812 9.996094 L 14.503906 9.996094 C 14.226562 9.992188 14 10.21875 14 10.5 L 14 11.996094 L 1 11.996094 Z M 1 4.996094 "/>
<path style=" stroke:none;fill-rule:nonzero;fill:rgb(0%,0%,0%);fill-opacity:1;" d="M 2 5.996094 L 2 10.996094 L 13 10.996094 L 13 5.996094 L 2 5.996094 "/>
</g>
</svg>
