<?xml version="1.0" encoding="UTF-8"?>
<svg xmlns="http://www.w3.org/2000/svg" xmlns:xlink="http://www.w3.org/1999/xlink" width="16" height="16" viewBox="0 0 16 16" version="1.1">
<g id="surface1">
<path style=" stroke:none;fill-rule:evenodd;fill:rgb(0%,0%,0%);fill-opacity:1;" d="M 11.375 0.472656 C 11.378906 0.445312 11.382812 0.414062 11.390625 0.382812 C 11.421875 0.253906 11.5 0.140625 11.617188 0.0742188 C 11.726562 0.00390625 11.867188 -0.015625 11.992188 0.015625 C 13.023438 0.261719 13.914062 0.90625 14.46875 1.8125 C 15.023438 2.71875 15.195312 3.804688 14.945312 4.835938 C 14.878906 5.101562 14.617188 5.265625 14.347656 5.203125 C 14.21875 5.171875 14.109375 5.09375 14.039062 4.976562 C 13.96875 4.867188 13.945312 4.730469 13.976562 4.601562 C 14.164062 3.828125 14.03125 3.015625 13.617188 2.335938 C 13.203125 1.65625 12.53125 1.171875 11.757812 0.984375 C 11.523438 0.929688 11.363281 0.714844 11.375 0.472656 Z M 11.375 0.472656 "/>
<path style=" stroke:none;fill-rule:evenodd;fill:rgb(0%,0%,0%);fill-opacity:1;" d="M 4.625 0.472656 C 4.621094 0.445312 4.617188 0.414062 4.609375 0.382812 C 4.578125 0.253906 4.5 0.140625 4.382812 0.0742188 C 4.273438 0.00390625 4.132812 -0.015625 4.007812 0.015625 C 2.976562 0.261719 2.085938 0.90625 1.53125 1.8125 C 0.976562 2.71875 0.804688 3.804688 1.054688 4.835938 C 1.121094 5.101562 1.382812 5.265625 1.652344 5.203125 C 1.78125 5.171875 1.890625 5.09375 1.960938 4.976562 C 2.03125 4.867188 2.054688 4.730469 2.023438 4.601562 C 1.835938 3.828125 1.96875 3.015625 2.382812 2.335938 C 2.796875 1.65625 3.46875 1.171875 4.242188 0.984375 C 4.476562 0.929688 4.636719 0.714844 4.625 0.472656 Z M 4.625 0.472656 "/>
<path style=" stroke:none;fill-rule:nonzero;fill:rgb(0%,0%,0%);fill-opacity:1;" d="M 8 0 C 7.3125 0 6.75 0.558594 6.75 1.25 C 6.75 1.375 6.769531 1.503906 6.808594 1.625 C 5.023438 1.972656 3.5 3.097656 3.5 5.03125 C 3.5 5.085938 3.5 5.140625 3.5 5.195312 C 3.507812 9.726562 3.5 10.175781 3.5 10.175781 L 1.5 13 L 14.5 13 L 12.5 10.175781 L 12.5 5.03125 C 12.5 3.097656 10.976562 1.972656 9.191406 1.625 C 9.230469 1.503906 9.25 1.375 9.25 1.25 C 9.25 0.558594 8.6875 0 8 0 Z M 6 14 C 6 14.714844 6.382812 15.375 7 15.734375 C 7.617188 16.089844 8.382812 16.089844 9 15.734375 C 9.617188 15.375 10 14.714844 10 14 Z M 6 14 "/>
</g>
</svg>
