<?xml version="1.0" encoding="UTF-8"?>
<svg xmlns="http://www.w3.org/2000/svg" xmlns:xlink="http://www.w3.org/1999/xlink" width="16" height="16" viewBox="0 0 16 16" version="1.1">
<g id="surface1">
<path style=" stroke:none;fill-rule:nonzero;fill:rgb(0%,0%,0%);fill-opacity:1;" d="M 1 0 L 0.00390625 3 L 11 3 L 11 4 L 1 4 L 0.00390625 7 L 11 7 L 11 8 L 1 8 L 0.00390625 11 L 11 11 L 11 12 L 1 12 L 0.00390625 15 L 16 15 L 15 12 L 14.007812 12 L 14.007812 11 L 16 11 L 15 8 L 14.007812 8 L 14.007812 7 L 16 7 L 15 4 L 14.007812 4 L 14.007812 3 L 16 3 L 15 0 L 13 0 L 13 12.5 C 13 12.824219 12.910156 13.113281 12.796875 13.289062 C 12.679688 13.460938 12.578125 13.5 12.5 13.5 C 12.421875 13.5 12.328125 13.460938 12.210938 13.289062 C 12.09375 13.113281 12.007812 12.824219 12.007812 12.5 L 12.007812 0 Z M 1 0 "/>
</g>
</svg>
