<?xml version="1.0" encoding="UTF-8"?>
<svg xmlns="http://www.w3.org/2000/svg" xmlns:xlink="http://www.w3.org/1999/xlink" width="16" height="16" viewBox="0 0 16 16" version="1.1">
<g id="surface1">
<path style=" stroke:none;fill-rule:nonzero;fill:rgb(0%,0%,0%);fill-opacity:1;" d="M 9.5625 8.019531 L 12.457031 10.914062 L 8.683594 14.6875 L 7.351562 14.6875 L 7.351562 10.230469 L 4.441406 13.136719 L 3.5 12.195312 L 7.351562 8.34375 L 7.351562 7.695312 L 3.5 3.84375 L 4.441406 2.902344 L 7.351562 5.808594 L 7.351562 1.351562 L 8.683594 1.351562 L 12.457031 5.125 Z M 8.683594 9.03125 L 8.683594 12.800781 L 10.570312 10.914062 Z M 8.683594 7.007812 L 10.570312 5.125 L 8.683594 3.238281 L 8.683594 7.011719 Z M 13 9 C 12.449219 9 12 8.550781 12 8 C 12 7.449219 12.449219 7 13 7 C 13.550781 7 14 7.449219 14 8 C 14 8.550781 13.550781 9 13 9 Z M 4.332031 9 C 3.78125 9 3.332031 8.550781 3.332031 8 C 3.332031 7.449219 3.78125 7 4.332031 7 C 4.886719 7 5.332031 7.449219 5.332031 8 C 5.332031 8.550781 4.886719 9 4.332031 9 Z M 4.332031 9 "/>
</g>
</svg>
