<?xml version="1.0" encoding="UTF-8"?>
<svg xmlns="http://www.w3.org/2000/svg" xmlns:xlink="http://www.w3.org/1999/xlink" width="16" height="16" viewBox="0 0 16 16" version="1.1">
<g id="surface1">
<path style=" stroke:none;fill-rule:nonzero;fill:rgb(0%,0%,0%);fill-opacity:1;" d="M 8 0.8125 C 6.875 0.8125 5.742188 0.945312 4.828125 1.25 C 4.367188 1.398438 3.96875 1.59375 3.625 1.882812 C 3.28125 2.171875 2.996094 2.617188 2.996094 3.125 L 2.996094 15.183594 L 3.992188 14.785156 L 8 13.148438 L 13 15.183594 L 13 3.125 C 13 2.617188 12.71875 2.171875 12.378906 1.882812 C 12.039062 1.59375 11.625 1.398438 11.167969 1.25 C 10.253906 0.945312 9.132812 0.8125 8 0.8125 Z M 8 2.25 C 9.015625 2.25 10.03125 2.382812 10.71875 2.613281 C 11.0625 2.726562 11.320312 2.867188 11.449219 2.976562 C 11.578125 3.082031 11.5625 3.101562 11.5625 3.125 L 11.5625 13.042969 L 8 11.589844 L 4.4375 13.042969 L 4.4375 3.125 C 4.4375 3.101562 4.429688 3.082031 4.554688 2.976562 C 4.679688 2.867188 4.941406 2.726562 5.285156 2.613281 C 5.976562 2.382812 6.992188 2.25 8 2.25 Z M 8 2.25 "/>
</g>
</svg>
