<?xml version="1.0" encoding="UTF-8"?>
<svg xmlns="http://www.w3.org/2000/svg" xmlns:xlink="http://www.w3.org/1999/xlink" width="16" height="16" viewBox="0 0 16 16" version="1.1">
<g id="surface1">
<path style=" stroke:none;fill-rule:nonzero;fill:rgb(0%,0%,0%);fill-opacity:1;" d="M 2 12.332031 L 2 3.332031 C 2 2.230469 2.894531 1.332031 4 1.332031 L 13.332031 1.332031 C 13.703125 1.332031 14 1.632812 14 2 L 14 14 C 14 14.367188 13.703125 14.667969 13.332031 14.667969 L 4.332031 14.667969 C 3.042969 14.667969 2 13.621094 2 12.332031 Z M 12.667969 13.332031 L 12.667969 11.332031 L 4.332031 11.332031 C 3.78125 11.332031 3.332031 11.78125 3.332031 12.332031 C 3.332031 12.886719 3.78125 13.332031 4.332031 13.332031 Z M 3.332031 10.226562 C 3.644531 10.078125 3.988281 10 4.332031 10 L 12.667969 10 L 12.667969 2.667969 L 4 2.667969 C 3.632812 2.667969 3.332031 2.964844 3.332031 3.332031 Z M 3.332031 10.226562 "/>
</g>
</svg>
