<?xml version="1.0" encoding="UTF-8"?>
<svg xmlns="http://www.w3.org/2000/svg" xmlns:xlink="http://www.w3.org/1999/xlink" width="16" height="16" viewBox="0 0 16 16" version="1.1">
<g id="surface1">
<path style=" stroke:none;fill-rule:nonzero;fill:rgb(0%,0%,0%);fill-opacity:1;" d="M 8.335938 0.015625 C 7.84375 0.015625 7.351562 0.109375 6.882812 0.304688 C 6.070312 0.640625 5.421875 1.234375 5.007812 1.976562 L 4.203125 0.0898438 L 1.726562 1.078125 L 3 4.421875 C 2.710938 4.535156 2.265625 4.703125 2.25 4.710938 C 2.160156 4.761719 0.046875 7.78125 0.015625 7.910156 C -0.0234375 8.058594 0.046875 8.25 0.171875 8.335938 C 0.226562 8.375 0.664062 8.507812 1.179688 8.644531 L 2.09375 8.890625 L 2.09375 11.21875 C 2.09375 13.757812 2.089844 13.710938 2.265625 13.832031 C 2.316406 13.863281 3.828125 14.359375 5.636719 14.9375 L 5.640625 14.9375 C 7.671875 15.585938 8.976562 15.984375 9.0625 15.984375 C 9.1875 15.988281 9.421875 15.859375 11.578125 14.617188 C 12.882812 13.867188 13.992188 13.21875 14.03125 13.179688 C 14.070312 13.140625 14.121094 13.085938 14.140625 13.046875 C 14.164062 13 14.179688 12.324219 14.1875 10.617188 L 14.203125 8.246094 L 15.015625 7.84375 C 15.554688 7.578125 15.851562 7.410156 15.898438 7.351562 C 15.992188 7.234375 16.019531 7.078125 15.96875 6.941406 C 15.90625 6.785156 14.164062 4.21875 13.921875 3.921875 L 14.601562 0.546875 L 10.289062 0.554688 C 9.6875 0.199219 9.015625 0.015625 8.335938 0.015625 Z M 8 1.25 C 8.632812 1.171875 9.28125 1.335938 9.816406 1.710938 L 9.101562 5.8125 C 9.089844 5.816406 8.976562 5.871094 8.976562 5.871094 C 8.9375 5.875 7.695312 5.625 6.46875 5.390625 C 6.464844 5.375 6.457031 5.359375 6.453125 5.34375 L 5.71875 3.640625 C 5.746094 3.585938 5.765625 3.523438 5.773438 3.460938 C 5.898438 2.554688 6.492188 1.777344 7.34375 1.425781 C 7.554688 1.335938 7.777344 1.28125 8 1.25 Z M 3.667969 1.382812 L 4.5625 3.46875 C 4.578125 3.578125 4.621094 3.679688 4.6875 3.765625 L 5.289062 5.171875 C 4.898438 5.09375 4.34375 4.992188 4.246094 4.96875 C 4.246094 4.914062 4.234375 4.859375 4.21875 4.804688 L 3.015625 1.640625 Z M 13.382812 1.550781 L 12.917969 3.839844 L 10.21875 5.242188 L 10.859375 1.558594 Z M 13.429688 4.695312 C 13.480469 4.6875 13.640625 4.910156 14.21875 5.773438 C 14.625 6.375 14.960938 6.882812 14.960938 6.902344 C 14.96875 6.921875 14.039062 7.402344 12.898438 7.96875 C 11.761719 8.535156 10.808594 9.007812 10.78125 9.015625 C 10.742188 9.03125 10.609375 8.75 10.179688 7.808594 C 9.898438 7.1875 9.707031 6.75 9.671875 6.652344 L 9.78125 6.59375 Z M 2.640625 5.53125 C 2.65625 5.515625 8.347656 6.617188 8.351562 6.640625 C 8.359375 6.65625 7.988281 7.25 7.53125 7.964844 C 7.078125 8.679688 6.695312 9.257812 6.6875 9.257812 C 6.65625 9.257812 1.105469 7.757812 1.097656 7.75 C 1.09375 7.742188 1.4375 7.246094 1.859375 6.640625 C 2.285156 6.035156 2.636719 5.539062 2.640625 5.53125 Z M 8.65625 7.71875 L 8.65625 11.367188 C 8.65625 13.375 8.648438 15.011719 8.632812 15.007812 C 8.585938 15.003906 2.929688 13.195312 2.917969 13.183594 C 2.910156 13.179688 2.910156 12.257812 2.914062 11.140625 L 2.921875 9.109375 L 4.828125 9.625 C 5.878906 9.910156 6.796875 10.144531 6.871094 10.148438 C 6.960938 10.148438 7.03125 10.128906 7.089844 10.085938 C 7.136719 10.050781 7.507812 9.503906 7.914062 8.871094 Z M 9.511719 8.328125 C 9.515625 8.328125 9.523438 8.335938 9.53125 8.351562 C 9.5625 8.414062 9.734375 8.789062 9.910156 9.179688 C 10.171875 9.757812 10.25 9.898438 10.328125 9.949219 C 10.53125 10.078125 10.578125 10.054688 12.007812 9.34375 C 12.742188 8.976562 13.355469 8.679688 13.363281 8.679688 C 13.371094 8.679688 13.375 9.5625 13.371094 10.648438 L 13.363281 12.625 L 11.441406 13.734375 C 10.382812 14.347656 9.507812 14.847656 9.496094 14.851562 C 9.480469 14.851562 9.472656 13.363281 9.472656 11.546875 C 9.476562 8.726562 9.476562 8.3125 9.515625 8.328125 Z M 9.511719 8.328125 "/>
</g>
</svg>
