<?xml version="1.0" encoding="UTF-8"?>
<svg xmlns="http://www.w3.org/2000/svg" xmlns:xlink="http://www.w3.org/1999/xlink" width="16" height="16" viewBox="0 0 16 16" version="1.1">
<g id="surface1">
<path style=" stroke:none;fill-rule:evenodd;fill:rgb(0%,0%,0%);fill-opacity:1;" d="M 8.808594 8.179688 L 11.40625 6.679688 C 11.886719 6.398438 12.496094 6.5625 12.773438 7.042969 L 14.273438 9.640625 C 14.550781 10.121094 14.386719 10.730469 13.90625 11.007812 L 11.308594 12.507812 C 10.828125 12.785156 10.21875 12.621094 9.945312 12.140625 L 8.445312 9.542969 C 8.164062 9.0625 8.328125 8.453125 8.808594 8.179688 Z M 8.808594 8.179688 "/>
<path style=" stroke:none;fill-rule:nonzero;fill:rgb(0%,0%,0%);fill-opacity:1;" d="M 2.40625 0.59375 L 0.242188 1.914062 C 0.0078125 2.054688 -0.0703125 2.367188 0.0742188 2.601562 C 0.21875 2.835938 0.523438 2.914062 0.761719 2.773438 L 2.054688 1.980469 L 9.820312 15.4375 L 15.753906 11.984375 C 15.988281 11.84375 16.066406 11.539062 15.929688 11.304688 C 15.792969 11.066406 15.492188 10.984375 15.25 11.117188 L 10.179688 14.070312 Z M 2.40625 0.59375 "/>
<path style=" stroke:none;fill-rule:evenodd;fill:rgb(0%,0%,0%);fill-opacity:1;" d="M 11.625 14.464844 C 11.625 15.3125 10.9375 16 10.085938 16 C 9.242188 16 8.554688 15.3125 8.554688 14.464844 C 8.554688 13.617188 9.242188 12.929688 10.085938 12.929688 C 10.9375 12.929688 11.625 13.617188 11.625 14.464844 Z M 11.625 14.464844 "/>
<path style=" stroke:none;fill-rule:evenodd;fill:rgb(0%,0%,0%);fill-opacity:1;" d="M 5.984375 3.25 L 8.578125 1.75 C 9.0625 1.472656 9.671875 1.632812 9.945312 2.117188 L 11.445312 4.710938 C 11.726562 5.195312 11.5625 5.804688 11.078125 6.078125 L 8.484375 7.578125 C 8.003906 7.855469 7.394531 7.695312 7.117188 7.210938 L 5.617188 4.617188 C 5.339844 4.132812 5.503906 3.523438 5.984375 3.25 Z M 5.984375 3.25 "/>
</g>
</svg>
