<?xml version="1.0" encoding="UTF-8"?>
<svg xmlns="http://www.w3.org/2000/svg" xmlns:xlink="http://www.w3.org/1999/xlink" width="16" height="16" viewBox="0 0 16 16" version="1.1">
<g id="surface1">
<path style=" stroke:none;fill-rule:nonzero;fill:rgb(0%,0%,0%);fill-opacity:1;" d="M 5.605469 1 C 4.65625 1 3.8125 1.265625 3.175781 1.800781 C 2.523438 2.34375 2.207031 3.15625 2.207031 4.09375 L 2.207031 5.082031 C 2.207031 5.75 2.042969 6.234375 1.753906 6.546875 C 1.484375 6.835938 1.070312 7 0.359375 7 L 0 7 L 0 9 L 0.359375 9 C 1.066406 9 1.484375 9.164062 1.753906 9.460938 C 2.039062 9.769531 2.207031 10.25 2.207031 10.917969 L 2.207031 11.90625 C 2.207031 12.84375 2.523438 13.65625 3.175781 14.199219 C 3.8125 14.734375 4.65625 15 5.605469 15 L 7 15 L 7 13 L 5.859375 13 C 5.304688 13 5.003906 12.878906 4.851562 12.734375 C 4.703125 12.585938 4.570312 12.34375 4.570312 11.796875 L 4.570312 10.628906 C 4.570312 9.917969 4.351562 9.269531 3.902344 8.757812 C 3.617188 8.429688 3.171875 8.226562 2.757812 8 C 3.171875 7.773438 3.617188 7.574219 3.902344 7.25 C 4.347656 6.734375 4.570312 6.082031 4.570312 5.371094 L 4.570312 4.210938 C 4.570312 3.664062 4.703125 3.414062 4.851562 3.265625 C 5.003906 3.121094 5.304688 2.976562 5.859375 3 L 7 3 L 7 1 Z M 9 1 L 9 3 L 10.140625 3 C 10.695312 3 10.996094 3.125 11.144531 3.265625 C 11.296875 3.414062 11.429688 3.664062 11.429688 4.210938 L 11.429688 5.371094 C 11.429688 6.082031 11.652344 6.734375 12.097656 7.25 C 12.382812 7.574219 12.828125 7.773438 13.242188 8 C 12.828125 8.226562 12.382812 8.429688 12.097656 8.757812 C 11.648438 9.269531 11.429688 9.917969 11.429688 10.628906 L 11.429688 11.796875 C 11.429688 12.34375 11.296875 12.585938 11.144531 12.734375 C 10.996094 12.875 10.695312 13 10.140625 13 L 9 13 L 9 15 L 10.394531 15 C 11.339844 15 12.175781 14.734375 12.808594 14.199219 C 13.46875 13.65625 13.792969 12.84375 13.792969 11.90625 L 13.792969 10.917969 C 13.792969 10.25 13.960938 9.800781 14.246094 9.492188 C 14.515625 9.199219 14.933594 9.03125 15.640625 9.03125 L 16 9.03125 L 16 6.96875 L 15.640625 6.96875 C 14.929688 6.96875 14.515625 6.804688 14.246094 6.515625 C 13.957031 6.203125 13.792969 5.75 13.792969 5.082031 L 13.792969 4.09375 C 13.792969 3.15625 13.46875 2.34375 12.808594 1.800781 C 12.175781 1.265625 11.339844 1 10.394531 1 Z M 9 1 "/>
</g>
</svg>
