<?xml version="1.0" encoding="UTF-8"?>
<svg xmlns="http://www.w3.org/2000/svg" xmlns:xlink="http://www.w3.org/1999/xlink" width="16" height="16" viewBox="0 0 16 16" version="1.1">
<g id="surface1">
<path style=" stroke:none;fill-rule:nonzero;fill:rgb(0%,0%,0%);fill-opacity:1;" d="M 9.332031 2 C 9.703125 2 10 2.296875 10 2.667969 L 10 6 L 13.332031 6 C 13.703125 6 14 6.296875 14 6.667969 L 14 13.332031 C 14 13.703125 13.703125 14 13.332031 14 L 6.667969 14 C 6.296875 14 6 13.703125 6 13.332031 L 6 10 L 2.667969 10 C 2.296875 10 2 9.703125 2 9.332031 L 2 2.667969 C 2 2.296875 2.296875 2 2.667969 2 Z M 8.667969 3.332031 L 3.332031 3.332031 L 3.332031 8.667969 L 8.667969 8.667969 Z M 8.667969 3.332031 "/>
</g>
</svg>
