<?xml version="1.0" encoding="UTF-8"?>
<svg xmlns="http://www.w3.org/2000/svg" xmlns:xlink="http://www.w3.org/1999/xlink" width="16" height="16" viewBox="0 0 16 16" version="1.1">
<g id="surface1">
<path style=" stroke:none;fill-rule:evenodd;fill:rgb(0%,0%,0%);fill-opacity:1;" d="M 2 1 C 0.890625 1 0 1.890625 0 3 L 0 13 C 0 14.109375 0.890625 15 2 15 L 14 15 C 15.109375 15 16 14.109375 16 13 L 16 3 C 16 1.890625 15.109375 1 14 1 Z M 2.875 3 L 10.125 3 C 10.609375 3 11 3.390625 11 3.875 L 11 4.125 C 11 4.609375 10.609375 5 10.125 5 L 2.875 5 C 2.390625 5 2 4.609375 2 4.125 L 2 3.875 C 2 3.390625 2.390625 3 2.875 3 Z M 12.875 3 L 13.125 3 C 13.609375 3 14 3.367188 14 3.820312 L 14 4.179688 C 14 4.632812 13.609375 5 13.125 5 L 12.875 5 C 12.390625 5 12 4.632812 12 4.179688 L 12 3.820312 C 12 3.367188 12.390625 3 12.875 3 Z M 12.875 3 "/>
</g>
</svg>
