<?xml version="1.0" encoding="UTF-8"?>
<svg xmlns="http://www.w3.org/2000/svg" xmlns:xlink="http://www.w3.org/1999/xlink" width="16" height="16" viewBox="0 0 16 16" version="1.1">
<g id="surface1">
<path style=" stroke:none;fill-rule:nonzero;fill:rgb(0%,0%,0%);fill-opacity:1;" d="M 7.042969 2.765625 C 7.671875 2.632812 8.328125 2.632812 8.957031 2.765625 L 10.082031 1.644531 L 11.023438 2.585938 L 10.324219 3.285156 C 11.148438 3.761719 11.808594 4.472656 12.21875 5.332031 L 14 5.332031 L 14 6.667969 L 12.621094 6.667969 C 12.652344 6.882812 12.667969 7.105469 12.667969 7.332031 L 12.667969 8 L 14 8 L 14 9.332031 L 12.667969 9.332031 L 12.667969 10 C 12.667969 10.226562 12.652344 10.449219 12.621094 10.667969 L 14 10.667969 L 14 12 L 12.21875 12 C 11.445312 13.628906 9.804688 14.667969 8 14.667969 C 6.195312 14.667969 4.554688 13.628906 3.78125 12 L 2 12 L 2 10.667969 L 3.378906 10.667969 C 3.347656 10.445312 3.332031 10.222656 3.332031 10 L 3.332031 9.332031 L 2 9.332031 L 2 8 L 3.332031 8 L 3.332031 7.332031 C 3.332031 7.105469 3.347656 6.882812 3.378906 6.667969 L 2 6.667969 L 2 5.332031 L 3.78125 5.332031 C 4.191406 4.472656 4.851562 3.761719 5.675781 3.285156 L 4.976562 2.585938 L 5.921875 1.644531 Z M 8 4 C 6.160156 4 4.667969 5.492188 4.667969 7.332031 L 4.667969 10 C 4.667969 11.839844 6.160156 13.332031 8 13.332031 C 9.839844 13.332031 11.332031 11.839844 11.332031 10 L 11.332031 7.332031 C 11.332031 5.492188 9.839844 4 8 4 Z M 6 9.332031 L 10 9.332031 L 10 10.667969 L 6 10.667969 Z M 6 6.667969 L 10 6.667969 L 10 8 L 6 8 Z M 6 6.667969 "/>
</g>
</svg>
