<?xml version="1.0" encoding="UTF-8"?>
<svg xmlns="http://www.w3.org/2000/svg" xmlns:xlink="http://www.w3.org/1999/xlink" width="16" height="16" viewBox="0 0 16 16" version="1.1">
<g id="surface1">
<path style=" stroke:none;fill-rule:nonzero;fill:rgb(0%,0%,0%);fill-opacity:1;" d="M 8.667969 13.265625 C 10.21875 12.949219 11.332031 11.585938 11.332031 10 L 11.332031 8 C 11.335938 7.542969 11.238281 7.085938 11.058594 6.667969 L 4.941406 6.667969 C 4.761719 7.085938 4.664062 7.542969 4.667969 8 L 4.667969 10 C 4.667969 11.585938 5.78125 12.949219 7.332031 13.265625 L 7.332031 9.332031 L 8.667969 9.332031 Z M 3.691406 11.792969 C 3.453125 11.226562 3.332031 10.617188 3.332031 10 L 1.332031 10 L 1.332031 8.667969 L 3.332031 8.667969 L 3.332031 8 C 3.332031 7.570312 3.390625 7.15625 3.5 6.761719 L 2.023438 5.910156 L 2.691406 4.757812 L 4.039062 5.535156 C 4.078125 5.464844 4.125 5.398438 4.171875 5.332031 L 11.828125 5.332031 C 11.875 5.398438 11.921875 5.464844 11.960938 5.535156 L 13.308594 4.757812 L 13.976562 5.910156 L 12.5 6.761719 C 12.609375 7.15625 12.667969 7.570312 12.667969 8 L 12.667969 8.667969 L 14.667969 8.667969 L 14.667969 10 L 12.667969 10 C 12.667969 10.636719 12.539062 11.242188 12.308594 11.792969 L 13.976562 12.757812 L 13.308594 13.910156 L 11.625 12.9375 C 10.738281 14.03125 9.40625 14.667969 8 14.667969 C 6.59375 14.667969 5.261719 14.03125 4.375 12.9375 L 2.691406 13.910156 L 2.023438 12.757812 Z M 5.332031 4 C 5.332031 2.527344 6.527344 1.332031 8 1.332031 C 9.472656 1.332031 10.667969 2.527344 10.667969 4 Z M 5.332031 4 "/>
</g>
</svg>
