<?xml version="1.0" encoding="UTF-8"?>
<svg xmlns="http://www.w3.org/2000/svg" xmlns:xlink="http://www.w3.org/1999/xlink" width="16" height="16" viewBox="0 0 16 16" version="1.1">
<g id="surface1">
<path style=" stroke:none;fill-rule:evenodd;fill:rgb(0%,0%,0%);fill-opacity:1;" d="M 8.039062 1.34375 C 5.289062 1.339844 3.046875 2.445312 3.023438 3.820312 C 3.023438 3.828125 3.023438 3.835938 3.023438 3.84375 L 3.023438 5.507812 L 2.75 5.648438 C 1.664062 6.203125 0.898438 6.910156 0.5625 7.753906 C 0.476562 8.03125 0.390625 8.417969 0.390625 8.613281 L 0.390625 10.046875 L 0.386719 10.046875 L 0.386719 10.546875 C 0.386719 11.367188 0.820312 12.125 1.507812 12.726562 C 2.195312 13.332031 3.15625 13.808594 4.304688 14.148438 C 6.613281 14.820312 9.390625 14.820312 11.695312 14.148438 C 12.847656 13.808594 13.796875 13.332031 14.484375 12.726562 C 15.171875 12.125 15.609375 11.367188 15.609375 10.546875 L 15.609375 10.046875 C 15.632812 9.605469 15.640625 9.023438 15.625 8.640625 C 15.632812 8.339844 15.554688 8.039062 15.4375 7.753906 C 15.109375 6.910156 14.34375 6.203125 13.253906 5.648438 L 13.023438 5.53125 L 13.023438 3.84375 C 13.023438 2.46875 10.796875 1.351562 8.046875 1.34375 Z M 4.023438 5.34375 C 4.953125 5.964844 6.40625 6.335938 7.957031 6.34375 C 9.554688 6.351562 11.0625 5.984375 12.023438 5.34375 L 12.023438 7.84375 L 12.03125 7.84375 C 12.023438 7.875 12.023438 7.90625 12.023438 7.9375 C 12.007812 8.296875 11.671875 8.738281 10.945312 9.097656 C 10.210938 9.457031 9.148438 9.695312 7.984375 9.6875 C 6.8125 9.679688 5.765625 9.433594 5.054688 9.070312 C 4.335938 8.703125 4.019531 8.265625 4.019531 7.90625 C 4.019531 7.886719 4.015625 7.867188 4.015625 7.84375 L 4.023438 7.84375 Z M 3.023438 6.640625 L 3.023438 7.84375 L 3.027344 7.84375 C 3.023438 7.867188 3.023438 7.886719 3.023438 7.90625 C 3.023438 8.796875 3.695312 9.5 4.59375 9.960938 C 5.492188 10.421875 6.679688 10.6875 7.984375 10.691406 C 9.285156 10.695312 10.476562 10.4375 11.386719 9.992188 C 12.296875 9.539062 12.992188 8.859375 13.023438 7.96875 C 13.027344 7.925781 13.023438 7.882812 13.015625 7.84375 L 13.023438 7.84375 L 13.023438 6.664062 C 13.824219 7.117188 14.320312 7.636719 14.507812 8.117188 C 14.710938 8.640625 14.648438 9.132812 14.183594 9.695312 C 13.257812 10.824219 10.773438 11.734375 8 11.734375 C 5.226562 11.734375 2.742188 10.824219 1.820312 9.695312 C 1.355469 9.132812 1.289062 8.640625 1.492188 8.117188 C 1.6875 7.628906 2.195312 7.097656 3.023438 6.640625 Z M 1.414062 10.703125 C 2.792969 12.015625 5.273438 12.726562 8 12.726562 C 10.722656 12.726562 13.210938 12.015625 14.59375 10.703125 C 14.542969 11.125 14.308594 11.554688 13.828125 11.976562 C 13.289062 12.453125 12.460938 12.882812 11.414062 13.1875 C 9.320312 13.800781 6.679688 13.800781 4.585938 13.1875 C 3.539062 12.882812 2.710938 12.453125 2.171875 11.976562 C 1.695312 11.554688 1.460938 11.121094 1.414062 10.703125 Z M 1.414062 10.703125 "/>
</g>
</svg>
