<?xml version="1.0" encoding="UTF-8"?>
<svg xmlns="http://www.w3.org/2000/svg" xmlns:xlink="http://www.w3.org/1999/xlink" width="16" height="16" viewBox="0 0 16 16" version="1.1">
<g id="surface1">
<path style=" stroke:none;fill-rule:evenodd;fill:rgb(0%,0%,0%);fill-opacity:1;" d="M 2.167969 0.00390625 C 0.976562 0.00390625 0 0.914062 0 2.023438 L 0 10 C 0 11.109375 0.976562 12.023438 2.167969 12.023438 L 6.421875 12.023438 L 6.371094 12.78125 L 7.6875 12.023438 L 9.089844 12.023438 L 10.8125 15.007812 L 15.71875 12.179688 L 15.300781 11.460938 C 15.726562 11.09375 16 10.578125 16 10 L 16 7.03125 C 16 7.023438 16 7.015625 16 7.007812 L 16 3.039062 C 16 3.035156 16 3.03125 16 3.023438 L 16 2.023438 C 16 0.914062 15.023438 0.00390625 13.828125 0.00390625 Z M 8.363281 5.117188 L 12.8125 7.324219 L 11.589844 8.03125 L 13.664062 11.632812 L 11.359375 12.964844 L 9.289062 9.359375 L 8.636719 9.738281 L 8.046875 10.078125 Z M 1.039062 9.210938 C 1.617188 9.710938 2.382812 10.023438 3.234375 10.023438 L 6.546875 10.023438 L 6.484375 11.0625 L 2.167969 11.0625 C 1.53125 11.0625 1.039062 10.59375 1.039062 10 Z M 14.960938 9.214844 L 14.960938 10 C 14.960938 10.210938 14.882812 10.390625 14.773438 10.554688 L 14.257812 9.664062 C 14.515625 9.539062 14.75 9.394531 14.960938 9.214844 Z M 14.960938 9.214844 "/>
</g>
</svg>
