<?xml version="1.0" encoding="UTF-8"?>
<svg xmlns="http://www.w3.org/2000/svg" xmlns:xlink="http://www.w3.org/1999/xlink" width="16" height="16" viewBox="0 0 16 16" version="1.1">
<g id="surface1">
<path style=" stroke:none;fill-rule:evenodd;fill:rgb(0%,0%,0%);fill-opacity:1;" d="M 7.390625 5.929688 C 7.382812 5.898438 7.382812 5.867188 7.382812 5.839844 C 7.382812 5.707031 7.4375 5.578125 7.53125 5.484375 C 7.625 5.390625 7.75 5.335938 7.882812 5.335938 C 8.945312 5.335938 9.960938 5.757812 10.710938 6.507812 C 11.460938 7.257812 11.882812 8.273438 11.882812 9.335938 C 11.878906 9.609375 11.660156 9.828125 11.386719 9.835938 C 11.253906 9.835938 11.125 9.78125 11.03125 9.6875 C 10.9375 9.59375 10.886719 9.46875 10.886719 9.335938 C 10.886719 8.539062 10.570312 7.777344 10.007812 7.214844 C 9.445312 6.652344 8.679688 6.339844 7.882812 6.339844 C 7.640625 6.339844 7.433594 6.164062 7.390625 5.929688 Z M 7.390625 5.929688 "/>
<path style=" stroke:none;fill-rule:evenodd;fill:rgb(0%,0%,0%);fill-opacity:1;" d="M 7.398438 3.925781 C 7.390625 3.898438 7.390625 3.867188 7.390625 3.835938 C 7.390625 3.703125 7.441406 3.578125 7.535156 3.484375 C 7.628906 3.386719 7.757812 3.335938 7.890625 3.335938 C 9.476562 3.335938 11 3.96875 12.125 5.09375 C 13.25 6.21875 13.882812 7.75 13.882812 9.339844 C 13.882812 9.617188 13.65625 9.835938 13.382812 9.835938 C 13.109375 9.828125 12.890625 9.609375 12.890625 9.335938 C 12.890625 8.011719 12.359375 6.742188 11.421875 5.804688 C 10.484375 4.867188 9.214844 4.335938 7.890625 4.335938 C 7.648438 4.335938 7.4375 4.164062 7.398438 3.925781 Z M 7.398438 3.925781 "/>
<path style=" stroke:none;fill-rule:evenodd;fill:rgb(0%,0%,0%);fill-opacity:1;" d="M 7.398438 1.929688 C 7.390625 1.898438 7.386719 1.867188 7.386719 1.835938 C 7.386719 1.703125 7.4375 1.574219 7.53125 1.480469 C 7.625 1.382812 7.753906 1.332031 7.886719 1.332031 C 10.007812 1.332031 12.042969 2.175781 13.542969 3.675781 C 15.042969 5.179688 15.886719 7.21875 15.886719 9.335938 C 15.886719 9.46875 15.835938 9.601562 15.742188 9.695312 C 15.648438 9.789062 15.519531 9.839844 15.386719 9.839844 C 15.253906 9.839844 15.125 9.789062 15.03125 9.695312 C 14.9375 9.601562 14.882812 9.472656 14.882812 9.339844 C 14.882812 7.484375 14.152344 5.695312 12.839844 4.382812 C 11.523438 3.070312 9.742188 2.335938 7.886719 2.335938 C 7.648438 2.335938 7.445312 2.164062 7.398438 1.929688 Z M 7.398438 1.929688 "/>
<path style=" stroke:none;fill-rule:nonzero;fill:rgb(0%,0%,0%);fill-opacity:1;" d="M 2.355469 14.554688 L 2.355469 13.210938 L 0.113281 13.210938 L 0.113281 12.085938 L 2.488281 7.84375 L 3.375 7.84375 L 3.375 12.085938 L 4.050781 12.085938 L 4.050781 13.210938 L 3.375 13.210938 L 3.375 14.554688 Z M 2.355469 12.085938 L 2.355469 9.800781 L 1.097656 12.085938 Z M 2.355469 12.085938 "/>
<path style=" stroke:none;fill-rule:nonzero;fill:rgb(0%,0%,0%);fill-opacity:1;" d="M 7.34375 12.097656 L 7.34375 10.96875 L 9.730469 10.96875 L 9.730469 13.632812 C 9.492188 13.914062 9.148438 14.15625 8.710938 14.359375 C 8.265625 14.5625 7.828125 14.667969 7.382812 14.667969 C 6.84375 14.667969 6.367188 14.535156 5.953125 14.273438 C 5.539062 14.003906 5.210938 13.605469 4.96875 13.078125 C 4.726562 12.546875 4.609375 11.921875 4.609375 11.203125 C 4.609375 10.46875 4.726562 9.839844 4.972656 9.316406 C 5.21875 8.796875 5.535156 8.40625 5.921875 8.148438 C 6.316406 7.886719 6.785156 7.757812 7.328125 7.757812 C 7.980469 7.757812 8.503906 7.925781 8.898438 8.257812 C 9.289062 8.589844 9.546875 9.078125 9.65625 9.722656 L 8.5625 9.972656 C 8.480469 9.628906 8.328125 9.367188 8.109375 9.1875 C 7.890625 9 7.632812 8.914062 7.328125 8.914062 C 6.859375 8.914062 6.476562 9.09375 6.183594 9.460938 C 5.890625 9.828125 5.746094 10.382812 5.746094 11.132812 C 5.746094 11.9375 5.90625 12.554688 6.21875 12.972656 C 6.492188 13.335938 6.859375 13.515625 7.320312 13.515625 C 7.535156 13.515625 7.757812 13.464844 7.988281 13.363281 C 8.222656 13.257812 8.429688 13.121094 8.613281 12.945312 L 8.613281 12.097656 Z M 7.34375 12.097656 "/>
</g>
</svg>
