<?xml version="1.0" encoding="UTF-8"?>
<svg xmlns="http://www.w3.org/2000/svg" xmlns:xlink="http://www.w3.org/1999/xlink" width="16" height="16" viewBox="0 0 16 16" version="1.1">
<g id="surface1">
<path style=" stroke:none;fill-rule:nonzero;fill:rgb(0%,0%,0%);fill-opacity:1;" d="M 13.058594 14 L 2 14 C 1.632812 14 1.332031 13.703125 1.332031 13.332031 L 1.332031 4 C 1.332031 3.632812 1.632812 3.332031 2 3.332031 L 2.390625 3.332031 L 0.929688 1.871094 L 1.871094 0.929688 L 15.070312 14.128906 L 14.128906 15.070312 Z M 5.039062 5.980469 C 3.605469 7.558594 3.664062 9.984375 5.171875 11.496094 C 6.679688 13.003906 9.105469 13.0625 10.6875 11.628906 L 9.742188 10.683594 C 8.683594 11.597656 7.101562 11.542969 6.113281 10.554688 C 5.125 9.566406 5.066406 7.980469 5.980469 6.925781 L 5.035156 5.980469 Z M 14.667969 11.855469 L 11.96875 9.160156 C 12.121094 7.9375 11.703125 6.710938 10.828125 5.835938 C 9.957031 4.964844 8.730469 4.542969 7.507812 4.695312 L 5.402344 2.59375 L 6 2 L 10 2 L 11.332031 3.332031 L 14 3.332031 C 14.367188 3.332031 14.667969 3.632812 14.667969 4 Z M 9.003906 6.195312 C 9.671875 6.46875 10.199219 6.996094 10.46875 7.660156 Z M 9.003906 6.195312 "/>
</g>
</svg>
