<?xml version="1.0" encoding="UTF-8"?>
<svg xmlns="http://www.w3.org/2000/svg" xmlns:xlink="http://www.w3.org/1999/xlink" width="16" height="16" viewBox="0 0 16 16" version="1.1">
<g id="surface1">
<path style=" stroke:none;fill-rule:nonzero;fill:rgb(0%,0%,0%);fill-opacity:1;" d="M 12.667969 14 L 3.332031 14 L 3.332031 14.667969 C 3.332031 15.035156 3.035156 15.332031 2.667969 15.332031 L 2 15.332031 C 1.632812 15.332031 1.332031 15.035156 1.332031 14.667969 L 1.332031 8.667969 L 2.945312 5.980469 C 3.1875 5.578125 3.621094 5.332031 4.089844 5.332031 L 11.910156 5.332031 C 12.378906 5.332031 12.8125 5.578125 13.054688 5.980469 L 14.667969 8.667969 L 14.667969 14.667969 C 14.667969 15.035156 14.367188 15.332031 14 15.332031 L 13.332031 15.332031 C 12.964844 15.332031 12.667969 15.035156 12.667969 14.667969 Z M 2.886719 8.667969 L 13.113281 8.667969 L 11.910156 6.667969 L 4.089844 6.667969 Z M 4.332031 12 C 4.886719 12 5.332031 11.550781 5.332031 11 C 5.332031 10.449219 4.886719 10 4.332031 10 C 3.78125 10 3.332031 10.449219 3.332031 11 C 3.332031 11.550781 3.78125 12 4.332031 12 Z M 11.667969 12 C 12.21875 12 12.667969 11.550781 12.667969 11 C 12.667969 10.449219 12.21875 10 11.667969 10 C 11.113281 10 10.667969 10.449219 10.667969 11 C 10.667969 11.550781 11.113281 12 11.667969 12 Z M 3.625 2.292969 L 4.332031 1.585938 L 5.039062 2.292969 C 5.429688 2.683594 5.429688 3.316406 5.039062 3.707031 C 4.648438 4.097656 4.015625 4.097656 3.625 3.707031 C 3.234375 3.316406 3.234375 2.683594 3.625 2.292969 Z M 7.292969 2.292969 L 8 1.585938 L 8.707031 2.292969 C 9.097656 2.683594 9.097656 3.316406 8.707031 3.707031 C 8.316406 4.097656 7.683594 4.097656 7.292969 3.707031 C 6.902344 3.316406 6.902344 2.683594 7.292969 2.292969 Z M 10.960938 2.292969 L 11.667969 1.585938 L 12.375 2.292969 C 12.765625 2.683594 12.765625 3.316406 12.375 3.707031 C 11.984375 4.097656 11.351562 4.097656 10.960938 3.707031 C 10.570312 3.316406 10.570312 2.683594 10.960938 2.292969 Z M 10.960938 2.292969 "/>
</g>
</svg>
