<?xml version="1.0" encoding="UTF-8"?>
<svg xmlns="http://www.w3.org/2000/svg" xmlns:xlink="http://www.w3.org/1999/xlink" width="16" height="16" viewBox="0 0 16 16" version="1.1">
<g id="surface1">
<path style=" stroke:none;fill-rule:nonzero;fill:rgb(0%,0%,0%);fill-opacity:1;" d="M 3.332031 10 L 3.332031 12.667969 L 6 12.667969 L 6 14 L 2 14 L 2 10 Z M 14 10 L 14 14 L 10 14 L 10 12.667969 L 12.667969 12.667969 L 12.667969 10 Z M 8.664062 4 L 11.597656 11.332031 L 10.164062 11.332031 L 9.363281 9.332031 L 6.636719 9.332031 L 5.835938 11.332031 L 4.398438 11.332031 L 7.332031 4 Z M 8 5.921875 L 7.167969 8 L 8.828125 8 Z M 6 2 L 6 3.332031 L 3.332031 3.332031 L 3.332031 6 L 2 6 L 2 2 Z M 14 2 L 14 6 L 12.667969 6 L 12.667969 3.332031 L 10 3.332031 L 10 2 Z M 14 2 "/>
</g>
</svg>
