<?xml version="1.0" encoding="UTF-8"?>
<svg xmlns="http://www.w3.org/2000/svg" xmlns:xlink="http://www.w3.org/1999/xlink" width="16" height="16" viewBox="0 0 16 16" version="1.1">
<g id="surface1">
<path style=" stroke:none;fill-rule:nonzero;fill:rgb(0%,0%,0%);fill-opacity:1;" d="M 6.910156 13.222656 L 8.195312 10.992188 C 7.035156 11.070312 5.9375 10.46875 5.375 9.449219 L 3.195312 5.679688 C 2.480469 7.160156 2.488281 8.882812 3.214844 10.355469 C 3.9375 11.828125 5.300781 12.886719 6.910156 13.222656 Z M 8.394531 13.320312 C 10.03125 13.199219 11.519531 12.332031 12.433594 10.964844 C 13.347656 9.601562 13.582031 7.894531 13.066406 6.332031 L 10.496094 6.332031 C 10.824219 6.828125 11 7.40625 11 8 C 11 8.542969 10.851562 9.078125 10.570312 9.546875 Z M 9.429688 8.859375 L 9.441406 8.832031 C 9.84375 8.136719 9.691406 7.25 9.078125 6.730469 C 8.464844 6.210938 7.566406 6.199219 6.945312 6.710938 C 6.320312 7.21875 6.152344 8.101562 6.539062 8.804688 L 6.558594 8.832031 C 6.851562 9.34375 7.394531 9.664062 7.984375 9.667969 C 8.574219 9.671875 9.125 9.363281 9.429688 8.859375 Z M 4.023438 4.445312 L 5.308594 6.671875 C 5.816406 5.648438 6.859375 5 8 5 L 12.410156 5 C 11.417969 3.539062 9.765625 2.664062 8 2.667969 C 6.480469 2.664062 5.035156 3.3125 4.023438 4.445312 Z M 8 14.667969 C 4.316406 14.667969 1.332031 11.683594 1.332031 8 C 1.332031 4.316406 4.316406 1.332031 8 1.332031 C 11.683594 1.332031 14.667969 4.316406 14.667969 8 C 14.667969 11.683594 11.683594 14.667969 8 14.667969 Z M 8 14.667969 "/>
</g>
</svg>
