<?xml version="1.0" encoding="UTF-8"?>
<svg xmlns="http://www.w3.org/2000/svg" xmlns:xlink="http://www.w3.org/1999/xlink" width="16" height="16" viewBox="0 0 16 16" version="1.1">
<g id="surface1">
<path style=" stroke:none;fill-rule:nonzero;fill:rgb(0%,0%,0%);fill-opacity:1;" d="M 4.667969 2.667969 L 4.667969 1.332031 L 11.332031 1.332031 L 11.332031 2.667969 L 13.339844 2.667969 C 13.703125 2.667969 14 2.964844 14 3.328125 L 14 14.003906 C 14 14.371094 13.703125 14.667969 13.339844 14.667969 L 2.660156 14.667969 C 2.296875 14.667969 2 14.371094 2 14.003906 L 2 3.328125 C 2 2.964844 2.296875 2.667969 2.660156 2.667969 Z M 4.667969 4 L 3.332031 4 L 3.332031 13.332031 L 12.667969 13.332031 L 12.667969 4 L 11.332031 4 L 11.332031 5.332031 L 4.667969 5.332031 Z M 6 2.667969 L 6 4 L 10 4 L 10 2.667969 Z M 6 2.667969 "/>
</g>
</svg>
