<?xml version="1.0" encoding="UTF-8"?>
<svg xmlns="http://www.w3.org/2000/svg" xmlns:xlink="http://www.w3.org/1999/xlink" width="16" height="16" viewBox="0 0 16 16" version="1.1">
<g id="surface1">
<path style=" stroke:none;fill-rule:nonzero;fill:rgb(0%,0%,0%);fill-opacity:1;" d="M 9.332031 12 L 9.332031 10.667969 L 11.667969 10.667969 C 12.726562 10.667969 13.652344 9.953125 13.921875 8.929688 C 14.191406 7.90625 13.738281 6.828125 12.820312 6.304688 C 11.898438 5.78125 10.742188 5.945312 10 6.699219 L 10 6.667969 C 10 4.457031 8.210938 2.667969 6 2.667969 C 3.789062 2.667969 2 4.457031 2 6.667969 L 2 6.671875 L 0.667969 6.671875 L 0.667969 6.667969 C 0.664062 4.097656 2.492188 1.894531 5.015625 1.421875 C 7.539062 0.945312 10.042969 2.339844 10.972656 4.734375 C 12.339844 4.46875 13.738281 5.003906 14.582031 6.113281 C 15.425781 7.222656 15.570312 8.710938 14.949219 9.960938 C 14.332031 11.210938 13.058594 12 11.667969 12 Z M 4 13.332031 L 10.667969 13.332031 L 10.667969 14.667969 L 4 14.667969 Z M 4 8 L 9.332031 8 L 9.332031 9.332031 L 4 9.332031 Z M 1.332031 10.667969 L 8 10.667969 L 8 12 L 1.332031 12 Z M 1.332031 10.667969 "/>
</g>
</svg>
