<?xml version="1.0" encoding="UTF-8"?>
<svg xmlns="http://www.w3.org/2000/svg" xmlns:xlink="http://www.w3.org/1999/xlink" width="16" height="16" viewBox="0 0 16 16" version="1.1">
<g id="surface1">
<path style=" stroke:none;fill-rule:nonzero;fill:rgb(0%,0%,0%);fill-opacity:1;" d="M 15.332031 8 L 15.332031 9.332031 C 15.332031 11.542969 12.050781 13.332031 8 13.332031 C 4.023438 13.332031 0.785156 11.605469 0.671875 9.453125 L 0.667969 9.332031 L 0.667969 8 C 0.667969 10.210938 3.949219 12 8 12 C 12.050781 12 15.332031 10.210938 15.332031 8 Z M 8 2.667969 C 12.050781 2.667969 15.332031 4.457031 15.332031 6.667969 C 15.332031 8.875 12.050781 10.667969 8 10.667969 C 3.949219 10.667969 0.667969 8.875 0.667969 6.667969 C 0.667969 4.457031 3.949219 2.667969 8 2.667969 Z M 8 2.667969 "/>
</g>
</svg>
