<?xml version="1.0" encoding="UTF-8"?>
<svg xmlns="http://www.w3.org/2000/svg" xmlns:xlink="http://www.w3.org/1999/xlink" width="16" height="16" viewBox="0 0 16 16" version="1.1">
<g id="surface1">
<path style=" stroke:none;fill-rule:nonzero;fill:rgb(0%,0%,0%);fill-opacity:1;" d="M 8 2.667969 C 12.050781 2.667969 15.332031 4.457031 15.332031 6.667969 L 15.332031 9.332031 C 15.332031 11.542969 12.050781 13.332031 8 13.332031 C 4.023438 13.332031 0.785156 11.605469 0.671875 9.453125 L 0.667969 9.332031 L 0.667969 6.667969 C 0.667969 4.457031 3.949219 2.667969 8 2.667969 Z M 8 10.667969 C 5.519531 10.667969 3.328125 9.996094 2 8.964844 L 2 9.332031 C 2 10.589844 4.589844 12 8 12 C 11.339844 12 13.890625 10.648438 13.996094 9.410156 L 14 9.332031 L 14 8.964844 C 12.675781 9.996094 10.480469 10.667969 8 10.667969 Z M 8 4 C 4.589844 4 2 5.410156 2 6.667969 C 2 7.921875 4.589844 9.332031 8 9.332031 C 11.410156 9.332031 14 7.921875 14 6.667969 C 14 5.410156 11.410156 4 8 4 Z M 8 4 "/>
</g>
</svg>
