<?xml version="1.0" encoding="UTF-8"?>
<svg xmlns="http://www.w3.org/2000/svg" xmlns:xlink="http://www.w3.org/1999/xlink" width="16" height="16" viewBox="0 0 16 16" version="1.1">
<g id="surface1">
<path style=" stroke:none;fill-rule:nonzero;fill:rgb(0%,0%,0%);fill-opacity:1;" d="M 7.332031 2.75 L 7.332031 1.332031 L 8.667969 1.332031 L 8.667969 2.75 C 9.597656 2.992188 10.328125 3.714844 10.574219 4.644531 C 10.824219 5.570312 10.554688 6.5625 9.867188 7.234375 L 13.910156 14.238281 L 12.757812 14.902344 L 8.714844 7.902344 C 8.246094 8.03125 7.753906 8.03125 7.285156 7.902344 L 3.242188 14.902344 L 2.089844 14.238281 L 6.132812 7.234375 C 5.445312 6.5625 5.175781 5.570312 5.425781 4.644531 C 5.671875 3.714844 6.402344 2.992188 7.332031 2.75 Z M 8 6.667969 C 8.738281 6.667969 9.332031 6.070312 9.332031 5.332031 C 9.332031 4.597656 8.738281 4 8 4 C 7.261719 4 6.667969 4.597656 6.667969 5.332031 C 6.667969 6.070312 7.261719 6.667969 8 6.667969 Z M 8 6.667969 "/>
</g>
</svg>
