<?xml version="1.0" encoding="UTF-8"?>
<svg xmlns="http://www.w3.org/2000/svg" xmlns:xlink="http://www.w3.org/1999/xlink" width="16" height="16" viewBox="0 0 16 16" version="1.1">
<g id="surface1">
<path style=" stroke:none;fill-rule:nonzero;fill:rgb(0%,0%,0%);fill-opacity:1;" d="M 0 0.96875 L 0 2.96875 C 1.1875 3.230469 2.035156 3.757812 2.816406 4.304688 C 1.277344 6.976562 4.5 9.410156 4.5 9.410156 L 9.5 4.410156 C 9.5 4.410156 6.949219 1.023438 4.199219 2.84375 C 3.242188 2.179688 1.921875 1.324219 0 0.96875 Z M 10.5 5.410156 L 5.5 10.410156 L 6.5 11.410156 C 6.5 11.410156 9.125 14.90625 11.921875 12.902344 C 12.859375 13.699219 14.140625 14.574219 16 15.03125 L 16 13.007812 C 14.765625 12.652344 13.949219 12.054688 13.238281 11.425781 C 14.65625 8.789062 11.5 6.410156 11.5 6.410156 Z M 10.5 5.410156 "/>
</g>
</svg>
