<?xml version="1.0" encoding="UTF-8"?>
<svg xmlns="http://www.w3.org/2000/svg" xmlns:xlink="http://www.w3.org/1999/xlink" width="16" height="16" viewBox="0 0 16 16" version="1.1">
<g id="surface1">
<path style=" stroke:none;fill-rule:nonzero;fill:rgb(0%,0%,0%);fill-opacity:1;" d="M 8 1.332031 C 11.679688 1.332031 14.667969 4.320312 14.667969 8 C 14.667969 11.679688 11.679688 14.667969 8 14.667969 C 4.320312 14.667969 1.332031 11.679688 1.332031 8 C 1.332031 4.320312 4.320312 1.332031 8 1.332031 Z M 8 4 C 6.597656 4 5.394531 5.039062 4.90625 6.511719 L 4.855469 6.667969 L 4 6.667969 L 5.667969 8.667969 L 7.332031 6.667969 L 6.265625 6.667969 C 6.613281 5.871094 7.261719 5.332031 8 5.332031 C 9.105469 5.332031 10 6.527344 10 8 C 10 9.472656 9.105469 10.667969 8 10.667969 C 7.300781 10.667969 6.6875 10.1875 6.328125 9.464844 L 6.269531 9.332031 L 4.855469 9.332031 C 5.3125 10.886719 6.546875 12 8 12 C 9.839844 12 11.332031 10.210938 11.332031 8 C 11.332031 5.789062 9.839844 4 8 4 Z M 8 4 "/>
</g>
</svg>
