<?xml version="1.0" encoding="UTF-8"?>
<svg xmlns="http://www.w3.org/2000/svg" xmlns:xlink="http://www.w3.org/1999/xlink" width="16" height="16" viewBox="0 0 16 16" version="1.1">
<g id="surface1">
<path style=" stroke:none;fill-rule:nonzero;fill:rgb(0%,0%,0%);fill-opacity:1;" d="M 8 1.332031 C 11.679688 1.332031 14.667969 4.320312 14.667969 8 C 14.667969 11.679688 11.679688 14.667969 8 14.667969 C 4.320312 14.667969 1.332031 11.679688 1.332031 8 C 1.332031 4.320312 4.320312 1.332031 8 1.332031 Z M 8 2.667969 C 5.058594 2.667969 2.667969 5.058594 2.667969 8 C 2.667969 10.941406 5.058594 13.332031 8 13.332031 C 10.941406 13.332031 13.332031 10.941406 13.332031 8 C 13.332031 5.058594 10.941406 2.667969 8 2.667969 Z M 8 4 C 9.839844 4 11.332031 5.789062 11.332031 8 C 11.332031 10.210938 9.839844 12 8 12 C 6.160156 12 4.667969 10.210938 4.667969 8 C 4.667969 5.789062 6.160156 4 8 4 Z M 9.550781 6.316406 L 7.175781 10.429688 C 7.425781 10.582031 7.707031 10.667969 8 10.667969 C 9.105469 10.667969 10 9.472656 10 8 C 10 7.359375 9.832031 6.773438 9.550781 6.316406 Z M 8 5.332031 C 6.894531 5.332031 6 6.527344 6 8 C 6 8.640625 6.167969 9.226562 6.449219 9.683594 L 8.824219 5.570312 C 8.578125 5.417969 8.292969 5.335938 8 5.332031 Z M 8 5.332031 "/>
</g>
</svg>
