<?xml version="1.0" encoding="UTF-8"?>
<svg xmlns="http://www.w3.org/2000/svg" xmlns:xlink="http://www.w3.org/1999/xlink" width="16" height="16" viewBox="0 0 16 16" version="1.1">
<g id="surface1">
<path style=" stroke:none;fill-rule:nonzero;fill:rgb(0%,0%,0%);fill-opacity:1;" d="M 2.835938 3.78125 L 5.222656 6.164062 C 4.9375 6.664062 4.925781 7.277344 5.195312 7.785156 C 5.46875 8.292969 5.984375 8.625 6.558594 8.664062 L 6.667969 8.667969 L 9.332031 8.667969 L 9.394531 8.671875 C 9.550781 8.699219 9.667969 8.839844 9.667969 9 C 9.667969 9.160156 9.550781 9.300781 9.394531 9.328125 L 9.332031 9.332031 L 5.667969 9.332031 L 5.667969 10.667969 L 7.332031 10.667969 L 7.332031 12 L 8.667969 12 L 8.667969 10.667969 L 9.332031 10.667969 C 9.414062 10.667969 9.492188 10.660156 9.570312 10.648438 L 9.6875 10.628906 L 12.21875 13.164062 C 11.027344 14.136719 9.539062 14.667969 8 14.667969 C 4.316406 14.667969 1.332031 11.683594 1.332031 8 C 1.332031 6.398438 1.898438 4.929688 2.835938 3.78125 Z M 8 1.332031 C 11.683594 1.332031 14.667969 4.316406 14.667969 8 C 14.667969 9.601562 14.101562 11.070312 13.164062 12.21875 L 10.777344 9.835938 C 11.066406 9.335938 11.074219 8.722656 10.804688 8.214844 C 10.53125 7.707031 10.019531 7.375 9.441406 7.335938 L 9.332031 7.332031 L 6.667969 7.332031 L 6.605469 7.328125 C 6.449219 7.300781 6.332031 7.160156 6.332031 7 C 6.332031 6.839844 6.449219 6.699219 6.605469 6.671875 L 6.667969 6.667969 L 10.332031 6.667969 L 10.332031 5.332031 L 8.667969 5.332031 L 8.667969 4 L 7.332031 4 L 7.332031 5.332031 L 6.667969 5.332031 C 6.585938 5.332031 6.507812 5.339844 6.429688 5.351562 L 6.3125 5.371094 L 3.78125 2.835938 C 4.972656 1.863281 6.460938 1.332031 8 1.332031 Z M 8 1.332031 "/>
</g>
</svg>
