<?xml version="1.0" encoding="UTF-8"?>
<svg xmlns="http://www.w3.org/2000/svg" xmlns:xlink="http://www.w3.org/1999/xlink" width="16" height="16" viewBox="0 0 16 16" version="1.1">
<g id="surface1">
<path style=" stroke:none;fill-rule:nonzero;fill:rgb(0%,0%,0%);fill-opacity:1;" d="M 10.828125 2.34375 L 8 5.171875 L 5.171875 2.34375 C 4.78125 1.953125 4.148438 1.953125 3.757812 2.34375 L 2.34375 3.757812 C 1.953125 4.148438 1.953125 4.78125 2.34375 5.171875 L 5.171875 8 L 2.34375 10.828125 C 1.953125 11.21875 1.953125 11.851562 2.34375 12.242188 L 3.757812 13.65625 C 4.148438 14.046875 4.78125 14.046875 5.171875 13.65625 L 8 10.828125 L 10.828125 13.65625 C 11.21875 14.046875 11.851562 14.046875 12.242188 13.65625 L 13.65625 12.242188 C 14.046875 11.851562 14.046875 11.21875 13.65625 10.828125 L 10.828125 8 L 13.65625 5.171875 C 14.046875 4.78125 14.046875 4.148438 13.65625 3.757812 L 12.242188 2.34375 C 11.851562 1.953125 11.21875 1.953125 10.828125 2.34375 Z M 10.828125 2.34375 "/>
</g>
</svg>
