<?xml version="1.0" encoding="UTF-8"?>
<svg xmlns="http://www.w3.org/2000/svg" xmlns:xlink="http://www.w3.org/1999/xlink" width="16" height="16" viewBox="0 0 16 16" version="1.1">
<g id="surface1">
<path style=" stroke:none;fill-rule:nonzero;fill:rgb(0%,0%,0%);fill-opacity:1;" d="M 3.898438 14.5 C 2.488281 10.226562 4.445312 7.703125 9.898438 8.5 L 9.898438 11.5 L 14.898438 6.5 L 9.898438 1.5 L 9.898438 4.5 C 1.15625 3.8125 -1.53125 10.960938 3.898438 14.5 Z M 3.898438 14.5 "/>
<path style=" stroke:none;fill-rule:nonzero;fill:rgb(0%,0%,0%);fill-opacity:1;" d="M 9.945312 1 C 9.804688 0.984375 9.664062 1.035156 9.558594 1.132812 C 9.453125 1.226562 9.398438 1.359375 9.398438 1.5 L 9.398438 4.085938 C 5.234375 3.929688 2.28125 5.433594 1.136719 7.6875 C -0.0625 10.054688 0.75 13.046875 3.625 14.921875 C 3.804688 15.039062 4.03125 15.027344 4.203125 14.898438 C 4.367188 14.765625 4.4375 14.546875 4.371094 14.347656 C 3.695312 12.304688 3.859375 10.828125 4.6875 9.9375 C 5.445312 9.125 7.125 8.84375 9.398438 9.078125 L 9.398438 11.503906 C 9.398438 11.707031 9.523438 11.890625 9.710938 11.964844 C 9.898438 12.039062 10.109375 11.996094 10.253906 11.851562 L 15.25 6.851562 C 15.34375 6.757812 15.398438 6.632812 15.398438 6.5 C 15.398438 6.367188 15.34375 6.242188 15.25 6.144531 L 10.253906 1.148438 C 10.171875 1.0625 10.0625 1.011719 9.945312 1 Z M 10.394531 2.703125 L 14.1875 6.5 L 10.394531 10.300781 L 10.394531 8.5 C 10.394531 8.25 10.210938 8.039062 9.964844 8.007812 C 7.15625 7.59375 5.117188 8.015625 3.957031 9.257812 C 3.078125 10.203125 3.320312 11.785156 3.558594 13.34375 C 1.773438 11.75 1.183594 9.8125 2.03125 8.140625 C 3 6.21875 5.625 4.667969 9.855469 5 C 9.992188 5.011719 10.132812 4.964844 10.234375 4.867188 C 10.335938 4.773438 10.394531 4.640625 10.394531 4.5 Z M 10.394531 2.703125 "/>
</g>
</svg>
