<?xml version="1.0" encoding="UTF-8"?>
<svg xmlns="http://www.w3.org/2000/svg" xmlns:xlink="http://www.w3.org/1999/xlink" width="16" height="16" viewBox="0 0 16 16" version="1.1">
<g id="surface1">
<path style=" stroke:none;fill-rule:evenodd;fill:rgb(0%,0%,0%);fill-opacity:1;" d="M 0 0 L 0 16 L 16 16 L 16 15 L 13 15 L 13 11 L 14 11 L 14 9 L 11 9 L 11 7 L 5 7 L 5 5 L 6 5 L 6 4 L 7 4 L 7 3 L 9 3 L 9 5 L 7 5 L 7 6 L 10 6 L 10 4 L 14 4 L 14 2 L 16 2 L 16 1 L 15 1 L 15 0 L 14 0 L 14 1 L 13 1 L 13 0 L 12 0 L 12 1 L 10 1 L 10 0 L 9 0 L 9 2 L 8 2 L 8 0 L 7 0 L 7 2 L 5 2 L 5 4 L 4 4 L 4 5 L 2 5 L 2 6 L 4 6 L 4 7 L 3 7 L 3 8 L 4 8 L 4 9 L 3 9 L 3 8 L 2 8 L 2 10 L 7 10 L 7 8 L 10 8 L 10 13 L 11 13 L 11 14 L 12 14 L 12 15 L 10 15 L 10 13 L 9 13 L 9 14 L 7 14 L 7 15 L 5 15 L 5 14 L 3 14 L 3 15 L 1 15 L 1 5 L 2 5 L 2 2 L 1 2 L 1 0 Z M 2 2 L 3 2 L 3 0 L 2 0 Z M 9 13 L 9 12 L 8 12 L 8 13 Z M 11 7 L 12 7 L 12 8 L 14 8 L 14 9 L 15 9 L 15 7 L 16 7 L 16 6 L 11 6 Z M 15 9 L 15 10 L 16 10 L 16 9 Z M 14 11 L 14 13 L 15 13 L 15 12 L 16 12 L 16 11 Z M 15 13 L 15 14 L 16 14 L 16 13 Z M 5 0 L 5 1 L 6 1 L 6 0 Z M 10 2 L 12 2 L 12 3 L 10 3 Z M 15 4 L 15 5 L 16 5 L 16 4 Z M 8 9 L 8 10 L 9 10 L 9 9 Z M 6 11 L 6 12 L 5 12 L 5 13 L 7 13 L 7 11 Z M 2 12 L 2 13 L 3 13 L 3 12 Z M 2 12 "/>
</g>
</svg>
