<?xml version="1.0" encoding="UTF-8"?>
<svg xmlns="http://www.w3.org/2000/svg" xmlns:xlink="http://www.w3.org/1999/xlink" width="16" height="16" viewBox="0 0 16 16" version="1.1">
<g id="surface1">
<path style=" stroke:none;fill-rule:nonzero;fill:rgb(0%,0%,0%);fill-opacity:1;" d="M 8 1.332031 C 4.316406 1.332031 1.332031 4.316406 1.332031 8 C 1.332031 11.683594 4.316406 14.667969 8 14.667969 C 11.683594 14.667969 14.667969 11.683594 14.667969 8 C 14.667969 4.316406 11.683594 1.332031 8 1.332031 Z M 10.992188 7.359375 L 10.988281 7.371094 C 10.710938 7.96875 9.980469 9.144531 9.980469 9.144531 L 9.976562 9.132812 L 9.761719 9.507812 L 10.789062 9.507812 L 8.824219 12.121094 L 9.273438 10.34375 L 8.460938 10.34375 L 8.742188 9.167969 C 8.515625 9.222656 8.246094 9.296875 7.929688 9.398438 C 7.929688 9.398438 7.496094 9.652344 6.6875 8.914062 C 6.6875 8.914062 6.140625 8.433594 6.457031 8.3125 C 6.59375 8.261719 7.113281 8.195312 7.519531 8.140625 C 8.074219 8.066406 8.414062 8.027344 8.414062 8.027344 C 8.414062 8.027344 6.710938 8.050781 6.304688 7.988281 C 5.902344 7.925781 5.386719 7.25 5.28125 6.65625 C 5.28125 6.65625 5.109375 6.332031 5.644531 6.484375 C 6.175781 6.640625 8.375 7.085938 8.375 7.085938 C 8.375 7.085938 5.511719 6.207031 5.320312 5.992188 C 5.132812 5.78125 4.761719 4.824219 4.808594 4.238281 C 4.808594 4.238281 4.828125 4.089844 4.980469 4.128906 C 4.980469 4.128906 7.097656 5.097656 8.546875 5.628906 C 9.992188 6.15625 11.253906 6.425781 11.089844 7.113281 C 11.074219 7.171875 11.042969 7.257812 10.992188 7.359375 Z M 10.992188 7.359375 "/>
</g>
</svg>
