<?xml version="1.0" encoding="UTF-8"?>
<svg xmlns="http://www.w3.org/2000/svg" xmlns:xlink="http://www.w3.org/1999/xlink" width="16" height="16" viewBox="0 0 16 16" version="1.1">
<g id="surface1">
<path style=" stroke:none;fill-rule:nonzero;fill:rgb(0%,0%,0%);fill-opacity:1;" d="M 8 2.34375 L 2.34375 8 L 8 13.65625 L 13.65625 8 Z M 8.472656 0.929688 L 15.070312 7.527344 C 15.332031 7.789062 15.332031 8.210938 15.070312 8.472656 L 8.472656 15.070312 C 8.210938 15.332031 7.789062 15.332031 7.527344 15.070312 L 0.929688 8.472656 C 0.667969 8.210938 0.667969 7.789062 0.929688 7.527344 L 7.527344 0.929688 C 7.789062 0.667969 8.210938 0.667969 8.472656 0.929688 Z M 8.667969 6.667969 L 8.667969 5 L 11 7.332031 L 8.667969 9.667969 L 8.667969 8 L 6.667969 8 L 6.667969 10 L 5.332031 10 L 5.332031 7.332031 C 5.332031 6.964844 5.632812 6.667969 6 6.667969 Z M 8.667969 6.667969 "/>
</g>
</svg>
