<?xml version="1.0" encoding="UTF-8"?>
<svg xmlns="http://www.w3.org/2000/svg" xmlns:xlink="http://www.w3.org/1999/xlink" width="16" height="16" viewBox="0 0 16 16" version="1.1">
<g id="surface1">
<path style=" stroke:none;fill-rule:nonzero;fill:rgb(0%,0%,0%);fill-opacity:1;" d="M 7.332031 1.367188 L 7.332031 2.707031 C 4.703125 3.035156 2.667969 5.28125 2.667969 8 C 2.667969 10.945312 5.054688 13.332031 8 13.332031 C 9.234375 13.332031 10.367188 12.914062 11.269531 12.214844 L 12.21875 13.160156 C 11.070312 14.101562 9.601562 14.667969 8 14.667969 C 4.316406 14.667969 1.332031 11.683594 1.332031 8 C 1.332031 4.542969 3.964844 1.699219 7.332031 1.367188 Z M 14.632812 8.667969 C 14.5 10.007812 13.96875 11.230469 13.160156 12.21875 L 12.214844 11.269531 C 12.785156 10.53125 13.171875 9.640625 13.292969 8.667969 Z M 8.667969 1.367188 C 11.816406 1.679688 14.320312 4.183594 14.632812 7.332031 L 13.292969 7.332031 C 12.992188 4.921875 11.078125 3.007812 8.667969 2.707031 Z M 8.667969 1.367188 "/>
</g>
</svg>
