<?xml version="1.0" encoding="UTF-8"?>
<svg xmlns="http://www.w3.org/2000/svg" xmlns:xlink="http://www.w3.org/1999/xlink" width="16" height="16" viewBox="0 0 16 16" version="1.1">
<g id="surface1">
<path style=" stroke:none;fill-rule:nonzero;fill:rgb(0%,0%,0%);fill-opacity:1;" d="M 7.332031 1.367188 L 7.332031 3.378906 C 5.070312 3.703125 3.332031 5.648438 3.332031 8 C 3.332031 10.578125 5.421875 12.667969 8 12.667969 C 9.046875 12.667969 10.015625 12.320312 10.792969 11.738281 L 12.21875 13.160156 C 11.070312 14.101562 9.601562 14.667969 8 14.667969 C 4.316406 14.667969 1.332031 11.683594 1.332031 8 C 1.332031 4.542969 3.964844 1.699219 7.332031 1.367188 Z M 14.632812 8.667969 C 14.5 10.007812 13.96875 11.230469 13.160156 12.21875 L 11.738281 10.792969 C 12.195312 10.183594 12.507812 9.457031 12.621094 8.667969 Z M 8.667969 1.367188 C 11.816406 1.679688 14.320312 4.183594 14.632812 7.332031 L 12.621094 7.332031 C 12.328125 5.289062 10.710938 3.671875 8.667969 3.378906 Z M 8.667969 1.367188 "/>
</g>
</svg>
