<?xml version="1.0" encoding="UTF-8"?>
<svg xmlns="http://www.w3.org/2000/svg" xmlns:xlink="http://www.w3.org/1999/xlink" width="16" height="16" viewBox="0 0 16 16" version="1.1">
<g id="surface1">
<path style=" stroke:none;fill-rule:nonzero;fill:rgb(0%,0%,0%);fill-opacity:1;" d="M 12.945312 4.453125 C 13.632812 5.183594 14 6 14 7.324219 C 14 9.660156 12.363281 11.75 9.980469 12.785156 L 9.382812 11.867188 C 11.609375 10.664062 12.042969 9.101562 12.214844 8.117188 C 11.859375 8.304688 11.390625 8.367188 10.929688 8.324219 C 9.726562 8.214844 8.78125 7.226562 8.78125 6 C 8.78125 4.710938 9.824219 3.667969 11.113281 3.667969 C 11.828125 3.667969 12.511719 3.992188 12.945312 4.453125 Z M 6.277344 4.453125 C 6.964844 5.183594 7.332031 6 7.332031 7.324219 C 7.332031 9.660156 5.695312 11.75 3.3125 12.785156 L 2.71875 11.867188 C 4.941406 10.664062 5.375 9.101562 5.550781 8.117188 C 5.191406 8.304688 4.722656 8.367188 4.261719 8.324219 C 3.0625 8.214844 2.113281 7.226562 2.113281 6 C 2.113281 4.710938 3.15625 3.667969 4.445312 3.667969 C 5.160156 3.667969 5.847656 3.992188 6.277344 4.453125 Z M 6.277344 4.453125 "/>
</g>
</svg>
