<?xml version="1.0" encoding="UTF-8"?>
<svg xmlns="http://www.w3.org/2000/svg" xmlns:xlink="http://www.w3.org/1999/xlink" width="16" height="16" viewBox="0 0 16 16" version="1.1">
<g id="surface1">
<path style=" stroke:none;fill-rule:nonzero;fill:rgb(0%,0%,0%);fill-opacity:1;" d="M 3.054688 11.546875 C 2.367188 10.816406 2 10 2 8.675781 C 2 6.339844 3.636719 4.25 6.019531 3.214844 L 6.617188 4.132812 C 4.390625 5.335938 3.957031 6.898438 3.785156 7.882812 C 4.140625 7.695312 4.609375 7.632812 5.070312 7.675781 C 6.273438 7.785156 7.21875 8.773438 7.21875 10 C 7.21875 11.289062 6.175781 12.332031 4.886719 12.332031 C 4.171875 12.332031 3.488281 12.007812 3.054688 11.546875 Z M 9.722656 11.546875 C 9.035156 10.816406 8.667969 10 8.667969 8.675781 C 8.667969 6.339844 10.304688 4.25 12.6875 3.214844 L 13.28125 4.132812 C 11.058594 5.335938 10.625 6.898438 10.449219 7.882812 C 10.808594 7.695312 11.277344 7.632812 11.738281 7.675781 C 12.9375 7.785156 13.886719 8.773438 13.886719 10 C 13.886719 11.289062 12.84375 12.332031 11.554688 12.332031 C 10.839844 12.332031 10.15625 12.007812 9.722656 11.546875 Z M 9.722656 11.546875 "/>
</g>
</svg>
