<?xml version="1.0" encoding="UTF-8"?>
<svg xmlns="http://www.w3.org/2000/svg" xmlns:xlink="http://www.w3.org/1999/xlink" width="16" height="16" viewBox="0 0 16 16" version="1.1">
<g id="surface1">
<path style=" stroke:none;fill-rule:nonzero;fill:rgb(0%,0%,0%);fill-opacity:1;" d="M 0.667969 9.667969 C 0.664062 8.167969 1.4375 6.777344 2.710938 5.988281 C 3.050781 3.324219 5.316406 1.332031 8 1.332031 C 10.683594 1.332031 12.949219 3.324219 13.289062 5.988281 C 14.882812 6.976562 15.65625 8.875 15.210938 10.695312 C 14.765625 12.515625 13.203125 13.84375 11.332031 13.988281 L 4.667969 14 C 2.429688 13.816406 0.667969 11.949219 0.667969 9.667969 Z M 11.230469 12.65625 C 12.527344 12.558594 13.609375 11.640625 13.917969 10.378906 C 14.222656 9.117188 13.6875 7.804688 12.585938 7.117188 L 12.046875 6.785156 L 11.96875 6.15625 C 11.710938 4.160156 10.011719 2.667969 8 2.667969 C 5.988281 2.667969 4.289062 4.160156 4.03125 6.15625 L 3.953125 6.785156 L 3.414062 7.117188 C 2.3125 7.804688 1.777344 9.117188 2.085938 10.378906 C 2.390625 11.640625 3.476562 12.558594 4.769531 12.65625 L 4.882812 12.667969 L 11.117188 12.667969 Z M 8.667969 8 L 10.667969 8 L 8 11.332031 L 5.332031 8 L 7.332031 8 L 7.332031 5.332031 L 8.667969 5.332031 Z M 8.667969 8 "/>
</g>
</svg>
