<?xml version="1.0" encoding="UTF-8"?>
<svg xmlns="http://www.w3.org/2000/svg" xmlns:xlink="http://www.w3.org/1999/xlink" width="16" height="16" viewBox="0 0 16 16" version="1.1">
<g id="surface1">
<path style=" stroke:none;fill-rule:nonzero;fill:rgb(0%,0%,0%);fill-opacity:1;" d="M 4.667969 13.988281 C 2.796875 13.84375 1.234375 12.515625 0.789062 10.695312 C 0.34375 8.875 1.117188 6.976562 2.710938 5.988281 C 3.050781 3.324219 5.316406 1.332031 8 1.332031 C 10.683594 1.332031 12.949219 3.324219 13.289062 5.988281 C 14.882812 6.976562 15.65625 8.875 15.210938 10.695312 C 14.765625 12.515625 13.203125 13.84375 11.332031 13.988281 L 11.332031 14 L 4.667969 14 Z M 8.667969 8 L 8.667969 5.332031 L 7.332031 5.332031 L 7.332031 8 L 5.332031 8 L 8 11.332031 L 10.667969 8 Z M 8.667969 8 "/>
</g>
</svg>
