<?xml version="1.0" encoding="UTF-8"?>
<svg xmlns="http://www.w3.org/2000/svg" xmlns:xlink="http://www.w3.org/1999/xlink" width="16" height="16" viewBox="0 0 16 16" version="1.1">
<g id="surface1">
<path style=" stroke:none;fill-rule:nonzero;fill:rgb(0%,0%,0%);fill-opacity:1;" d="M 2.667969 9.828125 C 0.992188 8.664062 0.269531 6.546875 0.878906 4.601562 C 1.492188 2.65625 3.292969 1.332031 5.332031 1.332031 C 7.371094 1.332031 9.175781 2.65625 9.785156 4.601562 C 10.394531 6.546875 9.671875 8.664062 8 9.828125 L 8 14 C 8 14.367188 7.703125 14.667969 7.332031 14.667969 L 3.332031 14.667969 C 2.964844 14.667969 2.667969 14.367188 2.667969 14 Z M 5.332031 9.332031 C 7.175781 9.332031 8.667969 7.839844 8.667969 6 C 8.667969 4.160156 7.175781 2.667969 5.332031 2.667969 C 3.492188 2.667969 2 4.160156 2 6 C 2 7.839844 3.492188 9.332031 5.332031 9.332031 Z M 4.667969 12 L 4.667969 13.332031 L 6 13.332031 L 6 12 Z M 5.332031 8 C 4.230469 8 3.332031 7.105469 3.332031 6 C 3.332031 4.894531 4.230469 4 5.332031 4 C 6.4375 4 7.332031 4.894531 7.332031 6 C 7.332031 7.105469 6.4375 8 5.332031 8 Z M 9.332031 11.332031 L 9.332031 10.472656 C 10.609375 9.335938 11.335938 7.707031 11.332031 6 C 11.335938 4.523438 10.792969 3.097656 9.804688 2 L 14 2 C 14.367188 2 14.667969 2.296875 14.667969 2.667969 L 14.667969 10.667969 C 14.667969 11.035156 14.367188 11.332031 14 11.332031 Z M 12 4.667969 L 12 6 L 13.332031 6 L 13.332031 4.667969 Z M 12 4.667969 "/>
</g>
</svg>
