<?xml version="1.0" encoding="UTF-8"?>
<svg xmlns="http://www.w3.org/2000/svg" xmlns:xlink="http://www.w3.org/1999/xlink" width="16" height="16" viewBox="0 0 16 16" version="1.1">
<g id="surface1">
<path style=" stroke:none;fill-rule:nonzero;fill:rgb(0%,0%,0%);fill-opacity:1;" d="M 8 14.667969 C 4.316406 14.667969 1.332031 11.683594 1.332031 8 C 1.332031 4.316406 4.316406 1.332031 8 1.332031 C 11.683594 1.332031 14.667969 4.316406 14.667969 8 C 14.667969 11.683594 11.683594 14.667969 8 14.667969 Z M 12.238281 10.632812 L 12.238281 10.566406 C 12.238281 9.949219 12.238281 9.667969 11.800781 9.421875 C 11.664062 9.339844 11.519531 9.269531 11.371094 9.203125 C 11.128906 9.09375 10.964844 9.019531 10.746094 8.699219 C 10.71875 8.660156 10.695312 8.625 10.667969 8.585938 C 10.4375 8.234375 10.273438 7.984375 9.640625 8.082031 C 8.398438 8.28125 8.304688 8.5 8.25 8.867188 L 8.242188 8.929688 C 8.160156 9.46875 8.148438 9.652344 8.371094 9.886719 C 9.214844 10.773438 9.722656 11.410156 9.875 11.785156 C 9.949219 11.964844 10.140625 12.515625 10.007812 13.0625 C 10.820312 12.738281 11.539062 12.226562 12.109375 11.570312 C 12.183594 11.320312 12.238281 11.011719 12.238281 10.632812 Z M 8 2.554688 C 6.457031 2.554688 5.058594 3.199219 4.070312 4.234375 C 4.1875 4.316406 4.289062 4.429688 4.359375 4.589844 C 4.496094 4.894531 4.496094 5.207031 4.496094 5.484375 C 4.496094 5.703125 4.496094 5.910156 4.566406 6.0625 C 4.664062 6.265625 5.078125 6.355469 5.441406 6.429688 C 5.574219 6.460938 5.710938 6.488281 5.832031 6.519531 C 6.167969 6.613281 6.429688 6.917969 6.640625 7.160156 C 6.726562 7.261719 6.855469 7.410156 6.917969 7.449219 C 6.953125 7.425781 7.058594 7.308594 7.113281 7.117188 C 7.152344 6.96875 7.140625 6.839844 7.082031 6.769531 C 6.710938 6.328125 6.730469 5.484375 6.84375 5.171875 C 7.027344 4.675781 7.59375 4.714844 8.007812 4.742188 C 8.164062 4.75 8.308594 4.761719 8.417969 4.746094 C 8.832031 4.695312 8.960938 4.0625 9.050781 3.941406 C 9.246094 3.671875 9.839844 3.269531 10.210938 3.023438 C 9.515625 2.714844 8.761719 2.554688 8 2.554688 Z M 8 2.554688 "/>
</g>
</svg>
