<?xml version="1.0" encoding="UTF-8"?>
<svg xmlns="http://www.w3.org/2000/svg" xmlns:xlink="http://www.w3.org/1999/xlink" width="16" height="16" viewBox="0 0 16 16" version="1.1">
<g id="surface1">
<path style=" stroke:none;fill-rule:nonzero;fill:rgb(0%,0%,0%);fill-opacity:1;" d="M 12.242188 7.320312 C 13.285156 8.359375 13.285156 10.050781 12.242188 11.089844 L 8.472656 14.863281 C 8.210938 15.121094 7.789062 15.121094 7.527344 14.863281 L 3.757812 11.089844 C 2.714844 10.050781 2.714844 8.359375 3.757812 7.320312 C 4.796875 6.277344 6.488281 6.277344 7.527344 7.320312 L 8 7.789062 L 8.472656 7.320312 C 9.511719 6.277344 11.203125 6.277344 12.242188 7.320312 Z M 4.699219 8.261719 C 4.179688 8.78125 4.179688 9.625 4.699219 10.148438 L 8 13.449219 L 11.300781 10.148438 C 11.820312 9.625 11.820312 8.78125 11.300781 8.261719 C 10.78125 7.742188 9.933594 7.742188 9.414062 8.261719 L 8 9.675781 L 6.585938 8.261719 C 6.066406 7.742188 5.21875 7.742188 4.699219 8.261719 Z M 8 0.667969 C 9.472656 0.667969 10.667969 1.859375 10.667969 3.332031 C 10.667969 4.808594 9.472656 6 8 6 C 6.527344 6 5.332031 4.808594 5.332031 3.332031 C 5.332031 1.859375 6.527344 0.667969 8 0.667969 Z M 8 2 C 7.261719 2 6.667969 2.597656 6.667969 3.332031 C 6.667969 4.070312 7.261719 4.667969 8 4.667969 C 8.738281 4.667969 9.332031 4.070312 9.332031 3.332031 C 9.332031 2.597656 8.738281 2 8 2 Z M 8 2 "/>
</g>
</svg>
