<?xml version="1.0" encoding="UTF-8"?>
<svg xmlns="http://www.w3.org/2000/svg" xmlns:xlink="http://www.w3.org/1999/xlink" width="16" height="16" viewBox="0 0 16 16" version="1.1">
<g id="surface1">
<path style=" stroke:none;fill-rule:evenodd;fill:rgb(0%,0%,0%);fill-opacity:1;" d="M 3 0 C 1.335938 0 0 1.335938 0 3 L 0 13 C 0 14.664062 1.335938 16 3 16 L 13 16 C 14.664062 16 16 14.664062 16 13 L 16 3 C 16 1.335938 14.664062 0 13 0 Z M 10 2.5 L 12.003906 2.5 C 12.832031 2.503906 13.5 3.171875 13.5 4 C 13.5 4.828125 12.828125 5.5 12.003906 5.5 L 10.925781 5.5 L 7.34375 12.667969 C 7.09375 13.179688 6.570312 13.5 6 13.5 L 4 13.5 C 3.171875 13.5 2.503906 12.832031 2.5 12.003906 C 2.5 11.605469 2.65625 11.21875 2.9375 10.9375 C 3.21875 10.65625 3.601562 10.496094 4 10.496094 L 5.070312 10.496094 L 8.65625 3.328125 C 8.914062 2.820312 9.433594 2.5 10 2.5 Z M 10 2.5 "/>
</g>
</svg>
