<?xml version="1.0" encoding="UTF-8"?>
<svg xmlns="http://www.w3.org/2000/svg" xmlns:xlink="http://www.w3.org/1999/xlink" width="16" height="16" viewBox="0 0 16 16" version="1.1">
<g id="surface1">
<path style=" stroke:none;fill-rule:nonzero;fill:rgb(0%,0%,0%);fill-opacity:1;" d="M 7 5.667969 C 7 6.035156 6.703125 6.332031 6.332031 6.332031 L 4 6.332031 C 3.777344 6.332031 3.667969 6.507812 3.667969 6.6875 C 3.667969 7.566406 3.835938 8.269531 4.109375 8.816406 C 4.253906 9.105469 4.375 9.261719 4.457031 9.34375 C 4.949219 9.851562 5.714844 10.117188 6.519531 10.070312 C 6.582031 10.066406 6.652344 10.027344 6.742188 9.929688 C 6.796875 9.871094 6.84375 9.804688 6.882812 9.734375 C 7.167969 9.085938 7.90625 8.773438 8.570312 9.019531 C 9.03125 9.191406 9.421875 9.308594 9.78125 9.394531 C 9.910156 9.425781 10.03125 9.449219 10.171875 9.476562 C 10.117188 9.464844 10.4375 9.523438 10.515625 9.539062 C 10.742188 9.585938 10.914062 9.636719 11.105469 9.734375 C 11.570312 9.964844 11.972656 10.300781 12.289062 10.714844 C 12.316406 10.324219 12.339844 9.871094 12.34375 9.367188 C 12.367188 7.875 12.242188 6.382812 11.972656 4.917969 C 11.921875 4.652344 11.816406 4.542969 11.53125 4.4375 C 11.402344 4.394531 11.273438 4.359375 11.140625 4.335938 C 11.042969 4.316406 10.707031 4.261719 10.675781 4.257812 C 10.15625 4.167969 9.636719 4.074219 9.117188 3.984375 L 8.765625 3.921875 C 8.300781 3.839844 7.917969 3.523438 7.75 3.082031 C 7.742188 3.0625 7.734375 3.042969 7.726562 3.023438 C 7.570312 3.007812 7.414062 3 7.257812 3 C 7.078125 3 7 3.082031 7 3.308594 Z M 11.152344 13.425781 C 11.386719 13.1875 11.527344 12.875 11.542969 12.542969 C 11.582031 11.851562 10.996094 10.886719 10 10.785156 C 9.589844 10.742188 8.941406 10.582031 8.105469 10.269531 C 8.105469 10.269531 7.636719 11.339844 6.597656 11.398438 C 5.488281 11.464844 4.3125 11.113281 3.5 10.269531 C 3.5 10.269531 2.332031 9.175781 2.332031 6.6875 C 2.332031 6.144531 2.527344 5.738281 2.765625 5.417969 C 3.40625 4.558594 4.433594 3.566406 5.519531 2.550781 C 6 2.101562 6.46875 1.667969 7.257812 1.667969 C 8.617188 1.667969 8.804688 2.109375 8.996094 2.609375 L 10.898438 2.941406 C 11.503906 3.050781 12.996094 3.152344 13.285156 4.671875 C 13.953125 8.285156 13.589844 11.25 13.515625 11.789062 C 13.042969 15.203125 10.332031 15.035156 10.226562 15.035156 C 8.855469 15.035156 8.109375 14.121094 8.105469 13.25 C 8.101562 12.714844 8.359375 12.207031 8.796875 11.894531 C 9.09375 11.683594 9.449219 11.570312 9.816406 11.574219 C 10.019531 11.574219 10.273438 11.789062 10.273438 12.078125 C 10.273438 12.324219 10.101562 12.460938 10.019531 12.507812 C 9.871094 12.589844 9.269531 12.625 9.269531 13.085938 C 9.269531 13.296875 9.503906 13.828125 10.195312 13.828125 C 10.585938 13.828125 10.925781 13.65625 11.152344 13.425781 Z M 9.957031 7.085938 C 10.066406 6.808594 10.375 6.664062 10.738281 6.699219 C 11.101562 6.742188 11.375 6.964844 11.40625 7.261719 C 11.40625 7.320312 11.417969 7.386719 11.398438 7.417969 C 11.375 7.453125 11.351562 7.464844 11.328125 7.464844 C 11.1875 7.484375 10.96875 7.464844 10.648438 7.429688 C 10.328125 7.398438 10.109375 7.363281 9.980469 7.296875 C 9.957031 7.285156 9.933594 7.273438 9.921875 7.242188 C 9.910156 7.207031 9.933594 7.140625 9.957031 7.085938 Z M 9.957031 7.085938 "/>
</g>
</svg>
