<?xml version="1.0" encoding="UTF-8"?>
<svg xmlns="http://www.w3.org/2000/svg" xmlns:xlink="http://www.w3.org/1999/xlink" width="16" height="16" viewBox="0 0 16 16" version="1.1">
<g id="surface1">
<path style=" stroke:none;fill-rule:nonzero;fill:rgb(0%,0%,0%);fill-opacity:1;" d="M 11.921875 12.863281 C 10.75 13.609375 9.386719 14.003906 8 14 C 4.40625 14 1.414062 11.414062 0.789062 8 C 1.074219 6.445312 1.855469 5.027344 3.015625 3.957031 L 0.929688 1.871094 L 1.871094 0.929688 L 15.070312 14.128906 L 14.128906 15.070312 Z M 3.957031 4.898438 C 3.050781 5.722656 2.417969 6.804688 2.148438 8 C 2.570312 9.847656 3.839844 11.386719 5.574219 12.152344 C 7.304688 12.917969 9.296875 12.824219 10.949219 11.890625 L 9.597656 10.539062 C 8.410156 11.285156 6.867188 11.113281 5.878906 10.121094 C 4.886719 9.132812 4.714844 7.589844 5.460938 6.402344 Z M 8.609375 9.550781 L 6.449219 7.390625 C 6.207031 8.007812 6.351562 8.710938 6.820312 9.179688 C 7.289062 9.648438 7.992188 9.792969 8.609375 9.550781 Z M 13.871094 11.0625 L 12.917969 10.109375 C 13.363281 9.472656 13.679688 8.757812 13.851562 8 C 13.484375 6.394531 12.476562 5.011719 11.0625 4.171875 C 9.648438 3.335938 7.949219 3.113281 6.367188 3.558594 L 5.316406 2.507812 C 6.148438 2.179688 7.054688 2 8 2 C 11.59375 2 14.585938 4.585938 15.210938 8 C 15.007812 9.109375 14.550781 10.160156 13.871094 11.0625 Z M 7.816406 5.003906 C 8.671875 4.953125 9.511719 5.269531 10.121094 5.878906 C 10.730469 6.488281 11.046875 7.328125 10.996094 8.183594 Z M 7.816406 5.003906 "/>
</g>
</svg>
