<?xml version="1.0" encoding="UTF-8"?>
<svg xmlns="http://www.w3.org/2000/svg" xmlns:xlink="http://www.w3.org/1999/xlink" width="16" height="16" viewBox="0 0 16 16" version="1.1">
<g id="surface1">
<path style=" stroke:none;fill-rule:nonzero;fill:rgb(0%,0%,0%);fill-opacity:1;" d="M 8.667969 6 L 11.667969 6 L 11.332031 7.332031 L 8.667969 7.332031 L 8.667969 13.332031 L 7.332031 13.332031 L 7.332031 7.332031 L 4.667969 7.332031 L 4.667969 6 L 7.332031 6 L 7.332031 4.753906 C 7.332031 3.5625 7.457031 3.132812 7.6875 2.699219 C 7.917969 2.269531 8.269531 1.917969 8.699219 1.6875 C 9.132812 1.457031 9.5625 1.332031 10.753906 1.332031 C 11.101562 1.332031 11.40625 1.367188 11.667969 1.433594 L 11.667969 2.667969 L 10.753906 2.667969 C 9.871094 2.667969 9.601562 2.71875 9.328125 2.867188 C 9.125 2.972656 8.972656 3.125 8.867188 3.328125 C 8.71875 3.601562 8.667969 3.871094 8.667969 4.753906 Z M 8.667969 6 "/>
</g>
</svg>
