<?xml version="1.0" encoding="UTF-8"?>
<svg xmlns="http://www.w3.org/2000/svg" xmlns:xlink="http://www.w3.org/1999/xlink" width="16" height="16" viewBox="0 0 16 16" version="1.1">
<g id="surface1">
<path style=" stroke:none;fill-rule:nonzero;fill:rgb(0%,0%,0%);fill-opacity:1;" d="M 9.332031 12.667969 L 12.667969 12.667969 L 12.667969 3.332031 L 3.332031 3.332031 L 3.332031 12.667969 L 8 12.667969 L 8 9.332031 L 6.667969 9.332031 L 6.667969 8 L 8 8 L 8 6.898438 C 8 6.007812 8.09375 5.683594 8.265625 5.355469 C 8.4375 5.035156 8.703125 4.769531 9.023438 4.601562 C 9.277344 4.464844 9.59375 4.382812 10.148438 4.347656 C 10.367188 4.332031 10.652344 4.347656 11 4.398438 L 11 5.664062 L 10.667969 5.664062 C 10.054688 5.664062 9.800781 5.695312 9.652344 5.773438 C 9.5625 5.820312 9.488281 5.894531 9.441406 5.984375 C 9.363281 6.136719 9.332031 6.285156 9.332031 6.898438 L 9.332031 8 L 11 8 L 10.667969 9.332031 L 9.332031 9.332031 Z M 2.667969 2 L 13.332031 2 C 13.703125 2 14 2.296875 14 2.667969 L 14 13.332031 C 14 13.703125 13.703125 14 13.332031 14 L 2.667969 14 C 2.296875 14 2 13.703125 2 13.332031 L 2 2.667969 C 2 2.296875 2.296875 2 2.667969 2 Z M 2.667969 2 "/>
</g>
</svg>
