<?xml version="1.0" encoding="UTF-8"?>
<svg xmlns="http://www.w3.org/2000/svg" xmlns:xlink="http://www.w3.org/1999/xlink" width="16" height="16" viewBox="0 0 16 16" version="1.1">
<g id="surface1">
<path style=" stroke:none;fill-rule:nonzero;fill:rgb(0%,0%,0%);fill-opacity:1;" d="M 12.019531 11.078125 L 14.875 13.933594 L 13.933594 14.875 L 11.078125 12.019531 C 10.015625 12.871094 8.695312 13.335938 7.332031 13.332031 C 4.019531 13.332031 1.332031 10.644531 1.332031 7.332031 C 1.332031 4.019531 4.019531 1.332031 7.332031 1.332031 C 10.644531 1.332031 13.332031 4.019531 13.332031 7.332031 C 13.335938 8.695312 12.871094 10.015625 12.019531 11.078125 Z M 11.105469 6 C 10.539062 4.402344 9.027344 3.332031 7.332031 3.332031 C 5.125 3.332031 3.332031 5.125 3.332031 7.332031 L 4.667969 7.332031 C 4.667969 6.394531 5.164062 5.523438 5.96875 5.042969 C 6.777344 4.5625 7.78125 4.542969 8.605469 4.988281 L 8 6 Z M 11.332031 7.332031 L 10 7.332031 C 10 8.273438 9.503906 9.144531 8.695312 9.625 C 7.886719 10.105469 6.886719 10.125 6.058594 9.675781 L 6.667969 8.667969 L 3.5625 8.667969 C 4.125 10.265625 5.636719 11.332031 7.332031 11.332031 C 9.542969 11.332031 11.332031 9.542969 11.332031 7.332031 Z M 11.332031 7.332031 "/>
</g>
</svg>
