<?xml version="1.0" encoding="UTF-8"?>
<svg xmlns="http://www.w3.org/2000/svg" xmlns:xlink="http://www.w3.org/1999/xlink" width="16" height="16" viewBox="0 0 16 16" version="1.1">
<g id="surface1">
<path style=" stroke:none;fill-rule:nonzero;fill:rgb(0%,0%,0%);fill-opacity:1;" d="M 8 0.667969 C 11.3125 0.667969 14 3.351562 14 6.667969 L 14 9.332031 C 14 11.285156 13.054688 13.113281 11.460938 14.234375 C 11.777344 13.222656 11.960938 12.148438 11.996094 11.039062 L 12 10.667969 L 12 9.332031 L 10.667969 9.332031 L 10.667969 10.667969 L 10.664062 10.875 C 10.636719 12.332031 10.3125 13.761719 9.710938 15.085938 C 8.9375 15.316406 8.128906 15.386719 7.328125 15.296875 C 8.152344 13.992188 8.613281 12.492188 8.660156 10.949219 L 8.667969 10.667969 L 8.667969 6 L 7.332031 6 L 7.332031 10.859375 C 7.292969 12.339844 6.808594 13.773438 5.9375 14.96875 C 5.304688 14.738281 4.710938 14.398438 4.1875 13.96875 C 4.886719 13.085938 5.285156 12.007812 5.328125 10.886719 L 5.332031 10.667969 L 5.332031 6.667969 L 5.335938 6.535156 C 5.355469 6.15625 5.453125 5.785156 5.625 5.449219 L 5.703125 5.3125 L 4.738281 4.347656 C 4.296875 4.96875 4.042969 5.707031 4.003906 6.46875 L 4 6.667969 L 4 10.667969 L 3.996094 10.816406 C 3.96875 11.601562 3.710938 12.359375 3.25 13 C 2.4375 11.949219 1.996094 10.660156 2 9.332031 L 2 6.667969 C 2 3.351562 4.6875 0.667969 8 0.667969 Z M 8 2.667969 C 7.203125 2.667969 6.460938 2.898438 5.835938 3.300781 L 5.683594 3.40625 L 6.644531 4.371094 C 7.007812 4.15625 7.417969 4.03125 7.835938 4.003906 L 8 4 L 8.132812 4.003906 C 9.5 4.070312 10.59375 5.164062 10.664062 6.53125 L 10.667969 6.667969 L 10.667969 8 L 12 8 L 12 6.667969 C 12 4.457031 10.210938 2.667969 8 2.667969 Z M 8 2.667969 "/>
</g>
</svg>
