<?xml version="1.0" encoding="UTF-8"?>
<svg xmlns="http://www.w3.org/2000/svg" xmlns:xlink="http://www.w3.org/1999/xlink" width="16" height="16" viewBox="0 0 16 16" version="1.1">
<g id="surface1">
<path style=" stroke:none;fill-rule:nonzero;fill:rgb(0%,0%,0%);fill-opacity:1;" d="M 11.332031 8.667969 L 11.332031 9.332031 C 11.332031 11.179688 10.890625 12.964844 10.058594 14.5625 L 9.90625 14.84375 L 8.742188 14.195312 C 9.515625 12.808594 9.949219 11.253906 9.996094 9.636719 L 10 9.332031 L 10 8.667969 Z M 7.332031 6.667969 L 8.667969 6.667969 L 8.667969 9.332031 L 8.664062 9.585938 C 8.613281 11.410156 7.984375 13.171875 6.871094 14.617188 L 6.714844 14.8125 L 5.683594 13.96875 C 6.699219 12.726562 7.277344 11.183594 7.328125 9.578125 L 7.332031 9.332031 Z M 8 4 C 9.839844 4 11.332031 5.492188 11.332031 7.332031 L 10 7.332031 C 10 6.230469 9.105469 5.332031 8 5.332031 C 6.894531 5.332031 6 6.230469 6 7.332031 L 6 9.332031 C 6 10.824219 5.453125 12.230469 4.484375 13.316406 L 4.34375 13.472656 L 3.378906 12.550781 C 4.160156 11.734375 4.617188 10.664062 4.664062 9.535156 L 4.667969 9.332031 L 4.667969 7.332031 C 4.667969 5.492188 6.160156 4 8 4 Z M 8 1.332031 C 11.3125 1.332031 14 4.019531 14 7.332031 L 14 9.332031 C 14 10.464844 13.867188 11.578125 13.601562 12.660156 L 13.507812 13.019531 L 12.222656 12.667969 C 12.484375 11.710938 12.632812 10.71875 12.660156 9.710938 L 12.667969 9.332031 L 12.667969 7.332031 C 12.667969 5.566406 11.667969 3.953125 10.089844 3.160156 C 8.511719 2.371094 6.621094 2.539062 5.207031 3.597656 L 4.253906 2.644531 C 5.316406 1.792969 6.640625 1.332031 8 1.332031 Z M 3.3125 3.589844 L 4.261719 4.539062 C 3.691406 5.300781 3.367188 6.21875 3.335938 7.171875 L 3.332031 7.332031 L 3.335938 8.667969 C 3.335938 9.414062 3.160156 10.136719 2.828125 10.785156 L 2.722656 10.976562 L 1.566406 10.316406 C 1.820312 9.875 1.96875 9.378906 1.996094 8.863281 L 2.003906 8.667969 L 2.003906 7.332031 C 2 5.972656 2.460938 4.652344 3.3125 3.589844 Z M 3.3125 3.589844 "/>
</g>
</svg>
