<?xml version="1.0" encoding="UTF-8"?>
<svg xmlns="http://www.w3.org/2000/svg" xmlns:xlink="http://www.w3.org/1999/xlink" width="16" height="16" viewBox="0 0 16 16" version="1.1">
<g id="surface1">
<path style=" stroke:none;fill-rule:nonzero;fill:rgb(0%,0%,0%);fill-opacity:1;" d="M 10.667969 1.332031 L 10.667969 2.667969 L 10 2.667969 L 10 4.828125 C 10 5.601562 10.167969 6.363281 10.492188 7.0625 L 13.34375 13.246094 C 13.578125 13.75 13.355469 14.34375 12.855469 14.574219 C 12.726562 14.636719 12.582031 14.667969 12.4375 14.667969 L 3.5625 14.667969 C 3.011719 14.667969 2.5625 14.21875 2.5625 13.667969 C 2.5625 13.523438 2.59375 13.378906 2.65625 13.246094 L 5.507812 7.0625 C 5.832031 6.363281 6 5.601562 6 4.828125 L 6 2.667969 L 5.332031 2.667969 L 5.332031 1.332031 Z M 8.667969 2.667969 L 7.332031 2.667969 L 7.332031 5.332031 L 8.667969 5.332031 Z M 8.667969 2.667969 "/>
</g>
</svg>
