<?xml version="1.0" encoding="UTF-8"?>
<svg xmlns="http://www.w3.org/2000/svg" xmlns:xlink="http://www.w3.org/1999/xlink" width="16" height="16" viewBox="0 0 16 16" version="1.1">
<g id="surface1">
<path style=" stroke:none;fill-rule:nonzero;fill:rgb(0%,0%,0%);fill-opacity:1;" d="M 14.667969 6.667969 L 8 6.667969 L 8 11.589844 C 8 12.527344 8.421875 13.410156 9.136719 14 L 2 14 C 1.632812 14 1.332031 13.703125 1.332031 13.332031 L 1.332031 2.667969 C 1.332031 2.296875 1.632812 2 2 2 L 6.941406 2 L 8.277344 3.332031 L 14 3.332031 C 14.367188 3.332031 14.667969 3.632812 14.667969 4 Z M 9.332031 8 L 14.667969 8 L 14.667969 11.589844 C 14.667969 12.1875 14.371094 12.742188 13.875 13.074219 L 12 14.332031 L 10.125 13.074219 C 9.628906 12.742188 9.332031 12.183594 9.332031 11.589844 Z M 9.332031 8 "/>
</g>
</svg>
