<?xml version="1.0" encoding="UTF-8"?>
<svg xmlns="http://www.w3.org/2000/svg" xmlns:xlink="http://www.w3.org/1999/xlink" width="16" height="16" viewBox="0 0 16 16" version="1.1">
<g id="surface1">
<path style=" stroke:none;fill-rule:nonzero;fill:rgb(0%,0%,0%);fill-opacity:1;" d="M 1.382812 -0.0273438 C 0.546875 0.378906 0.0078125 1.296875 0.0078125 2.304688 L 0.00390625 16 L 15.996094 16 L 16 2.453125 C 16 1.402344 15.445312 0.445312 14.585938 0 C 9.003906 0.0234375 7.003906 0.0234375 1.382812 -0.0273438 Z M 2.03125 4 L 14 4 L 14 6 L 2 6 L 2 4.183594 C 2 4.117188 2.023438 4.0625 2.03125 4 Z M 2 7 L 14 7 L 14 9 L 2 9 Z M 2 10 L 14 10 L 14 12 L 2 12 Z M 2 13 L 14 13 L 14 15 L 2 15 Z M 2 13 "/>
</g>
</svg>
