<?xml version="1.0" encoding="UTF-8"?>
<svg xmlns="http://www.w3.org/2000/svg" xmlns:xlink="http://www.w3.org/1999/xlink" width="16" height="16" viewBox="0 0 16 16" version="1.1">
<g id="surface1">
<path style=" stroke:none;fill-rule:nonzero;fill:rgb(0%,0%,0%);fill-opacity:1;" d="M 10 1.332031 C 10.953125 1.332031 11.832031 1.839844 12.308594 2.667969 C 12.785156 3.492188 12.785156 4.507812 12.308594 5.335938 L 15.332031 5.332031 L 15.332031 6.667969 L 14 6.667969 L 14 13.332031 C 14 13.703125 13.703125 14 13.332031 14 L 2.667969 14 C 2.296875 14 2 13.703125 2 13.332031 L 2 6.667969 L 0.667969 6.667969 L 0.667969 5.332031 L 3.691406 5.335938 C 3.003906 4.148438 3.332031 2.632812 4.445312 1.835938 C 5.554688 1.035156 7.09375 1.210938 8 2.238281 C 8.503906 1.660156 9.234375 1.332031 10 1.332031 Z M 7.332031 6.667969 L 3.332031 6.667969 L 3.332031 12.667969 L 7.332031 12.667969 Z M 12.667969 6.667969 L 8.667969 6.667969 L 8.667969 12.667969 L 12.667969 12.667969 Z M 6 2.667969 C 5.28125 2.664062 4.6875 3.230469 4.660156 3.949219 C 4.632812 4.667969 5.183594 5.277344 5.898438 5.328125 L 6 5.332031 L 7.332031 5.332031 L 7.332031 4 C 7.332031 3.339844 6.851562 2.78125 6.203125 2.683594 L 6.097656 2.671875 Z M 10 2.667969 C 9.300781 2.667969 8.722656 3.203125 8.671875 3.898438 L 8.667969 4 L 8.667969 5.332031 L 10 5.332031 C 10.699219 5.332031 11.277344 4.796875 11.328125 4.101562 L 11.332031 4 C 11.332031 3.261719 10.738281 2.667969 10 2.667969 Z M 10 2.667969 "/>
</g>
</svg>
