<?xml version="1.0" encoding="UTF-8"?>
<svg xmlns="http://www.w3.org/2000/svg" xmlns:xlink="http://www.w3.org/1999/xlink" width="16" height="16" viewBox="0 0 16 16" version="1.1">
<g id="surface1">
<path style=" stroke:none;fill-rule:nonzero;fill:rgb(0%,0%,0%);fill-opacity:1;" d="M 8 7.332031 L 13.6875 7.332031 C 13.71875 7.589844 13.734375 7.851562 13.734375 8.121094 C 13.734375 9.945312 13.078125 11.480469 11.949219 12.523438 C 10.957031 13.4375 9.601562 13.972656 7.988281 13.972656 C 4.679688 13.972656 2 11.292969 2 7.988281 C 2 4.679688 4.679688 2 7.988281 2 C 9.601562 2 10.957031 2.59375 11.992188 3.558594 L 11.015625 4.535156 C 10.246094 3.789062 9.203125 3.332031 8 3.332031 C 5.421875 3.332031 3.332031 5.421875 3.332031 8 C 3.332031 10.578125 5.421875 12.667969 8 12.667969 C 10.351562 12.667969 12.097656 10.929688 12.382812 8.667969 L 8 8.667969 Z M 8 7.332031 "/>
</g>
</svg>
