<?xml version="1.0" encoding="UTF-8"?>
<svg xmlns="http://www.w3.org/2000/svg" xmlns:xlink="http://www.w3.org/1999/xlink" width="16" height="16" viewBox="0 0 16 16" version="1.1">
<g id="surface1">
<path style=" stroke:none;fill-rule:nonzero;fill:rgb(0%,0%,0%);fill-opacity:1;" d="M 8.667969 5.332031 L 8.667969 10.667969 C 8.667969 11.769531 7.769531 12.667969 6.667969 12.667969 L 5.21875 12.667969 C 4.894531 13.585938 3.957031 14.136719 2.996094 13.972656 C 2.035156 13.808594 1.332031 12.972656 1.332031 12 C 1.332031 11.027344 2.035156 10.191406 2.996094 10.027344 C 3.957031 9.863281 4.894531 10.414062 5.21875 11.332031 L 6.667969 11.332031 C 7.035156 11.332031 7.332031 11.035156 7.332031 10.667969 L 7.332031 5.332031 C 7.332031 4.230469 8.230469 3.332031 9.332031 3.332031 L 11.332031 3.332031 L 11.332031 1.332031 L 14.667969 4 L 11.332031 6.667969 L 11.332031 4.667969 L 9.332031 4.667969 C 8.964844 4.667969 8.667969 4.964844 8.667969 5.332031 Z M 3.332031 12.667969 C 3.703125 12.667969 4 12.367188 4 12 C 4 11.632812 3.703125 11.332031 3.332031 11.332031 C 2.964844 11.332031 2.667969 11.632812 2.667969 12 C 2.667969 12.367188 2.964844 12.667969 3.332031 12.667969 Z M 3.332031 12.667969 "/>
</g>
</svg>
