<?xml version="1.0" encoding="UTF-8"?>
<svg xmlns="http://www.w3.org/2000/svg" xmlns:xlink="http://www.w3.org/1999/xlink" width="16" height="16" viewBox="0 0 16 16" version="1.1">
<g id="surface1">
<path style=" stroke:none;fill-rule:nonzero;fill:rgb(0%,0%,0%);fill-opacity:1;" d="M 13.332031 1.332031 C 13.703125 1.332031 14 1.632812 14 2 L 14 5.332031 C 14 5.703125 13.703125 6 13.332031 6 L 10 6 L 10 14.667969 C 10 15.035156 9.703125 15.332031 9.332031 15.332031 L 6.667969 15.332031 C 6.296875 15.332031 6 15.035156 6 14.667969 L 6 6 L 2.332031 6 C 1.964844 6 1.667969 5.703125 1.667969 5.332031 L 1.667969 3.746094 C 1.667969 3.492188 1.808594 3.261719 2.035156 3.148438 L 5.667969 1.332031 Z M 10 2.667969 L 5.980469 2.667969 L 3 4.15625 L 3 4.667969 L 7.332031 4.667969 L 7.332031 14 L 8.667969 14 L 8.667969 4.667969 L 10 4.667969 Z M 12.667969 2.667969 L 11.332031 2.667969 L 11.332031 4.667969 L 12.667969 4.667969 Z M 12.667969 2.667969 "/>
</g>
</svg>
