<?xml version="1.0" encoding="UTF-8"?>
<svg xmlns="http://www.w3.org/2000/svg" xmlns:xlink="http://www.w3.org/1999/xlink" width="16" height="16" viewBox="0 0 16 16" version="1.1">
<g id="surface1">
<path style=" stroke:none;fill-rule:nonzero;fill:rgb(0%,0%,0%);fill-opacity:1;" d="M 2 2 L 14 2 C 14.367188 2 14.667969 2.296875 14.667969 2.667969 L 14.667969 13.332031 C 14.667969 13.703125 14.367188 14 14 14 L 2 14 C 1.632812 14 1.332031 13.703125 1.332031 13.332031 L 1.332031 2.667969 C 1.332031 2.296875 1.632812 2 2 2 Z M 5 7.5 L 5 6 L 4 6 L 4 10 L 5 10 L 5 8.5 L 6.332031 8.5 L 6.332031 10 L 7.332031 10 L 7.332031 6 L 6.332031 6 L 6.332031 7.5 Z M 9.667969 7 L 10.667969 7 C 10.851562 7 11 7.148438 11 7.332031 L 11 8.667969 C 11 8.851562 10.851562 9 10.667969 9 L 9.667969 9 Z M 8.667969 6 L 8.667969 10 L 10.667969 10 C 11.402344 10 12 9.402344 12 8.667969 L 12 7.332031 C 12 6.597656 11.402344 6 10.667969 6 Z M 8.667969 6 "/>
</g>
</svg>
