<?xml version="1.0" encoding="UTF-8"?>
<svg xmlns="http://www.w3.org/2000/svg" xmlns:xlink="http://www.w3.org/1999/xlink" width="16" height="16" viewBox="0 0 16 16" version="1.1">
<g id="surface1">
<path style=" stroke:none;fill-rule:nonzero;fill:rgb(0%,0%,0%);fill-opacity:1;" d="M 2.667969 8 L 4.667969 8 C 5.402344 8 6 8.597656 6 9.332031 L 6 12.667969 C 6 13.402344 5.402344 14 4.667969 14 L 2.667969 14 C 1.929688 14 1.332031 13.402344 1.332031 12.667969 L 1.332031 8 C 1.332031 4.316406 4.316406 1.332031 8 1.332031 C 11.683594 1.332031 14.667969 4.316406 14.667969 8 L 14.667969 12.667969 C 14.667969 13.402344 14.070312 14 13.332031 14 L 11.332031 14 C 10.597656 14 10 13.402344 10 12.667969 L 10 9.332031 C 10 8.597656 10.597656 8 11.332031 8 L 13.332031 8 C 13.332031 5.054688 10.945312 2.667969 8 2.667969 C 5.054688 2.667969 2.667969 5.054688 2.667969 8 Z M 2.667969 8 "/>
</g>
</svg>
