<?xml version="1.0" encoding="UTF-8"?>
<svg xmlns="http://www.w3.org/2000/svg" xmlns:xlink="http://www.w3.org/1999/xlink" width="16" height="16" viewBox="0 0 16 16" version="1.1">
<g id="surface1">
<path style=" stroke:none;fill-rule:nonzero;fill:rgb(0%,0%,0%);fill-opacity:1;" d="M 11 2 C 13.023438 2 14.667969 3.667969 14.667969 6 C 14.667969 10.667969 9.667969 13.332031 8 14.332031 C 6.332031 13.332031 1.332031 10.667969 1.332031 6 C 1.332031 3.667969 3 2 5 2 C 6.238281 2 7.332031 2.667969 8 3.332031 C 8.667969 2.667969 9.761719 2 11 2 Z M 8.621094 12.402344 C 9.210938 12.03125 9.738281 11.664062 10.234375 11.269531 C 12.222656 9.6875 13.332031 7.960938 13.332031 6 C 13.332031 4.425781 12.308594 3.332031 11 3.332031 C 10.28125 3.332031 9.507812 3.714844 8.941406 4.277344 L 8 5.21875 L 7.058594 4.277344 C 6.492188 3.714844 5.71875 3.332031 5 3.332031 C 3.707031 3.332031 2.667969 4.4375 2.667969 6 C 2.667969 7.960938 3.777344 9.6875 5.761719 11.269531 C 6.261719 11.664062 6.789062 12.03125 7.378906 12.402344 C 7.578125 12.527344 7.773438 12.648438 8 12.785156 C 8.226562 12.648438 8.421875 12.527344 8.621094 12.402344 Z M 8.621094 12.402344 "/>
</g>
</svg>
