<?xml version="1.0" encoding="UTF-8"?>
<svg xmlns="http://www.w3.org/2000/svg" xmlns:xlink="http://www.w3.org/1999/xlink" width="16" height="16" viewBox="0 0 16 16" version="1.1">
<g id="surface1">
<path style=" stroke:none;fill-rule:nonzero;fill:rgb(0%,0%,0%);fill-opacity:1;" d="M 8.195312 0.441406 C 5.828125 0.453125 3.554688 1.582031 2.117188 3.546875 L 1.125 3.015625 C 0.707031 2.789062 0.203125 3.109375 0.226562 3.585938 L 0.546875 8.125 C 0.554688 8.226562 0.585938 8.320312 0.640625 8.40625 C 0.828125 8.699219 1.21875 8.78125 1.507812 8.582031 L 5.015625 6.121094 C 5.390625 5.859375 5.363281 5.296875 4.960938 5.078125 L 3.929688 4.523438 L 3.898438 4.507812 C 5.375 2.675781 7.871094 1.949219 10.140625 2.789062 C 12.699219 3.734375 14.183594 6.371094 13.671875 9.046875 C 13.15625 11.722656 10.796875 13.625 8.074219 13.554688 C 7.523438 13.539062 7.0625 13.976562 7.050781 14.53125 C 7.046875 14.726562 7.101562 14.921875 7.203125 15.089844 C 7.382812 15.371094 7.691406 15.546875 8.023438 15.554688 C 11.710938 15.644531 14.9375 13.042969 15.632812 9.421875 C 16.328125 5.796875 14.289062 2.1875 10.828125 0.90625 C 9.964844 0.585938 9.074219 0.4375 8.195312 0.441406 Z M 8.195312 0.441406 "/>
<path style=" stroke:none;fill-rule:nonzero;fill:rgb(0%,0%,0%);fill-opacity:1;" d="M 7 2.996094 L 7 9 L 13 9 L 13 7 L 9 7 L 9 2.996094 Z M 7 2.996094 "/>
</g>
</svg>
