<?xml version="1.0" encoding="UTF-8"?>
<svg xmlns="http://www.w3.org/2000/svg" xmlns:xlink="http://www.w3.org/1999/xlink" width="16" height="16" viewBox="0 0 16 16" version="1.1">
<g id="surface1">
<path style=" stroke:none;fill-rule:nonzero;fill:rgb(0%,0%,0%);fill-opacity:1;" d="M 13.332031 13.332031 C 13.332031 13.703125 13.035156 14 12.667969 14 L 3.332031 14 C 2.964844 14 2.667969 13.703125 2.667969 13.332031 L 2.667969 7.332031 L 0.667969 7.332031 L 7.550781 1.074219 C 7.804688 0.84375 8.195312 0.84375 8.449219 1.074219 L 15.332031 7.332031 L 13.332031 7.332031 Z M 12 12.667969 L 12 6.105469 L 8 2.46875 L 4 6.105469 L 4 12.667969 Z M 8 11.332031 L 5.761719 9.09375 C 5.175781 8.507812 5.175781 7.558594 5.761719 6.972656 C 6.347656 6.386719 7.296875 6.386719 7.882812 6.972656 L 8 7.089844 L 8.117188 6.972656 C 8.703125 6.386719 9.652344 6.386719 10.238281 6.972656 C 10.824219 7.558594 10.824219 8.507812 10.238281 9.09375 Z M 8 11.332031 "/>
</g>
</svg>
