<?xml version="1.0" encoding="UTF-8"?>
<svg xmlns="http://www.w3.org/2000/svg" xmlns:xlink="http://www.w3.org/1999/xlink" width="16" height="16" viewBox="0 0 16 16" version="1.1">
<g id="surface1">
<path style=" stroke:none;fill-rule:nonzero;fill:rgb(0%,0%,0%);fill-opacity:1;" d="M 13.332031 13.332031 C 13.332031 13.703125 13.035156 14 12.667969 14 L 3.332031 14 C 2.964844 14 2.667969 13.703125 2.667969 13.332031 L 2.667969 7.332031 L 0.667969 7.332031 L 7.550781 1.074219 C 7.804688 0.84375 8.195312 0.84375 8.449219 1.074219 L 15.332031 7.332031 L 13.332031 7.332031 Z M 5.726562 9.207031 L 5.066406 9.585938 L 5.734375 10.742188 L 6.394531 10.359375 C 6.660156 10.609375 6.980469 10.796875 7.332031 10.902344 L 7.332031 11.664062 L 8.667969 11.664062 L 8.667969 10.898438 C 9.015625 10.796875 9.339844 10.609375 9.605469 10.359375 L 10.265625 10.742188 L 10.933594 9.585938 L 10.273438 9.207031 C 10.355469 8.851562 10.355469 8.480469 10.273438 8.125 L 10.933594 7.742188 L 10.265625 6.589844 L 9.605469 6.96875 C 9.339844 6.71875 9.015625 6.535156 8.667969 6.429688 L 8.667969 5.667969 L 7.332031 5.667969 L 7.332031 6.429688 C 6.980469 6.535156 6.660156 6.71875 6.394531 6.96875 L 5.734375 6.589844 L 5.066406 7.742188 L 5.726562 8.125 C 5.644531 8.480469 5.644531 8.851562 5.726562 9.207031 Z M 8 9.664062 C 7.449219 9.664062 7 9.21875 7 8.664062 C 7 8.113281 7.445312 7.664062 8 7.664062 C 8.550781 7.664062 9 8.113281 9 8.664062 C 9 9.214844 8.550781 9.664062 8 9.664062 Z M 8 9.664062 "/>
</g>
</svg>
