<?xml version="1.0" encoding="UTF-8"?>
<svg xmlns="http://www.w3.org/2000/svg" xmlns:xlink="http://www.w3.org/1999/xlink" width="16" height="16" viewBox="0 0 16 16" version="1.1">
<g id="surface1">
<path style=" stroke:none;fill-rule:nonzero;fill:rgb(0%,0%,0%);fill-opacity:1;" d="M 12.667969 13.332031 C 12.667969 13.703125 12.367188 14 12 14 L 2.667969 14 C 2.296875 14 2 13.703125 2 13.332031 L 2 7.332031 L 0 7.332031 L 6.882812 1.074219 C 7.140625 0.84375 7.527344 0.84375 7.78125 1.074219 L 14.667969 7.332031 L 12.667969 7.332031 Z M 7.332031 10 C 8.253906 10 9 9.253906 9 8.332031 C 9 7.414062 8.253906 6.667969 7.332031 6.667969 C 6.414062 6.667969 5.667969 7.414062 5.667969 8.332031 C 5.667969 9.253906 6.414062 10 7.332031 10 Z M 7.332031 10 "/>
</g>
</svg>
