<?xml version="1.0" encoding="UTF-8"?>
<svg xmlns="http://www.w3.org/2000/svg" xmlns:xlink="http://www.w3.org/1999/xlink" width="16" height="16" viewBox="0 0 16 16" version="1.1">
<g id="surface1">
<path style=" stroke:none;fill-rule:nonzero;fill:rgb(0%,0%,0%);fill-opacity:1;" d="M 14 2.667969 L 14 12.480469 C 14 12.613281 13.921875 12.734375 13.800781 12.785156 L 8 15.351562 L 2.199219 12.785156 C 2.078125 12.734375 2 12.613281 2 12.480469 L 2 2.667969 L 0.667969 2.667969 L 0.667969 1.332031 L 15.332031 1.332031 L 15.332031 2.667969 Z M 3.332031 2.667969 L 3.332031 11.828125 L 8 13.898438 L 12.667969 11.828125 L 12.667969 2.667969 Z M 5.332031 5.332031 L 10.667969 5.332031 L 10.667969 6.667969 L 5.332031 6.667969 Z M 5.332031 8 L 10.667969 8 L 10.667969 9.332031 L 5.332031 9.332031 Z M 5.332031 8 "/>
</g>
</svg>
