<?xml version="1.0" encoding="UTF-8"?>
<svg xmlns="http://www.w3.org/2000/svg" xmlns:xlink="http://www.w3.org/1999/xlink" width="16" height="16" viewBox="0 0 16 16" version="1.1">
<g id="surface1">
<path style=" stroke:none;fill-rule:nonzero;fill:rgb(0%,0%,0%);fill-opacity:1;" d="M 14.105469 2.839844 C 14.128906 5.171875 14.5 6.046875 14.628906 7.304688 C 14.832031 9.234375 14.191406 11.234375 12.714844 12.714844 C 10.269531 15.15625 6.398438 15.308594 3.78125 13.164062 L 5.683594 11.261719 C 7.246094 12.375 9.425781 12.230469 10.828125 10.828125 C 12.230469 9.425781 12.375 7.242188 11.261719 5.683594 Z M 12.21875 2.835938 L 10.316406 4.738281 C 8.753906 3.625 6.574219 3.769531 5.171875 5.171875 C 3.769531 6.574219 3.625 8.753906 4.738281 10.316406 L 1.894531 13.160156 C 1.871094 10.828125 1.5 9.953125 1.371094 8.695312 C 1.167969 6.765625 1.808594 4.765625 3.285156 3.285156 C 5.730469 0.84375 9.601562 0.691406 12.21875 2.835938 Z M 8 5.332031 C 9.472656 5.332031 10.667969 6.527344 10.667969 8 C 10.667969 9.472656 9.472656 10.667969 8 10.667969 C 6.527344 10.667969 5.332031 9.472656 5.332031 8 C 5.332031 6.527344 6.527344 5.332031 8 5.332031 Z M 8 7 C 7.449219 7 7 7.449219 7 8 C 7 8.550781 7.449219 9 8 9 C 8.550781 9 9 8.550781 9 8 C 9 7.449219 8.550781 7 8 7 Z M 8 7 "/>
</g>
</svg>
