<?xml version="1.0" encoding="UTF-8"?>
<svg xmlns="http://www.w3.org/2000/svg" xmlns:xlink="http://www.w3.org/1999/xlink" width="16" height="16" viewBox="0 0 16 16" version="1.1">
<g id="surface1">
<path style=" stroke:none;fill-rule:nonzero;fill:rgb(0%,0%,0%);fill-opacity:1;" d="M 14 10 L 14 12 L 16 12 L 16 13.332031 L 14 13.332031 L 14 15.332031 L 12.667969 15.332031 L 12.667969 13.332031 L 10.667969 13.332031 L 10.667969 12 L 12.667969 12 L 12.667969 10 Z M 14.003906 2 C 14.371094 2 14.667969 2.296875 14.667969 2.660156 L 14.667969 8.667969 L 13.332031 8.667969 L 13.332031 3.332031 L 2.667969 3.332031 L 2.667969 12.664062 L 9.332031 6 L 11.332031 8 L 11.332031 9.886719 L 9.332031 7.886719 L 4.550781 12.667969 L 9.332031 12.667969 L 9.332031 14 L 1.996094 14 C 1.628906 14 1.332031 13.703125 1.332031 13.339844 L 1.332031 2.660156 C 1.335938 2.296875 1.628906 2.003906 1.996094 2 Z M 5.332031 4.667969 C 6.070312 4.667969 6.667969 5.261719 6.667969 6 C 6.667969 6.738281 6.070312 7.332031 5.332031 7.332031 C 4.597656 7.332031 4 6.738281 4 6 C 4 5.261719 4.597656 4.667969 5.332031 4.667969 Z M 5.332031 4.667969 "/>
</g>
</svg>
