<?xml version="1.0" encoding="UTF-8"?>
<svg xmlns="http://www.w3.org/2000/svg" xmlns:xlink="http://www.w3.org/1999/xlink" width="16" height="16" viewBox="0 0 16 16" version="1.1">
<g id="surface1">
<path style=" stroke:none;fill-rule:nonzero;fill:rgb(0%,0%,0%);fill-opacity:1;" d="M 8 0.5 C 7.449219 0.5 7 0.945312 7 1.496094 L 7 10.015625 L 14.414062 15.316406 C 14.632812 15.46875 14.902344 15.53125 15.164062 15.484375 C 15.425781 15.441406 15.65625 15.296875 15.8125 15.078125 C 16.132812 14.632812 16.03125 14.007812 15.585938 13.683594 L 9 8.984375 L 9 1.496094 C 8.996094 0.945312 8.550781 0.5 8 0.5 Z M 8 0.5 "/>
<path style=" stroke:none;fill-rule:nonzero;fill:rgb(0%,0%,0%);fill-opacity:1;" d="M 7.972656 8.5 C 7.773438 8.507812 7.578125 8.570312 7.417969 8.6875 L 0.421875 13.683594 C 0.203125 13.835938 0.0585938 14.070312 0.015625 14.332031 C -0.03125 14.59375 0.03125 14.863281 0.183594 15.078125 C 0.335938 15.296875 0.570312 15.441406 0.835938 15.484375 C 1.09375 15.53125 1.363281 15.46875 1.578125 15.316406 L 8.578125 10.3125 C 8.796875 10.15625 8.941406 9.921875 8.984375 9.664062 C 9.03125 9.398438 8.96875 9.132812 8.8125 8.914062 C 8.617188 8.648438 8.304688 8.492188 7.972656 8.5 Z M 7.972656 8.5 "/>
</g>
</svg>
