<?xml version="1.0" encoding="UTF-8"?>
<svg xmlns="http://www.w3.org/2000/svg" xmlns:xlink="http://www.w3.org/1999/xlink" width="16" height="16" viewBox="0 0 16 16" version="1.1">
<g id="surface1">
<path style=" stroke:none;fill-rule:nonzero;fill:rgb(0%,0%,0%);fill-opacity:1;" d="M 1.140625 0 L 5.859375 0 C 6.488281 0 7 0.511719 7 1.140625 L 7 5.859375 C 7 6.488281 6.488281 7 5.859375 7 L 1.140625 7 C 0.511719 7 0 6.488281 0 5.859375 L 0 1.140625 C 0 0.511719 0.511719 0 1.140625 0 Z M 1.140625 0 "/>
<path style=" stroke:none;fill-rule:nonzero;fill:rgb(0%,0%,0%);fill-opacity:1;" d="M 1.140625 9 L 5.859375 9 C 6.488281 9 7 9.511719 7 10.140625 L 7 14.859375 C 7 15.488281 6.488281 16 5.859375 16 L 1.140625 16 C 0.511719 16 0 15.488281 0 14.859375 L 0 10.140625 C 0 9.511719 0.511719 9 1.140625 9 Z M 1.140625 9 "/>
<path style=" stroke:none;fill-rule:nonzero;fill:rgb(0%,0%,0%);fill-opacity:1;" d="M 10.140625 0 L 14.859375 0 C 15.488281 0 16 0.511719 16 1.140625 L 16 5.859375 C 16 6.488281 15.488281 7 14.859375 7 L 10.140625 7 C 9.511719 7 9 6.488281 9 5.859375 L 9 1.140625 C 9 0.511719 9.511719 0 10.140625 0 Z M 10.140625 0 "/>
<path style=" stroke:none;fill-rule:nonzero;fill:rgb(0%,0%,0%);fill-opacity:1;" d="M 10.140625 9 L 14.859375 9 C 15.488281 9 16 9.511719 16 10.140625 L 16 14.859375 C 16 15.488281 15.488281 16 14.859375 16 L 10.140625 16 C 9.511719 16 9 15.488281 9 14.859375 L 9 10.140625 C 9 9.511719 9.511719 9 10.140625 9 Z M 10.140625 9 "/>
</g>
</svg>
