<?xml version="1.0" encoding="UTF-8"?>
<svg xmlns="http://www.w3.org/2000/svg" xmlns:xlink="http://www.w3.org/1999/xlink" width="16" height="16" viewBox="0 0 16 16" version="1.1">
<g id="surface1">
<path style=" stroke:none;fill-rule:nonzero;fill:rgb(0%,0%,0%);fill-opacity:1;" d="M 14 2 L 14 3.332031 C 14 9.75 10.417969 12.667969 6 12.667969 L 4.730469 12.667969 C 4.875 10.660156 5.5 9.441406 7.128906 8 C 7.933594 7.289062 7.867188 6.878906 7.46875 7.113281 C 4.746094 8.734375 3.394531 10.925781 3.335938 14.421875 L 3.332031 14.667969 L 2 14.667969 C 2 13.757812 2.078125 12.933594 2.230469 12.179688 C 2.078125 11.316406 2 10.144531 2 8.667969 C 2 4.984375 4.984375 2 8.667969 2 C 10 2 11.332031 2.667969 14 2 Z M 14 2 "/>
</g>
</svg>
