<?xml version="1.0" encoding="UTF-8"?>
<svg xmlns="http://www.w3.org/2000/svg" xmlns:xlink="http://www.w3.org/1999/xlink" width="16" height="16" viewBox="0 0 16 16" version="1.1">
<g id="surface1">
<path style=" stroke:none;fill-rule:nonzero;fill:rgb(0%,0%,0%);fill-opacity:1;" d="M 5 13 L 5 15 L 6 16 L 10 16 L 11 15 L 11 13 Z M 5 13 "/>
<path style=" stroke:none;fill-rule:nonzero;fill:rgb(0%,0%,0%);fill-opacity:1;" d="M 8 0 C 5 0 3 2 3 5 C 3 8 5 9 5 12 L 11 12 C 11 9 13 8 13 5 C 13 2 11 0 8 0 Z M 8 1.871094 C 9.085938 1.871094 9.808594 2.203125 10.304688 2.695312 C 10.800781 3.195312 11.132812 3.914062 11.132812 5 C 11.132812 6.085938 10.828125 6.664062 10.328125 7.664062 C 10.042969 8.234375 9.898438 9.277344 9.648438 10.132812 L 6.347656 10.132812 C 6.101562 9.277344 5.953125 8.234375 5.671875 7.664062 C 5.171875 6.664062 4.867188 6.085938 4.867188 5 C 4.867188 3.917969 5.195312 3.195312 5.691406 2.695312 C 6.1875 2.199219 6.914062 1.871094 8 1.871094 Z M 8 1.871094 "/>
</g>
</svg>
