<?xml version="1.0" encoding="UTF-8"?>
<svg xmlns="http://www.w3.org/2000/svg" xmlns:xlink="http://www.w3.org/1999/xlink" width="16" height="16" viewBox="0 0 16 16" version="1.1">
<g id="surface1">
<path style=" stroke:none;fill-rule:nonzero;fill:rgb(0%,0%,0%);fill-opacity:1;" d="M 6.648438 12 L 7.332031 12 L 7.332031 8.667969 L 8.667969 8.667969 L 8.667969 12 L 9.351562 12 C 9.4375 11.199219 9.847656 10.539062 10.511719 9.816406 C 10.585938 9.734375 11.066406 9.238281 11.121094 9.167969 C 12.433594 7.53125 12.257812 5.164062 10.722656 3.738281 C 9.1875 2.3125 6.8125 2.308594 5.277344 3.734375 C 3.742188 5.160156 3.566406 7.53125 4.875 9.164062 C 4.933594 9.238281 5.414062 9.734375 5.488281 9.816406 C 6.152344 10.539062 6.5625 11.199219 6.648438 12 Z M 6.667969 13.332031 L 6.667969 14 L 9.332031 14 L 9.332031 13.332031 Z M 3.835938 10 C 2.089844 7.820312 2.324219 4.660156 4.371094 2.757812 C 6.417969 0.859375 9.585938 0.859375 11.628906 2.761719 C 13.675781 4.664062 13.910156 7.820312 12.164062 10 C 11.75 10.515625 10.667969 11.332031 10.667969 12.332031 L 10.667969 14 C 10.667969 14.738281 10.070312 15.332031 9.332031 15.332031 L 6.667969 15.332031 C 5.929688 15.332031 5.332031 14.738281 5.332031 14 L 5.332031 12.332031 C 5.332031 11.332031 4.25 10.515625 3.835938 10 Z M 3.835938 10 "/>
</g>
</svg>
