<?xml version="1.0" encoding="UTF-8"?>
<svg xmlns="http://www.w3.org/2000/svg" xmlns:xlink="http://www.w3.org/1999/xlink" width="16" height="16" viewBox="0 0 16 16" version="1.1">
<g id="surface1">
<path style=" stroke:none;fill-rule:nonzero;fill:rgb(0%,0%,0%);fill-opacity:1;" d="M 4.625 3.332031 C 4.625 4.070312 4.027344 4.667969 3.292969 4.664062 C 2.554688 4.664062 1.960938 4.070312 1.960938 3.332031 C 1.960938 2.59375 2.558594 2 3.292969 2 C 4.03125 2 4.628906 2.597656 4.625 3.332031 Z M 4.667969 5.652344 L 2 5.652344 L 2 14 L 4.667969 14 Z M 8.878906 5.652344 L 6.226562 5.652344 L 6.226562 14 L 8.851562 14 L 8.851562 9.621094 C 8.851562 7.179688 12.035156 6.953125 12.035156 9.621094 L 12.035156 14 L 14.667969 14 L 14.667969 8.714844 C 14.667969 4.601562 9.960938 4.753906 8.851562 6.773438 Z M 8.878906 5.652344 "/>
</g>
</svg>
