<?xml version="1.0" encoding="UTF-8"?>
<svg xmlns="http://www.w3.org/2000/svg" xmlns:xlink="http://www.w3.org/1999/xlink" width="16" height="16" viewBox="0 0 16 16" version="1.1">
<g id="surface1">
<path style=" stroke:none;fill-rule:nonzero;fill:rgb(0%,0%,0%);fill-opacity:1;" d="M 1.332031 12 L 6 12 L 6 13.332031 L 1.332031 13.332031 Z M 1.332031 7.332031 L 7.332031 7.332031 L 7.332031 8.667969 L 1.332031 8.667969 Z M 1.332031 2.667969 L 14.667969 2.667969 L 14.667969 4 L 1.332031 4 Z M 13.78125 8.683594 L 14.554688 8.421875 L 15.21875 9.578125 L 14.609375 10.113281 C 14.6875 10.476562 14.6875 10.855469 14.609375 11.21875 L 15.21875 11.757812 L 14.554688 12.910156 L 13.78125 12.648438 C 13.507812 12.898438 13.183594 13.085938 12.824219 13.203125 L 12.667969 14 L 11.332031 14 L 11.171875 13.203125 C 10.820312 13.085938 10.492188 12.898438 10.21875 12.648438 L 9.445312 12.910156 L 8.78125 11.757812 L 9.390625 11.21875 C 9.3125 10.855469 9.3125 10.476562 9.390625 10.113281 L 8.78125 9.578125 L 9.445312 8.421875 L 10.21875 8.683594 C 10.492188 8.4375 10.816406 8.246094 11.175781 8.128906 L 11.332031 7.332031 L 12.667969 7.332031 L 12.828125 8.128906 C 13.183594 8.246094 13.507812 8.4375 13.78125 8.683594 Z M 12 12 C 12.738281 12 13.332031 11.402344 13.332031 10.667969 C 13.332031 9.929688 12.738281 9.332031 12 9.332031 C 11.261719 9.332031 10.667969 9.929688 10.667969 10.667969 C 10.667969 11.402344 11.261719 12 12 12 Z M 12 12 "/>
</g>
</svg>
