<?xml version="1.0" encoding="UTF-8"?>
<svg xmlns="http://www.w3.org/2000/svg" xmlns:xlink="http://www.w3.org/1999/xlink" width="16" height="16" viewBox="0 0 16 16" version="1.1">
<g id="surface1">
<path style=" stroke:none;fill-rule:nonzero;fill:rgb(0%,0%,0%);fill-opacity:1;" d="M 5.332031 2.667969 L 14 2.667969 L 14 4 L 5.332031 4 Z M 3 4.332031 C 2.449219 4.332031 2 3.886719 2 3.332031 C 2 2.78125 2.449219 2.332031 3 2.332031 C 3.550781 2.332031 4 2.78125 4 3.332031 C 4 3.886719 3.550781 4.332031 3 4.332031 Z M 3 9 C 2.449219 9 2 8.550781 2 8 C 2 7.449219 2.449219 7 3 7 C 3.550781 7 4 7.449219 4 8 C 4 8.550781 3.550781 9 3 9 Z M 3 13.601562 C 2.449219 13.601562 2 13.152344 2 12.601562 C 2 12.046875 2.449219 11.601562 3 11.601562 C 3.550781 11.601562 4 12.046875 4 12.601562 C 4 13.152344 3.550781 13.601562 3 13.601562 Z M 5.332031 7.332031 L 14 7.332031 L 14 8.667969 L 5.332031 8.667969 Z M 5.332031 12 L 14 12 L 14 13.332031 L 5.332031 13.332031 Z M 5.332031 12 "/>
</g>
</svg>
