<?xml version="1.0" encoding="UTF-8"?>
<svg xmlns="http://www.w3.org/2000/svg" xmlns:xlink="http://www.w3.org/1999/xlink" width="16" height="16" viewBox="0 0 16 16" version="1.1">
<g id="surface1">
<path style=" stroke:none;fill-rule:nonzero;fill:rgb(0%,0%,0%);fill-opacity:1;" d="M 5.332031 2.667969 L 14 2.667969 L 14 4 L 5.332031 4 Z M 3.332031 2 L 3.332031 4 L 4 4 L 4 4.667969 L 2 4.667969 L 2 4 L 2.667969 4 L 2.667969 2.667969 L 2 2.667969 L 2 2 Z M 2 9.332031 L 2 7.667969 L 3.332031 7.667969 L 3.332031 7.332031 L 2 7.332031 L 2 6.667969 L 4 6.667969 L 4 8.332031 L 2.667969 8.332031 L 2.667969 8.667969 L 4 8.667969 L 4 9.332031 Z M 3.332031 13 L 2 13 L 2 12.332031 L 3.332031 12.332031 L 3.332031 12 L 2 12 L 2 11.332031 L 4 11.332031 L 4 14 L 2 14 L 2 13.332031 L 3.332031 13.332031 Z M 5.332031 7.332031 L 14 7.332031 L 14 8.667969 L 5.332031 8.667969 Z M 5.332031 12 L 14 12 L 14 13.332031 L 5.332031 13.332031 Z M 5.332031 12 "/>
</g>
</svg>
