<?xml version="1.0" encoding="UTF-8"?>
<svg xmlns="http://www.w3.org/2000/svg" xmlns:xlink="http://www.w3.org/1999/xlink" width="16" height="16" viewBox="0 0 16 16" version="1.1">
<g id="surface1">
<path style=" stroke:none;fill-rule:nonzero;fill:rgb(0%,0%,0%);fill-opacity:1;" d="M 10.667969 2.667969 C 11.035156 2.667969 11.332031 2.964844 11.332031 3.332031 L 11.332031 6.132812 L 14.808594 3.699219 C 14.910156 3.628906 15.042969 3.621094 15.152344 3.675781 C 15.265625 3.734375 15.332031 3.847656 15.332031 3.972656 L 15.332031 12.027344 C 15.332031 12.152344 15.265625 12.265625 15.152344 12.324219 C 15.042969 12.378906 14.910156 12.371094 14.808594 12.300781 L 11.332031 9.867188 L 11.332031 12.667969 C 11.332031 13.035156 11.035156 13.332031 10.667969 13.332031 L 1.332031 13.332031 C 0.964844 13.332031 0.667969 13.035156 0.667969 12.667969 L 0.667969 3.332031 C 0.667969 2.964844 0.964844 2.667969 1.332031 2.667969 Z M 4.933594 5.886719 C 4.804688 5.886719 4.699219 5.976562 4.671875 6.097656 L 4.667969 6.152344 L 4.667969 9.847656 C 4.667969 9.933594 4.710938 10.015625 4.78125 10.066406 C 4.855469 10.117188 4.945312 10.128906 5.027344 10.097656 L 5.078125 10.070312 L 7.980469 8.222656 C 8.046875 8.179688 8.09375 8.105469 8.101562 8.027344 C 8.109375 7.945312 8.082031 7.863281 8.023438 7.808594 L 7.980469 7.773438 L 5.078125 5.925781 C 5.035156 5.898438 4.984375 5.886719 4.933594 5.886719 Z M 4.933594 5.886719 "/>
</g>
</svg>
