<?xml version="1.0" encoding="UTF-8"?>
<svg xmlns="http://www.w3.org/2000/svg" xmlns:xlink="http://www.w3.org/1999/xlink" width="16" height="16" viewBox="0 0 16 16" version="1.1">
<g id="surface1">
<path style=" stroke:none;fill-rule:nonzero;fill:rgb(0%,0%,0%);fill-opacity:1;" d="M 2.667969 12 L 4 12 L 4 13.332031 L 12 13.332031 L 12 2.667969 L 4 2.667969 L 4 4 L 2.667969 4 L 2.667969 2 C 2.667969 1.632812 2.964844 1.332031 3.332031 1.332031 L 12.667969 1.332031 C 13.035156 1.332031 13.332031 1.632812 13.332031 2 L 13.332031 14 C 13.332031 14.367188 13.035156 14.667969 12.667969 14.667969 L 3.332031 14.667969 C 2.964844 14.667969 2.667969 14.367188 2.667969 14 Z M 4 7.332031 L 8.667969 7.332031 L 8.667969 8.667969 L 4 8.667969 L 4 10.667969 L 0.667969 8 L 4 5.332031 Z M 4 7.332031 "/>
</g>
</svg>
