<?xml version="1.0" encoding="UTF-8"?>
<svg xmlns="http://www.w3.org/2000/svg" xmlns:xlink="http://www.w3.org/1999/xlink" width="16" height="16" viewBox="0 0 16 16" version="1.1">
<g id="surface1">
<path style=" stroke:none;fill-rule:nonzero;fill:rgb(0%,0%,0%);fill-opacity:1;" d="M 10 2 C 10.367188 2 10.667969 2.296875 10.667969 2.667969 L 10.667969 4 L 13.332031 4 C 13.703125 4 14 4.296875 14 4.667969 L 14 12.667969 L 15.332031 12.667969 L 15.332031 14 L 0.667969 14 L 0.667969 12.667969 L 2 12.667969 L 2 4.667969 C 2 4.296875 2.296875 4 2.667969 4 L 5.332031 4 L 5.332031 2.667969 C 5.332031 2.296875 5.632812 2 6 2 Z M 6.667969 5.332031 L 5.332031 5.332031 L 5.332031 12.667969 L 6.667969 12.667969 Z M 10.667969 5.332031 L 9.332031 5.332031 L 9.332031 12.667969 L 10.667969 12.667969 Z M 9.332031 3.332031 L 6.667969 3.332031 L 6.667969 4 L 9.332031 4 Z M 9.332031 3.332031 "/>
</g>
</svg>
