<?xml version="1.0" encoding="UTF-8"?>
<svg xmlns="http://www.w3.org/2000/svg" xmlns:xlink="http://www.w3.org/1999/xlink" width="16" height="16" viewBox="0 0 16 16" version="1.1">
<g id="surface1">
<path style=" stroke:none;fill-rule:nonzero;fill:rgb(0%,0%,0%);fill-opacity:1;" d="M 14.667969 11.332031 C 14.667969 14 14.667969 14 12 14 C 9.335938 14 8.667969 12 8.667969 10 C 8.667969 9.746094 8.65625 9.386719 8.648438 8.964844 L 10 9.746094 L 10 10 C 10 11.851562 10.542969 12.667969 12 12.667969 C 12.761719 12.667969 13.074219 12.660156 13.308594 12.640625 C 13.328125 12.40625 13.332031 12.09375 13.332031 11.332031 C 13.332031 9.195312 12.863281 7.3125 12.109375 6.066406 C 11.550781 5.144531 11.035156 4.839844 10.753906 4.929688 C 10.558594 4.996094 10.351562 5.363281 10.203125 6.011719 L 9.007812 5.324219 C 9.253906 4.527344 9.664062 3.890625 10.332031 3.667969 C 12.332031 3 14.667969 6.332031 14.667969 11.332031 Z M 5.667969 3.667969 C 6.339844 3.890625 6.746094 4.527344 6.992188 5.324219 L 5.800781 6.011719 C 5.648438 5.363281 5.441406 4.996094 5.246094 4.929688 C 4.964844 4.839844 4.449219 5.144531 3.890625 6.066406 C 3.136719 7.3125 2.667969 9.195312 2.667969 11.332031 C 2.667969 12.09375 2.671875 12.40625 2.691406 12.640625 C 2.925781 12.660156 3.238281 12.667969 4 12.667969 C 5.457031 12.667969 6 11.851562 6 10 L 6.003906 9.746094 L 7.351562 8.964844 C 7.34375 9.386719 7.332031 9.746094 7.332031 10 C 7.332031 12 6.667969 14 4 14 C 1.332031 14 1.332031 14 1.332031 11.332031 C 1.332031 6.332031 3.667969 3 5.667969 3.667969 Z M 8.667969 1.332031 L 8.667969 6.28125 L 11.796875 8.089844 L 11.128906 9.242188 L 8 7.4375 L 4.871094 9.242188 L 4.203125 8.089844 L 7.332031 6.28125 L 7.332031 1.332031 Z M 8.667969 1.332031 "/>
</g>
</svg>
