<?xml version="1.0" encoding="UTF-8"?>
<svg xmlns="http://www.w3.org/2000/svg" xmlns:xlink="http://www.w3.org/1999/xlink" width="16" height="16" viewBox="0 0 16 16" version="1.1">
<g id="surface1">
<path style=" stroke:none;fill-rule:nonzero;fill:rgb(0%,0%,0%);fill-opacity:1;" d="M 13.332031 9.667969 L 13.332031 15.667969 L 11.113281 14 L 9.332031 14 L 9.332031 11.332031 L 11.113281 11.332031 Z M 14 2 C 14.367188 2 14.667969 2.296875 14.667969 2.667969 L 14.667969 9.6875 C 13.304688 8.464844 11.289062 8.324219 9.769531 9.339844 C 8.253906 10.359375 7.617188 12.277344 8.226562 14 L 2 14 C 1.632812 14 1.335938 13.703125 1.335938 13.332031 L 1.335938 2.667969 C 1.335938 2.296875 1.632812 2 2 2 Z M 14 11.332031 C 14.71875 11.332031 15.3125 11.898438 15.339844 12.617188 C 15.367188 13.335938 14.816406 13.945312 14.101562 13.996094 L 14 14 Z M 3.765625 4.160156 L 2.902344 5.175781 L 8.046875 9.542969 L 13.101562 5.171875 L 12.230469 4.164062 L 8.039062 7.789062 Z M 3.765625 4.160156 "/>
</g>
</svg>
