<?xml version="1.0" encoding="UTF-8"?>
<svg xmlns="http://www.w3.org/2000/svg" xmlns:xlink="http://www.w3.org/1999/xlink" width="16" height="16" viewBox="0 0 16 16" version="1.1">
<g id="surface1">
<path style=" stroke:none;fill-rule:nonzero;fill:rgb(0%,0%,0%);fill-opacity:1;" d="M 12.535156 5.660156 C 13.195312 5.984375 13.945312 6.078125 14.667969 5.933594 L 14.667969 13.332031 C 14.667969 13.703125 14.367188 14 14 14 L 2 14 C 1.632812 14 1.332031 13.703125 1.332031 13.332031 L 1.332031 2.667969 C 1.332031 2.296875 1.632812 2 2 2 L 10.734375 2 C 10.6875 2.214844 10.667969 2.4375 10.667969 2.667969 C 10.664062 3.457031 10.949219 4.226562 11.460938 4.828125 L 8.039062 7.789062 L 3.765625 4.160156 L 2.902344 5.175781 L 8.046875 9.542969 Z M 14 4.667969 C 12.894531 4.667969 12 3.769531 12 2.667969 C 12 1.5625 12.894531 0.667969 14 0.667969 C 15.105469 0.667969 16 1.5625 16 2.667969 C 16 3.769531 15.105469 4.667969 14 4.667969 Z M 14 4.667969 "/>
</g>
</svg>
