<?xml version="1.0" encoding="UTF-8"?>
<svg xmlns="http://www.w3.org/2000/svg" xmlns:xlink="http://www.w3.org/1999/xlink" width="16" height="16" viewBox="0 0 16 16" version="1.1">
<g id="surface1">
<path style=" stroke:none;fill-rule:nonzero;fill:rgb(0%,0%,0%);fill-opacity:1;" d="M 7.332031 11.957031 C 4.542969 11.605469 2.507812 9.140625 2.683594 6.332031 C 2.859375 3.523438 5.1875 1.335938 8 1.332031 C 10.816406 1.332031 13.152344 3.519531 13.328125 6.332031 C 13.503906 9.144531 11.460938 11.609375 8.667969 11.957031 L 8.667969 13.339844 C 11.296875 13.402344 13.332031 13.824219 13.332031 14.332031 C 13.332031 14.886719 10.945312 15.332031 8 15.332031 C 5.054688 15.332031 2.667969 14.886719 2.667969 14.332031 C 2.667969 13.824219 4.703125 13.402344 7.332031 13.339844 Z M 8 10.667969 C 10.210938 10.667969 12 8.875 12 6.667969 C 12 4.457031 10.210938 2.667969 8 2.667969 C 5.789062 2.667969 4 4.457031 4 6.667969 C 4 8.875 5.789062 10.667969 8 10.667969 Z M 8 8 C 7.261719 8 6.667969 7.402344 6.667969 6.667969 C 6.667969 5.929688 7.261719 5.332031 8 5.332031 C 8.738281 5.332031 9.332031 5.929688 9.332031 6.667969 C 9.332031 7.402344 8.738281 8 8 8 Z M 8 8 "/>
</g>
</svg>
