<?xml version="1.0" encoding="UTF-8"?>
<svg xmlns="http://www.w3.org/2000/svg" xmlns:xlink="http://www.w3.org/1999/xlink" width="16" height="16" viewBox="0 0 16 16" version="1.1">
<g id="surface1">
<path style=" stroke:none;fill-rule:evenodd;fill:rgb(0%,0%,0%);fill-opacity:1;" d="M 11.476562 1.828125 C 11.492188 1.804688 11.515625 1.78125 11.535156 1.757812 C 11.628906 1.664062 11.757812 1.609375 11.890625 1.609375 C 12.023438 1.609375 12.148438 1.664062 12.242188 1.757812 C 13.367188 2.882812 13.996094 4.410156 13.996094 6 C 13.996094 7.59375 13.359375 9.117188 12.234375 10.242188 C 12.039062 10.4375 11.726562 10.433594 11.53125 10.238281 C 11.34375 10.042969 11.34375 9.734375 11.535156 9.539062 C 12.472656 8.601562 12.996094 7.328125 12.996094 6.003906 C 12.996094 4.679688 12.472656 3.40625 11.535156 2.46875 C 11.367188 2.296875 11.339844 2.023438 11.476562 1.828125 Z M 11.476562 1.828125 "/>
<path style=" stroke:none;fill-rule:evenodd;fill:rgb(0%,0%,0%);fill-opacity:1;" d="M 12.890625 0.417969 C 12.90625 0.390625 12.929688 0.367188 12.949219 0.34375 C 13.042969 0.25 13.171875 0.195312 13.304688 0.195312 C 13.4375 0.195312 13.5625 0.25 13.65625 0.34375 C 15.15625 1.84375 16 3.875 16 6 C 16 8.117188 15.152344 10.15625 13.652344 11.65625 C 13.558594 11.75 13.429688 11.804688 13.296875 11.804688 C 13.164062 11.804688 13.039062 11.75 12.945312 11.65625 C 12.851562 11.5625 12.796875 11.4375 12.796875 11.304688 C 12.796875 11.171875 12.851562 11.046875 12.945312 10.953125 C 14.257812 9.640625 15 7.859375 15 6 C 15 4.144531 14.265625 2.363281 12.949219 1.046875 C 12.78125 0.882812 12.757812 0.617188 12.890625 0.417969 Z M 12.890625 0.417969 "/>
<path style=" stroke:none;fill-rule:nonzero;fill:rgb(0%,0%,0%);fill-opacity:1;" d="M 5.449219 15.960938 C 5.363281 15.9375 5.226562 15.890625 5.140625 15.851562 C 4.789062 15.679688 4.832031 15.742188 2.726562 12.09375 C 1.648438 10.226562 0.695312 8.554688 0.613281 8.375 C 0.179688 7.460938 -0.0390625 6.445312 0.0078125 5.574219 C 0.0859375 4.023438 0.640625 2.75 1.695312 1.695312 C 3.953125 -0.5625 7.609375 -0.5625 9.859375 1.695312 C 10.507812 2.34375 10.960938 3.070312 11.25 3.917969 C 11.742188 5.375 11.640625 6.921875 10.960938 8.351562 C 10.808594 8.671875 7.226562 14.90625 6.921875 15.378906 C 6.609375 15.867188 6.023438 16.101562 5.449219 15.960938 Z M 6.28125 7.429688 C 6.359375 7.414062 6.554688 7.335938 6.710938 7.257812 C 7.65625 6.804688 8.117188 5.683594 7.769531 4.679688 C 7.664062 4.375 7.519531 4.148438 7.28125 3.902344 C 7.046875 3.664062 6.78125 3.492188 6.460938 3.375 C 6.25 3.296875 6.195312 3.289062 5.78125 3.289062 C 5.363281 3.289062 5.304688 3.296875 5.09375 3.375 C 4.398438 3.632812 3.914062 4.164062 3.730469 4.871094 C 3.648438 5.171875 3.664062 5.632812 3.753906 5.949219 C 3.984375 6.742188 4.65625 7.335938 5.464844 7.46875 C 5.664062 7.496094 6.070312 7.476562 6.28125 7.429688 Z M 6.28125 7.429688 "/>
</g>
</svg>
