<?xml version="1.0" encoding="UTF-8"?>
<svg xmlns="http://www.w3.org/2000/svg" xmlns:xlink="http://www.w3.org/1999/xlink" width="16" height="16" viewBox="0 0 16 16" version="1.1">
<g id="surface1">
<path style=" stroke:none;fill-rule:nonzero;fill:rgb(0%,0%,0%);fill-opacity:1;" d="M 6.667969 7 L 7.359375 4.578125 C 7.441406 4.289062 7.703125 4.09375 8 4.09375 C 8.296875 4.09375 8.558594 4.289062 8.640625 4.578125 L 9.332031 7 L 9.332031 8 L 9.8125 8 C 10.117188 8 10.386719 8.207031 10.460938 8.503906 L 11.367188 12.136719 C 13.117188 10.710938 13.78125 8.339844 13.023438 6.214844 C 12.269531 4.085938 10.257812 2.667969 8 2.667969 C 5.742188 2.667969 3.730469 4.085938 2.976562 6.214844 C 2.21875 8.339844 2.882812 10.710938 4.632812 12.136719 L 5.539062 8.503906 C 5.613281 8.207031 5.882812 8 6.1875 8 L 6.667969 8 Z M 8 13.332031 C 8.75 13.335938 9.492188 13.175781 10.175781 12.871094 L 9.292969 9.332031 L 6.707031 9.332031 L 5.824219 12.871094 C 6.507812 13.175781 7.25 13.335938 8 13.332031 Z M 8 14.667969 C 4.316406 14.667969 1.332031 11.683594 1.332031 8 C 1.332031 4.316406 4.316406 1.332031 8 1.332031 C 11.683594 1.332031 14.667969 4.316406 14.667969 8 C 14.667969 11.683594 11.683594 14.667969 8 14.667969 Z M 8 14.667969 "/>
</g>
</svg>
