<?xml version="1.0" encoding="UTF-8"?>
<svg xmlns="http://www.w3.org/2000/svg" xmlns:xlink="http://www.w3.org/1999/xlink" width="16" height="16" viewBox="0 0 16 16" version="1.1">
<g id="surface1">
<path style=" stroke:none;fill-rule:nonzero;fill:rgb(0%,0%,0%);fill-opacity:1;" d="M 13.648438 14.617188 C 15.929688 12.335938 16.609375 8.894531 15.375 5.914062 C 14.140625 2.933594 11.226562 0.984375 8 0.984375 C 4.777344 0.984375 1.859375 2.9375 0.625 5.921875 C -0.609375 8.898438 0.0742188 12.335938 2.355469 14.617188 C 2.882812 15.144531 3.742188 15.144531 4.269531 14.617188 C 4.523438 14.363281 4.671875 14.019531 4.671875 13.65625 C 4.671875 13.296875 4.53125 12.953125 4.273438 12.695312 C 2.765625 11.1875 2.3125 8.929688 3.132812 6.953125 C 3.949219 4.984375 5.867188 3.695312 8 3.695312 C 10.140625 3.695312 12.054688 4.984375 12.875 6.953125 C 13.6875 8.929688 13.238281 11.1875 11.726562 12.695312 C 11.203125 13.226562 11.203125 14.082031 11.726562 14.609375 C 11.984375 14.867188 12.328125 15.011719 12.6875 15.015625 C 13.046875 15.015625 13.390625 14.871094 13.648438 14.617188 Z M 13.648438 14.617188 "/>
<path style=" stroke:none;fill-rule:nonzero;fill:rgb(0%,0%,0%);fill-opacity:1;" d="M 4.820312 5.871094 L 7.570312 9.8125 L 8.792969 8.140625 Z M 4.820312 5.871094 "/>
<path style=" stroke:none;fill-rule:nonzero;fill:rgb(0%,0%,0%);fill-opacity:1;" d="M 4.847656 5.335938 C 4.398438 5.308594 4.121094 5.8125 4.382812 6.179688 L 7.132812 10.117188 C 7.339844 10.417969 7.78125 10.421875 7.996094 10.125 L 9.21875 8.453125 C 9.410156 8.199219 9.335938 7.835938 9.0625 7.675781 L 5.085938 5.410156 C 5.015625 5.367188 4.933594 5.34375 4.847656 5.335938 Z M 4.847656 5.335938 "/>
</g>
</svg>
