<?xml version="1.0" encoding="UTF-8"?>
<svg xmlns="http://www.w3.org/2000/svg" xmlns:xlink="http://www.w3.org/1999/xlink" width="16" height="16" viewBox="0 0 16 16" version="1.1">
<g id="surface1">
<path style=" stroke:none;fill-rule:nonzero;fill:rgb(0%,0%,0%);fill-opacity:1;" d="M 8 14.667969 C 4.316406 14.667969 1.332031 11.683594 1.332031 8 C 1.332031 4.316406 4.316406 1.332031 8 1.332031 C 11.683594 1.332031 14.667969 4.316406 14.667969 8 C 14.667969 11.683594 11.683594 14.667969 8 14.667969 Z M 5.667969 9.332031 L 5.667969 10.667969 L 7.332031 10.667969 L 7.332031 12 L 8.667969 12 L 8.667969 10.667969 L 9.332031 10.667969 C 10.253906 10.667969 11 9.921875 11 9 C 11 8.078125 10.253906 7.332031 9.332031 7.332031 L 6.667969 7.332031 C 6.484375 7.332031 6.332031 7.183594 6.332031 7 C 6.332031 6.816406 6.484375 6.667969 6.667969 6.667969 L 10.332031 6.667969 L 10.332031 5.332031 L 8.667969 5.332031 L 8.667969 4 L 7.332031 4 L 7.332031 5.332031 L 6.667969 5.332031 C 5.746094 5.332031 5 6.078125 5 7 C 5 7.921875 5.746094 8.667969 6.667969 8.667969 L 9.332031 8.667969 C 9.515625 8.667969 9.667969 8.816406 9.667969 9 C 9.667969 9.183594 9.515625 9.332031 9.332031 9.332031 Z M 5.667969 9.332031 "/>
</g>
</svg>
