<?xml version="1.0" encoding="UTF-8"?>
<svg xmlns="http://www.w3.org/2000/svg" xmlns:xlink="http://www.w3.org/1999/xlink" width="16" height="16" viewBox="0 0 16 16" version="1.1">
<g id="surface1">
<path style=" stroke:none;fill-rule:nonzero;fill:rgb(0%,0%,0%);fill-opacity:1;" d="M 0.5 1 C 0.222656 1 -0.00390625 1.226562 -0.00390625 1.503906 L -0.00390625 14.496094 C -0.00390625 14.773438 0.222656 15 0.5 15 L 15.5 15 C 15.777344 15 16.003906 14.773438 16 14.496094 L 16 1.503906 C 16.003906 1.226562 15.777344 1 15.5 1 Z M 0.992188 2.007812 L 15 2.007812 L 15 14 L 0.992188 14 Z M 2 3 L 2 10 L 4 10 L 4 9 L 3 9 L 3 3 Z M 5 6 L 5 10 L 9 10 L 9 6 Z M 10 6 L 10 10 L 13 10 L 13 12 L 11 12 L 11 13 L 14 13 L 14 6 Z M 6 7 L 8 7 L 8 9 L 6 9 Z M 11 7 L 13 7 L 13 9 L 11 9 Z M 11 7 "/>
</g>
</svg>
