<?xml version="1.0" encoding="UTF-8"?>
<svg xmlns="http://www.w3.org/2000/svg" xmlns:xlink="http://www.w3.org/1999/xlink" width="16" height="16" viewBox="0 0 16 16" version="1.1">
<g id="surface1">
<path style=" stroke:none;fill-rule:nonzero;fill:rgb(0%,0%,0%);fill-opacity:1;" d="M 6.546875 1.492188 C 5.496094 3.773438 5.980469 6.46875 7.753906 8.246094 C 9.53125 10.019531 12.226562 10.503906 14.507812 9.453125 C 13.84375 12.4375 11.183594 14.667969 8 14.667969 C 4.316406 14.667969 1.332031 11.683594 1.332031 8 C 1.332031 4.816406 3.5625 2.15625 6.546875 1.492188 Z M 12.109375 1.527344 L 12.667969 1.667969 L 12.667969 2.332031 L 12.109375 2.472656 C 11.632812 2.59375 11.257812 2.964844 11.140625 3.441406 L 11 4 L 10.332031 4 L 10.195312 3.441406 C 10.074219 2.964844 9.703125 2.59375 9.222656 2.472656 L 8.667969 2.332031 L 8.667969 1.667969 L 9.222656 1.527344 C 9.703125 1.40625 10.074219 1.035156 10.191406 0.558594 L 10.332031 0 L 11 0 L 11.140625 0.558594 C 11.257812 1.035156 11.632812 1.40625 12.109375 1.527344 Z M 15.441406 4.859375 L 16 5 L 16 5.667969 L 15.441406 5.804688 C 14.964844 5.925781 14.59375 6.296875 14.472656 6.777344 L 14.332031 7.332031 L 13.667969 7.332031 L 13.527344 6.777344 C 13.40625 6.296875 13.035156 5.925781 12.558594 5.804688 L 12 5.667969 L 12 5 L 12.558594 4.859375 C 13.035156 4.742188 13.40625 4.367188 13.527344 3.890625 L 13.667969 3.332031 L 14.332031 3.332031 L 14.472656 3.890625 C 14.59375 4.367188 14.964844 4.742188 15.441406 4.859375 Z M 15.441406 4.859375 "/>
</g>
</svg>
