<?xml version="1.0" encoding="UTF-8"?>
<svg xmlns="http://www.w3.org/2000/svg" xmlns:xlink="http://www.w3.org/1999/xlink" width="16" height="16" viewBox="0 0 16 16" version="1.1">
<g id="surface1">
<path style=" stroke:none;fill-rule:nonzero;fill:rgb(0%,0%,0%);fill-opacity:1;" d="M 12.667969 14.667969 L 3.332031 14.667969 C 2.230469 14.667969 1.332031 13.769531 1.332031 12.667969 L 1.332031 2 C 1.332031 1.632812 1.632812 1.332031 2 1.332031 L 11.332031 1.332031 C 11.703125 1.332031 12 1.632812 12 2 L 12 6.667969 L 14.667969 6.667969 L 14.667969 12.667969 C 14.667969 13.769531 13.769531 14.667969 12.667969 14.667969 Z M 12 8 L 12 12.667969 C 12 13.035156 12.296875 13.332031 12.667969 13.332031 C 13.035156 13.332031 13.332031 13.035156 13.332031 12.667969 L 13.332031 8 Z M 3.332031 4 L 3.332031 8 L 7.332031 8 L 7.332031 4 Z M 3.332031 8.667969 L 3.332031 10 L 10 10 L 10 8.667969 Z M 3.332031 10.667969 L 3.332031 12 L 10 12 L 10 10.667969 Z M 4.667969 5.332031 L 6 5.332031 L 6 6.667969 L 4.667969 6.667969 Z M 4.667969 5.332031 "/>
</g>
</svg>
