<?xml version="1.0" encoding="UTF-8"?>
<svg xmlns="http://www.w3.org/2000/svg" xmlns:xlink="http://www.w3.org/1999/xlink" width="16" height="16" viewBox="0 0 16 16" version="1.1">
<g id="surface1">
<path style=" stroke:none;fill-rule:nonzero;fill:rgb(0%,0%,0%);fill-opacity:1;" d="M 9.332031 13.332031 L 9.332031 11.894531 C 10.574219 11.101562 11.667969 9.3125 11.667969 7.257812 C 11.667969 5.207031 10.332031 3.238281 8 3.238281 C 5.667969 3.238281 4.332031 5.207031 4.332031 7.257812 C 4.332031 9.3125 5.425781 11.101562 6.667969 11.894531 L 6.667969 13.332031 L 2 13.332031 L 2 12 L 5.171875 12 C 3.777344 11.003906 2.667969 9.324219 2.667969 7.257812 C 2.667969 4.164062 5 2 8 2 C 11 2 13.332031 4.164062 13.332031 7.257812 C 13.332031 9.324219 12.222656 11.003906 10.828125 12 L 14 12 L 14 13.332031 Z M 9.332031 13.332031 "/>
</g>
</svg>
