<?xml version="1.0" encoding="UTF-8"?>
<svg xmlns="http://www.w3.org/2000/svg" xmlns:xlink="http://www.w3.org/1999/xlink" width="16" height="16" viewBox="0 0 16 16" version="1.1">
<g id="surface1">
<path style=" stroke:none;fill-rule:nonzero;fill:rgb(0%,0%,0%);fill-opacity:1;" d="M 8 8 C 6.160156 8 4.667969 6.507812 4.667969 4.667969 C 4.667969 2.824219 6.160156 1.332031 8 1.332031 C 9.839844 1.332031 11.332031 2.824219 11.332031 4.667969 C 11.332031 6.507812 9.839844 8 8 8 Z M 12 11.332031 L 12 14.667969 L 10.667969 14.667969 L 10.667969 11.332031 C 10.667969 8.367188 12.429688 5.808594 14.964844 4.65625 L 15.515625 5.871094 C 13.375 6.84375 12 8.980469 12 11.332031 Z M 5.332031 11.332031 L 5.332031 14.667969 L 4 14.667969 L 4 11.332031 C 4 8.980469 2.625 6.84375 0.484375 5.871094 L 1.035156 4.65625 C 3.652344 5.847656 5.332031 8.457031 5.332031 11.332031 Z M 5.332031 11.332031 "/>
</g>
</svg>
