<?xml version="1.0" encoding="UTF-8"?>
<svg xmlns="http://www.w3.org/2000/svg" xmlns:xlink="http://www.w3.org/1999/xlink" width="16" height="16" viewBox="0 0 16 16" version="1.1">
<g id="surface1">
<path style=" stroke:none;fill-rule:nonzero;fill:rgb(0%,0%,0%);fill-opacity:1;" d="M 8 1.332031 C 11.683594 1.332031 14.667969 4.316406 14.667969 8 C 14.667969 10.933594 12.773438 13.425781 10.140625 14.316406 L 9.988281 14.363281 L 8.054688 9.332031 C 8.765625 9.300781 9.332031 8.703125 9.332031 8 C 9.332031 7.261719 8.738281 6.667969 8 6.667969 C 7.261719 6.667969 6.667969 7.261719 6.667969 8 C 6.667969 8.71875 7.234375 9.304688 7.945312 9.332031 L 6.007812 14.363281 L 5.859375 14.316406 C 3.226562 13.425781 1.332031 10.933594 1.332031 8 C 1.332031 4.316406 4.316406 1.332031 8 1.332031 Z M 8 2.667969 C 5.054688 2.667969 2.667969 5.054688 2.667969 8 C 2.667969 9.945312 3.710938 11.648438 5.265625 12.582031 L 6.253906 10.015625 C 5.6875 9.527344 5.332031 8.804688 5.332031 8 C 5.332031 6.527344 6.527344 5.332031 8 5.332031 C 9.472656 5.332031 10.667969 6.527344 10.667969 8 C 10.667969 8.804688 10.308594 9.527344 9.746094 10.015625 C 10.125 10.996094 10.453125 11.851562 10.734375 12.582031 C 12.289062 11.648438 13.332031 9.945312 13.332031 8 C 13.332031 5.054688 10.945312 2.667969 8 2.667969 Z M 8 2.667969 "/>
</g>
</svg>
