<?xml version="1.0" encoding="UTF-8"?>
<svg xmlns="http://www.w3.org/2000/svg" xmlns:xlink="http://www.w3.org/1999/xlink" width="16" height="16" viewBox="0 0 16 16" version="1.1">
<g id="surface1">
<path style=" stroke:none;fill-rule:nonzero;fill:rgb(0%,0%,0%);fill-opacity:1;" d="M 2.667969 12.613281 L 1.765625 12.25 C 1.425781 12.113281 1.261719 11.726562 1.398438 11.382812 L 2.667969 8.246094 Z M 5.90625 14 L 4.667969 14 C 4.296875 14 4 13.703125 4 13.332031 L 4 9.28125 Z M 4.015625 3.980469 L 10.195312 1.480469 C 10.539062 1.34375 10.925781 1.507812 11.0625 1.847656 L 14.808594 11.121094 C 14.949219 11.460938 14.78125 11.851562 14.441406 11.988281 L 8.261719 14.488281 C 7.917969 14.625 7.53125 14.460938 7.390625 14.117188 L 3.648438 4.847656 C 3.507812 4.503906 3.675781 4.117188 4.015625 3.980469 Z M 6 6 C 6.367188 6 6.667969 5.703125 6.667969 5.332031 C 6.667969 4.964844 6.367188 4.667969 6 4.667969 C 5.632812 4.667969 5.332031 4.964844 5.332031 5.332031 C 5.332031 5.703125 5.632812 6 6 6 Z M 6 6 "/>
</g>
</svg>
