<?xml version="1.0" encoding="UTF-8"?>
<svg xmlns="http://www.w3.org/2000/svg" xmlns:xlink="http://www.w3.org/1999/xlink" width="16" height="16" viewBox="0 0 16 16" version="1.1">
<g id="surface1">
<path style=" stroke:none;fill-rule:nonzero;fill:rgb(0%,0%,0%);fill-opacity:1;" d="M 13.332031 1.332031 C 13.703125 1.332031 14 1.632812 14 2 L 14 14 C 14 14.367188 13.703125 14.667969 13.332031 14.667969 L 2.667969 14.667969 C 2.296875 14.667969 2 14.367188 2 14 L 2 2 C 2 1.632812 2.296875 1.332031 2.667969 1.332031 Z M 12.667969 2.667969 L 3.332031 2.667969 L 3.332031 13.332031 L 12.667969 13.332031 Z M 10.667969 10.667969 L 10.667969 12 L 5.332031 12 L 5.332031 10.667969 Z M 8 4 C 9.472656 4 10.667969 5.195312 10.667969 6.667969 C 10.667969 8.140625 9.472656 9.332031 8 9.332031 C 6.527344 9.332031 5.332031 8.140625 5.332031 6.667969 C 5.332031 5.195312 6.527344 4 8 4 Z M 8 5.332031 C 7.261719 5.332031 6.667969 5.929688 6.667969 6.667969 C 6.667969 7.402344 7.261719 8 8 8 C 8.738281 8 9.332031 7.402344 9.332031 6.667969 C 9.332031 5.929688 8.738281 5.332031 8 5.332031 Z M 8 5.332031 "/>
</g>
</svg>
