<?xml version="1.0" encoding="UTF-8"?>
<svg xmlns="http://www.w3.org/2000/svg" xmlns:xlink="http://www.w3.org/1999/xlink" width="16" height="16" viewBox="0 0 16 16" version="1.1">
<g id="surface1">
<path style=" stroke:none;fill-rule:nonzero;fill:rgb(0%,0%,0%);fill-opacity:1;" d="M 11.125 1.394531 C 10.71875 1.394531 10.3125 1.554688 10 1.859375 L 9.375 2.488281 C 9.371094 2.492188 9.371094 2.492188 9.367188 2.496094 L 1.542969 10.324219 C 1.53125 10.335938 1.515625 10.347656 1.5 10.359375 C 1.492188 10.367188 1.480469 10.382812 1.46875 10.398438 L 0.632812 11.234375 C 0.546875 11.316406 0.503906 11.429688 0.5 11.546875 L 0.5 14.164062 C 0.5 14.40625 0.695312 14.601562 0.9375 14.605469 L 3.5625 14.605469 C 3.679688 14.605469 3.789062 14.5625 3.875 14.476562 L 12.617188 5.726562 L 13.5 6.609375 L 9.5 10.609375 L 10.5 11.609375 L 15.5 6.609375 L 13.511719 4.625 C 13.757812 3.988281 13.628906 3.242188 13.117188 2.726562 L 12.25 1.859375 C 11.9375 1.546875 11.53125 1.390625 11.125 1.394531 Z M 5.484375 7.605469 L 7.496094 9.609375 L 4.433594 12.679688 L 2.429688 10.667969 Z M 5.484375 7.605469 "/>
</g>
</svg>
