<?xml version="1.0" encoding="UTF-8"?>
<svg xmlns="http://www.w3.org/2000/svg" xmlns:xlink="http://www.w3.org/1999/xlink" width="16" height="16" viewBox="0 0 16 16" version="1.1">
<g id="surface1">
<path style=" stroke:none;fill-rule:nonzero;fill:rgb(0%,0%,0%);fill-opacity:1;" d="M 5.171875 8 L 2.34375 10.828125 C 1.953125 11.21875 1.953125 11.851562 2.34375 12.242188 L 3.757812 13.65625 C 4.148438 14.046875 4.78125 14.046875 5.171875 13.65625 L 13.65625 5.171875 C 14.046875 4.78125 14.046875 4.148438 13.65625 3.757812 L 12.242188 2.34375 C 11.851562 1.953125 11.21875 1.953125 10.828125 2.34375 Z M 5.171875 8 "/>
<path style=" stroke:none;fill-rule:evenodd;fill:rgb(0%,0%,0%);fill-opacity:1;" d="M 6 4 C 6 5.105469 5.105469 6 4 6 C 2.894531 6 2 5.105469 2 4 C 2 2.894531 2.894531 2 4 2 C 5.105469 2 6 2.894531 6 4 Z M 6 4 "/>
<path style=" stroke:none;fill-rule:evenodd;fill:rgb(0%,0%,0%);fill-opacity:1;" d="M 14 12 C 14 13.105469 13.105469 14 12 14 C 10.894531 14 10 13.105469 10 12 C 10 10.894531 10.894531 10 12 10 C 13.105469 10 14 10.894531 14 12 Z M 14 12 "/>
</g>
</svg>
