<?xml version="1.0" encoding="UTF-8"?>
<svg xmlns="http://www.w3.org/2000/svg" xmlns:xlink="http://www.w3.org/1999/xlink" width="16" height="16" viewBox="0 0 16 16" version="1.1">
<g id="surface1">
<path style=" stroke:none;fill-rule:nonzero;fill:rgb(0%,0%,0%);fill-opacity:1;" d="M 6.648438 5.984375 C 7.5625 5.070312 7.5625 3.59375 6.648438 2.683594 C 5.738281 1.773438 4.261719 1.773438 3.351562 2.683594 C 2.4375 3.59375 2.4375 5.070312 3.351562 5.984375 L 5 7.632812 Z M 5 9.519531 L 2.40625 6.925781 C 0.976562 5.496094 0.976562 3.171875 2.40625 1.742188 C 3.839844 0.308594 6.160156 0.308594 7.59375 1.742188 C 9.023438 3.171875 9.023438 5.496094 7.59375 6.925781 Z M 5 5.332031 C 4.449219 5.332031 4 4.886719 4 4.332031 C 4 3.78125 4.449219 3.332031 5 3.332031 C 5.550781 3.332031 6 3.78125 6 4.332031 C 6 4.886719 5.550781 5.332031 5 5.332031 Z M 11 13.632812 L 12.648438 11.984375 C 13.5625 11.070312 13.5625 9.59375 12.648438 8.683594 C 11.738281 7.773438 10.261719 7.773438 9.351562 8.683594 C 8.4375 9.59375 8.4375 11.070312 9.351562 11.984375 Z M 13.59375 12.925781 L 11 15.519531 L 8.40625 12.925781 C 6.976562 11.492188 6.976562 9.171875 8.40625 7.742188 C 9.839844 6.308594 12.160156 6.308594 13.59375 7.742188 C 15.023438 9.171875 15.023438 11.492188 13.59375 12.925781 Z M 11 11.332031 C 10.449219 11.332031 10 10.886719 10 10.332031 C 10 9.78125 10.449219 9.332031 11 9.332031 C 11.550781 9.332031 12 9.78125 12 10.332031 C 12 10.886719 11.550781 11.332031 11 11.332031 Z M 11 11.332031 "/>
</g>
</svg>
