<?xml version="1.0" encoding="UTF-8"?>
<svg xmlns="http://www.w3.org/2000/svg" xmlns:xlink="http://www.w3.org/1999/xlink" width="16" height="16" viewBox="0 0 16 16" version="1.1">
<g id="surface1">
<path style=" stroke:none;fill-rule:nonzero;fill:rgb(0%,0%,0%);fill-opacity:1;" d="M 5.660156 12.792969 C 5.675781 12.570312 5.707031 12.347656 5.757812 12.125 C 5.796875 11.929688 5.925781 11.375 6.113281 10.566406 L 6.117188 10.546875 L 6.375 9.433594 C 6.425781 9.207031 6.46875 9.03125 6.496094 8.972656 C 6.367188 8.675781 6.300781 8.351562 6.304688 8.023438 C 6.304688 7.132812 6.808594 6.441406 7.464844 6.441406 C 7.703125 6.4375 7.933594 6.542969 8.089844 6.726562 C 8.25 6.910156 8.324219 7.15625 8.292969 7.390625 C 8.292969 7.691406 8.234375 7.921875 7.992188 8.746094 C 7.941406 8.90625 7.910156 9.015625 7.878906 9.128906 C 7.847656 9.253906 7.816406 9.367188 7.792969 9.476562 C 7.726562 9.734375 7.785156 10.007812 7.949219 10.214844 C 8.109375 10.417969 8.359375 10.53125 8.621094 10.515625 C 9.617188 10.515625 10.355469 9.195312 10.355469 7.484375 C 10.355469 6.171875 9.492188 5.300781 8.066406 5.300781 C 7.34375 5.277344 6.640625 5.554688 6.132812 6.066406 C 5.613281 6.589844 5.328125 7.300781 5.335938 8.039062 C 5.320312 8.433594 5.441406 8.820312 5.679688 9.136719 C 5.796875 9.230469 5.84375 9.390625 5.792969 9.53125 C 5.765625 9.640625 5.703125 9.898438 5.675781 9.984375 C 5.664062 10.066406 5.609375 10.140625 5.535156 10.179688 C 5.460938 10.21875 5.371094 10.21875 5.296875 10.183594 C 4.523438 9.863281 4.097656 8.996094 4.097656 7.890625 C 4.097656 5.898438 5.761719 4.167969 8.226562 4.167969 C 10.316406 4.167969 11.882812 5.71875 11.882812 7.59375 C 11.882812 9.949219 10.59375 11.664062 8.753906 11.664062 C 8.222656 11.679688 7.71875 11.441406 7.390625 11.023438 L 7.363281 11.140625 L 7.222656 11.710938 L 7.222656 11.714844 C 7.125 12.113281 7.058594 12.390625 7.03125 12.496094 C 6.960938 12.734375 6.871094 12.964844 6.765625 13.191406 C 9.519531 13.847656 12.304688 12.234375 13.113281 9.519531 C 13.917969 6.804688 12.460938 3.933594 9.796875 2.980469 C 7.132812 2.027344 4.183594 3.320312 3.085938 5.929688 C 1.984375 8.539062 3.117188 11.554688 5.660156 12.792969 Z M 8 14.667969 C 4.316406 14.667969 1.332031 11.683594 1.332031 8 C 1.332031 4.316406 4.316406 1.332031 8 1.332031 C 11.683594 1.332031 14.667969 4.316406 14.667969 8 C 14.667969 11.683594 11.683594 14.667969 8 14.667969 Z M 8 14.667969 "/>
</g>
</svg>
