<?xml version="1.0" encoding="UTF-8"?>
<svg xmlns="http://www.w3.org/2000/svg" xmlns:xlink="http://www.w3.org/1999/xlink" width="16" height="16" viewBox="0 0 16 16" version="1.1">
<g id="surface1">
<path style=" stroke:none;fill-rule:nonzero;fill:rgb(0%,0%,0%);fill-opacity:1;" d="M 4 1.332031 C 5.792969 1.332031 7.347656 2.34375 8.132812 3.828125 C 8.914062 2.722656 10.207031 2 11.667969 2 L 14 2 L 14 3.667969 C 14 6.058594 12.058594 8 9.667969 8 L 8.667969 8 L 8.667969 8.667969 L 12 8.667969 L 12 13.332031 C 12 14.070312 11.402344 14.667969 10.667969 14.667969 L 5.332031 14.667969 C 4.597656 14.667969 4 14.070312 4 13.332031 L 4 8.667969 L 7.332031 8.667969 L 7.332031 7.332031 L 6 7.332031 C 3.421875 7.332031 1.332031 5.242188 1.332031 2.667969 L 1.332031 1.332031 Z M 10.667969 10 L 5.332031 10 L 5.332031 13.332031 L 10.667969 13.332031 Z M 12.667969 3.332031 L 11.667969 3.332031 C 10.011719 3.332031 8.667969 4.675781 8.667969 6.332031 L 8.667969 6.667969 L 9.667969 6.667969 C 11.324219 6.667969 12.667969 5.324219 12.667969 3.667969 Z M 4 2.667969 L 2.667969 2.667969 C 2.667969 4.507812 4.160156 6 6 6 L 7.332031 6 C 7.332031 4.160156 5.839844 2.667969 4 2.667969 Z M 4 2.667969 "/>
</g>
</svg>
