<?xml version="1.0" encoding="UTF-8"?>
<svg xmlns="http://www.w3.org/2000/svg" xmlns:xlink="http://www.w3.org/1999/xlink" width="16" height="16" viewBox="0 0 16 16" version="1.1">
<g id="surface1">
<path style=" stroke:none;fill-rule:nonzero;fill:rgb(0%,0%,0%);fill-opacity:1;" d="M 14 2 L 14 3.332031 C 14 5.910156 11.910156 8 9.332031 8 L 8.667969 8 L 8.667969 8.667969 L 12 8.667969 L 12 13.332031 C 12 14.070312 11.402344 14.667969 10.667969 14.667969 L 5.332031 14.667969 C 4.597656 14.667969 4 14.070312 4 13.332031 L 4 8.667969 L 7.332031 8.667969 L 7.332031 6.667969 C 7.332031 4.089844 9.421875 2 12 2 Z M 3.667969 1.332031 C 5.351562 1.332031 6.84375 2.167969 7.75 3.445312 C 7.070312 4.339844 6.667969 5.457031 6.667969 6.667969 L 6.667969 7.332031 L 6.332031 7.332031 C 3.570312 7.332031 1.332031 5.09375 1.332031 2.332031 L 1.332031 1.332031 Z M 3.667969 1.332031 "/>
</g>
</svg>
