<?xml version="1.0" encoding="UTF-8"?>
<svg xmlns="http://www.w3.org/2000/svg" xmlns:xlink="http://www.w3.org/1999/xlink" width="16" height="16" viewBox="0 0 16 16" version="1.1">
<g id="surface1">
<path style=" stroke:none;fill-rule:nonzero;fill:rgb(0%,0%,0%);fill-opacity:1;" d="M 8 14.667969 C 4.316406 14.667969 1.332031 11.683594 1.332031 8 C 1.332031 4.316406 4.316406 1.332031 8 1.332031 C 11.683594 1.332031 14.667969 4.316406 14.667969 8 C 14.667969 11.683594 11.683594 14.667969 8 14.667969 Z M 7.082031 5.609375 C 7 5.554688 6.894531 5.550781 6.808594 5.597656 C 6.722656 5.644531 6.667969 5.734375 6.667969 5.832031 L 6.667969 10.167969 C 6.667969 10.265625 6.722656 10.355469 6.808594 10.402344 C 6.894531 10.449219 7 10.445312 7.082031 10.390625 L 10.335938 8.222656 C 10.410156 8.171875 10.453125 8.089844 10.453125 8 C 10.453125 7.910156 10.410156 7.828125 10.335938 7.777344 Z M 7.082031 5.609375 "/>
</g>
</svg>
