<?xml version="1.0" encoding="UTF-8"?>
<svg xmlns="http://www.w3.org/2000/svg" xmlns:xlink="http://www.w3.org/1999/xlink" width="16" height="16" viewBox="0 0 16 16" version="1.1">
<g id="surface1">
<path style=" stroke:none;fill-rule:nonzero;fill:rgb(0%,0%,0%);fill-opacity:1;" d="M 12.667969 10 L 12.667969 3.332031 L 3.332031 3.332031 L 3.332031 10 Z M 2 2.660156 C 2 2.296875 2.296875 2 2.660156 2 L 13.339844 2 C 13.703125 2 14 2.296875 14 2.660156 L 14 13.339844 C 14 13.703125 13.703125 14 13.339844 14 L 2.660156 14 C 2.296875 14 2 13.703125 2 13.339844 Z M 8 8 C 8.738281 8 9.332031 7.402344 9.332031 6.667969 C 9.332031 5.929688 8.738281 5.332031 8 5.332031 C 7.261719 5.332031 6.667969 5.929688 6.667969 6.667969 C 6.667969 7.402344 7.261719 8 8 8 Z M 8 9.332031 C 6.527344 9.332031 5.332031 8.140625 5.332031 6.667969 C 5.332031 5.195312 6.527344 4 8 4 C 9.472656 4 10.667969 5.195312 10.667969 6.667969 C 10.667969 8.140625 9.472656 9.332031 8 9.332031 Z M 4 4 L 5.332031 4 L 5.332031 5.332031 L 4 5.332031 Z M 4 11.332031 L 4 12.667969 L 12 12.667969 L 12 11.332031 Z M 4 11.332031 "/>
</g>
</svg>
