<?xml version="1.0" encoding="UTF-8"?>
<svg xmlns="http://www.w3.org/2000/svg" xmlns:xlink="http://www.w3.org/1999/xlink" width="16" height="16" viewBox="0 0 16 16" version="1.1">
<g id="surface1">
<path style=" stroke:none;fill-rule:nonzero;fill:rgb(0%,0%,0%);fill-opacity:1;" d="M 13.773438 6.667969 C 13.125 4.828125 11.246094 3.726562 9.324219 4.058594 C 7.40625 4.386719 6 6.050781 6 8 C 6 9.949219 7.40625 11.613281 9.324219 11.941406 C 11.246094 12.273438 13.125 11.171875 13.773438 9.332031 L 14 9.332031 L 14 13.332031 C 14 13.703125 13.703125 14 13.332031 14 L 2.667969 14 C 2.296875 14 2 13.703125 2 13.332031 L 2 2.667969 C 2 2.296875 2.296875 2 2.667969 2 L 13.332031 2 C 13.703125 2 14 2.296875 14 2.667969 L 14 6.667969 Z M 3.332031 4 L 3.332031 6 L 4.667969 6 L 4.667969 4 Z M 10 10.667969 C 8.527344 10.667969 7.332031 9.472656 7.332031 8 C 7.332031 6.527344 8.527344 5.332031 10 5.332031 C 11.472656 5.332031 12.667969 6.527344 12.667969 8 C 12.667969 9.472656 11.472656 10.667969 10 10.667969 Z M 10 9.332031 C 10.738281 9.332031 11.332031 8.738281 11.332031 8 C 11.332031 7.261719 10.738281 6.667969 10 6.667969 C 9.261719 6.667969 8.667969 7.261719 8.667969 8 C 8.667969 8.738281 9.261719 9.332031 10 9.332031 Z M 10 9.332031 "/>
</g>
</svg>
