<?xml version="1.0" encoding="UTF-8"?>
<svg xmlns="http://www.w3.org/2000/svg" xmlns:xlink="http://www.w3.org/1999/xlink" width="16" height="16" viewBox="0 0 16 16" version="1.1">
<g id="surface1">
<path style=" stroke:none;fill-rule:nonzero;fill:rgb(0%,0%,0%);fill-opacity:1;" d="M 2.667969 8.667969 L 2.667969 12 L 13.332031 12 L 13.332031 8.667969 Z M 3.746094 7.332031 L 12.253906 7.332031 C 12.484375 7.332031 12.699219 7.214844 12.820312 7.015625 C 12.941406 6.820312 12.953125 6.574219 12.851562 6.367188 L 12 4.667969 L 4 4.667969 L 3.148438 6.367188 C 3.046875 6.574219 3.058594 6.820312 3.179688 7.015625 C 3.300781 7.214844 3.515625 7.332031 3.746094 7.332031 Z M 14.667969 9 L 14.667969 14 C 14.667969 14.367188 14.367188 14.667969 14 14.667969 L 13.332031 14.667969 C 12.964844 14.667969 12.667969 14.367188 12.667969 14 L 12.667969 13.332031 L 3.332031 13.332031 L 3.332031 14 C 3.332031 14.367188 3.035156 14.667969 2.667969 14.667969 L 2 14.667969 C 1.632812 14.667969 1.332031 14.367188 1.332031 14 L 1.332031 9 L 0.503906 8.792969 C 0.207031 8.71875 0 8.453125 0 8.148438 L 0 7.667969 C 0 7.484375 0.148438 7.332031 0.332031 7.332031 L 1.332031 7.332031 L 2.964844 4.070312 C 3.191406 3.617188 3.652344 3.332031 4.15625 3.332031 L 5.332031 3.332031 L 5.332031 2 L 7.332031 2 L 7.332031 3.332031 L 8.667969 3.332031 L 8.667969 2 L 10.667969 2 L 10.667969 3.332031 L 11.84375 3.332031 C 12.347656 3.332031 12.808594 3.617188 13.035156 4.070312 L 14.667969 7.332031 L 15.667969 7.332031 C 15.851562 7.332031 16 7.484375 16 7.667969 L 16 8.148438 C 16 8.453125 15.792969 8.71875 15.496094 8.792969 Z M 3.332031 9.332031 C 4.878906 9.332031 5.917969 9.835938 6.457031 10.84375 C 6.511719 10.945312 6.507812 11.070312 6.449219 11.171875 C 6.390625 11.273438 6.28125 11.332031 6.164062 11.332031 L 4 11.332031 C 3.632812 11.332031 3.332031 11.035156 3.332031 10.667969 Z M 12.667969 9.332031 L 12.667969 10.667969 C 12.667969 11.035156 12.367188 11.332031 12 11.332031 L 9.835938 11.332031 C 9.71875 11.332031 9.609375 11.273438 9.550781 11.171875 C 9.492188 11.070312 9.488281 10.945312 9.542969 10.84375 C 10.078125 9.835938 11.121094 9.332031 12.667969 9.332031 Z M 12.667969 9.332031 "/>
</g>
</svg>
