<?xml version="1.0" encoding="UTF-8"?>
<svg xmlns="http://www.w3.org/2000/svg" xmlns:xlink="http://www.w3.org/1999/xlink" width="16" height="16" viewBox="0 0 16 16" version="1.1">
<g id="surface1">
<path style=" stroke:none;fill-rule:nonzero;fill:rgb(0%,0%,0%);fill-opacity:1;" d="M 4 12.667969 L 2 12.667969 C 1.632812 12.667969 1.332031 12.367188 1.332031 12 L 1.332031 5.332031 C 1.332031 4.964844 1.632812 4.667969 2 4.667969 L 4 4.667969 L 4 2 C 4 1.632812 4.296875 1.332031 4.667969 1.332031 L 11.332031 1.332031 C 11.703125 1.332031 12 1.632812 12 2 L 12 4.667969 L 14 4.667969 C 14.367188 4.667969 14.667969 4.964844 14.667969 5.332031 L 14.667969 12 C 14.667969 12.367188 14.367188 12.667969 14 12.667969 L 12 12.667969 L 12 14 C 12 14.367188 11.703125 14.667969 11.332031 14.667969 L 4.667969 14.667969 C 4.296875 14.667969 4 14.367188 4 14 Z M 4 11.332031 L 4 10.667969 C 4 10.296875 4.296875 10 4.667969 10 L 11.332031 10 C 11.703125 10 12 10.296875 12 10.667969 L 12 11.332031 L 13.332031 11.332031 L 13.332031 6 L 2.667969 6 L 2.667969 11.332031 Z M 5.332031 2.667969 L 5.332031 4.667969 L 10.667969 4.667969 L 10.667969 2.667969 Z M 5.332031 11.332031 L 5.332031 13.332031 L 10.667969 13.332031 L 10.667969 11.332031 Z M 3.332031 6.667969 L 5.332031 6.667969 L 5.332031 8 L 3.332031 8 Z M 3.332031 6.667969 "/>
</g>
</svg>
