<?xml version="1.0" encoding="UTF-8"?>
<svg xmlns="http://www.w3.org/2000/svg" xmlns:xlink="http://www.w3.org/1999/xlink" width="16" height="16" viewBox="0 0 16 16" version="1.1">
<g id="surface1">
<path style=" stroke:none;fill-rule:nonzero;fill:rgb(0%,0%,0%);fill-opacity:1;" d="M 11.691406 8.34375 L 11.226562 7.144531 C 11.226562 7.132812 11.234375 6.894531 11.234375 6.773438 C 11.230469 4.726562 10.296875 2.667969 8 2.667969 C 5.703125 2.667969 4.769531 4.726562 4.769531 6.773438 C 4.769531 6.894531 4.773438 7.132812 4.773438 7.144531 L 4.3125 8.34375 C 4.183594 8.6875 4.058594 9.042969 3.964844 9.347656 C 3.527344 10.808594 3.671875 11.414062 3.777344 11.425781 C 4.011719 11.453125 4.679688 10.328125 4.679688 10.328125 C 4.679688 10.980469 5.007812 11.832031 5.707031 12.449219 C 5.445312 12.53125 5.125 12.660156 4.917969 12.820312 C 4.730469 12.960938 4.753906 13.105469 4.789062 13.164062 C 4.933594 13.421875 7.3125 13.328125 8 13.25 C 8.6875 13.328125 11.066406 13.421875 11.214844 13.164062 C 11.246094 13.105469 11.269531 12.960938 11.085938 12.820312 C 10.878906 12.660156 10.554688 12.53125 10.292969 12.449219 C 10.996094 11.832031 11.320312 10.980469 11.320312 10.328125 C 11.320312 10.328125 11.992188 11.453125 12.222656 11.425781 C 12.332031 11.414062 12.476562 10.808594 12.035156 9.347656 C 11.941406 9.039062 11.816406 8.6875 11.691406 8.34375 Z M 12.371094 13.828125 C 12.121094 14.261719 11.816406 14.421875 11.410156 14.53125 C 11.253906 14.574219 11.078125 14.605469 10.882812 14.625 C 10.589844 14.652344 10.226562 14.667969 9.808594 14.667969 C 9.203125 14.664062 8.601562 14.640625 8 14.589844 C 7.539062 14.632812 6.8125 14.664062 6.195312 14.667969 C 5.835938 14.671875 5.476562 14.65625 5.117188 14.625 C 4.941406 14.609375 4.761719 14.578125 4.589844 14.53125 C 4.1875 14.421875 3.878906 14.261719 3.628906 13.824219 C 3.4375 13.492188 3.382812 13.097656 3.46875 12.726562 C 3.074219 12.636719 2.800781 12.402344 2.617188 12.117188 C 2.523438 11.972656 2.453125 11.8125 2.410156 11.644531 C 2.351562 11.402344 2.324219 11.15625 2.335938 10.90625 C 2.34375 10.382812 2.457031 9.730469 2.6875 8.964844 C 2.78125 8.65625 2.90625 8.292969 3.066406 7.863281 L 3.4375 6.910156 C 3.433594 6.863281 3.433594 6.820312 3.433594 6.773438 C 3.433594 3.738281 5.058594 1.332031 8 1.332031 C 10.941406 1.332031 12.566406 3.738281 12.566406 6.773438 L 12.566406 6.910156 L 12.933594 7.863281 L 12.941406 7.878906 C 13.089844 8.285156 13.214844 8.648438 13.3125 8.964844 C 13.542969 9.730469 13.660156 10.382812 13.667969 10.90625 C 13.671875 11.179688 13.648438 11.425781 13.589844 11.644531 C 13.542969 11.808594 13.480469 11.964844 13.382812 12.117188 C 13.199219 12.402344 12.925781 12.636719 12.53125 12.726562 C 12.617188 13.09375 12.566406 13.484375 12.371094 13.828125 Z M 12.371094 13.828125 "/>
</g>
</svg>
