<?xml version="1.0" encoding="UTF-8"?>
<svg xmlns="http://www.w3.org/2000/svg" xmlns:xlink="http://www.w3.org/1999/xlink" width="16" height="16" viewBox="0 0 16 16" version="1.1">
<g id="surface1">
<path style=" stroke:none;fill-rule:nonzero;fill:rgb(0%,0%,0%);fill-opacity:1;" d="M 3.636719 10 L 0.667969 12.332031 L 0.667969 2 C 0.667969 1.632812 0.964844 1.332031 1.332031 1.332031 L 11.332031 1.332031 C 11.703125 1.332031 12 1.632812 12 2 L 12 10 Z M 3.175781 8.667969 L 10.667969 8.667969 L 10.667969 2.667969 L 2 2.667969 L 2 9.589844 Z M 5.332031 11.332031 L 12.15625 11.332031 L 13.332031 12.257812 L 13.332031 5.332031 L 14 5.332031 C 14.367188 5.332031 14.667969 5.632812 14.667969 6 L 14.667969 15 L 11.695312 12.667969 L 6 12.667969 C 5.632812 12.667969 5.332031 12.367188 5.332031 12 Z M 5.332031 11.332031 "/>
</g>
</svg>
