<?xml version="1.0" encoding="UTF-8"?>
<svg xmlns="http://www.w3.org/2000/svg" xmlns:xlink="http://www.w3.org/1999/xlink" width="16" height="16" viewBox="0 0 16 16" version="1.1">
<g id="surface1">
<path style=" stroke:none;fill-rule:nonzero;fill:rgb(0%,0%,0%);fill-opacity:1;" d="M 15.128906 2 C 14.851562 1.996094 14.59375 2.132812 14.421875 2.371094 L 7.570312 12 L 0.890625 12 C 0.65625 11.996094 0.425781 12.101562 0.257812 12.289062 C 0.09375 12.476562 -0.00390625 12.734375 -0.00390625 13 C 0 13.554688 0.398438 14 0.890625 14 L 8.003906 14 C 8.273438 13.996094 8.523438 13.859375 8.691406 13.621094 L 15.804688 3.625 C 15.953125 3.421875 16.023438 3.15625 15.996094 2.890625 C 15.96875 2.625 15.851562 2.382812 15.664062 2.21875 C 15.515625 2.078125 15.324219 2.007812 15.128906 2 Z M 15.128906 2 "/>
</g>
</svg>
