<?xml version="1.0" encoding="UTF-8"?>
<svg xmlns="http://www.w3.org/2000/svg" xmlns:xlink="http://www.w3.org/1999/xlink" width="16" height="16" viewBox="0 0 16 16" version="1.1">
<g id="surface1">
<path style=" stroke:none;fill-rule:nonzero;fill:rgb(0%,0%,0%);fill-opacity:1;" d="M 9.632812 10.828125 C 9.273438 11.335938 8.886719 11.820312 8.46875 12.277344 C 9.582031 13.359375 10.621094 13.867188 11.195312 13.53125 C 11.769531 13.199219 11.847656 12.050781 11.46875 10.542969 C 10.902344 10.671875 10.285156 10.765625 9.632812 10.828125 Z M 8.757812 10.882812 C 8.253906 10.90625 7.746094 10.90625 7.242188 10.882812 C 7.492188 11.210938 7.746094 11.515625 8 11.792969 C 8.253906 11.515625 8.507812 11.210938 8.757812 10.882812 Z M 12.117188 5.621094 C 13.894531 6.132812 15.054688 6.976562 15.054688 8 C 15.054688 9.023438 13.894531 9.867188 12.117188 10.378906 C 12.566406 12.171875 12.414062 13.597656 11.527344 14.109375 C 10.644531 14.621094 9.328125 14.039062 8 12.757812 C 6.671875 14.039062 5.355469 14.621094 4.472656 14.109375 C 3.585938 13.597656 3.433594 12.171875 3.882812 10.378906 C 2.105469 9.867188 0.945312 9.023438 0.945312 8 C 0.945312 6.976562 2.105469 6.132812 3.882812 5.621094 C 3.433594 3.828125 3.585938 2.402344 4.472656 1.890625 C 5.355469 1.378906 6.671875 1.960938 8 3.242188 C 9.328125 1.960938 10.644531 1.378906 11.527344 1.890625 C 12.414062 2.402344 12.566406 3.828125 12.117188 5.621094 Z M 11.46875 5.457031 C 11.851562 3.949219 11.769531 2.800781 11.195312 2.46875 C 10.621094 2.132812 9.582031 2.640625 8.46875 3.722656 C 8.863281 4.152344 9.253906 4.640625 9.632812 5.171875 C 10.285156 5.234375 10.902344 5.328125 11.46875 5.457031 Z M 4.53125 10.542969 C 4.148438 12.050781 4.230469 13.199219 4.804688 13.53125 C 5.378906 13.867188 6.417969 13.359375 7.53125 12.277344 C 7.113281 11.820312 6.726562 11.335938 6.367188 10.828125 C 5.75 10.769531 5.136719 10.675781 4.53125 10.542969 Z M 7.242188 5.117188 C 7.746094 5.09375 8.253906 5.09375 8.757812 5.117188 C 8.519531 4.800781 8.265625 4.5 8 4.207031 C 7.746094 4.484375 7.492188 4.789062 7.242188 5.117188 Z M 6.367188 5.171875 C 6.726562 4.664062 7.113281 4.179688 7.535156 3.722656 C 6.417969 2.640625 5.378906 2.132812 4.804688 2.46875 C 4.230469 2.800781 4.152344 3.949219 4.53125 5.457031 C 5.097656 5.328125 5.714844 5.234375 6.367188 5.171875 Z M 9.261719 10.1875 C 9.738281 9.492188 10.160156 8.757812 10.523438 8 C 10.160156 7.242188 9.738281 6.507812 9.261719 5.8125 C 8.421875 5.75 7.578125 5.75 6.738281 5.8125 C 6.261719 6.507812 5.839844 7.242188 5.476562 8 C 5.839844 8.757812 6.261719 9.492188 6.738281 10.1875 C 7.578125 10.25 8.421875 10.25 9.261719 10.1875 Z M 10.117188 10.097656 C 10.527344 10.046875 10.917969 9.976562 11.285156 9.898438 C 11.164062 9.519531 11.03125 9.148438 10.878906 8.785156 C 10.644531 9.234375 10.390625 9.671875 10.117188 10.097656 Z M 5.882812 5.898438 C 5.472656 5.953125 5.082031 6.023438 4.714844 6.101562 C 4.828125 6.460938 4.964844 6.832031 5.121094 7.214844 C 5.355469 6.765625 5.609375 6.328125 5.882812 5.902344 Z M 4.714844 9.894531 C 5.082031 9.976562 5.472656 10.042969 5.882812 10.097656 C 5.609375 9.671875 5.355469 9.234375 5.121094 8.785156 C 4.964844 9.167969 4.828125 9.539062 4.714844 9.894531 Z M 4.0625 9.734375 C 4.238281 9.175781 4.460938 8.59375 4.734375 8 C 4.460938 7.40625 4.238281 6.820312 4.0625 6.265625 C 2.566406 6.691406 1.613281 7.335938 1.613281 8 C 1.613281 8.664062 2.566406 9.308594 4.0625 9.734375 Z M 11.285156 6.101562 C 10.917969 6.023438 10.527344 5.953125 10.117188 5.898438 C 10.390625 6.328125 10.644531 6.765625 10.878906 7.214844 C 11.035156 6.832031 11.171875 6.460938 11.285156 6.101562 Z M 11.9375 6.265625 C 11.761719 6.820312 11.539062 7.40625 11.265625 8 C 11.539062 8.59375 11.761719 9.175781 11.9375 9.734375 C 13.433594 9.308594 14.386719 8.664062 14.386719 8 C 14.386719 7.335938 13.433594 6.691406 11.9375 6.265625 Z M 8 9.253906 C 7.308594 9.253906 6.746094 8.691406 6.746094 8 C 6.746094 7.308594 7.308594 6.746094 8 6.746094 C 8.691406 6.746094 9.253906 7.308594 9.253906 8 C 9.253906 8.691406 8.691406 9.253906 8 9.253906 Z M 8 9.253906 "/>
</g>
</svg>
