<?xml version="1.0" encoding="UTF-8"?>
<svg xmlns="http://www.w3.org/2000/svg" xmlns:xlink="http://www.w3.org/1999/xlink" width="16" height="16" viewBox="0 0 16 16" version="1.1">
<g id="surface1">
<path style=" stroke:none;fill-rule:nonzero;fill:rgb(0%,0%,0%);fill-opacity:1;" d="M 9.503906 10 C 8.414062 8.675781 8.386719 6.773438 9.4375 5.417969 C 10.492188 4.0625 12.34375 3.617188 13.894531 4.351562 C 15.449219 5.082031 16.285156 6.792969 15.910156 8.46875 C 15.535156 10.140625 14.050781 11.332031 12.332031 11.332031 L 3.667969 11.332031 C 1.949219 11.332031 0.464844 10.140625 0.0898438 8.46875 C -0.285156 6.792969 0.550781 5.082031 2.105469 4.351562 C 3.65625 3.617188 5.507812 4.0625 6.5625 5.417969 C 7.613281 6.773438 7.585938 8.675781 6.496094 10 Z M 3.667969 10 C 4.957031 10 6 8.957031 6 7.667969 C 6 6.378906 4.957031 5.332031 3.667969 5.332031 C 2.378906 5.332031 1.332031 6.378906 1.332031 7.667969 C 1.332031 8.957031 2.378906 10 3.667969 10 Z M 12.332031 10 C 13.621094 10 14.667969 8.957031 14.667969 7.667969 C 14.667969 6.378906 13.621094 5.332031 12.332031 5.332031 C 11.042969 5.332031 10 6.378906 10 7.667969 C 10 8.957031 11.042969 10 12.332031 10 Z M 12.332031 10 "/>
</g>
</svg>
