<?xml version="1.0" encoding="UTF-8"?>
<svg xmlns="http://www.w3.org/2000/svg" xmlns:xlink="http://www.w3.org/1999/xlink" width="16" height="16" viewBox="0 0 16 16" version="1.1">
<g id="surface1">
<path style=" stroke:none;fill-rule:nonzero;fill:rgb(0%,0%,0%);fill-opacity:1;" d="M 14 3.957031 C 12.816406 5.300781 11.21875 6.207031 9.460938 6.535156 C 9.171875 6 8.609375 5.664062 8 5.664062 C 7.390625 5.664062 6.828125 6 6.539062 6.535156 C 4.78125 6.207031 3.183594 5.300781 2 3.957031 L 2 2 C 2 1.632812 2.296875 1.332031 2.667969 1.332031 L 13.332031 1.332031 C 13.703125 1.332031 14 1.632812 14 2 Z M 14 5.816406 L 14 14 C 14 14.367188 13.703125 14.667969 13.332031 14.667969 L 2.667969 14.667969 C 2.296875 14.667969 2 14.367188 2 14 L 2 5.816406 C 3.265625 6.878906 4.789062 7.589844 6.421875 7.867188 C 6.648438 8.542969 7.285156 9 8 9 C 8.714844 9 9.351562 8.542969 9.578125 7.867188 C 11.210938 7.589844 12.734375 6.878906 14 5.816406 Z M 14 5.816406 "/>
</g>
</svg>
