<?xml version="1.0" encoding="UTF-8"?>
<svg xmlns="http://www.w3.org/2000/svg" xmlns:xlink="http://www.w3.org/1999/xlink" width="16" height="16" viewBox="0 0 16 16" version="1.1">
<g id="surface1">
<path style=" stroke:none;fill-rule:nonzero;fill:rgb(0%,0%,0%);fill-opacity:1;" d="M 8 14.667969 C 4.316406 14.667969 1.332031 11.683594 1.332031 8 C 1.332031 4.316406 4.316406 1.332031 8 1.332031 C 11.683594 1.332031 14.667969 4.316406 14.667969 8 C 14.667969 11.683594 11.683594 14.667969 8 14.667969 Z M 11.214844 11.382812 C 12.875 9.808594 13.148438 7.257812 11.859375 5.367188 C 10.566406 3.476562 8.09375 2.800781 6.019531 3.773438 L 6.671875 4.941406 C 7.703125 4.492188 8.890625 4.59375 9.828125 5.210938 C 10.769531 5.828125 11.332031 6.875 11.332031 8 L 9.332031 8 Z M 9.980469 12.226562 L 9.328125 11.058594 C 8.296875 11.507812 7.109375 11.40625 6.171875 10.789062 C 5.230469 10.171875 4.667969 9.125 4.667969 8 L 6.667969 8 L 4.785156 4.617188 C 3.125 6.191406 2.851562 8.742188 4.140625 10.632812 C 5.433594 12.523438 7.90625 13.199219 9.980469 12.226562 Z M 9.980469 12.226562 "/>
</g>
</svg>
