<?xml version="1.0" encoding="UTF-8"?>
<svg xmlns="http://www.w3.org/2000/svg" xmlns:xlink="http://www.w3.org/1999/xlink" width="16" height="16" viewBox="0 0 16 16" version="1.1">
<g id="surface1">
<path style=" stroke:none;fill-rule:nonzero;fill:rgb(0%,0%,0%);fill-opacity:1;" d="M 3.78125 2.839844 C 6.398438 0.691406 10.269531 0.839844 12.714844 3.285156 C 15.316406 5.890625 15.316406 10.109375 12.714844 12.714844 C 10.109375 15.316406 5.890625 15.316406 3.285156 12.714844 C 1.660156 11.09375 0.988281 8.75 1.5 6.511719 L 1.550781 6.300781 L 2.839844 6.644531 C 2.179688 9.152344 3.421875 11.769531 5.777344 12.847656 C 8.136719 13.929688 10.929688 13.15625 12.394531 11.015625 C 13.863281 8.878906 13.578125 5.996094 11.722656 4.183594 C 9.867188 2.371094 6.976562 2.15625 4.875 3.675781 L 4.730469 3.785156 L 5.40625 4.464844 L 2.34375 5.171875 L 3.050781 2.105469 Z M 8.667969 4 L 8.667969 5.332031 L 10.332031 5.332031 L 10.332031 6.667969 L 6.667969 6.667969 C 6.492188 6.667969 6.351562 6.796875 6.335938 6.96875 C 6.320312 7.140625 6.4375 7.296875 6.605469 7.328125 L 6.667969 7.332031 L 9.332031 7.332031 C 10.253906 7.332031 11 8.078125 11 9 C 11 9.921875 10.253906 10.667969 9.332031 10.667969 L 8.667969 10.667969 L 8.667969 12 L 7.332031 12 L 7.332031 10.667969 L 5.667969 10.667969 L 5.667969 9.332031 L 9.332031 9.332031 C 9.507812 9.332031 9.648438 9.203125 9.664062 9.03125 C 9.679688 8.859375 9.5625 8.703125 9.394531 8.671875 L 9.332031 8.667969 L 6.667969 8.667969 C 5.746094 8.667969 5 7.921875 5 7 C 5 6.078125 5.746094 5.332031 6.667969 5.332031 L 7.332031 5.332031 L 7.332031 4 Z M 8.667969 4 "/>
</g>
</svg>
