<?xml version="1.0" encoding="UTF-8"?>
<svg xmlns="http://www.w3.org/2000/svg" xmlns:xlink="http://www.w3.org/1999/xlink" width="16" height="16" viewBox="0 0 16 16" version="1.1">
<g id="surface1">
<path style=" stroke:none;fill-rule:nonzero;fill:rgb(0%,0%,0%);fill-opacity:1;" d="M 11.019531 11.6875 L 13.332031 14 L 2 14 L 2 2.667969 L 9.113281 2.667969 L 9.113281 2.671875 C 9.214844 2.667969 9.320312 2.664062 9.425781 2.667969 C 9.363281 2.914062 9.332031 3.171875 9.332031 3.445312 C 9.332031 4.988281 10.675781 6.332031 12.445312 6.332031 C 12.925781 6.332031 13.390625 6.203125 13.800781 5.976562 C 14.511719 8.3125 13.296875 10.804688 11.019531 11.6875 Z M 12.332031 5 C 11.414062 5 10.667969 4.253906 10.667969 3.332031 C 10.667969 2.414062 11.414062 1.667969 12.332031 1.667969 C 13.253906 1.667969 14 2.414062 14 3.332031 C 14 4.253906 13.253906 5 12.332031 5 Z M 12.332031 5 "/>
</g>
</svg>
