<?xml version="1.0" encoding="UTF-8"?>
<svg xmlns="http://www.w3.org/2000/svg" xmlns:xlink="http://www.w3.org/1999/xlink" width="16" height="16" viewBox="0 0 16 16" version="1.1">
<g id="surface1">
<path style=" stroke:none;fill-rule:nonzero;fill:rgb(0%,0%,0%);fill-opacity:1;" d="M 11.132812 4.535156 L 7.058594 7.058594 L 4.535156 11.132812 L 4.464844 11.0625 L 3.519531 12.007812 L 3.992188 12.480469 L 4.933594 11.535156 L 4.867188 11.464844 L 8.941406 8.941406 L 11.464844 4.867188 L 11.535156 4.9375 L 12.480469 3.992188 L 12.007812 3.519531 L 11.066406 4.464844 Z M 8 14.667969 C 4.316406 14.667969 1.332031 11.683594 1.332031 8 C 1.332031 4.316406 4.316406 1.332031 8 1.332031 C 11.683594 1.332031 14.667969 4.316406 14.667969 8 C 14.667969 11.683594 11.683594 14.667969 8 14.667969 Z M 7.667969 2 L 7.667969 3.332031 L 8.332031 3.332031 L 8.332031 2 Z M 7.667969 12.667969 L 7.667969 14 L 8.332031 14 L 8.332031 12.667969 Z M 5.394531 2.585938 L 5.90625 3.816406 L 6.523438 3.5625 L 6.011719 2.328125 Z M 9.476562 12.4375 L 9.988281 13.671875 L 10.605469 13.414062 L 10.09375 12.183594 Z M 9.988281 2.328125 L 9.476562 3.5625 L 10.09375 3.816406 L 10.605469 2.585938 Z M 5.90625 12.183594 L 5.398438 13.414062 L 6.011719 13.671875 L 6.523438 12.4375 Z M 14 7.667969 L 12.667969 7.667969 L 12.667969 8.332031 L 14 8.332031 Z M 3.332031 7.667969 L 2 7.667969 L 2 8.332031 L 3.332031 8.332031 Z M 13.636719 10.078125 L 12.414062 9.546875 L 12.152344 10.160156 L 13.375 10.6875 Z M 3.847656 5.839844 L 2.625 5.3125 L 2.363281 5.921875 L 3.585938 6.453125 L 3.851562 5.839844 Z M 13.414062 5.394531 L 12.183594 5.90625 L 12.4375 6.523438 L 13.671875 6.011719 Z M 3.5625 9.476562 L 2.328125 9.988281 L 2.585938 10.605469 L 3.816406 10.09375 Z M 12.480469 12.007812 L 11.535156 11.0625 L 11.0625 11.535156 L 12.007812 12.480469 Z M 4.9375 4.464844 L 3.992188 3.519531 L 3.519531 3.992188 L 4.464844 4.9375 Z M 7.542969 7.542969 L 9.949219 6.050781 L 8.457031 8.457031 Z M 7.542969 7.542969 "/>
</g>
</svg>
