<?xml version="1.0" encoding="UTF-8"?>
<svg xmlns="http://www.w3.org/2000/svg" xmlns:xlink="http://www.w3.org/1999/xlink" width="16" height="16" viewBox="0 0 16 16" version="1.1">
<g id="surface1">
<path style=" stroke:none;fill-rule:nonzero;fill:rgb(0%,0%,0%);fill-opacity:1;" d="M 11.875 4.335938 L 8.941406 8.941406 L 4.335938 11.875 C 5.15625 12.65625 6.207031 13.152344 7.332031 13.292969 L 7.332031 12 L 8.667969 12 L 8.667969 13.292969 C 9.617188 13.171875 10.515625 12.800781 11.269531 12.214844 L 10.355469 11.300781 L 11.300781 10.355469 L 12.214844 11.269531 C 12.800781 10.515625 13.171875 9.617188 13.292969 8.667969 L 12 8.667969 L 12 7.332031 L 13.292969 7.332031 C 13.152344 6.207031 12.65625 5.15625 11.875 4.335938 Z M 11.664062 4.125 C 10.84375 3.34375 9.792969 2.847656 8.667969 2.707031 L 8.667969 4 L 7.332031 4 L 7.332031 2.707031 C 6.382812 2.828125 5.484375 3.199219 4.730469 3.785156 L 5.644531 4.699219 L 4.699219 5.644531 L 3.785156 4.730469 C 3.199219 5.484375 2.828125 6.382812 2.707031 7.332031 L 4 7.332031 L 4 8.667969 L 2.707031 8.667969 C 2.847656 9.792969 3.34375 10.84375 4.125 11.664062 L 7.058594 7.058594 Z M 8 14.667969 C 4.316406 14.667969 1.332031 11.683594 1.332031 8 C 1.332031 4.316406 4.316406 1.332031 8 1.332031 C 11.683594 1.332031 14.667969 4.316406 14.667969 8 C 14.667969 11.683594 11.683594 14.667969 8 14.667969 Z M 8 14.667969 "/>
</g>
</svg>
