<?xml version="1.0" encoding="UTF-8"?>
<svg xmlns="http://www.w3.org/2000/svg" xmlns:xlink="http://www.w3.org/1999/xlink" width="16" height="16" viewBox="0 0 16 16" version="1.1">
<g id="surface1">
<path style=" stroke:none;fill-rule:nonzero;fill:rgb(0%,0%,0%);fill-opacity:1;" d="M 8.667969 1.332031 L 8.667969 2.183594 L 12 3.296875 L 14.421875 2.492188 L 14.84375 3.753906 L 12.820312 4.429688 L 14.886719 10.101562 C 14.15625 10.863281 13.132812 11.332031 12 11.332031 C 10.867188 11.332031 9.84375 10.863281 9.113281 10.101562 L 11.175781 4.429688 L 8.667969 3.589844 L 8.667969 12.667969 L 11.332031 12.667969 L 11.332031 14 L 4.667969 14 L 4.667969 12.667969 L 7.332031 12.667969 L 7.332031 3.589844 L 4.820312 4.429688 L 6.886719 10.101562 C 6.15625 10.863281 5.132812 11.332031 4 11.332031 C 2.867188 11.332031 1.84375 10.863281 1.113281 10.101562 L 3.175781 4.429688 L 1.15625 3.753906 L 1.578125 2.488281 L 4 3.296875 L 7.332031 2.183594 L 7.332031 1.332031 Z M 12 6.070312 L 11.054688 8.667969 L 12.945312 8.667969 Z M 4 6.070312 L 3.054688 8.667969 L 4.945312 8.667969 Z M 4 6.070312 "/>
</g>
</svg>
