<?xml version="1.0" encoding="UTF-8"?>
<svg xmlns="http://www.w3.org/2000/svg" xmlns:xlink="http://www.w3.org/1999/xlink" width="16" height="16" viewBox="0 0 16 16" version="1.1">
<g id="surface1">
<path style=" stroke:none;fill-rule:nonzero;fill:rgb(0%,0%,0%);fill-opacity:1;" d="M 5.332031 2.667969 L 5.332031 6.527344 C 5.332031 6.96875 5.160156 7.394531 4.847656 7.707031 L 4 8.554688 L 4 13.332031 L 12 13.332031 L 12 2.667969 Z M 4.667969 1.332031 L 12.667969 1.332031 C 13.035156 1.332031 13.332031 1.632812 13.332031 2 L 13.332031 14 C 13.332031 14.367188 13.035156 14.667969 12.667969 14.667969 L 3.332031 14.667969 C 2.964844 14.667969 2.667969 14.367188 2.667969 14 L 2.667969 8.28125 C 2.667969 8.105469 2.738281 7.933594 2.863281 7.808594 L 3.902344 6.765625 C 3.964844 6.703125 4 6.617188 4 6.527344 L 4 2 C 4 1.632812 4.296875 1.332031 4.667969 1.332031 Z M 10 3.332031 L 11.332031 3.332031 L 11.332031 6 L 10 6 Z M 8 3.332031 L 9.332031 3.332031 L 9.332031 6 L 8 6 Z M 6 3.332031 L 7.332031 3.332031 L 7.332031 6 L 6 6 Z M 6 3.332031 "/>
</g>
</svg>
