<?xml version="1.0" encoding="UTF-8"?>
<svg xmlns="http://www.w3.org/2000/svg" xmlns:xlink="http://www.w3.org/1999/xlink" width="16" height="16" viewBox="0 0 16 16" version="1.1">
<g id="surface1">
<path style=" stroke:none;fill-rule:nonzero;fill:rgb(0%,0%,0%);fill-opacity:1;" d="M 6.484375 0.8125 C 3.410156 0.8125 0.890625 3.320312 0.890625 6.394531 C 0.890625 9.46875 3.410156 11.984375 6.484375 11.984375 C 7.558594 11.984375 8.5625 11.667969 9.414062 11.132812 L 13.421875 14.914062 C 13.820312 15.289062 14.449219 15.273438 14.828125 14.875 C 15.015625 14.683594 15.113281 14.425781 15.109375 14.160156 C 15.101562 13.894531 14.984375 13.640625 14.792969 13.460938 L 10.898438 9.789062 C 11.625 8.84375 12.0625 7.667969 12.0625 6.394531 C 12.0625 3.320312 9.554688 0.8125 6.484375 0.8125 Z M 6.484375 2.8125 C 8.472656 2.8125 10.0625 4.40625 10.0625 6.394531 C 10.0625 8.382812 8.472656 9.984375 6.484375 9.984375 C 4.492188 9.984375 2.894531 8.382812 2.894531 6.394531 C 2.894531 4.40625 4.492188 2.8125 6.484375 2.8125 Z M 6.484375 2.8125 "/>
<path style=" stroke:none;fill-rule:nonzero;fill:rgb(0%,0%,0%);fill-opacity:1;" d="M 9.648438 9.976562 L 14.105469 14.1875 "/>
</g>
</svg>
