<?xml version="1.0" encoding="UTF-8"?>
<svg xmlns="http://www.w3.org/2000/svg" xmlns:xlink="http://www.w3.org/1999/xlink" width="16" height="16" viewBox="0 0 16 16" version="1.1">
<g id="surface1">
<path style=" stroke:none;fill-rule:nonzero;fill:rgb(0%,0%,0%);fill-opacity:1;" d="M 7.332031 1.332031 L 12.199219 2.851562 C 12.476562 2.941406 12.667969 3.199219 12.667969 3.488281 L 12.667969 4.667969 L 14 4.667969 C 14.367188 4.667969 14.667969 4.964844 14.667969 5.332031 L 14.667969 10.667969 C 14.667969 11.035156 14.367188 11.332031 14 11.332031 L 11.851562 11.335938 C 11.59375 11.675781 11.28125 11.972656 10.921875 12.21875 L 7.332031 14.667969 L 3.746094 12.222656 C 2.652344 11.476562 2 10.238281 2 8.914062 L 2 3.488281 C 2 3.199219 2.191406 2.941406 2.46875 2.855469 Z M 7.332031 2.730469 L 3.332031 3.980469 L 3.332031 8.914062 C 3.332031 9.742188 3.71875 10.523438 4.371094 11.027344 L 4.496094 11.121094 L 7.332031 13.054688 L 9.855469 11.332031 L 6.667969 11.332031 C 6.296875 11.332031 6 11.035156 6 10.667969 L 6 5.332031 C 6 4.964844 6.296875 4.667969 6.667969 4.667969 L 11.332031 4.667969 L 11.332031 3.980469 Z M 7.332031 8 L 7.332031 10 L 13.332031 10 L 13.332031 8 Z M 7.332031 6.667969 L 13.332031 6.667969 L 13.332031 6 L 7.332031 6 Z M 7.332031 6.667969 "/>
</g>
</svg>
