<?xml version="1.0" encoding="UTF-8"?>
<svg xmlns="http://www.w3.org/2000/svg" xmlns:xlink="http://www.w3.org/1999/xlink" width="16" height="16" viewBox="0 0 16 16" version="1.1">
<g id="surface1">
<path style=" stroke:none;fill-rule:evenodd;fill:rgb(0%,0%,0%);fill-opacity:1;" d="M 10.757812 6.003906 C 10.785156 6.019531 10.808594 6.039062 10.828125 6.058594 C 10.925781 6.148438 10.984375 6.273438 10.984375 6.40625 C 10.988281 6.539062 10.9375 6.671875 10.847656 6.765625 C 10.117188 7.535156 9.113281 7.984375 8.054688 8.011719 C 6.992188 8.039062 5.96875 7.640625 5.195312 6.914062 C 5 6.722656 4.992188 6.410156 5.175781 6.210938 C 5.265625 6.113281 5.390625 6.058594 5.523438 6.054688 C 5.65625 6.050781 5.789062 6.101562 5.882812 6.191406 C 6.460938 6.742188 7.230469 7.03125 8.023438 7.011719 C 8.820312 6.992188 9.574219 6.65625 10.125 6.078125 C 10.289062 5.902344 10.554688 5.871094 10.757812 6.003906 Z M 10.757812 6.003906 "/>
<path style=" stroke:none;fill-rule:evenodd;fill:rgb(0%,0%,0%);fill-opacity:1;" d="M 12.207031 7.390625 C 12.234375 7.40625 12.257812 7.421875 12.277344 7.445312 C 12.375 7.535156 12.429688 7.660156 12.433594 7.792969 C 12.4375 7.925781 12.390625 8.054688 12.296875 8.148438 C 11.203125 9.304688 9.691406 9.96875 8.101562 10.011719 C 6.507812 10.050781 4.96875 9.453125 3.8125 8.359375 C 3.617188 8.167969 3.609375 7.851562 3.800781 7.65625 C 3.992188 7.460938 4.300781 7.453125 4.5 7.640625 C 5.460938 8.554688 6.746094 9.046875 8.070312 9.011719 C 9.398438 8.976562 10.65625 8.421875 11.570312 7.460938 C 11.734375 7.289062 12.007812 7.257812 12.207031 7.390625 Z M 12.207031 7.390625 "/>
<path style=" stroke:none;fill-rule:evenodd;fill:rgb(0%,0%,0%);fill-opacity:1;" d="M 13.652344 8.761719 C 13.679688 8.78125 13.707031 8.796875 13.730469 8.820312 C 13.828125 8.914062 13.882812 9.039062 13.886719 9.171875 C 13.890625 9.304688 13.839844 9.433594 13.75 9.53125 C 12.289062 11.066406 10.273438 11.960938 8.152344 12.015625 C 6.03125 12.070312 3.972656 11.273438 2.4375 9.8125 C 2.339844 9.71875 2.28125 9.59375 2.28125 9.460938 C 2.273438 9.328125 2.328125 9.203125 2.414062 9.101562 C 2.507812 9.007812 2.632812 8.953125 2.765625 8.949219 C 2.898438 8.945312 3.027344 8.992188 3.125 9.085938 C 4.46875 10.367188 6.269531 11.0625 8.125 11.015625 C 9.980469 10.96875 11.742188 10.1875 13.023438 8.839844 C 13.1875 8.664062 13.453125 8.632812 13.652344 8.761719 Z M 13.652344 8.761719 "/>
<path style=" stroke:none;fill-rule:evenodd;fill:rgb(0%,0%,0%);fill-opacity:1;" d="M 15.085938 10.976562 C 15.210938 10.777344 15.179688 10.523438 15.015625 10.355469 C 14.921875 10.261719 14.796875 10.210938 14.664062 10.210938 C 14.53125 10.210938 14.40625 10.261719 14.3125 10.355469 C 10.828125 13.835938 5.21875 13.882812 1.6875 10.460938 C 1.59375 10.367188 1.460938 10.3125 1.328125 10.3125 C 1.195312 10.3125 1.070312 10.367188 0.976562 10.464844 C 0.882812 10.5625 0.835938 10.6875 0.835938 10.820312 C 0.839844 10.957031 0.898438 11.082031 0.992188 11.171875 C 4.910156 14.96875 11.160156 14.921875 15.015625 11.0625 C 15.046875 11.039062 15.066406 11.007812 15.085938 10.976562 Z M 15.085938 10.976562 "/>
<path style=" stroke:none;fill-rule:evenodd;fill:rgb(0%,0%,0%);fill-opacity:1;" d="M 6.117188 4.011719 L 6.117188 3.011719 C 6.117188 2.460938 6.5625 2.011719 7.117188 2.011719 L 9.117188 2.011719 C 9.671875 2.011719 10.117188 2.460938 10.117188 3.011719 L 10.117188 4.011719 C 10.117188 4.5625 9.671875 5.011719 9.117188 5.011719 L 7.117188 5.011719 C 6.5625 5.011719 6.117188 4.5625 6.117188 4.011719 Z M 6.117188 4.011719 "/>
</g>
</svg>
