<?xml version="1.0" encoding="UTF-8"?>
<svg xmlns="http://www.w3.org/2000/svg" xmlns:xlink="http://www.w3.org/1999/xlink" width="16" height="16" viewBox="0 0 16 16" version="1.1">
<g id="surface1">
<path style=" stroke:none;fill-rule:nonzero;fill:rgb(0%,0%,0%);fill-opacity:1;" d="M 3.554688 3.03125 C 4.242188 2.417969 5.042969 1.953125 5.917969 1.664062 C 6.421875 2.296875 7.191406 2.667969 8 2.664062 C 8.808594 2.667969 9.578125 2.296875 10.082031 1.664062 C 10.957031 1.953125 11.757812 2.417969 12.445312 3.03125 C 12.148438 3.785156 12.214844 4.632812 12.617188 5.332031 C 13.023438 6.035156 13.726562 6.515625 14.527344 6.636719 C 14.714844 7.535156 14.714844 8.464844 14.527344 9.363281 C 13.753906 9.480469 13.039062 9.9375 12.617188 10.664062 C 12.214844 11.367188 12.148438 12.214844 12.445312 12.96875 C 11.757812 13.582031 10.957031 14.046875 10.082031 14.335938 C 9.578125 13.699219 8.808594 13.332031 8 13.332031 C 7.191406 13.332031 6.421875 13.703125 5.917969 14.335938 C 5.042969 14.046875 4.242188 13.582031 3.554688 12.96875 C 3.851562 12.214844 3.785156 11.367188 3.382812 10.667969 C 2.976562 9.964844 2.273438 9.484375 1.472656 9.363281 C 1.285156 8.464844 1.285156 7.535156 1.472656 6.636719 C 2.273438 6.515625 2.976562 6.035156 3.382812 5.332031 C 3.785156 4.632812 3.851562 3.785156 3.554688 3.03125 Z M 9 9.730469 C 9.625 9.375 10.011719 8.714844 10.011719 7.996094 C 10.011719 7.28125 9.628906 6.617188 9.007812 6.257812 C 8.386719 5.902344 7.621094 5.90625 7 6.265625 C 6.050781 6.824219 5.730469 8.039062 6.28125 8.992188 C 6.828125 9.945312 8.042969 10.273438 9 9.730469 Z M 9 9.730469 "/>
</g>
</svg>
