<?xml version="1.0" encoding="UTF-8"?>
<svg xmlns="http://www.w3.org/2000/svg" xmlns:xlink="http://www.w3.org/1999/xlink" width="16" height="16" viewBox="0 0 16 16" version="1.1">
<g id="surface1">
<path style=" stroke:none;fill-rule:nonzero;fill:rgb(0%,0%,0%);fill-opacity:1;" d="M 7.332031 1.367188 L 7.332031 2.707031 C 4.542969 3.0625 2.507812 5.523438 2.683594 8.332031 C 2.859375 11.140625 5.1875 13.328125 8 13.332031 C 10.6875 13.332031 12.957031 11.332031 13.292969 8.667969 L 14.632812 8.667969 C 14.300781 12.035156 11.457031 14.667969 8 14.667969 C 4.316406 14.667969 1.332031 11.683594 1.332031 8 C 1.332031 4.542969 3.964844 1.699219 7.332031 1.367188 Z M 13.332031 3.609375 L 8 8.941406 L 7.058594 8 L 12.390625 2.667969 L 9.332031 2.667969 L 9.332031 1.332031 L 14.667969 1.332031 L 14.667969 6.667969 L 13.332031 6.667969 Z M 13.332031 3.609375 "/>
</g>
</svg>
