<?xml version="1.0" encoding="UTF-8"?>
<svg xmlns="http://www.w3.org/2000/svg" xmlns:xlink="http://www.w3.org/1999/xlink" width="16" height="16" viewBox="0 0 16 16" version="1.1">
<g id="surface1">
<path style=" stroke:none;fill-rule:nonzero;fill:rgb(0%,0%,0%);fill-opacity:1;" d="M 4 6 L 13.292969 6 L 13.625 4.667969 L 5.332031 4.667969 L 5.332031 3.332031 L 14.480469 3.332031 C 14.683594 3.332031 14.878906 3.429688 15.003906 3.589844 C 15.132812 3.75 15.175781 3.960938 15.125 4.160156 L 13.460938 10.828125 C 13.386719 11.125 13.117188 11.332031 12.8125 11.332031 L 3.332031 11.332031 C 2.964844 11.332031 2.667969 11.035156 2.667969 10.667969 L 2.667969 2.667969 L 1.332031 2.667969 L 1.332031 1.332031 L 3.332031 1.332031 C 3.703125 1.332031 4 1.632812 4 2 Z M 4 15.332031 C 3.261719 15.332031 2.667969 14.738281 2.667969 14 C 2.667969 13.261719 3.261719 12.667969 4 12.667969 C 4.738281 12.667969 5.332031 13.261719 5.332031 14 C 5.332031 14.738281 4.738281 15.332031 4 15.332031 Z M 12 15.332031 C 11.261719 15.332031 10.667969 14.738281 10.667969 14 C 10.667969 13.261719 11.261719 12.667969 12 12.667969 C 12.738281 12.667969 13.332031 13.261719 13.332031 14 C 13.332031 14.738281 12.738281 15.332031 12 15.332031 Z M 12 15.332031 "/>
</g>
</svg>
