<?xml version="1.0" encoding="UTF-8"?>
<svg xmlns="http://www.w3.org/2000/svg" xmlns:xlink="http://www.w3.org/1999/xlink" width="16" height="16" viewBox="0 0 16 16" version="1.1">
<g id="surface1">
<path style=" stroke:none;fill-rule:nonzero;fill:rgb(0%,0%,0%);fill-opacity:1;" d="M 10.242188 2.292969 L 12.382812 6 L 14.667969 6 L 14.667969 7.332031 L 13.886719 7.332031 L 13.382812 13.386719 C 13.355469 13.734375 13.066406 14 12.71875 14 L 3.28125 14 C 2.933594 14 2.644531 13.734375 2.617188 13.386719 L 2.109375 7.332031 L 1.332031 7.332031 L 1.332031 6 L 3.613281 6 L 5.757812 2.292969 L 6.910156 2.957031 L 5.15625 6 L 10.84375 6 L 9.089844 2.957031 Z M 12.550781 7.332031 L 3.449219 7.332031 L 3.894531 12.667969 L 12.105469 12.667969 Z M 8.667969 8.667969 L 8.667969 11.332031 L 7.332031 11.332031 L 7.332031 8.667969 Z M 6 8.667969 L 6 11.332031 L 4.667969 11.332031 L 4.667969 8.667969 Z M 11.332031 8.667969 L 11.332031 11.332031 L 10 11.332031 L 10 8.667969 Z M 11.332031 8.667969 "/>
</g>
</svg>
