<?xml version="1.0" encoding="UTF-8"?>
<svg xmlns="http://www.w3.org/2000/svg" xmlns:xlink="http://www.w3.org/1999/xlink" width="16" height="16" viewBox="0 0 16 16" version="1.1">
<g id="surface1">
<path style=" stroke:none;fill-rule:nonzero;fill:rgb(0%,0%,0%);fill-opacity:1;" d="M 4.332031 1.332031 L 11.667969 1.332031 C 11.875 1.332031 12.074219 1.433594 12.199219 1.601562 L 14 4 L 14 14 C 14 14.367188 13.703125 14.667969 13.332031 14.667969 L 2.667969 14.667969 C 2.296875 14.667969 2 14.367188 2 14 L 2 4 L 3.800781 1.601562 C 3.925781 1.433594 4.125 1.332031 4.332031 1.332031 Z M 12.332031 4 L 11.332031 2.667969 L 4.667969 2.667969 L 3.667969 4 Z M 6 6.667969 L 4.667969 6.667969 L 4.667969 8 C 4.667969 9.839844 6.160156 11.332031 8 11.332031 C 9.839844 11.332031 11.332031 9.839844 11.332031 8 L 11.332031 6.667969 L 10 6.667969 L 10 8 C 10 9.105469 9.105469 10 8 10 C 6.894531 10 6 9.105469 6 8 Z M 6 6.667969 "/>
</g>
</svg>
