<?xml version="1.0" encoding="UTF-8"?>
<svg xmlns="http://www.w3.org/2000/svg" xmlns:xlink="http://www.w3.org/1999/xlink" width="16" height="16" viewBox="0 0 16 16" version="1.1">
<g id="surface1">
<path style=" stroke:none;fill-rule:nonzero;fill:rgb(0%,0%,0%);fill-opacity:1;" d="M 10 12 L 6 12 L 6 14 L 4.667969 14 L 4.667969 11.832031 C 2.226562 11.199219 0.5625 8.945312 0.675781 6.429688 C 0.789062 3.910156 2.648438 1.816406 5.136719 1.40625 C 7.621094 0.996094 10.058594 2.382812 10.972656 4.730469 C 12.339844 4.46875 13.738281 5.003906 14.578125 6.113281 C 15.421875 7.222656 15.566406 8.710938 14.949219 9.960938 C 14.328125 11.207031 13.058594 11.996094 11.667969 12 L 11.332031 12 L 11.332031 14 L 10 14 Z M 7.332031 13.332031 L 8.667969 13.332031 L 8.667969 15.332031 L 7.332031 15.332031 Z M 7.332031 13.332031 "/>
</g>
</svg>
