<?xml version="1.0" encoding="UTF-8"?>
<svg xmlns="http://www.w3.org/2000/svg" xmlns:xlink="http://www.w3.org/1999/xlink" width="16" height="16" viewBox="0 0 16 16" version="1.1">
<g id="surface1">
<path style="fill-rule:nonzero;fill:rgb(0%,0%,0%);fill-opacity:1;stroke-width:0.128311;stroke-linecap:round;stroke-linejoin:miter;stroke:rgb(0%,0%,0%);stroke-opacity:1;stroke-miterlimit:4;" d="M 1.121378 0.642855 C 0.827856 0.665592 0.553971 0.849561 0.40721 1.129647 C 0.322461 1.290877 0.325561 1.485181 0.366903 1.682585 C 0.409277 1.879989 0.491959 2.086694 0.60048 2.276864 C 0.683162 2.421558 0.787549 2.53938 0.892969 2.654102 C 0.522965 3.072681 0.120923 3.469556 0.120923 3.469556 C 0.0702798 3.517098 0.0671792 3.597713 0.113688 3.64939 C 0.136426 3.674194 0.169499 3.689697 0.202571 3.690731 C 0.237711 3.691764 0.270784 3.680396 0.295589 3.656624 C 0.295589 3.656624 0.704866 3.252515 1.084171 2.825667 C 1.201994 2.917651 1.322917 3.009635 1.461409 3.012736 C 1.62574 3.015837 1.7632 2.931087 1.858284 2.825667 C 1.953369 2.71818 2.019515 2.588989 2.081527 2.465999 C 2.143538 2.340942 2.201416 2.222087 2.259294 2.139404 C 2.318205 2.057756 2.368848 2.022616 2.421558 2.016414 C 2.444295 2.013314 2.448429 2.016414 2.462899 2.02675 C 2.476335 2.036051 2.498039 2.059823 2.517676 2.095996 C 2.557983 2.169377 2.59209 2.294434 2.623096 2.423625 C 2.656169 2.553849 2.68304 2.687175 2.73575 2.800863 C 2.761588 2.857707 2.794661 2.912484 2.847371 2.956926 C 2.900081 3.000334 2.980697 3.024105 3.055111 3.011703 C 3.175 2.989998 3.268017 2.90835 3.309359 2.819466 C 3.3507 2.731616 3.355867 2.641699 3.360002 2.562118 C 3.365169 2.481502 3.36827 2.407088 3.377572 2.364714 C 3.386873 2.322339 3.38584 2.329574 3.391007 2.327507 C 3.397209 2.325439 3.412711 2.322339 3.454053 2.348177 C 3.49436 2.374015 3.549137 2.422591 3.603914 2.474268 C 3.657658 2.526978 3.711401 2.581755 3.77548 2.626196 C 3.807519 2.648934 3.842659 2.671672 3.889168 2.680973 C 3.936711 2.691309 4.000789 2.684074 4.048332 2.653068 C 4.113444 2.60966 4.151684 2.538346 4.164087 2.474268 C 4.175456 2.412256 4.166154 2.357479 4.153752 2.309937 C 4.131014 2.214852 4.086572 2.141471 4.086572 2.141471 C 4.069002 2.112533 4.040063 2.090828 4.00699 2.08256 C 3.973918 2.073258 3.938778 2.078426 3.909839 2.095996 C 3.848861 2.13217 3.829224 2.211751 3.866431 2.27273 C 3.866431 2.27273 3.893302 2.320272 3.906738 2.370915 C 3.909839 2.385384 3.907772 2.393652 3.908805 2.405021 C 3.875732 2.380217 3.831291 2.338875 3.778581 2.289266 C 3.72277 2.235522 3.660758 2.176611 3.586344 2.130103 C 3.51193 2.084627 3.408577 2.049487 3.303157 2.086694 C 3.197738 2.124935 3.145028 2.227254 3.127458 2.309937 C 3.109888 2.393652 3.108854 2.474268 3.10472 2.546615 C 3.100586 2.618962 3.090251 2.680973 3.076815 2.711979 C 3.062345 2.742985 3.060278 2.751253 3.011702 2.759522 C 3.002401 2.761589 3.013769 2.761589 3.007568 2.757454 C 3.002401 2.752287 2.984831 2.731616 2.968294 2.694409 C 2.935221 2.621029 2.904215 2.493905 2.871142 2.360579 C 2.840137 2.229321 2.807064 2.090828 2.742985 1.973006 C 2.710946 1.914095 2.669604 1.859318 2.610693 1.816943 C 2.550749 1.775602 2.4722 1.752865 2.392619 1.760099 C 2.241724 1.777669 2.130102 1.878955 2.051554 1.989543 C 1.971973 2.10013 1.913061 2.229321 1.853117 2.349211 C 1.792139 2.470134 1.73116 2.582788 1.667082 2.655135 C 1.603003 2.726449 1.549259 2.759522 1.467611 2.757454 C 1.416968 2.756421 1.328084 2.693376 1.246435 2.636532 C 1.44694 2.391585 1.64331 2.134237 1.772502 1.887223 C 1.913061 1.621606 2.001945 1.35909 1.894458 1.133781 C 1.724959 0.779281 1.414901 0.621151 1.121378 0.643888 Z M 1.143083 0.898136 C 1.338419 0.883667 1.528589 0.966349 1.66088 1.244369 C 1.704289 1.336353 1.672249 1.529622 1.546159 1.768368 C 1.432471 1.983342 1.248502 2.226221 1.059367 2.457731 C 0.976684 2.362647 0.892969 2.270662 0.824756 2.150773 C 0.72657 1.979207 0.652156 1.793172 0.617016 1.629875 C 0.583944 1.465544 0.593245 1.329118 0.634586 1.248503 C 0.742073 1.044897 0.945679 0.913639 1.143083 0.898136 Z M 1.143083 0.898136 " transform="matrix(3.779527,0,0,3.779527,0.00000056693,0)"/>
</g>
</svg>
