<?xml version="1.0" encoding="UTF-8"?>
<svg xmlns="http://www.w3.org/2000/svg" xmlns:xlink="http://www.w3.org/1999/xlink" width="16" height="16" viewBox="0 0 16 16" version="1.1">
<g id="surface1">
<path style=" stroke:none;fill-rule:nonzero;fill:rgb(0%,0%,0%);fill-opacity:1;" d="M 0 0.996094 L 0 2 L 2 2 L 2 0.996094 Z M 0 0.996094 "/>
<path style=" stroke:none;fill-rule:nonzero;fill:rgb(0%,0%,0%);fill-opacity:1;" d="M 2.996094 0.996094 L 2.996094 2 L 5 2 L 5 0.996094 Z M 2.996094 0.996094 "/>
<path style=" stroke:none;fill-rule:nonzero;fill:rgb(0%,0%,0%);fill-opacity:1;" d="M 6 0.996094 L 6 2 L 8 2 L 8 0.996094 Z M 6 0.996094 "/>
<path style=" stroke:none;fill-rule:nonzero;fill:rgb(0%,0%,0%);fill-opacity:1;" d="M 9 0.996094 L 9 2 L 11 2 L 11 0.996094 Z M 9 0.996094 "/>
<path style=" stroke:none;fill-rule:nonzero;fill:rgb(0%,0%,0%);fill-opacity:1;" d="M 12.003906 0.996094 L 12.003906 2 L 14.003906 2 L 14.003906 0.996094 Z M 12.003906 0.996094 "/>
<path style=" stroke:none;fill-rule:nonzero;fill:rgb(0%,0%,0%);fill-opacity:1;" d="M 15 0.996094 L 15 2 L 15.996094 2 L 15.996094 0.996094 Z M 15 0.996094 "/>
<path style=" stroke:none;fill-rule:nonzero;fill:rgb(0%,0%,0%);fill-opacity:1;" d="M 0 14.003906 L 0 15 L 2 15 L 2 14.003906 Z M 0 14.003906 "/>
<path style=" stroke:none;fill-rule:nonzero;fill:rgb(0%,0%,0%);fill-opacity:1;" d="M 2.996094 14.003906 L 2.996094 15 L 5 15 L 5 14.003906 Z M 2.996094 14.003906 "/>
<path style=" stroke:none;fill-rule:nonzero;fill:rgb(0%,0%,0%);fill-opacity:1;" d="M 6 14.003906 L 6 15 L 8 15 L 8 14.003906 Z M 6 14.003906 "/>
<path style=" stroke:none;fill-rule:nonzero;fill:rgb(0%,0%,0%);fill-opacity:1;" d="M 9 14.003906 L 9 15 L 11 15 L 11 14.003906 Z M 9 14.003906 "/>
<path style=" stroke:none;fill-rule:nonzero;fill:rgb(0%,0%,0%);fill-opacity:1;" d="M 12.003906 14.003906 L 12.003906 15 L 14.003906 15 L 14.003906 14.003906 Z M 12.003906 14.003906 "/>
<path style=" stroke:none;fill-rule:nonzero;fill:rgb(0%,0%,0%);fill-opacity:1;" d="M 15 14.003906 L 15 15 L 15.996094 15 L 15.996094 14.003906 Z M 15 14.003906 "/>
<path style=" stroke:none;fill-rule:nonzero;fill:rgb(0%,0%,0%);fill-opacity:1;" d="M 14.960938 3.25 C 14.453125 3.273438 13.984375 3.53125 13.679688 3.875 C 13.375 4.21875 13.199219 4.632812 13.074219 5.0625 C 12.824219 5.929688 12.765625 6.933594 12.695312 7.914062 C 12.628906 8.894531 12.558594 9.859375 12.394531 10.492188 C 12.3125 10.804688 12.203125 11.03125 12.121094 11.140625 C 12.039062 11.242188 12.023438 11.242188 11.929688 11.25 C 11.585938 11.28125 11.574219 11.242188 11.40625 10.953125 C 11.234375 10.671875 11.085938 10.125 10.96875 9.515625 C 10.851562 8.90625 10.75 8.25 10.539062 7.648438 C 10.4375 7.347656 10.304688 7.054688 10.078125 6.789062 C 9.847656 6.523438 9.492188 6.300781 9.09375 6.25 C 8.4375 6.171875 7.8125 6.507812 7.46875 6.910156 C 7.125 7.3125 6.945312 7.757812 6.769531 8.15625 C 6.59375 8.554688 6.425781 8.914062 6.289062 9.09375 C 6.152344 9.273438 6.171875 9.257812 6.054688 9.25 C 5.992188 9.246094 5.976562 9.257812 5.839844 8.984375 C 5.703125 8.710938 5.5625 8.234375 5.40625 7.71875 C 5.25 7.210938 5.078125 6.65625 4.726562 6.15625 C 4.375 5.65625 3.734375 5.226562 2.984375 5.25 C 2.113281 5.273438 1.46875 5.839844 0.9375 6.480469 C 0.585938 6.898438 0.285156 7.390625 0 7.894531 L 0 11.445312 C 0.210938 10.890625 0.507812 10.160156 0.90625 9.351562 C 1.265625 8.636719 1.6875 7.929688 2.09375 7.441406 C 2.503906 6.953125 2.875 6.75 3.019531 6.746094 C 3.289062 6.738281 3.335938 6.789062 3.5 7.019531 C 3.660156 7.25 3.824219 7.671875 3.96875 8.15625 C 4.117188 8.640625 4.253906 9.171875 4.503906 9.664062 C 4.753906 10.15625 5.242188 10.695312 5.949219 10.75 C 6.601562 10.796875 7.167969 10.40625 7.476562 10 C 7.789062 9.59375 7.960938 9.15625 8.132812 8.769531 C 8.304688 8.382812 8.480469 8.042969 8.617188 7.882812 C 8.75 7.726562 8.734375 7.722656 8.910156 7.742188 C 8.929688 7.746094 8.898438 7.726562 8.9375 7.773438 C 8.980469 7.820312 9.0625 7.945312 9.132812 8.140625 C 9.265625 8.53125 9.367188 9.15625 9.492188 9.804688 C 9.617188 10.445312 9.757812 11.125 10.113281 11.722656 C 10.46875 12.320312 11.21875 12.828125 12.070312 12.75 C 12.570312 12.703125 13.023438 12.417969 13.304688 12.0625 C 13.582031 11.707031 13.726562 11.296875 13.84375 10.867188 C 14.066406 10 14.121094 8.992188 14.1875 8.015625 C 14.253906 7.042969 14.335938 6.097656 14.515625 5.484375 C 14.601562 5.179688 14.714844 4.960938 14.800781 4.867188 C 14.886719 4.765625 14.910156 4.75 15.039062 4.746094 C 15.367188 4.726562 15.617188 4.882812 15.929688 5.320312 C 15.953125 5.355469 15.976562 5.398438 16 5.4375 L 16 3.476562 C 15.683594 3.328125 15.34375 3.226562 14.960938 3.25 Z M 14.960938 3.25 "/>
</g>
</svg>
