<?xml version="1.0" encoding="UTF-8"?>
<svg xmlns="http://www.w3.org/2000/svg" xmlns:xlink="http://www.w3.org/1999/xlink" width="16" height="16" viewBox="0 0 16 16" version="1.1">
<g id="surface1">
<path style=" stroke:none;fill-rule:nonzero;fill:rgb(0%,0%,0%);fill-opacity:1;" d="M 4.351562 9.675781 C 4.347656 10.398438 3.761719 10.984375 3.039062 10.988281 C 2.316406 10.984375 1.730469 10.398438 1.730469 9.675781 C 1.730469 8.953125 2.316406 8.363281 3.039062 8.363281 L 4.351562 8.363281 Z M 5.011719 9.675781 C 5.011719 8.953125 5.601562 8.363281 6.324219 8.363281 C 7.046875 8.363281 7.636719 8.953125 7.636719 9.675781 L 7.636719 12.960938 C 7.632812 13.683594 7.046875 14.269531 6.324219 14.273438 C 5.601562 14.269531 5.015625 13.683594 5.011719 12.960938 Z M 6.324219 4.351562 C 5.601562 4.347656 5.015625 3.761719 5.011719 3.039062 C 5.011719 2.316406 5.601562 1.730469 6.324219 1.730469 C 7.046875 1.730469 7.636719 2.316406 7.636719 3.039062 L 7.636719 4.351562 Z M 6.324219 5.011719 C 7.046875 5.011719 7.636719 5.601562 7.636719 6.324219 C 7.632812 7.046875 7.046875 7.632812 6.324219 7.636719 L 3.039062 7.636719 C 2.316406 7.632812 1.730469 7.046875 1.730469 6.324219 C 1.730469 5.601562 2.316406 5.011719 3.039062 5.011719 Z M 11.648438 6.324219 C 11.648438 5.601562 12.238281 5.011719 12.960938 5.011719 C 13.683594 5.011719 14.273438 5.601562 14.273438 6.324219 C 14.269531 7.046875 13.683594 7.632812 12.960938 7.636719 L 11.648438 7.636719 Z M 10.988281 6.324219 C 10.984375 7.046875 10.398438 7.632812 9.675781 7.636719 C 8.953125 7.632812 8.367188 7.046875 8.363281 6.324219 L 8.363281 3.039062 C 8.363281 2.316406 8.953125 1.730469 9.675781 1.730469 C 10.398438 1.730469 10.988281 2.316406 10.988281 3.039062 Z M 9.675781 11.648438 C 10.398438 11.648438 10.988281 12.238281 10.988281 12.960938 C 10.984375 13.683594 10.398438 14.269531 9.675781 14.273438 C 8.953125 14.269531 8.367188 13.683594 8.363281 12.960938 L 8.363281 11.648438 Z M 9.675781 10.988281 C 8.953125 10.984375 8.367188 10.398438 8.363281 9.675781 C 8.363281 8.953125 8.953125 8.363281 9.675781 8.363281 L 12.960938 8.363281 C 13.683594 8.363281 14.273438 8.953125 14.273438 9.675781 C 14.269531 10.398438 13.683594 10.984375 12.960938 10.988281 Z M 9.675781 10.988281 "/>
</g>
</svg>
