<?xml version="1.0" encoding="UTF-8"?>
<svg xmlns="http://www.w3.org/2000/svg" xmlns:xlink="http://www.w3.org/1999/xlink" width="16" height="16" viewBox="0 0 16 16" version="1.1">
<g id="surface1">
<path style=" stroke:none;fill-rule:nonzero;fill:rgb(0%,0%,0%);fill-opacity:1;" d="M 9.667969 2 C 10.21875 2 10.667969 2.449219 10.667969 3 L 10.667969 6.332031 C 10.667969 6.886719 10.21875 7.332031 9.667969 7.332031 C 9.113281 7.332031 8.667969 6.886719 8.667969 6.332031 L 8.667969 3 C 8.667969 2.449219 9.113281 2 9.667969 2 Z M 3 8.667969 L 4 8.667969 L 4 9.667969 C 4 10.21875 3.550781 10.667969 3 10.667969 C 2.449219 10.667969 2 10.21875 2 9.667969 C 2 9.113281 2.449219 8.667969 3 8.667969 Z M 8.667969 12 L 9.667969 12 C 10.21875 12 10.667969 12.449219 10.667969 13 C 10.667969 13.550781 10.21875 14 9.667969 14 C 9.113281 14 8.667969 13.550781 8.667969 13 Z M 9.667969 8.667969 L 13 8.667969 C 13.550781 8.667969 14 9.113281 14 9.667969 C 14 10.21875 13.550781 10.667969 13 10.667969 L 9.667969 10.667969 C 9.113281 10.667969 8.667969 10.21875 8.667969 9.667969 C 8.667969 9.113281 9.113281 8.667969 9.667969 8.667969 Z M 13 5.332031 C 13.550781 5.332031 14 5.78125 14 6.332031 C 14 6.886719 13.550781 7.332031 13 7.332031 L 12 7.332031 L 12 6.332031 C 12 5.78125 12.449219 5.332031 13 5.332031 Z M 3 5.332031 L 6.332031 5.332031 C 6.886719 5.332031 7.332031 5.78125 7.332031 6.332031 C 7.332031 6.886719 6.886719 7.332031 6.332031 7.332031 L 3 7.332031 C 2.449219 7.332031 2 6.886719 2 6.332031 C 2 5.78125 2.449219 5.332031 3 5.332031 Z M 6.332031 2 C 6.886719 2 7.332031 2.449219 7.332031 3 L 7.332031 4 L 6.332031 4 C 5.78125 4 5.332031 3.550781 5.332031 3 C 5.332031 2.449219 5.78125 2 6.332031 2 Z M 6.332031 8.667969 C 6.886719 8.667969 7.332031 9.113281 7.332031 9.667969 L 7.332031 13 C 7.332031 13.550781 6.886719 14 6.332031 14 C 5.78125 14 5.332031 13.550781 5.332031 13 L 5.332031 9.667969 C 5.332031 9.113281 5.78125 8.667969 6.332031 8.667969 Z M 6.332031 8.667969 "/>
</g>
</svg>
