<?xml version="1.0" encoding="UTF-8"?>
<svg xmlns="http://www.w3.org/2000/svg" xmlns:xlink="http://www.w3.org/1999/xlink" width="16" height="16" viewBox="0 0 16 16" version="1.1">
<g id="surface1">
<path style=" stroke:none;fill-rule:nonzero;fill:rgb(0%,0%,0%);fill-opacity:1;" d="M 8.667969 14 L 8.667969 15.332031 L 7.332031 15.332031 L 7.332031 14 L 2 14 C 1.632812 14 1.332031 13.703125 1.332031 13.332031 L 1.332031 4 L 14.667969 4 L 14.667969 13.332031 C 14.667969 13.703125 14.367188 14 14 14 Z M 2.667969 12.667969 L 13.332031 12.667969 L 13.332031 5.332031 L 2.667969 5.332031 Z M 8.667969 6.667969 L 12 6.667969 L 12 8 L 8.667969 8 Z M 8.667969 9.332031 L 12 9.332031 L 12 10.667969 L 8.667969 10.667969 Z M 6 6.667969 L 6 8.667969 L 8 8.667969 C 8 9.769531 7.105469 10.667969 6 10.667969 C 4.894531 10.667969 4 9.769531 4 8.667969 C 4 7.5625 4.894531 6.667969 6 6.667969 Z M 1.332031 2 L 14.667969 2 L 14.667969 3.332031 L 1.332031 3.332031 Z M 1.332031 2 "/>
</g>
</svg>
