<?xml version="1.0" encoding="UTF-8"?>
<svg xmlns="http://www.w3.org/2000/svg" xmlns:xlink="http://www.w3.org/1999/xlink" width="16" height="16" viewBox="0 0 16 16" version="1.1">
<g id="surface1">
<path style=" stroke:none;fill-rule:nonzero;fill:rgb(0%,0%,0%);fill-opacity:1;" d="M 5 0 L 3 4 L 4 4 L 4 16 L 6 16 L 6 4 L 7 4 Z M 10.566406 0.851562 C 9.914062 0.851562 9.359375 1.0625 8.914062 1.484375 C 8.46875 1.910156 8.242188 2.492188 8.242188 3.230469 C 8.242188 3.921875 8.453125 4.472656 8.875 4.890625 C 9.304688 5.308594 9.792969 5.515625 10.34375 5.515625 C 10.609375 5.515625 10.851562 5.46875 11.066406 5.367188 C 11.28125 5.269531 11.476562 5.125 11.652344 4.929688 C 11.59375 5.722656 11.46875 6.25 11.273438 6.507812 C 11.074219 6.765625 10.820312 6.898438 10.511719 6.898438 C 10.054688 6.898438 9.792969 6.640625 9.726562 6.117188 L 8.382812 6.261719 C 8.484375 6.851562 8.710938 7.292969 9.0625 7.578125 C 9.421875 7.863281 9.875 8.003906 10.421875 8.003906 C 11.210938 8.003906 11.851562 7.722656 12.34375 7.160156 C 12.839844 6.597656 13.085938 5.671875 13.085938 4.382812 C 13.085938 3.121094 12.851562 2.21875 12.375 1.671875 C 11.898438 1.125 11.296875 0.851562 10.566406 0.851562 Z M 10.507812 1.964844 C 10.773438 1.964844 11.007812 2.082031 11.21875 2.320312 C 11.425781 2.554688 11.53125 2.890625 11.53125 3.328125 C 11.53125 3.730469 11.4375 4.03125 11.25 4.234375 C 11.0625 4.433594 10.839844 4.53125 10.578125 4.53125 C 10.304688 4.53125 10.074219 4.429688 9.882812 4.21875 C 9.699219 4.007812 9.609375 3.675781 9.609375 3.226562 C 9.609375 2.773438 9.695312 2.449219 9.859375 2.257812 C 10.035156 2.0625 10.25 1.964844 10.507812 1.964844 Z M 10.71875 8.851562 C 10.007812 8.851562 9.429688 9.117188 8.988281 9.648438 C 8.546875 10.179688 8.328125 11.101562 8.328125 12.414062 C 8.328125 13.753906 8.546875 14.6875 8.988281 15.210938 C 9.429688 15.738281 10.007812 16 10.726562 16 C 11.4375 16 12.015625 15.734375 12.460938 15.207031 C 12.898438 14.675781 13.121094 13.75 13.121094 12.429688 C 13.121094 11.101562 12.898438 10.179688 12.460938 9.648438 C 12.015625 9.117188 11.4375 8.851562 10.71875 8.851562 Z M 10.71875 9.964844 C 11.003906 9.964844 11.226562 10.109375 11.390625 10.394531 C 11.554688 10.679688 11.632812 11.359375 11.632812 12.429688 C 11.632812 13.492188 11.554688 14.171875 11.390625 14.457031 C 11.226562 14.742188 11.003906 14.886719 10.71875 14.886719 C 10.441406 14.886719 10.21875 14.746094 10.050781 14.460938 C 9.886719 14.175781 9.804688 13.5 9.804688 12.429688 C 9.804688 11.359375 9.886719 10.679688 10.050781 10.394531 C 10.21875 10.109375 10.441406 9.964844 10.71875 9.964844 Z M 10.71875 9.964844 "/>
</g>
</svg>
