<?xml version="1.0" encoding="UTF-8"?>
<svg xmlns="http://www.w3.org/2000/svg" xmlns:xlink="http://www.w3.org/1999/xlink" width="16" height="16" viewBox="0 0 16 16" version="1.1">
<g id="surface1">
<path style=" stroke:none;fill-rule:nonzero;fill:rgb(0%,0%,0%);fill-opacity:1;" d="M 5 16 L 3 12 L 4 12 L 4 0 L 6 0 L 6 12 L 7 12 Z M 5 16 "/>
<path style=" stroke:none;fill-rule:nonzero;fill:rgb(0%,0%,0%);fill-opacity:1;" d="M 8.355469 14.257812 L 9.726562 14.113281 C 9.789062 14.632812 10.054688 14.890625 10.523438 14.890625 C 10.839844 14.890625 11.097656 14.765625 11.296875 14.507812 C 11.5 14.242188 11.625 13.71875 11.6875 12.925781 C 11.507812 13.117188 11.3125 13.265625 11.089844 13.367188 C 10.867188 13.460938 10.625 13.511719 10.351562 13.511719 C 9.789062 13.511719 9.292969 13.304688 8.859375 12.886719 C 8.429688 12.46875 8.214844 11.914062 8.214844 11.226562 C 8.214844 10.484375 8.441406 9.90625 8.898438 9.484375 C 9.351562 9.058594 9.914062 8.847656 10.578125 8.847656 C 11.324219 8.847656 11.9375 9.121094 12.421875 9.667969 C 12.90625 10.210938 13.148438 11.117188 13.148438 12.382812 C 13.148438 13.664062 12.894531 14.59375 12.390625 15.15625 C 11.886719 15.71875 11.234375 16 10.429688 16 C 9.875 16 9.414062 15.859375 9.050781 15.574219 C 8.6875 15.289062 8.460938 14.851562 8.355469 14.257812 Z M 11.5625 11.328125 C 11.5625 10.886719 11.453125 10.546875 11.242188 10.3125 C 11.03125 10.078125 10.789062 9.960938 10.515625 9.960938 C 10.257812 9.960938 10.039062 10.054688 9.859375 10.25 C 9.6875 10.445312 9.601562 10.765625 9.601562 11.21875 C 9.601562 11.671875 9.695312 12.003906 9.882812 12.210938 C 10.078125 12.421875 10.3125 12.53125 10.59375 12.53125 C 10.859375 12.53125 11.085938 12.429688 11.273438 12.226562 C 11.464844 12.027344 11.5625 11.726562 11.5625 11.328125 Z M 11.5625 11.328125 "/>
<path style=" stroke:none;fill-rule:nonzero;fill:rgb(0%,0%,0%);fill-opacity:1;" d="M 10.703125 0.847656 C 11.40625 0.847656 11.976562 1.113281 12.414062 1.644531 C 12.84375 2.171875 13.0625 3.101562 13.0625 4.421875 C 13.0625 5.742188 12.84375 6.671875 12.414062 7.203125 C 11.976562 7.730469 11.410156 7.996094 10.710938 7.996094 C 10.007812 7.996094 9.4375 7.734375 9.003906 7.207031 C 8.570312 6.679688 8.351562 5.75 8.351562 4.410156 C 8.351562 3.09375 8.570312 2.171875 9.003906 1.644531 C 9.4375 1.113281 10.007812 0.847656 10.703125 0.847656 Z M 10.703125 1.960938 C 10.429688 1.960938 10.210938 2.101562 10.046875 2.390625 C 9.886719 2.675781 9.804688 3.351562 9.804688 4.421875 C 9.804688 5.492188 9.886719 6.171875 10.046875 6.457031 C 10.210938 6.742188 10.429688 6.882812 10.703125 6.882812 C 10.984375 6.882812 11.203125 6.742188 11.359375 6.453125 C 11.523438 6.164062 11.601562 5.492188 11.601562 4.421875 C 11.601562 3.351562 11.523438 2.675781 11.359375 2.390625 C 11.203125 2.101562 10.984375 1.960938 10.703125 1.960938 Z M 10.703125 1.960938 "/>
</g>
</svg>
