<?xml version="1.0" encoding="UTF-8"?>
<svg xmlns="http://www.w3.org/2000/svg" xmlns:xlink="http://www.w3.org/1999/xlink" width="16" height="16" viewBox="0 0 16 16" version="1.1">
<g id="surface1">
<path style=" stroke:none;fill-rule:nonzero;fill:rgb(0%,0%,0%);fill-opacity:1;" d="M 1.921875 12.035156 C 2.835938 7.976562 4.796875 4.226562 7.605469 1.15625 C 7.707031 1.046875 7.851562 0.984375 8 0.984375 C 8.148438 0.984375 8.292969 1.046875 8.394531 1.15625 C 8.503906 1.277344 8.59375 1.378906 8.667969 1.460938 C 11.332031 4.472656 13.195312 8.113281 14.078125 12.035156 C 12.652344 12.335938 11.1875 12.535156 9.691406 12.617188 L 8.296875 15.402344 C 8.242188 15.515625 8.125 15.589844 8 15.589844 C 7.875 15.589844 7.757812 15.515625 7.703125 15.402344 L 6.308594 12.617188 C 4.832031 12.535156 3.367188 12.339844 1.921875 12.035156 Z M 6.386719 11.289062 L 7.15625 11.332031 L 8 13.019531 L 8.84375 11.332031 L 9.613281 11.289062 C 10.558594 11.234375 11.5 11.132812 12.433594 10.984375 C 11.546875 7.953125 10.039062 5.140625 8 2.726562 C 5.960938 5.140625 4.453125 7.953125 3.566406 10.984375 C 4.496094 11.132812 5.4375 11.234375 6.386719 11.289062 Z M 8 10 C 6.894531 10 6 9.105469 6 8 C 6 6.894531 6.894531 6 8 6 C 9.105469 6 10 6.894531 10 8 C 10 9.105469 9.105469 10 8 10 Z M 8 8.667969 C 8.367188 8.667969 8.667969 8.367188 8.667969 8 C 8.667969 7.632812 8.367188 7.332031 8 7.332031 C 7.632812 7.332031 7.332031 7.632812 7.332031 8 C 7.332031 8.367188 7.632812 8.667969 8 8.667969 Z M 8 8.667969 "/>
</g>
</svg>
