<?xml version="1.0" encoding="UTF-8"?>
<svg xmlns="http://www.w3.org/2000/svg" xmlns:xlink="http://www.w3.org/1999/xlink" width="16" height="16" viewBox="0 0 16 16" version="1.1">
<g id="surface1">
<path style=" stroke:none;fill-rule:nonzero;fill:rgb(0%,0%,0%);fill-opacity:1;" d="M 3.332031 3.332031 L 3.332031 12.667969 L 12.667969 12.667969 L 12.667969 3.332031 Z M 2.667969 2 L 13.332031 2 C 13.703125 2 14 2.296875 14 2.667969 L 14 13.332031 C 14 13.703125 13.703125 14 13.332031 14 L 2.667969 14 C 2.296875 14 2 13.703125 2 13.332031 L 2 2.667969 C 2 2.296875 2.296875 2 2.667969 2 Z M 4.667969 5.332031 C 4.296875 5.332031 4 5.035156 4 4.667969 C 4 4.296875 4.296875 4 4.667969 4 C 5.035156 4 5.332031 4.296875 5.332031 4.667969 C 5.332031 5.035156 5.035156 5.332031 4.667969 5.332031 Z M 11.332031 5.332031 C 10.964844 5.332031 10.667969 5.035156 10.667969 4.667969 C 10.667969 4.296875 10.964844 4 11.332031 4 C 11.703125 4 12 4.296875 12 4.667969 C 12 5.035156 11.703125 5.332031 11.332031 5.332031 Z M 11.332031 12 C 10.964844 12 10.667969 11.703125 10.667969 11.332031 C 10.667969 10.964844 10.964844 10.667969 11.332031 10.667969 C 11.703125 10.667969 12 10.964844 12 11.332031 C 12 11.703125 11.703125 12 11.332031 12 Z M 4.667969 12 C 4.296875 12 4 11.703125 4 11.332031 C 4 10.964844 4.296875 10.667969 4.667969 10.667969 C 5.035156 10.667969 5.332031 10.964844 5.332031 11.332031 C 5.332031 11.703125 5.035156 12 4.667969 12 Z M 8 10 C 9.105469 10 10 9.105469 10 8 C 10 6.894531 9.105469 6 8 6 C 6.894531 6 6 6.894531 6 8 C 6 9.105469 6.894531 10 8 10 Z M 8 11.332031 C 6.160156 11.332031 4.667969 9.839844 4.667969 8 C 4.667969 6.160156 6.160156 4.667969 8 4.667969 C 9.839844 4.667969 11.332031 6.160156 11.332031 8 C 11.332031 9.839844 9.839844 11.332031 8 11.332031 Z M 8 8.667969 C 7.632812 8.667969 7.332031 8.367188 7.332031 8 C 7.332031 7.632812 7.632812 7.332031 8 7.332031 C 8.367188 7.332031 8.667969 7.632812 8.667969 8 C 8.667969 8.367188 8.367188 8.667969 8 8.667969 Z M 8 8.667969 "/>
</g>
</svg>
