<?xml version="1.0" encoding="UTF-8"?>
<svg xmlns="http://www.w3.org/2000/svg" xmlns:xlink="http://www.w3.org/1999/xlink" width="16" height="16" viewBox="0 0 16 16" version="1.1">
<g id="surface1">
<path style=" stroke:none;fill-rule:nonzero;fill:rgb(0%,0%,0%);fill-opacity:1;" d="M 15.429688 -0.132812 L 14.015625 1.285156 L 14.320312 1.585938 C 13.742188 1.085938 13.078125 0.6875 12.40625 0.496094 C 11.710938 0.300781 10.929688 0.335938 10.417969 0.878906 C 9.75 1.585938 7.542969 3.773438 5.367188 5.929688 C 4.703125 6.59375 4.464844 6.835938 3.847656 7.453125 C 2.738281 5.921875 2.03125 4.46875 1.929688 3.523438 C 1.890625 3.132812 1.945312 2.867188 2.035156 2.707031 C 2.125 2.546875 2.234375 2.457031 2.457031 2.398438 C 2.75 2.320312 3.257812 2.375 3.890625 2.570312 L 3.414062 3.617188 L 6.878906 3.496094 L 4.734375 0.703125 L 4.308594 1.644531 C 3.511719 1.367188 2.804688 1.273438 2.203125 1.433594 C 1.765625 1.550781 1.375 1.832031 1.15625 2.226562 C 0.941406 2.621094 0.882812 3.09375 0.9375 3.625 C 1.078125 4.945312 1.882812 6.554688 3.109375 8.1875 C 2.109375 9.183594 0.765625 10.515625 0.414062 10.882812 C 0.171875 11.140625 0.0625 11.476562 0.0625 11.796875 C 0.0625 12.117188 0.148438 12.429688 0.289062 12.726562 C 0.507812 13.1875 0.867188 13.625 1.265625 14.035156 L -0.132812 15.421875 L 0.578125 16.132812 L 1.996094 14.71875 L 1.925781 14.648438 C 2.382812 15.03125 2.871094 15.367188 3.347656 15.585938 C 3.640625 15.71875 3.921875 15.808594 4.21875 15.835938 C 4.507812 15.863281 4.835938 15.820312 5.09375 15.613281 C 5.421875 15.351562 6.015625 14.757812 6.851562 13.914062 C 7.136719 13.632812 7.527344 13.226562 7.851562 12.898438 C 8.476562 13.367188 9.097656 13.773438 9.695312 14.101562 C 10.949219 14.796875 12.082031 15.183594 13.050781 15.070312 C 13.53125 15.007812 13.976562 14.796875 14.257812 14.445312 C 14.535156 14.09375 14.648438 13.640625 14.648438 13.15625 C 14.640625 12.1875 14.203125 11.023438 13.394531 9.679688 C 13.375 9.648438 13.351562 9.617188 13.328125 9.59375 C 13.164062 9.421875 12.910156 9.390625 12.710938 9.507812 C 12.59375 9.578125 12.515625 9.6875 12.484375 9.820312 C 12.453125 9.945312 12.472656 10.085938 12.542969 10.195312 C 13.296875 11.449219 13.640625 12.507812 13.640625 13.15625 C 13.644531 13.484375 13.570312 13.695312 13.46875 13.828125 C 13.363281 13.953125 13.222656 14.039062 12.9375 14.078125 C 12.359375 14.144531 11.335938 13.867188 10.171875 13.226562 C 9.660156 12.941406 9.117188 12.582031 8.5625 12.179688 C 8.980469 11.75 9.339844 11.386719 9.78125 10.933594 C 11.90625 8.757812 14.164062 6.453125 15.109375 5.59375 C 15.742188 5.027344 15.875 4.195312 15.65625 3.492188 C 15.492188 2.9375 15.148438 2.429688 14.726562 1.980469 L 16.132812 0.578125 Z M 11.515625 1.390625 C 11.679688 1.371094 11.882812 1.390625 12.128906 1.460938 C 12.625 1.601562 13.214844 1.945312 13.703125 2.378906 C 14.1875 2.8125 14.570312 3.34375 14.703125 3.789062 C 14.84375 4.234375 14.804688 4.527344 14.445312 4.851562 C 13.425781 5.777344 11.195312 8.058594 9.066406 10.234375 C 8.59375 10.71875 8.210938 11.105469 7.761719 11.5625 C 7.320312 11.203125 6.875 10.820312 6.429688 10.398438 C 6.410156 10.382812 6.390625 10.359375 6.367188 10.335938 L 7.648438 9.058594 L 6.9375 8.359375 L 5.667969 9.628906 C 5.234375 9.171875 4.832031 8.710938 4.460938 8.25 C 5.113281 7.597656 5.359375 7.34375 6.070312 6.636719 C 8.242188 4.484375 10.429688 2.320312 11.140625 1.566406 C 11.230469 1.472656 11.351562 1.410156 11.515625 1.390625 Z M 12.59375 2.695312 L 11.1875 4.113281 L 11.890625 4.820312 L 13.304688 3.40625 Z M 9.769531 5.523438 L 8.359375 6.9375 L 9.058594 7.648438 L 10.476562 6.234375 Z M 3.734375 8.976562 C 4.335938 9.703125 5.007812 10.421875 5.742188 11.121094 C 6.179688 11.539062 6.621094 11.914062 7.0625 12.277344 C 6.765625 12.578125 6.40625 12.953125 6.144531 13.214844 C 5.3125 14.046875 4.65625 14.683594 4.46875 14.832031 C 4.472656 14.828125 4.445312 14.851562 4.3125 14.835938 C 4.183594 14.828125 3.984375 14.773438 3.757812 14.671875 C 3.308594 14.464844 2.75 14.085938 2.273438 13.648438 C 1.796875 13.210938 1.390625 12.707031 1.199219 12.296875 C 1.101562 12.09375 1.054688 11.921875 1.058594 11.804688 C 1.058594 11.6875 1.078125 11.640625 1.148438 11.570312 C 1.453125 11.242188 2.78125 9.925781 3.734375 8.976562 Z M 4.117188 11.1875 L 2.695312 12.59375 L 3.40625 13.304688 L 4.820312 11.890625 Z M 4.117188 11.1875 "/>
</g>
</svg>
