<?xml version="1.0" encoding="UTF-8"?>
<svg xmlns="http://www.w3.org/2000/svg" xmlns:xlink="http://www.w3.org/1999/xlink" width="16" height="16" viewBox="0 0 16 16" version="1.1">
<g id="surface1">
<path style=" stroke:none;fill-rule:nonzero;fill:rgb(0%,0%,0%);fill-opacity:1;" d="M 8 1.332031 C 4.332031 1.332031 1.332031 4.332031 1.332031 8 C 1.332031 11.667969 4.332031 14.667969 8 14.667969 C 11.667969 14.667969 14.667969 11.667969 14.667969 8 C 14.667969 4.332031 11.699219 1.332031 8 1.332031 Z M 10.5 11.101562 C 8.933594 10.132812 6.964844 9.933594 4.632812 10.464844 C 4.398438 10.535156 4.199219 10.367188 4.132812 10.167969 C 4.066406 9.933594 4.234375 9.734375 4.433594 9.667969 C 6.964844 9.101562 9.167969 9.332031 10.898438 10.398438 C 11.132812 10.5 11.167969 10.765625 11.066406 10.964844 C 10.933594 11.167969 10.699219 11.234375 10.5 11.101562 Z M 11.167969 9.300781 C 9.367188 8.199219 6.632812 7.867188 4.535156 8.535156 C 4.265625 8.601562 3.964844 8.464844 3.898438 8.199219 C 3.832031 7.933594 3.964844 7.632812 4.234375 7.566406 C 6.667969 6.832031 9.667969 7.199219 11.734375 8.464844 C 11.933594 8.566406 12.035156 8.898438 11.867188 9.132812 C 11.699219 9.367188 11.398438 9.464844 11.167969 9.300781 Z M 4.199219 6.5 C 3.867188 6.601562 3.535156 6.398438 3.433594 6.101562 C 3.332031 5.765625 3.535156 5.433594 3.832031 5.332031 C 6.199219 4.632812 10.101562 4.765625 12.566406 6.234375 C 12.867188 6.398438 12.964844 6.800781 12.800781 7.101562 C 12.632812 7.332031 12.234375 7.433594 11.933594 7.265625 C 9.800781 6 6.234375 5.867188 4.199219 6.5 Z M 4.199219 6.5 "/>
</g>
</svg>
