<?xml version="1.0" encoding="UTF-8"?>
<svg xmlns="http://www.w3.org/2000/svg" xmlns:xlink="http://www.w3.org/1999/xlink" width="16" height="16" viewBox="0 0 16 16" version="1.1">
<g id="surface1">
<path style=" stroke:none;fill-rule:evenodd;fill:rgb(0%,0%,0%);fill-opacity:1;" d="M 8.015625 0.886719 C 7.550781 0.882812 7.34375 1.140625 7.199219 1.3125 C 7.054688 1.484375 6.945312 1.664062 6.835938 1.867188 C 6.617188 2.265625 6.40625 2.753906 6.203125 3.242188 C 6 3.734375 5.804688 4.226562 5.632812 4.601562 C 5.550781 4.789062 5.472656 4.945312 5.414062 5.039062 C 5.414062 5.046875 5.40625 5.046875 5.40625 5.054688 C 5.5 5.03125 5.554688 4.984375 5.421875 5.078125 C 5.296875 5.171875 5.351562 5.140625 5.40625 5.054688 C 5.398438 5.058594 5.394531 5.0625 5.382812 5.0625 C 5.273438 5.085938 5.109375 5.109375 4.90625 5.128906 C 4.5 5.171875 3.960938 5.207031 3.429688 5.246094 C 2.898438 5.285156 2.382812 5.328125 1.929688 5.410156 C 1.703125 5.453125 1.5 5.496094 1.289062 5.582031 C 1.078125 5.667969 0.773438 5.78125 0.632812 6.222656 C 0.484375 6.664062 0.664062 6.941406 0.78125 7.132812 C 0.898438 7.328125 1.03125 7.484375 1.1875 7.648438 C 1.507812 7.984375 1.90625 8.332031 2.3125 8.679688 C 2.71875 9.023438 3.125 9.367188 3.429688 9.640625 C 3.578125 9.773438 3.703125 9.890625 3.78125 9.976562 C 3.785156 9.980469 3.785156 9.980469 3.789062 9.984375 C 3.789062 9.898438 3.769531 9.839844 3.816406 9.984375 C 3.867188 10.140625 3.851562 10.0625 3.789062 9.984375 C 3.789062 10 3.789062 10 3.789062 10.015625 C 3.773438 10.125 3.742188 10.296875 3.703125 10.496094 C 3.617188 10.894531 3.484375 11.414062 3.359375 11.929688 C 3.234375 12.445312 3.117188 12.960938 3.054688 13.414062 C 3.023438 13.640625 3 13.851562 3.019531 14.078125 C 3.039062 14.304688 3.046875 14.625 3.421875 14.898438 C 3.796875 15.171875 4.109375 15.085938 4.328125 15.03125 C 4.550781 14.980469 4.742188 14.902344 4.949219 14.804688 C 5.363281 14.609375 5.820312 14.335938 6.273438 14.054688 C 6.726562 13.78125 7.179688 13.496094 7.53125 13.292969 C 7.710938 13.191406 7.867188 13.109375 7.96875 13.0625 C 7.96875 13.058594 7.972656 13.0625 7.976562 13.058594 C 7.890625 13.027344 7.828125 13.03125 7.984375 13.03125 C 8.152344 13.03125 8.074219 13.015625 7.976562 13.058594 C 7.984375 13.0625 7.984375 13.0625 8 13.066406 C 8.101562 13.113281 8.261719 13.191406 8.4375 13.296875 C 8.789062 13.5 9.234375 13.789062 9.6875 14.066406 C 10.140625 14.34375 10.59375 14.617188 11.007812 14.820312 C 11.210938 14.917969 11.40625 15 11.625 15.054688 C 11.84375 15.109375 12.164062 15.195312 12.539062 14.921875 C 12.914062 14.648438 12.929688 14.324219 12.945312 14.101562 C 12.960938 13.875 12.945312 13.667969 12.914062 13.4375 C 12.855469 12.984375 12.734375 12.46875 12.613281 11.953125 C 12.492188 11.4375 12.363281 10.921875 12.28125 10.519531 C 12.238281 10.320312 12.203125 10.148438 12.195312 10.035156 C 12.191406 10.023438 12.195312 10.023438 12.195312 10.015625 C 12.132812 10.09375 12.117188 10.164062 12.164062 10.007812 C 12.214844 9.859375 12.1875 9.917969 12.195312 10.015625 C 12.195312 10.007812 12.195312 10.007812 12.203125 10 C 12.28125 9.914062 12.40625 9.796875 12.5625 9.660156 C 12.867188 9.386719 13.273438 9.046875 13.679688 8.703125 C 14.085938 8.359375 14.484375 8.015625 14.804688 7.683594 C 14.960938 7.515625 15.101562 7.355469 15.21875 7.164062 C 15.335938 6.972656 15.511719 6.703125 15.367188 6.265625 C 15.226562 5.820312 14.929688 5.703125 14.722656 5.617188 C 14.515625 5.53125 14.3125 5.484375 14.085938 5.445312 C 13.632812 5.359375 13.101562 5.3125 12.574219 5.269531 C 12.046875 5.226562 11.507812 5.191406 11.101562 5.148438 C 10.898438 5.125 10.726562 5.101562 10.617188 5.078125 C 10.609375 5.078125 10.609375 5.078125 10.605469 5.078125 C 10.65625 5.152344 10.707031 5.1875 10.582031 5.09375 C 10.449219 5 10.507812 5.050781 10.605469 5.078125 C 10.601562 5.066406 10.59375 5.066406 10.589844 5.054688 C 10.535156 4.953125 10.460938 4.800781 10.378906 4.613281 C 10.210938 4.242188 10.015625 3.746094 9.816406 3.253906 C 9.617188 2.761719 9.40625 2.273438 9.1875 1.867188 C 9.078125 1.664062 8.972656 1.492188 8.828125 1.320312 C 8.679688 1.148438 8.476562 0.890625 8.015625 0.886719 Z M 8.015625 0.886719 "/>
</g>
</svg>
