<?xml version="1.0" encoding="UTF-8"?>
<svg xmlns="http://www.w3.org/2000/svg" xmlns:xlink="http://www.w3.org/1999/xlink" width="16" height="16" viewBox="0 0 16 16" version="1.1">
<g id="surface1">
<path style=" stroke:none;fill-rule:nonzero;fill:rgb(0%,0%,0%);fill-opacity:1;" d="M 14 7.765625 L 14 14 C 14 14.367188 13.703125 14.667969 13.332031 14.667969 L 2.667969 14.667969 C 2.296875 14.667969 2 14.367188 2 14 L 2 7.765625 C 1.570312 7.277344 1.332031 6.648438 1.332031 6 L 1.332031 2 C 1.332031 1.632812 1.632812 1.332031 2 1.332031 L 14 1.332031 C 14.367188 1.332031 14.667969 1.632812 14.667969 2 L 14.667969 6 C 14.667969 6.675781 14.414062 7.292969 14 7.765625 Z M 9.332031 6 C 9.332031 5.632812 9.632812 5.332031 10 5.332031 C 10.367188 5.332031 10.667969 5.632812 10.667969 6 C 10.667969 6.738281 11.261719 7.332031 12 7.332031 C 12.738281 7.332031 13.332031 6.738281 13.332031 6 L 13.332031 2.667969 L 2.667969 2.667969 L 2.667969 6 C 2.667969 6.738281 3.261719 7.332031 4 7.332031 C 4.738281 7.332031 5.332031 6.738281 5.332031 6 C 5.332031 5.632812 5.632812 5.332031 6 5.332031 C 6.367188 5.332031 6.667969 5.632812 6.667969 6 C 6.667969 6.738281 7.261719 7.332031 8 7.332031 C 8.738281 7.332031 9.332031 6.738281 9.332031 6 Z M 9.332031 6 "/>
</g>
</svg>
