<?xml version="1.0" encoding="UTF-8"?>
<svg xmlns="http://www.w3.org/2000/svg" xmlns:xlink="http://www.w3.org/1999/xlink" width="16" height="16" viewBox="0 0 16 16" version="1.1">
<g id="surface1">
<path style=" stroke:none;fill-rule:nonzero;fill:rgb(0%,0%,0%);fill-opacity:1;" d="M 3.730469 2.667969 L 7 6.617188 L 10.269531 2.667969 L 12 2.667969 L 7.867188 7.664062 L 12 12.664062 L 12 12.667969 L 10.273438 12.667969 L 7 8.710938 L 3.726562 12.667969 L 2 12.667969 L 2 12.664062 L 6.132812 7.664062 L 2 2.667969 Z M 14.367188 11.054688 C 14.554688 10.875 14.585938 10.582031 14.441406 10.367188 C 14.292969 10.148438 14.007812 10.074219 13.773438 10.183594 C 13.535156 10.296875 13.414062 10.5625 13.488281 10.8125 L 12.714844 11.035156 C 12.601562 10.628906 12.683594 10.199219 12.933594 9.863281 C 13.1875 9.53125 13.582031 9.332031 14 9.332031 C 14.546875 9.332031 15.035156 9.667969 15.238281 10.175781 C 15.441406 10.683594 15.3125 11.261719 14.914062 11.636719 L 13.828125 12.667969 L 15.332031 12.667969 L 15.332031 13.332031 L 12.667969 13.332031 L 12.667969 12.667969 Z M 14.367188 11.054688 "/>
</g>
</svg>
