<?xml version="1.0" encoding="UTF-8"?>
<svg xmlns="http://www.w3.org/2000/svg" xmlns:xlink="http://www.w3.org/1999/xlink" width="16" height="16" viewBox="0 0 16 16" version="1.1">
<g id="surface1">
<path style=" stroke:none;fill-rule:nonzero;fill:rgb(0%,0%,0%);fill-opacity:1;" d="M 7.332031 4 L 7.332031 12.667969 L 6 12.667969 L 6 4 L 2 4 L 2 2.667969 L 11.332031 2.667969 L 11.332031 4 Z M 13.035156 11.054688 C 13.222656 10.875 13.253906 10.582031 13.105469 10.367188 C 12.957031 10.148438 12.675781 10.074219 12.4375 10.183594 C 12.203125 10.296875 12.082031 10.5625 12.152344 10.8125 L 11.382812 11.035156 C 11.269531 10.632812 11.351562 10.199219 11.601562 9.863281 C 11.855469 9.53125 12.25 9.332031 12.667969 9.332031 C 13.210938 9.332031 13.703125 9.667969 13.90625 10.175781 C 14.105469 10.683594 13.980469 11.261719 13.582031 11.636719 L 12.496094 12.667969 L 14 12.667969 L 14 13.332031 L 11.332031 13.332031 L 11.332031 12.667969 Z M 13.035156 11.054688 "/>
</g>
</svg>
