<?xml version="1.0" encoding="UTF-8"?>
<svg xmlns="http://www.w3.org/2000/svg" xmlns:xlink="http://www.w3.org/1999/xlink" width="16" height="16" viewBox="0 0 16 16" version="1.1">
<g id="surface1">
<path style=" stroke:none;fill-rule:nonzero;fill:rgb(0%,0%,0%);fill-opacity:1;" d="M 10 0.667969 C 10.367188 0.667969 10.667969 0.964844 10.667969 1.332031 L 10.667969 4.667969 L 11.332031 4.667969 L 11.332031 4 L 12.667969 4 L 12.667969 4.667969 L 13.332031 4.667969 C 13.703125 4.667969 14 4.964844 14 5.332031 L 14 13.332031 C 14 13.703125 13.703125 14 13.332031 14 L 12.667969 14 L 12.667969 14.667969 L 11.332031 14.667969 L 11.332031 14 L 4.667969 14 L 4.667969 14.667969 L 3.332031 14.667969 L 3.332031 14 L 2.667969 14 C 2.296875 14 2 13.703125 2 13.332031 L 2 5.332031 C 2 4.964844 2.296875 4.667969 2.667969 4.667969 L 3.332031 4.667969 L 3.332031 4 L 4.667969 4 L 4.667969 4.667969 L 5.332031 4.667969 L 5.332031 1.332031 C 5.332031 0.964844 5.632812 0.667969 6 0.667969 Z M 6 6.667969 L 4.667969 6.667969 L 4.667969 12 L 6 12 Z M 8.667969 6.667969 L 7.332031 6.667969 L 7.332031 12 L 8.667969 12 Z M 11.332031 6.667969 L 10 6.667969 L 10 12 L 11.332031 12 Z M 9.332031 2 L 6.667969 2 L 6.667969 4.667969 L 9.332031 4.667969 Z M 9.332031 2 "/>
</g>
</svg>
