<?xml version="1.0" encoding="UTF-8"?>
<svg xmlns="http://www.w3.org/2000/svg" xmlns:xlink="http://www.w3.org/1999/xlink" width="16" height="16" viewBox="0 0 16 16" version="1.1">
<g id="surface1">
<path style=" stroke:none;fill-rule:nonzero;fill:rgb(0%,0%,0%);fill-opacity:1;" d="M 6.65625 3.375 C 7.390625 1.972656 8.835938 1.082031 10.417969 1.054688 C 12.003906 1.027344 13.476562 1.867188 14.257812 3.246094 C 15.042969 4.621094 15.011719 6.316406 14.179688 7.664062 C 15.273438 8.695312 15.628906 10.289062 15.074219 11.683594 C 14.519531 13.082031 13.167969 14 11.667969 14 L 6 14 C 4.015625 13.996094 2.199219 12.894531 1.277344 11.140625 C 0.359375 9.382812 0.492188 7.261719 1.617188 5.628906 C 2.746094 4 4.6875 3.128906 6.65625 3.371094 Z M 8.035156 3.734375 C 9.382812 4.292969 10.441406 5.375 10.972656 6.734375 C 11.671875 6.597656 12.394531 6.667969 13.050781 6.9375 C 13.691406 5.574219 13.21875 3.945312 11.949219 3.136719 C 10.679688 2.324219 9.003906 2.582031 8.039062 3.734375 Z M 11.667969 12.667969 C 12.726562 12.667969 13.652344 11.953125 13.921875 10.929688 C 14.191406 9.90625 13.738281 8.828125 12.820312 8.304688 C 11.898438 7.78125 10.742188 7.945312 10 8.699219 L 10 8.667969 C 10 6.457031 8.210938 4.667969 6 4.667969 C 3.789062 4.667969 2 6.457031 2 8.667969 C 2 10.875 3.789062 12.667969 6 12.667969 Z M 11.667969 12.667969 "/>
</g>
</svg>
