<?xml version="1.0" encoding="UTF-8"?>
<svg xmlns="http://www.w3.org/2000/svg" xmlns:xlink="http://www.w3.org/1999/xlink" width="16" height="16" viewBox="0 0 16 16" version="1.1">
<g id="surface1">
<path style=" stroke:none;fill-rule:evenodd;fill:rgb(0%,0%,0%);fill-opacity:1;" d="M 6 1 C 5.445312 1 5 1.445312 5 2 L 5 8 C 5 8 4 9 4 10 C 4 10.699219 4.976562 12.859375 5.5625 14.101562 C 5.800781 14.597656 6.445312 15 7 15 L 12 15 C 12.554688 15 13 14.554688 13 14 L 13 7 C 13 6.445312 12.554688 6 12 6 C 11.445312 6 11 6.445312 11 7 L 11 6.5 C 11 5.945312 10.554688 5.5 10 5.5 C 9.445312 5.5 9 5.945312 9 6.5 L 9 6 C 9 5.445312 8.554688 5 8 5 C 7.445312 5 7 5.445312 7 6 L 7 2 C 7 1.445312 6.554688 1 6 1 Z M 6 1 "/>
<path style=" stroke:none;fill-rule:evenodd;fill:rgb(0%,0%,0%);fill-opacity:1;" d="M 8 1.5 C 7.976562 1.5 7.953125 1.5 7.929688 1.5 C 7.972656 1.664062 8 1.828125 8 2 L 8 2.5 C 9.5625 2.5 11.121094 2.898438 12.535156 3.664062 L 12.058594 4.515625 L 15.691406 5.226562 L 13.664062 1.648438 L 13.023438 2.796875 C 11.453125 1.941406 9.734375 1.5 8 1.5 Z M 2.316406 1.816406 L 0.289062 5.394531 L 3.921875 4.683594 L 3.375 3.710938 C 3.582031 3.601562 3.789062 3.5 4 3.398438 L 4 2.292969 C 3.625 2.449219 3.253906 2.640625 2.890625 2.84375 Z M 2.316406 1.816406 "/>
</g>
</svg>
