<?xml version="1.0" encoding="UTF-8"?>
<svg xmlns="http://www.w3.org/2000/svg" xmlns:xlink="http://www.w3.org/1999/xlink" width="16" height="16" viewBox="0 0 16 16" version="1.1">
<g id="surface1">
<path style=" stroke:none;fill-rule:nonzero;fill:rgb(0%,0%,0%);fill-opacity:1;" d="M 9.675781 3.332031 L 11.414062 1.59375 C 11.539062 1.46875 11.707031 1.398438 11.886719 1.398438 C 12.0625 1.398438 12.230469 1.46875 12.355469 1.59375 L 15.183594 4.425781 C 15.445312 4.683594 15.445312 5.105469 15.183594 5.367188 L 12.667969 7.886719 L 12.667969 14 C 12.667969 14.367188 12.367188 14.667969 12 14.667969 L 4 14.667969 C 3.632812 14.667969 3.332031 14.367188 3.332031 14 L 3.332031 7.886719 L 0.816406 5.367188 C 0.554688 5.105469 0.554688 4.683594 0.816406 4.425781 L 3.644531 1.59375 C 3.769531 1.46875 3.9375 1.398438 4.113281 1.398438 C 4.292969 1.398438 4.460938 1.46875 4.585938 1.59375 L 6.324219 3.332031 Z M 10.230469 4.667969 L 5.769531 4.667969 L 4.113281 3.011719 L 2.230469 4.894531 L 4.667969 7.332031 L 4.667969 13.332031 L 11.332031 13.332031 L 11.332031 7.332031 L 13.769531 4.894531 L 11.886719 3.011719 Z M 10.230469 4.667969 "/>
</g>
</svg>
