<?xml version="1.0" encoding="UTF-8"?>
<svg xmlns="http://www.w3.org/2000/svg" xmlns:xlink="http://www.w3.org/1999/xlink" width="16" height="16" viewBox="0 0 16 16" version="1.1">
<g id="surface1">
<path style=" stroke:none;fill-rule:nonzero;fill:rgb(0%,0%,0%);fill-opacity:1;" d="M 5.332031 3.332031 C 5.332031 1.859375 6.527344 0.667969 8 0.667969 C 9.472656 0.667969 10.667969 1.859375 10.667969 3.332031 L 10.667969 6.835938 C 12.339844 8 13.0625 10.117188 12.453125 12.0625 C 11.84375 14.007812 10.039062 15.332031 8 15.332031 C 5.960938 15.332031 4.15625 14.007812 3.546875 12.0625 C 2.9375 10.117188 3.660156 8 5.332031 6.835938 Z M 6.097656 7.929688 C 4.902344 8.761719 4.382812 10.273438 4.820312 11.664062 C 5.253906 13.054688 6.542969 14 8 14 C 9.457031 14 10.746094 13.054688 11.179688 11.664062 C 11.617188 10.273438 11.097656 8.761719 9.902344 7.929688 L 9.332031 7.53125 L 9.332031 3.332031 C 9.332031 2.597656 8.738281 2 8 2 C 7.261719 2 6.667969 2.597656 6.667969 3.332031 L 6.667969 7.53125 Z M 7.332031 8.085938 L 7.332031 3.332031 L 8.667969 3.332031 L 8.667969 8.085938 C 9.964844 8.421875 10.808594 9.671875 10.640625 11 C 10.46875 12.332031 9.339844 13.328125 8 13.332031 C 6.65625 13.335938 5.519531 12.335938 5.351562 11.003906 C 5.183594 9.667969 6.03125 8.417969 7.332031 8.085938 Z M 8 12 C 8.738281 12 9.332031 11.402344 9.332031 10.667969 C 9.332031 9.929688 8.738281 9.332031 8 9.332031 C 7.261719 9.332031 6.667969 9.929688 6.667969 10.667969 C 6.667969 11.402344 7.261719 12 8 12 Z M 8 12 "/>
</g>
</svg>
