<?xml version="1.0" encoding="UTF-8"?>
<svg xmlns="http://www.w3.org/2000/svg" xmlns:xlink="http://www.w3.org/1999/xlink" width="16" height="16" viewBox="0 0 16 16" version="1.1">
<g id="surface1">
<path style=" stroke:none;fill-rule:nonzero;fill:rgb(0%,0%,0%);fill-opacity:1;" d="M 5.332031 6.835938 L 5.332031 3.332031 C 5.332031 1.859375 6.527344 0.667969 8 0.667969 C 9.472656 0.667969 10.667969 1.859375 10.667969 3.332031 L 10.667969 6.835938 C 12.339844 8 13.0625 10.117188 12.453125 12.0625 C 11.84375 14.007812 10.039062 15.332031 8 15.332031 C 5.960938 15.332031 4.15625 14.007812 3.546875 12.0625 C 2.9375 10.117188 3.660156 8 5.332031 6.835938 Z M 7.332031 8.085938 C 6.035156 8.421875 5.191406 9.671875 5.359375 11 C 5.53125 12.332031 6.660156 13.328125 8 13.332031 C 9.34375 13.335938 10.480469 12.335938 10.648438 11.003906 C 10.816406 9.667969 9.96875 8.417969 8.667969 8.085938 L 8.667969 3.332031 L 7.332031 3.332031 Z M 7.332031 8.085938 "/>
</g>
</svg>
