<?xml version="1.0" encoding="UTF-8"?>
<svg xmlns="http://www.w3.org/2000/svg" xmlns:xlink="http://www.w3.org/1999/xlink" width="16" height="16" viewBox="0 0 16 16" version="1.1">
<g id="surface1">
<path style=" stroke:none;fill-rule:evenodd;fill:rgb(0%,0%,0%);fill-opacity:1;" d="M 3 0 C 1.335938 0 0 1.335938 0 3 L 0 6.800781 L 6.804688 0 Z M 9.632812 0 L 0 9.632812 L 0 13 C 0 13.464844 0.113281 13.898438 0.296875 14.289062 L 14.289062 0.296875 C 13.898438 0.113281 13.460938 0 13 0 Z M 15.703125 1.710938 L 1.710938 15.703125 C 2.101562 15.886719 2.539062 16 3 16 L 6.585938 16 L 16 6.585938 L 16 3 C 16 2.539062 15.886719 2.101562 15.703125 1.710938 Z M 16 9.414062 L 9.414062 16 L 13 16 C 14.664062 16 16 14.664062 16 13 Z M 16 9.414062 "/>
</g>
</svg>
