<?xml version="1.0" encoding="UTF-8"?>
<svg xmlns="http://www.w3.org/2000/svg" xmlns:xlink="http://www.w3.org/1999/xlink" width="16" height="16" viewBox="0 0 16 16" version="1.1">
<g id="surface1">
<path style=" stroke:none;fill-rule:nonzero;fill:rgb(0%,0%,0%);fill-opacity:1;" d="M 3.328125 2.585938 C 0.320312 5.179688 -0.03125 9.710938 2.546875 12.703125 C 5.125 15.691406 9.652344 16.015625 12.671875 13.414062 C 15.679688 10.816406 16.03125 6.289062 13.453125 3.296875 C 10.875 0.304688 6.34375 -0.0117188 3.328125 2.585938 Z M 11.632812 12.210938 C 9.289062 14.234375 5.765625 13.984375 3.757812 11.65625 C 1.75 9.328125 2.023438 5.8125 4.367188 3.789062 C 6.710938 1.765625 10.234375 2.015625 12.242188 4.34375 C 14.25 6.671875 13.976562 10.1875 11.632812 12.210938 Z M 11.632812 12.210938 "/>
<path style=" stroke:none;fill-rule:nonzero;fill:rgb(0%,0%,0%);fill-opacity:1;" d="M 7 4.121094 L 7 9.125 L 12.003906 9.125 L 12.003906 7.125 L 9 7.125 L 9 4.121094 Z M 7 4.121094 "/>
</g>
</svg>
