<?xml version="1.0" encoding="UTF-8"?>
<svg xmlns="http://www.w3.org/2000/svg" xmlns:xlink="http://www.w3.org/1999/xlink" width="16" height="16" viewBox="0 0 16 16" version="1.1">
<g id="surface1">
<path style=" stroke:none;fill-rule:nonzero;fill:rgb(0%,0%,0%);fill-opacity:1;" d="M 3.554688 2.179688 C 4.402344 1.878906 5.351562 2.089844 5.988281 2.730469 C 6.625 3.367188 6.839844 4.3125 6.535156 5.164062 L 13.765625 12.394531 L 12.351562 13.808594 L 5.121094 6.578125 C 4.269531 6.882812 3.324219 6.667969 2.6875 6.03125 C 2.046875 5.390625 1.835938 4.445312 2.136719 3.59375 L 3.628906 5.085938 C 3.878906 5.347656 4.253906 5.449219 4.601562 5.359375 C 4.953125 5.269531 5.222656 4.996094 5.316406 4.644531 C 5.40625 4.296875 5.304688 3.921875 5.042969 3.671875 L 3.550781 2.179688 Z M 10.464844 3.4375 L 12.585938 2.257812 L 13.527344 3.199219 L 12.351562 5.320312 L 11.171875 5.558594 L 9.757812 6.972656 L 8.816406 6.03125 L 10.230469 4.617188 Z M 5.75 8.621094 L 7.164062 10.035156 L 3.863281 13.335938 C 3.488281 13.710938 2.882812 13.722656 2.488281 13.367188 C 2.09375 13.007812 2.050781 12.40625 2.386719 11.992188 L 2.453125 11.921875 Z M 5.75 8.621094 "/>
</g>
</svg>
