<?xml version="1.0" encoding="UTF-8"?>
<svg xmlns="http://www.w3.org/2000/svg" xmlns:xlink="http://www.w3.org/1999/xlink" width="16" height="16" viewBox="0 0 16 16" version="1.1">
<g id="surface1">
<path style=" stroke:none;fill-rule:nonzero;fill:rgb(0%,0%,0%);fill-opacity:1;" d="M 14.667969 8 C 14.667969 11.679688 11.683594 14.667969 8 14.667969 C 4.316406 14.667969 1.332031 11.679688 1.332031 8 C 1.332031 4.316406 4.316406 1.332031 8 1.332031 C 11.683594 1.332031 14.667969 4.316406 14.667969 8 Z M 3.464844 7.109375 C 2.976562 7.109375 2.578125 7.507812 2.578125 8 C 2.578125 8.492188 2.976562 8.890625 3.464844 8.890625 C 3.957031 8.890625 4.355469 8.492188 4.355469 8 C 4.355469 7.507812 3.957031 7.109375 3.464844 7.109375 Z M 9.820312 11.15625 C 9.539062 11.3125 9.363281 11.605469 9.363281 11.929688 C 9.359375 12.25 9.53125 12.546875 9.8125 12.707031 C 10.09375 12.867188 10.4375 12.863281 10.710938 12.695312 C 11.125 12.445312 11.265625 11.910156 11.023438 11.488281 C 10.78125 11.070312 10.246094 10.921875 9.820312 11.15625 Z M 5.398438 8 C 5.398438 7.121094 5.835938 6.34375 6.507812 5.875 L 5.855469 4.78125 C 5.066406 5.308594 4.496094 6.109375 4.257812 7.03125 C 4.546875 7.265625 4.71875 7.625 4.71875 8 C 4.71875 8.375 4.546875 8.734375 4.257812 8.96875 C 4.496094 9.890625 5.0625 10.691406 5.855469 11.21875 L 6.507812 10.125 C 5.8125 9.640625 5.398438 8.847656 5.398438 8 Z M 8 5.398438 C 9.347656 5.398438 10.46875 6.429688 10.589844 7.769531 L 11.859375 7.75 C 11.796875 6.800781 11.386719 5.910156 10.710938 5.242188 C 10.359375 5.375 9.964844 5.34375 9.640625 5.15625 C 9.316406 4.96875 9.09375 4.644531 9.035156 4.273438 C 8.117188 4.019531 7.140625 4.113281 6.285156 4.535156 L 6.90625 5.640625 C 7.246094 5.480469 7.621094 5.398438 8 5.398438 Z M 8 10.601562 C 7.609375 10.601562 7.238281 10.511719 6.90625 10.359375 L 6.285156 11.464844 C 7.136719 11.890625 8.117188 11.980469 9.035156 11.726562 C 9.09375 11.355469 9.316406 11.03125 9.640625 10.84375 C 9.964844 10.65625 10.359375 10.625 10.710938 10.757812 C 11.386719 10.089844 11.796875 9.199219 11.859375 8.25 L 10.589844 8.230469 C 10.46875 9.570312 9.347656 10.601562 8 10.601562 Z M 9.820312 4.84375 C 10.097656 5.007812 10.441406 5.011719 10.71875 4.851562 C 10.996094 4.695312 11.167969 4.398438 11.167969 4.074219 C 11.164062 3.753906 10.992188 3.460938 10.710938 3.304688 C 10.285156 3.066406 9.75 3.214844 9.507812 3.636719 C 9.261719 4.054688 9.402344 4.59375 9.820312 4.84375 Z M 9.820312 4.84375 "/>
</g>
</svg>
