<?xml version="1.0" encoding="UTF-8"?>
<svg xmlns="http://www.w3.org/2000/svg" xmlns:xlink="http://www.w3.org/1999/xlink" width="16" height="16" viewBox="0 0 16 16" version="1.1">
<g id="surface1">
<path style=" stroke:none;fill-rule:evenodd;fill:rgb(0%,0%,0%);fill-opacity:1;" d="M 1 10 C 0.445312 10 0 10.445312 0 11 L 0 15 C 0 15.554688 0.445312 16 1 16 L 15 16 C 15.554688 16 16 15.554688 16 15 L 16 11 C 16 10.445312 15.554688 10 15 10 Z M 10 12 C 10.554688 12 11 12.445312 11 13 C 11 13.554688 10.554688 14 10 14 C 9.445312 14 9 13.554688 9 13 C 9 12.445312 9.445312 12 10 12 Z M 13 12 C 13.554688 12 14 12.445312 14 13 C 14 13.554688 13.554688 14 13 14 C 12.445312 14 12 13.554688 12 13 C 12 12.445312 12.445312 12 13 12 Z M 13 12 "/>
<path style=" stroke:none;fill-rule:nonzero;fill:rgb(0%,0%,0%);fill-opacity:1;" d="M 7 9 L 9 9 L 9 4 L 11 4 L 8 0 L 5 4 L 7 4 Z M 7 9 "/>
</g>
</svg>
