<?xml version="1.0" encoding="UTF-8"?>
<svg xmlns="http://www.w3.org/2000/svg" xmlns:xlink="http://www.w3.org/1999/xlink" width="16" height="16" viewBox="0 0 16 16" version="1.1">
<g id="surface1">
<path style=" stroke:none;fill-rule:nonzero;fill:rgb(0%,0%,0%);fill-opacity:1;" d="M 2.667969 14.667969 C 2.667969 11.722656 5.054688 9.332031 8 9.332031 C 10.945312 9.332031 13.332031 11.722656 13.332031 14.667969 Z M 8.667969 10.722656 L 8.667969 13.332031 L 11.773438 13.332031 C 11.289062 11.964844 10.097656 10.964844 8.667969 10.722656 Z M 7.332031 13.332031 L 7.332031 10.722656 C 5.902344 10.964844 4.710938 11.964844 4.226562 13.332031 Z M 8 8.667969 C 5.789062 8.667969 4 6.875 4 4.667969 C 4 2.457031 5.789062 0.667969 8 0.667969 C 10.210938 0.667969 12 2.457031 12 4.667969 C 12 6.875 10.210938 8.667969 8 8.667969 Z M 8 7.332031 C 9.472656 7.332031 10.667969 6.140625 10.667969 4.667969 C 10.667969 3.191406 9.472656 2 8 2 C 6.527344 2 5.332031 3.191406 5.332031 4.667969 C 5.332031 6.140625 6.527344 7.332031 8 7.332031 Z M 8 7.332031 "/>
</g>
</svg>
