<?xml version="1.0" encoding="UTF-8"?>
<svg xmlns="http://www.w3.org/2000/svg" xmlns:xlink="http://www.w3.org/1999/xlink" width="16" height="16" viewBox="0 0 16 16" version="1.1">
<g id="surface1">
<path style=" stroke:none;fill-rule:nonzero;fill:rgb(0%,0%,0%);fill-opacity:1;" d="M 7.941406 1 C 5.757812 1.035156 4 2.816406 4 5 C 4 7.210938 5.792969 9 8 9 C 10.210938 9 12 7.210938 12 5 C 12 2.792969 10.210938 1 8 1 C 7.984375 1 7.960938 1 7.941406 1 Z M 3.996094 9.46875 C 3.117188 9.46875 2.382812 9.8125 1.839844 10.304688 C 1.296875 10.792969 0.917969 11.414062 0.652344 12.015625 C 0.121094 13.226562 0.00390625 14.414062 0.00390625 14.414062 L -0.0546875 15 L 8.5625 15 C 8.601562 14.867188 8.644531 14.742188 8.710938 14.625 L 10.320312 11.75 L 10.320312 10.519531 C 9.589844 10.828125 8.804688 11 8 11 C 6.523438 11 5.097656 10.453125 3.996094 9.46875 Z M 3.996094 9.46875 "/>
<path style=" stroke:none;fill-rule:nonzero;fill:rgb(0%,0%,0%);fill-opacity:1;" d="M 11.546875 9 C 11.304688 9 11.109375 9.164062 11.109375 9.367188 L 11.109375 9.507812 C 11.109375 9.710938 11.304688 9.875 11.546875 9.875 L 11.546875 12.0625 L 9.785156 15.234375 C 9.695312 15.394531 9.699219 15.589844 9.789062 15.746094 C 9.882812 15.90625 10.054688 16 10.234375 16 L 15.484375 16 C 15.667969 16 15.835938 15.90625 15.929688 15.746094 C 16.023438 15.589844 16.023438 15.394531 15.9375 15.234375 L 14.171875 12.0625 L 14.171875 9.875 C 14.414062 9.875 14.609375 9.710938 14.609375 9.507812 L 14.609375 9.367188 C 14.609375 9.164062 14.414062 9 14.171875 9 Z M 12.851562 9.546875 C 13.242188 9.546875 13.632812 9.65625 13.507812 9.875 L 13.507812 12.0625 L 14.523438 13.8125 L 11.199219 13.8125 L 12.195312 12.0625 L 12.195312 9.875 C 12.070312 9.65625 12.460938 9.546875 12.851562 9.546875 Z M 12.851562 9.546875 "/>
</g>
</svg>
