<?xml version="1.0" encoding="UTF-8"?>
<svg xmlns="http://www.w3.org/2000/svg" xmlns:xlink="http://www.w3.org/1999/xlink" width="16" height="16" viewBox="0 0 16 16" version="1.1">
<g id="surface1">
<path style=" stroke:none;fill-rule:nonzero;fill:rgb(0%,0%,0%);fill-opacity:1;" d="M 8 9.332031 L 8 10.667969 C 5.789062 10.667969 4 12.457031 4 14.667969 L 2.667969 14.667969 C 2.667969 11.722656 5.054688 9.332031 8 9.332031 Z M 8 8.667969 C 5.789062 8.667969 4 6.875 4 4.667969 C 4 2.457031 5.789062 0.667969 8 0.667969 C 10.210938 0.667969 12 2.457031 12 4.667969 C 12 6.875 10.210938 8.667969 8 8.667969 Z M 8 7.332031 C 9.472656 7.332031 10.667969 6.140625 10.667969 4.667969 C 10.667969 3.191406 9.472656 2 8 2 C 6.527344 2 5.332031 3.191406 5.332031 4.667969 C 5.332031 6.140625 6.527344 7.332031 8 7.332031 Z M 14.296875 13.355469 L 15.300781 14.355469 L 14.355469 15.300781 L 13.355469 14.296875 C 12.199219 14.980469 10.714844 14.695312 9.890625 13.632812 C 9.070312 12.570312 9.164062 11.0625 10.113281 10.113281 C 11.0625 9.164062 12.570312 9.070312 13.632812 9.890625 C 14.695312 10.714844 14.980469 12.199219 14.296875 13.355469 Z M 12 13.332031 C 12.738281 13.332031 13.332031 12.738281 13.332031 12 C 13.332031 11.261719 12.738281 10.667969 12 10.667969 C 11.261719 10.667969 10.667969 11.261719 10.667969 12 C 10.667969 12.738281 11.261719 13.332031 12 13.332031 Z M 12 13.332031 "/>
</g>
</svg>
