<?xml version="1.0" encoding="UTF-8"?>
<svg xmlns="http://www.w3.org/2000/svg" xmlns:xlink="http://www.w3.org/1999/xlink" width="16" height="16" viewBox="0 0 16 16" version="1.1">
<g id="surface1">
<path style=" stroke:none;fill-rule:nonzero;fill:rgb(0%,0%,0%);fill-opacity:1;" d="M 4.925781 11.027344 C 3.027344 9.6875 2.214844 7.269531 2.917969 5.054688 C 3.621094 2.839844 5.675781 1.335938 8 1.335938 C 10.324219 1.335938 12.382812 2.839844 13.085938 5.054688 C 13.785156 7.269531 12.972656 9.6875 11.074219 11.027344 L 12.460938 14.199219 C 12.507812 14.300781 12.5 14.421875 12.4375 14.515625 C 12.375 14.609375 12.269531 14.667969 12.15625 14.667969 L 3.84375 14.667969 C 3.730469 14.667969 3.625 14.609375 3.5625 14.515625 C 3.503906 14.421875 3.492188 14.304688 3.539062 14.199219 Z M 5.414062 7.3125 C 5.710938 8.5 6.777344 9.332031 8 9.332031 C 9.222656 9.332031 10.289062 8.5 10.585938 7.3125 L 9.292969 6.988281 C 9.144531 7.585938 8.613281 8 8 8 C 7.386719 8 6.855469 7.585938 6.707031 6.988281 Z M 5.414062 7.3125 "/>
</g>
</svg>
