<?xml version="1.0" encoding="UTF-8"?>
<svg xmlns="http://www.w3.org/2000/svg" xmlns:xlink="http://www.w3.org/1999/xlink" width="16" height="16" viewBox="0 0 16 16" version="1.1">
<g id="surface1">
<path style=" stroke:none;fill-rule:nonzero;fill:rgb(0%,0%,0%);fill-opacity:1;" d="M 7.941406 1 C 5.757812 1.035156 4 2.816406 4 5 C 4 7.210938 5.792969 9 8 9 C 10.210938 9 12 7.210938 12 5 C 12 2.792969 10.210938 1 8 1 C 7.984375 1 7.960938 1 7.941406 1 Z M 13 8 L 13 16 L 14 16 L 14 8 Z M 3.996094 9.46875 C 3.117188 9.46875 2.382812 9.8125 1.839844 10.304688 C 1.296875 10.792969 0.917969 11.414062 0.652344 12.015625 C 0.121094 13.226562 0.00390625 14.414062 0.00390625 14.414062 L -0.0546875 15 L 10 15 L 10 10.65625 C 9.359375 10.882812 8.683594 11 8 11 C 6.523438 11 5.097656 10.453125 3.996094 9.46875 Z M 11 10 L 11 16 L 12 16 L 12 10 Z M 15 12 L 15 16 L 16 16 L 16 12 Z M 15 12 "/>
</g>
</svg>
