<?xml version="1.0" encoding="UTF-8"?>
<svg xmlns="http://www.w3.org/2000/svg" xmlns:xlink="http://www.w3.org/1999/xlink" width="16" height="16" viewBox="0 0 16 16" version="1.1">
<g id="surface1">
<path style=" stroke:none;fill-rule:nonzero;fill:rgb(0%,0%,0%);fill-opacity:1;" d="M 3.332031 10 L 3.332031 12.667969 L 6 12.667969 L 6 14 L 2 14 L 2 10 Z M 14 10 L 14 14 L 10 14 L 10 12.667969 L 12.667969 12.667969 L 12.667969 10 Z M 8.667969 4 L 8.667969 12 L 7.332031 12 L 7.332031 4 Z M 6 6 L 6 10 L 4.667969 10 L 4.667969 6 Z M 11.332031 6 L 11.332031 10 L 10 10 L 10 6 Z M 6 2 L 6 3.332031 L 3.332031 3.332031 L 3.332031 6 L 2 6 L 2 2 Z M 14 2 L 14 6 L 12.667969 6 L 12.667969 3.332031 L 10 3.332031 L 10 2 Z M 14 2 "/>
</g>
</svg>
