<?xml version="1.0" encoding="UTF-8"?>
<svg xmlns="http://www.w3.org/2000/svg" xmlns:xlink="http://www.w3.org/1999/xlink" width="16" height="16" viewBox="0 0 16 16" version="1.1">
<g id="surface1">
<path style=" stroke:none;fill-rule:evenodd;fill:rgb(0%,0%,0%);fill-opacity:1;" d="M 3 0 C 1.890625 0 1 0.890625 1 2 L 1 14 C 1 15.109375 1.890625 16 3 16 L 13 16 C 14.109375 16 15 15.109375 15 14 L 15 2 C 15 0.890625 14.109375 0 13 0 Z M 4 2 L 12 2 C 12.554688 2 13 2.445312 13 3 L 13 13 C 13 13.554688 12.554688 14 12 14 L 4 14 C 3.445312 14 3 13.554688 3 13 L 3 3 C 3 2.445312 3.445312 2 4 2 Z M 4 2 "/>
<path style=" stroke:none;fill-rule:evenodd;fill:rgb(0%,0%,0%);fill-opacity:1;" d="M 3 7 L 13 7 L 13 9 L 3 9 Z M 3 7 "/>
</g>
</svg>
