<?xml version="1.0" encoding="UTF-8"?>
<svg xmlns="http://www.w3.org/2000/svg" xmlns:xlink="http://www.w3.org/1999/xlink" width="16" height="16" viewBox="0 0 16 16" version="1.1">
<g id="surface1">
<path style=" stroke:none;fill-rule:nonzero;fill:rgb(0%,0%,0%);fill-opacity:1;" d="M 13.070312 4.664062 C 13.019531 4.464844 12.875 4.316406 12.710938 4.269531 C 12.421875 4.1875 11 4 8 4 C 5 4 3.582031 4.1875 3.289062 4.269531 C 3.125 4.3125 2.980469 4.464844 2.929688 4.664062 C 2.855469 4.945312 2.667969 6.128906 2.667969 8 C 2.667969 9.871094 2.855469 11.054688 2.929688 11.335938 C 2.980469 11.535156 3.125 11.683594 3.289062 11.730469 C 3.582031 11.8125 5 12 8 12 C 11 12 12.417969 11.8125 12.710938 11.730469 C 12.875 11.6875 13.019531 11.535156 13.070312 11.335938 C 13.144531 11.054688 13.332031 9.867188 13.332031 8 C 13.332031 6.132812 13.144531 4.945312 13.070312 4.664062 Z M 14.363281 4.332031 C 14.667969 5.519531 14.667969 8 14.667969 8 C 14.667969 8 14.667969 10.480469 14.363281 11.667969 C 14.191406 12.324219 13.699219 12.839844 13.070312 13.015625 C 11.929688 13.332031 8 13.332031 8 13.332031 C 8 13.332031 4.070312 13.332031 2.929688 13.015625 C 2.300781 12.839844 1.804688 12.324219 1.636719 11.667969 C 1.332031 10.480469 1.332031 8 1.332031 8 C 1.332031 8 1.332031 5.519531 1.636719 4.332031 C 1.808594 3.675781 2.300781 3.160156 2.929688 2.984375 C 4.070312 2.667969 8 2.667969 8 2.667969 C 8 2.667969 11.929688 2.667969 13.070312 2.984375 C 13.699219 3.160156 14.195312 3.675781 14.363281 4.332031 Z M 6.667969 10.332031 L 6.667969 5.667969 L 10.667969 8 Z M 6.667969 10.332031 "/>
</g>
</svg>
