<?xml version="1.0" encoding="UTF-8"?>
<svg xmlns="http://www.w3.org/2000/svg" xmlns:xlink="http://www.w3.org/1999/xlink" width="16" height="16" viewBox="0 0 16 16" version="1.1">
<g id="surface1">
<path style=" stroke:none;fill-rule:nonzero;fill:rgb(0%,0%,0%);fill-opacity:1;" d="M 2.667969 3.332031 L 2.667969 12.667969 L 13.332031 12.667969 L 13.332031 3.332031 Z M 2 2 L 14 2 C 14.367188 2 14.667969 2.296875 14.667969 2.667969 L 14.667969 13.332031 C 14.667969 13.703125 14.367188 14 14 14 L 2 14 C 1.632812 14 1.332031 13.703125 1.332031 13.332031 L 1.332031 2.667969 C 1.332031 2.296875 1.632812 2 2 2 Z M 7.667969 9 L 7 9 L 7 10 L 6 10 L 6 9 L 4 9 L 4 6 L 5 6 L 5 8 L 6 8 L 6 6 L 7 6 L 7 8 L 7.667969 8 Z M 12 10 L 10.832031 10 L 9.667969 8.5 L 9.667969 10 L 8.667969 10 L 8.667969 6 L 9.667969 6 L 9.667969 7.5 L 10.832031 6 L 12 6 L 10.5 8 Z M 12 10 "/>
</g>
</svg>
