<?xml version="1.0" encoding="UTF-8"?>
<svg xmlns="http://www.w3.org/2000/svg" xmlns:xlink="http://www.w3.org/1999/xlink" width="16" height="16" viewBox="0 0 16 16" version="1.1">
<g id="surface1">
<path style=" stroke:none;fill-rule:nonzero;fill:rgb(0%,0%,0%);fill-opacity:1;" d="M 8 1.332031 C 11.128906 1.332031 13.667969 3.871094 13.667969 7 C 13.667969 11.332031 10 15 8 15 C 6 15 2.332031 11.332031 2.332031 7 C 2.332031 3.871094 4.871094 1.332031 8 1.332031 Z M 11.667969 8 C 10.816406 8 10.003906 8.359375 9.4375 8.992188 C 8.867188 9.625 8.59375 10.46875 8.683594 11.316406 C 9.585938 11.414062 10.480469 11.09375 11.121094 10.453125 C 11.761719 9.8125 12.078125 8.917969 11.984375 8.015625 C 11.878906 8.003906 11.773438 8 11.667969 8 Z M 4.332031 8 C 4.226562 8 4.121094 8.003906 4.015625 8.015625 C 3.921875 8.917969 4.238281 9.8125 4.878906 10.453125 C 5.519531 11.09375 6.414062 11.414062 7.316406 11.316406 C 7.40625 10.46875 7.132812 9.625 6.5625 8.992188 C 5.996094 8.359375 5.183594 8 4.332031 8 Z M 4.332031 8 "/>
</g>
</svg>
