<?xml version="1.0" encoding="UTF-8"?>
<svg xmlns="http://www.w3.org/2000/svg" xmlns:xlink="http://www.w3.org/1999/xlink" width="16" height="16" viewBox="0 0 16 16" version="1.1">
<g id="surface1">
<path style=" stroke:none;fill-rule:nonzero;fill:rgb(0%,0%,0%);fill-opacity:1;" d="M 12.273438 11.191406 C 10.824219 10.558594 9.792969 10.097656 9.179688 9.800781 C 8.246094 10.933594 7.265625 11.617188 5.792969 11.617188 C 4.320312 11.617188 3.332031 10.710938 3.449219 9.59375 C 3.53125 8.863281 4.03125 7.667969 6.203125 7.878906 C 7.347656 7.984375 7.871094 8.199219 8.8125 8.507812 C 9.050781 8.0625 9.253906 7.574219 9.402344 7.054688 L 5.253906 7.054688 L 5.253906 6.644531 L 7.300781 6.644531 L 7.300781 5.910156 L 4.800781 5.910156 L 4.800781 5.457031 L 7.300781 5.457031 L 7.300781 4.394531 C 7.300781 4.394531 7.324219 4.230469 7.507812 4.230469 L 8.535156 4.230469 L 8.535156 5.460938 L 11.199219 5.460938 L 11.199219 5.914062 L 8.535156 5.914062 L 8.535156 6.652344 L 10.710938 6.652344 C 10.523438 7.425781 10.226562 8.171875 9.828125 8.863281 C 10.167969 8.984375 11.226562 9.316406 13.003906 9.851562 C 13.976562 7.230469 12.757812 4.300781 10.210938 3.144531 C 7.664062 1.984375 4.65625 2.992188 3.320312 5.445312 C 1.980469 7.902344 2.765625 10.976562 5.121094 12.488281 C 7.476562 13.996094 10.597656 13.433594 12.273438 11.195312 Z M 8 14.667969 C 4.316406 14.667969 1.332031 11.683594 1.332031 8 C 1.332031 4.316406 4.316406 1.332031 8 1.332031 C 11.683594 1.332031 14.667969 4.316406 14.667969 8 C 14.667969 11.683594 11.683594 14.667969 8 14.667969 Z M 5.621094 10.910156 C 6.582031 10.910156 7.503906 10.332031 8.261719 9.34375 C 7.1875 8.828125 6.296875 8.570312 5.300781 8.570312 C 4.433594 8.570312 3.980469 9.105469 3.898438 9.515625 C 3.820312 9.925781 4.0625 10.910156 5.621094 10.910156 Z M 5.621094 10.910156 "/>
</g>
</svg>
