<?xml version="1.0" encoding="UTF-8"?>
<svg xmlns="http://www.w3.org/2000/svg" xmlns:xlink="http://www.w3.org/1999/xlink" width="16" height="16" viewBox="0 0 16 16" version="1.1">
<g id="surface1">
<path style=" stroke:none;fill-rule:nonzero;fill:rgb(0%,0%,0%);fill-opacity:1;" d="M 10.417969 9.746094 C 9.679688 10.824219 8.597656 11.335938 7.332031 11.335938 C 5.796875 11.335938 4.484375 10.152344 4.671875 8.585938 C 4.882812 6.847656 6.230469 6.101562 8.476562 5.824219 C 8.878906 5.777344 9.042969 5.761719 9.90625 5.699219 L 10 5.691406 L 10 5.546875 C 10 4.351562 9.289062 3.535156 8.332031 3.535156 C 7.375 3.535156 6.707031 4.03125 6.296875 5.21875 L 5.035156 4.78125 C 5.628906 3.070312 6.796875 2.199219 8.332031 2.199219 C 10.070312 2.199219 11.332031 3.652344 11.332031 5.546875 C 11.332031 7.3125 11.441406 8.71875 11.65625 9.253906 C 11.894531 9.847656 11.980469 9.996094 12.246094 10.328125 L 11.203125 11.160156 C 10.855469 10.726562 10.703125 10.460938 10.417969 9.746094 Z M 14.171875 13.695312 C 13.992188 13.828125 13.675781 13.75 13.820312 13.402344 C 13.996094 12.972656 14.183594 12.464844 13.992188 12.234375 C 13.851562 12.066406 13.683594 11.980469 13.308594 11.980469 C 13.003906 11.980469 12.847656 12.019531 12.644531 12.035156 C 12.507812 12.042969 12.449219 11.835938 12.585938 11.742188 C 12.761719 11.613281 12.957031 11.519531 13.164062 11.457031 C 13.929688 11.226562 14.835938 11.351562 14.945312 11.511719 C 15.1875 11.863281 14.8125 13.222656 14.171875 13.699219 Z M 13.382812 12.972656 C 13.210938 13.140625 13.023438 13.296875 12.828125 13.4375 C 11.414062 14.515625 9.582031 15.078125 7.992188 15.078125 C 5.429688 15.078125 3.136719 13.882812 1.398438 11.878906 C 1.25 11.726562 1.375 11.503906 1.546875 11.625 C 3.421875 13.007812 5.738281 13.847656 8.140625 13.847656 C 9.652344 13.847656 11.28125 13.488281 12.832031 12.71875 C 12.9375 12.667969 13.058594 12.597656 13.164062 12.546875 C 13.410156 12.410156 13.625 12.753906 13.382812 12.972656 Z M 10.007812 7.027344 C 9.167969 7.089844 9.007812 7.101562 8.636719 7.148438 C 6.9375 7.355469 6.105469 7.816406 5.996094 8.746094 C 5.910156 9.441406 6.535156 10.003906 7.332031 10.003906 C 8.691406 10.003906 9.679688 9.183594 10.015625 7.027344 Z M 10.007812 7.027344 "/>
</g>
</svg>
