<?xml version="1.0" encoding="UTF-8"?>
<svg xmlns="http://www.w3.org/2000/svg" xmlns:xlink="http://www.w3.org/1999/xlink" width="16" height="16" viewBox="0 0 16 16" version="1.1">
<g id="surface1">
<path style=" stroke:none;fill-rule:nonzero;fill:rgb(0%,0%,0%);fill-opacity:1;" d="M 12.601562 6.667969 C 13.148438 7.617188 14.363281 7.949219 15.316406 7.410156 C 15.429688 8.398438 14.898438 9.347656 14 9.773438 L 14 14 L 10 14 L 10 12.667969 C 10 11.585938 9.140625 10.699219 8.058594 10.664062 C 6.976562 10.632812 6.066406 11.46875 6.003906 12.550781 L 6 12.667969 L 6 14 L 2 14 L 2 9.777344 C 1.097656 9.347656 0.570312 8.398438 0.679688 7.40625 C 1.636719 7.949219 2.851562 7.617188 3.398438 6.667969 Z M 11.355469 2 C 11.453125 2.667969 11.835938 3.261719 12.40625 3.628906 C 12.972656 3.996094 13.671875 4.097656 14.320312 3.90625 C 14.203125 5.046875 13.273438 5.933594 12.128906 5.996094 L 12 6 L 4 6 C 2.804688 6 1.800781 5.097656 1.679688 3.90625 C 2.328125 4.097656 3.027344 3.996094 3.59375 3.628906 C 4.164062 3.261719 4.546875 2.667969 4.644531 2 Z M 11.355469 2 "/>
</g>
</svg>
