<?xml version="1.0" encoding="UTF-8"?>
<svg xmlns="http://www.w3.org/2000/svg" xmlns:xlink="http://www.w3.org/1999/xlink" width="16" height="16" viewBox="0 0 16 16" version="1.1">
<g id="surface1">
<path style=" stroke:none;fill-rule:nonzero;fill:rgb(0%,0%,0%);fill-opacity:1;" d="M 12.46875 1.5 C 12.214844 1.507812 11.972656 1.613281 11.789062 1.796875 L 0.792969 12.796875 C 0.507812 13.082031 0.421875 13.507812 0.578125 13.882812 C 0.734375 14.257812 1.097656 14.5 1.5 14.5 L 14.5 14.5 C 15.050781 14.5 15.496094 14.054688 15.496094 13.5 C 15.5 12.949219 15.054688 12.5 14.5 12.5 L 10.445312 12.5 C 10.253906 10.8125 9.585938 9.21875 8.53125 7.890625 L 13.210938 3.210938 C 13.398438 3.023438 13.503906 2.769531 13.503906 2.503906 C 13.503906 2.238281 13.398438 1.984375 13.210938 1.796875 C 13.015625 1.601562 12.75 1.492188 12.46875 1.5 Z M 7.101562 9.316406 C 7.804688 10.25 8.257812 11.34375 8.421875 12.5 L 3.921875 12.5 Z M 7.101562 9.316406 "/>
</g>
</svg>
