<?xml version="1.0" encoding="UTF-8"?>
<svg xmlns="http://www.w3.org/2000/svg" xmlns:xlink="http://www.w3.org/1999/xlink" width="16" height="16" viewBox="0 0 16 16" version="1.1">
<g id="surface1">
<path style=" stroke:none;fill-rule:evenodd;fill:rgb(0%,0%,0%);fill-opacity:1;" d="M 7.488281 0 C 7.21875 0.0078125 7 0.226562 7 0.5 C 7 0.53125 7.003906 0.566406 7.011719 0.597656 C 7.058594 0.832031 7.265625 1 7.5 1 C 9.359375 1 11.140625 1.742188 12.453125 3.054688 C 13.765625 4.367188 14.5 6.148438 14.5 8.007812 C 14.5 8.28125 14.726562 8.507812 15 8.507812 C 15.273438 8.507812 15.5 8.28125 15.5 8.007812 C 15.5 5.882812 14.65625 3.84375 13.15625 2.34375 C 11.65625 0.84375 9.621094 0 7.5 0 C 7.496094 0 7.492188 0 7.488281 0 Z M 7.488281 2 C 7.21875 2.007812 7 2.230469 7 2.5 C 7 2.53125 7.007812 2.5625 7.011719 2.59375 C 7.054688 2.828125 7.261719 3 7.503906 3 C 8.828125 3 10.101562 3.53125 11.039062 4.46875 C 11.976562 5.40625 12.503906 6.679688 12.503906 8.007812 C 12.507812 8.277344 12.726562 8.496094 12.996094 8.5 C 13.269531 8.5 13.492188 8.28125 13.5 8.007812 C 13.5 6.414062 12.867188 4.886719 11.742188 3.761719 C 10.617188 2.636719 9.09375 2 7.5 2 C 7.5 2 7.492188 2 7.488281 2 Z M 2.597656 3.265625 C 2.4375 3.265625 2.28125 3.328125 2.167969 3.460938 C 0.695312 5.195312 0.148438 7.546875 0.730469 9.773438 C 1.03125 10.910156 1.609375 11.921875 2.390625 12.757812 L 1.304688 16 L 5.695312 16 L 5.226562 14.597656 C 5.382812 14.648438 5.53125 14.710938 5.691406 14.757812 C 7.921875 15.359375 10.289062 14.828125 12.039062 13.367188 C 12.304688 13.148438 12.304688 12.75 12.058594 12.507812 L 9.019531 9.476562 C 9.210938 9.164062 9.3125 8.804688 9.3125 8.4375 C 9.3125 7.332031 8.417969 6.4375 7.3125 6.4375 C 6.945312 6.4375 6.589844 6.539062 6.277344 6.726562 L 3.042969 3.453125 C 2.921875 3.328125 2.757812 3.265625 2.597656 3.265625 Z M 7.484375 4.007812 C 7.210938 4.015625 6.996094 4.234375 6.996094 4.507812 C 6.996094 4.535156 7 4.566406 7.007812 4.59375 C 7.046875 4.835938 7.257812 5.007812 7.5 5.007812 C 8.292969 5.007812 9.054688 5.320312 9.617188 5.882812 C 10.179688 6.445312 10.5 7.203125 10.5 8 C 10.5 8.277344 10.726562 8.5 11 8.5 C 11.273438 8.496094 11.492188 8.273438 11.492188 8 C 11.492188 6.941406 11.074219 5.921875 10.324219 5.171875 C 9.574219 4.421875 8.554688 4.007812 7.496094 4.007812 C 7.492188 4.007812 7.484375 4.007812 7.484375 4.007812 Z M 7.484375 4.007812 "/>
</g>
</svg>
