<?xml version="1.0" encoding="UTF-8"?>
<svg xmlns="http://www.w3.org/2000/svg" xmlns:xlink="http://www.w3.org/1999/xlink" width="16" height="16" viewBox="0 0 16 16" version="1.1">
<g id="surface1">
<path style=" stroke:none;fill-rule:nonzero;fill:rgb(0%,0%,0%);fill-opacity:1;" d="M 2 6.667969 L 1.332031 6.667969 L 1.332031 2.667969 C 1.332031 2.300781 1.636719 2 1.996094 2 L 14.003906 2 C 14.183594 2 14.351562 2.070312 14.476562 2.195312 C 14.601562 2.320312 14.667969 2.492188 14.667969 2.667969 L 14.667969 6.667969 L 14 6.667969 L 14 13.335938 C 14 13.699219 13.703125 14 13.339844 14 L 2.660156 14 C 2.296875 14 2 13.699219 2 13.335938 Z M 12.667969 6.667969 L 3.332031 6.667969 L 3.332031 12.667969 L 12.667969 12.667969 Z M 2.667969 3.332031 L 2.667969 5.332031 L 13.332031 5.332031 L 13.332031 3.332031 Z M 6 8 L 10 8 L 10 9.332031 L 6 9.332031 Z M 6 8 "/>
</g>
</svg>
