<?xml version="1.0" encoding="UTF-8"?>
<svg xmlns="http://www.w3.org/2000/svg" xmlns:xlink="http://www.w3.org/1999/xlink" width="16" height="16" viewBox="0 0 16 16" version="1.1">
<g id="surface1">
<path style=" stroke:none;fill-rule:nonzero;fill:rgb(0%,0%,0%);fill-opacity:1;" d="M 11.929688 4.183594 C 11.210938 4.1875 10.488281 4.390625 9.859375 4.8125 C 9.054688 5.328125 8.488281 6.015625 8.011719 6.71875 C 7.28125 5.664062 6.3125 4.664062 4.894531 4.328125 L 4.890625 4.328125 C 4.554688 4.253906 4.226562 4.226562 3.90625 4.226562 C 1.285156 4.050781 -0.785156 6.976562 0.289062 9.390625 C 1.335938 11.957031 5.027344 12.621094 6.890625 10.5625 C 7.316406 10.144531 7.660156 9.683594 7.96875 9.21875 C 8.679688 10.359375 9.734375 11.351562 11.160156 11.679688 C 13.722656 12.425781 16.382812 10.015625 15.953125 7.394531 C 15.648438 5.433594 13.789062 4.171875 11.929688 4.183594 Z M 3.699219 5.523438 C 3.75 5.523438 3.796875 5.527344 3.84375 5.53125 L 3.898438 5.53125 C 4.144531 5.53125 4.378906 5.554688 4.597656 5.601562 C 5.710938 5.867188 6.546875 6.832031 7.242188 7.929688 C 6.835938 8.578125 6.4375 9.179688 5.957031 9.648438 L 5.941406 9.664062 L 5.929688 9.679688 C 4.773438 10.96875 2.140625 10.492188 1.5 8.890625 L 1.488281 8.867188 C 0.859375 7.472656 2.191406 5.53125 3.699219 5.523438 Z M 11.773438 5.53125 C 13.054688 5.476562 14.464844 6.335938 14.664062 7.601562 C 14.921875 9.199219 13.0625 10.890625 11.5 10.417969 L 11.480469 10.410156 L 11.457031 10.40625 C 10.28125 10.140625 9.34375 9.121094 8.765625 7.953125 C 9.292969 7.117188 9.820312 6.390625 10.570312 5.914062 L 10.585938 5.898438 C 10.929688 5.664062 11.34375 5.546875 11.773438 5.53125 Z M 11.773438 5.53125 "/>
<path style=" stroke:none;fill-rule:nonzero;fill:rgb(0%,0%,0%);fill-opacity:1;" d="M 2.65625 7.722656 L 2.65625 8.277344 L 5.316406 8.277344 L 5.316406 7.722656 Z M 2.65625 7.722656 "/>
<path style=" stroke:none;fill-rule:nonzero;fill:rgb(0%,0%,0%);fill-opacity:1;" d="M 11.546875 6.890625 L 11.546875 7.644531 L 10.8125 7.644531 L 10.8125 8.355469 L 11.546875 8.355469 L 11.546875 9.109375 L 12.253906 9.109375 L 12.253906 8.355469 L 13.03125 8.355469 L 13.03125 7.644531 L 12.253906 7.644531 L 12.253906 6.890625 Z M 11.546875 6.890625 "/>
</g>
</svg>
