<?xml version="1.0" encoding="UTF-8"?>
<svg xmlns="http://www.w3.org/2000/svg" xmlns:xlink="http://www.w3.org/1999/xlink" width="16" height="16" viewBox="0 0 16 16" version="1.1">
<g id="surface1">
<path style=" stroke:none;fill-rule:nonzero;fill:rgb(0%,0%,0%);fill-opacity:1;" d="M 8 14.667969 C 4.316406 14.667969 1.332031 11.683594 1.332031 8 C 1.332031 4.316406 4.316406 1.332031 8 1.332031 C 11.683594 1.332031 14.667969 4.316406 14.667969 8 C 14.667969 11.683594 11.683594 14.667969 8 14.667969 Z M 13.332031 8 C 13.332031 5.582031 11.707031 3.46875 9.375 2.847656 C 7.039062 2.226562 4.578125 3.25 3.375 5.34375 C 2.171875 7.441406 2.527344 10.082031 4.242188 11.785156 C 5.957031 13.488281 8.601562 13.824219 10.6875 12.605469 L 10.015625 11.457031 C 8.449219 12.371094 6.46875 12.117188 5.179688 10.839844 C 3.894531 9.5625 3.628906 7.582031 4.53125 6.007812 C 5.433594 4.4375 7.277344 3.667969 9.03125 4.136719 C 10.78125 4.601562 12 6.1875 12 8 L 12 8.667969 C 12 9.035156 11.703125 9.332031 11.332031 9.332031 C 10.964844 9.332031 10.667969 9.035156 10.667969 8.667969 L 10.667969 6 L 9.765625 6 C 8.6875 5.050781 7.050781 5.125 6.0625 6.167969 C 5.074219 7.210938 5.09375 8.851562 6.101562 9.875 C 7.113281 10.894531 8.75 10.933594 9.808594 9.960938 C 10.351562 10.601562 11.234375 10.832031 12.023438 10.542969 C 12.808594 10.253906 13.332031 9.503906 13.332031 8.667969 Z M 8 6.667969 C 8.738281 6.667969 9.332031 7.261719 9.332031 8 C 9.332031 8.738281 8.738281 9.332031 8 9.332031 C 7.261719 9.332031 6.667969 8.738281 6.667969 8 C 6.667969 7.261719 7.261719 6.667969 8 6.667969 Z M 8 6.667969 "/>
</g>
</svg>
