<?xml version="1.0" encoding="UTF-8"?>
<svg xmlns="http://www.w3.org/2000/svg" xmlns:xlink="http://www.w3.org/1999/xlink" width="16" height="16" viewBox="0 0 16 16" version="1.1">
<g id="surface1">
<path style=" stroke:none;fill-rule:nonzero;fill:rgb(0%,0%,0%);fill-opacity:1;" d="M 13.332031 8 C 13.332031 5.554688 11.667969 3.421875 9.296875 2.828125 C 6.925781 2.234375 4.453125 3.328125 3.296875 5.484375 C 2.144531 7.640625 2.605469 10.304688 4.414062 11.949219 C 6.226562 13.59375 8.921875 13.792969 10.957031 12.4375 L 11.699219 13.546875 C 10.605469 14.277344 9.316406 14.667969 8 14.667969 C 4.316406 14.667969 1.332031 11.683594 1.332031 8 C 1.332031 4.316406 4.316406 1.332031 8 1.332031 C 11.683594 1.332031 14.667969 4.316406 14.667969 8 L 14.667969 9 C 14.667969 10.023438 14 10.929688 13.019531 11.230469 C 12.039062 11.53125 10.976562 11.160156 10.402344 10.3125 C 9.164062 11.597656 7.128906 11.679688 5.789062 10.496094 C 4.453125 9.308594 4.285156 7.277344 5.417969 5.894531 C 6.546875 4.507812 8.570312 4.261719 10 5.332031 L 11.332031 5.332031 L 11.332031 9 C 11.332031 9.550781 11.78125 10 12.332031 10 C 12.886719 10 13.332031 9.550781 13.332031 9 Z M 8 6 C 6.894531 6 6 6.894531 6 8 C 6 9.105469 6.894531 10 8 10 C 9.105469 10 10 9.105469 10 8 C 10 6.894531 9.105469 6 8 6 Z M 8 6 "/>
</g>
</svg>
