<?xml version="1.0" encoding="UTF-8"?>
<svg xmlns="http://www.w3.org/2000/svg" xmlns:xlink="http://www.w3.org/1999/xlink" width="16" height="16" viewBox="0 0 16 16" version="1.1">
<g id="surface1">
<path style=" stroke:none;fill-rule:nonzero;fill:rgb(0%,0%,0%);fill-opacity:1;" d="M 11.332031 10.164062 L 11.332031 14.746094 C 11.332031 14.863281 11.269531 14.976562 11.164062 15.035156 C 11.058594 15.09375 10.933594 15.09375 10.828125 15.03125 L 8 13.332031 L 5.171875 15.03125 C 5.066406 15.09375 4.941406 15.09375 4.835938 15.035156 C 4.730469 14.976562 4.667969 14.863281 4.667969 14.742188 L 4.667969 10.164062 C 2.898438 8.75 2.21875 6.371094 2.96875 4.234375 C 3.71875 2.097656 5.734375 0.667969 8 0.667969 C 10.265625 0.667969 12.28125 2.097656 13.03125 4.234375 C 13.78125 6.371094 13.101562 8.75 11.332031 10.164062 Z M 6 10.945312 L 6 12.980469 L 8 11.777344 L 10 12.980469 L 10 10.945312 C 9.363281 11.203125 8.683594 11.335938 8 11.332031 C 7.316406 11.335938 6.636719 11.203125 6 10.945312 Z M 8 10 C 10.210938 10 12 8.210938 12 6 C 12 3.789062 10.210938 2 8 2 C 5.789062 2 4 3.789062 4 6 C 4 8.210938 5.789062 10 8 10 Z M 8 10 "/>
</g>
</svg>
