<?xml version="1.0" encoding="UTF-8"?>
<svg xmlns="http://www.w3.org/2000/svg" xmlns:xlink="http://www.w3.org/1999/xlink" width="16" height="16" viewBox="0 0 16 16" version="1.1">
<g id="surface1">
<path style=" stroke:none;fill-rule:nonzero;fill:rgb(0%,0%,0%);fill-opacity:1;" d="M 9.332031 1.332031 C 9.703125 1.332031 10 1.632812 10 2 L 10 2.667969 L 12 2.667969 C 12.367188 2.667969 12.667969 2.964844 12.667969 3.332031 L 12.667969 7.464844 L 10 5.332031 L 10 7.332031 L 9.332031 7.332031 C 7.90625 7.332031 6.667969 8.527344 6.667969 10 L 6.667969 12 L 8 12 L 8 10 C 8 9.300781 8.632812 8.667969 9.332031 8.667969 L 10 8.667969 L 10 10.667969 L 12.667969 8.535156 L 12.667969 14 C 12.667969 14.367188 12.367188 14.667969 12 14.667969 L 4 14.667969 C 3.632812 14.667969 3.332031 14.367188 3.332031 14 L 3.332031 3.332031 C 3.332031 2.964844 3.632812 2.667969 4 2.667969 L 6 2.667969 L 6 2 C 6 1.632812 6.296875 1.332031 6.667969 1.332031 Z M 9.332031 1.332031 "/>
</g>
</svg>
