<?xml version="1.0" encoding="UTF-8"?>
<svg xmlns="http://www.w3.org/2000/svg" xmlns:xlink="http://www.w3.org/1999/xlink" width="16" height="16" viewBox="0 0 16 16" version="1.1">
<g id="surface1">
<path style=" stroke:none;fill-rule:nonzero;fill:rgb(0%,0%,0%);fill-opacity:1;" d="M 11.667969 1.332031 C 12.917969 1.332031 14.039062 2.109375 14.476562 3.28125 C 14.914062 4.457031 14.578125 5.777344 13.632812 6.597656 C 13.871094 7.242188 14 7.941406 14 8.667969 C 14 11.0625 12.570312 13.230469 10.371094 14.175781 C 8.167969 15.121094 5.613281 14.667969 3.875 13.019531 C 2.136719 11.371094 1.542969 8.847656 2.367188 6.597656 C 1.472656 5.824219 1.121094 4.59375 1.464844 3.464844 C 1.804688 2.332031 2.78125 1.507812 3.953125 1.359375 C 5.125 1.207031 6.277344 1.761719 6.894531 2.769531 C 7.625 2.632812 8.375 2.632812 9.105469 2.769531 C 9.652344 1.875 10.621094 1.332031 11.667969 1.332031 Z M 6.667969 8.667969 L 5.332031 8.667969 C 5.332031 10.113281 6.488281 11.296875 7.933594 11.332031 C 9.378906 11.367188 10.589844 10.246094 10.664062 8.800781 L 10.667969 8.667969 L 9.332031 8.667969 C 9.335938 9.386719 8.769531 9.976562 8.050781 10.003906 C 7.332031 10.03125 6.722656 9.484375 6.671875 8.765625 Z M 6.667969 8.667969 "/>
</g>
</svg>
