<?xml version="1.0" encoding="UTF-8"?>
<svg xmlns="http://www.w3.org/2000/svg" xmlns:xlink="http://www.w3.org/1999/xlink" width="16" height="16" viewBox="0 0 16 16" version="1.1">
<g id="surface1">
<path style=" stroke:none;fill-rule:nonzero;fill:rgb(0%,0%,0%);fill-opacity:1;" d="M 4.960938 3.566406 C 5.386719 3.566406 5.78125 3.601562 6.140625 3.699219 C 6.46875 3.757812 6.78125 3.882812 7.058594 4.0625 C 7.324219 4.226562 7.519531 4.457031 7.648438 4.753906 C 7.78125 5.050781 7.847656 5.414062 7.847656 5.808594 C 7.847656 6.269531 7.75 6.667969 7.519531 6.964844 C 7.324219 7.261719 6.996094 7.523438 6.601562 7.722656 C 7.160156 7.886719 7.585938 8.183594 7.847656 8.578125 C 8.109375 8.976562 8.273438 9.46875 8.273438 10.03125 C 8.273438 10.492188 8.175781 10.886719 8.011719 11.21875 C 7.847656 11.546875 7.585938 11.84375 7.289062 12.042969 C 6.96875 12.253906 6.613281 12.410156 6.242188 12.503906 C 5.847656 12.601562 5.453125 12.667969 5.0625 12.667969 L 0.667969 12.667969 L 0.667969 3.566406 Z M 4.699219 7.261719 C 5.058594 7.261719 5.355469 7.160156 5.585938 6.996094 C 5.8125 6.832031 5.914062 6.535156 5.914062 6.171875 C 5.914062 5.972656 5.878906 5.777344 5.8125 5.644531 C 5.75 5.511719 5.648438 5.414062 5.519531 5.316406 C 5.386719 5.25 5.257812 5.183594 5.09375 5.148438 C 4.929688 5.117188 4.765625 5.117188 4.566406 5.117188 L 2.667969 5.117188 L 2.667969 7.261719 Z M 4.796875 11.152344 C 4.996094 11.152344 5.191406 11.117188 5.355469 11.085938 C 5.519531 11.054688 5.675781 10.988281 5.8125 10.886719 C 5.949219 10.792969 6.058594 10.667969 6.140625 10.523438 C 6.207031 10.359375 6.273438 10.164062 6.273438 9.933594 C 6.273438 9.46875 6.140625 9.140625 5.878906 8.910156 C 5.617188 8.710938 5.257812 8.613281 4.832031 8.613281 L 2.667969 8.613281 L 2.667969 11.152344 Z M 11.125 11.117188 C 11.386719 11.382812 11.78125 11.515625 12.304688 11.515625 C 12.667969 11.515625 12.996094 11.414062 13.257812 11.25 C 13.519531 11.054688 13.683594 10.855469 13.75 10.65625 L 15.355469 10.65625 C 15.09375 11.449219 14.699219 12.007812 14.175781 12.371094 C 13.648438 12.703125 13.027344 12.898438 12.273438 12.898438 C 11.789062 12.902344 11.3125 12.8125 10.863281 12.636719 C 10.460938 12.484375 10.097656 12.234375 9.8125 11.910156 C 9.507812 11.605469 9.285156 11.234375 9.160156 10.820312 C 8.996094 10.394531 8.929688 9.933594 8.929688 9.402344 C 8.929688 8.910156 8.996094 8.449219 9.160156 8.019531 C 9.316406 7.605469 9.550781 7.226562 9.847656 6.898438 C 10.140625 6.601562 10.503906 6.335938 10.894531 6.171875 C 11.332031 5.996094 11.800781 5.90625 12.273438 5.90625 C 12.832031 5.90625 13.324219 6.007812 13.75 6.238281 C 14.175781 6.46875 14.503906 6.734375 14.765625 7.128906 C 15.035156 7.507812 15.234375 7.933594 15.355469 8.382812 C 15.421875 8.84375 15.453125 9.304688 15.421875 9.832031 L 10.667969 9.832031 C 10.667969 10.359375 10.863281 10.855469 11.125 11.121094 Z M 13.191406 7.65625 C 12.960938 7.425781 12.601562 7.292969 12.175781 7.292969 C 11.878906 7.292969 11.648438 7.359375 11.453125 7.457031 C 11.257812 7.558594 11.125 7.6875 10.996094 7.820312 C 10.875 7.949219 10.792969 8.109375 10.765625 8.28125 C 10.730469 8.449219 10.699219 8.578125 10.699219 8.710938 L 13.648438 8.710938 C 13.585938 8.214844 13.421875 7.886719 13.191406 7.65625 Z M 10.304688 4.191406 L 13.976562 4.191406 L 13.976562 5.085938 L 10.308594 5.085938 L 10.308594 4.191406 Z M 10.304688 4.191406 "/>
</g>
</svg>
