<?xml version="1.0" encoding="UTF-8"?>
<svg xmlns="http://www.w3.org/2000/svg" xmlns:xlink="http://www.w3.org/1999/xlink" width="16" height="16" viewBox="0 0 16 16" version="1.1">
<g id="surface1">
<path style=" stroke:none;fill-rule:nonzero;fill:rgb(0%,0%,0%);fill-opacity:1;" d="M 8 0 C 7.308594 0 6.75 0.558594 6.75 1.25 C 6.75 1.375 6.765625 1.503906 6.804688 1.625 C 6.609375 1.664062 6.421875 1.714844 6.234375 1.773438 L 12.5 10.125 L 12.5 5.03125 C 12.5 3.097656 10.976562 1.972656 9.1875 1.625 C 9.226562 1.503906 9.25 1.375 9.25 1.25 C 9.25 0.558594 8.6875 0 8 0 Z M 3.5 5.875 C 3.5 8.886719 3.5 10.175781 3.5 10.175781 L 1.5 13 L 8.839844 13 Z M 6 14 C 6 14.714844 6.378906 15.375 7 15.734375 C 7.617188 16.089844 8.378906 16.089844 9 15.734375 C 9.472656 15.457031 9.8125 15 9.941406 14.46875 L 9.589844 14 Z M 6 14 "/>
<path style=" stroke:none;fill-rule:nonzero;fill:rgb(0%,0%,0%);fill-opacity:1;" d="M 1.316406 0 L 12.839844 16 L 14.6875 16 L 3.164062 0 Z M 1.316406 0 "/>
</g>
</svg>
