<?xml version="1.0" encoding="UTF-8"?>
<svg xmlns="http://www.w3.org/2000/svg" xmlns:xlink="http://www.w3.org/1999/xlink" width="16" height="16" viewBox="0 0 16 16" version="1.1">
<g id="surface1">
<path style=" stroke:none;fill-rule:nonzero;fill:rgb(0%,0%,0%);fill-opacity:1;" d="M 8 0 C 7.3125 0 6.75 0.558594 6.75 1.25 C 6.75 1.375 6.769531 1.503906 6.808594 1.625 C 5.023438 1.972656 3.5 3.097656 3.5 5.03125 C 3.5 5.085938 3.5 5.140625 3.5 5.195312 C 3.507812 9.726562 3.5 10.175781 3.5 10.175781 L 1.5 13 L 14.5 13 L 12.5 10.175781 L 12.5 5.03125 C 12.5 3.097656 10.976562 1.972656 9.191406 1.625 C 9.230469 1.503906 9.25 1.375 9.25 1.25 C 9.25 0.558594 8.6875 0 8 0 Z M 6 14 C 6 14.714844 6.382812 15.375 7 15.734375 C 7.617188 16.089844 8.382812 16.089844 9 15.734375 C 9.617188 15.375 10 14.714844 10 14 Z M 6 14 "/>
</g>
</svg>
