<?xml version="1.0" encoding="UTF-8"?>
<svg xmlns="http://www.w3.org/2000/svg" xmlns:xlink="http://www.w3.org/1999/xlink" width="16" height="16" viewBox="0 0 16 16" version="1.1">
<g id="surface1">
<path style=" stroke:none;fill-rule:evenodd;fill:rgb(0%,0%,0%);fill-opacity:1;" d="M 5.234375 0.945312 C 5.070312 1.070312 4.914062 1.203125 4.765625 1.351562 C 3.59375 2.523438 3.148438 4.234375 3.601562 5.828125 C 1.5 6.289062 0.00390625 8.148438 0 10.296875 C 0 10.5 0.015625 10.703125 0.0429688 10.90625 C 0.304688 9.242188 1.742188 8.011719 3.429688 8.007812 C 5.320312 8.007812 6.859375 9.546875 6.859375 11.4375 C 6.859375 13.128906 5.628906 14.5625 3.960938 14.828125 C 4.164062 14.851562 4.367188 14.867188 4.570312 14.867188 C 5.84375 14.867188 7.054688 14.339844 7.917969 13.410156 C 8.785156 14.453125 10.070312 15.054688 11.429688 15.054688 C 11.875 15.054688 12.3125 14.992188 12.742188 14.859375 C 12.683594 14.867188 12.628906 14.867188 12.570312 14.867188 C 10.679688 14.867188 9.140625 13.335938 9.140625 11.4375 C 9.140625 9.546875 10.679688 8.007812 12.570312 8.007812 C 14.296875 8.011719 15.75 9.289062 15.96875 11 C 15.992188 10.828125 16 10.65625 16 10.484375 C 16 8.3125 14.46875 6.441406 12.34375 6.007812 C 12.882812 4.367188 12.453125 2.570312 11.234375 1.351562 C 11.085938 1.203125 10.929688 1.070312 10.765625 0.945312 C 11.761719 2.3125 11.617188 4.195312 10.421875 5.390625 C 9.085938 6.726562 6.914062 6.726562 5.578125 5.390625 C 4.382812 4.195312 4.234375 2.308594 5.234375 0.945312 Z M 8 7.351562 C 8.554688 7.351562 9 7.804688 9 8.351562 C 9 8.90625 8.554688 9.351562 8 9.351562 C 7.445312 9.351562 7 8.90625 7 8.351562 C 7 7.804688 7.445312 7.351562 8 7.351562 Z M 8 7.351562 "/>
<path style=" stroke:none;fill-rule:evenodd;fill:rgb(0%,0%,0%);fill-opacity:1;" d="M 8.042969 3.734375 C 7.761719 3.734375 7.476562 3.757812 7.195312 3.816406 L 7.1875 3.816406 C 6.742188 3.890625 6.332031 4.046875 5.945312 4.25 C 6.042969 4.414062 6.15625 4.578125 6.300781 4.71875 C 6.421875 4.835938 6.546875 4.945312 6.679688 5.03125 C 6.679688 5.03125 6.683594 5.03125 6.683594 5.03125 C 6.898438 4.945312 7.125 4.871094 7.359375 4.835938 C 7.367188 4.832031 7.371094 4.828125 7.378906 4.828125 C 8.027344 4.695312 8.703125 4.789062 9.320312 5.050781 C 9.464844 4.957031 9.605469 4.847656 9.734375 4.71875 C 9.875 4.578125 9.984375 4.429688 10.078125 4.265625 C 9.453125 3.9375 8.757812 3.738281 8.042969 3.734375 Z M 4.609375 5.734375 C 4.679688 6.25 4.34375 6.734375 3.832031 6.84375 C 3.773438 6.855469 3.734375 6.890625 3.6875 6.925781 C 3.671875 6.976562 3.65625 7.023438 3.640625 7.070312 C 4 7.085938 4.34375 7.15625 4.667969 7.265625 C 4.773438 6.9375 4.929688 6.625 5.125 6.339844 C 5.042969 6.273438 4.960938 6.207031 4.886719 6.132812 C 4.765625 6.015625 4.710938 5.859375 4.609375 5.734375 Z M 11.398438 5.765625 C 11.304688 5.882812 11.257812 6.023438 11.148438 6.132812 C 11.070312 6.210938 10.984375 6.28125 10.898438 6.351562 C 11.097656 6.640625 11.253906 6.957031 11.34375 7.296875 C 11.648438 7.203125 11.964844 7.128906 12.296875 7.105469 C 12.242188 7.09375 12.21875 7.035156 12.164062 7.023438 C 11.890625 6.96875 11.648438 6.800781 11.507812 6.5625 C 11.359375 6.324219 11.324219 6.035156 11.398438 5.765625 Z M 3.578125 9.0625 C 3.796875 10.382812 4.632812 11.515625 5.765625 12.171875 C 5.828125 11.949219 5.875 11.71875 5.875 11.476562 C 5.875 11.289062 5.851562 11.109375 5.8125 10.929688 C 5.320312 10.527344 4.929688 10 4.71875 9.410156 C 4.382812 9.203125 3.996094 9.082031 3.578125 9.0625 Z M 12.449219 9.0625 C 12.011719 9.085938 11.609375 9.21875 11.265625 9.4375 C 11.054688 9.992188 10.695312 10.484375 10.242188 10.875 C 10.195312 11.070312 10.160156 11.265625 10.160156 11.476562 C 10.160156 11.710938 10.203125 11.929688 10.261719 12.140625 C 11.382812 11.484375 12.21875 10.359375 12.449219 9.0625 Z M 7.84375 11.722656 C 7.8125 11.980469 7.75 12.226562 7.691406 12.476562 C 7.921875 12.421875 8.164062 12.445312 8.378906 12.550781 C 8.308594 12.277344 8.230469 12.007812 8.195312 11.722656 C 8.152344 11.726562 8.113281 11.734375 8.070312 11.734375 C 8.0625 11.734375 8.058594 11.734375 8.050781 11.734375 C 7.984375 11.738281 7.914062 11.726562 7.84375 11.722656 Z M 7.84375 11.722656 "/>
</g>
</svg>
