<?xml version="1.0" encoding="UTF-8"?>
<svg xmlns="http://www.w3.org/2000/svg" xmlns:xlink="http://www.w3.org/1999/xlink" width="16" height="16" viewBox="0 0 16 16" version="1.1">
<g id="surface1">
<path style=" stroke:none;fill-rule:nonzero;fill:rgb(0%,0%,0%);fill-opacity:1;" d="M 5.332031 7.332031 L 8.332031 7.332031 C 9.253906 7.332031 10 6.585938 10 5.667969 C 10 4.746094 9.253906 4 8.332031 4 L 5.332031 4 Z M 12 10.332031 C 12 11.988281 10.65625 13.332031 9 13.332031 L 4 13.332031 L 4 2.667969 L 8.332031 2.667969 C 9.535156 2.667969 10.617188 3.382812 11.089844 4.484375 C 11.5625 5.589844 11.332031 6.867188 10.503906 7.738281 C 11.429688 8.273438 12 9.261719 12 10.332031 Z M 5.332031 8.667969 L 5.332031 12 L 9 12 C 9.921875 12 10.667969 11.253906 10.667969 10.332031 C 10.667969 9.414062 9.921875 8.667969 9 8.667969 Z M 5.332031 8.667969 "/>
</g>
</svg>
