<?xml version="1.0" encoding="UTF-8"?>
<svg xmlns="http://www.w3.org/2000/svg" xmlns:xlink="http://www.w3.org/1999/xlink" width="16" height="16" viewBox="0 0 16 16" version="1.1">
<g id="surface1">
<path style=" stroke:none;fill-rule:nonzero;fill:rgb(0%,0%,0%);fill-opacity:1;" d="M 4.148438 0.992188 L 3.367188 8.007812 C 3.34375 8.257812 3.421875 8.511719 3.59375 8.703125 C 3.761719 8.890625 4.003906 9 4.257812 9 L 7.257812 9 L 6.257812 16 L 12.515625 6.164062 C 12.664062 5.929688 12.675781 5.632812 12.542969 5.390625 C 12.410156 5.148438 12.15625 5 11.878906 5 L 8.257812 5 L 9.886719 0.929688 C 9.96875 0.71875 9.945312 0.484375 9.820312 0.296875 C 9.695312 0.109375 9.484375 0 9.257812 0 L 5.257812 0 C 4.6875 0 4.210938 0.429688 4.148438 0.992188 Z M 4.148438 0.992188 "/>
</g>
</svg>
