<?xml version="1.0" encoding="UTF-8"?>
<svg xmlns="http://www.w3.org/2000/svg" xmlns:xlink="http://www.w3.org/1999/xlink" width="16" height="16" viewBox="0 0 16 16" version="1.1">
<g id="surface1">
<path style=" stroke:none;fill-rule:nonzero;fill:rgb(0%,0%,0%);fill-opacity:1;" d="M 2.929688 0.00390625 C 2.328125 0.00390625 1.8125 0.261719 1.484375 0.648438 C 1.167969 1.011719 1.015625 1.472656 1.003906 1.9375 C 1 1.953125 1 1.976562 1 1.996094 C 1 2 1 2 1 2.007812 L 1 14.007812 C 1 14.046875 0.992188 14.085938 0.992188 14.121094 C 1.015625 14.59375 1.179688 15.0625 1.511719 15.421875 C 1.84375 15.78125 2.347656 15.996094 2.929688 15.996094 L 14.515625 15.996094 C 14.789062 15.992188 15.003906 15.777344 15.007812 15.507812 C 15.007812 15.234375 14.789062 15.015625 14.515625 15.015625 L 13.492188 15.015625 L 13.492188 13.003906 L 14.519531 13.003906 C 14.78125 13 14.992188 12.78125 14.996094 12.507812 L 14.996094 0.507812 C 15 0.234375 14.785156 0.0078125 14.519531 0.00390625 Z M 4.503906 2.996094 L 11.5 2.996094 C 11.632812 2.992188 11.765625 3.046875 11.859375 3.140625 C 11.953125 3.234375 12.003906 3.363281 12.003906 3.5 C 12.003906 3.632812 11.953125 3.757812 11.859375 3.851562 C 11.765625 3.949219 11.632812 4 11.5 4 L 4.503906 4 C 4.371094 4 4.242188 3.949219 4.148438 3.851562 C 4.054688 3.757812 4 3.632812 4 3.5 C 4 3.363281 4.054688 3.234375 4.148438 3.140625 C 4.242188 3.046875 4.371094 2.992188 4.503906 2.996094 Z M 4.503906 5 L 11.5 5 C 11.632812 4.996094 11.765625 5.046875 11.859375 5.144531 C 11.953125 5.238281 12.003906 5.367188 12.003906 5.5 C 12.003906 5.632812 11.953125 5.757812 11.859375 5.855469 C 11.765625 5.949219 11.632812 6 11.5 6 L 4.503906 6 C 4.371094 6 4.242188 5.949219 4.148438 5.855469 C 4.054688 5.757812 4 5.632812 4 5.5 C 4 5.367188 4.054688 5.238281 4.148438 5.144531 C 4.242188 5.046875 4.371094 4.996094 4.503906 5 Z M 2.929688 13.003906 L 12.507812 13.003906 L 12.507812 15.015625 L 2.929688 15.015625 C 2.578125 15.015625 2.382812 14.90625 2.234375 14.75 C 2.085938 14.585938 1.992188 14.34375 1.976562 14.070312 C 1.960938 13.8125 2.039062 13.53125 2.195312 13.332031 C 2.347656 13.140625 2.5625 13.003906 2.929688 13.003906 Z M 2.929688 13.003906 "/>
</g>
</svg>
