<?xml version="1.0" encoding="UTF-8"?>
<svg xmlns="http://www.w3.org/2000/svg" xmlns:xlink="http://www.w3.org/1999/xlink" width="16" height="16" viewBox="0 0 16 16" version="1.1">
<g id="surface1">
<path style=" stroke:none;fill-rule:nonzero;fill:rgb(0%,0%,0%);fill-opacity:1;" d="M 7.484375 1.40625 C 7.464844 1.40625 7.449219 1.410156 7.429688 1.414062 C 7.398438 1.414062 7.359375 1.421875 7.328125 1.433594 L 2.300781 3.292969 C 2.144531 3.351562 2.039062 3.5 2.042969 3.671875 L 2.023438 12.179688 C 2.019531 12.359375 2.132812 12.515625 2.300781 12.566406 L 8.863281 14.574219 C 8.972656 14.609375 9.09375 14.59375 9.1875 14.539062 L 13.78125 11.84375 C 13.902344 11.769531 13.976562 11.640625 13.976562 11.496094 L 13.949219 2.789062 C 13.945312 2.59375 13.804688 2.429688 13.609375 2.398438 L 7.535156 1.414062 C 7.515625 1.410156 7.5 1.40625 7.484375 1.40625 Z M 7.507812 2.21875 L 9.109375 2.476562 C 8.726562 2.644531 8.640625 2.683594 8.15625 2.894531 C 7.601562 3.132812 7.039062 3.378906 6.597656 3.566406 C 6.375 3.660156 6.179688 3.738281 6.039062 3.796875 C 5.890625 3.855469 5.765625 3.898438 5.785156 3.890625 L 5.789062 3.898438 L 3.933594 3.546875 Z M 10.578125 2.714844 L 12.132812 2.96875 L 8.976562 4.503906 L 7.21875 4.171875 C 7.613281 4.003906 8.03125 3.824219 8.472656 3.632812 C 9.546875 3.164062 10.523438 2.738281 10.578125 2.714844 Z M 13.152344 3.359375 L 13.179688 11.273438 L 9.3125 13.539062 L 9.3125 5.234375 Z M 2.839844 4.148438 L 5.335938 4.625 L 5.335938 6.386719 L 6.328125 6.683594 L 6.328125 4.8125 L 8.515625 5.234375 L 8.515625 13.632812 L 2.820312 11.886719 Z M 2.839844 4.148438 "/>
</g>
</svg>
