<?xml version="1.0" encoding="UTF-8"?>
<svg xmlns="http://www.w3.org/2000/svg" xmlns:xlink="http://www.w3.org/1999/xlink" width="16" height="16" viewBox="0 0 16 16" version="1.1">
<g id="surface1">
<path style=" stroke:none;fill-rule:nonzero;fill:rgb(0%,0%,0%);fill-opacity:1;" d="M 5.636719 13.546875 C 3.828125 12.96875 2.3125 12.476562 2.265625 12.441406 C 2.089844 12.320312 2.09375 12.367188 2.09375 9.828125 L 2.09375 7.5 L 1.179688 7.253906 C 0.660156 7.117188 0.226562 6.984375 0.171875 6.945312 C 0.046875 6.859375 -0.0234375 6.671875 0.015625 6.519531 C 0.046875 6.390625 2.15625 3.375 2.25 3.320312 C 2.285156 3.304688 3.421875 2.863281 4.78125 2.34375 C 6.445312 1.710938 7.289062 1.40625 7.371094 1.40625 C 7.4375 1.40625 8.785156 1.601562 10.367188 1.84375 C 11.945312 2.085938 13.351562 2.296875 13.492188 2.3125 C 13.632812 2.328125 13.78125 2.367188 13.824219 2.394531 C 13.910156 2.453125 15.902344 5.386719 15.96875 5.550781 C 16.019531 5.6875 15.992188 5.84375 15.898438 5.960938 C 15.851562 6.019531 15.554688 6.1875 15.015625 6.453125 L 14.203125 6.855469 L 14.1875 9.222656 C 14.179688 10.929688 14.164062 11.609375 14.140625 11.65625 C 14.117188 11.695312 14.070312 11.75 14.03125 11.789062 C 13.988281 11.828125 12.882812 12.476562 11.578125 13.226562 C 9.421875 14.46875 9.183594 14.597656 9.0625 14.59375 C 8.976562 14.59375 7.671875 14.195312 5.640625 13.546875 Z M 8.65625 9.976562 L 8.65625 6.328125 L 7.914062 7.480469 C 7.507812 8.113281 7.132812 8.660156 7.085938 8.695312 C 7.03125 8.738281 6.957031 8.757812 6.867188 8.753906 C 6.796875 8.75 5.875 8.515625 4.828125 8.234375 L 2.921875 7.71875 L 2.914062 9.75 C 2.910156 10.867188 2.910156 11.789062 2.914062 11.792969 C 2.929688 11.804688 8.585938 13.613281 8.632812 13.617188 C 8.648438 13.621094 8.65625 11.984375 8.65625 9.976562 Z M 11.4375 12.34375 L 13.359375 11.234375 L 13.367188 9.257812 C 13.375 8.171875 13.367188 7.289062 13.359375 7.289062 C 13.351562 7.289062 12.742188 7.585938 12.007812 7.953125 C 10.578125 8.664062 10.527344 8.683594 10.328125 8.558594 C 10.25 8.507812 10.171875 8.367188 9.90625 7.789062 C 9.734375 7.394531 9.5625 7.023438 9.53125 6.960938 C 9.476562 6.851562 9.472656 6.933594 9.46875 10.15625 C 9.46875 11.972656 9.476562 13.460938 9.492188 13.460938 C 9.503906 13.457031 10.382812 12.957031 11.4375 12.34375 Z M 7.53125 6.574219 C 7.984375 5.859375 8.359375 5.265625 8.351562 5.25 C 8.34375 5.226562 2.652344 4.125 2.640625 4.140625 C 2.632812 4.148438 2.285156 4.644531 1.859375 5.25 C 1.4375 5.855469 1.09375 6.351562 1.097656 6.359375 C 1.105469 6.367188 6.652344 7.867188 6.6875 7.867188 C 6.695312 7.867188 7.078125 7.289062 7.53125 6.574219 Z M 12.898438 6.578125 C 14.039062 6.011719 14.96875 5.53125 14.960938 5.511719 C 14.960938 5.492188 14.625 4.984375 14.21875 4.382812 C 13.636719 3.511719 13.476562 3.289062 13.429688 3.304688 C 13.300781 3.335938 9.625 5.125 9.625 5.15625 C 9.625 5.175781 9.875 5.742188 10.179688 6.417969 C 10.605469 7.359375 10.746094 7.640625 10.78125 7.625 C 10.808594 7.617188 11.757812 7.144531 12.898438 6.578125 Z M 10.609375 3.726562 C 11.914062 3.097656 12.140625 2.976562 12.070312 2.960938 C 12.023438 2.945312 10.953125 2.78125 9.695312 2.585938 L 7.40625 2.242188 L 5.710938 2.882812 C 4.78125 3.242188 4.039062 3.539062 4.0625 3.546875 C 4.179688 3.585938 8.902344 4.484375 8.976562 4.480469 C 9.023438 4.476562 9.757812 4.140625 10.609375 3.726562 Z M 10.609375 3.726562 "/>
</g>
</svg>
