<?xml version="1.0" encoding="UTF-8"?>
<svg xmlns="http://www.w3.org/2000/svg" xmlns:xlink="http://www.w3.org/1999/xlink" width="16" height="16" viewBox="0 0 16 16" version="1.1">
<g id="surface1">
<path style=" stroke:none;fill-rule:nonzero;fill:rgb(0%,0%,0%);fill-opacity:1;" d="M 6.332031 7.332031 L 6.429688 7.339844 C 6.90625 7.382812 7.285156 7.761719 7.328125 8.238281 L 7.332031 8.332031 L 7.328125 8.429688 C 7.28125 8.90625 6.90625 9.285156 6.429688 9.328125 L 6.332031 9.332031 L 4 9.332031 L 4 10.667969 L 6.332031 10.667969 C 7.464844 10.667969 8.410156 9.859375 8.621094 8.789062 L 8.644531 8.667969 L 12.667969 8.667969 C 13.140625 8.667969 13.59375 8.566406 14 8.390625 L 14 11.332031 C 14 12.179688 13.464844 12.9375 12.667969 13.21875 L 12.667969 14 C 12.667969 14.367188 12.367188 14.667969 12 14.667969 L 4 14.667969 C 3.632812 14.667969 3.332031 14.367188 3.332031 14 L 3.332031 13.21875 C 2.535156 12.9375 2 12.179688 2 11.332031 L 2 8.667969 C 2 7.929688 2.597656 7.332031 3.332031 7.332031 Z M 14.667969 5 L 14.667969 5.332031 L 14.664062 5.449219 C 14.605469 6.464844 13.796875 7.269531 12.785156 7.328125 L 12.667969 7.332031 L 8.441406 7.332031 C 8.078125 6.5625 7.320312 6.054688 6.472656 6.003906 L 6.332031 6 L 3.332031 6 C 2.847656 6 2.390625 6.128906 2 6.355469 L 2 4 C 2 2.527344 3.195312 1.332031 4.667969 1.332031 L 11 1.332031 C 13.023438 1.332031 14.667969 2.976562 14.667969 5 Z M 14.667969 5 "/>
</g>
</svg>
