<?xml version="1.0" encoding="UTF-8"?>
<svg xmlns="http://www.w3.org/2000/svg" xmlns:xlink="http://www.w3.org/1999/xlink" width="16" height="16" viewBox="0 0 16 16" version="1.1">
<g id="surface1">
<path style=" stroke:none;fill-rule:nonzero;fill:rgb(0%,0%,0%);fill-opacity:1;" d="M 14.757812 0.21875 C 14.617188 0.21875 14.484375 0.285156 14.398438 0.394531 L 11.847656 3.652344 L 11.828125 3.679688 L 11.804688 3.652344 C 11.71875 3.539062 11.578125 3.472656 11.429688 3.476562 C 11.289062 3.476562 11.160156 3.542969 11.074219 3.652344 L 10.664062 4.179688 L 10.25 3.652344 C 10.03125 3.367188 9.8125 3.164062 9.523438 3.058594 C 9.230469 2.957031 8.902344 3.015625 8.671875 3.140625 C 8.261719 3.363281 7.507812 4.1875 7.328125 4.390625 C 6.257812 5.179688 4.027344 6.023438 0.820312 5.507812 C 0.65625 5.480469 0.484375 5.542969 0.371094 5.671875 C 0.0390625 6.046875 -0.03125 6.546875 0.0078125 7.0625 C 0.046875 7.582031 0.203125 8.148438 0.4375 8.753906 C 0.90625 9.964844 1.703125 11.324219 2.667969 12.527344 C 3.632812 13.734375 4.765625 14.8125 5.9375 15.375 C 6.527344 15.660156 7.136719 15.816406 7.75 15.773438 C 8.359375 15.734375 8.960938 15.484375 9.460938 15 C 10.703125 13.808594 11.753906 11.699219 12.5 10.492188 C 12.5 10.492188 12.5 10.492188 12.5 10.488281 C 12.539062 10.453125 13.507812 9.578125 13.601562 9.074219 C 13.691406 8.5625 13.660156 8.046875 13.351562 7.648438 C 12.714844 6.960938 12.816406 6.914062 13.351562 6.21875 C 13.484375 6.054688 13.484375 5.820312 13.351562 5.648438 L 13.1875 5.4375 L 13.351562 5.21875 L 15.898438 1.960938 C 16.03125 1.796875 16.03125 1.5625 15.90625 1.390625 L 15.125 0.394531 C 15.039062 0.28125 14.898438 0.21875 14.757812 0.21875 Z M 7.058594 5.449219 L 7.058594 5.453125 L 11.554688 10.695312 L 11.570312 10.6875 C 10.953125 11.765625 9.84375 13.210938 8.75 14.261719 C 8.40625 14.59375 8.0625 14.730469 7.671875 14.757812 C 7.28125 14.78125 6.835938 14.683594 6.359375 14.453125 C 5.976562 14.269531 5.582031 13.992188 5.1875 13.664062 C 5.632812 13.476562 6.0625 13.226562 6.4375 12.9375 C 7.058594 12.476562 7.558594 11.960938 7.796875 11.40625 C 7.90625 11.148438 7.789062 10.859375 7.53125 10.75 C 7.460938 10.71875 7.386719 10.703125 7.3125 10.703125 C 7.117188 10.710938 6.953125 10.828125 6.875 11.007812 C 6.765625 11.265625 6.363281 11.75 5.84375 12.140625 C 5.386719 12.484375 4.84375 12.765625 4.351562 12.90625 C 4.039062 12.589844 3.738281 12.257812 3.453125 11.898438 C 3.140625 11.515625 2.859375 11.105469 2.589844 10.695312 C 3.277344 10.742188 3.882812 10.664062 4.402344 10.453125 C 5.179688 10.144531 5.757812 9.609375 6.265625 9.0625 C 6.445312 8.859375 6.433594 8.550781 6.234375 8.363281 C 6.148438 8.285156 6.039062 8.238281 5.921875 8.230469 C 5.773438 8.21875 5.628906 8.277344 5.523438 8.382812 C 5.0625 8.886719 4.601562 9.296875 4.03125 9.523438 C 3.5 9.738281 2.84375 9.800781 1.929688 9.585938 C 1.710938 9.171875 1.515625 8.769531 1.367188 8.390625 C 1.15625 7.851562 1.035156 7.359375 1.007812 6.992188 C 0.984375 6.703125 1.046875 6.585938 1.09375 6.476562 C 4 6.8125 5.976562 6.324219 7.058594 5.449219 Z M 7.058594 5.449219 "/>
</g>
</svg>
