<?xml version="1.0" encoding="UTF-8"?>
<svg xmlns="http://www.w3.org/2000/svg" xmlns:xlink="http://www.w3.org/1999/xlink" width="16" height="16" viewBox="0 0 16 16" version="1.1">
<g id="surface1">
<path style=" stroke:none;fill-rule:nonzero;fill:rgb(0%,0%,0%);fill-opacity:1;" d="M 10.667969 10.667969 C 11.769531 10.667969 12.667969 11.5625 12.667969 12.667969 C 12.667969 13.769531 11.769531 14.667969 10.667969 14.667969 C 9.5625 14.667969 8.667969 13.769531 8.667969 12.667969 C 8.667969 11.5625 9.5625 10.667969 10.667969 10.667969 Z M 4 8 C 5.472656 8 6.667969 9.191406 6.667969 10.667969 C 6.667969 12.140625 5.472656 13.332031 4 13.332031 C 2.527344 13.332031 1.332031 12.140625 1.332031 10.667969 C 1.332031 9.191406 2.527344 8 4 8 Z M 10.667969 12 C 10.296875 12 10 12.296875 10 12.667969 C 10 13.035156 10.296875 13.332031 10.667969 13.332031 C 11.035156 13.332031 11.332031 13.035156 11.332031 12.667969 C 11.332031 12.296875 11.035156 12 10.667969 12 Z M 4 9.332031 C 3.261719 9.332031 2.667969 9.929688 2.667969 10.667969 C 2.667969 11.402344 3.261719 12 4 12 C 4.738281 12 5.332031 11.402344 5.332031 10.667969 C 5.332031 9.929688 4.738281 9.332031 4 9.332031 Z M 9.667969 1.332031 C 11.691406 1.332031 13.332031 2.976562 13.332031 5 C 13.332031 7.023438 11.691406 8.667969 9.667969 8.667969 C 7.640625 8.667969 6 7.023438 6 5 C 6 2.976562 7.640625 1.332031 9.667969 1.332031 Z M 9.667969 2.667969 C 8.378906 2.667969 7.332031 3.710938 7.332031 5 C 7.332031 6.289062 8.378906 7.332031 9.667969 7.332031 C 10.957031 7.332031 12 6.289062 12 5 C 12 3.710938 10.957031 2.667969 9.667969 2.667969 Z M 9.667969 2.667969 "/>
</g>
</svg>
