<?xml version="1.0" encoding="UTF-8"?>
<svg xmlns="http://www.w3.org/2000/svg" xmlns:xlink="http://www.w3.org/1999/xlink" width="16" height="16" viewBox="0 0 16 16" version="1.1">
<g id="surface1">
<path style=" stroke:none;fill-rule:nonzero;fill:rgb(0%,0%,0%);fill-opacity:1;" d="M 2 12.667969 L 2 3.800781 C 2 3.519531 2.175781 3.269531 2.4375 3.171875 L 8.886719 0.828125 C 8.988281 0.792969 9.101562 0.808594 9.191406 0.871094 C 9.28125 0.933594 9.332031 1.035156 9.332031 1.144531 L 9.332031 4.445312 L 13.542969 5.847656 C 13.816406 5.9375 14 6.195312 14 6.480469 L 14 12.667969 L 15.332031 12.667969 L 15.332031 14 L 0.667969 14 L 0.667969 12.667969 Z M 3.332031 12.667969 L 8 12.667969 L 8 2.570312 L 3.332031 4.265625 Z M 12.667969 12.667969 L 12.667969 6.960938 L 9.332031 5.851562 L 9.332031 12.667969 Z M 12.667969 12.667969 "/>
</g>
</svg>
