<?xml version="1.0" encoding="UTF-8"?>
<svg xmlns="http://www.w3.org/2000/svg" xmlns:xlink="http://www.w3.org/1999/xlink" width="16" height="16" viewBox="0 0 16 16" version="1.1">
<g id="surface1">
<path style=" stroke:none;fill-rule:nonzero;fill:rgb(0%,0%,0%);fill-opacity:1;" d="M 8 2 L 8 3.332031 L 3.332031 3.332031 L 3.332031 9.332031 L 12.667969 9.332031 L 12.667969 8 L 14 8 L 14 13.332031 L 13.332031 13.332031 L 13.332031 14 C 13.332031 14.367188 13.035156 14.667969 12.667969 14.667969 L 12 14.667969 C 11.632812 14.667969 11.332031 14.367188 11.332031 14 L 11.332031 13.332031 L 4.667969 13.332031 L 4.667969 14 C 4.667969 14.367188 4.367188 14.667969 4 14.667969 L 3.332031 14.667969 C 2.964844 14.667969 2.667969 14.367188 2.667969 14 L 2.667969 13.332031 L 2 13.332031 L 2 8 L 1.332031 8 L 1.332031 5.332031 L 2 5.332031 L 2 3.332031 C 2 2.597656 2.597656 2 3.332031 2 Z M 6 10.667969 L 3.332031 10.667969 L 3.332031 12 L 6 12 Z M 12.667969 10.667969 L 10 10.667969 L 10 12 L 12.667969 12 Z M 12.332031 0.667969 C 13.988281 0.667969 15.332031 2.011719 15.332031 3.667969 C 15.332031 5.324219 13.988281 6.667969 12.332031 6.667969 C 10.675781 6.667969 9.332031 5.324219 9.332031 3.667969 C 9.332031 2.011719 10.675781 0.667969 12.332031 0.667969 Z M 12.332031 4.113281 C 12.007812 4.113281 11.707031 4.230469 11.472656 4.425781 L 11.390625 4.5 L 12.332031 5.445312 L 13.273438 4.5 C 13.027344 4.25 12.6875 4.109375 12.332031 4.113281 Z M 12.332031 2.332031 C 11.5625 2.332031 10.820312 2.617188 10.246094 3.136719 L 10.132812 3.246094 L 10.761719 3.875 C 11.179688 3.457031 11.742188 3.222656 12.332031 3.222656 C 12.875 3.222656 13.394531 3.417969 13.800781 3.773438 L 13.90625 3.875 L 14.535156 3.246094 C 13.949219 2.660156 13.160156 2.332031 12.332031 2.332031 Z M 12.332031 2.332031 "/>
</g>
</svg>
