<?xml version="1.0" encoding="UTF-8"?>
<svg xmlns="http://www.w3.org/2000/svg" xmlns:xlink="http://www.w3.org/1999/xlink" width="16" height="16" viewBox="0 0 16 16" version="1.1">
<g id="surface1">
<path style=" stroke:none;fill-rule:nonzero;fill:rgb(0%,0%,0%);fill-opacity:1;" d="M 11.332031 13.332031 L 4.667969 13.332031 L 4.667969 14 C 4.667969 14.367188 4.367188 14.667969 4 14.667969 L 3.332031 14.667969 C 2.964844 14.667969 2.667969 14.367188 2.667969 14 L 2.667969 13.332031 L 2 13.332031 L 2 8 L 1.332031 8 L 1.332031 5.332031 L 2 5.332031 L 2 3.332031 C 2 2.597656 2.597656 2 3.332031 2 L 12.667969 2 C 13.402344 2 14 2.597656 14 3.332031 L 14 5.332031 L 14.667969 5.332031 L 14.667969 8 L 14 8 L 14 13.332031 L 13.332031 13.332031 L 13.332031 14 C 13.332031 14.367188 13.035156 14.667969 12.667969 14.667969 L 12 14.667969 C 11.632812 14.667969 11.332031 14.367188 11.332031 14 Z M 3.332031 3.332031 L 3.332031 9.332031 L 12.667969 9.332031 L 12.667969 3.332031 Z M 3.332031 10.667969 L 3.332031 12 L 6 12 L 6 10.667969 Z M 10 10.667969 L 10 12 L 12.667969 12 L 12.667969 10.667969 Z M 10 10.667969 "/>
</g>
</svg>
