<?xml version="1.0" encoding="UTF-8"?>
<svg xmlns="http://www.w3.org/2000/svg" xmlns:xlink="http://www.w3.org/1999/xlink" width="16" height="16" viewBox="0 0 16 16" version="1.1">
<g id="surface1">
<path style=" stroke:none;fill-rule:evenodd;fill:rgb(0%,0%,0%);fill-opacity:1;" d="M 2.167969 1.988281 C 0.976562 1.988281 0 2.898438 0 4.007812 L 0 11.988281 C 0 13.101562 0.976562 14.007812 2.167969 14.007812 L 13.828125 14.007812 C 15.023438 14.007812 16 13.101562 16 11.988281 L 16 9.011719 C 16 9.007812 16 9 16 8.992188 L 16 5.03125 C 16 5.023438 16 5.015625 16 5.011719 L 16 4.007812 C 16 2.898438 15.023438 1.988281 13.828125 1.988281 Z M 1.039062 11.203125 C 1.613281 11.703125 2.382812 12.011719 3.234375 12.011719 L 12.765625 12.011719 C 13.617188 12.011719 14.382812 11.703125 14.960938 11.203125 L 14.960938 11.988281 C 14.960938 12.585938 14.464844 13.050781 13.828125 13.050781 L 2.167969 13.050781 C 1.53125 13.050781 1.039062 12.585938 1.039062 11.988281 Z M 1.039062 11.203125 "/>
</g>
</svg>
