<?xml version="1.0" encoding="UTF-8"?>
<svg xmlns="http://www.w3.org/2000/svg" xmlns:xlink="http://www.w3.org/1999/xlink" width="16" height="16" viewBox="0 0 16 16" version="1.1">
<g id="surface1">
<path style=" stroke:none;fill-rule:evenodd;fill:rgb(0%,0%,0%);fill-opacity:1;" d="M 7.289062 5.929688 C 7.285156 5.898438 7.28125 5.867188 7.28125 5.839844 C 7.28125 5.707031 7.335938 5.578125 7.429688 5.484375 C 7.523438 5.390625 7.648438 5.335938 7.78125 5.335938 C 8.84375 5.335938 9.859375 5.757812 10.609375 6.507812 C 11.359375 7.257812 11.78125 8.273438 11.78125 9.335938 C 11.78125 9.609375 11.5625 9.828125 11.289062 9.835938 C 11.15625 9.835938 11.03125 9.78125 10.933594 9.6875 C 10.839844 9.59375 10.789062 9.46875 10.789062 9.335938 C 10.789062 8.539062 10.46875 7.777344 9.90625 7.214844 C 9.34375 6.652344 8.578125 6.339844 7.785156 6.339844 C 7.542969 6.339844 7.335938 6.164062 7.292969 5.929688 Z M 7.289062 5.929688 "/>
<path style=" stroke:none;fill-rule:evenodd;fill:rgb(0%,0%,0%);fill-opacity:1;" d="M 7.296875 3.925781 C 7.289062 3.898438 7.289062 3.867188 7.289062 3.835938 C 7.289062 3.703125 7.34375 3.578125 7.4375 3.484375 C 7.53125 3.386719 7.65625 3.335938 7.789062 3.335938 C 9.382812 3.335938 10.90625 3.96875 12.03125 5.09375 C 13.15625 6.21875 13.785156 7.75 13.785156 9.339844 C 13.78125 9.617188 13.558594 9.835938 13.28125 9.835938 C 13.011719 9.828125 12.796875 9.609375 12.789062 9.335938 C 12.789062 8.011719 12.261719 6.742188 11.324219 5.804688 C 10.386719 4.867188 9.117188 4.335938 7.789062 4.335938 C 7.546875 4.335938 7.34375 4.164062 7.296875 3.925781 Z M 7.296875 3.925781 "/>
<path style=" stroke:none;fill-rule:evenodd;fill:rgb(0%,0%,0%);fill-opacity:1;" d="M 7.296875 1.929688 C 7.289062 1.898438 7.289062 1.867188 7.285156 1.835938 C 7.285156 1.703125 7.335938 1.574219 7.429688 1.480469 C 7.523438 1.382812 7.65625 1.332031 7.789062 1.332031 C 9.90625 1.332031 11.945312 2.175781 13.445312 3.675781 C 14.945312 5.179688 15.785156 7.21875 15.785156 9.335938 C 15.785156 9.46875 15.734375 9.601562 15.640625 9.695312 C 15.546875 9.789062 15.417969 9.839844 15.285156 9.839844 C 15.152344 9.839844 15.023438 9.789062 14.929688 9.695312 C 14.835938 9.601562 14.785156 9.472656 14.785156 9.339844 C 14.785156 7.484375 14.050781 5.695312 12.738281 4.382812 C 11.425781 3.070312 9.644531 2.335938 7.789062 2.335938 C 7.546875 2.335938 7.34375 2.164062 7.296875 1.929688 Z M 7.296875 1.929688 "/>
<path style=" stroke:none;fill-rule:nonzero;fill:rgb(0%,0%,0%);fill-opacity:1;" d="M 0.214844 12.835938 L 1.265625 12.703125 C 1.289062 12.992188 1.378906 13.226562 1.53125 13.390625 C 1.683594 13.558594 1.851562 13.640625 2.03125 13.640625 C 2.25 13.640625 2.433594 13.535156 2.589844 13.320312 C 2.742188 13.109375 2.820312 12.777344 2.820312 12.335938 C 2.820312 11.914062 2.742188 11.605469 2.589844 11.40625 C 2.4375 11.203125 2.242188 11.101562 2.007812 11.101562 C 1.703125 11.101562 1.433594 11.265625 1.195312 11.59375 L 0.34375 11.441406 L 0.882812 7.960938 L 3.65625 7.960938 L 3.65625 9.164062 L 1.679688 9.164062 L 1.507812 10.296875 C 1.746094 10.15625 1.984375 10.082031 2.226562 10.082031 C 2.660156 10.082031 3.027344 10.25 3.328125 10.59375 C 3.707031 11.027344 3.898438 11.601562 3.898438 12.3125 C 3.898438 12.898438 3.734375 13.4375 3.410156 13.929688 C 3.085938 14.421875 2.625 14.667969 2.023438 14.667969 C 1.539062 14.667969 1.132812 14.507812 0.804688 14.195312 C 0.476562 13.875 0.28125 13.421875 0.214844 12.835938 Z M 0.214844 12.835938 "/>
<path style=" stroke:none;fill-rule:nonzero;fill:rgb(0%,0%,0%);fill-opacity:1;" d="M 7.246094 12.097656 L 7.246094 10.96875 L 9.632812 10.96875 L 9.632812 13.632812 C 9.390625 13.914062 9.046875 14.15625 8.609375 14.359375 C 8.167969 14.5625 7.726562 14.667969 7.28125 14.667969 C 6.742188 14.667969 6.265625 14.535156 5.851562 14.273438 C 5.4375 14.003906 5.109375 13.605469 4.867188 13.078125 C 4.625 12.546875 4.507812 11.921875 4.507812 11.203125 C 4.507812 10.46875 4.628906 9.839844 4.875 9.316406 C 5.117188 8.796875 5.4375 8.40625 5.824219 8.148438 C 6.21875 7.886719 6.683594 7.757812 7.226562 7.757812 C 7.882812 7.757812 8.40625 7.925781 8.796875 8.257812 C 9.191406 8.589844 9.445312 9.078125 9.554688 9.722656 L 8.460938 9.972656 C 8.382812 9.628906 8.230469 9.367188 8.011719 9.1875 C 7.792969 9 7.53125 8.914062 7.226562 8.914062 C 6.757812 8.914062 6.375 9.09375 6.085938 9.460938 C 5.792969 9.828125 5.648438 10.382812 5.648438 11.132812 C 5.648438 11.9375 5.804688 12.554688 6.121094 12.972656 C 6.390625 13.335938 6.757812 13.515625 7.21875 13.515625 C 7.4375 13.515625 7.65625 13.464844 7.890625 13.363281 C 8.125 13.257812 8.332031 13.121094 8.515625 12.945312 L 8.515625 12.097656 Z M 7.246094 12.097656 "/>
</g>
</svg>
