<?xml version="1.0" encoding="UTF-8"?>
<svg xmlns="http://www.w3.org/2000/svg" xmlns:xlink="http://www.w3.org/1999/xlink" width="16" height="16" viewBox="0 0 16 16" version="1.1">
<g id="surface1">
<path style=" stroke:none;fill-rule:nonzero;fill:rgb(0%,0%,0%);fill-opacity:1;" d="M 11.871094 0.546875 C 11.75 0.554688 11.636719 0.609375 11.550781 0.695312 L 10.34375 1.898438 L 8.570312 1.375 C 8.53125 1.359375 8.492188 1.355469 8.449219 1.355469 C 8.238281 1.34375 8.046875 1.46875 7.960938 1.660156 C 7.882812 1.855469 7.929688 2.078125 8.085938 2.222656 L 9.089844 3.15625 L 8.226562 4.019531 L 7.105469 2.871094 C 7.019531 2.785156 6.90625 2.734375 6.78125 2.726562 C 6.761719 2.722656 6.742188 2.722656 6.722656 2.726562 C 6.515625 2.734375 6.335938 2.875 6.273438 3.070312 L 5.585938 5.296875 L 4.417969 6.457031 C 4.320312 6.550781 4.269531 6.679688 4.269531 6.8125 C 4.269531 6.945312 4.320312 7.078125 4.417969 7.171875 L 4.75 7.5 L 0.226562 12.015625 C 0.128906 12.109375 0.078125 12.242188 0.078125 12.375 C 0.078125 12.507812 0.128906 12.636719 0.226562 12.730469 L 2.796875 15.304688 C 2.890625 15.398438 3.023438 15.453125 3.15625 15.453125 C 3.289062 15.453125 3.417969 15.398438 3.511719 15.304688 L 8.046875 10.691406 L 8.507812 11.152344 C 8.703125 11.34375 9.015625 11.34375 9.210938 11.152344 L 10.328125 10.035156 L 13.152344 9.875 C 13.351562 9.859375 13.523438 9.734375 13.589844 9.546875 C 13.65625 9.359375 13.609375 9.15625 13.46875 9.015625 L 11.519531 7.179688 L 13.195312 5.484375 L 15.085938 7.195312 C 15.253906 7.34375 15.5 7.367188 15.6875 7.25 C 15.878906 7.128906 15.96875 6.898438 15.90625 6.683594 L 14.984375 3.507812 C 14.960938 3.429688 14.917969 3.359375 14.859375 3.296875 L 12.253906 0.695312 C 12.167969 0.609375 12.054688 0.554688 11.929688 0.546875 C 11.910156 0.546875 11.890625 0.546875 11.871094 0.546875 Z M 11.898438 1.753906 L 14.058594 3.914062 L 14.445312 5.273438 L 13.507812 4.414062 C 13.308594 4.234375 13 4.246094 12.8125 4.441406 L 10.789062 6.488281 L 10.554688 6.269531 C 10.46875 6.1875 10.351562 6.136719 10.230469 6.132812 C 10.210938 6.132812 10.191406 6.132812 10.171875 6.132812 C 10.132812 6.140625 10.09375 6.148438 10.054688 6.15625 C 10.039062 6.164062 10.015625 6.171875 10 6.179688 C 9.984375 6.1875 9.964844 6.195312 9.945312 6.207031 C 9.9375 6.214844 9.925781 6.222656 9.914062 6.230469 C 9.910156 6.234375 9.90625 6.238281 9.898438 6.242188 C 9.882812 6.253906 9.871094 6.265625 9.859375 6.28125 L 7.128906 9.070312 C 7.09375 9.109375 7.0625 9.15625 7.039062 9.203125 C 7.039062 9.207031 7.03125 9.210938 7.03125 9.21875 C 7.023438 9.238281 7.015625 9.257812 7.007812 9.273438 C 7.003906 9.296875 7 9.3125 6.996094 9.332031 C 6.996094 9.335938 6.996094 9.335938 6.996094 9.335938 C 6.992188 9.351562 6.992188 9.375 6.992188 9.390625 C 6.992188 9.414062 6.992188 9.429688 6.992188 9.453125 C 6.992188 9.511719 7.007812 9.570312 7.03125 9.625 C 7.039062 9.640625 7.046875 9.660156 7.058594 9.675781 C 7.058594 9.679688 7.0625 9.679688 7.0625 9.679688 C 7.070312 9.695312 7.078125 9.710938 7.09375 9.726562 C 7.109375 9.742188 7.121094 9.757812 7.132812 9.773438 C 7.136719 9.773438 7.136719 9.773438 7.140625 9.773438 L 7.339844 9.984375 L 6.695312 10.640625 L 5.945312 9.890625 L 5.171875 10.664062 L 5.929688 11.421875 L 4.992188 12.375 L 4.214844 11.605469 L 3.445312 12.382812 L 4.21875 13.15625 L 3.148438 14.242188 L 1.285156 12.375 L 5.453125 8.203125 L 5.792969 8.539062 C 5.804688 8.554688 5.820312 8.5625 5.835938 8.578125 C 5.835938 8.578125 5.839844 8.578125 5.839844 8.578125 C 5.855469 8.585938 5.871094 8.601562 5.886719 8.609375 C 5.886719 8.609375 5.890625 8.609375 5.890625 8.609375 C 5.90625 8.621094 5.921875 8.628906 5.9375 8.636719 C 5.9375 8.636719 5.941406 8.636719 5.941406 8.636719 C 5.976562 8.652344 6.015625 8.664062 6.054688 8.671875 C 6.09375 8.679688 6.132812 8.679688 6.171875 8.679688 C 6.195312 8.679688 6.210938 8.671875 6.234375 8.671875 C 6.273438 8.664062 6.3125 8.652344 6.34375 8.632812 C 6.355469 8.632812 6.363281 8.625 6.371094 8.621094 C 6.382812 8.617188 6.390625 8.613281 6.398438 8.609375 C 6.414062 8.597656 6.429688 8.585938 6.445312 8.574219 C 6.460938 8.5625 6.476562 8.550781 6.492188 8.539062 L 9.28125 5.816406 C 9.3125 5.789062 9.335938 5.757812 9.359375 5.722656 C 9.480469 5.527344 9.453125 5.273438 9.289062 5.105469 L 8.929688 4.734375 Z M 11.898438 1.753906 "/>
</g>
</svg>
