<?xml version="1.0" encoding="UTF-8"?>
<svg xmlns="http://www.w3.org/2000/svg" xmlns:xlink="http://www.w3.org/1999/xlink" width="16" height="16" viewBox="0 0 16 16" version="1.1">
<g id="surface1">
<path style=" stroke:none;fill-rule:nonzero;fill:rgb(0%,0%,0%);fill-opacity:1;" d="M 6.550781 14.507812 L 9.539062 9.332031 L 11.894531 13.410156 C 10.761719 14.230469 9.398438 14.667969 8 14.667969 C 7.503906 14.667969 7.019531 14.613281 6.550781 14.507812 Z M 5.261719 14.078125 C 3.527344 13.296875 2.210938 11.8125 1.636719 10 L 7.617188 10 Z M 1.367188 8.667969 C 1.171875 6.773438 1.800781 4.890625 3.089844 3.492188 L 6.074219 8.667969 Z M 4.105469 2.589844 C 5.238281 1.769531 6.601562 1.332031 8 1.332031 C 8.496094 1.332031 8.980469 1.386719 9.449219 1.492188 L 6.460938 6.667969 Z M 10.738281 1.921875 C 12.472656 2.703125 13.789062 4.1875 14.363281 6 L 8.382812 6 Z M 14.632812 7.332031 C 14.828125 9.226562 14.199219 11.109375 12.910156 12.507812 L 9.925781 7.332031 Z M 14.632812 7.332031 "/>
</g>
</svg>
