<?xml version="1.0" encoding="UTF-8"?>
<svg xmlns="http://www.w3.org/2000/svg" xmlns:xlink="http://www.w3.org/1999/xlink" width="16" height="16" viewBox="0 0 16 16" version="1.1">
<g id="surface1">
<path style=" stroke:none;fill-rule:evenodd;fill:rgb(0%,0%,0%);fill-opacity:1;" d="M 1.5 1 C 0.675781 1 0 1.679688 0 2.5 L 0 13.5 C 0 14.320312 0.675781 15 1.5 15 L 14.5 15 C 15.324219 15 16 14.320312 16 13.5 L 16 2.5 C 16 1.679688 15.324219 1 14.5 1 Z M 1.5 2 L 14.5 2 C 14.789062 2 15.003906 2.214844 15.003906 2.5 L 15.003906 13.5 C 15.003906 13.785156 14.789062 14 14.5 14 L 1.5 14 C 1.210938 14 1.003906 13.785156 1.003906 13.5 L 1.003906 2.5 C 1.003906 2.214844 1.210938 2 1.5 2 Z M 1.5 2 "/>
<path style=" stroke:none;fill-rule:evenodd;fill:rgb(0%,0%,0%);fill-opacity:1;" d="M 3.148438 8.210938 C 3.148438 8.183594 3.140625 8.15625 3.140625 8.132812 C 3.140625 8.015625 3.1875 7.898438 3.273438 7.820312 C 3.355469 7.734375 3.46875 7.6875 3.585938 7.6875 C 4.519531 7.6875 5.417969 8.058594 6.078125 8.71875 C 6.742188 9.382812 7.109375 10.28125 7.109375 11.214844 C 7.109375 11.453125 6.917969 11.648438 6.675781 11.65625 C 6.558594 11.65625 6.445312 11.609375 6.363281 11.523438 C 6.28125 11.445312 6.234375 11.328125 6.234375 11.210938 C 6.234375 10.511719 5.953125 9.84375 5.457031 9.34375 C 4.960938 8.847656 4.289062 8.570312 3.585938 8.570312 C 3.371094 8.570312 3.1875 8.421875 3.148438 8.210938 Z M 3.148438 8.210938 "/>
<path style=" stroke:none;fill-rule:evenodd;fill:rgb(0%,0%,0%);fill-opacity:1;" d="M 3.15625 6.441406 C 3.148438 6.414062 3.148438 6.390625 3.148438 6.363281 C 3.148438 6.246094 3.195312 6.132812 3.277344 6.050781 C 3.359375 5.96875 3.472656 5.921875 3.589844 5.921875 C 4.992188 5.921875 6.335938 6.480469 7.328125 7.476562 C 8.320312 8.46875 8.878906 9.816406 8.878906 11.21875 C 8.875 11.460938 8.679688 11.65625 8.4375 11.65625 C 8.195312 11.648438 8.007812 11.457031 8 11.21875 C 8 10.046875 7.535156 8.925781 6.710938 8.101562 C 5.882812 7.273438 4.757812 6.804688 3.589844 6.804688 C 3.375 6.804688 3.195312 6.648438 3.15625 6.441406 Z M 3.15625 6.441406 "/>
<path style=" stroke:none;fill-rule:evenodd;fill:rgb(0%,0%,0%);fill-opacity:1;" d="M 3.15625 4.679688 C 3.148438 4.652344 3.148438 4.625 3.148438 4.59375 C 3.148438 4.476562 3.195312 4.367188 3.273438 4.28125 C 3.359375 4.203125 3.46875 4.15625 3.585938 4.15625 C 5.460938 4.15625 7.257812 4.898438 8.578125 6.222656 C 9.902344 7.546875 10.648438 9.34375 10.648438 11.21875 C 10.648438 11.335938 10.601562 11.445312 10.515625 11.53125 C 10.433594 11.613281 10.320312 11.660156 10.203125 11.660156 C 10.085938 11.660156 9.976562 11.613281 9.890625 11.53125 C 9.8125 11.449219 9.765625 11.335938 9.765625 11.21875 C 9.765625 9.578125 9.117188 8.007812 7.957031 6.847656 C 6.796875 5.6875 5.226562 5.039062 3.585938 5.039062 C 3.375 5.039062 3.195312 4.890625 3.15625 4.679688 Z M 3.15625 4.679688 "/>
<path style=" stroke:none;fill-rule:evenodd;fill:rgb(0%,0%,0%);fill-opacity:1;" d="M 5 10.84375 C 5 11.398438 4.554688 11.84375 4 11.84375 C 3.445312 11.84375 3 11.398438 3 10.84375 C 3 10.292969 3.445312 9.84375 4 9.84375 C 4.554688 9.84375 5 10.292969 5 10.84375 Z M 5 10.84375 "/>
<path style=" stroke:none;fill-rule:evenodd;fill:rgb(0%,0%,0%);fill-opacity:1;" d="M 10.75 4 L 12.25 4 C 12.664062 4 13 4.226562 13 4.5 L 13 5.5 C 13 5.773438 12.664062 6 12.25 6 L 10.75 6 C 10.335938 6 10 5.773438 10 5.5 L 10 4.5 C 10 4.226562 10.335938 4 10.75 4 Z M 10.75 4 "/>
</g>
</svg>
