<?xml version="1.0" encoding="UTF-8"?>
<svg xmlns="http://www.w3.org/2000/svg" xmlns:xlink="http://www.w3.org/1999/xlink" width="16" height="16" viewBox="0 0 16 16" version="1.1">
<g id="surface1">
<path style=" stroke:none;fill-rule:nonzero;fill:rgb(0%,0%,0%);fill-opacity:1;" d="M 0.5 0 L 0.5 2 L 2.574219 2 L 3.839844 9.59375 C 3.976562 10.40625 4.675781 11 5.5 11 L 12.5 11 C 13.320312 11 14.03125 10.425781 14.199219 9.625 L 15.359375 4.171875 C 15.492188 3.570312 15.03125 3 14.414062 3 L 4.71875 3 L 4.179688 0 Z M 0.5 0 "/>
<path style=" stroke:none;fill-rule:evenodd;fill:rgb(0%,0%,0%);fill-opacity:1;" d="M 6.6875 14 C 6.6875 15.105469 5.789062 16 4.6875 16 C 3.582031 16 2.6875 15.105469 2.6875 14 C 2.6875 12.894531 3.582031 12 4.6875 12 C 5.789062 12 6.6875 12.894531 6.6875 14 Z M 6.6875 14 "/>
<path style=" stroke:none;fill-rule:evenodd;fill:rgb(0%,0%,0%);fill-opacity:1;" d="M 15.5 14 C 15.5 15.105469 14.601562 16 13.5 16 C 12.394531 16 11.5 15.105469 11.5 14 C 11.5 12.894531 12.394531 12 13.5 12 C 14.601562 12 15.5 12.894531 15.5 14 Z M 15.5 14 "/>
</g>
</svg>
