<?xml version="1.0" encoding="UTF-8"?>
<svg xmlns="http://www.w3.org/2000/svg" xmlns:xlink="http://www.w3.org/1999/xlink" width="16" height="16" viewBox="0 0 16 16" version="1.1">
<g id="surface1">
<path style=" stroke:none;fill-rule:nonzero;fill:rgb(0%,0%,0%);fill-opacity:1;" d="M 8 1.332031 L 10.863281 4.195312 L 11.570312 3.488281 L 10.746094 2.667969 L 13.332031 2.667969 L 13.332031 5.253906 L 12.511719 4.429688 L 11.804688 5.136719 L 14.667969 8 L 11.804688 10.863281 L 12.511719 11.566406 L 13.332031 10.746094 L 13.332031 13.332031 L 10.746094 13.332031 L 11.566406 12.511719 L 10.863281 11.804688 L 8 14.667969 L 5.136719 11.804688 L 4.429688 12.511719 L 5.253906 13.332031 L 2.667969 13.332031 L 2.667969 10.746094 L 3.488281 11.566406 L 4.195312 10.863281 L 1.332031 8 L 4.195312 5.136719 L 3.488281 4.429688 L 2.667969 5.253906 L 2.667969 2.667969 L 5.253906 2.667969 L 4.429688 3.488281 L 5.136719 4.195312 Z M 8 8.941406 L 6.078125 10.863281 L 8 12.78125 L 9.917969 10.863281 Z M 5.136719 6.078125 L 3.21875 8 L 5.136719 9.917969 L 7.058594 8 L 5.136719 6.082031 Z M 10.863281 6.078125 L 8.941406 8 L 10.863281 9.917969 L 12.78125 8 L 10.863281 6.082031 Z M 8 3.21875 L 6.082031 5.136719 L 8 7.058594 L 9.917969 5.136719 Z M 8 3.21875 "/>
</g>
</svg>
