<?xml version="1.0" encoding="UTF-8"?>
<svg xmlns="http://www.w3.org/2000/svg" xmlns:xlink="http://www.w3.org/1999/xlink" width="16" height="16" viewBox="0 0 16 16" version="1.1">
<g id="surface1">
<path style=" stroke:none;fill-rule:nonzero;fill:rgb(0%,0%,0%);fill-opacity:1;" d="M 0.492188 1 C 0.21875 1.003906 -0.00390625 1.226562 0 1.5 L 0 14.5 C -0.00390625 14.773438 0.21875 14.996094 0.492188 15 L 15.5 15 C 15.773438 15 16 14.773438 16 14.5 C 16 14.21875 15.773438 13.992188 15.5 13.996094 L 15 13.996094 L 15 5.226562 L 13.839844 6.863281 C 13.839844 6.863281 13.410156 7.476562 12.757812 8.085938 C 12.101562 8.695312 11.242188 9.234375 10.546875 9.234375 C 10.335938 9.234375 10.007812 9.058594 9.625 8.632812 C 9.242188 8.210938 8.835938 7.59375 8.445312 6.953125 C 8.050781 6.3125 7.667969 5.65625 7.269531 5.113281 C 6.871094 4.570312 6.472656 4.046875 5.742188 4 C 5.070312 3.957031 4.5625 4.308594 4.015625 4.714844 C 3.46875 5.121094 2.910156 5.640625 2.398438 6.164062 C 1.804688 6.765625 1.335938 7.300781 0.996094 7.703125 L 0.996094 1.5 C 1 1.226562 0.773438 1 0.492188 1 Z M 0.492188 1 "/>
</g>
</svg>
