<?xml version="1.0" encoding="UTF-8"?>
<svg xmlns="http://www.w3.org/2000/svg" xmlns:xlink="http://www.w3.org/1999/xlink" width="16" height="16" viewBox="0 0 16 16" version="1.1">
<g id="surface1">
<path style=" stroke:none;fill-rule:evenodd;fill:rgb(0%,0%,0%);fill-opacity:1;" d="M 3 1 C 1.890625 1 1 1.890625 1 3 L 1 13 C 1 14.109375 1.890625 15 3 15 L 13 15 C 14.109375 15 15 14.109375 15 13 L 15 3 C 15 1.890625 14.109375 1 13 1 Z M 3 3 L 5 3 L 5 13 L 3 13 Z M 11 6 L 13 6 L 13 13 L 11 13 Z M 7 9 L 9 9 L 9 13 L 7 13 Z M 7 9 "/>
</g>
</svg>
