<?xml version="1.0" encoding="UTF-8"?>
<svg xmlns="http://www.w3.org/2000/svg" xmlns:xlink="http://www.w3.org/1999/xlink" width="16" height="16" viewBox="0 0 16 16" version="1.1">
<g id="surface1">
<path style=" stroke:none;fill-rule:nonzero;fill:rgb(0%,0%,0%);fill-opacity:1;" d="M 3 9 L 5 9 L 5 14 L 3 14 Z M 3 9 "/>
<path style=" stroke:none;fill-rule:nonzero;fill:rgb(0%,0%,0%);fill-opacity:1;" d="M 6 4 L 8 4 L 8 14 L 6 14 Z M 6 4 "/>
<path style=" stroke:none;fill-rule:nonzero;fill:rgb(0%,0%,0%);fill-opacity:1;" d="M 9 7 L 11 7 L 11 14 L 9 14 Z M 9 7 "/>
<path style=" stroke:none;fill-rule:nonzero;fill:rgb(0%,0%,0%);fill-opacity:1;" d="M 12 6 L 14 6 L 14 14 L 12 14 Z M 12 6 "/>
<path style=" stroke:none;fill-rule:nonzero;fill:rgb(0%,0%,0%);fill-opacity:1;" d="M 0.492188 1 C 0.21875 1.003906 -0.00390625 1.226562 0 1.5 L 0 14.5 C -0.00390625 14.773438 0.21875 14.996094 0.492188 15 L 15.5 15 C 15.773438 15 16 14.773438 16 14.5 C 16 14.21875 15.773438 13.992188 15.5 13.996094 L 0.996094 13.996094 L 0.996094 1.5 C 1 1.226562 0.773438 1 0.492188 1 Z M 0.492188 1 "/>
</g>
</svg>
