<?xml version="1.0" encoding="UTF-8"?>
<svg xmlns="http://www.w3.org/2000/svg" xmlns:xlink="http://www.w3.org/1999/xlink" width="16" height="16" viewBox="0 0 16 16" version="1.1">
<g id="surface1">
<path style=" stroke:none;fill-rule:nonzero;fill:rgb(0%,0%,0%);fill-opacity:1;" d="M 0.492188 1 C 0.21875 1.003906 -0.00390625 1.226562 0 1.5 L 0 14.5 C -0.00390625 14.773438 0.21875 14.996094 0.492188 15 L 15.5 15 C 15.773438 15 16 14.773438 16 14.5 C 16 14.21875 15.773438 13.992188 15.5 13.996094 L 0.996094 13.996094 L 0.996094 1.5 C 1 1.226562 0.773438 1 0.492188 1 Z M 0.492188 1 "/>
<path style=" stroke:none;fill-rule:evenodd;fill:rgb(0%,0%,0%);fill-opacity:1;" d="M 5.25 6.5 C 5.25 7.1875 4.6875 7.75 4 7.75 C 3.3125 7.75 2.75 7.1875 2.75 6.5 C 2.75 5.808594 3.3125 5.25 4 5.25 C 4.6875 5.25 5.25 5.808594 5.25 6.5 Z M 5.25 6.5 "/>
<path style=" stroke:none;fill-rule:evenodd;fill:rgb(0%,0%,0%);fill-opacity:1;" d="M 10.117188 5.761719 C 10.117188 6.453125 9.558594 7.011719 8.867188 7.011719 C 8.179688 7.011719 7.617188 6.453125 7.617188 5.761719 C 7.617188 5.070312 8.179688 4.511719 8.867188 4.511719 C 9.558594 4.511719 10.117188 5.070312 10.117188 5.761719 Z M 10.117188 5.761719 "/>
<path style=" stroke:none;fill-rule:evenodd;fill:rgb(0%,0%,0%);fill-opacity:1;" d="M 14.25 4 C 14.25 4.6875 13.6875 5.25 13 5.25 C 12.3125 5.25 11.75 4.6875 11.75 4 C 11.75 3.308594 12.3125 2.75 13 2.75 C 13.6875 2.75 14.25 3.308594 14.25 4 Z M 14.25 4 "/>
<path style=" stroke:none;fill-rule:evenodd;fill:rgb(0%,0%,0%);fill-opacity:1;" d="M 8.203125 11 C 8.203125 11.6875 7.648438 12.25 6.953125 12.25 C 6.265625 12.25 5.703125 11.6875 5.703125 11 C 5.703125 10.3125 6.265625 9.75 6.953125 9.75 C 7.648438 9.75 8.203125 10.3125 8.203125 11 Z M 8.203125 11 "/>
<path style=" stroke:none;fill-rule:evenodd;fill:rgb(0%,0%,0%);fill-opacity:1;" d="M 13.703125 10 C 13.703125 10.6875 13.148438 11.25 12.453125 11.25 C 11.765625 11.25 11.203125 10.6875 11.203125 10 C 11.203125 9.3125 11.765625 8.75 12.453125 8.75 C 13.148438 8.75 13.703125 9.3125 13.703125 10 Z M 13.703125 10 "/>
</g>
</svg>
