<?xml version="1.0" encoding="UTF-8"?>
<svg xmlns="http://www.w3.org/2000/svg" xmlns:xlink="http://www.w3.org/1999/xlink" width="16" height="16" viewBox="0 0 16 16" version="1.1">
<g id="surface1">
<path style=" stroke:none;fill-rule:nonzero;fill:rgb(0%,0%,0%);fill-opacity:1;" d="M 4.304688 12.667969 L 1.332031 15 L 1.332031 2.667969 C 1.332031 2.296875 1.632812 2 2 2 L 14 2 C 14.367188 2 14.667969 2.296875 14.667969 2.667969 L 14.667969 12 C 14.667969 12.367188 14.367188 12.667969 14 12.667969 Z M 5.429688 8.046875 L 4.78125 8.421875 L 5.445312 9.578125 L 6.097656 9.203125 C 6.429688 9.542969 6.855469 9.792969 7.332031 9.914062 L 7.332031 10.667969 L 8.667969 10.667969 L 8.667969 9.914062 C 9.136719 9.792969 9.5625 9.546875 9.902344 9.203125 L 10.554688 9.578125 L 11.21875 8.421875 L 10.570312 8.046875 C 10.699219 7.582031 10.699219 7.085938 10.570312 6.621094 L 11.21875 6.242188 L 10.554688 5.089844 L 9.902344 5.464844 C 9.5625 5.117188 9.136719 4.871094 8.667969 4.75 L 8.667969 4 L 7.332031 4 L 7.332031 4.75 C 6.863281 4.871094 6.4375 5.117188 6.097656 5.464844 L 5.445312 5.089844 L 4.78125 6.242188 L 5.429688 6.621094 C 5.300781 7.085938 5.300781 7.582031 5.429688 8.046875 Z M 8 8.667969 C 7.261719 8.667969 6.667969 8.070312 6.667969 7.332031 C 6.667969 6.597656 7.261719 6 8 6 C 8.738281 6 9.332031 6.597656 9.332031 7.332031 C 9.332031 8.070312 8.738281 8.667969 8 8.667969 Z M 8 8.667969 "/>
</g>
</svg>
