<?xml version="1.0" encoding="UTF-8"?>
<svg xmlns="http://www.w3.org/2000/svg" xmlns:xlink="http://www.w3.org/1999/xlink" width="16" height="16" viewBox="0 0 16 16" version="1.1">
<g id="surface1">
<path style=" stroke:none;fill-rule:nonzero;fill:rgb(0%,0%,0%);fill-opacity:1;" d="M 4.859375 13.882812 L 1.332031 14.667969 L 2.117188 11.140625 C 1.601562 10.171875 1.332031 9.09375 1.332031 8 C 1.332031 4.316406 4.316406 1.332031 8 1.332031 C 11.683594 1.332031 14.667969 4.316406 14.667969 8 C 14.667969 11.683594 11.683594 14.667969 8 14.667969 C 6.90625 14.667969 5.828125 14.398438 4.859375 13.882812 Z M 5.054688 12.472656 L 5.488281 12.707031 C 6.261719 13.121094 7.125 13.335938 8 13.332031 C 10.945312 13.332031 13.332031 10.945312 13.332031 8 C 13.332031 5.054688 10.945312 2.667969 8 2.667969 C 5.054688 2.667969 2.667969 5.054688 2.667969 8 C 2.667969 8.890625 2.882812 9.746094 3.292969 10.511719 L 3.527344 10.945312 L 3.089844 12.910156 Z M 4.667969 8 L 6 8 C 6 9.105469 6.894531 10 8 10 C 9.105469 10 10 9.105469 10 8 L 11.332031 8 C 11.332031 9.839844 9.839844 11.332031 8 11.332031 C 6.160156 11.332031 4.667969 9.839844 4.667969 8 Z M 4.667969 8 "/>
</g>
</svg>
