<?xml version="1.0" encoding="UTF-8"?>
<svg xmlns="http://www.w3.org/2000/svg" xmlns:xlink="http://www.w3.org/1999/xlink" width="16" height="16" viewBox="0 0 16 16" version="1.1">
<g id="surface1">
<path style=" stroke:none;fill-rule:nonzero;fill:rgb(0%,0%,0%);fill-opacity:1;" d="M 7.996094 4.601562 L 1.820312 10.085938 C 1.667969 10.21875 1.578125 10.402344 1.5625 10.601562 C 1.550781 10.804688 1.617188 11 1.75 11.148438 C 1.882812 11.296875 2.070312 11.386719 2.269531 11.398438 C 2.46875 11.410156 2.664062 11.339844 2.8125 11.207031 L 7.996094 6.609375 L 13.1875 11.207031 C 13.335938 11.339844 13.53125 11.410156 13.730469 11.398438 C 13.929688 11.386719 14.117188 11.296875 14.25 11.148438 C 14.382812 11 14.449219 10.804688 14.4375 10.601562 C 14.421875 10.402344 14.332031 10.21875 14.179688 10.085938 Z M 7.996094 4.601562 "/>
</g>
</svg>
