<?xml version="1.0" encoding="UTF-8"?>
<svg xmlns="http://www.w3.org/2000/svg" xmlns:xlink="http://www.w3.org/1999/xlink" width="16" height="16" viewBox="0 0 16 16" version="1.1">
<g id="surface1">
<path style=" stroke:none;fill-rule:nonzero;fill:rgb(0%,0%,0%);fill-opacity:1;" d="M 8 6.800781 L 6.203125 8 L 8 9.199219 L 9.796875 8 Z M 11 7.199219 L 12.796875 6 L 8.667969 3.246094 L 8.667969 5.644531 Z M 13.332031 7.246094 L 12.203125 8 L 13.332031 8.753906 Z M 11 8.800781 L 8.667969 10.355469 L 8.667969 12.753906 L 12.796875 10 Z M 7.332031 5.644531 L 7.332031 3.246094 L 3.203125 6 L 5 7.199219 Z M 3.203125 10 L 7.332031 12.753906 L 7.332031 10.355469 L 5 8.800781 Z M 3.796875 8 L 2.667969 7.246094 L 2.667969 8.753906 Z M 1.332031 6 C 1.332031 5.777344 1.445312 5.570312 1.628906 5.445312 L 7.628906 1.445312 C 7.855469 1.296875 8.144531 1.296875 8.371094 1.445312 L 14.371094 5.445312 C 14.554688 5.570312 14.667969 5.777344 14.667969 6 L 14.667969 10 C 14.667969 10.222656 14.554688 10.429688 14.371094 10.554688 L 8.371094 14.554688 C 8.144531 14.703125 7.855469 14.703125 7.628906 14.554688 L 1.628906 10.554688 C 1.445312 10.429688 1.332031 10.222656 1.332031 10 Z M 1.332031 6 "/>
</g>
</svg>
