<?xml version="1.0" encoding="UTF-8"?>
<svg xmlns="http://www.w3.org/2000/svg" xmlns:xlink="http://www.w3.org/1999/xlink" width="16" height="16" viewBox="0 0 16 16" version="1.1">
<g id="surface1">
<path style=" stroke:none;fill-rule:nonzero;fill:rgb(0%,0%,0%);fill-opacity:1;" d="M 2 2 L 14 2 C 14.367188 2 14.667969 2.296875 14.667969 2.667969 L 14.667969 13.332031 C 14.667969 13.703125 14.367188 14 14 14 L 2 14 C 1.632812 14 1.332031 13.703125 1.332031 13.332031 L 1.332031 2.667969 C 1.332031 2.296875 1.632812 2 2 2 Z M 10.976562 10.355469 L 13.332031 8 L 10.976562 5.644531 L 10.035156 6.585938 L 11.449219 8 L 10.035156 9.414062 Z M 4.550781 8 L 5.964844 6.585938 L 5.023438 5.644531 L 2.667969 8 L 5.023438 10.355469 L 5.964844 9.414062 Z M 7.496094 11.332031 L 9.921875 4.667969 L 8.503906 4.667969 L 6.078125 11.332031 Z M 7.496094 11.332031 "/>
</g>
</svg>
