<?xml version="1.0" encoding="UTF-8"?>
<svg xmlns="http://www.w3.org/2000/svg" xmlns:xlink="http://www.w3.org/1999/xlink" width="16" height="16" viewBox="0 0 16 16" version="1.1">
<g id="surface1">
<path style=" stroke:none;fill-rule:nonzero;fill:rgb(0%,0%,0%);fill-opacity:1;" d="M 2 6 C 1.445312 6 1 6.445312 1 7 L 1 14 C 1 15.105469 1.894531 16 3 16 L 9 16 C 9.714844 16 10.375 15.617188 10.730469 15 L 13 15 C 14.109375 15 15 14.109375 15 13 L 15 9 C 15 7.890625 14.109375 7 13 7 L 11 7 C 11 6.445312 10.554688 6 10 6 Z M 11 9 L 12 9 C 12.554688 9 13 9.445312 13 10 L 13 12 C 13 12.554688 12.554688 13 12 13 L 11 13 Z M 11 9 "/>
<path style=" stroke:none;fill-rule:evenodd;fill:rgb(0%,0%,0%);fill-opacity:1;" d="M 5.84375 1.941406 C 5.84375 1.546875 5.609375 1.253906 5.320312 0.976562 C 5.03125 0.695312 4.636719 0.398438 4.125 0 L 3.570312 0.71875 C 4.082031 1.113281 4.46875 1.40625 4.691406 1.625 C 4.914062 1.839844 4.933594 1.9375 4.933594 1.941406 C 4.933594 1.945312 4.914062 2.039062 4.691406 2.257812 C 4.46875 2.476562 4.082031 2.769531 3.570312 3.164062 C 3.054688 3.5625 2.671875 3.859375 2.382812 4.140625 C 2.09375 4.421875 1.855469 4.714844 1.855469 5.109375 C 1.855469 5.5 2.09375 5.796875 2.382812 6.074219 C 2.671875 6.351562 3.054688 6.652344 3.570312 7.046875 L 4.125 6.335938 C 3.609375 5.9375 3.226562 5.640625 3 5.425781 C 2.773438 5.210938 2.757812 5.109375 2.757812 5.109375 C 2.757812 5.105469 2.773438 5.007812 3 4.789062 C 3.226562 4.574219 3.609375 4.28125 4.125 3.882812 C 4.636719 3.484375 5.03125 3.1875 5.320312 2.90625 C 5.609375 2.628906 5.84375 2.335938 5.84375 1.941406 Z M 5.84375 1.941406 "/>
<path style=" stroke:none;fill-rule:evenodd;fill:rgb(0%,0%,0%);fill-opacity:1;" d="M 8.414062 1.941406 C 8.414062 1.546875 8.179688 1.253906 7.890625 0.976562 C 7.601562 0.695312 7.210938 0.398438 6.695312 0 L 6.140625 0.71875 C 6.65625 1.113281 7.039062 1.40625 7.265625 1.625 C 7.488281 1.839844 7.507812 1.9375 7.507812 1.941406 C 7.507812 1.945312 7.488281 2.039062 7.265625 2.257812 C 7.039062 2.476562 6.65625 2.769531 6.140625 3.164062 C 5.625 3.5625 5.242188 3.859375 4.953125 4.140625 C 4.664062 4.421875 4.429688 4.714844 4.429688 5.109375 C 4.429688 5.5 4.664062 5.796875 4.953125 6.074219 C 5.242188 6.351562 5.625 6.652344 6.140625 7.046875 L 6.695312 6.335938 C 6.179688 5.9375 5.796875 5.640625 5.570312 5.425781 C 5.347656 5.210938 5.328125 5.109375 5.328125 5.109375 C 5.328125 5.105469 5.347656 5.007812 5.570312 4.789062 C 5.796875 4.574219 6.179688 4.28125 6.695312 3.882812 C 7.210938 3.484375 7.601562 3.1875 7.890625 2.90625 C 8.179688 2.628906 8.414062 2.335938 8.414062 1.941406 Z M 8.414062 1.941406 "/>
<path style=" stroke:none;fill-rule:evenodd;fill:rgb(0%,0%,0%);fill-opacity:1;" d="M 10.984375 1.941406 C 10.984375 1.546875 10.75 1.253906 10.460938 0.976562 C 10.171875 0.695312 9.78125 0.398438 9.265625 0 L 8.710938 0.71875 C 9.226562 1.113281 9.609375 1.40625 9.835938 1.625 C 10.0625 1.839844 10.078125 1.9375 10.078125 1.941406 C 10.078125 1.945312 10.0625 2.039062 9.835938 2.257812 C 9.609375 2.476562 9.226562 2.769531 8.710938 3.164062 C 8.199219 3.5625 7.8125 3.859375 7.523438 4.140625 C 7.234375 4.421875 7 4.714844 7 5.109375 C 7 5.5 7.234375 5.796875 7.523438 6.074219 C 7.8125 6.351562 8.199219 6.652344 8.710938 7.046875 L 9.265625 6.335938 C 8.753906 5.9375 8.367188 5.640625 8.144531 5.425781 C 7.921875 5.210938 7.898438 5.109375 7.898438 5.109375 C 7.898438 5.105469 7.921875 5.007812 8.144531 4.789062 C 8.367188 4.574219 8.753906 4.28125 9.265625 3.882812 C 9.78125 3.484375 10.171875 3.1875 10.460938 2.90625 C 10.75 2.628906 10.984375 2.335938 10.984375 1.941406 Z M 10.984375 1.941406 "/>
</g>
</svg>
