<?xml version="1.0" encoding="UTF-8"?>
<svg xmlns="http://www.w3.org/2000/svg" xmlns:xlink="http://www.w3.org/1999/xlink" width="16" height="16" viewBox="0 0 16 16" version="1.1">
<g id="surface1">
<path style=" stroke:none;fill-rule:nonzero;fill:rgb(0%,0%,0%);fill-opacity:1;" d="M 11.082031 2.089844 L 10.082031 3.089844 C 9.425781 2.808594 8.714844 2.664062 8 2.667969 C 5.054688 2.667969 2.667969 5.054688 2.667969 8 C 2.667969 10.945312 5.054688 13.332031 8 13.332031 C 10.945312 13.332031 13.332031 10.945312 13.332031 8 C 13.335938 7.285156 13.191406 6.574219 12.910156 5.917969 L 13.910156 4.917969 C 14.410156 5.867188 14.667969 6.925781 14.667969 8 C 14.667969 11.679688 11.679688 14.667969 8 14.667969 C 4.320312 14.667969 1.332031 11.679688 1.332031 8 C 1.332031 4.320312 4.320312 1.332031 8 1.332031 C 9.113281 1.332031 10.160156 1.605469 11.082031 2.089844 Z M 12.242188 2.816406 L 13.183594 3.757812 L 8 8.941406 L 7.058594 8 Z M 12.242188 2.816406 "/>
</g>
</svg>
