<?xml version="1.0" encoding="UTF-8"?>
<svg xmlns="http://www.w3.org/2000/svg" xmlns:xlink="http://www.w3.org/1999/xlink" width="16" height="16" viewBox="0 0 16 16" version="1.1">
<g id="surface1">
<path style=" stroke:none;fill-rule:nonzero;fill:rgb(0%,0%,0%);fill-opacity:1;" d="M 13.332031 14.667969 L 4 14.667969 C 2.894531 14.667969 2 13.769531 2 12.667969 L 2 3.332031 C 2 2.230469 2.894531 1.332031 4 1.332031 L 13.332031 1.332031 C 13.703125 1.332031 14 1.632812 14 2 L 14 14 C 14 14.367188 13.703125 14.667969 13.332031 14.667969 Z M 12.667969 13.332031 L 12.667969 12 L 4 12 C 3.632812 12 3.332031 12.296875 3.332031 12.667969 C 3.332031 13.035156 3.632812 13.332031 4 13.332031 Z M 8 6.667969 C 8.738281 6.667969 9.332031 6.070312 9.332031 5.332031 C 9.332031 4.597656 8.738281 4 8 4 C 7.261719 4 6.667969 4.597656 6.667969 5.332031 C 6.667969 6.070312 7.261719 6.667969 8 6.667969 Z M 6 9.332031 L 10 9.332031 C 10 8.230469 9.105469 7.332031 8 7.332031 C 6.894531 7.332031 6 8.230469 6 9.332031 Z M 6 9.332031 "/>
</g>
</svg>
