<?xml version="1.0" encoding="UTF-8"?>
<svg xmlns="http://www.w3.org/2000/svg" xmlns:xlink="http://www.w3.org/1999/xlink" width="16" height="16" viewBox="0 0 16 16" version="1.1">
<g id="surface1">
<path style=" stroke:none;fill-rule:nonzero;fill:rgb(0%,0%,0%);fill-opacity:1;" d="M 4.667969 1.332031 L 4.667969 14.667969 L 2 14.667969 L 2 1.332031 Z M 12.671875 1.332031 C 13.40625 1.332031 14 1.933594 14 2.660156 L 14 13.339844 C 14 14.074219 13.40625 14.667969 12.671875 14.667969 L 6 14.667969 L 6 1.332031 Z M 10 5.332031 L 7.332031 8 L 9.332031 8 L 9.332031 10.667969 L 10.667969 10.667969 L 10.667969 8 L 12.667969 8 Z M 16 8 L 16 10.667969 L 14.667969 10.667969 L 14.667969 8 Z M 16 4 L 16 6.667969 L 14.667969 6.667969 L 14.667969 4 Z M 16 4 "/>
</g>
</svg>
