<?xml version="1.0" encoding="UTF-8"?>
<svg xmlns="http://www.w3.org/2000/svg" xmlns:xlink="http://www.w3.org/1999/xlink" width="16" height="16" viewBox="0 0 16 16" version="1.1">
<g id="surface1">
<path style=" stroke:none;fill-rule:nonzero;fill:rgb(0%,0%,0%);fill-opacity:1;" d="M 12.667969 4.667969 L 16 4.667969 L 16 6 L 12.667969 6 Z M 11.332031 8 L 16 8 L 16 9.332031 L 11.332031 9.332031 Z M 13.332031 11.332031 L 16 11.332031 L 16 12.667969 L 13.332031 12.667969 Z M 1.332031 14.667969 C 1.332031 11.722656 3.722656 9.332031 6.667969 9.332031 C 9.613281 9.332031 12 11.722656 12 14.667969 L 10.667969 14.667969 C 10.667969 12.457031 8.875 10.667969 6.667969 10.667969 C 4.457031 10.667969 2.667969 12.457031 2.667969 14.667969 Z M 6.667969 8.667969 C 4.457031 8.667969 2.667969 6.875 2.667969 4.667969 C 2.667969 2.457031 4.457031 0.667969 6.667969 0.667969 C 8.875 0.667969 10.667969 2.457031 10.667969 4.667969 C 10.667969 6.875 8.875 8.667969 6.667969 8.667969 Z M 6.667969 7.332031 C 8.140625 7.332031 9.332031 6.140625 9.332031 4.667969 C 9.332031 3.191406 8.140625 2 6.667969 2 C 5.191406 2 4 3.191406 4 4.667969 C 4 6.140625 5.191406 7.332031 6.667969 7.332031 Z M 6.667969 7.332031 "/>
</g>
</svg>
