<?xml version="1.0" encoding="UTF-8"?>
<svg xmlns="http://www.w3.org/2000/svg" xmlns:xlink="http://www.w3.org/1999/xlink" width="16" height="16" viewBox="0 0 16 16" version="1.1">
<g id="surface1">
<path style=" stroke:none;fill-rule:evenodd;fill:rgb(0%,0%,0%);fill-opacity:1;" d="M 8.820312 1.195312 C 8.8125 1.195312 8.800781 1.195312 8.792969 1.199219 C 8.726562 1.210938 8.699219 1.289062 8.734375 1.34375 C 8.875 1.546875 8.960938 1.765625 9.015625 1.996094 L 4 1.996094 L 4 3 L 9.023438 3 C 8.964844 3.226562 8.882812 3.445312 8.742188 3.640625 C 8.6875 3.714844 8.757812 3.820312 8.84375 3.789062 L 11.949219 2.578125 C 12.015625 2.546875 12.015625 2.441406 11.949219 2.40625 L 8.84375 1.199219 C 8.835938 1.195312 8.828125 1.195312 8.820312 1.195312 Z M 3.5 6 C 2.945312 6 2.5 6.445312 2.5 7 L 2.5 10 C 2.5 10.554688 2.945312 11 3.5 11 L 6.5 11 C 7.054688 11 7.5 10.554688 7.5 10 L 7.5 7 C 7.5 6.445312 7.054688 6 6.5 6 Z M 9.5 6 C 8.945312 6 8.5 6.445312 8.5 7 L 8.5 10 C 8.5 10.554688 8.945312 11 9.5 11 L 12.5 11 C 13.054688 11 13.5 10.554688 13.5 10 L 13.5 7 C 13.5 6.445312 13.054688 6 12.5 6 Z M 2.5 12 C 1.671875 12 1 12.671875 1 13.5 C 1 14.328125 1.671875 15 2.5 15 L 13.5 15 C 14.328125 15 15 14.328125 15 13.5 C 15 12.671875 14.328125 12 13.5 12 Z M 3.914062 12.996094 L 12.085938 12.996094 C 12.03125 13.15625 12 13.328125 12 13.5 C 12 13.671875 12.03125 13.84375 12.085938 14.003906 L 3.914062 14.003906 C 3.96875 13.84375 4 13.671875 4 13.5 C 4 13.328125 3.96875 13.15625 3.914062 12.996094 Z M 3.914062 12.996094 "/>
</g>
</svg>
