<?xml version="1.0" encoding="UTF-8"?>
<svg xmlns="http://www.w3.org/2000/svg" xmlns:xlink="http://www.w3.org/1999/xlink" width="16" height="16" viewBox="0 0 16 16" version="1.1">
<g id="surface1">
<path style=" stroke:none;fill-rule:nonzero;fill:rgb(0%,0%,0%);fill-opacity:1;" d="M 8 1.332031 C 11.679688 1.332031 14.667969 4.320312 14.667969 8 C 14.667969 11.679688 11.679688 14.667969 8 14.667969 C 4.320312 14.667969 1.332031 11.679688 1.332031 8 C 1.332031 4.320312 4.320312 1.332031 8 1.332031 Z M 8 4.667969 C 6.160156 4.667969 4.667969 6.160156 4.667969 8 C 4.667969 9.839844 6.160156 11.332031 8 11.332031 C 9.214844 11.332031 10.273438 10.683594 10.859375 9.714844 L 9.714844 9.03125 C 9.21875 9.859375 8.199219 10.210938 7.296875 9.871094 C 6.390625 9.53125 5.859375 8.59375 6.03125 7.640625 C 6.207031 6.691406 7.035156 6 8 6 C 8.730469 6 9.367188 6.390625 9.714844 6.972656 L 10.859375 6.285156 C 10.257812 5.28125 9.171875 4.667969 8 4.667969 Z M 8 4.667969 "/>
</g>
</svg>
