<?xml version="1.0" encoding="UTF-8"?>
<svg xmlns="http://www.w3.org/2000/svg" xmlns:xlink="http://www.w3.org/1999/xlink" width="16" height="16" viewBox="0 0 16 16" version="1.1">
<g id="surface1">
<path style=" stroke:none;fill-rule:nonzero;fill:rgb(0%,0%,0%);fill-opacity:1;" d="M 8 14.667969 C 4.316406 14.667969 1.332031 11.683594 1.332031 8 C 1.332031 4.316406 4.316406 1.332031 8 1.332031 C 11.683594 1.332031 14.667969 4.316406 14.667969 8 C 14.667969 11.683594 11.683594 14.667969 8 14.667969 Z M 5.550781 8.203125 C 5.527344 8.769531 5.578125 9.335938 5.632812 9.898438 C 5.632812 9.9375 5.648438 9.949219 5.683594 9.953125 C 5.957031 9.988281 6.226562 10.019531 6.5 10.035156 C 7.140625 10.078125 7.785156 10.128906 8.429688 10.09375 C 8.796875 10.074219 9.164062 10.0625 9.527344 10.03125 C 10.046875 9.984375 10.570312 9.925781 11.082031 9.820312 C 11.71875 9.691406 12.351562 9.539062 12.949219 9.257812 C 13.21875 9.132812 13.476562 8.980469 13.691406 8.769531 C 13.851562 8.613281 13.964844 8.429688 13.964844 8.195312 C 13.964844 7.984375 13.957031 7.777344 13.933594 7.566406 C 13.886719 7.070312 13.78125 6.582031 13.613281 6.113281 C 13.226562 5.035156 12.605469 4.121094 11.730469 3.402344 C 10.988281 2.785156 10.105469 2.359375 9.164062 2.160156 C 8.828125 2.089844 8.492188 2.0625 8.152344 2.039062 C 7.769531 2.011719 7.445312 2.121094 7.160156 2.382812 C 6.832031 2.6875 6.601562 3.066406 6.414062 3.46875 C 5.96875 4.421875 5.765625 5.441406 5.636719 6.476562 C 5.558594 7.046875 5.53125 7.625 5.550781 8.203125 Z M 7.933594 4.847656 C 8.570312 4.871094 9.113281 5.066406 9.59375 5.421875 C 10.179688 5.835938 10.585938 6.457031 10.738281 7.160156 C 10.785156 7.363281 10.800781 7.570312 10.808594 7.777344 C 10.808594 7.914062 10.734375 8.015625 10.632812 8.101562 C 10.425781 8.273438 10.183594 8.371094 9.933594 8.441406 C 9.4375 8.578125 8.933594 8.660156 8.421875 8.683594 C 8.089844 8.703125 7.753906 8.707031 7.421875 8.691406 C 7.292969 8.683594 7.164062 8.675781 7.039062 8.671875 C 6.996094 8.667969 6.984375 8.65625 6.980469 8.617188 C 6.964844 8.328125 6.941406 8.039062 6.949219 7.75 C 6.957031 7.066406 7.011719 6.386719 7.210938 5.726562 C 7.28125 5.507812 7.363281 5.292969 7.492188 5.101562 C 7.609375 4.933594 7.746094 4.8125 7.933594 4.847656 Z M 7.933594 4.847656 "/>
</g>
</svg>
