<?xml version="1.0" encoding="UTF-8"?>
<svg xmlns="http://www.w3.org/2000/svg" xmlns:xlink="http://www.w3.org/1999/xlink" width="16" height="16" viewBox="0 0 16 16" version="1.1">
<g id="surface1">
<path style=" stroke:none;fill-rule:nonzero;fill:rgb(0%,0%,0%);fill-opacity:1;" d="M 7.332031 14 C 7.332031 13.449219 6.886719 13 6.332031 13 C 5.78125 13 5.332031 13.449219 5.332031 14 L 2 14 C 1.632812 14 1.332031 13.703125 1.332031 13.332031 L 1.332031 2.667969 C 1.332031 2.296875 1.632812 2 2 2 L 5.332031 2 C 5.332031 2.550781 5.78125 3 6.332031 3 C 6.886719 3 7.332031 2.550781 7.332031 2 L 14 2 C 14.367188 2 14.667969 2.296875 14.667969 2.667969 L 14.667969 6.332031 C 13.746094 6.332031 13 7.078125 13 8 C 13 8.921875 13.746094 9.667969 14.667969 9.667969 L 14.667969 13.332031 C 14.667969 13.703125 14.367188 14 14 14 Z M 6.332031 7 C 6.886719 7 7.332031 6.550781 7.332031 6 C 7.332031 5.449219 6.886719 5 6.332031 5 C 5.78125 5 5.332031 5.449219 5.332031 6 C 5.332031 6.550781 5.78125 7 6.332031 7 Z M 6.332031 11 C 6.886719 11 7.332031 10.550781 7.332031 10 C 7.332031 9.449219 6.886719 9 6.332031 9 C 5.78125 9 5.332031 9.449219 5.332031 10 C 5.332031 10.550781 5.78125 11 6.332031 11 Z M 6.332031 11 "/>
</g>
</svg>
