<?xml version="1.0" encoding="UTF-8"?>
<svg xmlns="http://www.w3.org/2000/svg" xmlns:xlink="http://www.w3.org/1999/xlink" width="16" height="16" viewBox="0 0 16 16" version="1.1">
<g id="surface1">
<path style=" stroke:none;fill-rule:nonzero;fill:rgb(0%,0%,0%);fill-opacity:1;" d="M 6.667969 14 L 2 14 C 1.632812 14 1.332031 13.703125 1.332031 13.332031 L 1.332031 2.667969 C 1.332031 2.296875 1.632812 2 2 2 L 6.667969 2 C 6.667969 2.738281 7.261719 3.332031 8 3.332031 C 8.738281 3.332031 9.332031 2.738281 9.332031 2 L 14 2 C 14.367188 2 14.667969 2.296875 14.667969 2.667969 L 14.667969 13.332031 C 14.667969 13.703125 14.367188 14 14 14 L 9.332031 14 C 9.332031 13.261719 8.738281 12.667969 8 12.667969 C 7.261719 12.667969 6.667969 13.261719 6.667969 14 Z M 5.691406 12.667969 C 6.167969 11.839844 7.046875 11.332031 8 11.332031 C 8.988281 11.332031 9.847656 11.871094 10.308594 12.667969 L 13.332031 12.667969 L 13.332031 3.332031 L 10.308594 3.332031 C 9.832031 4.160156 8.953125 4.667969 8 4.667969 C 7.046875 4.667969 6.167969 4.160156 5.691406 3.332031 L 2.667969 3.332031 L 2.667969 12.667969 Z M 4 5.332031 L 5.332031 5.332031 L 5.332031 10.667969 L 4 10.667969 Z M 10.667969 5.332031 L 12 5.332031 L 12 10.667969 L 10.667969 10.667969 Z M 10.667969 5.332031 "/>
</g>
</svg>
