<?xml version="1.0" encoding="UTF-8"?>
<svg xmlns="http://www.w3.org/2000/svg" xmlns:xlink="http://www.w3.org/1999/xlink" width="16" height="16" viewBox="0 0 16 16" version="1.1">
<g id="surface1">
<path style=" stroke:none;fill-rule:nonzero;fill:rgb(0%,0%,0%);fill-opacity:1;" d="M 1.332031 6.332031 L 1.332031 2.667969 C 1.332031 2.296875 1.632812 2 2 2 L 14 2 C 14.367188 2 14.667969 2.296875 14.667969 2.667969 L 14.667969 6.332031 C 13.746094 6.332031 13 7.078125 13 8 C 13 8.921875 13.746094 9.667969 14.667969 9.667969 L 14.667969 13.332031 C 14.667969 13.703125 14.367188 14 14 14 L 2 14 C 1.632812 14 1.332031 13.703125 1.332031 13.332031 L 1.332031 9.667969 C 2.253906 9.667969 3 8.921875 3 8 C 3 7.078125 2.253906 6.332031 1.332031 6.332031 Z M 6 6 L 6 7.332031 L 10 7.332031 L 10 6 Z M 6 8.667969 L 6 10 L 10 10 L 10 8.667969 Z M 6 8.667969 "/>
</g>
</svg>
