<?xml version="1.0" encoding="UTF-8"?>
<svg xmlns="http://www.w3.org/2000/svg" xmlns:xlink="http://www.w3.org/1999/xlink" width="16" height="16" viewBox="0 0 16 16" version="1.1">
<g id="surface1">
<path style=" stroke:none;fill-rule:nonzero;fill:rgb(0%,0%,0%);fill-opacity:1;" d="M 8 1.332031 C 11.679688 1.332031 14.667969 4.320312 14.667969 8 C 14.667969 11.679688 11.679688 14.667969 8 14.667969 C 4.320312 14.667969 1.332031 11.679688 1.332031 8 C 1.332031 4.320312 4.320312 1.332031 8 1.332031 Z M 8 2.667969 C 5.058594 2.667969 2.667969 5.058594 2.667969 8 C 2.667969 10.941406 5.058594 13.332031 8 13.332031 C 10.941406 13.332031 13.332031 10.941406 13.332031 8 C 13.332031 5.058594 10.941406 2.667969 8 2.667969 Z M 8 4 C 9.839844 4 11.332031 5.789062 11.332031 8 C 11.332031 10.210938 9.839844 12 8 12 C 6.546875 12 5.3125 10.886719 4.855469 9.332031 L 6.269531 9.335938 C 6.613281 10.128906 7.261719 10.667969 8 10.667969 C 9.105469 10.667969 10 9.472656 10 8 C 10 6.527344 9.105469 5.332031 8 5.332031 C 7.261719 5.332031 6.613281 5.871094 6.265625 6.667969 L 7.332031 6.667969 L 5.667969 8.667969 L 4 6.667969 L 4.855469 6.667969 C 5.3125 5.113281 6.546875 4 8 4 Z M 8 4 "/>
</g>
</svg>
