<?xml version="1.0" encoding="UTF-8"?>
<svg xmlns="http://www.w3.org/2000/svg" xmlns:xlink="http://www.w3.org/1999/xlink" width="16" height="16" viewBox="0 0 16 16" version="1.1">
<g id="surface1">
<path style=" stroke:none;fill-rule:nonzero;fill:rgb(0%,0%,0%);fill-opacity:1;" d="M 8 1.332031 C 10.332031 1.332031 12.453125 2.683594 13.4375 4.796875 C 14.421875 6.910156 14.09375 9.40625 12.597656 11.191406 C 13.433594 11.742188 13.953125 12.449219 13.996094 13.222656 L 14 13.332031 L 8 14.667969 L 2 13.332031 L 2.003906 13.222656 C 2.046875 12.449219 2.566406 11.742188 3.402344 11.191406 C 2.496094 10.109375 1.996094 8.746094 2 7.332031 C 2 4.019531 4.6875 1.332031 8 1.332031 Z M 8 2.667969 C 5.421875 2.667969 3.332031 4.757812 3.332031 7.332031 C 3.332031 8.378906 3.675781 9.367188 4.296875 10.175781 L 4.425781 10.332031 L 5.386719 11.476562 L 4.078125 12.34375 L 3.988281 12.410156 L 8 13.300781 L 12.011719 12.410156 L 11.980469 12.382812 L 11.859375 12.300781 L 10.613281 11.476562 L 11.574219 10.332031 C 12.28125 9.492188 12.667969 8.429688 12.667969 7.332031 C 12.667969 4.757812 10.578125 2.667969 8 2.667969 Z M 8 8.667969 C 8.921875 8.667969 9.667969 9.113281 9.667969 9.667969 C 9.667969 10.21875 8.921875 10.667969 8 10.667969 C 7.078125 10.667969 6.332031 10.21875 6.332031 9.667969 C 6.332031 9.113281 7.078125 8.667969 8 8.667969 Z M 6 5.332031 C 6.738281 5.332031 7.332031 5.78125 7.332031 6.332031 C 7.332031 6.886719 6.738281 7.332031 6 7.332031 C 5.261719 7.332031 4.667969 6.886719 4.667969 6.332031 C 4.667969 5.78125 5.261719 5.332031 6 5.332031 Z M 10 5.332031 C 10.738281 5.332031 11.332031 5.78125 11.332031 6.332031 C 11.332031 6.886719 10.738281 7.332031 10 7.332031 C 9.261719 7.332031 8.667969 6.886719 8.667969 6.332031 C 8.667969 5.78125 9.261719 5.332031 10 5.332031 Z M 10 5.332031 "/>
</g>
</svg>
