<?xml version="1.0" encoding="UTF-8"?>
<svg xmlns="http://www.w3.org/2000/svg" xmlns:xlink="http://www.w3.org/1999/xlink" width="16" height="16" viewBox="0 0 16 16" version="1.1">
<g id="surface1">
<path style=" stroke:none;fill-rule:nonzero;fill:rgb(0%,0%,0%);fill-opacity:1;" d="M 11.332031 10.667969 L 12.667969 10.667969 L 12.667969 2.667969 L 6 2.667969 L 6 4 L 11.332031 4 Z M 11.332031 12 L 11.332031 14 C 11.332031 14.367188 11.035156 14.667969 10.660156 14.667969 L 2.671875 14.667969 C 2.492188 14.667969 2.324219 14.597656 2.195312 14.472656 C 2.070312 14.347656 2 14.175781 2 14 L 2.003906 4.667969 C 2.003906 4.296875 2.300781 4 2.671875 4 L 4.667969 4 L 4.667969 2 C 4.667969 1.632812 4.964844 1.332031 5.332031 1.332031 L 13.332031 1.332031 C 13.703125 1.332031 14 1.632812 14 2 L 14 11.332031 C 14 11.703125 13.703125 12 13.332031 12 Z M 4.667969 10.667969 L 4.667969 12 L 6 12 L 6 12.667969 L 7.332031 12.667969 L 7.332031 12 L 7.667969 12 C 8.585938 12 9.332031 11.253906 9.332031 10.332031 C 9.332031 9.414062 8.585938 8.667969 7.667969 8.667969 L 5.667969 8.667969 C 5.484375 8.667969 5.332031 8.515625 5.332031 8.332031 C 5.332031 8.148438 5.484375 8 5.667969 8 L 8.667969 8 L 8.667969 6.667969 L 7.332031 6.667969 L 7.332031 6 L 6 6 L 6 6.667969 L 5.667969 6.667969 C 4.746094 6.667969 4 7.414062 4 8.332031 C 4 9.253906 4.746094 10 5.667969 10 L 7.667969 10 C 7.851562 10 8 10.148438 8 10.332031 C 8 10.515625 7.851562 10.667969 7.667969 10.667969 Z M 4.667969 10.667969 "/>
</g>
</svg>
