<?xml version="1.0" encoding="UTF-8"?>
<svg xmlns="http://www.w3.org/2000/svg" xmlns:xlink="http://www.w3.org/1999/xlink" width="16" height="16" viewBox="0 0 16 16" version="1.1">
<g id="surface1">
<path style=" stroke:none;fill-rule:nonzero;fill:rgb(0%,0%,0%);fill-opacity:1;" d="M 14.667969 11.335938 C 14.667969 13.214844 13.359375 14.839844 11.523438 15.242188 L 11.097656 13.964844 C 11.886719 13.835938 12.578125 13.359375 12.976562 12.667969 L 11.332031 12.667969 C 10.597656 12.667969 10 12.070312 10 11.332031 L 10 8.667969 C 10 7.929688 10.597656 7.332031 11.332031 7.332031 L 13.292969 7.332031 C 12.957031 4.667969 10.6875 2.667969 8 2.667969 C 5.3125 2.667969 3.042969 4.667969 2.707031 7.332031 L 4.667969 7.332031 C 5.402344 7.332031 6 7.929688 6 8.667969 L 6 11.332031 C 6 12.070312 5.402344 12.667969 4.667969 12.667969 L 2.667969 12.667969 C 1.929688 12.667969 1.332031 12.070312 1.332031 11.332031 L 1.332031 8 C 1.332031 4.316406 4.316406 1.332031 8 1.332031 C 11.683594 1.332031 14.667969 4.316406 14.667969 8 Z M 14.667969 11.335938 "/>
</g>
</svg>
