<?xml version="1.0" encoding="UTF-8"?>
<svg xmlns="http://www.w3.org/2000/svg" xmlns:xlink="http://www.w3.org/1999/xlink" width="16" height="16" viewBox="0 0 16 16" version="1.1">
<g id="surface1">
<path style=" stroke:none;fill-rule:nonzero;fill:rgb(0%,0%,0%);fill-opacity:1;" d="M 13.292969 5.332031 L 14 5.332031 C 14.738281 5.332031 15.332031 5.929688 15.332031 6.667969 L 15.332031 9.332031 C 15.332031 10.070312 14.738281 10.667969 14 10.667969 L 13.292969 10.667969 C 12.957031 13.332031 10.6875 15.332031 8 15.332031 L 8 14 C 10.210938 14 12 12.210938 12 10 L 12 6 C 12 3.789062 10.210938 2 8 2 C 5.789062 2 4 3.789062 4 6 L 4 10.667969 L 2 10.667969 C 1.261719 10.667969 0.667969 10.070312 0.667969 9.332031 L 0.667969 6.667969 C 0.667969 5.929688 1.261719 5.332031 2 5.332031 L 2.707031 5.332031 C 3.042969 2.667969 5.3125 0.667969 8 0.667969 C 10.6875 0.667969 12.957031 2.667969 13.292969 5.332031 Z M 2 6.667969 L 2 9.332031 L 2.667969 9.332031 L 2.667969 6.667969 Z M 13.332031 6.667969 L 13.332031 9.332031 L 14 9.332031 L 14 6.667969 Z M 5.171875 10.523438 L 5.878906 9.394531 C 6.515625 9.789062 7.25 10 8 10 C 8.75 10 9.484375 9.789062 10.121094 9.394531 L 10.828125 10.523438 C 9.980469 11.054688 9 11.335938 8 11.332031 C 7 11.335938 6.019531 11.054688 5.171875 10.523438 Z M 5.171875 10.523438 "/>
</g>
</svg>
