<?xml version="1.0" encoding="UTF-8"?>
<svg xmlns="http://www.w3.org/2000/svg" xmlns:xlink="http://www.w3.org/1999/xlink" width="16" height="16" viewBox="0 0 16 16" version="1.1">
<g id="surface1">
<path style=" stroke:none;fill-rule:nonzero;fill:rgb(0%,0%,0%);fill-opacity:1;" d="M 8 1.332031 C 11.683594 1.332031 14.667969 4.316406 14.667969 8 C 14.667969 11.683594 11.683594 14.667969 8 14.667969 C 4.316406 14.667969 1.332031 11.683594 1.332031 8 C 1.332031 4.316406 4.316406 1.332031 8 1.332031 Z M 8 2.667969 C 5.054688 2.667969 2.667969 5.054688 2.667969 8 C 2.667969 10.945312 5.054688 13.332031 8 13.332031 C 10.945312 13.332031 13.332031 10.945312 13.332031 8 C 13.332031 5.054688 10.945312 2.667969 8 2.667969 Z M 8 3.332031 C 8.679688 3.332031 9.324219 3.476562 9.90625 3.738281 L 8.863281 4.78125 C 8.589844 4.707031 8.296875 4.667969 8 4.667969 C 6.160156 4.667969 4.667969 6.160156 4.667969 8 C 4.667969 8.921875 5.039062 9.753906 5.644531 10.355469 L 4.699219 11.300781 L 4.597656 11.191406 C 3.8125 10.359375 3.332031 9.234375 3.332031 8 C 3.332031 5.421875 5.421875 3.332031 8 3.332031 Z M 12.261719 6.09375 C 12.519531 6.675781 12.667969 7.320312 12.667969 8 C 12.667969 9.289062 12.144531 10.457031 11.300781 11.300781 L 10.355469 10.355469 C 10.960938 9.753906 11.332031 8.921875 11.332031 8 C 11.332031 7.703125 11.292969 7.410156 11.21875 7.136719 Z M 10.828125 4.230469 L 11.769531 5.171875 L 9.289062 7.65625 C 9.316406 7.765625 9.332031 7.878906 9.332031 8 C 9.332031 8.738281 8.738281 9.332031 8 9.332031 C 7.261719 9.332031 6.667969 8.738281 6.667969 8 C 6.667969 7.261719 7.261719 6.667969 8 6.667969 C 8.121094 6.667969 8.234375 6.683594 8.34375 6.710938 Z M 10.828125 4.230469 "/>
</g>
</svg>
