<?xml version="1.0" encoding="UTF-8"?>
<svg xmlns="http://www.w3.org/2000/svg" xmlns:xlink="http://www.w3.org/1999/xlink" width="16" height="16" viewBox="0 0 16 16" version="1.1">
<g id="surface1">
<path style=" stroke:none;fill-rule:nonzero;fill:rgb(0%,0%,0%);fill-opacity:1;" d="M 14 6.332031 L 14 8.332031 C 14 9.988281 11.3125 11.332031 8 11.332031 C 4.6875 11.332031 2 9.988281 2 8.332031 L 2 6.332031 C 2 7.988281 4.6875 9.332031 8 9.332031 C 11.3125 9.332031 14 7.988281 14 6.332031 Z M 2 9.667969 C 2 11.324219 4.6875 12.667969 8 12.667969 C 11.3125 12.667969 14 11.324219 14 9.667969 L 14 11.667969 C 14 13.324219 11.3125 14.667969 8 14.667969 C 4.6875 14.667969 2 13.324219 2 11.667969 Z M 8 8 C 4.6875 8 2 6.65625 2 5 C 2 3.34375 4.6875 2 8 2 C 11.3125 2 14 3.34375 14 5 C 14 6.65625 11.3125 8 8 8 Z M 8 8 "/>
</g>
</svg>
