<?xml version="1.0" encoding="UTF-8"?>
<svg xmlns="http://www.w3.org/2000/svg" xmlns:xlink="http://www.w3.org/1999/xlink" width="16" height="16" viewBox="0 0 16 16" version="1.1">
<g id="surface1">
<path style=" stroke:none;fill-rule:nonzero;fill:rgb(0%,0%,0%);fill-opacity:1;" d="M 4.355469 2 L 14 2 C 14.367188 2 14.667969 2.296875 14.667969 2.667969 L 14.667969 13.332031 C 14.667969 13.703125 14.367188 14 14 14 L 4.355469 14 C 4.132812 14 3.925781 13.890625 3.800781 13.703125 L 0.246094 8.371094 C 0.0976562 8.144531 0.0976562 7.855469 0.246094 7.628906 L 3.800781 2.296875 C 3.925781 2.109375 4.132812 2 4.355469 2 Z M 8.667969 7.058594 L 6.78125 5.171875 L 5.839844 6.113281 L 7.722656 8 L 5.839844 9.886719 L 6.78125 10.828125 L 8.667969 8.941406 L 10.550781 10.828125 L 11.496094 9.886719 L 9.609375 8 L 11.496094 6.113281 L 10.550781 5.171875 Z M 8.667969 7.058594 "/>
</g>
</svg>
