<?xml version="1.0" encoding="UTF-8"?>
<svg xmlns="http://www.w3.org/2000/svg" xmlns:xlink="http://www.w3.org/1999/xlink" width="16" height="16" viewBox="0 0 16 16" version="1.1">
<g id="surface1">
<path style=" stroke:none;fill-rule:nonzero;fill:rgb(0%,0%,0%);fill-opacity:1;" d="M 4.355469 2 L 14 2 C 14.367188 2 14.667969 2.296875 14.667969 2.667969 L 14.667969 13.332031 C 14.667969 13.703125 14.367188 14 14 14 L 4.355469 14 C 4.132812 14 3.925781 13.890625 3.800781 13.703125 L 0.246094 8.371094 C 0.0976562 8.144531 0.0976562 7.855469 0.246094 7.628906 L 3.800781 2.296875 C 3.925781 2.109375 4.132812 2 4.355469 2 Z M 4.714844 3.332031 L 1.601562 8 L 4.714844 12.667969 L 13.332031 12.667969 L 13.332031 3.332031 Z M 10.667969 7.332031 L 10.667969 8.667969 L 6 8.667969 L 6 7.332031 Z M 10.667969 7.332031 "/>
</g>
</svg>
