<?xml version="1.0" encoding="UTF-8"?>
<svg xmlns="http://www.w3.org/2000/svg" xmlns:xlink="http://www.w3.org/1999/xlink" width="16" height="16" viewBox="0 0 16 16" version="1.1">
<g id="surface1">
<path style=" stroke:none;fill-rule:nonzero;fill:rgb(0%,0%,0%);fill-opacity:1;" d="M 9.277344 9.71875 C 9.167969 9.746094 9.0625 9.769531 8.953125 9.789062 C 8.367188 9.898438 7.761719 9.898438 7.175781 9.78125 C 7.074219 9.761719 6.929688 9.726562 6.742188 9.675781 L 6.128906 10.476562 C 4.613281 10.425781 4.035156 9.410156 4.035156 9.410156 C 4.035156 7.15625 5.023438 5.328125 5.023438 5.328125 C 6.011719 4.574219 6.949219 4.59375 6.949219 4.59375 L 7.21875 4.945312 C 7.242188 4.941406 7.269531 4.941406 7.292969 4.9375 C 7.804688 4.871094 8.324219 4.871094 8.835938 4.945312 L 9.132812 4.59375 C 9.132812 4.59375 10.070312 4.574219 11.058594 5.332031 C 11.058594 5.332031 12.046875 7.15625 12.046875 9.410156 C 12.046875 9.410156 11.460938 10.425781 9.949219 10.476562 Z M 6.71875 7.332031 C 6.316406 7.332031 6 7.632812 6 8 C 6 8.367188 6.324219 8.667969 6.71875 8.667969 C 7.117188 8.667969 7.433594 8.367188 7.433594 8 C 7.441406 7.632812 7.117188 7.332031 6.71875 7.332031 Z M 9.28125 7.332031 C 8.882812 7.332031 8.566406 7.632812 8.566406 8 C 8.566406 8.367188 8.890625 8.667969 9.28125 8.667969 C 9.683594 8.667969 10 8.367188 10 8 C 10 7.632812 9.683594 7.332031 9.28125 7.332031 Z M 14 15.332031 L 10.671875 12 L 12.667969 12 L 12.667969 2.667969 L 3.332031 2.667969 L 3.332031 12 L 10.667969 12 L 11.046875 13.332031 L 3.332031 13.332031 C 2.597656 13.332031 2 12.738281 2 12 L 2 2.667969 C 2 1.929688 2.597656 1.332031 3.332031 1.332031 L 12.667969 1.332031 C 13.402344 1.332031 14 1.929688 14 2.667969 Z M 14 15.332031 "/>
</g>
</svg>
