<?xml version="1.0" encoding="UTF-8"?>
<svg xmlns="http://www.w3.org/2000/svg" xmlns:xlink="http://www.w3.org/1999/xlink" width="16" height="16" viewBox="0 0 16 16" version="1.1">
<g id="surface1">
<path style=" stroke:none;fill-rule:nonzero;fill:rgb(0%,0%,0%);fill-opacity:1;" d="M 8.667969 6.113281 C 7.84375 5.824219 6.929688 6.097656 6.40625 6.792969 C 5.878906 7.488281 5.863281 8.441406 6.367188 9.152344 C 6.871094 9.863281 7.773438 10.167969 8.605469 9.90625 C 9.433594 9.640625 10 8.871094 10 8 L 10 1.636719 C 12.703125 2.488281 14.667969 5.015625 14.667969 8 C 14.667969 11.683594 11.683594 14.667969 8 14.667969 C 4.316406 14.667969 1.332031 11.683594 1.332031 8 C 1.332031 4.316406 4.316406 1.332031 8 1.332031 C 8.226562 1.332031 8.449219 1.34375 8.667969 1.367188 Z M 8.667969 6.113281 "/>
</g>
</svg>
