<?xml version="1.0" encoding="UTF-8"?>
<svg xmlns="http://www.w3.org/2000/svg" xmlns:xlink="http://www.w3.org/1999/xlink" width="16" height="16" viewBox="0 0 16 16" version="1.1">
<g id="surface1">
<path style=" stroke:none;fill-rule:nonzero;fill:rgb(0%,0%,0%);fill-opacity:1;" d="M 10 3.054688 L 10 8 C 10 8.871094 9.433594 9.640625 8.605469 9.90625 C 7.773438 10.167969 6.871094 9.863281 6.367188 9.152344 C 5.863281 8.441406 5.878906 7.488281 6.40625 6.792969 C 6.929688 6.097656 7.84375 5.824219 8.667969 6.113281 L 8.667969 1.367188 C 12.035156 1.699219 14.667969 4.542969 14.667969 8 C 14.667969 11.683594 11.683594 14.667969 8 14.667969 C 4.316406 14.667969 1.332031 11.683594 1.332031 8 C 1.332031 4.542969 3.964844 1.699219 7.332031 1.367188 L 7.332031 2.707031 C 4.542969 3.0625 2.507812 5.523438 2.683594 8.332031 C 2.859375 11.140625 5.1875 13.328125 8 13.332031 C 10.554688 13.335938 12.75 11.527344 13.238281 9.019531 C 13.726562 6.511719 12.367188 4.011719 10 3.054688 Z M 10 3.054688 "/>
</g>
</svg>
