<?xml version="1.0" encoding="UTF-8"?>
<svg xmlns="http://www.w3.org/2000/svg" xmlns:xlink="http://www.w3.org/1999/xlink" width="16" height="16" viewBox="0 0 16 16" version="1.1">
<g id="surface1">
<path style=" stroke:none;fill-rule:nonzero;fill:rgb(0%,0%,0%);fill-opacity:1;" d="M 1.871094 0.929688 L 14.128906 13.183594 L 13.183594 14.128906 L 10.6875 11.628906 L 8 14.324219 L 2.347656 8.660156 C 0.988281 7.140625 0.996094 4.828125 2.371094 3.3125 L 0.929688 1.871094 Z M 3.320312 7.75 L 8 12.4375 L 9.746094 10.6875 L 3.316406 4.257812 C 2.453125 5.253906 2.449219 6.746094 3.320312 7.75 Z M 13.496094 3.171875 C 15.003906 4.683594 15.054688 7.089844 13.652344 8.660156 L 12.5625 9.753906 L 11.621094 8.808594 L 12.679688 7.75 C 13.597656 6.699219 13.546875 5.109375 12.550781 4.113281 C 11.550781 3.113281 9.9375 3.070312 8.890625 4.011719 L 8 4.808594 L 7.109375 4.011719 C 6.878906 3.800781 6.617188 3.640625 6.339844 3.53125 L 4.839844 2.03125 C 5.953125 1.894531 7.113281 2.222656 8 3.019531 C 9.566406 1.613281 11.988281 1.660156 13.496094 3.171875 Z M 13.496094 3.171875 "/>
</g>
</svg>
