<?xml version="1.0" encoding="UTF-8"?>
<svg xmlns="http://www.w3.org/2000/svg" xmlns:xlink="http://www.w3.org/1999/xlink" width="16" height="16" viewBox="0 0 16 16" version="1.1">
<g id="surface1">
<path style=" stroke:none;fill-rule:nonzero;fill:rgb(0%,0%,0%);fill-opacity:1;" d="M 7.964844 1.332031 C 11.648438 1.332031 14.632812 4.316406 14.632812 8 C 14.632812 11.683594 11.648438 14.667969 7.964844 14.667969 C 6.429688 14.667969 4.972656 14.144531 3.800781 13.207031 L 0.65625 13.597656 L 1.800781 10.542969 C 1.472656 9.742188 1.300781 8.882812 1.300781 8 C 1.300781 4.316406 4.285156 1.332031 7.964844 1.332031 Z M 7.964844 2.667969 C 5.019531 2.667969 2.632812 5.054688 2.632812 8 C 2.632812 8.785156 2.800781 9.546875 3.125 10.242188 L 3.242188 10.496094 L 2.679688 12 L 4.222656 11.808594 L 4.445312 12.007812 C 5.414062 12.855469 6.652344 13.332031 7.964844 13.332031 C 10.910156 13.332031 13.300781 10.945312 13.300781 8 C 13.300781 5.054688 10.910156 2.667969 7.964844 2.667969 Z M 5.332031 4.667969 L 7.859375 4.667969 C 10.140625 4.667969 11.488281 5.96875 11.554688 7.820312 L 11.554688 7.980469 C 11.554688 9.855469 10.246094 11.261719 7.996094 11.332031 L 5.332031 11.332031 L 5.332031 4.667969 L 7.859375 4.667969 Z M 7.886719 6.304688 L 7.148438 6.304688 L 7.148438 9.695312 L 7.886719 9.695312 C 8.929688 9.695312 9.636719 9.132812 9.691406 8.132812 L 9.691406 7.992188 C 9.691406 6.925781 8.972656 6.304688 7.886719 6.304688 Z M 7.886719 6.304688 "/>
</g>
</svg>
