<?xml version="1.0" encoding="UTF-8"?>
<svg xmlns="http://www.w3.org/2000/svg" xmlns:xlink="http://www.w3.org/1999/xlink" width="16" height="16" viewBox="0 0 16 16" version="1.1">
<g id="surface1">
<path style=" stroke:none;fill-rule:nonzero;fill:rgb(0%,0%,0%);fill-opacity:1;" d="M 8 1.332031 C 11.683594 1.332031 14.667969 4.316406 14.667969 8 C 14.667969 11.683594 11.683594 14.667969 8 14.667969 C 6.3125 14.667969 4.773438 14.039062 3.597656 13.007812 L 1 13.332031 L 1.949219 10.800781 C 1.554688 9.949219 1.332031 9 1.332031 8 C 1.332031 4.316406 4.316406 1.332031 8 1.332031 Z M 5.332031 4.667969 L 5.332031 11.332031 L 7.996094 11.332031 C 10.246094 11.261719 11.554688 9.855469 11.554688 7.980469 L 11.554688 7.820312 C 11.488281 5.96875 10.140625 4.667969 7.859375 4.667969 Z M 7.886719 6.304688 C 8.972656 6.304688 9.691406 6.925781 9.691406 7.992188 L 9.691406 8.132812 C 9.636719 9.132812 8.929688 9.695312 7.886719 9.695312 L 7.148438 9.695312 L 7.148438 6.304688 Z M 7.886719 6.304688 "/>
</g>
</svg>
