<?xml version="1.0" encoding="UTF-8"?>
<svg xmlns="http://www.w3.org/2000/svg" xmlns:xlink="http://www.w3.org/1999/xlink" width="16" height="16" viewBox="0 0 16 16" version="1.1">
<g id="surface1">
<path style=" stroke:none;fill-rule:nonzero;fill:rgb(0%,0%,0%);fill-opacity:1;" d="M 3.332031 7.332031 L 12.667969 7.332031 L 12.667969 8.667969 L 3.332031 8.667969 Z M 8 5.332031 C 7.449219 5.332031 7 4.886719 7 4.332031 C 7 3.78125 7.449219 3.332031 8 3.332031 C 8.550781 3.332031 9 3.78125 9 4.332031 C 9 4.886719 8.550781 5.332031 8 5.332031 Z M 8 12.667969 C 7.449219 12.667969 7 12.21875 7 11.667969 C 7 11.113281 7.449219 10.667969 8 10.667969 C 8.550781 10.667969 9 11.113281 9 11.667969 C 9 12.21875 8.550781 12.667969 8 12.667969 Z M 8 12.667969 "/>
</g>
</svg>
