<?xml version="1.0" encoding="UTF-8"?>
<svg xmlns="http://www.w3.org/2000/svg" xmlns:xlink="http://www.w3.org/1999/xlink" width="16" height="16" viewBox="0 0 16 16" version="1.1">
<g id="surface1">
<path style=" stroke:none;fill-rule:nonzero;fill:rgb(0%,0%,0%);fill-opacity:1;" d="M 1.332031 14 L 1.332031 12.667969 L 2.667969 12.667969 L 2.667969 3.222656 C 2.667969 2.902344 2.898438 2.625 3.214844 2.566406 L 9.527344 1.417969 C 9.746094 1.378906 9.953125 1.523438 9.992188 1.742188 C 9.996094 1.765625 10 1.789062 10 1.8125 L 10 2.664062 L 12.667969 2.667969 C 13.035156 2.667969 13.332031 2.964844 13.332031 3.332031 L 13.332031 12.667969 L 14.667969 12.667969 L 14.667969 14 L 12 14 L 12 4 L 10 4 L 10 14 Z M 8.667969 2.929688 L 4 3.78125 L 4 12.667969 L 8.667969 12.667969 Z M 8 7.332031 L 8 8.667969 L 6.667969 8.667969 L 6.667969 7.332031 Z M 8 7.332031 "/>
</g>
</svg>
