<?xml version="1.0" encoding="UTF-8"?>
<svg xmlns="http://www.w3.org/2000/svg" xmlns:xlink="http://www.w3.org/1999/xlink" width="16" height="16" viewBox="0 0 16 16" version="1.1">
<g id="surface1">
<path style=" stroke:none;fill-rule:nonzero;fill:rgb(0%,0%,0%);fill-opacity:1;" d="M 12 2 C 12.367188 2 12.667969 2.296875 12.667969 2.667969 L 12.667969 13.332031 C 12.667969 13.703125 12.367188 14 12 14 L 4 14 C 3.632812 14 3.332031 13.703125 3.332031 13.332031 L 3.332031 2.667969 C 3.332031 2.296875 3.632812 2 4 2 Z M 9.332031 7.332031 C 8.964844 7.332031 8.667969 7.632812 8.667969 8 C 8.667969 8.367188 8.964844 8.667969 9.332031 8.667969 C 9.703125 8.667969 10 8.367188 10 8 C 10 7.632812 9.703125 7.332031 9.332031 7.332031 Z M 9.332031 7.332031 "/>
</g>
</svg>
