<?xml version="1.0" encoding="UTF-8"?>
<svg xmlns="http://www.w3.org/2000/svg" xmlns:xlink="http://www.w3.org/1999/xlink" width="16" height="16" viewBox="0 0 16 16" version="1.1">
<g id="surface1">
<path style=" stroke:none;fill-rule:nonzero;fill:rgb(0%,0%,0%);fill-opacity:1;" d="M 11.332031 1.332031 L 11.332031 2.667969 L 13.332031 2.667969 C 13.703125 2.667969 14 2.964844 14 3.332031 L 14 14 C 14 14.367188 13.703125 14.667969 13.332031 14.667969 L 2.667969 14.667969 C 2.296875 14.667969 2 14.367188 2 14 L 2 3.332031 C 2 2.964844 2.296875 2.667969 2.667969 2.667969 L 4.667969 2.667969 L 4.667969 1.332031 Z M 8.667969 7.332031 L 7.332031 7.332031 L 7.332031 8.667969 L 6 8.667969 L 6 10 L 7.332031 10 L 7.332031 11.332031 L 8.667969 11.332031 L 8.664062 10 L 10 10 L 10 8.667969 L 8.667969 8.667969 Z M 10 2.667969 L 6 2.667969 L 6 4 L 10 4 Z M 10 2.667969 "/>
</g>
</svg>
