<?xml version="1.0" encoding="UTF-8"?>
<svg xmlns="http://www.w3.org/2000/svg" xmlns:xlink="http://www.w3.org/1999/xlink" width="16" height="16" viewBox="0 0 16 16" version="1.1">
<g id="surface1">
<path style=" stroke:none;fill-rule:nonzero;fill:rgb(0%,0%,0%);fill-opacity:1;" d="M 10.667969 8.667969 L 15.308594 11.375 L 13.328125 11.941406 L 14.742188 14.394531 L 13.589844 15.0625 L 12.171875 12.609375 L 10.691406 14.042969 Z M 9.332031 4 L 10.667969 4 L 10.667969 5.332031 L 14 5.332031 C 14.367188 5.332031 14.667969 5.632812 14.667969 6 L 14.667969 8.667969 L 13.332031 8.667969 L 13.332031 6.667969 L 6.667969 6.667969 L 6.667969 13.332031 L 9.332031 13.332031 L 9.332031 14.667969 L 6 14.667969 C 5.632812 14.667969 5.332031 14.367188 5.332031 14 L 5.332031 10.667969 L 4 10.667969 L 4 9.332031 L 5.332031 9.332031 L 5.332031 6 C 5.332031 5.632812 5.632812 5.332031 6 5.332031 L 9.332031 5.332031 Z M 2.667969 9.332031 L 2.667969 10.667969 L 1.332031 10.667969 L 1.332031 9.332031 Z M 2.667969 6.667969 L 2.667969 8 L 1.332031 8 L 1.332031 6.667969 Z M 2.667969 4 L 2.667969 5.332031 L 1.332031 5.332031 L 1.332031 4 Z M 2.667969 1.332031 L 2.667969 2.667969 L 1.332031 2.667969 L 1.332031 1.332031 Z M 5.332031 1.332031 L 5.332031 2.667969 L 4 2.667969 L 4 1.332031 Z M 8 1.332031 L 8 2.667969 L 6.667969 2.667969 L 6.667969 1.332031 Z M 10.667969 1.332031 L 10.667969 2.667969 L 9.332031 2.667969 L 9.332031 1.332031 Z M 10.667969 1.332031 "/>
</g>
</svg>
