<?xml version="1.0" encoding="UTF-8"?>
<svg xmlns="http://www.w3.org/2000/svg" xmlns:xlink="http://www.w3.org/1999/xlink" width="16" height="16" viewBox="0 0 16 16" version="1.1">
<g id="surface1">
<path style=" stroke:none;fill-rule:nonzero;fill:rgb(0%,0%,0%);fill-opacity:1;" d="M 5.765625 11.507812 L 8.023438 12.949219 L 10.285156 11.507812 L 11.527344 12.296875 L 8.023438 14.527344 L 4.523438 12.296875 Z M 5.179688 5.988281 L 6.773438 4.953125 L 5.15625 3.902344 L 3.519531 4.914062 Z M 6.40625 6.78125 L 8 7.8125 L 9.59375 6.78125 L 8 5.746094 Z M 9.226562 8.605469 L 10.84375 9.652344 L 12.476562 8.652344 L 10.820312 7.574219 Z M 8 4.15625 L 10.824219 2.324219 L 14.972656 4.886719 L 12.046875 6.78125 L 14.972656 8.683594 L 10.824219 11.226562 L 8 9.398438 L 5.175781 11.226562 L 1.023438 8.683594 L 3.953125 6.78125 L 1.027344 4.886719 L 5.175781 2.324219 Z M 9.226562 4.949219 L 10.820312 5.988281 L 12.480469 4.914062 L 10.84375 3.902344 L 9.226562 4.953125 Z M 6.773438 8.605469 L 5.179688 7.574219 L 3.523438 8.652344 L 5.15625 9.652344 Z M 6.773438 8.605469 "/>
</g>
</svg>
