<?xml version="1.0" encoding="UTF-8"?>
<svg xmlns="http://www.w3.org/2000/svg" xmlns:xlink="http://www.w3.org/1999/xlink" width="16" height="16" viewBox="0 0 16 16" version="1.1">
<g id="surface1">
<path style=" stroke:none;fill-rule:nonzero;fill:rgb(0%,0%,0%);fill-opacity:1;" d="M 2.734375 0 C 2.5625 1.507812 1.917969 2.652344 1.28125 3.691406 C 0.648438 4.730469 -0.0117188 5.660156 0 6.816406 C 0.0117188 7.945312 0.660156 8.6875 1.328125 9.078125 C 1.984375 9.460938 2.644531 9.570312 3.066406 9.523438 C 3.488281 9.570312 4.148438 9.460938 4.804688 9.078125 C 5.476562 8.6875 6.121094 7.945312 6.132812 6.816406 C 6.148438 5.660156 5.484375 4.730469 4.851562 3.691406 C 4.214844 2.652344 3.570312 1.507812 3.398438 0 Z M 2.734375 0 "/>
<path style=" stroke:none;fill-rule:nonzero;fill:rgb(0%,0%,0%);fill-opacity:1;" d="M 7.671875 6.464844 C 7.496094 7.972656 6.851562 9.117188 6.21875 10.15625 C 5.582031 11.195312 4.921875 12.125 4.933594 13.28125 C 4.945312 14.410156 5.59375 15.152344 6.261719 15.539062 C 6.917969 15.925781 7.578125 16.035156 8 15.992188 C 8.421875 16.035156 9.085938 15.925781 9.738281 15.539062 C 10.40625 15.152344 11.054688 14.410156 11.066406 13.28125 C 11.078125 12.125 10.417969 11.195312 9.78125 10.15625 C 9.148438 9.117188 8.503906 7.972656 8.328125 6.464844 Z M 7.671875 6.464844 "/>
<path style=" stroke:none;fill-rule:nonzero;fill:rgb(0%,0%,0%);fill-opacity:1;" d="M 12.601562 0 C 12.429688 1.507812 11.785156 2.652344 11.148438 3.691406 C 10.515625 4.730469 9.851562 5.660156 9.867188 6.816406 C 9.875 7.945312 10.523438 8.6875 11.195312 9.078125 C 11.851562 9.460938 12.511719 9.570312 12.933594 9.523438 C 13.355469 9.570312 14.015625 9.460938 14.671875 9.078125 C 15.339844 8.6875 15.988281 7.945312 16 6.816406 C 16.011719 5.660156 15.351562 4.730469 14.71875 3.691406 C 14.082031 2.652344 13.4375 1.507812 13.265625 0 Z M 12.601562 0 "/>
</g>
</svg>
