<?xml version="1.0" encoding="UTF-8"?>
<svg xmlns="http://www.w3.org/2000/svg" xmlns:xlink="http://www.w3.org/1999/xlink" width="16" height="16" viewBox="0 0 16 16" version="1.1">
<g id="surface1">
<path style=" stroke:none;fill-rule:nonzero;fill:rgb(0%,0%,0%);fill-opacity:1;" d="M 10 1.332031 L 13.136719 4.472656 C 13.261719 4.597656 13.332031 4.765625 13.332031 4.941406 L 13.332031 14 C 13.332031 14.367188 13.035156 14.667969 12.667969 14.667969 L 3.332031 14.667969 C 2.964844 14.667969 2.667969 14.367188 2.667969 14 L 2.667969 2 C 2.667969 1.632812 2.964844 1.332031 3.332031 1.332031 Z M 9.449219 2.667969 L 4 2.667969 L 4 13.332031 L 12 13.332031 L 12 5.21875 Z M 8 5 C 8.828125 5 9.570312 5.511719 9.867188 6.28125 C 10.164062 7.054688 9.953125 7.929688 9.339844 8.484375 L 9.335938 8.480469 L 9.339844 8.488281 L 8.398438 9.332031 L 10 9.332031 L 10 10.667969 L 6 10.667969 L 6 9.699219 L 8.445312 7.496094 C 8.671875 7.289062 8.730469 6.957031 8.589844 6.6875 C 8.445312 6.417969 8.136719 6.28125 7.839844 6.355469 C 7.542969 6.425781 7.332031 6.695312 7.332031 7 L 6 7 C 6 5.894531 6.894531 5 8 5 Z M 8 5 "/>
</g>
</svg>
