<?xml version="1.0" encoding="UTF-8"?>
<svg xmlns="http://www.w3.org/2000/svg" xmlns:xlink="http://www.w3.org/1999/xlink" width="16" height="16" viewBox="0 0 16 16" version="1.1">
<g id="surface1">
<path style=" stroke:none;fill-rule:nonzero;fill:rgb(0%,0%,0%);fill-opacity:1;" d="M 7.738281 2 L 14 2 C 14.367188 2 14.667969 2.296875 14.667969 2.667969 L 14.667969 10.667969 C 14.667969 11.035156 14.367188 11.332031 14 11.332031 L 9.332031 11.332031 L 9.332031 10 L 13.332031 10 L 13.332031 3.332031 L 9.164062 3.332031 C 9.710938 4.117188 10 5.046875 10 6 C 10 7.527344 9.253906 8.957031 8 9.828125 L 8 14 C 8 14.367188 7.703125 14.667969 7.332031 14.667969 L 3.332031 14.667969 C 2.964844 14.667969 2.667969 14.367188 2.667969 14 L 2.667969 9.828125 C 1.210938 8.949219 0.351562 7.347656 0.421875 5.648438 C 0.492188 3.949219 1.480469 2.421875 3.003906 1.664062 C 4.527344 0.90625 6.339844 1.035156 7.738281 2 Z M 4 9.054688 L 4 13.332031 L 6.667969 13.332031 L 6.667969 9.054688 C 8.113281 8.425781 8.917969 6.863281 8.597656 5.320312 C 8.273438 3.773438 6.914062 2.667969 5.332031 2.667969 C 3.753906 2.667969 2.390625 3.773438 2.070312 5.320312 C 1.746094 6.863281 2.554688 8.425781 4 9.054688 Z M 5.332031 8 C 4.230469 8 3.332031 7.105469 3.332031 6 C 3.332031 4.894531 4.230469 4 5.332031 4 C 6.4375 4 7.332031 4.894531 7.332031 6 C 7.332031 7.105469 6.4375 8 5.332031 8 Z M 5.332031 6.667969 C 5.703125 6.667969 6 6.367188 6 6 C 6 5.632812 5.703125 5.332031 5.332031 5.332031 C 4.964844 5.332031 4.667969 5.632812 4.667969 6 C 4.667969 6.367188 4.964844 6.667969 5.332031 6.667969 Z M 11.332031 4.667969 L 12.667969 4.667969 L 12.667969 6 L 11.332031 6 Z M 4.667969 11.332031 L 6 11.332031 L 6 12.667969 L 4.667969 12.667969 Z M 4.667969 11.332031 "/>
</g>
</svg>
