<?xml version="1.0" encoding="UTF-8"?>
<svg xmlns="http://www.w3.org/2000/svg" xmlns:xlink="http://www.w3.org/1999/xlink" width="16" height="16" viewBox="0 0 16 16" version="1.1">
<g id="surface1">
<path style=" stroke:none;fill-rule:nonzero;fill:rgb(0%,0%,0%);fill-opacity:1;" d="M 10.667969 0.667969 C 11.035156 0.667969 11.332031 0.964844 11.332031 1.332031 L 11.332031 2 L 14.667969 2 L 14.667969 6 L 13.320312 6 L 15.152344 11.03125 C 15.269531 11.332031 15.332031 11.65625 15.332031 12 C 15.332031 13.472656 14.140625 14.667969 12.667969 14.667969 C 11.425781 14.667969 10.378906 13.816406 10.085938 12.667969 L 7.25 12.667969 C 6.953125 13.816406 5.910156 14.667969 4.667969 14.667969 C 3.371094 14.667969 2.289062 13.742188 2.050781 12.515625 C 1.625 12.292969 1.332031 11.847656 1.332031 11.332031 L 1.332031 4.667969 C 1.332031 4.296875 1.632812 4 2 4 L 6.667969 4 C 7.035156 4 7.332031 4.296875 7.332031 4.667969 L 7.332031 8 C 7.332031 8.367188 7.632812 8.667969 8 8.667969 L 9.332031 8.667969 C 9.703125 8.667969 10 8.367188 10 8 L 10 2 L 8 2 L 8 0.667969 Z M 12.667969 10.667969 C 11.929688 10.667969 11.332031 11.261719 11.332031 12 C 11.332031 12.738281 11.929688 13.332031 12.667969 13.332031 C 13.402344 13.332031 14 12.738281 14 12 C 14 11.839844 13.972656 11.6875 13.921875 11.542969 L 13.910156 11.515625 C 13.714844 11.019531 13.230469 10.667969 12.667969 10.667969 Z M 4.667969 10.667969 C 3.929688 10.667969 3.332031 11.261719 3.332031 12 C 3.332031 12.738281 3.929688 13.332031 4.667969 13.332031 C 5.402344 13.332031 6 12.738281 6 12 C 6 11.261719 5.402344 10.667969 4.667969 10.667969 Z M 6 5.332031 L 2.667969 5.332031 L 2.667969 6.667969 L 6 6.667969 Z M 13.332031 3.332031 L 11.332031 3.332031 L 11.332031 4.667969 L 13.332031 4.667969 Z M 13.332031 3.332031 "/>
</g>
</svg>
