<?xml version="1.0" encoding="UTF-8"?>
<svg xmlns="http://www.w3.org/2000/svg" xmlns:xlink="http://www.w3.org/1999/xlink" width="16" height="16" viewBox="0 0 16 16" version="1.1">
<g id="surface1">
<path style=" stroke:none;fill-rule:nonzero;fill:rgb(0%,0%,0%);fill-opacity:1;" d="M 4.15625 4.300781 C 2.40625 6.121094 2.167969 8.917969 3.589844 11.003906 C 5.011719 13.09375 7.699219 13.894531 10.035156 12.929688 C 10.113281 12.429688 9.941406 11.953125 9.875 11.785156 C 9.722656 11.410156 9.214844 10.773438 8.371094 9.886719 C 8.148438 9.652344 8.160156 9.46875 8.242188 8.929688 L 8.25 8.867188 C 8.304688 8.5 8.398438 8.28125 9.640625 8.082031 C 10.273438 7.984375 10.4375 8.234375 10.667969 8.585938 L 10.746094 8.699219 C 10.964844 9.019531 11.128906 9.09375 11.371094 9.203125 C 11.480469 9.253906 11.617188 9.316406 11.800781 9.421875 C 12.238281 9.667969 12.238281 9.949219 12.238281 10.566406 L 12.238281 10.632812 C 12.238281 10.894531 12.210938 11.125 12.171875 11.324219 C 13.207031 10.023438 13.578125 8.3125 13.171875 6.699219 C 12.765625 5.085938 11.628906 3.753906 10.101562 3.097656 C 9.734375 3.34375 9.226562 3.699219 9.050781 3.941406 C 8.960938 4.0625 8.832031 4.695312 8.417969 4.746094 C 8.308594 4.761719 8.164062 4.75 8.007812 4.742188 C 7.59375 4.714844 7.027344 4.675781 6.84375 5.171875 C 6.730469 5.480469 6.710938 6.328125 7.082031 6.769531 C 7.144531 6.839844 7.152344 6.96875 7.113281 7.117188 C 7.058594 7.308594 6.953125 7.425781 6.917969 7.449219 C 6.855469 7.410156 6.726562 7.261719 6.640625 7.160156 C 6.429688 6.917969 6.167969 6.613281 5.832031 6.519531 C 5.710938 6.488281 5.574219 6.460938 5.441406 6.429688 C 5.078125 6.355469 4.664062 6.265625 4.566406 6.0625 C 4.496094 5.910156 4.496094 5.703125 4.496094 5.484375 C 4.496094 5.207031 4.496094 4.894531 4.359375 4.589844 C 4.3125 4.480469 4.242188 4.382812 4.15625 4.300781 Z M 8 14.667969 C 4.316406 14.667969 1.332031 11.683594 1.332031 8 C 1.332031 4.316406 4.316406 1.332031 8 1.332031 C 11.683594 1.332031 14.667969 4.316406 14.667969 8 C 14.667969 11.683594 11.683594 14.667969 8 14.667969 Z M 8 14.667969 "/>
</g>
</svg>
