<?xml version="1.0" encoding="UTF-8"?>
<svg xmlns="http://www.w3.org/2000/svg" xmlns:xlink="http://www.w3.org/1999/xlink" width="16" height="16" viewBox="0 0 16 16" version="1.1">
<g id="surface1">
<path style=" stroke:none;fill-rule:nonzero;fill:rgb(0%,0%,0%);fill-opacity:1;" d="M 8 1.332031 C 11.683594 1.332031 14.667969 4.316406 14.667969 8 C 14.667969 11.683594 11.683594 14.667969 8 14.667969 C 4.316406 14.667969 1.332031 11.683594 1.332031 8 C 1.332031 4.316406 4.316406 1.332031 8 1.332031 Z M 8 7.332031 C 6.667969 7.332031 5.554688 7.554688 4.667969 8 C 4.667969 9.839844 6.160156 11.332031 8 11.332031 C 9.839844 11.332031 11.332031 9.839844 11.332031 8 C 10.445312 7.554688 9.332031 7.332031 8 7.332031 Z M 5.667969 4.667969 C 4.898438 4.667969 4.253906 5.1875 4.058594 5.894531 L 4.035156 6 L 7.300781 6 C 7.140625 5.222656 6.457031 4.667969 5.667969 4.667969 Z M 10.332031 4.667969 C 9.566406 4.667969 8.917969 5.1875 8.726562 5.894531 L 8.699219 6 L 11.964844 6 C 11.808594 5.222656 11.125 4.667969 10.332031 4.667969 Z M 10.332031 4.667969 "/>
</g>
</svg>
