<?xml version="1.0" encoding="UTF-8"?>
<svg xmlns="http://www.w3.org/2000/svg" xmlns:xlink="http://www.w3.org/1999/xlink" width="16" height="16" viewBox="0 0 16 16" version="1.1">
<g id="surface1">
<path style=" stroke:none;fill-rule:nonzero;fill:rgb(0%,0%,0%);fill-opacity:1;" d="M 8 14.667969 C 4.316406 14.667969 1.332031 11.683594 1.332031 8 C 1.332031 4.316406 4.316406 1.332031 8 1.332031 C 11.683594 1.332031 14.667969 4.316406 14.667969 8 C 14.667969 11.683594 11.683594 14.667969 8 14.667969 Z M 4.667969 11.332031 L 6 11.332031 C 6 10.230469 6.894531 9.332031 8 9.332031 C 9.105469 9.332031 10 10.230469 10 11.332031 L 11.332031 11.332031 C 11.332031 9.492188 9.839844 8 8 8 C 6.160156 8 4.667969 9.492188 4.667969 11.332031 Z M 5.332031 7.332031 C 5.886719 7.332031 6.332031 6.886719 6.332031 6.332031 C 6.332031 5.78125 5.886719 5.332031 5.332031 5.332031 C 4.78125 5.332031 4.332031 5.78125 4.332031 6.332031 C 4.332031 6.886719 4.78125 7.332031 5.332031 7.332031 Z M 10.667969 7.332031 C 11.21875 7.332031 11.667969 6.886719 11.667969 6.332031 C 11.667969 5.78125 11.21875 5.332031 10.667969 5.332031 C 10.113281 5.332031 9.667969 5.78125 9.667969 6.332031 C 9.667969 6.886719 10.113281 7.332031 10.667969 7.332031 Z M 10.667969 7.332031 "/>
</g>
</svg>
