<?xml version="1.0" encoding="UTF-8"?>
<svg xmlns="http://www.w3.org/2000/svg" xmlns:xlink="http://www.w3.org/1999/xlink" width="16" height="16" viewBox="0 0 16 16" version="1.1">
<g id="surface1">
<path style=" stroke:none;fill-rule:nonzero;fill:rgb(0%,0%,0%);fill-opacity:1;" d="M 8.101562 0.00390625 C 4.617188 -0.0859375 1.316406 2.328125 0.351562 5.679688 C 0.351562 5.679688 0.351562 5.6875 0.351562 5.6875 C -0.714844 9.027344 0.703125 12.882812 3.679688 14.730469 C 6.59375 16.664062 10.679688 16.355469 13.277344 14.015625 C 15.945312 11.742188 16.773438 7.714844 15.226562 4.570312 C 13.960938 1.847656 11.121094 0.0234375 8.117188 0.00390625 Z M 8.085938 1 L 8.089844 1 C 8.09375 1 8.09375 1 8.101562 1 C 10.710938 1.007812 13.230469 2.632812 14.328125 5 C 14.328125 5 14.328125 5.007812 14.335938 5.007812 C 15.671875 7.71875 14.929688 11.304688 12.625 13.261719 C 12.621094 13.265625 12.617188 13.269531 12.617188 13.273438 C 10.382812 15.296875 6.746094 15.5625 4.234375 13.898438 C 4.234375 13.894531 4.226562 13.890625 4.21875 13.890625 C 1.648438 12.296875 0.382812 8.859375 1.304688 5.984375 C 1.304688 5.976562 1.308594 5.976562 1.3125 5.96875 C 2.140625 3.070312 5.078125 0.914062 8.085938 1 Z M 5 3.355469 L 3.355469 5 L 6.351562 8 L 3.355469 11 L 5 12.644531 L 8 9.648438 L 11 12.644531 L 12.644531 11 L 9.648438 8 L 12.644531 5 L 11 3.355469 L 8 6.351562 Z M 5 3.355469 "/>
</g>
</svg>
