<?xml version="1.0" encoding="UTF-8"?>
<svg xmlns="http://www.w3.org/2000/svg" xmlns:xlink="http://www.w3.org/1999/xlink" width="16" height="16" viewBox="0 0 16 16" version="1.1">
<g id="surface1">
<path style=" stroke:none;fill-rule:nonzero;fill:rgb(0%,0%,0%);fill-opacity:1;" d="M 1.5 1 C 1.21875 1 0.992188 1.226562 0.996094 1.5 L 0.996094 14.507812 C 1 14.78125 1.222656 15 1.5 15 L 15.507812 15 C 15.777344 14.996094 15.996094 14.777344 16 14.507812 L 16 1.5 C 16 1.226562 15.78125 1.003906 15.507812 1 Z M 2 2.003906 L 15.003906 2.003906 L 15.003906 14.003906 L 2 14.003906 Z M 4.003906 4.007812 L 4.003906 10.007812 L 5 10.007812 L 5 11.003906 L 6.003906 11.003906 L 6.003906 12 L 11 12 L 11 11.003906 L 11.996094 11.003906 L 11.996094 10.007812 L 13 10.007812 L 13 4.007812 Z M 5 5 L 11.996094 5 L 11.996094 9 L 11 9 L 11 10.007812 L 9.996094 10.007812 L 9.996094 11.003906 L 7 11.003906 L 7 10.007812 L 6.003906 10.007812 L 6.003906 9 L 5 9 Z M 6 6.007812 L 6 8.007812 L 7 8.007812 L 7 6.007812 Z M 8 6.007812 L 8 8.007812 L 9 8.007812 L 9 6.007812 Z M 9.996094 6.007812 L 9.996094 8.007812 L 11 8.007812 L 11 6.007812 Z M 9.996094 6.007812 "/>
</g>
</svg>
