<?xml version="1.0" encoding="UTF-8"?>
<svg xmlns="http://www.w3.org/2000/svg" xmlns:xlink="http://www.w3.org/1999/xlink" width="16" height="16" viewBox="0 0 16 16" version="1.1">
<g id="surface1">
<path style=" stroke:none;fill-rule:nonzero;fill:rgb(0%,0%,0%);fill-opacity:1;" d="M 12.683594 2.101562 L 12.1875 4.445312 C 11.703125 3.964844 11.007812 3.726562 10.085938 3.726562 C 9.164062 3.726562 8.421875 4.054688 7.851562 4.71875 C 7.53125 5.085938 7.304688 5.554688 7.164062 6.113281 L 11.820312 6.113281 L 11.550781 7.421875 L 7 7.421875 C 6.992188 7.554688 6.988281 7.71875 6.988281 7.921875 C 6.988281 8.121094 6.992188 8.328125 7.007812 8.539062 L 11.3125 8.539062 L 11.042969 9.851562 L 7.183594 9.851562 C 7.324219 10.457031 7.539062 10.929688 7.835938 11.273438 C 8.398438 11.941406 9.132812 12.273438 10.035156 12.273438 C 11.117188 12.273438 11.984375 11.941406 12.625 11.273438 L 12.625 13.867188 C 11.890625 14.234375 11.039062 14.414062 10.0625 14.414062 C 8.414062 14.414062 7.058594 13.851562 6 12.722656 C 5.273438 11.953125 4.796875 11 4.570312 9.851562 L 3.316406 9.851562 L 3.585938 8.539062 L 4.414062 8.539062 C 4.410156 8.40625 4.40625 8.261719 4.40625 8.109375 C 4.40625 7.851562 4.414062 7.621094 4.421875 7.421875 L 3.316406 7.421875 L 3.585938 6.113281 L 4.59375 6.113281 C 4.828125 4.992188 5.300781 4.050781 6.007812 3.296875 C 7.074219 2.15625 8.476562 1.585938 10.210938 1.585938 C 11.160156 1.585938 11.984375 1.757812 12.683594 2.101562 Z M 12.683594 2.101562 "/>
</g>
</svg>
