<?xml version="1.0" encoding="UTF-8"?>
<svg xmlns="http://www.w3.org/2000/svg" xmlns:xlink="http://www.w3.org/1999/xlink" width="16" height="16" viewBox="0 0 16 16" version="1.1">
<g id="surface1">
<path style=" stroke:none;fill-rule:nonzero;fill:rgb(0%,0%,0%);fill-opacity:1;" d="M 8 1.332031 C 11.683594 1.332031 14.667969 4.316406 14.667969 8 C 14.667969 11.683594 11.683594 14.667969 8 14.667969 C 4.316406 14.667969 1.332031 11.683594 1.332031 8 C 1.332031 4.316406 4.316406 1.332031 8 1.332031 Z M 8 2.667969 C 5.054688 2.667969 2.667969 5.054688 2.667969 8 C 2.667969 10.945312 5.054688 13.332031 8 13.332031 C 10.945312 13.332031 13.332031 10.945312 13.332031 8 C 13.332031 5.054688 10.945312 2.667969 8 2.667969 Z M 8 4.667969 C 9.4375 4.667969 10.714844 5.589844 11.164062 6.957031 C 11.613281 8.328125 11.136719 9.828125 9.976562 10.683594 C 8.820312 11.535156 7.242188 11.550781 6.070312 10.71875 C 4.894531 9.886719 4.390625 8.394531 4.8125 7.019531 C 5.132812 7.734375 5.914062 8.132812 6.683594 7.964844 C 7.453125 7.800781 8.003906 7.121094 8 6.332031 C 8 5.675781 7.617188 5.082031 7.019531 4.8125 C 7.328125 4.71875 7.65625 4.667969 8 4.667969 Z M 8 4.667969 "/>
</g>
</svg>
