<?xml version="1.0" encoding="UTF-8"?>
<svg xmlns="http://www.w3.org/2000/svg" xmlns:xlink="http://www.w3.org/1999/xlink" width="16" height="16" viewBox="0 0 16 16" version="1.1">
<g id="surface1">
<path style=" stroke:none;fill-rule:nonzero;fill:rgb(0%,0%,0%);fill-opacity:1;" d="M 8 1.332031 C 4.316406 1.332031 1.332031 4.316406 1.332031 8 C 1.332031 11.328125 3.769531 14.085938 6.957031 14.585938 L 6.957031 9.925781 L 5.265625 9.925781 L 5.265625 8 L 6.957031 8 L 6.957031 6.53125 C 6.957031 4.859375 7.953125 3.9375 9.476562 3.9375 C 10.207031 3.9375 10.96875 4.066406 10.96875 4.066406 L 10.96875 5.707031 L 10.128906 5.707031 C 9.300781 5.707031 9.042969 6.222656 9.042969 6.75 L 9.042969 8 L 10.890625 8 L 10.59375 9.925781 L 9.042969 9.925781 L 9.042969 14.585938 C 12.230469 14.085938 14.667969 11.328125 14.667969 8 C 14.667969 4.316406 11.683594 1.332031 8 1.332031 Z M 8 1.332031 "/>
</g>
</svg>
