<?xml version="1.0" encoding="UTF-8"?>
<svg xmlns="http://www.w3.org/2000/svg" xmlns:xlink="http://www.w3.org/1999/xlink" width="16" height="16" viewBox="0 0 16 16" version="1.1">
<g id="surface1">
<path style=" stroke:none;fill-rule:nonzero;fill:rgb(0%,0%,0%);fill-opacity:1;" d="M 8.667969 13.292969 C 11.457031 12.9375 13.492188 10.476562 13.316406 7.667969 C 13.140625 4.859375 10.8125 2.671875 8 2.667969 C 5.183594 2.664062 2.847656 4.855469 2.671875 7.667969 C 2.496094 10.476562 4.539062 12.941406 7.332031 13.292969 L 7.332031 9.332031 L 6 9.332031 L 6 8 L 7.332031 8 L 7.332031 6.898438 C 7.332031 6.007812 7.425781 5.683594 7.601562 5.355469 C 7.769531 5.035156 8.035156 4.769531 8.355469 4.601562 C 8.613281 4.464844 8.929688 4.382812 9.480469 4.347656 C 9.703125 4.332031 9.984375 4.347656 10.335938 4.398438 L 10.335938 5.664062 L 10 5.664062 C 9.386719 5.664062 9.136719 5.695312 8.984375 5.773438 C 8.894531 5.820312 8.820312 5.894531 8.777344 5.984375 C 8.695312 6.136719 8.667969 6.285156 8.667969 6.898438 L 8.667969 8 L 10.332031 8 L 10 9.332031 L 8.667969 9.332031 Z M 8 14.667969 C 4.316406 14.667969 1.332031 11.683594 1.332031 8 C 1.332031 4.316406 4.316406 1.332031 8 1.332031 C 11.683594 1.332031 14.667969 4.316406 14.667969 8 C 14.667969 11.683594 11.683594 14.667969 8 14.667969 Z M 8 14.667969 "/>
</g>
</svg>
