<?xml version="1.0" encoding="UTF-8"?>
<svg xmlns="http://www.w3.org/2000/svg" xmlns:xlink="http://www.w3.org/1999/xlink" width="16" height="16" viewBox="0 0 16 16" version="1.1">
<g id="surface1">
<path style="fill-rule:nonzero;fill:rgb(0%,0%,0%);fill-opacity:1;stroke-width:0.0448137;stroke-linecap:butt;stroke-linejoin:miter;stroke:rgb(0%,0%,0%);stroke-opacity:1;stroke-miterlimit:4;" d="M 3.281453 4.127913 C 3.161564 4.092774 3.075781 4.012158 3.002401 3.867464 C 2.982764 3.831291 2.943489 3.726904 2.913517 3.63492 C 2.818433 3.344499 2.747119 3.225643 2.536279 3.008602 L 2.450496 2.920752 L 2.393652 2.950724 C 2.297534 3.000334 2.212785 3.017904 2.099097 3.012736 L 2.002978 3.007568 L 1.969905 3.077848 C 1.907894 3.211174 1.771468 3.393075 1.593701 3.578076 C 1.314648 3.869531 1.068668 4.014225 0.829923 4.026628 C 0.595312 4.03903 0.409277 3.922241 0.243913 3.660759 C 0.100252 3.435449 0.021704 3.193604 0.021704 2.98173 C 0.0227375 2.708879 0.134359 2.540413 0.346232 2.493905 C 0.427881 2.475301 0.573608 2.482536 0.702799 2.511475 C 0.996321 2.579688 1.147217 2.575553 1.42937 2.495972 L 1.559595 2.458765 L 1.566829 2.382284 C 1.575098 2.257227 1.616439 2.143538 1.685685 2.055689 C 1.700154 2.036051 1.71359 2.016414 1.71359 2.013314 C 1.71359 2.010213 1.704289 1.995744 1.69292 1.981274 C 1.5875 1.852083 1.430404 1.395264 1.386995 1.093473 C 1.349788 0.824756 1.369425 0.612882 1.44694 0.448551 C 1.566829 0.194303 1.813843 0.0795817 2.200382 0.0950846 C 2.566252 0.110588 2.849438 0.253215 2.954858 0.47439 C 3.007568 0.587044 3.002401 0.704867 2.939355 0.845426 C 2.902148 0.926042 2.85564 0.992188 2.75332 1.111043 C 2.566252 1.328084 2.492871 1.470711 2.423625 1.758032 C 2.410189 1.814876 2.395719 1.866553 2.393652 1.873787 C 2.390552 1.882056 2.406055 1.897559 2.443262 1.922363 C 2.540413 1.989543 2.639632 2.1177 2.669604 2.215885 L 2.677873 2.244824 L 2.828768 2.245858 C 2.997233 2.246891 3.121256 2.264461 3.342432 2.324406 C 3.565674 2.384351 3.754809 2.465999 3.897436 2.565218 C 4.175456 2.757454 4.272607 3.033407 4.174422 3.348633 C 4.10931 3.555339 3.940845 3.819922 3.787882 3.952214 C 3.619417 4.098975 3.418913 4.168221 3.282487 4.127913 Z M 2.208651 2.833936 C 2.368848 2.803963 2.506307 2.654102 2.531112 2.483569 C 2.572453 2.210718 2.335775 1.964738 2.074292 2.007113 C 1.90376 2.033984 1.762166 2.181779 1.735294 2.360579 C 1.693953 2.641699 1.9389 2.886646 2.208651 2.833936 Z M 2.208651 2.833936 " transform="matrix(3.779527,0,0,3.779527,0.00000056693,0)"/>
</g>
</svg>
