<?xml version="1.0" encoding="UTF-8"?>
<svg xmlns="http://www.w3.org/2000/svg" xmlns:xlink="http://www.w3.org/1999/xlink" width="16" height="16" viewBox="0 0 16 16" version="1.1">
<g id="surface1">
<path style=" stroke:none;fill-rule:evenodd;fill:rgb(0%,0%,0%);fill-opacity:1;" d="M 5 2.5 L 7 2.5 L 7 7.5 L 5 7.5 Z M 5 2.5 "/>
<path style=" stroke:none;fill-rule:evenodd;fill:rgb(0%,0%,0%);fill-opacity:1;" d="M 2 1.5 L 10 1.5 C 10.554688 1.5 11 1.945312 11 2.5 C 11 3.054688 10.554688 3.5 10 3.5 L 2 3.5 C 1.445312 3.5 1 3.054688 1 2.5 C 1 1.945312 1.445312 1.5 2 1.5 Z M 2 1.5 "/>
<path style=" stroke:none;fill-rule:evenodd;fill:rgb(0%,0%,0%);fill-opacity:1;" d="M 8 2.5 C 8 3.605469 7.105469 4.5 6 4.5 C 4.894531 4.5 4 3.605469 4 2.5 C 4 1.394531 4.894531 0.5 6 0.5 C 7.105469 0.5 8 1.394531 8 2.5 Z M 8 2.5 "/>
<path style=" stroke:none;fill-rule:evenodd;fill:rgb(0%,0%,0%);fill-opacity:1;" d="M 4 5.5 L 8 5.5 C 9.105469 5.5 10 6.394531 10 7.5 L 10 11.5 C 10 12.605469 9.105469 13.5 8 13.5 L 4 13.5 C 2.894531 13.5 2 12.605469 2 11.5 L 2 7.5 C 2 6.394531 2.894531 5.5 4 5.5 Z M 4 5.5 "/>
<path style=" stroke:none;fill-rule:nonzero;fill:rgb(0%,0%,0%);fill-opacity:1;" d="M 0 7.5 L 10 7.5 C 14 7.5 16 9.5 16 13.5 L 16 15.5 L 12 15.5 L 12 13.5 C 12 12.394531 11.105469 11.5 10 11.5 L 0 11.5 Z M 0 7.5 "/>
</g>
</svg>
