<?xml version="1.0" encoding="UTF-8"?>
<svg xmlns="http://www.w3.org/2000/svg" xmlns:xlink="http://www.w3.org/1999/xlink" width="16" height="16" viewBox="0 0 16 16" version="1.1">
<g id="surface1">
<path style=" stroke:none;fill-rule:nonzero;fill:rgb(0%,0%,0%);fill-opacity:1;" d="M 10.667969 1.332031 L 14 4.667969 L 14 14.003906 C 14 14.371094 13.703125 14.667969 13.339844 14.667969 L 2.660156 14.667969 C 2.296875 14.664062 2.003906 14.371094 2 14.003906 L 2 1.996094 C 2 1.628906 2.296875 1.332031 2.660156 1.332031 Z M 9.019531 9.628906 L 10.492188 11.105469 L 11.4375 10.160156 L 9.960938 8.6875 C 10.640625 7.53125 10.355469 6.050781 9.296875 5.230469 C 8.234375 4.40625 6.730469 4.5 5.777344 5.449219 C 4.828125 6.398438 4.734375 7.90625 5.554688 8.96875 C 6.378906 10.03125 7.863281 10.3125 9.019531 9.628906 Z M 8.605469 8.277344 C 8.273438 8.621094 7.777344 8.761719 7.3125 8.640625 C 6.84375 8.515625 6.480469 8.152344 6.359375 7.6875 C 6.238281 7.222656 6.375 6.726562 6.722656 6.390625 C 7.246094 5.886719 8.078125 5.894531 8.589844 6.40625 C 9.105469 6.921875 9.113281 7.753906 8.605469 8.277344 Z M 8.605469 8.277344 "/>
</g>
</svg>
