<?xml version="1.0" encoding="UTF-8"?>
<svg xmlns="http://www.w3.org/2000/svg" xmlns:xlink="http://www.w3.org/1999/xlink" width="16" height="16" viewBox="0 0 16 16" version="1.1">
<g id="surface1">
<path style=" stroke:none;fill-rule:nonzero;fill:rgb(0%,0%,0%);fill-opacity:1;" d="M 9.996094 1.332031 L 14 5.332031 L 14 8.171875 C 13.34375 7.628906 12.519531 7.332031 11.667969 7.332031 L 11.519531 7.335938 C 9.882812 7.402344 8.488281 8.546875 8.101562 10.140625 L 8.089844 10.1875 L 8.070312 10.203125 C 7.359375 10.679688 6.871094 11.421875 6.71875 12.261719 C 6.566406 13.101562 6.757812 13.96875 7.253906 14.667969 L 2.660156 14.667969 C 2.328125 14.667969 2.042969 14.414062 2.003906 14.082031 L 2 14.003906 L 2 1.996094 C 2 1.664062 2.257812 1.375 2.589844 1.339844 L 2.667969 1.332031 Z M 11.667969 8.667969 C 12.957031 8.667969 14 9.710938 14 11 L 14 11.070312 C 14.859375 11.3125 15.421875 12.140625 15.324219 13.03125 C 15.230469 13.917969 14.503906 14.609375 13.613281 14.664062 L 13.5 14.667969 L 9.832031 14.667969 L 9.722656 14.664062 C 8.828125 14.609375 8.105469 13.917969 8.007812 13.027344 C 7.914062 12.140625 8.472656 11.3125 9.335938 11.070312 L 9.332031 11 C 9.332031 9.710938 10.378906 8.667969 11.667969 8.667969 Z M 11.667969 8.667969 "/>
</g>
</svg>
