<?xml version="1.0" encoding="UTF-8"?>
<svg xmlns="http://www.w3.org/2000/svg" xmlns:xlink="http://www.w3.org/1999/xlink" width="16" height="16" viewBox="0 0 16 16" version="1.1">
<g id="surface1">
<path style=" stroke:none;fill-rule:nonzero;fill:rgb(0%,0%,0%);fill-opacity:1;" d="M 1.5 -0.00390625 C 1.226562 -0.00390625 1 0.222656 1 0.5 L 1 15.5 C 1 15.777344 1.226562 16.003906 1.5 16 L 12.5 16 C 12.574219 16 12.640625 15.984375 12.707031 15.953125 L 11.695312 15 L 11.269531 15 C 10.910156 15.109375 10.542969 15.195312 10.148438 15.195312 C 9.726562 15.195312 9.332031 15.117188 8.949219 15 L 1.996094 15 L 1.996094 1 L 9 1 L 9.003906 3.5 C 9 3.773438 9.226562 3.996094 9.5 4 L 12 4 L 12 7.375 C 12.367188 7.5625 12.703125 7.789062 13 8.070312 L 13 3.496094 C 13 3.367188 12.945312 3.242188 12.855469 3.148438 L 9.867188 0.148438 C 9.773438 0.0546875 9.644531 -0.00390625 9.511719 -0.00390625 Z M 1.5 -0.00390625 "/>
<path style=" stroke:none;fill-rule:nonzero;fill:rgb(0%,0%,0%);fill-opacity:1;" d="M 10.148438 7.914062 C 8.417969 7.914062 7 9.324219 7 11.054688 C 7 12.78125 8.417969 14.195312 10.148438 14.195312 C 10.75 14.195312 11.316406 14.019531 11.796875 13.71875 L 14.050781 15.84375 C 14.273438 16.058594 14.632812 16.050781 14.84375 15.828125 C 15.0625 15.601562 15.050781 15.242188 14.824219 15.027344 L 12.632812 12.960938 C 13.039062 12.429688 13.289062 11.769531 13.289062 11.054688 C 13.289062 9.324219 11.875 7.914062 10.148438 7.914062 Z M 10.148438 9.039062 C 11.265625 9.039062 12.160156 9.929688 12.160156 11.054688 C 12.160156 12.171875 11.265625 13.070312 10.148438 13.070312 C 9.023438 13.070312 8.125 12.171875 8.125 11.054688 C 8.125 9.929688 9.023438 9.039062 10.148438 9.039062 Z M 10.148438 9.039062 "/>
<path style=" stroke:none;fill-rule:nonzero;fill:rgb(0%,0%,0%);fill-opacity:1;" d="M 11.925781 13.070312 L 14.4375 15.4375 "/>
</g>
</svg>
