<?xml version="1.0" encoding="UTF-8"?>
<svg xmlns="http://www.w3.org/2000/svg" xmlns:xlink="http://www.w3.org/1999/xlink" width="16" height="16" viewBox="0 0 16 16" version="1.1">
<g id="surface1">
<path style=" stroke:none;fill-rule:nonzero;fill:rgb(0%,0%,0%);fill-opacity:1;" d="M 11.332031 11.332031 L 11.332031 12.667969 C 11.332031 13.035156 11.632812 13.332031 12 13.332031 C 12.367188 13.332031 12.667969 13.035156 12.667969 12.667969 L 12.667969 2.667969 L 3.332031 2.667969 L 3.332031 10 L 2 10 L 2 2 C 2 1.632812 2.296875 1.332031 2.667969 1.332031 L 13.332031 1.332031 C 13.703125 1.332031 14 1.632812 14 2 L 14 12.667969 C 14 13.769531 13.105469 14.667969 12 14.667969 L 2.667969 14.667969 C 1.5625 14.667969 0.667969 13.769531 0.667969 12.667969 L 0.667969 11.332031 Z M 11.332031 11.332031 "/>
</g>
</svg>
