<?xml version="1.0" encoding="UTF-8"?>
<svg xmlns="http://www.w3.org/2000/svg" xmlns:xlink="http://www.w3.org/1999/xlink" width="16" height="16" viewBox="0 0 16 16" version="1.1">
<g id="surface1">
<path style=" stroke:none;fill-rule:nonzero;fill:rgb(0%,0%,0%);fill-opacity:1;" d="M 10.667969 1.332031 L 14 4.667969 L 14 14.003906 C 14 14.371094 13.703125 14.667969 13.339844 14.667969 L 2.660156 14.667969 C 2.296875 14.664062 2.003906 14.371094 2 14.003906 L 2 1.996094 C 2 1.628906 2.296875 1.332031 2.660156 1.332031 Z M 8 7.667969 C 8.921875 7.667969 9.667969 6.921875 9.667969 6 C 9.667969 5.078125 8.921875 4.332031 8 4.332031 C 7.078125 4.332031 6.332031 5.078125 6.332031 6 C 6.332031 6.921875 7.078125 7.667969 8 7.667969 Z M 5.019531 11.332031 L 10.980469 11.332031 C 10.816406 9.8125 9.53125 8.660156 8 8.660156 C 6.46875 8.660156 5.183594 9.8125 5.019531 11.332031 Z M 5.019531 11.332031 "/>
</g>
</svg>
