<?xml version="1.0" encoding="UTF-8"?>
<svg xmlns="http://www.w3.org/2000/svg" xmlns:xlink="http://www.w3.org/1999/xlink" width="16" height="16" viewBox="0 0 16 16" version="1.1">
<g id="surface1">
<path style=" stroke:none;fill-rule:nonzero;fill:rgb(0%,0%,0%);fill-opacity:1;" d="M 14 4.667969 L 14 13.996094 C 14.003906 14.363281 13.707031 14.664062 13.339844 14.667969 L 2.660156 14.667969 C 2.296875 14.667969 2 14.371094 2 14.003906 L 2 1.996094 C 2 1.636719 2.296875 1.332031 2.664062 1.332031 L 10.664062 1.332031 Z M 5.332031 5.332031 L 5.332031 9.066406 C 5.332031 9.632812 5.628906 10.160156 6.125 10.476562 L 8 11.667969 L 9.875 10.476562 C 10.363281 10.171875 10.664062 9.640625 10.667969 9.066406 L 10.667969 5.332031 Z M 6.667969 6.667969 L 9.332031 6.667969 L 9.332031 9.066406 C 9.332031 9.171875 9.273438 9.277344 9.160156 9.351562 L 8 10.085938 L 6.839844 9.351562 C 6.726562 9.277344 6.667969 9.171875 6.667969 9.066406 Z M 6.667969 6.667969 "/>
</g>
</svg>
