<?xml version="1.0" encoding="UTF-8"?>
<svg xmlns="http://www.w3.org/2000/svg" xmlns:xlink="http://www.w3.org/1999/xlink" width="16" height="16" viewBox="0 0 16 16" version="1.1">
<g id="surface1">
<path style=" stroke:none;fill-rule:nonzero;fill:rgb(0%,0%,0%);fill-opacity:1;" d="M 10.667969 1.332031 L 14 4.667969 L 14 13.996094 C 14.003906 14.363281 13.707031 14.664062 13.339844 14.667969 L 2.660156 14.667969 C 2.296875 14.664062 2.003906 14.371094 2 14.003906 L 2 1.996094 C 2 1.628906 2.296875 1.332031 2.664062 1.332031 Z M 10.667969 5.777344 L 5.332031 5.777344 L 5.332031 4.886719 L 7.554688 4.886719 L 7.554688 4 L 8.445312 4 L 8.445312 4.886719 L 10 4.886719 L 10 2.667969 L 3.332031 2.667969 L 3.332031 13.332031 L 12.667969 13.332031 L 12.667969 5.332031 L 10.667969 5.332031 Z M 6.222656 9.777344 L 6.222656 11.109375 L 10.667969 11.109375 L 10.667969 12 L 5.332031 12 L 5.332031 9.777344 Z M 8 9.554688 C 8.367188 9.554688 8.667969 9.855469 8.667969 10.222656 C 8.667969 10.589844 8.367188 10.886719 8 10.886719 C 7.632812 10.886719 7.332031 10.589844 7.332031 10.222656 C 7.332031 9.855469 7.632812 9.554688 8 9.554688 Z M 8 6 C 8.921875 6 9.667969 6.746094 9.667969 7.667969 C 9.667969 8.585938 8.921875 9.332031 8 9.332031 C 7.078125 9.332031 6.332031 8.585938 6.332031 7.667969 C 6.332031 6.746094 7.078125 6 8 6 Z M 8 6.886719 C 7.570312 6.886719 7.222656 7.238281 7.222656 7.667969 C 7.222656 8.097656 7.570312 8.445312 8 8.445312 C 8.429688 8.445312 8.777344 8.097656 8.777344 7.667969 C 8.777344 7.238281 8.429688 6.886719 8 6.886719 Z M 8 6.886719 "/>
</g>
</svg>
