<?xml version="1.0" encoding="UTF-8"?>
<svg xmlns="http://www.w3.org/2000/svg" xmlns:xlink="http://www.w3.org/1999/xlink" width="16" height="16" viewBox="0 0 16 16" version="1.1">
<g id="surface1">
<path style=" stroke:none;fill-rule:nonzero;fill:rgb(0%,0%,0%);fill-opacity:1;" d="M 2.5 -0.00390625 C 2.226562 -0.00390625 2 0.222656 2 0.5 L 2 15.5 C 2 15.777344 2.226562 16.003906 2.5 16 L 13.5 16 C 13.773438 16.003906 14 15.777344 14 15.5 L 14 3.496094 C 14 3.367188 13.945312 3.242188 13.855469 3.148438 L 10.867188 0.148438 C 10.773438 0.0546875 10.644531 -0.00390625 10.511719 -0.00390625 Z M 2.996094 1 L 10 1 L 10.003906 3.5 C 10 3.773438 10.226562 3.996094 10.5 4 L 13 4 L 13 15 L 2.996094 15 Z M 2.996094 1 "/>
<path style=" stroke:none;fill-rule:nonzero;fill:rgb(0%,0%,0%);fill-opacity:1;" d="M 5.5625 13 L 6.679688 13 C 6.796875 13 6.871094 12.9375 6.871094 12.710938 L 6.871094 10.3125 C 6.871094 10.230469 6.90625 10.210938 6.953125 10.210938 L 8.035156 10.210938 C 9.359375 10.210938 10.625 9.929688 10.625 7.625 C 10.625 5.175781 9.210938 4.984375 7.796875 4.984375 L 5.5625 4.984375 C 5.445312 4.984375 5.375 5.015625 5.375 5.25 L 5.375 12.710938 C 5.375 12.9375 5.445312 13 5.5625 13 Z M 6.945312 9.320312 C 6.898438 9.320312 6.871094 9.304688 6.871094 9.222656 L 6.871094 5.984375 C 6.871094 5.898438 6.90625 5.875 6.945312 5.875 L 7.714844 5.875 C 8.550781 5.875 9.128906 5.984375 9.128906 7.628906 C 9.128906 9.09375 8.839844 9.320312 7.859375 9.320312 Z M 6.945312 9.320312 "/>
</g>
</svg>
