<?xml version="1.0" encoding="UTF-8"?>
<svg xmlns="http://www.w3.org/2000/svg" xmlns:xlink="http://www.w3.org/1999/xlink" width="16" height="16" viewBox="0 0 16 16" version="1.1">
<g id="surface1">
<path style=" stroke:none;fill-rule:nonzero;fill:rgb(0%,0%,0%);fill-opacity:1;" d="M 2.5 -0.00390625 C 2.226562 -0.00390625 2 0.222656 2 0.5 L 2 15.5 C 2 15.777344 2.226562 16.003906 2.5 16 L 13.5 16 C 13.773438 16.003906 14 15.777344 14 15.5 L 14 3.496094 C 14 3.367188 13.945312 3.242188 13.855469 3.148438 L 10.867188 0.148438 C 10.773438 0.0546875 10.644531 -0.00390625 10.511719 -0.00390625 Z M 2.996094 1 L 10 1 L 10.003906 3.5 C 10 3.773438 10.226562 3.996094 10.5 4 L 13 4 L 13 15 L 2.996094 15 Z M 2.996094 1 "/>
<path style=" stroke:none;fill-rule:nonzero;fill:rgb(0%,0%,0%);fill-opacity:1;" d="M 7.21875 13.136719 C 7.871094 12.910156 9.144531 11.867188 9.144531 9.503906 L 9.144531 8.015625 C 9.144531 7.585938 8.984375 7.378906 8.792969 7.378906 L 7.21875 7.378906 C 7.015625 7.378906 6.855469 7.546875 6.855469 7.976562 L 6.855469 9.433594 C 6.855469 9.8125 6.949219 10 7.140625 10 L 7.75 10 C 7.816406 10 7.828125 10.109375 7.828125 10.265625 C 7.828125 10.765625 7.613281 11.519531 7.195312 11.898438 C 6.921875 12.125 6.882812 12.117188 6.882812 12.554688 L 6.882812 12.730469 C 6.882812 13.03125 7.003906 13.15625 7.140625 13.15625 C 7.164062 13.15625 7.195312 13.148438 7.21875 13.136719 Z M 7.21875 13.136719 "/>
</g>
</svg>
