<?xml version="1.0" encoding="UTF-8"?>
<svg xmlns="http://www.w3.org/2000/svg" xmlns:xlink="http://www.w3.org/1999/xlink" width="16" height="16" viewBox="0 0 16 16" version="1.1">
<g id="surface1">
<path style=" stroke:none;fill-rule:nonzero;fill:rgb(0%,0%,0%);fill-opacity:1;" d="M 4.507812 13.464844 L 11.492188 13.464844 L 11.492188 10.414062 L 10.0625 8.53125 L 7.910156 11.039062 L 6.300781 9.820312 L 4.507812 11.527344 Z M 4.507812 13.464844 "/>
<path style=" stroke:none;fill-rule:nonzero;fill:rgb(0%,0%,0%);fill-opacity:1;" d="M 7 6 C 7 6.828125 6.328125 7.5 5.5 7.5 C 4.671875 7.5 4 6.828125 4 6 C 4 5.171875 4.671875 4.5 5.5 4.5 C 6.328125 4.5 7 5.171875 7 6 "/>
<path style=" stroke:none;fill-rule:nonzero;fill:rgb(0%,0%,0%);fill-opacity:1;" d="M 4 14 L 12 14 L 12 10 L 10 8 L 8 11 L 6 9 L 4 11 Z M 4 14 "/>
<path style=" stroke:none;fill-rule:nonzero;fill:rgb(0%,0%,0%);fill-opacity:1;" d="M 2.5 -0.00390625 C 2.226562 -0.00390625 2 0.222656 2 0.5 L 2 15.5 C 2 15.777344 2.226562 16.003906 2.5 16 L 13.5 16 C 13.773438 16.003906 14 15.777344 14 15.5 L 14 3.496094 C 14 3.367188 13.945312 3.242188 13.855469 3.148438 L 10.867188 0.148438 C 10.773438 0.0546875 10.644531 -0.00390625 10.511719 -0.00390625 Z M 2.996094 1 L 10 1 L 10.003906 3.5 C 10 3.773438 10.226562 3.996094 10.5 4 L 13 4 L 13 15 L 2.996094 15 Z M 2.996094 1 "/>
</g>
</svg>
