<?xml version="1.0" encoding="UTF-8"?>
<svg xmlns="http://www.w3.org/2000/svg" xmlns:xlink="http://www.w3.org/1999/xlink" width="16" height="16" viewBox="0 0 16 16" version="1.1">
<g id="surface1">
<path style=" stroke:none;fill-rule:nonzero;fill:rgb(0%,0%,0%);fill-opacity:1;" d="M 14 4.503906 L 12.667969 5.839844 L 12.667969 2.667969 L 6.667969 2.667969 L 6.667969 6 L 3.332031 6 L 3.332031 13.332031 L 12.667969 13.332031 L 12.667969 11.496094 L 14 10.160156 L 14 14.003906 C 14 14.371094 13.703125 14.667969 13.339844 14.667969 L 2.660156 14.667969 C 2.292969 14.664062 1.996094 14.363281 2 13.996094 L 2 5.332031 L 6.003906 1.332031 L 13.332031 1.332031 C 13.699219 1.332031 14 1.636719 14 1.996094 Z M 14.519531 5.871094 L 15.460938 6.816406 L 10.277344 12 L 9.332031 12 L 9.332031 11.058594 Z M 14.519531 5.871094 "/>
</g>
</svg>
