<?xml version="1.0" encoding="UTF-8"?>
<svg xmlns="http://www.w3.org/2000/svg" xmlns:xlink="http://www.w3.org/1999/xlink" width="16" height="16" viewBox="0 0 16 16" version="1.1">
<g id="surface1">
<path style=" stroke:none;fill-rule:nonzero;fill:rgb(0%,0%,0%);fill-opacity:1;" d="M 4.621094 0.34375 L 14.046875 9.769531 L 13.105469 10.714844 L 10.554688 8.164062 L 10 9 L 10 14.667969 L 6 14.667969 L 6 9 L 2.667969 4 L 2 4 L 2 2.667969 L 5.058594 2.667969 L 3.675781 1.285156 Z M 6.390625 4 L 4.269531 4 L 7.332031 8.597656 L 7.332031 13.332031 L 8.667969 13.332031 L 8.667969 8.597656 L 9.59375 7.203125 Z M 14 2.667969 L 14 4 L 13.332031 4 L 12.058594 5.914062 L 11.09375 4.953125 L 11.730469 4 L 10.140625 4 L 8.808594 2.667969 Z M 14 2.667969 "/>
</g>
</svg>
