<?xml version="1.0" encoding="UTF-8"?>
<svg xmlns="http://www.w3.org/2000/svg" xmlns:xlink="http://www.w3.org/1999/xlink" width="16" height="16" viewBox="0 0 16 16" version="1.1">
<g id="surface1">
<path style=" stroke:none;fill-rule:nonzero;fill:rgb(0%,0%,0%);fill-opacity:1;" d="M 14 2 C 14.367188 2 14.667969 2.296875 14.667969 2.667969 L 14.667969 13.332031 C 14.667969 13.703125 14.367188 14 14 14 L 2 14 C 1.632812 14 1.332031 13.703125 1.332031 13.332031 L 1.332031 2.667969 C 1.332031 2.296875 1.632812 2 2 2 Z M 6.988281 3.332031 L 2.667969 3.332031 L 2.667969 12.667969 L 8.496094 12.667969 C 8.457031 12.4375 8.421875 12.210938 8.386719 11.988281 C 8.191406 11.996094 8.0625 12 8 12 C 6.527344 12 5.066406 11.511719 3.628906 10.554688 L 4.371094 9.445312 C 5.597656 10.265625 6.804688 10.667969 8 10.667969 C 8.089844 10.667969 8.175781 10.664062 8.265625 10.660156 C 8.25 10.328125 8.25 9.71875 8.269531 9.332031 L 6.332031 9.332031 L 6.332031 8.667969 C 6.332031 6.484375 6.546875 4.707031 6.988281 3.332031 Z M 8.398438 3.332031 C 7.957031 4.386719 7.703125 6.273438 7.671875 8 L 9.753906 8 L 9.660156 8.75 C 9.59375 9.285156 9.570312 9.847656 9.589844 10.429688 C 10.265625 10.230469 10.945312 9.902344 11.628906 9.445312 L 12.371094 10.554688 C 11.488281 11.140625 10.601562 11.550781 9.707031 11.78125 C 9.746094 12.070312 9.792969 12.367188 9.855469 12.664062 L 13.332031 12.667969 L 13.332031 3.332031 Z M 4.667969 4.667969 C 5.035156 4.667969 5.332031 4.964844 5.332031 5.332031 L 5.332031 6 C 5.332031 6.367188 5.035156 6.667969 4.667969 6.667969 C 4.296875 6.667969 4 6.367188 4 6 L 4 5.332031 C 4 4.964844 4.296875 4.667969 4.667969 4.667969 Z M 11.332031 4.667969 C 11.703125 4.667969 12 4.964844 12 5.332031 L 12 6 C 12 6.367188 11.703125 6.667969 11.332031 6.667969 C 10.964844 6.667969 10.667969 6.367188 10.667969 6 L 10.667969 5.332031 C 10.667969 4.964844 10.964844 4.667969 11.332031 4.667969 Z M 11.332031 4.667969 "/>
</g>
</svg>
