<?xml version="1.0" encoding="UTF-8"?>
<svg xmlns="http://www.w3.org/2000/svg" xmlns:xlink="http://www.w3.org/1999/xlink" width="16" height="16" viewBox="0 0 16 16" version="1.1">
<g id="surface1">
<path style=" stroke:none;fill-rule:nonzero;fill:rgb(0%,0%,0%);fill-opacity:1;" d="M 8 1.332031 C 11.683594 1.332031 14.667969 4.316406 14.667969 8 C 14.667969 11.683594 11.683594 14.667969 8 14.667969 C 4.316406 14.667969 1.332031 11.683594 1.332031 8 C 1.332031 7.023438 1.542969 6.097656 1.921875 5.261719 C 2.230469 4.636719 2.742188 4.011719 3.152344 3.800781 C 2.71875 4.65625 2.503906 5.492188 2.460938 6.054688 C 2.761719 5.054688 3.335938 4.21875 4.140625 3.625 C 5.515625 2.613281 7.371094 2.566406 8.109375 3.210938 C 6.738281 3.683594 5.246094 5.578125 5.574219 7.796875 C 5.628906 8.164062 5.738281 8.519531 5.902344 8.851562 C 5.644531 8.179688 5.621094 7.230469 6.035156 6.613281 C 6.496094 5.925781 7.15625 5.78125 7.507812 5.855469 C 7.367188 5.824219 7.0625 6.414062 7.015625 6.515625 C 6.902344 6.777344 6.84375 7.0625 6.847656 7.347656 C 6.859375 7.949219 7.105469 8.519531 7.535156 8.9375 C 8.816406 10.183594 10.882812 9.691406 11.808594 8.269531 C 12.445312 7.289062 12.523438 5.621094 11.707031 4.300781 C 11.503906 3.976562 11.261719 3.683594 10.984375 3.421875 C 9.75 2.242188 7.996094 1.707031 6.328125 1.949219 C 5.59375 2.066406 4.964844 2.28125 4.445312 2.585938 C 5.171875 1.867188 6.605469 1.332031 8 1.332031 Z M 4.582031 5.136719 C 3.082031 5.65625 2.25 7.25 2.863281 9.441406 C 3.496094 11.683594 5.507812 13.257812 7.835938 13.332031 L 8 13.332031 C 10.816406 13.332031 13.148438 11.140625 13.324219 8.332031 L 13.328125 8.1875 C 13.242188 8.421875 13.140625 8.636719 13.019531 8.84375 L 12.925781 8.992188 C 11.523438 11.152344 8.472656 11.710938 6.605469 9.894531 C 6.351562 9.644531 6.136719 9.363281 5.964844 9.054688 L 5.894531 8.921875 C 4.738281 8.664062 4.171875 8.035156 4.199219 7.042969 C 4.21875 6.382812 4.351562 5.734375 4.582031 5.136719 Z M 4.582031 5.136719 "/>
</g>
</svg>
