<?xml version="1.0" encoding="UTF-8"?>
<svg xmlns="http://www.w3.org/2000/svg" xmlns:xlink="http://www.w3.org/1999/xlink" width="16" height="16" viewBox="0 0 16 16" version="1.1">
<g id="surface1">
<path style=" stroke:none;fill-rule:nonzero;fill:rgb(0%,0%,0%);fill-opacity:1;" d="M 8 15.332031 C 10.761719 15.332031 13 13.09375 13 10.332031 C 13 9.757812 12.847656 9.203125 12.667969 8.6875 C 11.554688 9.785156 10.710938 10.332031 10.132812 10.332031 C 12.796875 5.667969 11.332031 3.667969 7.332031 1 C 7.667969 4.332031 5.46875 5.847656 4.574219 6.691406 C 3.082031 8.097656 2.597656 10.269531 3.351562 12.175781 C 4.109375 14.082031 5.949219 15.332031 8 15.332031 Z M 8.472656 3.488281 C 10.632812 5.324219 10.644531 6.746094 8.976562 9.671875 C 8.46875 10.5625 9.109375 11.667969 10.132812 11.667969 C 10.59375 11.667969 11.054688 11.535156 11.546875 11.269531 C 11.148438 12.773438 9.84375 13.863281 8.292969 13.988281 C 6.738281 14.109375 5.28125 13.242188 4.648438 11.816406 C 4.019531 10.394531 4.355469 8.730469 5.488281 7.660156 C 5.570312 7.582031 5.996094 7.207031 6.015625 7.1875 C 6.300781 6.933594 6.53125 6.710938 6.761719 6.464844 C 7.582031 5.585938 8.171875 4.613281 8.472656 3.488281 Z M 8.472656 3.488281 "/>
</g>
</svg>
