<?xml version="1.0" encoding="UTF-8"?>
<svg xmlns="http://www.w3.org/2000/svg" xmlns:xlink="http://www.w3.org/1999/xlink" width="16" height="16" viewBox="0 0 16 16" version="1.1">
<g id="surface1">
<path style=" stroke:none;fill-rule:nonzero;fill:rgb(0%,0%,0%);fill-opacity:1;" d="M 8.667969 0.667969 L 8.667969 2.707031 C 11.082031 3.011719 12.988281 4.917969 13.292969 7.332031 L 15.332031 7.332031 L 15.332031 8.667969 L 13.292969 8.667969 C 12.988281 11.082031 11.082031 12.988281 8.667969 13.292969 L 8.667969 15.332031 L 7.332031 15.332031 L 7.332031 13.292969 C 4.917969 12.988281 3.011719 11.082031 2.707031 8.667969 L 0.667969 8.667969 L 0.667969 7.332031 L 2.707031 7.332031 C 3.011719 4.917969 4.917969 3.011719 7.332031 2.707031 L 7.332031 0.667969 Z M 8 4 C 5.789062 4 4 5.789062 4 8 C 4 10.210938 5.789062 12 8 12 C 10.210938 12 12 10.210938 12 8 C 12 5.789062 10.210938 4 8 4 Z M 8 6.667969 C 8.738281 6.667969 9.332031 7.261719 9.332031 8 C 9.332031 8.738281 8.738281 9.332031 8 9.332031 C 7.261719 9.332031 6.667969 8.738281 6.667969 8 C 6.667969 7.261719 7.261719 6.667969 8 6.667969 Z M 8 6.667969 "/>
</g>
</svg>
