<?xml version="1.0" encoding="UTF-8"?>
<svg xmlns="http://www.w3.org/2000/svg" xmlns:xlink="http://www.w3.org/1999/xlink" width="16" height="16" viewBox="0 0 16 16" version="1.1">
<g id="surface1">
<path style=" stroke:none;fill-rule:nonzero;fill:rgb(0%,0%,0%);fill-opacity:1;" d="M 1.664062 2 C 1.453125 2 1.261719 2.117188 1.164062 2.304688 L 0.0546875 4.304688 C 0.0195312 4.378906 0 4.460938 0 4.546875 L 0 11.957031 L 2.625 6.765625 C 2.625 6.765625 2.632812 6.765625 2.632812 6.765625 C 2.871094 6.296875 3.351562 6 3.875 6 L 14.449219 6 L 14.449219 4.546875 C 14.445312 4.242188 14.195312 4 13.890625 4 L 8.679688 4 L 7.722656 2.304688 C 7.625 2.117188 7.429688 2 7.21875 2 Z M 1.664062 2 "/>
<path style=" stroke:none;fill-rule:nonzero;fill:rgb(0%,0%,0%);fill-opacity:1;" d="M 4.078125 7.324219 C 3.898438 7.320312 3.730469 7.421875 3.648438 7.585938 L 0.789062 13.308594 C 0.710938 13.457031 0.71875 13.632812 0.804688 13.773438 C 0.890625 13.914062 1.046875 14 1.210938 14 L 12.664062 14 C 12.84375 14 13.007812 13.898438 13.089844 13.734375 L 15.949219 8.015625 C 16.023438 7.867188 16.015625 7.6875 15.929688 7.546875 C 15.839844 7.40625 15.6875 7.320312 15.519531 7.324219 Z M 4.078125 7.324219 "/>
</g>
</svg>
