<?xml version="1.0" encoding="UTF-8"?>
<svg xmlns="http://www.w3.org/2000/svg" xmlns:xlink="http://www.w3.org/1999/xlink" width="16" height="16" viewBox="0 0 16 16" version="1.1">
<g id="surface1">
<path style=" stroke:none;fill-rule:nonzero;fill:rgb(0%,0%,0%);fill-opacity:1;" d="M 8.277344 3.332031 L 14 3.332031 C 14.367188 3.332031 14.667969 3.632812 14.667969 4 L 14.667969 13.332031 C 14.667969 13.703125 14.367188 14 14 14 L 2 14 C 1.632812 14 1.332031 13.703125 1.332031 13.332031 L 1.332031 2.667969 C 1.332031 2.296875 1.632812 2 2 2 L 6.941406 2 Z M 8 8.667969 C 8.921875 8.667969 9.667969 7.921875 9.667969 7 C 9.667969 6.078125 8.921875 5.332031 8 5.332031 C 7.078125 5.332031 6.332031 6.078125 6.332031 7 C 6.332031 7.921875 7.078125 8.667969 8 8.667969 Z M 5.332031 12 L 10.667969 12 C 10.667969 10.527344 9.472656 9.332031 8 9.332031 C 6.527344 9.332031 5.332031 10.527344 5.332031 12 Z M 5.332031 12 "/>
</g>
</svg>
