<?xml version="1.0" encoding="UTF-8"?>
<svg xmlns="http://www.w3.org/2000/svg" xmlns:xlink="http://www.w3.org/1999/xlink" width="16" height="16" viewBox="0 0 16 16" version="1.1">
<g id="surface1">
<path style=" stroke:none;fill-rule:nonzero;fill:rgb(0%,0%,0%);fill-opacity:1;" d="M 14.667969 8.667969 L 13.332031 8.667969 L 13.332031 4.667969 L 7.722656 4.667969 L 6.390625 3.332031 L 2.667969 3.332031 L 2.667969 12.667969 L 8.667969 12.667969 L 8.667969 14 L 2 14 C 1.632812 14 1.332031 13.703125 1.332031 13.332031 L 1.332031 2.667969 C 1.332031 2.296875 1.632812 2 2 2 L 6.941406 2 L 8.277344 3.332031 L 14 3.332031 C 14.367188 3.332031 14.667969 3.632812 14.667969 4 Z M 12 11.332031 L 12 9 L 15.332031 12 L 12 15 L 12 12.667969 L 10 12.667969 L 10 11.332031 Z M 12 11.332031 "/>
</g>
</svg>
