<?xml version="1.0" encoding="UTF-8"?>
<svg xmlns="http://www.w3.org/2000/svg" xmlns:xlink="http://www.w3.org/1999/xlink" width="16" height="16" viewBox="0 0 16 16" version="1.1">
<g id="surface1">
<path style=" stroke:none;fill-rule:nonzero;fill:rgb(0%,0%,0%);fill-opacity:1;" d="M 14.667969 6 L 13.332031 6 L 13.332031 4.667969 L 7.722656 4.667969 L 6.390625 3.332031 L 2.667969 3.332031 L 2.667969 12.667969 L 7.632812 12.667969 C 7.875 13.203125 8.257812 13.660156 8.742188 14 L 2 14 C 1.632812 14 1.332031 13.703125 1.332031 13.332031 L 1.332031 2.667969 C 1.332031 2.296875 1.632812 2 2 2 L 6.941406 2 L 8.277344 3.332031 L 14 3.332031 C 14.367188 3.332031 14.667969 3.632812 14.667969 4 Z M 8.667969 7.332031 L 14.667969 7.332031 L 14.667969 11.300781 C 14.667969 11.960938 14.332031 12.578125 13.777344 12.941406 L 11.667969 14.332031 L 9.558594 12.941406 C 9.003906 12.578125 8.667969 11.960938 8.667969 11.300781 Z M 10 11.300781 C 10 11.511719 10.109375 11.707031 10.289062 11.828125 L 11.667969 12.734375 L 13.042969 11.828125 C 13.222656 11.714844 13.332031 11.515625 13.332031 11.300781 L 13.332031 8.667969 L 10 8.667969 Z M 10 11.300781 "/>
</g>
</svg>
