<?xml version="1.0" encoding="UTF-8"?>
<svg xmlns="http://www.w3.org/2000/svg" xmlns:xlink="http://www.w3.org/1999/xlink" width="16" height="16" viewBox="0 0 16 16" version="1.1">
<g id="surface1">
<path style=" stroke:none;fill-rule:nonzero;fill:rgb(0%,0%,0%);fill-opacity:1;" d="M 7.496094 10 L 3.167969 10 L 1.835938 13.332031 L 0.398438 13.332031 L 4.667969 2.667969 L 6 2.667969 L 10.265625 13.332031 L 8.832031 13.332031 Z M 6.964844 8.667969 L 5.332031 4.589844 L 3.703125 8.667969 Z M 14 8.355469 L 14 8 L 15.332031 8 L 15.332031 13.332031 L 14 13.332031 L 14 12.976562 C 12.878906 13.625 11.457031 13.371094 10.625 12.378906 C 9.792969 11.390625 9.792969 9.945312 10.625 8.953125 C 11.457031 7.960938 12.878906 7.710938 14 8.355469 Z M 12.667969 12 C 13.402344 12 14 11.402344 14 10.667969 C 14 9.929688 13.402344 9.332031 12.667969 9.332031 C 11.929688 9.332031 11.332031 9.929688 11.332031 10.667969 C 11.332031 11.402344 11.929688 12 12.667969 12 Z M 12.667969 12 "/>
</g>
</svg>
