<?xml version="1.0" encoding="UTF-8"?>
<svg xmlns="http://www.w3.org/2000/svg" xmlns:xlink="http://www.w3.org/1999/xlink" width="16" height="16" viewBox="0 0 16 16" version="1.1">
<g id="surface1">
<path style=" stroke:none;fill-rule:nonzero;fill:rgb(0%,0%,0%);fill-opacity:1;" d="M 12.667969 0.667969 C 13.035156 0.667969 13.332031 0.964844 13.332031 1.332031 L 13.332031 14.667969 C 13.332031 15.035156 13.035156 15.332031 12.667969 15.332031 L 3.332031 15.332031 C 2.964844 15.332031 2.667969 15.035156 2.667969 14.667969 L 2.667969 1.332031 C 2.667969 0.964844 2.964844 0.667969 3.332031 0.667969 Z M 12 8 L 4 8 L 4 14 L 12 14 Z M 6.667969 9.332031 L 6.667969 12 L 5.332031 12 L 5.332031 9.332031 Z M 12 2 L 4 2 L 4 6.667969 L 12 6.667969 Z M 6.667969 3.332031 L 6.667969 5.332031 L 5.332031 5.332031 L 5.332031 3.332031 Z M 6.667969 3.332031 "/>
</g>
</svg>
