<?xml version="1.0" encoding="UTF-8"?>
<svg xmlns="http://www.w3.org/2000/svg" xmlns:xlink="http://www.w3.org/1999/xlink" width="16" height="16" viewBox="0 0 16 16" version="1.1">
<g id="surface1">
<path style=" stroke:none;fill-rule:nonzero;fill:rgb(0%,0%,0%);fill-opacity:1;" d="M 6.875 1.351562 C 6.5 1.351562 6.171875 1.398438 5.898438 1.5 C 5.621094 1.597656 5.382812 1.75 5.179688 1.953125 C 4.976562 2.152344 4.808594 2.40625 4.671875 2.707031 C 4.539062 3.003906 4.433594 3.359375 4.359375 3.765625 L 4.015625 5.507812 L 2.257812 5.507812 L 2.257812 6.335938 L 3.851562 6.335938 L 2.71875 12.125 C 2.65625 12.4375 2.578125 12.6875 2.484375 12.875 C 2.390625 13.070312 2.289062 13.21875 2.175781 13.324219 C 2.070312 13.433594 1.953125 13.507812 1.835938 13.542969 C 1.71875 13.578125 1.605469 13.601562 1.492188 13.601562 C 1.386719 13.601562 1.289062 13.585938 1.210938 13.566406 C 1.125 13.546875 1.054688 13.523438 0.984375 13.496094 C 0.921875 13.46875 0.863281 13.445312 0.816406 13.425781 C 0.765625 13.40625 0.71875 13.394531 0.679688 13.394531 C 0.632812 13.394531 0.59375 13.410156 0.5625 13.441406 C 0.53125 13.472656 0.507812 13.515625 0.480469 13.5625 C 0.453125 13.609375 0.433594 13.664062 0.417969 13.726562 C 0.398438 13.789062 0.382812 13.84375 0.371094 13.90625 C 0.359375 13.96875 0.355469 14.023438 0.351562 14.070312 C 0.34375 14.121094 0.34375 14.160156 0.34375 14.1875 C 0.34375 14.253906 0.351562 14.3125 0.371094 14.359375 C 0.390625 14.410156 0.429688 14.445312 0.488281 14.46875 C 0.601562 14.511719 0.738281 14.546875 0.902344 14.585938 C 1.066406 14.625 1.261719 14.648438 1.484375 14.648438 C 1.855469 14.648438 2.171875 14.601562 2.445312 14.5 C 2.722656 14.40625 2.960938 14.257812 3.15625 14.0625 C 3.359375 13.863281 3.523438 13.617188 3.648438 13.316406 C 3.78125 13.015625 3.886719 12.664062 3.964844 12.257812 L 5.125 6.335938 L 7.042969 6.335938 L 7.042969 5.507812 L 5.289062 5.507812 L 5.589844 3.960938 C 5.648438 3.664062 5.71875 3.414062 5.804688 3.21875 C 5.890625 3.011719 5.992188 2.851562 6.097656 2.726562 C 6.210938 2.609375 6.328125 2.523438 6.453125 2.476562 C 6.578125 2.429688 6.710938 2.398438 6.851562 2.398438 C 6.921875 2.398438 7 2.414062 7.085938 2.4375 C 7.175781 2.460938 7.257812 2.484375 7.34375 2.507812 C 7.421875 2.539062 7.492188 2.5625 7.554688 2.585938 C 7.617188 2.609375 7.664062 2.617188 7.6875 2.617188 C 7.726562 2.617188 7.765625 2.605469 7.792969 2.574219 C 7.824219 2.542969 7.851562 2.5 7.871094 2.453125 C 7.890625 2.402344 7.90625 2.34375 7.921875 2.28125 C 7.9375 2.214844 7.953125 2.152344 7.960938 2.09375 C 7.972656 2.039062 7.980469 1.984375 7.984375 1.9375 C 7.996094 1.890625 8 1.855469 8 1.828125 C 8 1.75 7.988281 1.6875 7.960938 1.640625 C 7.941406 1.59375 7.902344 1.554688 7.839844 1.53125 C 7.734375 1.488281 7.601562 1.449219 7.4375 1.414062 C 7.28125 1.371094 7.09375 1.351562 6.875 1.351562 Z M 7.578125 6.328125 C 7.15625 6.957031 6.835938 7.625 6.617188 8.324219 C 6.390625 9.023438 6.28125 9.738281 6.28125 10.476562 C 6.28125 11.15625 6.390625 11.859375 6.609375 12.589844 C 6.832031 13.3125 7.148438 14 7.5625 14.648438 L 8.351562 14.648438 C 8.027344 13.914062 7.796875 13.273438 7.664062 12.726562 C 7.476562 11.945312 7.382812 11.210938 7.382812 10.511719 C 7.382812 9.835938 7.449219 9.195312 7.582031 8.585938 C 7.71875 7.984375 7.976562 7.226562 8.359375 6.328125 Z M 13.578125 6.328125 C 13.960938 7.226562 14.21875 7.984375 14.351562 8.585938 C 14.492188 9.195312 14.558594 9.835938 14.558594 10.511719 C 14.558594 11.21875 14.460938 11.960938 14.269531 12.75 C 14.140625 13.289062 13.914062 13.921875 13.589844 14.648438 L 14.378906 14.648438 C 14.800781 13.984375 15.121094 13.289062 15.335938 12.558594 C 15.554688 11.824219 15.660156 11.113281 15.660156 10.421875 C 15.660156 9.730469 15.550781 9.039062 15.332031 8.34375 C 15.117188 7.652344 14.792969 6.980469 14.367188 6.328125 Z M 8.753906 8.1875 L 10.253906 10.414062 L 8.6875 12.78125 L 10.03125 12.78125 L 10.929688 11.359375 L 11.8125 12.78125 L 13.222656 12.78125 L 11.609375 10.363281 L 13.082031 8.1875 L 11.734375 8.1875 L 10.929688 9.449219 L 10.160156 8.1875 Z M 8.753906 8.1875 "/>
<path style=" stroke:none;fill-rule:nonzero;fill:rgb(0%,0%,0%);fill-opacity:1;" d="M 6.875 1 C 6.46875 1 6.109375 1.050781 5.785156 1.164062 C 5.464844 1.28125 5.179688 1.46875 4.9375 1.703125 C 4.703125 1.9375 4.511719 2.222656 4.359375 2.558594 L 4.359375 2.5625 C 4.210938 2.894531 4.101562 3.265625 4.019531 3.695312 L 3.742188 5.15625 L 1.914062 5.15625 L 1.914062 6.6875 L 3.433594 6.6875 L 2.382812 12.054688 C 2.328125 12.351562 2.257812 12.570312 2.179688 12.71875 L 2.175781 12.71875 L 2.175781 12.722656 C 2.097656 12.890625 2.015625 13.007812 1.945312 13.070312 L 1.941406 13.070312 L 1.9375 13.078125 C 1.859375 13.15625 1.796875 13.191406 1.742188 13.210938 C 1.648438 13.234375 1.570312 13.25 1.492188 13.25 C 1.40625 13.25 1.339844 13.242188 1.289062 13.226562 C 1.21875 13.210938 1.15625 13.1875 1.109375 13.171875 C 1.046875 13.144531 0.996094 13.125 0.957031 13.109375 L 0.953125 13.101562 L 0.945312 13.101562 C 0.867188 13.070312 0.773438 13.042969 0.679688 13.042969 C 0.554688 13.042969 0.417969 13.101562 0.328125 13.195312 C 0.265625 13.257812 0.21875 13.320312 0.179688 13.390625 L 0.175781 13.394531 L 0.175781 13.402344 C 0.144531 13.46875 0.117188 13.539062 0.0976562 13.617188 C 0.0976562 13.617188 0.0976562 13.617188 0.0976562 13.621094 C 0.09375 13.625 0.09375 13.632812 0.09375 13.632812 C 0.0703125 13.703125 0.0546875 13.769531 0.0390625 13.84375 L 0.03125 13.84375 L 0.03125 13.847656 C 0.0234375 13.917969 0.0195312 13.984375 0.015625 14.035156 L 0.0078125 14.035156 C 0 14.09375 0 14.140625 0 14.1875 C 0 14.289062 0.015625 14.390625 0.0585938 14.492188 C 0.117188 14.632812 0.242188 14.75 0.371094 14.800781 C 0.503906 14.851562 0.648438 14.890625 0.820312 14.929688 C 1.019531 14.976562 1.238281 15 1.484375 15 C 1.882812 15 2.242188 14.945312 2.5625 14.828125 C 2.875 14.71875 3.160156 14.546875 3.394531 14.3125 C 3.625 14.082031 3.820312 13.792969 3.960938 13.460938 L 3.960938 13.453125 C 4.109375 13.125 4.21875 12.75 4.296875 12.324219 L 5.40625 6.6875 L 7.03125 6.6875 C 6.75 7.179688 6.464844 7.679688 6.292969 8.21875 C 6.0625 8.949219 5.941406 9.703125 5.941406 10.472656 C 5.941406 11.195312 6.058594 11.933594 6.289062 12.6875 L 6.289062 12.695312 C 6.519531 13.453125 6.847656 14.164062 7.277344 14.839844 L 7.375 15 L 8.878906 15 L 8.664062 14.507812 C 8.429688 13.976562 8.304688 13.558594 8.175781 13.136719 L 10.214844 13.136719 L 10.925781 12.003906 L 11.625 13.136719 L 13.765625 13.136719 C 13.636719 13.554688 13.511719 13.976562 13.277344 14.507812 L 13.0625 15 L 14.566406 15 L 14.664062 14.839844 C 15.101562 14.148438 15.4375 13.421875 15.664062 12.65625 C 15.886719 11.894531 16 11.148438 16 10.421875 C 16 9.695312 15.882812 8.960938 15.65625 8.234375 C 15.429688 7.507812 15.089844 6.8125 14.644531 6.132812 L 14.546875 5.980469 L 13.0625 5.980469 L 13.269531 6.46875 C 13.648438 7.351562 13.894531 8.089844 14.019531 8.664062 L 14.019531 8.671875 C 14.148438 9.25 14.214844 9.863281 14.214844 10.515625 C 14.214844 11.1875 14.121094 11.902344 13.9375 12.664062 C 13.910156 12.765625 13.835938 12.925781 13.804688 13.039062 L 12.023438 10.367188 L 13.734375 7.835938 L 11.550781 7.835938 L 10.929688 8.804688 L 10.351562 7.835938 L 8.203125 7.835938 C 8.339844 7.40625 8.4375 7.015625 8.671875 6.464844 L 8.878906 5.976562 L 7.394531 5.976562 L 7.386719 5.992188 L 7.386719 5.15625 L 5.707031 5.15625 L 5.929688 4.03125 C 5.980469 3.75 6.046875 3.523438 6.117188 3.359375 C 6.195312 3.179688 6.28125 3.046875 6.351562 2.960938 C 6.433594 2.878906 6.507812 2.828125 6.574219 2.804688 L 6.578125 2.804688 C 6.671875 2.765625 6.75 2.75 6.847656 2.75 C 6.878906 2.75 6.929688 2.75 6.992188 2.773438 L 7.003906 2.777344 L 7.007812 2.777344 C 7.085938 2.796875 7.160156 2.820312 7.238281 2.84375 C 7.3125 2.867188 7.378906 2.890625 7.425781 2.910156 L 7.4375 2.917969 L 7.445312 2.917969 C 7.523438 2.945312 7.570312 2.96875 7.6875 2.96875 C 7.804688 2.96875 7.945312 2.90625 8.03125 2.820312 C 8.101562 2.75 8.148438 2.675781 8.179688 2.597656 L 8.179688 2.59375 L 8.1875 2.585938 C 8.214844 2.515625 8.234375 2.445312 8.253906 2.367188 C 8.273438 2.289062 8.289062 2.21875 8.296875 2.15625 C 8.308594 2.109375 8.3125 2.0625 8.320312 2.011719 L 8.328125 1.976562 C 8.335938 1.929688 8.34375 1.882812 8.34375 1.828125 C 8.34375 1.710938 8.320312 1.601562 8.265625 1.492188 C 8.203125 1.359375 8.089844 1.257812 7.976562 1.207031 L 7.960938 1.207031 C 7.832031 1.15625 7.6875 1.109375 7.523438 1.074219 L 7.515625 1.074219 C 7.324219 1.023438 7.113281 1 6.875 1 Z M 6.875 1.699219 C 7.070312 1.699219 7.234375 1.71875 7.355469 1.75 L 7.367188 1.75 C 7.492188 1.78125 7.582031 1.8125 7.664062 1.835938 C 7.660156 1.84375 7.65625 1.835938 7.65625 1.859375 L 7.648438 1.878906 L 7.648438 1.898438 C 7.644531 1.929688 7.640625 1.976562 7.628906 2.03125 C 7.617188 2.085938 7.601562 2.144531 7.589844 2.203125 C 7.585938 2.210938 7.585938 2.21875 7.585938 2.226562 C 7.539062 2.210938 7.496094 2.195312 7.445312 2.179688 L 7.4375 2.179688 C 7.359375 2.152344 7.273438 2.125 7.1875 2.105469 L 7.164062 2.101562 C 7.0625 2.070312 6.953125 2.054688 6.847656 2.054688 C 6.664062 2.054688 6.492188 2.09375 6.328125 2.15625 C 6.148438 2.226562 5.988281 2.34375 5.851562 2.492188 L 5.84375 2.492188 C 5.703125 2.648438 5.589844 2.847656 5.492188 3.078125 C 5.390625 3.308594 5.316406 3.578125 5.257812 3.898438 L 4.875 5.851562 L 6.703125 5.851562 L 6.703125 5.984375 L 4.847656 5.984375 L 3.628906 12.191406 C 3.554688 12.578125 3.460938 12.902344 3.34375 13.171875 L 3.335938 13.175781 C 3.222656 13.4375 3.085938 13.648438 2.917969 13.8125 C 2.757812 13.976562 2.570312 14.089844 2.335938 14.167969 L 2.332031 14.167969 L 2.332031 14.171875 C 2.109375 14.257812 1.824219 14.300781 1.484375 14.300781 C 1.28125 14.300781 1.113281 14.28125 0.984375 14.25 L 0.976562 14.25 C 0.855469 14.21875 0.765625 14.1875 0.683594 14.164062 C 0.6875 14.148438 0.6875 14.140625 0.691406 14.109375 C 0.695312 14.070312 0.703125 14.023438 0.710938 13.96875 L 0.710938 13.960938 C 0.71875 13.925781 0.726562 13.882812 0.742188 13.835938 L 0.742188 13.828125 L 0.75 13.8125 C 0.75 13.800781 0.757812 13.789062 0.761719 13.773438 C 0.796875 13.789062 0.828125 13.804688 0.867188 13.820312 C 0.949219 13.851562 1.035156 13.882812 1.125 13.90625 C 1.242188 13.9375 1.359375 13.945312 1.492188 13.945312 C 1.640625 13.945312 1.789062 13.921875 1.9375 13.875 C 2.109375 13.820312 2.265625 13.71875 2.40625 13.582031 L 2.410156 13.574219 C 2.5625 13.433594 2.679688 13.253906 2.78125 13.042969 L 2.78125 13.035156 C 2.898438 12.804688 2.992188 12.523438 3.054688 12.1875 L 4.265625 5.984375 L 2.601562 5.984375 L 2.601562 5.851562 L 4.292969 5.851562 L 4.691406 3.828125 C 4.765625 3.445312 4.867188 3.117188 4.984375 2.851562 L 4.976562 2.851562 C 5.101562 2.578125 5.25 2.367188 5.414062 2.203125 C 5.585938 2.035156 5.78125 1.90625 6.015625 1.828125 C 6.242188 1.742188 6.53125 1.699219 6.875 1.699219 Z M 7.785156 6.679688 L 7.875 6.679688 C 7.609375 7.351562 7.363281 8.003906 7.25 8.507812 L 7.25 8.515625 C 7.109375 9.148438 7.042969 9.8125 7.042969 10.515625 C 7.042969 11.242188 7.140625 12.007812 7.335938 12.808594 C 7.441406 13.242188 7.648438 13.773438 7.863281 14.300781 L 7.78125 14.300781 C 7.429688 13.722656 7.132812 13.121094 6.9375 12.484375 C 6.726562 11.785156 6.625 11.117188 6.625 10.472656 C 6.625 9.773438 6.726562 9.09375 6.9375 8.429688 C 7.132812 7.8125 7.429688 7.238281 7.785156 6.679688 Z M 14.058594 6.679688 L 14.148438 6.679688 C 14.515625 7.257812 14.8125 7.84375 15.003906 8.449219 L 15.003906 8.453125 C 15.210938 9.117188 15.316406 9.765625 15.316406 10.421875 C 15.316406 11.078125 15.21875 11.75 15.007812 12.457031 C 14.820312 13.101562 14.523438 13.710938 14.164062 14.300781 L 14.078125 14.300781 C 14.289062 13.78125 14.496094 13.261719 14.601562 12.835938 L 14.601562 12.828125 C 14.796875 12.023438 14.898438 11.25 14.898438 10.511719 C 14.898438 9.8125 14.828125 9.148438 14.683594 8.515625 L 14.683594 8.507812 C 14.570312 8.003906 14.324219 7.351562 14.058594 6.679688 Z M 8.171875 7.929688 L 8.476562 8.382812 L 9.84375 10.421875 L 8.132812 13.007812 C 8.097656 12.898438 8.023438 12.742188 8 12.640625 C 7.816406 11.886719 7.726562 11.179688 7.726562 10.511719 C 7.726562 9.863281 7.789062 9.246094 7.914062 8.667969 L 7.914062 8.664062 C 7.960938 8.46875 8.101562 8.15625 8.171875 7.929688 Z M 9.398438 8.535156 L 9.976562 8.535156 L 10.917969 10.101562 L 11.921875 8.535156 L 12.429688 8.535156 L 11.199219 10.359375 L 12.574219 12.4375 L 12 12.4375 L 10.929688 10.710938 L 9.84375 12.4375 L 9.328125 12.4375 L 10.664062 10.414062 Z M 9.398438 8.535156 "/>
</g>
</svg>
