<?xml version="1.0" encoding="UTF-8"?>
<svg xmlns="http://www.w3.org/2000/svg" xmlns:xlink="http://www.w3.org/1999/xlink" width="16" height="16" viewBox="0 0 16 16" version="1.1">
<g id="surface1">
<path style=" stroke:none;fill-rule:nonzero;fill:rgb(0%,0%,0%);fill-opacity:1;" d="M 2.667969 3.332031 L 2.667969 12.667969 L 13.332031 12.667969 L 13.332031 3.332031 Z M 2 2 L 14 2 C 14.367188 2 14.667969 2.296875 14.667969 2.667969 L 14.667969 13.332031 C 14.667969 13.703125 14.367188 14 14 14 L 2 14 C 1.632812 14 1.332031 13.703125 1.332031 13.332031 L 1.332031 2.667969 C 1.332031 2.296875 1.632812 2 2 2 Z M 9.863281 6.527344 L 8.667969 5.332031 L 12 5.332031 L 12 8.667969 L 10.804688 7.472656 L 8.230469 10.046875 L 6.816406 8.632812 L 4.929688 10.519531 L 3.984375 9.574219 L 6.816406 6.746094 L 8.230469 8.160156 Z M 9.863281 6.527344 "/>
</g>
</svg>
