<?xml version="1.0" encoding="UTF-8"?>
<svg xmlns="http://www.w3.org/2000/svg" xmlns:xlink="http://www.w3.org/1999/xlink" width="16" height="16" viewBox="0 0 16 16" version="1.1">
<g id="surface1">
<path style=" stroke:none;fill-rule:nonzero;fill:rgb(0%,0%,0%);fill-opacity:1;" d="M 11.605469 12.667969 C 11.089844 11.066406 10.089844 10.078125 8.761719 8.933594 C 10.058594 7.894531 11.671875 7.332031 13.332031 7.332031 L 13.332031 2 L 14.003906 2 C 14.371094 2 14.667969 2.296875 14.667969 2.660156 L 14.667969 13.339844 C 14.664062 13.703125 14.371094 13.996094 14.003906 14 L 1.996094 14 C 1.628906 14 1.332031 13.703125 1.332031 13.339844 L 1.332031 2.660156 C 1.335938 2.296875 1.628906 2.003906 1.996094 2 L 4 2 L 4 0.667969 L 5.332031 0.667969 L 5.332031 3.332031 L 2.667969 3.332031 L 2.667969 8 C 6.148438 8 9.109375 9.640625 10.207031 12.667969 Z M 12 0.667969 L 12 3.332031 L 6.667969 3.332031 L 6.667969 2 L 10.667969 2 L 10.667969 0.667969 Z M 11 6.667969 C 10.449219 6.667969 10 6.21875 10 5.667969 C 10 5.113281 10.449219 4.667969 11 4.667969 C 11.550781 4.667969 12 5.113281 12 5.667969 C 12 6.21875 11.550781 6.667969 11 6.667969 Z M 11 6.667969 "/>
</g>
</svg>
