<?xml version="1.0" encoding="UTF-8"?>
<svg xmlns="http://www.w3.org/2000/svg" xmlns:xlink="http://www.w3.org/1999/xlink" width="16" height="16" viewBox="0 0 16 16" version="1.1">
<g id="surface1">
<path style=" stroke:none;fill-rule:nonzero;fill:rgb(0%,0%,0%);fill-opacity:1;" d="M 7.835938 14.664062 C 4.351562 14.578125 1.535156 11.828125 1.34375 8.371094 L 1.335938 8.164062 Z M 8 1.332031 C 10.175781 1.332031 12.214844 2.394531 13.460938 4.175781 L 12.371094 4.941406 C 11.238281 3.328125 9.3125 2.46875 7.355469 2.707031 C 5.398438 2.945312 3.734375 4.242188 3.023438 6.078125 L 9.921875 12.976562 C 11.527344 12.355469 12.734375 11 13.164062 9.332031 L 10.332031 9.332031 L 10.332031 8 L 14.667969 8 C 14.667969 11.152344 12.480469 13.789062 9.542969 14.488281 L 1.511719 6.457031 C 2.210938 3.519531 4.847656 1.332031 8 1.332031 Z M 8 1.332031 "/>
</g>
</svg>
