<?xml version="1.0" encoding="UTF-8"?>
<svg xmlns="http://www.w3.org/2000/svg" xmlns:xlink="http://www.w3.org/1999/xlink" width="16" height="16" viewBox="0 0 16 16" version="1.1">
<g id="surface1">
<path style=" stroke:none;fill-rule:nonzero;fill:rgb(0%,0%,0%);fill-opacity:1;" d="M 8.667969 4.710938 C 11.273438 5.0625 13.160156 7.375 12.984375 10 C 12.808594 12.625 10.628906 14.664062 8 14.667969 C 5.367188 14.667969 3.183594 12.628906 3.007812 10 C 2.832031 7.371094 4.722656 5.058594 7.332031 4.710938 L 7.332031 0.667969 L 8.667969 0.667969 Z M 8 13.332031 C 10.023438 13.332031 11.667969 11.691406 11.667969 9.667969 C 11.667969 7.640625 10.023438 6 8 6 C 5.976562 6 4.332031 7.640625 4.332031 9.667969 C 4.332031 11.691406 5.976562 13.332031 8 13.332031 Z M 8 13.332031 "/>
</g>
</svg>
