<?xml version="1.0" encoding="UTF-8"?>
<svg xmlns="http://www.w3.org/2000/svg" xmlns:xlink="http://www.w3.org/1999/xlink" width="16" height="16" viewBox="0 0 16 16" version="1.1">
<g id="surface1">
<path style=" stroke:none;fill-rule:nonzero;fill:rgb(0%,0%,0%);fill-opacity:1;" d="M 8 1.332031 C 11.3125 1.332031 14 4.019531 14 7.332031 L 14 12.332031 C 14 13.355469 13.332031 14.261719 12.355469 14.5625 C 11.378906 14.867188 10.316406 14.496094 9.738281 13.652344 C 9.386719 14.277344 8.71875 14.667969 8 14.667969 C 7.277344 14.667969 6.613281 14.277344 6.257812 13.652344 C 5.695312 14.476562 4.667969 14.847656 3.707031 14.578125 C 2.742188 14.308594 2.058594 13.460938 2.003906 12.460938 L 2 12.332031 L 2 7.332031 C 2 4.019531 4.6875 1.332031 8 1.332031 Z M 10.667969 8.667969 L 9.332031 8.667969 C 9.335938 9.386719 8.769531 9.976562 8.050781 10.003906 C 7.332031 10.03125 6.722656 9.484375 6.671875 8.765625 L 6.667969 8.667969 L 5.332031 8.667969 L 5.335938 8.800781 C 5.40625 10.21875 6.578125 11.332031 8 11.332031 C 9.421875 11.332031 10.59375 10.21875 10.664062 8.800781 Z M 8 4.667969 C 7.261719 4.667969 6.667969 5.261719 6.667969 6 C 6.667969 6.738281 7.261719 7.332031 8 7.332031 C 8.738281 7.332031 9.332031 6.738281 9.332031 6 C 9.332031 5.261719 8.738281 4.667969 8 4.667969 Z M 8 4.667969 "/>
</g>
</svg>
