<?xml version="1.0" encoding="UTF-8"?>
<svg xmlns="http://www.w3.org/2000/svg" xmlns:xlink="http://www.w3.org/1999/xlink" width="16" height="16" viewBox="0 0 16 16" version="1.1">
<g id="surface1">
<path style=" stroke:none;fill-rule:nonzero;fill:rgb(0%,0%,0%);fill-opacity:1;" d="M 10 3.332031 L 11.332031 3.332031 C 12.070312 3.332031 12.667969 3.929688 12.667969 4.667969 L 12.667969 10.113281 C 13.585938 10.4375 14.136719 11.378906 13.972656 12.335938 C 13.808594 13.296875 12.972656 14 12 14 C 11.027344 14 10.191406 13.296875 10.027344 12.335938 C 9.863281 11.378906 10.414062 10.4375 11.332031 10.113281 L 11.332031 4.667969 L 10 4.667969 L 10 6.667969 L 7 4 L 10 1.332031 Z M 3.332031 5.886719 C 2.414062 5.5625 1.863281 4.621094 2.027344 3.664062 C 2.191406 2.703125 3.027344 2 4 2 C 4.972656 2 5.808594 2.703125 5.972656 3.664062 C 6.136719 4.621094 5.585938 5.5625 4.667969 5.886719 L 4.667969 10.113281 C 5.585938 10.4375 6.136719 11.378906 5.972656 12.335938 C 5.808594 13.296875 4.972656 14 4 14 C 3.027344 14 2.191406 13.296875 2.027344 12.335938 C 1.863281 11.378906 2.414062 10.4375 3.332031 10.113281 Z M 3.332031 5.886719 "/>
</g>
</svg>
