<?xml version="1.0" encoding="UTF-8"?>
<svg xmlns="http://www.w3.org/2000/svg" xmlns:xlink="http://www.w3.org/1999/xlink" width="16" height="16" viewBox="0 0 16 16" version="1.1">
<g id="surface1">
<path style=" stroke:none;fill-rule:nonzero;fill:rgb(0%,0%,0%);fill-opacity:1;" d="M 4.738281 10.140625 C 5.636719 10.496094 6.152344 11.445312 5.960938 12.394531 C 5.769531 13.34375 4.929688 14.019531 3.960938 14 C 2.996094 13.980469 2.179688 13.273438 2.023438 12.320312 C 1.871094 11.363281 2.421875 10.433594 3.332031 10.113281 L 3.332031 5.886719 C 2.414062 5.5625 1.863281 4.621094 2.027344 3.664062 C 2.191406 2.703125 3.027344 2 4 2 C 4.972656 2 5.808594 2.703125 5.972656 3.664062 C 6.136719 4.621094 5.585938 5.5625 4.667969 5.886719 L 4.667969 8 C 5.222656 7.582031 5.914062 7.332031 6.667969 7.332031 L 9.332031 7.332031 C 10.234375 7.332031 11.027344 6.730469 11.261719 5.859375 C 10.359375 5.503906 9.84375 4.546875 10.039062 3.59375 C 10.238281 2.640625 11.089844 1.96875 12.0625 2 C 13.035156 2.03125 13.84375 2.753906 13.980469 3.71875 C 14.117188 4.679688 13.542969 5.601562 12.617188 5.902344 C 12.339844 7.5 10.953125 8.667969 9.332031 8.667969 L 6.667969 8.667969 C 5.765625 8.667969 4.972656 9.269531 4.738281 10.140625 Z M 4 11.332031 C 3.632812 11.332031 3.332031 11.632812 3.332031 12 C 3.332031 12.367188 3.632812 12.667969 4 12.667969 C 4.367188 12.667969 4.667969 12.367188 4.667969 12 C 4.667969 11.632812 4.367188 11.332031 4 11.332031 Z M 4 3.332031 C 3.632812 3.332031 3.332031 3.632812 3.332031 4 C 3.332031 4.367188 3.632812 4.667969 4 4.667969 C 4.367188 4.667969 4.667969 4.367188 4.667969 4 C 4.667969 3.632812 4.367188 3.332031 4 3.332031 Z M 12 3.332031 C 11.632812 3.332031 11.332031 3.632812 11.332031 4 C 11.332031 4.367188 11.632812 4.667969 12 4.667969 C 12.367188 4.667969 12.667969 4.367188 12.667969 4 C 12.667969 3.632812 12.367188 3.332031 12 3.332031 Z M 12 3.332031 "/>
</g>
</svg>
