<?xml version="1.0" encoding="UTF-8"?>
<svg xmlns="http://www.w3.org/2000/svg" xmlns:xlink="http://www.w3.org/1999/xlink" width="16" height="16" viewBox="0 0 16 16" version="1.1">
<g id="surface1">
<path style=" stroke:none;fill-rule:nonzero;fill:rgb(0%,0%,0%);fill-opacity:1;" d="M 4.738281 5.859375 C 4.972656 6.730469 5.765625 7.332031 6.667969 7.332031 L 9.332031 7.332031 C 10.953125 7.332031 12.339844 8.5 12.617188 10.097656 C 13.550781 10.402344 14.128906 11.339844 13.972656 12.3125 C 13.820312 13.285156 12.984375 14 12 14 C 11.039062 14 10.214844 13.320312 10.035156 12.375 C 9.855469 11.429688 10.371094 10.492188 11.261719 10.140625 C 11.027344 9.269531 10.234375 8.667969 9.332031 8.667969 L 6.667969 8.667969 C 5.945312 8.667969 5.242188 8.433594 4.667969 8 L 4.667969 10.113281 C 5.585938 10.4375 6.136719 11.378906 5.972656 12.335938 C 5.808594 13.296875 4.972656 14 4 14 C 3.027344 14 2.191406 13.296875 2.027344 12.335938 C 1.863281 11.378906 2.414062 10.4375 3.332031 10.113281 L 3.332031 5.886719 C 2.421875 5.566406 1.871094 4.636719 2.023438 3.679688 C 2.179688 2.726562 2.996094 2.019531 3.960938 2 C 4.929688 1.980469 5.769531 2.65625 5.960938 3.605469 C 6.152344 4.554688 5.636719 5.503906 4.738281 5.859375 Z M 4.738281 5.859375 "/>
</g>
</svg>
