<?xml version="1.0" encoding="UTF-8"?>
<svg xmlns="http://www.w3.org/2000/svg" xmlns:xlink="http://www.w3.org/1999/xlink" width="16" height="16" viewBox="0 0 16 16" version="1.1">
<g id="surface1">
<path style=" stroke:none;fill-rule:nonzero;fill:rgb(0%,0%,0%);fill-opacity:1;" d="M 8 14.667969 C 4.316406 14.667969 1.332031 11.683594 1.332031 8 C 1.332031 4.316406 4.316406 1.332031 8 1.332031 C 11.683594 1.332031 14.667969 4.316406 14.667969 8 C 14.667969 11.683594 11.683594 14.667969 8 14.667969 Z M 6.472656 13.113281 C 5.816406 11.714844 5.433594 10.207031 5.351562 8.667969 L 2.707031 8.667969 C 2.972656 10.761719 4.449219 12.503906 6.472656 13.113281 Z M 6.6875 8.667969 C 6.789062 10.292969 7.253906 11.820312 8 13.167969 C 8.769531 11.785156 9.21875 10.246094 9.3125 8.667969 Z M 13.292969 8.667969 L 10.648438 8.667969 C 10.566406 10.207031 10.183594 11.714844 9.527344 13.113281 C 11.550781 12.503906 13.027344 10.761719 13.292969 8.667969 Z M 2.707031 7.332031 L 5.351562 7.332031 C 5.433594 5.792969 5.816406 4.285156 6.472656 2.886719 C 4.449219 3.496094 2.972656 5.238281 2.707031 7.332031 Z M 6.6875 7.332031 L 9.3125 7.332031 C 9.214844 5.753906 8.769531 4.214844 8 2.832031 C 7.230469 4.214844 6.78125 5.753906 6.6875 7.332031 Z M 9.527344 2.886719 C 10.183594 4.285156 10.566406 5.792969 10.648438 7.332031 L 13.292969 7.332031 C 13.027344 5.238281 11.550781 3.496094 9.527344 2.886719 Z M 9.527344 2.886719 "/>
</g>
</svg>
