<?xml version="1.0" encoding="UTF-8"?>
<svg xmlns="http://www.w3.org/2000/svg" xmlns:xlink="http://www.w3.org/1999/xlink" width="16" height="16" viewBox="0 0 16 16" version="1.1">
<g id="surface1">
<path style=" stroke:none;fill-rule:nonzero;fill:rgb(0%,0%,0%);fill-opacity:1;" d="M 1.367188 8.667969 L 2.707031 8.667969 C 3.042969 11.332031 5.3125 13.332031 8 13.332031 C 10.6875 13.332031 12.957031 11.332031 13.292969 8.667969 L 14.632812 8.667969 C 14.300781 12.035156 11.457031 14.667969 8 14.667969 C 4.542969 14.667969 1.699219 12.035156 1.367188 8.667969 Z M 1.367188 7.332031 C 1.699219 3.964844 4.542969 1.332031 8 1.332031 C 11.457031 1.332031 14.300781 3.964844 14.632812 7.332031 L 13.292969 7.332031 C 12.957031 4.667969 10.6875 2.667969 8 2.667969 C 5.3125 2.667969 3.042969 4.667969 2.707031 7.332031 Z M 8 9.332031 C 7.261719 9.332031 6.667969 8.738281 6.667969 8 C 6.667969 7.261719 7.261719 6.667969 8 6.667969 C 8.738281 6.667969 9.332031 7.261719 9.332031 8 C 9.332031 8.738281 8.738281 9.332031 8 9.332031 Z M 8 9.332031 "/>
</g>
</svg>
