<?xml version="1.0" encoding="UTF-8"?>
<svg xmlns="http://www.w3.org/2000/svg" xmlns:xlink="http://www.w3.org/1999/xlink" width="16" height="16" viewBox="0 0 16 16" version="1.1">
<g id="surface1">
<path style=" stroke:none;fill-rule:nonzero;fill:rgb(0%,0%,0%);fill-opacity:1;" d="M 12.664062 11.863281 C 12.621094 11.050781 12.214844 10.304688 11.554688 9.832031 C 10.894531 9.359375 10.054688 9.210938 9.273438 9.433594 C 8.984375 8.101562 7.738281 7.203125 6.382812 7.351562 C 5.027344 7.496094 4 8.636719 4 10 C 4 10.71875 4.285156 11.371094 4.746094 11.851562 C 2.289062 11.257812 0.585938 9.015625 0.671875 6.484375 C 0.757812 3.957031 2.613281 1.835938 5.105469 1.410156 C 7.601562 0.984375 10.050781 2.375 10.972656 4.730469 C 12.90625 4.347656 14.800781 5.5625 15.253906 7.480469 C 15.710938 9.402344 14.566406 11.339844 12.664062 11.863281 Z M 6.667969 11.332031 C 5.929688 11.332031 5.332031 10.738281 5.332031 10 C 5.332031 9.261719 5.929688 8.667969 6.667969 8.667969 C 7.402344 8.667969 8 9.261719 8 10 C 8 10.738281 7.402344 11.332031 6.667969 11.332031 Z M 10 13.332031 C 9.261719 13.332031 8.667969 12.738281 8.667969 12 C 8.667969 11.261719 9.261719 10.667969 10 10.667969 C 10.738281 10.667969 11.332031 11.261719 11.332031 12 C 11.332031 12.738281 10.738281 13.332031 10 13.332031 Z M 6.667969 15.332031 C 5.929688 15.332031 5.332031 14.738281 5.332031 14 C 5.332031 13.261719 5.929688 12.667969 6.667969 12.667969 C 7.402344 12.667969 8 13.261719 8 14 C 8 14.738281 7.402344 15.332031 6.667969 15.332031 Z M 6.667969 15.332031 "/>
</g>
</svg>
