<?xml version="1.0" encoding="UTF-8"?>
<svg xmlns="http://www.w3.org/2000/svg" xmlns:xlink="http://www.w3.org/1999/xlink" width="16" height="16" viewBox="0 0 16 16" version="1.1">
<g id="surface1">
<path style=" stroke:none;fill-rule:nonzero;fill:rgb(0%,0%,0%);fill-opacity:1;" d="M 3.332031 6 C 3.703125 6 4 6.296875 4 6.667969 C 5.046875 6.664062 6.066406 7.015625 6.886719 7.667969 L 8.332031 7.667969 C 9.222656 7.667969 10.019531 8.050781 10.570312 8.664062 L 12.667969 8.667969 C 13.953125 8.667969 15.125 9.40625 15.675781 10.566406 C 14.101562 12.648438 11.546875 14 8.667969 14 C 6.808594 14 5.234375 13.597656 3.960938 12.894531 C 3.863281 13.160156 3.613281 13.332031 3.332031 13.332031 L 1.332031 13.332031 C 0.964844 13.332031 0.667969 13.035156 0.667969 12.667969 L 0.667969 6.667969 C 0.667969 6.296875 0.964844 6 1.332031 6 Z M 4 8 L 4 11.347656 L 4.03125 11.371094 C 5.226562 12.210938 6.785156 12.667969 8.667969 12.667969 C 10.667969 12.667969 12.53125 11.894531 13.890625 10.578125 L 13.980469 10.492188 L 13.898438 10.425781 C 13.582031 10.179688 13.203125 10.03125 12.804688 10.003906 L 12.667969 10 L 11.257812 10 C 11.308594 10.214844 11.332031 10.4375 11.332031 10.667969 L 11.332031 11.332031 L 5.332031 11.332031 L 5.332031 10 L 9.859375 10 L 9.835938 9.949219 C 9.578125 9.402344 9.042969 9.042969 8.441406 9.003906 L 8.332031 9 L 6.378906 9 C 5.753906 8.359375 4.898438 8 4 8 Z M 2.667969 7.332031 L 2 7.332031 L 2 12 L 2.667969 12 Z M 9.097656 2.382812 L 9.332031 2.621094 L 9.570312 2.382812 C 9.988281 1.960938 10.605469 1.792969 11.183594 1.945312 C 11.757812 2.101562 12.210938 2.550781 12.363281 3.128906 C 12.515625 3.707031 12.351562 4.320312 11.925781 4.742188 L 9.332031 7.332031 L 6.738281 4.738281 C 6.316406 4.320312 6.148438 3.703125 6.304688 3.128906 C 6.457031 2.550781 6.90625 2.097656 7.484375 1.945312 C 8.0625 1.792969 8.675781 1.960938 9.097656 2.382812 Z M 7.683594 3.328125 C 7.570312 3.441406 7.554688 3.617188 7.644531 3.75 L 7.683594 3.796875 L 9.332031 5.445312 L 10.984375 3.796875 C 11.097656 3.683594 11.113281 3.503906 11.023438 3.371094 L 10.984375 3.324219 C 10.871094 3.210938 10.691406 3.195312 10.558594 3.289062 L 10.511719 3.324219 L 9.332031 4.503906 L 8.15625 3.324219 L 8.109375 3.289062 C 7.976562 3.195312 7.796875 3.210938 7.683594 3.324219 Z M 7.683594 3.328125 "/>
</g>
</svg>
