<?xml version="1.0" encoding="UTF-8"?>
<svg xmlns="http://www.w3.org/2000/svg" xmlns:xlink="http://www.w3.org/1999/xlink" width="16" height="16" viewBox="0 0 16 16" version="1.1">
<g id="surface1">
<path style=" stroke:none;fill-rule:nonzero;fill:rgb(0%,0%,0%);fill-opacity:1;" d="M 6.21875 7.667969 L 7.667969 7.667969 C 9.324219 7.667969 10.667969 9.011719 10.667969 10.667969 L 6 10.667969 L 6 11.332031 L 11.332031 11.332031 L 11.332031 10.667969 C 11.332031 9.957031 11.125 9.261719 10.742188 8.667969 L 12.667969 8.667969 C 13.953125 8.667969 15.125 9.40625 15.675781 10.566406 C 14.101562 12.648438 11.546875 14 8.667969 14 C 6.824219 14 5.265625 13.605469 4 12.917969 L 4 6.714844 C 4.8125 6.832031 5.578125 7.160156 6.21875 7.667969 Z M 3.332031 12.667969 C 3.332031 13.035156 3.035156 13.332031 2.667969 13.332031 L 1.332031 13.332031 C 0.964844 13.332031 0.667969 13.035156 0.667969 12.667969 L 0.667969 6.667969 C 0.667969 6.296875 0.964844 6 1.332031 6 L 2.667969 6 C 3.035156 6 3.332031 6.296875 3.332031 6.667969 Z M 12 3.332031 C 13.105469 3.332031 14 4.230469 14 5.332031 C 14 6.4375 13.105469 7.332031 12 7.332031 C 10.894531 7.332031 10 6.4375 10 5.332031 C 10 4.230469 10.894531 3.332031 12 3.332031 Z M 7.332031 1.332031 C 8.4375 1.332031 9.332031 2.230469 9.332031 3.332031 C 9.332031 4.4375 8.4375 5.332031 7.332031 5.332031 C 6.230469 5.332031 5.332031 4.4375 5.332031 3.332031 C 5.332031 2.230469 6.230469 1.332031 7.332031 1.332031 Z M 7.332031 1.332031 "/>
</g>
</svg>
