<?xml version="1.0" encoding="UTF-8"?>
<svg xmlns="http://www.w3.org/2000/svg" xmlns:xlink="http://www.w3.org/1999/xlink" width="16" height="16" viewBox="0 0 16 16" version="1.1">
<g id="surface1">
<path style=" stroke:none;fill-rule:evenodd;fill:rgb(0%,0%,0%);fill-opacity:1;" d="M 3 0 C 1.890625 0 1 0.890625 1 2 L 1 14 C 1 15.109375 1.890625 16 3 16 L 13 16 C 14.109375 16 15 15.109375 15 14 L 15 2 C 15 0.890625 14.109375 0 13 0 Z M 8 2 C 10.761719 2 13 4.238281 13 7 C 13 9.761719 10.761719 12 8 12 C 7.773438 12 7.546875 11.984375 7.320312 11.953125 L 9.21875 9.625 C 9.671875 9.125 9.609375 8.382812 9.21875 7.980469 C 9.085938 7.84375 8.90625 7.757812 8.714844 7.699219 C 8.898438 7.511719 9 7.261719 9 7 C 9 6.445312 8.554688 6 8 6 C 7.445312 6 7 6.445312 7 7 C 7 7.375 7.210938 7.71875 7.546875 7.890625 L 4.308594 10.367188 C 3.46875 9.449219 3 8.246094 3 7 C 3 4.238281 5.238281 2 8 2 Z M 8.378906 8.601562 C 8.433594 8.605469 8.46875 8.640625 8.503906 8.671875 C 8.570312 8.746094 8.632812 8.789062 8.484375 8.953125 L 8.476562 8.96875 L 4.648438 13.640625 C 4.023438 14.253906 3.554688 14.105469 3.25 13.789062 C 2.945312 13.476562 2.820312 12.945312 3.367188 12.351562 L 8.148438 8.695312 C 8.253906 8.617188 8.324219 8.59375 8.378906 8.601562 Z M 8.378906 8.601562 "/>
</g>
</svg>
