<?xml version="1.0" encoding="UTF-8"?>
<svg xmlns="http://www.w3.org/2000/svg" xmlns:xlink="http://www.w3.org/1999/xlink" width="16" height="16" viewBox="0 0 16 16" version="1.1">
<g id="surface1">
<path style=" stroke:none;fill-rule:nonzero;fill:rgb(0%,0%,0%);fill-opacity:1;" d="M 5.1875 9.332031 L 5.46875 6.667969 L 2.667969 6.667969 L 2.667969 5.332031 L 5.609375 5.332031 L 5.960938 2 L 7.300781 2 L 6.949219 5.332031 L 9.609375 5.332031 L 9.960938 2 L 11.300781 2 L 10.949219 5.332031 L 13.332031 5.332031 L 13.332031 6.667969 L 10.8125 6.667969 L 10.53125 9.332031 L 13.332031 9.332031 L 13.332031 10.667969 L 10.390625 10.667969 L 10.039062 14 L 8.699219 14 L 9.050781 10.667969 L 6.390625 10.667969 L 6.039062 14 L 4.699219 14 L 5.050781 10.667969 L 2.667969 10.667969 L 2.667969 9.332031 Z M 6.53125 9.332031 L 9.191406 9.332031 L 9.46875 6.667969 L 6.808594 6.667969 Z M 6.53125 9.332031 "/>
</g>
</svg>
