<?xml version="1.0" encoding="UTF-8"?>
<svg xmlns="http://www.w3.org/2000/svg" xmlns:xlink="http://www.w3.org/1999/xlink" width="16" height="16" viewBox="0 0 16 16" version="1.1">
<g id="surface1">
<path style=" stroke:none;fill-rule:nonzero;fill:rgb(0%,0%,0%);fill-opacity:1;" d="M 8 3.019531 C 9.566406 1.613281 11.988281 1.660156 13.496094 3.171875 C 15.003906 4.683594 15.054688 7.089844 13.652344 8.660156 L 8 14.324219 L 2.347656 8.660156 C 0.945312 7.089844 0.996094 4.679688 2.503906 3.171875 C 4.015625 1.660156 6.429688 1.613281 8 3.019531 Z M 12.550781 4.113281 C 11.550781 3.113281 9.9375 3.070312 8.890625 4.011719 L 8 4.808594 L 7.109375 4.011719 C 6.0625 3.070312 4.449219 3.113281 3.449219 4.113281 C 2.453125 5.109375 2.40625 6.699219 3.320312 7.75 L 8 12.4375 L 12.679688 7.75 C 13.597656 6.699219 13.546875 5.109375 12.550781 4.113281 Z M 12.550781 4.113281 "/>
</g>
</svg>
