<?xml version="1.0" encoding="UTF-8"?>
<svg xmlns="http://www.w3.org/2000/svg" xmlns:xlink="http://www.w3.org/1999/xlink" width="16" height="16" viewBox="0 0 16 16" version="1.1">
<g id="surface1">
<path style=" stroke:none;fill-rule:nonzero;fill:rgb(0%,0%,0%);fill-opacity:1;" d="M 4 1 C 3.140625 1 2.445312 1.695312 2.445312 2.554688 C 2.445312 3.410156 3.140625 4.109375 4 4.109375 C 4.859375 4.109375 5.554688 3.410156 5.554688 2.554688 C 5.554688 1.695312 4.859375 1 4 1 Z M 4 4.839844 C 2.195312 4.839844 1.75 6.980469 1.671875 8.640625 L 0.359375 8.640625 C 0.261719 8.640625 0.171875 8.679688 0.105469 8.75 C 0.0390625 8.8125 0 8.90625 0 9 L 0 14 C 0 15.105469 0.894531 16 2 16 L 14 16 C 15.105469 16 16 15.105469 16 14 L 16 9 C 16 8.90625 15.960938 8.8125 15.894531 8.75 C 15.828125 8.679688 15.738281 8.640625 15.640625 8.640625 L 6.328125 8.640625 C 6.25 6.980469 5.804688 4.839844 4 4.839844 Z M 4 4.839844 "/>
<path style=" stroke:none;fill-rule:evenodd;fill:rgb(0%,0%,0%);fill-opacity:1;" d="M 10.84375 2.890625 C 10.84375 2.5 10.609375 2.203125 10.320312 1.925781 C 10.03125 1.648438 9.636719 1.347656 9.125 0.953125 L 8.570312 1.667969 C 9.082031 2.0625 9.46875 2.359375 9.691406 2.574219 C 9.914062 2.789062 9.933594 2.890625 9.933594 2.890625 C 9.933594 2.894531 9.914062 2.992188 9.691406 3.210938 C 9.46875 3.425781 9.082031 3.71875 8.570312 4.117188 C 8.054688 4.515625 7.671875 4.8125 7.382812 5.09375 C 7.09375 5.371094 6.855469 5.664062 6.855469 6.058594 C 6.855469 6.453125 7.09375 6.746094 7.382812 7.023438 C 7.671875 7.304688 8.054688 7.601562 8.570312 8 L 9.125 7.285156 C 8.609375 6.890625 8.226562 6.59375 8 6.375 C 7.773438 6.160156 7.757812 6.0625 7.757812 6.058594 C 7.757812 6.054688 7.773438 5.960938 8 5.742188 C 8.226562 5.523438 8.609375 5.230469 9.125 4.835938 C 9.636719 4.4375 10.03125 4.140625 10.320312 3.859375 C 10.609375 3.578125 10.84375 3.285156 10.84375 2.890625 Z M 10.84375 2.890625 "/>
<path style=" stroke:none;fill-rule:evenodd;fill:rgb(0%,0%,0%);fill-opacity:1;" d="M 13.414062 2.890625 C 13.414062 2.5 13.179688 2.203125 12.890625 1.925781 C 12.601562 1.648438 12.210938 1.347656 11.695312 0.953125 L 11.140625 1.667969 C 11.65625 2.0625 12.039062 2.359375 12.265625 2.574219 C 12.488281 2.789062 12.507812 2.890625 12.507812 2.890625 C 12.507812 2.894531 12.488281 2.992188 12.265625 3.210938 C 12.039062 3.425781 11.65625 3.71875 11.140625 4.117188 C 10.625 4.515625 10.242188 4.8125 9.953125 5.09375 C 9.664062 5.371094 9.429688 5.664062 9.429688 6.058594 C 9.429688 6.453125 9.664062 6.746094 9.953125 7.023438 C 10.242188 7.304688 10.625 7.601562 11.140625 8 L 11.695312 7.285156 C 11.179688 6.890625 10.796875 6.59375 10.570312 6.375 C 10.347656 6.160156 10.328125 6.0625 10.328125 6.058594 C 10.328125 6.054688 10.347656 5.960938 10.570312 5.742188 C 10.796875 5.523438 11.179688 5.230469 11.695312 4.835938 C 12.210938 4.4375 12.601562 4.140625 12.890625 3.859375 C 13.179688 3.578125 13.414062 3.285156 13.414062 2.890625 Z M 13.414062 2.890625 "/>
<path style=" stroke:none;fill-rule:evenodd;fill:rgb(0%,0%,0%);fill-opacity:1;" d="M 15.984375 2.890625 C 15.984375 2.5 15.75 2.203125 15.460938 1.925781 C 15.171875 1.648438 14.78125 1.347656 14.265625 0.953125 L 13.710938 1.667969 C 14.226562 2.0625 14.609375 2.359375 14.835938 2.574219 C 15.0625 2.789062 15.078125 2.890625 15.078125 2.890625 C 15.078125 2.894531 15.0625 2.992188 14.835938 3.210938 C 14.609375 3.425781 14.226562 3.71875 13.710938 4.117188 C 13.199219 4.515625 12.8125 4.8125 12.523438 5.09375 C 12.234375 5.371094 12 5.664062 12 6.058594 C 12 6.453125 12.234375 6.746094 12.523438 7.023438 C 12.8125 7.304688 13.199219 7.601562 13.710938 8 L 14.265625 7.285156 C 13.753906 6.890625 13.367188 6.59375 13.144531 6.375 C 12.921875 6.160156 12.898438 6.0625 12.898438 6.058594 C 12.898438 6.054688 12.921875 5.960938 13.144531 5.742188 C 13.367188 5.523438 13.753906 5.230469 14.265625 4.835938 C 14.78125 4.4375 15.171875 4.140625 15.460938 3.859375 C 15.75 3.578125 15.984375 3.285156 15.984375 2.890625 Z M 15.984375 2.890625 "/>
</g>
</svg>
