<?xml version="1.0" encoding="UTF-8"?>
<svg xmlns="http://www.w3.org/2000/svg" xmlns:xlink="http://www.w3.org/1999/xlink" width="16" height="16" viewBox="0 0 16 16" version="1.1">
<g id="surface1">
<path style=" stroke:none;fill-rule:nonzero;fill:rgb(0%,0%,0%);fill-opacity:1;" d="M 3.332031 7.398438 L 4.667969 6.066406 L 8.332031 9.734375 L 10.667969 7.398438 L 12.667969 9.398438 L 12.667969 3.332031 L 3.332031 3.332031 Z M 3.332031 9.285156 L 3.332031 12.667969 L 5.398438 12.667969 L 7.390625 10.675781 L 4.667969 7.953125 Z M 7.285156 12.667969 L 12.667969 12.667969 L 12.667969 11.285156 L 10.667969 9.285156 Z M 2.667969 2 L 13.332031 2 C 13.703125 2 14 2.296875 14 2.667969 L 14 13.332031 C 14 13.703125 13.703125 14 13.332031 14 L 2.667969 14 C 2.296875 14 2 13.703125 2 13.332031 L 2 2.667969 C 2 2.296875 2.296875 2 2.667969 2 Z M 10.332031 6.667969 C 9.78125 6.667969 9.332031 6.21875 9.332031 5.667969 C 9.332031 5.113281 9.78125 4.667969 10.332031 4.667969 C 10.886719 4.667969 11.332031 5.113281 11.332031 5.667969 C 11.332031 6.21875 10.886719 6.667969 10.332031 6.667969 Z M 10.332031 6.667969 "/>
</g>
</svg>
