<?xml version="1.0" encoding="UTF-8"?>
<svg xmlns="http://www.w3.org/2000/svg" xmlns:xlink="http://www.w3.org/1999/xlink" width="16" height="16" viewBox="0 0 16 16" version="1.1">
<g id="surface1">
<path style=" stroke:none;fill-rule:nonzero;fill:rgb(0%,0%,0%);fill-opacity:1;" d="M 13.332031 2 C 13.703125 2 14 2.296875 14 2.667969 L 14 3.839844 L 12.667969 5.171875 L 12.667969 3.332031 L 3.332031 3.332031 L 3.332031 8.734375 L 6 6.066406 L 8.886719 8.953125 L 8 9.835938 L 7.996094 12.664062 L 10.828125 12.667969 L 11.714844 11.78125 L 12.597656 12.667969 L 12.667969 12.667969 L 12.667969 10.828125 L 14 9.496094 L 14 13.332031 C 14 13.703125 13.703125 14 13.332031 14 L 2.667969 14 C 2.296875 14 2 13.703125 2 13.332031 L 2 2.667969 C 2 2.296875 2.296875 2 2.667969 2 Z M 14.519531 5.207031 L 15.460938 6.148438 L 10.277344 11.332031 L 9.332031 11.332031 L 9.332031 10.390625 Z M 10.332031 4.667969 C 10.886719 4.667969 11.332031 5.113281 11.332031 5.667969 C 11.332031 6.21875 10.886719 6.667969 10.332031 6.667969 C 9.78125 6.667969 9.332031 6.21875 9.332031 5.667969 C 9.332031 5.113281 9.78125 4.667969 10.332031 4.667969 Z M 10.332031 4.667969 "/>
</g>
</svg>
