<?xml version="1.0" encoding="UTF-8"?>
<svg xmlns="http://www.w3.org/2000/svg" xmlns:xlink="http://www.w3.org/1999/xlink" width="16" height="16" viewBox="0 0 16 16" version="1.1">
<g id="surface1">
<path style=" stroke:none;fill-rule:nonzero;fill:rgb(0%,0%,0%);fill-opacity:1;" d="M 2.667969 2 L 13.332031 2 C 13.703125 2 14 2.296875 14 2.667969 L 14 13.332031 C 14 13.703125 13.703125 14 13.332031 14 L 2.667969 14 C 2.296875 14 2 13.703125 2 13.332031 L 2 2.667969 C 2 2.296875 2.296875 2 2.667969 2 Z M 4.660156 9.375 C 4.617188 9.554688 4.597656 9.746094 4.597656 9.902344 C 4.597656 10.519531 4.921875 10.929688 5.605469 10.929688 C 6.171875 10.929688 6.632812 10.582031 6.960938 10.015625 L 6.761719 10.859375 L 7.886719 10.859375 L 8.53125 8.171875 C 8.691406 7.492188 9.003906 7.136719 9.476562 7.136719 C 9.847656 7.136719 10.082031 7.378906 10.082031 7.777344 C 10.082031 7.890625 10.070312 8.015625 10.03125 8.152344 L 9.699219 9.386719 C 9.652344 9.558594 9.628906 9.734375 9.628906 9.910156 C 9.628906 10.5 9.960938 10.925781 10.65625 10.925781 C 11.246094 10.925781 11.722656 10.53125 11.984375 9.578125 L 11.539062 9.398438 C 11.320312 10.039062 11.125 10.152344 10.976562 10.152344 C 10.824219 10.152344 10.746094 10.046875 10.746094 9.839844 C 10.746094 9.746094 10.765625 9.640625 10.796875 9.515625 L 11.117188 8.3125 C 11.199219 8.027344 11.226562 7.777344 11.226562 7.546875 C 11.226562 6.648438 10.703125 6.179688 10.070312 6.179688 C 9.476562 6.179688 8.875 6.734375 8.570312 7.320312 L 8.792969 6.269531 L 7.074219 6.269531 L 6.832031 7.195312 L 7.636719 7.195312 L 7.140625 9.261719 C 6.75 10.160156 6.035156 10.175781 5.945312 10.152344 C 5.796875 10.121094 5.703125 10.0625 5.703125 9.863281 C 5.703125 9.746094 5.726562 9.582031 5.773438 9.382812 L 6.53125 6.269531 L 4.617188 6.269531 L 4.375 7.195312 L 5.171875 7.195312 L 4.65625 9.375 Z M 5.75 5.75 C 6.164062 5.75 6.5 5.414062 6.5 5 C 6.5 4.585938 6.164062 4.25 5.75 4.25 C 5.335938 4.25 5 4.585938 5 5 C 5 5.414062 5.335938 5.75 5.75 5.75 Z M 5.75 5.75 "/>
</g>
</svg>
