<?xml version="1.0" encoding="UTF-8"?>
<svg xmlns="http://www.w3.org/2000/svg" xmlns:xlink="http://www.w3.org/1999/xlink" width="16" height="16" viewBox="0 0 16 16" version="1.1">
<g id="surface1">
<path style=" stroke:none;fill-rule:nonzero;fill:rgb(0%,0%,0%);fill-opacity:1;" d="M 3.785156 12.082031 C 2.0625 11.042969 1 9.40625 1 7.601562 C 1 4.46875 4.164062 2 8 2 C 11.835938 2 15 4.46875 15 7.601562 C 15 10.738281 11.835938 13.207031 8 13.207031 C 7.707031 13.207031 7.410156 13.191406 7.121094 13.164062 L 4.613281 14.800781 C 4.203125 15.019531 3.972656 15.085938 3.621094 14.847656 C 3.207031 14.5625 3.222656 14.25 3.367188 13.804688 Z M 2.332031 7.601562 C 2.332031 9.023438 3.277344 10.351562 4.855469 11.148438 L 5.324219 11.390625 L 5.199219 11.902344 L 4.933594 13 L 6.800781 11.78125 L 7.042969 11.8125 C 7.359375 11.851562 7.679688 11.875 8 11.875 C 11.160156 11.875 13.667969 9.921875 13.667969 7.601562 C 13.667969 5.285156 11.160156 3.332031 8 3.332031 C 4.839844 3.332031 2.332031 5.285156 2.332031 7.601562 Z M 11.9375 7.371094 L 12.949219 8.808594 C 13.046875 8.953125 13.011719 9.148438 12.871094 9.246094 C 12.726562 9.347656 12.53125 9.3125 12.433594 9.171875 L 11.480469 7.816406 L 11.195312 8.089844 L 11.195312 9 C 11.195312 9.171875 11.054688 9.316406 10.878906 9.316406 C 10.707031 9.316406 10.566406 9.171875 10.566406 9 L 10.566406 8.039062 C 10.554688 7.992188 10.554688 7.941406 10.566406 7.894531 L 10.566406 6.1875 C 10.566406 6.015625 10.707031 5.875 10.878906 5.875 C 11.054688 5.875 11.195312 6.015625 11.195312 6.1875 L 11.195312 7.214844 L 12.480469 5.972656 C 12.605469 5.859375 12.800781 5.863281 12.917969 5.988281 C 13.035156 6.109375 13.035156 6.300781 12.917969 6.425781 Z M 9.964844 8.65625 C 10.140625 8.65625 10.28125 8.796875 10.28125 8.96875 C 10.28125 9.144531 10.140625 9.285156 9.964844 9.285156 L 8.679688 9.285156 C 8.503906 9.285156 8.363281 9.144531 8.363281 8.96875 L 8.363281 6.199219 C 8.359375 6.082031 8.417969 5.972656 8.515625 5.914062 C 8.617188 5.855469 8.742188 5.855469 8.839844 5.914062 C 8.9375 5.972656 8.996094 6.082031 8.992188 6.199219 L 8.992188 8.65625 Z M 6.0625 7.929688 L 6.949219 7.929688 L 6.523438 6.789062 Z M 7.742188 8.253906 L 7.972656 8.871094 C 8.015625 8.976562 8 9.097656 7.925781 9.1875 C 7.855469 9.277344 7.738281 9.320312 7.625 9.296875 C 7.515625 9.277344 7.421875 9.199219 7.382812 9.089844 L 7.183594 8.558594 L 5.804688 8.558594 L 5.585938 9.097656 C 5.519531 9.261719 5.335938 9.335938 5.175781 9.273438 C 5.011719 9.207031 4.9375 9.023438 5.003906 8.863281 L 6.109375 6.144531 C 6.179688 5.964844 6.351562 5.84375 6.542969 5.847656 C 6.734375 5.855469 6.902344 5.980469 6.960938 6.164062 L 7.660156 8.03125 C 7.714844 8.085938 7.746094 8.164062 7.746094 8.242188 Z M 5.527344 6.203125 C 5.527344 6.375 5.386719 6.515625 5.214844 6.515625 L 4.453125 6.515625 L 4.453125 9.007812 C 4.453125 9.179688 4.3125 9.320312 4.140625 9.320312 C 3.964844 9.320312 3.824219 9.179688 3.824219 9.007812 L 3.824219 6.515625 L 3.050781 6.515625 C 2.878906 6.515625 2.738281 6.375 2.738281 6.203125 C 2.738281 6.027344 2.878906 5.886719 3.050781 5.886719 L 5.214844 5.886719 C 5.386719 5.886719 5.527344 6.027344 5.527344 6.203125 Z M 5.527344 6.203125 "/>
</g>
</svg>
