<?xml version="1.0" encoding="UTF-8"?>
<svg xmlns="http://www.w3.org/2000/svg" xmlns:xlink="http://www.w3.org/1999/xlink" width="16" height="16" viewBox="0 0 16 16" version="1.1">
<g id="surface1">
<path style=" stroke:none;fill-rule:nonzero;fill:rgb(0%,0%,0%);fill-opacity:1;" d="M 11.332031 9.332031 L 8.4375 9.332031 C 7.789062 11.171875 5.910156 12.273438 3.992188 11.941406 C 2.070312 11.613281 0.667969 9.949219 0.667969 8 C 0.667969 6.050781 2.070312 4.386719 3.992188 4.058594 C 5.910156 3.726562 7.789062 4.828125 8.4375 6.667969 L 15.332031 6.667969 L 15.332031 9.332031 L 14 9.332031 L 14 12 L 11.332031 12 Z M 4.667969 9.332031 C 5.402344 9.332031 6 8.738281 6 8 C 6 7.261719 5.402344 6.667969 4.667969 6.667969 C 3.929688 6.667969 3.332031 7.261719 3.332031 8 C 3.332031 8.738281 3.929688 9.332031 4.667969 9.332031 Z M 4.667969 9.332031 "/>
</g>
</svg>
