<?xml version="1.0" encoding="UTF-8"?>
<svg xmlns="http://www.w3.org/2000/svg" xmlns:xlink="http://www.w3.org/1999/xlink" width="16" height="16" viewBox="0 0 16 16" version="1.1">
<g id="surface1">
<path style=" stroke:none;fill-rule:nonzero;fill:rgb(0%,0%,0%);fill-opacity:1;" d="M 8.613281 8.667969 C 8.257812 10.710938 6.402344 12.148438 4.332031 11.976562 C 2.265625 11.800781 0.671875 10.074219 0.667969 8 C 0.664062 5.917969 2.257812 4.183594 4.332031 4.011719 C 6.40625 3.835938 8.265625 5.28125 8.613281 7.332031 L 15.332031 7.332031 L 15.332031 8.667969 L 14 8.667969 L 14 11.332031 L 12.667969 11.332031 L 12.667969 8.667969 L 11.332031 8.667969 L 11.332031 11.332031 L 10 11.332031 L 10 8.667969 Z M 4.667969 10.667969 C 6.140625 10.667969 7.332031 9.472656 7.332031 8 C 7.332031 6.527344 6.140625 5.332031 4.667969 5.332031 C 3.195312 5.332031 2 6.527344 2 8 C 2 9.472656 3.195312 10.667969 4.667969 10.667969 Z M 4.667969 10.667969 "/>
</g>
</svg>
