<?xml version="1.0" encoding="UTF-8"?>
<svg xmlns="http://www.w3.org/2000/svg" xmlns:xlink="http://www.w3.org/1999/xlink" width="16" height="16" viewBox="0 0 16 16" version="1.1">
<g id="surface1">
<path style=" stroke:none;fill-rule:evenodd;fill:rgb(0%,0%,0%);fill-opacity:1;" d="M 3 0 L 3 2 L 5 2 L 5 0 Z M 6 0 L 6 2 L 8 2 L 8 0 Z M 7 2 C 6.445312 2 6 2.445312 6 3 L 6 9 C 6 9 5 10 5 11 C 5 11.699219 5.976562 13.859375 6.5625 15.101562 C 6.800781 15.597656 7.445312 16 8 16 L 13 16 C 13.554688 16 14 15.554688 14 15 L 14 8 C 14 7.445312 13.554688 7 13 7 C 12.445312 7 12 7.445312 12 8 L 12 7.5 C 12 6.945312 11.554688 6.5 11 6.5 C 10.445312 6.5 10 6.945312 10 7.5 L 10 7 C 10 6.445312 9.554688 6 9 6 C 8.445312 6 8 6.445312 8 7 L 8 3 C 8 2.445312 7.554688 2 7 2 Z M 9 0 L 9 2 L 11 2 L 11 0 Z M 3 3 L 3 5 L 5 5 L 5 3 Z M 9 3 L 9 5 L 11 5 L 11 3 Z M 3 6 L 3 8 L 5 8 L 5 6 Z M 3 6 "/>
</g>
</svg>
