<?xml version="1.0" encoding="UTF-8"?>
<svg xmlns="http://www.w3.org/2000/svg" xmlns:xlink="http://www.w3.org/1999/xlink" width="16" height="16" viewBox="0 0 16 16" version="1.1">
<g id="surface1">
<path style=" stroke:none;fill-rule:nonzero;fill:rgb(0%,0%,0%);fill-opacity:1;" d="M 9.984375 0.25 L 9.71875 0.257812 L 9.726562 0.367188 C 9.59375 0.425781 9.449219 0.46875 9.371094 0.59375 L 0.367188 14.59375 C 0.140625 14.9375 0.25 15.414062 0.601562 15.632812 C 0.945312 15.847656 1.40625 15.75 1.625 15.410156 L 3.015625 13.25 L 6.234375 13.25 L 5.367188 14.59375 C 5.144531 14.9375 5.242188 15.410156 5.59375 15.632812 C 5.9375 15.859375 6.40625 15.757812 6.632812 15.410156 L 15.632812 1.40625 C 15.859375 1.0625 15.753906 0.589844 15.40625 0.367188 C 15.261719 0.273438 15.085938 0.234375 14.914062 0.257812 L 14.90625 0.257812 C 14.6875 0.285156 14.488281 0.40625 14.367188 0.59375 L 12.988281 2.75 L 9.769531 2.75 L 10.632812 1.40625 C 10.855469 1.054688 10.757812 0.585938 10.40625 0.367188 C 10.28125 0.285156 10.132812 0.242188 9.984375 0.25 Z M 8.804688 4.257812 L 12.015625 4.257812 L 11.054688 5.753906 L 7.835938 5.753906 Z M 6.875 7.246094 L 10.09375 7.246094 L 9.125 8.75 L 5.90625 8.75 Z M 4.949219 10.25 L 8.160156 10.25 L 7.195312 11.757812 L 3.984375 11.757812 Z M 4.949219 10.25 "/>
</g>
</svg>
