<?xml version="1.0" encoding="UTF-8"?>
<svg xmlns="http://www.w3.org/2000/svg" xmlns:xlink="http://www.w3.org/1999/xlink" width="16" height="16" viewBox="0 0 16 16" version="1.1">
<g id="surface1">
<path style=" stroke:none;fill-rule:nonzero;fill:rgb(0%,0%,0%);fill-opacity:1;" d="M 4 0 L 1.328125 7.125 C 1.257812 7.316406 1.28125 7.53125 1.390625 7.707031 C 1.507812 7.882812 1.695312 7.992188 1.902344 8 L 14.0625 8 C 14.277344 8 14.476562 7.898438 14.597656 7.71875 C 14.71875 7.546875 14.746094 7.320312 14.671875 7.125 L 12 0 Z M 5.523438 9 C 5.175781 11.117188 5.328125 13.375 6.253906 15 L 3.382812 15 C 3.171875 15 3 15.171875 3 15.382812 L 3 15.617188 C 3 15.828125 3.171875 16 3.382812 16 L 12.617188 16 C 12.828125 16 13 15.828125 13 15.617188 L 13 15.382812 C 13 15.171875 12.828125 15 12.617188 15 L 9.746094 15 C 10.671875 13.375 10.824219 11.117188 10.476562 9 Z M 5.523438 9 "/>
</g>
</svg>
