<?xml version="1.0" encoding="UTF-8"?>
<svg xmlns="http://www.w3.org/2000/svg" xmlns:xlink="http://www.w3.org/1999/xlink" width="16" height="16" viewBox="0 0 16 16" version="1.1">
<g id="surface1">
<path style=" stroke:none;fill-rule:evenodd;fill:rgb(0%,0%,0%);fill-opacity:1;" d="M 6.882812 1.023438 C 6.378906 1.019531 5.898438 1.203125 5.550781 1.527344 C 5.203125 1.851562 4.96875 2.3125 4.960938 2.828125 C 4.953125 3.34375 5.1875 3.882812 5.648438 4.347656 C 5.648438 4.351562 5.648438 4.351562 5.648438 4.355469 L 5.9375 4.648438 L 2.296875 8.289062 C 1.984375 8.59375 1.910156 9.0625 2.101562 9.449219 L 4.382812 14 L 3 14 C 2.445312 14 2 14.445312 2 15 C 2 15.554688 2.445312 16 3 16 L 9 16 C 9.554688 16 10 15.554688 10 15 C 10 14.445312 9.554688 14 9 14 L 6.617188 14 L 4.214844 9.195312 L 7.351562 6.0625 L 7.5 6.210938 L 7.5 10 C 7.5 10.203125 7.621094 10.390625 7.808594 10.46875 C 7.996094 10.546875 8.210938 10.5 8.355469 10.359375 L 14.351562 4.355469 C 14.492188 4.210938 14.539062 4 14.460938 3.8125 C 14.390625 3.625 14.207031 3.5 14.003906 3.5 L 10.210938 3.5 L 8.355469 1.648438 C 8.351562 1.644531 8.351562 1.640625 8.351562 1.640625 C 7.910156 1.210938 7.382812 1.023438 6.882812 1.023438 Z M 13.695312 6.625 L 10.9375 9.382812 C 11.25 9.589844 11.625 9.714844 12.027344 9.714844 C 13.117188 9.714844 14.027344 8.804688 14.027344 7.714844 C 14.027344 7.3125 13.902344 6.9375 13.695312 6.625 Z M 13.695312 6.625 "/>
<path style=" stroke:none;fill-rule:nonzero;fill:rgb(0%,0%,0%);fill-opacity:1;" d="M 8 6 L 8 10 L 14 4 L 10 4 L 8 2 C 6.574219 0.617188 4.464844 2.441406 6 4 Z M 8 6 "/>
</g>
</svg>
