<?xml version="1.0" encoding="UTF-8"?>
<svg xmlns="http://www.w3.org/2000/svg" xmlns:xlink="http://www.w3.org/1999/xlink" width="16" height="16" viewBox="0 0 16 16" version="1.1">
<g id="surface1">
<path style=" stroke:none;fill-rule:nonzero;fill:rgb(0%,0%,0%);fill-opacity:1;" d="M 14 2 L 14 3.332031 C 14 9.75 10.417969 12.667969 6 12.667969 L 3.496094 12.667969 C 3.386719 13.273438 3.332031 13.9375 3.332031 14.667969 L 2 14.667969 C 2 13.757812 2.078125 12.933594 2.230469 12.179688 C 2.078125 11.316406 2 10.144531 2 8.667969 C 2 4.984375 4.984375 2 8.667969 2 C 10 2 11.332031 2.667969 14 2 Z M 8.667969 3.332031 C 5.722656 3.332031 3.332031 5.722656 3.332031 8.667969 C 3.332031 8.90625 3.335938 9.140625 3.339844 9.363281 C 4.175781 8.046875 5.402344 7.003906 7.003906 6.089844 L 7.664062 7.246094 C 5.761719 8.332031 4.496094 9.570312 3.851562 11.332031 L 6 11.332031 C 10.011719 11.332031 12.582031 8.683594 12.664062 3.59375 C 11.75 3.679688 10.898438 3.625 9.851562 3.464844 C 9.085938 3.351562 8.933594 3.332031 8.667969 3.332031 Z M 8.667969 3.332031 "/>
</g>
</svg>
