<?xml version="1.0" encoding="UTF-8"?>
<svg xmlns="http://www.w3.org/2000/svg" xmlns:xlink="http://www.w3.org/1999/xlink" width="16" height="16" viewBox="0 0 16 16" version="1.1">
<g id="surface1">
<path style=" stroke:none;fill-rule:evenodd;fill:rgb(0%,0%,0%);fill-opacity:1;" d="M 12.171875 1.246094 C 11.242188 1.273438 10.351562 1.644531 9.6875 2.289062 L 5.171875 6.804688 L 4.417969 6.054688 L 2.914062 7.558594 L 4.417969 9.0625 L 0.0507812 13.636719 L 0.804688 14.390625 L 5.171875 9.820312 L 7.429688 12.078125 L 5.5 14.003906 L 6.253906 14.757812 L 8.179688 12.828125 L 9.6875 14.335938 L 11.191406 12.828125 L 10.4375 12.078125 L 14.90625 7.605469 C 14.921875 7.589844 14.9375 7.574219 14.953125 7.558594 C 16.359375 6.105469 16.347656 3.796875 14.929688 2.359375 C 14.203125 1.621094 13.207031 1.21875 12.171875 1.246094 Z M 10.429688 3.050781 L 11.414062 4.054688 L 11.414062 5.523438 L 10.214844 5.523438 L 7.648438 8.085938 L 7.648438 9.285156 L 5.921875 7.558594 Z M 12.476562 5.132812 L 14.164062 6.847656 L 9.6875 11.320312 L 8.714844 10.351562 L 8.714844 8.53125 L 10.660156 6.585938 L 12.476562 6.582031 Z M 12.476562 5.132812 "/>
</g>
</svg>
