<?xml version="1.0" encoding="UTF-8"?>
<svg xmlns="http://www.w3.org/2000/svg" xmlns:xlink="http://www.w3.org/1999/xlink" width="16" height="16" viewBox="0 0 16 16" version="1.1">
<g id="surface1">
<path style=" stroke:none;fill-rule:nonzero;fill:rgb(0%,0%,0%);fill-opacity:1;" d="M 2.242188 1.132812 L 3.5 1.132812 L 3.5 5.265625 C 3.5 5.90625 3.515625 6.328125 3.546875 6.523438 C 3.605469 6.859375 3.734375 7.117188 3.945312 7.304688 C 4.15625 7.484375 4.4375 7.578125 4.78125 7.578125 C 5.070312 7.578125 5.308594 7.515625 5.492188 7.382812 C 5.675781 7.253906 5.800781 7.070312 5.867188 6.84375 C 5.9375 6.609375 5.96875 6.117188 5.96875 5.351562 L 5.96875 1.132812 L 7.234375 1.132812 L 7.234375 5.140625 C 7.234375 6.164062 7.179688 6.90625 7.070312 7.367188 C 6.960938 7.820312 6.71875 8.1875 6.328125 8.476562 C 5.949219 8.757812 5.445312 8.898438 4.8125 8.898438 C 4.164062 8.898438 3.652344 8.78125 3.28125 8.546875 C 2.921875 8.3125 2.65625 7.980469 2.484375 7.554688 C 2.324219 7.132812 2.242188 6.34375 2.242188 5.203125 Z M 2.242188 1.132812 "/>
<path style=" stroke:none;fill-rule:nonzero;fill:rgb(0%,0%,0%);fill-opacity:1;" d="M 10.164062 8.765625 L 7.929688 1.132812 L 9.296875 1.132812 L 10.882812 6.78125 L 12.414062 1.132812 L 13.757812 1.132812 L 11.515625 8.765625 Z M 10.164062 8.765625 "/>
<path style=" stroke:none;fill-rule:evenodd;fill:rgb(0%,0%,0%);fill-opacity:1;" d="M 2 11 C 0.890625 11 0 11.890625 0 13 L 0 14 C 0 15.109375 0.890625 16 2 16 L 14 16 C 15.109375 16 16 15.109375 16 14 L 16 13 C 16 11.890625 15.109375 11 14 11 Z M 12 12 L 14 12 C 14.554688 12 15 12.445312 15 13 L 15 14 C 15 14.554688 14.554688 15 14 15 L 12 15 Z M 12 12 "/>
</g>
</svg>
