<?xml version="1.0" encoding="UTF-8"?>
<svg xmlns="http://www.w3.org/2000/svg" xmlns:xlink="http://www.w3.org/1999/xlink" width="16" height="16" viewBox="0 0 16 16" version="1.1">
<g id="surface1">
<path style=" stroke:none;fill-rule:evenodd;fill:rgb(0%,0%,0%);fill-opacity:1;" d="M 8.695312 0.03125 C 4.28125 -0.351562 0.410156 2.90625 0.0273438 7.3125 C -0.351562 11.722656 2.902344 15.585938 7.316406 15.96875 C 9.351562 16.148438 11.269531 15.546875 12.789062 14.417969 C 13.023438 14.234375 13.265625 14.046875 13.484375 13.835938 C 13.5 13.816406 13.523438 13.800781 13.539062 13.78125 C 14.144531 13.191406 14.671875 12.5 15.085938 11.71875 L 15.101562 11.726562 C 15.273438 11.40625 15.410156 11.070312 15.535156 10.726562 L 15.523438 10.726562 C 15.964844 9.476562 16.09375 8.179688 15.945312 6.9375 C 15.9375 6.875 15.925781 6.820312 15.914062 6.757812 C 15.882812 6.523438 15.828125 6.292969 15.773438 6.0625 C 14.96875 2.835938 12.199219 0.335938 8.695312 0.03125 Z M 11.386719 1.847656 C 12.75 2.570312 13.785156 3.691406 14.414062 5 L 12.296875 5.824219 C 11.921875 5.015625 11.316406 4.332031 10.507812 3.855469 Z M 5.015625 1.710938 L 5.8125 3.757812 C 5.019531 4.171875 4.34375 4.804688 3.875 5.613281 L 1.863281 4.730469 C 2.589844 3.375 3.707031 2.335938 5.015625 1.710938 Z M 8.398438 4.28125 C 8.425781 4.28125 8.449219 4.289062 8.476562 4.289062 C 8.613281 4.308594 8.75 4.335938 8.890625 4.367188 C 9.3125 4.460938 9.710938 4.625 10.066406 4.847656 L 10.066406 4.84375 C 10.085938 4.859375 10.101562 4.875 10.125 4.886719 C 10.328125 5.019531 10.515625 5.167969 10.695312 5.335938 C 10.742188 5.386719 10.796875 5.4375 10.84375 5.484375 C 10.921875 5.570312 11 5.664062 11.070312 5.757812 C 11.132812 5.832031 11.183594 5.914062 11.234375 5.992188 C 11.476562 6.355469 11.648438 6.757812 11.75 7.195312 L 11.753906 7.191406 C 11.761719 7.226562 11.765625 7.265625 11.773438 7.296875 C 11.820312 7.53125 11.84375 7.765625 11.847656 8.007812 C 11.847656 8.054688 11.851562 8.101562 11.847656 8.144531 C 11.84375 8.222656 11.859375 8.296875 11.851562 8.375 C 11.84375 8.445312 11.820312 8.511719 11.8125 8.582031 C 11.734375 9.117188 11.546875 9.609375 11.273438 10.046875 C 11.125 10.28125 10.957031 10.492188 10.765625 10.6875 C 10.726562 10.734375 10.683594 10.773438 10.640625 10.8125 C 10.554688 10.894531 10.464844 10.972656 10.371094 11.042969 C 10.289062 11.109375 10.199219 11.164062 10.109375 11.222656 C 9.75 11.453125 9.351562 11.621094 8.921875 11.71875 L 8.921875 11.726562 C 8.871094 11.742188 8.8125 11.742188 8.757812 11.753906 C 8.578125 11.789062 8.390625 11.804688 8.195312 11.8125 C 8.117188 11.816406 8.035156 11.820312 7.953125 11.820312 C 7.882812 11.8125 7.820312 11.824219 7.75 11.820312 C 7.679688 11.8125 7.613281 11.789062 7.542969 11.78125 C 7.523438 11.78125 7.5 11.773438 7.480469 11.773438 C 6.96875 11.6875 6.492188 11.507812 6.070312 11.242188 L 6.070312 11.246094 C 6.054688 11.234375 6.039062 11.21875 6.019531 11.207031 C 5.820312 11.078125 5.632812 10.929688 5.464844 10.769531 C 5.40625 10.710938 5.34375 10.660156 5.289062 10.601562 C 5.214844 10.519531 5.144531 10.4375 5.078125 10.351562 C 5.011719 10.265625 4.953125 10.175781 4.894531 10.085938 C 4.660156 9.722656 4.492188 9.320312 4.390625 8.890625 L 4.382812 8.894531 C 4.378906 8.867188 4.378906 8.835938 4.371094 8.804688 C 4.316406 8.546875 4.289062 8.277344 4.292969 8 C 4.292969 7.992188 4.289062 7.980469 4.289062 7.96875 C 4.292969 7.882812 4.28125 7.804688 4.289062 7.71875 C 4.34375 7.101562 4.554688 6.539062 4.867188 6.046875 C 4.871094 6.042969 4.875 6.039062 4.882812 6.03125 C 5.015625 5.828125 5.164062 5.632812 5.332031 5.457031 C 5.390625 5.390625 5.453125 5.324219 5.519531 5.265625 C 5.597656 5.195312 5.679688 5.125 5.761719 5.0625 C 5.863281 4.984375 5.96875 4.910156 6.082031 4.84375 C 6.429688 4.625 6.816406 4.46875 7.226562 4.375 L 7.21875 4.367188 C 7.335938 4.339844 7.453125 4.320312 7.570312 4.304688 C 7.59375 4.296875 7.617188 4.289062 7.648438 4.289062 C 7.804688 4.265625 7.960938 4.257812 8.125 4.257812 C 8.195312 4.257812 8.265625 4.273438 8.339844 4.28125 C 8.359375 4.28125 8.382812 4.277344 8.402344 4.28125 Z M 12.109375 10.410156 L 14.273438 11.359375 C 13.546875 12.71875 12.429688 13.757812 11.125 14.382812 L 10.285156 12.226562 C 11.015625 11.796875 11.648438 11.179688 12.109375 10.410156 Z M 3.773438 10.296875 C 4.191406 11.089844 4.824219 11.765625 5.640625 12.234375 L 4.757812 14.242188 C 3.390625 13.515625 2.355469 12.398438 1.726562 11.09375 Z M 3.773438 10.296875 "/>
</g>
</svg>
