<?xml version="1.0" encoding="UTF-8"?>
<svg xmlns="http://www.w3.org/2000/svg" xmlns:xlink="http://www.w3.org/1999/xlink" width="16" height="16" viewBox="0 0 16 16" version="1.1">
<g id="surface1">
<path style=" stroke:none;fill-rule:nonzero;fill:rgb(0%,0%,0%);fill-opacity:1;" d="M 8 1.332031 C 11.683594 1.332031 14.667969 4.316406 14.667969 8 C 14.667969 11.683594 11.683594 14.667969 8 14.667969 C 4.316406 14.667969 1.332031 11.683594 1.332031 8 C 1.332031 4.316406 4.316406 1.332031 8 1.332031 Z M 8 11.332031 C 7.582031 11.332031 7.167969 11.253906 6.78125 11.101562 L 5.289062 12.59375 C 6.109375 13.078125 7.046875 13.335938 8 13.332031 C 8.953125 13.335938 9.890625 13.078125 10.710938 12.59375 L 9.21875 11.101562 C 8.832031 11.253906 8.417969 11.332031 8 11.332031 Z M 2.667969 8 C 2.667969 8.988281 2.9375 9.914062 3.40625 10.710938 L 4.898438 9.21875 C 4.746094 8.832031 4.667969 8.417969 4.667969 8 C 4.667969 7.570312 4.746094 7.160156 4.898438 6.78125 L 3.40625 5.289062 C 2.921875 6.109375 2.664062 7.046875 2.667969 8 Z M 12.59375 5.289062 L 11.101562 6.78125 C 11.253906 7.160156 11.332031 7.570312 11.332031 8 C 11.332031 8.429688 11.253906 8.839844 11.101562 9.21875 L 12.59375 10.710938 C 13.078125 9.890625 13.335938 8.953125 13.332031 8 C 13.335938 7.046875 13.078125 6.109375 12.59375 5.289062 Z M 8 6 C 6.894531 6 6 6.894531 6 8 C 6 9.105469 6.894531 10 8 10 C 9.105469 10 10 9.105469 10 8 C 10 6.894531 9.105469 6 8 6 Z M 8 2.667969 C 7.046875 2.664062 6.109375 2.921875 5.289062 3.40625 L 6.78125 4.898438 C 7.167969 4.746094 7.582031 4.667969 8 4.667969 C 8.429688 4.667969 8.839844 4.746094 9.21875 4.898438 L 10.710938 3.40625 C 9.890625 2.921875 8.953125 2.664062 8 2.667969 Z M 8 2.667969 "/>
</g>
</svg>
