<?xml version="1.0" encoding="UTF-8"?>
<svg xmlns="http://www.w3.org/2000/svg" xmlns:xlink="http://www.w3.org/1999/xlink" width="16" height="16" viewBox="0 0 16 16" version="1.1">
<g id="surface1">
<path style=" stroke:none;fill-rule:nonzero;fill:rgb(0%,0%,0%);fill-opacity:1;" d="M 8.707031 5.40625 L 9.648438 6.351562 C 11.472656 8.171875 11.472656 11.128906 9.648438 12.949219 L 9.414062 13.183594 C 7.589844 15.007812 4.636719 15.007812 2.8125 13.183594 C 0.992188 11.363281 0.992188 8.40625 2.8125 6.585938 L 3.757812 7.527344 C 2.910156 8.371094 2.574219 9.601562 2.882812 10.753906 C 3.191406 11.90625 4.09375 12.808594 5.246094 13.117188 C 6.398438 13.425781 7.628906 13.089844 8.472656 12.242188 L 8.707031 12.007812 C 10.007812 10.703125 10.007812 8.59375 8.707031 7.292969 L 7.765625 6.351562 Z M 13.183594 9.414062 L 12.242188 8.472656 C 13.089844 7.628906 13.425781 6.398438 13.117188 5.246094 C 12.808594 4.09375 11.90625 3.191406 10.753906 2.882812 C 9.601562 2.574219 8.371094 2.910156 7.527344 3.757812 L 7.292969 3.992188 C 5.992188 5.296875 5.992188 7.40625 7.292969 8.707031 L 8.234375 9.648438 L 7.292969 10.59375 L 6.351562 9.648438 C 4.527344 7.828125 4.527344 4.871094 6.351562 3.050781 L 6.585938 2.816406 C 8.410156 0.992188 11.363281 0.992188 13.1875 2.816406 C 15.007812 4.636719 15.007812 7.59375 13.1875 9.414062 Z M 13.183594 9.414062 "/>
</g>
</svg>
