<?xml version="1.0" encoding="UTF-8"?>
<svg xmlns="http://www.w3.org/2000/svg" xmlns:xlink="http://www.w3.org/1999/xlink" width="16" height="16" viewBox="0 0 16 16" version="1.1">
<g id="surface1">
<path style=" stroke:none;fill-rule:nonzero;fill:rgb(0%,0%,0%);fill-opacity:1;" d="M 7.332031 2.667969 L 14 2.667969 L 14 4 L 7.332031 4 Z M 7.332031 5.332031 L 11.332031 5.332031 L 11.332031 6.667969 L 7.332031 6.667969 Z M 7.332031 9.332031 L 14 9.332031 L 14 10.667969 L 7.332031 10.667969 Z M 7.332031 12 L 11.332031 12 L 11.332031 13.332031 L 7.332031 13.332031 Z M 2 2.667969 L 6 2.667969 L 6 6.667969 L 2 6.667969 Z M 3.332031 4 L 3.332031 5.332031 L 4.667969 5.332031 L 4.667969 4 Z M 2 9.332031 L 6 9.332031 L 6 13.332031 L 2 13.332031 Z M 3.332031 10.667969 L 3.332031 12 L 4.667969 12 L 4.667969 10.667969 Z M 3.332031 10.667969 "/>
</g>
</svg>
