<?xml version="1.0" encoding="UTF-8"?>
<svg xmlns="http://www.w3.org/2000/svg" xmlns:xlink="http://www.w3.org/1999/xlink" width="16" height="16" viewBox="0 0 16 16" version="1.1">
<g id="surface1">
<path style=" stroke:none;fill-rule:nonzero;fill:rgb(0%,0%,0%);fill-opacity:1;" d="M 2.035156 8.667969 L 3.378906 8.667969 C 3.714844 10.960938 5.679688 12.664062 8 12.664062 C 10.316406 12.664062 12.285156 10.960938 12.617188 8.667969 L 13.960938 8.667969 C 13.621094 11.703125 11.054688 14 8 14 C 4.945312 14 2.375 11.703125 2.035156 8.667969 Z M 2.035156 7.332031 C 2.378906 4.296875 4.945312 2 8 2 C 11.054688 2 13.621094 4.296875 13.964844 7.332031 L 12.621094 7.332031 C 12.285156 5.039062 10.320312 3.335938 8 3.335938 C 5.683594 3.335938 3.714844 5.039062 3.382812 7.332031 Z M 2.035156 7.332031 "/>
</g>
</svg>
