<?xml version="1.0" encoding="UTF-8"?>
<svg xmlns="http://www.w3.org/2000/svg" xmlns:xlink="http://www.w3.org/1999/xlink" width="16" height="16" viewBox="0 0 16 16" version="1.1">
<g id="surface1">
<path style=" stroke:none;fill-rule:nonzero;fill:rgb(0%,0%,0%);fill-opacity:1;" d="M 6.667969 7.332031 L 6.667969 5.332031 L 10 8 L 6.667969 10.667969 L 6.667969 8.667969 L 0.667969 8.667969 L 0.667969 7.332031 Z M 1.636719 10 L 3.054688 10 C 4.015625 12.363281 6.511719 13.71875 9.015625 13.230469 C 11.519531 12.742188 13.328125 10.550781 13.332031 8 C 13.335938 5.445312 11.527344 3.25 9.019531 2.761719 C 6.511719 2.273438 4.011719 3.632812 3.054688 6 L 1.636719 6 C 2.488281 3.296875 5.015625 1.332031 8 1.332031 C 11.683594 1.332031 14.667969 4.316406 14.667969 8 C 14.667969 11.683594 11.683594 14.667969 8 14.667969 C 5.015625 14.667969 2.488281 12.703125 1.636719 10 Z M 1.636719 10 "/>
</g>
</svg>
