<?xml version="1.0" encoding="UTF-8"?>
<svg xmlns="http://www.w3.org/2000/svg" xmlns:xlink="http://www.w3.org/1999/xlink" width="16" height="16" viewBox="0 0 16 16" version="1.1">
<g id="surface1">
<path style=" stroke:none;fill-rule:nonzero;fill:rgb(0%,0%,0%);fill-opacity:1;" d="M 0 9.917969 L 0 4.890625 L 0.890625 4.890625 L 0.890625 9.0625 L 3.105469 9.0625 L 3.105469 9.917969 Z M 0 9.917969 "/>
<path style=" stroke:none;fill-rule:nonzero;fill:rgb(0%,0%,0%);fill-opacity:1;" d="M 8.785156 9.917969 L 8.785156 4.851562 L 10.660156 4.851562 C 11.140625 4.851562 11.484375 4.898438 11.6875 4.992188 C 11.894531 5.078125 12.0625 5.238281 12.195312 5.460938 C 12.328125 5.6875 12.390625 5.953125 12.390625 6.265625 C 12.390625 6.664062 12.289062 6.984375 12.085938 7.226562 C 11.886719 7.46875 11.601562 7.617188 11.226562 7.679688 C 11.421875 7.8125 11.578125 7.953125 11.703125 8.109375 C 11.828125 8.257812 12 8.53125 12.210938 8.929688 L 12.75 9.917969 L 11.6875 9.917969 L 11.042969 8.8125 C 10.8125 8.414062 10.652344 8.167969 10.570312 8.070312 C 10.484375 7.96875 10.398438 7.898438 10.304688 7.859375 C 10.210938 7.820312 10.0625 7.804688 9.859375 7.804688 L 9.671875 7.804688 L 9.671875 9.917969 Z M 9.671875 6.992188 L 10.335938 6.992188 C 10.738281 6.992188 10.992188 6.976562 11.105469 6.945312 C 11.214844 6.910156 11.304688 6.84375 11.375 6.742188 C 11.441406 6.640625 11.476562 6.507812 11.476562 6.335938 C 11.476562 6.175781 11.441406 6.046875 11.375 5.953125 C 11.304688 5.851562 11.210938 5.78125 11.09375 5.746094 C 11.007812 5.71875 10.769531 5.710938 10.371094 5.710938 L 9.671875 5.710938 Z M 9.671875 6.992188 "/>
<path style=" stroke:none;fill-rule:nonzero;fill:rgb(0%,0%,0%);fill-opacity:1;" d="M 13.859375 7.367188 L 13.089844 7.210938 C 13.183594 6.835938 13.335938 6.570312 13.546875 6.410156 C 13.765625 6.246094 14.070312 6.164062 14.472656 6.164062 C 14.828125 6.164062 15.101562 6.210938 15.289062 6.304688 C 15.480469 6.398438 15.617188 6.53125 15.695312 6.695312 C 15.773438 6.855469 15.816406 7.148438 15.816406 7.578125 L 15.808594 8.710938 C 15.808594 9.03125 15.820312 9.265625 15.851562 9.421875 C 15.875 9.578125 15.925781 9.742188 16 9.917969 L 15.164062 9.917969 L 15.054688 9.515625 C 14.90625 9.679688 14.753906 9.796875 14.585938 9.878906 C 14.421875 9.960938 14.25 10 14.0625 10 C 13.75 10 13.5 9.902344 13.296875 9.707031 C 13.101562 9.507812 13 9.246094 13 8.917969 C 13 8.710938 13.042969 8.53125 13.125 8.375 C 13.203125 8.21875 13.320312 8.097656 13.464844 8.007812 C 13.609375 7.914062 13.84375 7.832031 14.167969 7.761719 C 14.5625 7.675781 14.835938 7.59375 14.984375 7.523438 C 14.984375 7.320312 14.96875 7.1875 14.9375 7.125 C 14.910156 7.0625 14.851562 7.007812 14.773438 6.96875 C 14.6875 6.929688 14.574219 6.90625 14.425781 6.90625 C 14.273438 6.90625 14.15625 6.9375 14.066406 7.003906 C 13.980469 7.070312 13.910156 7.1875 13.859375 7.367188 Z M 14.984375 8.15625 C 14.878906 8.195312 14.710938 8.242188 14.484375 8.300781 C 14.222656 8.367188 14.050781 8.4375 13.96875 8.515625 C 13.890625 8.59375 13.851562 8.695312 13.851562 8.820312 C 13.851562 8.960938 13.894531 9.078125 13.984375 9.171875 C 14.070312 9.269531 14.1875 9.316406 14.320312 9.316406 C 14.4375 9.316406 14.558594 9.277344 14.675781 9.203125 C 14.792969 9.125 14.875 9.03125 14.917969 8.925781 C 14.964844 8.820312 14.984375 8.625 14.984375 8.347656 Z M 14.984375 8.15625 "/>
<path style=" stroke:none;fill-rule:evenodd;fill:rgb(0%,0%,0%);fill-opacity:1;" d="M 6.003906 6 C 7.109375 6 8.003906 6.898438 8.003906 8 C 8.003906 9.105469 7.109375 10 6.003906 10 C 4.898438 10 4.003906 9.105469 4.003906 8 C 4.003906 6.898438 4.898438 6 6.003906 6 "/>
<path style=" stroke:none;fill-rule:evenodd;fill:rgb(0%,0%,0%);fill-opacity:1;" d="M 6 -0.00390625 C 4.660156 -0.00390625 3.351562 0.335938 2.195312 0.964844 L 2.726562 1.8125 C 3.726562 1.28125 4.851562 1 6.003906 1 C 7.15625 1 8.277344 1.285156 9.277344 1.816406 L 9.808594 0.96875 C 8.648438 0.335938 7.34375 -0.00390625 6 -0.00390625 Z M 6.003906 2 C 5.039062 2 4.101562 2.234375 3.257812 2.667969 L 3.800781 3.535156 C 4.484375 3.199219 5.230469 3 6.007812 3 C 6.78125 3 7.523438 3.199219 8.203125 3.53125 L 8.742188 2.671875 C 7.902344 2.238281 6.96875 2 6.003906 2 Z M 6 4.003906 C 5.414062 4.003906 4.851562 4.140625 4.328125 4.382812 L 4.859375 5.226562 C 5.21875 5.078125 5.605469 5 6 5 C 6.398438 5 6.785156 5.078125 7.144531 5.226562 L 7.671875 4.382812 C 7.148438 4.144531 6.585938 4.003906 6 4.003906 Z M 7.148438 10.773438 C 6.789062 10.925781 6.398438 11.003906 6 11.003906 C 5.601562 11.003906 5.214844 10.925781 4.855469 10.78125 L 4.328125 11.625 C 4.84375 11.867188 5.414062 12.003906 5.996094 12.003906 C 6.582031 12.003906 7.152344 11.863281 7.671875 11.621094 Z M 8.203125 12.464844 C 7.519531 12.804688 6.773438 13 5.992188 13 C 5.21875 13 4.476562 12.804688 3.796875 12.46875 L 3.257812 13.335938 C 4.097656 13.765625 5.039062 14.003906 6 14.003906 C 6.96875 14.003906 7.90625 13.765625 8.746094 13.335938 Z M 9.28125 14.1875 C 8.277344 14.71875 7.152344 15 6 15 C 4.84375 15 3.722656 14.71875 2.722656 14.1875 L 2.1875 15.039062 C 3.351562 15.664062 4.65625 16 5.996094 16 C 7.339844 16 8.648438 15.664062 9.8125 15.035156 Z M 9.28125 14.1875 "/>
</g>
</svg>
