<?xml version="1.0" encoding="UTF-8"?>
<svg xmlns="http://www.w3.org/2000/svg" xmlns:xlink="http://www.w3.org/1999/xlink" width="16" height="16" viewBox="0 0 16 16" version="1.1">
<g id="surface1">
<path style=" stroke:none;fill-rule:nonzero;fill:rgb(0%,0%,0%);fill-opacity:1;" d="M 1.332031 3.667969 L 1.332031 2.660156 C 1.335938 2.296875 1.628906 2.003906 1.996094 2 L 14.003906 2 C 14.371094 2 14.667969 2.296875 14.667969 2.660156 L 14.667969 13.339844 C 14.664062 13.703125 14.371094 13.996094 14.003906 14 L 1.996094 14 C 1.628906 14 1.332031 13.703125 1.332031 13.339844 L 1.332031 12.667969 L 13.332031 12.667969 L 13.332031 4.867188 L 8 9.667969 Z M 0 6.667969 L 3.332031 6.667969 L 3.332031 8 L 0 8 Z M 0 10 L 5.332031 10 L 5.332031 11.332031 L 0 11.332031 Z M 0 10 "/>
</g>
</svg>
