<?xml version="1.0" encoding="UTF-8"?>
<svg xmlns="http://www.w3.org/2000/svg" xmlns:xlink="http://www.w3.org/1999/xlink" width="16" height="16" viewBox="0 0 16 16" version="1.1">
<g id="surface1">
<path style=" stroke:none;fill-rule:evenodd;fill:rgb(0%,0%,0%);fill-opacity:1;" d="M 2 2 C 0.890625 2 0 2.890625 0 4 L 0 12 C 0 13.109375 0.890625 14 2 14 L 14 14 C 15.109375 14 16 13.109375 16 12 L 16 4 C 16 2.890625 15.109375 2 14 2 Z M 13.980469 3.25 C 14.269531 3.242188 14.539062 3.402344 14.667969 3.664062 C 14.757812 3.839844 14.773438 4.046875 14.710938 4.234375 C 14.648438 4.425781 14.515625 4.582031 14.335938 4.671875 L 8 7.839844 L 1.667969 4.671875 C 1.488281 4.585938 1.351562 4.429688 1.289062 4.238281 C 1.226562 4.046875 1.238281 3.84375 1.328125 3.664062 C 1.515625 3.296875 1.960938 3.148438 2.332031 3.328125 L 8 6.164062 L 13.664062 3.328125 C 13.761719 3.28125 13.871094 3.25 13.980469 3.25 Z M 13.980469 3.25 "/>
</g>
</svg>
