<?xml version="1.0" encoding="UTF-8"?>
<svg xmlns="http://www.w3.org/2000/svg" xmlns:xlink="http://www.w3.org/1999/xlink" width="16" height="16" viewBox="0 0 16 16" version="1.1">
<g id="surface1">
<path style=" stroke:none;fill-rule:nonzero;fill:rgb(0%,0%,0%);fill-opacity:1;" d="M 1.3125 0 L 13.3125 16 L 15.183594 16 L 3.183594 0 Z M 8.003906 0 C 7.0625 0 6.117188 0.234375 5.265625 0.691406 L 7.289062 3.390625 C 7.300781 3.386719 7.308594 3.382812 7.320312 3.375 C 7.53125 3.296875 7.585938 3.289062 8 3.289062 C 8.414062 3.289062 8.476562 3.296875 8.683594 3.375 C 9.007812 3.492188 9.265625 3.664062 9.5 3.902344 C 9.742188 4.148438 9.882812 4.375 9.992188 4.679688 C 10.222656 5.347656 10.089844 6.0625 9.703125 6.601562 L 12.242188 9.992188 C 12.5625 9.421875 13.148438 8.425781 13.183594 8.351562 C 13.863281 6.921875 13.960938 5.375 13.46875 3.917969 C 13.183594 3.070312 12.730469 2.34375 12.085938 1.695312 C 10.960938 0.5625 9.484375 0 8.003906 0 Z M 2.4375 4.246094 C 2.324219 4.664062 2.25 5.105469 2.226562 5.574219 C 2.179688 6.445312 2.402344 7.460938 2.835938 8.375 C 2.917969 8.554688 3.867188 10.226562 4.945312 12.09375 C 7.054688 15.742188 7.015625 15.679688 7.367188 15.851562 C 7.445312 15.890625 7.585938 15.9375 7.671875 15.960938 C 8.242188 16.101562 8.828125 15.867188 9.140625 15.378906 C 9.195312 15.296875 9.632812 14.515625 9.855469 14.140625 Z M 2.4375 4.246094 "/>
</g>
</svg>
