<?xml version="1.0" encoding="UTF-8"?>
<svg xmlns="http://www.w3.org/2000/svg" xmlns:xlink="http://www.w3.org/1999/xlink" width="16" height="16" viewBox="0 0 16 16" version="1.1">
<g id="surface1">
<path style=" stroke:none;fill-rule:nonzero;fill:rgb(0%,0%,0%);fill-opacity:1;" d="M 8 2 C 6.894531 2 6 2.894531 6 4 L 6 8 C 6 9.105469 6.894531 10 8 10 C 9.105469 10 10 9.105469 10 8 L 10 4 C 10 2.894531 9.105469 2 8 2 Z M 8 0.667969 C 9.839844 0.667969 11.332031 2.160156 11.332031 4 L 11.332031 8 C 11.332031 9.839844 9.839844 11.332031 8 11.332031 C 6.160156 11.332031 4.667969 9.839844 4.667969 8 L 4.667969 4 C 4.667969 2.160156 6.160156 0.667969 8 0.667969 Z M 1.460938 9.308594 L 2.769531 9.046875 C 3.269531 11.539062 5.457031 13.328125 8 13.328125 C 10.542969 13.328125 12.730469 11.539062 13.230469 9.046875 L 14.539062 9.308594 C 13.929688 12.363281 11.234375 14.667969 8 14.667969 C 4.765625 14.667969 2.070312 12.363281 1.460938 9.308594 Z M 1.460938 9.308594 "/>
</g>
</svg>
