<?xml version="1.0" encoding="UTF-8"?>
<svg xmlns="http://www.w3.org/2000/svg" xmlns:xlink="http://www.w3.org/1999/xlink" width="16" height="16" viewBox="0 0 16 16" version="1.1">
<g id="surface1">
<path style=" stroke:none;fill-rule:nonzero;fill:rgb(0%,0%,0%);fill-opacity:1;" d="M 12.332031 1.332031 C 13.875 1.332031 15.167969 2.503906 15.320312 4.039062 C 15.472656 5.574219 14.433594 6.972656 12.921875 7.273438 L 12.929688 7.292969 C 13.597656 8.910156 13.433594 10.757812 12.480469 12.226562 C 11.53125 13.699219 9.917969 14.609375 8.164062 14.664062 L 8 14.667969 C 6.214844 14.667969 4.546875 13.773438 3.558594 12.289062 C 2.570312 10.804688 2.390625 8.921875 3.078125 7.273438 C 1.5625 6.972656 0.527344 5.574219 0.675781 4.039062 C 0.828125 2.5 2.121094 1.332031 3.667969 1.332031 C 5.257812 1.332031 6.574219 2.578125 6.660156 4.167969 L 6.710938 4.15625 C 7.132812 4.050781 7.566406 4 8 4 L 8.167969 4.003906 C 8.5625 4.015625 8.953125 4.070312 9.335938 4.167969 C 9.425781 2.578125 10.738281 1.332031 12.332031 1.332031 Z M 8 5.332031 C 5.789062 5.332031 4 7.125 4 9.332031 C 4 11.542969 5.789062 13.332031 8 13.332031 C 10.210938 13.332031 12 11.542969 12 9.332031 C 12 7.125 10.210938 5.332031 8 5.332031 Z M 3.667969 2.667969 C 2.746094 2.667969 2 3.414062 2 4.332031 C 2 5.253906 2.746094 6 3.667969 6 L 3.777344 5.996094 L 3.84375 5.988281 C 4.191406 5.558594 4.601562 5.183594 5.0625 4.878906 L 5.28125 4.742188 C 5.410156 4.246094 5.296875 3.714844 4.980469 3.308594 C 4.667969 2.902344 4.179688 2.667969 3.667969 2.667969 Z M 12.332031 2.667969 C 11.84375 2.667969 11.378906 2.882812 11.058594 3.257812 C 10.742188 3.632812 10.609375 4.125 10.6875 4.609375 L 10.71875 4.742188 L 10.738281 4.753906 C 11.277344 5.078125 11.757812 5.496094 12.15625 5.988281 C 12.769531 6.058594 13.375 5.78125 13.722656 5.269531 C 14.070312 4.757812 14.105469 4.09375 13.8125 3.550781 C 13.523438 3.003906 12.953125 2.664062 12.332031 2.667969 Z M 12.332031 2.667969 "/>
</g>
</svg>
