<?xml version="1.0" encoding="UTF-8"?>
<svg xmlns="http://www.w3.org/2000/svg" xmlns:xlink="http://www.w3.org/1999/xlink" width="16" height="16" viewBox="0 0 16 16" version="1.1">
<g id="surface1">
<path style=" stroke:none;fill-rule:nonzero;fill:rgb(0%,0%,0%);fill-opacity:1;" d="M 8.796875 1.511719 L 10.964844 5.265625 C 11.148438 5.582031 11.039062 5.992188 10.71875 6.175781 L 9.851562 6.675781 L 10.519531 7.828125 L 9.367188 8.496094 L 8.699219 7.339844 L 7.832031 7.84375 C 7.515625 8.027344 7.105469 7.917969 6.921875 7.597656 L 5.699219 5.476562 C 4.328125 5.890625 3.332031 7.164062 3.332031 8.667969 C 3.332031 9.082031 3.410156 9.484375 3.550781 9.851562 C 4.066406 9.523438 4.675781 9.332031 5.332031 9.332031 C 6.457031 9.332031 7.449219 9.886719 8.054688 10.738281 L 13.179688 7.78125 L 13.84375 8.933594 L 8.59375 11.96875 C 8.640625 12.191406 8.667969 12.425781 8.667969 12.667969 C 8.667969 12.894531 8.644531 13.117188 8.601562 13.332031 L 14 13.332031 L 14 14.667969 L 2.667969 14.667969 C 2.246094 14.109375 2 13.417969 2 12.667969 C 2 11.996094 2.199219 11.371094 2.539062 10.847656 C 2.195312 10.195312 2 9.453125 2 8.667969 C 2 6.671875 3.253906 4.964844 5.019531 4.300781 L 4.757812 3.84375 C 4.386719 3.207031 4.605469 2.390625 5.242188 2.023438 L 6.976562 1.023438 C 7.613281 0.65625 8.429688 0.875 8.796875 1.511719 Z M 8.796875 1.511719 "/>
</g>
</svg>
