<?xml version="1.0" encoding="UTF-8"?>
<svg xmlns="http://www.w3.org/2000/svg" xmlns:xlink="http://www.w3.org/1999/xlink" width="16" height="16" viewBox="0 0 16 16" version="1.1">
<g id="surface1">
<path style=" stroke:none;fill-rule:nonzero;fill:rgb(0%,0%,0%);fill-opacity:1;" d="M 12 2 C 13.105469 2 14 2.894531 14 4 C 14 5.105469 13.105469 6 12 6 L 10 6 C 9.128906 6 8.386719 5.445312 8.113281 4.667969 L 7.332031 4.667969 C 6.601562 4.667969 6 5.265625 6 6 L 6 6.113281 C 6.777344 6.386719 7.332031 7.128906 7.332031 8 C 7.332031 8.871094 6.777344 9.613281 6 9.886719 L 6 10 C 6 10.734375 6.601562 11.332031 7.332031 11.332031 L 8.113281 11.332031 C 8.386719 10.558594 9.128906 10 10 10 L 12 10 C 13.105469 10 14 10.894531 14 12 C 14 13.105469 13.105469 14 12 14 L 10 14 C 9.128906 14 8.386719 13.445312 8.113281 12.667969 L 7.332031 12.667969 C 5.859375 12.667969 4.667969 11.472656 4.667969 10 L 3.332031 10 C 2.230469 10 1.332031 9.105469 1.332031 8 C 1.332031 6.894531 2.230469 6 3.332031 6 L 4.667969 6 C 4.667969 4.527344 5.859375 3.332031 7.332031 3.332031 L 8.113281 3.332031 C 8.386719 2.558594 9.128906 2 10 2 Z M 12 11.332031 L 10 11.332031 C 9.632812 11.332031 9.332031 11.632812 9.332031 12 C 9.332031 12.367188 9.632812 12.667969 10 12.667969 L 12 12.667969 C 12.367188 12.667969 12.667969 12.367188 12.667969 12 C 12.667969 11.632812 12.367188 11.332031 12 11.332031 Z M 5.332031 7.332031 L 3.332031 7.332031 C 2.964844 7.332031 2.667969 7.632812 2.667969 8 C 2.667969 8.367188 2.964844 8.667969 3.332031 8.667969 L 5.332031 8.667969 C 5.703125 8.667969 6 8.367188 6 8 C 6 7.632812 5.703125 7.332031 5.332031 7.332031 Z M 12 3.332031 L 10 3.332031 C 9.632812 3.332031 9.332031 3.632812 9.332031 4 C 9.332031 4.367188 9.632812 4.667969 10 4.667969 L 12 4.667969 C 12.367188 4.667969 12.667969 4.367188 12.667969 4 C 12.667969 3.632812 12.367188 3.332031 12 3.332031 Z M 12 3.332031 "/>
</g>
</svg>
