<?xml version="1.0" encoding="UTF-8"?>
<svg xmlns="http://www.w3.org/2000/svg" xmlns:xlink="http://www.w3.org/1999/xlink" width="16" height="16" viewBox="0 0 16 16" version="1.1">
<g id="surface1">
<path style=" stroke:none;fill-rule:nonzero;fill:rgb(0%,0%,0%);fill-opacity:1;" d="M 0.5 1 C 0.222656 1 -0.00390625 1.226562 -0.00390625 1.503906 L -0.00390625 14.496094 C -0.00390625 14.773438 0.222656 15 0.5 15 L 15.5 15 C 15.777344 15 16.003906 14.773438 16 14.496094 L 16 1.503906 C 16.003906 1.226562 15.777344 1 15.5 1 Z M 10 4 L 14 4 L 14 5 L 10 5 Z M 6.460938 4.0625 C 6.476562 4.0625 6.484375 4.0625 6.5 4.0625 C 7.742188 4.0625 8.746094 5.070312 8.746094 6.3125 C 8.746094 7.554688 7.742188 8.5625 6.5 8.5625 C 5.898438 8.5625 5.328125 8.328125 4.90625 7.90625 C 4.484375 7.484375 4.25 6.910156 4.25 6.3125 C 4.25 5.085938 5.234375 4.082031 6.460938 4.0625 Z M 10 6 L 14 6 L 14 7 L 10 7 Z M 4.246094 8.824219 C 4.867188 9.378906 5.664062 9.6875 6.5 9.6875 C 7.328125 9.6875 8.128906 9.378906 8.75 8.824219 C 9.242188 8.824219 9.65625 9.015625 9.964844 9.292969 C 10.273438 9.570312 10.476562 9.914062 10.628906 10.257812 C 10.929688 10.9375 10.992188 11.605469 10.992188 11.605469 L 11.023438 11.929688 L 1.96875 11.929688 L 2 11.605469 C 2 11.605469 2.066406 10.9375 2.367188 10.257812 C 2.515625 9.914062 2.726562 9.570312 3.03125 9.292969 C 3.335938 9.015625 3.75 8.828125 4.246094 8.824219 Z M 4.246094 8.824219 "/>
</g>
</svg>
