<?xml version="1.0" encoding="UTF-8"?>
<svg xmlns="http://www.w3.org/2000/svg" xmlns:xlink="http://www.w3.org/1999/xlink" width="16" height="16" viewBox="0 0 16 16" version="1.1">
<g id="surface1">
<path style=" stroke:none;fill-rule:nonzero;fill:rgb(0%,0%,0%);fill-opacity:1;" d="M 5.78125 3.339844 C 6.679688 1.433594 8.742188 0.371094 10.8125 0.738281 C 10.464844 1.8125 10.746094 2.992188 11.542969 3.789062 C 12.34375 4.589844 13.523438 4.871094 14.597656 4.519531 C 14.644531 4.785156 14.667969 5.054688 14.667969 5.332031 C 14.667969 6.121094 14.46875 6.894531 14.089844 7.582031 C 15.234375 8.589844 15.636719 10.203125 15.097656 11.628906 C 14.558594 13.054688 13.191406 14 11.667969 14 L 6 14 C 3.097656 14 0.730469 11.675781 0.671875 8.777344 C 0.609375 5.875 2.882812 3.460938 5.78125 3.339844 Z M 7.230469 3.476562 C 8.9375 3.882812 10.335938 5.097656 10.972656 6.734375 C 11.632812 6.605469 12.3125 6.664062 12.945312 6.894531 C 13.09375 6.613281 13.207031 6.304688 13.269531 5.984375 C 11.191406 5.789062 9.542969 4.144531 9.351562 2.0625 C 8.484375 2.234375 7.722656 2.742188 7.230469 3.476562 Z M 7.230469 3.476562 "/>
</g>
</svg>
