<?xml version="1.0" encoding="UTF-8"?>
<svg xmlns="http://www.w3.org/2000/svg" xmlns:xlink="http://www.w3.org/1999/xlink" width="16" height="16" viewBox="0 0 16 16" version="1.1">
<g id="surface1">
<path style=" stroke:none;fill-rule:nonzero;fill:rgb(0%,0%,0%);fill-opacity:1;" d="M 6.667969 4.667969 C 6.667969 6.5625 7.8125 8.269531 9.570312 8.988281 C 11.324219 9.703125 13.339844 9.289062 14.667969 7.933594 L 14.667969 8 C 14.667969 11.683594 11.683594 14.667969 8 14.667969 C 4.316406 14.667969 1.332031 11.683594 1.332031 8 C 1.332031 4.316406 4.316406 1.332031 8 1.332031 L 8.066406 1.332031 C 7.167969 2.210938 6.664062 3.414062 6.667969 4.667969 Z M 2.667969 8 C 2.664062 10.449219 4.332031 12.582031 6.707031 13.175781 C 9.082031 13.769531 11.558594 12.667969 12.707031 10.507812 C 10.683594 10.984375 8.558594 10.378906 7.089844 8.910156 C 5.621094 7.441406 5.015625 5.316406 5.492188 3.292969 C 3.753906 4.21875 2.667969 6.027344 2.667969 8 Z M 2.667969 8 "/>
</g>
</svg>
