<?xml version="1.0" encoding="UTF-8"?>
<svg xmlns="http://www.w3.org/2000/svg" xmlns:xlink="http://www.w3.org/1999/xlink" width="16" height="16" viewBox="0 0 16 16" version="1.1">
<g id="surface1">
<path style=" stroke:none;fill-rule:nonzero;fill:rgb(0%,0%,0%);fill-opacity:1;" d="M 8 2 C 7.265625 2 6.667969 2.601562 6.667969 3.332031 C 6.667969 4.066406 7.265625 4.667969 8 4.667969 C 8.734375 4.667969 9.332031 4.066406 9.332031 3.332031 C 9.332031 2.601562 8.734375 2 8 2 Z M 8 11.332031 C 7.265625 11.332031 6.667969 11.933594 6.667969 12.667969 C 6.667969 13.398438 7.265625 14 8 14 C 8.734375 14 9.332031 13.398438 9.332031 12.667969 C 9.332031 11.933594 8.734375 11.332031 8 11.332031 Z M 8 6.667969 C 7.265625 6.667969 6.667969 7.265625 6.667969 8 C 6.667969 8.734375 7.265625 9.332031 8 9.332031 C 8.734375 9.332031 9.332031 8.734375 9.332031 8 C 9.332031 7.265625 8.734375 6.667969 8 6.667969 Z M 8 6.667969 "/>
</g>
</svg>
