<?xml version="1.0" encoding="UTF-8"?>
<svg xmlns="http://www.w3.org/2000/svg" xmlns:xlink="http://www.w3.org/1999/xlink" width="16" height="16" viewBox="0 0 16 16" version="1.1">
<g id="surface1">
<path style=" stroke:none;fill-rule:nonzero;fill:rgb(0%,0%,0%);fill-opacity:1;" d="M 2.667969 8.835938 L 2.667969 8 L 1.332031 8 L 1.332031 6.667969 L 5.578125 6.667969 L 7.464844 5.332031 L 9.792969 5.332031 L 9.066406 3.332031 L 7.332031 3.332031 L 7.332031 2 L 10 2 L 10.726562 4 L 13.332031 4 L 13.332031 6 L 11.457031 6 L 12.425781 8.667969 C 13.953125 8.714844 15.195312 9.902344 15.320312 11.421875 C 15.445312 12.941406 14.410156 14.3125 12.914062 14.609375 C 11.414062 14.90625 9.9375 14.03125 9.472656 12.578125 C 9.011719 11.125 9.710938 9.554688 11.101562 8.929688 L 10.28125 6.667969 L 9.648438 6.667969 L 8.59375 10.578125 L 8.59375 10.582031 L 6.644531 11.292969 C 6.839844 12.855469 5.796875 14.300781 4.253906 14.609375 C 2.707031 14.914062 1.191406 13.976562 0.773438 12.460938 C 0.355469 10.941406 1.183594 9.363281 2.667969 8.835938 Z M 4 8.683594 C 4.894531 8.785156 5.699219 9.28125 6.1875 10.039062 L 7.492188 9.566406 L 8.269531 6.667969 L 7.902344 6.667969 L 6 8 L 4 8 Z M 3.667969 13.332031 C 4.585938 13.332031 5.332031 12.585938 5.332031 11.667969 C 5.332031 10.746094 4.585938 10 3.667969 10 C 2.746094 10 2 10.746094 2 11.667969 C 2 12.585938 2.746094 13.332031 3.667969 13.332031 Z M 12.332031 13.332031 C 13.253906 13.332031 14 12.585938 14 11.667969 C 14 10.746094 13.253906 10 12.332031 10 C 11.414062 10 10.667969 10.746094 10.667969 11.667969 C 10.667969 12.585938 11.414062 13.332031 12.332031 13.332031 Z M 12.332031 13.332031 "/>
</g>
</svg>
