<?xml version="1.0" encoding="UTF-8"?>
<svg xmlns="http://www.w3.org/2000/svg" xmlns:xlink="http://www.w3.org/1999/xlink" width="16" height="16" viewBox="0 0 16 16" version="1.1">
<g id="surface1">
<path style=" stroke:none;fill-rule:nonzero;fill:rgb(0%,0%,0%);fill-opacity:1;" d="M 5.578125 6.667969 L 7.464844 5.332031 L 11.332031 5.332031 L 11.332031 6.667969 L 7.902344 6.667969 L 6 8 L 1.332031 8 L 1.332031 6.667969 Z M 6.1875 10.039062 L 8.136719 9.328125 L 8.59375 10.582031 L 6.644531 11.292969 C 6.832031 12.808594 5.855469 14.222656 4.371094 14.582031 C 2.886719 14.941406 1.371094 14.125 0.847656 12.691406 C 0.324219 11.257812 0.964844 9.660156 2.332031 8.980469 C 3.699219 8.300781 5.359375 8.757812 6.1875 10.039062 Z M 3.667969 13.332031 C 4.585938 13.332031 5.332031 12.585938 5.332031 11.667969 C 5.332031 10.746094 4.585938 10 3.667969 10 C 2.746094 10 2 10.746094 2 11.667969 C 2 12.585938 2.746094 13.332031 3.667969 13.332031 Z M 12.332031 14.667969 C 10.675781 14.667969 9.332031 13.324219 9.332031 11.667969 C 9.332031 10.011719 10.675781 8.667969 12.332031 8.667969 C 13.988281 8.667969 15.332031 10.011719 15.332031 11.667969 C 15.332031 13.324219 13.988281 14.667969 12.332031 14.667969 Z M 12.332031 13.332031 C 13.253906 13.332031 14 12.585938 14 11.667969 C 14 10.746094 13.253906 10 12.332031 10 C 11.414062 10 10.667969 10.746094 10.667969 11.667969 C 10.667969 12.585938 11.414062 13.332031 12.332031 13.332031 Z M 2.667969 7.332031 L 6.667969 7.332031 L 8.398438 6.179688 L 8.585938 5.480469 L 9.875 5.824219 L 8.59375 10.578125 L 7.378906 9.988281 L 7.457031 9.695312 L 6 10.667969 L 5.332031 9.332031 L 2.667969 9.332031 Z M 10.726562 4 L 13.332031 4 L 13.332031 6 L 11.457031 6 L 12.734375 9.515625 L 11.484375 9.972656 L 10.039062 6 L 10 6 L 10 5.898438 L 9.066406 3.332031 L 7.332031 3.332031 L 7.332031 2 L 10 2 Z M 10.726562 4 "/>
</g>
</svg>
