<?xml version="1.0" encoding="UTF-8"?>
<svg xmlns="http://www.w3.org/2000/svg" xmlns:xlink="http://www.w3.org/1999/xlink" width="16" height="16" viewBox="0 0 16 16" version="1.1">
<g id="surface1">
<path style=" stroke:none;fill-rule:nonzero;fill:rgb(0%,0%,0%);fill-opacity:1;" d="M 7.425781 1.332031 L 8.574219 1.332031 C 9.914062 1.332031 10.636719 1.519531 11.289062 1.867188 C 11.929688 2.207031 12.457031 2.734375 12.800781 3.378906 C 13.148438 4.03125 13.332031 4.75 13.332031 6.09375 L 13.332031 9.90625 C 13.332031 11.25 13.148438 11.96875 12.800781 12.621094 C 12.457031 13.265625 11.929688 13.792969 11.289062 14.132812 C 10.636719 14.480469 9.914062 14.667969 8.574219 14.667969 L 7.425781 14.667969 C 6.085938 14.667969 5.363281 14.480469 4.710938 14.132812 C 4.066406 13.792969 3.539062 13.265625 3.199219 12.621094 C 2.851562 11.96875 2.667969 11.25 2.667969 9.90625 L 2.667969 6.09375 C 2.667969 4.75 2.851562 4.03125 3.199219 3.378906 C 3.542969 2.734375 4.070312 2.207031 4.714844 1.867188 C 5.363281 1.519531 6.085938 1.332031 7.425781 1.332031 Z M 7.332031 4 L 7.332031 7.332031 L 8.667969 7.332031 L 8.667969 4 Z M 7.332031 4 "/>
</g>
</svg>
