<?xml version="1.0" encoding="UTF-8"?>
<svg xmlns="http://www.w3.org/2000/svg" xmlns:xlink="http://www.w3.org/1999/xlink" width="16" height="16" viewBox="0 0 16 16" version="1.1">
<g id="surface1">
<path style=" stroke:none;fill-rule:evenodd;fill:rgb(0%,0%,0%);fill-opacity:1;" d="M 2.703125 2 C 2.449219 2.21875 2.203125 2.457031 1.992188 2.730469 L 1.996094 2.734375 C 0.71875 4.1875 0.00390625 6.054688 0.00390625 8 C 0.00390625 10.117188 0.84375 12.148438 2.34375 13.648438 L 3.054688 12.9375 C 1.742188 11.625 1.007812 9.851562 1.007812 8 C 1.007812 6.3125 1.621094 4.699219 2.714844 3.433594 L 3.40625 4.128906 C 2.492188 5.207031 1.984375 6.574219 1.984375 8 C 1.984375 9.421875 2.492188 10.800781 3.410156 11.882812 L 3.40625 11.882812 C 3.4375 11.917969 3.46875 11.945312 3.5 11.980469 C 3.578125 12.070312 3.65625 12.160156 3.738281 12.242188 L 3.746094 12.234375 C 3.859375 12.359375 3.972656 12.484375 4.09375 12.597656 L 4.445312 12.242188 L 5.945312 10.738281 L 6.300781 10.390625 L 5.945312 10.039062 C 5.40625 9.5 5.101562 8.761719 5.101562 8 C 5.101562 7.40625 5.289062 6.84375 5.617188 6.367188 L 6.636719 7.421875 C 6.5625 7.601562 6.515625 7.796875 6.515625 8 C 6.515625 8.53125 6.800781 8.992188 7.21875 9.261719 L 8.007812 14 L 8.796875 9.28125 C 9.226562 9.015625 9.523438 8.542969 9.523438 8 C 9.523438 7.78125 9.472656 7.578125 9.386719 7.390625 L 10.378906 6.359375 C 10.710938 6.839844 10.894531 7.414062 10.894531 8 C 10.894531 8.765625 10.59375 9.492188 10.054688 10.03125 L 9.699219 10.386719 L 10.054688 10.742188 L 11.554688 12.238281 L 11.90625 12.59375 C 12.125 12.398438 12.335938 12.183594 12.53125 11.941406 C 13.484375 10.851562 14.015625 9.457031 14.015625 8 C 14.015625 6.578125 13.507812 5.207031 12.597656 4.125 L 13.28125 3.433594 C 14.378906 4.699219 14.992188 6.316406 14.992188 8 C 14.992188 9.855469 14.257812 11.632812 12.945312 12.941406 L 13.65625 13.648438 C 15.15625 12.148438 15.996094 10.117188 15.996094 8 C 15.996094 6.046875 15.269531 4.171875 13.980469 2.714844 L 13.984375 2.710938 C 13.945312 2.65625 13.890625 2.617188 13.851562 2.570312 C 13.78125 2.5 13.726562 2.421875 13.65625 2.355469 L 13.648438 2.363281 C 13.53125 2.242188 13.421875 2.109375 13.296875 2 L 12.945312 2.355469 L 11.554688 3.757812 L 11.195312 4.117188 L 11.554688 4.46875 C 12.492188 5.40625 13.023438 6.675781 13.023438 8 C 13.023438 9.15625 12.597656 10.257812 11.875 11.140625 L 11.082031 10.351562 C 11.601562 9.679688 11.898438 8.859375 11.898438 8 C 11.898438 7.125 11.585938 6.289062 11.046875 5.605469 L 11.054688 5.59375 C 10.84375 5.328125 10.65625 5.101562 10.390625 4.90625 L 10.046875 5.265625 L 8.695312 6.671875 C 8.492188 6.566406 8.265625 6.503906 8.023438 6.503906 C 7.765625 6.503906 7.53125 6.574219 7.320312 6.6875 L 5.953125 5.265625 L 5.605469 4.90625 C 5.484375 5.023438 5.359375 5.140625 5.238281 5.261719 L 5.234375 5.257812 C 5.222656 5.273438 5.210938 5.289062 5.199219 5.304688 C 5.097656 5.410156 5 5.515625 4.910156 5.632812 L 4.921875 5.644531 C 4.398438 6.320312 4.101562 7.140625 4.101562 8 C 4.101562 8.859375 4.398438 9.679688 4.921875 10.351562 L 4.125 11.148438 C 3.402344 10.257812 2.976562 9.15625 2.976562 8 C 2.976562 6.671875 3.507812 5.398438 4.445312 4.460938 L 4.800781 4.117188 L 4.445312 3.761719 L 3.054688 2.351562 Z M 2.703125 2 "/>
</g>
</svg>
