<?xml version="1.0" encoding="UTF-8"?>
<svg xmlns="http://www.w3.org/2000/svg" xmlns:xlink="http://www.w3.org/1999/xlink" width="16" height="16" viewBox="0 0 16 16" version="1.1">
<g id="surface1">
<path style=" stroke:none;fill-rule:nonzero;fill:rgb(0%,0%,0%);fill-opacity:1;" d="M 6.949219 7.582031 C 6.75 8.269531 6.957031 8.960938 7.46875 9.351562 C 8.175781 9.890625 9.179688 9.550781 9.386719 8.6875 C 9.4375 8.464844 9.453125 8.207031 9.402344 7.984375 C 9.25 7.316406 9.058594 6.660156 8.875 5.988281 C 7.988281 6.089844 7.179688 6.769531 6.949219 7.582031 Z M 10.644531 7.390625 C 10.828125 8.066406 10.835938 8.738281 10.5625 9.390625 C 9.808594 11.183594 7.414062 11.484375 6.179688 9.941406 C 5.3125 8.859375 5.324219 7.300781 6.21875 6.121094 C 6.738281 5.433594 7.421875 4.980469 8.25 4.75 L 8.503906 4.679688 C 8.449219 4.40625 8.378906 4.136719 8.34375 3.867188 C 8.226562 2.988281 8.683594 2.195312 9.503906 1.839844 C 10.320312 1.480469 11.308594 1.695312 11.859375 2.34375 C 12.128906 2.664062 12.121094 3.066406 11.839844 3.320312 C 11.566406 3.574219 11.175781 3.550781 10.882812 3.261719 C 10.71875 3.097656 10.542969 2.96875 10.300781 2.96875 C 9.949219 2.976562 9.640625 3.25 9.671875 3.59375 C 9.695312 3.90625 9.785156 4.214844 9.871094 4.519531 C 9.882812 4.570312 10.015625 4.609375 10.09375 4.621094 C 10.984375 4.753906 11.765625 5.109375 12.410156 5.738281 C 14.117188 7.402344 14.316406 10.09375 12.859375 12.03125 C 11.839844 13.386719 10.453125 14.144531 8.773438 14.304688 C 5.691406 14.597656 2.996094 12.617188 2.308594 9.597656 C 1.675781 6.835938 3.226562 3.886719 5.863281 2.832031 C 6.253906 2.675781 6.625 2.8125 6.777344 3.164062 C 6.933594 3.523438 6.765625 3.890625 6.371094 4.066406 C 4.792969 4.773438 3.824219 5.96875 3.5625 7.679688 C 3.207031 9.96875 4.664062 12.199219 6.894531 12.828125 C 8.710938 13.339844 10.664062 12.71875 11.765625 11.273438 C 12.824219 9.886719 12.699219 7.875 11.480469 6.691406 C 11.144531 6.363281 10.722656 6.128906 10.265625 6.015625 C 10.398438 6.496094 10.523438 6.941406 10.644531 7.390625 Z M 10.644531 7.390625 "/>
</g>
</svg>
