<?xml version="1.0" encoding="UTF-8"?>
<svg xmlns="http://www.w3.org/2000/svg" xmlns:xlink="http://www.w3.org/1999/xlink" width="16" height="16" viewBox="0 0 16 16" version="1.1">
<g id="surface1">
<path style=" stroke:none;fill-rule:nonzero;fill:rgb(0%,0%,0%);fill-opacity:1;" d="M 8 14.667969 C 4.316406 14.667969 1.332031 11.683594 1.332031 8 C 1.332031 4.316406 4.316406 1.332031 8 1.332031 C 11.683594 1.332031 14.667969 4.316406 14.667969 8 C 14.667969 11.683594 11.683594 14.667969 8 14.667969 Z M 7.277344 7.710938 C 7.4375 7.152344 7.992188 6.683594 8.601562 6.613281 C 8.726562 7.074219 8.863281 7.527344 8.964844 7.988281 C 9 8.140625 8.992188 8.320312 8.953125 8.472656 C 8.8125 9.066406 8.121094 9.300781 7.636719 8.929688 C 7.28125 8.660156 7.140625 8.183594 7.277344 7.710938 Z M 9.820312 7.582031 C 9.738281 7.269531 9.648438 6.960938 9.558594 6.632812 C 9.890625 6.71875 10.164062 6.875 10.394531 7.097656 C 11.234375 7.914062 11.320312 9.300781 10.589844 10.253906 C 9.835938 11.246094 8.488281 11.675781 7.238281 11.324219 C 5.703125 10.890625 4.699219 9.355469 4.945312 7.78125 C 5.128906 6.601562 5.792969 5.777344 6.878906 5.289062 C 7.148438 5.167969 7.265625 4.917969 7.160156 4.671875 C 7.054688 4.429688 6.796875 4.335938 6.53125 4.441406 C 4.714844 5.167969 3.648438 7.199219 4.082031 9.101562 C 4.558594 11.179688 6.414062 12.542969 8.53125 12.339844 C 9.6875 12.230469 10.640625 11.707031 11.34375 10.773438 C 12.347656 9.441406 12.207031 7.585938 11.035156 6.441406 C 10.589844 6.007812 10.054688 5.761719 9.441406 5.671875 C 9.386719 5.664062 9.296875 5.636719 9.285156 5.601562 C 9.230469 5.394531 9.167969 5.179688 9.148438 4.964844 C 9.128906 4.730469 9.34375 4.539062 9.582031 4.535156 C 9.75 4.535156 9.871094 4.625 9.984375 4.738281 C 10.1875 4.9375 10.453125 4.953125 10.644531 4.777344 C 10.835938 4.601562 10.839844 4.324219 10.65625 4.105469 C 10.277344 3.65625 9.597656 3.511719 9.035156 3.757812 C 8.46875 4.003906 8.15625 4.546875 8.234375 5.152344 C 8.261719 5.339844 8.308594 5.523438 8.347656 5.714844 L 8.171875 5.761719 C 7.601562 5.921875 7.132812 6.230469 6.773438 6.703125 C 6.160156 7.519531 6.152344 8.589844 6.746094 9.335938 C 7.597656 10.398438 9.246094 10.191406 9.761719 8.957031 C 9.953125 8.507812 9.945312 8.046875 9.820312 7.582031 Z M 9.820312 7.582031 "/>
</g>
</svg>
