<?xml version="1.0" encoding="UTF-8"?>
<svg xmlns="http://www.w3.org/2000/svg" xmlns:xlink="http://www.w3.org/1999/xlink" width="16" height="16" viewBox="0 0 16 16" version="1.1">
<g id="surface1">
<path style=" stroke:none;fill-rule:nonzero;fill:rgb(0%,0%,0%);fill-opacity:1;" d="M 7.527344 2.542969 L 8.875 6.347656 L 9.136719 7.089844 L 9.140625 3.882812 L 9.148438 0.671875 L 11.996094 0.671875 L 12 7.914062 C 12.003906 11.902344 11.996094 15.175781 11.988281 15.179688 C 11.980469 15.1875 11.851562 15.179688 11.699219 15.164062 C 11.039062 15.085938 10.171875 15.003906 9.472656 14.976562 C 9.332031 14.96875 9.191406 14.960938 9.046875 14.949219 C 9.046875 14.945312 8.867188 14.441406 8.53125 13.492188 L 7.101562 9.449219 L 6.875 8.8125 L 6.871094 11.871094 C 6.867188 14.78125 6.863281 14.945312 6.832031 14.945312 C 6.722656 14.945312 5.785156 15.003906 5.472656 15.035156 C 5.265625 15.054688 4.855469 15.09375 4.558594 15.132812 C 4.261719 15.164062 4.015625 15.1875 4.011719 15.183594 C 4.003906 15.179688 4 11.910156 4 7.921875 L 4 0.667969 L 6.863281 0.667969 L 6.878906 0.71875 C 6.886719 0.730469 6.925781 0.835938 6.984375 1.011719 L 7.414062 2.195312 L 7.527344 2.527344 Z M 7.527344 2.542969 "/>
</g>
</svg>
