<?xml version="1.0" encoding="UTF-8"?>
<svg xmlns="http://www.w3.org/2000/svg" xmlns:xlink="http://www.w3.org/1999/xlink" width="16" height="16" viewBox="0 0 16 16" version="1.1">
<g id="surface1">
<path style=" stroke:none;fill-rule:nonzero;fill:rgb(0%,0%,0%);fill-opacity:1;" d="M 7.953125 0 C 6.867188 0.0273438 6 0.914062 6 2 C 6 2.140625 6.015625 2.28125 6.046875 2.417969 L 3.507812 3.6875 C 3.128906 3.25 2.578125 3 2 3 C 0.894531 3 0 3.894531 0 5 C 0 6.105469 0.894531 7 2 7 C 2.226562 7 2.445312 6.960938 2.65625 6.886719 L 3.398438 8 L 2.660156 9.109375 C 2.445312 9.039062 2.226562 9 2 9 C 0.894531 9 0 9.894531 0 11 C 0 12.105469 0.894531 13 2 13 C 2.578125 13 3.125 12.75 3.503906 12.316406 L 6.046875 13.585938 C 6.015625 13.722656 6 13.859375 6 14 C 6 15.105469 6.894531 16 8 16 C 9.105469 16 10 15.105469 10 14 C 10 13.640625 9.902344 13.289062 9.71875 12.984375 L 12.984375 9.71875 C 13.289062 9.902344 13.640625 10 14 10 C 15.105469 10 16 9.105469 16 8 C 16 6.894531 15.105469 6 14 6 C 13.640625 6 13.289062 6.097656 12.984375 6.28125 L 9.722656 3.015625 C 9.90625 2.710938 10 2.359375 10 2 C 10 0.898438 9.105469 0 8 0 C 7.984375 0 7.96875 0 7.953125 0 Z M 6.492188 3.3125 C 6.5 3.320312 6.503906 3.328125 6.507812 3.332031 L 4.828125 5.851562 L 3.953125 5.414062 C 3.984375 5.28125 4 5.140625 4 5 C 4 4.859375 3.984375 4.71875 3.953125 4.578125 Z M 9.015625 3.722656 L 12.277344 6.984375 C 12.183594 7.144531 12.113281 7.316406 12.066406 7.496094 L 9.9375 7.496094 C 9.707031 6.617188 8.910156 6 8 6 C 7.421875 6 6.875 6.25 6.492188 6.683594 L 5.730469 6.304688 L 7.34375 3.890625 C 7.554688 3.960938 7.773438 4 8 4 C 8.359375 4 8.707031 3.90625 9.015625 3.722656 Z M 3.507812 6.3125 L 4.273438 6.695312 L 4 7.101562 L 3.484375 6.335938 C 3.492188 6.328125 3.5 6.320312 3.507812 6.3125 Z M 5.171875 7.144531 L 6.046875 7.582031 C 6.015625 7.71875 6 7.859375 6 8 C 6 8.140625 6.015625 8.28125 6.046875 8.421875 L 5.171875 8.859375 L 4.597656 8 Z M 9.9375 8.5 L 12.0625 8.5 C 12.109375 8.679688 12.183594 8.855469 12.277344 9.015625 L 9.015625 12.277344 C 8.707031 12.09375 8.359375 12 8 12 C 7.773438 12 7.554688 12.039062 7.339844 12.113281 L 5.726562 9.695312 L 6.492188 9.3125 C 6.871094 9.75 7.421875 10 8 10 C 8.914062 10 9.707031 9.382812 9.9375 8.5 Z M 4 8.898438 L 4.273438 9.308594 L 3.507812 9.6875 C 3.5 9.679688 3.492188 9.671875 3.488281 9.664062 Z M 4.828125 10.140625 L 6.507812 12.667969 C 6.503906 12.671875 6.5 12.679688 6.492188 12.6875 L 3.953125 11.414062 C 3.984375 11.28125 4 11.140625 4 11 C 4 10.859375 3.984375 10.71875 3.953125 10.578125 Z M 4.828125 10.140625 "/>
</g>
</svg>
