<?xml version="1.0" encoding="UTF-8"?>
<svg xmlns="http://www.w3.org/2000/svg" xmlns:xlink="http://www.w3.org/1999/xlink" width="16" height="16" viewBox="0 0 16 16" version="1.1">
<g id="surface1">
<path style=" stroke:none;fill-rule:nonzero;fill:rgb(0%,0%,0%);fill-opacity:1;" d="M 4 0 L 4 4 L 0 4 L 0 13.5 C -0.0078125 14.289062 0.300781 14.953125 0.773438 15.375 C 1.25 15.804688 1.867188 16 2.480469 15.996094 C 2.488281 15.996094 2.492188 15.988281 2.5 15.988281 L 2.5 15.996094 L 13.5 15.996094 C 14 15.996094 14.609375 16.027344 15.15625 15.664062 C 15.699219 15.300781 15.996094 14.585938 15.996094 13.5 L 15.996094 0 Z M 5 0.996094 L 15 0.996094 L 15 13.5 C 15 14.417969 14.796875 14.703125 14.59375 14.835938 C 14.390625 14.976562 14 15 13.5 15 L 4.355469 15 C 4.683594 14.589844 4.992188 14.140625 5 13.507812 Z M 6 2 L 6 3 L 9 3 L 9 2 Z M 10 2 L 10 7 L 14 7 L 14 2 Z M 6 4 L 6 5 L 9 5 L 9 4 Z M 0.996094 5 L 4 5 L 4 6 L 2 6 L 2 7 L 4 7 L 4 8 L 2 8 L 2 9 L 4 9 L 4 10 L 2 10 L 2 11 L 4 11 L 4 12 L 2 12 L 2 13 L 4 13 L 4 13.492188 C 3.996094 14.03125 3.804688 14.378906 3.53125 14.625 C 3.25 14.867188 2.867188 15 2.480469 15 C 2.09375 15 1.707031 14.871094 1.4375 14.632812 C 1.171875 14.390625 0.992188 14.046875 0.996094 13.5 Z M 6 6 L 6 7 L 9 7 L 9 6 Z M 6 8 L 6 9 L 14 9 L 14 8 Z M 6 10 L 6 11 L 14 11 L 14 10 Z M 6 12 L 6 13 L 14 13 L 14 12 Z M 6 12 "/>
</g>
</svg>
