<?xml version="1.0" encoding="UTF-8"?>
<svg xmlns="http://www.w3.org/2000/svg" xmlns:xlink="http://www.w3.org/1999/xlink" width="16" height="16" viewBox="0 0 16 16" version="1.1">
<g id="surface1">
<path style=" stroke:none;fill-rule:nonzero;fill:rgb(0%,0%,0%);fill-opacity:1;" d="M 12 6.667969 C 12 4.457031 10.210938 2.667969 8 2.667969 C 5.789062 2.667969 4 4.457031 4 6.667969 L 4 12 L 12 12 Z M 13.332031 12.445312 L 13.601562 12.800781 C 13.675781 12.902344 13.6875 13.035156 13.632812 13.148438 C 13.574219 13.261719 13.460938 13.332031 13.332031 13.332031 L 2.667969 13.332031 C 2.539062 13.332031 2.425781 13.261719 2.367188 13.148438 C 2.3125 13.035156 2.324219 12.902344 2.398438 12.800781 L 2.667969 12.445312 L 2.667969 6.667969 C 2.667969 3.722656 5.054688 1.332031 8 1.332031 C 10.945312 1.332031 13.332031 3.722656 13.332031 6.667969 Z M 6.332031 14 L 9.667969 14 C 9.667969 14.921875 8.921875 15.667969 8 15.667969 C 7.078125 15.667969 6.332031 14.921875 6.332031 14 Z M 6.332031 14 "/>
</g>
</svg>
