<?xml version="1.0" encoding="UTF-8"?>
<svg xmlns="http://www.w3.org/2000/svg" xmlns:xlink="http://www.w3.org/1999/xlink" width="16" height="16" viewBox="0 0 16 16" version="1.1">
<g id="surface1">
<path style=" stroke:none;fill-rule:evenodd;fill:rgb(0%,0%,0%);fill-opacity:1;" d="M 2 0 C 0.890625 0 0 0.890625 0 2 L 0 14 C 0 15.109375 0.890625 16 2 16 L 10 16 C 11.109375 16 12 15.109375 12 14 L 12 10 L 10 10 L 10 12 L 2 12 L 2 2 L 12 2 C 12 0.890625 11.109375 0 10 0 Z M 7 3 L 7 11 L 10 9 L 16 9 L 16 3 Z M 6 13 C 6.554688 13 7 13.445312 7 14 C 7 14.554688 6.554688 15 6 15 C 5.445312 15 5 14.554688 5 14 C 5 13.445312 5.445312 13 6 13 Z M 6 13 "/>
</g>
</svg>
