<?xml version="1.0" encoding="UTF-8"?>
<svg xmlns="http://www.w3.org/2000/svg" xmlns:xlink="http://www.w3.org/1999/xlink" width="16" height="16" viewBox="0 0 16 16" version="1.1">
<g id="surface1">
<path style=" stroke:none;fill-rule:nonzero;fill:rgb(0%,0%,0%);fill-opacity:1;" d="M 12 1.332031 L 12 2.667969 L 6.199219 2.667969 L 5.75 6.964844 C 7.347656 5.992188 9.390625 6.15625 10.816406 7.371094 C 12.238281 8.589844 12.71875 10.582031 12.007812 12.3125 C 11.296875 14.042969 9.554688 15.125 7.6875 14.988281 C 5.820312 14.851562 4.25 13.535156 3.796875 11.71875 L 5.089844 11.394531 C 5.460938 12.863281 6.863281 13.824219 8.367188 13.640625 C 9.867188 13.453125 10.996094 12.179688 11 10.667969 C 11 9.011719 9.65625 7.667969 8 7.667969 C 6.652344 7.667969 5.816406 8.09375 5.359375 8.6875 L 4.308594 7.898438 L 5 1.332031 Z M 12 1.332031 "/>
</g>
</svg>
