<?xml version="1.0" encoding="UTF-8"?>
<svg xmlns="http://www.w3.org/2000/svg" xmlns:xlink="http://www.w3.org/1999/xlink" width="16" height="16" viewBox="0 0 16 16" version="1.1">
<g id="surface1">
<path style=" stroke:none;fill-rule:nonzero;fill:rgb(0%,0%,0%);fill-opacity:1;" d="M 7.007812 10.171875 L 14.164062 3.011719 L 14.164062 9.585938 L 15.828125 9.582031 L 15.828125 0.171875 L 6.417969 0.171875 L 6.417969 1.828125 L 12.988281 1.835938 L 5.828125 8.992188 Z M 7.007812 10.171875 "/>
<path style=" stroke:none;fill-rule:evenodd;fill:rgb(0%,0%,0%);fill-opacity:1;" d="M 4 0.171875 C 1.890625 0.171875 0.171875 1.890625 0.171875 4 L 0.171875 12 C 0.171875 14.109375 1.890625 15.828125 4 15.828125 L 12 15.828125 C 14.109375 15.828125 15.828125 14.109375 15.828125 12 L 14.171875 12 C 14.171875 13.21875 13.21875 14.171875 12 14.171875 L 4 14.171875 C 2.78125 14.171875 1.828125 13.21875 1.828125 12 L 1.828125 4 C 1.828125 2.78125 2.78125 1.828125 4 1.828125 Z M 4 0.171875 "/>
</g>
</svg>
