<?xml version="1.0" encoding="UTF-8"?>
<svg xmlns="http://www.w3.org/2000/svg" xmlns:xlink="http://www.w3.org/1999/xlink" width="16" height="16" viewBox="0 0 16 16" version="1.1">
<g id="surface1">
<path style=" stroke:none;fill-rule:nonzero;fill:rgb(0%,0%,0%);fill-opacity:1;" d="M 5.808594 4.242188 C 5.066406 5.113281 4.589844 6.402344 4.558594 7.84375 L 4.558594 8.15625 C 4.59375 9.601562 5.070312 10.886719 5.804688 11.757812 C 6.761719 12.996094 8.183594 13.785156 9.773438 13.785156 C 10.722656 13.785156 11.652344 13.5 12.441406 12.96875 C 11.140625 14.136719 9.429688 14.746094 7.683594 14.660156 C 4.128906 14.492188 1.332031 11.558594 1.332031 8 C 1.332031 4.316406 4.320312 1.332031 8 1.332031 L 8.023438 1.332031 C 9.65625 1.335938 11.230469 1.941406 12.441406 3.03125 C 11.652344 2.5 10.722656 2.214844 9.769531 2.214844 C 8.183594 2.214844 6.761719 3.003906 5.804688 4.242188 Z M 14.667969 8 C 14.667969 9.898438 13.859375 11.707031 12.441406 12.96875 C 10.734375 13.800781 9.140625 13.21875 8.613281 12.855469 C 10.292969 12.488281 11.5625 10.457031 11.5625 8 C 11.5625 5.542969 10.292969 3.511719 8.613281 3.144531 C 9.140625 2.78125 10.734375 2.199219 12.441406 3.03125 C 13.859375 4.292969 14.667969 6.101562 14.667969 8 Z M 14.667969 8 "/>
</g>
</svg>
