<?xml version="1.0" encoding="UTF-8"?>
<svg xmlns="http://www.w3.org/2000/svg" xmlns:xlink="http://www.w3.org/1999/xlink" width="16" height="16" viewBox="0 0 16 16" version="1.1">
<g id="surface1">
<path style=" stroke:none;fill-rule:evenodd;fill:rgb(0%,0%,0%);fill-opacity:1;" d="M 2.59375 0 C 2.265625 0 2 0.265625 2 0.59375 L 2 3 L 14 3 L 14 0.59375 C 14 0.265625 13.734375 0 13.40625 0 Z M 3.734375 0.75 C 3.742188 0.75 3.742188 0.75 3.75 0.75 C 4.164062 0.75 4.5 1.085938 4.5 1.5 C 4.5 1.914062 4.164062 2.25 3.75 2.25 C 3.335938 2.25 3 1.914062 3 1.5 C 3 1.09375 3.328125 0.757812 3.734375 0.75 Z M 6.234375 0.75 C 6.242188 0.75 6.242188 0.75 6.25 0.75 C 6.664062 0.75 7 1.085938 7 1.5 C 7 1.914062 6.664062 2.25 6.25 2.25 C 5.835938 2.25 5.5 1.914062 5.5 1.5 C 5.5 1.09375 5.828125 0.757812 6.234375 0.75 Z M 8.234375 0.75 C 8.242188 0.75 8.242188 0.75 8.25 0.75 C 8.664062 0.75 9 1.085938 9 1.5 C 9 1.914062 8.664062 2.25 8.25 2.25 C 7.835938 2.25 7.5 1.914062 7.5 1.5 C 7.5 1.09375 7.828125 0.757812 8.234375 0.75 Z M 10.234375 0.75 C 10.242188 0.75 10.242188 0.75 10.25 0.75 C 10.664062 0.75 11 1.085938 11 1.5 C 11 1.914062 10.664062 2.25 10.25 2.25 C 9.835938 2.25 9.5 1.914062 9.5 1.5 C 9.5 1.09375 9.828125 0.757812 10.234375 0.75 Z M 12.234375 0.75 C 12.242188 0.75 12.242188 0.75 12.25 0.75 C 12.664062 0.75 13 1.085938 13 1.5 C 13 1.914062 12.664062 2.25 12.25 2.25 C 11.835938 2.25 11.5 1.914062 11.5 1.5 C 11.5 1.09375 11.828125 0.757812 12.234375 0.75 Z M 2 4 L 2 15 C 2 15 2.445312 16 3 16 L 13 16 C 13.554688 16 14 15.554688 14 15 C 14.015625 11.929688 14 4 14 4 Z M 4 6 L 12 6 L 12 11 L 4 11 Z M 5 7 L 5 8 L 11 8 L 11 7 Z M 4 12 L 12 12 L 12 14 L 4 14 Z M 4 12 "/>
</g>
</svg>
