<?xml version="1.0" encoding="UTF-8"?>
<svg xmlns="http://www.w3.org/2000/svg" xmlns:xlink="http://www.w3.org/1999/xlink" width="16" height="16" viewBox="0 0 16 16" version="1.1">
<g id="surface1">
<path style=" stroke:none;fill-rule:nonzero;fill:rgb(0%,0%,0%);fill-opacity:1;" d="M 2.667969 2 L 13.332031 2 C 13.703125 2 14 2.296875 14 2.667969 L 14 6 C 14 6.367188 13.703125 6.667969 13.332031 6.667969 L 2.667969 6.667969 C 2.296875 6.667969 2 6.367188 2 6 L 2 2.667969 C 2 2.296875 2.296875 2 2.667969 2 Z M 4 8 L 8 8 C 8.367188 8 8.667969 8.296875 8.667969 8.667969 L 8.667969 10.667969 L 9.332031 10.667969 L 9.332031 14.667969 L 6.667969 14.667969 L 6.667969 10.667969 L 7.332031 10.667969 L 7.332031 9.332031 L 3.332031 9.332031 C 2.964844 9.332031 2.667969 9.035156 2.667969 8.667969 L 2.667969 7.332031 L 4 7.332031 Z M 11.820312 9.15625 L 13 7.976562 L 14.179688 9.15625 C 14.828125 9.804688 14.828125 10.859375 14.179688 11.511719 C 13.527344 12.164062 12.472656 12.164062 11.820312 11.511719 C 11.171875 10.859375 11.171875 9.804688 11.820312 9.15625 Z M 11.820312 9.15625 "/>
</g>
</svg>
