<?xml version="1.0" encoding="UTF-8"?>
<svg xmlns="http://www.w3.org/2000/svg" xmlns:xlink="http://www.w3.org/1999/xlink" width="16" height="16" viewBox="0 0 16 16" version="1.1">
<g id="surface1">
<path style=" stroke:none;fill-rule:nonzero;fill:rgb(0%,0%,0%);fill-opacity:1;" d="M 3.84375 5.332031 L 3.644531 4.847656 C 3.507812 4.503906 3.671875 4.117188 4.015625 3.980469 L 10.195312 1.480469 C 10.539062 1.34375 10.925781 1.507812 11.0625 1.847656 L 14.808594 11.121094 C 14.949219 11.460938 14.78125 11.851562 14.441406 11.988281 L 8.261719 14.488281 C 7.917969 14.625 7.53125 14.460938 7.390625 14.117188 L 7.332031 13.972656 L 7.332031 14 L 4.667969 14 C 4.296875 14 4 13.703125 4 13.332031 L 4 13.152344 L 1.765625 12.25 C 1.425781 12.113281 1.261719 11.726562 1.398438 11.382812 Z M 5.332031 12.667969 L 6.804688 12.667969 L 5.332031 9.023438 Z M 4 8.503906 L 2.882812 11.265625 L 4 11.738281 Z M 5.132812 4.964844 L 8.378906 13 L 13.324219 11.003906 L 10.078125 2.96875 Z M 7.117188 6.320312 C 6.777344 6.457031 6.386719 6.292969 6.25 5.953125 C 6.113281 5.609375 6.277344 5.222656 6.617188 5.082031 C 6.960938 4.945312 7.347656 5.109375 7.488281 5.453125 C 7.625 5.792969 7.460938 6.183594 7.117188 6.320312 Z M 7.117188 6.320312 "/>
</g>
</svg>
