<?xml version="1.0" encoding="UTF-8"?>
<svg xmlns="http://www.w3.org/2000/svg" xmlns:xlink="http://www.w3.org/1999/xlink" width="16" height="16" viewBox="0 0 16 16" version="1.1">
<g id="surface1">
<path style=" stroke:none;fill-rule:nonzero;fill:rgb(0%,0%,0%);fill-opacity:1;" d="M 3.285156 14.324219 L 7.183594 10.425781 C 7.765625 10.582031 8.382812 10.328125 8.683594 9.804688 C 8.984375 9.28125 8.898438 8.621094 8.472656 8.195312 C 8.042969 7.769531 7.382812 7.683594 6.863281 7.984375 C 6.339844 8.285156 6.085938 8.902344 6.242188 9.484375 L 2.34375 13.378906 L 1.636719 12.675781 C 3.519531 10.472656 4.230469 8.039062 5.171875 3.953125 L 9.414062 3.480469 L 13.183594 7.253906 L 12.714844 11.496094 C 8.628906 12.4375 6.191406 13.144531 3.992188 15.03125 Z M 11.0625 1.359375 L 15.296875 5.589844 C 15.382812 5.679688 15.414062 5.8125 15.375 5.929688 C 15.335938 6.050781 15.234375 6.136719 15.109375 6.15625 L 14.128906 6.308594 L 10.355469 2.539062 L 10.5 1.546875 C 10.515625 1.421875 10.601562 1.320312 10.722656 1.28125 C 10.84375 1.238281 10.976562 1.269531 11.0625 1.359375 Z M 11.0625 1.359375 "/>
</g>
</svg>
