<?xml version="1.0" encoding="UTF-8"?>
<svg xmlns="http://www.w3.org/2000/svg" xmlns:xlink="http://www.w3.org/1999/xlink" width="16" height="16" viewBox="0 0 16 16" version="1.1">
<g id="surface1">
<path style=" stroke:none;fill-rule:nonzero;fill:rgb(0%,0%,0%);fill-opacity:1;" d="M 3.332031 5.332031 L 3.332031 13.332031 L 6 13.332031 L 6 5.332031 Z M 2 4.667969 L 4.667969 1.332031 L 7.332031 4.667969 L 7.332031 14.667969 L 2 14.667969 Z M 12.667969 10.667969 L 12.667969 9.332031 L 10.667969 9.332031 L 10.667969 8 L 12.667969 8 L 12.667969 6.667969 L 11.332031 6.667969 L 11.332031 5.332031 L 12.667969 5.332031 L 12.667969 4 L 10 4 L 10 13.332031 L 12.667969 13.332031 L 12.667969 12 L 11.332031 12 L 11.332031 10.667969 Z M 9.332031 2.667969 L 13.332031 2.667969 C 13.703125 2.667969 14 2.964844 14 3.332031 L 14 14 C 14 14.367188 13.703125 14.667969 13.332031 14.667969 L 9.332031 14.667969 C 8.964844 14.667969 8.667969 14.367188 8.667969 14 L 8.667969 3.332031 C 8.667969 2.964844 8.964844 2.667969 9.332031 2.667969 Z M 9.332031 2.667969 "/>
</g>
</svg>
