<?xml version="1.0" encoding="UTF-8"?>
<svg xmlns="http://www.w3.org/2000/svg" xmlns:xlink="http://www.w3.org/1999/xlink" width="16" height="16" viewBox="0 0 16 16" version="1.1">
<g id="surface1">
<path style=" stroke:none;fill-rule:nonzero;fill:rgb(0%,0%,0%);fill-opacity:1;" d="M 11.667969 14 C 10.378906 14 9.332031 12.957031 9.332031 11.667969 C 9.332031 10.378906 10.378906 9.332031 11.667969 9.332031 C 12.957031 9.332031 14 10.378906 14 11.667969 C 14 12.957031 12.957031 14 11.667969 14 Z M 11.667969 12.667969 C 12.21875 12.667969 12.667969 12.21875 12.667969 11.667969 C 12.667969 11.113281 12.21875 10.667969 11.667969 10.667969 C 11.113281 10.667969 10.667969 11.113281 10.667969 11.667969 C 10.667969 12.21875 11.113281 12.667969 11.667969 12.667969 Z M 4.332031 6.667969 C 3.042969 6.667969 2 5.621094 2 4.332031 C 2 3.042969 3.042969 2 4.332031 2 C 5.621094 2 6.667969 3.042969 6.667969 4.332031 C 6.667969 5.621094 5.621094 6.667969 4.332031 6.667969 Z M 4.332031 5.332031 C 4.886719 5.332031 5.332031 4.886719 5.332031 4.332031 C 5.332031 3.78125 4.886719 3.332031 4.332031 3.332031 C 3.78125 3.332031 3.332031 3.78125 3.332031 4.332031 C 3.332031 4.886719 3.78125 5.332031 4.332031 5.332031 Z M 12.714844 2.34375 L 13.65625 3.285156 L 3.285156 13.65625 L 2.34375 12.714844 Z M 12.714844 2.34375 "/>
</g>
</svg>
