<?xml version="1.0" encoding="UTF-8"?>
<svg xmlns="http://www.w3.org/2000/svg" xmlns:xlink="http://www.w3.org/1999/xlink" width="16" height="16" viewBox="0 0 16 16" version="1.1">
<g id="surface1">
<path style=" stroke:none;fill-rule:nonzero;fill:rgb(0%,0%,0%);fill-opacity:1;" d="M 9.867188 2.667969 C 9.628906 3.078125 9.46875 3.53125 9.386719 4 L 2 4 L 2 12 L 14 12 L 14 8.613281 C 14.46875 8.53125 14.921875 8.371094 15.332031 8.132812 L 15.332031 12.667969 C 15.332031 13.035156 15.039062 13.335938 14.664062 13.335938 L 1.335938 13.335938 C 1.15625 13.335938 0.988281 13.265625 0.863281 13.140625 C 0.738281 13.015625 0.667969 12.84375 0.667969 12.667969 L 0.667969 3.332031 C 0.667969 2.964844 0.960938 2.667969 1.335938 2.667969 Z M 13.332031 6 C 14.070312 6 14.667969 5.402344 14.667969 4.667969 C 14.667969 3.929688 14.070312 3.332031 13.332031 3.332031 C 12.597656 3.332031 12 3.929688 12 4.667969 C 12 5.402344 12.597656 6 13.332031 6 Z M 13.332031 7.332031 C 11.859375 7.332031 10.667969 6.140625 10.667969 4.667969 C 10.667969 3.195312 11.859375 2 13.332031 2 C 14.804688 2 16 3.195312 16 4.667969 C 16 6.140625 14.804688 7.332031 13.332031 7.332031 Z M 12 8.667969 L 13.332031 8.667969 L 13.332031 10.667969 L 12 10.667969 Z M 12 8.667969 "/>
</g>
</svg>
