<?xml version="1.0" encoding="UTF-8"?>
<svg xmlns="http://www.w3.org/2000/svg" xmlns:xlink="http://www.w3.org/1999/xlink" width="16" height="16" viewBox="0 0 16 16" version="1.1">
<g id="surface1">
<path style=" stroke:none;fill-rule:nonzero;fill:rgb(0%,0%,0%);fill-opacity:1;" d="M 7.59375 6.925781 L 5 9.519531 L 2.40625 6.925781 C 0.976562 5.496094 0.976562 3.171875 2.40625 1.742188 C 3.839844 0.308594 6.160156 0.308594 7.59375 1.742188 C 9.023438 3.171875 9.023438 5.496094 7.59375 6.925781 Z M 5 5.667969 C 5.738281 5.667969 6.332031 5.070312 6.332031 4.332031 C 6.332031 3.597656 5.738281 3 5 3 C 4.261719 3 3.667969 3.597656 3.667969 4.332031 C 3.667969 5.070312 4.261719 5.667969 5 5.667969 Z M 13.59375 12.925781 L 11 15.519531 L 8.40625 12.925781 C 6.976562 11.492188 6.976562 9.171875 8.40625 7.742188 C 9.839844 6.308594 12.160156 6.308594 13.59375 7.742188 C 15.023438 9.171875 15.023438 11.492188 13.59375 12.925781 Z M 11 11.667969 C 11.738281 11.667969 12.332031 11.070312 12.332031 10.332031 C 12.332031 9.597656 11.738281 9 11 9 C 10.261719 9 9.667969 9.597656 9.667969 10.332031 C 9.667969 11.070312 10.261719 11.667969 11 11.667969 Z M 11 11.667969 "/>
</g>
</svg>
