<?xml version="1.0" encoding="UTF-8"?>
<svg xmlns="http://www.w3.org/2000/svg" xmlns:xlink="http://www.w3.org/1999/xlink" width="16" height="16" viewBox="0 0 16 16" version="1.1">
<g id="surface1">
<path style=" stroke:none;fill-rule:nonzero;fill:rgb(0%,0%,0%);fill-opacity:1;" d="M 7.667969 1.332031 C 11.164062 1.332031 14 4.167969 14 7.667969 C 14 8.652344 13.773438 9.621094 13.332031 10.503906 L 14.972656 12.144531 C 15.234375 12.40625 15.234375 12.828125 14.972656 13.089844 L 13.089844 14.972656 C 12.828125 15.234375 12.40625 15.234375 12.144531 14.972656 L 10.503906 13.332031 C 9.621094 13.773438 8.652344 14 7.667969 14 C 4.167969 14 1.332031 11.164062 1.332031 7.667969 C 1.332031 4.167969 4.167969 1.332031 7.667969 1.332031 Z M 11.203125 10.257812 L 10.257812 11.203125 L 12.617188 13.558594 L 13.558594 12.617188 Z M 12.445312 6.1875 L 6.1875 12.445312 C 6.65625 12.589844 7.152344 12.667969 7.667969 12.667969 C 8.292969 12.667969 8.910156 12.550781 9.492188 12.324219 L 8.84375 11.671875 C 8.585938 11.414062 8.585938 10.992188 8.84375 10.730469 L 10.730469 8.84375 C 10.992188 8.585938 11.414062 8.585938 11.671875 8.84375 L 12.324219 9.492188 C 12.550781 8.910156 12.667969 8.292969 12.667969 7.667969 C 12.667969 7.152344 12.589844 6.65625 12.445312 6.1875 Z M 12.445312 6.1875 "/>
</g>
</svg>
