<?xml version="1.0" encoding="UTF-8"?>
<svg xmlns="http://www.w3.org/2000/svg" xmlns:xlink="http://www.w3.org/1999/xlink" width="16" height="16" viewBox="0 0 16 16" version="1.1">
<g id="surface1">
<path style=" stroke:none;fill-rule:nonzero;fill:rgb(0%,0%,0%);fill-opacity:1;" d="M 1.332031 12 L 8 12 L 8 13.332031 L 1.332031 13.332031 Z M 1.332031 7.332031 L 10.667969 7.332031 L 10.667969 8.667969 L 1.332031 8.667969 Z M 1.332031 2.667969 L 14.667969 2.667969 L 14.667969 4 L 1.332031 4 Z M 12.667969 10.113281 L 12.667969 6 L 16 6 L 16 7.332031 L 14 7.332031 L 14 12 C 14 12.871094 13.433594 13.640625 12.605469 13.90625 C 11.773438 14.167969 10.871094 13.863281 10.367188 13.152344 C 9.863281 12.441406 9.878906 11.488281 10.40625 10.792969 C 10.929688 10.097656 11.84375 9.824219 12.667969 10.113281 Z M 12.667969 10.113281 "/>
</g>
</svg>
