<?xml version="1.0" encoding="UTF-8"?>
<svg xmlns="http://www.w3.org/2000/svg" xmlns:xlink="http://www.w3.org/1999/xlink" width="16" height="16" viewBox="0 0 16 16" version="1.1">
<g id="surface1">
<path style=" stroke:none;fill-rule:nonzero;fill:rgb(0%,0%,0%);fill-opacity:1;" d="M 8.667969 12 L 8.667969 13.332031 L 12.667969 13.332031 L 12.667969 14.667969 L 8.667969 14.667969 C 7.929688 14.667969 7.332031 14.070312 7.332031 13.332031 L 7.332031 12 L 5.332031 12 C 3.859375 12 2.667969 10.804688 2.667969 9.332031 L 2.667969 6.667969 L 13.332031 6.667969 L 13.332031 9.332031 C 13.332031 10.804688 12.140625 12 10.667969 12 Z M 10.667969 4 L 12.667969 4 C 13.035156 4 13.332031 4.296875 13.332031 4.667969 L 13.332031 6 L 2.667969 6 L 2.667969 4.667969 C 2.667969 4.296875 2.964844 4 3.332031 4 L 5.332031 4 L 5.332031 1.332031 L 6.667969 1.332031 L 6.667969 4 L 9.332031 4 L 9.332031 1.332031 L 10.667969 1.332031 Z M 8 9.667969 C 8.367188 9.667969 8.667969 9.367188 8.667969 9 C 8.667969 8.632812 8.367188 8.332031 8 8.332031 C 7.632812 8.332031 7.332031 8.632812 7.332031 9 C 7.332031 9.367188 7.632812 9.667969 8 9.667969 Z M 8 9.667969 "/>
</g>
</svg>
