<?xml version="1.0" encoding="UTF-8"?>
<svg xmlns="http://www.w3.org/2000/svg" xmlns:xlink="http://www.w3.org/1999/xlink" width="16" height="16" viewBox="0 0 16 16" version="1.1">
<g id="surface1">
<path style=" stroke:none;fill-rule:evenodd;fill:rgb(0%,0%,0%);fill-opacity:1;" d="M 15 3 C 15 1.890625 14.109375 1 13 1 L 3 1 C 1.890625 1 1 1.890625 1 3 L 1 13 C 1 14.109375 1.890625 15 3 15 L 13 15 C 14.109375 15 15 14.109375 15 13 Z M 13 3 L 13 5 L 3 5 L 3 3 Z M 10 11 L 10 13 L 3 13 L 3 11 Z M 7 7 L 7 9 L 3 9 L 3 7 Z M 7 7 "/>
</g>
</svg>
