<?xml version="1.0" encoding="UTF-8"?>
<svg xmlns="http://www.w3.org/2000/svg" xmlns:xlink="http://www.w3.org/1999/xlink" width="16" height="16" viewBox="0 0 16 16" version="1.1">
<g id="surface1">
<path style=" stroke:none;fill-rule:nonzero;fill:rgb(0%,0%,0%);fill-opacity:1;" d="M 4.667969 11.332031 L 11.332031 11.332031 L 11.332031 14.667969 L 4.667969 14.667969 Z M 12.667969 13.332031 L 12.667969 10 L 3.332031 10 L 3.332031 13.332031 L 2 13.332031 C 1.632812 13.332031 1.332031 13.035156 1.332031 12.667969 L 1.332031 6 C 1.332031 5.632812 1.632812 5.332031 2 5.332031 L 14 5.332031 C 14.367188 5.332031 14.667969 5.632812 14.667969 6 L 14.667969 12.667969 C 14.667969 13.035156 14.367188 13.332031 14 13.332031 Z M 3.332031 6.667969 L 3.332031 8 L 5.332031 8 L 5.332031 6.667969 Z M 4.667969 1.332031 L 11.332031 1.332031 C 11.703125 1.332031 12 1.632812 12 2 L 12 4 L 4 4 L 4 2 C 4 1.632812 4.296875 1.332031 4.667969 1.332031 Z M 4.667969 1.332031 "/>
</g>
</svg>
