<?xml version="1.0" encoding="UTF-8"?>
<svg xmlns="http://www.w3.org/2000/svg" xmlns:xlink="http://www.w3.org/1999/xlink" width="16" height="16" viewBox="0 0 16 16" version="1.1">
<g id="surface1">
<path style=" stroke:none;fill-rule:nonzero;fill:rgb(0%,0%,0%);fill-opacity:1;" d="M 8 14.667969 C 4.316406 14.667969 1.332031 11.683594 1.332031 8 C 1.332031 4.316406 4.316406 1.332031 8 1.332031 C 11.683594 1.332031 14.667969 4.316406 14.667969 8 C 14.667969 11.683594 11.683594 14.667969 8 14.667969 Z M 8.890625 8 L 7 8 L 7 6 L 8.890625 6 C 9.441406 6 9.890625 6.449219 9.890625 7 C 9.890625 7.550781 9.441406 8 8.890625 8 Z M 8.890625 4.667969 L 5.667969 4.667969 L 5.667969 11.332031 L 7 11.332031 L 7 9.332031 L 8.890625 9.332031 C 10.179688 9.332031 11.222656 8.289062 11.222656 7 C 11.222656 5.710938 10.179688 4.667969 8.890625 4.667969 Z M 8.890625 4.667969 "/>
</g>
</svg>
