<?xml version="1.0" encoding="UTF-8"?>
<svg xmlns="http://www.w3.org/2000/svg" xmlns:xlink="http://www.w3.org/1999/xlink" width="16" height="16" viewBox="0 0 16 16" version="1.1">
<g id="surface1">
<path style=" stroke:none;fill-rule:nonzero;fill:rgb(0%,0%,0%);fill-opacity:1;" d="M 14.667969 12.667969 L 14.667969 14 L 13.332031 14 L 13.332031 12.667969 L 2.667969 12.667969 L 2.667969 14 L 1.332031 14 L 1.332031 12.667969 C 0.964844 12.667969 0.667969 12.367188 0.667969 12 L 0.667969 4 C 0.667969 3.632812 0.964844 3.332031 1.332031 3.332031 L 7.875 3.332031 C 8.691406 2.480469 9.820312 2 11 2 C 12.230469 2 13.339844 2.511719 14.125 3.332031 L 14.667969 3.332031 C 15.035156 3.332031 15.332031 3.632812 15.332031 4 L 15.332031 12 C 15.332031 12.367188 15.035156 12.667969 14.667969 12.667969 Z M 11 9.332031 C 12.65625 9.332031 14 7.988281 14 6.332031 C 14 4.675781 12.65625 3.332031 11 3.332031 C 9.34375 3.332031 8 4.675781 8 6.332031 C 8 7.988281 9.34375 9.332031 11 9.332031 Z M 11 8 C 10.078125 8 9.332031 7.253906 9.332031 6.332031 C 9.332031 5.414062 10.078125 4.667969 11 4.667969 C 11.921875 4.667969 12.667969 5.414062 12.667969 6.332031 C 12.667969 7.253906 11.921875 8 11 8 Z M 2.667969 8.667969 L 2.667969 10 L 4 10 L 4 8.667969 Z M 5.332031 8.667969 L 5.332031 10 L 6.667969 10 L 6.667969 8.667969 Z M 5.332031 8.667969 "/>
</g>
</svg>
