<?xml version="1.0" encoding="UTF-8"?>
<svg xmlns="http://www.w3.org/2000/svg" xmlns:xlink="http://www.w3.org/1999/xlink" width="16" height="16" viewBox="0 0 16 16" version="1.1">
<g id="surface1">
<path style=" stroke:none;fill-rule:evenodd;fill:rgb(0%,0%,0%);fill-opacity:0.996078;" d="M 7.90625 1 C 4.078125 1.050781 1 4.171875 1 8 C 1 11.867188 4.132812 15 8 15 C 11.867188 15 15 11.867188 15 8 C 15 6.960938 14.769531 5.9375 14.324219 5 L 16 5 L 16 1 L 8 1 C 7.96875 1 7.9375 1 7.90625 1 Z M 7.949219 6 C 7.949219 6 7.953125 6 7.953125 6 C 7.96875 6 7.984375 6 8 6 C 9.105469 6 10 6.894531 10 8 C 10 9.105469 9.105469 10 8 10 C 6.894531 10 6 9.105469 6 8 C 6 6.914062 6.867188 6.027344 7.949219 6 Z M 7.949219 6 "/>
</g>
</svg>
