<?xml version="1.0" encoding="UTF-8"?>
<svg xmlns="http://www.w3.org/2000/svg" xmlns:xlink="http://www.w3.org/1999/xlink" width="16" height="16" viewBox="0 0 16 16" version="1.1">
<g id="surface1">
<path style=" stroke:none;fill-rule:nonzero;fill:rgb(0%,0%,0%);fill-opacity:1;" d="M 9.003906 11.769531 C 9.003906 12.320312 8.554688 12.769531 8.003906 12.769531 C 7.453125 12.769531 7.003906 12.320312 7.003906 11.769531 C 7.003906 11.21875 7.453125 10.769531 8.003906 10.769531 C 8.554688 10.769531 9.003906 11.21875 9.003906 11.769531 "/>
<path style=" stroke:none;fill-rule:nonzero;fill:rgb(0%,0%,0%);fill-opacity:1;" d="M 8.738281 9.59375 L 7.269531 9.59375 C 7.265625 9.382812 7.265625 9.253906 7.265625 9.210938 C 7.265625 8.734375 7.34375 8.339844 7.5 8.03125 C 7.65625 7.726562 7.972656 7.378906 8.445312 6.996094 C 8.917969 6.609375 9.203125 6.359375 9.292969 6.242188 C 9.4375 6.054688 9.507812 5.84375 9.507812 5.617188 C 9.507812 5.304688 9.378906 5.03125 9.125 4.8125 C 8.875 4.585938 8.539062 4.46875 8.109375 4.46875 C 7.699219 4.46875 7.355469 4.585938 7.078125 4.820312 C 6.804688 5.054688 6.8125 5.65625 6.457031 5.820312 C 6.117188 5.980469 5.464844 6.023438 5.339844 5.667969 C 5.167969 5.179688 5.355469 4.4375 5.898438 3.960938 C 6.445312 3.476562 7.15625 3.238281 8.039062 3.238281 C 8.96875 3.238281 9.710938 3.484375 10.257812 3.96875 C 10.8125 4.453125 11.085938 5.019531 11.085938 5.664062 C 11.085938 6.023438 10.984375 6.359375 10.78125 6.679688 C 10.578125 7 10.148438 7.429688 9.488281 7.980469 C 9.148438 8.265625 8.933594 8.492188 8.851562 8.664062 C 8.765625 8.839844 8.734375 9.148438 8.738281 9.59375 Z M 8.738281 9.59375 "/>
<path style=" stroke:none;fill-rule:nonzero;fill:rgb(0%,0%,0%);fill-opacity:1;" d="M 8.101562 0.00390625 C 4.617188 -0.0898438 1.316406 2.328125 0.351562 5.679688 C 0.351562 5.679688 0.351562 5.6875 0.351562 5.6875 C -0.714844 9.027344 0.703125 12.882812 3.679688 14.730469 C 6.59375 16.664062 10.679688 16.359375 13.277344 14.015625 C 15.945312 11.742188 16.773438 7.714844 15.226562 4.570312 C 13.960938 1.847656 11.121094 0.0234375 8.117188 0.00390625 Z M 8.085938 1 C 8.09375 1 8.097656 1 8.101562 1 C 10.710938 1.007812 13.230469 2.632812 14.328125 5 C 14.328125 5.003906 14.328125 5.007812 14.332031 5.007812 C 15.671875 7.71875 14.925781 11.304688 12.621094 13.261719 C 12.617188 13.265625 12.617188 13.273438 12.613281 13.273438 C 10.378906 15.296875 6.742188 15.5625 4.234375 13.898438 C 4.226562 13.894531 4.226562 13.890625 4.21875 13.890625 C 1.648438 12.296875 0.382812 8.859375 1.304688 5.984375 C 1.304688 5.976562 1.308594 5.972656 1.3125 5.96875 C 2.140625 3.070312 5.078125 0.914062 8.085938 1 Z M 8.085938 1 "/>
</g>
</svg>
