<?xml version="1.0" encoding="UTF-8"?>
<svg xmlns="http://www.w3.org/2000/svg" xmlns:xlink="http://www.w3.org/1999/xlink" width="16" height="16" viewBox="0 0 16 16" version="1.1">
<g id="surface1">
<path style=" stroke:none;fill-rule:evenodd;fill:rgb(0%,0%,0%);fill-opacity:1;" d="M 7.789062 -0.00390625 C 6.863281 0.0195312 5.9375 0.203125 5.066406 0.570312 C 1.519531 1.898438 -0.648438 5.882812 0.164062 9.582031 C 0.835938 13.25 4.28125 16.070312 8.011719 16.003906 C 9.976562 16.007812 11.910156 15.265625 13.363281 13.945312 L 13.371094 13.9375 C 16.21875 11.453125 16.851562 6.964844 14.804688 3.789062 L 14.796875 3.78125 C 13.828125 2.15625 12.269531 0.984375 10.515625 0.40625 C 9.636719 0.117188 8.710938 -0.0234375 7.789062 -0.00390625 Z M 7.800781 1.007812 C 8.609375 0.992188 9.425781 1.117188 10.195312 1.375 C 11.074219 1.664062 11.890625 2.117188 12.589844 2.710938 L 9.023438 6.28125 C 8.714844 6.097656 8.367188 6 8.007812 6 C 6.902344 6 6.007812 6.898438 6.007812 8 C 6.007812 9.105469 6.902344 10 8.007812 10 C 9.109375 10 10.007812 9.105469 10.007812 8 C 10.007812 7.644531 9.910156 7.296875 9.726562 6.988281 L 13.300781 3.414062 C 13.539062 3.6875 13.757812 3.980469 13.945312 4.296875 C 13.949219 4.304688 13.953125 4.3125 13.953125 4.320312 C 15.726562 7.054688 15.164062 11.054688 12.707031 13.191406 C 12.703125 13.195312 12.703125 13.195312 12.699219 13.199219 C 11.433594 14.351562 9.714844 15.007812 8.003906 15 C 8 15 8 15 7.996094 15 C 4.78125 15.058594 1.71875 12.554688 1.148438 9.390625 C 1.144531 9.382812 1.140625 9.375 1.140625 9.367188 C 0.4375 6.1875 2.367188 2.640625 5.421875 1.5 C 5.425781 1.496094 5.429688 1.492188 5.4375 1.492188 C 6.1875 1.175781 6.992188 1.019531 7.800781 1.007812 Z M 5.007812 4 C 4.453125 4 4.007812 4.449219 4.007812 5 C 4.007812 5.554688 4.453125 6 5.007812 6 C 5.558594 6 6.007812 5.554688 6.007812 5 C 6.007812 4.449219 5.558594 4 5.007812 4 Z M 12.921875 4.5625 L 12.1875 5.289062 C 12.296875 5.453125 12.40625 5.617188 12.492188 5.796875 C 12.496094 5.796875 12.5 5.804688 12.5 5.808594 C 13.59375 7.929688 12.820312 10.839844 10.816406 12.136719 C 10.8125 12.140625 10.8125 12.140625 10.808594 12.140625 C 9.992188 12.695312 8.992188 13 8.003906 13 C 8 13 8 13 7.996094 13 C 5.710938 13.042969 3.535156 11.242188 3.117188 9 L 2.09375 9 C 2.09375 9.015625 2.09375 9.027344 2.097656 9.042969 C 2.097656 9.046875 2.097656 9.046875 2.097656 9.050781 C 2.546875 11.867188 5.164062 14.054688 8.011719 14.003906 C 8.015625 14.003906 8.015625 14.003906 8.019531 14.003906 C 9.210938 14 10.386719 13.640625 11.367188 12.96875 C 13.824219 11.375 14.726562 7.972656 13.390625 5.367188 C 13.257812 5.082031 13.101562 4.816406 12.921875 4.5625 Z M 11.457031 6.007812 L 10.703125 6.75 C 11.003906 7.378906 11.113281 8.09375 10.914062 8.761719 C 10.910156 8.769531 10.90625 8.777344 10.90625 8.785156 C 10.585938 10.046875 9.3125 11.015625 8.011719 11 C 8.007812 11 8 11 7.996094 11 C 6.769531 11.03125 5.625 10.136719 5.1875 9 L 4.152344 9 C 4.597656 10.703125 6.179688 12.046875 8.011719 11.996094 C 9.796875 12.015625 11.421875 10.761719 11.867188 9.035156 C 12.171875 7.992188 11.976562 6.902344 11.457031 6.007812 Z M 11.457031 6.007812 "/>
</g>
</svg>
