<?xml version="1.0" encoding="UTF-8"?>
<svg xmlns="http://www.w3.org/2000/svg" xmlns:xlink="http://www.w3.org/1999/xlink" width="16" height="16" viewBox="0 0 16 16" version="1.1">
<g id="surface1">
<path style=" stroke:none;fill-rule:nonzero;fill:rgb(0%,0%,0%);fill-opacity:1;" d="M 8.335938 2.414062 L 7.65625 3.597656 C 5.714844 3.011719 3.980469 3.296875 3.382812 4.332031 C 2.597656 5.691406 3.90625 8.101562 6.5 9.597656 C 9.09375 11.09375 11.832031 11.027344 12.617188 9.667969 C 13.21875 8.628906 12.597656 6.984375 11.121094 5.597656 L 11.800781 4.414062 C 13.855469 6.222656 14.777344 8.59375 13.773438 10.332031 C 12.535156 12.480469 8.980469 12.570312 5.832031 10.753906 C 2.6875 8.933594 0.988281 5.8125 2.226562 3.667969 C 3.230469 1.929688 5.746094 1.539062 8.335938 2.414062 Z M 10.589844 1.183594 L 11.742188 1.847656 L 8.410156 7.621094 L 7.257812 6.957031 Z M 4.488281 13.332031 L 11.332031 13.332031 L 11.332031 14.667969 L 3.34375 14.667969 C 3.101562 14.671875 2.875 14.542969 2.757812 14.332031 C 2.636719 14.125 2.636719 13.875 2.757812 13.667969 L 4.257812 11.070312 L 5.410156 11.734375 Z M 4.488281 13.332031 "/>
</g>
</svg>
