<?xml version="1.0" encoding="UTF-8"?>
<svg xmlns="http://www.w3.org/2000/svg" xmlns:xlink="http://www.w3.org/1999/xlink" width="16" height="16" viewBox="0 0 16 16" version="1.1">
<g id="surface1">
<path style=" stroke:none;fill-rule:nonzero;fill:rgb(0%,0%,0%);fill-opacity:1;" d="M 9.578125 2.933594 L 7.257812 6.957031 L 8.410156 7.621094 L 10.734375 3.597656 C 13.511719 5.445312 14.9375 8.320312 13.773438 10.332031 C 12.535156 12.480469 8.980469 12.570312 5.832031 10.753906 C 2.6875 8.933594 0.988281 5.8125 2.226562 3.667969 C 3.390625 1.652344 6.589844 1.449219 9.578125 2.933594 Z M 10.589844 1.183594 L 11.742188 1.847656 L 10.742188 3.582031 L 9.589844 2.914062 Z M 4.488281 13.332031 L 11.332031 13.332031 L 11.332031 14.667969 L 3.34375 14.667969 C 3.101562 14.671875 2.875 14.542969 2.757812 14.332031 C 2.636719 14.125 2.636719 13.875 2.757812 13.667969 L 4.257812 11.070312 L 5.410156 11.734375 Z M 4.488281 13.332031 "/>
</g>
</svg>
