<?xml version="1.0" encoding="UTF-8"?>
<svg xmlns="http://www.w3.org/2000/svg" xmlns:xlink="http://www.w3.org/1999/xlink" width="16" height="16" viewBox="0 0 16 16" version="1.1">
<g id="surface1">
<path style=" stroke:none;fill-rule:nonzero;fill:rgb(0%,0%,0%);fill-opacity:1;" d="M 8 2.667969 C 12.050781 2.667969 15.332031 5.949219 15.332031 10 L 15.332031 13.332031 L 14 13.332031 L 14 10 C 14 6.753906 11.421875 4.097656 8.175781 4.003906 L 8 4 C 4.753906 4 2.097656 6.578125 2.003906 9.824219 L 2 10 L 2 13.332031 L 0.667969 13.332031 L 0.667969 10 C 0.667969 5.949219 3.949219 2.667969 8 2.667969 Z M 8 5.332031 C 10.578125 5.332031 12.667969 7.421875 12.667969 10 L 12.667969 13.332031 L 11.332031 13.332031 L 11.332031 10 C 11.332031 8.214844 9.925781 6.746094 8.144531 6.671875 L 8 6.667969 C 6.214844 6.667969 4.746094 8.074219 4.671875 9.855469 L 4.667969 10 L 4.667969 13.332031 L 3.332031 13.332031 L 3.332031 10 C 3.332031 7.421875 5.421875 5.332031 8 5.332031 Z M 8 8 C 9.105469 8 10 8.894531 10 10 L 10 13.332031 L 8.667969 13.332031 L 8.667969 10 C 8.667969 9.660156 8.414062 9.378906 8.078125 9.339844 L 8 9.332031 C 7.660156 9.332031 7.378906 9.585938 7.339844 9.921875 L 7.332031 10 L 7.332031 13.332031 L 6 13.332031 L 6 10 C 6 8.894531 6.894531 8 8 8 Z M 8 8 "/>
</g>
</svg>
