<?xml version="1.0" encoding="UTF-8"?>
<svg xmlns="http://www.w3.org/2000/svg" xmlns:xlink="http://www.w3.org/1999/xlink" width="16" height="16" viewBox="0 0 16 16" version="1.1">
<g id="surface1">
<path style=" stroke:none;fill-rule:nonzero;fill:rgb(0%,0%,0%);fill-opacity:1;" d="M 8 2.667969 C 12.050781 2.667969 15.332031 5.949219 15.332031 10 L 15.332031 13.332031 L 13.332031 13.332031 L 13.332031 10 C 13.332031 7.121094 11.046875 4.757812 8.167969 4.667969 L 8 4.667969 C 5.121094 4.667969 2.757812 6.953125 2.667969 9.832031 L 2.667969 13.332031 L 0.667969 13.332031 L 0.667969 10 C 0.667969 5.949219 3.949219 2.667969 8 2.667969 Z M 8 5.332031 C 10.578125 5.332031 12.667969 7.421875 12.667969 10 L 12.667969 13.332031 L 10.667969 13.332031 L 10.667969 10 C 10.667969 8.578125 9.550781 7.40625 8.132812 7.335938 L 8 7.332031 C 6.578125 7.332031 5.40625 8.449219 5.335938 9.867188 L 5.332031 10 L 5.332031 13.332031 L 3.332031 13.332031 L 3.332031 10 C 3.332031 7.421875 5.421875 5.332031 8 5.332031 Z M 8 8 C 9.105469 8 10 8.894531 10 10 L 10 13.332031 L 6 13.332031 L 6 10 C 6 8.894531 6.894531 8 8 8 Z M 8 8 "/>
</g>
</svg>
