<?xml version="1.0" encoding="UTF-8"?>
<svg xmlns="http://www.w3.org/2000/svg" xmlns:xlink="http://www.w3.org/1999/xlink" width="16" height="16" viewBox="0 0 16 16" version="1.1">
<g id="surface1">
<path style=" stroke:none;fill-rule:nonzero;fill:rgb(0%,0%,0%);fill-opacity:1;" d="M 8.332031 0.125 C 8.179688 0.117188 8.03125 0.125 7.882812 0.148438 C 6.6875 0.34375 5.921875 1.34375 5.234375 2.710938 L 3.992188 4.859375 C 3.8125 5.171875 3.8125 5.554688 3.996094 5.859375 C 4.085938 6.007812 4.210938 6.132812 4.359375 6.214844 C 4.828125 6.484375 5.433594 6.324219 5.703125 5.851562 L 6.984375 3.632812 L 7 3.605469 C 7.570312 2.46875 8.109375 2.117188 8.203125 2.101562 C 8.246094 2.09375 8.261719 2.082031 8.410156 2.1875 C 8.558594 2.296875 8.792969 2.546875 9.039062 2.96875 L 9.617188 3.976562 L 8.46875 4.636719 L 12.203125 6.484375 L 12.476562 2.328125 L 11.328125 2.988281 L 10.746094 1.984375 C 10.414062 1.40625 10.046875 0.933594 9.578125 0.589844 C 9.222656 0.332031 8.78125 0.15625 8.332031 0.125 Z M 3.804688 6.597656 L 0.0664062 8.445312 L 1.21875 9.109375 L 0.636719 10.113281 C 0.304688 10.691406 0.078125 11.242188 0.015625 11.824219 C -0.046875 12.40625 0.09375 13.042969 0.476562 13.511719 C 1.246094 14.445312 2.492188 14.613281 4.023438 14.523438 L 6.503906 14.523438 C 6.859375 14.523438 7.191406 14.332031 7.367188 14.019531 C 7.453125 13.871094 7.492188 13.703125 7.492188 13.53125 C 7.492188 12.984375 7.046875 12.546875 6.503906 12.546875 L 3.914062 12.546875 C 2.644531 12.625 2.070312 12.328125 2.007812 12.257812 C 1.980469 12.222656 1.960938 12.21875 1.980469 12.03125 C 2 11.851562 2.101562 11.523438 2.34375 11.101562 L 2.921875 10.09375 L 4.070312 10.757812 Z M 12.839844 6.765625 C 12.667969 6.765625 12.5 6.8125 12.351562 6.898438 C 11.882812 7.171875 11.722656 7.777344 11.992188 8.25 L 13.273438 10.46875 L 13.289062 10.492188 C 13.992188 11.554688 14.023438 12.199219 13.992188 12.285156 C 13.976562 12.328125 13.980469 12.347656 13.8125 12.421875 C 13.644531 12.496094 13.3125 12.574219 12.820312 12.574219 L 11.664062 12.574219 L 11.664062 11.25 L 8.195312 13.5625 L 11.664062 15.875 L 11.664062 14.546875 L 12.820312 14.546875 C 13.492188 14.546875 14.082031 14.46875 14.617188 14.230469 C 15.148438 13.992188 15.632812 13.550781 15.84375 12.984375 C 16.269531 11.851562 15.789062 10.6875 14.945312 9.40625 L 13.710938 7.257812 C 13.53125 6.945312 13.195312 6.757812 12.839844 6.765625 Z M 12.839844 6.765625 "/>
</g>
</svg>
