<?xml version="1.0" encoding="UTF-8"?>
<svg xmlns="http://www.w3.org/2000/svg" xmlns:xlink="http://www.w3.org/1999/xlink" width="16" height="16" viewBox="0 0 16 16" version="1.1">
<g id="surface1">
<path style=" stroke:none;fill-rule:nonzero;fill:rgb(0%,0%,0%);fill-opacity:1;" d="M 8 14.667969 C 4.316406 14.667969 1.332031 11.683594 1.332031 8 C 1.332031 4.316406 4.316406 1.332031 8 1.332031 C 11.683594 1.332031 14.667969 4.316406 14.667969 8 C 14.667969 11.683594 11.683594 14.667969 8 14.667969 Z M 12.445312 8 C 12.433594 7.617188 12.195312 7.277344 11.839844 7.132812 C 11.484375 6.988281 11.078125 7.066406 10.800781 7.332031 C 10.042969 6.816406 9.148438 6.53125 8.234375 6.511719 L 8.667969 4.433594 L 10.09375 4.734375 C 10.128906 5.058594 10.394531 5.3125 10.722656 5.328125 C 11.050781 5.34375 11.339844 5.121094 11.40625 4.800781 C 11.476562 4.480469 11.300781 4.15625 10.996094 4.039062 C 10.691406 3.921875 10.34375 4.042969 10.179688 4.328125 L 8.546875 4 C 8.492188 3.988281 8.4375 4 8.390625 4.027344 C 8.34375 4.058594 8.3125 4.105469 8.300781 4.160156 L 7.808594 6.472656 C 6.878906 6.488281 5.976562 6.773438 5.207031 7.292969 C 4.925781 7.027344 4.515625 6.957031 4.160156 7.105469 C 3.804688 7.257812 3.574219 7.601562 3.566406 7.988281 C 3.5625 8.371094 3.78125 8.726562 4.132812 8.886719 C 4.125 8.984375 4.125 9.082031 4.132812 9.179688 C 4.132812 10.671875 5.875 11.886719 8.019531 11.886719 C 10.167969 11.886719 11.90625 10.671875 11.90625 9.179688 C 11.914062 9.082031 11.914062 8.984375 11.90625 8.886719 C 12.242188 8.71875 12.453125 8.375 12.445312 8 Z M 5.78125 8.667969 C 5.78125 8.296875 6.078125 8 6.445312 8 C 6.816406 8 7.113281 8.296875 7.113281 8.667969 C 7.113281 9.035156 6.816406 9.332031 6.445312 9.332031 C 6.078125 9.332031 5.78125 9.035156 5.78125 8.667969 Z M 9.652344 10.5 C 9.179688 10.855469 8.597656 11.039062 8.007812 11.011719 C 7.414062 11.039062 6.832031 10.855469 6.359375 10.5 C 6.300781 10.429688 6.304688 10.324219 6.371094 10.257812 C 6.4375 10.191406 6.542969 10.1875 6.613281 10.246094 C 7.015625 10.539062 7.503906 10.6875 8 10.667969 C 8.496094 10.695312 8.988281 10.550781 9.394531 10.261719 C 9.441406 10.207031 9.511719 10.1875 9.578125 10.203125 C 9.648438 10.222656 9.699219 10.273438 9.714844 10.34375 C 9.730469 10.410156 9.707031 10.480469 9.652344 10.527344 Z M 9.535156 9.359375 C 9.164062 9.359375 8.867188 9.0625 8.867188 8.691406 C 8.867188 8.324219 9.164062 8.027344 9.535156 8.027344 C 9.902344 8.027344 10.199219 8.324219 10.199219 8.691406 C 10.207031 8.875 10.140625 9.054688 10.011719 9.183594 C 9.886719 9.316406 9.710938 9.386719 9.527344 9.386719 Z M 9.535156 9.359375 "/>
</g>
</svg>
