<?xml version="1.0" encoding="UTF-8"?>
<svg xmlns="http://www.w3.org/2000/svg" xmlns:xlink="http://www.w3.org/1999/xlink" width="16" height="16" viewBox="0 0 16 16" version="1.1">
<g id="surface1">
<path style=" stroke:none;fill-rule:nonzero;fill:rgb(0%,0%,0%);fill-opacity:1;" d="M 12.359375 13.042969 C 11.148438 14.09375 9.601562 14.667969 8 14.667969 C 4.316406 14.667969 1.332031 11.683594 1.332031 8 C 1.332031 4.316406 4.316406 1.332031 8 1.332031 C 11.683594 1.332031 14.667969 4.316406 14.667969 8 C 14.667969 9.425781 14.21875 10.742188 13.460938 11.828125 L 11.332031 8 L 13.332031 8 C 13.332031 5.464844 11.550781 3.28125 9.066406 2.773438 C 6.585938 2.269531 4.085938 3.578125 3.09375 5.910156 C 2.101562 8.242188 2.882812 10.949219 4.96875 12.390625 C 7.054688 13.828125 9.863281 13.601562 11.691406 11.847656 Z M 12.359375 13.042969 "/>
</g>
</svg>
