<?xml version="1.0" encoding="UTF-8"?>
<svg xmlns="http://www.w3.org/2000/svg" xmlns:xlink="http://www.w3.org/1999/xlink" width="16" height="16" viewBox="0 0 16 16" version="1.1">
<g id="surface1">
<path style=" stroke:none;fill-rule:nonzero;fill:rgb(0%,0%,0%);fill-opacity:1;" d="M 7.332031 4 L 7.332031 5.332031 C 5.125 5.332031 3.332031 7.125 3.332031 9.332031 C 3.332031 11.542969 5.125 13.332031 7.332031 13.332031 C 9.492188 13.332031 11.253906 11.621094 11.332031 9.484375 L 11.332031 9.332031 L 12.667969 9.332031 C 12.667969 12.277344 10.277344 14.667969 7.332031 14.667969 C 4.386719 14.667969 2 12.277344 2 9.332031 C 2 6.441406 4.386719 4 7.332031 4 Z M 14 1.332031 L 14 2.667969 L 10.449219 6.667969 L 14 6.667969 L 14 8 L 8.667969 8 L 8.667969 6.667969 L 12.21875 2.667969 L 8.667969 2.667969 L 8.667969 1.332031 Z M 14 1.332031 "/>
</g>
</svg>
