<?xml version="1.0" encoding="UTF-8"?>
<svg xmlns="http://www.w3.org/2000/svg" xmlns:xlink="http://www.w3.org/1999/xlink" width="16" height="16" viewBox="0 0 16 16" version="1.1">
<g id="surface1">
<path style=" stroke:none;fill-rule:nonzero;fill:rgb(0%,0%,0%);fill-opacity:1;" d="M 8 7.113281 L 14.148438 3.011719 C 14.25 2.945312 14.382812 2.9375 14.492188 2.996094 C 14.597656 3.054688 14.667969 3.167969 14.667969 3.289062 L 14.667969 12.710938 C 14.667969 12.832031 14.597656 12.945312 14.492188 13.003906 C 14.382812 13.0625 14.25 13.054688 14.148438 12.988281 L 8 8.886719 L 8 12.710938 C 8 12.832031 7.933594 12.945312 7.824219 13.003906 C 7.714844 13.0625 7.585938 13.054688 7.480469 12.988281 L 0.414062 8.277344 C 0.324219 8.214844 0.269531 8.113281 0.269531 8 C 0.269531 7.886719 0.324219 7.785156 0.414062 7.722656 L 7.480469 3.011719 C 7.585938 2.945312 7.714844 2.9375 7.824219 2.996094 C 7.933594 3.054688 8 3.167969 8 3.289062 Z M 8 7.113281 "/>
</g>
</svg>
