<?xml version="1.0" encoding="UTF-8"?>
<svg xmlns="http://www.w3.org/2000/svg" xmlns:xlink="http://www.w3.org/1999/xlink" width="16" height="16" viewBox="0 0 16 16" version="1.1">
<g id="surface1">
<path style=" stroke:none;fill-rule:nonzero;fill:rgb(0%,0%,0%);fill-opacity:1;" d="M 2.667969 4.09375 L 2.667969 12.644531 L 6.042969 11.199219 L 10.042969 13.199219 L 13.332031 11.785156 L 13.332031 3.238281 L 14.203125 2.867188 C 14.304688 2.820312 14.421875 2.832031 14.515625 2.894531 C 14.609375 2.957031 14.667969 3.0625 14.667969 3.171875 L 14.667969 12.667969 L 10 14.667969 L 6 12.667969 L 1.796875 14.46875 C 1.695312 14.511719 1.578125 14.5 1.484375 14.4375 C 1.390625 14.378906 1.332031 14.273438 1.332031 14.160156 L 1.332031 4.667969 Z M 10.828125 7.496094 L 8 10.324219 L 5.171875 7.496094 C 3.609375 5.933594 3.609375 3.402344 5.171875 1.839844 C 6.734375 0.277344 9.265625 0.277344 10.828125 1.839844 C 12.390625 3.402344 12.390625 5.933594 10.828125 7.496094 Z M 8 8.4375 L 9.886719 6.550781 C 10.925781 5.511719 10.925781 3.820312 9.886719 2.78125 C 8.84375 1.738281 7.15625 1.738281 6.113281 2.78125 C 5.074219 3.820312 5.074219 5.511719 6.113281 6.550781 Z M 8 8.4375 "/>
</g>
</svg>
