<?xml version="1.0" encoding="UTF-8"?>
<svg xmlns="http://www.w3.org/2000/svg" xmlns:xlink="http://www.w3.org/1999/xlink" width="16" height="16" viewBox="0 0 16 16" version="1.1">
<g id="surface1">
<path style=" stroke:none;fill-rule:evenodd;fill:rgb(0%,0%,0%);fill-opacity:1;" d="M 16 0 C 7 0 4 4 2 10 L 6 14 C 12 12 16 9 16 0 Z M 10.953125 3 C 10.96875 3 10.984375 3 11 3 C 12.105469 3 13 3.894531 13 5 C 13 6.105469 12.105469 7 11 7 C 9.894531 7 9 6.105469 9 5 C 9 3.914062 9.867188 3.027344 10.953125 3 Z M 2.796875 6.132812 L 0 8 L 1.414062 9.414062 C 1.8125 8.25 2.265625 7.152344 2.796875 6.132812 Z M 2.246094 11.304688 C 1.6875 11.488281 1.195312 11.867188 0.882812 12.367188 C 0.53125 12.960938 0.382812 13.640625 0.226562 14.296875 C 0.175781 14.523438 0.128906 14.746094 0.0898438 14.972656 L 2.132812 14.070312 L 2.398438 15.515625 C 3.304688 15.449219 4.25 15.023438 4.746094 14.21875 C 4.800781 14.132812 4.851562 14.046875 4.890625 13.953125 Z M 9.863281 13.203125 C 8.847656 13.738281 7.75 14.1875 6.589844 14.589844 L 8 16 Z M 9.863281 13.203125 "/>
</g>
</svg>
