<?xml version="1.0" encoding="UTF-8"?>
<svg xmlns="http://www.w3.org/2000/svg" xmlns:xlink="http://www.w3.org/1999/xlink" width="16" height="16" viewBox="0 0 16 16" version="1.1">
<g id="surface1">
<path style=" stroke:none;fill-rule:nonzero;fill:rgb(0%,0%,0%);fill-opacity:1;" d="M 10.335938 13.332031 C 9.894531 14.386719 9.054688 15.226562 8 15.667969 C 6.945312 15.226562 6.105469 14.386719 5.664062 13.332031 L 7.171875 13.332031 C 7.390625 13.660156 7.671875 13.941406 8 14.160156 C 8.328125 13.941406 8.609375 13.660156 8.828125 13.332031 Z M 12 9.871094 L 13.332031 11.382812 L 13.332031 12.667969 L 2.667969 12.667969 L 2.667969 11.382812 L 4 9.871094 L 4 6 C 4 3.679688 5.667969 1.703125 8 0.96875 C 10.332031 1.703125 12 3.679688 12 6 Z M 11.511719 11.332031 L 10.667969 10.375 L 10.667969 6 C 10.667969 4.453125 9.621094 3.046875 8 2.386719 C 6.378906 3.046875 5.332031 4.453125 5.332031 6 L 5.332031 10.375 L 4.488281 11.332031 Z M 8 7.332031 C 7.261719 7.332031 6.667969 6.738281 6.667969 6 C 6.667969 5.261719 7.261719 4.667969 8 4.667969 C 8.738281 4.667969 9.332031 5.261719 9.332031 6 C 9.332031 6.738281 8.738281 7.332031 8 7.332031 Z M 8 7.332031 "/>
</g>
</svg>
