<?xml version="1.0" encoding="UTF-8"?>
<svg xmlns="http://www.w3.org/2000/svg" xmlns:xlink="http://www.w3.org/1999/xlink" width="16" height="16" viewBox="0 0 16 16" version="1.1">
<g id="surface1">
<path style=" stroke:none;fill-rule:nonzero;fill:rgb(0%,0%,0%);fill-opacity:1;" d="M 3.332031 8.667969 C 3.332031 5.273438 5.269531 2.375 8 1.210938 C 10.730469 2.375 12.667969 5.273438 12.667969 8.667969 C 12.667969 9.214844 12.617188 9.75 12.519531 10.269531 L 13.8125 11.488281 C 13.921875 11.59375 13.949219 11.757812 13.875 11.890625 L 12.214844 14.941406 C 12.164062 15.035156 12.070312 15.097656 11.96875 15.113281 C 11.863281 15.128906 11.757812 15.09375 11.683594 15.019531 L 10.195312 13.527344 C 10.070312 13.402344 9.902344 13.332031 9.722656 13.332031 L 6.277344 13.332031 C 6.097656 13.332031 5.929688 13.402344 5.804688 13.527344 L 4.316406 15.019531 C 4.242188 15.09375 4.136719 15.128906 4.03125 15.113281 C 3.929688 15.097656 3.835938 15.035156 3.785156 14.941406 L 2.125 11.890625 C 2.050781 11.757812 2.078125 11.59375 2.1875 11.488281 L 3.480469 10.269531 C 3.382812 9.75 3.332031 9.214844 3.332031 8.667969 Z M 4.316406 13.128906 L 4.863281 12.585938 C 5.238281 12.210938 5.746094 12 6.277344 12 L 9.722656 12 C 10.253906 12 10.761719 12.210938 11.136719 12.585938 L 11.683594 13.128906 L 12.335938 11.929688 L 11.605469 11.238281 C 11.273438 10.925781 11.125 10.46875 11.207031 10.023438 C 11.292969 9.582031 11.332031 9.128906 11.332031 8.667969 C 11.332031 6.085938 10.003906 3.800781 8 2.691406 C 5.996094 3.800781 4.667969 6.085938 4.667969 8.667969 C 4.667969 9.128906 4.707031 9.582031 4.792969 10.023438 C 4.875 10.46875 4.726562 10.925781 4.394531 11.238281 L 3.664062 11.929688 Z M 8 8.667969 C 7.261719 8.667969 6.667969 8.070312 6.667969 7.332031 C 6.667969 6.597656 7.261719 6 8 6 C 8.738281 6 9.332031 6.597656 9.332031 7.332031 C 9.332031 8.070312 8.738281 8.667969 8 8.667969 Z M 8 8.667969 "/>
</g>
</svg>
