<?xml version="1.0" encoding="UTF-8"?>
<svg xmlns="http://www.w3.org/2000/svg" xmlns:xlink="http://www.w3.org/1999/xlink" width="16" height="16" viewBox="0 0 16 16" version="1.1">
<g id="surface1">
<path style=" stroke:none;fill-rule:nonzero;fill:rgb(0%,0%,0%);fill-opacity:1;" d="M 14 12.667969 L 14 14 L 12.667969 14 L 12.667969 12.667969 Z M 11.332031 12.667969 L 11.332031 14 L 10 14 L 10 12.667969 Z M 8.667969 12.667969 L 8.667969 14 L 7.332031 14 L 7.332031 12.667969 Z M 6 12.667969 L 6 14 L 4.667969 14 L 4.667969 12.667969 Z M 3.332031 12.667969 L 3.332031 14 L 2 14 L 2 12.667969 Z M 14 10 L 14 11.332031 L 12.667969 11.332031 L 12.667969 10 Z M 3.332031 10 L 3.332031 11.332031 L 2 11.332031 L 2 10 Z M 3.332031 7.332031 L 3.332031 8.667969 L 2 8.667969 L 2 7.332031 Z M 10.667969 2 C 12.457031 2 13.921875 3.414062 13.996094 5.1875 L 14 5.332031 L 14 8.667969 L 12.667969 8.667969 L 12.667969 5.332031 C 12.667969 4.273438 11.828125 3.398438 10.785156 3.335938 L 10.667969 3.332031 L 7.332031 3.332031 L 7.332031 2 Z M 3.332031 4.667969 L 3.332031 6 L 2 6 L 2 4.667969 Z M 3.332031 2 L 3.332031 3.332031 L 2 3.332031 L 2 2 Z M 6 2 L 6 3.332031 L 4.667969 3.332031 L 4.667969 2 Z M 6 2 "/>
</g>
</svg>
