<?xml version="1.0" encoding="UTF-8"?>
<svg xmlns="http://www.w3.org/2000/svg" xmlns:xlink="http://www.w3.org/1999/xlink" width="16" height="16" viewBox="0 0 16 16" version="1.1">
<g id="surface1">
<path style=" stroke:none;fill-rule:nonzero;fill:rgb(0%,0%,0%);fill-opacity:1;" d="M 7.332031 9.332031 L 7.332031 7.332031 L 8.667969 7.332031 L 8.667969 9.332031 L 12 9.332031 C 12.367188 9.332031 12.667969 9.632812 12.667969 10 L 12.667969 14 C 12.667969 14.367188 12.367188 14.667969 12 14.667969 L 4 14.667969 C 3.632812 14.667969 3.332031 14.367188 3.332031 14 L 3.332031 10 C 3.332031 9.632812 3.632812 9.332031 4 9.332031 Z M 1.671875 5.890625 C 2.558594 3.242188 5.054688 1.332031 8 1.332031 C 10.945312 1.332031 13.445312 3.242188 14.328125 5.890625 L 13.0625 6.3125 C 12.335938 4.132812 10.296875 2.664062 8 2.664062 C 5.703125 2.664062 3.664062 4.132812 2.9375 6.3125 L 1.675781 5.890625 Z M 4.203125 6.734375 C 4.75 5.101562 6.277344 4 8 4 C 9.722656 4 11.25 5.101562 11.796875 6.734375 L 10.53125 7.15625 C 10.167969 6.066406 9.148438 5.332031 8 5.332031 C 6.851562 5.332031 5.832031 6.066406 5.46875 7.15625 Z M 4.667969 10.667969 L 4.667969 13.332031 L 11.332031 13.332031 L 11.332031 10.667969 Z M 4.667969 10.667969 "/>
</g>
</svg>
