<?xml version="1.0" encoding="UTF-8"?>
<svg xmlns="http://www.w3.org/2000/svg" xmlns:xlink="http://www.w3.org/1999/xlink" width="16" height="16" viewBox="0 0 16 16" version="1.1">
<g id="surface1">
<path style=" stroke:none;fill-rule:nonzero;fill:rgb(0%,0%,0%);fill-opacity:1;" d="M 6.554688 5.859375 L 5.332031 6.304688 L 5.332031 8.667969 L 4 8.667969 L 4 5.367188 L 4.011719 5.367188 L 7.523438 4.089844 C 7.683594 4.027344 7.863281 3.996094 8.042969 4 C 8.785156 4.019531 9.433594 4.507812 9.660156 5.214844 C 9.785156 5.601562 9.898438 5.867188 10 6.003906 C 10.628906 6.839844 11.617188 7.335938 12.667969 7.332031 L 12.667969 8.667969 C 11.273438 8.667969 9.949219 8.046875 9.066406 6.96875 L 8.679688 9.167969 L 10 10.445312 L 10 15.332031 L 8.667969 15.332031 L 8.667969 11.34375 L 7.300781 10.019531 L 6.667969 12.882812 L 2.074219 12.074219 L 2.304688 10.761719 L 5.585938 11.339844 Z M 9 3.667969 C 8.261719 3.667969 7.667969 3.070312 7.667969 2.332031 C 7.667969 1.597656 8.261719 1 9 1 C 9.738281 1 10.332031 1.597656 10.332031 2.332031 C 10.332031 3.070312 9.738281 3.667969 9 3.667969 Z M 9 3.667969 "/>
</g>
</svg>
