<?xml version="1.0" encoding="UTF-8"?>
<svg xmlns="http://www.w3.org/2000/svg" xmlns:xlink="http://www.w3.org/1999/xlink" width="16" height="16" viewBox="0 0 16 16" version="1.1">
<g id="surface1">
<path style=" stroke:none;fill-rule:nonzero;fill:rgb(0%,0%,0%);fill-opacity:1;" d="M 0.5 1 C 0.222656 1 -0.00390625 1.226562 -0.00390625 1.503906 L -0.00390625 14.496094 C -0.00390625 14.773438 0.222656 15 0.5 15 L 15.5 15 C 15.777344 15 16.003906 14.773438 16 14.496094 L 16 1.503906 C 16.003906 1.226562 15.777344 1 15.5 1 Z M 0.992188 2.007812 L 15 2.007812 L 15 14 L 0.992188 14 Z M 0.992188 2.007812 "/>
<path style=" stroke:none;fill-rule:nonzero;fill:rgb(0%,0%,0%);fill-opacity:1;" d="M 2.765625 12.339844 L 2.765625 3.660156 L 3.964844 3.660156 L 3.964844 7.078125 L 6.316406 7.078125 L 6.316406 3.660156 L 7.515625 3.660156 L 7.515625 12.339844 L 6.316406 12.339844 L 6.316406 8.546875 L 3.964844 8.546875 L 3.964844 12.339844 Z M 2.765625 12.339844 "/>
<path style=" stroke:none;fill-rule:nonzero;fill:rgb(0%,0%,0%);fill-opacity:1;" d="M 8.757812 3.660156 L 10.949219 3.660156 C 11.445312 3.660156 11.820312 3.714844 12.078125 3.828125 C 12.429688 3.976562 12.726562 4.242188 12.976562 4.625 C 13.226562 5.007812 13.414062 5.476562 13.542969 6.03125 C 13.671875 6.585938 13.738281 7.269531 13.738281 8.082031 C 13.738281 8.796875 13.679688 9.414062 13.554688 9.929688 C 13.40625 10.5625 13.195312 11.074219 12.921875 11.464844 C 12.710938 11.757812 12.429688 11.992188 12.078125 12.15625 C 11.8125 12.28125 11.457031 12.339844 11.015625 12.339844 L 8.757812 12.339844 Z M 9.953125 5.128906 L 9.953125 10.875 L 10.851562 10.875 C 11.1875 10.875 11.429688 10.851562 11.578125 10.796875 C 11.773438 10.726562 11.933594 10.601562 12.0625 10.433594 C 12.1875 10.265625 12.296875 9.984375 12.375 9.601562 C 12.457031 9.207031 12.5 8.679688 12.5 8.007812 C 12.5 7.335938 12.457031 6.820312 12.375 6.460938 C 12.296875 6.101562 12.179688 5.820312 12.035156 5.617188 C 11.890625 5.417969 11.703125 5.28125 11.480469 5.210938 C 11.3125 5.15625 10.984375 5.128906 10.496094 5.128906 Z M 9.953125 5.128906 "/>
</g>
</svg>
