<?xml version="1.0" encoding="UTF-8"?>
<svg xmlns="http://www.w3.org/2000/svg" xmlns:xlink="http://www.w3.org/1999/xlink" width="16" height="16" viewBox="0 0 16 16" version="1.1">
<g id="surface1">
<path style=" stroke:none;fill-rule:nonzero;fill:rgb(0%,0%,0%);fill-opacity:1;" d="M 2 12 L 14 12 C 14.125 12 14.242188 12.070312 14.296875 12.183594 C 14.355469 12.296875 14.34375 12.433594 14.265625 12.535156 L 12.867188 14.398438 C 12.742188 14.566406 12.542969 14.667969 12.332031 14.667969 L 3.667969 14.667969 C 3.457031 14.667969 3.257812 14.566406 3.132812 14.398438 L 1.734375 12.535156 C 1.65625 12.433594 1.644531 12.296875 1.703125 12.183594 C 1.757812 12.070312 1.875 12 2 12 Z M 10 1.617188 L 10 10 C 10 10.367188 9.703125 10.667969 9.332031 10.667969 L 2.691406 10.667969 C 2.566406 10.667969 2.449219 10.59375 2.394531 10.476562 C 2.339844 10.363281 2.351562 10.226562 2.433594 10.125 L 9.40625 1.410156 C 9.496094 1.296875 9.644531 1.257812 9.777344 1.300781 C 9.910156 1.347656 10 1.476562 10 1.617188 Z M 10 1.617188 "/>
</g>
</svg>
