<?xml version="1.0" encoding="UTF-8"?>
<svg xmlns="http://www.w3.org/2000/svg" xmlns:xlink="http://www.w3.org/1999/xlink" width="16" height="16" viewBox="0 0 16 16" version="1.1">
<g id="surface1">
<path style=" stroke:none;fill-rule:nonzero;fill:rgb(0%,0%,0%);fill-opacity:1;" d="M 2.828125 0.125 C 2.8125 0.125 2.792969 0.125 2.777344 0.125 C 2.664062 0.140625 2.5625 0.195312 2.484375 0.273438 L 0.480469 2.273438 C 0.289062 2.464844 0.289062 2.773438 0.472656 2.96875 L 3.8125 6.480469 L 3.773438 6.519531 C 3.648438 6.644531 3.597656 6.828125 3.640625 7 L 4.636719 10.992188 C 4.679688 11.171875 4.824219 11.316406 5.007812 11.359375 L 9.007812 12.359375 C 9.179688 12.398438 9.359375 12.347656 9.480469 12.226562 L 9.515625 12.1875 L 13.03125 15.570312 C 13.226562 15.757812 13.539062 15.757812 13.734375 15.5625 L 15.726562 13.570312 C 15.820312 13.476562 15.875 13.34375 15.875 13.210938 C 15.875 13.074219 15.820312 12.945312 15.726562 12.851562 L 12.226562 9.484375 L 13.984375 7.726562 C 14.125 7.582031 14.167969 7.363281 14.085938 7.175781 L 12.585938 3.679688 C 12.539062 3.554688 12.441406 3.460938 12.320312 3.410156 L 8.820312 1.914062 C 8.75 1.882812 8.671875 1.867188 8.59375 1.875 C 8.46875 1.882812 8.355469 1.9375 8.269531 2.023438 L 6.519531 3.773438 L 3.195312 0.28125 C 3.101562 0.179688 2.96875 0.121094 2.828125 0.125 Z M 2.828125 0.125 "/>
<path style=" stroke:none;fill-rule:evenodd;fill:rgb(0%,0%,0%);fill-opacity:1;" d="M 6.703125 13.265625 C 6.710938 13.296875 6.710938 13.328125 6.714844 13.355469 C 6.71875 13.488281 6.667969 13.617188 6.578125 13.710938 C 6.484375 13.8125 6.359375 13.867188 6.226562 13.867188 C 5.164062 13.898438 4.140625 13.503906 3.371094 12.773438 C 2.601562 12.042969 2.15625 11.039062 2.128906 9.976562 C 2.125 9.703125 2.335938 9.476562 2.609375 9.464844 C 2.742188 9.460938 2.871094 9.511719 2.96875 9.601562 C 3.0625 9.695312 3.117188 9.820312 3.125 9.953125 C 3.140625 10.75 3.480469 11.5 4.054688 12.046875 C 4.632812 12.59375 5.40625 12.890625 6.203125 12.867188 C 6.445312 12.859375 6.65625 13.03125 6.703125 13.265625 Z M 6.703125 13.265625 "/>
<path style=" stroke:none;fill-rule:evenodd;fill:rgb(0%,0%,0%);fill-opacity:1;" d="M 6.75 15.269531 C 6.753906 15.296875 6.757812 15.328125 6.757812 15.359375 C 6.765625 15.492188 6.710938 15.621094 6.625 15.71875 C 6.53125 15.8125 6.40625 15.867188 6.273438 15.875 C 4.679688 15.914062 3.140625 15.316406 1.992188 14.21875 C 0.835938 13.125 0.164062 11.609375 0.125 10.023438 C 0.125 9.746094 0.339844 9.523438 0.617188 9.515625 C 0.886719 9.515625 1.109375 9.726562 1.117188 10 C 1.152344 11.324219 1.714844 12.578125 2.675781 13.492188 C 3.636719 14.40625 4.921875 14.90625 6.246094 14.871094 C 6.488281 14.867188 6.699219 15.03125 6.75 15.269531 Z M 6.75 15.269531 "/>
</g>
</svg>
