<?xml version="1.0" encoding="UTF-8"?>
<svg xmlns="http://www.w3.org/2000/svg" xmlns:xlink="http://www.w3.org/1999/xlink" width="16" height="16" viewBox="0 0 16 16" version="1.1">
<g id="surface1">
<path style=" stroke:none;fill-rule:nonzero;fill:rgb(0%,0%,0%);fill-opacity:1;" d="M 12 12.667969 L 12.667969 12.667969 L 12.667969 4.550781 L 11.449219 3.332031 L 10.667969 3.332031 L 10.667969 6 L 4.667969 6 L 4.667969 3.332031 L 3.332031 3.332031 L 3.332031 12.667969 L 4 12.667969 L 4 8 L 12 8 Z M 2.667969 2 L 12 2 L 13.804688 3.804688 C 13.929688 3.929688 14 4.097656 14 4.277344 L 14 13.332031 C 14 13.703125 13.703125 14 13.332031 14 L 2.667969 14 C 2.296875 14 2 13.703125 2 13.332031 L 2 2.667969 C 2 2.296875 2.296875 2 2.667969 2 Z M 5.332031 9.332031 L 5.332031 12.667969 L 10.667969 12.667969 L 10.667969 9.332031 Z M 5.332031 9.332031 "/>
</g>
</svg>
