<?xml version="1.0" encoding="UTF-8"?>
<svg xmlns="http://www.w3.org/2000/svg" xmlns:xlink="http://www.w3.org/1999/xlink" width="16" height="16" viewBox="0 0 16 16" version="1.1">
<g id="surface1">
<path style=" stroke:none;fill-rule:nonzero;fill:rgb(0%,0%,0%);fill-opacity:1;" d="M 3.78125 2.839844 L 8.941406 8 L 8 8.941406 L 5.703125 6.644531 C 5.097656 7.671875 5.246094 8.980469 6.070312 9.84375 C 6.894531 10.707031 8.195312 10.914062 9.25 10.355469 C 10.304688 9.796875 10.859375 8.605469 10.605469 7.4375 C 10.355469 6.269531 9.359375 5.414062 8.167969 5.339844 L 6.964844 4.136719 C 8.839844 3.632812 10.808594 4.550781 11.628906 6.3125 C 12.445312 8.078125 11.878906 10.171875 10.285156 11.28125 C 8.6875 12.394531 6.523438 12.195312 5.15625 10.8125 C 3.789062 9.429688 3.613281 7.265625 4.738281 5.683594 L 3.785156 4.730469 C 2.140625 6.851562 2.328125 9.863281 4.222656 11.761719 C 6.117188 13.664062 9.128906 13.859375 11.253906 12.222656 C 13.382812 10.585938 13.960938 7.625 12.605469 5.308594 C 11.253906 2.992188 8.386719 2.039062 5.917969 3.089844 L 4.914062 2.089844 C 5.867188 1.589844 6.925781 1.332031 8 1.332031 C 11.683594 1.332031 14.667969 4.316406 14.667969 8 C 14.667969 11.683594 11.683594 14.667969 8 14.667969 C 4.316406 14.667969 1.332031 11.683594 1.332031 8 C 1.332031 6 2.230469 4.101562 3.78125 2.839844 Z M 3.78125 2.839844 "/>
</g>
</svg>
