<?xml version="1.0" encoding="UTF-8"?>
<svg xmlns="http://www.w3.org/2000/svg" xmlns:xlink="http://www.w3.org/1999/xlink" width="16" height="16" viewBox="0 0 16 16" version="1.1">
<g id="surface1">
<path style=" stroke:none;fill-rule:nonzero;fill:rgb(0%,0%,0%);fill-opacity:1;" d="M 6.296875 5.355469 L 8 7.058594 L 12.484375 2.570312 C 13.007812 2.050781 13.851562 2.050781 14.371094 2.570312 L 6.296875 10.644531 C 6.980469 11.800781 6.695312 13.285156 5.632812 14.109375 C 4.570312 14.929688 3.0625 14.835938 2.113281 13.886719 C 1.164062 12.9375 1.070312 11.429688 1.890625 10.367188 C 2.714844 9.304688 4.199219 9.019531 5.355469 9.703125 L 7.058594 8 L 5.355469 6.296875 C 4.199219 6.980469 2.714844 6.695312 1.890625 5.632812 C 1.070312 4.570312 1.164062 3.0625 2.113281 2.113281 C 3.0625 1.164062 4.570312 1.070312 5.632812 1.890625 C 6.695312 2.714844 6.980469 4.199219 6.296875 5.355469 Z M 9.882812 8.941406 L 14.371094 13.429688 C 13.851562 13.949219 13.007812 13.949219 12.484375 13.429688 L 8.941406 9.882812 Z M 4.941406 11.058594 C 4.609375 10.710938 4.113281 10.570312 3.644531 10.695312 C 3.179688 10.816406 2.816406 11.179688 2.695312 11.644531 C 2.570312 12.113281 2.710938 12.609375 3.058594 12.941406 C 3.582031 13.449219 4.414062 13.441406 4.925781 12.925781 C 5.441406 12.414062 5.449219 11.582031 4.941406 11.058594 Z M 4.941406 4.941406 C 5.289062 4.609375 5.429688 4.113281 5.304688 3.644531 C 5.183594 3.179688 4.820312 2.816406 4.355469 2.695312 C 3.886719 2.570312 3.390625 2.710938 3.058594 3.058594 C 2.550781 3.582031 2.558594 4.414062 3.074219 4.925781 C 3.585938 5.441406 4.417969 5.449219 4.941406 4.941406 Z M 4.941406 4.941406 "/>
</g>
</svg>
