<?xml version="1.0" encoding="UTF-8"?>
<svg xmlns="http://www.w3.org/2000/svg" xmlns:xlink="http://www.w3.org/1999/xlink" width="16" height="16" viewBox="0 0 16 16" version="1.1">
<g id="surface1">
<path style=" stroke:none;fill-rule:nonzero;fill:rgb(0%,0%,0%);fill-opacity:1;" d="M 8 8.941406 L 6.296875 10.644531 C 6.980469 11.800781 6.695312 13.285156 5.632812 14.109375 C 4.570312 14.929688 3.0625 14.835938 2.113281 13.886719 C 1.164062 12.9375 1.070312 11.429688 1.890625 10.367188 C 2.714844 9.304688 4.199219 9.019531 5.355469 9.703125 L 7.058594 8 L 3.042969 3.988281 C 2.792969 3.738281 2.652344 3.398438 2.652344 3.042969 C 2.652344 2.691406 2.792969 2.351562 3.042969 2.101562 L 8 7.058594 L 12.957031 2.101562 C 13.476562 2.621094 13.476562 3.464844 12.957031 3.988281 L 8.941406 8 L 10.644531 9.703125 C 11.800781 9.019531 13.285156 9.304688 14.109375 10.367188 C 14.929688 11.429688 14.835938 12.9375 13.886719 13.886719 C 12.9375 14.835938 11.429688 14.929688 10.367188 14.109375 C 9.304688 13.285156 9.019531 11.800781 9.703125 10.644531 Z M 4 13.332031 C 4.738281 13.332031 5.332031 12.738281 5.332031 12 C 5.332031 11.261719 4.738281 10.667969 4 10.667969 C 3.261719 10.667969 2.667969 11.261719 2.667969 12 C 2.667969 12.738281 3.261719 13.332031 4 13.332031 Z M 12 13.332031 C 12.738281 13.332031 13.332031 12.738281 13.332031 12 C 13.332031 11.261719 12.738281 10.667969 12 10.667969 C 11.261719 10.667969 10.667969 11.261719 10.667969 12 C 10.667969 12.738281 11.261719 13.332031 12 13.332031 Z M 12 13.332031 "/>
</g>
</svg>
