<?xml version="1.0" encoding="UTF-8"?>
<svg xmlns="http://www.w3.org/2000/svg" xmlns:xlink="http://www.w3.org/1999/xlink" width="16" height="16" viewBox="0 0 16 16" version="1.1">
<g id="surface1">
<path style=" stroke:none;fill-rule:nonzero;fill:rgb(0%,0%,0%);fill-opacity:1;" d="M 7.996094 9.605469 L 6.960938 10.640625 C 7.644531 11.792969 7.367188 13.277344 6.304688 14.105469 C 5.246094 14.929688 3.738281 14.839844 2.789062 13.890625 C 1.835938 12.945312 1.734375 11.4375 2.554688 10.375 C 3.375 9.308594 4.855469 9.019531 6.015625 9.699219 L 7.050781 8.660156 L 4.261719 5.871094 L 5.207031 4.929688 L 7.996094 7.71875 L 10.789062 4.925781 L 11.730469 5.867188 L 8.9375 8.660156 L 9.980469 9.703125 C 11.136719 9.019531 12.617188 9.304688 13.441406 10.367188 C 14.261719 11.425781 14.167969 12.933594 13.21875 13.882812 C 12.269531 14.835938 10.761719 14.929688 9.699219 14.105469 C 8.636719 13.285156 8.355469 11.800781 9.035156 10.644531 Z M 4.667969 13.332031 C 5.402344 13.332031 6 12.738281 6 12 C 6 11.261719 5.402344 10.667969 4.667969 10.667969 C 3.929688 10.667969 3.332031 11.261719 3.332031 12 C 3.332031 12.738281 3.929688 13.332031 4.667969 13.332031 Z M 11.332031 13.332031 C 12.070312 13.332031 12.667969 12.738281 12.667969 12 C 12.667969 11.261719 12.070312 10.667969 11.332031 10.667969 C 10.597656 10.667969 10 11.261719 10 12 C 10 12.738281 10.597656 13.332031 11.332031 13.332031 Z M 12.667969 8.667969 L 12.667969 3.332031 L 3.332031 3.332031 L 3.332031 8.667969 L 2 8.667969 L 2 2.667969 C 2 2.296875 2.296875 2 2.667969 2 L 13.332031 2 C 13.703125 2 14 2.296875 14 2.667969 L 14 8.667969 Z M 12.667969 8.667969 "/>
</g>
</svg>
