<?xml version="1.0" encoding="UTF-8"?>
<svg xmlns="http://www.w3.org/2000/svg" xmlns:xlink="http://www.w3.org/1999/xlink" width="16" height="16" viewBox="0 0 16 16" version="1.1">
<g id="surface1">
<path style=" stroke:none;fill-rule:nonzero;fill:rgb(0%,0%,0%);fill-opacity:1;" d="M 7.332031 1.332031 C 10.644531 1.332031 13.332031 4.019531 13.332031 7.332031 C 13.332031 10.644531 10.644531 13.332031 7.332031 13.332031 C 4.019531 13.332031 1.332031 10.644531 1.332031 7.332031 C 1.332031 4.019531 4.019531 1.332031 7.332031 1.332031 Z M 7.332031 12 C 9.910156 12 12 9.910156 12 7.332031 C 12 4.753906 9.910156 2.667969 7.332031 2.667969 C 4.753906 2.667969 2.667969 4.753906 2.667969 7.332031 C 2.667969 9.910156 4.753906 12 7.332031 12 Z M 12.988281 12.046875 L 14.875 13.933594 L 13.933594 14.875 L 12.046875 12.988281 Z M 12.988281 12.046875 "/>
</g>
</svg>
