<?xml version="1.0" encoding="UTF-8"?>
<svg xmlns="http://www.w3.org/2000/svg" xmlns:xlink="http://www.w3.org/1999/xlink" width="16" height="16" viewBox="0 0 16 16" version="1.1">
<g id="surface1">
<path style=" stroke:none;fill-rule:nonzero;fill:rgb(0%,0%,0%);fill-opacity:1;" d="M 2.523438 1.882812 L 8 0.667969 L 13.476562 1.882812 C 13.78125 1.953125 14 2.222656 14 2.535156 L 14 9.191406 C 14 10.53125 13.332031 11.777344 12.21875 12.519531 L 8 15.332031 L 3.78125 12.519531 C 2.667969 11.777344 2 10.53125 2 9.191406 L 2 2.535156 C 2 2.222656 2.21875 1.953125 2.523438 1.882812 Z M 8 9 L 9.960938 10.03125 L 9.585938 7.847656 L 11.171875 6.304688 L 8.980469 5.984375 L 8 4 L 7.019531 5.984375 L 4.828125 6.304688 L 6.414062 7.847656 L 6.042969 10.03125 Z M 8 9 "/>
</g>
</svg>
