<?xml version="1.0" encoding="UTF-8"?>
<svg xmlns="http://www.w3.org/2000/svg" xmlns:xlink="http://www.w3.org/1999/xlink" width="16" height="16" viewBox="0 0 16 16" version="1.1">
<g id="surface1">
<path style=" stroke:none;fill-rule:nonzero;fill:rgb(0%,0%,0%);fill-opacity:1;" d="M 7.996094 0.230469 L 7.996094 0.234375 C 7.980469 0.234375 7.964844 0.234375 7.949219 0.234375 C 7.941406 0.234375 7.933594 0.238281 7.925781 0.238281 C 7.914062 0.242188 7.90625 0.242188 7.890625 0.242188 C 7.890625 0.242188 7.890625 0.242188 7.886719 0.242188 C 7.867188 0.25 7.84375 0.25 7.828125 0.257812 C 7.824219 0.257812 7.820312 0.261719 7.820312 0.261719 C 7.804688 0.269531 7.785156 0.277344 7.765625 0.285156 C 7.75 0.289062 7.734375 0.296875 7.71875 0.3125 C 7.714844 0.3125 7.710938 0.3125 7.710938 0.3125 C 7.710938 0.3125 7.707031 0.3125 7.703125 0.316406 C 7.6875 0.328125 7.671875 0.335938 7.660156 0.347656 C 7.65625 0.351562 7.648438 0.359375 7.640625 0.359375 C 7.628906 0.375 7.617188 0.382812 7.609375 0.390625 C 7.59375 0.40625 7.582031 0.417969 7.570312 0.433594 C 7.558594 0.445312 7.546875 0.460938 7.535156 0.480469 C 7.535156 0.480469 7.53125 0.484375 7.53125 0.484375 C 7.53125 0.484375 7.53125 0.484375 7.53125 0.492188 C 7.53125 0.492188 7.527344 0.492188 7.527344 0.492188 C 6.695312 1.820312 5.828125 2.292969 4.804688 2.4375 C 3.78125 2.585938 2.5625 2.34375 1.238281 2.019531 L 0.59375 1.867188 L 0.550781 2.53125 C 0.289062 6.90625 1.015625 9.835938 2.390625 11.859375 C 3.75 13.871094 5.710938 14.9375 7.75 15.710938 C 7.765625 15.71875 7.78125 15.726562 7.800781 15.734375 C 7.820312 15.742188 7.839844 15.75 7.859375 15.757812 C 7.882812 15.757812 7.902344 15.765625 7.921875 15.765625 C 7.9375 15.769531 7.953125 15.769531 7.96875 15.773438 C 7.984375 15.773438 8 15.773438 8.015625 15.773438 C 8.023438 15.773438 8.03125 15.773438 8.042969 15.773438 C 8.046875 15.773438 8.046875 15.773438 8.046875 15.773438 C 8.0625 15.769531 8.078125 15.765625 8.09375 15.765625 C 8.109375 15.757812 8.125 15.757812 8.136719 15.75 C 8.15625 15.75 8.175781 15.742188 8.195312 15.734375 C 8.195312 15.734375 8.199219 15.734375 8.199219 15.734375 C 8.21875 15.726562 8.238281 15.71875 8.257812 15.703125 C 10.296875 14.929688 12.25 13.863281 13.609375 11.855469 C 14.984375 9.828125 15.710938 6.90625 15.449219 2.523438 L 15.414062 1.859375 L 14.761719 2.015625 C 13.4375 2.335938 12.21875 2.585938 11.195312 2.4375 C 10.171875 2.289062 9.304688 1.816406 8.472656 0.492188 C 8.46875 0.488281 8.46875 0.484375 8.46875 0.484375 C 8.445312 0.449219 8.421875 0.417969 8.390625 0.390625 C 8.390625 0.390625 8.390625 0.386719 8.390625 0.386719 C 8.375 0.375 8.363281 0.359375 8.347656 0.347656 C 8.34375 0.347656 8.34375 0.34375 8.34375 0.34375 C 8.328125 0.335938 8.3125 0.320312 8.296875 0.3125 C 8.257812 0.289062 8.222656 0.273438 8.183594 0.257812 C 8.171875 0.253906 8.15625 0.246094 8.140625 0.242188 C 8.132812 0.242188 8.128906 0.242188 8.125 0.238281 C 8.125 0.238281 8.121094 0.238281 8.121094 0.238281 C 8.117188 0.238281 8.117188 0.238281 8.113281 0.234375 C 8.078125 0.226562 8.039062 0.226562 8 0.226562 C 8 0.226562 8 0.226562 7.996094 0.226562 Z M 7.878906 4.199219 C 8.335938 4.1875 8.792969 4.257812 9.222656 4.398438 C 10.085938 4.695312 10.84375 5.289062 11.296875 6.121094 C 11.625 6.691406 11.796875 7.339844 11.796875 7.996094 C 11.828125 9.851562 10.40625 11.507812 8.5625 11.753906 C 6.703125 12.066406 4.820312 10.855469 4.34375 9.023438 C 3.804688 7.214844 4.777344 5.203125 6.53125 4.503906 C 6.96875 4.3125 7.421875 4.214844 7.878906 4.199219 Z M 7.90625 5.410156 C 7.59375 5.414062 7.289062 5.476562 7.007812 5.601562 L 6.996094 5.601562 L 6.984375 5.609375 C 6.839844 5.667969 6.703125 5.738281 6.578125 5.820312 C 7.515625 6.886719 9.546875 8.738281 10.210938 9.339844 C 10.460938 8.9375 10.609375 8.476562 10.601562 8.015625 L 10.601562 8 C 10.601562 7.554688 10.476562 7.101562 10.253906 6.710938 L 10.25 6.703125 L 10.25 6.695312 C 9.953125 6.15625 9.421875 5.757812 8.828125 5.554688 C 8.53125 5.453125 8.214844 5.40625 7.90625 5.40625 Z M 5.78125 6.695312 C 5.429688 7.304688 5.296875 8.039062 5.492188 8.691406 L 5.5 8.707031 L 5.5 8.71875 C 5.804688 9.914062 7.160156 10.789062 8.375 10.578125 L 8.390625 10.578125 L 8.398438 10.574219 C 8.722656 10.53125 9.03125 10.40625 9.3125 10.234375 Z M 5.78125 6.695312 "/>
</g>
</svg>
