<?xml version="1.0" encoding="UTF-8"?>
<svg xmlns="http://www.w3.org/2000/svg" xmlns:xlink="http://www.w3.org/1999/xlink" width="16" height="16" viewBox="0 0 16 16" version="1.1">
<g id="surface1">
<path style=" stroke:none;fill-rule:nonzero;fill:rgb(0%,0%,0%);fill-opacity:1;" d="M 8 0.667969 C 9.839844 0.667969 11.332031 2.160156 11.332031 4 L 11.332031 5.332031 L 13.332031 5.332031 C 13.703125 5.332031 14 5.632812 14 6 L 14 14 C 14 14.367188 13.703125 14.667969 13.332031 14.667969 L 2.667969 14.667969 C 2.296875 14.667969 2 14.367188 2 14 L 2 6 C 2 5.632812 2.296875 5.332031 2.667969 5.332031 L 4.667969 5.332031 L 4.667969 4 C 4.667969 2.160156 6.160156 0.667969 8 0.667969 Z M 11.332031 7.332031 L 10 7.332031 L 10 8 C 10 8.351562 10.277344 8.644531 10.628906 8.664062 C 10.980469 8.683594 11.285156 8.429688 11.328125 8.078125 L 11.332031 8 Z M 6 7.332031 L 4.667969 7.332031 L 4.667969 8 C 4.667969 8.351562 4.941406 8.644531 5.292969 8.664062 C 5.644531 8.683594 5.953125 8.429688 5.996094 8.078125 L 6 8 Z M 8 2 C 6.941406 2 6.066406 2.824219 6.003906 3.882812 L 6 4 L 6 5.332031 L 10 5.332031 L 10 4 C 10 2.941406 9.175781 2.066406 8.117188 2.003906 Z M 8 2 "/>
</g>
</svg>
