<?xml version="1.0" encoding="UTF-8"?>
<svg xmlns="http://www.w3.org/2000/svg" xmlns:xlink="http://www.w3.org/1999/xlink" width="16" height="16" viewBox="0 0 16 16" version="1.1">
<g id="surface1">
<path style=" stroke:none;fill-rule:nonzero;fill:rgb(0%,0%,0%);fill-opacity:1;" d="M 4.078125 13.390625 C 2.351562 12.136719 1.332031 10.132812 1.332031 8 C 1.332031 4.316406 4.316406 1.332031 8 1.332031 C 11.683594 1.332031 14.667969 4.316406 14.667969 8 C 14.667969 10.132812 13.648438 12.136719 11.921875 13.390625 L 11.246094 12.230469 C 13.058594 10.839844 13.785156 8.449219 13.050781 6.285156 C 12.316406 4.121094 10.285156 2.667969 8 2.667969 C 5.714844 2.667969 3.683594 4.121094 2.949219 6.285156 C 2.214844 8.449219 2.941406 10.839844 4.753906 12.230469 Z M 5.433594 11.066406 C 4.144531 9.988281 3.664062 8.214844 4.238281 6.632812 C 4.816406 5.054688 6.316406 4 8 4 C 9.683594 4 11.183594 5.054688 11.761719 6.632812 C 12.335938 8.214844 11.855469 9.988281 10.566406 11.066406 L 9.878906 9.890625 C 10.644531 9.128906 10.878906 7.980469 10.464844 6.984375 C 10.054688 5.984375 9.078125 5.332031 8 5.332031 C 6.921875 5.332031 5.945312 5.984375 5.535156 6.984375 C 5.121094 7.980469 5.355469 9.128906 6.121094 9.890625 Z M 7.332031 8.667969 L 8.667969 8.667969 L 9.332031 14.667969 L 6.667969 14.667969 Z M 7.332031 8.667969 "/>
</g>
</svg>
