<?xml version="1.0" encoding="UTF-8"?>
<svg xmlns="http://www.w3.org/2000/svg" xmlns:xlink="http://www.w3.org/1999/xlink" width="16" height="16" viewBox="0 0 16 16" version="1.1">
<g id="surface1">
<path style=" stroke:none;fill-rule:nonzero;fill:rgb(0%,0%,0%);fill-opacity:1;" d="M 1.871094 0.929688 L 13.65625 12.714844 L 12.714844 13.65625 L 10.257812 11.203125 L 8 14 L 0.460938 4.664062 C 1.070312 4.171875 1.726562 3.738281 2.425781 3.371094 L 0.929688 1.871094 Z M 2.386719 4.929688 L 8 11.878906 L 9.3125 10.253906 L 3.421875 4.363281 C 3.066406 4.53125 2.722656 4.71875 2.386719 4.929688 Z M 8 2 C 10.855469 2 13.480469 2.996094 15.539062 4.664062 L 11.933594 9.125 L 10.988281 8.179688 L 13.613281 4.925781 C 11.949219 3.894531 10.019531 3.332031 8 3.332031 C 7.417969 3.332031 6.84375 3.378906 6.28125 3.472656 L 5.148438 2.339844 C 6.0625 2.117188 7.019531 2 8 2 Z M 8 2 "/>
</g>
</svg>
