<?xml version="1.0" encoding="UTF-8"?>
<svg xmlns="http://www.w3.org/2000/svg" xmlns:xlink="http://www.w3.org/1999/xlink" width="16" height="16" viewBox="0 0 16 16" version="1.1">
<g id="surface1">
<path style=" stroke:none;fill-rule:nonzero;fill:rgb(0%,0%,0%);fill-opacity:1;" d="M 2.136719 0.75 C 1.933594 0.746094 1.734375 0.828125 1.59375 0.96875 C 1.3125 1.257812 1.3125 1.71875 1.59375 2.007812 L 2.578125 2.992188 C 2.867188 3.28125 3.328125 3.28125 3.617188 2.992188 C 3.753906 2.855469 3.832031 2.667969 3.832031 2.46875 C 3.832031 2.273438 3.753906 2.085938 3.617188 1.949219 L 2.636719 0.96875 C 2.503906 0.835938 2.328125 0.757812 2.136719 0.75 Z M 13.910156 0.933594 C 13.707031 0.929688 13.507812 1.007812 13.367188 1.148438 L 12.382812 2.132812 C 12.242188 2.269531 12.164062 2.457031 12.164062 2.652344 C 12.164062 2.851562 12.242188 3.039062 12.382812 3.175781 C 12.523438 3.3125 12.710938 3.390625 12.902344 3.390625 C 13.097656 3.390625 13.285156 3.3125 13.421875 3.175781 L 14.402344 2.195312 C 14.539062 2.054688 14.617188 1.867188 14.617188 1.671875 C 14.617188 1.476562 14.539062 1.289062 14.402344 1.148438 C 14.273438 1.015625 14.09375 0.941406 13.910156 0.933594 Z M 4.21875 2.992188 C 3.867188 2.992188 3.5625 3.242188 3.496094 3.585938 L 1.9375 11 L 1.695312 11 C 1.5 11 1.3125 11.074219 1.171875 11.214844 C 1.035156 11.351562 0.960938 11.539062 0.960938 11.738281 L 0.960938 14.261719 C 0.960938 14.460938 1.035156 14.648438 1.171875 14.785156 C 1.3125 14.925781 1.5 15 1.695312 15 L 14.304688 15 C 14.710938 15 15.039062 14.667969 15.039062 14.261719 L 15.039062 11.738281 C 15.039062 11.332031 14.710938 11 14.304688 11 L 14.058594 11 L 12.5 3.585938 C 12.429688 3.242188 12.132812 2.996094 11.78125 2.992188 Z M 0.929688 3.84375 C 0.679688 3.855469 0.453125 3.992188 0.328125 4.210938 C 0.230469 4.382812 0.203125 4.585938 0.253906 4.773438 C 0.304688 4.960938 0.429688 5.125 0.59375 5.21875 L 1.796875 5.910156 C 2.148438 6.117188 2.601562 5.992188 2.804688 5.640625 C 3 5.289062 2.878906 4.84375 2.53125 4.640625 L 1.335938 3.945312 C 1.210938 3.871094 1.070312 3.835938 0.929688 3.84375 Z M 15.019531 3.984375 C 15.003906 3.984375 14.992188 3.984375 14.976562 3.988281 C 14.867188 4 14.765625 4.03125 14.671875 4.089844 L 13.46875 4.78125 C 13.296875 4.875 13.175781 5.039062 13.125 5.226562 C 13.074219 5.414062 13.101562 5.617188 13.199219 5.789062 C 13.296875 5.957031 13.460938 6.078125 13.648438 6.132812 C 13.835938 6.179688 14.039062 6.15625 14.207031 6.054688 L 15.398438 5.367188 C 15.570312 5.265625 15.695312 5.109375 15.75 4.917969 C 15.796875 4.730469 15.773438 4.527344 15.675781 4.359375 C 15.542969 4.121094 15.289062 3.976562 15.019531 3.984375 Z M 4.8125 4.46875 L 11.1875 4.46875 L 12.554688 11 L 6.027344 11 L 6.804688 6.339844 C 6.847656 6.070312 6.667969 5.820312 6.398438 5.773438 C 6.367188 5.769531 6.328125 5.765625 6.296875 5.765625 C 6.0625 5.78125 5.875 5.949219 5.835938 6.179688 L 5.03125 11 L 3.441406 11 Z M 4.8125 4.46875 "/>
</g>
</svg>
