<?xml version="1.0" encoding="UTF-8"?>
<svg xmlns="http://www.w3.org/2000/svg" xmlns:xlink="http://www.w3.org/1999/xlink" width="16" height="16" viewBox="0 0 16 16" version="1.1">
<g id="surface1">
<path style=" stroke:none;fill-rule:nonzero;fill:rgb(0%,0%,0%);fill-opacity:1;" d="M 4.667969 4 C 5.035156 4 5.332031 4.296875 5.332031 4.667969 L 5.332031 11.332031 C 5.332031 11.703125 5.035156 12 4.667969 12 C 4.296875 12 4 11.703125 4 11.332031 L 4 4.667969 C 4 4.296875 4.296875 4 4.667969 4 Z M 10 9.425781 L 10 6.574219 L 7.980469 8 Z M 6.050781 8.273438 C 5.964844 8.210938 5.910156 8.109375 5.910156 8 C 5.910156 7.890625 5.964844 7.789062 6.050781 7.726562 L 10.808594 4.371094 C 10.910156 4.300781 11.042969 4.289062 11.152344 4.347656 C 11.265625 4.40625 11.332031 4.519531 11.332031 4.644531 L 11.332031 11.355469 C 11.332031 11.480469 11.265625 11.59375 11.152344 11.652344 C 11.042969 11.710938 10.910156 11.699219 10.808594 11.628906 Z M 6.050781 8.273438 "/>
</g>
</svg>
