<?xml version="1.0" encoding="UTF-8"?>
<svg xmlns="http://www.w3.org/2000/svg" xmlns:xlink="http://www.w3.org/1999/xlink" width="16" height="16" viewBox="0 0 16 16" version="1.1">
<g id="surface1">
<path style=" stroke:none;fill-rule:nonzero;fill:rgb(0%,0%,0%);fill-opacity:1;" d="M 5.191406 11.628906 C 5.089844 11.699219 4.957031 11.710938 4.847656 11.652344 C 4.734375 11.59375 4.667969 11.480469 4.667969 11.355469 L 4.667969 4.644531 C 4.667969 4.519531 4.734375 4.40625 4.847656 4.347656 C 4.957031 4.289062 5.089844 4.300781 5.191406 4.371094 L 9.949219 7.726562 C 10.035156 7.789062 10.089844 7.890625 10.089844 8 C 10.089844 8.109375 10.035156 8.210938 9.949219 8.273438 Z M 10.667969 4.667969 C 10.667969 4.296875 10.964844 4 11.332031 4 C 11.703125 4 12 4.296875 12 4.667969 L 12 11.332031 C 12 11.703125 11.703125 12 11.332031 12 C 10.964844 12 10.667969 11.703125 10.667969 11.332031 Z M 10.667969 4.667969 "/>
</g>
</svg>
