<?xml version="1.0" encoding="UTF-8"?>
<svg xmlns="http://www.w3.org/2000/svg" xmlns:xlink="http://www.w3.org/1999/xlink" width="16" height="16" viewBox="0 0 16 16" version="1.1">
<g id="surface1">
<path style=" stroke:none;fill-rule:nonzero;fill:rgb(0%,0%,0%);fill-opacity:1;" d="M 8 1.332031 C 11.683594 1.332031 14.667969 4.316406 14.667969 8 L 14.667969 10.507812 C 14.667969 11.015625 14.382812 11.476562 13.929688 11.703125 L 12 12.667969 L 12 13.332031 C 12 14.390625 11.175781 15.269531 10.117188 15.328125 L 9.964844 15.332031 C 9.980469 15.261719 9.992188 15.1875 9.996094 15.113281 L 10 15 L 10 14.667969 C 10 13.96875 9.460938 13.390625 8.765625 13.335938 L 8.667969 13.332031 L 7.332031 13.332031 C 6.636719 13.332031 6.054688 13.871094 6.003906 14.566406 L 6 14.667969 L 6 15 C 6 15.113281 6.011719 15.226562 6.035156 15.332031 L 6 15.332031 C 4.894531 15.332031 4 14.4375 4 13.332031 L 4 12.667969 L 2.070312 11.703125 C 1.617188 11.476562 1.332031 11.015625 1.332031 10.507812 L 1.332031 8 C 1.332031 4.316406 4.316406 1.332031 8 1.332031 Z M 5.332031 7.332031 C 4.597656 7.332031 4 7.929688 4 8.667969 C 4 9.402344 4.597656 10 5.332031 10 C 6.070312 10 6.667969 9.402344 6.667969 8.667969 C 6.667969 7.929688 6.070312 7.332031 5.332031 7.332031 Z M 10.667969 7.332031 C 9.929688 7.332031 9.332031 7.929688 9.332031 8.667969 C 9.332031 9.402344 9.929688 10 10.667969 10 C 11.402344 10 12 9.402344 12 8.667969 C 12 7.929688 11.402344 7.332031 10.667969 7.332031 Z M 10.667969 7.332031 "/>
</g>
</svg>
