<?xml version="1.0" encoding="UTF-8"?>
<svg xmlns="http://www.w3.org/2000/svg" xmlns:xlink="http://www.w3.org/1999/xlink" width="16" height="16" viewBox="0 0 16 16" version="1.1">
<g id="surface1">
<path style=" stroke:none;fill-rule:nonzero;fill:rgb(0%,0%,0%);fill-opacity:1;" d="M 4 1.332031 L 12 1.332031 C 12.367188 1.332031 12.667969 1.632812 12.667969 2 L 12.667969 14 C 12.667969 14.367188 12.367188 14.667969 12 14.667969 L 4 14.667969 C 3.632812 14.667969 3.332031 14.367188 3.332031 14 L 3.332031 2 C 3.332031 1.632812 3.632812 1.332031 4 1.332031 Z M 8 11.332031 C 7.632812 11.332031 7.332031 11.632812 7.332031 12 C 7.332031 12.367188 7.632812 12.667969 8 12.667969 C 8.367188 12.667969 8.667969 12.367188 8.667969 12 C 8.667969 11.632812 8.367188 11.332031 8 11.332031 Z M 8 11.332031 "/>
</g>
</svg>
