<?xml version="1.0" encoding="UTF-8"?>
<svg xmlns="http://www.w3.org/2000/svg" xmlns:xlink="http://www.w3.org/1999/xlink" width="16" height="16" viewBox="0 0 16 16" version="1.1">
<g id="surface1">
<path style=" stroke:none;fill-rule:evenodd;fill:rgb(0%,0%,0%);fill-opacity:1;" d="M 10 0 C 10 0.75 9.984375 1.375 9.96875 2 L 16 2 L 16 0 Z M 9.9375 3 C 9.882812 4.183594 9.78125 5.125 9.59375 5.804688 L 10.59375 6.613281 C 10.808594 6.789062 10.839844 7.101562 10.664062 7.316406 C 10.492188 7.53125 10.179688 7.5625 9.964844 7.390625 L 9.183594 6.757812 C 9.125 6.84375 9.070312 6.929688 9 7 C 8.789062 7.210938 8.585938 7.386719 8.378906 7.570312 L 9.042969 8.46875 C 9.121094 8.574219 9.15625 8.710938 9.132812 8.839844 C 9.113281 8.972656 9.039062 9.089844 8.929688 9.167969 C 8.824219 9.25 8.691406 9.28125 8.558594 9.261719 C 8.429688 9.242188 8.308594 9.171875 8.230469 9.0625 L 7.601562 8.203125 C 7.234375 8.480469 6.878906 8.722656 6.53125 8.925781 L 7.027344 9.988281 C 7.144531 10.234375 7.039062 10.53125 6.789062 10.652344 C 6.671875 10.710938 6.53125 10.710938 6.40625 10.667969 C 6.28125 10.625 6.179688 10.53125 6.125 10.40625 L 5.640625 9.390625 C 5.226562 9.578125 4.828125 9.726562 4.445312 9.84375 L 4.679688 10.785156 C 4.746094 11.054688 4.585938 11.320312 4.320312 11.390625 C 4.050781 11.457031 3.78125 11.296875 3.710938 11.03125 L 3.476562 10.082031 C 1.371094 10.515625 0 10.257812 0 12 L 0 13 L 14 13 L 14 12 C 14 10 16 10 16 10 L 16 3 Z M 0 14 C 0 15 2 16 5 16 L 13 16 C 16 16 16 14 16 14 Z M 0 14 "/>
</g>
</svg>
