<?xml version="1.0" encoding="UTF-8"?>
<svg xmlns="http://www.w3.org/2000/svg" xmlns:xlink="http://www.w3.org/1999/xlink" width="16" height="16" viewBox="0 0 16 16" version="1.1">
<g id="surface1">
<path style=" stroke:none;fill-rule:nonzero;fill:rgb(0%,0%,0%);fill-opacity:1;" d="M 10.265625 7.054688 L 10.277344 6.886719 C 10.3125 6.371094 10.332031 5.855469 10.332031 5.335938 C 10.332031 4.757812 10.136719 4.347656 9.722656 3.960938 C 9.285156 3.550781 8.75 3.332031 7.996094 3.332031 C 7.238281 3.332031 6.691406 3.558594 6.324219 3.925781 C 5.859375 4.386719 5.683594 4.738281 5.683594 5.324219 C 5.683594 5.671875 5.726562 6.65625 5.75 7.070312 C 5.769531 7.410156 5.65625 7.746094 5.4375 8.003906 C 5.472656 8.070312 5.507812 8.140625 5.539062 8.214844 C 5.738281 8.730469 5.671875 9.246094 5.4375 9.730469 C 5.175781 10.277344 4.949219 10.660156 4.496094 11.167969 C 4.363281 11.316406 4.21875 11.460938 4.070312 11.59375 C 4.183594 11.703125 4.273438 11.832031 4.34375 11.972656 C 4.695312 11.941406 5.050781 11.957031 5.398438 12.019531 C 5.941406 12.117188 6.28125 12.3125 6.863281 12.730469 L 6.875 12.734375 L 7.015625 12.835938 C 7.429688 13.128906 7.601562 13.203125 7.996094 13.203125 C 8.402344 13.203125 8.605469 13.121094 9.011719 12.832031 L 9.152344 12.734375 C 9.734375 12.316406 10.089844 12.117188 10.636719 12.019531 C 10.980469 11.960938 11.332031 11.945312 11.675781 11.96875 C 11.746094 11.828125 11.839844 11.699219 11.957031 11.589844 C 11.8125 11.460938 11.675781 11.324219 11.542969 11.179688 C 11.15625 10.75 10.832031 10.265625 10.578125 9.742188 C 10.339844 9.242188 10.265625 8.714844 10.488281 8.191406 C 10.515625 8.128906 10.546875 8.066406 10.578125 8.007812 C 10.351562 7.742188 10.238281 7.398438 10.265625 7.050781 Z M 3.386719 6.984375 C 3.667969 6.984375 3.789062 7.1875 4.199219 7.1875 C 4.304688 7.1875 4.375 7.164062 4.417969 7.144531 C 4.410156 7.039062 4.351562 5.820312 4.351562 5.324219 C 4.351562 4.199219 4.832031 3.53125 5.378906 2.984375 C 5.929688 2.433594 6.785156 2 7.996094 2 C 9.210938 2 10.042969 2.433594 10.632812 2.984375 C 11.222656 3.535156 11.664062 4.273438 11.664062 5.335938 C 11.664062 6.375 11.601562 7.066406 11.59375 7.148438 C 11.652344 7.175781 11.714844 7.191406 11.78125 7.191406 C 12.199219 7.191406 12.199219 6.984375 12.667969 6.984375 C 13.125 6.984375 13.320312 7.363281 13.320312 7.535156 C 13.320312 7.949219 12.765625 8.179688 12.433594 8.285156 C 12.1875 8.363281 11.816406 8.476562 11.71875 8.707031 C 11.667969 8.824219 11.691406 8.972656 11.78125 9.160156 C 11.78125 9.164062 12.621094 11.082031 14.398438 11.375 C 14.558594 11.398438 14.660156 11.539062 14.660156 11.699219 C 14.660156 11.921875 14.414062 12.109375 14.175781 12.21875 C 13.882812 12.351562 13.449219 12.464844 12.875 12.558594 C 12.847656 12.609375 12.785156 12.878906 12.71875 13.148438 C 12.628906 13.507812 12.183594 13.390625 12.058594 13.367188 C 11.664062 13.28125 11.257812 13.273438 10.859375 13.332031 C 10.539062 13.390625 10.253906 13.585938 9.929688 13.816406 C 9.457031 14.152344 8.953125 14.535156 7.996094 14.535156 C 7.039062 14.535156 6.566406 14.152344 6.09375 13.816406 C 5.769531 13.585938 5.488281 13.394531 5.160156 13.332031 C 4.5625 13.226562 4.117188 13.355469 3.964844 13.371094 C 3.816406 13.382812 3.402344 13.535156 3.300781 13.152344 C 3.269531 13.042969 3.175781 12.613281 3.144531 12.558594 C 2.574219 12.464844 2.140625 12.347656 1.84375 12.214844 C 1.601562 12.105469 1.359375 11.917969 1.359375 11.695312 C 1.359375 11.539062 1.464844 11.402344 1.621094 11.375 C 3.382812 11.050781 4.128906 9.371094 4.234375 9.152344 C 4.324219 8.96875 4.34375 8.820312 4.296875 8.703125 C 4.199219 8.472656 3.824219 8.359375 3.578125 8.277344 C 3.511719 8.253906 2.6875 8.03125 2.6875 7.535156 C 2.6875 7.375 2.824219 7.152344 3.078125 7.046875 C 3.175781 7.007812 3.28125 6.988281 3.386719 6.984375 Z M 3.386719 6.984375 "/>
</g>
</svg>
