<?xml version="1.0" encoding="UTF-8"?>
<svg xmlns="http://www.w3.org/2000/svg" xmlns:xlink="http://www.w3.org/1999/xlink" width="16" height="16" viewBox="0 0 16 16" version="1.1">
<g id="surface1">
<path style=" stroke:none;fill-rule:nonzero;fill:rgb(0%,0%,0%);fill-opacity:1;" d="M 5 0 L 3 4 L 4 4 L 4 16 L 6 16 L 6 4 L 7 4 Z M 5 0 "/>
<path style=" stroke:none;fill-rule:nonzero;fill:rgb(0%,0%,0%);fill-opacity:1;" d="M 8 8 L 8 6.726562 L 11.882812 2.183594 L 8.4375 2.183594 L 8.4375 1 L 13.839844 1 L 13.839844 2.097656 L 9.796875 6.820312 L 14 6.820312 L 14 8 Z M 8 8 "/>
<path style=" stroke:none;fill-rule:nonzero;fill:rgb(0%,0%,0%);fill-opacity:1;" d="M 14 16 L 12.6875 16 L 12.164062 14.410156 L 9.773438 14.410156 L 9.28125 16 L 8 16 L 10.328125 9 L 11.609375 9 Z M 11.773438 13.230469 L 10.953125 10.632812 L 10.144531 13.230469 Z M 11.773438 13.230469 "/>
</g>
</svg>
