<?xml version="1.0" encoding="UTF-8"?>
<svg xmlns="http://www.w3.org/2000/svg" xmlns:xlink="http://www.w3.org/1999/xlink" width="16" height="16" viewBox="0 0 16 16" version="1.1">
<g id="surface1">
<path style=" stroke:none;fill-rule:nonzero;fill:rgb(0%,0%,0%);fill-opacity:1;" d="M 6.976562 5.730469 C 7.152344 5.730469 7.296875 7.132812 7.296875 8.867188 L 7.296875 9.101562 C 7.28125 10.722656 7.144531 12.003906 6.976562 12.003906 C 6.804688 12.003906 6.664062 10.691406 6.65625 9.042969 L 6.65625 8.808594 C 6.660156 7.101562 6.800781 5.730469 6.976562 5.730469 Z M 5.867188 6.371094 C 6.039062 6.371094 6.179688 7.570312 6.1875 9.074219 L 6.1875 9.300781 C 6.179688 10.800781 6.039062 12.003906 5.867188 12.003906 C 5.695312 12.003906 5.558594 10.832031 5.546875 9.355469 L 5.546875 8.902344 C 5.566406 7.480469 5.703125 6.371094 5.867188 6.371094 Z M 4.757812 6.371094 C 4.925781 6.371094 5.066406 7.539062 5.078125 9.015625 L 5.078125 9.242188 L 5.074219 9.46875 C 5.058594 10.894531 4.921875 12.003906 4.757812 12.003906 C 4.585938 12.003906 4.445312 10.800781 4.4375 9.300781 L 4.4375 9.074219 C 4.445312 7.570312 4.585938 6.371094 4.757812 6.371094 Z M 3.648438 6.753906 C 3.824219 6.753906 3.96875 7.929688 3.96875 9.378906 L 3.964844 9.601562 C 3.953125 10.945312 3.816406 12.003906 3.648438 12.003906 C 3.472656 12.003906 3.332031 10.859375 3.328125 9.433594 L 3.328125 9.324219 C 3.332031 7.898438 3.472656 6.753906 3.648438 6.753906 Z M 2.539062 7.90625 C 2.714844 7.90625 2.859375 8.824219 2.859375 9.953125 L 2.859375 10.058594 C 2.851562 11.140625 2.710938 12.003906 2.539062 12.003906 C 2.363281 12.003906 2.21875 11.085938 2.21875 9.953125 L 2.21875 9.847656 C 2.226562 8.765625 2.367188 7.90625 2.539062 7.90625 Z M 9.726562 4.707031 C 11.449219 4.707031 12.875 5.964844 13.140625 7.609375 C 13.976562 7.371094 14.875 7.636719 15.445312 8.292969 C 16.019531 8.949219 16.160156 9.875 15.804688 10.671875 C 15.453125 11.464844 14.671875 11.984375 13.800781 12.003906 L 8.320312 12.003906 C 8.039062 12.003906 7.808594 11.773438 7.808594 11.492188 L 7.808594 5.289062 C 8.375 4.90625 9.042969 4.707031 9.726562 4.707031 Z M 1.429688 7.777344 C 1.605469 7.777344 1.75 8.667969 1.75 9.761719 L 1.75 9.867188 C 1.738281 10.914062 1.601562 11.746094 1.429688 11.746094 C 1.257812 11.746094 1.113281 10.886719 1.109375 9.816406 L 1.109375 9.761719 C 1.109375 8.667969 1.253906 7.777344 1.429688 7.777344 Z M 0.320312 8.417969 C 0.496094 8.417969 0.640625 9.050781 0.640625 9.828125 L 0.640625 9.914062 C 0.628906 10.652344 0.488281 11.234375 0.320312 11.234375 C 0.144531 11.234375 0 10.605469 0 9.828125 L 0 9.738281 C 0.0117188 9.003906 0.148438 8.417969 0.320312 8.417969 Z M 0.320312 8.417969 "/>
</g>
</svg>
