<?xml version="1.0" encoding="UTF-8"?>
<svg xmlns="http://www.w3.org/2000/svg" xmlns:xlink="http://www.w3.org/1999/xlink" width="16" height="16" viewBox="0 0 16 16" version="1.1">
<g id="surface1">
<path style=" stroke:none;fill-rule:nonzero;fill:rgb(0%,0%,0%);fill-opacity:1;" d="M 7.992188 1.5 C 7.976562 1.5 7.964844 1.5 7.953125 1.5 C 7.734375 1.507812 7.550781 1.660156 7.492188 1.867188 L 4.910156 11.351562 L 2.890625 5.832031 C 2.824219 5.65625 2.664062 5.53125 2.476562 5.507812 C 2.289062 5.484375 2.105469 5.570312 2 5.726562 L 0.0976562 8.710938 C -0.046875 8.941406 0.015625 9.25 0.246094 9.398438 C 0.359375 9.46875 0.492188 9.496094 0.625 9.46875 C 0.753906 9.441406 0.867188 9.359375 0.9375 9.25 L 2.296875 7.125 L 4.511719 13.171875 C 4.585938 13.375 4.78125 13.507812 5 13.5 C 5.21875 13.492188 5.40625 13.34375 5.464844 13.132812 L 7.960938 3.976562 L 10.492188 14.125 C 10.546875 14.335938 10.734375 14.492188 10.957031 14.5 C 11.179688 14.507812 11.382812 14.371094 11.453125 14.160156 L 13.84375 6.996094 C 13.890625 7 13.933594 7 13.980469 7 C 15.085938 7 15.980469 6.105469 15.980469 5 C 15.980469 3.894531 15.085938 3 13.980469 3 C 12.875 3 11.980469 3.894531 11.980469 5 C 11.980469 5.679688 12.324219 6.308594 12.890625 6.679688 L 11.046875 12.210938 L 8.460938 1.882812 C 8.40625 1.664062 8.21875 1.507812 7.992188 1.5 Z M 7.992188 1.5 "/>
</g>
</svg>
