<?xml version="1.0" encoding="UTF-8"?>
<svg xmlns="http://www.w3.org/2000/svg" xmlns:xlink="http://www.w3.org/1999/xlink" width="16" height="16" viewBox="0 0 16 16" version="1.1">
<g id="surface1">
<path style=" stroke:none;fill-rule:nonzero;fill:rgb(0%,0%,0%);fill-opacity:1;" d="M 8.800781 1.335938 C 14.160156 1.394531 14.667969 2.167969 14.667969 8 L 14.664062 8.800781 C 14.605469 14.160156 13.832031 14.667969 8 14.667969 L 7.199219 14.664062 C 2.09375 14.605469 1.394531 13.90625 1.335938 8.800781 L 1.332031 7.792969 L 1.335938 7.199219 C 1.394531 1.96875 2.128906 1.359375 7.59375 1.335938 Z M 5.5 4.667969 L 5.113281 4.667969 C 4.890625 4.667969 4.703125 4.828125 4.671875 5.046875 L 4.667969 5.113281 L 4.667969 7.554688 C 4.667969 7.777344 4.832031 7.964844 5.046875 7.996094 L 5.113281 8 L 5.5 8 C 6.828125 8 7.925781 9.039062 7.996094 10.367188 L 8 10.5 L 8 10.886719 C 8 11.113281 8.164062 11.296875 8.378906 11.328125 L 8.445312 11.332031 L 10.886719 11.332031 C 11.109375 11.332031 11.296875 11.171875 11.328125 10.953125 L 11.332031 10.886719 L 11.332031 10.5 C 11.332031 7.34375 8.824219 4.761719 5.671875 4.667969 Z M 5.5 4.667969 "/>
</g>
</svg>
