<?xml version="1.0" encoding="UTF-8"?>
<svg xmlns="http://www.w3.org/2000/svg" xmlns:xlink="http://www.w3.org/1999/xlink" width="16" height="16" viewBox="0 0 16 16" version="1.1">
<g id="surface1">
<path style=" stroke:none;fill-rule:nonzero;fill:rgb(0%,0%,0%);fill-opacity:1;" d="M 12 13.335938 L 12 9.78125 L 13.332031 9.78125 L 13.332031 14.667969 L 2.667969 14.667969 L 2.667969 9.78125 L 4 9.78125 L 4 13.335938 Z M 5.066406 9.824219 L 5.273438 8.503906 L 11.164062 9.636719 L 11.089844 10.695312 Z M 5.867188 6.800781 L 6.355469 5.734375 L 11.6875 8.226562 L 11.199219 9.289062 Z M 7.375 4.179688 L 8.132812 3.292969 L 12.664062 7.070312 L 11.90625 7.957031 Z M 10.265625 1.425781 L 13.773438 6.136719 L 12.839844 6.847656 L 9.332031 2.136719 Z M 4.886719 12.445312 L 4.886719 11.113281 L 11.109375 11.113281 L 11.109375 12.445312 Z M 4.886719 12.445312 "/>
</g>
</svg>
