<?xml version="1.0" encoding="UTF-8"?>
<svg xmlns="http://www.w3.org/2000/svg" xmlns:xlink="http://www.w3.org/1999/xlink" width="16" height="16" viewBox="0 0 16 16" version="1.1">
<g id="surface1">
<path style=" stroke:none;fill-rule:nonzero;fill:rgb(0%,0%,0%);fill-opacity:1;" d="M 11.464844 13.332031 L 12.667969 14.332031 L 12.667969 14.667969 L 3.332031 14.667969 L 3.332031 14.332031 L 4.535156 13.332031 L 3.332031 13.332031 C 2.597656 13.332031 2 12.738281 2 12 L 2 4.667969 C 2 3.195312 3.195312 2 4.667969 2 L 11.332031 2 C 12.804688 2 14 3.195312 14 4.667969 L 14 12 C 14 12.738281 13.402344 13.332031 12.667969 13.332031 Z M 8.667969 3.332031 L 8.667969 7.332031 L 12.667969 7.332031 L 12.667969 4.667969 C 12.667969 3.929688 12.070312 3.332031 11.332031 3.332031 Z M 7.332031 3.332031 L 4.667969 3.332031 C 3.929688 3.332031 3.332031 3.929688 3.332031 4.667969 L 3.332031 7.332031 L 7.332031 7.332031 Z M 12.667969 8.667969 L 3.332031 8.667969 L 3.332031 12 L 12.667969 12 Z M 5 11.332031 C 4.449219 11.332031 4 10.886719 4 10.332031 C 4 9.78125 4.449219 9.332031 5 9.332031 C 5.550781 9.332031 6 9.78125 6 10.332031 C 6 10.886719 5.550781 11.332031 5 11.332031 Z M 11 11.332031 C 10.449219 11.332031 10 10.886719 10 10.332031 C 10 9.78125 10.449219 9.332031 11 9.332031 C 11.550781 9.332031 12 9.78125 12 10.332031 C 12 10.886719 11.550781 11.332031 11 11.332031 Z M 11 11.332031 "/>
</g>
</svg>
