<?xml version="1.0" encoding="UTF-8"?>
<svg xmlns="http://www.w3.org/2000/svg" xmlns:xlink="http://www.w3.org/1999/xlink" width="16" height="16" viewBox="0 0 16 16" version="1.1">
<g id="surface1">
<path style=" stroke:none;fill-rule:nonzero;fill:rgb(0%,0%,0%);fill-opacity:1;" d="M 7.332031 4.667969 L 7.332031 13.332031 L 6 13.332031 L 6 4.667969 L 2 4.667969 L 2 3.332031 L 10 3.332031 L 10 4.667969 Z M 13.035156 4.386719 C 13.222656 4.207031 13.253906 3.914062 13.105469 3.699219 C 12.957031 3.484375 12.675781 3.40625 12.4375 3.515625 C 12.203125 3.628906 12.082031 3.894531 12.152344 4.148438 L 11.382812 4.367188 C 11.269531 3.964844 11.351562 3.53125 11.601562 3.195312 C 11.855469 2.863281 12.25 2.667969 12.667969 2.667969 C 13.210938 2.667969 13.703125 3 13.90625 3.507812 C 14.105469 4.015625 13.980469 4.59375 13.582031 4.96875 L 12.496094 6 L 14 6 L 14 6.667969 L 11.332031 6.667969 L 11.332031 6 Z M 13.035156 4.386719 "/>
</g>
</svg>
