<?xml version="1.0" encoding="UTF-8"?>
<svg xmlns="http://www.w3.org/2000/svg" xmlns:xlink="http://www.w3.org/1999/xlink" width="16" height="16" viewBox="0 0 16 16" version="1.1">
<g id="surface1">
<path style=" stroke:none;fill-rule:nonzero;fill:rgb(0%,0%,0%);fill-opacity:1;" d="M 1.007812 5 C 0.453125 5 0.00390625 5.445312 0.00390625 6 L 0.00390625 10.003906 L 1 10.003906 L 1 10.5 C 1 10.773438 1.222656 11 1.5 11 L 4.515625 11 C 4.78125 11 5 10.78125 5 10.515625 L 5 10.003906 L 11 10.007812 L 11 10.511719 C 11 10.78125 11.21875 11 11.492188 11 L 14.5 11 C 14.777344 11 15 10.78125 15 10.503906 L 15 10.007812 L 16 10.003906 L 16 6 C 16 5.445312 15.546875 5 14.992188 5 Z M 1.007812 6 L 3.007812 6 L 3.007812 8 L 1.007812 8 Z M 4.007812 6 L 6.007812 6 L 6.007812 8 L 4.007812 8 Z M 7.007812 6 L 9.007812 6 L 9.007812 8 L 7.007812 8 Z M 10.007812 6 L 12.007812 6 L 12.007812 8 L 10.007812 8 Z M 13.007812 6 L 15.007812 6 L 15.007812 8 L 13.007812 8 Z M 13.007812 6 "/>
</g>
</svg>
