<?xml version="1.0" encoding="UTF-8"?>
<svg xmlns="http://www.w3.org/2000/svg" xmlns:xlink="http://www.w3.org/1999/xlink" width="16" height="16" viewBox="0 0 16 16" version="1.1">
<g id="surface1">
<path style=" stroke:none;fill-rule:nonzero;fill:rgb(0%,0%,0%);fill-opacity:1;" d="M 11.636719 2 L 14 2.003906 L 14 4.351562 L 10.355469 7.996094 L 12.242188 9.878906 L 13.183594 8.9375 L 14.128906 9.878906 L 12.480469 11.53125 L 14.363281 13.417969 L 13.421875 14.359375 L 11.535156 12.472656 L 9.886719 14.125 L 8.941406 13.179688 L 9.886719 12.238281 L 8 10.351562 L 6.113281 12.238281 L 7.058594 13.179688 L 6.113281 14.125 L 4.464844 12.472656 L 2.578125 14.359375 L 1.636719 13.417969 L 3.523438 11.53125 L 1.871094 9.878906 L 2.816406 8.9375 L 3.757812 9.878906 L 5.640625 7.996094 L 2.003906 4.355469 L 2 2 L 4.363281 2.003906 L 8 5.636719 Z M 6.585938 8.9375 L 4.699219 10.824219 L 5.171875 11.292969 L 7.058594 9.410156 Z M 12.667969 3.335938 L 12.1875 3.335938 L 8.941406 6.578125 L 9.414062 7.050781 L 12.667969 3.796875 Z M 3.335938 3.335938 L 3.335938 3.800781 L 10.828125 11.292969 L 11.300781 10.824219 L 3.8125 3.335938 Z M 3.335938 3.335938 "/>
</g>
</svg>
