<?xml version="1.0" encoding="UTF-8"?>
<svg xmlns="http://www.w3.org/2000/svg" xmlns:xlink="http://www.w3.org/1999/xlink" width="16" height="16" viewBox="0 0 16 16" version="1.1">
<g id="surface1">
<path style=" stroke:none;fill-rule:nonzero;fill:rgb(0%,0%,0%);fill-opacity:1;" d="M 14.453125 5.320312 L 13.507812 6.261719 L 12.09375 4.847656 L 10.679688 6.261719 L 13.039062 8.621094 L 12.09375 9.5625 L 11.625 9.089844 L 7.378906 13.332031 L 3.609375 13.332031 L 2.195312 14.746094 L 1.253906 13.804688 L 2.667969 12.390625 L 2.667969 8.621094 L 6.910156 4.375 L 6.4375 3.90625 L 7.378906 2.960938 L 9.738281 5.320312 L 11.152344 3.90625 L 9.738281 2.492188 L 10.679688 1.546875 Z M 10.679688 8.148438 L 7.851562 5.320312 L 6.910156 6.261719 L 8.324219 7.675781 L 7.378906 8.621094 L 5.964844 7.207031 L 5.023438 8.148438 L 6.4375 9.5625 L 5.496094 10.503906 L 4.082031 9.089844 L 4 9.171875 L 4 12 L 6.828125 12 Z M 10.679688 8.148438 "/>
</g>
</svg>
