<?xml version="1.0" encoding="UTF-8"?>
<svg xmlns="http://www.w3.org/2000/svg" xmlns:xlink="http://www.w3.org/1999/xlink" width="16" height="16" viewBox="0 0 16 16" version="1.1">
<g id="surface1">
<path style=" stroke:none;fill-rule:nonzero;fill:rgb(0%,0%,0%);fill-opacity:1;" d="M 8.472656 11.863281 C 9.023438 12.414062 9.53125 12.667969 10 12.667969 C 10.253906 12.667969 10.453125 12.621094 10.824219 12.484375 L 11.085938 12.382812 C 11.785156 12.101562 12.140625 12 12.667969 12 C 13.476562 12 14.253906 12.363281 14.992188 13.054688 L 15.136719 13.195312 L 14.195312 14.136719 C 13.644531 13.585938 13.136719 13.332031 12.667969 13.332031 C 12.414062 13.332031 12.214844 13.378906 11.84375 13.515625 L 11.582031 13.617188 C 10.878906 13.898438 10.527344 14 10 14 C 9.191406 14 8.414062 13.636719 7.675781 12.945312 L 7.527344 12.804688 Z M 6 2 C 6 3.105469 6.894531 4 8 4 C 9.105469 4 10 3.105469 10 2 L 14 2 C 14.367188 2 14.667969 2.296875 14.667969 2.667969 L 14.667969 7.332031 C 14.667969 7.703125 14.367188 8 14 8 L 11.332031 8 L 11.332031 6.667969 L 13.332031 6.664062 L 13.332031 3.332031 L 11.054688 3.332031 L 11.042969 3.359375 C 10.527344 4.511719 9.40625 5.277344 8.144531 5.328125 L 8 5.332031 C 6.683594 5.332031 5.492188 4.558594 4.957031 3.359375 L 4.945312 3.332031 L 2.667969 3.332031 L 2.667969 6.667969 L 4.664062 6.664062 L 4.664062 12.667969 L 6.667969 12.667969 L 6.667969 14 L 4 14 C 3.632812 14 3.332031 13.703125 3.332031 13.332031 L 3.332031 8 L 2 8 C 1.632812 8 1.332031 7.703125 1.332031 7.332031 L 1.332031 2.667969 C 1.332031 2.296875 1.632812 2 2 2 Z M 8.472656 9.195312 C 9.023438 9.746094 9.53125 10 10 10 C 10.253906 10 10.453125 9.957031 10.824219 9.816406 L 11.085938 9.714844 C 11.785156 9.433594 12.140625 9.332031 12.667969 9.332031 C 13.476562 9.332031 14.253906 9.695312 14.992188 10.386719 L 15.136719 10.527344 L 14.195312 11.472656 C 13.644531 10.921875 13.136719 10.667969 12.667969 10.667969 C 12.414062 10.667969 12.214844 10.710938 11.84375 10.851562 L 11.582031 10.953125 C 10.878906 11.234375 10.527344 11.332031 10 11.332031 C 9.191406 11.332031 8.414062 10.96875 7.675781 10.28125 L 7.527344 10.136719 Z M 8.472656 9.195312 "/>
</g>
</svg>
