<?xml version="1.0" encoding="UTF-8"?>
<svg xmlns="http://www.w3.org/2000/svg" xmlns:xlink="http://www.w3.org/1999/xlink" width="16" height="16" viewBox="0 0 16 16" version="1.1">
<g id="surface1">
<path style=" stroke:none;fill-rule:nonzero;fill:rgb(0%,0%,0%);fill-opacity:1;" d="M 11.449219 9.332031 L 9.667969 9.332031 L 9.667969 10.25 C 10.035156 10.101562 10.433594 9.921875 10.875 9.710938 L 10.820312 9.550781 Z M 12 9.140625 L 12.078125 9.113281 C 12.507812 10.347656 12.769531 11.121094 12.871094 11.449219 L 11.59375 11.839844 C 11.546875 11.679688 11.453125 11.394531 11.3125 10.980469 C 7.257812 12.902344 5.53125 12.347656 5.304688 9.707031 L 6.632812 9.59375 C 6.699219 10.371094 6.863281 10.675781 7.230469 10.761719 C 7.492188 10.824219 7.859375 10.804688 8.332031 10.691406 L 8.332031 9.332031 L 6 9.332031 L 6 8 L 6.34375 8 L 5.5625 7.074219 C 6.257812 6.488281 6.800781 5.851562 7.195312 5.164062 C 6.851562 5.253906 6.503906 5.351562 6.160156 5.453125 C 5.820312 5.960938 5.425781 6.429688 4.992188 6.859375 L 4.058594 5.90625 C 4.90625 5.074219 5.613281 3.96875 6.175781 2.578125 L 7.414062 3.078125 C 7.3125 3.328125 7.207031 3.570312 7.09375 3.8125 C 9.5625 3.1875 11.941406 2.933594 13.183594 3.359375 C 14 3.636719 14.464844 4.285156 14.644531 5.082031 C 14.757812 5.585938 14.851562 6.875 14.851562 8.496094 C 14.851562 10.367188 14.8125 11.011719 14.625 11.578125 C 14.425781 12.171875 14.160156 12.523438 13.6875 12.902344 C 13.25 13.25 12.652344 13.410156 11.921875 13.449219 C 11.476562 13.476562 11.011719 13.453125 10.527344 13.398438 C 10.394531 13.382812 10.261719 13.367188 10.128906 13.347656 L 10.304688 12.023438 C 10.429688 12.042969 10.550781 12.058594 10.675781 12.070312 C 11.09375 12.117188 11.488281 12.136719 11.851562 12.117188 C 12.328125 12.09375 12.679688 11.996094 12.855469 11.859375 C 13.140625 11.632812 13.25 11.488281 13.359375 11.15625 C 13.484375 10.785156 13.519531 10.191406 13.519531 8.496094 C 13.519531 6.964844 13.429688 5.761719 13.34375 5.375 C 13.253906 4.992188 13.070312 4.730469 12.753906 4.621094 C 11.949219 4.347656 10.21875 4.492188 8.320312 4.898438 L 8.730469 5.074219 C 8.640625 5.273438 8.546875 5.472656 8.441406 5.667969 L 12 5.667969 L 12 7 L 9.667969 7 L 9.667969 8 L 12 8 Z M 8.332031 7 L 7.527344 7 C 7.222656 7.359375 6.890625 7.691406 6.53125 8 L 8.332031 8 Z M 1.640625 6.707031 L 2.359375 5.585938 C 3.066406 6.039062 4.316406 7.203125 4.585938 7.691406 C 5.410156 9.199219 4.714844 10.476562 2.503906 13.023438 L 1.496094 12.148438 C 3.289062 10.085938 3.832031 9.089844 3.414062 8.332031 C 3.273438 8.074219 2.179688 7.050781 1.640625 6.707031 Z M 3.425781 5.054688 C 2.726562 5.054688 2.171875 4.546875 2.167969 3.925781 C 2.167969 3.300781 2.730469 2.792969 3.425781 2.792969 C 4.121094 2.792969 4.683594 3.296875 4.683594 3.925781 C 4.683594 4.550781 4.121094 5.054688 3.425781 5.054688 Z M 3.425781 5.054688 "/>
</g>
</svg>
