<?xml version="1.0" encoding="UTF-8"?>
<svg xmlns="http://www.w3.org/2000/svg" xmlns:xlink="http://www.w3.org/1999/xlink" width="16" height="16" viewBox="0 0 16 16" version="1.1">
<g id="surface1">
<path style=" stroke:none;fill-rule:nonzero;fill:rgb(0%,0%,0%);fill-opacity:1;" d="M 8 13.332031 C 10.945312 13.332031 13.332031 10.945312 13.332031 8 C 13.332031 5.054688 10.945312 2.667969 8 2.667969 C 5.054688 2.667969 2.667969 5.054688 2.667969 8 C 2.667969 10.945312 5.054688 13.332031 8 13.332031 Z M 8 14.667969 C 4.316406 14.667969 1.332031 11.683594 1.332031 8 C 1.332031 4.316406 4.316406 1.332031 8 1.332031 C 11.683594 1.332031 14.667969 4.316406 14.667969 8 C 14.667969 11.683594 11.683594 14.667969 8 14.667969 Z M 5.925781 8.78125 L 4.261719 8.261719 C 3.902344 8.152344 3.898438 7.902344 4.34375 7.726562 L 10.832031 5.21875 C 11.207031 5.066406 11.421875 5.257812 11.296875 5.746094 L 10.195312 10.957031 C 10.117188 11.328125 9.894531 11.417969 9.582031 11.246094 L 7.882812 9.988281 L 7.089844 10.753906 C 7.007812 10.832031 6.941406 10.898438 6.816406 10.914062 C 6.691406 10.933594 6.589844 10.894531 6.515625 10.6875 L 5.933594 8.773438 Z M 5.925781 8.78125 "/>
</g>
</svg>
