<?xml version="1.0" encoding="UTF-8"?>
<svg xmlns="http://www.w3.org/2000/svg" xmlns:xlink="http://www.w3.org/1999/xlink" width="16" height="16" viewBox="0 0 16 16" version="1.1">
<g id="surface1">
<path style=" stroke:none;fill-rule:nonzero;fill:rgb(0%,0%,0%);fill-opacity:1;" d="M 9.648438 8.589844 L 9.648438 0 L 11.066406 0 L 11.066406 3.8125 L 13.945312 0 L 15.859375 0 L 13.203125 3.34375 L 16 8.589844 L 14.160156 8.589844 L 12.21875 4.558594 L 11.066406 5.992188 L 11.066406 8.589844 Z M 9.648438 8.589844 "/>
<path style=" stroke:none;fill-rule:evenodd;fill:rgb(0%,0%,0%);fill-opacity:1;" d="M 4 0 C 2.890625 0 2 0.890625 2 2 L 2 7.757812 C 0.75 8.59375 0 10 0 11.5 C 0 13.984375 2.015625 16 4.5 16 C 6.984375 16 9 13.984375 9 11.5 C 9 9.996094 8.25 8.59375 7 7.757812 L 7 2 C 7 0.890625 6.109375 0 5 0 Z M 4 1 L 5 1 C 5.554688 1 6 1.445312 6 2 L 6 8.335938 C 7.21875 8.917969 8 10.148438 8 11.5 C 8 13.433594 6.433594 15 4.5 15 C 2.566406 15 1 13.433594 1 11.5 C 1 10.148438 1.78125 8.917969 3 8.335938 L 3 2 C 3 1.445312 3.445312 1 4 1 Z M 4 2 L 4 9.054688 C 2.835938 9.289062 2 10.3125 2 11.5 C 2 12.882812 3.117188 14 4.5 14 C 5.882812 14 7 12.882812 7 11.5 C 7 10.3125 6.164062 9.289062 5 9.050781 L 5 2 Z M 4 2 "/>
</g>
</svg>
