<?xml version="1.0" encoding="UTF-8"?>
<svg xmlns="http://www.w3.org/2000/svg" xmlns:xlink="http://www.w3.org/1999/xlink" width="16" height="16" viewBox="0 0 16 16" version="1.1">
<g id="surface1">
<path style=" stroke:none;fill-rule:nonzero;fill:rgb(0%,0%,0%);fill-opacity:1;" d="M 13.703125 2.296875 C 14.746094 3.335938 14.746094 5.023438 13.703125 6.066406 L 8.238281 11.535156 C 7.808594 11.960938 7.246094 12.230469 6.644531 12.296875 L 4.394531 12.546875 L 2.863281 14.082031 C 2.601562 14.339844 2.179688 14.339844 1.917969 14.082031 C 1.660156 13.820312 1.660156 13.398438 1.917969 13.136719 L 3.453125 11.605469 L 3.703125 9.355469 C 3.769531 8.753906 4.039062 8.191406 4.464844 7.761719 L 9.933594 2.296875 C 10.976562 1.253906 12.664062 1.253906 13.703125 2.296875 Z M 7.574219 8.425781 L 6.632812 9.367188 L 8.046875 10.78125 L 8.988281 9.839844 Z M 9.460938 6.539062 L 8.519531 7.480469 L 9.933594 8.894531 L 10.875 7.953125 Z M 11.347656 4.652344 L 10.40625 5.59375 L 11.816406 7.011719 L 12.761719 6.066406 Z M 11.347656 4.652344 "/>
</g>
</svg>
