<?xml version="1.0" encoding="UTF-8"?>
<svg xmlns="http://www.w3.org/2000/svg" xmlns:xlink="http://www.w3.org/1999/xlink" width="16" height="16" viewBox="0 0 16 16" version="1.1">
<g id="surface1">
<path style=" stroke:none;fill-rule:nonzero;fill:rgb(0%,0%,0%);fill-opacity:1;" d="M 14.667969 10 L 12.667969 10 L 12.667969 2 L 14.667969 2 C 15.035156 2 15.332031 2.296875 15.332031 2.667969 L 15.332031 9.332031 C 15.332031 9.703125 15.035156 10 14.667969 10 Z M 11.136719 10.863281 L 6.871094 15.128906 C 6.753906 15.246094 6.566406 15.257812 6.433594 15.160156 L 5.867188 14.734375 C 5.542969 14.492188 5.398438 14.078125 5.496094 13.6875 L 6.265625 10.667969 L 2 10.667969 C 1.261719 10.667969 0.667969 10.070312 0.667969 9.332031 L 0.667969 7.929688 C 0.667969 7.757812 0.699219 7.582031 0.765625 7.421875 L 2.832031 2.414062 C 2.933594 2.164062 3.175781 2 3.445312 2 L 10.667969 2 C 11.035156 2 11.332031 2.296875 11.332031 2.667969 L 11.332031 10.390625 C 11.332031 10.566406 11.261719 10.738281 11.136719 10.863281 Z M 11.136719 10.863281 "/>
</g>
</svg>
