<?xml version="1.0" encoding="UTF-8"?>
<svg xmlns="http://www.w3.org/2000/svg" xmlns:xlink="http://www.w3.org/1999/xlink" width="16" height="16" viewBox="0 0 16 16" version="1.1">
<g id="surface1">
<path style=" stroke:none;fill-rule:nonzero;fill:rgb(0%,0%,0%);fill-opacity:1;" d="M 1.332031 6 L 3.332031 6 L 3.332031 14 L 1.332031 14 C 0.964844 14 0.667969 13.703125 0.667969 13.332031 L 0.667969 6.667969 C 0.667969 6.296875 0.964844 6 1.332031 6 Z M 4.863281 5.136719 L 9.128906 0.871094 C 9.246094 0.753906 9.433594 0.742188 9.566406 0.839844 L 10.132812 1.265625 C 10.457031 1.507812 10.601562 1.921875 10.503906 2.3125 L 9.734375 5.332031 L 14 5.332031 C 14.738281 5.332031 15.332031 5.929688 15.332031 6.667969 L 15.332031 8.070312 C 15.332031 8.242188 15.300781 8.417969 15.234375 8.578125 L 13.171875 13.585938 C 13.066406 13.835938 12.824219 14 12.554688 14 L 5.332031 14 C 4.964844 14 4.667969 13.703125 4.667969 13.332031 L 4.667969 5.609375 C 4.667969 5.433594 4.738281 5.261719 4.863281 5.136719 Z M 4.863281 5.136719 "/>
</g>
</svg>
