<?xml version="1.0" encoding="UTF-8"?>
<svg xmlns="http://www.w3.org/2000/svg" xmlns:xlink="http://www.w3.org/1999/xlink" width="16" height="16" viewBox="0 0 16 16" version="1.1">
<g id="surface1">
<path style=" stroke:none;fill-rule:nonzero;fill:rgb(0%,0%,0%);fill-opacity:1;" d="M 4.253906 3.980469 C 5.316406 3.128906 6.636719 2.664062 8 2.667969 C 9.417969 2.667969 10.71875 3.15625 11.746094 3.980469 L 12.714844 3.011719 L 13.65625 3.953125 L 12.6875 4.921875 C 14.648438 7.375 14.382812 10.925781 12.082031 13.0625 C 9.78125 15.199219 6.21875 15.199219 3.917969 13.0625 C 1.617188 10.925781 1.351562 7.375 3.3125 4.921875 L 2.34375 3.953125 L 3.285156 3.011719 Z M 8.667969 8 L 8.667969 4.996094 L 5.332031 9.332031 L 7.332031 9.332031 L 7.332031 12.332031 L 10.667969 8 Z M 5.332031 0.667969 L 10.667969 0.667969 L 10.667969 2 L 5.332031 2 Z M 5.332031 0.667969 "/>
</g>
</svg>
