<?xml version="1.0" encoding="UTF-8"?>
<svg xmlns="http://www.w3.org/2000/svg" xmlns:xlink="http://www.w3.org/1999/xlink" width="16" height="16" viewBox="0 0 16 16" version="1.1">
<g id="surface1">
<path style=" stroke:none;fill-rule:nonzero;fill:rgb(0%,0%,0%);fill-opacity:1;" d="M 11.464844 13.332031 L 12.667969 14.332031 L 12.667969 14.667969 L 3.332031 14.667969 L 3.332031 14.332031 L 4.535156 13.332031 L 3.332031 13.332031 C 2.597656 13.332031 2 12.738281 2 12 L 2 4.667969 C 2 3.195312 3.195312 2 4.667969 2 L 11.332031 2 C 12.804688 2 14 3.195312 14 4.667969 L 14 12 C 14 12.738281 13.402344 13.332031 12.667969 13.332031 Z M 4.667969 3.332031 C 3.929688 3.332031 3.332031 3.929688 3.332031 4.667969 L 3.332031 12 L 12.667969 12 L 12.667969 4.667969 C 12.667969 3.929688 12.070312 3.332031 11.332031 3.332031 Z M 8 11.332031 C 7.261719 11.332031 6.667969 10.738281 6.667969 10 C 6.667969 9.261719 7.261719 8.667969 8 8.667969 C 8.738281 8.667969 9.332031 9.261719 9.332031 10 C 9.332031 10.738281 8.738281 11.332031 8 11.332031 Z M 4 4.667969 L 12 4.667969 L 12 7.332031 L 4 7.332031 Z M 4 4.667969 "/>
</g>
</svg>
