<?xml version="1.0" encoding="UTF-8"?>
<svg xmlns="http://www.w3.org/2000/svg" xmlns:xlink="http://www.w3.org/1999/xlink" width="16" height="16" viewBox="0 0 16 16" version="1.1">
<g id="surface1">
<path style=" stroke:none;fill-rule:nonzero;fill:rgb(0%,0%,0%);fill-opacity:1;" d="M 12.332031 6.667969 L 15.265625 14 L 13.828125 14 L 13.03125 12 L 10.300781 12 L 9.503906 14 L 8.066406 14 L 11 6.667969 Z M 6.667969 1.332031 L 6.667969 2.667969 L 10.667969 2.667969 L 10.667969 4 L 9.355469 4 C 8.839844 5.546875 8.019531 6.976562 6.941406 8.199219 C 7.421875 8.628906 7.945312 9.011719 8.5 9.339844 L 7.996094 10.589844 C 7.28125 10.183594 6.613281 9.703125 6 9.148438 C 4.808594 10.226562 3.398438 11.035156 1.867188 11.515625 L 1.507812 10.230469 C 2.820312 9.8125 4.03125 9.121094 5.058594 8.203125 C 4.300781 7.339844 3.664062 6.375 3.179688 5.332031 L 4.671875 5.332031 C 5.042969 6.019531 5.488281 6.664062 6 7.25 C 6.832031 6.289062 7.488281 5.191406 7.941406 4 L 1.332031 4 L 1.332031 2.667969 L 5.332031 2.667969 L 5.332031 1.332031 Z M 11.667969 8.589844 L 10.835938 10.667969 L 12.496094 10.667969 Z M 11.667969 8.589844 "/>
</g>
</svg>
