<?xml version="1.0" encoding="UTF-8"?>
<svg xmlns="http://www.w3.org/2000/svg" xmlns:xlink="http://www.w3.org/1999/xlink" width="16" height="16" viewBox="0 0 16 16" version="1.1">
<g id="surface1">
<path style=" stroke:none;fill-rule:nonzero;fill:rgb(0%,0%,0%);fill-opacity:1;" d="M 8.667969 1.367188 C 12.035156 1.699219 14.667969 4.542969 14.667969 8 L 14.667969 8.667969 L 8.667969 8.667969 L 8.667969 12.667969 C 8.667969 13.402344 9.261719 14 10 14 C 10.738281 14 11.332031 13.402344 11.332031 12.667969 L 11.332031 12 L 12.667969 12 L 12.667969 12.667969 C 12.667969 14.140625 11.472656 15.332031 10 15.332031 C 8.527344 15.332031 7.332031 14.140625 7.332031 12.667969 L 7.332031 8.667969 L 1.332031 8.667969 L 1.332031 8 C 1.332031 4.542969 3.964844 1.699219 7.332031 1.367188 L 7.332031 1.332031 C 7.332031 0.964844 7.632812 0.667969 8 0.667969 C 8.367188 0.667969 8.667969 0.964844 8.667969 1.332031 Z M 8.667969 1.367188 "/>
</g>
</svg>
