<?xml version="1.0" encoding="UTF-8"?>
<svg xmlns="http://www.w3.org/2000/svg" xmlns:xlink="http://www.w3.org/1999/xlink" width="16" height="16" viewBox="0 0 16 16" version="1.1">
<g id="surface1">
<path style=" stroke:none;fill-rule:nonzero;fill:rgb(0%,0%,0%);fill-opacity:1;" d="M 8 9.332031 L 8 14.667969 L 2.667969 14.667969 C 2.667969 11.722656 5.054688 9.332031 8 9.332031 Z M 8 8.667969 C 5.789062 8.667969 4 6.875 4 4.667969 C 4 2.457031 5.789062 0.667969 8 0.667969 C 10.210938 0.667969 12 2.457031 12 4.667969 C 12 6.875 10.210938 8.667969 8 8.667969 Z M 13.886719 13.886719 L 12 15.769531 L 10.113281 13.886719 C 9.074219 12.84375 9.074219 11.15625 10.113281 10.113281 C 11.15625 9.074219 12.84375 9.074219 13.886719 10.113281 C 14.925781 11.15625 14.925781 12.84375 13.886719 13.886719 Z M 12 11.332031 C 11.632812 11.332031 11.332031 11.632812 11.332031 12 C 11.332031 12.367188 11.632812 12.667969 12 12.667969 C 12.367188 12.667969 12.667969 12.367188 12.667969 12 C 12.667969 11.632812 12.367188 11.332031 12 11.332031 Z M 12 11.332031 "/>
</g>
</svg>
