<?xml version="1.0" encoding="UTF-8"?>
<svg xmlns="http://www.w3.org/2000/svg" xmlns:xlink="http://www.w3.org/1999/xlink" width="16" height="16" viewBox="0 0 16 16" version="1.1">
<g id="surface1">
<path style=" stroke:none;fill-rule:nonzero;fill:rgb(0%,0%,0%);fill-opacity:1;" d="M 8.109375 0 C 7.75 -0.0078125 7.398438 0.046875 7.058594 0.15625 L 7.058594 1.5625 L 6.125 0.632812 C 5.679688 0.957031 5.320312 1.390625 5.085938 1.890625 C 4.554688 2.480469 4.210938 3.214844 4.101562 4 L 3.558594 4 C 3.28125 4 3.058594 4.203125 3.058594 4.453125 L 3.058594 4.546875 C 3.058594 4.796875 3.28125 5 3.558594 5 L 12.558594 5 C 12.835938 5 13.058594 4.796875 13.058594 4.546875 L 13.058594 4.453125 C 13.058594 4.203125 12.835938 4 12.558594 4 L 12.019531 4 C 11.90625 3.214844 11.5625 2.480469 11.03125 1.890625 C 10.796875 1.390625 10.4375 0.957031 9.992188 0.632812 L 9.058594 1.5625 L 9.058594 0.15625 C 8.75 0.0585938 8.429688 0.0078125 8.109375 0 Z M 4.003906 6 C 4.003906 6 4.003906 6 4.003906 6.003906 C 4.003906 8.210938 5.796875 10.003906 8.003906 10.003906 C 10.210938 10.003906 12.003906 8.210938 12.003906 6.003906 C 12.003906 6 12.003906 6 12.003906 6 Z M 3.996094 10.46875 C 3.117188 10.472656 2.382812 10.816406 1.839844 11.304688 C 1.296875 11.796875 0.917969 12.414062 0.652344 13.015625 C 0.121094 14.226562 0.00390625 15.417969 0.00390625 15.417969 L -0.0546875 16 L 16.054688 16 L 16 15.417969 C 16 15.417969 15.882812 14.226562 15.351562 13.015625 C 15.085938 12.414062 14.710938 11.796875 14.167969 11.304688 C 13.625 10.8125 12.890625 10.46875 12.007812 10.46875 C 10.90625 11.457031 9.480469 12.003906 8 12.003906 C 6.523438 12.003906 5.097656 11.460938 3.996094 10.46875 Z M 3.996094 10.46875 "/>
</g>
</svg>
