<?xml version="1.0" encoding="UTF-8"?>
<svg xmlns="http://www.w3.org/2000/svg" xmlns:xlink="http://www.w3.org/1999/xlink" width="16" height="16" viewBox="0 0 16 16" version="1.1">
<g id="surface1">
<path style=" stroke:none;fill-rule:nonzero;fill:rgb(0%,0%,0%);fill-opacity:1;" d="M 9.332031 9.5 L 9.332031 14.667969 L 2.667969 14.667969 C 2.667969 13.015625 3.429688 11.460938 4.734375 10.449219 C 6.039062 9.4375 7.734375 9.089844 9.332031 9.5 Z M 8 8.667969 C 5.789062 8.667969 4 6.875 4 4.667969 C 4 2.457031 5.789062 0.667969 8 0.667969 C 10.210938 0.667969 12 2.457031 12 4.667969 C 12 6.875 10.210938 8.667969 8 8.667969 Z M 12 11.332031 L 12 9.332031 L 13.332031 9.332031 L 13.332031 11.332031 L 15.332031 11.332031 L 15.332031 12.667969 L 13.332031 12.667969 L 13.332031 14.667969 L 12 14.667969 L 12 12.667969 L 10 12.667969 L 10 11.332031 Z M 12 11.332031 "/>
</g>
</svg>
