<?xml version="1.0" encoding="UTF-8"?>
<svg xmlns="http://www.w3.org/2000/svg" xmlns:xlink="http://www.w3.org/1999/xlink" width="16" height="16" viewBox="0 0 16 16" version="1.1">
<g id="surface1">
<path style=" stroke:none;fill-rule:nonzero;fill:rgb(0%,0%,0%);fill-opacity:1;" d="M 0.667969 14.667969 C 0.667969 11.722656 3.054688 9.332031 6 9.332031 C 8.945312 9.332031 11.332031 11.722656 11.332031 14.667969 L 10 14.667969 C 10 12.457031 8.210938 10.667969 6 10.667969 C 3.789062 10.667969 2 12.457031 2 14.667969 Z M 6 8.667969 C 3.789062 8.667969 2 6.875 2 4.667969 C 2 2.457031 3.789062 0.667969 6 0.667969 C 8.210938 0.667969 10 2.457031 10 4.667969 C 10 6.875 8.210938 8.667969 6 8.667969 Z M 6 7.332031 C 7.472656 7.332031 8.667969 6.140625 8.667969 4.667969 C 8.667969 3.191406 7.472656 2 6 2 C 4.527344 2 3.332031 3.191406 3.332031 4.667969 C 3.332031 6.140625 4.527344 7.332031 6 7.332031 Z M 14.367188 0.523438 C 15.003906 1.8125 15.335938 3.230469 15.332031 4.667969 C 15.332031 6.15625 14.984375 7.5625 14.367188 8.8125 L 13.269531 8.011719 C 13.753906 6.964844 14 5.820312 14 4.667969 C 14 3.472656 13.738281 2.339844 13.269531 1.320312 Z M 12.164062 2.121094 C 12.496094 2.929688 12.667969 3.792969 12.667969 4.667969 C 12.667969 5.539062 12.496094 6.402344 12.164062 7.210938 L 11.046875 6.398438 C 11.238281 5.839844 11.332031 5.253906 11.332031 4.667969 C 11.335938 4.078125 11.238281 3.492188 11.046875 2.9375 Z M 12.164062 2.121094 "/>
</g>
</svg>
