<?xml version="1.0" encoding="UTF-8"?>
<svg xmlns="http://www.w3.org/2000/svg" xmlns:xlink="http://www.w3.org/1999/xlink" width="16" height="16" viewBox="0 0 16 16" version="1.1">
<g id="surface1">
<path style=" stroke:none;fill-rule:nonzero;fill:rgb(0%,0%,0%);fill-opacity:1;" d="M 11.894531 10.4375 L 12.011719 10.558594 L 12.128906 10.4375 C 12.714844 9.855469 13.664062 9.855469 14.25 10.4375 C 14.835938 11.023438 14.835938 11.976562 14.25 12.5625 L 12.011719 14.800781 L 9.773438 12.5625 C 9.1875 11.976562 9.1875 11.023438 9.773438 10.4375 C 10.359375 9.855469 11.308594 9.855469 11.894531 10.4375 Z M 8 9.332031 L 8 14.667969 L 2.667969 14.667969 C 2.667969 11.785156 4.953125 9.425781 7.832031 9.335938 Z M 8 0.667969 C 10.210938 0.667969 12 2.457031 12 4.667969 C 12 6.875 10.210938 8.667969 8 8.667969 C 5.789062 8.667969 4 6.875 4 4.667969 C 4 2.457031 5.789062 0.667969 8 0.667969 Z M 8 0.667969 "/>
</g>
</svg>
