<?xml version="1.0" encoding="UTF-8"?>
<svg xmlns="http://www.w3.org/2000/svg" xmlns:xlink="http://www.w3.org/1999/xlink" width="16" height="16" viewBox="0 0 16 16" version="1.1">
<g id="surface1">
<path style=" stroke:none;fill-rule:nonzero;fill:rgb(0%,0%,0%);fill-opacity:1;" d="M 7.941406 1 C 5.757812 1.035156 4 2.816406 4 5 C 4 7.210938 5.792969 9 8 9 C 10.210938 9 12 7.210938 12 5 C 12 2.792969 10.210938 1 8 1 C 7.984375 1 7.960938 1 7.941406 1 Z M 3.996094 9.46875 C 3.117188 9.46875 2.382812 9.8125 1.839844 10.304688 C 1.296875 10.792969 0.917969 11.414062 0.652344 12.015625 C 0.121094 13.226562 0.00390625 14.414062 0.00390625 14.414062 L -0.0546875 15 L 8.296875 15 L 7.25 13.953125 C 6.734375 13.445312 6.734375 12.597656 7.25 12.09375 L 8.195312 11.15625 L 8.195312 11.148438 C 8.257812 11.085938 8.324219 11.03125 8.398438 10.988281 C 8.265625 11 8.132812 11 8 11 C 6.523438 11 5.097656 10.453125 3.996094 9.46875 Z M 12.007812 9.46875 C 11.261719 10.132812 10.363281 10.605469 9.390625 10.835938 C 9.625 10.890625 9.851562 10.984375 10.03125 11.164062 L 11.140625 12.269531 L 13.542969 9.871094 C 13.101562 9.625 12.589844 9.46875 12.007812 9.46875 Z M 15.0625 10.203125 L 11.140625 14.121094 L 9.105469 12.082031 L 8.167969 13.019531 L 11.140625 16 L 16 11.144531 Z M 15.757812 13.230469 L 13.992188 15 L 16.054688 15 L 16 14.414062 C 16 14.414062 15.9375 13.902344 15.757812 13.230469 Z M 15.757812 13.230469 "/>
</g>
</svg>
