<?xml version="1.0" encoding="UTF-8"?>
<svg xmlns="http://www.w3.org/2000/svg" xmlns:xlink="http://www.w3.org/1999/xlink" width="16" height="16" viewBox="0 0 16 16" version="1.1">
<g id="surface1">
<path style=" stroke:none;fill-rule:evenodd;fill:rgb(0%,0%,0%);fill-opacity:1;" d="M 2 3 C 0.894531 3 0.00390625 3.890625 0.00390625 5 L 0.00390625 11 C 0.00390625 12.109375 0.894531 13 2 13 L 8 13 C 9.109375 13 10 12.109375 10 11 L 10 5 C 10 3.890625 9.109375 3 8 3 Z M 15.484375 3.5 C 15.410156 3.5 15.339844 3.515625 15.273438 3.550781 L 11.28125 5.550781 C 11.109375 5.632812 11 5.8125 11 6 L 11 10 C 11 10.191406 11.109375 10.363281 11.28125 10.445312 L 15.273438 12.445312 C 15.429688 12.523438 15.609375 12.515625 15.757812 12.421875 C 15.90625 12.335938 15.996094 12.175781 16 12.003906 L 16 4 C 16 3.867188 15.945312 3.734375 15.847656 3.640625 C 15.75 3.546875 15.617188 3.492188 15.484375 3.5 Z M 15.484375 3.5 "/>
</g>
</svg>
