<?xml version="1.0" encoding="UTF-8"?>
<svg xmlns="http://www.w3.org/2000/svg" xmlns:xlink="http://www.w3.org/1999/xlink" width="16" height="16" viewBox="0 0 16 16" version="1.1">
<g id="surface1">
<path style=" stroke:none;fill-rule:nonzero;fill:rgb(0%,0%,0%);fill-opacity:1;" d="M 1.867188 3.464844 L 4.667969 5.332031 L 7.457031 1.425781 C 7.582031 1.25 7.785156 1.148438 8 1.148438 C 8.214844 1.148438 8.417969 1.25 8.542969 1.425781 L 11.332031 5.332031 L 14.132812 3.464844 C 14.351562 3.324219 14.628906 3.316406 14.851562 3.453125 C 15.074219 3.589844 15.195312 3.84375 15.164062 4.101562 L 14.070312 13.410156 C 14.03125 13.746094 13.746094 14 13.40625 14 L 2.59375 14 C 2.253906 14 1.96875 13.746094 1.929688 13.410156 L 0.835938 4.097656 C 0.804688 3.839844 0.925781 3.589844 1.148438 3.453125 C 1.371094 3.316406 1.652344 3.324219 1.867188 3.464844 Z M 8 10 C 8.738281 10 9.332031 9.402344 9.332031 8.667969 C 9.332031 7.929688 8.738281 7.332031 8 7.332031 C 7.261719 7.332031 6.667969 7.929688 6.667969 8.667969 C 6.667969 9.402344 7.261719 10 8 10 Z M 8 10 "/>
</g>
</svg>
