<?xml version="1.0" encoding="UTF-8"?>
<svg xmlns="http://www.w3.org/2000/svg" xmlns:xlink="http://www.w3.org/1999/xlink" width="16" height="16" viewBox="0 0 16 16" version="1.1">
<g id="surface1">
<path style=" stroke:none;fill-rule:nonzero;fill:rgb(0%,0%,0%);fill-opacity:1;" d="M 5.925781 10.667969 L 3.332031 10.667969 C 2.964844 10.667969 2.667969 10.367188 2.667969 10 L 2.667969 6 C 2.667969 5.632812 2.964844 5.332031 3.332031 5.332031 L 5.925781 5.332031 L 9.457031 2.445312 C 9.554688 2.363281 9.691406 2.347656 9.808594 2.402344 C 9.925781 2.457031 10 2.574219 10 2.703125 L 10 13.296875 C 10 13.425781 9.925781 13.542969 9.808594 13.597656 C 9.691406 13.652344 9.554688 13.636719 9.457031 13.554688 Z M 12.574219 11.0625 L 11.628906 10.113281 C 12.285156 9.609375 12.667969 8.828125 12.667969 8 C 12.667969 7.046875 12.167969 6.210938 11.414062 5.738281 L 12.371094 4.78125 C 13.398438 5.53125 14 6.730469 14 8 C 14 9.226562 13.445312 10.328125 12.574219 11.0625 Z M 12.574219 11.0625 "/>
</g>
</svg>
