<?xml version="1.0" encoding="UTF-8"?>
<svg xmlns="http://www.w3.org/2000/svg" xmlns:xlink="http://www.w3.org/1999/xlink" width="16" height="16" viewBox="0 0 16 16" version="1.1">
<g id="surface1">
<path style=" stroke:none;fill-rule:nonzero;fill:rgb(0%,0%,0%);fill-opacity:1;" d="M 5.078125 5.808594 L 7.214844 4.257812 C 7.453125 4.082031 7.746094 3.992188 8.042969 4 C 8.785156 4.019531 9.433594 4.503906 9.660156 5.214844 C 9.785156 5.601562 9.898438 5.863281 10 6 C 10.628906 6.839844 11.617188 7.335938 12.667969 7.332031 L 12.667969 8.667969 C 11.273438 8.667969 9.949219 8.046875 9.066406 6.96875 L 8.601562 9.605469 L 9.976562 10.757812 L 11.457031 14.832031 L 10.203125 15.285156 L 8.84375 11.550781 L 6.582031 9.652344 C 6.207031 9.347656 6.023438 8.863281 6.109375 8.382812 L 6.449219 6.460938 L 5.996094 6.789062 L 4.578125 8.742188 L 3.5 7.957031 L 5.066406 5.800781 Z M 9 3.667969 C 8.261719 3.667969 7.667969 3.070312 7.667969 2.332031 C 7.667969 1.597656 8.261719 1 9 1 C 9.738281 1 10.332031 1.597656 10.332031 2.332031 C 10.332031 3.070312 9.738281 3.667969 9 3.667969 Z M 7.019531 12.453125 L 4.875 15.007812 L 3.855469 14.152344 L 5.839844 11.785156 L 6.335938 10.332031 L 7.53125 11.332031 Z M 7.019531 12.453125 "/>
</g>
</svg>
