<?xml version="1.0" encoding="UTF-8"?>
<svg xmlns="http://www.w3.org/2000/svg" xmlns:xlink="http://www.w3.org/1999/xlink" width="16" height="16" viewBox="0 0 16 16" version="1.1">
<g id="surface1">
<path style=" stroke:none;fill-rule:nonzero;fill:rgb(0%,0%,0%);fill-opacity:1;" d="M 14.667969 4 L 10 4 C 7.789062 4 6 5.789062 6 8 C 6 10.210938 7.789062 12 10 12 L 14.667969 12 L 14.667969 13.332031 C 14.667969 13.703125 14.367188 14 14 14 L 2 14 C 1.632812 14 1.332031 13.703125 1.332031 13.332031 L 1.332031 2.667969 C 1.332031 2.296875 1.632812 2 2 2 L 14 2 C 14.367188 2 14.667969 2.296875 14.667969 2.667969 Z M 10 5.332031 L 15.332031 5.332031 L 15.332031 10.667969 L 10 10.667969 C 8.527344 10.667969 7.332031 9.472656 7.332031 8 C 7.332031 6.527344 8.527344 5.332031 10 5.332031 Z M 10 7.332031 L 10 8.667969 L 12 8.667969 L 12 7.332031 Z M 10 7.332031 "/>
</g>
</svg>
