<?xml version="1.0" encoding="UTF-8"?>
<svg xmlns="http://www.w3.org/2000/svg" xmlns:xlink="http://www.w3.org/1999/xlink" width="16" height="16" viewBox="0 0 16 16" version="1.1">
<g id="surface1">
<path style=" stroke:none;fill-rule:nonzero;fill:rgb(0%,0%,0%);fill-opacity:1;" d="M 13.460938 9.464844 C 13.460938 11.707031 10.441406 13.746094 6.84375 13.746094 C 3.546875 13.746094 0.667969 12.125 0.667969 9.6875 C 0.667969 8.390625 1.453125 6.964844 2.828125 5.628906 C 4.714844 3.800781 6.980469 2.941406 8.066406 4 C 8.398438 4.320312 8.546875 4.746094 8.542969 5.238281 C 9.863281 4.851562 10.976562 4.96875 11.535156 5.738281 C 11.832031 6.152344 11.886719 6.660156 11.75 7.210938 C 12.757812 7.617188 13.460938 8.390625 13.460938 9.464844 Z M 10.503906 8.085938 C 10.246094 7.8125 10.234375 7.472656 10.371094 7.144531 C 10.507812 6.804688 10.511719 6.601562 10.449219 6.519531 C 10.273438 6.273438 9.429688 6.277344 8.320312 6.726562 C 8.210938 6.769531 8.097656 6.800781 7.980469 6.820312 C 7.753906 6.847656 7.535156 6.820312 7.328125 6.640625 C 7.046875 6.402344 7.011719 6.070312 7.113281 5.765625 C 7.253906 5.316406 7.230469 5.046875 7.136719 4.953125 C 7.011719 4.835938 6.617188 4.828125 6.03125 5.050781 C 5.316406 5.320312 4.5 5.867188 3.753906 6.585938 C 2.617188 7.691406 2 8.8125 2 9.6875 C 2 11.183594 4.183594 12.414062 6.84375 12.414062 C 9.792969 12.414062 12.128906 10.835938 12.128906 9.464844 C 12.128906 8.972656 11.703125 8.570312 11.015625 8.363281 C 10.75 8.289062 10.65625 8.25 10.503906 8.085938 Z M 15.207031 7.007812 C 15.113281 7.363281 14.75 7.578125 14.394531 7.484375 C 14.035156 7.390625 13.820312 7.027344 13.914062 6.671875 C 14.148438 5.777344 13.902344 4.828125 13.265625 4.160156 C 12.628906 3.492188 11.691406 3.199219 10.785156 3.390625 C 10.550781 3.441406 10.308594 3.363281 10.148438 3.183594 C 9.984375 3.003906 9.933594 2.753906 10.011719 2.527344 C 10.085938 2.300781 10.277344 2.128906 10.515625 2.085938 C 11.871094 1.800781 13.273438 2.238281 14.230469 3.238281 C 15.183594 4.242188 15.554688 5.667969 15.207031 7.007812 Z M 15.207031 7.007812 "/>
</g>
</svg>
