<?xml version="1.0" encoding="UTF-8"?>
<svg xmlns="http://www.w3.org/2000/svg" xmlns:xlink="http://www.w3.org/1999/xlink" width="16" height="16" viewBox="0 0 16 16" version="1.1">
<g id="surface1">
<path style=" stroke:none;fill-rule:nonzero;fill:rgb(0%,0%,0%);fill-opacity:1;" d="M 4.835938 12.328125 L 5.316406 12.613281 C 6.132812 13.085938 7.058594 13.335938 8 13.332031 C 10.945312 13.332031 13.332031 10.945312 13.332031 8 C 13.332031 5.054688 10.945312 2.667969 8 2.667969 C 5.054688 2.667969 2.667969 5.054688 2.667969 8 C 2.667969 8.957031 2.917969 9.875 3.390625 10.683594 L 3.671875 11.164062 L 3.234375 12.765625 Z M 1.335938 14.667969 L 2.238281 11.355469 C 1.644531 10.335938 1.332031 9.179688 1.332031 8 C 1.332031 4.316406 4.316406 1.332031 8 1.332031 C 11.683594 1.332031 14.667969 4.316406 14.667969 8 C 14.667969 11.683594 11.683594 14.667969 8 14.667969 C 6.820312 14.667969 5.664062 14.355469 4.648438 13.761719 Z M 5.59375 4.871094 C 5.683594 4.867188 5.773438 4.867188 5.863281 4.871094 C 5.898438 4.871094 5.933594 4.875 5.96875 4.878906 C 6.078125 4.890625 6.191406 4.957031 6.234375 5.046875 C 6.429688 5.496094 6.625 5.949219 6.8125 6.40625 C 6.851562 6.507812 6.828125 6.636719 6.75 6.765625 C 6.695312 6.851562 6.636719 6.933594 6.574219 7.011719 C 6.5 7.109375 6.335938 7.285156 6.335938 7.285156 C 6.335938 7.285156 6.269531 7.363281 6.296875 7.460938 C 6.304688 7.5 6.335938 7.554688 6.363281 7.597656 L 6.402344 7.664062 C 6.574219 7.949219 6.804688 8.234375 7.082031 8.507812 C 7.164062 8.585938 7.242188 8.664062 7.324219 8.738281 C 7.636719 9.015625 7.992188 9.238281 8.371094 9.40625 L 8.375 9.40625 C 8.433594 9.429688 8.460938 9.445312 8.542969 9.480469 C 8.585938 9.496094 8.628906 9.511719 8.671875 9.523438 C 8.761719 9.546875 8.859375 9.511719 8.914062 9.4375 C 9.398438 8.851562 9.441406 8.816406 9.445312 8.816406 C 9.515625 8.753906 9.605469 8.722656 9.699219 8.730469 C 9.738281 8.734375 9.777344 8.742188 9.816406 8.757812 C 10.171875 8.921875 10.75 9.171875 10.75 9.171875 L 11.136719 9.347656 C 11.203125 9.378906 11.261719 9.453125 11.265625 9.523438 C 11.265625 9.566406 11.269531 9.640625 11.253906 9.773438 C 11.234375 9.945312 11.183594 10.152344 11.128906 10.261719 C 11.09375 10.335938 11.046875 10.402344 10.988281 10.460938 C 10.921875 10.53125 10.847656 10.597656 10.769531 10.652344 C 10.742188 10.675781 10.714844 10.695312 10.6875 10.714844 C 10.605469 10.765625 10.519531 10.816406 10.429688 10.859375 C 10.257812 10.953125 10.070312 11.003906 9.875 11.015625 C 9.753906 11.019531 9.628906 11.03125 9.503906 11.023438 C 9.5 11.023438 9.125 10.964844 9.125 10.964844 C 8.179688 10.714844 7.300781 10.25 6.566406 9.601562 C 6.414062 9.46875 6.277344 9.324219 6.132812 9.183594 C 5.539062 8.59375 5.09375 7.957031 4.820312 7.355469 C 4.679688 7.0625 4.605469 6.738281 4.601562 6.414062 C 4.597656 6.007812 4.730469 5.613281 4.976562 5.292969 C 5.023438 5.230469 5.070312 5.164062 5.148438 5.089844 C 5.234375 5.011719 5.289062 4.96875 5.347656 4.9375 C 5.421875 4.898438 5.507812 4.875 5.59375 4.871094 Z M 5.59375 4.871094 "/>
</g>
</svg>
