<?xml version="1.0" encoding="UTF-8"?>
<svg xmlns="http://www.w3.org/2000/svg" xmlns:xlink="http://www.w3.org/1999/xlink" width="16" height="16" viewBox="0 0 16 16" version="1.1">
<g id="surface1">
<path style=" stroke:none;fill-rule:nonzero;fill:rgb(0%,0%,0%);fill-opacity:1;" d="M 0.460938 4.664062 C 2.59375 2.9375 5.253906 1.996094 8 2 C 10.855469 2 13.480469 2.996094 15.539062 4.664062 L 14.285156 6.21875 C 12.507812 4.78125 10.289062 3.996094 8 4 C 5.621094 4 3.433594 4.832031 1.714844 6.21875 Z M 2.554688 7.257812 C 4.09375 6.011719 6.015625 5.332031 8 5.332031 C 10.0625 5.332031 11.957031 6.054688 13.445312 7.257812 L 12.1875 8.8125 C 11.003906 7.851562 9.523438 7.332031 8 7.332031 C 6.414062 7.332031 4.957031 7.886719 3.8125 8.8125 Z M 4.648438 9.851562 C 5.597656 9.082031 6.78125 8.664062 8 8.667969 C 9.269531 8.667969 10.433594 9.109375 11.351562 9.851562 L 10.09375 11.40625 C 9.503906 10.925781 8.761719 10.664062 8 10.667969 C 7.238281 10.664062 6.496094 10.925781 5.90625 11.40625 Z M 6.742188 12.445312 C 7.097656 12.15625 7.542969 12 8 12 C 8.476562 12 8.914062 12.167969 9.257812 12.445312 L 8 14 Z M 6.742188 12.445312 "/>
</g>
</svg>
