<?xml version="1.0" encoding="UTF-8"?>
<svg xmlns="http://www.w3.org/2000/svg" xmlns:xlink="http://www.w3.org/1999/xlink" width="16" height="16" viewBox="0 0 16 16" version="1.1">
<g id="surface1">
<path style=" stroke:none;fill-rule:evenodd;fill:rgb(0%,0%,0%);fill-opacity:1;" d="M 8 0.00390625 C 3.59375 0.00390625 -0.00390625 3.597656 -0.00390625 8.003906 C -0.00390625 12.410156 3.59375 16 8 16 C 12.40625 16 16 12.410156 16 8.003906 C 16 3.597656 12.40625 0.00390625 8 0.00390625 Z M 9.992188 2.34375 C 10.710938 2.597656 11.367188 2.976562 11.929688 3.46875 C 11.851562 3.648438 11.789062 3.835938 11.734375 4.039062 C 11.550781 4.734375 11.46875 5.5 11.507812 6.039062 C 11.585938 7.136719 12.28125 7.847656 12.601562 8.289062 C 12.878906 8.679688 13.269531 8.804688 13.417969 8.875 C 13.492188 8.90625 13.5 8.929688 13.492188 8.921875 C 13.484375 8.914062 13.5 8.898438 13.5 9 C 13.5 8.976562 13.5 9.039062 13.382812 9.15625 C 13.265625 9.273438 13.0625 9.421875 12.835938 9.578125 C 12.382812 9.890625 11.796875 10.179688 11.539062 10.808594 C 11.355469 11.246094 11.167969 11.9375 11.109375 12.625 C 11.09375 12.800781 11.085938 12.976562 11.09375 13.144531 C 10.1875 13.6875 9.132812 14.007812 8 14.007812 C 7.367188 14.007812 6.757812 13.90625 6.1875 13.726562 C 6.375 13.527344 6.554688 13.332031 6.75 13.097656 C 7.332031 12.40625 7.992188 11.625 8.292969 11.40625 C 8.632812 11.164062 8.964844 11.101562 9.351562 11.015625 C 9.542969 10.96875 9.753906 10.921875 9.96875 10.796875 C 10.183594 10.667969 10.378906 10.4375 10.46875 10.160156 C 10.65625 9.613281 10.46875 9.078125 10.210938 8.667969 C 9.960938 8.257812 9.625 7.921875 9.359375 7.648438 C 8.960938 7.257812 8.453125 7.125 8.054688 7 C 7.65625 6.875 7.398438 6.707031 7.421875 6.742188 C 7.359375 6.640625 7.328125 6.582031 7.3125 6.546875 C 7.3125 6.585938 7.339844 6.484375 7.460938 6.195312 C 7.476562 6.164062 7.816406 5.835938 8.25 5.515625 C 8.683594 5.195312 9.203125 4.816406 9.460938 4.195312 C 9.648438 3.746094 9.902344 3.148438 9.984375 2.503906 C 9.992188 2.453125 9.984375 2.398438 9.992188 2.34375 Z M 2.804688 5 C 2.859375 5.085938 2.917969 5.164062 2.980469 5.242188 C 3.265625 5.589844 3.625 5.890625 3.976562 6.195312 C 4.679688 6.808594 5.34375 7.429688 5.515625 8.121094 C 5.679688 8.808594 5.480469 10.3125 5.179688 11.5625 C 5.039062 12.144531 4.894531 12.65625 4.773438 13.0625 C 3.105469 12 2 10.140625 2 8.003906 C 2 6.90625 2.296875 5.882812 2.804688 5 Z M 2.804688 5 "/>
</g>
</svg>
