<?xml version="1.0" encoding="UTF-8"?>
<svg xmlns="http://www.w3.org/2000/svg" xmlns:xlink="http://www.w3.org/1999/xlink" width="32" height="32" viewBox="0 0 32 32" version="1.1">
<g id="surface1">
<path style=" stroke:none;fill-rule:nonzero;fill:rgb(0%,0%,0%);fill-opacity:1;" d="M 4 4 L 28 4 C 28.738281 4 29.332031 4.597656 29.332031 5.332031 L 29.332031 26.667969 C 29.332031 27.402344 28.738281 28 28 28 L 4 28 C 3.261719 28 2.667969 27.402344 2.667969 26.667969 L 2.667969 5.332031 C 2.667969 4.597656 3.261719 4 4 4 Z M 15.332031 18 L 15.332031 16 L 14 16 L 14 12 L 12 12 L 12 16 L 10 16 L 10 12 L 8 12 L 8 18 L 12 18 L 12 20 L 14 20 L 14 18 Z M 24 20 L 21 16 L 24 12 L 21.667969 12 L 19.332031 15 L 19.332031 12 L 17.332031 12 L 17.332031 20 L 19.332031 20 L 19.332031 17 L 21.667969 20 Z M 24 20 "/>
</g>
</svg>
