<?xml version="1.0" encoding="UTF-8"?>
<svg xmlns="http://www.w3.org/2000/svg" xmlns:xlink="http://www.w3.org/1999/xlink" width="32" height="32" viewBox="0 0 32 32" version="1.1">
<g id="surface1">
<path style=" stroke:none;fill-rule:nonzero;fill:rgb(0%,0%,0%);fill-opacity:1;" d="M 28 4 C 28.738281 4 29.332031 4.597656 29.332031 5.332031 L 29.332031 26.667969 C 29.332031 27.402344 28.738281 28 28 28 L 4 28 C 3.261719 28 2.667969 27.402344 2.667969 26.667969 L 2.667969 5.332031 C 2.667969 4.597656 3.261719 4 4 4 Z M 26.667969 6.667969 L 5.332031 6.667969 L 5.332031 25.332031 L 26.667969 25.332031 Z M 12.53125 10.667969 L 16.796875 21.332031 L 13.925781 21.332031 L 13.390625 20 L 9.003906 20 L 8.46875 21.332031 L 5.597656 21.332031 L 9.867188 10.667969 Z M 25.332031 10.667969 L 25.332031 21.332031 L 21.332031 21.332031 C 19.125 21.332031 17.332031 19.542969 17.332031 17.332031 C 17.332031 15.125 19.125 13.332031 21.332031 13.332031 L 22.664062 13.332031 L 22.667969 10.667969 Z M 22.667969 16 L 21.332031 16 C 20.628906 16 20.046875 16.550781 20.003906 17.253906 C 19.960938 17.960938 20.476562 18.574219 21.175781 18.65625 L 21.332031 18.667969 L 22.667969 18.667969 Z M 11.199219 14.511719 L 10.070312 17.332031 L 12.324219 17.332031 Z M 11.199219 14.511719 "/>
</g>
</svg>
