<?xml version="1.0" encoding="UTF-8"?>
<svg xmlns="http://www.w3.org/2000/svg" xmlns:xlink="http://www.w3.org/1999/xlink" width="32" height="32" viewBox="0 0 32 32" version="1.1">
<g id="surface1">
<path style=" stroke:none;fill-rule:nonzero;fill:rgb(0%,0%,0%);fill-opacity:1;" d="M 18.667969 18 L 18.667969 10.667969 C 18.667969 7.722656 16.277344 5.332031 13.332031 5.332031 C 10.386719 5.332031 8 7.722656 8 10.667969 L 8 18 C 8 22.785156 11.878906 26.667969 16.667969 26.667969 C 21.453125 26.667969 25.332031 22.785156 25.332031 18 L 25.332031 5.332031 L 28 5.332031 L 28 18 C 28 24.257812 22.925781 29.332031 16.667969 29.332031 C 10.40625 29.332031 5.332031 24.257812 5.332031 18 L 5.332031 10.667969 C 5.332031 6.25 8.914062 2.667969 13.332031 2.667969 C 17.75 2.667969 21.332031 6.25 21.332031 10.667969 L 21.332031 18 C 21.332031 20.578125 19.242188 22.667969 16.667969 22.667969 C 14.089844 22.667969 12 20.578125 12 18 L 12 10.667969 L 14.667969 10.667969 L 14.667969 18 C 14.667969 19.105469 15.5625 20 16.667969 20 C 17.769531 20 18.667969 19.105469 18.667969 18 Z M 18.667969 18 "/>
</g>
</svg>
