<?xml version="1.0" encoding="UTF-8"?>
<svg xmlns="http://www.w3.org/2000/svg" xmlns:xlink="http://www.w3.org/1999/xlink" width="32" height="32" viewBox="0 0 32 32" version="1.1">
<g id="surface1">
<path style=" stroke:none;fill-rule:nonzero;fill:rgb(0%,0%,0%);fill-opacity:1;" d="M 23.332031 2.667969 C 25.835938 2.667969 28.078125 4.222656 28.953125 6.566406 C 29.828125 8.910156 29.15625 11.554688 27.269531 13.195312 C 27.742188 14.484375 28 15.878906 28 17.332031 C 27.996094 22.125 25.144531 26.457031 20.742188 28.351562 C 16.335938 30.242188 11.230469 29.335938 7.75 26.039062 C 4.269531 22.746094 3.082031 17.695312 4.734375 13.195312 C 2.949219 11.644531 2.242188 9.191406 2.925781 6.929688 C 3.613281 4.664062 5.5625 3.015625 7.90625 2.714844 C 10.25 2.414062 12.554688 3.519531 13.789062 5.539062 C 15.25 5.265625 16.75 5.265625 18.214844 5.539062 C 19.304688 3.753906 21.242188 2.664062 23.332031 2.667969 Z M 23.332031 5.332031 C 22.234375 5.332031 21.234375 5.867188 20.617188 6.734375 L 20.488281 6.929688 L 19.53125 8.496094 L 17.726562 8.160156 C 16.726562 7.972656 15.707031 7.949219 14.703125 8.089844 L 14.28125 8.160156 L 12.472656 8.5 L 11.511719 6.929688 C 10.84375 5.835938 9.605469 5.21875 8.324219 5.351562 C 7.046875 5.484375 5.960938 6.339844 5.527344 7.550781 C 5.097656 8.757812 5.398438 10.109375 6.308594 11.019531 L 6.480469 11.183594 L 7.871094 12.390625 L 7.234375 14.117188 C 5.953125 17.617188 6.878906 21.542969 9.585938 24.105469 C 12.289062 26.667969 16.261719 27.371094 19.6875 25.898438 C 23.109375 24.429688 25.332031 21.058594 25.332031 17.332031 C 25.332031 16.378906 25.191406 15.445312 24.914062 14.554688 L 24.765625 14.117188 L 24.132812 12.390625 L 25.519531 11.183594 C 26.570312 10.273438 26.941406 8.804688 26.457031 7.5 C 25.96875 6.195312 24.722656 5.332031 23.332031 5.332031 Z M 13.332031 17.332031 C 13.332031 18.804688 14.527344 20 16 20 C 17.472656 20 18.667969 18.804688 18.667969 17.332031 L 21.332031 17.332031 C 21.332031 20.277344 18.945312 22.667969 16 22.667969 C 13.054688 22.667969 10.667969 20.277344 10.667969 17.332031 Z M 13.332031 17.332031 "/>
</g>
</svg>
