<?xml version="1.0" encoding="UTF-8"?>
<svg xmlns="http://www.w3.org/2000/svg" xmlns:xlink="http://www.w3.org/1999/xlink" width="32" height="32" viewBox="0 0 32 32" version="1.1">
<g id="surface1">
<path style=" stroke:none;fill-rule:evenodd;fill:rgb(0%,0%,0%);fill-opacity:1;" d="M 10.464844 1.890625 C 10.136719 2.136719 9.828125 2.410156 9.535156 2.703125 C 7.191406 5.042969 6.296875 8.472656 7.203125 11.660156 C 3 12.574219 0.00390625 16.292969 0 20.589844 C 0 21 0.03125 21.410156 0.0859375 21.8125 C 0.609375 18.480469 3.480469 16.023438 6.855469 16.019531 C 10.644531 16.019531 13.714844 19.09375 13.714844 22.878906 C 13.714844 26.257812 11.257812 29.128906 7.921875 29.652344 C 8.328125 29.707031 8.734375 29.738281 9.144531 29.734375 C 11.683594 29.734375 14.105469 28.679688 15.835938 26.820312 C 17.570312 28.90625 20.144531 30.109375 22.855469 30.109375 C 23.746094 30.109375 24.628906 29.980469 25.480469 29.722656 C 25.367188 29.730469 25.257812 29.734375 25.144531 29.734375 C 21.355469 29.738281 18.285156 26.667969 18.285156 22.878906 C 18.285156 19.09375 21.355469 16.019531 25.144531 16.019531 C 28.589844 16.023438 31.5 18.582031 31.941406 21.996094 C 31.980469 21.65625 32 21.3125 32 20.964844 C 31.996094 16.625 28.941406 12.882812 24.6875 12.011719 C 25.761719 8.738281 24.902344 5.136719 22.464844 2.703125 C 22.171875 2.410156 21.863281 2.140625 21.535156 1.894531 C 23.523438 4.621094 23.234375 8.390625 20.847656 10.777344 C 18.171875 13.457031 13.828125 13.457031 11.152344 10.777344 C 8.765625 8.390625 8.472656 4.617188 10.464844 1.890625 Z M 16 14.707031 C 17.105469 14.707031 18 15.605469 18 16.707031 C 18 17.8125 17.105469 18.707031 16 18.707031 C 14.894531 18.707031 14 17.8125 14 16.707031 C 14 15.605469 14.894531 14.707031 16 14.707031 Z M 16 14.707031 "/>
<path style=" stroke:none;fill-rule:evenodd;fill:rgb(0%,0%,0%);fill-opacity:1;" d="M 16.085938 7.46875 C 15.523438 7.464844 14.957031 7.519531 14.390625 7.632812 L 14.375 7.632812 C 13.484375 7.777344 12.664062 8.097656 11.886719 8.496094 C 12.085938 8.828125 12.316406 9.152344 12.601562 9.4375 C 12.839844 9.675781 13.09375 9.886719 13.363281 10.066406 C 13.363281 10.066406 13.367188 10.066406 13.367188 10.066406 C 13.800781 9.886719 14.25 9.742188 14.714844 9.667969 C 14.730469 9.664062 14.742188 9.660156 14.757812 9.65625 L 14.757812 9.652344 C 16.054688 9.386719 17.410156 9.578125 18.636719 10.101562 C 18.929688 9.914062 19.210938 9.695312 19.46875 9.4375 C 19.746094 9.160156 19.964844 8.855469 20.160156 8.535156 C 18.90625 7.878906 17.519531 7.476562 16.085938 7.46875 Z M 9.21875 11.464844 C 9.359375 12.496094 8.683594 13.464844 7.664062 13.6875 C 7.550781 13.710938 7.464844 13.78125 7.378906 13.851562 C 7.347656 13.949219 7.3125 14.042969 7.285156 14.140625 C 8 14.175781 8.683594 14.316406 9.335938 14.527344 C 9.542969 13.871094 9.859375 13.253906 10.246094 12.679688 C 10.085938 12.546875 9.921875 12.414062 9.773438 12.265625 C 9.535156 12.027344 9.421875 11.722656 9.21875 11.464844 Z M 22.800781 11.535156 C 22.613281 11.769531 22.511719 12.050781 22.296875 12.265625 C 22.140625 12.421875 21.96875 12.558594 21.800781 12.699219 C 22.195312 13.28125 22.507812 13.914062 22.683594 14.59375 C 23.296875 14.402344 23.929688 14.257812 24.597656 14.210938 C 24.488281 14.183594 24.433594 14.070312 24.324219 14.046875 C 23.777344 13.9375 23.300781 13.601562 23.011719 13.125 C 22.722656 12.648438 22.648438 12.070312 22.800781 11.535156 Z M 7.152344 18.121094 C 7.597656 20.765625 9.261719 23.035156 11.53125 24.339844 C 11.660156 23.898438 11.75 23.4375 11.75 22.953125 C 11.75 22.574219 11.699219 22.214844 11.621094 21.863281 C 10.636719 21.054688 9.863281 20 9.433594 18.820312 C 8.765625 18.410156 7.992188 18.164062 7.152344 18.121094 Z M 24.898438 18.121094 C 24.023438 18.171875 23.214844 18.433594 22.527344 18.878906 C 22.105469 19.984375 21.386719 20.964844 20.484375 21.75 C 20.386719 22.136719 20.320312 22.535156 20.320312 22.953125 C 20.320312 23.417969 20.402344 23.859375 20.523438 24.285156 C 22.769531 22.964844 24.441406 20.722656 24.898438 18.121094 Z M 15.691406 23.445312 C 15.625 23.960938 15.503906 24.457031 15.382812 24.957031 C 15.84375 24.839844 16.332031 24.890625 16.757812 25.101562 C 16.617188 24.554688 16.460938 24.011719 16.386719 23.445312 C 16.304688 23.449219 16.226562 23.472656 16.144531 23.472656 C 16.128906 23.472656 16.117188 23.472656 16.101562 23.472656 C 15.964844 23.476562 15.828125 23.449219 15.691406 23.445312 Z M 15.691406 23.445312 "/>
</g>
</svg>
