<?xml version="1.0" encoding="UTF-8"?>
<svg xmlns="http://www.w3.org/2000/svg" xmlns:xlink="http://www.w3.org/1999/xlink" width="32" height="32" viewBox="0 0 32 32" version="1.1">
<g id="surface1">
<path style=" stroke:none;fill-rule:nonzero;fill:rgb(0%,0%,0%);fill-opacity:1;" d="M 8.296875 1.988281 L 6.738281 16.011719 C 6.683594 16.519531 6.84375 17.023438 7.183594 17.402344 C 7.523438 17.78125 8.007812 18 8.519531 18 L 14.519531 18 L 12.519531 32 L 25.035156 12.328125 C 25.332031 11.863281 25.351562 11.269531 25.085938 10.785156 C 24.820312 10.300781 24.308594 10 23.757812 10 L 16.519531 10 L 19.773438 1.855469 C 19.941406 1.441406 19.890625 0.96875 19.640625 0.59375 C 19.386719 0.222656 18.96875 0 18.519531 0 L 10.519531 0 C 9.378906 0 8.421875 0.855469 8.296875 1.988281 Z M 8.296875 1.988281 "/>
</g>
</svg>
