<?xml version="1.0" encoding="UTF-8"?>
<svg xmlns="http://www.w3.org/2000/svg" xmlns:xlink="http://www.w3.org/1999/xlink" width="32" height="32" viewBox="0 0 32 32" version="1.1">
<g id="surface1">
<path style=" stroke:none;fill-rule:nonzero;fill:rgb(0%,0%,0%);fill-opacity:1;" d="M 5.332031 2.667969 L 26.667969 2.667969 C 27.402344 2.667969 28 3.261719 28 4 L 28 29.703125 C 28 29.925781 27.886719 30.136719 27.695312 30.261719 C 27.507812 30.382812 27.269531 30.402344 27.0625 30.3125 L 16 25.375 L 4.9375 30.308594 C 4.734375 30.402344 4.492188 30.382812 4.304688 30.261719 C 4.113281 30.136719 4 29.925781 4 29.703125 L 4 4 C 4 3.261719 4.597656 2.667969 5.332031 2.667969 Z M 25.332031 26.621094 L 25.332031 5.332031 L 6.667969 5.332031 L 6.667969 26.621094 L 16 22.453125 Z M 16 18 L 12.082031 20.058594 L 12.828125 15.699219 L 9.660156 12.605469 L 14.042969 11.96875 L 16 8 L 17.960938 11.96875 L 22.339844 12.605469 L 19.171875 15.699219 L 19.917969 20.058594 Z M 16 18 "/>
</g>
</svg>
