<?xml version="1.0" encoding="UTF-8"?>
<svg xmlns="http://www.w3.org/2000/svg" xmlns:xlink="http://www.w3.org/1999/xlink" width="32" height="32" viewBox="0 0 32 32" version="1.1">
<g id="surface1">
<path style=" stroke:none;fill-rule:nonzero;fill:rgb(0%,0%,0%);fill-opacity:1;" d="M 5.859375 0.0117188 C 4.652344 0.0117188 3.625 0.527344 2.964844 1.296875 C 2.335938 2.03125 2.035156 2.949219 2.007812 3.875 C 2 3.914062 1.996094 3.957031 1.996094 3.996094 C 1.996094 4 1.996094 4.003906 1.996094 4.011719 L 1.996094 28.019531 C 1.996094 28.09375 1.984375 28.167969 1.988281 28.242188 C 2.035156 29.183594 2.359375 30.128906 3.023438 30.84375 C 3.6875 31.554688 4.695312 31.992188 5.855469 31.992188 L 29.035156 31.992188 C 29.570312 31.988281 30.007812 31.554688 30.011719 31.015625 C 30.015625 30.476562 29.578125 30.03125 29.035156 30.027344 L 26.984375 30.027344 L 26.984375 26.007812 L 29.039062 26.007812 C 29.5625 26.003906 29.988281 25.5625 29.992188 25.019531 L 29.992188 1.011719 C 29.996094 0.464844 29.570312 0.015625 29.039062 0.0078125 L 11.648438 0.0078125 Z M 5.859375 26.011719 L 25.019531 26.011719 L 25.019531 30.03125 L 5.855469 30.03125 C 5.164062 30.03125 4.769531 29.820312 4.46875 29.5 C 4.171875 29.179688 3.980469 28.695312 3.953125 28.140625 C 3.925781 27.628906 4.082031 27.0625 4.386719 26.667969 C 4.699219 26.28125 5.121094 26.011719 5.859375 26.011719 Z M 5.859375 26.011719 "/>
</g>
</svg>
