<?xml version="1.0" encoding="UTF-8"?>
<svg xmlns="http://www.w3.org/2000/svg" xmlns:xlink="http://www.w3.org/1999/xlink" width="32" height="32" viewBox="0 0 32 32" version="1.1">
<g id="surface1">
<path style=" stroke:none;fill-rule:nonzero;fill:rgb(0%,0%,0%);fill-opacity:1;" d="M 16 2.667969 C 18.945312 2.667969 21.332031 5.054688 21.332031 8 L 21.332031 20 L 22.667969 20 C 23.398438 20 24 19.398438 24 18.667969 L 24 10.667969 C 24 9.929688 24.597656 9.332031 25.332031 9.332031 C 26.070312 9.332031 26.667969 9.929688 26.667969 10.667969 L 26.667969 18.667969 C 26.667969 20.875 24.875 22.667969 22.667969 22.667969 L 21.332031 22.667969 L 21.332031 26.667969 L 24 26.667969 L 24 29.332031 L 8 29.332031 L 8 26.667969 L 10.667969 26.667969 L 10.667969 18.667969 L 9.332031 18.667969 C 7.125 18.667969 5.332031 16.875 5.332031 14.667969 L 5.332031 12 C 5.332031 11.265625 5.929688 10.667969 6.667969 10.667969 C 7.402344 10.667969 8 11.265625 8 12 L 8 14.667969 C 8 15.398438 8.601562 16 9.332031 16 L 10.667969 16 L 10.667969 8 C 10.667969 5.054688 13.054688 2.667969 16 2.667969 Z M 16 2.667969 "/>
</g>
</svg>
