<?xml version="1.0" encoding="UTF-8"?>
<svg xmlns="http://www.w3.org/2000/svg" xmlns:xlink="http://www.w3.org/1999/xlink" width="32" height="32" viewBox="0 0 32 32" version="1.1">
<g id="surface1">
<path style=" stroke:none;fill-rule:nonzero;fill:rgb(0%,0%,0%);fill-opacity:1;" d="M 10.667969 8 L 10.667969 13.332031 L 14.667969 13.332031 L 14.667969 8 L 17.332031 8 L 17.332031 13.332031 L 21.332031 13.332031 L 21.332031 8 L 24 8 L 24 13.332031 L 25.332031 13.332031 C 27.453125 13.332031 29.203125 14.984375 29.328125 17.097656 L 29.332031 17.332031 L 29.332031 18.667969 C 29.332031 20.019531 28.832031 21.253906 28 22.191406 L 28 28 C 28 28.738281 27.402344 29.332031 26.667969 29.332031 L 5.332031 29.332031 C 4.597656 29.332031 4 28.738281 4 28 L 4 22.1875 C 3.285156 21.371094 2.832031 20.355469 2.703125 19.277344 L 2.675781 18.941406 L 2.667969 18.667969 L 2.667969 17.332031 C 2.667969 15.214844 4.316406 13.464844 6.433594 13.339844 L 6.667969 13.332031 L 8 13.332031 L 8 8 Z M 12.003906 22.1875 L 11.929688 22.273438 C 11.058594 23.226562 9.863281 23.828125 8.578125 23.96875 L 8.273438 23.992188 L 8 24 C 7.539062 24 7.09375 23.941406 6.667969 23.832031 L 6.667969 26.667969 L 25.332031 26.667969 L 25.332031 23.832031 C 23.558594 24.289062 21.675781 23.804688 20.339844 22.546875 L 20.140625 22.347656 L 20 22.191406 L 19.855469 22.347656 C 18.992188 23.257812 17.835938 23.832031 16.589844 23.96875 L 16.265625 23.996094 L 16 24 C 14.605469 24.003906 13.265625 23.453125 12.269531 22.476562 L 12.070312 22.265625 Z M 25.332031 16 L 6.667969 16 C 5.992188 16 5.421875 16.507812 5.34375 17.175781 L 5.332031 17.332031 L 5.332031 18.628906 L 5.335938 18.824219 C 5.421875 20.234375 6.589844 21.332031 8 21.332031 C 9.320312 21.335938 10.441406 20.371094 10.640625 19.066406 L 10.660156 18.863281 L 10.667969 18.628906 C 10.714844 16.964844 13.101562 16.902344 13.320312 18.449219 L 13.332031 18.628906 L 13.335938 18.824219 C 13.414062 20.230469 14.570312 21.332031 15.980469 21.34375 C 17.386719 21.355469 18.5625 20.269531 18.660156 18.867188 L 18.675781 18.488281 C 18.839844 16.949219 21.160156 16.949219 21.324219 18.488281 L 21.339844 18.867188 C 21.4375 20.261719 22.601562 21.34375 24 21.34375 C 25.398438 21.34375 26.5625 20.261719 26.660156 18.867188 L 26.667969 18.667969 L 26.667969 17.332031 C 26.667969 16.65625 26.160156 16.089844 25.488281 16.007812 Z M 9.332031 1.332031 C 11.09375 2.496094 11.550781 4.117188 11.265625 5.183594 C 10.980469 6.25 9.882812 6.882812 8.816406 6.597656 C 7.75 6.3125 7.117188 5.214844 7.402344 4.148438 C 7.800781 2.667969 9.332031 3.332031 9.332031 1.332031 Z M 16 1.332031 C 17.761719 2.496094 18.21875 4.117188 17.933594 5.183594 C 17.644531 6.25 16.550781 6.882812 15.484375 6.597656 C 14.414062 6.3125 13.78125 5.214844 14.066406 4.148438 C 14.464844 2.667969 16 3.332031 16 1.332031 Z M 22.667969 1.332031 C 24.425781 2.496094 24.882812 4.117188 24.597656 5.183594 C 24.3125 6.25 23.214844 6.882812 22.148438 6.597656 C 21.082031 6.3125 20.449219 5.214844 20.734375 4.148438 C 21.132812 2.667969 22.667969 3.332031 22.667969 1.332031 Z M 22.667969 1.332031 "/>
</g>
</svg>
