<?xml version="1.0" encoding="UTF-8"?>
<svg xmlns="http://www.w3.org/2000/svg" xmlns:xlink="http://www.w3.org/1999/xlink" width="32" height="32" viewBox="0 0 32 32" version="1.1">
<g id="surface1">
<path style=" stroke:none;fill-rule:nonzero;fill:rgb(0%,0%,0%);fill-opacity:1;" d="M 25.332031 28 L 6.667969 28 L 6.667969 29.332031 C 6.667969 30.070312 6.070312 30.667969 5.332031 30.667969 L 4 30.667969 C 3.261719 30.667969 2.667969 30.070312 2.667969 29.332031 L 2.667969 17.332031 L 5.890625 11.960938 C 6.371094 11.15625 7.238281 10.667969 8.175781 10.667969 L 23.824219 10.667969 C 24.761719 10.667969 25.628906 11.15625 26.109375 11.960938 L 29.332031 17.332031 L 29.332031 29.332031 C 29.332031 30.070312 28.738281 30.667969 28 30.667969 L 26.667969 30.667969 C 25.929688 30.667969 25.332031 30.070312 25.332031 29.332031 Z M 5.777344 17.332031 L 26.222656 17.332031 L 23.824219 13.332031 L 8.175781 13.332031 Z M 8.667969 24 C 9.769531 24 10.667969 23.105469 10.667969 22 C 10.667969 20.894531 9.769531 20 8.667969 20 C 7.5625 20 6.667969 20.894531 6.667969 22 C 6.667969 23.105469 7.5625 24 8.667969 24 Z M 23.332031 24 C 24.4375 24 25.332031 23.105469 25.332031 22 C 25.332031 20.894531 24.4375 20 23.332031 20 C 22.230469 20 21.332031 20.894531 21.332031 22 C 21.332031 23.105469 22.230469 24 23.332031 24 Z M 7.253906 4.585938 L 8.667969 3.171875 L 10.078125 4.585938 C 10.859375 5.363281 10.863281 6.632812 10.082031 7.414062 C 9.300781 8.195312 8.03125 8.195312 7.25 7.414062 C 6.46875 6.632812 6.472656 5.363281 7.253906 4.585938 Z M 14.585938 4.585938 L 16 3.171875 L 17.414062 4.585938 C 18.195312 5.363281 18.195312 6.632812 17.414062 7.414062 C 16.632812 8.195312 15.367188 8.195312 14.585938 7.414062 C 13.804688 6.632812 13.804688 5.363281 14.585938 4.585938 Z M 21.921875 4.585938 L 23.332031 3.171875 L 24.746094 4.585938 C 25.527344 5.367188 25.527344 6.632812 24.746094 7.414062 C 23.964844 8.195312 22.699219 8.195312 21.917969 7.414062 C 21.136719 6.632812 21.136719 5.367188 21.917969 4.585938 Z M 21.921875 4.585938 "/>
</g>
</svg>
