<?xml version="1.0" encoding="UTF-8"?>
<svg xmlns="http://www.w3.org/2000/svg" xmlns:xlink="http://www.w3.org/1999/xlink" width="32" height="32" viewBox="0 0 32 32" version="1.1">
<g id="surface1">
<path style=" stroke:none;fill-rule:nonzero;fill:rgb(0%,0%,0%);fill-opacity:1;" d="M 18.894531 4 C 19.601562 4 20.28125 4.28125 20.78125 4.78125 L 27.21875 11.21875 C 27.71875 11.71875 28 12.398438 28 13.105469 L 28 22.667969 L 30.667969 22.667969 L 30.667969 25.332031 L 19.832031 25.332031 C 19.238281 27.632812 17.152344 29.332031 14.667969 29.332031 C 12.179688 29.332031 10.09375 27.632812 9.5 25.332031 L 4 25.332031 C 3.265625 25.332031 2.667969 24.734375 2.667969 24 L 2.667969 6.667969 C 2.667969 5.191406 3.859375 4 5.332031 4 Z M 14.667969 21.332031 C 13.191406 21.332031 12 22.527344 12 24 C 12 25.472656 13.191406 26.667969 14.667969 26.667969 C 16.140625 26.667969 17.332031 25.472656 17.332031 24 C 17.332031 22.527344 16.140625 21.332031 14.667969 21.332031 Z M 18.894531 6.667969 L 5.332031 6.667969 L 5.332031 22.667969 L 9.5 22.667969 C 10.09375 20.367188 12.179688 18.667969 14.667969 18.667969 C 17.152344 18.667969 19.238281 20.367188 19.832031 22.667969 L 25.332031 22.667969 L 25.332031 13.105469 Z M 18.667969 9.332031 L 18.667969 17.332031 L 8 17.332031 L 8 9.332031 Z M 16 12 L 10.667969 12 L 10.667969 14.667969 L 16 14.667969 Z M 16 12 "/>
</g>
</svg>
