<?xml version="1.0" encoding="UTF-8"?>
<svg xmlns="http://www.w3.org/2000/svg" xmlns:xlink="http://www.w3.org/1999/xlink" width="32" height="32" viewBox="0 0 32 32" version="1.1">
<g id="surface1">
<path style=" stroke:none;fill-rule:nonzero;fill:rgb(0%,0%,0%);fill-opacity:1;" d="M 6 13.332031 C 3.421875 13.332031 1.332031 11.242188 1.332031 8.667969 C 1.332031 6.089844 3.421875 4 6 4 C 8.578125 4 10.667969 6.089844 10.667969 8.667969 C 10.667969 11.242188 8.578125 13.332031 6 13.332031 Z M 6 10.667969 C 7.105469 10.667969 8 9.769531 8 8.667969 C 8 7.5625 7.105469 6.667969 6 6.667969 C 4.894531 6.667969 4 7.5625 4 8.667969 C 4 9.769531 4.894531 10.667969 6 10.667969 Z M 29.332031 13.332031 L 26.667969 13.332031 C 26.667969 10.386719 24.277344 8 21.332031 8 C 18.386719 8 16 10.386719 16 13.332031 L 16 20 C 16 22.945312 18.386719 25.332031 21.332031 25.332031 C 24.277344 25.332031 26.667969 22.945312 26.667969 20 L 29.332031 20 C 29.332031 24.417969 25.75 28 21.332031 28 C 16.914062 28 13.332031 24.417969 13.332031 20 L 13.332031 13.332031 C 13.332031 8.914062 16.914062 5.332031 21.332031 5.332031 C 25.75 5.332031 29.332031 8.914062 29.332031 13.332031 Z M 29.332031 13.332031 "/>
</g>
</svg>
