<?xml version="1.0" encoding="UTF-8"?>
<svg xmlns="http://www.w3.org/2000/svg" xmlns:xlink="http://www.w3.org/1999/xlink" width="32" height="32" viewBox="0 0 32 32" version="1.1">
<g id="surface1">
<path style=" stroke:none;fill-rule:nonzero;fill:rgb(0%,0%,0%);fill-opacity:1;" d="M 15.945312 0.824219 C 15.9375 0.824219 15.929688 0.824219 15.921875 0.828125 C 15.742188 0.84375 15.574219 0.90625 15.429688 1.011719 L 0.519531 11.804688 C 0.167969 12.058594 0.0234375 12.507812 0.15625 12.921875 L 5.800781 30.441406 C 5.929688 30.855469 6.316406 31.136719 6.75 31.140625 L 25.167969 31.179688 C 25.59375 31.175781 25.972656 30.902344 26.109375 30.496094 L 31.847656 12.984375 C 31.976562 12.570312 31.828125 12.121094 31.476562 11.871094 L 16.617188 1.019531 C 16.421875 0.875 16.183594 0.804688 15.945312 0.824219 Z M 16.976562 3.753906 L 28.789062 12.382812 L 26.417969 13.261719 L 16.976562 7.613281 Z M 14.976562 3.816406 L 14.976562 7.640625 L 5.863281 13.417969 L 3.101562 12.394531 Z M 16.976562 9.9375 L 24.023438 14.148438 L 16.976562 16.753906 Z M 14.976562 10.003906 L 14.976562 16.789062 L 8.21875 14.289062 Z M 29.289062 14.34375 L 26.460938 23 L 27.382812 15.046875 Z M 2.722656 14.390625 L 4.945312 15.214844 L 8.753906 25.734375 L 7.148438 28.089844 Z M 25.277344 15.824219 L 23.96875 27.1875 L 18.054688 18.492188 Z M 7.398438 16.125 L 13.703125 18.460938 L 10.140625 23.695312 Z M 15.867188 18.835938 L 21.976562 27.800781 L 11.355469 25.457031 Z M 10.140625 27.242188 L 18.871094 29.164062 L 8.847656 29.140625 Z M 10.140625 27.242188 "/>
</g>
</svg>
