<?xml version="1.0" encoding="UTF-8"?>
<svg xmlns="http://www.w3.org/2000/svg" xmlns:xlink="http://www.w3.org/1999/xlink" width="32" height="32" viewBox="0 0 32 32" version="1.1">
<g id="surface1">
<path style=" stroke:none;fill-rule:nonzero;fill:rgb(0%,0%,0%);fill-opacity:1;" d="M 0.988281 2 C 0.441406 2.007812 -0.00390625 2.453125 0 3.003906 L 0 28.996094 C -0.00390625 29.546875 0.441406 29.992188 0.988281 30 L 30.996094 30 C 31.550781 30.003906 32.003906 29.550781 32 28.996094 C 32.003906 28.441406 31.550781 27.988281 30.996094 27.992188 L 1.992188 27.992188 L 1.992188 3.003906 C 1.996094 2.449219 1.542969 1.996094 0.988281 2 Z M 0.988281 2 "/>
<path style=" stroke:none;fill-rule:nonzero;fill:rgb(0%,0%,0%);fill-opacity:1;" d="M 30.429688 10.453125 C 30.367188 10.460938 30.308594 10.476562 30.25 10.496094 L 4.089844 18.882812 C 3.5625 19.050781 3.273438 19.613281 3.441406 20.136719 C 3.609375 20.664062 4.167969 20.953125 4.695312 20.789062 L 30.855469 12.402344 C 31.113281 12.320312 31.324219 12.140625 31.445312 11.902344 C 31.570312 11.664062 31.589844 11.386719 31.507812 11.132812 C 31.355469 10.675781 30.902344 10.390625 30.429688 10.453125 Z M 30.429688 10.453125 "/>
<path style=" stroke:none;fill-rule:evenodd;fill:rgb(0%,0%,0%);fill-opacity:1;" d="M 10.410156 11.761719 C 10.410156 13.144531 9.292969 14.261719 7.910156 14.261719 C 6.53125 14.261719 5.410156 13.144531 5.410156 11.761719 C 5.410156 10.382812 6.53125 9.261719 7.910156 9.261719 C 9.292969 9.261719 10.410156 10.382812 10.410156 11.761719 "/>
<path style=" stroke:none;fill-rule:evenodd;fill:rgb(0%,0%,0%);fill-opacity:1;" d="M 19.648438 10.265625 C 19.648438 11.644531 18.53125 12.765625 17.148438 12.765625 C 15.769531 12.765625 14.648438 11.644531 14.648438 10.265625 C 14.648438 8.882812 15.769531 7.765625 17.148438 7.765625 C 18.53125 7.765625 19.648438 8.882812 19.648438 10.265625 "/>
<path style=" stroke:none;fill-rule:evenodd;fill:rgb(0%,0%,0%);fill-opacity:1;" d="M 28.410156 6.761719 C 28.410156 8.144531 27.292969 9.261719 25.910156 9.261719 C 24.53125 9.261719 23.410156 8.144531 23.410156 6.761719 C 23.410156 5.382812 24.53125 4.261719 25.910156 4.261719 C 27.292969 4.261719 28.410156 5.382812 28.410156 6.761719 "/>
<path style=" stroke:none;fill-rule:evenodd;fill:rgb(0%,0%,0%);fill-opacity:1;" d="M 16.410156 22.761719 C 16.410156 24.144531 15.292969 25.261719 13.910156 25.261719 C 12.53125 25.261719 11.410156 24.144531 11.410156 22.761719 C 11.410156 21.382812 12.53125 20.261719 13.910156 20.261719 C 15.292969 20.261719 16.410156 21.382812 16.410156 22.761719 "/>
<path style=" stroke:none;fill-rule:evenodd;fill:rgb(0%,0%,0%);fill-opacity:1;" d="M 27.410156 20.761719 C 27.410156 22.144531 26.292969 23.261719 24.910156 23.261719 C 23.53125 23.261719 22.410156 22.144531 22.410156 20.761719 C 22.410156 19.382812 23.53125 18.261719 24.910156 18.261719 C 26.292969 18.261719 27.410156 19.382812 27.410156 20.761719 "/>
</g>
</svg>
