<?xml version="1.0" encoding="UTF-8"?>
<svg xmlns="http://www.w3.org/2000/svg" xmlns:xlink="http://www.w3.org/1999/xlink" width="32" height="32" viewBox="0 0 32 32" version="1.1">
<g id="surface1">
<path style=" stroke:none;fill-rule:nonzero;fill:rgb(0%,0%,0%);fill-opacity:1;" d="M 21.445312 9.996094 C 21.171875 10.03125 20.925781 10.183594 20.765625 10.410156 L 16.808594 15.945312 L 14.136719 12.828125 C 13.925781 12.578125 13.601562 12.449219 13.273438 12.480469 C 12.949219 12.511719 12.65625 12.703125 12.496094 12.992188 L 9.929688 17.554688 L 5.957031 11.324219 C 5.789062 11.054688 5.5 10.878906 5.183594 10.855469 C 4.863281 10.832031 4.554688 10.964844 4.347656 11.207031 L 0.347656 15.871094 C 0.171875 16.070312 0.0859375 16.335938 0.105469 16.601562 C 0.121094 16.867188 0.246094 17.113281 0.449219 17.289062 C 0.652344 17.460938 0.917969 17.546875 1.183594 17.523438 C 1.449219 17.503906 1.695312 17.375 1.867188 17.171875 L 4.996094 13.523438 L 9.148438 20.035156 C 9.335938 20.328125 9.664062 20.503906 10.015625 20.496094 C 10.367188 20.488281 10.6875 20.296875 10.859375 19.988281 L 13.546875 15.222656 L 16.113281 18.203125 C 16.3125 18.441406 16.609375 18.574219 16.917969 18.5625 C 17.226562 18.550781 17.515625 18.394531 17.695312 18.144531 L 21.503906 12.800781 L 22.90625 15.132812 C 23 15.289062 23.132812 15.414062 23.289062 15.503906 L 27.867188 17.9375 C 28.351562 18.191406 28.953125 18.007812 29.210938 17.523438 C 29.464844 17.042969 29.289062 16.445312 28.8125 16.179688 L 24.484375 13.863281 L 22.433594 10.46875 C 22.226562 10.128906 21.839844 9.941406 21.445312 9.996094 Z M 21.445312 9.996094 "/>
<path style=" stroke:none;fill-rule:nonzero;fill:rgb(0%,0%,0%);fill-opacity:1;" d="M 0.988281 2 C 0.441406 2.007812 -0.00390625 2.453125 0 3.003906 L 0 28.996094 C -0.00390625 29.546875 0.441406 29.992188 0.988281 30 L 30.996094 30 C 31.550781 30.003906 32.003906 29.550781 32 28.996094 C 32.003906 28.441406 31.550781 27.988281 30.996094 27.992188 L 1.992188 27.992188 L 1.992188 3.003906 C 1.996094 2.449219 1.542969 1.996094 0.988281 2 Z M 0.988281 2 "/>
</g>
</svg>
