<?xml version="1.0" encoding="UTF-8"?>
<svg xmlns="http://www.w3.org/2000/svg" xmlns:xlink="http://www.w3.org/1999/xlink" width="32" height="32" viewBox="0 0 32 32" version="1.1">
<g id="surface1">
<path style=" stroke:none;fill-rule:nonzero;fill:rgb(0%,0%,0%);fill-opacity:1;" d="M 9.722656 27.765625 L 2.667969 29.332031 L 4.234375 22.277344 C 3.203125 20.347656 2.664062 18.191406 2.667969 16 C 2.667969 8.636719 8.636719 2.667969 16 2.667969 C 23.363281 2.667969 29.332031 8.636719 29.332031 16 C 29.332031 23.363281 23.363281 29.332031 16 29.332031 C 13.808594 29.335938 11.652344 28.796875 9.722656 27.765625 Z M 10.109375 24.949219 L 10.980469 25.414062 C 12.523438 26.238281 14.25 26.671875 16 26.667969 C 21.890625 26.667969 26.667969 21.890625 26.667969 16 C 26.667969 10.109375 21.890625 5.332031 16 5.332031 C 10.109375 5.332031 5.332031 10.109375 5.332031 16 C 5.332031 17.777344 5.765625 19.492188 6.585938 21.019531 L 7.050781 21.890625 L 6.179688 25.820312 Z M 10.109375 24.949219 "/>
</g>
</svg>
