<?xml version="1.0" encoding="UTF-8"?>
<svg xmlns="http://www.w3.org/2000/svg" xmlns:xlink="http://www.w3.org/1999/xlink" width="32" height="32" viewBox="0 0 32 32" version="1.1">
<g id="surface1">
<path style=" stroke:none;fill-rule:nonzero;fill:rgb(0%,0%,0%);fill-opacity:1;" d="M 28 4 C 28.734375 4 29.332031 4.597656 29.332031 5.332031 L 29.332031 24 C 29.332031 24.734375 28.734375 25.332031 28 25.332031 L 8.605469 25.332031 L 2.667969 30 L 2.667969 5.332031 C 2.667969 4.597656 3.265625 4 4 4 Z M 26.667969 6.667969 L 5.332031 6.667969 L 5.332031 24.511719 L 7.683594 22.667969 L 26.667969 22.667969 Z M 14.019531 9.882812 L 14.617188 10.800781 C 12.390625 12.003906 12.429688 13.9375 12.429688 14.351562 C 12.636719 14.324219 12.855469 14.320312 13.070312 14.339844 C 14.273438 14.453125 15.222656 15.441406 15.222656 16.667969 C 15.222656 17.953125 14.175781 19 12.886719 19 C 12.171875 19 11.488281 18.671875 11.054688 18.214844 C 10.371094 17.484375 10 16.667969 10 15.339844 C 10 13.007812 11.636719 10.914062 14.019531 9.882812 Z M 20.6875 9.882812 L 21.28125 10.800781 C 19.058594 12.003906 19.097656 13.9375 19.097656 14.351562 C 19.304688 14.324219 19.519531 14.320312 19.738281 14.339844 C 20.941406 14.453125 21.886719 15.441406 21.886719 16.667969 C 21.886719 17.953125 20.84375 19 19.554688 19 C 18.839844 19 18.15625 18.671875 17.722656 18.214844 C 17.035156 17.484375 16.667969 16.667969 16.667969 15.339844 C 16.667969 13.007812 18.304688 10.914062 20.6875 9.882812 Z M 20.6875 9.882812 "/>
</g>
</svg>
