<?xml version="1.0" encoding="UTF-8"?>
<svg xmlns="http://www.w3.org/2000/svg" xmlns:xlink="http://www.w3.org/1999/xlink" width="32" height="32" viewBox="0 0 32 32" version="1.1">
<g id="surface1">
<path style=" stroke:none;fill-rule:nonzero;fill:rgb(0%,0%,0%);fill-opacity:1;" d="M 29.332031 16 L 26.667969 16 L 26.667969 6.667969 L 5.332031 6.667969 L 5.332031 24.511719 L 7.683594 22.667969 L 16 22.667969 L 16 25.332031 L 8.605469 25.332031 L 2.667969 30 L 2.667969 5.332031 C 2.667969 4.597656 3.261719 4 4 4 L 28 4 C 28.738281 4 29.332031 4.597656 29.332031 5.332031 Z M 18.859375 25.429688 C 18.601562 24.492188 18.601562 23.507812 18.859375 22.570312 L 17.558594 21.820312 L 18.894531 19.511719 L 20.195312 20.261719 C 20.875 19.570312 21.726562 19.078125 22.667969 18.835938 L 22.667969 17.332031 L 25.332031 17.332031 L 25.332031 18.835938 C 26.285156 19.078125 27.136719 19.582031 27.804688 20.261719 L 29.105469 19.511719 L 30.441406 21.820312 L 29.140625 22.570312 C 29.398438 23.507812 29.398438 24.492188 29.140625 25.429688 L 30.441406 26.179688 L 29.105469 28.488281 L 27.804688 27.738281 C 27.136719 28.417969 26.285156 28.921875 25.332031 29.164062 L 25.332031 30.667969 L 22.667969 30.667969 L 22.667969 29.164062 C 21.726562 28.921875 20.875 28.429688 20.195312 27.738281 L 18.894531 28.488281 L 17.558594 26.179688 Z M 24 26.667969 C 25.472656 26.667969 26.667969 25.472656 26.667969 24 C 26.667969 22.527344 25.472656 21.332031 24 21.332031 C 22.527344 21.332031 21.332031 22.527344 21.332031 24 C 21.332031 25.472656 22.527344 26.667969 24 26.667969 Z M 24 26.667969 "/>
</g>
</svg>
