<?xml version="1.0" encoding="UTF-8"?>
<svg xmlns="http://www.w3.org/2000/svg" xmlns:xlink="http://www.w3.org/1999/xlink" width="32" height="32" viewBox="0 0 32 32" version="1.1">
<g id="surface1">
<path style=" stroke:none;fill-rule:nonzero;fill:rgb(0%,0%,0%);fill-opacity:1;" d="M 22.800781 15.992188 L 11.832031 3.636719 C 11.566406 3.335938 11.195312 3.152344 10.796875 3.125 C 10.394531 3.101562 10.003906 3.238281 9.703125 3.503906 C 9.40625 3.769531 9.226562 4.140625 9.203125 4.539062 C 9.179688 4.941406 9.320312 5.332031 9.585938 5.628906 L 18.785156 15.992188 L 9.585938 26.371094 C 9.320312 26.667969 9.179688 27.058594 9.203125 27.460938 C 9.226562 27.859375 9.40625 28.230469 9.703125 28.496094 C 10.003906 28.761719 10.394531 28.898438 10.796875 28.875 C 11.195312 28.847656 11.566406 28.664062 11.832031 28.363281 Z M 22.800781 15.992188 "/>
</g>
</svg>
