<?xml version="1.0" encoding="UTF-8"?>
<svg xmlns="http://www.w3.org/2000/svg" xmlns:xlink="http://www.w3.org/1999/xlink" width="32" height="32" viewBox="0 0 32 32" version="1.1">
<g id="surface1">
<path style=" stroke:none;fill-rule:nonzero;fill:rgb(0%,0%,0%);fill-opacity:1;" d="M 7.996094 9.332031 L 11.078125 4 L 15.996094 4 L 12.917969 9.332031 Z M 15.996094 9.332031 L 19.078125 4 L 23.996094 4 L 20.917969 9.332031 Z M 23.996094 9.332031 L 27.078125 4 L 28.011719 4 C 28.742188 4 29.332031 4.59375 29.332031 5.324219 L 29.332031 26.675781 C 29.328125 27.40625 28.738281 27.996094 28.011719 28 L 3.988281 28 C 3.257812 28 2.667969 27.40625 2.667969 26.675781 L 2.667969 5.324219 C 2.671875 4.59375 3.261719 4.003906 3.988281 4 L 7.996094 4 L 5.332031 8.613281 L 5.332031 25.332031 L 26.667969 25.332031 L 26.667969 9.332031 Z M 23.996094 9.332031 "/>
</g>
</svg>
