<?xml version="1.0" encoding="UTF-8"?>
<svg xmlns="http://www.w3.org/2000/svg" xmlns:xlink="http://www.w3.org/1999/xlink" width="32" height="32" viewBox="0 0 32 32" version="1.1">
<g id="surface1">
<path style=" stroke:none;fill-rule:evenodd;fill:rgb(0%,0%,0%);fill-opacity:1;" d="M 15.53125 5.0625 C 10.5 5.0625 6.332031 8.976562 6.019531 14 C 6.011719 14 6.007812 14 6 14 C 2.6875 14 0 16.6875 0 20 C 0 23.3125 2.6875 26 6 26 C 6.035156 26 6.066406 26 6.101562 26 L 24 26 L 24 25.984375 C 28.492188 25.71875 32 22 32 17.5 C 32 12.804688 28.195312 9 23.5 9 C 23.417969 9 23.332031 9 23.25 9.003906 C 21.457031 6.527344 18.585938 5.0625 15.53125 5.0625 Z M 16 9 L 21 17 L 18 17 L 18 23 L 14 23 L 14 17 L 11 17 Z M 16 9 "/>
</g>
</svg>
