<?xml version="1.0" encoding="UTF-8"?>
<svg xmlns="http://www.w3.org/2000/svg" xmlns:xlink="http://www.w3.org/1999/xlink" width="32" height="32" viewBox="0 0 32 32" version="1.1">
<g id="surface1">
<path style=" stroke:none;fill-rule:nonzero;fill:rgb(0%,0%,0%);fill-opacity:1;" d="M 22.667969 9.332031 C 18.21875 9.332031 14.238281 12.089844 12.675781 16.253906 L 15.175781 17.191406 C 16.535156 13.574219 20.289062 11.445312 24.09375 12.136719 C 27.894531 12.824219 30.660156 16.136719 30.667969 20 C 30.667969 24.417969 27.085938 28 22.667969 28 L 9.332031 28 C 5.433594 28.003906 2.097656 25.191406 1.441406 21.347656 C 0.785156 17.503906 2.996094 13.746094 6.675781 12.453125 C 6.441406 7.683594 9.84375 3.503906 14.5625 2.769531 C 19.28125 2.03125 23.792969 4.980469 25.019531 9.59375 C 24.246094 9.421875 23.457031 9.332031 22.667969 9.332031 Z M 22.667969 9.332031 "/>
</g>
</svg>
