<?xml version="1.0" encoding="UTF-8"?>
<svg xmlns="http://www.w3.org/2000/svg" xmlns:xlink="http://www.w3.org/1999/xlink" width="32" height="32" viewBox="0 0 32 32" version="1.1">
<g id="surface1">
<path style=" stroke:none;fill-rule:nonzero;fill:rgb(0%,0%,0%);fill-opacity:1;" d="M 11.984375 0 L 11.984375 5.753906 C 11.867188 5.796875 11.75 5.847656 11.636719 5.898438 C 11.613281 5.90625 11.589844 5.910156 11.574219 5.917969 C 11.492188 5.957031 11.40625 5.996094 11.324219 6.03125 C 11.300781 6.039062 11.277344 6.054688 11.265625 6.0625 C 11.164062 6.109375 11.058594 6.160156 10.960938 6.210938 C 10.890625 6.25 10.820312 6.285156 10.753906 6.324219 C 10.699219 6.355469 10.644531 6.386719 10.59375 6.410156 C 10.585938 6.417969 10.570312 6.417969 10.5625 6.425781 C 10.46875 6.480469 10.375 6.535156 10.285156 6.589844 C 10.191406 6.644531 10.097656 6.703125 10.007812 6.761719 C 9.976562 6.785156 9.945312 6.800781 9.921875 6.820312 C 9.914062 6.828125 9.898438 6.835938 9.890625 6.84375 C 9.800781 6.90625 9.710938 6.964844 9.625 7.027344 C 9.449219 7.152344 9.28125 7.277344 9.113281 7.410156 L 4.132812 4.535156 L 0.132812 11.464844 L 5.117188 14.34375 C 5.09375 14.472656 5.078125 14.597656 5.066406 14.726562 L 5.066406 14.742188 C 5.050781 14.847656 5.042969 14.957031 5.035156 15.0625 C 5.03125 15.109375 5.027344 15.152344 5.027344 15.195312 C 5.019531 15.289062 5.019531 15.378906 5.011719 15.472656 C 5.011719 15.496094 5.007812 15.527344 5.007812 15.546875 C 5.003906 15.640625 5 15.734375 5 15.828125 C 5 15.890625 4.996094 15.945312 4.996094 16 C 4.996094 16.007812 4.996094 16.015625 4.996094 16.03125 C 4.996094 16.105469 5 16.175781 5 16.25 C 5.003906 16.316406 5.003906 16.382812 5.007812 16.449219 C 5.007812 16.457031 5.007812 16.472656 5.007812 16.480469 C 5.011719 16.582031 5.015625 16.6875 5.03125 16.792969 C 5.039062 16.921875 5.054688 17.050781 5.066406 17.183594 C 5.082031 17.339844 5.105469 17.5 5.128906 17.660156 L 0.148438 20.539062 L 4.148438 27.46875 L 9.132812 24.589844 C 9.15625 24.605469 9.179688 24.625 9.199219 24.640625 C 9.28125 24.703125 9.363281 24.769531 9.445312 24.828125 C 9.46875 24.84375 9.492188 24.867188 9.515625 24.882812 C 9.597656 24.941406 9.683594 25.003906 9.769531 25.0625 C 9.984375 25.210938 10.207031 25.351562 10.433594 25.484375 C 10.457031 25.5 10.480469 25.515625 10.507812 25.527344 C 10.824219 25.710938 11.152344 25.878906 11.484375 26.027344 L 11.492188 26.03125 C 11.660156 26.109375 11.832031 26.179688 12 26.242188 L 12.007812 26.246094 L 12.007812 32 L 20.007812 32 L 20.007812 26.246094 C 20.128906 26.203125 20.253906 26.152344 20.371094 26.097656 C 20.472656 26.054688 20.570312 26.011719 20.667969 25.964844 C 20.691406 25.957031 20.714844 25.945312 20.730469 25.9375 C 20.828125 25.890625 20.925781 25.839844 21.023438 25.792969 C 21.046875 25.785156 21.070312 25.769531 21.082031 25.761719 C 21.113281 25.746094 21.152344 25.722656 21.183594 25.707031 C 21.265625 25.664062 21.347656 25.621094 21.425781 25.574219 C 21.539062 25.507812 21.65625 25.441406 21.765625 25.371094 C 21.878906 25.304688 21.988281 25.234375 22.097656 25.160156 C 22.207031 25.085938 22.316406 25.011719 22.421875 24.933594 C 22.511719 24.875 22.597656 24.808594 22.683594 24.742188 C 22.699219 24.726562 22.722656 24.714844 22.738281 24.699219 C 22.78125 24.660156 22.828125 24.621094 22.875 24.589844 L 27.859375 27.46875 L 31.859375 20.539062 L 26.878906 17.664062 C 26.886719 17.617188 26.894531 17.570312 26.902344 17.523438 C 26.902344 17.515625 26.902344 17.507812 26.90625 17.492188 C 26.910156 17.445312 26.921875 17.394531 26.929688 17.347656 C 26.933594 17.308594 26.933594 17.273438 26.941406 17.238281 C 26.949219 17.148438 26.964844 17.058594 26.972656 16.96875 L 26.972656 16.960938 C 26.972656 16.953125 26.972656 16.945312 26.972656 16.929688 C 26.980469 16.816406 26.988281 16.707031 26.996094 16.59375 C 26.996094 16.585938 27 16.570312 27 16.5625 C 27.003906 16.480469 27.007812 16.398438 27.015625 16.3125 C 27.015625 16.292969 27.015625 16.277344 27.015625 16.253906 C 27.015625 16.171875 27.019531 16.085938 27.019531 16.003906 C 27.019531 15.996094 27.019531 15.988281 27.019531 15.972656 C 27.019531 15.957031 27.019531 15.933594 27.019531 15.921875 C 27.019531 15.816406 27.015625 15.710938 27.011719 15.609375 C 27.011719 15.578125 27.007812 15.554688 27.007812 15.527344 C 27.003906 15.421875 27 15.316406 26.984375 15.214844 C 26.976562 15.082031 26.960938 14.953125 26.945312 14.824219 C 26.933594 14.664062 26.910156 14.503906 26.886719 14.347656 L 31.867188 11.46875 L 27.867188 4.539062 L 22.882812 7.417969 C 22.78125 7.335938 22.675781 7.253906 22.570312 7.175781 C 22.546875 7.160156 22.523438 7.136719 22.503906 7.121094 C 22.417969 7.0625 22.332031 7 22.25 6.941406 C 22.03125 6.792969 21.8125 6.652344 21.585938 6.519531 C 21.5625 6.503906 21.53125 6.488281 21.507812 6.476562 C 21.191406 6.292969 20.867188 6.125 20.53125 5.972656 L 20.523438 5.96875 C 20.355469 5.894531 20.1875 5.824219 20.015625 5.757812 L 20.007812 5.753906 L 20.007812 0 Z M 15.984375 11 C 18.746094 11 20.984375 13.238281 20.984375 16 C 20.984375 18.761719 18.746094 21 15.984375 21 C 13.222656 21 10.984375 18.761719 10.984375 16 C 10.984375 13.238281 13.222656 11 15.984375 11 Z M 15.984375 11 "/>
</g>
</svg>
