<?xml version="1.0" encoding="UTF-8"?>
<svg xmlns="http://www.w3.org/2000/svg" xmlns:xlink="http://www.w3.org/1999/xlink" width="32" height="32" viewBox="0 0 32 32" version="1.1">
<g id="surface1">
<path style=" stroke:none;fill-rule:nonzero;fill:rgb(0%,0%,0%);fill-opacity:1;" d="M 21.773438 18 C 24.023438 16.230469 25.335938 13.527344 25.332031 10.667969 L 28 10.667969 C 28.003906 14.480469 26.191406 18.066406 23.117188 20.328125 L 26.488281 26.164062 C 27.222656 27.441406 26.789062 29.070312 25.511719 29.808594 L 20.808594 21.664062 C 19.292969 22.328125 17.65625 22.667969 16 22.667969 C 14.34375 22.667969 12.707031 22.328125 11.191406 21.664062 L 6.488281 29.808594 C 5.210938 29.070312 4.777344 27.441406 5.511719 26.164062 L 12.261719 14.472656 C 10.890625 13.125 10.351562 11.144531 10.847656 9.285156 C 11.347656 7.429688 12.804688 5.984375 14.667969 5.5 L 14.667969 2.667969 L 17.332031 2.667969 L 17.332031 5.5 C 19.195312 5.984375 20.652344 7.429688 21.152344 9.285156 C 21.648438 11.144531 21.109375 13.125 19.738281 14.472656 Z M 19.464844 19.335938 L 17.429688 15.808594 C 16.496094 16.066406 15.507812 16.066406 14.574219 15.808594 L 12.535156 19.335938 C 13.609375 19.765625 14.777344 20 16 20 C 17.226562 20 18.394531 19.765625 19.464844 19.335938 Z M 16 12 C 16.738281 12 17.332031 11.402344 17.332031 10.667969 C 17.332031 9.929688 16.738281 9.332031 16 9.332031 C 15.261719 9.332031 14.667969 9.929688 14.667969 10.667969 C 14.667969 11.402344 15.261719 12 16 12 Z M 16 12 "/>
</g>
</svg>
