<?xml version="1.0" encoding="UTF-8"?>
<svg xmlns="http://www.w3.org/2000/svg" xmlns:xlink="http://www.w3.org/1999/xlink" width="32" height="32" viewBox="0 0 32 32" version="1.1">
<g id="surface1">
<path style=" stroke:none;fill-rule:nonzero;fill:rgb(0%,0%,0%);fill-opacity:1;" d="M 14.667969 5.5 L 14.667969 2.667969 L 17.332031 2.667969 L 17.332031 5.5 C 19.195312 5.984375 20.652344 7.429688 21.152344 9.285156 C 21.648438 11.144531 21.109375 13.125 19.738281 14.472656 L 27.820312 28.476562 L 25.511719 29.808594 L 17.429688 15.808594 C 16.492188 16.066406 15.507812 16.066406 14.570312 15.808594 L 6.488281 29.808594 L 4.179688 28.476562 L 12.261719 14.472656 C 10.890625 13.125 10.351562 11.144531 10.847656 9.285156 C 11.347656 7.429688 12.804688 5.984375 14.667969 5.5 Z M 16 12 C 16.738281 12 17.332031 11.402344 17.332031 10.667969 C 17.332031 9.929688 16.738281 9.332031 16 9.332031 C 15.261719 9.332031 14.667969 9.929688 14.667969 10.667969 C 14.667969 11.402344 15.261719 12 16 12 Z M 16 12 "/>
</g>
</svg>
