<?xml version="1.0" encoding="UTF-8"?>
<svg xmlns="http://www.w3.org/2000/svg" xmlns:xlink="http://www.w3.org/1999/xlink" width="32" height="32" viewBox="0 0 32 32" version="1.1">
<g id="surface1">
<path style=" stroke:none;fill-rule:evenodd;fill:rgb(0%,0%,0%);fill-opacity:1;" d="M 3.902344 0 C 1.730469 0.0546875 0 1.828125 0 4 C 0 6.210938 1.789062 8 4 8 C 4.351562 8 4.699219 7.953125 5.039062 7.863281 L 9.863281 12.6875 C 10.511719 11.492188 11.492188 10.507812 12.691406 9.863281 L 7.863281 5.035156 C 7.953125 4.699219 8 4.351562 8 4 C 8 1.789062 6.210938 0 4 0 C 3.96875 0 3.933594 0 3.902344 0 Z M 26 2 C 23.789062 2 22 3.789062 22 6 C 22 6.351562 22.046875 6.699219 22.136719 7.039062 L 19.308594 9.863281 C 20.503906 10.507812 21.488281 11.488281 22.132812 12.683594 L 24.957031 9.859375 C 25.296875 9.953125 25.648438 10 26 10 C 28.210938 10 30 8.210938 30 6 C 30 3.789062 28.210938 2 26 2 Z M 15.898438 10 C 12.625 10.054688 10 12.726562 10 16 C 10 19.3125 12.6875 22 16 22 C 19.3125 22 22 19.3125 22 16 C 22 12.6875 19.3125 10 16 10 C 15.964844 10 15.933594 10 15.898438 10 Z M 4 16 C 1.789062 16 0 17.789062 0 20 C 0 22.210938 1.789062 24 4 24 C 5.902344 24 7.539062 22.65625 7.917969 20.792969 L 10.292969 20 C 9.511719 18.886719 9.074219 17.570312 9.03125 16.210938 L 6.648438 17.003906 C 5.917969 16.359375 4.976562 16 4 16 Z M 22.664062 18.039062 C 22.265625 19.34375 21.492188 20.5 20.441406 21.371094 L 24.007812 23.742188 C 24.003906 23.828125 24 23.914062 24 24 C 24 26.210938 25.789062 28 28 28 C 30.210938 28 32 26.210938 32 24 C 32 21.789062 30.210938 20 28 20 C 27.382812 20 26.777344 20.144531 26.226562 20.417969 Z M 12.925781 22.257812 L 12.59375 24.257812 C 11.035156 24.84375 10 26.335938 10 28 C 10 30.210938 11.789062 32 14 32 C 16.210938 32 18 30.210938 18 28 C 18 26.804688 17.460938 25.667969 16.535156 24.910156 L 16.867188 22.917969 C 16.578125 22.953125 16.289062 22.972656 16 22.972656 C 14.933594 22.972656 13.882812 22.726562 12.925781 22.257812 Z M 12.925781 22.257812 "/>
</g>
</svg>
