<?xml version="1.0" encoding="UTF-8"?>
<svg xmlns="http://www.w3.org/2000/svg" xmlns:xlink="http://www.w3.org/1999/xlink" width="32" height="32" viewBox="0 0 32 32" version="1.1">
<g id="surface1">
<path style=" stroke:none;fill-rule:nonzero;fill:rgb(0%,0%,0%);fill-opacity:1;" d="M 0 1.941406 L 0 5.933594 C 2.378906 6.460938 4.070312 7.519531 5.632812 8.613281 C 2.554688 13.957031 9 18.820312 9 18.820312 L 19 8.820312 C 19 8.820312 13.898438 2.042969 8.398438 5.691406 C 6.480469 4.363281 3.839844 2.648438 0 1.941406 Z M 21 10.820312 L 11 20.820312 L 13 22.820312 C 13 22.820312 18.253906 29.816406 23.84375 25.804688 C 25.714844 27.398438 28.28125 29.148438 32 30.058594 L 32 26.019531 C 29.53125 25.304688 27.898438 24.113281 26.476562 22.851562 C 29.3125 17.574219 23 12.820312 23 12.820312 Z M 21 10.820312 "/>
</g>
</svg>
