<?xml version="1.0" encoding="UTF-8"?>
<svg xmlns="http://www.w3.org/2000/svg" xmlns:xlink="http://www.w3.org/1999/xlink" width="32" height="32" viewBox="0 0 32 32" version="1.1">
<g id="surface1">
<path style=" stroke:none;fill-rule:nonzero;fill:rgb(0%,0%,0%);fill-opacity:1;" d="M 16 29.332031 C 8.636719 29.332031 2.667969 23.363281 2.667969 16 C 2.667969 8.636719 8.636719 2.667969 16 2.667969 C 23.363281 2.667969 29.332031 8.636719 29.332031 16 C 29.332031 23.363281 23.363281 29.332031 16 29.332031 Z M 7.105469 21.898438 C 9.503906 25.488281 13.824219 27.277344 18.054688 26.433594 C 22.285156 25.59375 25.59375 22.285156 26.433594 18.054688 C 27.277344 13.824219 25.488281 9.5 21.898438 7.105469 C 23.070312 11.28125 21.894531 15.761719 18.828125 18.828125 C 15.761719 21.894531 11.28125 23.070312 7.105469 21.898438 Z M 7.105469 21.898438 "/>
</g>
</svg>
