<?xml version="1.0" encoding="UTF-8"?>
<svg xmlns="http://www.w3.org/2000/svg" xmlns:xlink="http://www.w3.org/1999/xlink" width="32" height="32" viewBox="0 0 32 32" version="1.1">
<g id="surface1">
<path style=" stroke:none;fill-rule:nonzero;fill:rgb(0%,0%,0%);fill-opacity:1;" d="M 16 2.667969 C 23.359375 2.667969 29.332031 8.640625 29.332031 16 C 29.332031 23.359375 23.359375 29.332031 16 29.332031 C 8.640625 29.332031 2.667969 23.359375 2.667969 16 C 2.667969 8.640625 8.640625 2.667969 16 2.667969 Z M 16 9.332031 C 12.320312 9.332031 9.332031 12.320312 9.332031 16 C 9.332031 19.679688 12.320312 22.667969 16 22.667969 C 18.425781 22.667969 20.550781 21.371094 21.71875 19.429688 L 19.429688 18.058594 C 18.4375 19.714844 16.398438 20.425781 14.589844 19.742188 C 12.78125 19.0625 11.71875 17.183594 12.066406 15.285156 C 12.410156 13.382812 14.066406 12 16 12 C 17.457031 12 18.734375 12.777344 19.433594 13.941406 L 21.71875 12.570312 C 20.511719 10.5625 18.34375 9.332031 16 9.332031 Z M 16 9.332031 "/>
</g>
</svg>
