<?xml version="1.0" encoding="UTF-8"?>
<svg xmlns="http://www.w3.org/2000/svg" xmlns:xlink="http://www.w3.org/1999/xlink" width="32" height="32" viewBox="0 0 32 32" version="1.1">
<g id="surface1">
<path style=" stroke:none;fill-rule:nonzero;fill:rgb(0%,0%,0%);fill-opacity:1;" d="M 16 29.332031 C 8.636719 29.332031 2.667969 23.363281 2.667969 16 C 2.667969 8.636719 8.636719 2.667969 16 2.667969 C 23.363281 2.667969 29.332031 8.636719 29.332031 16 C 29.332031 23.363281 23.363281 29.332031 16 29.332031 Z M 11.105469 16.40625 C 11.050781 17.539062 11.15625 18.667969 11.261719 19.796875 C 11.269531 19.878906 11.296875 19.894531 11.371094 19.902344 C 11.910156 19.976562 12.453125 20.039062 13 20.074219 C 14.285156 20.15625 15.570312 20.257812 16.859375 20.1875 C 17.59375 20.148438 18.328125 20.121094 19.058594 20.058594 C 20.097656 19.96875 21.136719 19.851562 22.164062 19.644531 C 23.441406 19.386719 24.707031 19.078125 25.898438 18.515625 C 26.4375 18.265625 26.949219 17.964844 27.382812 17.535156 C 27.699219 17.222656 27.925781 16.859375 27.929688 16.390625 C 27.929688 15.972656 27.910156 15.550781 27.871094 15.136719 C 27.777344 14.144531 27.5625 13.167969 27.226562 12.230469 C 26.449219 10.070312 25.214844 8.242188 23.460938 6.800781 C 21.976562 5.566406 20.214844 4.714844 18.324219 4.320312 C 17.660156 4.179688 16.984375 4.125 16.308594 4.078125 C 15.542969 4.023438 14.886719 4.238281 14.324219 4.765625 C 13.664062 5.375 13.207031 6.128906 12.828125 6.941406 C 11.9375 8.84375 11.53125 10.878906 11.273438 12.953125 C 11.117188 14.097656 11.0625 15.25 11.105469 16.40625 Z M 15.867188 9.699219 C 17.144531 9.738281 18.226562 10.128906 19.191406 10.839844 C 20.359375 11.675781 21.175781 12.917969 21.476562 14.324219 C 21.566406 14.726562 21.605469 15.136719 21.613281 15.550781 C 21.621094 15.832031 21.464844 16.035156 21.265625 16.207031 C 20.855469 16.550781 20.371094 16.738281 19.863281 16.882812 C 18.878906 17.160156 17.871094 17.316406 16.84375 17.371094 C 16.175781 17.40625 15.511719 17.417969 14.84375 17.382812 C 14.589844 17.371094 14.332031 17.351562 14.074219 17.339844 C 13.996094 17.339844 13.96875 17.316406 13.960938 17.234375 C 13.933594 16.65625 13.886719 16.074219 13.894531 15.496094 C 13.917969 14.128906 14.019531 12.769531 14.425781 11.453125 C 14.558594 11.011719 14.722656 10.585938 14.984375 10.203125 C 15.214844 9.871094 15.488281 9.621094 15.867188 9.699219 Z M 15.867188 9.699219 "/>
</g>
</svg>
