<?xml version="1.0" encoding="UTF-8"?>
<svg xmlns="http://www.w3.org/2000/svg" xmlns:xlink="http://www.w3.org/1999/xlink" width="32" height="32" viewBox="0 0 32 32" version="1.1">
<g id="surface1">
<path style=" stroke:none;fill-rule:nonzero;fill:rgb(0%,0%,0%);fill-opacity:1;" d="M 2.667969 5.332031 C 2.667969 4.597656 3.261719 4 4 4 L 28 4 C 28.738281 4 29.332031 4.597656 29.332031 5.332031 L 29.332031 12.667969 C 27.492188 12.667969 26 14.160156 26 16 C 26 17.839844 27.492188 19.332031 29.332031 19.332031 L 29.332031 26.667969 C 29.332031 27.402344 28.738281 28 28 28 L 4 28 C 3.261719 28 2.667969 27.402344 2.667969 26.667969 Z M 10.78125 25.332031 C 11.0625 24.53125 11.816406 23.996094 12.667969 23.996094 C 13.515625 23.996094 14.273438 24.53125 14.554688 25.332031 L 26.667969 25.332031 L 26.667969 21.375 C 24.625 20.363281 23.332031 18.28125 23.332031 16 C 23.332031 13.71875 24.625 11.636719 26.667969 10.625 L 26.667969 6.667969 L 14.554688 6.667969 C 14.273438 7.46875 13.515625 8.003906 12.667969 8.003906 C 11.816406 8.003906 11.0625 7.46875 10.78125 6.667969 L 5.332031 6.667969 L 5.332031 25.332031 Z M 12.667969 14.667969 C 11.5625 14.667969 10.667969 13.769531 10.667969 12.667969 C 10.667969 11.5625 11.5625 10.667969 12.667969 10.667969 C 13.769531 10.667969 14.667969 11.5625 14.667969 12.667969 C 14.667969 13.769531 13.769531 14.667969 12.667969 14.667969 Z M 12.667969 21.332031 C 11.5625 21.332031 10.667969 20.4375 10.667969 19.332031 C 10.667969 18.230469 11.5625 17.332031 12.667969 17.332031 C 13.769531 17.332031 14.667969 18.230469 14.667969 19.332031 C 14.667969 20.4375 13.769531 21.332031 12.667969 21.332031 Z M 12.667969 21.332031 "/>
</g>
</svg>
