<?xml version="1.0" encoding="UTF-8"?>
<svg xmlns="http://www.w3.org/2000/svg" xmlns:xlink="http://www.w3.org/1999/xlink" width="32" height="32" viewBox="0 0 32 32" version="1.1">
<g id="surface1">
<path style=" stroke:none;fill-rule:nonzero;fill:rgb(0%,0%,0%);fill-opacity:1;" d="M 16 2.667969 C 23.363281 2.667969 29.332031 8.636719 29.332031 16 C 29.332031 19.199219 28.207031 22.136719 26.324219 24.4375 L 26.371094 24.484375 L 24.484375 26.371094 L 24.4375 26.324219 C 22.058594 28.273438 19.074219 29.339844 16 29.332031 C 8.636719 29.332031 2.667969 23.363281 2.667969 16 C 2.667969 8.636719 8.636719 2.667969 16 2.667969 Z M 5.332031 16 C 5.332031 20.070312 7.652344 23.789062 11.308594 25.578125 C 14.964844 27.371094 19.324219 26.921875 22.539062 24.425781 L 19.375 21.257812 C 19.140625 21.308594 18.902344 21.332031 18.667969 21.332031 L 17.332031 21.332031 L 17.332031 24 L 14.667969 24 L 14.667969 21.332031 L 11.332031 21.332031 L 11.332031 18.667969 L 18.667969 18.667969 C 19.011719 18.667969 19.300781 18.402344 19.332031 18.058594 C 19.363281 17.714844 19.125 17.40625 18.785156 17.34375 L 18.667969 17.332031 L 13.332031 17.332031 C 12.140625 17.332031 11.042969 16.699219 10.445312 15.667969 C 9.851562 14.636719 9.851562 13.363281 10.445312 12.332031 L 7.570312 9.457031 C 6.117188 11.328125 5.328125 13.632812 5.332031 16 Z M 16 5.332031 C 13.535156 5.332031 11.265625 6.167969 9.460938 7.574219 L 12.625 10.738281 C 12.859375 10.691406 13.097656 10.664062 13.332031 10.667969 L 14.667969 10.667969 L 14.667969 8 L 17.332031 8 L 17.332031 10.667969 L 20.667969 10.667969 L 20.667969 13.332031 L 13.332031 13.332031 C 12.988281 13.332031 12.699219 13.597656 12.667969 13.941406 C 12.636719 14.285156 12.875 14.59375 13.214844 14.65625 L 13.332031 14.667969 L 18.667969 14.667969 C 19.859375 14.667969 20.957031 15.300781 21.554688 16.332031 C 22.148438 17.363281 22.148438 18.636719 21.554688 19.667969 L 24.429688 22.539062 C 26.925781 19.324219 27.371094 14.964844 25.582031 11.308594 C 23.789062 7.652344 20.070312 5.332031 16 5.332031 Z M 16 5.332031 "/>
</g>
</svg>
