<?xml version="1.0" encoding="UTF-8"?>
<svg xmlns="http://www.w3.org/2000/svg" xmlns:xlink="http://www.w3.org/1999/xlink" width="32" height="32" viewBox="0 0 32 32" version="1.1">
<g id="surface1">
<path style=" stroke:none;fill-rule:evenodd;fill:rgb(0%,0%,0%);fill-opacity:1;" d="M 15.902344 2.976562 C 11.890625 3 8.035156 4.53125 5.101562 7.265625 C -1.042969 12.984375 -1.722656 22.476562 3.542969 29.015625 L 28.449219 29.027344 C 33.722656 22.492188 33.050781 12.996094 26.910156 7.273438 C 23.921875 4.488281 19.984375 2.949219 15.902344 2.976562 Z M 15.9375 4.898438 C 17.320312 4.898438 18.4375 6.015625 18.4375 7.398438 C 18.4375 8.777344 17.320312 9.898438 15.9375 9.898438 C 14.558594 9.898438 13.4375 8.777344 13.4375 7.398438 C 13.4375 6.015625 14.558594 4.898438 15.9375 4.898438 Z M 9.25 7.523438 C 9.273438 7.523438 9.296875 7.523438 9.320312 7.523438 C 9.800781 7.539062 10.246094 7.785156 10.515625 8.1875 L 17.246094 18.140625 C 17.707031 18.824219 17.527344 19.753906 16.847656 20.21875 C 16.164062 20.679688 15.234375 20.5 14.769531 19.820312 L 8.035156 9.871094 C 7.570312 9.183594 7.75 8.253906 8.433594 7.789062 C 8.675781 7.621094 8.960938 7.527344 9.253906 7.523438 Z M 5.640625 12.316406 C 7.023438 12.316406 8.140625 13.433594 8.140625 14.816406 C 8.140625 16.195312 7.023438 17.316406 5.640625 17.316406 C 4.261719 17.316406 3.140625 16.195312 3.140625 14.816406 C 3.140625 13.433594 4.261719 12.316406 5.640625 12.316406 Z M 26.359375 12.316406 C 27.742188 12.316406 28.859375 13.433594 28.859375 14.816406 C 28.859375 16.195312 27.742188 17.316406 26.359375 17.316406 C 24.980469 17.316406 23.859375 16.195312 23.859375 14.816406 C 23.859375 13.433594 24.980469 12.316406 26.359375 12.316406 Z M 6.230469 22.15625 C 7.613281 22.15625 8.730469 23.273438 8.730469 24.65625 C 8.730469 26.035156 7.613281 27.15625 6.230469 27.15625 C 4.851562 27.15625 3.730469 26.035156 3.730469 24.65625 C 3.730469 23.273438 4.851562 22.15625 6.230469 22.15625 Z M 25.769531 22.15625 C 27.152344 22.15625 28.269531 23.273438 28.269531 24.65625 C 28.269531 26.035156 27.152344 27.15625 25.769531 27.15625 C 24.390625 27.15625 23.269531 26.035156 23.269531 24.65625 C 23.269531 23.273438 24.390625 22.15625 25.769531 22.15625 Z M 25.769531 22.15625 "/>
</g>
</svg>
