<?xml version="1.0" encoding="UTF-8"?>
<svg xmlns="http://www.w3.org/2000/svg" xmlns:xlink="http://www.w3.org/1999/xlink" width="32" height="32" viewBox="0 0 32 32" version="1.1">
<g id="surface1">
<path style=" stroke:none;fill-rule:nonzero;fill:rgb(0%,0%,0%);fill-opacity:1;" d="M 28 12.667969 L 28 16.667969 C 28 19.980469 22.625 22.667969 16 22.667969 C 9.375 22.667969 4 19.980469 4 16.667969 L 4 12.667969 C 4 15.980469 9.375 18.667969 16 18.667969 C 22.625 18.667969 28 15.980469 28 12.667969 Z M 4 19.332031 C 4 22.648438 9.375 25.332031 16 25.332031 C 22.625 25.332031 28 22.648438 28 19.332031 L 28 23.332031 C 28 26.648438 22.625 29.332031 16 29.332031 C 9.375 29.332031 4 26.648438 4 23.332031 Z M 16 16 C 9.375 16 4 13.3125 4 10 C 4 6.6875 9.375 4 16 4 C 22.625 4 28 6.6875 28 10 C 28 13.3125 22.625 16 16 16 Z M 16 16 "/>
</g>
</svg>
