<?xml version="1.0" encoding="UTF-8"?>
<svg xmlns="http://www.w3.org/2000/svg" xmlns:xlink="http://www.w3.org/1999/xlink" width="32" height="32" viewBox="0 0 32 32" version="1.1">
<g id="surface1">
<path style=" stroke:none;fill-rule:evenodd;fill:rgb(0%,0%,0%);fill-opacity:1;" d="M 0 0 L 0 32 L 32 32 L 32 30 L 26 30 L 26 22 L 28 22 L 28 18 L 22 18 L 22 14 L 10 14 L 10 10 L 12 10 L 12 8 L 14 8 L 14 6 L 18 6 L 18 10 L 14 10 L 14 12 L 20 12 L 20 8 L 28 8 L 28 4 L 32 4 L 32 2 L 30 2 L 30 0 L 28 0 L 28 2 L 26 2 L 26 0 L 24 0 L 24 2 L 20 2 L 20 0 L 18 0 L 18 4 L 16 4 L 16 0 L 14 0 L 14 4 L 10 4 L 10 8 L 8 8 L 8 10 L 4 10 L 4 12 L 8 12 L 8 14 L 6 14 L 6 16 L 8 16 L 8 18 L 6 18 L 6 16 L 4 16 L 4 20 L 14 20 L 14 16 L 20 16 L 20 26 L 22 26 L 22 28 L 24 28 L 24 30 L 20 30 L 20 26 L 18 26 L 18 28 L 14 28 L 14 30 L 10 30 L 10 28 L 6 28 L 6 30 L 2 30 L 2 10 L 4 10 L 4 4 L 2 4 L 2 0 Z M 4 4 L 6 4 L 6 0 L 4 0 Z M 18 26 L 18 24 L 16 24 L 16 26 Z M 22 14 L 24 14 L 24 16 L 28 16 L 28 18 L 30 18 L 30 14 L 32 14 L 32 12 L 22 12 Z M 30 18 L 30 20 L 32 20 L 32 18 Z M 28 22 L 28 26 L 30 26 L 30 24 L 32 24 L 32 22 Z M 30 26 L 30 28 L 32 28 L 32 26 Z M 10 0 L 10 2 L 12 2 L 12 0 Z M 20 4 L 24 4 L 24 6 L 20 6 Z M 30 8 L 30 10 L 32 10 L 32 8 Z M 16 18 L 16 20 L 18 20 L 18 18 Z M 12 22 L 12 24 L 10 24 L 10 26 L 14 26 L 14 22 Z M 4 24 L 4 26 L 6 26 L 6 24 Z M 4 24 "/>
</g>
</svg>
