<?xml version="1.0" encoding="UTF-8"?>
<svg xmlns="http://www.w3.org/2000/svg" xmlns:xlink="http://www.w3.org/1999/xlink" width="32" height="32" viewBox="0 0 32 32" version="1.1">
<g id="surface1">
<path style=" stroke:none;fill-rule:nonzero;fill:rgb(0%,0%,0%);fill-opacity:1;" d="M 18.550781 19.441406 C 18.339844 19.492188 18.121094 19.539062 17.90625 19.578125 C 16.734375 19.800781 15.527344 19.796875 14.355469 19.566406 C 14.148438 19.523438 13.859375 19.453125 13.484375 19.355469 L 12.257812 20.949219 C 9.226562 20.851562 8.074219 18.824219 8.074219 18.824219 C 8.074219 14.316406 10.046875 10.660156 10.046875 10.660156 C 12.023438 9.148438 13.902344 9.191406 13.902344 9.191406 L 14.4375 9.890625 C 14.488281 9.882812 14.539062 9.878906 14.589844 9.878906 C 15.613281 9.742188 16.648438 9.746094 17.671875 9.890625 L 18.261719 9.191406 C 18.261719 9.191406 20.144531 9.148438 22.117188 10.660156 C 22.117188 10.660156 24.09375 14.316406 24.09375 18.824219 C 24.09375 18.824219 22.925781 20.851562 19.894531 20.949219 L 18.550781 19.4375 Z M 13.433594 14.667969 C 12.632812 14.667969 12 15.265625 12 16 C 12 16.734375 12.648438 17.332031 13.433594 17.332031 C 14.234375 17.332031 14.867188 16.734375 14.867188 16 C 14.882812 15.265625 14.234375 14.667969 13.433594 14.667969 Z M 18.566406 14.667969 C 17.765625 14.667969 17.132812 15.265625 17.132812 16 C 17.132812 16.734375 17.777344 17.332031 18.566406 17.332031 C 19.367188 17.332031 20 16.734375 20 16 C 20 15.265625 19.367188 14.667969 18.566406 14.667969 Z M 28 30.667969 L 21.347656 24 L 25.332031 24 L 25.332031 5.332031 L 6.667969 5.332031 L 6.667969 24 L 21.335938 24 L 22.097656 26.667969 L 6.667969 26.667969 C 5.195312 26.667969 4 25.472656 4 24 L 4 5.332031 C 4 3.859375 5.195312 2.667969 6.667969 2.667969 L 25.332031 2.667969 C 26.804688 2.667969 28 3.859375 28 5.332031 Z M 28 30.667969 "/>
</g>
</svg>
