<?xml version="1.0" encoding="UTF-8"?>
<svg xmlns="http://www.w3.org/2000/svg" xmlns:xlink="http://www.w3.org/1999/xlink" width="32" height="32" viewBox="0 0 32 32" version="1.1">
<g id="surface1">
<path style=" stroke:none;fill-rule:nonzero;fill:rgb(0%,0%,0%);fill-opacity:1;" d="M 14.667969 2.734375 L 14.667969 6.761719 C 10.144531 7.410156 6.667969 11.300781 6.667969 16 C 6.667969 21.15625 10.84375 25.332031 16 25.332031 C 18.097656 25.332031 20.03125 24.644531 21.589844 23.476562 L 24.4375 26.324219 C 22.140625 28.203125 19.199219 29.332031 16 29.332031 C 8.636719 29.332031 2.667969 23.363281 2.667969 16 C 2.667969 9.085938 7.929688 3.402344 14.667969 2.734375 Z M 29.265625 17.332031 C 29 20.015625 27.941406 22.460938 26.324219 24.4375 L 23.476562 21.589844 C 24.390625 20.367188 25.011719 18.914062 25.238281 17.332031 L 29.269531 17.332031 Z M 17.335938 2.734375 C 23.632812 3.359375 28.644531 8.367188 29.269531 14.667969 L 25.238281 14.667969 C 24.65625 10.578125 21.421875 7.347656 17.335938 6.761719 L 17.335938 2.730469 Z M 17.335938 2.734375 "/>
</g>
</svg>
