<?xml version="1.0" encoding="UTF-8"?>
<svg xmlns="http://www.w3.org/2000/svg" xmlns:xlink="http://www.w3.org/1999/xlink" width="32" height="32" viewBox="0 0 32 32" version="1.1">
<g id="surface1">
<path style=" stroke:none;fill-rule:nonzero;fill:rgb(0%,0%,0%);fill-opacity:1;" d="M 17.332031 17.332031 L 17.332031 24.78125 L 19.769531 22.34375 L 21.65625 24.230469 L 16 29.886719 L 10.34375 24.230469 L 12.230469 22.34375 L 14.667969 24.78125 L 14.667969 17.332031 Z M 16 2.667969 C 20.738281 2.667969 24.726562 6.21875 25.273438 10.925781 C 28.695312 11.859375 30.960938 15.109375 30.648438 18.644531 C 30.335938 22.179688 27.535156 24.984375 24 25.304688 L 24 22.617188 C 25.671875 22.378906 27.082031 21.257812 27.691406 19.6875 C 28.300781 18.113281 28.015625 16.332031 26.945312 15.03125 C 25.871094 13.730469 24.179688 13.109375 22.519531 13.40625 C 23.089844 10.746094 21.988281 8.003906 19.734375 6.480469 C 17.476562 4.957031 14.523438 4.957031 12.269531 6.480469 C 10.015625 8.003906 8.910156 10.746094 9.484375 13.40625 C 6.949219 12.929688 4.511719 14.597656 4.035156 17.128906 C 3.558594 19.664062 5.226562 22.101562 7.761719 22.578125 L 8 22.617188 L 8 25.304688 C 4.464844 24.984375 1.664062 22.183594 1.351562 18.644531 C 1.039062 15.109375 3.304688 11.859375 6.726562 10.925781 C 7.273438 6.21875 11.261719 2.667969 16 2.667969 Z M 16 2.667969 "/>
</g>
</svg>
