<?xml version="1.0" encoding="UTF-8"?>
<svg xmlns="http://www.w3.org/2000/svg" xmlns:xlink="http://www.w3.org/1999/xlink" width="32" height="32" viewBox="0 0 32 32" version="1.1">
<g id="surface1">
<path style=" stroke:none;fill-rule:nonzero;fill:rgb(0%,0%,0%);fill-opacity:1;" d="M 26.667969 2.667969 C 27.402344 2.667969 28 3.265625 28 4 L 28 9.007812 L 25.332031 11.675781 L 25.332031 5.332031 L 6.667969 5.332031 L 6.667969 26.667969 L 25.332031 26.667969 L 25.332031 22.988281 L 28 20.324219 L 28 28 C 28 28.734375 27.402344 29.332031 26.667969 29.332031 L 5.332031 29.332031 C 4.597656 29.332031 4 28.734375 4 28 L 4 4 C 4 3.265625 4.597656 2.667969 5.332031 2.667969 Z M 29.039062 11.742188 L 30.921875 13.628906 L 20.550781 24 L 18.664062 23.996094 L 18.667969 22.113281 Z M 17.332031 16 L 17.332031 18.667969 L 10.667969 18.667969 L 10.667969 16 Z M 21.332031 10.667969 L 21.332031 13.332031 L 10.667969 13.332031 L 10.667969 10.667969 Z M 21.332031 10.667969 "/>
</g>
</svg>
