<?xml version="1.0" encoding="UTF-8"?>
<svg xmlns="http://www.w3.org/2000/svg" xmlns:xlink="http://www.w3.org/1999/xlink" width="32" height="32" viewBox="0 0 32 32" version="1.1">
<g id="surface1">
<path style=" stroke:none;fill-rule:nonzero;fill:rgb(0%,0%,0%);fill-opacity:1;" d="M 21.332031 17.332031 L 30.617188 22.75 L 26.65625 23.882812 L 29.488281 28.789062 L 27.179688 30.125 L 24.34375 25.21875 L 21.382812 28.085938 Z M 18.667969 8 L 21.332031 8 L 21.332031 10.667969 L 28 10.667969 C 28.738281 10.667969 29.332031 11.261719 29.332031 12 L 29.332031 17.332031 L 26.667969 17.332031 L 26.667969 13.332031 L 13.332031 13.332031 L 13.332031 26.667969 L 18.667969 26.667969 L 18.667969 29.332031 L 12 29.332031 C 11.261719 29.332031 10.667969 28.738281 10.667969 28 L 10.667969 21.332031 L 8 21.332031 L 8 18.667969 L 10.667969 18.667969 L 10.667969 12 C 10.667969 11.261719 11.261719 10.667969 12 10.667969 L 18.667969 10.667969 Z M 5.332031 18.667969 L 5.332031 21.332031 L 2.667969 21.332031 L 2.667969 18.667969 Z M 5.332031 13.332031 L 5.332031 16 L 2.667969 16 L 2.667969 13.332031 Z M 5.332031 8 L 5.332031 10.667969 L 2.667969 10.667969 L 2.667969 8 Z M 5.332031 2.667969 L 5.332031 5.332031 L 2.667969 5.332031 L 2.667969 2.667969 Z M 10.667969 2.667969 L 10.667969 5.332031 L 8 5.332031 L 8 2.667969 Z M 16 2.667969 L 16 5.332031 L 13.332031 5.332031 L 13.332031 2.667969 Z M 21.332031 2.667969 L 21.332031 5.332031 L 18.667969 5.332031 L 18.667969 2.667969 Z M 21.332031 2.667969 "/>
</g>
</svg>
