<?xml version="1.0" encoding="UTF-8"?>
<svg xmlns="http://www.w3.org/2000/svg" xmlns:xlink="http://www.w3.org/1999/xlink" width="32" height="32" viewBox="0 0 32 32" version="1.1">
<g id="surface1">
<path style=" stroke:none;fill-rule:nonzero;fill:rgb(0%,0%,0%);fill-opacity:1;" d="M 26.652344 15.429688 C 26.542969 13.332031 25.8125 11.3125 24.554688 9.628906 C 24.171875 10.039062 23.761719 10.429688 23.328125 10.789062 C 21.996094 11.894531 20.507812 12.796875 18.910156 13.46875 C 19.132812 13.933594 19.335938 14.386719 19.515625 14.8125 L 19.515625 14.816406 C 19.566406 14.9375 19.617188 15.054688 19.664062 15.175781 C 21.683594 14.949219 23.8125 15.035156 25.875 15.3125 C 26.148438 15.347656 26.40625 15.390625 26.652344 15.429688 Z M 14.136719 5.496094 C 15.4375 7.328125 16.636719 9.226562 17.726562 11.1875 C 19.359375 10.546875 20.707031 9.734375 21.792969 8.832031 C 22.167969 8.523438 22.523438 8.1875 22.851562 7.828125 C 20.933594 6.214844 18.507812 5.328125 16 5.332031 C 15.375 5.332031 14.753906 5.386719 14.136719 5.496094 Z M 5.671875 13.328125 C 6.578125 13.304688 7.484375 13.25 8.390625 13.164062 C 10.578125 12.96875 12.746094 12.601562 14.875 12.070312 C 13.761719 10.136719 12.558594 8.253906 11.273438 6.433594 C 8.492188 7.808594 6.449219 10.328125 5.671875 13.328125 Z M 7.710938 22.714844 C 8.226562 21.957031 8.90625 21.105469 9.8125 20.179688 C 11.75 18.195312 14.039062 16.648438 16.683594 15.792969 L 16.769531 15.769531 C 16.546875 15.285156 16.339844 14.851562 16.132812 14.445312 C 13.683594 15.15625 11.105469 15.601562 8.539062 15.832031 C 7.285156 15.945312 6.160156 15.996094 5.332031 16.003906 C 5.332031 18.449219 6.171875 20.816406 7.710938 22.714844 Z M 20.007812 25.886719 C 19.492188 23.292969 18.765625 20.746094 17.832031 18.273438 C 15.160156 19.242188 13.035156 20.660156 11.390625 22.351562 C 10.726562 23.023438 10.136719 23.761719 9.632812 24.558594 C 11.472656 25.929688 13.707031 26.671875 16 26.667969 C 17.375 26.667969 18.734375 26.40625 20.007812 25.890625 Z M 22.503906 24.453125 C 24.585938 22.851562 26.003906 20.539062 26.488281 17.960938 C 26.035156 17.847656 25.457031 17.734375 24.828125 17.644531 C 23.421875 17.441406 21.996094 17.429688 20.585938 17.601562 C 21.378906 19.839844 22.019531 22.128906 22.503906 24.453125 Z M 16 29.332031 C 8.636719 29.332031 2.667969 23.363281 2.667969 16 C 2.667969 8.636719 8.636719 2.667969 16 2.667969 C 23.363281 2.667969 29.332031 8.636719 29.332031 16 C 29.332031 23.363281 23.363281 29.332031 16 29.332031 Z M 16 29.332031 "/>
</g>
</svg>
