<?xml version="1.0" encoding="UTF-8"?>
<svg xmlns="http://www.w3.org/2000/svg" xmlns:xlink="http://www.w3.org/1999/xlink" width="32" height="32" viewBox="0 0 32 32" version="1.1">
<g id="surface1">
<path style=" stroke:none;fill-rule:evenodd;fill:rgb(0%,0%,0%);fill-opacity:1;" d="M 7 0 C 3.132812 0 0 3.132812 0 7 C 0 10.867188 3.132812 14 7 14 C 7.125 14 7.25 13.996094 7.375 13.988281 C 7.09375 11.507812 6.261719 9.0625 4.753906 6.851562 C 4.441406 6.394531 4.40625 5.800781 4.660156 5.308594 C 4.917969 4.816406 5.425781 4.507812 5.980469 4.503906 C 6.265625 4.496094 6.546875 4.574219 6.792969 4.722656 C 8.921875 6.046875 11.398438 6.953125 13.992188 7.3125 C 13.996094 7.207031 14 7.105469 14 7 C 14 3.132812 10.867188 0 7 0 Z M 25 0 C 21.132812 0 18 3.132812 18 7 C 18 7.136719 18.007812 7.277344 18.015625 7.414062 C 20.449219 7.15625 22.886719 6.324219 25.144531 4.769531 C 25.398438 4.589844 25.703125 4.496094 26.015625 4.5 C 26.5625 4.507812 27.0625 4.8125 27.320312 5.292969 C 27.578125 5.777344 27.554688 6.363281 27.253906 6.820312 C 25.839844 8.976562 24.972656 11.445312 24.65625 13.988281 C 24.769531 13.996094 24.886719 14 25 14 C 28.867188 14 32 10.867188 32 7 C 32 3.132812 28.867188 0 25 0 Z M 7 18 C 3.132812 18 0 21.132812 0 25 C 0 28.867188 3.132812 32 7 32 C 10.867188 32 14 28.867188 14 25 C 14 24.890625 13.996094 24.777344 13.992188 24.667969 C 11.433594 24.996094 8.960938 25.871094 6.820312 27.253906 C 6.226562 27.640625 5.445312 27.558594 4.945312 27.0625 C 4.441406 26.5625 4.355469 25.78125 4.738281 25.1875 C 6.121094 23.042969 6.996094 20.570312 7.324219 18.007812 C 7.214844 18.003906 7.109375 18 7 18 Z M 25 18 C 24.875 18 24.753906 18.003906 24.628906 18.011719 C 24.917969 20.515625 25.761719 22.96875 27.238281 25.15625 C 27.640625 25.75 27.5625 26.546875 27.054688 27.054688 C 26.546875 27.5625 25.75 27.640625 25.15625 27.238281 C 22.945312 25.730469 20.496094 24.894531 18.011719 24.617188 C 18.003906 24.746094 18 24.871094 18 25 C 18 28.867188 21.132812 32 25 32 C 28.867188 32 32 28.867188 32 25 C 32 21.132812 28.867188 18 25 18 Z M 25 18 "/>
<path style=" stroke:none;fill-rule:nonzero;fill:rgb(0%,0%,0%);fill-opacity:1;" d="M 8 8 C 11.410156 13.003906 10.984375 19.378906 8 24 C 12.625 21.011719 19 20.59375 24 24 C 20.695312 19.105469 20.90625 12.710938 24 8 C 18.777344 11.597656 12.472656 10.78125 8 8 Z M 8 8 "/>
</g>
</svg>
