<?xml version="1.0" encoding="UTF-8"?>
<svg xmlns="http://www.w3.org/2000/svg" xmlns:xlink="http://www.w3.org/1999/xlink" width="32" height="32" viewBox="0 0 32 32" version="1.1">
<g id="surface1">
<path style=" stroke:none;fill-rule:nonzero;fill:rgb(0%,0%,0%);fill-opacity:1;" d="M 20.667969 9.25 C 23.554688 10.917969 25.335938 14 25.332031 17.332031 L 25.332031 28 L 19.773438 28 C 19.207031 29.601562 17.695312 30.671875 16 30.671875 C 14.304688 30.671875 12.792969 29.601562 12.226562 28 L 6.667969 28 L 6.667969 17.332031 C 6.664062 14 8.445312 10.917969 11.332031 9.25 C 11.113281 8.855469 10.945312 8.4375 10.832031 8 L 6.667969 8 L 6.667969 5.332031 L 10.835938 5.332031 C 11.445312 2.980469 13.570312 1.335938 16 1.335938 C 18.429688 1.335938 20.554688 2.980469 21.164062 5.332031 L 25.332031 5.332031 L 25.332031 8 L 21.164062 8 C 21.050781 8.441406 20.882812 8.859375 20.667969 9.25 Z M 16 18.667969 C 15.261719 18.667969 14.667969 19.261719 14.667969 20 L 14.667969 26.667969 C 14.667969 27.402344 15.261719 28 16 28 C 16.738281 28 17.332031 27.402344 17.332031 26.667969 L 17.332031 20 C 17.332031 19.261719 16.738281 18.667969 16 18.667969 Z M 16 9.332031 C 17.472656 9.332031 18.667969 8.140625 18.667969 6.667969 C 18.667969 5.195312 17.472656 4 16 4 C 14.527344 4 13.332031 5.195312 13.332031 6.667969 C 13.332031 8.140625 14.527344 9.332031 16 9.332031 Z M 16 9.332031 "/>
</g>
</svg>
