<?xml version="1.0" encoding="UTF-8"?>
<svg xmlns="http://www.w3.org/2000/svg" xmlns:xlink="http://www.w3.org/1999/xlink" width="32" height="32" viewBox="0 0 32 32" version="1.1">
<g id="surface1">
<path style=" stroke:none;fill-rule:nonzero;fill:rgb(0%,0%,0%);fill-opacity:1;" d="M 10.675781 18.667969 C 10.667969 18.777344 10.667969 18.890625 10.667969 19 C 10.667969 22.175781 13.003906 25.332031 17.332031 25.332031 C 20.496094 25.332031 23.371094 24.460938 25.332031 23.261719 L 25.332031 27.730469 C 22.949219 28.753906 20.152344 29.332031 17.332031 29.332031 C 9.996094 29.332031 6.667969 24.707031 6.667969 19 C 6.667969 14.691406 9.386719 11 13.257812 9.449219 C 11.386719 11.550781 10.667969 13.789062 10.667969 14.660156 L 24 14.667969 C 24 10.125 20.601562 6.667969 16 6.667969 C 9.332031 6.667969 5.332031 11.984375 4 14.664062 C 4.386719 8.316406 9.347656 2.667969 16 2.667969 C 22.933594 2.667969 28 8.039062 28 14.667969 L 28 18.667969 L 10.667969 18.667969 Z M 10.675781 18.667969 "/>
</g>
</svg>
