<?xml version="1.0" encoding="UTF-8"?>
<svg xmlns="http://www.w3.org/2000/svg" xmlns:xlink="http://www.w3.org/1999/xlink" width="32" height="32" viewBox="0 0 32 32" version="1.1">
<g id="surface1">
<path style=" stroke:none;fill-rule:nonzero;fill:rgb(0%,0%,0%);fill-opacity:1;" d="M 16 2.667969 C 23.363281 2.667969 29.332031 8.636719 29.332031 16 C 29.332031 16.96875 29.230469 17.914062 29.035156 18.824219 L 26.65625 16.445312 C 26.859375 11.636719 23.8125 7.285156 19.21875 5.832031 C 14.628906 4.378906 9.632812 6.179688 7.027344 10.230469 C 4.425781 14.28125 4.855469 19.574219 8.082031 23.148438 C 11.308594 26.722656 16.527344 27.691406 20.824219 25.515625 C 21.332031 26.320312 22.050781 26.976562 22.898438 27.410156 C 20.816406 28.671875 18.433594 29.335938 16 29.332031 C 8.636719 29.332031 2.667969 23.363281 2.667969 16 C 2.667969 8.636719 8.636719 2.667969 16 2.667969 Z M 25.332031 18.894531 L 27.21875 20.78125 C 28.242188 21.804688 28.261719 23.457031 27.265625 24.503906 C 26.269531 25.554688 24.617188 25.617188 23.542969 24.644531 C 22.472656 23.675781 22.367188 22.023438 23.3125 20.929688 L 23.449219 20.78125 Z M 16 20 C 17.953125 20 19.714844 20.839844 20.933594 22.183594 L 19.671875 23.328125 C 18.621094 22.910156 17.355469 22.667969 16 22.667969 C 14.644531 22.667969 13.378906 22.910156 12.328125 23.328125 L 11.066406 22.179688 C 12.328125 20.789062 14.121094 19.996094 16 20 Z M 11.332031 13.332031 C 12.4375 13.332031 13.332031 14.230469 13.332031 15.332031 C 13.332031 16.4375 12.4375 17.332031 11.332031 17.332031 C 10.230469 17.332031 9.332031 16.4375 9.332031 15.332031 C 9.332031 14.230469 10.230469 13.332031 11.332031 13.332031 Z M 20.667969 13.332031 C 21.769531 13.332031 22.667969 14.230469 22.667969 15.332031 C 22.667969 16.4375 21.769531 17.332031 20.667969 17.332031 C 19.5625 17.332031 18.667969 16.4375 18.667969 15.332031 C 18.667969 14.230469 19.5625 13.332031 20.667969 13.332031 Z M 20.667969 13.332031 "/>
</g>
</svg>
