<?xml version="1.0" encoding="UTF-8"?>
<svg xmlns="http://www.w3.org/2000/svg" xmlns:xlink="http://www.w3.org/1999/xlink" width="32" height="32" viewBox="0 0 32 32" version="1.1">
<g id="surface1">
<path style=" stroke:none;fill-rule:nonzero;fill:rgb(0%,0%,0%);fill-opacity:1;" d="M 11.507812 10.339844 C 11.21875 10.605469 10.777344 10.628906 10.515625 10.628906 L 7.703125 10.628906 C 6.890625 10.628906 6.402344 10.628906 6.074219 10.671875 C 5.898438 10.695312 5.679688 10.785156 5.566406 10.828125 C 5.523438 10.847656 5.523438 10.828125 5.546875 10.808594 L 11.964844 4.21875 C 11.988281 4.199219 12.011719 4.199219 11.988281 4.242188 C 11.917969 4.40625 11.867188 4.578125 11.835938 4.753906 C 11.789062 5.085938 11.789062 5.570312 11.789062 6.390625 L 11.789062 9.339844 C 11.789062 9.609375 11.769531 10.050781 11.503906 10.339844 Z M 17.75 29.25 C 17.003906 28.761719 16.605469 28.121094 16.453125 27.722656 C 16.292969 27.332031 16.210938 26.917969 16.210938 26.5 C 16.210938 24.65625 17.707031 23.160156 19.554688 23.15625 C 20.101562 23.15625 20.542969 23.597656 20.542969 24.152344 C 20.542969 24.511719 20.351562 24.84375 20.035156 25.015625 C 19.917969 25.078125 19.792969 25.125 19.664062 25.148438 C 19.554688 25.171875 19.132812 25.214844 18.9375 25.394531 C 18.699219 25.582031 18.554688 25.863281 18.542969 26.167969 C 18.539062 26.492188 18.667969 26.804688 18.894531 27.035156 C 19.289062 27.433594 19.816406 27.65625 20.390625 27.65625 C 21.890625 27.648438 23.101562 26.429688 23.09375 24.929688 C 23.09375 23.574219 22.191406 22.378906 21.003906 21.847656 C 20.828125 21.757812 20.542969 21.691406 20.277344 21.625 C 20.058594 21.578125 19.839844 21.542969 19.617188 21.511719 C 18.695312 21.402344 16.386719 20.671875 16.230469 18.609375 C 16.230469 18.609375 15.550781 21.714844 14.1875 22.554688 C 14.054688 22.621094 13.878906 22.6875 13.679688 22.734375 C 13.484375 22.777344 13.265625 22.800781 13.199219 22.800781 C 10.976562 22.933594 8.625 22.222656 6.996094 20.539062 C 6.996094 20.539062 5.898438 19.628906 5.328125 17.078125 C 5.195312 16.457031 4.929688 15.347656 4.777344 14.308594 C 4.710938 13.933594 4.6875 13.644531 4.667969 13.375 C 4.667969 12.289062 5.328125 11.558594 6.160156 11.449219 L 10.648438 11.449219 C 11.414062 11.449219 11.855469 11.25 12.144531 10.984375 C 12.515625 10.628906 12.605469 10.117188 12.605469 9.519531 L 12.605469 4.839844 C 12.710938 4.019531 13.441406 3.332031 14.515625 3.332031 L 15.046875 3.332031 C 15.265625 3.332031 15.53125 3.355469 15.769531 3.378906 C 15.945312 3.398438 16.101562 3.445312 16.363281 3.511719 C 17.707031 3.84375 17.992188 5.21875 17.992188 5.21875 L 21.796875 5.882812 C 23.003906 6.105469 25.996094 6.304688 26.566406 9.34375 C 27.90625 16.570312 27.09375 23.574219 27.03125 23.574219 C 26.082031 30.402344 20.453125 30.070312 20.453125 30.070312 C 19.488281 30.089844 18.542969 29.804688 17.75 29.25 Z M 21.246094 15.503906 C 21.203125 15.617188 21.15625 15.75 21.179688 15.816406 C 21.203125 15.882812 21.246094 15.902344 21.289062 15.925781 C 21.554688 16.058594 21.992188 16.125 22.632812 16.191406 C 23.269531 16.261719 23.710938 16.304688 23.996094 16.261719 C 24.039062 16.261719 24.085938 16.238281 24.128906 16.171875 C 24.171875 16.105469 24.148438 15.96875 24.148438 15.859375 C 24.082031 15.261719 23.535156 14.820312 22.808594 14.730469 C 22.082031 14.664062 21.464844 14.953125 21.246094 15.503906 Z M 21.246094 15.503906 "/>
</g>
</svg>
