<?xml version="1.0" encoding="UTF-8"?>
<svg xmlns="http://www.w3.org/2000/svg" xmlns:xlink="http://www.w3.org/1999/xlink" width="32" height="32" viewBox="0 0 32 32" version="1.1">
<g id="surface1">
<path style=" stroke:none;fill-rule:nonzero;fill:rgb(0%,0%,0%);fill-opacity:1;" d="M 7.164062 6.011719 C 9.597656 3.851562 12.742188 2.660156 16 2.667969 C 23.363281 2.667969 29.332031 8.636719 29.332031 16 C 29.335938 18.726562 28.503906 21.386719 26.941406 23.621094 L 23.332031 16 L 26.667969 16 C 26.667969 11.660156 24.039062 7.753906 20.019531 6.121094 C 16.003906 4.484375 11.394531 5.445312 8.367188 8.550781 L 7.164062 6.015625 Z M 24.835938 25.988281 C 22.402344 28.148438 19.257812 29.339844 16 29.332031 C 8.636719 29.332031 2.667969 23.363281 2.667969 16 C 2.667969 13.167969 3.550781 10.539062 5.058594 8.378906 L 8.667969 16 L 5.332031 16 C 5.332031 20.339844 7.960938 24.246094 11.980469 25.878906 C 15.996094 27.515625 20.605469 26.554688 23.632812 23.449219 L 24.835938 25.984375 Z M 11.332031 18.667969 L 18.667969 18.667969 C 19.035156 18.667969 19.332031 18.367188 19.332031 18 C 19.332031 17.632812 19.035156 17.332031 18.667969 17.332031 L 13.332031 17.332031 C 11.492188 17.332031 10 15.839844 10 14 C 10 12.160156 11.492188 10.667969 13.332031 10.667969 L 14.667969 10.667969 L 14.667969 9.332031 L 17.332031 9.332031 L 17.332031 10.667969 L 20.667969 10.667969 L 20.667969 13.332031 L 13.332031 13.332031 C 12.964844 13.332031 12.667969 13.632812 12.667969 14 C 12.667969 14.367188 12.964844 14.667969 13.332031 14.667969 L 18.667969 14.667969 C 20.507812 14.667969 22 16.160156 22 18 C 22 19.839844 20.507812 21.332031 18.667969 21.332031 L 17.332031 21.332031 L 17.332031 22.667969 L 14.667969 22.667969 L 14.667969 21.332031 L 11.332031 21.332031 Z M 11.332031 18.667969 "/>
</g>
</svg>
