<?xml version="1.0" encoding="UTF-8"?>
<svg xmlns="http://www.w3.org/2000/svg" xmlns:xlink="http://www.w3.org/1999/xlink" width="32" height="32" viewBox="0 0 32 32" version="1.1">
<g id="surface1">
<path style=" stroke:none;fill-rule:nonzero;fill:rgb(0%,0%,0%);fill-opacity:1;" d="M 12.457031 25.042969 L 9.882812 24.351562 L 10.929688 20.433594 C 9.359375 19.855469 7.898438 19.011719 6.613281 17.9375 L 3.742188 20.808594 L 1.855469 18.921875 L 4.730469 16.050781 C 3.109375 14.109375 2.019531 11.78125 1.566406 9.292969 L 4.191406 8.8125 C 5.203125 14.414062 10.105469 18.667969 16 18.667969 C 21.894531 18.667969 26.796875 14.414062 27.808594 8.8125 L 30.433594 9.289062 C 29.980469 11.78125 28.894531 14.109375 27.273438 16.050781 L 30.144531 18.921875 L 28.257812 20.808594 L 25.386719 17.9375 C 24.101562 19.011719 22.640625 19.855469 21.070312 20.433594 L 22.117188 24.351562 L 19.542969 25.042969 L 18.492188 21.121094 C 16.84375 21.40625 15.15625 21.40625 13.507812 21.121094 Z M 12.457031 25.042969 "/>
</g>
</svg>
