<?xml version="1.0" encoding="UTF-8"?>
<svg xmlns="http://www.w3.org/2000/svg" xmlns:xlink="http://www.w3.org/1999/xlink" width="32" height="32" viewBox="0 0 32 32" version="1.1">
<g id="surface1">
<path style=" stroke:none;fill-rule:nonzero;fill:rgb(0%,0%,0%);fill-opacity:1;" d="M 16 2.667969 C 8.636719 2.667969 2.667969 8.636719 2.667969 16 C 2.667969 22.65625 7.542969 28.171875 13.917969 29.171875 L 13.917969 19.851562 L 10.53125 19.851562 L 10.53125 16 L 13.917969 16 L 13.917969 13.0625 C 13.917969 9.722656 15.90625 7.875 18.953125 7.875 C 20.410156 7.875 21.9375 8.136719 21.9375 8.136719 L 21.9375 11.414062 L 20.257812 11.414062 C 18.601562 11.414062 18.085938 12.445312 18.085938 13.5 L 18.085938 16 L 21.78125 16 L 21.191406 19.851562 L 18.085938 19.851562 L 18.085938 29.171875 C 24.457031 28.171875 29.332031 22.652344 29.332031 16 C 29.332031 8.636719 23.363281 2.667969 16 2.667969 Z M 16 2.667969 "/>
</g>
</svg>
