<?xml version="1.0" encoding="UTF-8"?>
<svg xmlns="http://www.w3.org/2000/svg" xmlns:xlink="http://www.w3.org/1999/xlink" width="32" height="32" viewBox="0 0 32 32" version="1.1">
<g id="surface1">
<path style=" stroke:none;fill-rule:nonzero;fill:rgb(0%,0%,0%);fill-opacity:1;" d="M 28 9.332031 L 28 27.992188 C 28.003906 28.726562 27.414062 29.328125 26.675781 29.332031 L 5.324219 29.332031 C 4.59375 29.332031 4 28.742188 4 28.011719 L 4 3.988281 C 4 3.273438 4.597656 2.667969 5.332031 2.667969 L 21.328125 2.667969 Z M 10.667969 10.667969 L 10.667969 18.132812 C 10.667969 19.265625 11.261719 20.324219 12.25 20.953125 L 16 23.332031 L 19.75 20.953125 C 20.726562 20.347656 21.324219 19.28125 21.332031 18.132812 L 21.332031 10.667969 Z M 13.332031 13.332031 L 18.667969 13.332031 L 18.667969 18.132812 C 18.667969 18.34375 18.546875 18.558594 18.320312 18.703125 L 16 20.171875 L 13.679688 18.699219 C 13.453125 18.554688 13.332031 18.34375 13.332031 18.132812 Z M 13.332031 13.332031 "/>
</g>
</svg>
