<?xml version="1.0" encoding="UTF-8"?>
<svg xmlns="http://www.w3.org/2000/svg" xmlns:xlink="http://www.w3.org/1999/xlink" width="32" height="32" viewBox="0 0 32 32" version="1.1">
<g id="surface1">
<path style=" stroke:none;fill-rule:nonzero;fill:rgb(0%,0%,0%);fill-opacity:1;" d="M 2.667969 5.324219 C 2.671875 4.59375 3.261719 4.003906 3.988281 4 L 28.011719 4 C 28.742188 4 29.332031 4.59375 29.332031 5.324219 L 29.332031 26.675781 C 29.328125 27.40625 28.738281 27.996094 28.011719 28 L 3.988281 28 C 3.257812 28 2.667969 27.40625 2.667969 26.675781 Z M 10.667969 6.667969 L 10.667969 25.332031 L 21.332031 25.332031 L 21.332031 6.667969 Z M 5.332031 6.667969 L 5.332031 9.332031 L 8 9.332031 L 8 6.667969 Z M 24 6.667969 L 24 9.332031 L 26.667969 9.332031 L 26.667969 6.667969 Z M 5.332031 12 L 5.332031 14.667969 L 8 14.667969 L 8 12 Z M 24 12 L 24 14.667969 L 26.667969 14.667969 L 26.667969 12 Z M 5.332031 17.332031 L 5.332031 20 L 8 20 L 8 17.332031 Z M 24 17.332031 L 24 20 L 26.667969 20 L 26.667969 17.332031 Z M 5.332031 22.667969 L 5.332031 25.332031 L 8 25.332031 L 8 22.667969 Z M 24 22.667969 L 24 25.332031 L 26.667969 25.332031 L 26.667969 22.667969 Z M 24 22.667969 "/>
</g>
</svg>
