<?xml version="1.0" encoding="UTF-8"?>
<svg xmlns="http://www.w3.org/2000/svg" xmlns:xlink="http://www.w3.org/1999/xlink" width="32" height="32" viewBox="0 0 32 32" version="1.1">
<g id="surface1">
<path style=" stroke:none;fill-rule:evenodd;fill:rgb(0%,0%,0%);fill-opacity:1;" d="M 12 0 L 10.183594 7.265625 C 7.363281 9.148438 5.5 12.359375 5.5 16 C 5.5 19.640625 7.363281 22.851562 10.183594 24.734375 L 12 32 L 20 32 L 21.816406 24.734375 C 24.636719 22.851562 26.5 19.640625 26.5 16 C 26.5 12.359375 24.636719 9.148438 21.816406 7.265625 L 20 0 Z M 15.882812 8.5 L 15.886719 8.5 C 15.921875 8.5 15.960938 8.5 15.996094 8.5 C 15.996094 8.5 16 8.5 16 8.5 C 20.148438 8.5 23.5 11.851562 23.5 16 C 23.5 20.148438 20.148438 23.5 16 23.5 C 11.851562 23.5 8.5 20.148438 8.5 16 C 8.5 11.898438 11.78125 8.5625 15.882812 8.5 Z M 13.347656 11.722656 C 13.257812 11.722656 13.171875 11.726562 13.082031 11.734375 C 11.773438 11.847656 10.652344 12.710938 10.203125 13.945312 C 9.753906 15.175781 10.0625 16.558594 10.988281 17.484375 L 16 22.222656 L 21.011719 17.484375 C 21.945312 16.550781 22.25 15.15625 21.789062 13.917969 C 21.328125 12.679688 20.183594 11.824219 18.867188 11.730469 C 17.765625 11.652344 16.695312 12.117188 16 12.976562 C 15.351562 12.175781 14.375 11.714844 13.347656 11.722656 Z M 13.347656 11.722656 "/>
</g>
</svg>
