<?xml version="1.0" encoding="UTF-8"?>
<svg xmlns="http://www.w3.org/2000/svg" xmlns:xlink="http://www.w3.org/1999/xlink" width="32" height="32" viewBox="0 0 32 32" version="1.1">
<g id="surface1">
<path style=" stroke:none;fill-rule:nonzero;fill:rgb(0%,0%,0%);fill-opacity:1;" d="M 6.667969 21.332031 L 6.667969 29.332031 L 4 29.332031 L 4 4 L 16.507812 4 C 17.015625 4 17.476562 4.285156 17.703125 4.738281 L 18.667969 6.667969 L 26.667969 6.667969 C 27.402344 6.667969 28 7.261719 28 8 L 28 22.667969 C 28 23.402344 27.402344 24 26.667969 24 L 18.15625 24 C 17.652344 24 17.191406 23.714844 16.964844 23.261719 L 16 21.332031 Z M 6.667969 6.667969 L 6.667969 18.667969 L 17.648438 18.667969 L 18.980469 21.332031 L 25.332031 21.332031 L 25.332031 9.332031 L 17.019531 9.332031 L 15.683594 6.667969 Z M 6.667969 6.667969 "/>
</g>
</svg>
