<?xml version="1.0" encoding="UTF-8"?>
<svg xmlns="http://www.w3.org/2000/svg" xmlns:xlink="http://www.w3.org/1999/xlink" width="32" height="32" viewBox="0 0 32 32" version="1.1">
<g id="surface1">
<path style=" stroke:none;fill-rule:nonzero;fill:rgb(0%,0%,0%);fill-opacity:1;" d="M 2.113281 17.34375 C -0.0625 11.867188 2.613281 5.664062 8.089844 3.488281 C 13.566406 1.3125 19.765625 3.988281 21.941406 9.464844 C 24.207031 9.027344 26.546875 9.683594 28.257812 11.230469 C 29.96875 12.78125 30.847656 15.042969 30.636719 17.34375 L 27.953125 17.34375 C 28.246094 15.34375 27.21875 13.382812 25.40625 12.484375 C 23.597656 11.585938 21.414062 11.957031 20 13.398438 L 20 13.332031 C 20 9.96875 17.894531 6.964844 14.730469 5.816406 C 11.570312 4.667969 8.027344 5.621094 5.867188 8.199219 C 3.707031 10.777344 3.390625 14.429688 5.074219 17.34375 Z M 5.332031 25.332031 L 28 25.332031 L 28 28 L 5.332031 28 Z M 2.667969 20 L 30.667969 20 L 30.667969 22.667969 L 2.667969 22.667969 Z M 2.667969 20 "/>
</g>
</svg>
