<?xml version="1.0" encoding="UTF-8"?>
<svg xmlns="http://www.w3.org/2000/svg" xmlns:xlink="http://www.w3.org/1999/xlink" width="32" height="32" viewBox="0 0 32 32" version="1.1">
<g id="surface1">
<path style=" stroke:none;fill-rule:nonzero;fill:rgb(0%,0%,0%);fill-opacity:1;" d="M 17.886719 6.667969 L 26.667969 6.667969 C 27.402344 6.667969 28 7.261719 28 8 L 28 9.332031 L 4 9.332031 L 4 5.332031 C 4 4.597656 4.597656 4 5.332031 4 L 15.21875 4 Z M 4.117188 12 L 27.882812 12 C 28.257812 12 28.613281 12.15625 28.867188 12.429688 C 29.117188 12.703125 29.246094 13.074219 29.214844 13.445312 L 28.101562 26.777344 C 28.042969 27.46875 27.464844 28 26.773438 28 L 5.226562 28 C 4.535156 28 3.957031 27.46875 3.898438 26.777344 L 2.785156 13.445312 C 2.753906 13.074219 2.882812 12.703125 3.132812 12.429688 C 3.386719 12.15625 3.742188 12 4.117188 12 Z M 4.117188 12 "/>
</g>
</svg>
