<?xml version="1.0" encoding="UTF-8"?>
<svg xmlns="http://www.w3.org/2000/svg" xmlns:xlink="http://www.w3.org/1999/xlink" width="32" height="32" viewBox="0 0 32 32" version="1.1">
<g id="surface1">
<path style=" stroke:none;fill-rule:nonzero;fill:rgb(0%,0%,0%);fill-opacity:1;" d="M 8 9.332031 L 8 5.332031 C 8 4.597656 8.597656 4 9.332031 4 L 17.886719 4 L 20.550781 6.667969 L 28 6.667969 C 28.738281 6.667969 29.332031 7.261719 29.332031 8 L 29.332031 21.332031 C 29.332031 22.070312 28.738281 22.667969 28 22.667969 L 24 22.667969 L 24 26.667969 C 24 27.402344 23.402344 28 22.667969 28 L 4 28 C 3.261719 28 2.667969 27.402344 2.667969 26.667969 L 2.667969 10.667969 C 2.667969 9.929688 3.261719 9.332031 4 9.332031 Z M 8 12 L 5.332031 12 L 5.332031 25.332031 L 21.332031 25.332031 L 21.332031 22.667969 L 8 22.667969 Z M 8 12 "/>
</g>
</svg>
