<?xml version="1.0" encoding="UTF-8"?>
<svg xmlns="http://www.w3.org/2000/svg" xmlns:xlink="http://www.w3.org/1999/xlink" width="32" height="32" viewBox="0 0 32 32" version="1.1">
<g id="surface1">
<path style=" stroke:none;fill-rule:nonzero;fill:rgb(0%,0%,0%);fill-opacity:1;" d="M 5.332031 24 L 12.667969 24 L 12.667969 25.667969 C 12.667969 27.691406 11.023438 29.332031 9 29.332031 C 6.976562 29.332031 5.332031 27.691406 5.332031 25.667969 Z M 10.742188 18.667969 L 10.804688 18.492188 C 11.828125 15.683594 12 15.160156 12 14.667969 C 12 13.667969 11.730469 12.476562 11.296875 11.636719 C 10.972656 11.007812 10.746094 10.828125 10.667969 10.828125 C 8.960938 10.828125 7.332031 12.644531 7.332031 14.667969 C 7.332031 15.945312 7.433594 17.03125 7.636719 18.34375 L 7.6875 18.667969 Z M 10.667969 8.160156 C 13.332031 8.160156 14.667969 12 14.667969 14.667969 C 14.667969 16 14 17.332031 13.332031 19.332031 L 12.667969 21.332031 L 5.332031 21.332031 C 5.332031 20 4.667969 18 4.667969 14.667969 C 4.667969 11.332031 7.332031 8.160156 10.667969 8.160156 Z M 26.738281 18.796875 L 26.449219 20.4375 C 26.097656 22.433594 24.195312 23.765625 22.203125 23.414062 C 20.207031 23.0625 18.875 21.160156 19.226562 19.164062 L 19.515625 17.523438 Z M 25.339844 13.136719 C 25.558594 12.46875 25.738281 11.941406 25.742188 11.9375 C 26.011719 11.058594 26.222656 10.199219 26.390625 9.257812 C 26.738281 7.269531 25.453125 5.195312 23.773438 4.898438 C 23.695312 4.886719 23.441406 5.023438 23.011719 5.585938 C 22.441406 6.339844 21.96875 7.464844 21.792969 8.449219 C 21.714844 8.886719 21.726562 8.988281 22.152344 11.464844 C 22.214844 11.808594 22.261719 12.113281 22.308594 12.421875 L 22.335938 12.605469 Z M 24.238281 2.273438 C 27.523438 2.851562 29.59375 6.4375 29.015625 9.722656 C 28.4375 13.003906 27.433594 14.859375 27.203125 16.171875 L 19.980469 14.898438 L 19.671875 12.8125 C 19.363281 10.726562 18.9375 9.296875 19.167969 7.988281 C 19.628906 5.359375 21.609375 1.8125 24.238281 2.273438 Z M 24.238281 2.273438 "/>
</g>
</svg>
