<?xml version="1.0" encoding="UTF-8"?>
<svg xmlns="http://www.w3.org/2000/svg" xmlns:xlink="http://www.w3.org/1999/xlink" width="32" height="32" viewBox="0 0 32 32" version="1.1">
<g id="surface1">
<path style=" stroke:none;fill-rule:nonzero;fill:rgb(0%,0%,0%);fill-opacity:1;" d="M 16 2.667969 C 20.003906 2.664062 23.792969 4.460938 26.324219 7.5625 L 17.886719 16 L 26.324219 24.4375 C 23.792969 27.539062 20.003906 29.335938 16 29.332031 C 8.636719 29.332031 2.667969 23.363281 2.667969 16 C 2.667969 8.636719 8.636719 2.667969 16 2.667969 Z M 16 6.667969 C 14.894531 6.667969 14 7.5625 14 8.667969 C 14 9.769531 14.894531 10.667969 16 10.667969 C 17.105469 10.667969 18 9.769531 18 8.667969 C 18 7.5625 17.105469 6.667969 16 6.667969 Z M 16 6.667969 "/>
</g>
</svg>
