<?xml version="1.0" encoding="UTF-8"?>
<svg xmlns="http://www.w3.org/2000/svg" xmlns:xlink="http://www.w3.org/1999/xlink" width="32" height="32" viewBox="0 0 32 32" version="1.1">
<g id="surface1">
<path style=" stroke:none;fill-rule:nonzero;fill:rgb(0%,0%,0%);fill-opacity:1;" d="M 2.761719 -0.0546875 C 1.09375 0.757812 0.015625 2.597656 0.015625 4.609375 L 0.0078125 32 L 4 32 L 4 8.367188 C 4 7.160156 4.859375 6.210938 5.953125 6.210938 L 26.378906 6.210938 C 27.285156 6.210938 28 7 28 8 L 28 32 L 31.992188 32 L 32 4.90625 C 32 2.804688 30.894531 0.890625 29.171875 0 C 18.007812 0.046875 14.007812 0.046875 2.761719 -0.0546875 Z M 2.761719 -0.0546875 "/>
<path style=" stroke:none;fill-rule:nonzero;fill:rgb(0%,0%,0%);fill-opacity:1;" d="M 9.238281 14 C 8.507812 14 7.863281 14.488281 7.664062 15.191406 L 6 23.0625 L 6 26.066406 C 6 26.617188 6.445312 27.0625 6.996094 27.0625 L 6.996094 31.46875 C 6.996094 31.761719 7.234375 32 7.527344 32 L 10.335938 32 C 10.703125 32 11 31.703125 11 31.335938 L 11 28 L 20.992188 28 L 20.992188 31.46875 C 20.992188 31.761719 21.230469 32 21.523438 32 L 24.511719 32 C 24.777344 32 24.996094 31.78125 24.996094 31.515625 L 24.996094 27.0625 C 25.566406 27.046875 26.015625 26.570312 26 26 L 26 23.0625 L 24.339844 15.195312 C 24.140625 14.488281 23.492188 14 22.757812 14 Z M 10.484375 16 L 21.730469 16 C 21.890625 16 22.03125 16.109375 22.074219 16.261719 L 23.15625 20 L 8.945312 20 L 9.875 16.46875 C 9.949219 16.191406 10.199219 16 10.484375 16 Z M 8.984375 24 L 11.015625 24 C 11.5625 24 12 24.4375 12 24.984375 L 12 25.015625 C 12 25.5625 11.5625 26 11.015625 26 L 8.984375 26 C 8.4375 26 8 25.5625 8 25.015625 L 8 24.984375 C 8 24.4375 8.4375 24 8.984375 24 Z M 20.984375 24 L 23.015625 24 C 23.5625 24 24 24.4375 24 24.984375 L 24 25.015625 C 24 25.5625 23.5625 26 23.015625 26 L 20.984375 26 C 20.4375 26 20 25.5625 20 25.015625 L 20 24.984375 C 20 24.4375 20.4375 24 20.984375 24 Z M 20.984375 24 "/>
</g>
</svg>
