<?xml version="1.0" encoding="UTF-8"?>
<svg xmlns="http://www.w3.org/2000/svg" xmlns:xlink="http://www.w3.org/1999/xlink" width="32" height="32" viewBox="0 0 32 32" version="1.1">
<g id="surface1">
<path style=" stroke:none;fill-rule:nonzero;fill:rgb(0%,0%,0%);fill-opacity:1;" d="M 16 2.667969 C 8.667969 2.667969 2.667969 8.667969 2.667969 16 C 2.667969 23.332031 8.667969 29.332031 16 29.332031 C 23.332031 29.332031 29.332031 23.332031 29.332031 16 C 29.332031 8.667969 23.332031 2.667969 16 2.667969 Z M 8.570312 23.429688 C 6.570312 21.429688 5.523438 18.761719 5.523438 16.191406 L 15.90625 26.476562 C 13.238281 26.382812 10.570312 25.429688 8.570312 23.429688 Z M 18.285156 26.191406 L 5.808594 13.714844 C 6.855469 9.046875 11.046875 5.523438 16 5.523438 C 19.523438 5.523438 22.570312 7.238281 24.476562 9.808594 L 23.046875 11.046875 C 21.425781 8.855469 18.855469 7.425781 16 7.425781 C 12.285156 7.425781 9.144531 9.808594 7.90625 13.140625 L 18.855469 24.09375 C 21.617188 23.140625 23.714844 20.761719 24.382812 17.902344 L 19.808594 17.902344 L 19.808594 16 L 26.476562 16 C 26.476562 20.953125 22.953125 25.144531 18.285156 26.191406 Z M 18.285156 26.191406 "/>
</g>
</svg>
