<?xml version="1.0" encoding="UTF-8"?>
<svg xmlns="http://www.w3.org/2000/svg" xmlns:xlink="http://www.w3.org/1999/xlink" width="32" height="32" viewBox="0 0 32 32" version="1.1">
<g id="surface1">
<path style=" stroke:none;fill-rule:nonzero;fill:rgb(0%,0%,0%);fill-opacity:1;" d="M 16 2.667969 C 20.667969 2.667969 24 6.667969 25.332031 10.667969 C 29.332031 12 30.667969 15.640625 30.667969 18.667969 L 26.964844 19.722656 C 26.394531 19.886719 26 20.410156 26 21.003906 L 26 23 C 26 24.289062 24.957031 25.332031 23.667969 25.332031 L 22.871094 25.332031 C 21.976562 25.332031 21.140625 25.78125 20.648438 26.527344 C 19.410156 28.398438 17.863281 29.332031 16 29.332031 C 14.136719 29.332031 12.589844 28.398438 11.351562 26.527344 C 10.859375 25.78125 10.023438 25.332031 9.128906 25.332031 L 8.332031 25.332031 C 7.042969 25.332031 6 24.289062 6 23 L 6 21.003906 C 6 20.410156 5.605469 19.886719 5.035156 19.722656 L 1.332031 18.667969 C 1.332031 15.644531 2.667969 12 6.667969 10.667969 C 8 6.667969 11.332031 2.667969 16 2.667969 Z M 16 5.332031 C 13.1875 5.332031 10.578125 7.71875 9.320312 11.160156 L 9.195312 11.507812 L 8.773438 12.777344 L 7.507812 13.195312 C 5.835938 13.753906 4.753906 14.984375 4.277344 16.609375 L 4.246094 16.722656 L 5.765625 17.160156 C 7.398438 17.625 8.558594 19.070312 8.660156 20.765625 L 8.667969 21.003906 L 8.667969 22.667969 L 9.128906 22.667969 C 10.808594 22.667969 12.386719 23.457031 13.394531 24.800781 L 13.574219 25.054688 C 14.34375 26.21875 15.089844 26.667969 16 26.667969 C 16.851562 26.667969 17.554688 26.277344 18.269531 25.28125 L 18.425781 25.054688 C 19.351562 23.65625 20.882812 22.773438 22.558594 22.675781 L 22.871094 22.667969 L 23.332031 22.667969 L 23.332031 21.003906 C 23.332031 19.308594 24.402344 17.796875 26.003906 17.230469 L 26.234375 17.160156 L 27.753906 16.722656 L 27.722656 16.609375 C 27.273438 15.074219 26.28125 13.890625 24.761719 13.296875 L 24.492188 13.195312 L 23.222656 12.773438 L 22.804688 11.507812 C 21.59375 7.878906 18.90625 5.332031 16 5.332031 Z M 16 16 C 17.105469 16 18 17.492188 18 19.332031 C 18 21.171875 17.105469 22.667969 16 22.667969 C 14.894531 22.667969 14 21.171875 14 19.332031 C 14 17.492188 14.894531 16 16 16 Z M 12.667969 10.667969 C 13.769531 10.667969 14.667969 11.5625 14.667969 12.667969 C 14.667969 13.769531 13.769531 14.667969 12.667969 14.667969 C 11.5625 14.667969 10.667969 13.769531 10.667969 12.667969 C 10.667969 11.5625 11.5625 10.667969 12.667969 10.667969 Z M 19.332031 10.667969 C 20.4375 10.667969 21.332031 11.5625 21.332031 12.667969 C 21.332031 13.769531 20.4375 14.667969 19.332031 14.667969 C 18.230469 14.667969 17.332031 13.769531 17.332031 12.667969 C 17.332031 11.5625 18.230469 10.667969 19.332031 10.667969 Z M 19.332031 10.667969 "/>
</g>
</svg>
