<?xml version="1.0" encoding="UTF-8"?>
<svg xmlns="http://www.w3.org/2000/svg" xmlns:xlink="http://www.w3.org/1999/xlink" width="32" height="32" viewBox="0 0 32 32" version="1.1">
<g id="surface1">
<path style=" stroke:none;fill-rule:nonzero;fill:rgb(0%,0%,0%);fill-opacity:1;" d="M 2.667969 25.332031 L 2.667969 10.667969 L 1.332031 10.667969 L 1.332031 8 L 5.332031 8 L 5.332031 5.332031 C 5.332031 4.597656 5.929688 4 6.667969 4 L 25.332031 4 C 26.070312 4 26.667969 4.597656 26.667969 5.332031 L 26.667969 8 L 30.667969 8 L 30.667969 10.667969 L 29.332031 10.667969 L 29.332031 25.332031 L 30.667969 25.332031 L 30.667969 28 L 1.332031 28 L 1.332031 25.332031 Z M 17.332031 25.332031 L 17.332031 16 L 14.667969 16 L 14.667969 25.332031 Z M 10.667969 25.332031 L 10.667969 16 L 8 16 L 8 25.332031 Z M 24 25.332031 L 24 16 L 21.332031 16 L 21.332031 25.332031 Z M 8 6.667969 L 8 8 L 24 8 L 24 6.667969 Z M 8 6.667969 "/>
</g>
</svg>
