<?xml version="1.0" encoding="UTF-8"?>
<svg xmlns="http://www.w3.org/2000/svg" xmlns:xlink="http://www.w3.org/1999/xlink" width="32" height="32" viewBox="0 0 32 32" version="1.1">
<g id="surface1">
<path style=" stroke:none;fill-rule:nonzero;fill:rgb(0%,0%,0%);fill-opacity:1;" d="M 16 29.332031 C 8.636719 29.332031 2.667969 23.363281 2.667969 16 C 2.667969 8.636719 8.636719 2.667969 16 2.667969 C 23.363281 2.667969 29.332031 8.636719 29.332031 16 C 29.332031 23.363281 23.363281 29.332031 16 29.332031 Z M 10.835938 14.667969 L 5.414062 14.667969 C 5.304688 15.550781 5.304688 16.449219 5.414062 17.332031 L 10.835938 17.332031 C 10.609375 16.457031 10.609375 15.542969 10.835938 14.667969 Z M 21.164062 14.667969 C 21.390625 15.542969 21.390625 16.457031 21.164062 17.332031 L 26.585938 17.332031 C 26.695312 16.449219 26.695312 15.550781 26.585938 14.667969 Z M 16 18.667969 C 17.472656 18.667969 18.667969 17.472656 18.667969 16 C 18.667969 14.527344 17.472656 13.332031 16 13.332031 C 14.527344 13.332031 13.332031 14.527344 13.332031 16 C 13.332031 17.472656 14.527344 18.667969 16 18.667969 Z M 16 18.667969 "/>
</g>
</svg>
