<?xml version="1.0" encoding="UTF-8"?>
<svg xmlns="http://www.w3.org/2000/svg" xmlns:xlink="http://www.w3.org/1999/xlink" width="32" height="32" viewBox="0 0 32 32" version="1.1">
<g id="surface1">
<path style=" stroke:none;fill-rule:nonzero;fill:rgb(0%,0%,0%);fill-opacity:1;" d="M 2.667969 29.332031 C 2.667969 23.441406 7.441406 18.667969 13.332031 18.667969 C 19.222656 18.667969 24 23.441406 24 29.332031 L 21.332031 29.332031 C 21.332031 24.914062 17.75 21.332031 13.332031 21.332031 C 8.914062 21.332031 5.332031 24.914062 5.332031 29.332031 Z M 13.332031 17.332031 C 8.914062 17.332031 5.332031 13.753906 5.332031 9.332031 C 5.332031 4.914062 8.914062 1.332031 13.332031 1.332031 C 17.753906 1.332031 21.332031 4.914062 21.332031 9.332031 C 21.332031 13.753906 17.753906 17.332031 13.332031 17.332031 Z M 13.332031 14.667969 C 16.28125 14.667969 18.667969 12.28125 18.667969 9.332031 C 18.667969 6.386719 16.28125 4 13.332031 4 C 10.386719 4 8 6.386719 8 9.332031 C 8 12.28125 10.386719 14.667969 13.332031 14.667969 Z M 24.378906 19.605469 C 28.207031 21.328125 30.667969 25.136719 30.667969 29.332031 L 28 29.332031 C 28 26.183594 26.15625 23.328125 23.285156 22.035156 Z M 23.460938 4.550781 C 26.207031 5.683594 28 8.363281 28 11.332031 C 28 15.125 25.109375 18.292969 21.332031 18.636719 L 21.332031 15.953125 C 23.363281 15.664062 24.960938 14.082031 25.28125 12.058594 C 25.601562 10.035156 24.5625 8.042969 22.722656 7.140625 Z M 23.460938 4.550781 "/>
</g>
</svg>
