<?xml version="1.0" encoding="UTF-8"?>
<svg xmlns="http://www.w3.org/2000/svg" xmlns:xlink="http://www.w3.org/1999/xlink" width="32" height="32" viewBox="0 0 32 32" version="1.1">
<g id="surface1">
<path style=" stroke:none;fill-rule:nonzero;fill:rgb(0%,0%,0%);fill-opacity:1;" d="M 22 4 C 26.050781 4 29.332031 7.332031 29.332031 12 C 29.332031 21.332031 19.332031 26.667969 16 28.667969 C 13.363281 27.085938 6.554688 23.417969 3.824219 17.332031 L 10.089844 17.332031 L 11.332031 15.257812 L 15.332031 21.925781 L 18.089844 17.332031 L 22.667969 17.332031 L 22.667969 14.667969 L 16.578125 14.667969 L 15.332031 16.742188 L 11.332031 10.074219 L 8.578125 14.667969 L 2.945312 14.667969 C 2.765625 13.816406 2.667969 12.929688 2.667969 12 C 2.667969 7.332031 6 4 10 4 C 12.480469 4 14.667969 5.332031 16 6.667969 C 17.332031 5.332031 19.519531 4 22 4 Z M 22 4 "/>
</g>
</svg>
