<?xml version="1.0" encoding="UTF-8"?>
<svg xmlns="http://www.w3.org/2000/svg" xmlns:xlink="http://www.w3.org/1999/xlink" width="32" height="32" viewBox="0 0 32 32" version="1.1">
<g id="surface1">
<path style=" stroke:none;fill-rule:nonzero;fill:rgb(0%,0%,0%);fill-opacity:1;" d="M 25.332031 18.667969 L 25.332031 22.667969 L 29.332031 22.667969 L 29.332031 25.332031 L 25.332031 25.332031 L 25.332031 29.332031 L 22.667969 29.332031 L 22.667969 25.332031 L 18.667969 25.332031 L 18.667969 22.667969 L 22.667969 22.667969 L 22.667969 18.667969 Z M 26.992188 6.34375 C 29.871094 9.230469 30.097656 13.753906 27.667969 16.890625 C 26.566406 16.320312 25.320312 16 24 16 C 19.582031 16 16 19.582031 16 24 C 16 25.34375 16.332031 26.613281 16.917969 27.726562 L 16 28.648438 L 4.695312 17.324219 C 1.890625 14.183594 1.996094 9.359375 5.007812 6.34375 C 8.03125 3.324219 12.859375 3.222656 16 6.039062 C 19.132812 3.226562 23.972656 3.320312 26.992188 6.34375 Z M 26.992188 6.34375 "/>
</g>
</svg>
