<?xml version="1.0" encoding="UTF-8"?>
<svg xmlns="http://www.w3.org/2000/svg" xmlns:xlink="http://www.w3.org/1999/xlink" width="32" height="32" viewBox="0 0 32 32" version="1.1">
<g id="surface1">
<path style=" stroke:none;fill-rule:nonzero;fill:rgb(0%,0%,0%);fill-opacity:1;" d="M 16 2.667969 C 23.363281 2.667969 29.332031 8.636719 29.332031 16 C 29.332031 23.363281 23.363281 29.332031 16 29.332031 C 8.636719 29.332031 2.667969 23.363281 2.667969 16 L 5.332031 16 C 5.332031 21.890625 10.109375 26.667969 16 26.667969 C 21.890625 26.667969 26.667969 21.890625 26.667969 16 C 26.667969 10.109375 21.890625 5.332031 16 5.332031 C 12.714844 5.332031 9.777344 6.820312 7.820312 9.152344 L 10.667969 12 L 2.667969 12 L 2.667969 4 L 5.929688 7.261719 C 8.375 4.449219 11.980469 2.667969 16 2.667969 Z M 17.332031 9.332031 L 17.332031 15.445312 L 21.65625 19.769531 L 19.769531 21.65625 L 14.667969 16.550781 L 14.667969 9.332031 Z M 17.332031 9.332031 "/>
</g>
</svg>
