<?xml version="1.0" encoding="UTF-8"?>
<svg xmlns="http://www.w3.org/2000/svg" xmlns:xlink="http://www.w3.org/1999/xlink" width="32" height="32" viewBox="0 0 32 32" version="1.1">
<g id="surface1">
<path style=" stroke:none;fill-rule:nonzero;fill:rgb(0%,0%,0%);fill-opacity:1;" d="M 26.667969 26.667969 C 26.667969 27.402344 26.070312 28 25.332031 28 L 6.667969 28 C 5.929688 28 5.332031 27.402344 5.332031 26.667969 L 5.332031 14.667969 L 1.332031 14.667969 L 15.101562 2.148438 C 15.613281 1.6875 16.386719 1.6875 16.898438 2.148438 L 30.667969 14.667969 L 26.667969 14.667969 Z M 9.332031 14.667969 L 9.332031 17.332031 C 13.015625 17.332031 16 20.316406 16 24 L 18.667969 24 C 18.667969 18.84375 14.488281 14.667969 9.332031 14.667969 Z M 9.332031 20 L 9.332031 24 L 13.332031 24 C 13.332031 21.789062 11.542969 20 9.332031 20 Z M 9.332031 20 "/>
</g>
</svg>
