<?xml version="1.0" encoding="UTF-8"?>
<svg xmlns="http://www.w3.org/2000/svg" xmlns:xlink="http://www.w3.org/1999/xlink" width="32" height="32" viewBox="0 0 32 32" version="1.1">
<g id="surface1">
<path style=" stroke:none;fill-rule:nonzero;fill:rgb(0%,0%,0%);fill-opacity:1;" d="M 14.667969 2.667969 L 14.667969 14.667969 L 24 14.667969 L 24 28 C 24 28.738281 23.402344 29.332031 22.667969 29.332031 L 6.667969 29.332031 C 5.929688 29.332031 5.332031 28.738281 5.332031 28 L 5.332031 4 C 5.332031 3.261719 5.929688 2.667969 6.667969 2.667969 Z M 17.332031 9.332031 C 18.804688 9.332031 20 10.527344 20 12 L 17.332031 12 Z M 17.332031 5.332031 C 21.015625 5.332031 24 8.316406 24 12 L 21.332031 12 C 21.332031 9.789062 19.542969 8 17.332031 8 Z M 17.332031 1.332031 C 23.222656 1.332031 28 6.109375 28 12 L 25.332031 12 C 25.332031 7.582031 21.75 4 17.332031 4 Z M 17.332031 1.332031 "/>
</g>
</svg>
