<?xml version="1.0" encoding="UTF-8"?>
<svg xmlns="http://www.w3.org/2000/svg" xmlns:xlink="http://www.w3.org/1999/xlink" width="32" height="32" viewBox="0 0 32 32" version="1.1">
<g id="surface1">
<path style=" stroke:none;fill-rule:nonzero;fill:rgb(0%,0%,0%);fill-opacity:1;" d="M 15.796875 31.992188 C 22.769531 32.179688 29.367188 27.34375 31.296875 20.640625 C 31.300781 20.636719 31.296875 20.628906 31.296875 20.625 C 33.429688 13.945312 30.59375 6.238281 24.640625 2.539062 C 18.816406 -1.328125 10.636719 -0.710938 5.445312 3.972656 C 0.113281 8.515625 -1.550781 16.570312 1.546875 22.855469 C 4.082031 28.304688 9.757812 31.957031 15.765625 31.992188 Z M 15.828125 30 C 15.820312 30 15.8125 30 15.796875 30 C 10.582031 29.980469 5.539062 26.730469 3.347656 22 C 3.34375 21.996094 3.34375 21.988281 3.332031 21.984375 C 0.652344 16.5625 2.144531 9.386719 6.753906 5.476562 C 6.761719 5.464844 6.761719 5.460938 6.769531 5.449219 C 11.238281 1.410156 18.507812 0.875 23.527344 4.207031 C 23.535156 4.210938 23.550781 4.21875 23.558594 4.222656 C 28.699219 7.40625 31.234375 14.277344 29.390625 20.035156 C 29.386719 20.046875 29.382812 20.054688 29.375 20.0625 C 27.722656 25.855469 21.84375 30.171875 15.820312 30 Z M 18.003906 26 L 18.003906 22 L 14.003906 22 L 14.003906 26 Z M 18.003906 18 L 18.003906 6 L 14.003906 6 L 14.003906 18 Z M 18.003906 18 "/>
</g>
</svg>
