<?xml version="1.0" encoding="UTF-8"?>
<svg xmlns="http://www.w3.org/2000/svg" xmlns:xlink="http://www.w3.org/1999/xlink" width="32" height="32" viewBox="0 0 32 32" version="1.1">
<g id="surface1">
<path style=" stroke:none;fill-rule:nonzero;fill:rgb(0%,0%,0%);fill-opacity:1;" d="M 4 4 L 28 4 C 28.738281 4 29.332031 4.597656 29.332031 5.332031 L 29.332031 26.667969 C 29.332031 27.402344 28.738281 28 28 28 L 4 28 C 3.261719 28 2.667969 27.402344 2.667969 26.667969 L 2.667969 5.332031 C 2.667969 4.597656 3.261719 4 4 4 Z M 26.667969 18.667969 L 22.113281 18.667969 C 21.050781 21.097656 18.652344 22.667969 16 22.667969 C 13.347656 22.667969 10.949219 21.097656 9.886719 18.667969 L 5.332031 18.667969 L 5.332031 25.332031 L 26.667969 25.332031 Z M 26.667969 16 L 26.667969 6.667969 L 5.332031 6.667969 L 5.332031 16 L 12 16 C 12 18.210938 13.789062 20 16 20 C 18.210938 20 20 18.210938 20 16 Z M 26.667969 16 "/>
</g>
</svg>
