<?xml version="1.0" encoding="UTF-8"?>
<svg xmlns="http://www.w3.org/2000/svg" xmlns:xlink="http://www.w3.org/1999/xlink" width="32" height="32" viewBox="0 0 32 32" version="1.1">
<g id="surface1">
<path style=" stroke:none;fill-rule:nonzero;fill:rgb(0%,0%,0%);fill-opacity:1;" d="M 16.003906 1 C 14.898438 0.996094 14 1.886719 13.996094 2.992188 L 13.996094 20.03125 L 28.832031 30.632812 C 29.265625 30.9375 29.804688 31.0625 30.328125 30.972656 C 30.851562 30.882812 31.316406 30.589844 31.625 30.160156 C 32.269531 29.261719 32.0625 28.011719 31.167969 27.367188 L 17.996094 17.964844 L 17.996094 2.992188 C 17.992188 1.894531 17.101562 1.003906 16.003906 1 Z M 16.003906 1 "/>
<path style=" stroke:none;fill-rule:nonzero;fill:rgb(0%,0%,0%);fill-opacity:1;" d="M 15.945312 17.003906 C 15.546875 17.015625 15.160156 17.144531 14.835938 17.371094 L 0.839844 27.367188 C 0.410156 27.675781 0.117188 28.140625 0.0273438 28.664062 C -0.0625 29.1875 0.0625 29.726562 0.367188 30.160156 C 0.675781 30.589844 1.144531 30.882812 1.667969 30.972656 C 2.191406 31.0625 2.726562 30.9375 3.160156 30.632812 L 17.15625 20.621094 C 17.589844 20.3125 17.882812 19.847656 17.96875 19.324219 C 18.058594 18.800781 17.9375 18.261719 17.628906 17.832031 C 17.238281 17.292969 16.609375 16.984375 15.945312 17.003906 Z M 15.945312 17.003906 "/>
</g>
</svg>
