<?xml version="1.0" encoding="UTF-8"?>
<svg xmlns="http://www.w3.org/2000/svg" xmlns:xlink="http://www.w3.org/1999/xlink" width="32" height="32" viewBox="0 0 32 32" version="1.1">
<g id="surface1">
<path style=" stroke:none;fill-rule:nonzero;fill:rgb(0%,0%,0%);fill-opacity:1;" d="M 14.34375 15.769531 L 24.808594 5.304688 L 26.695312 7.191406 L 24.808594 9.078125 L 28.109375 12.375 L 26.222656 14.261719 L 22.921875 10.960938 L 21.039062 12.847656 L 23.867188 15.675781 L 21.980469 17.5625 L 19.152344 14.734375 L 16.230469 17.65625 C 18.109375 20.511719 17.523438 24.324219 14.875 26.488281 C 12.226562 28.648438 8.375 28.460938 5.953125 26.046875 C 3.523438 23.628906 3.324219 19.761719 5.492188 17.109375 C 7.660156 14.453125 11.488281 13.875 14.34375 15.769531 Z M 13.496094 24.160156 C 14.550781 23.160156 14.984375 21.664062 14.617188 20.257812 C 14.253906 18.847656 13.15625 17.746094 11.746094 17.382812 C 10.335938 17.019531 8.839844 17.449219 7.839844 18.507812 C 6.324219 20.078125 6.347656 22.570312 7.890625 24.113281 C 9.433594 25.65625 11.925781 25.679688 13.496094 24.164062 Z M 13.496094 24.160156 "/>
</g>
</svg>
