<?xml version="1.0" encoding="UTF-8"?>
<svg xmlns="http://www.w3.org/2000/svg" xmlns:xlink="http://www.w3.org/1999/xlink" width="32" height="32" viewBox="0 0 32 32" version="1.1">
<g id="surface1">
<path style=" stroke:none;fill-rule:nonzero;fill:rgb(0%,0%,0%);fill-opacity:1;" d="M 25.964844 0.386719 L 11.019531 16.3125 C 10.285156 16.019531 9.511719 15.832031 8.726562 15.765625 C 8.480469 15.746094 8.234375 15.738281 7.988281 15.738281 C 3.890625 15.769531 0.488281 18.914062 0.140625 22.996094 C -0.234375 27.363281 3.003906 31.210938 7.371094 31.582031 C 11.738281 31.957031 15.582031 28.71875 15.957031 24.351562 C 16.089844 22.757812 15.738281 21.15625 14.949219 19.761719 L 19.097656 15.257812 L 22.972656 18.824219 L 26.539062 14.949219 L 22.664062 11.382812 L 24.449219 9.445312 L 28.324219 13.011719 L 31.890625 9.136719 L 27.769531 5.34375 L 29.417969 3.675781 Z M 7.953125 21.234375 C 8.054688 21.230469 8.15625 21.234375 8.257812 21.242188 C 9.597656 21.359375 10.59375 22.542969 10.480469 23.882812 C 10.363281 25.226562 9.179688 26.222656 7.839844 26.105469 C 6.496094 25.992188 5.5 24.808594 5.617188 23.464844 C 5.722656 22.238281 6.722656 21.285156 7.953125 21.234375 Z M 7.953125 21.234375 "/>
</g>
</svg>
