<?xml version="1.0" encoding="UTF-8"?>
<svg xmlns="http://www.w3.org/2000/svg" xmlns:xlink="http://www.w3.org/1999/xlink" width="32" height="32" viewBox="0 0 32 32" version="1.1">
<g id="surface1">
<path style=" stroke:none;fill-rule:nonzero;fill:rgb(0%,0%,0%);fill-opacity:1;" d="M -0.0351562 17.53125 L -0.0351562 2.261719 L 2.421875 2.261719 L 7.546875 12.457031 L 7.546875 2.261719 L 9.902344 2.261719 L 9.902344 17.53125 L 7.359375 17.53125 L 2.320312 7.574219 L 2.320312 17.53125 Z M -0.0351562 17.53125 "/>
<path style=" stroke:none;fill-rule:nonzero;fill:rgb(0%,0%,0%);fill-opacity:1;" d="M 12.058594 9.988281 C 12.058594 8.171875 12.324219 6.671875 12.859375 5.5 C 13.402344 4.320312 14.105469 3.441406 14.976562 2.863281 C 15.84375 2.289062 16.894531 2 18.132812 2 C 19.921875 2 21.382812 2.683594 22.507812 4.050781 C 23.636719 5.421875 24.203125 7.367188 24.203125 9.894531 C 24.203125 12.453125 23.605469 14.449219 22.414062 15.886719 C 21.363281 17.15625 19.941406 17.792969 18.140625 17.792969 C 16.328125 17.792969 14.898438 17.164062 13.851562 15.90625 C 12.65625 14.46875 12.058594 12.496094 12.058594 9.988281 Z M 14.664062 9.886719 C 14.664062 11.640625 14.996094 12.960938 15.664062 13.84375 C 16.328125 14.71875 17.15625 15.15625 18.140625 15.15625 C 19.136719 15.15625 19.957031 14.722656 20.609375 13.855469 C 21.261719 12.980469 21.589844 11.640625 21.589844 9.832031 C 21.589844 8.0625 21.269531 6.753906 20.632812 5.90625 C 20 5.058594 19.167969 4.636719 18.140625 4.636719 C 17.113281 4.636719 16.277344 5.0625 15.632812 5.917969 C 14.984375 6.769531 14.664062 8.09375 14.664062 9.886719 Z M 14.664062 9.886719 "/>
<path style=" stroke:none;fill-rule:nonzero;fill:rgb(0%,0%,0%);fill-opacity:1;" d="M 24.933594 19.074219 L 27.386719 14.800781 L 25.035156 10.777344 L 27.238281 10.777344 L 28.441406 13.058594 L 29.707031 10.777344 L 31.816406 10.777344 L 29.511719 14.707031 L 32.035156 19.074219 L 29.824219 19.074219 L 28.441406 16.503906 L 27.035156 19.074219 Z M 24.933594 19.074219 "/>
<path style=" stroke:none;fill-rule:evenodd;fill:rgb(0%,0%,0%);fill-opacity:1;" d="M 4 22 C 1.785156 22 0 23.785156 0 26 L 0 28 C 0 30.214844 1.785156 32 4 32 L 28 32 C 30.214844 32 32 30.214844 32 28 L 32 26 C 32 23.785156 30.214844 22 28 22 Z M 24 24 L 28 24 C 29.109375 24 30 24.890625 30 26 L 30 28 C 30 29.109375 29.109375 30 28 30 L 24 30 Z M 24 24 "/>
</g>
</svg>
