<?xml version="1.0" encoding="UTF-8"?>
<svg xmlns="http://www.w3.org/2000/svg" xmlns:xlink="http://www.w3.org/1999/xlink" width="32" height="32" viewBox="0 0 32 32" version="1.1">
<g id="surface1">
<path style=" stroke:none;fill-rule:nonzero;fill:rgb(0%,0%,0%);fill-opacity:1;" d="M 2.667969 24 L 12 24 L 12 26.667969 L 2.667969 26.667969 Z M 2.667969 14.667969 L 14.667969 14.667969 L 14.667969 17.332031 L 2.667969 17.332031 Z M 2.667969 5.332031 L 29.332031 5.332031 L 29.332031 8 L 2.667969 8 Z M 27.566406 17.367188 L 29.105469 16.84375 L 30.441406 19.15625 L 29.21875 20.226562 C 29.371094 20.957031 29.371094 21.710938 29.21875 22.4375 L 30.441406 23.511719 L 29.105469 25.820312 L 27.566406 25.300781 C 27.019531 25.792969 26.367188 26.171875 25.652344 26.40625 L 25.332031 28 L 22.667969 28 L 22.347656 26.40625 C 21.640625 26.175781 20.988281 25.796875 20.433594 25.296875 L 18.894531 25.820312 L 17.558594 23.511719 L 18.78125 22.4375 C 18.628906 21.710938 18.628906 20.957031 18.78125 20.226562 L 17.558594 19.15625 L 18.894531 16.84375 L 20.433594 17.367188 C 20.980469 16.875 21.632812 16.492188 22.347656 16.261719 L 22.667969 14.667969 L 25.332031 14.667969 L 25.652344 16.261719 C 26.367188 16.492188 27.019531 16.875 27.566406 17.367188 Z M 24 22.667969 C 24.738281 22.667969 25.332031 22.070312 25.332031 21.332031 C 25.332031 20.597656 24.738281 20 24 20 C 23.261719 20 22.667969 20.597656 22.667969 21.332031 C 22.667969 22.070312 23.261719 22.667969 24 22.667969 Z M 24 22.667969 "/>
</g>
</svg>
