<?xml version="1.0" encoding="UTF-8"?>
<svg xmlns="http://www.w3.org/2000/svg" xmlns:xlink="http://www.w3.org/1999/xlink" width="32" height="32" viewBox="0 0 32 32" version="1.1">
<g id="surface1">
<path style=" stroke:none;fill-rule:nonzero;fill:rgb(0%,0%,0%);fill-opacity:1;" d="M 0 19.835938 L 0 9.785156 L 1.777344 9.785156 L 1.777344 18.128906 L 6.210938 18.128906 L 6.210938 19.835938 Z M 0 19.835938 "/>
<path style=" stroke:none;fill-rule:nonzero;fill:rgb(0%,0%,0%);fill-opacity:1;" d="M 17.570312 19.835938 L 17.570312 9.703125 L 21.320312 9.703125 C 22.28125 9.703125 22.964844 9.796875 23.375 9.980469 C 23.789062 10.160156 24.125 10.476562 24.390625 10.925781 C 24.652344 11.375 24.785156 11.910156 24.785156 12.535156 C 24.785156 13.328125 24.582031 13.96875 24.175781 14.449219 C 23.773438 14.933594 23.203125 15.238281 22.457031 15.363281 C 22.839844 15.621094 23.15625 15.90625 23.40625 16.214844 C 23.65625 16.515625 23.996094 17.066406 24.425781 17.859375 L 25.496094 19.835938 L 23.375 19.835938 L 22.085938 17.628906 C 21.621094 16.832031 21.304688 16.335938 21.136719 16.136719 C 20.972656 15.933594 20.796875 15.796875 20.609375 15.722656 C 20.421875 15.644531 20.125 15.605469 19.714844 15.605469 L 19.347656 15.605469 L 19.347656 19.835938 Z M 19.347656 13.988281 L 20.667969 13.988281 C 21.476562 13.988281 21.988281 13.957031 22.210938 13.890625 C 22.429688 13.820312 22.609375 13.6875 22.746094 13.484375 C 22.882812 13.28125 22.949219 13.011719 22.949219 12.675781 C 22.949219 12.351562 22.882812 12.09375 22.746094 11.902344 C 22.609375 11.703125 22.421875 11.566406 22.1875 11.492188 C 22.019531 11.441406 21.539062 11.417969 20.742188 11.417969 L 19.347656 11.417969 Z M 19.347656 13.988281 "/>
<path style=" stroke:none;fill-rule:nonzero;fill:rgb(0%,0%,0%);fill-opacity:1;" d="M 27.714844 14.734375 L 26.179688 14.417969 C 26.367188 13.675781 26.671875 13.140625 27.097656 12.820312 C 27.527344 12.492188 28.144531 12.328125 28.945312 12.328125 C 29.660156 12.328125 30.207031 12.421875 30.582031 12.613281 C 30.960938 12.800781 31.230469 13.058594 31.390625 13.386719 C 31.550781 13.710938 31.632812 14.296875 31.632812 15.15625 L 31.617188 17.421875 C 31.617188 18.058594 31.644531 18.53125 31.699219 18.847656 C 31.753906 19.15625 31.851562 19.484375 32 19.835938 L 30.328125 19.835938 L 30.105469 19.03125 C 29.816406 19.355469 29.507812 19.597656 29.175781 19.757812 C 28.847656 19.917969 28.496094 20 28.125 20 C 27.503906 20 26.996094 19.804688 26.597656 19.414062 C 26.203125 19.015625 26.003906 18.492188 26.003906 17.835938 C 26.003906 17.421875 26.085938 17.0625 26.246094 16.753906 C 26.40625 16.441406 26.636719 16.195312 26.929688 16.011719 C 27.222656 15.828125 27.691406 15.664062 28.335938 15.523438 C 29.121094 15.351562 29.667969 15.191406 29.972656 15.046875 C 29.972656 14.640625 29.941406 14.375 29.878906 14.25 C 29.820312 14.121094 29.707031 14.019531 29.542969 13.9375 C 29.378906 13.855469 29.148438 13.816406 28.851562 13.816406 C 28.546875 13.816406 28.308594 13.878906 28.132812 14.007812 C 27.960938 14.136719 27.820312 14.378906 27.714844 14.734375 Z M 29.972656 16.308594 C 29.757812 16.394531 29.425781 16.488281 28.96875 16.601562 C 28.445312 16.730469 28.101562 16.871094 27.941406 17.027344 C 27.78125 17.183594 27.699219 17.386719 27.699219 17.636719 C 27.699219 17.917969 27.789062 18.15625 27.964844 18.347656 C 28.144531 18.539062 28.371094 18.632812 28.636719 18.632812 C 28.878906 18.632812 29.117188 18.554688 29.351562 18.402344 C 29.585938 18.246094 29.746094 18.0625 29.835938 17.851562 C 29.929688 17.640625 29.972656 17.253906 29.972656 16.695312 Z M 29.972656 16.308594 "/>
<path style=" stroke:none;fill-rule:evenodd;fill:rgb(0%,0%,0%);fill-opacity:1;" d="M 12.007812 12 C 14.214844 12 16.007812 13.792969 16.007812 16 C 16.007812 18.210938 14.214844 20 12.007812 20 C 9.796875 20 8.007812 18.210938 8.007812 16 C 8.007812 13.792969 9.796875 12 12.007812 12 "/>
<path style=" stroke:none;fill-rule:evenodd;fill:rgb(0%,0%,0%);fill-opacity:1;" d="M 12.003906 -0.00390625 C 9.320312 -0.00390625 6.707031 0.675781 4.386719 1.929688 L 5.449219 3.628906 C 7.453125 2.566406 9.699219 1.996094 12.007812 1.996094 C 14.3125 1.996094 16.554688 2.570312 18.554688 3.632812 L 19.617188 1.933594 C 17.296875 0.675781 14.6875 -0.00390625 12.003906 -0.00390625 Z M 12.007812 4.003906 C 10.078125 4.003906 8.199219 4.472656 6.515625 5.335938 L 7.601562 7.070312 C 8.964844 6.398438 10.460938 6.003906 12.011719 6.003906 C 13.558594 6.003906 15.046875 6.398438 16.410156 7.066406 L 17.484375 5.339844 C 15.804688 4.476562 13.933594 4.003906 12.007812 4.003906 Z M 11.996094 8.007812 C 10.828125 8.007812 9.699219 8.285156 8.660156 8.765625 L 9.71875 10.457031 C 10.4375 10.160156 11.210938 10.003906 12.003906 10.003906 C 12.796875 10.003906 13.570312 10.160156 14.289062 10.453125 L 15.34375 8.769531 C 14.300781 8.289062 13.167969 8.007812 11.996094 8.007812 Z M 14.292969 21.550781 C 13.574219 21.851562 12.796875 22.007812 12 22.007812 C 11.207031 22.007812 10.429688 21.851562 9.710938 21.558594 L 8.652344 23.246094 C 9.691406 23.730469 10.824219 24.007812 11.992188 24.007812 C 13.164062 24.007812 14.304688 23.726562 15.347656 23.242188 Z M 16.40625 24.929688 C 15.039062 25.605469 13.542969 26.003906 11.988281 26.003906 C 10.441406 26.003906 8.953125 25.609375 7.59375 24.9375 L 6.511719 26.667969 C 8.195312 27.535156 10.078125 28.007812 12.003906 28.007812 C 13.9375 28.007812 15.808594 27.535156 17.492188 26.667969 Z M 18.558594 28.371094 C 16.554688 29.433594 14.304688 30.003906 11.996094 30.003906 C 9.691406 30.003906 7.445312 29.433594 5.445312 28.375 L 4.378906 30.074219 C 6.699219 31.328125 9.308594 32.003906 11.992188 32.003906 C 14.679688 32.003906 17.296875 31.324219 19.621094 30.070312 Z M 18.558594 28.371094 "/>
</g>
</svg>
