<?xml version="1.0" encoding="UTF-8"?>
<svg xmlns="http://www.w3.org/2000/svg" xmlns:xlink="http://www.w3.org/1999/xlink" width="32" height="32" viewBox="0 0 32 32" version="1.1">
<g id="surface1">
<path style=" stroke:none;fill-rule:nonzero;fill:rgb(0%,0%,0%);fill-opacity:1;" d="M 29.335938 22.667969 C 29.332031 28 29.332031 28 24 28 C 18.667969 28 17.335938 24 17.335938 20 C 17.335938 19.496094 17.3125 18.777344 17.300781 17.933594 L 19.996094 19.492188 L 20 20 C 20 23.703125 21.089844 25.332031 24 25.332031 C 25.519531 25.332031 26.148438 25.324219 26.617188 25.28125 C 26.65625 24.816406 26.667969 24.1875 26.667969 22.667969 C 26.667969 18.394531 25.730469 14.621094 24.21875 12.132812 C 23.101562 10.289062 22.070312 9.675781 21.511719 9.863281 C 21.121094 9.992188 20.703125 10.730469 20.402344 12.027344 L 18.015625 10.648438 C 18.507812 9.054688 19.324219 7.78125 20.667969 7.332031 C 24.667969 6 29.335938 12.667969 29.332031 22.667969 Z M 11.332031 7.332031 C 12.675781 7.78125 13.492188 9.054688 13.984375 10.648438 L 11.597656 12.027344 C 11.296875 10.730469 10.878906 9.992188 10.492188 9.863281 C 9.929688 9.675781 8.898438 10.289062 7.78125 12.132812 C 6.269531 14.621094 5.332031 18.394531 5.332031 22.667969 C 5.332031 24.1875 5.34375 24.8125 5.382812 25.28125 C 5.851562 25.324219 6.480469 25.332031 8 25.332031 C 10.910156 25.332031 12 23.703125 12 20 L 12.003906 19.492188 L 14.703125 17.933594 C 14.6875 18.777344 14.667969 19.496094 14.667969 20 C 14.667969 24 13.332031 28 8 28 C 2.667969 28 2.667969 28 2.667969 22.667969 C 2.667969 12.667969 7.332031 6 11.332031 7.332031 Z M 17.332031 2.667969 L 17.332031 12.5625 L 23.59375 16.179688 L 22.261719 18.488281 L 16 14.875 L 9.738281 18.488281 L 8.40625 16.179688 L 14.667969 12.5625 L 14.667969 2.667969 Z M 17.332031 2.667969 "/>
</g>
</svg>
