<?xml version="1.0" encoding="UTF-8"?>
<svg xmlns="http://www.w3.org/2000/svg" xmlns:xlink="http://www.w3.org/1999/xlink" width="32" height="32" viewBox="0 0 32 32" version="1.1">
<g id="surface1">
<path style=" stroke:none;fill-rule:nonzero;fill:rgb(0%,0%,0%);fill-opacity:1;" d="M 26.667969 9.652344 L 16.097656 19.117188 L 5.332031 9.621094 L 5.332031 25.332031 L 18.667969 25.332031 L 18.667969 28 L 4 28 C 3.261719 28 2.667969 27.402344 2.667969 26.667969 L 2.667969 5.332031 C 2.667969 4.597656 3.261719 4 4 4 L 28 4 C 28.738281 4 29.332031 4.597656 29.332031 5.332031 L 29.332031 17.332031 L 26.667969 17.332031 Z M 26 6.667969 L 6.015625 6.667969 L 16.082031 15.550781 L 26.003906 6.667969 Z M 22.734375 26.0625 C 22.644531 25.582031 22.644531 25.085938 22.734375 24.601562 L 21.382812 23.820312 L 22.714844 21.511719 L 24.066406 22.292969 C 24.4375 21.976562 24.867188 21.726562 25.332031 21.558594 L 25.332031 20 L 28 20 L 28 21.558594 C 28.46875 21.726562 28.894531 21.976562 29.265625 22.292969 L 30.617188 21.511719 L 31.953125 23.820312 L 30.601562 24.601562 C 30.6875 25.085938 30.6875 25.582031 30.601562 26.0625 L 31.953125 26.84375 L 30.617188 29.15625 L 29.265625 28.375 C 28.894531 28.695312 28.464844 28.941406 28 29.105469 L 28 30.667969 L 25.332031 30.667969 L 25.332031 29.105469 C 24.871094 28.941406 24.441406 28.695312 24.066406 28.375 L 22.714844 29.15625 L 21.382812 26.84375 Z M 26.667969 26.667969 C 27.402344 26.667969 28 26.070312 28 25.332031 C 28 24.597656 27.402344 24 26.667969 24 C 25.929688 24 25.332031 24.597656 25.332031 25.332031 C 25.332031 26.070312 25.929688 26.667969 26.667969 26.667969 Z M 26.667969 26.667969 "/>
</g>
</svg>
