<?xml version="1.0" encoding="UTF-8"?>
<svg xmlns="http://www.w3.org/2000/svg" xmlns:xlink="http://www.w3.org/1999/xlink" width="32" height="32" viewBox="0 0 32 32" version="1.1">
<g id="surface1">
<path style=" stroke:none;fill-rule:nonzero;fill:rgb(0%,0%,0%);fill-opacity:1;" d="M 26.667969 19.332031 L 26.667969 31.332031 L 22.222656 28 L 18.667969 28 L 18.667969 22.667969 L 22.222656 22.667969 Z M 28 4 C 28.738281 4 29.332031 4.597656 29.332031 5.332031 L 29.332031 19.371094 C 26.609375 16.933594 22.578125 16.648438 19.542969 18.683594 C 16.503906 20.71875 15.234375 24.554688 16.453125 28 L 4.003906 28 C 3.265625 28 2.667969 27.402344 2.667969 26.667969 L 2.667969 5.332031 C 2.667969 4.597656 3.265625 4 4.003906 4 L 28.003906 4 Z M 28 22.667969 C 29.4375 22.660156 30.621094 23.796875 30.675781 25.234375 C 30.730469 26.671875 29.636719 27.890625 28.199219 27.992188 L 28 28 Z M 7.53125 8.316406 L 5.804688 10.347656 L 16.097656 19.089844 L 26.207031 10.34375 L 24.460938 8.324219 L 16.078125 15.574219 Z M 7.53125 8.316406 "/>
</g>
</svg>
