<?xml version="1.0" encoding="UTF-8"?>
<svg xmlns="http://www.w3.org/2000/svg" xmlns:xlink="http://www.w3.org/1999/xlink" width="32" height="32" viewBox="0 0 32 32" version="1.1">
<g id="surface1">
<path style=" stroke:none;fill-rule:nonzero;fill:rgb(0%,0%,0%);fill-opacity:1;" d="M 29.332031 18.726562 C 26.527344 17.4375 23.230469 17.878906 20.863281 19.863281 C 18.496094 21.84375 17.480469 25.011719 18.253906 28 L 4 28 C 3.261719 28 2.667969 27.402344 2.667969 26.667969 L 2.667969 5.332031 C 2.667969 4.597656 3.261719 4 4 4 L 28 4 C 28.738281 4 29.332031 4.597656 29.332031 5.332031 Z M 16.078125 15.578125 L 7.53125 8.316406 L 5.804688 10.347656 L 16.097656 19.089844 L 26.207031 10.34375 L 24.460938 8.324219 L 16.082031 15.578125 Z M 26 29 L 22.472656 30.851562 L 23.148438 26.925781 L 20.292969 24.144531 L 24.234375 23.570312 L 26 20 L 27.765625 23.574219 L 31.707031 24.148438 L 28.851562 26.925781 L 29.527344 30.855469 Z M 26 29 "/>
</g>
</svg>
