<?xml version="1.0" encoding="UTF-8"?>
<svg xmlns="http://www.w3.org/2000/svg" xmlns:xlink="http://www.w3.org/1999/xlink" width="32" height="32" viewBox="0 0 32 32" version="1.1">
<g id="surface1">
<path style=" stroke:none;fill-rule:nonzero;fill:rgb(0%,0%,0%);fill-opacity:1;" d="M 25.070312 11.324219 C 26.394531 11.96875 27.890625 12.160156 29.332031 11.867188 L 29.332031 26.667969 C 29.332031 27.402344 28.738281 28 28 28 L 4 28 C 3.261719 28 2.667969 27.402344 2.667969 26.667969 L 2.667969 5.332031 C 2.667969 4.597656 3.261719 4 4 4 L 21.464844 4 C 21.378906 4.429688 21.332031 4.878906 21.332031 5.332031 C 21.332031 6.917969 21.894531 8.449219 22.925781 9.65625 L 16.082031 15.578125 L 7.53125 8.316406 L 5.804688 10.347656 L 16.097656 19.089844 Z M 28 9.332031 C 25.789062 9.332031 24 7.542969 24 5.332031 C 24 3.125 25.789062 1.332031 28 1.332031 C 30.210938 1.332031 32 3.125 32 5.332031 C 32 7.542969 30.210938 9.332031 28 9.332031 Z M 28 9.332031 "/>
</g>
</svg>
