<?xml version="1.0" encoding="UTF-8"?>
<svg xmlns="http://www.w3.org/2000/svg" xmlns:xlink="http://www.w3.org/1999/xlink" width="32" height="32" viewBox="0 0 32 32" version="1.1">
<g id="surface1">
<path style=" stroke:none;fill-rule:nonzero;fill:rgb(0%,0%,0%);fill-opacity:1;" d="M 22.601562 21.265625 C 26.246094 17.621094 26.246094 11.710938 22.597656 8.066406 C 18.953125 4.421875 13.046875 4.421875 9.402344 8.066406 C 5.753906 11.710938 5.753906 17.621094 9.398438 21.265625 L 16 27.867188 Z M 16 31.636719 L 7.515625 23.152344 C 2.828125 18.464844 2.828125 10.867188 7.515625 6.179688 C 12.199219 1.496094 19.800781 1.496094 24.484375 6.179688 C 29.171875 10.867188 29.171875 18.464844 24.484375 23.152344 Z M 17.332031 14.667969 L 22.667969 14.667969 L 22.667969 17.332031 L 14.667969 17.332031 L 14.667969 8 L 17.332031 8 Z M 17.332031 14.667969 "/>
</g>
</svg>
