<?xml version="1.0" encoding="UTF-8"?>
<svg xmlns="http://www.w3.org/2000/svg" xmlns:xlink="http://www.w3.org/1999/xlink" width="32" height="32" viewBox="0 0 32 32" version="1.1">
<g id="surface1">
<path style=" stroke:none;fill-rule:evenodd;fill:rgb(0%,0%,0%);fill-opacity:1;" d="M 11 2 C 10.445312 2 10 2.445312 10 3 L 10 7 L 8 7 C 7.445312 7 7 7.445312 7 8 L 7 10 L 3 10 C 2.445312 10 2 10.445312 2 11 L 2 13 C 2 13.554688 2.445312 14 3 14 L 7 14 L 7 18 L 3 18 C 2.445312 18 2 18.445312 2 19 L 2 21 C 2 21.554688 2.445312 22 3 22 L 7 22 L 7 24 C 7 24.554688 7.445312 25 8 25 L 10 25 L 10 29 C 10 29.554688 10.445312 30 11 30 L 13 30 C 13.554688 30 14 29.554688 14 29 L 14 25 L 18 25 L 18 29 C 18 29.554688 18.445312 30 19 30 L 21 30 C 21.554688 30 22 29.554688 22 29 L 22 25 L 24 25 C 24.554688 25 25 24.554688 25 24 L 25 22 L 29 22 C 29.554688 22 30 21.554688 30 21 L 30 19 C 30 18.445312 29.554688 18 29 18 L 25 18 L 25 14 L 29 14 C 29.554688 14 30 13.554688 30 13 L 30 11 C 30 10.445312 29.554688 10 29 10 L 25 10 L 25 8 C 25 7.445312 24.554688 7 24 7 L 22 7 L 22 3 C 22 2.445312 21.554688 2 21 2 L 19 2 C 18.445312 2 18 2.445312 18 3 L 18 7 L 14 7 L 14 3 C 14 2.445312 13.554688 2 13 2 Z M 11 10 L 21 10 C 21.554688 10 22 10.445312 22 11 L 22 21 C 22 21.554688 21.554688 22 21 22 L 11 22 C 10.445312 22 10 21.554688 10 21 L 10 11 C 10 10.445312 10.445312 10 11 10 Z M 11 10 "/>
</g>
</svg>
