<?xml version="1.0" encoding="UTF-8"?>
<svg xmlns="http://www.w3.org/2000/svg" xmlns:xlink="http://www.w3.org/1999/xlink" width="32" height="32" viewBox="0 0 32 32" version="1.1">
<g id="surface1">
<path style=" stroke:none;fill-rule:nonzero;fill:rgb(0%,0%,0%);fill-opacity:1;" d="M 21.121094 16.921875 L 21.03125 16.949219 C 20.851562 17 20.664062 17.027344 20.480469 17.03125 C 19.664062 17.03125 19.207031 16.480469 19.453125 15.800781 C 19.632812 15.308594 20.105469 14.886719 20.683594 14.695312 C 21.582031 14.367188 22.207031 13.621094 22.207031 12.753906 C 22.207031 11.585938 21.070312 10.636719 19.667969 10.636719 C 18.265625 10.636719 17.128906 11.585938 17.128906 12.753906 L 17.128906 19.246094 C 17.128906 20.804688 16.222656 22.175781 14.871094 22.949219 C 14.097656 23.390625 13.222656 23.621094 12.332031 23.617188 C 9.6875 23.617188 7.535156 21.65625 7.535156 19.246094 C 7.535156 18.476562 7.753906 17.757812 8.136719 17.128906 C 8.726562 16.15625 9.714844 15.414062 10.894531 15.074219 C 11.09375 15.011719 11.300781 14.980469 11.507812 14.976562 C 12.324219 14.976562 12.785156 15.53125 12.539062 16.210938 C 12.371094 16.671875 11.917969 17.070312 11.390625 17.28125 C 11.328125 17.300781 11.269531 17.324219 11.207031 17.347656 C 10.371094 17.695312 9.792969 18.414062 9.792969 19.246094 C 9.792969 20.414062 10.929688 21.363281 12.332031 21.363281 C 13.734375 21.363281 14.871094 20.414062 14.871094 19.246094 L 14.871094 12.753906 C 14.871094 11.195312 15.777344 9.824219 17.128906 9.050781 C 17.902344 8.609375 18.777344 8.378906 19.667969 8.382812 C 22.3125 8.382812 24.464844 10.34375 24.464844 12.753906 C 24.464844 13.523438 24.246094 14.242188 23.863281 14.871094 C 23.273438 15.839844 22.292969 16.578125 21.121094 16.921875 Z M 2.667969 16 C 2.667969 23.363281 8.636719 29.332031 16 29.332031 C 23.363281 29.332031 29.332031 23.363281 29.332031 16 C 29.332031 8.636719 23.363281 2.667969 16 2.667969 C 8.636719 2.667969 2.667969 8.636719 2.667969 16 Z M 2.667969 16 "/>
</g>
</svg>
