<?xml version="1.0" encoding="UTF-8"?>
<svg xmlns="http://www.w3.org/2000/svg" xmlns:xlink="http://www.w3.org/1999/xlink" width="32" height="32" viewBox="0 0 32 32" version="1.1">
<g id="surface1">
<path style=" stroke:none;fill-rule:nonzero;fill:rgb(0%,0%,0%);fill-opacity:1;" d="M 5.332031 5.332031 L 10.667969 5.332031 L 10.667969 8 L 5.332031 8 Z M 21.332031 25.332031 L 26.667969 25.332031 L 26.667969 28 L 21.332031 28 Z M 2.667969 12 L 16 12 L 16 14.667969 L 2.667969 14.667969 Z M 18.667969 12 L 26.667969 12 L 26.667969 14.667969 L 18.667969 14.667969 Z M 5.332031 18.667969 L 13.332031 18.667969 L 13.332031 21.332031 L 5.332031 21.332031 Z M 16 18.667969 L 29.332031 18.667969 L 29.332031 21.332031 L 16 21.332031 Z M 13.332031 5.332031 L 29.332031 5.332031 L 29.332031 8 L 13.332031 8 Z M 2.667969 25.332031 L 18.667969 25.332031 L 18.667969 28 L 2.667969 28 Z M 2.667969 25.332031 "/>
</g>
</svg>
