<?xml version="1.0" encoding="UTF-8"?>
<svg xmlns="http://www.w3.org/2000/svg" xmlns:xlink="http://www.w3.org/1999/xlink" width="32" height="32" viewBox="0 0 32 32" version="1.1">
<g id="surface1">
<path style=" stroke:none;fill-rule:nonzero;fill:rgb(0%,0%,0%);fill-opacity:1;" d="M 1 2.003906 C 0.445312 2 -0.0078125 2.453125 -0.00390625 3.007812 L -0.00390625 28.992188 C -0.0078125 29.546875 0.445312 30 1 29.996094 L 31 29.996094 C 31.554688 30 32.007812 29.546875 32.003906 28.992188 L 32.003906 3.007812 C 32.007812 2.453125 31.554688 2 31 2.003906 Z M 20 8 L 28 8 L 28 10 L 20 10 Z M 12.925781 8.128906 C 12.949219 8.128906 12.972656 8.128906 12.996094 8.128906 C 15.480469 8.128906 17.492188 10.140625 17.492188 12.625 C 17.492188 15.109375 15.480469 17.125 12.996094 17.125 C 11.800781 17.125 10.65625 16.652344 9.8125 15.808594 C 8.96875 14.964844 8.496094 13.820312 8.496094 12.625 C 8.496094 10.167969 10.46875 8.164062 12.925781 8.128906 Z M 20 12 L 28 12 L 28 14 L 20 14 Z M 8.492188 17.648438 C 9.730469 18.757812 11.332031 19.371094 12.996094 19.371094 C 14.65625 19.371094 16.257812 18.757812 17.496094 17.648438 C 18.488281 17.648438 19.316406 18.035156 19.929688 18.585938 C 20.542969 19.136719 20.957031 19.832031 21.257812 20.511719 C 21.855469 21.871094 21.984375 23.210938 21.984375 23.210938 L 22.050781 23.863281 L 3.933594 23.863281 L 4 23.210938 C 4 23.210938 4.132812 21.871094 4.730469 20.511719 C 5.03125 19.832031 5.453125 19.136719 6.066406 18.585938 C 6.675781 18.035156 7.503906 17.652344 8.492188 17.648438 Z M 8.492188 17.648438 "/>
</g>
</svg>
