<?xml version="1.0" encoding="UTF-8"?>
<svg xmlns="http://www.w3.org/2000/svg" xmlns:xlink="http://www.w3.org/1999/xlink" width="32" height="32" viewBox="0 0 32 32" version="1.1">
<g id="surface1">
<path style=" stroke:none;fill-rule:nonzero;fill:rgb(0%,0%,0%);fill-opacity:1;" d="M 1 2.003906 C 0.445312 2 -0.0078125 2.453125 -0.00390625 3.007812 L -0.00390625 28.992188 C -0.0078125 29.546875 0.445312 30 1 29.996094 L 31 29.996094 C 31.554688 30 32.007812 29.546875 32.003906 28.992188 L 32.003906 3.007812 C 32.007812 2.453125 31.554688 2 31 2.003906 Z M 1.988281 4.011719 L 29.996094 4.011719 L 29.996094 28.003906 L 1.988281 28.003906 Z M 1.988281 4.011719 "/>
<path style=" stroke:none;fill-rule:nonzero;fill:rgb(0%,0%,0%);fill-opacity:1;" d="M 20 8 L 20 10 L 28 10 L 28 8 Z M 20 8 "/>
<path style=" stroke:none;fill-rule:nonzero;fill:rgb(0%,0%,0%);fill-opacity:1;" d="M 20 12 L 20 14 L 28 14 L 28 12 Z M 20 12 "/>
<path style=" stroke:none;fill-rule:nonzero;fill:rgb(0%,0%,0%);fill-opacity:1;" d="M 12.925781 8.128906 C 10.46875 8.164062 8.496094 10.167969 8.496094 12.625 C 8.496094 15.109375 10.511719 17.125 12.996094 17.125 C 15.480469 17.125 17.492188 15.109375 17.492188 12.625 C 17.492188 10.140625 15.480469 8.128906 12.996094 8.128906 C 12.972656 8.128906 12.949219 8.128906 12.925781 8.128906 Z M 8.492188 17.648438 C 7.503906 17.648438 6.675781 18.035156 6.066406 18.585938 C 5.453125 19.136719 5.03125 19.832031 4.730469 20.511719 C 4.132812 21.871094 4 23.210938 4 23.210938 L 3.933594 23.863281 L 22.050781 23.863281 L 21.984375 23.210938 C 21.984375 23.210938 21.855469 21.871094 21.257812 20.511719 C 20.957031 19.832031 20.539062 19.136719 19.929688 18.585938 C 19.316406 18.035156 18.488281 17.648438 17.496094 17.648438 C 16.257812 18.757812 14.65625 19.371094 12.996094 19.371094 C 11.332031 19.371094 9.730469 18.757812 8.492188 17.648438 Z M 8.492188 17.648438 "/>
</g>
</svg>
