<?xml version="1.0" encoding="UTF-8"?>
<svg xmlns="http://www.w3.org/2000/svg" xmlns:xlink="http://www.w3.org/1999/xlink" width="32" height="32" viewBox="0 0 32 32" version="1.1">
<g id="surface1">
<path style=" stroke:none;fill-rule:nonzero;fill:rgb(0%,0%,0%);fill-opacity:1;" d="M 5.332031 17.675781 L 5.332031 16 L 2.667969 16 L 2.667969 13.332031 L 11.152344 13.332031 L 14.933594 10.667969 L 19.589844 10.667969 L 18.132812 6.667969 L 14.667969 6.667969 L 14.667969 4 L 20 4 L 21.457031 8 L 26.667969 8 L 26.667969 12 L 22.910156 12 L 24.851562 17.335938 C 27.902344 17.433594 30.394531 19.804688 30.644531 22.84375 C 30.890625 25.886719 28.820312 28.628906 25.824219 29.21875 C 22.832031 29.808594 19.871094 28.0625 18.945312 25.152344 C 18.019531 22.246094 19.421875 19.109375 22.207031 17.859375 L 20.558594 13.332031 L 19.296875 13.332031 L 17.1875 21.160156 L 17.183594 21.160156 L 17.1875 21.167969 L 13.285156 22.585938 C 13.679688 25.707031 11.589844 28.601562 8.503906 29.214844 C 5.417969 29.832031 2.382812 27.957031 1.546875 24.921875 C 0.714844 21.886719 2.367188 18.722656 5.332031 17.675781 Z M 8 17.371094 C 9.792969 17.570312 11.398438 18.566406 12.375 20.078125 L 14.984375 19.128906 L 16.539062 13.332031 L 15.808594 13.332031 L 12 16 L 8 16 Z M 7.332031 26.667969 C 9.175781 26.667969 10.667969 25.175781 10.667969 23.332031 C 10.667969 21.492188 9.175781 20 7.332031 20 C 5.492188 20 4 21.492188 4 23.332031 C 4 25.175781 5.492188 26.667969 7.332031 26.667969 Z M 24.667969 26.667969 C 26.507812 26.667969 28 25.175781 28 23.332031 C 28 21.492188 26.507812 20 24.667969 20 C 22.824219 20 21.332031 21.492188 21.332031 23.332031 C 21.332031 25.175781 22.824219 26.667969 24.667969 26.667969 Z M 24.667969 26.667969 "/>
</g>
</svg>
