<?xml version="1.0" encoding="UTF-8"?>
<svg xmlns="http://www.w3.org/2000/svg" xmlns:xlink="http://www.w3.org/1999/xlink" width="32" height="32" viewBox="0 0 32 32" version="1.1">
<g id="surface1">
<path style=" stroke:none;fill-rule:nonzero;fill:rgb(0%,0%,0%);fill-opacity:1;" d="M 16 26.667969 L 26.667969 26.667969 L 26.667969 29.332031 L 16 29.332031 C 8.636719 29.332031 2.667969 23.363281 2.667969 16 C 2.667969 8.636719 8.636719 2.667969 16 2.667969 C 23.363281 2.667969 29.332031 8.636719 29.332031 16 C 29.335938 18.886719 28.402344 21.695312 26.667969 24 L 23.054688 24 C 26.917969 20.59375 27.796875 14.910156 25.136719 10.496094 C 22.480469 6.085938 17.046875 4.199219 12.230469 6.023438 C 7.410156 7.84375 4.582031 12.847656 5.507812 17.917969 C 6.433594 22.984375 10.847656 26.667969 16 26.667969 Z M 16 13.332031 C 14.527344 13.332031 13.332031 12.140625 13.332031 10.667969 C 13.332031 9.195312 14.527344 8 16 8 C 17.472656 8 18.667969 9.195312 18.667969 10.667969 C 18.667969 12.140625 17.472656 13.332031 16 13.332031 Z M 10.667969 18.667969 C 9.195312 18.667969 8 17.472656 8 16 C 8 14.527344 9.195312 13.332031 10.667969 13.332031 C 12.140625 13.332031 13.332031 14.527344 13.332031 16 C 13.332031 17.472656 12.140625 18.667969 10.667969 18.667969 Z M 21.332031 18.667969 C 19.859375 18.667969 18.667969 17.472656 18.667969 16 C 18.667969 14.527344 19.859375 13.332031 21.332031 13.332031 C 22.804688 13.332031 24 14.527344 24 16 C 24 17.472656 22.804688 18.667969 21.332031 18.667969 Z M 16 24 C 14.527344 24 13.332031 22.804688 13.332031 21.332031 C 13.332031 19.859375 14.527344 18.667969 16 18.667969 C 17.472656 18.667969 18.667969 19.859375 18.667969 21.332031 C 18.667969 22.804688 17.472656 24 16 24 Z M 16 24 "/>
</g>
</svg>
