<?xml version="1.0" encoding="UTF-8"?>
<svg xmlns="http://www.w3.org/2000/svg" xmlns:xlink="http://www.w3.org/1999/xlink" width="32" height="32" viewBox="0 0 32 32" version="1.1">
<g id="surface1">
<path style=" stroke:none;fill-rule:evenodd;fill:rgb(0%,0%,0%);fill-opacity:1;" d="M 5.410156 3.996094 C 4.898438 4.441406 4.410156 4.914062 3.984375 5.460938 L 3.992188 5.46875 C 1.441406 8.375 0.0078125 12.105469 0.0078125 15.996094 C 0.0078125 20.230469 1.691406 24.296875 4.6875 27.292969 L 6.105469 25.875 C 3.484375 23.253906 2.015625 19.703125 2.015625 15.996094 C 2.015625 12.628906 3.242188 9.398438 5.429688 6.867188 L 6.8125 8.257812 C 4.984375 10.414062 3.964844 13.148438 3.964844 15.996094 C 3.964844 18.847656 4.988281 21.601562 6.820312 23.761719 L 6.816406 23.769531 C 6.875 23.835938 6.941406 23.894531 7 23.960938 C 7.15625 24.136719 7.308594 24.320312 7.476562 24.488281 L 7.492188 24.472656 C 7.722656 24.714844 7.945312 24.964844 8.1875 25.195312 L 8.894531 24.488281 L 11.890625 21.476562 L 12.601562 20.78125 L 11.890625 20.074219 C 10.8125 18.996094 10.207031 17.523438 10.207031 15.996094 C 10.207031 14.816406 10.574219 13.683594 11.238281 12.730469 L 13.273438 14.839844 C 13.121094 15.199219 13.035156 15.59375 13.035156 16.003906 C 13.035156 17.058594 13.601562 17.988281 14.4375 18.523438 L 16.015625 28 L 17.589844 18.558594 C 18.457031 18.03125 19.042969 17.085938 19.042969 16.003906 C 19.042969 15.566406 18.945312 15.152344 18.773438 14.777344 L 20.757812 12.722656 C 21.421875 13.679688 21.789062 14.824219 21.789062 16.003906 C 21.789062 17.53125 21.183594 18.984375 20.105469 20.0625 L 19.398438 20.773438 L 20.105469 21.480469 L 23.105469 24.476562 L 23.8125 25.1875 C 24.25 24.792969 24.667969 24.367188 25.0625 23.882812 C 26.96875 21.703125 28.035156 18.914062 28.035156 16.003906 C 28.035156 13.15625 27.019531 10.414062 25.195312 8.253906 L 26.566406 6.867188 C 28.757812 9.398438 29.984375 12.632812 29.984375 16.003906 C 29.984375 19.710938 28.515625 23.261719 25.894531 25.882812 L 27.3125 27.296875 C 30.308594 24.300781 31.992188 20.238281 31.992188 16.003906 C 31.992188 12.09375 30.539062 8.339844 27.960938 5.429688 L 27.972656 5.417969 C 27.890625 5.316406 27.785156 5.238281 27.699219 5.140625 C 27.566406 5 27.449219 4.847656 27.3125 4.710938 L 27.296875 4.726562 C 27.0625 4.484375 26.847656 4.21875 26.589844 4 L 25.894531 4.710938 L 23.105469 7.515625 L 22.394531 8.238281 L 23.105469 8.933594 C 24.980469 10.808594 26.042969 13.351562 26.042969 16.003906 C 26.042969 18.316406 25.195312 20.511719 23.746094 22.285156 L 22.164062 20.703125 C 23.199219 19.355469 23.796875 17.71875 23.796875 16.003906 C 23.796875 14.25 23.171875 12.574219 22.09375 11.210938 L 22.109375 11.191406 C 21.6875 10.660156 21.3125 10.203125 20.785156 9.816406 L 20.09375 10.527344 L 17.390625 13.339844 C 16.984375 13.132812 16.53125 13.007812 16.046875 13.007812 C 15.535156 13.007812 15.0625 13.148438 14.636719 13.375 L 11.90625 10.535156 L 11.210938 9.8125 C 10.964844 10.046875 10.714844 10.28125 10.476562 10.523438 L 10.472656 10.519531 C 10.445312 10.546875 10.425781 10.582031 10.398438 10.609375 C 10.195312 10.820312 9.996094 11.035156 9.820312 11.269531 L 9.839844 11.289062 C 8.800781 12.636719 8.199219 14.277344 8.199219 15.996094 C 8.199219 17.714844 8.800781 19.359375 9.839844 20.707031 L 8.253906 22.292969 C 6.804688 20.515625 5.957031 18.308594 5.957031 15.996094 C 5.957031 13.34375 7.019531 10.800781 8.894531 8.925781 L 9.601562 8.230469 L 8.894531 7.523438 L 6.105469 4.703125 Z M 5.410156 3.996094 "/>
</g>
</svg>
