<?xml version="1.0" encoding="UTF-8"?>
<svg xmlns="http://www.w3.org/2000/svg" xmlns:xlink="http://www.w3.org/1999/xlink" width="32" height="32" viewBox="0 0 32 32" version="1.1">
<g id="surface1">
<path style=" stroke:none;fill-rule:nonzero;fill:rgb(0%,0%,0%);fill-opacity:1;" d="M 2.667969 5.324219 C 2.671875 4.59375 3.261719 4.003906 3.988281 4 L 28.011719 4 C 28.742188 4 29.332031 4.59375 29.332031 5.324219 L 29.332031 26.675781 C 29.328125 27.40625 28.738281 27.996094 28.011719 28 L 3.988281 28 C 3.257812 28 2.667969 27.40625 2.667969 26.675781 Z M 5.332031 6.667969 L 5.332031 25.332031 L 26.667969 25.332031 L 26.667969 6.667969 Z M 16 16.226562 L 16 8 L 22.667969 8 L 22.667969 10.667969 L 18.667969 10.667969 L 18.667969 20 C 18.664062 21.742188 17.539062 23.285156 15.875 23.808594 C 14.214844 24.335938 12.40625 23.730469 11.398438 22.304688 C 10.394531 20.882812 10.425781 18.972656 11.476562 17.585938 C 12.527344 16.195312 14.359375 15.644531 16 16.226562 Z M 16 16.226562 "/>
</g>
</svg>
