<?xml version="1.0" encoding="UTF-8"?>
<svg xmlns="http://www.w3.org/2000/svg" xmlns:xlink="http://www.w3.org/1999/xlink" width="32" height="32" viewBox="0 0 32 32" version="1.1">
<g id="surface1">
<path style=" stroke:none;fill-rule:nonzero;fill:rgb(0%,0%,0%);fill-opacity:1;" d="M 16 29.332031 C 8.636719 29.332031 2.667969 23.363281 2.667969 16 C 2.667969 8.636719 8.636719 2.667969 16 2.667969 C 23.363281 2.667969 29.332031 8.636719 29.332031 16 C 29.332031 23.363281 23.363281 29.332031 16 29.332031 Z M 14.550781 15.425781 C 14.871094 14.304688 15.984375 13.371094 17.207031 13.226562 C 17.453125 14.152344 17.722656 15.058594 17.933594 15.976562 C 18.003906 16.285156 17.980469 16.636719 17.90625 16.945312 C 17.625 18.136719 16.242188 18.601562 15.269531 17.859375 C 14.5625 17.320312 14.28125 16.367188 14.550781 15.425781 Z M 19.640625 15.160156 C 19.476562 14.542969 19.300781 13.925781 19.117188 13.269531 C 19.785156 13.441406 20.328125 13.746094 20.789062 14.199219 C 22.464844 15.828125 22.636719 18.597656 21.183594 20.507812 C 19.667969 22.492188 16.976562 23.351562 14.480469 22.648438 C 11.410156 21.78125 9.402344 18.710938 9.890625 15.558594 C 10.257812 13.203125 11.585938 11.554688 13.757812 10.582031 C 14.300781 10.339844 14.53125 9.835938 14.316406 9.339844 C 14.109375 8.855469 13.597656 8.667969 13.058594 8.882812 C 9.429688 10.335938 7.296875 14.394531 8.164062 18.199219 C 9.117188 22.355469 12.824219 25.085938 17.066406 24.679688 C 19.375 24.457031 21.285156 23.414062 22.6875 21.550781 C 24.695312 18.878906 24.414062 15.171875 22.070312 12.882812 C 21.179688 12.015625 20.109375 11.527344 18.882812 11.347656 C 18.773438 11.328125 18.59375 11.277344 18.574219 11.207031 C 18.457031 10.789062 18.332031 10.363281 18.296875 9.933594 C 18.261719 9.457031 18.683594 9.078125 19.164062 9.074219 C 19.503906 9.070312 19.742188 9.246094 19.96875 9.472656 C 20.375 9.875 20.90625 9.902344 21.285156 9.554688 C 21.671875 9.203125 21.679688 8.652344 21.3125 8.210938 C 20.554688 7.316406 19.195312 7.023438 18.070312 7.515625 C 16.941406 8.007812 16.308594 9.097656 16.46875 10.304688 C 16.519531 10.679688 16.617188 11.046875 16.691406 11.429688 L 16.347656 11.523438 C 15.207031 11.84375 14.265625 12.460938 13.550781 13.410156 C 12.320312 15.035156 12.300781 17.179688 13.496094 18.671875 C 15.191406 20.796875 18.492188 20.382812 19.523438 17.914062 C 19.902344 17.011719 19.890625 16.089844 19.640625 15.160156 Z M 19.640625 15.160156 "/>
</g>
</svg>
