<?xml version="1.0" encoding="UTF-8"?>
<svg xmlns="http://www.w3.org/2000/svg" xmlns:xlink="http://www.w3.org/1999/xlink" width="32" height="32" viewBox="0 0 32 32" version="1.1">
<g id="surface1">
<path style=" stroke:none;fill-rule:nonzero;fill:rgb(0%,0%,0%);fill-opacity:1;" d="M 15.054688 5.085938 L 17.746094 12.695312 L 18.273438 14.183594 L 18.28125 7.769531 L 18.296875 1.34375 L 23.988281 1.34375 L 24 15.828125 C 24.003906 23.800781 23.996094 30.347656 23.980469 30.363281 C 23.964844 30.375 23.703125 30.363281 23.398438 30.324219 C 22.078125 30.167969 20.34375 30.011719 18.945312 29.949219 C 18.664062 29.9375 18.378906 29.921875 18.097656 29.898438 C 18.09375 29.894531 17.734375 28.882812 17.0625 26.988281 L 17.0625 26.980469 L 14.203125 18.898438 L 13.75 17.628906 L 13.738281 23.742188 C 13.730469 29.5625 13.726562 29.890625 13.664062 29.890625 C 13.445312 29.890625 11.570312 30.007812 10.945312 30.070312 C 10.535156 30.105469 9.710938 30.191406 9.117188 30.265625 C 8.523438 30.332031 8.03125 30.378906 8.019531 30.367188 C 8.007812 30.359375 8 23.824219 8 15.84375 L 8 1.335938 L 8.007812 1.335938 L 8.007812 1.332031 L 13.722656 1.332031 L 13.761719 1.441406 C 13.769531 1.460938 13.847656 1.675781 13.96875 2.023438 L 14.824219 4.394531 L 15.054688 5.054688 Z M 15.054688 5.085938 "/>
</g>
</svg>
