<?xml version="1.0" encoding="UTF-8"?>
<svg xmlns="http://www.w3.org/2000/svg" xmlns:xlink="http://www.w3.org/1999/xlink" width="32" height="32" viewBox="0 0 32 32" version="1.1">
<g id="surface1">
<path style=" stroke:none;fill-rule:nonzero;fill:rgb(0%,0%,0%);fill-opacity:1;" d="M 24 2.667969 L 24 5.332031 L 12.398438 5.332031 L 11.496094 13.925781 C 14.695312 11.980469 18.78125 12.3125 21.628906 14.746094 C 24.476562 17.179688 25.4375 21.164062 24.015625 24.625 C 22.59375 28.089844 19.105469 30.246094 15.371094 29.976562 C 11.636719 29.707031 8.5 27.070312 7.589844 23.4375 L 10.175781 22.789062 C 10.917969 25.722656 13.726562 27.648438 16.730469 27.277344 C 19.734375 26.90625 21.992188 24.359375 22 21.332031 C 22 18.019531 19.3125 15.332031 16 15.332031 C 13.304688 15.332031 11.628906 16.183594 10.71875 17.375 L 8.621094 15.796875 L 10 2.667969 Z M 24 2.667969 "/>
</g>
</svg>
