<?xml version="1.0" encoding="UTF-8"?>
<svg xmlns="http://www.w3.org/2000/svg" xmlns:xlink="http://www.w3.org/1999/xlink" width="32" height="32" viewBox="0 0 32 32" version="1.1">
<g id="surface1">
<path style=" stroke:none;fill-rule:nonzero;fill:rgb(0%,0%,0%);fill-opacity:1;" d="M 11.328125 27.554688 L 13.394531 27.554688 L 14.113281 23.054688 C 14.398438 21.238281 15.964844 19.898438 17.804688 19.898438 L 18.472656 19.898438 C 22.042969 19.898438 23.886719 18.589844 24.539062 15.230469 C 24.816406 13.808594 24.695312 12.921875 24.3125 12.425781 C 22.703125 16.5 19.257812 17.972656 15.027344 17.972656 L 13.847656 17.972656 C 13.335938 17.972656 12.789062 18.253906 12.714844 18.746094 Z M 4.734375 27.164062 C 4.519531 27.164062 4.316406 27.070312 4.175781 26.90625 C 4.035156 26.742188 3.976562 26.527344 4.007812 26.316406 L 7.574219 3.703125 C 7.667969 3.105469 8.183594 2.664062 8.785156 2.667969 L 17.351562 2.667969 C 20.300781 2.667969 22.609375 3.289062 23.882812 4.742188 C 25.042969 6.0625 25.382812 7.523438 25.046875 9.667969 C 25.523438 9.921875 25.9375 10.234375 26.265625 10.609375 C 27.355469 11.851562 27.570312 13.621094 27.15625 15.742188 C 26.171875 20.816406 22.789062 22.566406 18.472656 22.566406 L 17.804688 22.566406 C 17.277344 22.570312 16.828125 22.953125 16.746094 23.472656 L 15.8125 29.316406 C 15.730469 29.839844 15.28125 30.222656 14.753906 30.222656 L 8.960938 30.222656 C 8.773438 30.222656 8.59375 30.140625 8.46875 29.996094 C 8.347656 29.855469 8.292969 29.664062 8.324219 29.480469 L 8.6875 27.164062 Z M 13.847656 15.304688 L 15.027344 15.304688 C 19.28125 15.304688 21.554688 13.6875 22.339844 9.667969 C 22.367188 9.53125 22.386719 9.394531 22.410156 9.253906 C 22.628906 7.839844 22.476562 7.183594 21.878906 6.503906 C 21.257812 5.796875 19.742188 5.332031 17.351562 5.332031 L 10.015625 5.332031 L 6.996094 24.496094 L 9.074219 24.496094 L 10.050781 18.328125 L 10.058594 18.328125 C 10.460938 16.558594 12.035156 15.304688 13.847656 15.304688 Z M 13.847656 15.304688 "/>
</g>
</svg>
