<?xml version="1.0" encoding="UTF-8"?>
<svg xmlns="http://www.w3.org/2000/svg" xmlns:xlink="http://www.w3.org/1999/xlink" width="32" height="32" viewBox="0 0 32 32" version="1.1">
<g id="surface1">
<path style=" stroke:none;fill-rule:nonzero;fill:rgb(0%,0%,0%);fill-opacity:1;" d="M 26.757812 11.304688 C 27.410156 12.476562 27.496094 13.988281 27.15625 15.738281 C 26.167969 20.816406 22.789062 22.566406 18.46875 22.566406 L 17.804688 22.566406 C 17.277344 22.566406 16.828125 22.953125 16.746094 23.472656 L 16.691406 23.765625 L 15.851562 29.089844 L 15.808594 29.316406 C 15.726562 29.839844 15.277344 30.222656 14.75 30.222656 L 10.292969 30.222656 C 10.105469 30.222656 9.925781 30.140625 9.804688 29.996094 C 9.683594 29.855469 9.628906 29.664062 9.65625 29.480469 L 9.890625 28 L 11.914062 28 L 13.179688 19.972656 L 15.027344 19.972656 C 21.265625 19.972656 25.363281 17.035156 26.757812 11.304688 Z M 22.808594 4.515625 C 23.824219 5.675781 24.121094 6.929688 23.8125 8.898438 C 23.785156 9.0625 23.757812 9.21875 23.730469 9.378906 C 22.75 14.40625 19.609375 16.636719 14.453125 16.636719 L 11.941406 16.636719 C 11.101562 16.636719 10.378906 17.191406 10.136719 17.976562 L 10.117188 17.972656 L 8.878906 25.832031 L 4.160156 25.832031 C 4.140625 25.832031 4.121094 25.820312 4.109375 25.804688 C 4.097656 25.789062 4.089844 25.769531 4.09375 25.75 L 7.558594 3.738281 C 7.65625 3.121094 8.1875 2.667969 8.808594 2.667969 L 16.777344 2.667969 C 19.6875 2.667969 21.730469 3.292969 22.808594 4.515625 Z M 22.808594 4.515625 "/>
</g>
</svg>
