<?xml version="1.0" encoding="UTF-8"?>
<svg xmlns="http://www.w3.org/2000/svg" xmlns:xlink="http://www.w3.org/1999/xlink" width="32" height="32" viewBox="0 0 32 32" version="1.1">
<g id="surface1">
<path style=" stroke:none;fill-rule:nonzero;fill:rgb(0%,0%,0%);fill-opacity:1;" d="M 6.570312 28.648438 L 14.367188 20.851562 C 15.53125 21.164062 16.761719 20.65625 17.367188 19.609375 C 17.96875 18.5625 17.796875 17.242188 16.941406 16.390625 C 16.089844 15.539062 14.769531 15.363281 13.722656 15.96875 C 12.679688 16.570312 12.167969 17.800781 12.480469 18.964844 L 4.6875 26.761719 L 3.273438 25.347656 C 7.042969 20.949219 8.457031 16.074219 10.34375 7.90625 L 18.828125 6.960938 L 26.371094 14.503906 L 25.429688 22.992188 C 17.257812 24.875 12.386719 26.289062 7.988281 30.0625 Z M 22.128906 2.71875 L 30.589844 11.179688 C 30.769531 11.359375 30.832031 11.621094 30.753906 11.859375 C 30.675781 12.097656 30.46875 12.273438 30.222656 12.3125 L 28.257812 12.617188 L 20.714844 5.078125 L 20.996094 3.097656 C 21.03125 2.847656 21.207031 2.640625 21.445312 2.558594 C 21.683594 2.480469 21.949219 2.542969 22.128906 2.71875 Z M 22.128906 2.71875 "/>
</g>
</svg>
