<?xml version="1.0" encoding="UTF-8"?>
<svg xmlns="http://www.w3.org/2000/svg" xmlns:xlink="http://www.w3.org/1999/xlink" width="32" height="32" viewBox="0 0 32 32" version="1.1">
<g id="surface1">
<path style=" stroke:none;fill-rule:nonzero;fill:rgb(0%,0%,0%);fill-opacity:1;" d="M 14.667969 0.722656 C 15.105469 0.683594 15.550781 0.667969 16 0.667969 C 24.46875 0.667969 31.332031 7.53125 31.332031 16 C 31.332031 16.449219 31.316406 16.894531 31.277344 17.332031 L 29.269531 17.332031 C 28.597656 24.070312 22.914062 29.332031 16 29.332031 C 8.636719 29.332031 2.667969 23.363281 2.667969 16 C 2.667969 9.085938 7.929688 3.402344 14.667969 2.734375 Z M 14.667969 17.332031 L 14.667969 5.414062 C 9.085938 6.125 5.015625 11.050781 5.367188 16.667969 C 5.71875 22.28125 10.371094 26.660156 16 26.667969 C 21.375 26.667969 25.910156 22.667969 26.585938 17.332031 Z M 28.597656 14.667969 C 27.96875 8.726562 23.273438 4.03125 17.332031 3.402344 L 17.332031 14.667969 Z M 28.597656 14.667969 "/>
</g>
</svg>
