<?xml version="1.0" encoding="UTF-8"?>
<svg xmlns="http://www.w3.org/2000/svg" xmlns:xlink="http://www.w3.org/1999/xlink" width="32" height="32" viewBox="0 0 32 32" version="1.1">
<g id="surface1">
<path style=" stroke:none;fill-rule:nonzero;fill:rgb(0%,0%,0%);fill-opacity:1;" d="M 7 0 C 5.894531 0 5 0.894531 5 2 L 5 3.105469 C 5 3.652344 5.3125 4.152344 5.800781 4.398438 L 9 6 L 9 14 C 6 14 5 16 5 20 L 14 20 L 14 30 L 16 32 L 18 30 L 18 20 L 27 20 C 27 16 26 14 23 14 L 23 6 L 26.199219 4.398438 C 26.6875 4.152344 27 3.652344 27 3.105469 L 27 2 C 27 0.894531 26.105469 0 25 0 Z M 7 0 "/>
</g>
</svg>
