<?xml version="1.0" encoding="UTF-8"?>
<svg xmlns="http://www.w3.org/2000/svg" xmlns:xlink="http://www.w3.org/1999/xlink" width="32" height="32" viewBox="0 0 32 32" version="1.1">
<g id="surface1">
<path style=" stroke:none;fill-rule:nonzero;fill:rgb(0%,0%,0%);fill-opacity:1;" d="M 17.828125 2.792969 C 11.230469 1.882812 4.972656 5.980469 3.171875 12.390625 C 1.367188 18.800781 4.566406 25.5625 10.667969 28.226562 C 10.589844 27.203125 10.664062 26.171875 10.886719 25.167969 C 11.132812 24.050781 12.613281 17.886719 12.613281 17.886719 C 12.320312 17.222656 12.171875 16.507812 12.183594 15.78125 C 12.183594 13.800781 13.324219 12.324219 14.746094 12.324219 C 15.261719 12.316406 15.757812 12.535156 16.101562 12.921875 C 16.445312 13.308594 16.601562 13.824219 16.535156 14.335938 C 16.535156 15.535156 15.765625 17.351562 15.363281 19.054688 C 15.203125 19.691406 15.351562 20.363281 15.765625 20.867188 C 16.179688 21.375 16.808594 21.652344 17.460938 21.621094 C 19.992188 21.621094 21.6875 18.378906 21.6875 14.550781 C 21.6875 11.617188 19.746094 9.421875 16.164062 9.421875 C 14.433594 9.355469 12.75 10 11.507812 11.207031 C 10.265625 12.414062 9.574219 14.082031 9.59375 15.8125 C 9.554688 16.765625 9.859375 17.699219 10.457031 18.441406 C 10.683594 18.609375 10.773438 18.910156 10.671875 19.179688 C 10.609375 19.425781 10.457031 20.007812 10.394531 20.222656 C 10.367188 20.371094 10.273438 20.5 10.140625 20.566406 C 10.007812 20.632812 9.847656 20.632812 9.714844 20.5625 C 7.871094 19.824219 7 17.792969 7 15.476562 C 7 11.679688 10.179688 7.132812 16.539062 7.132812 C 21.601562 7.132812 24.964844 10.835938 24.964844 14.796875 C 24.964844 20.007812 22.0625 23.929688 17.773438 23.929688 C 16.46875 23.96875 15.238281 23.34375 14.5 22.265625 C 14.5 22.265625 13.730469 25.355469 13.578125 25.9375 C 13.269531 26.949219 12.808594 27.90625 12.21875 28.78125 C 13.449219 29.152344 14.730469 29.339844 16.015625 29.335938 C 19.550781 29.335938 22.945312 27.933594 25.445312 25.429688 C 27.945312 22.929688 29.347656 19.535156 29.34375 15.996094 C 29.339844 9.339844 24.425781 3.703125 17.828125 2.792969 Z M 17.828125 2.792969 "/>
</g>
</svg>
