<?xml version="1.0" encoding="UTF-8"?>
<svg xmlns="http://www.w3.org/2000/svg" xmlns:xlink="http://www.w3.org/1999/xlink" width="32" height="32" viewBox="0 0 32 32" version="1.1">
<g id="surface1">
<path style=" stroke:none;fill-rule:nonzero;fill:rgb(0%,0%,0%);fill-opacity:1;" d="M 5.332031 17.332031 L 5.332031 24 L 26.667969 24 L 26.667969 17.332031 Z M 7.492188 14.667969 L 24.507812 14.667969 C 24.972656 14.667969 25.398438 14.425781 25.644531 14.035156 C 25.886719 13.640625 25.90625 13.152344 25.703125 12.738281 L 24 9.332031 L 8 9.332031 L 6.296875 12.738281 C 6.09375 13.152344 6.113281 13.640625 6.355469 14.035156 C 6.601562 14.425781 7.027344 14.667969 7.492188 14.667969 Z M 29.332031 18 L 29.332031 28 C 29.332031 28.738281 28.738281 29.332031 28 29.332031 L 26.667969 29.332031 C 25.929688 29.332031 25.332031 28.738281 25.332031 28 L 25.332031 26.667969 L 6.667969 26.667969 L 6.667969 28 C 6.667969 28.738281 6.070312 29.332031 5.332031 29.332031 L 4 29.332031 C 3.261719 29.332031 2.667969 28.738281 2.667969 28 L 2.667969 18 L 1.007812 17.585938 C 0.417969 17.4375 0 16.90625 0 16.292969 L 0 15.332031 C 0 14.964844 0.296875 14.667969 0.667969 14.667969 L 2.667969 14.667969 L 5.929688 8.140625 C 6.382812 7.238281 7.304688 6.667969 8.316406 6.667969 L 10.667969 6.667969 L 10.667969 4 L 14.667969 4 L 14.667969 6.667969 L 17.332031 6.667969 L 17.332031 4 L 21.332031 4 L 21.332031 6.667969 L 23.683594 6.667969 C 24.695312 6.667969 25.617188 7.238281 26.070312 8.140625 L 29.332031 14.667969 L 31.332031 14.667969 C 31.703125 14.667969 32 14.964844 32 15.332031 L 32 16.292969 C 32 16.90625 31.582031 17.4375 30.992188 17.585938 Z M 6.667969 18.667969 C 9.757812 18.667969 11.839844 19.671875 12.914062 21.683594 C 13.023438 21.890625 13.019531 22.140625 12.898438 22.34375 C 12.777344 22.542969 12.5625 22.667969 12.328125 22.667969 L 8 22.667969 C 7.261719 22.667969 6.667969 22.070312 6.667969 21.332031 Z M 25.332031 18.667969 L 25.332031 21.332031 C 25.332031 22.070312 24.738281 22.667969 24 22.667969 L 19.671875 22.667969 C 19.4375 22.667969 19.222656 22.542969 19.101562 22.34375 C 18.980469 22.140625 18.976562 21.890625 19.085938 21.683594 C 20.160156 19.671875 22.242188 18.667969 25.332031 18.667969 Z M 25.332031 18.667969 "/>
</g>
</svg>
