<?xml version="1.0" encoding="UTF-8"?>
<svg xmlns="http://www.w3.org/2000/svg" xmlns:xlink="http://www.w3.org/1999/xlink" width="32" height="32" viewBox="0 0 32 32" version="1.1">
<g id="surface1">
<path style=" stroke:none;fill-rule:evenodd;fill:rgb(0%,0%,0%);fill-opacity:1;" d="M 30 6 C 30 3.785156 28.214844 2 26 2 L 6 2 C 3.785156 2 2 3.785156 2 6 L 2 26 C 2 28.214844 3.785156 30 6 30 L 26 30 C 28.214844 30 30 28.214844 30 26 Z M 26 6 L 26 10 L 6 10 L 6 6 Z M 20 22 L 20 26 L 6 26 L 6 22 Z M 14 14 L 14 18 L 6 18 L 6 14 Z M 14 14 "/>
</g>
</svg>
