<?xml version="1.0" encoding="UTF-8"?>
<svg xmlns="http://www.w3.org/2000/svg" xmlns:xlink="http://www.w3.org/1999/xlink" width="32" height="32" viewBox="0 0 32 32" version="1.1">
<g id="surface1">
<path style=" stroke:none;fill-rule:nonzero;fill:rgb(0%,0%,0%);fill-opacity:1;" d="M 8 25.332031 L 4 25.332031 C 3.261719 25.332031 2.667969 24.738281 2.667969 24 L 2.667969 10.667969 C 2.667969 9.929688 3.261719 9.332031 4 9.332031 L 8 9.332031 L 8 4 C 8 3.261719 8.597656 2.667969 9.332031 2.667969 L 22.667969 2.667969 C 23.402344 2.667969 24 3.261719 24 4 L 24 9.332031 L 28 9.332031 C 28.738281 9.332031 29.332031 9.929688 29.332031 10.667969 L 29.332031 24 C 29.332031 24.738281 28.738281 25.332031 28 25.332031 L 24 25.332031 L 24 28 C 24 28.738281 23.402344 29.332031 22.667969 29.332031 L 9.332031 29.332031 C 8.597656 29.332031 8 28.738281 8 28 Z M 8 22.667969 L 8 21.332031 C 8 20.597656 8.597656 20 9.332031 20 L 22.667969 20 C 23.402344 20 24 20.597656 24 21.332031 L 24 22.667969 L 26.667969 22.667969 L 26.667969 12 L 5.332031 12 L 5.332031 22.667969 Z M 10.667969 5.332031 L 10.667969 9.332031 L 21.332031 9.332031 L 21.332031 5.332031 Z M 10.667969 22.667969 L 10.667969 26.667969 L 21.332031 26.667969 L 21.332031 22.667969 Z M 6.667969 13.332031 L 10.667969 13.332031 L 10.667969 16 L 6.667969 16 Z M 6.667969 13.332031 "/>
</g>
</svg>
