<?xml version="1.0" encoding="UTF-8"?>
<svg xmlns="http://www.w3.org/2000/svg" xmlns:xlink="http://www.w3.org/1999/xlink" width="32" height="32" viewBox="0 0 32 32" version="1.1">
<g id="surface1">
<path style=" stroke:none;fill-rule:nonzero;fill:rgb(0%,0%,0%);fill-opacity:1;" d="M 14.816406 16 C 15.441406 18.726562 17.867188 20.660156 20.667969 20.660156 C 23.464844 20.660156 25.890625 18.726562 26.515625 16 L 29.332031 16 L 29.332031 26.667969 C 29.332031 27.402344 28.738281 28 28 28 L 4 28 C 3.261719 28 2.667969 27.402344 2.667969 26.667969 L 2.667969 16 Z M 6.667969 21.332031 L 9.332031 21.332031 L 9.332031 24 L 6.667969 24 Z M 20.667969 18 C 18.824219 18 17.332031 16.507812 17.332031 14.667969 C 17.332031 12.824219 18.824219 11.332031 20.667969 11.332031 C 22.507812 11.332031 24 12.824219 24 14.667969 C 24 16.507812 22.507812 18 20.667969 18 Z M 14.816406 13.332031 L 2.667969 13.332031 L 2.667969 5.332031 C 2.667969 4.597656 3.261719 4 4 4 L 28 4 C 28.738281 4 29.332031 4.597656 29.332031 5.332031 L 29.332031 13.332031 L 26.515625 13.332031 C 25.890625 10.605469 23.464844 8.671875 20.667969 8.671875 C 17.867188 8.671875 15.441406 10.605469 14.816406 13.332031 Z M 14.816406 13.332031 "/>
</g>
</svg>
