<?xml version="1.0" encoding="UTF-8"?>
<svg xmlns="http://www.w3.org/2000/svg" xmlns:xlink="http://www.w3.org/1999/xlink" width="32" height="32" viewBox="0 0 32 32" version="1.1">
<g id="surface1">
<path style=" stroke:none;fill-rule:nonzero;fill:rgb(0%,0%,0%);fill-opacity:1;" d="M 23.378906 16.683594 L 22.453125 14.289062 C 22.453125 14.261719 22.464844 13.789062 22.464844 13.546875 C 22.464844 9.449219 20.59375 5.332031 16 5.332031 C 11.40625 5.332031 9.535156 9.449219 9.535156 13.546875 C 9.535156 13.789062 9.546875 14.261719 9.550781 14.289062 L 8.621094 16.683594 C 8.367188 17.371094 8.113281 18.085938 7.933594 18.699219 C 7.054688 21.617188 7.339844 22.824219 7.554688 22.851562 C 8.019531 22.910156 9.363281 20.65625 9.363281 20.65625 C 9.363281 21.960938 10.011719 23.664062 11.417969 24.894531 C 10.890625 25.0625 10.246094 25.320312 9.832031 25.636719 C 9.460938 25.921875 9.507812 26.210938 9.574219 26.332031 C 9.867188 26.84375 14.628906 26.65625 16 26.496094 C 17.375 26.65625 22.132812 26.84375 22.429688 26.328125 C 22.496094 26.210938 22.542969 25.921875 22.167969 25.636719 C 21.753906 25.320312 21.109375 25.0625 20.582031 24.894531 C 21.988281 23.664062 22.636719 21.960938 22.636719 20.65625 C 22.636719 20.65625 23.980469 22.910156 24.445312 22.851562 C 24.660156 22.824219 24.949219 21.613281 24.066406 18.699219 C 23.882812 18.078125 23.632812 17.371094 23.378906 16.683594 Z M 24.742188 27.65625 C 24.242188 28.523438 23.628906 28.84375 22.824219 29.0625 C 22.503906 29.152344 22.160156 29.207031 21.765625 29.246094 C 21.179688 29.308594 20.449219 29.335938 19.613281 29.332031 C 18.410156 29.332031 17.203125 29.28125 16 29.179688 C 15.078125 29.265625 13.621094 29.332031 12.386719 29.332031 C 11.667969 29.339844 10.953125 29.3125 10.234375 29.246094 C 9.878906 29.214844 9.527344 29.152344 9.179688 29.0625 C 8.371094 28.84375 7.757812 28.523438 7.257812 27.652344 C 6.878906 26.984375 6.761719 26.199219 6.941406 25.449219 C 6.152344 25.273438 5.605469 24.804688 5.234375 24.234375 C 5.046875 23.941406 4.910156 23.625 4.824219 23.289062 C 4.703125 22.804688 4.652344 22.308594 4.667969 21.8125 C 4.683594 20.765625 4.917969 19.464844 5.378906 17.929688 C 5.5625 17.308594 5.8125 16.585938 6.132812 15.722656 L 6.871094 13.816406 C 6.871094 13.726562 6.871094 13.636719 6.871094 13.546875 C 6.871094 7.472656 10.117188 2.667969 16 2.667969 C 21.882812 2.667969 25.128906 7.472656 25.128906 13.546875 L 25.128906 13.816406 L 25.867188 15.722656 L 25.878906 15.757812 C 26.179688 16.566406 26.429688 17.296875 26.621094 17.925781 C 27.085938 19.460938 27.316406 20.765625 27.335938 21.816406 C 27.34375 22.355469 27.292969 22.847656 27.175781 23.292969 C 27.089844 23.621094 26.960938 23.933594 26.765625 24.234375 C 26.394531 24.804688 25.851562 25.269531 25.0625 25.449219 C 25.234375 26.1875 25.132812 26.96875 24.742188 27.65625 Z M 24.742188 27.65625 "/>
</g>
</svg>
