<?xml version="1.0" encoding="UTF-8"?>
<svg xmlns="http://www.w3.org/2000/svg" xmlns:xlink="http://www.w3.org/1999/xlink" width="32" height="32" viewBox="0 0 32 32" version="1.1">
<g id="surface1">
<path style=" stroke:none;fill-rule:nonzero;fill:rgb(0%,0%,0%);fill-opacity:1;" d="M 16.203125 0.0078125 C 9.230469 -0.175781 2.632812 4.65625 0.703125 11.359375 C 0.703125 11.363281 0.703125 11.371094 0.703125 11.375 C -1.429688 18.054688 1.40625 25.761719 7.359375 29.460938 C 13.183594 33.328125 21.363281 32.710938 26.554688 28.027344 C 31.886719 23.484375 33.550781 15.429688 30.453125 9.144531 C 27.921875 3.695312 22.246094 0.0429688 16.234375 0.0078125 Z M 16.082031 6.476562 C 17.941406 6.476562 19.421875 6.964844 20.519531 7.941406 C 21.617188 8.910156 22.167969 10.039062 22.167969 11.328125 C 22.167969 12.042969 21.964844 12.71875 21.558594 13.355469 C 21.160156 13.992188 20.296875 14.863281 18.976562 15.960938 C 18.292969 16.53125 17.867188 16.984375 17.699219 17.332031 C 17.539062 17.679688 17.460938 18.296875 17.476562 19.1875 L 14.539062 19.1875 C 14.53125 18.765625 14.527344 18.511719 14.527344 18.417969 C 14.527344 17.464844 14.683594 16.679688 15 16.066406 C 15.316406 15.453125 15.945312 14.761719 16.890625 13.992188 C 17.835938 13.222656 18.402344 12.71875 18.585938 12.480469 C 18.871094 12.105469 19.011719 11.6875 19.011719 11.234375 C 19.011719 10.605469 18.757812 10.066406 18.25 9.621094 C 17.75 9.167969 17.074219 8.941406 16.222656 8.941406 C 15.402344 8.941406 14.714844 9.175781 14.160156 9.644531 C 13.605469 10.113281 13.625 11.3125 12.914062 11.644531 C 12.234375 11.964844 10.929688 12.042969 10.679688 11.335938 C 10.335938 10.359375 10.714844 8.878906 11.796875 7.917969 C 12.886719 6.957031 14.316406 6.476562 16.082031 6.476562 Z M 16.007812 21.539062 C 17.113281 21.539062 18.007812 22.433594 18.007812 23.539062 C 18.007812 24.644531 17.113281 25.539062 16.007812 25.539062 C 14.902344 25.539062 14.007812 24.644531 14.007812 23.539062 C 14.007812 22.433594 14.902344 21.539062 16.007812 21.539062 Z M 16.007812 21.539062 "/>
</g>
</svg>
