<?xml version="1.0" encoding="UTF-8"?>
<svg xmlns="http://www.w3.org/2000/svg" xmlns:xlink="http://www.w3.org/1999/xlink" width="32" height="32" viewBox="0 0 32 32" version="1.1">
<g id="surface1">
<path style=" stroke:none;fill-rule:evenodd;fill:rgb(0%,0%,0%);fill-opacity:1;" d="M 15.574219 -0.00390625 C 13.726562 0.0390625 11.878906 0.410156 10.132812 1.136719 C 3.039062 3.796875 -1.296875 11.769531 0.328125 19.164062 C 1.675781 26.496094 8.566406 32.136719 16.023438 32.007812 C 19.949219 32.015625 23.820312 30.527344 26.726562 27.890625 L 26.742188 27.875 C 32.441406 22.902344 33.707031 13.929688 29.605469 7.574219 L 29.589844 7.558594 C 27.652344 4.308594 24.539062 1.96875 21.027344 0.8125 C 19.273438 0.234375 17.425781 -0.0507812 15.574219 -0.00390625 Z M 15.601562 2.011719 C 17.222656 1.980469 18.851562 2.234375 20.394531 2.746094 C 22.148438 3.324219 23.78125 4.238281 25.179688 5.425781 L 18.046875 12.5625 C 17.429688 12.195312 16.730469 12.003906 16.011719 12.003906 C 13.804688 12.003906 12.011719 13.792969 12.011719 16.003906 C 12.011719 18.210938 13.804688 20.003906 16.011719 20.003906 C 18.222656 20.003906 20.011719 18.210938 20.011719 16.003906 C 20.011719 15.289062 19.820312 14.589844 19.457031 13.976562 L 26.601562 6.824219 C 27.078125 7.375 27.519531 7.960938 27.894531 8.59375 C 27.898438 8.605469 27.902344 8.621094 27.90625 8.636719 C 31.453125 14.105469 30.332031 22.105469 25.414062 26.382812 C 25.410156 26.386719 25.402344 26.390625 25.398438 26.398438 C 22.867188 28.703125 19.429688 30.011719 16.007812 30 C 16.003906 30 15.996094 30 15.992188 30 C 9.566406 30.117188 3.4375 25.105469 2.292969 18.78125 C 2.289062 18.765625 2.28125 18.75 2.277344 18.734375 C 0.878906 12.371094 4.730469 5.277344 10.839844 2.996094 C 10.851562 2.992188 10.859375 2.984375 10.871094 2.980469 C 12.375 2.351562 13.980469 2.039062 15.601562 2.011719 Z M 10.011719 8.003906 C 8.90625 8.003906 8.011719 8.898438 8.011719 10.003906 C 8.011719 11.109375 8.90625 12.003906 10.011719 12.003906 C 11.117188 12.003906 12.011719 11.109375 12.011719 10.003906 C 12.011719 8.898438 11.117188 8.003906 10.011719 8.003906 Z M 25.847656 9.125 L 24.378906 10.574219 C 24.59375 10.90625 24.816406 11.230469 24.984375 11.589844 C 24.992188 11.597656 24.996094 11.605469 25 11.617188 C 27.1875 15.859375 25.644531 21.679688 21.632812 24.273438 C 21.628906 24.277344 21.625 24.28125 21.617188 24.285156 C 19.980469 25.394531 17.984375 26.003906 16.007812 26 C 16.003906 26 15.996094 26 15.992188 26 C 11.425781 26.085938 7.070312 22.484375 6.234375 18 L 4.183594 18 C 4.1875 18.027344 4.191406 18.054688 4.195312 18.085938 C 4.195312 18.089844 4.195312 18.097656 4.195312 18.101562 C 5.097656 23.730469 10.324219 28.109375 16.023438 28.007812 C 16.027344 28.007812 16.035156 28.007812 16.039062 28.007812 C 18.417969 28.003906 20.773438 27.277344 22.738281 25.941406 C 27.648438 22.75 29.457031 15.945312 26.785156 10.734375 C 26.519531 10.164062 26.199219 9.632812 25.847656 9.125 Z M 22.914062 12.011719 L 21.402344 13.5 C 22.007812 14.757812 22.226562 16.1875 21.824219 17.523438 C 21.820312 17.539062 21.8125 17.554688 21.808594 17.570312 C 21.171875 20.09375 18.628906 22.03125 16.023438 21.996094 C 16.011719 21.996094 16.003906 21.996094 15.992188 21.996094 C 13.539062 22.066406 11.25 20.273438 10.375 18.003906 L 8.304688 18.003906 C 9.195312 21.402344 12.359375 24.089844 16.023438 23.992188 C 19.59375 24.03125 22.847656 21.523438 23.730469 18.070312 C 24.347656 15.980469 23.957031 13.804688 22.914062 12.011719 Z M 22.914062 12.011719 "/>
</g>
</svg>
