<?xml version="1.0" encoding="UTF-8"?>
<svg xmlns="http://www.w3.org/2000/svg" xmlns:xlink="http://www.w3.org/1999/xlink" width="32" height="32" viewBox="0 0 32 32" version="1.1">
<g id="surface1">
<path style=" stroke:none;fill-rule:nonzero;fill:rgb(0%,0%,0%);fill-opacity:1;" d="M 26.082031 16.128906 L 28.125 19.667969 C 29.414062 21.898438 28.648438 24.753906 26.417969 26.042969 C 25.707031 26.449219 24.902344 26.667969 24.085938 26.667969 L 21.332031 26.667969 L 21.332031 29.332031 L 14.667969 24.667969 L 21.332031 20 L 21.332031 22.667969 L 24.082031 22.667969 C 24.199219 22.667969 24.316406 22.636719 24.414062 22.578125 C 24.699219 22.414062 24.816406 22.074219 24.710938 21.777344 L 24.660156 21.667969 L 22.617188 18.128906 Z M 10.316406 12.511719 L 11.023438 20.617188 L 8.714844 19.285156 L 7.339844 21.667969 C 7.28125 21.769531 7.25 21.882812 7.25 22 C 7.25 22.328125 7.488281 22.601562 7.796875 22.65625 L 7.917969 22.667969 L 12 22.667969 L 12 26.667969 L 7.917969 26.667969 C 5.339844 26.667969 3.25 24.578125 3.25 22 C 3.25 21.179688 3.464844 20.375 3.875 19.667969 L 5.25 17.285156 L 2.941406 15.953125 Z M 18.332031 3.957031 C 19.042969 4.367188 19.632812 4.957031 20.042969 5.667969 L 21.414062 8.046875 L 23.726562 6.714844 L 23.019531 14.820312 L 15.644531 11.382812 L 17.953125 10.046875 L 16.578125 7.667969 C 16.519531 7.566406 16.433594 7.480469 16.332031 7.421875 C 16.050781 7.257812 15.695312 7.328125 15.492188 7.570312 L 15.421875 7.667969 L 13.382812 11.203125 L 9.917969 9.203125 L 11.957031 5.667969 C 13.246094 3.433594 16.101562 2.667969 18.332031 3.957031 Z M 18.332031 3.957031 "/>
</g>
</svg>
