<?xml version="1.0" encoding="UTF-8"?>
<svg xmlns="http://www.w3.org/2000/svg" xmlns:xlink="http://www.w3.org/1999/xlink" width="32" height="32" viewBox="0 0 32 32" version="1.1">
<g id="surface1">
<path style=" stroke:none;fill-rule:nonzero;fill:rgb(0%,0%,0%);fill-opacity:1;" d="M 10.667969 26.667969 L 10.667969 29.242188 C 10.667969 29.5 10.519531 29.738281 10.285156 29.847656 C 10.050781 29.957031 9.773438 29.921875 9.574219 29.757812 L 4.078125 25.179688 C 3.863281 25 3.785156 24.703125 3.878906 24.4375 C 3.976562 24.175781 4.226562 24 4.507812 24 L 24 24 C 25.472656 24 26.667969 22.804688 26.667969 21.332031 L 26.667969 10.667969 L 29.332031 10.667969 L 29.332031 21.332031 C 29.332031 24.277344 26.945312 26.667969 24 26.667969 Z M 21.332031 5.332031 L 21.332031 2.757812 C 21.332031 2.5 21.480469 2.261719 21.714844 2.152344 C 21.949219 2.042969 22.226562 2.078125 22.425781 2.242188 L 27.921875 6.820312 C 28.136719 7 28.214844 7.296875 28.121094 7.5625 C 28.023438 7.824219 27.773438 8 27.492188 8 L 8 8 C 6.527344 8 5.332031 9.195312 5.332031 10.667969 L 5.332031 21.332031 L 2.667969 21.332031 L 2.667969 10.667969 C 2.667969 7.722656 5.054688 5.332031 8 5.332031 Z M 21.332031 5.332031 "/>
</g>
</svg>
