<?xml version="1.0" encoding="UTF-8"?>
<svg xmlns="http://www.w3.org/2000/svg" xmlns:xlink="http://www.w3.org/1999/xlink" width="32" height="32" viewBox="0 0 32 32" version="1.1">
<g id="surface1">
<path style=" stroke:none;fill-rule:nonzero;fill:rgb(0%,0%,0%);fill-opacity:1;" d="M 14.667969 18.667969 L 14.667969 14.667969 L 17.332031 14.667969 L 17.332031 18.667969 L 24 18.667969 C 24.738281 18.667969 25.332031 19.261719 25.332031 20 L 25.332031 28 C 25.332031 28.738281 24.738281 29.332031 24 29.332031 L 8 29.332031 C 7.261719 29.332031 6.667969 28.738281 6.667969 28 L 6.667969 20 C 6.667969 19.261719 7.261719 18.667969 8 18.667969 Z M 3.347656 11.78125 C 5.113281 6.484375 10.113281 2.667969 16 2.667969 C 21.886719 2.667969 26.886719 6.484375 28.652344 11.78125 L 26.121094 12.625 C 24.667969 8.269531 20.59375 5.332031 16 5.332031 C 11.40625 5.332031 7.332031 8.269531 5.878906 12.625 Z M 8.40625 13.46875 C 9.5 10.203125 12.554688 8 16 8 C 19.445312 8 22.5 10.203125 23.59375 13.46875 L 21.0625 14.3125 C 20.335938 12.136719 18.296875 10.667969 16 10.667969 C 13.703125 10.667969 11.664062 12.136719 10.9375 14.3125 Z M 8.40625 13.46875 "/>
</g>
</svg>
