<?xml version="1.0" encoding="UTF-8"?>
<svg xmlns="http://www.w3.org/2000/svg" xmlns:xlink="http://www.w3.org/1999/xlink" width="32" height="32" viewBox="0 0 32 32" version="1.1">
<g id="surface1">
<path style=" stroke:none;fill-rule:nonzero;fill:rgb(0%,0%,0%);fill-opacity:1;" d="M 2.496094 0 C 1.128906 0 0 1.140625 0 2.507812 L 0 29.503906 C 0 29.65625 0.0195312 29.804688 0.046875 29.953125 L 10 20 L 6.394531 20 L 6.394531 18.148438 L 11.636719 18.148438 L 11.636719 14 L 6.394531 14 L 6.394531 12.148438 L 11.636719 12.148438 L 11.636719 8 L 6.394531 8 L 6.394531 6.007812 L 11.636719 6.007812 L 11.636719 2.507812 C 11.636719 1.140625 10.492188 0 9.125 0 Z M 14 20.363281 L 14 25.605469 L 12 25.605469 L 12 22 L 2.046875 31.953125 C 2.191406 31.980469 2.34375 32 2.496094 32 C 2.5 32 2.503906 32 2.507812 32 L 29.503906 32 C 30.871094 32 32 30.871094 32 29.503906 L 32 22.875 C 32 21.507812 30.871094 20.363281 29.503906 20.363281 L 26 20.363281 L 26 25.605469 L 24 25.605469 L 24 20.363281 L 20 20.363281 L 20 25.605469 L 18 25.605469 L 18 20.363281 Z M 14 20.363281 "/>
</g>
</svg>
