<?xml version="1.0" encoding="UTF-8"?>
<svg xmlns="http://www.w3.org/2000/svg" xmlns:xlink="http://www.w3.org/1999/xlink" width="32" height="32" viewBox="0 0 32 32" version="1.1">
<g id="surface1">
<path style=" stroke:none;fill-rule:nonzero;fill:rgb(0%,0%,0%);fill-opacity:1;" d="M 13.105469 11.71875 L 10.667969 12.609375 L 10.667969 17.332031 L 8 17.332031 L 8 10.734375 L 8.019531 10.734375 L 15.042969 8.175781 C 15.371094 8.050781 15.722656 7.988281 16.085938 8 C 17.570312 8.039062 18.871094 9.011719 19.324219 10.429688 C 19.570312 11.207031 19.796875 11.730469 20.003906 12.003906 C 21.261719 13.683594 23.234375 14.667969 25.332031 14.667969 L 25.332031 17.332031 C 22.546875 17.335938 19.902344 16.089844 18.128906 13.9375 L 17.203125 19.210938 L 20 21.558594 L 20 30.667969 L 17.332031 30.667969 L 17.332031 22.800781 L 14.308594 20.265625 L 13.335938 25.765625 L 4.144531 24.148438 L 4.609375 21.519531 L 11.175781 22.675781 Z M 18 7.332031 C 16.527344 7.332031 15.332031 6.140625 15.332031 4.667969 C 15.332031 3.195312 16.527344 2 18 2 C 19.472656 2 20.667969 3.195312 20.667969 4.667969 C 20.667969 6.140625 19.472656 7.332031 18 7.332031 Z M 18 7.332031 "/>
</g>
</svg>
