<?xml version="1.0" encoding="UTF-8"?>
<svg xmlns="http://www.w3.org/2000/svg" xmlns:xlink="http://www.w3.org/1999/xlink" width="32" height="32" viewBox="0 0 32 32" version="1.1">
<g id="surface1">
<path style=" stroke:none;fill-rule:nonzero;fill:rgb(0%,0%,0%);fill-opacity:1;" d="M 7.5625 5.675781 L 17.886719 16 L 16 17.886719 L 7.574219 9.457031 C 4.328125 13.644531 4.644531 19.578125 8.320312 23.394531 C 11.996094 27.210938 17.914062 27.75 22.21875 24.664062 C 26.523438 21.574219 27.910156 15.796875 25.476562 11.089844 C 23.039062 6.386719 17.519531 4.183594 12.515625 5.914062 L 10.464844 3.867188 C 12.203125 3.074219 14.089844 2.664062 16 2.667969 C 23.363281 2.667969 29.332031 8.636719 29.332031 16 C 29.332031 23.363281 23.363281 29.332031 16 29.332031 C 8.636719 29.332031 2.667969 23.363281 2.667969 16 C 2.664062 11.996094 4.460938 8.207031 7.5625 5.675781 Z M 7.5625 5.675781 "/>
</g>
</svg>
