<?xml version="1.0" encoding="UTF-8"?>
<svg xmlns="http://www.w3.org/2000/svg" xmlns:xlink="http://www.w3.org/1999/xlink" width="32" height="32" viewBox="0 0 32 32" version="1.1">
<g id="surface1">
<path style=" stroke:none;fill-rule:nonzero;fill:rgb(0%,0%,0%);fill-opacity:1;" d="M 13.332031 8 C 13.332031 8.976562 13.070312 9.890625 12.613281 10.679688 L 16 14.113281 L 24.96875 5.144531 C 26.011719 4.101562 27.699219 4.101562 28.742188 5.144531 L 12.59375 21.289062 C 13.957031 23.601562 13.390625 26.570312 11.265625 28.214844 C 9.144531 29.859375 6.128906 29.667969 4.230469 27.769531 C 2.332031 25.871094 2.140625 22.855469 3.785156 20.730469 C 5.429688 18.609375 8.394531 18.039062 10.710938 19.402344 L 14.113281 16 L 10.710938 12.59375 C 8.625 13.824219 5.976562 13.496094 4.253906 11.796875 C 2.535156 10.101562 2.167969 7.457031 3.367188 5.355469 C 4.566406 3.253906 7.03125 2.226562 9.367188 2.847656 C 11.707031 3.464844 13.332031 5.582031 13.332031 8 Z M 10.667969 8 C 10.667969 6.527344 9.472656 5.332031 8 5.332031 C 6.527344 5.332031 5.332031 6.527344 5.332031 8 C 5.332031 9.472656 6.527344 10.667969 8 10.667969 C 9.472656 10.667969 10.667969 9.472656 10.667969 8 Z M 28.742188 26.855469 C 27.699219 27.898438 26.011719 27.898438 24.96875 26.855469 L 17.882812 19.769531 L 19.769531 17.882812 Z M 21.332031 14.667969 L 24 14.667969 L 24 17.332031 L 21.332031 17.332031 Z M 26.667969 14.667969 L 29.332031 14.667969 L 29.332031 17.332031 L 26.667969 17.332031 Z M 8 14.667969 L 10.667969 14.667969 L 10.667969 17.332031 L 8 17.332031 Z M 2.667969 14.667969 L 5.332031 14.667969 L 5.332031 17.332031 L 2.667969 17.332031 Z M 8 26.667969 C 9.472656 26.667969 10.667969 25.472656 10.667969 24 C 10.667969 22.527344 9.472656 21.332031 8 21.332031 C 6.527344 21.332031 5.332031 22.527344 5.332031 24 C 5.332031 25.472656 6.527344 26.667969 8 26.667969 Z M 8 26.667969 "/>
</g>
</svg>
