<?xml version="1.0" encoding="UTF-8"?>
<svg xmlns="http://www.w3.org/2000/svg" xmlns:xlink="http://www.w3.org/1999/xlink" width="32" height="32" viewBox="0 0 32 32" version="1.1">
<g id="surface1">
<path style=" stroke:none;fill-rule:nonzero;fill:rgb(0%,0%,0%);fill-opacity:1;" d="M 14.667969 4 C 15.402344 4 16 4.597656 16 5.332031 L 16 8 L 22.667969 8 C 23.402344 8 24 8.597656 24 9.332031 L 24 16 L 26.667969 16 C 27.402344 16 28 16.597656 28 17.332031 L 28 26.667969 C 28 27.402344 27.402344 28 26.667969 28 L 17.332031 28 C 16.597656 28 16 27.402344 16 26.667969 L 16 24 L 9.332031 24 C 8.597656 24 8 23.402344 8 22.667969 L 8 16 L 5.332031 16 C 4.597656 16 4 15.402344 4 14.667969 L 4 5.332031 C 4 4.597656 4.597656 4 5.332031 4 Z M 21.332031 10.667969 L 16 10.667969 L 16 14.667969 C 16 15.402344 15.402344 16 14.667969 16 L 10.667969 16 L 10.667969 21.332031 L 16 21.332031 L 16 17.332031 C 16 16.597656 16.597656 16 17.332031 16 L 21.332031 16 Z M 21.332031 10.667969 "/>
</g>
</svg>
