<?xml version="1.0" encoding="UTF-8"?>
<svg xmlns="http://www.w3.org/2000/svg" xmlns:xlink="http://www.w3.org/1999/xlink" width="32" height="32" viewBox="0 0 32 32" version="1.1">
<g id="surface1">
<path style=" stroke:none;fill-rule:nonzero;fill:rgb(0%,0%,0%);fill-opacity:1;" d="M 4.453125 22.667969 C 3.890625 21.691406 3.453125 20.648438 3.148438 19.566406 C 4.492188 18.882812 5.335938 17.507812 5.335938 16 C 5.335938 14.496094 4.492188 13.117188 3.152344 12.4375 C 3.753906 10.257812 4.902344 8.265625 6.488281 6.652344 C 7.75 7.472656 9.363281 7.515625 10.667969 6.765625 C 11.96875 6.011719 12.742188 4.589844 12.660156 3.089844 C 14.851562 2.523438 17.148438 2.523438 19.335938 3.089844 C 19.257812 4.59375 20.03125 6.011719 21.332031 6.765625 C 22.636719 7.515625 24.25 7.472656 25.511719 6.652344 C 26.285156 7.441406 26.96875 8.335938 27.546875 9.332031 C 28.125 10.332031 28.554688 11.375 28.851562 12.433594 C 27.507812 13.117188 26.664062 14.492188 26.664062 16 C 26.664062 17.503906 27.507812 18.882812 28.847656 19.5625 C 28.246094 21.742188 27.097656 23.734375 25.511719 25.347656 C 24.25 24.527344 22.636719 24.484375 21.332031 25.234375 C 20.03125 25.988281 19.257812 27.410156 19.339844 28.910156 C 17.148438 29.476562 14.851562 29.476562 12.664062 28.910156 C 12.742188 27.40625 11.96875 25.988281 10.667969 25.234375 C 9.363281 24.484375 7.75 24.527344 6.488281 25.347656 C 5.699219 24.542969 5.015625 23.640625 4.453125 22.667969 Z M 12 22.929688 C 13.421875 23.746094 14.488281 25.0625 15 26.621094 C 15.664062 26.683594 16.332031 26.683594 17 26.621094 C 17.511719 25.0625 18.578125 23.75 20 22.929688 C 21.421875 22.109375 23.09375 21.839844 24.699219 22.175781 C 25.085938 21.632812 25.421875 21.050781 25.699219 20.445312 C 24.601562 19.222656 24 17.640625 24 16 C 24 14.320312 24.625 12.75 25.699219 11.554688 C 25.417969 10.949219 25.082031 10.367188 24.699219 9.824219 C 23.09375 10.160156 21.417969 9.894531 20 9.070312 C 18.578125 8.253906 17.511719 6.9375 17 5.378906 C 16.335938 5.316406 15.667969 5.316406 15 5.378906 C 14.488281 6.9375 13.421875 8.25 12 9.070312 C 10.578125 9.890625 8.90625 10.160156 7.300781 9.824219 C 6.914062 10.367188 6.582031 10.949219 6.300781 11.554688 C 7.398438 12.777344 8 14.359375 8 16 C 8 17.679688 7.375 19.25 6.300781 20.445312 C 6.582031 21.050781 6.917969 21.632812 7.300781 22.175781 C 8.90625 21.839844 10.582031 22.105469 12 22.929688 Z M 16 20 C 13.789062 20 12 18.210938 12 16 C 12 13.789062 13.789062 12 16 12 C 18.210938 12 20 13.789062 20 16 C 20 18.210938 18.210938 20 16 20 Z M 16 17.332031 C 16.738281 17.332031 17.332031 16.738281 17.332031 16 C 17.332031 15.261719 16.738281 14.667969 16 14.667969 C 15.261719 14.667969 14.667969 15.261719 14.667969 16 C 14.667969 16.738281 15.261719 17.332031 16 17.332031 Z M 16 17.332031 "/>
</g>
</svg>
