<?xml version="1.0" encoding="UTF-8"?>
<svg xmlns="http://www.w3.org/2000/svg" xmlns:xlink="http://www.w3.org/1999/xlink" width="32" height="32" viewBox="0 0 32 32" version="1.1">
<g id="surface1">
<path style=" stroke:none;fill-rule:nonzero;fill:rgb(0%,0%,0%);fill-opacity:1;" d="M 6.667969 10.667969 C 4.457031 10.667969 2.667969 8.875 2.667969 6.667969 C 2.667969 4.457031 4.457031 2.667969 6.667969 2.667969 C 8.875 2.667969 10.667969 4.457031 10.667969 6.667969 C 10.667969 8.875 8.875 10.667969 6.667969 10.667969 Z M 25.332031 10.667969 C 23.125 10.667969 21.332031 8.875 21.332031 6.667969 C 21.332031 4.457031 23.125 2.667969 25.332031 2.667969 C 27.542969 2.667969 29.332031 4.457031 29.332031 6.667969 C 29.332031 8.875 27.542969 10.667969 25.332031 10.667969 Z M 25.332031 29.332031 C 23.125 29.332031 21.332031 27.542969 21.332031 25.332031 C 21.332031 23.125 23.125 21.332031 25.332031 21.332031 C 27.542969 21.332031 29.332031 23.125 29.332031 25.332031 C 29.332031 27.542969 27.542969 29.332031 25.332031 29.332031 Z M 6.667969 29.332031 C 4.457031 29.332031 2.667969 27.542969 2.667969 25.332031 C 2.667969 23.125 4.457031 21.332031 6.667969 21.332031 C 8.875 21.332031 10.667969 23.125 10.667969 25.332031 C 10.667969 27.542969 8.875 29.332031 6.667969 29.332031 Z M 12 5.332031 L 20 5.332031 L 20 8 L 12 8 Z M 12 24 L 20 24 L 20 26.667969 L 12 26.667969 Z M 5.332031 12 L 8 12 L 8 20 L 5.332031 20 Z M 24 12 L 26.667969 12 L 26.667969 20 L 24 20 Z M 24 12 "/>
</g>
</svg>
