<?xml version="1.0" encoding="UTF-8"?>
<svg xmlns="http://www.w3.org/2000/svg" xmlns:xlink="http://www.w3.org/1999/xlink" width="32" height="32" viewBox="0 0 32 32" version="1.1">
<g id="surface1">
<path style=" stroke:none;fill-rule:nonzero;fill:rgb(0%,0%,0%);fill-opacity:1;" d="M 15.992188 0.464844 C 15.960938 0.464844 15.929688 0.464844 15.898438 0.46875 C 15.882812 0.46875 15.867188 0.472656 15.851562 0.476562 C 15.832031 0.476562 15.808594 0.480469 15.785156 0.484375 C 15.78125 0.484375 15.777344 0.484375 15.773438 0.488281 C 15.734375 0.496094 15.691406 0.503906 15.652344 0.515625 C 15.648438 0.519531 15.644531 0.519531 15.640625 0.519531 C 15.605469 0.535156 15.570312 0.550781 15.535156 0.566406 C 15.5 0.582031 15.464844 0.597656 15.433594 0.621094 C 15.429688 0.621094 15.425781 0.625 15.421875 0.628906 C 15.417969 0.628906 15.414062 0.632812 15.410156 0.632812 C 15.378906 0.65625 15.347656 0.671875 15.320312 0.695312 C 15.308594 0.703125 15.292969 0.71875 15.28125 0.726562 C 15.257812 0.75 15.234375 0.761719 15.214844 0.785156 C 15.1875 0.816406 15.164062 0.839844 15.140625 0.867188 C 15.117188 0.898438 15.09375 0.929688 15.070312 0.960938 C 15.070312 0.964844 15.066406 0.964844 15.066406 0.96875 C 15.0625 0.972656 15.0625 0.976562 15.058594 0.984375 C 15.058594 0.984375 15.054688 0.988281 15.054688 0.988281 C 13.394531 3.640625 11.652344 4.589844 9.605469 4.882812 C 7.558594 5.175781 5.125 4.683594 2.476562 4.042969 L 1.191406 3.734375 L 1.101562 5.0625 C 0.578125 13.816406 2.035156 19.671875 4.78125 23.722656 C 7.503906 27.742188 11.421875 29.875 15.503906 31.429688 C 15.535156 31.445312 15.566406 31.460938 15.601562 31.476562 C 15.640625 31.488281 15.679688 31.503906 15.722656 31.511719 C 15.761719 31.519531 15.800781 31.527344 15.84375 31.535156 C 15.875 31.539062 15.90625 31.542969 15.941406 31.542969 C 15.96875 31.546875 15.996094 31.546875 16.027344 31.546875 C 16.046875 31.546875 16.066406 31.542969 16.085938 31.542969 C 16.085938 31.542969 16.089844 31.542969 16.09375 31.542969 C 16.09375 31.542969 16.09375 31.542969 16.097656 31.542969 C 16.125 31.539062 16.15625 31.535156 16.1875 31.527344 C 16.214844 31.523438 16.242188 31.511719 16.273438 31.503906 C 16.3125 31.496094 16.347656 31.488281 16.386719 31.476562 C 16.386719 31.472656 16.390625 31.472656 16.394531 31.472656 C 16.394531 31.46875 16.394531 31.46875 16.398438 31.464844 C 16.4375 31.453125 16.476562 31.4375 16.515625 31.414062 C 20.589844 29.859375 24.5 27.726562 27.21875 23.714844 C 29.964844 19.664062 31.421875 13.808594 30.898438 5.054688 L 30.824219 3.726562 L 29.523438 4.035156 C 26.875 4.675781 24.441406 5.167969 22.394531 4.875 C 20.347656 4.582031 18.605469 3.632812 16.945312 0.980469 C 16.941406 0.976562 16.941406 0.976562 16.9375 0.972656 C 16.9375 0.972656 16.9375 0.96875 16.9375 0.96875 C 16.894531 0.902344 16.84375 0.835938 16.785156 0.777344 C 16.785156 0.777344 16.78125 0.773438 16.78125 0.773438 C 16.753906 0.75 16.726562 0.722656 16.695312 0.699219 C 16.691406 0.695312 16.691406 0.691406 16.6875 0.691406 C 16.65625 0.667969 16.625 0.644531 16.589844 0.621094 C 16.519531 0.578125 16.445312 0.542969 16.367188 0.515625 C 16.339844 0.511719 16.308594 0.496094 16.277344 0.488281 C 16.265625 0.484375 16.257812 0.480469 16.246094 0.480469 C 16.246094 0.480469 16.246094 0.480469 16.242188 0.480469 C 16.238281 0.476562 16.234375 0.476562 16.226562 0.476562 C 16.152344 0.460938 16.078125 0.453125 16 0.453125 C 15.996094 0.453125 15.996094 0.453125 15.992188 0.453125 Z M 15.992188 0.464844 "/>
</g>
</svg>
