<?xml version="1.0" encoding="UTF-8"?>
<svg xmlns="http://www.w3.org/2000/svg" xmlns:xlink="http://www.w3.org/1999/xlink" width="32" height="32" viewBox="0 0 32 32" version="1.1">
<g id="surface1">
<path style=" stroke:none;fill-rule:nonzero;fill:rgb(0%,0%,0%);fill-opacity:1;" d="M 16 2.667969 C 20.417969 2.667969 24 6.25 24 10.667969 L 24 12 L 29.332031 12 L 29.332031 14.667969 L 27.777344 14.667969 L 26.769531 26.777344 C 26.710938 27.46875 26.132812 28 25.441406 28 L 6.558594 28 C 5.867188 28 5.289062 27.46875 5.230469 26.777344 L 4.222656 14.667969 L 2.667969 14.667969 L 2.667969 12 L 8 12 L 8 10.667969 C 8 6.25 11.582031 2.667969 16 2.667969 Z M 25.101562 14.667969 L 6.898438 14.667969 L 7.785156 25.332031 L 24.210938 25.332031 Z M 17.332031 17.332031 L 17.332031 22.667969 L 14.667969 22.667969 L 14.667969 17.332031 Z M 12 17.332031 L 12 22.667969 L 9.332031 22.667969 L 9.332031 17.332031 Z M 22.667969 17.332031 L 22.667969 22.667969 L 20 22.667969 L 20 17.332031 Z M 16 5.332031 C 13.15625 5.332031 10.816406 7.5625 10.671875 10.398438 L 10.667969 10.667969 L 10.667969 12 L 21.332031 12 L 21.332031 10.667969 C 21.332031 7.824219 19.105469 5.480469 16.265625 5.339844 Z M 16 5.332031 "/>
</g>
</svg>
