<?xml version="1.0" encoding="UTF-8"?>
<svg xmlns="http://www.w3.org/2000/svg" xmlns:xlink="http://www.w3.org/1999/xlink" width="32" height="32" viewBox="0 0 32 32" version="1.1">
<g id="surface1">
<path style=" stroke:none;fill-rule:nonzero;fill:rgb(0%,0%,0%);fill-opacity:1;" d="M 9.332031 10.667969 L 9.332031 8 C 9.332031 4.316406 12.316406 1.332031 16 1.332031 C 19.683594 1.332031 22.667969 4.316406 22.667969 8 L 22.667969 10.667969 L 26.667969 10.667969 C 27.402344 10.667969 28 11.261719 28 12 L 28 28 C 28 28.738281 27.402344 29.332031 26.667969 29.332031 L 5.332031 29.332031 C 4.597656 29.332031 4 28.738281 4 28 L 4 12 C 4 11.261719 4.597656 10.667969 5.332031 10.667969 Z M 9.332031 13.332031 L 6.667969 13.332031 L 6.667969 26.667969 L 25.332031 26.667969 L 25.332031 13.332031 L 22.667969 13.332031 L 22.667969 16 L 20 16 L 20 13.332031 L 12 13.332031 L 12 16 L 9.332031 16 Z M 12 10.667969 L 20 10.667969 L 20 8 C 20 5.789062 18.210938 4 16 4 C 13.789062 4 12 5.789062 12 8 Z M 12 10.667969 "/>
</g>
</svg>
