<?xml version="1.0" encoding="UTF-8"?>
<svg xmlns="http://www.w3.org/2000/svg" xmlns:xlink="http://www.w3.org/1999/xlink" width="32" height="32" viewBox="0 0 32 32" version="1.1">
<g id="surface1">
<path style=" stroke:none;fill-rule:nonzero;fill:rgb(0%,0%,0%);fill-opacity:1;" d="M 24.9375 0.0664062 C 23.359375 -0.0078125 21.730469 0.472656 20.273438 1.441406 C 19.558594 0.972656 18.773438 0.625 17.949219 0.402344 C 15.507812 -0.25 12.902344 0.269531 10.898438 1.8125 L 10.769531 1.683594 C 10.03125 0.945312 8.84375 0.945312 8.105469 1.683594 C 7.367188 2.421875 7.371094 3.609375 8.109375 4.347656 L 20.097656 16.320312 C 20.835938 17.058594 22.019531 17.054688 22.757812 16.316406 C 23.496094 15.578125 23.496094 14.394531 22.757812 13.65625 L 22.289062 13.191406 C 23.828125 11.1875 24.34375 8.582031 23.691406 6.144531 C 23.511719 5.480469 23.253906 4.84375 22.914062 4.25 C 23.90625 3.757812 24.871094 3.71875 25.652344 4.011719 C 26.792969 4.441406 27.738281 5.457031 27.738281 7.652344 L 27.613281 31.929688 L 31.378906 31.941406 L 31.503906 7.667969 L 31.503906 7.652344 C 31.503906 4.203125 29.609375 1.46875 26.988281 0.484375 C 26.332031 0.238281 25.640625 0.0976562 24.9375 0.0664062 Z M 7.496094 6.679688 C 6.390625 6.679688 5.496094 7.574219 5.496094 8.679688 C 5.496094 9.785156 6.390625 10.679688 7.496094 10.679688 C 8.601562 10.679688 9.496094 9.785156 9.496094 8.679688 C 9.496094 7.574219 8.601562 6.679688 7.496094 6.679688 Z M 2.496094 8.679688 C 1.390625 8.679688 0.496094 9.574219 0.496094 10.679688 C 0.496094 11.785156 1.390625 12.679688 2.496094 12.679688 C 3.601562 12.679688 4.496094 11.785156 4.496094 10.679688 C 4.496094 9.574219 3.601562 8.679688 2.496094 8.679688 Z M 11.496094 10.679688 C 10.390625 10.679688 9.496094 11.574219 9.496094 12.679688 C 9.496094 13.785156 10.390625 14.679688 11.496094 14.679688 C 12.601562 14.679688 13.496094 13.785156 13.496094 12.679688 C 13.496094 11.574219 12.601562 10.679688 11.496094 10.679688 Z M 6.496094 12.679688 C 5.390625 12.679688 4.496094 13.574219 4.496094 14.679688 C 4.496094 15.785156 5.390625 16.679688 6.496094 16.679688 C 7.601562 16.679688 8.496094 15.785156 8.496094 14.679688 C 8.496094 13.574219 7.601562 12.679688 6.496094 12.679688 Z M 15.496094 14.679688 C 14.390625 14.679688 13.496094 15.574219 13.496094 16.679688 C 13.496094 17.785156 14.390625 18.679688 15.496094 18.679688 C 16.601562 18.679688 17.496094 17.785156 17.496094 16.679688 C 17.496094 15.574219 16.601562 14.679688 15.496094 14.679688 Z M 10.496094 16.679688 C 9.390625 16.679688 8.496094 17.574219 8.496094 18.679688 C 8.496094 19.785156 9.390625 20.679688 10.496094 20.679688 C 11.601562 20.679688 12.496094 19.785156 12.496094 18.679688 C 12.496094 17.574219 11.601562 16.679688 10.496094 16.679688 Z M 14.496094 20.679688 C 13.390625 20.679688 12.496094 21.574219 12.496094 22.679688 C 12.496094 23.785156 13.390625 24.679688 14.496094 24.679688 C 15.601562 24.679688 16.496094 23.785156 16.496094 22.679688 C 16.496094 21.574219 15.601562 20.679688 14.496094 20.679688 Z M 14.496094 20.679688 "/>
</g>
</svg>
