<?xml version="1.0" encoding="UTF-8"?>
<svg xmlns="http://www.w3.org/2000/svg" xmlns:xlink="http://www.w3.org/1999/xlink" width="32" height="32" viewBox="0 0 32 32" version="1.1">
<g id="surface1">
<path style=" stroke:none;fill-rule:nonzero;fill:rgb(0%,0%,0%);fill-opacity:1;" d="M 8.992188 8.003906 C 7.328125 8.003906 5.863281 8.839844 4.546875 10.011719 C 3.230469 11.179688 1.929688 12.75 0.398438 14.792969 C 0.078125 15.21875 -0.0585938 15.753906 0.015625 16.277344 C 0.0898438 16.804688 0.371094 17.28125 0.796875 17.597656 C 1.222656 17.917969 1.757812 18.054688 2.28125 17.980469 C 2.808594 17.90625 3.285156 17.625 3.601562 17.199219 C 5.070312 15.242188 6.273438 13.820312 7.203125 12.992188 C 8.136719 12.164062 8.667969 12.003906 8.992188 12.003906 C 9.316406 12.003906 9.828125 12.164062 10.746094 12.992188 C 11.667969 13.820312 12.859375 15.226562 14.304688 17.183594 C 15.820312 19.230469 17.113281 20.824219 18.441406 21.996094 C 19.765625 23.171875 21.257812 24.007812 22.929688 24.007812 C 24.601562 24.007812 26.082031 23.167969 27.417969 21.996094 C 28.75 20.828125 30.058594 19.246094 31.59375 17.199219 C 31.914062 16.773438 32.050781 16.242188 31.976562 15.714844 C 31.902344 15.1875 31.621094 14.714844 31.195312 14.394531 C 30.3125 13.738281 29.066406 13.917969 28.40625 14.792969 C 26.941406 16.746094 25.71875 18.171875 24.773438 19 C 23.828125 19.828125 23.289062 20.003906 22.929688 20.003906 C 22.570312 20.003906 22.03125 19.828125 21.097656 19 C 20.164062 18.175781 18.96875 16.761719 17.523438 14.808594 C 16.011719 12.765625 14.726562 11.183594 13.421875 10.011719 C 12.113281 8.835938 10.65625 8.003906 8.992188 8.003906 Z M 8.992188 8.003906 "/>
</g>
</svg>
