<?xml version="1.0" encoding="UTF-8"?>
<svg xmlns="http://www.w3.org/2000/svg" xmlns:xlink="http://www.w3.org/1999/xlink" width="32" height="32" viewBox="0 0 32 32" version="1.1">
<g id="surface1">
<path style=" stroke:none;fill-rule:evenodd;fill:rgb(0%,0%,0%);fill-opacity:1;" d="M 19 3.253906 C 16.390625 3.253906 13.996094 5.695312 13.996094 8.996094 L 13.996094 16 L 8 16 L 8 14 L 10 14 L 10 12 L 4 12 L 4 16 L 2 16 C 0.890625 16 0 16.890625 0 18 L 0 20 C 0 21.109375 0.890625 22 2 22 L 2 28 C 2 29.109375 2.890625 30 4 30 L 28 30 C 29.109375 30 30 29.109375 30 28 L 30 22 C 31.109375 22 32 21.109375 32 20 L 32 18 C 32 16.890625 31.109375 16 30 16 L 28 16 L 28 12 L 22 12 L 22 14 L 24 14 L 24 16 L 17.996094 16 L 17.996094 8.996094 C 17.996094 7.296875 18.609375 7.257812 19 7.257812 C 19.390625 7.257812 20.003906 7.296875 20.003906 8.996094 L 24.007812 8.996094 C 24.007812 5.695312 21.609375 3.253906 19 3.253906 Z M 19 3.253906 "/>
</g>
</svg>
