<?xml version="1.0" encoding="UTF-8"?>
<svg xmlns="http://www.w3.org/2000/svg" xmlns:xlink="http://www.w3.org/1999/xlink" width="32" height="32" viewBox="0 0 32 32" version="1.1">
<g id="surface1">
<path style=" stroke:none;fill-rule:nonzero;fill:rgb(0%,0%,0%);fill-opacity:1;" d="M 21.332031 16.890625 L 7.703125 25.976562 C 7.5 26.113281 7.234375 26.125 7.019531 26.007812 C 6.800781 25.894531 6.667969 25.667969 6.667969 25.421875 L 6.667969 6.578125 C 6.667969 6.332031 6.800781 6.105469 7.019531 5.992188 C 7.234375 5.875 7.5 5.886719 7.703125 6.023438 L 21.332031 15.109375 L 21.332031 6.667969 C 21.332031 5.929688 21.929688 5.332031 22.667969 5.332031 C 23.402344 5.332031 24 5.929688 24 6.667969 L 24 25.332031 C 24 26.070312 23.402344 26.667969 22.667969 26.667969 C 21.929688 26.667969 21.332031 26.070312 21.332031 25.332031 Z M 9.332031 10.316406 L 9.332031 21.683594 L 17.859375 16 Z M 9.332031 10.316406 "/>
</g>
</svg>
