<?xml version="1.0" encoding="UTF-8"?>
<svg xmlns="http://www.w3.org/2000/svg" xmlns:xlink="http://www.w3.org/1999/xlink" width="32" height="32" viewBox="0 0 32 32" version="1.1">
<g id="surface1">
<path style=" stroke:none;fill-rule:nonzero;fill:rgb(0%,0%,0%);fill-opacity:1;" d="M 17.332031 28 L 17.332031 30.667969 L 14.667969 30.667969 L 14.667969 28 L 4 28 C 3.261719 28 2.667969 27.402344 2.667969 26.667969 L 2.667969 8 L 29.332031 8 L 29.332031 26.667969 C 29.332031 27.402344 28.738281 28 28 28 Z M 10.667969 13.332031 C 8.457031 13.332031 6.667969 15.125 6.667969 17.332031 C 6.667969 19.542969 8.457031 21.332031 10.667969 21.332031 C 12.875 21.332031 14.667969 19.542969 14.667969 17.332031 L 10.667969 17.332031 Z M 17.332031 13.332031 L 17.332031 16 L 25.332031 16 L 25.332031 13.332031 Z M 17.332031 18.667969 L 17.332031 21.332031 L 25.332031 21.332031 L 25.332031 18.667969 Z M 2.667969 4 L 29.332031 4 L 29.332031 6.667969 L 2.667969 6.667969 Z M 2.667969 4 "/>
</g>
</svg>
