<?xml version="1.0" encoding="UTF-8"?>
<svg xmlns="http://www.w3.org/2000/svg" xmlns:xlink="http://www.w3.org/1999/xlink" width="32" height="32" viewBox="0 0 32 32" version="1.1">
<g id="surface1">
<path style=" stroke:none;fill-rule:evenodd;fill:rgb(0%,0%,0%);fill-opacity:1;" d="M 8 0 C 5.785156 0 4 1.785156 4 4 L 4 28 C 4 30.214844 5.785156 32 8 32 L 24 32 C 26.214844 32 28 30.214844 28 28 L 28 4 C 28 1.785156 26.214844 0 24 0 Z M 8 4 L 24 4 L 24 24 L 8 24 Z M 16 26 C 17.105469 26 18 26.894531 18 28 C 18 29.105469 17.105469 30 16 30 C 14.894531 30 14 29.105469 14 28 C 14 26.894531 14.894531 26 16 26 Z M 16 26 "/>
</g>
</svg>
