<?xml version="1.0" encoding="UTF-8"?>
<svg xmlns="http://www.w3.org/2000/svg" xmlns:xlink="http://www.w3.org/1999/xlink" width="32" height="32" viewBox="0 0 32 32" version="1.1">
<g id="surface1">
<path style=" stroke:none;fill-rule:nonzero;fill:rgb(0%,0%,0%);fill-opacity:1;" d="M 15.828125 29.019531 C 14.242188 29.019531 13.183594 28.269531 12.238281 27.609375 C 11.566406 27.132812 10.9375 26.683594 10.191406 26.558594 C 9.839844 26.496094 9.480469 26.46875 9.121094 26.46875 C 8.492188 26.46875 7.992188 26.5625 7.636719 26.636719 C 7.410156 26.675781 7.222656 26.714844 7.070312 26.714844 C 6.917969 26.714844 6.722656 26.671875 6.644531 26.410156 C 6.578125 26.195312 6.539062 25.992188 6.496094 25.796875 C 6.390625 25.304688 6.300781 25 6.113281 24.96875 C 4.128906 24.667969 2.941406 24.210938 2.710938 23.667969 C 2.691406 23.609375 2.667969 23.550781 2.667969 23.503906 C 2.65625 23.335938 2.773438 23.199219 2.941406 23.167969 C 4.515625 22.90625 5.929688 22.070312 7.125 20.691406 C 8.054688 19.621094 8.503906 18.585938 8.546875 18.476562 C 8.546875 18.460938 8.558594 18.460938 8.558594 18.460938 C 8.785156 17.992188 8.832031 17.59375 8.695312 17.269531 C 8.441406 16.65625 7.59375 16.394531 7.019531 16.214844 C 6.871094 16.175781 6.746094 16.125 6.636719 16.089844 C 6.144531 15.894531 5.324219 15.476562 5.433594 14.902344 C 5.507812 14.484375 6.0625 14.1875 6.511719 14.1875 C 6.636719 14.1875 6.746094 14.207031 6.832031 14.253906 C 7.339844 14.484375 7.796875 14.605469 8.1875 14.605469 C 8.675781 14.605469 8.910156 14.421875 8.96875 14.363281 C 8.957031 14.097656 8.941406 13.835938 8.921875 13.570312 C 8.800781 11.75 8.664062 9.492188 9.242188 8.199219 C 10.972656 4.320312 14.644531 4.011719 15.734375 4.011719 L 16.207031 4 L 16.273438 4 C 17.363281 4 21.035156 4.300781 22.765625 8.183594 C 23.347656 9.480469 23.207031 11.746094 23.085938 13.558594 L 23.074219 13.648438 C 23.0625 13.890625 23.042969 14.121094 23.03125 14.363281 C 23.09375 14.40625 23.304688 14.585938 23.746094 14.59375 C 24.125 14.582031 24.542969 14.457031 25.015625 14.242188 C 25.148438 14.183594 25.289062 14.15625 25.433594 14.152344 C 25.601562 14.152344 25.765625 14.191406 25.910156 14.242188 L 25.921875 14.242188 C 26.320312 14.390625 26.582031 14.667969 26.582031 14.960938 C 26.59375 15.234375 26.378906 15.652344 25.363281 16.0625 C 25.257812 16.101562 25.128906 16.152344 24.984375 16.183594 C 24.417969 16.359375 23.574219 16.632812 23.304688 17.238281 C 23.15625 17.558594 23.21875 17.96875 23.441406 18.433594 C 23.441406 18.445312 23.453125 18.445312 23.453125 18.445312 C 23.519531 18.609375 25.238281 22.511719 29.058594 23.148438 C 29.222656 23.175781 29.339844 23.316406 29.332031 23.480469 C 29.332031 23.539062 29.320312 23.597656 29.292969 23.652344 C 29.058594 24.199219 27.882812 24.644531 25.886719 24.953125 C 25.703125 24.984375 25.613281 25.285156 25.503906 25.78125 C 25.460938 25.984375 25.414062 26.191406 25.355469 26.390625 C 25.296875 26.589844 25.171875 26.695312 24.957031 26.695312 L 24.929688 26.695312 C 24.792969 26.695312 24.609375 26.675781 24.363281 26.628906 C 23.875 26.523438 23.378906 26.472656 22.878906 26.476562 C 22.527344 26.476562 22.164062 26.503906 21.808594 26.5625 C 21.070312 26.683594 20.433594 27.140625 19.761719 27.617188 C 18.808594 28.269531 17.742188 29.019531 16.167969 29.019531 Z M 15.828125 29.019531 "/>
</g>
</svg>
