<?xml version="1.0" encoding="UTF-8"?>
<svg xmlns="http://www.w3.org/2000/svg" xmlns:xlink="http://www.w3.org/1999/xlink" width="32" height="32" viewBox="0 0 32 32" version="1.1">
<g id="surface1">
<path style=" stroke:none;fill-rule:nonzero;fill:rgb(0%,0%,0%);fill-opacity:1;" d="M 3.996094 1.5 C 3.714844 1.503906 3.449219 1.625 3.261719 1.832031 C 3.183594 1.921875 3.117188 2.023438 3.074219 2.132812 C 3.039062 2.222656 3.015625 2.3125 3.007812 2.402344 L 1 24.398438 C 0.996094 24.4375 0.996094 24.476562 0.996094 24.515625 C 0.996094 24.519531 0.996094 24.519531 0.996094 24.519531 C 1 24.640625 1.023438 24.753906 1.066406 24.863281 C 1.066406 24.867188 1.070312 24.867188 1.070312 24.867188 C 1.109375 24.960938 1.160156 25.050781 1.222656 25.125 C 1.234375 25.140625 1.246094 25.152344 1.257812 25.167969 C 1.273438 25.179688 1.285156 25.195312 1.300781 25.210938 C 1.3125 25.222656 1.328125 25.238281 1.339844 25.253906 C 1.339844 25.253906 1.34375 25.253906 1.34375 25.253906 C 1.523438 25.410156 1.757812 25.496094 1.996094 25.496094 C 1.996094 25.496094 2 25.496094 2 25.496094 C 2 25.496094 2.003906 25.496094 2.003906 25.496094 L 10.003906 25.496094 L 10.003906 30.5 L 22.003906 30.5 L 22.003906 25.496094 L 29.996094 25.496094 C 30.277344 25.496094 30.546875 25.378906 30.738281 25.175781 C 30.792969 25.117188 30.839844 25.050781 30.878906 24.984375 C 30.917969 24.914062 30.949219 24.835938 30.96875 24.761719 C 30.980469 24.722656 30.988281 24.683594 30.992188 24.648438 C 31.003906 24.566406 31.007812 24.484375 31 24.402344 L 28.992188 2.402344 C 28.980469 2.285156 28.949219 2.167969 28.894531 2.058594 C 28.878906 2.023438 28.855469 1.992188 28.835938 1.957031 C 28.8125 1.925781 28.789062 1.890625 28.765625 1.859375 C 28.738281 1.832031 28.710938 1.800781 28.683594 1.773438 C 28.625 1.722656 28.5625 1.675781 28.496094 1.632812 C 28.425781 1.59375 28.355469 1.5625 28.277344 1.539062 C 28.1875 1.515625 28.097656 1.503906 28.003906 1.5 Z M 10.007812 3.492188 L 12 3.492188 L 12 8.5 L 20.003906 8.5 L 20.003906 3.492188 L 22.011719 3.492188 L 22.011719 8.5 L 27.542969 8.5 L 27.644531 9.597656 L 27.726562 10.492188 L 22.011719 10.492188 L 22.011719 16.5 L 28.269531 16.5 L 28.351562 17.394531 L 28.453125 18.492188 L 22.011719 18.492188 L 22.011719 23.5 L 20.003906 23.5 L 20.003906 18.492188 L 12 18.492188 L 12 23.5 L 10.007812 23.5 L 10.007812 18.492188 L 3.550781 18.492188 L 3.652344 17.394531 L 3.734375 16.5 L 10.007812 16.5 L 10.007812 10.492188 L 4.277344 10.492188 L 4.359375 9.597656 L 4.460938 8.5 L 10.007812 8.5 Z M 12 10.492188 L 12 16.5 L 20.003906 16.5 L 20.003906 10.492188 Z M 12 10.492188 "/>
</g>
</svg>
