<?xml version="1.0" encoding="UTF-8"?>
<svg xmlns="http://www.w3.org/2000/svg" xmlns:xlink="http://www.w3.org/1999/xlink" width="32" height="32" viewBox="0 0 32 32" version="1.1">
<g id="surface1">
<path style=" stroke:none;fill-rule:nonzero;fill:rgb(0%,0%,0%);fill-opacity:1;" d="M 5.332031 13.332031 C 6.070312 13.332031 6.667969 13.929688 6.667969 14.667969 L 6.667969 24 C 6.667969 24.738281 6.070312 25.332031 5.332031 25.332031 C 4.597656 25.332031 4 24.738281 4 24 L 4 14.667969 C 4 13.929688 4.597656 13.332031 5.332031 13.332031 Z M 9.332031 14.667969 C 10.070312 14.667969 10.667969 15.261719 10.667969 16 L 10.667969 24 C 10.667969 24.738281 10.070312 25.332031 9.332031 25.332031 C 8.597656 25.332031 8 24.738281 8 24 L 8 16 C 8 15.261719 8.597656 14.667969 9.332031 14.667969 Z M 13.332031 9.332031 C 14.070312 9.332031 14.667969 9.929688 14.667969 10.667969 L 14.667969 24 C 14.667969 24.738281 14.070312 25.332031 13.332031 25.332031 C 12.597656 25.332031 12 24.738281 12 24 L 12 10.667969 C 12 9.929688 12.597656 9.332031 13.332031 9.332031 Z M 20 8 C 24.300781 8 27.832031 11.402344 27.996094 15.699219 L 28 16.046875 C 30.375 16.386719 32.109375 18.472656 32.003906 20.871094 C 31.898438 23.269531 29.988281 25.199219 27.589844 25.328125 L 27.332031 25.332031 L 22.664062 25.332031 C 21.960938 25.332031 21.378906 24.78125 21.335938 24.078125 C 21.292969 23.375 21.808594 22.757812 22.507812 22.675781 L 22.667969 22.667969 L 27.261719 22.667969 L 27.445312 22.664062 C 28.4375 22.609375 29.242188 21.835938 29.332031 20.847656 C 29.421875 19.855469 28.769531 18.953125 27.800781 18.722656 L 27.621094 18.6875 L 25.261719 18.351562 L 25.332031 15.96875 L 25.328125 15.734375 C 25.191406 12.996094 23.003906 10.808594 20.265625 10.671875 L 20 10.667969 C 19.644531 10.667969 19.292969 10.703125 18.949219 10.769531 L 18.667969 10.835938 L 18.667969 24 C 18.667969 24.675781 18.160156 25.246094 17.488281 25.324219 L 17.332031 25.332031 C 16.597656 25.332031 16 24.738281 16 24 L 16 9.070312 C 17.214844 8.367188 18.59375 7.996094 20 8 Z M 1.332031 16 C 2.070312 16 2.667969 16.597656 2.667969 17.332031 L 2.667969 22.667969 C 2.667969 23.402344 2.070312 24 1.332031 24 C 0.597656 24 0 23.402344 0 22.667969 L 0 17.332031 C 0 16.597656 0.597656 16 1.332031 16 Z M 1.332031 16 "/>
</g>
</svg>
