<?xml version="1.0" encoding="UTF-8"?>
<svg xmlns="http://www.w3.org/2000/svg" xmlns:xlink="http://www.w3.org/1999/xlink" width="32" height="32" viewBox="0 0 32 32" version="1.1">
<g id="surface1">
<path style=" stroke:none;fill-rule:nonzero;fill:rgb(0%,0%,0%);fill-opacity:1;" d="M 6.382812 23.257812 C 6.179688 23.402344 5.914062 23.421875 5.691406 23.304688 C 5.472656 23.191406 5.332031 22.960938 5.332031 22.714844 L 5.332031 9.285156 C 5.332031 9.039062 5.472656 8.808594 5.691406 8.695312 C 5.914062 8.578125 6.179688 8.597656 6.382812 8.742188 L 15.894531 15.457031 C 16.070312 15.582031 16.175781 15.785156 16.175781 16 C 16.175781 16.214844 16.070312 16.417969 15.894531 16.542969 Z M 17.332031 9.285156 C 17.332031 9.039062 17.472656 8.808594 17.691406 8.695312 C 17.914062 8.578125 18.179688 8.597656 18.382812 8.742188 L 27.894531 15.457031 C 28.070312 15.582031 28.175781 15.785156 28.175781 16 C 28.175781 16.214844 28.070312 16.417969 27.894531 16.542969 L 18.382812 23.257812 C 18.179688 23.402344 17.914062 23.421875 17.691406 23.304688 C 17.472656 23.191406 17.332031 22.960938 17.332031 22.714844 Z M 17.332031 9.285156 "/>
</g>
</svg>
