<?xml version="1.0" encoding="UTF-8"?>
<svg xmlns="http://www.w3.org/2000/svg" xmlns:xlink="http://www.w3.org/1999/xlink" width="32" height="32" viewBox="0 0 32 32" version="1.1">
<g id="surface1">
<path style=" stroke:none;fill-rule:nonzero;fill:rgb(0%,0%,0%);fill-opacity:1;" d="M 24 26.667969 L 24 19.558594 L 26.667969 19.558594 L 26.667969 29.335938 L 5.332031 29.335938 L 5.332031 19.558594 L 8 19.558594 L 8 26.671875 L 24 26.671875 Z M 10.132812 19.648438 L 10.550781 17.007812 L 22.332031 19.273438 L 22.179688 21.390625 Z M 11.730469 13.605469 L 12.707031 11.472656 L 23.371094 16.449219 L 22.394531 18.582031 Z M 14.753906 8.363281 L 16.261719 6.585938 L 25.328125 14.136719 L 23.816406 15.914062 Z M 20.527344 2.851562 L 27.546875 12.273438 L 25.679688 13.695312 L 18.664062 4.273438 L 20.53125 2.851562 Z M 9.777344 24.890625 L 9.777344 22.222656 L 22.214844 22.222656 L 22.214844 24.890625 Z M 9.777344 24.890625 "/>
</g>
</svg>
