<?xml version="1.0" encoding="UTF-8"?>
<svg xmlns="http://www.w3.org/2000/svg" xmlns:xlink="http://www.w3.org/1999/xlink" width="32" height="32" viewBox="0 0 32 32" version="1.1">
<g id="surface1">
<path style=" stroke:none;fill-rule:nonzero;fill:rgb(0%,0%,0%);fill-opacity:1;" d="M 22.667969 5.332031 C 26.347656 5.332031 29.332031 8.320312 29.332031 12 C 29.332031 15.679688 26.347656 18.667969 22.667969 18.667969 C 22.261719 18.667969 21.863281 18.628906 21.476562 18.558594 L 17.941406 21.210938 C 17.980469 21.46875 18 21.730469 18 22 C 18 24.945312 15.613281 27.332031 12.667969 27.332031 C 9.71875 27.332031 7.332031 24.945312 7.332031 22 C 7.332031 21.765625 7.347656 21.53125 7.378906 21.300781 L 2.277344 19.238281 L 3.277344 16.769531 L 8.378906 18.828125 C 9.351562 17.515625 10.910156 16.667969 12.667969 16.667969 C 12.882812 16.667969 13.097656 16.679688 13.308594 16.707031 L 16.03125 12.625 C 16.007812 12.417969 16 12.210938 16 12 C 16 8.320312 18.984375 5.332031 22.667969 5.332031 Z M 12.667969 19.332031 C 12.046875 19.332031 11.476562 19.542969 11.023438 19.898438 L 13.167969 20.765625 C 13.847656 21.039062 14.179688 21.816406 13.902344 22.5 C 13.625 23.183594 12.847656 23.511719 12.167969 23.234375 L 10.027344 22.375 C 10.207031 23.667969 11.320312 24.667969 12.667969 24.667969 C 14.140625 24.667969 15.335938 23.476562 15.335938 22 C 15.335938 20.527344 14.140625 19.335938 12.667969 19.335938 Z M 17.152344 15.746094 L 15.839844 17.714844 C 16.21875 17.996094 16.5625 18.324219 16.851562 18.695312 L 18.664062 17.335938 C 18.078125 16.890625 17.566406 16.355469 17.152344 15.746094 Z M 22.667969 8 C 20.457031 8 18.667969 9.789062 18.667969 12 C 18.667969 14.210938 20.457031 16 22.667969 16 C 24.875 16 26.667969 14.210938 26.667969 12 C 26.667969 9.789062 24.875 8 22.667969 8 Z M 22.667969 9.332031 C 24.140625 9.332031 25.332031 10.527344 25.332031 12 C 25.332031 13.472656 24.140625 14.667969 22.667969 14.667969 C 21.191406 14.667969 20 13.472656 20 12 C 20 10.527344 21.191406 9.332031 22.667969 9.332031 Z M 22.667969 9.332031 "/>
</g>
</svg>
