<?xml version="1.0" encoding="UTF-8"?>
<svg xmlns="http://www.w3.org/2000/svg" xmlns:xlink="http://www.w3.org/1999/xlink" width="32" height="32" viewBox="0 0 32 32" version="1.1">
<g id="surface1">
<path style=" stroke:none;fill-rule:nonzero;fill:rgb(0%,0%,0%);fill-opacity:1;" d="M 23.277344 4 L 28 4.003906 L 28.003906 8.703125 L 20.714844 15.988281 L 24.484375 19.761719 L 26.371094 17.875 L 28.257812 19.761719 L 24.957031 23.0625 L 28.726562 26.832031 L 26.84375 28.71875 L 23.070312 24.945312 L 19.769531 28.246094 L 17.886719 26.363281 L 19.769531 24.476562 L 16 20.703125 L 12.226562 24.476562 L 14.113281 26.363281 L 12.230469 28.246094 L 8.929688 24.945312 L 5.15625 28.71875 L 3.273438 26.832031 L 7.042969 23.058594 L 3.742188 19.761719 L 5.628906 17.875 L 7.515625 19.761719 L 11.285156 15.988281 L 4.003906 8.710938 L 4 4 L 8.726562 4.003906 L 16 11.277344 Z M 13.167969 17.875 L 9.398438 21.644531 L 10.34375 22.589844 L 14.113281 18.816406 L 13.171875 17.875 Z M 25.335938 6.667969 L 24.378906 6.667969 L 17.886719 13.160156 L 18.828125 14.101562 L 25.335938 7.597656 Z M 6.667969 6.667969 L 6.667969 7.601562 L 21.65625 22.589844 L 22.597656 21.648438 L 7.621094 6.667969 Z M 6.667969 6.667969 "/>
</g>
</svg>
