<?xml version="1.0" encoding="UTF-8"?>
<svg xmlns="http://www.w3.org/2000/svg" xmlns:xlink="http://www.w3.org/1999/xlink" width="32" height="32" viewBox="0 0 32 32" version="1.1">
<g id="surface1">
<path style=" stroke:none;fill-rule:nonzero;fill:rgb(0%,0%,0%);fill-opacity:1;" d="M 3.945312 -0.0742188 C 1.734375 -0.0742188 -0.0546875 1.714844 -0.0546875 3.925781 L -0.0546875 12.984375 C -0.0546875 14.375 0.5 15.710938 1.484375 16.699219 L 16.257812 31.472656 C 17.0625 32.277344 18.371094 32.277344 19.179688 31.472656 L 31.417969 19.238281 C 32.269531 18.386719 32.269531 17.007812 31.417969 16.160156 L 16.71875 1.464844 C 15.734375 0.476562 14.398438 -0.0742188 13.003906 -0.0742188 Z M 5.945312 2.925781 C 7.601562 2.925781 8.945312 4.265625 8.945312 5.925781 C 8.945312 7.582031 7.601562 8.925781 5.945312 8.925781 C 4.289062 8.925781 2.945312 7.582031 2.945312 5.925781 C 2.945312 4.265625 4.289062 2.925781 5.945312 2.925781 Z M 5.945312 2.925781 "/>
</g>
</svg>
