<?xml version="1.0" encoding="UTF-8"?>
<svg xmlns="http://www.w3.org/2000/svg" xmlns:xlink="http://www.w3.org/1999/xlink" width="32" height="32" viewBox="0 0 32 32" version="1.1">
<g id="surface1">
<path style=" stroke:none;fill-rule:nonzero;fill:rgb(0%,0%,0%);fill-opacity:1;" d="M 21.332031 1.332031 C 22.070312 1.332031 22.667969 1.929688 22.667969 2.667969 L 22.667969 4 L 29.332031 4 L 29.332031 12 L 26.640625 12 L 30.328125 22.128906 C 30.546875 22.710938 30.667969 23.339844 30.667969 24 C 30.667969 26.945312 28.277344 29.332031 25.332031 29.332031 C 22.847656 29.332031 20.761719 27.632812 20.167969 25.335938 L 14.5 25.335938 C 13.90625 27.632812 11.816406 29.332031 9.332031 29.332031 C 6.738281 29.332031 4.578125 27.484375 4.097656 25.03125 C 3.246094 24.585938 2.667969 23.695312 2.667969 22.667969 L 2.667969 16 L 14.667969 16 C 14.667969 16.683594 15.179688 17.246094 15.84375 17.324219 L 16 17.332031 L 18.667969 17.332031 C 19.351562 17.332031 19.914062 16.820312 19.992188 16.15625 L 20 16 L 20 4 L 16 4 L 16 1.332031 Z M 9.332031 21.332031 C 7.859375 21.332031 6.667969 22.527344 6.667969 24 C 6.667969 25.472656 7.859375 26.667969 9.332031 26.667969 C 10.804688 26.667969 12 25.472656 12 24 C 12 22.527344 10.804688 21.332031 9.332031 21.332031 Z M 25.332031 21.332031 C 23.859375 21.332031 22.667969 22.527344 22.667969 24 C 22.667969 25.472656 23.859375 26.667969 25.332031 26.667969 C 26.804688 26.667969 28 25.472656 28 24 C 28 22.527344 26.804688 21.332031 25.332031 21.332031 Z M 13.332031 4 C 14.070312 4 14.667969 4.597656 14.667969 5.332031 L 14.667969 14.667969 L 2.667969 14.667969 L 2.667969 5.332031 C 2.667969 4.597656 3.261719 4 4 4 Z M 26.667969 6.667969 L 22.667969 6.667969 L 22.667969 9.332031 L 26.667969 9.332031 Z M 12 6.667969 L 5.332031 6.667969 L 5.332031 8 L 12 8 Z M 12 6.667969 "/>
</g>
</svg>
