<?xml version="1.0" encoding="UTF-8"?>
<svg xmlns="http://www.w3.org/2000/svg" xmlns:xlink="http://www.w3.org/1999/xlink" width="32" height="32" viewBox="0 0 32 32" version="1.1">
<g id="surface1">
<path style=" stroke:none;fill-rule:nonzero;fill:rgb(0%,0%,0%);fill-opacity:1;" d="M 14.441406 17.332031 L 17.558594 17.332031 C 16.980469 15.691406 17.527344 13.859375 18.917969 12.808594 C 20.308594 11.757812 22.21875 11.726562 23.640625 12.734375 C 25.0625 13.738281 25.671875 15.550781 25.144531 17.210938 C 24.617188 18.871094 23.074219 20 21.332031 20 L 10.667969 20 C 8.925781 20 7.382812 18.871094 6.855469 17.210938 C 6.328125 15.550781 6.9375 13.738281 8.359375 12.734375 C 9.78125 11.726562 11.691406 11.757812 13.082031 12.808594 C 14.472656 13.859375 15.019531 15.691406 14.441406 17.332031 Z M 5.332031 6.667969 L 5.332031 25.332031 L 26.667969 25.332031 L 26.667969 6.667969 Z M 4 4 L 28 4 C 28.738281 4 29.332031 4.597656 29.332031 5.332031 L 29.332031 26.667969 C 29.332031 27.402344 28.738281 28 28 28 L 4 28 C 3.261719 28 2.667969 27.402344 2.667969 26.667969 L 2.667969 5.332031 C 2.667969 4.597656 3.261719 4 4 4 Z M 10.667969 17.332031 C 11.402344 17.332031 12 16.738281 12 16 C 12 15.261719 11.402344 14.667969 10.667969 14.667969 C 9.929688 14.667969 9.332031 15.261719 9.332031 16 C 9.332031 16.738281 9.929688 17.332031 10.667969 17.332031 Z M 21.332031 17.332031 C 22.070312 17.332031 22.667969 16.738281 22.667969 16 C 22.667969 15.261719 22.070312 14.667969 21.332031 14.667969 C 20.597656 14.667969 20 15.261719 20 16 C 20 16.738281 20.597656 17.332031 21.332031 17.332031 Z M 21.332031 17.332031 "/>
</g>
</svg>
