<?xml version="1.0" encoding="UTF-8"?>
<svg xmlns="http://www.w3.org/2000/svg" xmlns:xlink="http://www.w3.org/1999/xlink" width="32" height="32" viewBox="0 0 32 32" version="1.1">
<g id="surface1">
<path style=" stroke:none;fill-rule:evenodd;fill:rgb(0%,0%,0%);fill-opacity:1;" d="M 6 0 C 2.675781 0 0 2.675781 0 6 L 0 13.601562 L 13.609375 0 Z M 19.265625 0 L 0 19.265625 L 0 26 C 0 26.929688 0.226562 27.796875 0.597656 28.578125 L 28.574219 0.597656 C 27.792969 0.226562 26.925781 0 26 0 Z M 31.402344 3.425781 L 3.425781 31.402344 C 4.207031 31.773438 5.074219 32 6 32 L 13.175781 32 L 32 13.175781 L 32 6 C 32 5.074219 31.773438 4.207031 31.402344 3.425781 Z M 32 18.832031 L 18.832031 32 L 26 32 C 29.324219 32 32 29.324219 32 26 Z M 32 18.832031 "/>
</g>
</svg>
