<?xml version="1.0" encoding="UTF-8"?>
<svg xmlns="http://www.w3.org/2000/svg" xmlns:xlink="http://www.w3.org/1999/xlink" width="32" height="32" viewBox="0 0 32 32" version="1.1">
<g id="surface1">
<path style=" stroke:none;fill-rule:nonzero;fill:rgb(0%,0%,0%);fill-opacity:1;" d="M 29.332031 20 L 25.332031 20 L 25.332031 4 L 29.332031 4 C 30.070312 4 30.667969 4.597656 30.667969 5.332031 L 30.667969 18.667969 C 30.667969 19.402344 30.070312 20 29.332031 20 Z M 22.277344 21.722656 L 13.742188 30.257812 C 13.507812 30.492188 13.136719 30.519531 12.871094 30.320312 L 11.734375 29.464844 C 11.085938 28.980469 10.796875 28.15625 10.996094 27.375 L 12.535156 21.332031 L 4 21.332031 C 2.527344 21.332031 1.332031 20.140625 1.332031 18.667969 L 1.332031 15.863281 C 1.332031 15.511719 1.402344 15.167969 1.535156 14.84375 L 5.660156 4.828125 C 5.867188 4.328125 6.351562 4 6.894531 4 L 21.332031 4 C 22.070312 4 22.667969 4.597656 22.667969 5.332031 L 22.667969 20.78125 C 22.667969 21.136719 22.527344 21.472656 22.277344 21.722656 Z M 22.277344 21.722656 "/>
</g>
</svg>
