<?xml version="1.0" encoding="UTF-8"?>
<svg xmlns="http://www.w3.org/2000/svg" xmlns:xlink="http://www.w3.org/1999/xlink" width="32" height="32" viewBox="0 0 32 32" version="1.1">
<g id="surface1">
<path style=" stroke:none;fill-rule:nonzero;fill:rgb(0%,0%,0%);fill-opacity:1;" d="M 10.667969 6.667969 L 21.332031 6.667969 C 26.488281 6.667969 30.667969 10.84375 30.667969 16 C 30.667969 21.15625 26.488281 25.332031 21.332031 25.332031 L 10.667969 25.332031 C 5.511719 25.332031 1.332031 21.15625 1.332031 16 C 1.332031 10.84375 5.511719 6.667969 10.667969 6.667969 Z M 21.332031 20 C 23.542969 20 25.332031 18.210938 25.332031 16 C 25.332031 13.789062 23.542969 12 21.332031 12 C 19.125 12 17.332031 13.789062 17.332031 16 C 17.332031 18.210938 19.125 20 21.332031 20 Z M 21.332031 20 "/>
</g>
</svg>
