<?xml version="1.0" encoding="UTF-8"?>
<svg xmlns="http://www.w3.org/2000/svg" xmlns:xlink="http://www.w3.org/1999/xlink" width="32" height="32" viewBox="0 0 32 32" version="1.1">
<g id="surface1">
<path style=" stroke:none;fill-rule:nonzero;fill:rgb(0%,0%,0%);fill-opacity:1;" d="M 6.667969 20 L 6.667969 22.667969 C 6.667969 24.0625 7.742188 25.222656 9.132812 25.328125 L 9.332031 25.332031 L 13.332031 25.332031 L 13.332031 28 L 9.332031 28 C 6.386719 28 4 25.613281 4 22.667969 L 4 20 Z M 24 13.332031 L 29.867188 28 L 26.992188 28 L 25.390625 24 L 19.9375 24 L 18.339844 28 L 15.46875 28 L 21.332031 13.332031 Z M 22.667969 17.179688 L 21.003906 21.332031 L 24.328125 21.332031 Z M 10.667969 2.667969 L 10.667969 5.332031 L 16 5.332031 L 16 14.667969 L 10.667969 14.667969 L 10.667969 18.667969 L 8 18.667969 L 8 14.667969 L 2.667969 14.667969 L 2.667969 5.332031 L 8 5.332031 L 8 2.667969 Z M 22.667969 4 C 25.613281 4 28 6.386719 28 9.332031 L 28 12 L 25.332031 12 L 25.332031 9.332031 C 25.332031 7.859375 24.140625 6.667969 22.667969 6.667969 L 18.667969 6.667969 L 18.667969 4 Z M 8 8 L 5.332031 8 L 5.332031 12 L 8 12 Z M 13.332031 8 L 10.667969 8 L 10.667969 12 L 13.332031 12 Z M 13.332031 8 "/>
</g>
</svg>
