<?xml version="1.0" encoding="UTF-8"?>
<svg xmlns="http://www.w3.org/2000/svg" xmlns:xlink="http://www.w3.org/1999/xlink" width="32" height="32" viewBox="0 0 32 32" version="1.1">
<g id="surface1">
<path style=" stroke:none;fill-rule:nonzero;fill:rgb(0%,0%,0%);fill-opacity:1;" d="M 7 4 L 25 4 C 26.65625 4 28 5.34375 28 7 L 28 25 C 28 26.65625 26.65625 28 25 28 L 7 28 C 5.34375 28 4 26.65625 4 25 L 4 7 C 4 5.34375 5.34375 4 7 4 Z M 17.558594 8.558594 L 17.558594 16.238281 C 17.558594 17.035156 18.207031 17.679688 19 17.679688 L 23.441406 17.679688 C 24.234375 17.679688 24.878906 17.035156 24.878906 16.238281 L 24.878906 8.558594 C 24.878906 7.765625 24.234375 7.121094 23.441406 7.121094 L 19 7.121094 C 18.203125 7.121094 17.558594 7.765625 17.558594 8.558594 Z M 7.121094 8.558594 L 7.121094 22.238281 C 7.121094 23.035156 7.765625 23.679688 8.558594 23.679688 L 13 23.679688 C 13.796875 23.679688 14.441406 23.035156 14.441406 22.238281 L 14.441406 8.558594 C 14.441406 7.765625 13.796875 7.121094 13 7.121094 L 8.558594 7.121094 C 7.765625 7.121094 7.121094 7.765625 7.121094 8.558594 Z M 7.121094 8.558594 "/>
</g>
</svg>
