<?xml version="1.0" encoding="UTF-8"?>
<svg xmlns="http://www.w3.org/2000/svg" xmlns:xlink="http://www.w3.org/1999/xlink" width="32" height="32" viewBox="0 0 32 32" version="1.1">
<g id="surface1">
<path style=" stroke:none;fill-rule:nonzero;fill:rgb(0%,0%,0%);fill-opacity:1;" d="M 5.332031 16 L 26.667969 16 C 27.402344 16 28 16.597656 28 17.332031 L 28 28 C 28 28.738281 27.402344 29.332031 26.667969 29.332031 L 5.332031 29.332031 C 4.597656 29.332031 4 28.738281 4 28 L 4 17.332031 C 4 16.597656 4.597656 16 5.332031 16 Z M 6.667969 2.667969 L 25.332031 2.667969 L 25.332031 13.332031 L 6.667969 13.332031 Z M 12 6.667969 L 12 9.332031 L 14.667969 9.332031 L 14.667969 6.667969 Z M 17.332031 6.667969 L 17.332031 9.332031 L 20 9.332031 L 20 6.667969 Z M 17.332031 6.667969 "/>
</g>
</svg>
