<?xml version="1.0" encoding="UTF-8"?>
<svg xmlns="http://www.w3.org/2000/svg" xmlns:xlink="http://www.w3.org/1999/xlink" width="32" height="32" viewBox="0 0 32 32" version="1.1">
<g id="surface1">
<path style=" stroke:none;fill-rule:nonzero;fill:rgb(0%,0%,0%);fill-opacity:1;" d="M 11.554688 25.699219 L 12.898438 23.375 C 15.203125 24.347656 17.832031 24.179688 20 22.929688 C 22.167969 21.679688 23.628906 19.484375 23.941406 17 L 26.621094 17 C 26.480469 18.527344 26.007812 20.003906 25.238281 21.332031 C 24.714844 22.238281 24.0625 23.0625 23.300781 23.78125 C 22.417969 23.511719 21.464844 23.621094 20.667969 24.082031 C 19.867188 24.542969 19.296875 25.3125 19.089844 26.210938 C 16.597656 26.964844 13.917969 26.785156 11.554688 25.699219 Z M 9.824219 24.699219 C 7.703125 23.191406 6.203125 20.964844 5.613281 18.429688 C 6.261719 17.824219 6.667969 16.960938 6.667969 16 C 6.667969 15.039062 6.261719 14.175781 5.613281 13.566406 C 5.851562 12.546875 6.238281 11.570312 6.761719 10.667969 C 7.527344 9.335938 8.570312 8.1875 9.824219 7.300781 L 11.164062 9.625 C 9.167969 11.136719 7.996094 13.496094 7.996094 16 C 7.996094 18.503906 9.167969 20.863281 11.164062 22.375 Z M 11.554688 6.300781 C 13.917969 5.21875 16.597656 5.035156 19.085938 5.785156 C 19.289062 6.652344 19.835938 7.4375 20.667969 7.917969 C 21.496094 8.398438 22.449219 8.476562 23.300781 8.21875 C 25.195312 10 26.378906 12.410156 26.621094 15 L 23.9375 15 C 23.625 12.515625 22.167969 10.320312 20 9.070312 C 17.832031 7.816406 15.203125 7.652344 12.898438 8.625 Z M 21.332031 6.761719 C 20.710938 6.40625 20.324219 5.746094 20.320312 5.027344 C 20.320312 4.3125 20.703125 3.648438 21.324219 3.289062 C 21.949219 2.933594 22.714844 2.9375 23.332031 3.296875 C 24.28125 3.855469 24.605469 5.070312 24.054688 6.023438 C 23.503906 6.976562 22.289062 7.304688 21.332031 6.761719 Z M 5.332031 16 C 5.332031 17.105469 4.4375 18 3.332031 18 C 2.230469 18 1.332031 17.105469 1.332031 16 C 1.332031 14.894531 2.230469 14 3.332031 14 C 4.4375 14 5.332031 14.894531 5.332031 16 Z M 21.332031 25.238281 C 21.953125 24.875 22.71875 24.871094 23.339844 25.226562 C 23.964844 25.585938 24.347656 26.25 24.34375 26.96875 C 24.34375 27.683594 23.957031 28.347656 23.332031 28.703125 C 22.378906 29.246094 21.164062 28.914062 20.613281 27.960938 C 20.0625 27.011719 20.386719 25.792969 21.332031 25.238281 Z M 21.332031 25.238281 "/>
</g>
</svg>
