<?xml version="1.0" encoding="UTF-8"?>
<svg xmlns="http://www.w3.org/2000/svg" xmlns:xlink="http://www.w3.org/1999/xlink" width="32" height="32" viewBox="0 0 32 32" version="1.1">
<g id="surface1">
<path style=" stroke:none;fill-rule:nonzero;fill:rgb(0%,0%,0%);fill-opacity:1;" d="M 1.332031 29.332031 C 1.332031 23.441406 6.109375 18.667969 12 18.667969 C 17.890625 18.667969 22.667969 23.441406 22.667969 29.332031 L 20 29.332031 C 20 24.914062 16.417969 21.332031 12 21.332031 C 7.582031 21.332031 4 24.914062 4 29.332031 Z M 12 17.332031 C 7.578125 17.332031 4 13.753906 4 9.332031 C 4 4.914062 7.578125 1.332031 12 1.332031 C 16.421875 1.332031 20 4.914062 20 9.332031 C 20 13.753906 16.421875 17.332031 12 17.332031 Z M 12 14.667969 C 14.945312 14.667969 17.332031 12.28125 17.332031 9.332031 C 17.332031 6.386719 14.945312 4 12 4 C 9.054688 4 6.667969 6.386719 6.667969 9.332031 C 6.667969 12.28125 9.054688 14.667969 12 14.667969 Z M 28.730469 1.046875 C 30.007812 3.621094 30.671875 6.457031 30.667969 9.332031 C 30.667969 12.3125 29.96875 15.125 28.730469 17.621094 L 26.539062 16.027344 C 27.503906 13.929688 28.003906 11.644531 28 9.332031 C 28 6.945312 27.476562 4.675781 26.539062 2.640625 Z M 24.328125 4.246094 C 24.992188 5.859375 25.335938 7.585938 25.332031 9.332031 C 25.335938 11.078125 24.992188 12.808594 24.328125 14.421875 L 22.09375 12.792969 C 22.472656 11.679688 22.667969 10.511719 22.667969 9.332031 C 22.667969 8.15625 22.472656 6.984375 22.09375 5.871094 Z M 24.328125 4.246094 "/>
</g>
</svg>
