<?xml version="1.0" encoding="UTF-8"?>
<svg xmlns="http://www.w3.org/2000/svg" xmlns:xlink="http://www.w3.org/1999/xlink" width="32" height="32" viewBox="0 0 32 32" version="1.1">
<g id="surface1">
<path style=" stroke:none;fill-rule:nonzero;fill:rgb(0%,0%,0%);fill-opacity:1;" d="M 5.332031 29.332031 C 5.332031 23.441406 10.109375 18.667969 16 18.667969 C 21.890625 18.667969 26.667969 23.441406 26.667969 29.332031 L 24 29.332031 C 24 24.914062 20.417969 21.332031 16 21.332031 C 11.582031 21.332031 8 24.914062 8 29.332031 Z M 16 17.332031 C 11.578125 17.332031 8 13.753906 8 9.332031 C 8 4.914062 11.578125 1.332031 16 1.332031 C 20.421875 1.332031 24 4.914062 24 9.332031 C 24 13.753906 20.421875 17.332031 16 17.332031 Z M 16 14.667969 C 18.945312 14.667969 21.332031 12.28125 21.332031 9.332031 C 21.332031 6.386719 18.945312 4 16 4 C 13.054688 4 10.667969 6.386719 10.667969 9.332031 C 10.667969 12.28125 13.054688 14.667969 16 14.667969 Z M 16 14.667969 "/>
</g>
</svg>
