<?xml version="1.0" encoding="UTF-8"?>
<svg xmlns="http://www.w3.org/2000/svg" xmlns:xlink="http://www.w3.org/1999/xlink" width="32" height="32" viewBox="0 0 32 32" version="1.1">
<g id="surface1">
<path style=" stroke:none;fill-rule:nonzero;fill:rgb(0%,0%,0%);fill-opacity:1;" d="M 16.214844 0 C 15.503906 -0.0117188 14.792969 0.09375 14.117188 0.3125 L 14.117188 3.128906 L 12.25 1.261719 C 11.355469 1.914062 10.636719 2.78125 10.167969 3.78125 C 9.109375 4.960938 8.421875 6.429688 8.199219 8 L 7.117188 8 C 6.5625 8 6.117188 8.40625 6.117188 8.910156 L 6.117188 9.089844 C 6.117188 9.59375 6.5625 10 7.117188 10 L 25.117188 10 C 25.671875 10 26.117188 9.59375 26.117188 9.089844 L 26.117188 8.910156 C 26.117188 8.40625 25.671875 8 25.117188 8 L 24.039062 8 C 23.8125 6.429688 23.128906 4.960938 22.066406 3.78125 C 21.59375 2.78125 20.878906 1.914062 19.984375 1.261719 L 18.117188 3.128906 L 18.117188 0.3125 C 17.5 0.117188 16.859375 0.0117188 16.214844 0 Z M 8.007812 12 C 8.007812 12.003906 8.007812 12.003906 8.007812 12.007812 C 8.007812 16.425781 11.589844 20.007812 16.007812 20.007812 C 20.425781 20.007812 24.007812 16.425781 24.007812 12.007812 C 24.007812 12.003906 24.007812 12.003906 24.007812 12 Z M 7.992188 20.941406 C 6.234375 20.945312 4.765625 21.632812 3.679688 22.609375 C 2.589844 23.589844 1.835938 24.828125 1.304688 26.035156 C 0.242188 28.453125 0.00390625 30.835938 0.00390625 30.835938 L -0.113281 32 L 32.113281 32 L 31.996094 30.835938 C 31.996094 30.835938 31.761719 28.453125 30.699219 26.035156 C 30.167969 24.828125 29.425781 23.589844 28.335938 22.609375 C 27.246094 21.628906 25.777344 20.941406 24.011719 20.941406 C 21.8125 22.914062 18.960938 24.007812 16.003906 24.007812 C 13.046875 24.007812 10.195312 22.917969 7.992188 20.941406 Z M 7.992188 20.941406 "/>
</g>
</svg>
