<?xml version="1.0" encoding="UTF-8"?>
<svg xmlns="http://www.w3.org/2000/svg" xmlns:xlink="http://www.w3.org/1999/xlink" width="32" height="32" viewBox="0 0 32 32" version="1.1">
<g id="surface1">
<path style=" stroke:none;fill-rule:evenodd;fill:rgb(0%,0%,0%);fill-opacity:1;" d="M 2.5 0 C 2.5 0.324219 2.605469 0.636719 2.796875 0.894531 L 26.128906 32 L 29.496094 32 C 29.496094 31.675781 29.390625 31.359375 29.195312 31.101562 L 20.003906 18.839844 L 10.378906 6 L 5.882812 0 Z M 14.117188 6 L 20.003906 13.847656 L 20.003906 10 C 20.003906 7.785156 18.21875 6 16.003906 6 Z M 2.996094 6.144531 C 1.273438 6.589844 0.00390625 8.132812 0.00390625 10 L 0.00390625 22 C 0.00390625 24.214844 1.789062 26 4.003906 26 L 16.003906 26 C 16.585938 26 17.132812 25.875 17.628906 25.652344 Z M 30.964844 6.996094 C 30.820312 7 30.679688 7.035156 30.550781 7.101562 L 22.5625 11.101562 C 22.21875 11.269531 22 11.621094 22 12.003906 L 22 16.507812 L 26.929688 23.078125 L 30.550781 24.890625 C 30.859375 25.042969 31.222656 25.027344 31.515625 24.847656 C 31.8125 24.667969 31.992188 24.351562 31.996094 24.007812 L 31.996094 8.003906 C 32 7.730469 31.890625 7.46875 31.695312 7.28125 C 31.5 7.089844 31.238281 6.988281 30.964844 6.996094 Z M 30.964844 6.996094 "/>
</g>
</svg>
