<?xml version="1.0" encoding="UTF-8"?>
<svg xmlns="http://www.w3.org/2000/svg" xmlns:xlink="http://www.w3.org/1999/xlink" width="32" height="32" viewBox="0 0 32 32" version="1.1">
<g id="surface1">
<path style=" stroke:none;fill-rule:nonzero;fill:rgb(0%,0%,0%);fill-opacity:1;" d="M 4.65625 10.753906 L 6.371094 25.332031 L 25.628906 25.332031 L 27.34375 10.753906 L 21.996094 14.316406 L 16 5.921875 L 10.003906 14.316406 Z M 3.734375 6.933594 L 9.332031 10.667969 L 14.914062 2.851562 C 15.164062 2.503906 15.570312 2.292969 16 2.292969 C 16.429688 2.292969 16.835938 2.503906 17.085938 2.851562 L 22.667969 10.667969 L 28.265625 6.933594 C 28.699219 6.644531 29.261719 6.636719 29.703125 6.90625 C 30.144531 7.179688 30.390625 7.683594 30.328125 8.199219 L 28.136719 26.824219 C 28.058594 27.492188 27.492188 28 26.816406 28 L 5.183594 28 C 4.507812 28 3.941406 27.492188 3.863281 26.824219 L 1.671875 8.199219 C 1.609375 7.683594 1.855469 7.179688 2.296875 6.90625 C 2.742188 6.636719 3.300781 6.644531 3.734375 6.933594 Z M 16 20 C 14.527344 20 13.332031 18.804688 13.332031 17.332031 C 13.332031 15.859375 14.527344 14.667969 16 14.667969 C 17.472656 14.667969 18.667969 15.859375 18.667969 17.332031 C 18.667969 18.804688 17.472656 20 16 20 Z M 16 20 "/>
</g>
</svg>
