<?xml version="1.0" encoding="UTF-8"?>
<svg xmlns="http://www.w3.org/2000/svg" xmlns:xlink="http://www.w3.org/1999/xlink" width="32" height="32" viewBox="0 0 32 32" version="1.1">
<g id="surface1">
<path style=" stroke:none;fill-rule:nonzero;fill:rgb(0%,0%,0%);fill-opacity:1;" d="M 6.496094 4 L 25.503906 4 C 25.929688 4 26.332031 4.203125 26.582031 4.550781 L 31.679688 11.558594 C 31.867188 11.816406 31.84375 12.167969 31.628906 12.402344 L 16.488281 28.800781 C 16.238281 29.074219 15.816406 29.089844 15.546875 28.839844 C 15.539062 28.832031 10.480469 23.351562 0.371094 12.402344 C 0.15625 12.167969 0.132812 11.816406 0.320312 11.558594 L 5.417969 4.550781 C 5.667969 4.203125 6.070312 4 6.496094 4 Z M 7.175781 6.667969 L 3.445312 11.800781 L 16 25.398438 L 28.554688 11.800781 L 24.824219 6.667969 Z M 7.175781 6.667969 "/>
</g>
</svg>
