<?xml version="1.0" encoding="UTF-8"?>
<svg xmlns="http://www.w3.org/2000/svg" xmlns:xlink="http://www.w3.org/1999/xlink" width="32" height="32" viewBox="0 0 32 32" version="1.1">
<g id="surface1">
<path style=" stroke:none;fill-rule:nonzero;fill:rgb(0%,0%,0%);fill-opacity:1;" d="M 6.667969 20 L 6.667969 25.332031 L 12 25.332031 L 12 28 L 4 28 L 4 20 Z M 28 20 L 28 28 L 20 28 L 20 25.332031 L 25.332031 25.332031 L 25.332031 20 Z M 17.332031 8 L 17.332031 24 L 14.667969 24 L 14.667969 8 Z M 12 12 L 12 20 L 9.332031 20 L 9.332031 12 Z M 22.667969 12 L 22.667969 20 L 20 20 L 20 12 Z M 12 4 L 12 6.667969 L 6.667969 6.667969 L 6.667969 12 L 4 12 L 4 4 Z M 28 4 L 28 12 L 25.332031 12 L 25.332031 6.667969 L 20 6.667969 L 20 4 Z M 28 4 "/>
</g>
</svg>
