<?xml version="1.0" encoding="UTF-8"?>
<svg xmlns="http://www.w3.org/2000/svg" xmlns:xlink="http://www.w3.org/1999/xlink" width="32" height="32" viewBox="0 0 32 32" version="1.1">
<g id="surface1">
<path style=" stroke:none;fill-rule:nonzero;fill:rgb(0%,0%,0%);fill-opacity:1;" d="M 17.332031 9.625 L 12.804688 13.332031 L 8 13.332031 L 8 18.667969 L 12.804688 18.667969 L 17.332031 22.375 Z M 11.851562 21.332031 L 6.667969 21.332031 C 5.929688 21.332031 5.332031 20.738281 5.332031 20 L 5.332031 12 C 5.332031 11.261719 5.929688 10.667969 6.667969 10.667969 L 11.851562 10.667969 L 18.910156 4.890625 C 19.109375 4.726562 19.386719 4.695312 19.617188 4.804688 C 19.851562 4.914062 20 5.148438 20 5.40625 L 20 26.59375 C 20 26.851562 19.851562 27.085938 19.617188 27.195312 C 19.386719 27.304688 19.109375 27.273438 18.910156 27.109375 Z M 25.152344 22.121094 L 23.253906 20.226562 C 24.566406 19.214844 25.335938 17.65625 25.332031 16 C 25.332031 14.09375 24.332031 12.421875 22.828125 11.476562 L 24.746094 9.558594 C 26.792969 11.066406 28.003906 13.457031 28 16 C 28 18.457031 26.894531 20.652344 25.152344 22.121094 Z M 25.152344 22.121094 "/>
</g>
</svg>
