<?xml version="1.0" encoding="UTF-8"?>
<svg xmlns="http://www.w3.org/2000/svg" xmlns:xlink="http://www.w3.org/1999/xlink" width="32" height="32" viewBox="0 0 32 32" version="1.1">
<g id="surface1">
<path style=" stroke:none;fill-rule:nonzero;fill:rgb(0%,0%,0%);fill-opacity:1;" d="M 14.667969 28 L 14.667969 26.574219 C 10.074219 25.910156 6.667969 21.972656 6.667969 17.332031 L 6.667969 10.667969 C 6.667969 5.511719 10.84375 1.332031 16 1.332031 C 21.15625 1.332031 25.332031 5.511719 25.332031 10.667969 L 25.332031 17.332031 C 25.332031 21.972656 21.925781 25.910156 17.332031 26.574219 L 17.332031 28 L 22.667969 28 L 22.667969 30.667969 L 9.332031 30.667969 L 9.332031 28 Z M 16 4 C 12.316406 4 9.332031 6.984375 9.332031 10.667969 L 9.332031 17.332031 C 9.332031 21.015625 12.316406 24 16 24 C 19.683594 24 22.667969 21.015625 22.667969 17.332031 L 22.667969 10.667969 C 22.667969 6.984375 19.683594 4 16 4 Z M 16 12 C 16.738281 12 17.332031 11.402344 17.332031 10.667969 C 17.332031 9.929688 16.738281 9.332031 16 9.332031 C 15.261719 9.332031 14.667969 9.929688 14.667969 10.667969 C 14.667969 11.402344 15.261719 12 16 12 Z M 16 14.667969 C 13.789062 14.667969 12 12.875 12 10.667969 C 12 8.457031 13.789062 6.667969 16 6.667969 C 18.210938 6.667969 20 8.457031 20 10.667969 C 20 12.875 18.210938 14.667969 16 14.667969 Z M 16 14.667969 "/>
</g>
</svg>
