<?xml version="1.0" encoding="UTF-8"?>
<svg xmlns="http://www.w3.org/2000/svg" xmlns:xlink="http://www.w3.org/1999/xlink" width="32" height="32" viewBox="0 0 32 32" version="1.1">
<g id="surface1">
<path style=" stroke:none;fill-rule:nonzero;fill:rgb(0%,0%,0%);fill-opacity:1;" d="M 2.671875 29.332031 L 4.476562 22.710938 C 3.285156 20.671875 2.664062 18.355469 2.667969 16 C 2.667969 8.636719 8.636719 2.667969 16 2.667969 C 23.363281 2.667969 29.332031 8.636719 29.332031 16 C 29.332031 23.363281 23.363281 29.332031 16 29.332031 C 13.644531 29.335938 11.328125 28.714844 9.292969 27.527344 Z M 11.1875 9.742188 C 11.015625 9.753906 10.847656 9.800781 10.691406 9.878906 C 10.546875 9.960938 10.417969 10.0625 10.300781 10.179688 C 10.140625 10.332031 10.050781 10.460938 9.953125 10.589844 C 9.460938 11.230469 9.195312 12.019531 9.199219 12.828125 C 9.203125 13.480469 9.375 14.117188 9.640625 14.710938 C 10.183594 15.914062 11.082031 17.1875 12.269531 18.367188 C 12.554688 18.652344 12.832031 18.9375 13.132812 19.203125 C 14.601562 20.496094 16.355469 21.429688 18.253906 21.929688 L 19.011719 22.046875 C 19.257812 22.058594 19.503906 22.039062 19.753906 22.027344 C 20.140625 22.007812 20.519531 21.902344 20.863281 21.71875 C 21.085938 21.601562 21.1875 21.542969 21.375 21.425781 C 21.375 21.425781 21.429688 21.390625 21.539062 21.308594 C 21.71875 21.171875 21.832031 21.078125 21.980469 20.921875 C 22.089844 20.808594 22.1875 20.671875 22.261719 20.519531 C 22.363281 20.300781 22.46875 19.886719 22.511719 19.542969 C 22.542969 19.277344 22.535156 19.132812 22.53125 19.046875 C 22.523438 18.902344 22.40625 18.753906 22.277344 18.691406 L 21.5 18.34375 C 21.5 18.34375 20.339844 17.839844 19.632812 17.515625 C 19.558594 17.484375 19.476562 17.464844 19.394531 17.460938 C 19.210938 17.441406 19.027344 17.503906 18.890625 17.628906 C 18.886719 17.628906 18.796875 17.703125 17.832031 18.871094 C 17.71875 19.023438 17.523438 19.09375 17.339844 19.046875 C 17.253906 19.023438 17.167969 18.992188 17.085938 18.957031 C 16.921875 18.886719 16.863281 18.863281 16.75 18.8125 L 16.742188 18.808594 C 15.980469 18.476562 15.273438 18.027344 14.652344 17.476562 C 14.484375 17.328125 14.328125 17.167969 14.167969 17.015625 C 13.640625 16.511719 13.183594 15.945312 12.808594 15.324219 L 12.726562 15.199219 C 12.671875 15.113281 12.625 15.019531 12.59375 14.925781 C 12.542969 14.726562 12.671875 14.570312 12.671875 14.570312 C 12.671875 14.570312 12.996094 14.214844 13.148438 14.023438 C 13.273438 13.863281 13.390625 13.699219 13.5 13.527344 C 13.65625 13.273438 13.707031 13.011719 13.621094 12.8125 C 13.25 11.898438 12.863281 10.992188 12.464844 10.089844 C 12.386719 9.910156 12.152344 9.785156 11.941406 9.757812 C 11.871094 9.75 11.796875 9.742188 11.726562 9.738281 C 11.546875 9.726562 11.367188 9.730469 11.1875 9.742188 Z M 11.1875 9.742188 "/>
</g>
</svg>
