<?xml version="1.0" encoding="UTF-8"?>
<svg xmlns="http://www.w3.org/2000/svg" xmlns:xlink="http://www.w3.org/1999/xlink" width="32" height="32" viewBox="0 0 32 32" version="1.1">
<g id="surface1">
<path style=" stroke:none;fill-rule:nonzero;fill:rgb(0%,0%,0%);fill-opacity:1;" d="M 5.238281 6.570312 L 7.125 8.457031 C 5.191406 10.386719 4 13.054688 4 16 C 4 18.945312 5.191406 21.613281 7.125 23.542969 L 5.238281 25.425781 C 2.824219 23.015625 1.332031 19.679688 1.332031 16 C 1.332031 12.320312 2.828125 8.984375 5.238281 6.570312 Z M 26.761719 6.570312 C 29.175781 8.984375 30.667969 12.320312 30.667969 16 C 30.667969 19.679688 29.171875 23.015625 26.761719 25.429688 L 24.875 23.542969 C 26.808594 21.613281 28 18.945312 28 16 C 28 13.054688 26.808594 10.390625 24.878906 8.457031 L 26.761719 6.574219 Z M 17.332031 6.667969 L 17.332031 14.667969 L 21.332031 14.667969 L 14.667969 25.332031 L 14.667969 17.332031 L 10.667969 17.332031 Z M 9.007812 10.34375 L 10.894531 12.230469 C 9.929688 13.191406 9.332031 14.527344 9.332031 16 C 9.332031 17.472656 9.929688 18.808594 10.894531 19.769531 L 9.007812 21.65625 C 7.5625 20.210938 6.667969 18.210938 6.667969 16 C 6.667969 13.789062 7.5625 11.789062 9.007812 10.34375 Z M 22.992188 10.34375 C 24.4375 11.792969 25.332031 13.792969 25.332031 16 C 25.332031 18.210938 24.4375 20.210938 22.992188 21.65625 L 21.105469 19.769531 C 22.070312 18.808594 22.667969 17.472656 22.667969 16 C 22.667969 14.527344 22.070312 13.195312 21.105469 12.230469 Z M 22.992188 10.34375 "/>
</g>
</svg>
