<?xml version="1.0" encoding="UTF-8"?>
<svg xmlns="http://www.w3.org/2000/svg" xmlns:xlink="http://www.w3.org/1999/xlink" width="32" height="32" viewBox="0 0 32 32" version="1.1">
<g id="surface1">
<path style=" stroke:none;fill-rule:evenodd;fill:rgb(0%,0%,0%);fill-opacity:1;" d="M 16 0.00390625 C 7.1875 0.00390625 -0.00390625 7.195312 -0.00390625 16.007812 C -0.00390625 24.820312 7.1875 31.996094 16 31.996094 C 24.8125 31.996094 32.003906 24.820312 32.003906 16.007812 C 32.003906 7.195312 24.8125 0.00390625 16 0.00390625 Z M 19.984375 4.691406 C 21.421875 5.195312 22.734375 5.957031 23.859375 6.933594 C 23.707031 7.296875 23.578125 7.675781 23.472656 8.078125 C 23.101562 9.472656 22.9375 10.996094 23.015625 12.082031 C 23.171875 14.273438 24.5625 15.695312 25.199219 16.582031 C 25.757812 17.359375 26.539062 17.605469 26.835938 17.75 C 26.984375 17.816406 26.996094 17.855469 26.984375 17.839844 C 26.972656 17.824219 27 17.800781 27 18 C 27 17.953125 27.003906 18.078125 26.765625 18.3125 C 26.527344 18.546875 26.125 18.839844 25.671875 19.152344 C 24.765625 19.777344 23.597656 20.355469 23.074219 21.617188 C 22.710938 22.492188 22.335938 23.878906 22.214844 25.25 C 22.183594 25.601562 22.167969 25.949219 22.183594 26.289062 C 20.378906 27.375 18.265625 28.011719 15.996094 28.011719 C 14.730469 28.011719 13.515625 27.816406 12.371094 27.457031 C 12.746094 27.054688 13.109375 26.664062 13.503906 26.195312 C 14.664062 24.8125 15.980469 23.25 16.585938 22.8125 C 17.265625 22.324219 17.929688 22.207031 18.699219 22.03125 C 19.085938 21.941406 19.507812 21.84375 19.9375 21.589844 C 20.367188 21.335938 20.757812 20.875 20.941406 20.320312 C 21.308594 19.226562 20.933594 18.15625 20.425781 17.335938 C 19.917969 16.515625 19.253906 15.839844 18.714844 15.300781 C 17.925781 14.511719 16.910156 14.253906 16.113281 14 C 15.316406 13.746094 14.800781 13.414062 14.84375 13.484375 C 14.722656 13.285156 14.660156 13.164062 14.625 13.097656 C 14.628906 13.175781 14.679688 12.972656 14.917969 12.390625 C 14.949219 12.324219 15.632812 11.675781 16.5 11.03125 C 17.367188 10.386719 18.410156 9.632812 18.921875 8.390625 C 19.296875 7.492188 19.804688 6.292969 19.96875 5.007812 C 19.984375 4.90625 19.972656 4.796875 19.984375 4.691406 Z M 5.609375 10 C 5.71875 10.167969 5.835938 10.332031 5.960938 10.484375 C 6.53125 11.179688 7.246094 11.777344 7.953125 12.390625 C 9.363281 13.617188 10.691406 14.863281 11.027344 16.242188 C 11.363281 17.617188 10.960938 20.625 10.359375 23.125 C 10.082031 24.289062 9.789062 25.316406 9.546875 26.125 C 6.210938 24 3.996094 20.277344 3.996094 16.007812 C 3.996094 13.8125 4.589844 11.765625 5.609375 10 Z M 5.609375 10 "/>
</g>
</svg>
