<?xml version="1.0" encoding="UTF-8"?>
<svg xmlns="http://www.w3.org/2000/svg" xmlns:xlink="http://www.w3.org/1999/xlink" width="32" height="32" viewBox="0 0 32 32" version="1.1">
<g id="surface1">
<path style=" stroke:none;fill-rule:nonzero;fill:rgb(0%,0%,0%);fill-opacity:1;" d="M 24.453125 0.00390625 C 21.214844 0.00390625 18.191406 -0.0703125 15.917969 1.878906 C 13.761719 3.726562 12.863281 7.4375 12.757812 13.394531 L 2.101562 24.054688 C 0.894531 25.261719 0.222656 26.542969 0.046875 27.773438 C -0.128906 29.003906 0.230469 30.183594 1.023438 30.976562 C 1.816406 31.769531 3.011719 32.128906 4.242188 31.953125 C 5.472656 31.777344 6.738281 31.105469 7.945312 29.898438 L 18.605469 19.238281 C 24.5625 19.132812 28.273438 18.238281 30.121094 16.082031 C 32.070312 13.808594 31.996094 10.785156 31.996094 7.546875 C 31.988281 7.117188 31.726562 6.734375 31.328125 6.570312 C 30.933594 6.410156 30.476562 6.496094 30.167969 6.792969 L 24.023438 12.921875 L 19.078125 12.921875 L 19.078125 7.976562 L 25.21875 1.847656 C 25.527344 1.539062 25.621094 1.074219 25.453125 0.667969 C 25.285156 0.265625 24.890625 0.00390625 24.453125 0.00390625 Z M 4.003906 26 C 5.109375 26 6.003906 26.894531 6.003906 28 C 6.003906 29.105469 5.109375 30 4.003906 30 C 2.898438 30 2.003906 29.105469 2.003906 28 C 2.003906 26.894531 2.898438 26 4.003906 26 Z M 4.003906 26 "/>
</g>
</svg>
