<?xml version="1.0" encoding="UTF-8"?>
<svg xmlns="http://www.w3.org/2000/svg" xmlns:xlink="http://www.w3.org/1999/xlink" width="16" height="16" viewBox="0 0 16 16" version="1.1">
<g id="surface1">
<path style=" stroke:none;fill-rule:evenodd;fill:rgb(100%,100%,100%);fill-opacity:1;" d="M 2 0 C 0.890625 0 0 0.890625 0 2 L 0 5 C 0 6.109375 0.890625 7 2 7 L 14 7 C 15.109375 7 16 6.109375 16 5 L 16 2 C 16 0.890625 15.109375 0 14 0 Z M 2 5 L 14 5 L 14 6 L 2 6 Z M 7.0625 7.996094 C 7.019531 8.070312 7 8.160156 7 8.25 L 7 9.617188 C 7 9.910156 6.925781 10.085938 6.867188 10.164062 C 6.804688 10.246094 6.773438 10.25 6.75 10.25 C 6.726562 10.25 6.695312 10.246094 6.632812 10.164062 C 6.570312 10.085938 6.5 9.910156 6.5 9.617188 C 6.5 9.484375 6.445312 9.359375 6.351562 9.265625 C 6.257812 9.171875 6.128906 9.121094 5.996094 9.121094 C 5.71875 9.125 5.5 9.34375 5.5 9.617188 C 5.5 10.078125 5.613281 10.46875 5.835938 10.765625 C 6.054688 11.058594 6.398438 11.25 6.75 11.25 C 7.101562 11.25 7.445312 11.058594 7.664062 10.765625 C 7.886719 10.46875 8 10.078125 8 9.617188 L 8 8.25 C 8 8.160156 7.976562 8.070312 7.929688 7.996094 Z M 8.515625 7.996094 C 8.507812 8.039062 8.5 8.078125 8.5 8.121094 L 8.5 13.621094 C 8.5 14.328125 8.675781 14.90625 8.992188 15.328125 C 9.304688 15.75 9.769531 16 10.25 16 C 10.726562 16 11.191406 15.75 11.507812 15.328125 C 11.820312 14.90625 12 14.328125 12 13.621094 C 12 13.34375 11.773438 13.125 11.5 13.125 C 11.226562 13.125 11 13.34375 11 13.621094 C 11 14.164062 10.859375 14.523438 10.703125 14.726562 C 10.550781 14.933594 10.394531 15 10.25 15 C 10.101562 15 9.941406 14.933594 9.789062 14.726562 C 9.632812 14.523438 9.5 14.164062 9.5 13.621094 L 9.5 8.121094 C 9.5 8.078125 9.492188 8.039062 9.484375 7.996094 Z M 8 11.3125 C 7.730469 11.59375 7.390625 11.792969 7 11.855469 L 7 13.125 C 7 13.789062 6.828125 14.242188 6.628906 14.511719 C 6.429688 14.78125 6.203125 14.875 5.996094 14.875 C 5.789062 14.875 5.566406 14.78125 5.367188 14.511719 C 5.164062 14.242188 4.996094 13.789062 4.996094 13.125 C 4.996094 12.847656 4.773438 12.625 4.5 12.621094 C 4.222656 12.625 4 12.847656 4 13.125 C 4 13.957031 4.207031 14.625 4.570312 15.109375 C 4.929688 15.59375 5.453125 15.875 5.996094 15.875 C 6.539062 15.875 7.070312 15.59375 7.429688 15.109375 C 7.789062 14.625 8 13.957031 8 13.125 Z M 8 11.3125 "/>
</g>
</svg>
