<?xml version="1.0" encoding="UTF-8"?>
<svg xmlns="http://www.w3.org/2000/svg" xmlns:xlink="http://www.w3.org/1999/xlink" width="16" height="16" viewBox="0 0 16 16" version="1.1">
<g id="surface1">
<path style=" stroke:none;fill-rule:nonzero;fill:rgb(100%,100%,100%);fill-opacity:1;" d="M 14 2 C 14.367188 2 14.667969 2.296875 14.667969 2.667969 L 14.667969 13.332031 C 14.667969 13.703125 14.367188 14 14 14 L 2 14 C 1.632812 14 1.332031 13.703125 1.332031 13.332031 L 1.332031 2.667969 C 1.332031 2.296875 1.632812 2 2 2 Z M 6.265625 5.332031 L 4.933594 5.332031 L 2.800781 10.667969 L 4.234375 10.667969 L 4.503906 10 L 6.695312 10 L 6.960938 10.667969 L 8.398438 10.667969 Z M 12.667969 5.332031 L 11.332031 5.332031 L 11.332031 6.667969 L 10.667969 6.667969 C 9.585938 6.664062 8.699219 7.527344 8.664062 8.609375 C 8.632812 9.691406 9.46875 10.601562 10.550781 10.664062 L 10.667969 10.667969 L 12.667969 10.667969 Z M 11.332031 8 L 11.332031 9.332031 L 10.667969 9.332031 L 10.589844 9.328125 C 10.253906 9.289062 10 9.003906 10 8.667969 C 10 8.328125 10.253906 8.042969 10.589844 8.003906 L 10.667969 8 Z M 5.597656 7.257812 L 6.164062 8.667969 L 5.035156 8.667969 Z M 5.597656 7.257812 "/>
</g>
</svg>
