<?xml version="1.0" encoding="UTF-8"?>
<svg xmlns="http://www.w3.org/2000/svg" xmlns:xlink="http://www.w3.org/1999/xlink" width="16" height="16" viewBox="0 0 16 16" version="1.1">
<g id="surface1">
<path style=" stroke:none;fill-rule:nonzero;fill:rgb(100%,100%,100%);fill-opacity:1;" d="M 8 1.332031 C 11.679688 1.332031 14.667969 4.320312 14.667969 8 C 14.667969 11.679688 11.679688 14.667969 8 14.667969 C 4.320312 14.667969 1.332031 11.679688 1.332031 8 C 1.332031 4.320312 4.320312 1.332031 8 1.332031 Z M 8 10.667969 C 9.476562 10.667969 10.667969 9.476562 10.667969 8 C 10.667969 6.523438 9.476562 5.332031 8 5.332031 C 6.523438 5.332031 5.332031 6.523438 5.332031 8 C 5.332031 9.476562 6.523438 10.667969 8 10.667969 Z M 8 7.332031 C 8.367188 7.332031 8.667969 7.632812 8.667969 8 C 8.667969 8.367188 8.367188 8.667969 8 8.667969 C 7.632812 8.667969 7.332031 8.367188 7.332031 8 C 7.332031 7.632812 7.632812 7.332031 8 7.332031 Z M 8 7.332031 "/>
</g>
</svg>
