<?xml version="1.0" encoding="UTF-8"?>
<svg xmlns="http://www.w3.org/2000/svg" xmlns:xlink="http://www.w3.org/1999/xlink" width="16" height="16" viewBox="0 0 16 16" version="1.1">
<g id="surface1">
<path style=" stroke:none;fill-rule:nonzero;fill:rgb(100%,100%,100%);fill-opacity:1;" d="M 8.578125 2 L 14.929688 13 C 15.046875 13.207031 15.046875 13.460938 14.929688 13.667969 C 14.808594 13.871094 14.589844 14 14.351562 14 L 1.648438 14 C 1.410156 14 1.191406 13.871094 1.070312 13.667969 C 0.953125 13.460938 0.953125 13.207031 1.070312 13 L 7.421875 2 C 7.542969 1.792969 7.761719 1.667969 8 1.667969 C 8.238281 1.667969 8.457031 1.792969 8.578125 2 Z M 2.804688 12.667969 L 13.195312 12.667969 L 8 3.667969 Z M 7.332031 10.667969 L 8.667969 10.667969 L 8.667969 12 L 7.332031 12 Z M 7.332031 6 L 8.667969 6 L 8.667969 9.332031 L 7.332031 9.332031 Z M 7.332031 6 "/>
</g>
</svg>
