<?xml version="1.0" encoding="UTF-8"?>
<svg xmlns="http://www.w3.org/2000/svg" xmlns:xlink="http://www.w3.org/1999/xlink" width="16" height="16" viewBox="0 0 16 16" version="1.1">
<g id="surface1">
<path style=" stroke:none;fill-rule:nonzero;fill:rgb(100%,100%,100%);fill-opacity:1;" d="M 12.667969 8.667969 L 3.332031 8.667969 L 3.332031 13.332031 L 12.667969 13.332031 Z M 12.667969 7.332031 C 12.667969 4.757812 10.578125 2.667969 8 2.667969 C 5.421875 2.667969 3.332031 4.757812 3.332031 7.332031 Z M 4.253906 2.644531 C 5.316406 1.792969 6.636719 1.332031 8 1.332031 C 9.417969 1.332031 10.71875 1.824219 11.746094 2.644531 L 12.714844 1.675781 L 13.65625 2.621094 L 12.6875 3.589844 C 13.539062 4.652344 14.003906 5.972656 14 7.332031 L 14 14 C 14 14.367188 13.703125 14.667969 13.332031 14.667969 L 2.667969 14.667969 C 2.296875 14.667969 2 14.367188 2 14 L 2 7.332031 C 2 5.917969 2.492188 4.613281 3.3125 3.589844 L 2.34375 2.621094 L 3.285156 1.675781 Z M 6 6 C 5.632812 6 5.332031 5.703125 5.332031 5.332031 C 5.332031 4.964844 5.632812 4.667969 6 4.667969 C 6.367188 4.667969 6.667969 4.964844 6.667969 5.332031 C 6.667969 5.703125 6.367188 6 6 6 Z M 10 6 C 9.632812 6 9.332031 5.703125 9.332031 5.332031 C 9.332031 4.964844 9.632812 4.667969 10 4.667969 C 10.367188 4.667969 10.667969 4.964844 10.667969 5.332031 C 10.667969 5.703125 10.367188 6 10 6 Z M 10 6 "/>
</g>
</svg>
