<?xml version="1.0" encoding="UTF-8"?>
<svg xmlns="http://www.w3.org/2000/svg" xmlns:xlink="http://www.w3.org/1999/xlink" width="16" height="16" viewBox="0 0 16 16" version="1.1">
<g id="surface1">
<path style=" stroke:none;fill-rule:nonzero;fill:rgb(100%,100%,100%);fill-opacity:1;" d="M 9.332031 2.667969 L 10.667969 2.667969 C 12.507812 2.667969 14 4.160156 14 6 L 14 8.667969 L 12.667969 8.667969 L 12.667969 6 C 12.667969 4.894531 11.769531 4 10.667969 4 L 9.332031 4 L 9.332031 6 L 6 3.332031 L 9.332031 0.667969 Z M 10 7.332031 L 10 14 C 10 14.367188 9.703125 14.667969 9.332031 14.667969 L 2.667969 14.667969 C 2.296875 14.667969 2 14.367188 2 14 L 2 7.332031 C 2 6.964844 2.296875 6.667969 2.667969 6.667969 L 9.332031 6.667969 C 9.703125 6.667969 10 6.964844 10 7.332031 Z M 10 7.332031 "/>
</g>
</svg>
