<?xml version="1.0" encoding="UTF-8"?>
<svg xmlns="http://www.w3.org/2000/svg" xmlns:xlink="http://www.w3.org/1999/xlink" width="16" height="16" viewBox="0 0 16 16" version="1.1">
<g id="surface1">
<path style=" stroke:none;fill-rule:nonzero;fill:rgb(100%,100%,100%);fill-opacity:1;" d="M 7.75 4.816406 C 7.164062 4.816406 6.261719 4.152344 5.308594 4.175781 C 4.054688 4.191406 2.902344 4.902344 2.253906 6.03125 C 0.949219 8.292969 1.917969 11.636719 3.1875 13.480469 C 3.8125 14.375 4.550781 15.382812 5.523438 15.351562 C 6.460938 15.3125 6.8125 14.742188 7.949219 14.742188 C 9.078125 14.742188 9.398438 15.351562 10.390625 15.328125 C 11.398438 15.3125 12.039062 14.414062 12.652344 13.511719 C 13.367188 12.46875 13.660156 11.460938 13.675781 11.40625 C 13.652344 11.398438 11.71875 10.65625 11.691406 8.414062 C 11.675781 6.542969 13.222656 5.648438 13.292969 5.605469 C 12.414062 4.320312 11.0625 4.175781 10.589844 4.144531 C 9.355469 4.046875 8.324219 4.816406 7.75 4.816406 Z M 9.828125 2.925781 C 10.347656 2.300781 10.691406 1.429688 10.597656 0.566406 C 9.851562 0.597656 8.957031 1.0625 8.421875 1.6875 C 7.941406 2.238281 7.523438 3.125 7.636719 3.976562 C 8.460938 4.039062 9.308594 3.550781 9.828125 2.925781 Z M 9.828125 2.925781 "/>
</g>
</svg>
