<?xml version="1.0" encoding="UTF-8"?>
<svg xmlns="http://www.w3.org/2000/svg" xmlns:xlink="http://www.w3.org/1999/xlink" width="16" height="16" viewBox="0 0 16 16" version="1.1">
<g id="surface1">
<path style=" stroke:none;fill-rule:nonzero;fill:rgb(100%,100%,100%);fill-opacity:1;" d="M 4.332031 7.667969 C 2.675781 7.667969 1.332031 6.324219 1.332031 4.667969 C 1.332031 3.011719 2.675781 1.667969 4.332031 1.667969 C 5.988281 1.667969 7.332031 3.011719 7.332031 4.667969 C 7.332031 6.324219 5.988281 7.667969 4.332031 7.667969 Z M 4.667969 14.332031 C 3.011719 14.332031 1.667969 12.988281 1.667969 11.332031 C 1.667969 9.675781 3.011719 8.332031 4.667969 8.332031 C 6.324219 8.332031 7.667969 9.675781 7.667969 11.332031 C 7.667969 12.988281 6.324219 14.332031 4.667969 14.332031 Z M 11.332031 7.667969 C 9.675781 7.667969 8.332031 6.324219 8.332031 4.667969 C 8.332031 3.011719 9.675781 1.667969 11.332031 1.667969 C 12.988281 1.667969 14.332031 3.011719 14.332031 4.667969 C 14.332031 6.324219 12.988281 7.667969 11.332031 7.667969 Z M 11.332031 14.332031 C 9.675781 14.332031 8.332031 12.988281 8.332031 11.332031 C 8.332031 9.675781 9.675781 8.332031 11.332031 8.332031 C 12.988281 8.332031 14.332031 9.675781 14.332031 11.332031 C 14.332031 12.988281 12.988281 14.332031 11.332031 14.332031 Z M 4.332031 6.332031 C 5.253906 6.332031 6 5.585938 6 4.667969 C 6 3.746094 5.253906 3 4.332031 3 C 3.414062 3 2.667969 3.746094 2.667969 4.667969 C 2.667969 5.585938 3.414062 6.332031 4.332031 6.332031 Z M 4.667969 13 C 5.585938 13 6.332031 12.253906 6.332031 11.332031 C 6.332031 10.414062 5.585938 9.667969 4.667969 9.667969 C 3.746094 9.667969 3 10.414062 3 11.332031 C 3 12.253906 3.746094 13 4.667969 13 Z M 11.332031 6.332031 C 12.253906 6.332031 13 5.585938 13 4.667969 C 13 3.746094 12.253906 3 11.332031 3 C 10.414062 3 9.667969 3.746094 9.667969 4.667969 C 9.667969 5.585938 10.414062 6.332031 11.332031 6.332031 Z M 11.332031 13 C 12.253906 13 13 12.253906 13 11.332031 C 13 10.414062 12.253906 9.667969 11.332031 9.667969 C 10.414062 9.667969 9.667969 10.414062 9.667969 11.332031 C 9.667969 12.253906 10.414062 13 11.332031 13 Z M 11.332031 13 "/>
</g>
</svg>
