<?xml version="1.0" encoding="UTF-8"?>
<svg xmlns="http://www.w3.org/2000/svg" xmlns:xlink="http://www.w3.org/1999/xlink" width="16" height="16" viewBox="0 0 16 16" version="1.1">
<g id="surface1">
<path style=" stroke:none;fill-rule:nonzero;fill:rgb(100%,100%,100%);fill-opacity:1;" d="M 2 8.667969 L 14 8.667969 L 14 14 C 14 14.367188 13.703125 14.667969 13.339844 14.667969 L 2.660156 14.667969 C 2.484375 14.667969 2.316406 14.597656 2.191406 14.472656 C 2.070312 14.347656 2 14.175781 2 14 Z M 2 2 C 2 1.632812 2.296875 1.332031 2.660156 1.332031 L 13.339844 1.332031 C 13.703125 1.332031 14 1.628906 14 2 L 14 7.332031 L 2 7.332031 Z M 6 3.332031 L 6 4.667969 L 10 4.667969 L 10 3.332031 Z M 6 10.667969 L 6 12 L 10 12 L 10 10.667969 Z M 6 10.667969 "/>
</g>
</svg>
