<?xml version="1.0" encoding="UTF-8"?>
<svg xmlns="http://www.w3.org/2000/svg" xmlns:xlink="http://www.w3.org/1999/xlink" width="16" height="16" viewBox="0 0 16 16" version="1.1">
<g id="surface1">
<path style=" stroke:none;fill-rule:nonzero;fill:rgb(100%,100%,100%);fill-opacity:1;" d="M 8.140625 0.796875 C 7.148438 0.796875 6.210938 0.984375 5.335938 1.351562 C 4.460938 1.71875 3.703125 2.226562 3.0625 2.875 C 2.421875 3.515625 1.914062 4.273438 1.546875 5.152344 C 1.179688 6.03125 0.996094 6.984375 0.996094 7.996094 C 0.996094 9.0625 1.171875 10.039062 1.527344 10.925781 C 1.878906 11.8125 2.375 12.578125 3.011719 13.214844 C 3.640625 13.84375 4.394531 14.328125 5.269531 14.675781 C 6.148438 15.03125 7.09375 15.207031 8.109375 15.207031 C 8.59375 15.207031 9.0625 15.183594 9.515625 15.140625 C 9.972656 15.101562 10.472656 15.023438 11 14.914062 L 11.160156 14.875 L 11.160156 13.304688 L 10.894531 13.375 C 10.457031 13.5 9.996094 13.59375 9.515625 13.648438 C 9.035156 13.710938 8.570312 13.738281 8.117188 13.738281 C 7.304688 13.738281 6.554688 13.601562 5.867188 13.332031 C 5.179688 13.070312 4.59375 12.679688 4.082031 12.15625 C 3.59375 11.660156 3.214844 11.070312 2.945312 10.367188 C 2.679688 9.65625 2.539062 8.871094 2.539062 8.007812 C 2.539062 7.210938 2.679688 6.460938 2.960938 5.757812 C 3.242188 5.046875 3.632812 4.445312 4.125 3.945312 C 4.613281 3.4375 5.199219 3.039062 5.882812 2.738281 C 6.566406 2.4375 7.328125 2.289062 8.15625 2.289062 C 9.015625 2.289062 9.777344 2.421875 10.445312 2.6875 L 10.445312 2.695312 C 11.117188 2.957031 11.671875 3.328125 12.117188 3.816406 C 12.570312 4.308594 12.90625 4.894531 13.140625 5.585938 C 13.375 6.28125 13.5 7.054688 13.5 7.914062 C 13.5 8.375 13.4375 8.898438 13.324219 9.492188 L 13.324219 9.5 C 13.222656 10.042969 13.070312 10.46875 12.882812 10.828125 L 11.28125 10.828125 L 11.28125 4.078125 L 9.585938 4.078125 L 9.585938 4.363281 C 9.347656 4.257812 9.105469 4.140625 8.886719 4.078125 L 8.878906 4.078125 C 8.554688 3.976562 8.199219 3.9375 7.796875 3.9375 C 6.828125 3.9375 5.976562 4.320312 5.285156 5.078125 C 4.585938 5.84375 4.242188 6.875 4.242188 8.128906 C 4.242188 9.378906 4.515625 10.375 5.085938 11.101562 C 5.660156 11.828125 6.453125 12.195312 7.402344 12.195312 C 7.898438 12.195312 8.351562 12.109375 8.746094 11.921875 C 9.042969 11.78125 9.351562 11.554688 9.664062 11.324219 L 9.851562 12.128906 L 13.648438 12.128906 L 13.714844 12.046875 C 14.128906 11.457031 14.4375 10.796875 14.660156 10.085938 C 14.886719 9.367188 15 8.632812 15 7.867188 C 15 6.816406 14.847656 5.855469 14.53125 4.992188 C 14.226562 4.121094 13.777344 3.375 13.1875 2.753906 C 12.601562 2.132812 11.875 1.648438 11.027344 1.304688 C 10.175781 0.960938 9.210938 0.796875 8.140625 0.796875 Z M 8.015625 5.53125 C 8.304688 5.53125 8.570312 5.5625 8.820312 5.625 L 8.828125 5.625 C 9.042969 5.675781 9.304688 5.78125 9.574219 5.898438 L 9.574219 9.804688 C 9.3125 9.992188 9.03125 10.164062 8.71875 10.3125 C 8.382812 10.46875 8.054688 10.539062 7.726562 10.539062 C 7.117188 10.539062 6.714844 10.355469 6.445312 9.96875 C 6.167969 9.570312 6.015625 8.945312 6.015625 8.097656 C 6.015625 7.242188 6.203125 6.613281 6.554688 6.179688 C 6.90625 5.742188 7.375 5.53125 8.015625 5.53125 Z M 8.015625 5.53125 "/>
</g>
</svg>
