<?xml version="1.0" encoding="UTF-8"?>
<svg xmlns="http://www.w3.org/2000/svg" xmlns:xlink="http://www.w3.org/1999/xlink" width="16" height="16" viewBox="0 0 16 16" version="1.1">
<g id="surface1">
<path style=" stroke:none;fill-rule:nonzero;fill:rgb(100%,100%,100%);fill-opacity:1;" d="M 9.453125 0.5 C 8.882812 1.636719 8.3125 2.773438 7.746094 3.910156 L 8.980469 3.910156 L 8.980469 5.683594 L 6.625 5.683594 C 6.363281 5.683594 6.152344 5.894531 6.152344 6.15625 L 6.152344 8.507812 L 3.4375 8.507812 L 3.4375 7.277344 L 0.0273438 8.980469 C 1.164062 9.546875 2.304688 10.117188 3.4375 10.6875 L 3.4375 9.453125 L 6.152344 9.453125 L 6.152344 9.921875 C 6.152344 10.046875 6.203125 10.167969 6.289062 10.257812 L 8.175781 12.140625 C 8.265625 12.226562 8.382812 12.28125 8.507812 12.28125 L 12.082031 12.28125 L 13.226562 13.421875 L 12.351562 14.296875 L 15.972656 15.5 C 15.570312 14.296875 15.164062 13.089844 14.765625 11.882812 L 13.894531 12.757812 L 12.75 11.613281 L 12.75 8.050781 C 12.75 7.921875 12.703125 7.796875 12.609375 7.703125 L 10.726562 5.820312 C 10.640625 5.734375 10.515625 5.683594 10.394531 5.683594 L 9.921875 5.683594 L 9.921875 3.910156 L 11.15625 3.910156 Z M 7.761719 6.625 L 8.980469 6.625 L 8.980469 6.71875 C 8.980469 6.980469 9.191406 7.191406 9.453125 7.191406 C 9.710938 7.191406 9.921875 6.980469 9.921875 6.71875 L 9.921875 6.625 L 10.199219 6.625 L 11.140625 7.570312 L 8.703125 7.570312 Z M 7.09375 7.289062 L 8.039062 8.234375 L 8.039062 10.671875 L 7.09375 9.726562 L 7.09375 9.453125 L 7.191406 9.453125 C 7.453125 9.453125 7.664062 9.242188 7.664062 8.980469 C 7.664062 8.71875 7.453125 8.507812 7.191406 8.507812 L 7.09375 8.507812 Z M 8.980469 8.507812 L 11.804688 8.507812 L 11.804688 10.671875 L 10.726562 9.589844 C 10.640625 9.5 10.523438 9.453125 10.398438 9.453125 C 10.273438 9.453125 10.148438 9.5 10.0625 9.589844 C 9.875 9.773438 9.875 10.070312 10.0625 10.257812 L 11.140625 11.335938 L 8.980469 11.335938 Z M 8.980469 8.507812 "/>
</g>
</svg>
