<?xml version="1.0" encoding="UTF-8"?>
<svg xmlns="http://www.w3.org/2000/svg" xmlns:xlink="http://www.w3.org/1999/xlink" width="16" height="16" viewBox="0 0 16 16" version="1.1">
<g id="surface1">
<path style=" stroke:none;fill-rule:nonzero;fill:rgb(100%,100%,100%);fill-opacity:1;" d="M 5.042969 12.851562 C 5.601562 12.878906 6.160156 12.828125 6.707031 12.707031 C 7.359375 12.566406 8.03125 12.539062 8.691406 12.621094 C 9.058594 12.664062 9.351562 12.730469 9.550781 12.792969 C 10.269531 12.976562 11.292969 12.941406 11.554688 12.519531 C 11.75 12.207031 11.722656 11.996094 11.539062 11.71875 C 11.496094 11.65625 11.449219 11.601562 11.398438 11.546875 C 11.230469 11.414062 11.0625 11.273438 10.902344 11.132812 C 10.496094 10.785156 10.105469 10.414062 9.734375 10.027344 C 9.351562 9.632812 9 9.210938 8.679688 8.765625 L 8.65625 8.730469 C 8.164062 7.972656 7.617188 8.019531 7.324219 8.519531 C 7.136719 8.832031 6.921875 9.128906 6.6875 9.40625 C 6.414062 9.726562 6.132812 10 5.816406 10.269531 C 5.734375 10.339844 5.480469 10.550781 5.542969 10.5 C 5.539062 10.503906 5.53125 10.511719 5.574219 10.453125 C 5.511719 10.535156 4.941406 11.039062 4.773438 11.226562 C 4.433594 11.617188 4.292969 11.949219 4.34375 12.214844 C 4.394531 12.464844 4.492188 12.605469 4.644531 12.710938 C 4.742188 12.777344 4.851562 12.824219 4.964844 12.847656 Z M 9.773438 8.003906 C 10.691406 9.316406 12.261719 10.53125 12.261719 10.53125 C 12.261719 10.53125 13.636719 11.695312 12.6875 13.222656 C 11.738281 14.75 9.183594 14.074219 9.183594 14.074219 C 9.183594 14.074219 8.171875 13.75 6.996094 14.011719 C 5.816406 14.273438 4.804688 14.171875 4.804688 14.171875 C 4.804688 14.171875 3.332031 14.011719 3.035156 12.46875 C 2.738281 10.925781 4.410156 9.773438 4.542969 9.613281 C 4.671875 9.445312 5.550781 8.894531 6.175781 7.839844 C 6.800781 6.78125 8.566406 6.144531 9.773438 8.003906 Z M 13.46875 7.054688 C 13.46875 7.363281 13.59375 8.652344 12.433594 8.675781 C 11.269531 8.703125 11.222656 7.890625 11.222656 7.3125 C 11.222656 6.703125 11.347656 5.839844 12.28125 5.839844 C 13.214844 5.839844 13.46875 6.753906 13.46875 7.058594 Z M 9.847656 5.203125 C 9.0625 5.101562 8.882812 4.390625 8.957031 3.675781 C 9.023438 3.09375 9.71875 2.195312 10.28125 2.324219 C 10.835938 2.453125 11.347656 3.191406 11.242188 3.828125 C 11.144531 4.464844 10.636719 5.308594 9.847656 5.203125 Z M 6.503906 4.960938 C 5.929688 4.960938 5.464844 4.296875 5.464844 3.480469 C 5.464844 2.660156 5.929688 2 6.503906 2 C 7.078125 2 7.542969 2.660156 7.542969 3.480469 C 7.542969 4.296875 7.078125 4.960938 6.503906 4.960938 Z M 3.976562 8.003906 C 2.84375 8.246094 2.425781 6.9375 2.546875 6.328125 C 2.546875 6.328125 2.679688 5.003906 3.597656 4.921875 C 4.328125 4.855469 4.863281 5.65625 4.917969 6.109375 C 4.953125 6.40625 5.109375 7.761719 3.976562 8.003906 Z M 3.976562 8.003906 "/>
</g>
</svg>
