<?xml version="1.0" encoding="UTF-8"?>
<svg xmlns="http://www.w3.org/2000/svg" xmlns:xlink="http://www.w3.org/1999/xlink" width="16" height="16" viewBox="0 0 16 16" version="1.1">
<g id="surface1">
<path style=" stroke:none;fill-rule:nonzero;fill:rgb(100%,100%,100%);fill-opacity:1;" d="M 3.953125 8.332031 C 5.328125 8.035156 5.140625 6.390625 5.097656 6.03125 C 5.03125 5.480469 4.378906 4.511719 3.496094 4.589844 C 2.382812 4.6875 2.21875 6.296875 2.21875 6.296875 C 2.070312 7.039062 2.578125 8.625 3.953125 8.332031 Z M 5.410156 11.191406 C 5.371094 11.304688 5.28125 11.601562 5.359375 11.859375 C 5.511719 12.433594 6.015625 12.460938 6.015625 12.460938 L 6.734375 12.460938 L 6.734375 10.703125 L 5.960938 10.703125 C 5.617188 10.804688 5.449219 11.074219 5.410156 11.191406 Z M 6.503906 5.574219 C 7.261719 5.574219 7.875 4.699219 7.875 3.621094 C 7.875 2.539062 7.261719 1.667969 6.503906 1.667969 C 5.746094 1.667969 5.128906 2.539062 5.128906 3.621094 C 5.128906 4.699219 5.746094 5.574219 6.503906 5.574219 Z M 9.773438 5.703125 C 10.789062 5.835938 11.441406 4.753906 11.574219 3.929688 C 11.707031 3.113281 11.050781 2.160156 10.332031 1.996094 C 9.613281 1.828125 8.710938 2.984375 8.628906 3.734375 C 8.53125 4.65625 8.761719 5.574219 9.773438 5.703125 Z M 9.773438 8.003906 C 8.53125 6.066406 6.765625 6.855469 6.175781 7.839844 C 5.589844 8.824219 4.671875 9.445312 4.542969 9.613281 C 4.410156 9.773438 2.644531 10.726562 3.035156 12.46875 C 3.425781 14.207031 4.804688 14.175781 4.804688 14.175781 C 4.804688 14.175781 5.816406 14.273438 6.996094 14.011719 C 8.171875 13.75 9.183594 14.074219 9.183594 14.074219 C 9.183594 14.074219 11.933594 14.996094 12.6875 13.222656 C 13.4375 11.449219 12.261719 10.53125 12.261719 10.53125 C 12.261719 10.53125 10.691406 9.316406 9.773438 8.003906 Z M 5.769531 13.167969 C 4.996094 13.015625 4.691406 12.488281 4.652344 12.398438 C 4.613281 12.308594 4.394531 11.882812 4.511719 11.164062 C 4.84375 10.085938 5.796875 10.007812 5.796875 10.007812 L 6.746094 10.007812 L 6.746094 8.835938 L 7.558594 8.851562 L 7.558594 13.167969 Z M 8.828125 13.15625 C 8.03125 12.953125 7.996094 12.382812 7.996094 12.382812 L 7.996094 10.109375 L 8.828125 10.097656 L 8.828125 12.140625 C 8.882812 12.359375 9.152344 12.398438 9.152344 12.398438 L 10 12.398438 L 10 10.109375 L 10.886719 10.109375 L 10.886719 13.15625 Z M 13.800781 7.082031 C 13.800781 6.691406 13.472656 5.507812 12.261719 5.507812 C 11.050781 5.507812 10.886719 6.625 10.886719 7.414062 C 10.886719 8.167969 10.953125 9.21875 12.457031 9.183594 C 13.964844 9.152344 13.800781 7.476562 13.800781 7.082031 Z M 13.800781 7.082031 "/>
</g>
</svg>
