<?xml version="1.0" encoding="UTF-8"?>
<svg xmlns="http://www.w3.org/2000/svg" xmlns:xlink="http://www.w3.org/1999/xlink" width="16" height="16" viewBox="0 0 16 16" version="1.1">
<g id="surface1">
<path style=" stroke:none;fill-rule:nonzero;fill:rgb(100%,100%,100%);fill-opacity:1;" d="M 9.414062 6.585938 C 12.277344 9.449219 13.964844 12.40625 13.183594 13.1875 C 12.867188 13.503906 12.195312 13.414062 11.3125 13.003906 C 9.140625 14.441406 6.289062 14.3125 4.253906 12.6875 L 4.230469 12.714844 L 3.285156 11.769531 L 3.3125 11.746094 C 1.6875 9.710938 1.558594 6.859375 2.996094 4.6875 C 2.585938 3.804688 2.496094 3.132812 2.816406 2.816406 C 3.566406 2.0625 6.332031 3.597656 9.09375 6.269531 Z M 8.472656 7.527344 C 7.214844 6.273438 5.914062 5.226562 4.824219 4.578125 L 4.699219 4.699219 C 3.058594 6.339844 2.875 8.9375 4.261719 10.792969 L 5.492188 9.5625 C 5.335938 8.980469 5.589844 8.367188 6.113281 8.066406 C 6.636719 7.761719 7.296875 7.847656 7.722656 8.277344 C 8.148438 8.703125 8.238281 9.363281 7.9375 9.886719 C 7.632812 10.40625 7.019531 10.664062 6.4375 10.507812 L 5.203125 11.738281 C 7.0625 13.128906 9.660156 12.941406 11.300781 11.300781 L 11.417969 11.175781 L 11.382812 11.117188 C 10.734375 10.039062 9.703125 8.761719 8.472656 7.527344 Z M 13.183594 2.816406 C 13.453125 3.082031 13.59375 3.453125 13.574219 3.832031 C 13.554688 4.210938 13.371094 4.5625 13.074219 4.796875 C 14.128906 6.46875 14.292969 8.546875 13.515625 10.363281 C 13.242188 9.832031 12.933594 9.316406 12.59375 8.824219 C 12.863281 7.320312 12.382812 5.78125 11.300781 4.699219 C 10.21875 3.617188 8.679688 3.136719 7.175781 3.40625 C 6.683594 3.066406 6.167969 2.757812 5.636719 2.484375 C 7.453125 1.707031 9.53125 1.871094 11.203125 2.925781 C 11.441406 2.628906 11.792969 2.449219 12.167969 2.425781 C 12.546875 2.40625 12.917969 2.546875 13.183594 2.816406 Z M 13.183594 2.816406 "/>
</g>
</svg>
