<?xml version="1.0" encoding="UTF-8"?>
<svg xmlns="http://www.w3.org/2000/svg" xmlns:xlink="http://www.w3.org/1999/xlink" width="16" height="16" viewBox="0 0 16 16" version="1.1">
<g id="surface1">
<path style=" stroke:none;fill-rule:nonzero;fill:rgb(100%,100%,100%);fill-opacity:1;" d="M 12.148438 2.058594 C 12.472656 2.382812 12.472656 2.910156 12.148438 3.234375 L 11.386719 3.996094 L 12.167969 3.996094 C 13.546875 3.996094 14.667969 5.117188 14.667969 6.496094 L 14.667969 11.496094 C 14.667969 12.878906 13.546875 13.996094 12.167969 13.996094 L 3.832031 13.996094 C 2.453125 13.996094 1.332031 12.878906 1.332031 11.496094 L 1.332031 6.496094 C 1.332031 5.117188 2.453125 3.996094 3.832031 3.996094 L 4.609375 3.996094 L 3.851562 3.238281 C 3.632812 3.027344 3.546875 2.71875 3.621094 2.425781 C 3.699219 2.136719 3.925781 1.90625 4.21875 1.832031 C 4.507812 1.753906 4.820312 1.839844 5.027344 2.058594 L 6.796875 3.824219 C 6.847656 3.878906 6.894531 3.9375 6.929688 3.996094 L 9.070312 3.996094 C 9.105469 3.9375 9.148438 3.878906 9.203125 3.824219 L 10.96875 2.058594 C 11.296875 1.730469 11.824219 1.730469 12.148438 2.058594 Z M 12.167969 5.671875 L 3.832031 5.671875 C 3.398438 5.671875 3.035156 6.007812 3.003906 6.441406 L 3 6.503906 L 3 11.503906 C 3 11.945312 3.339844 12.304688 3.769531 12.335938 L 3.832031 12.339844 L 12.167969 12.339844 C 12.601562 12.339844 12.964844 12 12.996094 11.566406 L 13 11.503906 L 13 6.503906 C 13 6.042969 12.625 5.671875 12.167969 5.671875 Z M 5.5 7.335938 C 5.960938 7.335938 6.332031 7.710938 6.332031 8.171875 L 6.332031 9.003906 C 6.332031 9.464844 5.960938 9.835938 5.5 9.835938 C 5.039062 9.835938 4.667969 9.464844 4.667969 9.003906 L 4.667969 8.171875 C 4.667969 7.710938 5.039062 7.335938 5.5 7.335938 Z M 10.5 7.335938 C 10.960938 7.335938 11.332031 7.710938 11.332031 8.171875 L 11.332031 9.003906 C 11.332031 9.464844 10.960938 9.835938 10.5 9.835938 C 10.039062 9.835938 9.667969 9.464844 9.667969 9.003906 L 9.667969 8.171875 C 9.667969 7.710938 10.039062 7.335938 10.5 7.335938 Z M 10.5 7.335938 "/>
</g>
</svg>
