<?xml version="1.0" encoding="UTF-8"?>
<svg xmlns="http://www.w3.org/2000/svg" xmlns:xlink="http://www.w3.org/1999/xlink" width="16" height="16" viewBox="0 0 16 16" version="1.1">
<g id="surface1">
<path style=" stroke:none;fill-rule:nonzero;fill:rgb(100%,100%,100%);fill-opacity:1;" d="M 4.78125 1.839844 L 6.941406 4 L 9.058594 4 L 11.21875 1.839844 C 11.480469 1.578125 11.902344 1.578125 12.160156 1.839844 C 12.421875 2.097656 12.421875 2.523438 12.160156 2.78125 L 10.941406 4 L 12.332031 4 C 13.621094 4 14.667969 5.042969 14.667969 6.332031 L 14.667969 11.667969 C 14.667969 12.957031 13.621094 14 12.332031 14 L 3.667969 14 C 2.378906 14 1.332031 12.957031 1.332031 11.667969 L 1.332031 6.332031 C 1.332031 5.042969 2.378906 4 3.667969 4 L 5.058594 4 L 3.839844 2.78125 C 3.578125 2.519531 3.578125 2.097656 3.839844 1.835938 C 4.097656 1.578125 4.519531 1.578125 4.78125 1.835938 Z M 12.332031 5.332031 L 3.667969 5.332031 C 3.152344 5.332031 2.722656 5.726562 2.671875 6.238281 L 2.667969 6.332031 L 2.667969 11.667969 C 2.667969 12.183594 3.058594 12.613281 3.570312 12.660156 L 3.667969 12.667969 L 12.332031 12.667969 C 12.847656 12.667969 13.277344 12.273438 13.328125 11.761719 L 13.332031 11.667969 L 13.332031 6.332031 C 13.332031 5.78125 12.886719 5.332031 12.332031 5.332031 Z M 5.332031 7.332031 C 5.703125 7.332031 6 7.632812 6 8 L 6 9.332031 C 6 9.703125 5.703125 10 5.332031 10 C 4.964844 10 4.667969 9.703125 4.667969 9.332031 L 4.667969 8 C 4.667969 7.632812 4.964844 7.332031 5.332031 7.332031 Z M 10.667969 7.332031 C 11.035156 7.332031 11.332031 7.632812 11.332031 8 L 11.332031 9.332031 C 11.332031 9.703125 11.035156 10 10.667969 10 C 10.296875 10 10 9.703125 10 9.332031 L 10 8 C 10 7.632812 10.296875 7.332031 10.667969 7.332031 Z M 10.667969 7.332031 "/>
</g>
</svg>
