<?xml version="1.0" encoding="UTF-8"?>
<svg xmlns="http://www.w3.org/2000/svg" xmlns:xlink="http://www.w3.org/1999/xlink" width="16" height="16" viewBox="0 0 16 16" version="1.1">
<g id="surface1">
<path style=" stroke:none;fill-rule:nonzero;fill:rgb(100%,100%,100%);fill-opacity:1;" d="M 8 1.332031 C 11.683594 1.332031 14.667969 4.316406 14.667969 8 C 14.667969 11.683594 11.683594 14.667969 8 14.667969 C 4.316406 14.667969 1.332031 11.683594 1.332031 8 C 1.332031 4.316406 4.316406 1.332031 8 1.332031 Z M 8 2.667969 C 5.054688 2.667969 2.667969 5.054688 2.667969 8 C 2.667969 10.945312 5.054688 13.332031 8 13.332031 C 10.945312 13.332031 13.332031 10.945312 13.332031 8 C 13.332031 5.054688 10.945312 2.667969 8 2.667969 Z M 8 4 C 10.210938 4 12 5.789062 12 8 C 12 10.210938 10.210938 12 8 12 C 5.789062 12 4 10.210938 4 8 C 4 5.789062 5.789062 4 8 4 Z M 8 5.167969 C 7.347656 5.167969 6.753906 5.550781 6.484375 6.144531 C 6.210938 6.742188 6.316406 7.4375 6.746094 7.929688 C 6.371094 8.234375 6.132812 8.675781 6.132812 9.167969 C 6.132812 10.085938 6.96875 10.832031 8 10.832031 C 9.03125 10.832031 9.867188 10.085938 9.867188 9.167969 C 9.867188 8.675781 9.628906 8.234375 9.253906 7.933594 C 9.683594 7.441406 9.789062 6.742188 9.519531 6.144531 C 9.246094 5.550781 8.652344 5.167969 8 5.167969 Z M 8 8.5 C 8.503906 8.5 8.867188 8.824219 8.867188 9.167969 C 8.867188 9.507812 8.503906 9.832031 8 9.832031 C 7.496094 9.832031 7.132812 9.507812 7.132812 9.167969 C 7.132812 8.824219 7.496094 8.5 8 8.5 Z M 8 6.167969 C 8.367188 6.167969 8.667969 6.464844 8.667969 6.832031 C 8.667969 7.203125 8.367188 7.5 8 7.5 C 7.632812 7.5 7.332031 7.203125 7.332031 6.832031 C 7.332031 6.464844 7.632812 6.167969 8 6.167969 Z M 8 6.167969 "/>
</g>
</svg>
