<?xml version="1.0" encoding="UTF-8"?>
<svg xmlns="http://www.w3.org/2000/svg" xmlns:xlink="http://www.w3.org/1999/xlink" width="16" height="16" viewBox="0 0 16 16" version="1.1">
<g id="surface1">
<path style=" stroke:none;fill-rule:nonzero;fill:rgb(100%,100%,100%);fill-opacity:1;" d="M 7.914062 0.0820312 C 7.535156 0.125 7.25 0.445312 7.25 0.828125 L 7.25 6.34375 L 4.082031 3.570312 C 3.929688 3.441406 3.734375 3.375 3.535156 3.390625 C 3.335938 3.402344 3.148438 3.492188 3.019531 3.648438 C 2.75 3.960938 2.78125 4.429688 3.09375 4.703125 L 6.867188 8 L 3.09375 11.296875 C 2.941406 11.425781 2.847656 11.609375 2.835938 11.8125 C 2.820312 12.007812 2.886719 12.207031 3.019531 12.359375 C 3.148438 12.507812 3.335938 12.601562 3.539062 12.609375 C 3.734375 12.625 3.933594 12.554688 4.082031 12.421875 L 7.25 9.65625 L 7.25 15.171875 C 7.246094 15.453125 7.40625 15.71875 7.664062 15.847656 C 7.917969 15.976562 8.226562 15.945312 8.453125 15.773438 L 12.867188 12.460938 C 13.046875 12.324219 13.15625 12.117188 13.167969 11.890625 C 13.175781 11.664062 13.082031 11.445312 12.910156 11.296875 L 9.140625 8 L 12.910156 4.703125 C 13.082031 4.554688 13.175781 4.335938 13.167969 4.109375 C 13.15625 3.882812 13.046875 3.671875 12.867188 3.535156 L 8.453125 0.226562 C 8.296875 0.109375 8.105469 0.0585938 7.914062 0.0820312 Z M 8.75 2.328125 L 11.226562 4.1875 L 8.75 6.347656 Z M 8.75 9.648438 L 11.226562 11.820312 L 8.75 13.679688 Z M 8.75 9.648438 "/>
</g>
</svg>
