<?xml version="1.0" encoding="UTF-8"?>
<svg xmlns="http://www.w3.org/2000/svg" xmlns:xlink="http://www.w3.org/1999/xlink" width="16" height="16" viewBox="0 0 16 16" version="1.1">
<g id="surface1">
<path style=" stroke:none;fill-rule:nonzero;fill:rgb(100%,100%,100%);fill-opacity:1;" d="M 2.667969 10.667969 L 2.667969 13.332031 L 5.332031 13.332031 L 5.332031 14.667969 L 1.332031 14.667969 L 1.332031 10.667969 Z M 14.667969 10.667969 L 14.667969 14.667969 L 10.667969 14.667969 L 10.667969 13.332031 L 13.332031 13.332031 L 13.332031 10.667969 Z M 5 4.667969 C 5 6.324219 6.34375 7.667969 8 7.667969 C 9.65625 7.667969 11 6.324219 11 4.667969 L 12.332031 4.667969 C 12.332031 6.28125 11.433594 7.765625 10 8.511719 L 10 12.667969 L 6 12.667969 L 6 8.511719 C 4.566406 7.765625 3.667969 6.285156 3.667969 4.667969 Z M 8 3.332031 C 8.921875 3.332031 9.667969 4.078125 9.667969 5 C 9.667969 5.921875 8.921875 6.667969 8 6.667969 C 7.078125 6.667969 6.332031 5.921875 6.332031 5 C 6.332031 4.078125 7.078125 3.332031 8 3.332031 Z M 5.332031 1.332031 L 5.332031 2.667969 L 2.667969 2.664062 L 2.667969 5.332031 L 1.332031 5.332031 L 1.332031 1.332031 Z M 14.667969 1.332031 L 14.667969 5.332031 L 13.332031 5.332031 L 13.332031 2.667969 L 10.667969 2.667969 L 10.667969 1.332031 Z M 14.667969 1.332031 "/>
</g>
</svg>
