<?xml version="1.0" encoding="UTF-8"?>
<svg xmlns="http://www.w3.org/2000/svg" xmlns:xlink="http://www.w3.org/1999/xlink" width="16" height="16" viewBox="0 0 16 16" version="1.1">
<g id="surface1">
<path style=" stroke:none;fill-rule:nonzero;fill:rgb(100%,100%,100%);fill-opacity:1;" d="M 13.335938 1.332031 C 14.070312 1.332031 14.667969 1.933594 14.667969 2.660156 L 14.667969 13.339844 C 14.667969 14.074219 14.070312 14.667969 13.335938 14.667969 L 2.667969 14.667969 L 2.667969 12 L 1.332031 12 L 1.332031 10.667969 L 2.667969 10.667969 L 2.667969 8.667969 L 1.332031 8.667969 L 1.332031 7.332031 L 2.667969 7.332031 L 2.667969 5.332031 L 1.332031 5.332031 L 1.332031 4 L 2.667969 4 L 2.667969 1.332031 Z M 5.332031 2.667969 L 4 2.667969 L 4 13.332031 L 5.332031 13.332031 Z M 13.332031 2.667969 L 6.667969 2.667969 L 6.667969 13.332031 L 13.332031 13.332031 Z M 13.332031 2.667969 "/>
</g>
</svg>
