<?xml version="1.0" encoding="UTF-8"?>
<svg xmlns="http://www.w3.org/2000/svg" xmlns:xlink="http://www.w3.org/1999/xlink" width="16" height="16" viewBox="0 0 16 16" version="1.1">
<g id="surface1">
<path style=" stroke:none;fill-rule:nonzero;fill:rgb(100%,100%,100%);fill-opacity:1;" d="M 2.667969 1.332031 L 13.332031 1.332031 C 13.703125 1.332031 14 1.632812 14 2 L 14 14.851562 C 14 14.964844 13.941406 15.070312 13.847656 15.128906 C 13.753906 15.191406 13.632812 15.203125 13.53125 15.15625 L 8 12.6875 L 2.46875 15.15625 C 2.367188 15.199219 2.246094 15.191406 2.152344 15.128906 C 2.058594 15.070312 2 14.964844 2 14.851562 L 2 2 C 2 1.632812 2.296875 1.332031 2.667969 1.332031 Z M 12.667969 13.308594 L 12.667969 2.667969 L 3.332031 2.667969 L 3.332031 13.308594 L 8 11.226562 Z M 8 9 L 6.039062 10.03125 L 6.414062 7.847656 L 4.828125 6.304688 L 7.019531 5.984375 L 8 4 L 8.980469 5.984375 L 11.171875 6.304688 L 9.585938 7.847656 L 9.957031 10.03125 Z M 8 9 "/>
</g>
</svg>
