<?xml version="1.0" encoding="UTF-8"?>
<svg xmlns="http://www.w3.org/2000/svg" xmlns:xlink="http://www.w3.org/1999/xlink" width="16" height="16" viewBox="0 0 16 16" version="1.1">
<g id="surface1">
<path style=" stroke:none;fill-rule:nonzero;fill:rgb(100%,100%,100%);fill-opacity:1;" d="M 8.667969 4.667969 L 8.667969 7.332031 L 13.332031 7.332031 C 13.703125 7.332031 14 7.632812 14 8 L 14 13.332031 L 15.332031 13.332031 L 15.332031 14.667969 L 0.667969 14.667969 L 0.667969 13.332031 L 2 13.332031 L 2 8 C 2 7.632812 2.296875 7.332031 2.667969 7.332031 L 7.332031 7.332031 L 7.332031 4.667969 Z M 12.667969 8.667969 L 3.332031 8.667969 L 3.332031 13.332031 L 12.667969 13.332031 Z M 9.21875 0.269531 C 9.773438 1.222656 9.445312 2.449219 8.488281 3 L 7.332031 3.667969 C 6.78125 2.710938 7.109375 1.488281 8.066406 0.933594 Z M 9.21875 0.269531 "/>
</g>
</svg>
