<?xml version="1.0" encoding="UTF-8"?>
<svg xmlns="http://www.w3.org/2000/svg" xmlns:xlink="http://www.w3.org/1999/xlink" width="16" height="16" viewBox="0 0 16 16" version="1.1">
<g id="surface1">
<path style=" stroke:none;fill-rule:nonzero;fill:rgb(100%,100%,100%);fill-opacity:1;" d="M 6 0.667969 L 6 2 L 10 2 L 10 0.667969 L 11.332031 0.667969 L 11.332031 2 L 14 2 C 14.367188 2 14.667969 2.296875 14.667969 2.667969 L 14.667969 13.332031 C 14.667969 13.703125 14.367188 14 14 14 L 2 14 C 1.632812 14 1.332031 13.703125 1.332031 13.332031 L 1.332031 2.667969 C 1.332031 2.296875 1.632812 2 2 2 L 4.667969 2 L 4.667969 0.667969 Z M 13.332031 5.332031 L 2.667969 5.332031 L 2.667969 12.667969 L 13.332031 12.667969 Z M 10.023438 6.757812 L 10.964844 7.699219 L 7.667969 11 L 5.308594 8.644531 L 6.253906 7.699219 L 7.667969 9.113281 Z M 10.023438 6.757812 "/>
</g>
</svg>
