<?xml version="1.0" encoding="UTF-8"?>
<svg xmlns="http://www.w3.org/2000/svg" xmlns:xlink="http://www.w3.org/1999/xlink" width="16" height="16" viewBox="0 0 16 16" version="1.1">
<g id="surface1">
<path style=" stroke:none;fill-rule:nonzero;fill:rgb(100%,100%,100%);fill-opacity:1;" d="M 6 2 L 10 2 L 11.332031 3.332031 L 14 3.332031 C 14.367188 3.332031 14.667969 3.632812 14.667969 4 L 14.667969 13.332031 C 14.667969 13.703125 14.367188 14 14 14 L 2 14 C 1.632812 14 1.332031 13.703125 1.332031 13.332031 L 1.332031 4 C 1.332031 3.632812 1.632812 3.332031 2 3.332031 L 4.667969 3.332031 Z M 8 12.667969 C 10.210938 12.667969 12 10.875 12 8.667969 C 12 6.457031 10.210938 4.667969 8 4.667969 C 5.789062 4.667969 4 6.457031 4 8.667969 C 4 10.875 5.789062 12.667969 8 12.667969 Z M 8 11.332031 C 6.527344 11.332031 5.332031 10.140625 5.332031 8.667969 C 5.332031 7.195312 6.527344 6 8 6 C 9.472656 6 10.667969 7.195312 10.667969 8.667969 C 10.667969 10.140625 9.472656 11.332031 8 11.332031 Z M 8 11.332031 "/>
</g>
</svg>
