<?xml version="1.0" encoding="UTF-8"?>
<svg xmlns="http://www.w3.org/2000/svg" xmlns:xlink="http://www.w3.org/1999/xlink" width="16" height="16" viewBox="0 0 16 16" version="1.1">
<g id="surface1">
<path style=" stroke:none;fill-rule:nonzero;fill:rgb(100%,100%,100%);fill-opacity:1;" d="M 6.550781 3.332031 L 5.21875 4.667969 L 2.667969 4.667969 L 2.667969 12.667969 L 13.332031 12.667969 L 13.332031 4.667969 L 10.78125 4.667969 L 9.449219 3.332031 Z M 6 2 L 10 2 L 11.332031 3.332031 L 14 3.332031 C 14.367188 3.332031 14.667969 3.632812 14.667969 4 L 14.667969 13.332031 C 14.667969 13.703125 14.367188 14 14 14 L 2 14 C 1.632812 14 1.332031 13.703125 1.332031 13.332031 L 1.332031 4 C 1.332031 3.632812 1.632812 3.332031 2 3.332031 L 4.667969 3.332031 Z M 8 12 C 5.976562 12 4.332031 10.359375 4.332031 8.332031 C 4.332031 6.308594 5.976562 4.667969 8 4.667969 C 10.023438 4.667969 11.667969 6.308594 11.667969 8.332031 C 11.667969 10.359375 10.023438 12 8 12 Z M 8 10.667969 C 9.289062 10.667969 10.332031 9.621094 10.332031 8.332031 C 10.332031 7.042969 9.289062 6 8 6 C 6.710938 6 5.667969 7.042969 5.667969 8.332031 C 5.667969 9.621094 6.710938 10.667969 8 10.667969 Z M 8 10.667969 "/>
</g>
</svg>
