<?xml version="1.0" encoding="UTF-8"?>
<svg xmlns="http://www.w3.org/2000/svg" xmlns:xlink="http://www.w3.org/1999/xlink" width="16" height="16" viewBox="0 0 16 16" version="1.1">
<g id="surface1">
<path style=" stroke:none;fill-rule:nonzero;fill:rgb(100%,100%,100%);fill-opacity:1;" d="M 0.492188 1 C 0.21875 1.003906 -0.00390625 1.226562 0 1.5 L 0 14.5 C -0.00390625 14.773438 0.21875 14.996094 0.492188 15 L 15.5 15 C 15.773438 15 16 14.773438 16 14.5 C 16 14.21875 15.773438 13.992188 15.5 13.996094 L 0.996094 13.996094 L 0.996094 1.5 C 1 1.226562 0.773438 1 0.492188 1 Z M 0.492188 1 "/>
<path style=" stroke:none;fill-rule:nonzero;fill:rgb(100%,100%,100%);fill-opacity:1;" d="M 15.214844 5.226562 C 15.183594 5.230469 15.15625 5.238281 15.125 5.25 L 2.046875 9.441406 C 1.78125 9.523438 1.636719 9.804688 1.71875 10.070312 C 1.804688 10.332031 2.085938 10.476562 2.347656 10.394531 L 15.429688 6.203125 C 15.554688 6.160156 15.664062 6.070312 15.722656 5.953125 C 15.785156 5.832031 15.796875 5.695312 15.753906 5.566406 C 15.679688 5.335938 15.453125 5.195312 15.214844 5.226562 Z M 15.214844 5.226562 "/>
<path style=" stroke:none;fill-rule:evenodd;fill:rgb(100%,100%,100%);fill-opacity:1;" d="M 5.203125 5.882812 C 5.203125 6.570312 4.648438 7.132812 3.953125 7.132812 C 3.265625 7.132812 2.703125 6.570312 2.703125 5.882812 C 2.703125 5.191406 3.265625 4.632812 3.953125 4.632812 C 4.648438 4.632812 5.203125 5.191406 5.203125 5.882812 "/>
<path style=" stroke:none;fill-rule:evenodd;fill:rgb(100%,100%,100%);fill-opacity:1;" d="M 9.824219 5.132812 C 9.824219 5.820312 9.265625 6.382812 8.574219 6.382812 C 7.882812 6.382812 7.324219 5.820312 7.324219 5.132812 C 7.324219 4.441406 7.882812 3.882812 8.574219 3.882812 C 9.265625 3.882812 9.824219 4.441406 9.824219 5.132812 "/>
<path style=" stroke:none;fill-rule:evenodd;fill:rgb(100%,100%,100%);fill-opacity:1;" d="M 14.203125 3.382812 C 14.203125 4.070312 13.648438 4.632812 12.953125 4.632812 C 12.265625 4.632812 11.703125 4.070312 11.703125 3.382812 C 11.703125 2.691406 12.265625 2.132812 12.953125 2.132812 C 13.648438 2.132812 14.203125 2.691406 14.203125 3.382812 "/>
<path style=" stroke:none;fill-rule:evenodd;fill:rgb(100%,100%,100%);fill-opacity:1;" d="M 8.203125 11.382812 C 8.203125 12.070312 7.648438 12.632812 6.953125 12.632812 C 6.265625 12.632812 5.703125 12.070312 5.703125 11.382812 C 5.703125 10.691406 6.265625 10.132812 6.953125 10.132812 C 7.648438 10.132812 8.203125 10.691406 8.203125 11.382812 "/>
<path style=" stroke:none;fill-rule:evenodd;fill:rgb(100%,100%,100%);fill-opacity:1;" d="M 13.703125 10.382812 C 13.703125 11.070312 13.148438 11.632812 12.453125 11.632812 C 11.765625 11.632812 11.203125 11.070312 11.203125 10.382812 C 11.203125 9.691406 11.765625 9.132812 12.453125 9.132812 C 13.148438 9.132812 13.703125 9.691406 13.703125 10.382812 "/>
</g>
</svg>
