<?xml version="1.0" encoding="UTF-8"?>
<svg xmlns="http://www.w3.org/2000/svg" xmlns:xlink="http://www.w3.org/1999/xlink" width="16" height="16" viewBox="0 0 16 16" version="1.1">
<g id="surface1">
<path style=" stroke:none;fill-rule:nonzero;fill:rgb(100%,100%,100%);fill-opacity:1;" d="M 9.332031 2 L 9.332031 3.332031 L 2.667969 3.332031 L 2.667969 12.257812 L 3.84375 11.332031 L 13.332031 11.332031 L 13.332031 6.667969 L 14.667969 6.667969 L 14.667969 12 C 14.667969 12.367188 14.367188 12.667969 14 12.667969 L 4.304688 12.667969 L 1.332031 15 L 1.332031 2.667969 C 1.332031 2.296875 1.632812 2 2 2 Z M 12.667969 2 L 12.667969 0 L 14 0 L 14 2 L 16 2 L 16 3.332031 L 14 3.332031 L 14 5.332031 L 12.667969 5.332031 L 12.667969 3.332031 L 10.667969 3.332031 L 10.667969 2 Z M 12.667969 2 "/>
</g>
</svg>
