<?xml version="1.0" encoding="UTF-8"?>
<svg xmlns="http://www.w3.org/2000/svg" xmlns:xlink="http://www.w3.org/1999/xlink" width="16" height="16" viewBox="0 0 16 16" version="1.1">
<g id="surface1">
<path style=" stroke:none;fill-rule:nonzero;fill:rgb(100%,100%,100%);fill-opacity:1;" d="M 4.601562 8.003906 L 10.085938 14.179688 C 10.21875 14.332031 10.402344 14.421875 10.601562 14.4375 C 10.804688 14.449219 11 14.382812 11.148438 14.25 C 11.296875 14.117188 11.386719 13.929688 11.398438 13.730469 C 11.410156 13.53125 11.339844 13.335938 11.207031 13.1875 L 6.609375 8.003906 L 11.207031 2.8125 C 11.339844 2.664062 11.410156 2.46875 11.398438 2.269531 C 11.386719 2.070312 11.296875 1.882812 11.148438 1.75 C 11 1.617188 10.804688 1.550781 10.601562 1.5625 C 10.402344 1.578125 10.21875 1.667969 10.085938 1.820312 Z M 4.601562 8.003906 "/>
</g>
</svg>
