<?xml version="1.0" encoding="UTF-8"?>
<svg xmlns="http://www.w3.org/2000/svg" xmlns:xlink="http://www.w3.org/1999/xlink" width="16" height="16" viewBox="0 0 16 16" version="1.1">
<g id="surface1">
<path style=" stroke:none;fill-rule:nonzero;fill:rgb(100%,100%,100%);fill-opacity:1;" d="M 11.984375 0.101562 C 11.101562 0.148438 10.15625 0.546875 9.328125 1.363281 L 9.320312 1.371094 C 9.320312 1.375 9.3125 1.375 9.304688 1.378906 L 3.015625 7.203125 C 3.007812 7.210938 3.003906 7.21875 2.996094 7.226562 C 1.640625 8.578125 0.96875 10.023438 0.875 11.367188 C 0.789062 12.710938 1.296875 13.929688 2.183594 14.757812 C 3.960938 16.410156 7.160156 16.429688 9.789062 13.804688 C 9.789062 13.800781 9.792969 13.796875 9.796875 13.796875 L 13.882812 9.648438 C 14.023438 9.503906 14.101562 9.3125 14.101562 9.113281 C 14.101562 8.914062 14.019531 8.722656 13.875 8.585938 C 13.734375 8.445312 13.542969 8.367188 13.34375 8.367188 C 13.144531 8.367188 12.953125 8.449219 12.8125 8.59375 L 8.726562 12.75 C 6.511719 14.953125 4.34375 14.71875 3.210938 13.664062 C 2.640625 13.132812 2.304688 12.378906 2.367188 11.460938 C 2.429688 10.546875 2.898438 9.445312 4.050781 8.289062 L 10.347656 2.464844 C 10.355469 2.457031 10.363281 2.449219 10.371094 2.441406 C 11.605469 1.207031 12.664062 1.429688 13.234375 2.007812 C 13.804688 2.582031 14.03125 3.636719 12.734375 4.9375 L 6.730469 10.9375 C 6.140625 11.527344 5.882812 11.359375 5.773438 11.25 C 5.664062 11.132812 5.496094 10.828125 6.101562 10.222656 L 11.101562 5.226562 C 11.242188 5.085938 11.320312 4.890625 11.320312 4.695312 C 11.320312 4.492188 11.242188 4.304688 11.101562 4.164062 C 10.960938 4.019531 10.769531 3.941406 10.570312 3.941406 C 10.371094 3.941406 10.179688 4.019531 10.039062 4.164062 L 5.039062 9.15625 C 4.046875 10.148438 3.945312 11.519531 4.6875 12.289062 C 5.429688 13.058594 6.8125 12.980469 7.796875 12 L 13.796875 6 C 15.507812 4.289062 15.46875 2.125 14.296875 0.949219 C 13.710938 0.363281 12.882812 0.0546875 11.984375 0.101562 Z M 11.984375 0.101562 "/>
</g>
</svg>
