<?xml version="1.0" encoding="UTF-8"?>
<svg xmlns="http://www.w3.org/2000/svg" xmlns:xlink="http://www.w3.org/1999/xlink" width="16" height="16" viewBox="0 0 16 16" version="1.1">
<g id="surface1">
<path style=" stroke:none;fill-rule:nonzero;fill:rgb(100%,100%,100%);fill-opacity:1;" d="M 11.332031 14 L 4.667969 14 C 2.714844 14 1.050781 12.597656 0.722656 10.671875 C 0.394531 8.75 1.5 6.871094 3.339844 6.226562 C 3.257812 4.507812 4.125 2.882812 5.601562 2 C 7.078125 1.117188 8.921875 1.117188 10.398438 2 C 11.875 2.882812 12.742188 4.507812 12.660156 6.226562 C 14.5 6.871094 15.605469 8.75 15.277344 10.671875 C 14.949219 12.597656 13.285156 14 11.332031 14 Z M 11.332031 6 C 11.332031 4.789062 10.679688 3.675781 9.621094 3.085938 C 8.5625 2.496094 7.269531 2.527344 6.242188 3.167969 C 5.210938 3.808594 4.613281 4.953125 4.671875 6.160156 L 4.71875 7.152344 L 3.78125 7.484375 C 2.558594 7.917969 1.824219 9.167969 2.039062 10.449219 C 2.257812 11.726562 3.367188 12.664062 4.667969 12.667969 L 11.332031 12.667969 C 12.695312 12.667969 13.839844 11.640625 13.984375 10.285156 C 14.128906 8.929688 13.230469 7.683594 11.898438 7.394531 C 10.570312 7.105469 9.234375 7.863281 8.800781 9.15625 L 7.539062 8.734375 C 8.082031 7.101562 9.613281 6 11.332031 6 Z M 11.332031 6 "/>
</g>
</svg>
