<?xml version="1.0" encoding="UTF-8"?>
<svg xmlns="http://www.w3.org/2000/svg" xmlns:xlink="http://www.w3.org/1999/xlink" width="16" height="16" viewBox="0 0 16 16" version="1.1">
<g id="surface1">
<path style=" stroke:none;fill-rule:nonzero;fill:rgb(100%,100%,100%);fill-opacity:1;" d="M 6.332031 4 C 3.941406 4 2 5.941406 2 8.332031 C 2 10.726562 3.941406 12.667969 6.332031 12.667969 L 11 12.667969 C 12.148438 12.664062 13.195312 12.007812 13.695312 10.976562 C 14.199219 9.945312 14.066406 8.714844 13.355469 7.8125 C 12.644531 6.910156 11.484375 6.492188 10.363281 6.734375 C 9.707031 5.082031 8.109375 4 6.332031 4 Z M 11 14 L 6.332031 14 C 3.609375 14 1.269531 12.058594 0.765625 9.378906 C 0.261719 6.699219 1.738281 4.042969 4.277344 3.054688 C 6.816406 2.0625 9.703125 3.023438 11.144531 5.335938 C 13.511719 5.40625 15.382812 7.367188 15.34375 9.738281 C 15.304688 12.109375 13.371094 14.007812 11 14 Z M 11 14 "/>
</g>
</svg>
