<?xml version="1.0" encoding="UTF-8"?>
<svg xmlns="http://www.w3.org/2000/svg" xmlns:xlink="http://www.w3.org/1999/xlink" width="16" height="16" viewBox="0 0 16 16" version="1.1">
<g id="surface1">
<path style=" stroke:none;fill-rule:nonzero;fill:rgb(100%,100%,100%);fill-opacity:1;" d="M 11.332031 14 L 4.667969 14 C 2.714844 14 1.050781 12.597656 0.722656 10.671875 C 0.394531 8.75 1.5 6.871094 3.339844 6.226562 C 3.257812 4.507812 4.125 2.882812 5.601562 2 C 7.078125 1.117188 8.921875 1.117188 10.398438 2 C 11.875 2.882812 12.742188 4.507812 12.660156 6.226562 C 14.5 6.871094 15.605469 8.75 15.277344 10.671875 C 14.949219 12.597656 13.285156 14 11.332031 14 Z M 4.667969 12.667969 L 11.332031 12.667969 C 12.320312 12.664062 13.222656 12.121094 13.683594 11.25 C 14.144531 10.378906 14.089844 9.324219 13.539062 8.507812 C 12.988281 7.691406 12.03125 7.246094 11.050781 7.347656 C 11.667969 5.949219 11.253906 4.3125 10.050781 3.371094 C 8.84375 2.433594 7.15625 2.433594 5.949219 3.371094 C 4.746094 4.3125 4.332031 5.949219 4.949219 7.347656 C 3.96875 7.246094 3.011719 7.691406 2.460938 8.507812 C 1.910156 9.324219 1.855469 10.378906 2.316406 11.25 C 2.777344 12.121094 3.679688 12.664062 4.667969 12.667969 Z M 4.667969 12.667969 "/>
</g>
</svg>
