<?xml version="1.0" encoding="UTF-8"?>
<svg xmlns="http://www.w3.org/2000/svg" xmlns:xlink="http://www.w3.org/1999/xlink" width="16" height="16" viewBox="0 0 16 16" version="1.1">
<g id="surface1">
<path style=" stroke:none;fill-rule:nonzero;fill:rgb(100%,100%,100%);fill-opacity:1;" d="M 5.019531 2 C 4.710938 1.996094 4.414062 2.132812 4.222656 2.375 L 0.21875 7.375 C -0.0703125 7.742188 -0.0703125 8.257812 0.21875 8.621094 L 4.222656 13.625 C 4.570312 14.054688 5.195312 14.125 5.625 13.78125 C 5.835938 13.617188 5.96875 13.375 5.996094 13.109375 C 6.023438 12.84375 5.945312 12.578125 5.78125 12.371094 L 2.28125 8 L 5.78125 3.625 C 6.125 3.195312 6.054688 2.566406 5.625 2.222656 C 5.453125 2.085938 5.242188 2.007812 5.019531 2 Z M 5.019531 2 "/>
<path style=" stroke:none;fill-rule:nonzero;fill:rgb(100%,100%,100%);fill-opacity:1;" d="M 10.917969 2 C 10.71875 2.019531 10.53125 2.09375 10.378906 2.222656 C 9.945312 2.5625 9.875 3.191406 10.21875 3.625 L 13.722656 8 L 10.21875 12.371094 C 10.050781 12.578125 9.976562 12.84375 10.003906 13.109375 C 10.035156 13.375 10.171875 13.617188 10.378906 13.78125 C 10.808594 14.125 11.4375 14.054688 11.78125 13.625 L 15.78125 8.621094 C 16.074219 8.257812 16.074219 7.742188 15.78125 7.375 L 11.78125 2.375 C 11.574219 2.117188 11.25 1.976562 10.917969 2 Z M 10.917969 2 "/>
</g>
</svg>
