<?xml version="1.0" encoding="UTF-8"?>
<svg xmlns="http://www.w3.org/2000/svg" xmlns:xlink="http://www.w3.org/1999/xlink" width="16" height="16" viewBox="0 0 16 16" version="1.1">
<g id="surface1">
<path style=" stroke:none;fill-rule:nonzero;fill:rgb(100%,100%,100%);fill-opacity:1;" d="M 8 2.066406 L 4.699219 5.367188 C 2.878906 7.1875 2.878906 10.144531 4.699219 11.964844 C 6.523438 13.789062 9.476562 13.789062 11.300781 11.964844 C 13.121094 10.144531 13.121094 7.1875 11.300781 5.367188 Z M 8 0.179688 L 12.242188 4.425781 C 14.585938 6.765625 14.585938 10.566406 12.242188 12.910156 C 9.898438 15.253906 6.101562 15.253906 3.757812 12.910156 C 1.414062 10.566406 1.414062 6.765625 3.757812 4.425781 Z M 8 12 L 8 5.332031 C 9.839844 5.332031 11.332031 6.824219 11.332031 8.667969 C 11.332031 10.507812 9.839844 12 8 12 Z M 8 12 "/>
</g>
</svg>
