<?xml version="1.0" encoding="UTF-8"?>
<svg xmlns="http://www.w3.org/2000/svg" xmlns:xlink="http://www.w3.org/1999/xlink" width="16" height="16" viewBox="0 0 16 16" version="1.1">
<g id="surface1">
<path style=" stroke:none;fill-rule:nonzero;fill:rgb(100%,100%,100%);fill-opacity:1;" d="M 8 14.667969 C 4.320312 14.667969 1.332031 11.679688 1.332031 8 C 1.332031 4.320312 4.320312 1.332031 8 1.332031 C 11.679688 1.332031 14.667969 4.320312 14.667969 8 C 14.667969 11.679688 11.679688 14.667969 8 14.667969 Z M 8 13.332031 C 10.945312 13.332031 13.332031 10.945312 13.332031 8 C 13.332031 5.054688 10.945312 2.667969 8 2.667969 C 5.054688 2.667969 2.667969 5.054688 2.667969 8 C 2.667969 10.945312 5.054688 13.332031 8 13.332031 Z M 8 11.332031 C 6.785156 11.332031 5.726562 10.683594 5.140625 9.714844 L 6.285156 9.027344 C 6.632812 9.609375 7.269531 10 8 10 C 9.105469 10 10 9.105469 10 8 C 10 6.894531 9.105469 6 8 6 C 7.269531 6 6.632812 6.386719 6.285156 6.96875 L 5.140625 6.285156 C 5.726562 5.316406 6.785156 4.667969 8 4.667969 C 9.839844 4.667969 11.332031 6.160156 11.332031 8 C 11.332031 9.839844 9.839844 11.332031 8 11.332031 Z M 8 11.332031 "/>
</g>
</svg>
