<?xml version="1.0" encoding="UTF-8"?>
<svg xmlns="http://www.w3.org/2000/svg" xmlns:xlink="http://www.w3.org/1999/xlink" width="16" height="16" viewBox="0 0 16 16" version="1.1">
<g id="surface1">
<path style=" stroke:none;fill-rule:nonzero;fill:rgb(100%,100%,100%);fill-opacity:1;" d="M 14 9.332031 L 14 14 C 14 14.367188 13.703125 14.667969 13.332031 14.667969 L 2.667969 14.667969 C 2.296875 14.667969 2 14.367188 2 14 L 2 9.332031 C 2.738281 9.332031 3.332031 8.738281 3.332031 8 C 3.332031 7.261719 2.738281 6.667969 2 6.667969 L 2 2 C 2 1.632812 2.296875 1.332031 2.667969 1.332031 L 13.332031 1.332031 C 13.703125 1.332031 14 1.632812 14 2 L 14 6.667969 C 13.261719 6.667969 12.667969 7.261719 12.667969 8 C 12.667969 8.738281 13.261719 9.332031 14 9.332031 Z M 12.667969 10.308594 C 11.839844 9.832031 11.332031 8.953125 11.332031 8 C 11.332031 7.011719 11.871094 6.152344 12.667969 5.691406 L 12.667969 2.667969 L 3.332031 2.667969 L 3.332031 5.691406 C 4.128906 6.152344 4.667969 7.011719 4.667969 8 C 4.667969 8.988281 4.128906 9.847656 3.332031 10.308594 L 3.332031 13.332031 L 12.667969 13.332031 Z M 6 4 L 10 4 L 10 5.332031 L 6 5.332031 Z M 6 10.667969 L 10 10.667969 L 10 12 L 6 12 Z M 6 10.667969 "/>
</g>
</svg>
