<?xml version="1.0" encoding="UTF-8"?>
<svg xmlns="http://www.w3.org/2000/svg" xmlns:xlink="http://www.w3.org/1999/xlink" width="16" height="16" viewBox="0 0 16 16" version="1.1">
<g id="surface1">
<path style=" stroke:none;fill-rule:nonzero;fill:rgb(100%,100%,100%);fill-opacity:1;" d="M 11.332031 4 L 14.667969 4 L 14.667969 5.332031 L 13.332031 5.332031 L 13.332031 14 C 13.332031 14.367188 13.035156 14.667969 12.667969 14.667969 L 3.332031 14.667969 C 2.964844 14.667969 2.667969 14.367188 2.667969 14 L 2.667969 5.332031 L 1.332031 5.332031 L 1.332031 4 L 4.667969 4 L 4.667969 2 C 4.667969 1.632812 4.964844 1.332031 5.332031 1.332031 L 10.667969 1.332031 C 11.035156 1.332031 11.332031 1.632812 11.332031 2 Z M 12 5.332031 L 4 5.332031 L 4 13.332031 L 12 13.332031 Z M 6 7.332031 L 7.332031 7.332031 L 7.332031 11.332031 L 6 11.332031 Z M 8.667969 7.332031 L 10 7.332031 L 10 11.332031 L 8.667969 11.332031 Z M 6 2.667969 L 6 4 L 10 4 L 10 2.667969 Z M 6 2.667969 "/>
</g>
</svg>
