<?xml version="1.0" encoding="UTF-8"?>
<svg xmlns="http://www.w3.org/2000/svg" xmlns:xlink="http://www.w3.org/1999/xlink" width="16" height="16" viewBox="0 0 16 16" version="1.1">
<g id="surface1">
<path style=" stroke:none;fill-rule:nonzero;fill:rgb(100%,100%,100%);fill-opacity:1;" d="M 13.332031 3.332031 C 13.703125 3.332031 14 3.632812 14 4 L 14 8 C 14 8.367188 13.703125 8.667969 13.332031 8.667969 C 13.753906 9.222656 14 9.914062 14 10.667969 C 14 12.507812 12.507812 14 10.667969 14 C 8.824219 14 7.332031 12.507812 7.332031 10.667969 C 7.332031 9.914062 7.582031 9.222656 8 8.667969 L 2.667969 8.667969 C 2.296875 8.667969 2 8.367188 2 8 L 2 4 C 2 3.632812 2.296875 3.332031 2.667969 3.332031 Z M 8.667969 10 L 8.667969 11.332031 L 12.667969 11.332031 L 12.667969 10 Z M 12.667969 4.667969 L 3.332031 4.667969 L 3.332031 7.332031 L 12.667969 7.332031 Z M 12.667969 4.667969 "/>
</g>
</svg>
