<?xml version="1.0" encoding="UTF-8"?>
<svg xmlns="http://www.w3.org/2000/svg" xmlns:xlink="http://www.w3.org/1999/xlink" width="16" height="16" viewBox="0 0 16 16" version="1.1">
<g id="surface1">
<path style=" stroke:none;fill-rule:nonzero;fill:rgb(100%,100%,100%);fill-opacity:1;" d="M 7.078125 0 L 1.078125 1.410156 L 1.078125 14.410156 L 7.078125 16 Z M 5.953125 7 C 6.226562 7 6.453125 7.445312 6.453125 8 C 6.453125 8.554688 6.226562 9 5.953125 9 C 5.675781 9 5.453125 8.554688 5.453125 8 C 5.453125 7.445312 5.675781 7 5.953125 7 Z M 5.953125 7 "/>
<path style=" stroke:none;fill-rule:nonzero;fill:rgb(100%,100%,100%);fill-opacity:1;" d="M 8.078125 0.996094 L 8.078125 2.996094 L 9.078125 2.996094 L 9.078125 7.003906 C 9.109375 6.882812 9.15625 6.773438 9.226562 6.671875 C 9.234375 6.65625 9.226562 6.652344 9.234375 6.640625 C 9.234375 6.640625 9.242188 6.636719 9.242188 6.632812 C 9.246094 6.625 9.25 6.625 9.257812 6.617188 C 9.351562 6.484375 9.480469 6.375 9.625 6.300781 C 9.625 6.296875 9.632812 6.296875 9.632812 6.292969 C 10.054688 5.835938 10.546875 5.476562 11.078125 5.234375 L 11.078125 0.996094 Z M 11.078125 10.953125 C 11.066406 10.957031 11.023438 10.988281 11.019531 10.988281 C 11.003906 11.003906 10.570312 11.644531 10.5625 11.667969 C 10.554688 11.691406 10.390625 12.445312 10.390625 12.472656 L 10.390625 12.476562 C 10.390625 12.507812 10.46875 13.027344 10.476562 13.054688 C 10.484375 13.082031 10.695312 13.558594 10.710938 13.578125 C 10.726562 13.601562 11.054688 14.007812 11.070312 14.023438 C 11.070312 14.023438 11.078125 14.023438 11.078125 14.023438 Z M 11.078125 10.953125 "/>
<path style=" stroke:none;fill-rule:evenodd;fill:rgb(100%,100%,100%);fill-opacity:1;" d="M 12.625 6 C 11.71875 5.960938 10.769531 6.398438 10.128906 7.273438 L 10.125 7.273438 L 10.117188 7.28125 C 9.820312 7.703125 9.832031 8.039062 9.8125 8.421875 C 9.789062 8.796875 9.804688 9.195312 9.828125 9.570312 C 9.847656 9.859375 9.875 10.09375 9.902344 10.320312 C 9.390625 10.480469 9.023438 10.949219 9.023438 11.507812 L 9.023438 14.65625 C 9.023438 15.355469 9.585938 15.917969 10.289062 15.917969 L 14.730469 15.917969 C 15.433594 15.917969 16 15.355469 16 14.65625 L 16 11.507812 C 16 10.953125 15.640625 10.492188 15.136719 10.320312 C 15.164062 10.109375 15.195312 9.90625 15.214844 9.640625 C 15.242188 9.273438 15.257812 8.875 15.234375 8.488281 C 15.210938 8.101562 15.175781 7.734375 14.945312 7.339844 L 14.929688 7.308594 L 14.90625 7.273438 C 14.367188 6.523438 13.53125 6.046875 12.625 6 Z M 12.546875 7.570312 C 12.921875 7.589844 13.308594 7.804688 13.585938 8.171875 C 13.585938 8.191406 13.632812 8.335938 13.648438 8.582031 C 13.664062 8.855469 13.65625 9.199219 13.632812 9.523438 C 13.609375 9.796875 13.578125 10.039062 13.554688 10.25 L 11.492188 10.25 C 11.460938 10.015625 11.429688 9.75 11.414062 9.464844 C 11.390625 9.125 11.375 8.777344 11.390625 8.511719 C 11.40625 8.3125 11.464844 8.164062 11.457031 8.152344 C 11.8125 7.695312 12.179688 7.554688 12.546875 7.570312 Z M 12.511719 11.46875 C 13.078125 11.46875 13.539062 11.929688 13.539062 12.492188 C 13.539062 12.875 13.328125 13.226562 12.984375 13.398438 L 12.984375 14.1875 C 12.984375 14.445312 12.773438 14.65625 12.511719 14.65625 C 12.25 14.65625 12.035156 14.445312 12.035156 14.1875 L 12.035156 13.398438 C 11.695312 13.226562 11.480469 12.875 11.480469 12.492188 C 11.480469 11.929688 11.941406 11.46875 12.511719 11.46875 Z M 12.511719 11.46875 "/>
</g>
</svg>
