<?xml version="1.0" encoding="UTF-8"?>
<svg xmlns="http://www.w3.org/2000/svg" xmlns:xlink="http://www.w3.org/1999/xlink" width="16" height="16" viewBox="0 0 16 16" version="1.1">
<g id="surface1">
<path style=" stroke:none;fill-rule:nonzero;fill:rgb(100%,100%,100%);fill-opacity:1;" d="M 13.332031 1.332031 C 13.703125 1.332031 14 1.632812 14 2 L 14 4.503906 L 8 10.503906 L 7.996094 13.328125 L 10.828125 13.335938 L 14 10.160156 L 14 14 C 14 14.367188 13.703125 14.667969 13.332031 14.667969 L 2.667969 14.667969 C 2.296875 14.667969 2 14.367188 2 14 L 2 2 C 2 1.632812 2.296875 1.332031 2.667969 1.332031 Z M 14.519531 5.871094 L 15.460938 6.816406 L 10.277344 12 L 9.332031 12 L 9.332031 11.058594 Z M 8 8 L 4.667969 8 L 4.667969 9.332031 L 8 9.332031 Z M 10 5.332031 L 4.667969 5.332031 L 4.667969 6.667969 L 10 6.667969 Z M 10 5.332031 "/>
</g>
</svg>
