<?xml version="1.0" encoding="UTF-8"?>
<svg xmlns="http://www.w3.org/2000/svg" xmlns:xlink="http://www.w3.org/1999/xlink" width="16" height="16" viewBox="0 0 16 16" version="1.1">
<g id="surface1">
<path style=" stroke:none;fill-rule:nonzero;fill:rgb(100%,100%,100%);fill-opacity:1;" d="M 10.332031 4.625 C 11.777344 5.457031 12.667969 7 12.667969 8.667969 L 12.667969 14 L 9.886719 14 C 9.605469 14.800781 8.847656 15.335938 8 15.335938 C 7.152344 15.335938 6.394531 14.800781 6.113281 14 L 3.332031 14 L 3.332031 8.667969 C 3.332031 7 4.222656 5.457031 5.667969 4.625 C 5.558594 4.429688 5.472656 4.21875 5.417969 4 L 3.332031 4 L 3.332031 2.667969 L 5.417969 2.667969 C 5.722656 1.488281 6.785156 0.667969 8 0.667969 C 9.214844 0.667969 10.277344 1.488281 10.582031 2.667969 L 12.667969 2.667969 L 12.667969 4 L 10.582031 4 C 10.527344 4.21875 10.441406 4.429688 10.335938 4.625 Z M 8 9.332031 C 7.632812 9.332031 7.332031 9.632812 7.332031 10 L 7.332031 13.332031 C 7.332031 13.703125 7.632812 14 8 14 C 8.367188 14 8.667969 13.703125 8.667969 13.332031 L 8.667969 10 C 8.667969 9.632812 8.367188 9.332031 8 9.332031 Z M 8 4.667969 C 8.738281 4.667969 9.332031 4.070312 9.332031 3.332031 C 9.332031 2.597656 8.738281 2 8 2 C 7.261719 2 6.667969 2.597656 6.667969 3.332031 C 6.667969 4.070312 7.261719 4.667969 8 4.667969 Z M 8 4.667969 "/>
</g>
</svg>
