<?xml version="1.0" encoding="UTF-8"?>
<svg xmlns="http://www.w3.org/2000/svg" xmlns:xlink="http://www.w3.org/1999/xlink" width="16" height="16" viewBox="0 0 16 16" version="1.1">
<g id="surface1">
<path style=" stroke:none;fill-rule:nonzero;fill:rgb(100%,100%,100%);fill-opacity:1;" d="M 8 14.667969 C 4.316406 14.667969 1.332031 11.683594 1.332031 8 C 1.332031 4.316406 4.316406 1.332031 8 1.332031 C 11.683594 1.332031 14.667969 4.316406 14.667969 8 C 14.667969 11.683594 11.683594 14.667969 8 14.667969 Z M 8 13.332031 C 10.945312 13.332031 13.332031 10.945312 13.332031 8 C 13.332031 5.054688 10.945312 2.667969 8 2.667969 C 5.054688 2.667969 2.667969 5.054688 2.667969 8 C 2.667969 10.945312 5.054688 13.332031 8 13.332031 Z M 4.667969 8.667969 L 6 8.667969 C 6 9.769531 6.894531 10.667969 8 10.667969 C 9.105469 10.667969 10 9.769531 10 8.667969 L 11.332031 8.667969 C 11.332031 10.507812 9.839844 12 8 12 C 6.160156 12 4.667969 10.507812 4.667969 8.667969 Z M 5.332031 7.332031 C 4.78125 7.332031 4.332031 6.886719 4.332031 6.332031 C 4.332031 5.78125 4.78125 5.332031 5.332031 5.332031 C 5.886719 5.332031 6.332031 5.78125 6.332031 6.332031 C 6.332031 6.886719 5.886719 7.332031 5.332031 7.332031 Z M 10.667969 7.332031 C 10.113281 7.332031 9.667969 6.886719 9.667969 6.332031 C 9.667969 5.78125 10.113281 5.332031 10.667969 5.332031 C 11.21875 5.332031 11.667969 5.78125 11.667969 6.332031 C 11.667969 6.886719 11.21875 7.332031 10.667969 7.332031 Z M 10.667969 7.332031 "/>
</g>
</svg>
