<?xml version="1.0" encoding="UTF-8"?>
<svg xmlns="http://www.w3.org/2000/svg" xmlns:xlink="http://www.w3.org/1999/xlink" width="16" height="16" viewBox="0 0 16 16" version="1.1">
<g id="surface1">
<path style=" stroke:none;fill-rule:nonzero;fill:rgb(100%,100%,100%);fill-opacity:1;" d="M 8 12.667969 C 8.550781 12.667969 9 13.113281 9 13.667969 C 9 14.21875 8.550781 14.667969 8 14.667969 C 7.449219 14.667969 7 14.21875 7 13.667969 C 7 13.113281 7.449219 12.667969 8 12.667969 Z M 4.332031 12.667969 C 4.886719 12.667969 5.332031 13.113281 5.332031 13.667969 C 5.332031 14.21875 4.886719 14.667969 4.332031 14.667969 C 3.78125 14.667969 3.332031 14.21875 3.332031 13.667969 C 3.332031 13.113281 3.78125 12.667969 4.332031 12.667969 Z M 11.667969 12.667969 C 12.21875 12.667969 12.667969 13.113281 12.667969 13.667969 C 12.667969 14.21875 12.21875 14.667969 11.667969 14.667969 C 11.113281 14.667969 10.667969 14.21875 10.667969 13.667969 C 10.667969 13.113281 11.113281 12.667969 11.667969 12.667969 Z M 8.667969 1.332031 L 8.667969 2.667969 L 12.667969 2.667969 L 12.667969 4 L 11.355469 4 C 10.839844 5.546875 10.019531 6.976562 8.941406 8.203125 C 9.96875 9.121094 11.179688 9.8125 12.492188 10.230469 L 12.132812 11.515625 C 10.601562 11.035156 9.191406 10.226562 8 9.152344 C 6.808594 10.226562 5.398438 11.035156 3.867188 11.515625 L 3.507812 10.230469 C 4.820312 9.8125 6.03125 9.121094 7.058594 8.203125 C 6.296875 7.339844 5.664062 6.375 5.179688 5.335938 L 6.671875 5.335938 C 7.042969 6.019531 7.488281 6.664062 8 7.25 C 8.832031 6.289062 9.488281 5.191406 9.941406 4 L 3.332031 4 L 3.332031 2.667969 L 7.332031 2.667969 L 7.332031 1.332031 Z M 8.667969 1.332031 "/>
</g>
</svg>
