<?xml version="1.0" encoding="UTF-8"?>
<svg xmlns="http://www.w3.org/2000/svg" xmlns:xlink="http://www.w3.org/1999/xlink" width="16" height="16" viewBox="0 0 16 16" version="1.1">
<g id="surface1">
<path style=" stroke:none;fill-rule:evenodd;fill:rgb(100%,100%,100%);fill-opacity:1;" d="M 0 7 L 2 7 L 2 13 L 0 13 Z M 0 7 "/>
<path style=" stroke:none;fill-rule:nonzero;fill:rgb(100%,100%,100%);fill-opacity:1;" d="M 6 5 C 5.625 5 5.277344 5.210938 5.109375 5.550781 L 4.382812 7 L 2.996094 7 L 2.996094 12.003906 C 3 12.269531 3.101562 12.523438 3.292969 12.710938 C 3.480469 12.898438 3.734375 13 4 13 L 4.761719 13 L 6.554688 13.890625 C 6.691406 13.960938 6.84375 14 7 14.003906 L 11 14.003906 C 11.15625 14 11.3125 13.964844 11.449219 13.890625 L 13.234375 13 L 14.003906 13 C 14.050781 13.515625 14.484375 13.910156 15 13.910156 C 15.515625 13.910156 15.949219 13.515625 15.996094 13 L 15.996094 8.097656 C 16 8.066406 16 8.03125 15.996094 8 L 15.996094 7 C 15.949219 6.484375 15.515625 6.085938 15 6.085938 C 14.484375 6.085938 14.050781 6.484375 14.003906 7 L 13.414062 7 L 11.707031 5.292969 C 11.519531 5.101562 11.265625 5 11 5 Z M 6 5 "/>
<path style=" stroke:none;fill-rule:evenodd;fill:rgb(100%,100%,100%);fill-opacity:1;" d="M 6 2 L 11 2 L 11 4 L 6 4 Z M 6 2 "/>
</g>
</svg>
