<?xml version="1.0" encoding="UTF-8"?>
<svg xmlns="http://www.w3.org/2000/svg" xmlns:xlink="http://www.w3.org/1999/xlink" width="16" height="16" viewBox="0 0 16 16" version="1.1">
<g id="surface1">
<path style=" stroke:none;fill-rule:nonzero;fill:rgb(100%,100%,100%);fill-opacity:1;" d="M 3.582031 3.007812 C 4.800781 1.925781 6.371094 1.332031 8 1.332031 C 11.683594 1.332031 14.667969 4.316406 14.667969 8 C 14.667969 9.363281 14.25 10.691406 13.472656 11.808594 L 11.667969 8 L 13.332031 8 C 13.332031 5.832031 12.019531 3.878906 10.011719 3.058594 C 8 2.242188 5.699219 2.722656 4.183594 4.273438 Z M 12.417969 12.992188 C 11.199219 14.074219 9.628906 14.667969 8 14.667969 C 4.316406 14.667969 1.332031 11.683594 1.332031 8 C 1.332031 6.582031 1.773438 5.269531 2.527344 4.191406 L 4.332031 8 L 2.667969 8 C 2.667969 10.167969 3.980469 12.121094 5.988281 12.941406 C 8 13.757812 10.300781 13.277344 11.816406 11.726562 Z M 8.667969 9.023438 L 10.667969 9.023438 L 10.667969 10.355469 L 8.667969 10.355469 L 8.667969 11.691406 L 7.332031 11.691406 L 7.332031 10.355469 L 5.332031 10.355469 L 5.332031 9.023438 L 7.332031 9.023438 L 7.332031 8.355469 L 5.332031 8.355469 L 5.332031 7.023438 L 7.058594 7.023438 L 5.644531 5.609375 L 6.585938 4.667969 L 8 6.082031 L 9.414062 4.667969 L 10.355469 5.609375 L 8.941406 7.023438 L 10.667969 7.023438 L 10.667969 8.355469 L 8.667969 8.355469 Z M 8.667969 9.023438 "/>
</g>
</svg>
