<?xml version="1.0" encoding="UTF-8"?>
<svg xmlns="http://www.w3.org/2000/svg" xmlns:xlink="http://www.w3.org/1999/xlink" width="16" height="16" viewBox="0 0 16 16" version="1.1">
<g id="surface1">
<path style=" stroke:none;fill-rule:nonzero;fill:rgb(100%,100%,100%);fill-opacity:1;" d="M 10.667969 1.332031 L 14 4.667969 L 14 14.003906 C 14 14.371094 13.703125 14.667969 13.339844 14.667969 L 2.660156 14.667969 C 2.296875 14.664062 2.003906 14.371094 2 14.003906 L 2 1.996094 C 2 1.628906 2.296875 1.332031 2.660156 1.332031 Z M 7.332031 10 L 7.332031 11.332031 L 8.667969 11.332031 L 8.667969 10 Z M 8.667969 8.902344 C 9.773438 8.570312 10.46875 7.476562 10.304688 6.332031 C 10.136719 5.1875 9.15625 4.335938 8 4.332031 C 6.886719 4.332031 5.929688 5.117188 5.710938 6.207031 L 7.019531 6.46875 C 7.121094 5.953125 7.609375 5.605469 8.132812 5.675781 C 8.652344 5.746094 9.03125 6.207031 8.996094 6.730469 C 8.964844 7.257812 8.527344 7.667969 8 7.667969 C 7.632812 7.667969 7.332031 7.964844 7.332031 8.332031 L 7.332031 9.332031 L 8.667969 9.332031 Z M 8.667969 8.902344 "/>
</g>
</svg>
