<?xml version="1.0" encoding="UTF-8"?>
<svg xmlns="http://www.w3.org/2000/svg" xmlns:xlink="http://www.w3.org/1999/xlink" width="16" height="16" viewBox="0 0 16 16" version="1.1">
<g id="surface1">
<path style=" stroke:none;fill-rule:nonzero;fill:rgb(100%,100%,100%);fill-opacity:1;" d="M 5.757812 13 L 6.59375 13 C 6.699219 12.984375 6.796875 12.835938 6.835938 12.617188 L 7.9375 7.410156 L 9.078125 12.609375 C 9.125 12.84375 9.234375 12.992188 9.351562 13 L 10.28125 13 C 10.398438 12.992188 10.492188 12.851562 10.539062 12.617188 L 11.886719 5.371094 C 11.902344 5.3125 11.910156 5.265625 11.910156 5.214844 C 11.910156 5.082031 11.855469 4.984375 11.789062 4.984375 L 10.929688 4.984375 C 10.8125 4.984375 10.695312 5.136719 10.664062 5.371094 L 9.8125 10.777344 L 8.722656 5.390625 C 8.671875 5.171875 8.570312 5.046875 8.457031 5.039062 L 7.632812 5.039062 C 7.523438 5.039062 7.398438 5.15625 7.351562 5.390625 L 6.328125 10.664062 L 5.484375 5.375 C 5.4375 5.136719 5.328125 4.984375 5.210938 4.984375 L 4.210938 4.984375 C 4.136719 4.984375 4.089844 5.082031 4.089844 5.214844 C 4.089844 5.265625 4.089844 5.3125 4.105469 5.371094 L 5.484375 12.617188 C 5.527344 12.851562 5.640625 12.992188 5.757812 13 Z M 5.757812 13 "/>
<path style=" stroke:none;fill-rule:nonzero;fill:rgb(100%,100%,100%);fill-opacity:1;" d="M 2.5 -0.00390625 C 2.226562 -0.00390625 2 0.222656 2 0.5 L 2 15.5 C 2 15.777344 2.226562 16.003906 2.5 16 L 13.5 16 C 13.773438 16.003906 14 15.777344 14 15.5 L 14 3.496094 C 14 3.367188 13.945312 3.242188 13.855469 3.148438 L 10.867188 0.148438 C 10.773438 0.0546875 10.644531 -0.00390625 10.511719 -0.00390625 Z M 2.996094 1 L 10 1 L 10.003906 3.5 C 10 3.773438 10.226562 3.996094 10.5 4 L 13 4 L 13 15 L 2.996094 15 Z M 2.996094 1 "/>
</g>
</svg>
