<?xml version="1.0" encoding="UTF-8"?>
<svg xmlns="http://www.w3.org/2000/svg" xmlns:xlink="http://www.w3.org/1999/xlink" width="16" height="16" viewBox="0 0 16 16" version="1.1">
<g id="surface1">
<path style=" stroke:none;fill-rule:nonzero;fill:rgb(100%,100%,100%);fill-opacity:1;" d="M 14 7.78125 C 12.089844 6.875 9.804688 7.367188 8.4375 8.984375 C 7.070312 10.597656 6.960938 12.929688 8.171875 14.667969 L 2.660156 14.667969 C 2.296875 14.664062 2.003906 14.371094 2 14.003906 L 2 1.996094 C 2 1.628906 2.296875 1.332031 2.660156 1.332031 L 10.667969 1.332031 L 14 4.667969 Z M 12 15.332031 C 10.160156 15.332031 8.667969 13.839844 8.667969 12 C 8.667969 10.160156 10.160156 8.667969 12 8.667969 C 13.839844 8.667969 15.332031 10.160156 15.332031 12 C 15.332031 13.839844 13.839844 15.332031 12 15.332031 Z M 11.136719 13.804688 C 11.902344 14.171875 12.816406 14.015625 13.414062 13.414062 C 14.015625 12.816406 14.171875 11.902344 13.804688 11.136719 Z M 10.195312 12.863281 L 12.863281 10.195312 C 12.097656 9.828125 11.183594 9.984375 10.585938 10.585938 C 9.984375 11.183594 9.828125 12.097656 10.195312 12.863281 Z M 10.195312 12.863281 "/>
</g>
</svg>
