<?xml version="1.0" encoding="UTF-8"?>
<svg xmlns="http://www.w3.org/2000/svg" xmlns:xlink="http://www.w3.org/1999/xlink" width="16" height="16" viewBox="0 0 16 16" version="1.1">
<g id="surface1">
<path style=" stroke:none;fill-rule:nonzero;fill:rgb(100%,100%,100%);fill-opacity:1;" d="M 9.332031 5.332031 L 9.332031 2.667969 L 3.332031 2.667969 L 3.332031 13.332031 L 12.667969 13.332031 L 12.667969 6 L 10.667969 6 L 10.667969 9.078125 C 10.667969 9.644531 10.371094 10.167969 9.875 10.480469 L 8 11.664062 L 6.125 10.480469 C 5.628906 10.167969 5.332031 9.644531 5.332031 9.078125 L 5.332031 5.332031 Z M 14 5.332031 L 14 13.996094 C 14.003906 14.363281 13.707031 14.664062 13.339844 14.667969 L 2.660156 14.667969 C 2.296875 14.667969 2 14.371094 2 14.003906 L 2 1.996094 C 2 1.636719 2.300781 1.332031 2.667969 1.332031 L 9.996094 1.332031 Z M 6.667969 9.078125 C 6.667969 9.179688 6.726562 9.28125 6.835938 9.351562 L 8 10.089844 L 9.164062 9.351562 C 9.273438 9.28125 9.332031 9.179688 9.332031 9.078125 L 9.332031 6.667969 L 6.667969 6.667969 Z M 6.667969 9.078125 "/>
</g>
</svg>
