<?xml version="1.0" encoding="UTF-8"?>
<svg xmlns="http://www.w3.org/2000/svg" xmlns:xlink="http://www.w3.org/1999/xlink" width="16" height="16" viewBox="0 0 16 16" version="1.1">
<g id="surface1">
<path style=" stroke:none;fill-rule:nonzero;fill:rgb(100%,100%,100%);fill-opacity:1;" d="M 10.667969 1.332031 L 14 4.667969 L 14 13.996094 C 14 14.367188 13.703125 14.667969 13.339844 14.667969 L 2.660156 14.667969 C 2.296875 14.667969 2 14.363281 2 14.003906 L 2 1.996094 C 2 1.628906 2.296875 1.332031 2.664062 1.332031 Z M 10 2.667969 L 3.332031 2.667969 L 3.332031 13.332031 L 12.667969 13.332031 L 12.667969 5.332031 L 10 5.332031 Z M 8.667969 6.667969 L 8.667969 10 L 8 10 L 8 6.667969 Z M 7.332031 6.667969 L 7.332031 7.332031 L 6 7.332031 C 5.632812 7.332031 5.332031 7.632812 5.332031 8 L 5.332031 8.667969 C 5.332031 9.035156 5.632812 9.332031 6 9.332031 L 6.667969 9.332031 L 6.667969 8.667969 L 6 8.667969 L 6 8 L 7.332031 8 L 7.332031 9.332031 C 7.332031 9.703125 7.035156 10 6.667969 10 L 6 10 C 5.261719 10 4.667969 9.402344 4.667969 8.667969 L 4.667969 8 C 4.667969 7.261719 5.261719 6.667969 6 6.667969 Z M 11.332031 6.667969 L 11.332031 7.332031 L 10 7.332031 L 10 8 L 11.332031 8 L 11.332031 8.667969 L 10 8.667969 L 10 10 L 9.332031 10 L 9.332031 6.667969 Z M 11.332031 6.667969 "/>
</g>
</svg>
