<?xml version="1.0" encoding="UTF-8"?>
<svg xmlns="http://www.w3.org/2000/svg" xmlns:xlink="http://www.w3.org/1999/xlink" width="16" height="16" viewBox="0 0 16 16" version="1.1">
<g id="surface1">
<path style=" stroke:none;fill-rule:nonzero;fill:rgb(100%,100%,100%);fill-opacity:1;" d="M 8 0.667969 C 11.3125 0.667969 14 3.351562 14 6.667969 L 14 9.332031 C 14 11.292969 13.042969 13.128906 11.4375 14.253906 C 9.832031 15.375 7.777344 15.644531 5.9375 14.96875 C 6.023438 14.851562 6.105469 14.730469 6.183594 14.609375 L 6.296875 14.421875 C 6.945312 13.34375 7.300781 12.117188 7.332031 10.859375 L 7.332031 6 L 8.667969 6 L 8.667969 10.667969 C 8.667969 11.8125 8.441406 12.945312 8.003906 14 C 8.515625 14 9.027344 13.914062 9.515625 13.75 C 9.808594 12.839844 9.976562 11.875 9.996094 10.875 L 10 10.667969 L 10 8.664062 L 11.332031 8.664062 L 11.332031 10.667969 C 11.332031 11.390625 11.265625 12.101562 11.132812 12.789062 C 12.070312 11.945312 12.621094 10.753906 12.664062 9.492188 L 12.667969 9.332031 L 12.667969 6.667969 C 12.667969 4.898438 11.667969 3.285156 10.089844 2.496094 C 8.511719 1.703125 6.621094 1.871094 5.207031 2.929688 L 4.253906 1.980469 C 5.316406 1.128906 6.640625 0.664062 8 0.667969 Z M 4.667969 6.667969 C 4.667969 4.824219 6.160156 3.332031 8 3.332031 C 9.839844 3.332031 11.332031 4.824219 11.332031 6.667969 L 11.332031 7.332031 L 10 7.332031 L 10 6.667969 C 10 5.585938 9.140625 4.699219 8.058594 4.664062 C 6.976562 4.632812 6.066406 5.46875 6.003906 6.550781 L 6 6.667969 L 6 10.667969 C 6 11.710938 5.734375 12.691406 5.265625 13.546875 L 5.246094 13.574219 C 5.09375 13.851562 4.921875 14.113281 4.726562 14.363281 C 4.433594 14.171875 4.15625 13.953125 3.902344 13.714844 L 3.695312 13.515625 C 2.605469 12.394531 1.996094 10.894531 2 9.332031 L 2 6.667969 C 2 5.25 2.492188 3.949219 3.3125 2.921875 L 4.261719 3.871094 C 3.691406 4.632812 3.367188 5.554688 3.335938 6.507812 L 3.332031 6.667969 L 3.332031 9.332031 C 3.332031 10.449219 3.726562 11.476562 4.378906 12.277344 C 4.550781 11.8125 4.648438 11.324219 4.664062 10.828125 L 4.667969 10.667969 Z M 4.667969 6.667969 "/>
</g>
</svg>
