<?xml version="1.0" encoding="UTF-8"?>
<svg xmlns="http://www.w3.org/2000/svg" xmlns:xlink="http://www.w3.org/1999/xlink" width="16" height="16" viewBox="0 0 16 16" version="1.1">
<g id="surface1">
<path style=" stroke:none;fill-rule:evenodd;fill:rgb(100%,100%,100%);fill-opacity:1;" d="M 5.453125 0 C 4.367188 0.0273438 3.5 0.914062 3.5 2 L 2.5 2 L 2.5 5 L 3.5 5 L 3.5 3 L 3.769531 3 C 4.125 3.617188 4.785156 4 5.5 4 C 5.851562 4 6.195312 3.90625 6.5 3.730469 L 6.5 4.007812 C 4.835938 4.039062 3.5 5.386719 3.5 7.0625 L 3.5 12.9375 C 3.5 14.632812 4.867188 16 6.5625 16 L 8.4375 16 C 10.132812 16 11.5 14.632812 11.5 12.9375 L 11.5 7.0625 C 11.5 5.367188 10.132812 4 8.4375 4 L 7.5 4 L 7.5 3 L 13.5 4 L 13.5 0 L 7.5 1 L 7.230469 1 C 6.875 0.382812 6.214844 0 5.5 0 C 5.484375 0 5.46875 0 5.453125 0 Z M 5.5 1 C 6.054688 1 6.5 1.445312 6.5 2 C 6.5 2.554688 6.054688 3 5.5 3 C 4.945312 3 4.5 2.554688 4.5 2 C 4.5 1.445312 4.945312 1 5.5 1 Z M 5.5 1 "/>
</g>
</svg>
