<?xml version="1.0" encoding="UTF-8"?>
<svg xmlns="http://www.w3.org/2000/svg" xmlns:xlink="http://www.w3.org/1999/xlink" width="16" height="16" viewBox="0 0 16 16" version="1.1">
<g id="surface1">
<path style=" stroke:none;fill-rule:nonzero;fill:rgb(100%,100%,100%);fill-opacity:1;" d="M 10.667969 11.648438 C 11.398438 12.304688 12.347656 12.667969 13.332031 12.667969 L 14.667969 12.667969 L 14.667969 14 L 13.332031 14 C 12.398438 14 11.476562 13.753906 10.667969 13.285156 C 9.855469 13.753906 8.9375 14 8 14 C 7.0625 14 6.144531 13.753906 5.332031 13.285156 C 4.523438 13.753906 3.601562 14 2.667969 14 L 1.332031 14 L 1.332031 12.667969 L 2.667969 12.667969 C 3.691406 12.667969 4.625 12.28125 5.332031 11.648438 C 6.066406 12.304688 7.015625 12.667969 8 12.667969 C 9.023438 12.667969 9.960938 12.28125 10.667969 11.648438 Z M 8.382812 1.019531 L 8.449219 1.074219 L 15.332031 7.332031 L 13.332031 7.332031 L 13.332031 11.332031 C 12.285156 11.335938 11.296875 10.839844 10.667969 10 C 10.039062 10.839844 9.050781 11.335938 8 11.332031 C 6.949219 11.335938 5.960938 10.839844 5.332031 10 C 4.703125 10.839844 3.714844 11.335938 2.667969 11.332031 L 2.664062 7.332031 L 0.667969 7.332031 L 7.550781 1.074219 C 7.757812 0.886719 8.0625 0.847656 8.3125 0.976562 Z M 8.382812 1.019531 "/>
</g>
</svg>
