<?xml version="1.0" encoding="UTF-8"?>
<svg xmlns="http://www.w3.org/2000/svg" xmlns:xlink="http://www.w3.org/1999/xlink" width="16" height="16" viewBox="0 0 16 16" version="1.1">
<g id="surface1">
<path style=" stroke:none;fill-rule:nonzero;fill:rgb(100%,100%,100%);fill-opacity:1;" d="M 8.277344 3.332031 L 14 3.332031 C 14.367188 3.332031 14.667969 3.632812 14.667969 4 L 14.667969 13.332031 C 14.667969 13.703125 14.367188 14 14 14 L 2 14 C 1.632812 14 1.332031 13.703125 1.332031 13.332031 L 1.332031 2.667969 C 1.332031 2.296875 1.632812 2 2 2 L 6.941406 2 Z M 5.332031 6 L 5.332031 9.269531 C 5.332031 9.863281 5.628906 10.417969 6.125 10.75 L 8 12 L 9.875 10.75 C 10.371094 10.417969 10.667969 9.863281 10.667969 9.269531 L 10.667969 6 Z M 6.667969 9.269531 L 6.667969 7.332031 L 9.332031 7.332031 L 9.332031 9.269531 C 9.332031 9.417969 9.257812 9.558594 9.136719 9.640625 L 8 10.394531 L 6.863281 9.640625 C 6.742188 9.558594 6.667969 9.417969 6.667969 9.269531 Z M 6.667969 9.269531 "/>
</g>
</svg>
