<?xml version="1.0" encoding="UTF-8"?>
<svg xmlns="http://www.w3.org/2000/svg" xmlns:xlink="http://www.w3.org/1999/xlink" width="16" height="16" viewBox="0 0 16 16" version="1.1">
<g id="surface1">
<path style=" stroke:none;fill-rule:nonzero;fill:rgb(100%,100%,100%);fill-opacity:1;" d="M 8.277344 3.332031 L 14 3.332031 C 14.367188 3.332031 14.667969 3.632812 14.667969 4 L 14.667969 13.332031 C 14.667969 13.703125 14.367188 14 14 14 L 2 14 C 1.632812 14 1.332031 13.703125 1.332031 13.332031 L 1.332031 2.667969 C 1.332031 2.296875 1.632812 2 2 2 L 6.941406 2 Z M 2.667969 3.332031 L 2.667969 12.667969 L 13.332031 12.667969 L 13.332031 4.667969 L 7.722656 4.667969 L 6.390625 3.332031 Z M 10 8.667969 L 10.667969 8.667969 L 10.667969 11.332031 L 5.332031 11.332031 L 5.332031 8.667969 L 6 8.667969 L 6 8 C 6 6.894531 6.894531 6 8 6 C 9.105469 6 10 6.894531 10 8 Z M 8.667969 8.667969 L 8.667969 8 C 8.667969 7.632812 8.367188 7.332031 8 7.332031 C 7.632812 7.332031 7.332031 7.632812 7.332031 8 L 7.332031 8.667969 Z M 8.667969 8.667969 "/>
</g>
</svg>
