<?xml version="1.0" encoding="UTF-8"?>
<svg xmlns="http://www.w3.org/2000/svg" xmlns:xlink="http://www.w3.org/1999/xlink" width="16" height="16" viewBox="0 0 16 16" version="1.1">
<g id="surface1">
<path style=" stroke:none;fill-rule:nonzero;fill:rgb(100%,100%,100%);fill-opacity:1;" d="M 14.667969 7.503906 C 12.8125 6.210938 10.296875 6.433594 8.699219 8.03125 C 7.101562 9.632812 6.878906 12.144531 8.171875 14 L 2 14 C 1.632812 14 1.332031 13.703125 1.332031 13.332031 L 1.332031 2.667969 C 1.332031 2.296875 1.632812 2 2 2 L 6.941406 2 L 8.277344 3.332031 L 14 3.332031 C 14.367188 3.332031 14.667969 3.632812 14.667969 4 Z M 12 14.667969 C 10.160156 14.667969 8.667969 13.175781 8.667969 11.332031 C 8.667969 9.492188 10.160156 8 12 8 C 13.839844 8 15.332031 9.492188 15.332031 11.332031 C 15.332031 13.175781 13.839844 14.667969 12 14.667969 Z M 11.136719 13.136719 C 11.902344 13.503906 12.816406 13.347656 13.414062 12.75 C 14.015625 12.148438 14.171875 11.238281 13.804688 10.472656 Z M 10.195312 12.195312 L 12.863281 9.527344 C 12.097656 9.164062 11.183594 9.320312 10.585938 9.917969 C 9.984375 10.519531 9.828125 11.429688 10.195312 12.195312 Z M 10.195312 12.195312 "/>
</g>
</svg>
