<?xml version="1.0" encoding="UTF-8"?>
<svg xmlns="http://www.w3.org/2000/svg" xmlns:xlink="http://www.w3.org/1999/xlink" width="16" height="16" viewBox="0 0 16 16" version="1.1">
<g id="surface1">
<path style=" stroke:none;fill-rule:nonzero;fill:rgb(100%,100%,100%);fill-opacity:1;" d="M 6.941406 2 L 8.277344 3.332031 L 14 3.332031 C 14.367188 3.332031 14.667969 3.632812 14.667969 4 L 14.667969 13.332031 C 14.667969 13.703125 14.367188 14 14 14 L 2 14 C 1.632812 14 1.332031 13.703125 1.332031 13.332031 L 1.332031 2.667969 C 1.332031 2.296875 1.632812 2 2 2 Z M 8 6 C 7.398438 6 6.867188 6.40625 6.710938 6.988281 C 6.554688 7.570312 6.8125 8.1875 7.332031 8.488281 L 7.332031 11.332031 L 8.667969 11.332031 L 8.667969 8.488281 C 9.191406 8.1875 9.445312 7.570312 9.289062 6.988281 C 9.132812 6.40625 8.605469 6 8 6 Z M 8 6 "/>
</g>
</svg>
