<?xml version="1.0" encoding="UTF-8"?>
<svg xmlns="http://www.w3.org/2000/svg" xmlns:xlink="http://www.w3.org/1999/xlink" width="16" height="16" viewBox="0 0 16 16" version="1.1">
<g id="surface1">
<path style=" stroke:none;fill-rule:nonzero;fill:rgb(100%,100%,100%);fill-opacity:1;" d="M 2.058594 6 L 13.941406 6 C 14.128906 6 14.304688 6.078125 14.433594 6.214844 C 14.558594 6.351562 14.621094 6.535156 14.605469 6.722656 L 14.050781 13.386719 C 14.023438 13.734375 13.734375 14 13.386719 14 L 2.613281 14 C 2.265625 14 1.976562 13.734375 1.949219 13.386719 L 1.394531 6.722656 C 1.378906 6.535156 1.441406 6.351562 1.566406 6.214844 C 1.695312 6.078125 1.871094 6 2.058594 6 Z M 3.226562 12.667969 L 12.773438 12.667969 L 13.21875 7.332031 L 2.78125 7.332031 Z M 8.941406 3.332031 L 13.332031 3.332031 C 13.703125 3.332031 14 3.632812 14 4 L 14 4.667969 L 2 4.667969 L 2 2.667969 C 2 2.296875 2.296875 2 2.667969 2 L 7.609375 2 Z M 8.941406 3.332031 "/>
</g>
</svg>
