<?xml version="1.0" encoding="UTF-8"?>
<svg xmlns="http://www.w3.org/2000/svg" xmlns:xlink="http://www.w3.org/1999/xlink" width="16" height="16" viewBox="0 0 16 16" version="1.1">
<g id="surface1">
<path style=" stroke:none;fill-rule:nonzero;fill:rgb(100%,100%,100%);fill-opacity:1;" d="M 1.382812 -0.0273438 C 0.546875 0.378906 0.0078125 1.296875 0.0078125 2.304688 L 0.00390625 16 L 2 16 L 2 4.183594 C 2 3.578125 2.429688 3.105469 2.976562 3.105469 L 13.1875 3.105469 C 13.640625 3.105469 14 3.5 14 4 L 14 16 L 15.996094 16 L 16 2.453125 C 16 1.402344 15.445312 0.445312 14.585938 0 C 9.003906 0.0234375 7.003906 0.0234375 1.382812 -0.0273438 Z M 1.382812 -0.0273438 "/>
<path style=" stroke:none;fill-rule:nonzero;fill:rgb(100%,100%,100%);fill-opacity:1;" d="M 4.617188 7 C 4.253906 7 3.929688 7.242188 3.832031 7.59375 L 3 11.53125 L 3 13.03125 C 3 13.308594 3.222656 13.53125 3.5 13.53125 L 3.5 15.734375 C 3.5 15.882812 3.617188 16 3.765625 16 L 5.167969 16 C 5.351562 16 5.5 15.851562 5.5 15.667969 L 5.5 14 L 10.496094 14 L 10.496094 15.734375 C 10.496094 15.882812 10.617188 16 10.761719 16 L 12.257812 16 C 12.390625 16 12.5 15.890625 12.5 15.757812 L 12.5 13.53125 C 12.78125 13.523438 13.007812 13.285156 13 13 L 13 11.53125 L 12.171875 7.597656 C 12.070312 7.242188 11.746094 7 11.378906 7 Z M 5.242188 8 L 10.867188 8 C 10.945312 8 11.015625 8.054688 11.039062 8.132812 L 11.578125 10 L 4.472656 10 L 4.9375 8.234375 C 4.976562 8.09375 5.101562 8 5.242188 8 Z M 4.492188 12 L 5.507812 12 C 5.78125 12 6 12.21875 6 12.492188 L 6 12.507812 C 6 12.78125 5.78125 13 5.507812 13 L 4.492188 13 C 4.21875 13 4 12.78125 4 12.507812 L 4 12.492188 C 4 12.21875 4.21875 12 4.492188 12 Z M 10.492188 12 L 11.507812 12 C 11.78125 12 12 12.21875 12 12.492188 L 12 12.507812 C 12 12.78125 11.78125 13 11.507812 13 L 10.492188 13 C 10.21875 13 10 12.78125 10 12.507812 L 10 12.492188 C 10 12.21875 10.21875 12 10.492188 12 Z M 10.492188 12 "/>
</g>
</svg>
