<?xml version="1.0" encoding="UTF-8"?>
<svg xmlns="http://www.w3.org/2000/svg" xmlns:xlink="http://www.w3.org/1999/xlink" width="16" height="16" viewBox="0 0 16 16" version="1.1">
<g id="surface1">
<path style=" stroke:none;fill-rule:nonzero;fill:rgb(100%,100%,100%);fill-opacity:1;" d="M 8 1.332031 C 11.3125 1.332031 14 4.019531 14 7.332031 L 14 12.332031 C 14 13.355469 13.332031 14.261719 12.355469 14.5625 C 11.378906 14.867188 10.316406 14.496094 9.738281 13.652344 C 9.386719 14.277344 8.71875 14.667969 8 14.667969 C 7.277344 14.667969 6.613281 14.277344 6.257812 13.652344 C 5.695312 14.476562 4.667969 14.847656 3.707031 14.578125 C 2.742188 14.308594 2.058594 13.460938 2.003906 12.460938 L 2 12.332031 L 2 7.332031 C 2 4.019531 4.6875 1.332031 8 1.332031 Z M 8 2.667969 C 5.484375 2.667969 3.421875 4.660156 3.335938 7.171875 L 3.332031 7.332031 L 3.332031 12.296875 L 3.335938 12.390625 C 3.359375 12.796875 3.628906 13.152344 4.015625 13.28125 C 4.40625 13.410156 4.835938 13.289062 5.097656 12.976562 L 5.15625 12.898438 C 5.417969 12.519531 5.855469 12.296875 6.3125 12.316406 C 6.773438 12.335938 7.191406 12.59375 7.417969 12.992188 C 7.535156 13.203125 7.757812 13.332031 8 13.332031 C 8.238281 13.332031 8.460938 13.203125 8.578125 12.996094 C 8.796875 12.609375 9.1875 12.359375 9.628906 12.320312 C 10.066406 12.285156 10.496094 12.46875 10.777344 12.808594 L 10.839844 12.898438 C 11.078125 13.246094 11.507812 13.40625 11.914062 13.300781 C 12.324219 13.199219 12.621094 12.847656 12.664062 12.429688 L 12.667969 12.332031 L 12.667969 7.332031 C 12.667969 4.757812 10.578125 2.667969 8 2.667969 Z M 8 8 C 8.738281 8 9.332031 8.746094 9.332031 9.667969 C 9.332031 10.585938 8.738281 11.332031 8 11.332031 C 7.261719 11.332031 6.667969 10.585938 6.667969 9.667969 C 6.667969 8.746094 7.261719 8 8 8 Z M 6.332031 5.332031 C 6.886719 5.332031 7.332031 5.78125 7.332031 6.332031 C 7.332031 6.886719 6.886719 7.332031 6.332031 7.332031 C 5.78125 7.332031 5.332031 6.886719 5.332031 6.332031 C 5.332031 5.78125 5.78125 5.332031 6.332031 5.332031 Z M 9.667969 5.332031 C 10.21875 5.332031 10.667969 5.78125 10.667969 6.332031 C 10.667969 6.886719 10.21875 7.332031 9.667969 7.332031 C 9.113281 7.332031 8.667969 6.886719 8.667969 6.332031 C 8.667969 5.78125 9.113281 5.332031 9.667969 5.332031 Z M 9.667969 5.332031 "/>
</g>
</svg>
