<?xml version="1.0" encoding="UTF-8"?>
<svg xmlns="http://www.w3.org/2000/svg" xmlns:xlink="http://www.w3.org/1999/xlink" width="16" height="16" viewBox="0 0 16 16" version="1.1">
<g id="surface1">
<path style=" stroke:none;fill-rule:nonzero;fill:rgb(100%,100%,100%);fill-opacity:1;" d="M 1.367188 8.667969 L 5.019531 8.667969 C 5.132812 10.777344 5.804688 12.820312 6.96875 14.585938 C 3.972656 14.117188 1.671875 11.683594 1.367188 8.667969 Z M 1.367188 7.332031 C 1.671875 4.316406 3.972656 1.882812 6.96875 1.414062 C 5.804688 3.179688 5.132812 5.222656 5.019531 7.332031 Z M 14.632812 7.332031 L 10.980469 7.332031 C 10.867188 5.222656 10.195312 3.179688 9.03125 1.414062 C 12.027344 1.882812 14.328125 4.316406 14.632812 7.332031 Z M 14.632812 8.667969 C 14.328125 11.683594 12.027344 14.117188 9.03125 14.585938 C 10.195312 12.820312 10.867188 10.777344 10.980469 8.667969 Z M 6.351562 8.667969 L 9.648438 8.667969 C 9.535156 10.464844 8.96875 12.207031 8 13.726562 C 7.03125 12.207031 6.464844 10.464844 6.351562 8.667969 Z M 6.351562 7.332031 C 6.464844 5.535156 7.03125 3.792969 8 2.273438 C 8.96875 3.792969 9.535156 5.535156 9.648438 7.332031 Z M 6.351562 7.332031 "/>
</g>
</svg>
