<?xml version="1.0" encoding="UTF-8"?>
<svg xmlns="http://www.w3.org/2000/svg" xmlns:xlink="http://www.w3.org/1999/xlink" width="16" height="16" viewBox="0 0 16 16" version="1.1">
<g id="surface1">
<path style=" stroke:none;fill-rule:nonzero;fill:rgb(100%,100%,100%);fill-opacity:1;" d="M 8.667969 14 L 12 14 L 12 15.332031 L 4 15.332031 L 4 14 L 7.332031 14 L 7.332031 13.300781 C 5.1875 13.085938 3.28125 11.847656 2.210938 9.976562 L 3.367188 9.3125 C 4.484375 11.261719 6.703125 12.304688 8.917969 11.917969 C 11.128906 11.53125 12.863281 9.796875 13.25 7.582031 C 13.636719 5.371094 12.597656 3.152344 10.648438 2.035156 L 11.308594 0.878906 C 13.386719 2.0625 14.667969 4.273438 14.667969 6.667969 C 14.667969 10.125 12.035156 12.964844 8.667969 13.300781 Z M 8 11.332031 C 5.421875 11.332031 3.332031 9.242188 3.332031 6.667969 C 3.332031 4.089844 5.421875 2 8 2 C 10.578125 2 12.667969 4.089844 12.667969 6.667969 C 12.667969 9.242188 10.578125 11.332031 8 11.332031 Z M 8 11.332031 "/>
</g>
</svg>
