<?xml version="1.0" encoding="UTF-8"?>
<svg xmlns="http://www.w3.org/2000/svg" xmlns:xlink="http://www.w3.org/1999/xlink" width="16" height="16" viewBox="0 0 16 16" version="1.1">
<g id="surface1">
<path style=" stroke:none;fill-rule:nonzero;fill:rgb(100%,100%,100%);fill-opacity:1;" d="M 8 10.667969 L 10 14.667969 L 6 14.667969 Z M 6.25 10.835938 C 4.980469 10.054688 4.386719 8.523438 4.792969 7.089844 C 5.199219 5.65625 6.511719 4.667969 8 4.667969 C 9.492188 4.667969 10.800781 5.65625 11.207031 7.089844 C 11.613281 8.523438 11.019531 10.054688 9.753906 10.835938 L 8.847656 9.03125 C 9.28125 8.671875 9.445312 8.078125 9.253906 7.550781 C 9.066406 7.019531 8.5625 6.667969 8 6.667969 C 7.4375 6.667969 6.933594 7.019531 6.746094 7.550781 C 6.554688 8.078125 6.71875 8.671875 7.152344 9.03125 Z M 4.753906 13.824219 C 2.640625 12.648438 1.332031 10.417969 1.332031 8 C 1.332031 4.316406 4.316406 1.332031 8 1.332031 C 11.683594 1.332031 14.667969 4.316406 14.667969 8 C 14.667969 10.417969 13.359375 12.648438 11.246094 13.824219 L 10.351562 12.03125 C 12.171875 10.972656 13.054688 8.820312 12.503906 6.785156 C 11.957031 4.75 10.109375 3.335938 8 3.335938 C 5.890625 3.335938 4.042969 4.75 3.496094 6.785156 C 2.945312 8.820312 3.828125 10.972656 5.648438 12.03125 Z M 4.753906 13.824219 "/>
</g>
</svg>
