<?xml version="1.0" encoding="UTF-8"?>
<svg xmlns="http://www.w3.org/2000/svg" xmlns:xlink="http://www.w3.org/1999/xlink" width="16" height="16" viewBox="0 0 16 16" version="1.1">
<g id="surface1">
<path style=" stroke:none;fill-rule:nonzero;fill:rgb(100%,100%,100%);fill-opacity:1;" d="M 8 14.667969 C 4.316406 14.667969 1.332031 11.683594 1.332031 8 C 1.332031 4.316406 4.316406 1.332031 8 1.332031 C 11.683594 1.332031 14.667969 4.316406 14.667969 8 C 14.667969 11.683594 11.683594 14.667969 8 14.667969 Z M 5.417969 7.332031 L 2.707031 7.332031 C 2.652344 7.777344 2.652344 8.222656 2.707031 8.667969 L 5.417969 8.667969 C 5.304688 8.230469 5.304688 7.769531 5.417969 7.332031 Z M 10.582031 7.332031 C 10.695312 7.769531 10.695312 8.230469 10.582031 8.667969 L 13.292969 8.667969 C 13.347656 8.222656 13.347656 7.777344 13.292969 7.332031 Z M 8 9.332031 C 8.738281 9.332031 9.332031 8.738281 9.332031 8 C 9.332031 7.261719 8.738281 6.667969 8 6.667969 C 7.261719 6.667969 6.667969 7.261719 6.667969 8 C 6.667969 8.738281 7.261719 9.332031 8 9.332031 Z M 8 9.332031 "/>
</g>
</svg>
