<?xml version="1.0" encoding="UTF-8"?>
<svg xmlns="http://www.w3.org/2000/svg" xmlns:xlink="http://www.w3.org/1999/xlink" width="16" height="16" viewBox="0 0 16 16" version="1.1">
<g id="surface1">
<path style=" stroke:none;fill-rule:nonzero;fill:rgb(100%,100%,100%);fill-opacity:1;" d="M 14.066406 5.332031 L 12.332031 8.332031 C 13.804688 8.332031 15 9.527344 15 11 C 15 12.472656 13.808594 13.667969 12.332031 13.667969 C 10.859375 13.667969 9.667969 12.472656 9.667969 11 C 9.667969 10.507812 9.800781 10.050781 10.03125 9.652344 L 12.523438 5.332031 Z M 2.667969 2.667969 L 2.667969 7.332031 L 7.332031 7.332031 L 7.332031 2.667969 L 8.667969 2.667969 L 8.667969 13.332031 L 7.332031 13.332031 L 7.332031 8.667969 L 2.667969 8.667969 L 2.667969 13.332031 L 1.332031 13.332031 L 1.332031 2.667969 Z M 12.332031 9.667969 C 11.597656 9.667969 11 10.261719 11 11 C 11 11.738281 11.597656 12.332031 12.332031 12.332031 C 13.070312 12.332031 13.667969 11.738281 13.667969 11 C 13.667969 10.261719 13.070312 9.667969 12.332031 9.667969 Z M 12.332031 9.667969 "/>
</g>
</svg>
