<?xml version="1.0" encoding="UTF-8"?>
<svg xmlns="http://www.w3.org/2000/svg" xmlns:xlink="http://www.w3.org/1999/xlink" width="16" height="16" viewBox="0 0 16 16" version="1.1">
<g id="surface1">
<path style=" stroke:none;fill-rule:nonzero;fill:rgb(100%,100%,100%);fill-opacity:1;" d="M 6.21875 7.667969 L 7.667969 7.667969 C 9.324219 7.667969 10.667969 9.011719 10.667969 10.667969 L 6 10.667969 L 6 11.332031 L 11.332031 11.332031 L 11.332031 10.667969 C 11.332031 9.957031 11.125 9.261719 10.742188 8.667969 L 12.667969 8.667969 C 13.953125 8.667969 15.125 9.40625 15.675781 10.566406 C 14.101562 12.648438 11.546875 14 8.667969 14 C 6.824219 14 5.265625 13.605469 4 12.917969 L 4 6.714844 C 4.8125 6.832031 5.578125 7.160156 6.21875 7.667969 Z M 2.667969 6 C 3.003906 6 3.289062 6.253906 3.328125 6.589844 L 3.332031 6.667969 L 3.332031 12.667969 C 3.332031 13.035156 3.035156 13.332031 2.667969 13.332031 L 1.332031 13.332031 C 0.964844 13.332031 0.667969 13.035156 0.667969 12.667969 L 0.667969 6.667969 C 0.667969 6.296875 0.964844 6 1.332031 6 Z M 9.097656 2.382812 L 9.332031 2.621094 L 9.570312 2.382812 C 9.988281 1.960938 10.605469 1.792969 11.183594 1.945312 C 11.757812 2.101562 12.210938 2.550781 12.363281 3.128906 C 12.515625 3.707031 12.351562 4.320312 11.925781 4.742188 L 9.332031 7.332031 L 6.738281 4.738281 C 6.316406 4.320312 6.148438 3.703125 6.304688 3.128906 C 6.457031 2.550781 6.90625 2.097656 7.484375 1.945312 C 8.0625 1.792969 8.675781 1.960938 9.097656 2.382812 Z M 9.097656 2.382812 "/>
</g>
</svg>
