<?xml version="1.0" encoding="UTF-8"?>
<svg xmlns="http://www.w3.org/2000/svg" xmlns:xlink="http://www.w3.org/1999/xlink" width="16" height="16" viewBox="0 0 16 16" version="1.1">
<g id="surface1">
<path style=" stroke:none;fill-rule:nonzero;fill:rgb(100%,100%,100%);fill-opacity:1;" d="M 4.054688 8.667969 C 3.792969 7.101562 4.480469 5.527344 5.8125 4.65625 C 7.140625 3.785156 8.859375 3.785156 10.1875 4.65625 C 11.519531 5.527344 12.207031 7.101562 11.945312 8.667969 Z M 1.332031 10 L 8 10 L 8 11.332031 L 1.332031 11.332031 Z M 9.332031 10 L 14.667969 10 L 14.667969 11.332031 L 9.332031 11.332031 Z M 10.667969 12.667969 L 13.332031 12.667969 L 13.332031 14 L 10.667969 14 Z M 2.667969 12.667969 L 9.332031 12.667969 L 9.332031 14 L 2.667969 14 Z M 7.332031 0.667969 L 8.667969 0.667969 L 8.667969 2.667969 L 7.332031 2.667969 Z M 2.34375 3.285156 L 3.285156 2.34375 L 4.699219 3.757812 L 3.757812 4.699219 Z M 12.714844 2.34375 L 13.65625 3.285156 L 12.242188 4.699219 L 11.300781 3.757812 Z M 15.332031 7.332031 L 15.332031 8.667969 L 13.332031 8.667969 L 13.332031 7.332031 Z M 2.667969 7.332031 L 2.667969 8.667969 L 0.667969 8.667969 L 0.667969 7.332031 Z M 2.667969 7.332031 "/>
</g>
</svg>
