<?xml version="1.0" encoding="UTF-8"?>
<svg xmlns="http://www.w3.org/2000/svg" xmlns:xlink="http://www.w3.org/1999/xlink" width="16" height="16" viewBox="0 0 16 16" version="1.1">
<g id="surface1">
<path style=" stroke:none;fill-rule:nonzero;fill:rgb(100%,100%,100%);fill-opacity:1;" d="M 8.003906 0.015625 C 6.335938 0.015625 4.648438 0.523438 3.328125 1.617188 C 2.015625 2.707031 1.125 4.421875 1.125 6.507812 L 1.125 9.21875 C 0.453125 9.632812 0 10.382812 0 11.25 L 0 13.617188 C 0 14.929688 1.023438 15.992188 2.285156 15.992188 L 3.570312 15.992188 C 4.125 15.992188 4.570312 15.542969 4.570312 14.992188 L 4.570312 9.878906 C 4.570312 9.328125 4.125 8.878906 3.570312 8.878906 L 3.449219 8.878906 L 3.449219 6.507812 C 3.449219 5.042969 3.988281 4.085938 4.8125 3.402344 C 5.640625 2.71875 6.816406 2.339844 8.003906 2.339844 C 9.191406 2.339844 10.359375 2.71875 11.183594 3.402344 C 12.007812 4.085938 12.550781 5.042969 12.550781 6.507812 L 12.550781 8.878906 L 12.429688 8.878906 C 11.875 8.878906 11.429688 9.328125 11.429688 9.878906 L 11.429688 14.992188 C 11.429688 15.542969 11.875 15.992188 12.429688 15.992188 L 13.714844 15.992188 C 14.976562 15.992188 16 14.929688 16 13.617188 L 16 11.25 C 16 10.382812 15.546875 9.632812 14.875 9.21875 L 14.875 6.507812 C 14.875 4.421875 13.984375 2.707031 12.667969 1.617188 C 11.351562 0.523438 9.671875 0.015625 8.003906 0.015625 Z M 8.003906 0.015625 "/>
</g>
</svg>
