<?xml version="1.0" encoding="UTF-8"?>
<svg xmlns="http://www.w3.org/2000/svg" xmlns:xlink="http://www.w3.org/1999/xlink" width="16" height="16" viewBox="0 0 16 16" version="1.1">
<g id="surface1">
<path style=" stroke:none;fill-rule:nonzero;fill:rgb(100%,100%,100%);fill-opacity:1;" d="M 12.828125 3.171875 C 13.804688 4.148438 14.171875 5.5 13.929688 6.757812 C 14.308594 6.863281 14.664062 7.066406 14.964844 7.363281 C 15.902344 8.292969 15.902344 9.800781 14.964844 10.726562 L 11.332031 14.332031 L 9.320312 12.332031 L 7.332031 14.324219 L 1.679688 8.660156 C 0.277344 7.089844 0.332031 4.679688 1.839844 3.171875 C 3.347656 1.660156 5.761719 1.613281 7.335938 3.019531 C 8.898438 1.613281 11.320312 1.660156 12.828125 3.171875 Z M 8.640625 8.308594 C 8.230469 8.71875 8.230469 9.375 8.640625 9.78125 L 11.332031 12.453125 L 14.023438 9.78125 C 14.4375 9.375 14.4375 8.71875 14.023438 8.308594 C 13.609375 7.898438 12.929688 7.898438 12.511719 8.3125 L 11.332031 9.480469 L 10.394531 8.550781 L 10.152344 8.308594 C 9.734375 7.898438 9.058594 7.898438 8.640625 8.308594 Z M 2.78125 4.113281 C 1.789062 5.109375 1.738281 6.699219 2.652344 7.75 L 7.332031 12.4375 L 8.371094 11.394531 L 7.703125 10.726562 C 6.765625 9.800781 6.765625 8.292969 7.703125 7.363281 C 8.636719 6.433594 10.15625 6.433594 11.089844 7.363281 L 11.332031 7.601562 L 11.574219 7.363281 C 11.859375 7.082031 12.195312 6.886719 12.550781 6.773438 C 12.828125 5.863281 12.605469 4.835938 11.882812 4.113281 C 10.882812 3.113281 9.269531 3.070312 8.226562 4.011719 L 7.335938 4.808594 L 6.445312 4.011719 C 5.394531 3.070312 3.785156 3.113281 2.78125 4.113281 Z M 2.78125 4.113281 "/>
</g>
</svg>
