<?xml version="1.0" encoding="UTF-8"?>
<svg xmlns="http://www.w3.org/2000/svg" xmlns:xlink="http://www.w3.org/1999/xlink" width="16" height="16" viewBox="0 0 16 16" version="1.1">
<g id="surface1">
<path style=" stroke:none;fill-rule:evenodd;fill:rgb(100%,100%,100%);fill-opacity:1;" d="M 0.5 0 C 0.226562 0 0 0.226562 0 0.5 L 0 15.5 C 0 15.773438 0.226562 16 0.5 16 L 15.5 16 C 15.773438 16 16 15.773438 16 15.5 L 16 0.5 C 16 0.226562 15.773438 0 15.5 0 Z M 8 2.5 C 11.042969 2.5 13.5 4.957031 13.5 8 C 13.5 11.042969 11.042969 13.5 8 13.5 C 4.957031 13.5 2.5 11.042969 2.5 8 C 2.5 4.957031 4.957031 2.5 8 2.5 Z M 8 2.5 "/>
<path style="fill-rule:nonzero;fill:rgb(100%,100%,100%);fill-opacity:1;stroke-width:0.0248215;stroke-linecap:butt;stroke-linejoin:miter;stroke:rgb(100%,100%,100%);stroke-opacity:1;stroke-miterlimit:4;" d="M 2.761588 3.093351 C 2.695443 3.073714 2.6479 3.030306 2.607593 2.949691 C 2.597257 2.930054 2.57452 2.871143 2.557983 2.821533 C 2.505273 2.659269 2.465999 2.594157 2.34921 2.474268 L 2.302702 2.424658 L 2.270662 2.442228 C 2.216919 2.4691 2.169377 2.479435 2.106331 2.476335 L 2.053621 2.473234 L 2.036051 2.512508 C 2.000911 2.586922 1.925464 2.687175 1.827279 2.789494 C 1.672249 2.950724 1.535823 3.03134 1.404565 3.037541 C 1.274341 3.044775 1.170988 2.980697 1.079004 2.834969 C 1.000456 2.709912 0.957047 2.576587 0.957047 2.458765 C 0.957047 2.30787 1.019059 2.213818 1.136881 2.189014 C 1.182357 2.178678 1.261938 2.182813 1.334285 2.198315 C 1.496549 2.235522 1.579232 2.234489 1.736328 2.190047 L 1.808675 2.169377 L 1.811776 2.127002 C 1.816943 2.057756 1.839681 1.99471 1.877921 1.946134 C 1.88619 1.934766 1.893424 1.92443 1.893424 1.922363 C 1.893424 1.920296 1.888257 1.913062 1.882056 1.904793 C 1.823144 1.832446 1.737362 1.580265 1.71359 1.412834 C 1.691886 1.264006 1.702222 1.147217 1.74563 1.056266 C 1.811776 0.915706 1.948201 0.851628 2.163175 0.860929 C 2.365747 0.869198 2.522843 0.946712 2.581754 1.070736 C 2.610693 1.132747 2.607593 1.198893 2.572453 1.275374 C 2.550749 1.32085 2.525944 1.357023 2.4691 1.423169 C 2.364713 1.543058 2.325439 1.621606 2.286165 1.781803 C 2.278931 1.812809 2.270662 1.840715 2.270662 1.844849 C 2.268595 1.850016 2.276863 1.858285 2.296501 1.872754 C 2.351278 1.908927 2.406055 1.980241 2.422591 2.033984 L 2.427759 2.051554 L 2.511474 2.051554 C 2.604492 2.051554 2.673738 2.06189 2.794661 2.094963 C 2.918685 2.128036 3.024105 2.173511 3.103686 2.228288 C 3.256649 2.334741 3.311426 2.487703 3.256649 2.66237 C 3.219442 2.777092 3.126424 2.923853 3.042708 2.9962 C 2.948657 3.077848 2.83807 3.116089 2.761588 3.093351 Z M 2.761588 3.093351 " transform="matrix(3.779527,0,0,3.779527,0.00000056693,0)"/>
</g>
</svg>
