<?xml version="1.0" encoding="UTF-8"?>
<svg xmlns="http://www.w3.org/2000/svg" xmlns:xlink="http://www.w3.org/1999/xlink" width="16" height="16" viewBox="0 0 16 16" version="1.1">
<g id="surface1">
<path style=" stroke:none;fill-rule:nonzero;fill:rgb(100%,100%,100%);fill-opacity:1;" d="M 5.742188 13.414062 C 3.910156 14.40625 2.332031 14.613281 1.460938 13.738281 C 0.5625 12.847656 1.042969 10.507812 2.335938 8.15625 C 2.992188 6.964844 3.804688 5.863281 4.75 4.878906 C 4.875 4.753906 5.5 4.128906 5.542969 4.128906 C 5.542969 4.128906 5.210938 4.339844 5.167969 4.339844 C 3.867188 5.070312 2.726562 6.394531 2.476562 6.6875 C 3.128906 3.78125 5.816406 1.789062 8.789062 2.015625 C 10.851562 1.082031 12.769531 0.867188 13.582031 1.675781 C 14.332031 2.425781 14.292969 3.671875 13.667969 5.171875 C 13.660156 5.183594 13.65625 5.199219 13.648438 5.214844 C 14.101562 6.074219 14.335938 7.03125 14.332031 8 C 14.332031 8.253906 14.316406 8.503906 14.289062 8.746094 L 13.75 8.746094 C 13.71875 8.746094 13.6875 8.75 13.65625 8.75 L 5.792969 8.75 L 5.792969 8.875 C 5.835938 10.203125 7 11.371094 8.417969 11.371094 C 9.417969 11.371094 10.375 10.828125 10.792969 10.039062 L 13.980469 10.039062 C 13.402344 11.632812 12.179688 12.910156 10.609375 13.554688 C 9.039062 14.195312 7.269531 14.144531 5.742188 13.414062 Z M 5.335938 13.199219 C 4.109375 12.488281 3.171875 11.371094 2.6875 10.039062 C 1.914062 11.558594 1.714844 12.832031 2.375 13.492188 C 2.917969 14.03125 4 13.90625 5.335938 13.199219 Z M 13.449219 4.863281 C 13.453125 4.855469 13.453125 4.847656 13.457031 4.839844 C 13.957031 3.757812 14 2.84375 13.542969 2.300781 C 12.960938 1.722656 11.847656 1.800781 10.527344 2.414062 C 11.738281 2.890625 12.765625 3.75 13.449219 4.863281 Z M 11.042969 7.167969 L 11.042969 7.128906 C 10.957031 5.753906 9.875 4.714844 8.542969 4.714844 C 7.125 4.714844 5.917969 5.835938 5.835938 7.128906 L 5.835938 7.167969 Z M 11.042969 7.167969 "/>
</g>
</svg>
