<?xml version="1.0" encoding="UTF-8"?>
<svg xmlns="http://www.w3.org/2000/svg" xmlns:xlink="http://www.w3.org/1999/xlink" width="16" height="16" viewBox="0 0 16 16" version="1.1">
<g id="surface1">
<path style=" stroke:none;fill-rule:nonzero;fill:rgb(100%,100%,100%);fill-opacity:1;" d="M 3.625 12.359375 L 12.359375 12.359375 L 12.359375 8.703125 L 10.570312 6.453125 L 7.875 9.453125 L 5.863281 7.992188 L 3.625 10.039062 Z M 3.625 12.359375 "/>
<path style=" stroke:none;fill-rule:nonzero;fill:rgb(100%,100%,100%);fill-opacity:1;" d="M 10.5625 5.816406 C 10.382812 5.820312 10.21875 5.898438 10.101562 6.03125 L 7.78125 8.605469 L 6.242188 7.476562 C 5.992188 7.300781 5.65625 7.320312 5.4375 7.523438 L 3.191406 9.5625 C 3.0625 9.6875 2.988281 9.859375 2.988281 10.035156 L 2.988281 12.363281 C 2.988281 12.714844 3.273438 13 3.625 13 L 12.351562 13 C 12.703125 13 12.992188 12.714844 12.988281 12.363281 L 12.988281 8.707031 C 12.992188 8.5625 12.945312 8.421875 12.859375 8.308594 L 11.070312 6.054688 C 10.945312 5.902344 10.757812 5.8125 10.5625 5.816406 Z M 10.5625 5.816406 "/>
<path style=" stroke:none;fill-rule:nonzero;fill:rgb(100%,100%,100%);fill-opacity:1;" d="M 6.519531 5 C 6.519531 5.972656 5.730469 6.757812 4.757812 6.757812 C 3.789062 6.757812 3 5.972656 3 5 C 3 4.027344 3.789062 3.242188 4.757812 3.242188 C 5.730469 3.242188 6.519531 4.027344 6.519531 5 "/>
<path style=" stroke:none;fill-rule:evenodd;fill:rgb(100%,100%,100%);fill-opacity:1;" d="M 1.480469 0.996094 C 1.203125 0.992188 0.976562 1.21875 0.976562 1.5 L 0.976562 14.5 C 0.980469 14.777344 1.203125 15 1.480469 14.996094 L 14.492188 14.996094 C 14.769531 15 14.992188 14.777344 14.996094 14.5 L 14.996094 1.5 C 15 1.21875 14.773438 0.992188 14.492188 0.996094 Z M 1.984375 2 L 14 2 L 14 14 L 1.984375 14 Z M 1.984375 2 "/>
</g>
</svg>
