<?xml version="1.0" encoding="UTF-8"?>
<svg xmlns="http://www.w3.org/2000/svg" xmlns:xlink="http://www.w3.org/1999/xlink" width="16" height="16" viewBox="0 0 16 16" version="1.1">
<g id="surface1">
<path style=" stroke:none;fill-rule:nonzero;fill:rgb(100%,100%,100%);fill-opacity:1;" d="M 16 7.949219 C 16 9.0625 15.617188 10.039062 14.851562 10.863281 C 14.085938 11.691406 13.03125 12.105469 11.695312 12.105469 C 9.984375 12.105469 8.742188 11.351562 7.960938 9.839844 L 7.71875 9.839844 C 6.695312 11.351562 5.515625 12.105469 4.179688 12.105469 C 2.875 12.105469 1.847656 11.703125 1.105469 10.898438 C 0.367188 10.09375 0 9.140625 0 8.039062 C 0 6.921875 0.382812 5.953125 1.148438 5.136719 C 1.914062 4.308594 2.96875 3.894531 4.304688 3.894531 C 6.148438 3.894531 7.445312 4.597656 8.199219 6 L 8.429688 6 C 9.421875 4.597656 10.546875 3.894531 11.808594 3.894531 C 13.117188 3.894531 14.140625 4.296875 14.882812 5.101562 C 15.628906 5.90625 16 6.855469 16 7.949219 Z M 7.039062 8.382812 C 6.460938 6.574219 5.621094 5.671875 4.523438 5.671875 C 3.875 5.671875 3.363281 5.910156 2.984375 6.390625 C 2.601562 6.859375 2.414062 7.410156 2.414062 8.039062 C 2.414062 8.664062 2.601562 9.203125 2.972656 9.65625 C 3.351562 10.105469 3.867188 10.328125 4.523438 10.328125 C 5.59375 10.328125 6.429688 9.679688 7.039062 8.382812 Z M 13.585938 8.074219 C 13.585938 7.4375 13.390625 6.878906 12.992188 6.398438 C 12.605469 5.914062 12.089844 5.671875 11.445312 5.671875 C 10.429688 5.671875 9.601562 6.300781 8.960938 7.5625 C 9.699219 9.40625 10.523438 10.328125 11.445312 10.328125 C 12.113281 10.328125 12.636719 10.109375 13.015625 9.667969 C 13.398438 9.21875 13.585938 8.6875 13.585938 8.074219 Z M 13.585938 8.074219 "/>
</g>
</svg>
