<?xml version="1.0" encoding="UTF-8"?>
<svg xmlns="http://www.w3.org/2000/svg" xmlns:xlink="http://www.w3.org/1999/xlink" width="16" height="16" viewBox="0 0 16 16" version="1.1">
<g id="surface1">
<path style=" stroke:none;fill-rule:evenodd;fill:rgb(100%,100%,100%);fill-opacity:1;" d="M 5.242188 8.078125 C 5.214844 8.0625 5.191406 8.042969 5.171875 8.023438 C 5.074219 7.929688 5.015625 7.804688 5.015625 7.671875 C 5.011719 7.539062 5.0625 7.414062 5.152344 7.3125 C 5.882812 6.546875 6.886719 6.097656 7.945312 6.070312 C 9.007812 6.042969 10.03125 6.4375 10.804688 7.171875 C 11 7.359375 11.007812 7.671875 10.824219 7.871094 C 10.734375 7.96875 10.609375 8.023438 10.476562 8.027344 C 10.34375 8.03125 10.210938 7.980469 10.117188 7.890625 C 9.539062 7.34375 8.769531 7.046875 7.976562 7.070312 C 7.179688 7.089844 6.425781 7.429688 5.875 8.003906 C 5.710938 8.179688 5.445312 8.210938 5.242188 8.078125 Z M 5.242188 8.078125 "/>
<path style=" stroke:none;fill-rule:evenodd;fill:rgb(100%,100%,100%);fill-opacity:1;" d="M 3.792969 6.695312 C 3.765625 6.679688 3.742188 6.65625 3.722656 6.640625 C 3.625 6.546875 3.570312 6.421875 3.566406 6.289062 C 3.5625 6.15625 3.609375 6.027344 3.703125 5.929688 C 4.796875 4.777344 6.308594 4.109375 7.898438 4.070312 C 9.492188 4.03125 11.03125 4.625 12.1875 5.722656 C 12.382812 5.914062 12.390625 6.226562 12.199219 6.425781 C 12.007812 6.617188 11.699219 6.625 11.5 6.441406 C 10.539062 5.527344 9.253906 5.035156 7.929688 5.070312 C 6.601562 5.101562 5.34375 5.65625 4.429688 6.617188 C 4.265625 6.796875 3.992188 6.828125 3.792969 6.695312 Z M 3.792969 6.695312 "/>
<path style=" stroke:none;fill-rule:evenodd;fill:rgb(100%,100%,100%);fill-opacity:1;" d="M 2.347656 5.320312 C 2.320312 5.304688 2.292969 5.28125 2.269531 5.257812 C 2.171875 5.167969 2.117188 5.042969 2.113281 4.910156 C 2.109375 4.777344 2.160156 4.648438 2.25 4.554688 C 3.710938 3.015625 5.726562 2.121094 7.847656 2.066406 C 9.96875 2.015625 12.027344 2.808594 13.5625 4.269531 C 13.660156 4.359375 13.71875 4.484375 13.71875 4.617188 C 13.726562 4.75 13.671875 4.882812 13.585938 4.976562 C 13.492188 5.074219 13.367188 5.128906 13.234375 5.132812 C 13.101562 5.136719 12.972656 5.085938 12.875 4.996094 C 11.53125 3.71875 9.730469 3.015625 7.875 3.066406 C 6.019531 3.113281 4.257812 3.898438 2.976562 5.242188 C 2.8125 5.414062 2.546875 5.445312 2.347656 5.320312 Z M 2.347656 5.320312 "/>
<path style=" stroke:none;fill-rule:evenodd;fill:rgb(100%,100%,100%);fill-opacity:1;" d="M 0.914062 3.109375 C 0.789062 3.304688 0.820312 3.5625 0.984375 3.726562 C 1.078125 3.820312 1.203125 3.875 1.335938 3.875 C 1.46875 3.875 1.59375 3.820312 1.6875 3.726562 C 5.171875 0.246094 10.78125 0.199219 14.3125 3.625 C 14.40625 3.71875 14.539062 3.769531 14.671875 3.765625 C 14.804688 3.765625 14.929688 3.710938 15.023438 3.617188 C 15.117188 3.519531 15.164062 3.390625 15.164062 3.257812 C 15.160156 3.125 15.101562 3 15.007812 2.90625 C 11.089844 -0.890625 4.839844 -0.839844 0.984375 3.015625 C 0.953125 3.046875 0.933594 3.074219 0.914062 3.109375 Z M 0.914062 3.109375 "/>
<path style=" stroke:none;fill-rule:nonzero;fill:rgb(100%,100%,100%);fill-opacity:1;" d="M 4.28125 15.90625 L 4.28125 9.226562 L 5.382812 9.226562 L 5.382812 15.90625 Z M 4.28125 15.90625 "/>
<path style=" stroke:none;fill-rule:nonzero;fill:rgb(100%,100%,100%);fill-opacity:1;" d="M 6.449219 15.90625 L 6.449219 9.226562 L 8.777344 9.226562 C 9.375 9.226562 9.796875 9.289062 10.054688 9.40625 C 10.308594 9.527344 10.519531 9.734375 10.683594 10.03125 C 10.847656 10.328125 10.929688 10.679688 10.929688 11.09375 C 10.929688 11.617188 10.804688 12.039062 10.550781 12.359375 C 10.300781 12.675781 9.945312 12.875 9.484375 12.960938 C 9.71875 13.128906 9.917969 13.316406 10.070312 13.519531 C 10.226562 13.71875 10.4375 14.082031 10.703125 14.601562 L 11.371094 15.90625 L 10.054688 15.90625 L 9.25 14.453125 C 8.960938 13.929688 8.765625 13.601562 8.664062 13.46875 C 8.5625 13.335938 8.453125 13.242188 8.335938 13.195312 C 8.21875 13.144531 8.035156 13.117188 7.78125 13.117188 L 7.554688 13.117188 L 7.554688 15.90625 Z M 7.554688 12.054688 L 8.375 12.054688 C 8.875 12.054688 9.195312 12.03125 9.328125 11.988281 C 9.46875 11.945312 9.578125 11.851562 9.664062 11.71875 C 9.746094 11.585938 9.789062 11.40625 9.789062 11.1875 C 9.789062 10.976562 9.746094 10.804688 9.664062 10.675781 C 9.578125 10.546875 9.460938 10.453125 9.316406 10.40625 C 9.210938 10.375 8.914062 10.359375 8.417969 10.359375 L 7.554688 10.359375 Z M 7.554688 12.054688 "/>
</g>
</svg>
