<?xml version="1.0" encoding="UTF-8"?>
<svg xmlns="http://www.w3.org/2000/svg" xmlns:xlink="http://www.w3.org/1999/xlink" width="16" height="16" viewBox="0 0 16 16" version="1.1">
<g id="surface1">
<path style=" stroke:none;fill-rule:nonzero;fill:rgb(100%,100%,100%);fill-opacity:1;" d="M 8 2 C 11.867188 2 15 4.441406 15 7.457031 C 15 10.46875 11.867188 12.914062 8 12.914062 C 7.613281 12.914062 7.230469 12.886719 6.847656 12.839844 L 3.910156 14.761719 C 3.574219 14.9375 3.457031 14.917969 3.59375 14.484375 L 4.191406 12.035156 C 2.269531 11.0625 1 9.375 1 7.457031 C 1 4.441406 4.132812 2 8 2 Z M 11.9375 7.375 L 12.917969 6.425781 C 13.035156 6.300781 13.035156 6.109375 12.917969 5.988281 C 12.800781 5.863281 12.605469 5.859375 12.480469 5.972656 L 11.195312 7.214844 L 11.195312 6.1875 C 11.195312 6.015625 11.054688 5.875 10.878906 5.875 C 10.707031 5.875 10.566406 6.015625 10.566406 6.1875 L 10.566406 7.894531 C 10.554688 7.941406 10.554688 7.992188 10.566406 8.039062 L 10.566406 9 C 10.566406 9.171875 10.707031 9.316406 10.878906 9.316406 C 11.054688 9.316406 11.195312 9.171875 11.195312 9 L 11.195312 8.089844 L 11.480469 7.816406 L 12.433594 9.171875 C 12.53125 9.3125 12.726562 9.347656 12.871094 9.246094 C 13.011719 9.148438 13.046875 8.953125 12.949219 8.808594 L 11.9375 7.371094 Z M 9.964844 8.65625 L 8.992188 8.65625 L 8.992188 6.199219 C 8.984375 6.03125 8.847656 5.898438 8.679688 5.898438 C 8.511719 5.898438 8.371094 6.03125 8.363281 6.199219 L 8.363281 8.96875 C 8.363281 9.144531 8.503906 9.285156 8.679688 9.285156 L 9.964844 9.285156 C 10.140625 9.285156 10.28125 9.144531 10.28125 8.96875 C 10.28125 8.796875 10.140625 8.65625 9.964844 8.65625 Z M 6.0625 7.929688 L 6.523438 6.789062 L 6.949219 7.929688 Z M 7.742188 8.253906 L 7.746094 8.242188 C 7.746094 8.164062 7.714844 8.085938 7.660156 8.03125 L 6.960938 6.164062 C 6.902344 5.980469 6.734375 5.855469 6.542969 5.847656 C 6.351562 5.847656 6.179688 5.964844 6.109375 6.144531 L 5.003906 8.863281 C 4.9375 9.023438 5.011719 9.207031 5.175781 9.273438 C 5.335938 9.335938 5.519531 9.261719 5.585938 9.097656 L 5.804688 8.558594 L 7.183594 8.558594 L 7.382812 9.089844 C 7.421875 9.199219 7.515625 9.277344 7.625 9.300781 C 7.738281 9.320312 7.855469 9.277344 7.925781 9.1875 C 8 9.097656 8.015625 8.976562 7.972656 8.871094 Z M 5.527344 6.203125 C 5.527344 6.027344 5.386719 5.886719 5.214844 5.886719 L 3.050781 5.886719 C 2.878906 5.886719 2.738281 6.027344 2.738281 6.203125 C 2.738281 6.375 2.878906 6.515625 3.050781 6.515625 L 3.824219 6.515625 L 3.824219 9.007812 C 3.824219 9.179688 3.964844 9.320312 4.140625 9.320312 C 4.3125 9.320312 4.453125 9.179688 4.453125 9.007812 L 4.453125 6.515625 L 5.214844 6.515625 C 5.386719 6.515625 5.527344 6.375 5.527344 6.203125 Z M 5.527344 6.203125 "/>
</g>
</svg>
