<?xml version="1.0" encoding="UTF-8"?>
<svg xmlns="http://www.w3.org/2000/svg" xmlns:xlink="http://www.w3.org/1999/xlink" width="16" height="16" viewBox="0 0 16 16" version="1.1">
<g id="surface1">
<path style=" stroke:none;fill-rule:nonzero;fill:rgb(100%,100%,100%);fill-opacity:1;" d="M 11.617188 0.03125 C 10.820312 0.03125 9.90625 0.0859375 9.070312 0.464844 C 8.511719 0.71875 7.992188 1.144531 7.664062 1.773438 C 7.636719 1.820312 7.621094 1.875 7.597656 1.921875 C 8.625 2.664062 9.195312 4 9.183594 5.78125 C 10.734375 4.972656 12.429688 3.578125 12.988281 0.789062 C 13.023438 0.605469 12.976562 0.414062 12.855469 0.265625 C 12.734375 0.117188 12.554688 0.0351562 12.367188 0.0351562 C 12.132812 0.0351562 11.882812 0.03125 11.617188 0.03125 Z M 11.617188 0.03125 "/>
<path style=" stroke:none;fill-rule:nonzero;fill:rgb(100%,100%,100%);fill-opacity:1;" d="M 4.101562 1.773438 C 3.902344 1.773438 3.71875 1.863281 3.597656 2.015625 C 3.476562 2.171875 3.4375 2.375 3.488281 2.566406 C 3.664062 3.242188 3.992188 4.253906 4.648438 5.214844 C 5.199219 6.023438 6.15625 6.667969 7.261719 7.109375 L 7.261719 10 L 8.527344 10 L 8.527344 6.242188 C 8.648438 4.296875 8.09375 3.042969 7.144531 2.414062 C 6.195312 1.78125 5.0625 1.773438 4.101562 1.773438 Z M 4.101562 1.773438 "/>
<path style=" stroke:none;fill-rule:evenodd;fill:rgb(100%,100%,100%);fill-opacity:1;" d="M 2 11 C 0.890625 11 0 11.890625 0 13 L 0 14 C 0 15.109375 0.890625 16 2 16 L 14 16 C 15.109375 16 16 15.109375 16 14 L 16 13 C 16 11.890625 15.109375 11 14 11 Z M 12 12 L 14 12 C 14.554688 12 15 12.445312 15 13 L 15 14 C 15 14.554688 14.554688 15 14 15 L 12 15 Z M 12 12 "/>
</g>
</svg>
