<?xml version="1.0" encoding="UTF-8"?>
<svg xmlns="http://www.w3.org/2000/svg" xmlns:xlink="http://www.w3.org/1999/xlink" width="16" height="16" viewBox="0 0 16 16" version="1.1">
<g id="surface1">
<path style=" stroke:none;fill-rule:nonzero;fill:rgb(100%,100%,100%);fill-opacity:1;" d="M 12.667969 6.667969 L 13.332031 6.667969 C 13.703125 6.667969 14 6.964844 14 7.332031 L 14 14 C 14 14.367188 13.703125 14.667969 13.332031 14.667969 L 2.667969 14.667969 C 2.296875 14.667969 2 14.367188 2 14 L 2 7.332031 C 2 6.964844 2.296875 6.667969 2.667969 6.667969 L 3.332031 6.667969 L 3.332031 6 C 3.332031 3.421875 5.421875 1.332031 8 1.332031 C 10.578125 1.332031 12.667969 3.421875 12.667969 6 Z M 3.332031 8 L 3.332031 13.332031 L 12.667969 13.332031 L 12.667969 8 Z M 7.332031 9.332031 L 8.667969 9.332031 L 8.667969 12 L 7.332031 12 Z M 11.332031 6.667969 L 11.332031 6 C 11.332031 4.160156 9.839844 2.667969 8 2.667969 C 6.160156 2.667969 4.667969 4.160156 4.667969 6 L 4.667969 6.667969 Z M 11.332031 6.667969 "/>
</g>
</svg>
