<?xml version="1.0" encoding="UTF-8"?>
<svg xmlns="http://www.w3.org/2000/svg" xmlns:xlink="http://www.w3.org/1999/xlink" width="16" height="16" viewBox="0 0 16 16" version="1.1">
<g id="surface1">
<path style=" stroke:none;fill-rule:nonzero;fill:rgb(100%,100%,100%);fill-opacity:1;" d="M 3.667969 13.332031 C 4.21875 13.332031 4.667969 13.78125 4.667969 14.332031 C 4.667969 14.886719 4.21875 15.332031 3.667969 15.332031 C 3.113281 15.332031 2.667969 14.886719 2.667969 14.332031 C 2.667969 13.78125 3.113281 13.332031 3.667969 13.332031 Z M 12.332031 13.332031 C 12.886719 13.332031 13.332031 13.78125 13.332031 14.332031 C 13.332031 14.886719 12.886719 15.332031 12.332031 15.332031 C 11.78125 15.332031 11.332031 14.886719 11.332031 14.332031 C 11.332031 13.78125 11.78125 13.332031 12.332031 13.332031 Z M 1.449219 1.171875 L 4 3.722656 L 4 11.332031 L 13.332031 11.332031 L 13.332031 12.667969 L 3.332031 12.667969 C 2.964844 12.667969 2.667969 12.367188 2.667969 12 L 2.667969 4.273438 L 0.503906 2.113281 Z M 10.667969 2 C 11.035156 2 11.332031 2.296875 11.332031 2.667969 L 11.332031 4 L 13.328125 4 C 13.699219 4 14 4.304688 14 4.664062 L 14 10.003906 C 14 10.371094 13.699219 10.667969 13.328125 10.667969 L 5.339844 10.667969 C 4.964844 10.667969 4.667969 10.363281 4.667969 10.003906 L 4.667969 4.664062 C 4.667969 4.296875 4.964844 4 5.339844 4 L 7.332031 4 L 7.332031 2.667969 C 7.332031 2.296875 7.632812 2 8 2 Z M 7.332031 5.332031 L 6.667969 5.332031 L 6.667969 9.332031 L 7.332031 9.332031 Z M 12 5.332031 L 11.332031 5.332031 L 11.332031 9.332031 L 12 9.332031 Z M 10 3.332031 L 8.667969 3.332031 L 8.667969 4 L 10 4 Z M 10 3.332031 "/>
</g>
</svg>
