<?xml version="1.0" encoding="UTF-8"?>
<svg xmlns="http://www.w3.org/2000/svg" xmlns:xlink="http://www.w3.org/1999/xlink" width="16" height="16" viewBox="0 0 16 16" version="1.1">
<g id="surface1">
<path style=" stroke:none;fill-rule:nonzero;fill:rgb(100%,100%,100%);fill-opacity:1;" d="M 10.132812 6.628906 C 9.84375 6.355469 9.65625 5.992188 9.605469 5.597656 L 9.335938 3.539062 L 7.515625 4.53125 C 7.167969 4.722656 6.761719 4.785156 6.371094 4.714844 L 4.332031 4.332031 L 4.714844 6.371094 C 4.785156 6.761719 4.722656 7.167969 4.53125 7.515625 L 3.539062 9.335938 L 5.597656 9.605469 C 5.992188 9.65625 6.355469 9.84375 6.628906 10.132812 L 8.054688 11.636719 L 8.945312 9.765625 C 9.117188 9.40625 9.40625 9.117188 9.765625 8.945312 L 11.636719 8.054688 Z M 10.148438 10.339844 L 8.675781 13.4375 C 8.617188 13.558594 8.503906 13.640625 8.375 13.660156 C 8.246094 13.683594 8.113281 13.636719 8.023438 13.542969 L 5.660156 11.050781 C 5.597656 10.984375 5.515625 10.941406 5.421875 10.929688 L 2.019531 10.484375 C 1.886719 10.464844 1.773438 10.386719 1.714844 10.269531 C 1.65625 10.148438 1.65625 10.011719 1.71875 9.894531 L 3.359375 6.878906 C 3.40625 6.796875 3.417969 6.707031 3.402344 6.617188 L 2.773438 3.238281 C 2.75 3.109375 2.789062 2.976562 2.882812 2.882812 C 2.976562 2.789062 3.109375 2.75 3.238281 2.773438 L 6.617188 3.402344 C 6.707031 3.417969 6.796875 3.40625 6.878906 3.359375 L 9.894531 1.71875 C 10.011719 1.65625 10.152344 1.65625 10.269531 1.714844 C 10.386719 1.773438 10.464844 1.886719 10.484375 2.019531 L 10.929688 5.421875 C 10.941406 5.515625 10.984375 5.597656 11.050781 5.660156 L 13.542969 8.023438 C 13.636719 8.113281 13.683594 8.246094 13.660156 8.375 C 13.640625 8.503906 13.558594 8.617188 13.4375 8.675781 L 10.339844 10.148438 C 10.253906 10.1875 10.1875 10.253906 10.148438 10.339844 Z M 10.679688 11.625 L 11.625 10.679688 L 14.453125 13.507812 L 13.507812 14.453125 Z M 10.679688 11.625 "/>
</g>
</svg>
