<?xml version="1.0" encoding="UTF-8"?>
<svg xmlns="http://www.w3.org/2000/svg" xmlns:xlink="http://www.w3.org/1999/xlink" width="16" height="16" viewBox="0 0 16 16" version="1.1">
<g id="surface1">
<path style=" stroke:none;fill-rule:nonzero;fill:rgb(100%,100%,100%);fill-opacity:1;" d="M 10.175781 7.703125 L 13.101562 5.171875 L 12.230469 4.164062 L 8.039062 7.789062 L 3.765625 4.160156 L 2.902344 5.175781 L 8.035156 9.535156 C 7.574219 10.273438 7.332031 11.128906 7.332031 12 C 7.332031 12.714844 7.496094 13.394531 7.78125 14 L 2 14 C 1.632812 14 1.332031 13.703125 1.332031 13.332031 L 1.332031 2.667969 C 1.332031 2.296875 1.632812 2 2 2 L 14 2 C 14.367188 2 14.667969 2.296875 14.667969 2.667969 L 14.667969 8.171875 C 13.882812 7.625 12.953125 7.332031 12 7.332031 C 11.351562 7.332031 10.738281 7.464844 10.175781 7.703125 Z M 11.136719 13.804688 C 11.902344 14.171875 12.816406 14.015625 13.414062 13.414062 C 14.015625 12.816406 14.171875 11.902344 13.804688 11.136719 Z M 10.195312 12.863281 L 12.863281 10.195312 C 12.097656 9.828125 11.183594 9.984375 10.585938 10.585938 C 9.984375 11.183594 9.828125 12.097656 10.195312 12.863281 Z M 12 15.332031 C 10.160156 15.332031 8.667969 13.839844 8.667969 12 C 8.667969 10.160156 10.160156 8.667969 12 8.667969 C 13.839844 8.667969 15.332031 10.160156 15.332031 12 C 15.332031 13.839844 13.839844 15.332031 12 15.332031 Z M 12 15.332031 "/>
</g>
</svg>
