<?xml version="1.0" encoding="UTF-8"?>
<svg xmlns="http://www.w3.org/2000/svg" xmlns:xlink="http://www.w3.org/1999/xlink" width="16" height="16" viewBox="0 0 16 16" version="1.1">
<g id="surface1">
<path style=" stroke:none;fill-rule:nonzero;fill:rgb(100%,100%,100%);fill-opacity:1;" d="M 8 0 C 6.804688 0 5.609375 0.453125 4.699219 1.367188 C 3.84375 2.21875 3.398438 3.25 3.335938 4.5 C 3.296875 5.207031 3.476562 6.023438 3.824219 6.765625 C 3.890625 6.910156 4.660156 8.257812 5.53125 9.765625 C 5.609375 9.898438 5.59375 9.875 5.664062 10 L 3.496094 10 C 3.320312 10 3.15625 10.09375 3.070312 10.242188 L 0.0703125 15.246094 C -0.0195312 15.398438 -0.0195312 15.59375 0.0703125 15.746094 C 0.15625 15.902344 0.320312 16 0.5 16 L 15.5 16 C 15.679688 16 15.84375 15.902344 15.929688 15.746094 C 16.019531 15.59375 16.019531 15.398438 15.929688 15.246094 L 12.929688 10.242188 C 12.84375 10.09375 12.679688 10 12.503906 10 L 10.3125 10 C 11.183594 8.484375 12.113281 6.890625 12.183594 6.742188 C 12.734375 5.59375 12.8125 4.34375 12.414062 3.164062 C 12.179688 2.476562 11.816406 1.890625 11.296875 1.367188 C 10.386719 0.453125 9.195312 0 8 0 Z M 8 2.65625 C 8.332031 2.65625 8.382812 2.664062 8.546875 2.726562 C 8.8125 2.820312 9.023438 2.960938 9.210938 3.152344 C 9.40625 3.351562 9.519531 3.53125 9.605469 3.78125 C 9.886719 4.589844 9.515625 5.5 8.75 5.859375 C 8.621094 5.921875 8.460938 5.984375 8.398438 6 C 8.234375 6.039062 7.90625 6.054688 7.742188 6.03125 C 7.09375 5.925781 6.546875 5.445312 6.359375 4.804688 C 6.289062 4.550781 6.277344 4.179688 6.34375 3.9375 C 6.492188 3.363281 6.882812 2.933594 7.445312 2.726562 C 7.617188 2.664062 7.664062 2.65625 8 2.65625 Z M 3.785156 11 L 6.257812 11 C 7.007812 12.289062 7.269531 12.695312 7.484375 12.800781 C 7.550781 12.832031 7.660156 12.875 7.730469 12.890625 C 8.191406 13 8.667969 12.816406 8.921875 12.421875 C 8.980469 12.328125 9.429688 11.53125 9.734375 11 L 12.214844 11 L 12.242188 11.050781 L 9.832031 13.453125 L 4.921875 12.472656 L 2.027344 13.925781 Z M 12.773438 11.929688 L 14.621094 15.003906 L 2.101562 15.003906 L 5.070312 13.523438 L 10.164062 14.539062 Z M 12.773438 11.929688 "/>
</g>
</svg>
