<?xml version="1.0" encoding="UTF-8"?>
<svg xmlns="http://www.w3.org/2000/svg" xmlns:xlink="http://www.w3.org/1999/xlink" width="16" height="16" viewBox="0 0 16 16" version="1.1">
<g id="surface1">
<path style=" stroke:none;fill-rule:nonzero;fill:rgb(100%,100%,100%);fill-opacity:1;" d="M 8 5.667969 L 9.410156 9.058594 L 13.070312 9.351562 L 10.28125 11.742188 L 11.132812 15.316406 L 8 13.398438 L 4.867188 15.316406 L 5.71875 11.742188 L 2.929688 9.351562 L 6.589844 9.058594 Z M 8 9.136719 L 7.507812 10.324219 L 6.230469 10.425781 L 7.203125 11.257812 L 6.90625 12.507812 L 8 11.835938 L 9.09375 12.507812 L 8.796875 11.257812 L 9.769531 10.425781 L 8.492188 10.324219 Z M 5.332031 1.332031 L 5.332031 7.332031 L 4 7.332031 L 4 1.332031 Z M 12 1.332031 L 12 7.332031 L 10.667969 7.332031 L 10.667969 1.332031 Z M 8.667969 1.332031 L 8.667969 4.667969 L 7.332031 4.667969 L 7.332031 1.332031 Z M 8.667969 1.332031 "/>
</g>
</svg>
