<?xml version="1.0" encoding="UTF-8"?>
<svg xmlns="http://www.w3.org/2000/svg" xmlns:xlink="http://www.w3.org/1999/xlink" width="16" height="16" viewBox="0 0 16 16" version="1.1">
<g id="surface1">
<path style=" stroke:none;fill-rule:nonzero;fill:rgb(100%,100%,100%);fill-opacity:1;" d="M 15 0 C 14.445312 0 14 0.445312 14 1 L 2 4 C 2 3.445312 1.566406 3 1.027344 3 L 0.972656 3 C 0.433594 3 0 3.445312 0 4 L 0 10 C 0 10.554688 0.433594 11 0.972656 11 L 1.027344 11 C 1.566406 11 2 10.554688 2 10 L 3.25 10.3125 L 3.25 13 C 3.246094 13.34375 3.480469 13.648438 3.816406 13.730469 L 11.820312 15.730469 C 12.042969 15.785156 12.28125 15.734375 12.460938 15.59375 C 12.640625 15.449219 12.75 15.230469 12.75 15 L 12.75 12.6875 L 14 13 C 14 13.554688 14.445312 14 15 14 C 15.554688 14 16 13.554688 16 13 L 16 1 C 16 0.445312 15.554688 0 15 0 Z M 4.746094 10.6875 L 11.25 12.3125 L 11.25 14.039062 L 4.746094 12.414062 Z M 4.746094 10.6875 "/>
</g>
</svg>
