<?xml version="1.0" encoding="UTF-8"?>
<svg xmlns="http://www.w3.org/2000/svg" xmlns:xlink="http://www.w3.org/1999/xlink" width="16" height="16" viewBox="0 0 16 16" version="1.1">
<g id="surface1">
<path style=" stroke:none;fill-rule:nonzero;fill:rgb(100%,100%,100%);fill-opacity:1;" d="M 7.332031 1.332031 C 10.046875 1.332031 12.285156 3.355469 12.621094 5.976562 L 14.121094 8.335938 C 14.222656 8.492188 14.203125 8.722656 13.972656 8.820312 L 12.667969 9.378906 L 12.667969 11.332031 C 12.667969 12.070312 12.070312 12.667969 11.332031 12.667969 L 10 12.667969 L 10 14.667969 L 4 14.667969 L 4 12.203125 C 4 11.417969 3.710938 10.671875 3.171875 10 C 2.4375 9.085938 2 7.929688 2 6.667969 C 2 3.722656 4.386719 1.332031 7.332031 1.332031 Z M 7.332031 2.667969 C 5.125 2.667969 3.332031 4.457031 3.332031 6.667969 C 3.332031 7.589844 3.644531 8.460938 4.210938 9.167969 C 4.941406 10.074219 5.332031 11.113281 5.332031 12.203125 L 5.332031 13.332031 L 8.667969 13.332031 L 8.667969 11.332031 L 11.332031 11.332031 L 11.332031 8.5 L 12.367188 8.058594 L 11.339844 6.441406 L 11.300781 6.148438 C 11.042969 4.167969 9.347656 2.667969 7.332031 2.667969 Z M 6.980469 5.175781 L 7.332031 5.527344 L 7.6875 5.175781 C 8.144531 4.71875 8.882812 4.71875 9.335938 5.175781 C 9.792969 5.628906 9.792969 6.371094 9.335938 6.824219 L 7.332031 8.828125 L 5.328125 6.824219 C 4.875 6.371094 4.875 5.628906 5.328125 5.175781 C 5.785156 4.71875 6.523438 4.71875 6.980469 5.175781 Z M 6.980469 5.175781 "/>
</g>
</svg>
