<?xml version="1.0" encoding="UTF-8"?>
<svg xmlns="http://www.w3.org/2000/svg" xmlns:xlink="http://www.w3.org/1999/xlink" width="16" height="16" viewBox="0 0 16 16" version="1.1">
<g id="surface1">
<path style=" stroke:none;fill-rule:nonzero;fill:rgb(100%,100%,100%);fill-opacity:1;" d="M 8 1.332031 C 11.757812 1.332031 14.667969 4.085938 14.667969 7.800781 C 14.667969 11.515625 11.757812 14.265625 8 14.265625 C 7.347656 14.269531 6.699219 14.183594 6.070312 14.011719 C 5.953125 13.976562 5.824219 13.988281 5.714844 14.035156 L 4.390625 14.621094 C 4.230469 14.691406 4.042969 14.679688 3.890625 14.585938 C 3.742188 14.488281 3.648438 14.328125 3.644531 14.148438 L 3.605469 12.960938 C 3.601562 12.816406 3.535156 12.679688 3.425781 12.582031 C 2.128906 11.421875 1.332031 9.746094 1.332031 7.800781 C 1.332031 4.085938 4.246094 1.332031 8 1.332031 Z M 3.996094 9.691406 C 3.808594 9.988281 4.175781 10.324219 4.457031 10.113281 L 6.558594 8.515625 C 6.703125 8.410156 6.898438 8.410156 7.042969 8.515625 L 8.597656 9.683594 C 8.824219 9.851562 9.105469 9.917969 9.378906 9.867188 C 9.65625 9.816406 9.894531 9.652344 10.046875 9.414062 L 12.003906 6.308594 C 12.191406 6.011719 11.824219 5.675781 11.542969 5.886719 L 9.441406 7.484375 C 9.296875 7.59375 9.101562 7.59375 8.957031 7.484375 L 7.402344 6.316406 C 7.175781 6.152344 6.894531 6.082031 6.621094 6.132812 C 6.34375 6.183594 6.105469 6.347656 5.953125 6.585938 Z M 3.996094 9.691406 "/>
</g>
</svg>
