<?xml version="1.0" encoding="UTF-8"?>
<svg xmlns="http://www.w3.org/2000/svg" xmlns:xlink="http://www.w3.org/1999/xlink" width="16" height="16" viewBox="0 0 16 16" version="1.1">
<g id="surface1">
<path style=" stroke:none;fill-rule:nonzero;fill:rgb(100%,100%,100%);fill-opacity:1;" d="M 1.332031 5.996094 C 1.332031 4.933594 1.753906 3.917969 2.503906 3.167969 C 3.253906 2.417969 4.273438 2 5.332031 2 L 10.667969 2 C 12.875 2 14.667969 3.796875 14.667969 5.996094 L 14.667969 14 L 5.332031 14 C 3.125 14 1.332031 12.203125 1.332031 10.003906 Z M 13.332031 12.667969 L 13.332031 5.996094 C 13.328125 4.527344 12.136719 3.335938 10.667969 3.332031 L 5.332031 3.332031 C 4.625 3.332031 3.949219 3.613281 3.445312 4.109375 C 2.945312 4.609375 2.664062 5.289062 2.667969 5.996094 L 2.667969 10.003906 C 2.671875 11.472656 3.863281 12.664062 5.332031 12.667969 Z M 9.332031 7.332031 L 10.667969 7.332031 L 10.667969 8.667969 L 9.332031 8.667969 Z M 5.332031 7.332031 L 6.667969 7.332031 L 6.667969 8.667969 L 5.332031 8.667969 Z M 5.332031 7.332031 "/>
</g>
</svg>
