<?xml version="1.0" encoding="UTF-8"?>
<svg xmlns="http://www.w3.org/2000/svg" xmlns:xlink="http://www.w3.org/1999/xlink" width="16" height="16" viewBox="0 0 16 16" version="1.1">
<g id="surface1">
<path style=" stroke:none;fill-rule:nonzero;fill:rgb(100%,100%,100%);fill-opacity:1;" d="M 8 2 C 6.894531 2 6 2.894531 6 4 L 6 6.667969 C 6 7.769531 6.894531 8.667969 8 8.667969 C 9.105469 8.667969 10 7.769531 10 6.667969 L 10 4 C 10 2.894531 9.105469 2 8 2 Z M 8 0.667969 C 9.839844 0.667969 11.332031 2.160156 11.332031 4 L 11.332031 6.667969 C 11.332031 8.507812 9.839844 10 8 10 C 6.160156 10 4.667969 8.507812 4.667969 6.667969 L 4.667969 4 C 4.667969 2.160156 6.160156 0.667969 8 0.667969 Z M 2.035156 7.332031 L 3.378906 7.332031 C 3.714844 9.628906 5.679688 11.328125 8 11.328125 C 10.316406 11.328125 12.285156 9.628906 12.617188 7.332031 L 13.960938 7.332031 C 13.652344 10.117188 11.453125 12.316406 8.667969 12.628906 L 8.667969 15.332031 L 7.332031 15.332031 L 7.332031 12.628906 C 4.546875 12.316406 2.347656 10.117188 2.035156 7.332031 Z M 2.035156 7.332031 "/>
</g>
</svg>
