<?xml version="1.0" encoding="UTF-8"?>
<svg xmlns="http://www.w3.org/2000/svg" xmlns:xlink="http://www.w3.org/1999/xlink" width="16" height="16" viewBox="0 0 16 16" version="1.1">
<g id="surface1">
<path style=" stroke:none;fill-rule:nonzero;fill:rgb(100%,100%,100%);fill-opacity:1;" d="M 12.332031 1.332031 C 13.875 1.332031 15.167969 2.503906 15.320312 4.039062 C 15.472656 5.574219 14.433594 6.972656 12.921875 7.273438 C 13.851562 9.507812 13.167969 12.085938 11.25 13.558594 C 9.332031 15.03125 6.664062 15.03125 4.75 13.558594 C 2.832031 12.085938 2.148438 9.503906 3.078125 7.273438 C 1.5625 6.972656 0.527344 5.574219 0.675781 4.039062 C 0.828125 2.5 2.121094 1.332031 3.667969 1.332031 C 5.257812 1.332031 6.574219 2.578125 6.660156 4.167969 C 7.097656 4.054688 7.546875 4 8 4 C 8.460938 4 8.910156 4.058594 9.335938 4.167969 C 9.425781 2.578125 10.738281 1.332031 12.332031 1.332031 Z M 12.332031 1.332031 "/>
</g>
</svg>
