<?xml version="1.0" encoding="UTF-8"?>
<svg xmlns="http://www.w3.org/2000/svg" xmlns:xlink="http://www.w3.org/1999/xlink" width="16" height="16" viewBox="0 0 16 16" version="1.1">
<g id="surface1">
<path style=" stroke:none;fill-rule:nonzero;fill:rgb(100%,100%,100%);fill-opacity:1;" d="M 6.667969 4 C 6.667969 5.898438 7.675781 7.65625 9.316406 8.609375 C 10.960938 9.566406 12.984375 9.578125 14.636719 8.636719 C 14.316406 12.019531 11.464844 14.667969 8 14.667969 C 4.316406 14.667969 1.332031 11.683594 1.332031 8 C 1.332031 4.535156 3.980469 1.683594 7.363281 1.363281 C 6.90625 2.167969 6.664062 3.074219 6.667969 4 Z M 2.667969 8 C 2.667969 10.945312 5.054688 13.332031 8 13.332031 C 9.917969 13.332031 11.6875 12.304688 12.636719 10.636719 C 12.425781 10.65625 12.214844 10.667969 12 10.667969 C 8.316406 10.667969 5.332031 7.683594 5.332031 4 C 5.332031 3.785156 5.34375 3.574219 5.363281 3.363281 C 3.695312 4.3125 2.667969 6.082031 2.667969 8 Z M 12.109375 1.527344 L 12.667969 1.667969 L 12.667969 2.332031 L 12.109375 2.472656 C 11.632812 2.59375 11.257812 2.964844 11.140625 3.441406 L 11 4 L 10.332031 4 L 10.195312 3.441406 C 10.074219 2.964844 9.703125 2.59375 9.222656 2.472656 L 8.667969 2.332031 L 8.667969 1.667969 L 9.222656 1.527344 C 9.703125 1.40625 10.074219 1.035156 10.191406 0.558594 L 10.332031 0 L 11 0 L 11.140625 0.558594 C 11.257812 1.035156 11.632812 1.40625 12.109375 1.527344 Z M 15.441406 4.859375 L 16 5 L 16 5.667969 L 15.441406 5.804688 C 14.964844 5.925781 14.59375 6.296875 14.472656 6.777344 L 14.332031 7.332031 L 13.667969 7.332031 L 13.527344 6.777344 C 13.40625 6.296875 13.035156 5.925781 12.558594 5.804688 L 12 5.667969 L 12 5 L 12.558594 4.859375 C 13.035156 4.742188 13.40625 4.367188 13.527344 3.890625 L 13.667969 3.332031 L 14.332031 3.332031 L 14.472656 3.890625 C 14.59375 4.367188 14.964844 4.742188 15.441406 4.859375 Z M 15.441406 4.859375 "/>
</g>
</svg>
