<?xml version="1.0" encoding="UTF-8"?>
<svg xmlns="http://www.w3.org/2000/svg" xmlns:xlink="http://www.w3.org/1999/xlink" width="16" height="16" viewBox="0 0 16 16" version="1.1">
<g id="surface1">
<path style=" stroke:none;fill-rule:nonzero;fill:rgb(100%,100%,100%);fill-opacity:1;" d="M 1.332031 2.660156 C 1.335938 2.296875 1.628906 2.003906 1.996094 2 L 14.003906 2 C 14.371094 2 14.667969 2.296875 14.667969 2.660156 L 14.667969 13.339844 C 14.664062 13.703125 14.371094 13.996094 14.003906 14 L 1.996094 14 C 1.628906 14 1.332031 13.703125 1.332031 13.339844 Z M 2.667969 3.332031 L 2.667969 12.667969 L 13.332031 12.667969 L 13.332031 3.332031 Z M 7.082031 5.609375 L 10.335938 7.777344 C 10.410156 7.828125 10.453125 7.910156 10.453125 8 C 10.453125 8.089844 10.410156 8.171875 10.335938 8.222656 L 7.082031 10.390625 C 7 10.445312 6.894531 10.449219 6.808594 10.402344 C 6.722656 10.355469 6.667969 10.265625 6.667969 10.167969 L 6.667969 5.832031 C 6.667969 5.734375 6.722656 5.644531 6.808594 5.597656 C 6.894531 5.550781 7 5.554688 7.082031 5.609375 Z M 7.082031 5.609375 "/>
</g>
</svg>
