<?xml version="1.0" encoding="UTF-8"?>
<svg xmlns="http://www.w3.org/2000/svg" xmlns:xlink="http://www.w3.org/1999/xlink" width="16" height="16" viewBox="0 0 16 16" version="1.1">
<g id="surface1">
<path style=" stroke:none;fill-rule:nonzero;fill:rgb(100%,100%,100%);fill-opacity:1;" d="M 8 9.023438 L 8 2 L 13.332031 2 L 13.332031 3.332031 L 9.332031 3.332031 L 9.332031 11.332031 C 9.332031 12.539062 8.523438 13.597656 7.355469 13.910156 C 6.191406 14.222656 4.960938 13.710938 4.355469 12.664062 C 3.753906 11.621094 3.925781 10.300781 4.78125 9.445312 C 5.632812 8.59375 6.953125 8.417969 8 9.023438 Z M 6.667969 12.667969 C 7.402344 12.667969 8 12.070312 8 11.332031 C 8 10.597656 7.402344 10 6.667969 10 C 5.929688 10 5.332031 10.597656 5.332031 11.332031 C 5.332031 12.070312 5.929688 12.667969 6.667969 12.667969 Z M 6.667969 12.667969 "/>
</g>
</svg>
