<?xml version="1.0" encoding="UTF-8"?>
<svg xmlns="http://www.w3.org/2000/svg" xmlns:xlink="http://www.w3.org/1999/xlink" width="16" height="16" viewBox="0 0 16 16" version="1.1">
<g id="surface1">
<path style=" stroke:none;fill-rule:nonzero;fill:rgb(100%,100%,100%);fill-opacity:1;" d="M 8 1 C 9.550781 1 10.984375 1.828125 11.757812 3.171875 C 12.53125 4.515625 12.527344 6.171875 11.746094 7.511719 L 7.617188 14.664062 L 6.074219 14.664062 L 9.035156 9.542969 C 7.410156 9.941406 5.703125 9.367188 4.644531 8.070312 C 3.589844 6.777344 3.371094 4.988281 4.089844 3.476562 C 4.804688 1.964844 6.328125 1 8 1 Z M 8 2.332031 C 6.34375 2.332031 5 3.675781 5 5.332031 C 5 6.988281 6.34375 8.332031 8 8.332031 C 9.65625 8.332031 11 6.988281 11 5.332031 C 11 3.675781 9.65625 2.332031 8 2.332031 Z M 8 2.332031 "/>
</g>
</svg>
