<?xml version="1.0" encoding="UTF-8"?>
<svg xmlns="http://www.w3.org/2000/svg" xmlns:xlink="http://www.w3.org/1999/xlink" width="16" height="16" viewBox="0 0 16 16" version="1.1">
<g id="surface1">
<path style=" stroke:none;fill-rule:nonzero;fill:rgb(100%,100%,100%);fill-opacity:1;" d="M 6 12 L 2.667969 12 L 2.667969 6.667969 L 6 6.667969 Z M 4.667969 10.667969 L 4.667969 8 L 4 8 L 4 10.667969 Z M 8.667969 10.667969 L 8.667969 5.332031 L 8 5.332031 L 8 10.667969 Z M 10 12 L 6.667969 12 L 6.667969 4 L 10 4 Z M 12.667969 10.667969 L 12.667969 2.667969 L 12 2.667969 L 12 10.667969 Z M 14 12 L 10.667969 12 L 10.667969 1.332031 L 14 1.332031 Z M 14.667969 14.667969 L 2 14.667969 L 2 13.332031 L 14.667969 13.332031 Z M 14.667969 14.667969 "/>
</g>
</svg>
