<?xml version="1.0" encoding="UTF-8"?>
<svg xmlns="http://www.w3.org/2000/svg" xmlns:xlink="http://www.w3.org/1999/xlink" width="16" height="16" viewBox="0 0 16 16" version="1.1">
<g id="surface1">
<path style=" stroke:none;fill-rule:nonzero;fill:rgb(100%,100%,100%);fill-opacity:1;" d="M 8 1 C 8.878906 1 9.65625 1.230469 10.296875 1.664062 C 10.941406 2.09375 11.449219 2.722656 11.796875 3.515625 C 12.144531 4.308594 12.332031 5.265625 12.332031 6.351562 L 12.332031 9.648438 C 12.332031 10.734375 12.144531 11.691406 11.796875 12.484375 C 11.449219 13.277344 10.941406 13.90625 10.296875 14.335938 C 9.65625 14.769531 8.878906 15 8 15 C 7.121094 15 6.34375 14.769531 5.703125 14.335938 C 5.058594 13.90625 4.550781 13.277344 4.203125 12.484375 C 3.855469 11.691406 3.667969 10.734375 3.667969 9.648438 L 3.667969 6.351562 C 3.667969 5.265625 3.855469 4.308594 4.203125 3.515625 C 4.550781 2.722656 5.058594 2.09375 5.703125 1.664062 C 6.34375 1.230469 7.117188 1 8 1 Z M 8 2.332031 C 7.390625 2.332031 6.871094 2.484375 6.445312 2.769531 C 6.019531 3.054688 5.671875 3.484375 5.421875 4.050781 C 5.148438 4.675781 5 5.457031 5 6.351562 L 5 9.648438 C 5 10.542969 5.148438 11.324219 5.421875 11.949219 C 5.671875 12.515625 6.019531 12.945312 6.445312 13.230469 C 6.871094 13.515625 7.390625 13.667969 8 13.667969 C 8.609375 13.667969 9.128906 13.515625 9.554688 13.230469 C 9.980469 12.945312 10.328125 12.515625 10.578125 11.949219 C 10.851562 11.324219 11 10.542969 11 9.648438 L 11 6.351562 C 11 5.457031 10.851562 4.675781 10.578125 4.050781 C 10.328125 3.484375 9.980469 3.054688 9.554688 2.769531 C 9.128906 2.484375 8.609375 2.332031 8 2.332031 Z M 8 2.332031 "/>
</g>
</svg>
