<?xml version="1.0" encoding="UTF-8"?>
<svg xmlns="http://www.w3.org/2000/svg" xmlns:xlink="http://www.w3.org/1999/xlink" width="16" height="16" viewBox="0 0 16 16" version="1.1">
<g id="surface1">
<path style=" stroke:none;fill-rule:nonzero;fill:rgb(100%,100%,100%);fill-opacity:1;" d="M 11.332031 14 L 11.332031 11.332031 L 4.667969 11.332031 L 4.667969 14 L 3.332031 14 L 3.332031 10.667969 C 3.332031 10.296875 3.632812 10 4 10 L 12 10 C 12.367188 10 12.667969 10.296875 12.667969 10.667969 L 12.667969 14 Z M 4.667969 2 L 4.667969 4.667969 L 11.332031 4.667969 L 11.332031 2 L 12.667969 2 L 12.667969 5.332031 C 12.667969 5.703125 12.367188 6 12 6 L 4 6 C 3.632812 6 3.332031 5.703125 3.332031 5.332031 L 3.332031 2 Z M 1.332031 6 L 4 8 L 1.332031 10 Z M 14.667969 6 L 14.667969 10 L 12 8 Z M 14.667969 6 "/>
</g>
</svg>
