<?xml version="1.0" encoding="UTF-8"?>
<svg xmlns="http://www.w3.org/2000/svg" xmlns:xlink="http://www.w3.org/1999/xlink" width="16" height="16" viewBox="0 0 16 16" version="1.1">
<g id="surface1">
<path style=" stroke:none;fill-rule:nonzero;fill:rgb(100%,100%,100%);fill-opacity:1;" d="M 8 1.332031 C 11.679688 1.332031 14.667969 3.984375 14.667969 7.257812 C 14.664062 9.304688 13.007812 10.960938 10.960938 10.960938 L 9.652344 10.960938 C 9.039062 10.960938 8.539062 11.460938 8.539062 12.074219 C 8.539062 12.355469 8.652344 12.613281 8.820312 12.808594 C 9 13.007812 9.113281 13.265625 9.113281 13.554688 C 9.113281 14.171875 8.601562 14.667969 8 14.667969 C 4.320312 14.667969 1.332031 11.679688 1.332031 8 C 1.332031 4.320312 4.320312 1.332031 8 1.332031 Z M 5 8 C 5.550781 8 6 7.550781 6 7 C 6 6.449219 5.550781 6 5 6 C 4.449219 6 4 6.449219 4 7 C 4 7.550781 4.449219 8 5 8 Z M 11 8 C 11.550781 8 12 7.550781 12 7 C 12 6.449219 11.550781 6 11 6 C 10.449219 6 10 6.449219 10 7 C 10 7.550781 10.449219 8 11 8 Z M 8 6 C 8.550781 6 9 5.550781 9 5 C 9 4.449219 8.550781 4 8 4 C 7.449219 4 7 4.449219 7 5 C 7 5.550781 7.449219 6 8 6 Z M 8 6 "/>
</g>
</svg>
