<?xml version="1.0" encoding="UTF-8"?>
<svg xmlns="http://www.w3.org/2000/svg" xmlns:xlink="http://www.w3.org/1999/xlink" width="16" height="16" viewBox="0 0 16 16" version="1.1">
<g id="surface1">
<path style=" stroke:none;fill-rule:nonzero;fill:rgb(100%,100%,100%);fill-opacity:1;" d="M 10 4.667969 C 10 4.296875 10.296875 4 10.667969 4 C 11.035156 4 11.332031 4.296875 11.332031 4.667969 L 11.332031 11.332031 C 11.332031 11.703125 11.035156 12 10.667969 12 C 10.296875 12 10 11.703125 10 11.332031 Z M 4.667969 4.667969 C 4.667969 4.296875 4.964844 4 5.332031 4 C 5.703125 4 6 4.296875 6 4.667969 L 6 11.332031 C 6 11.703125 5.703125 12 5.332031 12 C 4.964844 12 4.667969 11.703125 4.667969 11.332031 Z M 4.667969 4.667969 "/>
</g>
</svg>
