<?xml version="1.0" encoding="UTF-8"?>
<svg xmlns="http://www.w3.org/2000/svg" xmlns:xlink="http://www.w3.org/1999/xlink" width="16" height="16" viewBox="0 0 16 16" version="1.1">
<g id="surface1">
<path style=" stroke:none;fill-rule:nonzero;fill:rgb(100%,100%,100%);fill-opacity:1;" d="M 4.699219 9.414062 L 3.285156 10.828125 L 5.171875 12.714844 L 12.714844 5.171875 L 10.828125 3.285156 L 9.414062 4.699219 L 10.355469 5.644531 L 9.414062 6.585938 L 8.46875 5.644531 L 7.527344 6.585938 L 8.46875 7.53125 L 7.527344 8.472656 L 6.585938 7.53125 L 5.640625 8.472656 L 6.585938 9.414062 L 5.640625 10.359375 Z M 11.300781 1.871094 L 14.128906 4.699219 C 14.386719 4.960938 14.386719 5.382812 14.128906 5.644531 L 5.644531 14.128906 C 5.382812 14.386719 4.960938 14.386719 4.699219 14.128906 L 1.871094 11.300781 C 1.613281 11.039062 1.613281 10.617188 1.871094 10.355469 L 10.355469 1.871094 C 10.617188 1.613281 11.039062 1.613281 11.300781 1.871094 Z M 9.414062 12.242188 L 10.355469 11.300781 L 11.851562 12.792969 L 12.792969 12.792969 L 12.792969 11.851562 L 11.300781 10.355469 L 12.242188 9.414062 L 14 11.171875 L 14 14 L 11.171875 14 Z M 3.757812 6.585938 L 1.871094 4.699219 C 1.746094 4.574219 1.675781 4.40625 1.675781 4.226562 C 1.675781 4.050781 1.746094 3.882812 1.871094 3.757812 L 3.757812 1.871094 C 4.019531 1.609375 4.441406 1.609375 4.699219 1.871094 L 6.585938 3.757812 L 5.644531 4.699219 L 4.230469 3.285156 L 3.285156 4.230469 L 4.699219 5.640625 Z M 3.757812 6.585938 "/>
</g>
</svg>
