<?xml version="1.0" encoding="UTF-8"?>
<svg xmlns="http://www.w3.org/2000/svg" xmlns:xlink="http://www.w3.org/1999/xlink" width="16" height="16" viewBox="0 0 16 16" version="1.1">
<g id="surface1">
<path style=" stroke:none;fill-rule:evenodd;fill:rgb(100%,100%,100%);fill-opacity:1;" d="M 14.507812 0.00390625 C 13.164062 0.0078125 11.804688 0.0078125 10.457031 0.0078125 L 8.601562 3.617188 L 10.359375 6.507812 C 10.164062 6.765625 9.953125 7.007812 9.75 7.257812 L 11.515625 9.605469 C 13.472656 7.382812 14.992188 4.765625 15.929688 1.867188 C 16.171875 1.117188 15.761719 0.3125 15.015625 0.0703125 C 14.851562 0.015625 14.679688 -0.0078125 14.507812 0.00390625 Z M 8.734375 8.398438 C 8.570312 8.5625 8.398438 8.726562 8.230469 8.890625 L 9.953125 11.191406 C 10.125 11.03125 10.296875 10.875 10.46875 10.710938 Z M 3.390625 8.46875 L 0.0078125 10.546875 L 0.0078125 14.34375 L 0.0234375 14.335938 C -0.015625 14.5625 0 14.796875 0.0703125 15.015625 C 0.3125 15.757812 1.117188 16.171875 1.863281 15.929688 C 4.425781 15.101562 6.773438 13.816406 8.820312 12.171875 L 7.101562 9.882812 C 6.882812 10.054688 6.664062 10.238281 6.441406 10.40625 Z M 3.390625 8.46875 "/>
<path style=" stroke:none;fill-rule:nonzero;fill:rgb(100%,100%,100%);fill-opacity:1;" d="M 1.25 0 C 1.25 0.164062 1.296875 0.320312 1.398438 0.453125 L 13.058594 16 L 14.75 16 C 14.75 15.835938 14.695312 15.679688 14.601562 15.546875 L 2.9375 0 Z M 1.25 0 "/>
</g>
</svg>
