<?xml version="1.0" encoding="UTF-8"?>
<svg xmlns="http://www.w3.org/2000/svg" xmlns:xlink="http://www.w3.org/1999/xlink" width="16" height="16" viewBox="0 0 16 16" version="1.1">
<g id="surface1">
<path style=" stroke:none;fill-rule:evenodd;fill:rgb(100%,100%,100%);fill-opacity:1;" d="M 14.507812 0.00390625 C 13.160156 0.0078125 11.804688 0.0078125 10.453125 0.0078125 L 8.601562 3.617188 L 10.355469 6.507812 C 9.246094 7.992188 7.929688 9.304688 6.4375 10.40625 L 3.390625 8.46875 L 0.0078125 10.546875 L 0.0078125 14.34375 L 0.0234375 14.335938 C -0.015625 14.5625 0 14.796875 0.0703125 15.015625 C 0.3125 15.761719 1.117188 16.171875 1.863281 15.929688 C 8.539062 13.773438 13.765625 8.542969 15.929688 1.867188 C 16.171875 1.117188 15.765625 0.3125 15.015625 0.0703125 C 14.851562 0.015625 14.679688 -0.0078125 14.507812 0.00390625 Z M 14.507812 0.00390625 "/>
</g>
</svg>
