<?xml version="1.0" encoding="UTF-8"?>
<svg xmlns="http://www.w3.org/2000/svg" xmlns:xlink="http://www.w3.org/1999/xlink" width="16" height="16" viewBox="0 0 16 16" version="1.1">
<g id="surface1">
<path style=" stroke:none;fill-rule:nonzero;fill:rgb(100%,100%,100%);fill-opacity:1;" d="M 10.667969 11.332031 L 10.667969 10.667969 L 8.667969 10.667969 L 8.667969 8.667969 L 10.667969 8.667969 L 10.667969 10 L 12 10 L 12 11.332031 L 11.332031 11.332031 L 11.332031 12.667969 L 10 12.667969 L 10 14 L 8.667969 14 L 8.667969 12 L 10 12 L 10 11.332031 Z M 14 14 L 11.332031 14 L 11.332031 12.667969 L 12.667969 12.667969 L 12.667969 11.332031 L 14 11.332031 Z M 2 2 L 7.332031 2 L 7.332031 7.332031 L 2 7.332031 Z M 8.667969 2 L 14 2 L 14 7.332031 L 8.667969 7.332031 Z M 2 8.667969 L 7.332031 8.667969 L 7.332031 14 L 2 14 Z M 12 8.667969 L 14 8.667969 L 14 10 L 12 10 Z M 4 4 L 4 5.332031 L 5.332031 5.332031 L 5.332031 4 Z M 4 10.667969 L 4 12 L 5.332031 12 L 5.332031 10.667969 Z M 10.667969 4 L 10.667969 5.332031 L 12 5.332031 L 12 4 Z M 10.667969 4 "/>
</g>
</svg>
