<?xml version="1.0" encoding="UTF-8"?>
<svg xmlns="http://www.w3.org/2000/svg" xmlns:xlink="http://www.w3.org/1999/xlink" width="16" height="16" viewBox="0 0 16 16" version="1.1">
<g id="surface1">
<path style=" stroke:none;fill-rule:nonzero;fill:rgb(100%,100%,100%);fill-opacity:1;" d="M 8 14.667969 C 4.316406 14.667969 1.332031 11.683594 1.332031 8 C 1.332031 4.316406 4.316406 1.332031 8 1.332031 C 11.683594 1.332031 14.667969 4.316406 14.667969 8 C 14.667969 11.683594 11.683594 14.667969 8 14.667969 Z M 8 13.332031 C 10.945312 13.332031 13.332031 10.945312 13.332031 8 C 13.332031 5.054688 10.945312 2.667969 8 2.667969 C 5.054688 2.667969 2.667969 5.054688 2.667969 8 C 2.667969 10.945312 5.054688 13.332031 8 13.332031 Z M 7.332031 10 L 8.667969 10 L 8.667969 11.332031 L 7.332031 11.332031 Z M 8.667969 8.902344 L 8.667969 9.332031 L 7.332031 9.332031 L 7.332031 8.332031 C 7.332031 7.964844 7.632812 7.667969 8 7.667969 C 8.527344 7.667969 8.964844 7.257812 8.996094 6.730469 C 9.03125 6.207031 8.652344 5.746094 8.132812 5.675781 C 7.609375 5.605469 7.121094 5.953125 7.019531 6.46875 L 5.710938 6.207031 C 5.9375 5.085938 6.9375 4.292969 8.082031 4.335938 C 9.222656 4.375 10.171875 5.234375 10.316406 6.371094 C 10.460938 7.503906 9.761719 8.578125 8.667969 8.902344 Z M 8.667969 8.902344 "/>
</g>
</svg>
