<?xml version="1.0" encoding="UTF-8"?>
<svg xmlns="http://www.w3.org/2000/svg" xmlns:xlink="http://www.w3.org/1999/xlink" width="16" height="16" viewBox="0 0 16 16" version="1.1">
<g id="surface1">
<path style=" stroke:none;fill-rule:nonzero;fill:rgb(100%,100%,100%);fill-opacity:1;" d="M 7.402344 5.210938 L 7.902344 2.851562 C 8.054688 2.132812 8.761719 1.671875 9.484375 1.824219 L 11.613281 2.28125 C 12.019531 1.832031 12.671875 1.710938 13.210938 1.984375 C 13.75 2.257812 14.035156 2.859375 13.910156 3.449219 C 13.785156 4.039062 13.277344 4.472656 12.675781 4.503906 C 12.074219 4.535156 11.523438 4.15625 11.335938 3.582031 L 9.207031 3.128906 L 8.761719 5.21875 C 9.953125 5.3125 11.132812 5.707031 12.203125 6.351562 C 12.851562 5.992188 13.640625 5.996094 14.285156 6.359375 C 14.929688 6.722656 15.339844 7.394531 15.367188 8.136719 L 15.367188 8.148438 C 15.375 8.808594 15.078125 9.4375 14.5625 9.847656 C 14.558594 9.875 14.558594 9.902344 14.554688 9.929688 C 14.554688 12.597656 11.589844 14.617188 8.023438 14.617188 C 4.46875 14.617188 1.550781 12.601562 1.550781 9.984375 C 1.550781 9.941406 1.546875 9.902344 1.546875 9.863281 C 0.652344 9.191406 0.429688 7.945312 1.035156 7.007812 C 1.640625 6.066406 2.871094 5.757812 3.847656 6.296875 C 4.925781 5.644531 6.144531 5.273438 7.402344 5.210938 Z M 13.59375 8.894531 C 13.863281 8.757812 14.035156 8.480469 14.03125 8.175781 C 14.019531 7.867188 13.824219 7.589844 13.535156 7.476562 C 13.246094 7.359375 12.914062 7.425781 12.6875 7.640625 L 12.296875 8.011719 L 11.851562 7.710938 C 10.773438 6.976562 9.550781 6.558594 8.367188 6.535156 L 7.695312 6.535156 C 6.445312 6.554688 5.261719 6.933594 4.203125 7.652344 L 3.761719 7.949219 L 3.371094 7.585938 C 3.140625 7.367188 2.808594 7.308594 2.519531 7.433594 C 2.226562 7.554688 2.039062 7.835938 2.035156 8.152344 C 2.027344 8.464844 2.210938 8.753906 2.496094 8.886719 L 2.917969 9.078125 L 2.882812 9.542969 C 2.875 9.65625 2.875 9.769531 2.882812 9.929688 C 2.882812 11.738281 5.121094 13.285156 8.023438 13.285156 C 10.9375 13.285156 13.222656 11.726562 13.222656 9.878906 C 13.234375 9.769531 13.234375 9.65625 13.222656 9.542969 L 13.1875 9.09375 Z M 4.667969 9 C 4.667969 8.449219 5.113281 8 5.667969 8 C 6.21875 8 6.667969 8.449219 6.667969 9 C 6.667969 9.550781 6.21875 10 5.667969 10 C 5.113281 10 4.667969 9.550781 4.667969 9 Z M 9.332031 9 C 9.332031 8.449219 9.78125 8 10.332031 8 C 10.886719 8 11.332031 8.449219 11.332031 9 C 11.332031 9.550781 10.886719 10 10.332031 10 C 9.78125 10 9.332031 9.550781 9.332031 9 Z M 8.011719 12.402344 C 7.078125 12.402344 6.164062 12.15625 5.421875 11.59375 C 5.328125 11.484375 5.335938 11.316406 5.441406 11.214844 C 5.542969 11.113281 5.707031 11.105469 5.820312 11.199219 C 6.449219 11.660156 7.234375 11.855469 8 11.855469 C 8.765625 11.855469 9.554688 11.675781 10.1875 11.21875 C 10.265625 11.144531 10.371094 11.117188 10.472656 11.144531 C 10.574219 11.175781 10.652344 11.253906 10.675781 11.355469 C 10.699219 11.457031 10.667969 11.5625 10.597656 11.636719 C 10.140625 12.167969 8.941406 12.402344 8.011719 12.402344 Z M 8.011719 12.402344 "/>
</g>
</svg>
