<?xml version="1.0" encoding="UTF-8"?>
<svg xmlns="http://www.w3.org/2000/svg" xmlns:xlink="http://www.w3.org/1999/xlink" width="16" height="16" viewBox="0 0 16 16" version="1.1">
<g id="surface1">
<path style=" stroke:none;fill-rule:nonzero;fill:rgb(100%,100%,100%);fill-opacity:1;" d="M 7.332031 13.332031 L 0.667969 8 L 7.332031 2.667969 L 7.332031 6 C 11.015625 6 14 8.984375 14 12.667969 C 14 12.847656 13.992188 13.027344 13.980469 13.207031 C 13.003906 11.355469 11.09375 10.078125 8.875 10.003906 L 8.667969 10 L 7.332031 10 Z M 6 8.667969 L 8.6875 8.667969 L 8.921875 8.671875 C 9.777344 8.699219 10.601562 8.878906 11.371094 9.183594 C 10.394531 8.050781 8.945312 7.332031 7.332031 7.332031 L 6 7.332031 L 6 5.441406 L 2.800781 8 L 6 10.558594 Z M 6 8.667969 "/>
</g>
</svg>
