<?xml version="1.0" encoding="UTF-8"?>
<svg xmlns="http://www.w3.org/2000/svg" xmlns:xlink="http://www.w3.org/1999/xlink" width="16" height="16" viewBox="0 0 16 16" version="1.1">
<g id="surface1">
<path style=" stroke:none;fill-rule:nonzero;fill:rgb(100%,100%,100%);fill-opacity:1;" d="M 14 1.332031 L 14 14.667969 L 12.667969 14.667969 L 12.667969 10 L 10 10 L 10 5.332031 C 10 3.125 11.789062 1.332031 14 1.332031 Z M 12.667969 3.019531 C 12.113281 3.332031 11.332031 4.113281 11.332031 5.332031 L 11.332031 8.667969 L 12.667969 8.667969 Z M 6 9.265625 L 6 14.667969 L 4.667969 14.667969 L 4.667969 9.265625 C 3.113281 8.949219 2 7.585938 2 6 L 2 2 L 3.332031 2 L 3.332031 6.667969 L 4.667969 6.667969 L 4.667969 2 L 6 2 L 6 6.667969 L 7.332031 6.667969 L 7.332031 2 L 8.667969 2 L 8.667969 6 C 8.667969 7.585938 7.550781 8.949219 6 9.265625 Z M 6 9.265625 "/>
</g>
</svg>
