<?xml version="1.0" encoding="UTF-8"?>
<svg xmlns="http://www.w3.org/2000/svg" xmlns:xlink="http://www.w3.org/1999/xlink" width="16" height="16" viewBox="0 0 16 16" version="1.1">
<g id="surface1">
<path style=" stroke:none;fill-rule:evenodd;fill:rgb(100%,100%,100%);fill-opacity:1;" d="M 3 0 C 1.335938 0 0 1.335938 0 3 L 0 13 C 0 14.664062 1.335938 16 3 16 L 13 16 C 14.664062 16 16 14.664062 16 13 L 16 3 C 16 1.335938 14.664062 0 13 0 Z M 2.996094 2.996094 L 3.832031 2.996094 C 8.882812 2.996094 13 7.113281 13 12.164062 L 13 13 L 11.332031 13 L 11.332031 12.164062 C 11.332031 8.015625 7.984375 4.664062 3.832031 4.664062 L 2.996094 4.664062 Z M 2.996094 6.335938 L 3.832031 6.335938 C 7.046875 6.335938 9.671875 8.953125 9.671875 12.164062 L 9.671875 13 L 8 13 L 8 12.164062 C 8 9.855469 6.140625 8 3.832031 8 L 2.996094 8 Z M 4.65625 9.664062 C 4.65625 9.664062 4.664062 9.664062 4.664062 9.664062 C 5.109375 9.664062 5.53125 9.84375 5.84375 10.15625 C 6.15625 10.46875 6.335938 10.890625 6.335938 11.335938 C 6.335938 12.253906 5.585938 13 4.664062 13 C 3.746094 13 3 12.253906 3 11.335938 C 3 10.417969 3.738281 9.671875 4.65625 9.664062 Z M 4.65625 9.664062 "/>
</g>
</svg>
