<?xml version="1.0" encoding="UTF-8"?>
<svg xmlns="http://www.w3.org/2000/svg" xmlns:xlink="http://www.w3.org/1999/xlink" width="16" height="16" viewBox="0 0 16 16" version="1.1">
<g id="surface1">
<path style=" stroke:none;fill-rule:nonzero;fill:rgb(100%,100%,100%);fill-opacity:1;" d="M 2.207031 0 C 0.984375 0.00390625 -0.00390625 0.996094 0 2.21875 L 0 13.78125 C -0.00390625 15.003906 0.984375 16 2.207031 16 L 13.789062 16 C 15.015625 16 16 15.003906 16 13.78125 C 16 13.382812 15.890625 12.996094 15.691406 12.65625 C 15.628906 12.488281 15.539062 12.332031 15.40625 12.199219 L 14.5625 11.355469 L 14.289062 11.625 L 12.609375 13.3125 L 11.863281 12.5625 L 12.851562 11.570312 L 13.8125 10.605469 L 12.269531 9.058594 L 10.320312 11.015625 L 9.570312 10.265625 L 11.523438 8.3125 L 9.976562 6.761719 L 8.027344 8.71875 L 7.28125 7.96875 L 9.230469 6.015625 L 7.6875 4.46875 L 5.734375 6.421875 L 4.992188 5.679688 L 6.945312 3.722656 L 5.398438 2.167969 L 4.421875 3.148438 L 3.445312 4.125 L 2.703125 3.382812 L 4.367188 1.71875 L 4.65625 1.425781 L 3.882812 0.65625 C 3.75 0.515625 3.589844 0.421875 3.421875 0.359375 C 3.0625 0.125 2.636719 -0.00390625 2.203125 0 Z M 4.421875 7.632812 L 8.351562 11.570312 L 4.421875 11.570312 Z M 4.421875 7.632812 "/>
</g>
</svg>
