<?xml version="1.0" encoding="UTF-8"?>
<svg xmlns="http://www.w3.org/2000/svg" xmlns:xlink="http://www.w3.org/1999/xlink" width="16" height="16" viewBox="0 0 16 16" version="1.1">
<g id="surface1">
<path style=" stroke:none;fill-rule:nonzero;fill:rgb(100%,100%,100%);fill-opacity:1;" d="M 12 13.332031 L 4 13.332031 L 4 14.667969 L 2.667969 14.667969 L 2.667969 13.332031 L 2 13.332031 C 1.632812 13.332031 1.332031 13.035156 1.332031 12.667969 L 1.332031 2.667969 C 1.332031 2.296875 1.632812 2 2 2 L 14 2 C 14.367188 2 14.667969 2.296875 14.667969 2.667969 L 14.667969 12.667969 C 14.667969 13.035156 14.367188 13.332031 14 13.332031 L 13.332031 13.332031 L 13.332031 14.667969 L 12 14.667969 Z M 2.667969 12 L 13.332031 12 L 13.332031 3.332031 L 2.667969 3.332031 Z M 8.667969 9.25 L 8.667969 11.332031 L 7.332031 11.332031 L 7.332031 9.25 C 6.035156 8.910156 5.191406 7.660156 5.359375 6.332031 C 5.53125 5.003906 6.660156 4.003906 8 4 C 9.34375 4 10.480469 4.996094 10.648438 6.332031 C 10.816406 7.664062 9.96875 8.914062 8.667969 9.25 Z M 8 8 C 8.738281 8 9.332031 7.402344 9.332031 6.667969 C 9.332031 5.929688 8.738281 5.332031 8 5.332031 C 7.261719 5.332031 6.667969 5.929688 6.667969 6.667969 C 6.667969 7.402344 7.261719 8 8 8 Z M 8 8 "/>
</g>
</svg>
