<?xml version="1.0" encoding="UTF-8"?>
<svg xmlns="http://www.w3.org/2000/svg" xmlns:xlink="http://www.w3.org/1999/xlink" width="16" height="16" viewBox="0 0 16 16" version="1.1">
<g id="surface1">
<path style=" stroke:none;fill-rule:nonzero;fill:rgb(100%,100%,100%);fill-opacity:1;" d="M 6.667969 4 C 6.667969 4.488281 6.535156 4.945312 6.308594 5.339844 L 8 7.058594 L 12.484375 2.570312 C 13.007812 2.050781 13.851562 2.050781 14.371094 2.570312 L 6.296875 10.644531 C 6.980469 11.800781 6.695312 13.285156 5.632812 14.105469 C 4.570312 14.929688 3.0625 14.835938 2.113281 13.882812 C 1.164062 12.933594 1.070312 11.425781 1.890625 10.367188 C 2.714844 9.304688 4.199219 9.019531 5.355469 9.703125 L 7.058594 8 L 5.355469 6.296875 C 4.3125 6.910156 2.988281 6.75 2.128906 5.898438 C 1.265625 5.050781 1.085938 3.726562 1.683594 2.679688 C 2.285156 1.628906 3.515625 1.113281 4.683594 1.421875 C 5.851562 1.734375 6.667969 2.789062 6.667969 4 Z M 5.332031 4 C 5.332031 3.261719 4.738281 2.667969 4 2.667969 C 3.261719 2.667969 2.667969 3.261719 2.667969 4 C 2.667969 4.738281 3.261719 5.332031 4 5.332031 C 4.738281 5.332031 5.332031 4.738281 5.332031 4 Z M 14.371094 13.429688 C 13.851562 13.949219 13.007812 13.949219 12.484375 13.429688 L 8.941406 9.882812 L 9.882812 8.941406 Z M 10.667969 7.332031 L 12 7.332031 L 12 8.667969 L 10.667969 8.667969 Z M 13.332031 7.332031 L 14.667969 7.332031 L 14.667969 8.667969 L 13.332031 8.667969 Z M 4 7.332031 L 5.332031 7.332031 L 5.332031 8.667969 L 4 8.667969 Z M 1.332031 7.332031 L 2.667969 7.332031 L 2.667969 8.667969 L 1.332031 8.667969 Z M 4 13.332031 C 4.738281 13.332031 5.332031 12.738281 5.332031 12 C 5.332031 11.261719 4.738281 10.667969 4 10.667969 C 3.261719 10.667969 2.667969 11.261719 2.667969 12 C 2.667969 12.738281 3.261719 13.332031 4 13.332031 Z M 4 13.332031 "/>
</g>
</svg>
