<?xml version="1.0" encoding="UTF-8"?>
<svg xmlns="http://www.w3.org/2000/svg" xmlns:xlink="http://www.w3.org/1999/xlink" width="16" height="16" viewBox="0 0 16 16" version="1.1">
<g id="surface1">
<path style=" stroke:none;fill-rule:nonzero;fill:rgb(100%,100%,100%);fill-opacity:1;" d="M 8.101562 0.00390625 C 4.617188 -0.0898438 1.316406 2.328125 0.351562 5.679688 C 0.351562 5.679688 0.351562 5.683594 0.351562 5.6875 C -0.714844 9.027344 0.703125 12.878906 3.679688 14.730469 C 6.59375 16.664062 10.679688 16.359375 13.277344 14.015625 C 15.945312 11.742188 16.773438 7.71875 15.226562 4.574219 C 13.960938 1.851562 11.125 0.0234375 8.117188 0.00390625 Z M 7.109375 3.753906 C 8.921875 3.753906 10.40625 5.238281 10.40625 7.054688 C 10.40625 7.808594 10.148438 8.5 9.71875 9.0625 L 12.023438 11.234375 C 12.257812 11.457031 12.269531 11.832031 12.046875 12.070312 C 11.820312 12.304688 11.445312 12.3125 11.210938 12.09375 L 8.84375 9.859375 C 8.335938 10.171875 7.746094 10.359375 7.109375 10.359375 C 5.292969 10.359375 3.804688 8.871094 3.804688 7.054688 C 3.804688 5.238281 5.292969 3.753906 7.109375 3.753906 Z M 7.109375 4.9375 C 5.929688 4.9375 4.984375 5.875 4.984375 7.054688 C 4.984375 8.234375 5.929688 9.175781 7.109375 9.175781 C 8.285156 9.175781 9.226562 8.234375 9.226562 7.054688 C 9.226562 5.875 8.285156 4.9375 7.109375 4.9375 Z M 7.109375 4.9375 "/>
</g>
</svg>
