<?xml version="1.0" encoding="UTF-8"?>
<svg xmlns="http://www.w3.org/2000/svg" xmlns:xlink="http://www.w3.org/1999/xlink" width="16" height="16" viewBox="0 0 16 16" version="1.1">
<g id="surface1">
<path style=" stroke:none;fill-rule:nonzero;fill:rgb(100%,100%,100%);fill-opacity:1;" d="M 2.492188 0.9375 L 14.800781 7.707031 C 14.910156 7.765625 14.972656 7.878906 14.972656 8 C 14.972656 8.121094 14.910156 8.234375 14.800781 8.292969 L 2.492188 15.0625 C 2.390625 15.117188 2.265625 15.117188 2.164062 15.054688 C 2.0625 14.996094 2 14.886719 2 14.769531 L 2 1.230469 C 2 1.113281 2.0625 1.003906 2.164062 0.945312 C 2.265625 0.882812 2.390625 0.882812 2.492188 0.9375 Z M 3.332031 8.667969 L 3.332031 13.078125 L 12.566406 8 L 3.332031 2.921875 L 3.332031 7.332031 L 6.667969 7.332031 L 6.667969 8.667969 Z M 3.332031 8.667969 "/>
</g>
</svg>
