<?xml version="1.0" encoding="UTF-8"?>
<svg xmlns="http://www.w3.org/2000/svg" xmlns:xlink="http://www.w3.org/1999/xlink" width="16" height="16" viewBox="0 0 16 16" version="1.1">
<g id="surface1">
<path style=" stroke:none;fill-rule:evenodd;fill:rgb(100%,100%,100%);fill-opacity:1;" d="M 1 0 C 0.445312 0 0 0.445312 0 1 L 0 3 C 0 3.554688 0.445312 4 1 4 L 15 4 C 15.554688 4 16 3.554688 16 3 L 16 1 C 16 0.445312 15.554688 0 15 0 Z M 11 1 C 11.554688 1 12 1.445312 12 2 C 12 2.554688 11.554688 3 11 3 C 10.445312 3 10 2.554688 10 2 C 10 1.445312 10.445312 1 11 1 Z M 14 1 C 14.554688 1 15 1.445312 15 2 C 15 2.554688 14.554688 3 14 3 C 13.445312 3 13 2.554688 13 2 C 13 1.445312 13.445312 1 14 1 Z M 1 6 C 0.445312 6 0 6.445312 0 7 L 0 9 C 0 9.554688 0.445312 10 1 10 L 15 10 C 15.554688 10 16 9.554688 16 9 L 16 7 C 16 6.445312 15.554688 6 15 6 Z M 11 7 C 11.554688 7 12 7.445312 12 8 C 12 8.554688 11.554688 9 11 9 C 10.445312 9 10 8.554688 10 8 C 10 7.445312 10.445312 7 11 7 Z M 14 7 C 14.554688 7 15 7.445312 15 8 C 15 8.554688 14.554688 9 14 9 C 13.445312 9 13 8.554688 13 8 C 13 7.445312 13.445312 7 14 7 Z M 1 12 C 0.445312 12 0 12.445312 0 13 L 0 15 C 0 15.554688 0.445312 16 1 16 L 15 16 C 15.554688 16 16 15.554688 16 15 L 16 13 C 16 12.445312 15.554688 12 15 12 Z M 11 13 C 11.554688 13 12 13.445312 12 14 C 12 14.554688 11.554688 15 11 15 C 10.445312 15 10 14.554688 10 14 C 10 13.445312 10.445312 13 11 13 Z M 14 13 C 14.554688 13 15 13.445312 15 14 C 15 14.554688 14.554688 15 14 15 C 13.445312 15 13 14.554688 13 14 C 13 13.445312 13.445312 13 14 13 Z M 14 13 "/>
</g>
</svg>
