<?xml version="1.0" encoding="UTF-8"?>
<svg xmlns="http://www.w3.org/2000/svg" xmlns:xlink="http://www.w3.org/1999/xlink" width="16" height="16" viewBox="0 0 16 16" version="1.1">
<g id="surface1">
<path style=" stroke:none;fill-rule:nonzero;fill:rgb(100%,100%,100%);fill-opacity:1;" d="M 9.414062 6.988281 C 9.152344 6.726562 8.730469 6.726562 8.472656 6.988281 L 8 7.457031 C 7.664062 7.804688 7.167969 7.941406 6.703125 7.820312 C 6.238281 7.699219 5.875 7.335938 5.75 6.867188 C 5.628906 6.402344 5.769531 5.90625 6.113281 5.570312 L 9.867188 1.816406 C 11.691406 1.402344 13.574219 2.203125 14.539062 3.804688 C 15.503906 5.402344 15.335938 7.445312 14.121094 8.863281 L 12.714844 10.285156 L 9.414062 6.984375 Z M 2.105469 2.980469 C 3.527344 1.558594 5.738281 1.300781 7.445312 2.351562 L 5.171875 4.628906 C 4.144531 5.652344 4.125 7.304688 5.125 8.355469 C 6.121094 9.402344 7.773438 9.464844 8.847656 8.492188 L 8.941406 8.402344 L 11.769531 11.230469 L 8.941406 14.058594 C 8.421875 14.578125 7.578125 14.578125 7.058594 14.058594 L 2.105469 9.105469 C 0.414062 7.414062 0.414062 4.671875 2.105469 2.980469 Z M 2.105469 2.980469 "/>
</g>
</svg>
