<?xml version="1.0" encoding="UTF-8"?>
<svg xmlns="http://www.w3.org/2000/svg" xmlns:xlink="http://www.w3.org/1999/xlink" width="16" height="16" viewBox="0 0 16 16" version="1.1">
<g id="surface1">
<path style=" stroke:none;fill-rule:nonzero;fill:rgb(100%,100%,100%);fill-opacity:1;" d="M 5.789062 2.667969 L 7.527344 0.929688 C 7.789062 0.667969 8.210938 0.667969 8.472656 0.929688 L 10.210938 2.667969 L 12.667969 2.667969 C 13.035156 2.667969 13.332031 2.964844 13.332031 3.332031 L 13.332031 5.789062 L 15.070312 7.527344 C 15.332031 7.789062 15.332031 8.210938 15.070312 8.472656 L 13.332031 10.210938 L 13.332031 12.667969 C 13.332031 13.035156 13.035156 13.332031 12.667969 13.332031 L 10.210938 13.332031 L 8.472656 15.070312 C 8.210938 15.332031 7.789062 15.332031 7.527344 15.070312 L 5.789062 13.332031 L 3.332031 13.332031 C 2.964844 13.332031 2.667969 13.035156 2.667969 12.667969 L 2.667969 10.210938 L 0.929688 8.472656 C 0.667969 8.210938 0.667969 7.789062 0.929688 7.527344 L 2.667969 5.789062 L 2.667969 3.332031 C 2.667969 2.964844 2.964844 2.667969 3.332031 2.667969 Z M 4 4 L 4 6.34375 L 2.34375 8 L 4 9.65625 L 4 12 L 6.34375 12 L 8 13.65625 L 9.65625 12 L 12 12 L 12 9.65625 L 13.65625 8 L 12 6.34375 L 12 4 L 9.65625 4 L 8 2.34375 L 6.34375 4 Z M 8 10.667969 C 6.527344 10.667969 5.332031 9.472656 5.332031 8 C 5.332031 6.527344 6.527344 5.332031 8 5.332031 C 9.472656 5.332031 10.667969 6.527344 10.667969 8 C 10.667969 9.472656 9.472656 10.667969 8 10.667969 Z M 8 9.332031 C 8.738281 9.332031 9.332031 8.738281 9.332031 8 C 9.332031 7.261719 8.738281 6.667969 8 6.667969 C 7.261719 6.667969 6.667969 7.261719 6.667969 8 C 6.667969 8.738281 7.261719 9.332031 8 9.332031 Z M 8 9.332031 "/>
</g>
</svg>
