<?xml version="1.0" encoding="UTF-8"?>
<svg xmlns="http://www.w3.org/2000/svg" xmlns:xlink="http://www.w3.org/1999/xlink" width="16" height="16" viewBox="0 0 16 16" version="1.1">
<g id="surface1">
<path style=" stroke:none;fill-rule:nonzero;fill:rgb(100%,100%,100%);fill-opacity:1;" d="M 1.421875 9.085938 C 1.300781 8.367188 1.300781 7.632812 1.421875 6.914062 C 2.15625 6.929688 2.816406 6.578125 3.074219 5.960938 C 3.328125 5.339844 3.113281 4.625 2.578125 4.117188 C 3.003906 3.523438 3.523438 3.003906 4.117188 2.578125 C 4.625 3.113281 5.339844 3.328125 5.960938 3.074219 C 6.578125 2.816406 6.929688 2.15625 6.914062 1.421875 C 7.632812 1.300781 8.367188 1.300781 9.085938 1.421875 C 9.070312 2.15625 9.421875 2.816406 10.039062 3.074219 C 10.660156 3.328125 11.375 3.113281 11.882812 2.578125 C 12.476562 3.003906 12.996094 3.523438 13.421875 4.117188 C 12.886719 4.625 12.671875 5.339844 12.925781 5.960938 C 13.183594 6.578125 13.84375 6.929688 14.578125 6.914062 C 14.699219 7.632812 14.699219 8.367188 14.578125 9.085938 C 13.84375 9.070312 13.183594 9.421875 12.925781 10.039062 C 12.671875 10.660156 12.886719 11.375 13.421875 11.882812 C 12.996094 12.476562 12.476562 12.996094 11.882812 13.421875 C 11.375 12.886719 10.660156 12.671875 10.039062 12.925781 C 9.421875 13.183594 9.070312 13.84375 9.085938 14.578125 C 8.367188 14.699219 7.632812 14.699219 6.914062 14.578125 C 6.929688 13.84375 6.578125 13.183594 5.960938 12.925781 C 5.339844 12.671875 4.625 12.886719 4.117188 13.421875 C 3.523438 12.996094 3.003906 12.476562 2.578125 11.882812 C 3.113281 11.375 3.328125 10.660156 3.074219 10.039062 C 2.816406 9.421875 2.15625 9.070312 1.421875 9.085938 Z M 8 10 C 9.105469 10 10 9.105469 10 8 C 10 6.894531 9.105469 6 8 6 C 6.894531 6 6 6.894531 6 8 C 6 9.105469 6.894531 10 8 10 Z M 8 10 "/>
</g>
</svg>
