<?xml version="1.0" encoding="UTF-8"?>
<svg xmlns="http://www.w3.org/2000/svg" xmlns:xlink="http://www.w3.org/1999/xlink" width="16" height="16" viewBox="0 0 16 16" version="1.1">
<g id="surface1">
<path style=" stroke:none;fill-rule:nonzero;fill:rgb(100%,100%,100%);fill-opacity:1;" d="M 5.21875 13.332031 C 4.910156 14.210938 4.035156 14.757812 3.109375 14.652344 C 2.183594 14.546875 1.453125 13.816406 1.347656 12.890625 C 1.242188 11.964844 1.789062 11.089844 2.667969 10.78125 L 2.667969 5.21875 C 1.789062 4.910156 1.242188 4.035156 1.347656 3.109375 C 1.453125 2.183594 2.183594 1.453125 3.109375 1.347656 C 4.035156 1.242188 4.910156 1.789062 5.21875 2.667969 L 10.78125 2.667969 C 11.089844 1.789062 11.964844 1.242188 12.890625 1.347656 C 13.816406 1.453125 14.546875 2.183594 14.652344 3.109375 C 14.757812 4.035156 14.210938 4.910156 13.332031 5.21875 L 13.332031 10.78125 C 14.210938 11.089844 14.757812 11.964844 14.652344 12.890625 C 14.546875 13.816406 13.816406 14.546875 12.890625 14.652344 C 11.964844 14.757812 11.089844 14.210938 10.78125 13.332031 Z M 5.21875 12 L 10.78125 12 C 10.980469 11.429688 11.429688 10.980469 12 10.78125 L 12 5.21875 C 11.429688 5.019531 10.980469 4.570312 10.78125 4 L 5.21875 4 C 5.019531 4.570312 4.570312 5.019531 4 5.21875 L 4 10.78125 C 4.570312 10.980469 5.019531 11.429688 5.21875 12 Z M 3.332031 4 C 3.703125 4 4 3.703125 4 3.332031 C 4 2.964844 3.703125 2.667969 3.332031 2.667969 C 2.964844 2.667969 2.667969 2.964844 2.667969 3.332031 C 2.667969 3.703125 2.964844 4 3.332031 4 Z M 12.667969 4 C 13.035156 4 13.332031 3.703125 13.332031 3.332031 C 13.332031 2.964844 13.035156 2.667969 12.667969 2.667969 C 12.296875 2.667969 12 2.964844 12 3.332031 C 12 3.703125 12.296875 4 12.667969 4 Z M 12.667969 13.332031 C 13.035156 13.332031 13.332031 13.035156 13.332031 12.667969 C 13.332031 12.296875 13.035156 12 12.667969 12 C 12.296875 12 12 12.296875 12 12.667969 C 12 13.035156 12.296875 13.332031 12.667969 13.332031 Z M 3.332031 13.332031 C 3.703125 13.332031 4 13.035156 4 12.667969 C 4 12.296875 3.703125 12 3.332031 12 C 2.964844 12 2.667969 12.296875 2.667969 12.667969 C 2.667969 13.035156 2.964844 13.332031 3.332031 13.332031 Z M 3.332031 13.332031 "/>
</g>
</svg>
