<?xml version="1.0" encoding="UTF-8"?>
<svg xmlns="http://www.w3.org/2000/svg" xmlns:xlink="http://www.w3.org/1999/xlink" width="16" height="16" viewBox="0 0 16 16" version="1.1">
<g id="surface1">
<path style=" stroke:none;fill-rule:nonzero;fill:rgb(100%,100%,100%);fill-opacity:1;" d="M 9.050781 11.515625 L 5.644531 9.65625 C 4.730469 10.5625 3.257812 10.558594 2.347656 9.648438 C 1.441406 8.738281 1.441406 7.261719 2.347656 6.351562 C 3.257812 5.441406 4.730469 5.4375 5.644531 6.34375 L 9.050781 4.484375 C 8.808594 3.351562 9.4375 2.214844 10.523438 1.8125 C 11.609375 1.410156 12.824219 1.863281 13.378906 2.882812 C 13.9375 3.898438 13.660156 5.167969 12.734375 5.863281 C 11.808594 6.5625 10.511719 6.472656 9.6875 5.65625 L 6.28125 7.515625 C 6.351562 7.835938 6.351562 8.164062 6.28125 8.484375 L 9.6875 10.34375 C 10.511719 9.527344 11.808594 9.4375 12.734375 10.136719 C 13.660156 10.832031 13.9375 12.101562 13.378906 13.117188 C 12.824219 14.136719 11.609375 14.589844 10.523438 14.1875 C 9.4375 13.785156 8.808594 12.648438 9.050781 11.515625 Z M 9.050781 11.515625 "/>
</g>
</svg>
