<?xml version="1.0" encoding="UTF-8"?>
<svg xmlns="http://www.w3.org/2000/svg" xmlns:xlink="http://www.w3.org/1999/xlink" width="16" height="16" viewBox="0 0 16 16" version="1.1">
<g id="surface1">
<path style=" stroke:none;fill-rule:nonzero;fill:rgb(100%,100%,100%);fill-opacity:1;" d="M 8 0.667969 L 13.476562 1.882812 C 13.78125 1.953125 14 2.222656 14 2.535156 L 14 9.191406 C 14 10.53125 13.332031 11.777344 12.21875 12.519531 L 8 15.332031 L 3.78125 12.519531 C 2.667969 11.777344 2 10.53125 2 9.191406 L 2 2.535156 C 2 2.222656 2.21875 1.953125 2.523438 1.882812 Z M 8 2.03125 L 3.332031 3.070312 L 3.332031 9.191406 C 3.332031 10.085938 3.777344 10.917969 4.519531 11.410156 L 8 13.730469 L 11.480469 11.410156 C 12.222656 10.917969 12.667969 10.085938 12.667969 9.191406 L 12.667969 3.070312 L 8 2.035156 Z M 8 4.667969 C 8.605469 4.667969 9.132812 5.070312 9.289062 5.65625 C 9.445312 6.238281 9.191406 6.851562 8.667969 7.15625 L 8.667969 10 L 7.332031 10 L 7.332031 7.15625 C 6.8125 6.851562 6.554688 6.238281 6.710938 5.65625 C 6.867188 5.070312 7.398438 4.667969 8 4.667969 Z M 8 4.667969 "/>
</g>
</svg>
