<?xml version="1.0" encoding="UTF-8"?>
<svg xmlns="http://www.w3.org/2000/svg" xmlns:xlink="http://www.w3.org/1999/xlink" width="16" height="16" viewBox="0 0 16 16" version="1.1">
<g id="surface1">
<path style=" stroke:none;fill-rule:nonzero;fill:rgb(100%,100%,100%);fill-opacity:1;" d="M 2.667969 6.933594 L 2.667969 2.667969 C 2.667969 2.296875 2.964844 2 3.332031 2 L 6.667969 2 L 6.667969 0.667969 L 9.332031 0.667969 L 9.332031 2 L 12.667969 2 C 13.035156 2 13.332031 2.296875 13.332031 2.667969 L 13.332031 6.933594 L 14.058594 7.152344 C 14.398438 7.253906 14.597656 7.605469 14.511719 7.949219 L 13.5 11.996094 C 12.394531 12.054688 11.332031 11.554688 10.667969 10.667969 C 10.039062 11.507812 9.050781 12 8 12 C 6.949219 12 5.960938 11.507812 5.332031 10.667969 C 4.667969 11.554688 3.605469 12.054688 2.5 11.996094 L 1.488281 7.949219 C 1.402344 7.605469 1.601562 7.253906 1.941406 7.152344 Z M 4 6.535156 L 8 5.332031 L 9.835938 5.882812 L 11.042969 6.246094 L 12 6.535156 L 12 3.332031 L 4 3.332031 Z M 2.667969 13.332031 C 3.652344 13.335938 4.601562 12.972656 5.332031 12.316406 C 6.066406 12.972656 7.015625 13.335938 8 13.332031 C 8.984375 13.335938 9.933594 12.972656 10.667969 12.316406 C 11.398438 12.972656 12.347656 13.335938 13.332031 13.332031 L 14.667969 13.332031 L 14.667969 14.667969 L 13.332031 14.667969 C 12.398438 14.667969 11.476562 14.421875 10.667969 13.953125 C 9.855469 14.421875 8.9375 14.667969 8 14.667969 C 7.0625 14.667969 6.144531 14.421875 5.332031 13.953125 C 4.523438 14.421875 3.601562 14.667969 2.667969 14.667969 L 1.332031 14.667969 L 1.332031 13.332031 Z M 2.667969 13.332031 "/>
</g>
</svg>
