<?xml version="1.0" encoding="UTF-8"?>
<svg xmlns="http://www.w3.org/2000/svg" xmlns:xlink="http://www.w3.org/1999/xlink" width="16" height="16" viewBox="0 0 16 16" version="1.1">
<g id="surface1">
<path style=" stroke:none;fill-rule:nonzero;fill:rgb(100%,100%,100%);fill-opacity:1;" d="M 6 2.667969 L 9.628906 2.667969 C 9.859375 2.667969 10.074219 2.785156 10.195312 2.980469 L 12.5 6.667969 L 15.4375 6.667969 C 15.554688 6.667969 15.664062 6.730469 15.726562 6.828125 C 15.785156 6.929688 15.789062 7.058594 15.730469 7.160156 L 13.089844 12 L 12.667969 12 C 12.320312 12 11.976562 11.957031 11.644531 11.867188 L 13.753906 8 L 2.265625 8 L 2.964844 11.882812 C 2.648438 11.960938 2.324219 12 2 12 L 1.636719 12 L 0.808594 7.453125 C 0.773438 7.257812 0.828125 7.058594 0.953125 6.90625 C 1.078125 6.753906 1.265625 6.667969 1.464844 6.667969 L 2 6.667969 L 2 3.332031 C 2 2.964844 2.296875 2.667969 2.667969 2.667969 L 3.332031 2.667969 L 3.332031 0.667969 L 6 0.667969 Z M 3.332031 6.667969 L 10.929688 6.667969 L 9.261719 4 L 3.332031 4 Z M 2 13.332031 C 2.984375 13.335938 3.933594 12.972656 4.667969 12.316406 C 5.398438 12.972656 6.347656 13.335938 7.332031 13.332031 C 8.316406 13.335938 9.265625 12.972656 10 12.316406 C 10.734375 12.972656 11.683594 13.335938 12.667969 13.332031 L 14 13.332031 L 14 14.667969 L 12.667969 14.667969 C 11.730469 14.667969 10.808594 14.421875 10 13.953125 C 9.191406 14.421875 8.269531 14.667969 7.332031 14.667969 C 6.398438 14.667969 5.476562 14.421875 4.667969 13.953125 C 3.855469 14.421875 2.9375 14.667969 2 14.667969 L 0.667969 14.667969 L 0.667969 13.332031 Z M 2 13.332031 "/>
</g>
</svg>
