<?xml version="1.0" encoding="UTF-8"?>
<svg xmlns="http://www.w3.org/2000/svg" xmlns:xlink="http://www.w3.org/1999/xlink" width="16" height="16" viewBox="0 0 16 16" version="1.1">
<g id="surface1">
<path style=" stroke:none;fill-rule:nonzero;fill:rgb(100%,100%,100%);fill-opacity:1;" d="M 3 1 L 3 3 L 2 3 L 2 9 L 0 9 L 0 12 C 0 13 1 15 2 15 L 13 15 C 13 15 16 14 16 7 L 12 7 C 12 8 12 9 11 9 L 6 9 L 6 5 L 7 4 L 7 3 L 4 3 L 4 1 Z M 10.53125 10 L 10.554688 10 C 10.796875 10 11 10.203125 11 10.445312 L 11 11 L 12 11 L 12 10.457031 C 12 10.203125 12.203125 10 12.457031 10 L 12.507812 10 C 12.78125 10 13 10.21875 13 10.492188 L 13 12 L 10 12 L 10 10.53125 C 10 10.238281 10.238281 10 10.53125 10 Z M 10.53125 10 "/>
</g>
</svg>
