<?xml version="1.0" encoding="UTF-8"?>
<svg xmlns="http://www.w3.org/2000/svg" xmlns:xlink="http://www.w3.org/1999/xlink" width="16" height="16" viewBox="0 0 16 16" version="1.1">
<g id="surface1">
<path style=" stroke:none;fill-rule:nonzero;fill:rgb(100%,100%,100%);fill-opacity:1;" d="M 4.667969 5.332031 L 4.667969 4 C 4.667969 2.160156 6.160156 0.667969 8 0.667969 C 9.839844 0.667969 11.332031 2.160156 11.332031 4 L 11.332031 5.332031 L 13.332031 5.332031 C 13.703125 5.332031 14 5.632812 14 6 L 14 14 C 14 14.367188 13.703125 14.667969 13.332031 14.667969 L 2.667969 14.667969 C 2.296875 14.667969 2 14.367188 2 14 L 2 6 C 2 5.632812 2.296875 5.332031 2.667969 5.332031 Z M 4.667969 6.667969 L 3.332031 6.667969 L 3.332031 13.332031 L 12.667969 13.332031 L 12.667969 6.667969 L 11.332031 6.667969 L 11.332031 8 L 10 8 L 10 6.667969 L 6 6.667969 L 6 8 L 4.667969 8 Z M 6 5.332031 L 10 5.332031 L 10 4 C 10 2.894531 9.105469 2 8 2 C 6.894531 2 6 2.894531 6 4 Z M 6 5.332031 "/>
</g>
</svg>
