<?xml version="1.0" encoding="UTF-8"?>
<svg xmlns="http://www.w3.org/2000/svg" xmlns:xlink="http://www.w3.org/1999/xlink" width="16" height="16" viewBox="0 0 16 16" version="1.1">
<g id="surface1">
<path style=" stroke:none;fill-rule:nonzero;fill:rgb(100%,100%,100%);fill-opacity:1;" d="M 13.332031 14.667969 L 2.667969 14.667969 C 2.296875 14.667969 2 14.367188 2 14 L 2 2 C 2 1.632812 2.296875 1.332031 2.667969 1.332031 L 13.332031 1.332031 C 13.703125 1.332031 14 1.632812 14 2 L 14 14 C 14 14.367188 13.703125 14.667969 13.332031 14.667969 Z M 12.667969 13.332031 L 12.667969 2.667969 L 3.332031 2.667969 L 3.332031 13.332031 Z M 6 4 L 6 5.332031 C 6 6.4375 6.894531 7.332031 8 7.332031 C 9.105469 7.332031 10 6.4375 10 5.332031 L 10 4 L 11.332031 4 L 11.332031 5.332031 C 11.332031 7.175781 9.839844 8.667969 8 8.667969 C 6.160156 8.667969 4.667969 7.175781 4.667969 5.332031 L 4.667969 4 Z M 6 4 "/>
</g>
</svg>
