<?xml version="1.0" encoding="UTF-8"?>
<svg xmlns="http://www.w3.org/2000/svg" xmlns:xlink="http://www.w3.org/1999/xlink" width="16" height="16" viewBox="0 0 16 16" version="1.1">
<g id="surface1">
<path style=" stroke:none;fill-rule:nonzero;fill:rgb(100%,100%,100%);fill-opacity:1;" d="M 12.46875 0.03125 C 11.679688 -0.00390625 10.867188 0.234375 10.136719 0.71875 C 9.78125 0.484375 9.386719 0.3125 8.976562 0.203125 C 7.753906 -0.125 6.453125 0.132812 5.449219 0.90625 L 5.382812 0.84375 C 5.015625 0.472656 4.421875 0.472656 4.054688 0.84375 C 3.683594 1.210938 3.6875 1.804688 4.054688 2.171875 L 10.046875 8.160156 C 10.417969 8.53125 11.007812 8.527344 11.378906 8.15625 C 11.75 7.789062 11.75 7.195312 11.378906 6.828125 L 11.144531 6.59375 C 11.914062 5.59375 12.171875 4.289062 11.84375 3.070312 C 11.757812 2.742188 11.625 2.421875 11.457031 2.125 C 11.953125 1.878906 12.4375 1.859375 12.828125 2.007812 C 13.398438 2.21875 13.867188 2.726562 13.867188 3.828125 L 13.804688 15.964844 L 15.6875 15.96875 L 15.75 3.835938 L 15.75 3.828125 C 15.75 2.101562 14.804688 0.734375 13.492188 0.242188 C 13.164062 0.117188 12.820312 0.046875 12.46875 0.03125 Z M 3.75 3.339844 C 3.195312 3.339844 2.75 3.789062 2.75 4.339844 C 2.75 4.890625 3.195312 5.339844 3.75 5.339844 C 4.300781 5.339844 4.75 4.890625 4.75 4.339844 C 4.75 3.789062 4.300781 3.339844 3.75 3.339844 Z M 1.25 4.339844 C 0.695312 4.339844 0.25 4.789062 0.25 5.339844 C 0.25 5.890625 0.695312 6.339844 1.25 6.339844 C 1.800781 6.339844 2.25 5.890625 2.25 5.339844 C 2.25 4.789062 1.800781 4.339844 1.25 4.339844 Z M 5.75 5.339844 C 5.195312 5.339844 4.75 5.789062 4.75 6.339844 C 4.75 6.890625 5.195312 7.339844 5.75 7.339844 C 6.300781 7.339844 6.75 6.890625 6.75 6.339844 C 6.75 5.789062 6.300781 5.339844 5.75 5.339844 Z M 3.25 6.339844 C 2.695312 6.339844 2.25 6.789062 2.25 7.339844 C 2.25 7.890625 2.695312 8.339844 3.25 8.339844 C 3.800781 8.339844 4.25 7.890625 4.25 7.339844 C 4.25 6.789062 3.800781 6.339844 3.25 6.339844 Z M 7.75 7.339844 C 7.195312 7.339844 6.75 7.789062 6.75 8.339844 C 6.75 8.890625 7.195312 9.339844 7.75 9.339844 C 8.300781 9.339844 8.75 8.890625 8.75 8.339844 C 8.75 7.789062 8.300781 7.339844 7.75 7.339844 Z M 5.25 8.339844 C 4.695312 8.339844 4.25 8.789062 4.25 9.339844 C 4.25 9.890625 4.695312 10.339844 5.25 10.339844 C 5.800781 10.339844 6.25 9.890625 6.25 9.339844 C 6.25 8.789062 5.800781 8.339844 5.25 8.339844 Z M 7.25 10.339844 C 6.695312 10.339844 6.25 10.789062 6.25 11.339844 C 6.25 11.890625 6.695312 12.339844 7.25 12.339844 C 7.800781 12.339844 8.25 11.890625 8.25 11.339844 C 8.25 10.789062 7.800781 10.339844 7.25 10.339844 Z M 7.25 10.339844 "/>
</g>
</svg>
