<?xml version="1.0" encoding="UTF-8"?>
<svg xmlns="http://www.w3.org/2000/svg" xmlns:xlink="http://www.w3.org/1999/xlink" width="16" height="16" viewBox="0 0 16 16" version="1.1">
<g id="surface1">
<path style=" stroke:none;fill-rule:nonzero;fill:rgb(100%,100%,100%);fill-opacity:1;" d="M 12 11.921875 L 12 10.667969 L 15.332031 12.667969 L 12 14.667969 L 12 13.273438 C 9.925781 12.976562 8.160156 11.621094 7.335938 9.695312 L 7.332031 9.691406 L 7.332031 9.699219 C 6.386719 11.902344 4.214844 13.332031 1.816406 13.332031 L 1.332031 13.332031 L 1.332031 12 L 1.816406 12 C 3.683594 12 5.371094 10.886719 6.105469 9.171875 L 6.609375 8 L 6.105469 6.828125 C 5.371094 5.113281 3.683594 4 1.816406 4 L 1.332031 4 L 1.332031 2.667969 L 1.816406 2.667969 C 4.21875 2.667969 6.386719 4.097656 7.332031 6.304688 L 7.332031 6.308594 L 7.335938 6.300781 C 8.160156 4.378906 9.929688 3.023438 12 2.726562 L 12 1.332031 L 15.332031 3.332031 L 12 5.332031 L 12 4.078125 C 10.464844 4.363281 9.175781 5.394531 8.5625 6.828125 L 8.058594 8 L 8.5625 9.171875 C 9.175781 10.605469 10.464844 11.636719 12 11.921875 Z M 12 11.921875 "/>
</g>
</svg>
