<?xml version="1.0" encoding="UTF-8"?>
<svg xmlns="http://www.w3.org/2000/svg" xmlns:xlink="http://www.w3.org/1999/xlink" width="16" height="16" viewBox="0 0 16 16" version="1.1">
<g id="surface1">
<path style=" stroke:none;fill-rule:nonzero;fill:rgb(100%,100%,100%);fill-opacity:1;" d="M 4.496094 4 C 3.664062 4 2.929688 4.421875 2.273438 5.007812 C 1.617188 5.589844 0.964844 6.375 0.199219 7.398438 C 0.0390625 7.609375 -0.03125 7.875 0.0078125 8.140625 C 0.046875 8.402344 0.1875 8.640625 0.398438 8.796875 C 0.609375 8.960938 0.878906 9.027344 1.140625 8.992188 C 1.40625 8.953125 1.640625 8.8125 1.800781 8.601562 C 2.535156 7.621094 3.136719 6.910156 3.601562 6.496094 C 4.070312 6.082031 4.335938 6 4.496094 6 C 4.65625 6 4.914062 6.082031 5.375 6.496094 C 5.835938 6.910156 6.429688 7.613281 7.152344 8.59375 C 7.910156 9.617188 8.554688 10.414062 9.21875 11 C 9.882812 11.585938 10.628906 12.003906 11.464844 12.003906 C 12.300781 12.003906 13.039062 11.585938 13.710938 11 C 14.375 10.414062 15.03125 9.625 15.796875 8.601562 C 15.957031 8.386719 16.023438 8.121094 15.988281 7.859375 C 15.953125 7.59375 15.8125 7.359375 15.597656 7.195312 C 15.15625 6.867188 14.53125 6.960938 14.203125 7.398438 C 13.46875 8.375 12.859375 9.085938 12.386719 9.5 C 11.914062 9.914062 11.644531 10 11.464844 10 C 11.285156 10 11.015625 9.914062 10.546875 9.5 C 10.082031 9.085938 9.484375 8.382812 8.761719 7.40625 C 8.007812 6.382812 7.363281 5.59375 6.710938 5.007812 C 6.054688 4.417969 5.328125 4 4.496094 4 Z M 4.496094 4 "/>
</g>
</svg>
