<?xml version="1.0" encoding="UTF-8"?>
<svg xmlns="http://www.w3.org/2000/svg" xmlns:xlink="http://www.w3.org/1999/xlink" width="16" height="16" viewBox="0 0 16 16" version="1.1">
<g id="surface1">
<path style=" stroke:none;fill-rule:nonzero;fill:rgb(100%,100%,100%);fill-opacity:1;" d="M 4.242188 3.007812 C 3.890625 3.007812 3.59375 3.253906 3.523438 3.59375 L 1.976562 11 L 1.734375 11 C 1.539062 11 1.351562 11.078125 1.21875 11.21875 C 1.078125 11.359375 1 11.546875 1 11.742188 L 1 14.265625 C 1 14.460938 1.078125 14.648438 1.21875 14.789062 C 1.351562 14.929688 1.539062 15.003906 1.734375 15.003906 L 14.273438 15.003906 C 14.679688 15 15 14.671875 15 14.265625 L 15 11.742188 C 15 11.335938 14.679688 11.003906 14.273438 11 L 14.027344 11 L 12.476562 3.59375 C 12.40625 3.253906 12.109375 3.007812 11.761719 3.007812 Z M 4.832031 4.476562 L 11.171875 4.476562 L 12.53125 11 L 6.039062 11 L 6.8125 6.347656 C 6.855469 6.078125 6.679688 5.828125 6.414062 5.78125 C 6.375 5.777344 6.34375 5.773438 6.304688 5.777344 C 6.078125 5.789062 5.890625 5.960938 5.851562 6.1875 L 5.050781 11 L 3.46875 11 Z M 4.832031 4.476562 "/>
</g>
</svg>
