<?xml version="1.0" encoding="UTF-8"?>
<svg xmlns="http://www.w3.org/2000/svg" xmlns:xlink="http://www.w3.org/1999/xlink" width="16" height="16" viewBox="0 0 16 16" version="1.1">
<g id="surface1">
<path style=" stroke:none;fill-rule:nonzero;fill:rgb(100%,100%,100%);fill-opacity:1;" d="M 13.332031 8 C 13.332031 5.054688 10.945312 2.667969 8 2.667969 C 5.054688 2.667969 2.667969 5.054688 2.667969 8 L 2.667969 10.667969 L 4.667969 10.667969 C 5.035156 10.667969 5.332031 10.964844 5.332031 11.332031 L 5.332031 13.332031 L 10.667969 13.332031 L 10.667969 11.332031 C 10.667969 10.964844 10.964844 10.667969 11.332031 10.667969 L 13.332031 10.667969 Z M 12 12 L 12 14 C 12 14.367188 11.703125 14.667969 11.332031 14.667969 L 4.667969 14.667969 C 4.296875 14.667969 4 14.367188 4 14 L 4 12 L 2 12 C 1.632812 12 1.332031 11.703125 1.332031 11.332031 L 1.332031 8 C 1.332031 4.316406 4.316406 1.332031 8 1.332031 C 11.683594 1.332031 14.667969 4.316406 14.667969 8 L 14.667969 11.332031 C 14.667969 11.703125 14.367188 12 14 12 Z M 5 9.332031 C 4.449219 9.332031 4 8.886719 4 8.332031 C 4 7.78125 4.449219 7.332031 5 7.332031 C 5.550781 7.332031 6 7.78125 6 8.332031 C 6 8.886719 5.550781 9.332031 5 9.332031 Z M 11 9.332031 C 10.449219 9.332031 10 8.886719 10 8.332031 C 10 7.78125 10.449219 7.332031 11 7.332031 C 11.550781 7.332031 12 7.78125 12 8.332031 C 12 8.886719 11.550781 9.332031 11 9.332031 Z M 11 9.332031 "/>
</g>
</svg>
