<?xml version="1.0" encoding="UTF-8"?>
<svg xmlns="http://www.w3.org/2000/svg" xmlns:xlink="http://www.w3.org/1999/xlink" width="16" height="16" viewBox="0 0 16 16" version="1.1">
<g id="surface1">
<path style=" stroke:none;fill-rule:nonzero;fill:rgb(100%,100%,100%);fill-opacity:1;" d="M 8.875 13.601562 C 7.085938 13.878906 5.269531 13.289062 3.992188 12.007812 C 2.710938 10.730469 2.121094 8.914062 2.398438 7.125 C 1.6875 5.769531 1.9375 4.105469 3.023438 3.023438 C 4.105469 1.9375 5.769531 1.6875 7.125 2.398438 C 8.914062 2.121094 10.730469 2.710938 12.007812 3.992188 C 13.289062 5.269531 13.878906 7.085938 13.601562 8.875 C 14.3125 10.230469 14.0625 11.894531 12.976562 12.976562 C 11.894531 14.0625 10.230469 14.3125 8.875 13.601562 Z M 8.035156 11.4375 L 8.007812 11.4375 C 9.921875 11.4375 10.875 10.511719 10.875 9.273438 C 10.875 8.476562 10.507812 7.628906 9.058594 7.304688 L 7.738281 7.011719 C 7.234375 6.894531 6.65625 6.742188 6.65625 6.265625 C 6.65625 5.789062 7.070312 5.457031 7.804688 5.457031 C 9.292969 5.457031 9.15625 6.476562 9.894531 6.476562 C 10.277344 6.476562 10.621094 6.25 10.621094 5.855469 C 10.621094 4.941406 9.15625 4.257812 7.917969 4.257812 C 6.570312 4.257812 5.136719 4.828125 5.136719 6.351562 C 5.136719 7.085938 5.398438 7.867188 6.84375 8.226562 L 8.632812 8.675781 C 9.179688 8.808594 9.3125 9.113281 9.3125 9.390625 C 9.3125 9.847656 8.855469 10.296875 8.035156 10.296875 C 6.421875 10.296875 6.648438 9.058594 5.785156 9.058594 C 5.398438 9.058594 5.117188 9.324219 5.117188 9.703125 C 5.117188 10.449219 6.019531 11.4375 8.035156 11.4375 Z M 8.035156 11.4375 "/>
</g>
</svg>
