<?xml version="1.0" encoding="UTF-8"?>
<svg xmlns="http://www.w3.org/2000/svg" xmlns:xlink="http://www.w3.org/1999/xlink" width="16" height="16" viewBox="0 0 16 16" version="1.1">
<g id="surface1">
<path style=" stroke:none;fill-rule:evenodd;fill:rgb(100%,100%,100%);fill-opacity:1;" d="M 6 0 L 5.09375 3.632812 C 3.679688 4.574219 2.75 6.179688 2.75 8 C 2.75 9.820312 3.679688 11.425781 5.09375 12.367188 L 6 16 L 10 16 L 10.90625 12.367188 C 12.320312 11.425781 13.25 9.820312 13.25 8 C 13.25 6.179688 12.320312 4.574219 10.90625 3.632812 L 10 0 Z M 7.941406 4.25 L 7.945312 4.25 C 7.960938 4.25 7.980469 4.25 8 4.25 C 10.074219 4.25 11.75 5.925781 11.75 8 C 11.75 10.074219 10.074219 11.75 8 11.75 C 5.925781 11.75 4.25 10.074219 4.25 8 C 4.25 5.949219 5.890625 4.28125 7.941406 4.25 Z M 7.941406 4.25 "/>
</g>
</svg>
