<?xml version="1.0" encoding="UTF-8"?>
<svg xmlns="http://www.w3.org/2000/svg" xmlns:xlink="http://www.w3.org/1999/xlink" width="16" height="16" viewBox="0 0 16 16" version="1.1">
<g id="surface1">
<path style=" stroke:none;fill-rule:nonzero;fill:rgb(100%,100%,100%);fill-opacity:1;" d="M 2 0.75 C 1.859375 0.75 1.726562 0.8125 1.632812 0.914062 C 1.59375 0.960938 1.558594 1.011719 1.539062 1.066406 C 1.519531 1.109375 1.507812 1.15625 1.503906 1.203125 L 0.5 12.199219 C 0.5 12.21875 0.5 12.238281 0.5 12.257812 C 0.5 12.320312 0.511719 12.375 0.53125 12.429688 C 0.53125 12.433594 0.535156 12.433594 0.535156 12.433594 C 0.554688 12.480469 0.578125 12.523438 0.609375 12.5625 C 0.617188 12.570312 0.625 12.578125 0.628906 12.585938 C 0.636719 12.589844 0.640625 12.597656 0.648438 12.605469 C 0.65625 12.609375 0.664062 12.617188 0.671875 12.625 C 0.761719 12.703125 0.878906 12.75 1 12.75 L 5 12.75 L 5 15.25 L 11 15.25 L 11 12.75 L 15 12.75 C 15.140625 12.75 15.273438 12.6875 15.367188 12.585938 C 15.398438 12.558594 15.421875 12.523438 15.4375 12.492188 C 15.460938 12.457031 15.476562 12.417969 15.484375 12.382812 C 15.492188 12.359375 15.492188 12.34375 15.496094 12.324219 C 15.5 12.28125 15.503906 12.242188 15.5 12.203125 L 14.496094 1.203125 C 14.492188 1.140625 14.476562 1.085938 14.445312 1.03125 C 14.4375 1.011719 14.429688 0.996094 14.417969 0.976562 C 14.40625 0.960938 14.394531 0.945312 14.382812 0.929688 C 14.367188 0.914062 14.355469 0.898438 14.34375 0.886719 C 14.3125 0.859375 14.28125 0.835938 14.25 0.816406 C 14.210938 0.796875 14.179688 0.78125 14.140625 0.769531 C 14.09375 0.757812 14.046875 0.75 14 0.75 Z M 5.003906 1.746094 L 6 1.746094 L 6 4.25 L 10 4.25 L 10 1.746094 L 11.007812 1.746094 L 11.007812 4.25 L 13.773438 4.25 L 13.820312 4.796875 L 13.863281 5.246094 L 11.007812 5.246094 L 11.007812 8.25 L 14.132812 8.25 L 14.175781 8.695312 L 14.226562 9.246094 L 11.007812 9.246094 L 11.007812 11.75 L 10 11.75 L 10 9.246094 L 6 9.246094 L 6 11.75 L 5.003906 11.75 L 5.003906 9.246094 L 1.773438 9.246094 L 1.828125 8.695312 L 1.867188 8.25 L 5.003906 8.25 L 5.003906 5.246094 L 2.140625 5.246094 L 2.179688 4.796875 L 2.230469 4.25 L 5.003906 4.25 Z M 6 5.246094 L 6 8.25 L 10 8.25 L 10 5.246094 Z M 6 5.246094 "/>
</g>
</svg>
