<?xml version="1.0" encoding="UTF-8"?>
<svg xmlns="http://www.w3.org/2000/svg" xmlns:xlink="http://www.w3.org/1999/xlink" width="16" height="16" viewBox="0 0 16 16" version="1.1">
<g id="surface1">
<path style=" stroke:none;fill-rule:nonzero;fill:rgb(100%,100%,100%);fill-opacity:1;" d="M 14 12 L 14 14 L 12.667969 14 L 12.667969 12 L 11.332031 12 L 11.332031 10.667969 L 15.332031 10.667969 L 15.332031 12 Z M 3.332031 12 L 3.332031 14 L 2 14 L 2 12 L 0.667969 12 L 0.667969 10.667969 L 4.667969 10.667969 L 4.667969 12 Z M 7.332031 4 L 7.332031 2 L 8.667969 2 L 8.667969 4 L 10 4 L 10 5.332031 L 6 5.332031 L 6 4 Z M 7.332031 6.667969 L 8.667969 6.667969 L 8.667969 14 L 7.332031 14 Z M 2 9.332031 L 2 2 L 3.332031 2 L 3.332031 9.332031 Z M 12.667969 9.332031 L 12.667969 2 L 14 2 L 14 9.332031 Z M 12.667969 9.332031 "/>
</g>
</svg>
