<?xml version="1.0" encoding="UTF-8"?>
<svg xmlns="http://www.w3.org/2000/svg" xmlns:xlink="http://www.w3.org/1999/xlink" width="16" height="16" viewBox="0 0 16 16" version="1.1">
<g id="surface1">
<path style=" stroke:none;fill-rule:evenodd;fill:rgb(100%,100%,100%);fill-opacity:1;" d="M 4.652344 0 C 3.183594 0 2 1.183594 2 2.652344 L 2 13.347656 C 2 14.816406 3.183594 16 4.652344 16 L 11.347656 16 C 12.816406 16 14 14.816406 14 13.347656 L 14 2.652344 C 14 1.183594 12.816406 0 11.347656 0 Z M 7.953125 2 C 7.96875 2 7.984375 2 8 2 C 9.105469 2 10 2.894531 10 4 C 10 5.105469 9.105469 6 8 6 C 6.894531 6 6 5.105469 6 4 C 6 2.914062 6.867188 2.027344 7.953125 2 Z M 8 6.820312 C 10.355469 6.820312 12.265625 8.734375 12.265625 11.085938 C 12.265625 13.445312 10.355469 15.351562 8 15.351562 C 5.644531 15.351562 3.734375 13.445312 3.734375 11.085938 C 3.734375 8.734375 5.644531 6.820312 8 6.820312 Z M 8 6.820312 "/>
<path style=" stroke:none;fill-rule:evenodd;fill:rgb(100%,100%,100%);fill-opacity:1;" d="M 11 11 C 11 12.65625 9.65625 14 8 14 C 6.34375 14 5 12.65625 5 11 C 5 9.34375 6.34375 8 8 8 C 9.65625 8 11 9.34375 11 11 "/>
<path style=" stroke:none;fill-rule:evenodd;fill:rgb(100%,100%,100%);fill-opacity:1;" d="M 9 4 C 9 4.554688 8.554688 5 8 5 C 7.445312 5 7 4.554688 7 4 C 7 3.445312 7.445312 3 8 3 C 8.554688 3 9 3.445312 9 4 "/>
</g>
</svg>
