<?xml version="1.0" encoding="UTF-8"?>
<svg xmlns="http://www.w3.org/2000/svg" xmlns:xlink="http://www.w3.org/1999/xlink" width="16" height="16" viewBox="0 0 16 16" version="1.1">
<g id="surface1">
<path style=" stroke:none;fill-rule:nonzero;fill:rgb(100%,100%,100%);fill-opacity:1;" d="M 14.535156 9.335938 C 13.96875 12.097656 11.726562 14.207031 8.933594 14.601562 L 8.933594 13.253906 C 10.988281 12.886719 12.640625 11.355469 13.164062 9.332031 Z M 2.835938 9.335938 C 3.351562 11.332031 4.972656 12.851562 7 13.238281 L 7 14.59375 C 4.234375 14.171875 2.027344 12.074219 1.464844 9.332031 L 2.835938 9.332031 Z M 12 7.332031 L 12 8.667969 L 10 8.667969 C 9.300781 8.667969 8.722656 9.203125 8.671875 9.898438 L 8.667969 10 L 8.667969 12 L 7.332031 12 L 7.332031 10 C 7.332031 9.300781 6.796875 8.722656 6.101562 8.671875 L 6 8.667969 L 4 8.667969 L 4 7.332031 Z M 8 1.332031 C 11.457031 1.332031 14.300781 3.964844 14.632812 7.332031 L 13.292969 7.332031 C 12.957031 4.667969 10.6875 2.667969 8 2.667969 C 5.3125 2.667969 3.042969 4.667969 2.707031 7.332031 L 1.367188 7.332031 C 1.699219 3.964844 4.542969 1.332031 8 1.332031 Z M 8 1.332031 "/>
</g>
</svg>
