<?xml version="1.0" encoding="UTF-8"?>
<svg xmlns="http://www.w3.org/2000/svg" xmlns:xlink="http://www.w3.org/1999/xlink" width="16" height="16" viewBox="0 0 16 16" version="1.1">
<g id="surface1">
<path style=" stroke:none;fill-rule:nonzero;fill:rgb(100%,100%,100%);fill-opacity:1;" d="M 5.332031 3.332031 L 7.332031 3.332031 L 7.332031 9.332031 L 5.332031 9.332031 L 5.332031 11.332031 L 4 11.332031 L 4 9.332031 L 2 9.332031 L 2 3.332031 L 4 3.332031 L 4 1.332031 L 5.332031 1.332031 Z M 3.332031 4.667969 L 3.332031 8 L 6 8 L 6 4.667969 Z M 12 6.667969 L 14 6.667969 L 14 12.667969 L 12 12.667969 L 12 14.667969 L 10.667969 14.667969 L 10.667969 12.667969 L 8.667969 12.667969 L 8.667969 6.667969 L 10.667969 6.667969 L 10.667969 4.667969 L 12 4.667969 Z M 10 8 L 10 11.332031 L 12.667969 11.332031 L 12.667969 8 Z M 10 8 "/>
</g>
</svg>
