<?xml version="1.0" encoding="UTF-8"?>
<svg xmlns="http://www.w3.org/2000/svg" xmlns:xlink="http://www.w3.org/1999/xlink" width="16" height="16" viewBox="0 0 16 16" version="1.1">
<g id="surface1">
<path style=" stroke:none;fill-rule:nonzero;fill:rgb(100%,100%,100%);fill-opacity:1;" d="M 11.4375 9.332031 C 11.589844 9.675781 11.667969 10.058594 11.667969 10.480469 C 11.667969 11.375 11.316406 12.074219 10.621094 12.578125 C 9.921875 13.082031 8.957031 13.332031 7.722656 13.332031 C 6.628906 13.332031 5.546875 13.078125 4.476562 12.570312 L 4.476562 11.066406 C 5.492188 11.652344 6.527344 11.945312 7.589844 11.945312 C 9.289062 11.945312 10.140625 11.457031 10.148438 10.480469 C 10.15625 10.078125 10 9.695312 9.714844 9.410156 L 9.636719 9.332031 L 2 9.332031 L 2 8 L 14 8 L 14 9.332031 Z M 8.71875 7.332031 L 5.085938 7.332031 C 4.96875 7.226562 4.863281 7.109375 4.765625 6.984375 C 4.476562 6.613281 4.332031 6.164062 4.332031 5.632812 C 4.332031 4.8125 4.644531 4.109375 5.265625 3.53125 C 5.886719 2.957031 6.847656 2.667969 8.148438 2.667969 C 9.128906 2.667969 10.066406 2.886719 10.960938 3.324219 L 10.960938 4.757812 C 10.164062 4.300781 9.285156 4.070312 8.332031 4.070312 C 6.679688 4.070312 5.851562 4.59375 5.851562 5.632812 C 5.851562 5.914062 5.996094 6.160156 6.289062 6.367188 C 6.578125 6.574219 6.9375 6.742188 7.363281 6.867188 C 7.777344 6.988281 8.230469 7.144531 8.71875 7.332031 Z M 8.71875 7.332031 "/>
</g>
</svg>
