<?xml version="1.0" encoding="UTF-8"?>
<svg xmlns="http://www.w3.org/2000/svg" xmlns:xlink="http://www.w3.org/1999/xlink" width="16" height="16" viewBox="0 0 16 16" version="1.1">
<g id="surface1">
<path style=" stroke:none;fill-rule:nonzero;fill:rgb(100%,100%,100%);fill-opacity:1;" d="M 2.667969 3.332031 L 2.667969 12.667969 L 13.332031 12.667969 L 13.332031 3.332031 Z M 2 2 L 14 2 C 14.367188 2 14.667969 2.296875 14.667969 2.667969 L 14.667969 13.332031 C 14.667969 13.703125 14.367188 14 14 14 L 2 14 C 1.632812 14 1.332031 13.703125 1.332031 13.332031 L 1.332031 2.667969 C 1.332031 2.296875 1.632812 2 2 2 Z M 4.699219 4.746094 L 5.644531 5.691406 C 5.015625 6.316406 4.664062 7.164062 4.667969 8.046875 C 4.667969 8.964844 5.039062 9.800781 5.644531 10.402344 L 4.699219 11.347656 C 3.824219 10.472656 3.332031 9.285156 3.332031 8.046875 C 3.332031 6.757812 3.855469 5.589844 4.699219 4.746094 Z M 11.300781 4.746094 C 12.175781 5.621094 12.667969 6.808594 12.667969 8.046875 C 12.667969 9.285156 12.175781 10.472656 11.300781 11.347656 L 10.355469 10.40625 C 10.984375 9.78125 11.335938 8.929688 11.332031 8.046875 C 11.332031 7.125 10.960938 6.292969 10.355469 5.691406 Z M 8 8.714844 C 8.367188 8.714844 8.667969 8.414062 8.667969 8.046875 C 8.667969 7.679688 8.367188 7.378906 8 7.378906 C 7.632812 7.378906 7.332031 7.679688 7.332031 8.046875 C 7.332031 8.414062 7.632812 8.714844 8 8.714844 Z M 8 10.046875 C 6.894531 10.046875 6 9.152344 6 8.046875 C 6 6.941406 6.894531 6.046875 8 6.046875 C 9.105469 6.046875 10 6.941406 10 8.046875 C 10 9.152344 9.105469 10.046875 8 10.046875 Z M 8 10.046875 "/>
</g>
</svg>
