<?xml version="1.0" encoding="UTF-8"?>
<svg xmlns="http://www.w3.org/2000/svg" xmlns:xlink="http://www.w3.org/1999/xlink" width="16" height="16" viewBox="0 0 16 16" version="1.1">
<g id="surface1">
<path style=" stroke:none;fill-rule:nonzero;fill:rgb(100%,100%,100%);fill-opacity:1;" d="M 7.351562 1 C 7.46875 1.085938 7.585938 1.175781 7.691406 1.28125 L 14.09375 7.679688 C 14.671875 8.265625 14.671875 9.21875 14.09375 9.796875 L 9.140625 14.757812 C 9.496094 15.085938 10.046875 15.078125 10.390625 14.734375 L 15.722656 9.410156 C 16.09375 9.039062 16.09375 8.4375 15.722656 8.070312 L 9.320312 1.671875 C 8.890625 1.242188 8.3125 1 7.703125 1 Z M 7.351562 1 "/>
<path style=" stroke:none;fill-rule:nonzero;fill:rgb(100%,100%,100%);fill-opacity:1;" d="M 1.742188 1 C 0.78125 1 0 1.78125 0 2.742188 L 0 6.6875 C 0 7.292969 0.242188 7.875 0.671875 8.304688 L 7.101562 14.734375 C 7.453125 15.085938 8.023438 15.085938 8.375 14.734375 L 13.703125 9.410156 C 14.074219 9.039062 14.074219 8.4375 13.703125 8.070312 L 7.304688 1.671875 C 6.875 1.242188 6.292969 1 5.6875 1 Z M 2.609375 2.304688 C 3.335938 2.304688 3.917969 2.890625 3.917969 3.613281 C 3.917969 4.335938 3.335938 4.917969 2.609375 4.917969 C 1.890625 4.917969 1.304688 4.335938 1.304688 3.613281 C 1.304688 2.890625 1.890625 2.304688 2.609375 2.304688 Z M 2.609375 2.304688 "/>
</g>
</svg>
