<?xml version="1.0" encoding="UTF-8"?>
<svg xmlns="http://www.w3.org/2000/svg" xmlns:xlink="http://www.w3.org/1999/xlink" width="16" height="16" viewBox="0 0 16 16" version="1.1">
<g id="surface1">
<path style=" stroke:none;fill-rule:nonzero;fill:rgb(100%,100%,100%);fill-opacity:1;" d="M 2.382812 5.519531 L 1.589844 6.746094 L 3.054688 7.660156 C 3.054688 7.660156 4.03125 8.164062 3.5625 9.105469 C 3.128906 9.996094 1 11.953125 1 11.953125 L 2.90625 13.152344 C 4.230469 10.265625 4.140625 10.652344 4.472656 9.613281 C 4.8125 8.5625 4.886719 7.75 4.3125 7.164062 C 3.570312 6.414062 3.484375 6.34375 2.382812 5.519531 Z M 3.425781 5.054688 C 4.121094 5.054688 4.683594 4.550781 4.683594 3.925781 C 4.683594 3.296875 4.121094 2.792969 3.425781 2.792969 C 2.726562 2.792969 2.167969 3.300781 2.167969 3.925781 C 2.171875 4.546875 2.730469 5.054688 3.425781 5.054688 Z M 14.761719 5.195312 C 14.761719 5.195312 14.347656 1.949219 7.292969 3.960938 C 7.59375 3.429688 7.738281 3.089844 7.738281 3.089844 L 5.976562 2.589844 C 5.976562 2.589844 5.265625 4.925781 3.996094 6.015625 C 3.996094 6.015625 5.226562 6.730469 5.214844 6.707031 C 5.546875 6.375 5.863281 6.019531 6.152344 5.644531 C 6.433594 5.515625 6.707031 5.402344 6.96875 5.292969 C 6.640625 5.886719 6.117188 6.773438 5.589844 7.332031 L 6.332031 7.988281 C 6.332031 7.988281 6.839844 7.496094 7.390625 6.90625 L 8.019531 6.90625 L 8.019531 8 L 5.5625 8 L 5.5625 8.871094 L 8.019531 8.871094 L 8.019531 10.957031 L 7.925781 10.957031 C 7.65625 10.941406 7.234375 10.894531 7.070312 10.632812 C 6.871094 10.308594 7.015625 9.726562 7.027344 9.363281 L 5.328125 9.363281 L 5.269531 9.398438 C 5.269531 9.398438 4.644531 12.203125 7.0625 12.140625 C 9.316406 12.203125 10.613281 11.503906 11.238281 11.023438 L 11.484375 11.953125 L 12.878906 11.363281 L 11.933594 9.042969 L 10.804688 9.398438 L 11.015625 10.191406 C 10.730469 10.410156 10.394531 10.574219 10.035156 10.695312 L 10.035156 8.871094 L 12.429688 8.871094 L 12.429688 7.996094 L 10.035156 7.996094 L 10.035156 6.90625 L 12.4375 6.90625 L 12.4375 6.035156 L 8.164062 6.035156 C 8.476562 5.65625 8.714844 5.308594 8.777344 5.089844 L 8.03125 4.886719 C 11.230469 3.730469 13.011719 3.929688 12.996094 5.820312 L 12.996094 10.804688 C 12.996094 10.804688 13.1875 12.515625 11.238281 12.394531 L 10.1875 12.164062 L 9.941406 13.171875 C 9.941406 13.171875 14.488281 14.484375 14.859375 10.964844 C 15.226562 7.441406 14.761719 5.195312 14.761719 5.195312 Z M 14.761719 5.195312 "/>
</g>
</svg>
