<?xml version="1.0" encoding="UTF-8"?>
<svg xmlns="http://www.w3.org/2000/svg" xmlns:xlink="http://www.w3.org/1999/xlink" width="16" height="16" viewBox="0 0 16 16" version="1.1">
<g id="surface1">
<path style=" stroke:none;fill-rule:evenodd;fill:rgb(100%,100%,100%);fill-opacity:1;" d="M 7 0 C 5.890625 0 5 0.890625 5 2 L 5 7.757812 C 3.75 8.59375 3 10 3 11.5 C 3 13.984375 5.015625 16 7.5 16 C 9.984375 16 12 13.984375 12 11.5 C 12 9.996094 11.25 8.59375 10 7.757812 L 10 2 C 10 0.890625 9.109375 0 8 0 Z M 7 1 L 8 1 C 8.554688 1 9 1.445312 9 2 L 9 8.335938 C 10.21875 8.917969 11 10.148438 11 11.5 C 11 13.433594 9.433594 15 7.5 15 C 5.566406 15 4 13.433594 4 11.5 C 4 10.148438 4.78125 8.917969 6 8.335938 L 6 2 C 6 1.445312 6.445312 1 7 1 Z M 7 8 L 7 9.054688 C 5.835938 9.289062 5 10.3125 5 11.5 C 5 12.882812 6.117188 14 7.5 14 C 8.882812 14 10 12.882812 10 11.5 C 10 10.3125 9.164062 9.289062 8 9.050781 L 8 8 Z M 7 8 "/>
</g>
</svg>
