<?xml version="1.0" encoding="UTF-8"?>
<svg xmlns="http://www.w3.org/2000/svg" xmlns:xlink="http://www.w3.org/1999/xlink" width="16" height="16" viewBox="0 0 16 16" version="1.1">
<g id="surface1">
<path style=" stroke:none;fill-rule:nonzero;fill:rgb(100%,100%,100%);fill-opacity:1;" d="M 9.734375 5.332031 L 14 5.332031 C 14.738281 5.332031 15.332031 5.929688 15.332031 6.667969 L 15.332031 8.070312 C 15.332031 8.242188 15.300781 8.417969 15.234375 8.578125 L 13.171875 13.585938 C 13.066406 13.835938 12.824219 14 12.554688 14 L 1.332031 14 C 0.964844 14 0.667969 13.703125 0.667969 13.332031 L 0.667969 6.667969 C 0.667969 6.296875 0.964844 6 1.332031 6 L 3.65625 6 C 3.871094 6 4.074219 5.894531 4.199219 5.71875 L 7.835938 0.566406 C 7.929688 0.433594 8.109375 0.386719 8.257812 0.460938 L 9.464844 1.066406 C 10.167969 1.414062 10.527344 2.207031 10.335938 2.96875 Z M 4.667969 7.058594 L 4.667969 12.667969 L 12.105469 12.667969 L 14 8.070312 L 14 6.667969 L 9.734375 6.667969 C 9.320312 6.667969 8.933594 6.476562 8.679688 6.152344 C 8.429688 5.828125 8.339844 5.402344 8.441406 5.003906 L 9.042969 2.640625 C 9.082031 2.488281 9.007812 2.328125 8.871094 2.257812 L 8.429688 2.039062 L 5.289062 6.488281 C 5.121094 6.722656 4.910156 6.914062 4.667969 7.058594 Z M 3.332031 7.332031 L 2 7.332031 L 2 12.667969 L 3.332031 12.667969 Z M 3.332031 7.332031 "/>
</g>
</svg>
