<?xml version="1.0" encoding="UTF-8"?>
<svg xmlns="http://www.w3.org/2000/svg" xmlns:xlink="http://www.w3.org/1999/xlink" width="16" height="16" viewBox="0 0 16 16" version="1.1">
<g id="surface1">
<path style=" stroke:none;fill-rule:nonzero;fill:rgb(100%,100%,100%);fill-opacity:1;" d="M 10 -0.0390625 C 8.257812 -0.0585938 6 -0.0390625 6 -0.0390625 L 6 2.960938 L 10 2.960938 M 3.328125 3.460938 C 0.320312 6.054688 -0.03125 10.585938 2.546875 13.578125 C 5.125 16.570312 9.652344 16.890625 12.671875 14.289062 C 15.679688 11.695312 16.03125 7.164062 13.453125 4.171875 C 10.875 1.183594 6.34375 0.863281 3.328125 3.460938 Z M 11.632812 13.085938 C 9.289062 15.109375 5.765625 14.859375 3.757812 12.53125 C 1.75 10.203125 2.023438 6.6875 4.367188 4.664062 C 6.710938 2.640625 10.234375 2.890625 12.242188 5.21875 C 14.25 7.546875 13.976562 11.0625 11.632812 13.085938 Z M 11.632812 13.085938 "/>
<path style=" stroke:none;fill-rule:evenodd;fill:rgb(100%,100%,100%);fill-opacity:1;" d="M 8 4.726562 C 9.511719 4.726562 10.910156 5.53125 11.664062 6.84375 C 12.421875 8.152344 12.421875 9.765625 11.664062 11.078125 L 8 8.960938 Z M 8 4.726562 "/>
</g>
</svg>
