<?xml version="1.0" encoding="UTF-8"?>
<svg xmlns="http://www.w3.org/2000/svg" xmlns:xlink="http://www.w3.org/1999/xlink" width="16" height="16" viewBox="0 0 16 16" version="1.1">
<g id="surface1">
<path style=" stroke:none;fill-rule:nonzero;fill:rgb(100%,100%,100%);fill-opacity:1;" d="M 5.332031 4.667969 C 3.492188 4.667969 2 6.160156 2 8 C 2 9.839844 3.492188 11.332031 5.332031 11.332031 L 10.667969 11.332031 C 12.507812 11.332031 14 9.839844 14 8 C 14 6.160156 12.507812 4.667969 10.667969 4.667969 Z M 5.332031 3.332031 L 10.667969 3.332031 C 13.242188 3.332031 15.332031 5.421875 15.332031 8 C 15.332031 10.578125 13.242188 12.667969 10.667969 12.667969 L 5.332031 12.667969 C 2.757812 12.667969 0.667969 10.578125 0.667969 8 C 0.667969 5.421875 2.757812 3.332031 5.332031 3.332031 Z M 5.332031 10 C 4.230469 10 3.332031 9.105469 3.332031 8 C 3.332031 6.894531 4.230469 6 5.332031 6 C 6.4375 6 7.332031 6.894531 7.332031 8 C 7.332031 9.105469 6.4375 10 5.332031 10 Z M 5.332031 10 "/>
</g>
</svg>
