<?xml version="1.0" encoding="UTF-8"?>
<svg xmlns="http://www.w3.org/2000/svg" xmlns:xlink="http://www.w3.org/1999/xlink" width="16" height="16" viewBox="0 0 16 16" version="1.1">
<g id="surface1">
<path style=" stroke:none;fill-rule:evenodd;fill:rgb(100%,100%,100%);fill-opacity:0.996078;" d="M 7.988281 0 C 6.820312 0.00390625 5.65625 0.34375 4.5 1 L 4.5 1.5 L 3.5 1.5 L 3.5 2.5 L 4.5 2.5 L 4.5 5 L 11.5 5 L 11.5 2.5 L 12.5 2.5 L 12.5 1.5 L 11.5 1.5 L 11.5 1 C 10.324219 0.324219 9.15625 -0.00390625 7.988281 0 Z M 8 0.617188 C 9 0.617188 10 0.859375 11 1.34375 L 11 2.605469 C 8.945312 2.148438 6.953125 2.21875 5 2.605469 L 5 1.34375 C 6 0.851562 7 0.613281 8 0.617188 Z M 4 6 L 4 16 L 12 16 L 12 6 Z M 4 6 "/>
</g>
</svg>
