<?xml version="1.0" encoding="UTF-8"?>
<svg xmlns="http://www.w3.org/2000/svg" xmlns:xlink="http://www.w3.org/1999/xlink" width="16" height="16" viewBox="0 0 16 16" version="1.1">
<g id="surface1">
<path style=" stroke:none;fill-rule:nonzero;fill:rgb(100%,100%,100%);fill-opacity:1;" d="M 8 8.390625 L 10.828125 11.21875 L 9.886719 12.160156 L 8.667969 10.941406 L 8.667969 14.667969 L 7.332031 14.667969 L 7.332031 10.941406 L 6.113281 12.160156 L 5.171875 11.21875 Z M 8 1.332031 C 10.371094 1.332031 12.363281 3.109375 12.636719 5.460938 C 14.347656 5.929688 15.480469 7.554688 15.324219 9.324219 C 15.167969 11.089844 13.769531 12.492188 12 12.652344 L 12 11.332031 C 12.003906 9.152344 10.257812 7.371094 8.074219 7.328125 C 5.894531 7.289062 4.082031 9.003906 4.003906 11.183594 L 4 11.332031 L 4 12.652344 C 2.234375 12.492188 0.832031 11.089844 0.675781 9.324219 C 0.519531 7.554688 1.652344 5.929688 3.363281 5.460938 C 3.636719 3.109375 5.628906 1.332031 8 1.332031 Z M 8 1.332031 "/>
</g>
</svg>
