<?xml version="1.0" encoding="UTF-8"?>
<svg xmlns="http://www.w3.org/2000/svg" xmlns:xlink="http://www.w3.org/1999/xlink" width="16" height="16" viewBox="0 0 16 16" version="1.1">
<g id="surface1">
<path style=" stroke:none;fill-rule:nonzero;fill:rgb(100%,100%,100%);fill-opacity:1;" d="M 11.894531 10.4375 L 12.011719 10.558594 L 12.128906 10.4375 C 12.714844 9.855469 13.664062 9.855469 14.25 10.4375 C 14.835938 11.023438 14.835938 11.976562 14.25 12.5625 L 12.011719 14.800781 L 9.773438 12.5625 C 9.1875 11.976562 9.1875 11.023438 9.773438 10.4375 C 10.359375 9.855469 11.308594 9.855469 11.894531 10.4375 Z M 8 9.332031 L 8 10.667969 C 5.789062 10.667969 4 12.457031 4 14.667969 L 2.667969 14.667969 C 2.667969 11.785156 4.953125 9.425781 7.832031 9.335938 Z M 8 0.667969 C 10.210938 0.667969 12 2.457031 12 4.667969 C 12 6.816406 10.300781 8.585938 8.148438 8.664062 L 8 8.667969 C 5.789062 8.667969 4 6.875 4 4.667969 C 4 2.515625 5.699219 0.75 7.851562 0.667969 Z M 8 2 C 6.527344 2 5.332031 3.191406 5.332031 4.667969 C 5.332031 6.140625 6.527344 7.332031 8 7.332031 C 9.472656 7.332031 10.667969 6.140625 10.667969 4.667969 C 10.667969 3.191406 9.472656 2 8 2 Z M 8 2 "/>
</g>
</svg>
