<?xml version="1.0" encoding="UTF-8"?>
<svg xmlns="http://www.w3.org/2000/svg" xmlns:xlink="http://www.w3.org/1999/xlink" width="16" height="16" viewBox="0 0 16 16" version="1.1">
<g id="surface1">
<path style=" stroke:none;fill-rule:nonzero;fill:rgb(100%,100%,100%);fill-opacity:1;" d="M 3.332031 13.332031 L 12.667969 13.332031 L 12.667969 14.667969 L 3.332031 14.667969 Z M 8 12 C 5.054688 12 2.667969 9.613281 2.667969 6.667969 C 2.667969 3.722656 5.054688 1.332031 8 1.332031 C 10.945312 1.332031 13.332031 3.722656 13.332031 6.667969 C 13.332031 9.613281 10.945312 12 8 12 Z M 8 10.667969 C 10.210938 10.667969 12 8.875 12 6.667969 C 12 4.457031 10.210938 2.667969 8 2.667969 C 5.789062 2.667969 4 4.457031 4 6.667969 C 4 8.875 5.789062 10.667969 8 10.667969 Z M 8 10.667969 "/>
</g>
</svg>
