<?xml version="1.0" encoding="UTF-8"?>
<svg xmlns="http://www.w3.org/2000/svg" xmlns:xlink="http://www.w3.org/1999/xlink" width="16" height="16" viewBox="0 0 16 16" version="1.1">
<g id="surface1">
<path style=" stroke:none;fill-rule:nonzero;fill:rgb(100%,100%,100%);fill-opacity:1;" d="M 2 2.660156 C 2 2.296875 2.296875 2 2.660156 2 L 13.339844 2 C 13.703125 2 14 2.296875 14 2.660156 L 14 13.339844 C 14 13.703125 13.703125 14 13.339844 14 L 2.660156 14 C 2.296875 14 2 13.703125 2 13.339844 Z M 7.082031 5.609375 C 7 5.554688 6.894531 5.550781 6.808594 5.597656 C 6.722656 5.644531 6.667969 5.734375 6.667969 5.832031 L 6.667969 10.167969 C 6.667969 10.265625 6.722656 10.355469 6.808594 10.402344 C 6.894531 10.449219 7 10.445312 7.082031 10.390625 L 10.335938 8.222656 C 10.410156 8.171875 10.453125 8.089844 10.453125 8 C 10.453125 7.910156 10.410156 7.828125 10.335938 7.777344 Z M 7.082031 5.609375 "/>
</g>
</svg>
