<?xml version="1.0" encoding="UTF-8"?>
<svg xmlns="http://www.w3.org/2000/svg" xmlns:xlink="http://www.w3.org/1999/xlink" width="16" height="16" viewBox="0 0 16 16" version="1.1">
<g id="surface1">
<path style=" stroke:none;fill-rule:nonzero;fill:rgb(100%,100%,100%);fill-opacity:1;" d="M 14.816406 10.511719 L 14.664062 9.761719 L 12.988281 9.761719 L 12.722656 10.507812 L 11.378906 10.507812 C 12.019531 8.972656 12.660156 7.433594 13.300781 5.898438 C 13.410156 5.636719 13.605469 5.503906 13.890625 5.503906 C 14.109375 5.507812 14.464844 5.507812 14.960938 5.507812 L 16 10.511719 Z M 13.367188 8.734375 L 14.445312 8.734375 L 14.042969 6.855469 Z M 4.707031 5.503906 L 6.058594 5.507812 L 3.96875 10.511719 L 2.601562 10.511719 C 2.257812 9.1875 1.917969 7.867188 1.582031 6.539062 C 1.515625 6.277344 1.382812 6.09375 1.128906 6.003906 C 0.90625 5.925781 0.527344 5.808594 0 5.644531 L 0 5.507812 L 2.15625 5.507812 C 2.53125 5.507812 2.75 5.6875 2.820312 6.058594 C 2.890625 6.429688 3.066406 7.375 3.351562 8.894531 Z M 7.914062 5.507812 L 6.84375 10.511719 L 5.558594 10.511719 L 6.625 5.503906 Z M 10.519531 5.414062 C 10.90625 5.414062 11.390625 5.535156 11.667969 5.644531 L 11.441406 6.679688 C 11.191406 6.578125 10.777344 6.441406 10.425781 6.449219 C 9.921875 6.457031 9.605469 6.667969 9.605469 6.875 C 9.605469 7.207031 10.152344 7.371094 10.710938 7.734375 C 11.351562 8.148438 11.433594 8.519531 11.425781 8.921875 C 11.417969 9.761719 10.710938 10.585938 9.21875 10.585938 C 8.539062 10.578125 8.296875 10.519531 7.742188 10.324219 L 7.976562 9.238281 C 8.539062 9.476562 8.78125 9.550781 9.261719 9.550781 C 9.703125 9.550781 10.082031 9.371094 10.085938 9.0625 C 10.089844 8.839844 9.953125 8.730469 9.457031 8.457031 C 8.960938 8.183594 8.265625 7.804688 8.273438 7.042969 C 8.285156 6.066406 9.210938 5.414062 10.519531 5.414062 Z M 10.519531 5.414062 "/>
</g>
</svg>
