<?xml version="1.0" encoding="UTF-8"?>
<svg xmlns="http://www.w3.org/2000/svg" xmlns:xlink="http://www.w3.org/1999/xlink" width="16" height="16" viewBox="0 0 16 16" version="1.1">
<g id="surface1">
<path style=" stroke:none;fill-rule:evenodd;fill:rgb(100%,100%,100%);fill-opacity:1;" d="M 7 5.265625 L 9 5.265625 L 9 10.265625 L 7 10.265625 Z M 7 5.265625 "/>
<path style=" stroke:none;fill-rule:evenodd;fill:rgb(100%,100%,100%);fill-opacity:1;" d="M 7 11.265625 L 9 11.265625 L 9 13.265625 L 7 13.265625 Z M 7 11.265625 "/>
<path style=" stroke:none;fill-rule:nonzero;fill:rgb(100%,100%,100%);fill-opacity:1;" d="M 8.050781 0.734375 C 7.460938 0.734375 6.914062 1.101562 6.566406 1.679688 C 4.945312 4.390625 1.882812 9.695312 0.296875 12.53125 C -0.046875 13.15625 -0.0976562 13.851562 0.210938 14.386719 C 0.519531 14.921875 1.140625 15.21875 1.859375 15.226562 C 4.96875 15.273438 10.714844 15.273438 13.96875 15.234375 C 14.757812 15.226562 15.4375 14.898438 15.773438 14.320312 C 16.105469 13.742188 16.054688 12.992188 15.671875 12.304688 C 14.050781 9.421875 11.101562 4.320312 9.527344 1.679688 C 9.179688 1.101562 8.640625 0.738281 8.050781 0.734375 Z M 8.050781 1.734375 C 8.234375 1.734375 8.457031 1.839844 8.671875 2.199219 C 10.234375 4.820312 13.1875 9.921875 14.796875 12.789062 C 15.058594 13.257812 15.03125 13.59375 14.898438 13.820312 C 14.773438 14.039062 14.492188 14.234375 13.953125 14.238281 C 10.714844 14.28125 4.964844 14.273438 1.871094 14.230469 C 1.414062 14.226562 1.1875 14.066406 1.082031 13.882812 C 0.976562 13.703125 0.945312 13.421875 1.171875 13.019531 C 2.75 10.199219 5.820312 4.882812 7.429688 2.191406 C 7.644531 1.835938 7.867188 1.734375 8.050781 1.734375 Z M 8.050781 1.734375 "/>
</g>
</svg>
