<?xml version="1.0" encoding="UTF-8"?>
<svg xmlns="http://www.w3.org/2000/svg" xmlns:xlink="http://www.w3.org/1999/xlink" width="16" height="16" viewBox="0 0 16 16" version="1.1">
<g id="surface1">
<path style=" stroke:none;fill-rule:nonzero;fill:rgb(100%,100%,100%);fill-opacity:1;" d="M 7.332031 14 L 7.332031 13.285156 C 5.039062 12.953125 3.332031 10.988281 3.332031 8.667969 L 3.332031 5.332031 C 3.332031 2.757812 5.421875 0.667969 8 0.667969 C 10.578125 0.667969 12.667969 2.757812 12.667969 5.332031 L 12.667969 8.667969 C 12.667969 10.988281 10.960938 12.953125 8.667969 13.285156 L 8.667969 14 L 11.332031 14 L 11.332031 15.332031 L 4.667969 15.332031 L 4.667969 14 Z M 8 2 C 6.160156 2 4.667969 3.492188 4.667969 5.332031 L 4.667969 8.667969 C 4.667969 10.507812 6.160156 12 8 12 C 9.839844 12 11.332031 10.507812 11.332031 8.667969 L 11.332031 5.332031 C 11.332031 3.492188 9.839844 2 8 2 Z M 8 6 C 8.367188 6 8.667969 5.703125 8.667969 5.332031 C 8.667969 4.964844 8.367188 4.667969 8 4.667969 C 7.632812 4.667969 7.332031 4.964844 7.332031 5.332031 C 7.332031 5.703125 7.632812 6 8 6 Z M 8 7.332031 C 6.894531 7.332031 6 6.4375 6 5.332031 C 6 4.230469 6.894531 3.332031 8 3.332031 C 9.105469 3.332031 10 4.230469 10 5.332031 C 10 6.4375 9.105469 7.332031 8 7.332031 Z M 8 7.332031 "/>
</g>
</svg>
