<?xml version="1.0" encoding="UTF-8"?>
<svg xmlns="http://www.w3.org/2000/svg" xmlns:xlink="http://www.w3.org/1999/xlink" width="16" height="16" viewBox="0 0 16 16" version="1.1">
<g id="surface1">
<path style=" stroke:none;fill-rule:nonzero;fill:rgb(100%,100%,100%);fill-opacity:1;" d="M 3.636719 12.125 C 2.238281 11.117188 1.332031 9.601562 1.332031 7.9375 C 1.332031 4.882812 4.316406 2.398438 8 2.398438 C 11.683594 2.398438 14.667969 4.882812 14.667969 7.9375 C 14.667969 10.996094 11.683594 13.476562 8 13.476562 C 7.261719 13.480469 6.527344 13.378906 5.820312 13.167969 C 5.757812 13.148438 5.675781 13.148438 5.613281 13.148438 C 5.488281 13.148438 5.367188 13.1875 5.261719 13.25 L 3.800781 14.09375 C 3.765625 14.113281 3.722656 14.128906 3.679688 14.132812 C 3.554688 14.132812 3.453125 14.03125 3.453125 13.90625 C 3.453125 13.847656 3.472656 13.804688 3.492188 13.742188 C 3.515625 13.722656 3.699219 13.046875 3.800781 12.636719 C 3.800781 12.59375 3.824219 12.535156 3.824219 12.492188 C 3.824219 12.328125 3.761719 12.207031 3.636719 12.125 Z M 5.777344 7.007812 C 6.257812 7.007812 6.632812 6.628906 6.632812 6.152344 C 6.632812 5.671875 6.257812 5.292969 5.777344 5.292969 C 5.300781 5.292969 4.921875 5.671875 4.921875 6.152344 C 4.921875 6.628906 5.300781 7.007812 5.777344 7.007812 Z M 10.222656 7.007812 C 10.699219 7.007812 11.078125 6.628906 11.078125 6.152344 C 11.078125 5.671875 10.699219 5.292969 10.222656 5.292969 C 9.742188 5.292969 9.367188 5.671875 9.367188 6.152344 C 9.367188 6.628906 9.742188 7.007812 10.222656 7.007812 Z M 10.222656 7.007812 "/>
</g>
</svg>
