<?xml version="1.0" encoding="UTF-8"?>
<svg xmlns="http://www.w3.org/2000/svg" xmlns:xlink="http://www.w3.org/1999/xlink" width="16" height="16" viewBox="0 0 16 16" version="1.1">
<g id="surface1">
<path style=" stroke:none;fill-rule:nonzero;fill:rgb(100%,100%,100%);fill-opacity:1;" d="M 0.578125 15.351562 L 15.417969 15.351562 L 12.96875 5.191406 L 3.097656 5.191406 Z M 0.578125 15.351562 "/>
<path style=" stroke:none;fill-rule:nonzero;fill:rgb(100%,100%,100%);fill-opacity:1;" d="M 3.101562 4.617188 C 2.835938 4.613281 2.601562 4.792969 2.535156 5.050781 L 0.015625 15.210938 C -0.0742188 15.574219 0.199219 15.925781 0.574219 15.925781 L 15.414062 15.925781 C 15.792969 15.929688 16.070312 15.578125 15.980469 15.210938 L 13.527344 5.0625 C 13.464844 4.800781 13.234375 4.617188 12.96875 4.617188 Z M 3.101562 4.617188 "/>
<path style=" stroke:none;fill-rule:nonzero;fill:rgb(100%,100%,100%);fill-opacity:1;" d="M 7.09375 0.230469 C 5.046875 0.886719 4.664062 3.789062 6.453125 4.96875 C 8.171875 6.25 10.777344 4.90625 10.699219 2.761719 C 10.71875 0.917969 8.816406 -0.414062 7.09375 0.230469 Z M 7.597656 1.59375 C 8.335938 1.304688 9.269531 1.953125 9.246094 2.753906 C 9.246094 2.773438 9.246094 2.792969 9.246094 2.808594 C 9.289062 3.707031 8.015625 4.363281 7.308594 3.8125 C 7.289062 3.796875 7.269531 3.785156 7.25 3.769531 C 6.492188 3.289062 6.679688 1.875 7.539062 1.609375 C 7.558594 1.605469 7.578125 1.601562 7.597656 1.59375 Z M 7.597656 1.59375 "/>
</g>
</svg>
