<?xml version="1.0" encoding="UTF-8"?>
<svg xmlns="http://www.w3.org/2000/svg" xmlns:xlink="http://www.w3.org/1999/xlink" width="16" height="16" viewBox="0 0 16 16" version="1.1">
<g id="surface1">
<path style=" stroke:none;fill-rule:nonzero;fill:rgb(100%,100%,100%);fill-opacity:1;" d="M 8 12 C 8.476562 12 8.914062 12.167969 9.257812 12.445312 L 8 14 L 6.742188 12.445312 C 7.097656 12.15625 7.542969 12 8 12 Z M 1.871094 0.929688 L 13.65625 12.714844 L 12.714844 13.65625 L 9.261719 10.203125 C 8.855469 10.070312 8.429688 10 8 10 C 7.046875 10 6.171875 10.332031 5.488281 10.886719 L 4.648438 9.851562 C 5.523438 9.140625 6.605469 8.730469 7.730469 8.671875 L 6 6.941406 C 5.046875 7.210938 4.160156 7.671875 3.390625 8.296875 L 2.554688 7.257812 C 3.273438 6.675781 4.078125 6.214844 4.945312 5.886719 L 3.421875 4.363281 C 2.664062 4.722656 1.949219 5.171875 1.296875 5.703125 L 0.460938 4.664062 C 1.070312 4.171875 1.726562 3.738281 2.425781 3.371094 L 0.929688 1.871094 Z M 9.667969 6.855469 L 8.144531 5.335938 L 8 5.332031 C 10.0625 5.332031 11.957031 6.054688 13.445312 7.257812 L 12.609375 8.296875 C 11.75 7.597656 10.742188 7.109375 9.667969 6.855469 Z M 8 2 C 10.855469 2 13.480469 2.996094 15.539062 4.664062 L 14.703125 5.703125 C 12.804688 4.164062 10.441406 3.328125 8 3.332031 C 7.414062 3.332031 6.839844 3.378906 6.28125 3.472656 L 5.148438 2.339844 C 6.0625 2.117188 7.019531 2 8 2 Z M 8 2 "/>
</g>
</svg>
