<?xml version="1.0" encoding="UTF-8"?>
<svg xmlns="http://www.w3.org/2000/svg" xmlns:xlink="http://www.w3.org/1999/xlink" width="32" height="32" viewBox="0 0 32 32" version="1.1">
<g id="surface1">
<path style=" stroke:none;fill-rule:nonzero;fill:rgb(100%,100%,100%);fill-opacity:1;" d="M 16 17.332031 C 18.210938 17.332031 20 19.125 20 21.332031 C 20 22.464844 19.53125 23.488281 18.773438 24.214844 L 16.226562 26.667969 L 20 26.667969 L 20 29.332031 L 12 29.332031 L 12 27.035156 L 16.925781 22.292969 C 17.175781 22.050781 17.332031 21.710938 17.332031 21.332031 C 17.332031 20.597656 16.734375 20 16 20 C 15.265625 20 14.667969 20.597656 14.667969 21.332031 L 12 21.332031 C 12 19.125 13.789062 17.332031 16 17.332031 Z M 24 17.332031 L 24 22.667969 L 26.667969 22.667969 L 26.667969 17.332031 L 29.332031 17.332031 L 29.332031 29.332031 L 26.667969 29.332031 L 26.667969 25.332031 L 21.332031 25.332031 L 21.332031 17.332031 Z M 5.332031 16 C 5.332031 19.371094 6.894531 22.375 9.332031 24.328125 L 9.332031 27.550781 C 5.347656 25.242188 2.667969 20.9375 2.667969 16 Z M 16 2.667969 C 22.914062 2.667969 28.597656 7.929688 29.265625 14.667969 L 26.585938 14.667969 C 25.929688 9.40625 21.441406 5.332031 16 5.332031 C 12.714844 5.332031 9.777344 6.820312 7.820312 9.152344 L 10.667969 12 L 2.667969 12 L 2.667969 4 L 5.929688 7.261719 C 8.375 4.449219 11.980469 2.667969 16 2.667969 Z M 16 2.667969 "/>
</g>
</svg>
