<?xml version="1.0" encoding="UTF-8"?>
<svg xmlns="http://www.w3.org/2000/svg" xmlns:xlink="http://www.w3.org/1999/xlink" width="32" height="32" viewBox="0 0 32 32" version="1.1">
<g id="surface1">
<path style=" stroke:none;fill-rule:nonzero;fill:rgb(100%,100%,100%);fill-opacity:1;" d="M 28 4 C 28.738281 4 29.332031 4.597656 29.332031 5.332031 L 29.332031 26.667969 C 29.332031 27.402344 28.738281 28 28 28 L 4 28 C 3.261719 28 2.667969 27.402344 2.667969 26.667969 L 2.667969 5.332031 C 2.667969 4.597656 3.261719 4 4 4 Z M 12.53125 10.667969 L 9.867188 10.667969 L 5.597656 21.332031 L 8.46875 21.332031 L 9.003906 20 L 13.390625 20 L 13.925781 21.332031 L 16.796875 21.332031 Z M 25.332031 10.667969 L 22.667969 10.667969 L 22.667969 13.332031 L 21.332031 13.332031 C 19.167969 13.332031 17.394531 15.050781 17.332031 17.214844 C 17.269531 19.378906 18.9375 21.203125 21.097656 21.328125 L 21.332031 21.332031 L 25.332031 21.332031 Z M 22.667969 16 L 22.667969 18.667969 L 21.332031 18.667969 L 21.175781 18.65625 C 20.507812 18.578125 20 18.007812 20 17.332031 C 20 16.65625 20.507812 16.089844 21.175781 16.007812 L 21.332031 16 Z M 11.199219 14.511719 L 12.324219 17.332031 L 10.070312 17.332031 Z M 11.199219 14.511719 "/>
</g>
</svg>
