<?xml version="1.0" encoding="UTF-8"?>
<svg xmlns="http://www.w3.org/2000/svg" xmlns:xlink="http://www.w3.org/1999/xlink" width="32" height="32" viewBox="0 0 32 32" version="1.1">
<g id="surface1">
<path style=" stroke:none;fill-rule:nonzero;fill:rgb(100%,100%,100%);fill-opacity:1;" d="M 16.535156 18.042969 L 23.199219 26.933594 C 23.351562 27.136719 23.375 27.40625 23.261719 27.632812 C 23.148438 27.855469 22.917969 28 22.667969 28 L 9.332031 28 C 9.082031 28 8.851562 27.855469 8.738281 27.632812 C 8.625 27.40625 8.648438 27.136719 8.800781 26.933594 L 15.464844 18.042969 C 15.59375 17.875 15.789062 17.777344 16 17.777344 C 16.210938 17.777344 16.40625 17.875 16.535156 18.042969 Z M 16 21.773438 L 13.332031 25.332031 L 18.667969 25.332031 Z M 24 25.332031 L 24 22.667969 L 26.667969 22.667969 L 26.667969 6.667969 L 5.332031 6.667969 L 5.332031 22.667969 L 8 22.667969 L 8 25.332031 L 3.988281 25.332031 C 3.636719 25.332031 3.300781 25.191406 3.050781 24.941406 C 2.804688 24.691406 2.664062 24.351562 2.667969 24 L 2.667969 5.332031 C 2.667969 4.597656 3.273438 4 3.988281 4 L 28.011719 4 C 28.742188 4 29.332031 4.59375 29.332031 5.332031 L 29.332031 24 C 29.332031 24.734375 28.726562 25.332031 28.011719 25.332031 Z M 24 25.332031 "/>
</g>
</svg>
