<?xml version="1.0" encoding="UTF-8"?>
<svg xmlns="http://www.w3.org/2000/svg" xmlns:xlink="http://www.w3.org/1999/xlink" width="32" height="32" viewBox="0 0 32 32" version="1.1">
<g id="surface1">
<path style=" stroke:none;fill-rule:nonzero;fill:rgb(100%,100%,100%);fill-opacity:1;" d="M 6.238281 0 C 5.78125 0 3.675781 3.628906 3.628906 5.6875 C 3.582031 7.75 4.375 9.640625 5.992188 11.253906 C 7.613281 12.867188 11.371094 16.269531 14.597656 19.085938 C 17.824219 21.902344 22.742188 26.738281 24.609375 29.011719 C 26.472656 31.289062 25.542969 32 26.066406 32 C 26.59375 32 28.382812 28.164062 28.375 26.3125 C 28.316406 24.136719 28.15625 22.988281 26.003906 20.84375 C 23.851562 18.699219 20.824219 15.964844 17.605469 13.148438 C 14.382812 10.328125 9.238281 5.757812 7.753906 3.625 C 6.265625 1.496094 6.699219 0 6.238281 0 Z M 6.238281 0 "/>
<path style=" stroke:none;fill-rule:nonzero;fill:rgb(100%,100%,100%);fill-opacity:1;" d="M 22.9375 0.0117188 C 22.675781 0.132812 20.402344 2.84375 19.761719 4.074219 C 19.125 5.304688 19.019531 6.207031 19.464844 6.726562 C 19.910156 7.242188 21.046875 8.238281 22.050781 9.035156 C 23.058594 9.832031 24.429688 11.363281 24.820312 12.207031 C 25.210938 13.050781 24.46875 13.722656 24.769531 13.578125 C 25.066406 13.4375 27.222656 10.691406 27.769531 9.597656 C 28.378906 8.328125 28.628906 7.695312 28.035156 7.007812 C 27.445312 6.316406 26.527344 5.519531 25.527344 4.71875 C 24.523438 3.921875 22.945312 2.605469 22.726562 1.746094 C 22.511719 0.886719 23.199219 -0.113281 22.9375 0.0117188 Z M 22.9375 0.0117188 "/>
<path style=" stroke:none;fill-rule:nonzero;fill:rgb(100%,100%,100%);fill-opacity:1;" d="M 7.371094 18.410156 C 7.109375 18.535156 4.832031 21.246094 4.195312 22.476562 C 3.558594 23.707031 3.449219 24.609375 3.898438 25.125 C 4.34375 25.644531 5.480469 26.640625 6.484375 27.4375 C 7.488281 28.234375 8.863281 29.765625 9.253906 30.609375 C 9.640625 31.453125 8.902344 32.121094 9.199219 31.980469 C 9.5 31.839844 11.65625 29.09375 12.203125 28 C 12.8125 26.730469 13.0625 26.097656 12.46875 25.40625 C 11.878906 24.71875 10.960938 23.917969 9.957031 23.121094 C 8.957031 22.320312 7.375 21.007812 7.160156 20.148438 C 6.941406 19.289062 7.632812 18.289062 7.371094 18.410156 Z M 7.371094 18.410156 "/>
</g>
</svg>
