<?xml version="1.0" encoding="UTF-8"?>
<svg xmlns="http://www.w3.org/2000/svg" xmlns:xlink="http://www.w3.org/1999/xlink" width="32" height="32" viewBox="0 0 32 32" version="1.1">
<g id="surface1">
<path style=" stroke:none;fill-rule:nonzero;fill:rgb(100%,100%,100%);fill-opacity:1;" d="M 28.5625 20.476562 C 23.457031 18.941406 20.488281 18.023438 19.660156 17.726562 C 20.457031 16.34375 21.046875 14.855469 21.417969 13.300781 L 17.066406 13.300781 L 17.066406 11.828125 L 22.398438 11.828125 L 22.398438 10.921875 L 17.066406 10.921875 L 17.066406 8.457031 L 15.019531 8.457031 C 14.644531 8.457031 14.601562 8.789062 14.601562 8.789062 L 14.601562 10.910156 L 9.601562 10.910156 L 9.601562 11.820312 L 14.601562 11.820312 L 14.601562 13.289062 L 10.507812 13.289062 L 10.507812 14.113281 L 18.804688 14.113281 C 18.515625 15.117188 18.117188 16.089844 17.621094 17.011719 C 15.742188 16.394531 14.699219 15.96875 12.40625 15.753906 C 8.0625 15.339844 7.0625 17.726562 6.902344 19.1875 C 6.667969 21.417969 8.640625 23.230469 11.585938 23.230469 C 14.527344 23.230469 16.492188 21.867188 18.355469 19.605469 C 19.914062 20.347656 22.808594 21.636719 27.042969 23.476562 C 24.5625 27.140625 20.425781 29.335938 16 29.332031 C 8.636719 29.332031 2.667969 23.363281 2.667969 16 C 2.667969 8.636719 8.636719 2.667969 16 2.667969 C 23.363281 2.667969 29.332031 8.636719 29.332031 16 C 29.335938 17.527344 29.074219 19.039062 28.5625 20.476562 Z M 11.242188 21.824219 C 8.128906 21.824219 7.636719 19.851562 7.796875 19.03125 C 7.957031 18.207031 8.863281 17.140625 10.601562 17.140625 C 12.597656 17.140625 14.378906 17.652344 16.523438 18.6875 C 15.007812 20.660156 13.164062 21.824219 11.242188 21.824219 Z M 11.242188 21.824219 "/>
</g>
</svg>
