<?xml version="1.0" encoding="UTF-8"?>
<svg xmlns="http://www.w3.org/2000/svg" xmlns:xlink="http://www.w3.org/1999/xlink" width="32" height="32" viewBox="0 0 32 32" version="1.1">
<g id="surface1">
<path style=" stroke:none;fill-rule:nonzero;fill:rgb(100%,100%,100%);fill-opacity:1;" d="M 25.203125 13.332031 C 26.296875 15.234375 28.722656 15.898438 30.632812 14.816406 C 30.855469 16.796875 29.796875 18.695312 28 19.550781 L 28 28 L 20 28 L 20 25.332031 C 20.003906 23.167969 18.28125 21.394531 16.117188 21.332031 C 13.953125 21.269531 12.132812 22.9375 12.007812 25.097656 L 12 25.332031 L 12 28 L 4 28 L 4 19.550781 C 2.199219 18.699219 1.140625 16.796875 1.363281 14.816406 C 3.273438 15.898438 5.699219 15.238281 6.796875 13.332031 Z M 22.714844 4 C 22.90625 5.339844 23.671875 6.527344 24.808594 7.257812 C 25.945312 7.992188 27.34375 8.191406 28.644531 7.8125 C 28.40625 10.09375 26.546875 11.867188 24.257812 11.992188 L 24 12 L 8 12 C 5.609375 12 3.601562 10.191406 3.355469 7.8125 C 4.65625 8.191406 6.054688 7.992188 7.191406 7.257812 C 8.328125 6.527344 9.09375 5.339844 9.285156 4 Z M 22.714844 4 "/>
</g>
</svg>
