<?xml version="1.0" encoding="UTF-8"?>
<svg xmlns="http://www.w3.org/2000/svg" xmlns:xlink="http://www.w3.org/1999/xlink" width="32" height="32" viewBox="0 0 32 32" version="1.1">
<g id="surface1">
<path style=" stroke:none;fill-rule:nonzero;fill:rgb(100%,100%,100%);fill-opacity:1;" d="M 8.507812 5.289062 C 10.632812 3.589844 13.277344 2.664062 16 2.667969 C 18.832031 2.667969 21.4375 3.648438 23.492188 5.289062 L 25.429688 3.351562 L 27.3125 5.238281 L 25.375 7.175781 C 27.078125 9.300781 28.003906 11.945312 28 14.667969 L 28 16 L 4 16 L 4 14.667969 C 4 11.832031 4.980469 9.230469 6.625 7.175781 L 4.6875 5.238281 L 6.570312 3.355469 L 8.507812 5.292969 Z M 4 18.667969 L 28 18.667969 L 28 28 C 28 28.738281 27.402344 29.332031 26.667969 29.332031 L 5.332031 29.332031 C 4.597656 29.332031 4 28.738281 4 28 Z M 12 12 C 12.738281 12 13.332031 11.402344 13.332031 10.667969 C 13.332031 9.929688 12.738281 9.332031 12 9.332031 C 11.261719 9.332031 10.667969 9.929688 10.667969 10.667969 C 10.667969 11.402344 11.261719 12 12 12 Z M 20 12 C 20.738281 12 21.332031 11.402344 21.332031 10.667969 C 21.332031 9.929688 20.738281 9.332031 20 9.332031 C 19.261719 9.332031 18.667969 9.929688 18.667969 10.667969 C 18.667969 11.402344 19.261719 12 20 12 Z M 20 12 "/>
</g>
</svg>
