<?xml version="1.0" encoding="UTF-8"?>
<svg xmlns="http://www.w3.org/2000/svg" xmlns:xlink="http://www.w3.org/1999/xlink" width="32" height="32" viewBox="0 0 32 32" version="1.1">
<g id="surface1">
<path style=" stroke:none;fill-rule:nonzero;fill:rgb(100%,100%,100%);fill-opacity:1;" d="M 24.941406 3 C 24.429688 3.015625 23.945312 3.226562 23.582031 3.589844 L 1.585938 25.589844 C 1.019531 26.164062 0.847656 27.019531 1.160156 27.765625 C 1.46875 28.511719 2.195312 29 3 29 L 29 29 C 30.101562 28.996094 30.992188 28.105469 30.992188 27.003906 C 31 25.898438 30.105469 25 29 24.996094 L 20.886719 24.996094 C 20.507812 21.628906 19.175781 18.433594 17.058594 15.78125 L 26.417969 6.425781 C 26.796875 6.050781 27.007812 5.539062 27.007812 5.007812 C 27.007812 4.476562 26.796875 3.964844 26.417969 3.589844 C 26.03125 3.199219 25.496094 2.984375 24.941406 3 Z M 14.207031 18.632812 C 15.609375 20.503906 16.515625 22.6875 16.847656 24.996094 L 7.84375 24.996094 Z M 14.207031 18.632812 "/>
</g>
</svg>
