<?xml version="1.0" encoding="UTF-8"?>
<svg xmlns="http://www.w3.org/2000/svg" xmlns:xlink="http://www.w3.org/1999/xlink" width="32" height="32" viewBox="0 0 32 32" version="1.1">
<g id="surface1">
<path style=" stroke:none;fill-rule:nonzero;fill:rgb(100%,100%,100%);fill-opacity:1;" d="M 17.886719 8 L 20.324219 10.4375 L 18.4375 12.324219 L 12.78125 6.667969 L 18.4375 1.007812 L 20.324219 2.894531 L 17.886719 5.332031 L 21.332031 5.332031 C 25.015625 5.332031 28 8.316406 28 12 L 28 17.332031 L 25.332031 17.332031 L 25.332031 12 C 25.332031 9.789062 23.542969 8 21.332031 8 Z M 20 14.667969 L 20 28 C 20 28.738281 19.402344 29.332031 18.667969 29.332031 L 5.332031 29.332031 C 4.597656 29.332031 4 28.738281 4 28 L 4 14.667969 C 4 13.929688 4.597656 13.332031 5.332031 13.332031 L 18.667969 13.332031 C 19.402344 13.332031 20 13.929688 20 14.667969 Z M 17.332031 16 L 6.667969 16 L 6.667969 26.667969 L 17.332031 26.667969 Z M 17.332031 16 "/>
</g>
</svg>
