<?xml version="1.0" encoding="UTF-8"?>
<svg xmlns="http://www.w3.org/2000/svg" xmlns:xlink="http://www.w3.org/1999/xlink" width="32" height="32" viewBox="0 0 32 32" version="1.1">
<g id="surface1">
<path style=" stroke:none;fill-rule:nonzero;fill:rgb(100%,100%,100%);fill-opacity:1;" d="M 14.667969 12 L 28 12 C 28.738281 12 29.332031 12.597656 29.332031 13.332031 L 29.332031 26.667969 C 29.332031 27.402344 28.738281 28 28 28 L 14.667969 28 C 13.929688 28 13.332031 27.402344 13.332031 26.667969 L 13.332031 13.332031 C 13.332031 12.597656 13.929688 12 14.667969 12 Z M 16 14.667969 L 16 25.332031 L 26.667969 25.332031 L 26.667969 14.667969 Z M 8 14.113281 L 10.4375 11.675781 L 12.324219 13.5625 L 6.667969 19.21875 L 1.007812 13.5625 L 2.894531 11.675781 L 5.332031 14.113281 L 5.332031 10.667969 C 5.332031 6.984375 8.316406 4 12 4 L 17.332031 4 L 17.332031 6.667969 L 12 6.667969 C 9.789062 6.667969 8 8.457031 8 10.667969 Z M 8 14.113281 "/>
</g>
</svg>
