<?xml version="1.0" encoding="UTF-8"?>
<svg xmlns="http://www.w3.org/2000/svg" xmlns:xlink="http://www.w3.org/1999/xlink" width="32" height="32" viewBox="0 0 32 32" version="1.1">
<g id="surface1">
<path style=" stroke:none;fill-rule:nonzero;fill:rgb(100%,100%,100%);fill-opacity:1;" d="M 15.5 9.628906 C 14.332031 9.628906 12.523438 8.300781 10.617188 8.347656 C 8.105469 8.382812 5.800781 9.804688 4.507812 12.0625 C 1.898438 16.589844 3.835938 23.277344 6.378906 26.957031 C 7.625 28.75 9.097656 30.765625 11.050781 30.703125 C 12.921875 30.621094 13.625 29.484375 15.898438 29.484375 C 18.15625 29.484375 18.792969 30.703125 20.777344 30.652344 C 22.792969 30.621094 24.074219 28.828125 25.308594 27.019531 C 26.730469 24.941406 27.324219 22.925781 27.355469 22.8125 C 27.308594 22.796875 23.433594 21.308594 23.386719 16.828125 C 23.355469 13.085938 26.441406 11.292969 26.585938 11.214844 C 24.828125 8.636719 22.121094 8.347656 21.179688 8.285156 C 18.714844 8.09375 16.652344 9.628906 15.5 9.628906 Z M 19.660156 5.851562 C 20.699219 4.605469 21.386719 2.863281 21.195312 1.132812 C 19.707031 1.199219 17.914062 2.125 16.84375 3.375 C 15.882812 4.476562 15.050781 6.253906 15.273438 7.949219 C 16.921875 8.078125 18.617188 7.101562 19.660156 5.851562 Z M 19.660156 5.851562 "/>
</g>
</svg>
