<?xml version="1.0" encoding="UTF-8"?>
<svg xmlns="http://www.w3.org/2000/svg" xmlns:xlink="http://www.w3.org/1999/xlink" width="32" height="32" viewBox="0 0 32 32" version="1.1">
<g id="surface1">
<path style=" stroke:none;fill-rule:nonzero;fill:rgb(100%,100%,100%);fill-opacity:1;" d="M 9 3.332031 C 12.128906 3.332031 14.667969 5.871094 14.667969 9 L 14.667969 14.667969 L 9 14.667969 C 5.871094 14.667969 3.332031 12.128906 3.332031 9 C 3.332031 5.871094 5.871094 3.332031 9 3.332031 Z M 9 17.332031 L 14.667969 17.332031 L 14.667969 23 C 14.667969 26.128906 12.128906 28.667969 9 28.667969 C 5.871094 28.667969 3.332031 26.128906 3.332031 23 C 3.332031 19.871094 5.871094 17.332031 9 17.332031 Z M 23 3.332031 C 26.128906 3.332031 28.667969 5.871094 28.667969 9 C 28.667969 12.128906 26.128906 14.667969 23 14.667969 L 17.332031 14.667969 L 17.332031 9 C 17.332031 5.871094 19.871094 3.332031 23 3.332031 Z M 17.332031 17.332031 L 23 17.332031 C 26.128906 17.332031 28.667969 19.871094 28.667969 23 C 28.667969 26.128906 26.128906 28.667969 23 28.667969 C 19.871094 28.667969 17.332031 26.128906 17.332031 23 Z M 17.332031 17.332031 "/>
</g>
</svg>
