<?xml version="1.0" encoding="UTF-8"?>
<svg xmlns="http://www.w3.org/2000/svg" xmlns:xlink="http://www.w3.org/1999/xlink" width="32" height="32" viewBox="0 0 32 32" version="1.1">
<g id="surface1">
<path style=" stroke:none;fill-rule:nonzero;fill:rgb(100%,100%,100%);fill-opacity:1;" d="M 4 13.332031 L 2.667969 13.332031 L 2.667969 5.335938 C 2.667969 4.597656 3.273438 4 3.988281 4 L 28.011719 4 C 28.363281 4 28.703125 4.140625 28.953125 4.390625 C 29.199219 4.644531 29.339844 4.984375 29.332031 5.335938 L 29.332031 13.332031 L 28 13.332031 L 28 26.667969 C 28.003906 27.402344 27.410156 27.996094 26.675781 28 L 5.324219 28 C 4.589844 27.996094 3.996094 27.402344 4 26.667969 Z M 25.332031 13.332031 L 6.667969 13.332031 L 6.667969 25.332031 L 25.332031 25.332031 Z M 5.332031 6.667969 L 5.332031 10.667969 L 26.667969 10.667969 L 26.667969 6.667969 Z M 12 16 L 20 16 L 20 18.667969 L 12 18.667969 Z M 12 16 "/>
</g>
</svg>
