<?xml version="1.0" encoding="UTF-8"?>
<svg xmlns="http://www.w3.org/2000/svg" xmlns:xlink="http://www.w3.org/1999/xlink" width="32" height="32" viewBox="0 0 32 32" version="1.1">
<g id="surface1">
<path style=" stroke:none;fill-rule:nonzero;fill:rgb(100%,100%,100%);fill-opacity:1;" d="M 27.996094 3.988281 L 28 28.011719 C 27.996094 28.738281 27.40625 29.328125 26.675781 29.332031 L 5.324219 29.332031 C 4.59375 29.332031 4 28.742188 4 28.011719 L 4 3.988281 C 4.003906 3.261719 4.59375 2.671875 5.324219 2.667969 L 26.671875 2.667969 C 27.402344 2.667969 27.996094 3.257812 27.996094 3.988281 Z M 12 17.332031 L 12 12 C 12 11.261719 12.597656 10.667969 13.332031 10.667969 C 14.070312 10.667969 14.667969 11.261719 14.667969 12 L 14.667969 17.332031 C 14.667969 18.070312 15.261719 18.667969 16 18.667969 C 16.738281 18.667969 17.332031 18.070312 17.332031 17.332031 L 17.332031 12 C 17.332031 9.789062 15.542969 8 13.332031 8 C 11.125 8 9.332031 9.789062 9.332031 12 L 9.332031 17.332031 C 9.332031 21.015625 12.316406 24 16 24 C 19.683594 24 22.667969 21.015625 22.667969 17.332031 L 22.667969 10.667969 L 20 10.667969 L 20 17.332031 C 20 19.542969 18.210938 21.332031 16 21.332031 C 13.789062 21.332031 12 19.542969 12 17.332031 Z M 12 17.332031 "/>
</g>
</svg>
