<?xml version="1.0" encoding="UTF-8"?>
<svg xmlns="http://www.w3.org/2000/svg" xmlns:xlink="http://www.w3.org/1999/xlink" width="32" height="32" viewBox="0 0 32 32" version="1.1">
<g id="surface1">
<path style=" stroke:none;fill-rule:nonzero;fill:rgb(100%,100%,100%);fill-opacity:1;" d="M 10.085938 25.707031 C 11.203125 25.753906 12.320312 25.65625 13.414062 25.417969 C 14.71875 25.132812 16.0625 25.074219 17.386719 25.242188 C 18.117188 25.332031 18.699219 25.460938 19.105469 25.585938 C 20.542969 25.953125 22.585938 25.882812 23.109375 25.039062 C 23.5 24.414062 23.449219 23.988281 23.074219 23.441406 C 22.992188 23.316406 22.898438 23.199219 22.792969 23.09375 C 22.457031 22.824219 22.128906 22.550781 21.800781 22.269531 C 20.988281 21.570312 20.210938 20.832031 19.464844 20.054688 C 18.703125 19.269531 18 18.425781 17.363281 17.53125 L 17.316406 17.460938 C 16.324219 15.941406 15.238281 16.039062 14.644531 17.039062 C 14.273438 17.664062 13.847656 18.257812 13.371094 18.8125 C 12.824219 19.457031 12.265625 20 11.632812 20.542969 C 11.46875 20.683594 10.960938 21.101562 11.082031 21 C 11.078125 21.003906 11.058594 21.019531 11.152344 20.90625 C 11.019531 21.066406 9.882812 22.074219 9.550781 22.457031 C 8.863281 23.234375 8.585938 23.894531 8.691406 24.429688 C 8.785156 24.929688 8.984375 25.210938 9.289062 25.421875 C 9.484375 25.550781 9.703125 25.644531 9.929688 25.699219 Z M 19.550781 16.003906 C 21.382812 18.632812 24.523438 21.0625 24.523438 21.0625 C 24.523438 21.0625 27.277344 23.394531 25.375 26.445312 C 23.472656 29.5 18.371094 28.152344 18.371094 28.152344 C 18.371094 28.152344 16.34375 27.496094 13.988281 28.019531 C 11.636719 28.546875 9.609375 28.347656 9.609375 28.347656 C 9.609375 28.347656 6.667969 28.019531 6.070312 24.933594 C 5.476562 21.847656 8.820312 19.546875 9.082031 19.222656 C 9.34375 18.894531 11.097656 17.792969 12.351562 15.679688 C 13.605469 13.5625 17.128906 12.292969 19.550781 16.003906 Z M 26.933594 14.113281 C 26.933594 14.722656 27.1875 17.300781 24.863281 17.355469 C 22.542969 17.40625 22.441406 15.785156 22.441406 14.621094 C 22.441406 13.402344 22.691406 11.679688 24.5625 11.679688 C 26.429688 11.679688 26.933594 13.507812 26.933594 14.113281 Z M 19.695312 10.410156 C 18.121094 10.207031 17.765625 8.78125 17.917969 7.351562 C 18.046875 6.183594 19.441406 4.394531 20.558594 4.652344 C 21.675781 4.902344 22.691406 6.382812 22.488281 7.65625 C 22.285156 8.933594 21.273438 10.613281 19.695312 10.410156 Z M 13.007812 9.921875 C 11.859375 9.921875 10.925781 8.597656 10.925781 6.960938 C 10.925781 5.324219 11.859375 4 13.007812 4 C 14.15625 4 15.085938 5.324219 15.085938 6.960938 C 15.085938 8.597656 14.15625 9.921875 13.007812 9.921875 Z M 7.949219 16.007812 C 5.6875 16.496094 4.847656 13.878906 5.097656 12.65625 C 5.097656 12.65625 5.363281 10.003906 7.199219 9.839844 C 8.65625 9.714844 9.726562 11.308594 9.839844 12.222656 C 9.90625 12.8125 10.214844 15.519531 7.949219 16.007812 Z M 7.949219 16.007812 "/>
</g>
</svg>
