<?xml version="1.0" encoding="UTF-8"?>
<svg xmlns="http://www.w3.org/2000/svg" xmlns:xlink="http://www.w3.org/1999/xlink" width="32" height="32" viewBox="0 0 32 32" version="1.1">
<g id="surface1">
<path style=" stroke:none;fill-rule:nonzero;fill:rgb(100%,100%,100%);fill-opacity:1;" d="M 7.902344 16.664062 C 10.652344 16.070312 10.277344 12.785156 10.195312 12.066406 C 10.0625 10.957031 8.757812 9.023438 6.988281 9.175781 C 4.761719 9.375 4.4375 12.589844 4.4375 12.589844 C 4.136719 14.078125 5.160156 17.253906 7.902344 16.664062 Z M 10.824219 22.378906 C 10.742188 22.609375 10.5625 23.203125 10.71875 23.714844 C 11.023438 24.871094 12.027344 24.921875 12.027344 24.921875 L 13.46875 24.921875 L 13.46875 21.402344 L 11.925781 21.402344 C 11.230469 21.609375 10.898438 22.148438 10.824219 22.378906 Z M 13.007812 11.152344 C 14.527344 11.152344 15.753906 9.402344 15.753906 7.238281 C 15.753906 5.078125 14.527344 3.332031 13.007812 3.332031 C 11.492188 3.332031 10.261719 5.078125 10.261719 7.238281 C 10.261719 9.402344 11.492188 11.152344 13.007812 11.152344 Z M 19.550781 11.40625 C 21.578125 11.671875 22.886719 9.503906 23.144531 7.863281 C 23.410156 6.222656 22.101562 4.320312 20.664062 3.992188 C 19.222656 3.660156 17.425781 5.96875 17.261719 7.46875 C 17.0625 9.3125 17.523438 11.148438 19.550781 11.40625 Z M 19.550781 16.003906 C 17.0625 12.132812 13.535156 13.707031 12.351562 15.679688 C 11.175781 17.648438 9.34375 18.890625 9.082031 19.222656 C 8.820312 19.546875 5.289062 21.453125 6.070312 24.933594 C 6.855469 28.414062 9.609375 28.347656 9.609375 28.347656 C 9.609375 28.347656 11.636719 28.546875 13.988281 28.019531 C 16.34375 27.5 18.371094 28.152344 18.371094 28.152344 C 18.371094 28.152344 23.871094 29.992188 25.375 26.445312 C 26.878906 22.898438 24.523438 21.0625 24.523438 21.0625 C 24.523438 21.0625 21.382812 18.632812 19.550781 16.003906 Z M 11.539062 26.339844 C 9.996094 26.03125 9.382812 24.976562 9.304688 24.796875 C 9.226562 24.613281 8.789062 23.769531 9.019531 22.328125 C 9.6875 20.167969 11.589844 20.011719 11.589844 20.011719 L 13.496094 20.011719 L 13.496094 17.671875 L 15.113281 17.699219 L 15.113281 26.339844 Z M 17.660156 26.3125 C 16.066406 25.902344 15.992188 24.769531 15.992188 24.769531 L 15.992188 20.21875 L 17.660156 20.191406 L 17.660156 24.28125 C 17.761719 24.71875 18.304688 24.796875 18.304688 24.796875 L 20 24.796875 L 20 20.21875 L 21.773438 20.21875 L 21.773438 26.3125 Z M 27.597656 14.167969 C 27.597656 13.378906 26.945312 11.015625 24.523438 11.015625 C 22.101562 11.015625 21.777344 13.246094 21.777344 14.828125 C 21.777344 16.332031 21.902344 18.4375 24.914062 18.371094 C 27.929688 18.300781 27.597656 14.957031 27.597656 14.167969 Z M 27.597656 14.167969 "/>
</g>
</svg>
