<?xml version="1.0" encoding="UTF-8"?>
<svg xmlns="http://www.w3.org/2000/svg" xmlns:xlink="http://www.w3.org/1999/xlink" width="32" height="32" viewBox="0 0 32 32" version="1.1">
<g id="surface1">
<path style=" stroke:none;fill-rule:evenodd;fill:rgb(100%,100%,100%);fill-opacity:1;" d="M 8.613281 0 C 6.832031 0 5.050781 0.683594 3.6875 2.046875 L 2.046875 3.6875 C -0.679688 6.414062 -0.679688 10.8125 2.046875 13.539062 L 2.910156 14.433594 L 14.339844 2.847656 L 13.472656 1.980469 L 13.464844 1.988281 C 12.109375 0.667969 10.363281 0 8.613281 0 Z M 23.386719 0 C 21.605469 0 19.824219 0.683594 18.460938 2.046875 L 29.953125 13.539062 C 32.679688 10.8125 32.679688 6.414062 29.953125 3.6875 L 28.3125 2.046875 C 26.949219 0.683594 25.167969 0 23.386719 0 Z M 16.8125 3.695312 L 3.679688 16.828125 L 15.171875 28.320312 L 28.304688 15.1875 Z M 16.890625 7.972656 C 17.230469 7.988281 17.5625 8.074219 17.871094 8.214844 C 18.078125 8.308594 18.277344 8.421875 18.449219 8.574219 C 18.824219 8.902344 19.078125 9.367188 19.121094 9.949219 C 19.136719 10.074219 19.128906 10.199219 19.125 10.328125 C 19.105469 10.910156 18.875 11.484375 18.460938 11.894531 C 16.855469 13.695312 13.667969 11.648438 14.648438 9.441406 C 14.972656 8.398438 15.9375 7.933594 16.890625 7.972656 Z M 21.816406 12.898438 C 22.386719 12.921875 22.953125 13.128906 23.375 13.5 C 23.75 13.832031 24 14.292969 24.042969 14.875 C 24.140625 15.582031 23.894531 16.320312 23.386719 16.820312 C 21.78125 18.621094 18.589844 16.570312 19.570312 14.363281 C 19.769531 13.71875 20.222656 13.300781 20.761719 13.082031 C 21.089844 12.949219 21.453125 12.882812 21.816406 12.898438 Z M 10.324219 14.539062 C 10.894531 14.5625 11.460938 14.769531 11.882812 15.140625 C 12.257812 15.472656 12.511719 15.933594 12.554688 16.515625 C 12.652344 17.222656 12.402344 17.960938 11.894531 18.460938 C 10.289062 20.261719 7.101562 18.214844 8.082031 16.007812 C 8.230469 15.53125 8.519531 15.183594 8.875 14.941406 C 9.292969 14.65625 9.808594 14.515625 10.324219 14.539062 Z M 29.089844 17.566406 L 17.660156 29.152344 L 18.527344 30.019531 L 18.535156 30.011719 C 19.890625 31.332031 21.636719 32 23.386719 32 C 25.167969 32 26.949219 31.320312 28.3125 29.953125 L 29.953125 28.3125 C 32.679688 25.585938 32.679688 21.191406 29.953125 18.460938 Z M 2.046875 18.460938 C -0.679688 21.1875 -0.679688 25.585938 2.046875 28.3125 L 3.6875 29.953125 C 6.414062 32.679688 10.8125 32.679688 13.539062 29.953125 Z M 15.25 19.464844 C 15.820312 19.488281 16.386719 19.695312 16.808594 20.066406 C 17.183594 20.398438 17.433594 20.859375 17.476562 21.441406 C 17.574219 22.148438 17.328125 22.886719 16.820312 23.386719 C 15.214844 25.1875 12.023438 23.136719 13.003906 20.929688 C 13.328125 19.890625 14.296875 19.425781 15.25 19.464844 Z M 15.25 19.464844 "/>
</g>
</svg>
