<?xml version="1.0" encoding="UTF-8"?>
<svg xmlns="http://www.w3.org/2000/svg" xmlns:xlink="http://www.w3.org/1999/xlink" width="32" height="32" viewBox="0 0 32 32" version="1.1">
<g id="surface1">
<path style=" stroke:none;fill-rule:nonzero;fill:rgb(100%,100%,100%);fill-opacity:1;" d="M 2.667969 26.667969 L 29.332031 26.667969 L 29.332031 29.332031 L 2.667969 29.332031 Z M 5.332031 16 L 8 16 L 8 25.332031 L 5.332031 25.332031 Z M 12 16 L 14.667969 16 L 14.667969 25.332031 L 12 25.332031 Z M 17.332031 16 L 20 16 L 20 25.332031 L 17.332031 25.332031 Z M 24 16 L 26.667969 16 L 26.667969 25.332031 L 24 25.332031 Z M 2.667969 9.332031 L 16 2.667969 L 29.332031 9.332031 L 29.332031 14.667969 L 2.667969 14.667969 Z M 16 10.667969 C 16.738281 10.667969 17.332031 10.070312 17.332031 9.332031 C 17.332031 8.597656 16.738281 8 16 8 C 15.261719 8 14.667969 8.597656 14.667969 9.332031 C 14.667969 10.070312 15.261719 10.667969 16 10.667969 Z M 16 10.667969 "/>
</g>
</svg>
