<?xml version="1.0" encoding="UTF-8"?>
<svg xmlns="http://www.w3.org/2000/svg" xmlns:xlink="http://www.w3.org/1999/xlink" width="32" height="32" viewBox="0 0 32 32" version="1.1">
<g id="surface1">
<path style=" stroke:none;fill-rule:evenodd;fill:rgb(100%,100%,100%);fill-opacity:1;" d="M 4 8 C 1.785156 8 0 9.785156 0 12 L 0 20 C 0 22.214844 1.785156 24 4 24 L 28 24 C 30.214844 24 32 22.214844 32 20 L 32 12 C 32 9.785156 30.214844 8 28 8 Z M 4 10 L 28 10 C 29.109375 10 30 10.890625 30 12 L 30 20 C 30 21.109375 29.109375 22 28 22 L 4 22 C 2.890625 22 2 21.109375 2 20 L 2 12 C 2 10.890625 2.890625 10 4 10 Z M 4 10 "/>
<path style=" stroke:none;fill-rule:evenodd;fill:rgb(100%,100%,100%);fill-opacity:1;" d="M 6 12 L 18 12 C 19.105469 12 20 12.894531 20 14 L 20 18 C 20 19.105469 19.105469 20 18 20 L 6 20 C 4.894531 20 4 19.105469 4 18 L 4 14 C 4 12.894531 4.894531 12 6 12 Z M 6 12 "/>
</g>
</svg>
