<?xml version="1.0" encoding="UTF-8"?>
<svg xmlns="http://www.w3.org/2000/svg" xmlns:xlink="http://www.w3.org/1999/xlink" width="32" height="32" viewBox="0 0 32 32" version="1.1">
<g id="surface1">
<path style=" stroke:none;fill-rule:nonzero;fill:rgb(100%,100%,100%);fill-opacity:1;" d="M 4.84375 4 C 2.152344 4.054688 0 6.429688 0 9.339844 C 0 12.285156 2.210938 14.675781 4.9375 14.675781 L 5.753906 14.714844 L 1.066406 23.492188 C 0.636719 24.296875 0.894531 25.328125 1.640625 25.792969 L 5.1875 28.011719 C 5.570312 28.25 6.027344 28.316406 6.457031 28.191406 C 6.886719 28.066406 7.253906 27.761719 7.472656 27.347656 L 14.414062 14.351562 L 18.652344 14.351562 C 19.007812 14.351562 19.351562 14.199219 19.605469 13.925781 C 19.859375 13.652344 20 13.28125 20 12.894531 L 20 5.347656 C 20 4.992188 19.867188 4.648438 19.636719 4.394531 C 19.402344 4.140625 19.082031 4 18.753906 4 L 4.9375 4 C 4.90625 4 4.875 4 4.84375 4 Z M 14.613281 17.980469 C 13.765625 19.65625 10.667969 25.363281 10.667969 25.363281 L 14.679688 25.363281 Z M 14.613281 17.980469 "/>
<path style=" stroke:none;fill-rule:evenodd;fill:rgb(100%,100%,100%);fill-opacity:1;" d="M 22 0 L 32 0 L 32 4 L 22 4 Z M 22 0 "/>
<path style=" stroke:none;fill-rule:evenodd;fill:rgb(100%,100%,100%);fill-opacity:1;" d="M 22 6 L 32 6 L 32 8 L 22 8 Z M 22 6 "/>
<path style=" stroke:none;fill-rule:evenodd;fill:rgb(100%,100%,100%);fill-opacity:1;" d="M 22 10 L 32 10 L 32 14 L 22 14 Z M 22 10 "/>
<path style=" stroke:none;fill-rule:evenodd;fill:rgb(100%,100%,100%);fill-opacity:1;" d="M 22 16 L 32 16 L 32 18 L 22 18 Z M 22 16 "/>
<path style=" stroke:none;fill-rule:evenodd;fill:rgb(100%,100%,100%);fill-opacity:1;" d="M 22 20 L 32 20 L 32 22 L 22 22 Z M 22 20 "/>
<path style=" stroke:none;fill-rule:evenodd;fill:rgb(100%,100%,100%);fill-opacity:1;" d="M 22 24 L 32 24 L 32 28 L 22 28 Z M 22 24 "/>
<path style=" stroke:none;fill-rule:evenodd;fill:rgb(100%,100%,100%);fill-opacity:1;" d="M 22 30 L 32 30 L 32 32 L 22 32 Z M 22 30 "/>
</g>
</svg>
