<?xml version="1.0" encoding="UTF-8"?>
<svg xmlns="http://www.w3.org/2000/svg" xmlns:xlink="http://www.w3.org/1999/xlink" width="32" height="32" viewBox="0 0 32 32" version="1.1">
<g id="surface1">
<path style=" stroke:none;fill-rule:nonzero;fill:rgb(100%,100%,100%);fill-opacity:1;" d="M 1 8 C 0.445312 7.996094 -0.0078125 8.449219 -0.00390625 9.003906 L -0.00390625 24.996094 C -0.0078125 25.550781 0.445312 26.003906 1 26 L 29.007812 26 C 29.5625 26.003906 30.011719 25.550781 30.011719 24.996094 L 30.011719 22 L 31.015625 22 C 31.5625 21.992188 32.007812 21.542969 32.003906 20.996094 L 32.003906 13.003906 C 32.007812 12.453125 31.5625 12.007812 31.015625 12 L 30.011719 12 L 30.011719 9.003906 C 30.011719 8.449219 29.5625 7.996094 29.007812 8 Z M 2.003906 9.992188 L 28.003906 9.992188 L 28.003906 13.003906 C 28.007812 13.554688 28.457031 13.996094 29.007812 13.992188 L 30.011719 13.992188 L 30.011719 19.992188 L 29.007812 19.992188 C 28.453125 19.988281 28 20.441406 28.003906 20.996094 L 28.003906 23.992188 L 2.003906 23.992188 Z M 2.003906 9.992188 "/>
<path style=" stroke:none;fill-rule:nonzero;fill:rgb(100%,100%,100%);fill-opacity:1;" d="M 4.003906 11.992188 L 4.003906 21.992188 L 16.003906 21.992188 L 16.003906 11.992188 L 4.003906 11.992188 "/>
</g>
</svg>
