<?xml version="1.0" encoding="UTF-8"?>
<svg xmlns="http://www.w3.org/2000/svg" xmlns:xlink="http://www.w3.org/1999/xlink" width="32" height="32" viewBox="0 0 32 32" version="1.1">
<g id="surface1">
<path style=" stroke:none;fill-rule:nonzero;fill:rgb(100%,100%,100%);fill-opacity:1;" d="M 0 6 L 0 26 L 4 26 L 4 22 L 28 22 L 28 26 L 32 26 L 32 14 C 32 10.6875 29.3125 8 26 8 L 16 8 L 16 18 L 4 18 L 4 6 Z M 9.902344 8 C 7.730469 8.054688 6 9.828125 6 12 C 6 14.210938 7.789062 16 10 16 C 12.210938 16 14 14.210938 14 12 C 14 9.789062 12.210938 8 10 8 C 9.96875 8 9.933594 8 9.902344 8 Z M 9.902344 8 "/>
</g>
</svg>
