<?xml version="1.0" encoding="UTF-8"?>
<svg xmlns="http://www.w3.org/2000/svg" xmlns:xlink="http://www.w3.org/1999/xlink" width="32" height="32" viewBox="0 0 32 32" version="1.1">
<g id="surface1">
<path style=" stroke:none;fill-rule:nonzero;fill:rgb(100%,100%,100%);fill-opacity:1;" d="M 9.925781 7.132812 C 10.777344 7.132812 11.5625 7.199219 12.285156 7.398438 C 12.9375 7.515625 13.5625 7.765625 14.121094 8.121094 C 14.644531 8.453125 15.039062 8.914062 15.300781 9.507812 C 15.5625 10.101562 15.691406 10.828125 15.691406 11.617188 C 15.691406 12.542969 15.496094 13.332031 15.039062 13.925781 C 14.644531 14.519531 13.988281 15.046875 13.203125 15.445312 C 14.316406 15.773438 15.167969 16.367188 15.691406 17.160156 C 16.21875 17.949219 16.546875 18.941406 16.546875 20.0625 C 16.546875 20.984375 16.347656 21.777344 16.019531 22.4375 C 15.691406 23.097656 15.167969 23.6875 14.578125 24.085938 C 13.9375 24.511719 13.226562 24.820312 12.480469 25.007812 C 11.695312 25.207031 10.90625 25.339844 10.121094 25.339844 L 1.332031 25.339844 L 1.332031 7.132812 Z M 9.398438 14.519531 C 10.121094 14.519531 10.710938 14.324219 11.167969 13.992188 C 11.628906 13.664062 11.824219 13.070312 11.824219 12.34375 C 11.824219 11.949219 11.757812 11.550781 11.628906 11.289062 C 11.496094 11.023438 11.300781 10.828125 11.039062 10.628906 C 10.777344 10.496094 10.511719 10.367188 10.183594 10.300781 C 9.855469 10.234375 9.53125 10.234375 9.136719 10.234375 L 5.332031 10.234375 L 5.332031 14.519531 Z M 9.597656 22.304688 C 9.988281 22.304688 10.382812 22.238281 10.710938 22.171875 C 11.042969 22.109375 11.355469 21.972656 11.628906 21.777344 C 11.894531 21.582031 12.117188 21.335938 12.285156 21.050781 C 12.414062 20.722656 12.546875 20.324219 12.546875 19.863281 C 12.546875 18.941406 12.285156 18.28125 11.761719 17.820312 C 11.234375 17.421875 10.511719 17.226562 9.660156 17.226562 L 5.332031 17.226562 L 5.332031 22.304688 Z M 22.253906 22.238281 C 22.777344 22.765625 23.5625 23.03125 24.613281 23.03125 C 25.332031 23.03125 25.988281 22.832031 26.511719 22.503906 C 27.039062 22.105469 27.367188 21.710938 27.496094 21.316406 L 30.710938 21.316406 C 30.183594 22.898438 29.398438 24.019531 28.351562 24.742188 C 27.300781 25.402344 26.054688 25.800781 24.546875 25.800781 C 23.582031 25.804688 22.625 25.625 21.726562 25.273438 C 20.917969 24.96875 20.199219 24.46875 19.628906 23.820312 C 19.019531 23.214844 18.570312 22.464844 18.316406 21.644531 C 17.988281 20.785156 17.855469 19.863281 17.855469 18.808594 C 17.855469 17.820312 17.988281 16.894531 18.316406 16.039062 C 18.632812 15.210938 19.097656 14.449219 19.691406 13.792969 C 20.285156 13.203125 21.003906 12.675781 21.792969 12.34375 C 22.667969 11.992188 23.601562 11.8125 24.546875 11.816406 C 25.660156 11.816406 26.644531 12.015625 27.496094 12.476562 C 28.351562 12.9375 29.003906 13.464844 29.53125 14.257812 C 30.066406 15.019531 30.464844 15.867188 30.710938 16.765625 C 30.839844 17.6875 30.90625 18.609375 30.839844 19.664062 L 21.332031 19.664062 C 21.332031 20.722656 21.726562 21.710938 22.253906 22.238281 Z M 26.382812 15.3125 C 25.925781 14.851562 25.203125 14.585938 24.347656 14.585938 C 23.761719 14.585938 23.300781 14.71875 22.90625 14.914062 C 22.511719 15.113281 22.253906 15.378906 21.988281 15.644531 C 21.746094 15.898438 21.589844 16.21875 21.53125 16.566406 C 21.464844 16.894531 21.398438 17.160156 21.398438 17.421875 L 27.300781 17.421875 C 27.167969 16.433594 26.839844 15.773438 26.382812 15.3125 Z M 20.613281 8.386719 L 27.957031 8.386719 L 27.957031 10.167969 L 20.613281 10.167969 Z M 20.613281 8.386719 "/>
</g>
</svg>
