<?xml version="1.0" encoding="UTF-8"?>
<svg xmlns="http://www.w3.org/2000/svg" xmlns:xlink="http://www.w3.org/1999/xlink" width="32" height="32" viewBox="0 0 32 32" version="1.1">
<g id="surface1">
<path style=" stroke:none;fill-rule:nonzero;fill:rgb(100%,100%,100%);fill-opacity:1;" d="M 15.996094 0 C 14.617188 0 13.496094 1.117188 13.496094 2.5 C 13.496094 2.753906 13.535156 3.007812 13.613281 3.253906 C 13.222656 3.328125 12.839844 3.429688 12.464844 3.542969 L 24.996094 20.253906 L 24.996094 10.058594 C 24.996094 6.195312 21.953125 3.945312 18.378906 3.253906 C 18.457031 3.007812 18.496094 2.753906 18.496094 2.5 C 18.496094 1.117188 17.375 0 15.996094 0 Z M 6.996094 11.746094 C 7.003906 17.773438 6.996094 20.351562 6.996094 20.351562 L 2.996094 26 L 17.679688 26 Z M 11.996094 28 C 11.996094 29.429688 12.757812 30.75 13.996094 31.464844 C 15.234375 32.179688 16.757812 32.179688 17.996094 31.464844 C 18.945312 30.914062 19.625 30.003906 19.882812 28.9375 L 19.179688 28 Z M 11.996094 28 "/>
<path style=" stroke:none;fill-rule:nonzero;fill:rgb(100%,100%,100%);fill-opacity:1;" d="M 2.632812 0 L 25.679688 32 L 29.378906 32 L 6.324219 0 Z M 2.632812 0 "/>
</g>
</svg>
