<?xml version="1.0" encoding="UTF-8"?>
<svg xmlns="http://www.w3.org/2000/svg" xmlns:xlink="http://www.w3.org/1999/xlink" width="32" height="32" viewBox="0 0 32 32" version="1.1">
<g id="surface1">
<path style=" stroke:none;fill-rule:nonzero;fill:rgb(100%,100%,100%);fill-opacity:1;" d="M 15.699219 0 C 13.414062 0 11.328125 0.710938 9.445312 2.132812 C 7.5625 3.542969 6.621094 6.15625 6.621094 9.972656 L 6.621094 32 L 11.742188 32 L 11.742188 24.355469 C 13.46875 26.53125 15.617188 27.617188 18.179688 27.617188 C 20.402344 27.617188 22.15625 26.851562 23.445312 25.320312 C 24.734375 23.789062 25.378906 21.957031 25.378906 19.816406 C 25.378906 18.078125 24.898438 16.503906 23.9375 15.09375 C 22.988281 13.671875 21.496094 12.789062 19.453125 12.449219 C 20.71875 12.132812 21.773438 11.472656 22.625 10.464844 C 23.476562 9.445312 23.902344 8.261719 23.902344 6.925781 C 23.902344 4.871094 23.109375 3.210938 21.53125 1.933594 C 19.953125 0.644531 18.007812 0 15.699219 0 Z M 15.445312 4.046875 C 16.429688 4.046875 17.269531 4.363281 17.960938 4.996094 C 18.664062 5.617188 19.015625 6.429688 19.015625 7.4375 C 19.015625 8.542969 18.578125 9.453125 17.703125 10.171875 C 16.828125 10.890625 15.613281 11.261719 14.058594 11.285156 L 14.058594 14.128906 C 16.125 14.128906 17.648438 14.644531 18.632812 15.675781 C 19.628906 16.707031 20.128906 18.054688 20.128906 19.707031 C 20.128906 20.835938 19.800781 21.765625 19.144531 22.496094 C 18.488281 23.214844 17.675781 23.570312 16.703125 23.570312 C 15.695312 23.570312 14.757812 23.207031 13.894531 22.476562 C 13.03125 21.746094 12.457031 20.882812 12.164062 19.886719 C 11.882812 18.878906 11.742188 17.546875 11.742188 15.894531 L 11.742188 10.390625 C 11.742188 8.824219 11.847656 7.628906 12.054688 6.816406 C 12.261719 6.003906 12.664062 5.34375 13.257812 4.832031 C 13.867188 4.308594 14.59375 4.046875 15.445312 4.046875 Z M 15.445312 4.046875 "/>
</g>
</svg>
