<?xml version="1.0" encoding="UTF-8"?>
<svg xmlns="http://www.w3.org/2000/svg" xmlns:xlink="http://www.w3.org/1999/xlink" width="32" height="32" viewBox="0 0 32 32" version="1.1">
<g id="surface1">
<path style=" stroke:none;fill-rule:nonzero;fill:rgb(100%,100%,100%);fill-opacity:1;" d="M 16 2.667969 C 23.363281 2.667969 29.332031 8.636719 29.332031 16 C 29.332031 23.363281 23.363281 29.332031 16 29.332031 C 8.636719 29.332031 2.667969 23.363281 2.667969 16 C 2.667969 8.636719 8.636719 2.667969 16 2.667969 Z M 16 5.332031 C 10.109375 5.332031 5.332031 10.109375 5.332031 16 C 5.332031 21.890625 10.109375 26.667969 16 26.667969 C 21.890625 26.667969 26.667969 21.890625 26.667969 16 C 26.667969 10.109375 21.890625 5.332031 16 5.332031 Z M 16 8 C 20.417969 8 24 11.582031 24 16 C 24 20.417969 20.417969 24 16 24 C 11.582031 24 8 20.417969 8 16 C 8 11.582031 11.582031 8 16 8 Z M 16 10.332031 C 14.691406 10.332031 13.503906 11.097656 12.964844 12.289062 C 12.425781 13.480469 12.632812 14.878906 13.492188 15.863281 C 12.738281 16.472656 12.265625 17.351562 12.265625 18.332031 C 12.265625 20.171875 13.9375 21.667969 16 21.667969 C 18.0625 21.667969 19.734375 20.171875 19.734375 18.332031 C 19.734375 17.351562 19.261719 16.472656 18.507812 15.863281 C 19.371094 14.878906 19.578125 13.484375 19.035156 12.289062 C 18.496094 11.097656 17.308594 10.332031 16 10.332031 Z M 16 17 C 17.003906 17 17.734375 17.652344 17.734375 18.332031 C 17.734375 19.015625 17.003906 19.667969 16 19.667969 C 14.996094 19.667969 14.265625 19.015625 14.265625 18.332031 C 14.265625 17.652344 14.996094 17 16 17 Z M 16 12.332031 C 16.738281 12.332031 17.332031 12.929688 17.332031 13.667969 C 17.332031 14.402344 16.738281 15 16 15 C 15.261719 15 14.667969 14.402344 14.667969 13.667969 C 14.667969 12.929688 15.261719 12.332031 16 12.332031 Z M 16 12.332031 "/>
</g>
</svg>
