<?xml version="1.0" encoding="UTF-8"?>
<svg xmlns="http://www.w3.org/2000/svg" xmlns:xlink="http://www.w3.org/1999/xlink" width="32" height="32" viewBox="0 0 32 32" version="1.1">
<g id="surface1">
<path style=" stroke:none;fill-rule:nonzero;fill:rgb(100%,100%,100%);fill-opacity:1;" d="M 15.828125 0.164062 C 15.070312 0.25 14.496094 0.890625 14.496094 1.652344 L 14.496094 12.683594 L 8.164062 7.144531 C 7.863281 6.882812 7.46875 6.75 7.070312 6.777344 C 6.671875 6.804688 6.300781 6.988281 6.039062 7.292969 C 5.5 7.917969 5.5625 8.863281 6.1875 9.40625 L 13.730469 16.003906 L 6.1875 22.589844 C 5.882812 22.851562 5.695312 23.222656 5.667969 23.621094 C 5.640625 24.019531 5.773438 24.414062 6.039062 24.714844 C 6.300781 25.015625 6.675781 25.199219 7.074219 25.222656 C 7.472656 25.25 7.867188 25.113281 8.164062 24.847656 L 14.496094 19.3125 L 14.496094 30.339844 C 14.492188 30.910156 14.8125 31.4375 15.324219 31.695312 C 15.835938 31.953125 16.449219 31.894531 16.90625 31.550781 L 25.734375 24.921875 C 26.097656 24.648438 26.316406 24.230469 26.335938 23.777344 C 26.351562 23.324219 26.164062 22.886719 25.820312 22.589844 L 18.277344 16.003906 L 25.820312 9.40625 C 26.164062 9.105469 26.351562 8.671875 26.335938 8.21875 C 26.316406 7.765625 26.097656 7.34375 25.734375 7.070312 L 16.90625 0.457031 C 16.597656 0.222656 16.210938 0.117188 15.828125 0.164062 Z M 17.496094 4.652344 L 22.457031 8.371094 L 17.496094 12.695312 Z M 17.496094 19.296875 L 22.457031 23.636719 L 17.496094 27.355469 Z M 17.496094 19.296875 "/>
</g>
</svg>
