<?xml version="1.0" encoding="UTF-8"?>
<svg xmlns="http://www.w3.org/2000/svg" xmlns:xlink="http://www.w3.org/1999/xlink" width="32" height="32" viewBox="0 0 32 32" version="1.1">
<g id="surface1">
<path style=" stroke:none;fill-rule:nonzero;fill:rgb(100%,100%,100%);fill-opacity:1;" d="M 24.207031 26.089844 C 19.480469 30.535156 12.082031 30.421875 7.496094 25.835938 C 2.910156 21.25 2.800781 13.851562 7.242188 9.128906 L 1.855469 3.742188 L 3.742188 1.855469 L 30.144531 28.257812 L 28.257812 30.144531 Z M 9.128906 11.015625 C 5.746094 14.699219 5.871094 20.394531 9.40625 23.929688 C 12.941406 27.464844 18.632812 27.585938 22.316406 24.203125 Z M 27.21875 21.601562 L 25.085938 19.46875 C 25.828125 16.324219 24.886719 13.019531 22.601562 10.734375 L 16 4.132812 L 12.875 7.257812 L 10.992188 5.375 L 16 0.363281 L 24.484375 8.847656 C 27.828125 12.191406 28.898438 17.183594 27.21875 21.601562 Z M 27.21875 21.601562 "/>
</g>
</svg>
