<?xml version="1.0" encoding="UTF-8"?>
<svg xmlns="http://www.w3.org/2000/svg" xmlns:xlink="http://www.w3.org/1999/xlink" width="32" height="32" viewBox="0 0 32 32" version="1.1">
<g id="surface1">
<path style=" stroke:none;fill-rule:nonzero;fill:rgb(100%,100%,100%);fill-opacity:1;" d="M 16.003906 1.625 C 13.746094 1.625 11.488281 1.890625 9.65625 2.496094 C 8.738281 2.796875 7.933594 3.183594 7.25 3.765625 C 6.566406 4.34375 5.992188 5.230469 5.992188 6.246094 L 5.992188 30.367188 L 7.988281 29.570312 L 16.003906 26.292969 L 26 30.367188 L 26 6.246094 C 26 5.230469 25.441406 4.34375 24.757812 3.765625 C 24.074219 3.183594 23.253906 2.796875 22.335938 2.496094 C 20.507812 1.890625 18.261719 1.625 16.003906 1.625 Z M 16.003906 4.503906 C 18.027344 4.503906 20.058594 4.769531 21.4375 5.226562 C 22.125 5.453125 22.644531 5.734375 22.898438 5.949219 C 23.152344 6.164062 23.121094 6.199219 23.121094 6.246094 L 23.121094 26.085938 L 16.003906 23.179688 L 8.871094 26.085938 L 8.871094 6.246094 C 8.871094 6.199219 8.855469 6.164062 9.109375 5.949219 C 9.363281 5.734375 9.882812 5.453125 10.570312 5.226562 C 11.949219 4.769531 13.980469 4.503906 16.003906 4.503906 Z M 16.003906 4.503906 "/>
</g>
</svg>
