<?xml version="1.0" encoding="UTF-8"?>
<svg xmlns="http://www.w3.org/2000/svg" xmlns:xlink="http://www.w3.org/1999/xlink" width="32" height="32" viewBox="0 0 32 32" version="1.1">
<g id="surface1">
<path style=" stroke:none;fill-rule:nonzero;fill:rgb(100%,100%,100%);fill-opacity:1;" d="M 28 5.332031 L 9.332031 5.332031 C 7.859375 5.332031 6.667969 6.527344 6.667969 8 C 6.667969 9.472656 7.859375 10.667969 9.332031 10.667969 L 28 10.667969 L 28 28 C 28 28.738281 27.402344 29.332031 26.667969 29.332031 L 9.332031 29.332031 C 6.386719 29.332031 4 26.945312 4 24 L 4 8 C 4 5.054688 6.386719 2.667969 9.332031 2.667969 L 26.667969 2.667969 C 27.402344 2.667969 28 3.261719 28 4 Z M 26.667969 9.332031 L 9.332031 9.332031 C 8.597656 9.332031 8 8.738281 8 8 C 8 7.261719 8.597656 6.667969 9.332031 6.667969 L 26.667969 6.667969 Z M 26.667969 9.332031 "/>
</g>
</svg>
