<?xml version="1.0" encoding="UTF-8"?>
<svg xmlns="http://www.w3.org/2000/svg" xmlns:xlink="http://www.w3.org/1999/xlink" width="32" height="32" viewBox="0 0 32 32" version="1.1">
<g id="surface1">
<path style=" stroke:none;fill-rule:nonzero;fill:rgb(100%,100%,100%);fill-opacity:1;" d="M 11.273438 27.09375 C 7.660156 25.941406 4.628906 24.949219 4.535156 24.882812 C 4.179688 24.640625 4.183594 24.738281 4.183594 19.660156 L 4.183594 14.996094 L 2.359375 14.507812 C 1.320312 14.230469 0.449219 13.964844 0.34375 13.890625 C 0.09375 13.714844 -0.0429688 13.339844 0.03125 13.039062 C 0.09375 12.785156 4.316406 6.746094 4.503906 6.640625 C 4.570312 6.605469 6.84375 5.726562 9.558594 4.691406 C 12.886719 3.425781 14.578125 2.808594 14.742188 2.808594 C 14.878906 2.808594 17.570312 3.203125 20.730469 3.6875 C 23.886719 4.171875 26.703125 4.59375 26.984375 4.625 C 27.265625 4.660156 27.566406 4.734375 27.648438 4.789062 C 27.820312 4.90625 31.804688 10.773438 31.933594 11.101562 C 32.039062 11.371094 31.988281 11.6875 31.800781 11.921875 C 31.707031 12.039062 31.105469 12.375 30.035156 12.902344 L 28.410156 13.710938 L 28.378906 18.445312 C 28.355469 21.863281 28.328125 23.21875 28.277344 23.3125 C 28.238281 23.386719 28.136719 23.503906 28.058594 23.578125 C 27.976562 23.652344 25.769531 24.949219 23.152344 26.457031 C 18.84375 28.9375 18.367188 29.195312 18.121094 29.191406 C 17.949219 29.1875 15.339844 28.386719 11.277344 27.09375 Z M 17.3125 19.953125 L 17.3125 12.65625 L 15.828125 14.960938 C 15.011719 16.226562 14.265625 17.320312 14.175781 17.390625 C 14.0625 17.476562 13.914062 17.515625 13.738281 17.507812 C 13.589844 17.503906 11.753906 17.035156 9.65625 16.46875 L 5.839844 15.441406 L 5.824219 19.5 C 5.820312 21.734375 5.820312 23.574219 5.832031 23.585938 C 5.855469 23.609375 17.175781 27.226562 17.265625 27.238281 C 17.296875 27.242188 17.3125 23.964844 17.3125 19.953125 Z M 22.878906 24.691406 L 26.722656 22.46875 L 26.738281 18.519531 C 26.746094 16.347656 26.738281 14.574219 26.722656 14.574219 C 26.707031 14.574219 25.484375 15.171875 24.015625 15.90625 C 21.15625 17.332031 21.054688 17.367188 20.65625 17.117188 C 20.5 17.015625 20.34375 16.730469 19.816406 15.574219 C 19.464844 14.789062 19.121094 14.046875 19.058594 13.921875 C 18.949219 13.703125 18.945312 13.867188 18.941406 20.308594 C 18.941406 23.945312 18.957031 26.917969 18.988281 26.917969 C 19.007812 26.914062 20.765625 25.914062 22.878906 24.691406 Z M 15.0625 13.148438 C 15.972656 11.722656 16.714844 10.535156 16.707031 10.503906 C 16.691406 10.457031 5.304688 8.246094 5.277344 8.285156 C 5.269531 8.292969 4.570312 9.289062 3.71875 10.5 C 2.871094 11.710938 2.183594 12.707031 2.195312 12.71875 C 2.210938 12.734375 13.304688 15.730469 13.375 15.734375 C 13.390625 15.738281 14.152344 14.574219 15.0625 13.148438 Z M 25.800781 13.15625 C 28.078125 12.023438 29.933594 11.0625 29.925781 11.023438 C 29.917969 10.980469 29.25 9.964844 28.441406 8.761719 C 27.273438 7.023438 26.949219 6.582031 26.855469 6.605469 C 26.601562 6.671875 19.253906 10.253906 19.25 10.316406 C 19.25 10.351562 19.75 11.484375 20.359375 12.835938 C 21.210938 14.71875 21.492188 15.28125 21.5625 15.253906 C 21.617188 15.234375 23.519531 14.289062 25.800781 13.15625 Z M 21.214844 7.457031 C 23.832031 6.195312 24.285156 5.953125 24.140625 5.917969 C 24.046875 5.894531 21.910156 5.558594 19.390625 5.175781 L 14.808594 4.480469 L 11.425781 5.769531 C 9.566406 6.480469 8.082031 7.074219 8.128906 7.089844 C 8.359375 7.171875 17.804688 8.96875 17.949219 8.960938 C 18.042969 8.957031 19.511719 8.277344 21.214844 7.457031 Z M 21.214844 7.457031 "/>
</g>
</svg>
