<?xml version="1.0" encoding="UTF-8"?>
<svg xmlns="http://www.w3.org/2000/svg" xmlns:xlink="http://www.w3.org/1999/xlink" width="32" height="32" viewBox="0 0 32 32" version="1.1">
<g id="surface1">
<path style=" stroke:none;fill-rule:nonzero;fill:rgb(100%,100%,100%);fill-opacity:1;" d="M 16.035156 0.128906 C 15.84375 0.125 15.660156 0.167969 15.496094 0.261719 L 8.070312 4.511719 C 7.757812 4.691406 7.566406 5.019531 7.566406 5.375 L 7.566406 13.292969 L 0.628906 17.261719 C 0.316406 17.441406 0.125 17.769531 0.125 18.125 L 0.125 26.625 C 0.125 26.980469 0.316406 27.308594 0.628906 27.488281 L 8.070312 31.738281 C 8.382812 31.914062 8.765625 31.914062 9.078125 31.738281 L 16 27.769531 L 22.941406 31.738281 C 23.25 31.914062 23.632812 31.914062 23.945312 31.738281 L 31.371094 27.488281 C 31.683594 27.308594 31.875 26.980469 31.875 26.625 L 31.875 18.125 C 31.875 17.769531 31.683594 17.441406 31.371094 17.261719 L 24.449219 13.292969 L 24.449219 5.375 C 24.449219 5.019531 24.257812 4.691406 23.945312 4.511719 L 16.503906 0.261719 C 16.359375 0.179688 16.199219 0.136719 16.035156 0.128906 Z M 16 2.269531 L 22.4375 5.957031 L 22.4375 13.875 C 22.4375 14.230469 22.628906 14.558594 22.941406 14.738281 L 29.863281 18.707031 L 29.863281 26.042969 L 23.441406 29.730469 L 16.503906 25.761719 C 16.191406 25.582031 15.808594 25.582031 15.496094 25.761719 L 8.574219 29.730469 L 2.136719 26.042969 L 2.136719 18.707031 L 9.078125 14.738281 C 9.386719 14.558594 9.582031 14.230469 9.578125 13.875 L 9.578125 5.957031 Z M 16 2.269531 "/>
<path style=" stroke:none;fill-rule:nonzero;fill:rgb(100%,100%,100%);fill-opacity:1;" d="M 8.609375 12.878906 C 8.234375 12.867188 7.886719 13.058594 7.703125 13.378906 C 7.570312 13.605469 7.53125 13.878906 7.601562 14.132812 C 7.671875 14.390625 7.839844 14.605469 8.070312 14.738281 L 15.496094 18.988281 C 15.808594 19.167969 16.191406 19.167969 16.503906 18.988281 L 23.945312 14.738281 C 24.175781 14.605469 24.347656 14.390625 24.414062 14.132812 C 24.484375 13.878906 24.449219 13.605469 24.316406 13.378906 C 24.179688 13.148438 23.960938 12.980469 23.703125 12.910156 C 23.445312 12.84375 23.171875 12.878906 22.941406 13.011719 L 16 16.980469 L 9.078125 13.011719 C 8.933594 12.929688 8.773438 12.882812 8.609375 12.878906 Z M 8.609375 12.878906 "/>
<path style=" stroke:none;fill-rule:nonzero;fill:rgb(100%,100%,100%);fill-opacity:1;" d="M 16 17.128906 C 15.734375 17.128906 15.476562 17.234375 15.289062 17.421875 C 15.101562 17.605469 14.992188 17.859375 14.996094 18.125 L 14.996094 26.625 C 14.992188 26.890625 15.101562 27.140625 15.289062 27.328125 C 15.476562 27.515625 15.734375 27.621094 16 27.621094 C 16.265625 27.621094 16.523438 27.515625 16.710938 27.328125 C 16.898438 27.140625 17.007812 26.890625 17.003906 26.625 L 17.003906 18.125 C 17.007812 17.859375 16.898438 17.605469 16.710938 17.421875 C 16.523438 17.234375 16.265625 17.128906 16 17.128906 Z M 16 17.128906 "/>
<path style=" stroke:none;fill-rule:nonzero;fill:rgb(100%,100%,100%);fill-opacity:1;" d="M 16 16.980469 L 8.574219 21.230469 L 1.632812 17.261719 L 0.628906 18.988281 L 8.574219 23.519531 L 16 19.269531 L 23.441406 23.519531 L 31.371094 18.988281 L 30.367188 17.261719 L 23.441406 21.230469 Z M 16 16.980469 "/>
<path style=" stroke:none;fill-rule:nonzero;fill:rgb(100%,100%,100%);fill-opacity:1;" d="M 7.566406 22.375 L 7.566406 30.875 L 9.578125 30.875 L 9.578125 22.375 Z M 7.566406 22.375 "/>
<path style=" stroke:none;fill-rule:nonzero;fill:rgb(100%,100%,100%);fill-opacity:1;" d="M 22.4375 22.375 L 22.4375 30.875 L 24.449219 30.875 L 24.449219 22.375 Z M 22.4375 22.375 "/>
<path style=" stroke:none;fill-rule:nonzero;fill:rgb(100%,100%,100%);fill-opacity:1;" d="M 9.078125 4.511719 L 8.070312 6.238281 L 16 10.769531 L 23.945312 6.238281 L 22.941406 4.511719 L 16 8.480469 Z M 9.078125 4.511719 "/>
<path style=" stroke:none;fill-rule:nonzero;fill:rgb(100%,100%,100%);fill-opacity:1;" d="M 14.996094 9.625 L 14.996094 18.125 L 17.003906 18.125 L 17.003906 9.625 Z M 14.996094 9.625 "/>
</g>
</svg>
