<?xml version="1.0" encoding="UTF-8"?>
<svg xmlns="http://www.w3.org/2000/svg" xmlns:xlink="http://www.w3.org/1999/xlink" width="32" height="32" viewBox="0 0 32 32" version="1.1">
<g id="surface1">
<path style=" stroke:none;fill-rule:nonzero;fill:rgb(100%,100%,100%);fill-opacity:1;" d="M 2.011719 26 L 2.011719 28.007812 L 29.996094 28.007812 L 29.996094 26 Z M 2.011719 26 "/>
<path style=" stroke:none;fill-rule:evenodd;fill:rgb(100%,100%,100%);fill-opacity:1;" d="M 18.996094 13.996094 L 24.996094 13.996094 C 26.105469 13.996094 26.996094 14.890625 26.996094 15.996094 L 26.996094 21.996094 C 26.996094 23.105469 26.105469 23.996094 24.996094 23.996094 L 18.996094 23.996094 C 17.886719 23.996094 16.996094 23.105469 16.996094 21.996094 L 16.996094 15.996094 C 16.996094 14.890625 17.886719 13.996094 18.996094 13.996094 Z M 18.996094 13.996094 "/>
<path style=" stroke:none;fill-rule:nonzero;fill:rgb(100%,100%,100%);fill-opacity:1;" d="M 2.003906 29.992188 L 2.003906 32 L 29.988281 32 L 29.988281 29.992188 Z M 2.003906 29.992188 "/>
<path style=" stroke:none;fill-rule:nonzero;fill:rgb(100%,100%,100%);fill-opacity:1;" d="M 4.003906 28.003906 L 4.003906 29.996094 L 5.996094 29.996094 L 5.996094 28.003906 Z M 4.003906 28.003906 "/>
<path style=" stroke:none;fill-rule:nonzero;fill:rgb(100%,100%,100%);fill-opacity:1;" d="M 25.988281 28.003906 L 25.988281 29.996094 L 27.996094 29.996094 L 27.996094 28.003906 Z M 25.988281 28.003906 "/>
<path style=" stroke:none;fill-rule:nonzero;fill:rgb(100%,100%,100%);fill-opacity:1;" d="M 14.996094 28 L 14.996094 29.992188 L 16.996094 30 L 16.996094 28.007812 Z M 14.996094 28 "/>
<path style=" stroke:none;fill-rule:evenodd;fill:rgb(100%,100%,100%);fill-opacity:1;" d="M 6.996094 13.996094 L 12.996094 13.996094 C 14.105469 13.996094 14.996094 14.890625 14.996094 15.996094 L 14.996094 21.996094 C 14.996094 23.105469 14.105469 23.996094 12.996094 23.996094 L 6.996094 23.996094 C 5.886719 23.996094 4.996094 23.105469 4.996094 21.996094 L 4.996094 15.996094 C 4.996094 14.890625 5.886719 13.996094 6.996094 13.996094 Z M 6.996094 13.996094 "/>
<path style=" stroke:none;fill-rule:evenodd;fill:rgb(100%,100%,100%);fill-opacity:1;" d="M 12.996094 1.996094 L 18.996094 1.996094 C 20.105469 1.996094 20.996094 2.890625 20.996094 3.996094 L 20.996094 9.996094 C 20.996094 11.105469 20.105469 11.996094 18.996094 11.996094 L 12.996094 11.996094 C 11.886719 11.996094 10.996094 11.105469 10.996094 9.996094 L 10.996094 3.996094 C 10.996094 2.890625 11.886719 1.996094 12.996094 1.996094 Z M 12.996094 1.996094 "/>
</g>
</svg>
