<?xml version="1.0" encoding="UTF-8"?>
<svg xmlns="http://www.w3.org/2000/svg" xmlns:xlink="http://www.w3.org/1999/xlink" width="32" height="32" viewBox="0 0 32 32" version="1.1">
<g id="surface1">
<path style=" stroke:none;fill-rule:evenodd;fill:rgb(100%,100%,100%);fill-opacity:1;" d="M 17.617188 16.355469 L 22.8125 13.355469 C 23.773438 12.800781 24.992188 13.128906 25.546875 14.085938 L 28.546875 19.285156 C 29.101562 20.242188 28.773438 21.460938 27.8125 22.015625 L 22.617188 25.015625 C 21.65625 25.570312 20.441406 25.242188 19.886719 24.285156 L 16.886719 19.085938 C 16.332031 18.128906 16.65625 16.910156 17.617188 16.355469 Z M 17.617188 16.355469 "/>
<path style=" stroke:none;fill-rule:nonzero;fill:rgb(100%,100%,100%);fill-opacity:1;" d="M 4.8125 1.1875 L 0.488281 3.828125 C 0.015625 4.113281 -0.136719 4.730469 0.148438 5.203125 C 0.433594 5.675781 1.050781 5.828125 1.523438 5.542969 L 4.105469 3.960938 L 19.636719 30.875 L 31.507812 23.964844 C 31.976562 23.6875 32.132812 23.082031 31.863281 22.609375 C 31.585938 22.132812 30.980469 21.96875 30.503906 22.238281 L 20.359375 28.144531 Z M 4.8125 1.1875 "/>
<path style=" stroke:none;fill-rule:evenodd;fill:rgb(100%,100%,100%);fill-opacity:1;" d="M 23.246094 28.929688 C 23.246094 30.625 21.871094 32 20.175781 32 C 18.480469 32 17.105469 30.625 17.105469 28.929688 C 17.105469 27.230469 18.480469 25.855469 20.175781 25.855469 C 21.871094 25.855469 23.246094 27.230469 23.246094 28.929688 Z M 23.246094 28.929688 "/>
<path style=" stroke:none;fill-rule:evenodd;fill:rgb(100%,100%,100%);fill-opacity:1;" d="M 11.964844 6.496094 L 17.160156 3.496094 C 18.121094 2.945312 19.339844 3.269531 19.894531 4.230469 L 22.894531 9.425781 C 23.449219 10.386719 23.121094 11.605469 22.160156 12.15625 L 16.964844 15.15625 C 16.007812 15.710938 14.789062 15.386719 14.234375 14.425781 L 11.234375 9.230469 C 10.679688 8.269531 11.007812 7.050781 11.964844 6.496094 Z M 11.964844 6.496094 "/>
</g>
</svg>
