<?xml version="1.0" encoding="UTF-8"?>
<svg xmlns="http://www.w3.org/2000/svg" xmlns:xlink="http://www.w3.org/1999/xlink" width="32" height="32" viewBox="0 0 32 32" version="1.1">
<g id="surface1">
<path style=" stroke:none;fill-rule:nonzero;fill:rgb(100%,100%,100%);fill-opacity:1;" d="M 12.667969 14.667969 L 12.859375 14.675781 C 13.8125 14.765625 14.566406 15.523438 14.660156 16.476562 L 14.667969 16.667969 L 14.65625 16.859375 C 14.566406 17.8125 13.8125 18.566406 12.859375 18.660156 L 12.667969 18.667969 L 8 18.667969 L 8 21.332031 L 12.667969 21.332031 C 14.933594 21.332031 16.824219 19.71875 17.246094 17.574219 L 17.285156 17.335938 L 25.332031 17.332031 C 26.28125 17.332031 27.183594 17.132812 28 16.777344 L 28 22.667969 C 28 24.363281 26.929688 25.875 25.332031 26.4375 L 25.332031 28 C 25.332031 28.738281 24.738281 29.332031 24 29.332031 L 8 29.332031 C 7.261719 29.332031 6.667969 28.738281 6.667969 28 L 6.667969 26.441406 C 5.066406 25.875 4 24.363281 4 22.667969 L 4 17.332031 C 4 15.859375 5.195312 14.667969 6.667969 14.667969 Z M 29.332031 10 L 29.332031 10.667969 L 29.328125 10.902344 C 29.207031 12.925781 27.59375 14.542969 25.566406 14.660156 L 25.332031 14.667969 L 16.882812 14.667969 C 16.152344 13.128906 14.644531 12.109375 12.945312 12.007812 L 12.667969 12 L 6.667969 12 C 5.695312 12 4.785156 12.261719 4 12.714844 L 4 8 C 4 5.054688 6.386719 2.667969 9.332031 2.667969 L 22 2.667969 C 26.050781 2.667969 29.332031 5.949219 29.332031 10 Z M 29.332031 10 "/>
</g>
</svg>
