<?xml version="1.0" encoding="UTF-8"?>
<svg xmlns="http://www.w3.org/2000/svg" xmlns:xlink="http://www.w3.org/1999/xlink" width="32" height="32" viewBox="0 0 32 32" version="1.1">
<g id="surface1">
<path style=" stroke:none;fill-rule:nonzero;fill:rgb(100%,100%,100%);fill-opacity:1;" d="M 29.511719 0.433594 C 29.234375 0.441406 28.972656 0.570312 28.800781 0.789062 L 23.695312 7.304688 L 23.652344 7.359375 L 23.613281 7.304688 C 23.433594 7.074219 23.152344 6.945312 22.859375 6.949219 C 22.582031 6.957031 22.320312 7.085938 22.148438 7.304688 L 21.324219 8.359375 L 20.503906 7.304688 C 20.058594 6.734375 19.625 6.324219 19.042969 6.117188 C 18.460938 5.914062 17.804688 6.027344 17.34375 6.277344 C 16.523438 6.726562 15.015625 8.375 14.652344 8.777344 C 12.511719 10.363281 8.054688 12.046875 1.644531 11.011719 C 1.308594 10.960938 0.96875 11.085938 0.742188 11.339844 C 0.0820312 12.097656 -0.0585938 13.097656 0.0195312 14.128906 C 0.0976562 15.164062 0.40625 16.300781 0.875 17.507812 C 1.8125 19.929688 3.410156 22.648438 5.335938 25.054688 C 7.261719 27.464844 9.527344 29.621094 11.878906 30.753906 C 13.054688 31.320312 14.273438 31.632812 15.496094 31.550781 C 16.71875 31.472656 17.925781 30.964844 18.921875 30.003906 C 21.40625 27.617188 23.507812 23.398438 25.003906 20.980469 C 25.003906 20.980469 25.003906 20.980469 25.003906 20.976562 C 25.078125 20.910156 27.019531 19.15625 27.199219 18.148438 C 27.382812 17.125 27.320312 16.09375 26.707031 15.300781 C 25.429688 13.925781 25.632812 13.828125 26.707031 12.441406 C 26.96875 12.109375 26.96875 11.636719 26.707031 11.300781 L 26.371094 10.871094 L 26.707031 10.441406 L 31.796875 3.925781 C 32.0625 3.597656 32.066406 3.125 31.8125 2.785156 L 30.25 0.789062 C 30.074219 0.5625 29.800781 0.433594 29.511719 0.433594 Z M 14.117188 10.898438 L 14.117188 10.902344 L 23.113281 21.394531 L 23.136719 21.375 C 21.910156 23.535156 19.691406 26.417969 17.5 28.523438 C 16.808594 29.191406 16.121094 29.460938 15.34375 29.511719 C 14.566406 29.5625 13.675781 29.367188 12.71875 28.90625 C 11.957031 28.539062 11.164062 27.980469 10.371094 27.332031 C 11.269531 26.953125 12.121094 26.449219 12.878906 25.878906 C 14.117188 24.949219 15.117188 23.917969 15.597656 22.808594 C 15.8125 22.300781 15.578125 21.714844 15.066406 21.496094 C 14.925781 21.433594 14.773438 21.402344 14.621094 21.40625 C 14.238281 21.425781 13.902344 21.660156 13.75 22.011719 C 13.527344 22.527344 12.726562 23.5 11.683594 24.285156 C 10.773438 24.972656 9.6875 25.535156 8.699219 25.808594 C 8.082031 25.179688 7.476562 24.519531 6.902344 23.800781 C 6.285156 23.027344 5.714844 22.210938 5.179688 21.386719 C 6.554688 21.488281 7.765625 21.324219 8.804688 20.90625 C 10.355469 20.289062 11.519531 19.21875 12.527344 18.128906 C 12.894531 17.722656 12.867188 17.101562 12.464844 16.726562 C 12.296875 16.570312 12.078125 16.476562 11.847656 16.460938 C 11.550781 16.441406 11.257812 16.554688 11.050781 16.769531 C 10.125 17.773438 9.199219 18.59375 8.066406 19.046875 C 6.996094 19.476562 5.6875 19.601562 3.863281 19.167969 C 3.425781 18.347656 3.03125 17.539062 2.738281 16.785156 C 2.316406 15.703125 2.070312 14.722656 2.015625 13.980469 C 1.972656 13.40625 2.089844 13.167969 2.191406 12.949219 C 8 13.625 11.957031 12.648438 14.117188 10.898438 Z M 14.117188 10.898438 "/>
</g>
</svg>
