<?xml version="1.0" encoding="UTF-8"?>
<svg xmlns="http://www.w3.org/2000/svg" xmlns:xlink="http://www.w3.org/1999/xlink" width="32" height="32" viewBox="0 0 32 32" version="1.1">
<g id="surface1">
<path style=" stroke:none;fill-rule:evenodd;fill:rgb(100%,100%,100%);fill-opacity:1;" d="M 4 2 C 1.785156 2 0 3.785156 0 6 L 0 26 C 0 28.214844 1.785156 30 4 30 L 28 30 C 30.214844 30 32 28.214844 32 26 L 32 6 C 32 3.785156 30.214844 2 28 2 Z M 5.75 6 L 20.25 6 C 21.21875 6 22 6.78125 22 7.75 L 22 8.25 C 22 9.21875 21.21875 10 20.25 10 L 5.75 10 C 4.78125 10 4 9.21875 4 8.25 L 4 7.75 C 4 6.78125 4.78125 6 5.75 6 Z M 25.75 6 L 26.25 6 C 27.21875 6 28 6.734375 28 7.644531 L 28 8.355469 C 28 9.269531 27.21875 10 26.25 10 L 25.75 10 C 24.78125 10 24 9.269531 24 8.355469 L 24 7.644531 C 24 6.730469 24.78125 6 25.75 6 Z M 25.75 6 "/>
</g>
</svg>
