<?xml version="1.0" encoding="UTF-8"?>
<svg xmlns="http://www.w3.org/2000/svg" xmlns:xlink="http://www.w3.org/1999/xlink" width="32" height="32" viewBox="0 0 32 32" version="1.1">
<g id="surface1">
<path style=" stroke:none;fill-rule:nonzero;fill:rgb(100%,100%,100%);fill-opacity:1;" d="M 22.046875 21.265625 L 24.875 18.4375 L 20.632812 14.195312 L 25.347656 9.480469 L 22.519531 6.652344 L 17.804688 11.367188 L 13.5625 7.125 L 10.734375 9.953125 Z M 20.160156 23.152344 L 8.847656 11.839844 L 5.078125 15.609375 L 16.390625 26.921875 Z M 17.804688 7.597656 L 21.574219 3.824219 C 22.097656 3.304688 22.941406 3.304688 23.460938 3.824219 L 28.175781 8.539062 C 28.695312 9.058594 28.695312 9.902344 28.175781 10.425781 L 24.402344 14.195312 L 27.703125 17.496094 C 27.953125 17.746094 28.09375 18.085938 28.09375 18.4375 C 28.09375 18.792969 27.953125 19.132812 27.703125 19.382812 L 17.332031 29.753906 C 16.8125 30.273438 15.96875 30.273438 15.449219 29.753906 L 2.246094 16.550781 C 1.726562 16.03125 1.726562 15.1875 2.246094 14.667969 L 12.617188 4.296875 C 12.867188 4.046875 13.207031 3.90625 13.5625 3.90625 C 13.914062 3.90625 14.253906 4.046875 14.503906 4.296875 Z M 17.804688 7.597656 "/>
</g>
</svg>
