<?xml version="1.0" encoding="UTF-8"?>
<svg xmlns="http://www.w3.org/2000/svg" xmlns:xlink="http://www.w3.org/1999/xlink" width="32" height="32" viewBox="0 0 32 32" version="1.1">
<g id="surface1">
<path style=" stroke:none;fill-rule:nonzero;fill:rgb(100%,100%,100%);fill-opacity:1;" d="M 17.71875 8.289062 L 24.304688 3.167969 C 24.835938 2.753906 25.589844 2.800781 26.0625 3.277344 L 30.058594 7.269531 C 30.53125 7.742188 30.578125 8.5 30.167969 9.03125 L 25.046875 15.613281 C 25.777344 18.597656 25.097656 21.75 23.203125 24.167969 C 21.308594 26.585938 18.40625 28 15.335938 28.003906 C 10.667969 28.003906 4.667969 26 1.332031 24 C 6.640625 20 5.394531 17.585938 6 15.332031 C 7.410156 10.066406 12.457031 6.992188 17.71875 8.289062 Z M 22.269531 10.792969 C 22.355469 10.878906 22.441406 10.964844 22.527344 11.050781 L 24.039062 12.5625 L 27.339844 8.320312 L 25.011719 5.992188 L 20.769531 9.292969 Z M 22.269531 10.792969 "/>
</g>
</svg>
