<?xml version="1.0" encoding="UTF-8"?>
<svg xmlns="http://www.w3.org/2000/svg" xmlns:xlink="http://www.w3.org/1999/xlink" width="32" height="32" viewBox="0 0 32 32" version="1.1">
<g id="surface1">
<path style=" stroke:none;fill-rule:nonzero;fill:rgb(100%,100%,100%);fill-opacity:1;" d="M 20.609375 12.902344 L 20.417969 12.714844 C 19.527344 11.855469 18.429688 11.234375 17.230469 10.914062 C 13.355469 9.878906 9.632812 12.074219 8.574219 16.023438 C 8.519531 16.234375 8.488281 16.476562 8.4375 17.078125 C 8.230469 19.570312 7.644531 21.429688 6.039062 23.316406 C 9.050781 24.5 12.621094 25.335938 15.335938 25.335938 C 18.652344 25.332031 21.554688 23.101562 22.414062 19.898438 C 23.085938 17.410156 22.398438 14.757812 20.609375 12.902344 Z M 17.71875 8.289062 L 24.304688 3.167969 C 24.835938 2.753906 25.589844 2.800781 26.066406 3.277344 L 30.058594 7.269531 C 30.535156 7.742188 30.582031 8.5 30.167969 9.03125 L 25.046875 15.613281 C 25.78125 18.597656 25.101562 21.75 23.203125 24.167969 C 21.308594 26.585938 18.410156 28 15.335938 28.003906 C 10.667969 28.003906 4.667969 26 1.332031 24 C 6.640625 20 5.394531 17.585938 6 15.332031 C 7.410156 10.066406 12.457031 6.992188 17.71875 8.289062 Z M 22.269531 10.792969 C 22.355469 10.878906 22.445312 10.964844 22.527344 11.050781 L 24.042969 12.5625 L 27.339844 8.320312 L 25.011719 5.992188 L 20.769531 9.292969 Z M 22.269531 10.792969 "/>
</g>
</svg>
