<?xml version="1.0" encoding="UTF-8"?>
<svg xmlns="http://www.w3.org/2000/svg" xmlns:xlink="http://www.w3.org/1999/xlink" width="32" height="32" viewBox="0 0 32 32" version="1.1">
<g id="surface1">
<path style=" stroke:none;fill-rule:nonzero;fill:rgb(100%,100%,100%);fill-opacity:1;" d="M 28.226562 0.0273438 L 21.042969 7.113281 L 20.730469 6.800781 C 20.523438 6.597656 20.246094 6.480469 19.953125 6.480469 L 13.390625 6.480469 C 13.101562 6.480469 12.824219 6.597656 12.621094 6.800781 L 10.441406 8.949219 C 10.421875 8.96875 10.414062 8.992188 10.398438 9.011719 L 0.171875 19.242188 L 0.214844 20.632812 C 5.402344 25.691406 6.136719 26.5625 11.386719 31.796875 L 12.792969 31.796875 L 23.5625 20.613281 L 23.5625 20.605469 L 25.082031 19.097656 C 25.289062 18.894531 25.40625 18.621094 25.40625 18.332031 L 25.40625 11.875 C 25.40625 11.585938 25.289062 11.3125 25.082031 11.109375 L 24.769531 10.800781 L 31.964844 3.699219 L 31.964844 0.0273438 Z M 11.136719 11.164062 L 20.730469 20.640625 L 12.097656 29.671875 C 8.132812 25.714844 6.234375 23.71875 2.296875 19.878906 Z M 11.136719 11.164062 "/>
</g>
</svg>
