<?xml version="1.0" encoding="UTF-8"?>
<svg xmlns="http://www.w3.org/2000/svg" xmlns:xlink="http://www.w3.org/1999/xlink" width="32" height="32" viewBox="0 0 32 32" version="1.1">
<g id="surface1">
<path style=" stroke:none;fill-rule:nonzero;fill:rgb(100%,100%,100%);fill-opacity:1;" d="M 6.761719 21.332031 C 6.699219 20.890625 6.667969 20.445312 6.667969 20 L 6.667969 18.667969 L 4 18.667969 L 4 16 L 6.667969 16 L 6.667969 14.667969 C 6.667969 14.214844 6.699219 13.769531 6.761719 13.332031 L 4 13.332031 L 4 10.667969 L 7.566406 10.667969 C 8.382812 8.949219 9.703125 7.519531 11.351562 6.570312 L 9.953125 5.171875 L 11.839844 3.285156 L 14.085938 5.53125 C 15.347656 5.269531 16.652344 5.269531 17.917969 5.53125 L 20.164062 3.285156 L 22.050781 5.171875 L 20.648438 6.574219 C 22.296875 7.523438 23.617188 8.949219 24.433594 10.667969 L 28 10.667969 L 28 13.332031 L 25.238281 13.332031 C 25.300781 13.769531 25.332031 14.214844 25.332031 14.667969 L 25.332031 16 L 28 16 L 28 18.667969 L 25.332031 18.667969 L 25.332031 20 C 25.332031 20.453125 25.300781 20.898438 25.238281 21.332031 L 28 21.332031 L 28 24 L 24.433594 24 C 22.890625 27.257812 19.605469 29.335938 16 29.335938 C 12.394531 29.335938 9.109375 27.257812 7.566406 24 L 4 24 L 4 21.332031 Z M 12 13.332031 L 12 16 L 20 16 L 20 13.332031 Z M 12 18.667969 L 12 21.332031 L 20 21.332031 L 20 18.667969 Z M 12 18.667969 "/>
</g>
</svg>
