<?xml version="1.0" encoding="UTF-8"?>
<svg xmlns="http://www.w3.org/2000/svg" xmlns:xlink="http://www.w3.org/1999/xlink" width="32" height="32" viewBox="0 0 32 32" version="1.1">
<defs>
<filter id="alpha" filterUnits="objectBoundingBox" x="0%" y="0%" width="100%" height="100%">
  <feColorMatrix type="matrix" in="SourceGraphic" values="0 0 0 0 1 0 0 0 0 1 0 0 0 0 1 0 0 0 1 0"/>
</filter>
<mask id="mask0">
  <g filter="url(#alpha)">
<rect x="0" y="0" width="32" height="32" style="fill:rgb(100%,100%,100%);fill-opacity:0.996078;stroke:none;"/>
  </g>
</mask>
<clipPath id="clip1">
  <rect x="0" y="0" width="32" height="32"/>
</clipPath>
<g id="surface5" clip-path="url(#clip1)">
<path style=" stroke:none;fill-rule:evenodd;fill:rgb(100%,100%,100%);fill-opacity:1;" d="M 12 6 L 10 8 L 12 10 L 12.105469 10 C 11.035156 11.046875 10.320312 12.441406 10.097656 14 L 6 14 L 6 16 L 10 16 L 10 18 L 6 18 L 6 20 L 10 20 L 10 22 L 6 22 L 6 24 L 10.097656 24 C 10.582031 27.398438 13.464844 30 17 30 C 20.535156 30 23.417969 27.398438 23.902344 24 L 28 24 L 28 22 L 24 22 L 24 20 L 28 20 L 28 18 L 24 18 L 24 16 L 28 16 L 28 14 L 23.902344 14 C 23.679688 12.441406 22.964844 11.046875 21.894531 10 L 22 10 L 24 8 L 22 6 L 19.519531 8.480469 C 18.738281 8.179688 17.890625 8 17 8 C 16.109375 8 15.261719 8.179688 14.480469 8.480469 Z M 14 12 C 15.105469 12 16 12.894531 16 14 C 16 15.105469 15.105469 16 14 16 C 12.894531 16 12 15.105469 12 14 C 12 12.894531 12.894531 12 14 12 Z M 20 12 C 21.105469 12 22 12.894531 22 14 C 22 15.105469 21.105469 16 20 16 C 18.894531 16 18 15.105469 18 14 C 18 12.894531 18.894531 12 20 12 Z M 20 12 "/>
</g>
</defs>
<g id="surface1">
<use xlink:href="#surface5" mask="url(#mask0)"/>
</g>
</svg>
