<?xml version="1.0" encoding="UTF-8"?>
<svg xmlns="http://www.w3.org/2000/svg" xmlns:xlink="http://www.w3.org/1999/xlink" width="32" height="32" viewBox="0 0 32 32" version="1.1">
<g id="surface1">
<path style=" stroke:none;fill-rule:evenodd;fill:rgb(100%,100%,100%);fill-opacity:1;" d="M 14.78125 11.859375 C 14.769531 11.796875 14.765625 11.738281 14.765625 11.679688 C 14.765625 11.414062 14.871094 11.160156 15.058594 10.96875 C 15.246094 10.78125 15.5 10.675781 15.765625 10.675781 C 17.886719 10.675781 19.917969 11.515625 21.417969 13.015625 C 22.917969 14.515625 23.761719 16.546875 23.761719 18.667969 C 23.757812 19.214844 23.320312 19.660156 22.773438 19.667969 C 22.507812 19.667969 22.253906 19.5625 22.066406 19.375 C 21.878906 19.1875 21.773438 18.933594 21.773438 18.667969 C 21.773438 17.074219 21.136719 15.554688 20.011719 14.429688 C 18.886719 13.304688 17.359375 12.679688 15.765625 12.679688 C 15.28125 12.679688 14.867188 12.332031 14.78125 11.859375 Z M 14.78125 11.859375 "/>
<path style=" stroke:none;fill-rule:evenodd;fill:rgb(100%,100%,100%);fill-opacity:1;" d="M 14.792969 7.851562 C 14.78125 7.792969 14.777344 7.730469 14.777344 7.671875 C 14.777344 7.40625 14.882812 7.152344 15.070312 6.964844 C 15.257812 6.773438 15.511719 6.667969 15.777344 6.667969 C 18.957031 6.667969 22.003906 7.941406 24.253906 10.191406 C 26.503906 12.441406 27.769531 15.496094 27.769531 18.679688 C 27.761719 19.230469 27.3125 19.667969 26.765625 19.667969 C 26.222656 19.660156 25.785156 19.21875 25.78125 18.675781 C 25.78125 16.023438 24.722656 13.484375 22.847656 11.609375 C 20.972656 9.730469 18.429688 8.671875 15.777344 8.671875 C 15.292969 8.671875 14.878906 8.324219 14.792969 7.851562 Z M 14.792969 7.851562 "/>
<path style=" stroke:none;fill-rule:evenodd;fill:rgb(100%,100%,100%);fill-opacity:1;" d="M 14.792969 3.859375 C 14.78125 3.796875 14.773438 3.730469 14.773438 3.667969 C 14.773438 3.402344 14.878906 3.148438 15.066406 2.960938 C 15.253906 2.769531 15.507812 2.664062 15.773438 2.664062 C 20.015625 2.664062 24.085938 4.351562 27.085938 7.351562 C 30.085938 10.355469 31.773438 14.433594 31.773438 18.675781 C 31.773438 18.941406 31.667969 19.199219 31.480469 19.386719 C 31.292969 19.574219 31.039062 19.679688 30.773438 19.679688 C 30.507812 19.679688 30.25 19.574219 30.0625 19.386719 C 29.875 19.199219 29.769531 18.945312 29.769531 18.679688 C 29.769531 14.964844 28.304688 11.394531 25.679688 8.769531 C 23.050781 6.144531 19.488281 4.667969 15.773438 4.667969 C 15.296875 4.667969 14.886719 4.328125 14.792969 3.859375 Z M 14.792969 3.859375 "/>
<path style=" stroke:none;fill-rule:nonzero;fill:rgb(100%,100%,100%);fill-opacity:1;" d="M 4.710938 29.105469 L 4.710938 26.417969 L 0.226562 26.417969 L 0.226562 24.175781 L 4.976562 15.691406 L 6.746094 15.691406 L 6.746094 24.167969 L 8.101562 24.167969 L 8.101562 26.417969 L 6.746094 26.417969 L 6.746094 29.105469 Z M 4.710938 24.167969 L 4.710938 19.601562 L 2.195312 24.167969 Z M 4.710938 24.167969 "/>
<path style=" stroke:none;fill-rule:nonzero;fill:rgb(100%,100%,100%);fill-opacity:1;" d="M 14.691406 24.195312 L 14.691406 21.941406 L 19.460938 21.941406 L 19.460938 27.265625 C 18.980469 27.832031 18.300781 28.316406 17.417969 28.722656 C 16.535156 29.128906 15.652344 29.335938 14.765625 29.335938 C 13.683594 29.335938 12.730469 29.070312 11.902344 28.542969 C 11.078125 28.007812 10.421875 27.210938 9.933594 26.152344 C 9.453125 25.089844 9.214844 23.839844 9.214844 22.40625 C 9.214844 20.9375 9.457031 19.679688 9.945312 18.632812 C 10.4375 17.589844 11.070312 16.808594 11.847656 16.292969 C 12.632812 15.773438 13.570312 15.515625 14.65625 15.515625 C 15.960938 15.515625 17.007812 15.851562 17.792969 16.519531 C 18.582031 17.179688 19.089844 18.15625 19.3125 19.445312 L 17.125 19.945312 C 16.960938 19.257812 16.660156 18.734375 16.222656 18.371094 C 15.785156 18.003906 15.265625 17.824219 14.65625 17.824219 C 13.714844 17.824219 12.953125 18.191406 12.367188 18.925781 C 11.785156 19.65625 11.492188 20.769531 11.492188 22.269531 C 11.492188 23.878906 11.808594 25.105469 12.441406 25.945312 C 12.980469 26.667969 13.714844 27.027344 14.636719 27.027344 C 15.070312 27.027344 15.515625 26.929688 15.976562 26.726562 C 16.445312 26.519531 16.863281 26.242188 17.226562 25.890625 L 17.226562 24.195312 Z M 14.691406 24.195312 "/>
</g>
</svg>
