<?xml version="1.0" encoding="UTF-8"?>
<svg xmlns="http://www.w3.org/2000/svg" xmlns:xlink="http://www.w3.org/1999/xlink" width="32" height="32" viewBox="0 0 32 32" version="1.1">
<g id="surface1">
<path style=" stroke:none;fill-rule:evenodd;fill:rgb(100%,100%,100%);fill-opacity:1;" d="M 14.582031 11.859375 C 14.570312 11.796875 14.566406 11.738281 14.566406 11.679688 C 14.566406 11.414062 14.671875 11.160156 14.859375 10.96875 C 15.046875 10.78125 15.300781 10.675781 15.566406 10.675781 C 17.6875 10.675781 19.722656 11.515625 21.222656 13.015625 C 22.722656 14.515625 23.5625 16.546875 23.5625 18.667969 C 23.5625 19.214844 23.121094 19.660156 22.578125 19.667969 C 22.3125 19.667969 22.058594 19.5625 21.867188 19.375 C 21.679688 19.1875 21.574219 18.933594 21.574219 18.667969 C 21.574219 17.074219 20.9375 15.554688 19.8125 14.429688 C 18.6875 13.304688 17.160156 12.679688 15.570312 12.679688 C 15.085938 12.679688 14.671875 12.332031 14.585938 11.859375 Z M 14.582031 11.859375 "/>
<path style=" stroke:none;fill-rule:evenodd;fill:rgb(100%,100%,100%);fill-opacity:1;" d="M 14.59375 7.851562 C 14.582031 7.792969 14.578125 7.730469 14.578125 7.671875 C 14.578125 7.40625 14.683594 7.152344 14.871094 6.964844 C 15.058594 6.773438 15.3125 6.667969 15.578125 6.667969 C 18.761719 6.667969 21.808594 7.941406 24.058594 10.191406 C 26.308594 12.441406 27.570312 15.496094 27.570312 18.679688 C 27.5625 19.230469 27.117188 19.667969 26.566406 19.667969 C 26.023438 19.660156 25.589844 19.21875 25.582031 18.675781 C 25.582031 16.023438 24.523438 13.484375 22.648438 11.609375 C 20.773438 9.730469 18.234375 8.671875 15.582031 8.671875 C 15.097656 8.671875 14.683594 8.324219 14.597656 7.851562 Z M 14.59375 7.851562 "/>
<path style=" stroke:none;fill-rule:evenodd;fill:rgb(100%,100%,100%);fill-opacity:1;" d="M 14.59375 3.859375 C 14.582031 3.796875 14.574219 3.734375 14.570312 3.667969 C 14.570312 3.402344 14.675781 3.148438 14.863281 2.960938 C 15.050781 2.769531 15.308594 2.664062 15.574219 2.664062 C 19.816406 2.664062 23.886719 4.351562 26.886719 7.351562 C 29.886719 10.355469 31.570312 14.433594 31.570312 18.675781 C 31.570312 18.941406 31.464844 19.199219 31.277344 19.386719 C 31.089844 19.574219 30.835938 19.679688 30.570312 19.679688 C 30.304688 19.679688 30.050781 19.574219 29.863281 19.386719 C 29.675781 19.199219 29.570312 18.945312 29.570312 18.679688 C 29.570312 14.964844 28.101562 11.394531 25.476562 8.769531 C 22.851562 6.144531 19.289062 4.667969 15.574219 4.667969 C 15.097656 4.667969 14.683594 4.328125 14.59375 3.859375 Z M 14.59375 3.859375 "/>
<path style=" stroke:none;fill-rule:nonzero;fill:rgb(100%,100%,100%);fill-opacity:1;" d="M 0.429688 25.671875 L 2.527344 25.40625 C 2.582031 25.988281 2.757812 26.449219 3.0625 26.78125 C 3.367188 27.117188 3.703125 27.285156 4.066406 27.285156 C 4.496094 27.285156 4.867188 27.070312 5.179688 26.644531 C 5.488281 26.214844 5.644531 25.554688 5.644531 24.667969 C 5.644531 23.828125 5.488281 23.210938 5.179688 22.808594 C 4.875 22.40625 4.484375 22.207031 4.011719 22.207031 C 3.410156 22.207031 2.867188 22.53125 2.390625 23.183594 L 0.683594 22.882812 L 1.761719 15.925781 L 7.3125 15.925781 L 7.3125 18.324219 L 3.355469 18.324219 L 3.019531 20.59375 C 3.492188 20.308594 3.972656 20.164062 4.457031 20.164062 C 5.320312 20.164062 6.054688 20.503906 6.65625 21.1875 C 7.414062 22.054688 7.792969 23.199219 7.792969 24.621094 C 7.792969 25.792969 7.46875 26.875 6.820312 27.859375 C 6.175781 28.84375 5.25 29.335938 4.046875 29.335938 C 3.074219 29.335938 2.261719 29.019531 1.605469 28.386719 C 0.953125 27.75 0.5625 26.84375 0.429688 25.671875 Z M 0.429688 25.671875 "/>
<path style=" stroke:none;fill-rule:nonzero;fill:rgb(100%,100%,100%);fill-opacity:1;" d="M 14.492188 24.195312 L 14.492188 21.941406 L 19.261719 21.941406 L 19.261719 27.265625 C 18.78125 27.832031 18.097656 28.316406 17.21875 28.722656 C 16.335938 29.128906 15.453125 29.335938 14.566406 29.335938 C 13.484375 29.335938 12.53125 29.070312 11.703125 28.542969 C 10.878906 28.007812 10.222656 27.210938 9.734375 26.152344 C 9.253906 25.089844 9.015625 23.839844 9.015625 22.40625 C 9.015625 20.9375 9.257812 19.679688 9.746094 18.632812 C 10.238281 17.589844 10.871094 16.808594 11.648438 16.292969 C 12.433594 15.773438 13.367188 15.515625 14.457031 15.515625 C 15.761719 15.515625 16.808594 15.851562 17.59375 16.519531 C 18.382812 17.179688 18.890625 18.15625 19.113281 19.445312 L 16.925781 19.945312 C 16.761719 19.257812 16.460938 18.734375 16.023438 18.371094 C 15.585938 18.003906 15.0625 17.824219 14.457031 17.824219 C 13.515625 17.824219 12.753906 18.191406 12.167969 18.925781 C 11.585938 19.65625 11.292969 20.769531 11.292969 22.269531 C 11.292969 23.878906 11.609375 25.105469 12.242188 25.945312 C 12.78125 26.667969 13.515625 27.027344 14.4375 27.027344 C 14.871094 27.027344 15.316406 26.929688 15.777344 26.726562 C 16.246094 26.519531 16.664062 26.242188 17.027344 25.890625 L 17.027344 24.195312 Z M 14.492188 24.195312 "/>
</g>
</svg>
