<?xml version="1.0" encoding="UTF-8"?>
<svg xmlns="http://www.w3.org/2000/svg" xmlns:xlink="http://www.w3.org/1999/xlink" width="32" height="32" viewBox="0 0 32 32" version="1.1">
<g id="surface1">
<path style=" stroke:none;fill-rule:nonzero;fill:rgb(100%,100%,100%);fill-opacity:1;" d="M 20.667969 2.667969 C 22.058594 2.667969 23.378906 3.289062 24.265625 4.363281 C 25.152344 5.4375 25.511719 6.851562 25.25 8.21875 L 25.230469 8.304688 C 27.605469 9.097656 29.238281 11.28125 29.328125 13.785156 C 29.417969 16.285156 27.945312 18.582031 25.632812 19.542969 L 24.183594 28.21875 C 24.078125 28.863281 23.523438 29.332031 22.871094 29.332031 L 9.128906 29.332031 C 8.476562 29.332031 7.921875 28.863281 7.816406 28.21875 L 6.441406 19.992188 C 4.539062 19.882812 2.976562 18.449219 2.710938 16.5625 C 2.441406 14.675781 3.539062 12.859375 5.335938 12.226562 L 5.332031 12 C 5.332031 9.253906 6.738281 6.703125 9.058594 5.238281 C 11.378906 3.769531 14.289062 3.59375 16.765625 4.773438 C 17.628906 3.457031 19.09375 2.664062 20.667969 2.667969 Z M 14.667969 20 L 12 20 L 12 26.667969 L 14.667969 26.667969 Z M 20 20 L 17.332031 20 L 17.332031 26.667969 L 20 26.667969 Z M 23.332031 17.332031 C 24.679688 17.332031 25.898438 16.519531 26.414062 15.277344 C 26.929688 14.03125 26.644531 12.597656 25.691406 11.644531 C 24.738281 10.691406 23.304688 10.40625 22.058594 10.921875 L 21.824219 11.027344 C 20.546875 11.6875 18.976562 11.210938 18.273438 9.957031 L 18.179688 9.773438 C 17.3125 7.878906 15.417969 6.664062 13.332031 6.667969 C 10.476562 6.667969 8.144531 8.910156 8.007812 11.6875 L 8 11.953125 L 8.003906 12.179688 C 8.023438 13.25 7.402344 14.226562 6.421875 14.664062 L 6.222656 14.742188 C 5.613281 14.957031 5.246094 15.585938 5.355469 16.222656 C 5.464844 16.863281 6.019531 17.332031 6.667969 17.332031 Z M 23.332031 17.332031 "/>
</g>
</svg>
