<?xml version="1.0" encoding="UTF-8"?>
<svg xmlns="http://www.w3.org/2000/svg" xmlns:xlink="http://www.w3.org/1999/xlink" width="32" height="32" viewBox="0 0 32 32" version="1.1">
<g id="surface1">
<path style=" stroke:none;fill-rule:nonzero;fill:rgb(100%,100%,100%);fill-opacity:1;" d="M 26.113281 28 L 4 28 C 3.261719 28 2.667969 27.402344 2.667969 26.667969 L 2.667969 8 C 2.667969 7.261719 3.261719 6.667969 4 6.667969 L 4.78125 6.667969 L 1.855469 3.742188 L 3.742188 1.855469 L 30.144531 28.257812 L 28.257812 30.144531 Z M 10.074219 11.960938 C 7.210938 15.121094 7.332031 19.972656 10.347656 22.988281 C 13.363281 26.003906 18.214844 26.125 21.375 23.261719 L 19.484375 21.371094 C 17.371094 23.199219 14.203125 23.085938 12.226562 21.109375 C 10.25 19.128906 10.132812 15.960938 11.960938 13.847656 Z M 29.332031 23.714844 L 23.941406 18.320312 C 24.246094 15.871094 23.402344 13.417969 21.65625 11.675781 C 19.914062 9.929688 17.460938 9.089844 15.011719 9.394531 L 10.808594 5.1875 L 12 4 L 20 4 L 22.667969 6.667969 L 28 6.667969 C 28.738281 6.667969 29.332031 7.261719 29.332031 8 Z M 18.011719 12.390625 C 19.339844 12.933594 20.398438 13.992188 20.941406 15.320312 Z M 18.011719 12.390625 "/>
</g>
</svg>
