<?xml version="1.0" encoding="UTF-8"?>
<svg xmlns="http://www.w3.org/2000/svg" xmlns:xlink="http://www.w3.org/1999/xlink" width="32" height="32" viewBox="0 0 32 32" version="1.1">
<g id="surface1">
<path style=" stroke:none;fill-rule:nonzero;fill:rgb(100%,100%,100%);fill-opacity:1;" d="M 13.144531 26.28125 L 16 21.332031 L 6.761719 21.332031 C 8.160156 23.753906 10.449219 25.527344 13.144531 26.28125 Z M 5.667969 18.667969 L 11.382812 18.667969 L 6.761719 10.664062 C 5.820312 12.285156 5.328125 14.128906 5.332031 16 C 5.332031 16.921875 5.449219 17.8125 5.667969 18.667969 Z M 8.527344 8.390625 L 11.378906 13.332031 L 16 5.332031 C 13.203125 5.328125 10.519531 6.425781 8.527344 8.390625 Z M 18.855469 5.71875 L 16 10.667969 L 25.238281 10.667969 C 23.839844 8.246094 21.550781 6.472656 18.855469 5.71875 Z M 26.332031 13.332031 L 20.617188 13.332031 L 25.238281 21.335938 C 26.175781 19.714844 26.667969 17.875 26.667969 16 C 26.667969 15.078125 26.550781 14.1875 26.332031 13.332031 Z M 23.472656 23.609375 L 20.621094 18.667969 L 16 26.667969 C 18.796875 26.671875 21.480469 25.574219 23.472656 23.609375 Z M 16 29.332031 C 8.636719 29.332031 2.667969 23.363281 2.667969 16 C 2.667969 8.636719 8.636719 2.667969 16 2.667969 C 23.363281 2.667969 29.332031 8.636719 29.332031 16 C 29.332031 23.363281 23.363281 29.332031 16 29.332031 Z M 17.539062 13.332031 L 14.460938 13.332031 L 12.921875 16 L 14.460938 18.667969 L 17.539062 18.667969 L 19.078125 16 Z M 17.539062 13.332031 "/>
</g>
</svg>
