<?xml version="1.0" encoding="UTF-8"?>
<svg xmlns="http://www.w3.org/2000/svg" xmlns:xlink="http://www.w3.org/1999/xlink" width="32" height="32" viewBox="0 0 32 32" version="1.1">
<g id="surface1">
<path style=" stroke:none;fill-rule:nonzero;fill:rgb(100%,100%,100%);fill-opacity:1;" d="M 2.667969 8 C 2.667969 7.265625 3.273438 6.667969 3.988281 6.667969 L 28.011719 6.667969 C 28.742188 6.667969 29.332031 7.261719 29.332031 8 L 29.332031 26.667969 C 29.332031 27.402344 28.726562 28 28.011719 28 L 3.988281 28 C 3.636719 28 3.300781 27.859375 3.050781 27.609375 C 2.804688 27.359375 2.664062 27.019531 2.667969 26.667969 Z M 18.667969 24 C 22.347656 24 25.332031 21.015625 25.332031 17.332031 C 25.332031 13.652344 22.347656 10.667969 18.667969 10.667969 C 14.984375 10.667969 12 13.652344 12 17.332031 C 12 21.015625 14.984375 24 18.667969 24 Z M 5.332031 9.332031 L 5.332031 12 L 9.332031 12 L 9.332031 9.332031 Z M 5.332031 2.667969 L 13.332031 2.667969 L 13.332031 5.332031 L 5.332031 5.332031 Z M 5.332031 2.667969 "/>
</g>
</svg>
