<?xml version="1.0" encoding="UTF-8"?>
<svg xmlns="http://www.w3.org/2000/svg" xmlns:xlink="http://www.w3.org/1999/xlink" width="32" height="32" viewBox="0 0 32 32" version="1.1">
<g id="surface1">
<path style=" stroke:none;fill-rule:nonzero;fill:rgb(100%,100%,100%);fill-opacity:1;" d="M 25.332031 26.667969 L 6.667969 26.667969 L 6.667969 28 C 6.667969 28.738281 6.070312 29.332031 5.332031 29.332031 L 4 29.332031 C 3.261719 29.332031 2.667969 28.738281 2.667969 28 L 2.667969 14.667969 L 5.972656 6.949219 C 6.394531 5.96875 7.359375 5.332031 8.425781 5.332031 L 23.574219 5.332031 C 24.640625 5.332031 25.605469 5.96875 26.023438 6.949219 L 29.332031 14.667969 L 29.332031 28 C 29.332031 28.738281 28.738281 29.332031 28 29.332031 L 26.667969 29.332031 C 25.929688 29.332031 25.332031 28.738281 25.332031 28 Z M 26.667969 17.332031 L 5.332031 17.332031 L 5.332031 24 L 26.667969 24 Z M 5.566406 14.667969 L 26.433594 14.667969 L 23.574219 8 L 8.425781 8 L 5.570312 14.667969 Z M 8.667969 22.667969 C 7.5625 22.667969 6.667969 21.769531 6.667969 20.667969 C 6.667969 19.5625 7.5625 18.667969 8.667969 18.667969 C 9.769531 18.667969 10.667969 19.5625 10.667969 20.667969 C 10.667969 21.769531 9.769531 22.667969 8.667969 22.667969 Z M 23.332031 22.667969 C 22.230469 22.667969 21.332031 21.769531 21.332031 20.667969 C 21.332031 19.5625 22.230469 18.667969 23.332031 18.667969 C 24.4375 18.667969 25.332031 19.5625 25.332031 20.667969 C 25.332031 21.769531 24.4375 22.667969 23.332031 22.667969 Z M 23.332031 22.667969 "/>
</g>
</svg>
