<?xml version="1.0" encoding="UTF-8"?>
<svg xmlns="http://www.w3.org/2000/svg" xmlns:xlink="http://www.w3.org/1999/xlink" width="32" height="32" viewBox="0 0 32 32" version="1.1">
<g id="surface1">
<path style=" stroke:none;fill-rule:nonzero;fill:rgb(100%,100%,100%);fill-opacity:1;" d="M 1 0 L 1 4 L 5.148438 4 L 7.679688 19.1875 C 7.949219 20.808594 9.351562 22 11 22 L 25 22 C 26.640625 22 28.058594 20.851562 28.398438 19.246094 L 30.722656 8.34375 C 30.980469 7.136719 30.058594 6 28.824219 6 L 9.441406 6 L 8.363281 0 Z M 1 0 "/>
<path style=" stroke:none;fill-rule:evenodd;fill:rgb(100%,100%,100%);fill-opacity:1;" d="M 13.375 28 C 13.375 30.210938 11.582031 32 9.375 32 C 7.164062 32 5.375 30.210938 5.375 28 C 5.375 25.789062 7.164062 24 9.375 24 C 11.582031 24 13.375 25.789062 13.375 28 Z M 13.375 28 "/>
<path style=" stroke:none;fill-rule:evenodd;fill:rgb(100%,100%,100%);fill-opacity:1;" d="M 31 28 C 31 30.210938 29.207031 32 27 32 C 24.789062 32 23 30.210938 23 28 C 23 25.789062 24.789062 24 27 24 C 29.207031 24 31 25.789062 31 28 Z M 31 28 "/>
</g>
</svg>
