<?xml version="1.0" encoding="UTF-8"?>
<svg xmlns="http://www.w3.org/2000/svg" xmlns:xlink="http://www.w3.org/1999/xlink" width="32" height="32" viewBox="0 0 32 32" version="1.1">
<defs>
<filter id="alpha" filterUnits="objectBoundingBox" x="0%" y="0%" width="100%" height="100%">
  <feColorMatrix type="matrix" in="SourceGraphic" values="0 0 0 0 1 0 0 0 0 1 0 0 0 0 1 0 0 0 1 0"/>
</filter>
<mask id="mask0">
  <g filter="url(#alpha)">
<rect x="0" y="0" width="32" height="32" style="fill:rgb(100%,100%,100%);fill-opacity:0.992157;stroke:none;"/>
  </g>
</mask>
<clipPath id="clip1">
  <rect x="0" y="0" width="32" height="32"/>
</clipPath>
<g id="surface5" clip-path="url(#clip1)">
<path style=" stroke:none;fill-rule:evenodd;fill:rgb(100%,100%,100%);fill-opacity:1;" d="M 0 0 L 0 12 L 12 12 L 12 0 Z M 20.003906 2.378906 L 18.558594 3.101562 L 12.769531 5.992188 L 20.003906 9.609375 L 20.003906 8.003906 L 24.007812 8.003906 L 24.007812 12.003906 L 22.382812 12.003906 L 26 19.238281 L 29.617188 12.003906 L 28.007812 12.003906 L 28.007812 4 L 20.003906 4 Z M 20 20 L 20 32 L 32 32 L 32 20 Z M 22 22 L 30 22 L 30 30 L 22 30 Z M 22 22 "/>
</g>
</defs>
<g id="surface1">
<use xlink:href="#surface5" mask="url(#mask0)"/>
</g>
</svg>
