<?xml version="1.0" encoding="UTF-8"?>
<svg xmlns="http://www.w3.org/2000/svg" xmlns:xlink="http://www.w3.org/1999/xlink" width="32" height="32" viewBox="0 0 32 32" version="1.1">
<g id="surface1">
<path style=" stroke:none;fill-rule:nonzero;fill:rgb(100%,100%,100%);fill-opacity:1;" d="M 0.988281 2 C 0.4375 2.007812 -0.00390625 2.453125 0 3.003906 L 0 28.996094 C -0.00390625 29.546875 0.4375 29.992188 0.988281 30 L 30.996094 30 C 31.550781 30.003906 32.003906 29.550781 32 28.996094 C 32.003906 28.441406 31.550781 27.988281 30.996094 27.992188 L 1.992188 27.992188 L 1.992188 8 L 8 8 L 8 4 L 1.992188 4 L 1.992188 3.003906 C 1.996094 2.449219 1.542969 1.996094 0.988281 2 Z M 8 10 L 8 14 L 24 14 L 24 10 Z M 4 16 L 4 20 L 16 20 L 16 16 Z M 18 16 L 18 20 L 26 20 L 26 16 Z M 14 22 L 14 26 L 32 26 L 32 22 Z M 14 22 "/>
</g>
</svg>
