<?xml version="1.0" encoding="UTF-8"?>
<svg xmlns="http://www.w3.org/2000/svg" xmlns:xlink="http://www.w3.org/1999/xlink" width="32" height="32" viewBox="0 0 32 32" version="1.1">
<g id="surface1">
<path style=" stroke:none;fill-rule:nonzero;fill:rgb(100%,100%,100%);fill-opacity:1;" d="M 4 25.332031 L 4 5.332031 C 4 4.597656 4.597656 4 5.332031 4 L 17.332031 4 C 18.070312 4 18.667969 4.597656 18.667969 5.332031 L 18.667969 16 L 21.332031 16 C 22.804688 16 24 17.195312 24 18.667969 L 24 24 C 24 24.738281 24.597656 25.332031 25.332031 25.332031 C 26.070312 25.332031 26.667969 24.738281 26.667969 24 L 26.667969 14.667969 L 24 14.667969 C 23.261719 14.667969 22.667969 14.070312 22.667969 13.332031 L 22.667969 8.550781 L 20.457031 6.34375 L 22.34375 4.457031 L 28.941406 11.058594 C 29.191406 11.308594 29.332031 11.644531 29.332031 12 L 29.332031 24 C 29.332031 26.210938 27.542969 28 25.332031 28 C 23.125 28 21.332031 26.210938 21.332031 24 L 21.332031 18.667969 L 18.667969 18.667969 L 18.667969 25.332031 L 20 25.332031 L 20 28 L 2.667969 28 L 2.667969 25.332031 Z M 12 14.667969 L 12 9.332031 L 6.667969 17.332031 L 10.667969 17.332031 L 10.667969 22.667969 L 16 14.667969 Z M 12 14.667969 "/>
</g>
</svg>
