<?xml version="1.0" encoding="UTF-8"?>
<svg xmlns="http://www.w3.org/2000/svg" xmlns:xlink="http://www.w3.org/1999/xlink" width="32" height="32" viewBox="0 0 32 32" version="1.1">
<g id="surface1">
<path style=" stroke:none;fill-rule:nonzero;fill:rgb(100%,100%,100%);fill-opacity:1;" d="M 0.988281 2 C 0.441406 2.007812 -0.00390625 2.453125 0 3.003906 L 0 28.996094 C -0.00390625 29.546875 0.441406 29.992188 0.988281 30 L 30.996094 30 C 31.550781 30.003906 32.003906 29.550781 32 28.996094 C 32.003906 28.441406 31.550781 27.988281 30.996094 27.992188 L 1.992188 27.992188 L 1.992188 3.003906 C 1.996094 2.449219 1.542969 1.996094 0.988281 2 Z M 0.988281 2 "/>
<path style=" stroke:none;fill-rule:evenodd;fill:rgb(100%,100%,100%);fill-opacity:1;" d="M 14 4 L 14 6 L 16 6 L 16 10 L 14 10 L 14 16 L 16 16 L 16 20 L 14 20 L 14 22 L 20 22 L 20 20 L 18 20 L 18 16 L 20 16 L 20 10 L 18 10 L 18 6 L 20 6 L 20 4 Z M 24 4 L 24 6 L 26 6 L 26 10 L 24 10 L 24 20 L 26 20 L 26 24 L 24 24 L 24 26 L 30 26 L 30 24 L 28 24 L 28 20 L 30 20 L 30 10 L 28 10 L 28 6 L 30 6 L 30 4 Z M 4 6 L 4 8 L 6 8 L 6 12 L 4 12 L 4 20 L 6 20 L 6 24 L 4 24 L 4 26 L 10 26 L 10 24 L 8 24 L 8 20 L 10 20 L 10 12 L 8 12 L 8 8 L 10 8 L 10 6 Z M 4 6 "/>
</g>
</svg>
