<?xml version="1.0" encoding="UTF-8"?>
<svg xmlns="http://www.w3.org/2000/svg" xmlns:xlink="http://www.w3.org/1999/xlink" width="32" height="32" viewBox="0 0 32 32" version="1.1">
<g id="surface1">
<path style=" stroke:none;fill-rule:nonzero;fill:rgb(100%,100%,100%);fill-opacity:1;" d="M 2.667969 16 C 2.667969 8.636719 8.636719 2.667969 16 2.667969 C 23.363281 2.667969 29.332031 8.636719 29.332031 16 C 29.332031 23.363281 23.363281 29.332031 16 29.332031 L 2.667969 29.332031 L 6.570312 25.429688 C 4.066406 22.929688 2.664062 19.535156 2.667969 16 Z M 9.105469 26.667969 L 16 26.667969 C 21.890625 26.667969 26.667969 21.890625 26.667969 16 C 26.667969 10.109375 21.890625 5.332031 16 5.332031 C 10.109375 5.332031 5.332031 10.109375 5.332031 16 C 5.332031 18.871094 6.46875 21.554688 8.457031 23.542969 L 10.34375 25.429688 Z M 14.667969 8 L 17.332031 8 L 17.332031 24 L 14.667969 24 Z M 9.332031 12 L 12 12 L 12 20 L 9.332031 20 Z M 20 12 L 22.667969 12 L 22.667969 20 L 20 20 Z M 20 12 "/>
</g>
</svg>
