<?xml version="1.0" encoding="UTF-8"?>
<svg xmlns="http://www.w3.org/2000/svg" xmlns:xlink="http://www.w3.org/1999/xlink" width="32" height="32" viewBox="0 0 32 32" version="1.1">
<g id="surface1">
<path style=" stroke:none;fill-rule:nonzero;fill:rgb(100%,100%,100%);fill-opacity:1;" d="M 13.332031 4 L 18.667969 4 C 24.558594 4 29.332031 8.777344 29.332031 14.667969 C 29.332031 20.558594 24.558594 25.332031 18.667969 25.332031 L 18.667969 30 C 12 27.332031 2.667969 23.332031 2.667969 14.667969 C 2.667969 8.777344 7.441406 4 13.332031 4 Z M 16 22.667969 L 18.667969 22.667969 C 23.085938 22.667969 26.667969 19.085938 26.667969 14.667969 C 26.667969 10.25 23.085938 6.667969 18.667969 6.667969 L 13.332031 6.667969 C 8.914062 6.667969 5.332031 10.25 5.332031 14.667969 C 5.332031 19.480469 8.617188 22.621094 16 25.972656 Z M 16 22.667969 "/>
</g>
</svg>
