<?xml version="1.0" encoding="UTF-8"?>
<svg xmlns="http://www.w3.org/2000/svg" xmlns:xlink="http://www.w3.org/1999/xlink" width="32" height="32" viewBox="0 0 32 32" version="1.1">
<g id="surface1">
<path style=" stroke:none;fill-rule:nonzero;fill:rgb(100%,100%,100%);fill-opacity:1;" d="M 16.007812 22.800781 L 28.363281 11.832031 C 28.664062 11.566406 28.847656 11.195312 28.875 10.796875 C 28.898438 10.394531 28.761719 10.003906 28.496094 9.703125 C 28.230469 9.40625 27.859375 9.226562 27.460938 9.203125 C 27.058594 9.179688 26.667969 9.320312 26.371094 9.585938 L 16.007812 18.785156 L 5.628906 9.585938 C 5.332031 9.320312 4.941406 9.179688 4.539062 9.203125 C 4.140625 9.226562 3.769531 9.40625 3.503906 9.703125 C 3.238281 10.003906 3.101562 10.394531 3.125 10.796875 C 3.152344 11.195312 3.335938 11.566406 3.636719 11.832031 Z M 16.007812 22.800781 "/>
</g>
</svg>
