<?xml version="1.0" encoding="UTF-8"?>
<svg xmlns="http://www.w3.org/2000/svg" xmlns:xlink="http://www.w3.org/1999/xlink" width="32" height="32" viewBox="0 0 32 32" version="1.1">
<g id="surface1">
<path style=" stroke:none;fill-rule:nonzero;fill:rgb(100%,100%,100%);fill-opacity:1;" d="M 15.992188 9.199219 L 3.636719 20.167969 C 3.335938 20.433594 3.152344 20.804688 3.125 21.203125 C 3.101562 21.605469 3.238281 21.996094 3.503906 22.296875 C 3.769531 22.59375 4.140625 22.773438 4.539062 22.796875 C 4.941406 22.820312 5.332031 22.679688 5.628906 22.414062 L 15.992188 13.214844 L 26.371094 22.414062 C 26.667969 22.679688 27.058594 22.820312 27.460938 22.796875 C 27.859375 22.773438 28.230469 22.59375 28.496094 22.296875 C 28.761719 21.996094 28.898438 21.605469 28.875 21.203125 C 28.847656 20.804688 28.664062 20.433594 28.363281 20.167969 Z M 15.992188 9.199219 "/>
</g>
</svg>
