<?xml version="1.0" encoding="UTF-8"?>
<svg xmlns="http://www.w3.org/2000/svg" xmlns:xlink="http://www.w3.org/1999/xlink" width="32" height="32" viewBox="0 0 32 32" version="1.1">
<g id="surface1">
<path style=" stroke:none;fill-rule:nonzero;fill:rgb(100%,100%,100%);fill-opacity:1;" d="M 14.667969 26.667969 L 14.667969 17.332031 L 12 17.332031 L 12 13.332031 L 20 13.332031 L 20 17.332031 L 17.332031 17.332031 L 17.332031 26.667969 L 24 26.667969 L 24 29.332031 L 8 29.332031 L 8 26.667969 Z M 13.332031 2.964844 L 13.332031 1.332031 L 18.667969 1.332031 L 18.667969 2.964844 C 23.339844 4.03125 26.933594 7.777344 27.800781 12.496094 C 28.667969 17.210938 26.644531 21.992188 22.65625 24.652344 L 21.175781 22.433594 C 24.597656 20.152344 26.125 15.898438 24.933594 11.964844 C 23.738281 8.027344 20.113281 5.335938 16 5.335938 C 11.886719 5.335938 8.257812 8.027344 7.066406 11.964844 C 5.875 15.898438 7.398438 20.152344 10.820312 22.433594 L 9.34375 24.652344 C 5.355469 21.992188 3.332031 17.210938 4.199219 12.496094 C 5.066406 7.777344 8.660156 4.03125 13.332031 2.964844 Z M 13.332031 2.964844 "/>
</g>
</svg>
