<?xml version="1.0" encoding="UTF-8"?>
<svg xmlns="http://www.w3.org/2000/svg" xmlns:xlink="http://www.w3.org/1999/xlink" width="32" height="32" viewBox="0 0 32 32" version="1.1">
<g id="surface1">
<path style=" stroke:none;fill-rule:nonzero;fill:rgb(100%,100%,100%);fill-opacity:1;" d="M 26.667969 14.113281 L 29.105469 11.675781 L 30.992188 13.5625 L 25.332031 19.21875 L 19.675781 13.5625 L 21.5625 11.675781 L 24 14.113281 L 24 10.667969 C 24 8.457031 22.210938 6.667969 20 6.667969 L 14.667969 6.667969 L 14.667969 4 L 20 4 C 23.683594 4 26.667969 6.984375 26.667969 10.667969 Z M 17.332031 12 C 18.070312 12 18.667969 12.597656 18.667969 13.332031 L 18.667969 26.667969 C 18.667969 27.402344 18.070312 28 17.332031 28 L 4 28 C 3.261719 28 2.667969 27.402344 2.667969 26.667969 L 2.667969 13.332031 C 2.667969 12.597656 3.261719 12 4 12 Z M 16 14.667969 L 5.332031 14.667969 L 5.332031 25.332031 L 16 25.332031 Z M 16 14.667969 "/>
</g>
</svg>
