<?xml version="1.0" encoding="UTF-8"?>
<svg xmlns="http://www.w3.org/2000/svg" xmlns:xlink="http://www.w3.org/1999/xlink" width="32" height="32" viewBox="0 0 32 32" version="1.1">
<g id="surface1">
<path style=" stroke:none;fill-rule:nonzero;fill:rgb(100%,100%,100%);fill-opacity:1;" d="M 18.667969 24 L 18.667969 21.332031 L 23.332031 21.332031 C 25.453125 21.332031 27.304688 19.90625 27.84375 17.859375 C 28.386719 15.8125 27.480469 13.65625 25.640625 12.609375 C 23.796875 11.5625 21.484375 11.886719 20 13.398438 L 20 13.332031 C 20 8.914062 16.417969 5.332031 12 5.332031 C 7.582031 5.332031 4 8.914062 4 13.332031 L 4 13.34375 L 1.332031 13.34375 L 1.332031 13.332031 C 1.328125 8.199219 4.984375 3.789062 10.03125 2.839844 C 15.078125 1.894531 20.085938 4.675781 21.945312 9.464844 C 24.679688 8.9375 27.476562 10.007812 29.164062 12.226562 C 30.851562 14.441406 31.136719 17.425781 29.902344 19.921875 C 28.664062 22.417969 26.121094 24 23.332031 24 Z M 8 26.667969 L 21.332031 26.667969 L 21.332031 29.332031 L 8 29.332031 Z M 8 16 L 18.667969 16 L 18.667969 18.667969 L 8 18.667969 Z M 2.667969 21.332031 L 16 21.332031 L 16 24 L 2.667969 24 Z M 2.667969 21.332031 "/>
</g>
</svg>
