<?xml version="1.0" encoding="UTF-8"?>
<svg xmlns="http://www.w3.org/2000/svg" xmlns:xlink="http://www.w3.org/1999/xlink" width="32" height="32" viewBox="0 0 32 32" version="1.1">
<defs>
<filter id="alpha" filterUnits="objectBoundingBox" x="0%" y="0%" width="100%" height="100%">
  <feColorMatrix type="matrix" in="SourceGraphic" values="0 0 0 0 1 0 0 0 0 1 0 0 0 0 1 0 0 0 1 0"/>
</filter>
<mask id="mask0">
  <g filter="url(#alpha)">
<rect x="0" y="0" width="32" height="32" style="fill:rgb(100%,100%,100%);fill-opacity:0.996078;stroke:none;"/>
  </g>
</mask>
<clipPath id="clip1">
  <rect x="0" y="0" width="32" height="32"/>
</clipPath>
<g id="surface5" clip-path="url(#clip1)">
<path style=" stroke:none;fill-rule:evenodd;fill:rgb(100%,100%,100%);fill-opacity:1;" d="M 18.800781 6 C 16.277344 6 13.976562 7.703125 12.878906 10.386719 C 12.136719 10.058594 11.355469 9.890625 10.570312 9.890625 C 7.816406 9.890625 5.355469 11.917969 4.398438 14.964844 C 1.941406 15.160156 0.0351562 17.566406 0.0351562 20.472656 C 0.03125 23.527344 2.125 26 4.710938 26 C 4.726562 26 4.742188 26 4.753906 26 L 25.964844 26 C 25.96875 26 25.972656 26 25.972656 26 C 29.285156 26 31.96875 22.828125 31.964844 18.917969 C 31.96875 15.007812 29.285156 11.835938 25.972656 11.835938 C 25.710938 11.835938 25.445312 11.859375 25.183594 11.898438 C 24.453125 8.433594 21.820312 6 18.800781 6 Z M 18.800781 6 "/>
</g>
</defs>
<g id="surface1">
<use xlink:href="#surface5" mask="url(#mask0)"/>
</g>
</svg>
