<?xml version="1.0" encoding="UTF-8"?>
<svg xmlns="http://www.w3.org/2000/svg" xmlns:xlink="http://www.w3.org/1999/xlink" width="32" height="32" viewBox="0 0 32 32" version="1.1">
<g id="surface1">
<path style=" stroke:none;fill-rule:nonzero;fill:rgb(100%,100%,100%);fill-opacity:1;" d="M 4.6875 2.800781 L 30.144531 28.257812 L 28.257812 30.144531 L 25.570312 27.457031 C 24.644531 27.816406 23.660156 28 22.667969 28 L 9.332031 28 C 5.433594 28.003906 2.097656 25.191406 1.441406 21.347656 C 0.785156 17.503906 2.996094 13.746094 6.675781 12.453125 C 6.621094 11.292969 6.78125 10.132812 7.148438 9.035156 L 2.800781 4.683594 Z M 9.332031 12 C 9.332031 12.109375 9.335938 12.21875 9.339844 12.324219 L 9.433594 14.308594 L 7.5625 14.964844 C 5.113281 15.832031 3.644531 18.335938 4.082031 20.894531 C 4.519531 23.457031 6.734375 25.328125 9.332031 25.332031 L 22.667969 25.332031 C 22.914062 25.332031 23.160156 25.316406 23.398438 25.285156 L 9.375 11.261719 C 9.347656 11.503906 9.332031 11.75 9.332031 12 Z M 16 2.667969 C 18.554688 2.667969 20.996094 3.714844 22.757812 5.5625 C 24.519531 7.410156 25.445312 9.902344 25.324219 12.453125 C 27.566406 13.242188 29.339844 14.988281 30.167969 17.214844 C 30.992188 19.441406 30.789062 21.925781 29.605469 23.984375 L 27.613281 21.996094 C 28.417969 20.011719 27.953125 17.738281 26.441406 16.226562 C 24.925781 14.710938 22.65625 14.25 20.671875 15.054688 L 18.679688 13.058594 C 19.855469 12.386719 21.214844 12 22.667969 12 C 22.667969 9.511719 21.28125 7.230469 19.074219 6.082031 C 16.863281 4.9375 14.199219 5.117188 12.164062 6.546875 L 10.257812 4.640625 C 11.898438 3.359375 13.917969 2.664062 16 2.667969 Z M 16 2.667969 "/>
</g>
</svg>
