<?xml version="1.0" encoding="UTF-8"?>
<svg xmlns="http://www.w3.org/2000/svg" xmlns:xlink="http://www.w3.org/1999/xlink" width="32" height="32" viewBox="0 0 32 32" version="1.1">
<g id="surface1">
<path style=" stroke:none;fill-rule:nonzero;fill:rgb(100%,100%,100%);fill-opacity:1;" d="M 10.039062 4 C 9.421875 3.992188 8.832031 4.269531 8.445312 4.753906 L 0.441406 14.75 C -0.140625 15.480469 -0.140625 16.515625 0.441406 17.242188 L 8.445312 27.253906 C 9.136719 28.113281 10.390625 28.25 11.25 27.5625 C 11.667969 27.230469 11.933594 26.746094 11.992188 26.21875 C 12.050781 25.6875 11.894531 25.160156 11.558594 24.742188 L 4.5625 16.003906 L 11.558594 7.25 C 12.246094 6.386719 12.109375 5.132812 11.25 4.445312 C 10.90625 4.167969 10.480469 4.011719 10.039062 4 Z M 10.039062 4 "/>
<path style=" stroke:none;fill-rule:nonzero;fill:rgb(100%,100%,100%);fill-opacity:1;" d="M 21.835938 4 C 21.441406 4.039062 21.066406 4.191406 20.757812 4.445312 C 19.894531 5.128906 19.75 6.382812 20.433594 7.25 L 27.445312 16.003906 L 20.433594 24.742188 C 20.101562 25.160156 19.949219 25.691406 20.007812 26.222656 C 20.070312 26.75 20.339844 27.234375 20.757812 27.5625 C 21.617188 28.25 22.871094 28.113281 23.5625 27.253906 L 31.566406 17.242188 C 32.148438 16.515625 32.148438 15.480469 31.566406 14.75 L 23.5625 4.753906 C 23.148438 4.230469 22.5 3.949219 21.835938 4 Z M 21.835938 4 "/>
</g>
</svg>
