<?xml version="1.0" encoding="UTF-8"?>
<svg xmlns="http://www.w3.org/2000/svg" xmlns:xlink="http://www.w3.org/1999/xlink" width="32" height="32" viewBox="0 0 32 32" version="1.1">
<g id="surface1">
<path style=" stroke:none;fill-rule:nonzero;fill:rgb(100%,100%,100%);fill-opacity:1;" d="M 4 12 C 2.894531 12 2 12.894531 2 14 L 2 28 C 2 30.210938 3.789062 32 6 32 L 18 32 C 19.429688 32 20.746094 31.238281 21.460938 30 L 26 30 C 28.214844 30 30 28.214844 30 26 L 30 18 C 30 15.785156 28.214844 14 26 14 L 22 14 C 22 12.894531 21.105469 12 20 12 Z M 22 18 L 24 18 C 25.109375 18 26 18.890625 26 20 L 26 24 C 26 25.109375 25.109375 26 24 26 L 22 26 Z M 22 18 "/>
<path style=" stroke:none;fill-rule:evenodd;fill:rgb(100%,100%,100%);fill-opacity:1;" d="M 11.683594 3.882812 C 11.683594 3.097656 11.214844 2.507812 10.636719 1.949219 C 10.058594 1.390625 9.273438 0.792969 8.246094 0 L 7.136719 1.433594 C 8.164062 2.226562 8.933594 2.8125 9.382812 3.246094 C 9.832031 3.679688 9.867188 3.878906 9.867188 3.882812 C 9.867188 3.886719 9.832031 4.082031 9.382812 4.515625 C 8.933594 4.949219 8.164062 5.539062 7.136719 6.332031 C 6.109375 7.125 5.339844 7.722656 4.761719 8.28125 C 4.183594 8.839844 3.710938 9.429688 3.710938 10.214844 C 3.710938 11 4.183594 11.589844 4.761719 12.148438 C 5.339844 12.707031 6.109375 13.304688 7.136719 14.097656 L 8.246094 12.667969 C 7.21875 11.875 6.449219 11.285156 6 10.851562 C 5.550781 10.417969 5.511719 10.21875 5.511719 10.214844 C 5.511719 10.210938 5.550781 10.015625 6 9.582031 C 6.449219 9.148438 7.21875 8.558594 8.246094 7.765625 C 9.273438 6.972656 10.058594 6.375 10.636719 5.816406 C 11.214844 5.257812 11.683594 4.667969 11.683594 3.882812 Z M 11.683594 3.882812 "/>
<path style=" stroke:none;fill-rule:evenodd;fill:rgb(100%,100%,100%);fill-opacity:1;" d="M 16.828125 3.882812 C 16.828125 3.097656 16.359375 2.507812 15.78125 1.949219 C 15.203125 1.390625 14.417969 0.792969 13.390625 0 L 12.28125 1.433594 C 13.308594 2.226562 14.078125 2.8125 14.527344 3.246094 C 14.976562 3.679688 15.011719 3.878906 15.011719 3.882812 C 15.011719 3.886719 14.976562 4.082031 14.527344 4.515625 C 14.078125 4.949219 13.308594 5.539062 12.28125 6.332031 C 11.253906 7.125 10.484375 7.722656 9.90625 8.28125 C 9.328125 8.839844 8.855469 9.429688 8.855469 10.214844 C 8.855469 11 9.328125 11.589844 9.90625 12.148438 C 10.484375 12.707031 11.253906 13.304688 12.28125 14.097656 L 13.390625 12.667969 C 12.363281 11.875 11.59375 11.285156 11.144531 10.851562 C 10.695312 10.417969 10.65625 10.21875 10.65625 10.214844 C 10.65625 10.210938 10.695312 10.015625 11.144531 9.582031 C 11.59375 9.148438 12.363281 8.558594 13.390625 7.765625 C 14.417969 6.972656 15.203125 6.375 15.78125 5.816406 C 16.359375 5.257812 16.828125 4.667969 16.828125 3.882812 Z M 16.828125 3.882812 "/>
<path style=" stroke:none;fill-rule:evenodd;fill:rgb(100%,100%,100%);fill-opacity:1;" d="M 21.972656 3.882812 C 21.972656 3.097656 21.503906 2.507812 20.925781 1.949219 C 20.347656 1.390625 19.5625 0.792969 18.535156 0 L 17.425781 1.433594 C 18.453125 2.226562 19.222656 2.8125 19.671875 3.246094 C 20.121094 3.679688 20.15625 3.878906 20.15625 3.882812 C 20.15625 3.886719 20.121094 4.082031 19.671875 4.515625 C 19.222656 4.949219 18.453125 5.539062 17.425781 6.332031 C 16.398438 7.125 15.628906 7.722656 15.050781 8.28125 C 14.472656 8.839844 14 9.429688 14 10.214844 C 14 11 14.472656 11.589844 15.050781 12.148438 C 15.628906 12.707031 16.398438 13.304688 17.425781 14.097656 L 18.535156 12.667969 C 17.507812 11.875 16.738281 11.285156 16.289062 10.851562 C 15.839844 10.417969 15.800781 10.21875 15.800781 10.214844 C 15.800781 10.210938 15.839844 10.015625 16.289062 9.582031 C 16.738281 9.148438 17.507812 8.558594 18.535156 7.765625 C 19.5625 6.972656 20.347656 6.375 20.925781 5.816406 C 21.503906 5.257812 21.972656 4.667969 21.972656 3.882812 Z M 21.972656 3.882812 "/>
</g>
</svg>
