<?xml version="1.0" encoding="UTF-8"?>
<svg xmlns="http://www.w3.org/2000/svg" xmlns:xlink="http://www.w3.org/1999/xlink" width="32" height="32" viewBox="0 0 32 32" version="1.1">
<g id="surface1">
<path style=" stroke:none;fill-rule:evenodd;fill:rgb(100%,100%,100%);fill-opacity:1;" d="M 0.00390625 0 L 0.00390625 32 L 30.003906 32 L 30.003906 26 L 23.949219 26 C 24.5625 26.003906 25.046875 24.6875 25 24.105469 L 24.300781 16 L 25.398438 16 L 26.417969 23.714844 C 26.535156 24.539062 27.0625 24.90625 27.882812 24.78125 C 28.703125 24.65625 28.816406 24.09375 28.691406 23.273438 L 27.480469 15.269531 C 27.367188 14.539062 26.742188 14.003906 26.003906 14 L 10.691406 14 C 10 14 10 16 10.691406 16 L 11.707031 16 L 11.007812 24.105469 C 10.960938 24.6875 11.445312 26.003906 12.058594 26 L 8.003906 26 C 6.898438 26 6.003906 25.105469 6.003906 24 L 6.003906 8 C 6.003906 6.894531 6.898438 6 8.003906 6 L 13.011719 6 L 13.011719 11 C 13.007812 11.550781 13.449219 11.996094 14 12.003906 L 22 12.003906 C 22.558594 12.007812 23.011719 11.558594 23.007812 11 L 23.007812 10.011719 L 31.996094 10.011719 L 31.996094 8 L 23.007812 8 L 23.007812 6 L 26.003906 6 L 26.003906 4 C 26.003906 1.789062 24.214844 0 22.003906 0 Z M 15.003906 8 L 20.996094 8 L 20.996094 10.011719 L 15.003906 10.011719 Z M 13.375 16 L 22.632812 16 L 23.003906 22 L 13.003906 22 Z M 13.375 16 "/>
</g>
</svg>
