<?xml version="1.0" encoding="UTF-8"?>
<svg xmlns="http://www.w3.org/2000/svg" xmlns:xlink="http://www.w3.org/1999/xlink" width="32" height="32" viewBox="0 0 32 32" version="1.1">
<g id="surface1">
<path style=" stroke:none;fill-rule:nonzero;fill:rgb(100%,100%,100%);fill-opacity:1;" d="M 18.667969 2.667969 C 23.695312 2.664062 28.042969 6.171875 29.097656 11.089844 C 30.15625 16.003906 27.640625 20.992188 23.054688 23.058594 C 21.101562 27.378906 16.527344 29.890625 11.832031 29.222656 C 7.136719 28.550781 3.445312 24.863281 2.777344 20.167969 C 2.109375 15.472656 4.621094 10.898438 8.941406 8.941406 C 10.667969 5.121094 14.472656 2.667969 18.667969 2.667969 Z M 13.332031 10.667969 C 8.914062 10.667969 5.332031 14.25 5.332031 18.667969 C 5.332031 23.085938 8.914062 26.667969 13.332031 26.667969 C 17.75 26.667969 21.332031 23.085938 21.332031 18.667969 C 21.332031 14.25 17.75 10.667969 13.332031 10.667969 Z M 14.667969 12 L 14.667969 13.332031 L 17.332031 13.332031 L 17.332031 16 L 12 16 C 11.65625 16 11.367188 16.261719 11.335938 16.605469 C 11.304688 16.949219 11.539062 17.261719 11.878906 17.324219 L 12 17.332031 L 14.667969 17.332031 C 16.507812 17.332031 18 18.824219 18 20.667969 C 18 22.507812 16.507812 24 14.667969 24 L 14.667969 25.332031 L 12 25.332031 L 12 24 L 9.332031 24 L 9.332031 21.332031 L 14.667969 21.332031 C 15.011719 21.332031 15.300781 21.070312 15.332031 20.726562 C 15.363281 20.382812 15.125 20.070312 14.785156 20.011719 L 14.667969 20 L 12 20 C 10.160156 20 8.667969 18.507812 8.667969 16.667969 C 8.667969 14.824219 10.160156 13.332031 12 13.332031 L 12 12 Z M 18.667969 5.332031 C 16.382812 5.332031 14.203125 6.308594 12.6875 8.015625 C 15.738281 7.832031 18.71875 8.960938 20.878906 11.121094 C 23.035156 13.28125 24.167969 16.261719 23.980469 19.3125 C 26.464844 17.105469 27.324219 13.59375 26.144531 10.492188 C 24.964844 7.386719 21.988281 5.332031 18.667969 5.332031 Z M 18.667969 5.332031 "/>
</g>
</svg>
