<?xml version="1.0" encoding="UTF-8"?>
<svg xmlns="http://www.w3.org/2000/svg" xmlns:xlink="http://www.w3.org/1999/xlink" width="32" height="32" viewBox="0 0 32 32" version="1.1">
<g id="surface1">
<path style=" stroke:none;fill-rule:evenodd;fill:rgb(100%,100%,100%);fill-opacity:1;" d="M 18.75 0.222656 C 15.132812 -0.410156 11.304688 0.199219 8.046875 2.140625 C 1.414062 5.804688 -1.707031 14.148438 0.902344 21.261719 C 3.277344 28.460938 10.921875 33.070312 18.394531 31.816406 C 26.113281 30.785156 32.117188 23.773438 31.976562 15.988281 C 31.984375 12.210938 30.625 8.511719 28.167969 5.640625 C 25.757812 2.714844 22.367188 0.851562 18.75 0.222656 Z M 18.054688 4.222656 C 20.792969 4.699219 23.371094 6.070312 25.113281 8.195312 C 25.121094 8.203125 25.132812 8.214844 25.144531 8.222656 C 26.96875 10.355469 28.015625 13.183594 28.007812 15.988281 C 28.007812 16.003906 28.007812 16.019531 28.007812 16.035156 C 28.121094 21.667969 23.421875 27.132812 17.835938 27.859375 C 17.804688 27.863281 17.777344 27.867188 17.746094 27.875 C 12.335938 28.792969 6.386719 25.195312 4.679688 19.976562 C 4.671875 19.957031 4.660156 19.9375 4.652344 19.917969 C 2.75 14.765625 5.179688 8.25 9.996094 5.609375 C 10.019531 5.597656 10.042969 5.582031 10.070312 5.566406 C 12.425781 4.15625 15.320312 3.746094 18.054688 4.222656 Z M 18.054688 4.222656 "/>
<path style=" stroke:none;fill-rule:nonzero;fill:rgb(100%,100%,100%);fill-opacity:1;" d="M 22.632812 6 L 11.832031 13.234375 L 9.367188 26 L 20.167969 18.765625 Z M 22.632812 6 "/>
</g>
</svg>
