<?xml version="1.0" encoding="UTF-8"?>
<svg xmlns="http://www.w3.org/2000/svg" xmlns:xlink="http://www.w3.org/1999/xlink" width="32" height="32" viewBox="0 0 32 32" version="1.1">
<g id="surface1">
<path style=" stroke:none;fill-rule:nonzero;fill:rgb(100%,100%,100%);fill-opacity:1;" d="M 21.902344 2 C 19.730469 2.054688 18 3.828125 18 6 C 18 8.210938 19.789062 10 22 10 C 23.429688 10 24.746094 9.238281 25.460938 8 L 31.988281 8 L 31.992188 3.992188 L 25.457031 3.992188 C 24.742188 2.761719 23.425781 2 22 2 C 21.96875 2 21.933594 2 21.902344 2 Z M 16.71875 7.390625 L 11.320312 12.226562 C 10.894531 12.078125 10.449219 12 10 12 C 8.574219 12 7.253906 12.761719 6.539062 13.996094 L 0 13.996094 L 0 17.996094 L 6.535156 17.996094 C 7.25 19.234375 8.570312 20 10 20 C 12.210938 20 14 18.210938 14 16 C 14 15.714844 13.96875 15.429688 13.90625 15.148438 L 19.082031 10.609375 Z M 22 22 C 19.789062 22 18 23.789062 18 26 C 18 28.210938 19.789062 30 22 30 C 23.429688 30 24.75 29.238281 25.464844 28 L 31.992188 28 L 31.988281 24 L 25.464844 24 C 24.75 22.761719 23.429688 22 22 22 Z M 22 22 "/>
</g>
</svg>
