<?xml version="1.0" encoding="UTF-8"?>
<svg xmlns="http://www.w3.org/2000/svg" xmlns:xlink="http://www.w3.org/1999/xlink" width="32" height="32" viewBox="0 0 32 32" version="1.1">
<g id="surface1">
<path style=" stroke:none;fill-rule:nonzero;fill:rgb(100%,100%,100%);fill-opacity:1;" d="M 0.988281 1.996094 C 0.789062 1.996094 0.59375 2.058594 0.429688 2.175781 C 0.398438 2.195312 0.367188 2.222656 0.335938 2.25 C 0.125 2.433594 0.00390625 2.703125 0 2.984375 L 0 16.964844 C -0.00390625 17.304688 0.160156 17.621094 0.441406 17.808594 L 18.449219 29.839844 C 18.648438 29.972656 18.890625 30.027344 19.128906 30 L 30.996094 30 C 31.550781 30 32.003906 29.550781 32 28.996094 L 31.992188 15.023438 C 31.992188 15.011719 31.992188 15 31.992188 14.988281 C 31.992188 14.90625 31.984375 14.828125 31.964844 14.753906 C 31.957031 14.714844 31.945312 14.675781 31.929688 14.640625 C 31.875 14.488281 31.78125 14.355469 31.664062 14.25 C 31.597656 14.1875 31.527344 14.136719 31.449219 14.097656 L 13.554688 2.160156 C 13.386719 2.046875 13.191406 1.992188 12.992188 1.996094 L 1.007812 1.996094 C 1 1.992188 0.996094 1.992188 0.988281 1.996094 Z M 4.296875 3.988281 L 12.695312 3.988281 L 27.695312 13.984375 L 19.277344 13.984375 Z M 19.988281 15.992188 L 23.992188 15.992188 L 24 27.992188 L 19.996094 27.992188 Z M 26 15.992188 L 30 15.992188 L 30.007812 27.992188 L 26.007812 27.992188 Z M 26 15.992188 "/>
<path style=" stroke:none;fill-rule:nonzero;fill:rgb(100%,100%,100%);fill-opacity:1;" d="M 21.996094 21.992188 L 21.996094 23.992188 L 27.996094 23.992188 L 27.996094 21.992188 Z M 21.996094 21.992188 "/>
</g>
</svg>
