<?xml version="1.0" encoding="UTF-8"?>
<svg xmlns="http://www.w3.org/2000/svg" xmlns:xlink="http://www.w3.org/1999/xlink" width="32" height="32" viewBox="0 0 32 32" version="1.1">
<g id="surface1">
<path style=" stroke:none;fill-rule:nonzero;fill:rgb(100%,100%,100%);fill-opacity:1;" d="M 4 2.667969 L 25.339844 2.667969 C 26.808594 2.667969 28 3.863281 28 5.320312 L 28 26.679688 C 28 28.144531 26.808594 29.332031 25.339844 29.332031 L 4 29.332031 Z M 9.332031 5.332031 L 6.667969 5.332031 L 6.667969 26.667969 L 9.332031 26.667969 Z M 12 26.667969 L 25.332031 26.667969 L 25.332031 5.332031 L 12 5.332031 Z M 14.667969 21.332031 C 14.667969 19.125 16.457031 17.332031 18.667969 17.332031 C 20.875 17.332031 22.667969 19.125 22.667969 21.332031 Z M 18.667969 16 C 17.195312 16 16 14.804688 16 13.332031 C 16 11.859375 17.195312 10.667969 18.667969 10.667969 C 20.140625 10.667969 21.332031 11.859375 21.332031 13.332031 C 21.332031 14.804688 20.140625 16 18.667969 16 Z M 29.332031 8 L 32 8 L 32 13.332031 L 29.332031 13.332031 Z M 29.332031 16 L 32 16 L 32 21.332031 L 29.332031 21.332031 Z M 29.332031 16 "/>
</g>
</svg>
