<?xml version="1.0" encoding="UTF-8"?>
<svg xmlns="http://www.w3.org/2000/svg" xmlns:xlink="http://www.w3.org/1999/xlink" width="32" height="32" viewBox="0 0 32 32" version="1.1">
<g id="surface1">
<path style=" stroke:none;fill-rule:nonzero;fill:rgb(100%,100%,100%);fill-opacity:1;" d="M 13.332031 28 L 4 28 C 3.261719 28 2.667969 27.402344 2.667969 26.667969 L 2.667969 5.332031 C 2.667969 4.597656 3.261719 4 4 4 L 13.332031 4 C 13.332031 5.472656 14.527344 6.667969 16 6.667969 C 17.472656 6.667969 18.667969 5.472656 18.667969 4 L 28 4 C 28.738281 4 29.332031 4.597656 29.332031 5.332031 L 29.332031 26.667969 C 29.332031 27.402344 28.738281 28 28 28 L 18.667969 28 C 18.667969 26.527344 17.472656 25.332031 16 25.332031 C 14.527344 25.332031 13.332031 26.527344 13.332031 28 Z M 11.378906 25.332031 C 12.332031 23.683594 14.09375 22.664062 16 22.667969 C 17.972656 22.667969 19.699219 23.738281 20.621094 25.332031 L 26.667969 25.332031 L 26.667969 6.667969 L 20.621094 6.667969 C 19.667969 8.316406 17.90625 9.335938 16 9.332031 C 14.09375 9.335938 12.332031 8.316406 11.378906 6.667969 L 5.332031 6.667969 L 5.332031 25.332031 Z M 8 10.667969 L 10.667969 10.667969 L 10.667969 21.332031 L 8 21.332031 Z M 21.332031 10.667969 L 24 10.667969 L 24 21.332031 L 21.332031 21.332031 Z M 21.332031 10.667969 "/>
</g>
</svg>
