<?xml version="1.0" encoding="UTF-8"?>
<svg xmlns="http://www.w3.org/2000/svg" xmlns:xlink="http://www.w3.org/1999/xlink" width="32" height="32" viewBox="0 0 32 32" version="1.1">
<g id="surface1">
<path style=" stroke:none;fill-rule:nonzero;fill:rgb(100%,100%,100%);fill-opacity:1;" d="M 16 2.667969 C 23.363281 2.667969 29.332031 8.636719 29.332031 16 C 29.332031 23.363281 23.363281 29.332031 16 29.332031 C 8.636719 29.332031 2.667969 23.363281 2.667969 16 C 2.667969 8.636719 8.636719 2.667969 16 2.667969 Z M 16 5.332031 C 10.109375 5.332031 5.332031 10.109375 5.332031 16 C 5.332031 21.890625 10.109375 26.667969 16 26.667969 C 21.890625 26.667969 26.667969 21.890625 26.667969 16 C 26.667969 10.109375 21.890625 5.332031 16 5.332031 Z M 18.667969 13.332031 C 19.402344 13.332031 20 13.929688 20 14.667969 L 20 20 L 18 20 L 18 25.332031 L 14 25.332031 L 14 20 L 12 20 L 12 14.667969 C 12 13.929688 12.597656 13.332031 13.332031 13.332031 Z M 16 6.667969 C 17.472656 6.667969 18.667969 7.859375 18.667969 9.332031 C 18.667969 10.804688 17.472656 12 16 12 C 14.527344 12 13.332031 10.804688 13.332031 9.332031 C 13.332031 7.859375 14.527344 6.667969 16 6.667969 Z M 16 6.667969 "/>
</g>
</svg>
