<?xml version="1.0" encoding="UTF-8"?>
<svg xmlns="http://www.w3.org/2000/svg" xmlns:xlink="http://www.w3.org/1999/xlink" width="32" height="32" viewBox="0 0 32 32" version="1.1">
<g id="surface1">
<path style=" stroke:none;fill-rule:nonzero;fill:rgb(100%,100%,100%);fill-opacity:1;" d="M 11.21875 22.667969 L 20 22.667969 L 20 25.332031 L 8 25.332031 C 7.261719 25.332031 6.667969 24.738281 6.667969 24 L 6.667969 9.332031 L 2.667969 9.332031 L 2.667969 6.667969 L 6.667969 6.667969 L 6.667969 2.667969 L 9.332031 2.667969 L 9.332031 20.78125 L 20.78125 9.332031 L 12 9.332031 L 12 6.667969 L 23.449219 6.667969 L 26.855469 3.257812 L 28.742188 5.144531 L 25.332031 8.550781 L 25.332031 22.667969 L 29.332031 22.667969 L 29.332031 25.332031 L 25.332031 25.332031 L 25.332031 29.332031 L 22.667969 29.332031 L 22.667969 11.21875 Z M 11.21875 22.667969 "/>
</g>
</svg>
