<?xml version="1.0" encoding="UTF-8"?>
<svg xmlns="http://www.w3.org/2000/svg" xmlns:xlink="http://www.w3.org/1999/xlink" width="32" height="32" viewBox="0 0 32 32" version="1.1">
<g id="surface1">
<path style=" stroke:none;fill-rule:nonzero;fill:rgb(100%,100%,100%);fill-opacity:1;" d="M 29.332031 22.667969 C 29.332031 26.425781 26.71875 29.675781 23.050781 30.484375 L 22.199219 27.929688 C 23.777344 27.671875 25.152344 26.71875 25.953125 25.332031 L 22.667969 25.332031 C 21.195312 25.332031 20 24.140625 20 22.667969 L 20 17.332031 C 20 15.859375 21.195312 14.667969 22.667969 14.667969 L 26.585938 14.667969 C 25.910156 9.332031 21.375 5.335938 16 5.335938 C 10.625 5.335938 6.089844 9.332031 5.414062 14.667969 L 9.332031 14.667969 C 10.804688 14.667969 12 15.859375 12 17.332031 L 12 22.667969 C 12 24.140625 10.804688 25.332031 9.332031 25.332031 L 5.332031 25.332031 C 3.859375 25.332031 2.667969 24.140625 2.667969 22.667969 L 2.667969 16 C 2.667969 8.636719 8.636719 2.667969 16 2.667969 C 23.363281 2.667969 29.332031 8.636719 29.332031 16 Z M 29.332031 22.667969 "/>
</g>
</svg>
