<?xml version="1.0" encoding="UTF-8"?>
<svg xmlns="http://www.w3.org/2000/svg" xmlns:xlink="http://www.w3.org/1999/xlink" width="32" height="32" viewBox="0 0 32 32" version="1.1">
<g id="surface1">
<path style=" stroke:none;fill-rule:nonzero;fill:rgb(100%,100%,100%);fill-opacity:1;" d="M 5.898438 2 C 2.625 2.050781 0 4.554688 0 7.621094 C 0 10.722656 2.6875 13.238281 6 13.238281 C 6.878906 13.242188 7.746094 13.0625 8.542969 12.710938 L 12.054688 16 L 8.542969 19.289062 C 7.746094 18.941406 6.878906 18.757812 6 18.761719 C 2.6875 18.761719 0 21.277344 0 24.378906 C 0 27.484375 2.6875 30 6 30 C 9.3125 30 12 27.484375 12 24.378906 C 12 23.597656 11.824219 22.824219 11.484375 22.109375 L 15.03125 18.789062 L 23.1875 26.429688 C 25.6875 28.769531 28.535156 29.261719 30.320312 29.300781 C 31.390625 29.324219 32.082031 29.183594 32.082031 29.183594 L 18.007812 16 L 15.03125 13.214844 L 11.484375 9.890625 C 11.824219 9.175781 12 8.402344 12 7.621094 C 12 4.515625 9.3125 2 6 2 C 5.964844 2 5.933594 2 5.898438 2 Z M 30.320312 2.699219 C 28.535156 2.738281 25.6875 3.230469 23.1875 5.570312 L 17.992188 10.4375 L 20.96875 13.226562 L 32.082031 2.816406 C 32.082031 2.816406 31.390625 2.675781 30.320312 2.699219 Z M 6 4.519531 C 7.828125 4.519531 9.308594 5.910156 9.308594 7.621094 C 9.308594 9.332031 7.828125 10.71875 6 10.71875 C 5.996094 10.71875 5.996094 10.71875 5.992188 10.71875 C 4.167969 10.714844 2.691406 9.328125 2.691406 7.621094 C 2.691406 5.910156 4.171875 4.519531 6 4.519531 Z M 5.992188 21.28125 C 5.996094 21.28125 5.996094 21.28125 6 21.28125 C 7.828125 21.28125 9.308594 22.667969 9.308594 24.378906 C 9.308594 26.089844 7.828125 27.480469 6 27.480469 C 4.171875 27.480469 2.691406 26.089844 2.691406 24.378906 C 2.691406 22.671875 4.167969 21.285156 5.992188 21.28125 Z M 5.992188 21.28125 "/>
</g>
</svg>
