<?xml version="1.0" encoding="UTF-8"?>
<svg xmlns="http://www.w3.org/2000/svg" xmlns:xlink="http://www.w3.org/1999/xlink" width="32" height="32" viewBox="0 0 32 32" version="1.1">
<g id="surface1">
<path style=" stroke:none;fill-rule:nonzero;fill:rgb(100%,100%,100%);fill-opacity:1;" d="M 16 2.667969 C 23.363281 2.667969 29.332031 8.636719 29.332031 16 C 29.332031 23.363281 23.363281 29.332031 16 29.332031 C 8.636719 29.332031 2.667969 23.363281 2.667969 16 C 2.667969 8.636719 8.636719 2.667969 16 2.667969 Z M 16 5.332031 C 10.109375 5.332031 5.332031 10.109375 5.332031 16 C 5.332031 21.890625 10.109375 26.667969 16 26.667969 C 21.890625 26.667969 26.667969 21.890625 26.667969 16 C 26.667969 10.109375 21.890625 5.332031 16 5.332031 Z M 16 6.667969 C 17.355469 6.667969 18.648438 6.957031 19.8125 7.476562 L 17.726562 9.558594 C 17.175781 9.414062 16.597656 9.332031 16 9.332031 C 12.320312 9.332031 9.332031 12.320312 9.332031 16 C 9.332031 17.839844 10.078125 19.507812 11.285156 20.714844 L 9.398438 22.601562 L 9.191406 22.386719 C 7.625 20.714844 6.667969 18.46875 6.667969 16 C 6.667969 10.84375 10.84375 6.667969 16 6.667969 Z M 24.523438 12.191406 C 25.042969 13.351562 25.332031 14.644531 25.332031 16 C 25.332031 18.578125 24.289062 20.910156 22.601562 22.601562 L 20.714844 20.714844 C 21.921875 19.507812 22.667969 17.839844 22.667969 16 C 22.667969 15.402344 22.589844 14.824219 22.441406 14.273438 Z M 21.65625 8.457031 L 23.542969 10.34375 L 18.578125 15.3125 C 18.636719 15.53125 18.667969 15.761719 18.667969 16 C 18.667969 17.472656 17.472656 18.667969 16 18.667969 C 14.527344 18.667969 13.332031 17.472656 13.332031 16 C 13.332031 14.527344 14.527344 13.332031 16 13.332031 C 16.238281 13.332031 16.46875 13.363281 16.6875 13.421875 Z M 21.65625 8.457031 "/>
</g>
</svg>
