<?xml version="1.0" encoding="UTF-8"?>
<svg xmlns="http://www.w3.org/2000/svg" xmlns:xlink="http://www.w3.org/1999/xlink" width="32" height="32" viewBox="0 0 32 32" version="1.1">
<g id="surface1">
<path style=" stroke:none;fill-rule:nonzero;fill:rgb(100%,100%,100%);fill-opacity:1;" d="M 6.667969 16.667969 C 6.667969 17.085938 7.28125 17.8125 8.707031 18.523438 C 10.550781 19.445312 13.167969 20 16 20 C 18.832031 20 21.449219 19.445312 23.292969 18.523438 C 24.71875 17.8125 25.332031 17.085938 25.332031 16.667969 L 25.332031 13.773438 C 23.132812 15.132812 19.769531 16 16 16 C 12.230469 16 8.867188 15.128906 6.667969 13.773438 Z M 25.332031 20.4375 C 23.132812 21.796875 19.769531 22.667969 16 22.667969 C 12.230469 22.667969 8.867188 21.796875 6.667969 20.4375 L 6.667969 23.332031 C 6.667969 23.75 7.28125 24.476562 8.707031 25.191406 C 10.550781 26.113281 13.167969 26.667969 16 26.667969 C 18.832031 26.667969 21.449219 26.113281 23.292969 25.191406 C 24.71875 24.476562 25.332031 23.75 25.332031 23.332031 Z M 4 23.332031 L 4 10 C 4 6.6875 9.375 4 16 4 C 22.625 4 28 6.6875 28 10 L 28 23.332031 C 28 26.648438 22.625 29.332031 16 29.332031 C 9.375 29.332031 4 26.648438 4 23.332031 Z M 16 13.332031 C 18.832031 13.332031 21.449219 12.78125 23.292969 11.855469 C 24.71875 11.144531 25.332031 10.417969 25.332031 10 C 25.332031 9.582031 24.71875 8.855469 23.292969 8.144531 C 21.449219 7.21875 18.832031 6.667969 16 6.667969 C 13.167969 6.667969 10.550781 7.21875 8.707031 8.144531 C 7.28125 8.855469 6.667969 9.582031 6.667969 10 C 6.667969 10.417969 7.28125 11.144531 8.707031 11.855469 C 10.550781 12.78125 13.167969 13.332031 16 13.332031 Z M 16 13.332031 "/>
</g>
</svg>
