<?xml version="1.0" encoding="UTF-8"?>
<svg xmlns="http://www.w3.org/2000/svg" xmlns:xlink="http://www.w3.org/1999/xlink" width="32" height="32" viewBox="0 0 32 32" version="1.1">
<g id="surface1">
<path style=" stroke:none;fill-rule:nonzero;fill:rgb(100%,100%,100%);fill-opacity:1;" d="M 16 4 C 16.734375 4 17.332031 4.597656 17.332031 5.332031 L 17.332031 16 C 18.445312 15.164062 19.832031 14.667969 21.332031 14.667969 C 25.015625 14.667969 28 17.652344 28 21.332031 C 28 25.015625 25.015625 28 21.332031 28 C 19.957031 28 18.679688 27.582031 17.617188 26.871094 L 17.332031 26.667969 C 17.332031 27.402344 16.734375 28 16 28 L 8 28 C 7.265625 28 6.667969 27.402344 6.667969 26.667969 L 6.667969 5.332031 C 6.667969 4.597656 7.265625 4 8 4 Z M 14.667969 6.667969 L 9.332031 6.667969 L 9.332031 25.332031 L 14.667969 25.332031 Z M 25.332031 20 L 17.332031 20 L 17.332031 22.667969 L 25.332031 22.667969 Z M 25.332031 20 "/>
</g>
</svg>
