<?xml version="1.0" encoding="UTF-8"?>
<svg xmlns="http://www.w3.org/2000/svg" xmlns:xlink="http://www.w3.org/1999/xlink" width="32" height="32" viewBox="0 0 32 32" version="1.1">
<g id="surface1">
<path style=" stroke:none;fill-rule:nonzero;fill:rgb(100%,100%,100%);fill-opacity:1;" d="M 8.714844 4 L 28 4 C 28.738281 4 29.332031 4.597656 29.332031 5.332031 L 29.332031 26.667969 C 29.332031 27.402344 28.738281 28 28 28 L 8.714844 28 C 8.269531 28 7.851562 27.777344 7.605469 27.40625 L 0.492188 16.738281 C 0.195312 16.292969 0.195312 15.707031 0.492188 15.261719 L 7.605469 4.59375 C 7.851562 4.222656 8.269531 4 8.714844 4 Z M 17.332031 14.113281 L 13.5625 10.34375 L 11.675781 12.230469 L 15.449219 16 L 11.675781 19.769531 L 13.5625 21.65625 L 17.332031 17.886719 L 21.105469 21.65625 L 22.992188 19.769531 L 19.21875 16 L 22.992188 12.230469 L 21.105469 10.34375 Z M 17.332031 14.113281 "/>
</g>
</svg>
