<?xml version="1.0" encoding="UTF-8"?>
<svg xmlns="http://www.w3.org/2000/svg" xmlns:xlink="http://www.w3.org/1999/xlink" width="32" height="32" viewBox="0 0 32 32" version="1.1">
<g id="surface1">
<path style=" stroke:none;fill-rule:nonzero;fill:rgb(100%,100%,100%);fill-opacity:1;" d="M 26.667969 9.332031 L 26.667969 26.667969 C 26.667969 28.140625 25.472656 29.332031 24 29.332031 L 8 29.332031 C 6.527344 29.332031 5.332031 28.140625 5.332031 26.667969 L 5.332031 9.332031 L 2.667969 9.332031 L 2.667969 6.667969 L 29.332031 6.667969 L 29.332031 9.332031 Z M 8 9.332031 L 8 26.667969 L 24 26.667969 L 24 9.332031 Z M 14.667969 12 L 17.332031 12 L 17.332031 14.667969 L 14.667969 14.667969 Z M 14.667969 16 L 17.332031 16 L 17.332031 18.667969 L 14.667969 18.667969 Z M 14.667969 20 L 17.332031 20 L 17.332031 22.667969 L 14.667969 22.667969 Z M 9.332031 2.667969 L 22.667969 2.667969 L 22.667969 5.332031 L 9.332031 5.332031 Z M 9.332031 2.667969 "/>
</g>
</svg>
