<?xml version="1.0" encoding="UTF-8"?>
<svg xmlns="http://www.w3.org/2000/svg" xmlns:xlink="http://www.w3.org/1999/xlink" width="32" height="32" viewBox="0 0 32 32" version="1.1">
<g id="surface1">
<path style=" stroke:none;fill-rule:nonzero;fill:rgb(100%,100%,100%);fill-opacity:1;" d="M 5.332031 10.667969 L 26.667969 10.667969 L 26.667969 28 C 26.667969 28.738281 26.070312 29.332031 25.332031 29.332031 L 6.667969 29.332031 C 5.929688 29.332031 5.332031 28.738281 5.332031 28 Z M 9.332031 6.667969 L 9.332031 4 C 9.332031 3.261719 9.929688 2.667969 10.667969 2.667969 L 21.332031 2.667969 C 22.070312 2.667969 22.667969 3.261719 22.667969 4 L 22.667969 6.667969 L 29.332031 6.667969 L 29.332031 9.332031 L 2.667969 9.332031 L 2.667969 6.667969 Z M 12 5.332031 L 12 6.667969 L 20 6.667969 L 20 5.332031 Z M 12 16 L 12 24 L 14.667969 24 L 14.667969 16 Z M 17.332031 16 L 17.332031 24 L 20 24 L 20 16 Z M 17.332031 16 "/>
</g>
</svg>
