<?xml version="1.0" encoding="UTF-8"?>
<svg xmlns="http://www.w3.org/2000/svg" xmlns:xlink="http://www.w3.org/1999/xlink" width="32" height="32" viewBox="0 0 32 32" version="1.1">
<defs>
<filter id="alpha" filterUnits="objectBoundingBox" x="0%" y="0%" width="100%" height="100%">
  <feColorMatrix type="matrix" in="SourceGraphic" values="0 0 0 0 1 0 0 0 0 1 0 0 0 0 1 0 0 0 1 0"/>
</filter>
<mask id="mask0">
  <g filter="url(#alpha)">
<rect x="0" y="0" width="32" height="32" style="fill:rgb(100%,100%,100%);fill-opacity:0.992157;stroke:none;"/>
  </g>
</mask>
<clipPath id="clip1">
  <rect x="0" y="0" width="32" height="32"/>
</clipPath>
<g id="surface5" clip-path="url(#clip1)">
<path style=" stroke:none;fill-rule:evenodd;fill:rgb(100%,100%,100%);fill-opacity:1;" d="M 6 0 C 3.785156 0 2 1.785156 2 4 L 2 28 C 2 30.214844 3.785156 32 6 32 L 16 32 C 18.214844 32 20 30.214844 20 28 L 20 12 L 12 12 C 9.785156 12 8 10.222656 8 8.015625 L 8 7.984375 C 8 5.777344 9.785156 4 12 4 L 20 4 C 20 1.785156 18.214844 0 16 0 Z M 12 6 C 10.890625 6 10 6.890625 10 8 C 10 9.109375 10.890625 10 12 10 L 28 10 C 29.109375 10 30 9.109375 30 8 C 30 6.890625 29.109375 6 28 6 Z M 11 18 C 12.65625 18 14 19.34375 14 21 C 14 22.269531 13.195312 23.402344 12 23.824219 L 12 27 C 12 27.554688 11.554688 28 11 28 C 10.445312 28 10 27.554688 10 27 L 10 23.828125 C 8.800781 23.40625 8 22.269531 8 21 C 8 19.34375 9.34375 18 11 18 Z M 11 18 "/>
</g>
</defs>
<g id="surface1">
<use xlink:href="#surface5" mask="url(#mask0)"/>
</g>
</svg>
