<?xml version="1.0" encoding="UTF-8"?>
<svg xmlns="http://www.w3.org/2000/svg" xmlns:xlink="http://www.w3.org/1999/xlink" width="32" height="32" viewBox="0 0 32 32" version="1.1">
<g id="surface1">
<path style=" stroke:none;fill-rule:nonzero;fill:rgb(100%,100%,100%);fill-opacity:1;" d="M 24 4 C 24.734375 4 25.332031 4.597656 25.332031 5.332031 L 25.332031 26.667969 C 25.332031 27.402344 24.734375 28 24 28 L 8 28 C 7.265625 28 6.667969 27.402344 6.667969 26.667969 L 6.667969 5.332031 C 6.667969 4.597656 7.265625 4 8 4 Z M 18.667969 14.667969 C 17.929688 14.667969 17.332031 15.265625 17.332031 16 C 17.332031 16.734375 17.929688 17.332031 18.667969 17.332031 C 19.402344 17.332031 20 16.734375 20 16 C 20 15.265625 19.402344 14.667969 18.667969 14.667969 Z M 18.667969 14.667969 "/>
</g>
</svg>
