<?xml version="1.0" encoding="UTF-8"?>
<svg xmlns="http://www.w3.org/2000/svg" xmlns:xlink="http://www.w3.org/1999/xlink" width="32" height="32" viewBox="0 0 32 32" version="1.1">
<g id="surface1">
<path style=" stroke:none;fill-rule:nonzero;fill:rgb(100%,100%,100%);fill-opacity:1;" d="M 21.753906 25.515625 L 27.171875 25.515625 C 27.390625 25.515625 27.601562 25.605469 27.757812 25.757812 C 27.914062 25.914062 28 26.125 28 26.34375 L 28 27.171875 C 28 27.390625 27.914062 27.601562 27.757812 27.757812 C 27.601562 27.914062 27.394531 28 27.171875 28 L 4.828125 28 C 4.371094 28 4 27.628906 4 27.171875 L 4 26.34375 C 4 26.125 4.085938 25.914062 4.242188 25.761719 C 4.398438 25.605469 4.605469 25.515625 4.828125 25.515625 L 9.832031 25.515625 L 8.550781 21.378906 L 11.472656 21.378906 C 11.828125 21.378906 12.144531 21.605469 12.257812 21.945312 L 13.449219 25.515625 L 18.132812 25.515625 L 19.765625 20.136719 L 6.894531 20.136719 C 6.4375 20.136719 6.070312 19.765625 6.070312 19.3125 L 6.070312 9.792969 C 6.070312 9.335938 6.4375 8.964844 6.894531 8.964844 L 25.105469 8.964844 C 25.5625 8.964844 25.929688 9.335938 25.929688 9.792969 L 25.929688 19.3125 C 25.929688 19.765625 25.5625 20.136719 25.105469 20.136719 L 23.386719 20.136719 Z M 5.242188 4 L 26.757812 4 C 27.214844 4 27.585938 4.371094 27.585938 4.828125 L 27.585938 5.65625 C 27.585938 5.875 27.5 6.085938 27.34375 6.238281 C 27.1875 6.394531 26.976562 6.484375 26.757812 6.484375 L 5.242188 6.484375 C 4.785156 6.484375 4.414062 6.113281 4.414062 5.65625 L 4.414062 4.828125 C 4.414062 4.371094 4.785156 4 5.238281 4 Z M 9.585938 11.449219 C 9.53125 11.449219 9.480469 11.46875 9.441406 11.507812 C 9.402344 11.546875 9.378906 11.601562 9.378906 11.65625 L 9.378906 17.035156 C 9.378906 17.148438 9.472656 17.242188 9.585938 17.242188 L 22.414062 17.242188 C 22.527344 17.242188 22.621094 17.148438 22.621094 17.035156 L 22.621094 11.652344 C 22.621094 11.597656 22.597656 11.546875 22.558594 11.507812 C 22.519531 11.46875 22.46875 11.445312 22.414062 11.445312 L 9.585938 11.445312 Z M 9.585938 11.449219 "/>
</g>
</svg>
