<?xml version="1.0" encoding="UTF-8"?>
<svg xmlns="http://www.w3.org/2000/svg" xmlns:xlink="http://www.w3.org/1999/xlink" width="32" height="32" viewBox="0 0 32 32" version="1.1">
<g id="surface1">
<path style=" stroke:none;fill-rule:nonzero;fill:rgb(100%,100%,100%);fill-opacity:1;" d="M 16 2.667969 L 21.65625 8.324219 L 19.769531 10.210938 L 16 6.4375 L 12.230469 10.210938 L 10.34375 8.324219 Z M 2.667969 16 L 8.324219 10.34375 L 10.210938 12.230469 L 6.4375 16 L 10.210938 19.769531 L 8.324219 21.65625 Z M 29.332031 16 L 23.675781 21.65625 L 21.789062 19.769531 L 25.5625 16 L 21.789062 12.230469 L 23.675781 10.34375 Z M 16 18.667969 C 14.527344 18.667969 13.332031 17.472656 13.332031 16 C 13.332031 14.527344 14.527344 13.332031 16 13.332031 C 17.472656 13.332031 18.667969 14.527344 18.667969 16 C 18.667969 17.472656 17.472656 18.667969 16 18.667969 Z M 16 29.332031 L 10.34375 23.675781 L 12.230469 21.789062 L 16 25.5625 L 19.769531 21.789062 L 21.65625 23.675781 Z M 16 29.332031 "/>
</g>
</svg>
