<?xml version="1.0" encoding="UTF-8"?>
<svg xmlns="http://www.w3.org/2000/svg" xmlns:xlink="http://www.w3.org/1999/xlink" width="32" height="32" viewBox="0 0 32 32" version="1.1">
<g id="surface1">
<path style=" stroke:none;fill-rule:nonzero;fill:rgb(100%,100%,100%);fill-opacity:1;" d="M 10.316406 17.332031 L 21.683594 17.332031 L 16 8.808594 Z M 16.554688 4.832031 L 25.976562 18.964844 C 26.113281 19.167969 26.125 19.429688 26.007812 19.648438 C 25.894531 19.863281 25.667969 20 25.421875 20 L 6.578125 20 C 6.332031 20 6.105469 19.863281 5.992188 19.648438 C 5.875 19.429688 5.886719 19.167969 6.023438 18.964844 L 15.445312 4.832031 C 15.570312 4.648438 15.777344 4.535156 16 4.535156 C 16.222656 4.535156 16.429688 4.648438 16.554688 4.832031 Z M 6.667969 22.667969 L 25.332031 22.667969 C 26.070312 22.667969 26.667969 23.261719 26.667969 24 C 26.667969 24.738281 26.070312 25.332031 25.332031 25.332031 L 6.667969 25.332031 C 5.929688 25.332031 5.332031 24.738281 5.332031 24 C 5.332031 23.261719 5.929688 22.667969 6.667969 22.667969 Z M 6.667969 22.667969 "/>
</g>
</svg>
