<?xml version="1.0" encoding="UTF-8"?>
<svg xmlns="http://www.w3.org/2000/svg" xmlns:xlink="http://www.w3.org/1999/xlink" width="32" height="32" viewBox="0 0 32 32" version="1.1">
<g id="surface1">
<path style=" stroke:none;fill-rule:nonzero;fill:rgb(100%,100%,100%);fill-opacity:1;" d="M 10 0 C 8.890625 0 8 0.746094 8 1.671875 L 8 2.328125 C 8 3.253906 8.890625 4 10 4 L 10 14 L 1.941406 28.503906 C 1.535156 29.234375 1.546875 30.121094 1.972656 30.839844 C 2.394531 31.558594 3.167969 32 4 32 L 28 32 C 28.832031 32 29.605469 31.558594 30.027344 30.839844 C 30.453125 30.121094 30.464844 29.234375 30.058594 28.503906 L 22 14 L 22 4 C 23.109375 4 24 3.253906 24 2.328125 L 24 1.671875 C 24 0.746094 23.109375 0 22 0 Z M 15.960938 2.5 C 17.75 2.5 19.539062 3 18.960938 4 L 18.960938 14 L 23.59375 22 L 8.40625 22 L 12.960938 14 L 12.960938 4 C 12.382812 3 14.171875 2.5 15.960938 2.5 Z M 15.960938 2.5 "/>
</g>
</svg>
