<?xml version="1.0" encoding="UTF-8"?>
<svg xmlns="http://www.w3.org/2000/svg" xmlns:xlink="http://www.w3.org/1999/xlink" width="32" height="32" viewBox="0 0 32 32" version="1.1">
<g id="surface1">
<path style=" stroke:none;fill-rule:nonzero;fill:rgb(100%,100%,100%);fill-opacity:1;" d="M 16.203125 0.0078125 C 9.230469 -0.175781 2.632812 4.65625 0.703125 11.359375 C 0.703125 11.363281 0.703125 11.371094 0.703125 11.375 C -1.429688 18.054688 1.40625 25.761719 7.359375 29.460938 C 13.183594 33.328125 21.363281 32.710938 26.554688 28.027344 C 31.886719 23.484375 33.550781 15.429688 30.453125 9.144531 C 27.921875 3.695312 22.242188 0.0429688 16.234375 0.0078125 Z M 16.171875 2 L 16.179688 2 C 16.1875 2 16.191406 2 16.203125 2 C 21.417969 2.019531 26.460938 5.269531 28.652344 10 C 28.65625 10.003906 28.660156 10.011719 28.667969 10.015625 C 31.347656 15.4375 29.855469 22.613281 25.246094 26.523438 C 25.242188 26.535156 25.230469 26.539062 25.230469 26.550781 C 20.761719 30.589844 13.492188 31.125 8.472656 27.792969 C 8.464844 27.789062 8.449219 27.78125 8.441406 27.777344 C 3.300781 24.59375 0.765625 17.722656 2.609375 11.964844 C 2.613281 11.953125 2.617188 11.949219 2.625 11.9375 C 4.277344 6.144531 10.152344 1.832031 16.171875 2 Z M 10 6.710938 L 6.710938 10 L 12.707031 16 L 6.710938 22 L 10 25.289062 L 16 19.292969 L 22 25.289062 L 25.289062 22 L 19.292969 16 L 25.289062 10 L 22 6.710938 L 16 12.707031 Z M 10 6.710938 "/>
</g>
</svg>
