<?xml version="1.0" encoding="UTF-8"?>
<svg xmlns="http://www.w3.org/2000/svg" xmlns:xlink="http://www.w3.org/1999/xlink" width="32" height="32" viewBox="0 0 32 32" version="1.1">
<g id="surface1">
<path style=" stroke:none;fill-rule:evenodd;fill:rgb(100%,100%,100%);fill-opacity:1;" d="M 6 0 C 2.675781 0 0 2.675781 0 6 L 0 26 C 0 29.324219 2.675781 32 6 32 L 26 32 C 29.324219 32 32 29.324219 32 26 L 32 6 C 32 2.675781 29.324219 0 26 0 Z M 20.003906 5.003906 L 24.007812 5.003906 C 25.664062 5.007812 27.003906 6.347656 27.003906 8.003906 C 27 9.65625 25.660156 10.996094 24.007812 11 L 21.851562 11 L 14.691406 25.335938 C 14.183594 26.355469 13.144531 27.003906 12.003906 27.003906 L 8.003906 27.003906 C 6.347656 27.003906 5.007812 25.664062 5.003906 24.007812 C 5 23.210938 5.3125 22.441406 5.878906 21.875 C 6.441406 21.308594 7.207031 20.992188 8.003906 20.992188 L 10.144531 20.992188 L 17.316406 6.660156 C 17.824219 5.644531 18.867188 5 20.003906 5.003906 Z M 20.003906 5.003906 "/>
</g>
</svg>
