<?xml version="1.0" encoding="UTF-8"?>
<svg xmlns="http://www.w3.org/2000/svg" xmlns:xlink="http://www.w3.org/1999/xlink" width="32" height="32" viewBox="0 0 32 32" version="1.1">
<g id="surface1">
<path style=" stroke:none;fill-rule:nonzero;fill:rgb(100%,100%,100%);fill-opacity:1;" d="M 2.996094 2 C 2.441406 1.996094 1.988281 2.449219 1.992188 3.003906 L 1.992188 29.011719 C 2 29.5625 2.445312 30.003906 2.996094 30 L 31.011719 30 C 31.554688 29.992188 31.992188 29.554688 32 29.011719 L 32 3.003906 C 32.003906 2.453125 31.5625 2.007812 31.011719 2 Z M 4 4.007812 L 30.007812 4.007812 L 30.007812 28.007812 L 4 28.007812 Z M 8.007812 8.011719 L 8.007812 20.011719 L 10 20.011719 L 10 22.007812 L 12.007812 22.007812 L 12.007812 24 L 22 24 L 22 22.007812 L 23.992188 22.007812 L 23.992188 20.011719 L 26 20.011719 L 26 8.011719 Z M 10 10.003906 L 23.992188 10.003906 L 23.992188 18.003906 L 22 18.003906 L 22 20.011719 L 19.992188 20.011719 L 19.992188 22.007812 L 14 22.007812 L 14 20.011719 L 12.007812 20.011719 L 12.007812 18.003906 L 10 18.003906 Z M 12.003906 12.011719 L 12.003906 16.011719 L 13.996094 16.011719 L 13.996094 12.011719 Z M 16.003906 12.011719 L 16.003906 16.011719 L 18 16.011719 L 18 12.011719 Z M 19.992188 12.011719 L 19.992188 16.011719 L 22 16.011719 L 22 12.011719 Z M 19.992188 12.011719 "/>
</g>
</svg>
