<?xml version="1.0" encoding="UTF-8"?>
<svg xmlns="http://www.w3.org/2000/svg" xmlns:xlink="http://www.w3.org/1999/xlink" width="32" height="32" viewBox="0 0 32 32" version="1.1">
<g id="surface1">
<path style=" stroke:none;fill-rule:nonzero;fill:rgb(100%,100%,100%);fill-opacity:1;" d="M 25.367188 4.203125 L 24.371094 8.890625 C 23.410156 7.929688 22.011719 7.453125 20.171875 7.453125 C 18.332031 7.453125 16.84375 8.113281 15.703125 9.433594 C 15.0625 10.175781 14.605469 11.109375 14.332031 12.226562 L 23.640625 12.226562 L 23.101562 14.847656 L 13.996094 14.847656 C 13.984375 15.109375 13.976562 15.441406 13.976562 15.847656 C 13.976562 16.242188 13.988281 16.65625 14.011719 17.082031 L 22.625 17.082031 L 22.085938 19.707031 L 14.367188 19.707031 C 14.648438 20.914062 15.082031 21.863281 15.671875 22.550781 C 16.796875 23.882812 18.265625 24.546875 20.070312 24.546875 C 22.238281 24.546875 23.964844 23.882812 25.25 22.550781 L 25.25 27.730469 C 23.785156 28.464844 22.074219 28.832031 20.121094 28.832031 C 16.828125 28.832031 14.117188 27.703125 11.996094 25.445312 C 10.550781 23.910156 9.597656 21.996094 9.136719 19.707031 L 6.632812 19.707031 L 7.171875 17.082031 L 8.832031 17.082031 C 8.820312 16.8125 8.8125 16.523438 8.8125 16.21875 C 8.8125 15.699219 8.824219 15.242188 8.847656 14.847656 L 6.632812 14.847656 L 7.171875 12.226562 L 9.1875 12.226562 C 9.660156 9.980469 10.601562 8.101562 12.015625 6.589844 C 14.148438 4.308594 16.949219 3.167969 20.425781 3.167969 C 22.320312 3.167969 23.96875 3.511719 25.367188 4.203125 Z M 25.367188 4.203125 "/>
</g>
</svg>
