<?xml version="1.0" encoding="UTF-8"?>
<svg xmlns="http://www.w3.org/2000/svg" xmlns:xlink="http://www.w3.org/1999/xlink" width="32" height="32" viewBox="0 0 32 32" version="1.1">
<g id="surface1">
<path style=" stroke:none;fill-rule:nonzero;fill:rgb(100%,100%,100%);fill-opacity:1;" d="M 7.164062 6.011719 C 9.597656 3.851562 12.742188 2.660156 16 2.667969 C 23.363281 2.667969 29.332031 8.636719 29.332031 16 C 29.335938 18.726562 28.503906 21.386719 26.941406 23.621094 L 23.332031 16 L 26.667969 16 C 26.667969 11.660156 24.039062 7.753906 20.019531 6.121094 C 16.003906 4.484375 11.394531 5.445312 8.367188 8.550781 L 7.164062 6.015625 Z M 24.835938 25.988281 C 22.402344 28.148438 19.257812 29.339844 16 29.332031 C 8.636719 29.332031 2.667969 23.363281 2.667969 16 C 2.667969 13.167969 3.550781 10.539062 5.058594 8.378906 L 8.667969 16 L 5.332031 16 C 5.332031 20.339844 7.960938 24.246094 11.980469 25.878906 C 15.996094 27.515625 20.605469 26.554688 23.632812 23.449219 L 24.835938 25.984375 Z M 17.886719 19.769531 L 14.113281 16 L 10.34375 19.769531 L 8.457031 17.886719 L 14.113281 12.230469 L 17.886719 16 L 21.65625 12.230469 L 23.542969 14.113281 Z M 17.886719 19.769531 "/>
</g>
</svg>
