<?xml version="1.0" encoding="UTF-8"?>
<svg xmlns="http://www.w3.org/2000/svg" xmlns:xlink="http://www.w3.org/1999/xlink" width="32" height="32" viewBox="0 0 32 32" version="1.1">
<g id="surface1">
<path style=" stroke:none;fill-rule:nonzero;fill:rgb(100%,100%,100%);fill-opacity:1;" d="M 17.332031 12 L 23.332031 12 L 22.667969 14.667969 L 17.332031 14.667969 L 17.332031 26.667969 L 14.667969 26.667969 L 14.667969 14.667969 L 9.332031 14.667969 L 9.332031 12 L 14.667969 12 L 14.667969 9.503906 C 14.667969 7.125 14.914062 6.265625 15.378906 5.394531 C 15.832031 4.535156 16.535156 3.832031 17.394531 3.378906 C 18.265625 2.914062 19.125 2.667969 21.503906 2.667969 C 22.199219 2.667969 22.8125 2.734375 23.332031 2.867188 L 23.332031 5.332031 L 21.503906 5.332031 C 19.738281 5.332031 19.203125 5.4375 18.652344 5.730469 C 18.246094 5.945312 17.945312 6.246094 17.730469 6.652344 C 17.4375 7.203125 17.332031 7.738281 17.332031 9.503906 Z M 17.332031 12 "/>
</g>
</svg>
