<?xml version="1.0" encoding="UTF-8"?>
<svg xmlns="http://www.w3.org/2000/svg" xmlns:xlink="http://www.w3.org/1999/xlink" width="32" height="32" viewBox="0 0 32 32" version="1.1">
<g id="surface1">
<path style=" stroke:none;fill-rule:nonzero;fill:rgb(100%,100%,100%);fill-opacity:1;" d="M 26.667969 2.667969 C 28.875 2.667969 30.667969 4.457031 30.667969 6.667969 L 30.667969 9.332031 L 28 9.332031 L 28 25.332031 C 28 27.542969 26.210938 29.332031 24 29.332031 L 5.332031 29.332031 C 3.125 29.332031 1.332031 27.542969 1.332031 25.332031 L 1.332031 22.667969 L 22.667969 22.667969 L 22.667969 25.332031 C 22.667969 26.007812 23.171875 26.578125 23.84375 26.65625 L 24 26.667969 C 24.675781 26.667969 25.246094 26.160156 25.324219 25.488281 L 25.332031 25.332031 L 25.332031 20 L 4 20 L 4 6.667969 C 4 4.457031 5.789062 2.667969 8 2.667969 Z M 26.667969 2.667969 "/>
</g>
</svg>
