<?xml version="1.0" encoding="UTF-8"?>
<svg xmlns="http://www.w3.org/2000/svg" xmlns:xlink="http://www.w3.org/1999/xlink" width="32" height="32" viewBox="0 0 32 32" version="1.1">
<g id="surface1">
<path style=" stroke:none;fill-rule:nonzero;fill:rgb(100%,100%,100%);fill-opacity:1;" d="M 28 20.324219 L 28 28.011719 C 28 28.742188 27.40625 29.332031 26.675781 29.332031 L 5.324219 29.332031 C 4.585938 29.328125 3.996094 28.726562 4 27.992188 L 4 12 L 12 12 C 12.738281 12 13.332031 11.402344 13.332031 10.667969 L 13.332031 2.667969 L 26.667969 2.667969 C 27.402344 2.667969 28 3.273438 28 3.988281 L 28 9.007812 L 16 21.007812 L 15.992188 26.660156 L 21.65625 26.667969 Z M 29.039062 11.742188 L 30.921875 13.628906 L 20.550781 24 L 18.664062 23.996094 L 18.667969 22.113281 Z M 4 9.332031 L 10.667969 2.671875 L 10.667969 9.332031 Z M 4 9.332031 "/>
</g>
</svg>
