<?xml version="1.0" encoding="UTF-8"?>
<svg xmlns="http://www.w3.org/2000/svg" xmlns:xlink="http://www.w3.org/1999/xlink" width="32" height="32" viewBox="0 0 32 32" version="1.1">
<g id="surface1">
<path style=" stroke:none;fill-rule:nonzero;fill:rgb(100%,100%,100%);fill-opacity:1;" d="M 11.460938 17.082031 C 11.289062 16.371094 11.289062 15.628906 11.460938 14.917969 L 10.136719 14.15625 L 11.46875 11.84375 L 12.792969 12.609375 C 13.324219 12.105469 13.964844 11.734375 14.667969 11.527344 L 14.667969 10 L 17.332031 10 L 17.332031 11.527344 C 18.042969 11.738281 18.683594 12.113281 19.207031 12.609375 L 20.53125 11.84375 L 21.863281 14.15625 L 20.539062 14.917969 C 20.707031 15.628906 20.707031 16.371094 20.539062 17.082031 L 21.863281 17.84375 L 20.53125 20.15625 L 19.207031 19.390625 C 18.675781 19.894531 18.035156 20.265625 17.332031 20.472656 L 17.332031 22 L 14.667969 22 L 14.667969 20.472656 C 13.964844 20.265625 13.324219 19.894531 12.792969 19.390625 L 11.46875 20.15625 L 10.136719 17.84375 Z M 16 18 C 17.105469 18 18 17.105469 18 16 C 18 14.894531 17.105469 14 16 14 C 14.894531 14 14 14.894531 14 16 C 14 17.105469 14.894531 18 16 18 Z M 20 5.332031 L 6.667969 5.332031 L 6.667969 26.667969 L 25.332031 26.667969 L 25.332031 10.667969 L 20 10.667969 Z M 4 3.988281 C 4 3.257812 4.597656 2.667969 5.332031 2.667969 L 21.332031 2.667969 L 28 9.332031 L 28 27.992188 C 28.003906 28.726562 27.414062 29.328125 26.675781 29.332031 L 5.324219 29.332031 C 4.59375 29.328125 4.003906 28.738281 4 28.011719 Z M 4 3.988281 "/>
</g>
</svg>
