<?xml version="1.0" encoding="UTF-8"?>
<svg xmlns="http://www.w3.org/2000/svg" xmlns:xlink="http://www.w3.org/1999/xlink" width="32" height="32" viewBox="0 0 32 32" version="1.1">
<g id="surface1">
<path style=" stroke:none;fill-rule:nonzero;fill:rgb(100%,100%,100%);fill-opacity:1;" d="M 25.332031 12 L 18.667969 12 L 18.667969 5.332031 L 6.667969 5.332031 L 6.667969 15.808594 L 8.667969 17.667969 L 13.332031 12.667969 L 17.332031 19.332031 L 20 16 L 24 20 L 20 19.332031 L 17.332031 22.667969 L 13.332031 17.332031 L 9.332031 22 L 6.667969 20.332031 L 6.667969 26.667969 L 25.332031 26.667969 Z M 28 10.667969 L 28 27.992188 C 28.003906 28.726562 27.414062 29.328125 26.675781 29.332031 L 5.324219 29.332031 C 4.59375 29.332031 4 28.742188 4 28.011719 L 4 3.988281 C 4 3.273438 4.597656 2.667969 5.335938 2.667969 L 19.996094 2.667969 Z M 28 10.667969 "/>
</g>
</svg>
