<?xml version="1.0" encoding="UTF-8"?>
<svg xmlns="http://www.w3.org/2000/svg" xmlns:xlink="http://www.w3.org/1999/xlink" width="32" height="32" viewBox="0 0 32 32" version="1.1">
<g id="surface1">
<path style=" stroke:none;fill-rule:nonzero;fill:rgb(100%,100%,100%);fill-opacity:1;" d="M 28 13.332031 L 14.667969 13.332031 L 14.667969 23.175781 C 14.667969 25.261719 15.703125 27.207031 17.433594 28.367188 L 18.875 29.332031 L 5.324219 29.332031 C 4.59375 29.332031 4 28.742188 4 28.011719 L 4 3.988281 C 4 3.273438 4.597656 2.667969 5.332031 2.667969 L 21.328125 2.667969 L 28 9.332031 Z M 17.332031 16 L 28 16 L 28 23.175781 C 28 24.371094 27.40625 25.488281 26.417969 26.148438 L 22.667969 28.664062 L 18.914062 26.152344 C 17.925781 25.484375 17.332031 24.371094 17.332031 23.175781 Z M 17.332031 16 "/>
</g>
</svg>
