<?xml version="1.0" encoding="UTF-8"?>
<svg xmlns="http://www.w3.org/2000/svg" xmlns:xlink="http://www.w3.org/1999/xlink" width="32" height="32" viewBox="0 0 32 32" version="1.1">
<g id="surface1">
<path style=" stroke:none;fill-rule:nonzero;fill:rgb(100%,100%,100%);fill-opacity:1;" d="M 28 15.566406 C 24.175781 13.75 19.609375 14.734375 16.875 17.964844 C 14.140625 21.195312 13.917969 25.859375 16.339844 29.332031 L 5.324219 29.332031 C 4.59375 29.328125 4.003906 28.738281 4 28.011719 L 4 3.988281 C 4 3.257812 4.59375 2.667969 5.324219 2.667969 L 21.332031 2.667969 L 28 9.332031 Z M 24 30.667969 C 20.316406 30.667969 17.332031 27.683594 17.332031 24 C 17.332031 20.316406 20.316406 17.332031 24 17.332031 C 27.683594 17.332031 30.667969 20.316406 30.667969 24 C 30.667969 27.683594 27.683594 30.667969 24 30.667969 Z M 22.277344 27.609375 C 23.804688 28.34375 25.632812 28.03125 26.832031 26.832031 C 28.03125 25.632812 28.34375 23.804688 27.609375 22.277344 Z M 20.390625 25.722656 L 25.722656 20.390625 C 24.195312 19.660156 22.367188 19.972656 21.167969 21.171875 C 19.96875 22.371094 19.65625 24.195312 20.390625 25.726562 Z M 20.390625 25.722656 "/>
</g>
</svg>
