<?xml version="1.0" encoding="UTF-8"?>
<svg xmlns="http://www.w3.org/2000/svg" xmlns:xlink="http://www.w3.org/1999/xlink" width="32" height="32" viewBox="0 0 32 32" version="1.1">
<g id="surface1">
<path style=" stroke:none;fill-rule:nonzero;fill:rgb(100%,100%,100%);fill-opacity:1;" d="M 21.332031 2.667969 L 28 9.332031 L 28 28.011719 C 28 28.742188 27.40625 29.332031 26.675781 29.332031 L 5.324219 29.332031 C 4.59375 29.328125 4.003906 28.738281 4 28.011719 L 4 3.988281 C 4 3.257812 4.59375 2.667969 5.324219 2.667969 Z M 18.039062 19.261719 L 20.984375 22.207031 L 22.871094 20.324219 L 19.925781 17.378906 C 21.285156 15.0625 20.710938 12.101562 18.589844 10.457031 C 16.46875 8.8125 13.457031 9.003906 11.558594 10.894531 C 9.65625 12.796875 9.464844 15.8125 11.109375 17.933594 C 12.757812 20.058594 15.726562 20.628906 18.039062 19.261719 Z M 17.214844 16.550781 C 16.546875 17.246094 15.554688 17.523438 14.621094 17.277344 C 13.6875 17.035156 12.960938 16.308594 12.71875 15.375 C 12.472656 14.441406 12.75 13.449219 13.445312 12.78125 C 14.492188 11.769531 16.152344 11.785156 17.183594 12.8125 C 18.210938 13.84375 18.226562 15.503906 17.214844 16.550781 Z M 17.214844 16.550781 "/>
</g>
</svg>
