<?xml version="1.0" encoding="UTF-8"?>
<svg xmlns="http://www.w3.org/2000/svg" xmlns:xlink="http://www.w3.org/1999/xlink" width="32" height="32" viewBox="0 0 32 32" version="1.1">
<g id="surface1">
<path style=" stroke:none;fill-rule:nonzero;fill:rgb(100%,100%,100%);fill-opacity:1;" d="M 5.003906 -0.00390625 C 4.449219 -0.0078125 3.996094 0.445312 4 1 L 4 31 C 3.996094 31.554688 4.449219 32.007812 5.003906 32.003906 L 26.996094 32.003906 C 27.550781 32.007812 28.003906 31.554688 28 31 L 28 6.992188 C 27.996094 6.730469 27.894531 6.484375 27.710938 6.300781 L 21.730469 0.292969 C 21.542969 0.105469 21.289062 -0.00390625 21.023438 -0.00390625 Z M 5.992188 2.003906 L 20.003906 2.003906 L 20.007812 6.996094 C 20.003906 7.546875 20.449219 7.992188 21 8 L 26 8 L 25.996094 29.996094 L 5.992188 29.996094 Z M 15.214844 11.019531 C 14.769531 11.027344 14.308594 11.222656 14.027344 11.648438 L 13.996094 11.679688 L 13.980469 11.722656 C 13.578125 12.757812 13.742188 13.851562 13.9375 14.792969 C 13.9375 14.800781 13.9375 14.816406 13.9375 14.824219 C 13.984375 15.324219 14.191406 15.75 14.320312 16.09375 C 14.457031 16.457031 14.511719 16.683594 14.410156 16.90625 L 14.394531 16.933594 L 14.378906 16.964844 C 13.90625 18.570312 13.117188 20.089844 12.386719 21.671875 C 11.277344 22.25 10.058594 22.765625 8.992188 23.636719 C 8.476562 23.917969 8.101562 24.410156 7.972656 24.980469 C 7.90625 25.269531 7.902344 25.59375 8.03125 25.894531 C 8.160156 26.195312 8.425781 26.457031 8.769531 26.605469 L 8.785156 26.605469 L 8.800781 26.617188 C 9.410156 26.828125 10.042969 26.730469 10.570312 26.5 L 10.585938 26.484375 L 10.601562 26.472656 C 12.332031 25.550781 13.21875 23.820312 14.160156 22.410156 C 15.4375 21.996094 16.71875 21.648438 18.027344 21.378906 C 19.070312 22.25 20.292969 23.015625 21.730469 23.121094 C 22.320312 23.261719 22.960938 23.152344 23.460938 22.808594 C 23.714844 22.632812 23.941406 22.390625 24.050781 22.070312 C 24.160156 21.75 24.144531 21.382812 23.992188 21.023438 L 23.976562 20.980469 L 23.945312 20.949219 C 23.613281 20.414062 23.101562 20.117188 22.574219 19.960938 C 22.058594 19.808594 21.523438 19.78125 21.054688 19.785156 L 21.023438 19.785156 C 20.066406 19.75 19.199219 19.929688 18.382812 19.960938 C 17.828125 19.339844 17.296875 18.683594 16.832031 17.996094 L 16.800781 17.953125 L 16.757812 17.910156 C 16.453125 17.636719 16.410156 17.421875 16.433594 17.082031 C 16.457031 16.742188 16.59375 16.308594 16.726562 15.839844 L 16.726562 15.796875 C 16.941406 14.726562 17.238281 13.476562 16.832031 12.238281 C 16.671875 11.636719 16.191406 11.226562 15.648438 11.074219 C 15.511719 11.035156 15.363281 11.015625 15.214844 11.019531 Z M 15.222656 12.371094 C 15.304688 12.8125 15.144531 13.316406 15.074219 13.789062 C 15.066406 13.730469 15.039062 13.6875 15.03125 13.628906 L 15.03125 13.554688 L 15 13.492188 C 14.945312 13.378906 14.957031 12.824219 15.101562 12.550781 C 15.171875 12.414062 15.246094 12.367188 15.222656 12.371094 Z M 15.8125 18.75 C 16.183594 19.261719 16.558594 19.765625 16.949219 20.257812 C 16.761719 20.316406 16.652344 20.367188 16.402344 20.417969 C 15.949219 20.511719 15.464844 20.605469 15.015625 20.773438 C 15 20.777344 15 20.785156 14.984375 20.789062 C 15.078125 20.597656 15.160156 20.390625 15.234375 20.167969 L 15.265625 20.109375 C 15.503906 19.71875 15.601562 19.304688 15.695312 18.972656 C 15.726562 18.859375 15.777344 18.839844 15.8125 18.75 Z M 21.347656 21.054688 C 21.523438 21 21.859375 21.128906 22.011719 21.332031 C 22.089844 21.433594 22.105469 21.527344 22.101562 21.570312 C 22.097656 21.605469 22.058594 21.648438 21.984375 21.703125 C 21.847656 21.753906 21.667969 21.765625 21.480469 21.730469 C 21.019531 21.589844 20.667969 21.324219 20.242188 21.140625 C 20.566406 21.128906 20.875 21.050781 21.199219 21.066406 L 21.273438 21.066406 Z M 10.214844 24.449219 C 9.964844 24.707031 9.789062 25.097656 9.492188 25.277344 L 9.449219 25.289062 L 9.417969 25.335938 C 9.390625 25.359375 9.261719 25.378906 9.183594 25.347656 C 9.171875 25.34375 9.175781 25.339844 9.167969 25.335938 C 9.347656 24.964844 9.816406 24.722656 10.214844 24.449219 Z M 10.214844 24.449219 "/>
</g>
</svg>
