<?xml version="1.0" encoding="UTF-8"?>
<svg xmlns="http://www.w3.org/2000/svg" xmlns:xlink="http://www.w3.org/1999/xlink" width="32" height="32" viewBox="0 0 32 32" version="1.1">
<g id="surface1">
<path style=" stroke:none;fill-rule:nonzero;fill:rgb(100%,100%,100%);fill-opacity:1;" d="M 22.667969 17.332031 L 22.667969 18.667969 C 22.667969 22.359375 21.78125 25.925781 20.113281 29.128906 L 19.8125 29.6875 L 17.480469 28.390625 C 19.027344 25.617188 19.894531 22.507812 19.992188 19.273438 L 20 18.667969 L 20 17.332031 Z M 14.667969 13.332031 L 17.332031 13.332031 L 17.332031 18.667969 L 17.328125 19.171875 C 17.226562 22.820312 15.96875 26.347656 13.738281 29.238281 L 13.429688 29.625 L 11.363281 27.9375 C 13.398438 25.453125 14.558594 22.367188 14.660156 19.15625 L 14.667969 18.667969 Z M 16 8 C 19.683594 8 22.667969 10.984375 22.667969 14.667969 L 20 14.667969 C 20 12.457031 18.210938 10.667969 16 10.667969 C 13.789062 10.667969 12 12.457031 12 14.667969 L 12 18.667969 C 12 21.648438 10.90625 24.457031 8.972656 26.636719 L 8.6875 26.941406 L 6.757812 25.101562 C 8.320312 23.46875 9.230469 21.328125 9.324219 19.070312 L 9.332031 18.667969 L 9.332031 14.667969 C 9.332031 10.984375 12.316406 8 16 8 Z M 16 2.667969 C 22.628906 2.667969 28 8.039062 28 14.667969 L 28 18.667969 C 28 20.929688 27.730469 23.160156 27.203125 25.320312 L 27.019531 26.039062 L 24.445312 25.335938 C 24.96875 23.421875 25.261719 21.441406 25.324219 19.425781 L 25.332031 18.667969 L 25.332031 14.667969 C 25.332031 11.132812 23.339844 7.902344 20.179688 6.320312 C 17.019531 4.738281 13.238281 5.078125 10.410156 7.191406 L 8.511719 5.289062 C 10.636719 3.589844 13.277344 2.664062 16 2.667969 Z M 6.625 7.175781 L 8.523438 9.078125 C 7.382812 10.601562 6.734375 12.441406 6.671875 14.34375 L 6.667969 14.667969 L 6.671875 17.332031 C 6.671875 18.828125 6.320312 20.269531 5.65625 21.570312 L 5.449219 21.957031 L 3.132812 20.632812 C 3.636719 19.746094 3.933594 18.757812 3.992188 17.722656 L 4.003906 17.332031 L 4.003906 14.667969 C 3.996094 11.945312 4.921875 9.300781 6.625 7.175781 Z M 6.625 7.175781 "/>
</g>
</svg>
