<?xml version="1.0" encoding="UTF-8"?>
<svg xmlns="http://www.w3.org/2000/svg" xmlns:xlink="http://www.w3.org/1999/xlink" width="32" height="32" viewBox="0 0 32 32" version="1.1">
<g id="surface1">
<path style=" stroke:none;fill-rule:nonzero;fill:rgb(100%,100%,100%);fill-opacity:1;" d="M 21.332031 23.296875 C 22.796875 24.609375 24.699219 25.335938 26.667969 25.332031 L 29.332031 25.332031 L 29.332031 28 L 26.667969 28 C 24.792969 28.003906 22.953125 27.511719 21.332031 26.574219 C 19.710938 27.511719 17.871094 28.003906 16 28 C 14.128906 28.003906 12.289062 27.511719 10.667969 26.574219 C 9.046875 27.511719 7.207031 28.003906 5.332031 28 L 2.667969 28 L 2.667969 25.332031 L 5.332031 25.332031 C 7.382812 25.332031 9.253906 24.5625 10.667969 23.296875 C 12.132812 24.609375 14.03125 25.335938 16 25.332031 C 18.050781 25.332031 19.921875 24.5625 21.332031 23.296875 Z M 16.765625 2.042969 L 16.898438 2.148438 L 30.667969 14.667969 L 26.667969 14.667969 L 26.667969 22.667969 C 25.757812 22.667969 24.855469 22.515625 24 22.210938 L 24 12.210938 L 16 4.9375 L 8 12.207031 L 8 22.210938 C 7.269531 22.46875 6.507812 22.621094 5.730469 22.65625 L 5.332031 22.667969 L 5.332031 14.667969 L 1.332031 14.667969 L 15.101562 2.148438 C 15.5625 1.730469 16.253906 1.6875 16.765625 2.042969 Z M 16.765625 2.042969 "/>
</g>
</svg>
