<?xml version="1.0" encoding="UTF-8"?>
<svg xmlns="http://www.w3.org/2000/svg" xmlns:xlink="http://www.w3.org/1999/xlink" width="32" height="32" viewBox="0 0 32 32" version="1.1">
<g id="surface1">
<path style=" stroke:none;fill-rule:nonzero;fill:rgb(100%,100%,100%);fill-opacity:1;" d="M -0.00390625 0.00390625 L -0.00390625 31.996094 L 32.003906 31.996094 L 32.003906 9.996094 L 25.007812 9.996094 L 25.007812 11.988281 L 29.996094 11.988281 L 29.996094 30.003906 L 13.992188 30.003906 L 13.992188 20.492188 L 12 20.492188 L 12 30.003906 L 2.003906 30.003906 L 2.003906 11.988281 L 4.867188 11.988281 L 4.867188 9.996094 L 2.003906 9.996094 L 2.003906 1.996094 L 16 1.996094 L 16 9.996094 L 9.253906 9.996094 L 9.253906 11.988281 L 12 11.988281 L 12 15.738281 L 13.992188 15.738281 L 13.992188 11.988281 L 21.125 11.988281 L 21.125 9.996094 L 17.992188 9.996094 L 17.992188 0.00390625 Z M -0.00390625 0.00390625 "/>
</g>
</svg>
