<?xml version="1.0" encoding="UTF-8"?>
<svg xmlns="http://www.w3.org/2000/svg" xmlns:xlink="http://www.w3.org/1999/xlink" width="32" height="32" viewBox="0 0 32 32" version="1.1">
<g id="surface1">
<path style=" stroke:none;fill-rule:nonzero;fill:rgb(100%,100%,100%);fill-opacity:1;" d="M 17.332031 1.332031 L 17.335938 5.414062 C 22.167969 6.027344 25.972656 9.832031 26.585938 14.667969 L 30.667969 14.667969 L 30.667969 17.332031 L 26.585938 17.335938 C 25.972656 22.167969 22.167969 25.972656 17.335938 26.585938 L 17.332031 30.667969 L 14.667969 30.667969 L 14.667969 26.585938 C 9.832031 25.972656 6.027344 22.167969 5.414062 17.335938 L 1.332031 17.332031 L 1.332031 14.667969 L 5.414062 14.667969 C 6.027344 9.832031 9.832031 6.027344 14.667969 5.414062 L 14.667969 1.332031 Z M 16 13.332031 C 14.527344 13.332031 13.332031 14.527344 13.332031 16 C 13.332031 17.472656 14.527344 18.667969 16 18.667969 C 17.472656 18.667969 18.667969 17.472656 18.667969 16 C 18.667969 14.527344 17.472656 13.332031 16 13.332031 Z M 16 13.332031 "/>
</g>
</svg>
