<?xml version="1.0" encoding="UTF-8"?>
<svg xmlns="http://www.w3.org/2000/svg" xmlns:xlink="http://www.w3.org/1999/xlink" width="32" height="32" viewBox="0 0 32 32" version="1.1">
<g id="surface1">
<path style=" stroke:none;fill-rule:nonzero;fill:rgb(100%,100%,100%);fill-opacity:1;" d="M 16 2.667969 C 23.359375 2.667969 29.332031 8.640625 29.332031 16 C 29.332031 23.359375 23.359375 29.332031 16 29.332031 C 8.640625 29.332031 2.667969 23.359375 2.667969 16 C 2.667969 8.640625 8.640625 2.667969 16 2.667969 Z M 16 26.667969 C 21.902344 26.667969 26.667969 21.902344 26.667969 16 C 26.667969 10.097656 21.902344 5.332031 16 5.332031 C 13.171875 5.328125 10.453125 6.453125 8.453125 8.453125 C 6.453125 10.453125 5.328125 13.171875 5.332031 16 C 5.332031 21.902344 10.097656 26.667969 16 26.667969 Z M 16 24 C 11.574219 24 8 20.425781 8 16 C 8 11.574219 11.574219 8 16 8 C 20.425781 8 24 11.574219 24 16 C 24 20.425781 20.425781 24 16 24 Z M 16 13.332031 C 14.535156 13.332031 13.332031 14.535156 13.332031 16 C 13.332031 17.464844 14.535156 18.667969 16 18.667969 C 17.464844 18.667969 18.667969 17.464844 18.667969 16 C 18.667969 14.535156 17.464844 13.332031 16 13.332031 Z M 16 13.332031 "/>
</g>
</svg>
