<?xml version="1.0" encoding="UTF-8"?>
<svg xmlns="http://www.w3.org/2000/svg" xmlns:xlink="http://www.w3.org/1999/xlink" width="32" height="32" viewBox="0 0 32 32" version="1.1">
<g id="surface1">
<path style=" stroke:none;fill-rule:nonzero;fill:rgb(100%,100%,100%);fill-opacity:1;" d="M 29.332031 12 L 26.667969 12 L 26.667969 9.332031 L 15.449219 9.332031 L 12.78125 6.667969 L 5.332031 6.667969 L 5.332031 25.332031 L 15.261719 25.332031 C 15.753906 26.402344 16.519531 27.324219 17.480469 28 L 4 28 C 3.261719 28 2.667969 27.402344 2.667969 26.667969 L 2.667969 5.332031 C 2.667969 4.597656 3.261719 4 4 4 L 13.886719 4 L 16.550781 6.667969 L 28 6.667969 C 28.738281 6.667969 29.332031 7.261719 29.332031 8 Z M 17.332031 14.667969 L 29.332031 14.667969 L 29.332031 22.597656 C 29.332031 23.917969 28.664062 25.152344 27.550781 25.886719 L 23.332031 28.664062 L 19.113281 25.886719 C 18.007812 25.160156 17.335938 23.925781 17.332031 22.601562 Z M 20 22.597656 C 20 23.019531 20.214844 23.417969 20.582031 23.660156 L 23.332031 25.472656 L 26.085938 23.660156 C 26.445312 23.425781 26.664062 23.027344 26.667969 22.597656 L 26.667969 17.332031 L 20 17.332031 Z M 20 22.597656 "/>
</g>
</svg>
