<?xml version="1.0" encoding="UTF-8"?>
<svg xmlns="http://www.w3.org/2000/svg" xmlns:xlink="http://www.w3.org/1999/xlink" width="32" height="32" viewBox="0 0 32 32" version="1.1">
<g id="surface1">
<path style=" stroke:none;fill-rule:nonzero;fill:rgb(100%,100%,100%);fill-opacity:1;" d="M 13.886719 4 L 16.550781 6.667969 L 28 6.667969 C 28.738281 6.667969 29.332031 7.261719 29.332031 8 L 29.332031 26.667969 C 29.332031 27.402344 28.738281 28 28 28 L 4 28 C 3.261719 28 2.667969 27.402344 2.667969 26.667969 L 2.667969 5.332031 C 2.667969 4.597656 3.261719 4 4 4 Z M 12.78125 6.667969 L 5.332031 6.667969 L 5.332031 25.332031 L 26.667969 25.332031 L 26.667969 9.332031 L 15.449219 9.332031 Z M 16 12 C 17.207031 12 18.265625 12.808594 18.578125 13.976562 C 18.890625 15.140625 18.378906 16.371094 17.335938 16.976562 L 17.332031 22.667969 L 14.667969 22.667969 L 14.667969 16.976562 C 13.621094 16.371094 13.113281 15.140625 13.425781 13.976562 C 13.738281 12.8125 14.792969 12 16 12 Z M 16 12 "/>
</g>
</svg>
