<?xml version="1.0" encoding="UTF-8"?>
<svg xmlns="http://www.w3.org/2000/svg" xmlns:xlink="http://www.w3.org/1999/xlink" width="32" height="32" viewBox="0 0 32 32" version="1.1">
<g id="surface1">
<path style=" stroke:none;fill-rule:nonzero;fill:rgb(100%,100%,100%);fill-opacity:1;" d="M 16.550781 6.667969 L 28 6.667969 C 28.738281 6.667969 29.332031 7.261719 29.332031 8 L 29.332031 26.667969 C 29.332031 27.402344 28.738281 28 28 28 L 4 28 C 3.261719 28 2.667969 27.402344 2.667969 26.667969 L 2.667969 5.332031 C 2.667969 4.597656 3.261719 4 4 4 L 13.886719 4 Z M 10.667969 12 L 10.667969 18.539062 C 10.667969 19.726562 11.261719 20.835938 12.25 21.496094 L 16 23.996094 L 19.75 21.496094 C 20.738281 20.835938 21.332031 19.726562 21.332031 18.539062 L 21.332031 12 Z M 13.332031 18.539062 L 13.332031 14.667969 L 18.667969 14.667969 L 18.667969 18.539062 C 18.667969 18.835938 18.519531 19.113281 18.269531 19.277344 L 16 20.792969 L 13.730469 19.277344 C 13.480469 19.113281 13.332031 18.835938 13.332031 18.539062 Z M 13.332031 18.539062 "/>
</g>
</svg>
