<?xml version="1.0" encoding="UTF-8"?>
<svg xmlns="http://www.w3.org/2000/svg" xmlns:xlink="http://www.w3.org/1999/xlink" width="32" height="32" viewBox="0 0 32 32" version="1.1">
<g id="surface1">
<path style=" stroke:none;fill-rule:nonzero;fill:rgb(100%,100%,100%);fill-opacity:1;" d="M 16.550781 6.667969 L 28 6.667969 C 28.738281 6.667969 29.332031 7.261719 29.332031 8 L 29.332031 26.667969 C 29.332031 27.402344 28.738281 28 28 28 L 4 28 C 3.261719 28 2.667969 27.402344 2.667969 26.667969 L 2.667969 5.332031 C 2.667969 4.597656 3.261719 4 4 4 L 13.886719 4 Z M 14.667969 17.398438 C 13.285156 17.117188 11.875 17.734375 11.148438 18.941406 C 10.417969 20.148438 10.527344 21.683594 11.417969 22.773438 C 12.308594 23.867188 13.789062 24.277344 15.117188 23.804688 C 16.445312 23.332031 17.332031 22.074219 17.332031 20.667969 L 17.332031 14.667969 L 21.332031 14.667969 L 21.332031 12 L 14.667969 12 Z M 14.667969 17.398438 "/>
</g>
</svg>
