<?xml version="1.0" encoding="UTF-8"?>
<svg xmlns="http://www.w3.org/2000/svg" xmlns:xlink="http://www.w3.org/1999/xlink" width="32" height="32" viewBox="0 0 32 32" version="1.1">
<g id="surface1">
<path style=" stroke:none;fill-rule:nonzero;fill:rgb(100%,100%,100%);fill-opacity:1;" d="M 29.332031 17.5 C 26.273438 15.300781 22.089844 15.535156 19.292969 18.066406 C 16.5 20.597656 15.851562 24.734375 17.738281 28 L 4 28 C 3.261719 28 2.667969 27.402344 2.667969 26.667969 L 2.667969 5.332031 C 2.667969 4.597656 3.261719 4 4 4 L 13.886719 4 L 16.550781 6.667969 L 28 6.667969 C 28.738281 6.667969 29.332031 7.261719 29.332031 8 Z M 24 22.667969 L 24 18 L 30.667969 24 L 24 30 L 24 25.332031 L 20 25.332031 L 20 22.667969 Z M 24 22.667969 "/>
</g>
</svg>
