<?xml version="1.0" encoding="UTF-8"?>
<svg xmlns="http://www.w3.org/2000/svg" xmlns:xlink="http://www.w3.org/1999/xlink" width="32" height="32" viewBox="0 0 32 32" version="1.1">
<g id="surface1">
<path style=" stroke:none;fill-rule:nonzero;fill:rgb(100%,100%,100%);fill-opacity:1;" d="M 16.550781 6.667969 L 28 6.667969 C 28.738281 6.667969 29.332031 7.261719 29.332031 8 L 29.332031 26.667969 C 29.332031 27.402344 28.738281 28 28 28 L 4 28 C 3.261719 28 2.667969 27.402344 2.667969 26.667969 L 2.667969 5.332031 C 2.667969 4.597656 3.261719 4 4 4 L 13.886719 4 Z M 14.667969 21.332031 L 14.667969 24 L 17.332031 24 L 17.332031 21.332031 Z M 11.421875 14.417969 L 14.039062 14.941406 C 14.246094 13.910156 15.21875 13.210938 16.261719 13.351562 C 17.304688 13.488281 18.066406 14.414062 17.996094 15.464844 C 17.925781 16.515625 17.054688 17.332031 16 17.332031 L 14.667969 17.332031 L 14.667969 20 L 16 20 C 18.457031 20 20.492188 18.09375 20.65625 15.640625 C 20.816406 13.1875 19.046875 11.03125 16.609375 10.707031 C 14.175781 10.382812 11.90625 12.007812 11.421875 14.417969 Z M 11.421875 14.417969 "/>
</g>
</svg>
