<?xml version="1.0" encoding="UTF-8"?>
<svg xmlns="http://www.w3.org/2000/svg" xmlns:xlink="http://www.w3.org/1999/xlink" width="32" height="32" viewBox="0 0 32 32" version="1.1">
<g id="surface1">
<path style=" stroke:none;fill-rule:nonzero;fill:rgb(100%,100%,100%);fill-opacity:1;" d="M 3.332031 4 C 2.910156 3.996094 2.523438 4.234375 2.332031 4.609375 L 0.113281 8.605469 C 0.0390625 8.757812 0 8.925781 0 9.097656 L 0 23.914062 L 5.25 13.527344 C 5.253906 13.527344 5.261719 13.527344 5.265625 13.527344 C 5.742188 12.59375 6.699219 11.996094 7.746094 12 L 28.898438 12 L 28.898438 9.097656 C 28.894531 8.488281 28.394531 7.996094 27.785156 8 L 17.363281 8 L 15.445312 4.609375 C 15.253906 4.230469 14.863281 3.996094 14.441406 4 Z M 3.332031 4 "/>
<path style=" stroke:none;fill-rule:nonzero;fill:rgb(100%,100%,100%);fill-opacity:1;" d="M 8.15625 14.648438 C 7.792969 14.644531 7.460938 14.847656 7.296875 15.171875 L 1.574219 26.617188 C 1.425781 26.914062 1.441406 27.261719 1.613281 27.542969 C 1.785156 27.824219 2.089844 27.996094 2.421875 28 L 25.324219 28 C 25.6875 28 26.019531 27.792969 26.179688 27.464844 L 31.898438 16.027344 C 32.046875 15.730469 32.03125 15.378906 31.855469 15.097656 C 31.679688 14.816406 31.371094 14.644531 31.039062 14.648438 Z M 8.15625 14.648438 "/>
</g>
</svg>
