<?xml version="1.0" encoding="UTF-8"?>
<svg xmlns="http://www.w3.org/2000/svg" xmlns:xlink="http://www.w3.org/1999/xlink" width="32" height="32" viewBox="0 0 32 32" version="1.1">
<g id="surface1">
<path style=" stroke:none;fill-rule:nonzero;fill:rgb(100%,100%,100%);fill-opacity:1;" d="M 16.550781 6.667969 L 28 6.667969 C 28.738281 6.667969 29.332031 7.261719 29.332031 8 L 29.332031 26.667969 C 29.332031 27.402344 28.738281 28 28 28 L 4 28 C 3.261719 28 2.667969 27.402344 2.667969 26.667969 L 2.667969 5.332031 C 2.667969 4.597656 3.261719 4 4 4 L 13.886719 4 Z M 20 17.332031 L 20 16 C 20 13.789062 18.210938 12 16 12 C 13.789062 12 12 13.789062 12 16 L 12 17.332031 L 10.667969 17.332031 L 10.667969 22.667969 L 21.332031 22.667969 L 21.332031 17.332031 Z M 17.332031 17.332031 L 14.667969 17.332031 L 14.667969 16 C 14.667969 15.261719 15.261719 14.667969 16 14.667969 C 16.738281 14.667969 17.332031 15.261719 17.332031 16 Z M 17.332031 17.332031 "/>
</g>
</svg>
