<?xml version="1.0" encoding="UTF-8"?>
<svg xmlns="http://www.w3.org/2000/svg" xmlns:xlink="http://www.w3.org/1999/xlink" width="32" height="32" viewBox="0 0 32 32" version="1.1">
<g id="surface1">
<path style=" stroke:none;fill-rule:nonzero;fill:rgb(100%,100%,100%);fill-opacity:1;" d="M 25.332031 1.332031 C 26.070312 1.332031 26.667969 1.929688 26.667969 2.667969 L 26.667969 29.332031 C 26.667969 30.070312 26.070312 30.667969 25.332031 30.667969 L 6.667969 30.667969 C 5.929688 30.667969 5.332031 30.070312 5.332031 29.332031 L 5.332031 2.667969 C 5.332031 1.929688 5.929688 1.332031 6.667969 1.332031 Z M 24 16 L 8 16 L 8 28 L 24 28 Z M 13.332031 18.667969 L 13.332031 24 L 10.667969 24 L 10.667969 18.667969 Z M 24 4 L 8 4 L 8 13.332031 L 24 13.332031 Z M 13.332031 6.667969 L 13.332031 10.667969 L 10.667969 10.667969 L 10.667969 6.667969 Z M 13.332031 6.667969 "/>
</g>
</svg>
