<?xml version="1.0" encoding="UTF-8"?>
<svg xmlns="http://www.w3.org/2000/svg" xmlns:xlink="http://www.w3.org/1999/xlink" width="32" height="32" viewBox="0 0 32 32" version="1.1">
<g id="surface1">
<path style=" stroke:none;fill-rule:evenodd;fill:rgb(100%,100%,100%);fill-opacity:1;" d="M 8 0 C 6.890625 0 6 0.890625 6 2 L 6 20 L 26 20 L 26 2 C 26 0.890625 25.109375 0 24 0 Z M 14 8 L 18 8 L 18 14 L 14 14 Z M 6 22 L 6 30 C 6 31.109375 6.890625 32 8 32 L 24 32 C 25.109375 32 26 31.109375 26 30 L 26 22 L 22 22 L 22 24 L 10 24 L 10 22 Z M 6 22 "/>
</g>
</svg>
