<?xml version="1.0" encoding="UTF-8"?>
<svg xmlns="http://www.w3.org/2000/svg" xmlns:xlink="http://www.w3.org/1999/xlink" width="32" height="32" viewBox="0 0 32 32" version="1.1">
<defs>
<filter id="alpha" filterUnits="objectBoundingBox" x="0%" y="0%" width="100%" height="100%">
  <feColorMatrix type="matrix" in="SourceGraphic" values="0 0 0 0 1 0 0 0 0 1 0 0 0 0 1 0 0 0 1 0"/>
</filter>
<mask id="mask0">
  <g filter="url(#alpha)">
<rect x="0" y="0" width="32" height="32" style="fill:rgb(100%,100%,100%);fill-opacity:0.996078;stroke:none;"/>
  </g>
</mask>
<clipPath id="clip1">
  <rect x="0" y="0" width="32" height="32"/>
</clipPath>
<g id="surface5" clip-path="url(#clip1)">
<path style=" stroke:none;fill-rule:evenodd;fill:rgb(100%,100%,100%);fill-opacity:1;" d="M 4 0 C 1.785156 0 0 1.785156 0 4 L 0 32 L 20 32 L 20 17.996094 L 21.746094 17.996094 L 21.746094 30 L 28.746094 30 L 28.746094 12.566406 C 29.015625 12.457031 29.273438 12.316406 29.515625 12.152344 C 30.390625 11.550781 30.988281 10.625 31.179688 9.582031 C 31.371094 8.539062 31.140625 7.460938 30.539062 6.585938 L 25.996094 0 L 24.351562 1.136719 L 26.925781 4.875 C 26.226562 4.929688 25.554688 5.167969 24.976562 5.566406 C 24.949219 5.585938 24.921875 5.601562 24.894531 5.621094 C 23.136719 6.898438 22.71875 9.339844 23.953125 11.128906 C 24.398438 11.773438 25.019531 12.269531 25.746094 12.5625 L 25.746094 27.003906 L 24.742188 27.003906 L 24.742188 15 L 20 15 L 20 4 C 20 1.785156 18.214844 0 16 0 Z M 4 4 L 16 4 L 16 12 L 4 12 Z M 27.214844 6.859375 C 27.882812 6.847656 28.511719 7.171875 28.890625 7.722656 C 29.515625 8.632812 29.289062 9.878906 28.378906 10.503906 C 27.46875 11.128906 26.222656 10.902344 25.597656 9.992188 C 24.972656 9.082031 25.199219 7.835938 26.109375 7.210938 C 26.433594 6.988281 26.820312 6.863281 27.214844 6.859375 Z M 27.214844 6.859375 "/>
</g>
</defs>
<g id="surface1">
<use xlink:href="#surface5" mask="url(#mask0)"/>
</g>
</svg>
