<?xml version="1.0" encoding="UTF-8"?>
<svg xmlns="http://www.w3.org/2000/svg" xmlns:xlink="http://www.w3.org/1999/xlink" width="32" height="32" viewBox="0 0 32 32" version="1.1">
<g id="surface1">
<path style=" stroke:none;fill-rule:nonzero;fill:rgb(100%,100%,100%);fill-opacity:1;" d="M 15.667969 29.328125 C 8.707031 29.160156 3.066406 23.652344 2.6875 16.746094 L 2.671875 16.328125 Z M 16 2.667969 C 20.351562 2.664062 24.429688 4.785156 26.925781 8.351562 L 24.738281 9.882812 C 22.480469 6.65625 18.621094 4.9375 14.710938 5.414062 C 10.796875 5.886719 7.464844 8.484375 6.046875 12.160156 L 19.839844 25.953125 C 23.050781 24.710938 25.46875 22 26.332031 18.667969 L 20.667969 18.667969 L 20.667969 16 L 29.332031 16 C 29.332031 22.300781 24.960938 27.582031 19.085938 28.972656 L 3.023438 12.914062 C 4.417969 7.039062 9.699219 2.667969 16 2.667969 Z M 16 2.667969 "/>
</g>
</svg>
