<?xml version="1.0" encoding="UTF-8"?>
<svg xmlns="http://www.w3.org/2000/svg" xmlns:xlink="http://www.w3.org/1999/xlink" width="32" height="32" viewBox="0 0 32 32" version="1.1">
<g id="surface1">
<path style=" stroke:none;fill-rule:nonzero;fill:rgb(100%,100%,100%);fill-opacity:1;" d="M 26.667969 17.332031 L 26.667969 26.667969 C 26.667969 27.402344 26.070312 28 25.332031 28 L 6.667969 28 C 5.929688 28 5.332031 27.402344 5.332031 26.667969 L 5.332031 17.332031 Z M 19.332031 2.667969 C 20.933594 2.667969 22.421875 3.484375 23.277344 4.839844 C 24.132812 6.191406 24.238281 7.886719 23.550781 9.335938 L 28 9.332031 C 28.738281 9.332031 29.332031 9.929688 29.332031 10.667969 L 29.332031 14.667969 C 29.332031 15.402344 28.738281 16 28 16 L 4 16 C 3.261719 16 2.667969 15.402344 2.667969 14.667969 L 2.667969 10.667969 C 2.667969 9.929688 3.261719 9.332031 4 9.332031 L 8.449219 9.335938 C 7.46875 7.273438 8.121094 4.804688 9.992188 3.5 C 11.867188 2.195312 14.40625 2.433594 16 4.066406 C 16.875 3.167969 18.078125 2.664062 19.332031 2.667969 Z M 12.667969 5.332031 C 11.601562 5.332031 10.722656 6.171875 10.671875 7.238281 C 10.617188 8.304688 11.414062 9.222656 12.476562 9.324219 L 12.667969 9.332031 L 14.667969 9.332031 L 14.667969 7.332031 C 14.667969 6.304688 13.882812 5.441406 12.859375 5.34375 Z M 19.332031 5.332031 L 19.140625 5.34375 C 18.1875 5.433594 17.433594 6.1875 17.339844 7.140625 L 17.332031 7.332031 L 17.332031 9.332031 L 19.332031 9.332031 L 19.523438 9.324219 C 20.550781 9.226562 21.332031 8.363281 21.332031 7.332031 C 21.332031 6.304688 20.550781 5.441406 19.523438 5.34375 Z M 19.332031 5.332031 "/>
</g>
</svg>
