<?xml version="1.0" encoding="UTF-8"?>
<svg xmlns="http://www.w3.org/2000/svg" xmlns:xlink="http://www.w3.org/1999/xlink" width="32" height="32" viewBox="0 0 32 32" version="1.1">
<g id="surface1">
<path style=" stroke:none;fill-rule:nonzero;fill:rgb(100%,100%,100%);fill-opacity:1;" d="M 18.667969 22.667969 L 18.667969 30.667969 L 16 30.667969 L 16 22.667969 L 12 22.667969 L 17.332031 16 L 22.667969 22.667969 Z M 21.332031 25.332031 L 25.332031 25.332031 L 25.332031 21.332031 L 24.265625 21.332031 L 17.332031 12.667969 L 10.195312 21.332031 L 8.667969 21.332031 C 7.5625 21.332031 6.667969 22.230469 6.667969 23.332031 C 6.667969 24.4375 7.5625 25.332031 8.667969 25.332031 L 13.332031 25.332031 L 13.332031 28 L 8.667969 28 C 6.089844 28 4 25.910156 4 23.332031 L 4 6.667969 C 4 4.457031 5.789062 2.667969 8 2.667969 L 26.667969 2.667969 C 27.402344 2.667969 28 3.261719 28 4 L 28 26.667969 C 28 27.402344 27.402344 28 26.667969 28 L 21.332031 28 Z M 9.332031 6.667969 L 9.332031 9.332031 L 12 9.332031 L 12 6.667969 Z M 9.332031 10.667969 L 9.332031 13.332031 L 12 13.332031 L 12 10.667969 Z M 9.332031 10.667969 "/>
</g>
</svg>
