<?xml version="1.0" encoding="UTF-8"?>
<svg xmlns="http://www.w3.org/2000/svg" xmlns:xlink="http://www.w3.org/1999/xlink" width="32" height="32" viewBox="0 0 32 32" version="1.1">
<g id="surface1">
<path style=" stroke:none;fill-rule:nonzero;fill:rgb(100%,100%,100%);fill-opacity:1;" d="M 9.472656 20.28125 C 11.273438 20.992188 12.304688 22.890625 11.921875 24.789062 C 11.539062 26.683594 9.855469 28.035156 7.921875 28 C 5.988281 27.964844 4.355469 26.546875 4.046875 24.636719 C 3.738281 22.726562 4.84375 20.871094 6.667969 20.226562 L 6.667969 11.773438 C 4.828125 11.125 3.726562 9.246094 4.054688 7.324219 C 4.386719 5.402344 6.050781 4 8 4 C 9.949219 4 11.613281 5.402344 11.945312 7.324219 C 12.273438 9.246094 11.171875 11.125 9.332031 11.773438 L 9.332031 16 C 10.449219 15.164062 11.832031 14.667969 13.332031 14.667969 L 18.667969 14.667969 C 20.46875 14.667969 22.050781 13.460938 22.527344 11.71875 C 20.71875 11.003906 19.6875 9.09375 20.082031 7.1875 C 20.476562 5.285156 22.183594 3.9375 24.125 4 C 26.070312 4.0625 27.6875 5.511719 27.960938 7.4375 C 28.234375 9.363281 27.085938 11.203125 25.234375 11.804688 C 24.679688 15 21.910156 17.332031 18.667969 17.332031 L 13.332031 17.332031 C 11.53125 17.332031 9.949219 18.539062 9.472656 20.28125 Z M 9.472656 20.28125 "/>
</g>
</svg>
