<?xml version="1.0" encoding="UTF-8"?>
<svg xmlns="http://www.w3.org/2000/svg" xmlns:xlink="http://www.w3.org/1999/xlink" width="32" height="32" viewBox="0 0 32 32" version="1.1">
<g id="surface1">
<path style=" stroke:none;fill-rule:evenodd;fill:rgb(100%,100%,100%);fill-opacity:1;" d="M 0 0 L 0 28 C 0 30.214844 1.785156 32 4 32 L 10 32 C 12.214844 32 14 30.214844 14 28 L 14 24 L 18 24 L 18 28 C 18 30.214844 19.785156 32 22 32 L 28 32 C 30.214844 32 32 30.214844 32 28 L 32 0 L 27 0 C 26.445312 0 26 0.445312 26 1 C 26 1.554688 26.445312 2 27 2 L 30 2 L 30 20.550781 C 29.410156 20.207031 28.734375 20 28 20 L 10.800781 20 C 10.683594 20 10.582031 20.035156 10.46875 20.046875 C 10.3125 20.027344 10.160156 20 10 20 L 4 20 C 3.265625 20 2.589844 20.207031 2 20.550781 L 2 2 L 5 2 C 5.554688 2 6 1.554688 6 1 C 6 0.445312 5.554688 0 5 0 Z M 0 0 "/>
</g>
</svg>
