<?xml version="1.0" encoding="UTF-8"?>
<svg xmlns="http://www.w3.org/2000/svg" xmlns:xlink="http://www.w3.org/1999/xlink" width="32" height="32" viewBox="0 0 32 32" version="1.1">
<g id="surface1">
<path style=" stroke:none;fill-rule:nonzero;fill:rgb(100%,100%,100%);fill-opacity:1;" d="M 16 14.667969 L 27.378906 14.667969 C 27.4375 15.179688 27.464844 15.707031 27.464844 16.246094 C 27.464844 19.890625 26.160156 22.960938 23.894531 25.046875 C 21.914062 26.875 19.207031 27.945312 15.972656 27.945312 C 9.359375 27.949219 3.996094 22.585938 4 15.972656 C 3.996094 9.359375 9.359375 3.996094 15.972656 4 C 19.199219 4 21.910156 5.1875 23.984375 7.117188 L 22.035156 9.066406 C 20.492188 7.574219 18.402344 6.667969 16 6.667969 C 10.84375 6.667969 6.667969 10.84375 6.667969 16 C 6.667969 21.15625 10.84375 25.332031 16 25.332031 C 20.703125 25.332031 24.191406 21.855469 24.769531 17.332031 L 16 17.332031 Z M 16 14.667969 "/>
</g>
</svg>
