<?xml version="1.0" encoding="UTF-8"?>
<svg xmlns="http://www.w3.org/2000/svg" xmlns:xlink="http://www.w3.org/1999/xlink" width="32" height="32" viewBox="0 0 32 32" version="1.1">
<g id="surface1">
<path style=" stroke:none;fill-rule:nonzero;fill:rgb(100%,100%,100%);fill-opacity:1;" d="M 4.085938 10.011719 C 6.347656 5.507812 10.957031 2.664062 16 2.667969 C 19.59375 2.667969 22.613281 3.988281 24.921875 6.140625 L 21.097656 9.964844 C 19.714844 8.644531 17.957031 7.96875 16 7.96875 C 12.527344 7.96875 9.585938 10.316406 8.539062 13.464844 C 8.273438 14.265625 8.121094 15.121094 8.121094 16 C 8.121094 16.878906 8.273438 17.734375 8.539062 18.535156 C 9.589844 21.683594 12.527344 24.03125 16 24.03125 C 17.792969 24.03125 19.320312 23.558594 20.515625 22.757812 C 21.914062 21.835938 22.875 20.382812 23.175781 18.734375 L 16 18.734375 L 16 13.574219 L 28.558594 13.574219 C 28.714844 14.449219 28.800781 15.355469 28.800781 16.300781 C 28.800781 20.363281 27.347656 23.78125 24.824219 26.101562 C 22.617188 28.140625 19.601562 29.332031 16 29.332031 C 8.636719 29.335938 2.664062 23.363281 2.667969 16 C 2.667969 13.847656 3.179688 11.8125 4.085938 10.011719 Z M 4.085938 10.011719 "/>
</g>
</svg>
