<?xml version="1.0" encoding="UTF-8"?>
<svg xmlns="http://www.w3.org/2000/svg" xmlns:xlink="http://www.w3.org/1999/xlink" width="32" height="32" viewBox="0 0 32 32" version="1.1">
<g id="surface1">
<path style=" stroke:none;fill-rule:nonzero;fill:rgb(100%,100%,100%);fill-opacity:1;" d="M 9.507812 27.648438 C 5.285156 25.296875 2.664062 20.835938 2.667969 16 C 2.667969 8.636719 8.636719 2.667969 16 2.667969 C 23.363281 2.667969 29.332031 8.636719 29.332031 16 C 29.335938 20.835938 26.714844 25.296875 22.492188 27.648438 L 21.296875 25.261719 C 25.492188 22.859375 27.550781 17.9375 26.308594 13.261719 C 25.066406 8.589844 20.835938 5.335938 16 5.335938 C 11.164062 5.335938 6.933594 8.589844 5.691406 13.261719 C 4.449219 17.9375 6.503906 22.859375 10.703125 25.261719 Z M 11.898438 22.871094 C 8.808594 21.027344 7.332031 17.34375 8.289062 13.875 C 9.242188 10.40625 12.398438 8 16 8 C 19.597656 8 22.753906 10.40625 23.710938 13.875 C 24.667969 17.34375 23.191406 21.027344 20.101562 22.871094 L 18.902344 20.476562 C 20.882812 19.1875 21.785156 16.753906 21.113281 14.488281 C 20.445312 12.222656 18.363281 10.667969 16 10.667969 C 13.636719 10.667969 11.554688 12.222656 10.886719 14.488281 C 10.214844 16.753906 11.117188 19.1875 13.097656 20.476562 Z M 16 21.332031 L 20 29.332031 L 12 29.332031 Z M 16 21.332031 "/>
</g>
</svg>
