<?xml version="1.0" encoding="UTF-8"?>
<svg xmlns="http://www.w3.org/2000/svg" xmlns:xlink="http://www.w3.org/1999/xlink" width="32" height="32" viewBox="0 0 32 32" version="1.1">
<g id="surface1">
<path style=" stroke:none;fill-rule:evenodd;fill:rgb(100%,100%,100%);fill-opacity:1;" d="M 16 0 C 17.945312 0 19.519531 1.574219 19.519531 3.519531 C 19.519531 5.464844 17.945312 7.039062 16 7.039062 C 14.054688 7.039062 12.480469 5.464844 12.480469 3.519531 C 12.480469 1.574219 14.054688 0 16 0 Z M 16 8.699219 C 22.675781 8.699219 21.179688 21.644531 21.179688 21.644531 L 18.589844 21.644531 L 18.589844 32 L 13.410156 32 L 13.410156 21.644531 L 10.820312 21.644531 C 10.820312 21.644531 9.324219 8.699219 16 8.699219 Z M 16 8.699219 "/>
<path style=" stroke:none;fill-rule:evenodd;fill:rgb(100%,100%,100%);fill-opacity:1;" d="M 5.320312 0 C 7.265625 0 8.839844 1.574219 8.839844 3.519531 C 8.839844 5.464844 7.265625 7.039062 5.320312 7.039062 C 3.378906 7.039062 1.804688 5.464844 1.800781 3.519531 C 1.804688 1.574219 3.378906 0 5.320312 0 Z M 5.320312 8.699219 C 11.996094 8.699219 10.5 21.644531 10.5 21.644531 L 7.910156 21.644531 L 7.910156 32 L 2.734375 32 L 2.734375 21.644531 L 0.144531 21.644531 C 0.144531 21.644531 -1.351562 8.699219 5.320312 8.699219 Z M 5.320312 8.699219 "/>
<path style=" stroke:none;fill-rule:evenodd;fill:rgb(100%,100%,100%);fill-opacity:1;" d="M 26.679688 0 C 28.621094 0 30.195312 1.574219 30.199219 3.519531 C 30.195312 5.464844 28.621094 7.039062 26.679688 7.039062 C 24.734375 7.039062 23.160156 5.464844 23.160156 3.519531 C 23.160156 1.574219 24.734375 0 26.679688 0 Z M 26.679688 8.699219 C 33.351562 8.699219 31.855469 21.644531 31.855469 21.644531 L 29.265625 21.644531 L 29.265625 32 L 24.089844 32 L 24.089844 21.644531 L 21.5 21.644531 C 21.5 21.644531 20.003906 8.699219 26.679688 8.699219 Z M 26.679688 8.699219 "/>
</g>
</svg>
