<?xml version="1.0" encoding="UTF-8"?>
<svg xmlns="http://www.w3.org/2000/svg" xmlns:xlink="http://www.w3.org/1999/xlink" width="32" height="32" viewBox="0 0 32 32" version="1.1">
<g id="surface1">
<path style=" stroke:none;fill-rule:nonzero;fill:rgb(100%,100%,100%);fill-opacity:1;" d="M 17.332031 10.667969 L 17.332031 21.332031 C 17.332031 23.542969 15.542969 25.332031 13.332031 25.332031 L 10.441406 25.332031 C 9.789062 27.171875 7.910156 28.273438 5.992188 27.945312 C 4.070312 27.613281 2.667969 25.949219 2.667969 24 C 2.667969 22.050781 4.070312 20.386719 5.992188 20.054688 C 7.910156 19.726562 9.789062 20.828125 10.441406 22.667969 L 13.332031 22.667969 C 14.070312 22.667969 14.667969 22.070312 14.667969 21.332031 L 14.667969 10.667969 C 14.667969 8.457031 16.457031 6.667969 18.667969 6.667969 L 22.667969 6.667969 L 22.667969 2.667969 L 29.332031 8 L 22.667969 13.332031 L 22.667969 9.332031 L 18.667969 9.332031 C 17.929688 9.332031 17.332031 9.929688 17.332031 10.667969 Z M 17.332031 10.667969 "/>
</g>
</svg>
