<?xml version="1.0" encoding="UTF-8"?>
<svg xmlns="http://www.w3.org/2000/svg" xmlns:xlink="http://www.w3.org/1999/xlink" width="32" height="32" viewBox="0 0 32 32" version="1.1">
<g id="surface1">
<path style=" stroke:none;fill-rule:evenodd;fill:rgb(100%,100%,100%);fill-opacity:1;" d="M 16.003906 0 C 7.191406 0 0 7.191406 0 16.003906 C 0 19.691406 1.269531 23.085938 3.378906 25.792969 L 0.589844 28.582031 C 0.210938 28.957031 0 29.46875 0 30 C 0 30.53125 0.210938 31.042969 0.589844 31.417969 C 1.371094 32.195312 2.628906 32.195312 3.410156 31.417969 L 6.210938 28.617188 C 8.921875 30.726562 12.316406 31.992188 16.003906 31.992188 C 24.269531 31.992188 30.585938 25.460938 31.402344 17.40625 C 31.777344 17.035156 31.988281 16.53125 31.992188 16.003906 C 31.996094 15.464844 31.785156 14.949219 31.402344 14.570312 C 31.09375 11.570312 30.019531 8.78125 28.367188 6.460938 L 31.417969 3.410156 C 32.195312 2.628906 32.195312 1.371094 31.417969 0.589844 C 31.027344 0.199219 30.492188 -0.015625 29.941406 0 C 29.429688 0.015625 28.941406 0.226562 28.582031 0.589844 L 25.648438 3.523438 C 23.042969 1.332031 19.722656 0 16.003906 0 Z M 16.003906 4 C 18.160156 4 20.175781 4.570312 21.921875 5.558594 C 21.179688 5.636719 20.417969 5.792969 19.628906 6.035156 C 18.621094 6.347656 17.566406 6.820312 16.503906 7.367188 C 15.511719 6.707031 14.519531 6.128906 13.550781 5.710938 C 12.769531 5.375 12 5.132812 11.246094 4.980469 C 12.703125 4.355469 14.308594 4 16.003906 4 Z M 9.742188 7.515625 C 10.421875 7.535156 11.34375 7.753906 12.378906 8.199219 C 12.847656 8.402344 13.339844 8.664062 13.84375 8.953125 C 12.972656 9.550781 12.105469 10.1875 11.253906 10.917969 C 10.40625 11.644531 9.652344 12.402344 8.941406 13.160156 C 8.695312 12.648438 8.480469 12.144531 8.324219 11.675781 C 7.976562 10.640625 7.855469 9.738281 7.910156 9.085938 C 7.964844 8.4375 8.152344 8.101562 8.414062 7.875 C 8.675781 7.648438 9.0625 7.496094 9.742188 7.515625 Z M 23.203125 8.234375 C 23.882812 8.289062 24.246094 8.480469 24.480469 8.730469 C 24.714844 8.984375 24.859375 9.339844 24.839844 9.992188 C 24.820312 10.644531 24.59375 11.527344 24.128906 12.519531 C 23.917969 12.96875 23.644531 13.441406 23.34375 13.925781 C 22.726562 13.097656 22.0625 12.269531 21.304688 11.457031 C 20.542969 10.640625 19.753906 9.914062 18.957031 9.226562 C 19.492188 8.992188 20.015625 8.785156 20.503906 8.632812 C 21.582031 8.300781 22.523438 8.183594 23.203125 8.234375 Z M 16.3125 10.660156 C 17.277344 11.425781 18.246094 12.285156 19.175781 13.28125 C 20.105469 14.277344 20.886719 15.296875 21.566406 16.296875 C 20.773438 17.226562 19.878906 18.164062 18.839844 19.054688 C 17.800781 19.945312 16.738281 20.691406 15.691406 21.34375 C 14.722656 20.585938 13.753906 19.730469 12.824219 18.734375 C 11.894531 17.738281 11.113281 16.714844 10.429688 15.707031 C 11.222656 14.78125 12.117188 13.855469 13.15625 12.960938 C 14.195312 12.070312 15.261719 11.316406 16.3125 10.660156 Z M 5.1875 10.8125 C 5.285156 11.367188 5.417969 11.933594 5.613281 12.515625 C 5.933594 13.472656 6.441406 14.472656 7.03125 15.480469 C 6.332031 16.445312 5.71875 17.40625 5.277344 18.34375 C 5.023438 18.886719 4.832031 19.421875 4.675781 19.953125 C 4.246094 18.714844 4 17.390625 4 16.003906 C 4 14.140625 4.433594 12.382812 5.1875 10.8125 Z M 27.332031 12.046875 C 27.761719 13.285156 28.007812 14.613281 28.007812 16.003906 C 28.007812 17.875 27.570312 19.636719 26.8125 21.210938 C 26.71875 20.644531 26.585938 20.066406 26.386719 19.472656 C 26.058594 18.496094 25.558594 17.472656 24.980469 16.445312 C 25.679688 15.503906 26.296875 14.5625 26.726562 13.644531 C 26.980469 13.105469 27.171875 12.574219 27.332031 12.046875 Z M 16.054688 14 C 15.542969 13.988281 15.046875 14.167969 14.667969 14.507812 C 13.84375 15.242188 13.773438 16.507812 14.507812 17.332031 C 15.242188 18.15625 16.507812 18.230469 17.332031 17.492188 C 18.15625 16.757812 18.226562 15.492188 17.492188 14.667969 C 17.125 14.257812 16.605469 14.015625 16.054688 14 Z M 8.699219 17.988281 C 9.226562 18.683594 9.785156 19.375 10.394531 20.058594 C 10.464844 20.242188 10.570312 20.40625 10.710938 20.542969 C 10.820312 20.660156 10.949219 20.761719 11.09375 20.835938 C 11.75 21.515625 12.425781 22.144531 13.105469 22.738281 C 12.546875 22.984375 12.007812 23.195312 11.5 23.351562 C 10.421875 23.683594 9.476562 23.804688 8.796875 23.75 C 8.117188 23.699219 7.75 23.535156 7.515625 23.28125 C 7.28125 23.03125 7.140625 22.648438 7.160156 21.996094 C 7.179688 21.34375 7.40625 20.457031 7.871094 19.464844 C 8.09375 18.992188 8.375 18.5 8.699219 17.988281 Z M 23.035156 18.769531 C 23.292969 19.304688 23.511719 19.824219 23.675781 20.3125 C 24.023438 21.347656 24.144531 22.25 24.089844 22.898438 C 24.035156 23.550781 23.847656 23.914062 23.585938 24.140625 C 23.324219 24.367188 22.9375 24.488281 22.257812 24.46875 C 21.578125 24.449219 20.65625 24.234375 19.621094 23.789062 C 19.128906 23.578125 18.609375 23.308594 18.078125 23 C 18.800781 22.496094 19.523438 21.953125 20.238281 21.367188 C 20.421875 21.304688 20.589844 21.207031 20.730469 21.082031 C 20.859375 20.976562 20.96875 20.84375 21.050781 20.699219 C 21.757812 20.070312 22.414062 19.421875 23.035156 18.769531 Z M 15.492188 24.582031 C 16.484375 25.261719 17.476562 25.859375 18.449219 26.277344 C 19.242188 26.621094 20.015625 26.867188 20.773438 27.023438 C 19.3125 27.65625 17.703125 28.007812 16.003906 28.007812 C 13.839844 28.007812 11.816406 27.433594 10.066406 26.4375 C 10.8125 26.359375 11.582031 26.199219 12.375 25.953125 C 13.382812 25.640625 14.433594 25.152344 15.492188 24.582031 Z M 15.492188 24.582031 "/>
</g>
</svg>
