<?xml version="1.0" encoding="UTF-8"?>
<svg xmlns="http://www.w3.org/2000/svg" xmlns:xlink="http://www.w3.org/1999/xlink" width="32" height="32" viewBox="0 0 32 32" version="1.1">
<g id="surface1">
<path style=" stroke:none;fill-rule:nonzero;fill:rgb(100%,100%,100%);fill-opacity:1;" d="M 29.332031 10.667969 L 29.332031 13.332031 L 23.570312 13.332031 L 22.949219 16.847656 C 23.390625 16.730469 23.855469 16.667969 24.332031 16.667969 C 27.28125 16.667969 29.667969 19.054688 29.667969 22 C 29.667969 24.945312 27.28125 27.332031 24.332031 27.332031 C 21.898438 27.332031 19.84375 25.703125 19.207031 23.46875 L 21.769531 22.734375 C 22.089844 23.851562 23.117188 24.667969 24.332031 24.667969 C 25.808594 24.667969 27 23.472656 27 22 C 27 20.527344 25.808594 19.332031 24.332031 19.332031 C 23.492188 19.332031 22.742188 19.722656 22.253906 20.332031 L 19.839844 19.125 L 21.332031 10.667969 Z M 5.332031 5.332031 L 5.332031 14.667969 L 14.667969 14.667969 L 14.667969 5.332031 L 17.332031 5.332031 L 17.332031 26.667969 L 14.667969 26.667969 L 14.667969 17.332031 L 5.332031 17.332031 L 5.332031 26.667969 L 2.667969 26.667969 L 2.667969 5.332031 Z M 5.332031 5.332031 "/>
</g>
</svg>
