<?xml version="1.0" encoding="UTF-8"?>
<svg xmlns="http://www.w3.org/2000/svg" xmlns:xlink="http://www.w3.org/1999/xlink" width="32" height="32" viewBox="0 0 32 32" version="1.1">
<g id="surface1">
<path style=" stroke:none;fill-rule:nonzero;fill:rgb(100%,100%,100%);fill-opacity:1;" d="M 8 23.222656 C 3.273438 21.304688 0.566406 16.308594 1.539062 11.300781 C 2.515625 6.292969 6.898438 2.671875 12 2.667969 C 16.398438 2.667969 20.347656 5.367188 21.945312 9.464844 C 25.808594 8.699219 29.589844 11.128906 30.5 14.964844 C 31.410156 18.796875 29.128906 22.667969 25.332031 23.722656 L 25.332031 20.882812 C 27.019531 20.085938 28.066406 18.359375 27.996094 16.496094 C 27.925781 14.632812 26.757812 12.988281 25.015625 12.316406 C 23.277344 11.644531 21.304688 12.070312 20 13.402344 L 20 13.332031 C 20 9.449219 17.210938 6.128906 13.386719 5.457031 C 9.566406 4.78125 5.808594 6.949219 4.480469 10.597656 C 3.15625 14.246094 4.636719 18.320312 8 20.261719 Z M 13.332031 22.667969 C 11.859375 22.667969 10.667969 21.472656 10.667969 20 C 10.667969 18.527344 11.859375 17.332031 13.332031 17.332031 C 14.804688 17.332031 16 18.527344 16 20 C 16 21.472656 14.804688 22.667969 13.332031 22.667969 Z M 20 26.667969 C 18.527344 26.667969 17.332031 25.472656 17.332031 24 C 17.332031 22.527344 18.527344 21.332031 20 21.332031 C 21.472656 21.332031 22.667969 22.527344 22.667969 24 C 22.667969 25.472656 21.472656 26.667969 20 26.667969 Z M 13.332031 30.667969 C 11.859375 30.667969 10.667969 29.472656 10.667969 28 C 10.667969 26.527344 11.859375 25.332031 13.332031 25.332031 C 14.804688 25.332031 16 26.527344 16 28 C 16 29.472656 14.804688 30.667969 13.332031 30.667969 Z M 13.332031 30.667969 "/>
</g>
</svg>
