<?xml version="1.0" encoding="UTF-8"?>
<svg xmlns="http://www.w3.org/2000/svg" xmlns:xlink="http://www.w3.org/1999/xlink" width="32" height="32" viewBox="0 0 32 32" version="1.1">
<g id="surface1">
<path style=" stroke:none;fill-rule:nonzero;fill:rgb(100%,100%,100%);fill-opacity:1;" d="M 22.667969 2.667969 L 22.667969 5.332031 L 17.332031 5.332031 L 17.332031 8 L 21.332031 8 L 21.332031 10.667969 C 24.28125 10.667969 26.667969 13.054688 26.667969 16 L 26.667969 26.667969 C 26.667969 28.140625 25.472656 29.332031 24 29.332031 L 8 29.332031 C 6.527344 29.332031 5.332031 28.140625 5.332031 26.667969 L 5.332031 16 C 5.332031 13.054688 7.71875 10.667969 10.667969 10.667969 L 10.667969 8 L 14.667969 8 L 14.667969 5.332031 L 10 5.332031 C 9.160156 5.332031 8.171875 5.988281 7.066406 7.464844 L 4.933594 5.867188 C 6.492188 3.785156 8.171875 2.667969 10 2.667969 Z M 21.332031 13.332031 L 10.667969 13.332031 C 9.191406 13.332031 8 14.527344 8 16 L 8 26.667969 L 24 26.667969 L 24 16 C 24 14.527344 22.808594 13.332031 21.332031 13.332031 Z M 17.332031 16 L 17.332031 18.667969 L 20 18.667969 L 20 21.332031 L 17.332031 21.332031 L 17.332031 24 L 14.667969 24 L 14.664062 21.332031 L 12 21.332031 L 12 18.667969 L 14.667969 18.667969 L 14.667969 16 Z M 17.332031 16 "/>
</g>
</svg>
