<?xml version="1.0" encoding="UTF-8"?>
<svg xmlns="http://www.w3.org/2000/svg" xmlns:xlink="http://www.w3.org/1999/xlink" width="32" height="32" viewBox="0 0 32 32" version="1.1">
<g id="surface1">
<path style=" stroke:none;fill-rule:nonzero;fill:rgb(100%,100%,100%);fill-opacity:1;" d="M 16 2.667969 C 21.15625 2.667969 25.332031 6.84375 25.332031 12 L 26.765625 12 C 27.460938 12 28.042969 12.535156 28.09375 13.230469 L 29.222656 27.898438 C 29.28125 28.632812 28.730469 29.273438 27.996094 29.328125 L 27.894531 29.332031 L 4.105469 29.332031 C 3.371094 29.332031 2.773438 28.738281 2.773438 28 L 2.777344 27.898438 L 3.90625 13.230469 C 3.957031 12.535156 4.539062 12 5.234375 12 L 6.667969 12 C 6.667969 6.84375 10.84375 2.667969 16 2.667969 Z M 25.53125 14.667969 L 6.46875 14.667969 L 5.546875 26.667969 L 26.453125 26.667969 Z M 18.667969 17.332031 L 18.667969 20 L 13.332031 20 L 13.332031 17.332031 Z M 16 5.332031 C 12.429688 5.332031 9.496094 8.144531 9.339844 11.710938 L 9.332031 12 L 22.667969 12 C 22.667969 8.429688 19.855469 5.496094 16.289062 5.339844 Z M 16 5.332031 "/>
</g>
</svg>
