<?xml version="1.0" encoding="UTF-8"?>
<svg xmlns="http://www.w3.org/2000/svg" xmlns:xlink="http://www.w3.org/1999/xlink" width="32" height="32" viewBox="0 0 32 32" version="1.1">
<g id="surface1">
<path style=" stroke:none;fill-rule:evenodd;fill:rgb(100%,100%,100%);fill-opacity:1;" d="M 6 0 C 3.785156 0 2 1.785156 2 4 L 2 28 C 2 30.214844 3.785156 32 6 32 L 26 32 C 28.214844 32 30 30.214844 30 28 L 30 4 C 30 1.785156 28.214844 0 26 0 Z M 16 4 C 21.523438 4 26 8.476562 26 14 C 26 19.523438 21.523438 24 16 24 C 15.542969 24 15.089844 23.96875 14.636719 23.90625 L 18.441406 19.253906 C 19.347656 18.246094 19.222656 16.769531 18.441406 15.960938 C 18.175781 15.683594 17.8125 15.515625 17.429688 15.398438 C 17.796875 15.023438 18 14.523438 18 14 C 18 12.894531 17.105469 12 16 12 C 14.894531 12 14 12.894531 14 14 C 14 14.753906 14.425781 15.441406 15.097656 15.78125 L 8.617188 20.738281 C 6.933594 18.898438 6 16.492188 6 14 C 6 8.476562 10.476562 4 16 4 Z M 16.757812 17.199219 C 16.867188 17.210938 16.9375 17.277344 17.007812 17.347656 C 17.144531 17.492188 17.261719 17.582031 16.964844 17.910156 L 16.949219 17.9375 L 9.300781 27.285156 C 8.046875 28.507812 7.105469 28.210938 6.496094 27.578125 C 5.890625 26.949219 5.644531 25.886719 6.730469 24.699219 L 16.300781 17.390625 C 16.507812 17.234375 16.648438 17.1875 16.757812 17.199219 Z M 16.757812 17.199219 "/>
</g>
</svg>
