<?xml version="1.0" encoding="UTF-8"?>
<svg xmlns="http://www.w3.org/2000/svg" xmlns:xlink="http://www.w3.org/1999/xlink" width="32" height="32" viewBox="0 0 32 32" version="1.1">
<g id="surface1">
<path style=" stroke:none;fill-rule:nonzero;fill:rgb(100%,100%,100%);fill-opacity:1;" d="M 10.378906 18.667969 L 10.9375 13.332031 L 5.332031 13.332031 L 5.332031 10.667969 L 11.21875 10.667969 L 11.921875 4 L 14.601562 4 L 13.902344 10.667969 L 19.21875 10.667969 L 19.921875 4 L 22.601562 4 L 21.902344 10.667969 L 26.667969 10.667969 L 26.667969 13.332031 L 21.621094 13.332031 L 21.0625 18.667969 L 26.667969 18.667969 L 26.667969 21.332031 L 20.78125 21.332031 L 20.078125 28 L 17.398438 28 L 18.097656 21.332031 L 12.78125 21.332031 L 12.078125 28 L 9.398438 28 L 10.097656 21.332031 L 5.332031 21.332031 L 5.332031 18.667969 Z M 13.058594 18.667969 L 18.378906 18.667969 L 18.941406 13.332031 L 13.621094 13.332031 Z M 13.058594 18.667969 "/>
</g>
</svg>
