<?xml version="1.0" encoding="UTF-8"?>
<svg xmlns="http://www.w3.org/2000/svg" xmlns:xlink="http://www.w3.org/1999/xlink" width="32" height="32" viewBox="0 0 32 32" version="1.1">
<g id="surface1">
<path style=" stroke:none;fill-rule:nonzero;fill:rgb(100%,100%,100%);fill-opacity:1;" d="M 16 25.332031 C 17.105469 25.332031 18 26.230469 18 27.332031 C 18 28.4375 17.105469 29.332031 16 29.332031 C 14.894531 29.332031 14 28.4375 14 27.332031 C 14 26.230469 14.894531 25.332031 16 25.332031 Z M 26 25.332031 C 27.105469 25.332031 28 26.230469 28 27.332031 C 28 28.4375 27.105469 29.332031 26 29.332031 C 24.894531 29.332031 24 28.4375 24 27.332031 C 24 26.230469 24.894531 25.332031 26 25.332031 Z M 6 25.332031 C 7.105469 25.332031 8 26.230469 8 27.332031 C 8 28.4375 7.105469 29.332031 6 29.332031 C 4.894531 29.332031 4 28.4375 4 27.332031 C 4 26.230469 4.894531 25.332031 6 25.332031 Z M 22.667969 9.332031 C 26.347656 9.332031 29.332031 12.316406 29.332031 16 C 29.332031 19.683594 26.347656 22.667969 22.667969 22.667969 C 20.207031 22.667969 17.988281 21.28125 16 18.503906 C 14.011719 21.28125 11.792969 22.667969 9.332031 22.667969 C 5.652344 22.667969 2.667969 19.683594 2.667969 16 C 2.667969 12.316406 5.652344 9.332031 9.332031 9.332031 C 11.792969 9.332031 14.011719 10.71875 16 13.496094 C 17.988281 10.71875 20.207031 9.332031 22.667969 9.332031 Z M 16 2.667969 C 17.105469 2.667969 18 3.5625 18 4.667969 C 18 5.769531 17.105469 6.667969 16 6.667969 C 14.894531 6.667969 14 5.769531 14 4.667969 C 14 3.5625 14.894531 2.667969 16 2.667969 Z M 6 2.667969 C 7.105469 2.667969 8 3.5625 8 4.667969 C 8 5.769531 7.105469 6.667969 6 6.667969 C 4.894531 6.667969 4 5.769531 4 4.667969 C 4 3.5625 4.894531 2.667969 6 2.667969 Z M 26 2.667969 C 27.105469 2.667969 28 3.5625 28 4.667969 C 28 5.769531 27.105469 6.667969 26 6.667969 C 24.894531 6.667969 24 5.769531 24 4.667969 C 24 3.5625 24.894531 2.667969 26 2.667969 Z M 26 2.667969 "/>
</g>
</svg>
