<?xml version="1.0" encoding="UTF-8"?>
<svg xmlns="http://www.w3.org/2000/svg" xmlns:xlink="http://www.w3.org/1999/xlink" width="32" height="32" viewBox="0 0 32 32" version="1.1">
<g id="surface1">
<path style=" stroke:none;fill-rule:nonzero;fill:rgb(100%,100%,100%);fill-opacity:1;" d="M 8.109375 17.332031 C 7.582031 14.199219 8.960938 11.050781 11.621094 9.3125 C 14.28125 7.574219 17.71875 7.574219 20.378906 9.3125 C 23.039062 11.050781 24.417969 14.199219 23.890625 17.332031 Z M 2.667969 20 L 16 20 L 16 22.667969 L 2.667969 22.667969 Z M 18.667969 20 L 29.332031 20 L 29.332031 22.667969 L 18.667969 22.667969 Z M 21.332031 25.332031 L 26.667969 25.332031 L 26.667969 28 L 21.332031 28 Z M 5.332031 25.332031 L 18.667969 25.332031 L 18.667969 28 L 5.332031 28 Z M 14.667969 1.332031 L 17.332031 1.332031 L 17.332031 5.332031 L 14.667969 5.332031 Z M 4.6875 6.570312 L 6.570312 4.6875 L 9.398438 7.515625 L 7.515625 9.398438 L 4.6875 6.574219 Z M 25.425781 4.6875 L 27.3125 6.570312 L 24.484375 9.398438 L 22.597656 7.515625 Z M 30.667969 14.667969 L 30.667969 17.332031 L 26.667969 17.332031 L 26.667969 14.667969 Z M 5.332031 14.667969 L 5.332031 17.332031 L 1.332031 17.332031 L 1.332031 14.667969 Z M 5.332031 14.667969 "/>
</g>
</svg>
