<?xml version="1.0" encoding="UTF-8"?>
<svg xmlns="http://www.w3.org/2000/svg" xmlns:xlink="http://www.w3.org/1999/xlink" width="32" height="32" viewBox="0 0 32 32" version="1.1">
<g id="surface1">
<path style=" stroke:none;fill-rule:nonzero;fill:rgb(100%,100%,100%);fill-opacity:1;" d="M 26.667969 2.667969 C 27.402344 2.667969 28 3.265625 28 4 L 28 28 C 28 28.734375 27.402344 29.332031 26.667969 29.332031 L 8 29.332031 C 7.265625 29.332031 6.667969 28.734375 6.667969 28 L 6.667969 25.332031 L 4 25.332031 L 4 22.667969 L 6.667969 22.667969 L 6.667969 20 L 4 20 L 4 17.332031 L 6.667969 17.332031 L 6.667969 14.667969 L 4 14.667969 L 4 12 L 6.667969 12 L 6.667969 9.332031 L 4 9.332031 L 4 6.667969 L 6.667969 6.667969 L 6.667969 4 C 6.667969 3.265625 7.265625 2.667969 8 2.667969 Z M 18.667969 10.667969 L 16 10.667969 L 16 14.667969 L 12 14.667969 L 12 17.332031 L 16 17.332031 L 16 21.332031 L 18.667969 21.332031 L 18.664062 17.332031 L 22.667969 17.332031 L 22.667969 14.667969 L 18.667969 14.667969 Z M 18.667969 10.667969 "/>
</g>
</svg>
