<?xml version="1.0" encoding="UTF-8"?>
<svg xmlns="http://www.w3.org/2000/svg" xmlns:xlink="http://www.w3.org/1999/xlink" width="32" height="32" viewBox="0 0 32 32" version="1.1">
<g id="surface1">
<path style=" stroke:none;fill-rule:nonzero;fill:rgb(100%,100%,100%);fill-opacity:1;" d="M 25.332031 18.667969 L 25.332031 22.667969 L 29.332031 22.667969 L 29.332031 25.332031 L 25.332031 25.332031 L 25.332031 29.332031 L 22.667969 29.332031 L 22.664062 25.332031 L 18.667969 25.332031 L 18.667969 22.667969 L 22.667969 22.667969 L 22.667969 18.667969 Z M 26.992188 6.34375 C 30.007812 9.367188 30.109375 14.183594 27.304688 17.324219 L 25.410156 15.433594 C 27.1875 13.398438 27.09375 10.214844 25.101562 8.226562 C 23.097656 6.226562 19.875 6.144531 17.78125 8.023438 L 16.003906 9.621094 L 14.222656 8.023438 C 12.121094 6.140625 8.898438 6.222656 6.894531 8.230469 C 4.910156 10.214844 4.808594 13.394531 6.640625 15.496094 L 17.882812 26.757812 L 16 28.648438 L 4.691406 17.324219 C 1.886719 14.183594 1.992188 9.359375 5.007812 6.34375 C 8.027344 3.324219 12.859375 3.222656 16 6.039062 C 19.132812 3.226562 23.972656 3.320312 26.988281 6.34375 Z M 26.992188 6.34375 "/>
</g>
</svg>
