<?xml version="1.0" encoding="UTF-8"?>
<svg xmlns="http://www.w3.org/2000/svg" xmlns:xlink="http://www.w3.org/1999/xlink" width="32" height="32" viewBox="0 0 32 32" version="1.1">
<g id="surface1">
<path style=" stroke:none;fill-rule:nonzero;fill:rgb(100%,100%,100%);fill-opacity:1;" d="M 22 4 C 26.050781 4 29.332031 7.332031 29.332031 12 C 29.332031 21.332031 19.332031 26.667969 16 28.667969 C 13.363281 27.085938 6.554688 23.417969 3.824219 17.335938 L 1.332031 17.332031 L 1.332031 14.667969 L 2.945312 14.667969 C 2.765625 13.820312 2.667969 12.929688 2.667969 12 C 2.667969 7.332031 6 4 10 4 C 12.480469 4 14.667969 5.332031 16 6.667969 C 17.332031 5.332031 19.519531 4 22 4 Z M 22 6.667969 C 20.566406 6.667969 19.011719 7.425781 17.886719 8.550781 L 16 10.4375 L 14.113281 8.550781 C 12.988281 7.425781 11.433594 6.667969 10 6.667969 C 7.414062 6.667969 5.332031 8.875 5.332031 12 C 5.332031 12.914062 5.453125 13.800781 5.6875 14.667969 L 8.578125 14.667969 L 11.332031 10.074219 L 15.332031 16.742188 L 16.578125 14.667969 L 22.667969 14.667969 L 22.667969 17.332031 L 18.089844 17.332031 L 15.332031 21.925781 L 11.332031 15.257812 L 10.089844 17.332031 L 6.8125 17.332031 C 7.863281 19.164062 9.457031 20.890625 11.527344 22.539062 C 12.519531 23.328125 13.578125 24.0625 14.753906 24.804688 C 15.152344 25.054688 15.546875 25.296875 16 25.566406 C 16.453125 25.296875 16.847656 25.054688 17.246094 24.804688 C 18.421875 24.0625 19.480469 23.328125 20.472656 22.539062 C 24.445312 19.378906 26.667969 15.925781 26.667969 12 C 26.667969 8.851562 24.617188 6.667969 22 6.667969 Z M 22 6.667969 "/>
</g>
</svg>
