<?xml version="1.0" encoding="UTF-8"?>
<svg xmlns="http://www.w3.org/2000/svg" xmlns:xlink="http://www.w3.org/1999/xlink" width="32" height="32" viewBox="0 0 32 32" version="1.1">
<g id="surface1">
<path style=" stroke:none;fill-rule:nonzero;fill:rgb(100%,100%,100%);fill-opacity:1;" d="M 25.65625 6.34375 C 27.605469 8.296875 28.339844 11 27.855469 13.515625 C 28.613281 13.730469 29.332031 14.132812 29.929688 14.726562 C 31.800781 16.585938 31.800781 19.597656 29.929688 21.457031 L 22.667969 28.667969 L 18.636719 24.667969 L 14.667969 28.648438 L 3.359375 17.324219 C 0.554688 14.183594 0.660156 9.359375 3.675781 6.34375 C 6.695312 3.324219 11.527344 3.222656 14.667969 6.039062 C 17.800781 3.226562 22.640625 3.320312 25.65625 6.34375 Z M 17.28125 16.621094 C 16.460938 17.433594 16.460938 18.75 17.28125 19.5625 L 22.667969 24.910156 L 28.050781 19.5625 C 28.871094 18.75 28.871094 17.433594 28.050781 16.621094 C 27.21875 15.792969 25.863281 15.792969 25.027344 16.621094 L 22.664062 18.960938 L 20.789062 17.101562 L 20.304688 16.621094 C 19.472656 15.792969 18.113281 15.792969 17.28125 16.621094 Z M 5.5625 8.230469 C 3.574219 10.214844 3.476562 13.394531 5.308594 15.496094 L 14.667969 24.871094 L 16.746094 22.789062 L 15.402344 21.457031 C 13.53125 19.597656 13.53125 16.585938 15.402344 14.726562 C 17.277344 12.871094 20.3125 12.871094 22.183594 14.726562 L 22.667969 15.207031 L 23.152344 14.726562 C 23.71875 14.164062 24.390625 13.773438 25.105469 13.550781 C 25.660156 11.726562 25.207031 9.667969 23.769531 8.226562 C 21.769531 6.222656 18.542969 6.144531 16.449219 8.023438 L 14.667969 9.621094 L 12.886719 8.023438 C 10.789062 6.140625 7.566406 6.222656 5.5625 8.230469 Z M 5.5625 8.230469 "/>
</g>
</svg>
