<?xml version="1.0" encoding="UTF-8"?>
<svg xmlns="http://www.w3.org/2000/svg" xmlns:xlink="http://www.w3.org/1999/xlink" width="32" height="32" viewBox="0 0 32 32" version="1.1">
<g id="surface1">
<path style=" stroke:none;fill-rule:nonzero;fill:rgb(100%,100%,100%);fill-opacity:1;" d="M 17.332031 24 L 17.332031 30.667969 L 14.667969 30.667969 L 14.667969 24 L 12 24 L 12 28 L 9.332031 28 L 9.332031 23.664062 C 4.453125 22.402344 1.125 17.894531 1.347656 12.859375 C 1.574219 7.824219 5.296875 3.632812 10.269531 2.8125 C 15.246094 1.992188 20.113281 4.765625 21.945312 9.464844 C 24.679688 8.941406 27.472656 10.011719 29.160156 12.226562 C 30.84375 14.445312 31.128906 17.425781 29.894531 19.917969 C 28.660156 22.414062 26.117188 23.996094 23.332031 24 L 22.667969 24 L 22.667969 28 L 20 28 L 20 24 Z M 17.332031 24 "/>
</g>
</svg>
