<?xml version="1.0" encoding="UTF-8"?>
<svg xmlns="http://www.w3.org/2000/svg" xmlns:xlink="http://www.w3.org/1999/xlink" width="32" height="32" viewBox="0 0 32 32" version="1.1">
<g id="surface1">
<path style=" stroke:none;fill-rule:nonzero;fill:rgb(100%,100%,100%);fill-opacity:1;" d="M 26.667969 26.667969 C 26.667969 27.402344 26.070312 28 25.332031 28 L 6.667969 28 C 5.929688 28 5.332031 27.402344 5.332031 26.667969 L 5.332031 14.667969 L 1.332031 14.667969 L 15.101562 2.148438 C 15.613281 1.6875 16.386719 1.6875 16.898438 2.148438 L 30.667969 14.667969 L 26.667969 14.667969 Z M 11.457031 18.410156 L 10.132812 19.171875 L 11.46875 21.484375 L 12.792969 20.71875 C 13.324219 21.222656 13.964844 21.59375 14.664062 21.800781 L 14.664062 23.328125 L 17.335938 23.328125 L 17.335938 21.800781 C 18.035156 21.589844 18.675781 21.222656 19.207031 20.71875 L 20.53125 21.484375 L 21.867188 19.171875 L 20.546875 18.410156 C 20.714844 17.699219 20.714844 16.960938 20.546875 16.25 L 21.867188 15.488281 L 20.535156 13.175781 L 19.210938 13.941406 C 18.675781 13.4375 18.035156 13.066406 17.332031 12.859375 L 17.332031 11.332031 L 14.664062 11.332031 L 14.664062 12.859375 C 13.964844 13.066406 13.320312 13.4375 12.789062 13.941406 L 11.46875 13.175781 L 10.132812 15.488281 L 11.453125 16.25 C 11.285156 16.960938 11.285156 17.699219 11.453125 18.410156 Z M 16 19.332031 C 14.894531 19.332031 14 18.4375 13.996094 17.332031 C 13.996094 16.226562 14.890625 15.328125 15.996094 15.328125 C 17.101562 15.328125 17.996094 16.222656 18 17.328125 C 18 18.433594 17.105469 19.328125 16 19.328125 Z M 16 19.332031 "/>
</g>
</svg>
