<?xml version="1.0" encoding="UTF-8"?>
<svg xmlns="http://www.w3.org/2000/svg" xmlns:xlink="http://www.w3.org/1999/xlink" width="32" height="32" viewBox="0 0 32 32" version="1.1">
<g id="surface1">
<path style=" stroke:none;fill-rule:nonzero;fill:rgb(100%,100%,100%);fill-opacity:1;" d="M 28.210938 5.675781 C 28.257812 10.34375 29 12.09375 29.261719 14.613281 C 29.664062 18.46875 28.386719 22.46875 25.429688 25.429688 C 20.539062 30.316406 12.800781 30.613281 7.5625 26.324219 L 11.363281 22.519531 C 14.488281 24.746094 18.851562 24.460938 21.65625 21.65625 C 24.460938 18.851562 24.746094 14.488281 22.519531 11.363281 Z M 24.4375 5.675781 L 20.636719 9.480469 C 17.511719 7.253906 13.148438 7.539062 10.34375 10.34375 C 7.539062 13.148438 7.253906 17.511719 9.480469 20.636719 L 3.789062 26.324219 C 3.742188 21.65625 3 19.90625 2.738281 17.386719 C 2.335938 13.53125 3.613281 9.53125 6.570312 6.570312 C 11.460938 1.683594 19.199219 1.386719 24.4375 5.675781 Z M 16 10.667969 C 18.945312 10.667969 21.332031 13.054688 21.332031 16 C 21.332031 18.945312 18.945312 21.332031 16 21.332031 C 13.054688 21.332031 10.667969 18.945312 10.667969 16 C 10.667969 13.054688 13.054688 10.667969 16 10.667969 Z M 16 14 C 14.894531 14 14 14.894531 14 16 C 14 17.105469 14.894531 18 16 18 C 17.105469 18 18 17.105469 18 16 C 18 14.894531 17.105469 14 16 14 Z M 16 14 "/>
</g>
</svg>
