<?xml version="1.0" encoding="UTF-8"?>
<svg xmlns="http://www.w3.org/2000/svg" xmlns:xlink="http://www.w3.org/1999/xlink" width="32" height="32" viewBox="0 0 32 32" version="1.1">
<g id="surface1">
<path style=" stroke:none;fill-rule:nonzero;fill:rgb(100%,100%,100%);fill-opacity:1;" d="M 24.210938 13.332031 C 23.082031 10.132812 20.058594 7.996094 16.664062 7.996094 C 13.273438 7.996094 10.25 10.132812 9.121094 13.332031 L 24.214844 13.332031 Z M 8.777344 17.332031 C 9.339844 20.644531 11.90625 23.25 15.207031 23.863281 C 18.507812 24.476562 21.839844 22.964844 23.550781 20.074219 L 27.957031 20.074219 C 26.804688 23.265625 24.355469 25.820312 21.21875 27.105469 C 18.078125 28.394531 14.542969 28.292969 11.484375 26.828125 C 7.824219 28.816406 4.664062 29.226562 2.921875 27.480469 C 1.128906 25.695312 2.082031 21.011719 4.671875 16.316406 C 5.625 14.585938 6.742188 12.953125 8.003906 11.429688 C 8.480469 10.851562 8.984375 10.292969 9.503906 9.761719 C 9.136719 9.835938 6.996094 10.894531 4.953125 13.378906 C 6.257812 7.5625 11.632812 3.582031 17.578125 4.035156 C 21.703125 2.164062 25.542969 1.734375 27.167969 3.355469 C 28.667969 4.851562 28.582031 7.347656 27.332031 10.34375 C 27.320312 10.371094 27.308594 10.402344 27.296875 10.429688 C 28.199219 12.148438 28.667969 14.058594 28.667969 16 C 28.667969 16.449219 28.640625 16.894531 28.59375 17.332031 Z M 10.671875 26.398438 C 8.21875 24.980469 6.34375 22.742188 5.378906 20.074219 C 3.828125 23.117188 3.429688 25.664062 4.753906 26.984375 C 5.835938 28.066406 8.003906 27.816406 10.667969 26.402344 Z M 26.894531 9.722656 C 26.902344 9.707031 26.910156 9.691406 26.914062 9.675781 C 27.914062 7.515625 28 5.683594 27.082031 4.601562 C 25.925781 3.445312 23.695312 3.601562 21.054688 4.828125 C 23.480469 5.78125 25.53125 7.5 26.894531 9.722656 Z M 26.894531 9.722656 "/>
</g>
</svg>
