<?xml version="1.0" encoding="UTF-8"?>
<svg xmlns="http://www.w3.org/2000/svg" xmlns:xlink="http://www.w3.org/1999/xlink" width="32" height="32" viewBox="0 0 32 32" version="1.1">
<g id="surface1">
<path style=" stroke:none;fill-rule:nonzero;fill:rgb(100%,100%,100%);fill-opacity:1;" d="M 32 15.898438 C 32 18.128906 31.234375 20.074219 29.699219 21.726562 C 28.167969 23.382812 26.0625 24.210938 23.390625 24.210938 C 19.972656 24.210938 17.484375 22.699219 15.921875 19.679688 L 15.441406 19.679688 C 13.390625 22.699219 11.03125 24.210938 8.359375 24.210938 C 5.746094 24.210938 3.695312 23.40625 2.210938 21.796875 C 0.738281 20.1875 0 18.28125 0 16.078125 C 0 13.847656 0.765625 11.910156 2.300781 10.273438 C 3.832031 8.617188 5.9375 7.789062 8.609375 7.789062 C 12.300781 7.789062 14.894531 9.195312 16.398438 12.003906 L 16.855469 12.003906 C 18.84375 9.195312 21.097656 7.789062 23.617188 7.789062 C 26.230469 7.789062 28.28125 8.59375 29.769531 10.203125 C 31.257812 11.8125 32 13.710938 32 15.898438 Z M 14.074219 16.761719 C 12.921875 13.148438 11.242188 11.34375 9.042969 11.34375 C 7.75 11.34375 6.726562 11.820312 5.96875 12.777344 C 5.207031 13.71875 4.828125 14.820312 4.828125 16.078125 C 4.828125 17.324219 5.199219 18.402344 5.945312 19.3125 C 6.703125 20.210938 7.734375 20.65625 9.042969 20.65625 C 11.183594 20.65625 12.859375 19.359375 14.074219 16.761719 Z M 27.171875 16.148438 C 27.171875 14.871094 26.777344 13.757812 25.988281 12.800781 C 25.210938 11.828125 24.179688 11.34375 22.890625 11.34375 C 20.855469 11.34375 19.199219 12.601562 17.925781 15.125 C 19.398438 18.8125 21.050781 20.65625 22.890625 20.65625 C 24.226562 20.65625 25.273438 20.21875 26.03125 19.335938 C 26.792969 18.441406 27.171875 17.378906 27.171875 16.148438 Z M 27.171875 16.148438 "/>
</g>
</svg>
