<?xml version="1.0" encoding="UTF-8"?>
<svg xmlns="http://www.w3.org/2000/svg" xmlns:xlink="http://www.w3.org/1999/xlink" width="32" height="32" viewBox="0 0 32 32" version="1.1">
<g id="surface1">
<path style=" stroke:none;fill-rule:nonzero;fill:rgb(100%,100%,100%);fill-opacity:1;" d="M 6.667969 6.667969 L 6.667969 25.332031 L 25.332031 25.332031 L 25.332031 6.667969 Z M 5.332031 4 L 26.667969 4 C 27.402344 4 28 4.597656 28 5.332031 L 28 26.667969 C 28 27.402344 27.402344 28 26.667969 28 L 5.332031 28 C 4.597656 28 4 27.402344 4 26.667969 L 4 5.332031 C 4 4.597656 4.597656 4 5.332031 4 Z M 13.160156 20 L 12.066406 22.667969 L 9.109375 22.667969 L 14.667969 9.332031 L 17.332031 9.332031 L 22.890625 22.667969 L 19.933594 22.667969 L 18.839844 20 Z M 14.253906 17.332031 L 17.746094 17.332031 L 16 13.066406 Z M 14.253906 17.332031 "/>
</g>
</svg>
