<?xml version="1.0" encoding="UTF-8"?>
<svg xmlns="http://www.w3.org/2000/svg" xmlns:xlink="http://www.w3.org/1999/xlink" width="32" height="32" viewBox="0 0 32 32" version="1.1">
<g id="surface1">
<path style=" stroke:none;fill-rule:nonzero;fill:rgb(100%,100%,100%);fill-opacity:1;" d="M 16 12 C 13.789062 12 12 13.789062 12 16 C 12 18.210938 13.789062 20 16 20 C 18.210938 20 20 18.210938 20 16 C 20 13.789062 18.210938 12 16 12 Z M 16 9.332031 C 19.683594 9.332031 22.667969 12.316406 22.667969 16 C 22.667969 19.683594 19.683594 22.667969 16 22.667969 C 12.316406 22.667969 9.332031 19.683594 9.332031 16 C 9.332031 12.316406 12.316406 9.332031 16 9.332031 Z M 24.667969 9 C 24.667969 9.921875 23.921875 10.667969 23 10.667969 C 22.078125 10.667969 21.332031 9.921875 21.332031 9 C 21.332031 8.078125 22.078125 7.332031 23 7.332031 C 23.921875 7.332031 24.667969 8.078125 24.667969 9 Z M 16 5.332031 C 12.703125 5.332031 12.164062 5.34375 10.628906 5.410156 C 9.582031 5.460938 8.882812 5.601562 8.230469 5.851562 C 7.652344 6.078125 7.234375 6.34375 6.789062 6.789062 C 6.375 7.195312 6.050781 7.6875 5.851562 8.230469 C 5.597656 8.882812 5.457031 9.585938 5.410156 10.628906 C 5.339844 12.101562 5.332031 12.613281 5.332031 16 C 5.332031 19.296875 5.34375 19.835938 5.410156 21.371094 C 5.460938 22.414062 5.601562 23.117188 5.851562 23.769531 C 6.078125 24.347656 6.34375 24.765625 6.789062 25.207031 C 7.238281 25.65625 7.65625 25.925781 8.226562 26.144531 C 8.886719 26.398438 9.589844 26.542969 10.628906 26.589844 C 12.101562 26.660156 12.613281 26.667969 16 26.667969 C 19.296875 26.667969 19.835938 26.65625 21.371094 26.589844 C 22.414062 26.539062 23.117188 26.398438 23.769531 26.148438 C 24.34375 25.921875 24.765625 25.65625 25.207031 25.210938 C 25.65625 24.761719 25.925781 24.34375 26.148438 23.773438 C 26.398438 23.113281 26.542969 22.410156 26.589844 21.371094 C 26.660156 19.898438 26.667969 19.386719 26.667969 16 C 26.667969 12.703125 26.65625 12.164062 26.589844 10.628906 C 26.539062 9.585938 26.398438 8.882812 26.148438 8.230469 C 25.945312 7.6875 25.625 7.195312 25.210938 6.789062 C 24.804688 6.375 24.3125 6.050781 23.769531 5.851562 C 23.117188 5.597656 22.414062 5.457031 21.371094 5.410156 C 19.898438 5.339844 19.386719 5.332031 16 5.332031 Z M 16 2.667969 C 19.621094 2.667969 20.074219 2.679688 21.496094 2.746094 C 22.914062 2.8125 23.882812 3.035156 24.734375 3.367188 C 25.613281 3.707031 26.355469 4.164062 27.097656 4.902344 C 27.773438 5.570312 28.296875 6.375 28.632812 7.265625 C 28.960938 8.117188 29.1875 9.085938 29.253906 10.503906 C 29.316406 11.925781 29.332031 12.378906 29.332031 16 C 29.332031 19.621094 29.320312 20.074219 29.253906 21.496094 C 29.1875 22.914062 28.960938 23.882812 28.632812 24.734375 C 28.300781 25.625 27.773438 26.429688 27.097656 27.097656 C 26.429688 27.773438 25.625 28.296875 24.734375 28.632812 C 23.882812 28.960938 22.914062 29.1875 21.496094 29.253906 C 20.074219 29.316406 19.621094 29.332031 16 29.332031 C 12.378906 29.332031 11.925781 29.320312 10.503906 29.253906 C 9.085938 29.1875 8.117188 28.960938 7.265625 28.632812 C 6.375 28.300781 5.570312 27.773438 4.902344 27.097656 C 4.226562 26.429688 3.703125 25.625 3.367188 24.734375 C 3.035156 23.882812 2.8125 22.914062 2.746094 21.496094 C 2.683594 20.074219 2.667969 19.621094 2.667969 16 C 2.667969 12.378906 2.679688 11.925781 2.746094 10.503906 C 2.8125 9.082031 3.035156 8.117188 3.367188 7.265625 C 3.699219 6.375 4.226562 5.570312 4.902344 4.902344 C 5.570312 4.226562 6.375 3.699219 7.265625 3.367188 C 8.117188 3.035156 9.082031 2.8125 10.503906 2.746094 C 11.925781 2.683594 12.378906 2.667969 16 2.667969 Z M 16 2.667969 "/>
</g>
</svg>
