<?xml version="1.0" encoding="UTF-8"?>
<svg xmlns="http://www.w3.org/2000/svg" xmlns:xlink="http://www.w3.org/1999/xlink" width="32" height="32" viewBox="0 0 32 32" version="1.1">
<g id="surface1">
<path style=" stroke:none;fill-rule:nonzero;fill:rgb(100%,100%,100%);fill-opacity:1;" d="M 16 2.667969 C 19.621094 2.667969 20.074219 2.679688 21.496094 2.746094 C 22.914062 2.8125 23.882812 3.035156 24.734375 3.367188 C 25.613281 3.707031 26.355469 4.164062 27.097656 4.902344 C 27.773438 5.570312 28.296875 6.375 28.632812 7.265625 C 28.960938 8.117188 29.1875 9.085938 29.253906 10.503906 C 29.316406 11.925781 29.332031 12.378906 29.332031 16 C 29.332031 19.621094 29.320312 20.074219 29.253906 21.496094 C 29.1875 22.914062 28.960938 23.882812 28.632812 24.734375 C 28.300781 25.625 27.773438 26.429688 27.097656 27.097656 C 26.429688 27.773438 25.625 28.296875 24.734375 28.632812 C 23.882812 28.960938 22.914062 29.1875 21.496094 29.253906 C 20.074219 29.316406 19.621094 29.332031 16 29.332031 C 12.378906 29.332031 11.925781 29.320312 10.503906 29.253906 C 9.085938 29.1875 8.117188 28.960938 7.265625 28.632812 C 6.375 28.300781 5.570312 27.773438 4.902344 27.097656 C 4.226562 26.429688 3.703125 25.625 3.367188 24.734375 C 3.035156 23.882812 2.8125 22.914062 2.746094 21.496094 C 2.683594 20.074219 2.667969 19.621094 2.667969 16 C 2.667969 12.378906 2.679688 11.925781 2.746094 10.503906 C 2.8125 9.082031 3.035156 8.117188 3.367188 7.265625 C 3.699219 6.375 4.226562 5.570312 4.902344 4.902344 C 5.570312 4.226562 6.375 3.699219 7.265625 3.367188 C 8.117188 3.035156 9.082031 2.8125 10.503906 2.746094 C 11.925781 2.683594 12.378906 2.667969 16 2.667969 Z M 16 9.332031 C 12.316406 9.332031 9.332031 12.316406 9.332031 16 C 9.332031 19.683594 12.316406 22.667969 16 22.667969 C 19.683594 22.667969 22.667969 19.683594 22.667969 16 C 22.667969 12.316406 19.683594 9.332031 16 9.332031 Z M 24.667969 9 C 24.667969 8.078125 23.921875 7.332031 23 7.332031 C 22.078125 7.332031 21.332031 8.078125 21.332031 9 C 21.332031 9.921875 22.078125 10.667969 23 10.667969 C 23.921875 10.667969 24.667969 9.921875 24.667969 9 Z M 16 12 C 18.210938 12 20 13.789062 20 16 C 20 18.210938 18.210938 20 16 20 C 13.789062 20 12 18.210938 12 16 C 12 13.789062 13.789062 12 16 12 Z M 16 12 "/>
</g>
</svg>
