<?xml version="1.0" encoding="UTF-8"?>
<svg xmlns="http://www.w3.org/2000/svg" xmlns:xlink="http://www.w3.org/1999/xlink" width="32" height="32" viewBox="0 0 32 32" version="1.1">
<g id="surface1">
<path style=" stroke:none;fill-rule:nonzero;fill:rgb(100%,100%,100%);fill-opacity:1;" d="M 16 4 C 23.730469 4 30 8.886719 30 14.914062 C 30 20.941406 23.730469 25.824219 16 25.824219 C 15.230469 25.824219 14.460938 25.777344 13.699219 25.679688 L 7.820312 29.523438 C 7.152344 29.875 6.914062 29.835938 7.191406 28.972656 L 8.378906 24.066406 C 4.539062 22.121094 2 18.746094 2 14.914062 C 2 8.886719 8.269531 4 16 4 Z M 23.875 14.746094 L 25.835938 12.847656 C 26.070312 12.605469 26.070312 12.21875 25.835938 11.972656 C 25.597656 11.730469 25.214844 11.71875 24.960938 11.945312 L 22.390625 14.433594 L 22.390625 12.375 C 22.390625 12.027344 22.109375 11.746094 21.761719 11.746094 C 21.414062 11.746094 21.132812 12.027344 21.132812 12.375 L 21.132812 15.785156 C 21.109375 15.882812 21.109375 15.984375 21.132812 16.082031 L 21.132812 18 C 21.132812 18.347656 21.414062 18.628906 21.761719 18.628906 C 22.109375 18.628906 22.390625 18.347656 22.390625 18 L 22.390625 16.183594 L 22.960938 15.632812 L 24.863281 18.34375 C 25.0625 18.628906 25.457031 18.695312 25.742188 18.496094 C 26.027344 18.296875 26.09375 17.902344 25.894531 17.617188 Z M 19.933594 17.3125 L 17.984375 17.3125 L 17.984375 12.394531 C 17.96875 12.058594 17.691406 11.796875 17.355469 11.796875 C 17.019531 11.796875 16.742188 12.058594 16.726562 12.394531 L 16.726562 17.941406 C 16.726562 18.289062 17.007812 18.570312 17.355469 18.570312 L 19.933594 18.570312 C 20.28125 18.570312 20.5625 18.289062 20.5625 17.941406 C 20.5625 17.59375 20.28125 17.3125 19.933594 17.3125 Z M 12.121094 15.855469 L 13.050781 13.578125 L 13.902344 15.855469 Z M 15.488281 16.507812 L 15.488281 16.484375 C 15.488281 16.328125 15.429688 16.175781 15.320312 16.058594 L 13.925781 12.324219 C 13.804688 11.960938 13.472656 11.710938 13.089844 11.691406 C 12.703125 11.691406 12.355469 11.929688 12.21875 12.289062 L 10.003906 17.722656 C 9.871094 18.042969 10.027344 18.410156 10.347656 18.542969 C 10.671875 18.675781 11.039062 18.519531 11.167969 18.199219 L 11.609375 17.113281 L 14.371094 17.113281 L 14.769531 18.179688 C 14.839844 18.398438 15.027344 18.558594 15.253906 18.597656 C 15.480469 18.636719 15.710938 18.554688 15.851562 18.375 C 15.996094 18.195312 16.03125 17.953125 15.945312 17.742188 Z M 11.058594 12.402344 C 11.058594 12.054688 10.777344 11.773438 10.429688 11.773438 L 6.101562 11.773438 C 5.753906 11.773438 5.472656 12.054688 5.472656 12.402344 C 5.472656 12.75 5.753906 13.03125 6.101562 13.03125 L 7.648438 13.03125 L 7.648438 18.011719 C 7.648438 18.359375 7.929688 18.644531 8.277344 18.644531 C 8.625 18.644531 8.90625 18.359375 8.90625 18.011719 L 8.90625 13.03125 L 10.429688 13.03125 C 10.777344 13.03125 11.058594 12.75 11.058594 12.402344 Z M 11.058594 12.402344 "/>
</g>
</svg>
