<?xml version="1.0" encoding="UTF-8"?>
<svg xmlns="http://www.w3.org/2000/svg" xmlns:xlink="http://www.w3.org/1999/xlink" width="32" height="32" viewBox="0 0 32 32" version="1.1">
<g id="surface1">
<path style=" stroke:none;fill-rule:nonzero;fill:rgb(100%,100%,100%);fill-opacity:1;" d="M 22.667969 18.667969 L 16.878906 18.667969 C 15.578125 22.339844 11.824219 24.542969 7.984375 23.886719 C 4.144531 23.226562 1.335938 19.894531 1.335938 16 C 1.335938 12.105469 4.144531 8.773438 7.984375 8.113281 C 11.824219 7.457031 15.578125 9.660156 16.878906 13.332031 L 30.667969 13.332031 L 30.667969 18.667969 L 28 18.667969 L 28 24 L 22.667969 24 Z M 9.332031 18.667969 C 10.804688 18.667969 12 17.472656 12 16 C 12 14.527344 10.804688 13.332031 9.332031 13.332031 C 7.859375 13.332031 6.667969 14.527344 6.667969 16 C 6.667969 17.472656 7.859375 18.667969 9.332031 18.667969 Z M 9.332031 18.667969 "/>
</g>
</svg>
