<?xml version="1.0" encoding="UTF-8"?>
<svg xmlns="http://www.w3.org/2000/svg" xmlns:xlink="http://www.w3.org/1999/xlink" width="32" height="32" viewBox="0 0 32 32" version="1.1">
<g id="surface1">
<path style=" stroke:none;fill-rule:nonzero;fill:rgb(100%,100%,100%);fill-opacity:1;" d="M 17.222656 17.332031 C 16.519531 21.425781 12.804688 24.296875 8.667969 23.949219 C 4.53125 23.601562 1.347656 20.152344 1.332031 16 C 1.328125 11.839844 4.515625 8.367188 8.664062 8.019531 C 12.8125 7.671875 16.53125 10.5625 17.222656 14.667969 L 30.667969 14.667969 L 30.667969 17.332031 L 28 17.332031 L 28 22.667969 L 25.332031 22.667969 L 25.332031 17.332031 L 22.667969 17.332031 L 22.667969 22.667969 L 20 22.667969 L 20 17.332031 Z M 9.332031 21.332031 C 12.277344 21.332031 14.667969 18.945312 14.667969 16 C 14.667969 13.054688 12.277344 10.667969 9.332031 10.667969 C 6.386719 10.667969 4 13.054688 4 16 C 4 18.945312 6.386719 21.332031 9.332031 21.332031 Z M 9.332031 21.332031 "/>
</g>
</svg>
