<?xml version="1.0" encoding="UTF-8"?>
<svg xmlns="http://www.w3.org/2000/svg" xmlns:xlink="http://www.w3.org/1999/xlink" width="32" height="32" viewBox="0 0 32 32" version="1.1">
<defs>
<filter id="alpha" filterUnits="objectBoundingBox" x="0%" y="0%" width="100%" height="100%">
  <feColorMatrix type="matrix" in="SourceGraphic" values="0 0 0 0 1 0 0 0 0 1 0 0 0 0 1 0 0 0 1 0"/>
</filter>
<mask id="mask0">
  <g filter="url(#alpha)">
<rect x="0" y="0" width="32" height="32" style="fill:rgb(100%,100%,100%);fill-opacity:0.988235;stroke:none;"/>
  </g>
</mask>
<clipPath id="clip1">
  <rect x="0" y="0" width="32" height="32"/>
</clipPath>
<g id="surface5" clip-path="url(#clip1)">
<path style=" stroke:none;fill-rule:evenodd;fill:rgb(100%,100%,100%);fill-opacity:1;" d="M 16 0 C 7.164062 0 0 7.164062 0 16 C 0 24.835938 7.164062 32 16 32 C 24.835938 32 32 24.835938 32 16 C 32 7.164062 24.835938 0 16 0 Z M 23.777344 4.804688 C 24.289062 4.804688 24.800781 5.003906 25.191406 5.394531 L 26.605469 6.808594 C 27.390625 7.59375 27.390625 8.851562 26.605469 9.636719 L 9.636719 26.605469 C 8.851562 27.390625 7.59375 27.390625 6.808594 26.605469 L 5.394531 25.191406 C 4.609375 24.40625 4.609375 23.148438 5.394531 22.363281 L 22.363281 5.394531 C 22.753906 5.003906 23.265625 4.804688 23.777344 4.804688 Z M 23.777344 6.808594 L 20.949219 9.636719 L 22.363281 11.050781 L 25.191406 8.222656 Z M 23.777344 6.808594 "/>
</g>
</defs>
<g id="surface1">
<use xlink:href="#surface5" mask="url(#mask0)"/>
</g>
</svg>
