<?xml version="1.0" encoding="UTF-8"?>
<svg xmlns="http://www.w3.org/2000/svg" xmlns:xlink="http://www.w3.org/1999/xlink" width="32" height="32" viewBox="0 0 32 32" version="1.1">
<g id="surface1">
<path style=" stroke:none;fill-rule:nonzero;fill:rgb(100%,100%,100%);fill-opacity:1;" d="M 19.96875 0.496094 L 19.433594 0.511719 L 19.449219 0.730469 C 19.1875 0.851562 18.898438 0.941406 18.742188 1.191406 L 0.730469 29.183594 C 0.28125 29.878906 0.503906 30.824219 1.203125 31.265625 C 1.890625 31.695312 2.808594 31.496094 3.253906 30.820312 L 6.03125 26.496094 L 12.46875 26.496094 L 10.738281 29.183594 C 10.289062 29.875 10.488281 30.820312 11.183594 31.265625 C 11.875 31.71875 12.816406 31.511719 13.265625 30.820312 L 31.261719 2.8125 C 31.714844 2.121094 31.507812 1.179688 30.816406 0.730469 C 30.523438 0.542969 30.171875 0.472656 29.828125 0.511719 L 29.8125 0.511719 C 29.371094 0.570312 28.976562 0.816406 28.738281 1.191406 L 25.976562 5.5 L 19.539062 5.5 L 21.265625 2.8125 C 21.710938 2.113281 21.511719 1.167969 20.808594 0.730469 C 20.558594 0.570312 20.265625 0.488281 19.96875 0.496094 Z M 17.605469 8.511719 L 24.027344 8.511719 L 22.109375 11.507812 L 15.671875 11.507812 Z M 13.75 14.492188 L 20.1875 14.492188 L 18.253906 17.503906 L 11.816406 17.503906 Z M 9.898438 20.5 L 16.320312 20.5 L 14.386719 23.511719 L 7.964844 23.511719 Z M 9.898438 20.5 "/>
</g>
</svg>
