<?xml version="1.0" encoding="UTF-8"?>
<svg xmlns="http://www.w3.org/2000/svg" xmlns:xlink="http://www.w3.org/1999/xlink" width="32" height="32" viewBox="0 0 32 32" version="1.1">
<g id="surface1">
<path style=" stroke:none;fill-rule:nonzero;fill:rgb(100%,100%,100%);fill-opacity:1;" d="M 6.535156 1.496094 C 4.613281 1.496094 3.039062 3.074219 3.039062 4.996094 L 3.039062 21 C 3.039062 21.28125 3.082031 21.550781 3.144531 21.8125 C 3.0625 21.871094 2.976562 21.914062 2.90625 21.988281 C 2.902344 21.992188 2.894531 21.984375 2.890625 21.988281 C 2.867188 22.019531 2.847656 22.054688 2.832031 22.089844 C 2.820312 22.105469 2.808594 22.121094 2.800781 22.136719 C 2.753906 22.203125 2.6875 22.257812 2.652344 22.328125 L 0 27.660156 L 0 30.03125 L -0.00390625 30.996094 C -0.00390625 31.261719 0.101562 31.515625 0.289062 31.707031 C 0.476562 31.894531 0.730469 32 0.996094 32 L 30.996094 32 C 31.261719 32 31.515625 31.894531 31.703125 31.707031 C 31.890625 31.515625 31.996094 31.261719 31.996094 30.996094 L 32 30.046875 L 32 30 L 32.003906 29.003906 L 32 29.003906 L 32 27.632812 L 29.347656 22.328125 C 29.246094 22.128906 29.09375 21.964844 28.921875 21.832031 C 28.988281 21.5625 29.035156 21.289062 29.035156 21 L 29.035156 4.996094 C 29.035156 3.074219 27.460938 1.496094 25.539062 1.496094 Z M 6.535156 4.507812 L 25.539062 4.507812 C 25.863281 4.507812 26.023438 4.671875 26.023438 4.996094 L 26.023438 21 C 26.023438 21.324219 25.863281 21.5 25.539062 21.5 L 6.535156 21.5 C 6.210938 21.5 6.019531 21.316406 6.019531 21 L 6.019531 4.996094 C 6.019531 4.679688 6.210938 4.507812 6.535156 4.507812 Z M 4.925781 24.496094 L 27.074219 24.496094 L 28.5625 27.496094 L 3.421875 27.496094 Z M 6 24.992188 C 5.71875 24.992188 5.449219 25.113281 5.261719 25.324219 C 5.09375 25.507812 4.996094 25.746094 4.996094 25.996094 C 4.996094 26.261719 5.101562 26.515625 5.289062 26.703125 C 5.480469 26.890625 5.734375 26.996094 6 26.996094 L 26 27.007812 C 26.265625 27.007812 26.523438 26.902344 26.710938 26.714844 C 26.898438 26.527344 27.003906 26.269531 27.003906 26.003906 C 27.003906 25.738281 26.898438 25.480469 26.710938 25.292969 C 26.523438 25.105469 26.265625 25 26 25 Z M 6 24.992188 "/>
</g>
</svg>
