<?xml version="1.0" encoding="UTF-8"?>
<svg xmlns="http://www.w3.org/2000/svg" xmlns:xlink="http://www.w3.org/1999/xlink" width="32" height="32" viewBox="0 0 32 32" version="1.1">
<g id="surface1">
<path style=" stroke:none;fill-rule:nonzero;fill:rgb(100%,100%,100%);fill-opacity:1;" d="M 2.285156 24 L 29.714844 24 C 30.976562 24 32 25.023438 32 26.285156 L 32 29.714844 C 32 30.976562 30.976562 32 29.714844 32 L 2.285156 32 C 1.023438 32 0 30.976562 0 29.714844 L 0 26.285156 C 0 25.023438 1.023438 24 2.285156 24 Z M 2.285156 24 "/>
<path style=" stroke:none;fill-rule:nonzero;fill:rgb(100%,100%,100%);fill-opacity:1;" d="M 2.285156 12 L 29.714844 12 C 30.976562 12 32 13.023438 32 14.285156 L 32 17.714844 C 32 18.976562 30.976562 20 29.714844 20 L 2.285156 20 C 1.023438 20 0 18.976562 0 17.714844 L 0 14.285156 C 0 13.023438 1.023438 12 2.285156 12 Z M 2.285156 12 "/>
<path style=" stroke:none;fill-rule:nonzero;fill:rgb(100%,100%,100%);fill-opacity:1;" d="M 2.285156 0 L 29.714844 0 C 30.976562 0 32 1.023438 32 2.285156 L 32 5.714844 C 32 6.976562 30.976562 8 29.714844 8 L 2.285156 8 C 1.023438 8 0 6.976562 0 5.714844 L 0 2.285156 C 0 1.023438 1.023438 0 2.285156 0 Z M 2.285156 0 "/>
</g>
</svg>
