<?xml version="1.0" encoding="UTF-8"?>
<svg xmlns="http://www.w3.org/2000/svg" xmlns:xlink="http://www.w3.org/1999/xlink" width="32" height="32" viewBox="0 0 32 32" version="1.1">
<g id="surface1">
<path style=" stroke:none;fill-rule:nonzero;fill:rgb(100%,100%,100%);fill-opacity:1;" d="M 2.285156 0 L 11.714844 0 C 12.976562 0 14 1.023438 14 2.285156 L 14 11.714844 C 14 12.976562 12.976562 14 11.714844 14 L 2.285156 14 C 1.023438 14 0 12.976562 0 11.714844 L 0 2.285156 C 0 1.023438 1.023438 0 2.285156 0 Z M 2.285156 0 "/>
<path style=" stroke:none;fill-rule:nonzero;fill:rgb(100%,100%,100%);fill-opacity:1;" d="M 2.285156 18 L 11.714844 18 C 12.976562 18 14 19.023438 14 20.285156 L 14 29.714844 C 14 30.976562 12.976562 32 11.714844 32 L 2.285156 32 C 1.023438 32 0 30.976562 0 29.714844 L 0 20.285156 C 0 19.023438 1.023438 18 2.285156 18 Z M 2.285156 18 "/>
<path style=" stroke:none;fill-rule:nonzero;fill:rgb(100%,100%,100%);fill-opacity:1;" d="M 20.285156 0 L 29.714844 0 C 30.976562 0 32 1.023438 32 2.285156 L 32 11.714844 C 32 12.976562 30.976562 14 29.714844 14 L 20.285156 14 C 19.023438 14 18 12.976562 18 11.714844 L 18 2.285156 C 18 1.023438 19.023438 0 20.285156 0 Z M 20.285156 0 "/>
<path style=" stroke:none;fill-rule:nonzero;fill:rgb(100%,100%,100%);fill-opacity:1;" d="M 20.285156 18 L 29.714844 18 C 30.976562 18 32 19.023438 32 20.285156 L 32 29.714844 C 32 30.976562 30.976562 32 29.714844 32 L 20.285156 32 C 19.023438 32 18 30.976562 18 29.714844 L 18 20.285156 C 18 19.023438 19.023438 18 20.285156 18 Z M 20.285156 18 "/>
</g>
</svg>
