<?xml version="1.0" encoding="UTF-8"?>
<svg xmlns="http://www.w3.org/2000/svg" xmlns:xlink="http://www.w3.org/1999/xlink" width="32" height="32" viewBox="0 0 32 32" version="1.1">
<g id="surface1">
<path style=" stroke:none;fill-rule:nonzero;fill:rgb(100%,100%,100%);fill-opacity:1;" d="M 28 4 L 28 6.667969 C 28 19.503906 20.835938 25.332031 12 25.332031 L 6.992188 25.332031 C 6.773438 26.550781 6.667969 27.875 6.667969 29.332031 L 4 29.332031 C 4 27.515625 4.15625 25.867188 4.460938 24.355469 C 4.15625 22.632812 4 20.289062 4 17.332031 C 4 9.96875 9.96875 4 17.332031 4 C 20 4 22.667969 5.332031 28 4 Z M 17.332031 6.667969 C 11.441406 6.667969 6.667969 11.441406 6.667969 17.332031 C 6.667969 17.816406 6.671875 18.28125 6.679688 18.726562 C 8.351562 16.089844 10.800781 14.007812 14.003906 12.175781 L 15.328125 14.492188 C 11.519531 16.667969 8.996094 19.136719 7.703125 22.667969 L 12 22.667969 C 20.019531 22.667969 25.160156 17.371094 25.328125 7.183594 C 23.5 7.363281 21.800781 7.246094 19.703125 6.933594 C 18.167969 6.703125 17.867188 6.667969 17.332031 6.667969 Z M 17.332031 6.667969 "/>
</g>
</svg>
