<?xml version="1.0" encoding="UTF-8"?>
<svg xmlns="http://www.w3.org/2000/svg" xmlns:xlink="http://www.w3.org/1999/xlink" width="32" height="32" viewBox="0 0 32 32" version="1.1">
<g id="surface1">
<path style=" stroke:none;fill-rule:nonzero;fill:rgb(100%,100%,100%);fill-opacity:1;" d="M 28 4 L 28 6.667969 C 28 19.503906 20.835938 25.332031 12 25.332031 L 9.464844 25.332031 C 9.746094 21.316406 10.996094 18.886719 14.261719 16 C 15.867188 14.578125 15.730469 13.757812 14.941406 14.230469 C 9.496094 17.46875 6.789062 21.847656 6.671875 28.839844 L 6.667969 29.332031 L 4 29.332031 C 4 27.515625 4.15625 25.867188 4.460938 24.355469 C 4.15625 22.632812 4 20.289062 4 17.332031 C 4 9.96875 9.96875 4 17.332031 4 C 20 4 22.667969 5.332031 28 4 Z M 28 4 "/>
</g>
</svg>
