<?xml version="1.0" encoding="UTF-8"?>
<svg xmlns="http://www.w3.org/2000/svg" xmlns:xlink="http://www.w3.org/1999/xlink" width="32" height="32" viewBox="0 0 32 32" version="1.1">
<g id="surface1">
<path style=" stroke:none;fill-rule:evenodd;fill:rgb(100%,100%,100%);fill-opacity:1;" d="M 24.34375 2.492188 C 22.484375 2.542969 20.707031 3.289062 19.371094 4.582031 L 10.339844 13.613281 L 8.835938 12.109375 L 5.824219 15.117188 L 8.835938 18.128906 L 0.101562 27.273438 L 1.605469 28.777344 L 10.339844 19.636719 L 14.855469 24.152344 L 11 28.007812 L 12.507812 29.511719 L 16.359375 25.660156 L 19.371094 28.667969 L 22.382812 25.65625 L 20.878906 24.152344 L 29.816406 15.210938 C 29.847656 15.179688 29.878906 15.148438 29.910156 15.117188 C 32.714844 12.210938 32.695312 7.597656 29.863281 4.71875 C 28.410156 3.242188 26.414062 2.433594 24.34375 2.492188 Z M 20.863281 6.101562 L 22.832031 8.105469 L 22.832031 11.042969 L 20.429688 11.042969 L 15.296875 16.175781 L 15.296875 18.570312 L 11.847656 15.117188 Z M 24.953125 10.261719 L 28.324219 13.695312 L 19.371094 22.644531 L 17.429688 20.703125 L 17.429688 17.066406 L 21.320312 13.175781 L 24.953125 13.164062 Z M 24.953125 10.261719 "/>
</g>
</svg>
