<?xml version="1.0" encoding="UTF-8"?>
<svg xmlns="http://www.w3.org/2000/svg" xmlns:xlink="http://www.w3.org/1999/xlink" width="32" height="32" viewBox="0 0 32 32" version="1.1">
<g id="surface1">
<path style=" stroke:none;fill-rule:nonzero;fill:rgb(100%,100%,100%);fill-opacity:1;" d="M 23.230469 0.0625 C 21.636719 0.0664062 19.808594 0.171875 18.136719 0.929688 C 17.023438 1.433594 15.984375 2.289062 15.324219 3.542969 C 15.273438 3.636719 15.242188 3.75 15.195312 3.847656 C 17.246094 5.328125 18.390625 8 18.367188 11.5625 C 21.46875 9.945312 24.859375 7.15625 25.976562 1.582031 C 26.050781 1.210938 25.953125 0.824219 25.710938 0.53125 C 25.472656 0.238281 25.113281 0.0703125 24.730469 0.0703125 C 24.265625 0.0703125 23.765625 0.0585938 23.230469 0.0625 Z M 23.230469 0.0625 "/>
<path style=" stroke:none;fill-rule:nonzero;fill:rgb(100%,100%,100%);fill-opacity:1;" d="M 8.199219 3.542969 C 7.804688 3.542969 7.4375 3.726562 7.195312 4.035156 C 6.957031 4.347656 6.875 4.753906 6.976562 5.132812 C 7.324219 6.484375 7.984375 8.507812 9.292969 10.429688 C 10.398438 12.050781 12.316406 13.335938 14.523438 14.214844 L 14.523438 19.996094 L 17.054688 19.996094 L 17.054688 12.484375 C 17.296875 8.589844 16.1875 6.085938 14.289062 4.824219 C 12.390625 3.5625 10.128906 3.542969 8.199219 3.542969 Z M 8.199219 3.542969 "/>
<path style=" stroke:none;fill-rule:evenodd;fill:rgb(100%,100%,100%);fill-opacity:1;" d="M 4 22 C 1.785156 22 0 23.785156 0 26 L 0 28 C 0 30.214844 1.785156 32 4 32 L 28 32 C 30.214844 32 32 30.214844 32 28 L 32 26 C 32 23.785156 30.214844 22 28 22 Z M 24 24 L 28 24 C 29.109375 24 30 24.890625 30 26 L 30 28 C 30 29.109375 29.109375 30 28 30 L 24 30 Z M 24 24 "/>
</g>
</svg>
