<?xml version="1.0" encoding="UTF-8"?>
<svg xmlns="http://www.w3.org/2000/svg" xmlns:xlink="http://www.w3.org/1999/xlink" width="32" height="32" viewBox="0 0 32 32" version="1.1">
<g id="surface1">
<path style=" stroke:none;fill-rule:nonzero;fill:rgb(100%,100%,100%);fill-opacity:1;" d="M 14.667969 24 L 10.589844 24 C 10.191406 22.300781 8.40625 20.914062 7.671875 20 C 4.179688 15.636719 4.648438 9.320312 8.742188 5.519531 C 12.835938 1.714844 19.167969 1.71875 23.261719 5.519531 C 27.355469 9.324219 27.816406 15.640625 24.324219 20.003906 C 23.59375 20.914062 21.808594 22.304688 21.410156 24 L 17.332031 24 L 17.332031 17.332031 L 14.667969 17.332031 Z M 21.332031 26.667969 L 21.332031 28 C 21.332031 29.472656 20.140625 30.667969 18.667969 30.667969 L 13.332031 30.667969 C 11.859375 30.667969 10.667969 29.472656 10.667969 28 L 10.667969 26.667969 Z M 21.332031 26.667969 "/>
</g>
</svg>
