<?xml version="1.0" encoding="UTF-8"?>
<svg xmlns="http://www.w3.org/2000/svg" xmlns:xlink="http://www.w3.org/1999/xlink" width="32" height="32" viewBox="0 0 32 32" version="1.1">
<g id="surface1">
<path style=" stroke:none;fill-rule:nonzero;fill:rgb(100%,100%,100%);fill-opacity:1;" d="M 10 26 L 10 30 L 12 32 L 20 32 L 22 30 L 22 26 Z M 10 26 "/>
<path style=" stroke:none;fill-rule:nonzero;fill:rgb(100%,100%,100%);fill-opacity:1;" d="M 16 0 C 10 0 6 4 6 10 C 6 16 10 18 10 24 L 22 24 C 22 18 26 16 26 10 C 26 4 22 0 16 0 Z M 16.003906 3.742188 C 18.175781 3.742188 19.617188 4.402344 20.609375 5.394531 C 21.601562 6.386719 22.265625 7.832031 22.265625 10.003906 C 22.265625 12.175781 21.65625 13.332031 20.65625 15.332031 C 20.085938 16.46875 19.792969 18.554688 19.296875 20.261719 L 12.695312 20.261719 C 12.199219 18.554688 11.910156 16.46875 11.339844 15.332031 C 10.339844 13.332031 9.730469 12.175781 9.730469 10.003906 C 9.730469 7.835938 10.386719 6.390625 11.382812 5.394531 C 12.378906 4.398438 13.832031 3.742188 16.003906 3.742188 Z M 16.003906 3.742188 "/>
</g>
</svg>
