<?xml version="1.0" encoding="UTF-8"?>
<svg xmlns="http://www.w3.org/2000/svg" xmlns:xlink="http://www.w3.org/1999/xlink" width="32" height="32" viewBox="0 0 32 32" version="1.1">
<g id="surface1">
<path style=" stroke:none;fill-rule:nonzero;fill:rgb(100%,100%,100%);fill-opacity:1;" d="M 16 12.734375 C 17.222656 11.484375 18.816406 10.667969 20.667969 10.667969 C 24.714844 10.667969 28 13.949219 28 18 L 28 28 L 25.332031 28 L 25.332031 18 C 25.332031 15.421875 23.242188 13.332031 20.667969 13.332031 C 18.089844 13.332031 16 15.421875 16 18 L 16 28 L 13.332031 28 L 13.332031 11.332031 L 16 11.332031 Z M 6.667969 8.667969 C 5.5625 8.667969 4.667969 7.769531 4.667969 6.667969 C 4.667969 5.5625 5.5625 4.667969 6.667969 4.667969 C 7.769531 4.667969 8.667969 5.5625 8.667969 6.667969 C 8.667969 7.769531 7.769531 8.667969 6.667969 8.667969 Z M 5.332031 11.332031 L 8 11.332031 L 8 28 L 5.332031 28 Z M 5.332031 11.332031 "/>
</g>
</svg>
