<?xml version="1.0" encoding="UTF-8"?>
<svg xmlns="http://www.w3.org/2000/svg" xmlns:xlink="http://www.w3.org/1999/xlink" width="32" height="32" viewBox="0 0 32 32" version="1.1">
<defs>
<filter id="alpha" filterUnits="objectBoundingBox" x="0%" y="0%" width="100%" height="100%">
  <feColorMatrix type="matrix" in="SourceGraphic" values="0 0 0 0 1 0 0 0 0 1 0 0 0 0 1 0 0 0 1 0"/>
</filter>
<mask id="mask0">
  <g filter="url(#alpha)">
<rect x="0" y="0" width="32" height="32" style="fill:rgb(100%,100%,100%);fill-opacity:0.996078;stroke:none;"/>
  </g>
</mask>
<clipPath id="clip1">
  <rect x="0" y="0" width="32" height="32"/>
</clipPath>
<g id="surface5" clip-path="url(#clip1)">
<path style=" stroke:none;fill-rule:evenodd;fill:rgb(100%,100%,100%);fill-opacity:1;" d="M 25.5 0 C 23.832031 0 22.164062 0.636719 20.890625 1.910156 L 16.867188 5.945312 C 15.167969 7.648438 14.625 10.046875 15.199219 12.21875 C 15.371094 12.808594 16.109375 13 16.550781 12.566406 L 18.257812 10.859375 C 18.398438 10.71875 18.484375 10.539062 18.5 10.339844 C 18.546875 9.636719 18.824219 8.941406 19.351562 8.414062 L 23.375 4.390625 C 23.964844 3.800781 24.738281 3.507812 25.5 3.507812 C 26.257812 3.507812 27.019531 3.800781 27.609375 4.390625 C 28.78125 5.5625 28.777344 7.453125 27.605469 8.625 L 23.585938 12.660156 C 23.054688 13.191406 22.363281 13.464844 21.652344 13.515625 C 21.460938 13.53125 21.277344 13.617188 21.144531 13.753906 L 20.011719 14.886719 L 19.933594 14.554688 L 23.097656 11.378906 C 23.78125 10.691406 23.78125 9.589844 23.09375 8.898438 C 22.761719 8.570312 22.3125 8.390625 21.851562 8.394531 C 21.386719 8.394531 20.945312 8.574219 20.613281 8.902344 L 16.050781 13.460938 L 18.207031 22.277344 C 18.441406 23.210938 19.378906 23.777344 20.316406 23.558594 C 21.257812 23.332031 21.835938 22.386719 21.609375 21.441406 L 20.488281 16.835938 C 22.460938 17.136719 24.546875 16.671875 26.070312 15.144531 L 30.089844 11.105469 C 32.636719 8.558594 32.636719 4.453125 30.089844 1.910156 C 28.820312 0.636719 27.164062 0 25.5 0 Z M 11.992188 8.394531 C 11.871094 8.402344 11.75 8.421875 11.636719 8.453125 C 10.699219 8.707031 10.148438 9.660156 10.398438 10.597656 L 11.59375 15.109375 C 11.246094 15.046875 10.910156 14.957031 10.539062 14.957031 C 8.875 14.957031 7.214844 15.59375 5.945312 16.863281 L 1.910156 20.894531 C -0.636719 23.4375 -0.636719 27.542969 1.910156 30.089844 C 4.453125 32.636719 8.5625 32.640625 11.105469 30.09375 L 15.144531 26.070312 C 16.851562 24.363281 17.390625 21.953125 16.816406 19.78125 C 16.644531 19.191406 15.90625 19 15.464844 19.433594 L 13.757812 21.140625 C 13.617188 21.277344 13.53125 21.460938 13.515625 21.660156 C 13.46875 22.363281 13.191406 23.050781 12.660156 23.582031 L 8.625 27.609375 C 7.453125 28.78125 5.5625 28.78125 4.390625 27.609375 C 3.21875 26.4375 3.21875 24.546875 4.390625 23.375 L 8.414062 19.351562 C 8.941406 18.828125 9.632812 18.550781 10.335938 18.5 C 10.53125 18.484375 10.710938 18.398438 10.84375 18.257812 L 12.101562 17 L 12.183594 17.328125 L 8.902344 20.609375 C 8.214844 21.296875 8.214844 22.410156 8.902344 23.097656 C 9.589844 23.78125 10.695312 23.777344 11.378906 23.09375 L 16.105469 18.382812 L 13.789062 9.691406 C 13.574219 8.886719 12.824219 8.347656 11.992188 8.394531 Z M 11.992188 8.394531 "/>
</g>
</defs>
<g id="surface1">
<use xlink:href="#surface5" mask="url(#mask0)"/>
</g>
</svg>
