<?xml version="1.0" encoding="UTF-8"?>
<svg xmlns="http://www.w3.org/2000/svg" xmlns:xlink="http://www.w3.org/1999/xlink" width="32" height="32" viewBox="0 0 32 32" version="1.1">
<g id="surface1">
<path style=" stroke:none;fill-rule:nonzero;fill:rgb(100%,100%,100%);fill-opacity:1;" d="M 22.667969 22.667969 L 29.332031 22.667969 L 29.332031 25.332031 L 25.332031 25.332031 L 25.332031 29.332031 L 22.667969 29.332031 Z M 9.332031 9.332031 L 2.667969 9.332031 L 2.667969 6.667969 L 6.667969 6.667969 L 6.667969 2.667969 L 9.332031 2.667969 Z M 24.484375 20.714844 L 22.601562 18.828125 L 24.484375 16.941406 C 26.183594 15.257812 26.847656 12.800781 26.234375 10.492188 C 25.617188 8.183594 23.816406 6.378906 21.507812 5.765625 C 19.199219 5.148438 16.738281 5.816406 15.058594 7.511719 L 13.171875 9.398438 L 11.285156 7.515625 L 13.171875 5.628906 C 16.820312 1.984375 22.726562 1.984375 26.375 5.628906 C 30.019531 9.273438 30.019531 15.183594 26.375 18.828125 L 24.488281 20.714844 Z M 20.714844 24.484375 L 18.828125 26.371094 C 15.183594 30.015625 9.273438 30.015625 5.628906 26.371094 C 1.984375 22.726562 1.984375 16.816406 5.628906 13.171875 L 7.515625 11.285156 L 9.398438 13.171875 L 7.515625 15.058594 C 5.816406 16.742188 5.152344 19.199219 5.765625 21.507812 C 6.382812 23.816406 8.183594 25.621094 10.492188 26.234375 C 12.800781 26.851562 15.261719 26.183594 16.941406 24.488281 L 18.828125 22.601562 L 20.714844 24.488281 Z M 19.769531 10.34375 L 21.65625 12.230469 L 12.230469 21.65625 L 10.34375 19.769531 Z M 19.769531 10.34375 "/>
</g>
</svg>
