<?xml version="1.0" encoding="UTF-8"?>
<svg xmlns="http://www.w3.org/2000/svg" xmlns:xlink="http://www.w3.org/1999/xlink" width="32" height="32" viewBox="0 0 32 32" version="1.1">
<g id="surface1">
<path style=" stroke:none;fill-rule:nonzero;fill:rgb(100%,100%,100%);fill-opacity:1;" d="M 10.667969 5.332031 L 28 5.332031 L 28 8 L 10.667969 8 Z M 6 8.667969 C 4.894531 8.667969 4 7.769531 4 6.667969 C 4 5.5625 4.894531 4.667969 6 4.667969 C 7.105469 4.667969 8 5.5625 8 6.667969 C 8 7.769531 7.105469 8.667969 6 8.667969 Z M 6 18 C 4.894531 18 4 17.105469 4 16 C 4 14.894531 4.894531 14 6 14 C 7.105469 14 8 14.894531 8 16 C 8 17.105469 7.105469 18 6 18 Z M 6 27.199219 C 4.894531 27.199219 4 26.304688 4 25.199219 C 4 24.09375 4.894531 23.199219 6 23.199219 C 7.105469 23.199219 8 24.09375 8 25.199219 C 8 26.304688 7.105469 27.199219 6 27.199219 Z M 10.667969 14.667969 L 28 14.667969 L 28 17.332031 L 10.667969 17.332031 Z M 10.667969 24 L 28 24 L 28 26.667969 L 10.667969 26.667969 Z M 10.667969 24 "/>
</g>
</svg>
