<?xml version="1.0" encoding="UTF-8"?>
<svg xmlns="http://www.w3.org/2000/svg" xmlns:xlink="http://www.w3.org/1999/xlink" width="32" height="32" viewBox="0 0 32 32" version="1.1">
<g id="surface1">
<path style=" stroke:none;fill-rule:nonzero;fill:rgb(100%,100%,100%);fill-opacity:1;" d="M 14.667969 5.332031 L 28 5.332031 L 28 8 L 14.667969 8 Z M 14.667969 10.667969 L 22.667969 10.667969 L 22.667969 13.332031 L 14.667969 13.332031 Z M 14.667969 18.667969 L 28 18.667969 L 28 21.332031 L 14.667969 21.332031 Z M 14.667969 24 L 22.667969 24 L 22.667969 26.667969 L 14.667969 26.667969 Z M 4 5.332031 L 12 5.332031 L 12 13.332031 L 4 13.332031 Z M 6.667969 8 L 6.667969 10.667969 L 9.332031 10.667969 L 9.332031 8 Z M 4 18.667969 L 12 18.667969 L 12 26.667969 L 4 26.667969 Z M 6.667969 21.332031 L 6.667969 24 L 9.332031 24 L 9.332031 21.332031 Z M 6.667969 21.332031 "/>
</g>
</svg>
