<?xml version="1.0" encoding="UTF-8"?>
<svg xmlns="http://www.w3.org/2000/svg" xmlns:xlink="http://www.w3.org/1999/xlink" width="32" height="32" viewBox="0 0 32 32" version="1.1">
<g id="surface1">
<path style=" stroke:none;fill-rule:nonzero;fill:rgb(100%,100%,100%);fill-opacity:1;" d="M 16 2.667969 C 16.738281 2.667969 17.332031 3.261719 17.332031 4 L 17.332031 8 C 17.332031 8.738281 16.738281 9.332031 16 9.332031 C 15.261719 9.332031 14.667969 8.738281 14.667969 8 L 14.667969 4 C 14.667969 3.261719 15.261719 2.667969 16 2.667969 Z M 16 22.667969 C 16.738281 22.667969 17.332031 23.261719 17.332031 24 L 17.332031 28 C 17.332031 28.738281 16.738281 29.332031 16 29.332031 C 15.261719 29.332031 14.667969 28.738281 14.667969 28 L 14.667969 24 C 14.667969 23.261719 15.261719 22.667969 16 22.667969 Z M 27.546875 9.332031 C 27.914062 9.972656 27.695312 10.785156 27.058594 11.15625 L 23.59375 13.15625 C 23.183594 13.398438 22.671875 13.398438 22.257812 13.160156 C 21.839844 12.921875 21.585938 12.480469 21.585938 12 C 21.589844 11.523438 21.84375 11.082031 22.261719 10.84375 L 25.726562 8.84375 C 26.363281 8.476562 27.179688 8.695312 27.546875 9.332031 Z M 10.226562 19.332031 C 10.59375 19.972656 10.375 20.785156 9.738281 21.15625 L 6.273438 23.15625 C 5.863281 23.398438 5.351562 23.398438 4.9375 23.160156 C 4.519531 22.921875 4.265625 22.480469 4.265625 22 C 4.269531 21.523438 4.527344 21.082031 4.941406 20.84375 L 8.40625 18.84375 C 9.042969 18.476562 9.859375 18.695312 10.226562 19.332031 Z M 27.546875 22.667969 C 27.179688 23.304688 26.363281 23.523438 25.726562 23.15625 L 22.261719 21.15625 C 21.628906 20.785156 21.414062 19.972656 21.78125 19.335938 C 22.148438 18.703125 22.957031 18.484375 23.59375 18.84375 L 27.058594 20.84375 C 27.695312 21.214844 27.914062 22.027344 27.546875 22.667969 Z M 10.226562 12.667969 C 9.859375 13.304688 9.042969 13.523438 8.40625 13.15625 L 4.941406 11.15625 C 4.527344 10.917969 4.269531 10.476562 4.265625 10 C 4.265625 9.519531 4.519531 9.078125 4.9375 8.839844 C 5.351562 8.601562 5.863281 8.601562 6.273438 8.84375 L 9.738281 10.84375 C 10.375 11.214844 10.59375 12.027344 10.226562 12.667969 Z M 10.226562 12.667969 "/>
</g>
</svg>
