<?xml version="1.0" encoding="UTF-8"?>
<svg xmlns="http://www.w3.org/2000/svg" xmlns:xlink="http://www.w3.org/1999/xlink" width="32" height="32" viewBox="0 0 32 32" version="1.1">
<g id="surface1">
<path style=" stroke:none;fill-rule:nonzero;fill:rgb(100%,100%,100%);fill-opacity:1;" d="M 25.332031 13.332031 L 26.667969 13.332031 C 27.402344 13.332031 28 13.929688 28 14.667969 L 28 28 C 28 28.738281 27.402344 29.332031 26.667969 29.332031 L 5.332031 29.332031 C 4.597656 29.332031 4 28.738281 4 28 L 4 14.667969 C 4 13.929688 4.597656 13.332031 5.332031 13.332031 L 6.667969 13.332031 L 6.667969 12 C 6.667969 6.84375 10.84375 2.667969 16 2.667969 C 21.15625 2.667969 25.332031 6.84375 25.332031 12 Z M 6.667969 16 L 6.667969 26.667969 L 25.332031 26.667969 L 25.332031 16 Z M 14.667969 18.667969 L 17.332031 18.667969 L 17.332031 24 L 14.667969 24 Z M 22.667969 13.332031 L 22.667969 12 C 22.667969 8.316406 19.683594 5.332031 16 5.332031 C 12.316406 5.332031 9.332031 8.316406 9.332031 12 L 9.332031 13.332031 Z M 22.667969 13.332031 "/>
</g>
</svg>
