<?xml version="1.0" encoding="UTF-8"?>
<svg xmlns="http://www.w3.org/2000/svg" xmlns:xlink="http://www.w3.org/1999/xlink" width="32" height="32" viewBox="0 0 32 32" version="1.1">
<g id="surface1">
<path style=" stroke:none;fill-rule:nonzero;fill:rgb(100%,100%,100%);fill-opacity:1;" d="M 6.667969 14.667969 L 17.332031 14.667969 L 17.332031 17.332031 L 6.667969 17.332031 L 6.667969 21.332031 L 0 16 L 6.667969 10.667969 Z M 5.332031 24 L 8.945312 24 C 13.230469 27.78125 19.738281 27.511719 23.699219 23.382812 C 27.65625 19.257812 27.65625 12.742188 23.699219 8.617188 C 19.738281 4.488281 13.230469 4.21875 8.945312 8 L 5.332031 8 C 7.847656 4.640625 11.800781 2.664062 16 2.667969 C 23.363281 2.667969 29.332031 8.636719 29.332031 16 C 29.332031 23.363281 23.363281 29.332031 16 29.332031 C 11.800781 29.335938 7.847656 27.359375 5.332031 24 Z M 5.332031 24 "/>
</g>
</svg>
