<?xml version="1.0" encoding="UTF-8"?>
<svg xmlns="http://www.w3.org/2000/svg" xmlns:xlink="http://www.w3.org/1999/xlink" width="32" height="32" viewBox="0 0 32 32" version="1.1">
<g id="surface1">
<path style=" stroke:none;fill-rule:nonzero;fill:rgb(100%,100%,100%);fill-opacity:1;" d="M 26.667969 19.332031 L 26.667969 31.332031 L 22.222656 28 L 18.667969 28 L 18.667969 22.667969 L 22.222656 22.667969 Z M 28 4 C 28.738281 4 29.332031 4.597656 29.332031 5.332031 L 29.332031 17.332031 L 26.667969 17.332031 L 26.667969 9.648438 L 16.097656 19.117188 L 5.332031 9.621094 L 5.332031 25.332031 L 16 25.332031 L 16 28 L 4 28 C 3.261719 28 2.667969 27.402344 2.667969 26.667969 L 2.667969 5.332031 C 2.667969 4.597656 3.261719 4 4 4 Z M 28 22.667969 C 29.4375 22.660156 30.621094 23.796875 30.675781 25.234375 C 30.730469 26.671875 29.636719 27.890625 28.199219 27.992188 L 28 28 Z M 26 6.667969 L 6.015625 6.667969 L 16.082031 15.550781 Z M 26 6.667969 "/>
</g>
</svg>
