<?xml version="1.0" encoding="UTF-8"?>
<svg xmlns="http://www.w3.org/2000/svg" xmlns:xlink="http://www.w3.org/1999/xlink" width="32" height="32" viewBox="0 0 32 32" version="1.1">
<g id="surface1">
<path style=" stroke:none;fill-rule:nonzero;fill:rgb(100%,100%,100%);fill-opacity:1;" d="M 29.332031 17.789062 C 26.425781 16.757812 23.1875 17.492188 21.003906 19.671875 C 18.824219 21.851562 18.089844 25.09375 19.121094 28 L 4 28 C 3.261719 28 2.667969 27.402344 2.667969 26.667969 L 2.667969 5.332031 C 2.667969 4.597656 3.261719 4 4 4 L 28 4 C 28.738281 4 29.332031 4.597656 29.332031 5.332031 Z M 16.078125 15.578125 L 7.53125 8.316406 L 5.804688 10.347656 L 16.097656 19.089844 L 26.207031 10.34375 L 24.460938 8.324219 L 16.082031 15.578125 Z M 25.332031 29.332031 L 20.617188 24.617188 L 22.503906 22.734375 L 25.332031 25.5625 L 30.046875 20.847656 L 31.933594 22.734375 Z M 25.332031 29.332031 "/>
</g>
</svg>
