<?xml version="1.0" encoding="UTF-8"?>
<svg xmlns="http://www.w3.org/2000/svg" xmlns:xlink="http://www.w3.org/1999/xlink" width="32" height="32" viewBox="0 0 32 32" version="1.1">
<g id="surface1">
<path style=" stroke:none;fill-rule:nonzero;fill:rgb(100%,100%,100%);fill-opacity:1;" d="M 16 0 C 13.613281 0 11.222656 0.910156 9.398438 2.734375 C 7.691406 4.441406 6.796875 6.5 6.667969 9.003906 C 6.597656 10.414062 6.949219 12.046875 7.648438 13.53125 C 7.785156 13.820312 9.320312 16.519531 11.0625 19.535156 C 11.214844 19.800781 11.191406 19.753906 11.332031 19.996094 L 6.992188 19.996094 C 6.640625 19.996094 6.316406 20.183594 6.136719 20.484375 L 0.144531 30.492188 C -0.0390625 30.800781 -0.0390625 31.183594 0.136719 31.492188 C 0.3125 31.804688 0.640625 31.996094 1 32 L 31 32 C 31.359375 31.996094 31.6875 31.804688 31.863281 31.492188 C 32.039062 31.183594 32.039062 30.800781 31.855469 30.492188 L 25.863281 20.484375 C 25.683594 20.183594 25.359375 19.996094 25.007812 19.996094 L 20.625 19.996094 C 22.367188 16.972656 24.226562 13.785156 24.367188 13.488281 C 25.464844 11.183594 25.625 8.683594 24.828125 6.328125 C 24.363281 4.957031 23.632812 3.78125 22.589844 2.734375 C 20.773438 0.910156 18.386719 0 16 0 Z M 15.996094 5.316406 C 16.664062 5.316406 16.761719 5.328125 17.097656 5.453125 C 17.621094 5.644531 18.042969 5.917969 18.421875 6.304688 C 18.808594 6.699219 19.039062 7.066406 19.210938 7.5625 C 19.773438 9.179688 19.027344 10.996094 17.503906 11.722656 C 17.242188 11.847656 16.925781 11.96875 16.800781 12 C 16.464844 12.078125 15.808594 12.109375 15.488281 12.058594 C 14.183594 11.851562 13.097656 10.890625 12.722656 9.609375 C 12.574219 9.101562 12.554688 8.359375 12.683594 7.871094 C 12.980469 6.726562 13.769531 5.867188 14.890625 5.453125 C 15.230469 5.328125 15.324219 5.316406 15.996094 5.316406 Z M 7.570312 22.003906 L 12.511719 22.003906 C 14.011719 24.574219 14.539062 25.394531 14.96875 25.601562 C 15.101562 25.664062 15.320312 25.746094 15.460938 25.78125 C 16.382812 26.003906 17.335938 25.632812 17.839844 24.84375 C 17.960938 24.652344 18.855469 23.0625 19.472656 22.003906 L 24.429688 22.003906 L 24.488281 22.101562 L 19.664062 26.910156 L 9.847656 24.945312 L 4.054688 27.851562 Z M 25.546875 23.863281 L 29.242188 30.007812 L 4.207031 30.007812 L 10.140625 27.042969 L 20.328125 29.078125 Z M 25.546875 23.863281 "/>
</g>
</svg>
