<?xml version="1.0" encoding="UTF-8"?>
<svg xmlns="http://www.w3.org/2000/svg" xmlns:xlink="http://www.w3.org/1999/xlink" width="32" height="32" viewBox="0 0 32 32" version="1.1">
<g id="surface1">
<path style=" stroke:none;fill-rule:nonzero;fill:rgb(100%,100%,100%);fill-opacity:1;" d="M 14.667969 26.59375 C 8.34375 25.878906 3.679688 20.351562 4.03125 14 C 4.386719 7.648438 9.636719 2.675781 16 2.667969 C 22.371094 2.660156 27.636719 7.636719 27.988281 14 C 28.34375 20.359375 23.664062 25.890625 17.332031 26.59375 L 17.332031 32 L 14.667969 32 Z M 16 24 C 21.15625 24 25.332031 19.820312 25.332031 14.667969 C 25.332031 9.511719 21.15625 5.332031 16 5.332031 C 10.84375 5.332031 6.667969 9.511719 6.667969 14.667969 C 6.667969 19.820312 10.84375 24 16 24 Z M 16 24 "/>
</g>
</svg>
