<?xml version="1.0" encoding="UTF-8"?>
<svg xmlns="http://www.w3.org/2000/svg" xmlns:xlink="http://www.w3.org/1999/xlink" width="32" height="32" viewBox="0 0 32 32" version="1.1">
<g id="surface1">
<path style=" stroke:none;fill-rule:nonzero;fill:rgb(100%,100%,100%);fill-opacity:1;" d="M 2.625 0 L 26.628906 32 L 30.367188 32 L 6.367188 0 Z M 16.007812 0 C 14.125 0 12.238281 0.464844 10.535156 1.382812 L 14.582031 6.78125 C 14.601562 6.773438 14.617188 6.761719 14.636719 6.753906 C 15.058594 6.597656 15.171875 6.582031 16.003906 6.582031 C 16.832031 6.582031 16.949219 6.597656 17.367188 6.75 C 18.011719 6.988281 18.535156 7.324219 19.003906 7.804688 C 19.480469 8.292969 19.765625 8.746094 19.980469 9.363281 C 20.445312 10.695312 20.179688 12.128906 19.402344 13.207031 L 24.480469 19.980469 C 25.128906 18.839844 26.296875 16.851562 26.367188 16.699219 C 27.726562 13.847656 27.925781 10.753906 26.941406 7.835938 C 26.367188 6.140625 25.460938 4.683594 24.167969 3.386719 C 21.917969 1.128906 18.964844 0 16.007812 0 Z M 4.871094 8.492188 C 4.648438 9.332031 4.5 10.210938 4.453125 11.148438 C 4.363281 12.894531 4.804688 14.917969 5.667969 16.753906 C 5.835938 17.109375 7.738281 20.453125 9.894531 24.1875 C 14.105469 31.480469 14.027344 31.359375 14.730469 31.699219 C 14.894531 31.777344 15.171875 31.878906 15.34375 31.921875 C 16.484375 32.199219 17.660156 31.734375 18.285156 30.757812 C 18.390625 30.589844 19.269531 29.035156 19.710938 28.28125 Z M 4.871094 8.492188 "/>
</g>
</svg>
