<?xml version="1.0" encoding="UTF-8"?>
<svg xmlns="http://www.w3.org/2000/svg" xmlns:xlink="http://www.w3.org/1999/xlink" width="32" height="32" viewBox="0 0 32 32" version="1.1">
<g id="surface1">
<path style=" stroke:none;fill-rule:nonzero;fill:rgb(100%,100%,100%);fill-opacity:1;" d="M 13.332031 14 L 14.71875 9.152344 C 14.878906 8.578125 15.402344 8.183594 16 8.183594 C 16.597656 8.183594 17.121094 8.578125 17.28125 9.152344 L 18.667969 14 L 18.667969 16 L 19.625 16 C 20.238281 16 20.769531 16.417969 20.921875 17.007812 L 22.734375 24.273438 C 26.234375 21.421875 27.5625 16.679688 26.050781 12.425781 C 24.539062 8.175781 20.511719 5.332031 16 5.332031 C 11.488281 5.332031 7.460938 8.175781 5.949219 12.425781 C 4.4375 16.679688 5.765625 21.421875 9.265625 24.273438 L 11.082031 17.007812 C 11.230469 16.417969 11.761719 16 12.375 16 L 13.332031 16 Z M 16 26.667969 C 17.5 26.667969 18.984375 26.355469 20.351562 25.742188 L 18.585938 18.667969 L 13.414062 18.667969 L 11.648438 25.742188 C 13.015625 26.355469 14.5 26.667969 16 26.667969 Z M 16 29.332031 C 8.636719 29.332031 2.667969 23.363281 2.667969 16 C 2.667969 8.636719 8.636719 2.667969 16 2.667969 C 23.363281 2.667969 29.332031 8.636719 29.332031 16 C 29.332031 23.363281 23.363281 29.332031 16 29.332031 Z M 16 29.332031 "/>
</g>
</svg>
