<?xml version="1.0" encoding="UTF-8"?>
<svg xmlns="http://www.w3.org/2000/svg" xmlns:xlink="http://www.w3.org/1999/xlink" width="32" height="32" viewBox="0 0 32 32" version="1.1">
<g id="surface1">
<path style=" stroke:none;fill-rule:nonzero;fill:rgb(100%,100%,100%);fill-opacity:1;" d="M 16 8.871094 C 18.1875 10.589844 19.464844 13.214844 19.460938 15.996094 C 19.464844 18.777344 18.1875 21.402344 16 23.121094 C 13.8125 21.402344 12.535156 18.777344 12.539062 15.996094 C 12.535156 13.214844 13.8125 10.589844 16 8.871094 Z M 14.839844 8.097656 C 12.527344 10.070312 11.195312 12.960938 11.199219 16 C 11.195312 19.039062 12.527344 21.925781 14.835938 23.902344 C 11.023438 26.042969 6.230469 25.15625 3.433594 21.792969 C 0.636719 18.433594 0.636719 13.554688 3.4375 10.195312 C 6.234375 6.835938 11.03125 5.953125 14.839844 8.097656 Z M 17.164062 23.902344 C 19.472656 21.925781 20.804688 19.039062 20.800781 16 C 20.804688 12.960938 19.472656 10.070312 17.160156 8.097656 C 20.972656 5.953125 25.769531 6.835938 28.566406 10.195312 C 31.363281 13.554688 31.363281 18.433594 28.570312 21.792969 C 25.773438 25.15625 20.976562 26.042969 17.164062 23.902344 Z M 17.164062 23.902344 "/>
</g>
</svg>
