<?xml version="1.0" encoding="UTF-8"?>
<svg xmlns="http://www.w3.org/2000/svg" xmlns:xlink="http://www.w3.org/1999/xlink" width="32" height="32" viewBox="0 0 32 32" version="1.1">
<g id="surface1">
<path style=" stroke:none;fill-rule:nonzero;fill:rgb(100%,100%,100%);fill-opacity:1;" d="M 4.023438 16.011719 C 3.980469 14.332031 4.007812 12.746094 4.007812 11.421875 C 4.007812 5.636719 7.796875 3.941406 7.796875 3.941406 C 9.710938 3.0625 12.988281 2.695312 16.398438 2.667969 L 16.480469 2.667969 C 19.890625 2.691406 23.171875 3.0625 25.082031 3.941406 C 25.082031 3.941406 28.875 5.636719 28.875 11.421875 C 28.875 11.421875 28.921875 15.6875 28.34375 18.652344 C 27.980469 20.535156 25.070312 22.59375 21.726562 22.992188 C 19.988281 23.199219 18.269531 23.390625 16.441406 23.308594 C 13.449219 23.167969 11.089844 22.59375 11.089844 22.59375 C 11.089844 22.882812 11.109375 23.160156 11.144531 23.421875 C 11.253906 24.265625 11.542969 24.878906 11.949219 25.332031 C 12.96875 26.464844 14.757812 26.574219 16.476562 26.632812 C 18.902344 26.714844 21.0625 26.035156 21.0625 26.035156 L 21.164062 28.226562 C 21.164062 28.226562 19.464844 29.140625 16.441406 29.308594 C 14.773438 29.398438 12.703125 29.265625 10.292969 28.628906 C 8.25 28.085938 6.867188 26.90625 5.933594 25.332031 C 4.476562 22.875 4.109375 19.457031 4.023438 16.011719 Z M 8.425781 22.59375 L 8.425781 19.195312 L 11.722656 20.003906 C 12.296875 20.128906 12.878906 20.238281 13.460938 20.328125 C 14.464844 20.484375 15.511719 20.597656 16.5625 20.644531 C 17.921875 20.707031 19.097656 20.621094 21.410156 20.34375 C 23.628906 20.078125 25.609375 18.75 25.726562 18.144531 C 25.835938 17.582031 25.929688 16.914062 26 16.167969 C 26.09375 15.171875 26.15625 14.175781 26.183594 13.175781 C 26.203125 12.496094 26.210938 11.914062 26.207031 11.5 L 26.207031 11.421875 C 26.207031 9.515625 25.714844 8.171875 24.921875 7.210938 C 24.695312 6.933594 24.433594 6.6875 24.144531 6.480469 C 24.023438 6.394531 23.964844 6.363281 23.96875 6.363281 C 22.621094 5.742188 19.847656 5.363281 16.480469 5.332031 L 16.421875 5.332031 C 13.035156 5.359375 10.261719 5.742188 8.886719 6.375 C 8.917969 6.363281 8.859375 6.394531 8.738281 6.480469 C 8.445312 6.6875 8.183594 6.933594 7.957031 7.210938 C 7.167969 8.171875 6.675781 9.515625 6.675781 11.421875 C 6.675781 11.730469 6.675781 11.949219 6.671875 12.589844 C 6.660156 13.707031 6.664062 14.828125 6.6875 15.945312 C 6.761719 18.875 7.042969 21.058594 7.621094 22.667969 C 7.90625 23.449219 8.253906 24.09375 8.664062 24.601562 C 8.492188 23.945312 8.414062 23.269531 8.421875 22.59375 Z M 10.777344 8.492188 C 11.621094 8.492188 12.304688 9.175781 12.304688 10.019531 C 12.304688 10.859375 11.621094 11.542969 10.777344 11.542969 C 9.9375 11.542969 9.253906 10.859375 9.253906 10.019531 C 9.253906 9.175781 9.9375 8.492188 10.777344 8.492188 Z M 10.777344 8.492188 "/>
</g>
</svg>
