<?xml version="1.0" encoding="UTF-8"?>
<svg xmlns="http://www.w3.org/2000/svg" xmlns:xlink="http://www.w3.org/1999/xlink" width="32" height="32" viewBox="0 0 32 32" version="1.1">
<g id="surface1">
<path style=" stroke:none;fill-rule:nonzero;fill:rgb(100%,100%,100%);fill-opacity:1;" d="M 5.332031 4 L 26.667969 4 C 27.402344 4 28 4.597656 28 5.332031 L 28 26.667969 C 28 27.402344 27.402344 28 26.667969 28 L 5.332031 28 C 4.597656 28 4 27.402344 4 26.667969 L 4 5.332031 C 4 4.597656 4.597656 4 5.332031 4 Z M 6.667969 6.667969 L 6.667969 25.332031 L 25.332031 25.332031 L 25.332031 6.667969 Z M 23.066406 21.253906 L 24.339844 22.523438 L 24.339844 22.59375 L 17.777344 22.59375 L 17.777344 22.523438 L 19.117188 21.253906 C 19.25 21.121094 19.316406 20.988281 19.316406 20.785156 L 19.316406 12.886719 C 19.316406 12.550781 19.316406 12.082031 19.386719 11.679688 L 14.964844 22.726562 L 14.898438 22.726562 L 10.347656 12.550781 C 10.28125 12.28125 10.214844 12.28125 10.148438 12.148438 L 10.148438 18.84375 C 10.078125 19.3125 10.148438 19.714844 10.347656 20.117188 L 12.15625 22.523438 L 12.15625 22.59375 L 7.332031 22.59375 L 7.332031 22.523438 L 9.140625 20.046875 C 9.339844 19.648438 9.40625 19.179688 9.339844 18.777344 L 9.339844 11.414062 C 9.339844 11.078125 9.273438 10.675781 9.007812 10.410156 L 7.800781 8.734375 L 7.800781 8.667969 L 12.488281 8.667969 L 16.371094 17.304688 L 19.785156 8.667969 L 24.339844 8.667969 L 24.339844 8.734375 L 23.066406 10.207031 C 22.933594 10.339844 22.867188 10.542969 22.867188 10.675781 L 22.867188 20.851562 C 22.867188 20.984375 22.933594 21.1875 23.066406 21.253906 Z M 23.066406 21.253906 "/>
</g>
</svg>
