<?xml version="1.0" encoding="UTF-8"?>
<svg xmlns="http://www.w3.org/2000/svg" xmlns:xlink="http://www.w3.org/1999/xlink" width="32" height="32" viewBox="0 0 32 32" version="1.1">
<g id="surface1">
<path style=" stroke:none;fill-rule:nonzero;fill:rgb(100%,100%,100%);fill-opacity:1;" d="M 5.332031 4 L 26.667969 4 C 27.402344 4 28 4.597656 28 5.332031 L 28 26.667969 C 28 27.402344 27.402344 28 26.667969 28 L 5.332031 28 C 4.597656 28 4 27.402344 4 26.667969 L 4 5.332031 C 4 4.597656 4.597656 4 5.332031 4 Z M 23.066406 21.253906 C 22.933594 21.1875 22.867188 20.988281 22.867188 20.851562 L 22.867188 10.675781 C 22.867188 10.542969 22.933594 10.339844 23.066406 10.207031 L 24.339844 8.734375 L 24.339844 8.667969 L 19.785156 8.667969 L 16.375 17.304688 L 12.488281 8.667969 L 7.800781 8.667969 L 7.800781 8.734375 L 9.007812 10.40625 C 9.273438 10.675781 9.339844 11.078125 9.339844 11.410156 L 9.339844 18.777344 C 9.40625 19.179688 9.339844 19.648438 9.140625 20.046875 L 7.332031 22.523438 L 7.332031 22.59375 L 12.15625 22.59375 L 12.15625 22.523438 L 10.347656 20.117188 C 10.148438 19.714844 10.078125 19.3125 10.148438 18.84375 L 10.148438 12.148438 C 10.214844 12.28125 10.28125 12.28125 10.347656 12.546875 L 14.898438 22.726562 L 14.964844 22.726562 L 19.386719 11.679688 C 19.320312 12.078125 19.320312 12.550781 19.320312 12.886719 L 19.320312 20.785156 C 19.320312 20.984375 19.253906 21.117188 19.121094 21.253906 L 17.78125 22.523438 L 17.78125 22.59375 L 24.339844 22.59375 L 24.339844 22.523438 L 23.070312 21.253906 Z M 23.066406 21.253906 "/>
</g>
</svg>
