<?xml version="1.0" encoding="UTF-8"?>
<svg xmlns="http://www.w3.org/2000/svg" xmlns:xlink="http://www.w3.org/1999/xlink" width="32" height="32" viewBox="0 0 32 32" version="1.1">
<g id="surface1">
<path style=" stroke:none;fill-rule:nonzero;fill:rgb(100%,100%,100%);fill-opacity:1;" d="M 28.953125 0.0976562 C 28.679688 0.109375 28.421875 0.230469 28.242188 0.4375 C 28.242188 0.4375 20.789062 8.953125 11.207031 8.972656 C 11.195312 8.972656 11.1875 8.972656 11.175781 8.972656 L 1.003906 8.972656 C 0.886719 8.96875 0.769531 8.988281 0.65625 9.03125 C 0.542969 9.070312 0.4375 9.132812 0.347656 9.210938 C 0.316406 9.238281 0.289062 9.265625 0.261719 9.296875 C 0.183594 9.382812 0.117188 9.484375 0.0742188 9.59375 C 0.0585938 9.628906 0.046875 9.667969 0.0351562 9.707031 C 0.0234375 9.746094 0.015625 9.785156 0.0117188 9.824219 C 0.00390625 9.875 0 9.925781 0 9.976562 L 0 18.847656 C 0 18.925781 0.0117188 19.003906 0.03125 19.082031 C 0.0507812 19.15625 0.078125 19.234375 0.117188 19.304688 C 0.136719 19.339844 0.15625 19.371094 0.179688 19.40625 C 0.246094 19.503906 0.332031 19.585938 0.429688 19.65625 C 0.460938 19.675781 0.496094 19.699219 0.53125 19.71875 C 0.601562 19.753906 0.675781 19.785156 0.75 19.804688 C 0.832031 19.824219 0.917969 19.835938 1.003906 19.835938 L 3.28125 19.835938 C 3.832031 23.402344 4.742188 26.46875 5.925781 29.292969 C 6.539062 30.757812 8.414062 31.90625 10 31.90625 L 12 31.90625 C 14.210938 31.90625 14.441406 30.851562 13.40625 28.933594 C 11.894531 26.128906 10.882812 22.167969 10.378906 19.835938 L 11.175781 19.835938 C 20.773438 19.835938 28.242188 28.371094 28.242188 28.371094 C 28.847656 29.070312 29.996094 28.644531 30 27.722656 L 30 16.640625 C 31.191406 16.257812 32 15.152344 32 13.90625 C 32 12.652344 31.191406 11.546875 30 11.167969 L 30 1.085938 C 29.992188 0.519531 29.519531 0.0703125 28.953125 0.0976562 Z M 27.992188 3.300781 L 27.992188 25.519531 C 26.003906 23.457031 20.558594 18.277344 12.179688 17.882812 L 12.179688 10.925781 C 20.558594 10.53125 26.003906 5.363281 27.992188 3.300781 Z M 27.992188 3.300781 "/>
</g>
</svg>
