<?xml version="1.0" encoding="UTF-8"?>
<svg xmlns="http://www.w3.org/2000/svg" xmlns:xlink="http://www.w3.org/1999/xlink" width="32" height="32" viewBox="0 0 32 32" version="1.1">
<g id="surface1">
<path style=" stroke:none;fill-rule:nonzero;fill:rgb(100%,100%,100%);fill-opacity:1;" d="M 27.296875 29.234375 C 31.859375 24.671875 33.21875 17.789062 30.75 11.828125 C 28.28125 5.867188 22.457031 1.972656 16.003906 1.972656 C 9.554688 1.972656 3.714844 5.878906 1.246094 11.839844 C -1.222656 17.800781 0.148438 24.671875 4.710938 29.234375 C 5.769531 30.289062 7.480469 30.289062 8.539062 29.234375 C 9.050781 28.726562 9.339844 28.039062 9.34375 27.316406 C 9.34375 26.597656 9.058594 25.90625 8.550781 25.394531 C 5.53125 22.375 4.628906 17.859375 6.265625 13.910156 C 7.898438 9.964844 11.730469 7.386719 16.003906 7.386719 C 20.277344 7.386719 24.109375 9.964844 25.746094 13.910156 C 27.378906 17.859375 26.476562 22.375 23.457031 25.394531 C 22.402344 26.453125 22.402344 28.164062 23.457031 29.222656 C 23.964844 29.734375 24.652344 30.023438 25.375 30.027344 C 26.09375 30.027344 26.785156 29.742188 27.296875 29.234375 Z M 27.296875 29.234375 "/>
<path style=" stroke:none;fill-rule:nonzero;fill:rgb(100%,100%,100%);fill-opacity:1;" d="M 9.644531 11.742188 L 15.140625 19.625 L 17.585938 16.28125 Z M 9.644531 11.742188 "/>
<path style=" stroke:none;fill-rule:nonzero;fill:rgb(100%,100%,100%);fill-opacity:1;" d="M 9.695312 10.675781 C 8.800781 10.617188 8.242188 11.628906 8.765625 12.355469 L 14.261719 20.238281 C 14.679688 20.835938 15.5625 20.84375 15.992188 20.253906 L 18.441406 16.90625 C 18.820312 16.398438 18.671875 15.671875 18.121094 15.351562 L 10.175781 10.820312 C 10.03125 10.734375 9.867188 10.683594 9.695312 10.675781 Z M 9.695312 10.675781 "/>
</g>
</svg>
