<?xml version="1.0" encoding="UTF-8"?>
<svg xmlns="http://www.w3.org/2000/svg" xmlns:xlink="http://www.w3.org/1999/xlink" width="32" height="32" viewBox="0 0 32 32" version="1.1">
<g id="surface1">
<path style=" stroke:none;fill-rule:nonzero;fill:rgb(100%,100%,100%);fill-opacity:1;" d="M 28 1.332031 L 28 17.332031 C 28 23.132812 23.851562 28.101562 18.144531 29.136719 C 12.441406 30.175781 6.808594 26.984375 4.769531 21.554688 C 2.726562 16.128906 4.859375 10.015625 9.832031 7.039062 L 18.667969 1.9375 L 18.667969 5.628906 Z M 25.332031 5.496094 L 16 9.792969 L 16 6.554688 L 11.460938 9.175781 C 8.613281 10.757812 6.800781 13.710938 6.671875 16.96875 L 6.667969 17.332031 C 6.664062 22.425781 10.746094 26.582031 15.839844 26.667969 C 20.933594 26.757812 25.15625 22.746094 25.328125 17.652344 L 25.332031 17.332031 Z M 16 10.667969 C 19.683594 10.667969 22.667969 13.652344 22.667969 17.332031 C 22.667969 21.015625 19.683594 24 16 24 C 12.316406 24 9.332031 21.015625 9.332031 17.332031 C 9.332031 13.652344 12.316406 10.667969 16 10.667969 Z M 16 13.332031 C 13.789062 13.332031 12 15.125 12 17.332031 C 12 19.542969 13.789062 21.332031 16 21.332031 C 18.210938 21.332031 20 19.542969 20 17.332031 C 20 15.125 18.210938 13.332031 16 13.332031 Z M 16 13.332031 "/>
</g>
</svg>
