<?xml version="1.0" encoding="UTF-8"?>
<svg xmlns="http://www.w3.org/2000/svg" xmlns:xlink="http://www.w3.org/1999/xlink" width="32" height="32" viewBox="0 0 32 32" version="1.1">
<g id="surface1">
<path style=" stroke:none;fill-rule:nonzero;fill:rgb(100%,100%,100%);fill-opacity:1;" d="M 16 1.332031 C 19.683594 1.332031 22.667969 4.316406 22.667969 8 L 22.667969 16 C 22.667969 19.683594 19.683594 22.667969 16 22.667969 C 12.316406 22.667969 9.332031 19.683594 9.332031 16 L 9.332031 8 C 9.332031 4.316406 12.316406 1.332031 16 1.332031 Z M 2.921875 18.617188 L 5.539062 18.09375 C 6.539062 23.074219 10.917969 26.660156 16 26.660156 C 21.082031 26.660156 25.460938 23.074219 26.460938 18.09375 L 29.078125 18.617188 C 27.863281 24.726562 22.464844 29.332031 16 29.332031 C 9.535156 29.332031 4.136719 24.726562 2.921875 18.617188 Z M 2.921875 18.617188 "/>
</g>
</svg>
