<?xml version="1.0" encoding="UTF-8"?>
<svg xmlns="http://www.w3.org/2000/svg" xmlns:xlink="http://www.w3.org/1999/xlink" width="32" height="32" viewBox="0 0 32 32" version="1.1">
<g id="surface1">
<path style=" stroke:none;fill-rule:nonzero;fill:rgb(100%,100%,100%);fill-opacity:1;" d="M 24.667969 2.667969 C 27.753906 2.664062 30.335938 5.003906 30.640625 8.074219 C 30.945312 11.144531 28.871094 13.945312 25.84375 14.550781 L 25.859375 14.585938 C 27.199219 17.824219 26.863281 21.511719 24.960938 24.457031 C 23.058594 27.398438 19.835938 29.21875 16.332031 29.328125 L 16 29.332031 C 12.429688 29.335938 9.097656 27.550781 7.117188 24.578125 C 5.140625 21.605469 4.78125 17.84375 6.15625 14.550781 C 3.128906 13.949219 1.050781 11.148438 1.355469 8.074219 C 1.660156 5.003906 4.246094 2.664062 7.332031 2.667969 C 10.519531 2.667969 13.148438 5.15625 13.324219 8.339844 L 13.421875 8.3125 C 14.265625 8.105469 15.132812 8 16 8 L 16.332031 8.003906 C 17.125 8.03125 17.910156 8.140625 18.675781 8.339844 C 18.847656 5.15625 21.480469 2.667969 24.667969 2.667969 Z M 16 10.667969 C 11.582031 10.667969 8 14.25 8 18.667969 C 8 23.085938 11.582031 26.667969 16 26.667969 C 20.417969 26.667969 24 23.085938 24 18.667969 C 24 14.25 20.417969 10.667969 16 10.667969 Z M 7.332031 5.332031 C 5.492188 5.332031 4 6.824219 4 8.667969 C 4 10.507812 5.492188 12 7.332031 12 L 7.550781 11.992188 L 7.6875 11.980469 C 8.382812 11.117188 9.203125 10.371094 10.125 9.761719 L 10.566406 9.484375 C 10.816406 8.488281 10.597656 7.429688 9.964844 6.621094 C 9.332031 5.808594 8.363281 5.332031 7.332031 5.332031 Z M 24.667969 5.332031 C 23.683594 5.332031 22.753906 5.765625 22.121094 6.515625 C 21.488281 7.261719 21.214844 8.253906 21.378906 9.222656 L 21.4375 9.488281 L 21.472656 9.507812 C 22.558594 10.160156 23.519531 10.996094 24.3125 11.980469 C 25.542969 12.117188 26.746094 11.566406 27.445312 10.539062 C 28.140625 9.515625 28.210938 8.191406 27.628906 7.097656 C 27.046875 6.003906 25.90625 5.324219 24.667969 5.332031 Z M 24.667969 5.332031 "/>
</g>
</svg>
