<?xml version="1.0" encoding="UTF-8"?>
<svg xmlns="http://www.w3.org/2000/svg" xmlns:xlink="http://www.w3.org/1999/xlink" width="32" height="32" viewBox="0 0 32 32" version="1.1">
<g id="surface1">
<path style=" stroke:none;fill-rule:nonzero;fill:rgb(100%,100%,100%);fill-opacity:1;" d="M 16 29.332031 C 8.636719 29.332031 2.667969 23.363281 2.667969 16 C 2.667969 8.636719 8.636719 2.667969 16 2.667969 C 23.363281 2.667969 29.332031 8.636719 29.332031 16 C 29.332031 23.363281 23.363281 29.332031 16 29.332031 Z M 16 26.667969 C 21.890625 26.667969 26.667969 21.890625 26.667969 16 C 26.667969 10.109375 21.890625 5.332031 16 5.332031 C 10.109375 5.332031 5.332031 10.109375 5.332031 16 C 5.332031 21.890625 10.109375 26.667969 16 26.667969 Z M 17.332031 18.667969 C 17.332031 20.984375 15.632812 22.949219 13.339844 23.28125 C 11.050781 23.617188 8.859375 22.222656 8.195312 20 C 7.53125 17.78125 8.597656 15.414062 10.699219 14.433594 C 11.363281 14.125 12.160156 14.414062 12.46875 15.078125 C 12.78125 15.746094 12.492188 16.539062 11.824219 16.851562 C 10.921875 17.269531 10.464844 18.285156 10.75 19.238281 C 11.035156 20.1875 11.972656 20.789062 12.953125 20.644531 C 13.9375 20.5 14.667969 19.660156 14.667969 18.667969 L 14.667969 13.332031 C 14.667969 11.015625 16.367188 9.050781 18.660156 8.71875 C 20.949219 8.382812 23.140625 9.777344 23.804688 12 C 24.46875 14.21875 23.402344 16.585938 21.300781 17.566406 C 20.636719 17.875 19.839844 17.585938 19.53125 16.921875 C 19.21875 16.253906 19.507812 15.460938 20.175781 15.148438 C 21.078125 14.730469 21.535156 13.714844 21.25 12.761719 C 20.964844 11.8125 20.027344 11.210938 19.046875 11.355469 C 18.0625 11.5 17.332031 12.339844 17.332031 13.332031 Z M 17.332031 18.667969 "/>
</g>
</svg>
