<?xml version="1.0" encoding="UTF-8"?>
<svg xmlns="http://www.w3.org/2000/svg" xmlns:xlink="http://www.w3.org/1999/xlink" width="32" height="32" viewBox="0 0 32 32" version="1.1">
<g id="surface1">
<path style=" stroke:none;fill-rule:nonzero;fill:rgb(100%,100%,100%);fill-opacity:1;" d="M 16 29.332031 C 8.636719 29.332031 2.667969 23.363281 2.667969 16 C 2.667969 8.636719 8.636719 2.667969 16 2.667969 C 23.363281 2.667969 29.332031 8.636719 29.332031 16 C 29.332031 23.363281 23.363281 29.332031 16 29.332031 Z M 12 17.332031 L 12 20 L 10.667969 20 L 10.667969 22.667969 L 21.332031 22.667969 L 21.332031 20 L 14.667969 20 L 14.667969 17.332031 L 18.667969 17.332031 L 18.667969 14.667969 L 14.667969 14.667969 L 14.667969 13.332031 C 14.664062 12.445312 15.25 11.664062 16.101562 11.414062 C 16.949219 11.164062 17.867188 11.5 18.347656 12.246094 L 20.996094 11.585938 C 20.15625 9.515625 17.96875 8.328125 15.777344 8.753906 C 13.585938 9.179688 12.003906 11.101562 12 13.332031 L 12 14.667969 L 10.667969 14.667969 L 10.667969 17.332031 Z M 12 17.332031 "/>
</g>
</svg>
