<?xml version="1.0" encoding="UTF-8"?>
<svg xmlns="http://www.w3.org/2000/svg" xmlns:xlink="http://www.w3.org/1999/xlink" width="32" height="32" viewBox="0 0 32 32" version="1.1">
<g id="surface1">
<path style=" stroke:none;fill-rule:nonzero;fill:rgb(100%,100%,100%);fill-opacity:1;" d="M 4 4 L 28 4 C 28.738281 4 29.332031 4.597656 29.332031 5.332031 L 29.332031 26.667969 C 29.332031 27.402344 28.738281 28 28 28 L 4 28 C 3.261719 28 2.667969 27.402344 2.667969 26.667969 L 2.667969 5.332031 C 2.667969 4.597656 3.261719 4 4 4 Z M 11.332031 18.667969 L 11.332031 21.332031 L 14.667969 21.332031 L 14.667969 24 L 17.332031 24 L 17.332031 21.332031 L 18.667969 21.332031 C 20.507812 21.332031 22 19.839844 22 18 C 22 16.160156 20.507812 14.667969 18.667969 14.667969 L 13.332031 14.667969 C 12.964844 14.667969 12.667969 14.367188 12.667969 14 C 12.667969 13.632812 12.964844 13.332031 13.332031 13.332031 L 20.667969 13.332031 L 20.667969 10.667969 L 17.332031 10.667969 L 17.332031 8 L 14.667969 8 L 14.667969 10.667969 L 13.332031 10.667969 C 11.492188 10.667969 10 12.160156 10 14 C 10 15.839844 11.492188 17.332031 13.332031 17.332031 L 18.667969 17.332031 C 19.035156 17.332031 19.332031 17.632812 19.332031 18 C 19.332031 18.367188 19.035156 18.667969 18.667969 18.667969 Z M 11.332031 18.667969 "/>
</g>
</svg>
