<?xml version="1.0" encoding="UTF-8"?>
<svg xmlns="http://www.w3.org/2000/svg" xmlns:xlink="http://www.w3.org/1999/xlink" width="32" height="32" viewBox="0 0 32 32" version="1.1">
<g id="surface1">
<path style=" stroke:none;fill-rule:nonzero;fill:rgb(100%,100%,100%);fill-opacity:1;" d="M 13.097656 2.984375 C 10.992188 7.546875 11.957031 12.9375 15.511719 16.488281 C 19.0625 20.042969 24.453125 21.007812 29.015625 18.902344 C 27.691406 24.871094 22.367188 29.332031 16 29.332031 C 8.636719 29.332031 2.667969 23.363281 2.667969 16 C 2.667969 9.632812 7.128906 4.308594 13.097656 2.984375 Z M 24.21875 3.054688 L 25.332031 3.332031 L 25.332031 4.667969 L 24.21875 4.945312 C 23.261719 5.183594 22.515625 5.929688 22.277344 6.886719 L 22 8 L 20.667969 8 L 20.386719 6.886719 C 20.148438 5.929688 19.402344 5.183594 18.449219 4.945312 L 17.332031 4.667969 L 17.332031 3.332031 L 18.449219 3.054688 C 19.402344 2.816406 20.148438 2.070312 20.386719 1.113281 L 20.667969 0 L 22 0 L 22.277344 1.113281 C 22.515625 2.070312 23.261719 2.816406 24.21875 3.054688 Z M 30.886719 9.722656 L 32 10 L 32 11.332031 L 30.886719 11.613281 C 29.929688 11.851562 29.183594 12.597656 28.945312 13.550781 L 28.667969 14.667969 L 27.332031 14.667969 L 27.054688 13.550781 C 26.816406 12.597656 26.070312 11.851562 25.113281 11.613281 L 24 11.332031 L 24 10 L 25.113281 9.722656 C 26.070312 9.484375 26.816406 8.738281 27.054688 7.78125 L 27.332031 6.667969 L 28.667969 6.667969 L 28.945312 7.78125 C 29.183594 8.738281 29.929688 9.484375 30.886719 9.722656 Z M 30.886719 9.722656 "/>
</g>
</svg>
