<?xml version="1.0" encoding="UTF-8"?>
<svg xmlns="http://www.w3.org/2000/svg" xmlns:xlink="http://www.w3.org/1999/xlink" width="32" height="32" viewBox="0 0 32 32" version="1.1">
<g id="surface1">
<path style=" stroke:none;fill-rule:nonzero;fill:rgb(100%,100%,100%);fill-opacity:1;" d="M 21.332031 27.113281 L 21.332031 24 L 18.667969 24 L 18.667969 18.667969 L 4.441406 18.667969 C 4.148438 17.582031 4 16.460938 4 15.332031 C 4 9.253906 8.285156 4.171875 14 2.949219 C 12.429688 7.160156 13.671875 11.90625 17.105469 14.8125 C 20.539062 17.71875 25.421875 18.15625 29.320312 15.914062 C 29.09375 20.890625 25.964844 25.273438 21.332031 27.113281 Z M 9.332031 26.667969 L 18.667969 26.667969 L 18.667969 29.332031 L 9.332031 29.332031 Z M 2.667969 21.332031 L 16 21.332031 L 16 24 L 2.667969 24 Z M 2.667969 21.332031 "/>
</g>
</svg>
