<?xml version="1.0" encoding="UTF-8"?>
<svg xmlns="http://www.w3.org/2000/svg" xmlns:xlink="http://www.w3.org/1999/xlink" width="32" height="32" viewBox="0 0 32 32" version="1.1">
<g id="surface1">
<path style=" stroke:none;fill-rule:nonzero;fill:rgb(100%,100%,100%);fill-opacity:1;" d="M 11.558594 6.675781 C 13.359375 2.871094 17.480469 0.738281 21.625 1.476562 C 20.925781 3.621094 21.492188 5.980469 23.089844 7.578125 C 24.683594 9.175781 27.042969 9.742188 29.191406 9.039062 C 29.285156 9.566406 29.332031 10.113281 29.332031 10.667969 C 29.335938 12.238281 28.9375 13.785156 28.179688 15.164062 C 30.46875 17.179688 31.269531 20.402344 30.191406 23.257812 C 29.117188 26.109375 26.382812 28 23.332031 28 L 12 28 C 6.195312 27.996094 1.460938 23.355469 1.339844 17.554688 C 1.222656 11.75 5.761719 6.917969 11.558594 6.675781 Z M 14.460938 6.953125 C 17.875 7.765625 20.667969 10.199219 21.941406 13.464844 C 23.261719 13.210938 24.628906 13.324219 25.890625 13.792969 C 26.191406 13.226562 26.414062 12.613281 26.539062 11.964844 C 22.378906 11.582031 19.085938 8.285156 18.703125 4.125 C 16.972656 4.46875 15.445312 5.484375 14.460938 6.953125 Z M 23.332031 25.332031 C 25.453125 25.332031 27.304688 23.90625 27.84375 21.859375 C 28.386719 19.8125 27.480469 17.65625 25.640625 16.609375 C 23.796875 15.5625 21.484375 15.886719 20 17.398438 L 20 17.332031 C 20 12.914062 16.417969 9.332031 12 9.332031 C 7.582031 9.332031 4 12.914062 4 17.332031 C 4 21.75 7.582031 25.332031 12 25.332031 Z M 23.332031 25.332031 "/>
</g>
</svg>
