<?xml version="1.0" encoding="UTF-8"?>
<svg xmlns="http://www.w3.org/2000/svg" xmlns:xlink="http://www.w3.org/1999/xlink" width="32" height="32" viewBox="0 0 32 32" version="1.1">
<g id="surface1">
<path style=" stroke:none;fill-rule:nonzero;fill:rgb(100%,100%,100%);fill-opacity:1;" d="M 16 18.046875 L 16 4 L 26.667969 4 L 26.667969 6.667969 L 18.667969 6.667969 L 18.667969 22.667969 C 18.667969 25.082031 17.042969 27.191406 14.710938 27.816406 C 12.382812 28.441406 9.921875 27.421875 8.714844 25.332031 C 7.507812 23.242188 7.855469 20.601562 9.5625 18.894531 C 11.269531 17.1875 13.910156 16.839844 16 18.046875 Z M 13.332031 25.332031 C 14.804688 25.332031 16 24.140625 16 22.667969 C 16 21.195312 14.804688 20 13.332031 20 C 11.859375 20 10.667969 21.195312 10.667969 22.667969 C 10.667969 24.140625 11.859375 25.332031 13.332031 25.332031 Z M 13.332031 25.332031 "/>
</g>
</svg>
