<?xml version="1.0" encoding="UTF-8"?>
<svg xmlns="http://www.w3.org/2000/svg" xmlns:xlink="http://www.w3.org/1999/xlink" width="32" height="32" viewBox="0 0 32 32" version="1.1">
<g id="surface1">
<path style=" stroke:none;fill-rule:nonzero;fill:rgb(100%,100%,100%);fill-opacity:1;" d="M 8.003906 0 L 8.003906 8.003906 L 0 8.003906 L 0 27.003906 C -0.0117188 28.582031 0.601562 29.902344 1.550781 30.753906 C 2.5 31.605469 3.738281 31.996094 4.960938 31.992188 C 4.976562 31.992188 4.988281 31.976562 5.003906 31.976562 L 5.003906 31.992188 L 27.003906 31.992188 C 28.003906 31.992188 29.21875 32.054688 30.308594 31.328125 C 31.398438 30.601562 31.992188 29.171875 31.992188 27.003906 L 31.992188 0 Z M 9.996094 1.992188 L 30 1.992188 L 30 27.003906 C 30 28.835938 29.597656 29.402344 29.1875 29.675781 C 28.777344 29.949219 28.003906 30 27.003906 30 L 8.710938 30 C 9.367188 29.179688 9.980469 28.28125 9.996094 27.019531 L 9.996094 26 L 10 26 L 10 24 L 9.996094 24 L 9.996094 22 L 10 22 L 10 20 L 9.996094 20 L 9.996094 18 L 10 18 L 10 16 L 9.996094 16 L 9.996094 14 L 10 14 L 10 12 L 9.996094 12 Z M 12 4 L 12 6 L 18 6 L 18 4 Z M 20 4 L 20 14 L 28 14 L 28 4 Z M 12 8 L 12 10 L 18 10 L 18 8 Z M 1.992188 9.996094 L 8.003906 9.996094 L 8.003906 12 L 4 12 L 4 14 L 8.003906 14 L 8.003906 16 L 4 16 L 4 18 L 8.003906 18 L 8.003906 20 L 4 20 L 4 22 L 8.003906 22 L 8.003906 24 L 4 24 L 4 26 L 8.003906 26 L 8.003906 26.988281 C 7.992188 28.066406 7.613281 28.757812 7.058594 29.246094 C 6.503906 29.734375 5.738281 30 4.960938 30 C 4.183594 30 3.414062 29.742188 2.878906 29.261719 C 2.34375 28.78125 1.980469 28.09375 1.992188 27.003906 Z M 12 12 L 12 14 L 18 14 L 18 12 Z M 12 16 L 12 18 L 28 18 L 28 16 Z M 12 20 L 12 22 L 28 22 L 28 20 Z M 12 24 L 12 26 L 28 26 L 28 24 Z M 12 24 "/>
</g>
</svg>
