<?xml version="1.0" encoding="UTF-8"?>
<svg xmlns="http://www.w3.org/2000/svg" xmlns:xlink="http://www.w3.org/1999/xlink" width="32" height="32" viewBox="0 0 32 32" version="1.1">
<g id="surface1">
<path style=" stroke:none;fill-rule:nonzero;fill:rgb(100%,100%,100%);fill-opacity:1;" d="M 1.226562 31.769531 L 1.226562 18.40625 L 3.375 18.40625 L 7.859375 27.328125 L 7.859375 18.40625 L 9.921875 18.40625 L 9.921875 31.769531 L 7.695312 31.769531 L 3.285156 23.054688 L 3.285156 31.769531 Z M 1.226562 31.769531 "/>
<path style=" stroke:none;fill-rule:nonzero;fill:rgb(100%,100%,100%);fill-opacity:1;" d="M 12.261719 31.769531 L 12.261719 18.40625 L 19.773438 18.40625 L 19.773438 20.667969 L 14.46875 20.667969 L 14.46875 23.828125 L 19.054688 23.828125 L 19.054688 26.089844 L 14.46875 26.089844 L 14.46875 31.769531 Z M 12.261719 31.769531 "/>
<path style=" stroke:none;fill-rule:nonzero;fill:rgb(100%,100%,100%);fill-opacity:1;" d="M 28.632812 26.855469 L 30.773438 27.683594 C 30.441406 29.179688 29.882812 30.273438 29.105469 30.964844 C 28.328125 31.652344 27.371094 31.996094 26.234375 31.996094 C 24.808594 31.996094 23.648438 31.445312 22.761719 30.347656 C 21.742188 29.074219 21.230469 27.363281 21.230469 25.207031 C 21.230469 22.925781 21.746094 21.144531 22.773438 19.855469 C 23.664062 18.738281 24.867188 18.179688 26.371094 18.179688 C 27.601562 18.179688 28.625 18.597656 29.453125 19.4375 C 30.042969 20.03125 30.472656 20.914062 30.746094 22.089844 L 28.558594 22.726562 C 28.421875 22.003906 28.140625 21.449219 27.722656 21.066406 C 27.308594 20.679688 26.820312 20.484375 26.253906 20.484375 C 25.445312 20.484375 24.785156 20.835938 24.277344 21.542969 C 23.765625 22.246094 23.511719 23.410156 23.511719 25.03125 C 23.511719 26.714844 23.757812 27.914062 24.257812 28.625 C 24.757812 29.335938 25.402344 29.691406 26.199219 29.691406 C 26.78125 29.691406 27.285156 29.464844 27.710938 29.015625 C 28.136719 28.558594 28.445312 27.839844 28.632812 26.855469 Z M 28.632812 26.855469 "/>
<path style=" stroke:none;fill-rule:evenodd;fill:rgb(100%,100%,100%);fill-opacity:1;" d="M 10.832031 15.976562 C 10.78125 15.945312 10.734375 15.90625 10.691406 15.867188 C 10.496094 15.683594 10.386719 15.429688 10.378906 15.164062 C 10.371094 14.898438 10.46875 14.644531 10.652344 14.449219 C 12.113281 12.914062 14.121094 12.015625 16.242188 11.960938 C 18.363281 11.90625 20.414062 12.699219 21.953125 14.160156 C 22.347656 14.539062 22.367188 15.160156 21.996094 15.5625 C 21.816406 15.753906 21.5625 15.867188 21.296875 15.875 C 21.03125 15.882812 20.773438 15.78125 20.582031 15.597656 C 19.429688 14.503906 17.890625 13.917969 16.296875 13.957031 C 14.707031 14 13.203125 14.675781 12.105469 15.828125 C 11.773438 16.179688 11.234375 16.242188 10.832031 15.976562 Z M 10.832031 15.976562 "/>
<path style=" stroke:none;fill-rule:evenodd;fill:rgb(100%,100%,100%);fill-opacity:1;" d="M 7.933594 13.207031 C 7.882812 13.175781 7.835938 13.136719 7.792969 13.097656 C 7.601562 12.914062 7.488281 12.660156 7.480469 12.398438 C 7.472656 12.132812 7.574219 11.875 7.753906 11.679688 C 9.949219 9.375 12.96875 8.042969 16.148438 7.960938 C 19.332031 7.878906 22.414062 9.070312 24.722656 11.261719 C 25.117188 11.648438 25.125 12.273438 24.746094 12.671875 C 24.367188 13.058594 23.75 13.070312 23.351562 12.703125 C 21.429688 10.875 18.855469 9.890625 16.207031 9.957031 C 13.554688 10.027344 11.035156 11.136719 9.207031 13.058594 C 8.875 13.410156 8.339844 13.472656 7.933594 13.207031 Z M 7.933594 13.207031 "/>
<path style=" stroke:none;fill-rule:evenodd;fill:rgb(100%,100%,100%);fill-opacity:1;" d="M 5.042969 10.457031 C 4.988281 10.421875 4.9375 10.382812 4.886719 10.339844 C 4.695312 10.15625 4.582031 9.90625 4.578125 9.640625 C 4.570312 9.375 4.667969 9.117188 4.851562 8.925781 C 7.773438 5.851562 11.800781 4.0625 16.042969 3.953125 C 20.285156 3.847656 24.402344 5.4375 27.480469 8.359375 C 27.671875 8.542969 27.785156 8.792969 27.789062 9.058594 C 27.796875 9.324219 27.699219 9.582031 27.515625 9.773438 C 27.332031 9.96875 27.082031 10.078125 26.816406 10.085938 C 26.550781 10.09375 26.292969 9.996094 26.101562 9.8125 C 23.410156 7.253906 19.8125 5.855469 16.097656 5.949219 C 12.386719 6.046875 8.863281 7.613281 6.304688 10.304688 C 5.972656 10.648438 5.445312 10.714844 5.042969 10.457031 Z M 5.042969 10.457031 "/>
<path style=" stroke:none;fill-rule:evenodd;fill:rgb(100%,100%,100%);fill-opacity:1;" d="M 2.175781 6.03125 C 1.925781 6.425781 1.984375 6.941406 2.3125 7.269531 C 2.5 7.460938 2.757812 7.566406 3.023438 7.5625 C 3.285156 7.5625 3.542969 7.457031 3.730469 7.269531 C 10.6875 0.3125 21.90625 0.21875 28.976562 7.066406 C 29.164062 7.253906 29.421875 7.359375 29.691406 7.355469 C 29.957031 7.355469 30.210938 7.246094 30.398438 7.050781 C 30.582031 6.859375 30.683594 6.601562 30.675781 6.335938 C 30.667969 6.070312 30.558594 5.816406 30.363281 5.636719 C 22.527344 -1.957031 10.027344 -1.859375 2.3125 5.855469 C 2.261719 5.910156 2.214844 5.96875 2.175781 6.03125 Z M 2.175781 6.03125 "/>
</g>
</svg>
