<?xml version="1.0" encoding="UTF-8"?>
<svg xmlns="http://www.w3.org/2000/svg" xmlns:xlink="http://www.w3.org/1999/xlink" width="32" height="32" viewBox="0 0 32 32" version="1.1">
<g id="surface1">
<path style=" stroke:none;fill-rule:nonzero;fill:rgb(100%,100%,100%);fill-opacity:1;" d="M 12.371094 -0.0078125 C 11.554688 0.03125 10.867188 0.695312 10.707031 1.601562 L 8.160156 15.894531 L 6.925781 13.101562 C 6.613281 12.398438 5.960938 11.964844 5.261719 11.996094 C 4.5625 12.027344 3.945312 12.519531 3.683594 13.25 L 0.128906 23.257812 C -0.238281 24.28125 0.203125 25.445312 1.113281 25.859375 C 1.550781 26.054688 2.039062 26.046875 2.472656 25.835938 C 2.90625 25.625 3.25 25.230469 3.421875 24.734375 L 5.507812 18.875 L 7.292969 22.890625 C 7.632812 23.65625 8.367188 24.089844 9.121094 23.976562 C 9.871094 23.863281 10.476562 23.226562 10.628906 22.386719 L 12.148438 13.839844 L 14.234375 30.273438 C 14.351562 31.253906 15.089844 31.996094 15.972656 32.007812 C 16.851562 32.023438 17.609375 31.3125 17.753906 30.332031 L 19.800781 16.484375 L 21.375 24.425781 C 21.554688 25.3125 22.246094 25.953125 23.054688 25.980469 C 23.863281 26.007812 24.585938 25.417969 24.8125 24.546875 L 27.125 15.480469 L 28.632812 18.890625 C 28.84375 19.367188 29.210938 19.730469 29.660156 19.898438 C 30.109375 20.066406 30.597656 20.03125 31.019531 19.792969 C 31.898438 19.292969 32.25 18.089844 31.808594 17.105469 L 28.253906 9.101562 C 27.921875 8.371094 27.230469 7.9375 26.503906 8.011719 C 25.777344 8.085938 25.164062 8.652344 24.957031 9.441406 L 23.332031 15.863281 L 21.296875 5.558594 C 21.113281 4.621094 20.367188 3.964844 19.511719 3.988281 C 18.660156 4.015625 17.945312 4.714844 17.804688 5.664062 L 16.140625 16.941406 L 14.210938 1.71875 C 14.085938 0.695312 13.289062 -0.0507812 12.371094 -0.0078125 Z M 12.371094 -0.0078125 "/>
</g>
</svg>
