<?xml version="1.0" encoding="UTF-8"?>
<svg xmlns="http://www.w3.org/2000/svg" xmlns:xlink="http://www.w3.org/1999/xlink" width="32" height="32" viewBox="0 0 32 32" version="1.1">
<g id="surface1">
<path style=" stroke:none;fill-rule:nonzero;fill:rgb(100%,100%,100%);fill-opacity:1;" d="M 24 13.332031 C 24 8.914062 20.417969 5.332031 16 5.332031 C 11.582031 5.332031 8 8.914062 8 13.332031 L 8 24 L 24 24 Z M 26.667969 24.890625 L 27.199219 25.601562 C 27.351562 25.800781 27.375 26.074219 27.261719 26.296875 C 27.148438 26.523438 26.917969 26.667969 26.667969 26.667969 L 5.332031 26.667969 C 5.082031 26.667969 4.851562 26.523438 4.738281 26.296875 C 4.625 26.074219 4.648438 25.800781 4.800781 25.601562 L 5.332031 24.890625 L 5.332031 13.332031 C 5.332031 7.441406 10.109375 2.667969 16 2.667969 C 21.890625 2.667969 26.667969 7.441406 26.667969 13.332031 Z M 12.667969 28 L 19.332031 28 C 19.332031 29.839844 17.839844 31.332031 16 31.332031 C 14.160156 31.332031 12.667969 29.839844 12.667969 28 Z M 12.667969 28 "/>
</g>
</svg>
