<?xml version="1.0" encoding="UTF-8"?>
<svg xmlns="http://www.w3.org/2000/svg" xmlns:xlink="http://www.w3.org/1999/xlink" width="32" height="32" viewBox="0 0 32 32" version="1.1">
<g id="surface1">
<path style=" stroke:none;fill-rule:nonzero;fill:rgb(100%,100%,100%);fill-opacity:1;" d="M 12 24 L 5.332031 24 L 5.332031 13.332031 L 12 13.332031 Z M 9.332031 21.332031 L 9.332031 16 L 8 16 L 8 21.332031 Z M 17.332031 21.332031 L 17.332031 10.667969 L 16 10.667969 L 16 21.332031 Z M 20 24 L 13.332031 24 L 13.332031 8 L 20 8 Z M 25.332031 21.332031 L 25.332031 5.332031 L 24 5.332031 L 24 21.332031 Z M 28 24 L 21.332031 24 L 21.332031 2.667969 L 28 2.667969 Z M 29.332031 29.332031 L 4 29.332031 L 4 26.667969 L 29.332031 26.667969 Z M 29.332031 29.332031 "/>
</g>
</svg>
