<?xml version="1.0" encoding="UTF-8"?>
<svg xmlns="http://www.w3.org/2000/svg" xmlns:xlink="http://www.w3.org/1999/xlink" width="32" height="32" viewBox="0 0 32 32" version="1.1">
<g id="surface1">
<path style=" stroke:none;fill-rule:nonzero;fill:rgb(100%,100%,100%);fill-opacity:1;" d="M 16 2 C 19.140625 2 21.929688 4 22.941406 6.972656 C 23.953125 9.945312 22.957031 13.234375 20.46875 15.148438 C 22.988281 16.546875 24.667969 19.09375 24.667969 22 C 24.667969 26.417969 20.785156 30 16 30 C 11.214844 30 7.332031 26.417969 7.332031 22 C 7.332031 19.09375 9.015625 16.546875 11.53125 15.144531 C 9.042969 13.230469 8.046875 9.945312 9.058594 6.972656 C 10.070312 4 12.859375 2 16 2 Z M 16 16.667969 C 12.640625 16.667969 10 19.105469 10 22 C 10 24.894531 12.640625 27.332031 16 27.332031 C 19.359375 27.332031 22 24.894531 22 22 C 22 19.105469 19.359375 16.667969 16 16.667969 Z M 16 4.667969 C 13.421875 4.667969 11.332031 6.757812 11.332031 9.332031 C 11.332031 11.910156 13.421875 14 16 14 C 18.578125 14 20.667969 11.910156 20.667969 9.332031 C 20.667969 6.757812 18.578125 4.667969 16 4.667969 Z M 16 4.667969 "/>
</g>
</svg>
