<?xml version="1.0" encoding="UTF-8"?>
<svg xmlns="http://www.w3.org/2000/svg" xmlns:xlink="http://www.w3.org/1999/xlink" width="32" height="32" viewBox="0 0 32 32" version="1.1">
<g id="surface1">
<path style=" stroke:none;fill-rule:nonzero;fill:rgb(100%,100%,100%);fill-opacity:1;" d="M 16 20 C 21.441406 20 25.929688 24.070312 26.585938 29.332031 L 5.414062 29.332031 C 6.070312 24.070312 10.558594 20 16 20 Z M 13.582031 23.039062 C 11.671875 23.644531 10.0625 24.949219 9.066406 26.667969 L 16 26.667969 Z M 18.417969 23.039062 L 16 26.667969 L 22.933594 26.667969 C 21.9375 24.949219 20.328125 23.644531 18.417969 23.039062 Z M 24 2.667969 L 24 10.667969 C 24 15.085938 20.417969 18.667969 16 18.667969 C 11.582031 18.667969 8 15.085938 8 10.667969 L 8 2.667969 Z M 10.667969 10.667969 C 10.667969 13.613281 13.054688 16 16 16 C 18.945312 16 21.332031 13.613281 21.332031 10.667969 Z M 21.332031 5.332031 L 10.667969 5.332031 L 10.667969 8 L 21.332031 8 Z M 21.332031 5.332031 "/>
</g>
</svg>
