<?xml version="1.0" encoding="UTF-8"?>
<svg xmlns="http://www.w3.org/2000/svg" xmlns:xlink="http://www.w3.org/1999/xlink" width="32" height="32" viewBox="0 0 32 32" version="1.1">
<g id="surface1">
<path style=" stroke:none;fill-rule:nonzero;fill:rgb(100%,100%,100%);fill-opacity:1;" d="M 12.09375 9.332031 L 8 15.476562 L 8 26.667969 L 24 26.667969 L 24 9.332031 Z M 10.667969 6.667969 L 25.332031 6.667969 C 26.070312 6.667969 26.667969 7.261719 26.667969 8 L 26.667969 28 C 26.667969 28.738281 26.070312 29.332031 25.332031 29.332031 L 6.667969 29.332031 C 5.929688 29.332031 5.332031 28.738281 5.332031 28 L 5.332031 14.667969 Z M 17.332031 1.332031 L 24 1.332031 C 24.738281 1.332031 25.332031 1.929688 25.332031 2.667969 L 25.332031 5.332031 L 16 5.332031 L 16 2.667969 C 16 1.929688 16.597656 1.332031 17.332031 1.332031 Z M 10.667969 16 L 13.332031 16 L 13.332031 24 L 10.667969 24 Z M 10.667969 16 "/>
</g>
</svg>
