<?xml version="1.0" encoding="UTF-8"?>
<svg xmlns="http://www.w3.org/2000/svg" xmlns:xlink="http://www.w3.org/1999/xlink" width="32" height="32" viewBox="0 0 32 32" version="1.1">
<g id="surface1">
<path style=" stroke:none;fill-rule:nonzero;fill:rgb(100%,100%,100%);fill-opacity:1;" d="M 24 22.667969 L 24 29.332031 L 21.332031 29.332031 L 21.332031 22.667969 C 21.332031 16.730469 24.859375 11.621094 29.929688 9.3125 L 31.035156 11.738281 C 26.75 13.6875 24 17.960938 24 22.667969 Z M 10.667969 22.667969 L 10.667969 29.332031 L 8 29.332031 L 8 22.667969 C 8 17.960938 5.25 13.6875 0.964844 11.738281 L 2.070312 9.3125 C 7.304688 11.691406 10.667969 16.914062 10.667969 22.667969 Z M 16 16 C 12.316406 16 9.332031 13.015625 9.332031 9.332031 C 9.332031 5.652344 12.316406 2.667969 16 2.667969 C 19.683594 2.667969 22.667969 5.652344 22.667969 9.332031 C 22.667969 13.015625 19.683594 16 16 16 Z M 16 13.332031 C 18.210938 13.332031 20 11.542969 20 9.332031 C 20 7.125 18.210938 5.332031 16 5.332031 C 13.789062 5.332031 12 7.125 12 9.332031 C 12 11.542969 13.789062 13.332031 16 13.332031 Z M 16 13.332031 "/>
</g>
</svg>
