<?xml version="1.0" encoding="UTF-8"?>
<svg xmlns="http://www.w3.org/2000/svg" xmlns:xlink="http://www.w3.org/1999/xlink" width="32" height="32" viewBox="0 0 32 32" version="1.1">
<g id="surface1">
<path style=" stroke:none;fill-rule:nonzero;fill:rgb(100%,100%,100%);fill-opacity:1;" d="M 5.332031 25.230469 L 3.535156 24.503906 C 2.851562 24.226562 2.519531 23.449219 2.796875 22.765625 L 5.332031 16.488281 Z M 11.8125 28 L 9.332031 28 C 8.597656 28 8 27.402344 8 26.667969 L 8 18.5625 Z M 8.03125 7.957031 L 20.390625 2.960938 C 21.074219 2.6875 21.851562 3.015625 22.125 3.699219 L 29.621094 22.242188 C 29.894531 22.925781 29.566406 23.703125 28.882812 23.980469 L 16.519531 28.972656 C 15.835938 29.25 15.058594 28.917969 14.785156 28.234375 L 7.292969 9.691406 C 7.019531 9.011719 7.347656 8.234375 8.03125 7.957031 Z M 12 12 C 12.738281 12 13.332031 11.402344 13.332031 10.667969 C 13.332031 9.929688 12.738281 9.332031 12 9.332031 C 11.261719 9.332031 10.667969 9.929688 10.667969 10.667969 C 10.667969 11.402344 11.261719 12 12 12 Z M 12 12 "/>
</g>
</svg>
