<?xml version="1.0" encoding="UTF-8"?>
<svg xmlns="http://www.w3.org/2000/svg" xmlns:xlink="http://www.w3.org/1999/xlink" width="32" height="32" viewBox="0 0 32 32" version="1.1">
<g id="surface1">
<path style=" stroke:none;fill-rule:nonzero;fill:rgb(100%,100%,100%);fill-opacity:1;" d="M 9.230469 28 C 6.816406 24.886719 5.332031 20.65625 5.332031 16 C 5.332031 11.34375 6.816406 7.113281 9.230469 4 L 11.914062 4 C 9.648438 7.183594 8.265625 11.390625 8.265625 16 C 8.265625 20.609375 9.648438 24.816406 11.914062 28 Z M 22.765625 28 L 20.078125 28 C 22.347656 24.816406 23.730469 20.609375 23.730469 16 C 23.730469 11.390625 22.347656 7.183594 20.078125 4 L 22.765625 4 C 25.179688 7.113281 26.664062 11.34375 26.664062 16 C 26.664062 20.65625 25.179688 24.886719 22.765625 28 Z M 22.765625 28 "/>
</g>
</svg>
