<?xml version="1.0" encoding="UTF-8"?>
<svg xmlns="http://www.w3.org/2000/svg" xmlns:xlink="http://www.w3.org/1999/xlink" width="32" height="32" viewBox="0 0 32 32" version="1.1">
<defs>
<filter id="alpha" filterUnits="objectBoundingBox" x="0%" y="0%" width="100%" height="100%">
  <feColorMatrix type="matrix" in="SourceGraphic" values="0 0 0 0 1 0 0 0 0 1 0 0 0 0 1 0 0 0 1 0"/>
</filter>
<mask id="mask0">
  <g filter="url(#alpha)">
<rect x="0" y="0" width="32" height="32" style="fill:rgb(100%,100%,100%);fill-opacity:0.996078;stroke:none;"/>
  </g>
</mask>
<clipPath id="clip1">
  <rect x="0" y="0" width="32" height="32"/>
</clipPath>
<g id="surface5" clip-path="url(#clip1)">
<path style=" stroke:none;fill-rule:evenodd;fill:rgb(100%,100%,100%);fill-opacity:1;" d="M 15.902344 0 C 14.507812 0.0351562 13.234375 0.792969 12.539062 2 L 6 2 C 4.890625 2 4 2.890625 4 4 L 4 30 C 4 31.109375 4.890625 32 6 32 L 26 32 C 27.109375 32 28 31.109375 28 30 L 28 4 C 28 2.890625 27.109375 2 26 2 L 19.460938 2 C 18.746094 0.761719 17.429688 0 16 0 C 15.96875 0 15.933594 0 15.902344 0 Z M 15.976562 2.679688 C 15.984375 2.679688 15.992188 2.679688 16 2.679688 C 16.351562 2.679688 16.6875 2.820312 16.933594 3.066406 C 17.179688 3.3125 17.320312 3.648438 17.320312 4 C 17.320312 4.351562 17.179688 4.6875 16.933594 4.933594 C 16.6875 5.179688 16.351562 5.320312 16 5.320312 C 15.648438 5.320312 15.3125 5.179688 15.066406 4.933594 C 14.820312 4.6875 14.679688 4.351562 14.679688 4 C 14.679688 3.28125 15.257812 2.691406 15.976562 2.679688 Z M 6 4 L 10 4 L 10 8 L 22 8 L 22 4 L 26 4 L 26 30 L 6 30 Z M 6 4 "/>
</g>
</defs>
<g id="surface1">
<use xlink:href="#surface5" mask="url(#mask0)"/>
</g>
</svg>
