<?xml version="1.0" encoding="UTF-8"?>
<svg xmlns="http://www.w3.org/2000/svg" xmlns:xlink="http://www.w3.org/1999/xlink" width="32" height="32" viewBox="0 0 32 32" version="1.1">
<g id="surface1">
<path style=" stroke:none;fill-rule:nonzero;fill:rgb(100%,100%,100%);fill-opacity:1;" d="M 20 22.667969 C 14.476562 22.667969 10 18.191406 10 12.667969 C 10 7.144531 14.476562 2.667969 20 2.667969 C 25.523438 2.667969 30 7.144531 30 12.667969 C 30 18.191406 25.523438 22.667969 20 22.667969 Z M 20 20 C 24.050781 20 27.332031 16.714844 27.332031 12.667969 C 27.332031 8.617188 24.050781 5.332031 20 5.332031 C 15.949219 5.332031 12.667969 8.617188 12.667969 12.667969 C 12.667969 16.714844 15.949219 20 20 20 Z M 2.667969 2.667969 L 9.332031 2.667969 L 9.332031 29.332031 L 2.667969 29.332031 Z M 5.332031 5.332031 L 5.332031 26.667969 L 6.667969 26.667969 L 6.667969 5.332031 Z M 5.332031 5.332031 "/>
</g>
</svg>
