<?xml version="1.0" encoding="UTF-8"?>
<svg xmlns="http://www.w3.org/2000/svg" xmlns:xlink="http://www.w3.org/1999/xlink" width="32" height="32" viewBox="0 0 32 32" version="1.1">
<g id="surface1">
<path style=" stroke:none;fill-rule:nonzero;fill:rgb(100%,100%,100%);fill-opacity:1;" d="M 20 9.332031 C 20 8.597656 20.597656 8 21.332031 8 C 22.070312 8 22.667969 8.597656 22.667969 9.332031 L 22.667969 22.667969 C 22.667969 23.402344 22.070312 24 21.332031 24 C 20.597656 24 20 23.402344 20 22.667969 Z M 9.332031 9.332031 C 9.332031 8.597656 9.929688 8 10.667969 8 C 11.402344 8 12 8.597656 12 9.332031 L 12 22.667969 C 12 23.402344 11.402344 24 10.667969 24 C 9.929688 24 9.332031 23.402344 9.332031 22.667969 Z M 9.332031 9.332031 "/>
</g>
</svg>
