<?xml version="1.0" encoding="UTF-8"?>
<svg xmlns="http://www.w3.org/2000/svg" xmlns:xlink="http://www.w3.org/1999/xlink" width="32" height="32" viewBox="0 0 32 32" version="1.1">
<g id="surface1">
<path style=" stroke:none;fill-rule:nonzero;fill:rgb(100%,100%,100%);fill-opacity:1;" d="M 23.835938 2.003906 C 23.808594 2.003906 23.785156 2.007812 23.757812 2.011719 C 23.566406 2.035156 23.390625 2.121094 23.253906 2.257812 L 19.753906 5.757812 C 19.75 5.761719 19.746094 5.769531 19.742188 5.773438 L 4.09375 21.429688 C 4.066406 21.453125 4.039062 21.472656 4.011719 21.5 C 3.988281 21.523438 3.964844 21.550781 3.945312 21.578125 C 3.941406 21.582031 3.9375 21.585938 3.9375 21.585938 L 2.269531 23.253906 C 2.101562 23.417969 2.011719 23.644531 2.011719 23.875 L 2.011719 29.117188 C 2.007812 29.597656 2.394531 29.992188 2.875 29.996094 L 8.132812 29.996094 C 8.367188 29.996094 8.589844 29.902344 8.75 29.738281 L 29.738281 8.738281 C 30.074219 8.398438 30.074219 7.851562 29.738281 7.511719 L 24.492188 2.257812 C 24.320312 2.085938 24.078125 1.992188 23.835938 2.003906 Z M 20.375 7.613281 L 24.394531 11.625 L 9.875 26.136719 L 5.871094 22.117188 Z M 4.628906 23.355469 L 8.640625 27.367188 L 7.769531 28.242188 L 3.753906 28.242188 L 3.753906 24.234375 Z M 4.628906 23.355469 "/>
<path style=" stroke:none;fill-rule:nonzero;fill:rgb(100%,100%,100%);fill-opacity:1;" d="M 2.757812 26.496094 C 2.570312 26.527344 2.398438 26.617188 2.269531 26.753906 C 1.933594 27.09375 1.933594 27.640625 2.269531 27.980469 L 4.011719 29.738281 C 4.175781 29.902344 4.398438 29.996094 4.632812 29.996094 C 4.863281 29.996094 5.085938 29.902344 5.25 29.738281 C 5.417969 29.574219 5.507812 29.351562 5.507812 29.117188 C 5.507812 28.886719 5.417969 28.664062 5.25 28.5 L 3.496094 26.753906 C 3.304688 26.558594 3.03125 26.460938 2.757812 26.496094 Z M 2.757812 26.496094 "/>
</g>
</svg>
