<?xml version="1.0" encoding="UTF-8"?>
<svg xmlns="http://www.w3.org/2000/svg" xmlns:xlink="http://www.w3.org/1999/xlink" width="32" height="32" viewBox="0 0 32 32" version="1.1">
<g id="surface1">
<path style=" stroke:none;fill-rule:nonzero;fill:rgb(100%,100%,100%);fill-opacity:1;" d="M 23.332031 28 C 20.757812 28 18.667969 25.910156 18.667969 23.332031 C 18.667969 20.757812 20.757812 18.667969 23.332031 18.667969 C 25.910156 18.667969 28 20.757812 28 23.332031 C 28 25.910156 25.910156 28 23.332031 28 Z M 23.332031 25.332031 C 24.4375 25.332031 25.332031 24.4375 25.332031 23.332031 C 25.332031 22.230469 24.4375 21.332031 23.332031 21.332031 C 22.230469 21.332031 21.332031 22.230469 21.332031 23.332031 C 21.332031 24.4375 22.230469 25.332031 23.332031 25.332031 Z M 8.667969 13.332031 C 6.089844 13.332031 4 11.242188 4 8.667969 C 4 6.089844 6.089844 4 8.667969 4 C 11.242188 4 13.332031 6.089844 13.332031 8.667969 C 13.332031 11.242188 11.242188 13.332031 8.667969 13.332031 Z M 8.667969 10.667969 C 9.769531 10.667969 10.667969 9.769531 10.667969 8.667969 C 10.667969 7.5625 9.769531 6.667969 8.667969 6.667969 C 7.5625 6.667969 6.667969 7.5625 6.667969 8.667969 C 6.667969 9.769531 7.5625 10.667969 8.667969 10.667969 Z M 25.429688 4.6875 L 27.3125 6.570312 L 6.574219 27.3125 L 4.6875 25.429688 L 25.425781 4.6875 Z M 25.429688 4.6875 "/>
</g>
</svg>
