<?xml version="1.0" encoding="UTF-8"?>
<svg xmlns="http://www.w3.org/2000/svg" xmlns:xlink="http://www.w3.org/1999/xlink" width="32" height="32" viewBox="0 0 32 32" version="1.1">
<g id="surface1">
<path style=" stroke:none;fill-rule:evenodd;fill:rgb(100%,100%,100%);fill-opacity:1;" d="M 29.011719 0.00390625 C 26.320312 0.0195312 23.609375 0.0117188 20.910156 0.0117188 L 17.203125 7.234375 L 20.710938 13.015625 C 18.492188 15.980469 15.855469 18.605469 12.878906 20.8125 L 6.78125 16.933594 L 0.015625 21.089844 L 0.015625 28.691406 L 0.046875 28.675781 C -0.03125 29.128906 0 29.589844 0.144531 30.027344 C 0.625 31.523438 2.230469 32.34375 3.726562 31.863281 C 17.074219 27.546875 27.535156 17.085938 31.855469 3.734375 C 32.34375 2.238281 31.527344 0.628906 30.03125 0.140625 C 29.703125 0.0351562 29.359375 -0.0117188 29.015625 0.00390625 Z M 29.011719 0.00390625 "/>
</g>
</svg>
