<?xml version="1.0" encoding="UTF-8"?>
<svg xmlns="http://www.w3.org/2000/svg" xmlns:xlink="http://www.w3.org/1999/xlink" width="32" height="32" viewBox="0 0 32 32" version="1.1">
<g id="surface1">
<path style=" stroke:none;fill-rule:nonzero;fill:rgb(100%,100%,100%);fill-opacity:1;" d="M 24 2.667969 C 24.738281 2.667969 25.332031 3.261719 25.332031 4 L 25.335938 13.464844 C 21.726562 12.730469 18.203125 15.058594 17.464844 18.667969 L 16 18.667969 L 16 29.332031 L 8 29.332031 C 7.261719 29.332031 6.667969 28.738281 6.667969 28 L 6.667969 4 C 6.667969 3.261719 7.261719 2.667969 8 2.667969 Z M 24 16 C 26.210938 16 28 17.789062 28 20 L 28 21.332031 L 29.332031 21.332031 L 29.332031 28 C 29.332031 28.738281 28.738281 29.332031 28 29.332031 L 20 29.332031 C 19.261719 29.332031 18.667969 28.738281 18.667969 28 L 18.667969 21.332031 L 20 21.332031 L 20 20 C 20 17.789062 21.789062 16 24 16 Z M 24 18.667969 C 23.316406 18.667969 22.667969 19.265625 22.667969 20 L 22.667969 21.332031 L 25.332031 21.332031 L 25.332031 20 C 25.332031 19.261719 24.738281 18.667969 24 18.667969 Z M 24 18.667969 "/>
</g>
</svg>
