<?xml version="1.0" encoding="UTF-8"?>
<svg xmlns="http://www.w3.org/2000/svg" xmlns:xlink="http://www.w3.org/1999/xlink" width="32" height="32" viewBox="0 0 32 32" version="1.1">
<g id="surface1">
<path style=" stroke:none;fill-rule:nonzero;fill:rgb(100%,100%,100%);fill-opacity:1;" d="M 28 4 C 28.738281 4 29.332031 4.597656 29.332031 5.332031 L 29.332031 14.667969 L 26.667969 14.667969 L 26.667969 6.667969 L 5.332031 6.667969 L 5.332031 25.332031 L 13.332031 25.332031 L 13.332031 28 L 4 28 C 3.261719 28 2.667969 27.402344 2.667969 26.667969 L 2.667969 5.332031 C 2.667969 4.597656 3.261719 4 4 4 Z M 28 17.332031 C 28.738281 17.332031 29.332031 17.929688 29.332031 18.667969 L 29.332031 26.667969 C 29.332031 27.402344 28.738281 28 28 28 L 17.332031 28 C 16.597656 28 16 27.402344 16 26.667969 L 16 18.667969 C 16 17.929688 16.597656 17.332031 17.332031 17.332031 Z M 26.667969 20 L 18.667969 20 L 18.667969 25.332031 L 26.667969 25.332031 Z M 8.941406 8.390625 L 11.941406 11.390625 L 14.667969 8.667969 L 14.667969 16 L 7.332031 16 L 10.058594 13.277344 L 7.058594 10.277344 Z M 8.941406 8.390625 "/>
</g>
</svg>
