<?xml version="1.0" encoding="UTF-8"?>
<svg xmlns="http://www.w3.org/2000/svg" xmlns:xlink="http://www.w3.org/1999/xlink" width="32" height="32" viewBox="0 0 32 32" version="1.1">
<g id="surface1">
<path style=" stroke:none;fill-rule:nonzero;fill:rgb(100%,100%,100%);fill-opacity:1;" d="M 15.332031 2.667969 C 22.328125 2.667969 28 8.335938 28 15.332031 C 28.003906 17.300781 27.546875 19.246094 26.664062 21.003906 L 29.945312 24.289062 C 30.46875 24.8125 30.46875 25.65625 29.945312 26.175781 L 26.175781 29.945312 C 25.65625 30.46875 24.8125 30.46875 24.289062 29.945312 L 21.003906 26.664062 C 19.246094 27.546875 17.300781 28.003906 15.332031 28 C 8.335938 28 2.667969 22.328125 2.667969 15.332031 C 2.667969 8.335938 8.335938 2.667969 15.332031 2.667969 Z M 22.402344 20.515625 L 20.519531 22.402344 L 25.234375 27.117188 L 27.117188 25.230469 Z M 24.890625 12.378906 L 12.378906 24.890625 C 13.3125 25.175781 14.304688 25.332031 15.332031 25.332031 C 16.582031 25.335938 17.824219 25.101562 18.988281 24.644531 L 17.691406 23.347656 C 17.171875 22.824219 17.171875 21.980469 17.691406 21.460938 L 21.460938 17.691406 C 21.980469 17.171875 22.824219 17.171875 23.347656 17.691406 L 24.644531 18.988281 C 25.101562 17.824219 25.335938 16.582031 25.332031 15.332031 C 25.332031 14.304688 25.175781 13.3125 24.890625 12.378906 Z M 24.890625 12.378906 "/>
</g>
</svg>
