<?xml version="1.0" encoding="UTF-8"?>
<svg xmlns="http://www.w3.org/2000/svg" xmlns:xlink="http://www.w3.org/1999/xlink" width="32" height="32" viewBox="0 0 32 32" version="1.1">
<g id="surface1">
<path style=" stroke:none;fill-rule:nonzero;fill:rgb(100%,100%,100%);fill-opacity:1;" d="M 28 4 L 28 6.667969 C 28 11.820312 23.820312 16 18.667969 16 L 17.332031 16 L 17.332031 17.332031 L 24 17.332031 L 24 26.667969 C 24 28.140625 22.808594 29.332031 21.332031 29.332031 L 10.667969 29.332031 C 9.191406 29.332031 8 28.140625 8 26.667969 L 8 17.332031 L 14.667969 17.332031 L 14.667969 13.332031 C 14.667969 8.179688 18.84375 4 24 4 Z M 7.332031 2.667969 C 10.707031 2.667969 13.6875 4.335938 15.5 6.890625 C 14.136719 8.679688 13.332031 10.914062 13.332031 13.332031 L 13.332031 14.667969 L 12.667969 14.667969 C 7.144531 14.667969 2.667969 10.1875 2.667969 4.667969 L 2.667969 2.667969 Z M 7.332031 2.667969 "/>
</g>
</svg>
