<?xml version="1.0" encoding="UTF-8"?>
<svg xmlns="http://www.w3.org/2000/svg" xmlns:xlink="http://www.w3.org/1999/xlink" width="32" height="32" viewBox="0 0 32 32" version="1.1">
<g id="surface1">
<path style=" stroke:none;fill-rule:nonzero;fill:rgb(100%,100%,100%);fill-opacity:1;" d="M 26.691406 0.488281 C 24.171875 0.496094 21.28125 0.660156 18.640625 1.859375 C 16.882812 2.660156 15.238281 4.007812 14.195312 5.992188 C 14.117188 6.140625 14.066406 6.316406 13.992188 6.472656 C 17.234375 8.8125 19.039062 13.03125 19.003906 18.667969 C 23.90625 16.109375 29.265625 11.703125 31.027344 2.894531 C 31.144531 2.304688 30.992188 1.695312 30.613281 1.234375 C 30.230469 0.769531 29.664062 0.503906 29.0625 0.503906 C 28.328125 0.503906 27.53125 0.484375 26.691406 0.488281 Z M 26.691406 0.488281 "/>
<path style=" stroke:none;fill-rule:nonzero;fill:rgb(100%,100%,100%);fill-opacity:1;" d="M 2.933594 5.992188 C 2.3125 5.992188 1.726562 6.28125 1.347656 6.773438 C 0.96875 7.265625 0.839844 7.902344 1 8.503906 C 1.550781 10.640625 2.59375 13.839844 4.660156 16.875 C 6.40625 19.441406 9.441406 21.46875 12.929688 22.855469 L 12.929688 31.992188 L 16.929688 31.992188 L 16.929688 20.121094 C 17.316406 13.96875 15.554688 10.011719 12.558594 8.015625 C 9.5625 6.019531 5.984375 5.992188 2.933594 5.992188 Z M 2.933594 5.992188 "/>
</g>
</svg>
