<?xml version="1.0" encoding="UTF-8"?>
<svg xmlns="http://www.w3.org/2000/svg" xmlns:xlink="http://www.w3.org/1999/xlink" width="32" height="32" viewBox="0 0 32 32" version="1.1">
<g id="surface1">
<path style=" stroke:none;fill-rule:nonzero;fill:rgb(100%,100%,100%);fill-opacity:1;" d="M 2.667969 24 L 16 24 L 16 26.667969 L 2.667969 26.667969 Z M 2.667969 14.667969 L 21.332031 14.667969 L 21.332031 17.332031 L 2.667969 17.332031 Z M 2.667969 5.332031 L 29.332031 5.332031 L 29.332031 8 L 2.667969 8 Z M 25.332031 20.226562 L 25.332031 12 L 32 12 L 32 14.667969 L 28 14.667969 L 28 24 C 28 25.742188 26.871094 27.285156 25.210938 27.808594 C 23.550781 28.335938 21.738281 27.730469 20.734375 26.304688 C 19.726562 24.882812 19.757812 22.972656 20.808594 21.585938 C 21.859375 20.195312 23.691406 19.644531 25.332031 20.226562 Z M 25.332031 20.226562 "/>
</g>
</svg>
