<?xml version="1.0" encoding="UTF-8"?>
<svg xmlns="http://www.w3.org/2000/svg" xmlns:xlink="http://www.w3.org/1999/xlink" width="32" height="32" viewBox="0 0 32 32" version="1.1">
<g id="surface1">
<path style=" stroke:none;fill-rule:nonzero;fill:rgb(100%,100%,100%);fill-opacity:1;" d="M 4 2 C 1.789062 2 0 3.789062 0 6 L 0 26 C 0 28.210938 1.789062 30 4 30 L 16 30 L 16 2 Z M 18 2 L 18 6 L 20 6 L 20 10 L 18 10 L 18 30 L 24 30 L 24 2 Z M 26 2 L 26 6 L 28 6 L 28 10 L 26 10 L 26 30 L 32 30 L 32 2 Z M 4 6 L 12 6 L 12 10 L 4 10 Z M 4 24 L 12 24 L 12 26 L 4 26 Z M 4 24 "/>
</g>
</svg>
