<?xml version="1.0" encoding="UTF-8"?>
<svg xmlns="http://www.w3.org/2000/svg" xmlns:xlink="http://www.w3.org/1999/xlink" width="32" height="32" viewBox="0 0 32 32" version="1.1">
<g id="surface1">
<path style=" stroke:none;fill-rule:nonzero;fill:rgb(100%,100%,100%);fill-opacity:1;" d="M 27.546875 13.332031 C 26.246094 9.660156 22.488281 7.457031 18.648438 8.113281 C 14.808594 8.773438 12.003906 12.105469 12.003906 16 C 12.003906 19.894531 14.808594 23.226562 18.648438 23.886719 C 22.488281 24.542969 26.246094 22.339844 27.546875 18.667969 L 28 18.667969 L 28 26.667969 C 28 27.402344 27.402344 28 26.667969 28 L 5.332031 28 C 4.597656 28 4 27.402344 4 26.667969 L 4 5.332031 C 4 4.597656 4.597656 4 5.332031 4 L 26.667969 4 C 27.402344 4 28 4.597656 28 5.332031 L 28 13.332031 Z M 6.667969 8 L 6.667969 12 L 9.332031 12 L 9.332031 8 Z M 20 21.332031 C 17.054688 21.332031 14.667969 18.945312 14.667969 16 C 14.667969 13.054688 17.054688 10.667969 20 10.667969 C 22.945312 10.667969 25.332031 13.054688 25.332031 16 C 25.332031 18.945312 22.945312 21.332031 20 21.332031 Z M 20 18.667969 C 21.472656 18.667969 22.667969 17.472656 22.667969 16 C 22.667969 14.527344 21.472656 13.332031 20 13.332031 C 18.527344 13.332031 17.332031 14.527344 17.332031 16 C 17.332031 17.472656 18.527344 18.667969 20 18.667969 Z M 20 18.667969 "/>
</g>
</svg>
