<?xml version="1.0" encoding="UTF-8"?>
<svg xmlns="http://www.w3.org/2000/svg" xmlns:xlink="http://www.w3.org/1999/xlink" width="32" height="32" viewBox="0 0 32 32" version="1.1">
<defs>
<filter id="alpha" filterUnits="objectBoundingBox" x="0%" y="0%" width="100%" height="100%">
  <feColorMatrix type="matrix" in="SourceGraphic" values="0 0 0 0 1 0 0 0 0 1 0 0 0 0 1 0 0 0 1 0"/>
</filter>
<mask id="mask0">
  <g filter="url(#alpha)">
<rect x="0" y="0" width="32" height="32" style="fill:rgb(100%,100%,100%);fill-opacity:0.996078;stroke:none;"/>
  </g>
</mask>
<clipPath id="clip1">
  <rect x="0" y="0" width="32" height="32"/>
</clipPath>
<g id="surface5" clip-path="url(#clip1)">
<path style=" stroke:none;fill-rule:evenodd;fill:rgb(100%,100%,100%);fill-opacity:1;" d="M 11.898438 0 C 8.625 0.0546875 6 2.726562 6 6 C 6 8.542969 7.605469 10.804688 10 11.652344 L 10 18 C 10 18 8 20 8 22 C 8 23.398438 9.953125 27.71875 11.128906 30.199219 C 11.601562 31.195312 12.894531 32 14 32 L 24 32 C 25.109375 32 26 31.109375 26 30 L 26 16 C 26 14.890625 25.109375 14 24 14 C 22.890625 14 22 14.890625 22 16 L 22 15 C 22 13.890625 21.109375 13 20 13 C 18.890625 13 18 13.890625 18 15 L 18 14 C 18 12.890625 17.109375 12 16 12 C 14.890625 12 14 12.890625 14 14 L 14 11.65625 C 16.398438 10.808594 18 8.542969 18 6 C 18 2.6875 15.3125 0 12 0 C 11.964844 0 11.933594 0 11.898438 0 Z M 11.898438 2 C 11.898438 2 11.902344 2 11.902344 2 C 11.933594 2 11.96875 2 12 2 C 14.210938 2 16 3.789062 16 6 C 16 7.429688 15.238281 8.746094 14 9.460938 L 14 6 C 14 4.890625 13.109375 4 12 4 C 10.890625 4 10 4.890625 10 6 L 10 9.460938 C 8.761719 8.746094 8 7.429688 8 6 C 8 3.828125 9.730469 2.054688 11.898438 2 Z M 11.898438 2 "/>
</g>
</defs>
<g id="surface1">
<use xlink:href="#surface5" mask="url(#mask0)"/>
</g>
</svg>
