<?xml version="1.0" encoding="UTF-8"?>
<svg xmlns="http://www.w3.org/2000/svg" xmlns:xlink="http://www.w3.org/1999/xlink" width="32" height="32" viewBox="0 0 32 32" version="1.1">
<g id="surface1">
<path style=" stroke:none;fill-rule:nonzero;fill:rgb(100%,100%,100%);fill-opacity:1;" d="M 14.535156 2.800781 L 27.730469 4.6875 L 29.617188 17.886719 L 17.363281 30.144531 C 16.839844 30.664062 15.996094 30.664062 15.476562 30.144531 L 2.277344 16.941406 C 1.753906 16.421875 1.753906 15.578125 2.277344 15.058594 Z M 15.476562 5.628906 L 5.105469 16 L 16.417969 27.3125 L 26.789062 16.941406 L 25.375 7.042969 Z M 18.300781 14.113281 C 17.261719 13.074219 17.261719 11.382812 18.304688 10.34375 C 19.34375 9.300781 21.035156 9.300781 22.074219 10.34375 C 23.117188 11.382812 23.117188 13.074219 22.074219 14.117188 C 21.035156 15.15625 19.34375 15.15625 18.300781 14.113281 Z M 18.300781 14.113281 "/>
</g>
</svg>
