<?xml version="1.0" encoding="UTF-8"?>
<svg xmlns="http://www.w3.org/2000/svg" xmlns:xlink="http://www.w3.org/1999/xlink" width="32" height="32" viewBox="0 0 32 32" version="1.1">
<g id="surface1">
<path style=" stroke:none;fill-rule:nonzero;fill:rgb(100%,100%,100%);fill-opacity:1;" d="M 9.332031 22.667969 L 22.667969 22.667969 L 22.667969 29.332031 L 9.332031 29.332031 Z M 25.332031 26.667969 L 25.332031 20 L 6.667969 20 L 6.667969 26.667969 L 4 26.667969 C 3.261719 26.667969 2.667969 26.070312 2.667969 25.332031 L 2.667969 12 C 2.667969 11.261719 3.261719 10.667969 4 10.667969 L 28 10.667969 C 28.738281 10.667969 29.332031 11.261719 29.332031 12 L 29.332031 25.332031 C 29.332031 26.070312 28.738281 26.667969 28 26.667969 Z M 6.667969 13.332031 L 6.667969 16 L 10.667969 16 L 10.667969 13.332031 Z M 9.332031 2.667969 L 22.667969 2.667969 C 23.402344 2.667969 24 3.261719 24 4 L 24 8 L 8 8 L 8 4 C 8 3.261719 8.597656 2.667969 9.332031 2.667969 Z M 9.332031 2.667969 "/>
</g>
</svg>
