<?xml version="1.0" encoding="UTF-8"?>
<svg xmlns="http://www.w3.org/2000/svg" xmlns:xlink="http://www.w3.org/1999/xlink" width="32" height="32" viewBox="0 0 32 32" version="1.1">
<g id="surface1">
<path style=" stroke:none;fill-rule:nonzero;fill:rgb(100%,100%,100%);fill-opacity:1;" d="M 29.332031 25.332031 L 29.332031 28 L 26.667969 28 L 26.667969 25.332031 L 5.332031 25.332031 L 5.332031 28 L 2.667969 28 L 2.667969 25.332031 C 1.929688 25.332031 1.332031 24.738281 1.332031 24 L 1.332031 8 C 1.332031 7.261719 1.929688 6.667969 2.667969 6.667969 L 16.703125 6.667969 C 18.21875 4.96875 20.390625 3.996094 22.667969 4 C 25.035156 4 27.164062 5.03125 28.628906 6.667969 L 29.332031 6.667969 C 30.070312 6.667969 30.667969 7.261719 30.667969 8 L 30.667969 24 C 30.667969 24.738281 30.070312 25.332031 29.332031 25.332031 Z M 15.121094 9.332031 L 4 9.332031 L 4 22.667969 L 28 22.667969 L 28 17.960938 C 25.277344 20.402344 21.246094 20.683594 18.210938 18.648438 C 15.171875 16.613281 13.902344 12.78125 15.121094 9.332031 Z M 22.667969 17.332031 C 25.613281 17.332031 28 14.945312 28 12 C 28 9.054688 25.613281 6.667969 22.667969 6.667969 C 19.722656 6.667969 17.332031 9.054688 17.332031 12 C 17.332031 14.945312 19.722656 17.332031 22.667969 17.332031 Z M 6.667969 17.332031 L 9.332031 17.332031 L 9.332031 20 L 6.667969 20 Z M 10.667969 17.332031 L 13.332031 17.332031 L 13.332031 20 L 10.667969 20 Z M 10.667969 17.332031 "/>
</g>
</svg>
