<?xml version="1.0" encoding="UTF-8"?>
<svg xmlns="http://www.w3.org/2000/svg" xmlns:xlink="http://www.w3.org/1999/xlink" width="32" height="32" viewBox="0 0 32 32" version="1.1">
<g id="surface1">
<path style=" stroke:none;fill-rule:nonzero;fill:rgb(100%,100%,100%);fill-opacity:1;" d="M 25.710938 0.425781 L 29.714844 0.425781 C 30.976562 0.425781 31.992188 1.449219 31.992188 2.71875 L 31.992188 6.75 C 31.992188 8.019531 30.976562 9.042969 29.714844 9.042969 L 25.710938 9.042969 C 24.445312 9.042969 23.429688 8.019531 23.429688 6.75 L 23.429688 2.71875 C 23.429688 1.449219 24.445312 0.425781 25.710938 0.425781 Z M 25.710938 0.425781 "/>
<path style=" stroke:none;fill-rule:nonzero;fill:rgb(100%,100%,100%);fill-opacity:1;" d="M 2.285156 0.0703125 L 6.289062 0.0703125 C 7.550781 0.0703125 8.566406 1.09375 8.566406 2.367188 L 8.566406 6.394531 C 8.566406 7.664062 7.550781 8.6875 6.289062 8.6875 L 2.285156 8.6875 C 1.023438 8.6875 0.00390625 7.664062 0.00390625 6.394531 L 0.00390625 2.367188 C 0.00390625 1.09375 1.023438 0.0703125 2.285156 0.0703125 Z M 2.285156 0.0703125 "/>
<path style=" stroke:none;fill-rule:nonzero;fill:rgb(100%,100%,100%);fill-opacity:1;" d="M 2.285156 23.375 L 6.289062 23.375 C 7.550781 23.375 8.566406 24.398438 8.566406 25.667969 L 8.566406 29.699219 C 8.566406 30.96875 7.550781 31.992188 6.289062 31.992188 L 2.285156 31.992188 C 1.023438 31.992188 0.00390625 30.96875 0.00390625 29.699219 L 0.00390625 25.667969 C 0.00390625 24.398438 1.023438 23.375 2.285156 23.375 Z M 2.285156 23.375 "/>
<path style=" stroke:none;fill-rule:nonzero;fill:rgb(100%,100%,100%);fill-opacity:1;" d="M 18.976562 0.183594 C 18.160156 0.183594 17.496094 0.851562 17.496094 1.671875 L 17.496094 13.40625 C 17.496094 14.230469 18.160156 14.898438 18.976562 14.898438 L 22.023438 14.898438 C 22.417969 14.902344 22.800781 14.746094 23.082031 14.46875 C 23.363281 14.1875 23.519531 13.804688 23.519531 13.40625 C 23.519531 13.011719 23.363281 12.628906 23.082031 12.347656 C 22.800781 12.070312 22.417969 11.914062 22.023438 11.917969 L 20.457031 11.917969 L 20.457031 1.671875 C 20.457031 0.851562 19.796875 0.183594 18.976562 0.183594 Z M 18.976562 0.183594 "/>
<path style=" stroke:none;fill-rule:nonzero;fill:rgb(100%,100%,100%);fill-opacity:1;" d="M 24.546875 17.488281 C 24.152344 17.484375 23.769531 17.640625 23.488281 17.917969 C 23.207031 18.199219 23.050781 18.582031 23.050781 18.980469 L 23.050781 24.785156 C 23.050781 25.183594 23.207031 25.566406 23.488281 25.847656 C 23.769531 26.125 24.152344 26.28125 24.546875 26.277344 C 25.363281 26.277344 26.027344 25.609375 26.027344 24.785156 L 26.027344 20.46875 L 30.503906 20.46875 C 30.898438 20.472656 31.277344 20.316406 31.558594 20.039062 C 31.839844 19.757812 32 19.375 32 18.980469 C 32 18.582031 31.839844 18.199219 31.558594 17.917969 C 31.277344 17.640625 30.898438 17.484375 30.503906 17.488281 Z M 24.546875 17.488281 "/>
<path style=" stroke:none;fill-rule:nonzero;fill:rgb(100%,100%,100%);fill-opacity:1;" d="M 1.480469 11.765625 C 0.664062 11.765625 0 12.433594 0 13.253906 C 0 14.078125 0.664062 14.746094 1.480469 14.746094 L 7.722656 14.746094 C 8.539062 14.746094 9.203125 14.078125 9.203125 13.253906 C 9.203125 12.433594 8.539062 11.765625 7.722656 11.765625 Z M 1.480469 11.765625 "/>
<path style=" stroke:none;fill-rule:nonzero;fill:rgb(100%,100%,100%);fill-opacity:1;" d="M 13.273438 5.753906 C 12.457031 5.753906 11.792969 6.421875 11.792969 7.246094 L 11.792969 14.761719 C 11.792969 15.585938 12.457031 16.253906 13.273438 16.253906 C 14.09375 16.253906 14.753906 15.585938 14.753906 14.761719 L 14.753906 7.246094 C 14.753906 6.421875 14.09375 5.753906 13.273438 5.753906 Z M 13.273438 5.753906 "/>
<path style=" stroke:none;fill-rule:nonzero;fill:rgb(100%,100%,100%);fill-opacity:1;" d="M 13.339844 24.464844 C 12.523438 24.464844 11.863281 25.132812 11.859375 25.953125 L 11.859375 30.492188 C 11.855469 30.890625 12.011719 31.273438 12.289062 31.558594 C 12.566406 31.839844 12.945312 32 13.339844 32 C 13.738281 32 14.117188 31.839844 14.394531 31.558594 C 14.671875 31.273438 14.828125 30.890625 14.820312 30.492188 L 14.820312 25.953125 C 14.820312 25.132812 14.160156 24.464844 13.339844 24.464844 Z M 13.339844 24.464844 "/>
<path style=" stroke:none;fill-rule:nonzero;fill:rgb(100%,100%,100%);fill-opacity:1;" d="M 27.523438 11.746094 L 27.601562 11.746094 C 28.398438 11.746094 29.042969 12.394531 29.042969 13.199219 L 29.042969 13.277344 C 29.042969 14.082031 28.398438 14.726562 27.601562 14.726562 L 27.523438 14.726562 C 26.722656 14.726562 26.078125 14.082031 26.078125 13.277344 L 26.078125 13.199219 C 26.078125 12.394531 26.722656 11.746094 27.523438 11.746094 Z M 27.523438 11.746094 "/>
<path style=" stroke:none;fill-rule:nonzero;fill:rgb(100%,100%,100%);fill-opacity:1;" d="M 30.472656 23.167969 L 30.550781 23.167969 C 31.347656 23.167969 31.992188 23.816406 31.992188 24.621094 L 31.992188 24.699219 C 31.992188 25.5 31.347656 26.148438 30.550781 26.148438 L 30.472656 26.148438 C 29.671875 26.148438 29.03125 25.5 29.03125 24.699219 L 29.03125 24.621094 C 29.03125 23.816406 29.671875 23.167969 30.472656 23.167969 Z M 30.472656 23.167969 "/>
<path style=" stroke:none;fill-rule:nonzero;fill:rgb(100%,100%,100%);fill-opacity:1;" d="M 19.003906 27.433594 L 19.082031 27.433594 C 19.882812 27.433594 20.523438 28.082031 20.523438 28.886719 L 20.523438 28.960938 C 20.523438 29.765625 19.882812 30.414062 19.082031 30.414062 L 19.003906 30.414062 C 18.203125 30.414062 17.5625 29.765625 17.5625 28.960938 L 17.5625 28.886719 C 17.5625 28.082031 18.203125 27.433594 19.003906 27.433594 Z M 19.003906 27.433594 "/>
<path style=" stroke:none;fill-rule:nonzero;fill:rgb(100%,100%,100%);fill-opacity:1;" d="M 16.046875 21.734375 L 16.125 21.734375 C 16.925781 21.734375 17.570312 22.382812 17.570312 23.1875 L 17.570312 23.265625 C 17.570312 24.066406 16.925781 24.714844 16.125 24.714844 L 16.046875 24.714844 C 15.25 24.714844 14.605469 24.066406 14.605469 23.265625 L 14.605469 23.1875 C 14.605469 22.382812 15.25 21.734375 16.046875 21.734375 Z M 16.046875 21.734375 "/>
<path style=" stroke:none;fill-rule:nonzero;fill:rgb(100%,100%,100%);fill-opacity:1;" d="M 13.199219 18.796875 L 13.277344 18.796875 C 14.078125 18.796875 14.71875 19.441406 14.71875 20.246094 L 14.71875 20.324219 C 14.71875 21.128906 14.078125 21.777344 13.277344 21.777344 L 13.199219 21.777344 C 12.398438 21.777344 11.757812 21.128906 11.757812 20.324219 L 11.757812 20.246094 C 11.757812 19.441406 12.398438 18.796875 13.199219 18.796875 Z M 13.199219 18.796875 "/>
<path style=" stroke:none;fill-rule:nonzero;fill:rgb(100%,100%,100%);fill-opacity:1;" d="M 15.976562 15.929688 L 16.054688 15.929688 C 16.855469 15.929688 17.496094 16.574219 17.496094 17.378906 L 17.496094 17.457031 C 17.496094 18.261719 16.855469 18.910156 16.054688 18.910156 L 15.976562 18.910156 C 15.179688 18.910156 14.535156 18.261719 14.535156 17.457031 L 14.535156 17.378906 C 14.535156 16.574219 15.179688 15.929688 15.976562 15.929688 Z M 15.976562 15.929688 "/>
<path style=" stroke:none;fill-rule:nonzero;fill:rgb(100%,100%,100%);fill-opacity:1;" d="M 19.003906 18.867188 L 19.082031 18.867188 C 19.882812 18.867188 20.523438 19.515625 20.523438 20.320312 L 20.523438 20.394531 C 20.523438 21.199219 19.882812 21.847656 19.082031 21.847656 L 19.003906 21.847656 C 18.203125 21.847656 17.5625 21.199219 17.5625 20.394531 L 17.5625 20.320312 C 17.5625 19.515625 18.203125 18.867188 19.003906 18.867188 Z M 19.003906 18.867188 "/>
<path style=" stroke:none;fill-rule:nonzero;fill:rgb(100%,100%,100%);fill-opacity:1;" d="M 7.5625 17.386719 L 7.640625 17.386719 C 8.4375 17.386719 9.082031 18.03125 9.082031 18.835938 L 9.082031 18.914062 C 9.082031 19.71875 8.4375 20.367188 7.640625 20.367188 L 7.5625 20.367188 C 6.761719 20.367188 6.121094 19.71875 6.121094 18.914062 L 6.121094 18.835938 C 6.121094 18.03125 6.761719 17.386719 7.5625 17.386719 Z M 7.5625 17.386719 "/>
<path style=" stroke:none;fill-rule:nonzero;fill:rgb(100%,100%,100%);fill-opacity:1;" d="M 1.449219 17.4375 L 1.523438 17.4375 C 2.324219 17.4375 2.96875 18.082031 2.96875 18.886719 L 2.96875 18.964844 C 2.96875 19.769531 2.324219 20.417969 1.523438 20.417969 L 1.449219 20.417969 C 0.648438 20.417969 0.00390625 19.769531 0.00390625 18.964844 L 0.00390625 18.886719 C 0.00390625 18.082031 0.648438 17.4375 1.449219 17.4375 Z M 1.449219 17.4375 "/>
<path style=" stroke:none;fill-rule:nonzero;fill:rgb(100%,100%,100%);fill-opacity:1;" d="M 16.117188 3.140625 L 17.347656 3.140625 C 18.140625 3.140625 18.785156 3.785156 18.785156 4.585938 L 18.785156 4.679688 C 18.785156 5.480469 18.144531 6.125 17.347656 6.125 L 16.117188 6.125 C 15.320312 6.125 14.679688 5.480469 14.679688 4.679688 L 14.679688 4.585938 C 14.679688 3.785156 15.320312 3.140625 16.117188 3.140625 Z M 16.117188 3.140625 "/>
<path style=" stroke:none;fill-rule:nonzero;fill:rgb(100%,100%,100%);fill-opacity:1;" d="M 13.152344 0 L 13.230469 0 C 14.027344 0 14.671875 0.648438 14.671875 1.453125 L 14.671875 1.527344 C 14.671875 2.332031 14.027344 2.980469 13.230469 2.980469 L 13.152344 2.980469 C 12.351562 2.980469 11.710938 2.332031 11.710938 1.527344 L 11.710938 1.453125 C 11.710938 0.648438 12.351562 0 13.152344 0 Z M 13.152344 0 "/>
<path style=" stroke:none;fill-rule:nonzero;fill:rgb(100%,100%,100%);fill-opacity:1;" d="M 24.53125 29.003906 C 23.710938 29.003906 23.050781 29.671875 23.050781 30.492188 C 23.046875 30.890625 23.199219 31.273438 23.476562 31.558594 C 23.753906 31.839844 24.132812 32 24.53125 32 L 30.503906 32 C 30.902344 32.003906 31.285156 31.847656 31.566406 31.5625 C 31.847656 31.28125 32.003906 30.894531 32 30.492188 C 32 30.09375 31.839844 29.714844 31.558594 29.433594 C 31.277344 29.152344 30.898438 29 30.503906 29.003906 Z M 24.53125 29.003906 "/>
</g>
</svg>
