<?xml version="1.0" encoding="UTF-8"?>
<svg xmlns="http://www.w3.org/2000/svg" xmlns:xlink="http://www.w3.org/1999/xlink" width="32" height="32" viewBox="0 0 32 32" version="1.1">
<g id="surface1">
<path style=" stroke:none;fill-rule:nonzero;fill:rgb(100%,100%,100%);fill-opacity:1;" d="M 21.332031 22.667969 L 21.332031 21.332031 L 17.332031 21.332031 L 17.332031 17.332031 L 21.332031 17.332031 L 21.332031 20 L 24 20 L 24 22.667969 L 22.667969 22.667969 L 22.667969 25.332031 L 20 25.332031 L 20 28 L 17.332031 28 L 17.332031 24 L 20 24 L 20 22.667969 Z M 28 28 L 22.667969 28 L 22.667969 25.332031 L 25.332031 25.332031 L 25.332031 22.667969 L 28 22.667969 Z M 4 4 L 14.667969 4 L 14.667969 14.667969 L 4 14.667969 Z M 6.667969 6.667969 L 6.667969 12 L 12 12 L 12 6.667969 Z M 17.332031 4 L 28 4 L 28 14.667969 L 17.332031 14.667969 Z M 20 6.667969 L 20 12 L 25.332031 12 L 25.332031 6.667969 Z M 4 17.332031 L 14.667969 17.332031 L 14.667969 28 L 4 28 Z M 6.667969 20 L 6.667969 25.332031 L 12 25.332031 L 12 20 Z M 24 17.332031 L 28 17.332031 L 28 20 L 24 20 Z M 8 8 L 10.667969 8 L 10.667969 10.667969 L 8 10.667969 Z M 8 21.332031 L 10.667969 21.332031 L 10.667969 24 L 8 24 Z M 21.332031 8 L 24 8 L 24 10.667969 L 21.332031 10.667969 Z M 21.332031 8 "/>
</g>
</svg>
