<?xml version="1.0" encoding="UTF-8"?>
<svg xmlns="http://www.w3.org/2000/svg" xmlns:xlink="http://www.w3.org/1999/xlink" width="32" height="32" viewBox="0 0 32 32" version="1.1">
<g id="surface1">
<path style=" stroke:none;fill-rule:nonzero;fill:rgb(100%,100%,100%);fill-opacity:1;" d="M 7.273438 20 L 1.332031 24.667969 L 1.332031 4 C 1.332031 3.261719 1.929688 2.667969 2.667969 2.667969 L 22.667969 2.667969 C 23.402344 2.667969 24 3.261719 24 4 L 24 20 Z M 6.351562 17.332031 L 21.332031 17.332031 L 21.332031 5.332031 L 4 5.332031 L 4 19.179688 Z M 10.667969 22.667969 L 24.316406 22.667969 L 26.667969 24.511719 L 26.667969 10.667969 L 28 10.667969 C 28.738281 10.667969 29.332031 11.261719 29.332031 12 L 29.332031 30 L 23.394531 25.332031 L 12 25.332031 C 11.261719 25.332031 10.667969 24.738281 10.667969 24 Z M 10.667969 22.667969 "/>
</g>
</svg>
