<?xml version="1.0" encoding="UTF-8"?>
<svg xmlns="http://www.w3.org/2000/svg" xmlns:xlink="http://www.w3.org/1999/xlink" width="32" height="32" viewBox="0 0 32 32" version="1.1">
<g id="surface1">
<path style=" stroke:none;fill-rule:nonzero;fill:rgb(100%,100%,100%);fill-opacity:1;" d="M 19.988281 1 C 19.835938 1 19.683594 1.035156 19.546875 1.105469 L 16.003906 2.878906 L 12.445312 1.105469 C 12.164062 0.96875 11.839844 0.96875 11.558594 1.105469 L 8 2.878906 L 4.441406 1.105469 C 4.304688 1.039062 4.152344 1.003906 4 1.003906 C 3.449219 1 3.003906 1.441406 2.996094 1.992188 L 2.996094 30 C 2.992188 30.347656 3.171875 30.671875 3.464844 30.855469 C 3.761719 31.039062 4.128906 31.058594 4.441406 30.902344 L 8 29.113281 L 11.558594 30.902344 C 11.839844 31.039062 12.164062 31.039062 12.445312 30.902344 L 16.003906 29.113281 L 19.546875 30.902344 C 19.828125 31.042969 20.164062 31.042969 20.445312 30.902344 L 24.003906 29.113281 L 27.546875 30.902344 C 27.859375 31.058594 28.230469 31.042969 28.523438 30.859375 C 28.820312 30.671875 29 30.347656 28.996094 30 L 28.996094 1.992188 C 28.992188 1.644531 28.8125 1.328125 28.519531 1.144531 C 28.222656 0.964844 27.855469 0.949219 27.546875 1.105469 L 24.003906 2.878906 L 20.445312 1.105469 C 20.304688 1.035156 20.148438 1 19.988281 1 Z M 12 3.113281 L 15.558594 4.902344 C 15.839844 5.039062 16.164062 5.039062 16.445312 4.902344 L 20.003906 3.113281 L 23.546875 4.902344 C 23.832031 5.046875 24.164062 5.046875 24.449219 4.902344 L 27 3.617188 L 27 28.375 L 24.449219 27.105469 C 24.164062 26.960938 23.832031 26.960938 23.546875 27.105469 L 20.003906 28.878906 L 16.445312 27.105469 C 16.164062 26.96875 15.839844 26.96875 15.558594 27.105469 L 12 28.878906 L 8.445312 27.105469 C 8.164062 26.96875 7.839844 26.96875 7.558594 27.105469 L 5.003906 28.375 L 5.003906 3.617188 L 7.558594 4.902344 C 7.839844 5.039062 8.164062 5.039062 8.445312 4.902344 Z M 16.035156 7 C 14.464844 7 12.921875 7.410156 11.558594 8.183594 L 16.59375 14.871094 L 24.996094 14.871094 C 24.425781 10.371094 20.585938 7 16.035156 7 Z M 9.753906 9.527344 C 7.992188 11.222656 7 13.558594 7 16 C 7 20.96875 11.046875 25 16.035156 25 C 20.589844 25 24.433594 21.621094 25 17.121094 L 15.46875 17.121094 Z M 9.753906 9.527344 "/>
</g>
</svg>
