<?xml version="1.0" encoding="UTF-8"?>
<svg xmlns="http://www.w3.org/2000/svg" xmlns:xlink="http://www.w3.org/1999/xlink" width="32" height="32" viewBox="0 0 32 32" version="1.1">
<g id="surface1">
<path style=" stroke:none;fill-rule:nonzero;fill:rgb(100%,100%,100%);fill-opacity:1;" d="M 16.675781 4.832031 L 15.3125 7.191406 C 11.429688 6.019531 7.957031 6.59375 6.761719 8.667969 C 5.191406 11.386719 7.816406 16.203125 13 19.195312 C 18.183594 22.1875 23.667969 22.050781 25.238281 19.332031 C 26.433594 17.261719 25.191406 13.96875 22.238281 11.191406 L 23.601562 8.832031 C 27.710938 12.441406 29.554688 17.191406 27.546875 20.667969 C 25.066406 24.960938 17.960938 25.140625 11.667969 21.507812 C 5.371094 17.871094 1.972656 11.628906 4.453125 7.332031 C 6.460938 3.855469 11.492188 3.078125 16.675781 4.832031 Z M 21.179688 2.363281 L 23.488281 3.699219 L 16.820312 15.242188 L 14.511719 13.910156 Z M 8.976562 26.667969 L 22.667969 26.667969 L 22.667969 29.332031 L 6.6875 29.332031 C 6.203125 29.34375 5.753906 29.085938 5.511719 28.667969 C 5.273438 28.253906 5.273438 27.746094 5.511719 27.332031 L 8.511719 22.136719 L 10.820312 23.46875 Z M 8.976562 26.667969 "/>
</g>
</svg>
