<?xml version="1.0" encoding="UTF-8"?>
<svg xmlns="http://www.w3.org/2000/svg" xmlns:xlink="http://www.w3.org/1999/xlink" width="32" height="32" viewBox="0 0 32 32" version="1.1">
<g id="surface1">
<path style=" stroke:none;fill-rule:nonzero;fill:rgb(100%,100%,100%);fill-opacity:1;" d="M 22.667969 13.332031 L 26.667969 13.332031 L 26.667969 8 L 5.332031 8 L 5.332031 13.332031 L 20 13.332031 L 20 10.667969 L 22.667969 10.667969 Z M 8 4 L 8 1.332031 L 10.667969 1.332031 L 10.667969 4 L 28.011719 4 C 28.742188 4 29.332031 4.59375 29.332031 5.324219 L 29.332031 26.675781 C 29.328125 27.40625 28.738281 27.996094 28.011719 28 L 3.988281 28 C 3.257812 28 2.667969 27.40625 2.667969 26.675781 L 2.667969 5.324219 C 2.671875 4.59375 3.261719 4.003906 3.988281 4 Z M 9.332031 25.332031 C 11.542969 25.332031 13.332031 23.542969 13.332031 21.332031 C 13.332031 19.125 11.542969 17.332031 9.332031 17.332031 C 7.125 17.332031 5.332031 19.125 5.332031 21.332031 C 5.332031 23.542969 7.125 25.332031 9.332031 25.332031 Z M 9.332031 25.332031 "/>
</g>
</svg>
