<?xml version="1.0" encoding="UTF-8"?>
<svg xmlns="http://www.w3.org/2000/svg" xmlns:xlink="http://www.w3.org/1999/xlink" width="32" height="32" viewBox="0 0 32 32" version="1.1">
<g id="surface1">
<path style=" stroke:none;fill-rule:nonzero;fill:rgb(100%,100%,100%);fill-opacity:1;" d="M 21.148438 24 L 16.941406 19.796875 C 16.421875 19.277344 15.578125 19.277344 15.058594 19.796875 L 10.90625 23.945312 C 5.878906 23.425781 1.902344 19.449219 1.390625 14.417969 C 0.875 9.390625 3.964844 4.691406 8.785156 3.164062 C 13.605469 1.640625 18.832031 3.707031 21.308594 8.117188 C 24.285156 7.601562 27.296875 8.8125 29.09375 11.238281 C 30.890625 13.667969 31.167969 16.902344 29.808594 19.597656 C 28.449219 22.296875 25.6875 24 22.667969 24 Z M 13.644531 24.976562 L 16 22.617188 L 18.355469 24.976562 C 19.660156 26.277344 19.660156 28.386719 18.355469 29.691406 C 17.054688 30.992188 14.945312 30.992188 13.644531 29.691406 C 12.339844 28.386719 12.339844 26.277344 13.644531 24.976562 Z M 13.644531 24.976562 "/>
</g>
</svg>
