<?xml version="1.0" encoding="UTF-8"?>
<svg xmlns="http://www.w3.org/2000/svg" xmlns:xlink="http://www.w3.org/1999/xlink" width="32" height="32" viewBox="0 0 32 32" version="1.1">
<g id="surface1">
<path style=" stroke:none;fill-rule:nonzero;fill:rgb(100%,100%,100%);fill-opacity:1;" d="M 10.089844 0 C 10.21875 0.195312 10.492188 0.382812 10.226562 0.640625 C 9.898438 0.382812 9.5625 0.191406 8.769531 0.0585938 C 8.96875 0.253906 9.285156 0.445312 9.089844 0.640625 C 8.691406 0.511719 8.238281 0.386719 7.710938 0.320312 C 7.972656 0.578125 8.167969 0.769531 7.96875 0.898438 C 7.574219 0.707031 6.925781 0.574219 6.332031 0.699219 L 6.710938 1.097656 C 6.773438 1.164062 5.785156 1.160156 5.191406 1.160156 C 5.386719 1.480469 5.660156 1.804688 5.789062 2.320312 C 5.726562 2.382812 5.394531 2.320312 5.132812 2.320312 C 5.394531 2.964844 5.925781 3.082031 6.191406 3.277344 C 5.992188 3.40625 5.738281 3.34375 5.472656 3.277344 C 5.667969 3.726562 6.117188 4.054688 6.449219 4.378906 C 6.382812 4.441406 6.246094 4.523438 5.851562 4.457031 C 6.179688 4.84375 6.585938 5.160156 7.050781 5.417969 C 6.917969 5.542969 6.65625 5.535156 6.390625 5.535156 C 6.785156 5.988281 7.320312 6.199219 7.847656 6.457031 C 7.585938 6.648438 7.371094 6.574219 7.167969 6.574219 C 7.503906 6.898438 8.113281 7.023438 8.710938 7.214844 C 8.578125 7.40625 8.496094 7.410156 8.230469 7.472656 C 8.824219 7.796875 9.75 7.675781 9.949219 7.933594 C 9.949219 8.125 9.765625 8.25 9.566406 8.3125 C 10.558594 8.3125 13.199219 8.257812 13.726562 6.253906 C 12.734375 5.160156 10.875 3.863281 7.769531 2.320312 C 10.214844 3.09375 12.394531 4.195312 14.246094 5.675781 C 16.425781 4.710938 14.902344 2.191406 13.84375 1.160156 C 13.78125 1.417969 13.734375 1.554688 13.664062 1.621094 C 13.335938 1.230469 13.066406 0.839844 12.605469 0.519531 C 12.605469 0.714844 12.730469 0.90625 12.464844 1.097656 C 12.203125 0.777344 11.863281 0.515625 11.46875 0.257812 C 11.664062 0.582031 11.539062 0.710938 11.40625 0.839844 C 11.078125 0.519531 10.75 0.257812 10.089844 0 Z M 21.820312 0 C 21.21875 0.195312 20.894531 0.519531 20.5625 0.78125 C 20.429688 0.648438 20.300781 0.523438 20.5 0.199219 C 20.113281 0.40625 19.773438 0.691406 19.5 1.039062 C 19.238281 0.910156 19.363281 0.652344 19.363281 0.460938 C 18.898438 0.851562 18.632812 1.167969 18.300781 1.558594 C 18.234375 1.558594 18.167969 1.359375 18.101562 1.097656 C 17.039062 2.074219 15.585938 4.597656 17.84375 5.636719 C 19.703125 4.144531 21.898438 3.121094 24.359375 2.277344 C 21.234375 3.835938 19.363281 5.132812 18.363281 6.234375 C 18.894531 8.246094 21.5625 8.359375 22.558594 8.292969 C 22.359375 8.164062 22.226562 8.109375 22.160156 7.914062 C 22.425781 7.785156 23.28125 7.917969 23.878906 7.59375 C 23.613281 7.53125 23.550781 7.53125 23.417969 7.335938 C 23.949219 7.140625 24.605469 7 24.9375 6.675781 C 24.742188 6.675781 24.542969 6.75 24.277344 6.554688 C 24.742188 6.296875 25.339844 6.027344 25.738281 5.636719 C 25.472656 5.570312 25.144531 5.582031 25.078125 5.515625 C 25.503906 5.222656 25.90625 4.894531 26.277344 4.535156 C 25.945312 4.601562 25.746094 4.542969 25.675781 4.476562 C 26.011719 4.085938 26.476562 3.832031 26.675781 3.378906 C 26.410156 3.507812 26.136719 3.507812 25.9375 3.378906 C 26.070312 3.117188 26.613281 2.988281 26.875 2.339844 C 26.613281 2.339844 26.285156 2.402344 26.21875 2.339844 C 26.351562 1.820312 26.617188 1.484375 26.816406 1.160156 C 26.21875 1.160156 25.285156 1.164062 25.21875 1.097656 L 25.617188 0.71875 C 25.019531 0.589844 24.425781 0.769531 23.957031 0.898438 C 23.757812 0.703125 23.953125 0.515625 24.21875 0.320312 C 23.742188 0.378906 23.273438 0.488281 22.820312 0.640625 C 22.621094 0.445312 22.960938 0.253906 23.160156 0.0585938 C 22.363281 0.253906 22.03125 0.445312 21.699219 0.640625 C 21.433594 0.378906 21.683594 0.195312 21.820312 0 Z M 16.183594 8.472656 C 14.40625 8.472656 12.625 9.839844 12.625 10.59375 C 12.625 11.550781 14.066406 12.589844 16.183594 12.589844 C 18.371094 12.589844 19.742188 11.839844 19.742188 10.8125 C 19.742188 9.652344 17.753906 8.472656 16.183594 8.472656 Z M 10.785156 9.195312 C 8.289062 9.210938 6.351562 10.941406 6.46875 13.8125 C 6.539062 15.109375 12.980469 9.5 11.886719 9.292969 C 11.523438 9.226562 11.15625 9.191406 10.785156 9.195312 Z M 21.261719 9.292969 C 20.890625 9.285156 20.523438 9.3125 20.160156 9.375 C 19.066406 9.511719 25.488281 15.101562 25.558594 13.871094 C 25.617188 11.058594 23.746094 9.359375 21.257812 9.292969 Z M 20 12.792969 C 19.402344 12.789062 18.8125 12.957031 18.300781 13.269531 C 16.730469 14.296875 16.453125 16.671875 17.683594 18.585938 C 18.980469 20.5 21.324219 21.199219 22.898438 20.105469 C 24.46875 19.078125 24.730469 16.683594 23.5 14.769531 C 22.652344 13.5 21.300781 12.785156 20 12.792969 Z M 12.027344 12.949219 C 10.835938 13.054688 9.636719 13.773438 8.867188 14.96875 C 7.570312 16.882812 7.847656 19.28125 9.488281 20.304688 C 11.0625 21.332031 13.386719 20.652344 14.683594 18.808594 C 15.984375 16.894531 15.707031 14.496094 14.066406 13.472656 C 13.464844 13.070312 12.746094 12.886719 12.027344 12.949219 Z M 25.9375 15.03125 C 24.390625 15.042969 25.523438 22.199219 26.917969 21.605469 C 28.421875 20.375 28.96875 16.757812 26.097656 15.050781 C 26.042969 15.035156 25.992188 15.027344 25.9375 15.03125 Z M 6.089844 15.148438 C 6.035156 15.148438 5.984375 15.15625 5.929688 15.167969 C 3.058594 16.8125 3.539062 20.515625 5.113281 21.746094 C 6.503906 22.34375 7.636719 15.160156 6.089844 15.148438 Z M 16.261719 20.027344 C 14.074219 20.027344 12.367188 21.679688 12.367188 23.664062 L 12.367188 23.722656 C 12.367188 25.707031 14.074219 27.28125 16.261719 27.28125 C 18.449219 27.28125 20.160156 25.648438 20.160156 23.664062 C 20.160156 21.683594 18.382812 20.097656 16.261719 20.027344 Z M 24.917969 21.445312 C 24 21.460938 22.886719 22.34375 21.859375 23.523438 C 20.628906 24.890625 19.953125 27.480469 20.839844 28.300781 C 21.730469 28.914062 23.980469 28.84375 25.617188 26.523438 C 26.777344 24.949219 26.371094 22.429688 25.757812 21.746094 C 25.5 21.539062 25.226562 21.441406 24.917969 21.445312 Z M 7.148438 21.984375 C 6.914062 22.011719 6.675781 22.097656 6.46875 22.226562 C 5.785156 22.773438 5.664062 24.617188 6.691406 26.460938 C 8.195312 28.648438 10.296875 28.847656 11.1875 28.300781 C 12.144531 27.617188 11.601562 25.222656 10.507812 23.921875 C 9.449219 22.703125 8.179688 21.882812 7.148438 21.984375 Z M 15.644531 28.378906 C 14.144531 28.476562 12.367188 29.082031 12.367188 29.800781 C 12.367188 30.414062 14.269531 32.066406 16.183594 31.996094 C 18.03125 32.066406 19.941406 30.417969 19.941406 29.597656 C 19.875 28.84375 17.835938 28.3125 16.261719 28.378906 C 16.058594 28.371094 15.851562 28.371094 15.644531 28.378906 Z M 15.644531 28.378906 "/>
</g>
</svg>
