<?xml version="1.0" encoding="UTF-8"?>
<svg xmlns="http://www.w3.org/2000/svg" xmlns:xlink="http://www.w3.org/1999/xlink" width="32" height="32" viewBox="0 0 32 32" version="1.1">
<g id="surface1">
<path style=" stroke:none;fill-rule:nonzero;fill:rgb(100%,100%,100%);fill-opacity:1;" d="M 16.664062 0.253906 C 16.363281 0.234375 16.066406 0.246094 15.765625 0.296875 C 13.378906 0.691406 11.84375 2.683594 10.46875 5.425781 L 7.980469 9.71875 C 7.621094 10.339844 7.625 11.105469 7.992188 11.722656 C 8.167969 12.015625 8.417969 12.261719 8.714844 12.429688 C 9.660156 12.972656 10.867188 12.648438 11.410156 11.703125 L 13.972656 7.265625 L 14 7.210938 C 15.136719 4.941406 16.222656 4.238281 16.402344 4.207031 C 16.492188 4.191406 16.523438 4.164062 16.820312 4.378906 C 17.117188 4.59375 17.585938 5.097656 18.074219 5.941406 L 19.234375 7.949219 L 16.9375 9.273438 L 24.410156 12.96875 L 24.949219 4.652344 L 22.652344 5.976562 L 21.492188 3.96875 C 20.824219 2.8125 20.097656 1.867188 19.152344 1.179688 C 18.445312 0.664062 17.5625 0.3125 16.664062 0.253906 Z M 7.605469 13.195312 L 0.132812 16.890625 L 2.433594 18.21875 L 1.273438 20.226562 C 0.605469 21.382812 0.152344 22.488281 0.0273438 23.648438 C -0.0976562 24.808594 0.1875 26.085938 0.957031 27.023438 C 2.492188 28.894531 4.984375 29.226562 8.046875 29.046875 L 13.007812 29.050781 C 13.722656 29.050781 14.382812 28.664062 14.734375 28.039062 C 14.902344 27.742188 14.988281 27.402344 14.984375 27.0625 C 14.980469 25.972656 14.097656 25.089844 13.007812 25.089844 L 7.886719 25.089844 L 7.824219 25.09375 C 5.289062 25.246094 4.136719 24.65625 4.019531 24.515625 C 3.960938 24.445312 3.921875 24.433594 3.960938 24.066406 C 4 23.699219 4.199219 23.042969 4.6875 22.199219 L 5.847656 20.1875 L 8.144531 21.515625 Z M 25.679688 13.527344 C 25.335938 13.53125 25.003906 13.625 24.707031 13.800781 C 23.765625 14.347656 23.445312 15.554688 23.988281 16.496094 L 26.550781 20.933594 L 26.582031 20.984375 C 27.980469 23.105469 28.046875 24.398438 27.984375 24.570312 C 27.953125 24.65625 27.960938 24.695312 27.625 24.84375 C 27.289062 24.992188 26.621094 25.148438 25.644531 25.148438 L 23.324219 25.148438 L 23.324219 22.496094 L 16.390625 27.121094 L 23.324219 31.746094 L 23.324219 29.09375 L 25.644531 29.09375 C 26.980469 29.09375 28.164062 28.933594 29.230469 28.460938 C 30.296875 27.988281 31.261719 27.101562 31.6875 25.96875 C 32.539062 23.703125 31.582031 21.378906 29.894531 18.816406 L 27.417969 14.515625 C 27.058594 13.894531 26.394531 13.519531 25.679688 13.527344 Z M 25.679688 13.527344 "/>
</g>
</svg>
