<?xml version="1.0" encoding="UTF-8"?>
<svg xmlns="http://www.w3.org/2000/svg" xmlns:xlink="http://www.w3.org/1999/xlink" width="32" height="32" viewBox="0 0 32 32" version="1.1">
<g id="surface1">
<path style=" stroke:none;fill-rule:nonzero;fill:rgb(100%,100%,100%);fill-opacity:1;" d="M 16 29.332031 C 8.636719 29.332031 2.667969 23.363281 2.667969 16 C 2.667969 8.636719 8.636719 2.667969 16 2.667969 C 23.363281 2.667969 29.332031 8.636719 29.332031 16 C 29.332031 23.363281 23.363281 29.332031 16 29.332031 Z M 24.894531 16 C 24.867188 15.234375 24.390625 14.554688 23.679688 14.265625 C 22.96875 13.980469 22.152344 14.136719 21.601562 14.667969 C 20.082031 13.636719 18.300781 13.066406 16.464844 13.027344 L 17.332031 8.867188 L 20.1875 9.464844 C 20.257812 10.117188 20.789062 10.621094 21.445312 10.65625 C 22.097656 10.6875 22.679688 10.242188 22.816406 9.601562 C 22.953125 8.960938 22.605469 8.316406 21.992188 8.082031 C 21.382812 7.84375 20.691406 8.085938 20.359375 8.652344 L 17.09375 8 C 16.984375 7.976562 16.871094 7.996094 16.78125 8.058594 C 16.6875 8.117188 16.621094 8.210938 16.601562 8.320312 L 15.613281 12.945312 C 13.757812 12.976562 11.949219 13.542969 10.414062 14.585938 C 9.851562 14.058594 9.03125 13.910156 8.320312 14.210938 C 7.609375 14.511719 7.144531 15.203125 7.132812 15.976562 C 7.121094 16.746094 7.566406 17.453125 8.265625 17.773438 C 8.25 17.96875 8.25 18.164062 8.265625 18.359375 C 8.265625 21.347656 11.746094 23.773438 16.039062 23.773438 C 20.332031 23.773438 23.8125 21.347656 23.8125 18.359375 C 23.828125 18.164062 23.828125 17.96875 23.8125 17.773438 C 24.484375 17.441406 24.90625 16.75 24.894531 16 Z M 11.558594 17.332031 C 11.558594 16.597656 12.15625 16 12.894531 16 C 13.628906 16 14.226562 16.597656 14.226562 17.332031 C 14.226562 18.070312 13.628906 18.667969 12.894531 18.667969 C 12.15625 18.667969 11.558594 18.070312 11.558594 17.332031 Z M 19.308594 21 C 18.359375 21.710938 17.195312 22.074219 16.011719 22.027344 C 14.828125 22.074219 13.664062 21.710938 12.71875 21 C 12.601562 20.855469 12.613281 20.648438 12.742188 20.515625 C 12.875 20.386719 13.082031 20.375 13.226562 20.492188 C 14.027344 21.082031 15.007812 21.378906 16 21.332031 C 16.996094 21.386719 17.976562 21.101562 18.785156 20.519531 C 18.878906 20.414062 19.023438 20.371094 19.15625 20.40625 C 19.292969 20.441406 19.398438 20.550781 19.429688 20.683594 C 19.460938 20.820312 19.414062 20.964844 19.308594 21.054688 Z M 19.066406 18.71875 C 18.332031 18.71875 17.734375 18.121094 17.734375 17.386719 C 17.734375 16.648438 18.332031 16.054688 19.066406 16.054688 C 19.804688 16.054688 20.398438 16.648438 20.398438 17.386719 C 20.414062 17.75 20.277344 18.105469 20.023438 18.367188 C 19.769531 18.632812 19.417969 18.777344 19.054688 18.773438 Z M 19.066406 18.71875 "/>
</g>
</svg>
