<?xml version="1.0" encoding="UTF-8"?>
<svg xmlns="http://www.w3.org/2000/svg" xmlns:xlink="http://www.w3.org/1999/xlink" width="32" height="32" viewBox="0 0 32 32" version="1.1">
<g id="surface1">
<path style=" stroke:none;fill-rule:nonzero;fill:rgb(100%,100%,100%);fill-opacity:1;" d="M 7.285156 5.910156 C 9.703125 3.8125 12.796875 2.664062 16 2.667969 C 23.363281 2.667969 29.332031 8.636719 29.332031 16 C 29.332031 18.847656 28.441406 21.488281 26.921875 23.652344 L 22.667969 16 L 26.667969 16 C 26.667969 11.726562 24.117188 7.863281 20.183594 6.1875 C 16.25 4.511719 11.695312 5.34375 8.613281 8.304688 Z M 24.714844 26.089844 C 22.296875 28.1875 19.203125 29.335938 16 29.332031 C 8.636719 29.332031 2.667969 23.363281 2.667969 16 C 2.667969 13.152344 3.558594 10.511719 5.078125 8.347656 L 9.332031 16 L 5.332031 16 C 5.332031 20.273438 7.882812 24.136719 11.816406 25.8125 C 15.75 27.488281 20.304688 26.65625 23.386719 23.695312 Z M 24.714844 26.089844 "/>
</g>
</svg>
