<?xml version="1.0" encoding="UTF-8"?>
<svg xmlns="http://www.w3.org/2000/svg" xmlns:xlink="http://www.w3.org/1999/xlink" width="32" height="32" viewBox="0 0 32 32" version="1.1">
<g id="surface1">
<path style=" stroke:none;fill-rule:nonzero;fill:rgb(100%,100%,100%);fill-opacity:1;" d="M 16 2.667969 C 23.363281 2.667969 29.332031 8.636719 29.332031 16 C 29.332031 23.363281 23.363281 29.332031 16 29.332031 C 12.890625 29.335938 9.878906 28.25 7.488281 26.265625 L 7.164062 25.984375 L 8.367188 23.449219 C 11.90625 27.078125 17.511719 27.714844 21.777344 24.96875 C 26.039062 22.226562 27.78125 16.859375 25.941406 12.132812 C 24.105469 7.410156 19.195312 4.628906 14.199219 5.488281 C 9.203125 6.34375 5.5 10.597656 5.339844 15.667969 L 5.332031 16 L 8.667969 16 L 5.058594 23.621094 C 3.496094 21.386719 2.664062 18.726562 2.667969 16 C 2.667969 8.636719 8.636719 2.667969 16 2.667969 Z M 17.332031 8 L 17.332031 10.667969 L 20.667969 10.667969 L 20.667969 13.332031 L 13.332031 13.332031 C 12.988281 13.332031 12.699219 13.597656 12.667969 13.941406 C 12.636719 14.285156 12.875 14.59375 13.214844 14.65625 L 13.332031 14.667969 L 18.667969 14.667969 C 20.507812 14.667969 22 16.160156 22 18 C 22 19.839844 20.507812 21.332031 18.667969 21.332031 L 17.332031 21.332031 L 17.332031 24 L 14.667969 24 L 14.667969 21.332031 L 11.332031 21.332031 L 11.332031 18.667969 L 18.667969 18.667969 C 19.011719 18.667969 19.300781 18.402344 19.332031 18.058594 C 19.363281 17.714844 19.125 17.40625 18.785156 17.34375 L 18.667969 17.332031 L 13.332031 17.332031 C 11.492188 17.332031 10 15.839844 10 14 C 10 12.160156 11.492188 10.667969 13.332031 10.667969 L 14.667969 10.667969 L 14.667969 8 Z M 17.332031 8 "/>
</g>
</svg>
