<?xml version="1.0" encoding="UTF-8"?>
<svg xmlns="http://www.w3.org/2000/svg" xmlns:xlink="http://www.w3.org/1999/xlink" width="32" height="32" viewBox="0 0 32 32" version="1.1">
<g id="surface1">
<path style=" stroke:none;fill-rule:nonzero;fill:rgb(100%,100%,100%);fill-opacity:1;" d="M 7.5625 5.675781 C 12.796875 1.382812 20.539062 1.683594 25.429688 6.570312 C 30.632812 11.777344 30.632812 20.222656 25.429688 25.429688 C 20.222656 30.632812 11.777344 30.632812 6.570312 25.429688 C 3.324219 22.183594 1.972656 17.496094 3 13.023438 L 3.101562 12.605469 L 5.679688 13.285156 C 4.363281 18.300781 6.839844 23.539062 11.558594 25.699219 C 16.273438 27.855469 21.859375 26.3125 24.792969 22.035156 C 27.726562 17.757812 27.160156 11.988281 23.449219 8.367188 C 19.738281 4.742188 13.957031 4.316406 9.753906 7.351562 L 9.457031 7.574219 L 10.8125 8.929688 L 4.683594 10.34375 L 6.097656 4.214844 L 7.558594 5.675781 Z M 17.332031 8 L 17.332031 10.667969 L 20.667969 10.667969 L 20.667969 13.332031 L 13.332031 13.332031 C 12.988281 13.332031 12.699219 13.597656 12.667969 13.941406 C 12.636719 14.285156 12.875 14.59375 13.214844 14.65625 L 13.332031 14.667969 L 18.667969 14.667969 C 20.507812 14.667969 22 16.160156 22 18 C 22 19.839844 20.507812 21.332031 18.667969 21.332031 L 17.332031 21.332031 L 17.332031 24 L 14.667969 24 L 14.667969 21.332031 L 11.332031 21.332031 L 11.332031 18.667969 L 18.667969 18.667969 C 19.011719 18.667969 19.300781 18.402344 19.332031 18.058594 C 19.363281 17.714844 19.125 17.40625 18.785156 17.34375 L 18.667969 17.332031 L 13.332031 17.332031 C 11.492188 17.332031 10 15.839844 10 14 C 10 12.160156 11.492188 10.667969 13.332031 10.667969 L 14.667969 10.667969 L 14.667969 8 Z M 17.332031 8 "/>
</g>
</svg>
