<?xml version="1.0" encoding="UTF-8"?>
<svg xmlns="http://www.w3.org/2000/svg" xmlns:xlink="http://www.w3.org/1999/xlink" width="32" height="32" viewBox="0 0 32 32" version="1.1">
<g id="surface1">
<path style=" stroke:none;fill-rule:nonzero;fill:rgb(100%,100%,100%);fill-opacity:1;" d="M 16 2.667969 C 23.363281 2.667969 29.332031 8.636719 29.332031 16 C 29.332031 23.363281 23.363281 29.332031 16 29.332031 C 8.636719 29.332031 2.667969 23.363281 2.667969 16 C 2.667969 8.636719 8.636719 2.667969 16 2.667969 Z M 16.667969 9.332031 L 10.667969 9.332031 L 10.667969 22.667969 L 13.332031 22.667969 L 13.332031 18.667969 L 16.289062 18.667969 L 19.195312 22.667969 L 22.492188 22.667969 L 19.09375 17.988281 C 20.839844 16.925781 21.691406 14.847656 21.195312 12.863281 C 20.699219 10.878906 18.964844 9.449219 16.921875 9.339844 Z M 16.667969 12 C 17.695312 12 18.558594 12.78125 18.65625 13.808594 L 18.667969 14 L 18.65625 14.191406 C 18.566406 15.144531 17.8125 15.898438 16.859375 15.992188 L 16.667969 16 L 13.332031 16 L 13.332031 12 Z M 16.667969 12 "/>
</g>
</svg>
