<?xml version="1.0" encoding="UTF-8"?>
<svg xmlns="http://www.w3.org/2000/svg" xmlns:xlink="http://www.w3.org/1999/xlink" width="32" height="32" viewBox="0 0 32 32" version="1.1">
<g id="surface1">
<path style=" stroke:none;fill-rule:evenodd;fill:rgb(100%,100%,100%);fill-opacity:1;" d="M 15.980469 0 C 15.4375 0.0117188 15.003906 0.457031 15.003906 1 C 15.003906 1.066406 15.011719 1.128906 15.027344 1.195312 C 15.117188 1.664062 15.53125 2 16.007812 2 C 19.71875 2 23.28125 3.480469 25.910156 6.105469 C 28.535156 8.730469 30.003906 12.296875 30.003906 16.011719 C 30.003906 16.5625 30.449219 17.011719 31.003906 17.011719 C 31.554688 17.011719 32.003906 16.5625 32.003906 16.011719 C 32.003906 11.769531 30.320312 7.6875 27.320312 4.6875 C 24.320312 1.6875 20.246094 0 16.003906 0 C 15.996094 0 15.988281 0 15.980469 0 Z M 15.980469 4.003906 C 15.4375 4.019531 15.007812 4.460938 15.007812 5.003906 C 15.007812 5.0625 15.015625 5.125 15.03125 5.183594 C 15.117188 5.65625 15.53125 6.003906 16.015625 6.003906 C 18.667969 6.003906 21.203125 7.066406 23.082031 8.941406 C 24.957031 10.816406 26.015625 13.359375 26.015625 16.011719 C 26.019531 16.550781 26.457031 16.992188 27 17 C 27.546875 17 27.992188 16.5625 28.003906 16.015625 C 28.003906 12.832031 26.742188 9.773438 24.492188 7.523438 C 22.242188 5.273438 19.191406 4.003906 16.011719 4.003906 C 16 4.003906 15.988281 4.003906 15.980469 4.003906 Z M 15.964844 8.011719 C 15.421875 8.027344 14.992188 8.46875 14.992188 9.011719 C 14.992188 9.070312 15 9.132812 15.015625 9.191406 C 15.101562 9.664062 15.515625 10.011719 16 10.011719 C 17.589844 10.011719 19.117188 10.640625 20.242188 11.765625 C 21.367188 12.890625 22.003906 14.40625 22.003906 16 C 22.003906 16.265625 22.109375 16.519531 22.296875 16.707031 C 22.484375 16.894531 22.742188 17 23.007812 17 C 23.550781 16.992188 23.988281 16.546875 23.992188 16.003906 C 23.992188 13.882812 23.152344 11.847656 21.652344 10.347656 C 20.152344 8.847656 18.117188 8.011719 15.996094 8.011719 C 15.984375 8.011719 15.972656 8.011719 15.964844 8.011719 Z M 11.566406 12.828125 C 11.054688 12.828125 10.542969 13.023438 10.152344 13.414062 L 0.585938 22.980469 C -0.199219 23.761719 -0.199219 25.023438 0.585938 25.808594 L 6.191406 31.414062 C 6.972656 32.195312 8.234375 32.195312 9.019531 31.414062 L 18.585938 21.847656 C 19.367188 21.0625 19.367188 19.800781 18.585938 19.019531 L 12.980469 13.414062 C 12.589844 13.023438 12.078125 12.828125 11.566406 12.828125 Z M 12 17 C 13.65625 17 15 18.34375 15 20 C 15 21.65625 13.65625 23 12 23 C 10.34375 23 9 21.65625 9 20 C 9 18.34375 10.34375 17 12 17 Z M 12 17 "/>
</g>
</svg>
