<?xml version="1.0" encoding="UTF-8"?>
<svg xmlns="http://www.w3.org/2000/svg" xmlns:xlink="http://www.w3.org/1999/xlink" width="32" height="32" viewBox="0 0 32 32" version="1.1">
<g id="surface1">
<path style=" stroke:none;fill-rule:nonzero;fill:rgb(100%,100%,100%);fill-opacity:1;" d="M 16 14.222656 L 28.296875 6.023438 C 28.5 5.886719 28.765625 5.875 28.980469 5.992188 C 29.199219 6.105469 29.332031 6.332031 29.332031 6.578125 L 29.332031 25.421875 C 29.332031 25.667969 29.199219 25.894531 28.980469 26.007812 C 28.765625 26.125 28.5 26.113281 28.296875 25.976562 L 16 17.777344 L 16 25.421875 C 16 25.667969 15.863281 25.894531 15.648438 26.007812 C 15.429688 26.125 15.167969 26.113281 14.964844 25.976562 L 0.832031 16.554688 C 0.648438 16.429688 0.535156 16.222656 0.535156 16 C 0.535156 15.777344 0.648438 15.570312 0.832031 15.445312 L 14.964844 6.023438 C 15.167969 5.886719 15.429688 5.875 15.648438 5.992188 C 15.863281 6.105469 16 6.332031 16 6.578125 Z M 16 14.222656 "/>
</g>
</svg>
