<?xml version="1.0" encoding="UTF-8"?>
<svg xmlns="http://www.w3.org/2000/svg" xmlns:xlink="http://www.w3.org/1999/xlink" width="32" height="32" viewBox="0 0 32 32" version="1.1">
<g id="surface1">
<path style=" stroke:none;fill-rule:nonzero;fill:rgb(100%,100%,100%);fill-opacity:1;" d="M 25.332031 26.667969 L 6.667969 26.667969 L 6.667969 28 C 6.667969 28.738281 6.070312 29.332031 5.332031 29.332031 L 4 29.332031 C 3.261719 29.332031 2.667969 28.738281 2.667969 28 L 2.667969 18 L 1.007812 17.585938 C 0.417969 17.4375 0 16.90625 0 16.292969 L 0 15.332031 C 0 14.964844 0.296875 14.667969 0.667969 14.667969 L 2.667969 14.667969 L 5.972656 6.949219 C 6.394531 5.96875 7.359375 5.332031 8.425781 5.332031 L 23.574219 5.332031 C 24.640625 5.332031 25.605469 5.96875 26.023438 6.949219 L 29.332031 14.667969 L 31.332031 14.667969 C 31.703125 14.667969 32 14.964844 32 15.332031 L 32 16.292969 C 32 16.90625 31.582031 17.4375 30.992188 17.585938 L 29.332031 18 L 29.332031 28 C 29.332031 28.738281 28.738281 29.332031 28 29.332031 L 26.667969 29.332031 C 25.929688 29.332031 25.332031 28.738281 25.332031 28 Z M 26.667969 24 L 26.667969 17.332031 L 5.332031 17.332031 L 5.332031 24 Z M 7.300781 14.667969 L 24.699219 14.667969 C 25.140625 14.667969 25.554688 14.445312 25.800781 14.082031 C 26.046875 13.714844 26.097656 13.25 25.933594 12.839844 L 24 8 L 8 8 L 6.066406 12.839844 C 5.902344 13.25 5.953125 13.714844 6.199219 14.082031 C 6.445312 14.445312 6.859375 14.667969 7.300781 14.667969 Z M 6.667969 18.667969 C 9.757812 18.667969 11.839844 19.671875 12.914062 21.683594 C 13.023438 21.890625 13.019531 22.140625 12.898438 22.34375 C 12.777344 22.542969 12.5625 22.667969 12.328125 22.667969 L 8 22.667969 C 7.261719 22.667969 6.667969 22.070312 6.667969 21.332031 Z M 25.332031 18.667969 L 25.332031 21.332031 C 25.332031 22.070312 24.738281 22.667969 24 22.667969 L 19.671875 22.667969 C 19.4375 22.667969 19.222656 22.542969 19.101562 22.34375 C 18.980469 22.140625 18.976562 21.890625 19.085938 21.683594 C 20.160156 19.671875 22.242188 18.667969 25.332031 18.667969 Z M 25.332031 18.667969 "/>
</g>
</svg>
