<?xml version="1.0" encoding="UTF-8"?>
<svg xmlns="http://www.w3.org/2000/svg" xmlns:xlink="http://www.w3.org/1999/xlink" width="32" height="32" viewBox="0 0 32 32" version="1.1">
<g id="surface1">
<path style=" stroke:none;fill-rule:nonzero;fill:rgb(100%,100%,100%);fill-opacity:1;" d="M 17.332031 5.40625 C 23.332031 6.070312 28 11.15625 28 17.332031 L 28 29.332031 L 4 29.332031 L 4 17.332031 C 4 11.15625 8.667969 6.070312 14.667969 5.40625 L 14.667969 1.332031 L 17.332031 1.332031 Z M 16 24 C 19.683594 24 22.667969 21.015625 22.667969 17.332031 C 22.667969 13.652344 19.683594 10.667969 16 10.667969 C 12.316406 10.667969 9.332031 13.652344 9.332031 17.332031 C 9.332031 21.015625 12.316406 24 16 24 Z M 16 21.332031 C 13.789062 21.332031 12 19.542969 12 17.332031 C 12 15.125 13.789062 13.332031 16 13.332031 C 18.210938 13.332031 20 15.125 20 17.332031 C 20 19.542969 18.210938 21.332031 16 21.332031 Z M 16 18.667969 C 16.738281 18.667969 17.332031 18.070312 17.332031 17.332031 C 17.332031 16.597656 16.738281 16 16 16 C 15.261719 16 14.667969 16.597656 14.667969 17.332031 C 14.667969 18.070312 15.261719 18.667969 16 18.667969 Z M 16 18.667969 "/>
</g>
</svg>
