<?xml version="1.0" encoding="UTF-8"?>
<svg xmlns="http://www.w3.org/2000/svg" xmlns:xlink="http://www.w3.org/1999/xlink" width="32" height="32" viewBox="0 0 32 32" version="1.1">
<defs>
<filter id="alpha" filterUnits="objectBoundingBox" x="0%" y="0%" width="100%" height="100%">
  <feColorMatrix type="matrix" in="SourceGraphic" values="0 0 0 0 1 0 0 0 0 1 0 0 0 0 1 0 0 0 1 0"/>
</filter>
<mask id="mask0">
  <g filter="url(#alpha)">
<rect x="0" y="0" width="32" height="32" style="fill:rgb(100%,100%,100%);fill-opacity:0.992157;stroke:none;"/>
  </g>
</mask>
<clipPath id="clip1">
  <rect x="0" y="0" width="32" height="32"/>
</clipPath>
<g id="surface5" clip-path="url(#clip1)">
<path style=" stroke:none;fill-rule:evenodd;fill:rgb(100%,100%,100%);fill-opacity:1;" d="M 24.699219 -0.015625 L 22.5 0.960938 L 21.183594 4.28125 L 10.277344 8.070312 C 9.53125 7.621094 8.675781 7.382812 7.804688 7.382812 C 5.171875 7.382812 3.035156 9.519531 3.035156 12.152344 C 3.035156 14.128906 4.253906 15.898438 6.101562 16.605469 L 7.484375 24.90625 C 6.585938 25.636719 6 26.742188 6 28 L 0 28 L 0 32 L 32 32 L 32 28 L 18 28 C 18 25.980469 16.515625 24.339844 14.578125 24.058594 L 11.40625 15.277344 C 12.160156 14.410156 12.574219 13.300781 12.574219 12.152344 C 12.574219 12.148438 12.574219 12.140625 12.574219 12.136719 L 22.28125 6.921875 L 22.292969 6.953125 L 25.703125 8.28125 L 27.902344 7.324219 L 27.105469 5.492188 L 25.660156 6.128906 L 23.800781 5.390625 L 23.328125 4.324219 L 24.050781 2.464844 L 25.511719 1.832031 Z M 24.699219 -0.015625 "/>
</g>
</defs>
<g id="surface1">
<use xlink:href="#surface5" mask="url(#mask0)"/>
</g>
</svg>
