<?xml version="1.0" encoding="UTF-8"?>
<svg xmlns="http://www.w3.org/2000/svg" xmlns:xlink="http://www.w3.org/1999/xlink" width="32" height="32" viewBox="0 0 32 32" version="1.1">
<g id="surface1">
<path style=" stroke:none;fill-rule:nonzero;fill:rgb(100%,100%,100%);fill-opacity:1;" d="M 4.007812 2.007812 L 4.007812 15.992188 L 2.019531 15.992188 C 0.910156 15.992188 0.0117188 16.890625 0.0117188 18 L 0.0117188 26.003906 L 2.003906 26.003906 L 2.003906 26.992188 C 2.003906 27.546875 2.453125 27.996094 3.007812 27.996094 L 9.039062 27.996094 C 9.574219 27.996094 10.007812 27.5625 10.007812 27.027344 L 10.007812 26.003906 L 22.003906 26.011719 L 22.003906 27.019531 C 22.007812 27.5625 22.445312 28 22.988281 28 L 29.011719 28 C 29.277344 28 29.53125 27.894531 29.714844 27.707031 C 29.902344 27.523438 30.007812 27.269531 30.007812 27.003906 L 30.007812 26.007812 L 32.003906 26.003906 L 32.003906 18 C 32.003906 16.890625 31.105469 15.992188 29.996094 15.992188 L 8.007812 15.992188 L 8.007812 4.007812 Z M 16.007812 18 C 17.113281 18 18.007812 18.894531 18.007812 20 C 18.007812 21.105469 17.113281 22 16.007812 22 C 14.902344 22 14.007812 21.105469 14.007812 20 C 14.007812 18.894531 14.902344 18 16.007812 18 Z M 22.007812 18 C 23.113281 18 24.007812 18.894531 24.007812 20 C 24.007812 21.105469 23.113281 22 22.007812 22 C 20.902344 22 20.007812 21.105469 20.007812 20 C 20.007812 18.894531 20.902344 18 22.007812 18 Z M 28.007812 18 C 29.113281 18 30.007812 18.894531 30.007812 20 C 30.007812 21.105469 29.113281 22 28.007812 22 C 26.902344 22 26.007812 21.105469 26.007812 20 C 26.007812 18.894531 26.902344 18 28.007812 18 Z M 28.007812 18 "/>
</g>
</svg>
