<?xml version="1.0" encoding="UTF-8"?>
<svg xmlns="http://www.w3.org/2000/svg" xmlns:xlink="http://www.w3.org/1999/xlink" width="32" height="32" viewBox="0 0 32 32" version="1.1">
<g id="surface1">
<path style=" stroke:none;fill-rule:nonzero;fill:rgb(100%,100%,100%);fill-opacity:1;" d="M 8.457031 19.496094 L 4.6875 23.265625 L 9.398438 27.980469 L 27.3125 10.066406 L 22.601562 5.351562 L 19.769531 8.179688 L 21.65625 10.066406 L 19.769531 11.953125 L 17.886719 10.066406 L 15.058594 12.894531 L 17.886719 15.722656 L 16 17.609375 L 13.171875 14.78125 L 10.34375 17.609375 L 12.230469 19.496094 L 10.34375 21.382812 Z M 23.542969 2.523438 L 30.144531 9.125 C 30.664062 9.644531 30.664062 10.488281 30.144531 11.007812 L 10.34375 30.808594 C 9.820312 31.328125 8.976562 31.328125 8.457031 30.808594 L 1.855469 24.210938 C 1.335938 23.6875 1.335938 22.84375 1.855469 22.324219 L 21.65625 2.523438 C 22.179688 2.003906 23.023438 2.003906 23.542969 2.523438 Z M 23.542969 2.523438 "/>
</g>
</svg>
