<?xml version="1.0" encoding="UTF-8"?>
<svg xmlns="http://www.w3.org/2000/svg" xmlns:xlink="http://www.w3.org/1999/xlink" width="32" height="32" viewBox="0 0 32 32" version="1.1">
<g id="surface1">
<path style=" stroke:none;fill-rule:nonzero;fill:rgb(100%,100%,100%);fill-opacity:1;" d="M 20 28 L 17.332031 28 L 17.332031 24 L 14.667969 24 L 14.667969 28 L 12 28 L 12 25.332031 L 9.332031 25.332031 L 9.332031 28 L 5.332031 28 C 4.597656 28 4 27.402344 4 26.667969 L 4 22.667969 L 6.667969 22.667969 L 6.667969 20 L 4 20 L 4 17.332031 L 8 17.332031 L 8 14.667969 L 4 14.667969 L 4 12 L 6.667969 12 L 6.667969 9.332031 L 4 9.332031 L 4 5.332031 C 4 4.597656 4.597656 4 5.332031 4 L 13.332031 4 C 14.070312 4 14.667969 4.597656 14.667969 5.332031 L 14.667969 17.332031 L 26.667969 17.332031 C 27.402344 17.332031 28 17.929688 28 18.667969 L 28 26.667969 C 28 27.402344 27.402344 28 26.667969 28 L 22.667969 28 L 22.667969 25.332031 L 20 25.332031 Z M 20 28 "/>
</g>
</svg>
