<?xml version="1.0" encoding="UTF-8"?>
<svg xmlns="http://www.w3.org/2000/svg" xmlns:xlink="http://www.w3.org/1999/xlink" width="32" height="32" viewBox="0 0 32 32" version="1.1">
<g id="surface1">
<path style=" stroke:none;fill-rule:nonzero;fill:rgb(100%,100%,100%);fill-opacity:1;" d="M 1 2.003906 C 0.445312 2 -0.0078125 2.453125 -0.00390625 3.007812 L -0.00390625 28.992188 C -0.0078125 29.546875 0.445312 30 1 29.996094 L 31 29.996094 C 31.554688 30 32.007812 29.546875 32.003906 28.992188 L 32.003906 3.007812 C 32.007812 2.453125 31.554688 2 31 2.003906 Z M 1.988281 4.011719 L 29.996094 4.011719 L 29.996094 28.003906 L 1.988281 28.003906 Z M 1.988281 4.011719 "/>
<path style=" stroke:none;fill-rule:nonzero;fill:rgb(100%,100%,100%);fill-opacity:1;" d="M 16.34375 24.714844 L 13.734375 24.714844 L 12.695312 20.773438 L 7.945312 20.773438 L 6.964844 24.714844 L 4.417969 24.714844 L 9.046875 7.355469 L 11.585938 7.355469 Z M 11.925781 17.847656 L 10.289062 11.40625 L 8.683594 17.847656 Z M 11.925781 17.847656 "/>
<path style=" stroke:none;fill-rule:nonzero;fill:rgb(100%,100%,100%);fill-opacity:1;" d="M 17.617188 7.355469 L 22.003906 7.355469 C 22.992188 7.355469 23.746094 7.464844 24.265625 7.6875 C 24.964844 7.984375 25.5625 8.519531 26.058594 9.285156 C 26.554688 10.050781 26.933594 10.992188 27.191406 12.105469 C 27.453125 13.210938 27.582031 14.574219 27.582031 16.203125 C 27.582031 17.628906 27.460938 18.863281 27.21875 19.894531 C 26.921875 21.160156 26.496094 22.183594 25.945312 22.964844 C 25.527344 23.554688 24.964844 24.019531 24.257812 24.347656 C 23.726562 24.59375 23.019531 24.714844 22.132812 24.714844 L 17.617188 24.714844 Z M 20.015625 10.292969 L 20.015625 21.792969 L 21.808594 21.792969 C 22.480469 21.792969 22.964844 21.734375 23.261719 21.625 C 23.648438 21.484375 23.972656 21.242188 24.226562 20.902344 C 24.484375 20.5625 24.695312 20.007812 24.859375 19.234375 C 25.019531 18.453125 25.101562 17.390625 25.101562 16.046875 C 25.101562 14.707031 25.019531 13.675781 24.859375 12.957031 C 24.695312 12.238281 24.46875 11.675781 24.175781 11.273438 C 23.886719 10.871094 23.515625 10.597656 23.066406 10.457031 C 22.730469 10.347656 22.074219 10.292969 21.097656 10.292969 Z M 20.015625 10.292969 "/>
</g>
</svg>
