<?xml version="1.0" encoding="UTF-8"?>
<svg xmlns="http://www.w3.org/2000/svg" xmlns:xlink="http://www.w3.org/1999/xlink" width="32" height="32" viewBox="0 0 32 32" version="1.1">
<g id="surface1">
<path style=" stroke:none;fill-rule:nonzero;fill:rgb(100%,100%,100%);fill-opacity:1;" d="M 22.265625 9.066406 L 14.113281 14.113281 L 9.066406 22.265625 L 8.929688 22.128906 L 7.042969 24.011719 L 7.984375 24.957031 L 9.871094 23.070312 L 9.734375 22.933594 L 17.886719 17.886719 L 22.933594 9.734375 L 23.070312 9.871094 L 24.957031 7.988281 L 24.015625 7.042969 L 22.128906 8.929688 L 22.269531 9.066406 Z M 16 29.332031 C 8.636719 29.332031 2.667969 23.363281 2.667969 16 C 2.667969 8.636719 8.636719 2.667969 16 2.667969 C 23.363281 2.667969 29.332031 8.636719 29.332031 16 C 29.332031 23.363281 23.363281 29.332031 16 29.332031 Z M 15.332031 4 L 15.332031 6.667969 L 16.667969 6.667969 L 16.667969 4 Z M 15.332031 25.332031 L 15.332031 28 L 16.667969 28 L 16.667969 25.332031 Z M 10.792969 5.167969 L 11.8125 7.632812 L 13.042969 7.121094 L 12.023438 4.660156 Z M 18.957031 24.878906 L 19.976562 27.339844 L 21.207031 26.832031 L 20.1875 24.367188 Z M 19.976562 4.660156 L 18.957031 7.121094 L 20.1875 7.632812 L 21.207031 5.167969 Z M 11.8125 24.367188 L 10.792969 26.832031 L 12.023438 27.339844 L 13.046875 24.878906 Z M 28 15.332031 L 25.332031 15.332031 L 25.332031 16.667969 L 28 16.667969 Z M 6.667969 15.332031 L 4 15.332031 L 4 16.667969 L 6.667969 16.667969 Z M 27.277344 20.152344 L 24.832031 19.09375 L 24.300781 20.320312 L 26.746094 21.378906 Z M 7.699219 11.679688 L 5.253906 10.621094 L 4.722656 11.847656 L 7.171875 12.90625 Z M 26.832031 10.792969 L 24.367188 11.8125 L 24.878906 13.042969 L 27.339844 12.023438 Z M 7.121094 18.957031 L 4.660156 19.976562 L 5.167969 21.207031 L 7.632812 20.1875 Z M 24.957031 24.011719 L 23.070312 22.128906 L 22.128906 23.070312 L 24.011719 24.957031 Z M 9.871094 8.929688 L 7.988281 7.042969 L 7.042969 7.988281 L 8.929688 9.871094 Z M 15.082031 15.082031 L 19.898438 12.101562 L 16.917969 16.914062 Z M 15.082031 15.082031 "/>
</g>
</svg>
