<?xml version="1.0" encoding="UTF-8"?>
<svg xmlns="http://www.w3.org/2000/svg" xmlns:xlink="http://www.w3.org/1999/xlink" width="32" height="32" viewBox="0 0 32 32" version="1.1">
<g id="surface1">
<path style=" stroke:none;fill-rule:nonzero;fill:rgb(100%,100%,100%);fill-opacity:1;" d="M 4 24 L 28 24 C 28.253906 24 28.484375 24.144531 28.597656 24.367188 C 28.710938 24.59375 28.683594 24.863281 28.535156 25.066406 L 25.734375 28.800781 C 25.480469 29.136719 25.085938 29.332031 24.667969 29.332031 L 7.332031 29.332031 C 6.914062 29.332031 6.519531 29.136719 6.265625 28.800781 L 3.464844 25.066406 C 3.316406 24.863281 3.289062 24.59375 3.402344 24.367188 C 3.515625 24.144531 3.746094 24 4 24 Z M 9.546875 18.667969 L 17.332031 18.667969 L 17.332031 8.9375 Z M 20 3.234375 L 20 20 C 20 20.738281 19.402344 21.332031 18.667969 21.332031 L 5.386719 21.332031 C 5.128906 21.332031 4.898438 21.1875 4.785156 20.957031 C 4.675781 20.722656 4.707031 20.449219 4.867188 20.25 L 18.8125 2.816406 C 18.992188 2.597656 19.285156 2.511719 19.554688 2.605469 C 19.820312 2.699219 20 2.949219 20 3.234375 Z M 20 3.234375 "/>
</g>
</svg>
