<?xml version="1.0" encoding="UTF-8"?>
<svg xmlns="http://www.w3.org/2000/svg" xmlns:xlink="http://www.w3.org/1999/xlink" width="32" height="32" viewBox="0 0 32 32" version="1.1">
<g id="surface1">
<path style=" stroke:none;fill-rule:nonzero;fill:rgb(100%,100%,100%);fill-opacity:1;" d="M 8 2.667969 C 8 3.351562 8.652344 4 9.332031 4 L 22.667969 4 C 23.351562 4 24 3.347656 24 2.667969 L 26.667969 2.667969 C 26.667969 4.875 24.875 6.667969 22.667969 6.667969 L 17.332031 6.667969 L 17.335938 9.414062 C 22.597656 10.074219 26.667969 14.5625 26.667969 20 L 26.667969 28 C 26.667969 28.734375 26.070312 29.332031 25.332031 29.332031 L 6.667969 29.332031 C 5.929688 29.332031 5.332031 28.734375 5.332031 28 L 5.332031 20 C 5.332031 14.558594 9.40625 10.070312 14.667969 9.414062 L 14.667969 6.667969 L 9.332031 6.667969 C 7.121094 6.667969 5.332031 4.878906 5.332031 2.667969 Z M 16 14.667969 C 13.054688 14.667969 10.667969 17.054688 10.667969 20 C 10.667969 22.945312 13.054688 25.332031 16 25.332031 C 18.945312 25.332031 21.332031 22.945312 21.332031 20 C 21.332031 19.011719 21.0625 18.085938 20.59375 17.289062 L 16.941406 20.945312 L 16.816406 21.054688 C 16.292969 21.460938 15.539062 21.425781 15.058594 20.941406 C 14.539062 20.421875 14.539062 19.578125 15.058594 19.058594 L 18.710938 15.402344 C 17.914062 14.9375 16.988281 14.667969 16 14.667969 Z M 16 14.667969 "/>
</g>
</svg>
