<?xml version="1.0" encoding="UTF-8"?>
<svg xmlns="http://www.w3.org/2000/svg" xmlns:xlink="http://www.w3.org/1999/xlink" width="32" height="32" viewBox="0 0 32 32" version="1.1">
<g id="surface1">
<path style=" stroke:none;fill-rule:nonzero;fill:rgb(100%,100%,100%);fill-opacity:1;" d="M 5.675781 7.5625 L 8.523438 10.410156 C 5.59375 14.332031 6.1875 19.851562 9.890625 23.054688 C 13.589844 26.261719 19.136719 26.0625 22.601562 22.601562 C 26.0625 19.136719 26.261719 13.589844 23.054688 9.890625 C 19.851562 6.1875 14.332031 5.59375 10.410156 8.523438 L 7.558594 5.675781 C 9.941406 3.726562 12.921875 2.660156 16 2.667969 C 23.363281 2.667969 29.332031 8.636719 29.332031 16 C 29.332031 23.363281 23.363281 29.332031 16 29.332031 C 8.636719 29.332031 2.667969 23.363281 2.667969 16 C 2.667969 12.796875 3.792969 9.859375 5.675781 7.5625 Z M 10.4375 12.324219 L 16 17.886719 L 17.886719 16 L 12.324219 10.4375 C 15.179688 8.550781 19 9.132812 21.164062 11.78125 C 23.328125 14.433594 23.132812 18.292969 20.714844 20.710938 C 18.292969 23.132812 14.433594 23.328125 11.785156 21.164062 C 9.132812 19 8.550781 15.179688 10.4375 12.324219 Z M 10.4375 12.324219 "/>
</g>
</svg>
