<?xml version="1.0" encoding="UTF-8"?>
<svg xmlns="http://www.w3.org/2000/svg" xmlns:xlink="http://www.w3.org/1999/xlink" width="32" height="32" viewBox="0 0 32 32" version="1.1">
<g id="surface1">
<path style=" stroke:none;fill-rule:nonzero;fill:rgb(100%,100%,100%);fill-opacity:1;" d="M 16 17.886719 L 12.59375 21.289062 C 13.957031 23.605469 13.390625 26.570312 11.265625 28.214844 C 9.144531 29.859375 6.128906 29.667969 4.230469 27.769531 C 2.332031 25.871094 2.140625 22.855469 3.785156 20.734375 C 5.429688 18.609375 8.394531 18.042969 10.710938 19.40625 L 14.113281 16 L 6.085938 7.972656 C 5.585938 7.472656 5.304688 6.792969 5.304688 6.085938 C 5.304688 5.378906 5.585938 4.699219 6.085938 4.199219 L 16 14.117188 L 25.914062 4.203125 C 26.953125 5.242188 26.953125 6.933594 25.914062 7.972656 L 17.886719 16 L 21.289062 19.40625 C 23.605469 18.042969 26.570312 18.609375 28.214844 20.734375 C 29.859375 22.855469 29.667969 25.871094 27.769531 27.769531 C 25.871094 29.667969 22.855469 29.859375 20.734375 28.214844 C 18.609375 26.570312 18.042969 23.605469 19.40625 21.289062 Z M 8 26.667969 C 9.472656 26.667969 10.667969 25.472656 10.667969 24 C 10.667969 22.527344 9.472656 21.332031 8 21.332031 C 6.527344 21.332031 5.332031 22.527344 5.332031 24 C 5.332031 25.472656 6.527344 26.667969 8 26.667969 Z M 24 26.667969 C 25.472656 26.667969 26.667969 25.472656 26.667969 24 C 26.667969 22.527344 25.472656 21.332031 24 21.332031 C 22.527344 21.332031 21.332031 22.527344 21.332031 24 C 21.332031 25.472656 22.527344 26.667969 24 26.667969 Z M 24 26.667969 "/>
</g>
</svg>
