<?xml version="1.0" encoding="UTF-8"?>
<svg xmlns="http://www.w3.org/2000/svg" xmlns:xlink="http://www.w3.org/1999/xlink" width="32" height="32" viewBox="0 0 32 32" version="1.1">
<g id="surface1">
<path style=" stroke:none;fill-rule:nonzero;fill:rgb(100%,100%,100%);fill-opacity:1;" d="M 13.171875 16 L 10.082031 12.910156 C 7.734375 13.90625 5.003906 13.097656 3.578125 10.980469 C 2.152344 8.867188 2.425781 6.035156 4.230469 4.230469 C 6.035156 2.425781 8.867188 2.152344 10.980469 3.578125 C 13.097656 5.003906 13.90625 7.734375 12.910156 10.082031 L 16 13.171875 L 24.5 4.671875 C 25.539062 3.632812 27.230469 3.632812 28.269531 4.671875 L 29.214844 5.617188 L 12.910156 21.917969 C 13.90625 24.265625 13.097656 26.996094 10.980469 28.421875 C 8.867188 29.847656 6.035156 29.574219 4.230469 27.769531 C 2.425781 25.964844 2.152344 23.132812 3.578125 21.019531 C 5.003906 18.902344 7.734375 18.09375 10.082031 19.089844 Z M 8 10.667969 C 9.472656 10.667969 10.667969 9.472656 10.667969 8 C 10.667969 6.527344 9.472656 5.332031 8 5.332031 C 6.527344 5.332031 5.332031 6.527344 5.332031 8 C 5.332031 9.472656 6.527344 10.667969 8 10.667969 Z M 8 26.667969 C 9.472656 26.667969 10.667969 25.472656 10.667969 24 C 10.667969 22.527344 9.472656 21.332031 8 21.332031 C 6.527344 21.332031 5.332031 22.527344 5.332031 24 C 5.332031 25.472656 6.527344 26.667969 8 26.667969 Z M 20.714844 17.882812 L 29.214844 26.386719 L 28.269531 27.328125 C 27.230469 28.371094 25.539062 28.371094 24.5 27.328125 L 17.886719 20.714844 L 20.710938 17.882812 Z M 21.332031 14.667969 L 24 14.667969 L 24 17.332031 L 21.332031 17.332031 Z M 26.667969 14.667969 L 29.332031 14.667969 L 29.332031 17.332031 L 26.667969 17.332031 Z M 8 14.667969 L 10.667969 14.667969 L 10.667969 17.332031 L 8 17.332031 Z M 2.667969 14.667969 L 5.332031 14.667969 L 5.332031 17.332031 L 2.667969 17.332031 Z M 2.667969 14.667969 "/>
</g>
</svg>
