<?xml version="1.0" encoding="UTF-8"?>
<svg xmlns="http://www.w3.org/2000/svg" xmlns:xlink="http://www.w3.org/1999/xlink" width="32" height="32" viewBox="0 0 32 32" version="1.1">
<g id="surface1">
<path style=" stroke:none;fill-rule:nonzero;fill:rgb(100%,100%,100%);fill-opacity:1;" d="M 15.992188 19.210938 L 13.921875 21.277344 C 15.292969 23.589844 14.730469 26.558594 12.613281 28.207031 C 10.496094 29.859375 7.480469 29.675781 5.574219 27.78125 C 3.667969 25.890625 3.46875 22.875 5.109375 20.746094 C 6.746094 18.617188 9.714844 18.042969 12.03125 19.398438 L 14.105469 17.324219 L 8.523438 11.742188 L 10.410156 9.855469 L 15.992188 15.4375 L 21.574219 9.851562 L 23.460938 11.738281 L 17.875 17.324219 L 19.957031 19.402344 C 22.269531 18.039062 25.238281 18.609375 26.882812 20.730469 C 28.527344 22.855469 28.335938 25.871094 26.4375 27.769531 C 24.539062 29.667969 21.523438 29.859375 19.398438 28.214844 C 17.277344 26.570312 16.707031 23.601562 18.070312 21.289062 Z M 9.332031 26.667969 C 10.804688 26.667969 12 25.472656 12 24 C 12 22.527344 10.804688 21.332031 9.332031 21.332031 C 7.859375 21.332031 6.667969 22.527344 6.667969 24 C 6.667969 25.472656 7.859375 26.667969 9.332031 26.667969 Z M 22.667969 26.667969 C 24.140625 26.667969 25.332031 25.472656 25.332031 24 C 25.332031 22.527344 24.140625 21.332031 22.667969 21.332031 C 21.195312 21.332031 20 22.527344 20 24 C 20 25.472656 21.195312 26.667969 22.667969 26.667969 Z M 25.332031 17.332031 L 25.332031 6.667969 L 6.667969 6.667969 L 6.667969 17.332031 L 4 17.332031 L 4 5.332031 C 4 4.597656 4.597656 4 5.332031 4 L 26.667969 4 C 27.402344 4 28 4.597656 28 5.332031 L 28 17.332031 Z M 25.332031 17.332031 "/>
</g>
</svg>
