<?xml version="1.0" encoding="UTF-8"?>
<svg xmlns="http://www.w3.org/2000/svg" xmlns:xlink="http://www.w3.org/1999/xlink" width="32" height="32" viewBox="0 0 32 32" version="1.1">
<g id="surface1">
<path style=" stroke:none;fill-rule:nonzero;fill:rgb(100%,100%,100%);fill-opacity:1;" d="M 10.667969 5.332031 L 10.667969 13.058594 C 10.667969 13.941406 10.316406 14.785156 9.691406 15.410156 L 8 17.109375 L 8 26.667969 L 24 26.667969 L 24 5.332031 Z M 9.332031 2.667969 L 25.332031 2.667969 C 26.070312 2.667969 26.667969 3.261719 26.667969 4 L 26.667969 28 C 26.667969 28.738281 26.070312 29.332031 25.332031 29.332031 L 6.667969 29.332031 C 5.929688 29.332031 5.332031 28.738281 5.332031 28 L 5.332031 16.558594 C 5.332031 16.207031 5.472656 15.867188 5.722656 15.617188 L 7.804688 13.527344 C 7.929688 13.402344 8 13.234375 8 13.058594 L 8 4 C 8 3.261719 8.597656 2.667969 9.332031 2.667969 Z M 20 6.667969 L 22.667969 6.667969 L 22.667969 12 L 20 12 Z M 16 6.667969 L 18.667969 6.667969 L 18.667969 12 L 16 12 Z M 12 6.667969 L 14.667969 6.667969 L 14.667969 12 L 12 12 Z M 12 6.667969 "/>
</g>
</svg>
