<?xml version="1.0" encoding="UTF-8"?>
<svg xmlns="http://www.w3.org/2000/svg" xmlns:xlink="http://www.w3.org/1999/xlink" width="32" height="32" viewBox="0 0 32 32" version="1.1">
<g id="surface1">
<path style=" stroke:none;fill-rule:nonzero;fill:rgb(100%,100%,100%);fill-opacity:1;" d="M 16.203125 0.0078125 C 9.230469 -0.179688 2.632812 4.65625 0.703125 11.359375 C 0.703125 11.363281 0.703125 11.371094 0.703125 11.375 C -1.429688 18.054688 1.40625 25.761719 7.359375 29.460938 C 13.1875 33.328125 21.363281 32.714844 26.554688 28.027344 C 31.886719 23.484375 33.550781 15.429688 30.453125 9.144531 C 27.917969 3.699219 22.242188 0.0429688 16.234375 0.0078125 Z M 16.175781 2 C 16.183594 2 16.195312 2 16.203125 2 C 21.417969 2.019531 26.460938 5.269531 28.652344 10 C 28.65625 10.007812 28.65625 10.011719 28.664062 10.015625 C 31.34375 15.4375 29.851562 22.613281 25.242188 26.523438 C 25.234375 26.53125 25.234375 26.542969 25.226562 26.550781 C 20.757812 30.59375 13.488281 31.125 8.46875 27.792969 C 8.460938 27.789062 8.445312 27.78125 8.4375 27.777344 C 3.300781 24.59375 0.761719 17.722656 2.605469 11.964844 C 2.613281 11.957031 2.613281 11.945312 2.621094 11.9375 C 4.277344 6.140625 10.152344 1.828125 16.175781 2 Z M 16.175781 2 "/>
<path style=" stroke:none;fill-rule:nonzero;fill:rgb(100%,100%,100%);fill-opacity:1;" d="M 14.214844 7.507812 C 10.582031 7.507812 7.601562 10.472656 7.601562 14.109375 C 7.601562 17.742188 10.582031 20.71875 14.214844 20.71875 C 15.488281 20.71875 16.671875 20.347656 17.683594 19.714844 L 22.421875 24.183594 C 22.894531 24.628906 23.640625 24.613281 24.089844 24.140625 C 24.304688 23.914062 24.421875 23.609375 24.414062 23.292969 C 24.40625 22.980469 24.273438 22.679688 24.042969 22.464844 L 19.441406 18.121094 C 20.296875 17.003906 20.816406 15.613281 20.816406 14.109375 C 20.816406 10.472656 17.847656 7.507812 14.214844 7.507812 Z M 14.214844 9.871094 C 16.570312 9.871094 18.449219 11.753906 18.449219 14.109375 C 18.449219 16.460938 16.570312 18.351562 14.214844 18.351562 C 11.859375 18.351562 9.96875 16.460938 9.96875 14.109375 C 9.96875 11.753906 11.859375 9.871094 14.214844 9.871094 Z M 14.214844 9.871094 "/>
<path style=" stroke:none;fill-rule:nonzero;fill:rgb(100%,100%,100%);fill-opacity:1;" d="M 17.957031 18.347656 L 23.230469 23.328125 "/>
</g>
</svg>
