<?xml version="1.0" encoding="UTF-8"?>
<svg xmlns="http://www.w3.org/2000/svg" xmlns:xlink="http://www.w3.org/1999/xlink" width="32" height="32" viewBox="0 0 32 32" version="1.1">
<g id="surface1">
<path style=" stroke:none;fill-rule:nonzero;fill:rgb(100%,100%,100%);fill-opacity:1;" d="M 8 10.667969 L 8 13.332031 L 24 13.332031 L 24 10.667969 L 20 10.667969 L 20 2.667969 L 22.667969 2.667969 L 22.667969 8 L 29.332031 8 L 29.332031 10.667969 L 26.667969 10.667969 L 26.667969 26.667969 C 26.667969 27.402344 26.070312 28 25.332031 28 L 6.667969 28 C 5.929688 28 5.332031 27.402344 5.332031 26.667969 L 5.332031 10.667969 L 2.667969 10.667969 L 2.667969 8 L 9.332031 8 L 9.332031 2.667969 L 12 2.667969 L 12 10.667969 Z M 17.332031 2.667969 L 17.332031 10.667969 L 14.667969 10.667969 L 14.667969 2.667969 Z M 17.332031 2.667969 "/>
</g>
</svg>
