<?xml version="1.0" encoding="UTF-8"?>
<svg xmlns="http://www.w3.org/2000/svg" xmlns:xlink="http://www.w3.org/1999/xlink" width="32" height="32" viewBox="0 0 32 32" version="1.1">
<g id="surface1">
<path style=" stroke:none;fill-rule:nonzero;fill:rgb(100%,100%,100%);fill-opacity:1;" d="M 11.203125 17.039062 C 10.96875 17.039062 10.734375 17.101562 10.53125 17.222656 L 5.796875 20.007812 C 5.179688 20.367188 4.972656 21.152344 5.328125 21.765625 L 5.835938 22.617188 C 4.628906 24.027344 4.386719 25.621094 4.105469 26.730469 C 3.929688 27.425781 3.722656 27.949219 3.296875 28.433594 C 2.867188 28.914062 2.167969 29.402344 0.792969 29.839844 C 0.507812 29.925781 0.269531 30.121094 0.128906 30.378906 C -0.0117188 30.640625 -0.0390625 30.949219 0.0507812 31.230469 C 0.238281 31.808594 0.863281 32.132812 1.449219 31.949219 C 3.089844 31.433594 4.226562 30.734375 4.976562 29.886719 C 5.730469 29.039062 6.050781 28.097656 6.261719 27.269531 C 6.527344 26.238281 6.65625 25.429688 7.074219 24.6875 L 7.203125 24.90625 C 7.378906 25.203125 7.667969 25.417969 8 25.5 C 8.335938 25.585938 8.691406 25.535156 8.988281 25.359375 L 13.722656 22.574219 C 14.023438 22.398438 14.238281 22.113281 14.328125 21.78125 C 14.414062 21.449219 14.359375 21.09375 14.183594 20.800781 L 12.308594 17.660156 C 12.074219 17.277344 11.65625 17.042969 11.203125 17.039062 Z M 11.203125 17.039062 "/>
<path style=" stroke:none;fill-rule:evenodd;fill:rgb(100%,100%,100%);fill-opacity:1;" d="M 12.671875 12.46875 C 12.675781 12.40625 12.683594 12.347656 12.699219 12.289062 C 12.757812 12.03125 12.921875 11.808594 13.148438 11.671875 C 13.375 11.53125 13.644531 11.488281 13.90625 11.550781 C 15.964844 12.046875 17.746094 13.335938 18.855469 15.144531 C 19.960938 16.957031 20.300781 19.128906 19.804688 21.191406 C 19.675781 21.722656 19.144531 22.050781 18.613281 21.929688 C 18.355469 21.871094 18.132812 21.707031 17.992188 21.480469 C 17.855469 21.253906 17.8125 20.980469 17.875 20.722656 C 18.246094 19.175781 17.984375 17.550781 17.152344 16.195312 C 16.324219 14.835938 14.984375 13.871094 13.4375 13.496094 C 12.964844 13.382812 12.644531 12.949219 12.671875 12.46875 Z M 12.671875 12.46875 "/>
<path style=" stroke:none;fill-rule:evenodd;fill:rgb(100%,100%,100%);fill-opacity:1;" d="M 13.621094 8.574219 C 13.625 8.515625 13.632812 8.453125 13.648438 8.398438 C 13.707031 8.136719 13.871094 7.914062 14.097656 7.777344 C 14.324219 7.636719 14.597656 7.59375 14.855469 7.65625 C 17.949219 8.402344 20.613281 10.351562 22.273438 13.066406 C 23.933594 15.78125 24.445312 19.046875 23.699219 22.140625 C 23.5625 22.671875 23.023438 22.996094 22.492188 22.867188 C 21.96875 22.730469 21.644531 22.203125 21.765625 21.675781 C 22.386719 19.09375 21.957031 16.375 20.570312 14.113281 C 19.1875 11.851562 16.964844 10.226562 14.386719 9.605469 C 13.917969 9.492188 13.59375 9.058594 13.621094 8.574219 Z M 13.621094 8.574219 "/>
<path style=" stroke:none;fill-rule:evenodd;fill:rgb(100%,100%,100%);fill-opacity:1;" d="M 14.558594 4.695312 C 14.558594 4.632812 14.566406 4.566406 14.582031 4.503906 C 14.644531 4.246094 14.804688 4.023438 15.03125 3.882812 C 15.257812 3.746094 15.53125 3.703125 15.789062 3.765625 C 19.914062 4.757812 23.476562 7.351562 25.691406 10.96875 C 27.902344 14.589844 28.585938 18.953125 27.59375 23.078125 C 27.53125 23.335938 27.367188 23.558594 27.140625 23.695312 C 26.914062 23.835938 26.644531 23.878906 26.386719 23.816406 C 26.128906 23.753906 25.902344 23.59375 25.765625 23.367188 C 25.625 23.140625 25.582031 22.867188 25.644531 22.609375 C 26.515625 19 25.925781 15.1875 23.988281 12.019531 C 22.050781 8.851562 18.929688 6.582031 15.320312 5.710938 C 14.855469 5.597656 14.535156 5.171875 14.558594 4.695312 Z M 14.558594 4.695312 "/>
<path style=" stroke:none;fill-rule:evenodd;fill:rgb(100%,100%,100%);fill-opacity:1;" d="M 16.957031 0 C 16.488281 -0.015625 16.074219 0.289062 15.953125 0.738281 C 15.882812 0.996094 15.917969 1.269531 16.050781 1.5 C 16.183594 1.726562 16.402344 1.894531 16.660156 1.964844 C 26.167969 4.511719 31.859375 14.179688 29.460938 23.726562 C 29.394531 23.984375 29.429688 24.257812 29.566406 24.488281 C 29.703125 24.71875 29.925781 24.886719 30.183594 24.953125 C 30.441406 25.015625 30.714844 24.972656 30.941406 24.835938 C 31.171875 24.695312 31.332031 24.472656 31.394531 24.214844 C 34.050781 13.628906 27.714844 2.855469 17.175781 0.03125 C 17.105469 0.0117188 17.03125 0.00390625 16.957031 0 Z M 16.957031 0 "/>
</g>
</svg>
