<?xml version="1.0" encoding="UTF-8"?>
<svg xmlns="http://www.w3.org/2000/svg" xmlns:xlink="http://www.w3.org/1999/xlink" width="32" height="32" viewBox="0 0 32 32" version="1.1">
<g id="surface1">
<path style=" stroke:none;fill-rule:evenodd;fill:rgb(100%,100%,100%);fill-opacity:1;" d="M 2 0 C 0.890625 0 0 0.890625 0 2 L 0 6 C 0 7.109375 0.890625 8 2 8 L 30 8 C 31.109375 8 32 7.109375 32 6 L 32 2 C 32 0.890625 31.109375 0 30 0 Z M 22 2 C 23.105469 2 24 2.894531 24 4 C 24 5.105469 23.105469 6 22 6 C 20.894531 6 20 5.105469 20 4 C 20 2.894531 20.894531 2 22 2 Z M 28 2 C 29.105469 2 30 2.894531 30 4 C 30 5.105469 29.105469 6 28 6 C 26.894531 6 26 5.105469 26 4 C 26 2.894531 26.894531 2 28 2 Z M 2 12 C 0.890625 12 0 12.890625 0 14 L 0 18 C 0 19.109375 0.890625 20 2 20 L 30 20 C 31.109375 20 32 19.109375 32 18 L 32 14 C 32 12.890625 31.109375 12 30 12 Z M 22 14 C 23.105469 14 24 14.894531 24 16 C 24 17.105469 23.105469 18 22 18 C 20.894531 18 20 17.105469 20 16 C 20 14.894531 20.894531 14 22 14 Z M 28 14 C 29.105469 14 30 14.894531 30 16 C 30 17.105469 29.105469 18 28 18 C 26.894531 18 26 17.105469 26 16 C 26 14.894531 26.894531 14 28 14 Z M 2 24 C 0.890625 24 0 24.890625 0 26 L 0 30 C 0 31.109375 0.890625 32 2 32 L 30 32 C 31.109375 32 32 31.109375 32 30 L 32 26 C 32 24.890625 31.109375 24 30 24 Z M 22 26 C 23.105469 26 24 26.894531 24 28 C 24 29.105469 23.105469 30 22 30 C 20.894531 30 20 29.105469 20 28 C 20 26.894531 20.894531 26 22 26 Z M 28 26 C 29.105469 26 30 26.894531 30 28 C 30 29.105469 29.105469 30 28 30 C 26.894531 30 26 29.105469 26 28 C 26 26.894531 26.894531 26 28 26 Z M 28 26 "/>
</g>
</svg>
