<?xml version="1.0" encoding="UTF-8"?>
<svg xmlns="http://www.w3.org/2000/svg" xmlns:xlink="http://www.w3.org/1999/xlink" width="32" height="32" viewBox="0 0 32 32" version="1.1">
<g id="surface1">
<path style=" stroke:none;fill-rule:nonzero;fill:rgb(100%,100%,100%);fill-opacity:1;" d="M 4.214844 5.957031 C 7.421875 2.75 12.5625 2.558594 16 5.519531 C 19.433594 2.5625 24.566406 2.75 27.777344 5.953125 C 30.984375 9.152344 31.1875 14.285156 28.238281 17.726562 L 17.886719 28.113281 C 16.898438 29.101562 15.316406 29.160156 14.261719 28.25 L 14.113281 28.113281 L 3.761719 17.726562 C 0.816406 14.289062 1.011719 9.160156 4.214844 5.957031 Z M 6.101562 7.84375 C 3.835938 10.109375 3.75 13.753906 5.90625 16.125 L 6.101562 16.328125 L 16 26.230469 L 23.070312 19.15625 L 18.355469 14.445312 L 16.945312 15.855469 C 15.382812 17.421875 12.847656 17.421875 11.285156 15.859375 C 9.722656 14.296875 9.722656 11.765625 11.285156 10.203125 L 14.089844 7.398438 C 11.785156 5.558594 8.484375 5.664062 6.304688 7.648438 Z M 17.414062 11.613281 C 17.933594 11.09375 18.78125 11.09375 19.300781 11.613281 L 24.957031 17.269531 L 25.898438 16.328125 C 28.207031 14.023438 28.25 10.300781 26 7.945312 C 23.75 5.585938 20.027344 5.453125 17.617188 7.648438 L 17.414062 7.84375 L 13.171875 12.085938 C 12.695312 12.566406 12.648438 13.324219 13.066406 13.855469 L 13.171875 13.972656 C 13.648438 14.449219 14.410156 14.496094 14.941406 14.074219 L 15.058594 13.972656 Z M 17.414062 11.613281 "/>
</g>
</svg>
