<?xml version="1.0" encoding="UTF-8"?>
<svg xmlns="http://www.w3.org/2000/svg" xmlns:xlink="http://www.w3.org/1999/xlink" width="32" height="32" viewBox="0 0 32 32" version="1.1">
<g id="surface1">
<path style=" stroke:none;fill-rule:nonzero;fill:rgb(100%,100%,100%);fill-opacity:1;" d="M 2.667969 16 C 2.667969 14.847656 2.8125 13.730469 3.089844 12.660156 C 4.589844 12.742188 6.007812 11.96875 6.761719 10.667969 C 7.515625 9.367188 7.472656 7.75 6.652344 6.488281 C 8.265625 4.902344 10.253906 3.753906 12.433594 3.148438 C 13.117188 4.492188 14.492188 5.335938 16 5.335938 C 17.503906 5.335938 18.882812 4.492188 19.5625 3.148438 C 21.742188 3.753906 23.730469 4.902344 25.34375 6.488281 C 24.523438 7.75 24.480469 9.367188 25.234375 10.667969 C 25.988281 11.972656 27.40625 12.742188 28.910156 12.664062 C 29.183594 13.730469 29.332031 14.847656 29.332031 16 C 29.332031 17.152344 29.183594 18.269531 28.910156 19.339844 C 27.410156 19.257812 25.988281 20.027344 25.234375 21.332031 C 24.484375 22.632812 24.523438 24.25 25.34375 25.511719 C 23.730469 27.097656 21.742188 28.246094 19.5625 28.851562 C 18.882812 27.507812 17.503906 26.664062 16 26.664062 C 14.492188 26.664062 13.117188 27.507812 12.433594 28.851562 C 10.253906 28.246094 8.265625 27.097656 6.652344 25.511719 C 7.472656 24.25 7.515625 22.632812 6.761719 21.332031 C 6.007812 20.027344 4.589844 19.257812 3.085938 19.335938 C 2.8125 18.273438 2.667969 17.15625 2.667969 16 Z M 9.070312 20 C 9.910156 21.453125 10.152344 23.128906 9.824219 24.699219 C 10.367188 25.085938 10.945312 25.421875 11.554688 25.699219 C 12.777344 24.605469 14.359375 24 16 24 C 17.679688 24 19.25 24.628906 20.445312 25.699219 C 21.054688 25.421875 21.632812 25.085938 22.175781 24.699219 C 21.839844 23.09375 22.105469 21.421875 22.929688 20 C 23.746094 18.578125 25.0625 17.511719 26.621094 17 C 26.683594 16.335938 26.683594 15.664062 26.621094 15 C 25.0625 14.488281 23.746094 13.421875 22.925781 12 C 22.105469 10.578125 21.839844 8.90625 22.175781 7.300781 C 21.628906 6.914062 21.050781 6.578125 20.445312 6.300781 C 19.222656 7.394531 17.640625 8 16 8 C 14.359375 8 12.777344 7.394531 11.554688 6.300781 C 10.945312 6.578125 10.367188 6.914062 9.824219 7.300781 C 10.160156 8.90625 9.894531 10.578125 9.070312 12 C 8.253906 13.421875 6.9375 14.488281 5.378906 15 C 5.316406 15.664062 5.316406 16.335938 5.378906 17 C 6.9375 17.511719 8.253906 18.578125 9.074219 20 Z M 16 20 C 13.789062 20 12 18.210938 12 16 C 12 13.789062 13.789062 12 16 12 C 18.210938 12 20 13.789062 20 16 C 20 18.210938 18.210938 20 16 20 Z M 16 17.332031 C 16.738281 17.332031 17.332031 16.738281 17.332031 16 C 17.332031 15.261719 16.738281 14.667969 16 14.667969 C 15.261719 14.667969 14.667969 15.261719 14.667969 16 C 14.667969 16.738281 15.261719 17.332031 16 17.332031 Z M 16 17.332031 "/>
</g>
</svg>
