<?xml version="1.0" encoding="UTF-8"?>
<svg xmlns="http://www.w3.org/2000/svg" xmlns:xlink="http://www.w3.org/1999/xlink" width="32" height="32" viewBox="0 0 32 32" version="1.1">
<g id="surface1">
<path style=" stroke:none;fill-rule:nonzero;fill:rgb(100%,100%,100%);fill-opacity:1;" d="M 16 1.332031 L 28.667969 8.667969 L 28.667969 23.332031 L 16 30.667969 L 3.332031 23.332031 L 3.332031 8.667969 Z M 16 4.414062 L 6 10.203125 L 6 21.796875 L 16 27.585938 L 26 21.796875 L 26 10.203125 Z M 16 21.332031 C 13.054688 21.332031 10.667969 18.945312 10.667969 16 C 10.667969 13.054688 13.054688 10.667969 16 10.667969 C 18.945312 10.667969 21.332031 13.054688 21.332031 16 C 21.332031 18.945312 18.945312 21.332031 16 21.332031 Z M 16 18.667969 C 17.472656 18.667969 18.667969 17.472656 18.667969 16 C 18.667969 14.527344 17.472656 13.332031 16 13.332031 C 14.527344 13.332031 13.332031 14.527344 13.332031 16 C 13.332031 17.472656 14.527344 18.667969 16 18.667969 Z M 16 18.667969 "/>
</g>
</svg>
