<?xml version="1.0" encoding="UTF-8"?>
<svg xmlns="http://www.w3.org/2000/svg" xmlns:xlink="http://www.w3.org/1999/xlink" width="32" height="32" viewBox="0 0 32 32" version="1.1">
<defs>
<filter id="alpha" filterUnits="objectBoundingBox" x="0%" y="0%" width="100%" height="100%">
  <feColorMatrix type="matrix" in="SourceGraphic" values="0 0 0 0 1 0 0 0 0 1 0 0 0 0 1 0 0 0 1 0"/>
</filter>
<mask id="mask0">
  <g filter="url(#alpha)">
<rect x="0" y="0" width="32" height="32" style="fill:rgb(100%,100%,100%);fill-opacity:0.996078;stroke:none;"/>
  </g>
</mask>
<clipPath id="clip1">
  <rect x="0" y="0" width="32" height="32"/>
</clipPath>
<g id="surface5" clip-path="url(#clip1)">
<path style=" stroke:none;fill-rule:evenodd;fill:rgb(100%,100%,100%);fill-opacity:1;" d="M 7.902344 2 C 6.507812 2.035156 5.234375 2.792969 4.539062 4 L 0 4 L 0 8 L 4.539062 8 C 5.253906 9.238281 6.570312 10 8 10 C 10.210938 10 12 8.210938 12 6 C 12 3.789062 10.210938 2 8 2 C 7.96875 2 7.933594 2 7.902344 2 Z M 14.496094 4 L 14.496094 8 L 32 8 L 32 4 Z M 21.402344 12 C 20.007812 12.035156 18.734375 12.792969 18.039062 14 L 0 14 L 0 18 L 18.039062 18 C 18.753906 19.238281 20.074219 20 21.503906 20 C 23.714844 20 25.503906 18.210938 25.503906 16 C 25.503906 13.789062 23.714844 12 21.503906 12 C 21.46875 12 21.4375 12 21.402344 12 Z M 28 14 L 28 18 L 32 18 L 32 14 Z M 15.402344 22 C 14.007812 22.035156 12.734375 22.792969 12.039062 24 L 0 24 L 0 28 L 12.039062 28 C 12.753906 29.238281 14.074219 30 15.503906 30 C 17.714844 30 19.503906 28.210938 19.503906 26 C 19.503906 23.789062 17.714844 22 15.503906 22 C 15.46875 22 15.4375 22 15.402344 22 Z M 22 24 L 22 28 L 32 28 L 32 24 Z M 22 24 "/>
</g>
</defs>
<g id="surface1">
<use xlink:href="#surface5" mask="url(#mask0)"/>
</g>
</svg>
