<?xml version="1.0" encoding="UTF-8"?>
<svg xmlns="http://www.w3.org/2000/svg" xmlns:xlink="http://www.w3.org/1999/xlink" width="32" height="32" viewBox="0 0 32 32" version="1.1">
<g id="surface1">
<path style=" stroke:none;fill-rule:nonzero;fill:rgb(100%,100%,100%);fill-opacity:1;" d="M 10.441406 26.667969 C 9.820312 28.421875 8.066406 29.519531 6.214844 29.308594 C 4.363281 29.097656 2.902344 27.636719 2.691406 25.785156 C 2.480469 23.933594 3.578125 22.179688 5.332031 21.558594 L 5.332031 10.441406 C 3.578125 9.820312 2.480469 8.066406 2.691406 6.214844 C 2.902344 4.363281 4.363281 2.902344 6.214844 2.691406 C 8.066406 2.480469 9.820312 3.578125 10.441406 5.332031 L 21.558594 5.332031 C 22.179688 3.578125 23.933594 2.480469 25.785156 2.691406 C 27.636719 2.902344 29.097656 4.363281 29.308594 6.214844 C 29.519531 8.066406 28.421875 9.820312 26.667969 10.441406 L 26.667969 21.558594 C 28.421875 22.179688 29.519531 23.933594 29.308594 25.785156 C 29.097656 27.636719 27.636719 29.097656 25.785156 29.308594 C 23.933594 29.519531 22.179688 28.421875 21.558594 26.667969 Z M 10.441406 24 L 21.558594 24 C 21.964844 22.859375 22.859375 21.964844 24 21.558594 L 24 10.441406 C 22.859375 10.035156 21.964844 9.140625 21.558594 8 L 10.441406 8 C 10.035156 9.140625 9.140625 10.035156 8 10.441406 L 8 21.558594 C 9.140625 21.964844 10.035156 22.859375 10.441406 24 Z M 6.667969 8 C 7.402344 8 8 7.402344 8 6.667969 C 8 5.929688 7.402344 5.332031 6.667969 5.332031 C 5.929688 5.332031 5.332031 5.929688 5.332031 6.667969 C 5.332031 7.402344 5.929688 8 6.667969 8 Z M 25.332031 8 C 26.070312 8 26.667969 7.402344 26.667969 6.667969 C 26.667969 5.929688 26.070312 5.332031 25.332031 5.332031 C 24.597656 5.332031 24 5.929688 24 6.667969 C 24 7.402344 24.597656 8 25.332031 8 Z M 25.332031 26.667969 C 26.070312 26.667969 26.667969 26.070312 26.667969 25.332031 C 26.667969 24.597656 26.070312 24 25.332031 24 C 24.597656 24 24 24.597656 24 25.332031 C 24 26.070312 24.597656 26.667969 25.332031 26.667969 Z M 6.667969 26.667969 C 7.402344 26.667969 8 26.070312 8 25.332031 C 8 24.597656 7.402344 24 6.667969 24 C 5.929688 24 5.332031 24.597656 5.332031 25.332031 C 5.332031 26.070312 5.929688 26.667969 6.667969 26.667969 Z M 6.667969 26.667969 "/>
</g>
</svg>
