<?xml version="1.0" encoding="UTF-8"?>
<svg xmlns="http://www.w3.org/2000/svg" xmlns:xlink="http://www.w3.org/1999/xlink" width="32" height="32" viewBox="0 0 32 32" version="1.1">
<g id="surface1">
<path style=" stroke:none;fill-rule:nonzero;fill:rgb(100%,100%,100%);fill-opacity:1;" d="M 12 4 L 12 6.667969 L 5.332031 6.667969 L 5.332031 25.332031 L 26.667969 25.332031 L 26.667969 13.332031 L 29.332031 13.332031 L 29.332031 26.667969 C 29.332031 27.402344 28.738281 28 28 28 L 4 28 C 3.261719 28 2.667969 27.402344 2.667969 26.667969 L 2.667969 5.332031 C 2.667969 4.597656 3.261719 4 4 4 Z M 21.332031 6.667969 L 21.332031 1.332031 L 30.667969 9.332031 L 18.667969 9.332031 C 17.195312 9.332031 16 10.527344 16 12 L 16 20 L 13.332031 20 L 13.332031 12 C 13.332031 9.054688 15.722656 6.667969 18.667969 6.667969 Z M 21.332031 6.667969 "/>
</g>
</svg>
