<?xml version="1.0" encoding="UTF-8"?>
<svg xmlns="http://www.w3.org/2000/svg" xmlns:xlink="http://www.w3.org/1999/xlink" width="32" height="32" viewBox="0 0 32 32" version="1.1">
<g id="surface1">
<path style=" stroke:none;fill-rule:nonzero;fill:rgb(100%,100%,100%);fill-opacity:1;" d="M 5.042969 3.769531 L 16 1.332031 L 26.957031 3.769531 C 27.566406 3.902344 28 4.445312 28 5.070312 L 28 18.386719 C 28 21.058594 26.664062 23.558594 24.4375 25.042969 L 16 30.667969 L 7.5625 25.042969 C 5.335938 23.558594 4 21.0625 4 18.386719 L 4 5.070312 C 4 4.445312 4.433594 3.902344 5.042969 3.769531 Z M 6.667969 6.136719 L 6.667969 18.386719 C 6.667969 20.167969 7.558594 21.832031 9.042969 22.824219 L 16 27.460938 L 22.957031 22.824219 C 24.441406 21.832031 25.332031 20.167969 25.332031 18.386719 L 25.332031 6.136719 L 16 4.066406 Z M 14.667969 13.332031 L 14.667969 9.332031 L 17.332031 9.332031 L 17.332031 13.332031 L 21.332031 13.332031 L 21.332031 16 L 17.332031 16 L 17.332031 20 L 14.667969 20 L 14.667969 16 L 10.667969 16 L 10.667969 13.332031 Z M 14.667969 13.332031 "/>
</g>
</svg>
