<?xml version="1.0" encoding="UTF-8"?>
<svg xmlns="http://www.w3.org/2000/svg" xmlns:xlink="http://www.w3.org/1999/xlink" width="32" height="32" viewBox="0 0 32 32" version="1.1">
<g id="surface1">
<path style=" stroke:none;fill-rule:nonzero;fill:rgb(100%,100%,100%);fill-opacity:1;" d="M 5.042969 3.769531 L 16 1.332031 L 26.957031 3.769531 C 27.566406 3.902344 28 4.445312 28 5.070312 L 28 18.386719 C 28 21.058594 26.664062 23.558594 24.4375 25.042969 L 16 30.667969 L 7.5625 25.042969 C 5.335938 23.558594 4 21.0625 4 18.386719 L 4 5.070312 C 4 4.445312 4.433594 3.902344 5.042969 3.769531 Z M 16 14.667969 C 17.839844 14.667969 19.332031 13.175781 19.332031 11.332031 C 19.332031 9.492188 17.839844 8 16 8 C 14.160156 8 12.667969 9.492188 12.667969 11.332031 C 12.667969 13.175781 14.160156 14.667969 16 14.667969 Z M 10.035156 21.332031 L 21.964844 21.332031 C 21.628906 18.292969 19.058594 15.988281 16 15.988281 C 12.941406 15.988281 10.371094 18.292969 10.035156 21.332031 Z M 10.035156 21.332031 "/>
</g>
</svg>
