<?xml version="1.0" encoding="UTF-8"?>
<svg xmlns="http://www.w3.org/2000/svg" xmlns:xlink="http://www.w3.org/1999/xlink" width="32" height="32" viewBox="0 0 32 32" version="1.1">
<g id="surface1">
<path style=" stroke:none;fill-rule:nonzero;fill:rgb(100%,100%,100%);fill-opacity:1;" d="M 6 2 L 6 6 L 4 6 L 4 18 L 0 18 L 0 24 C 0 26 2 30 4 30 L 26 30 C 26 30 32 28 32 14 L 24 14 C 24 16 24 18 22 18 L 12 18 L 12 10 L 14 8 L 14 6 L 8 6 L 8 2 Z M 21.0625 20 L 21.105469 20 C 21.597656 20 22 20.402344 22 20.894531 L 22 22 L 24 22 L 24 20.914062 C 24 20.410156 24.410156 20 24.914062 20 L 25.011719 20 C 25.558594 20 26 20.441406 26 20.988281 L 26 24 L 20 24 L 20 21.0625 C 20 20.476562 20.476562 20 21.0625 20 Z M 21.0625 20 "/>
</g>
</svg>
