<?xml version="1.0" encoding="UTF-8"?>
<svg xmlns="http://www.w3.org/2000/svg" xmlns:xlink="http://www.w3.org/1999/xlink" width="32" height="32" viewBox="0 0 32 32" version="1.1">
<g id="surface1">
<path style=" stroke:none;fill-rule:nonzero;fill:rgb(100%,100%,100%);fill-opacity:1;" d="M 8 12 L 26.585938 12 L 27.25 9.332031 L 10.667969 9.332031 L 10.667969 6.667969 L 28.960938 6.667969 C 29.371094 6.667969 29.757812 6.855469 30.011719 7.179688 C 30.265625 7.503906 30.351562 7.925781 30.253906 8.324219 L 26.921875 21.65625 C 26.769531 22.25 26.238281 22.667969 25.625 22.667969 L 6.667969 22.667969 C 5.929688 22.667969 5.332031 22.070312 5.332031 21.332031 L 5.332031 5.332031 L 2.667969 5.332031 L 2.667969 2.667969 L 6.667969 2.667969 C 7.402344 2.667969 8 3.261719 8 4 Z M 8 30.667969 C 6.527344 30.667969 5.332031 29.472656 5.332031 28 C 5.332031 26.527344 6.527344 25.332031 8 25.332031 C 9.472656 25.332031 10.667969 26.527344 10.667969 28 C 10.667969 29.472656 9.472656 30.667969 8 30.667969 Z M 24 30.667969 C 22.527344 30.667969 21.332031 29.472656 21.332031 28 C 21.332031 26.527344 22.527344 25.332031 24 25.332031 C 25.472656 25.332031 26.667969 26.527344 26.667969 28 C 26.667969 29.472656 25.472656 30.667969 24 30.667969 Z M 24 30.667969 "/>
</g>
</svg>
