<?xml version="1.0" encoding="UTF-8"?>
<svg xmlns="http://www.w3.org/2000/svg" xmlns:xlink="http://www.w3.org/1999/xlink" width="32" height="32" viewBox="0 0 32 32" version="1.1">
<g id="surface1">
<path style=" stroke:none;fill-rule:nonzero;fill:rgb(100%,100%,100%);fill-opacity:1;" d="M 8.15625 26.78125 C 4.703125 24.273438 2.664062 20.265625 2.667969 16 C 2.667969 8.636719 8.636719 2.667969 16 2.667969 C 23.363281 2.667969 29.332031 8.636719 29.332031 16 C 29.335938 20.265625 27.296875 24.273438 23.84375 26.78125 L 22.492188 24.464844 C 26.117188 21.683594 27.570312 16.898438 26.101562 12.574219 C 24.632812 8.246094 20.570312 5.332031 16 5.332031 C 11.429688 5.332031 7.367188 8.246094 5.898438 12.574219 C 4.429688 16.898438 5.882812 21.683594 9.507812 24.464844 Z M 10.867188 22.136719 C 8.285156 19.976562 7.332031 16.433594 8.480469 13.269531 C 9.628906 10.105469 12.632812 8 16 8 C 19.367188 8 22.371094 10.105469 23.519531 13.269531 C 24.667969 16.433594 23.714844 19.976562 21.132812 22.136719 L 19.761719 19.78125 C 21.292969 18.257812 21.753906 15.960938 20.929688 13.964844 C 20.105469 11.96875 18.160156 10.664062 16 10.664062 C 13.839844 10.664062 11.894531 11.96875 11.070312 13.964844 C 10.246094 15.960938 10.707031 18.257812 12.238281 19.78125 Z M 14.667969 17.332031 L 17.332031 17.332031 L 18.667969 29.332031 L 13.332031 29.332031 Z M 14.667969 17.332031 "/>
</g>
</svg>
