<?xml version="1.0" encoding="UTF-8"?>
<svg xmlns="http://www.w3.org/2000/svg" xmlns:xlink="http://www.w3.org/1999/xlink" width="32" height="32" viewBox="0 0 32 32" version="1.1">
<g id="surface1">
<path style=" stroke:none;fill-rule:nonzero;fill:rgb(100%,100%,100%);fill-opacity:1;" d="M 7.300781 23.609375 C 7.101562 23.605469 6.914062 23.683594 6.777344 23.820312 L 0.296875 30.300781 C -0.320312 30.933594 0.121094 31.988281 1.003906 31.996094 L 8 31.996094 L 8 24.324219 C 8 23.9375 7.6875 23.617188 7.300781 23.609375 Z M 5.992188 27.449219 L 5.992188 29.988281 L 3.453125 29.988281 Z M 5.992188 27.449219 "/>
<path style=" stroke:none;fill-rule:nonzero;fill:rgb(100%,100%,100%);fill-opacity:1;" d="M 19.425781 11.421875 C 19.265625 11.421875 19.113281 11.480469 19.003906 11.59375 L 13.128906 17.46875 C 12.40625 18.191406 12 19.171875 12 20.195312 L 12 31.996094 L 20 31.996094 L 20 12.003906 C 20 11.6875 19.742188 11.425781 19.425781 11.421875 Z M 17.996094 15.34375 L 17.996094 29.902344 L 14.011719 29.902344 L 14.011719 20.097656 C 14.011719 19.617188 14.199219 19.140625 14.542969 18.796875 Z M 17.996094 15.34375 "/>
<path style=" stroke:none;fill-rule:nonzero;fill:rgb(100%,100%,100%);fill-opacity:1;" d="M 30.945312 0.00390625 C 30.699219 0.0195312 30.46875 0.125 30.296875 0.300781 L 24.996094 5.601562 C 24.355469 6.238281 24 7.101562 24 8.003906 L 24 31.996094 L 31.003906 31.996094 C 31.546875 31.992188 31.984375 31.550781 31.992188 31.007812 L 31.992188 1.007812 C 31.992188 0.433594 31.515625 -0.0234375 30.945312 0.00390625 Z M 30 3.425781 L 30 30.011719 L 25.992188 30.011719 L 25.992188 8.011719 C 25.992188 7.644531 26.140625 7.28125 26.402344 7.019531 C 26.402344 7.019531 26.402344 7.019531 26.40625 7.019531 Z M 30 3.425781 "/>
</g>
</svg>
