<?xml version="1.0" encoding="UTF-8"?>
<svg xmlns="http://www.w3.org/2000/svg" xmlns:xlink="http://www.w3.org/1999/xlink" width="32" height="32" viewBox="0 0 32 32" version="1.1">
<g id="surface1">
<path style=" stroke:none;fill-rule:nonzero;fill:rgb(100%,100%,100%);fill-opacity:1;" d="M 30.945312 0.00390625 C 30.699219 0.0195312 30.46875 0.125 30.296875 0.300781 L 24.992188 5.605469 C 24.355469 6.242188 24 7.105469 24 8.003906 L 24 31.996094 L 31.003906 31.996094 C 31.546875 31.992188 31.984375 31.550781 31.992188 31.007812 L 31.992188 1.007812 C 31.992188 0.433594 31.515625 -0.0234375 30.945312 0.00390625 Z M 19.003906 11.59375 L 13.128906 17.46875 C 12.40625 18.191406 12 19.171875 12 20.195312 L 12 31.996094 L 20 31.996094 L 20 12.003906 C 20 11.769531 19.855469 11.554688 19.640625 11.464844 C 19.421875 11.375 19.171875 11.425781 19.003906 11.59375 Z M 6.777344 23.820312 L 0.296875 30.300781 C -0.320312 30.933594 0.121094 31.988281 1.003906 31.996094 L 8 31.996094 L 8 24.324219 C 8 24.035156 7.824219 23.773438 7.558594 23.664062 C 7.289062 23.554688 6.980469 23.613281 6.777344 23.820312 Z M 6.777344 23.820312 "/>
</g>
</svg>
