<?xml version="1.0" encoding="UTF-8"?>
<svg xmlns="http://www.w3.org/2000/svg" xmlns:xlink="http://www.w3.org/1999/xlink" width="32" height="32" viewBox="0 0 32 32" version="1.1">
<g id="surface1">
<path style="fill-rule:nonzero;fill:rgb(100%,100%,100%);fill-opacity:1;stroke-width:0.128311;stroke-linecap:round;stroke-linejoin:miter;stroke:rgb(0%,0%,0%);stroke-opacity:1;stroke-miterlimit:4;" d="M 1.121378 0.642855 C 0.828373 0.665076 0.553971 0.849561 0.40721 1.129647 C 0.322461 1.291394 0.326078 1.485181 0.367419 1.682585 C 0.409277 1.880505 0.492476 2.086694 0.60048 2.27738 C 0.682646 2.422074 0.788065 2.53938 0.892452 2.654618 C 0.522449 3.072164 0.121439 3.469039 0.121439 3.469039 C 0.0702798 3.517098 0.0666625 3.597197 0.113688 3.648873 C 0.136942 3.674194 0.168982 3.689181 0.203088 3.690731 C 0.237195 3.692281 0.270784 3.679879 0.295589 3.656624 C 0.295589 3.656624 0.704866 3.252515 1.083655 2.825151 C 1.201994 2.917651 1.3224 3.009119 1.460893 3.012736 C 1.62574 3.016353 1.7632 2.931604 1.858284 2.825151 C 1.953369 2.718697 2.019515 2.589506 2.082043 2.465483 C 2.144055 2.340942 2.201416 2.22157 2.25981 2.139404 C 2.318721 2.057239 2.368331 2.022099 2.421041 2.016414 C 2.444295 2.013314 2.448946 2.015898 2.462899 2.026233 C 2.476851 2.035535 2.498039 2.059306 2.517676 2.095996 C 2.557467 2.169893 2.59209 2.294434 2.623612 2.423625 C 2.655652 2.553333 2.683557 2.686658 2.73575 2.800863 C 2.761589 2.857707 2.794145 2.912484 2.847371 2.956409 C 2.900598 2.999817 2.980697 3.024105 3.055627 3.011186 C 3.175 2.989998 3.268534 2.90835 3.309359 2.819466 C 3.3507 2.7311 3.355867 2.642216 3.360518 2.562118 C 3.365169 2.482019 3.36827 2.407605 3.377572 2.36523 C 3.386873 2.322339 3.38584 2.329057 3.391007 2.32699 C 3.397725 2.32544 3.412195 2.322339 3.453536 2.348177 C 3.494877 2.373499 3.548621 2.422591 3.603398 2.474784 C 3.657658 2.527494 3.711401 2.582271 3.77548 2.626713 C 3.80752 2.648934 3.842143 2.671155 3.889168 2.68149 C 3.936194 2.691825 4.000789 2.684074 4.048332 2.653068 C 4.113444 2.60966 4.152201 2.53783 4.164087 2.474784 C 4.175456 2.412256 4.166154 2.357479 4.154268 2.309937 C 4.131014 2.214852 4.086056 2.141471 4.086056 2.141471 C 4.069002 2.112016 4.04058 2.090829 4.007507 2.082044 C 3.974434 2.073775 3.939294 2.078426 3.909839 2.095996 C 3.849377 2.132686 3.82974 2.211751 3.866431 2.272213 C 3.866431 2.272213 3.893819 2.320272 3.906222 2.370915 C 3.909839 2.385384 3.907772 2.393652 3.908289 2.405021 C 3.875216 2.3797 3.830774 2.338875 3.779097 2.289266 C 3.72277 2.235006 3.660758 2.176095 3.585828 2.130103 C 3.511414 2.084111 3.408061 2.048971 3.303674 2.086694 C 3.197738 2.124935 3.145544 2.227254 3.127458 2.309937 C 3.109371 2.393136 3.108854 2.474784 3.10472 2.547131 C 3.100586 2.618962 3.090767 2.680457 3.076298 2.711979 C 3.061829 2.742985 3.060278 2.750737 3.012219 2.759005 C 3.002917 2.761072 3.014286 2.762105 3.008085 2.756938 C 3.002401 2.752287 2.985347 2.731616 2.968294 2.694409 C 2.935221 2.621029 2.904215 2.493388 2.871659 2.361096 C 2.83962 2.229321 2.807064 2.090829 2.742985 1.973006 C 2.710946 1.914095 2.669604 1.859318 2.610177 1.81746 C 2.551265 1.776119 2.471684 1.752348 2.392619 1.760616 C 2.241207 1.777153 2.130619 1.878955 2.051554 1.990059 C 1.972489 2.100647 1.913061 2.229321 1.8526 2.349727 C 1.792139 2.47065 1.73116 2.582788 1.667082 2.655135 C 1.603003 2.726965 1.549776 2.759522 1.468127 2.756938 C 1.416451 2.756421 1.328084 2.693376 1.246435 2.636015 C 1.44694 2.391585 1.64331 2.134237 1.773018 1.88774 C 1.913578 1.621607 2.001945 1.35909 1.894458 1.133781 C 1.724959 0.778764 1.414384 0.620634 1.121378 0.643372 Z M 1.142566 0.898653 C 1.338419 0.883667 1.528589 0.966866 1.661397 1.244885 C 1.704805 1.336353 1.671733 1.529622 1.545642 1.767851 C 1.432471 1.983342 1.247986 2.225704 1.05885 2.457731 C 0.976684 2.362647 0.892452 2.270663 0.824239 2.150773 C 0.727087 1.979724 0.652156 1.793172 0.617533 1.629875 C 0.583427 1.46606 0.592729 1.329118 0.634586 1.249019 C 0.741557 1.045414 0.946195 0.913639 1.142566 0.898653 Z M 1.142566 0.898653 " transform="matrix(7.559055,0,0,7.559055,0.00000113386,0)"/>
</g>
</svg>
