<?xml version="1.0" encoding="UTF-8"?>
<svg xmlns="http://www.w3.org/2000/svg" xmlns:xlink="http://www.w3.org/1999/xlink" width="32" height="32" viewBox="0 0 32 32" version="1.1">
<g id="surface1">
<path style=" stroke:none;fill-rule:nonzero;fill:rgb(100%,100%,100%);fill-opacity:1;" d="M 3.742188 1.855469 L 27.3125 25.429688 L 25.429688 27.3125 L 20.515625 22.402344 L 16 28 L 0.921875 9.328125 C 2.136719 8.34375 3.457031 7.476562 4.851562 6.738281 L 1.859375 3.742188 L 3.746094 1.855469 Z M 4.773438 9.855469 L 16 23.757812 L 18.621094 20.507812 L 6.84375 8.726562 C 6.132812 9.0625 5.441406 9.441406 4.773438 9.855469 Z M 16 4 C 21.710938 4 26.960938 5.996094 31.078125 9.328125 L 23.871094 18.253906 L 21.976562 16.355469 L 27.226562 9.855469 C 23.894531 7.789062 20.035156 6.667969 16 6.667969 C 14.835938 6.667969 13.6875 6.761719 12.558594 6.941406 L 10.300781 4.679688 C 12.125 4.234375 14.035156 4 16 4 Z M 16 4 "/>
</g>
</svg>
