<?xml version="1.0" encoding="UTF-8"?>
<svg xmlns="http://www.w3.org/2000/svg" xmlns:xlink="http://www.w3.org/1999/xlink" width="32" height="32" viewBox="0 0 32 32" version="1.1">
<g id="surface1">
<path style=" stroke:none;fill-rule:evenodd;fill:rgb(100%,100%,100%);fill-opacity:1;" d="M 8 0 C 5.785156 0 4 1.785156 4 4 L 4 28 C 4 30.214844 5.785156 32 8 32 L 24 32 C 26.214844 32 28 30.214844 28 28 L 28 10 L 18 0 Z M 10 12 L 12 12 L 12 16 L 8 16 L 8 14 C 8 12.890625 8.890625 12 10 12 Z M 14 12 L 18 12 L 18 16 L 14 16 Z M 20 12 L 22 12 C 23.109375 12 24 12.890625 24 14 L 24 16 L 20 16 Z M 8 18 L 24 18 L 24 22 L 8 22 Z M 8 24 L 12 24 L 12 28 L 10 28 C 8.890625 28 8 27.109375 8 26 Z M 14 24 L 18 24 L 18 28 L 14 28 Z M 20 24 L 24 24 L 24 26 C 24 27.109375 23.109375 28 22 28 L 20 28 Z M 20 24 "/>
</g>
</svg>
