<?xml version="1.0" encoding="UTF-8"?>
<svg xmlns="http://www.w3.org/2000/svg" xmlns:xlink="http://www.w3.org/1999/xlink" width="32" height="32" viewBox="0 0 32 32" version="1.1">
<g id="surface1">
<path style=" stroke:none;fill-rule:nonzero;fill:rgb(100%,100%,100%);fill-opacity:1;" d="M 6.667969 2.667969 L 20 2.667969 L 26.277344 8.941406 C 26.527344 9.191406 26.667969 9.53125 26.667969 9.886719 L 26.667969 28 C 26.667969 28.738281 26.070312 29.332031 25.332031 29.332031 L 6.667969 29.332031 C 5.929688 29.332031 5.332031 28.738281 5.332031 28 L 5.332031 4 C 5.332031 3.261719 5.929688 2.667969 6.667969 2.667969 Z M 17.332031 24 L 17.332031 13.332031 L 10.667969 13.332031 L 10.667969 16 L 14.667969 16 L 14.667969 24 Z M 10.667969 17.332031 L 10.667969 20 L 13.332031 20 L 13.332031 17.332031 Z M 18.667969 17.332031 L 18.667969 20 L 21.332031 20 L 21.332031 17.332031 Z M 18.667969 13.332031 L 18.667969 16 L 21.332031 16 L 21.332031 13.332031 Z M 10.667969 21.332031 L 10.667969 24 L 13.332031 24 L 13.332031 21.332031 Z M 18.667969 21.332031 L 18.667969 24 L 21.332031 24 L 21.332031 21.332031 Z M 18.667969 21.332031 "/>
</g>
</svg>
