<?xml version="1.0" encoding="UTF-8"?>
<svg xmlns="http://www.w3.org/2000/svg" xmlns:xlink="http://www.w3.org/1999/xlink" width="32" height="32" viewBox="0 0 32 32" version="1.1">
<g id="surface1">
<path style=" stroke:none;fill-rule:nonzero;fill:rgb(100%,100%,100%);fill-opacity:1;" d="M 4.273438 1.503906 C 3.867188 1.492188 3.472656 1.652344 3.1875 1.941406 C 2.621094 2.515625 2.621094 3.441406 3.1875 4.015625 L 5.160156 5.988281 C 5.734375 6.558594 6.65625 6.558594 7.230469 5.988281 C 7.507812 5.710938 7.664062 5.335938 7.664062 4.941406 C 7.664062 4.550781 7.507812 4.175781 7.230469 3.898438 L 5.273438 1.941406 C 5.007812 1.671875 4.652344 1.515625 4.273438 1.503906 Z M 27.820312 1.867188 C 27.414062 1.855469 27.019531 2.011719 26.734375 2.300781 L 24.765625 4.261719 C 24.488281 4.539062 24.332031 4.914062 24.332031 5.304688 C 24.332031 5.699219 24.488281 6.074219 24.765625 6.351562 C 25.042969 6.628906 25.417969 6.785156 25.804688 6.785156 C 26.195312 6.785156 26.570312 6.628906 26.847656 6.351562 L 28.804688 4.390625 C 29.082031 4.113281 29.238281 3.738281 29.238281 3.34375 C 29.238281 2.953125 29.082031 2.578125 28.804688 2.300781 C 28.542969 2.035156 28.191406 1.882812 27.820312 1.867188 Z M 8.433594 5.988281 C 7.734375 5.988281 7.128906 6.484375 6.992188 7.171875 L 3.875 21.996094 L 3.394531 21.996094 C 3.003906 21.996094 2.625 22.148438 2.347656 22.429688 C 2.070312 22.707031 1.917969 23.082031 1.917969 23.476562 L 1.917969 28.523438 C 1.917969 28.917969 2.070312 29.292969 2.347656 29.570312 C 2.625 29.851562 3.003906 30.003906 3.394531 30.003906 L 28.613281 30.003906 C 29.425781 30 30.082031 29.335938 30.078125 28.523438 L 30.078125 23.476562 C 30.082031 22.664062 29.425781 22 28.613281 21.996094 L 28.117188 21.996094 L 25 7.171875 C 24.863281 6.484375 24.261719 5.992188 23.5625 5.988281 Z M 1.855469 7.683594 C 1.355469 7.710938 0.902344 7.988281 0.65625 8.425781 C 0.460938 8.765625 0.40625 9.167969 0.507812 9.542969 C 0.605469 9.921875 0.855469 10.246094 1.191406 10.441406 L 3.59375 11.820312 C 4.296875 12.230469 5.199219 11.988281 5.605469 11.285156 C 6.003906 10.582031 5.757812 9.683594 5.058594 9.28125 L 2.667969 7.886719 C 2.421875 7.742188 2.140625 7.671875 1.855469 7.683594 Z M 30.039062 7.96875 C 30.007812 7.96875 29.980469 7.972656 29.949219 7.976562 C 29.734375 8 29.527344 8.066406 29.339844 8.179688 L 26.9375 9.558594 C 26.597656 9.753906 26.351562 10.078125 26.25 10.453125 C 26.148438 10.832031 26.203125 11.234375 26.398438 11.574219 C 26.59375 11.914062 26.917969 12.160156 27.296875 12.261719 C 27.671875 12.363281 28.074219 12.308594 28.414062 12.109375 L 30.800781 10.730469 C 31.140625 10.535156 31.390625 10.214844 31.496094 9.835938 C 31.597656 9.460938 31.546875 9.054688 31.351562 8.714844 C 31.085938 8.242188 30.582031 7.957031 30.039062 7.96875 Z M 9.625 8.9375 L 22.371094 8.9375 L 25.113281 21.996094 L 12.054688 21.996094 L 13.609375 12.679688 C 13.695312 12.144531 13.335938 11.640625 12.800781 11.550781 C 12.730469 11.539062 12.660156 11.53125 12.589844 11.535156 C 12.128906 11.558594 11.746094 11.898438 11.671875 12.355469 L 10.0625 21.996094 L 6.882812 21.996094 Z M 9.625 8.9375 "/>
</g>
</svg>
