<?xml version="1.0" encoding="UTF-8"?>
<svg xmlns="http://www.w3.org/2000/svg" xmlns:xlink="http://www.w3.org/1999/xlink" width="32" height="32" viewBox="0 0 32 32" version="1.1">
<g id="surface1">
<path style=" stroke:none;fill-rule:nonzero;fill:rgb(100%,100%,100%);fill-opacity:1;" d="M 8.480469 6.011719 C 7.785156 6.011719 7.1875 6.507812 7.050781 7.191406 L 3.953125 22.003906 L 3.472656 22.003906 C 3.082031 22.003906 2.707031 22.15625 2.433594 22.4375 C 2.15625 22.714844 2.003906 23.089844 2.003906 23.484375 L 2.003906 28.527344 C 2.003906 28.921875 2.15625 29.296875 2.433594 29.574219 C 2.707031 29.855469 3.082031 30.007812 3.472656 30.007812 L 28.546875 30.007812 C 29.355469 30.003906 30.003906 29.339844 30 28.527344 L 30 23.484375 C 30.003906 22.671875 29.355469 22.007812 28.546875 22.003906 L 28.054688 22.003906 L 24.953125 7.191406 C 24.816406 6.507812 24.21875 6.011719 23.523438 6.011719 Z M 9.664062 8.957031 L 22.339844 8.957031 L 25.066406 22.003906 L 12.082031 22.003906 L 13.625 12.695312 C 13.710938 12.160156 13.355469 11.65625 12.824219 11.566406 C 12.753906 11.554688 12.683594 11.550781 12.613281 11.554688 C 12.15625 11.578125 11.777344 11.921875 11.703125 12.375 L 10.101562 22.003906 L 6.941406 22.003906 Z M 9.664062 8.957031 "/>
</g>
</svg>
