<?xml version="1.0" encoding="UTF-8"?>
<svg xmlns="http://www.w3.org/2000/svg" xmlns:xlink="http://www.w3.org/1999/xlink" width="32" height="32" viewBox="0 0 32 32" version="1.1">
<g id="surface1">
<path style=" stroke:none;fill-rule:nonzero;fill:rgb(100%,100%,100%);fill-opacity:1;" d="M 10.382812 23.257812 C 10.179688 23.402344 9.914062 23.421875 9.691406 23.304688 C 9.472656 23.191406 9.332031 22.960938 9.332031 22.714844 L 9.332031 9.285156 C 9.332031 9.039062 9.472656 8.808594 9.691406 8.695312 C 9.914062 8.578125 10.179688 8.597656 10.382812 8.742188 L 19.894531 15.457031 C 20.070312 15.582031 20.175781 15.785156 20.175781 16 C 20.175781 16.214844 20.070312 16.417969 19.894531 16.542969 Z M 21.332031 9.332031 C 21.332031 8.597656 21.929688 8 22.667969 8 C 23.402344 8 24 8.597656 24 9.332031 L 24 22.667969 C 24 23.402344 23.402344 24 22.667969 24 C 21.929688 24 21.332031 23.402344 21.332031 22.667969 Z M 21.332031 9.332031 "/>
</g>
</svg>
