<?xml version="1.0" encoding="UTF-8"?>
<svg xmlns="http://www.w3.org/2000/svg" xmlns:xlink="http://www.w3.org/1999/xlink" width="32" height="32" viewBox="0 0 32 32" version="1.1">
<g id="surface1">
<path style=" stroke:none;fill-rule:nonzero;fill:rgb(100%,100%,100%);fill-opacity:1;" d="M 9.332031 8 C 10.070312 8 10.667969 8.597656 10.667969 9.332031 L 10.667969 22.667969 C 10.667969 23.402344 10.070312 24 9.332031 24 C 8.597656 24 8 23.402344 8 22.667969 L 8 9.332031 C 8 8.597656 8.597656 8 9.332031 8 Z M 20 18.851562 L 20 13.148438 L 15.957031 16 Z M 12.105469 16.542969 C 11.929688 16.417969 11.824219 16.214844 11.824219 16 C 11.824219 15.785156 11.929688 15.582031 12.105469 15.457031 L 21.617188 8.742188 C 21.820312 8.597656 22.085938 8.578125 22.308594 8.695312 C 22.527344 8.808594 22.667969 9.039062 22.667969 9.285156 L 22.667969 22.714844 C 22.667969 22.960938 22.527344 23.191406 22.308594 23.304688 C 22.085938 23.421875 21.820312 23.402344 21.617188 23.257812 Z M 12.105469 16.542969 "/>
</g>
</svg>
