<?xml version="1.0" encoding="UTF-8"?>
<svg xmlns="http://www.w3.org/2000/svg" xmlns:xlink="http://www.w3.org/1999/xlink" width="32" height="32" viewBox="0 0 32 32" version="1.1">
<g id="surface1">
<path style=" stroke:none;fill-rule:nonzero;fill:rgb(100%,100%,100%);fill-opacity:1;" d="M 17.339844 24.5625 C 17.902344 24.476562 18.480469 24.574219 18.988281 24.839844 C 20.667969 25.722656 22.726562 25.410156 24.070312 24.070312 C 25.410156 22.726562 25.722656 20.667969 24.839844 18.988281 C 24.574219 18.480469 24.476562 17.902344 24.5625 17.339844 C 24.992188 14.601562 24.085938 11.828125 22.128906 9.871094 C 20.171875 7.914062 17.398438 7.007812 14.660156 7.4375 C 14.097656 7.523438 13.519531 7.425781 13.011719 7.160156 C 11.332031 6.277344 9.273438 6.589844 7.929688 7.929688 C 6.589844 9.273438 6.277344 11.332031 7.160156 13.011719 C 7.425781 13.519531 7.523438 14.097656 7.4375 14.664062 C 7.007812 17.398438 7.914062 20.171875 9.871094 22.132812 C 11.828125 24.089844 14.601562 24.992188 17.339844 24.566406 Z M 16 27.332031 C 12.6875 27.332031 9.542969 25.886719 7.390625 23.371094 C 5.234375 20.855469 4.289062 17.523438 4.800781 14.253906 C 3.375 11.539062 3.878906 8.214844 6.046875 6.046875 C 8.214844 3.878906 11.539062 3.375 14.253906 4.800781 C 17.828125 4.242188 21.457031 5.425781 24.015625 7.984375 C 26.574219 10.542969 27.757812 14.171875 27.199219 17.746094 C 28.625 20.460938 28.121094 23.785156 25.953125 25.953125 C 23.785156 28.121094 20.460938 28.625 17.746094 27.199219 C 17.175781 27.289062 16.59375 27.332031 16 27.332031 Z M 16.070312 22.667969 C 12.332031 22.667969 10.667969 20.828125 10.667969 19.449219 C 10.667969 18.738281 11.1875 18.246094 11.902344 18.246094 C 13.503906 18.246094 13.085938 20.546875 16.070312 20.546875 C 17.59375 20.546875 18.4375 19.714844 18.4375 18.863281 C 18.4375 18.351562 18.1875 17.785156 17.179688 17.535156 L 13.863281 16.707031 C 11.1875 16.035156 10.703125 14.582031 10.703125 13.222656 C 10.703125 10.394531 13.355469 9.332031 15.851562 9.332031 C 18.148438 9.332031 20.863281 10.609375 20.863281 12.304688 C 20.863281 13.03125 20.222656 13.453125 19.511719 13.453125 C 18.148438 13.453125 18.398438 11.5625 15.644531 11.5625 C 14.28125 11.5625 13.515625 12.179688 13.515625 13.066406 C 13.515625 13.949219 14.589844 14.234375 15.519531 14.445312 L 17.96875 14.992188 C 20.652344 15.59375 21.332031 17.167969 21.332031 18.652344 C 21.332031 20.949219 19.566406 22.667969 16.019531 22.667969 Z M 16.070312 22.667969 "/>
</g>
</svg>
