<?xml version="1.0" encoding="UTF-8"?>
<svg xmlns="http://www.w3.org/2000/svg" xmlns:xlink="http://www.w3.org/1999/xlink" width="32" height="32" viewBox="0 0 32 32" version="1.1">
<g id="surface1">
<path style=" stroke:none;fill-rule:nonzero;fill:rgb(100%,100%,100%);fill-opacity:1;" d="M 17.332031 24 L 17.332031 26.667969 L 22.667969 26.667969 L 22.667969 29.332031 L 9.332031 29.332031 L 9.332031 26.667969 L 14.667969 26.667969 L 14.667969 24 L 4 24 C 3.261719 24 2.667969 23.402344 2.667969 22.667969 L 2.667969 5.332031 C 2.667969 4.597656 3.261719 4 4 4 L 28 4 C 28.738281 4 29.332031 4.597656 29.332031 5.332031 L 29.332031 22.667969 C 29.332031 23.402344 28.738281 24 28 24 Z M 5.332031 6.667969 L 5.332031 21.332031 L 26.667969 21.332031 L 26.667969 6.667969 Z M 13.332031 10 L 20 14 L 13.332031 18 Z M 13.332031 10 "/>
</g>
</svg>
