<?xml version="1.0" encoding="UTF-8"?>
<svg xmlns="http://www.w3.org/2000/svg" xmlns:xlink="http://www.w3.org/1999/xlink" width="32" height="32" viewBox="0 0 32 32" version="1.1">
<g id="surface1">
<path style=" stroke:none;fill-rule:nonzero;fill:rgb(100%,100%,100%);fill-opacity:1;" d="M 9.332031 5.332031 L 9.332031 26.667969 L 22.667969 26.667969 L 22.667969 5.332031 Z M 8 2.667969 L 24 2.667969 C 24.738281 2.667969 25.332031 3.261719 25.332031 4 L 25.332031 28 C 25.332031 28.738281 24.738281 29.332031 24 29.332031 L 8 29.332031 C 7.261719 29.332031 6.667969 28.738281 6.667969 28 L 6.667969 4 C 6.667969 3.261719 7.261719 2.667969 8 2.667969 Z M 16 22.667969 C 16.738281 22.667969 17.332031 23.261719 17.332031 24 C 17.332031 24.738281 16.738281 25.332031 16 25.332031 C 15.261719 25.332031 14.667969 24.738281 14.667969 24 C 14.667969 23.261719 15.261719 22.667969 16 22.667969 Z M 16 22.667969 "/>
</g>
</svg>
