<?xml version="1.0" encoding="UTF-8"?>
<svg xmlns="http://www.w3.org/2000/svg" xmlns:xlink="http://www.w3.org/1999/xlink" width="32" height="32" viewBox="0 0 32 32" version="1.1">
<g id="surface1">
<path style=" stroke:none;fill-rule:nonzero;fill:rgb(100%,100%,100%);fill-opacity:1;" d="M 20.527344 14.105469 L 20.554688 13.773438 C 20.628906 12.742188 20.664062 11.707031 20.664062 10.671875 C 20.664062 9.511719 20.273438 8.691406 19.445312 7.921875 C 18.566406 7.105469 17.5 6.667969 15.992188 6.667969 C 14.476562 6.667969 13.382812 7.113281 12.648438 7.851562 C 11.71875 8.777344 11.371094 9.476562 11.371094 10.652344 C 11.371094 11.34375 11.449219 13.308594 11.496094 14.140625 C 11.535156 14.820312 11.3125 15.492188 10.871094 16.011719 C 10.945312 16.140625 11.011719 16.28125 11.074219 16.433594 C 11.476562 17.460938 11.339844 18.492188 10.875 19.460938 C 10.351562 20.550781 9.898438 21.320312 8.992188 22.332031 C 8.722656 22.636719 8.4375 22.921875 8.136719 23.191406 C 8.363281 23.40625 8.550781 23.664062 8.6875 23.945312 C 9.390625 23.882812 10.101562 23.914062 10.800781 24.042969 C 11.878906 24.238281 12.566406 24.621094 13.726562 25.457031 L 13.746094 25.472656 L 14.03125 25.675781 C 14.855469 26.261719 15.199219 26.402344 15.996094 26.402344 C 16.808594 26.402344 17.207031 26.242188 18.023438 25.667969 L 18.300781 25.472656 C 19.46875 24.628906 20.175781 24.234375 21.277344 24.039062 C 21.960938 23.921875 22.660156 23.890625 23.355469 23.9375 C 23.492188 23.65625 23.683594 23.398438 23.910156 23.183594 C 23.621094 22.921875 23.347656 22.648438 23.089844 22.363281 C 22.3125 21.496094 21.664062 20.527344 21.160156 19.480469 C 20.675781 18.484375 20.535156 17.429688 20.976562 16.386719 C 21.03125 16.257812 21.089844 16.132812 21.152344 16.019531 C 20.703125 15.488281 20.476562 14.800781 20.527344 14.105469 Z M 6.773438 13.96875 C 7.332031 13.96875 7.574219 14.378906 8.398438 14.378906 C 8.609375 14.378906 8.746094 14.332031 8.835938 14.289062 C 8.824219 14.082031 8.703125 11.640625 8.703125 10.652344 C 8.703125 8.398438 9.664062 7.0625 10.761719 5.964844 C 11.855469 4.867188 13.566406 4 15.996094 4 C 18.421875 4 20.082031 4.871094 21.265625 5.96875 C 22.445312 7.070312 23.332031 8.542969 23.332031 10.675781 C 23.332031 12.746094 23.199219 14.132812 23.1875 14.296875 C 23.304688 14.355469 23.429688 14.386719 23.558594 14.382812 C 24.398438 14.382812 24.398438 13.96875 25.332031 13.96875 C 26.246094 13.96875 26.644531 14.730469 26.644531 15.066406 C 26.644531 15.894531 25.535156 16.355469 24.871094 16.566406 C 24.378906 16.722656 23.628906 16.957031 23.4375 17.414062 C 23.339844 17.648438 23.378906 17.949219 23.558594 18.320312 C 23.5625 18.328125 25.238281 22.164062 28.800781 22.753906 C 29.113281 22.800781 29.320312 23.074219 29.320312 23.398438 C 29.320312 23.839844 28.828125 24.21875 28.351562 24.441406 C 27.761719 24.707031 26.898438 24.933594 25.75 25.113281 C 25.691406 25.21875 25.570312 25.761719 25.4375 26.296875 C 25.257812 27.019531 24.371094 26.785156 24.117188 26.730469 C 23.328125 26.566406 22.515625 26.542969 21.722656 26.667969 C 21.078125 26.78125 20.503906 27.171875 19.863281 27.632812 C 18.910156 28.308594 17.90625 29.070312 15.996094 29.070312 C 14.078125 29.070312 13.136719 28.308594 12.183594 27.632812 C 11.542969 27.171875 10.980469 26.785156 10.324219 26.667969 C 9.125 26.449219 8.230469 26.714844 7.929688 26.742188 C 7.628906 26.769531 6.808594 27.066406 6.601562 26.308594 C 6.542969 26.085938 6.347656 25.230469 6.289062 25.113281 C 5.148438 24.933594 4.277344 24.695312 3.6875 24.429688 C 3.199219 24.210938 2.71875 23.839844 2.71875 23.390625 C 2.71875 23.078125 2.929688 22.804688 3.238281 22.746094 C 6.765625 22.105469 8.261719 18.742188 8.46875 18.308594 C 8.644531 17.941406 8.683594 17.640625 8.589844 17.402344 C 8.398438 16.945312 7.652344 16.71875 7.160156 16.554688 C 7.019531 16.511719 5.378906 16.058594 5.378906 15.066406 C 5.378906 14.746094 5.652344 14.300781 6.15625 14.09375 C 6.351562 14.015625 6.5625 13.976562 6.773438 13.96875 Z M 6.773438 13.96875 "/>
</g>
</svg>
