<?xml version="1.0" encoding="UTF-8"?>
<svg xmlns="http://www.w3.org/2000/svg" xmlns:xlink="http://www.w3.org/1999/xlink" width="32" height="32" viewBox="0 0 32 32" version="1.1">
<g id="surface1">
<path style=" stroke:none;fill-rule:nonzero;fill:rgb(100%,100%,100%);fill-opacity:1;" d="M 10 32 L 6 24 L 8 24 L 8 0 L 12 0 L 12 24 L 14 24 Z M 10 32 "/>
<path style=" stroke:none;fill-rule:nonzero;fill:rgb(100%,100%,100%);fill-opacity:1;" d="M 16.710938 28.515625 L 19.453125 28.226562 C 19.582031 29.265625 20.113281 29.785156 21.046875 29.785156 C 21.679688 29.785156 22.195312 29.527344 22.59375 29.011719 C 22.996094 28.488281 23.253906 27.433594 23.371094 25.851562 C 23.015625 26.238281 22.621094 26.53125 22.179688 26.730469 C 21.734375 26.925781 21.246094 27.023438 20.703125 27.023438 C 19.582031 27.023438 18.585938 26.609375 17.71875 25.773438 C 16.859375 24.941406 16.429688 23.832031 16.429688 22.449219 C 16.429688 20.972656 16.882812 19.8125 17.792969 18.964844 C 18.703125 18.117188 19.824219 17.695312 21.160156 17.695312 C 22.648438 17.695312 23.878906 18.242188 24.84375 19.335938 C 25.808594 20.425781 26.292969 22.234375 26.292969 24.761719 C 26.292969 27.332031 25.789062 29.183594 24.78125 30.308594 C 23.773438 31.4375 22.46875 32 20.863281 32 C 19.75 32 18.828125 31.714844 18.101562 31.148438 C 17.378906 30.578125 16.917969 29.699219 16.710938 28.515625 Z M 23.125 22.652344 C 23.125 21.773438 22.910156 21.097656 22.484375 20.625 C 22.058594 20.15625 21.578125 19.917969 21.035156 19.917969 C 20.511719 19.917969 20.074219 20.113281 19.722656 20.503906 C 19.378906 20.890625 19.207031 21.535156 19.207031 22.441406 C 19.207031 23.34375 19.394531 24.007812 19.769531 24.425781 C 20.15625 24.847656 20.625 25.058594 21.183594 25.058594 C 21.714844 25.058594 22.167969 24.855469 22.546875 24.457031 C 22.929688 24.054688 23.125 23.453125 23.125 22.652344 Z M 23.125 22.652344 "/>
<path style=" stroke:none;fill-rule:nonzero;fill:rgb(100%,100%,100%);fill-opacity:1;" d="M 21.410156 1.695312 C 22.816406 1.695312 23.953125 2.226562 24.824219 3.289062 C 25.691406 4.347656 26.125 6.199219 26.125 8.847656 C 26.125 11.488281 25.691406 13.34375 24.824219 14.40625 C 23.953125 15.460938 22.820312 15.992188 21.421875 15.992188 C 20.015625 15.992188 18.878906 15.464844 18.007812 14.414062 C 17.140625 13.363281 16.707031 11.5 16.707031 8.820312 C 16.707031 6.1875 17.140625 4.347656 18.007812 3.289062 C 18.878906 2.226562 20.011719 1.695312 21.410156 1.695312 Z M 21.410156 3.917969 C 20.863281 3.917969 20.425781 4.207031 20.09375 4.777344 C 19.773438 5.351562 19.613281 6.707031 19.613281 8.847656 C 19.613281 10.988281 19.773438 12.34375 20.09375 12.914062 C 20.425781 13.480469 20.863281 13.765625 21.410156 13.765625 C 21.964844 13.765625 22.402344 13.480469 22.722656 12.90625 C 23.046875 12.332031 23.207031 10.980469 23.207031 8.847656 C 23.207031 6.707031 23.046875 5.351562 22.722656 4.777344 C 22.402344 4.207031 21.964844 3.917969 21.410156 3.917969 Z M 21.410156 3.917969 "/>
</g>
</svg>
