<?xml version="1.0" encoding="UTF-8"?>
<svg xmlns="http://www.w3.org/2000/svg" xmlns:xlink="http://www.w3.org/1999/xlink" width="32" height="32" viewBox="0 0 32 32" version="1.1">
<g id="surface1">
<path style=" stroke:none;fill-rule:nonzero;fill:rgb(100%,100%,100%);fill-opacity:1;" d="M 10 32 L 6 24 L 8 24 L 8 0 L 12 0 L 12 24 L 14 24 Z M 10 32 "/>
<path style=" stroke:none;fill-rule:nonzero;fill:rgb(100%,100%,100%);fill-opacity:1;" d="M 16 30 L 16 27.449219 L 23.761719 18.367188 L 16.871094 18.367188 L 16.871094 16 L 27.679688 16 L 27.679688 18.195312 L 19.597656 27.640625 L 28 27.640625 L 28 30 Z M 16 30 "/>
<path style=" stroke:none;fill-rule:nonzero;fill:rgb(100%,100%,100%);fill-opacity:1;" d="M 28 14 L 25.375 14 L 24.328125 10.820312 L 19.550781 10.820312 L 18.566406 14 L 16 14 L 20.65625 0 L 23.214844 0 Z M 23.550781 8.460938 L 21.910156 3.265625 L 20.289062 8.460938 Z M 23.550781 8.460938 "/>
</g>
</svg>
