<?xml version="1.0" encoding="UTF-8"?>
<svg xmlns="http://www.w3.org/2000/svg" xmlns:xlink="http://www.w3.org/1999/xlink" width="32" height="32" viewBox="0 0 32 32" version="1.1">
<g id="surface1">
<path style=" stroke:none;fill-rule:nonzero;fill:rgb(100%,100%,100%);fill-opacity:1;" d="M 28 24 L 28 28 L 25.332031 28 L 25.332031 24 L 22.667969 24 L 22.667969 21.332031 L 30.667969 21.332031 L 30.667969 24 Z M 6.667969 24 L 6.667969 28 L 4 28 L 4 24 L 1.332031 24 L 1.332031 21.332031 L 9.332031 21.332031 L 9.332031 24 Z M 14.667969 8 L 14.667969 4 L 17.332031 4 L 17.332031 8 L 20 8 L 20 10.667969 L 12 10.667969 L 12 8 Z M 14.667969 13.332031 L 17.332031 13.332031 L 17.332031 28 L 14.667969 28 Z M 4 18.667969 L 4 4 L 6.667969 4 L 6.667969 18.667969 Z M 25.332031 18.667969 L 25.332031 4 L 28 4 L 28 18.667969 Z M 25.332031 18.667969 "/>
</g>
</svg>
