<?xml version="1.0" encoding="UTF-8"?>
<svg xmlns="http://www.w3.org/2000/svg" xmlns:xlink="http://www.w3.org/1999/xlink" width="32" height="32" viewBox="0 0 32 32" version="1.1">
<g id="surface1">
<path style=" stroke:none;fill-rule:evenodd;fill:rgb(100%,100%,100%);fill-opacity:1;" d="M 27.101562 4.664062 C 26.707031 4.292969 26.085938 4.296875 25.703125 4.683594 C 25.65625 4.730469 25.613281 4.78125 25.582031 4.835938 C 25.316406 5.234375 25.363281 5.761719 25.703125 6.097656 C 28.328125 8.726562 29.804688 12.289062 29.804688 16.003906 C 29.804688 19.71875 28.320312 23.277344 25.691406 25.902344 C 25.304688 26.292969 25.300781 26.925781 25.691406 27.316406 C 26.082031 27.707031 26.714844 27.707031 27.105469 27.316406 C 30.109375 24.316406 31.804688 20.242188 31.804688 16 C 31.804688 11.753906 30.117188 7.683594 27.117188 4.683594 C 27.109375 4.675781 27.101562 4.671875 27.09375 4.664062 Z M 24.269531 7.496094 C 23.875 7.125 23.257812 7.132812 22.875 7.515625 C 22.828125 7.558594 22.792969 7.605469 22.765625 7.660156 C 22.488281 8.058594 22.539062 8.59375 22.878906 8.9375 C 24.757812 10.8125 25.800781 13.355469 25.800781 16.011719 C 25.800781 18.664062 24.75 21.207031 22.875 23.082031 C 22.496094 23.472656 22.496094 24.089844 22.871094 24.480469 C 23.257812 24.867188 23.882812 24.875 24.277344 24.492188 C 26.527344 22.242188 27.800781 19.1875 27.800781 16.003906 C 27.800781 12.820312 26.542969 9.769531 24.292969 7.519531 C 24.285156 7.511719 24.277344 7.507812 24.277344 7.5 Z M 21.421875 10.320312 C 21.03125 9.949219 20.410156 9.957031 20.027344 10.339844 C 19.984375 10.382812 19.949219 10.429688 19.921875 10.484375 C 19.644531 10.878906 19.691406 11.417969 20.035156 11.757812 C 21.160156 12.886719 21.796875 14.40625 21.796875 16 C 21.796875 17.589844 21.171875 19.113281 20.046875 20.238281 C 19.65625 20.628906 19.65625 21.265625 20.050781 21.65625 C 20.441406 22.035156 21.0625 22.03125 21.449219 21.648438 C 22.949219 20.148438 23.796875 18.113281 23.796875 15.992188 C 23.796875 13.871094 22.949219 11.84375 21.449219 10.34375 C 21.441406 10.335938 21.433594 10.332031 21.433594 10.320312 Z M 21.421875 10.320312 "/>
<path style=" stroke:none;fill-rule:nonzero;fill:rgb(100%,100%,100%);fill-opacity:1;" d="M 0.195312 11 L 0.195312 21 L 6.195312 21 L 14.195312 29 C 18.867188 20.332031 19.878906 11.667969 14.195312 3 L 6.195312 11 Z M 0.195312 11 "/>
</g>
</svg>
