<?xml version="1.0" encoding="UTF-8"?>
<svg xmlns="http://www.w3.org/2000/svg" xmlns:xlink="http://www.w3.org/1999/xlink" width="32" height="32" viewBox="0 0 32 32" version="1.1">
<g id="surface1">
<path style=" stroke:none;fill-rule:nonzero;fill:rgb(100%,100%,100%);fill-opacity:1;" d="M 15.980469 2.996094 C 15.957031 2.996094 15.929688 2.996094 15.90625 3 C 15.472656 3.019531 15.101562 3.320312 14.988281 3.738281 L 9.820312 22.707031 L 5.777344 11.664062 C 5.648438 11.308594 5.328125 11.058594 4.953125 11.015625 C 4.578125 10.972656 4.210938 11.140625 4.003906 11.457031 L 0.195312 17.421875 C -0.0976562 17.882812 0.03125 18.496094 0.492188 18.796875 C 0.714844 18.941406 0.988281 18.992188 1.246094 18.9375 C 1.507812 18.882812 1.734375 18.722656 1.878906 18.5 L 4.597656 14.25 L 9.023438 26.339844 C 9.171875 26.75 9.566406 27.019531 10.003906 27 C 10.441406 26.984375 10.816406 26.6875 10.929688 26.265625 L 15.917969 7.957031 L 20.984375 28.246094 C 21.09375 28.675781 21.472656 28.984375 21.914062 29 C 22.359375 29.019531 22.761719 28.742188 22.902344 28.320312 L 27.683594 13.992188 C 27.777344 13.996094 27.867188 14 27.960938 14 C 30.171875 14 31.960938 12.210938 31.960938 10 C 31.960938 7.789062 30.171875 6 27.960938 6 C 25.75 6 23.960938 7.789062 23.960938 10 C 23.960938 11.355469 24.648438 12.617188 25.785156 13.355469 L 22.089844 24.421875 L 16.921875 3.765625 C 16.816406 3.324219 16.433594 3.011719 15.980469 2.996094 Z M 15.980469 2.996094 "/>
</g>
</svg>
