<?xml version="1.0" encoding="UTF-8"?>
<svg xmlns="http://www.w3.org/2000/svg" xmlns:xlink="http://www.w3.org/1999/xlink" width="32" height="32" viewBox="0 0 32 32" version="1.1">
<g id="surface1">
<path style=" stroke:none;fill-rule:nonzero;fill:rgb(100%,100%,100%);fill-opacity:1;" d="M 17.601562 2.675781 C 28.320312 2.789062 29.332031 4.332031 29.332031 16 L 29.324219 17.601562 C 29.210938 28.320312 27.667969 29.332031 16 29.332031 L 14.398438 29.324219 C 4.1875 29.214844 2.785156 27.8125 2.675781 17.597656 L 2.667969 15.589844 L 2.675781 14.402344 C 2.789062 3.933594 4.261719 2.722656 15.183594 2.667969 L 17.597656 2.675781 Z M 11 9.332031 L 10.222656 9.332031 C 9.78125 9.332031 9.40625 9.65625 9.34375 10.089844 L 9.332031 10.222656 L 9.332031 15.109375 C 9.332031 15.558594 9.664062 15.925781 10.089844 15.992188 L 10.222656 16 L 11 16 C 13.65625 16 15.851562 18.078125 15.992188 20.734375 L 16 21 L 16 21.777344 C 16 22.222656 16.328125 22.59375 16.757812 22.65625 L 16.890625 22.667969 L 21.777344 22.667969 C 22.21875 22.667969 22.59375 22.34375 22.65625 21.910156 L 22.667969 21.777344 L 22.667969 21 C 22.667969 14.691406 17.652344 9.523438 11.34375 9.339844 Z M 11 9.332031 "/>
</g>
</svg>
