<?xml version="1.0" encoding="UTF-8"?>
<svg xmlns="http://www.w3.org/2000/svg" xmlns:xlink="http://www.w3.org/1999/xlink" width="32" height="32" viewBox="0 0 32 32" version="1.1">
<g id="surface1">
<path style=" stroke:none;fill-rule:nonzero;fill:rgb(100%,100%,100%);fill-opacity:1;" d="M 22.667969 17.332031 C 25.613281 17.332031 28 19.722656 28 22.667969 C 28 25.613281 25.613281 28 22.667969 28 C 19.8125 28 17.332031 25.613281 17.332031 22.667969 L 14.667969 22.667969 C 14.664062 25.34375 12.679688 27.605469 10.027344 27.953125 C 7.375 28.300781 4.871094 26.628906 4.179688 24.042969 C 3.488281 21.457031 4.820312 18.757812 7.292969 17.738281 C 9.769531 16.714844 12.617188 17.679688 13.953125 20 L 18.046875 20 C 19 18.347656 20.761719 17.332031 22.667969 17.332031 Z M 2.667969 16 L 2.667969 13.332031 L 5.332031 13.332031 L 5.332031 9.332031 C 5.332031 6.386719 7.722656 4 10.667969 4 L 21.332031 4 C 24.277344 4 26.667969 6.386719 26.667969 9.332031 L 26.667969 13.332031 L 29.332031 13.332031 L 29.332031 16 Z M 2.667969 16 "/>
</g>
</svg>
