<?xml version="1.0" encoding="UTF-8"?>
<svg xmlns="http://www.w3.org/2000/svg" xmlns:xlink="http://www.w3.org/1999/xlink" width="32" height="32" viewBox="0 0 32 32" version="1.1">
<g id="surface1">
<path style=" stroke:none;fill-rule:nonzero;fill:rgb(100%,100%,100%);fill-opacity:1;" d="M 28 4 C 28.734375 4 29.332031 4.597656 29.332031 5.332031 L 29.332031 26.667969 C 29.332031 27.402344 28.734375 28 28 28 L 4 28 C 3.265625 28 2.667969 27.402344 2.667969 26.667969 L 2.667969 5.332031 C 2.667969 4.597656 3.265625 4 4 4 Z M 22.390625 7.496094 C 21.042969 7.496094 19.902344 8.394531 19.546875 9.628906 L 16.882812 9.628906 L 13.601562 15.207031 L 11.683594 15.207031 C 11.328125 13.976562 10.1875 13.074219 8.839844 13.074219 C 7.207031 13.074219 5.878906 14.398438 5.878906 16.035156 C 5.878906 17.671875 7.207031 18.996094 8.839844 18.996094 C 10.1875 18.996094 11.328125 18.097656 11.683594 16.863281 L 13.644531 16.863281 L 16.867188 22.375 L 19.558594 22.375 C 19.914062 23.609375 21.054688 24.507812 22.402344 24.507812 C 24.039062 24.507812 25.363281 23.183594 25.363281 21.546875 C 25.363281 19.910156 24.039062 18.585938 22.402344 18.585938 C 21.054688 18.585938 19.914062 19.484375 19.558594 20.71875 L 17.800781 20.71875 L 15.0625 16.003906 L 17.796875 11.285156 L 19.546875 11.285156 C 19.90625 12.519531 21.042969 13.417969 22.390625 13.417969 C 24.023438 13.417969 25.351562 12.09375 25.351562 10.457031 C 25.351562 8.820312 24.023438 7.496094 22.390625 7.496094 Z M 22.402344 20.0625 C 23.261719 20.0625 23.960938 20.761719 23.960938 21.621094 C 23.960938 22.480469 23.261719 23.175781 22.402344 23.175781 C 21.648438 23.175781 21.019531 22.636719 20.878906 21.925781 C 20.878906 21.925781 20.835938 21.621094 20.878906 21.320312 C 21.019531 20.605469 21.648438 20.066406 22.402344 20.066406 Z M 8.867188 14.449219 C 9.726562 14.449219 10.425781 15.148438 10.425781 16.007812 C 10.425781 16.867188 9.726562 17.5625 8.867188 17.5625 C 8.007812 17.5625 7.3125 16.867188 7.3125 16.007812 C 7.3125 15.148438 8.007812 14.453125 8.867188 14.453125 Z M 22.402344 8.839844 C 23.261719 8.839844 23.957031 9.535156 23.957031 10.394531 C 23.957031 11.253906 23.261719 11.953125 22.402344 11.953125 C 21.648438 11.953125 21.015625 11.410156 20.875 10.699219 C 20.839844 10.421875 20.875 10.101562 20.875 10.101562 C 21.015625 9.378906 21.648438 8.839844 22.402344 8.839844 Z M 22.402344 8.839844 "/>
</g>
</svg>
