<?xml version="1.0" encoding="UTF-8"?>
<svg xmlns="http://www.w3.org/2000/svg" xmlns:xlink="http://www.w3.org/1999/xlink" width="32" height="32" viewBox="0 0 32 32" version="1.1">
<g id="surface1">
<path style=" stroke:none;fill-rule:evenodd;fill:rgb(100%,100%,100%);fill-opacity:1;" d="M 2.578125 11.164062 C 2.160156 11.335938 1.550781 11.566406 1.261719 12.445312 C 0.972656 13.324219 1.324219 13.882812 1.558594 14.269531 C 1.796875 14.65625 2.0625 14.964844 2.378906 15.300781 C 3.007812 15.964844 3.820312 16.660156 4.625 17.355469 C 5.433594 18.046875 6.25 18.730469 6.855469 19.277344 C 7.15625 19.550781 7.40625 19.785156 7.5625 19.949219 C 7.714844 20.117188 7.738281 20.304688 7.632812 19.972656 C 7.523438 19.640625 7.605469 19.804688 7.578125 20.027344 C 7.554688 20.253906 7.488281 20.59375 7.402344 20.992188 C 7.230469 21.792969 6.972656 22.820312 6.71875 23.855469 C 6.46875 24.886719 6.226562 25.921875 6.105469 26.832031 C 6.042969 27.289062 6.003906 27.703125 6.039062 28.15625 C 6.074219 28.605469 6.09375 29.25 6.84375 29.796875 C 7.589844 30.34375 8.21875 30.171875 8.660156 30.066406 C 9.101562 29.964844 9.480469 29.808594 9.898438 29.609375 C 10.726562 29.214844 11.640625 28.667969 12.546875 28.113281 C 13.457031 27.558594 14.359375 26.992188 15.070312 26.585938 C 15.421875 26.378906 15.730469 26.214844 15.9375 26.121094 C 16.140625 26.027344 16.316406 26.0625 15.964844 26.0625 C 15.617188 26.0625 15.792969 26.035156 15.996094 26.132812 C 16.203125 26.226562 16.523438 26.382812 16.875 26.589844 C 17.582031 27 18.472656 27.574219 19.375 28.132812 C 20.28125 28.691406 21.183594 29.238281 22.011719 29.636719 C 22.425781 29.835938 22.804688 30.003906 23.246094 30.109375 C 23.683594 30.21875 24.324219 30.386719 25.074219 29.84375 C 25.824219 29.300781 25.855469 28.648438 25.890625 28.199219 C 25.925781 27.75 25.886719 27.332031 25.828125 26.878906 C 25.707031 25.96875 25.476562 24.941406 25.226562 23.90625 C 24.980469 22.871094 24.726562 21.835938 24.558594 21.039062 C 24.472656 20.636719 24.410156 20.292969 24.386719 20.070312 C 24.359375 19.84375 24.4375 19.6875 24.332031 20.019531 C 24.222656 20.347656 24.253906 20.164062 24.40625 20 C 24.5625 19.832031 24.816406 19.59375 25.121094 19.320312 C 25.726562 18.773438 26.550781 18.09375 27.363281 17.40625 C 28.175781 16.71875 28.96875 16.03125 29.605469 15.367188 C 29.921875 15.035156 30.199219 14.714844 30.4375 14.328125 C 30.675781 13.945312 31.023438 13.40625 30.738281 12.527344 C 30.453125 11.644531 29.863281 11.414062 29.445312 11.238281 C 29.027344 11.066406 28.621094 10.96875 28.167969 10.886719 C 27.265625 10.71875 26.207031 10.621094 25.148438 10.539062 C 24.089844 10.453125 23.015625 10.382812 22.207031 10.296875 C 21.800781 10.253906 21.453125 10.207031 21.234375 10.160156 C 21.011719 10.117188 20.882812 9.988281 21.164062 10.191406 C 21.445312 10.398438 21.289062 10.308594 21.179688 10.109375 C 21.066406 9.914062 20.925781 9.601562 20.757812 9.226562 C 20.429688 8.480469 20.035156 7.492188 19.632812 6.507812 C 19.230469 5.523438 18.8125 4.546875 18.375 3.738281 C 18.160156 3.332031 17.945312 2.984375 17.652344 2.636719 C 17.363281 2.292969 16.953125 1.777344 16.027344 1.773438 C 15.101562 1.769531 14.695312 2.277344 14.398438 2.621094 C 14.105469 2.964844 13.890625 3.328125 13.671875 3.730469 C 13.234375 4.539062 12.8125 5.503906 12.402344 6.488281 C 11.996094 7.46875 11.601562 8.457031 11.269531 9.203125 C 11.101562 9.574219 10.941406 9.886719 10.832031 10.082031 C 10.71875 10.28125 10.566406 10.363281 10.847656 10.160156 C 11.132812 9.957031 10.992188 10.082031 10.769531 10.125 C 10.546875 10.171875 10.214844 10.214844 9.808594 10.257812 C 8.996094 10.339844 7.921875 10.414062 6.863281 10.492188 C 5.800781 10.570312 4.761719 10.660156 3.859375 10.820312 C 3.40625 10.902344 2.996094 10.992188 2.578125 11.164062 Z M 5.066406 13.703125 C 5.679688 13.621094 6.316406 13.535156 7.089844 13.476562 C 8.121094 13.402344 9.195312 13.339844 10.109375 13.246094 C 10.566406 13.199219 10.980469 13.144531 11.363281 13.066406 C 11.75 12.988281 12.082031 12.96875 12.605469 12.589844 C 13.128906 12.210938 13.242188 11.914062 13.433594 11.570312 C 13.628906 11.230469 13.8125 10.855469 14 10.433594 C 14.375 9.59375 14.769531 8.597656 15.167969 7.640625 C 15.464844 6.929688 15.746094 6.347656 16.015625 5.789062 C 16.28125 6.347656 16.554688 6.933594 16.847656 7.648438 C 17.238281 8.605469 17.632812 9.59375 18.007812 10.433594 C 18.191406 10.855469 18.367188 11.238281 18.5625 11.582031 C 18.753906 11.925781 18.878906 12.234375 19.398438 12.617188 C 19.921875 12.996094 20.25 13.007812 20.636719 13.089844 C 21.019531 13.167969 21.425781 13.230469 21.882812 13.28125 C 22.796875 13.378906 23.867188 13.441406 24.902344 13.523438 C 25.667969 13.582031 26.300781 13.675781 26.914062 13.761719 C 26.464844 14.1875 26.003906 14.621094 25.414062 15.117188 C 24.625 15.785156 23.804688 16.472656 23.121094 17.085938 C 22.777344 17.390625 22.460938 17.683594 22.195312 17.972656 C 21.929688 18.261719 21.679688 18.457031 21.480469 19.074219 C 21.277344 19.6875 21.359375 20.011719 21.402344 20.402344 C 21.445312 20.792969 21.519531 21.203125 21.613281 21.652344 C 21.804688 22.554688 22.074219 23.582031 22.316406 24.589844 C 22.496094 25.34375 22.613281 25.980469 22.722656 26.589844 C 22.179688 26.292969 21.613281 25.984375 20.953125 25.574219 C 20.070312 25.03125 19.167969 24.457031 18.371094 23.996094 C 17.972656 23.765625 17.609375 23.566406 17.25 23.402344 C 16.894531 23.238281 16.621094 23.050781 15.976562 23.050781 C 15.328125 23.046875 15.050781 23.230469 14.695312 23.394531 C 14.335938 23.554688 13.972656 23.757812 13.574219 23.984375 C 12.773438 24.441406 11.867188 25.007812 10.984375 25.546875 C 10.328125 25.949219 9.761719 26.257812 9.214844 26.550781 C 9.328125 25.945312 9.4375 25.3125 9.621094 24.566406 C 9.867188 23.558594 10.144531 22.523438 10.335938 21.625 C 10.433594 21.175781 10.515625 20.761719 10.558594 20.371094 C 10.605469 19.980469 10.683594 19.671875 10.484375 19.058594 C 10.285156 18.441406 10.03125 18.226562 9.765625 17.9375 C 9.5 17.648438 9.207031 17.351562 8.863281 17.042969 C 8.183594 16.425781 7.355469 15.75 6.570312 15.074219 C 5.980469 14.574219 5.511719 14.128906 5.066406 13.703125 Z M 5.066406 13.703125 "/>
</g>
</svg>
