<?xml version="1.0" encoding="UTF-8"?>
<svg xmlns="http://www.w3.org/2000/svg" xmlns:xlink="http://www.w3.org/1999/xlink" width="32" height="32" viewBox="0 0 32 32" version="1.1">
<g id="surface1">
<path style=" stroke:none;fill-rule:evenodd;fill:rgb(100%,100%,100%);fill-opacity:1;" d="M 16.027344 1.773438 C 15.101562 1.769531 14.691406 2.277344 14.398438 2.621094 C 14.105469 2.964844 13.890625 3.328125 13.671875 3.730469 C 13.234375 4.535156 12.808594 5.507812 12.402344 6.488281 C 11.996094 7.46875 11.605469 8.457031 11.269531 9.203125 C 11.101562 9.574219 10.945312 9.886719 10.832031 10.082031 C 10.824219 10.097656 10.816406 10.097656 10.808594 10.113281 C 10.996094 10.0625 11.105469 9.972656 10.847656 10.160156 C 10.589844 10.347656 10.703125 10.277344 10.808594 10.113281 C 10.792969 10.117188 10.789062 10.121094 10.769531 10.125 C 10.546875 10.167969 10.214844 10.214844 9.808594 10.257812 C 8.996094 10.339844 7.925781 10.414062 6.863281 10.492188 C 5.800781 10.570312 4.761719 10.65625 3.859375 10.820312 C 3.40625 10.902344 2.996094 10.992188 2.578125 11.164062 C 2.160156 11.335938 1.550781 11.566406 1.261719 12.445312 C 0.972656 13.324219 1.324219 13.882812 1.558594 14.269531 C 1.792969 14.65625 2.0625 14.96875 2.378906 15.300781 C 3.011719 15.96875 3.816406 16.664062 4.625 17.355469 C 5.433594 18.046875 6.25 18.730469 6.855469 19.277344 C 7.160156 19.550781 7.410156 19.78125 7.5625 19.949219 C 7.570312 19.960938 7.570312 19.960938 7.578125 19.972656 C 7.582031 19.792969 7.539062 19.679688 7.632812 19.972656 C 7.734375 20.285156 7.707031 20.128906 7.578125 19.972656 C 7.578125 19.996094 7.582031 20 7.578125 20.027344 C 7.550781 20.253906 7.488281 20.59375 7.402344 20.992188 C 7.230469 21.789062 6.972656 22.824219 6.71875 23.855469 C 6.464844 24.886719 6.230469 25.921875 6.105469 26.832031 C 6.042969 27.285156 6.003906 27.707031 6.039062 28.15625 C 6.074219 28.605469 6.097656 29.25 6.84375 29.796875 C 7.589844 30.34375 8.21875 30.171875 8.660156 30.066406 C 9.101562 29.960938 9.484375 29.804688 9.898438 29.609375 C 10.726562 29.214844 11.640625 28.667969 12.546875 28.113281 C 13.453125 27.558594 14.359375 26.992188 15.066406 26.585938 C 15.421875 26.382812 15.730469 26.214844 15.9375 26.121094 C 15.941406 26.117188 15.945312 26.121094 15.949219 26.117188 C 15.777344 26.054688 15.652344 26.0625 15.964844 26.0625 C 16.304688 26.0625 16.148438 26.03125 15.949219 26.117188 C 15.96875 26.125 15.972656 26.121094 15.996094 26.132812 C 16.203125 26.226562 16.523438 26.382812 16.875 26.589844 C 17.582031 27 18.46875 27.574219 19.375 28.132812 C 20.28125 28.691406 21.183594 29.238281 22.011719 29.636719 C 22.425781 29.835938 22.808594 30.003906 23.246094 30.109375 C 23.683594 30.214844 24.324219 30.386719 25.074219 29.84375 C 25.824219 29.300781 25.855469 28.648438 25.890625 28.199219 C 25.925781 27.75 25.886719 27.335938 25.828125 26.878906 C 25.710938 25.96875 25.472656 24.941406 25.226562 23.90625 C 24.980469 22.871094 24.726562 21.839844 24.558594 21.039062 C 24.476562 20.640625 24.410156 20.296875 24.386719 20.070312 C 24.382812 20.050781 24.386719 20.046875 24.386719 20.027344 C 24.261719 20.183594 24.230469 20.328125 24.332031 20.019531 C 24.429688 19.71875 24.378906 19.835938 24.386719 20.027344 C 24.394531 20.015625 24.394531 20.011719 24.40625 20 C 24.558594 19.832031 24.816406 19.59375 25.121094 19.320312 C 25.730469 18.773438 26.550781 18.09375 27.363281 17.40625 C 28.175781 16.71875 28.972656 16.03125 29.605469 15.367188 C 29.921875 15.035156 30.199219 14.710938 30.4375 14.328125 C 30.675781 13.945312 31.023438 13.410156 30.738281 12.527344 C 30.453125 11.644531 29.863281 11.410156 29.445312 11.238281 C 29.027344 11.066406 28.621094 10.972656 28.167969 10.886719 C 27.265625 10.71875 26.207031 10.625 25.148438 10.539062 C 24.089844 10.453125 23.019531 10.382812 22.207031 10.296875 C 21.800781 10.253906 21.457031 10.207031 21.234375 10.160156 C 21.222656 10.15625 21.222656 10.15625 21.210938 10.152344 C 21.3125 10.304688 21.414062 10.375 21.164062 10.191406 C 20.898438 9.996094 21.011719 10.101562 21.210938 10.152344 C 21.199219 10.132812 21.191406 10.132812 21.179688 10.109375 C 21.070312 9.910156 20.921875 9.601562 20.757812 9.226562 C 20.425781 8.480469 20.035156 7.492188 19.632812 6.507812 C 19.230469 5.523438 18.808594 4.546875 18.375 3.738281 C 18.15625 3.332031 17.945312 2.980469 17.652344 2.636719 C 17.359375 2.292969 16.953125 1.777344 16.027344 1.773438 Z M 16.027344 1.773438 "/>
</g>
</svg>
