<?xml version="1.0" encoding="UTF-8"?>
<svg xmlns="http://www.w3.org/2000/svg" xmlns:xlink="http://www.w3.org/1999/xlink" width="32" height="32" viewBox="0 0 32 32" version="1.1">
<g id="surface1">
<path style=" stroke:none;fill-rule:nonzero;fill:rgb(100%,100%,100%);fill-opacity:1;" d="M 16.003906 2.667969 C 9.003906 2.667969 3.265625 8.066406 2.71875 14.929688 L 9.867188 17.882812 C 10.472656 17.46875 11.203125 17.226562 11.992188 17.226562 C 12.0625 17.226562 12.128906 17.230469 12.199219 17.234375 L 15.378906 12.632812 L 15.378906 12.566406 C 15.378906 9.792969 17.632812 7.539062 20.40625 7.539062 C 23.175781 7.539062 25.433594 9.796875 25.433594 12.570312 C 25.433594 15.34375 23.175781 17.597656 20.40625 17.597656 L 20.289062 17.597656 L 15.761719 20.832031 C 15.761719 20.890625 15.765625 20.949219 15.765625 21.007812 C 15.765625 23.09375 14.082031 24.78125 11.996094 24.78125 C 10.179688 24.78125 8.648438 23.480469 8.296875 21.753906 L 3.179688 19.632812 C 4.765625 25.230469 9.902344 29.332031 16.007812 29.332031 C 23.371094 29.332031 29.335938 23.363281 29.335938 16 C 29.335938 8.636719 23.367188 2.667969 16.003906 2.667969 Z M 9.4375 22.222656 C 9.726562 22.824219 10.230469 23.332031 10.894531 23.609375 C 12.335938 24.210938 14 23.527344 14.597656 22.085938 C 14.890625 21.382812 14.890625 20.617188 14.605469 19.917969 C 14.316406 19.21875 13.769531 18.671875 13.074219 18.382812 C 12.382812 18.09375 11.640625 18.105469 10.988281 18.347656 L 12.679688 19.046875 C 13.742188 19.492188 14.246094 20.714844 13.800781 21.777344 C 13.359375 22.839844 12.136719 23.34375 11.074219 22.898438 Z M 23.757812 12.5625 C 23.757812 10.714844 22.253906 9.214844 20.40625 9.214844 C 18.558594 9.214844 17.058594 10.714844 17.058594 12.5625 C 17.058594 14.414062 18.558594 15.914062 20.40625 15.914062 C 22.253906 15.914062 23.757812 14.414062 23.757812 12.5625 Z M 20.414062 10.039062 C 21.800781 10.039062 22.929688 11.167969 22.929688 12.558594 C 22.929688 13.949219 21.800781 15.074219 20.414062 15.074219 C 19.019531 15.074219 17.894531 13.949219 17.894531 12.558594 C 17.894531 11.167969 19.023438 10.039062 20.414062 10.039062 Z M 20.414062 10.039062 "/>
</g>
</svg>
