<?xml version="1.0" encoding="UTF-8"?>
<svg xmlns="http://www.w3.org/2000/svg" xmlns:xlink="http://www.w3.org/1999/xlink" width="32" height="32" viewBox="0 0 32 32" version="1.1">
<g id="surface1">
<path style=" stroke:none;fill-rule:nonzero;fill:rgb(100%,100%,100%);fill-opacity:1;" d="M 16 2.667969 C 23.363281 2.667969 29.332031 8.636719 29.332031 16 C 29.332031 23.363281 23.363281 29.332031 16 29.332031 C 8.636719 29.332031 2.667969 23.363281 2.667969 16 C 2.667969 8.636719 8.636719 2.667969 16 2.667969 Z M 10.667969 17.332031 L 5.414062 17.335938 C 6.027344 22.167969 9.832031 25.972656 14.667969 26.585938 L 14.667969 21.332031 C 12.457031 21.332031 10.667969 19.542969 10.667969 17.332031 Z M 26.585938 17.335938 L 21.332031 17.332031 C 21.332031 19.542969 19.542969 21.332031 17.332031 21.332031 L 17.335938 26.585938 C 22.167969 25.972656 25.972656 22.167969 26.585938 17.335938 Z M 18.667969 16 L 13.332031 16 L 13.332031 17.332031 C 13.332031 18.070312 13.929688 18.667969 14.667969 18.667969 L 17.332031 18.667969 C 18.070312 18.667969 18.667969 18.070312 18.667969 17.332031 Z M 16 5.332031 C 10.625 5.332031 6.089844 9.332031 5.414062 14.667969 L 10.667969 14.667969 C 10.667969 13.929688 11.261719 13.332031 12 13.332031 L 20 13.332031 C 20.738281 13.332031 21.332031 13.929688 21.332031 14.667969 L 26.585938 14.667969 C 25.910156 9.332031 21.375 5.332031 16 5.332031 Z M 16 5.332031 "/>
</g>
</svg>
