<?xml version="1.0" encoding="UTF-8"?>
<svg xmlns="http://www.w3.org/2000/svg" xmlns:xlink="http://www.w3.org/1999/xlink" width="32" height="32" viewBox="0 0 32 32" version="1.1">
<g id="surface1">
<path style=" stroke:none;fill-rule:nonzero;fill:rgb(100%,100%,100%);fill-opacity:1;" d="M 10.667969 4 L 10.667969 6.667969 L 8 6.667969 L 8 12 C 8 14.945312 10.386719 17.332031 13.332031 17.332031 C 16.28125 17.332031 18.667969 14.945312 18.667969 12 L 18.667969 6.667969 L 16 6.667969 L 16 4 L 20 4 C 20.734375 4 21.332031 4.597656 21.332031 5.332031 L 21.332031 12 C 21.332031 15.964844 18.449219 19.253906 14.667969 19.890625 L 14.667969 22 C 14.667969 24.578125 16.757812 26.667969 19.332031 26.667969 C 21.328125 26.667969 23.035156 25.414062 23.699219 23.648438 C 22.304688 23.027344 21.332031 21.625 21.332031 20 C 21.332031 17.789062 23.125 16 25.332031 16 C 27.542969 16 29.332031 17.789062 29.332031 20 C 29.332031 21.828125 28.105469 23.371094 26.433594 23.847656 C 25.613281 27.003906 22.746094 29.332031 19.332031 29.332031 C 15.28125 29.332031 12 26.050781 12 22 L 12 19.890625 C 8.214844 19.253906 5.332031 15.964844 5.332031 12 L 5.332031 5.332031 C 5.332031 4.597656 5.929688 4 6.667969 4 Z M 25.332031 18.667969 C 24.597656 18.667969 24 19.265625 24 20 C 24 20.734375 24.597656 21.332031 25.332031 21.332031 C 26.070312 21.332031 26.667969 20.734375 26.667969 20 C 26.667969 19.265625 26.070312 18.667969 25.332031 18.667969 Z M 25.332031 18.667969 "/>
</g>
</svg>
