<?xml version="1.0" encoding="UTF-8"?>
<svg xmlns="http://www.w3.org/2000/svg" xmlns:xlink="http://www.w3.org/1999/xlink" width="32" height="32" viewBox="0 0 32 32" version="1.1">
<g id="surface1">
<path style=" stroke:none;fill-rule:nonzero;fill:rgb(100%,100%,100%);fill-opacity:1;" d="M 28 15.527344 L 28 28 C 28 28.738281 27.402344 29.332031 26.667969 29.332031 L 5.332031 29.332031 C 4.597656 29.332031 4 28.738281 4 28 L 4 15.527344 C 3.140625 14.554688 2.664062 13.300781 2.667969 12 L 2.667969 4 C 2.667969 3.261719 3.261719 2.667969 4 2.667969 L 28 2.667969 C 28.738281 2.667969 29.332031 3.261719 29.332031 4 L 29.332031 12 C 29.332031 13.351562 28.828125 14.585938 28 15.527344 Z M 18.667969 12 C 18.667969 11.261719 19.261719 10.667969 20 10.667969 C 20.738281 10.667969 21.332031 11.261719 21.332031 12 C 21.332031 13.472656 22.527344 14.667969 24 14.667969 C 25.472656 14.667969 26.667969 13.472656 26.667969 12 L 26.667969 5.332031 L 5.332031 5.332031 L 5.332031 12 C 5.332031 13.472656 6.527344 14.667969 8 14.667969 C 9.472656 14.667969 10.667969 13.472656 10.667969 12 C 10.667969 11.261719 11.261719 10.667969 12 10.667969 C 12.738281 10.667969 13.332031 11.261719 13.332031 12 C 13.332031 13.472656 14.527344 14.667969 16 14.667969 C 17.472656 14.667969 18.667969 13.472656 18.667969 12 Z M 18.667969 12 "/>
</g>
</svg>
