<?xml version="1.0" encoding="UTF-8"?>
<svg xmlns="http://www.w3.org/2000/svg" xmlns:xlink="http://www.w3.org/1999/xlink" width="32" height="32" viewBox="0 0 32 32" version="1.1">
<g id="surface1">
<path style=" stroke:none;fill-rule:nonzero;fill:rgb(100%,100%,100%);fill-opacity:1;" d="M 24 30.667969 L 21.332031 30.667969 L 21.332031 29.332031 L 10.667969 29.332031 L 10.667969 30.667969 L 8 30.667969 L 8 29.332031 L 6.667969 29.332031 C 5.191406 29.332031 4 28.140625 4 26.667969 L 4 9.332031 C 4 7.859375 5.191406 6.667969 6.667969 6.667969 L 10.667969 6.667969 L 10.667969 4 C 10.667969 3.265625 11.265625 2.667969 12 2.667969 L 20 2.667969 C 20.734375 2.667969 21.332031 3.265625 21.332031 4 L 21.332031 6.667969 L 25.332031 6.667969 C 26.808594 6.667969 28 7.859375 28 9.332031 L 28 26.667969 C 28 28.140625 26.808594 29.332031 25.332031 29.332031 L 24 29.332031 Z M 13.332031 12 L 10.667969 12 L 10.667969 24 L 13.332031 24 Z M 21.332031 12 L 18.667969 12 L 18.667969 24 L 21.332031 24 Z M 18.667969 5.332031 L 13.332031 5.332031 L 13.332031 6.667969 L 18.667969 6.667969 Z M 18.667969 5.332031 "/>
</g>
</svg>
