<?xml version="1.0" encoding="UTF-8"?>
<svg xmlns="http://www.w3.org/2000/svg" xmlns:xlink="http://www.w3.org/1999/xlink" width="32" height="32" viewBox="0 0 32 32" version="1.1">
<g id="surface1">
<path style=" stroke:none;fill-rule:nonzero;fill:rgb(100%,100%,100%);fill-opacity:1;" d="M 8.453125 18.667969 C 7.292969 15.382812 8.390625 11.722656 11.171875 9.621094 C 13.949219 7.519531 17.769531 7.457031 20.613281 9.46875 C 23.460938 11.476562 24.675781 15.101562 23.621094 18.421875 C 22.566406 21.742188 19.484375 24 16 24 L 16 18.667969 Z M 8 26.667969 L 20 26.667969 L 20 29.332031 L 8 29.332031 Z M 1.332031 14.667969 L 5.332031 14.667969 L 5.332031 17.332031 L 1.332031 17.332031 Z M 2.667969 21.332031 L 13.332031 21.332031 L 13.332031 24 L 2.667969 24 Z M 14.667969 1.332031 L 17.332031 1.332031 L 17.332031 5.332031 L 14.667969 5.332031 Z M 4.6875 6.570312 L 6.570312 4.6875 L 9.398438 7.515625 L 7.515625 9.398438 L 4.6875 6.574219 Z M 22.601562 24.484375 L 24.484375 22.601562 L 27.3125 25.429688 L 25.429688 27.3125 Z M 25.429688 4.683594 L 27.3125 6.570312 L 24.484375 9.398438 L 22.601562 7.515625 L 25.429688 4.6875 Z M 30.667969 14.667969 L 30.667969 17.332031 L 26.667969 17.332031 L 26.667969 14.667969 Z M 30.667969 14.667969 "/>
</g>
</svg>
