<?xml version="1.0" encoding="UTF-8"?>
<svg xmlns="http://www.w3.org/2000/svg" xmlns:xlink="http://www.w3.org/1999/xlink" width="32" height="32" viewBox="0 0 32 32" version="1.1">
<g id="surface1">
<path style=" stroke:none;fill-rule:nonzero;fill:rgb(100%,100%,100%);fill-opacity:1;" d="M 7.460938 6.667969 L 14 14.570312 L 20.539062 6.667969 L 24 6.667969 L 15.730469 16.664062 L 24 26.660156 L 24 26.667969 L 20.546875 26.667969 L 14 18.753906 L 7.453125 26.667969 L 4 26.667969 L 4 26.660156 L 12.269531 16.664062 L 4 6.667969 Z M 28.734375 8.773438 C 29.113281 8.414062 29.175781 7.832031 28.878906 7.398438 C 28.585938 6.964844 28.019531 6.8125 27.546875 7.035156 C 27.070312 7.257812 26.828125 7.789062 26.972656 8.292969 L 25.433594 8.734375 C 25.203125 7.929688 25.363281 7.0625 25.871094 6.394531 C 26.375 5.726562 27.164062 5.332031 28 5.332031 C 29.09375 5.332031 30.074219 6 30.476562 7.015625 C 30.882812 8.03125 30.625 9.1875 29.832031 9.9375 L 27.660156 12 L 30.667969 12 L 30.667969 13.332031 L 25.332031 13.332031 L 25.332031 12 Z M 28.734375 8.773438 "/>
</g>
</svg>
