<?xml version="1.0" encoding="UTF-8"?>
<svg xmlns="http://www.w3.org/2000/svg" xmlns:xlink="http://www.w3.org/1999/xlink" width="32" height="32" viewBox="0 0 32 32" version="1.1">
<g id="surface1">
<path style=" stroke:none;fill-rule:nonzero;fill:rgb(100%,100%,100%);fill-opacity:1;" d="M 16.648438 4.160156 L 26.992188 6.746094 C 27.585938 6.894531 28 7.429688 28 8.042969 L 28 9.332031 L 29.332031 9.332031 C 30.800781 9.332031 32 10.535156 32 12 L 32 16 C 32 18.210938 30.210938 20 28 20 L 27.4375 20 C 26.726562 21.800781 25.371094 23.316406 23.578125 24.210938 L 17.191406 27.402344 C 16.441406 27.777344 15.558594 27.777344 14.808594 27.402344 L 8.421875 24.210938 C 6.632812 23.316406 5.277344 21.800781 4.5625 20 L 4 20 C 1.789062 20 0 18.210938 0 16 L 0 12 C 0 10.527344 1.191406 9.332031 2.667969 9.332031 L 4 9.332031 L 4 8.039062 C 4 7.429688 4.414062 6.894531 5.007812 6.746094 L 15.351562 4.160156 C 15.777344 4.054688 16.222656 4.054688 16.648438 4.160156 Z M 16 6.746094 L 6.667969 9.082031 L 6.667969 17.054688 C 6.667969 19.074219 7.808594 20.921875 9.613281 21.828125 L 16 25.019531 L 22.386719 21.828125 C 24.191406 20.921875 25.332031 19.074219 25.332031 17.054688 L 25.332031 9.082031 L 16 6.75 Z M 4 12 L 2.667969 12 L 2.667969 16 C 2.667969 16.734375 3.265625 17.332031 4 17.332031 Z M 29.332031 12 L 28 12 L 28 17.332031 C 28.734375 17.332031 29.332031 16.734375 29.332031 16 Z M 29.332031 12 "/>
</g>
</svg>
