<?xml version="1.0" encoding="UTF-8"?>
<svg xmlns="http://www.w3.org/2000/svg" xmlns:xlink="http://www.w3.org/1999/xlink" width="32" height="32" viewBox="0 0 32 32" version="1.1">
<g id="surface1">
<path style=" stroke:none;fill-rule:nonzero;fill:rgb(100%,100%,100%);fill-opacity:1;" d="M 22.667969 2.667969 L 22.667969 5.332031 L 26.675781 5.332031 C 27.40625 5.332031 28 5.925781 28 6.65625 L 28 28.007812 C 28 28.738281 27.40625 29.332031 26.675781 29.332031 L 5.324219 29.332031 C 4.59375 29.332031 4 28.738281 4 28.007812 L 4 6.65625 C 4 5.925781 4.59375 5.332031 5.324219 5.332031 L 9.332031 5.332031 L 9.332031 2.667969 Z M 9.332031 8 L 6.667969 8 L 6.667969 26.667969 L 25.332031 26.667969 L 25.332031 8 L 22.667969 8 L 22.667969 10.667969 L 9.332031 10.667969 Z M 12 21.332031 L 12 24 L 9.332031 24 L 9.332031 21.332031 Z M 12 17.332031 L 12 20 L 9.332031 20 L 9.332031 17.332031 Z M 12 13.332031 L 12 16 L 9.332031 16 L 9.332031 13.332031 Z M 20 5.332031 L 12 5.332031 L 12 8 L 20 8 Z M 20 5.332031 "/>
</g>
</svg>
