<?xml version="1.0" encoding="UTF-8"?>
<svg xmlns="http://www.w3.org/2000/svg" xmlns:xlink="http://www.w3.org/1999/xlink" width="32" height="32" viewBox="0 0 32 32" version="1.1">
<g id="surface1">
<path style=" stroke:none;fill-rule:evenodd;fill:rgb(100%,100%,100%);fill-opacity:1;" d="M 12 2 C 10.890625 2 10 2.890625 10 4 L 10 16 C 10 16 8 18 8 20 C 8 21.398438 9.953125 25.71875 11.128906 28.199219 C 11.601562 29.195312 12.894531 30 14 30 L 24 30 C 25.109375 30 26 29.109375 26 28 L 26 14 C 26 12.890625 25.109375 12 24 12 C 22.890625 12 22 12.890625 22 14 L 22 13 C 22 11.890625 21.109375 11 20 11 C 18.890625 11 18 11.890625 18 13 L 18 12 C 18 10.890625 17.109375 10 16 10 C 14.890625 10 14 10.890625 14 12 L 14 4 C 14 2.890625 13.109375 2 12 2 Z M 12 2 "/>
<path style=" stroke:none;fill-rule:evenodd;fill:rgb(100%,100%,100%);fill-opacity:1;" d="M 16.003906 2.996094 C 15.957031 2.996094 15.90625 3.003906 15.859375 3.003906 C 15.945312 3.324219 16.003906 3.65625 16.003906 4 L 16.003906 5 C 19.128906 5 22.242188 5.792969 25.070312 7.332031 L 24.117188 9.03125 L 31.382812 10.453125 L 27.328125 3.296875 L 26.042969 5.589844 C 22.910156 3.882812 19.464844 2.996094 16.003906 2.996094 Z M 4.632812 3.632812 L 0.578125 10.789062 L 7.84375 9.367188 L 6.75 7.417969 C 7.164062 7.199219 7.582031 6.996094 8.003906 6.800781 L 8.003906 4.585938 C 7.246094 4.898438 6.507812 5.277344 5.78125 5.683594 Z M 4.632812 3.632812 "/>
</g>
</svg>
