<?xml version="1.0" encoding="UTF-8"?>
<svg xmlns="http://www.w3.org/2000/svg" xmlns:xlink="http://www.w3.org/1999/xlink" width="32" height="32" viewBox="0 0 32 32" version="1.1">
<g id="surface1">
<path style=" stroke:none;fill-rule:nonzero;fill:rgb(100%,100%,100%);fill-opacity:1;" d="M 2.011719 9.996094 C 0.902344 9.996094 0.00390625 10.894531 0.00390625 12.003906 L 0.00390625 20.007812 L 1.996094 20.007812 L 1.996094 20.996094 C 1.996094 21.550781 2.445312 22 3 22 L 9.03125 22 C 9.566406 22 10 21.566406 10 21.03125 L 10 20.007812 L 21.996094 20.015625 L 21.996094 21.023438 C 22 21.566406 22.4375 22.003906 22.980469 22.003906 L 29.003906 22.003906 C 29.554688 22.003906 30 21.558594 30 21.007812 L 30 20.011719 L 31.996094 20.007812 L 31.996094 12.003906 C 31.996094 10.894531 31.097656 9.996094 29.988281 9.996094 Z M 2.015625 12 L 6.015625 12 L 6.015625 16 L 2.015625 16 Z M 8.015625 12 L 12.015625 12 L 12.015625 16 L 8.015625 16 Z M 14.015625 12 L 18.015625 12 L 18.015625 16 L 14.015625 16 Z M 20.015625 12 L 24.015625 12 L 24.015625 16 L 20.015625 16 Z M 26.015625 12 L 30.015625 12 L 30.015625 16 L 26.015625 16 Z M 26.015625 12 "/>
</g>
</svg>
