<?xml version="1.0" encoding="UTF-8"?>
<svg xmlns="http://www.w3.org/2000/svg" xmlns:xlink="http://www.w3.org/1999/xlink" width="32" height="32" viewBox="0 0 32 32" version="1.1">
<g id="surface1">
<path style=" stroke:none;fill-rule:nonzero;fill:rgb(100%,100%,100%);fill-opacity:1;" d="M 16 4 L 16 28 L 10.132812 28 C 6.746094 28 4 25.253906 4 21.867188 L 4 10.132812 C 4 6.746094 6.746094 4 10.132812 4 Z M 13.332031 6.667969 L 10.132812 6.667969 C 8.21875 6.667969 6.667969 8.21875 6.667969 10.132812 L 6.667969 21.867188 C 6.667969 23.78125 8.21875 25.332031 10.132812 25.332031 L 13.332031 25.332031 Z M 10 13.332031 C 8.894531 13.332031 8 12.4375 8 11.332031 C 8 10.230469 8.894531 9.332031 10 9.332031 C 11.105469 9.332031 12 10.230469 12 11.332031 C 12 12.4375 11.105469 13.332031 10 13.332031 Z M 18.667969 4 L 21.867188 4 C 25.253906 4 28 6.746094 28 10.132812 L 28 21.867188 C 28 25.253906 25.253906 28 21.867188 28 L 18.667969 28 Z M 22.667969 19.601562 C 23.992188 19.601562 25.066406 18.527344 25.066406 17.199219 C 25.066406 15.875 23.992188 14.800781 22.667969 14.800781 C 21.339844 14.800781 20.265625 15.875 20.265625 17.199219 C 20.265625 18.527344 21.339844 19.601562 22.667969 19.601562 Z M 22.667969 19.601562 "/>
</g>
</svg>
