<?xml version="1.0" encoding="UTF-8"?>
<svg xmlns="http://www.w3.org/2000/svg" xmlns:xlink="http://www.w3.org/1999/xlink" width="32" height="32" viewBox="0 0 32 32" version="1.1">
<g id="surface1">
<path style=" stroke:none;fill-rule:nonzero;fill:rgb(100%,100%,100%);fill-opacity:1;" d="M 19.351562 6.667969 L 22.828125 3.191406 C 23.078125 2.941406 23.417969 2.800781 23.769531 2.800781 C 24.125 2.800781 24.464844 2.941406 24.714844 3.191406 L 30.371094 8.847656 C 30.890625 9.367188 30.890625 10.210938 30.371094 10.734375 L 25.332031 15.769531 L 25.332031 28 C 25.332031 28.738281 24.738281 29.332031 24 29.332031 L 8 29.332031 C 7.261719 29.332031 6.667969 28.738281 6.667969 28 L 6.667969 15.769531 L 1.628906 10.734375 C 1.109375 10.210938 1.109375 9.367188 1.628906 8.847656 L 7.285156 3.191406 C 7.535156 2.941406 7.875 2.800781 8.230469 2.800781 C 8.582031 2.800781 8.921875 2.941406 9.171875 3.191406 L 12.648438 6.667969 Z M 20.457031 9.332031 L 11.542969 9.332031 L 8.230469 6.019531 L 4.457031 9.789062 L 9.332031 14.667969 L 9.332031 26.667969 L 22.667969 26.667969 L 22.667969 14.667969 L 27.542969 9.789062 L 23.769531 6.019531 Z M 20.457031 9.332031 "/>
</g>
</svg>
