<?xml version="1.0" encoding="UTF-8"?>
<svg xmlns="http://www.w3.org/2000/svg" xmlns:xlink="http://www.w3.org/1999/xlink" width="32" height="32" viewBox="0 0 32 32" version="1.1">
<g id="surface1">
<path style=" stroke:none;fill-rule:nonzero;fill:rgb(100%,100%,100%);fill-opacity:1;" d="M 16 4 L 16 9.332031 L 8.425781 9.332031 L 5.566406 16 L 29.332031 16 L 29.332031 28 C 29.332031 28.738281 28.738281 29.332031 28 29.332031 L 26.667969 29.332031 C 25.929688 29.332031 25.332031 28.738281 25.332031 28 L 25.332031 26.667969 L 6.667969 26.667969 L 6.667969 28 C 6.667969 28.738281 6.070312 29.332031 5.332031 29.332031 L 4 29.332031 C 3.261719 29.332031 2.667969 28.738281 2.667969 28 L 2.667969 16 L 5.972656 8.28125 C 6.394531 7.300781 7.359375 6.664062 8.425781 6.667969 L 12 6.667969 L 12 4 Z M 8.667969 18.667969 C 7.5625 18.667969 6.667969 19.5625 6.667969 20.667969 C 6.667969 21.769531 7.5625 22.667969 8.667969 22.667969 C 9.769531 22.667969 10.667969 21.769531 10.667969 20.667969 C 10.667969 19.5625 9.769531 18.667969 8.667969 18.667969 Z M 23.332031 18.667969 C 22.230469 18.667969 21.332031 19.5625 21.332031 20.667969 C 21.332031 21.769531 22.230469 22.667969 23.332031 22.667969 C 24.4375 22.667969 25.332031 21.769531 25.332031 20.667969 C 25.332031 19.5625 24.4375 18.667969 23.332031 18.667969 Z M 24.667969 1.332031 C 27.980469 1.332031 30.667969 4.019531 30.667969 7.332031 C 30.667969 10.648438 27.980469 13.332031 24.667969 13.332031 C 21.351562 13.332031 18.667969 10.648438 18.667969 7.332031 C 18.667969 4.019531 21.351562 1.332031 24.667969 1.332031 Z M 24.667969 8.222656 C 24.011719 8.222656 23.414062 8.457031 22.949219 8.847656 L 22.78125 9.003906 L 24.667969 10.890625 L 26.550781 9 C 26.050781 8.5 25.375 8.222656 24.667969 8.222656 Z M 24.667969 4.667969 C 23.125 4.664062 21.636719 5.234375 20.496094 6.269531 L 20.265625 6.492188 L 21.523438 7.746094 C 22.355469 6.910156 23.488281 6.441406 24.667969 6.445312 C 25.746094 6.441406 26.789062 6.835938 27.601562 7.550781 L 27.808594 7.746094 L 29.066406 6.488281 C 27.902344 5.320312 26.316406 4.664062 24.667969 4.667969 Z M 24.667969 4.667969 "/>
</g>
</svg>
