<?xml version="1.0" encoding="UTF-8"?>
<svg xmlns="http://www.w3.org/2000/svg" xmlns:xlink="http://www.w3.org/1999/xlink" width="32" height="32" viewBox="0 0 32 32" version="1.1">
<g id="surface1">
<path style=" stroke:none;fill-rule:nonzero;fill:rgb(100%,100%,100%);fill-opacity:1;" d="M 16 26.667969 C 21.890625 26.667969 26.667969 21.890625 26.667969 16 C 26.667969 10.109375 21.890625 5.332031 16 5.332031 C 10.109375 5.332031 5.332031 10.109375 5.332031 16 C 5.332031 21.890625 10.109375 26.667969 16 26.667969 Z M 16 29.332031 C 8.636719 29.332031 2.667969 23.363281 2.667969 16 C 2.667969 8.636719 8.636719 2.667969 16 2.667969 C 23.363281 2.667969 29.332031 8.636719 29.332031 16 C 29.332031 23.363281 23.363281 29.332031 16 29.332031 Z M 11.851562 17.558594 L 8.523438 16.519531 C 7.800781 16.300781 7.796875 15.804688 8.683594 15.449219 L 21.660156 10.4375 C 22.414062 10.128906 22.839844 10.515625 22.597656 11.488281 L 20.386719 21.914062 C 20.234375 22.660156 19.785156 22.835938 19.167969 22.492188 L 15.765625 19.976562 L 14.179688 21.507812 C 14.015625 21.664062 13.886719 21.796875 13.632812 21.832031 C 13.386719 21.867188 13.179688 21.792969 13.03125 21.378906 L 11.871094 17.550781 L 11.851562 17.5625 Z M 11.851562 17.558594 "/>
</g>
</svg>
