<?xml version="1.0" encoding="UTF-8"?>
<svg xmlns="http://www.w3.org/2000/svg" xmlns:xlink="http://www.w3.org/1999/xlink" width="32" height="32" viewBox="0 0 32 32" version="1.1">
<g id="surface1">
<path style=" stroke:none;fill-rule:nonzero;fill:rgb(100%,100%,100%);fill-opacity:1;" d="M 14.667969 6.667969 L 14.667969 20 L 12 20 L 12 14.667969 C 9.054688 14.667969 6.667969 12.277344 6.667969 9.332031 C 6.667969 6.386719 9.054688 4 12 4 L 22.667969 4 L 22.667969 6.667969 L 20 6.667969 L 20 20 L 17.332031 20 L 17.332031 6.667969 Z M 12 6.667969 C 10.527344 6.667969 9.332031 7.859375 9.332031 9.332031 C 9.332031 10.804688 10.527344 12 12 12 Z M 22.667969 22.667969 L 22.667969 19.332031 L 28 24 L 22.667969 28.667969 L 22.667969 25.332031 L 6.667969 25.332031 L 6.667969 22.667969 Z M 22.667969 22.667969 "/>
</g>
</svg>
