<?xml version="1.0" encoding="UTF-8"?>
<svg xmlns="http://www.w3.org/2000/svg" xmlns:xlink="http://www.w3.org/1999/xlink" width="32" height="32" viewBox="0 0 32 32" version="1.1">
<g id="surface1">
<path style=" stroke:none;fill-rule:nonzero;fill:rgb(100%,100%,100%);fill-opacity:1;" d="M 27.40625 4.59375 C 29.492188 6.675781 29.492188 10.050781 27.40625 12.132812 L 16.476562 23.066406 C 15.617188 23.925781 14.496094 24.464844 13.292969 24.597656 L 8.789062 25.097656 L 5.722656 28.164062 C 5.203125 28.683594 4.359375 28.683594 3.839844 28.164062 C 3.320312 27.640625 3.320312 26.796875 3.839844 26.277344 L 6.902344 23.210938 L 7.402344 18.707031 C 7.535156 17.503906 8.074219 16.382812 8.933594 15.523438 L 19.867188 4.59375 C 21.949219 2.507812 25.324219 2.507812 27.40625 4.59375 Z M 15.152344 16.847656 L 13.265625 18.734375 L 16.09375 21.5625 L 17.980469 19.675781 Z M 18.921875 13.078125 L 17.039062 14.960938 L 19.867188 17.789062 L 21.753906 15.90625 Z M 22.695312 9.304688 L 20.808594 11.191406 L 23.636719 14.019531 L 25.523438 12.132812 Z M 22.695312 9.304688 "/>
</g>
</svg>
