<?xml version="1.0" encoding="UTF-8"?>
<svg xmlns="http://www.w3.org/2000/svg" xmlns:xlink="http://www.w3.org/1999/xlink" width="32" height="32" viewBox="0 0 32 32" version="1.1">
<g id="surface1">
<path style=" stroke:none;fill-rule:nonzero;fill:rgb(100%,100%,100%);fill-opacity:1;" d="M 2.667969 12 L 6.667969 12 L 6.667969 28 L 2.667969 28 C 1.929688 28 1.332031 27.402344 1.332031 26.667969 L 1.332031 13.332031 C 1.332031 12.597656 1.929688 12 2.667969 12 Z M 9.722656 10.277344 L 18.257812 1.742188 C 18.492188 1.507812 18.863281 1.480469 19.128906 1.679688 L 20.265625 2.535156 C 20.914062 3.019531 21.203125 3.84375 21.003906 4.625 L 19.464844 10.667969 L 28 10.667969 C 29.472656 10.667969 30.667969 11.859375 30.667969 13.332031 L 30.667969 16.136719 C 30.667969 16.488281 30.597656 16.832031 30.464844 17.15625 L 26.339844 27.175781 C 26.132812 27.675781 25.648438 28 25.105469 28 L 10.667969 28 C 9.929688 28 9.332031 27.402344 9.332031 26.667969 L 9.332031 11.21875 C 9.332031 10.863281 9.472656 10.527344 9.722656 10.277344 Z M 9.722656 10.277344 "/>
</g>
</svg>
