<?xml version="1.0" encoding="UTF-8"?>
<svg xmlns="http://www.w3.org/2000/svg" xmlns:xlink="http://www.w3.org/1999/xlink" width="32" height="32" viewBox="0 0 32 32" version="1.1">
<g id="surface1">
<path style=" stroke:none;fill-rule:nonzero;fill:rgb(100%,100%,100%);fill-opacity:1;" d="M 23.492188 7.957031 L 25.429688 6.019531 L 27.3125 7.90625 L 25.375 9.84375 C 29.351562 14.816406 28.746094 22.03125 24 26.277344 C 19.253906 30.523438 12.019531 30.320312 7.515625 25.816406 C 3.011719 21.316406 2.8125 14.078125 7.054688 9.332031 C 11.300781 4.585938 18.515625 3.984375 23.492188 7.957031 Z M 16 26.667969 C 21.15625 26.667969 25.332031 22.488281 25.332031 17.332031 C 25.332031 12.179688 21.15625 8 16 8 C 10.84375 8 6.667969 12.179688 6.667969 17.332031 C 6.667969 22.488281 10.84375 26.667969 16 26.667969 Z M 14.667969 10.667969 L 17.332031 10.667969 L 17.332031 18.667969 L 14.667969 18.667969 Z M 10.667969 1.332031 L 21.332031 1.332031 L 21.332031 4 L 10.667969 4 Z M 10.667969 1.332031 "/>
</g>
</svg>
