<?xml version="1.0" encoding="UTF-8"?>
<svg xmlns="http://www.w3.org/2000/svg" xmlns:xlink="http://www.w3.org/1999/xlink" width="32" height="32" viewBox="0 0 32 32" version="1.1">
<g id="surface1">
<path style=" stroke:none;fill-rule:nonzero;fill:rgb(100%,100%,100%);fill-opacity:1;" d="M 10.667969 9.332031 C 6.984375 9.332031 4 12.316406 4 16 C 4 19.683594 6.984375 22.667969 10.667969 22.667969 L 21.332031 22.667969 C 25.015625 22.667969 28 19.683594 28 16 C 28 12.316406 25.015625 9.332031 21.332031 9.332031 Z M 10.667969 6.667969 L 21.332031 6.667969 C 26.488281 6.667969 30.667969 10.84375 30.667969 16 C 30.667969 21.15625 26.488281 25.332031 21.332031 25.332031 L 10.667969 25.332031 C 5.511719 25.332031 1.332031 21.15625 1.332031 16 C 1.332031 10.84375 5.511719 6.667969 10.667969 6.667969 Z M 10.667969 20 C 8.457031 20 6.667969 18.210938 6.667969 16 C 6.667969 13.789062 8.457031 12 10.667969 12 C 12.875 12 14.667969 13.789062 14.667969 16 C 14.667969 18.210938 12.875 20 10.667969 20 Z M 10.667969 20 "/>
</g>
</svg>
