<?xml version="1.0" encoding="UTF-8"?>
<svg xmlns="http://www.w3.org/2000/svg" xmlns:xlink="http://www.w3.org/1999/xlink" width="32" height="32" viewBox="0 0 32 32" version="1.1">
<g id="surface1">
<path style=" stroke:none;fill-rule:nonzero;fill:rgb(100%,100%,100%);fill-opacity:1;" d="M 7.105469 4.363281 C 8.804688 3.753906 10.699219 4.183594 11.976562 5.457031 C 13.25 6.734375 13.675781 8.628906 13.070312 10.328125 L 27.53125 24.785156 L 24.699219 27.613281 L 10.238281 13.15625 C 8.542969 13.761719 6.644531 13.335938 5.371094 12.058594 C 4.097656 10.785156 3.671875 8.890625 4.277344 7.191406 L 7.257812 10.171875 C 7.761719 10.691406 8.503906 10.902344 9.203125 10.71875 C 9.902344 10.535156 10.449219 9.988281 10.632812 9.289062 C 10.816406 8.589844 10.605469 7.847656 10.085938 7.34375 L 7.105469 4.359375 Z M 20.929688 6.875 L 25.171875 4.515625 L 27.058594 6.402344 L 24.699219 10.644531 L 22.34375 11.117188 L 19.515625 13.945312 L 17.628906 12.058594 L 20.457031 9.230469 Z M 11.5 17.242188 L 14.328125 20.074219 L 7.730469 26.671875 C 6.972656 27.421875 5.765625 27.449219 4.976562 26.734375 C 4.1875 26.015625 4.101562 24.808594 4.773438 23.988281 L 4.902344 23.84375 L 11.503906 17.242188 Z M 11.5 17.242188 "/>
</g>
</svg>
