<?xml version="1.0" encoding="UTF-8"?>
<svg xmlns="http://www.w3.org/2000/svg" xmlns:xlink="http://www.w3.org/1999/xlink" width="32" height="32" viewBox="0 0 32 32" version="1.1">
<g id="surface1">
<path style=" stroke:none;fill-rule:evenodd;fill:rgb(100%,100%,100%);fill-opacity:1;" d="M 12 0 C 10.890625 0 10 0.890625 10 2 L 3 2 C 2.445312 2 2 2.40625 2 2.910156 L 2 5.089844 C 2 5.59375 2.445312 6 3 6 L 29 6 C 29.554688 6 30 5.59375 30 5.089844 L 30 2.910156 C 30 2.40625 29.554688 2 29 2 L 22 2 C 22 0.890625 21.109375 0 20 0 Z M 4 8 L 4 28 C 4 30.210938 5.789062 32 8 32 L 24 32 C 26.210938 32 28 30.210938 28 28 L 28 8 Z M 4 8 "/>
</g>
</svg>
