<?xml version="1.0" encoding="UTF-8"?>
<svg xmlns="http://www.w3.org/2000/svg" xmlns:xlink="http://www.w3.org/1999/xlink" width="32" height="32" viewBox="0 0 32 32" version="1.1">
<g id="surface1">
<path style=" stroke:none;fill-rule:nonzero;fill:rgb(100%,100%,100%);fill-opacity:1;" d="M 6.667969 6.667969 L 6.667969 25.332031 L 25.332031 25.332031 L 25.332031 6.667969 Z M 6.667969 4 L 25.332031 4 C 26.804688 4 28 5.195312 28 6.667969 L 28 25.332031 C 28 26.804688 26.804688 28 25.332031 28 L 6.667969 28 C 5.195312 28 4 26.804688 4 25.332031 L 4 6.667969 C 4 5.195312 5.195312 4 6.667969 4 Z M 10.667969 9.332031 L 13.332031 9.332031 C 14.070312 9.332031 14.667969 9.929688 14.667969 10.667969 L 14.667969 21.332031 C 14.667969 22.070312 14.070312 22.667969 13.332031 22.667969 L 10.667969 22.667969 C 9.929688 22.667969 9.332031 22.070312 9.332031 21.332031 L 9.332031 10.667969 C 9.332031 9.929688 9.929688 9.332031 10.667969 9.332031 Z M 18.667969 9.332031 L 21.332031 9.332031 C 22.070312 9.332031 22.667969 9.929688 22.667969 10.667969 L 22.667969 16 C 22.667969 16.738281 22.070312 17.332031 21.332031 17.332031 L 18.667969 17.332031 C 17.929688 17.332031 17.332031 16.738281 17.332031 16 L 17.332031 10.667969 C 17.332031 9.929688 17.929688 9.332031 18.667969 9.332031 Z M 18.667969 9.332031 "/>
</g>
</svg>
