<?xml version="1.0" encoding="UTF-8"?>
<svg xmlns="http://www.w3.org/2000/svg" xmlns:xlink="http://www.w3.org/1999/xlink" width="32" height="32" viewBox="0 0 32 32" version="1.1">
<g id="surface1">
<path style=" stroke:none;fill-rule:nonzero;fill:rgb(100%,100%,100%);fill-opacity:1;" d="M 20.398438 7.398438 C 18.292969 7.398438 16.570312 9.089844 16.535156 11.195312 L 16.496094 13.296875 C 16.492188 13.523438 16.390625 13.738281 16.21875 13.886719 C 16.042969 14.035156 15.816406 14.105469 15.589844 14.074219 L 13.507812 13.789062 C 10.769531 13.417969 8.144531 12.15625 5.628906 10.058594 C 4.832031 14.472656 6.386719 17.53125 10.136719 19.886719 L 12.46875 21.351562 C 12.691406 21.492188 12.832031 21.738281 12.84375 22.003906 C 12.851562 22.265625 12.726562 22.519531 12.511719 22.675781 L 10.390625 24.226562 C 11.652344 24.304688 12.851562 24.25 13.847656 24.050781 C 20.136719 22.796875 24.320312 18.0625 24.320312 10.253906 C 24.320312 9.617188 22.96875 7.398438 20.398438 7.398438 Z M 13.867188 11.148438 C 13.914062 8.519531 15.53125 6.175781 17.972656 5.199219 C 20.410156 4.222656 23.199219 4.804688 25.046875 6.671875 C 25.996094 6.667969 26.800781 6.90625 28.605469 5.8125 C 28.160156 8 27.9375 8.949219 26.988281 10.253906 C 26.988281 20.445312 20.722656 25.398438 14.371094 26.667969 C 10.011719 27.535156 3.675781 26.109375 1.859375 24.210938 C 2.785156 24.140625 6.546875 23.734375 8.71875 22.144531 C 6.878906 20.933594 -0.4375 16.625 4.371094 5.046875 C 6.628906 7.683594 8.917969 9.480469 11.238281 10.429688 C 12.78125 11.0625 13.160156 11.050781 13.867188 11.148438 Z M 13.867188 11.148438 "/>
</g>
</svg>
