<?xml version="1.0" encoding="UTF-8"?>
<svg xmlns="http://www.w3.org/2000/svg" xmlns:xlink="http://www.w3.org/1999/xlink" width="32" height="32" viewBox="0 0 32 32" version="1.1">
<g id="surface1">
<path style=" stroke:none;fill-rule:nonzero;fill:rgb(100%,100%,100%);fill-opacity:1;" d="M 29.332031 16 C 29.332031 23.363281 23.363281 29.332031 16 29.332031 C 8.636719 29.332031 2.667969 23.363281 2.667969 16 C 2.667969 8.636719 8.636719 2.667969 16 2.667969 C 23.363281 2.667969 29.332031 8.636719 29.332031 16 Z M 6.933594 14.21875 C 5.949219 14.21875 5.152344 15.015625 5.152344 16 C 5.152344 16.980469 5.949219 17.777344 6.933594 17.777344 C 7.917969 17.777344 8.714844 16.980469 8.714844 16 C 8.714844 15.015625 7.917969 14.21875 6.933594 14.21875 Z M 19.644531 22.3125 C 19.082031 22.621094 18.730469 23.214844 18.726562 23.855469 C 18.722656 24.5 19.066406 25.09375 19.625 25.414062 C 20.183594 25.730469 20.871094 25.722656 21.421875 25.390625 C 22.253906 24.890625 22.527344 23.816406 22.042969 22.976562 C 21.558594 22.140625 20.492188 21.84375 19.644531 22.3125 Z M 10.800781 16 C 10.800781 14.238281 11.675781 12.6875 13.011719 11.746094 L 11.710938 9.566406 C 10.128906 10.621094 8.992188 12.21875 8.511719 14.058594 C 9.097656 14.535156 9.433594 15.246094 9.433594 16 C 9.433594 16.753906 9.097656 17.464844 8.511719 17.941406 C 8.992188 19.78125 10.128906 21.378906 11.710938 22.433594 L 13.011719 20.253906 C 11.625 19.28125 10.800781 17.695312 10.800781 16 Z M 16 10.800781 C 18.691406 10.800781 20.941406 12.855469 21.179688 15.539062 L 23.714844 15.5 C 23.59375 13.601562 22.777344 11.816406 21.417969 10.484375 C 20.714844 10.753906 19.933594 10.6875 19.28125 10.3125 C 18.632812 9.9375 18.183594 9.289062 18.066406 8.546875 C 16.234375 8.042969 14.277344 8.226562 12.574219 9.066406 L 13.808594 11.285156 C 14.496094 10.964844 15.242188 10.800781 16 10.800781 Z M 16 21.199219 C 15.21875 21.199219 14.476562 21.027344 13.808594 20.714844 L 12.574219 22.933594 C 14.277344 23.777344 16.234375 23.964844 18.066406 23.453125 C 18.183594 22.710938 18.632812 22.0625 19.28125 21.6875 C 19.933594 21.308594 20.714844 21.246094 21.417969 21.511719 C 22.777344 20.183594 23.59375 18.394531 23.714844 16.496094 L 21.179688 16.460938 C 20.941406 19.144531 18.691406 21.199219 16 21.199219 Z M 19.644531 9.6875 C 20.195312 10.019531 20.878906 10.023438 21.4375 9.707031 C 21.992188 9.386719 22.335938 8.792969 22.332031 8.152344 C 22.332031 7.511719 21.984375 6.921875 21.421875 6.605469 C 20.574219 6.132812 19.5 6.425781 19.011719 7.269531 C 18.527344 8.113281 18.804688 9.191406 19.644531 9.6875 Z M 19.644531 9.6875 "/>
</g>
</svg>
