<?xml version="1.0" encoding="UTF-8"?>
<svg xmlns="http://www.w3.org/2000/svg" xmlns:xlink="http://www.w3.org/1999/xlink" width="32" height="32" viewBox="0 0 32 32" version="1.1">
<g id="surface1">
<path style=" stroke:none;fill-rule:nonzero;fill:rgb(100%,100%,100%);fill-opacity:1;" d="M 16 18.667969 L 16 29.332031 L 5.332031 29.332031 C 5.332031 23.441406 10.109375 18.667969 16 18.667969 Z M 24 28.667969 L 20.082031 30.726562 L 20.828125 26.363281 L 17.660156 23.273438 L 22.042969 22.636719 L 24 18.667969 L 25.960938 22.636719 L 30.339844 23.273438 L 27.171875 26.363281 L 27.917969 30.726562 Z M 16 17.332031 C 11.578125 17.332031 8 13.753906 8 9.332031 C 8 4.914062 11.578125 1.332031 16 1.332031 C 20.421875 1.332031 24 4.914062 24 9.332031 C 24 13.753906 20.421875 17.332031 16 17.332031 Z M 16 17.332031 "/>
</g>
</svg>
