<?xml version="1.0" encoding="UTF-8"?>
<svg xmlns="http://www.w3.org/2000/svg" xmlns:xlink="http://www.w3.org/1999/xlink" width="32" height="32" viewBox="0 0 32 32" version="1.1">
<g id="surface1">
<path style=" stroke:none;fill-rule:nonzero;fill:rgb(100%,100%,100%);fill-opacity:1;" d="M 16 22.667969 C 20.882812 22.667969 25.152344 24.765625 27.476562 27.898438 L 25.019531 29.0625 C 23.128906 26.820312 19.796875 25.332031 16 25.332031 C 12.203125 25.332031 8.871094 26.820312 6.980469 29.0625 L 4.523438 27.898438 C 6.847656 24.765625 11.117188 22.667969 16 22.667969 Z M 16 2.667969 C 19.683594 2.667969 22.667969 5.652344 22.667969 9.332031 L 22.667969 13.332031 C 22.667969 16.902344 19.855469 19.839844 16.289062 19.992188 L 16 20 C 12.316406 20 9.332031 17.015625 9.332031 13.332031 L 9.332031 9.332031 C 9.332031 5.765625 12.144531 2.828125 15.710938 2.671875 Z M 16 5.332031 C 13.882812 5.332031 12.132812 6.984375 12.007812 9.097656 L 12 9.332031 L 12 13.332031 C 11.996094 15.5 13.71875 17.273438 15.882812 17.335938 C 18.046875 17.398438 19.867188 15.730469 19.992188 13.566406 L 20 13.332031 L 20 9.332031 C 20 7.125 18.210938 5.332031 16 5.332031 Z M 16 5.332031 "/>
</g>
</svg>
