<?xml version="1.0" encoding="UTF-8"?>
<svg xmlns="http://www.w3.org/2000/svg" xmlns:xlink="http://www.w3.org/1999/xlink" width="32" height="32" viewBox="0 0 32 32" version="1.1">
<g id="surface1">
<path style=" stroke:none;fill-rule:nonzero;fill:rgb(100%,100%,100%);fill-opacity:1;" d="M 15.941406 2.003906 C 11.570312 2.070312 8.058594 5.632812 8.0625 10.003906 C 8.0625 14.421875 11.640625 18.003906 16.0625 18.003906 C 20.480469 18.003906 24.058594 14.421875 24.058594 10.003906 C 24.058594 5.585938 20.480469 2.003906 16.0625 2.003906 C 16.019531 2.003906 15.980469 2.003906 15.941406 2.003906 Z M 8.050781 18.9375 C 6.289062 18.941406 4.824219 19.628906 3.738281 20.605469 C 2.644531 21.585938 1.894531 22.824219 1.363281 24.03125 C 0.296875 26.449219 0.0625 28.832031 0.0625 28.832031 L -0.0546875 29.996094 L 17.625 29.996094 L 16.460938 27.976562 C 15.914062 27.027344 16.238281 25.816406 17.183594 25.261719 L 17.628906 24.996094 L 17.183594 24.742188 C 16.238281 24.1875 15.914062 22.976562 16.460938 22.027344 L 16.480469 21.996094 C 16.339844 22 16.199219 22.003906 16.0625 22.003906 C 13.101562 22.003906 10.25 20.910156 8.050781 18.9375 Z M 8.050781 18.9375 "/>
<path style=" stroke:none;fill-rule:nonzero;fill:rgb(100%,100%,100%);fill-opacity:1;" d="M 23.371094 18 L 23.371094 20.515625 C 23.320312 20.539062 23.269531 20.558594 23.21875 20.582031 C 23.207031 20.585938 23.199219 20.585938 23.191406 20.589844 C 23.152344 20.605469 23.117188 20.625 23.082031 20.640625 C 23.070312 20.644531 23.0625 20.648438 23.054688 20.652344 C 23.007812 20.675781 22.964844 20.695312 22.921875 20.71875 C 22.890625 20.734375 22.859375 20.75 22.828125 20.769531 C 22.804688 20.78125 22.78125 20.792969 22.757812 20.804688 C 22.753906 20.808594 22.75 20.8125 22.746094 20.8125 C 22.707031 20.835938 22.664062 20.859375 22.625 20.882812 C 22.582031 20.910156 22.542969 20.933594 22.503906 20.960938 C 22.492188 20.96875 22.476562 20.976562 22.464844 20.984375 C 22.460938 20.988281 22.457031 20.992188 22.453125 20.992188 C 22.414062 21.019531 22.375 21.046875 22.335938 21.074219 C 22.257812 21.128906 22.183594 21.183594 22.113281 21.242188 L 19.933594 19.984375 L 18.183594 23.015625 L 20.363281 24.277344 C 20.355469 24.332031 20.347656 24.386719 20.339844 24.441406 L 20.339844 24.449219 C 20.335938 24.496094 20.328125 24.542969 20.324219 24.589844 C 20.324219 24.609375 20.324219 24.628906 20.320312 24.648438 C 20.316406 24.6875 20.316406 24.730469 20.3125 24.769531 C 20.3125 24.78125 20.3125 24.789062 20.3125 24.800781 C 20.3125 24.84375 20.308594 24.882812 20.308594 24.925781 C 20.308594 24.949219 20.308594 24.976562 20.308594 25 C 20.308594 25.003906 20.308594 25.007812 20.308594 25.011719 C 20.308594 25.042969 20.308594 25.074219 20.308594 25.109375 C 20.308594 25.136719 20.3125 25.164062 20.3125 25.195312 C 20.3125 25.199219 20.3125 25.203125 20.3125 25.207031 C 20.316406 25.253906 20.316406 25.300781 20.320312 25.34375 C 20.324219 25.402344 20.332031 25.460938 20.335938 25.515625 C 20.34375 25.585938 20.351562 25.65625 20.363281 25.722656 L 18.183594 26.984375 L 19.933594 30.015625 L 22.113281 28.757812 C 22.125 28.765625 22.132812 28.773438 22.144531 28.78125 C 22.179688 28.808594 22.214844 28.835938 22.25 28.863281 C 22.261719 28.871094 22.269531 28.878906 22.28125 28.882812 C 22.316406 28.910156 22.351562 28.9375 22.390625 28.964844 C 22.484375 29.027344 22.582031 29.089844 22.679688 29.148438 C 22.691406 29.15625 22.703125 29.160156 22.714844 29.167969 C 22.851562 29.25 22.996094 29.320312 23.140625 29.386719 L 23.144531 29.386719 C 23.21875 29.421875 23.292969 29.453125 23.367188 29.480469 L 23.371094 29.484375 L 23.371094 32 L 26.871094 32 L 26.871094 29.484375 C 26.921875 29.460938 26.976562 29.441406 27.027344 29.417969 C 27.070312 29.398438 27.117188 29.378906 27.160156 29.359375 C 27.167969 29.355469 27.175781 29.351562 27.1875 29.347656 C 27.230469 29.324219 27.273438 29.304688 27.3125 29.28125 C 27.324219 29.277344 27.332031 29.273438 27.339844 29.269531 C 27.355469 29.261719 27.371094 29.253906 27.386719 29.246094 C 27.421875 29.226562 27.457031 29.207031 27.492188 29.1875 C 27.542969 29.160156 27.589844 29.128906 27.640625 29.097656 C 27.6875 29.066406 27.738281 29.039062 27.785156 29.003906 C 27.832031 28.972656 27.878906 28.941406 27.925781 28.90625 C 27.964844 28.878906 28.003906 28.851562 28.042969 28.824219 C 28.050781 28.816406 28.058594 28.808594 28.066406 28.804688 C 28.085938 28.789062 28.105469 28.773438 28.125 28.757812 L 30.304688 30.015625 L 32.054688 26.984375 L 29.878906 25.726562 C 29.878906 25.707031 29.882812 25.683594 29.886719 25.664062 C 29.886719 25.660156 29.886719 25.65625 29.886719 25.652344 C 29.890625 25.632812 29.894531 25.609375 29.894531 25.589844 C 29.898438 25.574219 29.898438 25.558594 29.902344 25.542969 C 29.90625 25.503906 29.910156 25.464844 29.914062 25.421875 L 29.914062 25.417969 C 29.914062 25.414062 29.914062 25.410156 29.914062 25.40625 C 29.917969 25.359375 29.921875 25.308594 29.921875 25.261719 C 29.925781 25.253906 29.925781 25.25 29.925781 25.246094 C 29.925781 25.210938 29.929688 25.171875 29.929688 25.136719 C 29.929688 25.128906 29.929688 25.117188 29.929688 25.109375 C 29.929688 25.074219 29.933594 25.035156 29.933594 25 C 29.933594 24.996094 29.933594 24.992188 29.933594 24.988281 C 29.933594 24.980469 29.933594 24.972656 29.933594 24.964844 C 29.933594 24.917969 29.929688 24.871094 29.929688 24.828125 C 29.929688 24.816406 29.929688 24.804688 29.925781 24.792969 C 29.925781 24.746094 29.921875 24.699219 29.917969 24.65625 C 29.914062 24.597656 29.910156 24.539062 29.902344 24.484375 C 29.894531 24.414062 29.886719 24.34375 29.878906 24.277344 L 32.054688 23.015625 L 30.304688 19.984375 L 28.125 21.242188 C 28.082031 21.207031 28.035156 21.171875 27.988281 21.136719 C 27.980469 21.128906 27.96875 21.121094 27.960938 21.117188 C 27.921875 21.089844 27.886719 21.0625 27.847656 21.035156 C 27.753906 20.972656 27.65625 20.910156 27.558594 20.851562 C 27.546875 20.84375 27.535156 20.839844 27.527344 20.832031 C 27.386719 20.75 27.246094 20.679688 27.097656 20.613281 L 27.09375 20.609375 C 27.023438 20.578125 26.949219 20.546875 26.875 20.519531 L 26.871094 20.515625 L 26.871094 18 Z M 25.121094 22.8125 C 26.328125 22.8125 27.308594 23.792969 27.308594 25 C 27.308594 26.207031 26.328125 27.1875 25.121094 27.1875 C 23.910156 27.1875 22.933594 26.207031 22.933594 25 C 22.933594 23.792969 23.910156 22.8125 25.121094 22.8125 Z M 25.121094 22.8125 "/>
</g>
</svg>
