<?xml version="1.0" encoding="UTF-8"?>
<svg xmlns="http://www.w3.org/2000/svg" xmlns:xlink="http://www.w3.org/1999/xlink" width="32" height="32" viewBox="0 0 32 32" version="1.1">
<g id="surface1">
<path style=" stroke:none;fill-rule:evenodd;fill:rgb(100%,100%,100%);fill-opacity:1;" d="M 26 14 L 26 18 L 16 18 L 16 14 Z M 26 14 "/>
<path style=" stroke:none;fill-rule:evenodd;fill:rgb(100%,100%,100%);fill-opacity:1;" d="M 28 8 L 28 24 C 28 25.105469 27.105469 26 26 26 C 24.894531 26 24 25.105469 24 24 L 24 8 C 24 6.894531 24.894531 6 26 6 C 27.105469 6 28 6.894531 28 8 Z M 28 8 "/>
<path style=" stroke:none;fill-rule:evenodd;fill:rgb(100%,100%,100%);fill-opacity:1;" d="M 26 20 C 23.789062 20 22 18.210938 22 16 C 22 13.789062 23.789062 12 26 12 C 28.210938 12 30 13.789062 30 16 C 30 18.210938 28.210938 20 26 20 Z M 26 20 "/>
<path style=" stroke:none;fill-rule:evenodd;fill:rgb(100%,100%,100%);fill-opacity:1;" d="M 20 12 L 20 20 C 20 22.210938 18.210938 24 16 24 L 8 24 C 5.789062 24 4 22.210938 4 20 L 4 12 C 4 9.789062 5.789062 8 8 8 L 16 8 C 18.210938 8 20 9.789062 20 12 Z M 20 12 "/>
<path style=" stroke:none;fill-rule:evenodd;fill:rgb(100%,100%,100%);fill-opacity:1;" d="M 16 0 L 16 32 L 8 32 L 8 0 Z M 16 0 "/>
</g>
</svg>
