<?xml version="1.0" encoding="UTF-8"?>
<svg xmlns="http://www.w3.org/2000/svg" xmlns:xlink="http://www.w3.org/1999/xlink" width="32" height="32" viewBox="0 0 32 32" version="1.1">
<g id="surface1">
<path style=" stroke:none;fill-rule:nonzero;fill:rgb(100%,100%,100%);fill-opacity:1;" d="M 4 5.324219 C 4 4.59375 4.59375 4 5.324219 4 L 26.675781 4 C 27.40625 4 28 4.59375 28 5.324219 L 28 26.675781 C 28 27.40625 27.40625 28 26.675781 28 L 5.324219 28 C 4.59375 28 4 27.40625 4 26.675781 Z M 14.164062 11.21875 C 14 11.109375 13.789062 11.101562 13.617188 11.191406 C 13.441406 11.285156 13.332031 11.464844 13.332031 11.664062 L 13.332031 20.335938 C 13.332031 20.535156 13.441406 20.714844 13.617188 20.808594 C 13.789062 20.898438 14 20.890625 14.164062 20.78125 L 20.667969 16.445312 C 20.816406 16.34375 20.90625 16.179688 20.90625 16 C 20.90625 15.820312 20.816406 15.65625 20.667969 15.554688 L 14.160156 11.21875 Z M 14.164062 11.21875 "/>
</g>
</svg>
