<?xml version="1.0" encoding="UTF-8"?>
<svg xmlns="http://www.w3.org/2000/svg" xmlns:xlink="http://www.w3.org/1999/xlink" width="32" height="32" viewBox="0 0 32 32" version="1.1">
<g id="surface1">
<path style=" stroke:none;fill-rule:nonzero;fill:rgb(100%,100%,100%);fill-opacity:1;" d="M 4 4 L 28 4 C 28.738281 4 29.332031 4.597656 29.332031 5.332031 L 29.332031 26.667969 C 29.332031 27.402344 28.738281 28 28 28 L 4 28 C 3.261719 28 2.667969 27.402344 2.667969 26.667969 L 2.667969 5.332031 C 2.667969 4.597656 3.261719 4 4 4 Z M 14.667969 11.332031 L 14.667969 20.667969 L 17.332031 20.667969 L 17.332031 11.332031 Z M 14.285156 11.332031 L 11.46875 11.332031 L 9.472656 16.816406 L 7.476562 11.332031 L 4.65625 11.332031 L 8.136719 20.617188 L 10.804688 20.617188 Z M 21.332031 18 L 23.332031 18 C 25.175781 18 26.667969 16.507812 26.667969 14.667969 C 26.667969 12.824219 25.175781 11.332031 23.332031 11.332031 L 18.667969 11.332031 L 18.667969 20.667969 L 21.332031 20.667969 Z M 21.332031 15.332031 L 21.332031 14 L 23.332031 14 C 23.703125 14 24 14.296875 24 14.667969 C 24 15.035156 23.703125 15.332031 23.332031 15.332031 Z M 21.332031 15.332031 "/>
</g>
</svg>
