<?xml version="1.0" encoding="UTF-8"?>
<svg xmlns="http://www.w3.org/2000/svg" xmlns:xlink="http://www.w3.org/1999/xlink" width="32" height="32" viewBox="0 0 32 32" version="1.1">
<g id="surface1">
<path style=" stroke:none;fill-rule:nonzero;fill:rgb(100%,100%,100%);fill-opacity:1;" d="M 18.289062 2.597656 L 23.269531 4.507812 L 22.3125 6.996094 L 21.066406 6.519531 L 20.070312 9.113281 C 21.109375 9.726562 21.996094 10.570312 22.664062 11.574219 L 25.203125 10.445312 L 24.660156 9.226562 L 27.097656 8.140625 L 29.265625 13.011719 L 26.828125 14.097656 L 26.285156 12.878906 L 23.75 14.007812 C 23.914062 14.644531 24 15.3125 24 16 C 24 16.542969 23.945312 17.070312 23.84375 17.582031 L 26.4375 18.578125 L 26.914062 17.332031 L 29.402344 18.289062 L 27.492188 23.269531 L 25.003906 22.3125 L 25.480469 21.066406 L 22.886719 20.070312 C 22.273438 21.109375 21.429688 21.996094 20.425781 22.664062 L 21.554688 25.203125 L 22.773438 24.660156 L 23.859375 27.097656 L 18.988281 29.265625 L 17.902344 26.828125 L 19.121094 26.285156 L 17.992188 23.75 C 17.355469 23.914062 16.6875 24 16 24 C 15.457031 24 14.929688 23.945312 14.414062 23.84375 L 13.421875 26.4375 L 14.667969 26.914062 L 13.710938 29.402344 L 8.730469 27.492188 L 9.6875 25.003906 L 10.929688 25.480469 L 11.929688 22.886719 C 10.890625 22.273438 10.003906 21.429688 9.332031 20.425781 L 6.796875 21.554688 L 7.339844 22.773438 L 4.902344 23.859375 L 2.734375 18.988281 L 5.167969 17.902344 L 5.710938 19.121094 L 8.246094 17.992188 C 8.085938 17.355469 8 16.6875 8 16 C 8 15.457031 8.054688 14.929688 8.15625 14.417969 L 5.5625 13.421875 L 5.085938 14.667969 L 2.597656 13.710938 L 4.507812 8.734375 L 6.996094 9.6875 L 6.519531 10.933594 L 9.113281 11.929688 C 9.726562 10.890625 10.570312 10.003906 11.574219 9.332031 L 10.445312 6.796875 L 9.226562 7.339844 L 8.140625 4.902344 L 13.011719 2.734375 L 14.097656 5.171875 L 12.878906 5.714844 L 14.007812 8.25 C 14.644531 8.085938 15.3125 8 16 8 C 16.542969 8 17.070312 8.054688 17.582031 8.15625 L 18.574219 5.5625 L 17.332031 5.085938 Z M 13.511719 17.644531 C 13.144531 18.28125 13.363281 19.097656 14 19.464844 C 14.636719 19.832031 15.453125 19.613281 15.820312 18.976562 C 16.1875 18.339844 15.96875 17.523438 15.332031 17.15625 C 14.695312 16.785156 13.878906 17.003906 13.511719 17.644531 Z M 18.667969 14.667969 C 17.929688 14.667969 17.332031 15.265625 17.332031 16 C 17.332031 16.734375 17.929688 17.332031 18.667969 17.332031 C 19.402344 17.332031 20 16.734375 20 16 C 20 15.265625 19.402344 14.667969 18.667969 14.667969 Z M 14 12.535156 C 13.363281 12.902344 13.144531 13.71875 13.511719 14.355469 C 13.878906 14.996094 14.695312 15.214844 15.332031 14.84375 C 15.96875 14.476562 16.1875 13.660156 15.820312 13.023438 C 15.453125 12.386719 14.636719 12.167969 14 12.535156 Z M 14 12.535156 "/>
</g>
</svg>
