<?xml version="1.0" encoding="UTF-8"?>
<svg xmlns="http://www.w3.org/2000/svg" xmlns:xlink="http://www.w3.org/1999/xlink" width="32" height="32" viewBox="0 0 32 32" version="1.1">
<g id="surface1">
<path style=" stroke:none;fill-rule:evenodd;fill:rgb(100%,100%,100%);fill-opacity:1;" d="M 4 4 C 1.785156 4 0 5.785156 0 8 L 0 24 C 0 26.214844 1.785156 28 4 28 L 28 28 C 30.214844 28 32 26.214844 32 24 L 32 8 C 32 5.785156 30.214844 4 28 4 Z M 8.902344 12 C 8.933594 12 8.96875 12 9 12 C 11.207031 12 13 13.789062 13 16 C 13 16.410156 12.9375 16.8125 12.8125 17.203125 L 19.1875 17.203125 C 19.0625 16.8125 19 16.410156 19 16 C 19 13.789062 20.789062 12 23 12 C 25.210938 12 27 13.789062 27 16 C 27 18.210938 25.210938 20 23 20 L 9.097656 20 C 9.066406 20 9.03125 20 9 20 C 6.789062 20 5 18.210938 5 16 C 5 13.828125 6.730469 12.054688 8.902344 12 Z M 8.902344 12 "/>
</g>
</svg>
