<?xml version="1.0" encoding="UTF-8"?>
<svg xmlns="http://www.w3.org/2000/svg" xmlns:xlink="http://www.w3.org/1999/xlink" width="32" height="32" viewBox="0 0 32 32" version="1.1">
<g id="surface1">
<path style=" stroke:none;fill-rule:nonzero;fill:rgb(100%,100%,100%);fill-opacity:1;" d="M 10.15625 11.617188 L 14.429688 8.511719 C 14.910156 8.160156 15.492188 7.980469 16.085938 8 C 17.570312 8.035156 18.871094 9.011719 19.324219 10.425781 C 19.570312 11.203125 19.796875 11.730469 20.003906 12.003906 C 21.261719 13.679688 23.234375 14.667969 25.332031 14.667969 L 25.332031 17.332031 C 22.546875 17.335938 19.902344 16.089844 18.128906 13.9375 L 17.203125 19.210938 L 19.949219 21.515625 L 22.914062 29.660156 L 20.40625 30.574219 L 17.6875 23.101562 L 13.167969 19.308594 C 12.410156 18.699219 12.046875 17.726562 12.214844 16.769531 L 12.894531 12.921875 L 11.992188 13.578125 L 9.15625 17.484375 L 7 15.914062 L 10.132812 11.601562 Z M 18 7.332031 C 16.527344 7.332031 15.332031 6.140625 15.332031 4.667969 C 15.332031 3.195312 16.527344 2 18 2 C 19.472656 2 20.667969 3.195312 20.667969 4.667969 C 20.667969 6.140625 19.472656 7.332031 18 7.332031 Z M 14.039062 24.90625 L 9.753906 30.015625 L 7.710938 28.300781 L 11.675781 23.574219 L 12.671875 20.667969 L 15.058594 22.667969 Z M 14.039062 24.90625 "/>
</g>
</svg>
