<?xml version="1.0" encoding="UTF-8"?>
<svg xmlns="http://www.w3.org/2000/svg" xmlns:xlink="http://www.w3.org/1999/xlink" width="32" height="32" viewBox="0 0 32 32" version="1.1">
<g id="surface1">
<path style=" stroke:none;fill-rule:nonzero;fill:rgb(100%,100%,100%);fill-opacity:1;" d="M 29.332031 9.332031 L 30.667969 9.332031 L 30.667969 22.667969 L 29.332031 22.667969 L 29.332031 26.667969 C 29.332031 27.402344 28.738281 28 28 28 L 4 28 C 3.261719 28 2.667969 27.402344 2.667969 26.667969 L 2.667969 5.332031 C 2.667969 4.597656 3.261719 4 4 4 L 28 4 C 28.738281 4 29.332031 4.597656 29.332031 5.332031 Z M 26.667969 22.667969 L 18.667969 22.667969 C 14.984375 22.667969 12 19.683594 12 16 C 12 12.316406 14.984375 9.332031 18.667969 9.332031 L 26.667969 9.332031 L 26.667969 6.667969 L 5.332031 6.667969 L 5.332031 25.332031 L 26.667969 25.332031 Z M 28 20 L 28 12 L 18.667969 12 C 16.457031 12 14.667969 13.789062 14.667969 16 C 14.667969 18.210938 16.457031 20 18.667969 20 Z M 18.667969 14.667969 L 22.667969 14.667969 L 22.667969 17.332031 L 18.667969 17.332031 Z M 18.667969 14.667969 "/>
</g>
</svg>
