<?xml version="1.0" encoding="UTF-8"?>
<svg xmlns="http://www.w3.org/2000/svg" xmlns:xlink="http://www.w3.org/1999/xlink" width="32" height="32" viewBox="0 0 32 32" version="1.1">
<g id="surface1">
<path style=" stroke:none;fill-rule:evenodd;fill:rgb(100%,100%,100%);fill-opacity:1;" d="M 8 0 C 5.785156 0 4 1.785156 4 4 L 4 28 C 4 30.214844 5.785156 32 8 32 L 24 32 C 26.214844 32 28 30.214844 28 28 L 28 4 C 28 1.785156 26.214844 0 24 0 Z M 17.175781 2.914062 C 18.28125 2.914062 19.175781 3.808594 19.175781 4.914062 C 19.175781 6.019531 18.28125 6.914062 17.175781 6.914062 C 16.070312 6.914062 15.175781 6.019531 15.175781 4.914062 C 15.175781 3.808594 16.070312 2.914062 17.175781 2.914062 Z M 23.175781 2.914062 C 24.28125 2.914062 25.175781 3.808594 25.175781 4.914062 C 25.175781 6.019531 24.28125 6.914062 23.175781 6.914062 C 22.070312 6.914062 21.175781 6.019531 21.175781 4.914062 C 21.175781 3.808594 22.070312 2.914062 23.175781 2.914062 Z M 15.878906 12 C 15.917969 12 15.960938 12 16 12 C 20.417969 12 24 15.582031 24 20 C 24 24.417969 20.417969 28 16 28 C 11.582031 28 8 24.417969 8 20 C 8 15.628906 11.507812 12.066406 15.878906 12 Z M 15.878906 12 "/>
<path style=" stroke:none;fill-rule:evenodd;fill:rgb(100%,100%,100%);fill-opacity:1;" d="M 21.617188 22.050781 C 20.890625 24.070312 19.148438 25.546875 17.039062 25.929688 C 14.929688 26.3125 12.777344 25.539062 11.390625 23.902344 C 10.003906 22.269531 9.597656 20.019531 10.320312 18 "/>
</g>
</svg>
