<?xml version="1.0" encoding="UTF-8"?>
<svg xmlns="http://www.w3.org/2000/svg" xmlns:xlink="http://www.w3.org/1999/xlink" width="32" height="32" viewBox="0 0 32 32" version="1.1">
<g id="surface1">
<path style=" stroke:none;fill-rule:nonzero;fill:rgb(100%,100%,100%);fill-opacity:1;" d="M 22.070312 23.015625 C 21.667969 22.992188 21.273438 23.132812 20.976562 23.40625 C 20.679688 23.679688 20.507812 24.058594 20.492188 24.460938 C 20.492188 24.480469 20.507812 24.488281 20.507812 24.507812 L 20.492188 24.507812 C 20.492188 26.257812 20.082031 27.285156 19.429688 27.929688 C 18.777344 28.578125 17.710938 28.992188 15.914062 28.992188 C 14.210938 28.992188 13.1875 28.59375 12.550781 27.945312 C 11.910156 27.300781 11.5 26.257812 11.5 24.507812 C 11.5 23.675781 10.828125 23 9.996094 23 C 9.164062 23 8.488281 23.675781 8.488281 24.507812 C 8.488281 26.257812 8.085938 27.300781 7.441406 27.945312 C 6.792969 28.59375 5.75 28.992188 4 28.992188 C 3.601562 28.992188 3.21875 29.152344 2.933594 29.433594 C 2.652344 29.714844 2.492188 30.101562 2.496094 30.5 C 2.492188 30.898438 2.652344 31.285156 2.933594 31.566406 C 3.21875 31.847656 3.601562 32.007812 4 32.007812 C 6.25 32.007812 8.199219 31.410156 9.550781 30.058594 C 9.855469 29.753906 9.765625 29.175781 9.996094 28.816406 C 10.222656 29.175781 10.125 29.753906 10.421875 30.058594 C 11.761719 31.410156 13.699219 32.007812 15.914062 32.007812 C 18.199219 32.007812 20.171875 31.425781 21.539062 30.070312 C 21.851562 29.761719 21.75 29.171875 21.984375 28.800781 C 22.214844 29.164062 22.105469 29.753906 22.410156 30.058594 C 23.777344 31.414062 25.75 32.007812 28.007812 32.007812 C 28.835938 32 29.5 31.328125 29.496094 30.5 C 29.5 29.671875 28.835938 29 28.007812 28.992188 C 26.253906 28.992188 25.179688 28.582031 24.523438 27.929688 C 23.867188 27.28125 23.449219 26.257812 23.488281 24.535156 L 23.472656 24.535156 C 23.472656 24.523438 23.488281 24.519531 23.488281 24.507812 C 23.484375 23.710938 22.863281 23.058594 22.070312 23.015625 Z M 22.070312 23.015625 "/>
<path style=" stroke:none;fill-rule:nonzero;fill:rgb(100%,100%,100%);fill-opacity:1;" d="M 10.070312 12.015625 C 9.976562 12.011719 9.882812 12.015625 9.789062 12.03125 C 9.410156 12.085938 9.066406 12.289062 8.828125 12.589844 C 8.765625 12.664062 8.710938 12.742188 8.667969 12.828125 C 8.554688 13.035156 8.492188 13.269531 8.488281 13.507812 C 8.488281 15.257812 8.085938 16.285156 7.441406 16.933594 C 6.792969 17.578125 5.75 17.996094 4 17.996094 C 3.601562 17.992188 3.21875 18.152344 2.933594 18.433594 C 2.652344 18.71875 2.492188 19.101562 2.496094 19.5 C 2.492188 19.902344 2.652344 20.285156 2.933594 20.566406 C 3.21875 20.851562 3.601562 21.007812 4 21.007812 C 6.25 21.007812 8.199219 20.410156 9.550781 19.058594 C 9.855469 18.753906 9.765625 18.179688 9.996094 17.816406 C 10.222656 18.175781 10.125 18.757812 10.421875 19.058594 C 11.761719 20.410156 13.699219 21.007812 15.914062 21.007812 C 18.199219 21.007812 20.171875 20.425781 21.539062 19.074219 C 21.851562 18.765625 21.75 18.171875 21.984375 17.804688 C 22.214844 18.164062 22.105469 18.753906 22.410156 19.058594 C 23.777344 20.414062 25.75 21.007812 28.007812 21.007812 C 28.835938 21.003906 29.5 20.328125 29.496094 19.5 C 29.5 18.671875 28.835938 18 28.007812 17.996094 C 26.253906 17.996094 25.179688 17.582031 24.523438 16.933594 C 23.867188 16.28125 23.449219 15.257812 23.488281 13.535156 L 23.472656 13.535156 C 23.472656 13.523438 23.488281 13.519531 23.488281 13.507812 C 23.464844 12.703125 22.816406 12.0625 22.011719 12.050781 C 21.210938 12.039062 20.539062 12.660156 20.492188 13.460938 C 20.492188 13.480469 20.507812 13.488281 20.507812 13.507812 L 20.492188 13.507812 C 20.492188 15.257812 20.082031 16.285156 19.429688 16.933594 C 18.777344 17.578125 17.710938 17.996094 15.914062 17.996094 C 14.210938 17.996094 13.1875 17.59375 12.550781 16.945312 C 11.910156 16.300781 11.5 15.257812 11.5 13.507812 C 11.5 13.40625 11.492188 13.308594 11.472656 13.210938 C 11.449219 13.121094 11.421875 13.03125 11.382812 12.945312 C 11.347656 12.859375 11.300781 12.773438 11.25 12.695312 C 11.199219 12.617188 11.140625 12.542969 11.074219 12.472656 C 10.808594 12.199219 10.449219 12.035156 10.070312 12.015625 Z M 10.070312 12.015625 "/>
<path style=" stroke:none;fill-rule:nonzero;fill:rgb(100%,100%,100%);fill-opacity:1;" d="M 18.5 14 L 14.5 14 L 14.5 8 L 11.5 8 L 16.5 0 L 21.5 8 L 18.5 8 Z M 18.5 14 "/>
</g>
</svg>
