<?xml version="1.0" encoding="UTF-8"?>
<svg xmlns="http://www.w3.org/2000/svg" xmlns:xlink="http://www.w3.org/1999/xlink" width="32" height="32" viewBox="0 0 32 32" version="1.1">
<g id="surface1">
<path style=" stroke:none;fill-rule:nonzero;fill:rgb(100%,100%,100%);fill-opacity:1;" d="M 5.542969 0 C 4.957031 -0.00390625 4.480469 0.46875 4.472656 1.054688 L 4.472656 3.195312 C 4.472656 3.480469 4.585938 3.753906 4.785156 3.953125 C 4.988281 4.15625 5.261719 4.269531 5.542969 4.265625 L 6.617188 4.265625 L 6.617188 11.417969 C 5.503906 12.359375 4.566406 13.34375 4.207031 14.441406 C 3.785156 15.738281 3.917969 17.066406 4.347656 18.300781 C 5.140625 20.570312 6.9375 22.640625 8.632812 24.679688 L 6.664062 30.601562 C 6.558594 30.925781 6.613281 31.28125 6.8125 31.558594 C 7.011719 31.832031 7.332031 32 7.671875 32 L 24.746094 32 C 25.085938 32 25.40625 31.832031 25.605469 31.558594 C 25.804688 31.28125 25.859375 30.925781 25.753906 30.601562 L 23.78125 24.679688 C 24.765625 22.921875 26.398438 21.359375 27.390625 19.308594 C 27.917969 18.21875 28.210938 16.941406 27.957031 15.542969 C 27.730469 14.289062 26.9375 12.945312 25.816406 11.511719 L 25.816406 4.265625 L 26.886719 4.265625 C 27.472656 4.257812 27.941406 3.78125 27.941406 3.195312 L 27.941406 1.054688 C 27.933594 0.476562 27.464844 0.0078125 26.886719 0 Z M 10.597656 3.195312 L 12.765625 3.195312 C 13.371094 3.195312 13.867188 3.6875 13.867188 4.296875 L 13.867188 4.328125 C 13.867188 4.882812 13.417969 5.328125 12.867188 5.328125 L 10.699219 5.328125 C 10.089844 5.328125 9.597656 4.835938 9.597656 4.230469 L 9.597656 4.195312 C 9.597656 3.644531 10.046875 3.195312 10.597656 3.195312 Z M 15.703125 13.167969 C 15.800781 13.167969 15.898438 13.167969 16 13.167969 C 20.371094 13.167969 23.917969 14.050781 23.917969 15.144531 C 23.917969 16.238281 20.371094 17.125 16 17.125 C 11.625 17.125 8.078125 16.238281 8.078125 15.144531 C 8.078125 14.082031 11.445312 13.207031 15.703125 13.167969 Z M 15.703125 13.167969 "/>
</g>
</svg>
