<?xml version="1.0" encoding="UTF-8"?>
<svg xmlns="http://www.w3.org/2000/svg" xmlns:xlink="http://www.w3.org/1999/xlink" width="32" height="32" viewBox="0 0 32 32" version="1.1">
<g id="surface1">
<path style=" stroke:none;fill-rule:nonzero;fill:rgb(100%,100%,100%);fill-opacity:1;" d="M 12.359375 19.558594 C 11.9375 19.773438 11.417969 19.617188 11.1875 19.199219 L 11.128906 19.074219 L 8.707031 13.742188 C 8.695312 13.679688 8.695312 13.613281 8.707031 13.550781 C 8.703125 13.429688 8.753906 13.320312 8.835938 13.238281 C 8.921875 13.152344 9.035156 13.109375 9.152344 13.113281 C 9.246094 13.109375 9.339844 13.140625 9.414062 13.199219 L 12.320312 15.234375 C 12.535156 15.378906 12.789062 15.457031 13.046875 15.457031 C 13.203125 15.460938 13.359375 15.429688 13.503906 15.371094 L 26.898438 9.371094 C 24.121094 6.300781 20.144531 4.585938 16.003906 4.667969 C 8.636719 4.667969 2.667969 9.644531 2.667969 15.828125 C 2.753906 19.207031 4.472656 22.335938 7.28125 24.222656 C 7.582031 24.445312 7.710938 24.832031 7.601562 25.191406 L 7 27.457031 C 6.964844 27.5625 6.941406 27.667969 6.933594 27.777344 C 6.929688 27.898438 6.976562 28.011719 7.058594 28.097656 C 7.144531 28.179688 7.257812 28.226562 7.378906 28.222656 C 7.46875 28.21875 7.554688 28.191406 7.628906 28.148438 L 10.539062 26.460938 C 10.75 26.328125 10.996094 26.257812 11.246094 26.257812 C 11.378906 26.257812 11.507812 26.277344 11.632812 26.316406 C 13.050781 26.714844 14.511719 26.917969 15.984375 26.914062 C 23.351562 26.914062 29.332031 21.941406 29.332031 15.808594 C 29.347656 13.976562 28.839844 12.183594 27.871094 10.628906 L 12.464844 19.5 Z M 12.359375 19.558594 "/>
</g>
</svg>
