<?xml version="1.0" encoding="UTF-8"?>
<svg xmlns="http://www.w3.org/2000/svg" xmlns:xlink="http://www.w3.org/1999/xlink" width="32" height="32" viewBox="0 0 32 32" version="1.1">
<g id="surface1">
<path style=" stroke:none;fill-rule:nonzero;fill:rgb(100%,100%,100%);fill-opacity:1;" d="M 13.332031 19.566406 L 13.332031 19.484375 C 13.332031 16.140625 16.019531 13.328125 19.671875 12.507812 C 19.183594 9.4375 15.945312 6.933594 11.867188 6.933594 C 7.441406 6.933594 4 9.882812 4 13.308594 C 4 14.597656 4.480469 15.839844 5.386719 16.902344 C 5.429688 16.953125 5.496094 17.03125 5.589844 17.125 C 6.375 17.929688 6.847656 18.988281 6.925781 20.109375 C 7.878906 19.558594 8.988281 19.347656 10.074219 19.519531 C 10.296875 19.554688 10.480469 19.578125 10.617188 19.597656 C 11.519531 19.714844 12.433594 19.707031 13.332031 19.566406 Z M 13.941406 22.167969 C 12.730469 22.378906 11.492188 22.402344 10.273438 22.242188 C 10.070312 22.214844 9.867188 22.183594 9.667969 22.152344 C 9.167969 22.074219 8.660156 22.175781 8.226562 22.4375 L 5.6875 23.964844 C 5.492188 24.085938 5.261719 24.140625 5.035156 24.121094 C 4.753906 24.101562 4.496094 23.96875 4.3125 23.757812 C 4.128906 23.542969 4.039062 23.265625 4.0625 22.988281 L 4.261719 20.613281 C 4.3125 20.011719 4.097656 19.414062 3.675781 18.984375 C 3.566406 18.871094 3.460938 18.753906 3.355469 18.632812 C 2.085938 17.140625 1.332031 15.296875 1.332031 13.304688 C 1.332031 8.3125 6.050781 4.265625 11.867188 4.265625 C 17.28125 4.265625 21.738281 7.769531 22.332031 12.277344 C 26.828125 12.480469 30.398438 15.628906 30.398438 19.484375 C 30.398438 21.074219 29.792969 22.546875 28.761719 23.738281 C 28.691406 23.820312 28.605469 23.910156 28.5 24.019531 C 28.160156 24.363281 27.988281 24.835938 28.027344 25.320312 L 28.1875 27.21875 C 28.203125 27.441406 28.128906 27.664062 27.984375 27.835938 C 27.835938 28.003906 27.625 28.109375 27.402344 28.125 C 27.214844 28.140625 27.03125 28.09375 26.871094 28 L 24.816406 26.777344 C 24.464844 26.570312 24.050781 26.488281 23.648438 26.550781 C 23.453125 26.582031 23.289062 26.605469 23.160156 26.621094 C 22.738281 26.675781 22.304688 26.703125 21.867188 26.703125 C 18.273438 26.703125 15.203125 24.828125 13.941406 22.167969 Z M 23.246094 23.914062 C 23.996094 23.800781 24.765625 23.878906 25.480469 24.148438 C 25.667969 23.390625 26.054688 22.699219 26.601562 22.144531 C 26.667969 22.078125 26.71875 22.023438 26.742188 21.996094 C 27.394531 21.242188 27.734375 20.378906 27.734375 19.484375 C 27.734375 17.078125 25.195312 14.933594 21.867188 14.933594 C 18.539062 14.933594 16 17.078125 16 19.484375 C 16 21.890625 18.539062 24.039062 21.867188 24.039062 C 22.1875 24.039062 22.507812 24.015625 22.820312 23.976562 C 22.925781 23.960938 23.070312 23.941406 23.246094 23.914062 Z M 23.246094 23.914062 "/>
</g>
</svg>
