<?xml version="1.0" encoding="UTF-8"?>
<svg xmlns="http://www.w3.org/2000/svg" xmlns:xlink="http://www.w3.org/1999/xlink" width="32" height="32" viewBox="0 0 32 32" version="1.1">
<g id="surface1">
<path style=" stroke:none;fill-rule:nonzero;fill:rgb(100%,100%,100%);fill-opacity:1;" d="M 24.765625 18.28125 C 25.421875 18.273438 25.953125 17.742188 25.960938 17.085938 C 25.960938 16.421875 25.429688 15.886719 24.765625 15.886719 C 24.101562 15.886719 23.566406 16.421875 23.566406 17.085938 C 23.566406 17.75 24.101562 18.28125 24.765625 18.28125 Z M 18.867188 18.28125 C 19.523438 18.273438 20.054688 17.742188 20.0625 17.085938 C 20.0625 16.421875 19.53125 15.886719 18.867188 15.886719 C 18.199219 15.886719 17.667969 16.421875 17.667969 17.085938 C 17.667969 17.75 18.199219 18.28125 18.867188 18.28125 Z M 27.621094 25 C 27.445312 25.097656 27.351562 25.296875 27.390625 25.496094 C 27.390625 25.558594 27.390625 25.625 27.425781 25.691406 C 27.554688 26.246094 27.816406 27.132812 27.816406 27.164062 C 27.816406 27.261719 27.851562 27.328125 27.851562 27.394531 C 27.851562 27.472656 27.820312 27.546875 27.765625 27.601562 C 27.707031 27.65625 27.632812 27.6875 27.554688 27.6875 C 27.488281 27.6875 27.457031 27.65625 27.390625 27.625 L 25.460938 26.507812 C 25.320312 26.433594 25.164062 26.386719 25 26.378906 C 24.902344 26.378906 24.804688 26.378906 24.738281 26.410156 C 23.824219 26.671875 22.875 26.804688 21.859375 26.804688 C 16.980469 26.804688 13.050781 23.527344 13.050781 19.464844 C 13.050781 15.402344 16.980469 12.125 21.859375 12.125 C 26.738281 12.125 30.667969 15.402344 30.667969 19.464844 C 30.667969 21.660156 29.488281 23.660156 27.621094 25.003906 Z M 22.230469 10.796875 C 22.105469 10.792969 21.980469 10.792969 21.855469 10.792969 C 16.292969 10.792969 11.714844 14.605469 11.714844 19.464844 C 11.714844 20.203125 11.824219 20.917969 12.019531 21.597656 L 11.902344 21.597656 C 10.738281 21.585938 9.578125 21.421875 8.457031 21.109375 C 8.355469 21.074219 8.257812 21.074219 8.160156 21.074219 C 7.964844 21.078125 7.769531 21.136719 7.601562 21.238281 L 5.273438 22.578125 C 5.207031 22.613281 5.140625 22.644531 5.074219 22.644531 C 4.875 22.644531 4.71875 22.484375 4.714844 22.285156 C 4.714844 22.1875 4.746094 22.121094 4.78125 22.023438 C 4.8125 21.992188 5.109375 20.910156 5.273438 20.257812 C 5.273438 20.191406 5.304688 20.09375 5.304688 20.027344 C 5.304688 19.796875 5.195312 19.578125 5.007812 19.4375 C 2.742188 17.835938 1.332031 15.449219 1.332031 12.796875 C 1.332031 7.925781 6.09375 4 11.933594 4 C 16.953125 4 21.171875 6.890625 22.230469 10.796875 Z M 15.359375 11.355469 C 16.121094 11.355469 16.726562 10.71875 16.726562 9.988281 C 16.726562 9.222656 16.121094 8.621094 15.359375 8.621094 C 14.59375 8.621094 13.992188 9.222656 13.992188 9.988281 C 13.992188 10.753906 14.59375 11.355469 15.359375 11.355469 Z M 8.34375 11.355469 C 9.109375 11.355469 9.714844 10.71875 9.714844 9.988281 C 9.714844 9.222656 9.109375 8.621094 8.34375 8.621094 C 7.582031 8.621094 6.976562 9.222656 6.976562 9.988281 C 6.976562 10.753906 7.582031 11.355469 8.34375 11.355469 Z M 8.34375 11.355469 "/>
</g>
</svg>
