<?xml version="1.0" encoding="UTF-8"?>
<svg xmlns="http://www.w3.org/2000/svg" xmlns:xlink="http://www.w3.org/1999/xlink" width="32" height="32" viewBox="0 0 32 32" version="1.1">
<g id="surface1">
<path style=" stroke:none;fill-rule:nonzero;fill:rgb(100%,100%,100%);fill-opacity:1;" d="M 23.367188 15.171875 C 25.050781 15.691406 26.925781 16.953125 26.925781 19.175781 C 26.925781 22.859375 21.617188 27.496094 13.640625 27.496094 C 7.554688 27.496094 1.332031 24.542969 1.332031 19.691406 C 1.332031 17.15625 2.9375 14.222656 5.703125 11.457031 C 9.398438 7.761719 13.707031 6.078125 15.328125 7.703125 C 16.042969 8.417969 16.113281 9.652344 15.652344 11.128906 C 15.414062 11.875 16.351562 11.464844 16.351562 11.464844 C 19.339844 10.214844 21.949219 10.136719 22.898438 11.5 C 23.40625 12.222656 23.355469 13.242188 22.886719 14.421875 C 22.671875 14.960938 22.953125 15.046875 23.367188 15.171875 Z M 13.65625 25.757812 C 18.511719 25.273438 22.191406 22.300781 21.878906 19.113281 C 21.5625 15.925781 17.371094 13.726562 12.515625 14.210938 C 7.664062 14.6875 3.980469 17.664062 4.292969 20.847656 C 4.609375 24.042969 8.800781 26.234375 13.65625 25.757812 Z M 8.214844 19.25 C 9.21875 17.214844 11.828125 16.0625 14.140625 16.664062 C 16.53125 17.28125 17.75 19.535156 16.777344 21.730469 C 15.785156 23.972656 12.933594 25.167969 10.515625 24.386719 C 8.179688 23.632812 7.191406 21.328125 8.214844 19.25 Z M 10.140625 22.699219 C 10.898438 23.042969 11.90625 22.71875 12.375 21.964844 C 12.835938 21.210938 12.59375 20.34375 11.832031 20.019531 C 11.082031 19.707031 10.113281 20.03125 9.648438 20.757812 C 9.175781 21.488281 9.394531 22.363281 10.140625 22.699219 Z M 13.082031 20.289062 C 13.375 20.410156 13.75 20.273438 13.921875 19.980469 C 14.085938 19.6875 13.980469 19.359375 13.683594 19.25 C 13.394531 19.136719 13.035156 19.273438 12.867188 19.558594 C 12.703125 19.84375 12.792969 20.171875 13.082031 20.289062 Z M 26.496094 12.667969 C 26.390625 13 26.117188 13.246094 25.777344 13.320312 C 25.4375 13.394531 25.085938 13.277344 24.855469 13.019531 C 24.621094 12.757812 24.546875 12.394531 24.660156 12.066406 C 24.867188 11.4375 24.71875 10.746094 24.277344 10.257812 C 23.832031 9.769531 23.160156 9.550781 22.515625 9.6875 C 21.992188 9.800781 21.480469 9.46875 21.367188 8.949219 C 21.257812 8.425781 21.589844 7.914062 22.109375 7.800781 C 23.433594 7.519531 24.804688 7.964844 25.710938 8.96875 C 26.613281 9.972656 26.914062 11.382812 26.496094 12.667969 Z M 21.277344 3.898438 C 23.988281 3.320312 26.808594 4.234375 28.667969 6.292969 C 30.527344 8.355469 31.148438 11.253906 30.292969 13.898438 C 30.203125 14.183594 30 14.417969 29.738281 14.554688 C 29.472656 14.6875 29.164062 14.710938 28.878906 14.617188 C 28.289062 14.425781 27.964844 13.792969 28.15625 13.203125 C 28.765625 11.324219 28.324219 9.265625 27.003906 7.800781 C 25.679688 6.335938 23.675781 5.6875 21.746094 6.101562 C 21.15625 6.195312 20.59375 5.808594 20.46875 5.222656 C 20.34375 4.636719 20.699219 4.058594 21.277344 3.898438 Z M 21.277344 3.898438 "/>
</g>
</svg>
