<?xml version="1.0" encoding="UTF-8"?>
<svg xmlns="http://www.w3.org/2000/svg" xmlns:xlink="http://www.w3.org/1999/xlink" width="32" height="32" viewBox="0 0 32 32" version="1.1">
<g id="surface1">
<path style=" stroke:none;fill-rule:nonzero;fill:rgb(100%,100%,100%);fill-opacity:1;" d="M 22.492188 0.00390625 C 21.394531 0.0078125 20.503906 0.898438 20.5 1.996094 C 20.496094 3.101562 21.386719 4 22.492188 4.003906 C 24.660156 4.003906 26.097656 4.554688 26.921875 5.171875 C 27.746094 5.789062 28 6.417969 28 7 C 28 7.582031 27.746094 8.230469 26.921875 8.847656 C 26.097656 9.464844 24.660156 10 22.492188 10 L 0.496094 10 C 0.328125 10 0.160156 10.019531 -0.00390625 10.0625 L -0.00390625 13.929688 C 0.160156 13.972656 0.328125 13.996094 0.496094 14 L 22.492188 14 C 25.324219 14 27.640625 13.292969 29.316406 12.035156 C 30.992188 10.777344 32.003906 8.917969 32.003906 7 C 32.003906 5.082031 30.992188 3.226562 29.316406 1.96875 C 27.640625 0.710938 25.324219 0.00390625 22.492188 0.00390625 Z M 22.492188 0.00390625 "/>
<path style=" stroke:none;fill-rule:nonzero;fill:rgb(100%,100%,100%);fill-opacity:1;" d="M 1 16.007812 C 0.648438 16.007812 0.300781 16.097656 -0.00390625 16.273438 L -0.00390625 19.742188 C 0.300781 19.917969 0.648438 20.007812 1 20.007812 L 6.488281 20.007812 C 7.65625 20.007812 8.351562 20.296875 8.675781 20.539062 C 9 20.78125 9 20.914062 9 20.996094 C 9 21.078125 9 21.226562 8.675781 21.46875 C 8.351562 21.710938 7.65625 22 6.488281 22 C 5.957031 22.003906 5.449219 22.214844 5.074219 22.59375 C 4.703125 22.96875 4.492188 23.480469 4.496094 24.011719 C 4.5 25.109375 5.390625 26 6.488281 26.003906 C 8.320312 26.003906 9.890625 25.542969 11.066406 24.660156 C 12.242188 23.777344 13 22.414062 13 20.996094 C 13 19.578125 12.242188 18.21875 11.066406 17.335938 C 9.890625 16.453125 8.320312 16.007812 6.488281 16.007812 Z M 1 16.007812 "/>
<path style=" stroke:none;fill-rule:nonzero;fill:rgb(100%,100%,100%);fill-opacity:1;" d="M 13.25 16.007812 C 14.375 17.074219 15.183594 18.441406 15.433594 20.007812 L 20.5 20.007812 C 23.167969 20.007812 24.976562 20.679688 26.050781 21.484375 C 27.125 22.289062 27.5 23.179688 27.5 24.011719 C 27.5 24.84375 27.125 25.730469 26.050781 26.535156 C 24.976562 27.339844 23.167969 28.011719 20.5 28.011719 C 19.394531 28.007812 18.496094 28.898438 18.492188 30.003906 C 18.496094 31.109375 19.394531 32 20.5 31.996094 C 23.832031 31.996094 26.519531 31.167969 28.445312 29.722656 C 30.371094 28.277344 31.5 26.179688 31.5 24.011719 C 31.5 21.84375 30.371094 19.726562 28.445312 18.28125 C 26.519531 16.835938 23.832031 16.007812 20.5 16.007812 Z M 13.25 16.007812 "/>
</g>
</svg>
