<?xml version="1.0" encoding="UTF-8"?>
<svg xmlns="http://www.w3.org/2000/svg" xmlns:xlink="http://www.w3.org/1999/xlink" width="32" height="32" viewBox="0 0 32 32" version="1.1">
<g id="surface1">
<path style=" stroke:none;fill-rule:nonzero;fill:rgb(100%,100%,100%);fill-opacity:1;" d="M 13.203125 29.117188 C 7.382812 29.117188 2.664062 24.398438 2.667969 18.578125 C 2.667969 13.71875 5.957031 9.414062 10.433594 8.414062 C 15.660156 7.238281 18.039062 6.324219 19.867188 2.667969 C 21.199219 5.246094 20.296875 7.613281 19.867188 8.902344 C 26.128906 7.398438 28.363281 4.53125 28.898438 4.171875 C 28.898438 9.441406 27.257812 12.773438 25.671875 14.925781 C 27.640625 14.851562 28.351562 14.28125 29.332031 14.144531 C 28.898438 16.074219 27.332031 18.796875 23.558594 20.535156 C 22.617188 25.515625 18.269531 29.117188 13.203125 29.117188 Z M 18.148438 20.515625 C 18.148438 20.945312 18.078125 21.160156 17.613281 21.160156 L 13.410156 21.164062 L 17.359375 16.832031 C 18.503906 15.6875 18.503906 15.113281 18.503906 13.648438 C 18.503906 13.203125 18.441406 12.691406 18.570312 12.25 C 18.632812 12.058594 18.503906 11.992188 18.316406 12.058594 C 17.867188 12.183594 17.105469 12.183594 15.832031 12.183594 L 10.101562 12.183594 C 9.78125 12.183594 9.652344 11.992188 9.78125 11.738281 C 9.78125 11.675781 9.78125 11.484375 9.652344 11.484375 C 8.828125 11.867188 8.632812 13.585938 8.699219 14.667969 C 8.699219 15.242188 9.015625 15.558594 9.460938 15.558594 L 13.984375 15.558594 L 9.335938 20.527344 C 9.015625 20.910156 8.699219 21.417969 8.699219 22.117188 L 8.699219 23.519531 C 8.699219 24.15625 9.082031 24.539062 9.78125 24.667969 L 17.765625 24.667969 C 18.503906 24.667969 19.007812 24.355469 19.007812 23.527344 L 19.007812 22.019531 C 19.007812 21.742188 19.007812 20.730469 18.148438 20.515625 Z M 18.148438 20.515625 "/>
</g>
</svg>
