<?xml version="1.0" encoding="UTF-8"?>
<svg xmlns="http://www.w3.org/2000/svg" xmlns:xlink="http://www.w3.org/1999/xlink" width="16" height="16" viewBox="0 0 16 16" version="1.1">
<g id="surface1">
<path style=" stroke:none;fill-rule:evenodd;fill:rgb(100%,100%,100%);fill-opacity:1;" d="M 4.109375 0.808594 C 3.980469 0.808594 3.851562 0.859375 3.757812 0.953125 C 2.632812 2.078125 1.996094 3.609375 1.996094 5.203125 C 1.996094 6.792969 2.625 8.3125 3.75 9.4375 C 3.945312 9.632812 4.265625 9.632812 4.460938 9.4375 C 4.65625 9.242188 4.65625 8.925781 4.460938 8.730469 C 3.523438 7.792969 3 6.519531 3 5.195312 C 3 3.867188 3.523438 2.601562 4.460938 1.664062 C 4.632812 1.492188 4.65625 1.226562 4.519531 1.023438 C 4.5 1 4.484375 0.976562 4.460938 0.953125 C 4.367188 0.859375 4.238281 0.808594 4.109375 0.808594 Z M 11.890625 0.8125 C 11.761719 0.8125 11.632812 0.863281 11.539062 0.960938 C 11.515625 0.984375 11.5 1.007812 11.480469 1.03125 C 11.34375 1.230469 11.367188 1.5 11.539062 1.667969 C 12.476562 2.605469 13 3.878906 13 5.203125 C 13 6.53125 12.476562 7.804688 11.539062 8.742188 C 11.347656 8.9375 11.34375 9.242188 11.53125 9.4375 C 11.726562 9.632812 12.039062 9.640625 12.238281 9.445312 C 13.363281 8.320312 14 6.796875 14 5.203125 C 14 3.609375 13.367188 2.085938 12.242188 0.960938 C 12.148438 0.863281 12.019531 0.8125 11.890625 0.8125 Z M 5.523438 2.226562 C 5.394531 2.226562 5.265625 2.273438 5.171875 2.371094 C 4.421875 3.121094 3.996094 4.136719 3.996094 5.195312 C 3.996094 6.257812 4.417969 7.273438 5.167969 8.023438 C 5.363281 8.21875 5.679688 8.21875 5.875 8.023438 C 6.070312 7.828125 6.070312 7.511719 5.875 7.316406 C 5.3125 6.753906 4.996094 5.992188 4.996094 5.199219 C 4.996094 4.40625 5.3125 3.636719 5.875 3.074219 C 6.039062 2.90625 6.070312 2.640625 5.9375 2.441406 C 5.914062 2.414062 5.898438 2.394531 5.875 2.375 C 5.78125 2.273438 5.652344 2.226562 5.523438 2.226562 Z M 10.46875 2.226562 C 10.34375 2.226562 10.210938 2.273438 10.117188 2.375 C 10.09375 2.394531 10.078125 2.417969 10.058594 2.445312 C 9.921875 2.640625 9.945312 2.914062 10.117188 3.082031 C 10.679688 3.644531 11 4.40625 11 5.203125 C 11 5.996094 10.6875 6.757812 10.125 7.320312 C 9.929688 7.515625 9.929688 7.835938 10.125 8.03125 C 10.320312 8.21875 10.632812 8.21875 10.828125 8.023438 C 11.578125 7.273438 12 6.257812 12 5.199219 C 12 4.140625 11.574219 3.125 10.824219 2.375 C 10.726562 2.273438 10.601562 2.226562 10.46875 2.226562 Z M 8 3.203125 C 6.894531 3.203125 6 4.101562 6 5.203125 C 6 5.945312 6.40625 6.585938 7 6.929688 L 7 11.195312 L 1.007812 11.191406 C 0.453125 11.191406 0.00390625 11.640625 0.00390625 12.195312 L 0 15 L 0.996094 15 L 0.996094 15.496094 C 0.996094 15.773438 1.21875 16 1.5 16 L 4.515625 16 C 4.78125 16 4.789062 15.679688 5 15.515625 L 5 15 L 10.996094 15.007812 L 10.996094 15.507812 C 11 15.78125 11.21875 16 11.488281 16 L 14.5 16 C 14.773438 16 15 15.777344 15 15.5 L 15 15.003906 L 15.996094 15 L 16 12.195312 C 16 11.640625 15.546875 11.191406 14.992188 11.191406 L 9 11.195312 L 9 6.929688 C 9.59375 6.585938 10 5.945312 10 5.203125 C 10 4.101562 9.105469 3.203125 8 3.203125 Z M 8 3.203125 "/>
</g>
</svg>
