<?xml version="1.0" encoding="UTF-8"?>
<svg xmlns="http://www.w3.org/2000/svg" xmlns:xlink="http://www.w3.org/1999/xlink" width="16" height="16" viewBox="0 0 16 16" version="1.1">
<g id="surface1">
<path style=" stroke:none;fill-rule:nonzero;fill:rgb(100%,100%,100%);fill-opacity:1;" d="M 14 2 C 14.367188 2 14.667969 2.296875 14.667969 2.667969 L 14.667969 13.332031 C 14.667969 13.703125 14.367188 14 14 14 L 2 14 C 1.632812 14 1.332031 13.703125 1.332031 13.332031 L 1.332031 2.667969 C 1.332031 2.296875 1.632812 2 2 2 Z M 13.332031 3.332031 L 2.667969 3.332031 L 2.667969 12.667969 L 13.332031 12.667969 Z M 6.265625 5.332031 L 8.398438 10.667969 L 6.960938 10.667969 L 6.695312 10 L 4.503906 10 L 4.234375 10.667969 L 2.800781 10.667969 L 4.933594 5.332031 Z M 12.667969 5.332031 L 12.667969 10.667969 L 10.667969 10.667969 C 9.5625 10.667969 8.667969 9.769531 8.667969 8.667969 C 8.667969 7.5625 9.5625 6.667969 10.667969 6.667969 L 11.332031 6.667969 L 11.332031 5.332031 Z M 11.332031 8 L 10.667969 8 C 10.3125 8 10.023438 8.277344 10 8.628906 C 9.980469 8.980469 10.238281 9.285156 10.589844 9.328125 L 10.667969 9.332031 L 11.332031 9.332031 Z M 5.597656 7.257812 L 5.035156 8.667969 L 6.164062 8.667969 Z M 5.597656 7.257812 "/>
</g>
</svg>
