<?xml version="1.0" encoding="UTF-8"?>
<svg xmlns="http://www.w3.org/2000/svg" xmlns:xlink="http://www.w3.org/1999/xlink" width="16" height="16" viewBox="0 0 16 16" version="1.1">
<g id="surface1">
<path style=" stroke:none;fill-rule:nonzero;fill:rgb(100%,100%,100%);fill-opacity:1;" d="M 1.847656 -0.00390625 C 0.835938 -0.00390625 0.00390625 0.828125 0.00390625 1.84375 L 0.00390625 14.15625 C 0.00390625 15.171875 0.835938 16 1.847656 16 L 14.160156 16 C 15.171875 16 16 15.171875 16 14.15625 L 16 1.84375 C 16 0.828125 15.171875 -0.00390625 14.160156 -0.00390625 Z M 1.847656 1 L 14.160156 1 C 14.636719 1 15 1.367188 15 1.84375 L 15 14.15625 C 15 14.632812 14.636719 15 14.160156 15 L 1.847656 15 C 1.371094 15 1 14.632812 1 14.15625 L 1 1.84375 C 1 1.367188 1.371094 1 1.847656 1 Z M 1.847656 1 "/>
<path style=" stroke:none;fill-rule:nonzero;fill:rgb(100%,100%,100%);fill-opacity:1;" d="M 9 1.664062 C 8.667969 1.6875 8.289062 1.859375 7.867188 2.085938 C 7.835938 2.078125 7.703125 2.046875 7.507812 1.964844 C 7.304688 1.875 7.0625 1.753906 6.734375 1.71875 C 6.414062 1.679688 5.953125 1.859375 5.742188 2.222656 C 5.589844 2.492188 5.570312 2.914062 5.53125 3.34375 C 4.773438 3.257812 4.007812 3.203125 3.566406 3.648438 C 3.058594 4.164062 2.894531 4.945312 2.785156 5.78125 C 2.484375 5.960938 2.214844 6.148438 2.0625 6.375 C 1.867188 6.660156 1.820312 7.027344 1.894531 7.304688 C 2.019531 7.757812 2.285156 7.984375 2.472656 8.203125 C 1.996094 8.945312 1.632812 9.652344 1.738281 10.289062 C 1.84375 10.914062 2.382812 11.308594 2.941406 11.660156 C 3.015625 12.097656 3.027344 12.644531 3.328125 13.15625 C 3.484375 13.421875 3.75 13.671875 4.089844 13.800781 C 4.382812 13.914062 4.746094 13.921875 5.140625 13.882812 C 5.5625 14.078125 6.015625 14.261719 6.535156 14.25 C 6.976562 14.242188 7.429688 13.957031 7.867188 13.632812 C 8.296875 13.988281 8.726562 14.308594 9.179688 14.335938 C 9.679688 14.359375 10.117188 14.125 10.515625 13.855469 C 11.210938 13.882812 11.828125 13.804688 12.277344 13.460938 C 12.664062 13.15625 12.765625 12.640625 12.828125 12.117188 C 13.398438 11.726562 13.824219 11.320312 14.050781 10.886719 C 14.296875 10.421875 14.335938 9.945312 14.242188 9.527344 C 14.101562 8.851562 13.652344 8.492188 13.269531 8.179688 C 13.566406 7.710938 13.851562 7.230469 13.757812 6.816406 C 13.648438 6.328125 13.363281 5.992188 13.125 5.6875 C 13.121094 5.109375 13.070312 4.601562 12.894531 4.226562 C 12.695312 3.796875 12.351562 3.503906 11.992188 3.34375 C 11.40625 3.082031 10.828125 3.152344 10.292969 3.160156 C 10.273438 3.0625 10.257812 2.992188 10.238281 2.875 C 10.195312 2.636719 10.148438 2.359375 9.960938 2.09375 C 9.773438 1.828125 9.382812 1.632812 9 1.664062 Z M 9.070312 2.664062 C 9.199219 2.65625 9.125 2.640625 9.144531 2.671875 C 9.167969 2.703125 9.21875 2.859375 9.253906 3.058594 C 9.292969 3.261719 9.328125 3.507812 9.410156 3.765625 C 9.476562 3.96875 9.65625 4.109375 9.871094 4.117188 C 10.578125 4.140625 11.234375 4.097656 11.585938 4.253906 C 11.765625 4.332031 11.878906 4.421875 11.984375 4.648438 C 12.089844 4.875 12.167969 5.261719 12.148438 5.851562 C 12.144531 5.96875 12.179688 6.082031 12.25 6.171875 C 12.515625 6.523438 12.734375 6.816406 12.78125 7.039062 C 12.832031 7.257812 12.8125 7.476562 12.390625 7.929688 C 12.289062 8.039062 12.242188 8.179688 12.261719 8.328125 C 12.28125 8.472656 12.359375 8.601562 12.480469 8.679688 C 12.742188 8.859375 13.179688 9.300781 13.269531 9.730469 C 13.316406 9.945312 13.300781 10.160156 13.160156 10.429688 C 13.019531 10.695312 12.734375 11.023438 12.195312 11.375 C 12.046875 11.46875 11.960938 11.632812 11.964844 11.804688 C 11.980469 12.289062 11.875 12.515625 11.671875 12.671875 C 11.46875 12.828125 11.070312 12.9375 10.429688 12.890625 C 10.308594 12.882812 10.1875 12.921875 10.09375 13 C 9.773438 13.25 9.496094 13.34375 9.234375 13.332031 C 8.976562 13.316406 8.660156 13.183594 8.242188 12.753906 C 8.152344 12.65625 8.023438 12.601562 7.890625 12.601562 C 7.757812 12.601562 7.632812 12.648438 7.539062 12.742188 C 7.132812 13.140625 6.828125 13.242188 6.515625 13.25 C 6.203125 13.257812 5.84375 13.140625 5.453125 12.945312 C 5.359375 12.898438 5.257812 12.882812 5.15625 12.898438 C 4.796875 12.953125 4.578125 12.914062 4.449219 12.863281 C 4.320312 12.8125 4.257812 12.765625 4.191406 12.652344 C 4.0625 12.425781 4.007812 11.9375 3.90625 11.414062 C 3.875 11.253906 3.773438 11.121094 3.632812 11.054688 C 3.042969 10.773438 2.78125 10.476562 2.71875 10.125 C 2.664062 9.773438 2.8125 9.21875 3.410156 8.425781 C 3.542969 8.253906 3.550781 8.015625 3.429688 7.835938 C 3.164062 7.445312 2.886719 7.140625 2.859375 7.039062 C 2.84375 6.984375 2.835938 7.011719 2.886719 6.9375 C 2.9375 6.859375 3.09375 6.703125 3.429688 6.523438 C 3.578125 6.445312 3.675781 6.304688 3.695312 6.136719 C 3.78125 5.277344 3.992188 4.648438 4.28125 4.351562 C 4.574219 4.0625 4.953125 3.945312 5.808594 4.207031 C 5.960938 4.257812 6.125 4.230469 6.253906 4.136719 C 6.382812 4.046875 6.460938 3.898438 6.460938 3.738281 C 6.472656 3.132812 6.570312 2.804688 6.617188 2.71875 C 6.617188 2.71875 6.625 2.710938 6.625 2.710938 C 6.695312 2.71875 6.882812 2.789062 7.105469 2.882812 C 7.328125 2.980469 7.589844 3.117188 7.953125 3.09375 C 8.027344 3.09375 8.101562 3.070312 8.171875 3.03125 C 8.632812 2.765625 8.945312 2.671875 9.070312 2.664062 Z M 9.070312 2.664062 "/>
<path style=" stroke:none;fill-rule:nonzero;fill:rgb(100%,100%,100%);fill-opacity:1;" d="M 7.425781 2.589844 L 7.425781 13.140625 L 8.417969 13.140625 L 8.417969 2.589844 Z M 7.425781 2.589844 "/>
<path style=" stroke:none;fill-rule:nonzero;fill:rgb(100%,100%,100%);fill-opacity:1;" d="M 5.597656 4.75 C 5.46875 4.769531 5.347656 4.839844 5.265625 4.945312 C 5.1875 5.054688 5.15625 5.1875 5.175781 5.320312 C 5.226562 5.6875 5.1875 5.914062 5.140625 6.035156 C 5.09375 6.15625 5.050781 6.195312 4.972656 6.238281 C 4.816406 6.320312 4.457031 6.324219 4.171875 6.28125 C 3.902344 6.25 3.652344 6.4375 3.613281 6.707031 C 3.578125 6.976562 3.765625 7.226562 4.035156 7.265625 C 4.359375 7.3125 4.898438 7.40625 5.429688 7.128906 C 5.699219 6.992188 5.945312 6.730469 6.078125 6.394531 C 6.203125 6.058594 6.226562 5.664062 6.15625 5.179688 C 6.140625 5.050781 6.070312 4.929688 5.96875 4.851562 C 5.863281 4.765625 5.726562 4.734375 5.597656 4.75 Z M 5.597656 4.75 "/>
<path style=" stroke:none;fill-rule:nonzero;fill:rgb(100%,100%,100%);fill-opacity:1;" d="M 10.496094 4.75 C 10.269531 4.75 10.070312 4.90625 10.015625 5.125 C 9.941406 5.433594 9.414062 5.945312 8.90625 6.171875 C 8.679688 6.273438 8.484375 6.296875 8.382812 6.304688 C 8.308594 6.109375 8.125 5.984375 7.921875 5.980469 C 7.789062 5.984375 7.664062 6.035156 7.570312 6.132812 C 7.476562 6.226562 7.425781 6.351562 7.425781 6.484375 C 7.425781 6.703125 7.515625 6.960938 7.695312 7.109375 C 7.867188 7.265625 8.070312 7.308594 8.253906 7.320312 C 8.617188 7.347656 8.953125 7.242188 9.3125 7.085938 C 10.015625 6.765625 10.78125 6.214844 10.992188 5.367188 C 11.023438 5.234375 11 5.101562 10.933594 4.984375 C 10.867188 4.871094 10.753906 4.789062 10.625 4.757812 C 10.582031 4.75 10.539062 4.746094 10.496094 4.75 Z M 10.496094 4.75 "/>
<path style=" stroke:none;fill-rule:nonzero;fill:rgb(100%,100%,100%);fill-opacity:1;" d="M 9.015625 9.003906 C 8.789062 8.984375 8.578125 9.117188 8.5 9.335938 C 8.414062 9.59375 8.546875 9.875 8.804688 9.96875 C 9.359375 10.167969 9.820312 10.15625 10.007812 10.265625 C 10.101562 10.316406 10.164062 10.367188 10.226562 10.554688 C 10.292969 10.742188 10.335938 11.085938 10.292969 11.613281 C 10.273438 11.886719 10.476562 12.125 10.75 12.148438 C 10.882812 12.15625 11.015625 12.117188 11.117188 12.03125 C 11.21875 11.945312 11.285156 11.820312 11.296875 11.6875 C 11.34375 11.074219 11.304688 10.609375 11.175781 10.226562 C 11.042969 9.84375 10.785156 9.558594 10.503906 9.398438 C 9.945312 9.078125 9.40625 9.125 9.144531 9.03125 C 9.101562 9.015625 9.0625 9.007812 9.015625 9.003906 Z M 9.015625 9.003906 "/>
<path style=" stroke:none;fill-rule:nonzero;fill:rgb(100%,100%,100%);fill-opacity:1;" d="M 6.546875 10.152344 C 6.25 10.144531 5.890625 10.242188 5.632812 10.5 C 5.375 10.761719 5.230469 11.113281 5.140625 11.585938 C 5.113281 11.71875 5.140625 11.851562 5.210938 11.960938 C 5.289062 12.070312 5.402344 12.148438 5.53125 12.171875 C 5.664062 12.199219 5.796875 12.171875 5.910156 12.097656 C 6.019531 12.023438 6.09375 11.910156 6.121094 11.78125 C 6.191406 11.414062 6.289062 11.25 6.34375 11.199219 C 6.390625 11.148438 6.40625 11.148438 6.523438 11.15625 C 6.761719 11.160156 7.269531 11.378906 7.882812 11.421875 C 8.019531 11.429688 8.148438 11.382812 8.25 11.296875 C 8.351562 11.210938 8.410156 11.085938 8.417969 10.953125 C 8.4375 10.679688 8.234375 10.4375 7.960938 10.417969 C 7.609375 10.394531 7.128906 10.164062 6.546875 10.152344 Z M 6.546875 10.152344 "/>
<path style=" stroke:none;fill-rule:nonzero;fill:rgb(100%,100%,100%);fill-opacity:1;" d="M 5.351562 6.109375 C 5.257812 6.105469 5.171875 6.125 5.09375 6.164062 C 4.851562 6.292969 4.757812 6.59375 4.882812 6.835938 L 5.664062 8.351562 C 5.789062 8.59375 6.089844 8.6875 6.332031 8.5625 C 6.574219 8.4375 6.671875 8.136719 6.546875 7.890625 L 5.765625 6.375 C 5.679688 6.21875 5.523438 6.117188 5.351562 6.109375 Z M 5.351562 6.109375 "/>
<path style=" stroke:none;fill-rule:nonzero;fill:rgb(100%,100%,100%);fill-opacity:1;" d="M 12.195312 9.269531 C 12.195312 9.269531 11.289062 9.0625 10.265625 9.582031 C 10.023438 9.710938 9.929688 10.007812 10.054688 10.253906 C 10.179688 10.5 10.476562 10.597656 10.726562 10.476562 C 11.460938 10.097656 11.9375 10.242188 11.9375 10.242188 C 12.066406 10.28125 12.203125 10.261719 12.320312 10.195312 C 12.4375 10.125 12.519531 10.015625 12.554688 9.886719 C 12.585938 9.757812 12.570312 9.617188 12.503906 9.503906 C 12.4375 9.386719 12.324219 9.304688 12.195312 9.269531 Z M 12.195312 9.269531 "/>
</g>
</svg>
