<?xml version="1.0" encoding="UTF-8"?>
<svg xmlns="http://www.w3.org/2000/svg" xmlns:xlink="http://www.w3.org/1999/xlink" width="16" height="16" viewBox="0 0 16 16" version="1.1">
<g id="surface1">
<path style=" stroke:none;fill-rule:nonzero;fill:rgb(100%,100%,100%);fill-opacity:1;" d="M 10.984375 2.988281 L 13.257812 2.988281 C 12.898438 3.71875 12.59375 4.652344 12.351562 5.789062 C 12.109375 6.921875 11.992188 7.71875 11.992188 8.171875 C 11.992188 8.757812 12.101562 9.519531 12.320312 10.460938 C 12.542969 11.40625 12.820312 12.257812 13.152344 13.011719 L 10.925781 13.011719 C 10.894531 12.882812 10.835938 12.710938 10.757812 12.484375 C 10.625 12.105469 10.507812 11.726562 10.414062 11.351562 C 9.640625 12.609375 8.539062 13.238281 7.101562 13.238281 C 5.75 13.238281 4.683594 12.6875 3.90625 11.59375 C 3.132812 10.492188 2.742188 9.210938 2.742188 7.746094 C 2.742188 6.359375 3.132812 5.1875 3.90625 4.214844 C 4.679688 3.246094 5.753906 2.761719 7.132812 2.761719 C 8.492188 2.761719 9.585938 3.414062 10.425781 4.71875 C 10.539062 4.257812 10.726562 3.679688 10.984375 2.988281 Z M 5.460938 8.027344 C 5.460938 8.953125 5.65625 9.703125 6.046875 10.28125 C 6.445312 10.855469 6.953125 11.140625 7.585938 11.140625 C 8.1875 11.140625 8.679688 10.890625 9.066406 10.378906 C 9.449219 9.867188 9.640625 9.085938 9.640625 8.027344 C 9.640625 6.992188 9.4375 6.203125 9.03125 5.671875 C 8.617188 5.132812 8.125 4.867188 7.546875 4.867188 C 6.945312 4.867188 6.445312 5.144531 6.046875 5.695312 C 5.65625 6.25 5.460938 7.027344 5.460938 8.027344 Z M 5.460938 8.027344 "/>
</g>
</svg>
