<?xml version="1.0" encoding="UTF-8"?>
<svg xmlns="http://www.w3.org/2000/svg" xmlns:xlink="http://www.w3.org/1999/xlink" width="16" height="16" viewBox="0 0 16 16" version="1.1">
<g id="surface1">
<path style=" stroke:none;fill-rule:nonzero;fill:rgb(100%,100%,100%);fill-opacity:1;" d="M 12.601562 6.667969 C 13.148438 7.617188 14.363281 7.949219 15.316406 7.410156 C 15.429688 8.398438 14.898438 9.347656 14 9.773438 L 14 14 L 9.332031 14 L 9.332031 12.667969 C 9.332031 11.96875 8.796875 11.390625 8.101562 11.335938 L 8 11.332031 C 7.300781 11.332031 6.722656 11.871094 6.671875 12.566406 L 6.667969 12.667969 L 6.667969 14 L 2 14 L 2 9.777344 C 1.097656 9.347656 0.570312 8.398438 0.679688 7.40625 C 1.636719 7.949219 2.851562 7.617188 3.398438 6.667969 Z M 11.953125 8 L 4.046875 8 L 3.996094 8.050781 C 3.707031 8.332031 3.371094 8.558594 3.003906 8.71875 L 2.941406 8.746094 L 3.332031 8.933594 L 3.332031 12.667969 L 5.335938 12.664062 L 5.335938 12.617188 L 5.339844 12.46875 C 5.441406 11.125 6.527344 10.070312 7.910156 10.003906 L 8.046875 10 L 8.199219 10.007812 C 9.539062 10.105469 10.59375 11.1875 10.664062 12.53125 L 10.664062 12.664062 L 12.667969 12.667969 L 12.667969 8.933594 L 13.058594 8.746094 L 12.996094 8.71875 C 12.628906 8.558594 12.292969 8.332031 12.003906 8.050781 Z M 11.355469 2 C 11.453125 2.667969 11.835938 3.261719 12.40625 3.628906 C 12.972656 3.996094 13.671875 4.097656 14.320312 3.90625 C 14.203125 5.046875 13.273438 5.933594 12.128906 5.996094 L 12 6 L 4 6 C 2.804688 6 1.800781 5.097656 1.679688 3.90625 C 2.328125 4.097656 3.027344 3.996094 3.59375 3.628906 C 4.164062 3.261719 4.546875 2.667969 4.644531 2 Z M 10.398438 3.332031 L 5.597656 3.332031 C 5.359375 3.804688 5.019531 4.214844 4.605469 4.542969 L 4.441406 4.667969 L 11.558594 4.667969 L 11.550781 4.660156 C 11.121094 4.359375 10.761719 3.964844 10.496094 3.511719 Z M 10.398438 3.332031 "/>
</g>
</svg>
