<?xml version="1.0" encoding="UTF-8"?>
<svg xmlns="http://www.w3.org/2000/svg" xmlns:xlink="http://www.w3.org/1999/xlink" width="16" height="16" viewBox="0 0 16 16" version="1.1">
<g id="surface1">
<path style=" stroke:none;fill-rule:nonzero;fill:rgb(100%,100%,100%);fill-opacity:1;" d="M 4.085938 0 C 3.960938 0.0078125 3.84375 0.0585938 3.757812 0.148438 C 2.632812 1.273438 2 2.800781 2 4.390625 C 2 5.984375 2.628906 7.503906 3.753906 8.628906 C 3.949219 8.824219 4.265625 8.828125 4.460938 8.632812 C 4.554688 8.539062 4.609375 8.410156 4.609375 8.277344 C 4.609375 8.144531 4.554688 8.015625 4.460938 7.921875 C 3.523438 6.984375 3 5.710938 3 4.382812 C 3 3.058594 3.527344 1.792969 4.464844 0.855469 C 4.632812 0.683594 4.660156 0.414062 4.523438 0.21875 C 4.503906 0.191406 4.484375 0.167969 4.464844 0.148438 C 4.367188 0.046875 4.226562 -0.0078125 4.085938 0 Z M 11.855469 0.0078125 C 11.734375 0.015625 11.625 0.0703125 11.539062 0.152344 C 11.515625 0.171875 11.5 0.195312 11.484375 0.222656 C 11.34375 0.421875 11.367188 0.6875 11.539062 0.859375 C 12.476562 1.796875 13 3.070312 13 4.398438 C 13 5.722656 12.476562 6.996094 11.539062 7.933594 C 11.34375 8.125 11.34375 8.4375 11.535156 8.632812 C 11.726562 8.828125 12.042969 8.832031 12.242188 8.640625 C 13.367188 7.515625 14 5.984375 14 4.394531 C 14 2.804688 13.371094 1.277344 12.246094 0.152344 C 12.140625 0.046875 12 -0.00390625 11.855469 0.0078125 Z M 5.5 1.417969 C 5.375 1.421875 5.257812 1.476562 5.171875 1.5625 C 4.421875 2.3125 4 3.328125 4 4.390625 C 4 5.449219 4.421875 6.464844 5.171875 7.214844 C 5.265625 7.3125 5.40625 7.367188 5.542969 7.359375 L 0.898438 16 L 2.597656 16 L 2.8125 15.601562 L 7.996094 13.523438 L 13.1875 15.601562 L 13.402344 16 L 15.101562 16 L 10.449219 7.359375 C 10.589844 7.367188 10.726562 7.316406 10.828125 7.21875 C 11.578125 6.46875 12 5.453125 12 4.390625 C 12 3.328125 11.578125 2.3125 10.828125 1.5625 C 10.734375 1.46875 10.605469 1.417969 10.472656 1.417969 C 10.335938 1.417969 10.210938 1.46875 10.117188 1.5625 C 10.09375 1.585938 10.078125 1.609375 10.0625 1.632812 C 9.921875 1.835938 9.945312 2.101562 10.117188 2.273438 C 10.679688 2.835938 11 3.597656 11 4.390625 C 11 5.1875 10.6875 5.953125 10.125 6.515625 C 10.09375 6.542969 10.070312 6.578125 10.046875 6.613281 L 9.539062 5.671875 C 9.835938 5.3125 10 4.859375 10 4.394531 C 10 3.289062 9.109375 2.394531 8 2.394531 C 6.898438 2.394531 6 3.289062 6 4.394531 C 6 4.859375 6.164062 5.304688 6.457031 5.664062 L 5.953125 6.601562 C 5.929688 6.570312 5.90625 6.539062 5.878906 6.507812 C 5.316406 5.945312 5 5.1875 5 4.390625 C 5 3.59375 5.3125 2.828125 5.875 2.265625 C 6.046875 2.097656 6.070312 1.832031 5.9375 1.632812 C 5.921875 1.609375 5.898438 1.585938 5.878906 1.5625 C 5.78125 1.464844 5.640625 1.414062 5.5 1.417969 Z M 8.226562 6.382812 L 9.214844 8.21875 L 8.003906 8.820312 L 6.789062 8.21875 L 7.78125 6.382812 C 7.851562 6.390625 7.929688 6.394531 8 6.394531 C 8.078125 6.394531 8.152344 6.390625 8.226562 6.382812 Z M 6.3125 9.105469 L 6.875 9.390625 L 5.894531 9.882812 Z M 9.695312 9.105469 L 10.109375 9.882812 L 9.125 9.390625 Z M 8.003906 9.953125 L 10.773438 11.332031 L 7.996094 12.445312 L 5.226562 11.332031 Z M 11.347656 12.179688 L 12.445312 14.226562 L 9.347656 12.984375 Z M 4.652344 12.1875 L 6.648438 12.984375 L 3.554688 14.21875 Z M 4.652344 12.1875 "/>
</g>
</svg>
