<?xml version="1.0" encoding="UTF-8"?>
<svg xmlns="http://www.w3.org/2000/svg" xmlns:xlink="http://www.w3.org/1999/xlink" width="16" height="16" viewBox="0 0 16 16" version="1.1">
<g id="surface1">
<path style=" stroke:none;fill-rule:nonzero;fill:rgb(100%,100%,100%);fill-opacity:1;" d="M 8 1.332031 C 11.683594 1.332031 14.667969 4.316406 14.667969 8 C 14.667969 11.683594 11.683594 14.667969 8 14.667969 C 4.316406 14.667969 1.332031 11.683594 1.332031 8 C 1.332031 4.316406 4.316406 1.332031 8 1.332031 Z M 8 2.667969 C 5.054688 2.667969 2.667969 5.054688 2.667969 8 C 2.667969 10.945312 5.054688 13.332031 8 13.332031 C 10.945312 13.332031 13.332031 10.945312 13.332031 8 C 13.332031 5.054688 10.945312 2.667969 8 2.667969 Z M 5.882812 10.230469 L 5.355469 11.140625 C 5.203125 11.40625 4.867188 11.496094 4.605469 11.34375 C 4.34375 11.191406 4.253906 10.855469 4.402344 10.59375 L 4.796875 9.917969 C 5.234375 9.78125 5.597656 9.882812 5.882812 10.230469 Z M 8.808594 5.773438 L 10.421875 8.570312 L 11.847656 8.570312 C 11.996094 8.570312 12.132812 8.625 12.238281 8.730469 C 12.339844 8.832031 12.398438 8.972656 12.398438 9.117188 C 12.398438 9.261719 12.339844 9.402344 12.238281 9.507812 C 12.136719 9.609375 11.996094 9.667969 11.847656 9.664062 L 11.054688 9.664062 L 11.589844 10.59375 C 11.730469 10.855469 11.640625 11.179688 11.382812 11.328125 C 11.125 11.476562 10.796875 11.394531 10.640625 11.140625 L 8.613281 7.632812 C 8.152344 6.839844 8.480469 6.042969 8.808594 5.773438 Z M 8.992188 3.742188 C 9.253906 3.894531 9.34375 4.230469 9.191406 4.492188 L 6.839844 8.566406 L 8.542969 8.566406 C 9.09375 8.566406 9.402344 9.214844 9.164062 9.664062 L 4.175781 9.664062 C 4.03125 9.664062 3.890625 9.605469 3.789062 9.503906 C 3.6875 9.398438 3.628906 9.261719 3.628906 9.113281 C 3.628906 8.96875 3.6875 8.828125 3.789062 8.726562 C 3.890625 8.625 4.03125 8.566406 4.175781 8.566406 L 5.574219 8.566406 L 7.367188 5.464844 L 6.808594 4.492188 C 6.664062 4.230469 6.757812 3.90625 7.015625 3.757812 C 7.273438 3.609375 7.601562 3.691406 7.757812 3.945312 L 7.996094 4.367188 L 8.242188 3.945312 C 8.316406 3.820312 8.433594 3.726562 8.574219 3.6875 C 8.714844 3.652344 8.867188 3.671875 8.992188 3.742188 Z M 8.992188 3.742188 "/>
</g>
</svg>
