<?xml version="1.0" encoding="UTF-8"?>
<svg xmlns="http://www.w3.org/2000/svg" xmlns:xlink="http://www.w3.org/1999/xlink" width="16" height="16" viewBox="0 0 16 16" version="1.1">
<g id="surface1">
<path style=" stroke:none;fill-rule:nonzero;fill:rgb(100%,100%,100%);fill-opacity:1;" d="M 10.484375 5.472656 C 10.171875 5.449219 9.832031 5.523438 9.3125 5.71875 C 9.355469 5.703125 8.820312 5.914062 8.667969 5.96875 C 8.332031 6.085938 8.058594 6.148438 7.75 6.148438 C 7.445312 6.148438 7.164062 6.085938 6.839844 5.976562 C 6.734375 5.941406 6.632812 5.90625 6.503906 5.855469 C 6.449219 5.832031 6.246094 5.753906 6.203125 5.734375 C 5.769531 5.566406 5.527344 5.503906 5.324219 5.507812 C 4.558594 5.519531 3.832031 5.960938 3.410156 6.695312 C 2.546875 8.191406 3.023438 10.894531 4.285156 12.714844 C 4.953125 13.679688 5.320312 14.023438 5.46875 14.019531 C 5.617188 14.011719 5.726562 13.980469 5.992188 13.867188 L 6.101562 13.820312 C 6.773438 13.535156 7.242188 13.410156 7.949219 13.410156 C 8.628906 13.410156 9.085938 13.535156 9.726562 13.8125 L 9.839844 13.859375 C 10.105469 13.972656 10.203125 13.996094 10.367188 13.992188 C 10.605469 13.988281 10.902344 13.714844 11.554688 12.757812 C 11.730469 12.496094 11.890625 12.222656 12.027344 11.945312 C 11.9375 11.871094 11.851562 11.792969 11.765625 11.710938 C 10.90625 10.894531 10.375 9.789062 10.359375 8.425781 C 10.34375 7.417969 10.675781 6.433594 11.300781 5.636719 C 11.039062 5.542969 10.765625 5.484375 10.484375 5.472656 Z M 10.589844 4.144531 C 11.0625 4.175781 12.414062 4.320312 13.292969 5.605469 C 13.222656 5.648438 11.675781 6.542969 11.691406 8.414062 C 11.71875 10.65625 13.652344 11.398438 13.675781 11.40625 C 13.660156 11.460938 13.367188 12.46875 12.652344 13.511719 C 12.039062 14.414062 11.398438 15.3125 10.390625 15.328125 C 9.398438 15.351562 9.078125 14.742188 7.949219 14.742188 C 6.8125 14.742188 6.460938 15.3125 5.523438 15.351562 C 4.550781 15.382812 3.8125 14.375 3.1875 13.480469 C 1.917969 11.636719 0.949219 8.292969 2.253906 6.03125 C 2.902344 4.902344 4.054688 4.191406 5.308594 4.175781 C 6.261719 4.152344 7.164062 4.816406 7.75 4.816406 C 8.324219 4.816406 9.355469 4.046875 10.589844 4.144531 Z M 9.828125 2.925781 C 9.308594 3.550781 8.460938 4.039062 7.636719 3.976562 C 7.523438 3.125 7.941406 2.238281 8.421875 1.6875 C 8.957031 1.0625 9.851562 0.597656 10.597656 0.566406 C 10.691406 1.429688 10.347656 2.300781 9.828125 2.925781 Z M 9.828125 2.925781 "/>
</g>
</svg>
