<?xml version="1.0" encoding="UTF-8"?>
<svg xmlns="http://www.w3.org/2000/svg" xmlns:xlink="http://www.w3.org/1999/xlink" width="16" height="16" viewBox="0 0 16 16" version="1.1">
<g id="surface1">
<path style=" stroke:none;fill-rule:nonzero;fill:rgb(100%,100%,100%);fill-opacity:1;" d="M 2 1.996094 C 2 1.628906 2.296875 1.332031 2.660156 1.332031 L 13.339844 1.332031 C 13.703125 1.335938 13.996094 1.628906 14 1.996094 L 14 14.003906 C 14 14.371094 13.703125 14.667969 13.339844 14.667969 L 2.660156 14.667969 C 2.296875 14.664062 2.003906 14.371094 2 14.003906 Z M 12.667969 7.332031 L 12.667969 2.667969 L 3.332031 2.667969 L 3.332031 7.332031 Z M 12.667969 8.667969 L 3.332031 8.667969 L 3.332031 13.332031 L 12.667969 13.332031 Z M 6 4 L 10 4 L 10 5.332031 L 6 5.332031 Z M 6 10 L 10 10 L 10 11.332031 L 6 11.332031 Z M 6 10 "/>
</g>
</svg>
