<?xml version="1.0" encoding="UTF-8"?>
<svg xmlns="http://www.w3.org/2000/svg" xmlns:xlink="http://www.w3.org/1999/xlink" width="16" height="16" viewBox="0 0 16 16" version="1.1">
<g id="surface1">
<path style=" stroke:none;fill-rule:nonzero;fill:rgb(100%,100%,100%);fill-opacity:1;" d="M 5.332031 5.332031 L 5.332031 10.667969 L 10.667969 10.667969 L 10.667969 5.332031 Z M 4 4 L 12 4 L 12 12 L 4 12 Z M 4 1.332031 L 5.332031 1.332031 L 5.332031 3.332031 L 4 3.332031 Z M 4 12.667969 L 5.332031 12.667969 L 5.332031 14.667969 L 4 14.667969 Z M 1.332031 4 L 3.332031 4 L 3.332031 5.332031 L 1.332031 5.332031 Z M 1.332031 10.667969 L 3.332031 10.667969 L 3.332031 12 L 1.332031 12 Z M 12.667969 4 L 14.667969 4 L 14.667969 5.332031 L 12.667969 5.332031 Z M 12.667969 10.667969 L 14.667969 10.667969 L 14.667969 12 L 12.667969 12 Z M 10.667969 1.332031 L 12 1.332031 L 12 3.332031 L 10.667969 3.332031 Z M 10.667969 12.667969 L 12 12.667969 L 12 14.667969 L 10.667969 14.667969 Z M 10.667969 12.667969 "/>
</g>
</svg>
