<?xml version="1.0" encoding="UTF-8"?>
<svg xmlns="http://www.w3.org/2000/svg" xmlns:xlink="http://www.w3.org/1999/xlink" width="16" height="16" viewBox="0 0 16 16" version="1.1">
<g id="surface1">
<path style=" stroke:none;fill-rule:nonzero;fill:rgb(100%,100%,100%);fill-opacity:1;" d="M 9.332031 9 L 9.332031 5.332031 C 9.332031 3.859375 8.140625 2.667969 6.667969 2.667969 C 5.195312 2.667969 4 3.859375 4 5.332031 L 4 9 C 4 11.394531 5.941406 13.332031 8.332031 13.332031 C 10.726562 13.332031 12.667969 11.394531 12.667969 9 L 12.667969 2.667969 L 14 2.667969 L 14 9 C 14 12.128906 11.464844 14.667969 8.332031 14.667969 C 5.203125 14.667969 2.667969 12.128906 2.667969 9 L 2.667969 5.332031 C 2.667969 3.125 4.457031 1.332031 6.667969 1.332031 C 8.875 1.332031 10.667969 3.125 10.667969 5.332031 L 10.667969 9 C 10.667969 10.289062 9.621094 11.332031 8.332031 11.332031 C 7.042969 11.332031 6 10.289062 6 9 L 6 5.332031 L 7.332031 5.332031 L 7.332031 9 C 7.332031 9.550781 7.78125 10 8.332031 10 C 8.886719 10 9.332031 9.550781 9.332031 9 Z M 9.332031 9 "/>
</g>
</svg>
