<?xml version="1.0" encoding="UTF-8"?>
<svg xmlns="http://www.w3.org/2000/svg" xmlns:xlink="http://www.w3.org/1999/xlink" width="16" height="16" viewBox="0 0 16 16" version="1.1">
<g id="surface1">
<path style=" stroke:none;fill-rule:nonzero;fill:rgb(100%,100%,100%);fill-opacity:1;" d="M 13.996094 1.996094 L 14 14.003906 C 13.996094 14.371094 13.703125 14.664062 13.339844 14.667969 L 2.660156 14.667969 C 2.296875 14.667969 2 14.371094 2 14.003906 L 2 1.996094 C 2.003906 1.628906 2.296875 1.335938 2.660156 1.332031 L 13.335938 1.332031 C 13.703125 1.332031 13.996094 1.628906 13.996094 1.996094 Z M 6 8.667969 L 6 6 C 6 5.632812 6.296875 5.332031 6.667969 5.332031 C 7.035156 5.332031 7.332031 5.632812 7.332031 6 L 7.332031 8.667969 C 7.332031 9.035156 7.632812 9.332031 8 9.332031 C 8.367188 9.332031 8.667969 9.035156 8.667969 8.667969 L 8.667969 6 C 8.667969 4.894531 7.769531 4 6.667969 4 C 5.5625 4 4.667969 4.894531 4.667969 6 L 4.667969 8.667969 C 4.667969 10.507812 6.160156 12 8 12 C 9.839844 12 11.332031 10.507812 11.332031 8.667969 L 11.332031 5.332031 L 10 5.332031 L 10 8.667969 C 10 9.769531 9.105469 10.667969 8 10.667969 C 6.894531 10.667969 6 9.769531 6 8.667969 Z M 6 8.667969 "/>
</g>
</svg>
