<?xml version="1.0" encoding="UTF-8"?>
<svg xmlns="http://www.w3.org/2000/svg" xmlns:xlink="http://www.w3.org/1999/xlink" width="16" height="16" viewBox="0 0 16 16" version="1.1">
<g id="surface1">
<path style=" stroke:none;fill-rule:nonzero;fill:rgb(100%,100%,100%);fill-opacity:1;" d="M 0.5 4.003906 C 0.21875 4 -0.0078125 4.226562 -0.00390625 4.507812 L -0.00390625 12.5 C -0.0078125 12.78125 0.21875 13.007812 0.5 13.003906 L 14.5 13.003906 C 14.78125 13.007812 15.007812 12.78125 15.003906 12.5 L 15.003906 11.003906 L 15.507812 11.003906 C 15.78125 11 16 10.777344 16 10.5 L 16 6.507812 C 16 6.230469 15.78125 6.007812 15.507812 6.003906 L 15.003906 6.003906 L 15.003906 4.507812 C 15.007812 4.226562 14.78125 4 14.5 4.003906 Z M 1 5 L 14 5 L 14 6.507812 C 14.003906 6.78125 14.226562 7 14.5 7 L 15.003906 7 L 15.003906 10 L 14.5 10 C 14.226562 10 14 10.226562 14 10.5 L 14 12 L 1 12 Z M 2 6 L 2 10.109375 L 7.132812 6 Z M 7.453125 6 L 8.460938 8.019531 L 12.859375 6.921875 L 7.757812 11 L 13 11 L 13 6 Z M 6.261719 9.117188 L 2 10.183594 L 2 11 L 7.203125 11 Z M 6.261719 9.117188 "/>
</g>
</svg>
