<?xml version="1.0" encoding="UTF-8"?>
<svg xmlns="http://www.w3.org/2000/svg" xmlns:xlink="http://www.w3.org/1999/xlink" width="16" height="16" viewBox="0 0 16 16" version="1.1">
<g id="surface1">
<path style=" stroke:none;fill-rule:nonzero;fill:rgb(100%,100%,100%);fill-opacity:1;" d="M 11.667969 1.332031 C 12.917969 1.332031 14.039062 2.109375 14.476562 3.28125 C 14.914062 4.457031 14.578125 5.777344 13.632812 6.597656 C 13.871094 7.242188 14 7.941406 14 8.667969 C 14 11.0625 12.570312 13.230469 10.371094 14.175781 C 8.167969 15.121094 5.613281 14.667969 3.875 13.019531 C 2.136719 11.371094 1.542969 8.847656 2.367188 6.597656 C 1.472656 5.824219 1.121094 4.59375 1.464844 3.464844 C 1.804688 2.332031 2.78125 1.507812 3.953125 1.359375 C 5.125 1.207031 6.277344 1.761719 6.894531 2.769531 C 7.625 2.632812 8.375 2.632812 9.105469 2.769531 C 9.652344 1.875 10.621094 1.332031 11.667969 1.332031 Z M 11.667969 2.667969 C 11.117188 2.667969 10.617188 2.933594 10.308594 3.367188 L 10.246094 3.464844 L 9.765625 4.246094 L 8.863281 4.078125 C 8.363281 3.984375 7.855469 3.972656 7.351562 4.042969 L 7.140625 4.078125 L 6.238281 4.25 L 5.757812 3.464844 C 5.421875 2.917969 4.800781 2.609375 4.164062 2.675781 C 3.523438 2.742188 2.980469 3.167969 2.765625 3.773438 C 2.546875 4.378906 2.699219 5.054688 3.152344 5.511719 L 3.242188 5.59375 L 3.933594 6.195312 L 3.617188 7.058594 C 2.976562 8.808594 3.4375 10.769531 4.792969 12.050781 C 6.144531 13.332031 8.132812 13.6875 9.84375 12.949219 C 11.554688 12.214844 12.664062 10.53125 12.667969 8.667969 C 12.667969 8.1875 12.59375 7.722656 12.457031 7.277344 L 12.382812 7.058594 L 12.066406 6.195312 L 12.757812 5.59375 C 13.285156 5.136719 13.472656 4.402344 13.226562 3.75 C 12.984375 3.097656 12.363281 2.667969 11.667969 2.667969 Z M 6.667969 8.667969 C 6.667969 9.402344 7.261719 10 8 10 C 8.738281 10 9.332031 9.402344 9.332031 8.667969 L 10.667969 8.667969 C 10.667969 10.140625 9.472656 11.332031 8 11.332031 C 6.527344 11.332031 5.332031 10.140625 5.332031 8.667969 Z M 6.667969 8.667969 "/>
</g>
</svg>
