<?xml version="1.0" encoding="UTF-8"?>
<svg xmlns="http://www.w3.org/2000/svg" xmlns:xlink="http://www.w3.org/1999/xlink" width="16" height="16" viewBox="0 0 16 16" version="1.1">
<g id="surface1">
<path style=" stroke:none;fill-rule:nonzero;fill:rgb(100%,100%,100%);fill-opacity:1;" d="M 8.941406 7.058594 L 9.261719 7.382812 L 9.574219 7.703125 L 9.878906 8.03125 C 12.183594 10.542969 13.527344 12.84375 12.949219 13.421875 C 12.683594 13.6875 12.046875 13.542969 11.191406 13.082031 C 9.027344 14.4375 6.246094 14.28125 4.253906 12.6875 L 6.242188 10.703125 C 6.816406 10.855469 7.421875 10.609375 7.726562 10.101562 C 8.035156 9.59375 7.96875 8.945312 7.566406 8.507812 C 7.164062 8.074219 6.519531 7.957031 5.988281 8.222656 C 5.457031 8.488281 5.167969 9.070312 5.273438 9.65625 L 5.296875 9.757812 L 3.3125 11.746094 C 1.71875 9.753906 1.5625 6.96875 2.917969 4.808594 C 2.457031 3.953125 2.3125 3.316406 2.578125 3.050781 C 3.230469 2.398438 6.078125 4.191406 8.941406 7.058594 Z M 13.183594 2.816406 C 13.453125 3.082031 13.59375 3.453125 13.574219 3.832031 C 13.554688 4.210938 13.371094 4.5625 13.074219 4.796875 C 14.144531 6.496094 14.296875 8.613281 13.480469 10.445312 C 12.6875 9.144531 11.433594 7.664062 9.886719 6.113281 L 9.527344 5.761719 C 8.109375 4.375 6.757812 3.25 5.554688 2.519531 C 7.386719 1.703125 9.503906 1.855469 11.203125 2.925781 C 11.441406 2.628906 11.792969 2.449219 12.167969 2.425781 C 12.546875 2.40625 12.917969 2.546875 13.183594 2.816406 Z M 13.183594 2.816406 "/>
</g>
</svg>
