<?xml version="1.0" encoding="UTF-8"?>
<svg xmlns="http://www.w3.org/2000/svg" xmlns:xlink="http://www.w3.org/1999/xlink" width="16" height="16" viewBox="0 0 16 16" version="1.1">
<g id="surface1">
<path style=" stroke:none;fill-rule:nonzero;fill:rgb(100%,100%,100%);fill-opacity:1;" d="M 7.851562 0 C 6.707031 0 5.664062 0.355469 4.722656 1.066406 C 3.78125 1.773438 3.3125 3.078125 3.3125 4.984375 L 3.3125 16 L 5.871094 16 L 5.871094 12.179688 C 6.734375 13.265625 7.808594 13.808594 9.089844 13.808594 C 10.203125 13.808594 11.078125 13.425781 11.722656 12.660156 C 12.367188 11.894531 12.6875 10.976562 12.6875 9.90625 C 12.6875 9.039062 12.449219 8.25 11.96875 7.546875 C 11.492188 6.835938 10.75 6.394531 9.726562 6.226562 C 10.359375 6.066406 10.886719 5.734375 11.3125 5.234375 C 11.738281 4.722656 11.953125 4.132812 11.953125 3.460938 C 11.953125 2.4375 11.554688 1.605469 10.765625 0.96875 C 9.976562 0.320312 9.003906 0 7.851562 0 Z M 7.722656 2.023438 C 8.214844 2.023438 8.632812 2.179688 8.980469 2.5 C 9.332031 2.808594 9.507812 3.214844 9.507812 3.71875 C 9.507812 4.273438 9.289062 4.726562 8.851562 5.085938 C 8.414062 5.445312 7.804688 5.632812 7.03125 5.640625 L 7.03125 7.0625 C 8.0625 7.0625 8.824219 7.320312 9.316406 7.835938 C 9.8125 8.351562 10.0625 9.027344 10.0625 9.851562 C 10.0625 10.417969 9.898438 10.882812 9.570312 11.25 C 9.242188 11.609375 8.835938 11.785156 8.351562 11.785156 C 7.847656 11.785156 7.378906 11.601562 6.945312 11.238281 C 6.515625 10.875 6.226562 10.441406 6.082031 9.945312 C 5.941406 9.4375 5.871094 8.773438 5.871094 7.945312 L 5.871094 5.195312 C 5.871094 4.414062 5.921875 3.8125 6.027344 3.40625 C 6.132812 3 6.332031 2.671875 6.628906 2.414062 C 6.933594 2.15625 7.296875 2.023438 7.722656 2.023438 Z M 7.722656 2.023438 "/>
</g>
</svg>
