<?xml version="1.0" encoding="UTF-8"?>
<svg xmlns="http://www.w3.org/2000/svg" xmlns:xlink="http://www.w3.org/1999/xlink" width="16" height="16" viewBox="0 0 16 16" version="1.1">
<g id="surface1">
<path style=" stroke:none;fill-rule:nonzero;fill:rgb(100%,100%,100%);fill-opacity:1;" d="M 12.101562 13.046875 C 9.742188 15.265625 6.042969 15.210938 3.75 12.917969 C 1.457031 10.625 1.398438 6.925781 3.621094 4.5625 L 0.929688 1.871094 L 1.871094 0.929688 L 15.070312 14.128906 L 14.128906 15.070312 L 12.101562 13.042969 Z M 4.566406 5.507812 C 2.875 7.347656 2.933594 10.195312 4.703125 11.964844 C 6.46875 13.730469 9.316406 13.792969 11.160156 12.101562 Z M 13.609375 10.800781 L 12.542969 9.734375 C 12.914062 8.160156 12.441406 6.507812 11.300781 5.367188 L 8 2.066406 L 6.4375 3.628906 L 5.496094 2.6875 L 8 0.179688 L 12.242188 4.425781 C 13.914062 6.09375 14.449219 8.589844 13.609375 10.800781 Z M 13.609375 10.800781 "/>
</g>
</svg>
