<?xml version="1.0" encoding="UTF-8"?>
<svg xmlns="http://www.w3.org/2000/svg" xmlns:xlink="http://www.w3.org/1999/xlink" width="16" height="16" viewBox="0 0 16 16" version="1.1">
<g id="surface1">
<path style=" stroke:none;fill-rule:nonzero;fill:rgb(100%,100%,100%);fill-opacity:1;" d="M 2.929688 0.0078125 C 2.328125 0.0078125 1.8125 0.265625 1.484375 0.648438 C 1.167969 1.015625 1.015625 1.476562 1.003906 1.9375 C 1 1.957031 1 1.976562 1 2 C 1 2 1 2 1 2.007812 L 1 14.007812 C 1 14.046875 0.992188 14.085938 0.992188 14.121094 C 1.015625 14.59375 1.179688 15.0625 1.511719 15.421875 C 1.84375 15.777344 2.347656 15.996094 2.929688 15.996094 L 14.515625 15.996094 C 14.785156 15.992188 15.003906 15.777344 15.007812 15.507812 C 15.007812 15.238281 14.789062 15.015625 14.515625 15.015625 L 13.492188 15.015625 L 13.492188 13.003906 L 14.519531 13.003906 C 14.78125 13 14.992188 12.78125 14.996094 12.507812 L 14.996094 0.507812 C 15 0.234375 14.785156 0.0078125 14.519531 0.00390625 L 5.824219 0.00390625 Z M 2.929688 13.007812 L 12.507812 13.007812 L 12.507812 15.015625 L 2.929688 15.015625 C 2.582031 15.015625 2.382812 14.910156 2.234375 14.75 C 2.085938 14.589844 1.992188 14.347656 1.976562 14.070312 C 1.960938 13.8125 2.039062 13.53125 2.195312 13.335938 C 2.351562 13.140625 2.5625 13.007812 2.929688 13.007812 Z M 2.929688 13.007812 "/>
</g>
</svg>
