<?xml version="1.0" encoding="UTF-8"?>
<svg xmlns="http://www.w3.org/2000/svg" xmlns:xlink="http://www.w3.org/1999/xlink" width="16" height="16" viewBox="0 0 16 16" version="1.1">
<g id="surface1">
<path style=" stroke:none;fill-rule:nonzero;fill:rgb(100%,100%,100%);fill-opacity:1;" d="M 14 2.667969 L 4.667969 2.667969 C 3.929688 2.667969 3.332031 3.261719 3.332031 4 C 3.332031 4.738281 3.929688 5.332031 4.667969 5.332031 L 14 5.332031 L 14 14 C 14 14.367188 13.703125 14.667969 13.332031 14.667969 L 4.667969 14.667969 C 3.195312 14.667969 2 13.472656 2 12 L 2 4 C 2 2.527344 3.195312 1.332031 4.667969 1.332031 L 13.332031 1.332031 C 13.703125 1.332031 14 1.632812 14 2 Z M 3.332031 12 C 3.332031 12.738281 3.929688 13.332031 4.667969 13.332031 L 12.667969 13.332031 L 12.667969 6.667969 L 4.667969 6.667969 C 4.199219 6.667969 3.738281 6.542969 3.332031 6.308594 Z M 13.332031 4.667969 L 4.667969 4.667969 C 4.296875 4.667969 4 4.367188 4 4 C 4 3.632812 4.296875 3.332031 4.667969 3.332031 L 13.332031 3.332031 Z M 13.332031 4.667969 "/>
</g>
</svg>
