<?xml version="1.0" encoding="UTF-8"?>
<svg xmlns="http://www.w3.org/2000/svg" xmlns:xlink="http://www.w3.org/1999/xlink" width="16" height="16" viewBox="0 0 16 16" version="1.1">
<g id="surface1">
<path style=" stroke:none;fill-rule:nonzero;fill:rgb(100%,100%,100%);fill-opacity:1;" d="M 1.007812 13 L 1.007812 14.003906 L 15 14.003906 L 15 13 Z M 1.007812 13 "/>
<path style=" stroke:none;fill-rule:evenodd;fill:rgb(100%,100%,100%);fill-opacity:1;" d="M 9.5 7 L 12.5 7 C 13.054688 7 13.5 7.445312 13.5 8 L 13.5 11 C 13.5 11.554688 13.054688 12 12.5 12 L 9.5 12 C 8.945312 12 8.5 11.554688 8.5 11 L 8.5 8 C 8.5 7.445312 8.945312 7 9.5 7 Z M 9.5 7 "/>
<path style=" stroke:none;fill-rule:nonzero;fill:rgb(100%,100%,100%);fill-opacity:1;" d="M 1 14.996094 L 1 16 L 14.992188 16 L 14.992188 14.996094 Z M 1 14.996094 "/>
<path style=" stroke:none;fill-rule:nonzero;fill:rgb(100%,100%,100%);fill-opacity:1;" d="M 2 14 L 2 15 L 3 15 L 3 14 Z M 2 14 "/>
<path style=" stroke:none;fill-rule:nonzero;fill:rgb(100%,100%,100%);fill-opacity:1;" d="M 12.992188 14 L 12.992188 15 L 14 15 L 14 14 Z M 12.992188 14 "/>
<path style=" stroke:none;fill-rule:nonzero;fill:rgb(100%,100%,100%);fill-opacity:1;" d="M 7.5 14 L 7.5 14.996094 L 8.5 15 L 8.5 14.003906 Z M 7.5 14 "/>
<path style=" stroke:none;fill-rule:evenodd;fill:rgb(100%,100%,100%);fill-opacity:1;" d="M 3.5 7 L 6.5 7 C 7.054688 7 7.5 7.445312 7.5 8 L 7.5 11 C 7.5 11.554688 7.054688 12 6.5 12 L 3.5 12 C 2.945312 12 2.5 11.554688 2.5 11 L 2.5 8 C 2.5 7.445312 2.945312 7 3.5 7 Z M 3.5 7 "/>
<path style=" stroke:none;fill-rule:evenodd;fill:rgb(100%,100%,100%);fill-opacity:1;" d="M 6.5 1 L 9.5 1 C 10.054688 1 10.5 1.445312 10.5 2 L 10.5 5 C 10.5 5.554688 10.054688 6 9.5 6 L 6.5 6 C 5.945312 6 5.5 5.554688 5.5 5 L 5.5 2 C 5.5 1.445312 5.945312 1 6.5 1 Z M 6.5 1 "/>
</g>
</svg>
