<?xml version="1.0" encoding="UTF-8"?>
<svg xmlns="http://www.w3.org/2000/svg" xmlns:xlink="http://www.w3.org/1999/xlink" width="16" height="16" viewBox="0 0 16 16" version="1.1">
<g id="surface1">
<path style=" stroke:none;fill-rule:nonzero;fill:rgb(100%,100%,100%);fill-opacity:1;" d="M 2.667969 12 L 2.667969 9.535156 C 2.667969 8.980469 2.21875 8.535156 1.667969 8.535156 L 1.332031 8.535156 L 1.332031 7.464844 L 1.667969 7.464844 C 2.21875 7.464844 2.667969 7.019531 2.667969 6.464844 L 2.667969 4 C 2.667969 2.894531 3.5625 2 4.667969 2 L 5.332031 2 L 5.332031 3.332031 L 4.667969 3.332031 C 4.296875 3.332031 4 3.632812 4 4 L 4 6.734375 C 4 7.308594 3.628906 7.820312 3.085938 8 C 3.628906 8.179688 4 8.691406 4 9.265625 L 4 12 C 4 12.367188 4.296875 12.667969 4.667969 12.667969 L 5.332031 12.667969 L 5.332031 14 L 4.667969 14 C 3.5625 14 2.667969 13.105469 2.667969 12 Z M 13.332031 9.535156 L 13.332031 12 C 13.332031 13.105469 12.4375 14 11.332031 14 L 10.667969 14 L 10.667969 12.667969 L 11.332031 12.667969 C 11.703125 12.667969 12 12.367188 12 12 L 12 9.265625 C 12 8.691406 12.371094 8.179688 12.914062 8 C 12.371094 7.820312 12 7.308594 12 6.734375 L 12 4 C 12 3.632812 11.703125 3.332031 11.332031 3.332031 L 10.667969 3.332031 L 10.667969 2 L 11.332031 2 C 12.4375 2 13.332031 2.894531 13.332031 4 L 13.332031 6.464844 C 13.332031 7.019531 13.78125 7.464844 14.332031 7.464844 L 14.667969 7.464844 L 14.667969 8.535156 L 14.332031 8.535156 C 13.78125 8.535156 13.332031 8.980469 13.332031 9.535156 Z M 13.332031 9.535156 "/>
</g>
</svg>
