<?xml version="1.0" encoding="UTF-8"?>
<svg xmlns="http://www.w3.org/2000/svg" xmlns:xlink="http://www.w3.org/1999/xlink" width="16" height="16" viewBox="0 0 16 16" version="1.1">
<g id="surface1">
<path style=" stroke:none;fill-rule:nonzero;fill:rgb(100%,100%,100%);fill-opacity:1;" d="M 4.667969 3.332031 L 4.667969 1.332031 C 4.667969 0.964844 4.964844 0.667969 5.332031 0.667969 L 10.667969 0.667969 C 11.035156 0.667969 11.332031 0.964844 11.332031 1.332031 L 11.332031 3.332031 L 14 3.332031 C 14.367188 3.332031 14.667969 3.632812 14.667969 4 L 14.667969 13.332031 C 14.667969 13.703125 14.367188 14 14 14 L 2 14 C 1.632812 14 1.332031 13.703125 1.332031 13.332031 L 1.332031 4 C 1.332031 3.632812 1.632812 3.332031 2 3.332031 Z M 11.332031 8.667969 L 11.332031 6.667969 L 10 6.667969 L 10 8.667969 L 6 8.667969 L 6 6.667969 L 4.667969 6.667969 L 4.667969 8.667969 L 2.667969 8.667969 L 2.667969 12.667969 L 13.332031 12.667969 L 13.332031 8.667969 Z M 6 2 L 6 3.332031 L 10 3.332031 L 10 2 Z M 6 2 "/>
</g>
</svg>
