<?xml version="1.0" encoding="UTF-8"?>
<svg xmlns="http://www.w3.org/2000/svg" xmlns:xlink="http://www.w3.org/1999/xlink" width="16" height="16" viewBox="0 0 16 16" version="1.1">
<g id="surface1">
<path style=" stroke:none;fill-rule:nonzero;fill:rgb(100%,100%,100%);fill-opacity:1;" d="M 3.285156 1.953125 L 4.230469 2.894531 C 3.226562 3.894531 2.664062 5.25 2.667969 6.667969 C 2.667969 8.140625 3.261719 9.472656 4.230469 10.4375 L 3.285156 11.378906 C 2.035156 10.132812 1.332031 8.433594 1.332031 6.667969 C 1.332031 4.898438 2.035156 3.203125 3.285156 1.953125 Z M 12.714844 1.953125 C 13.964844 3.203125 14.667969 4.898438 14.667969 6.667969 C 14.667969 8.433594 13.964844 10.132812 12.714844 11.378906 L 11.769531 10.4375 C 12.773438 9.4375 13.335938 8.082031 13.332031 6.667969 C 13.332031 5.191406 12.738281 3.859375 11.769531 2.894531 Z M 5.171875 3.839844 L 6.113281 4.78125 C 5.613281 5.28125 5.332031 5.960938 5.332031 6.667969 C 5.332031 7.402344 5.632812 8.070312 6.113281 8.550781 L 5.171875 9.496094 C 4.421875 8.746094 4 7.726562 4 6.667969 C 4 5.5625 4.449219 4.5625 5.171875 3.839844 Z M 10.828125 3.839844 C 11.578125 4.585938 12 5.605469 12 6.667969 C 12 7.726562 11.578125 8.746094 10.828125 9.496094 L 9.886719 8.550781 C 10.386719 8.050781 10.667969 7.375 10.667969 6.667969 C 10.667969 5.960938 10.386719 5.28125 9.886719 4.78125 Z M 8 8 C 7.261719 8 6.667969 7.402344 6.667969 6.667969 C 6.667969 5.929688 7.261719 5.332031 8 5.332031 C 8.738281 5.332031 9.332031 5.929688 9.332031 6.667969 C 9.332031 7.402344 8.738281 8 8 8 Z M 7.332031 9.332031 L 8.667969 9.332031 L 8.667969 14.667969 L 7.332031 14.667969 Z M 7.332031 9.332031 "/>
</g>
</svg>
