<?xml version="1.0" encoding="UTF-8"?>
<svg xmlns="http://www.w3.org/2000/svg" xmlns:xlink="http://www.w3.org/1999/xlink" width="16" height="16" viewBox="0 0 16 16" version="1.1">
<g id="surface1">
<path style=" stroke:none;fill-rule:nonzero;fill:rgb(100%,100%,100%);fill-opacity:1;" d="M 6 3.332031 L 6 7.515625 L 4.667969 7.515625 L 4.667969 3.332031 L 3.332031 3.332031 L 3.332031 9.332031 L 12.667969 9.332031 L 12.667969 3.332031 Z M 13.332031 10.667969 L 2.667969 10.667969 L 2.667969 12 L 13.332031 12 Z M 2 9.332031 L 2 2.667969 C 2 2.296875 2.296875 2 2.667969 2 L 13.332031 2 C 13.703125 2 14 2.296875 14 2.667969 L 14 9.332031 L 14.667969 9.332031 L 14.667969 12.667969 C 14.667969 13.035156 14.367188 13.332031 14 13.332031 L 8.667969 13.332031 L 8.667969 15.332031 L 7.332031 15.332031 L 7.332031 13.332031 L 2 13.332031 C 1.632812 13.332031 1.332031 13.035156 1.332031 12.667969 L 1.332031 9.332031 Z M 2 9.332031 "/>
</g>
</svg>
