<?xml version="1.0" encoding="UTF-8"?>
<svg xmlns="http://www.w3.org/2000/svg" xmlns:xlink="http://www.w3.org/1999/xlink" width="16" height="16" viewBox="0 0 16 16" version="1.1">
<g id="surface1">
<path style=" stroke:none;fill-rule:nonzero;fill:rgb(100%,100%,100%);fill-opacity:1;" d="M 14.113281 0.015625 L 10.523438 3.554688 L 10.367188 3.398438 C 10.261719 3.296875 10.125 3.242188 9.976562 3.242188 L 6.695312 3.242188 C 6.550781 3.242188 6.414062 3.296875 6.3125 3.398438 L 5.21875 4.476562 C 5.210938 4.484375 5.207031 4.496094 5.199219 4.507812 L 0.0859375 9.621094 L 0.109375 10.316406 C 2.703125 12.84375 3.070312 13.28125 5.695312 15.898438 L 6.398438 15.898438 L 11.78125 10.304688 L 12.539062 9.546875 C 12.644531 9.445312 12.703125 9.3125 12.703125 9.164062 L 12.703125 5.9375 C 12.703125 5.792969 12.644531 5.65625 12.539062 5.554688 L 12.382812 5.398438 L 15.984375 1.851562 L 15.984375 0.015625 Z M 5.570312 5.582031 L 10.367188 10.320312 L 6.046875 14.835938 C 4.066406 12.859375 3.117188 11.859375 1.148438 9.9375 Z M 5.570312 5.582031 "/>
</g>
</svg>
