<?xml version="1.0" encoding="UTF-8"?>
<svg xmlns="http://www.w3.org/2000/svg" xmlns:xlink="http://www.w3.org/1999/xlink" width="16" height="16" viewBox="0 0 16 16" version="1.1">
<g id="surface1">
<path style=" stroke:none;fill-rule:nonzero;fill:rgb(100%,100%,100%);fill-opacity:1;" d="M 10.304688 6.453125 L 10.210938 6.355469 C 9.761719 5.925781 9.214844 5.617188 8.617188 5.457031 C 6.679688 4.9375 4.816406 6.039062 4.289062 8.011719 C 4.257812 8.117188 4.242188 8.238281 4.21875 8.539062 C 4.117188 9.785156 3.824219 10.714844 3.019531 11.660156 C 4.523438 12.25 6.3125 12.667969 7.667969 12.667969 C 9.328125 12.664062 10.777344 11.550781 11.207031 9.949219 C 11.542969 8.707031 11.199219 7.378906 10.304688 6.453125 Z M 8.859375 4.144531 L 12.152344 1.582031 C 12.417969 1.378906 12.796875 1.402344 13.03125 1.636719 L 15.03125 3.632812 C 15.265625 3.871094 15.289062 4.25 15.085938 4.515625 L 12.523438 7.808594 C 12.890625 9.296875 12.550781 10.875 11.601562 12.085938 C 10.65625 13.292969 9.203125 14 7.667969 14 C 5.332031 14 2.332031 13 0.667969 12 C 3.320312 10 2.699219 8.792969 3 7.667969 C 3.707031 5.035156 6.226562 3.496094 8.859375 4.144531 Z M 11.136719 5.398438 C 11.179688 5.4375 11.222656 5.480469 11.265625 5.527344 L 12.019531 6.28125 L 13.671875 4.160156 L 12.507812 2.996094 L 10.386719 4.648438 Z M 11.136719 5.398438 "/>
</g>
</svg>
