<?xml version="1.0" encoding="UTF-8"?>
<svg xmlns="http://www.w3.org/2000/svg" xmlns:xlink="http://www.w3.org/1999/xlink" width="16" height="16" viewBox="0 0 16 16" version="1.1">
<g id="surface1">
<path style=" stroke:none;fill-rule:nonzero;fill:rgb(100%,100%,100%);fill-opacity:1;" d="M 14 12.667969 L 15.332031 12.667969 L 15.332031 14 L 0.667969 14 L 0.667969 12.667969 L 2 12.667969 L 2 2.667969 C 2 2.296875 2.296875 2 2.667969 2 L 9.332031 2 C 9.703125 2 10 2.296875 10 2.667969 L 10 12.667969 L 12.667969 12.667969 L 12.667969 7.332031 L 11.332031 7.332031 L 11.332031 6 L 13.332031 6 C 13.703125 6 14 6.296875 14 6.667969 Z M 3.332031 3.332031 L 3.332031 12.667969 L 8.667969 12.667969 L 8.667969 3.332031 Z M 4.667969 7.332031 L 7.332031 7.332031 L 7.332031 8.667969 L 4.667969 8.667969 Z M 4.667969 4.667969 L 7.332031 4.667969 L 7.332031 6 L 4.667969 6 Z M 4.667969 4.667969 "/>
</g>
</svg>
