<?xml version="1.0" encoding="UTF-8"?>
<svg xmlns="http://www.w3.org/2000/svg" xmlns:xlink="http://www.w3.org/1999/xlink" width="16" height="16" viewBox="0 0 16 16" version="1.1">
<g id="surface1">
<path style=" stroke:none;fill-rule:nonzero;fill:rgb(100%,100%,100%);fill-opacity:1;" d="M 5.332031 4 L 5.332031 6.664062 L 7.332031 6.664062 L 7.332031 4 L 8.667969 4 L 8.667969 6.664062 L 10.667969 6.664062 L 10.667969 4 L 12 4 L 12 6.664062 L 12.667969 6.667969 C 13.726562 6.667969 14.601562 7.492188 14.664062 8.550781 L 14.667969 8.667969 L 14.667969 9.332031 C 14.667969 10.007812 14.414062 10.625 14 11.097656 L 14 14 C 14 14.367188 13.703125 14.667969 13.332031 14.667969 L 2.667969 14.667969 C 2.296875 14.667969 2 14.367188 2 14 L 2 11.09375 C 1.640625 10.683594 1.414062 10.179688 1.351562 9.636719 L 1.335938 9.46875 L 1.332031 9.332031 L 1.332031 8.667969 C 1.332031 7.609375 2.160156 6.730469 3.214844 6.671875 L 3.332031 6.667969 L 4 6.664062 L 4 4 Z M 6 11.09375 L 5.964844 11.136719 C 5.527344 11.613281 4.933594 11.914062 4.289062 11.984375 L 4.136719 11.996094 L 4 12 C 3.769531 12 3.546875 11.96875 3.332031 11.914062 L 3.332031 13.332031 L 12.667969 13.332031 L 12.667969 11.914062 C 11.78125 12.144531 10.835938 11.902344 10.171875 11.273438 L 10.070312 11.175781 L 10 11.097656 L 9.929688 11.175781 C 9.496094 11.628906 8.917969 11.914062 8.292969 11.984375 L 8.132812 11.996094 L 8 12 C 7.300781 12 6.632812 11.726562 6.136719 11.238281 L 6.035156 11.132812 Z M 12.667969 8 L 3.332031 8 C 2.996094 8 2.710938 8.253906 2.671875 8.589844 L 2.667969 8.667969 L 2.667969 9.410156 C 2.710938 10.117188 3.292969 10.667969 4 10.667969 C 4.660156 10.667969 5.222656 10.1875 5.320312 9.535156 L 5.328125 9.429688 L 5.332031 9.3125 C 5.355469 8.480469 6.550781 8.453125 6.660156 9.226562 L 6.664062 9.3125 L 6.667969 9.410156 C 6.707031 10.113281 7.285156 10.667969 7.988281 10.671875 C 8.695312 10.675781 9.28125 10.136719 9.328125 9.433594 L 9.339844 9.246094 C 9.421875 8.472656 10.578125 8.472656 10.660156 9.246094 L 10.671875 9.433594 C 10.71875 10.128906 11.300781 10.671875 12 10.671875 C 12.699219 10.671875 13.28125 10.128906 13.328125 9.433594 L 13.332031 9.332031 L 13.332031 8.667969 C 13.332031 8.328125 13.082031 8.042969 12.746094 8.003906 Z M 4.667969 0.667969 C 5.546875 1.246094 5.773438 2.058594 5.632812 2.59375 C 5.488281 3.125 4.941406 3.441406 4.40625 3.300781 C 3.875 3.15625 3.558594 2.609375 3.699219 2.074219 C 3.898438 1.335938 4.667969 1.667969 4.667969 0.667969 Z M 8 0.667969 C 8.878906 1.246094 9.109375 2.058594 8.964844 2.59375 C 8.824219 3.125 8.273438 3.441406 7.742188 3.300781 C 7.207031 3.15625 6.890625 2.609375 7.035156 2.074219 C 7.234375 1.335938 8 1.667969 8 0.667969 Z M 11.332031 0.667969 C 12.214844 1.246094 12.441406 2.058594 12.300781 2.59375 C 12.15625 3.125 11.609375 3.441406 11.074219 3.300781 C 10.542969 3.15625 10.222656 2.609375 10.367188 2.074219 C 10.566406 1.335938 11.332031 1.667969 11.332031 0.667969 Z M 11.332031 0.667969 "/>
</g>
</svg>
