<?xml version="1.0" encoding="UTF-8"?>
<svg xmlns="http://www.w3.org/2000/svg" xmlns:xlink="http://www.w3.org/1999/xlink" width="16" height="16" viewBox="0 0 16 16" version="1.1">
<g id="surface1">
<path style=" stroke:none;fill-rule:nonzero;fill:rgb(100%,100%,100%);fill-opacity:1;" d="M 2.667969 1.332031 L 13.332031 1.332031 C 13.703125 1.332031 14 1.632812 14 2 L 14 14 C 14 14.367188 13.703125 14.667969 13.332031 14.667969 L 2.667969 14.667969 C 2.296875 14.667969 2 14.367188 2 14 L 2 2 C 2 1.632812 2.296875 1.332031 2.667969 1.332031 Z M 4.667969 8 L 4.667969 9.332031 L 6 9.332031 L 6 8 Z M 4.667969 10.667969 L 4.667969 12 L 6 12 L 6 10.667969 Z M 7.332031 8 L 7.332031 9.332031 L 8.667969 9.332031 L 8.667969 8 Z M 7.332031 10.667969 L 7.332031 12 L 8.667969 12 L 8.667969 10.667969 Z M 10 8 L 10 12 L 11.332031 12 L 11.332031 8 Z M 4.667969 4 L 4.667969 6.667969 L 11.332031 6.667969 L 11.332031 4 Z M 4.667969 4 "/>
</g>
</svg>
