<?xml version="1.0" encoding="UTF-8"?>
<svg xmlns="http://www.w3.org/2000/svg" xmlns:xlink="http://www.w3.org/1999/xlink" width="16" height="16" viewBox="0 0 16 16" version="1.1">
<g id="surface1">
<path style=" stroke:none;fill-rule:nonzero;fill:rgb(100%,100%,100%);fill-opacity:1;" d="M 6 2 L 10 2 L 11.332031 3.332031 L 14 3.332031 C 14.367188 3.332031 14.667969 3.632812 14.667969 4 L 14.667969 13.332031 C 14.667969 13.703125 14.367188 14 14 14 L 2 14 C 1.632812 14 1.332031 13.703125 1.332031 13.332031 L 1.332031 4 C 1.332031 3.632812 1.632812 3.332031 2 3.332031 L 4.667969 3.332031 Z M 9.789062 12.246094 L 9.191406 11.050781 C 8.367188 11.464844 7.382812 11.421875 6.597656 10.933594 C 5.8125 10.449219 5.332031 9.589844 5.332031 8.667969 L 6.667969 8.667969 L 5.226562 5.785156 C 3.800781 7.15625 3.589844 9.359375 4.730469 10.976562 C 5.871094 12.589844 8.019531 13.128906 9.789062 12.246094 Z M 6.210938 5.089844 L 6.808594 6.28125 C 7.632812 5.867188 8.617188 5.914062 9.402344 6.398438 C 10.1875 6.882812 10.667969 7.742188 10.667969 8.667969 L 9.332031 8.667969 L 10.773438 11.546875 C 12.199219 10.179688 12.410156 7.972656 11.269531 6.359375 C 10.128906 4.742188 7.976562 4.203125 6.210938 5.089844 Z M 6.210938 5.089844 "/>
</g>
</svg>
