<?xml version="1.0" encoding="UTF-8"?>
<svg xmlns="http://www.w3.org/2000/svg" xmlns:xlink="http://www.w3.org/1999/xlink" width="16" height="16" viewBox="0 0 16 16" version="1.1">
<g id="surface1">
<path style=" stroke:none;fill-rule:nonzero;fill:rgb(100%,100%,100%);fill-opacity:1;" d="M 6.550781 3.332031 L 5.21875 4.667969 L 2.667969 4.667969 L 2.667969 12.667969 L 13.332031 12.667969 L 13.332031 4.667969 L 10.78125 4.667969 L 9.449219 3.332031 Z M 6 2 L 10 2 L 11.332031 3.332031 L 14 3.332031 C 14.367188 3.332031 14.667969 3.632812 14.667969 4 L 14.667969 13.332031 C 14.667969 13.703125 14.367188 14 14 14 L 2 14 C 1.632812 14 1.332031 13.703125 1.332031 13.332031 L 1.332031 4 C 1.332031 3.632812 1.632812 3.332031 2 3.332031 L 4.667969 3.332031 Z M 6.425781 5.019531 C 8.046875 4.246094 9.992188 4.765625 11.015625 6.242188 C 12.039062 7.71875 11.84375 9.71875 10.550781 10.964844 L 9.167969 8.398438 L 10.332031 8.398438 L 10.332031 8.332031 C 10.332031 7.542969 9.933594 6.804688 9.269531 6.375 C 8.605469 5.945312 7.769531 5.878906 7.046875 6.203125 Z M 9.542969 11.660156 C 7.925781 12.414062 6.003906 11.890625 4.984375 10.425781 C 3.96875 8.960938 4.152344 6.976562 5.425781 5.722656 L 6.832031 8.332031 L 5.667969 8.332031 C 5.667969 9.117188 6.0625 9.851562 6.71875 10.285156 C 7.375 10.714844 8.203125 10.789062 8.925781 10.476562 Z M 9.542969 11.660156 "/>
</g>
</svg>
