<?xml version="1.0" encoding="UTF-8"?>
<svg xmlns="http://www.w3.org/2000/svg" xmlns:xlink="http://www.w3.org/1999/xlink" width="16" height="16" viewBox="0 0 16 16" version="1.1">
<g id="surface1">
<path style=" stroke:none;fill-rule:nonzero;fill:rgb(100%,100%,100%);fill-opacity:1;" d="M 1.332031 2.660156 C 1.335938 2.296875 1.628906 2.003906 1.996094 2 L 14.003906 2 C 14.371094 2 14.667969 2.296875 14.667969 2.660156 L 14.667969 13.339844 C 14.664062 13.703125 14.371094 13.996094 14.003906 14 L 1.996094 14 C 1.628906 14 1.332031 13.703125 1.332031 13.339844 Z M 2.667969 3.332031 L 2.667969 12.667969 L 13.332031 12.667969 L 13.332031 3.332031 Z M 8 10 C 9.105469 10 10 9.105469 10 8 C 10 6.894531 9.105469 6 8 6 C 6.894531 6 6 6.894531 6 8 C 6 9.105469 6.894531 10 8 10 Z M 8 11.332031 C 6.160156 11.332031 4.667969 9.839844 4.667969 8 C 4.667969 6.160156 6.160156 4.667969 8 4.667969 C 9.839844 4.667969 11.332031 6.160156 11.332031 8 C 11.332031 9.839844 9.839844 11.332031 8 11.332031 Z M 11.332031 4 L 12.667969 4 L 12.667969 5.332031 L 11.332031 5.332031 Z M 11.332031 4 "/>
</g>
</svg>
