<?xml version="1.0" encoding="UTF-8"?>
<svg xmlns="http://www.w3.org/2000/svg" xmlns:xlink="http://www.w3.org/1999/xlink" width="16" height="16" viewBox="0 0 16 16" version="1.1">
<g id="surface1">
<path style=" stroke:none;fill-rule:nonzero;fill:rgb(100%,100%,100%);fill-opacity:1;" d="M 13.058594 14 L 2 14 C 1.632812 14 1.332031 13.703125 1.332031 13.332031 L 1.332031 4 C 1.332031 3.632812 1.632812 3.332031 2 3.332031 L 2.390625 3.332031 L 0.929688 1.871094 L 1.871094 0.929688 L 15.070312 14.128906 L 14.128906 15.070312 Z M 3.722656 4.667969 L 2.667969 4.667969 L 2.667969 12.667969 L 11.722656 12.667969 L 10.269531 11.214844 C 8.8125 12.367188 6.71875 12.246094 5.402344 10.929688 C 4.085938 9.613281 3.964844 7.523438 5.121094 6.0625 Z M 6.074219 7.015625 C 5.4375 7.941406 5.554688 9.191406 6.347656 9.984375 C 7.144531 10.777344 8.390625 10.894531 9.316406 10.261719 Z M 14.667969 11.855469 L 13.332031 10.523438 L 13.332031 4.667969 L 10.78125 4.667969 L 9.449219 3.332031 L 6.550781 3.332031 L 6.347656 3.539062 L 5.40625 2.59375 L 6 2 L 10 2 L 11.332031 3.332031 L 14 3.332031 C 14.367188 3.332031 14.667969 3.632812 14.667969 4 Z M 7.507812 4.699219 C 8.644531 4.546875 9.785156 4.929688 10.59375 5.742188 C 11.402344 6.550781 11.789062 7.691406 11.632812 8.824219 L 10.074219 7.265625 C 9.851562 6.835938 9.5 6.480469 9.066406 6.257812 Z M 7.507812 4.699219 "/>
</g>
</svg>
