<?xml version="1.0" encoding="UTF-8"?>
<svg xmlns="http://www.w3.org/2000/svg" xmlns:xlink="http://www.w3.org/1999/xlink" width="16" height="16" viewBox="0 0 16 16" version="1.1">
<g id="surface1">
<path style=" stroke:none;fill-rule:nonzero;fill:rgb(100%,100%,100%);fill-opacity:1;" d="M 1.332031 4 C 1.332031 3.632812 1.636719 3.332031 1.996094 3.332031 L 14.003906 3.332031 C 14.371094 3.332031 14.667969 3.628906 14.667969 4 L 14.667969 13.332031 C 14.667969 13.703125 14.363281 14 14.003906 14 L 1.996094 14 C 1.820312 14 1.648438 13.929688 1.527344 13.804688 C 1.402344 13.679688 1.332031 13.507812 1.332031 13.332031 Z M 9.332031 12 C 11.175781 12 12.667969 10.507812 12.667969 8.667969 C 12.667969 6.824219 11.175781 5.332031 9.332031 5.332031 C 7.492188 5.332031 6 6.824219 6 8.667969 C 6 10.507812 7.492188 12 9.332031 12 Z M 2.667969 4.667969 L 2.667969 6 L 4.667969 6 L 4.667969 4.667969 Z M 2.667969 1.332031 L 6.667969 1.332031 L 6.667969 2.667969 L 2.667969 2.667969 Z M 2.667969 1.332031 "/>
</g>
</svg>
