<?xml version="1.0" encoding="UTF-8"?>
<svg xmlns="http://www.w3.org/2000/svg" xmlns:xlink="http://www.w3.org/1999/xlink" width="16" height="16" viewBox="0 0 16 16" version="1.1">
<g id="surface1">
<path style=" stroke:none;fill-rule:evenodd;fill:rgb(100%,100%,100%);fill-opacity:0.996078;" d="M 8 0 C 7.46875 0 6.960938 0.0546875 6.5 0.148438 L 6.5 1.039062 C 6.5 1.292969 6.292969 1.5 6.039062 1.5 L 5.460938 1.5 C 5.207031 1.5 5 1.292969 5 1.039062 L 5 0.6875 C 4.382812 1.039062 4 1.492188 4 2 L 4 5 L 3 6 L 4 6 L 4 14 C 4 15.109375 5.78125 16 8 16 C 10.21875 16 12 15.109375 12 14 L 12 6 L 13 6 L 12 5 L 12 2 C 12 1.492188 11.617188 1.039062 11 0.6875 L 11 1.105469 C 11 1.324219 10.824219 1.5 10.605469 1.5 L 9.894531 1.5 C 9.675781 1.5 9.5 1.324219 9.5 1.105469 L 9.5 0.148438 C 9.039062 0.0546875 8.53125 0 8 0 Z M 8.082031 4 C 9.078125 4.03125 10.046875 4.394531 11 5 L 10 7 C 8.53125 6.984375 7.234375 7.015625 6 7 L 5 5 C 6.058594 4.273438 7.085938 3.972656 8.082031 4 Z M 6 11 L 10 11 L 11 13 C 8.976562 14.363281 6.976562 14.304688 5 13 Z M 6 11 "/>
</g>
</svg>
