<?xml version="1.0" encoding="UTF-8"?>
<svg xmlns="http://www.w3.org/2000/svg" xmlns:xlink="http://www.w3.org/1999/xlink" width="16" height="16" viewBox="0 0 16 16" version="1.1">
<g id="surface1">
<path style=" stroke:none;fill-rule:nonzero;fill:rgb(100%,100%,100%);fill-opacity:1;" d="M 12.667969 13.332031 L 3.332031 13.332031 L 3.332031 14 C 3.332031 14.367188 3.035156 14.667969 2.667969 14.667969 L 2 14.667969 C 1.632812 14.667969 1.332031 14.367188 1.332031 14 L 1.332031 7.332031 L 2.988281 3.476562 C 3.195312 2.984375 3.679688 2.667969 4.214844 2.667969 L 11.785156 2.667969 C 12.320312 2.667969 12.800781 2.984375 13.011719 3.476562 L 14.667969 7.332031 L 14.667969 14 C 14.667969 14.367188 14.367188 14.667969 14 14.667969 L 13.332031 14.667969 C 12.964844 14.667969 12.667969 14.367188 12.667969 14 Z M 13.332031 8.667969 L 2.667969 8.667969 L 2.667969 12 L 13.332031 12 Z M 2.785156 7.332031 L 13.214844 7.332031 L 11.789062 4 L 4.214844 4 Z M 4.332031 11.332031 C 3.78125 11.332031 3.332031 10.886719 3.332031 10.332031 C 3.332031 9.78125 3.78125 9.332031 4.332031 9.332031 C 4.886719 9.332031 5.332031 9.78125 5.332031 10.332031 C 5.332031 10.886719 4.886719 11.332031 4.332031 11.332031 Z M 11.667969 11.332031 C 11.113281 11.332031 10.667969 10.886719 10.667969 10.332031 C 10.667969 9.78125 11.113281 9.332031 11.667969 9.332031 C 12.21875 9.332031 12.667969 9.78125 12.667969 10.332031 C 12.667969 10.886719 12.21875 11.332031 11.667969 11.332031 Z M 11.667969 11.332031 "/>
</g>
</svg>
