<?xml version="1.0" encoding="UTF-8"?>
<svg xmlns="http://www.w3.org/2000/svg" xmlns:xlink="http://www.w3.org/1999/xlink" width="16" height="16" viewBox="0 0 16 16" version="1.1">
<g id="surface1">
<path style=" stroke:none;fill-rule:nonzero;fill:rgb(100%,100%,100%);fill-opacity:1;" d="M 12.667969 13.332031 L 3.332031 13.332031 L 3.332031 14 C 3.332031 14.367188 3.035156 14.667969 2.667969 14.667969 L 2 14.667969 C 1.632812 14.667969 1.332031 14.367188 1.332031 14 L 1.332031 8 L 3.007812 3.53125 C 3.203125 3.011719 3.703125 2.667969 4.257812 2.667969 L 11.742188 2.667969 C 12.296875 2.667969 12.796875 3.011719 12.992188 3.53125 L 14.667969 8 L 14.667969 14 C 14.667969 14.367188 14.367188 14.667969 14 14.667969 L 13.332031 14.667969 C 12.964844 14.667969 12.667969 14.367188 12.667969 14 Z M 2.757812 8 L 13.242188 8 L 11.742188 4 L 4.257812 4 Z M 4.332031 11.332031 C 4.886719 11.332031 5.332031 10.886719 5.332031 10.332031 C 5.332031 9.78125 4.886719 9.332031 4.332031 9.332031 C 3.78125 9.332031 3.332031 9.78125 3.332031 10.332031 C 3.332031 10.886719 3.78125 11.332031 4.332031 11.332031 Z M 11.667969 11.332031 C 12.21875 11.332031 12.667969 10.886719 12.667969 10.332031 C 12.667969 9.78125 12.21875 9.332031 11.667969 9.332031 C 11.113281 9.332031 10.667969 9.78125 10.667969 10.332031 C 10.667969 10.886719 11.113281 11.332031 11.667969 11.332031 Z M 11.667969 11.332031 "/>
</g>
</svg>
