<?xml version="1.0" encoding="UTF-8"?>
<svg xmlns="http://www.w3.org/2000/svg" xmlns:xlink="http://www.w3.org/1999/xlink" width="16" height="16" viewBox="0 0 16 16" version="1.1">
<g id="surface1">
<path style=" stroke:none;fill-rule:evenodd;fill:rgb(100%,100%,100%);fill-opacity:1;" d="M 4.726562 0.226562 C 4.359375 0.25 4.019531 0.445312 3.8125 0.753906 L 0.835938 5.265625 C 0.492188 5.789062 0.632812 6.5 1.15625 6.851562 L 4.316406 8.960938 L 2.570312 11.292969 C 2.46875 11.425781 2.34375 11.539062 2.195312 11.617188 C 2.125 11.132812 1.703125 10.773438 1.210938 10.773438 L 0.210938 10.773438 L 0.210938 15.773438 L 1.210938 15.773438 C 1.761719 15.773438 2.210938 15.328125 2.210938 14.773438 L 2.820312 14.773438 C 3.699219 14.773438 4.53125 14.375 5.078125 13.691406 L 7.277344 10.9375 L 8.21875 11.566406 L 14.070312 6.1875 L 5.433594 0.421875 C 5.226562 0.28125 4.976562 0.214844 4.726562 0.226562 Z M 13.804688 8.335938 L 9.460938 12.398438 L 12.242188 14.253906 C 12.671875 14.539062 13.25 14.421875 13.539062 13.992188 L 15.609375 10.851562 C 15.941406 10.347656 15.804688 9.667969 15.304688 9.335938 Z M 13.804688 8.335938 "/>
</g>
</svg>
