<?xml version="1.0" encoding="UTF-8"?>
<svg xmlns="http://www.w3.org/2000/svg" xmlns:xlink="http://www.w3.org/1999/xlink" width="16" height="16" viewBox="0 0 16 16" version="1.1">
<g id="surface1">
<path style=" stroke:none;fill-rule:nonzero;fill:rgb(100%,100%,100%);fill-opacity:1;" d="M 8 8.707031 L 10.980469 11.6875 L 8 14.667969 L 5.019531 11.6875 Z M 2.667969 10.746094 L 5.253906 13.332031 L 2.667969 13.332031 Z M 13.332031 10.746094 L 13.332031 13.332031 L 10.746094 13.332031 Z M 11.6875 5.019531 L 14.667969 8 L 11.6875 10.980469 L 8.707031 8 Z M 4.3125 5.019531 L 7.292969 8 L 4.3125 10.980469 L 1.332031 8 Z M 8 1.332031 L 10.980469 4.3125 L 8 7.292969 L 5.019531 4.3125 Z M 5.253906 2.667969 L 2.664062 5.253906 L 2.667969 2.667969 Z M 13.332031 2.667969 L 13.332031 5.253906 L 10.746094 2.664062 Z M 13.332031 2.667969 "/>
</g>
</svg>
