<?xml version="1.0" encoding="UTF-8"?>
<svg xmlns="http://www.w3.org/2000/svg" xmlns:xlink="http://www.w3.org/1999/xlink" width="16" height="16" viewBox="0 0 16 16" version="1.1">
<g id="surface1">
<path style=" stroke:none;fill-rule:nonzero;fill:rgb(100%,100%,100%);fill-opacity:1;" d="M 3 7 L 5 7 L 5 14 L 3 14 Z M 3 7 "/>
<path style=" stroke:none;fill-rule:nonzero;fill:rgb(100%,100%,100%);fill-opacity:1;" d="M 6 5 L 8 5 L 8 14 L 6 14 Z M 6 5 "/>
<path style=" stroke:none;fill-rule:nonzero;fill:rgb(100%,100%,100%);fill-opacity:1;" d="M 9 7 L 11 7 L 11 14 L 9 14 Z M 9 7 "/>
<path style=" stroke:none;fill-rule:nonzero;fill:rgb(100%,100%,100%);fill-opacity:1;" d="M 12 6 L 14 6 L 14 14 L 12 14 Z M 12 6 "/>
<path style=" stroke:none;fill-rule:nonzero;fill:rgb(100%,100%,100%);fill-opacity:1;" d="M 0.492188 1 C 0.21875 1.003906 -0.00390625 1.226562 0 1.5 L 0 14.5 C -0.00390625 14.773438 0.21875 15 0.492188 15 L 15.5 15 C 15.773438 15 16 14.773438 16 14.5 C 16 14.21875 15.773438 13.996094 15.5 13.996094 L 0.996094 13.996094 L 0.996094 1.5 C 1 1.226562 0.773438 1 0.492188 1 Z M 0.492188 1 "/>
<path style=" stroke:none;fill-rule:evenodd;fill:rgb(100%,100%,100%);fill-opacity:1;" d="M 7 1 C 6.445312 1 6 1.445312 6 2 C 6 2.085938 6.011719 2.175781 6.035156 2.261719 L 4.257812 4.035156 C 4.171875 4.011719 4.085938 4 4 4 C 3.445312 4 3 4.445312 3 5 C 3 5.554688 3.445312 6 4 6 C 4.554688 6 5 5.554688 5 5 C 5 4.914062 4.988281 4.828125 4.964844 4.742188 L 6.742188 2.96875 C 6.828125 2.988281 6.914062 3 7 3 C 7.085938 3 7.175781 2.988281 7.257812 2.964844 L 9.035156 4.742188 C 9.011719 4.824219 9 4.914062 9 5 C 9 5.554688 9.445312 6 10 6 C 10.476562 6 10.882812 5.664062 10.976562 5.203125 L 12.335938 4.75 C 12.523438 4.910156 12.757812 5 13 5 C 13.554688 5 14 4.554688 14 4 C 14 3.445312 13.554688 3 13 3 C 12.527344 3 12.117188 3.332031 12.023438 3.796875 L 10.65625 4.25 C 10.476562 4.089844 10.242188 4 10 4 C 9.914062 4 9.828125 4.011719 9.742188 4.035156 L 7.964844 2.257812 C 7.988281 2.171875 8 2.085938 8 2 C 8 1.445312 7.554688 1 7 1 Z M 7 1 "/>
</g>
</svg>
