<?xml version="1.0" encoding="UTF-8"?>
<svg xmlns="http://www.w3.org/2000/svg" xmlns:xlink="http://www.w3.org/1999/xlink" width="16" height="16" viewBox="0 0 16 16" version="1.1">
<g id="surface1">
<path style=" stroke:none;fill-rule:nonzero;fill:rgb(100%,100%,100%);fill-opacity:1;" d="M 7.972656 0.414062 C 7.96875 0.414062 7.964844 0.414062 7.960938 0.414062 C 7.871094 0.421875 7.789062 0.453125 7.714844 0.507812 L 0.257812 5.902344 C 0.0859375 6.03125 0.0117188 6.253906 0.078125 6.460938 L 2.898438 15.21875 C 2.964844 15.429688 3.15625 15.570312 3.375 15.570312 L 12.585938 15.589844 C 12.796875 15.585938 12.984375 15.453125 13.054688 15.25 L 15.921875 6.492188 C 15.988281 6.285156 15.914062 6.0625 15.738281 5.9375 L 8.308594 0.507812 C 8.210938 0.4375 8.09375 0.402344 7.972656 0.414062 Z M 8.488281 1.875 L 14.394531 6.191406 L 13.210938 6.632812 L 8.488281 3.804688 Z M 7.488281 1.90625 L 7.488281 3.820312 L 2.929688 6.710938 L 1.550781 6.195312 Z M 8.488281 4.96875 L 12.011719 7.074219 L 8.488281 8.375 Z M 7.488281 5 L 7.488281 8.394531 L 4.109375 7.144531 Z M 14.644531 7.171875 L 13.230469 11.5 L 13.691406 7.523438 Z M 1.359375 7.195312 L 2.472656 7.609375 L 4.375 12.867188 L 3.574219 14.046875 Z M 12.640625 7.914062 L 11.984375 13.59375 L 9.027344 9.246094 Z M 3.699219 8.0625 L 6.851562 9.230469 L 5.070312 11.847656 Z M 7.933594 9.417969 L 10.988281 13.898438 L 5.679688 12.726562 Z M 5.070312 13.621094 L 9.4375 14.582031 L 4.421875 14.570312 Z M 5.070312 13.621094 "/>
</g>
</svg>
