<?xml version="1.0" encoding="UTF-8"?>
<svg xmlns="http://www.w3.org/2000/svg" xmlns:xlink="http://www.w3.org/1999/xlink" width="16" height="16" viewBox="0 0 16 16" version="1.1">
<g id="surface1">
<path style=" stroke:none;fill-rule:nonzero;fill:rgb(100%,100%,100%);fill-opacity:1;" d="M 10.722656 5 C 10.585938 5.015625 10.460938 5.09375 10.382812 5.203125 L 8.40625 7.972656 L 7.070312 6.414062 C 6.960938 6.289062 6.800781 6.226562 6.636719 6.242188 C 6.476562 6.257812 6.328125 6.351562 6.25 6.496094 L 4.964844 8.777344 L 2.976562 5.664062 C 2.894531 5.527344 2.75 5.4375 2.59375 5.429688 C 2.429688 5.414062 2.277344 5.484375 2.171875 5.601562 L 0.171875 7.9375 C 0.0859375 8.035156 0.0429688 8.167969 0.0546875 8.300781 C 0.0625 8.433594 0.125 8.554688 0.226562 8.644531 C 0.328125 8.730469 0.460938 8.773438 0.59375 8.761719 C 0.726562 8.75 0.847656 8.6875 0.933594 8.585938 L 2.5 6.761719 L 4.574219 10.015625 C 4.667969 10.164062 4.832031 10.25 5.007812 10.25 C 5.183594 10.242188 5.34375 10.148438 5.429688 9.992188 L 6.773438 7.609375 L 8.054688 9.101562 C 8.15625 9.21875 8.304688 9.289062 8.460938 9.28125 C 8.613281 9.273438 8.757812 9.195312 8.847656 9.070312 L 10.75 6.398438 L 11.453125 7.566406 C 11.5 7.644531 11.566406 7.707031 11.644531 7.75 L 13.933594 8.96875 C 14.175781 9.09375 14.476562 9.003906 14.605469 8.761719 C 14.734375 8.523438 14.644531 8.222656 14.40625 8.089844 L 12.242188 6.929688 L 11.21875 5.234375 C 11.113281 5.0625 10.921875 4.96875 10.722656 5 Z M 10.722656 5 "/>
<path style=" stroke:none;fill-rule:nonzero;fill:rgb(100%,100%,100%);fill-opacity:1;" d="M 0.492188 1 C 0.21875 1.003906 -0.00390625 1.226562 0 1.5 L 0 14.5 C -0.00390625 14.773438 0.21875 14.996094 0.492188 15 L 15.5 15 C 15.773438 15 16 14.773438 16 14.5 C 16 14.21875 15.773438 13.992188 15.5 13.996094 L 0.996094 13.996094 L 0.996094 1.5 C 1 1.226562 0.773438 1 0.492188 1 Z M 0.492188 1 "/>
</g>
</svg>
