<?xml version="1.0" encoding="UTF-8"?>
<svg xmlns="http://www.w3.org/2000/svg" xmlns:xlink="http://www.w3.org/1999/xlink" width="16" height="16" viewBox="0 0 16 16" version="1.1">
<g id="surface1">
<path style=" stroke:none;fill-rule:nonzero;fill:rgb(100%,100%,100%);fill-opacity:1;" d="M 4.304688 12.667969 L 1.332031 15 L 1.332031 2.667969 C 1.332031 2.296875 1.632812 2 2 2 L 14 2 C 14.367188 2 14.667969 2.296875 14.667969 2.667969 L 14.667969 12 C 14.667969 12.367188 14.367188 12.667969 14 12.667969 Z M 2.667969 12.257812 L 3.84375 11.332031 L 13.332031 11.332031 L 13.332031 3.332031 L 2.667969 3.332031 Z M 8.011719 9.800781 L 5.773438 7.558594 C 5.1875 6.972656 5.1875 6.023438 5.773438 5.4375 C 6.359375 4.851562 7.308594 4.851562 7.894531 5.4375 L 8.011719 5.558594 L 8.128906 5.4375 C 8.714844 4.851562 9.664062 4.851562 10.25 5.4375 C 10.835938 6.023438 10.835938 6.972656 10.25 7.558594 Z M 8.011719 9.800781 "/>
</g>
</svg>
