<?xml version="1.0" encoding="UTF-8"?>
<svg xmlns="http://www.w3.org/2000/svg" xmlns:xlink="http://www.w3.org/1999/xlink" width="16" height="16" viewBox="0 0 16 16" version="1.1">
<g id="surface1">
<path style=" stroke:none;fill-rule:nonzero;fill:rgb(100%,100%,100%);fill-opacity:1;" d="M 14 2 C 14.367188 2 14.667969 2.296875 14.667969 2.667969 L 14.667969 12 C 14.667969 12.367188 14.367188 12.667969 14 12.667969 L 4.304688 12.667969 L 1.332031 15 L 1.332031 2.667969 C 1.332031 2.296875 1.632812 2 2 2 Z M 13.332031 3.332031 L 2.667969 3.332031 L 2.667969 12.257812 L 3.84375 11.332031 L 13.332031 11.332031 Z M 8.667969 4.667969 L 8.667969 10 L 7.332031 10 L 7.332031 4.667969 Z M 11.332031 6 L 11.332031 10 L 10 10 L 10 6 Z M 6 7.332031 L 6 10 L 4.667969 10 L 4.667969 7.332031 Z M 6 7.332031 "/>
</g>
</svg>
