<?xml version="1.0" encoding="UTF-8"?>
<svg xmlns="http://www.w3.org/2000/svg" xmlns:xlink="http://www.w3.org/1999/xlink" width="16" height="16" viewBox="0 0 16 16" version="1.1">
<g id="surface1">
<path style=" stroke:none;fill-rule:nonzero;fill:rgb(100%,100%,100%);fill-opacity:1;" d="M 8.003906 11.398438 L 14.179688 5.914062 C 14.332031 5.78125 14.421875 5.597656 14.4375 5.398438 C 14.449219 5.195312 14.382812 5 14.25 4.851562 C 14.117188 4.703125 13.929688 4.613281 13.730469 4.601562 C 13.53125 4.589844 13.335938 4.660156 13.1875 4.792969 L 8.003906 9.390625 L 2.8125 4.792969 C 2.664062 4.660156 2.46875 4.589844 2.269531 4.601562 C 2.070312 4.613281 1.882812 4.703125 1.75 4.851562 C 1.617188 5 1.550781 5.195312 1.5625 5.398438 C 1.578125 5.597656 1.667969 5.78125 1.820312 5.914062 Z M 8.003906 11.398438 "/>
</g>
</svg>
