<?xml version="1.0" encoding="UTF-8"?>
<svg xmlns="http://www.w3.org/2000/svg" xmlns:xlink="http://www.w3.org/1999/xlink" width="16" height="16" viewBox="0 0 16 16" version="1.1">
<g id="surface1">
<path style=" stroke:none;fill-rule:nonzero;fill:rgb(100%,100%,100%);fill-opacity:1;" d="M 11.398438 7.996094 L 5.914062 1.820312 C 5.78125 1.667969 5.597656 1.578125 5.398438 1.5625 C 5.195312 1.550781 5 1.617188 4.851562 1.75 C 4.703125 1.882812 4.613281 2.070312 4.601562 2.269531 C 4.589844 2.46875 4.660156 2.664062 4.792969 2.8125 L 9.390625 7.996094 L 4.792969 13.1875 C 4.660156 13.335938 4.589844 13.53125 4.601562 13.730469 C 4.613281 13.929688 4.703125 14.117188 4.851562 14.25 C 5 14.382812 5.195312 14.449219 5.398438 14.4375 C 5.597656 14.421875 5.78125 14.332031 5.914062 14.179688 Z M 11.398438 7.996094 "/>
</g>
</svg>
