<?xml version="1.0" encoding="UTF-8"?>
<svg xmlns="http://www.w3.org/2000/svg" xmlns:xlink="http://www.w3.org/1999/xlink" width="16" height="16" viewBox="0 0 16 16" version="1.1">
<g id="surface1">
<path style=" stroke:none;fill-rule:nonzero;fill:rgb(100%,100%,100%);fill-opacity:1;" d="M 6.550781 14.507812 C 3.566406 13.847656 1.332031 11.183594 1.332031 8 C 1.332031 6.785156 1.65625 5.648438 2.226562 4.664062 L 5.082031 9.613281 C 5.738281 10.800781 7.050781 11.472656 8.398438 11.308594 Z M 8 14.667969 L 10.859375 9.714844 C 11.171875 9.199219 11.335938 8.605469 11.332031 8 C 11.335938 7.277344 11.101562 6.578125 10.667969 6 L 14.363281 6 C 14.558594 6.632812 14.667969 7.304688 14.667969 8 C 14.667969 11.683594 11.683594 14.667969 8 14.667969 Z M 9.714844 9.03125 C 9.351562 9.636719 8.691406 10.007812 7.984375 10 C 7.273438 9.996094 6.621094 9.613281 6.269531 9 L 6.25 8.964844 C 5.78125 8.121094 5.984375 7.0625 6.734375 6.453125 C 7.480469 5.839844 8.558594 5.851562 9.296875 6.476562 C 10.03125 7.101562 10.214844 8.164062 9.730469 9 Z M 3.089844 3.492188 C 4.347656 2.113281 6.132812 1.332031 8 1.332031 C 10.382812 1.332031 12.582031 2.601562 13.773438 4.667969 L 8 4.667969 C 6.664062 4.667969 5.457031 5.460938 4.933594 6.691406 Z M 3.089844 3.492188 "/>
</g>
</svg>
