<?xml version="1.0" encoding="UTF-8"?>
<svg xmlns="http://www.w3.org/2000/svg" xmlns:xlink="http://www.w3.org/1999/xlink" width="16" height="16" viewBox="0 0 16 16" version="1.1">
<g id="surface1">
<path style=" stroke:none;fill-rule:nonzero;fill:rgb(100%,100%,100%);fill-opacity:1;" d="M 6.667969 2.667969 L 6.667969 0.667969 L 10 3.332031 L 6.667969 6 L 6.667969 4 L 5.332031 4 C 4.230469 4 3.332031 4.894531 3.332031 6 L 3.332031 8.667969 L 2 8.667969 L 2 6 C 2 4.160156 3.492188 2.667969 5.332031 2.667969 Z M 6 7.332031 C 6 6.964844 6.296875 6.667969 6.667969 6.667969 L 13.332031 6.667969 C 13.703125 6.667969 14 6.964844 14 7.332031 L 14 14 C 14 14.367188 13.703125 14.667969 13.332031 14.667969 L 6.667969 14.667969 C 6.296875 14.667969 6 14.367188 6 14 Z M 6 7.332031 "/>
</g>
</svg>
