<?xml version="1.0" encoding="UTF-8"?>
<svg xmlns="http://www.w3.org/2000/svg" xmlns:xlink="http://www.w3.org/1999/xlink" width="16" height="16" viewBox="0 0 16 16" version="1.1">
<g id="surface1">
<path style=" stroke:none;fill-rule:nonzero;fill:rgb(100%,100%,100%);fill-opacity:1;" d="M 13.332031 7.058594 L 14.550781 5.839844 L 15.496094 6.78125 L 12.667969 9.609375 L 9.839844 6.78125 L 10.78125 5.839844 L 12 7.058594 L 12 5.332031 C 12 4.230469 11.105469 3.332031 10 3.332031 L 7.332031 3.332031 L 7.332031 2 L 10 2 C 11.839844 2 13.332031 3.492188 13.332031 5.332031 Z M 8.667969 6 C 9.035156 6 9.332031 6.296875 9.332031 6.667969 L 9.332031 13.332031 C 9.332031 13.703125 9.035156 14 8.667969 14 L 2 14 C 1.632812 14 1.332031 13.703125 1.332031 13.332031 L 1.332031 6.667969 C 1.332031 6.296875 1.632812 6 2 6 Z M 8 7.332031 L 2.667969 7.332031 L 2.667969 12.667969 L 8 12.667969 Z M 8 7.332031 "/>
</g>
</svg>
