<?xml version="1.0" encoding="UTF-8"?>
<svg xmlns="http://www.w3.org/2000/svg" xmlns:xlink="http://www.w3.org/1999/xlink" width="16" height="16" viewBox="0 0 16 16" version="1.1">
<g id="surface1">
<path style=" stroke:none;fill-rule:nonzero;fill:rgb(100%,100%,100%);fill-opacity:1;" d="M 2.34375 1.398438 L 15.070312 14.128906 L 14.128906 15.070312 L 12.785156 13.726562 C 12.324219 13.910156 11.828125 14 11.332031 14 L 4.667969 14 C 2.714844 14 1.050781 12.597656 0.722656 10.671875 C 0.394531 8.75 1.5 6.871094 3.339844 6.226562 C 3.308594 5.648438 3.390625 5.066406 3.574219 4.515625 L 1.398438 2.34375 Z M 11.332031 6 C 12.761719 6 14.078125 6.761719 14.792969 7.996094 C 15.507812 9.230469 15.511719 10.753906 14.800781 11.992188 L 9.339844 6.53125 C 9.925781 6.191406 10.605469 6 11.332031 6 Z M 8 1.332031 C 10.113281 1.332031 11.964844 2.753906 12.511719 4.796875 C 11.085938 4.476562 9.589844 4.753906 8.371094 5.5625 L 5.128906 2.320312 C 5.949219 1.679688 6.960938 1.332031 8 1.332031 Z M 8 1.332031 "/>
</g>
</svg>
