<?xml version="1.0" encoding="UTF-8"?>
<svg xmlns="http://www.w3.org/2000/svg" xmlns:xlink="http://www.w3.org/1999/xlink" width="16" height="16" viewBox="0 0 16 16" version="1.1">
<g id="surface1">
<path style=" stroke:none;fill-rule:nonzero;fill:rgb(100%,100%,100%);fill-opacity:1;" d="M 11.332031 4.667969 C 9.109375 4.667969 7.121094 6.046875 6.339844 8.125 L 7.585938 8.59375 C 8.269531 6.785156 10.144531 5.722656 12.046875 6.066406 C 13.949219 6.414062 15.332031 8.066406 15.332031 10 C 15.332031 12.210938 13.542969 14 11.332031 14 L 4.667969 14 C 2.714844 14 1.050781 12.597656 0.722656 10.671875 C 0.394531 8.75 1.5 6.871094 3.339844 6.226562 C 3.21875 3.839844 4.921875 1.75 7.28125 1.382812 C 9.640625 1.015625 11.898438 2.488281 12.511719 4.796875 C 12.125 4.710938 11.730469 4.667969 11.332031 4.667969 Z M 11.332031 4.667969 "/>
</g>
</svg>
