<?xml version="1.0" encoding="UTF-8"?>
<svg xmlns="http://www.w3.org/2000/svg" xmlns:xlink="http://www.w3.org/1999/xlink" width="16" height="16" viewBox="0 0 16 16" version="1.1">
<g id="surface1">
<path style=" stroke:none;fill-rule:evenodd;fill:rgb(100%,100%,100%);fill-opacity:1;" d="M 0.00390625 0 L 0.00390625 16 L 15 16 L 15 13 L 11.976562 13 C 12.28125 13 12.523438 12.34375 12.5 12.054688 L 12.148438 8 L 12.699219 8 L 13.210938 11.859375 C 13.265625 12.269531 13.53125 12.453125 13.941406 12.390625 C 14.351562 12.328125 14.40625 12.046875 14.34375 11.636719 L 13.742188 7.632812 C 13.683594 7.269531 13.371094 7 13 7 L 5.34375 7 C 5 7 5 8 5.34375 8 L 5.851562 8 L 5.503906 12.054688 C 5.480469 12.34375 5.722656 13 6.03125 13 L 4 13 C 3.449219 13 3 12.554688 3 12 L 3 4 C 3 3.445312 3.449219 3 4 3 L 6.507812 3 L 6.507812 5.5 C 6.503906 5.773438 6.726562 6 7 6 L 11 6 C 11.28125 6.003906 11.507812 5.78125 11.503906 5.5 L 11.503906 5.007812 L 16 5.007812 L 16 4 L 11.503906 4 L 11.503906 3 L 13 3 L 13 2 C 13 0.894531 12.109375 0 11 0 Z M 7.5 4 L 10.5 4 L 10.5 5.007812 L 7.5 5.007812 Z M 6.6875 8 L 11.316406 8 L 11.5 11 L 6.5 11 Z M 6.6875 8 "/>
</g>
</svg>
