<?xml version="1.0" encoding="UTF-8"?>
<svg xmlns="http://www.w3.org/2000/svg" xmlns:xlink="http://www.w3.org/1999/xlink" width="16" height="16" viewBox="0 0 16 16" version="1.1">
<g id="surface1">
<path style=" stroke:none;fill-rule:nonzero;fill:rgb(100%,100%,100%);fill-opacity:1;" d="M 5.992188 0 L 5.992188 2.875 C 5.933594 2.898438 5.875 2.921875 5.820312 2.949219 C 5.804688 2.953125 5.796875 2.953125 5.789062 2.960938 C 5.746094 2.976562 5.703125 3 5.664062 3.015625 C 5.648438 3.019531 5.640625 3.027344 5.632812 3.03125 C 5.582031 3.054688 5.53125 3.078125 5.480469 3.105469 C 5.445312 3.125 5.410156 3.140625 5.375 3.164062 C 5.351562 3.179688 5.320312 3.195312 5.296875 3.203125 C 5.292969 3.210938 5.285156 3.210938 5.28125 3.210938 C 5.234375 3.242188 5.1875 3.265625 5.140625 3.296875 C 5.09375 3.320312 5.046875 3.351562 5.003906 3.382812 C 4.988281 3.390625 4.972656 3.398438 4.960938 3.410156 C 4.957031 3.414062 4.949219 3.417969 4.945312 3.421875 C 4.898438 3.453125 4.855469 3.484375 4.8125 3.515625 C 4.726562 3.578125 4.640625 3.640625 4.554688 3.703125 L 2.066406 2.265625 L 0.0664062 5.734375 L 2.558594 7.171875 C 2.546875 7.234375 2.539062 7.296875 2.53125 7.363281 L 2.53125 7.371094 C 2.523438 7.421875 2.523438 7.476562 2.515625 7.53125 C 2.515625 7.554688 2.515625 7.578125 2.515625 7.597656 C 2.507812 7.644531 2.507812 7.6875 2.507812 7.734375 C 2.507812 7.75 2.503906 7.765625 2.503906 7.773438 C 2.5 7.820312 2.5 7.867188 2.5 7.914062 C 2.5 7.945312 2.5 7.972656 2.5 8 C 2.5 8.003906 2.5 8.007812 2.5 8.015625 C 2.5 8.054688 2.5 8.085938 2.5 8.125 C 2.5 8.15625 2.5 8.191406 2.503906 8.226562 C 2.503906 8.226562 2.503906 8.234375 2.503906 8.242188 C 2.507812 8.289062 2.507812 8.34375 2.515625 8.398438 C 2.519531 8.460938 2.527344 8.523438 2.53125 8.59375 C 2.539062 8.671875 2.554688 8.75 2.5625 8.828125 L 0.0742188 10.269531 L 2.074219 13.734375 L 4.566406 12.296875 C 4.578125 12.304688 4.589844 12.3125 4.601562 12.320312 C 4.640625 12.351562 4.679688 12.382812 4.722656 12.414062 C 4.734375 12.421875 4.746094 12.433594 4.757812 12.441406 C 4.796875 12.46875 4.84375 12.5 4.882812 12.53125 C 4.992188 12.605469 5.101562 12.675781 5.21875 12.742188 C 5.226562 12.75 5.242188 12.757812 5.253906 12.765625 C 5.414062 12.855469 5.578125 12.9375 5.742188 13.015625 L 5.746094 13.015625 C 5.828125 13.054688 5.914062 13.089844 6 13.121094 L 6.003906 13.125 L 6.003906 16 L 10.003906 16 L 10.003906 13.125 C 10.0625 13.101562 10.125 13.078125 10.1875 13.046875 C 10.234375 13.027344 10.285156 13.007812 10.335938 12.984375 C 10.34375 12.976562 10.359375 12.972656 10.367188 12.96875 C 10.414062 12.945312 10.460938 12.921875 10.511719 12.898438 C 10.523438 12.890625 10.535156 12.882812 10.539062 12.882812 C 10.554688 12.875 10.578125 12.859375 10.59375 12.851562 C 10.632812 12.832031 10.671875 12.8125 10.710938 12.789062 C 10.769531 12.753906 10.828125 12.71875 10.882812 12.6875 C 10.9375 12.652344 10.992188 12.617188 11.046875 12.578125 C 11.101562 12.542969 11.15625 12.507812 11.210938 12.46875 C 11.257812 12.4375 11.296875 12.40625 11.34375 12.371094 C 11.351562 12.363281 11.359375 12.359375 11.367188 12.351562 C 11.390625 12.328125 11.414062 12.3125 11.4375 12.296875 L 13.929688 13.734375 L 15.929688 10.269531 L 13.4375 8.832031 C 13.445312 8.808594 13.445312 8.785156 13.453125 8.761719 C 13.453125 8.757812 13.453125 8.753906 13.453125 8.746094 C 13.453125 8.722656 13.460938 8.695312 13.464844 8.671875 C 13.46875 8.65625 13.46875 8.636719 13.46875 8.617188 C 13.476562 8.574219 13.484375 8.53125 13.484375 8.484375 L 13.484375 8.480469 C 13.484375 8.476562 13.484375 8.472656 13.484375 8.464844 C 13.492188 8.40625 13.492188 8.351562 13.5 8.296875 C 13.5 8.292969 13.5 8.285156 13.5 8.28125 C 13.5 8.242188 13.503906 8.199219 13.507812 8.15625 C 13.507812 8.148438 13.507812 8.140625 13.507812 8.125 C 13.507812 8.085938 13.507812 8.042969 13.507812 8 C 13.507812 8 13.507812 7.992188 13.507812 7.984375 C 13.507812 7.976562 13.507812 7.96875 13.507812 7.960938 C 13.507812 7.90625 13.507812 7.855469 13.507812 7.804688 C 13.507812 7.789062 13.503906 7.777344 13.503906 7.765625 C 13.5 7.710938 13.5 7.65625 13.492188 7.609375 C 13.488281 7.539062 13.480469 7.476562 13.472656 7.414062 C 13.46875 7.332031 13.453125 7.25 13.445312 7.171875 L 15.933594 5.734375 L 13.933594 2.269531 L 11.441406 3.710938 C 11.390625 3.667969 11.335938 3.625 11.285156 3.585938 C 11.273438 3.578125 11.261719 3.570312 11.25 3.5625 C 11.210938 3.53125 11.164062 3.5 11.125 3.46875 C 11.015625 3.398438 10.90625 3.328125 10.792969 3.257812 C 10.78125 3.25 10.765625 3.242188 10.753906 3.238281 C 10.59375 3.148438 10.433594 3.0625 10.265625 2.984375 L 10.261719 2.984375 C 10.179688 2.945312 10.09375 2.914062 10.007812 2.878906 L 10.003906 2.875 L 10.003906 0 Z M 7.992188 5.5 C 9.375 5.5 10.492188 6.617188 10.492188 8 C 10.492188 9.382812 9.375 10.5 7.992188 10.5 C 6.609375 10.5 5.492188 9.382812 5.492188 8 C 5.492188 6.617188 6.609375 5.5 7.992188 5.5 Z M 7.992188 5.5 "/>
</g>
</svg>
