<?xml version="1.0" encoding="UTF-8"?>
<svg xmlns="http://www.w3.org/2000/svg" xmlns:xlink="http://www.w3.org/1999/xlink" width="16" height="16" viewBox="0 0 16 16" version="1.1">
<g id="surface1">
<path style=" stroke:none;fill-rule:nonzero;fill:rgb(100%,100%,100%);fill-opacity:1;" d="M 9.332031 1.332031 C 11.847656 1.332031 14.019531 3.085938 14.550781 5.542969 C 15.078125 8.003906 13.820312 10.496094 11.527344 11.527344 C 10.550781 13.691406 8.265625 14.945312 5.914062 14.609375 C 3.566406 14.277344 1.722656 12.429688 1.390625 10.082031 C 1.054688 7.734375 2.308594 5.449219 4.46875 4.472656 C 5.335938 2.5625 7.238281 1.332031 9.332031 1.332031 Z M 6.667969 5.332031 C 4.457031 5.332031 2.667969 7.125 2.667969 9.332031 C 2.667969 11.542969 4.457031 13.332031 6.667969 13.332031 C 8.875 13.332031 10.667969 11.542969 10.667969 9.332031 C 10.667969 7.125 8.875 5.332031 6.667969 5.332031 Z M 7.332031 6 L 7.332031 6.667969 L 8.667969 6.667969 L 8.667969 8 L 6 8 C 5.828125 8 5.683594 8.132812 5.667969 8.304688 C 5.652344 8.476562 5.769531 8.628906 5.941406 8.660156 L 6 8.667969 L 7.332031 8.667969 C 8.253906 8.667969 9 9.414062 9 10.332031 C 9 11.253906 8.253906 12 7.332031 12 L 7.332031 12.667969 L 6 12.667969 L 6 12 L 4.667969 12 L 4.667969 10.667969 L 7.332031 10.667969 C 7.507812 10.667969 7.648438 10.535156 7.664062 10.363281 C 7.679688 10.191406 7.5625 10.035156 7.394531 10.003906 L 7.332031 10 L 6 10 C 5.078125 10 4.332031 9.253906 4.332031 8.332031 C 4.332031 7.414062 5.078125 6.667969 6 6.667969 L 6 6 Z M 9.332031 2.667969 C 8.191406 2.664062 7.101562 3.152344 6.34375 4.007812 C 7.867188 3.917969 9.359375 4.480469 10.4375 5.5625 C 11.519531 6.640625 12.082031 8.132812 11.992188 9.65625 C 13.230469 8.550781 13.660156 6.796875 13.070312 5.246094 C 12.480469 3.691406 10.992188 2.667969 9.332031 2.667969 Z M 9.332031 2.667969 "/>
</g>
</svg>
