<?xml version="1.0" encoding="UTF-8"?>
<svg xmlns="http://www.w3.org/2000/svg" xmlns:xlink="http://www.w3.org/1999/xlink" width="16" height="16" viewBox="0 0 16 16" version="1.1">
<g id="surface1">
<path style=" stroke:none;fill-rule:nonzero;fill:rgb(100%,100%,100%);fill-opacity:1;" d="M 2.667969 10.667969 L 13.332031 10.667969 L 13.332031 3.332031 L 2.667969 3.332031 Z M 8.667969 12 L 8.667969 13.332031 L 11.332031 13.332031 L 11.332031 14.667969 L 4.667969 14.667969 L 4.667969 13.332031 L 7.332031 13.332031 L 7.332031 12 L 1.996094 12 C 1.816406 12 1.648438 11.925781 1.523438 11.800781 C 1.402344 11.675781 1.332031 11.503906 1.332031 11.328125 L 1.332031 2.671875 C 1.332031 2.300781 1.636719 2 1.996094 2 L 14.003906 2 C 14.371094 2 14.667969 2.300781 14.667969 2.671875 L 14.667969 11.328125 C 14.667969 11.699219 14.363281 12 14.003906 12 Z M 8.667969 12 "/>
</g>
</svg>
