<?xml version="1.0" encoding="UTF-8"?>
<svg xmlns="http://www.w3.org/2000/svg" xmlns:xlink="http://www.w3.org/1999/xlink" width="16" height="16" viewBox="0 0 16 16" version="1.1">
<g id="surface1">
<path style=" stroke:none;fill-rule:evenodd;fill:rgb(100%,100%,100%);fill-opacity:1;" d="M 1.953125 0 C 0.867188 0.0273438 0 0.914062 0 2 C 0 3.105469 0.894531 4 2 4 C 2.175781 4 2.351562 3.976562 2.519531 3.929688 L 4.929688 6.34375 C 5.257812 5.746094 5.746094 5.253906 6.34375 4.929688 L 3.929688 2.515625 C 3.976562 2.351562 4 2.175781 4 2 C 4 0.894531 3.105469 0 2 0 C 1.984375 0 1.96875 0 1.953125 0 Z M 13 1 C 11.894531 1 11 1.894531 11 3 C 11 3.175781 11.023438 3.351562 11.070312 3.519531 L 9.65625 4.929688 C 10.25 5.253906 10.742188 5.742188 11.066406 6.34375 L 12.476562 4.929688 C 12.648438 4.976562 12.824219 5 13 5 C 14.105469 5 15 4.105469 15 3 C 15 1.894531 14.105469 1 13 1 Z M 7.949219 5 C 6.3125 5.027344 5 6.363281 5 8 C 5 9.65625 6.34375 11 8 11 C 9.65625 11 11 9.65625 11 8 C 11 6.34375 9.65625 5 8 5 C 7.984375 5 7.96875 5 7.949219 5 Z M 2 8 C 0.894531 8 0 8.894531 0 10 C 0 11.105469 0.894531 12 2 12 C 2.953125 12 3.769531 11.328125 3.960938 10.398438 L 5.148438 10 C 4.757812 9.445312 4.539062 8.785156 4.515625 8.105469 L 3.324219 8.5 C 2.960938 8.179688 2.488281 8 2 8 Z M 11.332031 9.019531 C 11.132812 9.671875 10.746094 10.25 10.21875 10.6875 L 12.003906 11.871094 C 12 11.914062 12 11.957031 12 12 C 12 13.105469 12.894531 14 14 14 C 15.105469 14 16 13.105469 16 12 C 16 10.894531 15.105469 10 14 10 C 13.691406 10 13.390625 10.070312 13.113281 10.210938 Z M 6.460938 11.128906 L 6.296875 12.128906 C 5.515625 12.421875 5 13.167969 5 14 C 5 15.105469 5.894531 16 7 16 C 8.105469 16 9 15.105469 9 14 C 9 13.402344 8.730469 12.835938 8.265625 12.453125 L 8.433594 11.460938 C 8.289062 11.476562 8.144531 11.484375 8 11.484375 C 7.46875 11.484375 6.941406 11.363281 6.460938 11.128906 Z M 6.460938 11.128906 "/>
</g>
</svg>
