<?xml version="1.0" encoding="UTF-8"?>
<svg xmlns="http://www.w3.org/2000/svg" xmlns:xlink="http://www.w3.org/1999/xlink" width="16" height="16" viewBox="0 0 16 16" version="1.1">
<g id="surface1">
<path style=" stroke:none;fill-rule:nonzero;fill:rgb(100%,100%,100%);fill-opacity:1;" d="M 4.667969 1.332031 L 4.667969 14.667969 L 2 14.667969 L 2 1.332031 Z M 6 1.332031 L 12.671875 1.332031 C 13.40625 1.332031 14 1.933594 14 2.660156 L 14 13.339844 C 14 14.074219 13.40625 14.667969 12.671875 14.667969 L 6 14.667969 Z M 14.667969 4 L 16 4 L 16 6.667969 L 14.667969 6.667969 Z M 14.667969 8 L 16 8 L 16 10.667969 L 14.667969 10.667969 Z M 10 8 C 10.738281 8 11.332031 7.402344 11.332031 6.667969 C 11.332031 5.929688 10.738281 5.332031 10 5.332031 C 9.261719 5.332031 8.667969 5.929688 8.667969 6.667969 C 8.667969 7.402344 9.261719 8 10 8 Z M 8 10.667969 L 12 10.667969 C 12 9.5625 11.105469 8.667969 10 8.667969 C 8.894531 8.667969 8 9.5625 8 10.667969 Z M 8 10.667969 "/>
</g>
</svg>
