<?xml version="1.0" encoding="UTF-8"?>
<svg xmlns="http://www.w3.org/2000/svg" xmlns:xlink="http://www.w3.org/1999/xlink" width="16" height="16" viewBox="0 0 16 16" version="1.1">
<g id="surface1">
<path style=" stroke:none;fill-rule:nonzero;fill:rgb(100%,100%,100%);fill-opacity:1;" d="M 0.492188 1 C 0.394531 1 0.296875 1.03125 0.214844 1.085938 C 0.199219 1.097656 0.183594 1.109375 0.167969 1.125 C 0.0625 1.21875 0.00390625 1.351562 0 1.492188 L 0 8.484375 C -0.00390625 8.652344 0.078125 8.8125 0.21875 8.90625 L 9.226562 14.921875 C 9.324219 14.984375 9.445312 15.015625 9.5625 15 L 15.5 15 C 15.773438 15 16 14.773438 16 14.5 L 15.996094 7.511719 C 15.996094 7.507812 15.996094 7.5 15.996094 7.492188 C 15.996094 7.453125 15.992188 7.414062 15.984375 7.375 C 15.976562 7.359375 15.972656 7.335938 15.964844 7.320312 C 15.9375 7.242188 15.890625 7.179688 15.832031 7.125 C 15.796875 7.09375 15.765625 7.070312 15.726562 7.046875 L 6.777344 1.078125 C 6.695312 1.023438 6.59375 0.996094 6.496094 1 L 0.503906 1 C 0.5 0.996094 0.5 0.996094 0.492188 1 Z M 2.148438 1.992188 L 6.347656 1.992188 L 13.847656 6.992188 L 9.640625 6.992188 Z M 9.992188 7.996094 L 11.996094 7.996094 L 12 13.996094 L 10 13.996094 Z M 13 7.996094 L 15 7.996094 L 15.003906 13.996094 L 13.003906 13.996094 Z M 13 7.996094 "/>
<path style=" stroke:none;fill-rule:nonzero;fill:rgb(100%,100%,100%);fill-opacity:1;" d="M 11 10.996094 L 11 11.996094 L 14 11.996094 L 14 10.996094 Z M 11 10.996094 "/>
</g>
</svg>
