<?xml version="1.0" encoding="UTF-8"?>
<svg xmlns="http://www.w3.org/2000/svg" xmlns:xlink="http://www.w3.org/1999/xlink" width="16" height="16" viewBox="0 0 16 16" version="1.1">
<g id="surface1">
<path style=" stroke:none;fill-rule:nonzero;fill:rgb(100%,100%,100%);fill-opacity:1;" d="M 8 14.667969 C 4.316406 14.667969 1.332031 11.683594 1.332031 8 C 1.332031 4.316406 4.316406 1.332031 8 1.332031 C 11.683594 1.332031 14.667969 4.316406 14.667969 8 C 14.667969 11.683594 11.683594 14.667969 8 14.667969 Z M 8 13.332031 C 10.945312 13.332031 13.332031 10.945312 13.332031 8 C 13.332031 5.054688 10.945312 2.667969 8 2.667969 C 5.054688 2.667969 2.667969 5.054688 2.667969 8 C 2.667969 10.945312 5.054688 13.332031 8 13.332031 Z M 4.667969 10.214844 C 6.101562 10.109375 7.453125 9.492188 8.472656 8.472656 C 9.492188 7.453125 10.109375 6.101562 10.214844 4.667969 C 11.5625 5.5625 12.234375 7.1875 11.917969 8.773438 C 11.605469 10.363281 10.363281 11.605469 8.773438 11.917969 C 7.1875 12.234375 5.5625 11.5625 4.667969 10.214844 Z M 4.667969 10.214844 "/>
</g>
</svg>
