<?xml version="1.0" encoding="UTF-8"?>
<svg xmlns="http://www.w3.org/2000/svg" xmlns:xlink="http://www.w3.org/1999/xlink" width="16" height="16" viewBox="0 0 16 16" version="1.1">
<g id="surface1">
<path style=" stroke:none;fill-rule:nonzero;fill:rgb(100%,100%,100%);fill-opacity:1;" d="M 8 1.332031 C 11.679688 1.332031 14.667969 4.320312 14.667969 8 C 14.667969 11.679688 11.679688 14.667969 8 14.667969 C 4.320312 14.667969 1.332031 11.679688 1.332031 8 C 1.332031 4.320312 4.320312 1.332031 8 1.332031 Z M 8 2.667969 C 5.054688 2.667969 2.667969 5.054688 2.667969 8 C 2.667969 10.945312 5.054688 13.332031 8 13.332031 C 10.945312 13.332031 13.332031 10.945312 13.332031 8 C 13.332031 5.054688 10.945312 2.667969 8 2.667969 Z M 8 4.667969 C 9.214844 4.667969 10.273438 5.316406 10.859375 6.285156 L 9.714844 6.972656 C 9.21875 6.144531 8.199219 5.789062 7.296875 6.128906 C 6.390625 6.46875 5.859375 7.40625 6.03125 8.359375 C 6.207031 9.308594 7.035156 10 8 10 C 8.703125 10 9.355469 9.632812 9.714844 9.03125 L 10.859375 9.714844 C 10.089844 11 8.554688 11.613281 7.109375 11.214844 C 5.664062 10.8125 4.664062 9.5 4.667969 8 C 4.667969 6.160156 6.160156 4.667969 8 4.667969 Z M 8 4.667969 "/>
</g>
</svg>
