<?xml version="1.0" encoding="UTF-8"?>
<svg xmlns="http://www.w3.org/2000/svg" xmlns:xlink="http://www.w3.org/1999/xlink" width="16" height="16" viewBox="0 0 16 16" version="1.1">
<g id="surface1">
<path style=" stroke:none;fill-rule:nonzero;fill:rgb(100%,100%,100%);fill-opacity:1;" d="M 4 12 L 12 12 L 12 4 L 4 4 Z M 9.332031 13.332031 L 6.667969 13.332031 L 6.667969 14.667969 L 5.332031 14.667969 L 5.332031 13.332031 L 3.332031 13.332031 C 2.964844 13.332031 2.667969 13.035156 2.667969 12.667969 L 2.667969 10.667969 L 1.332031 10.667969 L 1.332031 9.332031 L 2.667969 9.332031 L 2.667969 6.667969 L 1.332031 6.667969 L 1.332031 5.332031 L 2.667969 5.332031 L 2.667969 3.332031 C 2.667969 2.964844 2.964844 2.667969 3.332031 2.667969 L 5.332031 2.667969 L 5.332031 1.332031 L 6.667969 1.332031 L 6.667969 2.667969 L 9.332031 2.667969 L 9.332031 1.332031 L 10.667969 1.332031 L 10.667969 2.667969 L 12.667969 2.667969 C 13.035156 2.667969 13.332031 2.964844 13.332031 3.332031 L 13.332031 5.332031 L 14.667969 5.332031 L 14.667969 6.667969 L 13.332031 6.667969 L 13.332031 9.332031 L 14.667969 9.332031 L 14.667969 10.667969 L 13.332031 10.667969 L 13.332031 12.667969 C 13.332031 13.035156 13.035156 13.332031 12.667969 13.332031 L 10.667969 13.332031 L 10.667969 14.667969 L 9.332031 14.667969 Z M 5.332031 5.332031 L 10.667969 5.332031 L 10.667969 10.667969 L 5.332031 10.667969 Z M 5.332031 5.332031 "/>
</g>
</svg>
