<?xml version="1.0" encoding="UTF-8"?>
<svg xmlns="http://www.w3.org/2000/svg" xmlns:xlink="http://www.w3.org/1999/xlink" width="16" height="16" viewBox="0 0 16 16" version="1.1">
<g id="surface1">
<path style=" stroke:none;fill-rule:nonzero;fill:rgb(100%,100%,100%);fill-opacity:1;" d="M 8 1.332031 C 11.683594 1.332031 14.667969 4.316406 14.667969 8 C 14.667969 9.601562 14.101562 11.070312 13.164062 12.21875 L 13.183594 12.242188 L 12.242188 13.183594 L 12.21875 13.164062 C 11.027344 14.136719 9.539062 14.667969 8 14.667969 C 4.316406 14.667969 1.332031 11.683594 1.332031 8 C 1.332031 4.316406 4.316406 1.332031 8 1.332031 Z M 2.667969 8 C 2.667969 10.035156 3.824219 11.894531 5.652344 12.789062 C 7.484375 13.683594 9.660156 13.460938 11.269531 12.214844 L 9.6875 10.628906 C 9.570312 10.652344 9.453125 10.667969 9.332031 10.667969 L 8.667969 10.667969 L 8.667969 12 L 7.332031 12 L 7.332031 10.667969 L 5.667969 10.667969 L 5.667969 9.332031 L 9.332031 9.332031 C 9.507812 9.332031 9.648438 9.203125 9.664062 9.03125 C 9.679688 8.859375 9.5625 8.703125 9.394531 8.671875 L 9.332031 8.667969 L 6.667969 8.667969 C 6.070312 8.667969 5.519531 8.347656 5.222656 7.832031 C 4.925781 7.316406 4.925781 6.683594 5.222656 6.167969 L 3.785156 4.730469 C 3.058594 5.664062 2.664062 6.816406 2.667969 8 Z M 8 2.667969 C 6.769531 2.667969 5.632812 3.085938 4.730469 3.785156 L 6.3125 5.371094 C 6.429688 5.34375 6.546875 5.332031 6.667969 5.332031 L 7.332031 5.332031 L 7.332031 4 L 8.667969 4 L 8.667969 5.332031 L 10.332031 5.332031 L 10.332031 6.667969 L 6.667969 6.667969 C 6.492188 6.667969 6.351562 6.796875 6.335938 6.96875 C 6.320312 7.140625 6.4375 7.296875 6.605469 7.328125 L 6.667969 7.332031 L 9.332031 7.332031 C 9.929688 7.332031 10.480469 7.652344 10.777344 8.167969 C 11.074219 8.683594 11.074219 9.316406 10.777344 9.832031 L 12.214844 11.269531 C 13.460938 9.660156 13.6875 7.484375 12.789062 5.652344 C 11.894531 3.824219 10.035156 2.667969 8 2.667969 Z M 8 2.667969 "/>
</g>
</svg>
