<?xml version="1.0" encoding="UTF-8"?>
<svg xmlns="http://www.w3.org/2000/svg" xmlns:xlink="http://www.w3.org/1999/xlink" width="16" height="16" viewBox="0 0 16 16" version="1.1">
<g id="surface1">
<path style=" stroke:none;fill-rule:nonzero;fill:rgb(100%,100%,100%);fill-opacity:1;" d="M 3.332031 2 L 13.332031 2 C 14.070312 2 14.667969 2.597656 14.667969 3.332031 L 14.667969 5.332031 C 14.667969 6.070312 14.070312 6.667969 13.332031 6.667969 L 12 6.667969 L 12 8.667969 C 12 10.140625 10.804688 11.332031 9.332031 11.332031 L 5.332031 11.332031 C 3.859375 11.332031 2.667969 10.140625 2.667969 8.667969 L 2.667969 2.667969 C 2.667969 2.296875 2.964844 2 3.332031 2 Z M 12 3.332031 L 12 5.332031 L 13.332031 5.332031 L 13.332031 3.332031 Z M 1.332031 12.667969 L 13.332031 12.667969 L 13.332031 14 L 1.332031 14 Z M 1.332031 12.667969 "/>
</g>
</svg>
