<?xml version="1.0" encoding="UTF-8"?>
<svg xmlns="http://www.w3.org/2000/svg" xmlns:xlink="http://www.w3.org/1999/xlink" width="16" height="16" viewBox="0 0 16 16" version="1.1">
<g id="surface1">
<path style=" stroke:none;fill-rule:nonzero;fill:rgb(100%,100%,100%);fill-opacity:1;" d="M 12.101562 14.5 C 13.511719 10.226562 11.554688 7.703125 6.101562 8.5 L 6.101562 11.5 L 1.101562 6.5 L 6.101562 1.5 L 6.101562 4.5 C 14.84375 3.8125 17.53125 10.960938 12.101562 14.5 Z M 12.101562 14.5 "/>
<path style=" stroke:none;fill-rule:nonzero;fill:rgb(100%,100%,100%);fill-opacity:1;" d="M 6.054688 1 C 6.195312 0.984375 6.335938 1.035156 6.441406 1.132812 C 6.546875 1.226562 6.601562 1.359375 6.601562 1.5 L 6.601562 4.085938 C 10.765625 3.929688 13.71875 5.433594 14.863281 7.6875 C 16.0625 10.054688 15.25 13.046875 12.375 14.921875 C 12.195312 15.039062 11.96875 15.027344 11.796875 14.898438 C 11.632812 14.765625 11.5625 14.546875 11.628906 14.347656 C 12.304688 12.304688 12.140625 10.828125 11.3125 9.9375 C 10.554688 9.125 8.875 8.84375 6.601562 9.078125 L 6.601562 11.503906 C 6.601562 11.707031 6.476562 11.890625 6.289062 11.964844 C 6.101562 12.039062 5.890625 11.996094 5.746094 11.851562 L 0.75 6.851562 C 0.65625 6.757812 0.601562 6.632812 0.601562 6.5 C 0.601562 6.367188 0.65625 6.242188 0.75 6.144531 L 5.746094 1.148438 C 5.828125 1.0625 5.9375 1.011719 6.054688 1 Z M 5.605469 2.703125 L 1.8125 6.5 L 5.605469 10.300781 L 5.605469 8.5 C 5.605469 8.25 5.789062 8.039062 6.035156 8.007812 C 8.84375 7.59375 10.882812 8.015625 12.042969 9.257812 C 12.921875 10.203125 12.679688 11.785156 12.441406 13.34375 C 14.226562 11.75 14.816406 9.8125 13.96875 8.140625 C 13 6.21875 10.375 4.667969 6.144531 5 C 6.007812 5.011719 5.867188 4.964844 5.765625 4.867188 C 5.664062 4.773438 5.605469 4.640625 5.605469 4.5 Z M 5.605469 2.703125 "/>
</g>
</svg>
