<?xml version="1.0" encoding="UTF-8"?>
<svg xmlns="http://www.w3.org/2000/svg" xmlns:xlink="http://www.w3.org/1999/xlink" width="16" height="16" viewBox="0 0 16 16" version="1.1">
<g id="surface1">
<path style=" stroke:none;fill-rule:evenodd;fill:rgb(100%,100%,100%);fill-opacity:1;" d="M 7.953125 1.488281 C 5.945312 1.5 4.015625 2.265625 2.550781 3.632812 C -0.523438 6.492188 -0.859375 11.238281 1.773438 14.507812 L 14.226562 14.515625 C 16.859375 11.246094 16.523438 6.5 13.453125 3.636719 C 11.960938 2.242188 9.992188 1.476562 7.953125 1.488281 Z M 7.96875 2.449219 C 8.660156 2.449219 9.21875 3.007812 9.21875 3.699219 C 9.21875 4.390625 8.660156 4.949219 7.96875 4.949219 C 7.28125 4.949219 6.71875 4.390625 6.71875 3.699219 C 6.71875 3.007812 7.28125 2.449219 7.96875 2.449219 Z M 4.625 3.761719 C 4.636719 3.761719 4.648438 3.761719 4.660156 3.761719 C 4.898438 3.769531 5.125 3.890625 5.257812 4.09375 L 8.625 9.070312 C 8.851562 9.414062 8.765625 9.875 8.421875 10.109375 C 8.082031 10.339844 7.617188 10.25 7.382812 9.910156 L 4.015625 4.9375 C 3.785156 4.59375 3.875 4.125 4.21875 3.894531 C 4.335938 3.8125 4.480469 3.765625 4.625 3.761719 Z M 2.820312 6.15625 C 3.511719 6.15625 4.070312 6.71875 4.070312 7.40625 C 4.070312 8.097656 3.511719 8.65625 2.820312 8.65625 C 2.132812 8.65625 1.570312 8.097656 1.570312 7.40625 C 1.570312 6.71875 2.132812 6.15625 2.820312 6.15625 Z M 13.179688 6.15625 C 13.871094 6.15625 14.429688 6.71875 14.429688 7.40625 C 14.429688 8.097656 13.871094 8.65625 13.179688 8.65625 C 12.492188 8.65625 11.929688 8.097656 11.929688 7.40625 C 11.929688 6.71875 12.492188 6.15625 13.179688 6.15625 Z M 3.117188 11.078125 C 3.804688 11.078125 4.367188 11.636719 4.367188 12.328125 C 4.367188 13.015625 3.804688 13.578125 3.117188 13.578125 C 2.425781 13.578125 1.867188 13.015625 1.867188 12.328125 C 1.867188 11.636719 2.425781 11.078125 3.117188 11.078125 Z M 12.882812 11.078125 C 13.578125 11.078125 14.132812 11.636719 14.132812 12.328125 C 14.132812 13.015625 13.578125 13.578125 12.882812 13.578125 C 12.195312 13.578125 11.632812 13.015625 11.632812 12.328125 C 11.632812 11.636719 12.195312 11.078125 12.882812 11.078125 Z M 12.882812 11.078125 "/>
</g>
</svg>
