<?xml version="1.0" encoding="UTF-8"?>
<svg xmlns="http://www.w3.org/2000/svg" xmlns:xlink="http://www.w3.org/1999/xlink" width="16" height="16" viewBox="0 0 16 16" version="1.1">
<g id="surface1">
<path style=" stroke:none;fill-rule:nonzero;fill:rgb(100%,100%,100%);fill-opacity:1;" d="M 8 2 C 8.367188 2 8.667969 2.296875 8.667969 2.667969 L 8.667969 8 C 9.222656 7.582031 9.914062 7.332031 10.667969 7.332031 C 12.507812 7.332031 14 8.824219 14 10.667969 C 14 12.507812 12.507812 14 10.667969 14 C 9.980469 14 9.339844 13.792969 8.808594 13.433594 L 8.667969 13.332031 C 8.667969 13.703125 8.367188 14 8 14 L 4 14 C 3.632812 14 3.332031 13.703125 3.332031 13.332031 L 3.332031 2.667969 C 3.332031 2.296875 3.632812 2 4 2 Z M 7.332031 3.332031 L 4.667969 3.332031 L 4.667969 12.667969 L 7.332031 12.667969 Z M 12.667969 10 L 8.667969 10 L 8.667969 11.332031 L 12.667969 11.332031 Z M 12.667969 10 "/>
</g>
</svg>
