<?xml version="1.0" encoding="UTF-8"?>
<svg xmlns="http://www.w3.org/2000/svg" xmlns:xlink="http://www.w3.org/1999/xlink" width="16" height="16" viewBox="0 0 16 16" version="1.1">
<g id="surface1">
<path style=" stroke:none;fill-rule:nonzero;fill:rgb(100%,100%,100%);fill-opacity:1;" d="M 4.667969 4 L 4.667969 2 C 4.667969 1.632812 4.964844 1.332031 5.332031 1.332031 L 10.667969 1.332031 C 11.035156 1.332031 11.332031 1.632812 11.332031 2 L 11.332031 4 L 14.667969 4 L 14.667969 5.332031 L 13.332031 5.332031 L 13.332031 14 C 13.332031 14.367188 13.035156 14.667969 12.667969 14.667969 L 3.332031 14.667969 C 2.964844 14.667969 2.667969 14.367188 2.667969 14 L 2.667969 5.332031 L 1.332031 5.332031 L 1.332031 4 Z M 8.941406 9.332031 L 10.121094 8.15625 L 9.179688 7.210938 L 8 8.390625 L 6.820312 7.210938 L 5.878906 8.15625 L 7.058594 9.332031 L 5.878906 10.511719 L 6.820312 11.453125 L 8 10.277344 L 9.179688 11.453125 L 10.121094 10.511719 Z M 6 2.667969 L 6 4 L 10 4 L 10 2.667969 Z M 6 2.667969 "/>
</g>
</svg>
