<?xml version="1.0" encoding="UTF-8"?>
<svg xmlns="http://www.w3.org/2000/svg" xmlns:xlink="http://www.w3.org/1999/xlink" width="16" height="16" viewBox="0 0 16 16" version="1.1">
<g id="surface1">
<path style=" stroke:none;fill-rule:nonzero;fill:rgb(100%,100%,100%);fill-opacity:1;" d="M 12.667969 4 L 7.332031 4 C 6.964844 4 6.667969 4.296875 6.667969 4.667969 L 6.667969 13.332031 L 2.667969 13.332031 C 2.296875 13.332031 2 13.035156 2 12.667969 L 2 2 C 2 1.632812 2.296875 1.332031 2.667969 1.332031 L 12 1.332031 C 12.367188 1.332031 12.667969 1.632812 12.667969 2 Z M 8.667969 5.332031 L 14 5.332031 C 14.367188 5.332031 14.667969 5.632812 14.667969 6 L 14.667969 14 C 14.667969 14.367188 14.367188 14.667969 14 14.667969 L 8.667969 14.667969 C 8.296875 14.667969 8 14.367188 8 14 L 8 6 C 8 5.632812 8.296875 5.332031 8.667969 5.332031 Z M 8.667969 5.332031 "/>
</g>
</svg>
