<?xml version="1.0" encoding="UTF-8"?>
<svg xmlns="http://www.w3.org/2000/svg" xmlns:xlink="http://www.w3.org/1999/xlink" width="16" height="16" viewBox="0 0 16 16" version="1.1">
<g id="surface1">
<path style=" stroke:none;fill-rule:nonzero;fill:rgb(100%,100%,100%);fill-opacity:1;" d="M 11.199219 12.667969 L 9.332031 15 L 7.464844 12.667969 L 4 12.667969 C 3.632812 12.667969 3.332031 12.367188 3.332031 12 L 3.332031 4.734375 C 3.332031 4.367188 3.632812 4.070312 4 4.070312 L 14.667969 4.070312 C 15.035156 4.070312 15.332031 4.367188 15.332031 4.734375 L 15.332031 12 C 15.332031 12.367188 15.035156 12.667969 14.667969 12.667969 Z M 1.332031 1.332031 L 12.667969 1.332031 L 12.667969 2.667969 L 2 2.667969 L 2 10 L 0.667969 10 L 0.667969 2 C 0.667969 1.632812 0.964844 1.332031 1.332031 1.332031 Z M 1.332031 1.332031 "/>
</g>
</svg>
