<?xml version="1.0" encoding="UTF-8"?>
<svg xmlns="http://www.w3.org/2000/svg" xmlns:xlink="http://www.w3.org/1999/xlink" width="16" height="16" viewBox="0 0 16 16" version="1.1">
<g id="surface1">
<path style=" stroke:none;fill-rule:nonzero;fill:rgb(100%,100%,100%);fill-opacity:1;" d="M 8 14.667969 C 4.316406 14.667969 1.332031 11.683594 1.332031 8 C 1.332031 4.316406 4.316406 1.332031 8 1.332031 C 11.683594 1.332031 14.667969 4.316406 14.667969 8 C 14.667969 11.683594 11.683594 14.667969 8 14.667969 Z M 7.332031 8.527344 L 7.332031 10.667969 L 8.667969 10.667969 L 8.667969 8.527344 C 9.390625 8.210938 9.792969 7.433594 9.632812 6.660156 C 9.46875 5.886719 8.789062 5.332031 8 5.332031 C 7.210938 5.332031 6.53125 5.886719 6.367188 6.660156 C 6.207031 7.433594 6.609375 8.210938 7.332031 8.527344 Z M 7.332031 8.527344 "/>
</g>
</svg>
