<?xml version="1.0" encoding="UTF-8"?>
<svg xmlns="http://www.w3.org/2000/svg" xmlns:xlink="http://www.w3.org/1999/xlink" width="16" height="16" viewBox="0 0 16 16" version="1.1">
<g id="surface1">
<path style=" stroke:none;fill-rule:nonzero;fill:rgb(100%,100%,100%);fill-opacity:1;" d="M 8.667969 8.667969 L 8.667969 12.390625 L 9.886719 11.171875 L 10.828125 12.113281 L 8 14.941406 L 5.171875 12.113281 L 6.113281 11.171875 L 7.332031 12.390625 L 7.332031 8.667969 Z M 8 1.332031 C 10.371094 1.332031 12.363281 3.109375 12.636719 5.460938 C 14.347656 5.929688 15.480469 7.554688 15.324219 9.324219 C 15.167969 11.089844 13.769531 12.492188 12 12.652344 L 12 11.308594 C 12.835938 11.191406 13.542969 10.628906 13.847656 9.84375 C 14.152344 9.058594 14.007812 8.167969 13.472656 7.515625 C 12.933594 6.863281 12.089844 6.554688 11.257812 6.703125 C 11.546875 5.371094 10.992188 4.003906 9.867188 3.242188 C 8.738281 2.480469 7.261719 2.480469 6.132812 3.242188 C 5.007812 4.003906 4.457031 5.371094 4.742188 6.703125 C 3.476562 6.464844 2.253906 7.296875 2.015625 8.566406 C 1.78125 9.832031 2.613281 11.050781 3.878906 11.289062 L 4 11.308594 L 4 12.652344 C 2.234375 12.492188 0.832031 11.089844 0.675781 9.324219 C 0.519531 7.554688 1.652344 5.929688 3.363281 5.460938 C 3.636719 3.109375 5.628906 1.332031 8 1.332031 Z M 8 1.332031 "/>
</g>
</svg>
