<?xml version="1.0" encoding="UTF-8"?>
<svg xmlns="http://www.w3.org/2000/svg" xmlns:xlink="http://www.w3.org/1999/xlink" width="16" height="16" viewBox="0 0 16 16" version="1.1">
<g id="surface1">
<path style=" stroke:none;fill-rule:nonzero;fill:rgb(100%,100%,100%);fill-opacity:1;" d="M 8 1.332031 L 10.828125 4.160156 L 9.886719 5.105469 L 8 3.21875 L 6.113281 5.105469 L 5.171875 4.160156 Z M 1.332031 8 L 4.160156 5.171875 L 5.105469 6.113281 L 3.21875 8 L 5.105469 9.886719 L 4.160156 10.828125 Z M 14.667969 8 L 11.839844 10.828125 L 10.894531 9.886719 L 12.78125 8 L 10.894531 6.113281 L 11.839844 5.171875 Z M 8 9.332031 C 7.261719 9.332031 6.667969 8.738281 6.667969 8 C 6.667969 7.261719 7.261719 6.667969 8 6.667969 C 8.738281 6.667969 9.332031 7.261719 9.332031 8 C 9.332031 8.738281 8.738281 9.332031 8 9.332031 Z M 8 14.667969 L 5.171875 11.839844 L 6.113281 10.894531 L 8 12.78125 L 9.886719 10.894531 L 10.828125 11.839844 Z M 8 14.667969 "/>
</g>
</svg>
