<?xml version="1.0" encoding="UTF-8"?>
<svg xmlns="http://www.w3.org/2000/svg" xmlns:xlink="http://www.w3.org/1999/xlink" width="16" height="16" viewBox="0 0 16 16" version="1.1">
<g id="surface1">
<path style=" stroke:none;fill-rule:evenodd;fill:rgb(100%,100%,100%);fill-opacity:1;" d="M 3.5 0 C 1.566406 0 0 1.566406 0 3.5 C 0 5.433594 1.566406 7 3.5 7 C 3.5625 7 3.625 7 3.6875 6.992188 C 3.546875 5.753906 3.132812 4.53125 2.375 3.425781 C 2.21875 3.195312 2.203125 2.898438 2.328125 2.65625 C 2.460938 2.40625 2.710938 2.253906 2.992188 2.25 C 3.132812 2.25 3.273438 2.289062 3.398438 2.359375 C 4.460938 3.023438 5.699219 3.476562 6.996094 3.65625 C 7 3.601562 7 3.554688 7 3.5 C 7 1.566406 5.433594 0 3.5 0 Z M 12.5 0 C 10.566406 0 9 1.566406 9 3.5 C 9 3.570312 9.003906 3.640625 9.007812 3.707031 C 10.226562 3.578125 11.445312 3.164062 12.570312 2.382812 C 12.699219 2.296875 12.851562 2.25 13.007812 2.25 C 13.28125 2.253906 13.53125 2.40625 13.660156 2.648438 C 13.789062 2.890625 13.777344 3.179688 13.625 3.410156 C 12.921875 4.488281 12.484375 5.722656 12.328125 6.992188 C 12.382812 7 12.445312 7 12.5 7 C 14.433594 7 16 5.433594 16 3.5 C 16 1.566406 14.433594 0 12.5 0 Z M 3.5 9 C 1.566406 9 0 10.566406 0 12.5 C 0 14.433594 1.566406 16 3.5 16 C 5.433594 16 7 14.433594 7 12.5 C 7 12.445312 7 12.390625 6.996094 12.335938 C 5.71875 12.5 4.480469 12.9375 3.410156 13.625 C 3.113281 13.820312 2.722656 13.78125 2.472656 13.53125 C 2.21875 13.28125 2.179688 12.890625 2.367188 12.59375 C 3.0625 11.523438 3.5 10.285156 3.664062 9.003906 C 3.609375 9 3.554688 9 3.5 9 Z M 12.5 9 C 12.4375 9 12.375 9 12.3125 9.007812 C 12.460938 10.257812 12.882812 11.484375 13.617188 12.578125 C 13.820312 12.875 13.78125 13.273438 13.527344 13.527344 C 13.273438 13.78125 12.875 13.820312 12.578125 13.617188 C 11.472656 12.867188 10.25 12.445312 9.007812 12.308594 C 9 12.375 9 12.4375 9 12.5 C 9 14.433594 10.566406 16 12.5 16 C 14.433594 16 16 14.433594 16 12.5 C 16 10.566406 14.433594 9 12.5 9 Z M 12.5 9 "/>
<path style=" stroke:none;fill-rule:nonzero;fill:rgb(100%,100%,100%);fill-opacity:1;" d="M 4 4 C 5.703125 6.5 5.492188 9.6875 4 12 C 6.3125 10.507812 9.5 10.296875 12 12 C 10.347656 9.554688 10.453125 6.355469 12 4 C 9.390625 5.796875 6.234375 5.390625 4 4 Z M 4 4 "/>
</g>
</svg>
