<?xml version="1.0" encoding="UTF-8"?>
<svg xmlns="http://www.w3.org/2000/svg" xmlns:xlink="http://www.w3.org/1999/xlink" width="16" height="16" viewBox="0 0 16 16" version="1.1">
<g id="surface1">
<path style=" stroke:none;fill-rule:nonzero;fill:rgb(100%,100%,100%);fill-opacity:1;" d="M 5.339844 9.335938 C 5.335938 9.390625 5.332031 9.445312 5.332031 9.5 C 5.332031 11.089844 6.503906 12.667969 8.667969 12.667969 C 10.25 12.667969 11.683594 12.230469 12.667969 11.632812 L 12.667969 13.863281 C 11.472656 14.375 10.074219 14.667969 8.667969 14.667969 C 5 14.667969 3.332031 12.351562 3.332031 9.5 C 3.332031 7.347656 4.695312 5.5 6.628906 4.722656 C 5.691406 5.773438 5.332031 6.894531 5.332031 7.332031 L 12 7.332031 C 12 5.0625 10.300781 3.332031 8 3.332031 C 4.667969 3.332031 2.664062 5.992188 2 7.332031 C 2.191406 4.15625 4.671875 1.332031 8 1.332031 C 11.464844 1.332031 14 4.019531 14 7.332031 L 14 9.332031 L 5.332031 9.332031 Z M 5.339844 9.335938 "/>
</g>
</svg>
