<?xml version="1.0" encoding="UTF-8"?>
<svg xmlns="http://www.w3.org/2000/svg" xmlns:xlink="http://www.w3.org/1999/xlink" width="16" height="16" viewBox="0 0 16 16" version="1.1">
<g id="surface1">
<path style=" stroke:none;fill-rule:nonzero;fill:rgb(100%,100%,100%);fill-opacity:1;" d="M 8.277344 2.414062 L 12.988281 9.480469 C 13.054688 9.585938 13.0625 9.714844 13.003906 9.824219 C 12.945312 9.933594 12.832031 10 12.710938 10 L 3.289062 10 C 3.167969 10 3.054688 9.933594 2.996094 9.824219 C 2.9375 9.714844 2.945312 9.585938 3.011719 9.480469 L 7.722656 2.414062 C 7.785156 2.324219 7.886719 2.269531 8 2.269531 C 8.113281 2.269531 8.214844 2.324219 8.277344 2.414062 Z M 3.332031 11.332031 L 12.667969 11.332031 C 13.035156 11.332031 13.332031 11.632812 13.332031 12 C 13.332031 12.367188 13.035156 12.667969 12.667969 12.667969 L 3.332031 12.667969 C 2.964844 12.667969 2.667969 12.367188 2.667969 12 C 2.667969 11.632812 2.964844 11.332031 3.332031 11.332031 Z M 3.332031 11.332031 "/>
</g>
</svg>
