<?xml version="1.0" encoding="UTF-8"?>
<svg xmlns="http://www.w3.org/2000/svg" xmlns:xlink="http://www.w3.org/1999/xlink" width="16" height="16" viewBox="0 0 16 16" version="1.1">
<g id="surface1">
<path style=" stroke:none;fill-rule:nonzero;fill:rgb(100%,100%,100%);fill-opacity:1;" d="M 8 1.332031 C 11.683594 1.332031 14.667969 4.316406 14.667969 8 C 14.667969 8.484375 14.617188 8.957031 14.515625 9.410156 L 13.328125 8.222656 C 13.429688 5.816406 11.90625 3.644531 9.609375 2.917969 C 7.316406 2.1875 4.816406 3.089844 3.515625 5.113281 C 2.210938 7.140625 2.425781 9.785156 4.039062 11.574219 C 5.652344 13.359375 8.265625 13.847656 10.410156 12.757812 C 10.667969 13.160156 11.023438 13.488281 11.449219 13.707031 C 10.410156 14.335938 9.214844 14.667969 8 14.667969 C 4.316406 14.667969 1.332031 11.683594 1.332031 8 C 1.332031 4.316406 4.316406 1.332031 8 1.332031 Z M 12.667969 9.449219 L 13.609375 10.390625 C 14.121094 10.902344 14.132812 11.726562 13.632812 12.253906 C 13.132812 12.777344 12.308594 12.808594 11.773438 12.324219 C 11.234375 11.835938 11.183594 11.011719 11.65625 10.464844 L 11.722656 10.390625 Z M 8 10 C 8.976562 10 9.855469 10.421875 10.464844 11.089844 L 9.835938 11.664062 C 9.308594 11.453125 8.679688 11.332031 8 11.332031 C 7.320312 11.332031 6.691406 11.457031 6.164062 11.664062 L 5.535156 11.089844 C 6.164062 10.394531 7.0625 10 8 10 Z M 5.667969 6.667969 C 6.21875 6.667969 6.667969 7.113281 6.667969 7.667969 C 6.667969 8.21875 6.21875 8.667969 5.667969 8.667969 C 5.113281 8.667969 4.667969 8.21875 4.667969 7.667969 C 4.667969 7.113281 5.113281 6.667969 5.667969 6.667969 Z M 10.332031 6.667969 C 10.886719 6.667969 11.332031 7.113281 11.332031 7.667969 C 11.332031 8.21875 10.886719 8.667969 10.332031 8.667969 C 9.78125 8.667969 9.332031 8.21875 9.332031 7.667969 C 9.332031 7.113281 9.78125 6.667969 10.332031 6.667969 Z M 10.332031 6.667969 "/>
</g>
</svg>
