<?xml version="1.0" encoding="UTF-8"?>
<svg xmlns="http://www.w3.org/2000/svg" xmlns:xlink="http://www.w3.org/1999/xlink" width="16" height="16" viewBox="0 0 16 16" version="1.1">
<g id="surface1">
<path style=" stroke:none;fill-rule:nonzero;fill:rgb(100%,100%,100%);fill-opacity:1;" d="M 8 12.667969 C 8.550781 12.667969 9 13.113281 9 13.667969 C 9 14.21875 8.550781 14.667969 8 14.667969 C 7.449219 14.667969 7 14.21875 7 13.667969 C 7 13.113281 7.449219 12.667969 8 12.667969 Z M 4.332031 12.667969 C 4.886719 12.667969 5.332031 13.113281 5.332031 13.667969 C 5.332031 14.21875 4.886719 14.667969 4.332031 14.667969 C 3.78125 14.667969 3.332031 14.21875 3.332031 13.667969 C 3.332031 13.113281 3.78125 12.667969 4.332031 12.667969 Z M 11.667969 12.667969 C 12.21875 12.667969 12.667969 13.113281 12.667969 13.667969 C 12.667969 14.21875 12.21875 14.667969 11.667969 14.667969 C 11.113281 14.667969 10.667969 14.21875 10.667969 13.667969 C 10.667969 13.113281 11.113281 12.667969 11.667969 12.667969 Z M 12 2 L 12 3.332031 L 5.332031 3.332031 L 5.332031 6 L 11.332031 6 L 11.332031 7.332031 L 5.332031 7.332031 L 5.332031 10 L 12 10 L 12 11.332031 L 4 11.332031 L 4 2 Z M 12 2 "/>
</g>
</svg>
