<?xml version="1.0" encoding="UTF-8"?>
<svg xmlns="http://www.w3.org/2000/svg" xmlns:xlink="http://www.w3.org/1999/xlink" width="16" height="16" viewBox="0 0 16 16" version="1.1">
<g id="surface1">
<path style=" stroke:none;fill-rule:nonzero;fill:rgb(100%,100%,100%);fill-opacity:1;" d="M 4.113281 12 C 4.394531 11.199219 5.152344 10.664062 6 10.664062 C 6.847656 10.664062 7.605469 11.199219 7.886719 12 L 14.667969 12 L 14.667969 13.332031 L 7.886719 13.332031 C 7.605469 14.132812 6.847656 14.667969 6 14.667969 C 5.152344 14.667969 4.394531 14.132812 4.113281 13.332031 L 1.332031 13.332031 L 1.332031 12 Z M 8.113281 7.332031 C 8.394531 6.535156 9.152344 6 10 6 C 10.847656 6 11.605469 6.535156 11.886719 7.332031 L 14.667969 7.332031 L 14.667969 8.667969 L 11.886719 8.667969 C 11.605469 9.464844 10.847656 10 10 10 C 9.152344 10 8.394531 9.464844 8.113281 8.667969 L 1.332031 8.667969 L 1.332031 7.332031 Z M 4.113281 2.667969 C 4.394531 1.867188 5.152344 1.332031 6 1.332031 C 6.847656 1.332031 7.605469 1.867188 7.886719 2.667969 L 14.667969 2.667969 L 14.667969 4 L 7.886719 4 C 7.605469 4.800781 6.847656 5.335938 6 5.335938 C 5.152344 5.335938 4.394531 4.800781 4.113281 4 L 1.332031 4 L 1.332031 2.667969 Z M 4.113281 2.667969 "/>
</g>
</svg>
