<?xml version="1.0" encoding="UTF-8"?>
<svg xmlns="http://www.w3.org/2000/svg" xmlns:xlink="http://www.w3.org/1999/xlink" width="16" height="16" viewBox="0 0 16 16" version="1.1">
<g id="surface1">
<path style=" stroke:none;fill-rule:nonzero;fill:rgb(100%,100%,100%);fill-opacity:1;" d="M 5 0 C 4.445312 0 4 0.375 4 0.835938 L 4 1.164062 C 4 1.625 4.445312 2 5 2 L 5 7 L 0.96875 14.25 C 0.765625 14.617188 0.773438 15.0625 0.984375 15.421875 C 1.195312 15.78125 1.585938 16 2 16 L 14 16 C 14.414062 16 14.804688 15.78125 15.015625 15.421875 C 15.226562 15.0625 15.234375 14.617188 15.03125 14.25 L 11 7 L 11 2 C 11.554688 2 12 1.625 12 1.164062 L 12 0.835938 C 12 0.375 11.554688 0 11 0 Z M 7.980469 1.25 C 8.875 1.25 9.769531 1.5 9.480469 2 L 9.480469 7 L 11.796875 11 L 4.203125 11 L 6.480469 7 L 6.480469 2 C 6.191406 1.5 7.085938 1.25 7.980469 1.25 Z M 7.980469 1.25 "/>
</g>
</svg>
