<?xml version="1.0" encoding="UTF-8"?>
<svg xmlns="http://www.w3.org/2000/svg" xmlns:xlink="http://www.w3.org/1999/xlink" width="16" height="16" viewBox="0 0 16 16" version="1.1">
<g id="surface1">
<path style=" stroke:none;fill-rule:nonzero;fill:rgb(100%,100%,100%);fill-opacity:1;" d="M 6.753906 10.5625 L 6.226562 12.519531 L 4.941406 12.175781 L 5.464844 10.214844 C 4.679688 9.925781 3.949219 9.503906 3.308594 8.96875 L 1.871094 10.40625 L 0.929688 9.460938 L 2.363281 8.027344 C 1.554688 7.054688 1.007812 5.890625 0.785156 4.644531 L 1.382812 4.535156 C 3.308594 5.925781 5.625 6.671875 8 6.667969 C 10.46875 6.667969 12.753906 5.875 14.617188 4.535156 L 15.214844 4.644531 C 14.992188 5.890625 14.445312 7.054688 13.636719 8.027344 L 15.070312 9.460938 L 14.128906 10.40625 L 12.691406 8.96875 C 12.050781 9.503906 11.320312 9.925781 10.535156 10.214844 L 11.058594 12.175781 L 9.773438 12.519531 L 9.246094 10.5625 C 8.421875 10.703125 7.578125 10.703125 6.753906 10.5625 Z M 6.753906 10.5625 "/>
</g>
</svg>
