<?xml version="1.0" encoding="UTF-8"?>
<svg xmlns="http://www.w3.org/2000/svg" xmlns:xlink="http://www.w3.org/1999/xlink" width="16" height="16" viewBox="0 0 16 16" version="1.1">
<g id="surface1">
<path style=" stroke:none;fill-rule:nonzero;fill:rgb(100%,100%,100%);fill-opacity:1;" d="M 8 1.332031 C 11.683594 1.332031 14.667969 4.316406 14.667969 8 C 14.667969 11.683594 11.683594 14.667969 8 14.667969 C 4.316406 14.667969 1.332031 11.683594 1.332031 8 C 1.332031 4.316406 4.316406 1.332031 8 1.332031 Z M 8 4.667969 C 7.65625 4.667969 7.328125 4.71875 7.019531 4.8125 C 7.695312 5.117188 8.085938 5.832031 7.984375 6.566406 C 7.878906 7.300781 7.300781 7.878906 6.566406 7.984375 C 5.832031 8.085938 5.117188 7.695312 4.8125 7.019531 C 4.390625 8.394531 4.898438 9.886719 6.070312 10.71875 C 7.246094 11.550781 8.820312 11.535156 9.980469 10.683594 C 11.136719 9.828125 11.617188 8.324219 11.164062 6.957031 C 10.714844 5.589844 9.4375 4.667969 8 4.667969 Z M 8 4.667969 "/>
</g>
</svg>
