<?xml version="1.0" encoding="UTF-8"?>
<svg xmlns="http://www.w3.org/2000/svg" xmlns:xlink="http://www.w3.org/1999/xlink" width="16" height="16" viewBox="0 0 16 16" version="1.1">
<g id="surface1">
<path style=" stroke:none;fill-rule:nonzero;fill:rgb(100%,100%,100%);fill-opacity:1;" d="M 8 3.75 C 5.5625 3.75 3.148438 5.117188 1.570312 7.742188 L 1.414062 8 L 1.570312 8.257812 C 3.148438 10.882812 5.5625 12.242188 8 12.242188 C 10.4375 12.242188 12.851562 10.882812 14.429688 8.257812 L 14.585938 8 L 14.429688 7.742188 C 12.851562 5.117188 10.4375 3.75 8 3.75 Z M 8 4.742188 C 9.914062 4.742188 11.753906 5.96875 13.160156 8 C 11.753906 10.03125 9.914062 11.25 8 11.25 C 6.085938 11.25 4.246094 10.03125 2.839844 8 C 4.246094 5.96875 6.085938 4.742188 8 4.742188 Z M 9.636719 6.203125 L 6.21875 9.59375 C 6.828125 10.207031 7.710938 10.453125 8.546875 10.234375 C 9.382812 10.015625 10.03125 9.367188 10.257812 8.53125 C 10.484375 7.703125 10.246094 6.8125 9.636719 6.203125 Z M 9.636719 6.203125 "/>
<path style=" stroke:none;fill-rule:evenodd;fill:rgb(100%,100%,100%);fill-opacity:1;" d="M 8 4.746094 C 6.210938 4.746094 4.75 6.210938 4.75 8 C 4.75 9.789062 6.210938 11.25 8 11.25 C 9.65625 11.25 10.914062 9.945312 11.109375 8.339844 C 11.195312 8.25 11.246094 8.125 11.25 8 C 11.246094 7.871094 11.191406 7.746094 11.101562 7.65625 C 10.898438 6.054688 9.652344 4.746094 8 4.746094 Z M 8 5.75 C 9.25 5.75 10.25 6.75 10.25 8 C 10.25 9.25 9.25 10.242188 8 10.242188 C 6.75 10.242188 5.75 9.25 5.75 8 C 5.75 6.75 6.75 5.75 8 5.75 Z M 8 5.75 "/>
</g>
</svg>
