<?xml version="1.0" encoding="UTF-8"?>
<svg xmlns="http://www.w3.org/2000/svg" xmlns:xlink="http://www.w3.org/1999/xlink" width="16" height="16" viewBox="0 0 16 16" version="1.1">
<g id="surface1">
<path style=" stroke:none;fill-rule:nonzero;fill:rgb(100%,100%,100%);fill-opacity:1;" d="M 14.667969 8 L 14.667969 9.332031 L 1.332031 9.332031 L 1.332031 8 L 2.667969 8 L 2.667969 1.996094 C 2.667969 1.628906 2.964844 1.332031 3.332031 1.332031 L 10 1.332031 L 13.332031 4.667969 L 13.332031 8 Z M 2 10.667969 L 3.332031 10.667969 L 3.332031 14.667969 L 2 14.667969 Z M 12.667969 10.667969 L 14 10.667969 L 14 14.667969 L 12.667969 14.667969 Z M 10 10.667969 L 11.332031 10.667969 L 11.332031 14.667969 L 10 14.667969 Z M 7.332031 10.667969 L 8.667969 10.667969 L 8.667969 14.667969 L 7.332031 14.667969 Z M 4.667969 10.667969 L 6 10.667969 L 6 14.667969 L 4.667969 14.667969 Z M 4.667969 10.667969 "/>
</g>
</svg>
