<?xml version="1.0" encoding="UTF-8"?>
<svg xmlns="http://www.w3.org/2000/svg" xmlns:xlink="http://www.w3.org/1999/xlink" width="16" height="16" viewBox="0 0 16 16" version="1.1">
<g id="surface1">
<path style=" stroke:none;fill-rule:nonzero;fill:rgb(100%,100%,100%);fill-opacity:1;" d="M 14 6.667969 L 7.332031 6.667969 L 7.332031 11.589844 C 7.332031 12.628906 7.851562 13.601562 8.714844 14.183594 L 9.4375 14.667969 L 2.660156 14.667969 C 2.296875 14.667969 2 14.371094 2 14.003906 L 2 1.996094 C 2 1.636719 2.296875 1.332031 2.664062 1.332031 L 10.664062 1.332031 L 14 4.667969 Z M 8.667969 8 L 14 8 L 14 11.589844 C 14 12.1875 13.703125 12.742188 13.207031 13.074219 L 11.332031 14.332031 L 9.457031 13.074219 C 8.960938 12.742188 8.667969 12.183594 8.667969 11.589844 Z M 8.667969 8 "/>
</g>
</svg>
