<?xml version="1.0" encoding="UTF-8"?>
<svg xmlns="http://www.w3.org/2000/svg" xmlns:xlink="http://www.w3.org/1999/xlink" width="16" height="16" viewBox="0 0 16 16" version="1.1">
<g id="surface1">
<path style=" stroke:none;fill-rule:nonzero;fill:rgb(100%,100%,100%);fill-opacity:1;" d="M 13.332031 1.332031 C 14.4375 1.332031 15.332031 2.230469 15.332031 3.332031 L 15.332031 4.667969 L 14 4.667969 L 14 12.667969 C 14 13.769531 13.105469 14.667969 12 14.667969 L 2.667969 14.667969 C 1.5625 14.667969 0.667969 13.769531 0.667969 12.667969 L 0.667969 11.332031 L 11.332031 11.332031 L 11.332031 12.667969 C 11.332031 13.003906 11.585938 13.289062 11.921875 13.328125 L 12 13.332031 C 12.339844 13.332031 12.621094 13.082031 12.660156 12.746094 L 12.667969 12.667969 L 12.667969 2.667969 L 4 2.667969 C 3.660156 2.667969 3.378906 2.917969 3.339844 3.253906 L 3.332031 3.332031 L 3.332031 10 L 2 10 L 2 3.332031 C 2 2.230469 2.894531 1.332031 4 1.332031 Z M 13.332031 1.332031 "/>
</g>
</svg>
