<?xml version="1.0" encoding="UTF-8"?>
<svg xmlns="http://www.w3.org/2000/svg" xmlns:xlink="http://www.w3.org/1999/xlink" width="16" height="16" viewBox="0 0 16 16" version="1.1">
<g id="surface1">
<path style=" stroke:none;fill-rule:nonzero;fill:rgb(100%,100%,100%);fill-opacity:1;" d="M 1.90625 1.917969 L 10.285156 0.722656 C 10.382812 0.707031 10.480469 0.734375 10.550781 0.800781 C 10.625 0.863281 10.667969 0.953125 10.667969 1.050781 L 10.667969 14.949219 C 10.667969 15.046875 10.625 15.136719 10.550781 15.199219 C 10.480469 15.261719 10.382812 15.292969 10.285156 15.277344 L 1.90625 14.082031 C 1.578125 14.035156 1.332031 13.753906 1.332031 13.421875 L 1.332031 2.578125 C 1.332031 2.246094 1.578125 1.964844 1.90625 1.917969 Z M 11.332031 2 L 14 2 C 14.367188 2 14.667969 2.296875 14.667969 2.667969 L 14.667969 13.332031 C 14.667969 13.703125 14.367188 14 14 14 L 11.332031 14 Z M 6.800781 8 L 8.667969 5.332031 L 7.066406 5.332031 L 6 6.855469 L 4.933594 5.332031 L 3.332031 5.332031 L 5.199219 8 L 3.332031 10.667969 L 4.933594 10.667969 L 6 9.144531 L 7.066406 10.667969 L 8.667969 10.667969 Z M 6.800781 8 "/>
</g>
</svg>
