<?xml version="1.0" encoding="UTF-8"?>
<svg xmlns="http://www.w3.org/2000/svg" xmlns:xlink="http://www.w3.org/1999/xlink" width="16" height="16" viewBox="0 0 16 16" version="1.1">
<g id="surface1">
<path style=" stroke:none;fill-rule:nonzero;fill:rgb(100%,100%,100%);fill-opacity:1;" d="M 5.328125 13 L 6.21875 13 C 6.34375 13 6.453125 12.914062 6.5625 12.71875 L 7.824219 10.347656 L 8.953125 12.710938 C 9.046875 12.914062 9.164062 13 9.292969 13 L 10.65625 13 C 10.722656 13 10.753906 12.921875 10.753906 12.832031 C 10.753906 12.789062 10.746094 12.726562 10.714844 12.671875 L 8.820312 8.578125 L 10.585938 5.273438 C 10.617188 5.234375 10.625 5.179688 10.625 5.136719 C 10.625 5.054688 10.585938 4.984375 10.523438 4.984375 L 9.617188 4.984375 C 9.5 4.984375 9.359375 5.070312 9.261719 5.265625 L 8.195312 7.320312 L 7.226562 5.28125 C 7.125 5.078125 7.003906 4.984375 6.875 4.984375 L 5.40625 4.984375 C 5.351562 4.984375 5.320312 5.054688 5.320312 5.136719 C 5.320312 5.1875 5.34375 5.25 5.367188 5.3125 L 7.1875 9.109375 L 5.292969 12.679688 C 5.261719 12.742188 5.246094 12.804688 5.246094 12.851562 C 5.246094 12.933594 5.285156 13 5.328125 13 Z M 5.328125 13 "/>
<path style=" stroke:none;fill-rule:nonzero;fill:rgb(100%,100%,100%);fill-opacity:1;" d="M 2.5 -0.00390625 C 2.226562 -0.00390625 2 0.222656 2 0.5 L 2 15.5 C 2 15.777344 2.226562 16.003906 2.5 16 L 13.5 16 C 13.773438 16.003906 14 15.777344 14 15.5 L 14 3.496094 C 14 3.367188 13.945312 3.242188 13.855469 3.148438 L 10.867188 0.148438 C 10.773438 0.0546875 10.644531 -0.00390625 10.511719 -0.00390625 Z M 2.996094 1 L 10 1 L 10.003906 3.5 C 10 3.773438 10.226562 3.996094 10.5 4 L 13 4 L 13 15 L 2.996094 15 Z M 2.996094 1 "/>
</g>
</svg>
