<?xml version="1.0" encoding="UTF-8"?>
<svg xmlns="http://www.w3.org/2000/svg" xmlns:xlink="http://www.w3.org/1999/xlink" width="16" height="16" viewBox="0 0 16 16" version="1.1">
<g id="surface1">
<path style=" stroke:none;fill-rule:nonzero;fill:rgb(100%,100%,100%);fill-opacity:1;" d="M 9.332031 6 L 9.332031 2.667969 L 3.332031 2.667969 L 3.332031 13.332031 L 7.371094 13.332031 C 7.589844 13.613281 7.851562 13.855469 8.15625 14.058594 L 9.085938 14.667969 L 2.660156 14.667969 C 2.296875 14.667969 2 14.371094 2 14.003906 L 2 1.996094 C 2 1.636719 2.300781 1.332031 2.667969 1.332031 L 9.996094 1.332031 L 14 5.332031 L 14 6 Z M 8 7.332031 L 14 7.332031 L 14 11.300781 C 14 11.960938 13.664062 12.578125 13.109375 12.941406 L 11 14.332031 L 8.890625 12.941406 C 8.335938 12.578125 8 11.960938 8 11.300781 Z M 9.332031 11.300781 C 9.332031 11.511719 9.441406 11.707031 9.625 11.828125 L 11 12.734375 L 12.375 11.828125 C 12.554688 11.714844 12.664062 11.515625 12.667969 11.300781 L 12.667969 8.667969 L 9.332031 8.667969 Z M 9.332031 11.300781 "/>
</g>
</svg>
