<?xml version="1.0" encoding="UTF-8"?>
<svg xmlns="http://www.w3.org/2000/svg" xmlns:xlink="http://www.w3.org/1999/xlink" width="16" height="16" viewBox="0 0 16 16" version="1.1">
<g id="surface1">
<path style=" stroke:none;fill-rule:nonzero;fill:rgb(100%,100%,100%);fill-opacity:1;" d="M 2 9.332031 L 4.667969 11 L 6.667969 8.667969 L 8.667969 11.332031 L 10 9.667969 L 12 10 L 10 8 L 8.667969 9.667969 L 6.667969 6.332031 L 4.332031 8.832031 L 2 6.667969 L 2 1.996094 C 2 1.636719 2.296875 1.332031 2.664062 1.332031 L 9.332031 1.332031 L 9.332031 5.332031 C 9.332031 5.703125 9.632812 6 10 6 L 14 6 L 14 13.996094 C 14.003906 14.363281 13.707031 14.664062 13.339844 14.667969 L 2.660156 14.667969 C 2.296875 14.667969 2 14.371094 2 14.003906 Z M 14 4.667969 L 10.667969 4.667969 L 10.667969 1.335938 Z M 14 4.667969 "/>
</g>
</svg>
