<?xml version="1.0" encoding="UTF-8"?>
<svg xmlns="http://www.w3.org/2000/svg" xmlns:xlink="http://www.w3.org/1999/xlink" width="16" height="16" viewBox="0 0 16 16" version="1.1">
<g id="surface1">
<path style=" stroke:none;fill-rule:nonzero;fill:rgb(100%,100%,100%);fill-opacity:1;" d="M 10 2.667969 L 3.332031 2.667969 L 3.332031 13.332031 L 12.667969 13.332031 L 12.667969 5.332031 L 10 5.332031 Z M 2 1.996094 C 2 1.628906 2.296875 1.332031 2.664062 1.332031 L 10.667969 1.332031 L 14 4.667969 L 14 13.996094 C 14.003906 14.363281 13.707031 14.664062 13.339844 14.667969 L 2.660156 14.667969 C 2.296875 14.664062 2.003906 14.371094 2 14.003906 Z M 9.019531 9.628906 C 7.863281 10.304688 6.382812 10.019531 5.5625 8.960938 C 4.742188 7.902344 4.835938 6.398438 5.78125 5.449219 C 6.730469 4.5 8.234375 4.402344 9.296875 5.226562 C 10.359375 6.046875 10.644531 7.53125 9.960938 8.6875 L 11.433594 10.160156 L 10.492188 11.105469 L 9.019531 9.632812 Z M 8.605469 8.277344 C 8.953125 7.941406 9.09375 7.445312 8.972656 6.980469 C 8.847656 6.511719 8.484375 6.148438 8.019531 6.027344 C 7.550781 5.90625 7.058594 6.042969 6.722656 6.390625 C 6.214844 6.914062 6.222656 7.746094 6.738281 8.257812 C 7.253906 8.773438 8.085938 8.78125 8.605469 8.277344 Z M 8.605469 8.277344 "/>
</g>
</svg>
