<?xml version="1.0" encoding="UTF-8"?>
<svg xmlns="http://www.w3.org/2000/svg" xmlns:xlink="http://www.w3.org/1999/xlink" width="16" height="16" viewBox="0 0 16 16" version="1.1">
<g id="surface1">
<path style=" stroke:none;fill-rule:nonzero;fill:rgb(100%,100%,100%);fill-opacity:1;" d="M 2.5 -0.00390625 C 2.226562 -0.00390625 2 0.222656 2 0.5 L 2 15.5 C 2 15.777344 2.226562 16.003906 2.5 16 L 13.5 16 C 13.773438 16.003906 14 15.777344 14 15.5 L 14 3.496094 C 14 3.367188 13.945312 3.242188 13.855469 3.148438 L 10.867188 0.148438 C 10.773438 0.0546875 10.644531 -0.00390625 10.511719 -0.00390625 Z M 2.996094 1 L 10 1 L 10.003906 3.5 C 10 3.773438 10.226562 3.996094 10.5 4 L 13 4 L 13 15 L 2.996094 15 Z M 2.996094 1 "/>
<path style=" stroke:none;fill-rule:evenodd;fill:rgb(100%,100%,100%);fill-opacity:1;" d="M 8.015625 4.996094 C 7.320312 4.996094 6.636719 5.179688 6.03125 5.523438 L 8.265625 8.496094 L 11.984375 8.496094 C 11.734375 6.496094 10.03125 4.996094 8.015625 4.996094 Z M 5.234375 6.121094 C 4.453125 6.875 4.015625 7.914062 4.015625 9 C 4.015625 11.210938 5.804688 13 8.015625 13 C 10.03125 13 11.734375 11.5 11.984375 9.5 L 7.765625 9.5 Z M 5.234375 6.121094 "/>
</g>
</svg>
