<?xml version="1.0" encoding="UTF-8"?>
<svg xmlns="http://www.w3.org/2000/svg" xmlns:xlink="http://www.w3.org/1999/xlink" width="16" height="16" viewBox="0 0 16 16" version="1.1">
<g id="surface1">
<path style=" stroke:none;fill-rule:nonzero;fill:rgb(100%,100%,100%);fill-opacity:1;" d="M 14 2 C 14.367188 2 14.667969 2.296875 14.667969 2.667969 L 14.667969 13.332031 C 14.667969 13.703125 14.367188 14 14 14 L 2 14 C 1.632812 14 1.332031 13.703125 1.332031 13.332031 L 1.332031 2.667969 C 1.332031 2.296875 1.632812 2 2 2 Z M 13.332031 3.332031 L 7.691406 3.332031 C 7.230469 4.652344 7 6.429688 7 8.667969 L 9 8.667969 C 8.921875 9.28125 8.898438 9.917969 8.929688 10.585938 C 9.746094 10.445312 10.730469 10.066406 11.613281 9.445312 L 12.371094 10.554688 C 11.273438 11.285156 10.167969 11.742188 9.050781 11.917969 C 9.085938 12.164062 9.128906 12.414062 9.175781 12.667969 L 13.332031 12.667969 Z M 4.371094 9.445312 L 3.628906 10.554688 C 5.066406 11.511719 6.527344 12 8 12 L 8 10.667969 C 6.804688 10.667969 5.597656 10.265625 4.371094 9.445312 Z M 11.332031 4.667969 C 11.703125 4.667969 12 4.964844 12 5.332031 L 12 6 C 12 6.367188 11.703125 6.667969 11.332031 6.667969 C 10.964844 6.667969 10.667969 6.367188 10.667969 6 L 10.667969 5.332031 C 10.667969 4.964844 10.964844 4.667969 11.332031 4.667969 Z M 4.667969 4.667969 C 4.296875 4.667969 4 4.96875 4 5.332031 L 4 6 C 4 6.367188 4.296875 6.667969 4.667969 6.667969 C 5.035156 6.667969 5.332031 6.367188 5.332031 6 L 5.332031 5.332031 C 5.332031 4.964844 5.035156 4.667969 4.667969 4.667969 Z M 4.667969 4.667969 "/>
</g>
</svg>
