<?xml version="1.0" encoding="UTF-8"?>
<svg xmlns="http://www.w3.org/2000/svg" xmlns:xlink="http://www.w3.org/1999/xlink" width="16" height="16" viewBox="0 0 16 16" version="1.1">
<g id="surface1">
<path style=" stroke:none;fill-rule:nonzero;fill:rgb(100%,100%,100%);fill-opacity:1;" d="M 8.140625 0.09375 C 7.8125 0.0820312 7.476562 0.09375 7.148438 0.125 C 6.875 0.152344 6.675781 0.398438 6.703125 0.671875 C 6.726562 0.945312 6.972656 1.148438 7.25 1.121094 C 9.5625 0.90625 11.820312 1.875 13.257812 3.699219 C 13.429688 3.914062 13.742188 3.953125 13.960938 3.785156 C 14.179688 3.617188 14.21875 3.300781 14.046875 3.085938 C 13.222656 2.039062 12.15625 1.234375 10.972656 0.726562 C 10.082031 0.34375 9.121094 0.125 8.140625 0.09375 Z M 5.171875 0.59375 C 5.101562 0.59375 5.039062 0.609375 4.976562 0.632812 C 2.710938 1.53125 0.992188 3.4375 0.328125 5.78125 C 0.25 6.046875 0.40625 6.320312 0.671875 6.398438 C 0.9375 6.46875 1.210938 6.320312 1.289062 6.054688 C 1.867188 4.007812 3.367188 2.347656 5.34375 1.5625 C 5.46875 1.515625 5.570312 1.421875 5.621094 1.296875 C 5.671875 1.175781 5.675781 1.039062 5.625 0.914062 C 5.585938 0.804688 5.503906 0.710938 5.398438 0.65625 C 5.328125 0.617188 5.25 0.597656 5.171875 0.59375 Z M 7.585938 2.445312 C 5.339844 2.53125 3.242188 3.890625 2.320312 6.078125 C 2.214844 6.332031 2.332031 6.625 2.585938 6.734375 C 2.707031 6.785156 2.84375 6.789062 2.96875 6.734375 C 3.09375 6.6875 3.195312 6.585938 3.246094 6.464844 C 4.273438 4.03125 7.015625 2.84375 9.5 3.75 C 11.976562 4.660156 13.304688 7.34375 12.511719 9.867188 C 12.429688 10.128906 12.578125 10.40625 12.835938 10.492188 C 13.101562 10.570312 13.375 10.421875 13.460938 10.164062 C 14.40625 7.140625 12.8125 3.898438 9.84375 2.804688 C 9.097656 2.53125 8.335938 2.417969 7.585938 2.445312 Z M 7.382812 4.515625 C 7.125 4.527344 6.867188 4.5625 6.617188 4.621094 C 5.609375 4.863281 4.679688 5.5625 4.171875 6.734375 C 4.0625 6.984375 4.179688 7.28125 4.429688 7.390625 C 4.554688 7.445312 4.691406 7.445312 4.816406 7.394531 C 4.9375 7.34375 5.039062 7.246094 5.089844 7.125 C 5.476562 6.222656 6.117188 5.773438 6.851562 5.59375 C 7.589844 5.417969 8.4375 5.550781 9.148438 5.921875 C 9.390625 6.046875 9.695312 5.953125 9.820312 5.707031 C 9.945312 5.464844 9.855469 5.164062 9.617188 5.035156 C 8.929688 4.679688 8.15625 4.488281 7.382812 4.515625 Z M 15.007812 4.898438 C 14.9375 4.894531 14.875 4.90625 14.8125 4.933594 C 14.6875 4.984375 14.585938 5.078125 14.535156 5.203125 C 14.484375 5.320312 14.480469 5.460938 14.53125 5.585938 C 15.109375 7.042969 15.171875 8.664062 14.703125 10.160156 C 14.621094 10.421875 14.765625 10.699219 15.027344 10.78125 C 15.289062 10.863281 15.566406 10.71875 15.648438 10.457031 C 16.1875 8.742188 16.125 6.886719 15.460938 5.214844 C 15.417969 5.105469 15.335938 5.015625 15.234375 4.957031 C 15.164062 4.917969 15.085938 4.898438 15.007812 4.898438 Z M 10.945312 6.554688 C 10.875 6.554688 10.804688 6.570312 10.742188 6.601562 C 10.625 6.65625 10.53125 6.757812 10.484375 6.882812 C 10.4375 7.003906 10.445312 7.140625 10.5 7.265625 C 10.789062 7.871094 10.84375 8.582031 10.460938 9.4375 C 8.679688 13.429688 9.429688 11.828125 7.902344 15.367188 C 7.824219 15.546875 7.664062 15.726562 7.46875 15.914062 L 8.734375 15.914062 C 8.761719 15.859375 8.792969 15.8125 8.816406 15.761719 C 10.347656 12.210938 9.59375 13.828125 11.371094 9.839844 C 11.851562 8.753906 11.8125 7.699219 11.40625 6.84375 C 11.324219 6.664062 11.140625 6.550781 10.945312 6.554688 Z M 7.710938 6.71875 C 7.007812 6.71875 6.273438 7.121094 5.90625 7.964844 L 5.109375 9.804688 C 5.058594 9.925781 5.058594 10.0625 5.109375 10.1875 C 5.15625 10.3125 5.253906 10.40625 5.375 10.460938 C 5.5 10.511719 5.636719 10.515625 5.757812 10.460938 C 5.882812 10.414062 5.984375 10.316406 6.03125 10.195312 L 6.824219 8.359375 C 7.132812 7.644531 7.609375 7.605469 8 7.773438 C 8.386719 7.9375 8.683594 8.316406 8.375 9.03125 L 6.390625 13.613281 C 6.085938 14.3125 5.152344 14.929688 4.25 15.3125 C 3.34375 15.695312 2.535156 15.859375 2.535156 15.859375 C 2.484375 15.867188 2.4375 15.882812 2.390625 15.914062 L 5.320312 15.914062 C 6.128906 15.492188 6.929688 14.898438 7.3125 14.011719 L 9.289062 9.421875 C 9.773438 8.296875 9.234375 7.222656 8.390625 6.859375 C 8.179688 6.765625 7.945312 6.71875 7.710938 6.71875 Z M 1.992188 7.113281 C 1.976562 7.113281 1.953125 7.113281 1.9375 7.117188 C 1.746094 7.132812 1.582031 7.257812 1.515625 7.441406 C 1.332031 7.921875 1.179688 8.273438 0.984375 8.527344 C 0.785156 8.777344 0.542969 8.960938 0.0390625 9.125 C 0.0234375 9.125 0.00390625 9.125 -0.0117188 9.132812 L -0.0117188 10.171875 C 0.109375 10.140625 0.226562 10.117188 0.34375 10.078125 C 0.984375 9.867188 1.453125 9.554688 1.773438 9.148438 C 2.09375 8.742188 2.265625 8.289062 2.453125 7.796875 C 2.5 7.671875 2.5 7.535156 2.445312 7.414062 C 2.390625 7.289062 2.289062 7.195312 2.164062 7.148438 C 2.109375 7.125 2.050781 7.113281 1.992188 7.113281 Z M 3.734375 8.5625 C 3.71875 8.5625 3.703125 8.5625 3.6875 8.5625 C 3.5 8.570312 3.328125 8.6875 3.25 8.859375 L 2.726562 10.074219 C 2.480469 10.644531 1.601562 11.074219 0.695312 11.285156 C 0.429688 11.347656 0.21875 11.367188 -0.0117188 11.398438 L -0.0117188 12.429688 C 0.273438 12.390625 0.585938 12.339844 0.925781 12.261719 C 1.945312 12.023438 3.171875 11.578125 3.648438 10.476562 L 4.171875 9.257812 C 4.226562 9.132812 4.226562 8.996094 4.179688 8.875 C 4.125 8.75 4.03125 8.652344 3.90625 8.601562 C 3.851562 8.578125 3.796875 8.5625 3.734375 8.5625 Z M 4.757812 11.332031 C 4.566406 11.339844 4.398438 11.457031 4.320312 11.632812 C 3.984375 12.414062 3.441406 12.78125 2.703125 13.039062 C 1.96875 13.292969 1.058594 13.390625 0.179688 13.546875 C 0.109375 13.558594 0.046875 13.585938 -0.0117188 13.621094 L -0.0117188 14.449219 C 0.0976562 14.523438 0.226562 14.550781 0.359375 14.527344 C 1.183594 14.382812 2.132812 14.296875 3.03125 13.984375 C 3.925781 13.671875 4.789062 13.089844 5.242188 12.03125 C 5.296875 11.910156 5.296875 11.773438 5.25 11.648438 C 5.195312 11.523438 5.101562 11.429688 4.976562 11.375 C 4.910156 11.34375 4.835938 11.328125 4.757812 11.332031 Z M 12.210938 11.4375 C 12.195312 11.4375 12.175781 11.441406 12.160156 11.445312 C 11.96875 11.453125 11.800781 11.570312 11.726562 11.746094 L 9.929688 15.910156 L 11.019531 15.910156 L 12.648438 12.132812 C 12.703125 12.015625 12.703125 11.875 12.652344 11.75 C 12.601562 11.628906 12.507812 11.53125 12.382812 11.476562 C 12.328125 11.457031 12.269531 11.445312 12.210938 11.441406 Z M 14.429688 11.558594 C 14.242188 11.570312 14.074219 11.6875 14 11.859375 L 12.25 15.910156 L 13.335938 15.910156 L 14.914062 12.257812 C 15.023438 12.007812 14.90625 11.714844 14.65625 11.601562 C 14.585938 11.570312 14.507812 11.554688 14.429688 11.558594 Z M 14.429688 11.558594 "/>
</g>
</svg>
