<?xml version="1.0" encoding="UTF-8"?>
<svg xmlns="http://www.w3.org/2000/svg" xmlns:xlink="http://www.w3.org/1999/xlink" width="16" height="16" viewBox="0 0 16 16" version="1.1">
<g id="surface1">
<path style=" stroke:none;fill-rule:evenodd;fill:rgb(100%,100%,100%);fill-opacity:1;" d="M 0 1 L 0 4 L 2 4 L 2 1 Z M 3 1 L 3 4 L 10 4 L 10 1 Z M 11 1 L 11 4 L 16 4 L 16 1 Z M 0 5 L 0 8 L 6 8 L 6 5 Z M 7 5 L 7 8 L 14 8 L 14 5 Z M 15 5 L 15 8 L 16 8 L 16 5 Z M 0 9 L 0 12 L 2 12 L 2 9 Z M 3 9 L 3 12 L 10 12 L 10 9 Z M 11 9 L 11 12 L 16 12 L 16 9 Z M 0 13 L 0 16 L 6 16 L 6 13 Z M 7 13 L 7 16 L 14 16 L 14 13 Z M 15 13 L 15 16 L 16 16 L 16 13 Z M 15 13 "/>
</g>
</svg>
