<?xml version="1.0" encoding="UTF-8"?>
<svg xmlns="http://www.w3.org/2000/svg" xmlns:xlink="http://www.w3.org/1999/xlink" width="16" height="16" viewBox="0 0 16 16" version="1.1">
<g id="surface1">
<path style=" stroke:none;fill-rule:nonzero;fill:rgb(100%,100%,100%);fill-opacity:1;" d="M 0 1 L 0 16 L 3 16 L 3 7 C 3 5.894531 3.894531 5 5 5 L 11 5 C 12.105469 5 13 5.894531 13 7 L 13 16 L 16 16 L 16 1 C 16 0.445312 15.554688 0 15 0 L 1 0 C 0.445312 0 0 0.445312 0 1 Z M 0 1 "/>
<path style=" stroke:none;fill-rule:nonzero;fill:rgb(100%,100%,100%);fill-opacity:1;" d="M 7.023438 6 C 8.273438 9.75 1.398438 11 6.398438 16 C 5.757812 14.914062 5.96875 14.730469 6.398438 13.5 C 6.539062 13.96875 6.648438 14.460938 7.023438 14.75 C 7.164062 13.6875 7.234375 12.625 8.273438 11.625 C 8.335938 13 10.503906 13.8125 8.898438 16 C 12.3125 14.617188 11.574219 11.882812 10.773438 9.125 L 9.523438 10.375 C 9.523438 10.375 9.957031 7.582031 7.023438 6 Z M 7.023438 6 "/>
</g>
</svg>
