<?xml version="1.0" encoding="UTF-8"?>
<svg xmlns="http://www.w3.org/2000/svg" xmlns:xlink="http://www.w3.org/1999/xlink" width="16" height="16" viewBox="0 0 16 16" version="1.1">
<g id="surface1">
<path style=" stroke:none;fill-rule:nonzero;fill:rgb(100%,100%,100%);fill-opacity:1;" d="M 3.332031 10.667969 L 3.332031 14.667969 L 2 14.667969 L 2 2 L 8.253906 2 C 8.507812 2 8.738281 2.144531 8.851562 2.367188 L 9.332031 3.332031 L 13.332031 3.332031 C 13.703125 3.332031 14 3.632812 14 4 L 14 11.332031 C 14 11.703125 13.703125 12 13.332031 12 L 9.078125 12 C 8.828125 12 8.59375 11.855469 8.484375 11.632812 L 8 10.667969 Z M 3.332031 3.332031 L 3.332031 9.332031 L 8.824219 9.332031 L 9.492188 10.667969 L 12.667969 10.667969 L 12.667969 4.667969 L 8.507812 4.667969 L 7.84375 3.332031 Z M 3.332031 3.332031 "/>
</g>
</svg>
