<?xml version="1.0" encoding="UTF-8"?>
<svg xmlns="http://www.w3.org/2000/svg" xmlns:xlink="http://www.w3.org/1999/xlink" width="16" height="16" viewBox="0 0 16 16" version="1.1">
<g id="surface1">
<path style=" stroke:none;fill-rule:nonzero;fill:rgb(100%,100%,100%);fill-opacity:1;" d="M 8.277344 3.332031 L 14 3.332031 C 14.367188 3.332031 14.667969 3.632812 14.667969 4 L 14.667969 13.332031 C 14.667969 13.703125 14.367188 14 14 14 L 2 14 C 1.632812 14 1.332031 13.703125 1.332031 13.332031 L 1.332031 2.667969 C 1.332031 2.296875 1.632812 2 2 2 L 6.941406 2 Z M 2.667969 3.332031 L 2.667969 12.667969 L 13.332031 12.667969 L 13.332031 4.667969 L 7.722656 4.667969 L 6.390625 3.332031 Z M 5.726562 9.207031 C 5.644531 8.851562 5.644531 8.480469 5.726562 8.125 L 5.066406 7.742188 L 5.734375 6.589844 L 6.394531 6.96875 C 6.660156 6.71875 6.980469 6.535156 7.328125 6.429688 L 7.328125 5.667969 L 8.664062 5.667969 L 8.664062 6.429688 C 9.019531 6.535156 9.335938 6.722656 9.597656 6.96875 L 10.261719 6.589844 L 10.925781 7.742188 L 10.265625 8.125 C 10.351562 8.480469 10.351562 8.851562 10.265625 9.207031 L 10.925781 9.585938 L 10.261719 10.742188 L 9.597656 10.359375 C 9.335938 10.609375 9.011719 10.796875 8.664062 10.902344 L 8.664062 11.664062 L 7.328125 11.664062 L 7.328125 10.898438 C 6.980469 10.796875 6.660156 10.609375 6.394531 10.359375 L 5.734375 10.742188 L 5.066406 9.585938 Z M 7.996094 9.664062 C 8.363281 9.679688 8.707031 9.492188 8.894531 9.175781 C 9.078125 8.859375 9.078125 8.46875 8.894531 8.15625 C 8.707031 7.839844 8.363281 7.652344 7.996094 7.664062 C 7.457031 7.6875 7.03125 8.128906 7.03125 8.664062 C 7.03125 9.203125 7.457031 9.644531 7.996094 9.664062 Z M 7.996094 9.664062 "/>
</g>
</svg>
