<?xml version="1.0" encoding="UTF-8"?>
<svg xmlns="http://www.w3.org/2000/svg" xmlns:xlink="http://www.w3.org/1999/xlink" width="16" height="16" viewBox="0 0 16 16" version="1.1">
<g id="surface1">
<path style=" stroke:none;fill-rule:nonzero;fill:rgb(100%,100%,100%);fill-opacity:1;" d="M 2.667969 12 L 6.332031 12 L 6.332031 12.832031 C 6.332031 13.847656 5.511719 14.667969 4.5 14.667969 C 3.488281 14.667969 2.667969 13.847656 2.667969 12.832031 Z M 5.371094 9.332031 L 5.402344 9.246094 C 5.914062 7.839844 6 7.578125 6 7.332031 C 6 6.832031 5.863281 6.238281 5.648438 5.816406 C 5.488281 5.503906 5.375 5.414062 5.332031 5.414062 C 4.480469 5.414062 3.667969 6.324219 3.667969 7.332031 C 3.667969 7.972656 3.714844 8.515625 3.816406 9.171875 L 3.84375 9.332031 Z M 5.332031 4.078125 C 6.667969 4.078125 7.332031 6 7.332031 7.332031 C 7.332031 8 7 8.667969 6.667969 9.667969 L 6.332031 10.667969 L 2.667969 10.667969 C 2.667969 10 2.332031 9 2.332031 7.332031 C 2.332031 5.667969 3.664062 4.078125 5.332031 4.078125 Z M 13.371094 9.398438 L 13.226562 10.21875 C 13.050781 11.214844 12.097656 11.882812 11.101562 11.707031 C 10.101562 11.53125 9.4375 10.578125 9.613281 9.582031 L 9.757812 8.761719 Z M 12.667969 6.566406 C 12.78125 6.234375 12.871094 5.972656 12.871094 5.96875 C 13.007812 5.53125 13.113281 5.097656 13.195312 4.628906 C 13.371094 3.632812 12.726562 2.597656 11.886719 2.449219 C 11.847656 2.441406 11.71875 2.511719 11.507812 2.792969 C 11.21875 3.167969 10.984375 3.734375 10.898438 4.222656 C 10.859375 4.445312 10.863281 4.492188 11.078125 5.734375 C 11.105469 5.902344 11.132812 6.058594 11.152344 6.210938 L 11.167969 6.300781 L 12.671875 6.566406 Z M 12.117188 1.136719 C 13.761719 1.425781 14.796875 3.21875 14.507812 4.859375 C 14.21875 6.503906 13.714844 7.429688 13.601562 8.085938 L 9.988281 7.449219 L 9.835938 6.40625 C 9.679688 5.363281 9.46875 4.648438 9.585938 3.992188 C 9.816406 2.679688 10.804688 0.90625 12.117188 1.136719 Z M 12.117188 1.136719 "/>
</g>
</svg>
