<?xml version="1.0" encoding="UTF-8"?>
<svg xmlns="http://www.w3.org/2000/svg" xmlns:xlink="http://www.w3.org/1999/xlink" width="16" height="16" viewBox="0 0 16 16" version="1.1">
<g id="surface1">
<path style=" stroke:none;fill-rule:nonzero;fill:rgb(100%,100%,100%);fill-opacity:1;" d="M 8 1.332031 C 11.683594 1.332031 14.667969 4.316406 14.667969 8 C 14.667969 11.683594 11.683594 14.667969 8 14.667969 C 4.316406 14.667969 1.332031 11.683594 1.332031 8 C 1.332031 4.316406 4.316406 1.332031 8 1.332031 Z M 9.113281 10.667969 L 6.886719 10.667969 L 5.964844 11.929688 L 6.335938 13.070312 C 6.875 13.246094 7.433594 13.332031 8 13.332031 C 8.582031 13.332031 9.140625 13.238281 9.664062 13.070312 L 10.03125 11.929688 Z M 3.53125 7.246094 L 2.667969 7.871094 L 2.667969 8 C 2.667969 9.152344 3.03125 10.21875 3.65625 11.09375 L 4.929688 11.09375 L 5.808594 9.878906 L 5.125 7.765625 Z M 12.46875 7.246094 L 10.875 7.765625 L 10.191406 9.878906 L 11.070312 11.09375 L 12.34375 11.09375 C 12.988281 10.191406 13.335938 9.109375 13.332031 8 L 13.332031 7.871094 Z M 9.527344 2.886719 L 8.667969 3.515625 L 8.667969 5.191406 L 10.460938 6.496094 L 11.957031 6.011719 L 12.324219 4.878906 C 11.636719 3.925781 10.652344 3.226562 9.527344 2.886719 Z M 6.472656 2.886719 C 5.347656 3.226562 4.363281 3.925781 3.675781 4.878906 L 4.042969 6.011719 L 5.535156 6.496094 L 7.332031 5.191406 L 7.332031 3.515625 Z M 6.472656 2.886719 "/>
</g>
</svg>
