<?xml version="1.0" encoding="UTF-8"?>
<svg xmlns="http://www.w3.org/2000/svg" xmlns:xlink="http://www.w3.org/1999/xlink" width="16" height="16" viewBox="0 0 16 16" version="1.1">
<g id="surface1">
<path style=" stroke:none;fill-rule:nonzero;fill:rgb(100%,100%,100%);fill-opacity:1;" d="M 11.332031 2.667969 C 13.542969 2.667969 15.332031 4.457031 15.332031 6.667969 L 15.332031 9.332031 C 15.332031 11.542969 13.542969 13.332031 11.332031 13.332031 L 4.667969 13.332031 C 2.457031 13.332031 0.667969 11.542969 0.667969 9.332031 L 0.667969 6.667969 C 0.667969 4.457031 2.457031 2.667969 4.667969 2.667969 Z M 11.332031 4 L 4.667969 4 C 3.246094 4 2.074219 5.113281 2.003906 6.535156 L 2 6.667969 L 2 9.332031 C 2 10.753906 3.113281 11.925781 4.535156 11.996094 L 4.667969 12 L 11.332031 12 C 12.753906 12 13.925781 10.886719 13.996094 9.464844 L 14 9.332031 L 14 6.667969 C 14 5.246094 12.886719 4.074219 11.464844 4.003906 Z M 6.667969 6 L 6.667969 7.332031 L 8 7.332031 L 8 8.667969 L 6.664062 8.667969 L 6.667969 10 L 5.332031 10 L 5.332031 8.667969 L 4 8.667969 L 4 7.332031 L 5.332031 7.332031 L 5.332031 6 Z M 12 8.667969 L 12 10 L 10.667969 10 L 10.667969 8.667969 Z M 10.667969 6 L 10.667969 7.332031 L 9.332031 7.332031 L 9.332031 6 Z M 10.667969 6 "/>
</g>
</svg>
