<?xml version="1.0" encoding="UTF-8"?>
<svg xmlns="http://www.w3.org/2000/svg" xmlns:xlink="http://www.w3.org/1999/xlink" width="16" height="16" viewBox="0 0 16 16" version="1.1">
<g id="surface1">
<path style=" stroke:none;fill-rule:nonzero;fill:rgb(100%,100%,100%);fill-opacity:1;" d="M 8 1.332031 C 4.332031 1.332031 1.332031 4.332031 1.332031 8 C 1.332031 11.667969 4.332031 14.667969 8 14.667969 C 11.667969 14.667969 14.667969 11.667969 14.667969 8 C 14.667969 4.332031 11.667969 1.332031 8 1.332031 Z M 4.285156 11.714844 C 3.285156 10.714844 2.761719 9.378906 2.761719 8.09375 L 7.953125 13.238281 C 6.621094 13.191406 5.285156 12.714844 4.285156 11.714844 Z M 9.144531 13.09375 L 2.90625 6.855469 C 3.429688 4.523438 5.523438 2.761719 8 2.761719 C 9.761719 2.761719 11.285156 3.621094 12.238281 4.90625 L 11.523438 5.523438 C 10.714844 4.429688 9.429688 3.714844 8 3.714844 C 6.144531 3.714844 4.570312 4.902344 3.953125 6.570312 L 9.429688 12.046875 C 10.808594 11.570312 11.855469 10.378906 12.191406 8.953125 L 9.90625 8.953125 L 9.90625 8 L 13.238281 8 C 13.238281 10.476562 11.476562 12.570312 9.144531 13.09375 Z M 9.144531 13.09375 "/>
</g>
</svg>
