<?xml version="1.0" encoding="UTF-8"?>
<svg xmlns="http://www.w3.org/2000/svg" xmlns:xlink="http://www.w3.org/1999/xlink" width="16" height="16" viewBox="0 0 16 16" version="1.1">
<g id="surface1">
<path style=" stroke:none;fill-rule:nonzero;fill:rgb(100%,100%,100%);fill-opacity:1;" d="M 8 1.332031 C 10.332031 1.332031 12 3.332031 12.667969 5.332031 C 14.667969 6 15.332031 7.820312 15.332031 9.332031 L 13.484375 9.863281 C 13.199219 9.945312 13 10.207031 13 10.503906 L 13 11.5 C 13 12.144531 12.476562 12.667969 11.832031 12.667969 L 11.4375 12.667969 C 10.988281 12.667969 10.570312 12.890625 10.324219 13.265625 C 9.707031 14.199219 8.929688 14.667969 8 14.667969 C 7.070312 14.667969 6.292969 14.199219 5.675781 13.265625 C 5.429688 12.890625 5.011719 12.667969 4.5625 12.667969 L 4.167969 12.667969 C 3.523438 12.667969 3 12.144531 3 11.5 L 3 10.503906 C 3 10.207031 2.800781 9.945312 2.515625 9.863281 L 0.667969 9.332031 C 0.667969 7.824219 1.332031 6 3.332031 5.332031 C 4 3.332031 5.667969 1.332031 8 1.332031 Z M 8 2.667969 C 6.59375 2.667969 5.289062 3.859375 4.660156 5.582031 L 4.597656 5.753906 L 4.386719 6.386719 L 3.753906 6.597656 C 2.917969 6.878906 2.375 7.492188 2.136719 8.304688 L 2.125 8.363281 L 2.882812 8.578125 C 3.699219 8.8125 4.277344 9.535156 4.328125 10.382812 L 4.332031 10.503906 L 4.332031 11.332031 L 4.5625 11.332031 C 5.402344 11.332031 6.195312 11.730469 6.699219 12.398438 L 6.789062 12.527344 C 7.171875 13.109375 7.542969 13.332031 8 13.332031 C 8.425781 13.332031 8.777344 13.136719 9.136719 12.640625 L 9.210938 12.527344 C 9.675781 11.828125 10.441406 11.386719 11.277344 11.339844 L 11.4375 11.332031 L 11.667969 11.332031 L 11.667969 10.503906 C 11.667969 9.652344 12.203125 8.898438 13.003906 8.617188 L 13.117188 8.578125 L 13.875 8.363281 L 13.863281 8.304688 C 13.636719 7.535156 13.140625 6.945312 12.382812 6.648438 L 12.246094 6.597656 L 11.613281 6.386719 L 11.402344 5.753906 C 10.796875 3.941406 9.453125 2.667969 8 2.667969 Z M 8 8 C 8.550781 8 9 8.746094 9 9.667969 C 9 10.585938 8.550781 11.332031 8 11.332031 C 7.449219 11.332031 7 10.585938 7 9.667969 C 7 8.746094 7.449219 8 8 8 Z M 6.332031 5.332031 C 6.886719 5.332031 7.332031 5.78125 7.332031 6.332031 C 7.332031 6.886719 6.886719 7.332031 6.332031 7.332031 C 5.78125 7.332031 5.332031 6.886719 5.332031 6.332031 C 5.332031 5.78125 5.78125 5.332031 6.332031 5.332031 Z M 9.667969 5.332031 C 10.21875 5.332031 10.667969 5.78125 10.667969 6.332031 C 10.667969 6.886719 10.21875 7.332031 9.667969 7.332031 C 9.113281 7.332031 8.667969 6.886719 8.667969 6.332031 C 8.667969 5.78125 9.113281 5.332031 9.667969 5.332031 Z M 9.667969 5.332031 "/>
</g>
</svg>
