<?xml version="1.0" encoding="UTF-8"?>
<svg xmlns="http://www.w3.org/2000/svg" xmlns:xlink="http://www.w3.org/1999/xlink" width="16" height="16" viewBox="0 0 16 16" version="1.1">
<g id="surface1">
<path style=" stroke:none;fill-rule:nonzero;fill:rgb(100%,100%,100%);fill-opacity:1;" d="M 8.667969 14 L 8.667969 15.667969 L 6.667969 14.332031 L 4.667969 15.667969 L 4.667969 14 L 4.332031 14 C 3.042969 14 2 12.957031 2 11.667969 L 2 3.332031 C 2 2.230469 2.894531 1.332031 4 1.332031 L 13.332031 1.332031 C 13.703125 1.332031 14 1.632812 14 2 L 14 13.332031 C 14 13.703125 13.703125 14 13.332031 14 Z M 4.667969 12.667969 L 4.667969 11.332031 L 8.667969 11.332031 L 8.667969 12.667969 L 12.667969 12.667969 L 12.667969 10.667969 L 4.332031 10.667969 C 3.78125 10.667969 3.332031 11.113281 3.332031 11.667969 C 3.332031 12.21875 3.78125 12.667969 4.332031 12.667969 Z M 4.667969 3.332031 L 4.667969 4.667969 L 6 4.667969 L 6 3.332031 Z M 4.667969 5.332031 L 4.667969 6.667969 L 6 6.667969 L 6 5.332031 Z M 4.667969 7.332031 L 4.667969 8.667969 L 6 8.667969 L 6 7.332031 Z M 4.667969 7.332031 "/>
</g>
</svg>
