<?xml version="1.0" encoding="UTF-8"?>
<svg xmlns="http://www.w3.org/2000/svg" xmlns:xlink="http://www.w3.org/1999/xlink" width="16" height="16" viewBox="0 0 16 16" version="1.1">
<g id="surface1">
<path style=" stroke:none;fill-rule:nonzero;fill:rgb(100%,100%,100%);fill-opacity:1;" d="M 8 1.332031 C 4.316406 1.332031 1.332031 4.316406 1.332031 8 C 1.332031 10.871094 3.167969 13.417969 5.890625 14.324219 C 6.226562 14.382812 6.351562 14.183594 6.351562 14.007812 C 6.351562 13.851562 6.339844 13.324219 6.339844 12.765625 C 4.667969 13.074219 4.234375 12.359375 4.101562 11.984375 C 4.023438 11.792969 3.699219 11.199219 3.417969 11.042969 C 3.183594 10.917969 2.851562 10.609375 3.40625 10.601562 C 3.933594 10.589844 4.308594 11.082031 4.433594 11.285156 C 5.035156 12.292969 5.992188 12.007812 6.375 11.832031 C 6.433594 11.398438 6.609375 11.109375 6.800781 10.941406 C 5.316406 10.773438 3.765625 10.199219 3.765625 7.648438 C 3.765625 6.925781 4.023438 6.324219 4.449219 5.859375 C 4.382812 5.691406 4.148438 5.007812 4.515625 4.089844 C 4.515625 4.089844 5.074219 3.917969 6.351562 4.773438 C 6.894531 4.625 7.453125 4.550781 8.015625 4.550781 C 8.582031 4.550781 9.148438 4.625 9.683594 4.773438 C 10.957031 3.90625 11.515625 4.09375 11.515625 4.09375 C 11.882812 5.007812 11.648438 5.691406 11.582031 5.859375 C 12.007812 6.324219 12.265625 6.917969 12.265625 7.648438 C 12.265625 10.207031 10.707031 10.773438 9.226562 10.941406 C 9.464844 11.148438 9.675781 11.550781 9.675781 12.175781 C 9.675781 13.066406 9.667969 13.785156 9.667969 14.007812 C 9.667969 14.183594 9.792969 14.390625 10.125 14.324219 C 12.839844 13.410156 14.664062 10.863281 14.667969 8 C 14.667969 4.316406 11.683594 1.332031 8 1.332031 Z M 8 1.332031 "/>
</g>
</svg>
