<?xml version="1.0" encoding="UTF-8"?>
<svg xmlns="http://www.w3.org/2000/svg" xmlns:xlink="http://www.w3.org/1999/xlink" width="16" height="16" viewBox="0 0 16 16" version="1.1">
<g id="surface1">
<path style=" stroke:none;fill-rule:nonzero;fill:rgb(100%,100%,100%);fill-opacity:1;" d="M 3.785156 4.875 L 2.574219 8.820312 L 8 12.960938 L 13.425781 8.820312 L 12.214844 4.875 L 11.09375 7.332031 L 4.902344 7.332031 L 3.789062 4.875 Z M 10.238281 6 L 12.164062 1.765625 C 12.210938 1.664062 12.3125 1.601562 12.421875 1.609375 C 12.535156 1.613281 12.628906 1.691406 12.660156 1.796875 L 14.90625 9.09375 C 14.945312 9.226562 14.902344 9.371094 14.789062 9.457031 L 8 14.636719 L 1.210938 9.457031 C 1.101562 9.371094 1.054688 9.226562 1.09375 9.09375 L 3.339844 1.796875 C 3.371094 1.691406 3.464844 1.613281 3.578125 1.609375 C 3.6875 1.601562 3.792969 1.664062 3.835938 1.765625 L 5.761719 6 Z M 10.238281 6 "/>
</g>
</svg>
