<?xml version="1.0" encoding="UTF-8"?>
<svg xmlns="http://www.w3.org/2000/svg" xmlns:xlink="http://www.w3.org/1999/xlink" width="16" height="16" viewBox="0 0 16 16" version="1.1">
<g id="surface1">
<path style=" stroke:none;fill-rule:nonzero;fill:rgb(100%,100%,100%);fill-opacity:1;" d="M 2.042969 5.007812 C 3.175781 2.753906 5.480469 1.332031 8 1.332031 C 9.796875 1.332031 11.304688 1.992188 12.460938 3.070312 L 10.546875 4.980469 C 9.855469 4.320312 8.980469 3.984375 8 3.984375 C 6.261719 3.984375 4.792969 5.15625 4.269531 6.734375 C 4.136719 7.132812 4.0625 7.558594 4.0625 8 C 4.0625 8.441406 4.136719 8.867188 4.269531 9.265625 C 4.792969 10.84375 6.261719 12.015625 8 12.015625 C 8.898438 12.015625 9.660156 11.777344 10.257812 11.378906 C 10.957031 10.917969 11.4375 10.191406 11.589844 9.367188 L 8 9.367188 L 8 6.789062 L 14.277344 6.789062 C 14.355469 7.222656 14.398438 7.679688 14.398438 8.152344 C 14.398438 10.183594 13.671875 11.890625 12.410156 13.050781 C 11.308594 14.070312 9.800781 14.667969 8 14.667969 C 4.316406 14.667969 1.332031 11.683594 1.332031 8 C 1.332031 6.925781 1.589844 5.90625 2.042969 5.007812 Z M 2.042969 5.007812 "/>
</g>
</svg>
