<?xml version="1.0" encoding="UTF-8"?>
<svg xmlns="http://www.w3.org/2000/svg" xmlns:xlink="http://www.w3.org/1999/xlink" width="16" height="16" viewBox="0 0 16 16" version="1.1">
<g id="surface1">
<path style=" stroke:none;fill-rule:nonzero;fill:rgb(100%,100%,100%);fill-opacity:1;" d="M 2.667969 1.15625 C 2.785156 1.15625 2.898438 1.1875 3 1.246094 L 13.671875 7.421875 C 13.875 7.542969 14.003906 7.761719 14.003906 8 C 14.003906 8.238281 13.875 8.457031 13.671875 8.578125 L 3 14.753906 C 2.792969 14.875 2.539062 14.875 2.332031 14.753906 C 2.128906 14.636719 2 14.414062 2 14.175781 L 2 1.824219 C 2 1.453125 2.296875 1.15625 2.667969 1.15625 Z M 8.195312 8.941406 L 5.195312 11.941406 L 8.996094 9.742188 Z M 3.332031 4.078125 L 3.332031 11.917969 L 7.253906 8 Z M 10.1875 6.945312 L 9.136719 8 L 10.1875 9.050781 L 12.003906 8 L 10.1875 6.949219 Z M 5.195312 4.054688 L 8.195312 7.054688 L 8.996094 6.257812 Z M 5.195312 4.054688 "/>
</g>
</svg>
