<?xml version="1.0" encoding="UTF-8"?>
<svg xmlns="http://www.w3.org/2000/svg" xmlns:xlink="http://www.w3.org/1999/xlink" width="16" height="16" viewBox="0 0 16 16" version="1.1">
<g id="surface1">
<path style=" stroke:none;fill-rule:nonzero;fill:rgb(100%,100%,100%);fill-opacity:1;" d="M 4.753906 13.824219 C 2.640625 12.648438 1.332031 10.417969 1.332031 8 C 1.332031 4.316406 4.316406 1.332031 8 1.332031 C 11.683594 1.332031 14.667969 4.316406 14.667969 8 C 14.667969 10.417969 13.359375 12.648438 11.246094 13.824219 L 10.648438 12.628906 C 12.746094 11.429688 13.773438 8.96875 13.152344 6.632812 C 12.53125 4.292969 10.417969 2.667969 8 2.667969 C 5.582031 2.667969 3.464844 4.292969 2.84375 6.632812 C 2.222656 8.96875 3.253906 11.429688 5.351562 12.628906 Z M 5.949219 11.433594 C 4.402344 10.511719 3.664062 8.671875 4.144531 6.9375 C 4.621094 5.203125 6.199219 4 8 4 C 9.800781 4 11.378906 5.203125 11.855469 6.9375 C 12.335938 8.671875 11.59375 10.511719 10.050781 11.433594 L 9.453125 10.238281 C 10.441406 9.59375 10.890625 8.375 10.558594 7.242188 C 10.222656 6.109375 9.179688 5.332031 8 5.332031 C 6.820312 5.332031 5.777344 6.109375 5.441406 7.242188 C 5.109375 8.375 5.558594 9.59375 6.546875 10.238281 Z M 8 10.667969 L 10 14.667969 L 6 14.667969 Z M 8 10.667969 "/>
</g>
</svg>
