<?xml version="1.0" encoding="UTF-8"?>
<svg xmlns="http://www.w3.org/2000/svg" xmlns:xlink="http://www.w3.org/1999/xlink" width="16" height="16" viewBox="0 0 16 16" version="1.1">
<g id="surface1">
<path style=" stroke:none;fill-rule:nonzero;fill:rgb(100%,100%,100%);fill-opacity:1;" d="M 6.667969 13.164062 L 6.667969 10.933594 C 6.667969 10.078125 7.328125 9.40625 8.3125 9.019531 C 7.679688 8.785156 7.007812 8.664062 6.332031 8.667969 C 5.074219 8.667969 3.910156 9.078125 2.96875 9.773438 C 3.5625 11.449219 4.945312 12.71875 6.667969 13.164062 Z M 12.585938 10.722656 C 12.324219 10.367188 11.445312 10 10.332031 10 C 8.996094 10 8 10.53125 8 10.933594 L 8 13.332031 C 9.882812 13.335938 11.625 12.34375 12.585938 10.722656 Z M 6.367188 7.667969 C 7.195312 7.667969 7.867188 6.996094 7.867188 6.167969 C 7.867188 5.339844 7.195312 4.667969 6.367188 4.667969 C 5.539062 4.667969 4.867188 5.339844 4.867188 6.167969 C 4.867188 6.996094 5.539062 7.667969 6.367188 7.667969 Z M 10.332031 8.332031 C 11.070312 8.332031 11.667969 7.738281 11.667969 7 C 11.667969 6.261719 11.070312 5.667969 10.332031 5.667969 C 9.597656 5.667969 9 6.261719 9 7 C 9 7.738281 9.597656 8.332031 10.332031 8.332031 Z M 8 14.667969 C 4.316406 14.667969 1.332031 11.683594 1.332031 8 C 1.332031 4.316406 4.316406 1.332031 8 1.332031 C 11.683594 1.332031 14.667969 4.316406 14.667969 8 C 14.667969 11.683594 11.683594 14.667969 8 14.667969 Z M 8 14.667969 "/>
</g>
</svg>
