<?xml version="1.0" encoding="UTF-8"?>
<svg xmlns="http://www.w3.org/2000/svg" xmlns:xlink="http://www.w3.org/1999/xlink" width="16" height="16" viewBox="0 0 16 16" version="1.1">
<g id="surface1">
<path style=" stroke:none;fill-rule:evenodd;fill:rgb(100%,100%,100%);fill-opacity:1;" d="M 8 0 C 8.972656 0 9.757812 0.789062 9.757812 1.757812 C 9.757812 2.734375 8.972656 3.519531 8 3.519531 C 7.027344 3.519531 6.242188 2.734375 6.242188 1.757812 C 6.242188 0.789062 7.027344 0 8 0 Z M 8 4.351562 C 11.335938 4.351562 10.589844 10.820312 10.589844 10.820312 L 9.296875 10.820312 L 9.296875 16 L 6.703125 16 L 6.703125 10.820312 L 5.410156 10.820312 C 5.410156 10.820312 4.664062 4.351562 8 4.351562 Z M 8 4.351562 "/>
<path style=" stroke:none;fill-rule:evenodd;fill:rgb(100%,100%,100%);fill-opacity:1;" d="M 2.660156 0 C 3.632812 0 4.421875 0.789062 4.421875 1.757812 C 4.421875 2.734375 3.632812 3.519531 2.660156 3.519531 C 1.6875 3.519531 0.902344 2.734375 0.898438 1.757812 C 0.902344 0.789062 1.6875 0 2.660156 0 Z M 2.660156 4.351562 C 6 4.351562 5.25 10.820312 5.25 10.820312 L 3.953125 10.820312 L 3.953125 16 L 1.367188 16 L 1.367188 10.820312 L 0.0703125 10.820312 C 0.0703125 10.820312 -0.675781 4.351562 2.660156 4.351562 Z M 2.660156 4.351562 "/>
<path style=" stroke:none;fill-rule:evenodd;fill:rgb(100%,100%,100%);fill-opacity:1;" d="M 13.339844 0 C 14.3125 0 15.097656 0.789062 15.101562 1.757812 C 15.097656 2.734375 14.3125 3.519531 13.339844 3.519531 C 12.367188 3.519531 11.578125 2.734375 11.578125 1.757812 C 11.578125 0.789062 12.367188 0 13.339844 0 Z M 13.339844 4.351562 C 16.675781 4.351562 15.929688 10.820312 15.929688 10.820312 L 14.632812 10.820312 L 14.632812 16 L 12.046875 16 L 12.046875 10.820312 L 10.75 10.820312 C 10.75 10.820312 10 4.351562 13.339844 4.351562 Z M 13.339844 4.351562 "/>
</g>
</svg>
