<?xml version="1.0" encoding="UTF-8"?>
<svg xmlns="http://www.w3.org/2000/svg" xmlns:xlink="http://www.w3.org/1999/xlink" width="16" height="16" viewBox="0 0 16 16" version="1.1">
<g id="surface1">
<path style=" stroke:none;fill-rule:nonzero;fill:rgb(100%,100%,100%);fill-opacity:1;" d="M 1.332031 14.667969 C 1.332031 11.722656 3.722656 9.332031 6.667969 9.332031 C 9.613281 9.332031 12 11.722656 12 14.667969 Z M 6.667969 8.667969 C 4.457031 8.667969 2.667969 6.875 2.667969 4.667969 C 2.667969 2.457031 4.457031 0.667969 6.667969 0.667969 C 8.875 0.667969 10.667969 2.457031 10.667969 4.667969 C 10.667969 6.875 8.875 8.667969 6.667969 8.667969 Z M 11.574219 10.15625 C 13.667969 10.691406 15.175781 12.511719 15.320312 14.667969 L 13.332031 14.667969 C 13.332031 12.925781 12.667969 11.34375 11.574219 10.15625 Z M 10.226562 8.636719 C 11.355469 7.628906 12 6.183594 12 4.667969 C 12 3.753906 11.769531 2.859375 11.324219 2.066406 C 12.878906 2.378906 14 3.746094 14 5.332031 C 14 6.292969 13.585938 7.207031 12.863281 7.839844 C 12.140625 8.476562 11.179688 8.765625 10.226562 8.636719 Z M 10.226562 8.636719 "/>
</g>
</svg>
