<?xml version="1.0" encoding="UTF-8"?>
<svg xmlns="http://www.w3.org/2000/svg" xmlns:xlink="http://www.w3.org/1999/xlink" width="16" height="16" viewBox="0 0 16 16" version="1.1">
<g id="surface1">
<path style=" stroke:none;fill-rule:nonzero;fill:rgb(100%,100%,100%);fill-opacity:1;" d="M 14.667969 5.332031 L 14.667969 6.667969 L 11.785156 6.667969 L 11.476562 8.425781 C 11.695312 8.363281 11.925781 8.332031 12.167969 8.332031 C 13.640625 8.332031 14.832031 9.527344 14.832031 11 C 14.832031 12.472656 13.640625 13.667969 12.167969 13.667969 C 10.949219 13.667969 9.921875 12.851562 9.601562 11.734375 L 10.882812 11.367188 C 11.042969 11.925781 11.558594 12.332031 12.167969 12.332031 C 12.902344 12.332031 13.5 11.738281 13.5 11 C 13.5 10.261719 12.902344 9.667969 12.167969 9.667969 C 11.746094 9.667969 11.371094 9.863281 11.125 10.164062 L 9.921875 9.5625 L 10.667969 5.332031 Z M 2.667969 2.667969 L 2.667969 7.332031 L 7.332031 7.332031 L 7.332031 2.667969 L 8.667969 2.667969 L 8.667969 13.332031 L 7.332031 13.332031 L 7.332031 8.667969 L 2.667969 8.667969 L 2.667969 13.332031 L 1.332031 13.332031 L 1.332031 2.667969 Z M 2.667969 2.667969 "/>
</g>
</svg>
