<?xml version="1.0" encoding="UTF-8"?>
<svg xmlns="http://www.w3.org/2000/svg" xmlns:xlink="http://www.w3.org/1999/xlink" width="16" height="16" viewBox="0 0 16 16" version="1.1">
<g id="surface1">
<path style=" stroke:none;fill-rule:nonzero;fill:rgb(100%,100%,100%);fill-opacity:1;" d="M 4 11.613281 C 1.636719 10.652344 0.28125 8.152344 0.769531 5.648438 C 1.257812 3.144531 3.449219 1.335938 6 1.332031 C 8.199219 1.332031 10.175781 2.683594 10.972656 4.734375 C 12.90625 4.351562 14.792969 5.566406 15.25 7.480469 C 15.707031 9.398438 14.566406 11.332031 12.667969 11.863281 L 12.667969 10.441406 C 13.507812 10.042969 14.03125 9.179688 14 8.246094 C 13.964844 7.316406 13.378906 6.496094 12.507812 6.15625 C 11.640625 5.820312 10.652344 6.035156 10 6.699219 L 10 6.667969 C 10 4.726562 8.605469 3.066406 6.695312 2.726562 C 4.78125 2.390625 2.90625 3.476562 2.242188 5.300781 C 1.578125 7.125 2.320312 9.160156 4 10.132812 Z M 6.667969 11.332031 C 5.929688 11.332031 5.332031 10.738281 5.332031 10 C 5.332031 9.261719 5.929688 8.667969 6.667969 8.667969 C 7.402344 8.667969 8 9.261719 8 10 C 8 10.738281 7.402344 11.332031 6.667969 11.332031 Z M 10 13.332031 C 9.261719 13.332031 8.667969 12.738281 8.667969 12 C 8.667969 11.261719 9.261719 10.667969 10 10.667969 C 10.738281 10.667969 11.332031 11.261719 11.332031 12 C 11.332031 12.738281 10.738281 13.332031 10 13.332031 Z M 6.667969 15.332031 C 5.929688 15.332031 5.332031 14.738281 5.332031 14 C 5.332031 13.261719 5.929688 12.667969 6.667969 12.667969 C 7.402344 12.667969 8 13.261719 8 14 C 8 14.738281 7.402344 15.332031 6.667969 15.332031 Z M 6.667969 15.332031 "/>
</g>
</svg>
