<?xml version="1.0" encoding="UTF-8"?>
<svg xmlns="http://www.w3.org/2000/svg" xmlns:xlink="http://www.w3.org/1999/xlink" width="16" height="16" viewBox="0 0 16 16" version="1.1">
<g id="surface1">
<path style=" stroke:none;fill-rule:nonzero;fill:rgb(100%,100%,100%);fill-opacity:1;" d="M 11.332031 1.332031 L 11.332031 2.667969 L 8.667969 2.664062 L 8.667969 4 L 10.667969 4 L 10.667969 5.332031 C 12.140625 5.332031 13.332031 6.527344 13.332031 8 L 13.332031 13.332031 C 13.332031 14.070312 12.738281 14.667969 12 14.667969 L 4 14.667969 C 3.261719 14.667969 2.667969 14.070312 2.667969 13.332031 L 2.667969 8 C 2.667969 6.527344 3.859375 5.332031 5.332031 5.332031 L 5.332031 4 L 7.332031 4 L 7.332031 2.664062 L 5 2.667969 C 4.578125 2.667969 4.085938 2.992188 3.535156 3.734375 L 2.464844 2.933594 C 3.246094 1.894531 4.085938 1.332031 5 1.332031 Z M 8.667969 8 L 7.332031 8 L 7.332031 9.332031 L 6 9.332031 L 6 10.667969 L 7.332031 10.667969 L 7.332031 12 L 8.667969 12 L 8.664062 10.667969 L 10 10.667969 L 10 9.332031 L 8.667969 9.332031 Z M 8.667969 8 "/>
</g>
</svg>
