<?xml version="1.0" encoding="UTF-8"?>
<svg xmlns="http://www.w3.org/2000/svg" xmlns:xlink="http://www.w3.org/1999/xlink" width="16" height="16" viewBox="0 0 16 16" version="1.1">
<g id="surface1">
<path style=" stroke:none;fill-rule:evenodd;fill:rgb(100%,100%,100%);fill-opacity:1;" d="M 6 1 C 5.445312 1 5 1.445312 5 2 L 5 8 C 5 8 4 9 4 10 C 4 10.699219 4.976562 12.859375 5.5625 14.101562 C 5.800781 14.597656 6.445312 15 7 15 L 12 15 C 12.554688 15 13 14.554688 13 14 L 13 7 C 13 6.445312 12.554688 6 12 6 C 11.445312 6 11 6.445312 11 7 L 11 6.5 C 11 5.945312 10.554688 5.5 10 5.5 C 9.445312 5.5 9 5.945312 9 6.5 L 9 6 C 9 5.445312 8.554688 5 8 5 C 7.445312 5 7 5.445312 7 6 L 7 2 C 7 1.445312 6.554688 1 6 1 Z M 6 1 "/>
</g>
</svg>
