<?xml version="1.0" encoding="UTF-8"?>
<svg xmlns="http://www.w3.org/2000/svg" xmlns:xlink="http://www.w3.org/1999/xlink" width="16" height="16" viewBox="0 0 16 16" version="1.1">
<g id="surface1">
<path style=" stroke:none;fill-rule:nonzero;fill:rgb(100%,100%,100%);fill-opacity:1;" d="M 9.300781 1.332031 L 13.332031 1.332031 C 13.703125 1.332031 14 1.632812 14 2 L 14 14 C 14 14.367188 13.703125 14.667969 13.332031 14.667969 L 2.667969 14.667969 C 2.296875 14.667969 2 14.367188 2 14 L 2 8.632812 C 2.21875 8.65625 2.441406 8.667969 2.667969 8.667969 C 6.347656 8.667969 9.332031 5.683594 9.332031 2 C 9.332031 1.773438 9.320312 1.550781 9.300781 1.332031 Z M 10 10.667969 L 10 12 L 11.332031 12 L 11.332031 10.667969 Z M 7.957031 1.332031 C 8.164062 2.96875 7.605469 4.605469 6.4375 5.773438 C 5.273438 6.9375 3.636719 7.5 2 7.292969 L 2 2 C 2 1.632812 2.296875 1.332031 2.667969 1.332031 Z M 7.957031 1.332031 "/>
</g>
</svg>
