<?xml version="1.0" encoding="UTF-8"?>
<svg xmlns="http://www.w3.org/2000/svg" xmlns:xlink="http://www.w3.org/1999/xlink" width="16" height="16" viewBox="0 0 16 16" version="1.1">
<g id="surface1">
<path style=" stroke:none;fill-rule:nonzero;fill:rgb(100%,100%,100%);fill-opacity:1;" d="M 13.332031 1.332031 C 13.703125 1.332031 14 1.632812 14 2 L 14 14 C 14 14.367188 13.703125 14.667969 13.332031 14.667969 L 4 14.667969 C 3.632812 14.667969 3.332031 14.367188 3.332031 14 L 3.332031 12.667969 L 2 12.667969 L 2 11.332031 L 3.332031 11.332031 L 3.332031 10 L 2 10 L 2 8.667969 L 3.332031 8.667969 L 3.332031 7.332031 L 2 7.332031 L 2 6 L 3.332031 6 L 3.332031 4.667969 L 2 4.667969 L 2 3.332031 L 3.332031 3.332031 L 3.332031 2 C 3.332031 1.632812 3.632812 1.332031 4 1.332031 Z M 9.332031 5.332031 L 8 5.332031 L 8 7.332031 L 6 7.332031 L 6 8.667969 L 8 8.667969 L 8 10.667969 L 9.332031 10.667969 L 9.332031 8.667969 L 11.332031 8.667969 L 11.332031 7.332031 L 9.332031 7.332031 Z M 9.332031 5.332031 "/>
</g>
</svg>
