<?xml version="1.0" encoding="UTF-8"?>
<svg xmlns="http://www.w3.org/2000/svg" xmlns:xlink="http://www.w3.org/1999/xlink" width="16" height="16" viewBox="0 0 16 16" version="1.1">
<g id="surface1">
<path style=" stroke:none;fill-rule:nonzero;fill:rgb(100%,100%,100%);fill-opacity:1;" d="M 12.667969 12.667969 L 12.667969 6.53125 L 8 2.851562 L 3.332031 6.53125 L 3.332031 12.667969 Z M 14 13.332031 C 14 13.703125 13.703125 14 13.332031 14 L 2.667969 14 C 2.296875 14 2 13.703125 2 13.332031 L 2 6.210938 C 2 6.003906 2.09375 5.8125 2.253906 5.6875 L 7.585938 1.480469 C 7.828125 1.289062 8.171875 1.289062 8.414062 1.480469 L 13.746094 5.683594 C 13.90625 5.8125 14 6.003906 14 6.210938 Z M 4.667969 8 L 6 8 C 6 9.105469 6.894531 10 8 10 C 9.105469 10 10 9.105469 10 8 L 11.332031 8 C 11.332031 9.839844 9.839844 11.332031 8 11.332031 C 6.160156 11.332031 4.667969 9.839844 4.667969 8 Z M 4.667969 8 "/>
</g>
</svg>
