<?xml version="1.0" encoding="UTF-8"?>
<svg xmlns="http://www.w3.org/2000/svg" xmlns:xlink="http://www.w3.org/1999/xlink" width="16" height="16" viewBox="0 0 16 16" version="1.1">
<g id="surface1">
<path style=" stroke:none;fill-rule:nonzero;fill:rgb(100%,100%,100%);fill-opacity:1;" d="M 12.105469 6.667969 C 11.542969 5.066406 10.027344 3.996094 8.332031 3.996094 C 6.636719 3.996094 5.125 5.066406 4.558594 6.667969 Z M 4.386719 8.667969 C 4.667969 10.320312 5.953125 11.625 7.601562 11.929688 C 9.253906 12.238281 10.917969 11.480469 11.773438 10.039062 L 13.976562 10.039062 C 13.402344 11.632812 12.179688 12.910156 10.609375 13.554688 C 9.039062 14.195312 7.269531 14.144531 5.742188 13.414062 C 3.910156 14.40625 2.332031 14.613281 1.460938 13.742188 C 0.5625 12.847656 1.042969 10.507812 2.335938 8.160156 C 2.8125 7.292969 3.371094 6.476562 4 5.714844 C 4.242188 5.425781 4.492188 5.148438 4.75 4.878906 C 4.566406 4.917969 3.496094 5.449219 2.476562 6.691406 C 3.128906 3.78125 5.816406 1.792969 8.789062 2.015625 C 10.851562 1.082031 12.769531 0.867188 13.582031 1.675781 C 14.332031 2.425781 14.292969 3.675781 13.667969 5.171875 C 13.660156 5.1875 13.65625 5.199219 13.648438 5.214844 C 14.101562 6.074219 14.335938 7.03125 14.332031 8 C 14.332031 8.226562 14.320312 8.449219 14.296875 8.667969 Z M 5.335938 13.199219 C 4.109375 12.488281 3.171875 11.371094 2.6875 10.039062 C 1.914062 11.558594 1.714844 12.832031 2.375 13.492188 C 2.917969 14.03125 4 13.90625 5.335938 13.199219 Z M 13.449219 4.863281 C 13.453125 4.855469 13.453125 4.847656 13.457031 4.839844 C 13.957031 3.757812 14 2.84375 13.542969 2.300781 C 12.960938 1.722656 11.847656 1.800781 10.527344 2.414062 C 11.738281 2.890625 12.765625 3.75 13.449219 4.863281 Z M 13.449219 4.863281 "/>
</g>
</svg>
