<?xml version="1.0" encoding="UTF-8"?>
<svg xmlns="http://www.w3.org/2000/svg" xmlns:xlink="http://www.w3.org/1999/xlink" width="16" height="16" viewBox="0 0 16 16" version="1.1">
<g id="surface1">
<path style=" stroke:none;fill-rule:nonzero;fill:rgb(100%,100%,100%);fill-opacity:1;" d="M 7.898438 15.996094 C 11.382812 16.089844 14.683594 13.671875 15.648438 10.320312 C 15.648438 10.320312 15.648438 10.3125 15.648438 10.3125 C 16.714844 6.972656 15.296875 3.117188 12.320312 1.269531 C 9.40625 -0.664062 5.320312 -0.355469 2.722656 1.984375 C 0.0546875 4.257812 -0.773438 8.285156 0.773438 11.429688 C 2.039062 14.152344 4.878906 15.976562 7.882812 15.996094 Z M 7.914062 15 C 7.910156 15 7.90625 15 7.898438 15 C 5.289062 14.992188 2.769531 13.367188 1.671875 11 C 1.671875 11 1.671875 10.992188 1.664062 10.992188 C 0.328125 8.28125 1.070312 4.695312 3.375 2.738281 C 3.382812 2.734375 3.382812 2.730469 3.382812 2.726562 C 5.617188 0.703125 9.253906 0.4375 11.765625 2.101562 C 11.765625 2.105469 11.773438 2.109375 11.78125 2.109375 C 14.351562 3.703125 15.617188 7.140625 14.695312 10.015625 C 14.695312 10.023438 14.691406 10.027344 14.6875 10.03125 C 13.859375 12.929688 10.921875 15.085938 7.910156 15 Z M 9 13 L 9 11 L 7 11 L 7 13 Z M 9 9 L 9 3 L 7 3 L 7 9 Z M 9 9 "/>
</g>
</svg>
