<?xml version="1.0" encoding="UTF-8"?>
<svg xmlns="http://www.w3.org/2000/svg" xmlns:xlink="http://www.w3.org/1999/xlink" width="16" height="16" viewBox="0 0 16 16" version="1.1">
<g id="surface1">
<path style=" stroke:none;fill-rule:nonzero;fill:rgb(100%,100%,100%);fill-opacity:1;" d="M 2 2 L 14 2 C 14.367188 2 14.667969 2.296875 14.667969 2.667969 L 14.667969 13.332031 C 14.667969 13.703125 14.367188 14 14 14 L 2 14 C 1.632812 14 1.332031 13.703125 1.332031 13.332031 L 1.332031 2.667969 C 1.332031 2.296875 1.632812 2 2 2 Z M 13.332031 9.332031 L 11.054688 9.332031 C 10.527344 10.546875 9.324219 11.335938 8 11.335938 C 6.675781 11.335938 5.472656 10.546875 4.945312 9.332031 L 2.667969 9.332031 L 2.667969 12.667969 L 13.332031 12.667969 Z M 13.332031 8 L 13.332031 3.332031 L 2.667969 3.332031 L 2.667969 8 L 6 8 C 6 9.105469 6.894531 10 8 10 C 9.105469 10 10 9.105469 10 8 Z M 13.332031 8 "/>
</g>
</svg>
