<?xml version="1.0" encoding="UTF-8"?>
<svg xmlns="http://www.w3.org/2000/svg" xmlns:xlink="http://www.w3.org/1999/xlink" width="16" height="16" viewBox="0 0 16 16" version="1.1">
<g id="surface1">
<path style=" stroke:none;fill-rule:nonzero;fill:rgb(100%,100%,100%);fill-opacity:1;" d="M 3.5 2 C 3.292969 2 3.109375 2.128906 3.035156 2.324219 L 0.03125 10.328125 C 0.015625 10.382812 0.00390625 10.445312 0.00390625 10.503906 L 0.00390625 13.5 C 0 13.777344 0.226562 14.003906 0.503906 14 L 15.503906 14 C 15.78125 14 16 13.773438 16 13.5 L 16 10.503906 C 16 10.445312 15.992188 10.382812 15.96875 10.328125 L 12.972656 2.324219 C 12.898438 2.125 12.710938 1.996094 12.5 2 Z M 4.351562 3.5 L 11.664062 3.5 L 14 9.5 L 9.921875 9.5 C 9.640625 9.5 9.417969 9.726562 9.417969 10 L 9.417969 10.496094 L 6.421875 10.496094 L 6.421875 10 C 6.421875 9.726562 6.199219 9.5 5.921875 9.5 L 2.074219 9.5 Z M 4.351562 3.5 "/>
</g>
</svg>
