<?xml version="1.0" encoding="UTF-8"?>
<svg xmlns="http://www.w3.org/2000/svg" xmlns:xlink="http://www.w3.org/1999/xlink" width="16" height="16" viewBox="0 0 16 16" version="1.1">
<g id="surface1">
<path style=" stroke:none;fill-rule:nonzero;fill:rgb(100%,100%,100%);fill-opacity:1;" d="M 10.667969 6 L 13.582031 7.164062 C 13.835938 7.265625 14 7.511719 14 7.785156 L 14 14 C 14 14.367188 13.703125 14.667969 13.332031 14.667969 L 2.667969 14.667969 C 2.296875 14.667969 2 14.367188 2 14 L 2 7.785156 C 2 7.511719 2.164062 7.265625 2.417969 7.164062 L 5.332031 6 Z M 10.410156 7.332031 L 5.589844 7.332031 L 3.332031 8.234375 L 3.332031 13.332031 L 12.667969 13.332031 L 12.667969 12.667969 L 5.332031 12.667969 L 5.332031 9.332031 L 12.667969 9.332031 L 12.667969 8.234375 Z M 10.667969 2 C 11.035156 2 11.332031 2.296875 11.332031 2.667969 L 11.332031 5.332031 L 4.667969 5.332031 L 4.667969 2.667969 C 4.667969 2.296875 4.964844 2 5.332031 2 Z M 10 3.332031 L 6 3.332031 L 6 4 L 10 4 Z M 10 3.332031 "/>
</g>
</svg>
