<?xml version="1.0" encoding="UTF-8"?>
<svg xmlns="http://www.w3.org/2000/svg" xmlns:xlink="http://www.w3.org/1999/xlink" width="16" height="16" viewBox="0 0 16 16" version="1.1">
<g id="surface1">
<path style=" stroke:none;fill-rule:nonzero;fill:rgb(100%,100%,100%);fill-opacity:1;" d="M 6.667969 2 C 7.035156 2 7.332031 2.296875 7.332031 2.667969 L 7.332031 13.332031 C 7.332031 13.703125 7.035156 14 6.667969 14 L 2.667969 14 C 2.296875 14 2 13.703125 2 13.332031 L 2 2.667969 C 2 2.296875 2.296875 2 2.667969 2 Z M 6 3.332031 L 3.332031 3.332031 L 3.332031 12.667969 L 6 12.667969 Z M 12 4.667969 C 13.839844 4.667969 15.332031 6.160156 15.332031 8 C 15.332031 9.839844 13.839844 11.332031 12 11.332031 C 10.160156 11.332031 8.667969 9.839844 8.667969 8 C 8.667969 6.160156 10.160156 4.667969 12 4.667969 Z M 12.667969 6 L 11.332031 6 L 11.332031 7.332031 L 10 7.332031 L 10 8.667969 L 11.332031 8.664062 L 11.332031 10 L 12.667969 10 L 12.667969 8.664062 L 14 8.667969 L 14 7.332031 L 12.667969 7.332031 Z M 12.667969 6 "/>
</g>
</svg>
