<?xml version="1.0" encoding="UTF-8"?>
<svg xmlns="http://www.w3.org/2000/svg" xmlns:xlink="http://www.w3.org/1999/xlink" width="16" height="16" viewBox="0 0 16 16" version="1.1">
<g id="surface1">
<path style=" stroke:none;fill-rule:nonzero;fill:rgb(100%,100%,100%);fill-opacity:1;" d="M 3 3 C 3 3 0.703125 8.070312 0.0703125 10.617188 C -0.5625 13.171875 3.265625 13.882812 4.335938 11.707031 L 5.398438 9.53125 L 10.601562 9.53125 L 11.664062 11.707031 C 12.734375 13.882812 16.5625 13.171875 15.929688 10.617188 C 15.296875 8.070312 13 3 13 3 L 10 3 L 10 4 L 6 4 L 6 3 Z M 10.984375 4.25 C 10.992188 4.25 10.996094 4.25 11 4.25 C 11.414062 4.25 11.75 4.585938 11.75 5 C 11.75 5.414062 11.414062 5.75 11 5.75 C 10.585938 5.75 10.25 5.414062 10.25 5 C 10.25 4.59375 10.578125 4.257812 10.984375 4.25 Z M 4 5 L 5 5 L 5 6 L 6 6 L 6 7 L 5 7 L 5 8 L 4 8 L 4 7 L 3 7 L 3 6 L 4 6 Z M 9.484375 5.75 C 9.492188 5.75 9.496094 5.75 9.5 5.75 C 9.914062 5.75 10.25 6.085938 10.25 6.5 C 10.25 6.914062 9.914062 7.25 9.5 7.25 C 9.085938 7.25 8.75 6.914062 8.75 6.5 C 8.75 6.09375 9.078125 5.757812 9.484375 5.75 Z M 12.484375 5.75 C 12.492188 5.75 12.496094 5.75 12.5 5.75 C 12.914062 5.75 13.25 6.085938 13.25 6.5 C 13.25 6.914062 12.914062 7.25 12.5 7.25 C 12.085938 7.25 11.75 6.914062 11.75 6.5 C 11.75 6.09375 12.078125 5.757812 12.484375 5.75 Z M 10.984375 7.25 C 10.992188 7.25 10.996094 7.25 11 7.25 C 11.414062 7.25 11.75 7.585938 11.75 8 C 11.75 8.414062 11.414062 8.75 11 8.75 C 10.585938 8.75 10.25 8.414062 10.25 8 C 10.25 7.59375 10.578125 7.257812 10.984375 7.25 Z M 10.984375 7.25 "/>
</g>
</svg>
