<?xml version="1.0" encoding="UTF-8"?>
<svg xmlns="http://www.w3.org/2000/svg" xmlns:xlink="http://www.w3.org/1999/xlink" width="16" height="16" viewBox="0 0 16 16" version="1.1">
<g id="surface1">
<path style=" stroke:none;fill-rule:nonzero;fill:rgb(100%,100%,100%);fill-opacity:1;" d="M 7.171875 7.886719 L 12.40625 2.652344 L 13.347656 3.59375 L 12.40625 4.539062 L 14.054688 6.1875 L 13.113281 7.132812 L 11.460938 5.480469 L 10.519531 6.425781 L 11.933594 7.839844 L 10.988281 8.78125 L 9.574219 7.367188 L 8.113281 8.828125 C 9.054688 10.253906 8.761719 12.164062 7.4375 13.242188 C 6.113281 14.324219 4.1875 14.230469 2.976562 13.023438 C 1.761719 11.816406 1.664062 9.882812 2.746094 8.554688 C 3.832031 7.226562 5.746094 6.9375 7.171875 7.886719 Z M 6.746094 12.082031 C 7.277344 11.582031 7.492188 10.832031 7.308594 10.128906 C 7.128906 9.421875 6.578125 8.871094 5.871094 8.691406 C 5.167969 8.507812 4.421875 8.722656 3.921875 9.253906 C 3.160156 10.039062 3.171875 11.285156 3.945312 12.058594 C 4.714844 12.828125 5.964844 12.839844 6.746094 12.082031 Z M 6.746094 12.082031 "/>
</g>
</svg>
