<?xml version="1.0" encoding="UTF-8"?>
<svg xmlns="http://www.w3.org/2000/svg" xmlns:xlink="http://www.w3.org/1999/xlink" width="16" height="16" viewBox="0 0 16 16" version="1.1">
<g id="surface1">
<path style=" stroke:none;fill-rule:evenodd;fill:rgb(100%,100%,100%);fill-opacity:1;" d="M 1 2.5 C 0.445312 2.5 0 2.945312 0 3.5 L 0 12.5 C 0 13.054688 0.445312 13.5 1 13.5 L 15 13.5 C 15.554688 13.5 16 13.054688 16 12.5 L 16 3.5 C 16 2.945312 15.554688 2.5 15 2.5 Z M 1.546875 4 L 2.453125 4 C 2.757812 4 3 4.242188 3 4.546875 L 3 5.453125 C 3 5.757812 2.757812 6 2.453125 6 L 1.546875 6 C 1.242188 6 1 5.757812 1 5.453125 L 1 4.546875 C 1 4.242188 1.242188 4 1.546875 4 Z M 4.546875 4 L 5.453125 4 C 5.757812 4 6 4.242188 6 4.546875 L 6 5.453125 C 6 5.757812 5.757812 6 5.453125 6 L 4.546875 6 C 4.242188 6 4 5.757812 4 5.453125 L 4 4.546875 C 4 4.242188 4.242188 4 4.546875 4 Z M 7.546875 4 L 8.453125 4 C 8.757812 4 9 4.242188 9 4.546875 L 9 5.453125 C 9 5.757812 8.757812 6 8.453125 6 L 7.546875 6 C 7.242188 6 7 5.757812 7 5.453125 L 7 4.546875 C 7 4.242188 7.242188 4 7.546875 4 Z M 10.546875 4 L 11.453125 4 C 11.757812 4 12 4.242188 12 4.546875 L 12 5.453125 C 12 5.757812 11.757812 6 11.453125 6 L 10.546875 6 C 10.242188 6 10 5.757812 10 5.453125 L 10 4.546875 C 10 4.242188 10.242188 4 10.546875 4 Z M 13.546875 4 L 14.453125 4 C 14.757812 4 15 4.242188 15 4.546875 L 15 5.453125 C 15 5.757812 14.757812 6 14.453125 6 L 13.546875 6 C 13.242188 6 13 5.757812 13 5.453125 L 13 4.546875 C 13 4.242188 13.242188 4 13.546875 4 Z M 2.546875 7 L 3.453125 7 C 3.757812 7 4 7.242188 4 7.546875 L 4 8.453125 C 4 8.757812 3.757812 9 3.453125 9 L 2.546875 9 C 2.242188 9 2 8.757812 2 8.453125 L 2 7.546875 C 2 7.242188 2.242188 7 2.546875 7 Z M 5.546875 7 L 6.453125 7 C 6.757812 7 7 7.242188 7 7.546875 L 7 8.453125 C 7 8.757812 6.757812 9 6.453125 9 L 5.546875 9 C 5.242188 9 5 8.757812 5 8.453125 L 5 7.546875 C 5 7.242188 5.242188 7 5.546875 7 Z M 8.546875 7 L 9.453125 7 C 9.757812 7 10 7.242188 10 7.546875 L 10 8.453125 C 10 8.757812 9.757812 9 9.453125 9 L 8.546875 9 C 8.242188 9 8 8.757812 8 8.453125 L 8 7.546875 C 8 7.242188 8.242188 7 8.546875 7 Z M 11.546875 7 L 14.453125 7 C 14.757812 7 15 7.242188 15 7.546875 L 15 8.453125 C 15 8.757812 14.757812 9 14.453125 9 L 11.546875 9 C 11.242188 9 11 8.757812 11 8.453125 L 11 7.546875 C 11 7.242188 11.242188 7 11.546875 7 Z M 1.546875 10 L 2.453125 10 C 2.757812 10 3 10.242188 3 10.546875 L 3 11.453125 C 3 11.757812 2.757812 12 2.453125 12 L 1.546875 12 C 1.242188 12 1 11.757812 1 11.453125 L 1 10.546875 C 1 10.242188 1.242188 10 1.546875 10 Z M 4.546875 10 L 11.453125 10 C 11.757812 10 12 10.242188 12 10.546875 L 12 11.453125 C 12 11.757812 11.757812 12 11.453125 12 L 4.546875 12 C 4.242188 12 4 11.757812 4 11.453125 L 4 10.546875 C 4 10.242188 4.242188 10 4.546875 10 Z M 13.546875 10 L 14.453125 10 C 14.757812 10 15 10.242188 15 10.546875 L 15 11.453125 C 15 11.757812 14.757812 12 14.453125 12 L 13.546875 12 C 13.242188 12 13 11.757812 13 11.453125 L 13 10.546875 C 13 10.242188 13.242188 10 13.546875 10 Z M 13.546875 10 "/>
</g>
</svg>
