<?xml version="1.0" encoding="UTF-8"?>
<svg xmlns="http://www.w3.org/2000/svg" xmlns:xlink="http://www.w3.org/1999/xlink" width="16" height="16" viewBox="0 0 16 16" version="1.1">
<g id="surface1">
<path style=" stroke:none;fill-rule:nonzero;fill:rgb(100%,100%,100%);fill-opacity:1;" d="M 2.894531 0.9375 L 14.914062 12.960938 C 15.304688 13.351562 15.304688 13.984375 14.914062 14.375 C 14.523438 14.765625 13.890625 14.765625 13.5 14.375 L 10.4375 11.308594 L 8.078125 13.667969 L 5.332031 10.921875 L 5.332031 12.667969 C 5.332031 13.035156 5.035156 13.332031 4.667969 13.332031 C 4.296875 13.332031 4 13.035156 4 12.667969 L 4 10 C 4 9.648438 3.722656 9.355469 3.371094 9.335938 C 3.019531 9.316406 2.714844 9.570312 2.671875 9.921875 L 2.667969 10 L 2.667969 10.667969 C 2.667969 11.035156 2.367188 11.332031 2 11.332031 C 1.632812 11.332031 1.332031 11.035156 1.332031 10.667969 L 1.332031 4.808594 C 1.304688 3.417969 1.824219 2.070312 2.777344 1.058594 Z M 2.894531 0.9375 "/>
</g>
</svg>
