<?xml version="1.0" encoding="UTF-8"?>
<svg xmlns="http://www.w3.org/2000/svg" xmlns:xlink="http://www.w3.org/1999/xlink" width="16" height="16" viewBox="0 0 16 16" version="1.1">
<g id="surface1">
<path style=" stroke:none;fill-rule:nonzero;fill:rgb(100%,100%,100%);fill-opacity:1;" d="M 3.265625 0.75 C 2.304688 0.75 1.519531 1.539062 1.519531 2.5 L 1.519531 10.5 C 1.519531 10.640625 1.539062 10.773438 1.570312 10.90625 C 1.53125 10.9375 1.488281 10.957031 1.453125 10.992188 C 1.453125 10.996094 1.445312 10.992188 1.445312 10.992188 C 1.433594 11.007812 1.421875 11.027344 1.414062 11.046875 C 1.410156 11.054688 1.40625 11.0625 1.398438 11.070312 C 1.375 11.101562 1.34375 11.128906 1.328125 11.164062 L 0 13.828125 L 0 15.015625 L -0.00390625 15.5 C -0.00390625 15.632812 0.0507812 15.757812 0.144531 15.851562 C 0.238281 15.945312 0.367188 16 0.5 16 L 15.5 16 C 15.632812 16 15.757812 15.945312 15.851562 15.851562 C 15.945312 15.757812 16 15.632812 16 15.5 L 16 13.816406 L 14.671875 11.164062 C 14.625 11.0625 14.546875 10.984375 14.460938 10.914062 C 14.492188 10.78125 14.515625 10.644531 14.515625 10.5 L 14.515625 2.5 C 14.515625 1.539062 13.730469 0.75 12.769531 0.75 Z M 3.265625 2.253906 L 12.769531 2.253906 C 12.929688 2.253906 13.011719 2.335938 13.011719 2.5 L 13.011719 10.5 C 13.011719 10.664062 12.929688 10.75 12.769531 10.75 L 3.265625 10.75 C 3.105469 10.75 3.007812 10.65625 3.007812 10.5 L 3.007812 2.5 C 3.007812 2.339844 3.105469 2.253906 3.265625 2.253906 Z M 2.460938 12.25 L 13.539062 12.25 L 14.28125 13.75 L 1.710938 13.75 Z M 3 12.496094 C 2.859375 12.496094 2.726562 12.554688 2.632812 12.664062 C 2.546875 12.753906 2.5 12.875 2.5 13 C 2.5 13.132812 2.550781 13.257812 2.644531 13.351562 C 2.742188 13.445312 2.867188 13.5 3 13.5 L 13 13.503906 C 13.132812 13.503906 13.261719 13.453125 13.355469 13.359375 C 13.449219 13.265625 13.5 13.132812 13.5 13 C 13.5 12.867188 13.449219 12.742188 13.355469 12.648438 C 13.261719 12.554688 13.132812 12.5 13 12.5 Z M 3 12.496094 "/>
</g>
</svg>
