<?xml version="1.0" encoding="UTF-8"?>
<svg xmlns="http://www.w3.org/2000/svg" xmlns:xlink="http://www.w3.org/1999/xlink" width="16" height="16" viewBox="0 0 16 16" version="1.1">
<g id="surface1">
<path style=" stroke:none;fill-rule:nonzero;fill:rgb(100%,100%,100%);fill-opacity:1;" d="M 8.207031 0.0117188 C 8.113281 0.015625 8.023438 0.0234375 7.929688 0.0390625 C 7.234375 0.171875 6.609375 0.695312 6.234375 1.34375 C 5.757812 1.578125 5.335938 1.867188 5.035156 2.296875 C 4.722656 2.75 4.566406 3.335938 4.570312 4.070312 C 4.570312 4.082031 4.5625 4.085938 4.5625 4.101562 C 4.15625 4.65625 3.90625 5.210938 3.964844 5.703125 C 4.03125 6.257812 4.371094 6.703125 4.796875 7.023438 C 5.523438 7.5625 6.484375 7.582031 7.289062 7.378906 L 7.289062 8.9375 L 6.203125 10.015625 L 10.261719 10.015625 L 9.183594 8.9375 L 9.183594 7.328125 C 9.277344 7.351562 9.371094 7.351562 9.464844 7.367188 C 9.558594 7.382812 9.648438 7.398438 9.742188 7.40625 C 10.5625 7.476562 11.320312 7.277344 11.703125 6.640625 C 12.234375 5.75 12.191406 4.476562 11.265625 3.519531 C 11.28125 2.820312 11.121094 2.296875 10.816406 1.929688 C 10.511719 1.566406 10.097656 1.382812 9.695312 1.21875 C 9.523438 0.800781 9.3125 0.4375 9.023438 0.25 C 8.769531 0.0820312 8.484375 0.0078125 8.207031 0.0117188 Z M 8.207031 0.0117188 "/>
<path style=" stroke:none;fill-rule:evenodd;fill:rgb(100%,100%,100%);fill-opacity:1;" d="M 2 11 C 0.890625 11 0 11.890625 0 13 L 0 14 C 0 15.109375 0.890625 16 2 16 L 14 16 C 15.109375 16 16 15.109375 16 14 L 16 13 C 16 11.890625 15.109375 11 14 11 Z M 12 12 L 14 12 C 14.554688 12 15 12.445312 15 13 L 15 14 C 15 14.554688 14.554688 15 14 15 L 12 15 Z M 12 12 "/>
</g>
</svg>
