<?xml version="1.0" encoding="UTF-8"?>
<svg xmlns="http://www.w3.org/2000/svg" xmlns:xlink="http://www.w3.org/1999/xlink" width="16" height="16" viewBox="0 0 16 16" version="1.1">
<g id="surface1">
<path style=" stroke:none;fill-rule:nonzero;fill:rgb(100%,100%,100%);fill-opacity:1;" d="M 7.671875 0 C 7.496094 1.507812 6.851562 2.882812 6.21875 3.921875 C 5.582031 4.960938 4.921875 5.890625 4.933594 7.046875 C 4.945312 8.179688 5.59375 8.921875 6.261719 9.308594 C 6.914062 9.695312 7.578125 9.804688 8 9.757812 C 8.421875 9.804688 9.085938 9.695312 9.738281 9.308594 C 10.40625 8.921875 11.054688 8.179688 11.066406 7.046875 C 11.078125 5.890625 10.417969 4.960938 9.78125 3.921875 C 9.148438 2.882812 8.503906 1.507812 8.328125 0 Z M 7.671875 0 "/>
<path style=" stroke:none;fill-rule:evenodd;fill:rgb(100%,100%,100%);fill-opacity:1;" d="M 2 11 C 0.890625 11 0 11.890625 0 13 L 0 14 C 0 15.109375 0.890625 16 2 16 L 14 16 C 15.109375 16 16 15.109375 16 14 L 16 13 C 16 11.890625 15.109375 11 14 11 Z M 12 12 L 14 12 C 14.554688 12 15 12.445312 15 13 L 15 14 C 15 14.554688 14.554688 15 14 15 L 12 15 Z M 12 12 "/>
</g>
</svg>
