<?xml version="1.0" encoding="UTF-8"?>
<svg xmlns="http://www.w3.org/2000/svg" xmlns:xlink="http://www.w3.org/1999/xlink" width="16" height="16" viewBox="0 0 16 16" version="1.1">
<g id="surface1">
<path style=" stroke:none;fill-rule:nonzero;fill:rgb(100%,100%,100%);fill-opacity:1;" d="M 14.667969 7.125 C 14.667969 8.316406 14.207031 9.394531 13.25 10.441406 C 11.851562 12.050781 8.726562 14.019531 8.007812 14.316406 C 7.292969 14.617188 7.402344 14.125 7.425781 13.960938 L 7.515625 13.394531 C 7.539062 13.21875 7.5625 12.960938 7.496094 12.792969 C 7.421875 12.609375 7.125 12.511719 6.910156 12.464844 C 3.707031 12.039062 1.332031 9.800781 1.332031 7.125 C 1.332031 4.144531 4.324219 1.714844 8 1.714844 C 11.675781 1.714844 14.667969 4.144531 14.667969 7.125 Z M 12.265625 9.542969 C 13.007812 8.730469 13.332031 7.96875 13.332031 7.125 C 13.332031 4.949219 10.992188 3.046875 8 3.046875 C 5.007812 3.046875 2.667969 4.949219 2.667969 7.125 C 2.667969 9.0625 4.484375 10.796875 7.085938 11.144531 L 7.183594 11.160156 C 7.902344 11.3125 8.4375 11.570312 8.734375 12.296875 L 8.757812 12.363281 C 9.960938 11.578125 11.542969 10.375 12.265625 9.542969 Z M 12.09375 6.875 C 12.277344 6.886719 12.421875 7.042969 12.421875 7.226562 C 12.421875 7.410156 12.277344 7.566406 12.09375 7.578125 L 11.117188 7.578125 L 11.117188 8.203125 L 12.089844 8.203125 C 12.21875 8.195312 12.339844 8.261719 12.40625 8.371094 C 12.472656 8.484375 12.472656 8.621094 12.40625 8.730469 C 12.339844 8.839844 12.21875 8.90625 12.089844 8.902344 L 10.765625 8.902344 C 10.574219 8.898438 10.417969 8.742188 10.417969 8.550781 L 10.417969 5.902344 C 10.417969 5.710938 10.574219 5.550781 10.769531 5.550781 L 12.09375 5.550781 C 12.289062 5.550781 12.445312 5.710938 12.441406 5.902344 C 12.441406 6.09375 12.285156 6.25 12.09375 6.25 L 11.117188 6.25 L 11.117188 6.875 Z M 9.949219 8.550781 C 9.949219 8.746094 9.792969 8.902344 9.597656 8.898438 C 9.488281 8.902344 9.382812 8.851562 9.316406 8.761719 L 7.957031 6.917969 L 7.957031 8.550781 C 7.945312 8.734375 7.792969 8.875 7.609375 8.875 C 7.425781 8.875 7.273438 8.734375 7.261719 8.550781 L 7.261719 5.902344 C 7.261719 5.710938 7.414062 5.554688 7.605469 5.550781 C 7.714844 5.550781 7.816406 5.609375 7.882812 5.691406 L 9.25 7.542969 L 9.25 5.902344 C 9.25 5.710938 9.40625 5.550781 9.601562 5.550781 C 9.792969 5.550781 9.949219 5.710938 9.949219 5.902344 Z M 6.761719 8.550781 C 6.757812 8.746094 6.601562 8.902344 6.410156 8.902344 C 6.21875 8.898438 6.0625 8.746094 6.0625 8.550781 L 6.0625 5.902344 C 6.0625 5.710938 6.21875 5.550781 6.410156 5.550781 C 6.605469 5.550781 6.761719 5.710938 6.761719 5.902344 Z M 5.390625 8.902344 L 4.066406 8.902344 C 3.871094 8.898438 3.714844 8.746094 3.714844 8.550781 L 3.714844 5.902344 C 3.730469 5.71875 3.882812 5.582031 4.066406 5.582031 C 4.246094 5.582031 4.398438 5.71875 4.414062 5.902344 L 4.414062 8.203125 L 5.390625 8.203125 C 5.582031 8.203125 5.742188 8.359375 5.742188 8.550781 C 5.742188 8.746094 5.582031 8.902344 5.390625 8.902344 Z M 5.390625 8.902344 "/>
</g>
</svg>
