<?xml version="1.0" encoding="UTF-8"?>
<svg xmlns="http://www.w3.org/2000/svg" xmlns:xlink="http://www.w3.org/1999/xlink" width="16" height="16" viewBox="0 0 16 16" version="1.1">
<g id="surface1">
<path style=" stroke:none;fill-rule:nonzero;fill:rgb(100%,100%,100%);fill-opacity:1;" d="M 12.222656 12.226562 L 10.445312 12.226562 L 10.445312 9.441406 C 10.445312 8.777344 10.433594 7.921875 9.519531 7.921875 C 8.59375 7.921875 8.453125 8.644531 8.453125 9.394531 L 8.453125 12.226562 L 6.675781 12.226562 L 6.675781 6.5 L 8.382812 6.5 L 8.382812 7.28125 L 8.40625 7.28125 C 8.644531 6.832031 9.222656 6.355469 10.089844 6.355469 C 11.890625 6.355469 12.222656 7.539062 12.222656 9.082031 Z M 4.667969 5.714844 C 4.394531 5.71875 4.132812 5.609375 3.9375 5.414062 C 3.746094 5.222656 3.636719 4.957031 3.636719 4.683594 C 3.636719 4.113281 4.097656 3.652344 4.667969 3.652344 C 5.238281 3.652344 5.699219 4.117188 5.699219 4.683594 C 5.699219 5.253906 5.238281 5.71875 4.667969 5.714844 Z M 5.558594 12.226562 L 3.777344 12.226562 L 3.777344 6.5 L 5.558594 6.5 Z M 13.113281 2 L 2.886719 2 C 2.394531 2 2 2.386719 2 2.863281 L 2 13.136719 C 2 13.613281 2.394531 14 2.886719 14 L 13.109375 14 C 13.601562 14 14 13.613281 14 13.136719 L 14 2.863281 C 14 2.386719 13.601562 2 13.109375 2 Z M 13.113281 2 "/>
</g>
</svg>
