<?xml version="1.0" encoding="UTF-8"?>
<svg xmlns="http://www.w3.org/2000/svg" xmlns:xlink="http://www.w3.org/1999/xlink" width="16" height="16" viewBox="0 0 16 16" version="1.1">
<g id="surface1">
<path style=" stroke:none;fill-rule:nonzero;fill:rgb(100%,100%,100%);fill-opacity:1;" d="M 8 6.367188 C 8.613281 5.742188 9.40625 5.332031 10.332031 5.332031 C 12.359375 5.332031 14 6.976562 14 9 L 14 14 L 12.667969 14 L 12.667969 9 C 12.667969 7.710938 11.621094 6.667969 10.332031 6.667969 C 9.042969 6.667969 8 7.710938 8 9 L 8 14 L 6.667969 14 L 6.667969 5.667969 L 8 5.667969 Z M 3.332031 4.332031 C 2.78125 4.332031 2.332031 3.886719 2.332031 3.332031 C 2.332031 2.78125 2.78125 2.332031 3.332031 2.332031 C 3.886719 2.332031 4.332031 2.78125 4.332031 3.332031 C 4.332031 3.886719 3.886719 4.332031 3.332031 4.332031 Z M 2.667969 5.667969 L 4 5.667969 L 4 14 L 2.667969 14 Z M 2.667969 5.667969 "/>
</g>
</svg>
