<?xml version="1.0" encoding="UTF-8"?>
<svg xmlns="http://www.w3.org/2000/svg" xmlns:xlink="http://www.w3.org/1999/xlink" width="16" height="16" viewBox="0 0 16 16" version="1.1">
<g id="surface1">
<path style=" stroke:none;fill-rule:nonzero;fill:rgb(100%,100%,100%);fill-opacity:1;" d="M 12.242188 10.355469 L 11.300781 9.414062 L 12.242188 8.46875 C 13.089844 7.628906 13.425781 6.398438 13.117188 5.246094 C 12.808594 4.089844 11.90625 3.191406 10.753906 2.882812 C 9.601562 2.574219 8.371094 2.910156 7.527344 3.757812 L 6.585938 4.699219 L 5.644531 3.757812 L 6.585938 2.816406 C 8.410156 0.992188 11.363281 0.992188 13.1875 2.816406 C 15.007812 4.636719 15.007812 7.59375 13.1875 9.414062 Z M 10.355469 12.242188 L 9.414062 13.183594 C 7.589844 15.007812 4.636719 15.007812 2.8125 13.183594 C 0.992188 11.363281 0.992188 8.40625 2.8125 6.585938 L 3.757812 5.644531 L 4.699219 6.585938 L 3.757812 7.53125 C 2.910156 8.371094 2.574219 9.601562 2.882812 10.753906 C 3.191406 11.910156 4.09375 12.808594 5.246094 13.117188 C 6.398438 13.425781 7.628906 13.089844 8.472656 12.242188 L 9.414062 11.300781 Z M 9.886719 5.171875 L 10.828125 6.113281 L 6.113281 10.828125 L 5.171875 9.886719 Z M 9.886719 5.171875 "/>
</g>
</svg>
