<?xml version="1.0" encoding="UTF-8"?>
<svg xmlns="http://www.w3.org/2000/svg" xmlns:xlink="http://www.w3.org/1999/xlink" width="16" height="16" viewBox="0 0 16 16" version="1.1">
<g id="surface1">
<path style=" stroke:none;fill-rule:nonzero;fill:rgb(100%,100%,100%);fill-opacity:1;" d="M 8 1.332031 C 8.367188 1.332031 8.667969 1.632812 8.667969 2 L 8.667969 4 C 8.667969 4.367188 8.367188 4.667969 8 4.667969 C 7.632812 4.667969 7.332031 4.367188 7.332031 4 L 7.332031 2 C 7.332031 1.632812 7.632812 1.332031 8 1.332031 Z M 8 11.332031 C 8.367188 11.332031 8.667969 11.632812 8.667969 12 L 8.667969 14 C 8.667969 14.367188 8.367188 14.667969 8 14.667969 C 7.632812 14.667969 7.332031 14.367188 7.332031 14 L 7.332031 12 C 7.332031 11.632812 7.632812 11.332031 8 11.332031 Z M 13.773438 4.667969 C 13.957031 4.984375 13.847656 5.394531 13.53125 5.578125 L 11.796875 6.578125 C 11.589844 6.699219 11.335938 6.699219 11.128906 6.582031 C 10.921875 6.460938 10.792969 6.238281 10.792969 6 C 10.792969 5.761719 10.921875 5.539062 11.128906 5.421875 L 12.863281 4.421875 C 13.179688 4.238281 13.589844 4.347656 13.773438 4.667969 Z M 5.113281 9.667969 C 5.296875 9.984375 5.1875 10.394531 4.871094 10.578125 L 3.136719 11.578125 C 2.929688 11.699219 2.675781 11.699219 2.46875 11.582031 C 2.261719 11.460938 2.132812 11.238281 2.132812 11 C 2.132812 10.761719 2.261719 10.539062 2.46875 10.421875 L 4.203125 9.421875 C 4.523438 9.238281 4.929688 9.347656 5.113281 9.667969 Z M 13.773438 11.332031 C 13.589844 11.652344 13.179688 11.761719 12.863281 11.578125 L 11.128906 10.578125 C 10.816406 10.390625 10.707031 9.984375 10.890625 9.667969 C 11.074219 9.351562 11.480469 9.242188 11.796875 9.421875 L 13.53125 10.421875 C 13.847656 10.605469 13.957031 11.015625 13.773438 11.332031 Z M 5.113281 6.332031 C 4.929688 6.652344 4.523438 6.761719 4.203125 6.578125 L 2.46875 5.578125 C 2.261719 5.460938 2.132812 5.238281 2.132812 5 C 2.132812 4.761719 2.261719 4.539062 2.46875 4.417969 C 2.675781 4.300781 2.929688 4.300781 3.136719 4.421875 L 4.871094 5.421875 C 5.1875 5.605469 5.296875 6.015625 5.113281 6.332031 Z M 5.113281 6.332031 "/>
</g>
</svg>
