<?xml version="1.0" encoding="UTF-8"?>
<svg xmlns="http://www.w3.org/2000/svg" xmlns:xlink="http://www.w3.org/1999/xlink" width="16" height="16" viewBox="0 0 16 16" version="1.1">
<g id="surface1">
<path style=" stroke:none;fill-rule:nonzero;fill:rgb(100%,100%,100%);fill-opacity:1;" d="M 14.667969 9.363281 C 13.261719 8.71875 11.613281 8.941406 10.429688 9.929688 C 9.246094 10.921875 8.738281 12.503906 9.125 14 L 2 14 C 1.632812 14 1.332031 13.703125 1.332031 13.332031 L 1.332031 2.667969 C 1.332031 2.296875 1.632812 2 2 2 L 14 2 C 14.367188 2 14.667969 2.296875 14.667969 2.667969 Z M 8.039062 7.789062 L 3.765625 4.160156 L 2.902344 5.175781 L 8.046875 9.542969 L 13.101562 5.171875 L 12.230469 4.164062 Z M 13 14.5 L 11.238281 15.425781 L 11.574219 13.464844 L 10.148438 12.074219 L 12.117188 11.785156 L 13 10 L 13.882812 11.785156 L 15.851562 12.074219 L 14.425781 13.464844 L 14.761719 15.425781 Z M 13 14.5 "/>
</g>
</svg>
