<?xml version="1.0" encoding="UTF-8"?>
<svg xmlns="http://www.w3.org/2000/svg" xmlns:xlink="http://www.w3.org/1999/xlink" width="16" height="16" viewBox="0 0 16 16" version="1.1">
<g id="surface1">
<path style=" stroke:none;fill-rule:nonzero;fill:rgb(100%,100%,100%);fill-opacity:1;" d="M 14.667969 8 C 13.753906 7.316406 12.550781 7.144531 11.484375 7.550781 C 10.414062 7.957031 9.628906 8.878906 9.398438 10 L 8.667969 10 L 8.667969 14 L 2 14 C 1.632812 14 1.332031 13.703125 1.332031 13.332031 L 1.332031 2.667969 C 1.332031 2.296875 1.632812 2 2 2 L 14 2 C 14.367188 2 14.667969 2.296875 14.667969 2.667969 Z M 8.039062 7.789062 L 3.765625 4.160156 L 2.902344 5.175781 L 8.046875 9.542969 L 13.101562 5.171875 L 12.230469 4.164062 Z M 14.667969 11.332031 L 15.332031 11.332031 L 15.332031 14.667969 L 10 14.667969 L 10 11.332031 L 10.667969 11.332031 L 10.667969 10.667969 C 10.667969 9.5625 11.5625 8.667969 12.667969 8.667969 C 13.769531 8.667969 14.667969 9.5625 14.667969 10.667969 Z M 13.332031 11.332031 L 13.332031 10.667969 C 13.332031 10.296875 13.035156 10 12.667969 10 C 12.296875 10 12 10.296875 12 10.667969 L 12 11.332031 Z M 13.332031 11.332031 "/>
</g>
</svg>
