<?xml version="1.0" encoding="UTF-8"?>
<svg xmlns="http://www.w3.org/2000/svg" xmlns:xlink="http://www.w3.org/1999/xlink" width="16" height="16" viewBox="0 0 16 16" version="1.1">
<g id="surface1">
<path style=" stroke:none;fill-rule:nonzero;fill:rgb(100%,100%,100%);fill-opacity:1;" d="M 14.667969 8.535156 C 13.097656 7.628906 11.117188 7.890625 9.835938 9.171875 C 8.554688 10.449219 8.296875 12.433594 9.203125 14 L 2 14 C 1.632812 14 1.332031 13.703125 1.332031 13.332031 L 1.332031 2.667969 C 1.332031 2.296875 1.632812 2 2 2 L 14 2 C 14.367188 2 14.667969 2.296875 14.667969 2.667969 Z M 8.039062 7.789062 L 3.765625 4.160156 L 2.902344 5.175781 L 8.046875 9.542969 L 13.101562 5.171875 L 12.230469 4.164062 Z M 13.332031 12 L 15.332031 12 L 12.667969 14.667969 L 10 12 L 12 12 L 12 9.332031 L 13.332031 9.332031 Z M 13.332031 12 "/>
</g>
</svg>
