<?xml version="1.0" encoding="UTF-8"?>
<svg xmlns="http://www.w3.org/2000/svg" xmlns:xlink="http://www.w3.org/1999/xlink" width="16" height="16" viewBox="0 0 16 16" version="1.1">
<g id="surface1">
<path style=" stroke:none;fill-rule:nonzero;fill:rgb(100%,100%,100%);fill-opacity:1;" d="M 13.332031 4.824219 L 8.046875 9.558594 L 2.667969 4.8125 L 2.667969 12.667969 L 9.332031 12.667969 L 9.332031 14 L 2 14 C 1.632812 14 1.332031 13.703125 1.332031 13.332031 L 1.332031 2.667969 C 1.332031 2.296875 1.632812 2 2 2 L 14 2 C 14.367188 2 14.667969 2.296875 14.667969 2.667969 L 14.667969 8.667969 L 13.332031 8.667969 Z M 13 3.332031 L 3.007812 3.332031 L 8.039062 7.773438 Z M 11.367188 13.03125 C 11.320312 12.789062 11.320312 12.542969 11.367188 12.300781 L 10.691406 11.910156 L 11.355469 10.757812 L 12.035156 11.148438 C 12.21875 10.988281 12.433594 10.863281 12.667969 10.78125 L 12.667969 10 L 14 10 L 14 10.78125 C 14.234375 10.863281 14.449219 10.988281 14.632812 11.148438 L 15.308594 10.757812 L 15.976562 11.910156 L 15.300781 12.300781 C 15.34375 12.542969 15.34375 12.789062 15.300781 13.03125 L 15.976562 13.421875 L 15.308594 14.578125 L 14.632812 14.1875 C 14.445312 14.347656 14.230469 14.472656 14 14.554688 L 14 15.332031 L 12.667969 15.332031 L 12.667969 14.554688 C 12.433594 14.472656 12.21875 14.347656 12.035156 14.1875 L 11.355469 14.578125 L 10.691406 13.421875 Z M 13.332031 13.332031 C 13.703125 13.332031 14 13.035156 14 12.667969 C 14 12.296875 13.703125 12 13.332031 12 C 12.964844 12 12.667969 12.296875 12.667969 12.667969 C 12.667969 13.035156 12.964844 13.332031 13.332031 13.332031 Z M 13.332031 13.332031 "/>
</g>
</svg>
