<?xml version="1.0" encoding="UTF-8"?>
<svg xmlns="http://www.w3.org/2000/svg" xmlns:xlink="http://www.w3.org/1999/xlink" width="16" height="16" viewBox="0 0 16 16" version="1.1">
<g id="surface1">
<path style=" stroke:none;fill-rule:nonzero;fill:rgb(100%,100%,100%);fill-opacity:1;" d="M 12.242188 11.574219 L 8 15.820312 L 3.757812 11.574219 C 1.414062 9.234375 1.414062 5.433594 3.757812 3.089844 C 6.101562 0.746094 9.898438 0.746094 12.242188 3.089844 C 14.585938 5.433594 14.585938 9.234375 12.242188 11.574219 Z M 8 10 C 9.472656 10 10.667969 8.804688 10.667969 7.332031 C 10.667969 5.859375 9.472656 4.667969 8 4.667969 C 6.527344 4.667969 5.332031 5.859375 5.332031 7.332031 C 5.332031 8.804688 6.527344 10 8 10 Z M 8 8.667969 C 7.261719 8.667969 6.667969 8.070312 6.667969 7.332031 C 6.667969 6.597656 7.261719 6 8 6 C 8.738281 6 9.332031 6.597656 9.332031 7.332031 C 9.332031 8.070312 8.738281 8.667969 8 8.667969 Z M 8 8.667969 "/>
</g>
</svg>
