<?xml version="1.0" encoding="UTF-8"?>
<svg xmlns="http://www.w3.org/2000/svg" xmlns:xlink="http://www.w3.org/1999/xlink" width="16" height="16" viewBox="0 0 16 16" version="1.1">
<g id="surface1">
<path style=" stroke:none;fill-rule:nonzero;fill:rgb(100%,100%,100%);fill-opacity:1;" d="M 11.390625 10.542969 C 13.136719 8.695312 13.085938 5.785156 11.269531 4.003906 C 9.453125 2.222656 6.546875 2.222656 4.730469 4.003906 C 2.914062 5.785156 2.863281 8.695312 4.609375 10.542969 C 5.34375 9.375 6.621094 8.664062 8 8.667969 C 9.378906 8.664062 10.65625 9.375 11.390625 10.542969 Z M 5.589844 11.523438 L 8 13.933594 L 10.410156 11.523438 C 9.96875 10.59375 9.03125 10 8 10 C 6.96875 10 6.03125 10.59375 5.589844 11.523438 Z M 8 15.820312 L 3.757812 11.574219 C 1.414062 9.234375 1.414062 5.433594 3.757812 3.089844 C 6.101562 0.746094 9.898438 0.746094 12.242188 3.089844 C 14.585938 5.433594 14.585938 9.234375 12.242188 11.574219 Z M 8 6.667969 C 8.367188 6.667969 8.667969 6.367188 8.667969 6 C 8.667969 5.632812 8.367188 5.332031 8 5.332031 C 7.632812 5.332031 7.332031 5.632812 7.332031 6 C 7.332031 6.367188 7.632812 6.667969 8 6.667969 Z M 8 8 C 6.894531 8 6 7.105469 6 6 C 6 4.894531 6.894531 4 8 4 C 9.105469 4 10 4.894531 10 6 C 10 7.105469 9.105469 8 8 8 Z M 8 8 "/>
</g>
</svg>
