<?xml version="1.0" encoding="UTF-8"?>
<svg xmlns="http://www.w3.org/2000/svg" xmlns:xlink="http://www.w3.org/1999/xlink" width="16" height="16" viewBox="0 0 16 16" version="1.1">
<g id="surface1">
<path style=" stroke:none;fill-rule:nonzero;fill:rgb(100%,100%,100%);fill-opacity:1;" d="M 1.332031 3.332031 L 6 1.332031 L 10 3.332031 L 14.203125 1.53125 C 14.304688 1.488281 14.421875 1.5 14.515625 1.5625 C 14.609375 1.621094 14.667969 1.726562 14.667969 1.839844 L 14.667969 12.667969 L 10 14.667969 L 6 12.667969 L 1.796875 14.46875 C 1.695312 14.511719 1.578125 14.5 1.484375 14.4375 C 1.390625 14.378906 1.332031 14.273438 1.332031 14.160156 Z M 10.667969 12.929688 L 13.332031 11.789062 L 13.332031 3.355469 L 10.667969 4.496094 Z M 9.332031 12.84375 L 9.332031 4.492188 L 6.667969 3.15625 L 6.667969 11.507812 Z M 5.332031 11.503906 L 5.332031 3.070312 L 2.667969 4.210938 L 2.667969 12.644531 Z M 5.332031 11.503906 "/>
</g>
</svg>
