<?xml version="1.0" encoding="UTF-8"?>
<svg xmlns="http://www.w3.org/2000/svg" xmlns:xlink="http://www.w3.org/1999/xlink" width="16" height="16" viewBox="0 0 16 16" version="1.1">
<g id="surface1">
<path style=" stroke:none;fill-rule:nonzero;fill:rgb(100%,100%,100%);fill-opacity:1;" d="M 7.671875 15.960938 C 7.585938 15.9375 7.445312 15.890625 7.367188 15.851562 C 7.015625 15.679688 7.054688 15.742188 4.945312 12.09375 C 3.867188 10.226562 2.917969 8.554688 2.835938 8.375 C 2.402344 7.460938 2.183594 6.445312 2.226562 5.574219 C 2.304688 4.023438 2.859375 2.75 3.917969 1.695312 C 6.175781 -0.5625 9.835938 -0.5625 12.085938 1.695312 C 12.730469 2.34375 13.183594 3.070312 13.46875 3.917969 C 13.960938 5.375 13.863281 6.921875 13.183594 8.351562 C 13.03125 8.671875 9.445312 14.90625 9.140625 15.378906 C 8.828125 15.867188 8.242188 16.101562 7.671875 15.960938 Z M 8.5 7.429688 C 8.578125 7.414062 8.773438 7.335938 8.9375 7.257812 C 9.878906 6.804688 10.339844 5.683594 9.992188 4.679688 C 9.882812 4.375 9.742188 4.148438 9.5 3.902344 C 9.265625 3.664062 9.007812 3.492188 8.683594 3.375 C 8.476562 3.296875 8.414062 3.292969 8 3.292969 C 7.585938 3.292969 7.527344 3.296875 7.320312 3.375 C 6.625 3.632812 6.136719 4.164062 5.953125 4.871094 C 5.875 5.171875 5.882812 5.632812 5.976562 5.949219 C 6.207031 6.742188 6.878906 7.335938 7.6875 7.46875 C 7.882812 7.5 8.289062 7.476562 8.5 7.429688 Z M 8.5 7.429688 "/>
</g>
</svg>
