<?xml version="1.0" encoding="UTF-8"?>
<svg xmlns="http://www.w3.org/2000/svg" xmlns:xlink="http://www.w3.org/1999/xlink" width="16" height="16" viewBox="0 0 16 16" version="1.1">
<g id="surface1">
<path style=" stroke:none;fill-rule:nonzero;fill:rgb(100%,100%,100%);fill-opacity:1;" d="M 8 13.933594 L 11.300781 10.632812 C 13.121094 8.8125 13.121094 5.855469 11.300781 4.035156 C 9.476562 2.210938 6.523438 2.210938 4.699219 4.035156 C 2.878906 5.855469 2.878906 8.8125 4.699219 10.632812 Z M 8 15.820312 L 3.757812 11.574219 C 1.414062 9.234375 1.414062 5.433594 3.757812 3.089844 C 6.101562 0.746094 9.898438 0.746094 12.242188 3.089844 C 14.585938 5.433594 14.585938 9.234375 12.242188 11.574219 Z M 7.332031 6.667969 L 7.332031 4.667969 L 8.667969 4.667969 L 8.667969 6.667969 L 10.667969 6.667969 L 10.667969 8 L 8.667969 8 L 8.667969 10 L 7.332031 10 L 7.332031 8 L 5.332031 8 L 5.332031 6.667969 Z M 7.332031 6.667969 "/>
</g>
</svg>
