<?xml version="1.0" encoding="UTF-8"?>
<svg xmlns="http://www.w3.org/2000/svg" xmlns:xlink="http://www.w3.org/1999/xlink" width="16" height="16" viewBox="0 0 16 16" version="1.1">
<g id="surface1">
<path style=" stroke:none;fill-rule:nonzero;fill:rgb(100%,100%,100%);fill-opacity:1;" d="M 8 14.667969 C 4.316406 14.667969 1.332031 11.683594 1.332031 8 C 1.332031 4.316406 4.316406 1.332031 8 1.332031 C 11.683594 1.332031 14.667969 4.316406 14.667969 8 C 14.667969 11.683594 11.683594 14.667969 8 14.667969 Z M 11.367188 12.136719 L 10.792969 9.839844 C 10.71875 9.542969 10.453125 9.332031 10.144531 9.332031 L 5.855469 9.332031 C 5.546875 9.332031 5.28125 9.542969 5.207031 9.839844 L 4.632812 12.136719 C 5.582031 12.910156 6.773438 13.335938 8 13.332031 C 9.226562 13.335938 10.417969 12.910156 11.367188 12.136719 Z M 6.667969 8 L 9.332031 8 L 9.332031 7 L 8.640625 4.578125 C 8.558594 4.289062 8.296875 4.09375 8 4.09375 C 7.703125 4.09375 7.441406 4.289062 7.359375 4.578125 L 6.667969 7 Z M 6.667969 8 "/>
</g>
</svg>
