<?xml version="1.0" encoding="UTF-8"?>
<svg xmlns="http://www.w3.org/2000/svg" xmlns:xlink="http://www.w3.org/1999/xlink" width="16" height="16" viewBox="0 0 16 16" version="1.1">
<g id="surface1">
<path style=" stroke:none;fill-rule:nonzero;fill:rgb(100%,100%,100%);fill-opacity:1;" d="M 8 12.195312 C 5.957031 13.398438 3.34375 12.949219 1.816406 11.136719 C 0.285156 9.324219 0.285156 6.675781 1.816406 4.863281 C 3.34375 3.050781 5.957031 2.601562 8 3.804688 C 10.042969 2.601562 12.65625 3.050781 14.183594 4.863281 C 15.714844 6.675781 15.714844 9.324219 14.183594 11.136719 C 12.65625 12.949219 10.042969 13.398438 8 12.195312 Z M 9.132812 11.273438 C 10.609375 11.875 12.304688 11.410156 13.273438 10.144531 C 14.238281 8.878906 14.238281 7.121094 13.273438 5.855469 C 12.304688 4.589844 10.609375 4.125 9.132812 4.726562 C 9.949219 5.621094 10.402344 6.789062 10.398438 8 C 10.398438 9.261719 9.921875 10.410156 9.132812 11.273438 Z M 6.867188 4.726562 C 5.390625 4.125 3.695312 4.589844 2.726562 5.855469 C 1.761719 7.121094 1.761719 8.878906 2.726562 10.144531 C 3.695312 11.410156 5.390625 11.875 6.867188 11.273438 C 6.050781 10.378906 5.597656 9.210938 5.601562 8 C 5.601562 6.738281 6.078125 5.589844 6.867188 4.726562 Z M 8 5.46875 C 7.316406 6.132812 6.933594 7.046875 6.933594 8 C 6.933594 8.992188 7.34375 9.886719 8 10.53125 C 8.683594 9.867188 9.066406 8.953125 9.066406 8 C 9.066406 7.046875 8.683594 6.132812 8 5.46875 Z M 8 5.46875 "/>
</g>
</svg>
