<?xml version="1.0" encoding="UTF-8"?>
<svg xmlns="http://www.w3.org/2000/svg" xmlns:xlink="http://www.w3.org/1999/xlink" width="16" height="16" viewBox="0 0 16 16" version="1.1">
<g id="surface1">
<path style=" stroke:none;fill-rule:nonzero;fill:rgb(100%,100%,100%);fill-opacity:1;" d="M 2.011719 8.003906 C 1.992188 7.164062 2.003906 6.375 2.003906 5.710938 C 2.003906 2.820312 3.898438 1.96875 3.898438 1.96875 C 4.855469 1.53125 6.492188 1.347656 8.199219 1.332031 L 8.242188 1.332031 C 9.945312 1.347656 11.585938 1.53125 12.542969 1.96875 C 12.542969 1.96875 14.4375 2.820312 14.4375 5.710938 C 14.4375 5.710938 14.460938 7.84375 14.171875 9.328125 C 13.988281 10.265625 12.535156 11.296875 10.863281 11.496094 C 9.992188 11.601562 9.136719 11.695312 8.21875 11.652344 C 6.726562 11.585938 5.542969 11.296875 5.542969 11.296875 C 5.542969 11.441406 5.554688 11.582031 5.570312 11.710938 C 5.628906 12.132812 5.769531 12.441406 5.976562 12.667969 C 6.484375 13.234375 7.378906 13.285156 8.238281 13.316406 C 9.453125 13.359375 10.53125 13.015625 10.53125 13.015625 L 10.582031 14.113281 C 10.582031 14.113281 9.734375 14.570312 8.21875 14.652344 C 7.386719 14.699219 6.351562 14.632812 5.144531 14.3125 C 4.125 14.042969 3.433594 13.453125 2.964844 12.667969 C 2.238281 11.4375 2.054688 9.730469 2.011719 8.003906 Z M 4.210938 11.296875 L 4.210938 9.597656 L 5.863281 10 C 6.148438 10.066406 6.4375 10.121094 6.730469 10.164062 C 7.230469 10.242188 7.753906 10.296875 8.28125 10.320312 C 8.960938 10.351562 9.550781 10.308594 10.707031 10.171875 C 11.816406 10.039062 12.804688 9.375 12.863281 9.070312 C 12.917969 8.789062 12.964844 8.457031 13 8.085938 C 13.046875 7.585938 13.078125 7.085938 13.09375 6.585938 C 13.101562 6.246094 13.105469 5.957031 13.101562 5.75 L 13.101562 5.710938 C 13.101562 4.757812 12.855469 4.085938 12.460938 3.605469 C 12.347656 3.464844 12.21875 3.34375 12.070312 3.238281 C 12.011719 3.199219 11.980469 3.179688 11.984375 3.183594 C 11.308594 2.871094 9.921875 2.679688 8.242188 2.667969 L 8.210938 2.667969 C 6.515625 2.679688 5.128906 2.871094 4.441406 3.1875 C 4.457031 3.179688 4.429688 3.199219 4.367188 3.238281 C 4.222656 3.34375 4.09375 3.464844 3.980469 3.605469 C 3.582031 4.085938 3.335938 4.757812 3.335938 5.710938 C 3.335938 5.867188 3.335938 5.976562 3.335938 6.292969 C 3.328125 6.855469 3.332031 7.414062 3.34375 7.972656 C 3.378906 9.4375 3.519531 10.53125 3.8125 11.332031 C 3.953125 11.726562 4.125 12.046875 4.332031 12.300781 C 4.246094 11.972656 4.207031 11.636719 4.210938 11.296875 Z M 5.390625 4.246094 C 5.808594 4.246094 6.152344 4.589844 6.152344 5.007812 C 6.152344 5.429688 5.808594 5.769531 5.390625 5.769531 C 4.96875 5.769531 4.628906 5.429688 4.628906 5.007812 C 4.628906 4.589844 4.96875 4.246094 5.390625 4.246094 Z M 5.390625 4.246094 "/>
</g>
</svg>
