<?xml version="1.0" encoding="UTF-8"?>
<svg xmlns="http://www.w3.org/2000/svg" xmlns:xlink="http://www.w3.org/1999/xlink" width="16" height="16" viewBox="0 0 16 16" version="1.1">
<g id="surface1">
<path style=" stroke:none;fill-rule:nonzero;fill:rgb(100%,100%,100%);fill-opacity:1;" d="M 14.171875 9.328125 C 13.988281 10.265625 12.535156 11.296875 10.863281 11.496094 C 9.992188 11.601562 9.136719 11.695312 8.21875 11.652344 C 6.726562 11.585938 5.542969 11.296875 5.542969 11.296875 C 5.542969 11.441406 5.554688 11.582031 5.570312 11.710938 C 5.765625 13.1875 7.035156 13.273438 8.238281 13.316406 C 9.453125 13.359375 10.53125 13.015625 10.53125 13.015625 L 10.582031 14.113281 C 10.582031 14.113281 9.734375 14.570312 8.21875 14.652344 C 7.386719 14.699219 6.351562 14.632812 5.144531 14.3125 C 2.53125 13.621094 2.082031 10.835938 2.011719 8.003906 C 1.992188 7.164062 2.003906 6.375 2.003906 5.710938 C 2.003906 2.816406 3.898438 1.96875 3.898438 1.96875 C 4.855469 1.53125 6.492188 1.347656 8.199219 1.332031 L 8.242188 1.332031 C 9.945312 1.347656 11.585938 1.53125 12.542969 1.96875 C 12.542969 1.96875 14.4375 2.820312 14.4375 5.710938 C 14.4375 5.710938 14.460938 7.84375 14.171875 9.328125 Z M 12.203125 5.933594 C 12.203125 5.21875 12.019531 4.652344 11.652344 4.230469 C 11.273438 3.808594 10.78125 3.59375 10.167969 3.59375 C 9.457031 3.59375 8.921875 3.867188 8.5625 4.410156 L 8.21875 4.992188 L 7.871094 4.410156 C 7.515625 3.867188 6.980469 3.59375 6.269531 3.59375 C 5.65625 3.59375 5.160156 3.808594 4.785156 4.230469 C 4.417969 4.652344 4.234375 5.21875 4.234375 5.933594 L 4.234375 9.4375 L 5.625 9.4375 L 5.625 6.039062 C 5.625 5.320312 5.925781 4.957031 6.527344 4.957031 C 7.195312 4.957031 7.527344 5.390625 7.527344 6.242188 L 7.527344 8.101562 L 8.910156 8.101562 L 8.910156 6.242188 C 8.910156 5.390625 9.242188 4.957031 9.910156 4.957031 C 10.511719 4.957031 10.8125 5.320312 10.8125 6.039062 L 10.8125 9.4375 L 12.199219 9.4375 L 12.199219 5.933594 Z M 12.203125 5.933594 "/>
</g>
</svg>
