<?xml version="1.0" encoding="UTF-8"?>
<svg xmlns="http://www.w3.org/2000/svg" xmlns:xlink="http://www.w3.org/1999/xlink" width="16" height="16" viewBox="0 0 16 16" version="1.1">
<g id="surface1">
<path style=" stroke:none;fill-rule:nonzero;fill:rgb(100%,100%,100%);fill-opacity:1;" d="M 8 4.4375 C 9.09375 5.292969 9.730469 6.609375 9.730469 8 C 9.730469 9.386719 9.09375 10.703125 8 11.558594 C 6.90625 10.703125 6.269531 9.386719 6.269531 7.996094 C 6.269531 6.609375 6.90625 5.292969 8 4.4375 Z M 7.421875 4.046875 C 6.261719 5.035156 5.597656 6.480469 5.601562 8 C 5.597656 9.519531 6.261719 10.964844 7.417969 11.949219 C 5.511719 13.019531 3.113281 12.578125 1.714844 10.898438 C 0.316406 9.21875 0.320312 6.777344 1.71875 5.097656 C 3.117188 3.417969 5.515625 2.976562 7.421875 4.046875 Z M 8.582031 11.949219 C 9.738281 10.964844 10.402344 9.519531 10.398438 8 C 10.402344 6.480469 9.738281 5.035156 8.578125 4.046875 C 10.484375 2.976562 12.882812 3.417969 14.28125 5.097656 C 15.683594 6.777344 15.683594 9.21875 14.285156 10.898438 C 12.886719 12.578125 10.488281 13.019531 8.582031 11.949219 Z M 8.582031 11.949219 "/>
</g>
</svg>
