<?xml version="1.0" encoding="UTF-8"?>
<svg xmlns="http://www.w3.org/2000/svg" xmlns:xlink="http://www.w3.org/1999/xlink" width="16" height="16" viewBox="0 0 16 16" version="1.1">
<g id="surface1">
<path style=" stroke:none;fill-rule:nonzero;fill:rgb(100%,100%,100%);fill-opacity:1;" d="M 8 4.667969 C 10.945312 4.667969 13.332031 7.054688 13.332031 10 C 13.332031 12.945312 10.945312 15.332031 8 15.332031 C 5.054688 15.332031 2.667969 12.945312 2.667969 10 C 2.667969 7.054688 5.054688 4.667969 8 4.667969 Z M 8 6 C 5.789062 6 4 7.789062 4 10 C 4 12.210938 5.789062 14 8 14 C 10.210938 14 12 12.210938 12 10 C 12 7.789062 10.210938 6 8 6 Z M 8 7 L 8.882812 8.785156 L 10.851562 9.074219 L 9.425781 10.464844 L 9.761719 12.425781 L 8 11.5 L 6.238281 12.425781 L 6.574219 10.464844 L 5.148438 9.074219 L 7.117188 8.785156 Z M 12 1.332031 L 12 3.332031 L 11.089844 4.09375 C 10.335938 3.695312 9.515625 3.449219 8.667969 3.367188 L 8.667969 1.332031 Z M 7.332031 1.332031 L 7.332031 3.367188 C 6.484375 3.449219 5.664062 3.695312 4.910156 4.089844 L 4 3.332031 L 4 1.332031 Z M 7.332031 1.332031 "/>
</g>
</svg>
