<?xml version="1.0" encoding="UTF-8"?>
<svg xmlns="http://www.w3.org/2000/svg" xmlns:xlink="http://www.w3.org/1999/xlink" width="16" height="16" viewBox="0 0 16 16" version="1.1">
<g id="surface1">
<path style=" stroke:none;fill-rule:nonzero;fill:rgb(100%,100%,100%);fill-opacity:1;" d="M 14.476562 0.046875 C 14.339844 0.0546875 14.210938 0.117188 14.121094 0.21875 C 14.121094 0.21875 10.394531 4.476562 5.601562 4.484375 C 5.597656 4.484375 5.59375 4.484375 5.585938 4.484375 L 0.5 4.484375 C 0.445312 4.484375 0.382812 4.492188 0.328125 4.515625 C 0.273438 4.535156 0.21875 4.566406 0.171875 4.605469 C 0.15625 4.617188 0.144531 4.632812 0.132812 4.648438 C 0.09375 4.691406 0.0585938 4.742188 0.0390625 4.796875 C 0.03125 4.8125 0.0234375 4.835938 0.015625 4.851562 C 0.0117188 4.875 0.0078125 4.890625 0.0078125 4.914062 C 0.00390625 4.9375 0 4.960938 0 4.988281 L 0 9.421875 C 0 9.460938 0.0078125 9.5 0.015625 9.539062 C 0.0234375 9.578125 0.0390625 9.617188 0.0585938 9.652344 C 0.0703125 9.671875 0.078125 9.6875 0.0898438 9.703125 C 0.125 9.75 0.164062 9.792969 0.214844 9.828125 C 0.230469 9.835938 0.25 9.851562 0.265625 9.859375 C 0.300781 9.875 0.335938 9.890625 0.375 9.902344 C 0.414062 9.914062 0.460938 9.917969 0.5 9.917969 L 1.640625 9.917969 C 1.914062 11.703125 2.371094 13.234375 2.960938 14.648438 C 3.269531 15.378906 4.207031 15.953125 5 15.953125 L 6 15.953125 C 7.105469 15.953125 7.21875 15.425781 6.703125 14.46875 C 5.945312 13.0625 5.441406 11.085938 5.1875 9.917969 L 5.585938 9.917969 C 10.386719 9.917969 14.121094 14.1875 14.121094 14.1875 C 14.421875 14.535156 15 14.320312 15 13.859375 L 15 8.320312 C 15.59375 8.128906 16 7.578125 16 6.953125 C 16 6.328125 15.59375 5.773438 15 5.585938 L 15 0.542969 C 14.996094 0.257812 14.757812 0.0351562 14.476562 0.046875 Z M 13.996094 1.648438 L 13.996094 12.757812 C 13 11.726562 10.28125 9.140625 6.089844 8.941406 L 6.089844 5.460938 C 10.28125 5.265625 13 2.679688 13.996094 1.648438 Z M 13.996094 1.648438 "/>
</g>
</svg>
