<?xml version="1.0" encoding="UTF-8"?>
<svg xmlns="http://www.w3.org/2000/svg" xmlns:xlink="http://www.w3.org/1999/xlink" width="16" height="16" viewBox="0 0 16 16" version="1.1">
<g id="surface1">
<path style=" stroke:none;fill-rule:nonzero;fill:rgb(100%,100%,100%);fill-opacity:1;" d="M 13.648438 14.617188 C 15.929688 12.335938 16.609375 8.894531 15.375 5.914062 C 14.140625 2.933594 11.226562 0.984375 8 0.984375 C 4.777344 0.984375 1.859375 2.9375 0.625 5.921875 C -0.609375 8.898438 0.0742188 12.335938 2.355469 14.617188 C 2.882812 15.144531 3.742188 15.144531 4.269531 14.617188 C 4.523438 14.363281 4.671875 14.019531 4.671875 13.65625 C 4.671875 13.296875 4.53125 12.953125 4.273438 12.695312 C 2.765625 11.1875 2.3125 8.929688 3.132812 6.953125 C 3.945312 4.984375 5.863281 3.695312 8 3.695312 C 10.136719 3.695312 12.054688 4.984375 12.871094 6.953125 C 13.6875 8.929688 13.238281 11.1875 11.726562 12.695312 C 11.199219 13.226562 11.199219 14.082031 11.726562 14.609375 C 11.980469 14.867188 12.324219 15.011719 12.6875 15.015625 C 13.046875 15.015625 13.390625 14.871094 13.648438 14.617188 Z M 13.648438 14.617188 "/>
<path style=" stroke:none;fill-rule:evenodd;fill:rgb(100%,100%,100%);fill-opacity:1;" d="M 5.5 7 L 5.5 12.5 L 8.5 12.5 L 8.5 15 L 10 15 L 10 7 L 8.5 7 L 8.5 11 L 7 11 L 7 7 Z M 5.5 7 "/>
</g>
</svg>
