<?xml version="1.0" encoding="UTF-8"?>
<svg xmlns="http://www.w3.org/2000/svg" xmlns:xlink="http://www.w3.org/1999/xlink" width="16" height="16" viewBox="0 0 16 16" version="1.1">
<g id="surface1">
<path style=" stroke:none;fill-rule:nonzero;fill:rgb(100%,100%,100%);fill-opacity:1;" d="M 8 14.667969 C 4.316406 14.667969 1.332031 11.683594 1.332031 8 C 1.332031 4.316406 4.316406 1.332031 8 1.332031 C 11.683594 1.332031 14.667969 4.316406 14.667969 8 C 14.667969 11.683594 11.683594 14.667969 8 14.667969 Z M 8 13.332031 C 10.945312 13.332031 13.332031 10.945312 13.332031 8 C 13.332031 5.054688 10.945312 2.667969 8 2.667969 C 5.054688 2.667969 2.667969 5.054688 2.667969 8 C 2.667969 10.945312 5.054688 13.332031 8 13.332031 Z M 8.667969 9.332031 C 8.667969 10.492188 7.816406 11.472656 6.671875 11.640625 C 5.523438 11.808594 4.429688 11.109375 4.097656 10 C 3.765625 8.890625 4.296875 7.707031 5.347656 7.21875 C 5.683594 7.0625 6.078125 7.207031 6.234375 7.539062 C 6.390625 7.875 6.246094 8.269531 5.910156 8.425781 C 5.460938 8.636719 5.234375 9.144531 5.375 9.617188 C 5.515625 10.09375 5.984375 10.394531 6.476562 10.324219 C 6.96875 10.25 7.332031 9.828125 7.332031 9.332031 L 7.332031 6.667969 C 7.332031 5.507812 8.183594 4.527344 9.328125 4.359375 C 10.476562 4.191406 11.570312 4.890625 11.902344 6 C 12.234375 7.109375 11.703125 8.292969 10.652344 8.78125 C 10.316406 8.9375 9.921875 8.792969 9.765625 8.460938 C 9.609375 8.125 9.753906 7.730469 10.089844 7.574219 C 10.539062 7.363281 10.765625 6.855469 10.625 6.382812 C 10.484375 5.90625 10.015625 5.605469 9.523438 5.675781 C 9.03125 5.75 8.667969 6.171875 8.667969 6.667969 Z M 8.667969 9.332031 "/>
</g>
</svg>
