<?xml version="1.0" encoding="UTF-8"?>
<svg xmlns="http://www.w3.org/2000/svg" xmlns:xlink="http://www.w3.org/1999/xlink" width="16" height="16" viewBox="0 0 16 16" version="1.1">
<g id="surface1">
<path style=" stroke:none;fill-rule:nonzero;fill:rgb(100%,100%,100%);fill-opacity:1;" d="M 10.558594 8.460938 L 10.515625 8.472656 C 10.425781 8.5 10.332031 8.515625 10.238281 8.515625 C 9.832031 8.515625 9.601562 8.242188 9.726562 7.902344 C 9.816406 7.652344 10.054688 7.445312 10.34375 7.347656 C 10.789062 7.183594 11.105469 6.8125 11.105469 6.378906 C 11.105469 5.792969 10.535156 5.320312 9.835938 5.320312 C 9.132812 5.320312 8.566406 5.792969 8.566406 6.378906 L 8.566406 9.621094 C 8.566406 10.402344 8.113281 11.085938 7.433594 11.476562 C 7.046875 11.695312 6.609375 11.808594 6.164062 11.808594 C 4.84375 11.808594 3.765625 10.828125 3.765625 9.621094 C 3.765625 9.238281 3.875 8.878906 4.066406 8.566406 C 4.363281 8.078125 4.855469 7.707031 5.449219 7.539062 C 5.546875 7.503906 5.652344 7.488281 5.753906 7.488281 C 6.164062 7.488281 6.394531 7.765625 6.269531 8.105469 C 6.1875 8.335938 5.960938 8.535156 5.695312 8.640625 C 5.664062 8.652344 5.632812 8.660156 5.601562 8.675781 C 5.183594 8.847656 4.894531 9.207031 4.894531 9.621094 C 4.894531 10.207031 5.464844 10.679688 6.164062 10.679688 C 6.867188 10.679688 7.433594 10.207031 7.433594 9.621094 L 7.433594 6.378906 C 7.433594 5.597656 7.886719 4.914062 8.566406 4.523438 C 8.953125 4.304688 9.390625 4.191406 9.835938 4.191406 C 11.15625 4.191406 12.234375 5.171875 12.234375 6.378906 C 12.234375 6.761719 12.125 7.121094 11.933594 7.433594 C 11.636719 7.917969 11.148438 8.289062 10.558594 8.460938 Z M 1.332031 8 C 1.332031 11.683594 4.316406 14.667969 8 14.667969 C 11.683594 14.667969 14.667969 11.683594 14.667969 8 C 14.667969 4.316406 11.683594 1.332031 8 1.332031 C 4.316406 1.332031 1.332031 4.316406 1.332031 8 Z M 1.332031 8 "/>
</g>
</svg>
