<?xml version="1.0" encoding="UTF-8"?>
<svg xmlns="http://www.w3.org/2000/svg" xmlns:xlink="http://www.w3.org/1999/xlink" width="16" height="16" viewBox="0 0 16 16" version="1.1">
<g id="surface1">
<path style=" stroke:none;fill-rule:nonzero;fill:rgb(100%,100%,100%);fill-opacity:1;" d="M 0.5 1 C 0.222656 1 -0.00390625 1.226562 -0.00390625 1.503906 L -0.00390625 14.496094 C -0.00390625 14.773438 0.222656 15 0.5 15 L 15.5 15 C 15.777344 15 16.003906 14.773438 16 14.496094 L 16 1.503906 C 16.003906 1.226562 15.777344 1 15.5 1 Z M 0.992188 2.007812 L 15 2.007812 L 15 14 L 0.992188 14 Z M 0.992188 2.007812 "/>
<path style=" stroke:none;fill-rule:nonzero;fill:rgb(100%,100%,100%);fill-opacity:1;" d="M 5.753906 4.546875 C 5.574219 4.5625 5.414062 4.671875 5.339844 4.835938 L 4.035156 7 L 0.992188 7 L 0.992188 8.003906 L 4.351562 8.003906 C 4.546875 8.003906 4.71875 7.890625 4.804688 7.71875 L 5.65625 6.480469 L 6.890625 11.078125 C 7.011719 11.539062 7.648438 11.585938 7.835938 11.148438 L 9.125 7.984375 L 14.996094 7.984375 L 14.996094 6.984375 L 8.789062 6.984375 C 8.585938 6.984375 8.40625 7.105469 8.328125 7.292969 L 7.476562 9.390625 L 6.273438 4.914062 C 6.210938 4.6875 5.992188 4.53125 5.753906 4.546875 Z M 5.753906 4.546875 "/>
</g>
</svg>
