<?xml version="1.0" encoding="UTF-8"?>
<svg xmlns="http://www.w3.org/2000/svg" xmlns:xlink="http://www.w3.org/1999/xlink" width="16" height="16" viewBox="0 0 16 16" version="1.1">
<g id="surface1">
<path style=" stroke:none;fill-rule:nonzero;fill:rgb(100%,100%,100%);fill-opacity:1;" d="M 10.667969 13.554688 L 10.667969 12.089844 C 11.808594 11.484375 12.675781 10.464844 13.082031 9.234375 C 11.316406 9.558594 9.496094 9.074219 8.125 7.914062 C 6.753906 6.753906 5.972656 5.039062 6 3.242188 C 4.675781 3.941406 3.734375 5.199219 3.433594 6.667969 L 2.078125 6.667969 C 2.535156 3.804688 4.882812 1.617188 7.769531 1.359375 C 6.875 3.265625 7.375 5.539062 8.984375 6.898438 C 10.589844 8.257812 12.914062 8.375 14.648438 7.175781 C 14.863281 9.945312 13.25 12.53125 10.667969 13.558594 Z M 4.667969 13.332031 L 9.332031 13.332031 L 9.332031 14.667969 L 4.667969 14.667969 Z M 2.667969 8 L 6.667969 8 L 6.667969 9.332031 L 2.667969 9.332031 Z M 1.332031 10.667969 L 8 10.667969 L 8 12 L 1.332031 12 Z M 1.332031 10.667969 "/>
</g>
</svg>
