<?xml version="1.0" encoding="UTF-8"?>
<svg xmlns="http://www.w3.org/2000/svg" xmlns:xlink="http://www.w3.org/1999/xlink" width="16" height="16" viewBox="0 0 16 16" version="1.1">
<g id="surface1">
<path style=" stroke:none;fill-rule:nonzero;fill:rgb(100%,100%,100%);fill-opacity:1;" d="M 3 7 C 2.449219 7 2 7.449219 2 8 C 2 8.550781 2.449219 9 3 9 C 3.550781 9 4 8.550781 4 8 C 4 7.449219 3.550781 7 3 7 Z M 13 7 C 12.449219 7 12 7.449219 12 8 C 12 8.550781 12.449219 9 13 9 C 13.550781 9 14 8.550781 14 8 C 14 7.449219 13.550781 7 13 7 Z M 8 7 C 7.449219 7 7 7.449219 7 8 C 7 8.550781 7.449219 9 8 9 C 8.550781 9 9 8.550781 9 8 C 9 7.449219 8.550781 7 8 7 Z M 8 7 "/>
</g>
</svg>
