<?xml version="1.0" encoding="UTF-8"?>
<svg xmlns="http://www.w3.org/2000/svg" xmlns:xlink="http://www.w3.org/1999/xlink" width="16" height="16" viewBox="0 0 16 16" version="1.1">
<g id="surface1">
<path style=" stroke:none;fill-rule:nonzero;fill:rgb(100%,100%,100%);fill-opacity:1;" d="M 7.425781 2.667969 C 6.371094 2.667969 5.835938 2.78125 5.34375 3.042969 C 4.929688 3.261719 4.59375 3.597656 4.375 4.007812 C 4.113281 4.503906 4 5.039062 4 6.09375 L 4 9.90625 C 4 10.960938 4.113281 11.496094 4.375 11.992188 C 4.601562 12.410156 4.921875 12.730469 5.34375 12.957031 C 5.835938 13.21875 6.371094 13.332031 7.425781 13.332031 L 8.574219 13.332031 C 9.628906 13.332031 10.164062 13.21875 10.65625 12.957031 C 11.070312 12.738281 11.40625 12.402344 11.625 11.992188 C 11.886719 11.496094 12 10.960938 12 9.90625 L 12 6.09375 C 12 5.039062 11.886719 4.503906 11.625 4.007812 C 11.40625 3.597656 11.070312 3.257812 10.65625 3.042969 C 10.164062 2.78125 9.628906 2.667969 8.574219 2.667969 Z M 7.425781 1.332031 L 8.574219 1.332031 C 9.914062 1.332031 10.636719 1.519531 11.289062 1.867188 C 11.929688 2.207031 12.457031 2.734375 12.800781 3.378906 C 13.148438 4.03125 13.332031 4.75 13.332031 6.09375 L 13.332031 9.90625 C 13.332031 11.25 13.148438 11.96875 12.800781 12.621094 C 12.457031 13.265625 11.929688 13.792969 11.289062 14.132812 C 10.636719 14.480469 9.914062 14.667969 8.574219 14.667969 L 7.425781 14.667969 C 6.085938 14.667969 5.363281 14.480469 4.710938 14.132812 C 4.066406 13.792969 3.539062 13.265625 3.199219 12.621094 C 2.851562 11.96875 2.667969 11.25 2.667969 9.90625 L 2.667969 6.09375 C 2.667969 4.75 2.851562 4.03125 3.199219 3.378906 C 3.542969 2.734375 4.070312 2.207031 4.714844 1.867188 C 5.363281 1.519531 6.085938 1.332031 7.425781 1.332031 Z M 7.332031 4 L 8.667969 4 L 8.667969 7.332031 L 7.332031 7.332031 Z M 7.332031 4 "/>
</g>
</svg>
