<?xml version="1.0" encoding="UTF-8"?>
<svg xmlns="http://www.w3.org/2000/svg" xmlns:xlink="http://www.w3.org/1999/xlink" width="16" height="16" viewBox="0 0 16 16" version="1.1">
<g id="surface1">
<path style=" stroke:none;fill-rule:nonzero;fill:rgb(100%,100%,100%);fill-opacity:1;" d="M 8 13.332031 L 13.332031 13.332031 L 13.332031 14.667969 L 8 14.667969 C 4.316406 14.667969 1.332031 11.683594 1.332031 8 C 1.332031 4.316406 4.316406 1.332031 8 1.332031 C 11.683594 1.332031 14.667969 4.316406 14.667969 8 C 14.667969 9.441406 14.199219 10.847656 13.332031 12 L 11.527344 12 C 13.460938 10.296875 13.898438 7.457031 12.570312 5.25 C 11.242188 3.042969 8.523438 2.101562 6.113281 3.011719 C 3.707031 3.921875 2.289062 6.425781 2.753906 8.957031 C 3.214844 11.492188 5.425781 13.332031 8 13.332031 Z M 8 6.667969 C 7.261719 6.667969 6.667969 6.070312 6.667969 5.332031 C 6.667969 4.597656 7.261719 4 8 4 C 8.738281 4 9.332031 4.597656 9.332031 5.332031 C 9.332031 6.070312 8.738281 6.667969 8 6.667969 Z M 5.332031 9.332031 C 4.597656 9.332031 4 8.738281 4 8 C 4 7.261719 4.597656 6.667969 5.332031 6.667969 C 6.070312 6.667969 6.667969 7.261719 6.667969 8 C 6.667969 8.738281 6.070312 9.332031 5.332031 9.332031 Z M 10.667969 9.332031 C 9.929688 9.332031 9.332031 8.738281 9.332031 8 C 9.332031 7.261719 9.929688 6.667969 10.667969 6.667969 C 11.402344 6.667969 12 7.261719 12 8 C 12 8.738281 11.402344 9.332031 10.667969 9.332031 Z M 8 12 C 7.261719 12 6.667969 11.402344 6.667969 10.667969 C 6.667969 9.929688 7.261719 9.332031 8 9.332031 C 8.738281 9.332031 9.332031 9.929688 9.332031 10.667969 C 9.332031 11.402344 8.738281 12 8 12 Z M 8 12 "/>
</g>
</svg>
