<?xml version="1.0" encoding="UTF-8"?>
<svg xmlns="http://www.w3.org/2000/svg" xmlns:xlink="http://www.w3.org/1999/xlink" width="16" height="16" viewBox="0 0 16 16" version="1.1">
<g id="surface1">
<path style=" stroke:none;fill-rule:nonzero;fill:rgb(100%,100%,100%);fill-opacity:1;" d="M 1.332031 2.660156 C 1.335938 2.296875 1.628906 2.003906 1.996094 2 L 14.003906 2 C 14.371094 2 14.667969 2.296875 14.667969 2.660156 L 14.667969 13.339844 C 14.664062 13.703125 14.371094 13.996094 14.003906 14 L 1.996094 14 C 1.628906 14 1.332031 13.703125 1.332031 13.339844 Z M 2.667969 3.332031 L 2.667969 12.667969 L 13.332031 12.667969 L 13.332031 3.332031 Z M 8 8.113281 L 8 4 L 11.332031 4 L 11.332031 5.332031 L 9.332031 5.332031 L 9.332031 10 C 9.332031 10.871094 8.769531 11.640625 7.9375 11.90625 C 7.109375 12.167969 6.203125 11.863281 5.699219 11.152344 C 5.199219 10.441406 5.210938 9.488281 5.738281 8.792969 C 6.265625 8.097656 7.179688 7.824219 8 8.113281 Z M 8 8.113281 "/>
</g>
</svg>
