<?xml version="1.0" encoding="UTF-8"?>
<svg xmlns="http://www.w3.org/2000/svg" xmlns:xlink="http://www.w3.org/1999/xlink" width="16" height="16" viewBox="0 0 16 16" version="1.1">
<g id="surface1">
<path style=" stroke:none;fill-rule:nonzero;fill:rgb(100%,100%,100%);fill-opacity:1;" d="M 6.667969 1.332031 C 7.035156 1.332031 7.332031 1.632812 7.332031 2 L 7.332031 4.667969 C 7.332031 5.035156 7.035156 5.332031 6.667969 5.332031 L 5.332031 5.332031 L 5.332031 6.667969 L 8.667969 6.667969 L 8.667969 6 C 8.667969 5.632812 8.964844 5.332031 9.332031 5.332031 L 13.332031 5.332031 C 13.703125 5.332031 14 5.632812 14 6 L 14 8.667969 C 14 9.035156 13.703125 9.332031 13.332031 9.332031 L 9.332031 9.332031 C 8.964844 9.332031 8.667969 9.035156 8.667969 8.667969 L 8.667969 8 L 5.332031 8 L 5.332031 12 L 8.667969 12 L 8.667969 11.332031 C 8.667969 10.964844 8.964844 10.667969 9.332031 10.667969 L 13.332031 10.667969 C 13.703125 10.667969 14 10.964844 14 11.332031 L 14 14 C 14 14.367188 13.703125 14.667969 13.332031 14.667969 L 9.332031 14.667969 C 8.964844 14.667969 8.667969 14.367188 8.667969 14 L 8.667969 13.332031 L 4.667969 13.332031 C 4.296875 13.332031 4 13.035156 4 12.667969 L 4 5.332031 L 2.667969 5.332031 C 2.296875 5.332031 2 5.035156 2 4.667969 L 2 2 C 2 1.632812 2.296875 1.332031 2.667969 1.332031 Z M 12.667969 12 L 10 12 L 10 13.332031 L 12.667969 13.332031 Z M 12.667969 6.667969 L 10 6.667969 L 10 8 L 12.667969 8 Z M 6 2.667969 L 3.332031 2.667969 L 3.332031 4 L 6 4 Z M 6 2.667969 "/>
</g>
</svg>
