<?xml version="1.0" encoding="UTF-8"?>
<svg xmlns="http://www.w3.org/2000/svg" xmlns:xlink="http://www.w3.org/1999/xlink" width="16" height="16" viewBox="0 0 16 16" version="1.1">
<g id="surface1">
<path style=" stroke:none;fill-rule:nonzero;fill:rgb(100%,100%,100%);fill-opacity:1;" d="M 12.390625 13.332031 L 2.667969 13.332031 C 2.539062 13.332031 2.425781 13.261719 2.367188 13.148438 C 2.3125 13.035156 2.324219 12.902344 2.398438 12.800781 L 2.667969 12.445312 L 2.667969 6.667969 C 2.667969 5.78125 2.882812 4.945312 3.265625 4.207031 L 0.929688 1.871094 L 1.871094 0.929688 L 15.070312 14.128906 L 14.128906 15.070312 Z M 13.332031 10.523438 L 5.039062 2.230469 C 6.675781 1.136719 8.78125 1.035156 10.515625 1.964844 C 12.25 2.890625 13.332031 4.699219 13.332031 6.667969 Z M 6.332031 14 L 9.667969 14 C 9.667969 14.921875 8.921875 15.667969 8 15.667969 C 7.078125 15.667969 6.332031 14.921875 6.332031 14 Z M 6.332031 14 "/>
</g>
</svg>
