<?xml version="1.0" encoding="UTF-8"?>
<svg xmlns="http://www.w3.org/2000/svg" xmlns:xlink="http://www.w3.org/1999/xlink" width="16" height="16" viewBox="0 0 16 16" version="1.1">
<g id="surface1">
<path style=" stroke:none;fill-rule:nonzero;fill:rgb(100%,100%,100%);fill-opacity:1;" d="M 14.667969 13.332031 L 1.332031 13.332031 L 1.332031 12 L 2 12 L 2 7.355469 C 2 4.027344 4.6875 1.332031 8 1.332031 C 11.3125 1.332031 14 4.027344 14 7.355469 L 14 12 L 14.667969 12 Z M 3.332031 12 L 12.667969 12 L 12.667969 7.355469 C 12.667969 4.765625 10.578125 2.667969 8 2.667969 C 5.421875 2.667969 3.332031 4.765625 3.332031 7.355469 Z M 6.332031 14 L 9.667969 14 C 9.667969 14.921875 8.921875 15.667969 8 15.667969 C 7.078125 15.667969 6.332031 14.921875 6.332031 14 Z M 6.332031 14 "/>
</g>
</svg>
