<?xml version="1.0" encoding="UTF-8"?>
<svg xmlns="http://www.w3.org/2000/svg" xmlns:xlink="http://www.w3.org/1999/xlink" width="16" height="16" viewBox="0 0 16 16" version="1.1">
<g id="surface1">
<path style=" stroke:none;fill-rule:evenodd;fill:rgb(100%,100%,100%);fill-opacity:1;" d="M 10 7.460938 C 10 8.546875 9.101562 9.421875 8 9.421875 C 6.898438 9.421875 6 8.546875 6 7.460938 C 6 6.375 6.898438 5.5 8 5.5 C 9.101562 5.5 10 6.375 10 7.460938 "/>
<path style=" stroke:none;fill-rule:evenodd;fill:rgb(100%,100%,100%);fill-opacity:1;" d="M 3.90625 0.5 C 2.023438 1.566406 0.65625 3.320312 0.09375 5.382812 L 5.195312 6.722656 C 5.394531 5.984375 5.867188 5.34375 6.519531 4.945312 Z M 12.09375 0.5 L 9.527344 4.867188 C 10.234375 5.25 10.753906 5.90625 10.976562 6.679688 L 15.90625 5.382812 C 15.34375 3.320312 13.976562 1.566406 12.09375 0.5 Z M 6.8125 10.214844 L 4.8125 14.867188 C 6.8125 15.695312 9.070312 15.710938 11.078125 14.910156 L 9.171875 10.296875 C 8.828125 10.429688 8.460938 10.5 8.09375 10.5 C 7.648438 10.5 7.214844 10.402344 6.8125 10.214844 Z M 6.8125 10.214844 "/>
</g>
</svg>
