<?xml version="1.0" encoding="UTF-8"?>
<svg xmlns="http://www.w3.org/2000/svg" xmlns:xlink="http://www.w3.org/1999/xlink" width="16" height="16" viewBox="0 0 16 16" version="1.1">
<g id="surface1">
<path style=" stroke:none;fill-rule:nonzero;fill:rgb(100%,100%,100%);fill-opacity:1;" d="M 8 1 C 9.570312 1 10.964844 2 11.472656 3.488281 C 11.976562 4.972656 11.480469 6.617188 10.234375 7.574219 C 11.492188 8.273438 12.332031 9.546875 12.332031 11 C 12.332031 13.210938 10.394531 15 8 15 C 5.605469 15 3.667969 13.210938 3.667969 11 C 3.667969 9.546875 4.507812 8.273438 5.765625 7.574219 C 4.519531 6.617188 4.023438 4.972656 4.527344 3.484375 C 5.035156 2 6.429688 1 8 1 Z M 8 8.332031 C 6.320312 8.332031 5 9.550781 5 11 C 5 12.449219 6.320312 13.667969 8 13.667969 C 9.679688 13.667969 11 12.449219 11 11 C 11 9.550781 9.679688 8.332031 8 8.332031 Z M 8 2.332031 C 6.710938 2.332031 5.667969 3.378906 5.667969 4.667969 C 5.667969 5.957031 6.710938 7 8 7 C 9.289062 7 10.332031 5.957031 10.332031 4.667969 C 10.332031 3.378906 9.289062 2.332031 8 2.332031 Z M 8 2.332031 "/>
</g>
</svg>
