<?xml version="1.0" encoding="UTF-8"?>
<svg xmlns="http://www.w3.org/2000/svg" xmlns:xlink="http://www.w3.org/1999/xlink" width="16" height="16" viewBox="0 0 16 16" version="1.1">
<g id="surface1">
<path style=" stroke:none;fill-rule:nonzero;fill:rgb(100%,100%,100%);fill-opacity:1;" d="M 12 1.332031 L 12 2.242188 L 8.539062 6.367188 C 10.710938 6.640625 12.335938 8.484375 12.332031 10.671875 C 12.332031 12.859375 10.699219 14.703125 8.527344 14.96875 C 6.355469 15.234375 4.324219 13.839844 3.796875 11.71875 L 5.089844 11.394531 C 5.460938 12.863281 6.863281 13.824219 8.367188 13.640625 C 9.867188 13.453125 10.996094 12.179688 11 10.667969 C 11 9.628906 10.464844 8.664062 9.578125 8.117188 C 8.695312 7.570312 7.59375 7.515625 6.664062 7.980469 L 6.511719 8.0625 L 6.050781 7.257812 L 9.902344 2.667969 L 4.332031 2.667969 L 4.332031 1.332031 Z M 12 1.332031 "/>
</g>
</svg>
