<?xml version="1.0" encoding="UTF-8"?>
<svg xmlns="http://www.w3.org/2000/svg" xmlns:xlink="http://www.w3.org/1999/xlink" width="16" height="16" viewBox="0 0 16 16" version="1.1">
<g id="surface1">
<path style=" stroke:none;fill-rule:nonzero;fill:rgb(100%,100%,100%);fill-opacity:1;" d="M 8 10 C 10.71875 10 12.964844 12.035156 13.292969 14.667969 L 2.707031 14.667969 C 3.035156 12.035156 5.28125 10 8 10 Z M 6.792969 11.519531 C 5.835938 11.824219 5.03125 12.476562 4.535156 13.332031 L 8 13.332031 Z M 9.210938 11.519531 L 8 13.332031 L 11.464844 13.332031 C 10.96875 12.476562 10.164062 11.824219 9.210938 11.519531 Z M 12 1.332031 L 12 5.332031 C 12 7.542969 10.210938 9.332031 8 9.332031 C 5.789062 9.332031 4 7.542969 4 5.332031 L 4 1.332031 Z M 5.332031 5.332031 C 5.332031 6.808594 6.527344 8 8 8 C 9.472656 8 10.667969 6.808594 10.667969 5.332031 Z M 10.667969 2.667969 L 5.332031 2.667969 L 5.332031 4 L 10.667969 4 Z M 10.667969 2.667969 "/>
</g>
</svg>
