<?xml version="1.0" encoding="UTF-8"?>
<svg xmlns="http://www.w3.org/2000/svg" xmlns:xlink="http://www.w3.org/1999/xlink" width="16" height="16" viewBox="0 0 16 16" version="1.1">
<g id="surface1">
<path style=" stroke:none;fill-rule:nonzero;fill:rgb(100%,100%,100%);fill-opacity:1;" d="M 6.046875 4.667969 L 4 7.738281 L 4 13.332031 L 12 13.332031 L 12 4.667969 Z M 5.332031 3.332031 L 12.667969 3.332031 C 13.035156 3.332031 13.332031 3.632812 13.332031 4 L 13.332031 14 C 13.332031 14.367188 13.035156 14.667969 12.667969 14.667969 L 3.332031 14.667969 C 2.964844 14.667969 2.667969 14.367188 2.667969 14 L 2.667969 7.332031 Z M 8.667969 0.667969 L 12 0.667969 C 12.367188 0.667969 12.667969 0.964844 12.667969 1.332031 L 12.667969 2.667969 L 8 2.667969 L 8 1.332031 C 8 0.964844 8.296875 0.667969 8.667969 0.667969 Z M 5.332031 8 L 6.667969 8 L 6.667969 12 L 5.332031 12 Z M 5.332031 8 "/>
</g>
</svg>
