<?xml version="1.0" encoding="UTF-8"?>
<svg xmlns="http://www.w3.org/2000/svg" xmlns:xlink="http://www.w3.org/1999/xlink" width="16" height="16" viewBox="0 0 16 16" version="1.1">
<g id="surface1">
<path style=" stroke:none;fill-rule:nonzero;fill:rgb(100%,100%,100%);fill-opacity:1;" d="M 10 2 C 10.367188 2 10.667969 2.296875 10.667969 2.667969 L 10.667969 5.332031 C 10.667969 5.703125 10.367188 6 10 6 L 8.667969 6 L 8.667969 7.332031 L 11.332031 7.332031 C 11.703125 7.332031 12 7.632812 12 8 L 12 10 L 13.332031 10 C 13.703125 10 14 10.296875 14 10.667969 L 14 13.332031 C 14 13.703125 13.703125 14 13.332031 14 L 9.332031 14 C 8.964844 14 8.667969 13.703125 8.667969 13.332031 L 8.667969 10.667969 C 8.667969 10.296875 8.964844 10 9.332031 10 L 10.667969 10 L 10.667969 8.667969 L 5.332031 8.667969 L 5.332031 10 L 6.667969 10 C 7.035156 10 7.332031 10.296875 7.332031 10.667969 L 7.332031 13.332031 C 7.332031 13.703125 7.035156 14 6.667969 14 L 2.667969 14 C 2.296875 14 2 13.703125 2 13.332031 L 2 10.667969 C 2 10.296875 2.296875 10 2.667969 10 L 4 10 L 4 8 C 4 7.632812 4.296875 7.332031 4.667969 7.332031 L 7.332031 7.332031 L 7.332031 6 L 6 6 C 5.632812 6 5.332031 5.703125 5.332031 5.332031 L 5.332031 2.667969 C 5.332031 2.296875 5.632812 2 6 2 Z M 6 11.332031 L 3.332031 11.332031 L 3.332031 12.667969 L 6 12.667969 Z M 12.667969 11.332031 L 10 11.332031 L 10 12.667969 L 12.667969 12.667969 Z M 9.332031 3.332031 L 6.667969 3.332031 L 6.667969 4.667969 L 9.332031 4.667969 Z M 9.332031 3.332031 "/>
</g>
</svg>
