<?xml version="1.0" encoding="UTF-8"?>
<svg xmlns="http://www.w3.org/2000/svg" xmlns:xlink="http://www.w3.org/1999/xlink" width="16" height="16" viewBox="0 0 16 16" version="1.1">
<g id="surface1">
<path style=" stroke:none;fill-rule:nonzero;fill:rgb(100%,100%,100%);fill-opacity:1;" d="M 12.820312 12.488281 L 13.996094 11.308594 L 15.175781 12.488281 C 15.828125 13.140625 15.828125 14.195312 15.175781 14.84375 C 14.523438 15.496094 13.46875 15.496094 12.820312 14.84375 C 12.167969 14.195312 12.167969 13.140625 12.820312 12.488281 Z M 5.917969 0.71875 L 13.460938 8.261719 C 13.585938 8.386719 13.65625 8.558594 13.65625 8.734375 C 13.65625 8.910156 13.585938 9.082031 13.460938 9.207031 L 7.804688 14.863281 C 7.542969 15.121094 7.121094 15.121094 6.863281 14.863281 L 1.207031 9.207031 C 1.082031 9.082031 1.011719 8.910156 1.011719 8.734375 C 1.011719 8.558594 1.082031 8.386719 1.207031 8.261719 L 6.390625 3.078125 L 4.976562 1.664062 L 5.921875 0.71875 Z M 7.332031 4.019531 L 2.621094 8.734375 L 12.046875 8.734375 Z M 7.332031 4.019531 "/>
</g>
</svg>
