<?xml version="1.0" encoding="UTF-8"?>
<svg xmlns="http://www.w3.org/2000/svg" xmlns:xlink="http://www.w3.org/1999/xlink" width="16" height="16" viewBox="0 0 16 16" version="1.1">
<g id="surface1">
<path style=" stroke:none;fill-rule:nonzero;fill:rgb(100%,100%,100%);fill-opacity:1;" d="M 4.667969 7.332031 C 3.011719 7.332031 1.667969 5.988281 1.667969 4.332031 C 1.667969 2.675781 3.011719 1.332031 4.667969 1.332031 C 6.324219 1.332031 7.667969 2.675781 7.667969 4.332031 C 7.667969 5.988281 6.324219 7.332031 4.667969 7.332031 Z M 11.667969 10 C 10.195312 10 9 8.804688 9 7.332031 C 9 5.859375 10.195312 4.667969 11.667969 4.667969 C 13.140625 4.667969 14.332031 5.859375 14.332031 7.332031 C 14.332031 8.804688 13.140625 10 11.667969 10 Z M 11.667969 10.667969 C 13.324219 10.667969 14.667969 12.011719 14.667969 13.667969 L 14.667969 14 L 8.667969 14 L 8.667969 13.667969 C 8.667969 12.011719 10.011719 10.667969 11.667969 10.667969 Z M 4.667969 8 C 6.507812 8 8 9.492188 8 11.332031 L 8 14 L 1.332031 14 L 1.332031 11.332031 C 1.332031 9.492188 2.824219 8 4.667969 8 Z M 4.667969 8 "/>
</g>
</svg>
