<?xml version="1.0" encoding="UTF-8"?>
<svg xmlns="http://www.w3.org/2000/svg" xmlns:xlink="http://www.w3.org/1999/xlink" width="16" height="16" viewBox="0 0 16 16" version="1.1">
<g id="surface1">
<path style=" stroke:none;fill-rule:nonzero;fill:rgb(100%,100%,100%);fill-opacity:1;" d="M 7.332031 9.332031 L 8.332031 9.332031 C 9.621094 9.332031 10.667969 8.289062 10.667969 7 C 10.667969 5.710938 9.621094 4.667969 8.332031 4.667969 L 6 4.667969 L 6 11.332031 L 7.332031 11.332031 Z M 2.667969 2 L 13.332031 2 C 13.703125 2 14 2.296875 14 2.667969 L 14 13.332031 C 14 13.703125 13.703125 14 13.332031 14 L 2.667969 14 C 2.296875 14 2 13.703125 2 13.332031 L 2 2.667969 C 2 2.296875 2.296875 2 2.667969 2 Z M 7.332031 6 L 8.332031 6 C 8.886719 6 9.332031 6.449219 9.332031 7 C 9.332031 7.550781 8.886719 8 8.332031 8 L 7.332031 8 Z M 7.332031 6 "/>
</g>
</svg>
