<?xml version="1.0" encoding="UTF-8"?>
<svg xmlns="http://www.w3.org/2000/svg" xmlns:xlink="http://www.w3.org/1999/xlink" width="16" height="16" viewBox="0 0 16 16" version="1.1">
<g id="surface1">
<path style=" stroke:none;fill-rule:nonzero;fill:rgb(100%,100%,100%);fill-opacity:1;" d="M 12.28125 0.015625 C 11.414062 0.015625 10.546875 0.34375 9.882812 1.007812 C 9.265625 1.625 8.9375 2.375 8.890625 3.28125 C 8.867188 3.792969 8.992188 4.386719 9.25 4.925781 C 9.296875 5.03125 9.851562 6.015625 10.484375 7.109375 C 11.539062 8.929688 11.679688 9.164062 11.824219 9.257812 L 11.824219 12.015625 C 11.824219 13.804688 10.804688 14.511719 9.824219 14.511719 C 8.84375 14.511719 7.820312 13.804688 7.820312 12.015625 L 7.820312 4.015625 C 7.820312 1.804688 6.34375 0.515625 4.828125 0.515625 C 3.308594 0.515625 1.820312 1.804688 1.820312 4.015625 L 1.820312 12.09375 C 0.289062 12.453125 -0.183594 14.597656 1.097656 15.546875 C 2.328125 16.585938 4.351562 15.609375 4.296875 13.992188 C 4.304688 13.070312 3.65625 12.3125 2.828125 12.085938 L 2.828125 4.015625 C 2.828125 2.222656 3.84375 1.511719 4.828125 1.511719 C 5.808594 1.511719 6.828125 2.222656 6.828125 4.015625 L 6.828125 12.015625 C 6.828125 14.226562 8.304688 15.515625 9.824219 15.515625 C 11.34375 15.515625 12.820312 14.226562 12.820312 12.015625 L 12.820312 9.179688 C 12.867188 9.132812 12.914062 9.085938 12.945312 9.03125 C 13.125 8.757812 15.226562 5.101562 15.320312 4.910156 C 15.71875 4.074219 15.773438 3.164062 15.484375 2.3125 C 15.320312 1.8125 15.050781 1.386719 14.671875 1.007812 C 14.011719 0.34375 13.148438 0.015625 12.28125 0.015625 Z M 12.277344 1.945312 C 12.519531 1.945312 12.554688 1.945312 12.679688 1.992188 C 12.867188 2.0625 13.019531 2.160156 13.15625 2.300781 C 13.296875 2.445312 13.382812 2.578125 13.445312 2.757812 C 13.648438 3.34375 13.382812 4.007812 12.828125 4.269531 C 12.734375 4.3125 12.617188 4.359375 12.570312 4.371094 C 12.445312 4.398438 12.210938 4.410156 12.09375 4.390625 C 11.617188 4.320312 11.226562 3.96875 11.089844 3.5 C 11.039062 3.320312 11.03125 3.046875 11.078125 2.871094 C 11.183594 2.457031 11.46875 2.144531 11.875 1.992188 C 12 1.949219 12.03125 1.945312 12.277344 1.945312 Z M 2.292969 13.011719 L 2.351562 13.011719 C 2.847656 13.035156 3.328125 13.480469 3.3125 13.984375 C 3.3125 14 3.3125 14.011719 3.3125 14.023438 C 3.351562 14.773438 2.289062 15.285156 1.726562 14.789062 C 1.710938 14.777344 1.703125 14.765625 1.6875 14.753906 C 1.078125 14.320312 1.335938 13.175781 2.070312 13.039062 C 2.085938 13.039062 2.097656 13.039062 2.109375 13.035156 C 2.171875 13.019531 2.230469 13.015625 2.292969 13.011719 Z M 2.292969 13.011719 "/>
</g>
</svg>
