<?xml version="1.0" encoding="UTF-8"?>
<svg xmlns="http://www.w3.org/2000/svg" xmlns:xlink="http://www.w3.org/1999/xlink" width="16" height="16" viewBox="0 0 16 16" version="1.1">
<g id="surface1">
<path style=" stroke:none;fill-rule:nonzero;fill:rgb(100%,100%,100%);fill-opacity:1;" d="M 10 11.332031 C 7.238281 11.332031 5 9.09375 5 6.332031 C 5 3.570312 7.238281 1.332031 10 1.332031 C 12.761719 1.332031 15 3.570312 15 6.332031 C 15 9.09375 12.761719 11.332031 10 11.332031 Z M 10 10 C 12.023438 10 13.667969 8.359375 13.667969 6.332031 C 13.667969 4.308594 12.023438 2.667969 10 2.667969 C 7.976562 2.667969 6.332031 4.308594 6.332031 6.332031 C 6.332031 8.359375 7.976562 10 10 10 Z M 1.332031 1.332031 L 4.667969 1.332031 L 4.667969 14.667969 L 1.332031 14.667969 Z M 2.667969 2.667969 L 2.667969 13.332031 L 3.332031 13.332031 L 3.332031 2.667969 Z M 2.667969 2.667969 "/>
</g>
</svg>
