<?xml version="1.0" encoding="UTF-8"?>
<svg xmlns="http://www.w3.org/2000/svg" xmlns:xlink="http://www.w3.org/1999/xlink" width="16" height="16" viewBox="0 0 16 16" version="1.1">
<g id="surface1">
<path style=" stroke:none;fill-rule:nonzero;fill:rgb(100%,100%,100%);fill-opacity:1;" d="M 13.378906 5.652344 C 13.707031 6.238281 13.75 6.996094 13.578125 7.871094 C 13.085938 10.40625 11.394531 11.285156 9.234375 11.285156 L 8.902344 11.285156 C 8.636719 11.285156 8.414062 11.476562 8.371094 11.738281 L 8.347656 11.882812 L 7.925781 14.546875 L 7.90625 14.660156 C 7.863281 14.917969 7.640625 15.109375 7.375 15.113281 L 5.148438 15.113281 C 5.050781 15.109375 4.964844 15.070312 4.902344 15 C 4.839844 14.925781 4.8125 14.832031 4.828125 14.738281 L 4.945312 14 L 5.957031 14 L 6.589844 9.988281 L 7.515625 9.988281 C 10.632812 9.988281 12.679688 8.519531 13.378906 5.652344 Z M 11.40625 2.257812 C 11.914062 2.835938 12.058594 3.464844 11.90625 4.449219 C 11.894531 4.53125 11.878906 4.609375 11.863281 4.6875 C 11.375 7.203125 9.804688 8.320312 7.226562 8.320312 L 5.972656 8.320312 C 5.550781 8.320312 5.1875 8.59375 5.070312 8.988281 L 5.058594 8.984375 L 4.4375 12.914062 L 2.082031 12.914062 C 2.070312 12.914062 2.0625 12.910156 2.054688 12.902344 C 2.046875 12.894531 2.046875 12.886719 2.046875 12.875 L 3.78125 1.867188 C 3.828125 1.5625 4.09375 1.332031 4.40625 1.332031 L 8.386719 1.332031 C 9.84375 1.332031 10.867188 1.644531 11.402344 2.257812 Z M 11.40625 2.257812 "/>
</g>
</svg>
