<?xml version="1.0" encoding="UTF-8"?>
<svg xmlns="http://www.w3.org/2000/svg" xmlns:xlink="http://www.w3.org/1999/xlink" width="16" height="16" viewBox="0 0 16 16" version="1.1">
<g id="surface1">
<path style=" stroke:none;fill-rule:nonzero;fill:rgb(100%,100%,100%);fill-opacity:1;" d="M 5.664062 13.777344 L 6.699219 13.777344 L 7.054688 11.527344 C 7.199219 10.617188 7.984375 9.949219 8.902344 9.949219 L 9.234375 9.949219 C 11.019531 9.949219 11.941406 9.292969 12.269531 7.613281 C 12.40625 6.902344 12.347656 6.460938 12.15625 6.214844 C 11.351562 8.25 9.628906 8.988281 7.515625 8.988281 L 6.925781 8.988281 C 6.667969 8.988281 6.394531 9.125 6.355469 9.375 Z M 2.367188 13.582031 C 2.261719 13.582031 2.15625 13.535156 2.089844 13.453125 C 2.019531 13.371094 1.988281 13.261719 2.003906 13.15625 L 3.785156 1.851562 C 3.832031 1.550781 4.089844 1.332031 4.394531 1.332031 L 8.675781 1.332031 C 10.152344 1.332031 11.304688 1.644531 11.941406 2.371094 C 12.523438 3.03125 12.691406 3.761719 12.523438 4.832031 C 12.761719 4.960938 12.96875 5.117188 13.132812 5.304688 C 13.679688 5.925781 13.785156 6.8125 13.578125 7.871094 C 13.085938 10.40625 11.394531 11.285156 9.234375 11.285156 L 8.902344 11.285156 C 8.640625 11.285156 8.414062 11.476562 8.375 11.738281 L 7.90625 14.660156 C 7.863281 14.917969 7.640625 15.109375 7.375 15.113281 L 4.480469 15.113281 C 4.386719 15.109375 4.296875 15.070312 4.234375 15 C 4.175781 14.925781 4.148438 14.832031 4.160156 14.738281 L 4.34375 13.582031 Z M 6.925781 7.652344 L 7.515625 7.652344 C 9.640625 7.652344 10.777344 6.84375 11.167969 4.832031 C 11.183594 4.765625 11.195312 4.699219 11.203125 4.628906 C 11.316406 3.921875 11.238281 3.59375 10.9375 3.253906 C 10.628906 2.898438 9.871094 2.667969 8.675781 2.667969 L 5.007812 2.667969 L 3.496094 12.25 L 4.539062 12.25 L 5.023438 9.164062 L 5.03125 9.164062 C 5.230469 8.28125 6.019531 7.652344 6.925781 7.652344 Z M 6.925781 7.652344 "/>
</g>
</svg>
