<?xml version="1.0" encoding="UTF-8"?>
<svg xmlns="http://www.w3.org/2000/svg" xmlns:xlink="http://www.w3.org/1999/xlink" width="16" height="16" viewBox="0 0 16 16" version="1.1">
<g id="surface1">
<path style=" stroke:none;fill-rule:nonzero;fill:rgb(100%,100%,100%);fill-opacity:1;" d="M 3 0 C 2.175781 0 1.5 0.675781 1.5 1.5 L 1.5 7.5 C 1.5 8.273438 1.8125 9.011719 2.359375 9.558594 L 3.148438 10.359375 C 3.5625 10.773438 4.125 11 4.710938 11 L 11 11 C 11.773438 11 12.515625 10.695312 13.0625 10.148438 L 13.648438 9.558594 C 14.195312 9.011719 14.5 8.273438 14.5 7.5 L 14.5 1.5 C 14.5 0.675781 13.824219 0 13 0 Z M 8 2 L 9 2 L 9 4 L 11 4 L 11 2 L 12 2 L 12 7 L 11 7 L 11 5 L 9 5 L 9 7 L 8 7 Z M 4 4 L 7 4 L 7 7 L 5 7 L 5 9 L 4 9 Z M 5 5 L 5 6 L 6 6 L 6 5 Z M 5 11 L 5 13 L 6 13 L 6 16 L 10 16 L 10 13 L 11 13 L 11 11 L 10 11 L 10 12 L 6 12 L 6 11 Z M 5 11 "/>
</g>
</svg>
