<?xml version="1.0" encoding="UTF-8"?>
<svg xmlns="http://www.w3.org/2000/svg" xmlns:xlink="http://www.w3.org/1999/xlink" width="16" height="16" viewBox="0 0 16 16" version="1.1">
<g id="surface1">
<path style=" stroke:none;fill-rule:nonzero;fill:rgb(100%,100%,100%);fill-opacity:1;" d="M 6.242188 7.121094 C 6.871094 8.21875 7.78125 9.128906 8.878906 9.757812 L 9.46875 8.929688 C 9.664062 8.65625 10.035156 8.570312 10.332031 8.734375 C 11.273438 9.25 12.316406 9.558594 13.386719 9.644531 C 13.734375 9.671875 14 9.960938 14 10.308594 L 14 13.28125 C 14 13.625 13.742188 13.910156 13.402344 13.945312 C 13.046875 13.980469 12.691406 14 12.332031 14 C 6.625 14 2 9.375 2 3.667969 C 2 3.308594 2.019531 2.953125 2.054688 2.597656 C 2.089844 2.257812 2.375 2 2.71875 2 L 5.691406 2 C 6.039062 2 6.328125 2.265625 6.355469 2.613281 C 6.441406 3.683594 6.75 4.726562 7.265625 5.667969 C 7.429688 5.964844 7.34375 6.335938 7.070312 6.53125 Z M 4.5625 6.683594 L 5.828125 5.777344 C 5.46875 5.003906 5.222656 4.179688 5.097656 3.332031 L 3.339844 3.332031 C 3.335938 3.445312 3.335938 3.554688 3.335938 3.667969 C 3.332031 8.636719 7.363281 12.667969 12.332031 12.667969 C 12.445312 12.667969 12.554688 12.664062 12.667969 12.660156 L 12.667969 10.902344 C 11.820312 10.777344 10.996094 10.53125 10.222656 10.171875 L 9.316406 11.4375 C 8.953125 11.296875 8.597656 11.128906 8.257812 10.9375 L 8.21875 10.914062 C 6.910156 10.171875 5.828125 9.089844 5.085938 7.78125 L 5.0625 7.742188 C 4.871094 7.402344 4.703125 7.046875 4.5625 6.683594 Z M 4.5625 6.683594 "/>
</g>
</svg>
