<?xml version="1.0" encoding="UTF-8"?>
<svg xmlns="http://www.w3.org/2000/svg" xmlns:xlink="http://www.w3.org/1999/xlink" width="16" height="16" viewBox="0 0 16 16" version="1.1">
<g id="surface1">
<path style=" stroke:none;fill-rule:nonzero;fill:rgb(100%,100%,100%);fill-opacity:1;" d="M 8.914062 1.394531 C 5.613281 0.941406 2.488281 2.992188 1.585938 6.195312 C 0.683594 9.402344 2.285156 12.78125 5.335938 14.113281 C 5.292969 13.601562 5.332031 13.085938 5.441406 12.585938 C 5.566406 12.023438 6.308594 8.941406 6.308594 8.941406 C 6.160156 8.613281 6.085938 8.253906 6.089844 7.890625 C 6.089844 6.902344 6.664062 6.164062 7.375 6.164062 C 7.632812 6.160156 7.878906 6.269531 8.050781 6.460938 C 8.222656 6.652344 8.300781 6.910156 8.269531 7.167969 C 8.269531 7.769531 7.882812 8.675781 7.679688 9.527344 C 7.601562 9.84375 7.675781 10.179688 7.882812 10.433594 C 8.089844 10.6875 8.40625 10.828125 8.730469 10.808594 C 9.996094 10.808594 10.84375 9.1875 10.84375 7.277344 C 10.84375 5.808594 9.875 4.710938 8.082031 4.710938 C 7.21875 4.675781 6.375 5 5.753906 5.605469 C 5.132812 6.207031 4.785156 7.039062 4.796875 7.90625 C 4.777344 8.382812 4.929688 8.847656 5.226562 9.21875 C 5.34375 9.304688 5.386719 9.457031 5.335938 9.589844 C 5.304688 9.710938 5.226562 10.003906 5.199219 10.113281 C 5.183594 10.1875 5.136719 10.25 5.070312 10.28125 C 5.003906 10.316406 4.925781 10.316406 4.855469 10.28125 C 3.933594 9.910156 3.5 8.898438 3.5 7.738281 C 3.5 5.839844 5.089844 3.566406 8.269531 3.566406 C 10.800781 3.566406 12.484375 5.417969 12.484375 7.398438 C 12.484375 10.003906 11.03125 11.964844 8.886719 11.964844 C 8.234375 11.984375 7.617188 11.671875 7.25 11.132812 C 7.25 11.132812 6.867188 12.675781 6.789062 12.96875 C 6.632812 13.472656 6.40625 13.953125 6.109375 14.390625 C 6.726562 14.578125 7.363281 14.671875 8.007812 14.667969 C 9.777344 14.667969 11.472656 13.964844 12.722656 12.714844 C 13.972656 11.464844 14.675781 9.765625 14.671875 8 C 14.667969 4.667969 12.210938 1.851562 8.914062 1.398438 Z M 8.914062 1.394531 "/>
</g>
</svg>
