<?xml version="1.0" encoding="UTF-8"?>
<svg xmlns="http://www.w3.org/2000/svg" xmlns:xlink="http://www.w3.org/1999/xlink" width="16" height="16" viewBox="0 0 16 16" version="1.1">
<g id="surface1">
<path style=" stroke:none;fill-rule:nonzero;fill:rgb(100%,100%,100%);fill-opacity:1;" d="M 11.957031 2.023438 L 13.109375 2.691406 L 12.355469 4 L 14 4 L 14 5.332031 L 12.667969 5.332031 L 12.667969 8 L 14 8 L 14 9.332031 L 12.667969 9.332031 L 12.667969 14 L 11.332031 14 L 11.332031 9.332031 L 9.277344 9.332031 C 9.0625 11.242188 8.234375 12.929688 7.03125 14.128906 L 5.988281 13.28125 C 7.003906 12.324219 7.71875 10.933594 7.933594 9.335938 L 6.667969 9.332031 L 6.667969 8 L 8 8 L 8 5.332031 L 6.667969 5.332031 L 6.667969 4 L 8.3125 4 L 7.554688 2.691406 L 8.710938 2.023438 L 9.851562 4 L 10.8125 4 Z M 3.332031 9.203125 L 2 9.558594 L 2 8.179688 L 3.332031 7.820312 L 3.332031 5.332031 L 2 5.332031 L 2 4 L 3.332031 4 L 3.332031 2 L 4.667969 2 L 4.667969 4 L 6 4 L 6 5.332031 L 4.667969 5.332031 L 4.667969 7.464844 L 6 7.105469 L 6 8.488281 L 4.667969 8.84375 L 4.667969 12.332031 C 4.667969 13.253906 3.921875 14 3 14 L 2 14 L 2 12.667969 L 3 12.667969 C 3.160156 12.667969 3.300781 12.550781 3.328125 12.394531 L 3.332031 12.332031 Z M 11.332031 5.332031 L 9.332031 5.332031 L 9.332031 8 L 11.332031 8 Z M 11.332031 5.332031 "/>
</g>
</svg>
