<?xml version="1.0" encoding="UTF-8"?>
<svg xmlns="http://www.w3.org/2000/svg" xmlns:xlink="http://www.w3.org/1999/xlink" width="16" height="16" viewBox="0 0 16 16" version="1.1">
<g id="surface1">
<path style=" stroke:none;fill-rule:nonzero;fill:rgb(100%,100%,100%);fill-opacity:1;" d="M 15.054688 11.339844 C 14.769531 11.703125 14.066406 11.960938 14.066406 11.960938 L 8.847656 13.839844 L 8.847656 12.453125 L 12.6875 11.082031 C 13.125 10.925781 13.191406 10.703125 12.835938 10.589844 C 12.484375 10.472656 11.84375 10.503906 11.40625 10.664062 L 8.847656 11.566406 L 8.847656 10.128906 L 8.992188 10.078125 C 8.992188 10.078125 9.734375 9.816406 10.773438 9.699219 C 11.8125 9.585938 13.089844 9.714844 14.089844 10.097656 C 15.214844 10.453125 15.34375 10.976562 15.054688 11.339844 Z M 9.34375 8.984375 L 9.34375 5.441406 C 9.34375 5.023438 9.265625 4.644531 8.875 4.535156 C 8.578125 4.4375 8.394531 4.714844 8.394531 5.132812 L 8.394531 14 L 6.003906 13.242188 L 6.003906 2.667969 C 7.019531 2.855469 8.5 3.300781 9.296875 3.570312 C 11.320312 4.265625 12.003906 5.132812 12.003906 7.082031 C 12.003906 8.980469 10.832031 9.703125 9.34375 8.984375 Z M 1.621094 12.308594 C 0.464844 11.984375 0.269531 11.300781 0.796875 10.910156 C 1.285156 10.550781 2.113281 10.277344 2.113281 10.277344 L 5.539062 9.058594 L 5.539062 10.449219 L 3.074219 11.332031 C 2.640625 11.488281 2.574219 11.710938 2.925781 11.824219 C 3.28125 11.941406 3.921875 11.910156 4.359375 11.753906 L 5.539062 11.324219 L 5.539062 12.566406 L 5.304688 12.605469 C 4.121094 12.800781 2.863281 12.71875 1.621094 12.308594 Z M 1.621094 12.308594 "/>
</g>
</svg>
