<?xml version="1.0" encoding="UTF-8"?>
<svg xmlns="http://www.w3.org/2000/svg" xmlns:xlink="http://www.w3.org/1999/xlink" width="16" height="16" viewBox="0 0 16 16" version="1.1">
<g id="surface1">
<path style=" stroke:none;fill-rule:nonzero;fill:rgb(100%,100%,100%);fill-opacity:1;" d="M 2.5 -0.00390625 C 2.226562 -0.00390625 2 0.222656 2 0.5 L 2 6.671875 C 0.800781 7.09375 0 8.226562 0 9.5 L 0 12.5 C 0 13.054688 0.445312 13.5 1 13.5 L 2 13.5 L 2 15.5 C 2 15.777344 2.226562 16.003906 2.5 16 L 13.5 16 C 13.78125 16.003906 14.007812 15.777344 14.003906 15.5 L 14.003906 13.5 L 15 13.5 C 15.554688 13.5 16 13.054688 16 12.5 L 16 9.5 C 16 8.230469 15.203125 7.101562 14.003906 6.671875 L 14.003906 2.5 C 14.003906 2.367188 13.949219 2.242188 13.855469 2.148438 L 11.855469 0.148438 C 11.761719 0.0546875 11.632812 -0.00390625 11.5 -0.00390625 Z M 2.996094 1 L 11 1 L 11 3 L 13 3 L 13 7 L 3 7 L 3 6.5 L 2.996094 6.5 Z M 14 8 C 14.554688 8 15 8.445312 15 9 C 15 9.554688 14.554688 10 14 10 C 13.445312 10 13 9.554688 13 9 C 13 8.445312 13.445312 8 14 8 Z M 3 12 L 13 12 L 13 15 L 2.996094 15 L 2.996094 13.5 L 3 13.5 Z M 3 12 "/>
</g>
</svg>
