<?xml version="1.0" encoding="UTF-8"?>
<svg xmlns="http://www.w3.org/2000/svg" xmlns:xlink="http://www.w3.org/1999/xlink" width="16" height="16" viewBox="0 0 16 16" version="1.1">
<g id="surface1">
<path style=" stroke:none;fill-rule:nonzero;fill:rgb(100%,100%,100%);fill-opacity:1;" d="M 14.667969 12.667969 L 14.667969 14 L 13.332031 14 L 13.332031 12.667969 L 2.667969 12.667969 L 2.667969 14 L 1.332031 14 L 1.332031 12.667969 C 0.964844 12.667969 0.667969 12.367188 0.667969 12 L 0.667969 4 C 0.667969 3.632812 0.964844 3.332031 1.332031 3.332031 L 8.351562 3.332031 C 9.109375 2.484375 10.195312 2 11.332031 2 C 12.519531 2 13.582031 2.515625 14.316406 3.332031 L 14.667969 3.332031 C 15.035156 3.332031 15.332031 3.632812 15.332031 4 L 15.332031 12 C 15.332031 12.367188 15.035156 12.667969 14.667969 12.667969 Z M 7.5625 4.667969 L 2 4.667969 L 2 11.332031 L 14 11.332031 L 14 8.980469 C 12.636719 10.199219 10.625 10.34375 9.105469 9.324219 C 7.585938 8.308594 6.949219 6.390625 7.5625 4.667969 Z M 11.332031 8.667969 C 12.804688 8.667969 14 7.472656 14 6 C 14 4.527344 12.804688 3.332031 11.332031 3.332031 C 9.859375 3.332031 8.667969 4.527344 8.667969 6 C 8.667969 7.472656 9.859375 8.667969 11.332031 8.667969 Z M 3.332031 8.667969 L 4.667969 8.667969 L 4.667969 10 L 3.332031 10 Z M 5.332031 8.667969 L 6.667969 8.667969 L 6.667969 10 L 5.332031 10 Z M 5.332031 8.667969 "/>
</g>
</svg>
