<?xml version="1.0" encoding="UTF-8"?>
<svg xmlns="http://www.w3.org/2000/svg" xmlns:xlink="http://www.w3.org/1999/xlink" width="16" height="16" viewBox="0 0 16 16" version="1.1">
<g id="surface1">
<path style=" stroke:none;fill-rule:nonzero;fill:rgb(100%,100%,100%);fill-opacity:1;" d="M 7.40625 8 C 7.722656 9.363281 8.933594 10.332031 10.332031 10.332031 C 11.730469 10.332031 12.945312 9.363281 13.257812 8 L 14.667969 8 L 14.667969 13.332031 C 14.667969 13.703125 14.367188 14 14 14 L 2 14 C 1.632812 14 1.332031 13.703125 1.332031 13.332031 L 1.332031 8 Z M 3.332031 10.667969 L 4.667969 10.667969 L 4.667969 12 L 3.332031 12 Z M 10.332031 9 C 9.414062 9 8.667969 8.253906 8.667969 7.332031 C 8.667969 6.414062 9.414062 5.667969 10.332031 5.667969 C 11.253906 5.667969 12 6.414062 12 7.332031 C 12 8.253906 11.253906 9 10.332031 9 Z M 7.40625 6.667969 L 1.332031 6.667969 L 1.332031 2.667969 C 1.332031 2.296875 1.632812 2 2 2 L 14 2 C 14.367188 2 14.667969 2.296875 14.667969 2.667969 L 14.667969 6.667969 L 13.257812 6.667969 C 12.945312 5.304688 11.730469 4.335938 10.332031 4.335938 C 8.933594 4.335938 7.722656 5.304688 7.40625 6.667969 Z M 7.40625 6.667969 "/>
</g>
</svg>
