<?xml version="1.0" encoding="UTF-8"?>
<svg xmlns="http://www.w3.org/2000/svg" xmlns:xlink="http://www.w3.org/1999/xlink" width="16" height="16" viewBox="0 0 16 16" version="1.1">
<g id="surface1">
<path style=" stroke:none;fill-rule:nonzero;fill:rgb(100%,100%,100%);fill-opacity:1;" d="M 3.84375 11.332031 L 13.332031 11.332031 L 13.332031 3.332031 L 2.667969 3.332031 L 2.667969 12.257812 Z M 4.304688 12.667969 L 1.332031 15 L 1.332031 2.667969 C 1.332031 2.296875 1.632812 2 2 2 L 14 2 C 14.367188 2 14.667969 2.296875 14.667969 2.667969 L 14.667969 12 C 14.667969 12.367188 14.367188 12.667969 14 12.667969 Z M 7.332031 9.332031 L 8.667969 9.332031 L 8.667969 10.667969 L 7.332031 10.667969 Z M 5.710938 5.875 C 5.953125 4.667969 7.085938 3.859375 8.304688 4.019531 C 9.523438 4.179688 10.410156 5.257812 10.328125 6.484375 C 10.25 7.714844 9.230469 8.667969 8 8.667969 L 7.332031 8.667969 L 7.332031 7.332031 L 8 7.332031 C 8.527344 7.332031 8.964844 6.925781 8.996094 6.398438 C 9.03125 5.875 8.652344 5.410156 8.132812 5.34375 C 7.609375 5.273438 7.121094 5.621094 7.019531 6.136719 Z M 5.710938 5.875 "/>
</g>
</svg>
