<?xml version="1.0" encoding="UTF-8"?>
<svg xmlns="http://www.w3.org/2000/svg" xmlns:xlink="http://www.w3.org/1999/xlink" width="16" height="16" viewBox="0 0 16 16" version="1.1">
<g id="surface1">
<path style=" stroke:none;fill-rule:nonzero;fill:rgb(100%,100%,100%);fill-opacity:1;" d="M 9.992188 0.5 C 9.917969 0.5 9.84375 0.515625 9.773438 0.554688 L 8 1.4375 L 6.222656 0.554688 C 6.082031 0.484375 5.921875 0.484375 5.78125 0.554688 L 4 1.4375 L 2.21875 0.554688 C 2.152344 0.519531 2.078125 0.5 2 0.5 C 1.726562 0.5 1.5 0.71875 1.5 0.996094 L 1.5 15 C 1.496094 15.171875 1.585938 15.335938 1.734375 15.429688 C 1.882812 15.519531 2.0625 15.53125 2.21875 15.453125 L 4 14.554688 L 5.78125 15.453125 C 5.921875 15.519531 6.082031 15.519531 6.222656 15.453125 L 8 14.554688 L 9.773438 15.453125 C 9.914062 15.523438 10.082031 15.523438 10.222656 15.453125 L 12 14.554688 L 13.773438 15.453125 C 13.929688 15.53125 14.117188 15.523438 14.261719 15.429688 C 14.410156 15.335938 14.5 15.171875 14.5 15 L 14.5 0.996094 C 14.496094 0.820312 14.40625 0.664062 14.257812 0.570312 C 14.109375 0.484375 13.929688 0.476562 13.773438 0.554688 L 12 1.4375 L 10.222656 0.554688 C 10.152344 0.515625 10.074219 0.5 9.992188 0.5 Z M 6 1.554688 L 7.78125 2.453125 C 7.921875 2.519531 8.082031 2.519531 8.222656 2.453125 L 10 1.554688 L 11.773438 2.453125 C 11.914062 2.523438 12.082031 2.523438 12.226562 2.453125 L 13.5 1.808594 L 13.5 14.1875 L 12.226562 13.554688 C 12.082031 13.480469 11.914062 13.480469 11.773438 13.554688 L 10 14.4375 L 8.222656 13.554688 C 8.082031 13.484375 7.921875 13.484375 7.78125 13.554688 L 6 14.4375 L 4.222656 13.554688 C 4.082031 13.484375 3.921875 13.484375 3.78125 13.554688 L 2.5 14.1875 L 2.5 1.808594 L 3.78125 2.453125 C 3.921875 2.519531 4.082031 2.519531 4.222656 2.453125 Z M 8.015625 3.5 C 7.234375 3.5 6.460938 3.703125 5.78125 4.09375 L 8.296875 7.4375 L 12.5 7.4375 C 12.210938 5.1875 10.292969 3.5 8.015625 3.5 Z M 4.875 4.765625 C 3.996094 5.609375 3.5 6.78125 3.5 8 C 3.5 10.484375 5.523438 12.5 8.015625 12.5 C 10.296875 12.5 12.21875 10.8125 12.5 8.5625 L 7.734375 8.5625 Z M 4.875 4.765625 "/>
</g>
</svg>
