<?xml version="1.0" encoding="UTF-8"?>
<svg xmlns="http://www.w3.org/2000/svg" xmlns:xlink="http://www.w3.org/1999/xlink" width="16" height="16" viewBox="0 0 16 16" version="1.1">
<g id="surface1">
<path style=" stroke:none;fill-rule:nonzero;fill:rgb(100%,100%,100%);fill-opacity:1;" d="M 4.625 9.355469 C 4.472656 9.773438 4.339844 10.15625 4.222656 10.546875 C 4.863281 10.082031 5.625 9.785156 6.5 9.675781 C 8.175781 9.46875 9.664062 8.363281 10.417969 6.972656 L 9.449219 6 L 11.058594 4.390625 C 11.34375 4.105469 11.667969 3.574219 12.007812 2.8125 C 8.28125 3.390625 5.996094 5.671875 4.625 9.355469 Z M 11.332031 6 L 12 6.667969 C 11.332031 8.667969 9.332031 10.667969 6.667969 11 C 4.886719 11.222656 3.777344 12.445312 3.332031 14.667969 L 2 14.667969 C 2.667969 10.667969 4 1.332031 14 1.332031 C 13.332031 3.332031 12.667969 4.664062 12.003906 5.332031 Z M 11.332031 6 "/>
</g>
</svg>
