<?xml version="1.0" encoding="UTF-8"?>
<svg xmlns="http://www.w3.org/2000/svg" xmlns:xlink="http://www.w3.org/1999/xlink" width="16" height="16" viewBox="0 0 16 16" version="1.1">
<g id="surface1">
<path style=" stroke:none;fill-rule:nonzero;fill:rgb(100%,100%,100%);fill-opacity:1;" d="M 10.574219 12 L 8.472656 9.898438 C 8.210938 9.636719 7.789062 9.636719 7.527344 9.898438 L 5.453125 11.972656 C 2.9375 11.714844 0.953125 9.722656 0.695312 7.210938 C 0.4375 4.695312 1.980469 2.34375 4.390625 1.582031 C 6.800781 0.820312 9.417969 1.851562 10.652344 4.058594 C 12.140625 3.800781 13.648438 4.40625 14.546875 5.621094 C 15.445312 6.832031 15.582031 8.449219 14.90625 9.800781 C 14.226562 11.148438 12.84375 12 11.332031 12 Z M 6.820312 12.488281 L 8 11.308594 L 9.179688 12.488281 C 9.828125 13.140625 9.828125 14.195312 9.179688 14.84375 C 8.527344 15.496094 7.472656 15.496094 6.820312 14.84375 C 6.171875 14.195312 6.171875 13.140625 6.820312 12.488281 Z M 6.820312 12.488281 "/>
</g>
</svg>
