<?xml version="1.0" encoding="UTF-8"?>
<svg xmlns="http://www.w3.org/2000/svg" xmlns:xlink="http://www.w3.org/1999/xlink" width="16" height="16" viewBox="0 0 16 16" version="1.1">
<g id="surface1">
<path style=" stroke:none;fill-rule:nonzero;fill:rgb(100%,100%,100%);fill-opacity:1;" d="M 10.667969 12 L 10.667969 10.667969 L 11.332031 10.667969 C 12.46875 10.667969 13.480469 9.945312 13.851562 8.875 C 14.222656 7.800781 13.875 6.609375 12.984375 5.90625 C 12.089844 5.203125 10.851562 5.140625 9.894531 5.753906 C 9.4375 3.800781 7.605469 2.492188 5.609375 2.6875 C 3.617188 2.882812 2.074219 4.523438 2.003906 6.527344 C 1.933594 8.53125 3.355469 10.277344 5.332031 10.613281 L 5.332031 11.960938 C 2.539062 11.605469 0.5 9.144531 0.679688 6.332031 C 0.855469 3.523438 3.183594 1.335938 6 1.332031 C 7.929688 1.332031 9.710938 2.375 10.652344 4.058594 C 12.140625 3.800781 13.648438 4.40625 14.546875 5.621094 C 15.445312 6.832031 15.582031 8.449219 14.90625 9.800781 C 14.226562 11.148438 12.84375 12 11.332031 12 Z M 6.820312 12.488281 L 8 11.308594 L 9.179688 12.488281 C 9.828125 13.140625 9.828125 14.195312 9.179688 14.84375 C 8.527344 15.496094 7.472656 15.496094 6.820312 14.84375 C 6.171875 14.195312 6.171875 13.140625 6.820312 12.488281 Z M 6.820312 12.488281 "/>
</g>
</svg>
