<?xml version="1.0" encoding="UTF-8"?>
<svg xmlns="http://www.w3.org/2000/svg" xmlns:xlink="http://www.w3.org/1999/xlink" width="16" height="16" viewBox="0 0 16 16" version="1.1">
<g id="surface1">
<path style=" stroke:none;fill-rule:nonzero;fill:rgb(100%,100%,100%);fill-opacity:1;" d="M 5.046875 0 C 5.109375 0.0976562 5.246094 0.191406 5.113281 0.320312 C 4.949219 0.191406 4.78125 0.09375 4.382812 0.03125 C 4.484375 0.125 4.640625 0.222656 4.546875 0.320312 C 4.34375 0.257812 4.117188 0.195312 3.855469 0.160156 C 3.984375 0.289062 4.085938 0.382812 3.984375 0.449219 C 3.789062 0.351562 3.460938 0.289062 3.164062 0.351562 L 3.355469 0.546875 C 3.386719 0.582031 2.890625 0.578125 2.59375 0.578125 C 2.695312 0.742188 2.828125 0.902344 2.894531 1.160156 C 2.863281 1.191406 2.695312 1.160156 2.566406 1.160156 C 2.695312 1.484375 2.960938 1.539062 3.09375 1.640625 C 2.996094 1.703125 2.867188 1.671875 2.734375 1.640625 C 2.835938 1.863281 3.058594 2.027344 3.226562 2.1875 C 3.191406 2.21875 3.125 2.261719 2.925781 2.226562 C 3.089844 2.421875 3.292969 2.578125 3.523438 2.710938 C 3.460938 2.773438 3.328125 2.765625 3.195312 2.765625 C 3.390625 2.992188 3.660156 3.101562 3.921875 3.226562 C 3.792969 3.324219 3.6875 3.289062 3.585938 3.289062 C 3.75 3.449219 4.054688 3.511719 4.355469 3.609375 C 4.289062 3.703125 4.25 3.703125 4.117188 3.734375 C 4.414062 3.898438 4.875 3.835938 4.976562 3.96875 C 4.976562 4.0625 4.882812 4.125 4.78125 4.15625 C 5.28125 4.15625 6.601562 4.128906 6.863281 3.125 C 6.367188 2.578125 5.4375 1.929688 3.882812 1.160156 C 5.109375 1.546875 6.195312 2.097656 7.125 2.835938 C 8.210938 2.355469 7.453125 1.09375 6.921875 0.578125 C 6.890625 0.710938 6.867188 0.777344 6.832031 0.8125 C 6.667969 0.617188 6.53125 0.421875 6.304688 0.257812 C 6.304688 0.359375 6.367188 0.453125 6.234375 0.546875 C 6.101562 0.390625 5.929688 0.257812 5.734375 0.128906 C 5.832031 0.289062 5.769531 0.355469 5.703125 0.421875 C 5.539062 0.257812 5.375 0.128906 5.046875 0 Z M 10.910156 0 C 10.609375 0.0976562 10.445312 0.257812 10.28125 0.390625 C 10.214844 0.324219 10.148438 0.261719 10.25 0.101562 C 10.054688 0.203125 9.886719 0.34375 9.75 0.519531 C 9.617188 0.453125 9.679688 0.328125 9.679688 0.230469 C 9.449219 0.425781 9.316406 0.585938 9.148438 0.78125 C 9.117188 0.78125 9.085938 0.679688 9.050781 0.546875 C 8.519531 1.039062 7.792969 2.296875 8.921875 2.820312 C 9.851562 2.070312 10.949219 1.5625 12.179688 1.140625 C 10.617188 1.917969 9.679688 2.566406 9.179688 3.117188 C 9.445312 4.125 10.78125 4.179688 11.28125 4.148438 C 11.179688 4.082031 11.113281 4.054688 11.078125 3.957031 C 11.210938 3.890625 11.640625 3.960938 11.9375 3.796875 C 11.804688 3.765625 11.773438 3.765625 11.710938 3.667969 C 11.976562 3.570312 12.304688 3.5 12.46875 3.335938 C 12.371094 3.335938 12.273438 3.375 12.140625 3.277344 C 12.371094 3.148438 12.671875 3.015625 12.867188 2.820312 C 12.734375 2.785156 12.570312 2.789062 12.539062 2.757812 C 12.75 2.609375 12.953125 2.445312 13.140625 2.265625 C 12.972656 2.300781 12.875 2.273438 12.835938 2.238281 C 13.007812 2.042969 13.238281 1.914062 13.335938 1.6875 C 13.203125 1.753906 13.070312 1.753906 12.96875 1.6875 C 13.035156 1.558594 13.304688 1.492188 13.4375 1.171875 C 13.304688 1.171875 13.140625 1.203125 13.109375 1.171875 C 13.175781 0.910156 13.308594 0.742188 13.40625 0.578125 C 13.109375 0.578125 12.640625 0.582031 12.609375 0.546875 L 12.808594 0.359375 C 12.507812 0.296875 12.210938 0.382812 11.976562 0.449219 C 11.878906 0.351562 11.976562 0.257812 12.109375 0.160156 C 11.871094 0.1875 11.636719 0.242188 11.410156 0.320312 C 11.3125 0.222656 11.480469 0.125 11.578125 0.03125 C 11.179688 0.125 11.015625 0.222656 10.851562 0.320312 C 10.71875 0.1875 10.84375 0.0976562 10.910156 0 Z M 8.09375 4.234375 C 7.203125 4.234375 6.3125 4.921875 6.3125 5.296875 C 6.3125 5.773438 7.03125 6.296875 8.09375 6.296875 C 9.1875 6.296875 9.871094 5.921875 9.871094 5.40625 C 9.871094 4.828125 8.875 4.234375 8.09375 4.234375 Z M 5.390625 4.597656 C 4.144531 4.605469 3.175781 5.46875 3.234375 6.90625 C 3.269531 7.554688 6.492188 4.75 5.945312 4.648438 C 5.761719 4.613281 5.578125 4.59375 5.390625 4.597656 Z M 10.632812 4.648438 C 10.445312 4.640625 10.261719 4.65625 10.078125 4.6875 C 9.53125 4.757812 12.742188 7.550781 12.78125 6.9375 C 12.808594 5.53125 11.875 4.679688 10.628906 4.648438 Z M 10 6.398438 C 9.703125 6.394531 9.40625 6.476562 9.148438 6.632812 C 8.367188 7.148438 8.226562 8.335938 8.84375 9.292969 C 9.492188 10.25 10.664062 10.601562 11.449219 10.054688 C 12.234375 9.539062 12.367188 8.34375 11.75 7.382812 C 11.328125 6.75 10.648438 6.390625 10 6.398438 Z M 6.015625 6.476562 C 5.417969 6.527344 4.820312 6.886719 4.433594 7.484375 C 3.785156 8.441406 3.921875 9.640625 4.742188 10.152344 C 5.53125 10.664062 6.695312 10.328125 7.34375 9.40625 C 7.992188 8.445312 7.851562 7.25 7.03125 6.734375 C 6.734375 6.535156 6.375 6.445312 6.015625 6.476562 Z M 12.96875 7.515625 C 12.195312 7.523438 12.761719 11.101562 13.460938 10.804688 C 14.210938 10.1875 14.484375 8.378906 13.046875 7.523438 C 13.023438 7.515625 12.996094 7.515625 12.96875 7.515625 Z M 3.046875 7.574219 C 3.015625 7.574219 2.992188 7.578125 2.964844 7.585938 C 1.53125 8.40625 1.769531 10.257812 2.554688 10.875 C 3.25 11.171875 3.820312 7.578125 3.046875 7.574219 Z M 8.132812 10.015625 C 7.039062 10.015625 6.183594 10.839844 6.183594 11.832031 L 6.183594 11.859375 C 6.183594 12.851562 7.039062 13.640625 8.132812 13.640625 C 9.226562 13.640625 10.078125 12.824219 10.078125 11.832031 C 10.078125 10.84375 9.191406 10.046875 8.132812 10.015625 Z M 12.460938 10.722656 C 12 10.730469 11.445312 11.171875 10.929688 11.761719 C 10.3125 12.445312 9.976562 13.742188 10.421875 14.148438 C 10.867188 14.457031 11.992188 14.421875 12.808594 13.261719 C 13.390625 12.476562 13.1875 11.214844 12.878906 10.875 C 12.75 10.769531 12.613281 10.71875 12.460938 10.722656 Z M 3.574219 10.992188 C 3.457031 11.007812 3.335938 11.046875 3.234375 11.113281 C 2.890625 11.386719 2.832031 12.308594 3.34375 13.230469 C 4.097656 14.324219 5.148438 14.421875 5.59375 14.148438 C 6.070312 13.808594 5.800781 12.609375 5.253906 11.960938 C 4.726562 11.351562 4.089844 10.941406 3.574219 10.992188 Z M 7.820312 14.1875 C 7.070312 14.238281 6.183594 14.539062 6.183594 14.898438 C 6.183594 15.207031 7.132812 16.03125 8.09375 16 C 9.015625 16.03125 9.96875 15.210938 9.96875 14.796875 C 9.9375 14.421875 8.917969 14.15625 8.132812 14.1875 C 8.03125 14.1875 7.925781 14.1875 7.820312 14.1875 Z M 7.820312 14.1875 "/>
</g>
</svg>
