<?xml version="1.0" encoding="UTF-8"?>
<svg xmlns="http://www.w3.org/2000/svg" xmlns:xlink="http://www.w3.org/1999/xlink" width="16" height="16" viewBox="0 0 16 16" version="1.1">
<g id="surface1">
<path style=" stroke:none;fill-rule:nonzero;fill:rgb(100%,100%,100%);fill-opacity:1;" d="M 8 9 C 7.449219 9 7 8.550781 7 8 C 7 7.449219 7.449219 7 8 7 C 8.550781 7 9 7.449219 9 8 C 9 8.550781 8.550781 9 8 9 Z M 7.648438 10.996094 C 7.765625 11.136719 7.882812 11.273438 8 11.402344 C 8.117188 11.273438 8.234375 11.136719 8.351562 10.996094 C 8.117188 11 7.882812 11 7.648438 10.996094 Z M 6.316406 10.914062 C 5.804688 10.859375 5.296875 10.777344 4.792969 10.667969 C 4.746094 10.902344 4.707031 11.128906 4.679688 11.34375 C 4.554688 12.398438 4.730469 13.042969 5 13.195312 C 5.269531 13.351562 5.910156 13.183594 6.761719 12.546875 C 6.9375 12.414062 7.117188 12.269531 7.292969 12.109375 C 6.945312 11.730469 6.621094 11.328125 6.316406 10.914062 Z M 11.207031 10.667969 C 10.726562 10.773438 10.214844 10.855469 9.683594 10.914062 C 9.378906 11.328125 9.054688 11.730469 8.707031 12.109375 C 8.882812 12.269531 9.0625 12.414062 9.238281 12.546875 C 10.089844 13.183594 10.730469 13.351562 11 13.195312 C 11.269531 13.042969 11.445312 12.398438 11.320312 11.34375 C 11.292969 11.117188 11.253906 10.890625 11.207031 10.667969 Z M 12.171875 10.410156 C 12.558594 12.167969 12.355469 13.570312 11.5 14.0625 C 10.644531 14.554688 9.332031 14.03125 8 12.816406 C 6.667969 14.03125 5.355469 14.554688 4.5 14.0625 C 3.644531 13.570312 3.441406 12.167969 3.828125 10.410156 C 2.113281 9.863281 1 8.988281 1 8 C 1 7.011719 2.113281 6.136719 3.828125 5.589844 C 3.441406 3.832031 3.644531 2.429688 4.5 1.9375 C 5.355469 1.445312 6.667969 1.96875 8 3.183594 C 9.332031 1.96875 10.644531 1.445312 11.5 1.9375 C 12.355469 2.429688 12.558594 3.832031 12.171875 5.589844 C 13.886719 6.136719 15 7.011719 15 8 C 15 8.988281 13.886719 9.863281 12.171875 10.410156 Z M 7.292969 3.890625 C 7.121094 3.738281 6.945312 3.589844 6.761719 3.453125 C 5.910156 2.816406 5.269531 2.648438 5 2.804688 C 4.730469 2.957031 4.554688 3.601562 4.679688 4.65625 C 4.707031 4.875 4.746094 5.097656 4.792969 5.332031 C 5.296875 5.222656 5.804688 5.140625 6.316406 5.085938 C 6.632812 4.652344 6.960938 4.25 7.292969 3.890625 Z M 9.683594 5.085938 C 10.214844 5.144531 10.726562 5.226562 11.207031 5.332031 C 11.253906 5.097656 11.292969 4.871094 11.320312 4.65625 C 11.445312 3.601562 11.269531 2.957031 11 2.804688 C 10.730469 2.648438 10.089844 2.816406 9.238281 3.453125 C 9.054688 3.589844 8.878906 3.738281 8.707031 3.890625 C 9.039062 4.25 9.367188 4.652344 9.683594 5.085938 Z M 8.351562 5.003906 C 8.234375 4.863281 8.117188 4.726562 8 4.597656 C 7.882812 4.726562 7.765625 4.863281 7.648438 5.003906 C 7.882812 5 8.117188 5 8.351562 5.003906 Z M 5.582031 9.800781 C 5.460938 9.601562 5.34375 9.398438 5.230469 9.191406 C 5.164062 9.363281 5.105469 9.535156 5.054688 9.699219 C 5.226562 9.738281 5.402344 9.773438 5.582031 9.800781 Z M 6.871094 9.957031 C 7.621094 10.015625 8.378906 10.015625 9.128906 9.957031 C 9.554688 9.335938 9.933594 8.679688 10.261719 8 C 9.933594 7.320312 9.554688 6.664062 9.128906 6.042969 C 8.378906 5.984375 7.621094 5.984375 6.871094 6.042969 C 6.445312 6.664062 6.066406 7.320312 5.738281 8 C 6.066406 8.679688 6.445312 9.335938 6.871094 9.957031 Z M 10.769531 6.808594 C 10.835938 6.636719 10.894531 6.464844 10.945312 6.300781 C 10.769531 6.261719 10.59375 6.226562 10.417969 6.199219 C 10.539062 6.398438 10.65625 6.601562 10.769531 6.808594 Z M 4.085938 6.558594 C 3.859375 6.632812 3.644531 6.710938 3.445312 6.796875 C 2.46875 7.214844 2 7.691406 2 8 C 2 8.308594 2.464844 8.785156 3.445312 9.203125 C 3.644531 9.289062 3.859375 9.367188 4.085938 9.441406 C 4.234375 8.976562 4.417969 8.492188 4.636719 8 C 4.425781 7.53125 4.242188 7.046875 4.085938 6.558594 Z M 5.054688 6.300781 C 5.105469 6.464844 5.164062 6.636719 5.230469 6.804688 C 5.34375 6.601562 5.460938 6.398438 5.582031 6.199219 C 5.402344 6.226562 5.226562 6.261719 5.054688 6.300781 Z M 11.914062 9.441406 C 12.140625 9.367188 12.355469 9.289062 12.554688 9.203125 C 13.53125 8.785156 14 8.308594 14 8 C 14 7.691406 13.535156 7.214844 12.554688 6.796875 C 12.34375 6.707031 12.132812 6.628906 11.914062 6.558594 C 11.765625 7.023438 11.582031 7.507812 11.363281 8 C 11.582031 8.492188 11.765625 8.976562 11.914062 9.441406 Z M 10.945312 9.699219 C 10.894531 9.535156 10.835938 9.363281 10.769531 9.195312 C 10.65625 9.398438 10.539062 9.601562 10.417969 9.800781 C 10.597656 9.773438 10.773438 9.738281 10.945312 9.699219 Z M 10.945312 9.699219 "/>
</g>
</svg>
