<?xml version="1.0" encoding="UTF-8"?>
<svg xmlns="http://www.w3.org/2000/svg" xmlns:xlink="http://www.w3.org/1999/xlink" width="16" height="16" viewBox="0 0 16 16" version="1.1">
<g id="surface1">
<path style=" stroke:none;fill-rule:nonzero;fill:rgb(100%,100%,100%);fill-opacity:1;" d="M 2.003906 0.5 C 1.726562 0.5 1.507812 0.722656 1.5 0.996094 L 1.5 15 C 1.5 15.171875 1.589844 15.335938 1.738281 15.429688 C 1.882812 15.519531 2.070312 15.527344 2.226562 15.453125 L 3.996094 14.554688 L 5.773438 15.453125 C 5.917969 15.523438 6.085938 15.523438 6.226562 15.453125 L 8 14.554688 L 9.777344 15.453125 C 9.917969 15.523438 10.085938 15.523438 10.226562 15.453125 L 12 14.554688 L 13.777344 15.453125 C 13.933594 15.527344 14.117188 15.519531 14.265625 15.429688 C 14.414062 15.335938 14.5 15.171875 14.5 15 L 14.5 0.996094 C 14.5 0.824219 14.410156 0.664062 14.261719 0.574219 C 14.117188 0.484375 13.929688 0.476562 13.777344 0.554688 L 12 1.4375 L 10.226562 0.554688 C 10.085938 0.484375 9.917969 0.484375 9.777344 0.554688 L 8 1.4375 L 6.226562 0.554688 C 6.085938 0.484375 5.917969 0.484375 5.773438 0.554688 L 3.996094 1.4375 L 2.226562 0.554688 C 2.15625 0.519531 2.078125 0.5 2.003906 0.5 Z M 6 1.554688 L 7.777344 2.453125 C 7.917969 2.523438 8.085938 2.523438 8.226562 2.453125 L 10 1.554688 L 11.777344 2.453125 C 11.917969 2.519531 12.078125 2.519531 12.21875 2.453125 L 13.5 1.808594 L 13.5 14.1875 L 12.21875 13.554688 C 12.078125 13.484375 11.917969 13.484375 11.777344 13.554688 L 10 14.4375 L 8.226562 13.554688 C 8.085938 13.484375 7.917969 13.484375 7.777344 13.554688 L 6 14.4375 L 4.226562 13.554688 C 4.085938 13.484375 3.917969 13.484375 3.773438 13.554688 L 2.5 14.1875 L 2.5 1.808594 L 3.773438 2.453125 C 3.917969 2.523438 4.085938 2.523438 4.226562 2.453125 Z M 6 1.554688 "/>
<path style=" stroke:none;fill-rule:nonzero;fill:rgb(100%,100%,100%);fill-opacity:1;" d="M 6.492188 10.1875 C 6.679688 10.164062 6.84375 10.128906 6.976562 10.078125 C 7.105469 10.03125 7.210938 9.972656 7.289062 9.90625 C 7.375 9.828125 7.4375 9.75 7.476562 9.664062 C 7.511719 9.578125 7.53125 9.484375 7.53125 9.382812 C 7.53125 9.1875 7.46875 9.023438 7.335938 8.90625 C 7.210938 8.78125 7.007812 8.675781 6.726562 8.585938 Z M 6.929688 7.265625 C 7.164062 7.34375 7.398438 7.4375 7.632812 7.539062 C 7.867188 7.636719 8.078125 7.757812 8.265625 7.90625 C 8.457031 8.046875 8.609375 8.226562 8.726562 8.4375 C 8.847656 8.640625 8.90625 8.890625 8.90625 9.1875 C 8.90625 9.523438 8.839844 9.816406 8.710938 10.070312 C 8.578125 10.320312 8.398438 10.53125 8.171875 10.703125 C 7.945312 10.875 7.671875 11.007812 7.359375 11.101562 C 7.046875 11.195312 6.707031 11.25 6.335938 11.273438 L 6.148438 12.578125 L 5.226562 12.578125 L 5.414062 11.265625 C 4.929688 11.234375 4.460938 11.15625 4 11.03125 L 4 9.8125 C 4.246094 9.890625 4.507812 9.964844 4.773438 10.03125 C 5.050781 10.101562 5.320312 10.148438 5.578125 10.171875 L 5.851562 8.289062 C 5.628906 8.210938 5.40625 8.125 5.179688 8.03125 C 4.960938 7.929688 4.765625 7.804688 4.59375 7.664062 C 4.421875 7.515625 4.28125 7.34375 4.171875 7.140625 C 4.0625 6.929688 4.007812 6.679688 4.007812 6.390625 C 4.007812 6.144531 4.054688 5.914062 4.148438 5.695312 C 4.242188 5.476562 4.390625 5.28125 4.585938 5.109375 C 4.78125 4.9375 5.03125 4.796875 5.335938 4.6875 C 5.640625 4.574219 6 4.507812 6.421875 4.484375 L 6.585938 3.421875 L 7.5 3.421875 L 7.335938 4.53125 C 7.523438 4.550781 7.703125 4.574219 7.882812 4.601562 C 8.0625 4.628906 8.234375 4.664062 8.398438 4.703125 L 8.398438 5.820312 C 8.210938 5.761719 8.007812 5.710938 7.796875 5.664062 C 7.585938 5.617188 7.382812 5.585938 7.179688 5.5625 Z M 6.257812 5.554688 C 5.929688 5.589844 5.695312 5.671875 5.5625 5.796875 C 5.429688 5.921875 5.367188 6.085938 5.367188 6.28125 C 5.367188 6.4375 5.421875 6.566406 5.539062 6.671875 C 5.660156 6.78125 5.832031 6.878906 6.054688 6.96875 Z M 6.257812 5.554688 "/>
<path style=" stroke:none;fill-rule:nonzero;fill:rgb(100%,100%,100%);fill-opacity:1;" d="M 10 5.5 L 12 5.5 L 12 4.5 L 10 4.5 L 10 5.5 "/>
<path style=" stroke:none;fill-rule:nonzero;fill:rgb(100%,100%,100%);fill-opacity:1;" d="M 10 7.5 L 12 7.5 L 12 6.5 L 10 6.5 L 10 7.5 "/>
<path style=" stroke:none;fill-rule:nonzero;fill:rgb(100%,100%,100%);fill-opacity:1;" d="M 10 9.5 L 12 9.5 L 12 8.5 L 10 8.5 L 10 9.5 "/>
<path style=" stroke:none;fill-rule:nonzero;fill:rgb(100%,100%,100%);fill-opacity:1;" d="M 10 11.5 L 12 11.5 L 12 10.5 L 10 10.5 L 10 11.5 "/>
</g>
</svg>
