<?xml version="1.0" encoding="UTF-8"?>
<svg xmlns="http://www.w3.org/2000/svg" xmlns:xlink="http://www.w3.org/1999/xlink" width="16" height="16" viewBox="0 0 16 16" version="1.1">
<g id="surface1">
<path style=" stroke:none;fill-rule:nonzero;fill:rgb(100%,100%,100%);fill-opacity:1;" d="M 13.042969 8.066406 L 14.0625 9.832031 C 14.707031 10.949219 14.324219 12.375 13.207031 13.019531 C 12.851562 13.226562 12.453125 13.332031 12.042969 13.332031 L 10.667969 13.332031 L 10.667969 14.667969 L 7.332031 12.332031 L 10.667969 10 L 10.667969 11.332031 L 12.042969 11.332031 C 12.101562 11.332031 12.15625 11.316406 12.207031 11.289062 C 12.351562 11.207031 12.410156 11.035156 12.355469 10.886719 L 12.328125 10.832031 L 11.308594 9.066406 Z M 5.15625 6.257812 L 5.511719 10.308594 L 4.359375 9.644531 L 3.671875 10.832031 C 3.640625 10.882812 3.625 10.941406 3.625 11 C 3.625 11.164062 3.742188 11.300781 3.898438 11.328125 L 3.957031 11.332031 L 6 11.332031 L 6 13.332031 L 3.957031 13.332031 C 2.671875 13.332031 1.625 12.289062 1.625 11 C 1.625 10.589844 1.734375 10.1875 1.9375 9.832031 L 2.625 8.644531 L 1.46875 7.976562 Z M 9.167969 1.980469 C 9.519531 2.183594 9.816406 2.480469 10.019531 2.832031 L 10.707031 4.023438 L 11.863281 3.355469 L 11.507812 7.410156 L 7.820312 5.691406 L 8.976562 5.023438 L 8.289062 3.832031 C 8.257812 3.78125 8.21875 3.738281 8.167969 3.710938 C 8.023438 3.628906 7.847656 3.664062 7.746094 3.785156 L 7.710938 3.832031 L 6.691406 5.601562 L 4.957031 4.601562 L 5.980469 2.832031 C 6.625 1.71875 8.050781 1.335938 9.167969 1.980469 Z M 9.167969 1.980469 "/>
</g>
</svg>
