<?xml version="1.0" encoding="UTF-8"?>
<svg xmlns="http://www.w3.org/2000/svg" xmlns:xlink="http://www.w3.org/1999/xlink" width="16" height="16" viewBox="0 0 16 16" version="1.1">
<g id="surface1">
<path style=" stroke:none;fill-rule:nonzero;fill:rgb(100%,100%,100%);fill-opacity:1;" d="M 3.640625 2.957031 C 4.851562 1.90625 6.398438 1.332031 8 1.332031 C 11.683594 1.332031 14.667969 4.316406 14.667969 8 C 14.667969 9.425781 14.21875 10.742188 13.460938 11.828125 L 11.332031 8 L 13.332031 8 C 13.332031 5.863281 12.058594 3.929688 10.089844 3.09375 C 8.125 2.253906 5.847656 2.671875 4.308594 4.152344 Z M 12.359375 13.042969 C 11.148438 14.09375 9.601562 14.667969 8 14.667969 C 4.316406 14.667969 1.332031 11.683594 1.332031 8 C 1.332031 6.574219 1.78125 5.257812 2.539062 4.171875 L 4.667969 8 L 2.667969 8 C 2.667969 10.136719 3.941406 12.070312 5.910156 12.90625 C 7.875 13.746094 10.152344 13.328125 11.691406 11.847656 Z M 12.359375 13.042969 "/>
</g>
</svg>
