<?xml version="1.0" encoding="UTF-8"?>
<svg xmlns="http://www.w3.org/2000/svg" xmlns:xlink="http://www.w3.org/1999/xlink" width="16" height="16" viewBox="0 0 16 16" version="1.1">
<g id="surface1">
<path style=" stroke:none;fill-rule:nonzero;fill:rgb(100%,100%,100%);fill-opacity:1;" d="M 8 1.332031 C 11.683594 1.332031 14.667969 4.316406 14.667969 8 C 14.667969 11.683594 11.683594 14.667969 8 14.667969 C 6.445312 14.667969 4.941406 14.125 3.746094 13.132812 L 3.582031 12.992188 L 4.183594 11.726562 C 5.953125 13.539062 8.757812 13.855469 10.886719 12.484375 C 13.019531 11.113281 13.890625 8.429688 12.972656 6.066406 C 12.050781 3.703125 9.597656 2.316406 7.097656 2.742188 C 4.601562 3.171875 2.75 5.300781 2.671875 7.832031 L 2.667969 8 L 4.332031 8 L 2.53125 11.8125 C 1.75 10.695312 1.332031 9.363281 1.332031 8 C 1.332031 4.316406 4.316406 1.332031 8 1.332031 Z M 8.667969 4 L 8.667969 5.332031 L 10.332031 5.332031 L 10.332031 6.667969 L 6.667969 6.667969 C 6.492188 6.667969 6.351562 6.796875 6.335938 6.96875 C 6.320312 7.140625 6.4375 7.296875 6.605469 7.328125 L 6.667969 7.332031 L 9.332031 7.332031 C 10.253906 7.332031 11 8.078125 11 9 C 11 9.921875 10.253906 10.667969 9.332031 10.667969 L 8.667969 10.667969 L 8.667969 12 L 7.332031 12 L 7.332031 10.667969 L 5.667969 10.667969 L 5.667969 9.332031 L 9.332031 9.332031 C 9.507812 9.332031 9.648438 9.203125 9.664062 9.03125 C 9.679688 8.859375 9.5625 8.703125 9.394531 8.671875 L 9.332031 8.667969 L 6.667969 8.667969 C 5.746094 8.667969 5 7.921875 5 7 C 5 6.078125 5.746094 5.332031 6.667969 5.332031 L 7.332031 5.332031 L 7.332031 4 Z M 8.667969 4 "/>
</g>
</svg>
