<?xml version="1.0" encoding="UTF-8"?>
<svg xmlns="http://www.w3.org/2000/svg" xmlns:xlink="http://www.w3.org/1999/xlink" width="16" height="16" viewBox="0 0 16 16" version="1.1">
<g id="surface1">
<path style=" stroke:none;fill-rule:nonzero;fill:rgb(100%,100%,100%);fill-opacity:1;" d="M 8 1.332031 C 11.683594 1.332031 14.667969 4.316406 14.667969 8 C 14.667969 11.683594 11.683594 14.667969 8 14.667969 C 4.316406 14.667969 1.332031 11.683594 1.332031 8 C 1.332031 4.316406 4.316406 1.332031 8 1.332031 Z M 8 2.667969 C 5.054688 2.667969 2.667969 5.054688 2.667969 8 C 2.667969 10.945312 5.054688 13.332031 8 13.332031 C 10.945312 13.332031 13.332031 10.945312 13.332031 8 C 13.332031 5.054688 10.945312 2.667969 8 2.667969 Z M 8.332031 4.667969 C 9.378906 4.667969 10.296875 5.363281 10.582031 6.371094 C 10.863281 7.378906 10.441406 8.449219 9.546875 8.992188 L 11.246094 11.332031 L 9.597656 11.332031 L 8.144531 9.332031 L 6.667969 9.332031 L 6.667969 11.332031 L 5.332031 11.332031 L 5.332031 4.667969 Z M 8.332031 6 L 6.667969 6 L 6.667969 8 L 8.332031 8 C 8.847656 8 9.277344 7.609375 9.328125 7.097656 L 9.332031 7 C 9.332031 6.449219 8.886719 6 8.332031 6 Z M 8.332031 6 "/>
</g>
</svg>
