<?xml version="1.0" encoding="UTF-8"?>
<svg xmlns="http://www.w3.org/2000/svg" xmlns:xlink="http://www.w3.org/1999/xlink" width="16" height="16" viewBox="0 0 16 16" version="1.1">
<g id="surface1">
<path style=" stroke:none;fill-rule:nonzero;fill:rgb(100%,100%,100%);fill-opacity:1;" d="M 8 1.332031 C 11.683594 1.332031 14.667969 4.316406 14.667969 8 C 14.667969 11.683594 11.683594 14.667969 8 14.667969 C 4.316406 14.667969 1.332031 11.683594 1.332031 8 C 1.332031 4.316406 4.316406 1.332031 8 1.332031 Z M 8.332031 4.667969 L 5.332031 4.667969 L 5.332031 11.332031 L 6.667969 11.332031 L 6.667969 9.332031 L 8.144531 9.332031 L 9.597656 11.332031 L 11.246094 11.332031 L 9.546875 8.992188 C 10.421875 8.460938 10.847656 7.421875 10.597656 6.429688 C 10.347656 5.4375 9.484375 4.726562 8.460938 4.667969 Z M 8.332031 6 C 8.847656 6 9.277344 6.390625 9.328125 6.902344 L 9.332031 7 L 9.328125 7.097656 C 9.28125 7.574219 8.90625 7.949219 8.429688 7.996094 L 8.332031 8 L 6.667969 8 L 6.667969 6 Z M 8.332031 6 "/>
</g>
</svg>
