<?xml version="1.0" encoding="UTF-8"?>
<svg xmlns="http://www.w3.org/2000/svg" xmlns:xlink="http://www.w3.org/1999/xlink" width="16" height="16" viewBox="0 0 16 16" version="1.1">
<g id="surface1">
<path style=" stroke:none;fill-rule:nonzero;fill:rgb(100%,100%,100%);fill-opacity:1;" d="M 8 14.667969 C 4.316406 14.667969 1.332031 11.683594 1.332031 8 C 1.332031 4.316406 4.316406 1.332031 8 1.332031 C 11.683594 1.332031 14.667969 4.316406 14.667969 8 C 14.667969 11.683594 11.683594 14.667969 8 14.667969 Z M 11.214844 11.382812 C 12.976562 9.707031 13.152344 6.960938 11.625 5.070312 C 10.09375 3.175781 7.371094 2.777344 5.363281 4.152344 C 3.355469 5.523438 2.738281 8.207031 3.945312 10.320312 C 5.152344 12.429688 7.777344 13.261719 9.980469 12.226562 L 9.328125 11.058594 C 7.976562 11.644531 6.402344 11.277344 5.449219 10.148438 C 4.5 9.023438 4.40625 7.40625 5.210938 6.171875 C 6.019531 4.941406 7.542969 4.386719 8.953125 4.808594 C 10.363281 5.226562 11.332031 6.527344 11.332031 8 L 9.332031 8 Z M 11.214844 11.382812 "/>
</g>
</svg>
