<?xml version="1.0" encoding="UTF-8"?>
<svg xmlns="http://www.w3.org/2000/svg" xmlns:xlink="http://www.w3.org/1999/xlink" width="16" height="16" viewBox="0 0 16 16" version="1.1">
<g id="surface1">
<path style=" stroke:none;fill-rule:nonzero;fill:rgb(100%,100%,100%);fill-opacity:1;" d="M 4.578125 0.0390625 C 2.078125 0.0390625 0.0429688 2.101562 0.0429688 4.632812 L 0.0429688 11.78125 C 0.0429688 14.039062 1.867188 15.882812 4.09375 15.882812 L 10.816406 15.882812 C 10.898438 15.929688 10.992188 15.960938 11.09375 15.960938 L 13.742188 15.960938 C 14.960938 15.960938 15.957031 14.949219 15.957031 13.714844 L 15.957031 11.304688 C 15.957031 10.96875 15.679688 10.699219 15.351562 10.714844 C 15.210938 10.71875 15.078125 10.777344 14.976562 10.871094 L 10.773438 14.875 L 4.09375 14.875 C 2.402344 14.875 1.035156 13.492188 1.035156 11.78125 L 1.035156 4.632812 C 1.035156 2.648438 2.617188 1.046875 4.578125 1.046875 L 11.417969 1.046875 C 13.335938 1.046875 14.875 2.609375 14.875 4.546875 L 14.875 7.898438 L 9.894531 12.777344 L 4.640625 12.777344 C 3.996094 12.777344 3.492188 12.257812 3.492188 11.609375 L 3.492188 4.820312 C 3.492188 3.945312 4.171875 3.25 5.03125 3.25 L 11.304688 3.25 C 11.953125 3.25 12.460938 3.765625 12.460938 4.417969 L 12.460938 7.132812 L 9.089844 10.539062 L 6.144531 10.539062 C 5.933594 10.539062 5.769531 10.382812 5.769531 10.167969 L 5.769531 7.65625 C 5.769531 7.488281 5.898438 7.367188 6.0625 7.367188 L 6.484375 7.367188 L 6.484375 7.765625 C 6.484375 8.070312 6.726562 8.316406 7.027344 8.316406 L 8.910156 8.316406 C 9.210938 8.316406 9.453125 8.070312 9.453125 7.765625 L 9.453125 5.859375 C 9.453125 5.554688 9.210938 5.304688 8.910156 5.304688 L 7.027344 5.304688 C 6.726562 5.304688 6.484375 5.554688 6.484375 5.859375 L 6.484375 6.359375 L 6.0625 6.359375 C 5.359375 6.359375 4.773438 6.945312 4.773438 7.65625 L 4.773438 10.167969 C 4.773438 10.925781 5.398438 11.546875 6.148438 11.546875 L 9.5 11.546875 L 13.453125 7.546875 L 13.453125 4.417969 C 13.453125 3.222656 12.488281 2.242188 11.304688 2.242188 L 5.035156 2.242188 C 3.640625 2.242188 2.5 3.40625 2.5 4.820312 L 2.5 11.609375 C 2.5 12.804688 3.460938 13.785156 4.640625 13.785156 L 10.296875 13.785156 L 15.871094 8.320312 L 15.871094 4.546875 C 15.871094 2.0625 13.871094 0.0390625 11.421875 0.0390625 Z M 4.578125 0.0390625 "/>
</g>
</svg>
