<?xml version="1.0" encoding="UTF-8"?>
<svg xmlns="http://www.w3.org/2000/svg" xmlns:xlink="http://www.w3.org/1999/xlink" width="16" height="16" viewBox="0 0 16 16" version="1.1">
<g id="surface1">
<path style=" stroke:none;fill-rule:nonzero;fill:rgb(100%,100%,100%);fill-opacity:1;" d="M 3.667969 14 C 2.011719 14 0.667969 12.65625 0.667969 11 C 0.667969 9.34375 2.011719 8 3.667969 8 C 5.324219 8 6.667969 9.34375 6.667969 11 C 6.667969 12.65625 5.324219 14 3.667969 14 Z M 3.667969 12.667969 C 4.585938 12.667969 5.332031 11.921875 5.332031 11 C 5.332031 10.078125 4.585938 9.332031 3.667969 9.332031 C 2.746094 9.332031 2 10.078125 2 11 C 2 11.921875 2.746094 12.667969 3.667969 12.667969 Z M 12.332031 14 C 10.675781 14 9.332031 12.65625 9.332031 11 C 9.332031 9.34375 10.675781 8 12.332031 8 C 13.988281 8 15.332031 9.34375 15.332031 11 C 15.332031 12.65625 13.988281 14 12.332031 14 Z M 12.332031 12.667969 C 13.253906 12.667969 14 11.921875 14 11 C 14 10.078125 13.253906 9.332031 12.332031 9.332031 C 11.414062 9.332031 10.667969 10.078125 10.667969 11 C 10.667969 11.921875 11.414062 12.667969 12.332031 12.667969 Z M 7.347656 6.871094 L 8.667969 8 L 8.667969 12 L 7.332031 12 L 7.332031 8.667969 L 5.519531 7.15625 C 5.195312 6.929688 4.984375 6.574219 4.949219 6.179688 C 4.910156 5.785156 5.054688 5.394531 5.332031 5.113281 L 7.21875 3.230469 C 7.738281 2.707031 8.582031 2.707031 9.105469 3.230469 L 10.046875 4.171875 C 10.753906 4.878906 11.667969 5.339844 12.660156 5.488281 L 12.652344 6.832031 C 11.308594 6.675781 10.058594 6.070312 9.105469 5.113281 Z M 10.667969 3.332031 C 9.929688 3.332031 9.332031 2.738281 9.332031 2 C 9.332031 1.261719 9.929688 0.667969 10.667969 0.667969 C 11.402344 0.667969 12 1.261719 12 2 C 12 2.738281 11.402344 3.332031 10.667969 3.332031 Z M 10.667969 3.332031 "/>
</g>
</svg>
