<?xml version="1.0" encoding="UTF-8"?>
<svg xmlns="http://www.w3.org/2000/svg" xmlns:xlink="http://www.w3.org/1999/xlink" width="16" height="16" viewBox="0 0 16 16" version="1.1">
<g id="surface1">
<path style=" stroke:none;fill-rule:nonzero;fill:rgb(100%,100%,100%);fill-opacity:1;" d="M 11.300781 7.964844 C 12.449219 6.820312 12.917969 5.15625 12.539062 3.578125 L 14.203125 2.867188 C 14.304688 2.820312 14.421875 2.832031 14.515625 2.894531 C 14.609375 2.957031 14.667969 3.058594 14.667969 3.171875 L 14.667969 12.667969 L 10 14.667969 L 6 12.667969 L 1.796875 14.46875 C 1.695312 14.511719 1.578125 14.5 1.484375 14.4375 C 1.390625 14.378906 1.332031 14.273438 1.332031 14.160156 L 1.332031 4.667969 L 3.417969 3.773438 C 3.121094 5.296875 3.601562 6.867188 4.699219 7.964844 L 8 11.265625 Z M 10.355469 7.023438 L 8 9.378906 L 5.644531 7.023438 C 4.339844 5.722656 4.339844 3.609375 5.644531 2.308594 C 6.945312 1.007812 9.054688 1.007812 10.355469 2.308594 C 11.660156 3.609375 11.660156 5.722656 10.355469 7.023438 Z M 10.355469 7.023438 "/>
</g>
</svg>
