<?xml version="1.0" encoding="UTF-8"?>
<svg xmlns="http://www.w3.org/2000/svg" xmlns:xlink="http://www.w3.org/1999/xlink" width="16" height="16" viewBox="0 0 16 16" version="1.1">
<g id="surface1">
<path style=" stroke:none;fill-rule:nonzero;fill:rgb(100%,100%,100%);fill-opacity:1;" d="M 12.667969 13.332031 L 3.332031 13.332031 L 3.332031 14 C 3.332031 14.367188 3.035156 14.667969 2.667969 14.667969 L 2 14.667969 C 1.632812 14.667969 1.332031 14.367188 1.332031 14 L 1.332031 9 L 0.503906 8.792969 C 0.207031 8.71875 0 8.453125 0 8.148438 L 0 7.667969 C 0 7.484375 0.148438 7.332031 0.332031 7.332031 L 1.332031 7.332031 L 2.988281 3.476562 C 3.195312 2.984375 3.679688 2.667969 4.214844 2.667969 L 11.785156 2.667969 C 12.320312 2.667969 12.800781 2.984375 13.011719 3.476562 L 14.667969 7.332031 L 15.667969 7.332031 C 15.851562 7.332031 16 7.484375 16 7.667969 L 16 8.148438 C 16 8.453125 15.792969 8.71875 15.496094 8.792969 L 14.667969 9 L 14.667969 14 C 14.667969 14.367188 14.367188 14.667969 14 14.667969 L 13.332031 14.667969 C 12.964844 14.667969 12.667969 14.367188 12.667969 14 Z M 13.332031 12 L 13.332031 8.667969 L 2.667969 8.667969 L 2.667969 12 Z M 3.652344 7.332031 L 12.347656 7.332031 C 12.570312 7.332031 12.777344 7.222656 12.898438 7.039062 C 13.023438 6.855469 13.050781 6.625 12.96875 6.417969 L 12 4 L 4 4 L 3.03125 6.417969 C 2.949219 6.625 2.976562 6.855469 3.101562 7.039062 C 3.222656 7.222656 3.429688 7.332031 3.652344 7.332031 Z M 3.332031 9.332031 C 4.878906 9.332031 5.917969 9.835938 6.457031 10.84375 C 6.511719 10.945312 6.507812 11.070312 6.449219 11.171875 C 6.390625 11.273438 6.28125 11.332031 6.164062 11.332031 L 4 11.332031 C 3.632812 11.332031 3.332031 11.035156 3.332031 10.667969 Z M 12.667969 9.332031 L 12.667969 10.667969 C 12.667969 11.035156 12.367188 11.332031 12 11.332031 L 9.835938 11.332031 C 9.71875 11.332031 9.609375 11.273438 9.550781 11.171875 C 9.492188 11.070312 9.488281 10.945312 9.542969 10.84375 C 10.078125 9.835938 11.121094 9.332031 12.667969 9.332031 Z M 12.667969 9.332031 "/>
</g>
</svg>
