<?xml version="1.0" encoding="UTF-8"?>
<svg xmlns="http://www.w3.org/2000/svg" xmlns:xlink="http://www.w3.org/1999/xlink" width="16" height="16" viewBox="0 0 16 16" version="1.1">
<g id="surface1">
<path style=" stroke:none;fill-rule:nonzero;fill:rgb(100%,100%,100%);fill-opacity:1;" d="M 8.667969 2.703125 C 11.667969 3.035156 14 5.578125 14 8.667969 L 14 14.667969 L 2 14.667969 L 2 8.667969 C 2 5.578125 4.332031 3.035156 7.332031 2.703125 L 7.332031 0.667969 L 8.667969 0.667969 Z M 8 12 C 9.839844 12 11.332031 10.507812 11.332031 8.667969 C 11.332031 6.824219 9.839844 5.332031 8 5.332031 C 6.160156 5.332031 4.667969 6.824219 4.667969 8.667969 C 4.667969 10.507812 6.160156 12 8 12 Z M 8 10.667969 C 6.894531 10.667969 6 9.769531 6 8.667969 C 6 7.5625 6.894531 6.667969 8 6.667969 C 9.105469 6.667969 10 7.5625 10 8.667969 C 10 9.769531 9.105469 10.667969 8 10.667969 Z M 8 9.332031 C 8.367188 9.332031 8.667969 9.035156 8.667969 8.667969 C 8.667969 8.296875 8.367188 8 8 8 C 7.632812 8 7.332031 8.296875 7.332031 8.667969 C 7.332031 9.035156 7.632812 9.332031 8 9.332031 Z M 8 9.332031 "/>
</g>
</svg>
