<?xml version="1.0" encoding="UTF-8"?>
<svg xmlns="http://www.w3.org/2000/svg" xmlns:xlink="http://www.w3.org/1999/xlink" width="16" height="16" viewBox="0 0 16 16" version="1.1">
<g id="surface1">
<path style=" stroke:none;fill-rule:evenodd;fill:rgb(100%,100%,100%);fill-opacity:1;" d="M 1.0625 2 C 0.472656 2 0 2.472656 0 3.0625 L 0 12.9375 C 0 13.527344 0.472656 14 1.0625 14 L 3 14 L 3 2 Z M 4 2 L 4 14 L 14.9375 14 C 15.527344 14 16 13.527344 16 12.9375 L 16 3.0625 C 16 2.472656 15.527344 2 14.9375 2 Z M 7 4.5 L 13 4.5 L 13 7.5 L 7 7.5 Z M 7 11 C 7.554688 11 8 11.445312 8 12 C 8 12.554688 7.554688 13 7 13 C 6.445312 13 6 12.554688 6 12 C 6 11.445312 6.445312 11 7 11 Z M 10 11 C 10.554688 11 11 11.445312 11 12 C 11 12.554688 10.554688 13 10 13 C 9.445312 13 9 12.554688 9 12 C 9 11.445312 9.445312 11 10 11 Z M 13 11 C 13.554688 11 14 11.445312 14 12 C 14 12.554688 13.554688 13 13 13 C 12.445312 13 12 12.554688 12 12 C 12 11.445312 12.445312 11 13 11 Z M 13 11 "/>
</g>
</svg>
