<?xml version="1.0" encoding="UTF-8"?>
<svg xmlns="http://www.w3.org/2000/svg" xmlns:xlink="http://www.w3.org/1999/xlink" width="16" height="16" viewBox="0 0 16 16" version="1.1">
<g id="surface1">
<path style=" stroke:none;fill-rule:nonzero;fill:rgb(100%,100%,100%);fill-opacity:1;" d="M 1.25 0 C 0.5625 0 0 0.570312 0 1.253906 L 0 14.75 C 0 14.828125 0.0078125 14.902344 0.0234375 14.976562 L 5 10 L 3.195312 10 L 3.195312 9.074219 L 5.820312 9.074219 L 5.820312 7 L 3.195312 7 L 3.195312 6.074219 L 5.820312 6.074219 L 5.820312 4 L 3.195312 4 L 3.195312 3.003906 L 5.820312 3.003906 L 5.820312 1.253906 C 5.820312 0.570312 5.246094 0 4.5625 0 Z M 7 10.179688 L 7 12.804688 L 6 12.804688 L 6 11 L 1.023438 15.976562 C 1.09375 15.992188 1.171875 16 1.25 16 C 1.25 16 1.25 16 1.253906 16 L 14.75 16 C 15.4375 16 16 15.4375 16 14.75 L 16 11.4375 C 16 10.753906 15.4375 10.179688 14.75 10.179688 L 13 10.179688 L 13 12.804688 L 12 12.804688 L 12 10.179688 L 10 10.179688 L 10 12.804688 L 9 12.804688 L 9 10.179688 Z M 7 10.179688 "/>
</g>
</svg>
