<?xml version="1.0" encoding="UTF-8"?>
<svg xmlns="http://www.w3.org/2000/svg" xmlns:xlink="http://www.w3.org/1999/xlink" width="16" height="16" viewBox="0 0 16 16" version="1.1">
<g id="surface1">
<path style=" stroke:none;fill-rule:nonzero;fill:rgb(100%,100%,100%);fill-opacity:1;" d="M 4.230469 9.746094 L 2.34375 11.632812 L 4.699219 13.988281 L 13.65625 5.035156 L 11.300781 2.675781 L 9.886719 4.089844 L 10.828125 5.035156 L 9.886719 5.976562 L 8.941406 5.035156 L 7.527344 6.449219 L 8.941406 7.863281 L 8 8.804688 L 6.585938 7.390625 L 5.171875 8.804688 L 6.113281 9.746094 L 5.171875 10.691406 Z M 11.769531 1.261719 L 15.070312 4.5625 C 15.332031 4.824219 15.332031 5.246094 15.070312 5.503906 L 5.171875 15.40625 C 4.910156 15.664062 4.488281 15.664062 4.230469 15.40625 L 0.929688 12.105469 C 0.667969 11.84375 0.667969 11.421875 0.929688 11.160156 L 10.828125 1.261719 C 11.089844 1 11.511719 1 11.769531 1.261719 Z M 11.769531 1.261719 "/>
</g>
</svg>
