<?xml version="1.0" encoding="UTF-8"?>
<svg xmlns="http://www.w3.org/2000/svg" xmlns:xlink="http://www.w3.org/1999/xlink" width="16" height="16" viewBox="0 0 16 16" version="1.1">
<g id="surface1">
<path style=" stroke:none;fill-rule:nonzero;fill:rgb(100%,100%,100%);fill-opacity:1;" d="M 0 9.660156 C 0 10.34375 0.570312 10.90625 1.253906 10.90625 L 14.75 10.90625 C 15.4375 10.90625 16 10.34375 16 9.660156 L 16 6.34375 C 16 5.664062 15.4375 5.09375 14.75 5.089844 L 13 5.089844 L 13 7.710938 L 12 7.710938 L 12 5.089844 L 10 5.089844 L 10 7.710938 L 9.074219 7.710938 L 9.074219 5.089844 L 7 5.089844 L 7 7.710938 L 6.074219 7.710938 L 6.074219 5.089844 L 4 5.089844 L 4 7.710938 L 3.003906 7.710938 L 3.003906 5.089844 L 1.253906 5.089844 C 0.570312 5.089844 0 5.664062 0 6.34375 Z M 0 9.660156 "/>
</g>
</svg>
