<?xml version="1.0" encoding="UTF-8"?>
<svg xmlns="http://www.w3.org/2000/svg" xmlns:xlink="http://www.w3.org/1999/xlink" width="16" height="16" viewBox="0 0 16 16" version="1.1">
<g id="surface1">
<path style=" stroke:none;fill-rule:nonzero;fill:rgb(100%,100%,100%);fill-opacity:1;" d="M 2.839844 3.78125 L 4.261719 5.207031 C 2.796875 7.164062 3.09375 9.925781 4.945312 11.527344 C 6.796875 13.128906 9.570312 13.03125 11.300781 11.300781 C 13.03125 9.570312 13.128906 6.796875 11.527344 4.945312 C 9.925781 3.09375 7.164062 2.796875 5.207031 4.261719 L 3.78125 2.839844 C 4.96875 1.863281 6.460938 1.332031 8 1.332031 C 11.683594 1.332031 14.667969 4.316406 14.667969 8 C 14.667969 11.683594 11.683594 14.667969 8 14.667969 C 4.316406 14.667969 1.332031 11.683594 1.332031 8 C 1.332031 6.398438 1.898438 4.929688 2.839844 3.78125 Z M 5.21875 6.160156 L 8 8.941406 L 8.941406 8 L 6.160156 5.21875 C 7.589844 4.273438 9.5 4.566406 10.582031 5.890625 C 11.664062 7.214844 11.566406 9.144531 10.355469 10.355469 C 9.148438 11.566406 7.21875 11.664062 5.890625 10.582031 C 4.566406 9.5 4.277344 7.589844 5.21875 6.160156 Z M 5.21875 6.160156 "/>
</g>
</svg>
