<?xml version="1.0" encoding="UTF-8"?>
<svg xmlns="http://www.w3.org/2000/svg" xmlns:xlink="http://www.w3.org/1999/xlink" width="16" height="16" viewBox="0 0 16 16" version="1.1">
<g id="surface1">
<path style=" stroke:none;fill-rule:nonzero;fill:rgb(100%,100%,100%);fill-opacity:1;" d="M 2 2 L 3.332031 2 L 3.332031 3.332031 L 2 3.332031 Z M 4.667969 2 L 6 2 L 6 3.332031 L 4.667969 3.332031 Z M 7.332031 2 L 8.667969 2 L 8.667969 3.332031 L 7.332031 3.332031 Z M 10 2 L 11.332031 2 L 11.332031 3.332031 L 10 3.332031 Z M 12.667969 2 L 14 2 L 14 3.332031 L 12.667969 3.332031 Z M 12.667969 4.667969 L 14 4.667969 L 14 6 L 12.667969 6 Z M 2 12.667969 L 3.332031 12.667969 L 3.332031 14 L 2 14 Z M 2 10 L 3.332031 10 L 3.332031 11.332031 L 2 11.332031 Z M 2 7.332031 L 3.332031 7.332031 L 3.332031 8.667969 L 2 8.667969 Z M 2 4.667969 L 3.332031 4.667969 L 3.332031 6 L 2 6 Z M 7.113281 7.332031 L 7.800781 6.296875 C 7.925781 6.109375 8.132812 6 8.355469 6 L 10.308594 6 C 10.53125 6 10.742188 6.109375 10.863281 6.296875 L 11.554688 7.332031 L 13.332031 7.332031 C 13.703125 7.332031 14 7.632812 14 8 L 14 13.332031 C 14 13.703125 13.703125 14 13.332031 14 L 5.332031 14 C 4.964844 14 4.667969 13.703125 4.667969 13.332031 L 4.667969 8 C 4.667969 7.632812 4.964844 7.332031 5.332031 7.332031 Z M 6 12.667969 L 12.667969 12.667969 L 12.667969 8.667969 L 10.84375 8.667969 L 9.953125 7.332031 L 8.714844 7.332031 L 7.824219 8.667969 L 6 8.667969 Z M 9.332031 12 C 8.597656 12 8 11.402344 8 10.667969 C 8 9.929688 8.597656 9.332031 9.332031 9.332031 C 10.070312 9.332031 10.667969 9.929688 10.667969 10.667969 C 10.667969 11.402344 10.070312 12 9.332031 12 Z M 9.332031 12 "/>
</g>
</svg>
