<?xml version="1.0" encoding="UTF-8"?>
<svg xmlns="http://www.w3.org/2000/svg" xmlns:xlink="http://www.w3.org/1999/xlink" width="16" height="16" viewBox="0 0 16 16" version="1.1">
<g id="surface1">
<path style=" stroke:none;fill-rule:nonzero;fill:rgb(100%,100%,100%);fill-opacity:1;" d="M 4 5.21875 L 4 13.332031 L 12 13.332031 L 12 2.667969 L 6.550781 2.667969 Z M 2.863281 4.472656 L 6 1.332031 L 12.667969 1.332031 C 13.035156 1.332031 13.332031 1.632812 13.332031 2 L 13.332031 14 C 13.332031 14.367188 13.035156 14.667969 12.667969 14.667969 L 3.332031 14.667969 C 2.964844 14.667969 2.667969 14.367188 2.667969 14 L 2.667969 4.941406 C 2.667969 4.765625 2.738281 4.597656 2.863281 4.472656 Z M 10 3.332031 L 11.332031 3.332031 L 11.332031 6 L 10 6 Z M 8 3.332031 L 9.332031 3.332031 L 9.332031 6 L 8 6 Z M 6 4 L 7.332031 4 L 7.332031 6 L 6 6 Z M 6 4 "/>
</g>
</svg>
