<?xml version="1.0" encoding="UTF-8"?>
<svg xmlns="http://www.w3.org/2000/svg" xmlns:xlink="http://www.w3.org/1999/xlink" width="16" height="16" viewBox="0 0 16 16" version="1.1">
<g id="surface1">
<path style=" stroke:none;fill-rule:evenodd;fill:rgb(100%,100%,100%);fill-opacity:1;" d="M 10 8.003906 C 10 9.109375 9.101562 10.003906 8 10.003906 C 6.894531 10.003906 6 9.109375 6 8.003906 C 6 6.898438 6.894531 6.003906 8 6.003906 C 9.101562 6.003906 10 6.898438 10 8.003906 "/>
<path style=" stroke:none;fill-rule:evenodd;fill:rgb(100%,100%,100%);fill-opacity:1;" d="M 5.9375 5.242188 C 5.917969 5.21875 5.898438 5.195312 5.875 5.171875 C 5.78125 5.078125 5.65625 5.023438 5.523438 5.023438 C 5.390625 5.023438 5.265625 5.078125 5.171875 5.171875 C 4.421875 5.921875 3.996094 6.9375 3.996094 7.996094 C 3.996094 9.058594 4.417969 10.074219 5.167969 10.824219 C 5.261719 10.917969 5.390625 10.96875 5.523438 10.96875 C 5.65625 10.96875 5.78125 10.917969 5.875 10.824219 C 5.96875 10.730469 6.023438 10.601562 6.023438 10.46875 C 6.023438 10.335938 5.96875 10.210938 5.875 10.117188 C 5.3125 9.554688 4.996094 8.796875 4.996094 8 C 4.996094 7.203125 5.3125 6.4375 5.875 5.875 C 6.042969 5.703125 6.070312 5.4375 5.9375 5.242188 Z M 5.9375 5.242188 "/>
<path style=" stroke:none;fill-rule:evenodd;fill:rgb(100%,100%,100%);fill-opacity:1;" d="M 4.519531 3.824219 C 4.503906 3.800781 4.484375 3.777344 4.460938 3.757812 C 4.367188 3.664062 4.242188 3.609375 4.109375 3.609375 C 3.976562 3.609375 3.851562 3.664062 3.757812 3.757812 C 2.632812 4.882812 1.996094 6.410156 1.996094 8 C 1.996094 9.59375 2.625 11.113281 3.75 12.238281 C 3.84375 12.332031 3.972656 12.382812 4.105469 12.382812 C 4.238281 12.382812 4.367188 12.332031 4.460938 12.238281 C 4.554688 12.144531 4.609375 12.015625 4.609375 11.882812 C 4.609375 11.75 4.554688 11.625 4.460938 11.53125 C 3.523438 10.59375 3 9.320312 3 7.992188 C 3 6.667969 3.523438 5.398438 4.460938 4.460938 C 4.632812 4.292969 4.65625 4.023438 4.519531 3.824219 Z M 4.519531 3.824219 "/>
<path style=" stroke:none;fill-rule:evenodd;fill:rgb(100%,100%,100%);fill-opacity:1;" d="M 3.105469 2.40625 C 3.085938 2.382812 3.070312 2.359375 3.046875 2.339844 C 2.953125 2.242188 2.828125 2.191406 2.695312 2.191406 C 2.5625 2.191406 2.4375 2.242188 2.339844 2.335938 C 0.839844 3.835938 -0.00390625 5.875 -0.00390625 7.996094 C -0.00390625 10.117188 0.839844 12.15625 2.339844 13.660156 C 2.433594 13.753906 2.5625 13.804688 2.695312 13.804688 C 2.828125 13.804688 2.953125 13.753906 3.046875 13.660156 C 3.140625 13.566406 3.195312 13.4375 3.195312 13.304688 C 3.195312 13.171875 3.140625 13.046875 3.046875 12.953125 C 1.734375 11.640625 1 9.855469 1 8 C 1 6.140625 1.734375 4.359375 3.046875 3.046875 C 3.21875 2.875 3.242188 2.609375 3.105469 2.40625 Z M 3.105469 2.40625 "/>
<path style=" stroke:none;fill-rule:evenodd;fill:rgb(100%,100%,100%);fill-opacity:1;" d="M 10.058594 5.242188 C 10.078125 5.21875 10.09375 5.195312 10.117188 5.171875 C 10.210938 5.078125 10.335938 5.027344 10.46875 5.027344 C 10.601562 5.027344 10.730469 5.078125 10.824219 5.171875 C 11.574219 5.921875 11.996094 6.9375 11.996094 8 C 11.996094 9.058594 11.574219 10.078125 10.824219 10.828125 C 10.632812 11.015625 10.320312 11.019531 10.125 10.828125 C 10.03125 10.734375 9.976562 10.609375 9.976562 10.476562 C 9.976562 10.34375 10.03125 10.21875 10.125 10.121094 C 10.6875 9.558594 11 8.796875 11 8 C 11 7.203125 10.679688 6.445312 10.117188 5.882812 C 9.945312 5.710938 9.921875 5.441406 10.058594 5.242188 Z M 10.058594 5.242188 "/>
<path style=" stroke:none;fill-rule:evenodd;fill:rgb(100%,100%,100%);fill-opacity:1;" d="M 11.480469 3.828125 C 11.496094 3.804688 11.515625 3.78125 11.539062 3.761719 C 11.632812 3.667969 11.757812 3.613281 11.890625 3.613281 C 12.023438 3.613281 12.148438 3.664062 12.242188 3.757812 C 13.367188 4.882812 14 6.414062 14 8.003906 C 14 9.59375 13.363281 11.121094 12.238281 12.246094 C 12.039062 12.4375 11.726562 12.4375 11.53125 12.242188 C 11.34375 12.046875 11.34375 11.734375 11.535156 11.542969 C 12.476562 10.605469 13 9.332031 13 8.007812 C 13 6.679688 12.476562 5.40625 11.539062 4.46875 C 11.367188 4.296875 11.34375 4.03125 11.480469 3.828125 Z M 11.480469 3.828125 "/>
<path style=" stroke:none;fill-rule:evenodd;fill:rgb(100%,100%,100%);fill-opacity:1;" d="M 12.890625 2.421875 C 12.90625 2.390625 12.929688 2.367188 12.953125 2.34375 C 13.046875 2.25 13.171875 2.195312 13.304688 2.195312 C 13.4375 2.195312 13.5625 2.25 13.660156 2.34375 C 15.160156 3.84375 16 5.878906 16 8 C 16 10.125 15.15625 12.160156 13.65625 13.660156 C 13.5625 13.757812 13.433594 13.808594 13.300781 13.808594 C 13.167969 13.808594 13.039062 13.757812 12.945312 13.664062 C 12.851562 13.570312 12.800781 13.441406 12.796875 13.308594 C 12.796875 13.175781 12.851562 13.046875 12.945312 12.953125 C 14.257812 11.640625 15 9.859375 15 8.003906 C 15 6.148438 14.265625 4.367188 12.953125 3.054688 C 12.78125 2.882812 12.757812 2.617188 12.890625 2.421875 Z M 12.890625 2.421875 "/>
</g>
</svg>
