<?xml version="1.0" encoding="UTF-8"?>
<svg xmlns="http://www.w3.org/2000/svg" xmlns:xlink="http://www.w3.org/1999/xlink" width="16" height="16" viewBox="0 0 16 16" version="1.1">
<g id="surface1">
<path style=" stroke:none;fill-rule:nonzero;fill:rgb(100%,100%,100%);fill-opacity:1;" d="M 4 5.332031 L 4 6.667969 L 12 6.667969 L 12 5.332031 L 10 5.332031 L 10 1.332031 L 11.332031 1.332031 L 11.332031 4 L 14.667969 4 L 14.667969 5.332031 L 13.332031 5.332031 L 13.332031 13.332031 C 13.332031 13.703125 13.035156 14 12.667969 14 L 3.332031 14 C 2.964844 14 2.667969 13.703125 2.667969 13.332031 L 2.667969 5.332031 L 1.332031 5.332031 L 1.332031 4 L 4.667969 4 L 4.667969 1.332031 L 6 1.332031 L 6 5.332031 Z M 8.667969 1.332031 L 8.667969 5.332031 L 7.332031 5.332031 L 7.332031 1.332031 Z M 8.667969 1.332031 "/>
</g>
</svg>
