<?xml version="1.0" encoding="UTF-8"?>
<svg xmlns="http://www.w3.org/2000/svg" xmlns:xlink="http://www.w3.org/1999/xlink" width="16" height="16" viewBox="0 0 16 16" version="1.1">
<g id="surface1">
<path style=" stroke:none;fill-rule:nonzero;fill:rgb(100%,100%,100%);fill-opacity:1;" d="M 1.476562 9.375 C 1.285156 8.46875 1.285156 7.53125 1.476562 6.625 C 2.214844 6.714844 2.863281 6.46875 3.074219 5.960938 C 3.285156 5.449219 3 4.820312 2.414062 4.355469 C 2.921875 3.582031 3.582031 2.921875 4.355469 2.414062 C 4.820312 3 5.449219 3.285156 5.960938 3.074219 C 6.46875 2.863281 6.714844 2.214844 6.625 1.476562 C 7.53125 1.285156 8.46875 1.285156 9.375 1.476562 C 9.285156 2.214844 9.53125 2.863281 10.039062 3.074219 C 10.550781 3.285156 11.179688 3 11.644531 2.414062 C 12.417969 2.921875 13.078125 3.582031 13.585938 4.355469 C 13 4.820312 12.714844 5.449219 12.925781 5.960938 C 13.136719 6.46875 13.785156 6.714844 14.523438 6.625 C 14.714844 7.53125 14.714844 8.46875 14.523438 9.375 C 13.785156 9.285156 13.136719 9.53125 12.925781 10.039062 C 12.714844 10.550781 13 11.179688 13.585938 11.644531 C 13.078125 12.417969 12.417969 13.078125 11.644531 13.585938 C 11.179688 13 10.550781 12.714844 10.039062 12.925781 C 9.53125 13.136719 9.285156 13.785156 9.375 14.523438 C 8.46875 14.714844 7.53125 14.714844 6.625 14.523438 C 6.714844 13.785156 6.46875 13.136719 5.960938 12.925781 C 5.449219 12.714844 4.820312 13 4.355469 13.585938 C 3.582031 13.078125 2.921875 12.417969 2.414062 11.644531 C 3 11.179688 3.285156 10.550781 3.074219 10.039062 C 2.863281 9.53125 2.214844 9.285156 1.476562 9.375 Z M 2.667969 8.140625 C 3.398438 8.34375 4.003906 8.808594 4.304688 9.53125 C 4.605469 10.253906 4.503906 11.011719 4.128906 11.671875 C 4.195312 11.738281 4.261719 11.804688 4.328125 11.871094 C 4.988281 11.496094 5.746094 11.398438 6.46875 11.695312 C 7.191406 11.996094 7.65625 12.601562 7.859375 13.332031 C 7.953125 13.335938 8.046875 13.335938 8.140625 13.332031 C 8.34375 12.601562 8.808594 11.996094 9.53125 11.695312 C 10.253906 11.394531 11.011719 11.496094 11.671875 11.871094 C 11.738281 11.804688 11.804688 11.738281 11.871094 11.671875 C 11.496094 11.011719 11.398438 10.253906 11.695312 9.53125 C 11.996094 8.808594 12.601562 8.34375 13.332031 8.140625 C 13.335938 8.046875 13.335938 7.953125 13.332031 7.859375 C 12.601562 7.65625 11.996094 7.191406 11.695312 6.46875 C 11.394531 5.746094 11.496094 4.988281 11.871094 4.328125 C 11.804688 4.261719 11.738281 4.195312 11.671875 4.128906 C 11.011719 4.503906 10.253906 4.601562 9.53125 4.304688 C 8.808594 4.003906 8.34375 3.398438 8.140625 2.667969 C 8.046875 2.664062 7.953125 2.664062 7.859375 2.667969 C 7.65625 3.398438 7.191406 4.003906 6.46875 4.304688 C 5.746094 4.605469 4.988281 4.503906 4.328125 4.128906 C 4.261719 4.195312 4.195312 4.261719 4.128906 4.328125 C 4.503906 4.988281 4.601562 5.746094 4.304688 6.46875 C 4.003906 7.191406 3.398438 7.65625 2.667969 7.859375 C 2.664062 7.953125 2.664062 8.046875 2.667969 8.140625 Z M 8 10 C 6.894531 10 6 9.105469 6 8 C 6 6.894531 6.894531 6 8 6 C 9.105469 6 10 6.894531 10 8 C 10 9.105469 9.105469 10 8 10 Z M 8 8.667969 C 8.367188 8.667969 8.667969 8.367188 8.667969 8 C 8.667969 7.632812 8.367188 7.332031 8 7.332031 C 7.632812 7.332031 7.332031 7.632812 7.332031 8 C 7.332031 8.367188 7.632812 8.667969 8 8.667969 Z M 8 8.667969 "/>
</g>
</svg>
