<?xml version="1.0" encoding="UTF-8"?>
<svg xmlns="http://www.w3.org/2000/svg" xmlns:xlink="http://www.w3.org/1999/xlink" width="16" height="16" viewBox="0 0 16 16" version="1.1">
<g id="surface1">
<path style=" stroke:none;fill-rule:nonzero;fill:rgb(100%,100%,100%);fill-opacity:1;" d="M 6.636719 1.472656 C 7.535156 1.285156 8.464844 1.285156 9.363281 1.472656 C 9.484375 2.273438 9.964844 2.976562 10.667969 3.378906 C 11.367188 3.785156 12.214844 3.851562 12.972656 3.554688 C 13.582031 4.238281 14.046875 5.042969 14.332031 5.917969 C 13.699219 6.421875 13.332031 7.191406 13.332031 8 C 13.332031 8.84375 13.722656 9.59375 14.335938 10.082031 C 14.046875 10.957031 13.582031 11.757812 12.96875 12.445312 C 12.214844 12.148438 11.367188 12.214844 10.667969 12.617188 C 9.964844 13.023438 9.484375 13.726562 9.363281 14.523438 C 8.464844 14.714844 7.535156 14.714844 6.636719 14.527344 C 6.515625 13.726562 6.035156 13.023438 5.332031 12.617188 C 4.632812 12.210938 3.785156 12.148438 3.027344 12.445312 C 2.417969 11.757812 1.953125 10.953125 1.667969 10.082031 C 2.300781 9.574219 2.667969 8.808594 2.667969 8 C 2.667969 7.1875 2.296875 6.421875 1.664062 5.917969 C 1.953125 5.042969 2.417969 4.238281 3.03125 3.554688 C 3.785156 3.851562 4.632812 3.785156 5.332031 3.378906 C 6.035156 2.976562 6.515625 2.273438 6.636719 1.472656 Z M 8 10 C 9.105469 10 10 9.105469 10 8 C 10 6.894531 9.105469 6 8 6 C 6.894531 6 6 6.894531 6 8 C 6 9.105469 6.894531 10 8 10 Z M 8 10 "/>
</g>
</svg>
