<?xml version="1.0" encoding="UTF-8"?>
<svg xmlns="http://www.w3.org/2000/svg" xmlns:xlink="http://www.w3.org/1999/xlink" width="16" height="16" viewBox="0 0 16 16" version="1.1">
<g id="surface1">
<path style=" stroke:none;fill-rule:nonzero;fill:rgb(100%,100%,100%);fill-opacity:1;" d="M 5.789062 2.667969 L 7.527344 0.929688 C 7.789062 0.667969 8.210938 0.667969 8.472656 0.929688 L 10.210938 2.667969 L 12.667969 2.667969 C 13.035156 2.667969 13.332031 2.964844 13.332031 3.332031 L 13.332031 5.789062 L 15.070312 7.527344 C 15.332031 7.789062 15.332031 8.210938 15.070312 8.472656 L 13.332031 10.210938 L 13.332031 12.667969 C 13.332031 13.035156 13.035156 13.332031 12.667969 13.332031 L 10.210938 13.332031 L 8.472656 15.070312 C 8.210938 15.332031 7.789062 15.332031 7.527344 15.070312 L 5.789062 13.332031 L 3.332031 13.332031 C 2.964844 13.332031 2.667969 13.035156 2.667969 12.667969 L 2.667969 10.210938 L 0.929688 8.472656 C 0.667969 8.210938 0.667969 7.789062 0.929688 7.527344 L 2.667969 5.789062 L 2.667969 3.332031 C 2.667969 2.964844 2.964844 2.667969 3.332031 2.667969 Z M 8 10 C 9.105469 10 10 9.105469 10 8 C 10 6.894531 9.105469 6 8 6 C 6.894531 6 6 6.894531 6 8 C 6 9.105469 6.894531 10 8 10 Z M 8 10 "/>
</g>
</svg>
