<?xml version="1.0" encoding="UTF-8"?>
<svg xmlns="http://www.w3.org/2000/svg" xmlns:xlink="http://www.w3.org/1999/xlink" width="16" height="16" viewBox="0 0 16 16" version="1.1">
<g id="surface1">
<path style=" stroke:none;fill-rule:nonzero;fill:rgb(100%,100%,100%);fill-opacity:1;" d="M 1.332031 8 C 1.332031 7.421875 1.40625 6.863281 1.542969 6.332031 C 2.296875 6.371094 3.003906 5.984375 3.378906 5.332031 C 3.757812 4.683594 3.734375 3.875 3.328125 3.246094 C 4.132812 2.453125 5.128906 1.878906 6.214844 1.574219 C 6.558594 2.246094 7.246094 2.667969 8 2.667969 C 8.75 2.667969 9.441406 2.246094 9.78125 1.574219 C 10.871094 1.878906 11.867188 2.453125 12.671875 3.246094 C 12.261719 3.875 12.242188 4.683594 12.617188 5.335938 C 12.992188 5.984375 13.703125 6.371094 14.457031 6.332031 C 14.59375 6.863281 14.664062 7.421875 14.664062 8 C 14.664062 8.578125 14.59375 9.136719 14.457031 9.667969 C 13.703125 9.628906 12.996094 10.015625 12.617188 10.664062 C 12.242188 11.316406 12.261719 12.125 12.671875 12.753906 C 11.867188 13.546875 10.871094 14.121094 9.78125 14.425781 C 9.441406 13.753906 8.75 13.332031 8 13.332031 C 7.246094 13.332031 6.558594 13.753906 6.214844 14.425781 C 5.128906 14.121094 4.132812 13.546875 3.328125 12.753906 C 3.738281 12.125 3.757812 11.316406 3.382812 10.664062 C 3.003906 10.015625 2.292969 9.628906 1.542969 9.667969 C 1.40625 9.136719 1.332031 8.578125 1.332031 8 Z M 4.535156 10 C 4.957031 10.726562 5.074219 11.5625 4.910156 12.347656 C 5.183594 12.542969 5.472656 12.710938 5.777344 12.847656 C 6.386719 12.300781 7.179688 12 8 12 C 8.839844 12 9.625 12.3125 10.222656 12.847656 C 10.527344 12.710938 10.816406 12.542969 11.089844 12.347656 C 10.917969 11.546875 11.054688 10.710938 11.464844 10 C 11.875 9.289062 12.53125 8.753906 13.3125 8.5 C 13.339844 8.167969 13.339844 7.832031 13.3125 7.5 C 12.53125 7.246094 11.875 6.710938 11.464844 6 C 11.054688 5.289062 10.917969 4.453125 11.085938 3.652344 C 10.816406 3.457031 10.527344 3.289062 10.222656 3.152344 C 9.613281 3.699219 8.820312 4 8 4 C 7.179688 4 6.386719 3.699219 5.777344 3.152344 C 5.472656 3.289062 5.183594 3.457031 4.910156 3.652344 C 5.082031 4.453125 4.945312 5.289062 4.535156 6 C 4.125 6.710938 3.46875 7.246094 2.6875 7.5 C 2.660156 7.832031 2.660156 8.167969 2.6875 8.5 C 3.46875 8.753906 4.125 9.289062 4.535156 10 Z M 8 10 C 6.894531 10 6 9.105469 6 8 C 6 6.894531 6.894531 6 8 6 C 9.105469 6 10 6.894531 10 8 C 10 9.105469 9.105469 10 8 10 Z M 8 8.667969 C 8.367188 8.667969 8.667969 8.367188 8.667969 8 C 8.667969 7.632812 8.367188 7.332031 8 7.332031 C 7.632812 7.332031 7.332031 7.632812 7.332031 8 C 7.332031 8.367188 7.632812 8.667969 8 8.667969 Z M 8 8.667969 "/>
</g>
</svg>
