<?xml version="1.0" encoding="UTF-8"?>
<svg xmlns="http://www.w3.org/2000/svg" xmlns:xlink="http://www.w3.org/1999/xlink" width="16" height="16" viewBox="0 0 16 16" version="1.1">
<g id="surface1">
<path style=" stroke:none;fill-rule:nonzero;fill:rgb(100%,100%,100%);fill-opacity:1;" d="M 3.332031 5.332031 C 2.230469 5.332031 1.332031 4.4375 1.332031 3.332031 C 1.332031 2.230469 2.230469 1.332031 3.332031 1.332031 C 4.4375 1.332031 5.332031 2.230469 5.332031 3.332031 C 5.332031 4.4375 4.4375 5.332031 3.332031 5.332031 Z M 12.667969 5.332031 C 11.5625 5.332031 10.667969 4.4375 10.667969 3.332031 C 10.667969 2.230469 11.5625 1.332031 12.667969 1.332031 C 13.769531 1.332031 14.667969 2.230469 14.667969 3.332031 C 14.667969 4.4375 13.769531 5.332031 12.667969 5.332031 Z M 12.667969 14.667969 C 11.5625 14.667969 10.667969 13.769531 10.667969 12.667969 C 10.667969 11.5625 11.5625 10.667969 12.667969 10.667969 C 13.769531 10.667969 14.667969 11.5625 14.667969 12.667969 C 14.667969 13.769531 13.769531 14.667969 12.667969 14.667969 Z M 3.332031 14.667969 C 2.230469 14.667969 1.332031 13.769531 1.332031 12.667969 C 1.332031 11.5625 2.230469 10.667969 3.332031 10.667969 C 4.4375 10.667969 5.332031 11.5625 5.332031 12.667969 C 5.332031 13.769531 4.4375 14.667969 3.332031 14.667969 Z M 6 2.667969 L 10 2.667969 L 10 4 L 6 4 Z M 6 12 L 10 12 L 10 13.332031 L 6 13.332031 Z M 2.667969 6 L 4 6 L 4 10 L 2.667969 10 Z M 12 6 L 13.332031 6 L 13.332031 10 L 12 10 Z M 12 6 "/>
</g>
</svg>
