<?xml version="1.0" encoding="UTF-8"?>
<svg xmlns="http://www.w3.org/2000/svg" xmlns:xlink="http://www.w3.org/1999/xlink" width="16" height="16" viewBox="0 0 16 16" version="1.1">
<g id="surface1">
<path style=" stroke:none;fill-rule:nonzero;fill:rgb(100%,100%,100%);fill-opacity:1;" d="M 8.746094 11.347656 L 5.949219 9.820312 C 5.199219 10.621094 4.039062 10.882812 3.019531 10.480469 C 2.003906 10.078125 1.332031 9.09375 1.332031 8 C 1.332031 6.90625 2.003906 5.921875 3.019531 5.519531 C 4.039062 5.117188 5.199219 5.378906 5.949219 6.179688 L 8.746094 4.652344 C 8.417969 3.351562 9.109375 2.007812 10.359375 1.515625 C 11.609375 1.027344 13.027344 1.542969 13.671875 2.71875 C 14.316406 3.898438 13.984375 5.371094 12.894531 6.160156 C 11.808594 6.945312 10.304688 6.800781 9.386719 5.820312 L 6.585938 7.347656 C 6.695312 7.777344 6.695312 8.222656 6.585938 8.652344 L 9.386719 10.179688 C 10.304688 9.199219 11.808594 9.054688 12.894531 9.839844 C 13.984375 10.628906 14.316406 12.101562 13.671875 13.28125 C 13.027344 14.457031 11.609375 14.972656 10.359375 14.484375 C 9.109375 13.992188 8.417969 12.648438 8.746094 11.347656 Z M 4 9.332031 C 4.738281 9.332031 5.332031 8.738281 5.332031 8 C 5.332031 7.261719 4.738281 6.667969 4 6.667969 C 3.261719 6.667969 2.667969 7.261719 2.667969 8 C 2.667969 8.738281 3.261719 9.332031 4 9.332031 Z M 11.332031 5.332031 C 12.070312 5.332031 12.667969 4.738281 12.667969 4 C 12.667969 3.261719 12.070312 2.667969 11.332031 2.667969 C 10.597656 2.667969 10 3.261719 10 4 C 10 4.738281 10.597656 5.332031 11.332031 5.332031 Z M 11.332031 13.332031 C 12.070312 13.332031 12.667969 12.738281 12.667969 12 C 12.667969 11.261719 12.070312 10.667969 11.332031 10.667969 C 10.597656 10.667969 10 11.261719 10 12 C 10 12.738281 10.597656 13.332031 11.332031 13.332031 Z M 11.332031 13.332031 "/>
</g>
</svg>
