<?xml version="1.0" encoding="UTF-8"?>
<svg xmlns="http://www.w3.org/2000/svg" xmlns:xlink="http://www.w3.org/1999/xlink" width="16" height="16" viewBox="0 0 16 16" version="1.1">
<g id="surface1">
<path style=" stroke:none;fill-rule:nonzero;fill:rgb(100%,100%,100%);fill-opacity:1;" d="M 7.996094 0.234375 C 7.980469 0.234375 7.964844 0.234375 7.949219 0.234375 C 7.941406 0.234375 7.933594 0.234375 7.925781 0.238281 C 7.914062 0.238281 7.90625 0.242188 7.890625 0.242188 C 7.890625 0.242188 7.890625 0.242188 7.886719 0.242188 C 7.867188 0.25 7.84375 0.25 7.828125 0.257812 C 7.824219 0.257812 7.820312 0.257812 7.820312 0.257812 C 7.804688 0.265625 7.785156 0.273438 7.765625 0.28125 C 7.75 0.289062 7.734375 0.296875 7.71875 0.3125 C 7.714844 0.3125 7.710938 0.3125 7.710938 0.3125 C 7.710938 0.3125 7.707031 0.316406 7.703125 0.316406 C 7.6875 0.328125 7.671875 0.335938 7.660156 0.347656 C 7.65625 0.351562 7.648438 0.359375 7.640625 0.363281 C 7.628906 0.375 7.617188 0.382812 7.609375 0.390625 C 7.59375 0.40625 7.582031 0.421875 7.570312 0.433594 C 7.558594 0.449219 7.546875 0.464844 7.535156 0.480469 C 7.535156 0.484375 7.53125 0.484375 7.53125 0.484375 C 7.53125 0.484375 7.53125 0.488281 7.53125 0.492188 C 7.53125 0.492188 7.527344 0.492188 7.527344 0.492188 C 6.695312 1.820312 5.828125 2.296875 4.804688 2.441406 C 3.78125 2.585938 2.5625 2.34375 1.238281 2.023438 L 0.59375 1.867188 L 0.550781 2.53125 C 0.289062 6.90625 1.015625 9.835938 2.390625 11.859375 C 3.75 13.871094 5.710938 14.9375 7.75 15.714844 C 7.765625 15.722656 7.78125 15.730469 7.800781 15.738281 C 7.820312 15.742188 7.839844 15.75 7.859375 15.757812 C 7.882812 15.757812 7.898438 15.765625 7.921875 15.765625 C 7.9375 15.769531 7.953125 15.773438 7.96875 15.773438 C 7.984375 15.773438 8 15.773438 8.015625 15.773438 C 8.023438 15.773438 8.03125 15.773438 8.042969 15.773438 C 8.042969 15.773438 8.046875 15.773438 8.046875 15.773438 C 8.0625 15.769531 8.078125 15.765625 8.09375 15.765625 C 8.109375 15.761719 8.121094 15.757812 8.136719 15.75 C 8.15625 15.75 8.171875 15.742188 8.195312 15.738281 C 8.195312 15.734375 8.195312 15.734375 8.195312 15.734375 C 8.195312 15.734375 8.195312 15.734375 8.199219 15.734375 C 8.21875 15.726562 8.238281 15.71875 8.257812 15.707031 C 10.296875 14.929688 12.25 13.863281 13.609375 11.859375 C 14.984375 9.832031 15.710938 6.90625 15.449219 2.527344 L 15.414062 1.863281 L 14.761719 2.015625 C 13.4375 2.335938 12.21875 2.585938 11.195312 2.4375 C 10.171875 2.289062 9.304688 1.816406 8.472656 0.492188 C 8.46875 0.488281 8.46875 0.488281 8.46875 0.484375 C 8.445312 0.453125 8.421875 0.417969 8.390625 0.390625 C 8.390625 0.390625 8.390625 0.386719 8.390625 0.386719 C 8.375 0.375 8.363281 0.359375 8.347656 0.351562 C 8.34375 0.347656 8.34375 0.34375 8.34375 0.34375 C 8.328125 0.335938 8.3125 0.320312 8.296875 0.3125 C 8.257812 0.289062 8.222656 0.273438 8.183594 0.257812 C 8.171875 0.257812 8.15625 0.25 8.140625 0.242188 C 8.132812 0.242188 8.128906 0.242188 8.125 0.242188 C 8.125 0.242188 8.125 0.242188 8.121094 0.242188 C 8.117188 0.238281 8.117188 0.238281 8.113281 0.238281 C 8.078125 0.230469 8.039062 0.226562 8 0.226562 C 8 0.226562 8 0.226562 7.996094 0.226562 Z M 7.996094 0.234375 "/>
</g>
</svg>
