<?xml version="1.0" encoding="UTF-8"?>
<svg xmlns="http://www.w3.org/2000/svg" xmlns:xlink="http://www.w3.org/1999/xlink" width="16" height="16" viewBox="0 0 16 16" version="1.1">
<g id="surface1">
<path style=" stroke:none;fill-rule:nonzero;fill:rgb(100%,100%,100%);fill-opacity:1;" d="M 8 1.332031 C 10.210938 1.332031 12 3.125 12 5.332031 L 12 6 L 14.667969 6 L 14.667969 7.332031 L 13.886719 7.332031 L 13.382812 13.386719 C 13.355469 13.734375 13.066406 14 12.71875 14 L 3.28125 14 C 2.933594 14 2.644531 13.734375 2.617188 13.386719 L 2.109375 7.332031 L 1.332031 7.332031 L 1.332031 6 L 4 6 L 4 5.332031 C 4 3.125 5.789062 1.332031 8 1.332031 Z M 12.550781 7.332031 L 3.449219 7.332031 L 3.894531 12.667969 L 12.105469 12.667969 Z M 8.667969 8.667969 L 8.667969 11.332031 L 7.332031 11.332031 L 7.332031 8.667969 Z M 6 8.667969 L 6 11.332031 L 4.667969 11.332031 L 4.667969 8.667969 Z M 11.332031 8.667969 L 11.332031 11.332031 L 10 11.332031 L 10 8.667969 Z M 8 2.667969 C 6.578125 2.667969 5.40625 3.78125 5.335938 5.199219 L 5.332031 5.332031 L 5.332031 6 L 10.667969 6 L 10.667969 5.332031 C 10.667969 3.914062 9.550781 2.742188 8.132812 2.671875 Z M 8 2.667969 "/>
</g>
</svg>
