<?xml version="1.0" encoding="UTF-8"?>
<svg xmlns="http://www.w3.org/2000/svg" xmlns:xlink="http://www.w3.org/1999/xlink" width="16" height="16" viewBox="0 0 16 16" version="1.1">
<g id="surface1">
<path style=" stroke:none;fill-rule:nonzero;fill:rgb(100%,100%,100%);fill-opacity:1;" d="M 4.175781 2.539062 L 4.941406 3.628906 C 3.035156 4.964844 2.214844 7.382812 2.914062 9.601562 C 3.613281 11.824219 5.671875 13.332031 8 13.332031 C 10.328125 13.332031 12.386719 11.824219 13.085938 9.601562 C 13.785156 7.382812 12.964844 4.964844 11.058594 3.628906 L 11.824219 2.539062 C 13.605469 3.785156 14.667969 5.824219 14.667969 8 C 14.667969 11.683594 11.683594 14.667969 8 14.667969 C 4.316406 14.667969 1.332031 11.683594 1.332031 8 C 1.332031 5.824219 2.394531 3.785156 4.175781 2.539062 Z M 7.332031 8 L 7.332031 1.332031 L 8.667969 1.332031 L 8.667969 8 Z M 7.332031 8 "/>
</g>
</svg>
