<?xml version="1.0" encoding="UTF-8"?>
<svg xmlns="http://www.w3.org/2000/svg" xmlns:xlink="http://www.w3.org/1999/xlink" width="16" height="16" viewBox="0 0 16 16" version="1.1">
<g id="surface1">
<path style=" stroke:none;fill-rule:nonzero;fill:rgb(100%,100%,100%);fill-opacity:1;" d="M 3.648438 11.804688 C 3.550781 11.804688 3.457031 11.84375 3.390625 11.910156 L 0.148438 15.148438 C -0.160156 15.46875 0.0625 15.992188 0.5 16 L 4 16 L 4 12.164062 C 4 11.96875 3.84375 11.808594 3.648438 11.804688 Z M 2.996094 13.726562 L 2.996094 14.992188 L 1.726562 14.992188 Z M 2.996094 13.726562 "/>
<path style=" stroke:none;fill-rule:nonzero;fill:rgb(100%,100%,100%);fill-opacity:1;" d="M 9.710938 5.710938 C 9.632812 5.710938 9.554688 5.742188 9.5 5.796875 L 6.5625 8.734375 C 6.203125 9.09375 6 9.585938 6 10.097656 L 6 16 L 10 16 L 10 6 C 10 5.84375 9.871094 5.710938 9.710938 5.710938 Z M 9 7.671875 L 9 14.953125 L 7.007812 14.953125 L 7.007812 10.046875 C 7.007812 9.808594 7.101562 9.570312 7.273438 9.398438 Z M 9 7.671875 "/>
<path style=" stroke:none;fill-rule:nonzero;fill:rgb(100%,100%,100%);fill-opacity:1;" d="M 15.472656 0.00390625 C 15.351562 0.0078125 15.234375 0.0625 15.148438 0.148438 L 12.5 2.800781 C 12.179688 3.117188 12 3.550781 12 4 L 12 16 L 15.5 16 C 15.773438 15.996094 15.992188 15.773438 15.996094 15.503906 L 15.996094 0.503906 C 15.996094 0.21875 15.757812 -0.0117188 15.472656 0.00390625 Z M 15 1.710938 L 15 15.007812 L 12.996094 15.007812 L 12.996094 4.007812 C 12.996094 3.820312 13.070312 3.640625 13.203125 3.507812 Z M 15 1.710938 "/>
</g>
</svg>
