<?xml version="1.0" encoding="UTF-8"?>
<svg xmlns="http://www.w3.org/2000/svg" xmlns:xlink="http://www.w3.org/1999/xlink" width="16" height="16" viewBox="0 0 16 16" version="1.1">
<g id="surface1">
<path style=" stroke:none;fill-rule:nonzero;fill:rgb(100%,100%,100%);fill-opacity:1;" d="M 10.667969 8.445312 L 3.851562 12.988281 C 3.75 13.054688 3.617188 13.0625 3.507812 13.003906 C 3.402344 12.945312 3.332031 12.832031 3.332031 12.710938 L 3.332031 3.289062 C 3.332031 3.167969 3.402344 3.054688 3.507812 2.996094 C 3.617188 2.9375 3.75 2.945312 3.851562 3.011719 L 10.667969 7.554688 L 10.667969 3.332031 C 10.667969 2.964844 10.964844 2.667969 11.332031 2.667969 C 11.703125 2.667969 12 2.964844 12 3.332031 L 12 12.667969 C 12 13.035156 11.703125 13.332031 11.332031 13.332031 C 10.964844 13.332031 10.667969 13.035156 10.667969 12.667969 Z M 4.667969 5.15625 L 4.667969 10.84375 L 8.929688 8 Z M 4.667969 5.15625 "/>
</g>
</svg>
