<?xml version="1.0" encoding="UTF-8"?>
<svg xmlns="http://www.w3.org/2000/svg" xmlns:xlink="http://www.w3.org/1999/xlink" width="16" height="16" viewBox="0 0 16 16" version="1.1">
<g id="surface1">
<path style=" stroke:none;fill-rule:nonzero;fill:rgb(100%,100%,100%);fill-opacity:1;" d="M 8.667969 11.332031 L 8.667969 13.332031 L 12 13.332031 L 12 14.667969 L 4 14.667969 L 4 13.332031 L 7.332031 13.332031 L 7.332031 11.332031 L 2.667969 11.332031 C 2.296875 11.332031 2 11.035156 2 10.667969 L 2 2.667969 L 1.332031 2.667969 L 1.332031 1.332031 L 14.667969 1.332031 L 14.667969 2.667969 L 14 2.667969 L 14 10.667969 C 14 11.035156 13.703125 11.332031 13.332031 11.332031 Z M 3.332031 10 L 12.667969 10 L 12.667969 2.667969 L 3.332031 2.667969 Z M 6.667969 4 L 10 6.332031 L 6.667969 8.667969 Z M 6.667969 4 "/>
</g>
</svg>
