<?xml version="1.0" encoding="UTF-8"?>
<svg xmlns="http://www.w3.org/2000/svg" xmlns:xlink="http://www.w3.org/1999/xlink" width="16" height="16" viewBox="0 0 16 16" version="1.1">
<g id="surface1">
<path style=" stroke:none;fill-rule:evenodd;fill:rgb(100%,100%,100%);fill-opacity:1;" d="M 4 0 C 2.890625 0 2 0.890625 2 2 L 2 14 C 2 15.109375 2.890625 16 4 16 L 12 16 C 13.109375 16 14 15.109375 14 14 L 14 2 C 14 0.890625 13.109375 0 12 0 Z M 4 2 L 12 2 L 12 12 L 4 12 Z M 8 13 C 8.554688 13 9 13.445312 9 14 C 9 14.554688 8.554688 15 8 15 C 7.445312 15 7 14.554688 7 14 C 7 13.445312 7.445312 13 8 13 Z M 8 13 "/>
</g>
</svg>
