<?xml version="1.0" encoding="UTF-8"?>
<svg xmlns="http://www.w3.org/2000/svg" xmlns:xlink="http://www.w3.org/1999/xlink" width="16" height="16" viewBox="0 0 16 16" version="1.1">
<g id="surface1">
<path style=" stroke:none;fill-rule:nonzero;fill:rgb(100%,100%,100%);fill-opacity:1;" d="M 1.921875 12.035156 C 2.835938 7.976562 4.796875 4.226562 7.605469 1.15625 C 7.707031 1.046875 7.851562 0.984375 8 0.984375 C 8.148438 0.984375 8.292969 1.046875 8.394531 1.15625 C 8.503906 1.277344 8.59375 1.378906 8.667969 1.460938 C 11.332031 4.472656 13.195312 8.113281 14.078125 12.035156 C 12.652344 12.335938 11.1875 12.535156 9.691406 12.617188 L 8.296875 15.402344 C 8.242188 15.515625 8.125 15.589844 8 15.589844 C 7.875 15.589844 7.757812 15.515625 7.703125 15.402344 L 6.308594 12.617188 C 4.832031 12.535156 3.367188 12.339844 1.921875 12.035156 Z M 8 10 C 9.105469 10 10 9.105469 10 8 C 10 6.894531 9.105469 6 8 6 C 6.894531 6 6 6.894531 6 8 C 6 9.105469 6.894531 10 8 10 Z M 8 10 "/>
</g>
</svg>
