<?xml version="1.0" encoding="UTF-8"?>
<svg xmlns="http://www.w3.org/2000/svg" xmlns:xlink="http://www.w3.org/1999/xlink" width="16" height="16" viewBox="0 0 16 16" version="1.1">
<g id="surface1">
<path style=" stroke:none;fill-rule:nonzero;fill:rgb(100%,100%,100%);fill-opacity:1;" d="M 2.667969 2 L 13.332031 2 C 13.703125 2 14 2.296875 14 2.667969 L 14 13.332031 C 14 13.703125 13.703125 14 13.332031 14 L 2.667969 14 C 2.296875 14 2 13.703125 2 13.332031 L 2 2.667969 C 2 2.296875 2.296875 2 2.667969 2 Z M 8 10.667969 C 6.527344 10.667969 5.332031 9.472656 5.332031 8 C 5.332031 6.527344 6.527344 5.332031 8 5.332031 C 9.472656 5.332031 10.667969 6.527344 10.667969 8 C 10.667969 9.472656 9.472656 10.667969 8 10.667969 Z M 8 12 C 10.210938 12 12 10.210938 12 8 C 12 5.789062 10.210938 4 8 4 C 5.789062 4 4 5.789062 4 8 C 4 10.210938 5.789062 12 8 12 Z M 4 4.667969 C 4.367188 4.667969 4.667969 4.367188 4.667969 4 C 4.667969 3.632812 4.367188 3.332031 4 3.332031 C 3.632812 3.332031 3.332031 3.632812 3.332031 4 C 3.332031 4.367188 3.632812 4.667969 4 4.667969 Z M 12 4.667969 C 12.367188 4.667969 12.667969 4.367188 12.667969 4 C 12.667969 3.632812 12.367188 3.332031 12 3.332031 C 11.632812 3.332031 11.332031 3.632812 11.332031 4 C 11.332031 4.367188 11.632812 4.667969 12 4.667969 Z M 12 12.667969 C 12.367188 12.667969 12.667969 12.367188 12.667969 12 C 12.667969 11.632812 12.367188 11.332031 12 11.332031 C 11.632812 11.332031 11.332031 11.632812 11.332031 12 C 11.332031 12.367188 11.632812 12.667969 12 12.667969 Z M 4 12.667969 C 4.367188 12.667969 4.667969 12.367188 4.667969 12 C 4.667969 11.632812 4.367188 11.332031 4 11.332031 C 3.632812 11.332031 3.332031 11.632812 3.332031 12 C 3.332031 12.367188 3.632812 12.667969 4 12.667969 Z M 8 9 C 8.550781 9 9 8.550781 9 8 C 9 7.449219 8.550781 7 8 7 C 7.449219 7 7 7.449219 7 8 C 7 8.550781 7.449219 9 8 9 Z M 8 9 "/>
</g>
</svg>
