<?xml version="1.0" encoding="UTF-8"?>
<svg xmlns="http://www.w3.org/2000/svg" xmlns:xlink="http://www.w3.org/1999/xlink" width="16" height="16" viewBox="0 0 16 16" version="1.1">
<g id="surface1">
<path style=" stroke:none;fill-rule:nonzero;fill:rgb(100%,100%,100%);fill-opacity:1;" d="M 7.59375 1.335938 L 8.800781 1.335938 L 9.363281 1.347656 C 14.136719 1.457031 14.652344 2.355469 14.667969 7.792969 L 14.664062 8.800781 L 14.652344 9.363281 C 14.542969 14.136719 13.644531 14.652344 8.207031 14.667969 L 7.199219 14.664062 L 6.609375 14.652344 C 2.039062 14.542969 1.390625 13.699219 1.335938 8.800781 L 1.332031 7.792969 L 1.335938 7.199219 L 1.347656 6.625 C 1.457031 1.921875 2.339844 1.359375 7.59375 1.335938 Z M 9.414062 2.671875 L 7.253906 2.667969 L 6.375 2.671875 C 2.714844 2.726562 2.675781 3.21875 2.667969 7.609375 L 2.667969 9.058594 L 2.675781 9.753906 C 2.734375 13.074219 3.203125 13.3125 6.941406 13.332031 L 9.242188 13.328125 L 9.761719 13.324219 C 13.167969 13.261719 13.324219 12.765625 13.332031 8.738281 L 13.332031 6.910156 L 13.324219 6.207031 C 13.261719 3.011719 12.800781 2.707031 9.414062 2.671875 Z M 5.5 4.667969 C 8.722656 4.667969 11.332031 7.277344 11.332031 10.5 L 11.332031 10.886719 C 11.332031 11.132812 11.132812 11.332031 10.886719 11.332031 L 8.445312 11.332031 C 8.199219 11.332031 8 11.132812 8 10.886719 L 8 10.5 C 8 9.121094 6.878906 8 5.5 8 L 5.113281 8 C 4.867188 8 4.667969 7.800781 4.667969 7.554688 L 4.667969 5.113281 C 4.667969 4.867188 4.867188 4.667969 5.113281 4.667969 Z M 5.5 4.667969 "/>
</g>
</svg>
