<?xml version="1.0" encoding="UTF-8"?>
<svg xmlns="http://www.w3.org/2000/svg" xmlns:xlink="http://www.w3.org/1999/xlink" width="16" height="16" viewBox="0 0 16 16" version="1.1">
<g id="surface1">
<path style=" stroke:none;fill-rule:nonzero;fill:rgb(100%,100%,100%);fill-opacity:1;" d="M 8 8.886719 L 1.851562 12.988281 C 1.75 13.054688 1.617188 13.0625 1.507812 13.003906 C 1.402344 12.945312 1.332031 12.832031 1.332031 12.710938 L 1.332031 3.289062 C 1.332031 3.167969 1.402344 3.054688 1.507812 2.996094 C 1.617188 2.9375 1.75 2.945312 1.851562 3.011719 L 8 7.113281 L 8 3.289062 C 8 3.167969 8.066406 3.054688 8.175781 2.996094 C 8.285156 2.9375 8.414062 2.945312 8.519531 3.011719 L 15.585938 7.722656 C 15.675781 7.785156 15.730469 7.886719 15.730469 8 C 15.730469 8.113281 15.675781 8.214844 15.585938 8.277344 L 8.519531 12.988281 C 8.414062 13.054688 8.285156 13.0625 8.175781 13.003906 C 8.066406 12.945312 8 12.832031 8 12.710938 Z M 6.929688 8 L 2.667969 5.15625 L 2.667969 10.84375 Z M 9.332031 5.15625 L 9.332031 10.84375 L 13.597656 8 Z M 9.332031 5.15625 "/>
</g>
</svg>
