<?xml version="1.0" encoding="UTF-8"?>
<svg xmlns="http://www.w3.org/2000/svg" xmlns:xlink="http://www.w3.org/1999/xlink" width="16" height="16" viewBox="0 0 16 16" version="1.1">
<g id="surface1">
<path style=" stroke:none;fill-rule:nonzero;fill:rgb(100%,100%,100%);fill-opacity:1;" d="M 3.191406 11.628906 C 3.089844 11.699219 2.957031 11.710938 2.847656 11.652344 C 2.734375 11.59375 2.667969 11.480469 2.667969 11.355469 L 2.667969 4.644531 C 2.667969 4.519531 2.734375 4.40625 2.847656 4.347656 C 2.957031 4.289062 3.089844 4.300781 3.191406 4.371094 L 7.949219 7.726562 C 8.035156 7.789062 8.089844 7.890625 8.089844 8 C 8.089844 8.109375 8.035156 8.210938 7.949219 8.273438 Z M 8.667969 4.644531 C 8.667969 4.519531 8.734375 4.40625 8.847656 4.347656 C 8.957031 4.289062 9.089844 4.300781 9.191406 4.371094 L 13.949219 7.726562 C 14.035156 7.789062 14.089844 7.890625 14.089844 8 C 14.089844 8.109375 14.035156 8.210938 13.949219 8.273438 L 9.191406 11.628906 C 9.089844 11.699219 8.957031 11.710938 8.847656 11.652344 C 8.734375 11.59375 8.667969 11.480469 8.667969 11.355469 Z M 8.667969 4.644531 "/>
</g>
</svg>
