<?xml version="1.0" encoding="UTF-8"?>
<svg xmlns="http://www.w3.org/2000/svg" xmlns:xlink="http://www.w3.org/1999/xlink" width="16" height="16" viewBox="0 0 16 16" version="1.1">
<g id="surface1">
<path style=" stroke:none;fill-rule:nonzero;fill:rgb(100%,100%,100%);fill-opacity:1;" d="M 4.203125 4.109375 C 3.8125 3.71875 3.179688 3.71875 2.789062 4.109375 C 2.398438 4.5 2.398438 5.132812 2.789062 5.523438 C 3.179688 5.914062 3.8125 5.914062 4.203125 5.523438 C 4.59375 5.132812 4.59375 4.5 4.203125 4.109375 Z M 1.707031 3.050781 C 1.316406 2.660156 0.683594 2.660156 0.292969 3.050781 C -0.0976562 3.441406 -0.0976562 4.074219 0.292969 4.464844 C 0.683594 4.855469 1.316406 4.855469 1.707031 4.464844 C 2.097656 4.074219 2.097656 3.441406 1.707031 3.050781 Z M 4.203125 6.9375 C 3.8125 6.546875 3.179688 6.546875 2.789062 6.9375 C 2.398438 7.328125 2.398438 7.960938 2.789062 8.351562 C 3.179688 8.742188 3.8125 8.742188 4.203125 8.351562 C 4.59375 7.960938 4.59375 7.328125 4.203125 6.9375 Z M 1.707031 5.878906 C 1.316406 5.488281 0.683594 5.488281 0.292969 5.878906 C -0.0976562 6.269531 -0.0976562 6.902344 0.292969 7.292969 C 0.683594 7.683594 1.316406 7.683594 1.707031 7.292969 C 2.097656 6.902344 2.097656 6.269531 1.707031 5.878906 Z M 1.707031 8.707031 C 1.316406 8.316406 0.683594 8.316406 0.292969 8.707031 C -0.0976562 9.097656 -0.0976562 9.730469 0.292969 10.121094 C 0.683594 10.511719 1.316406 10.511719 1.707031 10.121094 C 2.097656 9.730469 2.097656 9.097656 1.707031 8.707031 Z M 1.707031 8.707031 "/>
<path style=" stroke:none;fill-rule:nonzero;fill:rgb(100%,100%,100%);fill-opacity:1;" d="M 5 4 L 7 7.601562 L 7 16 L 9 16 L 9 7.601562 L 11 4 Z M 5 4 "/>
<path style=" stroke:none;fill-rule:nonzero;fill:rgb(100%,100%,100%);fill-opacity:1;" d="M 11.796875 4.109375 C 12.1875 3.71875 12.820312 3.71875 13.210938 4.109375 C 13.601562 4.5 13.601562 5.132812 13.210938 5.523438 C 12.820312 5.914062 12.1875 5.914062 11.796875 5.523438 C 11.40625 5.132812 11.40625 4.5 11.796875 4.109375 Z M 14.292969 3.050781 C 14.683594 2.660156 15.316406 2.660156 15.707031 3.050781 C 16.097656 3.441406 16.097656 4.074219 15.707031 4.464844 C 15.316406 4.855469 14.683594 4.855469 14.292969 4.464844 C 13.902344 4.074219 13.902344 3.441406 14.292969 3.050781 Z M 11.796875 6.9375 C 12.1875 6.546875 12.820312 6.546875 13.210938 6.9375 C 13.601562 7.328125 13.601562 7.960938 13.210938 8.351562 C 12.820312 8.742188 12.1875 8.742188 11.796875 8.351562 C 11.40625 7.960938 11.40625 7.328125 11.796875 6.9375 Z M 14.292969 5.878906 C 14.683594 5.488281 15.316406 5.488281 15.707031 5.878906 C 16.097656 6.269531 16.097656 6.902344 15.707031 7.292969 C 15.316406 7.683594 14.683594 7.683594 14.292969 7.292969 C 13.902344 6.902344 13.902344 6.269531 14.292969 5.878906 Z M 14.292969 8.707031 C 14.683594 8.316406 15.316406 8.316406 15.707031 8.707031 C 16.097656 9.097656 16.097656 9.730469 15.707031 10.121094 C 15.316406 10.511719 14.683594 10.511719 14.292969 10.121094 C 13.902344 9.730469 13.902344 9.097656 14.292969 8.707031 Z M 14.292969 8.707031 "/>
</g>
</svg>
