<?xml version="1.0" encoding="UTF-8"?>
<svg xmlns="http://www.w3.org/2000/svg" xmlns:xlink="http://www.w3.org/1999/xlink" width="16" height="16" viewBox="0 0 16 16" version="1.1">
<g id="surface1">
<path style=" stroke:none;fill-rule:nonzero;fill:rgb(100%,100%,100%);fill-opacity:1;" d="M 6.355469 8.667969 L 4.886719 8.667969 C 4.613281 9.445312 3.871094 10 3 10 C 1.894531 10 1 9.105469 1 8 C 1 6.894531 1.894531 6 3 6 C 3.871094 6 4.613281 6.558594 4.886719 7.332031 L 6.355469 7.332031 L 8.667969 3.332031 L 10.78125 3.332031 C 11.054688 2.558594 11.796875 2 12.667969 2 C 13.769531 2 14.667969 2.894531 14.667969 4 C 14.667969 5.105469 13.769531 6 12.667969 6 C 11.796875 6 11.054688 5.445312 10.78125 4.667969 L 9.4375 4.667969 L 7.511719 8 L 9.4375 11.332031 L 10.78125 11.332031 C 11.054688 10.558594 11.796875 10 12.667969 10 C 13.769531 10 14.667969 10.894531 14.667969 12 C 14.667969 13.105469 13.769531 14 12.667969 14 C 11.796875 14 11.054688 13.445312 10.78125 12.667969 L 8.667969 12.667969 Z M 12.667969 11.332031 C 12.296875 11.332031 12 11.632812 12 12 C 12 12.367188 12.296875 12.667969 12.667969 12.667969 C 13.035156 12.667969 13.332031 12.367188 13.332031 12 C 13.332031 11.632812 13.035156 11.332031 12.667969 11.332031 Z M 3 7.332031 C 2.632812 7.332031 2.332031 7.632812 2.332031 8 C 2.332031 8.367188 2.632812 8.667969 3 8.667969 C 3.367188 8.667969 3.667969 8.367188 3.667969 8 C 3.667969 7.632812 3.367188 7.332031 3 7.332031 Z M 12.667969 3.332031 C 12.296875 3.332031 12 3.632812 12 4 C 12 4.367188 12.296875 4.667969 12.667969 4.667969 C 13.035156 4.667969 13.332031 4.367188 13.332031 4 C 13.332031 3.632812 13.035156 3.332031 12.667969 3.332031 Z M 12.667969 3.332031 "/>
</g>
</svg>
