<?xml version="1.0" encoding="UTF-8"?>
<svg xmlns="http://www.w3.org/2000/svg" xmlns:xlink="http://www.w3.org/1999/xlink" width="16" height="16" viewBox="0 0 16 16" version="1.1">
<g id="surface1">
<path style=" stroke:none;fill-rule:nonzero;fill:rgb(100%,100%,100%);fill-opacity:1;" d="M 13.386719 10.132812 L 14.191406 10.613281 C 14.289062 10.675781 14.351562 10.78125 14.351562 10.898438 C 14.351562 11.015625 14.289062 11.125 14.191406 11.1875 L 8.34375 14.695312 C 8.132812 14.820312 7.867188 14.820312 7.65625 14.695312 L 1.808594 11.1875 C 1.710938 11.125 1.648438 11.015625 1.648438 10.898438 C 1.648438 10.78125 1.710938 10.675781 1.808594 10.613281 L 2.613281 10.132812 L 8 13.367188 Z M 13.386719 7 L 14.191406 7.480469 C 14.289062 7.539062 14.351562 7.648438 14.351562 7.765625 C 14.351562 7.882812 14.289062 7.992188 14.191406 8.050781 L 8 11.765625 L 1.808594 8.050781 C 1.710938 7.992188 1.648438 7.882812 1.648438 7.765625 C 1.648438 7.648438 1.710938 7.539062 1.808594 7.480469 L 2.613281 7 L 8 10.234375 Z M 8.34375 0.871094 L 14.191406 4.378906 C 14.289062 4.441406 14.351562 4.550781 14.351562 4.667969 C 14.351562 4.785156 14.289062 4.890625 14.191406 4.953125 L 8 8.667969 L 1.808594 4.953125 C 1.710938 4.890625 1.648438 4.785156 1.648438 4.667969 C 1.648438 4.550781 1.710938 4.441406 1.808594 4.378906 L 7.65625 0.871094 C 7.867188 0.746094 8.132812 0.746094 8.34375 0.871094 Z M 8 2.222656 L 3.925781 4.667969 L 8 7.113281 L 12.074219 4.667969 Z M 8 2.222656 "/>
</g>
</svg>
