<?xml version="1.0" encoding="UTF-8"?>
<svg xmlns="http://www.w3.org/2000/svg" xmlns:xlink="http://www.w3.org/1999/xlink" width="16" height="16" viewBox="0 0 16 16" version="1.1">
<g id="surface1">
<path style=" stroke:none;fill-rule:nonzero;fill:rgb(100%,100%,100%);fill-opacity:1;" d="M 8 0.332031 L 10.816406 4.457031 L 15.609375 5.863281 L 12.558594 9.816406 L 12.703125 14.804688 L 8 13.125 L 3.296875 14.804688 L 3.441406 9.816406 L 0.390625 5.863281 L 5.183594 4.457031 Z M 8 2.695312 L 6.015625 5.601562 L 2.636719 6.589844 L 4.789062 9.375 L 4.6875 12.894531 L 8 11.710938 L 11.3125 12.894531 L 11.210938 9.375 L 13.363281 6.589844 L 9.984375 5.601562 Z M 6.667969 8 C 6.667969 8.738281 7.261719 9.332031 8 9.332031 C 8.738281 9.332031 9.332031 8.738281 9.332031 8 L 10.667969 8 C 10.667969 9.472656 9.472656 10.667969 8 10.667969 C 6.527344 10.667969 5.332031 9.472656 5.332031 8 Z M 6.667969 8 "/>
</g>
</svg>
