<?xml version="1.0" encoding="UTF-8"?>
<svg xmlns="http://www.w3.org/2000/svg" xmlns:xlink="http://www.w3.org/1999/xlink" width="16" height="16" viewBox="0 0 16 16" version="1.1">
<g id="surface1">
<path style=" stroke:none;fill-rule:nonzero;fill:rgb(100%,100%,100%);fill-opacity:1;" d="M 5.332031 2 L 5.332031 3.332031 L 4 3.332031 L 4 6 C 4 7.472656 5.191406 8.667969 6.667969 8.667969 C 8.140625 8.667969 9.332031 7.472656 9.332031 6 L 9.332031 3.332031 L 8 3.332031 L 8 2 L 10 2 C 10.367188 2 10.667969 2.296875 10.667969 2.667969 L 10.667969 6 C 10.667969 7.980469 9.226562 9.625 7.332031 9.945312 L 7.332031 11 C 7.332031 12.289062 8.378906 13.332031 9.667969 13.332031 C 10.664062 13.332031 11.515625 12.707031 11.851562 11.824219 C 11.152344 11.511719 10.667969 10.8125 10.667969 10 C 10.667969 8.894531 11.5625 8 12.667969 8 C 13.769531 8 14.667969 8.894531 14.667969 10 C 14.667969 10.914062 14.054688 11.683594 13.214844 11.921875 C 12.808594 13.5 11.371094 14.667969 9.667969 14.667969 C 7.640625 14.667969 6 13.023438 6 11 L 6 9.945312 C 4.109375 9.628906 2.667969 7.980469 2.667969 6 L 2.667969 2.667969 C 2.667969 2.296875 2.964844 2 3.332031 2 Z M 12.667969 9.332031 C 12.296875 9.332031 12 9.632812 12 10 C 12 10.367188 12.296875 10.667969 12.667969 10.667969 C 13.035156 10.667969 13.332031 10.367188 13.332031 10 C 13.332031 9.632812 13.035156 9.332031 12.667969 9.332031 Z M 12.667969 9.332031 "/>
</g>
</svg>
