<?xml version="1.0" encoding="UTF-8"?>
<svg xmlns="http://www.w3.org/2000/svg" xmlns:xlink="http://www.w3.org/1999/xlink" width="16" height="16" viewBox="0 0 16 16" version="1.1">
<g id="surface1">
<path style=" stroke:none;fill-rule:nonzero;fill:rgb(100%,100%,100%);fill-opacity:1;" d="M 12 15.332031 L 10.667969 15.332031 L 10.667969 14.667969 L 5.332031 14.667969 L 5.332031 15.332031 L 4 15.332031 L 4 14.667969 L 3.332031 14.667969 C 2.597656 14.667969 2 14.070312 2 13.332031 L 2 4.667969 C 2 3.929688 2.597656 3.332031 3.332031 3.332031 L 5.332031 3.332031 L 5.332031 2 C 5.332031 1.632812 5.632812 1.332031 6 1.332031 L 10 1.332031 C 10.367188 1.332031 10.667969 1.632812 10.667969 2 L 10.667969 3.332031 L 12.667969 3.332031 C 13.402344 3.332031 14 3.929688 14 4.667969 L 14 13.332031 C 14 14.070312 13.402344 14.667969 12.667969 14.667969 L 12 14.667969 Z M 12.667969 4.667969 L 3.332031 4.667969 L 3.332031 13.332031 L 12.667969 13.332031 Z M 6.667969 6 L 6.667969 12 L 5.332031 12 L 5.332031 6 Z M 10.667969 6 L 10.667969 12 L 9.332031 12 L 9.332031 6 Z M 9.332031 2.667969 L 6.667969 2.667969 L 6.667969 3.332031 L 9.332031 3.332031 Z M 9.332031 2.667969 "/>
</g>
</svg>
