<?xml version="1.0" encoding="UTF-8"?>
<svg xmlns="http://www.w3.org/2000/svg" xmlns:xlink="http://www.w3.org/1999/xlink" width="16" height="16" viewBox="0 0 16 16" version="1.1">
<g id="surface1">
<path style=" stroke:none;fill-rule:nonzero;fill:rgb(100%,100%,100%);fill-opacity:1;" d="M 8 12 C 5.789062 12 4 10.210938 4 8 C 4 5.789062 5.789062 4 8 4 C 10.210938 4 12 5.789062 12 8 C 12 10.210938 10.210938 12 8 12 Z M 7.332031 0.667969 L 8.667969 0.667969 L 8.667969 2.667969 L 7.332031 2.667969 Z M 7.332031 13.332031 L 8.667969 13.332031 L 8.667969 15.332031 L 7.332031 15.332031 Z M 2.34375 3.285156 L 3.285156 2.34375 L 4.699219 3.757812 L 3.757812 4.699219 Z M 11.300781 12.242188 L 12.242188 11.300781 L 13.65625 12.714844 L 12.714844 13.65625 Z M 12.714844 2.34375 L 13.65625 3.285156 L 12.242188 4.699219 L 11.300781 3.757812 Z M 3.757812 11.300781 L 4.699219 12.242188 L 3.285156 13.65625 L 2.34375 12.714844 Z M 15.332031 7.332031 L 15.332031 8.667969 L 13.332031 8.667969 L 13.332031 7.332031 Z M 2.667969 7.332031 L 2.667969 8.667969 L 0.667969 8.667969 L 0.667969 7.332031 Z M 2.667969 7.332031 "/>
</g>
</svg>
