<?xml version="1.0" encoding="UTF-8"?>
<svg xmlns="http://www.w3.org/2000/svg" xmlns:xlink="http://www.w3.org/1999/xlink" width="16" height="16" viewBox="0 0 16 16" version="1.1">
<g id="surface1">
<path style=" stroke:none;fill-rule:nonzero;fill:rgb(100%,100%,100%);fill-opacity:1;" d="M 8 2 L 8 14 L 5.066406 14 C 3.371094 14 2 12.628906 2 10.933594 L 2 5.066406 C 2 3.371094 3.371094 2 5.066406 2 Z M 6.667969 3.332031 L 5.066406 3.332031 C 4.109375 3.332031 3.332031 4.109375 3.332031 5.066406 L 3.332031 10.933594 C 3.332031 11.890625 4.109375 12.667969 5.066406 12.667969 L 6.667969 12.667969 Z M 5 6.667969 C 4.449219 6.667969 4 6.21875 4 5.667969 C 4 5.113281 4.449219 4.667969 5 4.667969 C 5.550781 4.667969 6 5.113281 6 5.667969 C 6 6.21875 5.550781 6.667969 5 6.667969 Z M 9.332031 2 L 10.933594 2 C 12.628906 2 14 3.371094 14 5.066406 L 14 10.933594 C 14 12.628906 12.628906 14 10.933594 14 L 9.332031 14 Z M 11.332031 9.800781 C 11.996094 9.800781 12.535156 9.261719 12.535156 8.601562 C 12.535156 7.9375 11.996094 7.398438 11.332031 7.398438 C 10.671875 7.398438 10.132812 7.9375 10.132812 8.601562 C 10.132812 9.261719 10.671875 9.800781 11.332031 9.800781 Z M 11.332031 9.800781 "/>
</g>
</svg>
