<?xml version="1.0" encoding="UTF-8"?>
<svg xmlns="http://www.w3.org/2000/svg" xmlns:xlink="http://www.w3.org/1999/xlink" width="16" height="16" viewBox="0 0 16 16" version="1.1">
<g id="surface1">
<path style=" stroke:none;fill-rule:nonzero;fill:rgb(100%,100%,100%);fill-opacity:1;" d="M 4.699219 8.9375 L 7.054688 11.292969 L 6.113281 12.238281 L 7.058594 13.179688 L 6.113281 14.125 L 4.464844 12.472656 L 2.578125 14.359375 L 1.636719 13.417969 L 3.523438 11.53125 L 1.871094 9.878906 L 2.816406 8.9375 L 3.757812 9.878906 Z M 2 2 L 4.363281 2.003906 L 12.242188 9.878906 L 13.183594 8.9375 L 14.128906 9.878906 L 12.480469 11.53125 L 14.363281 13.417969 L 13.421875 14.359375 L 11.535156 12.472656 L 9.886719 14.125 L 8.941406 13.179688 L 9.886719 12.238281 L 2.003906 4.355469 Z M 11.636719 2 L 14 2.003906 L 14 4.351562 L 11.300781 7.050781 L 8.941406 4.695312 Z M 11.636719 2 "/>
</g>
</svg>
