<?xml version="1.0" encoding="UTF-8"?>
<svg xmlns="http://www.w3.org/2000/svg" xmlns:xlink="http://www.w3.org/1999/xlink" width="16" height="16" viewBox="0 0 16 16" version="1.1">
<g id="surface1">
<path style=" stroke:none;fill-rule:nonzero;fill:rgb(100%,100%,100%);fill-opacity:1;" d="M 6 2 C 6 3.105469 6.894531 4 8 4 C 9.105469 4 10 3.105469 10 2 L 14 2 C 14.367188 2 14.667969 2.296875 14.667969 2.667969 L 14.667969 7.332031 C 14.667969 7.703125 14.367188 8 14 8 L 12.664062 8 L 12.667969 13.332031 C 12.667969 13.703125 12.367188 14 12 14 L 4 14 C 3.632812 14 3.332031 13.703125 3.332031 13.332031 L 3.332031 8 L 2 8 C 1.632812 8 1.332031 7.703125 1.332031 7.332031 L 1.332031 2.667969 C 1.332031 2.296875 1.632812 2 2 2 Z M 13.332031 3.332031 L 11.054688 3.332031 L 11.042969 3.359375 C 10.527344 4.511719 9.40625 5.277344 8.144531 5.328125 L 8 5.332031 C 6.683594 5.332031 5.492188 4.558594 4.957031 3.359375 L 4.945312 3.332031 L 2.667969 3.332031 L 2.667969 6.667969 L 4.664062 6.664062 L 4.664062 12.667969 L 11.332031 12.667969 L 11.332031 6.667969 L 13.332031 6.664062 Z M 13.332031 3.332031 "/>
</g>
</svg>
