<?xml version="1.0" encoding="UTF-8"?>
<svg xmlns="http://www.w3.org/2000/svg" xmlns:xlink="http://www.w3.org/1999/xlink" width="16" height="16" viewBox="0 0 16 16" version="1.1">
<g id="surface1">
<path style=" stroke:none;fill-rule:nonzero;fill:rgb(100%,100%,100%);fill-opacity:1;" d="M 1.972656 -0.0390625 C 0.867188 -0.0390625 -0.0273438 0.859375 -0.0273438 1.960938 L -0.0273438 6.492188 C -0.0273438 7.1875 0.25 7.855469 0.742188 8.351562 L 8.128906 15.734375 C 8.53125 16.140625 9.1875 16.140625 9.589844 15.734375 L 15.710938 9.617188 C 16.132812 9.195312 16.132812 8.503906 15.710938 8.078125 L 8.359375 0.734375 C 7.867188 0.238281 7.199219 -0.0390625 6.5 -0.0390625 Z M 2.972656 1.460938 C 3.800781 1.460938 4.472656 2.132812 4.472656 2.960938 C 4.472656 3.789062 3.800781 4.460938 2.972656 4.460938 C 2.144531 4.460938 1.472656 3.789062 1.472656 2.960938 C 1.472656 2.132812 2.144531 1.460938 2.972656 1.460938 Z M 2.972656 1.460938 "/>
</g>
</svg>
