<?xml version="1.0" encoding="UTF-8"?>
<svg xmlns="http://www.w3.org/2000/svg" xmlns:xlink="http://www.w3.org/1999/xlink" width="16" height="16" viewBox="0 0 16 16" version="1.1">
<g id="surface1">
<path style=" stroke:none;fill-rule:evenodd;fill:rgb(100%,100%,100%);fill-opacity:1;" d="M 1.960938 2 L 1.960938 9.402344 L 0.554688 10.105469 C 0.3125 10.226562 0.132812 10.429688 0.046875 10.683594 C -0.0351562 10.9375 -0.015625 11.210938 0.101562 11.449219 C 0.222656 11.6875 0.429688 11.867188 0.683594 11.949219 C 0.9375 12.03125 1.210938 12.011719 1.445312 11.890625 L 1.960938 11.636719 L 1.960938 14 L 3.960938 14 L 3.960938 10.636719 L 5.304688 9.964844 L 5.304688 14 L 7.304688 14 L 7.304688 8.964844 L 8.65625 8.289062 L 8.65625 14 L 10.65625 14 L 10.65625 7.289062 L 12 6.617188 L 12 14 L 14 14 L 14 5.617188 L 15.453125 4.894531 C 15.945312 4.644531 16.140625 4.042969 15.890625 3.550781 C 15.71875 3.199219 15.355469 2.984375 14.960938 2.996094 C 14.820312 3 14.679688 3.039062 14.546875 3.109375 L 14 3.382812 L 14 2 L 12 2 L 12 4.382812 L 10.65625 5.054688 L 10.65625 2 L 8.65625 2 L 8.65625 6.054688 L 7.304688 6.726562 L 7.304688 2 L 5.304688 2 L 5.304688 7.726562 L 3.960938 8.402344 L 3.960938 2 Z M 1.960938 2 "/>
</g>
</svg>
