<?xml version="1.0" encoding="UTF-8"?>
<svg xmlns="http://www.w3.org/2000/svg" xmlns:xlink="http://www.w3.org/1999/xlink" width="16" height="16" viewBox="0 0 16 16" version="1.1">
<g id="surface1">
<path style=" stroke:none;fill-rule:nonzero;fill:rgb(100%,100%,100%);fill-opacity:1;" d="M 7.21875 8.667969 L 8.78125 8.667969 C 8.488281 7.84375 8.765625 6.929688 9.457031 6.40625 C 10.152344 5.878906 11.109375 5.863281 11.820312 6.367188 C 12.53125 6.871094 12.835938 7.773438 12.570312 8.605469 C 12.308594 9.433594 11.539062 10 10.667969 10 L 5.332031 10 C 4.460938 10 3.691406 9.433594 3.429688 8.605469 C 3.164062 7.773438 3.46875 6.871094 4.179688 6.367188 C 4.890625 5.863281 5.847656 5.878906 6.542969 6.40625 C 7.234375 6.929688 7.511719 7.84375 7.21875 8.667969 Z M 2.667969 3.332031 L 2.667969 12.667969 L 13.332031 12.667969 L 13.332031 3.332031 Z M 2 2 L 14 2 C 14.367188 2 14.667969 2.296875 14.667969 2.667969 L 14.667969 13.332031 C 14.667969 13.703125 14.367188 14 14 14 L 2 14 C 1.632812 14 1.332031 13.703125 1.332031 13.332031 L 1.332031 2.667969 C 1.332031 2.296875 1.632812 2 2 2 Z M 5.332031 8.667969 C 5.703125 8.667969 6 8.367188 6 8 C 6 7.632812 5.703125 7.332031 5.332031 7.332031 C 4.964844 7.332031 4.667969 7.632812 4.667969 8 C 4.667969 8.367188 4.964844 8.667969 5.332031 8.667969 Z M 10.667969 8.667969 C 11.035156 8.667969 11.332031 8.367188 11.332031 8 C 11.332031 7.632812 11.035156 7.332031 10.667969 7.332031 C 10.296875 7.332031 10 7.632812 10 8 C 10 8.367188 10.296875 8.667969 10.667969 8.667969 Z M 10.667969 8.667969 "/>
</g>
</svg>
