<?xml version="1.0" encoding="UTF-8"?>
<svg xmlns="http://www.w3.org/2000/svg" xmlns:xlink="http://www.w3.org/1999/xlink" width="16" height="16" viewBox="0 0 16 16" version="1.1">
<g id="surface1">
<path style=" stroke:none;fill-rule:nonzero;fill:rgb(100%,100%,100%);fill-opacity:1;" d="M 8 7.332031 C 9.839844 7.332031 11.332031 8.824219 11.332031 10.667969 L 11.332031 14.667969 L 4.667969 14.667969 L 4.667969 10.667969 C 4.667969 8.824219 6.160156 7.332031 8 7.332031 Z M 3.523438 9.335938 C 3.417969 9.695312 3.355469 10.066406 3.339844 10.4375 L 3.332031 10.667969 L 3.332031 14.667969 L 1.332031 14.667969 L 1.332031 11.667969 C 1.332031 10.476562 2.230469 9.476562 3.414062 9.347656 L 3.527344 9.335938 Z M 12.476562 9.335938 C 13.707031 9.414062 14.667969 10.433594 14.667969 11.667969 L 14.667969 14.667969 L 12.667969 14.667969 L 12.667969 10.667969 C 12.667969 10.203125 12.601562 9.757812 12.476562 9.335938 Z M 3.667969 5.332031 C 4.585938 5.332031 5.332031 6.078125 5.332031 7 C 5.332031 7.921875 4.585938 8.667969 3.667969 8.667969 C 2.746094 8.667969 2 7.921875 2 7 C 2 6.078125 2.746094 5.332031 3.667969 5.332031 Z M 12.332031 5.332031 C 13.253906 5.332031 14 6.078125 14 7 C 14 7.921875 13.253906 8.667969 12.332031 8.667969 C 11.414062 8.667969 10.667969 7.921875 10.667969 7 C 10.667969 6.078125 11.414062 5.332031 12.332031 5.332031 Z M 8 1.332031 C 9.472656 1.332031 10.667969 2.527344 10.667969 4 C 10.667969 5.472656 9.472656 6.667969 8 6.667969 C 6.527344 6.667969 5.332031 5.472656 5.332031 4 C 5.332031 2.527344 6.527344 1.332031 8 1.332031 Z M 8 1.332031 "/>
</g>
</svg>
