<?xml version="1.0" encoding="UTF-8"?>
<svg xmlns="http://www.w3.org/2000/svg" xmlns:xlink="http://www.w3.org/1999/xlink" width="16" height="16" viewBox="0 0 16 16" version="1.1">
<g id="surface1">
<path style=" stroke:none;fill-rule:nonzero;fill:rgb(100%,100%,100%);fill-opacity:1;" d="M 8 7.332031 C 9.839844 7.332031 11.332031 8.824219 11.332031 10.667969 L 11.332031 14.667969 L 10 14.667969 L 10 10.667969 C 10 9.609375 9.175781 8.730469 8.117188 8.671875 L 8 8.667969 C 6.941406 8.667969 6.066406 9.492188 6.003906 10.550781 L 6 10.667969 L 6 14.667969 L 4.667969 14.667969 L 4.667969 10.667969 C 4.667969 8.824219 6.160156 7.332031 8 7.332031 Z M 3.667969 9.332031 C 3.851562 9.332031 4.035156 9.355469 4.207031 9.394531 C 4.09375 9.734375 4.023438 10.089844 4.007812 10.445312 L 4 10.667969 L 4 10.722656 C 3.921875 10.695312 3.84375 10.679688 3.761719 10.671875 L 3.667969 10.667969 C 3.152344 10.667969 2.722656 11.058594 2.671875 11.570312 L 2.667969 11.667969 L 2.667969 14.667969 L 1.332031 14.667969 L 1.332031 11.667969 C 1.332031 10.378906 2.378906 9.332031 3.667969 9.332031 Z M 12.332031 9.332031 C 13.621094 9.332031 14.667969 10.378906 14.667969 11.667969 L 14.667969 14.667969 L 13.332031 14.667969 L 13.332031 11.667969 C 13.332031 11.152344 12.941406 10.722656 12.429688 10.671875 L 12.332031 10.667969 C 12.214844 10.667969 12.105469 10.6875 12 10.722656 L 12 10.667969 C 12 10.222656 11.929688 9.796875 11.792969 9.398438 C 11.964844 9.355469 12.148438 9.332031 12.332031 9.332031 Z M 3.667969 5.332031 C 4.585938 5.332031 5.332031 6.078125 5.332031 7 C 5.332031 7.921875 4.585938 8.667969 3.667969 8.667969 C 2.746094 8.667969 2 7.921875 2 7 C 2 6.078125 2.746094 5.332031 3.667969 5.332031 Z M 12.332031 5.332031 C 13.253906 5.332031 14 6.078125 14 7 C 14 7.921875 13.253906 8.667969 12.332031 8.667969 C 11.414062 8.667969 10.667969 7.921875 10.667969 7 C 10.667969 6.078125 11.414062 5.332031 12.332031 5.332031 Z M 3.667969 6.667969 C 3.484375 6.667969 3.332031 6.816406 3.332031 7 C 3.332031 7.183594 3.484375 7.332031 3.667969 7.332031 C 3.851562 7.332031 4 7.183594 4 7 C 4 6.816406 3.851562 6.667969 3.667969 6.667969 Z M 12.332031 6.667969 C 12.148438 6.667969 12 6.816406 12 7 C 12 7.183594 12.148438 7.332031 12.332031 7.332031 C 12.515625 7.332031 12.667969 7.183594 12.667969 7 C 12.667969 6.816406 12.515625 6.667969 12.332031 6.667969 Z M 8 1.332031 C 9.472656 1.332031 10.667969 2.527344 10.667969 4 C 10.667969 5.472656 9.472656 6.667969 8 6.667969 C 6.527344 6.667969 5.332031 5.472656 5.332031 4 C 5.332031 2.527344 6.527344 1.332031 8 1.332031 Z M 8 2.667969 C 7.261719 2.667969 6.667969 3.261719 6.667969 4 C 6.667969 4.738281 7.261719 5.332031 8 5.332031 C 8.738281 5.332031 9.332031 4.738281 9.332031 4 C 9.332031 3.261719 8.738281 2.667969 8 2.667969 Z M 8 2.667969 "/>
</g>
</svg>
