<?xml version="1.0" encoding="UTF-8"?>
<svg xmlns="http://www.w3.org/2000/svg" xmlns:xlink="http://www.w3.org/1999/xlink" width="16" height="16" viewBox="0 0 16 16" version="1.1">
<g id="surface1">
<path style=" stroke:none;fill-rule:nonzero;fill:rgb(100%,100%,100%);fill-opacity:1;" d="M 5.332031 6.835938 L 5.332031 3.332031 C 5.332031 1.859375 6.527344 0.667969 8 0.667969 C 9.472656 0.667969 10.667969 1.859375 10.667969 3.332031 L 10.667969 6.835938 C 12.339844 8 13.0625 10.117188 12.453125 12.0625 C 11.84375 14.007812 10.039062 15.332031 8 15.332031 C 5.960938 15.332031 4.15625 14.007812 3.546875 12.0625 C 2.9375 10.117188 3.660156 8 5.332031 6.835938 Z M 5.332031 10.667969 C 5.332031 12.140625 6.527344 13.332031 8 13.332031 C 9.472656 13.332031 10.667969 12.140625 10.667969 10.667969 Z M 5.332031 10.667969 "/>
</g>
</svg>
