<?xml version="1.0" encoding="UTF-8"?>
<svg xmlns="http://www.w3.org/2000/svg" xmlns:xlink="http://www.w3.org/1999/xlink" width="16" height="16" viewBox="0 0 16 16" version="1.1">
<g id="surface1">
<path style=" stroke:none;fill-rule:nonzero;fill:rgb(100%,100%,100%);fill-opacity:1;" d="M 10 12 L 11 12 C 11.921875 12 12.667969 11.253906 12.667969 10.332031 C 12.667969 9.414062 11.921875 8.667969 11 8.667969 L 2 8.667969 L 2 7.332031 L 11 7.332031 C 12.65625 7.332031 14 8.675781 14 10.332031 C 14 11.988281 12.65625 13.332031 11 13.332031 L 10 13.332031 L 10 14.667969 L 7.332031 12.667969 L 10 10.667969 Z M 2 2.667969 L 14 2.667969 L 14 4 L 2 4 Z M 6 12 L 6 13.332031 L 2 13.332031 L 2 12 Z M 6 12 "/>
</g>
</svg>
