<?xml version="1.0" encoding="UTF-8"?>
<svg xmlns="http://www.w3.org/2000/svg" xmlns:xlink="http://www.w3.org/1999/xlink" width="16" height="16" viewBox="0 0 16 16" version="1.1">
<g id="surface1">
<path style=" stroke:none;fill-rule:nonzero;fill:rgb(100%,100%,100%);fill-opacity:1;" d="M 13.703125 2.296875 C 14.746094 3.335938 14.746094 5.023438 13.703125 6.066406 L 8.238281 11.535156 C 7.808594 11.960938 7.246094 12.230469 6.644531 12.296875 L 4.394531 12.546875 L 2.863281 14.082031 C 2.601562 14.339844 2.179688 14.339844 1.917969 14.082031 C 1.660156 13.820312 1.660156 13.398438 1.917969 13.136719 L 3.453125 11.605469 L 3.703125 9.355469 C 3.769531 8.753906 4.039062 8.191406 4.464844 7.761719 L 9.933594 2.296875 C 10.976562 1.253906 12.664062 1.253906 13.703125 2.296875 Z M 10.875 3.238281 L 5.410156 8.707031 C 5.195312 8.917969 5.058594 9.199219 5.027344 9.5 L 4.84375 11.15625 L 6.5 10.972656 C 6.800781 10.941406 7.082031 10.804688 7.292969 10.589844 L 7.574219 10.308594 L 6.632812 9.367188 L 7.574219 8.425781 L 8.519531 9.367188 L 9.460938 8.425781 L 8.519531 7.480469 L 9.460938 6.539062 L 10.40625 7.480469 L 11.347656 6.539062 L 10.40625 5.59375 L 11.347656 4.652344 L 12.289062 5.597656 L 12.761719 5.125 C 13.28125 4.605469 13.28125 3.761719 12.761719 3.238281 C 12.242188 2.71875 11.394531 2.71875 10.875 3.238281 Z M 10.875 3.238281 "/>
</g>
</svg>
