<?xml version="1.0" encoding="UTF-8"?>
<svg xmlns="http://www.w3.org/2000/svg" xmlns:xlink="http://www.w3.org/1999/xlink" width="16" height="16" viewBox="0 0 16 16" version="1.1">
<g id="surface1">
<path style=" stroke:none;fill-rule:nonzero;fill:rgb(100%,100%,100%);fill-opacity:1;" d="M 11.324219 12 L 12.136719 10.945312 C 12.367188 10.644531 12.410156 10.238281 12.242188 9.894531 C 12.074219 9.554688 11.722656 9.335938 11.34375 9.335938 L 10 9.335938 L 10 6.6875 C 10 6.257812 9.726562 5.875 9.320312 5.738281 C 8.914062 5.601562 8.46875 5.738281 8.207031 6.078125 L 3.964844 11.597656 C 1.613281 10.625 0.273438 8.125 0.769531 5.628906 C 1.265625 3.132812 3.457031 1.335938 6 1.332031 C 8.199219 1.332031 10.175781 2.683594 10.972656 4.734375 C 12.339844 4.46875 13.738281 5.003906 14.582031 6.113281 C 15.425781 7.222656 15.570312 8.710938 14.949219 9.960938 C 14.332031 11.210938 13.058594 12 11.667969 12 Z M 8.667969 10.671875 L 10.667969 10.671875 L 7.332031 15.003906 L 7.332031 12.003906 L 5.332031 12.003906 L 8.667969 7.667969 Z M 8.667969 10.671875 "/>
</g>
</svg>
