<?xml version="1.0" encoding="UTF-8"?>
<svg xmlns="http://www.w3.org/2000/svg" xmlns:xlink="http://www.w3.org/1999/xlink" width="16" height="16" viewBox="0 0 16 16" version="1.1">
<g id="surface1">
<path style=" stroke:none;fill-rule:nonzero;fill:rgb(100%,100%,100%);fill-opacity:1;" d="M 3.554688 2.179688 C 4.464844 1.855469 5.480469 2.125 6.109375 2.859375 C 6.738281 3.59375 6.847656 4.640625 6.390625 5.488281 L 13.527344 12.628906 L 12.585938 13.570312 L 5.445312 6.433594 C 4.597656 6.890625 3.550781 6.777344 2.816406 6.148438 C 2.085938 5.519531 1.816406 4.503906 2.136719 3.59375 L 3.628906 5.085938 C 3.878906 5.347656 4.253906 5.449219 4.601562 5.359375 C 4.953125 5.269531 5.222656 4.996094 5.316406 4.644531 C 5.40625 4.296875 5.304688 3.921875 5.042969 3.671875 L 3.550781 2.179688 Z M 10.464844 3.4375 L 12.585938 2.257812 L 13.527344 3.199219 L 12.351562 5.320312 L 11.171875 5.558594 L 9.757812 6.972656 L 8.816406 6.03125 L 10.230469 4.617188 Z M 5.984375 8.859375 L 6.929688 9.800781 L 3.394531 13.335938 C 3.144531 13.585938 2.742188 13.597656 2.476562 13.363281 C 2.214844 13.128906 2.179688 12.726562 2.398438 12.453125 L 2.449219 12.394531 Z M 5.984375 8.859375 "/>
</g>
</svg>
