<?xml version="1.0" encoding="UTF-8"?>
<svg xmlns="http://www.w3.org/2000/svg" xmlns:xlink="http://www.w3.org/1999/xlink" width="16" height="16" viewBox="0 0 16 16" version="1.1">
<g id="surface1">
<path style=" stroke:none;fill-rule:nonzero;fill:rgb(100%,100%,100%);fill-opacity:1;" d="M 4.667969 2.667969 L 4.667969 2 C 4.667969 1.632812 4.964844 1.332031 5.332031 1.332031 L 10.667969 1.332031 C 11.035156 1.332031 11.332031 1.632812 11.332031 2 L 11.332031 2.667969 L 13.332031 2.667969 C 13.332031 4.332031 11.667969 5 11.332031 5 L 11.332031 6.667969 L 13.332031 6.667969 C 13.332031 8.332031 11.667969 9 11.332031 9 L 11.332031 10.667969 L 13.332031 10.667969 C 13.332031 12.332031 11.667969 13 11.332031 13 L 11.332031 14 C 11.332031 14.367188 11.035156 14.667969 10.667969 14.667969 L 5.332031 14.667969 C 4.964844 14.667969 4.667969 14.367188 4.667969 14 L 4.667969 13 C 4.332031 13 2.667969 12.332031 2.667969 10.667969 L 4.667969 10.667969 L 4.667969 9 C 4.332031 9 2.667969 8.332031 2.667969 6.667969 L 4.667969 6.667969 L 4.667969 5 C 4.332031 5 2.667969 4.332031 2.667969 2.667969 Z M 8 13.332031 C 8.738281 13.332031 9.332031 12.738281 9.332031 12 C 9.332031 11.261719 8.738281 10.667969 8 10.667969 C 7.261719 10.667969 6.667969 11.261719 6.667969 12 C 6.667969 12.738281 7.261719 13.332031 8 13.332031 Z M 8 9.332031 C 8.738281 9.332031 9.332031 8.738281 9.332031 8 C 9.332031 7.261719 8.738281 6.667969 8 6.667969 C 7.261719 6.667969 6.667969 7.261719 6.667969 8 C 6.667969 8.738281 7.261719 9.332031 8 9.332031 Z M 8 5.332031 C 8.738281 5.332031 9.332031 4.738281 9.332031 4 C 9.332031 3.261719 8.738281 2.667969 8 2.667969 C 7.261719 2.667969 6.667969 3.261719 6.667969 4 C 6.667969 4.738281 7.261719 5.332031 8 5.332031 Z M 8 5.332031 "/>
</g>
</svg>
