<?xml version="1.0" encoding="UTF-8"?>
<svg xmlns="http://www.w3.org/2000/svg" xmlns:xlink="http://www.w3.org/1999/xlink" width="16" height="16" viewBox="0 0 16 16" version="1.1">
<g id="surface1">
<path style=" stroke:none;fill-rule:nonzero;fill:rgb(100%,100%,100%);fill-opacity:1;" d="M 11.464844 13.332031 L 12.667969 14.332031 L 12.667969 14.667969 L 3.332031 14.667969 L 3.332031 14.332031 L 4.535156 13.332031 L 3.332031 13.332031 C 2.597656 13.332031 2 12.738281 2 12 L 2 4.667969 C 2 3.195312 3.195312 2 4.667969 2 L 11.332031 2 C 12.804688 2 14 3.195312 14 4.667969 L 14 12 C 14 12.738281 13.402344 13.332031 12.667969 13.332031 Z M 3.332031 4.667969 L 3.332031 7.332031 L 12.667969 7.332031 L 12.667969 4.667969 Z M 8 12 C 8.738281 12 9.332031 11.402344 9.332031 10.667969 C 9.332031 9.929688 8.738281 9.332031 8 9.332031 C 7.261719 9.332031 6.667969 9.929688 6.667969 10.667969 C 6.667969 11.402344 7.261719 12 8 12 Z M 8 12 "/>
</g>
</svg>
