<?xml version="1.0" encoding="UTF-8"?>
<svg xmlns="http://www.w3.org/2000/svg" xmlns:xlink="http://www.w3.org/1999/xlink" width="16" height="16" viewBox="0 0 16 16" version="1.1">
<g id="surface1">
<path style=" stroke:none;fill-rule:nonzero;fill:rgb(100%,100%,100%);fill-opacity:1;" d="M 8.332031 2 C 8.15625 2.425781 8.046875 2.875 8.011719 3.332031 L 4.667969 3.332031 C 3.96875 3.332031 3.390625 3.871094 3.335938 4.566406 L 3.332031 4.667969 L 3.332031 12 L 12.667969 12 L 12.667969 7.988281 C 13.125 7.953125 13.574219 7.84375 14 7.667969 L 14 12 C 14 12.738281 13.402344 13.332031 12.667969 13.332031 L 11.464844 13.332031 L 12.667969 14.332031 L 12.667969 14.667969 L 3.332031 14.667969 L 3.332031 14.332031 L 4.535156 13.332031 L 3.332031 13.332031 C 2.597656 13.332031 2 12.738281 2 12 L 2 4.667969 C 2 3.195312 3.195312 2 4.667969 2 Z M 8 8.667969 C 8.738281 8.667969 9.332031 9.261719 9.332031 10 C 9.332031 10.738281 8.738281 11.332031 8 11.332031 C 7.261719 11.332031 6.667969 10.738281 6.667969 10 C 6.667969 9.261719 7.261719 8.667969 8 8.667969 Z M 8.117188 4.667969 C 8.378906 5.769531 9.0625 6.730469 10.023438 7.335938 L 4 7.332031 L 4 4.667969 Z M 12.332031 0.667969 C 13.988281 0.667969 15.332031 2.011719 15.332031 3.667969 C 15.332031 5.324219 13.988281 6.667969 12.332031 6.667969 C 10.675781 6.667969 9.332031 5.324219 9.332031 3.667969 C 9.332031 2.011719 10.675781 0.667969 12.332031 0.667969 Z M 12.332031 4.113281 C 12.007812 4.113281 11.707031 4.230469 11.472656 4.425781 L 11.390625 4.5 L 12.332031 5.445312 L 13.273438 4.5 C 13.027344 4.25 12.6875 4.109375 12.332031 4.113281 Z M 12.332031 2.332031 C 11.5625 2.332031 10.820312 2.617188 10.246094 3.136719 L 10.132812 3.246094 L 10.761719 3.875 C 11.179688 3.457031 11.742188 3.222656 12.332031 3.222656 C 12.875 3.222656 13.394531 3.417969 13.800781 3.773438 L 13.90625 3.875 L 14.535156 3.246094 C 13.949219 2.660156 13.160156 2.332031 12.332031 2.332031 Z M 12.332031 2.332031 "/>
</g>
</svg>
