<?xml version="1.0" encoding="UTF-8"?>
<svg xmlns="http://www.w3.org/2000/svg" xmlns:xlink="http://www.w3.org/1999/xlink" width="16" height="16" viewBox="0 0 16 16" version="1.1">
<g id="surface1">
<path style=" stroke:none;fill-rule:nonzero;fill:rgb(100%,100%,100%);fill-opacity:1;" d="M 3.332031 10 L 3.332031 11.332031 C 3.332031 12.03125 3.871094 12.609375 4.566406 12.664062 L 4.667969 12.667969 L 6.667969 12.667969 L 6.667969 14 L 4.667969 14 C 3.195312 14 2 12.804688 2 11.332031 L 2 10 Z M 12 6.667969 L 14.933594 14 L 13.496094 14 L 12.695312 12 L 9.96875 12 L 9.171875 14 L 7.734375 14 L 10.667969 6.667969 Z M 11.332031 8.589844 L 10.503906 10.667969 L 12.164062 10.667969 Z M 5.332031 1.332031 L 5.332031 2.667969 L 8 2.667969 L 8 7.332031 L 5.332031 7.332031 L 5.332031 9.332031 L 4 9.332031 L 4 7.332031 L 1.332031 7.332031 L 1.332031 2.667969 L 4 2.667969 L 4 1.332031 Z M 11.332031 2 C 12.804688 2 14 3.195312 14 4.667969 L 14 6 L 12.667969 6 L 12.667969 4.667969 C 12.667969 3.929688 12.070312 3.332031 11.332031 3.332031 L 9.332031 3.332031 L 9.332031 2 Z M 4 4 L 2.667969 4 L 2.667969 6 L 4 6 Z M 6.667969 4 L 5.332031 4 L 5.332031 6 L 6.667969 6 Z M 6.667969 4 "/>
</g>
</svg>
