<?xml version="1.0" encoding="UTF-8"?>
<svg xmlns="http://www.w3.org/2000/svg" xmlns:xlink="http://www.w3.org/1999/xlink" width="16" height="16" viewBox="0 0 16 16" version="1.1">
<g id="surface1">
<path style=" stroke:none;fill-rule:nonzero;fill:rgb(100%,100%,100%);fill-opacity:1;" d="M 8.324219 0.101562 C 8.175781 0.105469 8.03125 0.121094 7.882812 0.148438 C 6.789062 0.359375 5.8125 1.179688 5.21875 2.195312 C 4.460938 2.558594 3.789062 3.03125 3.3125 3.710938 C 2.820312 4.421875 2.578125 5.359375 2.585938 6.511719 C 1.914062 7.40625 1.523438 8.289062 1.625 9.078125 C 1.734375 9.957031 2.269531 10.671875 2.945312 11.175781 C 4.085938 12.023438 5.601562 12.054688 6.875 11.734375 L 6.875 14.1875 L 5.160156 15.898438 L 11.574219 15.898438 L 9.867188 14.1875 L 9.867188 11.914062 C 11.53125 12.371094 13.09375 11.828125 13.847656 10.5625 C 14.679688 9.164062 14.554688 7.179688 13.109375 5.675781 C 13.132812 4.574219 12.921875 3.703125 12.445312 3.132812 C 11.96875 2.5625 11.328125 2.285156 10.695312 2.03125 C 10.425781 1.351562 10.085938 0.78125 9.617188 0.472656 C 9.21875 0.210938 8.769531 0.0976562 8.324219 0.101562 Z M 8.324219 0.101562 "/>
</g>
</svg>
