<?xml version="1.0" encoding="UTF-8"?>
<svg xmlns="http://www.w3.org/2000/svg" xmlns:xlink="http://www.w3.org/1999/xlink" width="16" height="16" viewBox="0 0 16 16" version="1.1">
<g id="surface1">
<path style=" stroke:none;fill-rule:nonzero;fill:rgb(100%,100%,100%);fill-opacity:1;" d="M 11.332031 5.332031 L 13.332031 5.332031 L 15.332031 8.039062 L 15.332031 12 L 13.976562 12 C 13.8125 13.148438 12.828125 14.003906 11.667969 14.003906 C 10.503906 14.003906 9.519531 13.148438 9.355469 12 L 5.976562 12 C 5.8125 13.148438 4.828125 14.003906 3.667969 14.003906 C 2.503906 14.003906 1.519531 13.148438 1.355469 12 L 0.667969 12 L 0.667969 4 C 0.667969 3.632812 0.964844 3.332031 1.332031 3.332031 L 10.667969 3.332031 C 11.035156 3.332031 11.332031 3.632812 11.332031 4 Z M 11.332031 6.667969 L 11.332031 8.667969 L 14 8.667969 L 14 8.476562 L 12.660156 6.667969 Z M 11.332031 6.667969 "/>
</g>
</svg>
