<?xml version="1.0" encoding="UTF-8"?>
<svg xmlns="http://www.w3.org/2000/svg" xmlns:xlink="http://www.w3.org/1999/xlink" width="16" height="16" viewBox="0 0 16 16" version="1.1">
<g id="surface1">
<path style=" stroke:none;fill-rule:nonzero;fill:rgb(100%,100%,100%);fill-opacity:1;" d="M 10.199219 3.699219 C 9.144531 3.699219 8.285156 4.542969 8.265625 5.597656 L 8.246094 6.648438 C 8.246094 6.761719 8.195312 6.871094 8.109375 6.945312 C 8.023438 7.019531 7.90625 7.050781 7.792969 7.035156 L 6.753906 6.894531 C 5.382812 6.707031 4.074219 6.078125 2.8125 5.03125 C 2.414062 7.234375 3.195312 8.765625 5.070312 9.945312 L 6.234375 10.675781 C 6.347656 10.746094 6.417969 10.867188 6.421875 11 C 6.425781 11.132812 6.363281 11.261719 6.257812 11.339844 L 5.195312 12.113281 C 5.828125 12.152344 6.425781 12.125 6.921875 12.027344 C 10.070312 11.398438 12.160156 9.03125 12.160156 5.128906 C 12.160156 4.808594 11.484375 3.699219 10.199219 3.699219 Z M 6.933594 5.574219 C 6.957031 4.257812 7.765625 3.085938 8.984375 2.597656 C 10.207031 2.113281 11.601562 2.402344 12.523438 3.335938 C 12.996094 3.332031 13.402344 3.453125 14.300781 2.90625 C 14.078125 4 13.96875 4.476562 13.492188 5.128906 C 13.492188 10.222656 10.363281 12.699219 7.183594 13.332031 C 5.007812 13.769531 1.839844 13.054688 0.929688 12.105469 C 1.394531 12.070312 3.273438 11.867188 4.359375 11.074219 C 3.441406 10.464844 -0.21875 8.3125 2.183594 2.523438 C 3.3125 3.84375 4.457031 4.738281 5.617188 5.214844 C 6.390625 5.53125 6.578125 5.523438 6.933594 5.574219 Z M 6.933594 5.574219 "/>
</g>
</svg>
