<?xml version="1.0" encoding="UTF-8"?>
<svg xmlns="http://www.w3.org/2000/svg" xmlns:xlink="http://www.w3.org/1999/xlink" width="16" height="16" viewBox="0 0 16 16" version="1.1">
<g id="surface1">
<path style=" stroke:none;fill-rule:nonzero;fill:rgb(100%,100%,100%);fill-opacity:1;" d="M 2.867188 2 L 14 2 L 14 9.800781 L 10.867188 12.933594 L 8.265625 12.933594 L 6.601562 14.535156 L 4.667969 14.535156 L 4.667969 12.933594 L 2 12.933594 L 2 4.132812 Z M 3.332031 11.601562 L 6 11.601562 L 6 13.199219 L 6.0625 13.199219 L 7.730469 11.601562 L 10.316406 11.601562 L 12.667969 9.246094 L 12.667969 3.332031 L 3.332031 3.332031 Z M 10 5.332031 L 11.332031 5.332031 L 11.332031 8.464844 L 10 8.464844 Z M 10 5.332031 L 11.332031 5.332031 L 11.332031 8.464844 L 10 8.464844 Z M 6.667969 5.332031 L 8 5.332031 L 8 8.464844 L 6.667969 8.464844 Z M 6.667969 5.332031 "/>
</g>
</svg>
