<?xml version="1.0" encoding="UTF-8"?>
<svg xmlns="http://www.w3.org/2000/svg" xmlns:xlink="http://www.w3.org/1999/xlink" width="16" height="16" viewBox="0 0 16 16" version="1.1">
<g id="surface1">
<path style=" stroke:none;fill-rule:nonzero;fill:rgb(100%,100%,100%);fill-opacity:1;" d="M 14.773438 3.769531 C 14.265625 3.996094 13.726562 4.144531 13.171875 4.210938 C 13.753906 3.859375 14.191406 3.3125 14.398438 2.667969 C 13.851562 2.992188 13.253906 3.21875 12.628906 3.34375 C 11.765625 2.421875 10.390625 2.191406 9.277344 2.789062 C 8.164062 3.386719 7.589844 4.65625 7.878906 5.886719 C 5.636719 5.773438 3.546875 4.714844 2.132812 2.972656 C 1.882812 3.398438 1.753906 3.882812 1.753906 4.375 C 1.753906 5.339844 2.246094 6.195312 2.996094 6.695312 C 2.550781 6.679688 2.117188 6.5625 1.730469 6.347656 L 1.730469 6.382812 C 1.730469 7.707031 2.667969 8.851562 3.96875 9.117188 C 3.558594 9.226562 3.125 9.242188 2.707031 9.164062 C 3.074219 10.300781 4.121094 11.078125 5.3125 11.101562 C 4.144531 12.015625 2.660156 12.433594 1.1875 12.253906 C 2.460938 13.074219 3.945312 13.507812 5.460938 13.507812 C 10.589844 13.507812 13.394531 9.257812 13.394531 5.574219 C 13.394531 5.453125 13.390625 5.332031 13.382812 5.214844 C 13.929688 4.820312 14.402344 4.332031 14.773438 3.769531 Z M 14.773438 3.769531 "/>
</g>
</svg>
