<?xml version="1.0" encoding="UTF-8"?>
<svg xmlns="http://www.w3.org/2000/svg" xmlns:xlink="http://www.w3.org/1999/xlink" width="16" height="16" viewBox="0 0 16 16" version="1.1">
<g id="surface1">
<path style=" stroke:none;fill-rule:nonzero;fill:rgb(100%,100%,100%);fill-opacity:1;" d="M 11.769531 1.132812 L 9.914062 2.820312 C 10.777344 3.082031 11.574219 3.53125 12.242188 4.136719 C 14.582031 6.269531 14.582031 9.730469 12.242188 11.863281 C 10.511719 13.4375 7.84375 14.4375 4.230469 14.867188 L 6.085938 13.179688 C 5.222656 12.917969 4.425781 12.46875 3.757812 11.863281 C 1.417969 9.730469 1.402344 6.285156 3.757812 4.136719 C 5.488281 2.5625 8.15625 1.5625 11.769531 1.132812 Z M 8 4 C 5.421875 4 3.332031 5.789062 3.332031 8 C 3.332031 10.210938 5.421875 12 8 12 C 10.578125 12 12.667969 10.210938 12.667969 8 C 12.667969 5.789062 10.578125 4 8 4 Z M 8 5.535156 C 9.472656 5.535156 10.667969 6.636719 10.667969 8 C 10.667969 9.363281 9.472656 10.464844 8 10.464844 C 6.527344 10.464844 5.332031 9.363281 5.332031 8 C 5.332031 6.636719 6.527344 5.535156 8 5.535156 Z M 8 6.867188 C 7.242188 6.867188 6.667969 7.398438 6.667969 8 C 6.667969 8.601562 7.242188 9.132812 8 9.132812 C 8.757812 9.132812 9.332031 8.601562 9.332031 8 C 9.332031 7.398438 8.757812 6.867188 8 6.867188 Z M 8 6.867188 "/>
</g>
</svg>
