<?xml version="1.0" encoding="UTF-8"?>
<svg xmlns="http://www.w3.org/2000/svg" xmlns:xlink="http://www.w3.org/1999/xlink" width="16" height="16" viewBox="0 0 16 16" version="1.1">
<g id="surface1">
<path style=" stroke:none;fill-rule:nonzero;fill:rgb(100%,100%,100%);fill-opacity:1;" d="M 8 9.332031 L 8 10.667969 C 5.789062 10.667969 4 12.457031 4 14.667969 L 2.667969 14.667969 C 2.667969 11.722656 5.054688 9.332031 8 9.332031 Z M 8 8.667969 C 5.789062 8.667969 4 6.875 4 4.667969 C 4 2.457031 5.789062 0.667969 8 0.667969 C 10.210938 0.667969 12 2.457031 12 4.667969 C 12 6.875 10.210938 8.667969 8 8.667969 Z M 8 7.332031 C 9.472656 7.332031 10.667969 6.140625 10.667969 4.667969 C 10.667969 3.191406 9.472656 2 8 2 C 6.527344 2 5.332031 3.191406 5.332031 4.667969 C 5.332031 6.140625 6.527344 7.332031 8 7.332031 Z M 12 14.332031 L 10.039062 15.363281 L 10.414062 13.183594 L 8.828125 11.636719 L 11.019531 11.316406 L 12 9.332031 L 12.980469 11.316406 L 15.171875 11.636719 L 13.585938 13.183594 L 13.957031 15.363281 Z M 12 14.332031 "/>
</g>
</svg>
