<?xml version="1.0" encoding="UTF-8"?>
<svg xmlns="http://www.w3.org/2000/svg" xmlns:xlink="http://www.w3.org/1999/xlink" width="16" height="16" viewBox="0 0 16 16" version="1.1">
<g id="surface1">
<path style=" stroke:none;fill-rule:nonzero;fill:rgb(100%,100%,100%);fill-opacity:1;" d="M 7.941406 1 C 5.757812 1.03125 4 2.8125 4 5 C 4 7.210938 5.792969 9 8 9 C 10.210938 9 12 7.210938 12 5 C 12 2.789062 10.210938 1 8 1 C 7.984375 1 7.960938 1 7.941406 1 Z M 12.804688 9.578125 L 11 15 L 16.054688 15 L 16 14.414062 C 16 14.414062 15.882812 13.222656 15.351562 12.015625 C 15.085938 11.410156 14.710938 10.792969 14.167969 10.304688 C 13.796875 9.96875 13.335938 9.714844 12.804688 9.578125 Z M 3.195312 9.582031 C 2.664062 9.71875 2.207031 9.972656 1.839844 10.304688 C 1.296875 10.792969 0.917969 11.410156 0.652344 12.015625 C 0.121094 13.222656 0.00390625 14.414062 0.00390625 14.414062 L -0.0546875 15 L 5 15 Z M 3.195312 9.582031 "/>
<path style=" stroke:none;fill-rule:nonzero;fill:rgb(100%,100%,100%);fill-opacity:1;" d="M 7 10 L 6 11.5 L 7 13 L 6 15 L 10 15 L 9 13 L 10 11.5 L 9 10 Z M 7 10 "/>
</g>
</svg>
