<?xml version="1.0" encoding="UTF-8"?>
<svg xmlns="http://www.w3.org/2000/svg" xmlns:xlink="http://www.w3.org/1999/xlink" width="16" height="16" viewBox="0 0 16 16" version="1.1">
<g id="surface1">
<path style=" stroke:none;fill-rule:nonzero;fill:rgb(100%,100%,100%);fill-opacity:1;" d="M 8 9.332031 L 8 10.667969 C 5.789062 10.667969 4 12.457031 4 14.667969 L 2.667969 14.667969 C 2.667969 11.722656 5.054688 9.332031 8 9.332031 Z M 8 8.667969 C 5.789062 8.667969 4 6.875 4 4.667969 C 4 2.457031 5.789062 0.667969 8 0.667969 C 10.210938 0.667969 12 2.457031 12 4.667969 C 12 6.875 10.210938 8.667969 8 8.667969 Z M 8 7.332031 C 9.472656 7.332031 10.667969 6.140625 10.667969 4.667969 C 10.667969 3.191406 9.472656 2 8 2 C 6.527344 2 5.332031 3.191406 5.332031 4.667969 C 5.332031 6.140625 6.527344 7.332031 8 7.332031 Z M 9.730469 12.542969 C 9.644531 12.1875 9.644531 11.816406 9.730469 11.460938 L 9.070312 11.078125 L 9.734375 9.921875 L 10.398438 10.304688 C 10.660156 10.054688 10.984375 9.867188 11.332031 9.761719 L 11.332031 9 L 12.667969 9 L 12.667969 9.761719 C 13.019531 9.867188 13.339844 10.058594 13.601562 10.304688 L 14.265625 9.921875 L 14.929688 11.078125 L 14.269531 11.460938 C 14.355469 11.816406 14.355469 12.183594 14.269531 12.539062 L 14.929688 12.921875 L 14.265625 14.078125 L 13.601562 13.695312 C 13.339844 13.945312 13.015625 14.132812 12.667969 14.238281 L 12.667969 15 L 11.332031 15 L 11.332031 14.238281 C 10.984375 14.132812 10.660156 13.945312 10.398438 13.695312 L 9.734375 14.078125 L 9.070312 12.921875 Z M 12 13 C 12.550781 13 13 12.550781 13 12 C 13 11.449219 12.550781 11 12 11 C 11.449219 11 11 11.449219 11 12 C 11 12.550781 11.449219 13 12 13 Z M 12 13 "/>
</g>
</svg>
