<?xml version="1.0" encoding="UTF-8"?>
<svg xmlns="http://www.w3.org/2000/svg" xmlns:xlink="http://www.w3.org/1999/xlink" width="16" height="16" viewBox="0 0 16 16" version="1.1">
<g id="surface1">
<path style=" stroke:none;fill-rule:nonzero;fill:rgb(100%,100%,100%);fill-opacity:1;" d="M 8 9.332031 L 8 10.667969 C 5.789062 10.667969 4 12.457031 4 14.667969 L 2.667969 14.667969 C 2.667969 11.722656 5.054688 9.332031 8 9.332031 Z M 8 8.667969 C 5.789062 8.667969 4 6.875 4 4.667969 C 4 2.457031 5.789062 0.667969 8 0.667969 C 10.210938 0.667969 12 2.457031 12 4.667969 C 12 6.875 10.210938 8.667969 8 8.667969 Z M 8 7.332031 C 9.472656 7.332031 10.667969 6.140625 10.667969 4.667969 C 10.667969 3.191406 9.472656 2 8 2 C 6.527344 2 5.332031 3.191406 5.332031 4.667969 C 5.332031 6.140625 6.527344 7.332031 8 7.332031 Z M 13.886719 14.046875 L 12 16 L 10.113281 14.046875 C 9.074219 12.96875 9.074219 11.21875 10.113281 10.140625 C 10.605469 9.625 11.289062 9.332031 12 9.332031 C 12.710938 9.332031 13.394531 9.625 13.886719 10.140625 C 14.925781 11.21875 14.925781 12.96875 13.886719 14.046875 Z M 12.925781 13.121094 C 13.46875 12.558594 13.46875 11.628906 12.925781 11.070312 C 12.6875 10.8125 12.351562 10.667969 12 10.667969 C 11.648438 10.667969 11.3125 10.8125 11.074219 11.070312 C 10.53125 11.628906 10.53125 12.558594 11.074219 13.121094 L 12 14.078125 Z M 12.925781 13.121094 "/>
</g>
</svg>
