<?xml version="1.0" encoding="UTF-8"?>
<svg xmlns="http://www.w3.org/2000/svg" xmlns:xlink="http://www.w3.org/1999/xlink" width="16" height="16" viewBox="0 0 16 16" version="1.1">
<g id="surface1">
<path style=" stroke:none;fill-rule:nonzero;fill:rgb(100%,100%,100%);fill-opacity:1;" d="M 10.667969 2.667969 C 11.035156 2.667969 11.332031 2.964844 11.332031 3.332031 L 11.332031 6.132812 L 14.808594 3.699219 C 14.960938 3.59375 15.167969 3.632812 15.273438 3.78125 C 15.3125 3.839844 15.332031 3.90625 15.332031 3.972656 L 15.332031 12.027344 C 15.332031 12.210938 15.183594 12.359375 15 12.359375 C 14.929688 12.359375 14.863281 12.339844 14.808594 12.300781 L 11.332031 9.867188 L 11.332031 12.667969 C 11.332031 13.035156 11.035156 13.332031 10.667969 13.332031 L 1.332031 13.332031 C 0.964844 13.332031 0.667969 13.035156 0.667969 12.667969 L 0.667969 3.332031 C 0.667969 2.964844 0.964844 2.667969 1.332031 2.667969 Z M 6.667969 5.332031 L 5.332031 5.332031 L 5.332031 8 L 3.332031 8 L 6 10.667969 L 8.667969 8 L 6.667969 8 Z M 6.667969 5.332031 "/>
</g>
</svg>
