<?xml version="1.0" encoding="UTF-8"?>
<svg xmlns="http://www.w3.org/2000/svg" xmlns:xlink="http://www.w3.org/1999/xlink" width="16" height="16" viewBox="0 0 16 16" version="1.1">
<g id="surface1">
<path style=" stroke:none;fill-rule:evenodd;fill:rgb(100%,100%,100%);fill-opacity:1;" d="M 2 2 C 0.890625 2 0 2.890625 0 4 L 0 12 C 0 13.109375 0.890625 14 2 14 L 14 14 C 15.109375 14 16 13.109375 16 12 L 16 4 C 16 2.890625 15.109375 2 14 2 Z M 4.453125 6 C 4.46875 6 4.484375 6 4.5 6 C 5.601562 6 6.5 6.894531 6.5 8 C 6.5 8.203125 6.46875 8.40625 6.40625 8.601562 L 9.59375 8.601562 C 9.53125 8.40625 9.5 8.203125 9.5 8 C 9.5 6.894531 10.394531 6 11.5 6 C 12.605469 6 13.5 6.894531 13.5 8 C 13.5 9.105469 12.605469 10 11.5 10 L 4.546875 10 C 4.53125 10 4.515625 10 4.5 10 C 3.394531 10 2.5 9.105469 2.5 8 C 2.5 6.914062 3.367188 6.027344 4.453125 6 Z M 4.453125 6 "/>
</g>
</svg>
