<?xml version="1.0" encoding="UTF-8"?>
<svg xmlns="http://www.w3.org/2000/svg" xmlns:xlink="http://www.w3.org/1999/xlink" width="16" height="16" viewBox="0 0 16 16" version="1.1">
<g id="surface1">
<path style=" stroke:none;fill-rule:nonzero;fill:rgb(100%,100%,100%);fill-opacity:1;" d="M 12.925781 2.105469 L 13.867188 3.050781 L 12.21875 4.699219 L 13.867188 6.351562 L 12.21875 8 L 13.867188 9.652344 L 12.21875 11.300781 L 13.867188 12.949219 L 12.925781 13.894531 L 10.332031 11.300781 L 11.984375 9.652344 L 10.332031 8 L 11.984375 6.351562 L 10.332031 4.699219 Z M 8.589844 2.492188 C 8.640625 2.550781 8.667969 2.625 8.667969 2.703125 L 8.667969 13.296875 C 8.667969 13.425781 8.59375 13.542969 8.476562 13.597656 C 8.359375 13.652344 8.222656 13.636719 8.121094 13.554688 L 4.59375 10.664062 L 2 10.667969 C 1.632812 10.667969 1.332031 10.367188 1.332031 10 L 1.332031 6 C 1.332031 5.632812 1.632812 5.332031 2 5.332031 L 4.59375 5.332031 L 8.121094 2.445312 C 8.191406 2.390625 8.277344 2.363281 8.367188 2.371094 C 8.453125 2.378906 8.535156 2.421875 8.589844 2.492188 Z M 7.332031 4.8125 L 5.070312 6.664062 L 2.667969 6.664062 L 2.667969 9.332031 L 5.070312 9.332031 L 7.332031 11.1875 Z M 7.332031 4.8125 "/>
</g>
</svg>
