<?xml version="1.0" encoding="UTF-8"?>
<svg xmlns="http://www.w3.org/2000/svg" xmlns:xlink="http://www.w3.org/1999/xlink" width="16" height="16" viewBox="0 0 16 16" version="1.1">
<g id="surface1">
<path style=" stroke:none;fill-rule:nonzero;fill:rgb(100%,100%,100%);fill-opacity:1;" d="M 14.667969 4.667969 L 15.332031 4.667969 L 15.332031 11.332031 L 14.667969 11.332031 L 14.667969 13.332031 C 14.667969 13.703125 14.367188 14 14 14 L 2 14 C 1.632812 14 1.332031 13.703125 1.332031 13.332031 L 1.332031 2.667969 C 1.332031 2.296875 1.632812 2 2 2 L 14 2 C 14.367188 2 14.667969 2.296875 14.667969 2.667969 Z M 13.332031 11.332031 L 9.332031 11.332031 C 7.492188 11.332031 6 9.839844 6 8 C 6 6.160156 7.492188 4.667969 9.332031 4.667969 L 13.332031 4.667969 L 13.332031 3.332031 L 2.667969 3.332031 L 2.667969 12.667969 L 13.332031 12.667969 Z M 14 10 L 14 6 L 9.332031 6 C 8.230469 6 7.332031 6.894531 7.332031 8 C 7.332031 9.105469 8.230469 10 9.332031 10 Z M 9.332031 7.332031 L 11.332031 7.332031 L 11.332031 8.667969 L 9.332031 8.667969 Z M 9.332031 7.332031 "/>
</g>
</svg>
