<?xml version="1.0" encoding="UTF-8"?>
<svg xmlns="http://www.w3.org/2000/svg" xmlns:xlink="http://www.w3.org/1999/xlink" width="16" height="16" viewBox="0 0 16 16" version="1.1">
<g id="surface1">
<path style=" stroke:none;fill-rule:nonzero;fill:rgb(100%,100%,100%);fill-opacity:1;" d="M 8.140625 2 C 7.6875 1.992188 7.226562 2.09375 6.800781 2.304688 L 1.375 4.949219 C 0.542969 5.355469 0.00390625 6.273438 0.00390625 7.28125 L 0.00390625 16 L 3.371094 16 L 3.371094 9.699219 C 3.371094 9.09375 3.800781 8.621094 4.347656 8.621094 L 11.890625 8.621094 C 12.34375 8.621094 12.703125 9.015625 12.703125 9.515625 L 12.703125 16 L 15.996094 16 L 15.996094 7.429688 C 15.996094 6.378906 15.445312 5.421875 14.582031 4.976562 L 9.476562 2.335938 C 9.054688 2.117188 8.601562 2.007812 8.140625 2 Z M 5 10 L 5 11 L 11 11 L 11 10 Z M 5 12 L 5 13 L 11 13 L 11 12 Z M 5 14 L 5 15 L 11 15 L 11 14 Z M 5 14 "/>
</g>
</svg>
