<?xml version="1.0" encoding="UTF-8"?>
<svg xmlns="http://www.w3.org/2000/svg" xmlns:xlink="http://www.w3.org/1999/xlink" width="16" height="16" viewBox="0 0 16 16" version="1.1">
<g id="surface1">
<path style=" stroke:none;fill-rule:nonzero;fill:rgb(100%,100%,100%);fill-opacity:1;" d="M 0 0.00390625 L 0 16 L 1.003906 16 L 1.003906 0.00390625 Z M 0 0.00390625 "/>
<path style=" stroke:none;fill-rule:nonzero;fill:rgb(100%,100%,100%);fill-opacity:1;" d="M 1.011719 6 L 1.011719 7 L 15.003906 7 L 15.003906 6 Z M 1.011719 6 "/>
<path style=" stroke:none;fill-rule:nonzero;fill:rgb(100%,100%,100%);fill-opacity:1;" d="M 1 14.007812 L 1 15 L 15 15 L 15 14.007812 Z M 1 14.007812 "/>
<path style=" stroke:none;fill-rule:nonzero;fill:rgb(100%,100%,100%);fill-opacity:1;" d="M 14.996094 0.00390625 L 14.996094 16 L 16 16 L 16 0.00390625 Z M 14.996094 0.00390625 "/>
<path style=" stroke:none;fill-rule:evenodd;fill:rgb(100%,100%,100%);fill-opacity:1;" d="M 10.003906 -0.00390625 L 13.003906 -0.00390625 C 13.558594 -0.00390625 14.003906 0.445312 14.003906 1 L 14.003906 4 C 14.003906 4.554688 13.558594 5 13.003906 5 L 10.003906 5 C 9.449219 5 9.003906 4.554688 9.003906 4 L 9.003906 1 C 9.003906 0.445312 9.449219 -0.00390625 10.003906 -0.00390625 Z M 10.003906 -0.00390625 "/>
<path style=" stroke:none;fill-rule:evenodd;fill:rgb(100%,100%,100%);fill-opacity:1;" d="M 10.003906 8 L 13.003906 8 C 13.558594 8 14.003906 8.445312 14.003906 9 L 14.003906 12 C 14.003906 12.554688 13.558594 13 13.003906 13 L 10.003906 13 C 9.449219 13 9.003906 12.554688 9.003906 12 L 9.003906 9 C 9.003906 8.445312 9.449219 8 10.003906 8 Z M 10.003906 8 "/>
<path style=" stroke:none;fill-rule:evenodd;fill:rgb(100%,100%,100%);fill-opacity:1;" d="M 3.003906 8 L 6.003906 8 C 6.558594 8 7.003906 8.445312 7.003906 9 L 7.003906 12 C 7.003906 12.554688 6.558594 13 6.003906 13 L 3.003906 13 C 2.449219 13 2.003906 12.554688 2.003906 12 L 2.003906 9 C 2.003906 8.445312 2.449219 8 3.003906 8 Z M 3.003906 8 "/>
</g>
</svg>
