<?xml version="1.0" encoding="UTF-8"?>
<svg xmlns="http://www.w3.org/2000/svg" xmlns:xlink="http://www.w3.org/1999/xlink" width="16" height="16" viewBox="0 0 16 16" version="1.1">
<g id="surface1">
<path style=" stroke:none;fill-rule:evenodd;fill:rgb(100%,100%,100%);fill-opacity:1;" d="M 4 0 C 2.890625 0 2 0.890625 2 2 L 2 14 C 2 15.109375 2.890625 16 4 16 L 12 16 C 13.109375 16 14 15.109375 14 14 L 14 2 C 14 0.890625 13.109375 0 12 0 Z M 8.585938 1.457031 C 9.140625 1.457031 9.585938 1.90625 9.585938 2.457031 C 9.585938 3.007812 9.140625 3.457031 8.585938 3.457031 C 8.035156 3.457031 7.585938 3.007812 7.585938 2.457031 C 7.585938 1.90625 8.035156 1.457031 8.585938 1.457031 Z M 11.585938 1.457031 C 12.140625 1.457031 12.585938 1.90625 12.585938 2.457031 C 12.585938 3.007812 12.140625 3.457031 11.585938 3.457031 C 11.035156 3.457031 10.585938 3.007812 10.585938 2.457031 C 10.585938 1.90625 11.035156 1.457031 11.585938 1.457031 Z M 7.9375 6 C 7.960938 6 7.980469 6 8 6 C 10.210938 6 12 7.789062 12 10 C 12 12.210938 10.210938 14 8 14 C 5.789062 14 4 12.210938 4 10 C 4 7.8125 5.753906 6.03125 7.9375 6 Z M 7.9375 6 "/>
<path style=" stroke:none;fill-rule:evenodd;fill:rgb(100%,100%,100%);fill-opacity:1;" d="M 10.808594 11.023438 C 10.445312 12.035156 9.574219 12.773438 8.519531 12.964844 C 7.464844 13.15625 6.390625 12.769531 5.695312 11.953125 C 5 11.132812 4.796875 10.007812 5.160156 9 "/>
</g>
</svg>
