<?xml version="1.0" encoding="UTF-8"?>
<svg xmlns="http://www.w3.org/2000/svg" xmlns:xlink="http://www.w3.org/1999/xlink" width="16" height="16" viewBox="0 0 16 16" version="1.1">
<g id="surface1">
<path style=" stroke:none;fill-rule:nonzero;fill:rgb(100%,100%,100%);fill-opacity:1;" d="M 6.179688 9.78125 C 5.96875 9.886719 5.707031 9.808594 5.59375 9.601562 L 5.566406 9.535156 L 4.351562 6.871094 C 4.347656 6.839844 4.347656 6.808594 4.351562 6.773438 C 4.351562 6.714844 4.375 6.660156 4.417969 6.617188 C 4.460938 6.578125 4.515625 6.554688 4.574219 6.554688 C 4.625 6.554688 4.667969 6.570312 4.707031 6.601562 L 6.160156 7.617188 C 6.269531 7.691406 6.394531 7.730469 6.523438 7.730469 C 6.601562 7.730469 6.679688 7.714844 6.753906 7.683594 L 13.449219 4.683594 C 12.058594 3.148438 10.074219 2.292969 8.003906 2.335938 C 4.320312 2.335938 1.332031 4.820312 1.332031 7.914062 C 1.378906 9.601562 2.238281 11.167969 3.640625 12.109375 C 3.789062 12.222656 3.855469 12.417969 3.800781 12.59375 L 3.5 13.730469 C 3.480469 13.78125 3.46875 13.835938 3.464844 13.890625 C 3.464844 13.949219 3.488281 14.007812 3.53125 14.046875 C 3.570312 14.089844 3.628906 14.113281 3.6875 14.113281 C 3.734375 14.109375 3.777344 14.097656 3.816406 14.074219 L 5.269531 13.230469 C 5.375 13.164062 5.496094 13.128906 5.621094 13.128906 C 5.6875 13.128906 5.753906 13.136719 5.816406 13.15625 C 6.523438 13.355469 7.257812 13.457031 7.992188 13.457031 C 11.675781 13.457031 14.664062 10.972656 14.664062 7.902344 C 14.671875 6.988281 14.417969 6.089844 13.933594 5.316406 L 6.234375 9.75 Z M 6.179688 9.78125 "/>
</g>
</svg>
