<?xml version="1.0" encoding="UTF-8"?>
<svg xmlns="http://www.w3.org/2000/svg" xmlns:xlink="http://www.w3.org/1999/xlink" width="16" height="16" viewBox="0 0 16 16" version="1.1">
<g id="surface1">
<path style=" stroke:none;fill-rule:nonzero;fill:rgb(100%,100%,100%);fill-opacity:1;" d="M 12.382812 9.140625 C 12.710938 9.136719 12.976562 8.871094 12.980469 8.542969 C 12.980469 8.210938 12.714844 7.941406 12.382812 7.941406 C 12.050781 7.941406 11.785156 8.210938 11.785156 8.542969 C 11.785156 8.875 12.050781 9.140625 12.382812 9.140625 Z M 9.433594 9.140625 C 9.761719 9.136719 10.027344 8.871094 10.03125 8.542969 C 10.03125 8.210938 9.765625 7.941406 9.433594 7.941406 C 9.097656 7.941406 8.835938 8.210938 8.835938 8.542969 C 8.835938 8.875 9.101562 9.140625 9.433594 9.140625 Z M 13.8125 12.5 C 13.722656 12.550781 13.675781 12.648438 13.695312 12.746094 C 13.695312 12.78125 13.695312 12.8125 13.710938 12.84375 C 13.777344 13.125 13.910156 13.566406 13.910156 13.582031 C 13.910156 13.632812 13.925781 13.664062 13.925781 13.699219 C 13.925781 13.738281 13.910156 13.773438 13.882812 13.800781 C 13.855469 13.828125 13.816406 13.84375 13.777344 13.84375 C 13.746094 13.84375 13.730469 13.828125 13.695312 13.8125 L 12.730469 13.253906 C 12.660156 13.214844 12.582031 13.195312 12.5 13.1875 C 12.453125 13.1875 12.402344 13.1875 12.371094 13.207031 C 11.910156 13.335938 11.4375 13.402344 10.929688 13.402344 C 8.488281 13.402344 6.523438 11.765625 6.523438 9.730469 C 6.523438 7.699219 8.488281 6.0625 10.929688 6.0625 C 13.367188 6.0625 15.332031 7.699219 15.332031 9.730469 C 15.332031 10.828125 14.742188 11.828125 13.8125 12.5 Z M 11.117188 5.398438 C 11.054688 5.398438 10.992188 5.394531 10.929688 5.394531 C 8.144531 5.394531 5.859375 7.300781 5.859375 9.734375 C 5.859375 10.101562 5.910156 10.460938 6.011719 10.800781 L 5.949219 10.800781 C 5.367188 10.792969 4.789062 10.710938 4.226562 10.554688 C 4.179688 10.539062 4.128906 10.539062 4.078125 10.539062 C 3.980469 10.539062 3.886719 10.566406 3.800781 10.621094 L 2.636719 11.289062 C 2.601562 11.304688 2.570312 11.324219 2.539062 11.324219 C 2.4375 11.320312 2.359375 11.242188 2.355469 11.144531 C 2.355469 11.09375 2.375 11.0625 2.390625 11.011719 C 2.40625 10.996094 2.554688 10.457031 2.636719 10.128906 C 2.636719 10.09375 2.652344 10.046875 2.652344 10.015625 C 2.652344 9.898438 2.597656 9.789062 2.503906 9.71875 C 1.371094 8.917969 0.667969 7.722656 0.667969 6.398438 C 0.667969 3.964844 3.046875 2 5.964844 2 C 8.476562 2 10.585938 3.445312 11.117188 5.398438 Z M 7.679688 5.679688 C 8.0625 5.679688 8.363281 5.359375 8.363281 4.992188 C 8.363281 4.613281 8.0625 4.308594 7.679688 4.308594 C 7.296875 4.308594 6.996094 4.613281 6.996094 4.992188 C 6.996094 5.375 7.296875 5.679688 7.679688 5.679688 Z M 4.171875 5.679688 C 4.554688 5.679688 4.855469 5.359375 4.855469 4.992188 C 4.855469 4.613281 4.554688 4.308594 4.171875 4.308594 C 3.792969 4.308594 3.488281 4.613281 3.488281 4.992188 C 3.488281 5.375 3.792969 5.679688 4.171875 5.679688 Z M 4.171875 5.679688 "/>
</g>
</svg>
