<?xml version="1.0" encoding="UTF-8"?>
<svg xmlns="http://www.w3.org/2000/svg" xmlns:xlink="http://www.w3.org/1999/xlink" width="16" height="16" viewBox="0 0 16 16" version="1.1">
<g id="surface1">
<path style=" stroke:none;fill-rule:nonzero;fill:rgb(100%,100%,100%);fill-opacity:1;" d="M 5.777344 7.675781 C 5.550781 7.675781 5.332031 7.585938 5.171875 7.425781 C 5.007812 7.265625 4.917969 7.046875 4.921875 6.816406 C 4.921875 6.339844 5.300781 5.960938 5.777344 5.960938 C 6.257812 5.960938 6.632812 6.339844 6.632812 6.816406 C 6.632812 7.296875 6.257812 7.675781 5.777344 7.675781 Z M 10.222656 7.675781 C 9.996094 7.675781 9.777344 7.585938 9.613281 7.425781 C 9.453125 7.265625 9.363281 7.046875 9.367188 6.816406 C 9.367188 6.339844 9.742188 5.960938 10.222656 5.960938 C 10.699219 5.960938 11.078125 6.339844 11.078125 6.816406 C 11.078125 7.296875 10.699219 7.675781 10.222656 7.675781 Z M 4.546875 12.808594 L 5.023438 12.519531 C 5.566406 12.191406 6.203125 12.0625 6.828125 12.160156 C 6.96875 12.183594 7.085938 12.203125 7.175781 12.210938 C 7.445312 12.25 7.722656 12.265625 8 12.265625 C 10.945312 12.265625 13.265625 10.253906 13.265625 7.867188 C 13.265625 5.480469 10.945312 3.464844 8 3.464844 C 5.054688 3.464844 2.734375 5.480469 2.734375 7.867188 C 2.734375 8.777344 3.066406 9.648438 3.6875 10.386719 C 3.71875 10.425781 3.769531 10.480469 3.832031 10.542969 C 4.359375 11.097656 4.628906 11.847656 4.566406 12.613281 Z M 4.128906 14.628906 C 3.914062 14.761719 3.644531 14.761719 3.429688 14.632812 C 3.210938 14.5 3.089844 14.257812 3.109375 14.007812 L 3.234375 12.5 C 3.269531 12.121094 3.132812 11.742188 2.871094 11.46875 C 2.800781 11.394531 2.730469 11.320312 2.667969 11.246094 C 1.871094 10.296875 1.398438 9.128906 1.398438 7.867188 C 1.398438 4.699219 4.355469 2.132812 8 2.132812 C 11.644531 2.132812 14.601562 4.699219 14.601562 7.867188 C 14.601562 11.035156 11.644531 13.601562 8 13.601562 C 7.660156 13.601562 7.328125 13.578125 7 13.535156 C 6.875 13.515625 6.746094 13.5 6.621094 13.480469 C 6.308594 13.429688 5.988281 13.492188 5.71875 13.65625 Z M 4.128906 14.628906 "/>
</g>
</svg>
