<?xml version="1.0" encoding="UTF-8"?>
<svg xmlns="http://www.w3.org/2000/svg" xmlns:xlink="http://www.w3.org/1999/xlink" width="16" height="16" viewBox="0 0 16 16" version="1.1">
<g id="surface1">
<path style=" stroke:none;fill-rule:nonzero;fill:rgb(100%,100%,100%);fill-opacity:1;" d="M 11.683594 7.585938 C 12.523438 7.847656 13.460938 8.476562 13.460938 9.589844 C 13.460938 11.429688 10.808594 13.746094 6.820312 13.746094 C 3.777344 13.746094 0.667969 12.273438 0.667969 9.847656 C 0.667969 8.578125 1.46875 7.113281 2.851562 5.726562 C 4.699219 3.882812 6.855469 3.039062 7.664062 3.851562 C 8.023438 4.207031 8.054688 4.828125 7.828125 5.566406 C 7.707031 5.9375 8.175781 5.730469 8.175781 5.730469 C 9.671875 5.105469 10.972656 5.070312 11.449219 5.75 C 11.703125 6.113281 11.679688 6.621094 11.445312 7.210938 C 11.335938 7.480469 11.476562 7.523438 11.683594 7.585938 Z M 6.828125 12.878906 C 9.257812 12.636719 11.097656 11.148438 10.941406 9.554688 C 10.78125 7.960938 8.683594 6.863281 6.257812 7.105469 C 3.832031 7.34375 1.988281 8.832031 2.148438 10.425781 C 2.304688 12.019531 4.402344 13.117188 6.828125 12.878906 Z M 4.105469 9.625 C 4.609375 8.605469 5.914062 8.03125 7.070312 8.332031 C 8.265625 8.640625 8.875 9.769531 8.386719 10.867188 C 7.890625 11.988281 6.464844 12.585938 5.257812 12.195312 C 4.089844 11.816406 3.597656 10.664062 4.105469 9.625 Z M 5.070312 11.351562 C 5.449219 11.519531 5.953125 11.359375 6.1875 10.984375 C 6.417969 10.605469 6.296875 10.171875 5.917969 10.011719 C 5.542969 9.851562 5.054688 10.015625 4.824219 10.378906 C 4.585938 10.742188 4.699219 11.179688 5.070312 11.351562 Z M 6.542969 10.144531 C 6.6875 10.207031 6.875 10.136719 6.960938 9.992188 C 7.042969 9.84375 6.988281 9.679688 6.839844 9.625 C 6.699219 9.570312 6.515625 9.636719 6.433594 9.78125 C 6.351562 9.921875 6.398438 10.085938 6.542969 10.144531 Z M 13.25 6.332031 C 13.195312 6.5 13.058594 6.625 12.890625 6.660156 C 12.71875 6.695312 12.542969 6.640625 12.425781 6.507812 C 12.3125 6.378906 12.273438 6.199219 12.328125 6.03125 C 12.433594 5.71875 12.359375 5.375 12.136719 5.128906 C 11.914062 4.882812 11.582031 4.777344 11.257812 4.84375 C 10.996094 4.902344 10.738281 4.734375 10.683594 4.472656 C 10.628906 4.214844 10.792969 3.957031 11.054688 3.902344 C 11.714844 3.757812 12.402344 3.980469 12.855469 4.484375 C 13.308594 4.984375 13.457031 5.691406 13.25 6.332031 Z M 10.636719 1.949219 C 11.996094 1.660156 13.402344 2.117188 14.332031 3.148438 C 15.265625 4.179688 15.574219 5.628906 15.148438 6.949219 C 15.101562 7.089844 15 7.207031 14.867188 7.277344 C 14.734375 7.34375 14.582031 7.355469 14.441406 7.308594 C 14.144531 7.214844 13.984375 6.898438 14.078125 6.601562 C 14.382812 5.664062 14.164062 4.632812 13.5 3.902344 C 12.839844 3.167969 11.839844 2.84375 10.875 3.050781 C 10.578125 3.097656 10.296875 2.90625 10.234375 2.613281 C 10.171875 2.320312 10.347656 2.027344 10.636719 1.949219 Z M 10.636719 1.949219 "/>
</g>
</svg>
