<?xml version="1.0" encoding="UTF-8"?>
<svg xmlns="http://www.w3.org/2000/svg" xmlns:xlink="http://www.w3.org/1999/xlink" width="16" height="16" viewBox="0 0 16 16" version="1.1">
<g id="surface1">
<path style=" stroke:none;fill-rule:nonzero;fill:rgb(100%,100%,100%);fill-opacity:1;" d="M 5.332031 6.894531 L 5.332031 8.355469 C 4.535156 8.816406 4 9.679688 4 10.667969 C 4 12.140625 5.191406 13.332031 6.667969 13.332031 C 7.652344 13.332031 8.515625 12.796875 8.976562 12 L 10.4375 12 C 9.890625 13.554688 8.40625 14.667969 6.667969 14.667969 C 4.457031 14.667969 2.667969 12.875 2.667969 10.667969 C 2.667969 8.925781 3.78125 7.441406 5.332031 6.894531 Z M 8 11.332031 C 6.894531 11.332031 6 10.4375 6 9.332031 L 6 6.667969 C 6 5.5625 6.894531 4.667969 8 4.667969 C 9.105469 4.667969 10 5.5625 10 6.667969 L 10 10 L 10.957031 10 C 11.386719 10 11.792969 10.210938 12.039062 10.558594 L 12.097656 10.648438 L 13.90625 13.65625 L 12.761719 14.34375 L 10.957031 11.332031 Z M 8 1.332031 C 8.921875 1.332031 9.667969 2.078125 9.667969 3 C 9.667969 3.921875 8.921875 4.667969 8 4.667969 C 7.078125 4.667969 6.332031 3.921875 6.332031 3 C 6.332031 2.078125 7.078125 1.332031 8 1.332031 Z M 8 1.332031 "/>
</g>
</svg>
