<?xml version="1.0" encoding="UTF-8"?>
<svg xmlns="http://www.w3.org/2000/svg" xmlns:xlink="http://www.w3.org/1999/xlink" width="16" height="16" viewBox="0 0 16 16" version="1.1">
<g id="surface1">
<path style=" stroke:none;fill-rule:nonzero;fill:rgb(100%,100%,100%);fill-opacity:1;" d="M 0.460938 4.664062 C 2.59375 2.9375 5.253906 1.996094 8 2 C 10.855469 2 13.480469 2.996094 15.539062 4.664062 L 14.703125 5.703125 C 12.808594 4.167969 10.441406 3.328125 8 3.332031 C 5.460938 3.332031 3.128906 4.21875 1.296875 5.703125 Z M 2.554688 7.257812 C 4.09375 6.011719 6.015625 5.332031 8 5.332031 C 10.0625 5.332031 11.957031 6.054688 13.445312 7.257812 L 12.609375 8.292969 C 11.304688 7.238281 9.675781 6.664062 8 6.667969 C 6.253906 6.667969 4.652344 7.277344 3.390625 8.292969 Z M 4.648438 9.851562 C 5.597656 9.082031 6.78125 8.664062 8 8.667969 C 9.269531 8.667969 10.433594 9.109375 11.351562 9.851562 L 10.511719 10.886719 C 9.800781 10.3125 8.914062 10 8 10 C 7.046875 10 6.171875 10.332031 5.488281 10.886719 Z M 6.742188 12.445312 C 7.097656 12.15625 7.542969 12 8 12 C 8.476562 12 8.914062 12.167969 9.257812 12.445312 L 8 14 Z M 6.742188 12.445312 "/>
</g>
</svg>
