<?xml version="1.0" encoding="UTF-8"?>
<svg xmlns="http://www.w3.org/2000/svg" xmlns:xlink="http://www.w3.org/1999/xlink" width="16" height="16" viewBox="0 0 16 16" version="1.1">
<g id="surface1">
<path style=" stroke:none;fill-rule:nonzero;fill:rgb(100%,100%,100%);fill-opacity:1;" d="M 11.246094 0.00390625 C 10.695312 0.00390625 10.25 0.449219 10.25 1 C 10.25 1.550781 10.695312 2 11.246094 2 C 12.328125 2 13.046875 2.277344 13.460938 2.585938 C 13.875 2.894531 14 3.210938 14 3.5 C 14 3.789062 13.875 4.117188 13.460938 4.421875 C 13.046875 4.734375 12.328125 5 11.246094 5 L 0.25 5 C 0.164062 5 0.078125 5.007812 -0.00390625 5.03125 L -0.00390625 6.964844 C 0.078125 6.984375 0.164062 7 0.25 7 L 11.246094 7 C 12.664062 7 13.820312 6.648438 14.65625 6.015625 C 15.496094 5.390625 16 4.460938 16 3.5 C 16 2.539062 15.496094 1.613281 14.65625 0.984375 C 13.820312 0.355469 12.664062 0.00390625 11.246094 0.00390625 Z M 11.246094 0.00390625 "/>
<path style=" stroke:none;fill-rule:nonzero;fill:rgb(100%,100%,100%);fill-opacity:1;" d="M 0.5 8.003906 C 0.324219 8.003906 0.148438 8.046875 -0.00390625 8.136719 L -0.00390625 9.871094 C 0.148438 9.960938 0.324219 10.003906 0.5 10.003906 L 3.242188 10.003906 C 3.828125 10.003906 4.175781 10.148438 4.335938 10.269531 C 4.5 10.390625 4.5 10.457031 4.5 10.5 C 4.5 10.539062 4.5 10.613281 4.335938 10.734375 C 4.175781 10.855469 3.828125 11 3.242188 11 C 2.976562 11 2.726562 11.109375 2.539062 11.296875 C 2.351562 11.484375 2.246094 11.742188 2.25 12.007812 C 2.25 12.554688 2.695312 13 3.242188 13 C 4.160156 13 4.945312 12.773438 5.53125 12.328125 C 6.121094 11.890625 6.5 11.207031 6.5 10.5 C 6.5 9.789062 6.121094 9.109375 5.53125 8.667969 C 4.945312 8.226562 4.160156 8.003906 3.242188 8.003906 Z M 0.5 8.003906 "/>
<path style=" stroke:none;fill-rule:nonzero;fill:rgb(100%,100%,100%);fill-opacity:1;" d="M 6.625 8.003906 C 7.1875 8.539062 7.59375 9.21875 7.71875 10.003906 L 10.25 10.003906 C 11.585938 10.003906 12.488281 10.339844 13.023438 10.742188 C 13.5625 11.144531 13.75 11.589844 13.75 12.007812 C 13.75 12.421875 13.5625 12.867188 13.023438 13.265625 C 12.488281 13.671875 11.585938 14.007812 10.25 14.007812 C 9.695312 14.003906 9.25 14.449219 9.246094 15 C 9.25 15.554688 9.695312 16 10.25 16 C 11.914062 16 13.257812 15.585938 14.222656 14.859375 C 15.1875 14.140625 15.75 13.089844 15.75 12.007812 C 15.75 10.921875 15.1875 9.863281 14.222656 9.140625 C 13.257812 8.417969 11.914062 8.003906 10.25 8.003906 Z M 6.625 8.003906 "/>
</g>
</svg>
