<?xml version="1.0" encoding="UTF-8"?>
<svg xmlns="http://www.w3.org/2000/svg" xmlns:xlink="http://www.w3.org/1999/xlink" width="16" height="16" viewBox="0 0 16 16" version="1.1">
<g id="surface1">
<path style=" stroke:none;fill-rule:nonzero;fill:rgb(100%,100%,100%);fill-opacity:1;" d="M 2.621094 3.285156 L 3.5625 4.230469 C 2.597656 5.195312 2 6.527344 2 8 C 2 9.472656 2.597656 10.808594 3.5625 11.769531 L 2.621094 12.714844 C 1.414062 11.507812 0.667969 9.839844 0.667969 8 C 0.667969 6.160156 1.414062 4.492188 2.621094 3.285156 Z M 13.378906 3.285156 C 14.585938 4.492188 15.332031 6.160156 15.332031 8 C 15.332031 9.839844 14.585938 11.507812 13.378906 12.714844 L 12.4375 11.769531 C 13.402344 10.804688 14 9.472656 14 8 C 14 6.527344 13.402344 5.195312 12.4375 4.230469 Z M 8.667969 3.332031 L 8.667969 7.332031 L 10.667969 7.332031 L 7.332031 12.667969 L 7.332031 8.667969 L 5.332031 8.667969 Z M 4.503906 5.171875 L 5.449219 6.113281 C 4.964844 6.597656 4.667969 7.261719 4.667969 8 C 4.667969 8.738281 4.964844 9.402344 5.449219 9.886719 L 4.503906 10.828125 C 3.78125 10.105469 3.332031 9.105469 3.332031 8 C 3.332031 6.894531 3.78125 5.894531 4.503906 5.171875 Z M 11.496094 5.171875 C 12.21875 5.894531 12.667969 6.894531 12.667969 8 C 12.667969 9.105469 12.21875 10.105469 11.496094 10.828125 L 10.550781 9.886719 C 11.035156 9.402344 11.332031 8.738281 11.332031 8 C 11.332031 7.265625 11.035156 6.597656 10.554688 6.117188 Z M 11.496094 5.171875 "/>
</g>
</svg>
