<?xml version="1.0" encoding="UTF-8"?>
<svg xmlns="http://www.w3.org/2000/svg" xmlns:xlink="http://www.w3.org/1999/xlink" width="16" height="16" viewBox="0 0 16 16" version="1.1">
<g id="surface1">
<path style=" stroke:none;fill-rule:nonzero;fill:rgb(100%,100%,100%);fill-opacity:1;" d="M 7.332031 10.621094 C 4.726562 10.269531 2.839844 7.957031 3.015625 5.332031 C 3.191406 2.707031 5.371094 0.667969 8 0.667969 C 10.632812 0.664062 12.816406 2.703125 12.992188 5.332031 C 13.167969 7.960938 11.277344 10.273438 8.667969 10.621094 L 8.667969 12 L 12 12 L 12 13.332031 L 8.667969 13.332031 L 8.667969 16 L 7.332031 16 L 7.332031 13.332031 L 4 13.332031 L 4 12 L 7.332031 12 Z M 8 9.332031 C 10.023438 9.332031 11.667969 7.691406 11.667969 5.667969 C 11.667969 3.640625 10.023438 2 8 2 C 5.976562 2 4.332031 3.640625 4.332031 5.667969 C 4.332031 7.691406 5.976562 9.332031 8 9.332031 Z M 8 9.332031 "/>
</g>
</svg>
