<?xml version="1.0" encoding="UTF-8"?>
<svg xmlns="http://www.w3.org/2000/svg" xmlns:xlink="http://www.w3.org/1999/xlink" width="16" height="16" viewBox="0 0 16 16" version="1.1">
<g id="surface1">
<path style=" stroke:none;fill-rule:nonzero;fill:rgb(100%,100%,100%);fill-opacity:1;" d="M 3.199219 10.324219 C 3.949219 8.644531 5.332031 6.695312 6.1875 5.683594 C 5.355469 4.851562 4.746094 4.394531 4.3125 4.148438 C 3.257812 5.152344 2.664062 6.546875 2.667969 8 C 2.667969 8.832031 2.855469 9.621094 3.199219 10.324219 Z M 5.898438 3.097656 C 6.964844 3.367188 8 3.972656 8 3.972656 L 8 3.96875 C 8 3.96875 9.035156 3.367188 10.101562 3.097656 C 9.4375 2.8125 8.722656 2.664062 8 2.667969 C 7.253906 2.667969 6.542969 2.820312 5.898438 3.097656 Z M 11.6875 4.148438 C 11.253906 4.394531 10.644531 4.851562 9.8125 5.683594 C 10.671875 6.699219 12.054688 8.644531 12.800781 10.324219 C 13.152344 9.597656 13.335938 8.804688 13.332031 8 C 13.332031 6.488281 12.703125 5.121094 11.6875 4.148438 Z M 11.960938 11.570312 C 11.027344 10.078125 9.234375 8.273438 8 7.34375 C 6.765625 8.273438 4.972656 10.082031 4.039062 11.570312 C 5.050781 12.695312 6.488281 13.335938 8 13.332031 C 9.511719 13.335938 10.949219 12.695312 11.960938 11.570312 Z M 8 14.667969 C 4.316406 14.667969 1.332031 11.683594 1.332031 8 C 1.332031 4.316406 4.316406 1.332031 8 1.332031 C 11.683594 1.332031 14.667969 4.316406 14.667969 8 C 14.667969 11.683594 11.683594 14.667969 8 14.667969 Z M 8 14.667969 "/>
</g>
</svg>
