<?xml version="1.0" encoding="UTF-8"?>
<svg xmlns="http://www.w3.org/2000/svg" xmlns:xlink="http://www.w3.org/1999/xlink" width="16" height="16" viewBox="0 0 16 16" version="1.1">
<g id="surface1">
<path style=" stroke:none;fill-rule:nonzero;fill:rgb(100%,100%,100%);fill-opacity:1;" d="M 13.640625 2.152344 C 13.742188 2.152344 13.847656 2.207031 13.898438 2.257812 C 13.949219 2.351562 13.949219 2.46875 13.898438 2.5625 L 9.847656 9.742188 L 12.410156 14.460938 C 12.460938 14.558594 12.460938 14.671875 12.410156 14.769531 C 12.339844 14.832031 12.25 14.871094 12.152344 14.871094 L 10.308594 14.871094 C 10.050781 14.871094 9.898438 14.667969 9.792969 14.511719 L 7.179688 9.742188 C 7.332031 9.539062 11.28125 2.511719 11.28125 2.511719 C 11.382812 2.308594 11.539062 2.15625 11.796875 2.15625 L 13.640625 2.15625 Z M 5.949219 4.667969 C 6.207031 4.667969 6.359375 4.871094 6.460938 5.023438 L 7.742188 7.230469 C 7.640625 7.332031 5.742188 10.71875 5.742188 10.71875 C 5.640625 10.871094 5.488281 11.078125 5.230469 11.078125 L 3.4375 11.078125 C 3.339844 11.074219 3.25 11.039062 3.179688 10.976562 C 3.128906 10.878906 3.128906 10.761719 3.179688 10.667969 L 5.078125 7.230469 L 3.847656 5.078125 C 3.792969 4.980469 3.792969 4.867188 3.847656 4.769531 C 3.917969 4.707031 4.007812 4.667969 4.101562 4.667969 Z M 5.949219 4.667969 "/>
</g>
</svg>
