<?xml version="1.0" encoding="UTF-8"?>
<svg xmlns="http://www.w3.org/2000/svg" xmlns:xlink="http://www.w3.org/1999/xlink" width="16" height="16" viewBox="0 0 16 16" version="1.1">
<g id="surface1">
<path style=" stroke:none;fill-rule:nonzero;fill:rgb(100%,100%,100%);fill-opacity:1;" d="M 14.363281 4.332031 C 14.667969 5.519531 14.667969 8 14.667969 8 C 14.667969 8 14.667969 10.480469 14.363281 11.667969 C 14.191406 12.324219 13.699219 12.839844 13.070312 13.015625 C 11.929688 13.332031 8 13.332031 8 13.332031 C 8 13.332031 4.070312 13.332031 2.929688 13.015625 C 2.300781 12.839844 1.804688 12.324219 1.636719 11.667969 C 1.332031 10.480469 1.332031 8 1.332031 8 C 1.332031 8 1.332031 5.519531 1.636719 4.332031 C 1.808594 3.675781 2.300781 3.160156 2.929688 2.984375 C 4.070312 2.667969 8 2.667969 8 2.667969 C 8 2.667969 11.929688 2.667969 13.070312 2.984375 C 13.699219 3.160156 14.195312 3.675781 14.363281 4.332031 Z M 6.667969 10.332031 L 10.667969 8 L 6.667969 5.667969 Z M 6.667969 10.332031 "/>
</g>
</svg>
