<?xml version="1.0" encoding="UTF-8"?>
<svg xmlns="http://www.w3.org/2000/svg" xmlns:xlink="http://www.w3.org/1999/xlink" width="16" height="16" viewBox="0 0 16 16" version="1.1">
<g id="surface1">
<path style=" stroke:none;fill-rule:nonzero;fill:rgb(100%,100%,100%);fill-opacity:1;" d="M 5.507812 5.507812 C 3.890625 5.867188 2.667969 7.472656 2.667969 9.289062 C 2.667969 11.320312 4.210938 13.019531 6.234375 13.207031 C 8.257812 13.398438 10.089844 12.019531 10.46875 10.023438 C 10.546875 9.597656 10.828125 9.238281 11.222656 9.058594 C 11.542969 8.910156 11.828125 8.742188 12.078125 8.5625 C 11.503906 8.160156 11.285156 7.320312 11.765625 6.671875 C 12.160156 6.132812 12.472656 5.539062 12.691406 4.90625 C 11.90625 5.269531 11.085938 5.550781 10.246094 5.746094 C 9.40625 5.949219 8.652344 5.324219 8.601562 4.539062 C 7.816406 4.921875 6.820312 5.210938 5.507812 5.507812 Z M 12.835938 7.460938 C 13.613281 7.460938 14.117188 7.179688 14.667969 7.070312 C 14.449219 8.035156 13.667969 9.398438 11.78125 10.269531 C 11.277344 12.941406 8.820312 14.792969 6.109375 14.539062 C 3.402344 14.285156 1.332031 12.011719 1.332031 9.289062 C 1.332031 6.859375 2.976562 4.707031 5.214844 4.207031 C 7.828125 3.621094 9.019531 3.160156 9.933594 1.332031 C 10.394531 2.222656 10.394531 3.261719 9.933594 4.453125 C 11.8125 4.003906 13.316406 3.214844 14.449219 2.085938 C 14.449219 5.289062 13.234375 6.875 12.835938 7.460938 Z M 8.945312 10.085938 C 9.332031 10.179688 9.332031 10.636719 9.332031 10.765625 L 9.332031 11.445312 C 9.332031 11.820312 9.105469 11.960938 8.769531 11.960938 L 5.160156 11.960938 C 4.84375 11.902344 4.671875 11.730469 4.671875 11.441406 L 4.671875 10.808594 C 4.671875 10.492188 4.816406 10.261719 4.960938 10.089844 L 7.0625 7.84375 L 5.015625 7.84375 C 4.816406 7.84375 4.671875 7.699219 4.671875 7.441406 C 4.644531 6.949219 4.730469 6.171875 5.101562 6 C 5.160156 6 5.160156 6.085938 5.160156 6.117188 C 5.101562 6.230469 5.160156 6.316406 5.304688 6.316406 L 7.898438 6.316406 C 8.472656 6.316406 8.816406 6.316406 9.019531 6.257812 C 9.105469 6.230469 9.164062 6.257812 9.132812 6.347656 C 9.078125 6.546875 9.105469 6.777344 9.105469 6.980469 C 9.105469 7.640625 9.105469 7.902344 8.585938 8.417969 L 6.800781 10.375 L 8.703125 10.375 C 8.914062 10.375 8.945312 10.277344 8.945312 10.085938 Z M 8.945312 10.085938 "/>
</g>
</svg>
