<?xml version="1.0" encoding="UTF-8"?>
<svg xmlns="http://www.w3.org/2000/svg" xmlns:xlink="http://www.w3.org/1999/xlink" width="16" height="16" viewBox="0 0 16 16" version="1.1">
<g id="surface1">
<path style=" stroke:none;fill-rule:nonzero;fill:rgb(100%,100%,100%);fill-opacity:1;" d="M 6.601562 14.558594 C 3.691406 14.558594 1.332031 12.199219 1.332031 9.289062 C 1.332031 6.859375 2.976562 4.707031 5.214844 4.207031 C 7.828125 3.621094 9.019531 3.160156 9.933594 1.332031 C 10.597656 2.625 10.148438 3.808594 9.933594 4.453125 C 13.066406 3.699219 14.179688 2.265625 14.449219 2.085938 C 14.449219 4.71875 13.628906 6.386719 12.835938 7.460938 C 13.820312 7.425781 14.175781 7.140625 14.664062 7.070312 C 14.449219 8.035156 13.664062 9.398438 11.78125 10.269531 C 11.308594 12.757812 9.132812 14.558594 6.601562 14.558594 Z M 9.074219 10.257812 C 9.074219 10.472656 9.039062 10.582031 8.804688 10.582031 L 6.707031 10.582031 L 8.679688 8.417969 C 9.253906 7.84375 9.253906 7.558594 9.253906 6.824219 C 9.253906 6.601562 9.21875 6.347656 9.285156 6.125 C 9.316406 6.027344 9.253906 5.996094 9.15625 6.027344 C 8.933594 6.09375 8.550781 6.09375 7.914062 6.09375 L 5.050781 6.09375 C 4.890625 6.09375 4.828125 5.996094 4.890625 5.871094 C 4.890625 5.835938 4.890625 5.742188 4.828125 5.742188 C 4.414062 5.933594 4.316406 6.792969 4.347656 7.335938 C 4.347656 7.621094 4.507812 7.78125 4.730469 7.78125 L 6.992188 7.78125 L 4.667969 10.261719 C 4.507812 10.453125 4.347656 10.710938 4.347656 11.058594 L 4.347656 11.761719 C 4.347656 12.078125 4.539062 12.269531 4.890625 12.332031 L 8.882812 12.332031 C 9.253906 12.332031 9.503906 12.179688 9.503906 11.761719 L 9.503906 11.011719 C 9.503906 10.871094 9.503906 10.367188 9.074219 10.257812 Z M 9.074219 10.257812 "/>
</g>
</svg>
