<?xml version="1.0" encoding="UTF-8"?>
<svg xmlns="http://www.w3.org/2000/svg" xmlns:xlink="http://www.w3.org/1999/xlink" width="16" height="16" viewBox="0 0 16 16" version="1.1">
<g id="surface1">
<path style=" stroke:none;fill-rule:nonzero;fill:rgb(100%,100%,100%);fill-opacity:1;" d="M 8.230469 11.976562 L 7.105469 12.691406 L 5.683594 10.457031 C 5.390625 11.394531 4.902344 12.234375 4.257812 13.007812 C 3.988281 13.328125 3.710938 13.621094 3.390625 13.925781 C 3.285156 14.023438 2.875 14.402344 2.804688 14.472656 L 1.863281 13.527344 C 1.953125 13.4375 2.386719 13.039062 2.472656 12.957031 C 2.757812 12.6875 3.003906 12.429688 3.234375 12.152344 C 4.078125 11.140625 4.585938 10.015625 4.65625 8.667969 L 2 8.667969 L 2 7.332031 L 4.667969 7.332031 L 4.667969 4.667969 L 4.089844 4.667969 C 3.628906 5.511719 3.050781 6.148438 2.34375 6.570312 L 1.65625 5.429688 C 2.585938 4.871094 3.273438 3.691406 3.683594 1.855469 L 4.984375 2.144531 C 4.890625 2.566406 4.78125 2.960938 4.65625 3.332031 L 7.667969 3.332031 L 7.667969 4.667969 L 6 4.667969 L 6 7.332031 L 7.667969 7.332031 L 7.667969 8.667969 L 6.125 8.667969 Z M 10.789062 11.929688 L 11.53125 11.332031 L 12.667969 11.332031 L 12.667969 4.667969 L 10 4.667969 L 10 11.332031 L 10.492188 11.332031 Z M 8.667969 3.332031 L 14 3.332031 L 14 12.667969 L 12 12.667969 L 10.332031 14 L 9.667969 12.667969 L 8.667969 12.667969 Z M 8.667969 3.332031 "/>
</g>
</svg>
