<?xml version="1.0" encoding="UTF-8"?>
<svg xmlns="http://www.w3.org/2000/svg" xmlns:xlink="http://www.w3.org/1999/xlink" width="16" height="16" viewBox="0 0 16 16" version="1.1">
<g id="surface1">
<path style=" stroke:none;fill-rule:nonzero;fill:rgb(100%,100%,100%);fill-opacity:1;" d="M 8.914062 12.597656 L 9.882812 12.597656 L 10.203125 13.6875 L 11.9375 12.597656 L 13.984375 12.597656 L 13.984375 3.597656 L 8.914062 3.597656 Z M 9.945312 4.574219 L 12.957031 4.574219 L 12.957031 11.621094 L 11.800781 11.621094 L 10.648438 12.34375 L 10.4375 11.621094 L 9.945312 11.621094 Z M 8.058594 7.714844 L 5.898438 7.714844 C 5.960938 6.703125 5.992188 5.6875 5.988281 4.675781 L 8.101562 4.675781 C 8.101562 4.675781 8.183594 3.742188 7.746094 3.753906 L 4.089844 3.753906 C 4.234375 3.210938 4.414062 2.648438 4.632812 2.070312 C 4.632812 2.070312 3.636719 2.070312 3.296875 2.960938 C 3.15625 3.328125 2.753906 4.746094 2.03125 6.195312 C 2.273438 6.167969 3.078125 6.144531 3.550781 5.273438 C 3.640625 5.03125 3.65625 5 3.765625 4.675781 L 4.957031 4.675781 C 4.957031 5.109375 4.90625 7.441406 4.886719 7.710938 L 2.726562 7.710938 C 2.242188 7.710938 2.085938 8.691406 2.085938 8.691406 L 4.796875 8.691406 C 4.613281 10.753906 3.636719 12.492188 1.867188 13.867188 C 2.714844 14.109375 3.558594 13.828125 3.976562 13.457031 C 3.976562 13.457031 4.925781 12.59375 5.445312 10.59375 L 7.675781 13.277344 C 7.675781 13.277344 8.003906 12.167969 7.625 11.625 C 7.3125 11.253906 6.464844 10.257812 6.105469 9.894531 L 5.5 10.375 C 5.679688 9.796875 5.789062 9.234375 5.824219 8.691406 L 8.371094 8.691406 C 8.371094 8.691406 8.371094 7.714844 8.058594 7.714844 Z M 8.058594 7.714844 "/>
</g>
</svg>
