<?xml version="1.0" encoding="UTF-8"?>
<svg xmlns="http://www.w3.org/2000/svg" xmlns:xlink="http://www.w3.org/1999/xlink" width="32" height="32" viewBox="0 0 32 32" version="1.1">
<g id="surface1">
<path style=" stroke:none;fill-rule:evenodd;fill:rgb(100%,100%,100%);fill-opacity:1;" d="M 4 0 C 1.785156 0 0 1.785156 0 4 L 0 10 C 0 12.214844 1.785156 14 4 14 L 28 14 C 30.214844 14 32 12.214844 32 10 L 32 4 C 32 1.785156 30.214844 0 28 0 Z M 4 10 L 28 10 L 28 12 L 4 12 Z M 14.128906 15.992188 C 14.039062 16.144531 13.996094 16.320312 13.996094 16.496094 L 13.996094 19.238281 C 13.996094 19.820312 13.851562 20.171875 13.730469 20.332031 C 13.609375 20.492188 13.542969 20.496094 13.5 20.496094 C 13.453125 20.496094 13.386719 20.492188 13.265625 20.332031 C 13.144531 20.171875 13 19.820312 13 19.238281 C 13 18.972656 12.890625 18.71875 12.703125 18.53125 C 12.515625 18.34375 12.257812 18.242188 11.992188 18.242188 C 11.441406 18.246094 11 18.6875 10.996094 19.238281 C 10.996094 20.15625 11.226562 20.9375 11.667969 21.527344 C 12.109375 22.117188 12.792969 22.496094 13.5 22.496094 C 14.207031 22.496094 14.890625 22.117188 15.332031 21.527344 C 15.773438 20.9375 15.996094 20.15625 15.996094 19.238281 L 15.996094 16.496094 C 15.996094 16.320312 15.953125 16.144531 15.863281 15.992188 Z M 17.035156 15.992188 C 17.011719 16.074219 17 16.15625 16.996094 16.242188 L 16.996094 27.242188 C 16.996094 28.660156 17.351562 29.816406 17.980469 30.65625 C 18.609375 31.496094 19.539062 32 20.496094 32 C 21.457031 32 22.382812 31.496094 23.011719 30.65625 C 23.640625 29.816406 23.996094 28.660156 23.996094 27.242188 C 23.996094 26.691406 23.550781 26.25 23 26.246094 C 22.449219 26.246094 22 26.691406 21.996094 27.242188 C 21.996094 28.324219 21.71875 29.046875 21.410156 29.457031 C 21.101562 29.867188 20.789062 29.996094 20.496094 29.996094 C 20.207031 29.996094 19.882812 29.867188 19.574219 29.457031 C 19.265625 29.046875 18.996094 28.324219 18.996094 27.242188 L 18.996094 16.242188 C 18.996094 16.15625 18.988281 16.074219 18.96875 15.992188 Z M 15.996094 22.621094 C 15.460938 23.183594 14.78125 23.585938 13.996094 23.710938 L 13.996094 26.246094 C 13.996094 27.578125 13.660156 28.488281 13.257812 29.023438 C 12.855469 29.558594 12.410156 29.746094 11.992188 29.746094 C 11.574219 29.746094 11.132812 29.558594 10.730469 29.023438 C 10.328125 28.488281 9.992188 27.578125 9.992188 26.246094 C 9.992188 25.695312 9.546875 25.246094 8.996094 25.242188 C 8.445312 25.246094 7.996094 25.695312 8 26.246094 C 8 27.914062 8.414062 29.253906 9.136719 30.21875 C 9.859375 31.183594 10.90625 31.746094 11.992188 31.746094 C 13.074219 31.746094 14.136719 31.183594 14.859375 30.21875 C 15.582031 29.253906 15.996094 27.914062 15.996094 26.246094 Z M 15.996094 22.621094 "/>
</g>
</svg>
