<?xml version="1.0" encoding="UTF-8"?>
<svg xmlns="http://www.w3.org/2000/svg" xmlns:xlink="http://www.w3.org/1999/xlink" width="32" height="32" viewBox="0 0 32 32" version="1.1">
<g id="surface1">
<path style=" stroke:none;fill-rule:nonzero;fill:rgb(100%,100%,100%);fill-opacity:1;" d="M 4 6.660156 C 4 5.191406 5.191406 4 6.660156 4 L 25.339844 4 C 26.808594 4 28 5.191406 28 6.660156 L 28 25.339844 C 28 26.808594 26.808594 28 25.339844 28 L 6.660156 28 C 5.191406 28 4 26.808594 4 25.339844 Z M 6.667969 6.667969 L 6.667969 25.332031 L 25.332031 25.332031 L 25.332031 6.667969 Z M 10.628906 24.238281 C 9.808594 23.886719 9.027344 23.449219 8.292969 22.9375 C 10.011719 20.273438 12.964844 18.664062 16.136719 18.667969 C 19.335938 18.667969 22.160156 20.277344 23.839844 22.730469 C 23.121094 23.261719 22.351562 23.71875 21.542969 24.097656 C 20.289062 22.359375 18.277344 21.332031 16.136719 21.332031 C 13.847656 21.332031 11.828125 22.484375 10.628906 24.238281 Z M 16 17.332031 C 13.421875 17.332031 11.332031 15.242188 11.332031 12.667969 C 11.332031 10.089844 13.421875 8 16 8 C 18.578125 8 20.667969 10.089844 20.667969 12.667969 C 20.667969 15.242188 18.578125 17.332031 16 17.332031 Z M 16 14.667969 C 17.105469 14.667969 18 13.769531 18 12.667969 C 18 11.5625 17.105469 10.667969 16 10.667969 C 14.894531 10.667969 14 11.5625 14 12.667969 C 14 13.769531 14.894531 14.667969 16 14.667969 Z M 16 14.667969 "/>
</g>
</svg>
