<?xml version="1.0" encoding="UTF-8"?>
<svg xmlns="http://www.w3.org/2000/svg" xmlns:xlink="http://www.w3.org/1999/xlink" width="32" height="32" viewBox="0 0 32 32" version="1.1">
<g id="surface1">
<path style=" stroke:none;fill-rule:nonzero;fill:rgb(100%,100%,100%);fill-opacity:1;" d="M 4 6.660156 C 4 5.191406 5.191406 4 6.660156 4 L 25.339844 4 C 26.808594 4 28 5.191406 28 6.660156 L 28 25.339844 C 28 26.808594 26.808594 28 25.339844 28 L 6.660156 28 C 5.191406 28 4 26.808594 4 25.339844 Z M 8.476562 24 L 23.796875 24 C 22.050781 21.492188 19.191406 19.996094 16.136719 20 C 13.082031 19.996094 10.21875 21.492188 8.476562 24 Z M 16 17.332031 C 18.578125 17.332031 20.667969 15.242188 20.667969 12.667969 C 20.667969 10.089844 18.578125 8 16 8 C 13.421875 8 11.332031 10.089844 11.332031 12.667969 C 11.332031 15.242188 13.421875 17.332031 16 17.332031 Z M 16 17.332031 "/>
</g>
</svg>
