<?xml version="1.0" encoding="UTF-8"?>
<svg xmlns="http://www.w3.org/2000/svg" xmlns:xlink="http://www.w3.org/1999/xlink" width="32" height="32" viewBox="0 0 32 32" version="1.1">
<g id="surface1">
<path style=" stroke:none;fill-rule:nonzero;fill:rgb(100%,100%,100%);fill-opacity:1;" d="M 16 18.667969 L 16 29.332031 L 5.332031 29.332031 C 5.332031 23.441406 10.109375 18.667969 16 18.667969 Z M 16 17.332031 C 11.578125 17.332031 8 13.753906 8 9.332031 C 8 4.914062 11.578125 1.332031 16 1.332031 C 20.421875 1.332031 24 4.914062 24 9.332031 C 24 13.753906 20.421875 17.332031 16 17.332031 Z M 28 22.667969 L 29.332031 22.667969 L 29.332031 29.332031 L 18.667969 29.332031 L 18.667969 22.667969 L 20 22.667969 L 20 21.332031 C 20 19.125 21.789062 17.332031 24 17.332031 C 26.210938 17.332031 28 19.125 28 21.332031 Z M 25.332031 22.667969 L 25.332031 21.332031 C 25.332031 20.597656 24.738281 20 24 20 C 23.261719 20 22.667969 20.597656 22.667969 21.332031 L 22.667969 22.667969 Z M 25.332031 22.667969 "/>
</g>
</svg>
