<?xml version="1.0" encoding="UTF-8"?>
<svg xmlns="http://www.w3.org/2000/svg" xmlns:xlink="http://www.w3.org/1999/xlink" width="32" height="32" viewBox="0 0 32 32" version="1.1">
<g id="surface1">
<path style=" stroke:none;fill-rule:nonzero;fill:rgb(100%,100%,100%);fill-opacity:1;" d="M 3.695312 -0.00390625 C 1.667969 -0.00390625 0.00390625 1.660156 0.00390625 3.6875 L 0.00390625 28.3125 C 0.00390625 30.339844 1.667969 32.003906 3.695312 32.003906 L 28.320312 32.003906 C 30.347656 32.003906 31.996094 30.339844 31.996094 28.3125 L 31.996094 3.6875 C 31.996094 1.660156 30.347656 -0.00390625 28.320312 -0.00390625 Z M 3.695312 2.003906 L 28.320312 2.003906 C 29.273438 2.003906 30.003906 2.734375 30.003906 3.6875 L 30.003906 28.3125 C 30.003906 29.265625 29.273438 29.996094 28.320312 29.996094 L 3.695312 29.996094 C 2.742188 29.996094 1.996094 29.265625 1.996094 28.3125 L 1.996094 3.6875 C 1.996094 2.734375 2.742188 2.003906 3.695312 2.003906 Z M 3.695312 2.003906 "/>
<path style=" stroke:none;fill-rule:nonzero;fill:rgb(100%,100%,100%);fill-opacity:1;" d="M 17.996094 3.324219 C 17.335938 3.371094 16.582031 3.722656 15.734375 4.167969 C 15.671875 4.160156 15.402344 4.097656 15.019531 3.929688 C 14.605469 3.75 14.121094 3.507812 13.472656 3.433594 C 12.828125 3.359375 11.902344 3.722656 11.488281 4.445312 C 11.179688 4.984375 11.136719 5.824219 11.066406 6.6875 C 9.550781 6.511719 8.015625 6.402344 7.132812 7.292969 C 6.117188 8.324219 5.789062 9.886719 5.570312 11.558594 C 4.972656 11.925781 4.429688 12.292969 4.121094 12.75 C 3.738281 13.320312 3.636719 14.054688 3.789062 14.609375 C 4.039062 15.519531 4.570312 15.964844 4.945312 16.410156 C 3.992188 17.890625 3.265625 19.304688 3.476562 20.582031 C 3.683594 21.824219 4.761719 22.617188 5.882812 23.320312 C 6.035156 24.195312 6.054688 25.289062 6.65625 26.3125 C 6.96875 26.847656 7.5 27.339844 8.179688 27.601562 C 8.769531 27.828125 9.492188 27.839844 10.277344 27.765625 C 11.121094 28.160156 12.03125 28.523438 13.070312 28.5 C 13.957031 28.484375 14.855469 27.914062 15.734375 27.269531 C 16.59375 27.976562 17.457031 28.617188 18.363281 28.667969 C 19.363281 28.722656 20.230469 28.253906 21.027344 27.710938 C 22.421875 27.761719 23.660156 27.613281 24.554688 26.921875 C 25.332031 26.316406 25.535156 25.277344 25.660156 24.238281 C 26.792969 23.457031 27.648438 22.640625 28.101562 21.773438 C 28.589844 20.847656 28.667969 19.890625 28.488281 19.054688 C 28.199219 17.707031 27.304688 16.984375 26.539062 16.355469 C 27.132812 15.417969 27.699219 14.460938 27.515625 13.632812 C 27.296875 12.65625 26.726562 11.988281 26.246094 11.375 C 26.242188 10.21875 26.140625 9.207031 25.789062 8.453125 C 25.386719 7.59375 24.707031 7.007812 23.984375 6.6875 C 22.808594 6.164062 21.65625 6.304688 20.585938 6.320312 C 20.550781 6.121094 20.519531 5.984375 20.476562 5.75 C 20.386719 5.273438 20.300781 4.722656 19.925781 4.1875 C 19.546875 3.65625 18.769531 3.269531 17.996094 3.324219 Z M 18.140625 5.328125 C 18.398438 5.308594 18.246094 5.28125 18.289062 5.347656 C 18.335938 5.410156 18.433594 5.714844 18.507812 6.117188 C 18.585938 6.523438 18.652344 7.011719 18.820312 7.53125 C 18.949219 7.9375 19.316406 8.214844 19.742188 8.230469 C 21.15625 8.28125 22.472656 8.195312 23.175781 8.507812 C 23.527344 8.664062 23.757812 8.84375 23.96875 9.296875 C 24.179688 9.75 24.335938 10.523438 24.296875 11.703125 C 24.289062 11.9375 24.359375 12.164062 24.5 12.347656 C 25.035156 13.042969 25.46875 13.632812 25.566406 14.074219 C 25.664062 14.519531 25.625 14.949219 24.777344 15.859375 C 24.578125 16.074219 24.488281 16.363281 24.523438 16.652344 C 24.558594 16.945312 24.71875 17.203125 24.960938 17.363281 C 25.488281 17.722656 26.355469 18.601562 26.539062 19.460938 C 26.632812 19.890625 26.601562 20.320312 26.320312 20.855469 C 26.039062 21.390625 25.46875 22.046875 24.390625 22.75 C 24.097656 22.9375 23.921875 23.265625 23.929688 23.613281 C 23.960938 24.574219 23.746094 25.027344 23.34375 25.339844 C 22.9375 25.65625 22.144531 25.871094 20.863281 25.78125 C 20.617188 25.769531 20.375 25.847656 20.183594 26.003906 C 19.542969 26.496094 18.992188 26.691406 18.472656 26.664062 C 17.953125 26.632812 17.320312 26.367188 16.488281 25.507812 C 16.304688 25.316406 16.050781 25.207031 15.785156 25.203125 C 15.519531 25.199219 15.261719 25.300781 15.074219 25.488281 C 14.265625 26.277344 13.660156 26.484375 13.03125 26.5 C 12.40625 26.511719 11.691406 26.277344 10.902344 25.890625 C 10.71875 25.800781 10.515625 25.769531 10.3125 25.800781 C 9.589844 25.902344 9.15625 25.824219 8.898438 25.726562 C 8.640625 25.628906 8.515625 25.527344 8.382812 25.304688 C 8.121094 24.851562 8.011719 23.878906 7.8125 22.824219 C 7.753906 22.507812 7.550781 22.242188 7.261719 22.105469 C 6.085938 21.546875 5.558594 20.953125 5.441406 20.25 C 5.328125 19.546875 5.628906 18.4375 6.820312 16.851562 C 7.085938 16.507812 7.101562 16.03125 6.859375 15.671875 C 6.332031 14.890625 5.773438 14.277344 5.71875 14.074219 C 5.691406 13.972656 5.671875 14.023438 5.773438 13.871094 C 5.875 13.722656 6.1875 13.410156 6.859375 13.046875 C 7.152344 12.894531 7.351562 12.605469 7.390625 12.273438 C 7.558594 10.554688 7.988281 9.296875 8.566406 8.707031 C 9.148438 8.121094 9.90625 7.886719 11.617188 8.414062 C 11.921875 8.511719 12.25 8.460938 12.507812 8.273438 C 12.765625 8.089844 12.917969 7.792969 12.921875 7.476562 C 12.945312 6.265625 13.136719 5.609375 13.234375 5.4375 C 13.234375 5.4375 13.253906 5.417969 13.253906 5.417969 C 13.390625 5.433594 13.761719 5.574219 14.210938 5.769531 C 14.65625 5.960938 15.179688 6.234375 15.902344 6.191406 C 16.054688 6.183594 16.207031 6.136719 16.34375 6.0625 C 17.269531 5.535156 17.886719 5.34375 18.144531 5.328125 Z M 18.140625 5.328125 "/>
<path style=" stroke:none;fill-rule:nonzero;fill:rgb(100%,100%,100%);fill-opacity:1;" d="M 14.851562 5.179688 L 14.851562 26.277344 L 16.835938 26.277344 L 16.835938 5.179688 Z M 14.851562 5.179688 "/>
<path style=" stroke:none;fill-rule:nonzero;fill:rgb(100%,100%,100%);fill-opacity:1;" d="M 11.195312 9.5 C 10.933594 9.539062 10.695312 9.679688 10.535156 9.894531 C 10.378906 10.105469 10.308594 10.375 10.351562 10.636719 C 10.453125 11.375 10.371094 11.824219 10.277344 12.070312 C 10.183594 12.316406 10.101562 12.394531 9.945312 12.476562 C 9.632812 12.640625 8.914062 12.648438 8.347656 12.566406 C 7.804688 12.496094 7.304688 12.871094 7.226562 13.414062 C 7.152344 13.957031 7.53125 14.453125 8.070312 14.535156 C 8.722656 14.625 9.800781 14.816406 10.863281 14.257812 C 11.398438 13.980469 11.894531 13.460938 12.152344 12.789062 C 12.40625 12.117188 12.449219 11.324219 12.316406 10.363281 C 12.28125 10.101562 12.144531 9.859375 11.933594 9.699219 C 11.726562 9.535156 11.457031 9.464844 11.195312 9.5 Z M 11.195312 9.5 "/>
<path style=" stroke:none;fill-rule:nonzero;fill:rgb(100%,100%,100%);fill-opacity:1;" d="M 20.992188 9.5 C 20.539062 9.503906 20.144531 9.8125 20.035156 10.253906 C 19.882812 10.867188 18.832031 11.890625 17.8125 12.347656 C 17.355469 12.550781 16.964844 12.59375 16.765625 12.605469 C 16.617188 12.222656 16.253906 11.96875 15.84375 11.960938 C 15.578125 11.964844 15.324219 12.070312 15.140625 12.261719 C 14.953125 12.449219 14.851562 12.707031 14.851562 12.972656 C 14.851562 13.410156 15.035156 13.917969 15.386719 14.222656 C 15.734375 14.527344 16.144531 14.617188 16.507812 14.644531 C 17.230469 14.695312 17.910156 14.484375 18.621094 14.167969 C 20.035156 13.53125 21.5625 12.429688 21.984375 10.730469 C 22.046875 10.472656 22.003906 10.199219 21.867188 9.972656 C 21.730469 9.742188 21.507812 9.578125 21.246094 9.515625 C 21.164062 9.5 21.078125 9.492188 20.992188 9.5 Z M 20.992188 9.5 "/>
<path style=" stroke:none;fill-rule:nonzero;fill:rgb(100%,100%,100%);fill-opacity:1;" d="M 18.03125 18.007812 C 17.578125 17.96875 17.15625 18.238281 17.003906 18.667969 C 16.824219 19.1875 17.09375 19.75 17.609375 19.9375 C 18.71875 20.335938 19.640625 20.308594 20.015625 20.527344 C 20.207031 20.632812 20.328125 20.738281 20.457031 21.113281 C 20.585938 21.488281 20.667969 22.167969 20.585938 23.226562 C 20.546875 23.773438 20.957031 24.25 21.503906 24.292969 C 21.769531 24.316406 22.035156 24.230469 22.238281 24.058594 C 22.441406 23.886719 22.570312 23.640625 22.589844 23.375 C 22.683594 22.148438 22.613281 21.214844 22.351562 20.453125 C 22.085938 19.6875 21.570312 19.117188 21.007812 18.796875 C 19.886719 18.15625 18.8125 18.253906 18.289062 18.0625 C 18.207031 18.03125 18.121094 18.015625 18.03125 18.007812 Z M 18.03125 18.007812 "/>
<path style=" stroke:none;fill-rule:nonzero;fill:rgb(100%,100%,100%);fill-opacity:1;" d="M 13.089844 20.304688 C 12.503906 20.289062 11.785156 20.484375 11.269531 21.003906 C 10.753906 21.523438 10.460938 22.226562 10.277344 23.171875 C 10.226562 23.433594 10.277344 23.703125 10.425781 23.925781 C 10.574219 24.144531 10.804688 24.296875 11.066406 24.347656 C 11.328125 24.398438 11.597656 24.34375 11.820312 24.195312 C 12.039062 24.050781 12.191406 23.820312 12.242188 23.558594 C 12.382812 22.832031 12.582031 22.5 12.683594 22.398438 C 12.785156 22.296875 12.816406 22.300781 13.050781 22.308594 C 13.523438 22.320312 14.539062 22.757812 15.769531 22.839844 C 16.039062 22.859375 16.300781 22.769531 16.5 22.59375 C 16.699219 22.417969 16.820312 22.167969 16.835938 21.902344 C 16.875 21.355469 16.464844 20.878906 15.917969 20.835938 C 15.21875 20.789062 14.257812 20.332031 13.089844 20.304688 Z M 13.089844 20.304688 "/>
<path style=" stroke:none;fill-rule:nonzero;fill:rgb(100%,100%,100%);fill-opacity:1;" d="M 10.699219 12.21875 C 10.519531 12.210938 10.34375 12.246094 10.183594 12.328125 C 9.699219 12.585938 9.511719 13.183594 9.761719 13.671875 L 11.324219 16.703125 C 11.578125 17.1875 12.179688 17.375 12.664062 17.125 C 13.148438 16.871094 13.339844 16.273438 13.089844 15.785156 L 11.527344 12.75 C 11.363281 12.441406 11.050781 12.238281 10.699219 12.21875 Z M 10.699219 12.21875 "/>
<path style=" stroke:none;fill-rule:nonzero;fill:rgb(100%,100%,100%);fill-opacity:1;" d="M 24.390625 18.539062 C 24.390625 18.539062 22.578125 18.121094 20.53125 19.164062 C 20.046875 19.421875 19.859375 20.019531 20.109375 20.507812 C 20.359375 21 20.957031 21.195312 21.449219 20.949219 C 22.921875 20.195312 23.875 20.488281 23.875 20.488281 C 24.132812 20.558594 24.410156 20.523438 24.640625 20.386719 C 24.871094 20.253906 25.039062 20.03125 25.105469 19.773438 C 25.175781 19.511719 25.140625 19.238281 25.007812 19.007812 C 24.871094 18.773438 24.648438 18.605469 24.390625 18.539062 Z M 24.390625 18.539062 "/>
</g>
</svg>
