<?xml version="1.0" encoding="UTF-8"?>
<svg xmlns="http://www.w3.org/2000/svg" xmlns:xlink="http://www.w3.org/1999/xlink" width="32" height="32" viewBox="0 0 32 32" version="1.1">
<g id="surface1">
<path style=" stroke:none;fill-rule:evenodd;fill:rgb(100%,100%,100%);fill-opacity:1;" d="M 14.976562 0 C 14.433594 0.0117188 14 0.457031 14 1 C 14 1.066406 14.007812 1.132812 14.023438 1.195312 C 14.117188 1.664062 14.527344 2 15.003906 2 C 18.71875 2 22.28125 3.480469 24.90625 6.105469 C 27.53125 8.730469 29 12.296875 29 16.011719 C 29 16.5625 29.449219 17.011719 30 17.011719 C 30.550781 17.011719 31 16.5625 31 16.011719 C 31 11.769531 29.316406 7.6875 26.316406 4.6875 C 23.316406 1.6875 19.242188 0 15 0 C 14.992188 0 14.984375 0 14.976562 0 Z M 14.976562 4.003906 C 14.433594 4.019531 14.003906 4.460938 14.003906 5.003906 C 14.003906 5.0625 14.011719 5.125 14.023438 5.183594 C 14.109375 5.660156 14.523438 6.003906 15.007812 6.003906 C 17.660156 6.003906 20.199219 7.066406 22.074219 8.941406 C 23.949219 10.816406 25.007812 13.359375 25.007812 16.011719 C 25.015625 16.554688 25.449219 16.992188 25.992188 17 C 26.539062 17.003906 26.988281 16.5625 26.996094 16.015625 C 26.996094 12.832031 25.734375 9.773438 23.484375 7.523438 C 21.234375 5.273438 18.1875 4.003906 15.003906 4.003906 C 14.996094 4.003906 14.984375 4.003906 14.976562 4.003906 Z M 5.195312 6.527344 C 4.875 6.527344 4.5625 6.660156 4.335938 6.925781 C 1.386719 10.390625 0.292969 15.097656 1.460938 19.542969 C 2.058594 21.820312 3.222656 23.847656 4.777344 25.511719 L 2.605469 31.996094 L 11.390625 31.996094 L 10.457031 29.195312 C 10.765625 29.300781 11.066406 29.425781 11.382812 29.511719 C 15.839844 30.714844 20.578125 29.65625 24.078125 26.734375 C 24.605469 26.292969 24.605469 25.5 24.117188 25.015625 L 18.039062 18.957031 C 18.421875 18.328125 18.625 17.609375 18.625 16.875 C 18.625 14.664062 16.835938 12.875 14.625 12.875 C 13.894531 12.875 13.179688 13.074219 12.554688 13.453125 L 6.085938 6.902344 C 5.839844 6.652344 5.515625 6.527344 5.195312 6.527344 Z M 14.964844 8.011719 C 14.421875 8.027344 13.992188 8.46875 13.992188 9.011719 C 13.992188 9.070312 14 9.132812 14.011719 9.191406 C 14.097656 9.667969 14.511719 10.011719 14.996094 10.011719 C 16.585938 10.011719 18.113281 10.640625 19.238281 11.765625 C 20.363281 12.890625 21 14.410156 21 16 C 21 16.554688 21.449219 17.003906 22.003906 17 C 22.546875 16.992188 22.984375 16.546875 22.988281 16.003906 C 22.988281 13.882812 22.148438 11.847656 20.648438 10.347656 C 19.148438 8.847656 17.113281 8.011719 14.992188 8.011719 C 14.984375 8.011719 14.972656 8.011719 14.964844 8.011719 Z M 14.964844 8.011719 "/>
</g>
</svg>
