<?xml version="1.0" encoding="UTF-8"?>
<svg xmlns="http://www.w3.org/2000/svg" xmlns:xlink="http://www.w3.org/1999/xlink" width="32" height="32" viewBox="0 0 32 32" version="1.1">
<g id="surface1">
<path style=" stroke:none;fill-rule:nonzero;fill:rgb(100%,100%,100%);fill-opacity:1;" d="M 8.175781 0 C 7.925781 0.0117188 7.691406 0.117188 7.515625 0.292969 C 5.265625 2.542969 3.996094 5.601562 3.996094 8.785156 C 3.996094 11.96875 5.257812 15.007812 7.507812 17.257812 C 7.898438 17.648438 8.53125 17.652344 8.921875 17.261719 C 9.109375 17.074219 9.21875 16.820312 9.21875 16.554688 C 9.21875 16.289062 9.113281 16.03125 8.925781 15.84375 C 7.050781 13.96875 6 11.421875 6 8.769531 C 6 6.117188 7.054688 3.585938 8.929688 1.710938 C 9.269531 1.367188 9.320312 0.832031 9.042969 0.433594 C 9.007812 0.382812 8.972656 0.335938 8.929688 0.292969 C 8.730469 0.09375 8.457031 -0.0117188 8.175781 0 Z M 23.710938 0.0117188 C 23.472656 0.03125 23.246094 0.136719 23.078125 0.304688 C 23.035156 0.347656 23 0.394531 22.964844 0.445312 C 22.691406 0.84375 22.738281 1.378906 23.078125 1.71875 C 24.953125 3.59375 26 6.140625 26 8.792969 C 26 11.445312 24.949219 13.992188 23.074219 15.867188 C 22.691406 16.253906 22.691406 16.875 23.070312 17.265625 C 23.457031 17.65625 24.085938 17.664062 24.480469 17.277344 C 26.730469 15.027344 28 11.972656 28 8.789062 C 28 5.605469 26.742188 2.554688 24.492188 0.304688 C 24.285156 0.0976562 24 -0.0078125 23.710938 0.0117188 Z M 11.003906 2.835938 C 10.753906 2.847656 10.519531 2.949219 10.34375 3.125 C 8.84375 4.625 7.996094 6.65625 7.996094 8.777344 C 7.996094 10.898438 8.839844 12.929688 10.339844 14.429688 C 10.535156 14.628906 10.808594 14.734375 11.085938 14.722656 L 1.792969 32 L 5.195312 32 L 5.628906 31.199219 L 15.992188 27.046875 L 26.375 31.199219 L 26.804688 32 L 30.207031 32 L 20.898438 14.722656 C 21.179688 14.738281 21.453125 14.632812 21.652344 14.433594 C 23.152344 12.933594 23.996094 10.902344 23.996094 8.78125 C 23.996094 6.660156 23.152344 4.628906 21.652344 3.128906 C 21.464844 2.941406 21.210938 2.835938 20.945312 2.835938 C 20.675781 2.835938 20.421875 2.941406 20.234375 3.128906 C 20.191406 3.171875 20.15625 3.21875 20.121094 3.269531 C 19.847656 3.667969 19.894531 4.207031 20.238281 4.546875 C 21.363281 5.671875 22 7.195312 22 8.785156 C 22 10.378906 21.375 11.902344 20.25 13.027344 C 20.191406 13.085938 20.136719 13.15625 20.09375 13.226562 L 19.078125 11.339844 C 19.675781 10.625 20.003906 9.722656 20.003906 8.789062 C 20.003906 6.582031 18.214844 4.789062 16.003906 4.789062 C 13.792969 4.789062 12.003906 6.582031 12.003906 8.789062 C 12.003906 9.714844 12.324219 10.613281 12.914062 11.328125 L 11.902344 13.207031 C 11.863281 13.136719 11.8125 13.074219 11.757812 13.015625 C 10.632812 11.890625 9.996094 10.375 9.996094 8.78125 C 9.996094 7.191406 10.625 5.65625 11.75 4.53125 C 12.089844 4.195312 12.140625 3.664062 11.875 3.265625 C 11.839844 3.21875 11.800781 3.171875 11.757812 3.128906 C 11.558594 2.929688 11.285156 2.824219 11.003906 2.835938 Z M 16.453125 12.761719 L 18.429688 16.433594 L 16.007812 17.644531 L 13.582031 16.433594 L 15.558594 12.765625 C 15.707031 12.78125 15.855469 12.789062 16.003906 12.789062 C 16.152344 12.789062 16.304688 12.78125 16.453125 12.761719 Z M 12.621094 18.210938 L 13.75 18.78125 L 11.789062 19.761719 Z M 19.386719 18.210938 L 20.222656 19.765625 L 18.25 18.78125 Z M 16.007812 19.902344 L 21.542969 22.664062 L 15.992188 24.890625 L 10.457031 22.664062 Z M 22.695312 24.363281 L 24.894531 28.449219 L 18.695312 25.96875 Z M 9.304688 24.371094 L 13.292969 25.96875 L 7.113281 28.441406 Z M 9.304688 24.371094 "/>
</g>
</svg>
