<?xml version="1.0" encoding="UTF-8"?>
<svg xmlns="http://www.w3.org/2000/svg" xmlns:xlink="http://www.w3.org/1999/xlink" width="32" height="32" viewBox="0 0 32 32" version="1.1">
<g id="surface1">
<path style=" stroke:none;fill-rule:nonzero;fill:rgb(100%,100%,100%);fill-opacity:1;" d="M 9.332031 15.332031 C 6.019531 15.332031 3.332031 12.648438 3.332031 9.332031 C 3.332031 6.019531 6.019531 3.332031 9.332031 3.332031 C 12.648438 3.332031 15.332031 6.019531 15.332031 9.332031 C 15.332031 12.648438 12.648438 15.332031 9.332031 15.332031 Z M 9.332031 28.667969 C 6.019531 28.667969 3.332031 25.980469 3.332031 22.667969 C 3.332031 19.351562 6.019531 16.667969 9.332031 16.667969 C 12.648438 16.667969 15.332031 19.351562 15.332031 22.667969 C 15.332031 25.980469 12.648438 28.667969 9.332031 28.667969 Z M 22.667969 15.332031 C 19.351562 15.332031 16.667969 12.648438 16.667969 9.332031 C 16.667969 6.019531 19.351562 3.332031 22.667969 3.332031 C 25.980469 3.332031 28.667969 6.019531 28.667969 9.332031 C 28.667969 12.648438 25.980469 15.332031 22.667969 15.332031 Z M 22.667969 28.667969 C 19.351562 28.667969 16.667969 25.980469 16.667969 22.667969 C 16.667969 19.351562 19.351562 16.667969 22.667969 16.667969 C 25.980469 16.667969 28.667969 19.351562 28.667969 22.667969 C 28.667969 25.980469 25.980469 28.667969 22.667969 28.667969 Z M 22.667969 28.667969 "/>
</g>
</svg>
