<?xml version="1.0" encoding="UTF-8"?>
<svg xmlns="http://www.w3.org/2000/svg" xmlns:xlink="http://www.w3.org/1999/xlink" width="32" height="32" viewBox="0 0 32 32" version="1.1">
<g id="surface1">
<path style=" stroke:none;fill-rule:nonzero;fill:rgb(100%,100%,100%);fill-opacity:1;" d="M 8.667969 15.332031 C 5.351562 15.332031 2.667969 12.648438 2.667969 9.332031 C 2.667969 6.019531 5.351562 3.332031 8.667969 3.332031 C 11.980469 3.332031 14.667969 6.019531 14.667969 9.332031 C 14.667969 12.648438 11.980469 15.332031 8.667969 15.332031 Z M 9.332031 28.667969 C 6.019531 28.667969 3.332031 25.980469 3.332031 22.667969 C 3.332031 19.351562 6.019531 16.667969 9.332031 16.667969 C 12.648438 16.667969 15.332031 19.351562 15.332031 22.667969 C 15.332031 25.980469 12.648438 28.667969 9.332031 28.667969 Z M 22.667969 15.332031 C 19.351562 15.332031 16.667969 12.648438 16.667969 9.332031 C 16.667969 6.019531 19.351562 3.332031 22.667969 3.332031 C 25.980469 3.332031 28.667969 6.019531 28.667969 9.332031 C 28.667969 12.648438 25.980469 15.332031 22.667969 15.332031 Z M 22.667969 28.667969 C 19.351562 28.667969 16.667969 25.980469 16.667969 22.667969 C 16.667969 19.351562 19.351562 16.667969 22.667969 16.667969 C 25.980469 16.667969 28.667969 19.351562 28.667969 22.667969 C 28.667969 25.980469 25.980469 28.667969 22.667969 28.667969 Z M 8.667969 12.667969 C 10.507812 12.667969 12 11.175781 12 9.332031 C 12 7.492188 10.507812 6 8.667969 6 C 6.824219 6 5.332031 7.492188 5.332031 9.332031 C 5.332031 11.175781 6.824219 12.667969 8.667969 12.667969 Z M 9.332031 26 C 11.175781 26 12.667969 24.507812 12.667969 22.667969 C 12.667969 20.824219 11.175781 19.332031 9.332031 19.332031 C 7.492188 19.332031 6 20.824219 6 22.667969 C 6 24.507812 7.492188 26 9.332031 26 Z M 22.667969 12.667969 C 24.507812 12.667969 26 11.175781 26 9.332031 C 26 7.492188 24.507812 6 22.667969 6 C 20.824219 6 19.332031 7.492188 19.332031 9.332031 C 19.332031 11.175781 20.824219 12.667969 22.667969 12.667969 Z M 22.667969 26 C 24.507812 26 26 24.507812 26 22.667969 C 26 20.824219 24.507812 19.332031 22.667969 19.332031 C 20.824219 19.332031 19.332031 20.824219 19.332031 22.667969 C 19.332031 24.507812 20.824219 26 22.667969 26 Z M 22.667969 26 "/>
</g>
</svg>
