<?xml version="1.0" encoding="UTF-8"?>
<svg xmlns="http://www.w3.org/2000/svg" xmlns:xlink="http://www.w3.org/1999/xlink" width="32" height="32" viewBox="0 0 32 32" version="1.1">
<g id="surface1">
<path style=" stroke:none;fill-rule:nonzero;fill:rgb(100%,100%,100%);fill-opacity:1;" d="M 16 29.332031 C 8.636719 29.332031 2.667969 23.363281 2.667969 16 C 2.667969 8.636719 8.636719 2.667969 16 2.667969 C 23.363281 2.667969 29.332031 8.636719 29.332031 16 C 29.332031 23.363281 23.363281 29.332031 16 29.332031 Z M 26.667969 16 C 26.664062 11.167969 23.417969 6.941406 18.746094 5.695312 C 14.078125 4.449219 9.15625 6.5 6.75 10.691406 C 4.34375 14.882812 5.054688 20.164062 8.484375 23.570312 C 11.914062 26.976562 17.203125 27.648438 21.375 25.214844 L 20.03125 22.910156 C 16.902344 24.738281 12.933594 24.234375 10.363281 21.679688 C 7.792969 19.125 7.257812 15.164062 9.0625 12.019531 C 10.867188 8.875 14.558594 7.339844 18.058594 8.273438 C 21.5625 9.207031 24 12.375 24 16 L 24 17.332031 C 24 18.070312 23.402344 18.667969 22.667969 18.667969 C 21.929688 18.667969 21.332031 18.070312 21.332031 17.332031 L 21.332031 12 L 19.527344 12 C 17.371094 10.097656 14.097656 10.246094 12.125 12.335938 C 10.148438 14.425781 10.1875 17.703125 12.207031 19.75 C 14.226562 21.792969 17.503906 21.867188 19.617188 19.921875 C 20.699219 21.199219 22.46875 21.664062 24.042969 21.089844 C 25.621094 20.511719 26.667969 19.011719 26.667969 17.332031 Z M 16 13.332031 C 17.472656 13.332031 18.667969 14.527344 18.667969 16 C 18.667969 17.472656 17.472656 18.667969 16 18.667969 C 14.527344 18.667969 13.332031 17.472656 13.332031 16 C 13.332031 14.527344 14.527344 13.332031 16 13.332031 Z M 16 13.332031 "/>
</g>
</svg>
