<?xml version="1.0" encoding="UTF-8"?>
<svg xmlns="http://www.w3.org/2000/svg" xmlns:xlink="http://www.w3.org/1999/xlink" width="32" height="32" viewBox="0 0 32 32" version="1.1">
<g id="surface1">
<path style=" stroke:none;fill-rule:evenodd;fill:rgb(100%,100%,100%);fill-opacity:1;" d="M 28.3125 2.046875 C 25.582031 -0.683594 21.191406 -0.683594 18.460938 2.046875 L 29.953125 13.539062 C 32.683594 10.808594 32.683594 6.417969 29.953125 3.6875 Z M 16.8125 3.695312 L 3.679688 16.828125 L 15.171875 28.320312 L 28.304688 15.1875 Z M 18.449219 8.574219 C 18.824219 8.90625 19.078125 9.367188 19.121094 9.949219 C 19.21875 10.65625 18.96875 11.394531 18.460938 11.894531 C 16.859375 13.699219 13.667969 11.648438 14.648438 9.441406 C 15.164062 7.773438 17.328125 7.582031 18.449219 8.574219 Z M 23.375 13.5 C 23.746094 13.828125 24 14.292969 24.042969 14.875 C 24.140625 15.578125 23.894531 16.320312 23.386719 16.820312 C 21.785156 18.621094 18.59375 16.574219 19.570312 14.363281 C 20.089844 12.699219 22.253906 12.507812 23.375 13.5 Z M 11.882812 15.140625 C 12.257812 15.472656 12.511719 15.933594 12.554688 16.515625 C 12.652344 17.222656 12.402344 17.960938 11.894531 18.460938 C 10.292969 20.265625 7.101562 18.214844 8.082031 16.007812 C 8.597656 14.339844 10.761719 14.148438 11.882812 15.140625 Z M 16.808594 20.066406 C 17.179688 20.394531 17.433594 20.859375 17.476562 21.441406 C 17.574219 22.144531 17.328125 22.886719 16.820312 23.386719 C 15.21875 25.1875 12.027344 23.140625 13.003906 20.929688 C 13.523438 19.265625 15.6875 19.074219 16.808594 20.066406 Z M 2.046875 18.460938 C -0.683594 21.191406 -0.683594 25.582031 2.046875 28.3125 L 3.6875 29.953125 C 6.417969 32.683594 10.808594 32.683594 13.539062 29.953125 Z M 2.046875 18.460938 "/>
</g>
</svg>
