<?xml version="1.0" encoding="UTF-8"?>
<svg xmlns="http://www.w3.org/2000/svg" xmlns:xlink="http://www.w3.org/1999/xlink" width="32" height="32" viewBox="0 0 32 32" version="1.1">
<g id="surface1">
<path style=" stroke:none;fill-rule:nonzero;fill:rgb(100%,100%,100%);fill-opacity:1;" d="M 16 17.332031 L 24 29.332031 L 8 29.332031 Z M 14.585938 14.078125 C 14.050781 13.582031 13.832031 12.832031 14.011719 12.121094 C 14.191406 11.414062 14.746094 10.859375 15.457031 10.679688 C 16.164062 10.496094 16.914062 10.71875 17.414062 11.253906 C 18.148438 12.042969 18.125 13.269531 17.363281 14.03125 C 16.601562 14.792969 15.375 14.8125 14.585938 14.078125 Z M 7.042969 3.710938 L 8.929688 5.597656 C 5.023438 9.503906 5.023438 15.832031 8.929688 19.738281 L 7.042969 21.625 C 2.09375 16.679688 2.09375 8.65625 7.042969 3.710938 Z M 24.957031 3.710938 C 29.902344 8.65625 29.902344 16.679688 24.957031 21.625 L 23.070312 19.738281 C 26.972656 15.832031 26.972656 9.503906 23.070312 5.597656 Z M 10.8125 7.480469 L 12.699219 9.367188 C 10.875 11.1875 10.875 14.144531 12.699219 15.964844 L 10.8125 17.851562 C 7.949219 14.988281 7.949219 10.34375 10.8125 7.480469 Z M 21.183594 7.480469 C 24.046875 10.34375 24.046875 14.988281 21.183594 17.851562 L 19.296875 15.964844 C 21.121094 14.144531 21.121094 11.1875 19.296875 9.367188 Z M 21.183594 7.480469 "/>
</g>
</svg>
