<?xml version="1.0" encoding="UTF-8"?>
<svg xmlns="http://www.w3.org/2000/svg" xmlns:xlink="http://www.w3.org/1999/xlink" width="32" height="32" viewBox="0 0 32 32" version="1.1">
<g id="surface1">
<path style=" stroke:none;fill-rule:nonzero;fill:rgb(100%,100%,100%);fill-opacity:1;" d="M 16.488281 17.820312 L 18.855469 19.1875 C 17.441406 22.316406 17.292969 25.871094 18.441406 29.109375 C 17.636719 29.257812 16.820312 29.332031 16 29.332031 C 14.109375 29.335938 12.242188 28.9375 10.519531 28.160156 Z M 21.175781 20.53125 L 26.824219 23.789062 C 25.351562 25.832031 23.335938 27.414062 21.003906 28.363281 C 20.117188 25.964844 20.121094 23.332031 21.015625 20.9375 Z M 11.8125 15.121094 L 14.179688 16.488281 L 8.210938 26.820312 C 6.003906 25.230469 4.335938 23.003906 3.425781 20.441406 C 6.648438 19.847656 9.535156 18.082031 11.539062 15.492188 Z M 29.207031 14.15625 C 29.292969 14.757812 29.335938 15.375 29.335938 16 C 29.335938 17.890625 28.9375 19.757812 28.160156 21.480469 L 22.511719 18.21875 C 24.101562 16.121094 26.414062 14.6875 29 14.191406 Z M 3.839844 10.519531 L 9.488281 13.78125 C 7.855469 15.9375 5.460938 17.390625 2.792969 17.847656 C 2.707031 17.234375 2.667969 16.617188 2.667969 16 C 2.667969 14.046875 3.085938 12.191406 3.839844 10.519531 Z M 23.789062 5.175781 C 25.996094 6.765625 27.667969 8.992188 28.574219 11.558594 C 25.355469 12.152344 22.464844 13.917969 20.460938 16.511719 L 20.1875 16.878906 L 17.820312 15.511719 L 23.789062 5.179688 Z M 16 2.667969 C 17.953125 2.667969 19.808594 3.085938 21.480469 3.839844 L 15.511719 14.179688 L 13.144531 12.8125 C 14.558594 9.683594 14.707031 6.128906 13.558594 2.890625 C 14.363281 2.742188 15.179688 2.664062 16 2.667969 Z M 10.996094 3.640625 C 11.882812 6.035156 11.878906 8.671875 10.984375 11.066406 L 10.824219 11.46875 L 5.175781 8.210938 C 6.589844 6.25 8.507812 4.707031 10.730469 3.75 L 10.996094 3.636719 Z M 10.996094 3.640625 "/>
</g>
</svg>
