<?xml version="1.0" encoding="UTF-8"?>
<svg xmlns="http://www.w3.org/2000/svg" xmlns:xlink="http://www.w3.org/1999/xlink" width="32" height="32" viewBox="0 0 32 32" version="1.1">
<g id="surface1">
<path style=" stroke:none;fill-rule:nonzero;fill:rgb(100%,100%,100%);fill-opacity:1;" d="M 10 14.667969 C 11.472656 14.667969 12.667969 13.472656 12.667969 12 C 12.667969 10.527344 11.472656 9.332031 10 9.332031 L 4 9.332031 L 4 14.667969 Z M 11.332031 17.332031 L 4 17.332031 L 4 22.667969 L 11.332031 22.667969 C 12.804688 22.667969 14 21.472656 14 20 C 14 18.527344 12.804688 17.332031 11.332031 17.332031 Z M 14.085938 15.429688 C 16.136719 16.664062 17.117188 19.117188 16.472656 21.425781 C 15.832031 23.738281 13.730469 25.335938 11.332031 25.332031 L 1.332031 25.332031 L 1.332031 6.667969 L 10 6.667969 C 12.074219 6.667969 13.957031 7.867188 14.832031 9.746094 C 15.710938 11.625 15.417969 13.84375 14.085938 15.429688 Z M 20.667969 8 L 28 8 L 28 10 L 20.667969 10 Z M 30.667969 19.332031 L 20.667969 19.332031 L 20.667969 19.667969 C 20.667969 21.363281 21.828125 22.835938 23.476562 23.234375 C 25.125 23.628906 26.828125 22.84375 27.601562 21.332031 L 30.445312 21.332031 C 29.605469 24.390625 26.636719 26.355469 23.496094 25.933594 C 20.355469 25.511719 18.007812 22.835938 18 19.667969 L 18 17.667969 C 18 14.167969 20.835938 11.332031 24.332031 11.332031 C 27.832031 11.332031 30.667969 14.167969 30.667969 17.667969 Z M 27.863281 16.667969 C 27.414062 15.089844 25.972656 14.003906 24.332031 14.003906 C 22.695312 14.003906 21.253906 15.089844 20.804688 16.667969 Z M 27.863281 16.667969 "/>
</g>
</svg>
