<?xml version="1.0" encoding="UTF-8"?>
<svg xmlns="http://www.w3.org/2000/svg" xmlns:xlink="http://www.w3.org/1999/xlink" width="32" height="32" viewBox="0 0 32 32" version="1.1">
<g id="surface1">
<path style=" stroke:none;fill-rule:nonzero;fill:rgb(100%,100%,100%);fill-opacity:1;" d="M 18.828125 13.171875 C 24.554688 18.898438 27.933594 24.808594 26.371094 26.371094 C 25.738281 27.003906 24.390625 26.824219 22.628906 26.007812 C 18.28125 28.882812 12.578125 28.625 8.507812 25.375 L 8.457031 25.429688 L 6.570312 23.542969 L 6.621094 23.488281 C 3.375 19.417969 3.121094 13.71875 5.992188 9.375 C 5.175781 7.609375 4.996094 6.261719 5.628906 5.628906 C 7.132812 4.125 12.664062 7.199219 18.183594 12.539062 Z M 16.941406 15.058594 C 14.429688 12.546875 11.828125 10.457031 9.648438 9.160156 L 9.398438 9.398438 C 6.121094 12.679688 5.746094 17.871094 8.523438 21.589844 L 10.984375 19.128906 C 10.671875 17.960938 11.183594 16.730469 12.226562 16.128906 C 13.273438 15.527344 14.59375 15.699219 15.445312 16.550781 C 16.300781 17.40625 16.472656 18.726562 15.871094 19.769531 C 15.269531 20.816406 14.039062 21.324219 12.875 21.015625 L 10.410156 23.476562 C 14.125 26.253906 19.320312 25.882812 22.601562 22.601562 L 22.839844 22.347656 L 22.769531 22.230469 C 21.464844 20.078125 19.40625 17.523438 16.941406 15.058594 Z M 26.371094 5.628906 C 26.90625 6.164062 27.191406 6.90625 27.148438 7.664062 C 27.105469 8.417969 26.746094 9.125 26.152344 9.597656 C 28.253906 12.9375 28.585938 17.09375 27.035156 20.722656 C 26.484375 19.660156 25.867188 18.632812 25.1875 17.648438 C 25.730469 14.640625 24.761719 11.558594 22.601562 9.398438 C 20.441406 7.238281 17.359375 6.269531 14.351562 6.8125 C 13.367188 6.132812 12.339844 5.515625 11.277344 4.964844 C 14.90625 3.414062 19.066406 3.746094 22.40625 5.847656 C 22.878906 5.257812 23.582031 4.894531 24.339844 4.855469 C 25.09375 4.8125 25.835938 5.09375 26.371094 5.628906 Z M 26.371094 5.628906 "/>
</g>
</svg>
