<?xml version="1.0" encoding="UTF-8"?>
<svg xmlns="http://www.w3.org/2000/svg" xmlns:xlink="http://www.w3.org/1999/xlink" width="32" height="32" viewBox="0 0 32 32" version="1.1">
<g id="surface1">
<path style=" stroke:none;fill-rule:nonzero;fill:rgb(100%,100%,100%);fill-opacity:1;" d="M 2.003906 0 L 0.00390625 6 L 22 6 L 22 8 L 2.003906 8 L 0.00390625 14 L 22 14 L 22 16 L 2.003906 16 L 0.00390625 22 L 22 22 L 22 24 L 2.003906 24 L 0.00390625 30 L 32.003906 30 L 30.003906 24 L 28.011719 24 L 28.011719 22 L 32.003906 22 L 30.003906 16 L 28.011719 16 L 28.011719 14 L 32.003906 14 L 30.003906 8 L 28.011719 8 L 28.011719 6 L 32.003906 6 L 30.003906 0 L 26.003906 0 L 26.003906 24.996094 C 26.003906 25.648438 25.820312 26.226562 25.589844 26.574219 C 25.359375 26.921875 25.152344 27.003906 25 27.003906 C 24.847656 27.003906 24.652344 26.921875 24.421875 26.574219 C 24.191406 26.226562 24.011719 25.648438 24.011719 24.996094 L 24.011719 0 Z M 2.003906 0 "/>
</g>
</svg>
