<?xml version="1.0" encoding="UTF-8"?>
<svg xmlns="http://www.w3.org/2000/svg" xmlns:xlink="http://www.w3.org/1999/xlink" width="32" height="32" viewBox="0 0 32 32" version="1.1">
<g id="surface1">
<path style=" stroke:none;fill-rule:nonzero;fill:rgb(100%,100%,100%);fill-opacity:1;" d="M 5.332031 21.332031 L 5.332031 26.667969 L 10.667969 26.667969 L 10.667969 29.332031 L 2.667969 29.332031 L 2.667969 21.332031 Z M 29.332031 21.332031 L 29.332031 29.332031 L 21.332031 29.332031 L 21.332031 26.667969 L 26.667969 26.667969 L 26.667969 21.332031 Z M 10 9.332031 C 10 12.132812 11.9375 14.5625 14.667969 15.183594 L 14.667969 22.667969 L 17.332031 22.667969 L 17.335938 15.183594 C 20.0625 14.558594 22 12.132812 22 9.332031 L 24.667969 9.332031 C 24.667969 12.566406 22.867188 15.53125 20 17.023438 L 20 25.332031 L 12 25.332031 L 12 17.023438 C 9.132812 15.53125 7.332031 12.566406 7.332031 9.332031 Z M 16 6.667969 C 17.839844 6.667969 19.332031 8.160156 19.332031 10 C 19.332031 11.839844 17.839844 13.332031 16 13.332031 C 14.160156 13.332031 12.667969 11.839844 12.667969 10 C 12.667969 8.160156 14.160156 6.667969 16 6.667969 Z M 10.667969 2.667969 L 10.667969 5.332031 L 5.332031 5.332031 L 5.332031 10.667969 L 2.667969 10.667969 L 2.667969 2.667969 Z M 29.332031 2.667969 L 29.332031 10.667969 L 26.667969 10.667969 L 26.667969 5.332031 L 21.332031 5.332031 L 21.332031 2.667969 Z M 29.332031 2.667969 "/>
</g>
</svg>
