<?xml version="1.0" encoding="UTF-8"?>
<svg xmlns="http://www.w3.org/2000/svg" xmlns:xlink="http://www.w3.org/1999/xlink" width="32" height="32" viewBox="0 0 32 32" version="1.1">
<g id="surface1">
<path style=" stroke:none;fill-rule:nonzero;fill:rgb(100%,100%,100%);fill-opacity:1;" d="M 5.332031 24 L 5.332031 19.066406 C 5.332031 17.960938 4.4375 17.066406 3.332031 17.066406 L 2.667969 17.066406 L 2.667969 14.933594 L 3.332031 14.933594 C 4.4375 14.933594 5.332031 14.039062 5.332031 12.933594 L 5.332031 8 C 5.332031 5.789062 7.125 4 9.332031 4 L 10.667969 4 L 10.667969 6.667969 L 9.332031 6.667969 C 8.597656 6.667969 8 7.261719 8 8 L 8 13.464844 C 8 14.617188 7.261719 15.640625 6.167969 16 C 7.261719 16.359375 8 17.382812 8 18.535156 L 8 24 C 8 24.738281 8.597656 25.332031 9.332031 25.332031 L 10.667969 25.332031 L 10.667969 28 L 9.332031 28 C 7.125 28 5.332031 26.210938 5.332031 24 Z M 26.667969 19.066406 L 26.667969 24 C 26.667969 26.210938 24.875 28 22.667969 28 L 21.332031 28 L 21.332031 25.332031 L 22.667969 25.332031 C 23.402344 25.332031 24 24.738281 24 24 L 24 18.535156 C 24 17.382812 24.738281 16.359375 25.832031 16 C 24.738281 15.640625 24 14.617188 24 13.464844 L 24 8 C 24 7.261719 23.402344 6.667969 22.667969 6.667969 L 21.332031 6.667969 L 21.332031 4 L 22.667969 4 C 24.875 4 26.667969 5.789062 26.667969 8 L 26.667969 12.933594 C 26.667969 14.039062 27.5625 14.933594 28.667969 14.933594 L 29.332031 14.933594 L 29.332031 17.066406 L 28.667969 17.066406 C 27.5625 17.066406 26.667969 17.960938 26.667969 19.066406 Z M 26.667969 19.066406 "/>
</g>
</svg>
