<?xml version="1.0" encoding="UTF-8"?>
<svg xmlns="http://www.w3.org/2000/svg" xmlns:xlink="http://www.w3.org/1999/xlink" width="32" height="32" viewBox="0 0 32 32" version="1.1">
<g id="surface1">
<path style=" stroke:none;fill-rule:nonzero;fill:rgb(100%,100%,100%);fill-opacity:1;" d="M 21.332031 21.332031 C 23.542969 21.332031 25.332031 23.125 25.332031 25.332031 C 25.332031 27.542969 23.542969 29.332031 21.332031 29.332031 C 19.125 29.332031 17.332031 27.542969 17.332031 25.332031 C 17.332031 23.125 19.125 21.332031 21.332031 21.332031 Z M 8 16 C 10.945312 16 13.332031 18.386719 13.332031 21.332031 C 13.332031 24.28125 10.945312 26.667969 8 26.667969 C 5.054688 26.667969 2.667969 24.28125 2.667969 21.332031 C 2.667969 18.386719 5.054688 16 8 16 Z M 21.332031 24 C 20.597656 24 20 24.597656 20 25.332031 C 20 26.070312 20.597656 26.667969 21.332031 26.667969 C 22.070312 26.667969 22.667969 26.070312 22.667969 25.332031 C 22.667969 24.597656 22.070312 24 21.332031 24 Z M 8 18.667969 C 6.527344 18.667969 5.332031 19.859375 5.332031 21.332031 C 5.332031 22.808594 6.527344 24 8 24 C 9.472656 24 10.667969 22.808594 10.667969 21.332031 C 10.667969 19.859375 9.472656 18.667969 8 18.667969 Z M 19.332031 2.667969 C 23.382812 2.667969 26.667969 5.949219 26.667969 10 C 26.667969 14.050781 23.382812 17.332031 19.332031 17.332031 C 15.28125 17.332031 12 14.050781 12 10 C 12 5.949219 15.28125 2.667969 19.332031 2.667969 Z M 19.332031 5.332031 C 16.757812 5.332031 14.667969 7.421875 14.667969 10 C 14.667969 12.578125 16.757812 14.667969 19.332031 14.667969 C 21.910156 14.667969 24 12.578125 24 10 C 24 7.421875 21.910156 5.332031 19.332031 5.332031 Z M 19.332031 5.332031 "/>
</g>
</svg>
