<?xml version="1.0" encoding="UTF-8"?>
<svg xmlns="http://www.w3.org/2000/svg" xmlns:xlink="http://www.w3.org/1999/xlink" width="32" height="32" viewBox="0 0 32 32" version="1.1">
<g id="surface1">
<path style=" stroke:none;fill-rule:nonzero;fill:rgb(100%,100%,100%);fill-opacity:1;" d="M 4 25.332031 L 4 7.601562 C 4 7.039062 4.351562 6.539062 4.878906 6.347656 L 17.773438 1.660156 C 17.976562 1.585938 18.203125 1.613281 18.382812 1.738281 C 18.5625 1.863281 18.667969 2.066406 18.667969 2.285156 L 18.667969 8.890625 L 27.089844 11.695312 C 27.632812 11.878906 28 12.386719 28 12.960938 L 28 25.332031 L 30.667969 25.332031 L 30.667969 28 L 1.332031 28 L 1.332031 25.332031 Z M 6.667969 25.332031 L 16 25.332031 L 16 5.140625 L 6.667969 8.535156 Z M 25.332031 25.332031 L 25.332031 13.921875 L 18.667969 11.699219 L 18.667969 25.332031 Z M 25.332031 25.332031 "/>
</g>
</svg>
