<?xml version="1.0" encoding="UTF-8"?>
<svg xmlns="http://www.w3.org/2000/svg" xmlns:xlink="http://www.w3.org/1999/xlink" width="32" height="32" viewBox="0 0 32 32" version="1.1">
<g id="surface1">
<path style=" stroke:none;fill-rule:evenodd;fill:rgb(100%,100%,100%);fill-opacity:1;" d="M 14.636719 11.859375 C 14.625 11.796875 14.621094 11.738281 14.621094 11.679688 C 14.617188 11.414062 14.722656 11.160156 14.910156 10.96875 C 15.097656 10.78125 15.355469 10.675781 15.621094 10.675781 C 17.742188 10.675781 19.773438 11.515625 21.273438 13.015625 C 22.773438 14.515625 23.613281 16.546875 23.613281 18.667969 C 23.613281 19.214844 23.175781 19.660156 22.628906 19.667969 C 22.363281 19.667969 22.109375 19.5625 21.921875 19.375 C 21.734375 19.1875 21.625 18.933594 21.628906 18.667969 C 21.628906 17.074219 20.992188 15.554688 19.867188 14.429688 C 18.738281 13.304688 17.210938 12.679688 15.621094 12.679688 C 15.136719 12.679688 14.722656 12.332031 14.636719 11.859375 Z M 14.636719 11.859375 "/>
<path style=" stroke:none;fill-rule:evenodd;fill:rgb(100%,100%,100%);fill-opacity:1;" d="M 14.648438 7.851562 C 14.636719 7.792969 14.632812 7.730469 14.628906 7.671875 C 14.628906 7.40625 14.734375 7.152344 14.921875 6.964844 C 15.109375 6.773438 15.363281 6.667969 15.628906 6.667969 C 18.8125 6.667969 21.859375 7.941406 24.109375 10.191406 C 26.359375 12.441406 27.621094 15.496094 27.621094 18.679688 C 27.617188 19.230469 27.167969 19.667969 26.617188 19.667969 C 26.078125 19.660156 25.640625 19.21875 25.632812 18.675781 C 25.632812 16.023438 24.578125 13.484375 22.699219 11.609375 C 20.824219 9.730469 18.285156 8.671875 15.632812 8.671875 C 15.148438 8.671875 14.734375 8.324219 14.648438 7.851562 Z M 14.648438 7.851562 "/>
<path style=" stroke:none;fill-rule:evenodd;fill:rgb(100%,100%,100%);fill-opacity:1;" d="M 14.648438 3.859375 C 14.636719 3.796875 14.628906 3.730469 14.628906 3.667969 C 14.628906 3.402344 14.730469 3.148438 14.921875 2.960938 C 15.109375 2.769531 15.363281 2.664062 15.628906 2.664062 C 19.871094 2.664062 23.941406 4.351562 26.941406 7.351562 C 29.941406 10.355469 31.625 14.433594 31.625 18.675781 C 31.625 18.941406 31.519531 19.199219 31.332031 19.386719 C 31.144531 19.574219 30.890625 19.679688 30.625 19.679688 C 30.359375 19.679688 30.105469 19.574219 29.917969 19.386719 C 29.730469 19.199219 29.625 18.945312 29.625 18.679688 C 29.625 14.964844 28.15625 11.394531 25.53125 8.769531 C 22.90625 6.144531 19.34375 4.667969 15.628906 4.667969 C 15.152344 4.667969 14.742188 4.328125 14.648438 3.859375 Z M 14.648438 3.859375 "/>
<path style=" stroke:none;fill-rule:nonzero;fill:rgb(100%,100%,100%);fill-opacity:1;" d="M 0.375 25.5625 L 2.40625 25.261719 C 2.460938 25.890625 2.632812 26.375 2.925781 26.710938 C 3.21875 27.042969 3.5625 27.210938 3.957031 27.210938 C 4.386719 27.210938 4.753906 27.011719 5.050781 26.617188 C 5.347656 26.222656 5.496094 25.675781 5.496094 24.976562 C 5.496094 24.328125 5.355469 23.816406 5.066406 23.445312 C 4.78125 23.074219 4.4375 22.890625 4.027344 22.890625 C 3.761719 22.890625 3.441406 22.953125 3.070312 23.082031 L 3.300781 20.996094 C 3.839844 21.007812 4.269531 20.859375 4.585938 20.558594 C 4.894531 20.253906 5.050781 19.824219 5.050781 19.273438 C 5.050781 18.808594 4.9375 18.449219 4.710938 18.1875 C 4.488281 17.925781 4.199219 17.796875 3.847656 17.796875 C 3.496094 17.796875 3.1875 17.945312 2.925781 18.25 C 2.671875 18.546875 2.519531 18.992188 2.46875 19.582031 L 0.527344 19.179688 C 0.730469 17.960938 1.121094 17.070312 1.703125 16.519531 C 2.289062 15.964844 3.023438 15.691406 3.910156 15.691406 C 4.90625 15.691406 5.695312 16.046875 6.28125 16.757812 C 6.871094 17.46875 7.164062 18.253906 7.164062 19.117188 C 7.164062 19.699219 7.03125 20.226562 6.761719 20.695312 C 6.5 21.160156 6.105469 21.570312 5.578125 21.925781 C 6.191406 22.089844 6.691406 22.449219 7.074219 23.007812 C 7.460938 23.566406 7.65625 24.265625 7.65625 25.105469 C 7.65625 26.328125 7.292969 27.339844 6.5625 28.140625 C 5.839844 28.9375 4.976562 29.335938 3.972656 29.335938 C 3.015625 29.335938 2.199219 28.996094 1.53125 28.324219 C 0.871094 27.648438 0.484375 26.726562 0.375 25.5625 Z M 0.375 25.5625 "/>
<path style=" stroke:none;fill-rule:nonzero;fill:rgb(100%,100%,100%);fill-opacity:1;" d="M 14.546875 24.195312 L 14.546875 21.941406 L 19.3125 21.941406 L 19.3125 27.265625 C 18.832031 27.832031 18.152344 28.316406 17.273438 28.722656 C 16.390625 29.128906 15.507812 29.335938 14.621094 29.335938 C 13.539062 29.335938 12.585938 29.070312 11.757812 28.542969 C 10.929688 28.007812 10.273438 27.210938 9.789062 26.152344 C 9.308594 25.089844 9.070312 23.839844 9.070312 22.40625 C 9.070312 20.9375 9.3125 19.679688 9.796875 18.632812 C 10.289062 17.589844 10.925781 16.808594 11.703125 16.292969 C 12.488281 15.773438 13.421875 15.515625 14.511719 15.515625 C 15.816406 15.515625 16.863281 15.851562 17.644531 16.519531 C 18.4375 17.179688 18.941406 18.15625 19.167969 19.445312 L 16.980469 19.945312 C 16.816406 19.257812 16.515625 18.734375 16.078125 18.371094 C 15.640625 18.003906 15.117188 17.824219 14.511719 17.824219 C 13.570312 17.824219 12.804688 18.191406 12.222656 18.925781 C 11.640625 19.65625 11.347656 20.769531 11.347656 22.269531 C 11.347656 23.878906 11.664062 25.105469 12.296875 25.945312 C 12.835938 26.667969 13.570312 27.027344 14.492188 27.027344 C 14.921875 27.027344 15.371094 26.929688 15.832031 26.726562 C 16.300781 26.519531 16.714844 26.242188 17.082031 25.890625 L 17.082031 24.195312 Z M 14.546875 24.195312 "/>
</g>
</svg>
