<?xml version="1.0" encoding="UTF-8"?>
<svg xmlns="http://www.w3.org/2000/svg" xmlns:xlink="http://www.w3.org/1999/xlink" width="32" height="32" viewBox="0 0 32 32" version="1.1">
<g id="surface1">
<path style=" stroke:none;fill-rule:evenodd;fill:rgb(100%,100%,100%);fill-opacity:1;" d="M 6 0 L 6 4 C 3.785156 4 2 5.785156 2 8 L 30 8 C 30 5.785156 28.214844 4 26 4 L 26 0 L 22 0 L 22 4 L 10 4 L 10 0 Z M 2 10 L 2 28 C 2 30.214844 3.785156 32 6 32 L 26 32 C 28.214844 32 30 30.214844 30 28 L 30 10 Z M 6 14 L 12 14 L 12 20 L 6 20 Z M 6 14 "/>
</g>
</svg>
