<?xml version="1.0" encoding="UTF-8"?>
<svg xmlns="http://www.w3.org/2000/svg" xmlns:xlink="http://www.w3.org/1999/xlink" width="32" height="32" viewBox="0 0 32 32" version="1.1">
<g id="surface1">
<path style=" stroke:none;fill-rule:nonzero;fill:rgb(100%,100%,100%);fill-opacity:1;" d="M 12 1.332031 L 12 4 L 20 4 L 20 1.332031 L 22.667969 1.332031 L 22.667969 4 L 28 4 C 28.738281 4 29.332031 4.597656 29.332031 5.332031 L 29.332031 26.667969 C 29.332031 27.402344 28.738281 28 28 28 L 4 28 C 3.261719 28 2.667969 27.402344 2.667969 26.667969 L 2.667969 5.332031 C 2.667969 4.597656 3.261719 4 4 4 L 9.332031 4 L 9.332031 1.332031 Z M 26.667969 10.667969 L 5.332031 10.667969 L 5.332031 25.332031 L 26.667969 25.332031 Z M 20.046875 13.515625 L 21.933594 15.398438 L 15.332031 22 L 10.617188 17.285156 L 12.507812 15.398438 L 15.335938 18.230469 L 20.050781 13.515625 Z M 20.046875 13.515625 "/>
</g>
</svg>
