<?xml version="1.0" encoding="UTF-8"?>
<svg xmlns="http://www.w3.org/2000/svg" xmlns:xlink="http://www.w3.org/1999/xlink" width="32" height="32" viewBox="0 0 32 32" version="1.1">
<g id="surface1">
<path style=" stroke:none;fill-rule:nonzero;fill:rgb(100%,100%,100%);fill-opacity:1;" d="M 23.742188 1.09375 C 23.5 1.109375 23.273438 1.214844 23.101562 1.386719 L 20.6875 3.800781 L 17.140625 2.746094 C 17.0625 2.722656 16.980469 2.710938 16.898438 2.710938 C 16.476562 2.6875 16.089844 2.933594 15.925781 3.320312 C 15.761719 3.710938 15.859375 4.160156 16.167969 4.445312 L 18.179688 6.308594 L 16.449219 8.039062 L 14.210938 5.742188 C 14.039062 5.570312 13.808594 5.464844 13.5625 5.449219 C 13.523438 5.445312 13.484375 5.445312 13.445312 5.449219 C 13.03125 5.46875 12.667969 5.746094 12.542969 6.144531 L 11.167969 10.597656 L 8.835938 12.914062 C 8.644531 13.101562 8.539062 13.359375 8.539062 13.628906 C 8.539062 13.894531 8.644531 14.152344 8.835938 14.339844 L 9.5 15 L 0.449219 24.035156 C 0.257812 24.222656 0.152344 24.480469 0.152344 24.75 C 0.152344 25.015625 0.257812 25.273438 0.449219 25.460938 L 5.597656 30.609375 C 5.785156 30.800781 6.042969 30.910156 6.3125 30.910156 C 6.578125 30.910156 6.835938 30.800781 7.023438 30.609375 L 16.097656 21.382812 L 17.011719 22.304688 C 17.402344 22.691406 18.03125 22.691406 18.421875 22.304688 L 20.65625 20.070312 L 26.304688 19.746094 C 26.699219 19.722656 27.042969 19.464844 27.179688 19.09375 C 27.316406 18.722656 27.222656 18.308594 26.9375 18.03125 L 23.039062 14.359375 L 26.386719 10.96875 L 30.175781 14.386719 C 30.507812 14.6875 31 14.730469 31.378906 14.496094 C 31.757812 14.257812 31.933594 13.796875 31.808594 13.367188 L 29.964844 7.019531 C 29.921875 6.863281 29.835938 6.714844 29.722656 6.597656 L 24.507812 1.386719 C 24.335938 1.214844 24.105469 1.109375 23.859375 1.09375 C 23.820312 1.089844 23.78125 1.089844 23.742188 1.09375 Z M 23.796875 3.507812 L 28.117188 7.828125 L 28.894531 10.550781 L 27.019531 8.832031 C 26.617188 8.46875 26 8.492188 25.625 8.882812 L 21.578125 12.976562 L 21.109375 12.539062 C 20.933594 12.371094 20.703125 12.273438 20.460938 12.265625 C 20.421875 12.265625 20.382812 12.265625 20.34375 12.269531 C 20.265625 12.277344 20.1875 12.292969 20.109375 12.316406 C 20.074219 12.328125 20.035156 12.34375 20 12.359375 C 19.964844 12.375 19.929688 12.394531 19.894531 12.414062 C 19.871094 12.429688 19.851562 12.445312 19.828125 12.460938 C 19.820312 12.46875 19.808594 12.476562 19.800781 12.480469 C 19.800781 12.484375 19.800781 12.484375 19.796875 12.484375 C 19.769531 12.507812 19.742188 12.535156 19.714844 12.558594 L 14.257812 18.144531 C 14.183594 18.222656 14.125 18.308594 14.078125 18.402344 C 14.074219 18.414062 14.066406 18.425781 14.0625 18.4375 C 14.0625 18.441406 14.0625 18.441406 14.0625 18.441406 C 14.046875 18.476562 14.03125 18.515625 14.019531 18.550781 C 14.007812 18.589844 14 18.628906 13.992188 18.664062 C 13.992188 18.667969 13.992188 18.667969 13.992188 18.667969 C 13.988281 18.707031 13.984375 18.746094 13.980469 18.78125 C 13.980469 18.785156 13.980469 18.785156 13.980469 18.785156 C 13.980469 18.824219 13.980469 18.863281 13.980469 18.902344 C 13.988281 19.023438 14.015625 19.140625 14.0625 19.246094 C 14.0625 19.25 14.066406 19.25 14.066406 19.25 C 14.082031 19.285156 14.097656 19.320312 14.117188 19.351562 C 14.117188 19.355469 14.121094 19.355469 14.121094 19.355469 C 14.140625 19.390625 14.160156 19.421875 14.183594 19.449219 C 14.183594 19.453125 14.1875 19.453125 14.1875 19.453125 C 14.214844 19.488281 14.242188 19.515625 14.269531 19.542969 C 14.273438 19.546875 14.273438 19.550781 14.277344 19.550781 L 14.679688 19.972656 L 13.394531 21.277344 L 11.894531 19.777344 L 10.339844 21.332031 L 11.855469 22.84375 L 9.980469 24.746094 L 8.429688 23.210938 L 6.890625 24.765625 L 8.4375 26.308594 L 6.292969 28.488281 L 2.570312 24.75 L 10.90625 16.410156 L 11.585938 17.074219 C 11.613281 17.105469 11.644531 17.128906 11.675781 17.152344 C 11.675781 17.152344 11.679688 17.152344 11.679688 17.152344 C 11.710938 17.175781 11.742188 17.199219 11.773438 17.21875 C 11.773438 17.21875 11.777344 17.21875 11.777344 17.21875 C 11.808594 17.242188 11.84375 17.257812 11.878906 17.273438 C 11.878906 17.273438 11.882812 17.273438 11.882812 17.273438 C 11.953125 17.304688 12.03125 17.328125 12.105469 17.339844 C 12.105469 17.339844 12.109375 17.339844 12.109375 17.339844 C 12.1875 17.355469 12.269531 17.359375 12.347656 17.355469 C 12.386719 17.355469 12.425781 17.347656 12.464844 17.339844 C 12.542969 17.328125 12.621094 17.304688 12.691406 17.269531 C 12.710938 17.261719 12.726562 17.253906 12.742188 17.242188 C 12.761719 17.234375 12.777344 17.226562 12.796875 17.214844 C 12.832031 17.195312 12.863281 17.171875 12.894531 17.148438 C 12.925781 17.125 12.953125 17.101562 12.980469 17.074219 L 18.566406 11.632812 C 18.625 11.578125 18.671875 11.515625 18.714844 11.445312 C 18.960938 11.054688 18.90625 10.542969 18.582031 10.210938 L 17.855469 9.464844 Z M 23.796875 3.507812 "/>
</g>
</svg>
