<?xml version="1.0" encoding="UTF-8"?>
<svg xmlns="http://www.w3.org/2000/svg" xmlns:xlink="http://www.w3.org/1999/xlink" width="32" height="32" viewBox="0 0 32 32" version="1.1">
<g id="surface1">
<path style=" stroke:none;fill-rule:nonzero;fill:rgb(100%,100%,100%);fill-opacity:1;" d="M 13.105469 6.667969 L 10.4375 9.332031 L 5.332031 9.332031 L 5.332031 25.332031 L 26.667969 25.332031 L 26.667969 9.332031 L 21.5625 9.332031 L 18.894531 6.667969 Z M 12 4 L 20 4 L 22.667969 6.667969 L 28 6.667969 C 28.738281 6.667969 29.332031 7.261719 29.332031 8 L 29.332031 26.667969 C 29.332031 27.402344 28.738281 28 28 28 L 4 28 C 3.261719 28 2.667969 27.402344 2.667969 26.667969 L 2.667969 8 C 2.667969 7.261719 3.261719 6.667969 4 6.667969 L 9.332031 6.667969 Z M 12.851562 10.039062 C 16.097656 8.496094 19.984375 9.53125 22.03125 12.480469 C 24.078125 15.433594 23.6875 19.4375 21.101562 21.933594 L 18.332031 16.800781 L 20.664062 16.800781 L 20.667969 16.667969 C 20.667969 15.085938 19.867188 13.609375 18.539062 12.75 C 17.210938 11.890625 15.539062 11.761719 14.097656 12.40625 Z M 19.089844 23.320312 C 15.855469 24.824219 12.003906 23.785156 9.96875 20.851562 C 7.9375 17.921875 8.308594 13.949219 10.847656 11.445312 L 13.667969 16.667969 L 11.332031 16.667969 C 11.332031 18.238281 12.121094 19.703125 13.433594 20.566406 C 14.746094 21.429688 16.40625 21.574219 17.847656 20.953125 Z M 19.089844 23.320312 "/>
</g>
</svg>
