<?xml version="1.0" encoding="UTF-8"?>
<svg xmlns="http://www.w3.org/2000/svg" xmlns:xlink="http://www.w3.org/1999/xlink" width="32" height="32" viewBox="0 0 32 32" version="1.1">
<g id="surface1">
<path style=" stroke:none;fill-rule:evenodd;fill:rgb(100%,100%,100%);fill-opacity:1;" d="M 9.453125 0.457031 C 8.714844 0.496094 8.039062 0.886719 7.628906 1.507812 L 1.675781 10.53125 C 0.984375 11.582031 1.269531 13.003906 2.3125 13.703125 L 8.632812 17.925781 L 5.136719 22.585938 C 4.9375 22.851562 4.6875 23.074219 4.394531 23.238281 C 4.246094 22.265625 3.40625 21.546875 2.417969 21.546875 L 0.417969 21.546875 L 0.417969 31.546875 L 2.417969 31.546875 C 3.523438 31.546875 4.417969 30.652344 4.417969 29.546875 L 5.644531 29.546875 C 7.398438 29.546875 9.058594 28.75 10.152344 27.382812 L 14.554688 21.878906 L 16.433594 23.132812 L 28.136719 12.378906 L 10.867188 0.847656 C 10.453125 0.566406 9.957031 0.429688 9.453125 0.457031 Z M 27.613281 16.671875 L 18.917969 24.792969 L 24.484375 28.507812 C 25.347656 29.082031 26.503906 28.84375 27.074219 27.980469 L 31.214844 21.703125 C 31.882812 20.695312 31.609375 19.335938 30.605469 18.667969 Z M 27.613281 16.671875 "/>
</g>
</svg>
