<?xml version="1.0" encoding="UTF-8"?>
<svg xmlns="http://www.w3.org/2000/svg" xmlns:xlink="http://www.w3.org/1999/xlink" width="32" height="32" viewBox="0 0 32 32" version="1.1">
<g id="surface1">
<path style=" stroke:none;fill-rule:nonzero;fill:rgb(100%,100%,100%);fill-opacity:1;" d="M 0.988281 2 C 0.441406 2.007812 -0.00390625 2.453125 0 3.003906 L 0 28.996094 C -0.00390625 29.546875 0.441406 29.992188 0.988281 30 L 30.996094 30 C 31.550781 30.003906 32.003906 29.550781 32 28.996094 C 32.003906 28.441406 31.550781 27.988281 30.996094 27.992188 L 1.992188 27.992188 L 1.992188 3.003906 C 1.996094 2.449219 1.542969 1.996094 0.988281 2 Z M 0.988281 2 "/>
<path style=" stroke:none;fill-rule:evenodd;fill:rgb(100%,100%,100%);fill-opacity:1;" d="M 10.5 12.996094 C 10.5 14.375 9.378906 15.496094 8 15.496094 C 6.621094 15.496094 5.5 14.375 5.5 12.996094 C 5.5 11.617188 6.621094 10.496094 8 10.496094 C 9.378906 10.496094 10.5 11.617188 10.5 12.996094 Z M 10.5 12.996094 "/>
<path style=" stroke:none;fill-rule:evenodd;fill:rgb(100%,100%,100%);fill-opacity:1;" d="M 20.234375 11.523438 C 20.234375 12.902344 19.117188 14.023438 17.734375 14.023438 C 16.355469 14.023438 15.234375 12.902344 15.234375 11.523438 C 15.234375 10.140625 16.355469 9.023438 17.734375 9.023438 C 19.117188 9.023438 20.234375 10.140625 20.234375 11.523438 Z M 20.234375 11.523438 "/>
<path style=" stroke:none;fill-rule:evenodd;fill:rgb(100%,100%,100%);fill-opacity:1;" d="M 28.5 7.996094 C 28.5 9.375 27.378906 10.496094 26 10.496094 C 24.621094 10.496094 23.5 9.375 23.5 7.996094 C 23.5 6.617188 24.621094 5.496094 26 5.496094 C 27.378906 5.496094 28.5 6.617188 28.5 7.996094 Z M 28.5 7.996094 "/>
<path style=" stroke:none;fill-rule:evenodd;fill:rgb(100%,100%,100%);fill-opacity:1;" d="M 16.410156 22 C 16.410156 23.378906 15.292969 24.5 13.910156 24.5 C 12.53125 24.5 11.410156 23.378906 11.410156 22 C 11.410156 20.621094 12.53125 19.5 13.910156 19.5 C 15.292969 19.5 16.410156 20.621094 16.410156 22 Z M 16.410156 22 "/>
<path style=" stroke:none;fill-rule:evenodd;fill:rgb(100%,100%,100%);fill-opacity:1;" d="M 27.410156 20 C 27.410156 21.378906 26.292969 22.5 24.910156 22.5 C 23.53125 22.5 22.410156 21.378906 22.410156 20 C 22.410156 18.621094 23.53125 17.5 24.910156 17.5 C 26.292969 17.5 27.410156 18.621094 27.410156 20 Z M 27.410156 20 "/>
</g>
</svg>
