<?xml version="1.0" encoding="UTF-8"?>
<svg xmlns="http://www.w3.org/2000/svg" xmlns:xlink="http://www.w3.org/1999/xlink" width="32" height="32" viewBox="0 0 32 32" version="1.1">
<g id="surface1">
<path style=" stroke:none;fill-rule:nonzero;fill:rgb(100%,100%,100%);fill-opacity:1;" d="M 18.667969 4 L 18.667969 6.667969 L 5.332031 6.667969 L 5.332031 24.511719 L 7.683594 22.667969 L 26.667969 22.667969 L 26.667969 13.332031 L 29.332031 13.332031 L 29.332031 24 C 29.332031 24.738281 28.738281 25.332031 28 25.332031 L 8.605469 25.332031 L 2.667969 30 L 2.667969 5.332031 C 2.667969 4.597656 3.261719 4 4 4 Z M 25.332031 4 L 25.332031 0 L 28 0 L 28 4 L 32 4 L 32 6.667969 L 28 6.667969 L 28 10.667969 L 25.332031 10.667969 L 25.332031 6.667969 L 21.332031 6.667969 L 21.332031 4 Z M 25.332031 4 "/>
</g>
</svg>
