<?xml version="1.0" encoding="UTF-8"?>
<svg xmlns="http://www.w3.org/2000/svg" xmlns:xlink="http://www.w3.org/1999/xlink" width="32" height="32" viewBox="0 0 32 32" version="1.1">
<g id="surface1">
<path style=" stroke:none;fill-rule:nonzero;fill:rgb(100%,100%,100%);fill-opacity:1;" d="M 9.332031 9.332031 L 9.332031 4 C 9.332031 3.261719 9.929688 2.667969 10.667969 2.667969 L 28 2.667969 C 28.738281 2.667969 29.332031 3.261719 29.332031 4 L 29.332031 21.332031 C 29.332031 22.070312 28.738281 22.667969 28 22.667969 L 22.667969 22.667969 L 22.667969 27.992188 C 22.667969 28.730469 22.066406 29.332031 21.324219 29.332031 L 4.007812 29.332031 C 3.652344 29.332031 3.3125 29.191406 3.058594 28.941406 C 2.808594 28.6875 2.667969 28.347656 2.667969 27.992188 L 2.671875 10.675781 C 2.671875 9.933594 3.269531 9.332031 4.011719 9.332031 Z M 12 9.332031 L 21.324219 9.332031 C 22.066406 9.332031 22.667969 9.933594 22.667969 10.675781 L 22.667969 20 L 26.667969 20 L 26.667969 5.332031 L 12 5.332031 Z M 20 12 L 5.335938 12 L 5.332031 26.667969 L 20 26.667969 Z M 11.335938 24 L 6.621094 19.285156 L 8.507812 17.398438 L 11.335938 20.230469 L 16.992188 14.570312 L 18.878906 16.457031 Z M 11.335938 24 "/>
</g>
</svg>
