<?xml version="1.0" encoding="UTF-8"?>
<svg xmlns="http://www.w3.org/2000/svg" xmlns:xlink="http://www.w3.org/1999/xlink" width="32" height="32" viewBox="0 0 32 32" version="1.1">
<g id="surface1">
<path style=" stroke:none;fill-rule:nonzero;fill:rgb(100%,100%,100%);fill-opacity:1;" d="M 2.003906 2.003906 L 2.003906 3.007812 L 1.996094 14.011719 L 13.996094 14.011719 L 13.996094 2.011719 Z M 3.996094 4.011719 L 11.996094 4.011719 L 11.996094 12.011719 L 3.996094 12.011719 Z M 3.996094 4.011719 "/>
<path style=" stroke:none;fill-rule:nonzero;fill:rgb(100%,100%,100%);fill-opacity:1;" d="M 13.914062 1.273438 L 8.617188 8.359375 L 5.425781 5.171875 L 4.007812 6.585938 L 8.820312 11.402344 L 15.511719 2.46875 Z M 13.914062 1.273438 "/>
<path style=" stroke:none;fill-rule:nonzero;fill:rgb(100%,100%,100%);fill-opacity:1;" d="M 2.003906 17.996094 L 2.003906 19 L 1.996094 30.003906 L 13.996094 30.003906 L 13.996094 18.003906 Z M 3.996094 20.003906 L 11.996094 20.003906 L 11.996094 28.003906 L 3.996094 28.003906 Z M 3.996094 20.003906 "/>
<path style=" stroke:none;fill-rule:nonzero;fill:rgb(100%,100%,100%);fill-opacity:1;" d="M 18.003906 5.996094 L 18.003906 7.996094 L 30.003906 7.996094 L 30.003906 5.996094 Z M 18.003906 5.996094 "/>
<path style=" stroke:none;fill-rule:nonzero;fill:rgb(100%,100%,100%);fill-opacity:1;" d="M 18.003906 21.996094 L 18.003906 23.996094 L 30.003906 23.996094 L 30.003906 21.996094 Z M 18.003906 21.996094 "/>
</g>
</svg>
