<?xml version="1.0" encoding="UTF-8"?>
<svg xmlns="http://www.w3.org/2000/svg" xmlns:xlink="http://www.w3.org/1999/xlink" width="32" height="32" viewBox="0 0 32 32" version="1.1">
<g id="surface1">
<path style=" stroke:none;fill-rule:nonzero;fill:rgb(100%,100%,100%);fill-opacity:1;" d="M 13.101562 29.015625 C 7.132812 27.695312 2.667969 22.371094 2.667969 16 C 2.667969 13.570312 3.316406 11.292969 4.453125 9.332031 L 10.164062 19.222656 C 11.476562 21.601562 14.101562 22.945312 16.796875 22.621094 L 13.105469 29.015625 Z M 16 29.332031 L 21.714844 19.433594 C 22.339844 18.398438 22.667969 17.210938 22.667969 16 C 22.667969 14.558594 22.199219 13.152344 21.332031 12 L 28.722656 12 C 29.121094 13.261719 29.332031 14.605469 29.332031 16 C 29.332031 23.363281 23.363281 29.332031 16 29.332031 Z M 19.429688 18.058594 C 18.699219 19.273438 17.382812 20.015625 15.964844 20 C 14.546875 19.988281 13.242188 19.226562 12.535156 18 L 12.496094 17.933594 C 11.5625 16.242188 11.972656 14.125 13.46875 12.902344 C 14.964844 11.679688 17.117188 11.703125 18.589844 12.953125 C 20.0625 14.203125 20.429688 16.328125 19.464844 18 Z M 6.175781 6.984375 C 8.699219 4.230469 12.265625 2.664062 16 2.667969 C 20.765625 2.664062 25.167969 5.207031 27.550781 9.332031 L 16 9.332031 C 13.332031 9.332031 10.917969 10.925781 9.867188 13.378906 Z M 6.175781 6.984375 "/>
</g>
</svg>
