<?xml version="1.0" encoding="UTF-8"?>
<svg xmlns="http://www.w3.org/2000/svg" xmlns:xlink="http://www.w3.org/1999/xlink" width="32" height="32" viewBox="0 0 32 32" version="1.1">
<g id="surface1">
<path style=" stroke:none;fill-rule:nonzero;fill:rgb(100%,100%,100%);fill-opacity:1;" d="M 12.667969 8 C 7.878906 8 4 11.878906 4 16.667969 C 4 21.453125 7.878906 25.332031 12.667969 25.332031 L 22 25.332031 C 24.296875 25.332031 26.390625 24.019531 27.390625 21.953125 C 28.394531 19.886719 28.128906 17.429688 26.710938 15.625 C 25.292969 13.820312 22.96875 12.984375 20.722656 13.46875 C 19.414062 10.167969 16.21875 8 12.667969 8 Z M 22 28 L 12.667969 28 C 7.214844 28 2.539062 24.117188 1.53125 18.757812 C 0.523438 13.402344 3.476562 8.085938 8.554688 6.105469 C 13.632812 4.128906 19.402344 6.042969 22.285156 10.671875 C 27.023438 10.8125 30.769531 14.738281 30.691406 19.476562 C 30.613281 24.214844 26.738281 28.011719 22 28 Z M 22 28 "/>
</g>
</svg>
