<?xml version="1.0" encoding="UTF-8"?>
<svg xmlns="http://www.w3.org/2000/svg" xmlns:xlink="http://www.w3.org/1999/xlink" width="32" height="32" viewBox="0 0 32 32" version="1.1">
<g id="surface1">
<path style=" stroke:none;fill-rule:nonzero;fill:rgb(100%,100%,100%);fill-opacity:1;" d="M 22.167969 4.175781 L 20.167969 6.175781 C 18.847656 5.617188 17.429688 5.332031 16 5.332031 C 10.105469 5.332031 5.332031 10.105469 5.332031 16 C 5.332031 21.894531 10.105469 26.667969 16 26.667969 C 21.894531 26.667969 26.667969 21.894531 26.667969 16 C 26.667969 14.570312 26.382812 13.152344 25.824219 11.832031 L 27.824219 9.832031 C 28.816406 11.738281 29.335938 13.851562 29.332031 16 C 29.332031 23.359375 23.359375 29.332031 16 29.332031 C 8.640625 29.332031 2.667969 23.359375 2.667969 16 C 2.667969 8.640625 8.640625 2.667969 16 2.667969 C 18.222656 2.667969 20.320312 3.214844 22.167969 4.175781 Z M 24.484375 5.628906 L 26.371094 7.515625 L 16 17.886719 L 14.113281 16 Z M 24.484375 5.628906 "/>
</g>
</svg>
