<?xml version="1.0" encoding="UTF-8"?>
<svg xmlns="http://www.w3.org/2000/svg" xmlns:xlink="http://www.w3.org/1999/xlink" width="32" height="32" viewBox="0 0 32 32" version="1.1">
<g id="surface1">
<path style=" stroke:none;fill-rule:nonzero;fill:rgb(100%,100%,100%);fill-opacity:1;" d="M 26.667969 29.332031 L 8 29.332031 C 5.789062 29.332031 4 27.542969 4 25.332031 L 4 6.667969 C 4 4.457031 5.789062 2.667969 8 2.667969 L 26.667969 2.667969 C 27.402344 2.667969 28 3.261719 28 4 L 28 28 C 28 28.738281 27.402344 29.332031 26.667969 29.332031 Z M 25.332031 26.667969 L 25.332031 24 L 8 24 C 7.261719 24 6.667969 24.597656 6.667969 25.332031 C 6.667969 26.070312 7.261719 26.667969 8 26.667969 Z M 16 13.332031 C 17.472656 13.332031 18.667969 12.140625 18.667969 10.667969 C 18.667969 9.195312 17.472656 8 16 8 C 14.527344 8 13.332031 9.195312 13.332031 10.667969 C 13.332031 12.140625 14.527344 13.332031 16 13.332031 Z M 12 18.667969 L 20 18.667969 C 20 16.457031 18.210938 14.667969 16 14.667969 C 13.789062 14.667969 12 16.457031 12 18.667969 Z M 12 18.667969 "/>
</g>
</svg>
