<?xml version="1.0" encoding="UTF-8"?>
<svg xmlns="http://www.w3.org/2000/svg" xmlns:xlink="http://www.w3.org/1999/xlink" width="32" height="32" viewBox="0 0 32 32" version="1.1">
<defs>
<filter id="alpha" filterUnits="objectBoundingBox" x="0%" y="0%" width="100%" height="100%">
  <feColorMatrix type="matrix" in="SourceGraphic" values="0 0 0 0 1 0 0 0 0 1 0 0 0 0 1 0 0 0 1 0"/>
</filter>
<mask id="mask0">
  <g filter="url(#alpha)">
<rect x="0" y="0" width="32" height="32" style="fill:rgb(100%,100%,100%);fill-opacity:0.996078;stroke:none;"/>
  </g>
</mask>
<clipPath id="clip1">
  <rect x="0" y="0" width="32" height="32"/>
</clipPath>
<g id="surface5" clip-path="url(#clip1)">
<path style=" stroke:none;fill-rule:evenodd;fill:rgb(100%,100%,100%);fill-opacity:1;" d="M 9.996094 5.992188 C 9.464844 5.996094 8.957031 6.207031 8.582031 6.585938 C 8.210938 6.960938 8 7.472656 8.003906 8.003906 L 8.003906 30 C 8.007812 31.097656 8.898438 31.988281 9.996094 31.992188 L 26 31.992188 C 27.105469 31.996094 28.003906 31.105469 28.007812 30 L 28.007812 8.003906 C 28.011719 7.46875 27.800781 6.957031 27.421875 6.578125 C 27.046875 6.203125 26.535156 5.988281 26 5.992188 Z M 10 8 L 26 8 L 26 30 L 10 30 Z M 10 8 "/>
</g>
<mask id="mask1">
  <g filter="url(#alpha)">
<rect x="0" y="0" width="32" height="32" style="fill:rgb(100%,100%,100%);fill-opacity:0.996078;stroke:none;"/>
  </g>
</mask>
<clipPath id="clip2">
  <rect x="0" y="0" width="32" height="32"/>
</clipPath>
<g id="surface8" clip-path="url(#clip2)">
<path style=" stroke:none;fill-rule:evenodd;fill:rgb(100%,100%,100%);fill-opacity:1;" d="M 3.996094 -0.0078125 C 3.464844 -0.00390625 2.957031 0.207031 2.582031 0.585938 C 2.210938 0.960938 2 1.472656 2.003906 2.003906 L 2.003906 24 C 2.007812 25.097656 2.898438 25.988281 3.996094 25.992188 L 6 25.992188 L 6 24 L 4 24 L 4 2 L 20 2 L 20 4 L 22.007812 4 L 22.007812 2.003906 C 22.011719 1.46875 21.800781 0.957031 21.421875 0.578125 C 21.046875 0.203125 20.535156 -0.0117188 20 -0.0078125 Z M 3.996094 -0.0078125 "/>
</g>
</defs>
<g id="surface1">
<use xlink:href="#surface5" mask="url(#mask0)"/>
<use xlink:href="#surface8" mask="url(#mask1)"/>
</g>
</svg>
