<?xml version="1.0" encoding="UTF-8"?>
<svg xmlns="http://www.w3.org/2000/svg" xmlns:xlink="http://www.w3.org/1999/xlink" width="32" height="32" viewBox="0 0 32 32" version="1.1">
<g id="surface1">
<path style=" stroke:none;fill-rule:nonzero;fill:rgb(100%,100%,100%);fill-opacity:1;" d="M 14.667969 28 C 14.667969 26.894531 13.769531 26 12.667969 26 C 11.5625 26 10.667969 26.894531 10.667969 28 L 4 28 C 3.261719 28 2.667969 27.402344 2.667969 26.667969 L 2.667969 5.332031 C 2.667969 4.597656 3.261719 4 4 4 L 10.667969 4 C 10.667969 5.105469 11.5625 6 12.667969 6 C 13.769531 6 14.667969 5.105469 14.667969 4 L 28 4 C 28.738281 4 29.332031 4.597656 29.332031 5.332031 L 29.332031 12.667969 C 27.492188 12.667969 26 14.160156 26 16 C 26 17.839844 27.492188 19.332031 29.332031 19.332031 L 29.332031 26.667969 C 29.332031 27.402344 28.738281 28 28 28 Z M 12.667969 14 C 13.769531 14 14.667969 13.105469 14.667969 12 C 14.667969 10.894531 13.769531 10 12.667969 10 C 11.5625 10 10.667969 10.894531 10.667969 12 C 10.667969 13.105469 11.5625 14 12.667969 14 Z M 12.667969 22 C 13.769531 22 14.667969 21.105469 14.667969 20 C 14.667969 18.894531 13.769531 18 12.667969 18 C 11.5625 18 10.667969 18.894531 10.667969 20 C 10.667969 21.105469 11.5625 22 12.667969 22 Z M 12.667969 22 "/>
</g>
</svg>
