<?xml version="1.0" encoding="UTF-8"?>
<svg xmlns="http://www.w3.org/2000/svg" xmlns:xlink="http://www.w3.org/1999/xlink" width="32" height="32" viewBox="0 0 32 32" version="1.1">
<g id="surface1">
<path style=" stroke:none;fill-rule:nonzero;fill:rgb(100%,100%,100%);fill-opacity:1;" d="M 24.207031 29.003906 C 27.023438 20.453125 23.109375 15.40625 12.207031 17.003906 L 12.207031 23.003906 L 2.207031 13.003906 L 12.207031 3.003906 L 12.207031 9.003906 C 29.6875 7.625 35.0625 21.921875 24.207031 29.003906 Z M 24.207031 29.003906 "/>
<path style=" stroke:none;fill-rule:nonzero;fill:rgb(100%,100%,100%);fill-opacity:1;" d="M 12.113281 2 C 12.394531 1.972656 12.675781 2.070312 12.882812 2.261719 C 13.089844 2.453125 13.207031 2.722656 13.207031 3.003906 L 13.207031 8.171875 C 21.53125 7.859375 27.441406 10.867188 29.726562 15.375 C 32.125 20.113281 30.5 26.09375 24.75 29.84375 C 24.394531 30.074219 23.933594 30.054688 23.597656 29.796875 C 23.265625 29.535156 23.128906 29.09375 23.257812 28.695312 C 24.605469 24.605469 24.285156 21.65625 22.625 19.878906 C 21.105469 18.25 17.75 17.691406 13.207031 18.152344 L 13.207031 23.007812 C 13.203125 23.414062 12.957031 23.777344 12.582031 23.929688 C 12.207031 24.082031 11.777344 23.992188 11.492188 23.703125 L 1.496094 13.707031 C 1.308594 13.519531 1.203125 13.265625 1.203125 13 C 1.203125 12.734375 1.308594 12.480469 1.496094 12.289062 L 11.492188 2.296875 C 11.660156 2.128906 11.878906 2.023438 12.113281 2 Z M 11.210938 5.410156 L 3.625 13 L 11.210938 20.601562 L 11.210938 17 C 11.210938 16.503906 11.578125 16.082031 12.070312 16.011719 C 17.6875 15.1875 21.765625 16.035156 24.085938 18.519531 C 25.839844 20.402344 25.355469 23.570312 24.882812 26.6875 C 28.457031 23.503906 29.632812 19.621094 27.941406 16.277344 C 25.996094 12.441406 20.753906 9.335938 12.289062 10.003906 C 12.011719 10.023438 11.734375 9.929688 11.53125 9.738281 C 11.324219 9.546875 11.210938 9.277344 11.210938 9 Z M 11.210938 5.410156 "/>
</g>
</svg>
