<?xml version="1.0" encoding="UTF-8"?>
<svg xmlns="http://www.w3.org/2000/svg" xmlns:xlink="http://www.w3.org/1999/xlink" width="32" height="32" viewBox="0 0 32 32" version="1.1">
<g id="surface1">
<path style=" stroke:none;fill-rule:nonzero;fill:rgb(100%,100%,100%);fill-opacity:1;" d="M 9.332031 5.332031 L 9.332031 2.667969 L 22.667969 2.667969 L 22.667969 5.332031 L 29.332031 5.332031 L 29.332031 8 L 26.667969 8 L 26.667969 28 C 26.667969 28.738281 26.070312 29.332031 25.332031 29.332031 L 6.667969 29.332031 C 5.929688 29.332031 5.332031 28.738281 5.332031 28 L 5.332031 8 L 2.667969 8 L 2.667969 5.332031 Z M 8 8 L 8 26.667969 L 24 26.667969 L 24 8 Z M 12 12 L 14.667969 12 L 14.667969 22.667969 L 12 22.667969 Z M 17.332031 12 L 20 12 L 20 22.667969 L 17.332031 22.667969 Z M 17.332031 12 "/>
</g>
</svg>
