<?xml version="1.0" encoding="UTF-8"?>
<svg xmlns="http://www.w3.org/2000/svg" xmlns:xlink="http://www.w3.org/1999/xlink" width="32" height="32" viewBox="0 0 32 32" version="1.1">
<g id="surface1">
<path style=" stroke:none;fill-rule:nonzero;fill:rgb(100%,100%,100%);fill-opacity:1;" d="M 14.667969 2.734375 L 14.667969 5.414062 C 9.40625 6.070312 5.332031 10.558594 5.332031 16 C 5.332031 21.890625 10.109375 26.667969 16 26.667969 C 18.464844 26.667969 20.734375 25.832031 22.542969 24.425781 L 24.4375 26.324219 C 22.140625 28.203125 19.199219 29.332031 16 29.332031 C 8.636719 29.332031 2.667969 23.363281 2.667969 16 C 2.667969 9.085938 7.929688 3.402344 14.667969 2.734375 Z M 29.265625 17.332031 C 29 20.015625 27.941406 22.460938 26.324219 24.4375 L 24.425781 22.542969 C 25.574219 21.066406 26.339844 19.28125 26.585938 17.332031 L 29.269531 17.332031 Z M 17.335938 2.734375 C 23.632812 3.359375 28.644531 8.367188 29.269531 14.667969 L 26.585938 14.667969 C 25.984375 9.84375 22.160156 6.019531 17.335938 5.414062 L 17.335938 2.730469 Z M 17.335938 2.734375 "/>
</g>
</svg>
