<?xml version="1.0" encoding="UTF-8"?>
<svg xmlns="http://www.w3.org/2000/svg" xmlns:xlink="http://www.w3.org/1999/xlink" width="32" height="32" viewBox="0 0 32 32" version="1.1">
<g id="surface1">
<path style=" stroke:none;fill-rule:nonzero;fill:rgb(100%,100%,100%);fill-opacity:1;" d="M 2.667969 28 L 2.667969 25.332031 L 5.332031 25.332031 L 5.332031 6.445312 C 5.332031 5.800781 5.792969 5.25 6.429688 5.132812 L 19.058594 2.839844 C 19.492188 2.757812 19.90625 3.046875 19.988281 3.484375 C 19.996094 3.53125 20 3.574219 20 3.625 L 20 5.332031 L 25.332031 5.332031 C 26.070312 5.332031 26.667969 5.929688 26.667969 6.667969 L 26.667969 25.332031 L 29.332031 25.332031 L 29.332031 28 L 24 28 L 24 8 L 20 8 L 20 28 Z M 16 14.667969 L 13.332031 14.667969 L 13.332031 17.332031 L 16 17.332031 Z M 16 14.667969 "/>
</g>
</svg>
