<?xml version="1.0" encoding="UTF-8"?>
<svg xmlns="http://www.w3.org/2000/svg" xmlns:xlink="http://www.w3.org/1999/xlink" width="32" height="32" viewBox="0 0 32 32" version="1.1">
<g id="surface1">
<path style=" stroke:none;fill-rule:nonzero;fill:rgb(100%,100%,100%);fill-opacity:1;" d="M 5.472656 0 C 5.125 3.015625 3.835938 5.304688 2.566406 7.382812 C 1.300781 9.460938 -0.0234375 11.320312 0 13.632812 C 0.0234375 15.890625 1.320312 17.375 2.65625 18.152344 C 3.96875 18.917969 5.289062 19.140625 6.132812 19.050781 C 6.976562 19.140625 8.300781 18.917969 9.613281 18.152344 C 10.949219 17.375 12.242188 15.890625 12.269531 13.632812 C 12.292969 11.320312 10.96875 9.460938 9.699219 7.382812 C 8.429688 5.304688 7.144531 3.015625 6.792969 0 Z M 5.472656 0 "/>
<path style=" stroke:none;fill-rule:nonzero;fill:rgb(100%,100%,100%);fill-opacity:1;" d="M 15.339844 12.929688 C 14.992188 15.945312 13.703125 18.234375 12.433594 20.3125 C 11.164062 22.390625 9.839844 24.25 9.867188 26.5625 C 9.886719 28.820312 11.1875 30.304688 12.523438 31.082031 C 13.835938 31.851562 15.15625 32.070312 16 31.980469 C 16.84375 32.070312 18.167969 31.851562 19.476562 31.082031 C 20.8125 30.304688 22.109375 28.820312 22.132812 26.5625 C 22.15625 24.25 20.835938 22.390625 19.566406 20.3125 C 18.296875 18.234375 17.007812 15.945312 16.660156 12.929688 Z M 15.339844 12.929688 "/>
<path style=" stroke:none;fill-rule:nonzero;fill:rgb(100%,100%,100%);fill-opacity:1;" d="M 25.207031 0 C 24.855469 3.015625 23.570312 5.304688 22.300781 7.382812 C 21.03125 9.460938 19.707031 11.320312 19.730469 13.632812 C 19.753906 15.890625 21.050781 17.375 22.386719 18.152344 C 23.699219 18.917969 25.023438 19.140625 25.867188 19.050781 C 26.710938 19.140625 28.03125 18.917969 29.34375 18.152344 C 30.679688 17.375 31.976562 15.890625 32 13.632812 C 32.023438 11.320312 30.699219 9.460938 29.433594 7.382812 C 28.164062 5.304688 26.875 3.015625 26.527344 0 Z M 25.207031 0 "/>
</g>
</svg>
