<?xml version="1.0" encoding="UTF-8"?>
<svg xmlns="http://www.w3.org/2000/svg" xmlns:xlink="http://www.w3.org/1999/xlink" width="32" height="32" viewBox="0 0 32 32" version="1.1">
<g id="surface1">
<path style=" stroke:none;fill-rule:nonzero;fill:rgb(100%,100%,100%);fill-opacity:1;" d="M 21.332031 1.332031 C 22.070312 1.332031 22.667969 1.929688 22.667969 2.667969 L 22.667969 4 L 29.332031 4 L 29.332031 12 L 26.640625 12 L 30.304688 22.058594 C 30.539062 22.660156 30.667969 23.3125 30.667969 24 C 30.667969 26.945312 28.277344 29.332031 25.332031 29.332031 C 22.847656 29.332031 20.761719 27.632812 20.167969 25.332031 L 14.5 25.332031 C 13.90625 27.632812 11.820312 29.332031 9.332031 29.332031 C 6.742188 29.332031 4.582031 27.484375 4.101562 25.03125 C 3.246094 24.585938 2.667969 23.695312 2.667969 22.667969 L 2.667969 9.332031 C 2.667969 8.597656 3.261719 8 4 8 L 13.332031 8 C 14.070312 8 14.667969 8.597656 14.667969 9.332031 L 14.667969 16 C 14.667969 16.738281 15.261719 17.332031 16 17.332031 L 18.667969 17.332031 C 19.402344 17.332031 20 16.738281 20 16 L 20 4 L 16 4 L 16 1.332031 Z M 9.332031 21.332031 C 7.859375 21.332031 6.667969 22.527344 6.667969 24 C 6.667969 25.472656 7.859375 26.667969 9.332031 26.667969 C 10.804688 26.667969 12 25.472656 12 24 C 12 22.527344 10.804688 21.332031 9.332031 21.332031 Z M 25.332031 21.332031 C 23.859375 21.332031 22.667969 22.527344 22.667969 24 C 22.667969 25.472656 23.859375 26.664062 25.332031 26.664062 C 26.804688 26.664062 28 25.472656 28 24 C 28 23.679688 27.945312 23.371094 27.839844 23.085938 L 27.816406 23.027344 C 27.429688 22.035156 26.464844 21.332031 25.332031 21.332031 Z M 23.804688 12 L 22.667969 12 L 22.667969 16 C 22.667969 18.210938 20.875 20 18.667969 20 L 16 20 C 13.789062 20 12 18.210938 12 16 L 5.332031 16 L 5.332031 20.472656 C 6.3125 19.363281 7.742188 18.667969 9.332031 18.667969 C 11.820312 18.667969 13.90625 20.367188 14.5 22.667969 L 20.167969 22.667969 C 20.757812 20.367188 22.847656 18.664062 25.332031 18.664062 C 25.648438 18.664062 25.957031 18.691406 26.257812 18.746094 Z M 12 10.667969 L 5.332031 10.667969 L 5.332031 13.332031 L 12 13.332031 Z M 26.667969 6.667969 L 22.667969 6.667969 L 22.667969 9.332031 L 26.667969 9.332031 Z M 26.667969 6.667969 "/>
</g>
</svg>
