<?xml version="1.0" encoding="UTF-8"?>
<svg xmlns="http://www.w3.org/2000/svg" xmlns:xlink="http://www.w3.org/1999/xlink" width="32" height="32" viewBox="0 0 32 32" version="1.1">
<g id="surface1">
<path style=" stroke:none;fill-rule:nonzero;fill:rgb(100%,100%,100%);fill-opacity:1;" d="M 8.3125 8.605469 C 4.808594 12.242188 4.335938 17.835938 7.179688 22.011719 C 10.023438 26.183594 15.402344 27.792969 20.070312 25.863281 C 20.222656 24.863281 19.886719 23.902344 19.75 23.566406 C 19.441406 22.820312 18.433594 21.542969 16.746094 19.773438 C 16.292969 19.300781 16.324219 18.9375 16.484375 17.859375 L 16.503906 17.738281 C 16.613281 17 16.796875 16.5625 19.28125 16.167969 C 20.546875 15.964844 20.878906 16.46875 21.339844 17.171875 L 21.492188 17.398438 C 21.929688 18.039062 22.253906 18.1875 22.742188 18.40625 C 22.964844 18.507812 23.238281 18.632812 23.605469 18.839844 C 24.472656 19.339844 24.472656 19.898438 24.472656 21.128906 L 24.472656 21.269531 C 24.472656 21.789062 24.421875 22.25 24.34375 22.648438 C 26.417969 20.046875 27.15625 16.625 26.34375 13.394531 C 25.53125 10.167969 23.261719 7.503906 20.203125 6.191406 C 19.464844 6.691406 18.453125 7.394531 18.101562 7.878906 C 17.921875 8.125 17.664062 9.390625 16.832031 9.492188 C 16.617188 9.519531 16.324219 9.5 16.015625 9.480469 C 15.1875 9.429688 14.054688 9.355469 13.691406 10.339844 C 13.460938 10.964844 13.421875 12.660156 14.164062 13.539062 C 14.285156 13.679688 14.308594 13.941406 14.226562 14.230469 C 14.121094 14.613281 13.90625 14.847656 13.835938 14.894531 C 13.710938 14.820312 13.453125 14.523438 13.277344 14.324219 C 12.863281 13.835938 12.339844 13.230469 11.664062 13.042969 C 11.417969 12.976562 11.148438 12.917969 10.886719 12.863281 C 10.15625 12.710938 9.328125 12.535156 9.132812 12.125 C 8.992188 11.824219 8.992188 11.40625 8.992188 10.96875 C 8.992188 10.414062 8.992188 9.785156 8.722656 9.175781 C 8.625 8.960938 8.488281 8.765625 8.3125 8.605469 Z M 16 29.332031 C 8.636719 29.332031 2.667969 23.363281 2.667969 16 C 2.667969 8.636719 8.636719 2.667969 16 2.667969 C 23.363281 2.667969 29.332031 8.636719 29.332031 16 C 29.332031 23.363281 23.363281 29.332031 16 29.332031 Z M 16 29.332031 "/>
</g>
</svg>
