<?xml version="1.0" encoding="UTF-8"?>
<svg xmlns="http://www.w3.org/2000/svg" xmlns:xlink="http://www.w3.org/1999/xlink" width="32" height="32" viewBox="0 0 32 32" version="1.1">
<g id="surface1">
<path style=" stroke:none;fill-rule:nonzero;fill:rgb(100%,100%,100%);fill-opacity:1;" d="M 27.523438 11.449219 C 27.296875 10.5 26.9375 9.515625 26.492188 8.753906 C 25.464844 6.980469 24.542969 5.769531 22.257812 4.328125 C 19.972656 2.882812 17.433594 2.667969 16.226562 2.667969 C 13.007812 2.667969 10.613281 3.8125 8.859375 5.183594 C 4.457031 8.625 4 14.667969 4 14.667969 C 4 14.667969 5.628906 11.941406 8.71875 9.964844 C 10.589844 8.773438 13.253906 8 15.425781 8 C 21.179688 8 21.332031 13.332031 21.332031 13.332031 L 12 13.332031 C 12 10.667969 13.332031 9.332031 13.332031 9.332031 C 13.332031 9.332031 6.667969 12 6.667969 18.726562 C 6.667969 19.375 6.664062 20.554688 6.996094 21.769531 C 7.308594 22.894531 7.929688 24.042969 8.507812 24.90625 C 10.132812 27.347656 12.566406 28.390625 13.726562 28.777344 C 15.054688 29.222656 16.433594 29.332031 17.742188 29.332031 C 21.367188 29.332031 24.242188 28.152344 25.332031 27.632812 L 25.332031 22.070312 C 24.324219 22.675781 21.761719 24 18.667969 24 C 12 24 12 18.667969 12 18.667969 L 28 18.667969 L 28 15.347656 C 28 15.347656 27.949219 13.222656 27.523438 11.449219 Z M 27.523438 11.449219 "/>
</g>
</svg>
