<?xml version="1.0" encoding="UTF-8"?>
<svg xmlns="http://www.w3.org/2000/svg" xmlns:xlink="http://www.w3.org/1999/xlink" width="32" height="32" viewBox="0 0 32 32" version="1.1">
<g id="surface1">
<path style=" stroke:none;fill-rule:nonzero;fill:rgb(100%,100%,100%);fill-opacity:1;" d="M 16.910156 5.371094 C 12.449219 4.988281 8.21875 7.4375 6.328125 11.5 C 4.4375 15.5625 5.289062 20.375 8.457031 23.542969 C 11.625 26.710938 16.4375 27.5625 20.5 25.671875 C 24.5625 23.78125 27.011719 19.550781 26.628906 15.089844 C 26.535156 13.96875 26.261719 12.871094 25.824219 11.835938 L 27.824219 9.832031 C 28.820312 11.734375 29.335938 13.851562 29.332031 16 C 29.332031 23.363281 23.363281 29.332031 16 29.332031 C 8.636719 29.332031 2.667969 23.363281 2.667969 16 C 2.667969 8.636719 8.636719 2.667969 16 2.667969 C 18.148438 2.664062 20.265625 3.183594 22.167969 4.175781 L 20.167969 6.175781 C 19.132812 5.738281 18.035156 5.464844 16.914062 5.371094 Z M 27.3125 2.800781 L 29.199219 4.6875 L 16.945312 16.941406 L 15.0625 16.945312 L 15.058594 15.058594 Z M 27.3125 2.800781 "/>
</g>
</svg>
