<?xml version="1.0" encoding="UTF-8"?>
<svg xmlns="http://www.w3.org/2000/svg" xmlns:xlink="http://www.w3.org/1999/xlink" width="32" height="32" viewBox="0 0 32 32" version="1.1">
<g id="surface1">
<path style=" stroke:none;fill-rule:nonzero;fill:rgb(100%,100%,100%);fill-opacity:1;" d="M 16 2.667969 C 23.363281 2.667969 29.332031 8.636719 29.332031 16 C 29.332031 23.363281 23.363281 29.332031 16 29.332031 C 8.636719 29.332031 2.667969 23.363281 2.667969 16 C 2.667969 8.636719 8.636719 2.667969 16 2.667969 Z M 16 5.332031 C 10.109375 5.332031 5.332031 10.109375 5.332031 16 C 5.332031 21.890625 10.109375 26.667969 16 26.667969 C 21.890625 26.667969 26.667969 21.890625 26.667969 16 C 26.667969 10.109375 21.890625 5.332031 16 5.332031 Z M 16 14.667969 C 18.667969 14.667969 20.890625 15.109375 22.667969 16 C 22.667969 19.683594 19.683594 22.667969 16 22.667969 C 12.316406 22.667969 9.332031 19.683594 9.332031 16 C 11.109375 15.109375 13.332031 14.667969 16 14.667969 Z M 11.332031 9.332031 C 12.917969 9.332031 14.28125 10.449219 14.601562 12 L 8.066406 12 C 8.382812 10.449219 9.75 9.332031 11.332031 9.332031 Z M 20.667969 9.332031 C 22.25 9.332031 23.617188 10.449219 23.933594 12 L 17.398438 12 C 17.71875 10.449219 19.082031 9.332031 20.667969 9.332031 Z M 20.667969 9.332031 "/>
</g>
</svg>
