<?xml version="1.0" encoding="UTF-8"?>
<svg xmlns="http://www.w3.org/2000/svg" xmlns:xlink="http://www.w3.org/1999/xlink" width="32" height="32" viewBox="0 0 32 32" version="1.1">
<g id="surface1">
<path style=" stroke:none;fill-rule:nonzero;fill:rgb(100%,100%,100%);fill-opacity:1;" d="M 24.484375 14.640625 C 26.566406 16.722656 26.566406 20.097656 24.484375 22.179688 L 16.941406 29.722656 C 16.421875 30.242188 15.578125 30.242188 15.058594 29.722656 L 7.515625 22.179688 C 5.433594 20.097656 5.433594 16.722656 7.515625 14.636719 C 9.597656 12.554688 12.976562 12.554688 15.058594 14.636719 L 16 15.582031 L 16.941406 14.636719 C 19.023438 12.554688 22.402344 12.554688 24.484375 14.636719 Z M 16 1.332031 C 18.945312 1.332031 21.332031 3.71875 21.332031 6.667969 C 21.332031 9.613281 18.945312 12 16 12 C 13.054688 12 10.667969 9.613281 10.667969 6.667969 C 10.667969 3.71875 13.054688 1.332031 16 1.332031 Z M 16 1.332031 "/>
</g>
</svg>
