<?xml version="1.0" encoding="UTF-8"?>
<svg xmlns="http://www.w3.org/2000/svg" xmlns:xlink="http://www.w3.org/1999/xlink" width="32" height="32" viewBox="0 0 32 32" version="1.1">
<g id="surface1">
<path style=" stroke:none;fill-rule:nonzero;fill:rgb(100%,100%,100%);fill-opacity:1;" d="M 16 25.332031 C 17.105469 25.332031 18 26.230469 18 27.332031 C 18 28.4375 17.105469 29.332031 16 29.332031 C 14.894531 29.332031 14 28.4375 14 27.332031 C 14 26.230469 14.894531 25.332031 16 25.332031 Z M 8.667969 25.332031 C 9.769531 25.332031 10.667969 26.230469 10.667969 27.332031 C 10.667969 28.4375 9.769531 29.332031 8.667969 29.332031 C 7.5625 29.332031 6.667969 28.4375 6.667969 27.332031 C 6.667969 26.230469 7.5625 25.332031 8.667969 25.332031 Z M 23.332031 25.332031 C 24.4375 25.332031 25.332031 26.230469 25.332031 27.332031 C 25.332031 28.4375 24.4375 29.332031 23.332031 29.332031 C 22.230469 29.332031 21.332031 28.4375 21.332031 27.332031 C 21.332031 26.230469 22.230469 25.332031 23.332031 25.332031 Z M 17.332031 2.667969 L 17.332031 5.332031 L 25.332031 5.332031 L 25.332031 8 L 22.710938 8 C 21.679688 11.097656 20.039062 13.953125 17.882812 16.402344 C 19.9375 18.238281 22.355469 19.621094 24.984375 20.457031 L 24.269531 23.03125 C 21.203125 22.070312 18.382812 20.457031 16 18.300781 C 13.617188 20.457031 10.796875 22.070312 7.730469 23.03125 L 7.015625 20.457031 C 9.640625 19.621094 12.0625 18.238281 14.117188 16.402344 C 12.597656 14.679688 11.332031 12.75 10.355469 10.667969 L 13.34375 10.667969 C 14.085938 12.039062 14.976562 13.324219 16 14.5 C 17.667969 12.582031 18.980469 10.378906 19.878906 8 L 6.667969 8 L 6.667969 5.332031 L 14.667969 5.332031 L 14.667969 2.667969 Z M 17.332031 2.667969 "/>
</g>
</svg>
