<?xml version="1.0" encoding="UTF-8"?>
<svg xmlns="http://www.w3.org/2000/svg" xmlns:xlink="http://www.w3.org/1999/xlink" width="32" height="32" viewBox="0 0 32 32" version="1.1">
<g id="surface1">
<path style=" stroke:none;fill-rule:nonzero;fill:rgb(100%,100%,100%);fill-opacity:1;" d="M 18.667969 13.332031 L 21.332031 13.332031 L 21.332031 14.34375 C 23.175781 13.113281 25.542969 12.996094 27.496094 14.039062 C 29.449219 15.085938 30.667969 17.117188 30.667969 19.332031 L 30.667969 26.667969 L 28 26.667969 L 28 19.332031 C 28 17.425781 26.433594 16 24.667969 16 C 22.898438 16 21.332031 17.425781 21.332031 19.332031 L 21.332031 26.667969 L 18.667969 26.667969 Z M 16 5.332031 L 16 8 L 5.332031 8 L 5.332031 14.667969 L 16 14.667969 L 16 17.332031 L 5.332031 17.332031 L 5.332031 24 L 16 24 L 16 26.667969 L 2.667969 26.667969 L 2.667969 5.332031 Z M 16 5.332031 "/>
</g>
</svg>
