<?xml version="1.0" encoding="UTF-8"?>
<svg xmlns="http://www.w3.org/2000/svg" xmlns:xlink="http://www.w3.org/1999/xlink" width="32" height="32" viewBox="0 0 32 32" version="1.1">
<g id="surface1">
<path style=" stroke:none;fill-rule:nonzero;fill:rgb(100%,100%,100%);fill-opacity:1;" d="M 11.449219 11.8125 L 4.847656 18.410156 L 11.773438 25.335938 L 13.332031 25.335938 L 13.332031 25.332031 L 14.894531 25.332031 L 19.933594 20.296875 Z M 13.332031 9.925781 L 21.820312 18.410156 L 25.589844 14.636719 L 17.105469 6.152344 Z M 18.667969 25.332031 L 28 25.332031 L 28 28 L 16 28 L 10.667969 28.003906 L 2.019531 19.351562 C 1.5 18.832031 1.5 17.988281 2.019531 17.46875 L 16.160156 3.324219 C 16.410156 3.074219 16.75 2.933594 17.101562 2.933594 C 17.457031 2.933594 17.796875 3.074219 18.046875 3.324219 L 28.417969 13.695312 C 28.9375 14.214844 28.9375 15.0625 28.417969 15.582031 Z M 18.667969 25.332031 "/>
</g>
</svg>
