<?xml version="1.0" encoding="UTF-8"?>
<svg xmlns="http://www.w3.org/2000/svg" xmlns:xlink="http://www.w3.org/1999/xlink" width="32" height="32" viewBox="0 0 32 32" version="1.1">
<g id="surface1">
<path style=" stroke:none;fill-rule:nonzero;fill:rgb(100%,100%,100%);fill-opacity:1;" d="M 23.84375 25.730469 C 21.496094 27.214844 18.777344 28.003906 16 28 C 8.8125 28 2.828125 22.828125 1.574219 16 C 2.148438 12.894531 3.710938 10.058594 6.027344 7.910156 L 1.855469 3.742188 L 3.742188 1.855469 L 30.140625 28.257812 L 28.253906 30.144531 L 23.839844 25.730469 Z M 7.914062 9.800781 C 6.101562 11.449219 4.839844 13.613281 4.296875 16 C 5.140625 19.695312 7.679688 22.773438 11.144531 24.304688 C 14.613281 25.839844 18.597656 25.644531 21.898438 23.785156 L 19.195312 21.078125 C 16.824219 22.574219 13.734375 22.226562 11.753906 20.246094 C 9.773438 18.265625 9.425781 15.175781 10.921875 12.804688 Z M 17.21875 19.105469 L 12.894531 14.78125 C 12.410156 16.015625 12.703125 17.417969 13.640625 18.355469 C 14.578125 19.292969 15.984375 19.585938 17.21875 19.101562 Z M 27.742188 22.121094 L 25.835938 20.214844 C 26.726562 18.945312 27.359375 17.511719 27.703125 16 C 26.96875 12.792969 24.953125 10.027344 22.125 8.347656 C 19.296875 6.667969 15.902344 6.222656 12.734375 7.117188 L 10.632812 5.011719 C 12.292969 4.359375 14.105469 4 16 4 C 23.1875 4 29.171875 9.171875 30.425781 16 C 30.015625 18.222656 29.097656 20.316406 27.742188 22.121094 Z M 15.628906 10.011719 C 17.347656 9.90625 19.027344 10.539062 20.242188 11.757812 C 21.460938 12.972656 22.09375 14.652344 21.988281 16.371094 Z M 15.628906 10.011719 "/>
</g>
</svg>
