<?xml version="1.0" encoding="UTF-8"?>
<svg xmlns="http://www.w3.org/2000/svg" xmlns:xlink="http://www.w3.org/1999/xlink" width="32" height="32" viewBox="0 0 32 32" version="1.1">
<g id="surface1">
<path style=" stroke:none;fill-rule:nonzero;fill:rgb(100%,100%,100%);fill-opacity:1;" d="M 26.667969 29.332031 L 5.332031 29.332031 C 4.597656 29.332031 4 28.738281 4 28 L 4 4 C 4 3.261719 4.597656 2.667969 5.332031 2.667969 L 26.667969 2.667969 C 27.402344 2.667969 28 3.261719 28 4 L 28 28 C 28 28.738281 27.402344 29.332031 26.667969 29.332031 Z M 25.332031 26.667969 L 25.332031 5.332031 L 6.667969 5.332031 L 6.667969 26.667969 Z M 18.667969 16 L 18.667969 22.667969 L 13.332031 22.667969 L 13.332031 18.667969 L 16 18.667969 L 16 16 Z M 16 5.332031 L 18.667969 5.332031 L 18.667969 8 L 16 8 Z M 13.332031 8 L 16 8 L 16 10.667969 L 13.332031 10.667969 Z M 16 10.667969 L 18.667969 10.667969 L 18.667969 13.332031 L 16 13.332031 Z M 13.332031 13.332031 L 16 13.332031 L 16 16 L 13.332031 16 Z M 13.332031 13.332031 "/>
</g>
</svg>
