<?xml version="1.0" encoding="UTF-8"?>
<svg xmlns="http://www.w3.org/2000/svg" xmlns:xlink="http://www.w3.org/1999/xlink" width="32" height="32" viewBox="0 0 32 32" version="1.1">
<g id="surface1">
<path style=" stroke:none;fill-rule:nonzero;fill:rgb(100%,100%,100%);fill-opacity:1;" d="M 9.019531 26.929688 L 22.984375 26.929688 L 22.984375 20.824219 L 20.128906 17.0625 L 15.820312 22.078125 L 12.601562 19.640625 L 9.019531 23.054688 Z M 9.019531 26.929688 "/>
<path style=" stroke:none;fill-rule:nonzero;fill:rgb(100%,100%,100%);fill-opacity:1;" d="M 14 12 C 14 13.65625 12.65625 15 11 15 C 9.34375 15 8 13.65625 8 12 C 8 10.34375 9.34375 9 11 9 C 12.65625 9 14 10.34375 14 12 "/>
<path style=" stroke:none;fill-rule:nonzero;fill:rgb(100%,100%,100%);fill-opacity:1;" d="M 8 28 L 24 28 L 24 20 L 20 16 L 16 22 L 12 18 L 8 22 Z M 8 28 "/>
<path style=" stroke:none;fill-rule:nonzero;fill:rgb(100%,100%,100%);fill-opacity:1;" d="M 5.003906 -0.00390625 C 4.449219 -0.0078125 3.996094 0.445312 4 1 L 4 31 C 3.996094 31.554688 4.449219 32.007812 5.003906 32.003906 L 26.996094 32.003906 C 27.550781 32.007812 28.003906 31.554688 28 31 L 28 6.992188 C 27.996094 6.730469 27.894531 6.484375 27.710938 6.300781 L 21.730469 0.292969 C 21.542969 0.105469 21.289062 -0.00390625 21.023438 -0.00390625 Z M 5.992188 2.003906 L 20.003906 2.003906 L 20.007812 6.996094 C 20.003906 7.546875 20.449219 7.992188 21 8 L 26 8 L 25.996094 29.996094 L 5.992188 29.996094 Z M 5.992188 2.003906 "/>
</g>
</svg>
