<?xml version="1.0" encoding="UTF-8"?>
<svg xmlns="http://www.w3.org/2000/svg" xmlns:xlink="http://www.w3.org/1999/xlink" width="32" height="32" viewBox="0 0 32 32" version="1.1">
<g id="surface1">
<path style=" stroke:none;fill-rule:nonzero;fill:rgb(100%,100%,100%);fill-opacity:1;" d="M 10.660156 26 L 12.441406 26 C 12.683594 26 12.910156 25.832031 13.125 25.441406 L 15.648438 20.695312 L 17.902344 25.421875 C 18.097656 25.832031 18.328125 26 18.585938 26 L 21.308594 26 C 21.445312 26 21.507812 25.84375 21.507812 25.664062 C 21.507812 25.578125 21.492188 25.453125 21.429688 25.34375 L 17.644531 17.160156 L 21.171875 10.550781 C 21.234375 10.464844 21.25 10.363281 21.25 10.273438 C 21.25 10.105469 21.171875 9.972656 21.050781 9.972656 L 19.238281 9.972656 C 18.996094 9.972656 18.722656 10.140625 18.523438 10.53125 L 16.394531 14.644531 L 14.449219 10.5625 C 14.25 10.152344 14.007812 9.972656 13.75 9.972656 L 10.8125 9.972656 C 10.707031 9.972656 10.644531 10.105469 10.644531 10.273438 C 10.644531 10.375 10.691406 10.496094 10.738281 10.628906 L 14.371094 18.21875 L 10.585938 25.363281 C 10.523438 25.488281 10.492188 25.609375 10.492188 25.699219 C 10.492188 25.867188 10.570312 26 10.660156 26 Z M 10.660156 26 "/>
<path style=" stroke:none;fill-rule:nonzero;fill:rgb(100%,100%,100%);fill-opacity:1;" d="M 5.003906 -0.00390625 C 4.449219 -0.0078125 3.996094 0.445312 4 1 L 4 31 C 3.996094 31.554688 4.449219 32.007812 5.003906 32.003906 L 26.996094 32.003906 C 27.550781 32.007812 28.003906 31.554688 28 31 L 28 6.992188 C 27.996094 6.730469 27.894531 6.484375 27.710938 6.300781 L 21.730469 0.292969 C 21.542969 0.105469 21.289062 -0.00390625 21.023438 -0.00390625 Z M 5.992188 2.003906 L 20.003906 2.003906 L 20.007812 6.996094 C 20.003906 7.546875 20.449219 7.992188 21 8 L 26 8 L 25.996094 29.996094 L 5.992188 29.996094 Z M 5.992188 2.003906 "/>
</g>
</svg>
