<?xml version="1.0" encoding="UTF-8"?>
<svg xmlns="http://www.w3.org/2000/svg" xmlns:xlink="http://www.w3.org/1999/xlink" width="32" height="32" viewBox="0 0 32 32" version="1.1">
<g id="surface1">
<path style=" stroke:none;fill-rule:nonzero;fill:rgb(100%,100%,100%);fill-opacity:1;" d="M 29.332031 16 L 29.332031 18.667969 L 2.667969 18.667969 L 2.667969 16 L 5.332031 16 L 5.332031 3.992188 C 5.332031 3.261719 5.925781 2.667969 6.660156 2.667969 L 20 2.667969 L 26.667969 9.332031 L 26.667969 16 Z M 4 21.332031 L 6.667969 21.332031 L 6.667969 29.332031 L 4 29.332031 Z M 25.332031 21.332031 L 28 21.332031 L 28 29.332031 L 25.332031 29.332031 Z M 20 21.332031 L 22.667969 21.332031 L 22.667969 29.332031 L 20 29.332031 Z M 14.667969 21.332031 L 17.332031 21.332031 L 17.332031 29.332031 L 14.667969 29.332031 Z M 9.332031 21.332031 L 12 21.332031 L 12 29.332031 L 9.332031 29.332031 Z M 9.332031 21.332031 "/>
</g>
</svg>
