<?xml version="1.0" encoding="UTF-8"?>
<svg xmlns="http://www.w3.org/2000/svg" xmlns:xlink="http://www.w3.org/1999/xlink" width="32" height="32" viewBox="0 0 32 32" version="1.1">
<g id="surface1">
<path style=" stroke:none;fill-rule:nonzero;fill:rgb(100%,100%,100%);fill-opacity:1;" d="M 14.667969 20 L 17.332031 20 L 17.332031 22.667969 L 14.667969 22.667969 Z M 17.332031 17.808594 L 17.332031 18.667969 L 14.667969 18.667969 L 14.667969 16.667969 C 14.667969 15.929688 15.261719 15.332031 16 15.332031 C 17.054688 15.332031 17.925781 14.515625 17.996094 13.464844 C 18.066406 12.414062 17.304688 11.488281 16.261719 11.351562 C 15.21875 11.210938 14.246094 11.910156 14.039062 12.941406 L 11.421875 12.417969 C 11.871094 10.175781 13.878906 8.585938 16.164062 8.667969 C 18.449219 8.75 20.339844 10.472656 20.628906 12.742188 C 20.921875 15.007812 19.523438 17.152344 17.332031 17.808594 Z M 20 5.332031 L 6.667969 5.332031 L 6.667969 26.667969 L 25.332031 26.667969 L 25.332031 10.667969 L 20 10.667969 Z M 4 3.988281 C 4 3.257812 4.597656 2.667969 5.332031 2.667969 L 21.332031 2.667969 L 28 9.332031 L 28 27.992188 C 28.003906 28.726562 27.414062 29.328125 26.675781 29.332031 L 5.324219 29.332031 C 4.59375 29.328125 4.003906 28.738281 4 28.011719 Z M 4 3.988281 "/>
</g>
</svg>
