<?xml version="1.0" encoding="UTF-8"?>
<svg xmlns="http://www.w3.org/2000/svg" xmlns:xlink="http://www.w3.org/1999/xlink" width="32" height="32" viewBox="0 0 32 32" version="1.1">
<g id="surface1">
<path style=" stroke:none;fill-rule:nonzero;fill:rgb(100%,100%,100%);fill-opacity:1;" d="M 18.667969 12 L 18.667969 5.332031 L 6.667969 5.332031 L 6.667969 26.667969 L 14.742188 26.667969 C 15.179688 27.222656 15.707031 27.714844 16.316406 28.113281 L 18.167969 29.332031 L 5.324219 29.332031 C 4.59375 29.332031 4 28.742188 4 28.011719 L 4 3.988281 C 4 3.273438 4.597656 2.667969 5.335938 2.667969 L 19.996094 2.667969 L 28 10.667969 L 28 12 Z M 16 14.667969 L 28 14.667969 L 28 22.597656 C 28 23.917969 27.332031 25.152344 26.21875 25.886719 L 22 28.664062 L 17.78125 25.886719 C 16.671875 25.160156 16.003906 23.925781 16 22.601562 Z M 18.667969 22.597656 C 18.667969 23.019531 18.882812 23.417969 19.246094 23.660156 L 22 25.472656 L 24.753906 23.660156 C 25.113281 23.425781 25.332031 23.027344 25.332031 22.597656 L 25.332031 17.332031 L 18.667969 17.332031 Z M 18.667969 22.597656 "/>
</g>
</svg>
