<?xml version="1.0" encoding="UTF-8"?>
<svg xmlns="http://www.w3.org/2000/svg" xmlns:xlink="http://www.w3.org/1999/xlink" width="32" height="32" viewBox="0 0 32 32" version="1.1">
<g id="surface1">
<path style=" stroke:none;fill-rule:nonzero;fill:rgb(100%,100%,100%);fill-opacity:1;" d="M 13.332031 2.667969 L 13.332031 5.332031 L 16 5.332031 L 16 2.667969 L 26.675781 2.667969 C 27.40625 2.667969 28 3.257812 28 3.988281 L 28 28.011719 C 27.996094 28.738281 27.40625 29.328125 26.675781 29.332031 L 5.324219 29.332031 C 4.59375 29.332031 4 28.742188 4 28.011719 L 4 3.988281 C 4.003906 3.261719 4.59375 2.671875 5.324219 2.667969 Z M 16 5.332031 L 16 8 L 18.667969 8 L 18.667969 5.332031 Z M 13.332031 8 L 13.332031 10.667969 L 16 10.667969 L 16 8 Z M 16 10.667969 L 16 13.332031 L 18.667969 13.332031 L 18.667969 10.667969 Z M 13.332031 13.332031 L 13.332031 16 L 16 16 L 16 13.332031 Z M 16 16 L 16 18.667969 L 13.332031 18.667969 L 13.332031 22.667969 L 18.667969 22.667969 L 18.667969 16 Z M 16 16 "/>
</g>
</svg>
