<?xml version="1.0" encoding="UTF-8"?>
<svg xmlns="http://www.w3.org/2000/svg" xmlns:xlink="http://www.w3.org/1999/xlink" width="32" height="32" viewBox="0 0 32 32" version="1.1">
<g id="surface1">
<path style=" stroke:none;fill-rule:nonzero;fill:rgb(100%,100%,100%);fill-opacity:1;" d="M 28 4 C 28.734375 4 29.332031 4.597656 29.332031 5.332031 L 29.332031 26.667969 C 29.332031 27.402344 28.734375 28 28 28 L 4 28 C 3.265625 28 2.667969 27.402344 2.667969 26.667969 L 2.667969 5.332031 C 2.667969 4.597656 3.265625 4 4 4 Z M 13.972656 6.664062 L 5.332031 6.667969 L 5.332031 25.332031 L 16.996094 25.332031 C 16.910156 24.875 16.839844 24.421875 16.777344 23.972656 C 16.382812 23.992188 16.121094 24 16 24 C 13.054688 24 10.136719 23.027344 7.261719 21.109375 L 8.738281 18.890625 C 11.199219 20.53125 13.609375 21.332031 16 21.332031 C 16.175781 21.332031 16.351562 21.328125 16.53125 21.320312 C 16.5 20.65625 16.5 19.441406 16.539062 18.667969 L 12.667969 18.667969 L 12.667969 17.332031 C 12.667969 12.964844 13.09375 9.414062 13.972656 6.664062 Z M 16.800781 6.664062 C 15.914062 8.777344 15.40625 12.546875 15.347656 16 L 19.511719 16 L 19.324219 17.5 C 19.1875 18.570312 19.140625 19.691406 19.179688 20.859375 C 20.53125 20.457031 21.886719 19.804688 23.261719 18.890625 L 24.738281 21.109375 C 22.980469 22.28125 21.203125 23.101562 19.414062 23.5625 C 19.492188 24.140625 19.589844 24.730469 19.707031 25.332031 L 26.667969 25.332031 L 26.667969 6.667969 Z M 9.332031 9.332031 C 10.070312 9.332031 10.667969 9.929688 10.667969 10.667969 L 10.667969 12 C 10.667969 12.734375 10.070312 13.332031 9.332031 13.332031 C 8.597656 13.332031 8 12.734375 8 12 L 8 10.667969 C 8 9.929688 8.597656 9.332031 9.332031 9.332031 Z M 22.667969 9.332031 C 23.402344 9.332031 24 9.929688 24 10.667969 L 24 12 C 24 12.734375 23.402344 13.332031 22.667969 13.332031 C 21.929688 13.332031 21.332031 12.734375 21.332031 12 L 21.332031 10.667969 C 21.332031 9.929688 21.929688 9.332031 22.667969 9.332031 Z M 22.667969 9.332031 "/>
</g>
</svg>
