<?xml version="1.0" encoding="UTF-8"?>
<svg xmlns="http://www.w3.org/2000/svg" xmlns:xlink="http://www.w3.org/1999/xlink" width="32" height="32" viewBox="0 0 32 32" version="1.1">
<g id="surface1">
<path style=" stroke:none;fill-rule:nonzero;fill:rgb(100%,100%,100%);fill-opacity:1;" d="M 16.550781 6.667969 L 28 6.667969 C 28.738281 6.667969 29.332031 7.261719 29.332031 8 L 29.332031 26.667969 C 29.332031 27.402344 28.738281 28 28 28 L 4 28 C 3.261719 28 2.667969 27.402344 2.667969 26.667969 L 2.667969 5.332031 C 2.667969 4.597656 3.261719 4 4 4 L 13.886719 4 Z M 16 17.332031 C 17.839844 17.332031 19.332031 15.839844 19.332031 14 C 19.332031 12.160156 17.839844 10.667969 16 10.667969 C 14.160156 10.667969 12.667969 12.160156 12.667969 14 C 12.667969 15.839844 14.160156 17.332031 16 17.332031 Z M 10.667969 24 L 21.332031 24 C 21.332031 21.054688 18.945312 18.667969 16 18.667969 C 13.054688 18.667969 10.667969 21.054688 10.667969 24 Z M 10.667969 24 "/>
</g>
</svg>
