<?xml version="1.0" encoding="UTF-8"?>
<svg xmlns="http://www.w3.org/2000/svg" xmlns:xlink="http://www.w3.org/1999/xlink" width="32" height="32" viewBox="0 0 32 32" version="1.1">
<g id="surface1">
<path style=" stroke:none;fill-rule:nonzero;fill:rgb(100%,100%,100%);fill-opacity:1;" d="M 13.746094 2.699219 C 13 2.699219 12.347656 2.796875 11.792969 2.996094 C 11.242188 3.195312 10.765625 3.5 10.355469 3.90625 C 9.957031 4.304688 9.617188 4.808594 9.339844 5.414062 C 9.074219 6.007812 8.867188 6.714844 8.714844 7.53125 L 8.03125 11.011719 L 4.511719 11.011719 L 4.511719 12.671875 L 7.707031 12.671875 L 5.441406 24.25 C 5.316406 24.875 5.160156 25.375 4.964844 25.753906 C 4.78125 26.140625 4.578125 26.441406 4.351562 26.648438 C 4.136719 26.867188 3.910156 27.015625 3.675781 27.085938 C 3.441406 27.160156 3.210938 27.199219 2.988281 27.199219 C 2.773438 27.199219 2.582031 27.175781 2.417969 27.132812 C 2.253906 27.089844 2.105469 27.046875 1.972656 26.992188 C 1.839844 26.941406 1.726562 26.890625 1.632812 26.851562 C 1.53125 26.808594 1.441406 26.789062 1.359375 26.789062 C 1.269531 26.789062 1.191406 26.820312 1.128906 26.882812 C 1.066406 26.945312 1.011719 27.027344 0.960938 27.121094 C 0.910156 27.222656 0.867188 27.332031 0.835938 27.449219 C 0.796875 27.574219 0.765625 27.691406 0.742188 27.808594 C 0.722656 27.933594 0.710938 28.046875 0.699219 28.140625 C 0.6875 28.242188 0.683594 28.320312 0.683594 28.375 C 0.683594 28.507812 0.703125 28.625 0.742188 28.71875 C 0.785156 28.820312 0.863281 28.894531 0.976562 28.9375 C 1.199219 29.023438 1.476562 29.097656 1.804688 29.171875 C 2.132812 29.253906 2.523438 29.296875 2.972656 29.296875 C 3.710938 29.296875 4.347656 29.199219 4.890625 29 C 5.445312 28.8125 5.917969 28.519531 6.316406 28.125 C 6.714844 27.726562 7.042969 27.230469 7.300781 26.632812 C 7.566406 26.035156 7.773438 25.332031 7.929688 24.515625 L 10.25 12.671875 L 14.085938 12.671875 L 14.085938 11.011719 L 10.574219 11.011719 L 11.179688 7.917969 C 11.292969 7.324219 11.4375 6.828125 11.613281 6.433594 C 11.785156 6.023438 11.980469 5.699219 12.195312 5.457031 C 12.421875 5.21875 12.65625 5.050781 12.902344 4.957031 C 13.15625 4.855469 13.421875 4.800781 13.699219 4.800781 C 13.839844 4.800781 14.003906 4.824219 14.175781 4.878906 C 14.351562 4.917969 14.519531 4.96875 14.683594 5.019531 C 14.847656 5.074219 14.988281 5.125 15.113281 5.175781 C 15.234375 5.21875 15.324219 5.238281 15.375 5.238281 C 15.457031 5.238281 15.527344 5.210938 15.585938 5.148438 C 15.648438 5.085938 15.699219 5.003906 15.742188 4.910156 C 15.78125 4.804688 15.816406 4.691406 15.847656 4.566406 C 15.878906 4.429688 15.902344 4.304688 15.921875 4.1875 C 15.945312 4.074219 15.960938 3.96875 15.972656 3.875 C 15.992188 3.78125 16.003906 3.710938 16.003906 3.65625 C 16.003906 3.5 15.976562 3.375 15.921875 3.28125 C 15.882812 3.1875 15.804688 3.113281 15.679688 3.058594 C 15.464844 2.976562 15.199219 2.898438 14.878906 2.824219 C 14.5625 2.742188 14.1875 2.699219 13.746094 2.699219 Z M 15.152344 12.65625 C 14.316406 13.914062 13.675781 15.246094 13.230469 16.648438 C 12.785156 18.046875 12.5625 19.476562 12.5625 20.949219 C 12.5625 22.3125 12.78125 23.722656 13.21875 25.179688 C 13.664062 26.628906 14.300781 28 15.125 29.296875 L 16.703125 29.296875 C 16.054688 27.832031 15.597656 26.550781 15.332031 25.453125 C 14.953125 23.894531 14.765625 22.417969 14.765625 21.023438 C 14.765625 19.671875 14.898438 18.390625 15.164062 17.175781 C 15.4375 15.964844 15.957031 14.457031 16.71875 12.65625 Z M 27.160156 12.65625 C 27.925781 14.457031 28.441406 15.964844 28.707031 17.175781 C 28.980469 18.390625 29.117188 19.671875 29.117188 21.023438 C 29.117188 22.4375 28.921875 23.925781 28.539062 25.496094 C 28.277344 26.574219 27.824219 27.84375 27.179688 29.296875 L 28.757812 29.296875 C 29.601562 27.972656 30.242188 26.578125 30.671875 25.117188 C 31.105469 23.648438 31.320312 22.226562 31.320312 20.839844 C 31.320312 19.460938 31.101562 18.074219 30.664062 16.691406 C 30.230469 15.304688 29.585938 13.960938 28.730469 12.65625 Z M 17.507812 16.371094 L 20.507812 20.832031 L 17.378906 25.566406 L 20.058594 25.566406 L 21.855469 22.71875 L 23.621094 25.566406 L 26.445312 25.566406 L 23.222656 20.726562 L 26.164062 16.371094 L 23.46875 16.371094 L 21.855469 18.898438 L 20.320312 16.371094 Z M 17.507812 16.371094 "/>
<path style=" stroke:none;fill-rule:nonzero;fill:rgb(100%,100%,100%);fill-opacity:1;" d="M 13.746094 2 C 12.9375 2 12.214844 2.101562 11.570312 2.332031 C 10.929688 2.5625 10.355469 2.933594 9.875 3.410156 C 9.410156 3.875 9.023438 4.445312 8.714844 5.117188 L 8.714844 5.128906 C 8.421875 5.789062 8.199219 6.535156 8.039062 7.390625 L 7.480469 10.308594 L 3.832031 10.308594 L 3.832031 13.371094 L 6.867188 13.371094 L 4.769531 24.113281 C 4.652344 24.699219 4.515625 25.144531 4.363281 25.433594 L 4.351562 25.433594 L 4.351562 25.445312 C 4.195312 25.777344 4.03125 26.011719 3.894531 26.136719 L 3.882812 26.136719 L 3.871094 26.152344 C 3.71875 26.308594 3.589844 26.382812 3.480469 26.417969 C 3.300781 26.472656 3.136719 26.496094 2.984375 26.496094 C 2.816406 26.496094 2.679688 26.484375 2.578125 26.457031 C 2.4375 26.421875 2.3125 26.375 2.214844 26.339844 C 2.089844 26.289062 1.992188 26.253906 1.914062 26.21875 L 1.902344 26.203125 L 1.890625 26.203125 C 1.730469 26.140625 1.546875 26.085938 1.355469 26.085938 C 1.109375 26.085938 0.835938 26.199219 0.652344 26.390625 C 0.53125 26.515625 0.4375 26.640625 0.363281 26.777344 L 0.351562 26.789062 L 0.351562 26.804688 C 0.289062 26.933594 0.238281 27.082031 0.195312 27.230469 C 0.195312 27.234375 0.195312 27.238281 0.195312 27.242188 C 0.191406 27.253906 0.183594 27.261719 0.183594 27.269531 C 0.140625 27.40625 0.105469 27.539062 0.078125 27.683594 L 0.0664062 27.683594 L 0.0664062 27.695312 C 0.0429688 27.835938 0.0390625 27.964844 0.0273438 28.070312 L 0.0117188 28.070312 C 0 28.1875 0 28.28125 0 28.375 C 0 28.574219 0.0273438 28.78125 0.117188 28.988281 C 0.230469 29.265625 0.488281 29.503906 0.742188 29.601562 C 1.007812 29.699219 1.300781 29.777344 1.640625 29.855469 C 2.039062 29.953125 2.476562 30 2.96875 30 C 3.769531 30 4.484375 29.886719 5.121094 29.652344 C 5.753906 29.433594 6.320312 29.09375 6.789062 28.628906 C 7.253906 28.164062 7.636719 27.585938 7.921875 26.925781 L 7.921875 26.910156 C 8.214844 26.253906 8.4375 25.5 8.597656 24.648438 L 10.8125 13.371094 L 14.058594 13.371094 C 13.496094 14.363281 12.929688 15.355469 12.585938 16.433594 C 12.121094 17.898438 11.882812 19.402344 11.882812 20.945312 C 11.882812 22.386719 12.117188 23.867188 12.574219 25.378906 L 12.574219 25.394531 C 13.039062 26.902344 13.695312 28.332031 14.554688 29.679688 L 14.75 30 L 17.757812 30 L 17.328125 29.015625 C 16.863281 27.957031 16.613281 27.117188 16.351562 26.273438 L 20.429688 26.273438 L 21.851562 24.007812 L 23.246094 26.273438 L 27.53125 26.273438 C 27.273438 27.109375 27.023438 27.953125 26.554688 29.015625 L 26.125 30 L 29.132812 30 L 29.328125 29.679688 C 30.207031 28.300781 30.871094 26.839844 31.324219 25.3125 C 31.773438 23.789062 32 22.300781 32 20.839844 C 32 19.386719 31.769531 17.921875 31.308594 16.472656 C 30.855469 15.019531 30.179688 13.621094 29.289062 12.265625 L 29.09375 11.960938 L 26.125 11.960938 L 26.539062 12.933594 C 27.292969 14.707031 27.789062 16.179688 28.039062 17.324219 L 28.039062 17.339844 C 28.300781 18.496094 28.429688 19.726562 28.429688 21.027344 C 28.429688 22.375 28.242188 23.804688 27.871094 25.328125 C 27.820312 25.53125 27.675781 25.851562 27.609375 26.074219 L 24.050781 20.730469 L 27.464844 15.671875 L 23.101562 15.671875 L 21.863281 17.605469 L 20.703125 15.671875 L 16.402344 15.671875 C 16.679688 14.808594 16.871094 14.035156 17.34375 12.929688 L 17.757812 11.957031 L 14.789062 11.957031 L 14.773438 11.984375 L 14.773438 10.308594 L 11.414062 10.308594 L 11.855469 8.058594 C 11.960938 7.5 12.089844 7.042969 12.234375 6.714844 C 12.386719 6.355469 12.558594 6.089844 12.703125 5.925781 C 12.867188 5.757812 13.015625 5.65625 13.148438 5.609375 L 13.160156 5.609375 C 13.339844 5.535156 13.503906 5.5 13.695312 5.5 C 13.757812 5.5 13.855469 5.503906 13.980469 5.542969 L 14.007812 5.554688 L 14.019531 5.554688 C 14.171875 5.589844 14.320312 5.640625 14.476562 5.6875 C 14.628906 5.738281 14.757812 5.78125 14.851562 5.820312 L 14.878906 5.835938 L 14.890625 5.835938 C 15.042969 5.886719 15.144531 5.941406 15.375 5.941406 C 15.609375 5.941406 15.890625 5.8125 16.066406 5.636719 C 16.199219 5.5 16.296875 5.351562 16.363281 5.195312 L 16.363281 5.183594 L 16.378906 5.167969 C 16.429688 5.035156 16.46875 4.886719 16.507812 4.730469 C 16.542969 4.578125 16.578125 4.4375 16.597656 4.316406 C 16.617188 4.21875 16.625 4.125 16.636719 4.023438 L 16.652344 3.957031 C 16.671875 3.859375 16.691406 3.765625 16.691406 3.652344 C 16.691406 3.425781 16.644531 3.207031 16.535156 2.984375 C 16.410156 2.71875 16.179688 2.511719 15.949219 2.414062 L 15.921875 2.414062 C 15.664062 2.3125 15.378906 2.222656 15.050781 2.148438 L 15.035156 2.148438 C 14.648438 2.046875 14.226562 2 13.746094 2 Z M 13.746094 3.398438 C 14.140625 3.398438 14.464844 3.441406 14.710938 3.503906 L 14.734375 3.503906 C 14.984375 3.5625 15.164062 3.621094 15.324219 3.675781 C 15.320312 3.6875 15.316406 3.675781 15.308594 3.71875 L 15.296875 3.757812 L 15.296875 3.796875 C 15.289062 3.859375 15.277344 3.953125 15.257812 4.0625 C 15.238281 4.175781 15.207031 4.289062 15.179688 4.410156 C 15.175781 4.425781 15.171875 4.4375 15.167969 4.449219 C 15.074219 4.417969 14.992188 4.390625 14.890625 4.359375 L 14.878906 4.359375 C 14.71875 4.304688 14.550781 4.253906 14.371094 4.210938 L 14.332031 4.199219 C 14.121094 4.136719 13.90625 4.105469 13.695312 4.105469 C 13.328125 4.105469 12.980469 4.183594 12.652344 4.316406 C 12.300781 4.457031 11.976562 4.6875 11.699219 4.984375 L 11.6875 4.984375 C 11.402344 5.300781 11.179688 5.695312 10.984375 6.15625 C 10.78125 6.617188 10.632812 7.160156 10.515625 7.792969 L 9.746094 11.707031 L 13.40625 11.707031 L 13.40625 11.972656 L 9.695312 11.972656 L 7.257812 24.382812 C 7.113281 25.15625 6.921875 25.804688 6.683594 26.339844 L 6.671875 26.351562 C 6.445312 26.878906 6.167969 27.300781 5.835938 27.628906 C 5.511719 27.953125 5.140625 28.179688 4.675781 28.335938 L 4.664062 28.335938 L 4.664062 28.347656 C 4.214844 28.515625 3.648438 28.601562 2.96875 28.601562 C 2.5625 28.601562 2.226562 28.5625 1.96875 28.496094 L 1.953125 28.496094 C 1.710938 28.441406 1.535156 28.378906 1.367188 28.324219 C 1.371094 28.292969 1.375 28.277344 1.382812 28.214844 C 1.390625 28.136719 1.402344 28.042969 1.421875 27.9375 L 1.421875 27.921875 C 1.433594 27.851562 1.453125 27.765625 1.484375 27.667969 L 1.484375 27.65625 L 1.5 27.628906 C 1.503906 27.601562 1.515625 27.574219 1.523438 27.550781 C 1.59375 27.578125 1.652344 27.613281 1.734375 27.644531 C 1.898438 27.707031 2.070312 27.769531 2.253906 27.816406 C 2.480469 27.875 2.722656 27.894531 2.984375 27.894531 C 3.28125 27.894531 3.578125 27.839844 3.871094 27.75 C 4.21875 27.640625 4.535156 27.433594 4.808594 27.164062 L 4.820312 27.148438 C 5.121094 26.867188 5.359375 26.507812 5.5625 26.085938 L 5.5625 26.070312 C 5.800781 25.609375 5.980469 25.046875 6.109375 24.378906 L 8.535156 11.972656 L 5.199219 11.972656 L 5.199219 11.707031 L 8.585938 11.707031 L 9.382812 7.660156 C 9.527344 6.886719 9.730469 6.234375 9.96875 5.703125 L 9.953125 5.703125 C 10.203125 5.160156 10.496094 4.738281 10.828125 4.410156 C 11.167969 4.070312 11.5625 3.816406 12.027344 3.652344 C 12.488281 3.484375 13.058594 3.398438 13.746094 3.398438 Z M 15.570312 13.355469 L 15.753906 13.355469 C 15.222656 14.703125 14.726562 16.007812 14.5 17.019531 L 14.5 17.03125 C 14.222656 18.296875 14.085938 19.628906 14.085938 21.027344 C 14.085938 22.488281 14.28125 24.011719 14.671875 25.617188 C 14.882812 26.488281 15.300781 27.542969 15.726562 28.601562 L 15.558594 28.601562 C 14.855469 27.445312 14.269531 26.242188 13.875 24.964844 C 13.457031 23.570312 13.25 22.230469 13.25 20.945312 C 13.25 19.546875 13.453125 18.1875 13.875 16.859375 C 14.265625 15.625 14.859375 14.476562 15.570312 13.355469 Z M 28.117188 13.355469 L 28.300781 13.355469 C 29.027344 14.515625 29.628906 15.683594 30.007812 16.898438 L 30.007812 16.910156 C 30.425781 18.230469 30.632812 19.535156 30.632812 20.839844 C 30.632812 22.152344 30.433594 23.503906 30.019531 24.914062 C 29.640625 26.199219 29.042969 27.417969 28.324219 28.601562 L 28.15625 28.601562 C 28.574219 27.5625 28.992188 26.523438 29.199219 25.671875 L 29.199219 25.660156 C 29.59375 24.046875 29.796875 22.5 29.796875 21.023438 C 29.796875 19.628906 29.652344 18.292969 29.367188 17.03125 L 29.367188 17.015625 C 29.144531 16.007812 28.648438 14.703125 28.117188 13.355469 Z M 16.339844 15.859375 L 16.949219 16.765625 L 19.6875 20.839844 L 16.261719 26.019531 C 16.195312 25.796875 16.050781 25.488281 16 25.285156 C 15.632812 23.773438 15.453125 22.359375 15.453125 21.023438 C 15.453125 19.726562 15.578125 18.492188 15.832031 17.335938 L 15.832031 17.324219 C 15.917969 16.941406 16.199219 16.3125 16.339844 15.859375 Z M 18.800781 17.070312 L 19.949219 17.070312 L 21.835938 20.199219 L 23.84375 17.070312 L 24.859375 17.070312 L 22.398438 20.71875 L 25.148438 24.871094 L 24 24.871094 L 21.863281 21.425781 L 19.6875 24.871094 L 18.65625 24.871094 L 21.328125 20.824219 Z M 18.800781 17.070312 "/>
</g>
</svg>
