<?xml version="1.0" encoding="UTF-8"?>
<svg xmlns="http://www.w3.org/2000/svg" xmlns:xlink="http://www.w3.org/1999/xlink" width="32" height="32" viewBox="0 0 32 32" version="1.1">
<g id="surface1">
<path style=" stroke:none;fill-rule:nonzero;fill:rgb(100%,100%,100%);fill-opacity:1;" d="M 22.667969 5.332031 C 27.085938 5.332031 30.667969 8.914062 30.667969 13.332031 L 30.667969 18.667969 C 30.667969 23.085938 27.085938 26.667969 22.667969 26.667969 L 9.332031 26.667969 C 4.914062 26.667969 1.332031 23.085938 1.332031 18.667969 L 1.332031 13.332031 C 1.332031 8.914062 4.914062 5.332031 9.332031 5.332031 Z M 13.332031 12 L 10.667969 12 L 10.667969 14.667969 L 8 14.667969 L 8 17.332031 L 10.664062 17.332031 L 10.667969 20 L 13.332031 20 L 13.332031 17.332031 L 16 17.332031 L 16 14.667969 L 13.332031 14.667969 Z M 24 17.332031 L 21.332031 17.332031 L 21.332031 20 L 24 20 Z M 21.332031 12 L 18.667969 12 L 18.667969 14.667969 L 21.332031 14.667969 Z M 21.332031 12 "/>
</g>
</svg>
