<?xml version="1.0" encoding="UTF-8"?>
<svg xmlns="http://www.w3.org/2000/svg" xmlns:xlink="http://www.w3.org/1999/xlink" width="32" height="32" viewBox="0 0 32 32" version="1.1">
<g id="surface1">
<path style=" stroke:none;fill-rule:nonzero;fill:rgb(100%,100%,100%);fill-opacity:1;" d="M 16 2.667969 C 22.628906 2.667969 28 8.039062 28 14.667969 L 28 24.667969 C 28 26.714844 26.667969 28.523438 24.710938 29.128906 C 22.757812 29.730469 20.632812 28.992188 19.480469 27.300781 C 18.769531 28.558594 17.441406 29.335938 15.996094 29.335938 C 14.554688 29.335938 13.226562 28.558594 12.515625 27.300781 C 11.386719 28.949219 9.335938 29.695312 7.410156 29.160156 C 5.488281 28.621094 4.117188 26.917969 4.007812 24.925781 L 4 24.664062 L 4 14.667969 C 4 8.039062 9.371094 2.667969 16 2.667969 Z M 16 5.332031 C 10.96875 5.332031 6.84375 9.320312 6.671875 14.347656 L 6.667969 14.667969 L 6.667969 24.777344 C 6.714844 25.597656 7.257812 26.304688 8.035156 26.5625 C 8.8125 26.820312 9.667969 26.578125 10.195312 25.953125 L 10.3125 25.796875 C 10.832031 25.035156 11.707031 24.597656 12.628906 24.636719 C 13.546875 24.675781 14.382812 25.183594 14.835938 25.988281 C 15.074219 26.40625 15.515625 26.664062 15.996094 26.664062 C 16.476562 26.667969 16.921875 26.410156 17.15625 25.992188 C 17.589844 25.222656 18.375 24.714844 19.257812 24.640625 C 20.136719 24.566406 20.996094 24.933594 21.550781 25.621094 L 21.679688 25.792969 C 22.15625 26.488281 23.015625 26.8125 23.832031 26.605469 C 24.648438 26.394531 25.246094 25.699219 25.324219 24.859375 L 25.332031 24.667969 L 25.332031 14.667969 C 25.332031 9.511719 21.15625 5.332031 16 5.332031 Z M 16 16 C 17.472656 16 18.667969 17.492188 18.667969 19.332031 C 18.667969 21.171875 17.472656 22.667969 16 22.667969 C 14.527344 22.667969 13.332031 21.171875 13.332031 19.332031 C 13.332031 17.492188 14.527344 16 16 16 Z M 12.667969 10.667969 C 13.769531 10.667969 14.667969 11.5625 14.667969 12.667969 C 14.667969 13.769531 13.769531 14.667969 12.667969 14.667969 C 11.5625 14.667969 10.667969 13.769531 10.667969 12.667969 C 10.667969 11.5625 11.5625 10.667969 12.667969 10.667969 Z M 19.332031 10.667969 C 20.4375 10.667969 21.332031 11.5625 21.332031 12.667969 C 21.332031 13.769531 20.4375 14.667969 19.332031 14.667969 C 18.230469 14.667969 17.332031 13.769531 17.332031 12.667969 C 17.332031 11.5625 18.230469 10.667969 19.332031 10.667969 Z M 19.332031 10.667969 "/>
</g>
</svg>
