<?xml version="1.0" encoding="UTF-8"?>
<svg xmlns="http://www.w3.org/2000/svg" xmlns:xlink="http://www.w3.org/1999/xlink" width="32" height="32" viewBox="0 0 32 32" version="1.1">
<g id="surface1">
<path style=" stroke:none;fill-rule:nonzero;fill:rgb(100%,100%,100%);fill-opacity:1;" d="M 20 2.667969 C 21.90625 2.667969 23.667969 3.683594 24.621094 5.332031 C 25.574219 6.984375 25.570312 9.019531 24.617188 10.667969 L 30.667969 10.667969 L 30.667969 13.332031 L 28 13.332031 L 28 26.667969 C 28 27.402344 27.402344 28 26.667969 28 L 5.332031 28 C 4.597656 28 4 27.402344 4 26.667969 L 4 13.332031 L 1.332031 13.332031 L 1.332031 10.667969 L 7.382812 10.667969 C 6.011719 8.292969 6.660156 5.269531 8.886719 3.671875 C 11.113281 2.070312 14.1875 2.417969 16 4.472656 C 17.011719 3.324219 18.46875 2.664062 20 2.667969 Z M 17.332031 13.332031 L 14.667969 13.332031 L 14.667969 26.667969 L 17.332031 26.667969 Z M 12 5.332031 C 10.5625 5.328125 9.378906 6.460938 9.324219 7.898438 C 9.269531 9.335938 10.363281 10.558594 11.800781 10.660156 L 12 10.667969 L 14.667969 10.667969 L 14.667969 8 C 14.667969 6.683594 13.707031 5.5625 12.402344 5.363281 L 12.199219 5.339844 Z M 20 5.332031 C 18.605469 5.332031 17.445312 6.410156 17.339844 7.800781 L 17.332031 8 L 17.332031 10.667969 L 20 10.667969 C 21.394531 10.667969 22.554688 9.589844 22.660156 8.199219 L 22.667969 8 C 22.667969 6.527344 21.472656 5.332031 20 5.332031 Z M 20 5.332031 "/>
</g>
</svg>
