<?xml version="1.0" encoding="UTF-8"?>
<svg xmlns="http://www.w3.org/2000/svg" xmlns:xlink="http://www.w3.org/1999/xlink" width="32" height="32" viewBox="0 0 32 32" version="1.1">
<g id="surface1">
<path style=" stroke:none;fill-rule:nonzero;fill:rgb(100%,100%,100%);fill-opacity:1;" d="M 8 13.332031 L 8 26.667969 L 25.332031 26.667969 L 25.332031 13.332031 Z M 24 10.667969 L 26.667969 10.667969 C 27.402344 10.667969 28 11.261719 28 12 L 28 28 C 28 28.738281 27.402344 29.332031 26.667969 29.332031 L 5.332031 29.332031 C 4.597656 29.332031 4 28.738281 4 28 L 4 12 C 4 11.261719 4.597656 10.667969 5.332031 10.667969 L 8 10.667969 L 8 9.332031 C 8 4.914062 11.582031 1.332031 16 1.332031 C 20.417969 1.332031 24 4.914062 24 9.332031 Z M 21.332031 10.667969 L 21.332031 9.332031 C 21.332031 6.386719 18.945312 4 16 4 C 13.054688 4 10.667969 6.386719 10.667969 9.332031 L 10.667969 10.667969 Z M 9.332031 14.667969 L 12 14.667969 L 12 17.332031 L 9.332031 17.332031 Z M 9.332031 18.667969 L 12 18.667969 L 12 21.332031 L 9.332031 21.332031 Z M 9.332031 22.667969 L 12 22.667969 L 12 25.332031 L 9.332031 25.332031 Z M 9.332031 22.667969 "/>
</g>
</svg>
