<?xml version="1.0" encoding="UTF-8"?>
<svg xmlns="http://www.w3.org/2000/svg" xmlns:xlink="http://www.w3.org/1999/xlink" width="32" height="32" viewBox="0 0 32 32" version="1.1">
<g id="surface1">
<path style=" stroke:none;fill-rule:nonzero;fill:rgb(100%,100%,100%);fill-opacity:1;" d="M 7.84375 24.871094 C 7.445312 24.605469 7.101562 24.265625 6.699219 23.78125 C 6.488281 23.527344 6.28125 23.269531 6.074219 23.011719 C 5.457031 22.242188 5.070312 21.890625 4.667969 21.746094 C 3.972656 21.496094 3.613281 20.734375 3.863281 20.039062 C 4.109375 19.347656 4.875 18.984375 5.566406 19.234375 C 6.570312 19.59375 7.25 20.214844 8.164062 21.351562 C 8.039062 21.195312 8.617188 21.921875 8.742188 22.070312 C 8.996094 22.375 9.179688 22.558594 9.328125 22.65625 C 9.601562 22.835938 10.109375 22.914062 10.863281 22.839844 C 10.890625 22.332031 10.988281 21.835938 11.128906 21.382812 C 7.171875 20.414062 4.933594 17.863281 4.933594 12.851562 C 4.933594 11.199219 5.425781 9.710938 6.34375 8.464844 C 6.054688 7.273438 6.097656 5.832031 6.746094 4.207031 C 6.894531 3.835938 7.203125 3.550781 7.585938 3.433594 C 7.695312 3.398438 7.757812 3.386719 7.863281 3.371094 C 8.933594 3.207031 10.445312 3.597656 12.417969 4.832031 C 13.589844 4.554688 14.792969 4.417969 16 4.421875 C 17.214844 4.421875 18.425781 4.558594 19.578125 4.832031 C 21.546875 3.585938 23.0625 3.195312 24.140625 3.371094 C 24.253906 3.386719 24.351562 3.410156 24.433594 3.4375 C 24.808594 3.558594 25.109375 3.84375 25.253906 4.210938 C 25.902344 5.832031 25.945312 7.273438 25.65625 8.460938 C 26.578125 9.710938 27.066406 11.1875 27.066406 12.851562 C 27.066406 17.863281 24.835938 20.40625 20.878906 21.375 C 21.042969 21.929688 21.128906 22.546875 21.128906 23.214844 C 21.128906 24.421875 21.125 25.628906 21.113281 26.835938 C 21.730469 26.972656 22.167969 27.519531 22.164062 28.152344 C 22.15625 28.785156 21.710938 29.324219 21.089844 29.449219 C 19.570312 29.753906 18.445312 28.738281 18.445312 27.414062 L 18.449219 26.820312 L 18.453125 25.878906 C 18.460938 24.9375 18.464844 24.097656 18.464844 23.214844 C 18.464844 22.285156 18.21875 21.679688 17.898438 21.402344 C 17.015625 20.644531 17.460938 19.195312 18.617188 19.066406 C 22.574219 18.621094 24.398438 17.089844 24.398438 12.851562 C 24.398438 11.578125 23.984375 10.527344 23.183594 9.648438 C 22.839844 9.269531 22.738281 8.730469 22.929688 8.253906 C 23.152344 7.703125 23.246094 6.980469 23.058594 6.101562 L 23.042969 6.105469 C 22.390625 6.292969 21.5625 6.691406 20.566406 7.371094 C 20.242188 7.59375 19.835938 7.660156 19.457031 7.550781 C 18.332031 7.242188 17.167969 7.082031 16 7.085938 C 14.8125 7.085938 13.636719 7.246094 12.542969 7.554688 C 12.167969 7.660156 11.761719 7.59375 11.4375 7.375 C 10.433594 6.699219 9.605469 6.296875 8.945312 6.113281 C 8.753906 6.984375 8.847656 7.703125 9.070312 8.253906 C 9.257812 8.730469 9.160156 9.269531 8.816406 9.648438 C 8.019531 10.519531 7.601562 11.59375 7.601562 12.851562 C 7.601562 17.082031 9.429688 18.625 13.363281 19.066406 C 14.515625 19.195312 14.964844 20.636719 14.089844 21.398438 C 13.832031 21.621094 13.515625 22.375 13.515625 23.214844 L 13.515625 27.414062 C 13.515625 28.730469 12.402344 29.714844 10.902344 29.453125 C 10.273438 29.34375 9.8125 28.804688 9.800781 28.167969 C 9.789062 27.53125 10.226562 26.972656 10.847656 26.835938 L 10.847656 25.515625 C 9.636719 25.597656 8.632812 25.398438 7.84375 24.871094 Z M 7.84375 24.871094 "/>
</g>
</svg>
