<?xml version="1.0" encoding="UTF-8"?>
<svg xmlns="http://www.w3.org/2000/svg" xmlns:xlink="http://www.w3.org/1999/xlink" width="32" height="32" viewBox="0 0 32 32" version="1.1">
<g id="surface1">
<path style=" stroke:none;fill-rule:nonzero;fill:rgb(100%,100%,100%);fill-opacity:1;" d="M 16 2.667969 C 8.632812 2.667969 2.667969 8.632812 2.667969 16 C 2.664062 21.742188 6.335938 26.835938 11.785156 28.652344 C 12.449219 28.765625 12.699219 28.367188 12.699219 28.015625 C 12.699219 27.699219 12.683594 26.652344 12.683594 25.535156 C 9.332031 26.152344 8.464844 24.71875 8.199219 23.964844 C 8.050781 23.582031 7.398438 22.398438 6.832031 22.082031 C 6.367188 21.832031 5.699219 21.214844 6.816406 21.199219 C 7.867188 21.183594 8.617188 22.167969 8.867188 22.566406 C 10.066406 24.582031 11.984375 24.015625 12.75 23.667969 C 12.867188 22.800781 13.214844 22.21875 13.601562 21.882812 C 10.632812 21.550781 7.535156 20.398438 7.535156 15.300781 C 7.535156 13.847656 8.050781 12.652344 8.898438 11.714844 C 8.765625 11.382812 8.300781 10.015625 9.035156 8.183594 C 9.035156 8.183594 10.148438 7.832031 12.699219 9.550781 C 13.785156 9.25 14.90625 9.097656 16.035156 9.101562 C 17.167969 9.101562 18.300781 9.25 19.367188 9.550781 C 21.914062 7.816406 23.035156 8.183594 23.035156 8.183594 C 23.765625 10.015625 23.300781 11.382812 23.167969 11.71875 C 24.015625 12.652344 24.535156 13.832031 24.535156 15.300781 C 24.535156 20.417969 21.417969 21.550781 18.449219 21.882812 C 18.933594 22.300781 19.351562 23.101562 19.351562 24.351562 C 19.351562 26.132812 19.332031 27.566406 19.332031 28.015625 C 19.332031 28.367188 19.585938 28.78125 20.25 28.648438 C 25.675781 26.816406 29.332031 21.726562 29.332031 16 C 29.332031 8.632812 23.367188 2.667969 16 2.667969 Z M 16 2.667969 "/>
</g>
</svg>
