<?xml version="1.0" encoding="UTF-8"?>
<svg xmlns="http://www.w3.org/2000/svg" xmlns:xlink="http://www.w3.org/1999/xlink" width="32" height="32" viewBox="0 0 32 32" version="1.1">
<g id="surface1">
<path style=" stroke:none;fill-rule:nonzero;fill:rgb(100%,100%,100%);fill-opacity:1;" d="M 17.332031 28 L 24 28 L 24 30.667969 L 8 30.667969 L 8 28 L 14.667969 28 L 14.667969 26.601562 C 10.378906 26.167969 6.5625 23.691406 4.421875 19.949219 L 6.738281 18.625 C 8.96875 22.527344 13.40625 24.609375 17.835938 23.835938 C 22.261719 23.0625 25.726562 19.59375 26.503906 15.167969 C 27.277344 10.742188 25.195312 6.304688 21.292969 4.070312 L 22.617188 1.753906 C 26.769531 4.128906 29.335938 8.546875 29.332031 13.332031 C 29.332031 20.246094 24.070312 25.933594 17.332031 26.601562 Z M 16 22.667969 C 10.84375 22.667969 6.667969 18.488281 6.667969 13.332031 C 6.667969 8.179688 10.84375 4 16 4 C 21.15625 4 25.332031 8.179688 25.332031 13.332031 C 25.332031 18.488281 21.15625 22.667969 16 22.667969 Z M 16 20 C 19.683594 20 22.667969 17.015625 22.667969 13.332031 C 22.667969 9.652344 19.683594 6.667969 16 6.667969 C 12.316406 6.667969 9.332031 9.652344 9.332031 13.332031 C 9.332031 17.015625 12.316406 20 16 20 Z M 16 20 "/>
</g>
</svg>
