<?xml version="1.0" encoding="UTF-8"?>
<svg xmlns="http://www.w3.org/2000/svg" xmlns:xlink="http://www.w3.org/1999/xlink" width="32" height="32" viewBox="0 0 32 32" version="1.1">
<g id="surface1">
<path style=" stroke:none;fill-rule:nonzero;fill:rgb(100%,100%,100%);fill-opacity:1;" d="M 16 29.332031 C 8.636719 29.332031 2.667969 23.363281 2.667969 16 C 2.667969 8.636719 8.636719 2.667969 16 2.667969 C 23.363281 2.667969 29.332031 8.636719 29.332031 16 C 29.332031 23.363281 23.363281 29.332031 16 29.332031 Z M 12.945312 26.222656 C 11.632812 23.433594 10.871094 20.414062 10.703125 17.332031 L 5.414062 17.332031 C 5.945312 21.527344 8.898438 25.011719 12.945312 26.222656 Z M 13.375 17.332031 C 13.574219 20.585938 14.503906 23.640625 16 26.335938 C 17.535156 23.570312 18.433594 20.492188 18.625 17.332031 Z M 26.585938 17.332031 L 21.296875 17.332031 C 21.128906 20.414062 20.367188 23.433594 19.054688 26.222656 C 23.101562 25.011719 26.054688 21.527344 26.585938 17.332031 Z M 5.414062 14.667969 L 10.703125 14.667969 C 10.871094 11.585938 11.632812 8.566406 12.945312 5.777344 C 8.898438 6.988281 5.945312 10.472656 5.414062 14.667969 Z M 13.375 14.667969 L 18.625 14.667969 C 18.433594 11.507812 17.535156 8.429688 16 5.664062 C 14.464844 8.429688 13.566406 11.507812 13.375 14.667969 Z M 19.054688 5.777344 C 20.367188 8.566406 21.128906 11.585938 21.296875 14.667969 L 26.585938 14.667969 C 26.054688 10.472656 23.101562 6.988281 19.054688 5.777344 Z M 19.054688 5.777344 "/>
</g>
</svg>
