<?xml version="1.0" encoding="UTF-8"?>
<svg xmlns="http://www.w3.org/2000/svg" xmlns:xlink="http://www.w3.org/1999/xlink" width="32" height="32" viewBox="0 0 32 32" version="1.1">
<g id="surface1">
<path style=" stroke:none;fill-rule:nonzero;fill:rgb(100%,100%,100%);fill-opacity:1;" d="M 5.332031 2.3125 C 5.566406 2.3125 5.796875 2.375 6 2.492188 L 27.339844 14.847656 C 27.75 15.085938 28.003906 15.523438 28.003906 16 C 28.003906 16.476562 27.75 16.914062 27.339844 17.152344 L 6 29.507812 C 5.589844 29.746094 5.082031 29.746094 4.667969 29.507812 C 4.253906 29.269531 4 28.832031 4 28.355469 L 4 3.644531 C 4 2.910156 4.597656 2.3125 5.332031 2.3125 Z M 16.390625 17.886719 L 10.390625 23.882812 L 17.992188 19.484375 L 16.390625 17.882812 Z M 6.667969 8.15625 L 6.667969 23.835938 L 14.507812 15.996094 Z M 20.378906 13.894531 L 18.273438 16 L 20.378906 18.101562 L 24.011719 16 Z M 10.390625 8.113281 L 16.390625 14.113281 L 17.992188 12.511719 Z M 10.390625 8.113281 "/>
</g>
</svg>
