<?xml version="1.0" encoding="UTF-8"?>
<svg xmlns="http://www.w3.org/2000/svg" xmlns:xlink="http://www.w3.org/1999/xlink" width="32" height="32" viewBox="0 0 32 32" version="1.1">
<g id="surface1">
<path style=" stroke:none;fill-rule:nonzero;fill:rgb(100%,100%,100%);fill-opacity:1;" d="M 26.667969 2.667969 C 27.402344 2.667969 28 3.261719 28 4 L 28 10.667969 C 28 11.402344 27.402344 12 26.667969 12 L 20 12 L 20 29.332031 C 20 30.070312 19.402344 30.667969 18.667969 30.667969 L 13.332031 30.667969 C 12.597656 30.667969 12 30.070312 12 29.332031 L 12 12 L 4.667969 12 C 3.929688 12 3.332031 11.402344 3.332031 10.667969 L 3.332031 7.492188 C 3.332031 6.984375 3.617188 6.523438 4.070312 6.296875 L 11.332031 2.667969 Z M 20 5.332031 L 11.960938 5.332031 L 6 8.316406 L 6 9.332031 L 14.667969 9.332031 L 14.667969 28 L 17.332031 28 L 17.332031 9.332031 L 20 9.332031 Z M 25.332031 5.332031 L 22.667969 5.332031 L 22.667969 9.332031 L 25.332031 9.332031 Z M 25.332031 5.332031 "/>
</g>
</svg>
