<?xml version="1.0" encoding="UTF-8"?>
<svg xmlns="http://www.w3.org/2000/svg" xmlns:xlink="http://www.w3.org/1999/xlink" width="32" height="32" viewBox="0 0 32 32" version="1.1">
<g id="surface1">
<path style=" stroke:none;fill-rule:nonzero;fill:rgb(100%,100%,100%);fill-opacity:1;" d="M 12.441406 15.332031 L 15.332031 15.332031 C 18.648438 15.332031 21.332031 18.019531 21.332031 21.332031 L 12 21.332031 L 12 22.667969 L 22.667969 22.667969 L 22.667969 21.332031 C 22.664062 19.914062 22.253906 18.527344 21.484375 17.332031 L 25.332031 17.332031 C 27.90625 17.332031 30.25 18.8125 31.355469 21.132812 C 28.203125 25.296875 23.097656 28 17.332031 28 C 13.652344 28 10.535156 27.214844 8 25.832031 L 8 13.429688 C 9.621094 13.660156 11.152344 14.316406 12.441406 15.332031 Z M 5.332031 12 C 6.007812 12 6.578125 12.507812 6.65625 13.175781 L 6.667969 13.332031 L 6.667969 25.332031 C 6.667969 26.070312 6.070312 26.667969 5.332031 26.667969 L 2.667969 26.667969 C 1.929688 26.667969 1.332031 26.070312 1.332031 25.332031 L 1.332031 13.332031 C 1.332031 12.597656 1.929688 12 2.667969 12 Z M 18.195312 4.765625 L 18.667969 5.238281 L 19.136719 4.769531 C 19.980469 3.917969 21.210938 3.585938 22.363281 3.894531 C 23.519531 4.203125 24.417969 5.101562 24.726562 6.257812 C 25.035156 7.410156 24.699219 8.640625 23.851562 9.484375 L 18.667969 14.667969 L 13.480469 9.480469 C 12.632812 8.640625 12.296875 7.410156 12.605469 6.253906 C 12.914062 5.101562 13.816406 4.199219 14.96875 3.890625 C 16.125 3.585938 17.355469 3.917969 18.195312 4.765625 Z M 18.195312 4.765625 "/>
</g>
</svg>
