<?xml version="1.0" encoding="UTF-8"?>
<svg xmlns="http://www.w3.org/2000/svg" xmlns:xlink="http://www.w3.org/1999/xlink" width="32" height="32" viewBox="0 0 32 32" version="1.1">
<g id="surface1">
<path style=" stroke:none;fill-rule:nonzero;fill:rgb(100%,100%,100%);fill-opacity:1;" d="M 6.667969 22.574219 C 2.613281 20.230469 0.5625 15.515625 1.609375 10.953125 C 2.65625 6.390625 6.558594 3.042969 11.226562 2.699219 C 15.898438 2.359375 20.242188 5.101562 21.945312 9.464844 C 25.808594 8.699219 29.589844 11.128906 30.5 14.964844 C 31.410156 18.796875 29.128906 22.667969 25.332031 23.722656 L 25.332031 20.882812 C 27.019531 20.085938 28.066406 18.359375 27.996094 16.496094 C 27.925781 14.632812 26.757812 12.988281 25.015625 12.316406 C 23.277344 11.644531 21.304688 12.070312 20 13.402344 L 20 13.332031 C 20 9.65625 17.496094 6.453125 13.925781 5.570312 C 10.359375 4.683594 6.648438 6.34375 4.929688 9.59375 C 3.210938 12.84375 3.925781 16.84375 6.667969 19.296875 Z M 9.332031 18.667969 L 12 18.667969 L 12 26.667969 L 9.332031 26.667969 Z M 20 18.667969 L 22.667969 18.667969 L 22.667969 26.667969 L 20 26.667969 Z M 14.667969 22.667969 L 17.332031 22.667969 L 17.332031 30.667969 L 14.667969 30.667969 Z M 14.667969 22.667969 "/>
</g>
</svg>
