<?xml version="1.0" encoding="UTF-8"?>
<svg xmlns="http://www.w3.org/2000/svg" xmlns:xlink="http://www.w3.org/1999/xlink" width="32" height="32" viewBox="0 0 32 32" version="1.1">
<g id="surface1">
<path style=" stroke:none;fill-rule:nonzero;fill:rgb(100%,100%,100%);fill-opacity:1;" d="M 8 2 C 6.285156 2 4.894531 3.390625 4.894531 5.105469 C 4.894531 6.820312 6.285156 8.214844 8 8.214844 C 9.714844 8.214844 11.105469 6.820312 11.105469 5.105469 C 11.105469 3.390625 9.714844 2 8 2 Z M 8 9.679688 C 4.390625 9.679688 3.496094 13.960938 3.339844 17.285156 L 0.714844 17.285156 C 0.523438 17.285156 0.34375 17.359375 0.210938 17.496094 C 0.0742188 17.628906 0 17.808594 0 18 L 0 28 C 0 30.210938 1.789062 32 4 32 L 28 32 C 30.210938 32 32 30.210938 32 28 L 32 18 C 32 17.808594 31.925781 17.628906 31.789062 17.496094 C 31.65625 17.359375 31.476562 17.285156 31.285156 17.285156 L 12.660156 17.285156 C 12.503906 13.960938 11.609375 9.679688 8 9.679688 Z M 8 9.679688 "/>
<path style=" stroke:none;fill-rule:evenodd;fill:rgb(100%,100%,100%);fill-opacity:1;" d="M 21.683594 5.785156 C 21.683594 5 21.214844 4.410156 20.636719 3.851562 C 20.058594 3.292969 19.273438 2.695312 18.246094 1.902344 L 17.136719 3.335938 C 18.164062 4.128906 18.933594 4.714844 19.382812 5.148438 C 19.832031 5.582031 19.867188 5.78125 19.867188 5.785156 C 19.867188 5.789062 19.832031 5.984375 19.382812 6.417969 C 18.933594 6.851562 18.164062 7.441406 17.136719 8.234375 C 16.109375 9.027344 15.339844 9.625 14.761719 10.183594 C 14.183594 10.742188 13.710938 11.332031 13.710938 12.117188 C 13.710938 12.902344 14.183594 13.492188 14.761719 14.050781 C 15.339844 14.609375 16.109375 15.207031 17.136719 16 L 18.246094 14.570312 C 17.21875 13.777344 16.449219 13.1875 16 12.753906 C 15.550781 12.320312 15.511719 12.121094 15.511719 12.117188 C 15.511719 12.113281 15.550781 11.917969 16 11.484375 C 16.449219 11.050781 17.21875 10.460938 18.246094 9.667969 C 19.273438 8.875 20.058594 8.277344 20.636719 7.71875 C 21.214844 7.160156 21.683594 6.570312 21.683594 5.785156 Z M 21.683594 5.785156 "/>
<path style=" stroke:none;fill-rule:evenodd;fill:rgb(100%,100%,100%);fill-opacity:1;" d="M 26.828125 5.785156 C 26.828125 5 26.359375 4.410156 25.78125 3.851562 C 25.203125 3.292969 24.417969 2.695312 23.390625 1.902344 L 22.28125 3.335938 C 23.308594 4.128906 24.078125 4.714844 24.527344 5.148438 C 24.976562 5.582031 25.011719 5.78125 25.011719 5.785156 C 25.011719 5.789062 24.976562 5.984375 24.527344 6.417969 C 24.078125 6.851562 23.308594 7.441406 22.28125 8.234375 C 21.253906 9.027344 20.484375 9.625 19.90625 10.183594 C 19.328125 10.742188 18.855469 11.332031 18.855469 12.117188 C 18.855469 12.902344 19.328125 13.492188 19.90625 14.050781 C 20.484375 14.609375 21.253906 15.207031 22.28125 16 L 23.390625 14.570312 C 22.363281 13.777344 21.59375 13.1875 21.144531 12.753906 C 20.695312 12.320312 20.65625 12.121094 20.65625 12.117188 C 20.65625 12.113281 20.695312 11.917969 21.144531 11.484375 C 21.59375 11.050781 22.363281 10.460938 23.390625 9.667969 C 24.417969 8.875 25.203125 8.277344 25.78125 7.71875 C 26.359375 7.160156 26.828125 6.570312 26.828125 5.785156 Z M 26.828125 5.785156 "/>
<path style=" stroke:none;fill-rule:evenodd;fill:rgb(100%,100%,100%);fill-opacity:1;" d="M 31.972656 5.785156 C 31.972656 5 31.503906 4.410156 30.925781 3.851562 C 30.347656 3.292969 29.5625 2.695312 28.535156 1.902344 L 27.425781 3.335938 C 28.453125 4.128906 29.222656 4.714844 29.671875 5.148438 C 30.121094 5.582031 30.15625 5.78125 30.15625 5.785156 C 30.15625 5.789062 30.121094 5.984375 29.671875 6.417969 C 29.222656 6.851562 28.453125 7.441406 27.425781 8.234375 C 26.398438 9.027344 25.628906 9.625 25.050781 10.183594 C 24.472656 10.742188 24 11.332031 24 12.117188 C 24 12.902344 24.472656 13.492188 25.050781 14.050781 C 25.628906 14.609375 26.398438 15.207031 27.425781 16 L 28.535156 14.570312 C 27.507812 13.777344 26.738281 13.1875 26.289062 12.753906 C 25.839844 12.320312 25.800781 12.121094 25.800781 12.117188 C 25.800781 12.113281 25.839844 11.917969 26.289062 11.484375 C 26.738281 11.050781 27.507812 10.460938 28.535156 9.667969 C 29.5625 8.875 30.347656 8.277344 30.925781 7.71875 C 31.503906 7.160156 31.972656 6.570312 31.972656 5.785156 Z M 31.972656 5.785156 "/>
</g>
</svg>
