<?xml version="1.0" encoding="UTF-8"?>
<svg xmlns="http://www.w3.org/2000/svg" xmlns:xlink="http://www.w3.org/1999/xlink" width="32" height="32" viewBox="0 0 32 32" version="1.1">
<g id="surface1">
<path style=" stroke:none;fill-rule:nonzero;fill:rgb(100%,100%,100%);fill-opacity:1;" d="M 29.332031 28 L 2.667969 28 L 2.667969 25.332031 L 4 25.332031 L 4 5.332031 C 4 4.597656 4.597656 4 5.332031 4 L 24 4 C 24.738281 4 25.332031 4.597656 25.332031 5.332031 L 25.332031 12 L 28 12 L 28 25.332031 L 29.332031 25.332031 Z M 22.667969 25.332031 L 25.332031 25.332031 L 25.332031 14.667969 L 17.332031 14.667969 L 17.332031 25.332031 L 20 25.332031 L 20 17.332031 L 22.667969 17.332031 Z M 22.667969 12 L 22.667969 6.667969 L 6.667969 6.667969 L 6.667969 25.332031 L 14.667969 25.332031 L 14.667969 12 Z M 9.332031 14.667969 L 12 14.667969 L 12 17.332031 L 9.332031 17.332031 Z M 9.332031 20 L 12 20 L 12 22.667969 L 9.332031 22.667969 Z M 9.332031 9.332031 L 12 9.332031 L 12 12 L 9.332031 12 Z M 9.332031 9.332031 "/>
</g>
</svg>
