<?xml version="1.0" encoding="UTF-8"?>
<svg xmlns="http://www.w3.org/2000/svg" xmlns:xlink="http://www.w3.org/1999/xlink" width="32" height="32" viewBox="0 0 32 32" version="1.1">
<g id="surface1">
<path style=" stroke:none;fill-rule:evenodd;fill:rgb(100%,100%,100%);fill-opacity:1;" d="M 1 0 C 0.449219 0 0 0.449219 0 1 L 0 31 C 0 31.550781 0.449219 32 1 32 L 31 32 C 31.550781 32 32 31.550781 32 31 L 32 1 C 32 0.449219 31.550781 0 31 0 Z M 16 5 C 22.085938 5 27 9.914062 27 16 C 27 22.085938 22.085938 27 16 27 C 9.914062 27 5 22.085938 5 16 C 5 9.914062 9.914062 5 16 5 Z M 16 5 "/>
<path style="fill-rule:nonzero;fill:rgb(100%,100%,100%);fill-opacity:1;stroke-width:0.0248215;stroke-linecap:butt;stroke-linejoin:miter;stroke:rgb(0%,0%,0%);stroke-opacity:1;stroke-miterlimit:4;" d="M 2.762105 3.093868 C 2.695443 3.074231 2.6479 3.030306 2.607076 2.949691 C 2.596741 2.929537 2.57452 2.871659 2.557983 2.821017 C 2.505273 2.659786 2.465999 2.594157 2.349211 2.473751 L 2.302185 2.425175 L 2.270146 2.441712 C 2.216919 2.4691 2.169893 2.478919 2.106848 2.476335 L 2.053621 2.473234 L 2.035535 2.512508 C 2.000911 2.586406 1.925464 2.686658 1.827279 2.789494 C 1.672249 2.950724 1.53634 3.030823 1.404049 3.037541 C 1.274341 3.044776 1.170988 2.98018 1.079004 2.834969 C 0.999939 2.709912 0.956531 2.576587 0.956531 2.458765 C 0.957047 2.30787 1.019059 2.214335 1.136365 2.188497 C 1.18184 2.178162 1.261938 2.182813 1.333769 2.198832 C 1.496549 2.236039 1.579748 2.234489 1.736328 2.190047 L 1.808675 2.169377 L 1.811776 2.127002 C 1.816427 2.058272 1.839681 1.99471 1.877921 1.945618 C 1.88619 1.934766 1.893424 1.92443 1.893424 1.92288 C 1.893424 1.920813 1.888257 1.913062 1.882056 1.90531 C 1.823661 1.832963 1.736845 1.580265 1.713074 1.41335 C 1.69137 1.264006 1.702222 1.147217 1.74563 1.05575 C 1.812292 0.91519 1.948201 0.851628 2.162659 0.860413 C 2.365747 0.868681 2.522843 0.947229 2.581238 1.070736 C 2.610693 1.132231 2.607593 1.198377 2.571936 1.275374 C 2.551265 1.320333 2.525944 1.357023 2.4691 1.423169 C 2.36523 1.543058 2.324923 1.622123 2.286165 1.781287 C 2.278931 1.812809 2.271179 1.841231 2.270146 1.845365 C 2.268079 1.850016 2.276864 1.858801 2.297017 1.872754 C 2.351278 1.908927 2.406055 1.980241 2.422591 2.034501 L 2.427759 2.051038 L 2.510958 2.051554 C 2.604492 2.051554 2.673222 2.06189 2.795178 2.094963 C 2.918685 2.128036 3.024105 2.173511 3.10317 2.228288 C 3.256649 2.334741 3.310909 2.48822 3.256132 2.66237 C 3.219958 2.777092 3.126424 2.923336 3.042708 2.9962 C 2.948657 3.077332 2.83807 3.116089 2.762105 3.093868 Z M 2.762105 3.093868 " transform="matrix(7.559055,0,0,7.559055,0.00000113386,0)"/>
</g>
</svg>
