<?xml version="1.0" encoding="UTF-8"?>
<svg xmlns="http://www.w3.org/2000/svg" xmlns:xlink="http://www.w3.org/1999/xlink" width="32" height="32" viewBox="0 0 32 32" version="1.1">
<g id="surface1">
<path style=" stroke:none;fill-rule:nonzero;fill:rgb(100%,100%,100%);fill-opacity:1;" d="M 13.332031 4 C 14.070312 4 14.667969 4.597656 14.667969 5.332031 L 14.667969 26.667969 C 14.667969 27.402344 14.070312 28 13.332031 28 L 5.332031 28 C 4.597656 28 4 27.402344 4 26.667969 L 4 5.332031 C 4 4.597656 4.597656 4 5.332031 4 Z M 12 6.667969 L 6.667969 6.667969 L 6.667969 25.332031 L 12 25.332031 Z M 24 9.332031 C 27.679688 9.332031 30.667969 12.320312 30.667969 16 C 30.667969 19.679688 27.679688 22.667969 24 22.667969 C 20.320312 22.667969 17.332031 19.679688 17.332031 16 C 17.332031 12.320312 20.320312 9.332031 24 9.332031 Z M 25.332031 12 L 22.667969 12 L 22.667969 14.664062 L 20 14.667969 L 20 17.332031 L 22.667969 17.332031 L 22.667969 20 L 25.332031 20 L 25.332031 17.332031 L 28 17.332031 L 28 14.667969 L 25.332031 14.664062 Z M 25.332031 12 "/>
</g>
</svg>
