<?xml version="1.0" encoding="UTF-8"?>
<svg xmlns="http://www.w3.org/2000/svg" xmlns:xlink="http://www.w3.org/1999/xlink" width="32" height="32" viewBox="0 0 32 32" version="1.1">
<g id="surface1">
<path style=" stroke:none;fill-rule:nonzero;fill:rgb(100%,100%,100%);fill-opacity:1;" d="M 13.75 15.421875 L 24.335938 4.835938 L 27.164062 7.664062 L 25.28125 9.546875 L 28.109375 12.375 L 23.394531 17.089844 L 20.566406 14.261719 L 16.578125 18.25 C 18.097656 21.167969 17.257812 24.757812 14.609375 26.703125 C 11.957031 28.648438 8.28125 28.371094 5.953125 26.046875 C 3.621094 23.722656 3.339844 20.042969 5.289062 17.386719 C 7.238281 14.730469 10.832031 13.894531 13.75 15.421875 Z M 12.550781 23.21875 C 13.246094 22.550781 13.523438 21.558594 13.277344 20.625 C 13.035156 19.691406 12.308594 18.964844 11.375 18.722656 C 10.441406 18.476562 9.449219 18.753906 8.78125 19.449219 C 7.769531 20.496094 7.785156 22.15625 8.8125 23.1875 C 9.84375 24.214844 11.503906 24.230469 12.550781 23.21875 Z M 12.550781 23.21875 "/>
</g>
</svg>
