<?xml version="1.0" encoding="UTF-8"?>
<svg xmlns="http://www.w3.org/2000/svg" xmlns:xlink="http://www.w3.org/1999/xlink" width="32" height="32" viewBox="0 0 32 32" version="1.1">
<g id="surface1">
<path style=" stroke:none;fill-rule:evenodd;fill:rgb(100%,100%,100%);fill-opacity:1;" d="M 13.761719 2.042969 C 12.757812 2.039062 11.796875 2.40625 11.101562 3.054688 C 10.40625 3.703125 9.933594 4.628906 9.921875 5.65625 C 9.910156 6.683594 10.375 7.765625 11.292969 8.695312 C 11.292969 8.699219 11.292969 8.707031 11.292969 8.710938 L 11.875 9.292969 L 4.589844 16.578125 C 3.972656 17.1875 3.820312 18.125 4.207031 18.898438 L 8.761719 28 L 6 28 C 4.890625 28 4 28.890625 4 30 C 4 31.109375 4.890625 32 6 32 L 18 32 C 19.109375 32 20 31.109375 20 30 C 20 28.890625 19.109375 28 18 28 L 13.238281 28 L 8.429688 18.394531 L 14.703125 12.121094 L 15 12.417969 L 15 20.003906 C 14.996094 20.410156 15.242188 20.777344 15.617188 20.933594 C 15.992188 21.089844 16.425781 21.003906 16.710938 20.714844 L 28.699219 8.710938 C 28.988281 8.425781 29.078125 7.996094 28.925781 7.621094 C 28.777344 7.246094 28.414062 7 28.007812 6.996094 L 20.417969 6.996094 L 16.710938 3.292969 C 16.707031 3.289062 16.703125 3.28125 16.699219 3.277344 C 15.820312 2.425781 14.765625 2.046875 13.761719 2.042969 Z M 27.386719 13.246094 L 21.871094 18.761719 C 22.503906 19.179688 23.253906 19.429688 24.054688 19.429688 C 26.238281 19.429688 28.054688 17.613281 28.054688 15.429688 C 28.054688 14.628906 27.804688 13.878906 27.386719 13.246094 Z M 27.386719 13.246094 "/>
<path style=" stroke:none;fill-rule:nonzero;fill:rgb(100%,100%,100%);fill-opacity:1;" d="M 16 12 L 16 20 L 28 8 L 20 8 L 16 4 C 13.148438 1.238281 8.929688 4.882812 12 8 Z M 16 12 "/>
</g>
</svg>
