<?xml version="1.0" encoding="UTF-8"?>
<svg xmlns="http://www.w3.org/2000/svg" xmlns:xlink="http://www.w3.org/1999/xlink" width="32" height="32" viewBox="0 0 32 32" version="1.1">
<g id="surface1">
<path style=" stroke:none;fill-rule:nonzero;fill:rgb(100%,100%,100%);fill-opacity:1;" d="M 4.484375 2.261719 L 7.003906 2.261719 L 7.003906 10.53125 C 7.003906 11.816406 7.035156 12.652344 7.097656 13.042969 C 7.210938 13.714844 7.472656 14.234375 7.890625 14.605469 C 8.3125 14.972656 8.871094 15.15625 9.558594 15.15625 C 10.140625 15.15625 10.617188 15.027344 10.984375 14.769531 C 11.351562 14.507812 11.601562 14.144531 11.734375 13.6875 C 11.875 13.222656 11.941406 12.230469 11.941406 10.707031 L 11.941406 2.261719 L 14.472656 2.261719 L 14.472656 10.28125 C 14.472656 12.328125 14.363281 13.8125 14.140625 14.730469 C 13.925781 15.640625 13.433594 16.378906 12.660156 16.949219 C 11.898438 17.511719 10.886719 17.792969 9.628906 17.792969 C 8.324219 17.792969 7.304688 17.558594 6.566406 17.09375 C 5.839844 16.621094 5.308594 15.960938 4.972656 15.113281 C 4.648438 14.261719 4.484375 12.691406 4.484375 10.40625 Z M 4.484375 2.261719 "/>
<path style=" stroke:none;fill-rule:nonzero;fill:rgb(100%,100%,100%);fill-opacity:1;" d="M 20.328125 17.53125 L 15.859375 2.261719 L 18.597656 2.261719 L 21.765625 13.5625 L 24.828125 2.261719 L 27.515625 2.261719 L 23.035156 17.53125 Z M 20.328125 17.53125 "/>
<path style=" stroke:none;fill-rule:evenodd;fill:rgb(100%,100%,100%);fill-opacity:1;" d="M 4 22 C 1.785156 22 0 23.785156 0 26 L 0 28 C 0 30.214844 1.785156 32 4 32 L 28 32 C 30.214844 32 32 30.214844 32 28 L 32 26 C 32 23.785156 30.214844 22 28 22 Z M 24 24 L 28 24 C 29.109375 24 30 24.890625 30 26 L 30 28 C 30 29.109375 29.109375 30 28 30 L 24 30 Z M 24 24 "/>
</g>
</svg>
