<?xml version="1.0" encoding="UTF-8"?>
<svg xmlns="http://www.w3.org/2000/svg" xmlns:xlink="http://www.w3.org/1999/xlink" width="32" height="32" viewBox="0 0 32 32" version="1.1">
<g id="surface1">
<path style=" stroke:none;fill-rule:nonzero;fill:rgb(100%,100%,100%);fill-opacity:1;" d="M 16 2.667969 C 23.363281 2.667969 29.332031 8.636719 29.332031 16 C 29.332031 23.363281 23.363281 29.332031 16 29.332031 C 8.636719 29.332031 2.667969 23.363281 2.667969 16 C 2.667969 8.636719 8.636719 2.667969 16 2.667969 Z M 9.597656 19.574219 L 6.695312 22.476562 C 7.367188 23.4375 8.1875 24.292969 9.121094 25.007812 L 9.527344 25.304688 L 12.425781 22.402344 C 11.347656 21.800781 10.441406 20.9375 9.785156 19.894531 Z M 22.402344 19.574219 C 21.800781 20.652344 20.9375 21.558594 19.894531 22.214844 L 19.574219 22.402344 L 22.476562 25.304688 C 23.4375 24.632812 24.292969 23.8125 25.007812 22.878906 L 25.304688 22.476562 Z M 16 10.667969 C 13.054688 10.667969 10.667969 13.054688 10.667969 16 C 10.667969 18.945312 13.054688 21.332031 16 21.332031 C 18.945312 21.332031 21.332031 18.945312 21.332031 16 C 21.332031 13.054688 18.945312 10.667969 16 10.667969 Z M 9.527344 6.695312 C 8.5625 7.367188 7.707031 8.1875 6.992188 9.121094 L 6.695312 9.527344 L 9.597656 12.425781 C 10.199219 11.347656 11.0625 10.441406 12.105469 9.785156 L 12.425781 9.597656 Z M 22.472656 6.695312 L 19.574219 9.597656 C 20.652344 10.199219 21.558594 11.0625 22.214844 12.105469 L 22.402344 12.425781 L 25.304688 9.527344 C 24.632812 8.5625 23.8125 7.707031 22.878906 6.992188 L 22.476562 6.695312 Z M 22.472656 6.695312 "/>
</g>
</svg>
