<?xml version="1.0" encoding="UTF-8"?>
<svg xmlns="http://www.w3.org/2000/svg" xmlns:xlink="http://www.w3.org/1999/xlink" width="32" height="32" viewBox="0 0 32 32" version="1.1">
<g id="surface1">
<path style=" stroke:none;fill-rule:evenodd;fill:rgb(100%,100%,100%);fill-opacity:1;" d="M 17.394531 0.0585938 C 8.566406 -0.703125 0.820312 5.808594 0.0546875 14.625 C -0.707031 23.445312 5.804688 31.175781 14.632812 31.941406 C 18.707031 32.292969 22.539062 31.089844 25.574219 28.835938 C 26.050781 28.464844 26.527344 28.09375 26.96875 27.671875 C 27.003906 27.632812 27.042969 27.601562 27.082031 27.566406 C 28.289062 26.382812 29.34375 24.996094 30.175781 23.4375 L 30.207031 23.453125 C 30.542969 22.816406 30.820312 22.144531 31.070312 21.457031 L 31.050781 21.453125 C 31.929688 18.953125 32.183594 16.359375 31.886719 13.871094 C 31.871094 13.75 31.851562 13.636719 31.832031 13.519531 C 31.765625 13.046875 31.65625 12.585938 31.550781 12.121094 C 29.9375 5.675781 24.398438 0.667969 17.394531 0.0585938 Z M 22.773438 3.695312 C 25.5 5.144531 27.570312 7.382812 28.828125 10 L 24.589844 11.648438 C 23.839844 10.035156 22.632812 8.664062 21.011719 7.710938 Z M 10.027344 3.417969 L 11.625 7.515625 C 10.039062 8.34375 8.691406 9.605469 7.746094 11.226562 L 3.726562 9.460938 C 5.179688 6.746094 7.414062 4.675781 10.027344 3.417969 Z M 16.800781 8.558594 C 16.851562 8.5625 16.898438 8.582031 16.949219 8.582031 C 17.226562 8.617188 17.5 8.671875 17.777344 8.738281 C 18.628906 8.925781 19.417969 9.25 20.132812 9.695312 L 20.132812 9.691406 C 20.171875 9.714844 20.207031 9.746094 20.246094 9.773438 C 20.65625 10.039062 21.035156 10.335938 21.386719 10.675781 C 21.488281 10.773438 21.589844 10.871094 21.6875 10.972656 C 21.847656 11.144531 22 11.324219 22.144531 11.511719 C 22.261719 11.664062 22.367188 11.824219 22.46875 11.980469 C 22.949219 12.710938 23.292969 13.519531 23.5 14.386719 L 23.507812 14.382812 C 23.523438 14.453125 23.53125 14.527344 23.542969 14.59375 C 23.640625 15.058594 23.6875 15.53125 23.695312 16.015625 C 23.695312 16.109375 23.699219 16.199219 23.695312 16.289062 C 23.691406 16.445312 23.714844 16.59375 23.703125 16.75 C 23.691406 16.894531 23.644531 17.023438 23.625 17.164062 C 23.46875 18.234375 23.097656 19.21875 22.550781 20.089844 C 22.253906 20.558594 21.914062 20.988281 21.53125 21.378906 C 21.449219 21.464844 21.367188 21.550781 21.28125 21.628906 C 21.109375 21.789062 20.929688 21.945312 20.742188 22.085938 C 20.574219 22.214844 20.398438 22.332031 20.222656 22.445312 C 19.5 22.910156 18.699219 23.242188 17.84375 23.441406 L 17.847656 23.457031 C 17.742188 23.480469 17.628906 23.484375 17.519531 23.507812 C 17.152344 23.578125 16.777344 23.613281 16.394531 23.628906 C 16.230469 23.632812 16.070312 23.644531 15.910156 23.636719 C 15.769531 23.628906 15.636719 23.648438 15.496094 23.640625 C 15.355469 23.625 15.226562 23.582031 15.085938 23.5625 C 15.042969 23.558594 15.003906 23.546875 14.960938 23.542969 C 13.933594 23.378906 12.988281 23.011719 12.144531 22.488281 L 12.144531 22.492188 C 12.109375 22.46875 12.074219 22.4375 12.039062 22.414062 C 11.640625 22.15625 11.269531 21.863281 10.929688 21.539062 C 10.8125 21.425781 10.6875 21.320312 10.578125 21.203125 C 10.429688 21.039062 10.289062 20.871094 10.15625 20.699219 C 10.023438 20.527344 9.90625 20.351562 9.789062 20.167969 C 9.320312 19.445312 8.980469 18.644531 8.78125 17.785156 L 8.769531 17.789062 C 8.757812 17.730469 8.757812 17.671875 8.742188 17.613281 C 8.632812 17.09375 8.578125 16.554688 8.585938 16.003906 C 8.585938 15.984375 8.582031 15.960938 8.582031 15.9375 C 8.585938 15.769531 8.5625 15.609375 8.574219 15.441406 C 8.683594 14.203125 9.113281 13.082031 9.738281 12.09375 C 9.742188 12.085938 9.753906 12.074219 9.761719 12.066406 C 10.027344 11.652344 10.324219 11.265625 10.664062 10.914062 C 10.785156 10.78125 10.910156 10.648438 11.039062 10.527344 C 11.195312 10.386719 11.355469 10.253906 11.523438 10.125 C 11.726562 9.964844 11.941406 9.820312 12.164062 9.683594 C 12.863281 9.25 13.632812 8.941406 14.449219 8.753906 L 14.4375 8.730469 C 14.667969 8.679688 14.902344 8.640625 15.136719 8.605469 C 15.191406 8.597656 15.238281 8.574219 15.292969 8.574219 C 15.605469 8.53125 15.925781 8.515625 16.246094 8.515625 C 16.390625 8.515625 16.535156 8.542969 16.679688 8.558594 C 16.722656 8.5625 16.761719 8.554688 16.804688 8.558594 Z M 24.214844 20.820312 L 28.546875 22.722656 C 27.09375 25.441406 24.863281 27.511719 22.25 28.769531 L 20.570312 24.457031 C 22.027344 23.597656 23.292969 22.355469 24.214844 20.820312 Z M 7.550781 20.597656 C 8.382812 22.179688 9.648438 23.527344 11.277344 24.46875 L 9.511719 28.484375 C 6.785156 27.035156 4.710938 24.800781 3.449219 22.1875 Z M 7.550781 20.597656 "/>
</g>
</svg>
