<?xml version="1.0" encoding="UTF-8"?>
<svg xmlns="http://www.w3.org/2000/svg" xmlns:xlink="http://www.w3.org/1999/xlink" width="32" height="32" viewBox="0 0 32 32" version="1.1">
<g id="surface1">
<path style=" stroke:none;fill-rule:evenodd;fill:rgb(100%,100%,100%);fill-opacity:1;" d="M 5 0 C 4.445312 -0.00390625 3.992188 0.449219 3.996094 1.003906 L 3.996094 30.996094 C 3.992188 31.550781 4.445312 32.003906 5 32 L 25.003906 31.992188 C 25.558594 31.996094 26.011719 31.542969 26.007812 30.988281 L 26.007812 0.996094 C 26.011719 0.441406 25.558594 -0.0117188 25.003906 -0.0078125 Z M 6.003906 2.007812 L 24 2 L 24 30 L 6.003906 30.007812 Z M 6.003906 2.007812 "/>
<path style=" stroke:none;fill-rule:nonzero;fill:rgb(100%,100%,100%);fill-opacity:1;" d="M 9.988281 6 L 9.988281 6.988281 L 9.980469 25.988281 L 19.402344 25.988281 L 23.589844 20.777344 L 19.992188 14.917969 L 20 6 Z M 11.996094 7.992188 L 17.992188 7.992188 L 17.984375 13.988281 L 11.988281 13.988281 Z M 12 15.980469 L 18 16 L 20.671875 20 L 14.65625 19.980469 Z M 12 15.980469 "/>
</g>
</svg>
