<?xml version="1.0" encoding="UTF-8"?>
<svg xmlns="http://www.w3.org/2000/svg" xmlns:xlink="http://www.w3.org/1999/xlink" width="32" height="32" viewBox="0 0 32 32" version="1.1">
<g id="surface1">
<path style=" stroke:none;fill-rule:nonzero;fill:rgb(100%,100%,100%);fill-opacity:1;" d="M 17.414062 10.8125 L 19.300781 12.699219 C 22.945312 16.34375 22.945312 22.253906 19.300781 25.898438 L 18.828125 26.371094 C 15.183594 30.015625 9.273438 30.015625 5.628906 26.371094 C 1.984375 22.726562 1.984375 16.816406 5.628906 13.171875 L 7.515625 15.058594 C 5.816406 16.738281 5.152344 19.199219 5.765625 21.507812 C 6.382812 23.816406 8.183594 25.617188 10.492188 26.234375 C 12.800781 26.847656 15.261719 26.183594 16.941406 24.484375 L 17.414062 24.011719 C 20.015625 21.410156 20.015625 17.191406 17.414062 14.585938 L 15.527344 12.699219 L 17.414062 10.816406 Z M 26.371094 18.828125 L 24.484375 16.941406 C 26.183594 15.261719 26.847656 12.800781 26.234375 10.492188 C 25.617188 8.183594 23.816406 6.382812 21.507812 5.765625 C 19.199219 5.152344 16.738281 5.816406 15.058594 7.515625 L 14.585938 7.988281 C 11.984375 10.589844 11.984375 14.808594 14.585938 17.414062 L 16.472656 19.300781 L 14.585938 21.183594 L 12.699219 19.300781 C 9.054688 15.65625 9.054688 9.746094 12.699219 6.101562 L 13.171875 5.628906 C 16.816406 1.984375 22.726562 1.984375 26.371094 5.628906 C 30.015625 9.273438 30.015625 15.183594 26.371094 18.828125 Z M 26.371094 18.828125 "/>
</g>
</svg>
