<?xml version="1.0" encoding="UTF-8"?>
<svg xmlns="http://www.w3.org/2000/svg" xmlns:xlink="http://www.w3.org/1999/xlink" width="32" height="32" viewBox="0 0 32 32" version="1.1">
<g id="surface1">
<path style=" stroke:none;fill-rule:nonzero;fill:rgb(100%,100%,100%);fill-opacity:1;" d="M 9.253906 6.667969 C 9.253906 8.140625 8.058594 9.332031 6.585938 9.332031 C 5.113281 9.332031 3.917969 8.136719 3.921875 6.664062 C 3.921875 5.191406 5.117188 3.996094 6.589844 4 C 8.0625 4 9.253906 5.195312 9.253906 6.667969 Z M 9.332031 11.308594 L 4 11.308594 L 4 28 L 9.332031 28 Z M 17.761719 11.308594 L 12.453125 11.308594 L 12.453125 28 L 17.707031 28 L 17.707031 19.238281 C 17.707031 14.359375 24.066406 13.90625 24.066406 19.238281 L 24.066406 28 L 29.332031 28 L 29.332031 17.425781 C 29.332031 9.199219 19.921875 9.507812 17.707031 13.546875 Z M 17.761719 11.308594 "/>
</g>
</svg>
