<?xml version="1.0" encoding="UTF-8"?>
<svg xmlns="http://www.w3.org/2000/svg" xmlns:xlink="http://www.w3.org/1999/xlink" width="32" height="32" viewBox="0 0 32 32" version="1.1">
<g id="surface1">
<path style=" stroke:none;fill-rule:nonzero;fill:rgb(100%,100%,100%);fill-opacity:1;" d="M 4.074219 17.332031 L 6.761719 17.332031 C 7.429688 21.921875 11.363281 25.324219 16 25.324219 C 20.636719 25.324219 24.570312 21.921875 25.238281 17.332031 L 27.925781 17.332031 C 27.246094 23.40625 22.109375 27.996094 16 27.996094 C 9.886719 27.996094 4.753906 23.40625 4.070312 17.332031 Z M 4.074219 14.667969 C 4.753906 8.59375 9.890625 4.003906 16 4.003906 C 22.109375 4.003906 27.246094 8.59375 27.925781 14.667969 L 25.238281 14.667969 C 24.570312 10.078125 20.636719 6.675781 16 6.675781 C 11.363281 6.675781 7.429688 10.078125 6.761719 14.667969 Z M 4.074219 14.667969 "/>
</g>
</svg>
