<?xml version="1.0" encoding="UTF-8"?>
<svg xmlns="http://www.w3.org/2000/svg" xmlns:xlink="http://www.w3.org/1999/xlink" width="32" height="32" viewBox="0 0 32 32" version="1.1">
<g id="surface1">
<path style=" stroke:none;fill-rule:nonzero;fill:rgb(100%,100%,100%);fill-opacity:1;" d="M 16 2.667969 C 16.738281 2.667969 17.332031 3.261719 17.332031 4 L 17.332031 8 C 17.332031 8.738281 16.738281 9.332031 16 9.332031 C 15.261719 9.332031 14.667969 8.738281 14.667969 8 L 14.667969 4 C 14.667969 3.261719 15.261719 2.667969 16 2.667969 Z M 16 22.667969 C 16.738281 22.667969 17.332031 23.261719 17.332031 24 L 17.332031 28 C 17.332031 28.738281 16.738281 29.332031 16 29.332031 C 15.261719 29.332031 14.667969 28.738281 14.667969 28 L 14.667969 24 C 14.667969 23.261719 15.261719 22.667969 16 22.667969 Z M 29.332031 16 C 29.332031 16.738281 28.738281 17.332031 28 17.332031 L 24 17.332031 C 23.261719 17.332031 22.667969 16.738281 22.667969 16 C 22.667969 15.261719 23.261719 14.667969 24 14.667969 L 28 14.667969 C 28.738281 14.667969 29.332031 15.261719 29.332031 16 Z M 9.332031 16 C 9.332031 16.738281 8.738281 17.332031 8 17.332031 L 4 17.332031 C 3.261719 17.332031 2.667969 16.738281 2.667969 16 C 2.667969 15.261719 3.261719 14.667969 4 14.667969 L 8 14.667969 C 8.738281 14.667969 9.332031 15.261719 9.332031 16 Z M 25.429688 25.429688 C 24.90625 25.949219 24.0625 25.949219 23.542969 25.429688 L 20.714844 22.601562 C 20.210938 22.078125 20.214844 21.246094 20.730469 20.730469 C 21.246094 20.214844 22.078125 20.210938 22.601562 20.714844 L 25.429688 23.542969 C 25.679688 23.792969 25.820312 24.128906 25.820312 24.484375 C 25.820312 24.839844 25.679688 25.179688 25.429688 25.429688 Z M 11.285156 11.285156 C 10.765625 11.804688 9.921875 11.804688 9.398438 11.285156 L 6.574219 8.457031 C 6.050781 7.9375 6.050781 7.09375 6.574219 6.574219 C 7.09375 6.050781 7.9375 6.050781 8.457031 6.570312 L 11.285156 9.398438 C 11.804688 9.921875 11.804688 10.765625 11.285156 11.285156 Z M 6.574219 25.429688 C 6.054688 24.90625 6.054688 24.0625 6.574219 23.542969 L 9.402344 20.714844 C 9.734375 20.367188 10.230469 20.230469 10.699219 20.351562 C 11.164062 20.472656 11.527344 20.835938 11.648438 21.304688 C 11.773438 21.769531 11.632812 22.265625 11.285156 22.601562 L 8.460938 25.429688 C 8.210938 25.679688 7.871094 25.820312 7.515625 25.820312 C 7.164062 25.820312 6.824219 25.679688 6.574219 25.429688 Z M 20.714844 11.285156 C 20.195312 10.765625 20.195312 9.921875 20.714844 9.398438 L 23.542969 6.570312 C 24.0625 6.050781 24.90625 6.050781 25.425781 6.570312 C 25.949219 7.09375 25.949219 7.9375 25.429688 8.457031 L 22.601562 11.285156 C 22.078125 11.804688 21.234375 11.804688 20.714844 11.285156 Z M 20.714844 11.285156 "/>
</g>
</svg>
