<?xml version="1.0" encoding="UTF-8"?>
<svg xmlns="http://www.w3.org/2000/svg" xmlns:xlink="http://www.w3.org/1999/xlink" width="32" height="32" viewBox="0 0 32 32" version="1.1">
<g id="surface1">
<path style=" stroke:none;fill-rule:nonzero;fill:rgb(100%,100%,100%);fill-opacity:1;" d="M 16 29.332031 C 8.636719 29.332031 2.667969 23.363281 2.667969 16 C 2.667969 8.636719 8.636719 2.667969 16 2.667969 C 20.199219 2.664062 24.152344 4.640625 26.667969 8 L 23.054688 8 C 18.765625 4.21875 12.257812 4.492188 8.300781 8.617188 C 4.34375 12.746094 4.34375 19.257812 8.300781 23.382812 C 12.257812 27.511719 18.765625 27.78125 23.054688 24 L 26.667969 24 C 24.152344 27.359375 20.199219 29.335938 16 29.332031 Z M 25.332031 21.332031 L 25.332031 17.332031 L 14.667969 17.332031 L 14.667969 14.667969 L 25.332031 14.667969 L 25.332031 10.667969 L 32 16 Z M 25.332031 21.332031 "/>
</g>
</svg>
