<?xml version="1.0" encoding="UTF-8"?>
<svg xmlns="http://www.w3.org/2000/svg" xmlns:xlink="http://www.w3.org/1999/xlink" width="32" height="32" viewBox="0 0 32 32" version="1.1">
<g id="surface1">
<path style=" stroke:none;fill-rule:nonzero;fill:rgb(100%,100%,100%);fill-opacity:1;" d="M 29.332031 18.667969 L 26.667969 18.667969 L 26.667969 9.652344 L 16.097656 19.117188 L 5.332031 9.621094 L 5.332031 25.332031 L 20 25.332031 L 20 28 L 4 28 C 3.261719 28 2.667969 27.402344 2.667969 26.667969 L 2.667969 5.332031 C 2.667969 4.597656 3.261719 4 4 4 L 28 4 C 28.738281 4 29.332031 4.597656 29.332031 5.332031 Z M 6.015625 6.667969 L 16.082031 15.550781 L 26.003906 6.667969 Z M 28.550781 25.332031 L 31.382812 28.160156 L 29.496094 30.046875 L 26.667969 27.21875 L 23.839844 30.046875 L 21.953125 28.160156 L 24.78125 25.332031 L 21.953125 22.503906 L 23.839844 20.617188 L 26.667969 23.449219 L 29.496094 20.617188 L 31.382812 22.503906 Z M 28.550781 25.332031 "/>
</g>
</svg>
