<?xml version="1.0" encoding="UTF-8"?>
<svg xmlns="http://www.w3.org/2000/svg" xmlns:xlink="http://www.w3.org/1999/xlink" width="32" height="32" viewBox="0 0 32 32" version="1.1">
<g id="surface1">
<path style=" stroke:none;fill-rule:nonzero;fill:rgb(100%,100%,100%);fill-opacity:1;" d="M 29.332031 16 C 27.503906 14.628906 25.101562 14.292969 22.964844 15.101562 C 20.832031 15.914062 19.257812 17.761719 18.800781 20 L 17.332031 20 L 17.332031 28 L 4 28 C 3.261719 28 2.667969 27.402344 2.667969 26.667969 L 2.667969 5.332031 C 2.667969 4.597656 3.261719 4 4 4 L 28 4 C 28.738281 4 29.332031 4.597656 29.332031 5.332031 Z M 16.078125 15.578125 L 7.53125 8.316406 L 5.804688 10.347656 L 16.097656 19.089844 L 26.207031 10.34375 L 24.460938 8.324219 L 16.082031 15.578125 Z M 29.332031 22.667969 L 30.667969 22.667969 L 30.667969 29.332031 L 20 29.332031 L 20 22.667969 L 21.332031 22.667969 L 21.332031 21.332031 C 21.332031 19.125 23.125 17.332031 25.332031 17.332031 C 27.542969 17.332031 29.332031 19.125 29.332031 21.332031 Z M 26.667969 22.667969 L 26.667969 21.332031 C 26.667969 20.597656 26.070312 20 25.332031 20 C 24.597656 20 24 20.597656 24 21.332031 L 24 22.667969 Z M 26.667969 22.667969 "/>
</g>
</svg>
