<?xml version="1.0" encoding="UTF-8"?>
<svg xmlns="http://www.w3.org/2000/svg" xmlns:xlink="http://www.w3.org/1999/xlink" width="32" height="32" viewBox="0 0 32 32" version="1.1">
<g id="surface1">
<path style=" stroke:none;fill-rule:nonzero;fill:rgb(100%,100%,100%);fill-opacity:1;" d="M 16 29.332031 C 8.636719 29.332031 2.667969 23.363281 2.667969 16 C 2.667969 8.636719 8.636719 2.667969 16 2.667969 C 23.363281 2.667969 29.332031 8.636719 29.332031 16 C 29.332031 23.363281 23.363281 29.332031 16 29.332031 Z M 22.734375 24.273438 L 21.585938 19.675781 C 21.4375 19.082031 20.902344 18.667969 20.292969 18.667969 L 11.707031 18.667969 C 11.097656 18.667969 10.5625 19.082031 10.414062 19.675781 L 9.265625 24.273438 C 11.167969 25.824219 13.546875 26.671875 16 26.667969 C 18.453125 26.671875 20.832031 25.824219 22.734375 24.273438 Z M 13.332031 16 L 18.667969 16 L 18.667969 14 L 17.28125 9.152344 C 17.121094 8.578125 16.597656 8.183594 16 8.183594 C 15.402344 8.183594 14.878906 8.578125 14.71875 9.152344 L 13.332031 14 Z M 13.332031 16 "/>
</g>
</svg>
