<?xml version="1.0" encoding="UTF-8"?>
<svg xmlns="http://www.w3.org/2000/svg" xmlns:xlink="http://www.w3.org/1999/xlink" width="32" height="32" viewBox="0 0 32 32" version="1.1">
<g id="surface1">
<path style=" stroke:none;fill-rule:nonzero;fill:rgb(100%,100%,100%);fill-opacity:1;" d="M 28.34375 18.652344 C 27.980469 20.535156 25.070312 22.59375 21.726562 22.992188 C 19.988281 23.199219 18.269531 23.390625 16.441406 23.308594 C 13.449219 23.167969 11.089844 22.59375 11.089844 22.59375 C 11.089844 22.882812 11.109375 23.160156 11.144531 23.421875 C 11.53125 26.375 14.070312 26.550781 16.476562 26.632812 C 18.902344 26.714844 21.0625 26.035156 21.0625 26.035156 L 21.164062 28.226562 C 21.164062 28.226562 19.464844 29.140625 16.441406 29.308594 C 14.773438 29.398438 12.703125 29.265625 10.292969 28.628906 C 5.0625 27.242188 4.160156 21.667969 4.023438 16.007812 C 3.984375 14.328125 4.007812 12.746094 4.007812 11.421875 C 4.007812 5.636719 7.796875 3.941406 7.796875 3.941406 C 9.710938 3.0625 12.988281 2.695312 16.398438 2.667969 L 16.480469 2.667969 C 19.890625 2.691406 23.171875 3.0625 25.082031 3.941406 C 25.082031 3.941406 28.875 5.636719 28.875 11.421875 C 28.875 11.421875 28.921875 15.6875 28.34375 18.652344 Z M 24.402344 11.871094 C 24.402344 10.4375 24.039062 9.300781 23.308594 8.460938 C 22.550781 7.617188 21.5625 7.1875 20.335938 7.1875 C 18.914062 7.1875 17.839844 7.734375 17.128906 8.824219 L 16.4375 9.984375 L 15.746094 8.824219 C 15.035156 7.734375 13.960938 7.1875 12.539062 7.1875 C 11.3125 7.1875 10.324219 7.617188 9.566406 8.460938 C 8.835938 9.300781 8.472656 10.4375 8.472656 11.871094 L 8.472656 18.875 L 11.246094 18.875 L 11.246094 12.074219 C 11.246094 10.644531 11.847656 9.914062 13.054688 9.914062 C 14.390625 9.914062 15.058594 10.777344 15.058594 12.484375 L 15.058594 16.207031 L 17.816406 16.207031 L 17.816406 12.484375 C 17.816406 10.777344 18.484375 9.914062 19.816406 9.914062 C 21.023438 9.914062 21.628906 10.644531 21.628906 12.074219 L 21.628906 18.875 L 24.402344 18.875 Z M 24.402344 11.871094 "/>
</g>
</svg>
