<?xml version="1.0" encoding="UTF-8"?>
<svg xmlns="http://www.w3.org/2000/svg" xmlns:xlink="http://www.w3.org/1999/xlink" width="32" height="32" viewBox="0 0 32 32" version="1.1">
<g id="surface1">
<path style=" stroke:none;fill-rule:nonzero;fill:rgb(100%,100%,100%);fill-opacity:1;" d="M 2.667969 11.992188 C 2.664062 9.871094 3.507812 7.835938 5.007812 6.335938 C 6.507812 4.835938 8.546875 3.996094 10.667969 4 L 21.332031 4 C 25.75 4 29.332031 7.59375 29.332031 11.992188 L 29.332031 28 L 10.667969 28 C 6.25 28 2.667969 24.40625 2.667969 20.007812 Z M 26.667969 25.332031 L 26.667969 11.992188 C 26.660156 9.050781 24.273438 6.667969 21.332031 6.667969 L 10.667969 6.667969 C 9.253906 6.664062 7.894531 7.222656 6.894531 8.222656 C 5.894531 9.222656 5.332031 10.578125 5.332031 11.992188 L 5.332031 20.007812 C 5.339844 22.949219 7.726562 25.332031 10.667969 25.332031 Z M 18.667969 14.667969 L 21.332031 14.667969 L 21.332031 17.332031 L 18.667969 17.332031 Z M 10.667969 14.667969 L 13.332031 14.667969 L 13.332031 17.332031 L 10.667969 17.332031 Z M 10.667969 14.667969 "/>
</g>
</svg>
