<?xml version="1.0" encoding="UTF-8"?>
<svg xmlns="http://www.w3.org/2000/svg" xmlns:xlink="http://www.w3.org/1999/xlink" width="32" height="32" viewBox="0 0 32 32" version="1.1">
<g id="surface1">
<path style=" stroke:none;fill-rule:evenodd;fill:rgb(100%,100%,100%);fill-opacity:1;" d="M 16 0 C 12.675781 0 10 2.675781 10 6 L 10 16 C 10 19.324219 12.675781 22 16 22 C 19.324219 22 22 19.324219 22 16 L 22 6 C 22 2.675781 19.324219 0 16 0 Z M 4 16 L 4 20 C 4 24.417969 7.582031 28 12 28 L 12 32 L 20 32 L 20 28 C 24.417969 28 28 24.417969 28 20 L 28 16 L 24 16 L 24 18 C 24 21.3125 21.3125 24 18 24 L 14 24 C 10.6875 24 8 21.3125 8 18 L 8 16 Z M 4 16 "/>
</g>
</svg>
