<?xml version="1.0" encoding="UTF-8"?>
<svg xmlns="http://www.w3.org/2000/svg" xmlns:xlink="http://www.w3.org/1999/xlink" width="32" height="32" viewBox="0 0 32 32" version="1.1">
<g id="surface1">
<path style=" stroke:none;fill-rule:nonzero;fill:rgb(100%,100%,100%);fill-opacity:1;" d="M 24 4 C 26.210938 4 28 5.789062 28 8 C 28 10.210938 26.210938 12 24 12 L 20 12 C 18.257812 12 16.777344 10.886719 16.226562 9.332031 L 14.667969 9.332031 C 13.199219 9.332031 12 10.535156 12 12 L 12 12.226562 C 13.554688 12.777344 14.667969 14.257812 14.667969 16 C 14.667969 17.742188 13.554688 19.222656 12 19.773438 L 12 20 C 12 21.464844 13.199219 22.667969 14.667969 22.667969 L 16.226562 22.667969 C 16.777344 21.113281 18.257812 20 20 20 L 24 20 C 26.210938 20 28 21.789062 28 24 C 28 26.210938 26.210938 28 24 28 L 20 28 C 18.257812 28 16.777344 26.886719 16.226562 25.332031 L 14.667969 25.332031 C 11.71875 25.332031 9.332031 22.945312 9.332031 20 L 6.667969 20 C 4.457031 20 2.667969 18.210938 2.667969 16 C 2.667969 13.789062 4.457031 12 6.667969 12 L 9.332031 12 C 9.332031 9.054688 11.71875 6.667969 14.667969 6.667969 L 16.226562 6.667969 C 16.777344 5.113281 18.257812 4 20 4 Z M 24 22.667969 L 20 22.667969 C 19.265625 22.667969 18.667969 23.265625 18.667969 24 C 18.667969 24.734375 19.265625 25.332031 20 25.332031 L 24 25.332031 C 24.734375 25.332031 25.332031 24.734375 25.332031 24 C 25.332031 23.265625 24.734375 22.667969 24 22.667969 Z M 10.667969 14.667969 L 6.667969 14.667969 C 5.929688 14.667969 5.332031 15.265625 5.332031 16 C 5.332031 16.734375 5.929688 17.332031 6.667969 17.332031 L 10.667969 17.332031 C 11.402344 17.332031 12 16.734375 12 16 C 12 15.265625 11.402344 14.667969 10.667969 14.667969 Z M 24 6.667969 L 20 6.667969 C 19.265625 6.667969 18.667969 7.265625 18.667969 8 C 18.667969 8.734375 19.265625 9.332031 20 9.332031 L 24 9.332031 C 24.734375 9.332031 25.332031 8.734375 25.332031 8 C 25.332031 7.265625 24.734375 6.667969 24 6.667969 Z M 24 6.667969 "/>
</g>
</svg>
