<?xml version="1.0" encoding="UTF-8"?>
<svg xmlns="http://www.w3.org/2000/svg" xmlns:xlink="http://www.w3.org/1999/xlink" width="32" height="32" viewBox="0 0 32 32" version="1.1">
<g id="surface1">
<path style=" stroke:none;fill-rule:nonzero;fill:rgb(100%,100%,100%);fill-opacity:1;" d="M 1 2.003906 C 0.445312 2 -0.0078125 2.453125 -0.00390625 3.007812 L -0.00390625 28.992188 C -0.0078125 29.546875 0.445312 30 1 29.996094 L 31 29.996094 C 31.554688 30 32.007812 29.546875 32.003906 28.992188 L 32.003906 3.007812 C 32.007812 2.453125 31.554688 2 31 2.003906 Z M 4 6 L 6 6 L 6 18 L 8 18 L 8 20 L 4 20 Z M 10 12 L 18 12 L 18 20 L 10 20 Z M 20 12 L 28 12 L 28 26 L 22 26 L 22 24 L 26 24 L 26 20 L 20 20 Z M 12 14 L 12 18 L 16 18 L 16 14 Z M 22 14 L 22 18 L 26 18 L 26 14 Z M 22 14 "/>
</g>
</svg>
