<?xml version="1.0" encoding="UTF-8"?>
<svg xmlns="http://www.w3.org/2000/svg" xmlns:xlink="http://www.w3.org/1999/xlink" width="32" height="32" viewBox="0 0 32 32" version="1.1">
<g id="surface1">
<path style=" stroke:none;fill-rule:nonzero;fill:rgb(100%,100%,100%);fill-opacity:1;" d="M 1 2.003906 C 0.445312 2 -0.0078125 2.453125 -0.00390625 3.007812 L -0.00390625 28.992188 C -0.0078125 29.546875 0.445312 30 1 29.996094 L 31 29.996094 C 31.554688 30 32.007812 29.546875 32.003906 28.992188 L 32.003906 3.007812 C 32.007812 2.453125 31.554688 2 31 2.003906 Z M 1.988281 4.011719 L 29.996094 4.011719 L 29.996094 28.003906 L 1.988281 28.003906 Z M 1.988281 4.011719 "/>
<path style=" stroke:none;fill-rule:nonzero;fill:rgb(100%,100%,100%);fill-opacity:1;" d="M 10.90625 20.296875 C 11.277344 20.257812 11.589844 20.1875 11.851562 20.09375 C 12.109375 19.996094 12.316406 19.882812 12.476562 19.746094 C 12.636719 19.601562 12.757812 19.445312 12.832031 19.273438 C 12.910156 19.101562 12.945312 18.917969 12.945312 18.71875 C 12.945312 18.332031 12.820312 18.015625 12.566406 17.777344 C 12.320312 17.539062 11.921875 17.328125 11.367188 17.152344 Z M 11.769531 14.550781 C 12.226562 14.714844 12.683594 14.894531 13.140625 15.09375 C 13.605469 15.285156 14.023438 15.523438 14.390625 15.808594 C 14.765625 16.097656 15.070312 16.445312 15.300781 16.855469 C 15.535156 17.257812 15.652344 17.75 15.652344 18.332031 C 15.652344 18.992188 15.519531 19.574219 15.261719 20.074219 C 15.007812 20.5625 14.65625 20.980469 14.207031 21.320312 C 13.753906 21.65625 13.222656 21.917969 12.609375 22.101562 C 11.992188 22.285156 11.324219 22.398438 10.601562 22.4375 L 10.222656 25 L 8.417969 25 L 8.785156 22.417969 C 7.832031 22.355469 6.902344 22.203125 6 21.957031 L 6 19.558594 C 6.484375 19.71875 6.992188 19.863281 7.527344 20 C 8.066406 20.128906 8.59375 20.222656 9.105469 20.277344 L 9.648438 16.570312 C 9.203125 16.417969 8.761719 16.246094 8.324219 16.054688 C 7.894531 15.859375 7.507812 15.621094 7.167969 15.339844 C 6.828125 15.050781 6.550781 14.707031 6.339844 14.304688 C 6.125 13.894531 6.019531 13.402344 6.019531 12.828125 C 6.019531 12.351562 6.113281 11.898438 6.296875 11.464844 C 6.480469 11.035156 6.765625 10.652344 7.148438 10.320312 C 7.535156 9.976562 8.027344 9.699219 8.621094 9.480469 C 9.222656 9.261719 9.9375 9.132812 10.765625 9.089844 L 11.082031 7 L 12.882812 7 L 12.566406 9.183594 C 12.929688 9.214844 13.285156 9.261719 13.632812 9.316406 C 13.988281 9.371094 14.324219 9.433594 14.644531 9.511719 L 14.644531 11.710938 C 14.277344 11.597656 13.886719 11.492188 13.46875 11.40625 C 13.058594 11.316406 12.652344 11.25 12.25 11.210938 Z M 10.445312 11.191406 C 9.796875 11.257812 9.339844 11.417969 9.074219 11.671875 C 8.8125 11.917969 8.683594 12.230469 8.683594 12.613281 C 8.683594 12.921875 8.800781 13.179688 9.03125 13.394531 C 9.265625 13.605469 9.601562 13.796875 10.046875 13.964844 Z M 10.445312 11.191406 "/>
<path style=" stroke:none;fill-rule:nonzero;fill:rgb(100%,100%,100%);fill-opacity:1;" d="M 18 9 L 18 11 L 26 11 L 26 9 Z M 18 9 "/>
<path style=" stroke:none;fill-rule:nonzero;fill:rgb(100%,100%,100%);fill-opacity:1;" d="M 18 13 L 18 15 L 26 15 L 26 13 Z M 18 13 "/>
<path style=" stroke:none;fill-rule:nonzero;fill:rgb(100%,100%,100%);fill-opacity:1;" d="M 18 17 L 18 19 L 26 19 L 26 17 Z M 18 17 "/>
<path style=" stroke:none;fill-rule:nonzero;fill:rgb(100%,100%,100%);fill-opacity:1;" d="M 18 21 L 18 23 L 26 23 L 26 21 Z M 18 21 "/>
</g>
</svg>
