<?xml version="1.0" encoding="UTF-8"?>
<svg xmlns="http://www.w3.org/2000/svg" xmlns:xlink="http://www.w3.org/1999/xlink" width="32" height="32" viewBox="0 0 32 32" version="1.1">
<g id="surface1">
<path style=" stroke:none;fill-rule:nonzero;fill:rgb(100%,100%,100%);fill-opacity:1;" d="M 6 14 C 4.898438 14 4 14.898438 4 16 C 4 17.101562 4.898438 18 6 18 C 7.101562 18 8 17.101562 8 16 C 8 14.898438 7.101562 14 6 14 Z M 26 14 C 24.898438 14 24 14.898438 24 16 C 24 17.101562 24.898438 18 26 18 C 27.101562 18 28 17.101562 28 16 C 28 14.898438 27.101562 14 26 14 Z M 16 14 C 14.898438 14 14 14.898438 14 16 C 14 17.101562 14.898438 18 16 18 C 17.101562 18 18 17.101562 18 16 C 18 14.898438 17.101562 14 16 14 Z M 16 14 "/>
</g>
</svg>
