<?xml version="1.0" encoding="UTF-8"?>
<svg xmlns="http://www.w3.org/2000/svg" xmlns:xlink="http://www.w3.org/1999/xlink" width="32" height="32" viewBox="0 0 32 32" version="1.1">
<g id="surface1">
<path style=" stroke:none;fill-rule:nonzero;fill:rgb(100%,100%,100%);fill-opacity:1;" d="M 14.855469 5.332031 C 12.746094 5.332031 11.671875 5.558594 10.683594 6.085938 C 9.859375 6.519531 9.1875 7.195312 8.753906 8.015625 C 8.226562 9.003906 8 10.078125 8 12.1875 L 8 19.8125 C 8 21.921875 8.226562 22.992188 8.753906 23.980469 C 9.203125 24.820312 9.84375 25.460938 10.683594 25.910156 C 11.671875 26.441406 12.746094 26.664062 14.855469 26.664062 L 17.144531 26.664062 C 19.253906 26.664062 20.328125 26.441406 21.316406 25.910156 C 22.140625 25.476562 22.8125 24.804688 23.246094 23.980469 C 23.773438 22.996094 24 21.921875 24 19.8125 L 24 12.1875 C 24 10.078125 23.773438 9.003906 23.246094 8.015625 C 22.8125 7.191406 22.140625 6.519531 21.316406 6.085938 C 20.328125 5.558594 19.253906 5.332031 17.148438 5.332031 L 14.851562 5.332031 Z M 14.855469 2.667969 L 17.144531 2.667969 C 19.832031 2.667969 21.269531 3.039062 22.574219 3.734375 C 23.863281 4.417969 24.917969 5.46875 25.597656 6.757812 C 26.296875 8.0625 26.667969 9.503906 26.667969 12.1875 L 26.667969 19.8125 C 26.667969 22.496094 26.296875 23.9375 25.597656 25.242188 C 24.917969 26.53125 23.863281 27.582031 22.574219 28.265625 C 21.269531 28.960938 19.832031 29.332031 17.144531 29.332031 L 14.851562 29.332031 C 12.167969 29.332031 10.726562 28.960938 9.425781 28.265625 C 8.136719 27.582031 7.082031 26.53125 6.398438 25.242188 C 5.703125 23.9375 5.332031 22.496094 5.332031 19.8125 L 5.332031 12.1875 C 5.332031 9.5 5.703125 8.0625 6.402344 6.757812 C 7.082031 5.46875 8.136719 4.417969 9.425781 3.734375 C 10.730469 3.039062 12.167969 2.667969 14.855469 2.667969 Z M 14.667969 8 L 17.332031 8 L 17.332031 14.667969 L 14.667969 14.667969 Z M 14.667969 8 "/>
</g>
</svg>
