<?xml version="1.0" encoding="UTF-8"?>
<svg xmlns="http://www.w3.org/2000/svg" xmlns:xlink="http://www.w3.org/1999/xlink" width="32" height="32" viewBox="0 0 32 32" version="1.1">
<g id="surface1">
<path style=" stroke:none;fill-rule:nonzero;fill:rgb(100%,100%,100%);fill-opacity:1;" d="M 13.332031 2.667969 C 14.070312 2.667969 14.667969 3.265625 14.667969 4 L 14.667969 9.332031 C 14.667969 10.070312 14.070312 10.667969 13.332031 10.667969 L 10.667969 10.667969 L 10.667969 13.332031 L 17.332031 13.332031 L 17.332031 12 C 17.332031 11.265625 17.929688 10.667969 18.667969 10.667969 L 26.667969 10.667969 C 27.402344 10.667969 28 11.265625 28 12 L 28 17.332031 C 28 18.070312 27.402344 18.667969 26.667969 18.667969 L 18.667969 18.667969 C 17.929688 18.667969 17.332031 18.070312 17.332031 17.332031 L 17.332031 16 L 10.667969 16 L 10.667969 24 L 17.332031 24 L 17.332031 22.667969 C 17.332031 21.929688 17.929688 21.332031 18.667969 21.332031 L 26.667969 21.332031 C 27.402344 21.332031 28 21.929688 28 22.667969 L 28 28 C 28 28.734375 27.402344 29.332031 26.667969 29.332031 L 18.667969 29.332031 C 17.929688 29.332031 17.332031 28.734375 17.332031 28 L 17.332031 26.667969 L 9.332031 26.667969 C 8.597656 26.667969 8 26.070312 8 25.332031 L 8 10.667969 L 5.332031 10.667969 C 4.597656 10.667969 4 10.070312 4 9.332031 L 4 4 C 4 3.265625 4.597656 2.667969 5.332031 2.667969 Z M 25.332031 24 L 20 24 L 20 26.667969 L 25.332031 26.667969 Z M 25.332031 13.332031 L 20 13.332031 L 20 16 L 25.332031 16 Z M 12 5.332031 L 6.667969 5.332031 L 6.667969 8 L 12 8 Z M 12 5.332031 "/>
</g>
</svg>
