<?xml version="1.0" encoding="UTF-8"?>
<svg xmlns="http://www.w3.org/2000/svg" xmlns:xlink="http://www.w3.org/1999/xlink" width="32" height="32" viewBox="0 0 32 32" version="1.1">
<g id="surface1">
<path style=" stroke:none;fill-rule:nonzero;fill:rgb(100%,100%,100%);fill-opacity:1;" d="M 19.847656 2.667969 L 13.929688 12.914062 C 17.9375 11.929688 22.082031 13.902344 23.839844 17.632812 C 25.601562 21.363281 24.484375 25.816406 21.175781 28.28125 C 17.867188 30.746094 13.28125 30.535156 10.214844 27.78125 C 7.144531 25.023438 6.441406 20.488281 8.535156 16.933594 L 16.769531 2.667969 Z M 16 15.332031 C 12.6875 15.332031 10 18.019531 10 21.332031 C 10 24.648438 12.6875 27.332031 16 27.332031 C 19.3125 27.332031 22 24.648438 22 21.332031 C 22 18.019531 19.3125 15.332031 16 15.332031 Z M 16 15.332031 "/>
</g>
</svg>
