<?xml version="1.0" encoding="UTF-8"?>
<svg xmlns="http://www.w3.org/2000/svg" xmlns:xlink="http://www.w3.org/1999/xlink" width="32" height="32" viewBox="0 0 32 32" version="1.1">
<defs>
<filter id="alpha" filterUnits="objectBoundingBox" x="0%" y="0%" width="100%" height="100%">
  <feColorMatrix type="matrix" in="SourceGraphic" values="0 0 0 0 1 0 0 0 0 1 0 0 0 0 1 0 0 0 1 0"/>
</filter>
<mask id="mask0">
  <g filter="url(#alpha)">
<rect x="0" y="0" width="32" height="32" style="fill:rgb(100%,100%,100%);fill-opacity:0.992157;stroke:none;"/>
  </g>
</mask>
<clipPath id="clip1">
  <rect x="0" y="0" width="32" height="32"/>
</clipPath>
<g id="surface5" clip-path="url(#clip1)">
<path style=" stroke:none;fill-rule:evenodd;fill:rgb(100%,100%,100%);fill-opacity:1;" d="M 14 0 L 14 16 L 18 16 L 18 0 Z M 10 5.375 C 5.28125 7.628906 1.992188 12.4375 1.992188 17.996094 C 1.992188 25.703125 8.296875 31.992188 16.003906 31.992188 C 23.710938 31.992188 30 25.703125 30 17.996094 C 30 12.433594 26.71875 7.628906 22 5.375 L 22 10.027344 C 24.421875 11.847656 26 14.714844 26 17.996094 C 26 23.542969 21.550781 28.007812 16.003906 28.007812 C 10.457031 28.007812 5.992188 23.542969 5.992188 17.996094 C 5.992188 14.714844 7.578125 11.851562 10 10.03125 Z M 10 5.375 "/>
</g>
</defs>
<g id="surface1">
<use xlink:href="#surface5" mask="url(#mask0)"/>
</g>
</svg>
