<?xml version="1.0" encoding="UTF-8"?>
<svg xmlns="http://www.w3.org/2000/svg" xmlns:xlink="http://www.w3.org/1999/xlink" width="32" height="32" viewBox="0 0 32 32" version="1.1">
<g id="surface1">
<path style=" stroke:none;fill-rule:nonzero;fill:rgb(100%,100%,100%);fill-opacity:1;" d="M 16 2.667969 C 23.363281 2.667969 29.332031 8.636719 29.332031 16 C 29.332031 21.867188 25.546875 26.847656 20.28125 28.628906 L 19.980469 28.730469 L 16.109375 18.664062 C 17.535156 18.601562 18.667969 17.40625 18.667969 16 C 18.667969 14.527344 17.472656 13.332031 16 13.332031 C 14.527344 13.332031 13.332031 14.527344 13.332031 16 C 13.332031 17.4375 14.46875 18.605469 15.890625 18.664062 L 12.019531 28.730469 L 11.71875 28.628906 C 6.453125 26.847656 2.667969 21.867188 2.667969 16 C 2.667969 8.636719 8.636719 2.667969 16 2.667969 Z M 16 5.332031 C 10.109375 5.332031 5.332031 10.109375 5.332031 16 C 5.332031 19.894531 7.417969 23.300781 10.535156 25.164062 L 12.507812 20.03125 C 11.378906 19.054688 10.667969 17.609375 10.667969 16 C 10.667969 13.054688 13.054688 10.667969 16 10.667969 C 18.945312 10.667969 21.332031 13.054688 21.332031 16 C 21.332031 17.609375 20.621094 19.054688 19.492188 20.03125 C 20.246094 21.996094 20.90625 23.707031 21.464844 25.164062 C 24.578125 23.300781 26.667969 19.894531 26.667969 16 C 26.667969 10.109375 21.890625 5.332031 16 5.332031 Z M 16 5.332031 "/>
</g>
</svg>
