<?xml version="1.0" encoding="UTF-8"?>
<svg xmlns="http://www.w3.org/2000/svg" xmlns:xlink="http://www.w3.org/1999/xlink" width="32" height="32" viewBox="0 0 32 32" version="1.1">
<g id="surface1">
<path style=" stroke:none;fill-rule:nonzero;fill:rgb(100%,100%,100%);fill-opacity:1;" d="M 16 2.667969 C 23.363281 2.667969 29.332031 7.96875 29.332031 14.519531 C 29.332031 18.609375 26.015625 21.925781 21.925781 21.925781 L 19.304688 21.925781 C 18.074219 21.925781 17.082031 22.917969 17.082031 24.148438 C 17.082031 24.710938 17.304688 25.230469 17.644531 25.613281 C 18 26.015625 18.222656 26.535156 18.222656 27.109375 C 18.222656 28.339844 17.199219 29.332031 16 29.332031 C 8.636719 29.332031 2.667969 23.363281 2.667969 16 C 2.667969 8.636719 8.636719 2.667969 16 2.667969 Z M 10 16 C 11.105469 16 12 15.105469 12 14 C 12 12.894531 11.105469 12 10 12 C 8.894531 12 8 12.894531 8 14 C 8 15.105469 8.894531 16 10 16 Z M 22 16 C 23.105469 16 24 15.105469 24 14 C 24 12.894531 23.105469 12 22 12 C 20.894531 12 20 12.894531 20 14 C 20 15.105469 20.894531 16 22 16 Z M 16 12 C 17.105469 12 18 11.105469 18 10 C 18 8.894531 17.105469 8 16 8 C 14.894531 8 14 8.894531 14 10 C 14 11.105469 14.894531 12 16 12 Z M 16 12 "/>
</g>
</svg>
