<?xml version="1.0" encoding="UTF-8"?>
<svg xmlns="http://www.w3.org/2000/svg" xmlns:xlink="http://www.w3.org/1999/xlink" width="32" height="32" viewBox="0 0 32 32" version="1.1">
<g id="surface1">
<path style=" stroke:none;fill-rule:nonzero;fill:rgb(100%,100%,100%);fill-opacity:1;" d="M 16 2.667969 C 23.363281 2.667969 29.332031 7.96875 29.332031 14.519531 C 29.332031 18.609375 26.015625 21.925781 21.925781 21.925781 L 19.304688 21.925781 C 18.074219 21.925781 17.082031 22.917969 17.082031 24.148438 C 17.082031 24.710938 17.304688 25.230469 17.644531 25.613281 C 18 26.015625 18.222656 26.535156 18.222656 27.109375 C 18.222656 28.339844 17.199219 29.332031 16 29.332031 C 8.636719 29.332031 2.667969 23.363281 2.667969 16 C 2.667969 8.636719 8.636719 2.667969 16 2.667969 Z M 14.414062 24.148438 C 14.414062 22.851562 14.929688 21.605469 15.84375 20.691406 C 16.761719 19.773438 18.007812 19.257812 19.304688 19.257812 L 21.925781 19.257812 C 24.542969 19.257812 26.664062 17.136719 26.667969 14.519531 C 26.667969 9.519531 21.957031 5.332031 16 5.332031 C 10.28125 5.328125 5.574219 9.835938 5.332031 15.550781 C 5.089844 21.261719 9.398438 26.152344 15.097656 26.628906 C 14.652344 25.878906 14.414062 25.023438 14.414062 24.148438 Z M 10 16 C 8.894531 16 8 15.105469 8 14 C 8 12.894531 8.894531 12 10 12 C 11.105469 12 12 12.894531 12 14 C 12 15.105469 11.105469 16 10 16 Z M 22 16 C 20.894531 16 20 15.105469 20 14 C 20 12.894531 20.894531 12 22 12 C 23.105469 12 24 12.894531 24 14 C 24 15.105469 23.105469 16 22 16 Z M 16 12 C 14.894531 12 14 11.105469 14 10 C 14 8.894531 14.894531 8 16 8 C 17.105469 8 18 8.894531 18 10 C 18 11.105469 17.105469 12 16 12 Z M 16 12 "/>
</g>
</svg>
