<?xml version="1.0" encoding="UTF-8"?>
<svg xmlns="http://www.w3.org/2000/svg" xmlns:xlink="http://www.w3.org/1999/xlink" width="32" height="32" viewBox="0 0 32 32" version="1.1">
<g id="surface1">
<path style=" stroke:none;fill-rule:nonzero;fill:rgb(100%,100%,100%);fill-opacity:1;" d="M 7.683594 10.667969 L 7.292969 9.691406 C 7.015625 9.011719 7.347656 8.234375 8.03125 7.957031 L 20.390625 2.960938 C 21.074219 2.6875 21.851562 3.015625 22.125 3.699219 L 29.621094 22.242188 C 29.894531 22.925781 29.566406 23.703125 28.882812 23.980469 L 16.519531 28.972656 C 15.835938 29.25 15.058594 28.917969 14.785156 28.234375 L 14.667969 27.945312 L 14.667969 28 L 9.332031 28 C 8.597656 28 8 27.402344 8 26.667969 L 8 26.308594 L 3.535156 24.503906 C 2.851562 24.226562 2.519531 23.449219 2.796875 22.765625 Z M 10.667969 25.332031 L 13.613281 25.332031 L 10.667969 18.042969 Z M 8 17.007812 L 5.769531 22.53125 L 8 23.476562 Z M 10.265625 9.929688 L 16.757812 26 L 26.648438 22.003906 L 20.15625 5.933594 Z M 14.234375 12.640625 C 13.550781 12.914062 12.773438 12.585938 12.5 11.902344 C 12.222656 11.21875 12.554688 10.441406 13.234375 10.167969 C 13.917969 9.890625 14.695312 10.21875 14.972656 10.902344 C 15.25 11.585938 14.917969 12.363281 14.234375 12.640625 Z M 14.234375 12.640625 "/>
</g>
</svg>
