<?xml version="1.0" encoding="UTF-8"?>
<svg xmlns="http://www.w3.org/2000/svg" xmlns:xlink="http://www.w3.org/1999/xlink" width="32" height="32" viewBox="0 0 32 32" version="1.1">
<g id="surface1">
<path style=" stroke:none;fill-rule:nonzero;fill:rgb(100%,100%,100%);fill-opacity:1;" d="M 24.558594 0.0273438 C 22.824219 0.0273438 21.089844 0.6875 19.765625 2.011719 C 18.527344 3.25 17.875 4.746094 17.78125 6.5625 C 17.730469 7.585938 17.988281 8.773438 18.496094 9.851562 C 18.59375 10.0625 19.707031 12.027344 20.972656 14.214844 C 23.074219 17.855469 23.359375 18.328125 23.648438 18.515625 L 23.648438 24.03125 C 23.648438 27.613281 21.613281 29.023438 19.648438 29.023438 C 17.683594 29.023438 15.644531 27.613281 15.644531 24.03125 L 15.644531 8.027344 C 15.644531 3.609375 12.6875 1.03125 9.652344 1.03125 C 6.617188 1.03125 3.644531 3.609375 3.644531 8.027344 L 3.644531 24.1875 C 0.574219 24.90625 -0.367188 29.195312 2.195312 31.089844 C 4.660156 33.175781 8.703125 31.21875 8.589844 27.988281 C 8.613281 26.140625 7.308594 24.621094 5.652344 24.175781 L 5.652344 8.027344 C 5.652344 4.445312 7.6875 3.023438 9.652344 3.023438 C 11.617188 3.023438 13.652344 4.445312 13.652344 8.027344 L 13.652344 24.03125 C 13.652344 28.449219 16.613281 31.03125 19.648438 31.03125 C 22.683594 31.03125 25.640625 28.449219 25.640625 24.03125 L 25.640625 18.355469 C 25.734375 18.269531 25.824219 18.175781 25.894531 18.066406 C 26.25 17.511719 30.457031 10.199219 30.636719 9.820312 C 31.433594 8.148438 31.550781 6.332031 30.972656 4.621094 C 30.636719 3.625 30.101562 2.773438 29.34375 2.011719 C 28.023438 0.6875 26.292969 0.0273438 24.558594 0.0273438 Z M 24.554688 3.886719 C 25.039062 3.886719 25.109375 3.894531 25.355469 3.984375 C 25.734375 4.125 26.039062 4.320312 26.316406 4.601562 C 26.597656 4.886719 26.765625 5.152344 26.890625 5.515625 C 27.300781 6.691406 26.761719 8.011719 25.652344 8.539062 C 25.464844 8.628906 25.230469 8.722656 25.140625 8.742188 C 24.894531 8.800781 24.417969 8.820312 24.1875 8.785156 C 23.238281 8.636719 22.453125 7.933594 22.179688 7.003906 C 22.074219 6.636719 22.058594 6.097656 22.152344 5.742188 C 22.367188 4.914062 22.9375 4.289062 23.753906 3.988281 C 24 3.898438 24.066406 3.886719 24.554688 3.886719 Z M 4.585938 26.023438 L 4.707031 26.023438 C 5.695312 26.070312 6.652344 26.960938 6.625 27.972656 C 6.625 27.996094 6.625 28.023438 6.625 28.046875 C 6.699219 29.542969 4.574219 30.570312 3.449219 29.582031 C 3.425781 29.554688 3.402344 29.53125 3.375 29.507812 C 2.152344 28.636719 2.671875 26.351562 4.144531 26.082031 C 4.167969 26.078125 4.195312 26.074219 4.21875 26.070312 C 4.339844 26.039062 4.460938 26.027344 4.585938 26.023438 Z M 4.585938 26.023438 "/>
</g>
</svg>
