<?xml version="1.0" encoding="UTF-8"?>
<svg xmlns="http://www.w3.org/2000/svg" xmlns:xlink="http://www.w3.org/1999/xlink" width="32" height="32" viewBox="0 0 32 32" version="1.1">
<g id="surface1">
<path style=" stroke:none;fill-rule:nonzero;fill:rgb(100%,100%,100%);fill-opacity:1;" d="M 6.667969 10.667969 L 6.667969 26.667969 L 12 26.667969 L 12 10.667969 Z M 4 9.332031 L 9.332031 2.667969 L 14.667969 9.332031 L 14.667969 29.332031 L 4 29.332031 Z M 25.332031 21.332031 L 25.332031 18.667969 L 21.332031 18.667969 L 21.332031 16 L 25.332031 16 L 25.332031 13.332031 L 22.667969 13.332031 L 22.667969 10.667969 L 25.332031 10.667969 L 25.332031 8 L 20 8 L 20 26.667969 L 25.332031 26.667969 L 25.332031 24 L 22.667969 24 L 22.667969 21.332031 Z M 18.667969 5.332031 L 26.667969 5.332031 C 27.402344 5.332031 28 5.929688 28 6.667969 L 28 28 C 28 28.738281 27.402344 29.332031 26.667969 29.332031 L 18.667969 29.332031 C 17.929688 29.332031 17.332031 28.738281 17.332031 28 L 17.332031 6.667969 C 17.332031 5.929688 17.929688 5.332031 18.667969 5.332031 Z M 18.667969 5.332031 "/>
</g>
</svg>
