<?xml version="1.0" encoding="UTF-8"?>
<svg xmlns="http://www.w3.org/2000/svg" xmlns:xlink="http://www.w3.org/1999/xlink" width="32" height="32" viewBox="0 0 32 32" version="1.1">
<g id="surface1">
<path style=" stroke:none;fill-rule:nonzero;fill:rgb(100%,100%,100%);fill-opacity:1;" d="M 16 29.332031 C 8.636719 29.332031 2.667969 23.363281 2.667969 16 C 2.667969 10.03125 6.589844 4.976562 12 3.277344 L 12 6.109375 C 7.273438 8.027344 4.566406 13.027344 5.539062 18.035156 C 6.515625 23.042969 10.898438 26.660156 16 26.667969 C 20.347656 26.667969 24.257812 24.03125 25.890625 20 L 28.722656 20 C 27.023438 25.410156 21.96875 29.332031 16 29.332031 Z M 29.265625 17.332031 L 14.667969 17.332031 L 14.667969 2.734375 C 15.105469 2.6875 15.550781 2.667969 16 2.667969 C 23.363281 2.667969 29.332031 8.636719 29.332031 16 C 29.332031 16.449219 29.3125 16.894531 29.265625 17.332031 Z M 17.332031 5.414062 L 17.332031 14.667969 L 26.585938 14.667969 C 25.972656 9.832031 22.167969 6.027344 17.332031 5.414062 Z M 17.332031 5.414062 "/>
</g>
</svg>
