<?xml version="1.0" encoding="UTF-8"?>
<svg xmlns="http://www.w3.org/2000/svg" xmlns:xlink="http://www.w3.org/1999/xlink" width="32" height="32" viewBox="0 0 32 32" version="1.1">
<g id="surface1">
<path style=" stroke:none;fill-rule:nonzero;fill:rgb(100%,100%,100%);fill-opacity:1;" d="M 4 4 L 28 4 C 28.738281 4 29.332031 4.597656 29.332031 5.332031 L 29.332031 26.667969 C 29.332031 27.402344 28.738281 28 28 28 L 4 28 C 3.261719 28 2.667969 27.402344 2.667969 26.667969 L 2.667969 5.332031 C 2.667969 4.597656 3.261719 4 4 4 Z M 22.535156 17.332031 L 14.667969 17.332031 L 14.667969 9.464844 C 11.320312 10.160156 9.039062 13.269531 9.382812 16.667969 C 9.726562 20.066406 12.582031 22.65625 16 22.667969 C 19.167969 22.667969 21.898438 20.4375 22.535156 17.332031 Z M 22.535156 14.667969 C 21.996094 12.046875 19.953125 10.003906 17.332031 9.464844 L 17.332031 14.667969 Z M 22.535156 14.667969 "/>
</g>
</svg>
