<?xml version="1.0" encoding="UTF-8"?>
<svg xmlns="http://www.w3.org/2000/svg" xmlns:xlink="http://www.w3.org/1999/xlink" width="32" height="32" viewBox="0 0 32 32" version="1.1">
<g id="surface1">
<path style=" stroke:none;fill-rule:nonzero;fill:rgb(100%,100%,100%);fill-opacity:1;" d="M 11.320312 25.589844 C 11.351562 25.140625 11.414062 24.691406 11.511719 24.253906 C 11.597656 23.859375 11.851562 22.746094 12.222656 21.132812 L 12.234375 21.09375 L 12.75 18.871094 C 12.855469 18.414062 12.9375 18.0625 12.992188 17.945312 C 12.730469 17.347656 12.601562 16.703125 12.613281 16.050781 C 12.613281 14.265625 13.621094 12.886719 14.925781 12.886719 C 15.40625 12.878906 15.867188 13.085938 16.183594 13.453125 C 16.5 13.820312 16.648438 14.3125 16.585938 14.78125 C 16.585938 15.386719 16.472656 15.84375 15.980469 17.496094 C 15.886719 17.8125 15.820312 18.035156 15.761719 18.257812 C 15.691406 18.507812 15.632812 18.734375 15.585938 18.953125 C 15.457031 19.464844 15.574219 20.015625 15.898438 20.425781 C 16.222656 20.835938 16.722656 21.0625 17.242188 21.035156 C 19.230469 21.035156 20.707031 18.386719 20.707031 14.96875 C 20.707031 12.34375 18.988281 10.605469 16.132812 10.605469 C 14.6875 10.550781 13.285156 11.105469 12.265625 12.132812 C 11.226562 13.183594 10.652344 14.605469 10.671875 16.082031 C 10.640625 16.867188 10.882812 17.644531 11.355469 18.273438 C 11.597656 18.460938 11.6875 18.785156 11.589844 19.058594 C 11.535156 19.285156 11.402344 19.796875 11.355469 19.964844 C 11.328125 20.136719 11.21875 20.285156 11.066406 20.363281 C 10.917969 20.441406 10.742188 20.441406 10.59375 20.367188 C 9.046875 19.726562 8.199219 17.996094 8.199219 15.777344 C 8.199219 11.796875 11.519531 8.332031 16.453125 8.332031 C 20.632812 8.332031 23.761719 11.4375 23.761719 15.1875 C 23.761719 19.894531 21.1875 23.324219 17.507812 23.324219 C 16.449219 23.355469 15.4375 22.882812 14.78125 22.046875 L 14.722656 22.28125 L 14.449219 23.417969 L 14.445312 23.429688 C 14.25 24.226562 14.113281 24.785156 14.0625 24.992188 C 13.921875 25.464844 13.742188 25.929688 13.527344 26.378906 C 19.035156 27.691406 24.609375 24.46875 26.222656 19.042969 C 27.835938 13.613281 24.925781 7.871094 19.59375 5.960938 C 14.261719 4.050781 8.367188 6.640625 6.167969 11.859375 C 3.96875 17.078125 6.230469 23.105469 11.320312 25.589844 Z M 16 29.332031 C 8.636719 29.332031 2.667969 23.363281 2.667969 16 C 2.667969 8.636719 8.636719 2.667969 16 2.667969 C 23.363281 2.667969 29.332031 8.636719 29.332031 16 C 29.332031 23.363281 23.363281 29.332031 16 29.332031 Z M 16 29.332031 "/>
</g>
</svg>
