<?xml version="1.0" encoding="UTF-8"?>
<svg xmlns="http://www.w3.org/2000/svg" xmlns:xlink="http://www.w3.org/1999/xlink" width="32" height="32" viewBox="0 0 32 32" version="1.1">
<g id="surface1">
<path style=" stroke:none;fill-rule:nonzero;fill:rgb(100%,100%,100%);fill-opacity:1;" d="M 4 9.332031 L 15.261719 1.828125 C 15.707031 1.527344 16.292969 1.527344 16.738281 1.828125 L 28 9.332031 L 28 28 C 28 28.738281 27.402344 29.332031 26.667969 29.332031 L 5.332031 29.332031 C 4.597656 29.332031 4 28.738281 4 28 Z M 6.667969 10.761719 L 6.667969 26.667969 L 25.332031 26.667969 L 25.332031 10.761719 L 16 4.539062 Z M 10.667969 21.332031 L 21.332031 21.332031 L 21.332031 24 L 10.667969 24 Z M 10.667969 17.332031 L 21.332031 17.332031 L 21.332031 20 L 10.667969 20 Z M 16 14.667969 C 14.527344 14.667969 13.332031 13.472656 13.332031 12 C 13.332031 10.527344 14.527344 9.332031 16 9.332031 C 17.472656 9.332031 18.667969 10.527344 18.667969 12 C 18.667969 13.472656 17.472656 14.667969 16 14.667969 Z M 16 14.667969 "/>
</g>
</svg>
