<?xml version="1.0" encoding="UTF-8"?>
<svg xmlns="http://www.w3.org/2000/svg" xmlns:xlink="http://www.w3.org/1999/xlink" width="32" height="32" viewBox="0 0 32 32" version="1.1">
<g id="surface1">
<path style=" stroke:none;fill-rule:nonzero;fill:rgb(100%,100%,100%);fill-opacity:1;" d="M 14.089844 22.667969 C 13.589844 23.589844 13.332031 24.621094 13.332031 25.667969 C 13.332031 27.03125 13.765625 28.296875 14.503906 29.332031 L 9.332031 29.332031 L 9.332031 22.667969 Z M 23.332031 17.332031 C 25.910156 17.332031 28 19.421875 28 22 L 28 22.136719 C 29.722656 22.621094 30.839844 24.28125 30.648438 26.058594 C 30.457031 27.839844 29.011719 29.21875 27.222656 29.328125 L 27 29.332031 L 19.667969 29.332031 L 19.441406 29.328125 C 17.65625 29.21875 16.210938 27.835938 16.019531 26.058594 C 15.828125 24.28125 16.949219 22.621094 18.671875 22.136719 L 18.667969 22 C 18.667969 19.421875 20.757812 17.332031 23.332031 17.332031 Z M 28 10.667969 C 28.738281 10.667969 29.332031 11.261719 29.332031 12 L 29.335938 17.792969 C 27.964844 15.832031 25.726562 14.664062 23.332031 14.667969 L 23.039062 14.671875 C 19.871094 14.800781 17.140625 16.949219 16.277344 20 L 6.667969 20 L 6.667969 26.667969 L 4 26.667969 C 3.261719 26.667969 2.667969 26.070312 2.667969 25.332031 L 2.667969 12 C 2.667969 11.261719 3.261719 10.667969 4 10.667969 Z M 10.667969 13.332031 L 6.667969 13.332031 L 6.667969 16 L 10.667969 16 Z M 22.667969 2.667969 C 23.402344 2.667969 24 3.261719 24 4 L 24 8 L 8 8 L 8 4 C 8 3.261719 8.597656 2.667969 9.332031 2.667969 Z M 22.667969 2.667969 "/>
</g>
</svg>
