<?xml version="1.0" encoding="UTF-8"?>
<svg xmlns="http://www.w3.org/2000/svg" xmlns:xlink="http://www.w3.org/1999/xlink" width="32" height="32" viewBox="0 0 32 32" version="1.1">
<g id="surface1">
<path style=" stroke:none;fill-rule:nonzero;fill:rgb(100%,100%,100%);fill-opacity:1;" d="M 5.003906 -0.00390625 C 4.449219 -0.0078125 3.996094 0.445312 4 1 L 4 13.34375 C 1.601562 14.191406 0 16.457031 0 19 L 0 25 C 0 26.105469 0.894531 27 2 27 L 4 27 L 4 31 C 3.996094 31.554688 4.449219 32.007812 5.003906 32.003906 L 27.003906 32.003906 C 27.558594 32.007812 28.011719 31.554688 28.007812 31 L 28.007812 27 L 30 27 C 31.105469 27 32 26.105469 32 25 L 32 19 C 32 16.460938 30.402344 14.199219 28.007812 13.347656 L 28.007812 5 C 28.007812 4.734375 27.898438 4.480469 27.710938 4.292969 L 23.710938 0.292969 C 23.523438 0.105469 23.269531 -0.00390625 23.003906 -0.00390625 Z M 5.992188 2.003906 L 22 2 L 22 6 L 26 6 L 26 14 L 6 14 L 6 13 L 5.992188 13 Z M 28 16 C 29.105469 16 30 16.894531 30 18 C 30 19.105469 29.105469 20 28 20 C 26.894531 20 26 19.105469 26 18 C 26 16.894531 26.894531 16 28 16 Z M 6 24 L 26 24 L 26 29.996094 L 5.992188 29.996094 L 5.992188 27 L 6 27 Z M 6 24 "/>
</g>
</svg>
