<?xml version="1.0" encoding="UTF-8"?>
<svg xmlns="http://www.w3.org/2000/svg" xmlns:xlink="http://www.w3.org/1999/xlink" width="32" height="32" viewBox="0 0 32 32" version="1.1">
<g id="surface1">
<path style=" stroke:none;fill-rule:nonzero;fill:rgb(100%,100%,100%);fill-opacity:1;" d="M 29.332031 25.332031 L 29.332031 28 L 26.667969 28 L 26.667969 25.332031 L 5.332031 25.332031 L 5.332031 28 L 2.667969 28 L 2.667969 25.332031 C 1.929688 25.332031 1.332031 24.738281 1.332031 24 L 1.332031 8 C 1.332031 7.261719 1.929688 6.667969 2.667969 6.667969 L 15.746094 6.667969 C 17.378906 4.960938 19.640625 3.996094 22 4 C 24.457031 4 26.675781 5.023438 28.253906 6.667969 L 29.332031 6.667969 C 30.070312 6.667969 30.667969 7.261719 30.667969 8 L 30.667969 24 C 30.667969 24.738281 30.070312 25.332031 29.332031 25.332031 Z M 22 18.667969 C 25.3125 18.667969 28 15.980469 28 12.667969 C 28 9.351562 25.3125 6.667969 22 6.667969 C 18.6875 6.667969 16 9.351562 16 12.667969 C 16 15.980469 18.6875 18.667969 22 18.667969 Z M 22 16 C 20.160156 16 18.667969 14.507812 18.667969 12.667969 C 18.667969 10.824219 20.160156 9.332031 22 9.332031 C 23.839844 9.332031 25.332031 10.824219 25.332031 12.667969 C 25.332031 14.507812 23.839844 16 22 16 Z M 5.332031 17.332031 L 5.332031 20 L 8 20 L 8 17.332031 Z M 10.667969 17.332031 L 10.667969 20 L 13.332031 20 L 13.332031 17.332031 Z M 10.667969 17.332031 "/>
</g>
</svg>
