<?xml version="1.0" encoding="UTF-8"?>
<svg xmlns="http://www.w3.org/2000/svg" xmlns:xlink="http://www.w3.org/1999/xlink" width="32" height="32" viewBox="0 0 32 32" version="1.1">
<g id="surface1">
<path style=" stroke:none;fill-rule:nonzero;fill:rgb(100%,100%,100%);fill-opacity:1;" d="M 12.992188 20 L 19.007812 20 C 16.824219 17.351562 16.769531 13.542969 18.875 10.832031 C 20.984375 8.121094 24.6875 7.238281 27.792969 8.699219 C 30.898438 10.164062 32.570312 13.585938 31.824219 16.933594 C 31.074219 20.285156 28.097656 22.667969 24.667969 22.667969 L 7.332031 22.667969 C 3.902344 22.667969 0.925781 20.285156 0.175781 16.933594 C -0.570312 13.585938 1.101562 10.164062 4.207031 8.699219 C 7.3125 7.238281 11.015625 8.121094 13.125 10.832031 C 15.230469 13.542969 15.175781 17.351562 12.992188 20 Z M 7.332031 17.332031 C 8.4375 17.332031 9.332031 16.4375 9.332031 15.332031 C 9.332031 14.230469 8.4375 13.332031 7.332031 13.332031 C 6.230469 13.332031 5.332031 14.230469 5.332031 15.332031 C 5.332031 16.4375 6.230469 17.332031 7.332031 17.332031 Z M 24.667969 17.332031 C 25.769531 17.332031 26.667969 16.4375 26.667969 15.332031 C 26.667969 14.230469 25.769531 13.332031 24.667969 13.332031 C 23.5625 13.332031 22.667969 14.230469 22.667969 15.332031 C 22.667969 16.4375 23.5625 17.332031 24.667969 17.332031 Z M 24.667969 17.332031 "/>
</g>
</svg>
