<?xml version="1.0" encoding="UTF-8"?>
<svg xmlns="http://www.w3.org/2000/svg" xmlns:xlink="http://www.w3.org/1999/xlink" width="32" height="32" viewBox="0 0 32 32" version="1.1">
<g id="surface1">
<path style=" stroke:none;fill-rule:nonzero;fill:rgb(100%,100%,100%);fill-opacity:1;" d="M 14.800781 10.421875 L 15.804688 5.707031 C 16.109375 4.265625 17.527344 3.34375 18.96875 3.652344 L 23.230469 4.558594 C 24.035156 3.660156 25.347656 3.417969 26.421875 3.96875 C 27.496094 4.515625 28.070312 5.71875 27.820312 6.898438 C 27.566406 8.078125 26.554688 8.941406 25.351562 9.007812 C 24.144531 9.070312 23.046875 8.316406 22.675781 7.167969 L 18.414062 6.261719 L 17.523438 10.441406 C 19.902344 10.621094 22.269531 11.414062 24.410156 12.707031 C 25.703125 11.988281 27.277344 11.992188 28.566406 12.71875 C 29.855469 13.445312 30.675781 14.792969 30.730469 16.269531 L 30.730469 16.296875 C 30.75 17.621094 30.15625 18.875 29.121094 19.699219 C 29.117188 19.753906 29.117188 19.808594 29.109375 19.863281 C 29.109375 25.191406 23.175781 29.234375 16.046875 29.234375 C 8.9375 29.234375 3.101562 25.203125 3.105469 19.964844 C 3.097656 19.886719 3.09375 19.804688 3.09375 19.722656 C 1.304688 18.382812 0.859375 15.886719 2.070312 14.011719 C 3.28125 12.136719 5.738281 11.515625 7.699219 12.589844 C 9.851562 11.292969 12.292969 10.546875 14.800781 10.421875 Z M 27.183594 17.789062 C 27.726562 17.515625 28.070312 16.960938 28.066406 16.355469 C 28.035156 15.730469 27.648438 15.183594 27.066406 14.949219 C 26.488281 14.71875 25.828125 14.847656 25.378906 15.28125 L 24.597656 16.027344 L 23.703125 15.421875 C 21.550781 13.957031 19.101562 13.121094 16.730469 13.066406 L 15.390625 13.066406 C 12.890625 13.105469 10.519531 13.867188 8.40625 15.300781 L 7.523438 15.902344 L 6.742188 15.167969 C 6.285156 14.738281 5.617188 14.617188 5.035156 14.863281 C 4.457031 15.109375 4.078125 15.671875 4.066406 16.304688 C 4.058594 16.933594 4.421875 17.507812 4.992188 17.769531 L 5.835938 18.15625 L 5.765625 19.085938 C 5.746094 19.3125 5.746094 19.535156 5.769531 19.863281 C 5.769531 23.476562 10.242188 26.570312 16.046875 26.570312 C 21.875 26.570312 26.445312 23.453125 26.449219 19.761719 C 26.464844 19.535156 26.464844 19.308594 26.449219 19.085938 L 26.378906 18.1875 Z M 9.332031 18 C 9.332031 16.894531 10.230469 16 11.332031 16 C 12.4375 16 13.332031 16.894531 13.332031 18 C 13.332031 19.105469 12.4375 20 11.332031 20 C 10.230469 20 9.332031 19.105469 9.332031 18 Z M 18.667969 18 C 18.667969 16.894531 19.5625 16 20.667969 16 C 21.769531 16 22.667969 16.894531 22.667969 18 C 22.667969 19.105469 21.769531 20 20.667969 20 C 19.5625 20 18.667969 19.105469 18.667969 18 Z M 16.019531 24.804688 C 14.160156 24.804688 12.332031 24.3125 10.84375 23.191406 C 10.660156 22.964844 10.675781 22.636719 10.882812 22.429688 C 11.085938 22.222656 11.417969 22.207031 11.640625 22.394531 C 12.902344 23.320312 14.472656 23.714844 16 23.714844 C 17.527344 23.714844 19.105469 23.347656 20.378906 22.4375 C 20.527344 22.289062 20.746094 22.234375 20.945312 22.292969 C 21.148438 22.347656 21.304688 22.507812 21.355469 22.710938 C 21.398438 22.914062 21.339844 23.125 21.195312 23.273438 C 20.285156 24.335938 17.882812 24.804688 16.019531 24.804688 Z M 16.019531 24.804688 "/>
</g>
</svg>
