<?xml version="1.0" encoding="UTF-8"?>
<svg xmlns="http://www.w3.org/2000/svg" xmlns:xlink="http://www.w3.org/1999/xlink" width="32" height="32" viewBox="0 0 32 32" version="1.1">
<g id="surface1">
<path style=" stroke:none;fill-rule:nonzero;fill:rgb(100%,100%,100%);fill-opacity:1;" d="M 16 29.332031 C 8.636719 29.332031 2.667969 23.363281 2.667969 16 C 2.667969 8.636719 8.636719 2.667969 16 2.667969 C 23.363281 2.667969 29.332031 8.636719 29.332031 16 C 29.332031 23.363281 23.363281 29.332031 16 29.332031 Z M 22.425781 22.769531 C 25.949219 19.414062 26.308594 13.917969 23.25 10.136719 C 20.191406 6.355469 14.742188 5.554688 10.726562 8.300781 C 6.710938 11.046875 5.476562 16.414062 7.890625 20.636719 C 10.300781 24.859375 15.554688 26.523438 19.957031 24.457031 L 18.65625 22.117188 C 15.953125 23.289062 12.800781 22.550781 10.902344 20.296875 C 9.003906 18.042969 8.808594 14.8125 10.425781 12.347656 C 12.039062 9.882812 15.082031 8.769531 17.90625 9.613281 C 20.730469 10.457031 22.664062 13.054688 22.667969 16 L 18.667969 16 Z M 22.425781 22.769531 "/>
</g>
</svg>
