<?xml version="1.0" encoding="UTF-8"?>
<svg xmlns="http://www.w3.org/2000/svg" xmlns:xlink="http://www.w3.org/1999/xlink" width="32" height="32" viewBox="0 0 32 32" version="1.1">
<g id="surface1">
<path style=" stroke:none;fill-rule:nonzero;fill:rgb(100%,100%,100%);fill-opacity:1;" d="M 14.667969 8 L 14.667969 10.667969 C 10.246094 10.667969 6.667969 14.246094 6.667969 18.667969 C 6.667969 23.085938 10.246094 26.667969 14.667969 26.667969 C 18.984375 26.667969 22.503906 23.246094 22.660156 18.964844 L 22.667969 18.667969 L 25.332031 18.667969 C 25.332031 24.558594 20.558594 29.332031 14.667969 29.332031 C 8.777344 29.332031 4 24.558594 4 18.667969 C 4 12.886719 8.773438 8 14.667969 8 Z M 28 2.667969 L 28 5.332031 L 20.898438 13.332031 L 28 13.332031 L 28 16 L 17.332031 16 L 17.332031 13.332031 L 24.433594 5.332031 L 17.332031 5.332031 L 17.332031 2.667969 Z M 28 2.667969 "/>
</g>
</svg>
