<?xml version="1.0" encoding="UTF-8"?>
<svg xmlns="http://www.w3.org/2000/svg" xmlns:xlink="http://www.w3.org/1999/xlink" width="32" height="32" viewBox="0 0 32 32" version="1.1">
<g id="surface1">
<path style=" stroke:none;fill-rule:nonzero;fill:rgb(100%,100%,100%);fill-opacity:1;" d="M 7.332031 28 C 4.019531 28 1.332031 25.3125 1.332031 22 C 1.332031 18.6875 4.019531 16 7.332031 16 C 10.648438 16 13.332031 18.6875 13.332031 22 C 13.332031 25.3125 10.648438 28 7.332031 28 Z M 7.332031 25.332031 C 9.175781 25.332031 10.667969 23.839844 10.667969 22 C 10.667969 20.160156 9.175781 18.667969 7.332031 18.667969 C 5.492188 18.667969 4 20.160156 4 22 C 4 23.839844 5.492188 25.332031 7.332031 25.332031 Z M 24.667969 28 C 21.351562 28 18.667969 25.3125 18.667969 22 C 18.667969 18.6875 21.351562 16 24.667969 16 C 27.980469 16 30.667969 18.6875 30.667969 22 C 30.667969 25.3125 27.980469 28 24.667969 28 Z M 24.667969 25.332031 C 26.507812 25.332031 28 23.839844 28 22 C 28 20.160156 26.507812 18.667969 24.667969 18.667969 C 22.824219 18.667969 21.332031 20.160156 21.332031 22 C 21.332031 23.839844 22.824219 25.332031 24.667969 25.332031 Z M 14.699219 13.738281 L 17.332031 16 L 17.332031 24 L 14.667969 24 L 14.667969 17.332031 L 11.042969 14.3125 C 10.386719 13.863281 9.96875 13.148438 9.894531 12.359375 C 9.824219 11.570312 10.105469 10.789062 10.667969 10.226562 L 14.4375 6.457031 C 15.480469 5.414062 17.167969 5.414062 18.210938 6.457031 L 20.09375 8.34375 C 21.507812 9.757812 23.339844 10.683594 25.316406 10.976562 L 25.304688 13.664062 C 22.617188 13.355469 20.117188 12.144531 18.210938 10.230469 Z M 21.332031 6.667969 C 19.859375 6.667969 18.667969 5.472656 18.667969 4 C 18.667969 2.527344 19.859375 1.332031 21.332031 1.332031 C 22.804688 1.332031 24 2.527344 24 4 C 24 5.472656 22.804688 6.667969 21.332031 6.667969 Z M 21.332031 6.667969 "/>
</g>
</svg>
