<?xml version="1.0" encoding="UTF-8"?>
<svg xmlns="http://www.w3.org/2000/svg" xmlns:xlink="http://www.w3.org/1999/xlink" width="32" height="32" viewBox="0 0 32 32" version="1.1">
<g id="surface1">
<path style=" stroke:none;fill-rule:nonzero;fill:rgb(100%,100%,100%);fill-opacity:1;" d="M 22.601562 15.933594 C 24.898438 13.636719 25.835938 10.3125 25.078125 7.15625 L 28.402344 5.730469 C 28.609375 5.640625 28.847656 5.664062 29.035156 5.785156 C 29.222656 5.910156 29.332031 6.121094 29.332031 6.34375 L 29.332031 25.332031 L 20 29.332031 L 12 25.332031 L 3.597656 28.933594 C 3.390625 29.023438 3.152344 29 2.964844 28.878906 C 2.777344 28.753906 2.667969 28.546875 2.667969 28.320312 L 2.667969 9.332031 L 6.839844 7.546875 C 6.242188 10.59375 7.203125 13.738281 9.398438 15.933594 L 16 22.535156 Z M 20.714844 14.046875 L 16 18.761719 L 11.285156 14.046875 C 8.683594 11.441406 8.683594 7.222656 11.285156 4.617188 C 13.890625 2.015625 18.109375 2.015625 20.714844 4.617188 C 23.316406 7.222656 23.316406 11.441406 20.714844 14.046875 Z M 20.714844 14.046875 "/>
</g>
</svg>
