<?xml version="1.0" encoding="UTF-8"?>
<svg xmlns="http://www.w3.org/2000/svg" xmlns:xlink="http://www.w3.org/1999/xlink" width="32" height="32" viewBox="0 0 32 32" version="1.1">
<g id="surface1">
<path style=" stroke:none;fill-rule:nonzero;fill:rgb(100%,100%,100%);fill-opacity:1;" d="M 7.105469 21.238281 C 6.8125 19.957031 6.664062 18.648438 6.667969 17.332031 C 6.667969 10.550781 10.539062 4.753906 16 2.425781 C 21.460938 4.753906 25.332031 10.550781 25.332031 17.332031 C 25.332031 18.679688 25.179688 19.988281 24.894531 21.238281 L 27.585938 23.632812 C 27.824219 23.847656 27.878906 24.199219 27.714844 24.472656 L 24.4375 29.933594 C 24.332031 30.109375 24.152344 30.226562 23.949219 30.253906 C 23.746094 30.277344 23.542969 30.207031 23.394531 30.0625 L 20.390625 27.058594 C 20.140625 26.808594 19.800781 26.667969 19.449219 26.667969 L 12.550781 26.667969 C 12.199219 26.667969 11.859375 26.808594 11.609375 27.058594 L 8.605469 30.0625 C 8.457031 30.207031 8.253906 30.277344 8.050781 30.253906 C 7.847656 30.226562 7.667969 30.109375 7.5625 29.933594 L 4.285156 24.476562 C 4.121094 24.199219 4.171875 23.847656 4.414062 23.632812 Z M 16 17.332031 C 17.472656 17.332031 18.667969 16.140625 18.667969 14.667969 C 18.667969 13.195312 17.472656 12 16 12 C 14.527344 12 13.332031 13.195312 13.332031 14.667969 C 13.332031 16.140625 14.527344 17.332031 16 17.332031 Z M 16 17.332031 "/>
</g>
</svg>
