<?xml version="1.0" encoding="UTF-8"?>
<svg xmlns="http://www.w3.org/2000/svg" xmlns:xlink="http://www.w3.org/1999/xlink" width="32" height="32" viewBox="0 0 32 32" version="1.1">
<g id="surface1">
<path style=" stroke:none;fill-rule:nonzero;fill:rgb(100%,100%,100%);fill-opacity:1;" d="M 16 2.667969 C 23.363281 2.667969 29.332031 8.636719 29.332031 16 C 29.332031 18.847656 28.441406 21.488281 26.917969 23.65625 L 22.667969 16 L 26.667969 16 C 26.667969 10.933594 23.097656 6.5625 18.132812 5.550781 C 13.167969 4.535156 8.175781 7.15625 6.1875 11.820312 C 4.199219 16.480469 5.769531 21.898438 9.9375 24.777344 C 14.109375 27.65625 19.730469 27.207031 23.386719 23.695312 L 24.71875 26.089844 C 22.296875 28.1875 19.203125 29.339844 16 29.332031 C 8.636719 29.332031 2.667969 23.363281 2.667969 16 C 2.667969 8.636719 8.636719 2.667969 16 2.667969 Z M 16 9.332031 C 18.210938 9.332031 20 11.125 20 13.332031 L 20 14.667969 L 21.332031 14.667969 L 21.332031 21.332031 L 10.667969 21.332031 L 10.667969 14.667969 L 12 14.667969 L 12 13.332031 C 12 11.125 13.789062 9.332031 16 9.332031 Z M 16 12 C 15.324219 12 14.753906 12.507812 14.675781 13.175781 L 14.667969 13.332031 L 14.667969 14.667969 L 17.332031 14.667969 L 17.332031 13.332031 C 17.332031 12.65625 16.828125 12.089844 16.15625 12.007812 Z M 16 12 "/>
</g>
</svg>
