<?xml version="1.0" encoding="UTF-8"?>
<svg xmlns="http://www.w3.org/2000/svg" xmlns:xlink="http://www.w3.org/1999/xlink" width="32" height="32" viewBox="0 0 32 32" version="1.1">
<g id="surface1">
<path style=" stroke:none;fill-rule:nonzero;fill:rgb(100%,100%,100%);fill-opacity:1;" d="M 4.414062 0 C 1.972656 0.00390625 -0.00390625 1.992188 0 4.441406 L 0 27.558594 C -0.00390625 30.007812 1.972656 31.996094 4.414062 32 L 27.582031 32 C 30.027344 31.996094 32.003906 30.007812 32 27.558594 C 32 26.769531 31.785156 25.992188 31.382812 25.308594 C 31.257812 24.976562 31.074219 24.664062 30.808594 24.398438 L 29.121094 22.710938 L 28.582031 23.253906 L 25.21875 26.625 L 23.726562 25.125 L 25.707031 23.136719 L 27.628906 21.210938 L 24.539062 18.117188 L 20.636719 22.027344 L 19.140625 20.53125 L 23.042969 16.621094 L 19.957031 13.523438 L 16.054688 17.4375 L 14.558594 15.9375 L 18.460938 12.027344 L 15.375 8.933594 L 11.472656 12.84375 L 9.988281 11.355469 L 13.890625 7.445312 L 10.792969 4.335938 L 8.839844 6.292969 L 6.890625 8.25 L 5.40625 6.765625 L 8.730469 3.433594 L 9.308594 2.851562 L 7.765625 1.308594 C 7.496094 1.035156 7.179688 0.847656 6.84375 0.722656 C 6.121094 0.25 5.273438 -0.00390625 4.410156 0 Z M 8.839844 15.261719 L 16.703125 23.136719 L 8.839844 23.136719 Z M 8.839844 15.261719 "/>
</g>
</svg>
