<?xml version="1.0" encoding="UTF-8"?>
<svg xmlns="http://www.w3.org/2000/svg" xmlns:xlink="http://www.w3.org/1999/xlink" width="32" height="32" viewBox="0 0 32 32" version="1.1">
<g id="surface1">
<path style=" stroke:none;fill-rule:nonzero;fill:rgb(100%,100%,100%);fill-opacity:1;" d="M 1 2.003906 C 0.445312 2 -0.0078125 2.453125 -0.00390625 3.007812 L -0.00390625 28.992188 C -0.0078125 29.546875 0.445312 30 1 29.996094 L 31 29.996094 C 31.554688 30 32.007812 29.546875 32.003906 28.992188 L 32.003906 3.007812 C 32.007812 2.453125 31.554688 2 31 2.003906 Z M 1.988281 4.011719 L 29.996094 4.011719 L 29.996094 28.003906 L 1.988281 28.003906 Z M 1.988281 4.011719 "/>
<path style=" stroke:none;fill-rule:nonzero;fill:rgb(100%,100%,100%);fill-opacity:1;" d="M 10.417969 24.714844 L 10.417969 21.222656 L 5.550781 21.222656 L 5.550781 18.308594 L 10.710938 7.285156 L 12.621094 7.285156 L 12.621094 18.296875 L 14.097656 18.296875 L 14.097656 21.222656 L 12.621094 21.222656 L 12.621094 24.714844 Z M 10.417969 18.296875 L 10.417969 12.363281 L 7.683594 18.296875 Z M 10.417969 18.296875 "/>
<path style=" stroke:none;fill-rule:nonzero;fill:rgb(100%,100%,100%);fill-opacity:1;" d="M 15.726562 24.714844 L 15.726562 7.355469 L 18.128906 7.355469 L 18.128906 15.0625 L 22.976562 7.355469 L 26.203125 7.355469 L 21.726562 14.117188 L 26.449219 24.714844 L 23.34375 24.714844 L 20.074219 16.570312 L 18.128906 19.46875 L 18.128906 24.714844 Z M 15.726562 24.714844 "/>
</g>
</svg>
