<?xml version="1.0" encoding="UTF-8"?>
<svg xmlns="http://www.w3.org/2000/svg" xmlns:xlink="http://www.w3.org/1999/xlink" width="32" height="32" viewBox="0 0 32 32" version="1.1">
<g id="surface1">
<path style=" stroke:none;fill-rule:nonzero;fill:rgb(100%,100%,100%);fill-opacity:1;" d="M 24 26.667969 L 8 26.667969 L 8 29.332031 L 5.332031 29.332031 L 5.332031 26.667969 L 4 26.667969 C 3.261719 26.667969 2.667969 26.070312 2.667969 25.332031 L 2.667969 5.332031 C 2.667969 4.597656 3.261719 4 4 4 L 28 4 C 28.738281 4 29.332031 4.597656 29.332031 5.332031 L 29.332031 25.332031 C 29.332031 26.070312 28.738281 26.667969 28 26.667969 L 26.667969 26.667969 L 26.667969 29.332031 L 24 29.332031 Z M 5.332031 24 L 26.667969 24 L 26.667969 6.667969 L 5.332031 6.667969 Z M 17.332031 18.5 L 17.332031 22.667969 L 14.667969 22.667969 L 14.667969 18.5 C 12.074219 17.820312 10.382812 15.324219 10.722656 12.664062 C 11.058594 10.003906 13.320312 8.007812 16 8 C 18.6875 7.996094 20.957031 9.996094 21.296875 12.660156 C 21.632812 15.328125 19.9375 17.828125 17.332031 18.5 Z M 16 16 C 17.472656 16 18.667969 14.804688 18.667969 13.332031 C 18.667969 11.859375 17.472656 10.667969 16 10.667969 C 14.527344 10.667969 13.332031 11.859375 13.332031 13.332031 C 13.332031 14.804688 14.527344 16 16 16 Z M 16 16 "/>
</g>
</svg>
