<?xml version="1.0" encoding="UTF-8"?>
<svg xmlns="http://www.w3.org/2000/svg" xmlns:xlink="http://www.w3.org/1999/xlink" width="32" height="32" viewBox="0 0 32 32" version="1.1">
<g id="surface1">
<path style=" stroke:none;fill-rule:nonzero;fill:rgb(100%,100%,100%);fill-opacity:1;" d="M 26.667969 27.109375 L 26.667969 29.332031 L 24 29.332031 L 24 27.554688 L 14.109375 29.203125 C 13.917969 29.234375 13.71875 29.183594 13.570312 29.054688 C 13.417969 28.929688 13.332031 28.742188 13.332031 28.546875 L 13.332031 26.667969 L 8 26.667969 L 8 29.332031 L 5.332031 29.332031 L 5.332031 26.667969 L 4 26.667969 C 3.261719 26.667969 2.667969 26.070312 2.667969 25.332031 L 2.667969 5.332031 C 2.667969 4.597656 3.261719 4 4 4 L 13.332031 4 L 13.332031 2.121094 C 13.332031 1.925781 13.417969 1.738281 13.570312 1.613281 C 13.71875 1.484375 13.917969 1.429688 14.109375 1.460938 L 28.21875 3.816406 C 28.863281 3.921875 29.332031 4.476562 29.332031 5.128906 L 29.332031 8 L 30.667969 8 L 30.667969 10.667969 L 29.332031 10.667969 L 29.332031 20 L 30.667969 20 L 30.667969 22.667969 L 29.332031 22.667969 L 29.332031 25.539062 C 29.332031 26.1875 28.863281 26.746094 28.21875 26.851562 Z M 5.332031 6.667969 L 5.332031 24 L 13.332031 24 L 13.332031 6.667969 Z M 16 26.1875 L 26.667969 24.40625 L 26.667969 6.257812 L 16 4.480469 Z M 22 18.667969 C 20.894531 18.667969 20 17.171875 20 15.332031 C 20 13.492188 20.894531 12 22 12 C 23.105469 12 24 13.492188 24 15.332031 C 24 17.171875 23.105469 18.667969 22 18.667969 Z M 22 18.667969 "/>
</g>
</svg>
