<?xml version="1.0" encoding="UTF-8"?>
<svg xmlns="http://www.w3.org/2000/svg" xmlns:xlink="http://www.w3.org/1999/xlink" width="32" height="32" viewBox="0 0 32 32" version="1.1">
<g id="surface1">
<path style=" stroke:none;fill-rule:nonzero;fill:rgb(100%,100%,100%);fill-opacity:1;" d="M 12.964844 1.628906 C 6.820312 1.628906 1.785156 6.644531 1.785156 12.789062 C 1.785156 18.933594 6.820312 23.964844 12.964844 23.964844 C 15.117188 23.964844 17.125 23.335938 18.832031 22.269531 L 26.839844 29.824219 C 27.640625 30.582031 28.898438 30.550781 29.660156 29.753906 C 30.027344 29.367188 30.226562 28.851562 30.214844 28.320312 C 30.199219 27.789062 29.972656 27.28125 29.585938 26.917969 L 21.800781 19.574219 C 23.25 17.6875 24.125 15.335938 24.125 12.789062 C 24.125 6.644531 19.109375 1.628906 12.964844 1.628906 Z M 12.964844 5.628906 C 16.945312 5.628906 20.125 8.808594 20.125 12.789062 C 20.125 16.769531 16.945312 19.964844 12.964844 19.964844 C 8.984375 19.964844 5.789062 16.769531 5.789062 12.789062 C 5.789062 8.808594 8.984375 5.628906 12.964844 5.628906 Z M 12.964844 5.628906 "/>
<path style=" stroke:none;fill-rule:nonzero;fill:rgb(100%,100%,100%);fill-opacity:1;" d="M 19.292969 19.957031 L 28.210938 28.375 "/>
</g>
</svg>
