<?xml version="1.0" encoding="UTF-8"?>
<svg xmlns="http://www.w3.org/2000/svg" xmlns:xlink="http://www.w3.org/1999/xlink" width="32" height="32" viewBox="0 0 32 32" version="1.1">
<g id="surface1">
<path style=" stroke:none;fill-rule:nonzero;fill:rgb(100%,100%,100%);fill-opacity:1;" d="M 18.828125 13.972656 C 18.308594 13.453125 17.464844 13.453125 16.941406 13.972656 L 16 14.914062 C 15.332031 15.609375 14.339844 15.886719 13.40625 15.640625 C 12.472656 15.398438 11.746094 14.667969 11.503906 13.738281 C 11.257812 12.804688 11.535156 11.8125 12.230469 11.144531 L 19.734375 3.632812 C 23.382812 2.804688 27.148438 4.40625 29.078125 7.609375 C 31.011719 10.808594 30.671875 14.886719 28.238281 17.726562 L 25.429688 20.570312 Z M 4.214844 5.957031 C 7.054688 3.117188 11.472656 2.601562 14.894531 4.707031 L 10.34375 9.257812 C 8.292969 11.304688 8.25 14.613281 10.246094 16.710938 C 12.242188 18.808594 15.546875 18.929688 17.691406 16.984375 L 17.886719 16.800781 L 23.542969 22.457031 L 17.886719 28.113281 C 16.84375 29.15625 15.15625 29.15625 14.113281 28.113281 L 4.214844 18.214844 C 0.828125 14.828125 0.828125 9.34375 4.214844 5.957031 Z M 4.214844 5.957031 "/>
</g>
</svg>
