<?xml version="1.0" encoding="UTF-8"?>
<svg xmlns="http://www.w3.org/2000/svg" xmlns:xlink="http://www.w3.org/1999/xlink" width="32" height="32" viewBox="0 0 32 32" version="1.1">
<g id="surface1">
<path style=" stroke:none;fill-rule:nonzero;fill:rgb(100%,100%,100%);fill-opacity:1;" d="M 14.667969 2.734375 L 14.667969 5.414062 C 9.085938 6.125 5.015625 11.050781 5.367188 16.667969 C 5.71875 22.28125 10.371094 26.660156 16 26.667969 C 21.375 26.667969 25.910156 22.667969 26.585938 17.332031 L 29.269531 17.332031 C 28.597656 24.070312 22.914062 29.332031 16 29.332031 C 8.636719 29.332031 2.667969 23.363281 2.667969 16 C 2.667969 9.085938 7.929688 3.402344 14.667969 2.734375 Z M 24.941406 8.941406 L 16 17.886719 L 14.113281 16 L 23.058594 7.058594 L 18.667969 2.667969 L 29.332031 2.667969 L 29.332031 13.332031 Z M 24.941406 8.941406 "/>
</g>
</svg>
