<?xml version="1.0" encoding="UTF-8"?>
<svg xmlns="http://www.w3.org/2000/svg" xmlns:xlink="http://www.w3.org/1999/xlink" width="32" height="32" viewBox="0 0 32 32" version="1.1">
<g id="surface1">
<path style=" stroke:none;fill-rule:nonzero;fill:rgb(100%,100%,100%);fill-opacity:1;" d="M 17.332031 22.667969 L 17.332031 26.667969 L 24 26.667969 L 24 29.332031 L 8 29.332031 L 8 26.667969 L 14.667969 26.667969 L 14.667969 22.667969 L 5.332031 22.667969 C 4.597656 22.667969 4 22.070312 4 21.332031 L 4 5.332031 L 2.667969 5.332031 L 2.667969 2.667969 L 29.332031 2.667969 L 29.332031 5.332031 L 28 5.332031 L 28 21.332031 C 28 22.070312 27.402344 22.667969 26.667969 22.667969 Z M 6.667969 20 L 25.332031 20 L 25.332031 5.332031 L 6.667969 5.332031 Z M 13.332031 8 L 20 12.667969 L 13.332031 17.332031 Z M 13.332031 8 "/>
</g>
</svg>
