<?xml version="1.0" encoding="UTF-8"?>
<svg xmlns="http://www.w3.org/2000/svg" xmlns:xlink="http://www.w3.org/1999/xlink" width="32" height="32" viewBox="0 0 32 32" version="1.1">
<g id="surface1">
<path style=" stroke:none;fill-rule:nonzero;fill:rgb(100%,100%,100%);fill-opacity:1;" d="M 10 0 L 6 8 L 8 8 L 8 32 L 12 32 L 12 8 L 14 8 Z M 21.132812 1.703125 C 19.824219 1.703125 18.71875 2.125 17.828125 2.972656 C 16.9375 3.820312 16.488281 4.984375 16.488281 6.460938 C 16.488281 7.84375 16.910156 8.945312 17.753906 9.78125 C 18.605469 10.617188 19.585938 11.035156 20.6875 11.035156 C 21.21875 11.035156 21.699219 10.9375 22.132812 10.738281 C 22.566406 10.539062 22.957031 10.246094 23.304688 9.859375 C 23.191406 11.445312 22.9375 12.496094 22.542969 13.019531 C 22.148438 13.535156 21.640625 13.792969 21.023438 13.792969 C 20.105469 13.792969 19.585938 13.277344 19.457031 12.238281 L 16.765625 12.523438 C 16.964844 13.707031 17.421875 14.585938 18.128906 15.160156 C 18.84375 15.726562 19.75 16.007812 20.84375 16.007812 C 22.417969 16.007812 23.703125 15.445312 24.691406 14.320312 C 25.679688 13.195312 26.171875 11.339844 26.171875 8.769531 C 26.171875 6.242188 25.699219 4.4375 24.75 3.347656 C 23.800781 2.253906 22.597656 1.703125 21.132812 1.703125 Z M 21.011719 3.929688 C 21.542969 3.929688 22.015625 4.164062 22.433594 4.636719 C 22.851562 5.109375 23.0625 5.78125 23.0625 6.660156 C 23.0625 7.460938 22.875 8.0625 22.496094 8.464844 C 22.125 8.867188 21.679688 9.066406 21.15625 9.066406 C 20.609375 9.066406 20.148438 8.859375 19.769531 8.4375 C 19.398438 8.015625 19.214844 7.351562 19.214844 6.449219 C 19.214844 5.546875 19.386719 4.898438 19.722656 4.511719 C 20.070312 4.125 20.496094 3.929688 21.011719 3.929688 Z M 21.441406 17.703125 C 20.015625 17.703125 18.859375 18.234375 17.976562 19.296875 C 17.09375 20.355469 16.652344 22.199219 16.652344 24.828125 C 16.652344 27.507812 17.09375 29.375 17.976562 30.425781 C 18.859375 31.476562 20.019531 32 21.453125 32 C 22.878906 32 24.035156 31.472656 24.917969 30.414062 C 25.800781 29.351562 26.242188 27.496094 26.242188 24.855469 C 26.242188 22.207031 25.800781 20.355469 24.917969 19.296875 C 24.035156 18.234375 22.875 17.703125 21.441406 17.703125 Z M 21.441406 19.929688 C 22.007812 19.929688 22.453125 20.214844 22.78125 20.789062 C 23.109375 21.363281 23.269531 22.714844 23.269531 24.855469 C 23.269531 26.988281 23.109375 28.339844 22.78125 28.914062 C 22.453125 29.488281 22.007812 29.773438 21.441406 29.773438 C 20.882812 29.773438 20.4375 29.492188 20.101562 28.925781 C 19.773438 28.351562 19.609375 26.996094 19.609375 24.855469 C 19.609375 22.714844 19.773438 21.363281 20.101562 20.789062 C 20.4375 20.214844 20.882812 19.929688 21.441406 19.929688 Z M 21.441406 19.929688 "/>
</g>
</svg>
