<?xml version="1.0" encoding="UTF-8"?>
<svg xmlns="http://www.w3.org/2000/svg" xmlns:xlink="http://www.w3.org/1999/xlink" width="32" height="32" viewBox="0 0 32 32" version="1.1">
<defs>
<filter id="alpha" filterUnits="objectBoundingBox" x="0%" y="0%" width="100%" height="100%">
  <feColorMatrix type="matrix" in="SourceGraphic" values="0 0 0 0 1 0 0 0 0 1 0 0 0 0 1 0 0 0 1 0"/>
</filter>
<mask id="mask0">
  <g filter="url(#alpha)">
<rect x="0" y="0" width="32" height="32" style="fill:rgb(100%,100%,100%);fill-opacity:0.996078;stroke:none;"/>
  </g>
</mask>
<clipPath id="clip1">
  <rect x="0" y="0" width="32" height="32"/>
</clipPath>
<g id="surface5" clip-path="url(#clip1)">
<path style=" stroke:none;fill-rule:evenodd;fill:rgb(100%,100%,100%);fill-opacity:1;" d="M 18.796875 0 C 16.277344 0.00390625 13.980469 1.707031 12.878906 4.386719 C 12.140625 4.058594 11.359375 3.890625 10.570312 3.890625 C 7.816406 3.890625 5.355469 5.914062 4.398438 8.964844 C 1.945312 9.160156 0.0390625 11.566406 0.0351562 14.472656 C 0.0351562 17.527344 2.128906 20 4.710938 20 C 4.726562 20 4.738281 20 4.753906 20 L 8.761719 20 L 10.039062 13.613281 L 10.363281 12.003906 L 20.773438 12.003906 L 18.78125 17.996094 L 25.734375 17.996094 L 24.398438 20 L 25.972656 20 C 29.28125 20 31.964844 16.828125 31.964844 12.917969 C 31.964844 9.007812 29.28125 5.835938 25.972656 5.835938 C 25.707031 5.835938 25.445312 5.855469 25.183594 5.898438 C 24.453125 2.433594 21.820312 0 18.796875 0 Z M 12 14 L 10 24 L 14 24 L 14 32 L 22 20 L 16 20 L 18 14 Z M 12 14 "/>
</g>
</defs>
<g id="surface1">
<use xlink:href="#surface5" mask="url(#mask0)"/>
</g>
</svg>
