<?xml version="1.0" encoding="UTF-8"?>
<svg xmlns="http://www.w3.org/2000/svg" xmlns:xlink="http://www.w3.org/1999/xlink" width="32" height="32" viewBox="0 0 32 32" version="1.1">
<g id="surface1">
<path style=" stroke:none;fill-rule:nonzero;fill:rgb(100%,100%,100%);fill-opacity:1;" d="M 7.460938 5.332031 L 14 13.238281 L 20.539062 5.332031 L 24 5.332031 L 15.730469 15.328125 L 24 25.324219 L 24 25.332031 L 20.546875 25.332031 L 14 17.421875 L 7.453125 25.332031 L 4 25.332031 L 4 25.324219 L 12.269531 15.328125 L 4 5.332031 Z M 28.734375 22.105469 C 29.113281 21.746094 29.175781 21.164062 28.878906 20.730469 C 28.585938 20.300781 28.019531 20.144531 27.546875 20.367188 C 27.070312 20.589844 26.828125 21.125 26.972656 21.625 L 25.433594 22.066406 C 25.203125 21.261719 25.363281 20.394531 25.871094 19.726562 C 26.375 19.058594 27.164062 18.667969 28 18.667969 C 29.09375 18.667969 30.074219 19.332031 30.476562 20.347656 C 30.882812 21.363281 30.625 22.523438 29.832031 23.273438 L 27.660156 25.332031 L 30.667969 25.332031 L 30.667969 26.667969 L 25.332031 26.667969 L 25.332031 25.332031 Z M 28.734375 22.105469 "/>
</g>
</svg>
