<?xml version="1.0" encoding="UTF-8"?>
<svg xmlns="http://www.w3.org/2000/svg" xmlns:xlink="http://www.w3.org/1999/xlink" width="32" height="32" viewBox="0 0 32 32" version="1.1">
<g id="surface1">
<path style=" stroke:none;fill-rule:nonzero;fill:rgb(100%,100%,100%);fill-opacity:1;" d="M 22.933594 26.667969 L 25.332031 28.667969 L 25.332031 29.332031 L 6.667969 29.332031 L 6.667969 28.667969 L 9.066406 26.667969 L 6.667969 26.667969 C 5.195312 26.667969 4 25.472656 4 24 L 4 9.332031 C 4 6.386719 6.386719 4 9.332031 4 L 22.667969 4 C 25.613281 4 28 6.386719 28 9.332031 L 28 24 C 28 25.472656 26.804688 26.667969 25.332031 26.667969 Z M 17.332031 6.667969 L 17.332031 14.667969 L 25.332031 14.667969 L 25.332031 9.332031 C 25.332031 7.859375 24.140625 6.667969 22.667969 6.667969 Z M 14.667969 6.667969 L 9.332031 6.667969 C 7.859375 6.667969 6.667969 7.859375 6.667969 9.332031 L 6.667969 14.667969 L 14.667969 14.667969 Z M 25.332031 17.332031 L 6.667969 17.332031 L 6.667969 24 L 25.332031 24 Z M 10 22.667969 C 8.894531 22.667969 8 21.769531 8 20.667969 C 8 19.5625 8.894531 18.667969 10 18.667969 C 11.105469 18.667969 12 19.5625 12 20.667969 C 12 21.769531 11.105469 22.667969 10 22.667969 Z M 22 22.667969 C 20.894531 22.667969 20 21.769531 20 20.667969 C 20 19.5625 20.894531 18.667969 22 18.667969 C 23.105469 18.667969 24 19.5625 24 20.667969 C 24 21.769531 23.105469 22.667969 22 22.667969 Z M 22 22.667969 "/>
</g>
</svg>
