<?xml version="1.0" encoding="UTF-8"?>
<svg xmlns="http://www.w3.org/2000/svg" xmlns:xlink="http://www.w3.org/1999/xlink" width="32" height="32" viewBox="0 0 32 32" version="1.1">
<g id="surface1">
<path style=" stroke:none;fill-rule:nonzero;fill:rgb(100%,100%,100%);fill-opacity:1;" d="M 20 4 C 20.734375 4 21.332031 4.597656 21.332031 5.332031 L 21.332031 8 L 28 8 C 28.734375 8 29.332031 8.597656 29.332031 9.332031 L 29.332031 26.667969 C 29.332031 27.402344 28.734375 28 28 28 L 4 28 C 3.265625 28 2.667969 27.402344 2.667969 26.667969 L 2.667969 9.332031 C 2.667969 8.597656 3.265625 8 4 8 L 10.667969 8 L 10.667969 5.332031 C 10.667969 4.597656 11.265625 4 12 4 Z M 10.667969 10.667969 L 8 10.667969 L 8 25.332031 L 10.667969 25.332031 Z M 24 10.667969 L 21.332031 10.667969 L 21.332031 25.332031 L 24 25.332031 Z M 18.667969 6.667969 L 13.332031 6.667969 L 13.332031 8 L 18.667969 8 Z M 18.667969 6.667969 "/>
</g>
</svg>
