<?xml version="1.0" encoding="UTF-8"?>
<svg xmlns="http://www.w3.org/2000/svg" xmlns:xlink="http://www.w3.org/1999/xlink" width="32" height="32" viewBox="0 0 32 32" version="1.1">
<g id="surface1">
<path style=" stroke:none;fill-rule:evenodd;fill:rgb(100%,100%,100%);fill-opacity:1;" d="M 12 0 C 9.785156 0 8 1.785156 8 4 L 8 8 L 4 8 C 1.785156 8 0 9.785156 0 12 L 0 28 C 0 30.214844 1.785156 32 4 32 L 28 32 C 30.214844 32 32 30.214844 32 28 L 32 12 C 32 9.785156 30.214844 8 28 8 L 24 8 L 24 4 C 24 1.785156 22.214844 0 20 0 Z M 13 4 L 19 4 C 19.554688 4 20 4.445312 20 5 L 20 7 C 20 7.554688 19.554688 8 19 8 L 13 8 C 12.445312 8 12 7.554688 12 7 L 12 5 C 12 4.445312 12.445312 4 13 4 Z M 13 4 "/>
</g>
</svg>
