<?xml version="1.0" encoding="UTF-8"?>
<svg xmlns="http://www.w3.org/2000/svg" xmlns:xlink="http://www.w3.org/1999/xlink" width="32" height="32" viewBox="0 0 32 32" version="1.1">
<g id="surface1">
<path style=" stroke:none;fill-rule:nonzero;fill:rgb(100%,100%,100%);fill-opacity:1;" d="M 12 4 C 12 6.210938 13.789062 8 16 8 C 18.210938 8 20 6.210938 20 4 L 28 4 C 28.738281 4 29.332031 4.597656 29.332031 5.332031 L 29.332031 14.667969 C 29.332031 15.402344 28.738281 16 28 16 L 25.332031 16 L 25.332031 26.667969 C 25.332031 27.402344 24.738281 28 24 28 L 8 28 C 7.261719 28 6.667969 27.402344 6.667969 26.667969 L 6.664062 16 L 4 16 C 3.261719 16 2.667969 15.402344 2.667969 14.667969 L 2.667969 5.332031 C 2.667969 4.597656 3.261719 4 4 4 Z M 26.667969 6.664062 L 22.109375 6.664062 L 22.089844 6.71875 C 21.058594 9.027344 18.8125 10.550781 16.289062 10.660156 L 16 10.667969 C 13.371094 10.667969 10.984375 9.121094 9.910156 6.71875 L 9.886719 6.667969 L 5.332031 6.667969 L 5.332031 13.332031 L 9.332031 13.332031 L 9.332031 25.332031 L 22.667969 25.332031 L 22.664062 13.332031 L 26.667969 13.332031 Z M 26.667969 6.664062 "/>
</g>
</svg>
