<?xml version="1.0" encoding="UTF-8"?>
<svg xmlns="http://www.w3.org/2000/svg" xmlns:xlink="http://www.w3.org/1999/xlink" width="32" height="32" viewBox="0 0 32 32" version="1.1">
<g id="surface1">
<path style=" stroke:none;fill-rule:nonzero;fill:rgb(100%,100%,100%);fill-opacity:1;" d="M 16.941406 23.722656 C 18.046875 24.828125 19.058594 25.332031 20 25.332031 C 20.503906 25.332031 20.90625 25.242188 21.648438 24.964844 L 22.171875 24.761719 C 23.570312 24.199219 24.277344 24 25.332031 24 C 26.953125 24 28.503906 24.726562 29.980469 26.105469 L 30.277344 26.390625 L 28.390625 28.277344 C 27.289062 27.171875 26.273438 26.667969 25.332031 26.667969 C 24.828125 26.667969 24.425781 26.757812 23.683594 27.035156 L 23.160156 27.238281 C 21.761719 27.796875 21.054688 28 20 28 C 18.382812 28 16.828125 27.273438 15.351562 25.894531 L 15.058594 25.609375 Z M 12 4 C 12 6.210938 13.789062 8 16 8 C 18.210938 8 20 6.210938 20 4 L 28 4 C 28.738281 4 29.332031 4.597656 29.332031 5.332031 L 29.332031 14.667969 C 29.332031 15.402344 28.738281 16 28 16 L 22.664062 16 L 22.664062 13.332031 L 26.667969 13.332031 L 26.667969 6.664062 L 22.109375 6.664062 L 22.089844 6.71875 C 21.058594 9.027344 18.8125 10.550781 16.289062 10.660156 L 16 10.667969 C 13.371094 10.667969 10.984375 9.121094 9.910156 6.71875 L 9.886719 6.667969 L 5.332031 6.667969 L 5.332031 13.332031 L 9.332031 13.332031 L 9.332031 25.332031 L 13.332031 25.332031 L 13.332031 28 L 8 28 C 7.261719 28 6.667969 27.402344 6.667969 26.667969 L 6.664062 16 L 4 16 C 3.261719 16 2.667969 15.402344 2.667969 14.667969 L 2.667969 5.332031 C 2.667969 4.597656 3.261719 4 4 4 Z M 16.941406 18.390625 C 18.046875 19.492188 19.058594 20 20 20 C 20.503906 20 20.90625 19.910156 21.648438 19.632812 L 22.171875 19.429688 C 23.570312 18.867188 24.277344 18.667969 25.332031 18.667969 C 26.953125 18.667969 28.503906 19.394531 29.980469 20.773438 L 30.277344 21.058594 L 28.390625 22.941406 C 27.289062 21.839844 26.273438 21.332031 25.332031 21.332031 C 24.828125 21.332031 24.425781 21.421875 23.683594 21.703125 L 23.160156 21.902344 C 21.761719 22.464844 21.054688 22.667969 20 22.667969 C 18.382812 22.667969 16.828125 21.941406 15.351562 20.558594 L 15.058594 20.277344 Z M 16.941406 18.390625 "/>
</g>
</svg>
