<?xml version="1.0" encoding="UTF-8"?>
<svg xmlns="http://www.w3.org/2000/svg" xmlns:xlink="http://www.w3.org/1999/xlink" width="32" height="32" viewBox="0 0 32 32" version="1.1">
<g id="surface1">
<path style=" stroke:none;fill-rule:nonzero;fill:rgb(100%,100%,100%);fill-opacity:1;" d="M 14.699219 2 C 14.9375 2.171875 15.171875 2.351562 15.382812 2.5625 L 28.183594 15.363281 C 29.347656 16.527344 29.347656 18.433594 28.183594 19.597656 L 18.285156 29.511719 C 18.992188 30.175781 20.097656 30.15625 20.785156 29.472656 L 31.445312 18.820312 C 32.1875 18.078125 32.1875 16.878906 31.445312 16.136719 L 18.644531 3.339844 C 17.785156 2.480469 16.621094 2 15.410156 2 Z M 14.699219 2 "/>
<path style=" stroke:none;fill-rule:nonzero;fill:rgb(100%,100%,100%);fill-opacity:1;" d="M 3.480469 2 C 1.558594 2 0 3.558594 0 5.484375 L 0 13.371094 C 0 14.585938 0.480469 15.75 1.339844 16.609375 L 14.203125 29.472656 C 14.90625 30.175781 16.046875 30.175781 16.75 29.472656 L 27.40625 18.820312 C 28.148438 18.078125 28.148438 16.878906 27.40625 16.136719 L 14.605469 3.339844 C 13.75 2.480469 12.585938 2 11.371094 2 Z M 5.222656 4.613281 C 6.667969 4.613281 7.835938 5.78125 7.835938 7.226562 C 7.835938 8.667969 6.667969 9.835938 5.222656 9.835938 C 3.78125 9.835938 2.613281 8.667969 2.613281 7.226562 C 2.613281 5.78125 3.78125 4.613281 5.222656 4.613281 Z M 5.222656 4.613281 "/>
</g>
</svg>
