<?xml version="1.0" encoding="UTF-8"?>
<svg xmlns="http://www.w3.org/2000/svg" xmlns:xlink="http://www.w3.org/1999/xlink" width="32" height="32" viewBox="0 0 32 32" version="1.1">
<g id="surface1">
<path style=" stroke:none;fill-rule:nonzero;fill:rgb(100%,100%,100%);fill-opacity:1;" d="M 16 14.667969 C 19.683594 14.667969 22.667969 17.652344 22.667969 21.332031 L 22.667969 29.332031 L 9.332031 29.332031 L 9.332031 21.332031 C 9.332031 17.652344 12.316406 14.667969 16 14.667969 Z M 7.050781 18.675781 C 6.839844 19.390625 6.714844 20.128906 6.675781 20.875 L 6.667969 21.332031 L 6.667969 29.332031 L 2.667969 29.332031 L 2.667969 23.332031 C 2.667969 20.953125 4.457031 18.953125 6.824219 18.691406 Z M 24.949219 18.675781 C 27.414062 18.824219 29.332031 20.867188 29.332031 23.332031 L 29.332031 29.332031 L 25.332031 29.332031 L 25.332031 21.332031 C 25.332031 20.410156 25.199219 19.515625 24.949219 18.675781 Z M 7.332031 10.667969 C 9.175781 10.667969 10.667969 12.160156 10.667969 14 C 10.667969 15.839844 9.175781 17.332031 7.332031 17.332031 C 5.492188 17.332031 4 15.839844 4 14 C 4 12.160156 5.492188 10.667969 7.332031 10.667969 Z M 24.667969 10.667969 C 26.507812 10.667969 28 12.160156 28 14 C 28 15.839844 26.507812 17.332031 24.667969 17.332031 C 22.824219 17.332031 21.332031 15.839844 21.332031 14 C 21.332031 12.160156 22.824219 10.667969 24.667969 10.667969 Z M 16 2.667969 C 18.945312 2.667969 21.332031 5.054688 21.332031 8 C 21.332031 10.945312 18.945312 13.332031 16 13.332031 C 13.054688 13.332031 10.667969 10.945312 10.667969 8 C 10.667969 5.054688 13.054688 2.667969 16 2.667969 Z M 16 2.667969 "/>
</g>
</svg>
