<?xml version="1.0" encoding="UTF-8"?>
<svg xmlns="http://www.w3.org/2000/svg" xmlns:xlink="http://www.w3.org/1999/xlink" width="32" height="32" viewBox="0 0 32 32" version="1.1">
<g id="surface1">
<path style=" stroke:none;fill-rule:evenodd;fill:rgb(100%,100%,100%);fill-opacity:1;" d="M 14 0 C 11.785156 0 10 1.785156 10 4 L 10 15.519531 C 7.5 17.1875 6 19.996094 6 23 C 6 27.96875 10.03125 32 15 32 C 19.96875 32 24 27.96875 24 23 C 24 19.992188 22.5 17.1875 20 15.515625 L 20 4 C 20 1.785156 18.214844 0 16 0 Z M 14 2 L 16 2 C 17.109375 2 18 2.890625 18 4 L 18 16.675781 C 20.441406 17.835938 22 20.296875 22 23 C 22 26.867188 18.867188 30 15 30 C 11.132812 30 8 26.867188 8 23 C 8 20.296875 9.558594 17.835938 12 16.675781 L 12 4 C 12 2.890625 12.890625 2 14 2 Z M 14 16 L 14 18.105469 C 11.671875 18.582031 10.003906 20.625 10 23 C 10 25.761719 12.238281 28 15 28 C 17.761719 28 20 25.761719 20 23 C 20 20.625 18.328125 18.578125 16 18.101562 L 16 16 Z M 14 16 "/>
</g>
</svg>
