<?xml version="1.0" encoding="UTF-8"?>
<svg xmlns="http://www.w3.org/2000/svg" xmlns:xlink="http://www.w3.org/1999/xlink" width="32" height="32" viewBox="0 0 32 32" version="1.1">
<g id="surface1">
<path style=" stroke:none;fill-rule:nonzero;fill:rgb(100%,100%,100%);fill-opacity:1;" d="M 12.535156 21.332031 L 4 21.332031 C 2.527344 21.332031 1.332031 20.140625 1.332031 18.667969 L 1.332031 15.863281 C 1.332031 15.511719 1.402344 15.167969 1.535156 14.84375 L 5.660156 4.828125 C 5.867188 4.328125 6.351562 4 6.894531 4 L 29.332031 4 C 30.070312 4 30.667969 4.597656 30.667969 5.332031 L 30.667969 18.667969 C 30.667969 19.402344 30.070312 20 29.332031 20 L 24.691406 20 C 24.257812 20 23.851562 20.210938 23.601562 20.5625 L 16.332031 30.867188 C 16.140625 31.132812 15.78125 31.222656 15.488281 31.078125 L 13.070312 29.867188 C 11.667969 29.164062 10.941406 27.582031 11.328125 26.0625 Z M 22.667969 17.882812 L 22.667969 6.667969 L 7.785156 6.667969 L 4 15.863281 L 4 18.667969 L 12.535156 18.667969 C 13.355469 18.667969 14.132812 19.046875 14.636719 19.695312 C 15.144531 20.347656 15.320312 21.191406 15.117188 21.992188 L 13.914062 26.722656 C 13.835938 27.023438 13.980469 27.34375 14.261719 27.484375 L 15.144531 27.921875 L 21.421875 19.027344 C 21.757812 18.554688 22.183594 18.167969 22.667969 17.882812 Z M 25.332031 17.332031 L 28 17.332031 L 28 6.667969 L 25.332031 6.667969 Z M 25.332031 17.332031 "/>
</g>
</svg>
