<?xml version="1.0" encoding="UTF-8"?>
<svg xmlns="http://www.w3.org/2000/svg" xmlns:xlink="http://www.w3.org/1999/xlink" width="32" height="32" viewBox="0 0 32 32" version="1.1">
<g id="surface1">
<path style=" stroke:none;fill-rule:nonzero;fill:rgb(100%,100%,100%);fill-opacity:1;" d="M 28 4 C 28.738281 4 29.332031 4.597656 29.332031 5.332031 L 29.332031 12.667969 C 27.492188 12.667969 26 14.160156 26 16 C 26 17.839844 27.492188 19.332031 29.332031 19.332031 L 29.332031 26.667969 C 29.332031 27.402344 28.738281 28 28 28 L 4 28 C 3.261719 28 2.667969 27.402344 2.667969 26.667969 L 2.667969 19.332031 C 4.507812 19.332031 6 17.839844 6 16 C 6 14.160156 4.507812 12.667969 2.667969 12.667969 L 2.667969 5.332031 C 2.667969 4.597656 3.261719 4 4 4 Z M 26.667969 6.667969 L 5.332031 6.667969 L 5.332031 10.625 L 5.542969 10.730469 C 7.378906 11.734375 8.5625 13.625 8.660156 15.71875 L 8.667969 16 C 8.667969 18.195312 7.46875 20.214844 5.542969 21.265625 L 5.332031 21.375 L 5.332031 25.332031 L 26.667969 25.332031 L 26.667969 21.375 L 26.457031 21.269531 C 24.621094 20.265625 23.4375 18.375 23.339844 16.28125 L 23.332031 16 C 23.332031 13.726562 24.597656 11.75 26.457031 10.734375 L 26.667969 10.621094 Z M 26.667969 6.667969 "/>
</g>
</svg>
