<?xml version="1.0" encoding="UTF-8"?>
<svg xmlns="http://www.w3.org/2000/svg" xmlns:xlink="http://www.w3.org/1999/xlink" width="32" height="32" viewBox="0 0 32 32" version="1.1">
<g id="surface1">
<path style=" stroke:none;fill-rule:evenodd;fill:rgb(100%,100%,100%);fill-opacity:1;" d="M 12.53125 0 C 10.023438 0 8 2.019531 8 4.53125 L 8 27.46875 C 8 29.980469 10.023438 32 12.53125 32 L 19.46875 32 C 21.980469 32 24 29.980469 24 27.46875 L 24 4.53125 C 24 2.019531 21.980469 0 19.46875 0 Z M 15.902344 2 C 15.933594 2 15.96875 2 16 2 C 18.210938 2 20 3.789062 20 6 C 20 8.210938 18.210938 10 16 10 C 13.789062 10 12 8.210938 12 6 C 12 3.828125 13.730469 2.054688 15.902344 2 Z M 15.902344 12 C 15.933594 12 15.96875 12 16 12 C 18.210938 12 20 13.789062 20 16 C 20 18.210938 18.210938 20 16 20 C 13.789062 20 12 18.210938 12 16 C 12 13.828125 13.730469 12.054688 15.902344 12 Z M 15.902344 22 C 15.933594 22 15.96875 22 16 22 C 18.210938 22 20 23.789062 20 26 C 20 28.210938 18.210938 30 16 30 C 13.789062 30 12 28.210938 12 26 C 12 23.828125 13.730469 22.054688 15.902344 22 Z M 15.902344 22 "/>
</g>
</svg>
