<?xml version="1.0" encoding="UTF-8"?>
<svg xmlns="http://www.w3.org/2000/svg" xmlns:xlink="http://www.w3.org/1999/xlink" width="32" height="32" viewBox="0 0 32 32" version="1.1">
<defs>
<filter id="alpha" filterUnits="objectBoundingBox" x="0%" y="0%" width="100%" height="100%">
  <feColorMatrix type="matrix" in="SourceGraphic" values="0 0 0 0 1 0 0 0 0 1 0 0 0 0 1 0 0 0 1 0"/>
</filter>
<mask id="mask0">
  <g filter="url(#alpha)">
<rect x="0" y="0" width="32" height="32" style="fill:rgb(100%,100%,100%);fill-opacity:0.996078;stroke:none;"/>
  </g>
</mask>
<clipPath id="clip1">
  <rect x="0" y="0" width="32" height="32"/>
</clipPath>
<g id="surface5" clip-path="url(#clip1)">
<path style=" stroke:none;fill-rule:evenodd;fill:rgb(100%,100%,100%);fill-opacity:1;" d="M 10 6 C 6.675781 6 4 8.675781 4 12 L 4 22 C 4 24.71875 5.804688 26.980469 8.277344 27.722656 L 6 32 L 10 32 L 12 28 L 20 28 L 22 32 L 26 32 L 23.722656 27.722656 C 26.195312 26.980469 28 24.71875 28 22 L 28 12 C 28 8.675781 25.324219 6 22 6 Z M 8 10 L 14 10 L 14 16 L 8 16 Z M 18 10 L 24 10 L 24 16 L 18 16 Z M 10 22 C 11.105469 22 12 22.894531 12 24 C 12 25.105469 11.105469 26 10 26 C 8.894531 26 8 25.105469 8 24 C 8 22.894531 8.894531 22 10 22 Z M 22 22 C 23.105469 22 24 22.894531 24 24 C 24 25.105469 23.105469 26 22 26 C 20.894531 26 20 25.105469 20 24 C 20 22.894531 20.894531 22 22 22 Z M 22 22 "/>
</g>
</defs>
<g id="surface1">
<use xlink:href="#surface5" mask="url(#mask0)"/>
</g>
</svg>
