<?xml version="1.0" encoding="UTF-8"?>
<svg xmlns="http://www.w3.org/2000/svg" xmlns:xlink="http://www.w3.org/1999/xlink" width="32" height="32" viewBox="0 0 32 32" version="1.1">
<g id="surface1">
<path style=" stroke:none;fill-rule:nonzero;fill:rgb(100%,100%,100%);fill-opacity:1;" d="M 22.933594 26.667969 L 25.332031 28.667969 L 25.332031 29.332031 L 6.667969 29.332031 L 6.667969 28.667969 L 9.066406 26.667969 L 6.667969 26.667969 C 5.195312 26.667969 4 25.472656 4 24 L 4 9.332031 C 4 6.386719 6.386719 4 9.332031 4 L 22.667969 4 C 25.613281 4 28 6.386719 28 9.332031 L 28 24 C 28 25.472656 26.804688 26.667969 25.332031 26.667969 Z M 9.332031 6.667969 C 7.859375 6.667969 6.667969 7.859375 6.667969 9.332031 L 6.667969 24 L 25.332031 24 L 25.332031 9.332031 C 25.332031 7.859375 24.140625 6.667969 22.667969 6.667969 Z M 16 22.667969 C 14.527344 22.667969 13.332031 21.472656 13.332031 20 C 13.332031 18.527344 14.527344 17.332031 16 17.332031 C 17.472656 17.332031 18.667969 18.527344 18.667969 20 C 18.667969 21.472656 17.472656 22.667969 16 22.667969 Z M 8 9.332031 L 24 9.332031 L 24 14.667969 L 8 14.667969 Z M 8 9.332031 "/>
</g>
</svg>
