<?xml version="1.0" encoding="UTF-8"?>
<svg xmlns="http://www.w3.org/2000/svg" xmlns:xlink="http://www.w3.org/1999/xlink" width="32" height="32" viewBox="0 0 32 32" version="1.1">
<g id="surface1">
<path style=" stroke:none;fill-rule:nonzero;fill:rgb(100%,100%,100%);fill-opacity:1;" d="M 23.539062 2.265625 L 19.828125 5.644531 C 21.554688 6.164062 23.144531 7.0625 24.484375 8.273438 C 29.164062 12.542969 29.164062 19.457031 24.484375 23.726562 C 21.027344 26.871094 15.683594 28.875 8.460938 29.734375 L 12.171875 26.355469 C 10.445312 25.835938 8.855469 24.9375 7.515625 23.726562 C 2.835938 19.457031 2.808594 12.566406 7.515625 8.273438 C 10.972656 5.128906 16.316406 3.125 23.539062 2.265625 Z M 16 8 C 10.84375 8 6.667969 11.582031 6.667969 16 C 6.667969 20.417969 10.84375 24 16 24 C 21.15625 24 25.332031 20.417969 25.332031 16 C 25.332031 11.582031 21.15625 8 16 8 Z M 16 11.066406 C 18.945312 11.066406 21.332031 13.277344 21.332031 16 C 21.332031 18.722656 18.945312 20.933594 16 20.933594 C 13.054688 20.933594 10.667969 18.722656 10.667969 16 C 10.667969 13.277344 13.054688 11.066406 16 11.066406 Z M 16 13.734375 C 14.484375 13.734375 13.332031 14.796875 13.332031 16 C 13.332031 17.203125 14.484375 18.265625 16 18.265625 C 17.515625 18.265625 18.667969 17.203125 18.667969 16 C 18.667969 14.796875 17.515625 13.734375 16 13.734375 Z M 16 13.734375 "/>
</g>
</svg>
