<?xml version="1.0" encoding="UTF-8"?>
<svg xmlns="http://www.w3.org/2000/svg" xmlns:xlink="http://www.w3.org/1999/xlink" width="32" height="32" viewBox="0 0 32 32" version="1.1">
<g id="surface1">
<path style=" stroke:none;fill-rule:nonzero;fill:rgb(100%,100%,100%);fill-opacity:1;" d="M 15.882812 2.003906 C 11.511719 2.070312 8.003906 5.632812 8.003906 10.003906 C 8.003906 14.421875 11.585938 18.003906 16.003906 18.003906 C 20.421875 18.003906 24.003906 14.421875 24.003906 10.003906 C 24.003906 5.585938 20.421875 2.003906 16.003906 2.003906 C 15.964844 2.003906 15.921875 2.003906 15.882812 2.003906 Z M 7.992188 18.9375 C 6.234375 18.941406 4.765625 19.628906 3.679688 20.605469 C 2.589844 21.585938 1.835938 22.824219 1.304688 24.03125 C 0.242188 26.449219 0.00390625 28.832031 0.00390625 28.832031 L -0.113281 29.996094 L 16.59375 29.996094 L 14.496094 27.902344 C 13.46875 26.890625 13.46875 25.195312 14.496094 24.183594 L 16.386719 22.308594 L 16.386719 22.292969 C 16.511719 22.171875 16.648438 22.066406 16.792969 21.976562 C 16.53125 21.996094 16.265625 22.003906 16.003906 22.003906 C 13.046875 22.003906 10.195312 20.910156 7.992188 18.9375 Z M 24.011719 18.9375 C 22.523438 20.269531 20.726562 21.210938 18.785156 21.675781 C 19.253906 21.78125 19.703125 21.964844 20.0625 22.324219 L 22.277344 24.539062 L 27.085938 19.742188 C 26.203125 19.253906 25.179688 18.9375 24.011719 18.9375 Z M 30.125 20.402344 L 22.285156 28.242188 L 18.210938 24.164062 L 16.335938 26.039062 L 22.285156 32.003906 L 32 22.289062 Z M 31.519531 26.460938 L 27.984375 29.996094 L 32.113281 29.996094 L 31.996094 28.832031 C 31.996094 28.832031 31.871094 27.804688 31.519531 26.460938 Z M 31.519531 26.460938 "/>
</g>
</svg>
