<?xml version="1.0" encoding="UTF-8"?>
<svg xmlns="http://www.w3.org/2000/svg" xmlns:xlink="http://www.w3.org/1999/xlink" width="32" height="32" viewBox="0 0 32 32" version="1.1">
<g id="surface1">
<path style=" stroke:none;fill-rule:nonzero;fill:rgb(100%,100%,100%);fill-opacity:1;" d="M 17.332031 18.75 L 17.332031 29.332031 L 5.332031 29.332031 C 5.332031 26.273438 6.648438 23.359375 8.945312 21.332031 C 11.242188 19.308594 14.296875 18.367188 17.332031 18.75 Z M 16 17.332031 C 11.578125 17.332031 8 13.753906 8 9.332031 C 8 4.914062 11.578125 1.332031 16 1.332031 C 20.421875 1.332031 24 4.914062 24 9.332031 C 24 13.753906 20.421875 17.332031 16 17.332031 Z M 23.722656 26.550781 L 28.4375 21.839844 L 30.324219 23.722656 L 23.722656 30.324219 L 19.007812 25.609375 L 20.894531 23.722656 Z M 23.722656 26.550781 "/>
</g>
</svg>
