<?xml version="1.0" encoding="UTF-8"?>
<svg xmlns="http://www.w3.org/2000/svg" xmlns:xlink="http://www.w3.org/1999/xlink" width="32" height="32" viewBox="0 0 32 32" version="1.1">
<g id="surface1">
<path style=" stroke:none;fill-rule:nonzero;fill:rgb(100%,100%,100%);fill-opacity:1;" d="M 16 18.667969 L 16 29.332031 L 5.332031 29.332031 C 5.332031 23.441406 10.109375 18.667969 16 18.667969 Z M 16 17.332031 C 11.578125 17.332031 8 13.753906 8 9.332031 C 8 4.914062 11.578125 1.332031 16 1.332031 C 20.421875 1.332031 24 4.914062 24 9.332031 C 24 13.753906 20.421875 17.332031 16 17.332031 Z M 27.769531 27.769531 L 24 31.542969 L 20.230469 27.769531 C 18.144531 25.6875 18.144531 22.3125 20.230469 20.226562 C 22.3125 18.144531 25.6875 18.144531 27.769531 20.226562 C 29.855469 22.3125 29.855469 25.6875 27.769531 27.769531 Z M 24 22.667969 C 23.261719 22.667969 22.667969 23.261719 22.667969 24 C 22.667969 24.738281 23.261719 25.332031 24 25.332031 C 24.738281 25.332031 25.332031 24.738281 25.332031 24 C 25.332031 23.261719 24.738281 22.667969 24 22.667969 Z M 24 22.667969 "/>
</g>
</svg>
