<?xml version="1.0" encoding="UTF-8"?>
<svg xmlns="http://www.w3.org/2000/svg" xmlns:xlink="http://www.w3.org/1999/xlink" width="32" height="32" viewBox="0 0 32 32" version="1.1">
<g id="surface1">
<path style=" stroke:none;fill-rule:nonzero;fill:rgb(100%,100%,100%);fill-opacity:1;" d="M 16 18.667969 L 16 21.332031 C 11.582031 21.332031 8 24.914062 8 29.332031 L 5.332031 29.332031 C 5.332031 23.441406 10.109375 18.667969 16 18.667969 Z M 16 17.332031 C 11.578125 17.332031 8 13.753906 8 9.332031 C 8 4.914062 11.578125 1.332031 16 1.332031 C 20.421875 1.332031 24 4.914062 24 9.332031 C 24 13.753906 20.421875 17.332031 16 17.332031 Z M 16 14.667969 C 18.945312 14.667969 21.332031 12.28125 21.332031 9.332031 C 21.332031 6.386719 18.945312 4 16 4 C 13.054688 4 10.667969 6.386719 10.667969 9.332031 C 10.667969 12.28125 13.054688 14.667969 16 14.667969 Z M 27.769531 28.09375 L 24 32 L 20.230469 28.09375 C 18.144531 25.9375 18.144531 22.441406 20.230469 20.285156 C 21.210938 19.25 22.574219 18.667969 24 18.667969 C 25.425781 18.667969 26.789062 19.25 27.769531 20.285156 C 29.855469 22.441406 29.855469 25.9375 27.769531 28.09375 Z M 25.851562 26.242188 C 26.9375 25.117188 26.9375 23.261719 25.851562 22.136719 C 25.375 21.625 24.703125 21.332031 24 21.332031 C 23.296875 21.332031 22.625 21.625 22.148438 22.136719 C 21.0625 23.261719 21.0625 25.117188 22.148438 26.242188 L 24 28.160156 L 25.851562 26.238281 Z M 25.851562 26.242188 "/>
</g>
</svg>
