<?xml version="1.0" encoding="UTF-8"?>
<svg xmlns="http://www.w3.org/2000/svg" xmlns:xlink="http://www.w3.org/1999/xlink" width="32" height="32" viewBox="0 0 32 32" version="1.1">
<g id="surface1">
<path style=" stroke:none;fill-rule:nonzero;fill:rgb(100%,100%,100%);fill-opacity:1;" d="M 18.667969 19.003906 L 18.667969 21.789062 C 16.21875 20.921875 13.5 21.300781 11.378906 22.800781 C 9.261719 24.300781 8 26.734375 8 29.332031 L 5.332031 29.332031 C 5.332031 26.03125 6.859375 22.917969 9.46875 20.898438 C 12.074219 18.875 15.472656 18.175781 18.667969 19 Z M 16 17.332031 C 11.578125 17.332031 8 13.753906 8 9.332031 C 8 4.914062 11.578125 1.332031 16 1.332031 C 20.421875 1.332031 24 4.914062 24 9.332031 C 24 13.753906 20.421875 17.332031 16 17.332031 Z M 16 14.667969 C 18.945312 14.667969 21.332031 12.28125 21.332031 9.332031 C 21.332031 6.386719 18.945312 4 16 4 C 13.054688 4 10.667969 6.386719 10.667969 9.332031 C 10.667969 12.28125 13.054688 14.667969 16 14.667969 Z M 24 22.667969 L 24 18.667969 L 26.667969 18.667969 L 26.667969 22.667969 L 30.667969 22.667969 L 30.667969 25.332031 L 26.667969 25.332031 L 26.667969 29.332031 L 24 29.332031 L 24 25.332031 L 20 25.332031 L 20 22.667969 Z M 24 22.667969 "/>
</g>
</svg>
