<?xml version="1.0" encoding="UTF-8"?>
<svg xmlns="http://www.w3.org/2000/svg" xmlns:xlink="http://www.w3.org/1999/xlink" width="32" height="32" viewBox="0 0 32 32" version="1.1">
<g id="surface1">
<path style=" stroke:none;fill-rule:nonzero;fill:rgb(100%,100%,100%);fill-opacity:1;" d="M 15.9375 2.003906 C 11.566406 2.070312 8.058594 5.632812 8.058594 10.003906 C 8.058594 14.421875 11.640625 18.003906 16.058594 18.003906 C 20.476562 18.003906 24.058594 14.421875 24.058594 10.003906 C 24.058594 5.585938 20.476562 2.003906 16.058594 2.003906 C 16.019531 2.003906 15.976562 2.003906 15.9375 2.003906 Z M 26.550781 16 L 26.550781 18.164062 C 26.183594 18.226562 25.855469 18.324219 25.558594 18.457031 C 24.988281 18.710938 24.535156 19.089844 24.207031 19.589844 C 23.886719 20.089844 23.726562 20.652344 23.726562 21.277344 C 23.726562 21.8125 23.851562 22.316406 24.101562 22.785156 C 24.359375 23.25 24.699219 23.625 25.128906 23.910156 C 25.558594 24.195312 26.234375 24.460938 27.15625 24.707031 C 28.1875 24.984375 28.832031 25.179688 29.101562 25.300781 C 29.371094 25.414062 29.566406 25.5625 29.699219 25.746094 C 29.832031 25.929688 29.894531 26.148438 29.894531 26.410156 C 29.894531 26.851562 29.707031 27.226562 29.332031 27.527344 C 28.957031 27.824219 28.445312 27.972656 27.789062 27.972656 C 26.46875 27.972656 25.6875 27.242188 25.449219 25.777344 L 23.332031 25.996094 C 23.582031 28.191406 24.664062 29.453125 26.550781 29.808594 L 26.550781 32 L 28.839844 32 L 28.839844 29.84375 C 29.769531 29.710938 30.496094 29.40625 31.003906 28.910156 C 31.707031 28.234375 32.054688 27.398438 32.054688 26.402344 C 32.054688 25.714844 31.929688 25.132812 31.671875 24.652344 C 31.414062 24.167969 31.046875 23.773438 30.558594 23.472656 C 30.078125 23.164062 29.289062 22.875 28.199219 22.597656 C 27.167969 22.34375 26.511719 22.109375 26.226562 21.894531 C 25.941406 21.679688 25.796875 21.417969 25.796875 21.105469 C 25.796875 20.789062 25.953125 20.523438 26.269531 20.308594 C 26.585938 20.09375 27.039062 19.988281 27.621094 19.988281 C 28.203125 19.988281 28.652344 20.109375 28.96875 20.355469 C 29.285156 20.601562 29.488281 21.03125 29.582031 21.644531 L 31.753906 21.542969 C 31.710938 20.429688 31.335938 19.570312 30.628906 18.972656 C 30.15625 18.574219 29.554688 18.320312 28.839844 18.1875 L 28.839844 16 Z M 8.046875 18.9375 C 6.289062 18.941406 4.820312 19.628906 3.734375 20.605469 C 2.644531 21.585938 1.890625 22.824219 1.359375 24.03125 C 0.296875 26.449219 0.0585938 28.832031 0.0585938 28.832031 L -0.0585938 29.996094 L 22.929688 29.996094 C 22.890625 29.957031 22.839844 29.929688 22.804688 29.886719 C 21.953125 28.878906 21.5 27.597656 21.34375 26.21875 L 21.117188 24.21875 L 22.625 24.058594 C 22.550781 23.941406 22.414062 23.875 22.347656 23.753906 L 22.34375 23.738281 L 22.335938 23.730469 C 21.9375 22.980469 21.726562 22.121094 21.726562 21.273438 C 21.726562 21.03125 21.742188 20.792969 21.777344 20.550781 C 20.023438 21.503906 18.054688 22.003906 16.058594 22.003906 C 13.101562 22.003906 10.25 20.910156 8.046875 18.9375 Z M 8.046875 18.9375 "/>
</g>
</svg>
