<?xml version="1.0" encoding="UTF-8"?>
<svg xmlns="http://www.w3.org/2000/svg" xmlns:xlink="http://www.w3.org/1999/xlink" width="32" height="32" viewBox="0 0 32 32" version="1.1">
<g id="surface1">
<path style=" stroke:none;fill-rule:nonzero;fill:rgb(100%,100%,100%);fill-opacity:1;" d="M 29.628906 21.023438 L 29.328125 19.523438 L 25.976562 19.523438 L 25.445312 21.011719 L 22.757812 21.019531 C 24.035156 17.941406 25.316406 14.867188 26.601562 11.792969 C 26.820312 11.273438 27.210938 11.007812 27.78125 11.011719 C 28.21875 11.015625 28.933594 11.015625 29.921875 11.011719 L 32 21.019531 Z M 26.730469 17.46875 L 28.890625 17.46875 L 28.085938 13.710938 Z M 9.414062 11.007812 L 12.113281 11.011719 L 7.9375 21.023438 L 5.203125 21.023438 C 4.515625 18.378906 3.835938 15.730469 3.167969 13.082031 C 3.035156 12.554688 2.769531 12.183594 2.261719 12.007812 C 1.808594 11.851562 1.054688 11.613281 0 11.285156 L 0 11.011719 L 4.316406 11.011719 C 5.0625 11.011719 5.5 11.375 5.636719 12.117188 C 5.78125 12.859375 6.132812 14.75 6.707031 17.789062 Z M 15.828125 11.011719 L 13.691406 21.023438 L 11.121094 21.019531 L 13.253906 11.007812 Z M 21.039062 10.828125 C 21.808594 10.828125 22.777344 11.066406 23.335938 11.285156 L 22.886719 13.363281 C 22.382812 13.160156 21.550781 12.886719 20.855469 12.894531 C 19.839844 12.914062 19.214844 13.339844 19.214844 13.746094 C 19.214844 14.410156 20.300781 14.746094 21.421875 15.46875 C 22.703125 16.296875 22.871094 17.039062 22.851562 17.847656 C 22.835938 19.519531 21.421875 21.171875 18.441406 21.171875 C 17.082031 21.152344 16.589844 21.039062 15.480469 20.644531 L 15.949219 18.480469 C 17.078125 18.953125 17.558594 19.101562 18.523438 19.101562 C 19.40625 19.101562 20.167969 18.746094 20.171875 18.121094 C 20.179688 17.679688 19.90625 17.460938 18.914062 16.914062 C 17.921875 16.367188 16.53125 15.605469 16.550781 14.085938 C 16.570312 12.132812 18.417969 10.828125 21.042969 10.828125 Z M 21.039062 10.828125 "/>
</g>
</svg>
