<?xml version="1.0" encoding="UTF-8"?>
<svg xmlns="http://www.w3.org/2000/svg" xmlns:xlink="http://www.w3.org/1999/xlink" width="32" height="32" viewBox="0 0 32 32" version="1.1">
<g id="surface1">
<path style=" stroke:none;fill-rule:nonzero;fill:rgb(100%,100%,100%);fill-opacity:1;" d="M 7.851562 21.332031 L 2.667969 21.332031 C 1.929688 21.332031 1.332031 20.738281 1.332031 20 L 1.332031 12 C 1.332031 11.261719 1.929688 10.667969 2.667969 10.667969 L 7.851562 10.667969 L 14.910156 4.890625 C 15.109375 4.726562 15.386719 4.695312 15.617188 4.804688 C 15.851562 4.914062 16 5.148438 16 5.40625 L 16 26.59375 C 16 26.851562 15.851562 27.085938 15.617188 27.195312 C 15.386719 27.304688 15.109375 27.273438 14.910156 27.109375 Z M 25.875 26.84375 L 23.988281 24.957031 C 26.542969 22.683594 28.003906 19.421875 28 16 C 28.003906 12.398438 26.386719 8.984375 23.59375 6.710938 L 25.488281 4.816406 C 28.777344 7.601562 30.671875 11.691406 30.667969 16 C 30.667969 20.296875 28.820312 24.164062 25.875 26.84375 Z M 21.152344 22.121094 L 19.253906 20.226562 C 20.566406 19.214844 21.335938 17.65625 21.332031 16 C 21.332031 14.09375 20.332031 12.421875 18.828125 11.476562 L 20.746094 9.558594 C 22.792969 11.066406 24.003906 13.457031 24 16 C 24 18.457031 22.894531 20.652344 21.152344 22.121094 Z M 21.152344 22.121094 "/>
</g>
</svg>
