<?xml version="1.0" encoding="UTF-8"?>
<svg xmlns="http://www.w3.org/2000/svg" xmlns:xlink="http://www.w3.org/1999/xlink" width="32" height="32" viewBox="0 0 32 32" version="1.1">
<g id="surface1">
<path style=" stroke:none;fill-rule:nonzero;fill:rgb(100%,100%,100%);fill-opacity:1;" d="M 7.851562 21.332031 L 2.667969 21.332031 C 1.929688 21.332031 1.332031 20.738281 1.332031 20 L 1.332031 12 C 1.332031 11.261719 1.929688 10.667969 2.667969 10.667969 L 7.851562 10.667969 L 14.910156 4.890625 C 15.109375 4.726562 15.386719 4.695312 15.617188 4.804688 C 15.851562 4.914062 16 5.148438 16 5.40625 L 16 26.59375 C 16 26.851562 15.851562 27.085938 15.617188 27.195312 C 15.386719 27.304688 15.109375 27.273438 14.910156 27.109375 Z M 27.21875 16 L 31.933594 20.714844 L 30.046875 22.601562 L 25.332031 17.886719 L 20.617188 22.601562 L 18.734375 20.714844 L 23.449219 16 L 18.734375 11.285156 L 20.617188 9.398438 L 25.332031 14.113281 L 30.046875 9.398438 L 31.933594 11.285156 Z M 27.21875 16 "/>
</g>
</svg>
