<?xml version="1.0" encoding="UTF-8"?>
<svg xmlns="http://www.w3.org/2000/svg" xmlns:xlink="http://www.w3.org/1999/xlink" width="32" height="32" viewBox="0 0 32 32" version="1.1">
<g id="surface1">
<path style=" stroke:none;fill-rule:nonzero;fill:rgb(100%,100%,100%);fill-opacity:1;" d="M 16.285156 4 C 15.371094 3.988281 14.457031 4.1875 13.601562 4.605469 L 2.753906 9.898438 C 1.085938 10.710938 0.0078125 12.550781 0.0078125 14.5625 L 0.0078125 32 L 6.742188 32 L 6.742188 19.398438 C 6.742188 18.191406 7.601562 17.242188 8.695312 17.242188 L 23.78125 17.242188 C 24.6875 17.242188 25.402344 18.03125 25.402344 19.03125 L 25.402344 32 L 31.992188 32 L 31.992188 14.859375 C 31.992188 12.757812 30.886719 10.84375 29.164062 9.953125 L 18.953125 4.675781 C 18.109375 4.238281 17.199219 4.011719 16.285156 4 Z M 10 20 L 10 22 L 22 22 L 22 20 Z M 10 24 L 10 26 L 22 26 L 22 24 Z M 10 28 L 10 30 L 22 30 L 22 28 Z M 10 28 "/>
</g>
</svg>
