<?xml version="1.0" encoding="UTF-8"?>
<svg xmlns="http://www.w3.org/2000/svg" xmlns:xlink="http://www.w3.org/1999/xlink" width="32" height="32" viewBox="0 0 32 32" version="1.1">
<g id="surface1">
<path style=" stroke:none;fill-rule:evenodd;fill:rgb(100%,100%,100%);fill-opacity:1;" d="M 14 10.53125 L 18 10.53125 L 18 20.53125 L 14 20.53125 Z M 14 10.53125 "/>
<path style=" stroke:none;fill-rule:evenodd;fill:rgb(100%,100%,100%);fill-opacity:1;" d="M 14 22.53125 L 18 22.53125 L 18 26.53125 L 14 26.53125 Z M 14 22.53125 "/>
<path style=" stroke:none;fill-rule:nonzero;fill:rgb(100%,100%,100%);fill-opacity:1;" d="M 16.101562 1.472656 C 14.925781 1.472656 13.824219 2.207031 13.132812 3.363281 C 9.894531 8.785156 3.769531 19.394531 0.597656 25.066406 C -0.0976562 26.316406 -0.195312 27.703125 0.421875 28.773438 C 1.039062 29.839844 2.285156 30.433594 3.714844 30.457031 C 9.933594 30.542969 21.429688 30.550781 27.941406 30.46875 C 29.519531 30.449219 30.875 29.796875 31.542969 28.640625 C 32.210938 27.484375 32.109375 25.984375 31.339844 24.609375 C 28.101562 18.839844 22.207031 8.640625 19.054688 3.363281 C 18.363281 2.207031 17.277344 1.476562 16.101562 1.472656 Z M 16.101562 3.46875 C 16.464844 3.46875 16.914062 3.679688 17.339844 4.398438 C 20.472656 9.644531 26.375 19.839844 29.59375 25.582031 C 30.117188 26.511719 30.0625 27.1875 29.800781 27.636719 C 29.542969 28.082031 28.980469 28.464844 27.910156 28.476562 C 21.429688 28.558594 9.929688 28.546875 3.742188 28.460938 C 2.828125 28.449219 2.375 28.132812 2.164062 27.769531 C 1.953125 27.40625 1.894531 26.84375 2.339844 26.039062 C 5.496094 20.398438 11.640625 9.769531 14.859375 4.382812 C 15.289062 3.667969 15.734375 3.464844 16.101562 3.464844 Z M 16.101562 3.46875 "/>
</g>
</svg>
