<?xml version="1.0" encoding="UTF-8"?>
<svg xmlns="http://www.w3.org/2000/svg" xmlns:xlink="http://www.w3.org/1999/xlink" width="32" height="32" viewBox="0 0 32 32" version="1.1">
<defs>
<filter id="alpha" filterUnits="objectBoundingBox" x="0%" y="0%" width="100%" height="100%">
  <feColorMatrix type="matrix" in="SourceGraphic" values="0 0 0 0 1 0 0 0 0 1 0 0 0 0 1 0 0 0 1 0"/>
</filter>
<mask id="mask0">
  <g filter="url(#alpha)">
<rect x="0" y="0" width="32" height="32" style="fill:rgb(100%,100%,100%);fill-opacity:0.996078;stroke:none;"/>
  </g>
</mask>
<clipPath id="clip1">
  <rect x="0" y="0" width="32" height="32"/>
</clipPath>
<g id="surface5" clip-path="url(#clip1)">
<path style=" stroke:none;fill-rule:evenodd;fill:rgb(100%,100%,100%);fill-opacity:1;" d="M 4 2 C 1.785156 2 0 3.785156 0 6 L 0 26 C 0 28.214844 1.785156 30 4 30 L 28 30 C 30.214844 30 32 28.214844 32 26 L 32 6 C 32 3.785156 30.214844 2 28 2 Z M 10 4 C 11.109375 4 12 4.890625 12 6 C 12 7.109375 11.109375 8 10 8 C 8.890625 8 8 7.109375 8 6 C 8 4.890625 8.890625 4 10 4 Z M 22 4 C 23.109375 4 24 4.890625 24 6 C 24 7.109375 23.109375 8 22 8 C 20.890625 8 20 7.109375 20 6 C 20 4.890625 20.890625 4 22 4 Z M 2 10 L 8 10 L 8 12 L 12 12 L 12 10 L 20 10 L 20 12 L 24 12 L 24 10 L 30 10 L 30 24 C 30 26.214844 28.214844 28 26 28 L 25.011719 28 L 27.195312 16.003906 L 16.800781 16.003906 L 17.023438 17.183594 L 18.984375 28 L 13.007812 28 L 15.191406 16.003906 L 4.796875 16.003906 L 5.019531 17.183594 L 6.980469 28 L 6 28 C 3.785156 28 1.574219 26.175781 2 24 Z M 2 10 "/>
</g>
</defs>
<g id="surface1">
<use xlink:href="#surface5" mask="url(#mask0)"/>
</g>
</svg>
