<?xml version="1.0" encoding="UTF-8"?>
<svg xmlns="http://www.w3.org/2000/svg" xmlns:xlink="http://www.w3.org/1999/xlink" width="32" height="32" viewBox="0 0 32 32" version="1.1">
<defs>
<filter id="alpha" filterUnits="objectBoundingBox" x="0%" y="0%" width="100%" height="100%">
  <feColorMatrix type="matrix" in="SourceGraphic" values="0 0 0 0 1 0 0 0 0 1 0 0 0 0 1 0 0 0 1 0"/>
</filter>
<mask id="mask0">
  <g filter="url(#alpha)">
<rect x="0" y="0" width="32" height="32" style="fill:rgb(100%,100%,100%);fill-opacity:0.996078;stroke:none;"/>
  </g>
</mask>
<clipPath id="clip1">
  <rect x="0" y="0" width="32" height="32"/>
</clipPath>
<g id="surface5" clip-path="url(#clip1)">
<path style=" stroke:none;fill-rule:evenodd;fill:rgb(100%,100%,100%);fill-opacity:1;" d="M 15.503906 0.0742188 C 13.613281 0.0742188 12.050781 1.617188 12.011719 3.5 L 12.003906 3.5 L 12.003906 20.003906 L 23.992188 20.003906 L 23.992188 30 L 30 30 L 30 27 L 27.003906 27 L 27.003906 17.007812 L 15 17.007812 L 15 12.003906 L 22 12.003906 L 22 9.003906 L 15 9.003906 L 15 7.03125 C 15.164062 7.054688 15.332031 7.085938 15.503906 7.085938 C 17.417969 7.085938 19 5.484375 19 3.570312 C 19 1.65625 17.417969 0.0742188 15.503906 0.0742188 Z M 11.5 9.003906 C 6.851562 9.003906 2.648438 11.8125 0.871094 16.105469 C -0.90625 20.398438 0.0820312 25.339844 3.367188 28.625 C 6.652344 31.910156 11.609375 32.898438 15.902344 31.121094 C 20.195312 29.34375 23.003906 25.15625 23.003906 20.507812 L 20.003906 20.507812 C 20.003906 23.949219 17.929688 27.042969 14.75 28.359375 C 11.570312 29.675781 7.925781 28.949219 5.492188 26.515625 C 3.058594 24.082031 2.332031 20.421875 3.648438 17.242188 C 4.964844 14.0625 8.058594 12.003906 11.5 12.003906 Z M 11.5 9.003906 "/>
</g>
</defs>
<g id="surface1">
<use xlink:href="#surface5" mask="url(#mask0)"/>
</g>
</svg>
