<?xml version="1.0" encoding="UTF-8"?>
<svg xmlns="http://www.w3.org/2000/svg" xmlns:xlink="http://www.w3.org/1999/xlink" width="32" height="32" viewBox="0 0 32 32" version="1.1">
<g id="surface1">
<path style=" stroke:none;fill-rule:evenodd;fill:rgb(0%,0%,0%);fill-opacity:1;" d="M 8.21875 1.617188 C 7.960938 1.617188 7.707031 1.714844 7.511719 1.910156 C 5.261719 4.160156 3.992188 7.21875 3.992188 10.402344 C 3.992188 13.585938 5.253906 16.625 7.503906 18.875 C 7.894531 19.265625 8.527344 19.269531 8.917969 18.878906 C 9.308594 18.488281 9.3125 17.851562 8.921875 17.460938 C 7.046875 15.585938 5.996094 13.039062 5.996094 10.386719 C 5.996094 7.734375 7.050781 5.203125 8.925781 3.328125 C 9.265625 2.984375 9.316406 2.449219 9.039062 2.050781 C 9 2 8.964844 1.953125 8.925781 1.910156 C 8.730469 1.714844 8.476562 1.617188 8.21875 1.617188 Z M 23.78125 1.628906 C 23.523438 1.628906 23.269531 1.726562 23.074219 1.921875 C 23.035156 1.964844 23 2.015625 22.960938 2.0625 C 22.6875 2.460938 22.734375 2.996094 23.074219 3.335938 C 24.949219 5.210938 25.996094 7.757812 25.996094 10.410156 C 25.996094 13.0625 24.949219 15.609375 23.074219 17.484375 C 22.695312 17.871094 22.6875 18.488281 23.066406 18.878906 C 23.453125 19.269531 24.082031 19.277344 24.476562 18.894531 C 26.726562 16.644531 27.996094 13.589844 27.996094 10.40625 C 27.996094 7.222656 26.738281 4.171875 24.488281 1.921875 C 24.292969 1.726562 24.039062 1.628906 23.78125 1.628906 Z M 11.046875 4.449219 C 10.789062 4.449219 10.535156 4.546875 10.339844 4.742188 C 8.839844 6.242188 7.992188 8.273438 7.992188 10.394531 C 7.992188 12.515625 8.835938 14.546875 10.335938 16.046875 C 10.726562 16.4375 11.363281 16.4375 11.753906 16.046875 C 12.144531 15.65625 12.144531 15.023438 11.753906 14.632812 C 10.628906 13.507812 9.992188 11.988281 9.992188 10.398438 C 9.992188 8.808594 10.621094 7.273438 11.746094 6.148438 C 12.082031 5.808594 12.136719 5.28125 11.871094 4.882812 C 11.832031 4.832031 11.792969 4.789062 11.753906 4.746094 C 11.558594 4.550781 11.304688 4.449219 11.046875 4.449219 Z M 20.941406 4.453125 C 20.683594 4.453125 20.425781 4.550781 20.230469 4.746094 C 20.191406 4.789062 20.15625 4.835938 20.117188 4.886719 C 19.839844 5.285156 19.890625 5.824219 20.234375 6.164062 C 21.359375 7.289062 21.996094 8.8125 21.996094 10.402344 C 21.996094 11.992188 21.371094 13.519531 20.246094 14.644531 C 19.855469 15.035156 19.855469 15.667969 20.246094 16.058594 C 20.636719 16.4375 21.265625 16.4375 21.652344 16.050781 C 23.152344 14.550781 23.996094 12.519531 23.996094 10.398438 C 23.996094 8.277344 23.148438 6.246094 21.648438 4.746094 C 21.453125 4.550781 21.199219 4.453125 20.941406 4.453125 Z M 16 6.410156 C 13.789062 6.410156 12 8.199219 12 10.410156 C 12 11.886719 12.808594 13.167969 14 13.859375 L 14 22.390625 L 2.011719 22.382812 C 0.902344 22.382812 0.00390625 23.28125 0.00390625 24.390625 L 0 30.003906 L 1.992188 30.003906 L 1.992188 30.992188 C 1.992188 31.546875 2.441406 31.996094 2.996094 31.996094 L 9.027344 31.996094 C 9.5625 31.996094 9.578125 31.363281 9.996094 31.027344 L 9.996094 30.003906 L 21.992188 30.011719 L 21.992188 31.019531 C 21.996094 31.5625 22.433594 32 22.976562 32 L 29 32 C 29.550781 32 29.996094 31.554688 29.996094 31.003906 L 29.996094 30.007812 L 31.992188 30.003906 L 31.996094 24.390625 C 31.996094 23.28125 31.097656 22.382812 29.988281 22.382812 L 18 22.390625 L 18 13.859375 C 19.191406 13.167969 20 11.886719 20 10.410156 C 20 8.199219 18.210938 6.410156 16 6.410156 Z M 16 6.410156 "/>
</g>
</svg>
