<?xml version="1.0" encoding="UTF-8"?>
<svg xmlns="http://www.w3.org/2000/svg" xmlns:xlink="http://www.w3.org/1999/xlink" width="32" height="32" viewBox="0 0 32 32" version="1.1">
<g id="surface1">
<path style=" stroke:none;fill-rule:nonzero;fill:rgb(0%,0%,0%);fill-opacity:1;" d="M 6.09375 0.945312 L 0.4375 6.601562 L 3.265625 9.433594 L 3.316406 9.382812 C 0.644531 14.453125 1.148438 20.828125 5.09375 25.402344 C 10.25 31.382812 19.304688 32.03125 25.339844 26.828125 C 30.484375 22.394531 31.730469 15.140625 28.777344 9.390625 L 31.5625 6.601562 L 25.90625 0.945312 L 23.261719 3.589844 C 18.851562 1.035156 13.304688 1 8.796875 3.648438 Z M 15.789062 4.84375 C 19.003906 4.761719 22.222656 6.0625 24.480469 8.683594 C 28.496094 13.339844 27.953125 20.378906 23.265625 24.421875 C 18.578125 28.464844 11.535156 27.96875 7.519531 23.3125 C 3.503906 18.65625 4.046875 11.617188 8.734375 7.574219 C 10.785156 5.804688 13.289062 4.90625 15.789062 4.84375 Z M 15.789062 4.84375 "/>
<path style=" stroke:none;fill-rule:nonzero;fill:rgb(0%,0%,0%);fill-opacity:1;" d="M 13.996094 8.242188 L 13.996094 18.253906 L 24.007812 18.253906 L 24.007812 14.25 L 17.996094 14.25 L 17.996094 8.242188 Z M 13.996094 8.242188 "/>
</g>
</svg>
