<?xml version="1.0" encoding="UTF-8"?>
<svg xmlns="http://www.w3.org/2000/svg" xmlns:xlink="http://www.w3.org/1999/xlink" width="32" height="32" viewBox="0 0 32 32" version="1.1">
<g id="surface1">
<path style=" stroke:none;fill-rule:nonzero;fill:rgb(0%,0%,0%);fill-opacity:1;" d="M 5.332031 26.667969 L 5.332031 18.667969 C 5.332031 12.777344 10.109375 8 16 8 C 21.890625 8 26.667969 12.777344 26.667969 18.667969 L 26.667969 26.667969 L 28 26.667969 L 28 29.332031 L 4 29.332031 L 4 26.667969 Z M 8 26.667969 L 24 26.667969 L 24 18.667969 C 24 14.25 20.417969 10.667969 16 10.667969 C 11.582031 10.667969 8 14.25 8 18.667969 Z M 14.667969 2.667969 L 17.332031 2.667969 L 17.332031 6.667969 L 14.667969 6.667969 Z M 26.371094 6.410156 L 28.257812 8.296875 L 25.429688 11.125 L 23.542969 9.238281 Z M 3.742188 8.296875 L 5.628906 6.410156 L 8.457031 9.238281 L 6.574219 11.125 Z M 9.332031 18.667969 C 9.332031 14.984375 12.316406 12 16 12 L 16 14.667969 C 13.789062 14.667969 12 16.457031 12 18.667969 Z M 9.332031 18.667969 "/>
</g>
</svg>
