<?xml version="1.0" encoding="UTF-8"?>
<svg xmlns="http://www.w3.org/2000/svg" xmlns:xlink="http://www.w3.org/1999/xlink" width="32" height="32" viewBox="0 0 32 32" version="1.1">
<g id="surface1">
<path style=" stroke:none;fill-rule:nonzero;fill:rgb(0%,0%,0%);fill-opacity:1;" d="M 16 2.667969 C 22.257812 2.667969 27.332031 7.742188 27.332031 14 C 27.332031 22.667969 20 30 16 30 C 12 30 4.667969 22.667969 4.667969 14 C 4.667969 7.742188 9.742188 2.667969 16 2.667969 Z M 16 5.332031 C 11.214844 5.332031 7.332031 9.214844 7.332031 14 C 7.332031 20.390625 12.886719 27.332031 16 27.332031 C 19.113281 27.332031 24.667969 20.390625 24.667969 14 C 24.667969 9.214844 20.785156 5.332031 16 5.332031 Z M 23.332031 14.667969 C 23.546875 14.667969 23.757812 14.675781 23.964844 14.699219 C 24.15625 16.503906 23.523438 18.292969 22.242188 19.578125 C 20.960938 20.859375 19.167969 21.492188 17.367188 21.300781 C 17.1875 19.609375 17.734375 17.917969 18.871094 16.652344 C 20.011719 15.390625 21.632812 14.667969 23.332031 14.667969 Z M 8.667969 14.667969 C 10.367188 14.667969 11.988281 15.390625 13.128906 16.652344 C 14.265625 17.917969 14.8125 19.609375 14.632812 21.300781 C 12.832031 21.492188 11.039062 20.859375 9.757812 19.578125 C 8.476562 18.292969 7.84375 16.503906 8.035156 14.699219 C 8.238281 14.675781 8.453125 14.667969 8.667969 14.667969 Z M 8.667969 14.667969 "/>
</g>
</svg>
