<?xml version="1.0" encoding="UTF-8"?>
<svg xmlns="http://www.w3.org/2000/svg" xmlns:xlink="http://www.w3.org/1999/xlink" width="32" height="32" viewBox="0 0 32 32" version="1.1">
<g id="surface1">
<path style=" stroke:none;fill-rule:nonzero;fill:rgb(0%,0%,0%);fill-opacity:1;" d="M 4 14.667969 L 28 14.667969 L 28 17.332031 L 4 17.332031 Z M 24 24 L 24 28 L 21.332031 28 L 21.332031 24 L 17.332031 24 L 22.667969 18.667969 L 28 24 Z M 10.667969 24 L 10.667969 28 L 8 28 L 8 24 L 4 24 L 9.332031 18.667969 L 14.667969 24 Z M 24 8 L 28 8 L 22.667969 13.332031 L 17.332031 8 L 21.332031 8 L 21.332031 4 L 24 4 Z M 10.667969 8 L 14.667969 8 L 9.332031 13.332031 L 4 8 L 8 8 L 8 4 L 10.667969 4 Z M 10.667969 8 "/>
</g>
</svg>
