<?xml version="1.0" encoding="UTF-8"?>
<svg xmlns="http://www.w3.org/2000/svg" xmlns:xlink="http://www.w3.org/1999/xlink" width="32" height="32" viewBox="0 0 32 32" version="1.1">
<g id="surface1">
<path style=" stroke:none;fill-rule:nonzero;fill:rgb(0%,0%,0%);fill-opacity:1;" d="M 24.542969 22.386719 C 21.648438 21.121094 19.585938 20.191406 18.355469 19.605469 C 16.492188 21.867188 14.527344 23.230469 11.585938 23.230469 C 8.640625 23.230469 6.667969 21.417969 6.902344 19.1875 C 7.0625 17.726562 8.0625 15.339844 12.40625 15.753906 C 14.699219 15.96875 15.742188 16.394531 17.621094 17.011719 C 18.101562 16.128906 18.507812 15.148438 18.804688 14.113281 L 10.507812 14.113281 L 10.507812 13.289062 L 14.601562 13.289062 L 14.601562 11.820312 L 9.601562 11.820312 L 9.601562 10.910156 L 14.601562 10.910156 L 14.601562 8.789062 C 14.601562 8.789062 14.644531 8.457031 15.019531 8.457031 L 17.066406 8.457031 L 17.066406 10.921875 L 22.398438 10.921875 L 22.398438 11.828125 L 17.066406 11.828125 L 17.066406 13.300781 L 21.417969 13.300781 C 21.046875 14.855469 20.457031 16.34375 19.660156 17.726562 C 20.339844 17.96875 22.453125 18.628906 26.003906 19.707031 C 27.949219 14.460938 25.511719 8.605469 20.421875 6.289062 C 15.328125 3.972656 9.3125 5.980469 6.636719 10.894531 C 3.960938 15.804688 5.535156 21.953125 10.242188 24.972656 C 14.949219 27.996094 21.191406 26.867188 24.542969 22.386719 Z M 16 29.332031 C 8.636719 29.332031 2.667969 23.363281 2.667969 16 C 2.667969 8.636719 8.636719 2.667969 16 2.667969 C 23.363281 2.667969 29.332031 8.636719 29.332031 16 C 29.332031 23.363281 23.363281 29.332031 16 29.332031 Z M 11.242188 21.824219 C 13.164062 21.824219 15.007812 20.660156 16.523438 18.6875 C 14.378906 17.652344 12.597656 17.140625 10.601562 17.140625 C 8.863281 17.140625 7.957031 18.207031 7.796875 19.03125 C 7.636719 19.851562 8.128906 21.824219 11.242188 21.824219 Z M 11.242188 21.824219 "/>
</g>
</svg>
