<?xml version="1.0" encoding="UTF-8"?>
<svg xmlns="http://www.w3.org/2000/svg" xmlns:xlink="http://www.w3.org/1999/xlink" width="32" height="32" viewBox="0 0 32 32" version="1.1">
<g id="surface1">
<path style=" stroke:none;fill-rule:nonzero;fill:rgb(0%,0%,0%);fill-opacity:1;" d="M 21.964844 5.976562 L 26.511719 5.976562 C 25.796875 7.4375 25.191406 9.304688 24.699219 11.582031 C 24.222656 13.847656 23.984375 15.433594 23.984375 16.339844 C 23.984375 17.511719 24.203125 19.039062 24.644531 20.925781 C 25.085938 22.8125 25.636719 24.511719 26.304688 26.023438 L 21.851562 26.023438 C 21.789062 25.769531 21.675781 25.417969 21.511719 24.964844 C 21.246094 24.210938 21.019531 23.457031 20.832031 22.699219 C 19.285156 25.214844 17.074219 26.476562 14.207031 26.476562 C 11.5 26.476562 9.367188 25.378906 7.808594 23.191406 C 6.261719 20.988281 5.488281 18.421875 5.488281 15.492188 C 5.488281 12.722656 6.261719 10.371094 7.808594 8.429688 C 9.355469 6.492188 11.507812 5.523438 14.261719 5.523438 C 16.980469 5.523438 19.175781 6.828125 20.851562 9.433594 C 21.078125 8.511719 21.449219 7.363281 21.964844 5.976562 Z M 10.921875 16.054688 C 10.921875 17.90625 11.3125 19.410156 12.09375 20.566406 C 12.886719 21.710938 13.910156 22.285156 15.167969 22.285156 C 16.378906 22.285156 17.363281 21.777344 18.132812 20.757812 C 18.898438 19.738281 19.285156 18.171875 19.285156 16.054688 C 19.285156 13.980469 18.875 12.40625 18.058594 11.339844 C 17.238281 10.269531 16.25 9.734375 15.09375 9.734375 C 13.886719 9.734375 12.886719 10.289062 12.09375 11.394531 C 11.3125 12.503906 10.921875 14.054688 10.921875 16.054688 Z M 10.921875 16.054688 "/>
</g>
</svg>
