<?xml version="1.0" encoding="UTF-8"?>
<svg xmlns="http://www.w3.org/2000/svg" xmlns:xlink="http://www.w3.org/1999/xlink" width="32" height="32" viewBox="0 0 32 32" version="1.1">
<g id="surface1">
<path style=" stroke:none;fill-rule:nonzero;fill:rgb(0%,0%,0%);fill-opacity:1;" d="M 18.667969 5.332031 L 21.332031 5.332031 C 25.015625 5.332031 28 8.316406 28 12 L 28 17.332031 L 25.332031 17.332031 L 25.332031 12 C 25.332031 9.789062 23.542969 8 21.332031 8 L 18.667969 8 L 18.667969 12 L 12 6.667969 L 18.667969 1.332031 Z M 20 14.667969 L 20 28 C 20 28.738281 19.402344 29.332031 18.667969 29.332031 L 5.332031 29.332031 C 4.597656 29.332031 4 28.738281 4 28 L 4 14.667969 C 4 13.929688 4.597656 13.332031 5.332031 13.332031 L 18.667969 13.332031 C 19.402344 13.332031 20 13.929688 20 14.667969 Z M 20 14.667969 "/>
</g>
</svg>
