<?xml version="1.0" encoding="UTF-8"?>
<svg xmlns="http://www.w3.org/2000/svg" xmlns:xlink="http://www.w3.org/1999/xlink" width="32" height="32" viewBox="0 0 32 32" version="1.1">
<g id="surface1">
<path style=" stroke:none;fill-rule:nonzero;fill:rgb(0%,0%,0%);fill-opacity:1;" d="M 16 2.667969 C 23.363281 2.667969 29.332031 8.636719 29.332031 16 C 29.332031 23.363281 23.363281 29.332031 16 29.332031 C 8.636719 29.332031 2.667969 23.363281 2.667969 16 C 2.667969 8.636719 8.636719 2.667969 16 2.667969 Z M 11.765625 20.457031 C 11.238281 19.820312 10.582031 19.59375 9.792969 19.777344 L 9.59375 19.832031 L 8.804688 21.1875 C 8.496094 21.691406 8.640625 22.34375 9.128906 22.671875 C 9.617188 23 10.28125 22.886719 10.625 22.410156 L 10.710938 22.285156 L 11.761719 20.457031 Z M 17.613281 11.546875 C 16.960938 12.085938 16.308594 13.675781 17.226562 15.261719 L 21.28125 22.285156 C 21.570312 22.777344 22.195312 22.964844 22.710938 22.714844 C 23.226562 22.460938 23.460938 21.855469 23.246094 21.320312 L 23.183594 21.1875 L 22.113281 19.332031 L 23.699219 19.332031 C 23.992188 19.332031 24.269531 19.21875 24.476562 19.011719 C 24.683594 18.804688 24.796875 18.527344 24.796875 18.234375 C 24.796875 17.679688 24.386719 17.214844 23.835938 17.148438 L 23.699219 17.136719 L 20.84375 17.136719 L 17.921875 12.074219 Z M 17.984375 7.488281 C 17.507812 7.214844 16.902344 7.335938 16.566406 7.769531 L 16.484375 7.890625 L 15.996094 8.734375 L 15.515625 7.890625 C 15.226562 7.394531 14.601562 7.207031 14.085938 7.460938 C 13.570312 7.714844 13.335938 8.320312 13.546875 8.851562 L 13.613281 8.988281 L 14.730469 10.929688 L 11.152344 17.132812 L 8.355469 17.132812 C 8.0625 17.132812 7.785156 17.246094 7.578125 17.453125 C 7.375 17.660156 7.257812 17.9375 7.257812 18.230469 C 7.257812 18.789062 7.675781 19.25 8.21875 19.320312 L 8.355469 19.328125 L 18.328125 19.328125 C 18.78125 18.472656 18.246094 17.261719 17.246094 17.144531 L 17.085938 17.132812 L 13.683594 17.132812 L 18.386719 8.988281 C 18.6875 8.460938 18.507812 7.789062 17.984375 7.488281 Z M 17.984375 7.488281 "/>
</g>
</svg>
