<?xml version="1.0" encoding="UTF-8"?>
<svg xmlns="http://www.w3.org/2000/svg" xmlns:xlink="http://www.w3.org/1999/xlink" width="32" height="32" viewBox="0 0 32 32" version="1.1">
<g id="surface1">
<path style=" stroke:none;fill-rule:nonzero;fill:rgb(0%,0%,0%);fill-opacity:1;" d="M 16 2.667969 C 23.363281 2.667969 29.332031 8.636719 29.332031 16 C 29.332031 23.363281 23.363281 29.332031 16 29.332031 C 8.636719 29.332031 2.667969 23.363281 2.667969 16 C 2.667969 8.636719 8.636719 2.667969 16 2.667969 Z M 16 5.332031 C 10.109375 5.332031 5.332031 10.109375 5.332031 16 C 5.332031 21.890625 10.109375 26.667969 16 26.667969 C 21.890625 26.667969 26.667969 21.890625 26.667969 16 C 26.667969 10.109375 21.890625 5.332031 16 5.332031 Z M 11.765625 20.457031 L 10.710938 22.285156 C 10.40625 22.808594 9.738281 22.992188 9.210938 22.6875 C 8.683594 22.386719 8.503906 21.714844 8.808594 21.1875 L 9.59375 19.832031 C 10.472656 19.558594 11.191406 19.769531 11.765625 20.457031 Z M 17.613281 11.546875 L 20.84375 17.136719 L 23.699219 17.136719 C 23.988281 17.136719 24.269531 17.253906 24.476562 17.457031 C 24.679688 17.664062 24.796875 17.945312 24.796875 18.234375 C 24.796875 18.527344 24.683594 18.804688 24.476562 19.011719 C 24.269531 19.21875 23.988281 19.332031 23.699219 19.332031 L 22.113281 19.332031 L 23.183594 21.1875 C 23.464844 21.710938 23.28125 22.363281 22.765625 22.660156 C 22.25 22.957031 21.589844 22.789062 21.28125 22.285156 L 17.226562 15.261719 C 16.308594 13.675781 16.960938 12.085938 17.613281 11.546875 Z M 17.984375 7.488281 C 18.511719 7.789062 18.6875 8.460938 18.386719 8.988281 L 13.683594 17.132812 L 17.085938 17.132812 C 18.1875 17.132812 18.808594 18.429688 18.328125 19.328125 L 8.355469 19.328125 C 8.0625 19.328125 7.785156 19.210938 7.578125 19.007812 C 7.371094 18.800781 7.257812 18.519531 7.257812 18.230469 C 7.257812 17.9375 7.375 17.660156 7.578125 17.453125 C 7.785156 17.246094 8.0625 17.132812 8.355469 17.132812 L 11.152344 17.132812 L 14.730469 10.929688 L 13.613281 8.988281 C 13.332031 8.464844 13.515625 7.8125 14.03125 7.515625 C 14.546875 7.21875 15.203125 7.382812 15.515625 7.890625 L 15.996094 8.734375 L 16.484375 7.890625 C 16.628906 7.636719 16.867188 7.453125 17.152344 7.378906 C 17.433594 7.304688 17.730469 7.34375 17.984375 7.488281 Z M 17.984375 7.488281 "/>
</g>
</svg>
