<?xml version="1.0" encoding="UTF-8"?>
<svg xmlns="http://www.w3.org/2000/svg" xmlns:xlink="http://www.w3.org/1999/xlink" width="32" height="32" viewBox="0 0 32 32" version="1.1">
<g id="surface1">
<path style=" stroke:none;fill-rule:nonzero;fill:rgb(0%,0%,0%);fill-opacity:1;" d="M 4 17.332031 L 28 17.332031 L 28 28.003906 C 28 28.738281 27.40625 29.332031 26.675781 29.332031 L 5.324219 29.332031 C 4.972656 29.332031 4.632812 29.191406 4.386719 28.941406 C 4.136719 28.691406 4 28.355469 4 28.003906 Z M 4 3.996094 C 4 3.261719 4.59375 2.667969 5.324219 2.667969 L 26.675781 2.667969 C 27.40625 2.667969 28 3.261719 28 3.996094 L 28 14.667969 L 4 14.667969 Z M 12 6.667969 L 12 9.332031 L 20 9.332031 L 20 6.667969 Z M 12 21.332031 L 12 24 L 20 24 L 20 21.332031 Z M 12 21.332031 "/>
</g>
</svg>
