<?xml version="1.0" encoding="UTF-8"?>
<svg xmlns="http://www.w3.org/2000/svg" xmlns:xlink="http://www.w3.org/1999/xlink" width="32" height="32" viewBox="0 0 32 32" version="1.1">
<g id="surface1">
<path style=" stroke:none;fill-rule:nonzero;fill:rgb(0%,0%,0%);fill-opacity:1;" d="M 23.863281 8.367188 C 22.417969 8.378906 20.976562 8.777344 19.714844 9.628906 C 18.105469 10.65625 16.976562 12.03125 16.023438 13.433594 C 14.558594 11.328125 12.621094 9.328125 9.789062 8.660156 L 9.785156 8.660156 L 9.777344 8.65625 C 9.113281 8.507812 8.453125 8.449219 7.8125 8.449219 C 2.570312 8.101562 -1.570312 13.957031 0.582031 18.78125 C 2.667969 23.914062 10.054688 25.242188 13.785156 21.128906 C 14.632812 20.289062 15.320312 19.367188 15.9375 18.4375 C 17.363281 20.714844 19.472656 22.707031 22.320312 23.355469 C 27.445312 24.851562 32.761719 20.027344 31.910156 14.789062 C 31.292969 10.867188 27.574219 8.339844 23.863281 8.367188 Z M 7.398438 11.050781 C 7.496094 11.050781 7.59375 11.054688 7.691406 11.0625 L 7.746094 11.066406 L 7.796875 11.066406 C 8.289062 11.066406 8.757812 11.109375 9.195312 11.207031 C 11.425781 11.734375 13.097656 13.664062 14.480469 15.855469 C 13.671875 17.152344 12.878906 18.355469 11.914062 19.300781 L 11.882812 19.332031 L 11.855469 19.363281 C 9.542969 21.933594 4.285156 20.984375 2.996094 17.78125 L 2.988281 17.753906 L 2.976562 17.730469 C 1.71875 14.945312 4.382812 11.0625 7.398438 11.050781 Z M 23.542969 11.058594 C 26.105469 10.957031 28.929688 12.671875 29.324219 15.199219 L 29.324219 15.203125 L 29.328125 15.207031 C 29.847656 18.398438 26.121094 21.78125 23.003906 20.835938 L 22.960938 20.820312 L 22.914062 20.8125 C 20.558594 20.277344 18.683594 18.242188 17.527344 15.910156 C 18.585938 14.230469 19.640625 12.777344 21.136719 11.824219 L 21.167969 11.800781 C 21.863281 11.328125 22.6875 11.09375 23.542969 11.058594 Z M 23.542969 11.058594 "/>
<path style=" stroke:none;fill-rule:nonzero;fill:rgb(0%,0%,0%);fill-opacity:1;" d="M 5.3125 15.445312 L 5.3125 16.554688 L 10.632812 16.554688 L 10.632812 15.445312 Z M 5.3125 15.445312 "/>
<path style=" stroke:none;fill-rule:nonzero;fill:rgb(0%,0%,0%);fill-opacity:1;" d="M 23.089844 13.785156 L 23.089844 15.289062 L 21.628906 15.289062 L 21.628906 16.710938 L 23.089844 16.710938 L 23.089844 18.214844 L 24.507812 18.214844 L 24.507812 16.710938 L 26.0625 16.710938 L 26.0625 15.289062 L 24.507812 15.289062 L 24.507812 13.785156 Z M 23.089844 13.785156 "/>
</g>
</svg>
