<?xml version="1.0" encoding="UTF-8"?>
<svg xmlns="http://www.w3.org/2000/svg" xmlns:xlink="http://www.w3.org/1999/xlink" width="32" height="32" viewBox="0 0 32 32" version="1.1">
<defs>
<filter id="alpha" filterUnits="objectBoundingBox" x="0%" y="0%" width="100%" height="100%">
  <feColorMatrix type="matrix" in="SourceGraphic" values="0 0 0 0 1 0 0 0 0 1 0 0 0 0 1 0 0 0 1 0"/>
</filter>
<mask id="mask0">
  <g filter="url(#alpha)">
<rect x="0" y="0" width="32" height="32" style="fill:rgb(0%,0%,0%);fill-opacity:0.992157;stroke:none;"/>
  </g>
</mask>
<clipPath id="clip1">
  <rect x="0" y="0" width="32" height="32"/>
</clipPath>
<g id="surface5" clip-path="url(#clip1)">
<path style=" stroke:none;fill-rule:evenodd;fill:rgb(0%,0%,0%);fill-opacity:1;" d="M 0 4 L 0 28 L 4 28 L 4 20.003906 L 13.996094 20.003906 L 13.996094 28 L 30 28 L 30 26 L 20.003906 26 L 20.003906 16.003906 L 30 16.003906 L 30 13.996094 L 21.996094 13.996094 L 21.996094 5.992188 L 30 5.992188 L 30 4 Z M 2 6 L 20 6 L 20 8 L 2 8 Z M 24 8 L 24 12 L 32 12 L 32 8 Z M 4 12 L 8 12 L 8 16 L 4 16 Z M 22 18 L 22 24 L 32 24 L 32 18 Z M 6 22 L 6 30 L 12 30 L 12 22 Z M 6 22 "/>
</g>
</defs>
<g id="surface1">
<use xlink:href="#surface5" mask="url(#mask0)"/>
</g>
</svg>
