<?xml version="1.0" encoding="UTF-8"?>
<svg xmlns="http://www.w3.org/2000/svg" xmlns:xlink="http://www.w3.org/1999/xlink" width="32" height="32" viewBox="0 0 32 32" version="1.1">
<g id="surface1">
<path style=" stroke:none;fill-rule:evenodd;fill:rgb(0%,0%,0%);fill-opacity:1;" d="M 8 2 C 5.785156 2 4 3.785156 4 6 L 4 13.996094 C 7.140625 13.996094 10.003906 16.847656 10.011719 19.988281 L 21.996094 19.988281 C 22.003906 16.851562 24.863281 14 28 13.996094 L 28 6 C 28 3.785156 26.214844 2 24 2 Z M 8 2 "/>
<path style=" stroke:none;fill-rule:nonzero;fill:rgb(0%,0%,0%);fill-opacity:1;" d="M 4 16.003906 C 1.789062 16.003906 0 17.792969 0 20.003906 L 0 32 L 32 32 L 32 30 L 31.992188 30 L 31.992188 20.003906 C 31.992188 17.800781 30.210938 16.011719 28.007812 16.003906 C 25.796875 16.003906 24.007812 17.792969 24.007812 20.003906 L 24.007812 21.996094 L 8.003906 21.996094 L 8.003906 20.003906 C 8.003906 17.792969 6.210938 16 4 16.003906 Z M 4 16.003906 "/>
</g>
</svg>
