<?xml version="1.0" encoding="UTF-8"?>
<svg xmlns="http://www.w3.org/2000/svg" xmlns:xlink="http://www.w3.org/1999/xlink" width="32" height="32" viewBox="0 0 32 32" version="1.1">
<g id="surface1">
<path style=" stroke:none;fill-rule:nonzero;fill:rgb(0%,0%,0%);fill-opacity:1;" d="M 11.449219 22.667969 L 4 22.667969 L 4 20 L 28 20 L 28 22.667969 L 20.550781 22.667969 L 24.875 26.992188 L 22.992188 28.875 L 17.332031 23.21875 L 17.332031 26.667969 L 14.667969 26.667969 L 14.667969 23.21875 L 9.007812 28.875 L 7.125 26.992188 Z M 6.667969 4 L 25.332031 4 C 26.070312 4 26.667969 4.597656 26.667969 5.332031 L 26.667969 18.667969 L 5.332031 18.667969 L 5.332031 5.332031 C 5.332031 4.597656 5.929688 4 6.667969 4 Z M 8 6.667969 L 8 16 L 24 16 L 24 6.667969 Z M 8 6.667969 "/>
</g>
</svg>
