<?xml version="1.0" encoding="UTF-8"?>
<svg xmlns="http://www.w3.org/2000/svg" xmlns:xlink="http://www.w3.org/1999/xlink" width="32" height="32" viewBox="0 0 32 32" version="1.1">
<g id="surface1">
<path style=" stroke:none;fill-rule:nonzero;fill:rgb(0%,0%,0%);fill-opacity:1;" d="M 26.667969 16 C 26.667969 11.109375 23.339844 6.84375 18.59375 5.65625 C 13.847656 4.464844 8.902344 6.65625 6.59375 10.96875 C 4.289062 15.28125 5.207031 20.613281 8.832031 23.898438 C 12.453125 27.1875 17.847656 27.589844 21.917969 24.875 L 23.398438 27.09375 C 21.207031 28.558594 18.632812 29.335938 16 29.332031 C 8.636719 29.332031 2.667969 23.363281 2.667969 16 C 2.667969 8.636719 8.636719 2.667969 16 2.667969 C 23.363281 2.667969 29.332031 8.636719 29.332031 16 L 29.332031 18 C 29.332031 20.050781 27.996094 21.859375 26.039062 22.460938 C 24.078125 23.0625 21.957031 22.316406 20.804688 20.621094 C 18.328125 23.199219 14.253906 23.363281 11.578125 20.988281 C 8.902344 18.617188 8.574219 14.558594 10.835938 11.785156 C 13.09375 9.015625 17.140625 8.519531 20 10.667969 L 22.667969 10.667969 L 22.667969 18 C 22.667969 19.105469 23.5625 20 24.667969 20 C 25.769531 20 26.667969 19.105469 26.667969 18 Z M 16 12 C 13.789062 12 12 13.789062 12 16 C 12 18.210938 13.789062 20 16 20 C 18.210938 20 20 18.210938 20 16 C 20 13.789062 18.210938 12 16 12 Z M 16 12 "/>
</g>
</svg>
