<?xml version="1.0" encoding="UTF-8"?>
<svg xmlns="http://www.w3.org/2000/svg" xmlns:xlink="http://www.w3.org/1999/xlink" width="32" height="32" viewBox="0 0 32 32" version="1.1">
<g id="surface1">
<path style=" stroke:none;fill-rule:nonzero;fill:rgb(0%,0%,0%);fill-opacity:1;" d="M 16.28125 1.59375 C 14.292969 1.59375 12.425781 1.964844 10.671875 2.703125 C 8.925781 3.4375 7.40625 4.457031 6.125 5.746094 C 4.847656 7.035156 3.832031 8.546875 3.097656 10.304688 C 2.359375 12.058594 1.992188 13.964844 1.992188 15.992188 C 1.992188 18.125 2.347656 20.078125 3.054688 21.851562 C 3.757812 23.621094 4.753906 25.160156 6.023438 26.429688 C 7.285156 27.691406 8.789062 28.660156 10.539062 29.351562 C 12.292969 30.058594 14.1875 30.414062 16.222656 30.414062 C 17.183594 30.414062 18.121094 30.367188 19.027344 30.28125 C 19.945312 30.203125 20.945312 30.050781 21.996094 29.824219 L 22.320312 29.75 L 22.320312 26.605469 L 21.789062 26.753906 C 20.914062 27.003906 19.992188 27.1875 19.027344 27.300781 C 18.070312 27.417969 17.140625 27.476562 16.238281 27.476562 C 14.605469 27.476562 13.105469 27.199219 11.734375 26.664062 C 10.363281 26.140625 9.183594 25.355469 8.164062 24.316406 C 7.1875 23.320312 6.429688 22.136719 5.890625 20.730469 C 5.355469 19.316406 5.078125 17.742188 5.078125 16.019531 C 5.078125 14.421875 5.359375 12.921875 5.917969 11.515625 C 6.488281 10.09375 7.261719 8.894531 8.25 7.886719 C 9.226562 6.878906 10.398438 6.078125 11.765625 5.476562 C 13.132812 4.878906 14.652344 4.578125 16.3125 4.578125 C 18.035156 4.578125 19.554688 4.839844 20.890625 5.375 L 20.890625 5.390625 C 22.230469 5.914062 23.339844 6.652344 24.238281 7.632812 C 25.140625 8.617188 25.8125 9.789062 26.277344 11.175781 C 26.753906 12.558594 27 14.113281 27 15.828125 C 27 16.746094 26.878906 17.800781 26.648438 18.988281 L 26.648438 19.003906 C 26.445312 20.085938 26.140625 20.933594 25.761719 21.660156 L 22.558594 21.660156 L 22.558594 8.152344 L 19.175781 8.152344 L 19.175781 8.726562 C 18.695312 8.511719 18.210938 8.277344 17.773438 8.152344 L 17.757812 8.152344 C 17.113281 7.957031 16.398438 7.871094 15.589844 7.871094 C 13.652344 7.871094 11.949219 8.644531 10.570312 10.160156 C 9.175781 11.6875 8.488281 13.753906 8.488281 16.257812 C 8.488281 18.757812 9.027344 20.753906 10.171875 22.207031 C 11.320312 23.652344 12.902344 24.390625 14.804688 24.390625 C 15.796875 24.390625 16.703125 24.214844 17.492188 23.84375 C 18.085938 23.5625 18.703125 23.109375 19.324219 22.648438 L 19.707031 24.257812 L 27.296875 24.257812 L 27.429688 24.09375 C 28.257812 22.914062 28.878906 21.597656 29.320312 20.167969 C 29.773438 18.738281 29.996094 17.265625 29.996094 15.738281 C 29.996094 13.632812 29.695312 11.710938 29.066406 9.980469 C 28.449219 8.242188 27.554688 6.75 26.378906 5.507812 C 25.203125 4.265625 23.75 3.296875 22.054688 2.613281 C 20.351562 1.925781 18.421875 1.59375 16.28125 1.59375 Z M 16.03125 11.058594 C 16.609375 11.058594 17.140625 11.121094 17.640625 11.25 L 17.65625 11.25 C 18.085938 11.351562 18.605469 11.5625 19.148438 11.796875 L 19.148438 19.605469 C 18.625 19.988281 18.0625 20.332031 17.433594 20.625 C 16.765625 20.933594 16.109375 21.082031 15.457031 21.082031 C 14.234375 21.082031 13.429688 20.710938 12.886719 19.933594 C 12.335938 19.136719 12.03125 17.890625 12.03125 16.195312 C 12.03125 14.480469 12.40625 13.226562 13.109375 12.359375 C 13.816406 11.488281 14.746094 11.058594 16.03125 11.058594 Z M 16.03125 11.058594 "/>
</g>
</svg>
