<?xml version="1.0" encoding="UTF-8"?>
<svg xmlns="http://www.w3.org/2000/svg" xmlns:xlink="http://www.w3.org/1999/xlink" width="32" height="32" viewBox="0 0 32 32" version="1.1">
<g id="surface1">
<path style=" stroke:none;fill-rule:nonzero;fill:rgb(0%,0%,0%);fill-opacity:1;" d="M 19.769531 10.34375 L 12.230469 17.886719 C 11.882812 18.21875 11.742188 18.714844 11.867188 19.183594 C 11.988281 19.648438 12.351562 20.011719 12.816406 20.132812 C 13.285156 20.257812 13.78125 20.117188 14.113281 19.769531 L 21.65625 12.230469 C 23.21875 10.667969 23.21875 8.132812 21.65625 6.570312 C 20.09375 5.011719 17.5625 5.011719 16 6.570312 L 8.457031 14.113281 C 6.738281 15.792969 6.054688 18.265625 6.664062 20.585938 C 7.277344 22.910156 9.089844 24.722656 11.414062 25.335938 C 13.738281 25.945312 16.207031 25.261719 17.886719 23.542969 L 25.429688 16 L 27.3125 17.886719 L 19.769531 25.429688 C 16.125 29.074219 10.214844 29.074219 6.570312 25.429688 C 2.925781 21.78125 2.925781 15.875 6.570312 12.226562 L 14.113281 4.6875 C 16.730469 2.160156 20.886719 2.195312 23.460938 4.769531 C 26.03125 7.339844 26.066406 11.496094 23.542969 14.113281 L 16 21.660156 C 14.4375 23.222656 11.902344 23.21875 10.34375 21.65625 C 8.78125 20.09375 8.78125 17.5625 10.34375 16 L 17.886719 8.457031 Z M 19.769531 10.34375 "/>
</g>
</svg>
