<?xml version="1.0" encoding="UTF-8"?>
<svg xmlns="http://www.w3.org/2000/svg" xmlns:xlink="http://www.w3.org/1999/xlink" width="32" height="32" viewBox="0 0 32 32" version="1.1">
<g id="surface1">
<path style=" stroke:none;fill-rule:nonzero;fill:rgb(0%,0%,0%);fill-opacity:1;" d="M 22.667969 20.328125 L 22.667969 29.488281 C 22.667969 29.730469 22.539062 29.949219 22.328125 30.070312 C 22.121094 30.1875 21.863281 30.183594 21.65625 30.0625 L 16 26.667969 L 10.34375 30.0625 C 10.136719 30.183594 9.878906 30.1875 9.671875 30.070312 C 9.460938 29.949219 9.332031 29.726562 9.332031 29.488281 L 9.332031 20.328125 C 5.796875 17.496094 4.433594 12.742188 5.933594 8.46875 C 7.433594 4.195312 11.472656 1.335938 16 1.335938 C 20.527344 1.335938 24.566406 4.195312 26.066406 8.46875 C 27.566406 12.742188 26.203125 17.496094 22.667969 20.328125 Z M 12 21.890625 L 12 25.957031 L 16 23.558594 L 20 25.957031 L 20 21.890625 C 18.730469 22.40625 17.371094 22.667969 16 22.667969 C 14.628906 22.667969 13.269531 22.40625 12 21.890625 Z M 16 20 C 20.417969 20 24 16.417969 24 12 C 24 7.582031 20.417969 4 16 4 C 11.582031 4 8 7.582031 8 12 C 8 16.417969 11.582031 20 16 20 Z M 16 20 "/>
</g>
</svg>
