<?xml version="1.0" encoding="UTF-8"?>
<svg xmlns="http://www.w3.org/2000/svg" xmlns:xlink="http://www.w3.org/1999/xlink" width="32" height="32" viewBox="0 0 32 32" version="1.1">
<g id="surface1">
<path style=" stroke:none;fill-rule:nonzero;fill:rgb(0%,0%,0%);fill-opacity:1;" d="M 18.902344 1 C 17.769531 3.273438 16.628906 5.546875 15.492188 7.820312 L 17.960938 7.820312 L 17.960938 11.367188 L 13.25 11.367188 C 12.726562 11.367188 12.304688 11.789062 12.304688 12.308594 L 12.304688 17.019531 L 6.875 17.019531 L 6.875 14.554688 L 0.0546875 17.960938 C 2.328125 19.097656 4.605469 20.234375 6.875 21.371094 L 6.875 18.90625 L 12.304688 18.90625 L 12.304688 19.847656 C 12.304688 20.097656 12.40625 20.335938 12.582031 20.511719 L 16.351562 24.28125 C 16.527344 24.457031 16.769531 24.558594 17.015625 24.558594 L 24.164062 24.558594 L 26.457031 26.847656 L 24.707031 28.59375 L 31.945312 31 C 31.136719 28.589844 30.332031 26.179688 29.527344 23.769531 L 27.789062 25.515625 L 25.5 23.226562 L 25.5 16.101562 C 25.503906 15.84375 25.40625 15.59375 25.222656 15.410156 L 21.453125 11.640625 C 21.277344 11.464844 21.035156 11.367188 20.789062 11.367188 L 19.84375 11.367188 L 19.84375 7.820312 L 22.3125 7.820312 Z M 15.523438 13.25 L 17.960938 13.25 L 17.960938 13.441406 C 17.960938 13.960938 18.382812 14.382812 18.902344 14.382812 C 19.421875 14.382812 19.84375 13.960938 19.84375 13.441406 L 19.84375 13.25 L 20.398438 13.25 L 22.28125 15.136719 L 17.40625 15.136719 Z M 14.191406 14.582031 L 16.074219 16.46875 L 16.074219 21.339844 L 14.191406 19.457031 L 14.191406 18.90625 L 14.382812 18.90625 C 14.902344 18.90625 15.324219 18.484375 15.324219 17.960938 C 15.324219 17.441406 14.902344 17.019531 14.382812 17.019531 L 14.191406 17.019531 Z M 17.960938 17.019531 L 23.613281 17.019531 L 23.613281 21.339844 L 21.453125 19.179688 C 21.277344 19.003906 21.042969 18.90625 20.792969 18.90625 C 20.542969 18.902344 20.300781 19 20.121094 19.179688 C 19.753906 19.546875 19.753906 20.144531 20.121094 20.511719 L 22.28125 22.671875 L 17.960938 22.671875 Z M 17.960938 17.019531 "/>
</g>
</svg>
