<?xml version="1.0" encoding="UTF-8"?>
<svg xmlns="http://www.w3.org/2000/svg" xmlns:xlink="http://www.w3.org/1999/xlink" width="32" height="32" viewBox="0 0 32 32" version="1.1">
<g id="surface1">
<path style=" stroke:none;fill-rule:nonzero;fill:rgb(0%,0%,0%);fill-opacity:1;" d="M 2.667969 5.332031 L 5.332031 5.332031 L 5.332031 26.667969 L 2.667969 26.667969 Z M 8 5.332031 L 9.332031 5.332031 L 9.332031 26.667969 L 8 26.667969 Z M 10.667969 5.332031 L 13.332031 5.332031 L 13.332031 26.667969 L 10.667969 26.667969 Z M 14.667969 5.332031 L 17.332031 5.332031 L 17.332031 26.667969 L 14.667969 26.667969 Z M 18.667969 5.332031 L 21.332031 5.332031 L 21.332031 26.667969 L 18.667969 26.667969 Z M 22.667969 5.332031 L 24 5.332031 L 24 26.667969 L 22.667969 26.667969 Z M 25.332031 5.332031 L 29.332031 5.332031 L 29.332031 26.667969 L 25.332031 26.667969 Z M 25.332031 5.332031 "/>
</g>
</svg>
