<?xml version="1.0" encoding="UTF-8"?>
<svg xmlns="http://www.w3.org/2000/svg" xmlns:xlink="http://www.w3.org/1999/xlink" width="32" height="32" viewBox="0 0 32 32" version="1.1">
<g id="surface1">
<path style=" stroke:none;fill-rule:nonzero;fill:rgb(0%,0%,0%);fill-opacity:1;" d="M 4 4 L 28 4 C 28.738281 4 29.332031 4.597656 29.332031 5.332031 L 29.332031 26.667969 C 29.332031 27.402344 28.738281 28 28 28 L 4 28 C 3.261719 28 2.667969 27.402344 2.667969 26.667969 L 2.667969 5.332031 C 2.667969 4.597656 3.261719 4 4 4 Z M 8 9.332031 L 8 22.667969 L 12 22.667969 L 12 9.332031 Z M 13.332031 9.332031 L 13.332031 22.667969 L 16 22.667969 L 16 9.332031 Z M 17.332031 9.332031 L 17.332031 22.667969 L 18.667969 22.667969 L 18.667969 9.332031 Z M 20 9.332031 L 20 22.667969 L 24 22.667969 L 24 9.332031 Z M 20 9.332031 "/>
</g>
</svg>
