<?xml version="1.0" encoding="UTF-8"?>
<svg xmlns="http://www.w3.org/2000/svg" xmlns:xlink="http://www.w3.org/1999/xlink" width="32" height="32" viewBox="0 0 32 32" version="1.1">
<g id="surface1">
<path style=" stroke:none;fill-rule:nonzero;fill:rgb(0%,0%,0%);fill-opacity:1;" d="M 16 2.667969 C 23.363281 2.667969 29.332031 8.636719 29.332031 16 C 29.332031 23.363281 23.363281 29.332031 16 29.332031 C 8.636719 29.332031 2.667969 23.363281 2.667969 16 C 2.667969 8.636719 8.636719 2.667969 16 2.667969 Z M 16.488281 17.820312 L 11.863281 25.835938 C 13.738281 26.621094 15.800781 26.855469 17.808594 26.515625 C 17.453125 24.023438 17.816406 21.480469 18.851562 19.1875 Z M 21.179688 20.53125 C 20.488281 22.167969 20.21875 23.953125 20.394531 25.722656 C 22.015625 24.988281 23.425781 23.863281 24.5 22.445312 Z M 11.8125 15.121094 C 10.34375 17.167969 8.328125 18.753906 5.992188 19.691406 C 6.695312 21.601562 7.933594 23.269531 9.554688 24.5 L 14.179688 16.488281 Z M 26.617188 14.949219 L 26.273438 15.109375 C 24.792969 15.839844 23.507812 16.90625 22.511719 18.21875 L 25.835938 20.136719 C 26.523438 18.5 26.792969 16.714844 26.617188 14.949219 Z M 5.332031 16 C 5.332031 16.355469 5.351562 16.707031 5.382812 17.050781 C 7.003906 16.324219 8.414062 15.199219 9.488281 13.78125 L 6.164062 11.863281 C 5.613281 13.171875 5.332031 14.578125 5.332031 16 Z M 22.445312 7.5 L 17.820312 15.511719 L 20.1875 16.878906 C 21.65625 14.832031 23.675781 13.246094 26.007812 12.304688 C 25.355469 10.535156 24.242188 8.96875 22.785156 7.769531 Z M 16 5.332031 C 15.382812 5.332031 14.777344 5.386719 14.191406 5.488281 C 14.546875 7.976562 14.183594 10.519531 13.144531 12.8125 L 15.511719 14.179688 L 20.136719 6.164062 C 18.828125 5.613281 17.421875 5.332031 16 5.332031 Z M 11.605469 6.28125 L 11.347656 6.398438 C 9.835938 7.132812 8.519531 8.214844 7.5 9.554688 L 10.820312 11.46875 C 11.511719 9.832031 11.78125 8.046875 11.605469 6.28125 Z M 11.605469 6.28125 "/>
</g>
</svg>
