<?xml version="1.0" encoding="UTF-8"?>
<svg xmlns="http://www.w3.org/2000/svg" xmlns:xlink="http://www.w3.org/1999/xlink" width="32" height="32" viewBox="0 0 32 32" version="1.1">
<g id="surface1">
<path style=" stroke:none;fill-rule:nonzero;fill:rgb(0%,0%,0%);fill-opacity:1;" d="M 17.886719 14.113281 L 18.523438 14.761719 L 19.144531 15.410156 L 19.757812 16.066406 C 24.367188 21.085938 27.054688 25.6875 25.898438 26.84375 C 25.367188 27.375 24.09375 27.089844 22.378906 26.167969 C 18.058594 28.875 12.496094 28.558594 8.507812 25.378906 L 12.484375 21.402344 C 13.628906 21.710938 14.839844 21.222656 15.453125 20.207031 C 16.066406 19.191406 15.9375 17.890625 15.128906 17.019531 C 14.324219 16.144531 13.039062 15.910156 11.976562 16.445312 C 10.917969 16.976562 10.332031 18.144531 10.550781 19.3125 L 10.597656 19.519531 L 6.625 23.492188 C 3.441406 19.503906 3.125 13.941406 5.835938 9.617188 C 4.910156 7.90625 4.625 6.632812 5.15625 6.101562 C 6.460938 4.796875 12.15625 8.386719 17.886719 14.113281 Z M 26.371094 5.628906 C 26.90625 6.164062 27.191406 6.90625 27.148438 7.664062 C 27.105469 8.417969 26.746094 9.125 26.152344 9.597656 C 28.289062 12.992188 28.59375 17.226562 26.960938 20.890625 C 25.375 18.285156 22.867188 15.324219 19.769531 12.230469 L 19.054688 11.519531 C 16.21875 8.746094 13.511719 6.5 11.109375 5.039062 C 14.773438 3.410156 19.011719 3.710938 22.40625 5.847656 C 22.878906 5.257812 23.582031 4.894531 24.339844 4.855469 C 25.09375 4.8125 25.835938 5.09375 26.371094 5.628906 Z M 26.371094 5.628906 "/>
</g>
</svg>
