<?xml version="1.0" encoding="UTF-8"?>
<svg xmlns="http://www.w3.org/2000/svg" xmlns:xlink="http://www.w3.org/1999/xlink" width="32" height="32" viewBox="0 0 32 32" version="1.1">
<g id="surface1">
<path style=" stroke:none;fill-rule:evenodd;fill:rgb(0%,0%,0%);fill-opacity:1;" d="M 22.753906 0.945312 C 22.757812 0.886719 22.765625 0.824219 22.78125 0.765625 C 22.84375 0.507812 23.003906 0.285156 23.230469 0.148438 C 23.457031 0.0078125 23.730469 -0.0351562 23.988281 0.0273438 C 26.050781 0.523438 27.832031 1.8125 28.9375 3.625 C 30.042969 5.433594 30.386719 7.605469 29.886719 9.667969 C 29.757812 10.199219 29.230469 10.527344 28.695312 10.410156 C 28.4375 10.347656 28.214844 10.183594 28.078125 9.957031 C 27.9375 9.730469 27.894531 9.460938 27.957031 9.203125 C 28.328125 7.652344 28.066406 6.027344 27.234375 4.671875 C 26.40625 3.3125 25.066406 2.347656 23.519531 1.972656 C 23.050781 1.863281 22.726562 1.429688 22.753906 0.945312 Z M 22.753906 0.945312 "/>
<path style=" stroke:none;fill-rule:evenodd;fill:rgb(0%,0%,0%);fill-opacity:1;" d="M 9.246094 0.945312 C 9.242188 0.886719 9.234375 0.824219 9.21875 0.765625 C 9.15625 0.507812 8.996094 0.285156 8.769531 0.148438 C 8.542969 0.0078125 8.269531 -0.0351562 8.011719 0.0273438 C 5.949219 0.523438 4.167969 1.8125 3.0625 3.625 C 1.957031 5.433594 1.613281 7.605469 2.113281 9.667969 C 2.242188 10.199219 2.769531 10.527344 3.304688 10.410156 C 3.5625 10.347656 3.785156 10.183594 3.921875 9.957031 C 4.0625 9.730469 4.105469 9.460938 4.042969 9.203125 C 3.671875 7.652344 3.933594 6.027344 4.765625 4.671875 C 5.59375 3.3125 6.933594 2.347656 8.480469 1.972656 C 8.949219 1.863281 9.273438 1.429688 9.246094 0.945312 Z M 9.246094 0.945312 "/>
<path style=" stroke:none;fill-rule:nonzero;fill:rgb(0%,0%,0%);fill-opacity:1;" d="M 16 0 C 14.621094 0 13.5 1.117188 13.5 2.5 C 13.5 2.753906 13.539062 3.007812 13.617188 3.253906 C 10.042969 3.945312 7 6.195312 7 10.058594 C 7 10.171875 7 10.28125 7 10.390625 C 7.015625 19.453125 7 20.351562 7 20.351562 L 3 26 L 29 26 L 25 20.351562 L 25 10.058594 C 25 6.195312 21.957031 3.945312 18.382812 3.253906 C 18.460938 3.007812 18.5 2.753906 18.5 2.5 C 18.5 1.117188 17.378906 0 16 0 Z M 12 28 C 12 29.429688 12.761719 30.75 14 31.464844 C 15.238281 32.179688 16.761719 32.179688 18 31.464844 C 19.238281 30.75 20 29.429688 20 28 Z M 12 28 "/>
</g>
</svg>
