<?xml version="1.0" encoding="UTF-8"?>
<svg xmlns="http://www.w3.org/2000/svg" xmlns:xlink="http://www.w3.org/1999/xlink" width="32" height="32" viewBox="0 0 32 32" version="1.1">
<g id="surface1">
<path style=" stroke:none;fill-rule:nonzero;fill:rgb(0%,0%,0%);fill-opacity:1;" d="M 16 0 C 14.621094 0 13.5 1.117188 13.5 2.5 C 13.5 2.753906 13.539062 3.007812 13.617188 3.253906 C 10.042969 3.945312 7 6.195312 7 10.058594 C 7 10.171875 7 10.28125 7 10.390625 C 7.015625 19.453125 7 20.351562 7 20.351562 L 3 26 L 29 26 L 25 20.351562 L 25 10.058594 C 25 6.195312 21.957031 3.945312 18.382812 3.253906 C 18.460938 3.007812 18.5 2.753906 18.5 2.5 C 18.5 1.117188 17.378906 0 16 0 Z M 12 28 C 12 29.429688 12.761719 30.75 14 31.464844 C 15.238281 32.179688 16.761719 32.179688 18 31.464844 C 19.238281 30.75 20 29.429688 20 28 Z M 12 28 "/>
</g>
</svg>
