<?xml version="1.0" encoding="UTF-8"?>
<svg xmlns="http://www.w3.org/2000/svg" xmlns:xlink="http://www.w3.org/1999/xlink" width="32" height="32" viewBox="0 0 32 32" version="1.1">
<g id="surface1">
<path style=" stroke:none;fill-rule:nonzero;fill:rgb(0%,0%,0%);fill-opacity:1;" d="M 16 2.667969 C 23.363281 2.667969 29.332031 8.636719 29.332031 16 C 29.332031 23.363281 23.363281 29.332031 16 29.332031 C 8.636719 29.332031 2.667969 23.363281 2.667969 16 C 2.667969 8.636719 8.636719 2.667969 16 2.667969 Z M 16 8 C 11.582031 8 8 11.582031 8 16 C 8 20.417969 11.582031 24 16 24 C 20.417969 24 24 20.417969 24 16 C 24 11.582031 20.417969 8 16 8 Z M 16 10.332031 C 17.308594 10.332031 18.496094 11.097656 19.035156 12.289062 C 19.578125 13.484375 19.371094 14.878906 18.507812 15.863281 C 19.261719 16.472656 19.734375 17.351562 19.734375 18.332031 C 19.734375 20.171875 18.0625 21.667969 16 21.667969 C 13.9375 21.667969 12.265625 20.171875 12.265625 18.332031 C 12.265625 17.351562 12.738281 16.472656 13.492188 15.863281 C 12.632812 14.878906 12.425781 13.480469 12.964844 12.289062 C 13.503906 11.097656 14.691406 10.332031 16 10.332031 Z M 16 17 C 14.996094 17 14.265625 17.652344 14.265625 18.332031 C 14.265625 19.015625 14.996094 19.667969 16 19.667969 C 17.003906 19.667969 17.734375 19.015625 17.734375 18.332031 C 17.734375 17.652344 17.003906 17 16 17 Z M 16 12.332031 C 15.261719 12.332031 14.667969 12.929688 14.667969 13.667969 C 14.667969 14.402344 15.261719 15 16 15 C 16.738281 15 17.332031 14.402344 17.332031 13.667969 C 17.332031 12.929688 16.738281 12.332031 16 12.332031 Z M 16 12.332031 "/>
</g>
</svg>
