<?xml version="1.0" encoding="UTF-8"?>
<svg xmlns="http://www.w3.org/2000/svg" xmlns:xlink="http://www.w3.org/1999/xlink" width="32" height="32" viewBox="0 0 32 32" version="1.1">
<g id="surface1">
<path style=" stroke:none;fill-rule:nonzero;fill:rgb(0%,0%,0%);fill-opacity:1;" d="M 25.332031 12 C 26.222656 13.414062 26.667969 15.191406 26.667969 17.332031 C 26.667969 21.332031 22 22.667969 20 29.332031 C 19.109375 28.566406 18.667969 27.457031 18.667969 26 C 18.667969 21.355469 25.332031 18.945312 25.332031 12 Z M 19.332031 6.667969 C 20.21875 8.304688 20.675781 10.136719 20.667969 12 C 20.667969 18.667969 12.667969 20 15.332031 29.332031 C 13.109375 27.785156 12 25.5625 12 22.667969 C 12 18.234375 19.332031 14.667969 19.332031 6.667969 Z M 13.332031 1.332031 C 14.222656 3.109375 14.667969 5.109375 14.667969 7.332031 C 14.667969 15.332031 2.667969 17.332031 10.667969 29.332031 C 7.332031 28.667969 4.667969 25.332031 4.667969 21.332031 C 4.667969 12.667969 13.332031 11.332031 13.332031 1.332031 Z M 13.332031 1.332031 "/>
</g>
</svg>
