<?xml version="1.0" encoding="UTF-8"?>
<svg xmlns="http://www.w3.org/2000/svg" xmlns:xlink="http://www.w3.org/1999/xlink" width="32" height="32" viewBox="0 0 32 32" version="1.1">
<g id="surface1">
<path style=" stroke:none;fill-rule:evenodd;fill:rgb(0%,0%,0%);fill-opacity:1;" d="M 16.007812 -0.0195312 C 13.253906 -0.0234375 10.492188 0.683594 8.046875 2.140625 C 1.414062 5.804688 -1.707031 14.152344 0.902344 21.261719 C 3.277344 28.460938 10.921875 33.070312 18.394531 31.816406 C 26.113281 30.785156 32.117188 23.773438 31.976562 15.988281 C 31.984375 12.210938 30.625 8.511719 28.167969 5.640625 C 25.757812 2.714844 22.367188 0.851562 18.75 0.222656 C 17.84375 0.0664062 16.925781 -0.0195312 16.007812 -0.0195312 Z M 15.984375 4.03125 C 16.675781 4.039062 17.371094 4.101562 18.054688 4.222656 C 20.792969 4.699219 23.371094 6.074219 25.113281 8.195312 L 25.128906 8.207031 L 25.144531 8.222656 C 26.96875 10.351562 28.015625 13.183594 28.007812 15.988281 L 28.007812 16.035156 C 28.050781 18.246094 27.339844 20.421875 26.136719 22.304688 C 22.59375 19.085938 12.980469 10.257812 9.363281 6 C 9.570312 5.867188 9.777344 5.730469 9.996094 5.609375 L 10.039062 5.59375 L 10.070312 5.566406 C 11.835938 4.507812 13.90625 4.011719 15.984375 4.03125 Z M 5.789062 9.789062 L 22.210938 26.210938 C 20.875 27.054688 19.398438 27.65625 17.835938 27.859375 L 17.789062 27.859375 L 17.746094 27.875 C 12.335938 28.792969 6.382812 25.195312 4.679688 19.976562 L 4.664062 19.945312 L 4.652344 19.917969 C 3.445312 16.644531 3.996094 12.820312 5.789062 9.789062 Z M 5.789062 9.789062 "/>
</g>
</svg>
