<?xml version="1.0" encoding="UTF-8"?>
<svg xmlns="http://www.w3.org/2000/svg" xmlns:xlink="http://www.w3.org/1999/xlink" width="32" height="32" viewBox="0 0 32 32" version="1.1">
<g id="surface1">
<path style=" stroke:none;fill-rule:nonzero;fill:rgb(0%,0%,0%);fill-opacity:1;" d="M 6.667969 2.667969 L 25.332031 2.667969 C 26.070312 2.667969 26.667969 3.261719 26.667969 4 L 26.667969 29.523438 C 26.667969 29.765625 26.535156 29.992188 26.324219 30.109375 C 26.109375 30.226562 25.851562 30.21875 25.644531 30.089844 L 16 24.039062 L 6.355469 30.089844 C 6.148438 30.21875 5.890625 30.222656 5.675781 30.105469 C 5.464844 29.988281 5.332031 29.765625 5.332031 29.523438 L 5.332031 4 C 5.332031 3.261719 5.929688 2.667969 6.667969 2.667969 Z M 24 5.332031 L 8 5.332031 L 8 25.910156 L 16 20.894531 L 24 25.910156 Z M 10.667969 12 L 21.332031 12 L 21.332031 14.667969 L 10.667969 14.667969 Z M 10.667969 12 "/>
</g>
</svg>
