<?xml version="1.0" encoding="UTF-8"?>
<svg xmlns="http://www.w3.org/2000/svg" xmlns:xlink="http://www.w3.org/1999/xlink" width="32" height="32" viewBox="0 0 32 32" version="1.1">
<g id="surface1">
<path style=" stroke:none;fill-rule:nonzero;fill:rgb(0%,0%,0%);fill-opacity:1;" d="M 5.859375 0.0078125 C 4.652344 0.0078125 3.625 0.523438 2.964844 1.292969 C 2.335938 2.023438 2.035156 2.945312 2.007812 3.871094 C 2 3.910156 1.996094 3.949219 1.996094 3.992188 C 1.996094 3.996094 1.996094 4.003906 1.996094 4.011719 L 1.996094 28.019531 C 1.996094 28.097656 1.984375 28.167969 1.988281 28.242188 C 2.035156 29.1875 2.359375 30.128906 3.023438 30.84375 C 3.6875 31.558594 4.695312 31.992188 5.855469 31.992188 L 29.035156 31.992188 C 29.574219 31.988281 30.007812 31.554688 30.011719 31.015625 C 30.015625 30.472656 29.578125 30.03125 29.035156 30.027344 L 26.984375 30.027344 L 26.984375 26.007812 L 29.039062 26.007812 C 29.5625 26.003906 29.988281 25.5625 29.992188 25.019531 L 29.992188 1.011719 C 29.996094 0.464844 29.570312 0.015625 29.039062 0.0078125 Z M 9.007812 5.992188 L 23.003906 5.992188 C 23.269531 5.988281 23.527344 6.09375 23.714844 6.285156 C 23.902344 6.472656 24.007812 6.726562 24.007812 6.996094 C 24.007812 7.261719 23.90625 7.519531 23.714844 7.707031 C 23.527344 7.898438 23.269531 8.003906 23.003906 8.003906 L 9.007812 8.003906 C 8.742188 8.003906 8.484375 7.898438 8.296875 7.707031 C 8.105469 7.519531 8 7.261719 8.003906 6.996094 C 8.003906 6.726562 8.109375 6.472656 8.296875 6.285156 C 8.484375 6.09375 8.742188 5.988281 9.007812 5.992188 Z M 9.007812 9.996094 L 23.003906 9.996094 C 23.269531 9.992188 23.527344 10.097656 23.714844 10.289062 C 23.902344 10.476562 24.007812 10.730469 24.007812 11 C 24.007812 11.265625 23.902344 11.519531 23.714844 11.710938 C 23.527344 11.898438 23.269531 12.003906 23.003906 12.003906 L 9.007812 12.003906 C 8.742188 12.003906 8.484375 11.898438 8.296875 11.710938 C 8.109375 11.519531 8.003906 11.265625 8.003906 11 C 8.003906 10.730469 8.109375 10.476562 8.296875 10.289062 C 8.484375 10.097656 8.742188 9.992188 9.007812 9.996094 Z M 5.859375 26.007812 L 25.019531 26.007812 L 25.019531 30.027344 L 5.855469 30.027344 C 5.160156 30.027344 4.765625 29.816406 4.46875 29.496094 C 4.167969 29.171875 3.980469 28.691406 3.953125 28.136719 C 3.925781 27.621094 4.082031 27.058594 4.386719 26.664062 C 4.695312 26.277344 5.121094 26.007812 5.859375 26.007812 Z M 5.859375 26.007812 "/>
</g>
</svg>
