<?xml version="1.0" encoding="UTF-8"?>
<svg xmlns="http://www.w3.org/2000/svg" xmlns:xlink="http://www.w3.org/1999/xlink" width="32" height="32" viewBox="0 0 32 32" version="1.1">
<g id="surface1">
<path style=" stroke:none;fill-rule:nonzero;fill:rgb(0%,0%,0%);fill-opacity:1;" d="M 14.964844 2.816406 C 14.929688 2.816406 14.898438 2.820312 14.863281 2.824219 C 14.792969 2.828125 14.722656 2.84375 14.65625 2.867188 L 4.601562 6.585938 C 4.289062 6.703125 4.082031 7.003906 4.085938 7.339844 L 4.042969 24.363281 C 4.039062 24.714844 4.265625 25.027344 4.601562 25.132812 L 17.726562 29.148438 C 17.945312 29.21875 18.183594 29.191406 18.378906 29.074219 L 27.558594 23.683594 C 27.804688 23.539062 27.957031 23.277344 27.957031 22.992188 L 27.898438 5.582031 C 27.894531 5.191406 27.605469 4.859375 27.21875 4.800781 L 15.070312 2.824219 C 15.035156 2.820312 15 2.816406 14.964844 2.816406 Z M 15.011719 4.433594 L 18.21875 4.953125 C 17.457031 5.289062 17.285156 5.367188 16.308594 5.789062 C 15.207031 6.265625 14.082031 6.757812 13.195312 7.132812 C 12.75 7.320312 12.363281 7.476562 12.074219 7.59375 C 11.785156 7.710938 11.53125 7.796875 11.570312 7.785156 L 11.574219 7.792969 L 7.867188 7.089844 Z M 21.15625 5.429688 L 24.269531 5.933594 L 17.949219 9.007812 L 14.441406 8.339844 C 15.226562 8.007812 16.0625 7.648438 16.945312 7.265625 C 19.09375 6.332031 21.050781 5.476562 21.15625 5.429688 Z M 26.304688 6.714844 L 26.363281 22.546875 L 18.628906 27.074219 L 18.628906 10.472656 Z M 5.679688 8.296875 L 10.667969 9.25 L 10.667969 12.773438 L 12.660156 13.367188 L 12.660156 9.628906 L 17.035156 10.464844 L 17.035156 27.269531 L 5.636719 23.773438 Z M 5.679688 8.296875 "/>
</g>
</svg>
