<?xml version="1.0" encoding="UTF-8"?>
<svg xmlns="http://www.w3.org/2000/svg" xmlns:xlink="http://www.w3.org/1999/xlink" width="32" height="32" viewBox="0 0 32 32" version="1.1">
<g id="surface1">
<path style=" stroke:none;fill-rule:nonzero;fill:rgb(0%,0%,0%);fill-opacity:1;" d="M 9.332031 6.667969 L 9.332031 2.667969 C 9.332031 1.929688 9.929688 1.332031 10.667969 1.332031 L 21.332031 1.332031 C 22.070312 1.332031 22.667969 1.929688 22.667969 2.667969 L 22.667969 6.667969 L 28 6.667969 C 28.738281 6.667969 29.332031 7.261719 29.332031 8 L 29.332031 26.667969 C 29.332031 27.402344 28.738281 28 28 28 L 4 28 C 3.261719 28 2.667969 27.402344 2.667969 26.667969 L 2.667969 8 C 2.667969 7.261719 3.261719 6.667969 4 6.667969 Z M 22.667969 17.332031 L 22.667969 13.332031 L 20 13.332031 L 20 17.332031 L 12 17.332031 L 12 13.332031 L 9.332031 13.332031 L 9.332031 17.332031 L 5.332031 17.332031 L 5.332031 25.332031 L 26.667969 25.332031 L 26.667969 17.332031 Z M 12 4 L 12 6.667969 L 20 6.667969 L 20 4 Z M 12 4 "/>
</g>
</svg>
