<?xml version="1.0" encoding="UTF-8"?>
<svg xmlns="http://www.w3.org/2000/svg" xmlns:xlink="http://www.w3.org/1999/xlink" width="32" height="32" viewBox="0 0 32 32" version="1.1">
<g id="surface1">
<path style=" stroke:none;fill-rule:nonzero;fill:rgb(0%,0%,0%);fill-opacity:1;" d="M 13.105469 6.667969 L 10.4375 9.332031 L 5.332031 9.332031 L 5.332031 25.332031 L 26.667969 25.332031 L 26.667969 9.332031 L 21.5625 9.332031 L 18.894531 6.667969 Z M 12 4 L 20 4 L 22.667969 6.667969 L 28 6.667969 C 28.738281 6.667969 29.332031 7.261719 29.332031 8 L 29.332031 26.667969 C 29.332031 27.402344 28.738281 28 28 28 L 4 28 C 3.261719 28 2.667969 27.402344 2.667969 26.667969 L 2.667969 8 C 2.667969 7.261719 3.261719 6.667969 4 6.667969 L 9.332031 6.667969 Z M 16 24 C 11.949219 24 8.667969 20.714844 8.667969 16.667969 C 8.667969 12.617188 11.949219 9.332031 16 9.332031 C 20.050781 9.332031 23.332031 12.617188 23.332031 16.667969 C 23.332031 20.714844 20.050781 24 16 24 Z M 16 21.332031 C 18.578125 21.332031 20.667969 19.242188 20.667969 16.667969 C 20.667969 14.089844 18.578125 12 16 12 C 13.421875 12 11.332031 14.089844 11.332031 16.667969 C 11.332031 19.242188 13.421875 21.332031 16 21.332031 Z M 16 21.332031 "/>
</g>
</svg>
