<?xml version="1.0" encoding="UTF-8"?>
<svg xmlns="http://www.w3.org/2000/svg" xmlns:xlink="http://www.w3.org/1999/xlink" width="32" height="32" viewBox="0 0 32 32" version="1.1">
<g id="surface1">
<path style=" stroke:none;fill-rule:nonzero;fill:rgb(0%,0%,0%);fill-opacity:1;" d="M 13.101562 29.015625 L 19.078125 18.667969 L 23.789062 26.824219 C 21.523438 28.460938 18.796875 29.335938 16 29.332031 C 15.003906 29.332031 14.035156 29.222656 13.101562 29.015625 Z M 10.519531 28.160156 C 7.054688 26.59375 4.421875 23.625 3.277344 20 L 15.230469 20 Z M 2.734375 17.332031 C 2.347656 13.550781 3.601562 9.78125 6.175781 6.984375 L 12.148438 17.332031 Z M 8.210938 5.175781 C 10.480469 3.542969 13.203125 2.664062 16 2.667969 C 16.996094 2.667969 17.964844 2.777344 18.898438 2.984375 L 12.921875 13.332031 Z M 21.480469 3.839844 C 24.945312 5.40625 27.578125 8.375 28.722656 12 L 16.769531 12 Z M 29.265625 14.667969 C 29.652344 18.449219 28.398438 22.21875 25.824219 25.015625 L 19.851562 14.667969 L 29.269531 14.667969 Z M 29.265625 14.667969 "/>
</g>
</svg>
