<?xml version="1.0" encoding="UTF-8"?>
<svg xmlns="http://www.w3.org/2000/svg" xmlns:xlink="http://www.w3.org/1999/xlink" width="32" height="32" viewBox="0 0 32 32" version="1.1">
<g id="surface1">
<path style=" stroke:none;fill-rule:nonzero;fill:rgb(0%,0%,0%);fill-opacity:1;" d="M 26.113281 28 L 4 28 C 3.261719 28 2.667969 27.402344 2.667969 26.667969 L 2.667969 8 C 2.667969 7.261719 3.261719 6.667969 4 6.667969 L 4.78125 6.667969 L 1.855469 3.742188 L 3.742188 1.855469 L 30.144531 28.257812 L 28.257812 30.144531 Z M 7.449219 9.332031 L 5.332031 9.332031 L 5.332031 25.332031 L 23.449219 25.332031 L 20.542969 22.425781 C 17.621094 24.738281 13.4375 24.492188 10.804688 21.863281 C 8.171875 19.230469 7.929688 15.042969 10.238281 12.125 Z M 12.148438 14.035156 C 10.878906 15.886719 11.109375 18.378906 12.699219 19.96875 C 14.285156 21.554688 16.78125 21.789062 18.632812 20.519531 Z M 29.332031 23.714844 L 26.667969 21.046875 L 26.667969 9.332031 L 21.5625 9.332031 L 18.894531 6.667969 L 13.105469 6.667969 L 12.695312 7.074219 L 10.808594 5.191406 L 12 4 L 20 4 L 22.667969 6.667969 L 28 6.667969 C 28.738281 6.667969 29.332031 7.261719 29.332031 8 Z M 15.015625 9.398438 C 17.285156 9.09375 19.566406 9.863281 21.1875 11.480469 C 22.804688 13.101562 23.574219 15.382812 23.269531 17.652344 L 20.152344 14.535156 C 19.703125 13.667969 19 12.964844 18.132812 12.515625 Z M 15.015625 9.398438 "/>
</g>
</svg>
