<?xml version="1.0" encoding="UTF-8"?>
<svg xmlns="http://www.w3.org/2000/svg" xmlns:xlink="http://www.w3.org/1999/xlink" width="32" height="32" viewBox="0 0 32 32" version="1.1">
<g id="surface1">
<path style=" stroke:none;fill-rule:nonzero;fill:rgb(0%,0%,0%);fill-opacity:1;" d="M 25.332031 26.667969 L 6.667969 26.667969 L 6.667969 28 C 6.667969 28.738281 6.070312 29.332031 5.332031 29.332031 L 4 29.332031 C 3.261719 29.332031 2.667969 28.738281 2.667969 28 L 2.667969 16 L 6.015625 7.0625 C 6.40625 6.023438 7.402344 5.332031 8.515625 5.332031 L 23.484375 5.332031 C 24.597656 5.332031 25.59375 6.023438 25.984375 7.0625 L 29.332031 16 L 29.332031 28 C 29.332031 28.738281 28.738281 29.332031 28 29.332031 L 26.667969 29.332031 C 25.929688 29.332031 25.332031 28.738281 25.332031 28 Z M 5.515625 16 L 26.484375 16 L 23.484375 8 L 8.515625 8 Z M 8.667969 22.667969 C 9.769531 22.667969 10.667969 21.769531 10.667969 20.667969 C 10.667969 19.5625 9.769531 18.667969 8.667969 18.667969 C 7.5625 18.667969 6.667969 19.5625 6.667969 20.667969 C 6.667969 21.769531 7.5625 22.667969 8.667969 22.667969 Z M 23.332031 22.667969 C 24.4375 22.667969 25.332031 21.769531 25.332031 20.667969 C 25.332031 19.5625 24.4375 18.667969 23.332031 18.667969 C 22.230469 18.667969 21.332031 19.5625 21.332031 20.667969 C 21.332031 21.769531 22.230469 22.667969 23.332031 22.667969 Z M 23.332031 22.667969 "/>
</g>
</svg>
