<?xml version="1.0" encoding="UTF-8"?>
<svg xmlns="http://www.w3.org/2000/svg" xmlns:xlink="http://www.w3.org/1999/xlink" width="32" height="32" viewBox="0 0 32 32" version="1.1">
<g id="surface1">
<path style=" stroke:none;fill-rule:nonzero;fill:rgb(0%,0%,0%);fill-opacity:1;" d="M 4 4 L 28 4 C 28.738281 4 29.332031 4.597656 29.332031 5.332031 L 29.332031 26.667969 C 29.332031 27.402344 28.738281 28 28 28 L 20 28 C 20 27.105469 19.933594 26.214844 19.796875 25.332031 L 26.667969 25.332031 L 26.667969 6.667969 L 5.332031 6.667969 L 5.332031 10.871094 C 4.449219 10.734375 3.558594 10.667969 2.667969 10.667969 L 2.667969 5.332031 C 2.667969 4.597656 3.261719 4 4 4 Z M 17.332031 28 L 14.667969 28 C 14.667969 21.371094 9.292969 16 2.667969 16 L 2.667969 13.332031 C 10.765625 13.332031 17.332031 19.898438 17.332031 28 Z M 12 28 L 9.332031 28 C 9.332031 24.316406 6.347656 21.332031 2.667969 21.332031 L 2.667969 18.667969 C 7.820312 18.667969 12 22.84375 12 28 Z M 6.667969 28 L 2.667969 28 L 2.667969 24 C 4.875 24 6.667969 25.789062 6.667969 28 Z M 6.667969 28 "/>
</g>
</svg>
