<?xml version="1.0" encoding="UTF-8"?>
<svg xmlns="http://www.w3.org/2000/svg" xmlns:xlink="http://www.w3.org/1999/xlink" width="32" height="32" viewBox="0 0 32 32" version="1.1">
<g id="surface1">
<path style=" stroke:none;fill-rule:nonzero;fill:rgb(0%,0%,0%);fill-opacity:1;" d="M 16 17.414062 L 21.960938 23.375 L 16 29.332031 L 10.039062 23.375 Z M 5.332031 21.492188 L 10.503906 26.667969 L 5.332031 26.667969 Z M 26.667969 21.492188 L 26.667969 26.667969 L 21.492188 26.667969 Z M 23.375 10.039062 L 29.332031 16 L 23.375 21.960938 L 17.414062 16 Z M 8.625 10.039062 L 14.585938 16 L 8.625 21.957031 L 2.667969 16 Z M 16 2.667969 L 21.957031 8.625 L 16 14.585938 L 10.039062 8.625 Z M 10.503906 5.332031 L 5.332031 10.503906 L 5.332031 5.332031 Z M 26.667969 5.332031 L 26.667969 10.503906 L 21.492188 5.332031 Z M 26.667969 5.332031 "/>
</g>
</svg>
