<?xml version="1.0" encoding="UTF-8"?>
<svg xmlns="http://www.w3.org/2000/svg" xmlns:xlink="http://www.w3.org/1999/xlink" width="32" height="32" viewBox="0 0 32 32" version="1.1">
<g id="surface1">
<path style=" stroke:none;fill-rule:nonzero;fill:rgb(0%,0%,0%);fill-opacity:1;" d="M 6.667969 20 L 6.667969 25.332031 L 12 25.332031 L 12 28 L 4 28 L 4 20 Z M 28 20 L 28 28 L 20 28 L 20 25.332031 L 25.332031 25.332031 L 25.332031 20 Z M 17.332031 8 L 23.199219 22.667969 L 20.324219 22.667969 L 18.722656 18.667969 L 13.269531 18.667969 L 11.671875 22.667969 L 8.800781 22.667969 L 14.664062 8 Z M 16 11.847656 L 14.335938 16 L 17.660156 16 Z M 12 4 L 12 6.667969 L 6.667969 6.667969 L 6.667969 12 L 4 12 L 4 4 Z M 28 4 L 28 12 L 25.332031 12 L 25.332031 6.667969 L 20 6.667969 L 20 4 Z M 28 4 "/>
</g>
</svg>
