<?xml version="1.0" encoding="UTF-8"?>
<svg xmlns="http://www.w3.org/2000/svg" xmlns:xlink="http://www.w3.org/1999/xlink" width="32" height="32" viewBox="0 0 32 32" version="1.1">
<g id="surface1">
<path style=" stroke:none;fill-rule:nonzero;fill:rgb(0%,0%,0%);fill-opacity:1;" d="M 6 14 L 10 14 L 10 28 L 6 28 Z M 6 14 "/>
<path style=" stroke:none;fill-rule:nonzero;fill:rgb(0%,0%,0%);fill-opacity:1;" d="M 12 10 L 16 10 L 16 28 L 12 28 Z M 12 10 "/>
<path style=" stroke:none;fill-rule:nonzero;fill:rgb(0%,0%,0%);fill-opacity:1;" d="M 18 14 L 22 14 L 22 28 L 18 28 Z M 18 14 "/>
<path style=" stroke:none;fill-rule:nonzero;fill:rgb(0%,0%,0%);fill-opacity:1;" d="M 24 12 L 28 12 L 28 28 L 24 28 Z M 24 12 "/>
<path style=" stroke:none;fill-rule:nonzero;fill:rgb(0%,0%,0%);fill-opacity:1;" d="M 0.988281 2 C 0.441406 2.007812 -0.00390625 2.453125 0 3.003906 L 0 28.996094 C -0.00390625 29.546875 0.441406 29.996094 0.988281 30 L 30.996094 30 C 31.550781 30.003906 32.003906 29.550781 32 28.996094 C 32.003906 28.441406 31.550781 27.992188 30.996094 27.992188 L 1.992188 27.992188 L 1.992188 3.003906 C 1.996094 2.449219 1.542969 2 0.988281 2 Z M 0.988281 2 "/>
<path style=" stroke:none;fill-rule:evenodd;fill:rgb(0%,0%,0%);fill-opacity:1;" d="M 14 2 C 12.894531 2 12 2.894531 12 4 C 12 4.175781 12.023438 4.351562 12.070312 4.523438 L 8.515625 8.070312 C 8.347656 8.023438 8.175781 8 8 8 C 6.894531 8 6 8.894531 6 10 C 6 11.105469 6.894531 12 8 12 C 9.105469 12 10 11.105469 10 10 C 10 9.828125 9.976562 9.65625 9.929688 9.488281 L 13.484375 5.933594 C 13.652344 5.976562 13.828125 6 14 6 C 14.175781 6 14.351562 5.976562 14.519531 5.929688 L 18.070312 9.480469 C 18.023438 9.648438 18 9.824219 18 10 C 18 11.105469 18.894531 12 20 12 C 20.949219 12 21.765625 11.332031 21.957031 10.402344 L 24.675781 9.5 C 25.042969 9.820312 25.511719 10 26 10 C 27.105469 10 28 9.105469 28 8 C 28 6.894531 27.105469 6 26 6 C 25.054688 6 24.234375 6.664062 24.042969 7.59375 L 21.316406 8.5 C 20.953125 8.179688 20.484375 8 20 8 C 19.824219 8 19.652344 8.023438 19.480469 8.070312 L 15.929688 4.519531 C 15.976562 4.347656 16 4.175781 16 4 C 16 2.894531 15.105469 2 14 2 Z M 14 2 "/>
</g>
</svg>
