<?xml version="1.0" encoding="UTF-8"?>
<svg xmlns="http://www.w3.org/2000/svg" xmlns:xlink="http://www.w3.org/1999/xlink" width="32" height="32" viewBox="0 0 32 32" version="1.1">
<g id="surface1">
<path style=" stroke:none;fill-rule:nonzero;fill:rgb(0%,0%,0%);fill-opacity:1;" d="M 0.988281 2 C 0.441406 2.007812 -0.00390625 2.453125 0 3.003906 L 0 28.996094 C -0.00390625 29.546875 0.441406 29.992188 0.988281 30 L 30.996094 30 C 31.550781 30.003906 32.003906 29.550781 32 28.996094 C 32.003906 28.441406 31.550781 27.988281 30.996094 27.992188 L 1.992188 27.992188 L 1.992188 3.003906 C 1.996094 2.449219 1.542969 1.996094 0.988281 2 Z M 0.988281 2 "/>
<path style=" stroke:none;fill-rule:nonzero;fill:rgb(0%,0%,0%);fill-opacity:1;" d="M 29.335938 6.5625 L 18.664062 9.707031 L 20.722656 11.875 L 16.949219 15.808594 L 12.121094 10.613281 L 3.75 20.046875 L 6.746094 22.703125 L 12.179688 16.5625 L 16.917969 21.640625 L 23.476562 14.773438 L 26.003906 17.4375 Z M 29.335938 6.5625 "/>
</g>
</svg>
