<?xml version="1.0" encoding="UTF-8"?>
<svg xmlns="http://www.w3.org/2000/svg" xmlns:xlink="http://www.w3.org/1999/xlink" width="32" height="32" viewBox="0 0 32 32" version="1.1">
<g id="surface1">
<path style=" stroke:none;fill-rule:nonzero;fill:rgb(0%,0%,0%);fill-opacity:1;" d="M 16 2.667969 C 23.363281 2.667969 29.332031 8.636719 29.332031 16 C 29.332031 23.363281 23.363281 29.332031 16 29.332031 C 13.730469 29.332031 11.59375 28.765625 9.722656 27.765625 L 2.667969 29.332031 L 4.234375 22.28125 C 3.234375 20.40625 2.667969 18.269531 2.667969 16 C 2.667969 8.636719 8.636719 2.667969 16 2.667969 Z M 16 5.332031 C 10.109375 5.332031 5.332031 10.109375 5.332031 16 C 5.332031 17.78125 5.769531 19.492188 6.585938 21.019531 L 7.054688 21.894531 L 6.179688 25.820312 L 10.109375 24.949219 L 10.980469 25.414062 C 12.511719 26.234375 14.21875 26.667969 16 26.667969 C 21.890625 26.667969 26.667969 21.890625 26.667969 16 C 26.667969 10.109375 21.890625 5.332031 16 5.332031 Z M 16 9.332031 C 18.210938 9.332031 20 11.125 20 13.332031 L 20 14.667969 L 21.332031 14.667969 L 21.332031 21.332031 L 10.667969 21.332031 L 10.667969 14.667969 L 12 14.667969 L 12 13.332031 C 12 11.125 13.789062 9.332031 16 9.332031 Z M 18.667969 17.332031 L 13.332031 17.332031 L 13.332031 18.667969 L 18.667969 18.667969 Z M 16 12 C 15.265625 12 14.667969 12.601562 14.667969 13.332031 L 14.667969 14.667969 L 17.332031 14.667969 L 17.332031 13.332031 C 17.332031 12.597656 16.734375 12 16 12 Z M 16 12 "/>
</g>
</svg>
