<?xml version="1.0" encoding="UTF-8"?>
<svg xmlns="http://www.w3.org/2000/svg" xmlns:xlink="http://www.w3.org/1999/xlink" width="32" height="32" viewBox="0 0 32 32" version="1.1">
<g id="surface1">
<path style=" stroke:none;fill-rule:nonzero;fill:rgb(0%,0%,0%);fill-opacity:1;" d="M 8.605469 25.332031 L 2.667969 30 L 2.667969 5.332031 C 2.667969 4.597656 3.261719 4 4 4 L 28 4 C 28.738281 4 29.332031 4.597656 29.332031 5.332031 L 29.332031 24 C 29.332031 24.738281 28.738281 25.332031 28 25.332031 Z M 10.859375 16.09375 L 9.558594 16.84375 L 10.894531 19.15625 L 12.195312 18.402344 C 12.863281 19.085938 13.714844 19.585938 14.667969 19.832031 L 14.667969 21.332031 L 17.332031 21.332031 L 17.332031 19.832031 C 18.273438 19.589844 19.125 19.097656 19.804688 18.402344 L 21.105469 19.15625 L 22.441406 16.84375 L 21.140625 16.09375 C 21.398438 15.160156 21.398438 14.171875 21.140625 13.238281 L 22.441406 12.488281 L 21.105469 10.179688 L 19.804688 10.929688 C 19.125 10.238281 18.273438 9.742188 17.332031 9.5 L 17.332031 8 L 14.667969 8 L 14.667969 9.5 C 13.726562 9.742188 12.875 10.238281 12.195312 10.929688 L 10.894531 10.179688 L 9.558594 12.488281 L 10.859375 13.238281 C 10.601562 14.171875 10.601562 15.160156 10.859375 16.09375 Z M 16 17.332031 C 14.527344 17.332031 13.332031 16.140625 13.332031 14.667969 C 13.332031 13.195312 14.527344 12 16 12 C 17.472656 12 18.667969 13.195312 18.667969 14.667969 C 18.667969 16.140625 17.472656 17.332031 16 17.332031 Z M 16 17.332031 "/>
</g>
</svg>
