<?xml version="1.0" encoding="UTF-8"?>
<svg xmlns="http://www.w3.org/2000/svg" xmlns:xlink="http://www.w3.org/1999/xlink" width="32" height="32" viewBox="0 0 32 32" version="1.1">
<g id="surface1">
<path style=" stroke:none;fill-rule:nonzero;fill:rgb(0%,0%,0%);fill-opacity:1;" d="M 8.605469 25.332031 L 2.667969 30 L 2.667969 5.332031 C 2.667969 4.597656 3.261719 4 4 4 L 28 4 C 28.738281 4 29.332031 4.597656 29.332031 5.332031 L 29.332031 24 C 29.332031 24.738281 28.738281 25.332031 28 25.332031 Z M 16.023438 19.601562 L 20.503906 15.121094 C 21.675781 13.949219 21.675781 12.050781 20.503906 10.878906 C 19.332031 9.707031 17.429688 9.707031 16.261719 10.878906 L 16.023438 11.113281 L 15.789062 10.878906 C 14.617188 9.707031 12.71875 9.707031 11.546875 10.878906 C 10.375 12.050781 10.375 13.949219 11.546875 15.121094 Z M 16.023438 19.601562 "/>
</g>
</svg>
