<?xml version="1.0" encoding="UTF-8"?>
<svg xmlns="http://www.w3.org/2000/svg" xmlns:xlink="http://www.w3.org/1999/xlink" width="32" height="32" viewBox="0 0 32 32" version="1.1">
<g id="surface1">
<path style=" stroke:none;fill-rule:nonzero;fill:rgb(0%,0%,0%);fill-opacity:1;" d="M 28 4 C 28.734375 4 29.332031 4.597656 29.332031 5.332031 L 29.332031 24 C 29.332031 24.734375 28.734375 25.332031 28 25.332031 L 8.605469 25.332031 L 2.667969 30 L 2.667969 5.332031 C 2.667969 4.597656 3.265625 4 4 4 Z M 26.667969 6.667969 L 5.332031 6.667969 L 5.332031 24.511719 L 7.683594 22.667969 L 26.667969 22.667969 Z M 22.667969 9.332031 L 22.667969 20 L 20 20 L 20 9.332031 Z M 14.667969 10.667969 L 14.667969 13.332031 L 17.332031 13.332031 L 17.332031 16 L 14.667969 16 L 14.667969 18.667969 L 12 18.667969 L 12 16 L 9.332031 16 L 9.332031 13.332031 L 12 13.332031 L 12 10.667969 Z M 14.667969 10.667969 "/>
</g>
</svg>
