<?xml version="1.0" encoding="UTF-8"?>
<svg xmlns="http://www.w3.org/2000/svg" xmlns:xlink="http://www.w3.org/1999/xlink" width="32" height="32" viewBox="0 0 32 32" version="1.1">
<g id="surface1">
<path style=" stroke:none;fill-rule:nonzero;fill:rgb(0%,0%,0%);fill-opacity:1;" d="M 13.820312 26.445312 L 16.394531 21.988281 C 14.070312 22.140625 11.871094 20.9375 10.746094 18.902344 L 6.390625 11.359375 C 4.964844 14.316406 4.976562 17.765625 6.429688 20.710938 C 7.878906 23.660156 10.605469 25.773438 13.820312 26.445312 Z M 16.785156 26.636719 C 20.0625 26.398438 23.042969 24.660156 24.867188 21.933594 C 26.695312 19.203125 27.164062 15.785156 26.136719 12.667969 L 20.988281 12.667969 C 21.648438 13.652344 22 14.8125 22 16 C 22 17.089844 21.707031 18.15625 21.144531 19.089844 Z M 18.855469 17.71875 L 18.886719 17.667969 C 19.691406 16.273438 19.386719 14.503906 18.160156 13.460938 C 16.933594 12.417969 15.136719 12.402344 13.890625 13.417969 C 12.644531 14.4375 12.304688 16.203125 13.082031 17.609375 L 13.113281 17.667969 C 13.703125 18.691406 14.789062 19.324219 15.972656 19.335938 C 17.152344 19.34375 18.25 18.730469 18.855469 17.71875 Z M 8.046875 8.890625 L 10.617188 13.34375 C 11.628906 11.296875 13.714844 10 16 10 L 24.820312 10 C 22.835938 7.078125 19.53125 5.332031 16 5.332031 C 12.960938 5.328125 10.066406 6.625 8.046875 8.890625 Z M 16 29.332031 C 8.636719 29.332031 2.667969 23.363281 2.667969 16 C 2.667969 8.636719 8.636719 2.667969 16 2.667969 C 23.363281 2.667969 29.332031 8.636719 29.332031 16 C 29.332031 23.363281 23.363281 29.332031 16 29.332031 Z M 16 29.332031 "/>
</g>
</svg>
