<?xml version="1.0" encoding="UTF-8"?>
<svg xmlns="http://www.w3.org/2000/svg" xmlns:xlink="http://www.w3.org/1999/xlink" width="32" height="32" viewBox="0 0 32 32" version="1.1">
<g id="surface1">
<path style=" stroke:none;fill-rule:nonzero;fill:rgb(0%,0%,0%);fill-opacity:1;" d="M 23.972656 0.203125 C 22.203125 0.296875 20.308594 1.09375 18.660156 2.726562 L 18.644531 2.742188 C 18.636719 2.75 18.625 2.746094 18.613281 2.757812 L 6.035156 14.40625 C 6.019531 14.421875 6.007812 14.4375 5.992188 14.449219 C 3.285156 17.15625 1.933594 20.046875 1.753906 22.734375 C 1.574219 25.421875 2.589844 27.855469 4.367188 29.511719 C 7.917969 32.820312 14.320312 32.859375 19.574219 27.605469 C 19.578125 27.601562 19.585938 27.59375 19.589844 27.589844 L 27.769531 19.292969 C 28.050781 19.007812 28.207031 18.625 28.203125 18.226562 C 28.199219 17.828125 28.039062 17.445312 27.753906 17.167969 C 27.46875 16.886719 27.085938 16.730469 26.6875 16.734375 C 26.289062 16.734375 25.90625 16.898438 25.628906 17.183594 L 17.449219 25.496094 C 13.023438 29.90625 8.6875 29.4375 6.417969 27.324219 C 5.285156 26.265625 4.613281 24.757812 4.738281 22.925781 C 4.859375 21.089844 5.792969 18.886719 8.101562 16.578125 L 20.695312 4.929688 C 20.710938 4.914062 20.726562 4.898438 20.742188 4.882812 C 23.210938 2.414062 25.324219 2.859375 26.46875 4.011719 C 27.613281 5.164062 28.066406 7.273438 25.464844 9.875 L 13.460938 21.875 C 12.285156 23.054688 11.761719 22.722656 11.542969 22.496094 C 11.324219 22.269531 10.992188 21.660156 12.207031 20.445312 L 22.203125 10.449219 C 22.484375 10.167969 22.644531 9.785156 22.644531 9.386719 C 22.644531 8.988281 22.484375 8.605469 22.203125 8.324219 C 21.921875 8.039062 21.539062 7.882812 21.140625 7.882812 C 20.742188 7.882812 20.359375 8.039062 20.078125 8.324219 L 10.082031 18.316406 C 8.097656 20.300781 7.886719 23.039062 9.371094 24.578125 C 10.859375 26.117188 13.628906 25.960938 15.589844 24 L 27.589844 12 C 31.011719 8.578125 30.933594 4.25 28.59375 1.898438 C 27.425781 0.726562 25.761719 0.105469 23.972656 0.203125 Z M 23.972656 0.203125 "/>
</g>
</svg>
