<?xml version="1.0" encoding="UTF-8"?>
<svg xmlns="http://www.w3.org/2000/svg" xmlns:xlink="http://www.w3.org/1999/xlink" width="32" height="32" viewBox="0 0 32 32" version="1.1">
<g id="surface1">
<path style=" stroke:none;fill-rule:nonzero;fill:rgb(0%,0%,0%);fill-opacity:1;" d="M 16 29.332031 C 8.636719 29.332031 2.667969 23.363281 2.667969 16 C 2.667969 8.636719 8.636719 2.667969 16 2.667969 C 23.363281 2.667969 29.332031 8.636719 29.332031 16 C 29.332031 23.363281 23.363281 29.332031 16 29.332031 Z M 16 26.667969 C 21.890625 26.667969 26.667969 21.890625 26.667969 16 C 26.667969 10.109375 21.890625 5.332031 16 5.332031 C 10.109375 5.332031 5.332031 10.109375 5.332031 16 C 5.332031 21.890625 10.109375 26.667969 16 26.667969 Z M 16 14.113281 L 19.769531 10.34375 L 21.65625 12.230469 L 17.886719 16 L 21.65625 19.769531 L 19.769531 21.65625 L 16 17.886719 L 12.230469 21.65625 L 10.34375 19.769531 L 14.113281 16 L 10.34375 12.230469 L 12.230469 10.34375 Z M 16 14.113281 "/>
</g>
</svg>
