<?xml version="1.0" encoding="UTF-8"?>
<svg xmlns="http://www.w3.org/2000/svg" xmlns:xlink="http://www.w3.org/1999/xlink" width="32" height="32" viewBox="0 0 32 32" version="1.1">
<g id="surface1">
<path style=" stroke:none;fill-rule:nonzero;fill:rgb(0%,0%,0%);fill-opacity:1;" d="M 22.667969 28 L 9.332031 28 C 5.433594 28.003906 2.097656 25.191406 1.441406 21.347656 C 0.785156 17.503906 2.996094 13.746094 6.675781 12.453125 C 6.511719 9.015625 8.253906 5.765625 11.207031 4 C 14.15625 2.230469 17.84375 2.230469 20.792969 4 C 23.746094 5.765625 25.488281 9.015625 25.324219 12.453125 C 29.003906 13.746094 31.214844 17.503906 30.558594 21.347656 C 29.902344 25.191406 26.566406 28.003906 22.667969 28 Z M 22.667969 12 C 22.667969 9.578125 21.355469 7.347656 19.238281 6.171875 C 17.125 4.996094 14.535156 5.058594 12.480469 6.335938 C 10.425781 7.613281 9.222656 9.90625 9.339844 12.324219 L 9.433594 14.308594 L 7.5625 14.964844 C 5.113281 15.832031 3.644531 18.335938 4.082031 20.894531 C 4.519531 23.457031 6.734375 25.328125 9.332031 25.332031 L 22.667969 25.332031 C 25.390625 25.332031 27.675781 23.277344 27.96875 20.570312 C 28.257812 17.859375 26.460938 15.367188 23.800781 14.789062 C 21.136719 14.210938 18.46875 15.730469 17.605469 18.3125 L 15.074219 17.46875 C 16.164062 14.203125 19.222656 12 22.667969 12 Z M 22.667969 12 "/>
</g>
</svg>
