<?xml version="1.0" encoding="UTF-8"?>
<svg xmlns="http://www.w3.org/2000/svg" xmlns:xlink="http://www.w3.org/1999/xlink" width="32" height="32" viewBox="0 0 32 32" version="1.1">
<g id="surface1">
<path style=" stroke:none;fill-rule:nonzero;fill:rgb(0%,0%,0%);fill-opacity:1;" d="M 22.667969 28 L 9.332031 28 C 5.433594 28.003906 2.097656 25.191406 1.441406 21.347656 C 0.785156 17.503906 2.996094 13.746094 6.675781 12.453125 C 6.511719 9.015625 8.253906 5.765625 11.207031 4 C 14.15625 2.230469 17.84375 2.230469 20.792969 4 C 23.746094 5.765625 25.488281 9.015625 25.324219 12.453125 C 29.003906 13.746094 31.214844 17.503906 30.558594 21.347656 C 29.902344 25.191406 26.566406 28.003906 22.667969 28 Z M 9.332031 25.332031 L 22.667969 25.332031 C 24.636719 25.328125 26.445312 24.238281 27.371094 22.496094 C 28.292969 20.757812 28.179688 18.648438 27.078125 17.015625 C 25.972656 15.382812 24.058594 14.488281 22.097656 14.695312 C 23.332031 11.902344 22.507812 8.625 20.097656 6.746094 C 17.6875 4.867188 14.3125 4.867188 11.902344 6.746094 C 9.492188 8.625 8.667969 11.902344 9.902344 14.695312 C 7.941406 14.488281 6.027344 15.382812 4.921875 17.015625 C 3.820312 18.648438 3.707031 20.757812 4.628906 22.496094 C 5.554688 24.238281 7.363281 25.328125 9.332031 25.332031 Z M 9.332031 25.332031 "/>
</g>
</svg>
