<?xml version="1.0" encoding="UTF-8"?>
<svg xmlns="http://www.w3.org/2000/svg" xmlns:xlink="http://www.w3.org/1999/xlink" width="32" height="32" viewBox="0 0 32 32" version="1.1">
<g id="surface1">
<path style=" stroke:none;fill-rule:nonzero;fill:rgb(0%,0%,0%);fill-opacity:1;" d="M 22 17.601562 L 17.332031 20.714844 L 17.332031 25.507812 L 25.597656 20 Z M 19.597656 16 L 16 13.601562 L 12.402344 16 L 16 18.398438 Z M 26.667969 14.492188 L 24.402344 16 L 26.667969 17.507812 Z M 25.597656 12 L 17.332031 6.492188 L 17.332031 11.285156 L 22 14.398438 Z M 10 14.398438 L 14.667969 11.285156 L 14.667969 6.492188 L 6.402344 12 Z M 6.402344 20 L 14.667969 25.507812 L 14.667969 20.714844 L 10 17.601562 Z M 5.332031 17.507812 L 7.597656 16 L 5.332031 14.492188 Z M 2.667969 12 C 2.667969 11.554688 2.890625 11.136719 3.261719 10.890625 L 15.261719 2.890625 C 15.707031 2.589844 16.292969 2.589844 16.738281 2.890625 L 28.738281 10.890625 C 29.109375 11.136719 29.332031 11.554688 29.332031 12 L 29.332031 20 C 29.332031 20.445312 29.109375 20.863281 28.738281 21.109375 L 16.738281 29.109375 C 16.292969 29.410156 15.707031 29.410156 15.261719 29.109375 L 3.261719 21.109375 C 2.890625 20.863281 2.667969 20.445312 2.667969 20 Z M 2.667969 12 "/>
</g>
</svg>
