<?xml version="1.0" encoding="UTF-8"?>
<svg xmlns="http://www.w3.org/2000/svg" xmlns:xlink="http://www.w3.org/1999/xlink" width="32" height="32" viewBox="0 0 32 32" version="1.1">
<g id="surface1">
<path style=" stroke:none;fill-rule:nonzero;fill:rgb(0%,0%,0%);fill-opacity:1;" d="M 30.667969 16 L 30.667969 18.667969 C 30.667969 23.085938 24.101562 26.667969 16 26.667969 C 8.042969 26.667969 1.566406 23.210938 1.339844 18.902344 L 1.332031 18.667969 L 1.332031 16 C 1.332031 20.417969 7.898438 24 16 24 C 24.101562 24 30.667969 20.417969 30.667969 16 Z M 16 5.332031 C 24.101562 5.332031 30.667969 8.914062 30.667969 13.332031 C 30.667969 17.753906 24.101562 21.332031 16 21.332031 C 7.898438 21.332031 1.332031 17.753906 1.332031 13.332031 C 1.332031 8.914062 7.898438 5.332031 16 5.332031 Z M 16 5.332031 "/>
</g>
</svg>
