<?xml version="1.0" encoding="UTF-8"?>
<svg xmlns="http://www.w3.org/2000/svg" xmlns:xlink="http://www.w3.org/1999/xlink" width="32" height="32" viewBox="0 0 32 32" version="1.1">
<g id="surface1">
<path style=" stroke:none;fill-rule:nonzero;fill:rgb(0%,0%,0%);fill-opacity:1;" d="M 12 25.332031 L 16 25.332031 L 16 17.257812 L 10.667969 12.605469 L 5.332031 17.257812 L 5.332031 25.332031 L 9.332031 25.332031 L 9.332031 20 L 12 20 Z M 28 28 L 4 28 C 3.261719 28 2.667969 27.402344 2.667969 26.667969 L 2.667969 16.648438 C 2.667969 16.265625 2.832031 15.898438 3.125 15.644531 L 8 11.390625 L 8 5.332031 C 8 4.597656 8.597656 4 9.332031 4 L 28 4 C 28.738281 4 29.332031 4.597656 29.332031 5.332031 L 29.332031 26.667969 C 29.332031 27.402344 28.738281 28 28 28 Z M 21.332031 14.667969 L 21.332031 17.332031 L 24 17.332031 L 24 14.667969 Z M 21.332031 20 L 21.332031 22.667969 L 24 22.667969 L 24 20 Z M 21.332031 9.332031 L 21.332031 12 L 24 12 L 24 9.332031 Z M 16 9.332031 L 16 12 L 18.667969 12 L 18.667969 9.332031 Z M 16 9.332031 "/>
</g>
</svg>
