<?xml version="1.0" encoding="UTF-8"?>
<svg xmlns="http://www.w3.org/2000/svg" xmlns:xlink="http://www.w3.org/1999/xlink" width="32" height="32" viewBox="0 0 32 32" version="1.1">
<g id="surface1">
<path style=" stroke:none;fill-rule:nonzero;fill:rgb(0%,0%,0%);fill-opacity:1;" d="M 2.667969 29.332031 C 2.667969 23.441406 7.441406 18.667969 13.332031 18.667969 C 19.222656 18.667969 24 23.441406 24 29.332031 Z M 13.332031 17.332031 C 8.914062 17.332031 5.332031 13.753906 5.332031 9.332031 C 5.332031 4.914062 8.914062 1.332031 13.332031 1.332031 C 17.753906 1.332031 21.332031 4.914062 21.332031 9.332031 C 21.332031 13.753906 17.753906 17.332031 13.332031 17.332031 Z M 26.667969 22.667969 L 32 22.667969 L 32 25.332031 L 26.667969 25.332031 Z M 22.667969 16 L 32 16 L 32 18.667969 L 22.667969 18.667969 Z M 25.332031 9.332031 L 32 9.332031 L 32 12 L 25.332031 12 Z M 25.332031 9.332031 "/>
</g>
</svg>
