<?xml version="1.0" encoding="UTF-8"?>
<svg xmlns="http://www.w3.org/2000/svg" xmlns:xlink="http://www.w3.org/1999/xlink" width="32" height="32" viewBox="0 0 32 32" version="1.1">
<g id="surface1">
<path style=" stroke:none;fill-rule:nonzero;fill:rgb(0%,0%,0%);fill-opacity:1;" d="M 26.667969 29.332031 L 8 29.332031 C 5.789062 29.332031 4 27.542969 4 25.332031 L 4 6.667969 C 4 4.457031 5.789062 2.667969 8 2.667969 L 26.667969 2.667969 C 27.402344 2.667969 28 3.261719 28 4 L 28 28 C 28 28.738281 27.402344 29.332031 26.667969 29.332031 Z M 25.332031 26.667969 L 25.332031 24 L 8 24 C 7.261719 24 6.667969 24.597656 6.667969 25.332031 C 6.667969 26.070312 7.261719 26.667969 8 26.667969 Z M 6.667969 21.558594 C 7.085938 21.414062 7.535156 21.332031 8 21.332031 L 25.332031 21.332031 L 25.332031 5.332031 L 8 5.332031 C 7.261719 5.332031 6.667969 5.929688 6.667969 6.667969 Z M 16 13.332031 C 14.527344 13.332031 13.332031 12.140625 13.332031 10.667969 C 13.332031 9.195312 14.527344 8 16 8 C 17.472656 8 18.667969 9.195312 18.667969 10.667969 C 18.667969 12.140625 17.472656 13.332031 16 13.332031 Z M 12 18.667969 C 12 16.457031 13.789062 14.667969 16 14.667969 C 18.210938 14.667969 20 16.457031 20 18.667969 Z M 12 18.667969 "/>
</g>
</svg>
