<?xml version="1.0" encoding="UTF-8"?>
<svg xmlns="http://www.w3.org/2000/svg" xmlns:xlink="http://www.w3.org/1999/xlink" width="32" height="32" viewBox="0 0 32 32" version="1.1">
<g id="surface1">
<path style=" stroke:none;fill-rule:nonzero;fill:rgb(0%,0%,0%);fill-opacity:1;" d="M 18.667969 26.667969 L 13.332031 26.667969 L 13.332031 29.332031 L 10.667969 29.332031 L 10.667969 26.667969 L 6.667969 26.667969 C 5.929688 26.667969 5.332031 26.070312 5.332031 25.332031 L 5.332031 21.332031 L 2.667969 21.332031 L 2.667969 18.667969 L 5.332031 18.667969 L 5.332031 13.332031 L 2.667969 13.332031 L 2.667969 10.667969 L 5.332031 10.667969 L 5.332031 6.667969 C 5.332031 5.929688 5.929688 5.332031 6.667969 5.332031 L 10.667969 5.332031 L 10.667969 2.667969 L 13.332031 2.667969 L 13.332031 5.332031 L 18.667969 5.332031 L 18.667969 2.667969 L 21.332031 2.667969 L 21.332031 5.332031 L 25.332031 5.332031 C 26.070312 5.332031 26.667969 5.929688 26.667969 6.667969 L 26.667969 10.667969 L 29.332031 10.667969 L 29.332031 13.332031 L 26.667969 13.332031 L 26.667969 18.667969 L 29.332031 18.667969 L 29.332031 21.332031 L 26.667969 21.332031 L 26.667969 25.332031 C 26.667969 26.070312 26.070312 26.667969 25.332031 26.667969 L 21.332031 26.667969 L 21.332031 29.332031 L 18.667969 29.332031 Z M 9.332031 9.332031 L 9.332031 14.667969 L 14.667969 14.667969 L 14.667969 9.332031 Z M 9.332031 9.332031 "/>
</g>
</svg>
