<?xml version="1.0" encoding="UTF-8"?>
<svg xmlns="http://www.w3.org/2000/svg" xmlns:xlink="http://www.w3.org/1999/xlink" width="32" height="32" viewBox="0 0 32 32" version="1.1">
<g id="surface1">
<path style=" stroke:none;fill-rule:nonzero;fill:rgb(0%,0%,0%);fill-opacity:1;" d="M 16 2.667969 C 23.363281 2.667969 29.332031 8.636719 29.332031 16 C 29.332031 23.363281 23.363281 29.332031 16 29.332031 C 8.636719 29.332031 2.667969 23.363281 2.667969 16 C 2.667969 8.636719 8.636719 2.667969 16 2.667969 Z M 12 10.667969 C 9.054688 10.667969 6.667969 13.054688 6.667969 16 C 6.667969 18.101562 7.90625 20.007812 9.824219 20.867188 C 11.746094 21.726562 13.992188 21.375 15.558594 19.972656 L 15.769531 19.769531 L 13.886719 17.886719 C 12.863281 18.90625 11.21875 18.929688 10.167969 17.9375 C 9.117188 16.945312 9.050781 15.300781 10.011719 14.222656 C 10.972656 13.148438 12.613281 13.03125 13.71875 13.960938 L 13.886719 14.117188 L 15.773438 12.230469 C 14.773438 11.226562 13.414062 10.664062 12 10.667969 Z M 21.332031 10.667969 C 18.390625 10.667969 16 13.054688 16 16 C 16 18.101562 17.238281 20.007812 19.160156 20.867188 C 21.078125 21.726562 23.324219 21.375 24.890625 19.972656 L 25.105469 19.769531 L 23.21875 17.886719 C 22.199219 18.90625 20.550781 18.929688 19.5 17.9375 C 18.453125 16.945312 18.382812 15.300781 19.34375 14.222656 C 20.304688 13.148438 21.949219 13.03125 23.050781 13.960938 L 23.21875 14.117188 L 25.105469 12.230469 C 24.105469 11.226562 22.75 10.664062 21.332031 10.667969 Z M 21.332031 10.667969 "/>
</g>
</svg>
