<?xml version="1.0" encoding="UTF-8"?>
<svg xmlns="http://www.w3.org/2000/svg" xmlns:xlink="http://www.w3.org/1999/xlink" width="32" height="32" viewBox="0 0 32 32" version="1.1">
<g id="surface1">
<path style=" stroke:none;fill-rule:nonzero;fill:rgb(0%,0%,0%);fill-opacity:1;" d="M 16 2.667969 C 23.363281 2.667969 29.332031 8.636719 29.332031 16 C 29.332031 23.363281 23.363281 29.332031 16 29.332031 C 8.636719 29.332031 2.667969 23.363281 2.667969 16 C 2.667969 8.636719 8.636719 2.667969 16 2.667969 Z M 16 5.332031 C 10.109375 5.332031 5.332031 10.109375 5.332031 16 C 5.332031 21.890625 10.109375 26.667969 16 26.667969 C 21.890625 26.667969 26.667969 21.890625 26.667969 16 C 26.667969 10.109375 21.890625 5.332031 16 5.332031 Z M 12 10.667969 C 13.472656 10.667969 14.808594 11.265625 15.773438 12.230469 L 13.886719 14.117188 C 12.847656 13.074219 11.15625 13.074219 10.117188 14.113281 C 9.074219 15.15625 9.074219 16.84375 10.113281 17.886719 C 11.15625 18.925781 12.84375 18.929688 13.886719 17.886719 L 15.769531 19.769531 C 14.246094 21.292969 11.953125 21.75 9.960938 20.925781 C 7.96875 20.097656 6.667969 18.15625 6.667969 16 C 6.667969 13.054688 9.054688 10.667969 12 10.667969 Z M 21.332031 10.667969 C 22.808594 10.667969 24.140625 11.265625 25.105469 12.230469 L 23.21875 14.117188 C 22.179688 13.074219 20.492188 13.074219 19.449219 14.113281 C 18.40625 15.15625 18.40625 16.84375 19.445312 17.886719 C 20.488281 18.925781 22.175781 18.929688 23.21875 17.886719 L 25.105469 19.769531 C 23.578125 21.292969 21.285156 21.75 19.292969 20.925781 C 17.300781 20.097656 16 18.15625 16 16 C 16 13.054688 18.390625 10.667969 21.332031 10.667969 Z M 21.332031 10.667969 "/>
</g>
</svg>
