<?xml version="1.0" encoding="UTF-8"?>
<svg xmlns="http://www.w3.org/2000/svg" xmlns:xlink="http://www.w3.org/1999/xlink" width="32" height="32" viewBox="0 0 32 32" version="1.1">
<g id="surface1">
<path style=" stroke:none;fill-rule:nonzero;fill:rgb(0%,0%,0%);fill-opacity:1;" d="M 5.675781 7.5625 L 10.449219 12.332031 C 9.871094 13.328125 9.851562 14.554688 10.394531 15.570312 C 10.9375 16.585938 11.964844 17.25 13.113281 17.328125 L 13.332031 17.332031 L 18.667969 17.332031 L 18.785156 17.34375 C 19.105469 17.402344 19.335938 17.675781 19.335938 18 C 19.335938 18.324219 19.105469 18.597656 18.785156 18.65625 L 18.667969 18.667969 L 11.332031 18.667969 L 11.332031 21.332031 L 14.667969 21.332031 L 14.667969 24 L 17.332031 24 L 17.332031 21.332031 L 18.667969 21.332031 C 18.828125 21.332031 18.988281 21.320312 19.144531 21.300781 L 19.375 21.257812 L 24.4375 26.324219 C 22.058594 28.273438 19.074219 29.339844 16 29.332031 C 8.636719 29.332031 2.667969 23.363281 2.667969 16 C 2.667969 12.800781 3.792969 9.863281 5.675781 7.5625 Z M 16 2.667969 C 23.363281 2.667969 29.332031 8.636719 29.332031 16 C 29.332031 19.199219 28.207031 22.136719 26.324219 24.4375 L 21.554688 19.667969 C 22.128906 18.671875 22.148438 17.445312 21.605469 16.429688 C 21.066406 15.414062 20.035156 14.75 18.886719 14.675781 L 18.667969 14.667969 L 13.332031 14.667969 L 13.214844 14.65625 C 12.894531 14.597656 12.664062 14.324219 12.664062 14 C 12.664062 13.675781 12.894531 13.402344 13.214844 13.34375 L 13.332031 13.332031 L 20.667969 13.332031 L 20.667969 10.667969 L 17.332031 10.667969 L 17.332031 8 L 14.667969 8 L 14.667969 10.667969 L 13.332031 10.667969 C 13.171875 10.667969 13.011719 10.679688 12.859375 10.699219 L 12.628906 10.742188 L 7.5625 5.675781 C 9.941406 3.726562 12.925781 2.660156 16 2.667969 Z M 16 2.667969 "/>
</g>
</svg>
