<?xml version="1.0" encoding="UTF-8"?>
<svg xmlns="http://www.w3.org/2000/svg" xmlns:xlink="http://www.w3.org/1999/xlink" width="32" height="32" viewBox="0 0 32 32" version="1.1">
<g id="surface1">
<path style=" stroke:none;fill-rule:nonzero;fill:rgb(0%,0%,0%);fill-opacity:1;" d="M 21.65625 4.6875 L 16 10.34375 L 10.34375 4.6875 C 9.5625 3.90625 8.296875 3.90625 7.515625 4.6875 L 4.6875 7.515625 C 3.90625 8.296875 3.90625 9.5625 4.6875 10.34375 L 10.34375 16 L 4.6875 21.65625 C 3.90625 22.4375 3.90625 23.703125 4.6875 24.484375 L 7.515625 27.3125 C 8.296875 28.09375 9.5625 28.09375 10.34375 27.3125 L 16 21.65625 L 21.65625 27.3125 C 22.4375 28.09375 23.703125 28.09375 24.484375 27.3125 L 27.3125 24.484375 C 28.09375 23.703125 28.09375 22.4375 27.3125 21.65625 L 21.65625 16 L 27.3125 10.34375 C 28.09375 9.5625 28.09375 8.296875 27.3125 7.515625 L 24.484375 4.6875 C 23.703125 3.90625 22.4375 3.90625 21.65625 4.6875 Z M 21.65625 4.6875 "/>
</g>
</svg>
