<?xml version="1.0" encoding="UTF-8"?>
<svg xmlns="http://www.w3.org/2000/svg" xmlns:xlink="http://www.w3.org/1999/xlink" width="32" height="32" viewBox="0 0 32 32" version="1.1">
<g id="surface1">
<path style=" stroke:none;fill-rule:nonzero;fill:rgb(0%,0%,0%);fill-opacity:1;" d="M 22.667969 21.332031 L 25.332031 21.332031 L 25.332031 5.332031 L 12 5.332031 L 12 8 L 22.667969 8 Z M 22.667969 24 L 22.667969 28 C 22.667969 28.734375 22.066406 29.332031 21.324219 29.332031 L 5.34375 29.332031 C 4.988281 29.335938 4.644531 29.195312 4.394531 28.945312 C 4.140625 28.695312 4 28.355469 4 28 L 4.003906 9.332031 C 4.003906 8.597656 4.605469 8 5.347656 8 L 9.332031 8 L 9.332031 4 C 9.332031 3.261719 9.929688 2.667969 10.667969 2.667969 L 26.667969 2.667969 C 27.402344 2.667969 28 3.261719 28 4 L 28 22.667969 C 28 23.402344 27.402344 24 26.667969 24 Z M 9.332031 21.332031 L 9.332031 24 L 12 24 L 12 25.332031 L 14.667969 25.332031 L 14.667969 24 L 15.332031 24 C 17.175781 24 18.667969 22.507812 18.667969 20.667969 C 18.667969 18.824219 17.175781 17.332031 15.332031 17.332031 L 11.332031 17.332031 C 10.964844 17.332031 10.667969 17.035156 10.667969 16.667969 C 10.667969 16.296875 10.964844 16 11.332031 16 L 17.332031 16 L 17.332031 13.332031 L 14.667969 13.332031 L 14.667969 12 L 12 12 L 12 13.332031 L 11.332031 13.332031 C 9.492188 13.332031 8 14.824219 8 16.667969 C 8 18.507812 9.492188 20 11.332031 20 L 15.332031 20 C 15.703125 20 16 20.296875 16 20.667969 C 16 21.035156 15.703125 21.332031 15.332031 21.332031 Z M 9.332031 21.332031 "/>
</g>
</svg>
