<?xml version="1.0" encoding="UTF-8"?>
<svg xmlns="http://www.w3.org/2000/svg" xmlns:xlink="http://www.w3.org/1999/xlink" width="32" height="32" viewBox="0 0 32 32" version="1.1">
<g id="surface1">
<path style=" stroke:none;fill-rule:nonzero;fill:rgb(0%,0%,0%);fill-opacity:1;" d="M 7.792969 29.003906 C 4.976562 20.453125 8.890625 15.40625 19.792969 17.003906 L 19.792969 23.003906 L 29.792969 13.003906 L 19.792969 3.003906 L 19.792969 9.003906 C 2.3125 7.625 -3.0625 21.921875 7.792969 29.003906 Z M 7.792969 29.003906 "/>
<path style=" stroke:none;fill-rule:nonzero;fill:rgb(0%,0%,0%);fill-opacity:1;" d="M 19.886719 2 C 19.605469 1.972656 19.324219 2.070312 19.117188 2.261719 C 18.910156 2.453125 18.792969 2.722656 18.792969 3.003906 L 18.792969 8.171875 C 10.46875 7.859375 4.558594 10.867188 2.273438 15.375 C -0.125 20.113281 1.5 26.09375 7.25 29.84375 C 7.605469 30.074219 8.066406 30.054688 8.402344 29.796875 C 8.734375 29.535156 8.871094 29.09375 8.742188 28.695312 C 7.394531 24.605469 7.714844 21.65625 9.375 19.878906 C 10.894531 18.25 14.25 17.691406 18.792969 18.152344 L 18.792969 23.007812 C 18.796875 23.414062 19.042969 23.777344 19.417969 23.929688 C 19.792969 24.082031 20.222656 23.992188 20.507812 23.703125 L 30.503906 13.707031 C 30.691406 13.519531 30.796875 13.265625 30.796875 13 C 30.796875 12.734375 30.691406 12.480469 30.503906 12.289062 L 20.507812 2.296875 C 20.339844 2.128906 20.121094 2.023438 19.886719 2 Z M 20.789062 5.410156 L 28.375 13 L 20.789062 20.601562 L 20.789062 17 C 20.789062 16.503906 20.421875 16.082031 19.929688 16.011719 C 14.3125 15.1875 10.234375 16.035156 7.914062 18.519531 C 6.160156 20.402344 6.644531 23.570312 7.117188 26.6875 C 3.542969 23.503906 2.367188 19.621094 4.058594 16.277344 C 6.003906 12.441406 11.246094 9.335938 19.710938 10.003906 C 19.988281 10.023438 20.265625 9.929688 20.46875 9.738281 C 20.675781 9.546875 20.789062 9.277344 20.789062 9 Z M 20.789062 5.410156 "/>
</g>
</svg>
