<?xml version="1.0" encoding="UTF-8"?>
<svg xmlns="http://www.w3.org/2000/svg" xmlns:xlink="http://www.w3.org/1999/xlink" width="32" height="32" viewBox="0 0 32 32" version="1.1">
<g id="surface1">
<path style=" stroke:none;fill-rule:nonzero;fill:rgb(0%,0%,0%);fill-opacity:1;" d="M 26.585938 10.667969 L 28 10.667969 C 29.472656 10.667969 30.667969 11.859375 30.667969 13.332031 L 30.667969 18.667969 C 30.667969 20.140625 29.472656 21.332031 28 21.332031 L 26.585938 21.332031 C 25.910156 26.667969 21.375 30.667969 16 30.667969 L 16 28 C 20.417969 28 24 24.417969 24 20 L 24 12 C 24 7.582031 20.417969 4 16 4 C 11.582031 4 8 7.582031 8 12 L 8 21.332031 L 4 21.332031 C 2.527344 21.332031 1.332031 20.140625 1.332031 18.667969 L 1.332031 13.332031 C 1.332031 11.859375 2.527344 10.667969 4 10.667969 L 5.414062 10.667969 C 6.089844 5.332031 10.625 1.335938 16 1.335938 C 21.375 1.335938 25.910156 5.332031 26.585938 10.667969 Z M 4 13.332031 L 4 18.667969 L 5.332031 18.667969 L 5.332031 13.332031 Z M 26.667969 13.332031 L 26.667969 18.667969 L 28 18.667969 L 28 13.332031 Z M 10.347656 21.046875 L 11.761719 18.785156 C 13.03125 19.582031 14.5 20.003906 16 20 C 17.5 20.003906 18.96875 19.582031 20.238281 18.785156 L 21.652344 21.046875 C 19.960938 22.109375 18 22.667969 16 22.667969 C 14 22.667969 12.039062 22.109375 10.347656 21.046875 Z M 10.347656 21.046875 "/>
</g>
</svg>
