<?xml version="1.0" encoding="UTF-8"?>
<svg xmlns="http://www.w3.org/2000/svg" xmlns:xlink="http://www.w3.org/1999/xlink" width="32" height="32" viewBox="0 0 32 32" version="1.1">
<g id="surface1">
<path style=" stroke:none;fill-rule:nonzero;fill:rgb(0%,0%,0%);fill-opacity:1;" d="M 16 2.667969 C 23.363281 2.667969 29.332031 8.636719 29.332031 16 C 29.332031 23.363281 23.363281 29.332031 16 29.332031 C 8.636719 29.332031 2.667969 23.363281 2.667969 16 C 2.667969 8.636719 8.636719 2.667969 16 2.667969 Z M 16 5.332031 C 10.109375 5.332031 5.332031 10.109375 5.332031 16 C 5.332031 21.890625 10.109375 26.667969 16 26.667969 C 21.890625 26.667969 26.667969 21.890625 26.667969 16 C 26.667969 10.109375 21.890625 5.332031 16 5.332031 Z M 21.109375 9.78125 C 21.425781 9.5625 21.855469 9.597656 22.128906 9.871094 C 22.398438 10.144531 22.433594 10.574219 22.210938 10.886719 C 19.304688 14.945312 17.707031 17.121094 17.414062 17.414062 C 16.632812 18.195312 15.367188 18.195312 14.585938 17.414062 C 13.804688 16.632812 13.804688 15.367188 14.585938 14.585938 C 15.085938 14.089844 17.257812 12.488281 21.109375 9.78125 Z M 23.332031 14.667969 C 24.070312 14.667969 24.667969 15.265625 24.667969 16 C 24.667969 16.734375 24.070312 17.332031 23.332031 17.332031 C 22.597656 17.332031 22 16.734375 22 16 C 22 15.265625 22.597656 14.667969 23.332031 14.667969 Z M 8.667969 14.667969 C 9.402344 14.667969 10 15.265625 10 16 C 10 16.734375 9.402344 17.332031 8.667969 17.332031 C 7.929688 17.332031 7.332031 16.734375 7.332031 16 C 7.332031 15.265625 7.929688 14.667969 8.667969 14.667969 Z M 11.757812 9.871094 C 12.277344 10.390625 12.277344 11.234375 11.757812 11.757812 C 11.238281 12.277344 10.390625 12.277344 9.871094 11.757812 C 9.351562 11.238281 9.351562 10.390625 9.871094 9.871094 C 10.390625 9.351562 11.234375 9.351562 11.757812 9.871094 Z M 16 7.332031 C 16.734375 7.332031 17.332031 7.929688 17.332031 8.667969 C 17.332031 9.402344 16.734375 10 16 10 C 15.265625 10 14.667969 9.402344 14.667969 8.667969 C 14.667969 7.929688 15.265625 7.332031 16 7.332031 Z M 16 7.332031 "/>
</g>
</svg>
