<?xml version="1.0" encoding="UTF-8"?>
<svg xmlns="http://www.w3.org/2000/svg" xmlns:xlink="http://www.w3.org/1999/xlink" width="32" height="32" viewBox="0 0 32 32" version="1.1">
<g id="surface1">
<path style=" stroke:none;fill-rule:nonzero;fill:rgb(0%,0%,0%);fill-opacity:1;" d="M 25.332031 2.667969 C 26.070312 2.667969 26.667969 3.261719 26.667969 4 L 26.667969 28 C 26.667969 28.738281 26.070312 29.332031 25.332031 29.332031 L 6.667969 29.332031 C 5.929688 29.332031 5.332031 28.738281 5.332031 28 L 5.332031 4 C 5.332031 3.261719 5.929688 2.667969 6.667969 2.667969 Z M 16 9.332031 C 13.464844 9.335938 11.152344 10.773438 10.03125 13.046875 C 8.910156 15.316406 9.167969 18.027344 10.707031 20.042969 C 12.242188 22.054688 14.785156 23.027344 17.273438 22.546875 L 16 20 C 13.789062 20 12 18.210938 12 16 C 12 13.789062 13.789062 12 16 12 C 18.128906 12 20 13.785156 20 16 L 16.667969 16 L 19.503906 21.671875 C 22.039062 20.105469 23.226562 17.046875 22.414062 14.179688 C 21.597656 11.3125 18.980469 9.332031 16 9.332031 Z M 16 9.332031 "/>
</g>
</svg>
