<?xml version="1.0" encoding="UTF-8"?>
<svg xmlns="http://www.w3.org/2000/svg" xmlns:xlink="http://www.w3.org/1999/xlink" width="32" height="32" viewBox="0 0 32 32" version="1.1">
<g id="surface1">
<path style=" stroke:none;fill-rule:nonzero;fill:rgb(0%,0%,0%);fill-opacity:1;" d="M 16 5.332031 C 10.109375 5.332031 5.332031 10.109375 5.332031 16 C 5.332031 21.890625 10.109375 26.667969 16 26.667969 C 21.890625 26.667969 26.667969 21.890625 26.667969 16 C 26.667969 10.109375 21.890625 5.332031 16 5.332031 Z M 16 2.667969 C 23.363281 2.667969 29.332031 8.636719 29.332031 16 C 29.332031 23.363281 23.363281 29.332031 16 29.332031 C 8.636719 29.332031 2.667969 23.363281 2.667969 16 C 2.667969 8.636719 8.636719 2.667969 16 2.667969 Z M 21.988281 14.71875 L 21.980469 14.738281 C 21.417969 15.9375 19.957031 18.285156 19.957031 18.285156 L 19.949219 18.269531 L 19.523438 19.011719 L 21.582031 19.011719 L 17.652344 24.238281 L 18.542969 20.683594 L 16.925781 20.683594 L 17.488281 18.332031 C 17.03125 18.441406 16.492188 18.59375 15.855469 18.796875 C 15.855469 18.796875 14.996094 19.300781 13.375 17.828125 C 13.375 17.828125 12.28125 16.863281 12.914062 16.625 C 13.183594 16.519531 14.222656 16.390625 15.039062 16.28125 C 16.148438 16.132812 16.824219 16.050781 16.824219 16.050781 C 16.824219 16.050781 13.417969 16.101562 12.609375 15.976562 C 11.800781 15.847656 10.777344 14.5 10.558594 13.316406 C 10.558594 13.316406 10.222656 12.664062 11.285156 12.972656 C 12.347656 13.28125 16.753906 14.171875 16.753906 14.171875 C 16.753906 14.171875 11.027344 12.414062 10.644531 11.988281 C 10.261719 11.558594 9.523438 9.648438 9.617188 8.476562 C 9.617188 8.476562 9.660156 8.179688 9.960938 8.261719 C 9.960938 8.261719 14.195312 10.195312 17.089844 11.253906 C 19.988281 12.316406 22.503906 12.851562 22.179688 14.226562 C 22.152344 14.339844 22.082031 14.511719 21.988281 14.71875 Z M 21.988281 14.71875 "/>
</g>
</svg>
