<?xml version="1.0" encoding="UTF-8"?>
<svg xmlns="http://www.w3.org/2000/svg" xmlns:xlink="http://www.w3.org/1999/xlink" width="32" height="32" viewBox="0 0 32 32" version="1.1">
<g id="surface1">
<path style=" stroke:none;fill-rule:nonzero;fill:rgb(0%,0%,0%);fill-opacity:1;" d="M 16 4.6875 L 4.6875 16 L 16 27.3125 L 27.3125 16 Z M 16.941406 1.855469 L 30.144531 15.058594 C 30.664062 15.578125 30.664062 16.421875 30.144531 16.941406 L 16.941406 30.144531 C 16.421875 30.664062 15.578125 30.664062 15.058594 30.144531 L 1.855469 16.941406 C 1.335938 16.421875 1.335938 15.578125 1.855469 15.058594 L 15.058594 1.855469 C 15.578125 1.335938 16.421875 1.335938 16.941406 1.855469 Z M 17.332031 13.332031 L 17.332031 10 L 22 14.667969 L 17.332031 19.332031 L 17.332031 16 L 13.332031 16 L 13.332031 20 L 10.667969 20 L 10.667969 14.667969 C 10.667969 13.929688 11.261719 13.332031 12 13.332031 Z M 17.332031 13.332031 "/>
</g>
</svg>
