<?xml version="1.0" encoding="UTF-8"?>
<svg xmlns="http://www.w3.org/2000/svg" xmlns:xlink="http://www.w3.org/1999/xlink" width="32" height="32" viewBox="0 0 32 32" version="1.1">
<g id="surface1">
<path style=" stroke:none;fill-rule:nonzero;fill:rgb(0%,0%,0%);fill-opacity:1;" d="M 20 6.109375 L 20 16 C 20 17.742188 18.871094 19.285156 17.210938 19.808594 C 15.550781 20.335938 13.738281 19.730469 12.734375 18.304688 C 11.726562 16.882812 11.757812 14.972656 12.808594 13.585938 C 13.859375 12.195312 15.691406 11.644531 17.332031 12.226562 L 17.332031 2.734375 C 24.070312 3.402344 29.332031 9.085938 29.332031 16 C 29.332031 23.363281 23.363281 29.332031 16 29.332031 C 8.636719 29.332031 2.667969 23.363281 2.667969 16 C 2.667969 9.085938 7.929688 3.402344 14.667969 2.734375 L 14.667969 5.414062 C 9.085938 6.125 5.015625 11.050781 5.367188 16.667969 C 5.71875 22.28125 10.371094 26.660156 16 26.667969 C 21.109375 26.667969 25.5 23.050781 26.476562 18.039062 C 27.453125 13.023438 24.734375 8.023438 20 6.109375 Z M 20 6.109375 "/>
</g>
</svg>
