<?xml version="1.0" encoding="UTF-8"?>
<svg xmlns="http://www.w3.org/2000/svg" xmlns:xlink="http://www.w3.org/1999/xlink" width="32" height="32" viewBox="0 0 32 32" version="1.1">
<g id="surface1">
<path style=" stroke:none;fill-rule:nonzero;fill:rgb(0%,0%,0%);fill-opacity:1;" d="M 15.933594 2.667969 C 23.296875 2.667969 29.265625 8.636719 29.265625 16 C 29.265625 23.363281 23.296875 29.332031 15.933594 29.332031 C 12.859375 29.332031 9.945312 28.289062 7.601562 26.410156 L 1.3125 27.199219 L 3.605469 21.082031 C 2.941406 19.484375 2.601562 17.765625 2.601562 16 C 2.601562 8.636719 8.570312 2.667969 15.933594 2.667969 Z M 15.933594 5.332031 C 10.042969 5.332031 5.265625 10.109375 5.265625 16 C 5.265625 17.570312 5.605469 19.089844 6.25 20.484375 L 6.484375 20.988281 L 5.355469 24.003906 L 8.441406 23.617188 L 8.894531 24.011719 C 10.828125 25.714844 13.304688 26.667969 15.933594 26.667969 C 21.824219 26.667969 26.601562 21.890625 26.601562 16 C 26.601562 10.109375 21.824219 5.332031 15.933594 5.332031 Z M 10.667969 9.332031 L 15.71875 9.332031 C 20.28125 9.332031 22.972656 11.941406 23.105469 15.636719 L 23.109375 15.925781 L 23.109375 15.960938 C 23.109375 19.714844 20.496094 22.523438 15.996094 22.660156 L 15.644531 22.667969 L 10.667969 22.667969 L 10.667969 9.332031 L 15.71875 9.332031 Z M 15.773438 12.609375 L 14.296875 12.609375 L 14.296875 19.390625 L 15.773438 19.390625 C 17.863281 19.390625 19.273438 18.265625 19.378906 16.265625 L 19.386719 16.019531 L 19.386719 15.984375 C 19.386719 13.847656 17.945312 12.609375 15.773438 12.609375 Z M 15.773438 12.609375 "/>
</g>
</svg>
