<?xml version="1.0" encoding="UTF-8"?>
<svg xmlns="http://www.w3.org/2000/svg" xmlns:xlink="http://www.w3.org/1999/xlink" width="32" height="32" viewBox="0 0 32 32" version="1.1">
<g id="surface1">
<path style=" stroke:none;fill-rule:nonzero;fill:rgb(0%,0%,0%);fill-opacity:1;" d="M 12 12 L 4 12 C 2.894531 12 2 12.894531 2 14 L 2 18 C 2 19.105469 2.894531 20 4 20 L 28 20 C 29.105469 20 30 19.105469 30 18 L 30 14 C 30 12.894531 29.105469 12 28 12 Z M 12 12 "/>
<path style=" stroke:none;fill-rule:evenodd;fill:rgb(0%,0%,0%);fill-opacity:1;" d="M 18.828125 7.515625 C 17.265625 9.078125 14.734375 9.078125 13.171875 7.515625 C 11.609375 5.953125 11.609375 3.421875 13.171875 1.859375 C 14.734375 0.296875 17.265625 0.296875 18.828125 1.859375 C 20.390625 3.421875 20.390625 5.953125 18.828125 7.515625 Z M 18.828125 7.515625 "/>
<path style=" stroke:none;fill-rule:evenodd;fill:rgb(0%,0%,0%);fill-opacity:1;" d="M 18.828125 30.140625 C 17.265625 31.703125 14.734375 31.703125 13.171875 30.140625 C 11.609375 28.578125 11.609375 26.046875 13.171875 24.484375 C 14.734375 22.921875 17.265625 22.921875 18.828125 24.484375 C 20.390625 26.046875 20.390625 28.578125 18.828125 30.140625 Z M 18.828125 30.140625 "/>
</g>
</svg>
