<?xml version="1.0" encoding="UTF-8"?>
<svg xmlns="http://www.w3.org/2000/svg" xmlns:xlink="http://www.w3.org/1999/xlink" width="32" height="32" viewBox="0 0 32 32" version="1.1">
<g id="surface1">
<path style=" stroke:none;fill-rule:nonzero;fill:rgb(0%,0%,0%);fill-opacity:1;" d="M 14 2 L 14 5.785156 C 13.355469 5.898438 12.773438 6.070312 12.257812 6.300781 C 11.257812 6.746094 10.472656 7.40625 9.898438 8.28125 C 9.335938 9.15625 9.054688 10.140625 9.054688 11.234375 C 9.054688 12.175781 9.273438 13.054688 9.710938 13.875 C 10.160156 14.683594 10.757812 15.339844 11.507812 15.84375 C 12.257812 16.34375 13.441406 16.808594 15.054688 17.238281 C 16.855469 17.71875 17.992188 18.066406 18.460938 18.277344 C 18.929688 18.476562 19.277344 18.738281 19.507812 19.054688 C 19.738281 19.375 19.851562 19.761719 19.851562 20.21875 C 19.851562 20.992188 19.523438 21.644531 18.867188 22.171875 C 18.210938 22.691406 17.308594 22.953125 16.164062 22.953125 C 13.851562 22.953125 12.488281 21.671875 12.070312 19.109375 L 8.367188 19.492188 C 8.804688 23.335938 10.695312 25.546875 14 26.167969 L 14 30 L 18 30 L 18 26.230469 C 19.628906 25.996094 20.898438 25.457031 21.789062 24.59375 C 23.019531 23.40625 23.632812 21.945312 23.632812 20.203125 C 23.632812 19 23.410156 17.980469 22.960938 17.140625 C 22.511719 16.292969 21.863281 15.605469 21.007812 15.078125 C 20.164062 14.539062 18.789062 14.027344 16.882812 13.546875 C 15.082031 13.097656 13.929688 12.6875 13.429688 12.316406 C 12.929688 11.941406 12.679688 11.480469 12.679688 10.933594 C 12.679688 10.378906 12.957031 9.914062 13.507812 9.539062 C 14.058594 9.167969 14.847656 8.980469 15.867188 8.980469 C 16.886719 8.980469 17.675781 9.195312 18.226562 9.621094 C 18.777344 10.050781 19.136719 10.800781 19.304688 11.878906 L 23.101562 11.699219 C 23.027344 9.75 22.371094 8.25 21.132812 7.203125 C 20.308594 6.503906 19.25 6.0625 18 5.828125 L 18 2 Z M 14 2 "/>
</g>
</svg>
