<?xml version="1.0" encoding="UTF-8"?>
<svg xmlns="http://www.w3.org/2000/svg" xmlns:xlink="http://www.w3.org/1999/xlink" width="32" height="32" viewBox="0 0 32 32" version="1.1">
<g id="surface1">
<path style=" stroke:none;fill-rule:nonzero;fill:rgb(0%,0%,0%);fill-opacity:1;" d="M 22.667969 2.667969 L 22.667969 5.332031 L 26.667969 5.332031 C 27.402344 5.332031 28 5.929688 28 6.667969 L 28 28 C 28 28.734375 27.402344 29.332031 26.667969 29.332031 L 5.332031 29.332031 C 4.597656 29.332031 4 28.734375 4 28 L 4 6.667969 C 4 5.929688 4.597656 5.332031 5.332031 5.332031 L 9.332031 5.332031 L 9.332031 2.667969 Z M 9.332031 8 L 6.667969 8 L 6.667969 26.667969 L 25.332031 26.667969 L 25.332031 8 L 22.667969 8 L 22.667969 10.667969 L 9.332031 10.667969 Z M 17.332031 14.667969 L 17.332031 17.332031 L 20 17.332031 L 20 20 L 17.332031 20 L 17.332031 22.667969 L 14.667969 22.667969 L 14.664062 20 L 12 20 L 12 17.332031 L 14.667969 17.332031 L 14.667969 14.667969 Z M 20 5.332031 L 12 5.332031 L 12 8 L 20 8 Z M 20 5.332031 "/>
</g>
</svg>
