<?xml version="1.0" encoding="UTF-8"?>
<svg xmlns="http://www.w3.org/2000/svg" xmlns:xlink="http://www.w3.org/1999/xlink" width="32" height="32" viewBox="0 0 32 32" version="1.1">
<g id="surface1">
<path style=" stroke:none;fill-rule:nonzero;fill:rgb(0%,0%,0%);fill-opacity:1;" d="M 25.890625 8.90625 C 27.261719 10.363281 28 12 28 14.652344 C 28 19.320312 24.722656 23.5 19.960938 25.570312 L 18.769531 23.730469 C 23.214844 21.328125 24.085938 18.207031 24.433594 16.238281 C 23.714844 16.609375 22.777344 16.738281 21.859375 16.652344 C 19.453125 16.429688 17.558594 14.453125 17.558594 12 C 17.558594 9.421875 19.648438 7.332031 22.226562 7.332031 C 23.65625 7.332031 25.023438 7.988281 25.890625 8.90625 Z M 12.554688 8.90625 C 13.929688 10.363281 14.667969 12 14.667969 14.652344 C 14.667969 19.320312 11.390625 23.5 6.625 25.570312 L 5.4375 23.730469 C 9.882812 21.328125 10.753906 18.207031 11.097656 16.238281 C 10.382812 16.609375 9.445312 16.738281 8.527344 16.652344 C 6.121094 16.429688 4.226562 14.453125 4.226562 12 C 4.226562 9.421875 6.316406 7.332031 8.894531 7.332031 C 10.324219 7.332031 11.691406 7.988281 12.558594 8.90625 Z M 12.554688 8.90625 "/>
</g>
</svg>
