<?xml version="1.0" encoding="UTF-8"?>
<svg xmlns="http://www.w3.org/2000/svg" xmlns:xlink="http://www.w3.org/1999/xlink" width="32" height="32" viewBox="0 0 32 32" version="1.1">
<g id="surface1">
<path style=" stroke:none;fill-rule:nonzero;fill:rgb(0%,0%,0%);fill-opacity:1;" d="M 9.332031 27.976562 C 5.597656 27.6875 2.46875 25.03125 1.578125 21.394531 C 0.6875 17.753906 2.238281 13.953125 5.417969 11.976562 C 6.101562 6.652344 10.632812 2.664062 16 2.664062 C 21.367188 2.664062 25.898438 6.652344 26.582031 11.976562 C 29.761719 13.953125 31.3125 17.753906 30.421875 21.394531 C 29.53125 25.03125 26.402344 27.6875 22.667969 27.976562 L 22.667969 28 L 9.332031 28 Z M 17.332031 16 L 17.332031 10.667969 L 14.667969 10.667969 L 14.667969 16 L 10.667969 16 L 16 22.667969 L 21.332031 16 Z M 17.332031 16 "/>
</g>
</svg>
