<?xml version="1.0" encoding="UTF-8"?>
<svg xmlns="http://www.w3.org/2000/svg" xmlns:xlink="http://www.w3.org/1999/xlink" width="32" height="32" viewBox="0 0 32 32" version="1.1">
<g id="surface1">
<path style=" stroke:none;fill-rule:nonzero;fill:rgb(0%,0%,0%);fill-opacity:1;" d="M 17.332031 17.332031 L 17.332031 24.78125 L 19.769531 22.34375 L 21.65625 24.230469 L 16 29.886719 L 10.34375 24.230469 L 12.230469 22.34375 L 14.667969 24.78125 L 14.667969 17.332031 Z M 16 2.667969 C 20.738281 2.667969 24.726562 6.21875 25.273438 10.925781 C 28.695312 11.859375 30.960938 15.109375 30.648438 18.644531 C 30.335938 22.179688 27.535156 24.984375 24 25.304688 L 24 22.667969 C 24.003906 18.304688 20.511719 14.742188 16.148438 14.660156 C 11.789062 14.578125 8.164062 18.007812 8.003906 22.367188 L 8 22.667969 L 8 25.304688 C 4.464844 24.984375 1.664062 22.183594 1.351562 18.644531 C 1.039062 15.109375 3.304688 11.859375 6.726562 10.925781 C 7.273438 6.21875 11.261719 2.667969 16 2.667969 Z M 16 2.667969 "/>
</g>
</svg>
