<?xml version="1.0" encoding="UTF-8"?>
<svg xmlns="http://www.w3.org/2000/svg" xmlns:xlink="http://www.w3.org/1999/xlink" width="32" height="32" viewBox="0 0 32 32" version="1.1">
<g id="surface1">
<path style=" stroke:none;fill-rule:nonzero;fill:rgb(0%,0%,0%);fill-opacity:1;" d="M 14.667969 14.667969 L 14.667969 7.769531 L 12.230469 10.210938 L 10.34375 8.324219 L 16 2.667969 L 21.65625 8.324219 L 19.769531 10.210938 L 17.332031 7.769531 L 17.332031 14.667969 L 24.230469 14.667969 L 21.789062 12.230469 L 23.675781 10.34375 L 29.332031 16 L 23.675781 21.65625 L 21.789062 19.769531 L 24.230469 17.332031 L 17.332031 17.332031 L 17.332031 24.230469 L 19.769531 21.789062 L 21.65625 23.675781 L 16 29.332031 L 10.34375 23.675781 L 12.230469 21.789062 L 14.667969 24.230469 L 14.667969 17.332031 L 7.769531 17.332031 L 10.210938 19.769531 L 8.324219 21.65625 L 2.667969 16 L 8.324219 10.34375 L 10.210938 12.230469 L 7.769531 14.667969 Z M 14.667969 14.667969 "/>
</g>
</svg>
