<?xml version="1.0" encoding="UTF-8"?>
<svg xmlns="http://www.w3.org/2000/svg" xmlns:xlink="http://www.w3.org/1999/xlink" width="32" height="32" viewBox="0 0 32 32" version="1.1">
<g id="surface1">
<path style=" stroke:none;fill-rule:nonzero;fill:rgb(0%,0%,0%);fill-opacity:1;" d="M 16 2.667969 C 8.640625 2.667969 2.667969 8.640625 2.667969 16 C 2.667969 23.359375 8.640625 29.332031 16 29.332031 C 23.347656 29.332031 29.332031 23.359375 29.332031 16 C 29.332031 8.640625 23.347656 2.667969 16 2.667969 Z M 24.808594 8.8125 C 26.449219 10.8125 27.355469 13.3125 27.378906 15.898438 C 27.003906 15.828125 23.246094 15.058594 19.457031 15.539062 C 19.371094 15.347656 19.296875 15.148438 19.210938 14.945312 C 18.976562 14.386719 18.722656 13.839844 18.457031 13.296875 C 22.652344 11.589844 24.5625 9.128906 24.808594 8.8125 Z M 16 4.632812 C 18.894531 4.632812 21.539062 5.71875 23.550781 7.496094 C 23.347656 7.785156 21.625 10.085938 17.574219 11.605469 C 15.710938 8.175781 13.644531 5.371094 13.324219 4.9375 C 14.199219 4.730469 15.097656 4.628906 16 4.632812 Z M 11.15625 5.703125 C 12.683594 7.820312 14.089844 10.015625 15.378906 12.285156 C 10.054688 13.703125 5.355469 13.671875 4.851562 13.671875 C 5.59375 10.175781 7.925781 7.230469 11.15625 5.703125 Z M 4.605469 16.011719 L 4.605469 15.667969 C 5.097656 15.679688 10.621094 15.753906 16.304688 14.046875 C 16.636719 14.683594 16.941406 15.332031 17.230469 15.984375 C 17.085938 16.027344 16.925781 16.070312 16.78125 16.113281 C 10.910156 18.007812 7.785156 23.183594 7.523438 23.621094 C 5.644531 21.53125 4.605469 18.824219 4.605469 16.011719 Z M 16 27.394531 C 13.46875 27.398438 11.007812 26.554688 9.015625 24.996094 C 9.21875 24.574219 11.53125 20.121094 17.953125 17.878906 C 17.980469 17.867188 17.996094 17.867188 18.023438 17.851562 C 19.105469 20.644531 19.921875 23.535156 20.453125 26.484375 C 19.046875 27.089844 17.53125 27.398438 16 27.394531 Z M 22.347656 25.441406 C 22.234375 24.75 21.625 21.421875 20.132812 17.332031 C 23.707031 16.765625 26.832031 17.691406 27.222656 17.824219 C 26.730469 20.929688 24.964844 23.691406 22.347656 25.441406 Z M 22.347656 25.441406 "/>
</g>
</svg>
