<?xml version="1.0" encoding="UTF-8"?>
<svg xmlns="http://www.w3.org/2000/svg" xmlns:xlink="http://www.w3.org/1999/xlink" width="32" height="32" viewBox="0 0 32 32" version="1.1">
<g id="surface1">
<path style=" stroke:none;fill-rule:nonzero;fill:rgb(0%,0%,0%);fill-opacity:1;" d="M 5.5 7.261719 C 4.75 7.261719 4.003906 8.261719 4 10.253906 L 0 10.253906 L 0 12.261719 L 12.003906 12.261719 L 12.003906 10.253906 L 7 10.253906 C 6.996094 8.261719 6.25 7.261719 5.5 7.261719 Z M 26.5 7.261719 C 25.75 7.261719 25.003906 8.261719 25 10.253906 L 20.003906 10.253906 L 20.003906 12.261719 L 31.992188 12.261719 L 31.992188 10.253906 L 28 10.253906 C 27.996094 8.261719 27.25 7.261719 26.5 7.261719 Z M 4.015625 12.761719 L 4.015625 17.855469 C 4.023438 18.675781 4.6875 19.339844 5.507812 19.34375 L 6.523438 19.34375 C 5.964844 20.746094 5.921875 22.136719 5.921875 23.242188 C 5.925781 24.0625 6.589844 24.726562 7.410156 24.734375 C 8.238281 24.738281 8.914062 24.070312 8.917969 23.242188 C 8.917969 21.621094 8.914062 20.597656 10.039062 19.34375 L 10.40625 19.34375 C 11.742188 21.140625 13.90625 21.949219 15.960938 21.898438 C 18.027344 21.847656 20.109375 20.988281 21.511719 19.34375 L 21.980469 19.34375 C 23.101562 20.597656 23.074219 21.617188 23.074219 23.242188 C 23.078125 24.070312 23.753906 24.738281 24.582031 24.734375 C 25.410156 24.738281 26.082031 24.070312 26.085938 23.242188 C 26.085938 22.136719 26.042969 20.746094 25.484375 19.34375 L 26.484375 19.34375 C 27.3125 19.347656 27.984375 18.683594 27.992188 17.855469 L 27.992188 12.761719 L 24.996094 12.761719 L 24.996094 16.347656 L 23.175781 16.347656 C 20.96875 14.5625 18.585938 13.542969 16.121094 13.542969 C 13.644531 13.542969 11.207031 14.5625 8.863281 16.347656 L 7.011719 16.347656 L 7.011719 12.761719 Z M 4.015625 12.761719 "/>
</g>
</svg>
