<?xml version="1.0" encoding="UTF-8"?>
<svg xmlns="http://www.w3.org/2000/svg" xmlns:xlink="http://www.w3.org/1999/xlink" width="32" height="32" viewBox="0 0 32 32" version="1.1">
<g id="surface1">
<path style=" stroke:none;fill-rule:nonzero;fill:rgb(0%,0%,0%);fill-opacity:1;" d="M 20 2.667969 L 26.277344 8.941406 C 26.527344 9.191406 26.667969 9.53125 26.667969 9.886719 L 26.667969 28 C 26.667969 28.738281 26.070312 29.332031 25.332031 29.332031 L 6.667969 29.332031 C 5.929688 29.332031 5.332031 28.738281 5.332031 28 L 5.332031 4 C 5.332031 3.261719 5.929688 2.667969 6.667969 2.667969 Z M 16 10 C 13.882812 10 12.132812 11.652344 12.007812 13.765625 L 12 14 L 14.667969 14 C 14.667969 13.40625 15.058594 12.886719 15.628906 12.71875 C 16.195312 12.554688 16.808594 12.785156 17.125 13.285156 C 17.441406 13.785156 17.394531 14.433594 17 14.878906 L 16.890625 14.992188 L 12 19.394531 L 12 21.332031 L 20 21.332031 L 20 18.667969 L 16.792969 18.667969 L 18.675781 16.972656 L 18.667969 16.960938 L 18.679688 16.96875 C 19.90625 15.863281 20.328125 14.109375 19.734375 12.566406 C 19.140625 11.019531 17.65625 10 16 10 Z M 16 10 "/>
</g>
</svg>
