<?xml version="1.0" encoding="UTF-8"?>
<svg xmlns="http://www.w3.org/2000/svg" xmlns:xlink="http://www.w3.org/1999/xlink" width="32" height="32" viewBox="0 0 32 32" version="1.1">
<g id="surface1">
<path style=" stroke:none;fill-rule:nonzero;fill:rgb(0%,0%,0%);fill-opacity:1;" d="M 15.476562 4 L 28 4 C 28.738281 4 29.332031 4.597656 29.332031 5.332031 L 29.332031 21.332031 C 29.332031 22.070312 28.738281 22.667969 28 22.667969 L 18.667969 22.667969 L 18.667969 20 L 26.667969 20 L 26.667969 6.667969 L 18.328125 6.667969 C 19.417969 8.230469 20.003906 10.09375 20 12 C 20.003906 15.054688 18.507812 17.917969 16 19.660156 L 16 28 C 16 28.738281 15.402344 29.332031 14.667969 29.332031 L 6.667969 29.332031 C 5.929688 29.332031 5.332031 28.738281 5.332031 28 L 5.332031 19.660156 C 2.425781 17.898438 0.707031 14.691406 0.847656 11.292969 C 0.988281 7.894531 2.964844 4.84375 6.007812 3.328125 C 9.050781 1.808594 12.679688 2.066406 15.476562 4 Z M 8 18.113281 L 8 26.667969 L 13.332031 26.667969 L 13.332031 18.113281 C 16.226562 16.847656 17.839844 13.730469 17.195312 10.636719 C 16.550781 7.546875 13.824219 5.332031 10.667969 5.332031 C 7.507812 5.332031 4.785156 7.546875 4.140625 10.636719 C 3.496094 13.730469 5.105469 16.847656 8 18.113281 Z M 10.667969 16 C 8.457031 16 6.667969 14.210938 6.667969 12 C 6.667969 9.789062 8.457031 8 10.667969 8 C 12.875 8 14.667969 9.789062 14.667969 12 C 14.667969 14.210938 12.875 16 10.667969 16 Z M 10.667969 13.332031 C 11.402344 13.332031 12 12.738281 12 12 C 12 11.261719 11.402344 10.667969 10.667969 10.667969 C 9.929688 10.667969 9.332031 11.261719 9.332031 12 C 9.332031 12.738281 9.929688 13.332031 10.667969 13.332031 Z M 22.667969 9.332031 L 25.332031 9.332031 L 25.332031 12 L 22.667969 12 Z M 9.332031 22.667969 L 12 22.667969 L 12 25.332031 L 9.332031 25.332031 Z M 9.332031 22.667969 "/>
</g>
</svg>
