<?xml version="1.0" encoding="UTF-8"?>
<svg xmlns="http://www.w3.org/2000/svg" xmlns:xlink="http://www.w3.org/1999/xlink" width="32" height="32" viewBox="0 0 32 32" version="1.1">
<g id="surface1">
<path style=" stroke:none;fill-rule:nonzero;fill:rgb(0%,0%,0%);fill-opacity:1;" d="M 16 29.332031 C 8.636719 29.332031 2.667969 23.363281 2.667969 16 C 2.667969 8.636719 8.636719 2.667969 16 2.667969 C 23.363281 2.667969 29.332031 8.636719 29.332031 16 C 29.332031 23.363281 23.363281 29.332031 16 29.332031 Z M 24.472656 21.269531 L 24.472656 21.128906 C 24.472656 19.898438 24.472656 19.339844 23.605469 18.839844 C 23.324219 18.683594 23.039062 18.539062 22.742188 18.40625 C 22.253906 18.183594 21.929688 18.039062 21.492188 17.398438 C 21.441406 17.324219 21.390625 17.246094 21.339844 17.171875 C 20.878906 16.46875 20.546875 15.964844 19.28125 16.167969 C 16.796875 16.5625 16.613281 17 16.503906 17.738281 L 16.484375 17.859375 C 16.324219 18.9375 16.292969 19.300781 16.746094 19.773438 C 18.433594 21.542969 19.441406 22.820312 19.75 23.566406 C 19.898438 23.929688 20.28125 25.035156 20.019531 26.125 C 21.636719 25.480469 23.078125 24.457031 24.21875 23.140625 C 24.367188 22.644531 24.472656 22.019531 24.472656 21.269531 Z M 16 5.109375 C 12.910156 5.109375 10.121094 6.398438 8.136719 8.464844 C 8.375 8.628906 8.578125 8.859375 8.722656 9.175781 C 8.992188 9.785156 8.992188 10.414062 8.992188 10.96875 C 8.992188 11.40625 8.992188 11.824219 9.132812 12.125 C 9.324219 12.535156 10.15625 12.710938 10.886719 12.863281 C 11.148438 12.917969 11.417969 12.976562 11.664062 13.042969 C 12.339844 13.230469 12.863281 13.835938 13.277344 14.324219 C 13.453125 14.523438 13.710938 14.820312 13.839844 14.894531 C 13.90625 14.847656 14.121094 14.613281 14.226562 14.230469 C 14.308594 13.9375 14.285156 13.679688 14.164062 13.539062 C 13.417969 12.660156 13.460938 10.964844 13.691406 10.339844 C 14.054688 9.355469 15.1875 9.429688 16.015625 9.480469 C 16.324219 9.5 16.617188 9.519531 16.835938 9.492188 C 17.664062 9.390625 17.921875 8.125 18.101562 7.878906 C 18.488281 7.347656 19.679688 6.542969 20.421875 6.046875 C 19.027344 5.429688 17.523438 5.109375 16 5.109375 Z M 16 5.109375 "/>
</g>
</svg>
