<?xml version="1.0" encoding="UTF-8"?>
<svg xmlns="http://www.w3.org/2000/svg" xmlns:xlink="http://www.w3.org/1999/xlink" width="32" height="32" viewBox="0 0 32 32" version="1.1">
<g id="surface1">
<path style=" stroke:none;fill-rule:nonzero;fill:rgb(0%,0%,0%);fill-opacity:1;" d="M 16 2.667969 C 23.363281 2.667969 29.332031 8.636719 29.332031 16 C 29.332031 23.363281 23.363281 29.332031 16 29.332031 C 8.636719 29.332031 2.667969 23.363281 2.667969 16 C 2.667969 8.636719 8.636719 2.667969 16 2.667969 Z M 16 14.667969 C 13.332031 14.667969 11.109375 15.109375 9.332031 16 C 9.332031 19.683594 12.316406 22.667969 16 22.667969 C 19.683594 22.667969 22.667969 19.683594 22.667969 16 C 20.890625 15.109375 18.667969 14.667969 16 14.667969 Z M 11.332031 9.332031 C 9.796875 9.332031 8.503906 10.375 8.117188 11.785156 L 8.066406 12 L 14.601562 12 C 14.28125 10.449219 12.917969 9.332031 11.332031 9.332031 Z M 20.667969 9.332031 C 19.128906 9.332031 17.835938 10.375 17.449219 11.785156 L 17.398438 12 L 23.933594 12 C 23.617188 10.449219 22.25 9.332031 20.667969 9.332031 Z M 20.667969 9.332031 "/>
</g>
</svg>
