<?xml version="1.0" encoding="UTF-8"?>
<svg xmlns="http://www.w3.org/2000/svg" xmlns:xlink="http://www.w3.org/1999/xlink" width="32" height="32" viewBox="0 0 32 32" version="1.1">
<g id="surface1">
<path style=" stroke:none;fill-rule:nonzero;fill:rgb(0%,0%,0%);fill-opacity:1;" d="M 16 2.667969 C 23.363281 2.667969 29.332031 8.636719 29.332031 16 C 29.335938 18.082031 28.851562 20.136719 27.914062 21.996094 C 27.816406 21.613281 27.632812 21.261719 27.382812 20.960938 L 27.21875 20.78125 L 25.332031 18.894531 L 23.449219 20.78125 L 23.292969 20.949219 C 22.601562 21.773438 22.46875 22.925781 22.957031 23.882812 C 23.445312 24.835938 24.460938 25.40625 25.53125 25.328125 C 23.023438 27.894531 19.585938 29.335938 16 29.332031 C 8.636719 29.332031 2.667969 23.363281 2.667969 16 C 2.667969 8.636719 8.636719 2.667969 16 2.667969 Z M 16 20 C 14.160156 20 12.492188 20.746094 11.289062 21.949219 L 11.066406 22.183594 L 12.328125 23.328125 C 13.378906 22.910156 14.644531 22.667969 16 22.667969 C 17.207031 22.667969 18.339844 22.859375 19.316406 23.195312 L 19.671875 23.328125 L 20.933594 22.179688 C 19.671875 20.789062 17.878906 19.996094 16 20 Z M 11.332031 13.332031 C 10.230469 13.332031 9.332031 14.230469 9.332031 15.332031 C 9.332031 16.4375 10.230469 17.332031 11.332031 17.332031 C 12.4375 17.332031 13.332031 16.4375 13.332031 15.332031 C 13.332031 14.230469 12.4375 13.332031 11.332031 13.332031 Z M 20.667969 13.332031 C 19.5625 13.332031 18.667969 14.230469 18.667969 15.332031 C 18.667969 16.4375 19.5625 17.332031 20.667969 17.332031 C 21.769531 17.332031 22.667969 16.4375 22.667969 15.332031 C 22.667969 14.230469 21.769531 13.332031 20.667969 13.332031 Z M 20.667969 13.332031 "/>
</g>
</svg>
