<?xml version="1.0" encoding="UTF-8"?>
<svg xmlns="http://www.w3.org/2000/svg" xmlns:xlink="http://www.w3.org/1999/xlink" width="32" height="32" viewBox="0 0 32 32" version="1.1">
<g id="surface1">
<path style=" stroke:none;fill-rule:nonzero;fill:rgb(0%,0%,0%);fill-opacity:1;" d="M 24.484375 14.640625 C 26.566406 16.722656 26.566406 20.097656 24.484375 22.179688 L 16.941406 29.722656 C 16.421875 30.242188 15.578125 30.242188 15.058594 29.722656 L 7.515625 22.179688 C 5.433594 20.097656 5.433594 16.722656 7.515625 14.636719 C 9.597656 12.554688 12.976562 12.554688 15.058594 14.636719 L 16 15.582031 L 16.941406 14.636719 C 19.023438 12.554688 22.402344 12.554688 24.484375 14.636719 Z M 9.398438 16.523438 C 8.359375 17.5625 8.359375 19.253906 9.398438 20.292969 L 16 26.894531 L 22.601562 20.292969 C 23.640625 19.253906 23.640625 17.5625 22.601562 16.523438 C 21.558594 15.484375 19.871094 15.484375 18.828125 16.523438 L 15.996094 19.347656 L 13.171875 16.523438 C 12.128906 15.484375 10.441406 15.484375 9.398438 16.523438 Z M 16 1.332031 C 18.945312 1.332031 21.332031 3.71875 21.332031 6.667969 C 21.332031 9.613281 18.945312 12 16 12 C 13.054688 12 10.667969 9.613281 10.667969 6.667969 C 10.667969 3.71875 13.054688 1.332031 16 1.332031 Z M 16 4 C 14.527344 4 13.332031 5.191406 13.332031 6.667969 C 13.332031 8.140625 14.527344 9.332031 16 9.332031 C 17.472656 9.332031 18.667969 8.140625 18.667969 6.667969 C 18.667969 5.191406 17.472656 4 16 4 Z M 16 4 "/>
</g>
</svg>
