<?xml version="1.0" encoding="UTF-8"?>
<svg xmlns="http://www.w3.org/2000/svg" xmlns:xlink="http://www.w3.org/1999/xlink" width="32" height="32" viewBox="0 0 32 32" version="1.1">
<g id="surface1">
<path style=" stroke:none;fill-rule:evenodd;fill:rgb(0%,0%,0%);fill-opacity:1;" d="M 0 14 L 4 14 L 4 26 L 0 26 Z M 0 14 "/>
<path style=" stroke:none;fill-rule:nonzero;fill:rgb(0%,0%,0%);fill-opacity:1;" d="M 12.003906 9.996094 C 11.246094 9.996094 10.554688 10.425781 10.214844 11.101562 L 8.769531 13.996094 L 5.992188 13.996094 L 5.992188 24.007812 C 5.996094 24.539062 6.207031 25.046875 6.585938 25.421875 C 6.960938 25.792969 7.472656 26.003906 8.003906 26 L 9.523438 26 L 13.109375 27.785156 C 13.382812 27.925781 13.6875 28.003906 13.996094 28.007812 L 21.996094 28.007812 C 22.308594 28.003906 22.621094 27.929688 22.898438 27.785156 L 26.472656 26 L 28.007812 26 C 28.101562 27.03125 28.964844 27.820312 30 27.820312 C 31.035156 27.820312 31.898438 27.03125 31.992188 26 L 31.992188 16.195312 C 31.996094 16.132812 31.996094 16.066406 31.992188 16.003906 L 31.992188 13.996094 C 31.898438 12.964844 31.035156 12.175781 30 12.175781 C 28.964844 12.175781 28.101562 12.964844 28.007812 13.996094 L 26.824219 13.996094 L 23.414062 10.585938 C 23.039062 10.207031 22.527344 9.996094 21.996094 9.996094 Z M 12.003906 9.996094 "/>
<path style=" stroke:none;fill-rule:evenodd;fill:rgb(0%,0%,0%);fill-opacity:1;" d="M 12 4 L 22 4 L 22 8 L 12 8 Z M 12 4 "/>
</g>
</svg>
