<?xml version="1.0" encoding="UTF-8"?>
<svg xmlns="http://www.w3.org/2000/svg" xmlns:xlink="http://www.w3.org/1999/xlink" width="32" height="32" viewBox="0 0 32 32" version="1.1">
<g id="surface1">
<path style=" stroke:none;fill-rule:nonzero;fill:rgb(0%,0%,0%);fill-opacity:1;" d="M 8.226562 24 C 8.792969 22.398438 10.304688 21.328125 12 21.328125 C 13.695312 21.328125 15.207031 22.398438 15.773438 24 L 29.332031 24 L 29.332031 26.667969 L 15.773438 26.667969 C 15.207031 28.265625 13.695312 29.335938 12 29.335938 C 10.304688 29.335938 8.792969 28.265625 8.226562 26.667969 L 2.667969 26.667969 L 2.667969 24 Z M 16.226562 14.667969 C 16.792969 13.066406 18.304688 11.996094 20 11.996094 C 21.695312 11.996094 23.207031 13.066406 23.773438 14.667969 L 29.332031 14.667969 L 29.332031 17.332031 L 23.773438 17.332031 C 23.207031 18.933594 21.695312 20.003906 20 20.003906 C 18.304688 20.003906 16.792969 18.933594 16.226562 17.332031 L 2.667969 17.332031 L 2.667969 14.667969 Z M 8.226562 5.332031 C 8.792969 3.734375 10.304688 2.664062 12 2.664062 C 13.695312 2.664062 15.207031 3.734375 15.773438 5.332031 L 29.332031 5.332031 L 29.332031 8 L 15.773438 8 C 15.207031 9.601562 13.695312 10.671875 12 10.671875 C 10.304688 10.671875 8.792969 9.601562 8.226562 8 L 2.667969 8 L 2.667969 5.332031 Z M 8.226562 5.332031 "/>
</g>
</svg>
