<?xml version="1.0" encoding="UTF-8"?>
<svg xmlns="http://www.w3.org/2000/svg" xmlns:xlink="http://www.w3.org/1999/xlink" width="32" height="32" viewBox="0 0 32 32" version="1.1">
<g id="surface1">
<path style=" stroke:none;fill-rule:nonzero;fill:rgb(0%,0%,0%);fill-opacity:1;" d="M 25.832031 20.136719 C 27.605469 15.921875 26.496094 11.046875 23.074219 8.011719 C 19.652344 4.980469 14.675781 4.46875 10.707031 6.738281 L 9.382812 4.421875 C 13.5 2.066406 18.558594 2.078125 22.667969 4.453125 C 28.652344 7.910156 30.945312 15.308594 28.15625 21.480469 L 29.945312 22.511719 L 24.390625 25.464844 L 24.171875 19.179688 Z M 6.167969 11.863281 C 4.394531 16.078125 5.503906 20.953125 8.925781 23.988281 C 12.347656 27.019531 17.324219 27.53125 21.292969 25.261719 L 22.617188 27.578125 C 18.5 29.933594 13.441406 29.921875 9.332031 27.546875 C 3.347656 24.089844 1.054688 16.691406 3.84375 10.519531 L 2.054688 9.488281 L 7.605469 6.539062 L 7.828125 12.824219 L 6.164062 11.863281 Z M 11.332031 18.667969 L 18.667969 18.667969 C 19.035156 18.667969 19.332031 18.367188 19.332031 18 C 19.332031 17.632812 19.035156 17.332031 18.667969 17.332031 L 13.332031 17.332031 C 11.492188 17.332031 10 15.839844 10 14 C 10 12.160156 11.492188 10.667969 13.332031 10.667969 L 14.667969 10.667969 L 14.667969 9.332031 L 17.332031 9.332031 L 17.332031 10.667969 L 20.667969 10.667969 L 20.667969 13.332031 L 13.332031 13.332031 C 12.964844 13.332031 12.667969 13.632812 12.667969 14 C 12.667969 14.367188 12.964844 14.667969 13.332031 14.667969 L 18.667969 14.667969 C 20.507812 14.667969 22 16.160156 22 18 C 22 19.839844 20.507812 21.332031 18.667969 21.332031 L 17.332031 21.332031 L 17.332031 22.667969 L 14.667969 22.667969 L 14.667969 21.332031 L 11.332031 21.332031 Z M 11.332031 18.667969 "/>
</g>
</svg>
