<?xml version="1.0" encoding="UTF-8"?>
<svg xmlns="http://www.w3.org/2000/svg" xmlns:xlink="http://www.w3.org/1999/xlink" width="32" height="32" viewBox="0 0 32 32" version="1.1">
<g id="surface1">
<path style=" stroke:none;fill-rule:nonzero;fill:rgb(0%,0%,0%);fill-opacity:1;" d="M 16 4 C 23.1875 4 29.171875 9.171875 30.425781 16 C 29.171875 22.828125 23.1875 28 16 28 C 8.8125 28 2.828125 22.828125 1.574219 16 C 2.828125 9.171875 8.8125 4 16 4 Z M 16 25.332031 C 21.601562 25.332031 26.457031 21.460938 27.703125 16 C 26.453125 10.546875 21.597656 6.679688 16 6.679688 C 10.402344 6.679688 5.546875 10.546875 4.296875 16 C 5.542969 21.460938 10.398438 25.332031 16 25.332031 Z M 16 22 C 12.6875 22 10 19.3125 10 16 C 10 12.6875 12.6875 10 16 10 C 19.3125 10 22 12.6875 22 16 C 22 19.3125 19.3125 22 16 22 Z M 16 19.332031 C 17.839844 19.332031 19.332031 17.839844 19.332031 16 C 19.332031 14.160156 17.839844 12.667969 16 12.667969 C 14.160156 12.667969 12.667969 14.160156 12.667969 16 C 12.667969 17.839844 14.160156 19.332031 16 19.332031 Z M 16 19.332031 "/>
</g>
</svg>
