<?xml version="1.0" encoding="UTF-8"?>
<svg xmlns="http://www.w3.org/2000/svg" xmlns:xlink="http://www.w3.org/1999/xlink" width="32" height="32" viewBox="0 0 32 32" version="1.1">
<g id="surface1">
<path style=" stroke:none;fill-rule:nonzero;fill:rgb(0%,0%,0%);fill-opacity:1;" d="M 6.027344 7.910156 L 1.855469 3.742188 L 3.742188 1.855469 L 30.144531 28.257812 L 28.257812 30.144531 L 23.84375 25.730469 C 21.496094 27.214844 18.777344 28.003906 16 28 C 8.8125 28 2.828125 22.828125 1.574219 16 C 2.148438 12.894531 3.710938 10.058594 6.027344 7.910156 Z M 19.675781 21.5625 L 17.722656 19.609375 C 16.195312 20.34375 14.367188 20.03125 13.167969 18.832031 C 11.96875 17.632812 11.65625 15.804688 12.390625 14.277344 L 10.4375 12.324219 C 8.6875 14.96875 9.042969 18.476562 11.28125 20.71875 C 13.523438 22.957031 17.03125 23.3125 19.675781 21.5625 Z M 10.632812 5.011719 C 12.292969 4.359375 14.105469 4 16 4 C 23.1875 4 29.171875 9.171875 30.425781 16 C 30.015625 18.222656 29.097656 20.316406 27.742188 22.121094 L 22.597656 16.976562 C 22.90625 14.886719 22.207031 12.777344 20.714844 11.28125 C 19.222656 9.789062 17.109375 9.09375 15.023438 9.402344 L 10.632812 5.015625 Z M 10.632812 5.011719 "/>
</g>
</svg>
