<?xml version="1.0" encoding="UTF-8"?>
<svg xmlns="http://www.w3.org/2000/svg" xmlns:xlink="http://www.w3.org/1999/xlink" width="32" height="32" viewBox="0 0 32 32" version="1.1">
<g id="surface1">
<path style=" stroke:none;fill-rule:nonzero;fill:rgb(0%,0%,0%);fill-opacity:1;" d="M 18.667969 25.332031 L 25.332031 25.332031 L 25.332031 6.667969 L 6.667969 6.667969 L 6.667969 25.332031 L 16 25.332031 L 16 18.667969 L 13.332031 18.667969 L 13.332031 16 L 16 16 L 16 13.792969 C 16 12.011719 16.1875 11.367188 16.535156 10.714844 C 16.875 10.066406 17.402344 9.539062 18.046875 9.199219 C 18.558594 8.925781 19.191406 8.761719 20.296875 8.691406 C 20.734375 8.664062 21.304688 8.699219 22 8.796875 L 22 11.332031 L 21.332031 11.332031 C 20.109375 11.332031 19.605469 11.390625 19.304688 11.550781 C 19.125 11.644531 18.976562 11.789062 18.886719 11.96875 C 18.726562 12.269531 18.667969 12.570312 18.667969 13.792969 L 18.667969 16 L 22 16 L 21.332031 18.667969 L 18.667969 18.667969 Z M 5.332031 4 L 26.667969 4 C 27.402344 4 28 4.597656 28 5.332031 L 28 26.667969 C 28 27.402344 27.402344 28 26.667969 28 L 5.332031 28 C 4.597656 28 4 27.402344 4 26.667969 L 4 5.332031 C 4 4.597656 4.597656 4 5.332031 4 Z M 5.332031 4 "/>
</g>
</svg>
