<?xml version="1.0" encoding="UTF-8"?>
<svg xmlns="http://www.w3.org/2000/svg" xmlns:xlink="http://www.w3.org/1999/xlink" width="32" height="32" viewBox="0 0 32 32" version="1.1">
<g id="surface1">
<path style="fill-rule:nonzero;fill:rgb(0%,0%,0%);fill-opacity:1;stroke-width:0.0448137;stroke-linecap:butt;stroke-linejoin:miter;stroke:rgb(0%,0%,0%);stroke-opacity:1;stroke-miterlimit:4;" d="M 3.28197 4.127914 C 3.161564 4.092257 3.075781 4.012675 3.001884 3.867981 C 2.98328 3.831291 2.94349 3.726388 2.913517 3.635437 C 2.817916 3.343982 2.747119 3.225643 2.536279 3.008602 L 2.451013 2.920752 L 2.393136 2.950724 C 2.297534 3.000334 2.212785 3.017904 2.099097 3.012736 L 2.002978 3.007568 L 1.969906 3.077848 C 1.907894 3.21169 1.771468 3.392558 1.593701 3.578076 C 1.314132 3.869531 1.068669 4.013709 0.829407 4.026628 C 0.595829 4.03903 0.409277 3.922758 0.243396 3.660759 C 0.100252 3.434933 0.021704 3.19412 0.0222207 2.98173 C 0.0227375 2.708879 0.134359 2.540414 0.346232 2.493388 C 0.428397 2.475301 0.573608 2.482536 0.702283 2.511991 C 0.996838 2.579171 1.147217 2.57607 1.42937 2.495972 L 1.560111 2.458765 L 1.566313 2.382284 C 1.575098 2.257743 1.616955 2.143022 1.685685 2.055172 C 1.700671 2.035535 1.71359 2.016414 1.71359 2.013314 C 1.71359 2.009697 1.704289 1.995744 1.69292 1.981791 C 1.5875 1.851567 1.430404 1.394747 1.387512 1.093473 C 1.349272 0.824756 1.368909 0.613399 1.44694 0.448551 C 1.567346 0.19482 1.813326 0.0795817 2.199866 0.0950846 C 2.566768 0.110071 2.849955 0.252698 2.955375 0.474906 C 3.008085 0.586528 3.002917 0.705383 2.938839 0.84491 C 2.901632 0.926042 2.85564 0.992188 2.752804 1.111043 C 2.565735 1.328084 2.492871 1.470711 2.423108 1.758032 C 2.409672 1.814876 2.396236 1.866553 2.393652 1.873788 C 2.390552 1.882056 2.406055 1.897559 2.442745 1.92288 C 2.539897 1.989026 2.639632 2.117184 2.669088 2.215369 L 2.678389 2.245341 L 2.828768 2.245858 C 2.997233 2.246375 3.121256 2.264978 3.342432 2.324406 C 3.565157 2.383834 3.755326 2.466516 3.897953 2.565218 C 4.175456 2.757455 4.272607 3.033923 4.174422 3.348633 C 4.10931 3.555855 3.940328 3.819922 3.788399 3.951697 C 3.618901 4.098458 3.418913 4.168221 3.282487 4.127914 Z M 2.208651 2.834452 C 2.368848 2.803447 2.506307 2.654102 2.531628 2.483569 C 2.571936 2.210718 2.336291 1.964738 2.074292 2.007113 C 1.903243 2.034501 1.762166 2.181779 1.735811 2.360063 C 1.693953 2.641183 1.9389 2.886646 2.208651 2.834452 Z M 2.208651 2.834452 " transform="matrix(7.559055,0,0,7.559055,0.00000113386,0)"/>
</g>
</svg>
