<?xml version="1.0" encoding="UTF-8"?>
<svg xmlns="http://www.w3.org/2000/svg" xmlns:xlink="http://www.w3.org/1999/xlink" width="32" height="32" viewBox="0 0 32 32" version="1.1">
<g id="surface1">
<path style=" stroke:none;fill-rule:nonzero;fill:rgb(0%,0%,0%);fill-opacity:1;" d="M 28 9.007812 L 25.332031 11.675781 L 25.332031 5.332031 L 13.332031 5.332031 L 13.332031 12 L 6.667969 12 L 6.667969 26.667969 L 25.332031 26.667969 L 25.332031 22.992188 L 28 20.324219 L 28 28.011719 C 28 28.742188 27.40625 29.332031 26.675781 29.332031 L 5.324219 29.332031 C 4.585938 29.328125 3.996094 28.726562 4 27.992188 L 4 10.667969 L 12.003906 2.667969 L 26.664062 2.667969 C 27.398438 2.667969 28 3.273438 28 3.988281 Z M 29.039062 11.742188 L 30.921875 13.628906 L 20.550781 24 L 18.664062 23.996094 L 18.667969 22.113281 Z M 29.039062 11.742188 "/>
</g>
</svg>
