<?xml version="1.0" encoding="UTF-8"?>
<svg xmlns="http://www.w3.org/2000/svg" xmlns:xlink="http://www.w3.org/1999/xlink" width="32" height="32" viewBox="0 0 32 32" version="1.1">
<g id="surface1">
<path style=" stroke:none;fill-rule:nonzero;fill:rgb(0%,0%,0%);fill-opacity:1;" d="M 21.332031 2.667969 L 28 9.332031 L 28 28.011719 C 28 28.742188 27.40625 29.332031 26.675781 29.332031 L 5.324219 29.332031 C 4.59375 29.328125 4.003906 28.738281 4 28.011719 L 4 3.988281 C 4 3.257812 4.59375 2.667969 5.324219 2.667969 Z M 20 14.667969 L 20 13.332031 C 20 11.125 18.210938 9.332031 16 9.332031 C 13.789062 9.332031 12 11.125 12 13.332031 L 12 14.667969 L 10.667969 14.667969 L 10.667969 21.332031 L 21.332031 21.332031 L 21.332031 14.667969 Z M 17.332031 14.667969 L 14.667969 14.667969 L 14.667969 13.332031 C 14.667969 12.597656 15.261719 12 16 12 C 16.738281 12 17.332031 12.597656 17.332031 13.332031 Z M 17.332031 14.667969 "/>
</g>
</svg>
