<?xml version="1.0" encoding="UTF-8"?>
<svg xmlns="http://www.w3.org/2000/svg" xmlns:xlink="http://www.w3.org/1999/xlink" width="32" height="32" viewBox="0 0 32 32" version="1.1">
<g id="surface1">
<path style=" stroke:none;fill-rule:nonzero;fill:rgb(0%,0%,0%);fill-opacity:1;" d="M 21.332031 10.667969 L 21.332031 13.332031 L 17.332031 13.332031 L 17.332031 19.332031 C 17.332031 20.742188 16.445312 22 15.117188 22.472656 C 13.789062 22.945312 12.308594 22.53125 11.417969 21.441406 C 10.527344 20.347656 10.417969 18.8125 11.148438 17.609375 C 11.875 16.402344 13.285156 15.785156 14.667969 16.066406 L 14.667969 10.667969 L 20 10.667969 L 20 5.332031 L 6.667969 5.332031 L 6.667969 26.667969 L 25.332031 26.667969 L 25.332031 10.667969 Z M 4 3.988281 C 4 3.257812 4.597656 2.667969 5.332031 2.667969 L 21.332031 2.667969 L 28 9.332031 L 28 27.992188 C 28.003906 28.726562 27.414062 29.328125 26.675781 29.332031 L 5.324219 29.332031 C 4.59375 29.328125 4.003906 28.738281 4 28.011719 Z M 4 3.988281 "/>
</g>
</svg>
