<?xml version="1.0" encoding="UTF-8"?>
<svg xmlns="http://www.w3.org/2000/svg" xmlns:xlink="http://www.w3.org/1999/xlink" width="32" height="32" viewBox="0 0 32 32" version="1.1">
<g id="surface1">
<path style=" stroke:none;fill-rule:nonzero;fill:rgb(0%,0%,0%);fill-opacity:1;" d="M 3.003906 -0.00390625 C 2.449219 -0.0078125 1.996094 0.445312 2 1 L 2 31 C 1.996094 31.554688 2.449219 32.007812 3.003906 32.003906 L 24.996094 32.003906 C 25.148438 32.003906 25.285156 31.964844 25.414062 31.90625 L 23.386719 29.996094 L 22.539062 29.996094 C 21.820312 30.222656 21.085938 30.394531 20.292969 30.394531 C 19.457031 30.394531 18.664062 30.230469 17.898438 29.996094 L 3.992188 29.996094 L 3.992188 2.003906 L 18.003906 2.003906 L 18.007812 6.996094 C 18.003906 7.546875 18.449219 7.992188 19 8 L 24 8 L 24 14.746094 C 24.734375 15.121094 25.410156 15.578125 26 16.144531 L 26 6.992188 C 25.996094 6.730469 25.894531 6.484375 25.710938 6.300781 L 19.730469 0.292969 C 19.542969 0.105469 19.289062 -0.00390625 19.023438 -0.00390625 Z M 3.003906 -0.00390625 "/>
<path style=" stroke:none;fill-rule:nonzero;fill:rgb(0%,0%,0%);fill-opacity:1;" d="M 20.292969 15.824219 C 16.835938 15.824219 14 18.648438 14 22.105469 C 14 25.5625 16.835938 28.394531 20.292969 28.394531 C 21.503906 28.394531 22.632812 28.039062 23.59375 27.441406 L 28.101562 31.691406 C 28.550781 32.117188 29.261719 32.101562 29.6875 31.652344 C 30.121094 31.199219 30.101562 30.484375 29.648438 30.054688 L 25.265625 25.921875 C 26.082031 24.859375 26.574219 23.539062 26.574219 22.105469 C 26.574219 18.648438 23.75 15.824219 20.292969 15.824219 Z M 20.292969 18.074219 C 22.53125 18.074219 24.320312 19.863281 24.320312 22.105469 C 24.320312 24.34375 22.53125 26.144531 20.292969 26.144531 C 18.050781 26.144531 16.253906 24.34375 16.253906 22.105469 C 16.253906 19.863281 18.050781 18.074219 20.292969 18.074219 Z M 20.292969 18.074219 "/>
<path style=" stroke:none;fill-rule:nonzero;fill:rgb(0%,0%,0%);fill-opacity:1;" d="M 23.851562 26.140625 L 28.871094 30.875 "/>
</g>
</svg>
