<?xml version="1.0" encoding="UTF-8"?>
<svg xmlns="http://www.w3.org/2000/svg" xmlns:xlink="http://www.w3.org/1999/xlink" width="32" height="32" viewBox="0 0 32 32" version="1.1">
<g id="surface1">
<path style=" stroke:none;fill-rule:nonzero;fill:rgb(0%,0%,0%);fill-opacity:1;" d="M 21.332031 2.667969 L 28 9.332031 L 28 27.992188 C 28.003906 28.726562 27.414062 29.328125 26.675781 29.332031 L 5.324219 29.332031 C 4.59375 29.328125 4.003906 28.738281 4 28.011719 L 4 3.988281 C 4 3.257812 4.597656 2.667969 5.332031 2.667969 Z M 12.445312 19.554688 L 10.667969 19.554688 L 10.667969 24 L 21.332031 24 L 21.332031 22.222656 L 12.445312 22.222656 Z M 16 19.109375 C 15.261719 19.109375 14.667969 19.707031 14.667969 20.445312 C 14.667969 21.179688 15.261719 21.777344 16 21.777344 C 16.738281 21.777344 17.332031 21.179688 17.332031 20.445312 C 17.332031 19.707031 16.738281 19.109375 16 19.109375 Z M 16 12 C 14.160156 12 12.667969 13.492188 12.667969 15.332031 C 12.667969 17.175781 14.160156 18.667969 16 18.667969 C 17.839844 18.667969 19.332031 17.175781 19.332031 15.332031 C 19.332031 13.492188 17.839844 12 16 12 Z M 16 13.777344 C 16.859375 13.777344 17.554688 14.472656 17.554688 15.332031 C 17.554688 16.191406 16.859375 16.890625 16 16.890625 C 15.140625 16.890625 14.445312 16.191406 14.445312 15.332031 C 14.445312 14.472656 15.140625 13.777344 16 13.777344 Z M 16.890625 8 L 15.109375 8 L 15.109375 9.777344 L 10.667969 9.777344 L 10.667969 11.554688 L 21.332031 11.554688 L 21.332031 9.777344 L 16.886719 9.777344 L 16.886719 8 Z M 16.890625 8 "/>
</g>
</svg>
