<?xml version="1.0" encoding="UTF-8"?>
<svg xmlns="http://www.w3.org/2000/svg" xmlns:xlink="http://www.w3.org/1999/xlink" width="32" height="32" viewBox="0 0 32 32" version="1.1">
<g id="surface1">
<path style=" stroke:none;fill-rule:nonzero;fill:rgb(0%,0%,0%);fill-opacity:1;" d="M 16 1.332031 C 22.628906 1.332031 28 6.707031 28 13.332031 L 28 18.667969 C 28 22.585938 26.089844 26.257812 22.875 28.503906 C 19.664062 30.75 15.558594 31.285156 11.878906 29.941406 C 12.046875 29.703125 12.210938 29.464844 12.371094 29.21875 L 12.597656 28.84375 C 13.890625 26.6875 14.601562 24.230469 14.664062 21.71875 L 14.667969 21.332031 L 14.667969 12 L 17.332031 12 L 17.332031 21.332031 C 17.335938 23.621094 16.882812 25.886719 16.003906 28 C 17.035156 28 18.054688 27.832031 19.03125 27.496094 C 19.621094 25.683594 19.953125 23.753906 19.996094 21.75 L 20 21.332031 L 20 17.332031 L 22.667969 17.332031 L 22.667969 21.332031 C 22.667969 22.785156 22.53125 24.203125 22.269531 25.578125 C 24.140625 23.886719 25.246094 21.507812 25.328125 18.988281 L 25.332031 18.667969 L 25.332031 13.332031 C 25.332031 9.800781 23.339844 6.570312 20.179688 4.988281 C 17.019531 3.40625 13.238281 3.742188 10.410156 5.859375 L 8.511719 3.957031 C 10.636719 2.253906 13.277344 1.328125 16 1.332031 Z M 9.332031 13.332031 C 9.332031 9.652344 12.316406 6.667969 16 6.667969 C 19.683594 6.667969 22.667969 9.652344 22.667969 13.332031 L 22.667969 14.667969 L 20 14.667969 L 20 13.332031 C 20.003906 11.167969 18.28125 9.394531 16.117188 9.332031 C 13.953125 9.269531 12.132812 10.9375 12.007812 13.097656 L 12 13.332031 L 12 21.332031 C 12 23.421875 11.464844 25.386719 10.527344 27.097656 L 10.496094 27.152344 C 10.1875 27.703125 9.839844 28.226562 9.453125 28.722656 C 8.867188 28.339844 8.316406 27.90625 7.804688 27.429688 L 7.390625 27.03125 C 5.210938 24.792969 3.996094 21.789062 4 18.667969 L 4 13.332031 C 4 10.5 4.980469 7.894531 6.625 5.84375 L 8.523438 7.742188 C 7.382812 9.269531 6.734375 11.109375 6.671875 13.011719 L 6.667969 13.332031 L 6.667969 18.667969 C 6.667969 20.898438 7.449219 22.949219 8.761719 24.554688 C 9.105469 23.625 9.296875 22.644531 9.328125 21.65625 L 9.332031 21.332031 Z M 9.332031 13.332031 "/>
</g>
</svg>
