<?xml version="1.0" encoding="UTF-8"?>
<svg xmlns="http://www.w3.org/2000/svg" xmlns:xlink="http://www.w3.org/1999/xlink" width="32" height="32" viewBox="0 0 32 32" version="1.1">
<g id="surface1">
<path style=" stroke:none;fill-rule:nonzero;fill:rgb(0%,0%,0%);fill-opacity:1;" d="M 16 2.667969 C 23.363281 2.667969 29.332031 8.636719 29.332031 16 C 29.332031 23.363281 23.363281 29.332031 16 29.332031 C 8.636719 29.332031 2.667969 23.363281 2.667969 16 C 2.667969 14.046875 3.085938 12.195312 3.839844 10.523438 C 4.460938 9.273438 5.484375 8.027344 6.308594 7.601562 C 5.4375 9.3125 5.007812 10.988281 4.921875 12.109375 C 5.523438 10.109375 6.671875 8.433594 8.28125 7.253906 C 11.035156 5.226562 14.742188 5.136719 16.222656 6.425781 C 13.480469 7.367188 10.492188 11.15625 11.152344 15.59375 C 11.257812 16.328125 11.476562 17.039062 11.800781 17.703125 C 11.289062 16.355469 11.246094 14.457031 12.070312 13.226562 C 12.996094 11.851562 14.308594 11.5625 15.011719 11.710938 C 14.734375 11.652344 14.121094 12.824219 14.03125 13.03125 C 13.800781 13.558594 13.6875 14.125 13.699219 14.699219 C 13.71875 15.898438 14.210938 17.039062 15.070312 17.871094 C 17.632812 20.367188 21.769531 19.386719 23.621094 16.535156 C 24.890625 14.574219 25.046875 11.246094 23.414062 8.601562 C 23.007812 7.957031 22.519531 7.363281 21.96875 6.839844 C 19.5 4.484375 15.996094 3.414062 12.660156 3.898438 C 11.183594 4.136719 9.929688 4.5625 8.894531 5.175781 C 10.339844 3.730469 13.214844 2.667969 16 2.667969 Z M 16 2.667969 "/>
</g>
</svg>
