<?xml version="1.0" encoding="UTF-8"?>
<svg xmlns="http://www.w3.org/2000/svg" xmlns:xlink="http://www.w3.org/1999/xlink" width="32" height="32" viewBox="0 0 32 32" version="1.1">
<g id="surface1">
<path style=" stroke:none;fill-rule:nonzero;fill:rgb(0%,0%,0%);fill-opacity:1;" d="M 0 2 L 0 32 L 6 32 L 6 14 C 6 11.789062 7.789062 10 10 10 L 22 10 C 24.210938 10 26 11.789062 26 14 L 26 32 L 32 32 L 32 2 C 32 0.894531 31.105469 0 30 0 L 2 0 C 0.894531 0 0 0.894531 0 2 Z M 0 2 "/>
<path style=" stroke:none;fill-rule:nonzero;fill:rgb(0%,0%,0%);fill-opacity:1;" d="M 14.050781 12 C 16.550781 19.5 2.800781 22 12.800781 32 C 11.511719 29.824219 11.9375 29.460938 12.800781 27 C 13.082031 27.9375 13.292969 28.921875 14.050781 29.5 C 14.332031 27.378906 14.46875 25.25 16.550781 23.25 C 16.675781 26 21.007812 27.621094 17.800781 32 C 24.621094 29.234375 23.148438 23.761719 21.550781 18.25 L 19.050781 20.75 C 19.050781 20.75 19.914062 15.164062 14.050781 12 Z M 14.050781 12 "/>
</g>
</svg>
