<?xml version="1.0" encoding="UTF-8"?>
<svg xmlns="http://www.w3.org/2000/svg" xmlns:xlink="http://www.w3.org/1999/xlink" width="32" height="32" viewBox="0 0 32 32" version="1.1">
<g id="surface1">
<path style=" stroke:none;fill-rule:nonzero;fill:rgb(0%,0%,0%);fill-opacity:1;" d="M 21.332031 2.667969 L 21.332031 5.332031 L 20 5.332031 L 20 9.65625 C 20 11.203125 20.335938 12.726562 20.980469 14.125 L 26.691406 26.496094 C 27.152344 27.5 26.714844 28.6875 25.710938 29.148438 C 25.449219 29.269531 25.164062 29.332031 24.875 29.332031 L 7.125 29.332031 C 6.019531 29.332031 5.125 28.4375 5.125 27.332031 C 5.125 27.042969 5.1875 26.757812 5.308594 26.496094 L 11.019531 14.125 C 11.664062 12.726562 12 11.203125 12 9.65625 L 12 5.332031 L 10.667969 5.332031 L 10.667969 2.667969 Z M 17.332031 5.332031 L 14.667969 5.332031 L 14.667969 10.667969 L 17.332031 10.667969 Z M 17.332031 5.332031 "/>
</g>
</svg>
