<?xml version="1.0" encoding="UTF-8"?>
<svg xmlns="http://www.w3.org/2000/svg" xmlns:xlink="http://www.w3.org/1999/xlink" width="32" height="32" viewBox="0 0 32 32" version="1.1">
<g id="surface1">
<path style=" stroke:none;fill-rule:nonzero;fill:rgb(0%,0%,0%);fill-opacity:1;" d="M 16 1 C 10.476562 1 6 5.476562 6 11 C 6 14.148438 7.480469 17.113281 10 19 C 8.519531 19 7.242188 19.808594 6.550781 21 L 0 21 L 0 29 L 6.550781 29 C 7.242188 30.191406 8.519531 31 10 31 L 22 31 C 23.480469 31 24.757812 30.191406 25.449219 29 L 32 29 L 32 21 L 25.449219 21 C 24.757812 19.808594 23.480469 19 22 19 C 24.519531 17.113281 26 14.148438 26 11 C 26 5.476562 21.523438 1 16 1 Z M 15.894531 5 C 15.894531 5 15.898438 5 15.898438 5 C 15.933594 5 15.964844 5 16 5 C 16.894531 5 17.777344 5.199219 18.582031 5.582031 L 14.585938 9.59375 C 13.808594 10.375 13.808594 11.632812 14.585938 12.414062 C 14.960938 12.792969 15.472656 13.003906 16.003906 13.003906 C 16.535156 13.003906 17.046875 12.792969 17.421875 12.414062 L 21.414062 8.421875 C 21.796875 9.226562 22 10.109375 22 11 C 22 14.3125 19.3125 17 16 17 C 12.6875 17 10 14.3125 10 11 C 10 7.726562 12.621094 5.058594 15.894531 5 Z M 15.894531 5 "/>
</g>
</svg>
