<?xml version="1.0" encoding="UTF-8"?>
<svg xmlns="http://www.w3.org/2000/svg" xmlns:xlink="http://www.w3.org/1999/xlink" width="32" height="32" viewBox="0 0 32 32" version="1.1">
<g id="surface1">
<path style=" stroke:none;fill-rule:nonzero;fill:rgb(0%,0%,0%);fill-opacity:1;" d="M 29.332031 13.332031 L 16 13.332031 L 16 23.175781 C 16 25.054688 16.84375 26.820312 18.273438 28 L 4 28 C 3.261719 28 2.667969 27.402344 2.667969 26.667969 L 2.667969 5.332031 C 2.667969 4.597656 3.261719 4 4 4 L 13.886719 4 L 16.550781 6.667969 L 28 6.667969 C 28.738281 6.667969 29.332031 7.261719 29.332031 8 Z M 18.667969 16 L 29.332031 16 L 29.332031 23.175781 C 29.332031 24.371094 28.738281 25.488281 27.75 26.148438 L 24 28.664062 L 20.25 26.152344 C 19.257812 25.484375 18.664062 24.371094 18.667969 23.175781 Z M 18.667969 16 "/>
</g>
</svg>
