<?xml version="1.0" encoding="UTF-8"?>
<svg xmlns="http://www.w3.org/2000/svg" xmlns:xlink="http://www.w3.org/1999/xlink" width="32" height="32" viewBox="0 0 32 32" version="1.1">
<g id="surface1">
<path style=" stroke:none;fill-rule:nonzero;fill:rgb(0%,0%,0%);fill-opacity:1;" d="M 29.332031 15.007812 C 25.625 12.421875 20.59375 12.867188 17.398438 16.066406 C 14.203125 19.261719 13.753906 24.289062 16.339844 28 L 4 28 C 3.261719 28 2.667969 27.402344 2.667969 26.667969 L 2.667969 5.332031 C 2.667969 4.597656 3.261719 4 4 4 L 13.886719 4 L 16.550781 6.667969 L 28 6.667969 C 28.738281 6.667969 29.332031 7.261719 29.332031 8 Z M 24 29.332031 C 20.316406 29.332031 17.332031 26.347656 17.332031 22.667969 C 17.332031 18.984375 20.316406 16 24 16 C 27.683594 16 30.667969 18.984375 30.667969 22.667969 C 30.667969 26.347656 27.683594 29.332031 24 29.332031 Z M 22.277344 26.277344 C 23.804688 27.007812 25.632812 26.695312 26.832031 25.496094 C 28.03125 24.296875 28.34375 22.472656 27.609375 20.941406 Z M 20.390625 24.390625 L 25.722656 19.058594 C 24.195312 18.324219 22.367188 18.636719 21.167969 19.835938 C 19.96875 21.035156 19.65625 22.863281 20.390625 24.390625 Z M 20.390625 24.390625 "/>
</g>
</svg>
