<?xml version="1.0" encoding="UTF-8"?>
<svg xmlns="http://www.w3.org/2000/svg" xmlns:xlink="http://www.w3.org/1999/xlink" width="32" height="32" viewBox="0 0 32 32" version="1.1">
<g id="surface1">
<path style=" stroke:none;fill-rule:nonzero;fill:rgb(0%,0%,0%);fill-opacity:1;" d="M 16.550781 6.667969 L 28 6.667969 C 28.738281 6.667969 29.332031 7.261719 29.332031 8 L 29.332031 26.667969 C 29.332031 27.402344 28.738281 28 28 28 L 4 28 C 3.261719 28 2.667969 27.402344 2.667969 26.667969 L 2.667969 5.332031 C 2.667969 4.597656 3.261719 4 4 4 L 13.886719 4 Z M 11.453125 18.410156 L 10.132812 19.175781 L 11.464844 21.484375 L 12.789062 20.71875 C 13.3125 21.214844 13.949219 21.589844 14.660156 21.800781 L 14.660156 23.328125 L 17.328125 23.328125 L 17.328125 21.800781 C 18.027344 21.589844 18.667969 21.222656 19.199219 20.71875 L 20.519531 21.480469 L 21.851562 19.175781 L 20.53125 18.410156 C 20.699219 17.699219 20.699219 16.960938 20.53125 16.246094 L 21.851562 15.484375 L 20.519531 13.175781 L 19.199219 13.941406 C 18.667969 13.4375 18.027344 13.066406 17.324219 12.855469 L 17.324219 11.332031 L 14.660156 11.332031 L 14.660156 12.859375 C 13.960938 13.066406 13.320312 13.4375 12.789062 13.941406 L 11.464844 13.175781 L 10.132812 15.488281 L 11.453125 16.25 C 11.285156 16.960938 11.285156 17.699219 11.453125 18.410156 Z M 15.992188 19.328125 C 15.261719 19.355469 14.574219 18.980469 14.199219 18.351562 C 13.828125 17.722656 13.828125 16.9375 14.199219 16.308594 C 14.574219 15.679688 15.261719 15.304688 15.992188 15.332031 C 17.070312 15.371094 17.921875 16.253906 17.921875 17.332031 C 17.921875 18.40625 17.070312 19.289062 15.992188 19.328125 Z M 15.992188 19.328125 "/>
</g>
</svg>
