<?xml version="1.0" encoding="UTF-8"?>
<svg xmlns="http://www.w3.org/2000/svg" xmlns:xlink="http://www.w3.org/1999/xlink" width="32" height="32" viewBox="0 0 32 32" version="1.1">
<g id="surface1">
<path style=" stroke:none;fill-rule:nonzero;fill:rgb(0%,0%,0%);fill-opacity:1;" d="M 14.996094 20 L 6.339844 20 L 3.671875 26.667969 L 0.800781 26.667969 L 9.332031 5.332031 L 12 5.332031 L 20.535156 26.667969 L 17.660156 26.667969 Z M 13.929688 17.332031 L 10.667969 9.179688 L 7.40625 17.332031 Z M 28 16.714844 L 28 16 L 30.667969 16 L 30.667969 26.667969 L 28 26.667969 L 28 25.953125 C 25.757812 27.246094 22.914062 26.742188 21.25 24.761719 C 19.585938 22.777344 19.585938 19.886719 21.25 17.90625 C 22.914062 15.921875 25.757812 15.421875 28 16.714844 Z M 25.332031 24 C 26.804688 24 28 22.804688 28 21.332031 C 28 19.859375 26.804688 18.667969 25.332031 18.667969 C 23.859375 18.667969 22.667969 19.859375 22.667969 21.332031 C 22.667969 22.804688 23.859375 24 25.332031 24 Z M 25.332031 24 "/>
</g>
</svg>
