<?xml version="1.0" encoding="UTF-8"?>
<svg xmlns="http://www.w3.org/2000/svg" xmlns:xlink="http://www.w3.org/1999/xlink" width="32" height="32" viewBox="0 0 32 32" version="1.1">
<g id="surface1">
<path style=" stroke:none;fill-rule:nonzero;fill:rgb(0%,0%,0%);fill-opacity:1;" d="M 16 2.667969 C 23.363281 2.667969 29.332031 8.636719 29.332031 16 C 29.332031 23.363281 23.363281 29.332031 16 29.332031 C 8.636719 29.332031 2.667969 23.363281 2.667969 16 C 2.667969 8.636719 8.636719 2.667969 16 2.667969 Z M 18.226562 21.332031 L 13.773438 21.332031 L 11.933594 23.863281 L 12.671875 26.136719 C 13.746094 26.488281 14.871094 26.667969 16 26.667969 C 17.160156 26.667969 18.28125 26.480469 19.328125 26.136719 L 20.066406 23.863281 Z M 7.058594 14.496094 L 5.335938 15.746094 L 5.332031 16 C 5.332031 18.308594 6.066406 20.441406 7.308594 22.1875 L 9.855469 22.1875 L 11.621094 19.761719 L 10.25 15.535156 Z M 24.941406 14.496094 L 21.75 15.535156 L 20.378906 19.761719 L 22.144531 22.1875 L 24.6875 22.1875 C 25.976562 20.382812 26.667969 18.21875 26.667969 16 L 26.664062 15.746094 Z M 16 12.714844 L 12.875 14.984375 L 14.070312 18.667969 L 17.929688 18.667969 L 19.125 14.984375 Z M 19.054688 5.777344 L 17.332031 7.03125 L 17.332031 10.386719 L 20.925781 12.996094 L 23.910156 12.027344 L 24.648438 9.757812 C 23.273438 7.851562 21.304688 6.453125 19.054688 5.777344 Z M 12.945312 5.777344 C 10.691406 6.453125 8.726562 7.851562 7.351562 9.757812 L 8.089844 12.027344 L 11.074219 12.996094 L 14.667969 10.386719 L 14.667969 7.03125 Z M 12.945312 5.777344 "/>
</g>
</svg>
