<?xml version="1.0" encoding="UTF-8"?>
<svg xmlns="http://www.w3.org/2000/svg" xmlns:xlink="http://www.w3.org/1999/xlink" width="32" height="32" viewBox="0 0 32 32" version="1.1">
<g id="surface1">
<path style=" stroke:none;fill-rule:nonzero;fill:rgb(0%,0%,0%);fill-opacity:1;" d="M 14.496094 0 L 14.496094 6.375 L 9.066406 0.945312 L 6.9375 3.054688 L 14.496094 10.613281 L 14.496094 14.496094 L 10.621094 14.496094 L 3.0625 6.9375 L 0.9375 9.066406 L 6.367188 14.496094 L 0.0078125 14.496094 L 0.0078125 17.496094 L 6.382812 17.496094 L 0.9375 22.941406 L 3.0625 25.054688 L 10.632812 17.496094 L 14.496094 17.496094 L 14.496094 21.378906 L 6.9375 28.9375 L 9.066406 31.0625 L 14.496094 25.632812 L 14.496094 31.992188 L 17.496094 31.992188 L 17.496094 25.617188 L 22.941406 31.0625 L 25.054688 28.9375 L 17.496094 21.367188 L 17.496094 17.496094 L 21.375 17.496094 L 28.945312 25.054688 L 31.054688 22.941406 L 25.609375 17.496094 L 32 17.496094 L 32 14.496094 L 25.625 14.496094 L 31.054688 9.066406 L 28.945312 6.9375 L 21.386719 14.496094 L 17.496094 14.496094 L 17.496094 10.625 L 25.054688 3.054688 L 22.941406 0.945312 L 17.496094 6.390625 L 17.496094 0 Z M 14.496094 0 "/>
</g>
</svg>
