<?xml version="1.0" encoding="UTF-8"?>
<svg xmlns="http://www.w3.org/2000/svg" xmlns:xlink="http://www.w3.org/1999/xlink" width="32" height="32" viewBox="0 0 32 32" version="1.1">
<g id="surface1">
<path style=" stroke:none;fill-rule:nonzero;fill:rgb(0%,0%,0%);fill-opacity:1;" d="M 17.332031 9.421875 C 22.546875 10.128906 26.320312 14.75 25.96875 20 C 25.617188 25.25 21.261719 29.328125 16 29.332031 C 10.734375 29.339844 6.363281 25.257812 6.011719 20 C 5.660156 14.746094 9.445312 10.117188 14.667969 9.421875 L 14.667969 1.332031 L 17.332031 1.332031 Z M 16 26.667969 C 20.050781 26.667969 23.332031 23.382812 23.332031 19.332031 C 23.332031 15.285156 20.050781 12 16 12 C 11.949219 12 8.667969 15.285156 8.667969 19.332031 C 8.667969 23.382812 11.949219 26.667969 16 26.667969 Z M 16 26.667969 "/>
</g>
</svg>
