<?xml version="1.0" encoding="UTF-8"?>
<svg xmlns="http://www.w3.org/2000/svg" xmlns:xlink="http://www.w3.org/1999/xlink" width="32" height="32" viewBox="0 0 32 32" version="1.1">
<g id="surface1">
<path style=" stroke:none;fill-rule:nonzero;fill:rgb(0%,0%,0%);fill-opacity:1;" d="M 20 6.667969 L 22.667969 6.667969 C 24.140625 6.667969 25.332031 7.859375 25.332031 9.332031 L 25.332031 20.226562 C 27.171875 20.875 28.273438 22.753906 27.945312 24.675781 C 27.613281 26.597656 25.949219 28 24 28 C 22.050781 28 20.386719 26.597656 20.054688 24.675781 C 19.726562 22.753906 20.828125 20.875 22.667969 20.226562 L 22.667969 9.332031 L 20 9.332031 L 20 13.332031 L 14 8 L 20 2.667969 Z M 6.667969 11.773438 C 4.828125 11.125 3.726562 9.246094 4.054688 7.324219 C 4.386719 5.402344 6.050781 4 8 4 C 9.949219 4 11.613281 5.402344 11.945312 7.324219 C 12.273438 9.246094 11.171875 11.125 9.332031 11.773438 L 9.332031 20.226562 C 11.171875 20.875 12.273438 22.753906 11.945312 24.675781 C 11.613281 26.597656 9.949219 28 8 28 C 6.050781 28 4.386719 26.597656 4.054688 24.675781 C 3.726562 22.753906 4.828125 20.875 6.667969 20.226562 Z M 8 9.332031 C 8.738281 9.332031 9.332031 8.738281 9.332031 8 C 9.332031 7.261719 8.738281 6.667969 8 6.667969 C 7.261719 6.667969 6.667969 7.261719 6.667969 8 C 6.667969 8.738281 7.261719 9.332031 8 9.332031 Z M 8 25.332031 C 8.738281 25.332031 9.332031 24.738281 9.332031 24 C 9.332031 23.261719 8.738281 22.667969 8 22.667969 C 7.261719 22.667969 6.667969 23.261719 6.667969 24 C 6.667969 24.738281 7.261719 25.332031 8 25.332031 Z M 24 25.332031 C 24.738281 25.332031 25.332031 24.738281 25.332031 24 C 25.332031 23.261719 24.738281 22.667969 24 22.667969 C 23.261719 22.667969 22.667969 23.261719 22.667969 24 C 22.667969 24.738281 23.261719 25.332031 24 25.332031 Z M 24 25.332031 "/>
</g>
</svg>
