<?xml version="1.0" encoding="UTF-8"?>
<svg xmlns="http://www.w3.org/2000/svg" xmlns:xlink="http://www.w3.org/1999/xlink" width="32" height="32" viewBox="0 0 32 32" version="1.1">
<g id="surface1">
<path style=" stroke:none;fill-rule:nonzero;fill:rgb(0%,0%,0%);fill-opacity:1;" d="M 7.574219 9.753906 L 5.148438 17.636719 L 16 25.921875 L 26.851562 17.636719 L 24.425781 9.753906 L 22.191406 14.667969 L 9.808594 14.667969 Z M 20.476562 12 L 24.328125 3.527344 C 24.417969 3.324219 24.625 3.203125 24.847656 3.214844 C 25.066406 3.230469 25.257812 3.378906 25.324219 3.59375 L 29.8125 18.183594 C 29.894531 18.453125 29.800781 18.742188 29.578125 18.910156 L 16 29.277344 L 2.421875 18.910156 C 2.199219 18.742188 2.105469 18.453125 2.1875 18.183594 L 6.679688 3.59375 C 6.742188 3.378906 6.933594 3.230469 7.15625 3.214844 C 7.375 3.203125 7.582031 3.324219 7.675781 3.527344 L 11.523438 12 Z M 20.476562 12 "/>
</g>
</svg>
