<?xml version="1.0" encoding="UTF-8"?>
<svg xmlns="http://www.w3.org/2000/svg" xmlns:xlink="http://www.w3.org/1999/xlink" width="32" height="32" viewBox="0 0 32 32" version="1.1">
<g id="surface1">
<path style=" stroke:none;fill-rule:nonzero;fill:rgb(0%,0%,0%);fill-opacity:1;" d="M 2.734375 17.332031 L 10.035156 17.332031 C 10.265625 21.554688 11.609375 25.640625 13.9375 29.171875 C 7.945312 28.230469 3.34375 23.367188 2.734375 17.332031 Z M 2.734375 14.667969 C 3.34375 8.632812 7.945312 3.769531 13.9375 2.828125 C 11.609375 6.359375 10.265625 10.445312 10.035156 14.667969 Z M 29.265625 14.667969 L 21.964844 14.667969 C 21.734375 10.445312 20.390625 6.359375 18.0625 2.828125 C 24.054688 3.769531 28.65625 8.632812 29.265625 14.667969 Z M 29.265625 17.332031 C 28.65625 23.367188 24.054688 28.230469 18.0625 29.171875 C 20.390625 25.640625 21.734375 21.554688 21.964844 17.332031 L 29.269531 17.332031 Z M 12.707031 17.332031 L 19.292969 17.332031 C 19.074219 20.933594 17.941406 24.417969 16 27.457031 C 14.058594 24.417969 12.925781 20.933594 12.707031 17.332031 Z M 12.707031 14.667969 C 12.925781 11.066406 14.058594 7.582031 16 4.542969 C 17.941406 7.582031 19.074219 11.066406 19.292969 14.667969 Z M 12.707031 14.667969 "/>
</g>
</svg>
