<?xml version="1.0" encoding="UTF-8"?>
<svg xmlns="http://www.w3.org/2000/svg" xmlns:xlink="http://www.w3.org/1999/xlink" width="32" height="32" viewBox="0 0 32 32" version="1.1">
<g id="surface1">
<path style=" stroke:none;fill-rule:nonzero;fill:rgb(0%,0%,0%);fill-opacity:1;" d="M 16 21.332031 L 20 29.332031 L 12 29.332031 Z M 12.496094 21.671875 C 9.960938 20.105469 8.773438 17.046875 9.585938 14.179688 C 10.402344 11.3125 13.019531 9.335938 16 9.335938 C 18.980469 9.335938 21.601562 11.3125 22.414062 14.179688 C 23.226562 17.046875 22.039062 20.105469 19.503906 21.671875 L 17.695312 18.058594 C 18.5625 17.34375 18.890625 16.160156 18.511719 15.101562 C 18.128906 14.039062 17.125 13.335938 16 13.335938 C 14.875 13.335938 13.871094 14.039062 13.488281 15.101562 C 13.109375 16.160156 13.4375 17.34375 14.304688 18.058594 Z M 9.507812 27.648438 C 5.285156 25.296875 2.664062 20.835938 2.667969 16 C 2.667969 8.636719 8.636719 2.667969 16 2.667969 C 23.363281 2.667969 29.332031 8.636719 29.332031 16 C 29.335938 20.835938 26.714844 25.296875 22.492188 27.648438 L 20.699219 24.066406 C 24.34375 21.941406 26.109375 17.640625 25.011719 13.566406 C 23.910156 9.496094 20.21875 6.667969 16 6.667969 C 11.78125 6.667969 8.089844 9.496094 6.988281 13.566406 C 5.890625 17.640625 7.65625 21.941406 11.300781 24.066406 Z M 9.507812 27.648438 "/>
</g>
</svg>
