<?xml version="1.0" encoding="UTF-8"?>
<svg xmlns="http://www.w3.org/2000/svg" xmlns:xlink="http://www.w3.org/1999/xlink" width="32" height="32" viewBox="0 0 32 32" version="1.1">
<g id="surface1">
<path style=" stroke:none;fill-rule:nonzero;fill:rgb(0%,0%,0%);fill-opacity:1;" d="M 2.734375 17.332031 L 5.414062 17.332031 C 6.089844 22.667969 10.625 26.664062 16 26.664062 C 21.375 26.664062 25.910156 22.667969 26.585938 17.332031 L 29.269531 17.332031 C 28.597656 24.070312 22.914062 29.332031 16 29.332031 C 9.085938 29.332031 3.402344 24.070312 2.734375 17.332031 Z M 2.734375 14.667969 C 3.398438 7.929688 9.085938 2.667969 16 2.667969 C 22.914062 2.667969 28.597656 7.929688 29.265625 14.667969 L 26.585938 14.667969 C 25.910156 9.332031 21.375 5.335938 16 5.335938 C 10.625 5.335938 6.089844 9.332031 5.414062 14.667969 L 2.730469 14.667969 Z M 16 18.667969 C 14.527344 18.667969 13.332031 17.472656 13.332031 16 C 13.332031 14.527344 14.527344 13.332031 16 13.332031 C 17.472656 13.332031 18.667969 14.527344 18.667969 16 C 18.667969 17.472656 17.472656 18.667969 16 18.667969 Z M 16 18.667969 "/>
</g>
</svg>
