<?xml version="1.0" encoding="UTF-8"?>
<svg xmlns="http://www.w3.org/2000/svg" xmlns:xlink="http://www.w3.org/1999/xlink" width="32" height="32" viewBox="0 0 32 32" version="1.1">
<g id="surface1">
<path style=" stroke:none;fill-rule:evenodd;fill:rgb(0%,0%,0%);fill-opacity:1;" d="M 8 0 L 8 8 L 0 8 L 0 12 L 8 12 L 8 20 L 0 20 L 0 24 L 8 24 L 8 32 L 12 32 L 12 24 L 20 24 L 20 32 L 24 32 L 24 24 L 32 24 L 32 20 L 24 20 L 24 12 L 32 12 L 32 8 L 24 8 L 24 0 L 20 0 L 20 8 L 12 8 L 12 0 Z M 12 12 L 20 12 L 20 20 L 12 20 Z M 12 12 "/>
</g>
</svg>
