<?xml version="1.0" encoding="UTF-8"?>
<svg xmlns="http://www.w3.org/2000/svg" xmlns:xlink="http://www.w3.org/1999/xlink" width="32" height="32" viewBox="0 0 32 32" version="1.1">
<g id="surface1">
<path style=" stroke:none;fill-rule:nonzero;fill:rgb(0%,0%,0%);fill-opacity:1;" d="M 12.734375 15.332031 C 11.078125 15.332031 9.734375 13.988281 9.734375 12.332031 C 9.734375 10.675781 11.078125 9.332031 12.734375 9.332031 C 14.390625 9.332031 15.734375 10.675781 15.734375 12.332031 C 15.734375 13.988281 14.390625 15.332031 12.734375 15.332031 Z M 13.332031 26.332031 L 13.332031 21.867188 C 13.332031 21.214844 13.523438 20.617188 13.871094 20.082031 C 11.46875 19.742188 9.03125 20.425781 7.160156 21.972656 C 8.617188 24.128906 10.8125 25.679688 13.332031 26.332031 Z M 5.9375 19.546875 C 7.882812 18.105469 10.242188 17.328125 12.667969 17.332031 C 14.058594 17.332031 15.390625 17.585938 16.621094 18.042969 C 17.792969 17.585938 19.1875 17.332031 20.667969 17.332031 C 22.878906 17.332031 24.914062 17.898438 26.273438 18.875 C 27.511719 14.445312 25.769531 9.726562 21.953125 7.160156 C 18.140625 4.59375 13.109375 4.757812 9.472656 7.570312 C 5.839844 10.382812 4.414062 15.210938 5.9375 19.546875 Z M 25.171875 21.449219 C 24.648438 20.738281 22.894531 20 20.667969 20 C 17.992188 20 16 21.0625 16 21.867188 L 16 26.667969 C 19.765625 26.667969 23.25 24.683594 25.171875 21.449219 Z M 16 29.332031 C 8.636719 29.332031 2.667969 23.363281 2.667969 16 C 2.667969 8.636719 8.636719 2.667969 16 2.667969 C 23.363281 2.667969 29.332031 8.636719 29.332031 16 C 29.332031 23.363281 23.363281 29.332031 16 29.332031 Z M 20.667969 16.667969 C 19.195312 16.667969 18 15.472656 18 14 C 18 12.527344 19.195312 11.332031 20.667969 11.332031 C 22.140625 11.332031 23.332031 12.527344 23.332031 14 C 23.332031 15.472656 22.140625 16.667969 20.667969 16.667969 Z M 20.667969 16.667969 "/>
</g>
</svg>
