<?xml version="1.0" encoding="UTF-8"?>
<svg xmlns="http://www.w3.org/2000/svg" xmlns:xlink="http://www.w3.org/1999/xlink" width="32" height="32" viewBox="0 0 32 32" version="1.1">
<g id="surface1">
<path style=" stroke:none;fill-rule:nonzero;fill:rgb(0%,0%,0%);fill-opacity:1;" d="M 2.667969 29.332031 C 2.667969 23.441406 7.441406 18.667969 13.332031 18.667969 C 19.222656 18.667969 24 23.441406 24 29.332031 Z M 13.332031 17.332031 C 8.914062 17.332031 5.332031 13.753906 5.332031 9.332031 C 5.332031 4.914062 8.914062 1.332031 13.332031 1.332031 C 17.753906 1.332031 21.332031 4.914062 21.332031 9.332031 C 21.332031 13.753906 17.753906 17.332031 13.332031 17.332031 Z M 23.152344 20.3125 C 27.332031 21.386719 30.355469 25.023438 30.644531 29.332031 L 26.667969 29.332031 C 26.667969 25.851562 25.332031 22.683594 23.152344 20.3125 Z M 20.453125 17.277344 C 22.714844 15.253906 24.003906 12.367188 24 9.332031 C 24.003906 7.511719 23.535156 5.71875 22.648438 4.128906 C 25.761719 4.753906 28 7.492188 28 10.667969 C 28 12.589844 27.171875 14.417969 25.726562 15.683594 C 24.28125 16.949219 22.359375 17.53125 20.453125 17.277344 Z M 20.453125 17.277344 "/>
</g>
</svg>
