<?xml version="1.0" encoding="UTF-8"?>
<svg xmlns="http://www.w3.org/2000/svg" xmlns:xlink="http://www.w3.org/1999/xlink" width="32" height="32" viewBox="0 0 32 32" version="1.1">
<g id="surface1">
<path style=" stroke:none;fill-rule:nonzero;fill:rgb(0%,0%,0%);fill-opacity:1;" d="M 5.332031 5.332031 L 5.332031 14.667969 L 14.667969 14.667969 L 14.667969 5.332031 L 17.332031 5.332031 L 17.332031 26.667969 L 14.667969 26.667969 L 14.667969 17.332031 L 5.332031 17.332031 L 5.332031 26.667969 L 2.667969 26.667969 L 2.667969 5.332031 Z M 24.667969 10.667969 C 27.429688 10.667969 29.667969 12.90625 29.667969 15.667969 C 29.667969 16.808594 29.28125 17.863281 28.636719 18.707031 L 28.441406 18.945312 L 24.046875 24 L 29.332031 24 L 29.332031 26.667969 L 20 26.667969 L 20 24.59375 L 26.425781 17.199219 C 26.785156 16.789062 27 16.253906 27 15.667969 C 27 14.378906 25.953125 13.332031 24.667969 13.332031 C 23.441406 13.332031 22.4375 14.277344 22.339844 15.476562 L 22.332031 15.667969 L 19.667969 15.667969 C 19.667969 12.90625 21.90625 10.667969 24.667969 10.667969 Z M 24.667969 10.667969 "/>
</g>
</svg>
