<?xml version="1.0" encoding="UTF-8"?>
<svg xmlns="http://www.w3.org/2000/svg" xmlns:xlink="http://www.w3.org/1999/xlink" width="32" height="32" viewBox="0 0 32 32" version="1.1">
<g id="surface1">
<path style=" stroke:none;fill-rule:nonzero;fill:rgb(0%,0%,0%);fill-opacity:1;" d="M 28.128906 10.667969 L 24.664062 16.667969 C 27.613281 16.667969 30 19.054688 30 22 C 30 24.945312 27.613281 27.332031 24.667969 27.332031 C 21.71875 27.332031 19.332031 24.945312 19.332031 22 C 19.332031 21.019531 19.597656 20.097656 20.0625 19.308594 L 25.050781 10.667969 Z M 5.332031 5.332031 L 5.332031 14.667969 L 14.667969 14.667969 L 14.667969 5.332031 L 17.332031 5.332031 L 17.332031 26.667969 L 14.667969 26.667969 L 14.667969 17.332031 L 5.332031 17.332031 L 5.332031 26.667969 L 2.667969 26.667969 L 2.667969 5.332031 Z M 24.667969 19.332031 C 23.191406 19.332031 22 20.527344 22 22 C 22 23.472656 23.191406 24.667969 24.667969 24.667969 C 26.140625 24.667969 27.332031 23.472656 27.332031 22 C 27.332031 20.527344 26.140625 19.332031 24.667969 19.332031 Z M 24.667969 19.332031 "/>
</g>
</svg>
