<?xml version="1.0" encoding="UTF-8"?>
<svg xmlns="http://www.w3.org/2000/svg" xmlns:xlink="http://www.w3.org/1999/xlink" width="32" height="32" viewBox="0 0 32 32" version="1.1">
<g id="surface1">
<path style=" stroke:none;fill-rule:nonzero;fill:rgb(0%,0%,0%);fill-opacity:1;" d="M 6.667969 12 C 7.402344 12 8 12.597656 8 13.332031 C 10.09375 13.332031 12.128906 14.035156 13.773438 15.332031 L 16.667969 15.332031 C 18.441406 15.332031 20.039062 16.105469 21.136719 17.332031 L 25.332031 17.332031 C 27.90625 17.332031 30.25 18.8125 31.355469 21.132812 C 28.203125 25.296875 23.097656 28 17.332031 28 C 13.613281 28 10.464844 27.195312 7.921875 25.789062 C 7.730469 26.316406 7.226562 26.667969 6.667969 26.667969 L 2.667969 26.667969 C 1.929688 26.667969 1.332031 26.070312 1.332031 25.332031 L 1.332031 13.332031 C 1.332031 12.597656 1.929688 12 2.667969 12 Z M 8 16 L 8 22.695312 L 8.058594 22.738281 C 10.453125 24.417969 13.570312 25.332031 17.332031 25.332031 C 21.339844 25.332031 25.066406 23.792969 27.78125 21.160156 L 27.957031 20.984375 L 27.796875 20.847656 C 27.167969 20.355469 26.40625 20.0625 25.605469 20.007812 L 25.332031 20 L 22.515625 20 C 22.613281 20.429688 22.667969 20.875 22.667969 21.332031 L 22.667969 22.667969 L 10.667969 22.667969 L 10.667969 20 L 19.71875 20 L 19.675781 19.894531 C 19.15625 18.808594 18.089844 18.085938 16.886719 18.007812 L 16.667969 18 L 12.761719 18 C 11.507812 16.71875 9.792969 16 8.003906 16 Z M 5.332031 14.667969 L 4 14.667969 L 4 24 L 5.332031 24 Z M 18.195312 4.765625 L 18.667969 5.238281 L 19.136719 4.769531 C 19.980469 3.917969 21.210938 3.585938 22.363281 3.894531 C 23.519531 4.203125 24.417969 5.101562 24.726562 6.257812 C 25.035156 7.410156 24.699219 8.640625 23.851562 9.484375 L 18.667969 14.667969 L 13.480469 9.480469 C 12.632812 8.640625 12.296875 7.410156 12.605469 6.253906 C 12.914062 5.101562 13.816406 4.199219 14.96875 3.890625 C 16.125 3.585938 17.355469 3.917969 18.195312 4.765625 Z M 15.367188 6.652344 C 15.140625 6.878906 15.105469 7.238281 15.289062 7.503906 L 15.367188 7.59375 L 18.667969 10.894531 L 21.96875 7.59375 C 22.195312 7.367188 22.226562 7.007812 22.046875 6.742188 L 21.96875 6.652344 C 21.738281 6.421875 21.382812 6.390625 21.117188 6.574219 L 21.023438 6.652344 L 18.664062 9.007812 L 16.308594 6.648438 L 16.21875 6.574219 C 15.953125 6.390625 15.59375 6.425781 15.367188 6.652344 Z M 15.367188 6.652344 "/>
</g>
</svg>
