<?xml version="1.0" encoding="UTF-8"?>
<svg xmlns="http://www.w3.org/2000/svg" xmlns:xlink="http://www.w3.org/1999/xlink" width="32" height="32" viewBox="0 0 32 32" version="1.1">
<g id="surface1">
<path style=" stroke:none;fill-rule:nonzero;fill:rgb(0%,0%,0%);fill-opacity:1;" d="M 12.441406 15.332031 L 15.332031 15.332031 C 18.648438 15.332031 21.332031 18.019531 21.332031 21.332031 L 12 21.332031 L 12 22.667969 L 22.667969 22.667969 L 22.667969 21.332031 C 22.664062 19.914062 22.253906 18.527344 21.484375 17.332031 L 25.332031 17.332031 C 27.90625 17.332031 30.25 18.8125 31.355469 21.132812 C 28.203125 25.296875 23.097656 28 17.332031 28 C 13.652344 28 10.535156 27.214844 8 25.832031 L 8 13.429688 C 9.621094 13.660156 11.152344 14.316406 12.441406 15.332031 Z M 6.667969 25.332031 C 6.667969 26.070312 6.070312 26.667969 5.332031 26.667969 L 2.667969 26.667969 C 1.929688 26.667969 1.332031 26.070312 1.332031 25.332031 L 1.332031 13.332031 C 1.332031 12.597656 1.929688 12 2.667969 12 L 5.332031 12 C 6.070312 12 6.667969 12.597656 6.667969 13.332031 Z M 24 6.667969 C 26.210938 6.667969 28 8.457031 28 10.667969 C 28 12.875 26.210938 14.667969 24 14.667969 C 21.789062 14.667969 20 12.875 20 10.667969 C 20 8.457031 21.789062 6.667969 24 6.667969 Z M 14.667969 2.667969 C 16.875 2.667969 18.667969 4.457031 18.667969 6.667969 C 18.667969 8.875 16.875 10.667969 14.667969 10.667969 C 12.457031 10.667969 10.667969 8.875 10.667969 6.667969 C 10.667969 4.457031 12.457031 2.667969 14.667969 2.667969 Z M 14.667969 2.667969 "/>
</g>
</svg>
