<?xml version="1.0" encoding="UTF-8"?>
<svg xmlns="http://www.w3.org/2000/svg" xmlns:xlink="http://www.w3.org/1999/xlink" width="32" height="32" viewBox="0 0 32 32" version="1.1">
<g id="surface1">
<path style=" stroke:none;fill-rule:nonzero;fill:rgb(0%,0%,0%);fill-opacity:1;" d="M 6.667969 12 C 7.402344 12 8 12.597656 8 13.332031 C 10.09375 13.332031 12.128906 14.035156 13.773438 15.332031 L 16.667969 15.332031 C 18.445312 15.332031 20.039062 16.105469 21.136719 17.332031 L 25.332031 17.332031 C 27.90625 17.332031 30.25 18.8125 31.355469 21.132812 C 28.203125 25.296875 23.097656 28 17.332031 28 C 13.613281 28 10.464844 27.195312 7.921875 25.789062 C 7.730469 26.316406 7.226562 26.667969 6.667969 26.667969 L 2.667969 26.667969 C 1.929688 26.667969 1.332031 26.070312 1.332031 25.332031 L 1.332031 13.332031 C 1.332031 12.597656 1.929688 12 2.667969 12 Z M 8 16 L 8 22.695312 L 8.058594 22.738281 C 10.453125 24.417969 13.570312 25.332031 17.332031 25.332031 C 21.339844 25.332031 25.066406 23.792969 27.78125 21.160156 L 27.957031 20.984375 L 27.796875 20.847656 C 27.167969 20.355469 26.40625 20.0625 25.605469 20.007812 L 25.332031 20 L 22.519531 20 C 22.613281 20.429688 22.667969 20.875 22.667969 21.332031 L 22.667969 22.667969 L 10.667969 22.667969 L 10.667969 20 L 19.71875 20 L 19.675781 19.894531 C 19.15625 18.808594 18.089844 18.085938 16.886719 18.007812 L 16.667969 18 L 12.761719 18 C 11.507812 16.71875 9.792969 16 8.003906 16 Z M 5.332031 14.667969 L 4 14.667969 L 4 24 L 5.332031 24 Z M 24 6.667969 C 26.210938 6.667969 28 8.457031 28 10.667969 C 28 12.875 26.210938 14.667969 24 14.667969 C 21.789062 14.667969 20 12.875 20 10.667969 C 20 8.457031 21.789062 6.667969 24 6.667969 Z M 24 9.332031 C 23.261719 9.332031 22.667969 9.929688 22.667969 10.667969 C 22.667969 11.402344 23.261719 12 24 12 C 24.738281 12 25.332031 11.402344 25.332031 10.667969 C 25.332031 9.929688 24.738281 9.332031 24 9.332031 Z M 14.667969 2.667969 C 16.875 2.667969 18.667969 4.457031 18.667969 6.667969 C 18.667969 8.875 16.875 10.667969 14.667969 10.667969 C 12.457031 10.667969 10.667969 8.875 10.667969 6.667969 C 10.667969 4.457031 12.457031 2.667969 14.667969 2.667969 Z M 14.667969 5.332031 C 13.929688 5.332031 13.332031 5.929688 13.332031 6.667969 C 13.332031 7.402344 13.929688 8 14.667969 8 C 15.402344 8 16 7.402344 16 6.667969 C 16 5.929688 15.402344 5.332031 14.667969 5.332031 Z M 14.667969 5.332031 "/>
</g>
</svg>
