<?xml version="1.0" encoding="UTF-8"?>
<svg xmlns="http://www.w3.org/2000/svg" xmlns:xlink="http://www.w3.org/1999/xlink" width="32" height="32" viewBox="0 0 32 32" version="1.1">
<g id="surface1">
<path style=" stroke:none;fill-rule:nonzero;fill:rgb(0%,0%,0%);fill-opacity:1;" d="M 5.332031 6.667969 L 5.332031 25.332031 L 26.667969 25.332031 L 26.667969 6.667969 Z M 4 4 L 28 4 C 28.738281 4 29.332031 4.597656 29.332031 5.332031 L 29.332031 26.667969 C 29.332031 27.402344 28.738281 28 28 28 L 4 28 C 3.261719 28 2.667969 27.402344 2.667969 26.667969 L 2.667969 5.332031 C 2.667969 4.597656 3.261719 4 4 4 Z M 10 15 L 12.667969 15 L 12.667969 12 L 14.667969 12 L 14.667969 20 L 12.667969 20 L 12.667969 17 L 10 17 L 10 20 L 8 20 L 8 12 L 10 12 Z M 19.332031 14 L 19.332031 18 L 21.332031 18 C 21.703125 18 22 17.703125 22 17.332031 L 22 14.667969 C 22 14.296875 21.703125 14 21.332031 14 Z M 17.332031 12 L 21.332031 12 C 22.804688 12 24 13.195312 24 14.667969 L 24 17.332031 C 24 18.804688 22.804688 20 21.332031 20 L 17.332031 20 Z M 17.332031 12 "/>
</g>
</svg>
