<?xml version="1.0" encoding="UTF-8"?>
<svg xmlns="http://www.w3.org/2000/svg" xmlns:xlink="http://www.w3.org/1999/xlink" width="32" height="32" viewBox="0 0 32 32" version="1.1">
<g id="surface1">
<path style=" stroke:none;fill-rule:nonzero;fill:rgb(0%,0%,0%);fill-opacity:1;" d="M 16.007812 0.0273438 C 12.667969 0.0273438 9.292969 1.046875 6.660156 3.230469 C 4.027344 5.414062 2.246094 8.839844 2.246094 13.019531 L 2.246094 18.4375 C 0.90625 19.265625 0 20.761719 0 22.496094 L 0 27.238281 C 0 29.855469 2.046875 31.980469 4.570312 31.980469 L 7.144531 31.980469 C 8.25 31.980469 9.144531 31.085938 9.144531 29.980469 L 9.144531 19.757812 C 9.144531 18.652344 8.25 17.757812 7.144531 17.757812 L 6.898438 17.757812 L 6.898438 13.019531 C 6.898438 10.085938 7.976562 8.175781 9.628906 6.804688 C 11.28125 5.433594 13.632812 4.679688 16.007812 4.679688 C 18.382812 4.679688 20.714844 5.433594 22.367188 6.804688 C 24.019531 8.175781 25.101562 10.085938 25.101562 13.019531 L 25.101562 17.757812 L 24.855469 17.757812 C 23.75 17.757812 22.855469 18.652344 22.855469 19.757812 L 22.855469 29.980469 C 22.855469 31.085938 23.75 31.980469 24.855469 31.980469 L 27.429688 31.980469 C 29.953125 31.980469 32 29.855469 32 27.238281 L 32 22.496094 C 32 20.761719 31.089844 19.261719 29.75 18.433594 L 29.75 13.019531 C 29.75 8.839844 27.96875 5.414062 25.335938 3.230469 C 22.703125 1.046875 19.347656 0.0273438 16.007812 0.0273438 Z M 16.007812 0.0273438 "/>
</g>
</svg>
