<?xml version="1.0" encoding="UTF-8"?>
<svg xmlns="http://www.w3.org/2000/svg" xmlns:xlink="http://www.w3.org/1999/xlink" width="32" height="32" viewBox="0 0 32 32" version="1.1">
<g id="surface1">
<path style=" stroke:none;fill-rule:nonzero;fill:rgb(0%,0%,0%);fill-opacity:1;" d="M 23.152344 14.726562 C 25.023438 12.871094 28.058594 12.871094 29.929688 14.726562 C 31.800781 16.585938 31.800781 19.597656 29.929688 21.457031 L 22.667969 28.667969 L 15.402344 21.457031 C 13.53125 19.597656 13.53125 16.585938 15.402344 14.726562 C 17.277344 12.871094 20.3125 12.871094 22.183594 14.726562 L 22.667969 15.207031 Z M 25.65625 6.34375 C 26.910156 7.601562 27.660156 9.167969 27.910156 10.792969 C 26.132812 10.460938 24.257812 10.78125 22.667969 11.742188 C 19.800781 10.007812 16.007812 10.371094 13.523438 12.835938 C 10.683594 15.65625 10.605469 20.1875 13.289062 23.101562 L 13.523438 23.347656 L 16.753906 26.554688 L 14.667969 28.648438 L 3.359375 17.324219 C 0.554688 14.183594 0.660156 9.359375 3.675781 6.34375 C 6.695312 3.324219 11.527344 3.222656 14.667969 6.039062 C 17.800781 3.226562 22.640625 3.320312 25.65625 6.34375 Z M 25.65625 6.34375 "/>
</g>
</svg>
