<?xml version="1.0" encoding="UTF-8"?>
<svg xmlns="http://www.w3.org/2000/svg" xmlns:xlink="http://www.w3.org/1999/xlink" width="32" height="32" viewBox="0 0 32 32" version="1.1">
<g id="surface1">
<path style=" stroke:none;fill-rule:nonzero;fill:rgb(0%,0%,0%);fill-opacity:1;" d="M 22 4 C 26.050781 4 29.332031 7.332031 29.332031 12 C 29.332031 21.332031 19.332031 26.667969 16 28.667969 C 12.667969 26.667969 2.667969 21.332031 2.667969 12 C 2.667969 7.332031 6 4 10 4 C 12.480469 4 14.667969 5.332031 16 6.667969 C 17.332031 5.332031 19.519531 4 22 4 Z M 17.246094 24.804688 C 18.421875 24.0625 19.480469 23.328125 20.472656 22.539062 C 24.445312 19.378906 26.667969 15.925781 26.667969 12 C 26.667969 8.851562 24.617188 6.667969 22 6.667969 C 20.566406 6.667969 19.011719 7.425781 17.886719 8.550781 L 16 10.4375 L 14.113281 8.550781 C 12.988281 7.425781 11.433594 6.667969 10 6.667969 C 7.414062 6.667969 5.332031 8.875 5.332031 12 C 5.332031 15.925781 7.554688 19.378906 11.527344 22.539062 C 12.519531 23.328125 13.578125 24.0625 14.753906 24.804688 C 15.152344 25.054688 15.546875 25.296875 16 25.566406 C 16.453125 25.296875 16.847656 25.054688 17.246094 24.804688 Z M 17.246094 24.804688 "/>
</g>
</svg>
