<?xml version="1.0" encoding="UTF-8"?>
<svg xmlns="http://www.w3.org/2000/svg" xmlns:xlink="http://www.w3.org/1999/xlink" width="32" height="32" viewBox="0 0 32 32" version="1.1">
<g id="surface1">
<path style=" stroke:none;fill-rule:nonzero;fill:rgb(0%,0%,0%);fill-opacity:1;" d="M 16 6.039062 C 19.132812 3.226562 23.972656 3.320312 26.992188 6.34375 C 30.007812 9.367188 30.109375 14.183594 27.304688 17.324219 L 16 28.648438 L 4.695312 17.324219 C 1.890625 14.183594 1.996094 9.359375 5.007812 6.34375 C 8.03125 3.324219 12.859375 3.222656 16 6.039062 Z M 25.101562 8.226562 C 23.101562 6.222656 19.875 6.144531 17.78125 8.023438 L 16.003906 9.621094 L 14.222656 8.023438 C 12.121094 6.140625 8.902344 6.222656 6.894531 8.230469 C 4.910156 10.214844 4.808594 13.394531 6.640625 15.496094 L 16 24.871094 L 25.359375 15.5 C 27.191406 13.394531 27.09375 10.21875 25.101562 8.226562 Z M 25.101562 8.226562 "/>
</g>
</svg>
