<?xml version="1.0" encoding="UTF-8"?>
<svg xmlns="http://www.w3.org/2000/svg" xmlns:xlink="http://www.w3.org/1999/xlink" width="32" height="32" viewBox="0 0 32 32" version="1.1">
<g id="surface1">
<path style=" stroke:none;fill-rule:evenodd;fill:rgb(0%,0%,0%);fill-opacity:1;" d="M 9.582031 1.992188 C 9.511719 1.996094 9.441406 2.007812 9.375 2.023438 C 9.355469 2.023438 9.335938 2.023438 9.316406 2.023438 C 9.15625 2.027344 8.988281 2.023438 8.828125 2.039062 C 5.125 2.359375 1.925781 4.777344 0.648438 8.253906 C -0.628906 11.726562 0.242188 15.636719 2.878906 18.246094 C 2.886719 18.257812 2.898438 18.269531 2.910156 18.277344 L 15.015625 29.617188 C 15.570312 30.136719 16.4375 30.136719 16.992188 29.617188 L 29.085938 18.277344 C 29.09375 18.269531 29.105469 18.257812 29.113281 18.246094 C 31.769531 15.617188 32.640625 11.683594 31.328125 8.195312 C 30.015625 4.703125 26.753906 2.289062 23.015625 2.023438 C 20.335938 1.832031 17.984375 3.238281 16.046875 5.035156 C 14.261719 3.34375 12.09375 1.996094 9.597656 2.007812 C 9.589844 2.007812 9.589844 1.992188 9.582031 1.992188 Z M 9.609375 4.902344 C 11.660156 4.886719 13.601562 5.792969 14.882812 7.367188 C 15.15625 7.703125 15.570312 7.898438 16.003906 7.898438 C 16.4375 7.898438 16.851562 7.703125 17.125 7.367188 C 18.5 5.683594 20.621094 4.765625 22.808594 4.917969 C 25.433594 5.101562 27.699219 6.785156 28.613281 9.210938 C 29.527344 11.640625 28.933594 14.359375 27.078125 16.195312 L 16.003906 26.574219 L 4.917969 16.195312 C 3.074219 14.371094 2.476562 11.675781 3.367188 9.257812 C 4.253906 6.839844 6.476562 5.140625 9.078125 4.917969 C 9.257812 4.902344 9.433594 4.902344 9.609375 4.902344 Z M 9.609375 4.902344 "/>
</g>
</svg>
