<?xml version="1.0" encoding="UTF-8"?>
<svg xmlns="http://www.w3.org/2000/svg" xmlns:xlink="http://www.w3.org/1999/xlink" width="32" height="32" viewBox="0 0 32 32" version="1.1">
<g id="surface1">
<path style=" stroke:none;fill-rule:nonzero;fill:rgb(0%,0%,0%);fill-opacity:1;" d="M 16.386719 0.882812 C 11.652344 0.902344 7.105469 3.164062 4.234375 7.09375 L 2.253906 6.027344 C 1.414062 5.578125 0.40625 6.21875 0.457031 7.171875 L 1.089844 16.25 C 1.105469 16.449219 1.171875 16.644531 1.28125 16.8125 C 1.652344 17.398438 2.441406 17.558594 3.011719 17.164062 L 10.035156 12.242188 C 10.785156 11.722656 10.726562 10.589844 9.925781 10.15625 L 7.863281 9.046875 L 7.796875 9.011719 C 10.753906 5.351562 15.742188 3.898438 20.285156 5.578125 C 25.398438 7.46875 28.367188 12.742188 27.339844 18.09375 C 26.3125 23.445312 21.597656 27.246094 16.148438 27.109375 C 15.046875 27.082031 14.128906 27.957031 14.101562 29.058594 C 14.089844 29.453125 14.199219 29.84375 14.410156 30.179688 C 14.769531 30.742188 15.382812 31.089844 16.050781 31.105469 C 23.425781 31.289062 29.878906 26.085938 31.269531 18.839844 C 32.660156 11.59375 28.582031 4.375 21.660156 1.816406 C 19.929688 1.175781 18.148438 0.875 16.386719 0.882812 Z M 16.386719 0.882812 "/>
<path style=" stroke:none;fill-rule:nonzero;fill:rgb(0%,0%,0%);fill-opacity:1;" d="M 13.996094 5.992188 L 13.996094 17.996094 L 26 17.996094 L 26 13.996094 L 17.996094 13.996094 L 17.996094 5.992188 Z M 13.996094 5.992188 "/>
</g>
</svg>
