<?xml version="1.0" encoding="UTF-8"?>
<svg xmlns="http://www.w3.org/2000/svg" xmlns:xlink="http://www.w3.org/1999/xlink" width="32" height="32" viewBox="0 0 32 32" version="1.1">
<g id="surface1">
<path style=" stroke:none;fill-rule:nonzero;fill:rgb(0%,0%,0%);fill-opacity:1;" d="M 26.667969 26.667969 C 26.667969 27.402344 26.070312 28 25.332031 28 L 6.667969 28 C 5.929688 28 5.332031 27.402344 5.332031 26.667969 L 5.332031 14.667969 L 1.332031 14.667969 L 15.101562 2.148438 C 15.613281 1.6875 16.386719 1.6875 16.898438 2.148438 L 30.667969 14.667969 L 26.667969 14.667969 Z M 16 22.667969 L 20.480469 18.1875 C 21.648438 17.015625 21.648438 15.117188 20.480469 13.945312 C 19.308594 12.773438 17.40625 12.773438 16.234375 13.945312 L 16 14.179688 L 15.765625 13.945312 C 14.59375 12.773438 12.691406 12.773438 11.519531 13.945312 C 10.351562 15.117188 10.351562 17.015625 11.519531 18.1875 Z M 16 22.667969 "/>
</g>
</svg>
