<?xml version="1.0" encoding="UTF-8"?>
<svg xmlns="http://www.w3.org/2000/svg" xmlns:xlink="http://www.w3.org/1999/xlink" width="32" height="32" viewBox="0 0 32 32" version="1.1">
<g id="surface1">
<path style=" stroke:none;fill-rule:nonzero;fill:rgb(0%,0%,0%);fill-opacity:1;" d="M 10.667969 26.667969 L 10.667969 18.667969 L 21.332031 18.667969 L 21.332031 26.667969 L 25.332031 26.667969 L 25.332031 5.332031 L 6.667969 5.332031 L 6.667969 26.667969 Z M 13.332031 26.667969 L 18.667969 26.667969 L 18.667969 21.332031 L 13.332031 21.332031 Z M 28 26.667969 L 30.667969 26.667969 L 30.667969 29.332031 L 1.332031 29.332031 L 1.332031 26.667969 L 4 26.667969 L 4 4 C 4 3.261719 4.597656 2.667969 5.332031 2.667969 L 26.667969 2.667969 C 27.402344 2.667969 28 3.261719 28 4 Z M 14.667969 10.667969 L 14.667969 8 L 17.332031 8 L 17.332031 10.667969 L 20 10.667969 L 20 13.332031 L 17.332031 13.332031 L 17.332031 16 L 14.667969 16 L 14.667969 13.332031 L 12 13.332031 L 12 10.667969 Z M 14.667969 10.667969 "/>
</g>
</svg>
