<?xml version="1.0" encoding="UTF-8"?>
<svg xmlns="http://www.w3.org/2000/svg" xmlns:xlink="http://www.w3.org/1999/xlink" width="32" height="32" viewBox="0 0 32 32" version="1.1">
<g id="surface1">
<path style=" stroke:none;fill-rule:nonzero;fill:rgb(0%,0%,0%);fill-opacity:1;" d="M 26.667969 4 C 27.402344 4 28 4.597656 28 5.332031 L 28 7.675781 L 25.332031 10.34375 L 25.332031 6.667969 L 6.667969 6.667969 L 6.667969 17.464844 L 12 12.132812 L 17.769531 17.90625 L 16 19.675781 L 15.992188 25.328125 L 21.65625 25.335938 L 23.429688 23.5625 L 25.199219 25.332031 L 25.332031 25.332031 L 25.332031 21.65625 L 28 18.988281 L 28 26.667969 C 28 27.402344 27.402344 28 26.667969 28 L 5.332031 28 C 4.597656 28 4 27.402344 4 26.667969 L 4 5.332031 C 4 4.597656 4.597656 4 5.332031 4 Z M 29.039062 10.410156 L 30.921875 12.296875 L 20.550781 22.667969 L 18.664062 22.664062 L 18.667969 20.78125 Z M 20.667969 9.332031 C 21.769531 9.332031 22.667969 10.230469 22.667969 11.332031 C 22.667969 12.4375 21.769531 13.332031 20.667969 13.332031 C 19.5625 13.332031 18.667969 12.4375 18.667969 11.332031 C 18.667969 10.230469 19.5625 9.332031 20.667969 9.332031 Z M 20.667969 9.332031 "/>
</g>
</svg>
