<?xml version="1.0" encoding="UTF-8"?>
<svg xmlns="http://www.w3.org/2000/svg" xmlns:xlink="http://www.w3.org/1999/xlink" width="32" height="32" viewBox="0 0 32 32" version="1.1">
<g id="surface1">
<path style=" stroke:none;fill-rule:nonzero;fill:rgb(0%,0%,0%);fill-opacity:1;" d="M 28 20 L 28 24 L 32 24 L 32 26.667969 L 28 26.667969 L 28 30.667969 L 25.332031 30.667969 L 25.332031 26.667969 L 21.332031 26.667969 L 21.332031 24 L 25.332031 24 L 25.332031 20 Z M 28.011719 4 C 28.742188 4 29.332031 4.59375 29.332031 5.324219 L 29.332031 17.332031 L 26.667969 17.332031 L 26.667969 6.667969 L 5.332031 6.667969 L 5.332031 25.332031 L 18.667969 12 L 22.667969 16 L 22.667969 19.773438 L 18.667969 15.773438 L 9.101562 25.332031 L 18.667969 25.332031 L 18.667969 28 L 3.988281 28 C 3.257812 28 2.667969 27.40625 2.667969 26.675781 L 2.667969 5.324219 C 2.671875 4.59375 3.261719 4.003906 3.988281 4 Z M 10.667969 9.332031 C 12.140625 9.332031 13.332031 10.527344 13.332031 12 C 13.332031 13.472656 12.140625 14.667969 10.667969 14.667969 C 9.195312 14.667969 8 13.472656 8 12 C 8 10.527344 9.195312 9.332031 10.667969 9.332031 Z M 10.667969 9.332031 "/>
</g>
</svg>
