<?xml version="1.0" encoding="UTF-8"?>
<svg xmlns="http://www.w3.org/2000/svg" xmlns:xlink="http://www.w3.org/1999/xlink" width="32" height="32" viewBox="0 0 32 32" version="1.1">
<g id="surface1">
<path style=" stroke:none;fill-rule:nonzero;fill:rgb(0%,0%,0%);fill-opacity:1;" d="M 7.25 24.71875 L 24.714844 24.71875 L 24.714844 17.40625 L 21.144531 12.902344 L 15.753906 18.910156 L 11.726562 15.988281 L 7.25 20.078125 Z M 7.25 24.71875 "/>
<path style=" stroke:none;fill-rule:nonzero;fill:rgb(0%,0%,0%);fill-opacity:1;" d="M 21.121094 11.632812 C 20.769531 11.640625 20.433594 11.792969 20.199219 12.058594 L 15.5625 17.210938 L 12.480469 14.957031 C 11.988281 14.601562 11.316406 14.640625 10.871094 15.050781 L 6.382812 19.128906 C 6.125 19.375 5.976562 19.714844 5.976562 20.070312 L 5.976562 24.726562 C 5.976562 25.429688 6.546875 26 7.253906 26 L 24.703125 26 C 25.40625 26 25.980469 25.429688 25.976562 24.726562 L 25.976562 17.414062 C 25.984375 17.125 25.894531 16.847656 25.71875 16.617188 L 22.136719 12.113281 C 21.890625 11.804688 21.515625 11.625 21.121094 11.632812 Z M 21.121094 11.632812 "/>
<path style=" stroke:none;fill-rule:nonzero;fill:rgb(0%,0%,0%);fill-opacity:1;" d="M 13.039062 10 C 13.039062 11.945312 11.460938 13.519531 9.519531 13.519531 C 7.574219 13.519531 6 11.945312 6 10 C 6 8.054688 7.574219 6.480469 9.519531 6.480469 C 11.460938 6.480469 13.039062 8.054688 13.039062 10 "/>
<path style=" stroke:none;fill-rule:evenodd;fill:rgb(0%,0%,0%);fill-opacity:1;" d="M 2.960938 1.992188 C 2.40625 1.988281 1.953125 2.441406 1.957031 2.996094 L 1.957031 29.003906 C 1.960938 29.554688 2.410156 29.996094 2.960938 29.992188 L 28.988281 29.992188 C 29.539062 29.996094 29.988281 29.554688 29.992188 29.003906 L 29.992188 2.996094 C 29.996094 2.441406 29.542969 1.988281 28.988281 1.992188 Z M 3.964844 4 L 28 4 L 28 28 L 3.964844 28 Z M 3.964844 4 "/>
</g>
</svg>
