<?xml version="1.0" encoding="UTF-8"?>
<svg xmlns="http://www.w3.org/2000/svg" xmlns:xlink="http://www.w3.org/1999/xlink" width="32" height="32" viewBox="0 0 32 32" version="1.1">
<g id="surface1">
<path style=" stroke:none;fill-rule:nonzero;fill:rgb(0%,0%,0%);fill-opacity:1;" d="M 26.667969 6.667969 L 5.332031 6.667969 L 5.332031 25.332031 L 17.722656 12.941406 C 18.242188 12.421875 19.085938 12.421875 19.609375 12.941406 L 26.667969 20.011719 Z M 2.667969 5.324219 C 2.671875 4.59375 3.261719 4.003906 3.988281 4 L 28.011719 4 C 28.742188 4 29.332031 4.59375 29.332031 5.324219 L 29.332031 26.675781 C 29.328125 27.40625 28.738281 27.996094 28.011719 28 L 3.988281 28 C 3.257812 28 2.667969 27.40625 2.667969 26.675781 Z M 10.667969 14.667969 C 9.195312 14.667969 8 13.472656 8 12 C 8 10.527344 9.195312 9.332031 10.667969 9.332031 C 12.140625 9.332031 13.332031 10.527344 13.332031 12 C 13.332031 13.472656 12.140625 14.667969 10.667969 14.667969 Z M 10.667969 14.667969 "/>
</g>
</svg>
