<?xml version="1.0" encoding="UTF-8"?>
<svg xmlns="http://www.w3.org/2000/svg" xmlns:xlink="http://www.w3.org/1999/xlink" width="32" height="32" viewBox="0 0 32 32" version="1.1">
<g id="surface1">
<path style=" stroke:none;fill-rule:nonzero;fill:rgb(0%,0%,0%);fill-opacity:1;" d="M 16.203125 0.0078125 C 9.230469 -0.179688 2.632812 4.65625 0.703125 11.359375 C 0.699219 11.363281 0.703125 11.371094 0.703125 11.375 C -1.429688 18.054688 1.40625 25.761719 7.359375 29.460938 C 13.183594 33.328125 21.363281 32.710938 26.554688 28.027344 C 31.886719 23.484375 33.550781 15.429688 30.453125 9.144531 C 27.921875 3.695312 22.242188 0.0429688 16.234375 0.0078125 Z M 16.171875 2 C 16.179688 2 16.1875 2 16.203125 2 C 21.417969 2.019531 26.460938 5.269531 28.652344 10 C 28.65625 10.003906 28.65625 10.011719 28.667969 10.015625 C 31.34375 15.4375 29.855469 22.613281 25.246094 26.523438 C 25.238281 26.535156 25.230469 26.539062 25.230469 26.550781 C 20.761719 30.589844 13.492188 31.125 8.472656 27.792969 C 8.464844 27.789062 8.449219 27.78125 8.441406 27.777344 C 3.300781 24.59375 0.765625 17.722656 2.609375 11.964844 C 2.613281 11.953125 2.617188 11.945312 2.625 11.9375 C 4.277344 6.144531 10.15625 1.828125 16.179688 2 Z M 13.996094 6 L 13.996094 10 L 17.996094 10 L 17.996094 6 Z M 13.996094 14 L 13.996094 26 L 17.996094 26 L 17.996094 14 Z M 13.996094 14 "/>
</g>
</svg>
