<?xml version="1.0" encoding="UTF-8"?>
<svg xmlns="http://www.w3.org/2000/svg" xmlns:xlink="http://www.w3.org/1999/xlink" width="32" height="32" viewBox="0 0 32 32" version="1.1">
<g id="surface1">
<path style=" stroke:none;fill-rule:nonzero;fill:rgb(0%,0%,0%);fill-opacity:1;" d="M 26.667969 17.332031 C 27.402344 17.332031 28 17.929688 28 18.667969 L 28 26.667969 C 28 27.402344 27.402344 28 26.667969 28 L 5.332031 28 C 4.597656 28 4 27.402344 4 26.667969 L 4 18.667969 C 4 17.929688 4.597656 17.332031 5.332031 17.332031 Z M 25.332031 20 L 6.667969 20 L 6.667969 25.332031 L 25.332031 25.332031 Z M 16 1.332031 C 19.679688 1.332031 22.667969 4.320312 22.667969 8 C 22.667969 11.679688 19.679688 14.667969 16 14.667969 C 12.320312 14.667969 9.332031 11.679688 9.332031 8 C 9.332031 4.320312 12.320312 1.332031 16 1.332031 Z M 17.332031 4 L 14.667969 4 L 14.667969 6.664062 L 12 6.667969 L 12 9.332031 L 14.667969 9.332031 L 14.667969 12 L 17.332031 12 L 17.332031 9.332031 L 20 9.332031 L 20 6.667969 L 17.332031 6.664062 Z M 17.332031 4 "/>
</g>
</svg>
