<?xml version="1.0" encoding="UTF-8"?>
<svg xmlns="http://www.w3.org/2000/svg" xmlns:xlink="http://www.w3.org/1999/xlink" width="32" height="32" viewBox="0 0 32 32" version="1.1">
<g id="surface1">
<path style=" stroke:none;fill-rule:nonzero;fill:rgb(0%,0%,0%);fill-opacity:1;" d="M 16 17.332031 C 19.679688 17.332031 22.667969 20.320312 22.667969 24 C 22.667969 27.679688 19.679688 30.667969 16 30.667969 C 12.320312 30.667969 9.332031 27.679688 9.332031 24 C 9.332031 20.320312 12.320312 17.332031 16 17.332031 Z M 17.332031 20 L 14.667969 20 L 14.667969 22.664062 L 12 22.667969 L 12 25.332031 L 14.667969 25.332031 L 14.667969 28 L 17.332031 28 L 17.332031 25.332031 L 20 25.332031 L 20 22.667969 L 17.332031 22.664062 Z M 26.667969 4 C 27.402344 4 28 4.597656 28 5.332031 L 28 13.332031 C 28 14.070312 27.402344 14.667969 26.667969 14.667969 L 5.332031 14.667969 C 4.597656 14.667969 4 14.070312 4 13.332031 L 4 5.332031 C 4 4.597656 4.597656 4 5.332031 4 Z M 6.667969 6.667969 L 6.667969 12 L 25.332031 12 L 25.332031 6.667969 Z M 6.667969 6.667969 "/>
</g>
</svg>
