<?xml version="1.0" encoding="UTF-8"?>
<svg xmlns="http://www.w3.org/2000/svg" xmlns:xlink="http://www.w3.org/1999/xlink" width="32" height="32" viewBox="0 0 32 32" version="1.1">
<g id="surface1">
<path style=" stroke:none;fill-rule:nonzero;fill:rgb(0%,0%,0%);fill-opacity:1;" d="M 6 6 C 6 6 1.40625 16.136719 0.140625 21.238281 C -1.125 26.339844 6.535156 27.769531 8.667969 23.414062 L 10.800781 19.0625 L 21.199219 19.0625 L 23.332031 23.414062 C 25.464844 27.769531 33.125 26.339844 31.859375 21.238281 C 30.59375 16.136719 26 6 26 6 L 20 6 L 20 8 L 12 8 L 12 6 Z M 21.972656 8.5 C 21.980469 8.5 21.992188 8.5 22 8.5 C 22.828125 8.5 23.5 9.171875 23.5 10 C 23.5 10.828125 22.828125 11.5 22 11.5 C 21.171875 11.5 20.5 10.828125 20.5 10 C 20.5 9.183594 21.15625 8.515625 21.972656 8.5 Z M 8 10 L 10 10 L 10 12 L 12 12 L 12 14 L 10 14 L 10 16 L 8 16 L 8 14 L 6 14 L 6 12 L 8 12 Z M 18.972656 11.5 C 18.980469 11.5 18.992188 11.5 19 11.5 C 19.828125 11.5 20.5 12.171875 20.5 13 C 20.5 13.828125 19.828125 14.5 19 14.5 C 18.171875 14.5 17.5 13.828125 17.5 13 C 17.5 12.183594 18.15625 11.515625 18.972656 11.5 Z M 24.972656 11.5 C 24.980469 11.5 24.992188 11.5 25 11.5 C 25.828125 11.5 26.5 12.171875 26.5 13 C 26.5 13.828125 25.828125 14.5 25 14.5 C 24.171875 14.5 23.5 13.828125 23.5 13 C 23.5 12.183594 24.15625 11.515625 24.972656 11.5 Z M 21.972656 14.5 C 21.980469 14.5 21.992188 14.5 22 14.5 C 22.828125 14.5 23.5 15.171875 23.5 16 C 23.5 16.828125 22.828125 17.5 22 17.5 C 21.171875 17.5 20.5 16.828125 20.5 16 C 20.5 15.183594 21.15625 14.515625 21.972656 14.5 Z M 21.972656 14.5 "/>
</g>
</svg>
