<?xml version="1.0" encoding="UTF-8"?>
<svg xmlns="http://www.w3.org/2000/svg" xmlns:xlink="http://www.w3.org/1999/xlink" width="32" height="32" viewBox="0 0 32 32" version="1.1">
<g id="surface1">
<path style=" stroke:none;fill-rule:evenodd;fill:rgb(0%,0%,0%);fill-opacity:1;" d="M 2 5 C 0.890625 5 0 5.890625 0 7 L 0 25 C 0 26.109375 0.890625 27 2 27 L 30 27 C 31.109375 27 32 26.109375 32 25 L 32 7 C 32 5.890625 31.109375 5 30 5 Z M 3.09375 8 L 4.90625 8 C 5.511719 8 6 8.488281 6 9.09375 L 6 10.90625 C 6 11.511719 5.511719 12 4.90625 12 L 3.09375 12 C 2.488281 12 2 11.511719 2 10.90625 L 2 9.09375 C 2 8.488281 2.488281 8 3.09375 8 Z M 9.09375 8 L 10.90625 8 C 11.511719 8 12 8.488281 12 9.09375 L 12 10.90625 C 12 11.511719 11.511719 12 10.90625 12 L 9.09375 12 C 8.488281 12 8 11.511719 8 10.90625 L 8 9.09375 C 8 8.488281 8.488281 8 9.09375 8 Z M 15.09375 8 L 16.90625 8 C 17.511719 8 18 8.488281 18 9.09375 L 18 10.90625 C 18 11.511719 17.511719 12 16.90625 12 L 15.09375 12 C 14.488281 12 14 11.511719 14 10.90625 L 14 9.09375 C 14 8.488281 14.488281 8 15.09375 8 Z M 21.09375 8 L 22.90625 8 C 23.511719 8 24 8.488281 24 9.09375 L 24 10.90625 C 24 11.511719 23.511719 12 22.90625 12 L 21.09375 12 C 20.488281 12 20 11.511719 20 10.90625 L 20 9.09375 C 20 8.488281 20.488281 8 21.09375 8 Z M 27.09375 8 L 28.90625 8 C 29.511719 8 30 8.488281 30 9.09375 L 30 10.90625 C 30 11.511719 29.511719 12 28.90625 12 L 27.09375 12 C 26.488281 12 26 11.511719 26 10.90625 L 26 9.09375 C 26 8.488281 26.488281 8 27.09375 8 Z M 5.09375 14 L 6.90625 14 C 7.511719 14 8 14.488281 8 15.09375 L 8 16.90625 C 8 17.511719 7.511719 18 6.90625 18 L 5.09375 18 C 4.488281 18 4 17.511719 4 16.90625 L 4 15.09375 C 4 14.488281 4.488281 14 5.09375 14 Z M 11.09375 14 L 12.90625 14 C 13.511719 14 14 14.488281 14 15.09375 L 14 16.90625 C 14 17.511719 13.511719 18 12.90625 18 L 11.09375 18 C 10.488281 18 10 17.511719 10 16.90625 L 10 15.09375 C 10 14.488281 10.488281 14 11.09375 14 Z M 17.09375 14 L 18.90625 14 C 19.511719 14 20 14.488281 20 15.09375 L 20 16.90625 C 20 17.511719 19.511719 18 18.90625 18 L 17.09375 18 C 16.488281 18 16 17.511719 16 16.90625 L 16 15.09375 C 16 14.488281 16.488281 14 17.09375 14 Z M 23.09375 14 L 28.90625 14 C 29.511719 14 30 14.488281 30 15.09375 L 30 16.90625 C 30 17.511719 29.511719 18 28.90625 18 L 23.09375 18 C 22.488281 18 22 17.511719 22 16.90625 L 22 15.09375 C 22 14.488281 22.488281 14 23.09375 14 Z M 3.09375 20 L 4.90625 20 C 5.511719 20 6 20.488281 6 21.09375 L 6 22.90625 C 6 23.511719 5.511719 24 4.90625 24 L 3.09375 24 C 2.488281 24 2 23.511719 2 22.90625 L 2 21.09375 C 2 20.488281 2.488281 20 3.09375 20 Z M 9.09375 20 L 22.90625 20 C 23.511719 20 24 20.488281 24 21.09375 L 24 22.90625 C 24 23.511719 23.511719 24 22.90625 24 L 9.09375 24 C 8.488281 24 8 23.511719 8 22.90625 L 8 21.09375 C 8 20.488281 8.488281 20 9.09375 20 Z M 27.09375 20 L 28.90625 20 C 29.511719 20 30 20.488281 30 21.09375 L 30 22.90625 C 30 23.511719 29.511719 24 28.90625 24 L 27.09375 24 C 26.488281 24 26 23.511719 26 22.90625 L 26 21.09375 C 26 20.488281 26.488281 20 27.09375 20 Z M 27.09375 20 "/>
</g>
</svg>
