<?xml version="1.0" encoding="UTF-8"?>
<svg xmlns="http://www.w3.org/2000/svg" xmlns:xlink="http://www.w3.org/1999/xlink" width="32" height="32" viewBox="0 0 32 32" version="1.1">
<g id="surface1">
<path style=" stroke:none;fill-rule:nonzero;fill:rgb(0%,0%,0%);fill-opacity:1;" d="M 4 22.667969 L 28 22.667969 L 28 25.332031 L 4 25.332031 Z M 4 14.667969 L 8 14.667969 L 8 18.667969 L 4 18.667969 Z M 10.667969 14.667969 L 14.667969 14.667969 L 14.667969 18.667969 L 10.667969 18.667969 Z M 4 6.667969 L 8 6.667969 L 8 10.667969 L 4 10.667969 Z M 17.332031 6.667969 L 21.332031 6.667969 L 21.332031 10.667969 L 17.332031 10.667969 Z M 24 6.667969 L 28 6.667969 L 28 10.667969 L 24 10.667969 Z M 17.332031 14.667969 L 21.332031 14.667969 L 21.332031 18.667969 L 17.332031 18.667969 Z M 24 14.667969 L 28 14.667969 L 28 18.667969 L 24 18.667969 Z M 10.667969 6.667969 L 14.667969 6.667969 L 14.667969 10.667969 L 10.667969 10.667969 Z M 10.667969 6.667969 "/>
</g>
</svg>
