<?xml version="1.0" encoding="UTF-8"?>
<svg xmlns="http://www.w3.org/2000/svg" xmlns:xlink="http://www.w3.org/1999/xlink" width="32" height="32" viewBox="0 0 32 32" version="1.1">
<g id="surface1">
<path style=" stroke:none;fill-rule:evenodd;fill:rgb(0%,0%,0%);fill-opacity:1;" d="M 6 0 L 6 4 L 10 4 L 10 0 Z M 12 0 L 12 4 L 16 4 L 16 0 Z M 14 4 C 12.890625 4 12 4.890625 12 6 L 12 18 C 12 18 10 20 10 22 C 10 23.398438 11.953125 27.71875 13.128906 30.199219 C 13.601562 31.195312 14.894531 32 16 32 L 26 32 C 27.109375 32 28 31.109375 28 30 L 28 16 C 28 14.890625 27.109375 14 26 14 C 24.890625 14 24 14.890625 24 16 L 24 15 C 24 13.890625 23.109375 13 22 13 C 20.890625 13 20 13.890625 20 15 L 20 14 C 20 12.890625 19.109375 12 18 12 C 16.890625 12 16 12.890625 16 14 L 16 6 C 16 4.890625 15.109375 4 14 4 Z M 18 0 L 18 4 L 22 4 L 22 0 Z M 6 6 L 6 10 L 10 10 L 10 6 Z M 18 6 L 18 10 L 22 10 L 22 6 Z M 6 12 L 6 16 L 10 16 L 10 12 Z M 6 12 "/>
</g>
</svg>
