<?xml version="1.0" encoding="UTF-8"?>
<svg xmlns="http://www.w3.org/2000/svg" xmlns:xlink="http://www.w3.org/1999/xlink" width="32" height="32" viewBox="0 0 32 32" version="1.1">
<g id="surface1">
<path style=" stroke:none;fill-rule:nonzero;fill:rgb(0%,0%,0%);fill-opacity:1;" d="M 5.789062 1.878906 L 29.832031 25.921875 C 30.613281 26.699219 30.613281 27.96875 29.832031 28.75 C 29.050781 29.53125 27.785156 29.53125 27.003906 28.75 L 20.875 22.621094 L 16.160156 27.332031 L 10.667969 21.839844 L 10.667969 25.332031 C 10.667969 26.070312 10.070312 26.667969 9.332031 26.667969 C 8.597656 26.667969 8 26.070312 8 25.332031 L 8 20 C 8 19.292969 7.449219 18.710938 6.746094 18.671875 C 6.039062 18.628906 5.425781 19.144531 5.34375 19.84375 L 5.332031 20 L 5.332031 21.332031 C 5.332031 22.070312 4.738281 22.667969 4 22.667969 C 3.261719 22.667969 2.667969 22.070312 2.667969 21.332031 L 2.667969 9.617188 C 2.609375 6.835938 3.648438 4.140625 5.558594 2.117188 Z M 6.109375 5.96875 L 6.042969 6.117188 C 5.640625 7 5.40625 7.953125 5.347656 8.921875 L 5.332031 9.332031 L 5.332031 9.492188 C 5.347656 11.472656 6.097656 13.375 7.4375 14.832031 L 7.675781 15.078125 L 16.160156 23.5625 L 19.929688 19.789062 Z M 6.109375 5.96875 "/>
</g>
</svg>
