<?xml version="1.0" encoding="UTF-8"?>
<svg xmlns="http://www.w3.org/2000/svg" xmlns:xlink="http://www.w3.org/1999/xlink" width="32" height="32" viewBox="0 0 32 32" version="1.1">
<g id="surface1">
<path style=" stroke:none;fill-rule:nonzero;fill:rgb(0%,0%,0%);fill-opacity:1;" d="M 8 0 L 2.65625 14.246094 C 2.511719 14.632812 2.558594 15.066406 2.785156 15.414062 C 3.011719 15.761719 3.390625 15.980469 3.804688 16 L 28.128906 16 C 28.554688 16 28.953125 15.792969 29.195312 15.441406 C 29.4375 15.089844 29.492188 14.644531 29.34375 14.246094 L 24 0 Z M 11.042969 18 C 10.351562 22.230469 10.65625 26.753906 12.507812 30 L 6.761719 30 C 6.339844 30 6 30.339844 6 30.761719 L 6 31.238281 C 6 31.660156 6.339844 32 6.761719 32 L 25.238281 32 C 25.660156 32 26 31.660156 26 31.238281 L 26 30.761719 C 26 30.339844 25.660156 30 25.238281 30 L 19.492188 30 C 21.34375 26.753906 21.648438 22.230469 20.957031 18 Z M 11.042969 18 "/>
</g>
</svg>
