<?xml version="1.0" encoding="UTF-8"?>
<svg xmlns="http://www.w3.org/2000/svg" xmlns:xlink="http://www.w3.org/1999/xlink" width="32" height="32" viewBox="0 0 32 32" version="1.1">
<g id="surface1">
<path style=" stroke:none;fill-rule:nonzero;fill:rgb(0%,0%,0%);fill-opacity:1;" d="M 16 2.667969 C 23.363281 2.667969 29.332031 8.636719 29.332031 16 C 29.332031 23.363281 23.363281 29.332031 16 29.332031 C 8.636719 29.332031 2.667969 23.363281 2.667969 16 C 2.667969 8.636719 8.636719 2.667969 16 2.667969 Z M 16 22.667969 C 15.164062 22.667969 14.339844 22.511719 13.5625 22.207031 L 10.582031 25.1875 C 12.222656 26.160156 14.09375 26.667969 16 26.667969 C 17.90625 26.667969 19.777344 26.160156 21.417969 25.1875 L 18.4375 22.207031 C 17.660156 22.511719 16.835938 22.667969 16 22.667969 Z M 5.332031 16 C 5.332031 17.980469 5.871094 19.832031 6.8125 21.417969 L 9.792969 18.4375 C 9.488281 17.660156 9.332031 16.835938 9.332031 16 C 9.332031 15.140625 9.496094 14.320312 9.792969 13.5625 L 6.8125 10.582031 C 5.839844 12.222656 5.332031 14.09375 5.332031 16 Z M 25.1875 10.582031 L 22.207031 13.5625 C 22.503906 14.320312 22.667969 15.140625 22.667969 16 C 22.667969 16.859375 22.503906 17.679688 22.207031 18.4375 L 25.1875 21.417969 C 26.160156 19.777344 26.667969 17.90625 26.667969 16 C 26.667969 14.09375 26.160156 12.222656 25.1875 10.582031 Z M 16 12 C 13.789062 12 12 13.789062 12 16 C 12 18.210938 13.789062 20 16 20 C 18.210938 20 20 18.210938 20 16 C 20 13.789062 18.210938 12 16 12 Z M 16 5.332031 C 14.09375 5.332031 12.222656 5.839844 10.582031 6.8125 L 13.5625 9.792969 C 14.339844 9.488281 15.164062 9.332031 16 9.332031 C 16.859375 9.332031 17.679688 9.496094 18.4375 9.792969 L 21.417969 6.8125 C 19.777344 5.839844 17.90625 5.332031 16 5.332031 Z M 16 5.332031 "/>
</g>
</svg>
