<?xml version="1.0" encoding="UTF-8"?>
<svg xmlns="http://www.w3.org/2000/svg" xmlns:xlink="http://www.w3.org/1999/xlink" width="32" height="32" viewBox="0 0 32 32" version="1.1">
<g id="surface1">
<path style=" stroke:none;fill-rule:nonzero;fill:rgb(0%,0%,0%);fill-opacity:1;" d="M 29.332031 14.253906 C 29.332031 16.636719 28.417969 18.785156 26.503906 20.886719 C 23.703125 24.105469 17.453125 28.035156 16.015625 28.632812 C 14.585938 29.234375 14.800781 28.253906 14.851562 27.917969 L 15.035156 26.785156 C 15.078125 26.4375 15.125 25.917969 14.992188 25.585938 C 14.84375 25.214844 14.25 25.019531 13.816406 24.929688 C 7.410156 24.078125 2.667969 19.601562 2.667969 14.253906 C 2.667969 8.285156 8.648438 3.429688 16 3.429688 C 23.347656 3.429688 29.332031 8.285156 29.332031 14.253906 Z M 24.535156 19.085938 C 26.015625 17.460938 26.667969 15.9375 26.667969 14.253906 C 26.667969 9.894531 21.988281 6.097656 16 6.097656 C 10.011719 6.097656 5.332031 9.894531 5.332031 14.253906 C 5.332031 18.125 8.96875 21.597656 14.167969 22.285156 L 14.363281 22.320312 C 15.800781 22.621094 16.875 23.136719 17.46875 24.597656 L 17.515625 24.726562 C 19.925781 23.15625 23.082031 20.753906 24.53125 19.085938 Z M 24.183594 13.753906 C 24.554688 13.777344 24.84375 14.082031 24.84375 14.453125 C 24.84375 14.824219 24.554688 15.128906 24.183594 15.152344 L 22.234375 15.152344 L 22.234375 16.402344 L 24.183594 16.402344 C 24.441406 16.394531 24.683594 16.523438 24.8125 16.746094 C 24.945312 16.964844 24.945312 17.242188 24.8125 17.460938 C 24.683594 17.683594 24.441406 17.8125 24.183594 17.800781 L 21.535156 17.800781 C 21.148438 17.800781 20.839844 17.488281 20.835938 17.105469 L 20.835938 11.800781 C 20.835938 11.421875 21.152344 11.101562 21.539062 11.101562 L 24.1875 11.101562 C 24.574219 11.105469 24.886719 11.417969 24.886719 11.804688 C 24.886719 12.191406 24.570312 12.503906 24.183594 12.503906 L 22.234375 12.503906 L 22.234375 13.753906 Z M 19.898438 17.105469 C 19.898438 17.488281 19.585938 17.800781 19.199219 17.800781 C 18.976562 17.804688 18.765625 17.703125 18.632812 17.523438 L 15.917969 13.835938 L 15.917969 17.105469 C 15.890625 17.46875 15.585938 17.75 15.21875 17.75 C 14.851562 17.75 14.550781 17.46875 14.519531 17.105469 L 14.519531 11.800781 C 14.519531 11.417969 14.832031 11.105469 15.214844 11.105469 C 15.429688 11.105469 15.628906 11.21875 15.765625 11.386719 L 18.5 15.085938 L 18.5 11.800781 C 18.5 11.421875 18.8125 11.101562 19.199219 11.101562 C 19.582031 11.101562 19.898438 11.421875 19.898438 11.800781 Z M 13.519531 17.105469 C 13.519531 17.488281 13.207031 17.800781 12.820312 17.800781 C 12.433594 17.800781 12.125 17.488281 12.121094 17.105469 L 12.121094 11.800781 C 12.121094 11.421875 12.4375 11.101562 12.824219 11.101562 C 13.207031 11.101562 13.519531 11.421875 13.519531 11.800781 Z M 10.78125 17.800781 L 8.128906 17.800781 C 7.746094 17.800781 7.433594 17.488281 7.429688 17.105469 L 7.429688 11.800781 C 7.460938 11.441406 7.765625 11.160156 8.128906 11.160156 C 8.492188 11.160156 8.796875 11.441406 8.828125 11.800781 L 8.828125 16.402344 L 10.78125 16.402344 C 11.167969 16.402344 11.480469 16.714844 11.480469 17.101562 C 11.480469 17.488281 11.167969 17.800781 10.78125 17.800781 Z M 10.78125 17.800781 "/>
</g>
</svg>
