<?xml version="1.0" encoding="UTF-8"?>
<svg xmlns="http://www.w3.org/2000/svg" xmlns:xlink="http://www.w3.org/1999/xlink" width="32" height="32" viewBox="0 0 32 32" version="1.1">
<g id="surface1">
<path style=" stroke:none;fill-rule:nonzero;fill:rgb(0%,0%,0%);fill-opacity:1;" d="M 5.332031 4 L 26.667969 4 C 27.402344 4 28 4.597656 28 5.332031 L 28 26.667969 C 28 27.402344 27.402344 28 26.667969 28 L 5.332031 28 C 4.597656 28 4 27.402344 4 26.667969 L 4 5.332031 C 4 4.597656 4.597656 4 5.332031 4 Z M 6.667969 6.667969 L 6.667969 25.332031 L 25.332031 25.332031 L 25.332031 6.667969 Z M 10 12 C 8.894531 12 8 11.105469 8 10 C 8 8.894531 8.894531 8 10 8 C 11.105469 8 12 8.894531 12 10 C 12 11.105469 11.105469 12 10 12 Z M 8.667969 13.332031 L 11.332031 13.332031 L 11.332031 23.332031 L 8.667969 23.332031 Z M 16 13.90625 C 16.777344 13.152344 17.6875 12.667969 18.667969 12.667969 C 21.429688 12.667969 23.332031 14.90625 23.332031 17.667969 L 23.332031 23.332031 L 20.667969 23.332031 L 20.667969 17.667969 C 20.667969 16.378906 19.621094 15.332031 18.332031 15.332031 C 17.042969 15.332031 16 16.378906 16 17.667969 L 16 23.332031 L 13.332031 23.332031 L 13.332031 13.332031 L 16 13.332031 Z M 16 13.90625 "/>
</g>
</svg>
