<?xml version="1.0" encoding="UTF-8"?>
<svg xmlns="http://www.w3.org/2000/svg" xmlns:xlink="http://www.w3.org/1999/xlink" width="32" height="32" viewBox="0 0 32 32" version="1.1">
<g id="surface1">
<path style=" stroke:none;fill-rule:nonzero;fill:rgb(0%,0%,0%);fill-opacity:1;" d="M 10.667969 5.332031 L 28 5.332031 L 28 8 L 10.667969 8 Z M 6.667969 4 L 6.667969 8 L 8 8 L 8 9.332031 L 4 9.332031 L 4 8 L 5.332031 8 L 5.332031 5.332031 L 4 5.332031 L 4 4 Z M 4 18.667969 L 4 15.332031 L 6.667969 15.332031 L 6.667969 14.667969 L 4 14.667969 L 4 13.332031 L 8 13.332031 L 8 16.667969 L 5.332031 16.667969 L 5.332031 17.332031 L 8 17.332031 L 8 18.667969 Z M 6.667969 26 L 4 26 L 4 24.667969 L 6.667969 24.667969 L 6.667969 24 L 4 24 L 4 22.667969 L 8 22.667969 L 8 28 L 4 28 L 4 26.667969 L 6.667969 26.667969 Z M 10.667969 14.667969 L 28 14.667969 L 28 17.332031 L 10.667969 17.332031 Z M 10.667969 24 L 28 24 L 28 26.667969 L 10.667969 26.667969 Z M 10.667969 24 "/>
</g>
</svg>
