<?xml version="1.0" encoding="UTF-8"?>
<svg xmlns="http://www.w3.org/2000/svg" xmlns:xlink="http://www.w3.org/1999/xlink" width="32" height="32" viewBox="0 0 32 32" version="1.1">
<g id="surface1">
<path style=" stroke:none;fill-rule:nonzero;fill:rgb(0%,0%,0%);fill-opacity:1;" d="M 21.332031 5.332031 C 22.070312 5.332031 22.667969 5.929688 22.667969 6.667969 L 22.667969 12.265625 L 29.617188 7.398438 C 29.820312 7.257812 30.085938 7.238281 30.308594 7.355469 C 30.527344 7.46875 30.667969 7.699219 30.667969 7.945312 L 30.667969 24.054688 C 30.667969 24.300781 30.527344 24.53125 30.308594 24.644531 C 30.085938 24.761719 29.820312 24.742188 29.617188 24.601562 L 22.667969 19.734375 L 22.667969 25.332031 C 22.667969 26.070312 22.070312 26.667969 21.332031 26.667969 L 2.667969 26.667969 C 1.929688 26.667969 1.332031 26.070312 1.332031 25.332031 L 1.332031 6.667969 C 1.332031 5.929688 1.929688 5.332031 2.667969 5.332031 Z M 20 8 L 4 8 L 4 24 L 20 24 Z M 9.867188 11.773438 C 9.96875 11.773438 10.066406 11.800781 10.152344 11.855469 L 15.960938 15.550781 C 16.113281 15.648438 16.207031 15.816406 16.207031 16 C 16.207031 16.183594 16.113281 16.351562 15.960938 16.449219 L 10.152344 20.148438 C 9.988281 20.25 9.78125 20.257812 9.609375 20.164062 C 9.4375 20.070312 9.332031 19.890625 9.332031 19.691406 L 9.332031 12.308594 C 9.332031 12.011719 9.574219 11.773438 9.867188 11.773438 Z M 28 11.785156 L 22.667969 15.519531 L 22.667969 16.476562 L 28 20.210938 Z M 28 11.785156 "/>
</g>
</svg>
