<?xml version="1.0" encoding="UTF-8"?>
<svg xmlns="http://www.w3.org/2000/svg" xmlns:xlink="http://www.w3.org/1999/xlink" width="32" height="32" viewBox="0 0 32 32" version="1.1">
<g id="surface1">
<path style=" stroke:none;fill-rule:nonzero;fill:rgb(0%,0%,0%);fill-opacity:1;" d="M 13.332031 14.667969 L 13.332031 10.667969 L 20 16 L 13.332031 21.332031 L 13.332031 17.332031 L 1.332031 17.332031 L 1.332031 14.667969 Z M 3.277344 20 L 6.109375 20 C 8.027344 24.726562 13.027344 27.433594 18.035156 26.460938 C 23.042969 25.484375 26.660156 21.101562 26.667969 16 C 26.667969 10.890625 23.050781 6.5 18.039062 5.523438 C 13.023438 4.546875 8.023438 7.265625 6.109375 12 L 3.277344 12 C 4.976562 6.589844 10.03125 2.667969 16 2.667969 C 23.363281 2.667969 29.332031 8.636719 29.332031 16 C 29.332031 23.363281 23.363281 29.332031 16 29.332031 C 10.03125 29.332031 4.976562 25.410156 3.277344 20 Z M 3.277344 20 "/>
</g>
</svg>
