<?xml version="1.0" encoding="UTF-8"?>
<svg xmlns="http://www.w3.org/2000/svg" xmlns:xlink="http://www.w3.org/1999/xlink" width="32" height="32" viewBox="0 0 32 32" version="1.1">
<g id="surface1">
<path style=" stroke:none;fill-rule:nonzero;fill:rgb(0%,0%,0%);fill-opacity:1;" d="M 18.667969 24 L 18.667969 26.667969 L 21.332031 28 L 21.332031 29.332031 L 10.667969 29.332031 L 10.660156 28.003906 L 13.332031 26.667969 L 13.332031 24 L 3.988281 24 C 3.636719 23.996094 3.296875 23.855469 3.050781 23.601562 C 2.800781 23.351562 2.664062 23.011719 2.667969 22.65625 L 2.667969 5.34375 C 2.667969 4.601562 3.273438 4 3.988281 4 L 28.011719 4 C 28.742188 4 29.332031 4.597656 29.332031 5.34375 L 29.332031 22.65625 C 29.332031 23.398438 28.726562 24 28.011719 24 Z M 5.332031 18.667969 L 5.332031 21.332031 L 26.667969 21.332031 L 26.667969 18.667969 Z M 5.332031 18.667969 "/>
</g>
</svg>
