<?xml version="1.0" encoding="UTF-8"?>
<svg xmlns="http://www.w3.org/2000/svg" xmlns:xlink="http://www.w3.org/1999/xlink" width="32" height="32" viewBox="0 0 32 32" version="1.1">
<g id="surface1">
<path style=" stroke:none;fill-rule:nonzero;fill:rgb(0%,0%,0%);fill-opacity:1;" d="M 29.332031 17.789062 C 26.425781 16.757812 23.1875 17.492188 21.003906 19.671875 C 18.824219 21.851562 18.089844 25.09375 19.121094 28 L 4 28 C 3.261719 28 2.667969 27.402344 2.667969 26.667969 L 2.667969 5.332031 C 2.667969 4.597656 3.261719 4 4 4 L 28 4 C 28.738281 4 29.332031 4.597656 29.332031 5.332031 Z M 16.078125 15.578125 L 7.53125 8.316406 L 5.804688 10.347656 L 16.097656 19.089844 L 26.207031 10.34375 L 24.460938 8.324219 L 16.082031 15.578125 Z M 28 24 L 32 24 L 32 26.667969 L 28 26.667969 L 28 30.667969 L 25.332031 30.667969 L 25.332031 26.667969 L 21.332031 26.667969 L 21.332031 24 L 25.332031 24 L 25.332031 20 L 28 20 Z M 28 24 "/>
</g>
</svg>
