<?xml version="1.0" encoding="UTF-8"?>
<svg xmlns="http://www.w3.org/2000/svg" xmlns:xlink="http://www.w3.org/1999/xlink" width="32" height="32" viewBox="0 0 32 32" version="1.1">
<g id="surface1">
<path style=" stroke:none;fill-rule:evenodd;fill:rgb(0%,0%,0%);fill-opacity:1;" d="M 4 4 C 1.785156 4 0 5.785156 0 8 L 0 24 C 0 26.214844 1.785156 28 4 28 L 28 28 C 30.214844 28 32 26.214844 32 24 L 32 8 C 32 5.785156 30.214844 4 28 4 Z M 27.960938 6.496094 C 28.539062 6.484375 29.078125 6.804688 29.335938 7.324219 C 29.515625 7.679688 29.546875 8.09375 29.421875 8.472656 C 29.300781 8.851562 29.027344 9.164062 28.671875 9.34375 L 16.003906 15.679688 L 3.335938 9.34375 C 2.976562 9.167969 2.703125 8.855469 2.574219 8.476562 C 2.449219 8.097656 2.476562 7.683594 2.65625 7.324219 C 3.03125 6.589844 3.925781 6.292969 4.664062 6.660156 L 16.003906 12.328125 L 27.328125 6.660156 C 27.523438 6.558594 27.742188 6.503906 27.960938 6.496094 Z M 27.960938 6.496094 "/>
</g>
</svg>
