<?xml version="1.0" encoding="UTF-8"?>
<svg xmlns="http://www.w3.org/2000/svg" xmlns:xlink="http://www.w3.org/1999/xlink" width="32" height="32" viewBox="0 0 32 32" version="1.1">
<g id="surface1">
<path style=" stroke:none;fill-rule:nonzero;fill:rgb(0%,0%,0%);fill-opacity:1;" d="M 2.992188 9.136719 L 15.320312 1.746094 C 15.742188 1.492188 16.269531 1.492188 16.691406 1.746094 L 29.007812 9.140625 C 29.210938 9.261719 29.332031 9.476562 29.332031 9.710938 L 29.332031 26.667969 C 29.332031 27.402344 28.738281 28 28 28 L 4 28 C 3.261719 28 2.667969 27.402344 2.667969 26.667969 L 2.667969 9.710938 C 2.667969 9.476562 2.789062 9.257812 2.992188 9.136719 Z M 5.332031 10.84375 L 5.332031 25.332031 L 26.667969 25.332031 L 26.667969 10.84375 L 16.003906 4.441406 Z M 16.078125 18.265625 L 23.140625 12.3125 L 24.859375 14.351562 L 16.097656 21.734375 L 7.152344 14.363281 L 8.847656 12.304688 Z M 16.078125 18.265625 "/>
</g>
</svg>
