<?xml version="1.0" encoding="UTF-8"?>
<svg xmlns="http://www.w3.org/2000/svg" xmlns:xlink="http://www.w3.org/1999/xlink" width="32" height="32" viewBox="0 0 32 32" version="1.1">
<g id="surface1">
<path style=" stroke:none;fill-rule:nonzero;fill:rgb(0%,0%,0%);fill-opacity:1;" d="M 20.355469 15.40625 L 26.207031 10.339844 L 24.460938 8.324219 L 16.082031 15.578125 L 7.53125 8.316406 L 5.804688 10.347656 L 16.074219 19.070312 C 15.152344 20.546875 14.664062 22.257812 14.667969 24 C 14.667969 25.433594 14.988281 26.785156 15.566406 28 L 4 28 C 3.261719 28 2.667969 27.402344 2.667969 26.667969 L 2.667969 5.332031 C 2.667969 4.597656 3.261719 4 4 4 L 28 4 C 28.738281 4 29.332031 4.597656 29.332031 5.332031 L 29.332031 16.339844 C 27.769531 15.246094 25.90625 14.664062 24 14.667969 C 22.707031 14.667969 21.476562 14.929688 20.355469 15.40625 Z M 22.273438 27.609375 C 23.804688 28.34375 25.628906 28.03125 26.828125 26.832031 C 28.027344 25.632812 28.339844 23.804688 27.609375 22.277344 L 22.277344 27.609375 Z M 20.390625 25.722656 L 25.722656 20.390625 C 24.195312 19.660156 22.367188 19.972656 21.167969 21.171875 C 19.96875 22.371094 19.65625 24.195312 20.390625 25.726562 Z M 24 30.667969 C 20.316406 30.667969 17.332031 27.683594 17.332031 24 C 17.332031 20.316406 20.316406 17.332031 24 17.332031 C 27.683594 17.332031 30.667969 20.316406 30.667969 24 C 30.667969 27.683594 27.683594 30.667969 24 30.667969 Z M 24 30.667969 "/>
</g>
</svg>
