<?xml version="1.0" encoding="UTF-8"?>
<svg xmlns="http://www.w3.org/2000/svg" xmlns:xlink="http://www.w3.org/1999/xlink" width="32" height="32" viewBox="0 0 32 32" version="1.1">
<g id="surface1">
<path style=" stroke:none;fill-rule:nonzero;fill:rgb(0%,0%,0%);fill-opacity:1;" d="M 29.332031 17.070312 C 26.199219 15.257812 22.234375 15.78125 19.671875 18.339844 C 17.113281 20.902344 16.589844 24.863281 18.402344 28 L 4 28 C 3.261719 28 2.667969 27.402344 2.667969 26.667969 L 2.667969 5.332031 C 2.667969 4.597656 3.261719 4 4 4 L 28 4 C 28.738281 4 29.332031 4.597656 29.332031 5.332031 Z M 16.078125 15.578125 L 7.53125 8.316406 L 5.804688 10.347656 L 16.097656 19.089844 L 26.207031 10.34375 L 24.460938 8.324219 L 16.082031 15.578125 Z M 26.667969 24 L 30.667969 24 L 25.332031 29.332031 L 20 24 L 24 24 L 24 18.667969 L 26.667969 18.667969 Z M 26.667969 24 "/>
</g>
</svg>
