<?xml version="1.0" encoding="UTF-8"?>
<svg xmlns="http://www.w3.org/2000/svg" xmlns:xlink="http://www.w3.org/1999/xlink" width="32" height="32" viewBox="0 0 32 32" version="1.1">
<g id="surface1">
<path style=" stroke:none;fill-rule:nonzero;fill:rgb(0%,0%,0%);fill-opacity:1;" d="M 16 24.390625 C 11.910156 26.792969 6.6875 25.898438 3.628906 22.273438 C 0.570312 18.652344 0.570312 13.347656 3.628906 9.726562 C 6.6875 6.101562 11.910156 5.207031 16 7.609375 C 20.089844 5.207031 25.3125 6.101562 28.371094 9.726562 C 31.429688 13.347656 31.429688 18.652344 28.371094 22.273438 C 25.3125 25.898438 20.089844 26.792969 16 24.390625 Z M 18.269531 22.546875 C 21.222656 23.746094 24.613281 22.820312 26.546875 20.289062 C 28.480469 17.757812 28.480469 14.242188 26.546875 11.710938 C 24.613281 9.179688 21.222656 8.253906 18.269531 9.453125 C 19.902344 11.242188 20.804688 13.578125 20.800781 16 C 20.800781 18.519531 19.839844 20.820312 18.269531 22.546875 Z M 13.730469 9.453125 C 10.777344 8.253906 7.386719 9.179688 5.453125 11.710938 C 3.519531 14.242188 3.519531 17.757812 5.453125 20.289062 C 7.386719 22.820312 10.777344 23.746094 13.730469 22.546875 C 12.097656 20.757812 11.195312 18.421875 11.199219 16 C 11.199219 13.480469 12.160156 11.179688 13.730469 9.453125 Z M 16 10.941406 C 14.632812 12.269531 13.863281 14.09375 13.867188 16 C 13.867188 17.984375 14.683594 19.777344 16 21.058594 C 17.367188 19.730469 18.136719 17.90625 18.132812 16 C 18.136719 14.09375 17.367188 12.269531 16 10.941406 Z M 16 10.941406 "/>
</g>
</svg>
