<?xml version="1.0" encoding="UTF-8"?>
<svg xmlns="http://www.w3.org/2000/svg" xmlns:xlink="http://www.w3.org/1999/xlink" width="32" height="32" viewBox="0 0 32 32" version="1.1">
<g id="surface1">
<path style=" stroke:none;fill-rule:nonzero;fill:rgb(0%,0%,0%);fill-opacity:1;" d="M 4.175781 4.855469 C 4.398438 5.1875 4.726562 5.429688 5.105469 5.546875 C 15.988281 8.8125 23.4375 18.820312 23.4375 30.183594 C 23.4375 30.640625 23.617188 31.078125 23.941406 31.398438 C 24.265625 31.722656 24.703125 31.902344 25.160156 31.898438 C 26.105469 31.890625 26.863281 31.125 26.863281 30.183594 C 26.863281 17.320312 18.414062 5.964844 6.09375 2.265625 C 5.1875 1.996094 4.230469 2.507812 3.957031 3.414062 C 3.8125 3.902344 3.894531 4.429688 4.175781 4.855469 Z M 4.175781 4.855469 "/>
<path style=" stroke:none;fill-rule:nonzero;fill:rgb(0%,0%,0%);fill-opacity:1;" d="M 28.949219 0.105469 C 28.898438 0.105469 28.847656 0.113281 28.800781 0.117188 C 28.714844 0.128906 28.632812 0.140625 28.550781 0.164062 C 28.523438 0.171875 28.5 0.183594 28.476562 0.191406 C 28.433594 0.207031 28.394531 0.222656 28.355469 0.238281 L 20.945312 2.804688 C 20.371094 3.003906 19.945312 3.488281 19.824219 4.082031 C 19.703125 4.679688 19.90625 5.292969 20.355469 5.699219 L 21.757812 6.96875 L 1.722656 28.007812 C 1.070312 28.691406 1.097656 29.777344 1.78125 30.429688 C 2.113281 30.746094 2.554688 30.917969 3.011719 30.90625 C 3.46875 30.894531 3.902344 30.703125 4.21875 30.371094 L 24.296875 9.273438 L 25.609375 10.453125 C 26.046875 10.847656 26.652344 10.992188 27.214844 10.835938 C 27.78125 10.679688 28.230469 10.246094 28.402344 9.683594 L 30.617188 2.496094 C 30.636719 2.4375 30.65625 2.378906 30.675781 2.316406 C 30.6875 2.277344 30.695312 2.238281 30.703125 2.199219 C 30.71875 2.140625 30.726562 2.082031 30.734375 2.023438 C 30.734375 2.011719 30.734375 2.003906 30.734375 1.992188 C 30.742188 1.929688 30.746094 1.867188 30.75 1.800781 C 30.746094 1.742188 30.742188 1.683594 30.734375 1.625 C 30.734375 1.613281 30.734375 1.605469 30.734375 1.59375 C 30.726562 1.535156 30.71875 1.476562 30.703125 1.417969 C 30.695312 1.378906 30.6875 1.339844 30.675781 1.300781 C 30.65625 1.246094 30.636719 1.191406 30.617188 1.136719 C 30.597656 1.097656 30.578125 1.058594 30.558594 1.019531 C 30.53125 0.96875 30.5 0.917969 30.46875 0.871094 C 30.445312 0.835938 30.421875 0.800781 30.394531 0.769531 C 30.355469 0.722656 30.316406 0.675781 30.277344 0.636719 C 30.226562 0.582031 30.171875 0.535156 30.113281 0.488281 C 30.0625 0.445312 30.007812 0.40625 29.949219 0.371094 C 29.875 0.320312 29.796875 0.273438 29.714844 0.238281 C 29.707031 0.230469 29.695312 0.226562 29.683594 0.222656 C 29.636719 0.203125 29.585938 0.1875 29.539062 0.175781 C 29.46875 0.15625 29.402344 0.144531 29.332031 0.132812 C 29.253906 0.117188 29.175781 0.105469 29.09375 0.101562 C 29.046875 0.101562 28.996094 0.101562 28.945312 0.101562 Z M 28.949219 0.105469 "/>
</g>
</svg>
