<?xml version="1.0" encoding="UTF-8"?>
<svg xmlns="http://www.w3.org/2000/svg" xmlns:xlink="http://www.w3.org/1999/xlink" width="32" height="32" viewBox="0 0 32 32" version="1.1">
<g id="surface1">
<path style=" stroke:none;fill-rule:nonzero;fill:rgb(0%,0%,0%);fill-opacity:1;" d="M 20.066406 11.382812 L 24.78125 6.667969 L 18.667969 6.667969 L 18.667969 4 L 29.332031 4 L 29.332031 14.667969 L 26.667969 14.667969 L 26.667969 8.550781 L 21.949219 13.269531 C 25.144531 17.453125 24.546875 23.394531 20.582031 26.859375 C 16.621094 30.324219 10.652344 30.125 6.929688 26.40625 C 3.207031 22.683594 3.007812 16.710938 6.472656 12.75 C 9.9375 8.789062 15.878906 8.191406 20.066406 11.382812 Z M 14 26.667969 C 18.050781 26.667969 21.332031 23.382812 21.332031 19.332031 C 21.332031 15.285156 18.050781 12 14 12 C 9.949219 12 6.667969 15.285156 6.667969 19.332031 C 6.667969 23.382812 9.949219 26.667969 14 26.667969 Z M 14 26.667969 "/>
</g>
</svg>
