<?xml version="1.0" encoding="UTF-8"?>
<svg xmlns="http://www.w3.org/2000/svg" xmlns:xlink="http://www.w3.org/1999/xlink" width="32" height="32" viewBox="0 0 32 32" version="1.1">
<g id="surface1">
<path style=" stroke:none;fill-rule:nonzero;fill:rgb(0%,0%,0%);fill-opacity:1;" d="M 21.898438 23.785156 C 20.492188 24.582031 18.941406 25.082031 17.332031 25.261719 L 17.332031 30.667969 L 14.667969 30.667969 L 14.667969 25.261719 C 9.09375 24.636719 4.699219 20.238281 4.074219 14.667969 L 6.761719 14.667969 C 7.179688 17.585938 8.957031 20.132812 11.546875 21.539062 C 14.140625 22.945312 17.242188 23.042969 19.921875 21.804688 L 17.851562 19.738281 C 15.839844 20.320312 13.667969 19.921875 11.992188 18.664062 C 10.316406 17.402344 9.332031 15.429688 9.332031 13.332031 L 9.332031 11.21875 L 1.855469 3.742188 L 3.742188 1.855469 L 30.144531 28.257812 L 28.257812 30.144531 Z M 12.042969 13.929688 L 15.402344 17.289062 C 13.667969 17.027344 12.304688 15.664062 12.042969 13.929688 Z M 25.832031 20.214844 L 23.910156 18.289062 C 24.589844 17.210938 25.050781 15.984375 25.238281 14.667969 L 27.925781 14.667969 C 27.707031 16.664062 26.988281 18.570312 25.832031 20.214844 Z M 21.953125 16.335938 L 19.890625 14.269531 C 19.960938 13.96875 20 13.65625 20 13.332031 L 20 8 C 20 6.058594 18.609375 4.398438 16.699219 4.058594 C 14.789062 3.71875 12.910156 4.800781 12.242188 6.625 L 10.246094 4.628906 C 11.769531 2.03125 14.84375 0.777344 17.746094 1.566406 C 20.652344 2.351562 22.667969 4.992188 22.667969 8 L 22.667969 13.332031 C 22.667969 14.375 22.425781 15.402344 21.953125 16.335938 Z M 21.953125 16.335938 "/>
</g>
</svg>
