<?xml version="1.0" encoding="UTF-8"?>
<svg xmlns="http://www.w3.org/2000/svg" xmlns:xlink="http://www.w3.org/1999/xlink" width="32" height="32" viewBox="0 0 32 32" version="1.1">
<g id="surface1">
<path style=" stroke:none;fill-rule:nonzero;fill:rgb(0%,0%,0%);fill-opacity:1;" d="M 16 1.332031 C 19.683594 1.332031 22.667969 4.316406 22.667969 8 L 22.667969 13.332031 C 22.667969 17.015625 19.683594 20 16 20 C 12.316406 20 9.332031 17.015625 9.332031 13.332031 L 9.332031 8 C 9.332031 4.316406 12.316406 1.332031 16 1.332031 Z M 4.074219 14.667969 L 6.761719 14.667969 C 7.429688 19.253906 11.363281 22.65625 16 22.65625 C 20.636719 22.65625 24.570312 19.253906 25.238281 14.667969 L 27.925781 14.667969 C 27.300781 20.238281 22.902344 24.636719 17.332031 25.261719 L 17.332031 30.667969 L 14.667969 30.667969 L 14.667969 25.261719 C 9.09375 24.636719 4.699219 20.238281 4.074219 14.667969 Z M 4.074219 14.667969 "/>
</g>
</svg>
