<?xml version="1.0" encoding="UTF-8"?>
<svg xmlns="http://www.w3.org/2000/svg" xmlns:xlink="http://www.w3.org/1999/xlink" width="32" height="32" viewBox="0 0 32 32" version="1.1">
<g id="surface1">
<path style=" stroke:none;fill-rule:nonzero;fill:rgb(0%,0%,0%);fill-opacity:1;" d="M 17.59375 3.023438 L 21.929688 10.53125 C 22.296875 11.167969 22.078125 11.984375 21.441406 12.351562 L 19.707031 13.351562 L 21.042969 15.660156 L 18.730469 16.992188 L 17.398438 14.683594 L 15.667969 15.683594 C 15.03125 16.050781 14.214844 15.832031 13.84375 15.195312 L 11.394531 10.953125 C 8.660156 11.78125 6.667969 14.328125 6.667969 17.332031 C 6.667969 18.167969 6.820312 18.964844 7.097656 19.703125 C 8.132812 19.046875 9.355469 18.667969 10.667969 18.667969 C 12.910156 18.667969 14.898438 19.777344 16.105469 21.480469 L 26.355469 15.558594 L 27.691406 17.871094 L 17.1875 23.933594 C 17.28125 24.386719 17.332031 24.855469 17.332031 25.332031 C 17.332031 25.789062 17.289062 26.234375 17.199219 26.667969 L 28 26.667969 L 28 29.332031 L 5.332031 29.335938 C 4.496094 28.21875 4 26.835938 4 25.332031 C 4 23.992188 4.398438 22.738281 5.078125 21.691406 C 4.390625 20.394531 4 18.910156 4 17.332031 C 4 13.339844 6.507812 9.933594 10.035156 8.601562 L 9.511719 7.691406 C 8.777344 6.414062 9.210938 4.785156 10.488281 4.046875 L 13.953125 2.046875 C 15.226562 1.3125 16.859375 1.746094 17.59375 3.023438 Z M 10.667969 21.332031 C 8.457031 21.332031 6.667969 23.125 6.667969 25.332031 C 6.667969 25.800781 6.746094 26.25 6.894531 26.667969 L 14.441406 26.667969 C 14.585938 26.25 14.667969 25.800781 14.667969 25.332031 C 14.667969 23.125 12.875 21.332031 10.667969 21.332031 Z M 15.285156 4.355469 L 11.820312 6.355469 L 15.488281 12.707031 L 18.953125 10.707031 Z M 15.285156 4.355469 "/>
</g>
</svg>
