<?xml version="1.0" encoding="UTF-8"?>
<svg xmlns="http://www.w3.org/2000/svg" xmlns:xlink="http://www.w3.org/1999/xlink" width="32" height="32" viewBox="0 0 32 32" version="1.1">
<g id="surface1">
<path style=" stroke:none;fill-rule:evenodd;fill:rgb(0%,0%,0%);fill-opacity:1;" d="M 16 0 C 14.101562 0 12.433594 0.890625 11.335938 2.261719 L 21.957031 16.433594 C 21.96875 16.289062 22 16.148438 22 16 L 22 6 C 22 2.675781 19.324219 0 16 0 Z M 10.046875 5.539062 C 10.035156 5.695312 10 5.84375 10 6 L 10 10.511719 L 18.277344 21.550781 C 19.234375 21.160156 20.046875 20.519531 20.679688 19.722656 Z M 10 15.507812 L 10 16 C 10 18.902344 12.042969 21.3125 14.773438 21.875 Z M 4 16 L 4 20 C 4 24.417969 7.582031 28 12 28 L 12 32 L 20 32 L 20 28.839844 L 16.371094 24 L 14 24 C 10.6875 24 8 21.3125 8 18 L 8 16 Z M 24 16 L 24 18 C 24 18.347656 23.96875 18.695312 23.90625 19.039062 L 27.214844 23.453125 C 27.730469 22.375 28 21.195312 28 20 L 28 16 Z M 22.421875 22.050781 C 21.730469 22.804688 20.855469 23.371094 19.882812 23.691406 L 22.746094 27.511719 C 23.703125 27.160156 24.589844 26.632812 25.347656 25.949219 Z M 22.421875 22.050781 "/>
<path style=" stroke:none;fill-rule:nonzero;fill:rgb(0%,0%,0%);fill-opacity:1;" d="M 2.503906 0 C 2.503906 0.324219 2.609375 0.640625 2.804688 0.902344 L 26.121094 32 L 29.5 32 C 29.5 31.675781 29.394531 31.363281 29.199219 31.105469 L 5.871094 0 Z M 2.503906 0 "/>
</g>
</svg>
