<?xml version="1.0" encoding="UTF-8"?>
<svg xmlns="http://www.w3.org/2000/svg" xmlns:xlink="http://www.w3.org/1999/xlink" width="32" height="32" viewBox="0 0 32 32" version="1.1">
<g id="surface1">
<path style=" stroke:none;fill-rule:nonzero;fill:rgb(0%,0%,0%);fill-opacity:1;" d="M 4 4 L 28 4 C 28.738281 4 29.332031 4.597656 29.332031 5.332031 L 29.332031 26.667969 C 29.332031 27.402344 28.738281 28 28 28 L 4 28 C 3.261719 28 2.667969 27.402344 2.667969 26.667969 L 2.667969 5.332031 C 2.667969 4.597656 3.261719 4 4 4 Z M 5.332031 6.667969 L 5.332031 25.332031 L 26.667969 25.332031 L 26.667969 6.667969 Z M 12 17.332031 L 10.667969 17.332031 L 10.667969 14.667969 L 12 14.667969 L 12 13.332031 C 12 11.097656 13.582031 9.175781 15.777344 8.75 C 17.96875 8.324219 20.160156 9.511719 20.996094 11.585938 L 18.347656 12.246094 C 17.867188 11.5 16.949219 11.160156 16.097656 11.410156 C 15.246094 11.660156 14.664062 12.445312 14.667969 13.332031 L 14.667969 14.667969 L 18.667969 14.667969 L 18.667969 17.332031 L 14.667969 17.332031 L 14.667969 20 L 21.332031 20 L 21.332031 22.667969 L 10.667969 22.667969 L 10.667969 20 L 12 20 Z M 12 17.332031 "/>
</g>
</svg>
