<?xml version="1.0" encoding="UTF-8"?>
<svg xmlns="http://www.w3.org/2000/svg" xmlns:xlink="http://www.w3.org/1999/xlink" width="32" height="32" viewBox="0 0 32 32" version="1.1">
<g id="surface1">
<path style=" stroke:none;fill-rule:nonzero;fill:rgb(0%,0%,0%);fill-opacity:1;" d="M 16 29.332031 C 8.636719 29.332031 2.667969 23.363281 2.667969 16 C 2.667969 8.636719 8.636719 2.667969 16 2.667969 C 23.363281 2.667969 29.332031 8.636719 29.332031 16 C 29.332031 23.363281 23.363281 29.332031 16 29.332031 Z M 16 26.667969 C 21.890625 26.667969 26.667969 21.890625 26.667969 16 C 26.667969 10.109375 21.890625 5.332031 16 5.332031 C 10.109375 5.332031 5.332031 10.109375 5.332031 16 C 5.332031 21.890625 10.109375 26.667969 16 26.667969 Z M 13.398438 14.667969 L 20 14.667969 L 20 17.332031 L 13.398438 17.332031 C 13.636719 18.488281 14.460938 19.429688 15.574219 19.816406 C 16.6875 20.203125 17.917969 19.972656 18.820312 19.214844 L 21.085938 20.722656 C 19.496094 22.457031 17.039062 23.097656 14.804688 22.367188 C 12.570312 21.636719 10.964844 19.671875 10.703125 17.332031 L 9.332031 17.332031 L 9.332031 14.667969 L 10.703125 14.667969 C 10.964844 12.328125 12.566406 10.359375 14.804688 9.628906 C 17.039062 8.898438 19.496094 9.542969 21.085938 11.277344 L 18.820312 12.785156 C 17.917969 12.027344 16.6875 11.796875 15.574219 12.183594 C 14.460938 12.570312 13.636719 13.511719 13.398438 14.667969 Z M 13.398438 14.667969 "/>
</g>
</svg>
