<?xml version="1.0" encoding="UTF-8"?>
<svg xmlns="http://www.w3.org/2000/svg" xmlns:xlink="http://www.w3.org/1999/xlink" width="32" height="32" viewBox="0 0 32 32" version="1.1">
<defs>
<filter id="alpha" filterUnits="objectBoundingBox" x="0%" y="0%" width="100%" height="100%">
  <feColorMatrix type="matrix" in="SourceGraphic" values="0 0 0 0 1 0 0 0 0 1 0 0 0 0 1 0 0 0 1 0"/>
</filter>
<mask id="mask0">
  <g filter="url(#alpha)">
<rect x="0" y="0" width="32" height="32" style="fill:rgb(0%,0%,0%);fill-opacity:0.996078;stroke:none;"/>
  </g>
</mask>
<clipPath id="clip1">
  <rect x="0" y="0" width="32" height="32"/>
</clipPath>
<g id="surface5" clip-path="url(#clip1)">
<path style=" stroke:none;fill-rule:evenodd;fill:rgb(0%,0%,0%);fill-opacity:1;" d="M 0.914062 2 C 0.40625 2 0 2.40625 0 2.914062 L 0 29.085938 C 0 29.59375 0.40625 30 0.914062 30 L 31.085938 30 C 31.59375 30 32 29.59375 32 29.085938 L 32 2.914062 C 32 2.40625 31.59375 2 31.085938 2 Z M 6.457031 10.03125 L 13.480469 15.9375 L 6.457031 21.855469 L 4.84375 20.207031 L 10 15.957031 L 4.84375 11.675781 Z M 14.84375 19.949219 L 24.84375 19.957031 L 24.84375 21.96875 L 14.84375 21.957031 Z M 14.84375 19.949219 "/>
</g>
</defs>
<g id="surface1">
<use xlink:href="#surface5" mask="url(#mask0)"/>
</g>
</svg>
