<?xml version="1.0" encoding="UTF-8"?>
<svg xmlns="http://www.w3.org/2000/svg" xmlns:xlink="http://www.w3.org/1999/xlink" width="32" height="32" viewBox="0 0 32 32" version="1.1">
<g id="surface1">
<path style=" stroke:none;fill-rule:nonzero;fill:rgb(0%,0%,0%);fill-opacity:1;" d="M 1 2.003906 C 0.445312 2 -0.0078125 2.453125 -0.00390625 3.007812 L -0.00390625 28.992188 C -0.0078125 29.546875 0.445312 30 1 29.996094 L 31 29.996094 C 31.554688 30 32.007812 29.546875 32.003906 28.992188 L 32.003906 3.007812 C 32.007812 2.453125 31.554688 2 31 2.003906 Z M 1.988281 4.011719 L 29.996094 4.011719 L 29.996094 28.003906 L 1.988281 28.003906 Z M 1.988281 4.011719 "/>
<path style=" stroke:none;fill-rule:nonzero;fill:rgb(0%,0%,0%);fill-opacity:1;" d="M 16 14 L 18 14 L 18 24 L 16 24 Z M 16 14 "/>
<path style=" stroke:none;fill-rule:nonzero;fill:rgb(0%,0%,0%);fill-opacity:1;" d="M 20 8 L 22 8 L 22 24 L 20 24 Z M 20 8 "/>
<path style=" stroke:none;fill-rule:nonzero;fill:rgb(0%,0%,0%);fill-opacity:1;" d="M 24 12 L 26 12 L 26 24 L 24 24 Z M 24 12 "/>
<path style=" stroke:none;fill-rule:nonzero;fill:rgb(0%,0%,0%);fill-opacity:1;" d="M 12.988281 6 C 12.441406 6.007812 11.996094 6.453125 12 7.003906 L 12 24.996094 C 11.996094 25.546875 12.441406 25.992188 12.988281 26 L 26.996094 26 C 27.550781 26.003906 28.003906 25.550781 28 24.996094 C 28.003906 24.441406 27.550781 23.988281 26.996094 23.992188 L 13.992188 23.992188 L 13.992188 7.003906 C 13.996094 6.449219 13.542969 5.996094 12.988281 6 Z M 12.988281 6 "/>
<path style=" stroke:none;fill-rule:evenodd;fill:rgb(0%,0%,0%);fill-opacity:1;" d="M 10 21 C 10 22.65625 8.65625 24 7 24 C 5.34375 24 4 22.65625 4 21 C 4 19.34375 5.34375 18 7 18 C 8.65625 18 10 19.34375 10 21 Z M 10 21 "/>
<path style=" stroke:none;fill-rule:nonzero;fill:rgb(0%,0%,0%);fill-opacity:1;" d="M 4 8 L 4 10 L 10 10 L 10 8 Z M 4 8 "/>
<path style=" stroke:none;fill-rule:nonzero;fill:rgb(0%,0%,0%);fill-opacity:1;" d="M 4 13 L 4 15 L 10 15 L 10 13 Z M 4 13 "/>
</g>
</svg>
