<?xml version="1.0" encoding="UTF-8"?>
<svg xmlns="http://www.w3.org/2000/svg" xmlns:xlink="http://www.w3.org/1999/xlink" width="32" height="32" viewBox="0 0 32 32" version="1.1">
<g id="surface1">
<path style=" stroke:none;fill-rule:nonzero;fill:rgb(0%,0%,0%);fill-opacity:1;" d="M 21.332031 27.113281 L 21.332031 24.179688 C 23.621094 22.972656 25.351562 20.925781 26.164062 18.472656 C 22.628906 19.121094 18.992188 18.148438 16.246094 15.828125 C 13.503906 13.507812 11.945312 10.078125 12 6.484375 C 9.351562 7.886719 7.46875 10.398438 6.867188 13.332031 L 4.15625 13.332031 C 5.074219 7.605469 9.761719 3.234375 15.539062 2.714844 C 13.753906 6.535156 14.746094 11.074219 17.964844 13.796875 C 21.183594 16.519531 25.824219 16.746094 29.292969 14.351562 C 29.726562 19.890625 26.496094 25.066406 21.332031 27.113281 Z M 9.332031 26.667969 L 18.667969 26.667969 L 18.667969 29.332031 L 9.332031 29.332031 Z M 5.332031 16 L 13.332031 16 L 13.332031 18.667969 L 5.332031 18.667969 Z M 2.667969 21.332031 L 16 21.332031 L 16 24 L 2.667969 24 Z M 2.667969 21.332031 "/>
</g>
</svg>
