<?xml version="1.0" encoding="UTF-8"?>
<svg xmlns="http://www.w3.org/2000/svg" xmlns:xlink="http://www.w3.org/1999/xlink" width="32" height="32" viewBox="0 0 32 32" version="1.1">
<g id="surface1">
<path style=" stroke:none;fill-rule:nonzero;fill:rgb(0%,0%,0%);fill-opacity:1;" d="M 16 4 C 14.535156 4 13.332031 5.199219 13.332031 6.667969 C 13.332031 8.132812 14.535156 9.332031 16 9.332031 C 17.464844 9.332031 18.667969 8.132812 18.667969 6.667969 C 18.667969 5.199219 17.464844 4 16 4 Z M 16 22.667969 C 14.535156 22.667969 13.332031 23.867188 13.332031 25.332031 C 13.332031 26.800781 14.535156 28 16 28 C 17.464844 28 18.667969 26.800781 18.667969 25.332031 C 18.667969 23.867188 17.464844 22.667969 16 22.667969 Z M 16 13.332031 C 14.535156 13.332031 13.332031 14.535156 13.332031 16 C 13.332031 17.464844 14.535156 18.667969 16 18.667969 C 17.464844 18.667969 18.667969 17.464844 18.667969 16 C 18.667969 14.535156 17.464844 13.332031 16 13.332031 Z M 16 13.332031 "/>
</g>
</svg>
