<?xml version="1.0" encoding="UTF-8"?>
<svg xmlns="http://www.w3.org/2000/svg" xmlns:xlink="http://www.w3.org/1999/xlink" width="32" height="32" viewBox="0 0 32 32" version="1.1">
<g id="surface1">
<path style=" stroke:none;fill-rule:nonzero;fill:rgb(0%,0%,0%);fill-opacity:1;" d="M 16 4 C 14.898438 4 14 4.898438 14 6 C 14 7.101562 14.898438 8 16 8 C 17.101562 8 18 7.101562 18 6 C 18 4.898438 17.101562 4 16 4 Z M 16 24 C 14.898438 24 14 24.898438 14 26 C 14 27.101562 14.898438 28 16 28 C 17.101562 28 18 27.101562 18 26 C 18 24.898438 17.101562 24 16 24 Z M 16 14 C 14.898438 14 14 14.898438 14 16 C 14 17.101562 14.898438 18 16 18 C 17.101562 18 18 17.101562 18 16 C 18 14.898438 17.101562 14 16 14 Z M 16 14 "/>
</g>
</svg>
