<?xml version="1.0" encoding="UTF-8"?>
<svg xmlns="http://www.w3.org/2000/svg" xmlns:xlink="http://www.w3.org/1999/xlink" width="32" height="32" viewBox="0 0 32 32" version="1.1">
<g id="surface1">
<path style=" stroke:none;fill-rule:nonzero;fill:rgb(0%,0%,0%);fill-opacity:1;" d="M 11.152344 13.332031 L 14.933594 10.667969 L 22.667969 10.667969 L 22.667969 13.332031 L 15.808594 13.332031 L 12 16 L 2.667969 16 L 2.667969 13.332031 Z M 12.375 20.078125 L 16.273438 18.660156 L 17.1875 21.167969 L 13.285156 22.585938 C 13.667969 25.617188 11.710938 28.449219 8.742188 29.164062 C 5.773438 29.882812 2.738281 28.253906 1.695312 25.382812 C 0.652344 22.511719 1.929688 19.316406 4.664062 17.957031 C 7.398438 16.601562 10.71875 17.511719 12.375 20.078125 Z M 7.332031 26.667969 C 9.175781 26.667969 10.667969 25.175781 10.667969 23.332031 C 10.667969 21.492188 9.175781 20 7.332031 20 C 5.492188 20 4 21.492188 4 23.332031 C 4 25.175781 5.492188 26.667969 7.332031 26.667969 Z M 24.667969 29.332031 C 21.351562 29.332031 18.667969 26.648438 18.667969 23.332031 C 18.667969 20.019531 21.351562 17.332031 24.667969 17.332031 C 27.980469 17.332031 30.667969 20.019531 30.667969 23.332031 C 30.667969 26.648438 27.980469 29.332031 24.667969 29.332031 Z M 24.667969 26.667969 C 26.507812 26.667969 28 25.175781 28 23.332031 C 28 21.492188 26.507812 20 24.667969 20 C 22.824219 20 21.332031 21.492188 21.332031 23.332031 C 21.332031 25.175781 22.824219 26.667969 24.667969 26.667969 Z M 5.332031 14.667969 L 13.332031 14.667969 L 16.800781 12.355469 L 17.171875 10.960938 L 19.75 11.652344 L 17.1875 21.160156 L 14.757812 19.976562 L 14.914062 19.390625 L 12 21.332031 L 10.667969 18.667969 L 5.332031 18.667969 Z M 21.457031 8 L 26.667969 8 L 26.667969 12 L 22.910156 12 L 25.472656 19.035156 L 22.964844 19.945312 L 20.074219 12 L 20 12 L 20 11.796875 L 18.132812 6.667969 L 14.667969 6.667969 L 14.667969 4 L 20 4 Z M 21.457031 8 "/>
</g>
</svg>
