<?xml version="1.0" encoding="UTF-8"?>
<svg xmlns="http://www.w3.org/2000/svg" xmlns:xlink="http://www.w3.org/1999/xlink" width="32" height="32" viewBox="0 0 32 32" version="1.1">
<g id="surface1">
<path style=" stroke:none;fill-rule:nonzero;fill:rgb(0%,0%,0%);fill-opacity:1;" d="M 26.667969 4 L 26.667969 22.667969 C 26.667969 25.082031 25.042969 27.191406 22.710938 27.816406 C 20.382812 28.441406 17.921875 27.421875 16.714844 25.332031 C 15.507812 23.242188 15.855469 20.601562 17.5625 18.894531 C 19.269531 17.1875 21.910156 16.839844 24 18.046875 L 24 8 L 12 8 L 12 22.667969 C 12 25.082031 10.378906 27.191406 8.046875 27.816406 C 5.714844 28.441406 3.253906 27.421875 2.046875 25.332031 C 0.839844 23.242188 1.1875 20.601562 2.894531 18.894531 C 4.601562 17.1875 7.242188 16.839844 9.332031 18.046875 L 9.332031 4 Z M 26.667969 4 "/>
</g>
</svg>
