<?xml version="1.0" encoding="UTF-8"?>
<svg xmlns="http://www.w3.org/2000/svg" xmlns:xlink="http://www.w3.org/1999/xlink" width="32" height="32" viewBox="0 0 32 32" version="1.1">
<g id="surface1">
<path style=" stroke:none;fill-rule:nonzero;fill:rgb(0%,0%,0%);fill-opacity:1;" d="M 13.894531 15.167969 C 13.503906 16.539062 13.910156 17.917969 14.941406 18.703125 C 16.355469 19.785156 18.359375 19.105469 18.773438 17.378906 C 18.878906 16.929688 18.910156 16.414062 18.808594 15.96875 C 18.5 14.632812 18.113281 13.320312 17.753906 11.976562 C 15.980469 12.179688 14.363281 13.539062 13.894531 15.167969 Z M 21.292969 14.785156 C 21.65625 16.132812 21.671875 17.472656 21.121094 18.785156 C 19.617188 22.371094 14.828125 22.96875 12.359375 19.886719 C 10.621094 17.714844 10.652344 14.605469 12.4375 12.238281 C 13.480469 10.863281 14.84375 9.964844 16.503906 9.5 L 17.007812 9.363281 C 16.894531 8.808594 16.757812 8.273438 16.683594 7.730469 C 16.449219 5.976562 17.367188 4.394531 19.007812 3.675781 C 20.644531 2.964844 22.621094 3.390625 23.714844 4.691406 C 24.257812 5.328125 24.242188 6.128906 23.683594 6.644531 C 23.132812 7.144531 22.355469 7.105469 21.769531 6.523438 C 21.441406 6.195312 21.089844 5.9375 20.601562 5.941406 C 19.898438 5.949219 19.285156 6.5 19.339844 7.191406 C 19.390625 7.816406 19.570312 8.429688 19.738281 9.039062 C 19.769531 9.144531 20.027344 9.21875 20.191406 9.242188 C 21.96875 9.503906 23.53125 10.21875 24.820312 11.476562 C 28.230469 14.800781 28.632812 20.183594 25.714844 24.0625 C 23.675781 26.773438 20.902344 28.289062 17.546875 28.609375 C 11.386719 29.195312 5.996094 25.234375 4.613281 19.199219 C 3.351562 13.671875 6.453125 7.773438 11.726562 5.667969 C 12.507812 5.355469 13.25 5.625 13.554688 6.332031 C 13.863281 7.046875 13.53125 7.777344 12.742188 8.128906 C 9.585938 9.542969 7.652344 11.9375 7.121094 15.363281 C 6.410156 19.941406 9.328125 24.398438 13.789062 25.65625 C 17.417969 26.683594 21.332031 25.433594 23.53125 22.550781 C 25.648438 19.777344 25.398438 15.75 22.960938 13.386719 C 22.285156 12.726562 21.449219 12.261719 20.53125 12.035156 C 20.796875 12.988281 21.050781 13.886719 21.292969 14.785156 Z M 21.292969 14.785156 "/>
</g>
</svg>
