<?xml version="1.0" encoding="UTF-8"?>
<svg xmlns="http://www.w3.org/2000/svg" xmlns:xlink="http://www.w3.org/1999/xlink" width="32" height="32" viewBox="0 0 32 32" version="1.1">
<defs>
<filter id="alpha" filterUnits="objectBoundingBox" x="0%" y="0%" width="100%" height="100%">
  <feColorMatrix type="matrix" in="SourceGraphic" values="0 0 0 0 1 0 0 0 0 1 0 0 0 0 1 0 0 0 1 0"/>
</filter>
<mask id="mask0">
  <g filter="url(#alpha)">
<rect x="0" y="0" width="32" height="32" style="fill:rgb(0%,0%,0%);fill-opacity:0.992157;stroke:none;"/>
  </g>
</mask>
<clipPath id="clip1">
  <rect x="0" y="0" width="32" height="32"/>
</clipPath>
<g id="surface5" clip-path="url(#clip1)">
<path style=" stroke:none;fill-rule:evenodd;fill:rgb(0%,0%,0%);fill-opacity:1;" d="M 4 0 C 2.890625 0 2 0.890625 2 2 L 2 8 C 2 9.109375 2.890625 10 4 10 L 6 10 L 6 14 L 0 14 L 0 18 L 14 18 L 14 22 L 12 22 C 10.890625 22 10 22.890625 10 24 L 10 30 C 10 31.109375 10.890625 32 12 32 L 20 32 C 21.109375 32 22 31.109375 22 30 L 22 24 C 22 22.890625 21.109375 22 20 22 L 18 22 L 18 18 L 32 18 L 32 14 L 26 14 L 26 10 L 28 10 C 29.109375 10 30 9.109375 30 8 L 30 2 C 30 0.890625 29.109375 0 28 0 L 20 0 C 18.890625 0 18 0.890625 18 2 L 18 8 C 18 9.109375 18.890625 10 20 10 L 22 10 L 22 14 L 10 14 L 10 10 L 12 10 C 13.109375 10 14 9.109375 14 8 L 14 2 C 14 0.890625 13.109375 0 12 0 Z M 4 0 "/>
</g>
</defs>
<g id="surface1">
<use xlink:href="#surface5" mask="url(#mask0)"/>
</g>
</svg>
