<?xml version="1.0" encoding="UTF-8"?>
<svg xmlns="http://www.w3.org/2000/svg" xmlns:xlink="http://www.w3.org/1999/xlink" width="32" height="32" viewBox="0 0 32 32" version="1.1">
<g id="surface1">
<path style=" stroke:none;fill-rule:nonzero;fill:rgb(0%,0%,0%);fill-opacity:1;" d="M 24.78125 26.667969 L 5.332031 26.667969 C 5.082031 26.667969 4.851562 26.523438 4.738281 26.296875 C 4.625 26.074219 4.648438 25.800781 4.800781 25.601562 L 5.332031 24.890625 L 5.332031 13.332031 C 5.332031 11.558594 5.765625 9.886719 6.53125 8.417969 L 1.855469 3.742188 L 3.742188 1.855469 L 30.144531 28.257812 L 28.257812 30.144531 Z M 8.542969 10.429688 C 8.183594 11.355469 8 12.339844 8 13.332031 L 8 24 L 22.113281 24 Z M 26.667969 21.046875 L 24 18.382812 L 24 13.332031 C 24 10.476562 22.480469 7.839844 20.007812 6.40625 C 17.535156 4.976562 14.488281 4.972656 12.011719 6.394531 L 10.078125 4.460938 C 13.351562 2.277344 17.5625 2.070312 21.03125 3.925781 C 24.5 5.785156 26.667969 9.398438 26.667969 13.332031 Z M 12.667969 28 L 19.332031 28 C 19.332031 29.839844 17.839844 31.332031 16 31.332031 C 14.160156 31.332031 12.667969 29.839844 12.667969 28 Z M 12.667969 28 "/>
</g>
</svg>
