<?xml version="1.0" encoding="UTF-8"?>
<svg xmlns="http://www.w3.org/2000/svg" xmlns:xlink="http://www.w3.org/1999/xlink" width="32" height="32" viewBox="0 0 32 32" version="1.1">
<g id="surface1">
<path style=" stroke:none;fill-rule:nonzero;fill:rgb(0%,0%,0%);fill-opacity:1;" d="M 18.667969 26.667969 L 18.667969 23.789062 C 21.152344 22.203125 23.332031 18.625 23.332031 14.511719 C 23.332031 10.414062 20.667969 6.472656 16 6.472656 C 11.332031 6.472656 8.667969 10.414062 8.667969 14.511719 C 8.667969 18.625 10.847656 22.203125 13.332031 23.789062 L 13.332031 26.667969 L 4 26.667969 L 4 24 L 10.347656 24 C 7.554688 22.007812 5.332031 18.652344 5.332031 14.511719 C 5.332031 8.328125 10 4 16 4 C 22 4 26.667969 8.328125 26.667969 14.511719 C 26.667969 18.652344 24.445312 22.007812 21.652344 24 L 28 24 L 28 26.667969 Z M 18.667969 26.667969 "/>
</g>
</svg>
