<?xml version="1.0" encoding="UTF-8"?>
<svg xmlns="http://www.w3.org/2000/svg" xmlns:xlink="http://www.w3.org/1999/xlink" width="32" height="32" viewBox="0 0 32 32" version="1.1">
<g id="surface1">
<path style=" stroke:none;fill-rule:nonzero;fill:rgb(0%,0%,0%);fill-opacity:1;" d="M 14.011719 20.339844 L 28.328125 6.023438 L 28.328125 19.175781 L 31.660156 19.164062 L 31.660156 0.339844 L 12.835938 0.339844 L 12.835938 3.660156 L 25.976562 3.671875 L 11.660156 17.988281 Z M 14.011719 20.339844 "/>
<path style=" stroke:none;fill-rule:evenodd;fill:rgb(0%,0%,0%);fill-opacity:1;" d="M 8 0.339844 C 3.785156 0.339844 0.34375 3.785156 0.34375 8 L 0.34375 24 C 0.34375 28.214844 3.785156 31.65625 8 31.65625 L 24 31.65625 C 28.214844 31.65625 31.660156 28.214844 31.660156 24 L 28.34375 24 C 28.34375 26.433594 26.433594 28.339844 24 28.339844 L 8 28.339844 C 5.566406 28.339844 3.660156 26.433594 3.660156 24 L 3.660156 8 C 3.660156 5.566406 5.566406 3.65625 8 3.65625 Z M 8 0.339844 "/>
</g>
</svg>
