<?xml version="1.0" encoding="UTF-8"?>
<svg xmlns="http://www.w3.org/2000/svg" xmlns:xlink="http://www.w3.org/1999/xlink" width="32" height="32" viewBox="0 0 32 32" version="1.1">
<g id="surface1">
<path style=" stroke:none;fill-rule:nonzero;fill:rgb(0%,0%,0%);fill-opacity:1;" d="M 11.613281 8.488281 C 10.136719 10.226562 9.183594 12.800781 9.117188 15.6875 L 9.117188 16.3125 C 9.183594 19.199219 10.136719 21.769531 11.613281 23.511719 C 13.523438 25.996094 16.367188 27.570312 19.546875 27.570312 C 21.449219 27.566406 23.304688 27 24.886719 25.9375 C 22.28125 28.277344 18.863281 29.492188 15.367188 29.316406 C 8.257812 28.980469 2.664062 23.117188 2.667969 16 C 2.667969 8.632812 8.636719 2.667969 16 2.667969 L 16.050781 2.667969 C 19.3125 2.675781 22.457031 3.882812 24.886719 6.0625 C 23.304688 5 21.445312 4.433594 19.542969 4.425781 C 16.367188 4.425781 13.523438 6.003906 11.609375 8.488281 Z M 29.332031 16 C 29.339844 19.796875 27.71875 23.414062 24.886719 25.9375 C 21.464844 27.605469 18.28125 26.441406 17.222656 25.710938 C 20.585938 24.972656 23.121094 20.910156 23.121094 16 C 23.121094 11.085938 20.585938 7.027344 17.222656 6.289062 C 18.277344 5.5625 21.464844 4.394531 24.886719 6.0625 C 27.71875 8.585938 29.339844 12.203125 29.332031 16 Z M 29.332031 16 "/>
</g>
</svg>
