<?xml version="1.0" encoding="UTF-8"?>
<svg xmlns="http://www.w3.org/2000/svg" xmlns:xlink="http://www.w3.org/1999/xlink" width="32" height="32" viewBox="0 0 32 32" version="1.1">
<g id="surface1">
<path style=" stroke:none;fill-rule:nonzero;fill:rgb(0%,0%,0%);fill-opacity:1;" d="M 20 4 C 20.734375 4 21.332031 4.597656 21.332031 5.332031 L 21.332031 10.667969 C 21.332031 11.402344 20.734375 12 20 12 L 17.332031 12 L 17.332031 14.667969 L 22.667969 14.667969 C 23.402344 14.667969 24 15.265625 24 16 L 24 20 L 26.667969 20 C 27.402344 20 28 20.597656 28 21.332031 L 28 26.667969 C 28 27.402344 27.402344 28 26.667969 28 L 18.667969 28 C 17.929688 28 17.332031 27.402344 17.332031 26.667969 L 17.332031 21.332031 C 17.332031 20.597656 17.929688 20 18.667969 20 L 21.332031 20 L 21.332031 17.332031 L 10.667969 17.332031 L 10.667969 20 L 13.332031 20 C 14.070312 20 14.667969 20.597656 14.667969 21.332031 L 14.667969 26.667969 C 14.667969 27.402344 14.070312 28 13.332031 28 L 5.332031 28 C 4.597656 28 4 27.402344 4 26.667969 L 4 21.332031 C 4 20.597656 4.597656 20 5.332031 20 L 8 20 L 8 16 C 8 15.265625 8.597656 14.667969 9.332031 14.667969 L 14.667969 14.667969 L 14.667969 12 L 12 12 C 11.265625 12 10.667969 11.402344 10.667969 10.667969 L 10.667969 5.332031 C 10.667969 4.597656 11.265625 4 12 4 Z M 12 22.667969 L 6.667969 22.667969 L 6.667969 25.332031 L 12 25.332031 Z M 25.332031 22.667969 L 20 22.667969 L 20 25.332031 L 25.332031 25.332031 Z M 18.667969 6.667969 L 13.332031 6.667969 L 13.332031 9.332031 L 18.667969 9.332031 Z M 18.667969 6.667969 "/>
</g>
</svg>
