<?xml version="1.0" encoding="UTF-8"?>
<svg xmlns="http://www.w3.org/2000/svg" xmlns:xlink="http://www.w3.org/1999/xlink" width="32" height="32" viewBox="0 0 32 32" version="1.1">
<g id="surface1">
<path style=" stroke:none;fill-rule:evenodd;fill:rgb(0%,0%,0%);fill-opacity:1;" d="M 5.183594 0 C 4.527344 0 3.996094 0.53125 3.996094 1.1875 L 3.996094 6 L 27.996094 6 L 27.996094 1.1875 C 27.996094 0.53125 27.46875 0 26.808594 0 Z M 7.46875 1.5 C 7.480469 1.5 7.488281 1.5 7.5 1.5 C 8.328125 1.5 9 2.171875 9 3 C 9 3.828125 8.328125 4.5 7.5 4.5 C 6.671875 4.5 6 3.828125 6 3 C 6 2.183594 6.65625 1.515625 7.472656 1.5 Z M 12.46875 1.5 C 12.480469 1.5 12.488281 1.5 12.5 1.5 C 13.328125 1.5 14 2.171875 14 3 C 14 3.828125 13.328125 4.5 12.5 4.5 C 11.671875 4.5 11 3.828125 11 3 C 11 2.183594 11.65625 1.515625 12.472656 1.5 Z M 16.46875 1.5 C 16.480469 1.5 16.488281 1.5 16.5 1.5 C 17.328125 1.5 18 2.171875 18 3 C 18 3.828125 17.328125 4.5 16.5 4.5 C 15.671875 4.5 15 3.828125 15 3 C 15 2.183594 15.65625 1.515625 16.472656 1.5 Z M 20.46875 1.5 C 20.480469 1.5 20.488281 1.5 20.5 1.5 C 21.328125 1.5 22 2.171875 22 3 C 22 3.828125 21.328125 4.5 20.5 4.5 C 19.671875 4.5 19 3.828125 19 3 C 19 2.183594 19.65625 1.515625 20.472656 1.5 Z M 24.46875 1.5 C 24.480469 1.5 24.488281 1.5 24.5 1.5 C 25.328125 1.5 26 2.171875 26 3 C 26 3.828125 25.328125 4.5 24.5 4.5 C 23.671875 4.5 23 3.828125 23 3 C 23 2.183594 23.65625 1.515625 24.472656 1.5 Z M 3.996094 8 L 3.996094 30 C 3.996094 30 4.890625 32 5.996094 32 L 25.996094 32 C 27.105469 32 27.996094 31.109375 27.996094 30 C 28.027344 23.863281 27.996094 8 27.996094 8 Z M 7.996094 12 L 23.996094 12 L 23.996094 22 L 7.996094 22 Z M 9.996094 14 L 9.996094 16 L 21.996094 16 L 21.996094 14 Z M 7.996094 24 L 23.996094 24 L 23.996094 28 L 7.996094 28 Z M 7.996094 24 "/>
</g>
</svg>
