<?xml version="1.0" encoding="UTF-8"?>
<svg xmlns="http://www.w3.org/2000/svg" xmlns:xlink="http://www.w3.org/1999/xlink" width="32" height="32" viewBox="0 0 32 32" version="1.1">
<g id="surface1">
<path style=" stroke:none;fill-rule:nonzero;fill:rgb(0%,0%,0%);fill-opacity:1;" d="M 25.636719 24.976562 L 27.996094 22.617188 L 30.351562 24.976562 C 31.652344 26.277344 31.652344 28.386719 30.351562 29.691406 C 29.050781 30.992188 26.9375 30.992188 25.636719 29.691406 C 24.335938 28.386719 24.335938 26.277344 25.636719 24.976562 Z M 11.835938 1.441406 L 26.921875 16.523438 C 27.171875 16.773438 27.3125 17.113281 27.3125 17.46875 C 27.3125 17.820312 27.171875 18.160156 26.921875 18.410156 L 15.609375 29.722656 C 15.089844 30.246094 14.246094 30.246094 13.722656 29.722656 L 2.410156 18.410156 C 2.160156 18.160156 2.019531 17.820312 2.019531 17.46875 C 2.019531 17.113281 2.160156 16.773438 2.410156 16.523438 L 12.78125 6.152344 L 9.953125 3.324219 L 11.839844 1.441406 Z M 14.667969 8.039062 L 5.238281 17.464844 L 14.667969 26.898438 L 24.09375 17.46875 Z M 14.667969 8.039062 "/>
</g>
</svg>
