<?xml version="1.0" encoding="UTF-8"?>
<svg xmlns="http://www.w3.org/2000/svg" xmlns:xlink="http://www.w3.org/1999/xlink" width="32" height="32" viewBox="0 0 32 32" version="1.1">
<g id="surface1">
<path style=" stroke:none;fill-rule:nonzero;fill:rgb(0%,0%,0%);fill-opacity:1;" d="M 9.332031 14.667969 C 6.019531 14.667969 3.332031 11.980469 3.332031 8.667969 C 3.332031 5.351562 6.019531 2.667969 9.332031 2.667969 C 12.648438 2.667969 15.332031 5.351562 15.332031 8.667969 C 15.332031 11.980469 12.648438 14.667969 9.332031 14.667969 Z M 23.332031 20 C 20.386719 20 18 17.613281 18 14.667969 C 18 11.722656 20.386719 9.332031 23.332031 9.332031 C 26.277344 9.332031 28.667969 11.722656 28.667969 14.667969 C 28.667969 17.613281 26.277344 20 23.332031 20 Z M 23.332031 21.332031 C 26.648438 21.332031 29.332031 24.019531 29.332031 27.332031 L 29.332031 28 L 17.332031 28 L 17.332031 27.332031 C 17.332031 24.019531 20.019531 21.332031 23.332031 21.332031 Z M 9.332031 16 C 13.015625 16 16 18.984375 16 22.667969 L 16 28 L 2.667969 28 L 2.667969 22.667969 C 2.667969 18.984375 5.652344 16 9.332031 16 Z M 9.332031 16 "/>
</g>
</svg>
