<?xml version="1.0" encoding="UTF-8"?>
<svg xmlns="http://www.w3.org/2000/svg" xmlns:xlink="http://www.w3.org/1999/xlink" width="32" height="32" viewBox="0 0 32 32" version="1.1">
<g id="surface1">
<path style=" stroke:none;fill-rule:nonzero;fill:rgb(0%,0%,0%);fill-opacity:1;" d="M 22.128906 1.386719 L 30.589844 9.847656 C 30.769531 10.027344 30.832031 10.289062 30.753906 10.527344 C 30.675781 10.765625 30.46875 10.941406 30.222656 10.980469 L 28.257812 11.285156 L 20.714844 3.742188 L 20.996094 1.765625 C 21.03125 1.515625 21.207031 1.304688 21.445312 1.226562 C 21.683594 1.144531 21.949219 1.207031 22.128906 1.386719 Z M 6.125 26.867188 C 11.089844 22.425781 16.785156 21.097656 22.984375 19.507812 L 23.578125 14.148438 L 17.847656 8.421875 L 12.492188 9.015625 C 10.902344 15.210938 9.574219 20.90625 5.132812 25.871094 L 3.273438 24.011719 C 7.042969 19.613281 8.457031 14.742188 10.34375 6.570312 L 18.828125 5.628906 L 26.371094 13.171875 L 25.429688 21.65625 C 17.257812 23.542969 12.386719 24.957031 7.988281 28.726562 Z M 13.171875 18.828125 C 12.480469 18.15625 12.199219 17.164062 12.445312 16.234375 C 12.6875 15.300781 13.417969 14.574219 14.347656 14.328125 C 15.28125 14.085938 16.273438 14.363281 16.941406 15.054688 C 17.9375 16.105469 17.917969 17.753906 16.894531 18.777344 C 15.875 19.800781 14.222656 19.824219 13.171875 18.828125 Z M 13.171875 18.828125 "/>
</g>
</svg>
