<?xml version="1.0" encoding="UTF-8"?>
<svg xmlns="http://www.w3.org/2000/svg" xmlns:xlink="http://www.w3.org/1999/xlink" width="32" height="32" viewBox="0 0 32 32" version="1.1">
<g id="surface1">
<path style=" stroke:none;fill-rule:nonzero;fill:rgb(0%,0%,0%);fill-opacity:1;" d="M 7.515625 16.941406 L 9.953125 19.382812 L 11.839844 17.492188 L 9.398438 15.058594 L 11.285156 13.171875 L 13.722656 15.609375 L 15.609375 13.722656 L 13.171875 11.285156 L 15.058594 9.398438 L 17.492188 11.839844 L 19.378906 9.953125 L 16.941406 7.515625 L 20.714844 3.746094 C 21.234375 3.226562 22.078125 3.226562 22.597656 3.746094 L 28.253906 9.402344 C 28.773438 9.921875 28.773438 10.765625 28.253906 11.285156 L 11.285156 28.257812 C 10.765625 28.777344 9.921875 28.777344 9.398438 28.257812 L 3.742188 22.601562 C 3.222656 22.078125 3.222656 21.234375 3.742188 20.714844 Z M 18.828125 24.484375 L 24.484375 18.828125 L 28 22.34375 L 28 28 L 22.34375 28 Z M 7.515625 13.171875 L 3.742188 9.398438 C 3.492188 9.148438 3.351562 8.808594 3.351562 8.457031 C 3.351562 8.101562 3.492188 7.761719 3.742188 7.511719 L 7.515625 3.742188 C 8.035156 3.222656 8.878906 3.222656 9.398438 3.742188 L 13.171875 7.511719 Z M 7.515625 13.171875 "/>
</g>
</svg>
