<?xml version="1.0" encoding="UTF-8"?>
<svg xmlns="http://www.w3.org/2000/svg" xmlns:xlink="http://www.w3.org/1999/xlink" width="32" height="32" viewBox="0 0 32 32" version="1.1">
<g id="surface1">
<path style=" stroke:none;fill-rule:nonzero;fill:rgb(0%,0%,0%);fill-opacity:1;" d="M 12.488281 14.242188 C 13.738281 16.441406 15.558594 18.261719 17.757812 19.511719 L 18.9375 17.863281 C 19.328125 17.3125 20.070312 17.140625 20.660156 17.464844 C 22.546875 18.496094 24.628906 19.117188 26.773438 19.285156 C 27.464844 19.339844 28 19.917969 28 20.613281 L 28 26.5625 C 28 27.246094 27.484375 27.820312 26.800781 27.890625 C 26.097656 27.964844 25.382812 28 24.667969 28 C 13.253906 28 4 18.746094 4 7.332031 C 4 6.617188 4.035156 5.902344 4.109375 5.199219 C 4.179688 4.515625 4.753906 4 5.4375 4 L 11.386719 4 C 12.082031 4 12.660156 4.535156 12.714844 5.226562 C 12.882812 7.371094 13.503906 9.453125 14.535156 11.339844 C 14.859375 11.929688 14.6875 12.671875 14.136719 13.0625 Z M 9.125 13.367188 L 11.660156 11.558594 C 10.941406 10.003906 10.445312 8.359375 10.195312 6.667969 L 6.679688 6.667969 C 6.671875 6.886719 6.667969 7.109375 6.667969 7.332031 C 6.667969 17.273438 14.726562 25.332031 24.667969 25.332031 C 24.890625 25.332031 25.113281 25.328125 25.332031 25.320312 L 25.332031 21.804688 C 23.640625 21.554688 21.996094 21.058594 20.441406 20.339844 L 18.632812 22.875 C 17.90625 22.589844 17.199219 22.257812 16.515625 21.875 L 16.4375 21.832031 C 13.824219 20.34375 11.65625 18.175781 10.167969 15.5625 L 10.125 15.484375 C 9.742188 14.800781 9.410156 14.09375 9.125 13.367188 Z M 9.125 13.367188 "/>
</g>
</svg>
