<?xml version="1.0" encoding="UTF-8"?>
<svg xmlns="http://www.w3.org/2000/svg" xmlns:xlink="http://www.w3.org/1999/xlink" width="32" height="32" viewBox="0 0 32 32" version="1.1">
<g id="surface1">
<path style=" stroke:none;fill-rule:evenodd;fill:rgb(0%,0%,0%);fill-opacity:1;" d="M 2 2 C 0.890625 2 0 2.890625 0 4 L 0 26 C 0 27.109375 0.890625 28 2 28 L 4 28 L 4 8 C 4 6.890625 4.890625 6 6 6 L 12 6 C 13.109375 6 14 6.890625 14 8 L 14 28 L 30 28 C 31.109375 28 32 27.109375 32 26 L 32 4 C 32 2.890625 31.109375 2 30 2 Z M 18 6 L 28 6 L 28 12 L 18 12 Z M 8 8 C 6.890625 8 6 8.890625 6 10 L 6 28 C 6 29.109375 6.890625 30 8 30 L 10 30 C 11.109375 30 12 29.109375 12 28 L 12 10 C 12 8.890625 11.109375 8 10 8 Z M 18 14 L 20 14 L 20 16 L 18 16 Z M 22 14 L 24 14 L 24 16 L 22 16 Z M 26 14 L 28 14 L 28 16 L 26 16 Z M 18 18 L 20 18 L 20 20 L 18 20 Z M 22 18 L 24 18 L 24 20 L 22 20 Z M 26 18 L 28 18 L 28 20 L 26 20 Z M 18 22 L 20 22 L 20 24 L 18 24 Z M 22 22 L 24 22 L 24 24 L 22 24 Z M 26 22 L 28 22 L 28 24 L 26 24 Z M 26 22 "/>
</g>
</svg>
