<?xml version="1.0" encoding="UTF-8"?>
<svg xmlns="http://www.w3.org/2000/svg" xmlns:xlink="http://www.w3.org/1999/xlink" width="32" height="32" viewBox="0 0 32 32" version="1.1">
<g id="surface1">
<path style=" stroke:none;fill-rule:nonzero;fill:rgb(0%,0%,0%);fill-opacity:1;" d="M 19.738281 5.332031 C 19.261719 6.15625 18.933594 7.0625 18.777344 8 L 4 8 L 4 24 L 28 24 L 28 17.222656 C 28.9375 17.066406 29.84375 16.738281 30.667969 16.261719 L 30.667969 25.332031 C 30.667969 26.070312 30.078125 26.667969 29.332031 26.667969 L 2.667969 26.667969 C 2.316406 26.667969 1.976562 26.527344 1.722656 26.277344 C 1.472656 26.027344 1.332031 25.6875 1.332031 25.332031 L 1.332031 6.667969 C 1.332031 5.929688 1.921875 5.332031 2.667969 5.332031 Z M 26.667969 12 C 28.140625 12 29.332031 10.804688 29.332031 9.332031 C 29.332031 7.859375 28.140625 6.667969 26.667969 6.667969 C 25.195312 6.667969 24 7.859375 24 9.332031 C 24 10.804688 25.195312 12 26.667969 12 Z M 26.667969 14.667969 C 23.722656 14.667969 21.332031 12.277344 21.332031 9.332031 C 21.332031 6.386719 23.722656 4 26.667969 4 C 29.613281 4 32 6.386719 32 9.332031 C 32 12.277344 29.613281 14.667969 26.667969 14.667969 Z M 24 17.332031 L 26.667969 17.332031 L 26.667969 21.332031 L 24 21.332031 Z M 24 17.332031 "/>
</g>
</svg>
