<?xml version="1.0" encoding="UTF-8"?>
<svg xmlns="http://www.w3.org/2000/svg" xmlns:xlink="http://www.w3.org/1999/xlink" width="32" height="32" viewBox="0 0 32 32" version="1.1">
<g id="surface1">
<path style=" stroke:none;fill-rule:nonzero;fill:rgb(0%,0%,0%);fill-opacity:1;" d="M 28 21.894531 L 28 26.609375 C 28 27.308594 27.457031 27.890625 26.761719 27.9375 C 26.175781 27.980469 25.703125 28 25.332031 28 C 13.550781 28 4 18.449219 4 6.667969 C 4 6.296875 4.019531 5.824219 4.0625 5.238281 C 4.109375 4.542969 4.691406 4 5.390625 4 L 10.105469 4 C 10.449219 4 10.738281 4.257812 10.769531 4.601562 C 10.800781 4.90625 10.828125 5.152344 10.855469 5.335938 C 11.121094 7.183594 11.664062 8.984375 12.464844 10.671875 C 12.59375 10.9375 12.511719 11.257812 12.269531 11.425781 L 9.394531 13.484375 C 11.152344 17.582031 14.417969 20.847656 18.519531 22.609375 L 20.570312 19.734375 C 20.746094 19.492188 21.066406 19.410156 21.335938 19.539062 C 23.023438 20.339844 24.820312 20.878906 26.667969 21.144531 C 26.855469 21.171875 27.097656 21.199219 27.402344 21.230469 C 27.742188 21.265625 28 21.550781 28 21.894531 Z M 28 21.894531 "/>
</g>
</svg>
