<?xml version="1.0" encoding="UTF-8"?>
<svg xmlns="http://www.w3.org/2000/svg" xmlns:xlink="http://www.w3.org/1999/xlink" width="32" height="32" viewBox="0 0 32 32" version="1.1">
<g id="surface1">
<path style=" stroke:none;fill-rule:nonzero;fill:rgb(0%,0%,0%);fill-opacity:1;" d="M 15.1875 13.851562 L 10 19.035156 L 4.8125 13.851562 C 1.949219 10.988281 1.953125 6.347656 4.816406 3.484375 C 7.679688 0.621094 12.320312 0.621094 15.183594 3.484375 C 18.046875 6.347656 18.050781 10.988281 15.1875 13.851562 Z M 10 11.332031 C 11.472656 11.332031 12.667969 10.140625 12.667969 8.667969 C 12.667969 7.195312 11.472656 6 10 6 C 8.527344 6 7.332031 7.195312 7.332031 8.667969 C 7.332031 10.140625 8.527344 11.332031 10 11.332031 Z M 27.1875 25.851562 L 22 31.039062 L 16.8125 25.851562 C 13.949219 22.988281 13.953125 18.34375 16.816406 15.480469 C 19.679688 12.617188 24.320312 12.617188 27.183594 15.480469 C 30.046875 18.34375 30.050781 22.988281 27.1875 25.851562 Z M 22 23.332031 C 23.472656 23.332031 24.667969 22.140625 24.667969 20.667969 C 24.667969 19.195312 23.472656 18 22 18 C 20.527344 18 19.332031 19.195312 19.332031 20.667969 C 19.332031 22.140625 20.527344 23.332031 22 23.332031 Z M 22 23.332031 "/>
</g>
</svg>
