<?xml version="1.0" encoding="UTF-8"?>
<svg xmlns="http://www.w3.org/2000/svg" xmlns:xlink="http://www.w3.org/1999/xlink" width="32" height="32" viewBox="0 0 32 32" version="1.1">
<g id="surface1">
<path style=" stroke:none;fill-rule:nonzero;fill:rgb(0%,0%,0%);fill-opacity:1;" d="M 23.910156 4.046875 L 26.222656 5.382812 L 24.707031 8 L 28 8 L 28 10.667969 L 25.332031 10.667969 L 25.332031 16 L 28 16 L 28 18.667969 L 25.332031 18.667969 L 25.332031 28 L 22.667969 28 L 22.667969 18.667969 L 18.554688 18.667969 C 18.121094 22.484375 16.46875 25.859375 14.0625 28.257812 L 11.980469 26.5625 C 14.003906 24.648438 15.441406 21.867188 15.867188 18.667969 L 13.332031 18.667969 L 13.332031 16 L 16 16 L 16 10.667969 L 13.332031 10.667969 L 13.332031 8 L 16.621094 8 L 15.113281 5.382812 L 17.421875 4.046875 L 19.703125 8 L 21.628906 8 Z M 6.667969 18.402344 L 4 19.117188 L 4 16.355469 L 6.667969 15.644531 L 6.667969 10.667969 L 4 10.667969 L 4 8 L 6.667969 8 L 6.667969 4 L 9.332031 4 L 9.332031 8 L 12 8 L 12 10.667969 L 9.332031 10.667969 L 9.332031 14.929688 L 12 14.214844 L 12 16.976562 L 9.332031 17.6875 L 9.332031 24.667969 C 9.332031 26.507812 7.839844 28 6 28 L 4 28 L 4 25.332031 L 6 25.332031 C 6.320312 25.332031 6.597656 25.101562 6.65625 24.785156 L 6.667969 24.667969 Z M 22.667969 10.667969 L 18.667969 10.667969 L 18.667969 16 L 22.667969 16 Z M 22.667969 10.667969 "/>
</g>
</svg>
