<?xml version="1.0" encoding="UTF-8"?>
<svg xmlns="http://www.w3.org/2000/svg" xmlns:xlink="http://www.w3.org/1999/xlink" width="32" height="32" viewBox="0 0 32 32" version="1.1">
<g id="surface1">
<path style=" stroke:none;fill-rule:nonzero;fill:rgb(0%,0%,0%);fill-opacity:1;" d="M 30.113281 22.679688 C 29.539062 23.40625 28.136719 23.921875 28.136719 23.921875 L 17.691406 27.675781 L 17.691406 24.90625 L 25.378906 22.164062 C 26.25 21.851562 26.382812 21.410156 25.675781 21.175781 C 24.96875 20.945312 23.6875 21.011719 22.8125 21.324219 L 17.691406 23.128906 L 17.691406 20.257812 L 17.988281 20.15625 C 17.988281 20.15625 19.464844 19.632812 21.546875 19.402344 C 23.628906 19.171875 26.175781 19.433594 28.175781 20.191406 C 30.429688 20.90625 30.683594 21.957031 30.113281 22.679688 Z M 18.683594 17.964844 L 18.683594 10.882812 C 18.683594 10.050781 18.535156 9.285156 17.753906 9.070312 C 17.15625 8.878906 16.785156 9.433594 16.785156 10.261719 L 16.785156 28 L 12.007812 26.480469 L 12.007812 5.332031 C 14.039062 5.710938 17 6.605469 18.589844 7.140625 C 22.636719 8.53125 24.007812 10.261719 24.007812 14.164062 C 24.007812 17.964844 21.664062 19.40625 18.6875 17.964844 Z M 3.242188 24.617188 C 0.929688 23.964844 0.542969 22.605469 1.597656 21.824219 C 2.570312 21.101562 4.230469 20.554688 4.230469 20.554688 L 11.078125 18.117188 L 11.078125 20.898438 L 6.152344 22.664062 C 5.28125 22.976562 5.144531 23.417969 5.851562 23.652344 C 6.5625 23.882812 7.84375 23.816406 8.714844 23.503906 L 11.078125 22.644531 L 11.078125 25.132812 L 10.609375 25.210938 C 8.242188 25.597656 5.722656 25.4375 3.242188 24.617188 Z M 3.242188 24.617188 "/>
</g>
</svg>
