<?xml version="1.0" encoding="UTF-8"?>
<svg xmlns="http://www.w3.org/2000/svg" xmlns:xlink="http://www.w3.org/1999/xlink" width="32" height="32" viewBox="0 0 32 32" version="1.1">
<g id="surface1">
<path style=" stroke:none;fill-rule:nonzero;fill:rgb(0%,0%,0%);fill-opacity:1;" d="M 16 29.332031 C 8.636719 29.332031 2.667969 23.363281 2.667969 16 C 2.667969 8.636719 8.636719 2.667969 16 2.667969 C 23.363281 2.667969 29.332031 8.636719 29.332031 16 C 29.332031 23.363281 23.363281 29.332031 16 29.332031 Z M 14.164062 11.21875 C 14 11.109375 13.789062 11.101562 13.617188 11.191406 C 13.441406 11.285156 13.332031 11.464844 13.332031 11.664062 L 13.332031 20.335938 C 13.332031 20.535156 13.441406 20.714844 13.617188 20.808594 C 13.789062 20.898438 14 20.890625 14.164062 20.78125 L 20.667969 16.445312 C 20.816406 16.34375 20.90625 16.179688 20.90625 16 C 20.90625 15.820312 20.816406 15.65625 20.667969 15.554688 L 14.160156 11.21875 Z M 14.164062 11.21875 "/>
</g>
</svg>
