<?xml version="1.0" encoding="UTF-8"?>
<svg xmlns="http://www.w3.org/2000/svg" xmlns:xlink="http://www.w3.org/1999/xlink" width="32" height="32" viewBox="0 0 32 32" version="1.1">
<defs>
<filter id="alpha" filterUnits="objectBoundingBox" x="0%" y="0%" width="100%" height="100%">
  <feColorMatrix type="matrix" in="SourceGraphic" values="0 0 0 0 1 0 0 0 0 1 0 0 0 0 1 0 0 0 1 0"/>
</filter>
<mask id="mask0">
  <g filter="url(#alpha)">
<rect x="0" y="0" width="32" height="32" style="fill:rgb(0%,0%,0%);fill-opacity:0.996078;stroke:none;"/>
  </g>
</mask>
<clipPath id="clip1">
  <rect x="0" y="0" width="32" height="32"/>
</clipPath>
<g id="surface5" clip-path="url(#clip1)">
<path style=" stroke:none;fill-rule:evenodd;fill:rgb(0%,0%,0%);fill-opacity:1;" d="M 16 2 L 16 8 L 14 8 L 15.964844 20.027344 C 16.152344 21.164062 17.132812 22 18.285156 22 L 20.222656 22 C 20.078125 23.949219 19.761719 26.011719 19.171875 27.519531 C 19.113281 27.515625 18.886719 27.519531 18.433594 27.328125 C 17.414062 26.894531 15.820312 25.800781 14.167969 24.609375 C 12.515625 23.417969 10.773438 22.128906 9.074219 21.246094 C 8.222656 20.804688 7.386719 20.445312 6.492188 20.300781 C 5.597656 20.15625 4.558594 20.261719 3.714844 20.847656 C 2.414062 21.75 1.75 23.136719 1.53125 24.476562 C 1.3125 25.816406 1.464844 27.15625 1.722656 28.359375 C 2 29.652344 2.550781 30.972656 3.039062 32 L 6.390625 32 C 6.183594 31.628906 5.023438 29.515625 4.644531 27.726562 C 4.4375 26.75 4.355469 25.742188 4.484375 24.964844 C 4.613281 24.1875 4.875 23.695312 5.429688 23.3125 C 5.511719 23.253906 5.625 23.207031 6.019531 23.269531 C 6.414062 23.332031 7.019531 23.546875 7.703125 23.902344 C 9.070312 24.613281 10.746094 25.847656 12.410156 27.046875 C 14.074219 28.246094 15.6875 29.421875 17.253906 30.089844 C 18.039062 30.421875 18.855469 30.667969 19.792969 30.503906 C 20.730469 30.339844 21.621094 29.542969 21.980469 28.628906 C 22.792969 26.5625 23.101562 24.171875 23.230469 22 L 25.714844 22 C 26.867188 22 27.847656 21.164062 28.035156 20.027344 L 30 8 L 28 8 L 28 2 L 24 2 L 24 8 L 20 8 L 20 2 Z M 16 2 "/>
</g>
</defs>
<g id="surface1">
<use xlink:href="#surface5" mask="url(#mask0)"/>
</g>
</svg>
