<?xml version="1.0" encoding="UTF-8"?>
<svg xmlns="http://www.w3.org/2000/svg" xmlns:xlink="http://www.w3.org/1999/xlink" width="32" height="32" viewBox="0 0 32 32" version="1.1">
<g id="surface1">
<path style=" stroke:none;fill-rule:nonzero;fill:rgb(0%,0%,0%);fill-opacity:1;" d="M 28 8 L 25.332031 8 L 25.332031 6.667969 L 6.667969 6.667969 L 6.667969 25.332031 L 25.332031 25.332031 L 25.332031 24 L 28 24 L 28 26.667969 C 28 27.402344 27.402344 28 26.667969 28 L 5.332031 28 C 4.597656 28 4 27.402344 4 26.667969 L 4 5.332031 C 4 4.597656 4.597656 4 5.332031 4 L 26.667969 4 C 27.402344 4 28 4.597656 28 5.332031 Z M 8 8 L 10.667969 8 L 10.667969 12 L 8 12 Z M 20 21.332031 C 22.945312 21.332031 25.332031 18.945312 25.332031 16 C 25.332031 13.054688 22.945312 10.667969 20 10.667969 C 17.054688 10.667969 14.667969 13.054688 14.667969 16 C 14.667969 18.945312 17.054688 21.332031 20 21.332031 Z M 20 24 C 15.582031 24 12 20.417969 12 16 C 12 11.582031 15.582031 8 20 8 C 24.417969 8 28 11.582031 28 16 C 28 20.417969 24.417969 24 20 24 Z M 20 18.667969 C 18.527344 18.667969 17.332031 17.472656 17.332031 16 C 17.332031 14.527344 18.527344 13.332031 20 13.332031 C 21.472656 13.332031 22.667969 14.527344 22.667969 16 C 22.667969 17.472656 21.472656 18.667969 20 18.667969 Z M 20 18.667969 "/>
</g>
</svg>
