<?xml version="1.0" encoding="UTF-8"?>
<svg xmlns="http://www.w3.org/2000/svg" xmlns:xlink="http://www.w3.org/1999/xlink" width="32" height="32" viewBox="0 0 32 32" version="1.1">
<g id="surface1">
<path style=" stroke:none;fill-rule:nonzero;fill:rgb(0%,0%,0%);fill-opacity:1;" d="M 4 5.324219 C 4 4.59375 4.59375 4 5.324219 4 L 26.675781 4 C 27.40625 4 28 4.59375 28 5.324219 L 28 26.675781 C 28 27.40625 27.40625 28 26.675781 28 L 5.324219 28 C 4.59375 28 4 27.40625 4 26.675781 Z M 8 22.667969 L 8 25.332031 L 24 25.332031 L 24 22.667969 Z M 6.667969 6.667969 L 6.667969 9.332031 L 9.332031 9.332031 L 9.332031 6.667969 Z M 16 16 C 14.527344 16 13.332031 14.804688 13.332031 13.332031 C 13.332031 11.859375 14.527344 10.667969 16 10.667969 C 17.472656 10.667969 18.667969 11.859375 18.667969 13.332031 C 18.667969 14.804688 17.472656 16 16 16 Z M 16 18.667969 C 18.945312 18.667969 21.332031 16.277344 21.332031 13.332031 C 21.332031 10.386719 18.945312 8 16 8 C 13.054688 8 10.667969 10.386719 10.667969 13.332031 C 10.667969 16.277344 13.054688 18.667969 16 18.667969 Z M 16 18.667969 "/>
</g>
</svg>
