<?xml version="1.0" encoding="UTF-8"?>
<svg xmlns="http://www.w3.org/2000/svg" xmlns:xlink="http://www.w3.org/1999/xlink" width="32" height="32" viewBox="0 0 32 32" version="1.1">
<g id="surface1">
<path style=" stroke:none;fill-rule:nonzero;fill:rgb(0%,0%,0%);fill-opacity:1;" d="M 29.332031 18 L 29.332031 28 C 29.332031 28.738281 28.738281 29.332031 28 29.332031 L 26.667969 29.332031 C 25.929688 29.332031 25.332031 28.738281 25.332031 28 L 25.332031 26.667969 L 6.667969 26.667969 L 6.667969 28 C 6.667969 28.738281 6.070312 29.332031 5.332031 29.332031 L 4 29.332031 C 3.261719 29.332031 2.667969 28.738281 2.667969 28 L 2.667969 18 L 1.007812 17.585938 C 0.417969 17.4375 0 16.90625 0 16.292969 L 0 15.332031 C 0 14.964844 0.296875 14.667969 0.667969 14.667969 L 3.238281 14.667969 L 5.972656 8.28125 C 6.394531 7.300781 7.359375 6.667969 8.425781 6.667969 L 10.667969 6.667969 L 10.667969 4 L 14.667969 4 L 14.667969 6.667969 L 17.332031 6.667969 L 17.332031 4 L 21.332031 4 L 21.332031 6.667969 L 23.574219 6.667969 C 24.640625 6.667969 25.605469 7.300781 26.023438 8.28125 L 28.761719 14.667969 L 31.332031 14.667969 C 31.703125 14.667969 32 14.964844 32 15.332031 L 32 16.292969 C 32 16.90625 31.582031 17.4375 30.992188 17.585938 Z M 5.332031 20 L 5.332031 22.667969 C 5.332031 23.402344 5.929688 24 6.667969 24 L 10.992188 24 C 11.226562 24 11.445312 23.875 11.566406 23.675781 C 11.683594 23.472656 11.691406 23.226562 11.578125 23.019531 C 10.507812 21.003906 8.425781 20 5.332031 20 Z M 26.667969 20 C 23.578125 20 21.496094 21.007812 20.417969 23.019531 C 20.308594 23.226562 20.3125 23.476562 20.433594 23.675781 C 20.554688 23.878906 20.773438 24 21.007812 24 L 25.332031 24 C 26.070312 24 26.667969 23.402344 26.667969 22.667969 Z M 8 9.332031 L 6.066406 14.171875 C 5.902344 14.582031 5.953125 15.046875 6.199219 15.414062 C 6.445312 15.78125 6.859375 16 7.300781 16 L 24.699219 16 C 25.140625 16 25.554688 15.78125 25.800781 15.414062 C 26.046875 15.046875 26.097656 14.582031 25.933594 14.171875 L 24 9.332031 Z M 8 9.332031 "/>
</g>
</svg>
