<?xml version="1.0" encoding="UTF-8"?>
<svg xmlns="http://www.w3.org/2000/svg" xmlns:xlink="http://www.w3.org/1999/xlink" width="32" height="32" viewBox="0 0 32 32" version="1.1">
<g id="surface1">
<path style=" stroke:none;fill-rule:nonzero;fill:rgb(0%,0%,0%);fill-opacity:1;" d="M 22.667969 2.667969 C 23.402344 2.667969 24 3.261719 24 4 L 24 9.332031 L 28 9.332031 C 28.738281 9.332031 29.332031 9.929688 29.332031 10.667969 L 29.335938 17.792969 C 28.648438 16.8125 27.734375 16.015625 26.667969 15.46875 L 26.667969 12 L 5.332031 12 L 5.332031 22.667969 L 8 22.667969 L 8 21.332031 C 8 20.597656 8.597656 20 9.332031 20 L 16.277344 20 L 16.179688 20.378906 L 16.140625 20.402344 C 15.285156 20.980469 14.578125 21.757812 14.089844 22.667969 L 10.667969 22.667969 L 10.667969 26.667969 L 13.414062 26.667969 C 13.566406 27.628906 13.9375 28.539062 14.503906 29.332031 L 9.332031 29.332031 C 8.597656 29.332031 8 28.738281 8 28 L 8 25.332031 L 4 25.332031 C 3.261719 25.332031 2.667969 24.738281 2.667969 24 L 2.667969 10.667969 C 2.667969 9.929688 3.261719 9.332031 4 9.332031 L 8 9.332031 L 8 4 C 8 3.261719 8.597656 2.667969 9.332031 2.667969 Z M 23.332031 17.332031 C 25.910156 17.332031 28 19.421875 28 22 L 28 22.136719 C 29.722656 22.621094 30.839844 24.28125 30.648438 26.058594 C 30.457031 27.839844 29.011719 29.21875 27.222656 29.328125 L 27 29.332031 L 19.667969 29.332031 L 19.441406 29.328125 C 17.65625 29.21875 16.210938 27.835938 16.019531 26.058594 C 15.828125 24.28125 16.949219 22.621094 18.671875 22.136719 L 18.667969 22 C 18.667969 19.421875 20.757812 17.332031 23.332031 17.332031 Z M 23.332031 20 C 22.375 20 21.550781 20.679688 21.371094 21.621094 L 21.34375 21.808594 L 21.332031 22 L 21.332031 24.160156 L 19.40625 24.703125 C 18.949219 24.824219 18.640625 25.25 18.667969 25.722656 C 18.691406 26.195312 19.046875 26.585938 19.515625 26.65625 L 19.660156 26.667969 L 27.007812 26.667969 C 27.507812 26.664062 27.925781 26.289062 27.992188 25.792969 C 28.054688 25.296875 27.742188 24.832031 27.261719 24.703125 L 25.910156 24.324219 L 25.332031 24.160156 L 25.332031 22 L 25.324219 21.808594 C 25.226562 20.78125 24.363281 20 23.332031 20 Z M 10.667969 13.332031 L 10.667969 16 L 6.667969 16 L 6.667969 13.332031 Z M 21.332031 5.332031 L 10.667969 5.332031 L 10.667969 9.332031 L 21.332031 9.332031 Z M 21.332031 5.332031 "/>
</g>
</svg>
