<?xml version="1.0" encoding="UTF-8"?>
<svg xmlns="http://www.w3.org/2000/svg" xmlns:xlink="http://www.w3.org/1999/xlink" width="32" height="32" viewBox="0 0 32 32" version="1.1">
<g id="surface1">
<path style=" stroke:none;fill-rule:nonzero;fill:rgb(0%,0%,0%);fill-opacity:1;" d="M 16 29.332031 C 8.636719 29.332031 2.667969 23.363281 2.667969 16 C 2.667969 8.636719 8.636719 2.667969 16 2.667969 C 23.363281 2.667969 29.332031 8.636719 29.332031 16 C 29.332031 23.363281 23.363281 29.332031 16 29.332031 Z M 17.777344 16 L 14 16 L 14 12 L 17.777344 12 C 18.882812 12 19.777344 12.894531 19.777344 14 C 19.777344 15.105469 18.882812 16 17.777344 16 Z M 17.777344 9.332031 L 11.332031 9.332031 L 11.332031 22.667969 L 14 22.667969 L 14 18.667969 L 17.777344 18.667969 C 20.355469 18.667969 22.445312 16.578125 22.445312 14 C 22.445312 11.421875 20.355469 9.332031 17.777344 9.332031 Z M 17.777344 9.332031 "/>
</g>
</svg>
