<?xml version="1.0" encoding="UTF-8"?>
<svg xmlns="http://www.w3.org/2000/svg" xmlns:xlink="http://www.w3.org/1999/xlink" width="32" height="32" viewBox="0 0 32 32" version="1.1">
<g id="surface1">
<path style=" stroke:none;fill-rule:nonzero;fill:rgb(0%,0%,0%);fill-opacity:1;" d="M 14.667969 2.667969 C 20.089844 2.667969 24.566406 6.714844 25.246094 11.953125 L 28.246094 16.671875 C 28.441406 16.984375 28.402344 17.445312 27.945312 17.644531 L 25.332031 18.761719 L 25.332031 22.667969 C 25.332031 24.140625 24.140625 25.332031 22.667969 25.332031 L 20 25.332031 L 20 29.332031 L 8 29.332031 L 8 24.40625 C 8 22.835938 7.417969 21.34375 6.339844 20 C 4.875 18.175781 4 15.855469 4 13.332031 C 4 7.441406 8.777344 2.667969 14.667969 2.667969 Z M 14.667969 9.332031 C 13.929688 9.332031 13.332031 9.929688 13.332031 10.667969 L 13.332031 12 L 12 12 C 11.265625 12 10.667969 12.597656 10.667969 13.332031 C 10.667969 14.070312 11.265625 14.667969 12 14.667969 L 13.332031 14.664062 L 13.332031 16 C 13.332031 16.734375 13.929688 17.332031 14.667969 17.332031 C 15.402344 17.332031 16 16.734375 16 16 L 16 14.667969 L 17.332031 14.667969 C 18.070312 14.667969 18.667969 14.070312 18.667969 13.332031 C 18.667969 12.597656 18.070312 12 17.332031 12 L 16 12 L 16 10.667969 C 16 9.929688 15.402344 9.332031 14.667969 9.332031 Z M 14.667969 9.332031 "/>
</g>
</svg>
