<?xml version="1.0" encoding="UTF-8"?>
<svg xmlns="http://www.w3.org/2000/svg" xmlns:xlink="http://www.w3.org/1999/xlink" width="32" height="32" viewBox="0 0 32 32" version="1.1">
<g id="surface1">
<path style=" stroke:none;fill-rule:evenodd;fill:rgb(0%,0%,0%);fill-opacity:0.996078;" d="M 15.8125 2 C 8.152344 2.101562 2 8.339844 2 16 C 2 23.730469 8.269531 30 16 30 C 23.730469 30 30 23.730469 30 16 C 30 13.925781 29.539062 11.875 28.648438 10 L 32 10 L 32 2 L 16 2 C 15.9375 2 15.875 2 15.8125 2 Z M 15.898438 12 C 15.898438 12 15.902344 12 15.902344 12 C 15.933594 12 15.96875 12 16 12 C 18.210938 12 20 13.789062 20 16 C 20 18.210938 18.210938 20 16 20 C 13.789062 20 12 18.210938 12 16 C 12 13.828125 13.730469 12.054688 15.898438 12 Z M 15.898438 12 "/>
</g>
</svg>
