<?xml version="1.0" encoding="UTF-8"?>
<svg xmlns="http://www.w3.org/2000/svg" xmlns:xlink="http://www.w3.org/1999/xlink" width="32" height="32" viewBox="0 0 32 32" version="1.1">
<g id="surface1">
<path style=" stroke:none;fill-rule:nonzero;fill:rgb(0%,0%,0%);fill-opacity:1;" d="M 8.605469 25.332031 L 2.667969 30 L 2.667969 5.332031 C 2.667969 4.597656 3.261719 4 4 4 L 28 4 C 28.738281 4 29.332031 4.597656 29.332031 5.332031 L 29.332031 24 C 29.332031 24.738281 28.738281 25.332031 28 25.332031 Z M 14.667969 18.667969 L 14.667969 21.332031 L 17.332031 21.332031 L 17.332031 18.667969 Z M 11.421875 11.75 L 14.039062 12.273438 C 14.246094 11.242188 15.21875 10.546875 16.261719 10.683594 C 17.304688 10.820312 18.066406 11.746094 17.996094 12.796875 C 17.925781 13.847656 17.054688 14.667969 16 14.667969 L 14.667969 14.667969 L 14.667969 17.332031 L 16 17.332031 C 18.457031 17.332031 20.492188 15.425781 20.65625 12.972656 C 20.816406 10.519531 19.046875 8.363281 16.609375 8.039062 C 14.175781 7.71875 11.90625 9.339844 11.421875 11.75 Z M 11.421875 11.75 "/>
</g>
</svg>
