<?xml version="1.0" encoding="UTF-8"?>
<svg xmlns="http://www.w3.org/2000/svg" xmlns:xlink="http://www.w3.org/1999/xlink" width="32" height="32" viewBox="0 0 32 32" version="1.1">
<g id="surface1">
<path style=" stroke:none;fill-rule:nonzero;fill:rgb(0%,0%,0%);fill-opacity:1;" d="M 9.253906 18.714844 C 8.941406 19.546875 8.679688 20.316406 8.445312 21.09375 C 9.726562 20.164062 11.246094 19.574219 13.003906 19.351562 C 16.351562 18.933594 19.332031 16.722656 20.835938 13.941406 L 18.894531 12.003906 L 20.78125 10.117188 L 22.113281 8.78125 C 22.6875 8.207031 23.332031 7.148438 24.015625 5.625 C 16.558594 6.78125 11.992188 11.347656 9.253906 18.714844 Z M 22.667969 12 L 24 13.332031 C 22.667969 17.332031 18.667969 21.332031 13.332031 22 C 9.773438 22.445312 7.550781 24.890625 6.664062 29.332031 L 4 29.332031 C 5.332031 21.332031 8 2.667969 28 2.667969 C 26.667969 6.664062 25.335938 9.328125 24.003906 10.664062 Z M 22.667969 12 "/>
</g>
</svg>
