<?xml version="1.0" encoding="UTF-8"?>
<svg xmlns="http://www.w3.org/2000/svg" xmlns:xlink="http://www.w3.org/1999/xlink" width="32" height="32" viewBox="0 0 32 32" version="1.1">
<g id="surface1">
<path style=" stroke:none;fill-rule:nonzero;fill:rgb(0%,0%,0%);fill-opacity:1;" d="M 19.15625 5.863281 L 14.511719 13.910156 L 16.820312 15.242188 L 21.464844 7.199219 C 27.027344 10.894531 29.875 16.636719 27.546875 20.667969 C 25.066406 24.960938 17.960938 25.140625 11.667969 21.507812 C 5.371094 17.871094 1.972656 11.628906 4.453125 7.332031 C 6.78125 3.300781 13.175781 2.898438 19.15625 5.863281 Z M 21.179688 2.363281 L 23.488281 3.699219 L 21.488281 7.160156 L 19.179688 5.828125 Z M 8.976562 26.667969 L 22.667969 26.667969 L 22.667969 29.332031 L 6.6875 29.332031 C 6.203125 29.34375 5.753906 29.085938 5.511719 28.667969 C 5.273438 28.253906 5.273438 27.746094 5.511719 27.332031 L 8.511719 22.136719 L 10.820312 23.46875 Z M 8.976562 26.667969 "/>
</g>
</svg>
