<?xml version="1.0" encoding="UTF-8"?>
<svg xmlns="http://www.w3.org/2000/svg" xmlns:xlink="http://www.w3.org/1999/xlink" width="32" height="32" viewBox="0 0 32 32" version="1.1">
<g id="surface1">
<path style=" stroke:none;fill-rule:nonzero;fill:rgb(0%,0%,0%);fill-opacity:1;" d="M 16 5.332031 C 24.101562 5.332031 30.667969 11.898438 30.667969 20 L 30.667969 26.667969 L 26.667969 26.667969 L 26.667969 20 C 26.667969 14.238281 22.089844 9.519531 16.332031 9.339844 L 16 9.332031 C 10.238281 9.332031 5.519531 13.910156 5.339844 19.667969 L 5.332031 20 L 5.332031 26.667969 L 1.332031 26.667969 L 1.332031 20 C 1.332031 11.898438 7.898438 5.332031 16 5.332031 Z M 16 10.667969 C 21.15625 10.667969 25.332031 14.84375 25.332031 20 L 25.332031 26.667969 L 21.332031 26.667969 L 21.332031 20 C 21.332031 17.15625 19.105469 14.816406 16.265625 14.671875 L 16 14.667969 C 13.15625 14.667969 10.816406 16.894531 10.671875 19.734375 L 10.667969 20 L 10.667969 26.667969 L 6.667969 26.667969 L 6.667969 20 C 6.667969 14.84375 10.84375 10.667969 16 10.667969 Z M 16 16 C 18.210938 16 20 17.789062 20 20 L 20 26.667969 L 12 26.667969 L 12 20 C 12 17.789062 13.789062 16 16 16 Z M 16 16 "/>
</g>
</svg>
