<?xml version="1.0" encoding="UTF-8"?>
<svg xmlns="http://www.w3.org/2000/svg" xmlns:xlink="http://www.w3.org/1999/xlink" width="32" height="32" viewBox="0 0 32 32" version="1.1">
<g id="surface1">
<path style=" stroke:none;fill-rule:nonzero;fill:rgb(0%,0%,0%);fill-opacity:1;" d="M 30.257812 4.003906 C 29.707031 3.992188 29.183594 4.265625 28.839844 4.742188 L 15.140625 23.996094 L 1.78125 23.996094 C 1.308594 23.992188 0.851562 24.203125 0.519531 24.582031 C 0.183594 24.957031 -0.00390625 25.46875 -0.00390625 26.003906 C 0 27.109375 0.800781 28 1.78125 27.996094 L 16.007812 27.996094 C 16.542969 27.992188 17.050781 27.714844 17.382812 27.242188 L 31.609375 7.253906 C 31.90625 6.839844 32.042969 6.308594 31.992188 5.777344 C 31.941406 5.25 31.703125 4.765625 31.332031 4.433594 C 31.027344 4.160156 30.648438 4.011719 30.257812 4.003906 Z M 30.257812 4.003906 "/>
</g>
</svg>
