<?xml version="1.0" encoding="UTF-8"?>
<svg xmlns="http://www.w3.org/2000/svg" xmlns:xlink="http://www.w3.org/1999/xlink" width="32" height="32" viewBox="0 0 32 32" version="1.1">
<g id="surface1">
<path style=" stroke:none;fill-rule:nonzero;fill:rgb(0%,0%,0%);fill-opacity:1;" d="M 19.265625 21.652344 C 18.550781 22.667969 17.773438 23.636719 16.933594 24.554688 C 19.164062 26.71875 21.238281 27.730469 22.386719 27.066406 C 23.539062 26.402344 23.699219 24.097656 22.941406 21.085938 C 21.800781 21.339844 20.566406 21.53125 19.265625 21.652344 Z M 17.515625 21.769531 C 16.507812 21.8125 15.492188 21.8125 14.484375 21.769531 C 14.984375 22.425781 15.492188 23.035156 16 23.589844 C 16.507812 23.035156 17.011719 22.425781 17.515625 21.769531 Z M 24.238281 11.242188 C 27.789062 12.261719 30.109375 13.957031 30.109375 16 C 30.109375 18.042969 27.789062 19.738281 24.238281 20.757812 C 25.128906 24.34375 24.824219 27.199219 23.054688 28.21875 C 21.285156 29.242188 18.660156 28.078125 16 25.511719 C 13.339844 28.078125 10.714844 29.242188 8.945312 28.21875 C 7.175781 27.199219 6.867188 24.34375 7.761719 20.757812 C 4.210938 19.738281 1.890625 18.042969 1.890625 16 C 1.890625 13.957031 4.210938 12.261719 7.761719 11.242188 C 6.871094 7.65625 7.175781 4.800781 8.945312 3.78125 C 10.714844 2.757812 13.339844 3.921875 16 6.488281 C 18.660156 3.921875 21.285156 2.757812 23.054688 3.78125 C 24.824219 4.800781 25.132812 7.65625 24.238281 11.242188 Z M 22.941406 10.914062 C 23.699219 7.898438 23.539062 5.597656 22.390625 4.933594 C 21.238281 4.269531 19.164062 5.28125 16.9375 7.445312 C 17.722656 8.304688 18.507812 9.277344 19.265625 10.347656 C 20.566406 10.464844 21.800781 10.660156 22.941406 10.914062 Z M 9.058594 21.085938 C 8.300781 24.101562 8.460938 26.402344 9.609375 27.066406 C 10.761719 27.730469 12.835938 26.71875 15.0625 24.554688 C 14.226562 23.636719 13.449219 22.667969 12.734375 21.652344 C 11.5 21.542969 10.273438 21.355469 9.058594 21.085938 Z M 14.484375 10.230469 C 15.492188 10.1875 16.507812 10.1875 17.515625 10.230469 C 17.039062 9.601562 16.53125 8.996094 16 8.414062 C 15.492188 8.96875 14.988281 9.574219 14.484375 10.230469 Z M 12.734375 10.347656 C 13.449219 9.332031 14.230469 8.363281 15.066406 7.445312 C 12.835938 5.28125 10.761719 4.269531 9.613281 4.933594 C 8.460938 5.597656 8.300781 7.902344 9.058594 10.914062 C 10.199219 10.660156 11.433594 10.46875 12.734375 10.347656 Z M 18.523438 20.375 C 19.472656 18.980469 20.316406 17.519531 21.050781 16 C 20.316406 14.480469 19.472656 13.019531 18.523438 11.625 C 16.84375 11.5 15.15625 11.5 13.476562 11.625 C 12.527344 13.019531 11.683594 14.480469 10.949219 16 C 11.683594 17.519531 12.527344 18.980469 13.476562 20.375 C 15.15625 20.5 16.84375 20.5 18.523438 20.375 Z M 20.238281 20.199219 C 21.058594 20.09375 21.835938 19.953125 22.570312 19.792969 C 22.332031 19.042969 22.058594 18.300781 21.753906 17.570312 C 21.285156 18.464844 20.777344 19.34375 20.238281 20.199219 Z M 11.761719 11.800781 C 10.941406 11.90625 10.164062 12.042969 9.429688 12.207031 C 9.65625 12.921875 9.929688 13.664062 10.246094 14.429688 C 10.714844 13.53125 11.222656 12.65625 11.761719 11.800781 Z M 9.429688 19.792969 C 10.164062 19.953125 10.941406 20.089844 11.761719 20.199219 C 11.222656 19.34375 10.714844 18.464844 10.246094 17.570312 C 9.929688 18.332031 9.65625 19.078125 9.429688 19.792969 Z M 8.125 19.464844 C 8.472656 18.351562 8.925781 17.1875 9.472656 16 C 8.925781 14.808594 8.472656 13.644531 8.125 12.53125 C 5.136719 13.382812 3.222656 14.671875 3.222656 16 C 3.222656 17.328125 5.136719 18.617188 8.125 19.464844 Z M 22.570312 12.207031 C 21.835938 12.042969 21.058594 11.90625 20.238281 11.800781 C 20.777344 12.652344 21.285156 13.53125 21.753906 14.425781 C 22.070312 13.664062 22.34375 12.921875 22.570312 12.207031 Z M 23.875 12.53125 C 23.527344 13.644531 23.074219 14.808594 22.527344 16 C 23.074219 17.1875 23.527344 18.351562 23.875 19.464844 C 26.863281 18.617188 28.777344 17.328125 28.777344 16 C 28.777344 14.671875 26.863281 13.382812 23.875 12.53125 Z M 16 18.507812 C 14.617188 18.507812 13.492188 17.382812 13.492188 16 C 13.492188 14.617188 14.617188 13.492188 16 13.492188 C 17.382812 13.492188 18.507812 14.617188 18.507812 16 C 18.507812 17.382812 17.382812 18.507812 16 18.507812 Z M 16 18.507812 "/>
</g>
</svg>
