<?xml version="1.0" encoding="UTF-8"?>
<svg xmlns="http://www.w3.org/2000/svg" xmlns:xlink="http://www.w3.org/1999/xlink" width="32" height="32" viewBox="0 0 32 32" version="1.1">
<g id="surface1">
<path style=" stroke:none;fill-rule:nonzero;fill:rgb(0%,0%,0%);fill-opacity:1;" d="M 4.007812 1.003906 C 3.457031 1 3.011719 1.445312 3.003906 1.992188 L 3.003906 30 C 3 30.347656 3.179688 30.671875 3.476562 30.855469 C 3.769531 31.039062 4.140625 31.054688 4.449219 30.902344 L 7.992188 29.113281 L 11.550781 30.902344 C 11.835938 31.042969 12.167969 31.042969 12.453125 30.902344 L 15.996094 29.113281 L 19.554688 30.902344 C 19.835938 31.042969 20.171875 31.042969 20.453125 30.902344 L 23.996094 29.113281 L 27.554688 30.902344 C 27.867188 31.054688 28.234375 31.039062 28.53125 30.855469 C 28.828125 30.671875 29.003906 30.347656 29.003906 30 L 29.003906 1.992188 C 29 1.648438 28.820312 1.328125 28.523438 1.148438 C 28.230469 0.96875 27.863281 0.953125 27.554688 1.105469 L 23.996094 2.878906 L 20.453125 1.105469 C 20.171875 0.964844 19.835938 0.964844 19.554688 1.105469 L 15.996094 2.878906 L 12.453125 1.105469 C 12.167969 0.964844 11.835938 0.964844 11.550781 1.105469 L 7.992188 2.878906 L 4.449219 1.105469 C 4.3125 1.039062 4.160156 1.003906 4.007812 1.003906 Z M 11.996094 3.113281 L 15.554688 4.902344 C 15.835938 5.042969 16.171875 5.042969 16.453125 4.902344 L 19.996094 3.113281 L 23.554688 4.902344 C 23.835938 5.039062 24.160156 5.039062 24.441406 4.902344 L 26.996094 3.617188 L 26.996094 28.375 L 24.441406 27.105469 C 24.160156 26.96875 23.835938 26.96875 23.554688 27.105469 L 19.996094 28.878906 L 16.453125 27.105469 C 16.171875 26.964844 15.835938 26.964844 15.554688 27.105469 L 11.996094 28.878906 L 8.453125 27.105469 C 8.167969 26.964844 7.835938 26.964844 7.550781 27.105469 L 4.996094 28.375 L 4.996094 3.617188 L 7.550781 4.902344 C 7.835938 5.042969 8.167969 5.042969 8.453125 4.902344 Z M 11.996094 3.113281 "/>
<path style=" stroke:none;fill-rule:nonzero;fill:rgb(0%,0%,0%);fill-opacity:1;" d="M 12.988281 20.371094 C 13.363281 20.328125 13.683594 20.257812 13.949219 20.160156 C 14.210938 20.0625 14.421875 19.945312 14.582031 19.808594 C 14.75 19.660156 14.871094 19.5 14.949219 19.328125 C 15.023438 19.15625 15.0625 18.96875 15.0625 18.765625 C 15.0625 18.371094 14.933594 18.050781 14.675781 17.808594 C 14.425781 17.5625 14.019531 17.351562 13.457031 17.171875 Z M 13.863281 14.527344 C 14.328125 14.691406 14.796875 14.875 15.261719 15.078125 C 15.734375 15.273438 16.15625 15.515625 16.53125 15.808594 C 16.914062 16.097656 17.222656 16.453125 17.457031 16.871094 C 17.695312 17.28125 17.8125 17.78125 17.8125 18.371094 C 17.8125 19.042969 17.679688 19.632812 17.417969 20.140625 C 17.160156 20.640625 16.800781 21.0625 16.34375 21.410156 C 15.886719 21.75 15.34375 22.015625 14.71875 22.203125 C 14.09375 22.390625 13.414062 22.503906 12.675781 22.546875 L 12.292969 25.152344 L 10.457031 25.152344 L 10.832031 22.527344 C 9.859375 22.464844 8.917969 22.308594 8 22.058594 L 8 19.621094 C 8.492188 19.78125 9.011719 19.929688 9.550781 20.066406 C 10.101562 20.199219 10.636719 20.292969 11.15625 20.347656 L 11.707031 16.578125 C 11.257812 16.425781 10.808594 16.25 10.363281 16.058594 C 9.925781 15.855469 9.535156 15.613281 9.1875 15.328125 C 8.839844 15.035156 8.558594 14.6875 8.34375 14.277344 C 8.128906 13.859375 8.019531 13.359375 8.019531 12.777344 C 8.019531 12.289062 8.113281 11.828125 8.300781 11.390625 C 8.488281 10.953125 8.777344 10.5625 9.167969 10.222656 C 9.5625 9.875 10.0625 9.59375 10.667969 9.371094 C 11.277344 9.148438 12.003906 9.015625 12.84375 8.972656 L 13.167969 6.847656 L 15 6.847656 L 14.675781 9.066406 C 15.046875 9.101562 15.40625 9.148438 15.761719 9.203125 C 16.121094 9.257812 16.464844 9.324219 16.792969 9.402344 L 16.792969 11.640625 C 16.417969 11.523438 16.015625 11.417969 15.59375 11.328125 C 15.175781 11.238281 14.765625 11.171875 14.355469 11.128906 Z M 12.519531 11.109375 C 11.859375 11.179688 11.394531 11.34375 11.125 11.597656 C 10.859375 11.847656 10.730469 12.167969 10.730469 12.558594 C 10.730469 12.871094 10.847656 13.132812 11.082031 13.347656 C 11.320312 13.5625 11.664062 13.757812 12.113281 13.933594 Z M 12.519531 11.109375 "/>
<path style=" stroke:none;fill-rule:nonzero;fill:rgb(0%,0%,0%);fill-opacity:1;" d="M 20 11 L 24 11 L 24 9 L 20 9 L 20 11 "/>
<path style=" stroke:none;fill-rule:nonzero;fill:rgb(0%,0%,0%);fill-opacity:1;" d="M 20 15 L 24 15 L 24 13 L 20 13 L 20 15 "/>
<path style=" stroke:none;fill-rule:nonzero;fill:rgb(0%,0%,0%);fill-opacity:1;" d="M 20 19 L 24 19 L 24 17 L 20 17 L 20 19 "/>
<path style=" stroke:none;fill-rule:nonzero;fill:rgb(0%,0%,0%);fill-opacity:1;" d="M 20 23 L 24 23 L 24 21 L 20 21 L 20 23 "/>
</g>
</svg>
