<?xml version="1.0" encoding="UTF-8"?>
<svg xmlns="http://www.w3.org/2000/svg" xmlns:xlink="http://www.w3.org/1999/xlink" width="32" height="32" viewBox="0 0 32 32" version="1.1">
<g id="surface1">
<path style=" stroke:none;fill-rule:nonzero;fill:rgb(0%,0%,0%);fill-opacity:1;" d="M 18.898438 13.015625 C 21.328125 12.476562 23.558594 11.265625 25.332031 9.519531 L 25.332031 5.332031 L 6.667969 5.332031 L 6.667969 9.519531 C 8.441406 11.265625 10.671875 12.476562 13.101562 13.015625 C 13.695312 11.976562 14.800781 11.332031 16 11.332031 C 17.199219 11.332031 18.304688 11.976562 18.898438 13.015625 Z M 19.175781 15.683594 C 18.730469 17.0625 17.449219 18 16 18 C 14.550781 18 13.269531 17.0625 12.824219 15.683594 C 10.605469 15.238281 8.503906 14.320312 6.667969 13 L 6.667969 26.667969 L 25.332031 26.667969 L 25.332031 12.996094 C 23.496094 14.320312 21.394531 15.238281 19.175781 15.683594 Z M 5.332031 2.667969 L 26.667969 2.667969 C 27.402344 2.667969 28 3.261719 28 4 L 28 28 C 28 28.738281 27.402344 29.332031 26.667969 29.332031 L 5.332031 29.332031 C 4.597656 29.332031 4 28.738281 4 28 L 4 4 C 4 3.261719 4.597656 2.667969 5.332031 2.667969 Z M 5.332031 2.667969 "/>
</g>
</svg>
