<?xml version="1.0" encoding="UTF-8"?>
<svg xmlns="http://www.w3.org/2000/svg" xmlns:xlink="http://www.w3.org/1999/xlink" width="32" height="32" viewBox="0 0 32 32" version="1.1">
<g id="surface1">
<path style=" stroke:none;fill-rule:nonzero;fill:rgb(0%,0%,0%);fill-opacity:1;" d="M 16 29.332031 C 8.636719 29.332031 2.667969 23.363281 2.667969 16 C 2.667969 8.636719 8.636719 2.667969 16 2.667969 C 23.363281 2.667969 29.332031 8.636719 29.332031 16 C 29.332031 23.363281 23.363281 29.332031 16 29.332031 Z M 22.425781 22.769531 C 25.75 19.617188 26.296875 14.519531 23.714844 10.734375 C 21.136719 6.949219 16.191406 5.597656 12.042969 7.542969 L 13.34375 9.882812 C 15.402344 8.988281 17.777344 9.191406 19.65625 10.421875 C 21.535156 11.65625 22.667969 13.753906 22.667969 16 L 18.667969 16 Z M 19.957031 24.457031 L 18.65625 22.117188 C 16.597656 23.011719 14.222656 22.808594 12.34375 21.578125 C 10.464844 20.34375 9.332031 18.246094 9.332031 16 L 13.332031 16 L 9.574219 9.230469 C 6.25 12.382812 5.703125 17.480469 8.285156 21.265625 C 10.863281 25.050781 15.808594 26.402344 19.957031 24.457031 Z M 19.957031 24.457031 "/>
</g>
</svg>
