<?xml version="1.0" encoding="UTF-8"?>
<svg xmlns="http://www.w3.org/2000/svg" xmlns:xlink="http://www.w3.org/1999/xlink" width="32" height="32" viewBox="0 0 32 32" version="1.1">
<g id="surface1">
<path style=" stroke:none;fill-rule:nonzero;fill:rgb(0%,0%,0%);fill-opacity:1;" d="M 16.09375 0.78125 C 15.292969 0.796875 14.488281 0.878906 13.683594 1.03125 C 12.585938 1.230469 11.859375 2.28125 12.0625 3.378906 C 12.269531 4.46875 13.320312 5.1875 14.414062 4.984375 C 19.125 4.113281 23.832031 6.414062 26.042969 10.664062 C 27.746094 13.9375 27.636719 17.742188 25.945312 20.855469 L 23.738281 19.5 C 22.953125 19.019531 21.941406 19.535156 21.867188 20.453125 L 21.121094 29.0625 C 21.066406 29.757812 21.601562 30.363281 22.300781 30.390625 C 22.503906 30.402344 22.703125 30.359375 22.882812 30.273438 L 31.125 26.246094 C 31.980469 25.8125 32.03125 24.605469 31.214844 24.097656 L 29.359375 22.957031 C 31.765625 18.65625 31.96875 13.339844 29.613281 8.808594 C 26.96875 3.726562 21.683594 0.667969 16.09375 0.78125 Z M 9.703125 2.554688 C 9.503906 2.546875 9.300781 2.585938 9.117188 2.671875 L 0.878906 6.691406 C 0.0234375 7.125 -0.03125 8.328125 0.785156 8.835938 L 2.796875 10.078125 C 0.984375 14.019531 0.910156 18.640625 2.847656 22.710938 C 5.554688 28.402344 11.5625 31.789062 17.832031 31.144531 C 18.9375 31.023438 19.738281 30.03125 19.621094 28.925781 C 19.507812 27.824219 18.519531 27.019531 17.417969 27.128906 C 12.828125 27.601562 8.457031 25.152344 6.472656 20.988281 C 5.128906 18.160156 5.117188 14.984375 6.246094 12.207031 L 8.253906 13.449219 C 9.035156 13.929688 10.050781 13.410156 10.125 12.496094 L 10.878906 3.886719 C 10.9375 3.1875 10.402344 2.585938 9.703125 2.554688 Z M 9.703125 2.554688 "/>
</g>
</svg>
