<?xml version="1.0" encoding="UTF-8"?>
<svg xmlns="http://www.w3.org/2000/svg" xmlns:xlink="http://www.w3.org/1999/xlink" width="32" height="32" viewBox="0 0 32 32" version="1.1">
<g id="surface1">
<path style=" stroke:none;fill-rule:nonzero;fill:rgb(0%,0%,0%);fill-opacity:1;" d="M 22.039062 23.375 L 26.667969 28 L 4 28 L 4 5.332031 L 18.222656 5.332031 L 18.222656 5.34375 C 18.429688 5.332031 18.640625 5.328125 18.847656 5.332031 C 18.730469 5.828125 18.667969 6.347656 18.667969 6.886719 C 18.667969 9.980469 21.351562 12.667969 24.890625 12.667969 C 25.855469 12.667969 26.78125 12.402344 27.597656 11.949219 C 29.019531 16.625 26.597656 21.605469 22.039062 23.371094 Z M 24.667969 10 C 22.824219 10 21.332031 8.507812 21.332031 6.667969 C 21.332031 4.824219 22.824219 3.332031 24.667969 3.332031 C 26.507812 3.332031 28 4.824219 28 6.667969 C 28 8.507812 26.507812 10 24.667969 10 Z M 24.667969 10 "/>
</g>
</svg>
