<?xml version="1.0" encoding="UTF-8"?>
<svg xmlns="http://www.w3.org/2000/svg" xmlns:xlink="http://www.w3.org/1999/xlink" width="32" height="32" viewBox="0 0 32 32" version="1.1">
<g id="surface1">
<path style=" stroke:none;fill-rule:nonzero;fill:rgb(0%,0%,0%);fill-opacity:1;" d="M 8.484375 8 L 20.199219 20.882812 L 21.15625 20.507812 C 23.402344 19.625 24.976562 17.632812 25.28125 15.3125 C 20.785156 15.628906 16.796875 12.453125 16.101562 8 Z M 18.667969 6.667969 C 18.667969 8.800781 19.800781 10.773438 21.640625 11.847656 C 23.484375 12.925781 25.761719 12.941406 27.617188 11.890625 C 27.867188 12.714844 28 13.585938 28 14.488281 C 28 18.339844 25.570312 21.636719 22.132812 22.988281 L 26.667969 28 L 4 28 L 4 5.332031 L 18.816406 5.332031 C 18.714844 5.769531 18.667969 6.21875 18.667969 6.667969 Z M 24.667969 10 C 22.824219 10 21.332031 8.507812 21.332031 6.667969 C 21.332031 4.824219 22.824219 3.332031 24.667969 3.332031 C 26.507812 3.332031 28 4.824219 28 6.667969 C 28 8.507812 26.507812 10 24.667969 10 Z M 6.667969 9.960938 L 6.667969 25.332031 L 20.640625 25.332031 Z M 6.667969 9.960938 "/>
</g>
</svg>
