<?xml version="1.0" encoding="UTF-8"?>
<svg xmlns="http://www.w3.org/2000/svg" xmlns:xlink="http://www.w3.org/1999/xlink" width="32" height="32" viewBox="0 0 32 32" version="1.1">
<g id="surface1">
<path style=" stroke:none;fill-rule:nonzero;fill:rgb(0%,0%,0%);fill-opacity:1;" d="M 24 2.667969 C 24.738281 2.667969 25.332031 3.261719 25.332031 4 L 25.332031 28 C 25.332031 28.738281 24.738281 29.332031 24 29.332031 L 8 29.332031 C 7.261719 29.332031 6.667969 28.738281 6.667969 28 L 6.667969 4 C 6.667969 3.261719 7.261719 2.667969 8 2.667969 Z M 22.667969 5.332031 L 9.332031 5.332031 L 9.332031 26.667969 L 22.667969 26.667969 Z M 20 20 L 20 22.667969 L 17.332031 22.667969 L 17.332031 20 Z M 14.667969 20 L 14.667969 22.667969 L 12 22.667969 L 12 20 Z M 17.332031 8 L 17.332031 10.667969 L 20 10.667969 L 20 13.332031 L 17.332031 13.332031 L 17.332031 16 L 14.667969 16 L 14.664062 13.332031 L 12 13.332031 L 12 10.667969 L 14.667969 10.667969 L 14.667969 8 Z M 17.332031 8 "/>
</g>
</svg>
