<?xml version="1.0" encoding="UTF-8"?>
<svg xmlns="http://www.w3.org/2000/svg" xmlns:xlink="http://www.w3.org/1999/xlink" width="32" height="32" viewBox="0 0 32 32" version="1.1">
<g id="surface1">
<path style=" stroke:none;fill-rule:nonzero;fill:rgb(0%,0%,0%);fill-opacity:1;" d="M 14.667969 26.667969 L 1.332031 16 L 14.667969 5.332031 L 14.667969 12 C 22.03125 12 28 17.96875 28 25.332031 C 28 25.699219 27.988281 26.058594 27.957031 26.414062 C 26.007812 22.714844 22.183594 20.160156 17.75 20.007812 L 17.332031 20 L 14.667969 20 Z M 12 17.332031 L 17.378906 17.332031 L 17.839844 17.34375 C 19.554688 17.398438 21.207031 17.757812 22.742188 18.363281 C 20.785156 16.101562 17.894531 14.667969 14.667969 14.667969 L 12 14.667969 L 12 10.882812 L 5.601562 16 L 12 21.117188 Z M 12 17.332031 "/>
</g>
</svg>
