<?xml version="1.0" encoding="UTF-8"?>
<svg xmlns="http://www.w3.org/2000/svg" xmlns:xlink="http://www.w3.org/1999/xlink" width="32" height="32" viewBox="0 0 32 32" version="1.1">
<g id="surface1">
<path style=" stroke:none;fill-rule:nonzero;fill:rgb(0%,0%,0%);fill-opacity:1;" d="M 18.667969 6 L 18.667969 12 C 26.03125 12 32 17.96875 32 25.332031 C 32 25.699219 31.988281 26.058594 31.957031 26.414062 C 30.007812 22.714844 26.183594 20.160156 21.75 20.007812 L 21.332031 20 L 18.667969 20 L 18.667969 26 L 8 16 Z M 10.667969 6 L 10.667969 9.648438 L 3.894531 16 L 10.664062 22.347656 L 10.667969 26 L 0 16 Z M 16 12.15625 L 11.898438 16 L 16 19.84375 L 16 17.332031 L 21.378906 17.332031 L 21.839844 17.34375 C 23.554688 17.398438 25.207031 17.757812 26.742188 18.363281 C 24.785156 16.101562 21.894531 14.667969 18.667969 14.667969 L 16 14.667969 Z M 16 12.15625 "/>
</g>
</svg>
