<?xml version="1.0" encoding="UTF-8"?>
<svg xmlns="http://www.w3.org/2000/svg" xmlns:xlink="http://www.w3.org/1999/xlink" width="32" height="32" viewBox="0 0 32 32" version="1.1">
<g id="surface1">
<path style=" stroke:none;fill-rule:nonzero;fill:rgb(0%,0%,0%);fill-opacity:1;" d="M 24.714844 26.089844 C 22.296875 28.1875 19.203125 29.335938 16 29.332031 C 8.636719 29.332031 2.667969 23.363281 2.667969 16 C 2.667969 8.636719 8.636719 2.667969 16 2.667969 C 23.363281 2.667969 29.332031 8.636719 29.332031 16 C 29.332031 18.847656 28.441406 21.488281 26.921875 23.652344 L 22.667969 16 L 26.667969 16 C 26.667969 10.933594 23.097656 6.5625 18.132812 5.550781 C 13.167969 4.535156 8.175781 7.15625 6.1875 11.820312 C 4.199219 16.480469 5.769531 21.898438 9.9375 24.777344 C 14.109375 27.65625 19.730469 27.207031 23.386719 23.695312 Z M 24.714844 26.089844 "/>
</g>
</svg>
