<?xml version="1.0" encoding="UTF-8"?>
<svg xmlns="http://www.w3.org/2000/svg" xmlns:xlink="http://www.w3.org/1999/xlink" width="32" height="32" viewBox="0 0 32 32" version="1.1">
<g id="surface1">
<path style=" stroke:none;fill-rule:nonzero;fill:rgb(0%,0%,0%);fill-opacity:1;" d="M 19.023438 16.195312 L 17.886719 17.332031 L 27.3125 26.761719 L 25.429688 28.648438 L 16 19.21875 L 6.570312 28.648438 L 4.6875 26.761719 L 17.136719 14.308594 C 16.355469 12.367188 17.164062 9.570312 19.296875 7.433594 C 21.902344 4.832031 25.492188 4.199219 27.3125 6.019531 C 29.136719 7.84375 28.503906 11.429688 25.898438 14.035156 C 23.765625 16.167969 20.964844 16.980469 19.023438 16.195312 Z M 5.628906 5.078125 L 14.585938 14.035156 L 10.816406 17.804688 L 5.628906 12.617188 C 3.546875 10.535156 3.546875 7.160156 5.628906 5.078125 Z M 24.011719 12.148438 C 25.691406 10.46875 26.035156 8.511719 25.429688 7.902344 C 24.820312 7.296875 22.863281 7.640625 21.183594 9.316406 C 19.507812 10.996094 19.164062 12.953125 19.773438 13.5625 C 20.378906 14.167969 22.335938 13.824219 24.011719 12.148438 Z M 24.011719 12.148438 "/>
</g>
</svg>
