<?xml version="1.0" encoding="UTF-8"?>
<svg xmlns="http://www.w3.org/2000/svg" xmlns:xlink="http://www.w3.org/1999/xlink" width="32" height="32" viewBox="0 0 32 32" version="1.1">
<g id="surface1">
<path style=" stroke:none;fill-rule:nonzero;fill:rgb(0%,0%,0%);fill-opacity:1;" d="M 5.332031 8.191406 L 5.332031 25.289062 L 12.085938 22.394531 L 20.085938 26.394531 L 26.667969 23.574219 L 26.667969 6.476562 L 28.402344 5.730469 C 28.609375 5.644531 28.847656 5.664062 29.035156 5.789062 C 29.222656 5.910156 29.332031 6.121094 29.332031 6.34375 L 29.332031 25.332031 L 20 29.332031 L 12 25.332031 L 3.597656 28.933594 C 3.390625 29.023438 3.152344 29 2.964844 28.878906 C 2.777344 28.753906 2.667969 28.546875 2.667969 28.320312 L 2.667969 9.332031 Z M 21.65625 14.992188 L 16 20.648438 L 10.34375 14.992188 C 7.21875 11.867188 7.21875 6.800781 10.34375 3.675781 C 13.46875 0.554688 18.53125 0.554688 21.65625 3.675781 C 24.78125 6.800781 24.78125 11.867188 21.65625 14.992188 Z M 16 16.875 L 19.769531 13.105469 C 21.855469 11.019531 21.855469 7.644531 19.769531 5.5625 C 17.6875 3.476562 14.3125 3.476562 12.230469 5.5625 C 10.144531 7.644531 10.144531 11.019531 12.230469 13.105469 Z M 16 16.875 "/>
</g>
</svg>
