<?xml version="1.0" encoding="UTF-8"?>
<svg xmlns="http://www.w3.org/2000/svg" xmlns:xlink="http://www.w3.org/1999/xlink" width="32" height="32" viewBox="0 0 32 32" version="1.1">
<g id="surface1">
<path style=" stroke:none;fill-rule:nonzero;fill:rgb(0%,0%,0%);fill-opacity:1;" d="M 6.667969 17.332031 C 6.667969 10.550781 10.539062 4.753906 16 2.425781 C 21.460938 4.753906 25.332031 10.550781 25.332031 17.332031 C 25.332031 18.429688 25.230469 19.5 25.039062 20.539062 L 27.625 22.980469 C 27.847656 23.1875 27.898438 23.519531 27.753906 23.785156 L 24.425781 29.882812 C 24.324219 30.070312 24.144531 30.195312 23.9375 30.226562 C 23.726562 30.253906 23.519531 30.183594 23.371094 30.035156 L 20.390625 27.058594 C 20.140625 26.808594 19.800781 26.667969 19.449219 26.667969 L 12.550781 26.667969 C 12.199219 26.667969 11.859375 26.808594 11.609375 27.058594 L 8.628906 30.035156 C 8.480469 30.183594 8.273438 30.253906 8.0625 30.226562 C 7.855469 30.195312 7.675781 30.070312 7.574219 29.882812 L 4.246094 23.785156 C 4.101562 23.519531 4.152344 23.1875 4.375 22.980469 L 6.960938 20.539062 C 6.769531 19.5 6.667969 18.429688 6.667969 17.332031 Z M 8.632812 26.261719 L 9.722656 25.171875 C 10.472656 24.421875 11.492188 24 12.550781 24 L 19.449219 24 C 20.507812 24 21.527344 24.421875 22.277344 25.171875 L 23.367188 26.261719 L 24.675781 23.863281 L 23.207031 22.476562 C 22.550781 21.851562 22.25 20.9375 22.417969 20.046875 C 22.582031 19.164062 22.667969 18.253906 22.667969 17.332031 C 22.667969 12.171875 20.007812 7.601562 16 5.386719 C 11.992188 7.601562 9.332031 12.171875 9.332031 17.332031 C 9.332031 18.253906 9.417969 19.164062 9.582031 20.050781 C 9.75 20.941406 9.449219 21.855469 8.792969 22.476562 L 7.324219 23.863281 Z M 16 17.332031 C 14.527344 17.332031 13.332031 16.140625 13.332031 14.667969 C 13.332031 13.195312 14.527344 12 16 12 C 17.472656 12 18.667969 13.195312 18.667969 14.667969 C 18.667969 16.140625 17.472656 17.332031 16 17.332031 Z M 16 17.332031 "/>
</g>
</svg>
