<?xml version="1.0" encoding="UTF-8"?>
<svg xmlns="http://www.w3.org/2000/svg" xmlns:xlink="http://www.w3.org/1999/xlink" width="32" height="32" viewBox="0 0 32 32" version="1.1">
<g id="surface1">
<path style=" stroke:none;fill-rule:nonzero;fill:rgb(0%,0%,0%);fill-opacity:1;" d="M 5.332031 20 L 5.332031 11.332031 C 5.332031 8.019531 8.019531 5.332031 11.332031 5.332031 C 14.648438 5.332031 17.332031 8.019531 17.332031 11.332031 L 17.332031 20.667969 C 17.332031 22.507812 18.824219 24 20.667969 24 C 22.507812 24 24 22.507812 24 20.667969 L 24 11.773438 C 22.164062 11.125 21.058594 9.246094 21.390625 7.324219 C 21.71875 5.402344 23.382812 4 25.332031 4 C 27.28125 4 28.949219 5.402344 29.277344 7.324219 C 29.605469 9.246094 28.503906 11.125 26.667969 11.773438 L 26.667969 20.667969 C 26.667969 23.980469 23.980469 26.667969 20.667969 26.667969 C 17.351562 26.667969 14.667969 23.980469 14.667969 20.667969 L 14.667969 11.332031 C 14.667969 9.492188 13.175781 8 11.332031 8 C 9.492188 8 8 9.492188 8 11.332031 L 8 20 L 12 20 L 6.667969 26.667969 L 1.332031 20 Z M 25.332031 9.332031 C 26.070312 9.332031 26.667969 8.738281 26.667969 8 C 26.667969 7.261719 26.070312 6.667969 25.332031 6.667969 C 24.597656 6.667969 24 7.261719 24 8 C 24 8.738281 24.597656 9.332031 25.332031 9.332031 Z M 25.332031 9.332031 "/>
</g>
</svg>
