<?xml version="1.0" encoding="UTF-8"?>
<svg xmlns="http://www.w3.org/2000/svg" xmlns:xlink="http://www.w3.org/1999/xlink" width="32" height="32" viewBox="0 0 32 32" version="1.1">
<g id="surface1">
<path style=" stroke:none;fill-rule:nonzero;fill:rgb(0%,0%,0%);fill-opacity:1;" d="M 12.679688 0 C 11.308594 0 10.183594 1.140625 10.183594 2.507812 L 10.183594 29.503906 C 10.183594 30.871094 11.308594 32 12.679688 32 L 19.308594 32 C 20.675781 32 21.816406 30.871094 21.820312 29.503906 L 21.820312 26 L 16.578125 26 L 16.578125 24 L 21.820312 24 L 21.820312 20 L 16.578125 20 L 16.578125 18.148438 L 21.820312 18.148438 L 21.820312 14 L 16.578125 14 L 16.578125 12.148438 L 21.820312 12.148438 L 21.820312 8 L 16.578125 8 L 16.578125 6.007812 L 21.820312 6.007812 L 21.820312 2.507812 C 21.820312 1.140625 20.675781 0 19.308594 0 Z M 12.679688 0 "/>
</g>
</svg>
