<?xml version="1.0" encoding="UTF-8"?>
<svg xmlns="http://www.w3.org/2000/svg" xmlns:xlink="http://www.w3.org/1999/xlink" width="32" height="32" viewBox="0 0 32 32" version="1.1">
<g id="surface1">
<path style=" stroke:none;fill-rule:nonzero;fill:rgb(0%,0%,0%);fill-opacity:1;" d="M 6.570312 17.609375 L 9.398438 20.4375 L 11.285156 18.550781 L 8.457031 15.722656 L 11.285156 12.894531 L 15.058594 16.667969 L 16.941406 14.78125 L 13.171875 11.007812 L 16 8.179688 L 18.828125 11.007812 L 20.714844 9.125 L 17.886719 6.296875 L 21.65625 2.523438 C 22.179688 2.003906 23.023438 2.003906 23.542969 2.523438 L 30.144531 9.125 C 30.664062 9.644531 30.664062 10.488281 30.144531 11.007812 L 10.34375 30.808594 C 9.820312 31.328125 8.976562 31.328125 8.457031 30.808594 L 1.855469 24.210938 C 1.335938 23.6875 1.335938 22.84375 1.855469 22.324219 Z M 6.570312 17.609375 "/>
</g>
</svg>
