<?xml version="1.0" encoding="UTF-8"?>
<svg xmlns="http://www.w3.org/2000/svg" xmlns:xlink="http://www.w3.org/1999/xlink" width="32" height="32" viewBox="0 0 32 32" version="1.1">
<g id="surface1">
<path style=" stroke:none;fill-rule:nonzero;fill:rgb(0%,0%,0%);fill-opacity:1;" d="M 5.652344 0.246094 C 5.621094 0.246094 5.585938 0.25 5.554688 0.253906 C 5.332031 0.28125 5.121094 0.386719 4.964844 0.546875 L 0.960938 4.546875 C 0.582031 4.929688 0.574219 5.546875 0.945312 5.9375 L 7.625 12.960938 L 7.546875 13.039062 C 7.296875 13.289062 7.195312 13.652344 7.28125 13.996094 L 9.273438 21.984375 C 9.363281 22.347656 9.648438 22.632812 10.011719 22.722656 L 18.015625 24.714844 C 18.355469 24.796875 18.714844 24.695312 18.960938 24.449219 L 19.03125 24.378906 L 26.058594 31.136719 C 26.453125 31.519531 27.078125 31.511719 27.464844 31.121094 L 31.449219 27.136719 C 31.644531 26.949219 31.75 26.691406 31.75 26.421875 C 31.75 26.148438 31.644531 25.890625 31.449219 25.703125 L 24.453125 18.964844 L 27.964844 15.457031 C 28.253906 15.164062 28.335938 14.726562 28.171875 14.351562 L 25.175781 7.355469 C 25.074219 7.113281 24.882812 6.921875 24.644531 6.820312 L 17.644531 3.824219 C 17.5 3.765625 17.34375 3.738281 17.1875 3.75 C 16.941406 3.765625 16.710938 3.871094 16.539062 4.046875 L 13.039062 7.546875 L 6.394531 0.5625 C 6.203125 0.359375 5.933594 0.242188 5.652344 0.246094 Z M 5.652344 0.246094 "/>
<path style=" stroke:none;fill-rule:evenodd;fill:rgb(0%,0%,0%);fill-opacity:1;" d="M 13.40625 26.53125 C 13.417969 26.59375 13.425781 26.652344 13.429688 26.710938 C 13.433594 26.976562 13.335938 27.234375 13.152344 27.425781 C 12.972656 27.621094 12.71875 27.730469 12.453125 27.738281 C 10.332031 27.792969 8.277344 27.007812 6.742188 25.546875 C 5.203125 24.085938 4.3125 22.074219 4.257812 19.953125 C 4.246094 19.40625 4.671875 18.953125 5.21875 18.929688 C 5.484375 18.921875 5.742188 19.023438 5.933594 19.203125 C 6.125 19.386719 6.238281 19.640625 6.246094 19.90625 C 6.285156 21.496094 6.960938 22.996094 8.113281 24.09375 C 9.265625 25.191406 10.808594 25.777344 12.402344 25.738281 C 12.886719 25.722656 13.308594 26.058594 13.40625 26.53125 Z M 13.40625 26.53125 "/>
<path style=" stroke:none;fill-rule:evenodd;fill:rgb(0%,0%,0%);fill-opacity:1;" d="M 13.496094 30.539062 C 13.507812 30.597656 13.515625 30.65625 13.519531 30.71875 C 13.527344 30.984375 13.425781 31.242188 13.246094 31.433594 C 13.0625 31.625 12.808594 31.738281 12.542969 31.746094 C 9.363281 31.824219 6.285156 30.632812 3.980469 28.441406 C 1.671875 26.25 0.332031 23.222656 0.25 20.042969 C 0.246094 19.492188 0.679688 19.042969 1.230469 19.03125 C 1.773438 19.027344 2.21875 19.453125 2.238281 19.996094 C 2.304688 22.648438 3.429688 25.160156 5.351562 26.988281 C 7.273438 28.816406 9.839844 29.8125 12.492188 29.742188 C 12.976562 29.730469 13.398438 30.066406 13.496094 30.539062 Z M 13.496094 30.539062 "/>
</g>
</svg>
