<?xml version="1.0" encoding="UTF-8"?>
<svg xmlns="http://www.w3.org/2000/svg" xmlns:xlink="http://www.w3.org/1999/xlink" width="32" height="32" viewBox="0 0 32 32" version="1.1">
<g id="surface1">
<path style=" stroke:none;fill-rule:nonzero;fill:rgb(0%,0%,0%);fill-opacity:1;" d="M 5.332031 4 L 24 4 L 27.609375 7.609375 C 27.859375 7.859375 28 8.199219 28 8.550781 L 28 26.667969 C 28 27.402344 27.402344 28 26.667969 28 L 5.332031 28 C 4.597656 28 4 27.402344 4 26.667969 L 4 5.332031 C 4 4.597656 4.597656 4 5.332031 4 Z M 9.332031 5.332031 L 9.332031 12 L 21.332031 12 L 21.332031 5.332031 Z M 8 16 L 8 25.332031 L 24 25.332031 L 24 16 Z M 17.332031 6.667969 L 20 6.667969 L 20 10.667969 L 17.332031 10.667969 Z M 17.332031 6.667969 "/>
</g>
</svg>
