<?xml version="1.0" encoding="UTF-8"?>
<svg xmlns="http://www.w3.org/2000/svg" xmlns:xlink="http://www.w3.org/1999/xlink" width="32" height="32" viewBox="0 0 32 32" version="1.1">
<g id="surface1">
<path style=" stroke:none;fill-rule:nonzero;fill:rgb(0%,0%,0%);fill-opacity:1;" d="M 16 18.828125 L 12.910156 21.917969 C 13.90625 24.265625 13.097656 26.996094 10.980469 28.421875 C 8.867188 29.847656 6.035156 29.574219 4.230469 27.769531 C 2.425781 25.964844 2.152344 23.132812 3.578125 21.019531 C 5.003906 18.902344 7.734375 18.09375 10.082031 19.089844 L 13.171875 16 L 5.613281 8.445312 C 4.570312 7.402344 4.570312 5.714844 5.613281 4.671875 L 6.558594 3.730469 L 16 13.171875 L 25.441406 3.730469 L 26.386719 4.671875 C 27.425781 5.714844 27.425781 7.402344 26.386719 8.445312 L 18.828125 16 L 21.914062 19.089844 C 24.265625 18.09375 26.992188 18.902344 28.421875 21.019531 C 29.847656 23.132812 29.574219 25.964844 27.769531 27.769531 C 25.964844 29.574219 23.132812 29.847656 21.015625 28.421875 C 18.898438 26.996094 18.089844 24.265625 19.089844 21.917969 Z M 8 26.667969 C 9.472656 26.667969 10.667969 25.472656 10.667969 24 C 10.667969 22.527344 9.472656 21.332031 8 21.332031 C 6.527344 21.332031 5.332031 22.527344 5.332031 24 C 5.332031 25.472656 6.527344 26.667969 8 26.667969 Z M 24 26.667969 C 25.472656 26.667969 26.667969 25.472656 26.667969 24 C 26.667969 22.527344 25.472656 21.332031 24 21.332031 C 22.527344 21.332031 21.332031 22.527344 21.332031 24 C 21.332031 25.472656 22.527344 26.667969 24 26.667969 Z M 24 26.667969 "/>
</g>
</svg>
