<?xml version="1.0" encoding="UTF-8"?>
<svg xmlns="http://www.w3.org/2000/svg" xmlns:xlink="http://www.w3.org/1999/xlink" width="32" height="32" viewBox="0 0 32 32" version="1.1">
<g id="surface1">
<path style=" stroke:none;fill-rule:nonzero;fill:rgb(0%,0%,0%);fill-opacity:1;" d="M 12.59375 10.710938 L 16 14.113281 L 24.96875 5.144531 C 26.011719 4.101562 27.699219 4.101562 28.742188 5.144531 L 12.59375 21.289062 C 13.957031 23.605469 13.390625 26.570312 11.265625 28.214844 C 9.144531 29.859375 6.128906 29.667969 4.230469 27.769531 C 2.332031 25.871094 2.140625 22.855469 3.785156 20.734375 C 5.429688 18.609375 8.394531 18.042969 10.710938 19.40625 L 14.113281 16 L 10.710938 12.59375 C 8.394531 13.957031 5.429688 13.390625 3.785156 11.265625 C 2.140625 9.144531 2.332031 6.128906 4.230469 4.230469 C 6.128906 2.332031 9.144531 2.140625 11.265625 3.785156 C 13.390625 5.429688 13.957031 8.394531 12.59375 10.710938 Z M 19.769531 17.882812 L 28.742188 26.855469 C 27.699219 27.898438 26.011719 27.898438 24.96875 26.855469 L 17.882812 19.769531 Z M 9.886719 22.113281 C 9.214844 21.421875 8.222656 21.144531 7.292969 21.386719 C 6.359375 21.632812 5.632812 22.359375 5.386719 23.292969 C 5.144531 24.222656 5.421875 25.214844 6.113281 25.886719 C 7.160156 26.894531 8.824219 26.882812 9.851562 25.851562 C 10.882812 24.824219 10.894531 23.160156 9.886719 22.113281 Z M 9.886719 9.886719 C 10.578125 9.214844 10.855469 8.222656 10.613281 7.292969 C 10.367188 6.359375 9.640625 5.632812 8.707031 5.386719 C 7.777344 5.144531 6.785156 5.421875 6.113281 6.113281 C 5.105469 7.160156 5.117188 8.824219 6.148438 9.851562 C 7.175781 10.882812 8.839844 10.894531 9.886719 9.886719 Z M 9.886719 9.886719 "/>
</g>
</svg>
