<?xml version="1.0" encoding="UTF-8"?>
<svg xmlns="http://www.w3.org/2000/svg" xmlns:xlink="http://www.w3.org/1999/xlink" width="32" height="32" viewBox="0 0 32 32" version="1.1">
<g id="surface1">
<path style=" stroke:none;fill-rule:nonzero;fill:rgb(0%,0%,0%);fill-opacity:1;" d="M 4 4 L 6.667969 4 L 6.667969 6.667969 L 4 6.667969 Z M 9.332031 4 L 12 4 L 12 6.667969 L 9.332031 6.667969 Z M 14.667969 4 L 17.332031 4 L 17.332031 6.667969 L 14.667969 6.667969 Z M 20 4 L 22.667969 4 L 22.667969 6.667969 L 20 6.667969 Z M 25.332031 4 L 28 4 L 28 6.667969 L 25.332031 6.667969 Z M 25.332031 9.332031 L 28 9.332031 L 28 12 L 25.332031 12 Z M 4 25.332031 L 6.667969 25.332031 L 6.667969 28 L 4 28 Z M 4 20 L 6.667969 20 L 6.667969 22.667969 L 4 22.667969 Z M 4 14.667969 L 6.667969 14.667969 L 6.667969 17.332031 L 4 17.332031 Z M 4 9.332031 L 6.667969 9.332031 L 6.667969 12 L 4 12 Z M 14.222656 14.667969 L 15.605469 12.59375 C 15.851562 12.222656 16.269531 12 16.714844 12 L 20.621094 12 C 21.066406 12 21.480469 12.222656 21.730469 12.59375 L 23.109375 14.667969 L 26.667969 14.667969 C 27.402344 14.667969 28 15.261719 28 16 L 28 26.667969 C 28 27.402344 27.402344 28 26.667969 28 L 10.667969 28 C 9.929688 28 9.332031 27.402344 9.332031 26.667969 L 9.332031 16 C 9.332031 15.261719 9.929688 14.667969 10.667969 14.667969 Z M 12 25.332031 L 25.332031 25.332031 L 25.332031 17.332031 L 21.683594 17.332031 L 19.90625 14.667969 L 17.425781 14.667969 L 15.648438 17.332031 L 12 17.332031 Z M 18.667969 24 C 17.195312 24 16 22.804688 16 21.332031 C 16 19.859375 17.195312 18.667969 18.667969 18.667969 C 20.140625 18.667969 21.332031 19.859375 21.332031 21.332031 C 21.332031 22.804688 20.140625 24 18.667969 24 Z M 18.667969 24 "/>
</g>
</svg>
