<?xml version="1.0" encoding="UTF-8"?>
<svg xmlns="http://www.w3.org/2000/svg" xmlns:xlink="http://www.w3.org/1999/xlink" width="32" height="32" viewBox="0 0 32 32" version="1.1">
<g id="surface1">
<path style=" stroke:none;fill-rule:nonzero;fill:rgb(0%,0%,0%);fill-opacity:1;" d="M 5.722656 8.941406 L 12 2.667969 L 25.332031 2.667969 C 26.070312 2.667969 26.667969 3.261719 26.667969 4 L 26.667969 28 C 26.667969 28.738281 26.070312 29.332031 25.332031 29.332031 L 6.667969 29.332031 C 5.929688 29.332031 5.332031 28.738281 5.332031 28 L 5.332031 9.886719 C 5.332031 9.53125 5.472656 9.191406 5.722656 8.941406 Z M 20 6.667969 L 20 12 L 22.667969 12 L 22.667969 6.667969 Z M 16 6.667969 L 16 12 L 18.667969 12 L 18.667969 6.667969 Z M 12 6.667969 L 12 12 L 14.667969 12 L 14.667969 6.667969 Z M 12 6.667969 "/>
</g>
</svg>
