<?xml version="1.0" encoding="UTF-8"?>
<svg xmlns="http://www.w3.org/2000/svg" xmlns:xlink="http://www.w3.org/1999/xlink" width="32" height="32" viewBox="0 0 32 32" version="1.1">
<g id="surface1">
<path style=" stroke:none;fill-rule:nonzero;fill:rgb(0%,0%,0%);fill-opacity:1;" d="M 24.042969 22.15625 L 29.753906 27.867188 L 27.867188 29.753906 L 22.15625 24.042969 C 20.03125 25.746094 17.390625 26.671875 14.667969 26.667969 C 8.042969 26.667969 2.667969 21.289062 2.667969 14.667969 C 2.667969 8.042969 8.042969 2.667969 14.667969 2.667969 C 21.289062 2.667969 26.667969 8.042969 26.667969 14.667969 C 26.671875 17.390625 25.746094 20.03125 24.042969 22.15625 Z M 21.367188 21.167969 C 23.058594 19.425781 24.003906 17.09375 24 14.667969 C 24 9.507812 19.824219 5.332031 14.667969 5.332031 C 9.507812 5.332031 5.332031 9.507812 5.332031 14.667969 C 5.332031 19.824219 9.507812 24 14.667969 24 C 17.09375 24.003906 19.425781 23.058594 21.167969 21.367188 Z M 16.238281 9.566406 C 15.15625 10.054688 14.527344 11.199219 14.695312 12.375 C 14.863281 13.546875 15.785156 14.472656 16.960938 14.636719 C 18.132812 14.804688 19.277344 14.175781 19.765625 13.097656 C 20.488281 15.4375 19.519531 17.96875 17.417969 19.234375 C 15.320312 20.5 12.628906 20.167969 10.898438 18.4375 C 9.164062 16.703125 8.835938 14.011719 10.097656 11.914062 C 11.363281 9.816406 13.894531 8.847656 16.238281 9.566406 Z M 16.238281 9.566406 "/>
</g>
</svg>
