<?xml version="1.0" encoding="UTF-8"?>
<svg xmlns="http://www.w3.org/2000/svg" xmlns:xlink="http://www.w3.org/1999/xlink" width="32" height="32" viewBox="0 0 32 32" version="1.1">
<g id="surface1">
<path style=" stroke:none;fill-rule:nonzero;fill:rgb(0%,0%,0%);fill-opacity:1;" d="M 24.042969 22.15625 L 29.753906 27.867188 L 27.867188 29.753906 L 22.15625 24.042969 C 20.03125 25.746094 17.390625 26.671875 14.667969 26.667969 C 8.042969 26.667969 2.667969 21.289062 2.667969 14.667969 C 2.667969 8.042969 8.042969 2.667969 14.667969 2.667969 C 21.289062 2.667969 26.667969 8.042969 26.667969 14.667969 C 26.671875 17.390625 25.746094 20.03125 24.042969 22.15625 Z M 16.238281 9.570312 C 13.894531 8.847656 11.363281 9.816406 10.097656 11.914062 C 8.835938 14.015625 9.164062 16.703125 10.898438 18.4375 C 12.628906 20.171875 15.320312 20.5 17.417969 19.234375 C 19.519531 17.972656 20.488281 15.4375 19.765625 13.097656 C 19.277344 14.175781 18.132812 14.804688 16.960938 14.636719 C 15.785156 14.46875 14.863281 13.546875 14.695312 12.375 C 14.527344 11.199219 15.15625 10.054688 16.238281 9.566406 Z M 16.238281 9.570312 "/>
</g>
</svg>
