<?xml version="1.0" encoding="UTF-8"?>
<svg xmlns="http://www.w3.org/2000/svg" xmlns:xlink="http://www.w3.org/1999/xlink" width="32" height="32" viewBox="0 0 32 32" version="1.1">
<g id="surface1">
<path style=" stroke:none;fill-rule:evenodd;fill:rgb(0%,0%,0%);fill-opacity:1;" d="M 8 2 C 4.675781 2 2 4.675781 2 8 L 2 24 C 2 27.324219 4.675781 30 8 30 L 24 30 C 27.324219 30 30 27.324219 30 24 L 30 8 C 30 4.675781 27.324219 2 24 2 Z M 6 6 L 8 6 L 8 14 L 6 14 Z M 10 6 L 12 6 L 12 14 L 10 14 Z M 14 6 L 16 6 L 16 14 L 14 14 Z M 14 6 "/>
</g>
</svg>
