<?xml version="1.0" encoding="UTF-8"?>
<svg xmlns="http://www.w3.org/2000/svg" xmlns:xlink="http://www.w3.org/1999/xlink" width="32" height="32" viewBox="0 0 32 32" version="1.1">
<g id="surface1">
<path style=" stroke:none;fill-rule:evenodd;fill:rgb(0%,0%,0%);fill-opacity:1;" d="M 20 16.007812 C 20 18.214844 18.207031 20.007812 16 20.007812 C 13.789062 20.007812 12 18.214844 12 16.007812 C 12 13.796875 13.789062 12.007812 16 12.007812 C 18.207031 12.007812 20 13.796875 20 16.007812 "/>
<path style=" stroke:none;fill-rule:evenodd;fill:rgb(0%,0%,0%);fill-opacity:1;" d="M 11.871094 10.484375 C 11.835938 10.433594 11.796875 10.386719 11.753906 10.34375 C 11.566406 10.15625 11.3125 10.050781 11.046875 10.050781 C 10.78125 10.050781 10.527344 10.15625 10.339844 10.34375 C 8.839844 11.84375 7.992188 13.871094 7.992188 15.992188 C 7.992188 18.117188 8.835938 20.148438 10.335938 21.648438 C 10.523438 21.835938 10.777344 21.941406 11.042969 21.941406 C 11.308594 21.941406 11.566406 21.835938 11.753906 21.648438 C 11.941406 21.460938 12.046875 21.207031 12.046875 20.941406 C 12.046875 20.675781 11.941406 20.421875 11.753906 20.234375 C 10.628906 19.109375 9.992188 17.589844 9.992188 16 C 9.992188 14.40625 10.621094 12.871094 11.746094 11.746094 C 12.085938 11.410156 12.136719 10.878906 11.871094 10.484375 Z M 11.871094 10.484375 "/>
<path style=" stroke:none;fill-rule:evenodd;fill:rgb(0%,0%,0%);fill-opacity:1;" d="M 9.039062 7.648438 C 9.007812 7.601562 8.96875 7.554688 8.925781 7.511719 C 8.738281 7.324219 8.484375 7.21875 8.21875 7.21875 C 7.953125 7.21875 7.699219 7.324219 7.511719 7.511719 C 5.261719 9.761719 3.992188 12.820312 3.992188 16.003906 C 3.992188 19.183594 5.253906 22.226562 7.503906 24.476562 C 7.691406 24.664062 7.945312 24.769531 8.210938 24.769531 C 8.476562 24.769531 8.730469 24.664062 8.917969 24.476562 C 9.109375 24.289062 9.214844 24.035156 9.214844 23.769531 C 9.214844 23.503906 9.109375 23.25 8.921875 23.0625 C 7.042969 21.1875 5.996094 18.640625 5.996094 15.988281 C 5.996094 13.335938 7.050781 10.800781 8.925781 8.925781 C 9.265625 8.585938 9.316406 8.046875 9.039062 7.648438 Z M 9.039062 7.648438 "/>
<path style=" stroke:none;fill-rule:evenodd;fill:rgb(0%,0%,0%);fill-opacity:1;" d="M 6.210938 4.816406 C 6.175781 4.765625 6.140625 4.71875 6.097656 4.679688 C 5.910156 4.488281 5.65625 4.382812 5.390625 4.382812 C 5.125 4.382812 4.871094 4.488281 4.679688 4.675781 C 1.679688 7.675781 -0.00390625 11.746094 -0.00390625 15.992188 C -0.00390625 20.234375 1.679688 24.316406 4.679688 27.320312 C 4.867188 27.507812 5.121094 27.613281 5.386719 27.613281 C 5.652344 27.613281 5.90625 27.507812 6.09375 27.320312 C 6.28125 27.132812 6.386719 26.878906 6.386719 26.613281 C 6.386719 26.347656 6.28125 26.089844 6.09375 25.902344 C 3.46875 23.277344 1.996094 19.710938 1.996094 15.996094 C 1.996094 12.285156 3.46875 8.71875 6.097656 6.09375 C 6.4375 5.75 6.488281 5.214844 6.210938 4.816406 Z M 6.210938 4.816406 "/>
<path style=" stroke:none;fill-rule:evenodd;fill:rgb(0%,0%,0%);fill-opacity:1;" d="M 20.117188 10.488281 C 20.152344 10.4375 20.191406 10.390625 20.230469 10.347656 C 20.417969 10.160156 20.675781 10.054688 20.941406 10.054688 C 21.203125 10.054688 21.460938 10.160156 21.648438 10.347656 C 23.148438 11.847656 23.992188 13.875 23.992188 15.996094 C 23.992188 18.117188 23.148438 20.152344 21.648438 21.652344 C 21.261719 22.035156 20.640625 22.039062 20.246094 21.660156 C 20.058594 21.472656 19.953125 21.21875 19.953125 20.953125 C 19.953125 20.6875 20.058594 20.433594 20.246094 20.242188 C 21.371094 19.117188 21.996094 17.59375 21.996094 16.003906 C 21.996094 14.410156 21.359375 12.890625 20.234375 11.761719 C 19.890625 11.421875 19.84375 10.882812 20.117188 10.488281 Z M 20.117188 10.488281 "/>
<path style=" stroke:none;fill-rule:evenodd;fill:rgb(0%,0%,0%);fill-opacity:1;" d="M 22.960938 7.660156 C 22.992188 7.609375 23.03125 7.566406 23.074219 7.523438 C 23.261719 7.335938 23.515625 7.226562 23.78125 7.226562 C 24.046875 7.226562 24.300781 7.332031 24.488281 7.519531 C 26.738281 9.769531 27.996094 12.824219 27.996094 16.007812 C 27.996094 19.1875 26.726562 22.242188 24.476562 24.492188 C 24.082031 24.875 23.453125 24.871094 23.066406 24.480469 C 22.691406 24.089844 22.691406 23.472656 23.070312 23.085938 C 24.949219 21.210938 25.996094 18.664062 25.996094 16.011719 C 25.996094 13.359375 24.949219 10.8125 23.074219 8.9375 C 22.734375 8.597656 22.683594 8.058594 22.960938 7.660156 Z M 22.960938 7.660156 "/>
<path style=" stroke:none;fill-rule:evenodd;fill:rgb(0%,0%,0%);fill-opacity:1;" d="M 25.78125 4.839844 C 25.816406 4.785156 25.859375 4.734375 25.902344 4.6875 C 26.089844 4.5 26.34375 4.394531 26.609375 4.394531 C 26.875 4.394531 27.128906 4.5 27.320312 4.6875 C 30.320312 7.6875 32.003906 11.757812 32.003906 16.003906 C 32.003906 20.246094 30.308594 24.320312 27.308594 27.320312 C 27.121094 27.511719 26.867188 27.617188 26.601562 27.617188 C 26.335938 27.617188 26.082031 27.511719 25.894531 27.324219 C 25.707031 27.136719 25.601562 26.882812 25.597656 26.617188 C 25.597656 26.351562 25.703125 26.09375 25.894531 25.90625 C 28.519531 23.28125 30.003906 19.722656 30.003906 16.007812 C 30.003906 12.292969 28.53125 8.730469 25.902344 6.105469 C 25.566406 5.765625 25.515625 5.238281 25.78125 4.839844 Z M 25.78125 4.839844 "/>
</g>
</svg>
