<?xml version="1.0" encoding="UTF-8"?>
<svg xmlns="http://www.w3.org/2000/svg" xmlns:xlink="http://www.w3.org/1999/xlink" width="32" height="32" viewBox="0 0 32 32" version="1.1">
<g id="surface1">
<path style=" stroke:none;fill-rule:nonzero;fill:rgb(0%,0%,0%);fill-opacity:1;" d="M 2.84375 18.171875 C 2.601562 16.734375 2.601562 15.265625 2.84375 13.828125 C 4.3125 13.863281 5.632812 13.15625 6.144531 11.917969 C 6.660156 10.679688 6.222656 9.246094 5.160156 8.234375 C 6.007812 7.046875 7.046875 6.007812 8.234375 5.160156 C 9.246094 6.222656 10.679688 6.660156 11.917969 6.144531 C 13.160156 5.632812 13.863281 4.3125 13.824219 2.84375 C 15.265625 2.601562 16.734375 2.601562 18.175781 2.84375 C 18.136719 4.3125 18.84375 5.632812 20.082031 6.144531 C 21.320312 6.660156 22.753906 6.222656 23.765625 5.160156 C 24.953125 6.007812 25.992188 7.046875 26.839844 8.234375 C 25.777344 9.246094 25.339844 10.679688 25.855469 11.917969 C 26.367188 13.160156 27.6875 13.863281 29.15625 13.824219 C 29.398438 15.265625 29.398438 16.734375 29.15625 18.175781 C 27.6875 18.136719 26.367188 18.84375 25.855469 20.082031 C 25.339844 21.320312 25.777344 22.753906 26.839844 23.765625 C 25.992188 24.953125 24.953125 25.992188 23.765625 26.839844 C 22.753906 25.777344 21.320312 25.339844 20.082031 25.855469 C 18.839844 26.367188 18.136719 27.6875 18.175781 29.15625 C 16.734375 29.398438 15.265625 29.398438 13.824219 29.15625 C 13.863281 27.6875 13.15625 26.367188 11.917969 25.855469 C 10.679688 25.339844 9.246094 25.777344 8.234375 26.839844 C 7.046875 25.992188 6.007812 24.953125 5.160156 23.765625 C 6.222656 22.753906 6.660156 21.320312 6.144531 20.082031 C 5.632812 18.839844 4.3125 18.136719 2.84375 18.175781 Z M 16 20 C 18.210938 20 20 18.210938 20 16 C 20 13.789062 18.210938 12 16 12 C 13.789062 12 12 13.789062 12 16 C 12 18.210938 13.789062 20 16 20 Z M 16 20 "/>
</g>
</svg>
