<?xml version="1.0" encoding="UTF-8"?>
<svg xmlns="http://www.w3.org/2000/svg" xmlns:xlink="http://www.w3.org/1999/xlink" width="32" height="32" viewBox="0 0 32 32" version="1.1">
<g id="surface1">
<path style=" stroke:none;fill-rule:nonzero;fill:rgb(0%,0%,0%);fill-opacity:1;" d="M 2.949219 18.746094 C 2.566406 16.9375 2.566406 15.0625 2.949219 13.253906 C 4.429688 13.425781 5.722656 12.9375 6.144531 11.917969 C 6.566406 10.898438 6 9.636719 4.832031 8.714844 C 5.839844 7.164062 7.164062 5.839844 8.714844 4.832031 C 9.636719 6 10.898438 6.566406 11.917969 6.144531 C 12.9375 5.722656 13.429688 4.429688 13.253906 2.949219 C 15.0625 2.566406 16.9375 2.566406 18.746094 2.949219 C 18.574219 4.429688 19.0625 5.722656 20.082031 6.144531 C 21.101562 6.566406 22.363281 6 23.285156 4.832031 C 24.835938 5.839844 26.160156 7.164062 27.167969 8.714844 C 26 9.636719 25.433594 10.898438 25.855469 11.917969 C 26.277344 12.9375 27.570312 13.429688 29.050781 13.253906 C 29.433594 15.0625 29.433594 16.9375 29.050781 18.746094 C 27.570312 18.574219 26.277344 19.0625 25.855469 20.082031 C 25.433594 21.101562 26 22.363281 27.167969 23.285156 C 26.160156 24.835938 24.835938 26.160156 23.285156 27.167969 C 22.363281 26 21.101562 25.433594 20.082031 25.855469 C 19.0625 26.277344 18.570312 27.570312 18.746094 29.050781 C 16.9375 29.433594 15.0625 29.433594 13.253906 29.050781 C 13.425781 27.570312 12.9375 26.277344 11.917969 25.855469 C 10.898438 25.433594 9.636719 26 8.714844 27.167969 C 7.164062 26.160156 5.839844 24.835938 4.832031 23.285156 C 6 22.363281 6.566406 21.101562 6.144531 20.082031 C 5.722656 19.0625 4.429688 18.570312 2.949219 18.746094 Z M 5.332031 16.28125 C 6.800781 16.6875 8.007812 17.617188 8.609375 19.0625 C 9.207031 20.507812 9.007812 22.019531 8.261719 23.34375 C 8.386719 23.480469 8.519531 23.613281 8.65625 23.738281 C 9.980469 22.992188 11.492188 22.792969 12.9375 23.390625 C 14.382812 23.992188 15.3125 25.199219 15.71875 26.667969 C 15.90625 26.671875 16.09375 26.671875 16.28125 26.667969 C 16.6875 25.199219 17.617188 23.992188 19.0625 23.390625 C 20.507812 22.792969 22.019531 22.992188 23.34375 23.738281 C 23.480469 23.613281 23.613281 23.480469 23.738281 23.34375 C 22.992188 22.019531 22.792969 20.507812 23.390625 19.0625 C 23.992188 17.617188 25.199219 16.6875 26.667969 16.28125 C 26.671875 16.09375 26.671875 15.90625 26.667969 15.71875 C 25.199219 15.3125 23.992188 14.382812 23.390625 12.9375 C 22.792969 11.492188 22.992188 9.980469 23.738281 8.65625 C 23.613281 8.519531 23.480469 8.386719 23.34375 8.261719 C 22.019531 9.007812 20.507812 9.207031 19.0625 8.609375 C 17.617188 8.007812 16.6875 6.800781 16.28125 5.332031 C 16.09375 5.328125 15.90625 5.328125 15.71875 5.332031 C 15.3125 6.800781 14.382812 8.007812 12.9375 8.609375 C 11.492188 9.207031 9.980469 9.007812 8.65625 8.261719 C 8.519531 8.386719 8.386719 8.519531 8.261719 8.65625 C 9.007812 9.980469 9.207031 11.492188 8.609375 12.9375 C 8.007812 14.382812 6.800781 15.3125 5.332031 15.71875 C 5.328125 15.90625 5.328125 16.09375 5.332031 16.28125 Z M 16 20 C 13.789062 20 12 18.210938 12 16 C 12 13.789062 13.789062 12 16 12 C 18.210938 12 20 13.789062 20 16 C 20 18.210938 18.210938 20 16 20 Z M 16 17.332031 C 16.738281 17.332031 17.332031 16.738281 17.332031 16 C 17.332031 15.261719 16.738281 14.667969 16 14.667969 C 15.261719 14.667969 14.667969 15.261719 14.667969 16 C 14.667969 16.738281 15.261719 17.332031 16 17.332031 Z M 16 17.332031 "/>
</g>
</svg>
