<?xml version="1.0" encoding="UTF-8"?>
<svg xmlns="http://www.w3.org/2000/svg" xmlns:xlink="http://www.w3.org/1999/xlink" width="32" height="32" viewBox="0 0 32 32" version="1.1">
<g id="surface1">
<path style=" stroke:none;fill-rule:nonzero;fill:rgb(0%,0%,0%);fill-opacity:1;" d="M 17.492188 22.699219 L 11.894531 19.644531 C 10.398438 21.242188 8.078125 21.765625 6.042969 20.960938 C 4.003906 20.15625 2.667969 18.191406 2.667969 16 C 2.667969 13.8125 4.003906 11.84375 6.042969 11.039062 C 8.078125 10.234375 10.398438 10.757812 11.894531 12.355469 L 17.496094 9.304688 C 16.835938 6.699219 18.21875 4.011719 20.71875 3.03125 C 23.21875 2.050781 26.058594 3.082031 27.347656 5.441406 C 28.632812 7.796875 27.96875 10.742188 25.792969 12.320312 C 23.617188 13.894531 20.609375 13.605469 18.773438 11.644531 L 13.171875 14.699219 C 13.386719 15.550781 13.386719 16.449219 13.171875 17.300781 L 18.773438 20.355469 C 20.609375 18.394531 23.617188 18.105469 25.789062 19.679688 C 27.964844 21.257812 28.632812 24.203125 27.34375 26.558594 C 26.054688 28.917969 23.21875 29.949219 20.71875 28.96875 C 18.214844 27.988281 16.835938 25.300781 17.492188 22.695312 Z M 8 18.667969 C 9.472656 18.667969 10.667969 17.472656 10.667969 16 C 10.667969 14.527344 9.472656 13.332031 8 13.332031 C 6.527344 13.332031 5.332031 14.527344 5.332031 16 C 5.332031 17.472656 6.527344 18.667969 8 18.667969 Z M 22.667969 10.667969 C 24.140625 10.667969 25.332031 9.472656 25.332031 8 C 25.332031 6.527344 24.140625 5.332031 22.667969 5.332031 C 21.195312 5.332031 20 6.527344 20 8 C 20 9.472656 21.195312 10.667969 22.667969 10.667969 Z M 22.667969 26.667969 C 24.140625 26.667969 25.332031 25.472656 25.332031 24 C 25.332031 22.527344 24.140625 21.332031 22.667969 21.332031 C 21.195312 21.332031 20 22.527344 20 24 C 20 25.472656 21.195312 26.667969 22.667969 26.667969 Z M 22.667969 26.667969 "/>
</g>
</svg>
