<?xml version="1.0" encoding="UTF-8"?>
<svg xmlns="http://www.w3.org/2000/svg" xmlns:xlink="http://www.w3.org/1999/xlink" width="32" height="32" viewBox="0 0 32 32" version="1.1">
<g id="surface1">
<path style=" stroke:none;fill-rule:nonzero;fill:rgb(0%,0%,0%);fill-opacity:1;" d="M 16 1.332031 L 26.957031 3.769531 C 27.566406 3.902344 28 4.445312 28 5.070312 L 28 18.386719 C 28 21.058594 26.664062 23.558594 24.4375 25.042969 L 16 30.667969 L 7.5625 25.042969 C 5.335938 23.558594 4 21.0625 4 18.386719 L 4 5.070312 C 4 4.445312 4.433594 3.902344 5.042969 3.769531 Z M 16 9.332031 C 14.792969 9.332031 13.738281 10.144531 13.425781 11.308594 C 13.113281 12.476562 13.621094 13.707031 14.667969 14.308594 L 14.667969 20 L 17.332031 20 L 17.335938 14.308594 C 18.378906 13.707031 18.890625 12.476562 18.578125 11.308594 C 18.265625 10.144531 17.207031 9.332031 16 9.332031 Z M 16 9.332031 "/>
</g>
</svg>
