<?xml version="1.0" encoding="UTF-8"?>
<svg xmlns="http://www.w3.org/2000/svg" xmlns:xlink="http://www.w3.org/1999/xlink" width="32" height="32" viewBox="0 0 32 32" version="1.1">
<g id="surface1">
<path style=" stroke:none;fill-rule:nonzero;fill:rgb(0%,0%,0%);fill-opacity:1;" d="M 15.992188 0.460938 L 15.992188 0.464844 C 15.960938 0.464844 15.929688 0.46875 15.898438 0.46875 C 15.882812 0.472656 15.867188 0.476562 15.851562 0.476562 C 15.828125 0.480469 15.808594 0.480469 15.785156 0.484375 C 15.78125 0.488281 15.777344 0.488281 15.773438 0.488281 C 15.730469 0.496094 15.691406 0.503906 15.652344 0.519531 C 15.648438 0.519531 15.644531 0.523438 15.640625 0.523438 C 15.605469 0.539062 15.570312 0.554688 15.535156 0.570312 C 15.5 0.582031 15.464844 0.597656 15.433594 0.621094 C 15.429688 0.625 15.425781 0.621094 15.421875 0.625 C 15.417969 0.628906 15.414062 0.628906 15.410156 0.632812 C 15.378906 0.65625 15.347656 0.671875 15.320312 0.695312 C 15.308594 0.699219 15.292969 0.714844 15.28125 0.722656 C 15.257812 0.746094 15.234375 0.761719 15.214844 0.785156 C 15.1875 0.8125 15.164062 0.835938 15.140625 0.867188 C 15.117188 0.894531 15.09375 0.925781 15.070312 0.960938 C 15.070312 0.960938 15.066406 0.964844 15.066406 0.96875 C 15.0625 0.972656 15.0625 0.972656 15.058594 0.980469 C 15.058594 0.980469 15.054688 0.984375 15.054688 0.984375 C 13.394531 3.640625 11.652344 4.585938 9.605469 4.878906 C 7.558594 5.175781 5.125 4.683594 2.476562 4.039062 L 1.191406 3.730469 L 1.101562 5.058594 C 0.578125 13.816406 2.035156 19.667969 4.78125 23.71875 C 7.503906 27.742188 11.425781 29.871094 15.503906 31.425781 C 15.535156 31.441406 15.566406 31.457031 15.601562 31.472656 C 15.640625 31.488281 15.679688 31.503906 15.722656 31.511719 C 15.761719 31.519531 15.804688 31.527344 15.84375 31.535156 C 15.875 31.539062 15.910156 31.539062 15.941406 31.542969 C 15.96875 31.542969 16 31.546875 16.027344 31.546875 C 16.046875 31.546875 16.066406 31.542969 16.085938 31.542969 C 16.089844 31.542969 16.089844 31.542969 16.09375 31.542969 L 16.097656 31.542969 C 16.128906 31.539062 16.160156 31.535156 16.1875 31.527344 C 16.214844 31.519531 16.246094 31.511719 16.273438 31.503906 C 16.3125 31.496094 16.351562 31.488281 16.386719 31.472656 C 16.390625 31.472656 16.390625 31.46875 16.394531 31.46875 C 16.394531 31.46875 16.398438 31.464844 16.398438 31.464844 C 16.4375 31.449219 16.476562 31.433594 16.515625 31.410156 C 20.589844 29.855469 24.5 27.726562 27.21875 23.710938 C 29.964844 19.660156 31.421875 13.808594 30.898438 5.050781 L 30.824219 3.722656 L 29.523438 4.03125 C 26.875 4.675781 24.441406 5.167969 22.394531 4.875 C 20.347656 4.578125 18.605469 3.632812 16.945312 0.980469 C 16.941406 0.976562 16.941406 0.972656 16.9375 0.972656 C 16.9375 0.972656 16.9375 0.96875 16.9375 0.96875 C 16.894531 0.898438 16.84375 0.835938 16.785156 0.777344 C 16.785156 0.777344 16.78125 0.773438 16.78125 0.773438 C 16.753906 0.75 16.726562 0.71875 16.695312 0.695312 C 16.691406 0.695312 16.691406 0.691406 16.6875 0.6875 C 16.65625 0.667969 16.625 0.644531 16.589844 0.621094 C 16.519531 0.574219 16.445312 0.542969 16.367188 0.515625 C 16.339844 0.507812 16.308594 0.492188 16.277344 0.484375 C 16.265625 0.484375 16.257812 0.480469 16.246094 0.476562 C 16.246094 0.476562 16.242188 0.476562 16.242188 0.476562 C 16.238281 0.476562 16.234375 0.476562 16.226562 0.472656 C 16.152344 0.457031 16.078125 0.453125 16 0.453125 C 15.996094 0.453125 15.996094 0.453125 15.992188 0.453125 Z M 15.757812 8.398438 C 16.671875 8.371094 17.585938 8.511719 18.445312 8.800781 C 20.171875 9.386719 21.683594 10.582031 22.59375 12.242188 C 23.246094 13.382812 23.59375 14.679688 23.59375 15.992188 C 23.660156 19.707031 20.808594 23.015625 17.128906 23.507812 C 13.402344 24.132812 9.644531 21.710938 8.6875 18.050781 C 7.609375 14.429688 9.554688 10.410156 13.066406 9.007812 C 13.933594 8.628906 14.84375 8.429688 15.757812 8.398438 Z M 15.808594 10.820312 C 15.1875 10.828125 14.574219 10.953125 14.011719 11.203125 L 13.992188 11.207031 L 13.964844 11.222656 C 13.679688 11.335938 13.410156 11.476562 13.15625 11.644531 C 15.03125 13.773438 19.09375 17.476562 20.421875 18.679688 C 20.921875 17.875 21.21875 16.957031 21.199219 16.027344 L 21.199219 16.003906 C 21.199219 15.109375 20.953125 14.199219 20.507812 13.421875 L 20.503906 13.40625 L 20.496094 13.394531 C 19.90625 12.3125 18.847656 11.515625 17.65625 11.113281 C 17.058594 10.910156 16.429688 10.808594 15.808594 10.816406 Z M 11.5625 13.394531 C 10.863281 14.605469 10.589844 16.074219 10.988281 17.382812 L 10.996094 17.414062 L 11 17.4375 C 11.613281 19.824219 14.320312 21.574219 16.75 21.15625 L 16.777344 21.15625 L 16.796875 21.148438 C 17.445312 21.0625 18.066406 20.816406 18.628906 20.46875 Z M 11.5625 13.394531 "/>
</g>
</svg>
