<?xml version="1.0" encoding="UTF-8"?>
<svg xmlns="http://www.w3.org/2000/svg" xmlns:xlink="http://www.w3.org/1999/xlink" width="32" height="32" viewBox="0 0 32 32" version="1.1">
<g id="surface1">
<path style=" stroke:none;fill-rule:nonzero;fill:rgb(0%,0%,0%);fill-opacity:1;" d="M 16 1.332031 C 19.683594 1.332031 22.667969 4.316406 22.667969 8 L 22.667969 10.667969 L 26.667969 10.667969 C 27.402344 10.667969 28 11.261719 28 12 L 28 28 C 28 28.738281 27.402344 29.332031 26.667969 29.332031 L 5.332031 29.332031 C 4.597656 29.332031 4 28.738281 4 28 L 4 12 C 4 11.261719 4.597656 10.667969 5.332031 10.667969 L 9.332031 10.667969 L 9.332031 8 C 9.332031 4.316406 12.316406 1.332031 16 1.332031 Z M 22.667969 14.667969 L 20 14.667969 L 20 16 C 20 16.707031 20.550781 17.289062 21.253906 17.328125 C 21.960938 17.371094 22.574219 16.855469 22.65625 16.15625 L 22.667969 16 Z M 12 14.667969 L 9.332031 14.667969 L 9.332031 16 C 9.335938 16.707031 9.882812 17.289062 10.589844 17.328125 C 11.292969 17.371094 11.90625 16.855469 11.992188 16.15625 L 12 16 Z M 16 4 C 13.882812 4 12.132812 5.652344 12.007812 7.765625 L 12 8 L 12 10.667969 L 20 10.667969 L 20 8 C 20 5.882812 18.347656 4.132812 16.234375 4.007812 Z M 16 4 "/>
</g>
</svg>
