<?xml version="1.0" encoding="UTF-8"?>
<svg xmlns="http://www.w3.org/2000/svg" xmlns:xlink="http://www.w3.org/1999/xlink" width="32" height="32" viewBox="0 0 32 32" version="1.1">
<g id="surface1">
<path style=" stroke:none;fill-rule:nonzero;fill:rgb(0%,0%,0%);fill-opacity:1;" d="M 8.667969 2.667969 L 23.332031 2.667969 C 23.753906 2.667969 24.148438 2.863281 24.398438 3.199219 L 28 8 L 28 28 C 28 28.738281 27.402344 29.332031 26.667969 29.332031 L 5.332031 29.332031 C 4.597656 29.332031 4 28.738281 4 28 L 4 8 L 7.601562 3.199219 C 7.851562 2.863281 8.246094 2.667969 8.667969 2.667969 Z M 24.667969 8 L 22.667969 5.332031 L 9.332031 5.332031 L 7.332031 8 Z M 12 13.332031 L 9.332031 13.332031 L 9.332031 16 C 9.332031 19.683594 12.316406 22.667969 16 22.667969 C 19.683594 22.667969 22.667969 19.683594 22.667969 16 L 22.667969 13.332031 L 20 13.332031 L 20 16 C 20 18.210938 18.210938 20 16 20 C 13.789062 20 12 18.210938 12 16 Z M 12 13.332031 "/>
</g>
</svg>
