<?xml version="1.0" encoding="UTF-8"?>
<svg xmlns="http://www.w3.org/2000/svg" xmlns:xlink="http://www.w3.org/1999/xlink" width="32" height="32" viewBox="0 0 32 32" version="1.1">
<g id="surface1">
<path style=" stroke:none;fill-rule:nonzero;fill:rgb(0%,0%,0%);fill-opacity:1;" d="M 24 23.84375 L 24 21.332031 L 30.667969 25.332031 L 24 29.332031 L 24 26.546875 C 19.855469 25.953125 16.320312 23.242188 14.671875 19.394531 L 14.667969 19.386719 L 14.664062 19.394531 C 12.769531 23.804688 8.433594 26.667969 3.632812 26.667969 L 2.667969 26.667969 L 2.667969 24 L 3.632812 24 C 7.367188 24 10.742188 21.773438 12.210938 18.34375 L 13.214844 16 L 12.210938 13.65625 C 10.742188 10.226562 7.367188 8 3.632812 8 L 2.667969 8 L 2.667969 5.332031 L 3.632812 5.332031 C 8.433594 5.332031 12.773438 8.195312 14.664062 12.605469 L 14.667969 12.613281 L 14.671875 12.605469 C 16.320312 8.757812 19.855469 6.046875 24 5.453125 L 24 2.667969 L 30.667969 6.667969 L 24 10.667969 L 24 8.15625 C 20.929688 8.722656 18.351562 10.789062 17.121094 13.65625 L 16.117188 16 L 17.121094 18.34375 C 18.351562 21.210938 20.929688 23.277344 24 23.84375 Z M 24 23.84375 "/>
</g>
</svg>
