<?xml version="1.0" encoding="UTF-8"?>
<svg xmlns="http://www.w3.org/2000/svg" xmlns:xlink="http://www.w3.org/1999/xlink" width="32" height="32" viewBox="0 0 32 32" version="1.1">
<g id="surface1">
<path style=" stroke:none;fill-rule:nonzero;fill:rgb(0%,0%,0%);fill-opacity:1;" d="M 8.351562 5.074219 L 9.882812 7.261719 C 6.070312 9.929688 4.425781 14.765625 5.828125 19.207031 C 7.226562 23.648438 11.34375 26.667969 16 26.667969 C 20.65625 26.667969 24.773438 23.648438 26.171875 19.207031 C 27.574219 14.765625 25.929688 9.929688 22.117188 7.261719 L 23.648438 5.074219 C 27.214844 7.570312 29.335938 11.648438 29.332031 16 C 29.332031 23.363281 23.363281 29.332031 16 29.332031 C 8.636719 29.332031 2.667969 23.363281 2.667969 16 C 2.664062 11.648438 4.785156 7.570312 8.351562 5.074219 Z M 14.667969 16 L 14.667969 2.667969 L 17.332031 2.667969 L 17.332031 16 Z M 14.667969 16 "/>
</g>
</svg>
