<?xml version="1.0" encoding="UTF-8"?>
<svg xmlns="http://www.w3.org/2000/svg" xmlns:xlink="http://www.w3.org/1999/xlink" width="32" height="32" viewBox="0 0 32 32" version="1.1">
<g id="surface1">
<path style=" stroke:none;fill-rule:nonzero;fill:rgb(0%,0%,0%);fill-opacity:1;" d="M 0 1.992188 L 0 4 L 4 4 L 4 1.992188 Z M 0 1.992188 "/>
<path style=" stroke:none;fill-rule:nonzero;fill:rgb(0%,0%,0%);fill-opacity:1;" d="M 5.992188 1.992188 L 5.992188 4 L 9.996094 4 L 9.996094 1.992188 Z M 5.992188 1.992188 "/>
<path style=" stroke:none;fill-rule:nonzero;fill:rgb(0%,0%,0%);fill-opacity:1;" d="M 12.003906 1.992188 L 12.003906 4 L 16.003906 4 L 16.003906 1.992188 Z M 12.003906 1.992188 "/>
<path style=" stroke:none;fill-rule:nonzero;fill:rgb(0%,0%,0%);fill-opacity:1;" d="M 17.996094 1.992188 L 17.996094 4 L 21.996094 4 L 21.996094 1.992188 Z M 17.996094 1.992188 "/>
<path style=" stroke:none;fill-rule:nonzero;fill:rgb(0%,0%,0%);fill-opacity:1;" d="M 24.007812 1.992188 L 24.007812 4 L 28.007812 4 L 28.007812 1.992188 Z M 24.007812 1.992188 "/>
<path style=" stroke:none;fill-rule:nonzero;fill:rgb(0%,0%,0%);fill-opacity:1;" d="M 30 1.992188 L 30 4 L 31.992188 4 L 31.992188 1.992188 Z M 30 1.992188 "/>
<path style=" stroke:none;fill-rule:nonzero;fill:rgb(0%,0%,0%);fill-opacity:1;" d="M 0 28.007812 L 0 30 L 4 30 L 4 28.007812 Z M 0 28.007812 "/>
<path style=" stroke:none;fill-rule:nonzero;fill:rgb(0%,0%,0%);fill-opacity:1;" d="M 5.992188 28.007812 L 5.992188 30 L 9.996094 30 L 9.996094 28.007812 Z M 5.992188 28.007812 "/>
<path style=" stroke:none;fill-rule:nonzero;fill:rgb(0%,0%,0%);fill-opacity:1;" d="M 12.003906 28.007812 L 12.003906 30 L 16.003906 30 L 16.003906 28.007812 Z M 12.003906 28.007812 "/>
<path style=" stroke:none;fill-rule:nonzero;fill:rgb(0%,0%,0%);fill-opacity:1;" d="M 17.996094 28.007812 L 17.996094 30 L 21.996094 30 L 21.996094 28.007812 Z M 17.996094 28.007812 "/>
<path style=" stroke:none;fill-rule:nonzero;fill:rgb(0%,0%,0%);fill-opacity:1;" d="M 24.007812 28.007812 L 24.007812 30 L 28.007812 30 L 28.007812 28.007812 Z M 24.007812 28.007812 "/>
<path style=" stroke:none;fill-rule:nonzero;fill:rgb(0%,0%,0%);fill-opacity:1;" d="M 30 28.007812 L 30 30 L 31.992188 30 L 31.992188 28.007812 Z M 30 28.007812 "/>
<path style=" stroke:none;fill-rule:nonzero;fill:rgb(0%,0%,0%);fill-opacity:1;" d="M 29.925781 6.496094 C 28.910156 6.550781 27.964844 7.058594 27.355469 7.75 C 26.746094 8.441406 26.398438 9.261719 26.148438 10.128906 C 25.648438 11.859375 25.53125 13.867188 25.394531 15.828125 C 25.257812 17.789062 25.117188 19.714844 24.789062 20.980469 C 24.625 21.613281 24.40625 22.066406 24.242188 22.277344 C 24.078125 22.488281 24.050781 22.484375 23.859375 22.5 C 23.175781 22.5625 23.148438 22.480469 22.808594 21.910156 C 22.46875 21.339844 22.171875 20.246094 21.9375 19.03125 C 21.703125 17.816406 21.5 16.496094 21.082031 15.296875 C 20.871094 14.695312 20.609375 14.113281 20.152344 13.582031 C 19.695312 13.050781 18.980469 12.601562 18.1875 12.503906 C 16.871094 12.34375 15.628906 13.015625 14.941406 13.820312 C 14.253906 14.625 13.894531 15.511719 13.539062 16.3125 C 13.183594 17.113281 12.851562 17.832031 12.578125 18.1875 C 12.304688 18.542969 12.339844 18.515625 12.105469 18.5 C 11.980469 18.492188 11.957031 18.519531 11.679688 17.96875 C 11.402344 17.417969 11.121094 16.464844 10.808594 15.441406 C 10.496094 14.417969 10.152344 13.308594 9.449219 12.3125 C 8.746094 11.316406 7.464844 10.453125 5.964844 10.496094 C 4.226562 10.542969 2.941406 11.679688 1.875 12.960938 C 1.175781 13.800781 0.570312 14.78125 0 15.789062 L 0 22.894531 C 0.421875 21.78125 1.011719 20.320312 1.816406 18.707031 C 2.53125 17.273438 3.375 15.863281 4.191406 14.882812 C 5.007812 13.902344 5.746094 13.5 6.039062 13.492188 C 6.574219 13.476562 6.671875 13.582031 6.996094 14.039062 C 7.320312 14.496094 7.648438 15.347656 7.941406 16.3125 C 8.234375 17.277344 8.507812 18.339844 9.007812 19.324219 C 9.507812 20.308594 10.484375 21.394531 11.898438 21.496094 C 13.199219 21.589844 14.335938 20.816406 14.957031 20.003906 C 15.578125 19.191406 15.925781 18.316406 16.269531 17.539062 C 16.613281 16.761719 16.960938 16.085938 17.230469 15.769531 C 17.5 15.453125 17.46875 15.445312 17.820312 15.488281 C 17.859375 15.492188 17.796875 15.453125 17.878906 15.546875 C 17.960938 15.640625 18.125 15.894531 18.261719 16.285156 C 18.535156 17.066406 18.734375 18.316406 18.984375 19.605469 C 19.234375 20.894531 19.511719 22.246094 20.226562 23.445312 C 20.941406 24.644531 22.4375 25.652344 24.140625 25.496094 C 25.140625 25.40625 26.046875 24.835938 26.605469 24.125 C 27.164062 23.414062 27.457031 22.597656 27.683594 21.730469 C 28.132812 20 28.242188 17.984375 28.375 16.035156 C 28.507812 14.085938 28.671875 12.195312 29.027344 10.96875 C 29.203125 10.355469 29.429688 9.925781 29.601562 9.730469 C 29.773438 9.535156 29.820312 9.503906 30.074219 9.492188 C 30.738281 9.457031 31.230469 9.769531 31.859375 10.644531 C 31.90625 10.710938 31.953125 10.796875 32 10.871094 L 32 6.953125 C 31.367188 6.65625 30.683594 6.457031 29.925781 6.496094 Z M 29.925781 6.496094 "/>
</g>
</svg>
