<?xml version="1.0" encoding="UTF-8"?>
<svg xmlns="http://www.w3.org/2000/svg" xmlns:xlink="http://www.w3.org/1999/xlink" width="32" height="32" viewBox="0 0 32 32" version="1.1">
<g id="surface1">
<path style=" stroke:none;fill-rule:nonzero;fill:rgb(0%,0%,0%);fill-opacity:1;" d="M 10.667969 15.109375 L 24.296875 6.023438 C 24.5 5.886719 24.765625 5.875 24.980469 5.992188 C 25.199219 6.105469 25.332031 6.332031 25.332031 6.578125 L 25.332031 25.421875 C 25.332031 25.667969 25.199219 25.894531 24.980469 26.007812 C 24.765625 26.125 24.5 26.113281 24.296875 25.976562 L 10.667969 16.890625 L 10.667969 25.332031 C 10.667969 26.070312 10.070312 26.667969 9.332031 26.667969 C 8.597656 26.667969 8 26.070312 8 25.332031 L 8 6.667969 C 8 5.929688 8.597656 5.332031 9.332031 5.332031 C 10.070312 5.332031 10.667969 5.929688 10.667969 6.667969 Z M 10.667969 15.109375 "/>
</g>
</svg>
