<?xml version="1.0" encoding="UTF-8"?>
<svg xmlns="http://www.w3.org/2000/svg" xmlns:xlink="http://www.w3.org/1999/xlink" width="32" height="32" viewBox="0 0 32 32" version="1.1">
<g id="surface1">
<path style=" stroke:none;fill-rule:nonzero;fill:rgb(0%,0%,0%);fill-opacity:1;" d="M 17.746094 27.199219 C 14.171875 27.757812 10.542969 26.574219 7.984375 24.015625 C 5.425781 21.457031 4.242188 17.828125 4.800781 14.253906 C 3.375 11.539062 3.878906 8.214844 6.046875 6.046875 C 8.214844 3.878906 11.539062 3.375 14.253906 4.800781 C 17.828125 4.242188 21.457031 5.425781 24.015625 7.984375 C 26.574219 10.542969 27.757812 14.171875 27.199219 17.746094 C 28.625 20.460938 28.121094 23.785156 25.953125 25.953125 C 23.785156 28.121094 20.460938 28.625 17.746094 27.199219 Z M 16.070312 22.875 L 16.015625 22.875 C 19.84375 22.875 21.753906 21.027344 21.753906 18.550781 C 21.753906 16.953125 21.019531 15.257812 18.117188 14.605469 L 15.476562 14.019531 C 14.46875 13.789062 13.3125 13.488281 13.3125 12.535156 C 13.3125 11.578125 14.136719 10.914062 15.609375 10.914062 C 18.585938 10.914062 18.3125 12.953125 19.785156 12.953125 C 20.554688 12.953125 21.242188 12.496094 21.242188 11.714844 C 21.242188 9.886719 18.3125 8.511719 15.835938 8.511719 C 13.140625 8.511719 10.269531 9.660156 10.269531 12.707031 C 10.269531 14.167969 10.796875 15.730469 13.683594 16.457031 L 17.269531 17.351562 C 18.355469 17.621094 18.625 18.230469 18.625 18.78125 C 18.625 19.695312 17.714844 20.589844 16.070312 20.589844 C 12.847656 20.589844 13.296875 18.113281 11.570312 18.113281 C 10.796875 18.113281 10.234375 18.644531 10.234375 19.410156 C 10.234375 20.894531 12.035156 22.875 16.070312 22.875 Z M 16.070312 22.875 "/>
</g>
</svg>
