<?xml version="1.0" encoding="UTF-8"?>
<svg xmlns="http://www.w3.org/2000/svg" xmlns:xlink="http://www.w3.org/1999/xlink" width="32" height="32" viewBox="0 0 32 32" version="1.1">
<g id="surface1">
<path style=" stroke:none;fill-rule:nonzero;fill:rgb(0%,0%,0%);fill-opacity:1;" d="M 19.332031 4 C 20.4375 4 21.332031 4.894531 21.332031 6 L 21.332031 12.667969 C 21.332031 13.769531 20.4375 14.667969 19.332031 14.667969 C 18.230469 14.667969 17.332031 13.769531 17.332031 12.667969 L 17.332031 6 C 17.332031 4.894531 18.230469 4 19.332031 4 Z M 6 17.332031 L 8 17.332031 L 8 19.332031 C 8 20.4375 7.105469 21.332031 6 21.332031 C 4.894531 21.332031 4 20.4375 4 19.332031 C 4 18.230469 4.894531 17.332031 6 17.332031 Z M 17.332031 24 L 19.332031 24 C 20.4375 24 21.332031 24.894531 21.332031 26 C 21.332031 27.105469 20.4375 28 19.332031 28 C 18.230469 28 17.332031 27.105469 17.332031 26 Z M 19.332031 17.332031 L 26 17.332031 C 27.105469 17.332031 28 18.230469 28 19.332031 C 28 20.4375 27.105469 21.332031 26 21.332031 L 19.332031 21.332031 C 18.230469 21.332031 17.332031 20.4375 17.332031 19.332031 C 17.332031 18.230469 18.230469 17.332031 19.332031 17.332031 Z M 26 10.667969 C 27.105469 10.667969 28 11.5625 28 12.667969 C 28 13.769531 27.105469 14.667969 26 14.667969 L 24 14.667969 L 24 12.667969 C 24 11.5625 24.894531 10.667969 26 10.667969 Z M 6 10.667969 L 12.667969 10.667969 C 13.769531 10.667969 14.667969 11.5625 14.667969 12.667969 C 14.667969 13.769531 13.769531 14.667969 12.667969 14.667969 L 6 14.667969 C 4.894531 14.667969 4 13.769531 4 12.667969 C 4 11.5625 4.894531 10.667969 6 10.667969 Z M 12.667969 4 C 13.769531 4 14.667969 4.894531 14.667969 6 L 14.667969 8 L 12.667969 8 C 11.5625 8 10.667969 7.105469 10.667969 6 C 10.667969 4.894531 11.5625 4 12.667969 4 Z M 12.667969 17.332031 C 13.769531 17.332031 14.667969 18.230469 14.667969 19.332031 L 14.667969 26 C 14.667969 27.105469 13.769531 28 12.667969 28 C 11.5625 28 10.667969 27.105469 10.667969 26 L 10.667969 19.332031 C 10.667969 18.230469 11.5625 17.332031 12.667969 17.332031 Z M 12.667969 17.332031 "/>
</g>
</svg>
