<?xml version="1.0" encoding="UTF-8"?>
<svg xmlns="http://www.w3.org/2000/svg" xmlns:xlink="http://www.w3.org/1999/xlink" width="32" height="32" viewBox="0 0 32 32" version="1.1">
<g id="surface1">
<path style=" stroke:none;fill-rule:nonzero;fill:rgb(0%,0%,0%);fill-opacity:1;" d="M 8.703125 19.351562 C 8.699219 20.796875 7.527344 21.96875 6.078125 21.972656 C 4.632812 21.96875 3.460938 20.796875 3.457031 19.351562 C 3.457031 17.90625 4.636719 16.726562 6.078125 16.726562 L 8.703125 16.726562 Z M 10.023438 19.351562 C 10.023438 17.90625 11.203125 16.726562 12.648438 16.726562 C 14.09375 16.726562 15.273438 17.90625 15.273438 19.351562 L 15.273438 25.921875 C 15.269531 27.367188 14.09375 28.539062 12.648438 28.542969 C 11.203125 28.539062 10.03125 27.367188 10.023438 25.921875 Z M 12.648438 8.703125 C 11.203125 8.699219 10.03125 7.527344 10.027344 6.078125 C 10.027344 4.636719 11.207031 3.457031 12.648438 3.457031 C 14.09375 3.457031 15.273438 4.636719 15.273438 6.078125 L 15.273438 8.703125 Z M 12.648438 10.023438 C 14.09375 10.023438 15.273438 11.203125 15.273438 12.648438 C 15.269531 14.09375 14.09375 15.269531 12.648438 15.273438 L 6.078125 15.273438 C 4.632812 15.269531 3.460938 14.09375 3.457031 12.648438 C 3.457031 11.203125 4.636719 10.023438 6.078125 10.023438 Z M 23.296875 12.648438 C 23.296875 11.203125 24.476562 10.023438 25.921875 10.023438 C 27.367188 10.023438 28.542969 11.203125 28.542969 12.648438 C 28.539062 14.09375 27.367188 15.269531 25.921875 15.273438 L 23.296875 15.273438 Z M 21.976562 12.648438 C 21.972656 14.09375 20.800781 15.269531 19.351562 15.273438 C 17.90625 15.269531 16.730469 14.09375 16.726562 12.648438 L 16.726562 6.078125 C 16.726562 4.636719 17.90625 3.457031 19.351562 3.457031 C 20.796875 3.457031 21.976562 4.636719 21.976562 6.078125 Z M 19.351562 23.296875 C 20.796875 23.296875 21.976562 24.476562 21.976562 25.921875 C 21.96875 27.367188 20.796875 28.539062 19.351562 28.542969 C 17.90625 28.539062 16.730469 27.367188 16.726562 25.921875 L 16.726562 23.296875 Z M 19.351562 21.976562 C 17.90625 21.972656 16.730469 20.800781 16.726562 19.351562 C 16.726562 17.90625 17.90625 16.726562 19.351562 16.726562 L 25.921875 16.726562 C 27.367188 16.726562 28.542969 17.90625 28.542969 19.351562 C 28.539062 20.796875 27.367188 21.96875 25.921875 21.976562 Z M 19.351562 21.976562 "/>
</g>
</svg>
