<?xml version="1.0" encoding="UTF-8"?>
<svg xmlns="http://www.w3.org/2000/svg" xmlns:xlink="http://www.w3.org/1999/xlink" width="32" height="32" viewBox="0 0 32 32" version="1.1">
<g id="surface1">
<path style=" stroke:none;fill-rule:evenodd;fill:rgb(0%,0%,0%);fill-opacity:1;" d="M 20 0 C 20 1.5 19.972656 2.75 19.941406 4 L 32 4 L 32 0 Z M 19.875 6 C 19.765625 8.367188 19.558594 10.25 19.1875 11.609375 L 21.1875 13.226562 C 21.617188 13.574219 21.679688 14.203125 21.332031 14.632812 C 20.984375 15.058594 20.355469 15.121094 19.929688 14.777344 L 18.367188 13.511719 C 18.25 13.683594 18.136719 13.863281 18 14 C 17.582031 14.417969 17.167969 14.773438 16.757812 15.136719 L 18.085938 16.933594 C 18.242188 17.148438 18.308594 17.417969 18.265625 17.679688 C 18.226562 17.945312 18.078125 18.179688 17.863281 18.335938 C 17.648438 18.496094 17.382812 18.5625 17.117188 18.523438 C 16.855469 18.484375 16.617188 18.34375 16.460938 18.128906 L 15.203125 16.410156 C 14.472656 16.960938 13.757812 17.445312 13.0625 17.851562 L 14.054688 19.976562 C 14.289062 20.472656 14.078125 21.066406 13.582031 21.304688 C 13.339844 21.417969 13.066406 21.425781 12.816406 21.335938 C 12.566406 21.246094 12.363281 21.058594 12.253906 20.816406 L 11.285156 18.78125 C 10.453125 19.160156 9.65625 19.457031 8.890625 19.691406 L 9.359375 21.570312 C 9.492188 22.105469 9.167969 22.644531 8.636719 22.78125 C 8.101562 22.914062 7.5625 22.589844 7.425781 22.058594 L 6.953125 20.164062 C 2.742188 21.035156 0 20.519531 0 24 L 0 26 L 28 26 L 28 24 C 28 20 32 20 32 20 L 32 6 Z M 0 28 C 0 30 4 32 10 32 L 26 32 C 32 32 32 28 32 28 Z M 0 28 "/>
</g>
</svg>
