<?xml version="1.0" encoding="UTF-8"?>
<svg xmlns="http://www.w3.org/2000/svg" xmlns:xlink="http://www.w3.org/1999/xlink" width="32" height="32" viewBox="0 0 32 32" version="1.1">
<defs>
<filter id="alpha" filterUnits="objectBoundingBox" x="0%" y="0%" width="100%" height="100%">
  <feColorMatrix type="matrix" in="SourceGraphic" values="0 0 0 0 1 0 0 0 0 1 0 0 0 0 1 0 0 0 1 0"/>
</filter>
<mask id="mask0">
  <g filter="url(#alpha)">
<rect x="0" y="0" width="32" height="32" style="fill:rgb(0%,0%,0%);fill-opacity:0.996078;stroke:none;"/>
  </g>
</mask>
<clipPath id="clip1">
  <rect x="0" y="0" width="32" height="32"/>
</clipPath>
<g id="surface5" clip-path="url(#clip1)">
<path style=" stroke:none;fill-rule:evenodd;fill:rgb(0%,0%,0%);fill-opacity:1;" d="M 18.796875 0 C 16.277344 0.00390625 13.980469 1.707031 12.878906 4.386719 C 12.140625 4.058594 11.359375 3.890625 10.570312 3.890625 C 7.816406 3.890625 5.355469 5.914062 4.398438 8.964844 C 1.945312 9.160156 0.0390625 11.566406 0.0351562 14.472656 C 0.0351562 17.527344 2.128906 20 4.710938 20 C 4.726562 20 4.738281 20 4.753906 20 L 5.765625 20 C 5.273438 20.550781 5 21.261719 5 22 C 5 23.65625 6.34375 25 8 25 C 9.65625 25 11 23.65625 11 22 C 11 21.261719 10.726562 20.550781 10.234375 20 L 14.765625 20 C 14.273438 20.550781 14 21.261719 14 22 C 14 23.65625 15.34375 25 17 25 C 18.65625 25 20 23.65625 20 22 C 20 21.261719 19.726562 20.550781 19.234375 20 L 23.765625 20 C 23.273438 20.550781 23 21.261719 23 22 C 23 23.65625 24.34375 25 26 25 C 27.65625 25 29 23.65625 29 22 C 29 21.078125 28.578125 20.210938 27.851562 19.640625 C 30.304688 18.683594 31.964844 15.972656 31.964844 12.917969 C 31.964844 9.007812 29.28125 5.835938 25.972656 5.835938 C 25.707031 5.835938 25.445312 5.855469 25.183594 5.898438 C 24.453125 2.433594 21.820312 0 18.796875 0 Z M 3 26 C 1.34375 26 0 27.34375 0 29 C 0 30.65625 1.34375 32 3 32 C 4.65625 32 6 30.65625 6 29 C 6 27.34375 4.65625 26 3 26 Z M 12 26 C 10.34375 26 9 27.34375 9 29 C 9 30.65625 10.34375 32 12 32 C 13.65625 32 15 30.65625 15 29 C 15 27.34375 13.65625 26 12 26 Z M 21 26 C 19.34375 26 18 27.34375 18 29 C 18 30.65625 19.34375 32 21 32 C 22.65625 32 24 30.65625 24 29 C 24 27.34375 22.65625 26 21 26 Z M 21 26 "/>
</g>
</defs>
<g id="surface1">
<use xlink:href="#surface5" mask="url(#mask0)"/>
</g>
</svg>
