<?xml version="1.0" encoding="UTF-8"?>
<svg xmlns="http://www.w3.org/2000/svg" xmlns:xlink="http://www.w3.org/1999/xlink" width="32" height="32" viewBox="0 0 32 32" version="1.1">
<g id="surface1">
<path style=" stroke:none;fill-rule:nonzero;fill:rgb(0%,0%,0%);fill-opacity:1;" d="M 13.953125 11.460938 C 14.304688 11.460938 14.59375 14.269531 14.59375 17.734375 L 14.589844 18.203125 C 14.566406 21.445312 14.289062 24.003906 13.953125 24.003906 C 13.609375 24.003906 13.332031 21.386719 13.3125 18.085938 L 13.3125 17.617188 C 13.320312 14.207031 13.601562 11.460938 13.953125 11.460938 Z M 11.734375 12.742188 C 12.078125 12.742188 12.359375 15.140625 12.375 18.148438 L 12.375 18.601562 C 12.359375 21.605469 12.078125 24.003906 11.734375 24.003906 C 11.394531 24.003906 11.113281 21.664062 11.09375 18.710938 L 11.09375 18.257812 L 11.097656 17.804688 C 11.128906 14.960938 11.402344 12.742188 11.734375 12.742188 Z M 9.515625 12.742188 C 9.855469 12.742188 10.132812 15.082031 10.15625 18.035156 L 10.15625 18.488281 L 10.152344 18.941406 C 10.117188 21.785156 9.84375 24.003906 9.515625 24.003906 C 9.167969 24.003906 8.886719 21.605469 8.875 18.601562 L 8.875 18.148438 C 8.886719 15.140625 9.167969 12.742188 9.515625 12.742188 Z M 7.296875 13.507812 C 7.648438 13.507812 7.9375 15.859375 7.9375 18.757812 L 7.933594 19.203125 C 7.90625 21.894531 7.628906 24.003906 7.296875 24.003906 C 6.945312 24.003906 6.664062 21.714844 6.65625 18.871094 L 6.65625 18.644531 C 6.664062 15.796875 6.945312 13.507812 7.296875 13.507812 Z M 5.078125 15.8125 C 5.429688 15.8125 5.71875 17.648438 5.71875 19.910156 L 5.71875 20.121094 C 5.699219 22.285156 5.421875 24.003906 5.078125 24.003906 C 4.722656 24.003906 4.4375 22.171875 4.4375 19.910156 L 4.4375 19.699219 C 4.453125 17.535156 4.734375 15.8125 5.078125 15.8125 Z M 19.457031 9.414062 C 22.894531 9.414062 25.75 11.929688 26.28125 15.21875 C 27.953125 14.738281 29.75 15.269531 30.894531 16.582031 C 32.035156 17.894531 32.316406 19.75 31.609375 21.339844 C 30.90625 22.929688 29.34375 23.96875 27.605469 24.003906 L 16.640625 24.003906 C 16.074219 24.003906 15.617188 23.546875 15.617188 22.980469 L 15.617188 10.578125 C 16.75 9.816406 18.089844 9.410156 19.457031 9.414062 Z M 2.859375 15.558594 C 3.210938 15.558594 3.5 17.332031 3.5 19.523438 L 3.5 19.734375 C 3.480469 21.828125 3.203125 23.492188 2.859375 23.492188 C 2.511719 23.492188 2.226562 21.773438 2.21875 19.628906 L 2.21875 19.523438 C 2.21875 17.332031 2.503906 15.558594 2.859375 15.558594 Z M 0.640625 16.835938 C 0.992188 16.835938 1.28125 18.097656 1.28125 19.652344 L 1.28125 19.828125 C 1.257812 21.300781 0.980469 22.46875 0.640625 22.46875 C 0.285156 22.46875 0 21.207031 0 19.652344 L 0 19.480469 C 0.0195312 18.003906 0.300781 16.835938 0.640625 16.835938 Z M 0.640625 16.835938 "/>
</g>
</svg>
