<?xml version="1.0" encoding="UTF-8"?>
<svg xmlns="http://www.w3.org/2000/svg" xmlns:xlink="http://www.w3.org/1999/xlink" width="32" height="32" viewBox="0 0 32 32" version="1.1">
<g id="surface1">
<path style=" stroke:none;fill-rule:evenodd;fill:rgb(0%,0%,0%);fill-opacity:1;" d="M 14.199219 3 L 12.242188 4.957031 L 17.878906 12.46875 C 17.4375 9.3125 16.265625 6.15625 14.199219 3 Z M 26.398438 4.390625 C 26.144531 4.394531 25.894531 4.492188 25.703125 4.683594 C 25.65625 4.730469 25.613281 4.78125 25.578125 4.835938 C 25.316406 5.230469 25.363281 5.757812 25.703125 6.097656 C 28.332031 8.722656 29.804688 12.289062 29.800781 16.003906 C 29.800781 19.09375 28.761719 22.070312 26.902344 24.496094 L 28.152344 26.160156 C 30.496094 23.308594 31.804688 19.71875 31.804688 16 C 31.804688 11.757812 30.117188 7.683594 27.117188 4.683594 C 27.109375 4.679688 27.097656 4.667969 27.089844 4.664062 L 27.097656 4.664062 C 26.902344 4.476562 26.648438 4.386719 26.398438 4.390625 Z M 23.570312 7.222656 C 23.316406 7.226562 23.066406 7.324219 22.875 7.515625 C 22.828125 7.558594 22.792969 7.605469 22.761719 7.660156 C 22.488281 8.058594 22.539062 8.597656 22.878906 8.9375 C 24.757812 10.8125 25.796875 13.359375 25.796875 16.011719 C 25.796875 17.828125 25.273438 19.574219 24.359375 21.109375 L 25.652344 22.832031 C 27.035156 20.839844 27.796875 18.460938 27.796875 16.003906 C 27.796875 12.820312 26.542969 9.769531 24.289062 7.519531 C 24.285156 7.515625 24.277344 7.507812 24.277344 7.5 L 24.269531 7.496094 C 24.070312 7.308594 23.820312 7.21875 23.570312 7.222656 Z M 7.300781 9.898438 L 6.199219 11 L 0.199219 11 L 0.199219 21 L 6.199219 21 L 14.199219 29 C 15.332031 26.894531 16.238281 24.792969 16.898438 22.6875 Z M 20.722656 10.046875 C 20.46875 10.050781 20.222656 10.148438 20.03125 10.339844 C 19.984375 10.382812 19.949219 10.429688 19.921875 10.484375 C 19.644531 10.882812 19.695312 11.417969 20.039062 11.757812 C 21.164062 12.882812 21.792969 14.410156 21.796875 16 C 21.796875 16.488281 21.71875 16.964844 21.605469 17.433594 L 23.035156 19.339844 C 23.515625 18.296875 23.792969 17.164062 23.796875 15.992188 C 23.792969 13.871094 22.949219 11.84375 21.449219 10.34375 C 21.441406 10.339844 21.433594 10.328125 21.433594 10.320312 L 21.425781 10.320312 C 21.226562 10.132812 20.972656 10.042969 20.722656 10.046875 Z M 20.722656 10.046875 "/>
<path style=" stroke:none;fill-rule:nonzero;fill:rgb(0%,0%,0%);fill-opacity:1;" d="M 2.691406 0 C 2.691406 0.328125 2.796875 0.644531 2.992188 0.90625 L 26.324219 32 L 29.6875 32 C 29.6875 31.675781 29.585938 31.359375 29.390625 31.097656 L 6.070312 0 Z M 2.691406 0 "/>
</g>
</svg>
