<?xml version="1.0" encoding="UTF-8"?>
<svg xmlns="http://www.w3.org/2000/svg" xmlns:xlink="http://www.w3.org/1999/xlink" width="32" height="32" viewBox="0 0 32 32" version="1.1">
<g id="surface1">
<path style=" stroke:none;fill-rule:evenodd;fill:rgb(0%,0%,0%);fill-opacity:1;" d="M 20 16 C 20.148438 19.050781 16.289062 21.140625 13.816406 19.351562 C 11.175781 17.804688 11.535156 13.433594 14.386719 12.339844 C 16.921875 11.136719 20.082031 13.1875 20 16 Z M 20 16 "/>
<path style=" stroke:none;fill-rule:evenodd;fill:rgb(0%,0%,0%);fill-opacity:1;" d="M 18.742188 8.5 C 14.214844 6.703125 8.847656 9.808594 8.140625 14.628906 C 7.175781 19.386719 11.15625 24.121094 16.011719 23.988281 C 18.828125 24.003906 21.503906 22.457031 22.90625 20.015625 C 25.46875 15.878906 23.355469 10.042969 18.742188 8.5 Z M 18.035156 10.34375 C 18.054688 10.355469 18.074219 10.367188 18.09375 10.375 C 21.425781 11.46875 23.0625 15.988281 21.207031 18.96875 C 21.203125 18.980469 21.199219 18.996094 21.191406 19.011719 C 20.167969 20.816406 18.085938 22.011719 16.011719 21.992188 C 15.996094 21.992188 15.980469 21.992188 15.964844 21.992188 C 12.460938 22.109375 9.367188 18.414062 10.089844 14.980469 C 10.097656 14.960938 10.101562 14.941406 10.105469 14.921875 C 10.601562 11.449219 14.777344 9.039062 18.035156 10.34375 Z M 18.035156 10.34375 "/>
<path style=" stroke:none;fill-rule:evenodd;fill:rgb(0%,0%,0%);fill-opacity:1;" d="M 14.726562 4.085938 C 8.585938 4.613281 3.671875 10.292969 4.023438 16.441406 C 4.117188 22.761719 9.707031 28.15625 16.027344 28.003906 C 17 28 17.972656 27.871094 18.917969 27.632812 C 24.933594 26.257812 29.019531 19.933594 27.808594 13.890625 C 26.847656 7.804688 20.832031 3.308594 14.726562 4.085938 Z M 14.960938 6.050781 C 19.9375 5.398438 25.078125 9.253906 25.84375 14.214844 C 25.84375 14.226562 25.84375 14.242188 25.84375 14.257812 C 26.835938 19.175781 23.359375 24.574219 18.460938 25.683594 C 18.453125 25.691406 18.441406 25.695312 18.433594 25.699219 C 17.636719 25.898438 16.816406 25.996094 15.996094 25.996094 C 15.992188 25.996094 15.984375 25.996094 15.980469 25.996094 C 10.847656 26.121094 6.066406 21.53125 6 16.398438 C 6 16.382812 6 16.367188 6 16.355469 C 5.699219 11.34375 9.902344 6.484375 14.902344 6.0625 C 14.921875 6.058594 14.941406 6.054688 14.960938 6.050781 Z M 14.960938 6.050781 "/>
<path style=" stroke:none;fill-rule:evenodd;fill:rgb(0%,0%,0%);fill-opacity:1;" d="M 21.015625 0.808594 C 17.507812 -0.351562 13.609375 -0.316406 10.121094 1.132812 C 3.027344 3.792969 -1.308594 11.765625 0.316406 19.160156 C 1.664062 26.492188 8.554688 32.136719 16.011719 32.003906 C 19.9375 32.011719 23.808594 30.523438 26.714844 27.886719 L 26.730469 27.871094 C 32.429688 22.898438 33.695312 13.925781 29.59375 7.570312 L 29.578125 7.554688 C 27.640625 4.304688 24.527344 1.96875 21.015625 0.808594 Z M 20.382812 2.742188 C 23.46875 3.761719 26.214844 5.789062 27.882812 8.589844 C 27.886719 8.601562 27.890625 8.617188 27.894531 8.632812 C 31.445312 14.101562 30.316406 22.101562 25.402344 26.378906 C 25.394531 26.382812 25.390625 26.390625 25.386719 26.394531 C 22.855469 28.699219 19.417969 30.007812 15.996094 29.996094 C 15.992188 29.996094 15.984375 29.996094 15.980469 29.996094 C 9.554688 30.117188 3.425781 25.097656 2.28125 18.777344 C 2.277344 18.761719 2.269531 18.746094 2.265625 18.730469 C 0.867188 12.367188 4.722656 5.273438 10.828125 2.992188 C 10.839844 2.988281 10.847656 2.984375 10.859375 2.976562 C 13.863281 1.722656 17.296875 1.722656 20.382812 2.742188 Z M 20.382812 2.742188 "/>
</g>
</svg>
