<?xml version="1.0" encoding="UTF-8"?>
<svg xmlns="http://www.w3.org/2000/svg" xmlns:xlink="http://www.w3.org/1999/xlink" width="32" height="32" viewBox="0 0 32 32" version="1.1">
<g id="surface1">
<path style=" stroke:none;fill-rule:nonzero;fill:rgb(0%,0%,0%);fill-opacity:1;" d="M 3.839844 24.070312 C 5.675781 15.953125 9.59375 8.453125 15.214844 2.3125 C 15.417969 2.09375 15.703125 1.96875 16 1.96875 C 16.296875 1.96875 16.582031 2.09375 16.785156 2.3125 C 17.007812 2.550781 17.191406 2.753906 17.335938 2.917969 C 22.664062 8.949219 26.386719 16.222656 28.160156 24.070312 C 25.304688 24.671875 22.375 25.066406 19.382812 25.238281 L 16.597656 30.808594 C 16.484375 31.035156 16.253906 31.175781 16 31.175781 C 15.746094 31.175781 15.515625 31.035156 15.402344 30.808594 L 12.617188 25.238281 C 9.667969 25.070312 6.734375 24.679688 3.839844 24.070312 Z M 12.769531 22.574219 L 14.3125 22.664062 L 16 26.035156 L 17.6875 22.664062 L 19.230469 22.574219 C 21.117188 22.46875 23 22.265625 24.867188 21.96875 C 23.097656 15.90625 20.078125 10.277344 16 5.453125 C 11.921875 10.277344 8.902344 15.90625 7.132812 21.96875 C 8.996094 22.265625 10.875 22.46875 12.769531 22.574219 Z M 16 20 C 13.789062 20 12 18.210938 12 16 C 12 13.789062 13.789062 12 16 12 C 18.210938 12 20 13.789062 20 16 C 20 18.210938 18.210938 20 16 20 Z M 16 17.332031 C 16.738281 17.332031 17.332031 16.738281 17.332031 16 C 17.332031 15.261719 16.738281 14.667969 16 14.667969 C 15.261719 14.667969 14.667969 15.261719 14.667969 16 C 14.667969 16.738281 15.261719 17.332031 16 17.332031 Z M 16 17.332031 "/>
</g>
</svg>
