<?xml version="1.0" encoding="UTF-8"?>
<svg xmlns="http://www.w3.org/2000/svg" xmlns:xlink="http://www.w3.org/1999/xlink" width="32" height="32" viewBox="0 0 32 32" version="1.1">
<g id="surface1">
<path style=" stroke:none;fill-rule:evenodd;fill:rgb(0%,0%,0%);fill-opacity:1;" d="M 9.304688 0 C 6.367188 0 4 2.367188 4 5.304688 L 4 26.695312 C 4 29.632812 6.367188 32 9.304688 32 L 22.695312 32 C 25.632812 32 28 29.632812 28 26.695312 L 28 5.304688 C 28 2.367188 25.632812 0 22.695312 0 Z M 15.902344 4 C 15.933594 4 15.96875 4 16 4 C 18.210938 4 20 5.789062 20 8 C 20 10.210938 18.210938 12 16 12 C 13.789062 12 12 10.210938 12 8 C 12 5.828125 13.730469 4.054688 15.902344 4 Z M 16 13.644531 C 20.710938 13.644531 24.53125 17.464844 24.53125 22.175781 C 24.53125 26.886719 20.710938 30.707031 16 30.707031 C 11.289062 30.707031 7.46875 26.886719 7.46875 22.175781 C 7.46875 17.464844 11.289062 13.644531 16 13.644531 Z M 16 13.644531 "/>
<path style=" stroke:none;fill-rule:evenodd;fill:rgb(0%,0%,0%);fill-opacity:1;" d="M 22 22 C 22 25.3125 19.3125 28 16 28 C 12.6875 28 10 25.3125 10 22 C 10 18.6875 12.6875 16 16 16 C 19.3125 16 22 18.6875 22 22 "/>
<path style=" stroke:none;fill-rule:evenodd;fill:rgb(0%,0%,0%);fill-opacity:1;" d="M 18 8 C 18 9.105469 17.105469 10 16 10 C 14.894531 10 14 9.105469 14 8 C 14 6.894531 14.894531 6 16 6 C 17.105469 6 18 6.894531 18 8 "/>
</g>
</svg>
