<?xml version="1.0" encoding="UTF-8"?>
<svg xmlns="http://www.w3.org/2000/svg" xmlns:xlink="http://www.w3.org/1999/xlink" width="32" height="32" viewBox="0 0 32 32" version="1.1">
<g id="surface1">
<path style=" stroke:none;fill-rule:nonzero;fill:rgb(0%,0%,0%);fill-opacity:1;" d="M 6.667969 5.332031 L 6.667969 26.667969 L 25.332031 26.667969 L 25.332031 5.332031 Z M 5.332031 2.667969 L 26.667969 2.667969 C 27.402344 2.667969 28 3.261719 28 4 L 28 28 C 28 28.738281 27.402344 29.332031 26.667969 29.332031 L 5.332031 29.332031 C 4.597656 29.332031 4 28.738281 4 28 L 4 4 C 4 3.261719 4.597656 2.667969 5.332031 2.667969 Z M 16 22.667969 C 17.839844 22.667969 19.332031 21.175781 19.332031 19.332031 C 19.332031 17.492188 17.839844 16 16 16 C 14.160156 16 12.667969 17.492188 12.667969 19.332031 C 12.667969 21.175781 14.160156 22.667969 16 22.667969 Z M 16 25.332031 C 12.6875 25.332031 10 22.648438 10 19.332031 C 10 16.019531 12.6875 13.332031 16 13.332031 C 19.3125 13.332031 22 16.019531 22 19.332031 C 22 22.648438 19.3125 25.332031 16 25.332031 Z M 16 11.332031 C 14.894531 11.332031 14 10.4375 14 9.332031 C 14 8.230469 14.894531 7.332031 16 7.332031 C 17.105469 7.332031 18 8.230469 18 9.332031 C 18 10.4375 17.105469 11.332031 16 11.332031 Z M 16 11.332031 "/>
</g>
</svg>
