<?xml version="1.0" encoding="UTF-8"?>
<svg xmlns="http://www.w3.org/2000/svg" xmlns:xlink="http://www.w3.org/1999/xlink" width="32" height="32" viewBox="0 0 32 32" version="1.1">
<g id="surface1">
<path style=" stroke:none;fill-rule:nonzero;fill:rgb(0%,0%,0%);fill-opacity:1;" d="M 15.183594 2.667969 L 17.597656 2.675781 L 18.722656 2.691406 C 28.273438 2.910156 29.308594 4.710938 29.332031 15.582031 L 29.324219 17.597656 L 29.308594 18.722656 C 29.089844 28.273438 27.289062 29.308594 16.417969 29.332031 L 14.402344 29.324219 L 13.21875 29.304688 C 4.078125 29.089844 2.78125 27.402344 2.675781 17.597656 L 2.667969 15.589844 L 2.675781 14.402344 L 2.691406 13.246094 C 2.914062 3.84375 4.675781 2.71875 15.183594 2.667969 Z M 18.828125 5.347656 L 14.507812 5.332031 L 12.746094 5.347656 C 5.429688 5.457031 5.355469 6.441406 5.335938 15.21875 L 5.335938 18.117188 L 5.347656 19.503906 C 5.46875 26.148438 6.40625 26.628906 13.882812 26.664062 L 18.488281 26.660156 L 19.523438 26.648438 C 26.332031 26.527344 26.652344 25.53125 26.667969 17.480469 L 26.664062 13.820312 L 26.648438 12.414062 C 26.519531 6.019531 25.601562 5.414062 18.828125 5.34375 Z M 11 9.332031 C 17.441406 9.332031 22.667969 14.558594 22.667969 21 L 22.667969 21.777344 C 22.667969 22.269531 22.269531 22.667969 21.777344 22.667969 L 16.890625 22.667969 C 16.398438 22.667969 16 22.269531 16 21.777344 L 16 21 C 16 18.238281 13.761719 16 11 16 L 10.222656 16 C 9.730469 16 9.332031 15.601562 9.332031 15.109375 L 9.332031 10.222656 C 9.332031 9.730469 9.730469 9.332031 10.222656 9.332031 Z M 11 9.332031 "/>
</g>
</svg>
