<?xml version="1.0" encoding="UTF-8"?>
<svg xmlns="http://www.w3.org/2000/svg" xmlns:xlink="http://www.w3.org/1999/xlink" width="32" height="32" viewBox="0 0 32 32" version="1.1">
<g id="surface1">
<path style=" stroke:none;fill-rule:nonzero;fill:rgb(0%,0%,0%);fill-opacity:1;" d="M 30.859375 -0.261719 L 28.027344 2.570312 L 28.640625 3.175781 C 27.488281 2.171875 26.152344 1.371094 24.808594 0.992188 C 23.421875 0.601562 21.859375 0.675781 20.835938 1.757812 C 19.496094 3.171875 15.085938 7.550781 10.738281 11.859375 C 9.402344 13.183594 8.929688 13.671875 7.695312 14.902344 C 5.476562 11.839844 4.0625 8.941406 3.863281 7.042969 C 3.777344 6.261719 3.894531 5.730469 4.070312 5.414062 C 4.25 5.097656 4.46875 4.914062 4.914062 4.796875 C 5.5 4.640625 6.511719 4.746094 7.777344 5.140625 L 6.828125 7.238281 L 13.757812 6.992188 L 9.472656 1.402344 L 8.617188 3.289062 C 7.023438 2.738281 5.613281 2.546875 4.402344 2.867188 C 3.527344 3.101562 2.753906 3.664062 2.316406 4.453125 C 1.882812 5.242188 1.765625 6.191406 1.878906 7.25 C 2.15625 9.890625 3.761719 13.109375 6.21875 16.378906 C 4.21875 18.367188 1.527344 21.027344 0.832031 21.765625 C 0.347656 22.277344 0.125 22.949219 0.125 23.59375 C 0.121094 24.238281 0.300781 24.863281 0.582031 25.457031 C 1.019531 26.378906 1.730469 27.246094 2.527344 28.070312 L -0.261719 30.84375 L 1.15625 32.261719 L 3.992188 29.441406 L 3.851562 29.300781 C 4.769531 30.0625 5.742188 30.738281 6.695312 31.167969 C 7.28125 31.433594 7.847656 31.617188 8.433594 31.671875 C 9.015625 31.726562 9.667969 31.644531 10.191406 31.226562 C 10.84375 30.703125 12.035156 29.511719 13.707031 27.832031 C 14.273438 27.261719 15.054688 26.457031 15.703125 25.800781 C 16.957031 26.734375 18.195312 27.546875 19.386719 28.203125 C 21.898438 29.589844 24.164062 30.367188 26.101562 30.136719 C 27.066406 30.019531 27.949219 29.597656 28.511719 28.894531 C 29.070312 28.191406 29.296875 27.285156 29.292969 26.316406 C 29.28125 24.375 28.402344 22.046875 26.789062 19.363281 C 26.75 19.296875 26.703125 19.238281 26.652344 19.183594 C 26.328125 18.847656 25.820312 18.78125 25.421875 19.015625 C 25.191406 19.152344 25.027344 19.375 24.964844 19.636719 C 24.902344 19.894531 24.945312 20.167969 25.085938 20.394531 C 26.589844 22.898438 27.28125 25.011719 27.285156 26.316406 C 27.289062 26.96875 27.136719 27.394531 26.933594 27.652344 C 26.726562 27.910156 26.445312 28.082031 25.871094 28.152344 C 24.714844 28.289062 22.667969 27.730469 20.347656 26.449219 C 19.320312 25.882812 18.230469 25.164062 17.121094 24.355469 C 17.960938 23.496094 18.679688 22.773438 19.566406 21.867188 C 23.816406 17.519531 28.324219 12.910156 30.222656 11.191406 C 31.480469 10.054688 31.746094 8.390625 31.316406 6.984375 C 30.980469 5.875 30.300781 4.859375 29.457031 3.960938 L 32.261719 1.152344 Z M 23.03125 2.78125 C 23.359375 2.742188 23.765625 2.785156 24.257812 2.925781 C 25.25 3.203125 26.429688 3.886719 27.402344 4.757812 C 28.378906 5.628906 29.140625 6.691406 29.410156 7.578125 C 29.683594 8.464844 29.613281 9.054688 28.894531 9.703125 C 26.851562 11.554688 22.386719 16.117188 18.132812 20.464844 C 17.1875 21.433594 16.417969 22.210938 15.523438 23.125 C 14.636719 22.40625 13.746094 21.644531 12.859375 20.800781 C 12.820312 20.761719 12.78125 20.714844 12.738281 20.675781 L 15.296875 18.117188 L 13.878906 16.714844 L 11.335938 19.257812 C 10.472656 18.347656 9.664062 17.425781 8.921875 16.496094 C 10.226562 15.195312 10.71875 14.683594 12.140625 13.273438 C 16.488281 8.964844 20.855469 4.640625 22.28125 3.132812 C 22.460938 2.945312 22.707031 2.820312 23.035156 2.78125 Z M 25.1875 5.390625 L 22.371094 8.226562 L 23.785156 9.644531 L 26.609375 6.808594 Z M 19.539062 11.046875 L 16.71875 13.878906 L 18.117188 15.296875 L 20.957031 12.464844 Z M 7.472656 17.949219 C 8.675781 19.402344 10.015625 20.847656 11.484375 22.242188 C 12.355469 23.074219 13.242188 23.832031 14.125 24.554688 C 13.53125 25.15625 12.808594 25.90625 12.289062 26.429688 C 10.628906 28.097656 9.308594 29.367188 8.9375 29.664062 C 8.945312 29.65625 8.886719 29.699219 8.628906 29.675781 C 8.367188 29.652344 7.96875 29.542969 7.519531 29.339844 C 6.617188 28.929688 5.503906 28.175781 4.550781 27.300781 C 3.59375 26.421875 2.785156 25.414062 2.398438 24.597656 C 2.203125 24.1875 2.113281 23.839844 2.117188 23.609375 C 2.117188 23.378906 2.160156 23.277344 2.292969 23.136719 C 2.90625 22.480469 5.5625 19.851562 7.472656 17.949219 Z M 8.230469 22.371094 L 5.394531 25.1875 L 6.8125 26.605469 L 9.644531 23.785156 Z M 8.230469 22.371094 "/>
</g>
</svg>
