<?xml version="1.0" encoding="UTF-8"?>
<svg xmlns="http://www.w3.org/2000/svg" xmlns:xlink="http://www.w3.org/1999/xlink" width="32" height="32" viewBox="0 0 32 32" version="1.1">
<g id="surface1">
<path style=" stroke:none;fill-rule:nonzero;fill:rgb(0%,0%,0%);fill-opacity:1;" d="M 26.667969 4 C 27.402344 4 28 4.597656 28 5.332031 L 28 26.667969 C 28 27.402344 27.402344 28 26.667969 28 L 5.332031 28 C 4.597656 28 4 27.402344 4 26.667969 L 4 5.332031 C 4 4.597656 4.597656 4 5.332031 4 Z M 25.332031 6.667969 L 6.667969 6.667969 L 6.667969 14.664062 L 12 14.667969 L 12 17.332031 L 6.667969 17.332031 L 6.667969 25.332031 L 25.332031 25.332031 L 25.332031 17.332031 L 20 17.332031 L 20 14.667969 L 25.332031 14.664062 Z M 16 8 L 20 12 L 17.332031 12 L 17.332031 20 L 20 20 L 16 24 L 12 20 L 14.667969 20 L 14.667969 12 L 12 12 Z M 16 8 "/>
</g>
</svg>
