<?xml version="1.0" encoding="UTF-8"?>
<svg xmlns="http://www.w3.org/2000/svg" xmlns:xlink="http://www.w3.org/1999/xlink" width="32" height="32" viewBox="0 0 32 32" version="1.1">
<g id="surface1">
<path style=" stroke:none;fill-rule:nonzero;fill:rgb(0%,0%,0%);fill-opacity:1;" d="M 16 2.667969 C 23.398438 2.667969 29.332031 8.667969 29.332031 16 C 29.332031 23.332031 23.332031 29.332031 16 29.332031 C 8.667969 29.332031 2.667969 23.332031 2.667969 16 C 2.667969 8.667969 8.667969 2.667969 16 2.667969 Z M 16 5.332031 C 10.140625 5.332031 5.332031 10.140625 5.332031 16 C 5.332031 21.859375 10.140625 26.667969 16 26.667969 C 21.859375 26.667969 26.667969 21.859375 26.667969 16 C 26.667969 10.113281 21.902344 5.332031 16 5.332031 Z M 21 22.199219 C 17.867188 20.265625 13.933594 19.867188 9.265625 20.933594 C 8.800781 21.066406 8.398438 20.734375 8.265625 20.332031 C 8.132812 19.867188 8.464844 19.464844 8.867188 19.332031 C 13.933594 18.199219 18.332031 18.667969 21.800781 20.800781 C 22.265625 21 22.332031 21.535156 22.132812 21.933594 C 21.867188 22.332031 21.398438 22.464844 21 22.199219 Z M 22.332031 18.601562 C 18.734375 16.398438 13.265625 15.734375 9.066406 17.066406 C 8.535156 17.199219 7.933594 16.933594 7.800781 16.398438 C 7.667969 15.867188 7.933594 15.265625 8.464844 15.132812 C 13.332031 13.667969 19.332031 14.398438 23.464844 16.933594 C 23.867188 17.132812 24.066406 17.800781 23.734375 18.265625 C 23.398438 18.734375 22.800781 18.933594 22.332031 18.601562 Z M 8.398438 13 C 7.734375 13.199219 7.066406 12.800781 6.867188 12.199219 C 6.667969 11.535156 7.066406 10.867188 7.667969 10.667969 C 12.398438 9.265625 20.199219 9.535156 25.132812 12.464844 C 25.734375 12.800781 25.933594 13.601562 25.601562 14.199219 C 25.265625 14.667969 24.464844 14.867188 23.867188 14.535156 C 19.601562 12 12.464844 11.734375 8.398438 13 Z M 8.398438 13 "/>
</g>
</svg>
