<?xml version="1.0" encoding="UTF-8"?>
<svg xmlns="http://www.w3.org/2000/svg" xmlns:xlink="http://www.w3.org/1999/xlink" width="32" height="32" viewBox="0 0 32 32" version="1.1">
<g id="surface1">
<path style=" stroke:none;fill-rule:nonzero;fill:rgb(0%,0%,0%);fill-opacity:1;" d="M 8.410156 8.222656 C 7.628906 7.441406 6.363281 7.441406 5.582031 8.222656 C 4.800781 9.003906 4.800781 10.269531 5.582031 11.050781 C 6.363281 11.832031 7.628906 11.832031 8.410156 11.050781 C 9.191406 10.269531 9.191406 9.003906 8.410156 8.222656 Z M 3.414062 6.101562 C 2.632812 5.320312 1.367188 5.320312 0.585938 6.101562 C -0.195312 6.882812 -0.195312 8.148438 0.585938 8.929688 C 1.367188 9.710938 2.632812 9.710938 3.414062 8.929688 C 4.195312 8.148438 4.195312 6.882812 3.414062 6.101562 Z M 8.410156 13.878906 C 7.628906 13.097656 6.363281 13.097656 5.582031 13.878906 C 4.800781 14.660156 4.800781 15.925781 5.582031 16.707031 C 6.363281 17.488281 7.628906 17.488281 8.410156 16.707031 C 9.191406 15.925781 9.191406 14.660156 8.410156 13.878906 Z M 3.414062 11.757812 C 2.632812 10.976562 1.367188 10.976562 0.585938 11.757812 C -0.195312 12.539062 -0.195312 13.804688 0.585938 14.585938 C 1.367188 15.367188 2.632812 15.367188 3.414062 14.585938 C 4.195312 13.804688 4.195312 12.539062 3.414062 11.757812 Z M 3.414062 17.414062 C 2.632812 16.632812 1.367188 16.632812 0.585938 17.414062 C -0.195312 18.195312 -0.195312 19.460938 0.585938 20.242188 C 1.367188 21.023438 2.632812 21.023438 3.414062 20.242188 C 4.195312 19.460938 4.195312 18.195312 3.414062 17.414062 Z M 3.414062 17.414062 "/>
<path style=" stroke:none;fill-rule:nonzero;fill:rgb(0%,0%,0%);fill-opacity:1;" d="M 10 8 L 14 15.199219 L 14 32 L 18 32 L 18 15.199219 L 22 8 Z M 10 8 "/>
<path style=" stroke:none;fill-rule:nonzero;fill:rgb(0%,0%,0%);fill-opacity:1;" d="M 23.589844 8.222656 C 24.371094 7.441406 25.636719 7.441406 26.417969 8.222656 C 27.199219 9.003906 27.199219 10.269531 26.417969 11.050781 C 25.636719 11.832031 24.371094 11.832031 23.589844 11.050781 C 22.808594 10.269531 22.808594 9.003906 23.589844 8.222656 Z M 28.585938 6.101562 C 29.367188 5.320312 30.632812 5.320312 31.414062 6.101562 C 32.195312 6.882812 32.195312 8.148438 31.414062 8.929688 C 30.632812 9.710938 29.367188 9.710938 28.585938 8.929688 C 27.804688 8.148438 27.804688 6.882812 28.585938 6.101562 Z M 23.589844 13.878906 C 24.371094 13.097656 25.636719 13.097656 26.417969 13.878906 C 27.199219 14.660156 27.199219 15.925781 26.417969 16.707031 C 25.636719 17.488281 24.371094 17.488281 23.589844 16.707031 C 22.808594 15.925781 22.808594 14.660156 23.589844 13.878906 Z M 28.585938 11.757812 C 29.367188 10.976562 30.632812 10.976562 31.414062 11.757812 C 32.195312 12.539062 32.195312 13.804688 31.414062 14.585938 C 30.632812 15.367188 29.367188 15.367188 28.585938 14.585938 C 27.804688 13.804688 27.804688 12.539062 28.585938 11.757812 Z M 28.585938 17.414062 C 29.367188 16.632812 30.632812 16.632812 31.414062 17.414062 C 32.195312 18.195312 32.195312 19.460938 31.414062 20.242188 C 30.632812 21.023438 29.367188 21.023438 28.585938 20.242188 C 27.804688 19.460938 27.804688 18.195312 28.585938 17.414062 Z M 28.585938 17.414062 "/>
</g>
</svg>
