<?xml version="1.0" encoding="UTF-8"?>
<svg xmlns="http://www.w3.org/2000/svg" xmlns:xlink="http://www.w3.org/1999/xlink" width="32" height="32" viewBox="0 0 32 32" version="1.1">
<g id="surface1">
<path style=" stroke:none;fill-rule:nonzero;fill:rgb(0%,0%,0%);fill-opacity:1;" d="M 12.714844 17.332031 L 9.773438 17.332031 C 9.222656 18.886719 7.742188 20 6 20 C 3.789062 20 2 18.210938 2 16 C 2 13.789062 3.789062 12 6 12 C 7.742188 12 9.222656 13.113281 9.773438 14.667969 L 12.714844 14.667969 L 17.332031 6.667969 L 21.558594 6.667969 C 22.109375 5.113281 23.59375 4 25.332031 4 C 27.542969 4 29.332031 5.789062 29.332031 8 C 29.332031 10.210938 27.542969 12 25.332031 12 C 23.59375 12 22.109375 10.886719 21.5625 9.332031 L 18.871094 9.332031 L 15.023438 16 L 18.875 22.667969 L 21.5625 22.667969 C 22.109375 21.113281 23.59375 20 25.332031 20 C 27.542969 20 29.332031 21.789062 29.332031 24 C 29.332031 26.210938 27.542969 28 25.332031 28 C 23.59375 28 22.109375 26.886719 21.5625 25.332031 L 17.332031 25.332031 Z M 25.332031 22.667969 C 24.597656 22.667969 24 23.265625 24 24 C 24 24.734375 24.597656 25.332031 25.332031 25.332031 C 26.070312 25.332031 26.667969 24.734375 26.667969 24 C 26.667969 23.265625 26.070312 22.667969 25.332031 22.667969 Z M 6 14.667969 C 5.265625 14.667969 4.667969 15.265625 4.667969 16 C 4.667969 16.734375 5.265625 17.332031 6 17.332031 C 6.734375 17.332031 7.332031 16.734375 7.332031 16 C 7.332031 15.265625 6.734375 14.667969 6 14.667969 Z M 25.332031 6.667969 C 24.597656 6.667969 24 7.265625 24 8 C 24 8.734375 24.597656 9.332031 25.332031 9.332031 C 26.070312 9.332031 26.667969 8.734375 26.667969 8 C 26.667969 7.265625 26.070312 6.667969 25.332031 6.667969 Z M 25.332031 6.667969 "/>
</g>
</svg>
