<?xml version="1.0" encoding="UTF-8"?>
<svg xmlns="http://www.w3.org/2000/svg" xmlns:xlink="http://www.w3.org/1999/xlink" width="32" height="32" viewBox="0 0 32 32" version="1.1">
<g id="surface1">
<path style=" stroke:none;fill-rule:nonzero;fill:rgb(0%,0%,0%);fill-opacity:1;" d="M 28 17.332031 L 28 26.667969 C 28 27.402344 27.402344 28 26.667969 28 L 5.332031 28 C 4.597656 28 4 27.402344 4 26.667969 L 4 17.332031 L 2.667969 17.332031 L 2.667969 14.667969 L 4 8 L 28 8 L 29.332031 14.667969 L 29.332031 17.332031 Z M 6.667969 17.332031 L 6.667969 25.332031 L 25.332031 25.332031 L 25.332031 17.332031 Z M 8 18.667969 L 18.667969 18.667969 L 18.667969 22.667969 L 8 22.667969 Z M 4 4 L 28 4 L 28 6.667969 L 4 6.667969 Z M 4 4 "/>
</g>
</svg>
