<?xml version="1.0" encoding="UTF-8"?>
<svg xmlns="http://www.w3.org/2000/svg" xmlns:xlink="http://www.w3.org/1999/xlink" width="32" height="32" viewBox="0 0 32 32" version="1.1">
<g id="surface1">
<path style=" stroke:none;fill-rule:nonzero;fill:rgb(0%,0%,0%);fill-opacity:1;" d="M 22.871094 18.667969 C 23.179688 19.355469 23.332031 20.121094 23.332031 20.960938 C 23.332031 22.75 22.632812 24.148438 21.238281 25.15625 C 19.839844 26.164062 17.910156 26.667969 15.449219 26.667969 C 13.261719 26.667969 11.097656 26.160156 8.953125 25.140625 L 8.953125 22.132812 C 10.980469 23.300781 13.054688 23.886719 15.175781 23.886719 C 18.578125 23.886719 20.28125 22.910156 20.292969 20.957031 C 20.308594 20.160156 19.996094 19.386719 19.429688 18.820312 L 19.269531 18.664062 L 4 18.664062 L 4 16 L 28 16 L 28 18.664062 L 22.871094 18.664062 Z M 17.433594 14.667969 L 10.171875 14.667969 C 9.9375 14.453125 9.722656 14.222656 9.53125 13.96875 C 8.953125 13.226562 8.667969 12.328125 8.667969 11.269531 C 8.667969 9.621094 9.289062 8.21875 10.53125 7.066406 C 11.773438 5.910156 13.695312 5.332031 16.296875 5.332031 C 18.257812 5.332031 20.132812 5.769531 21.925781 6.644531 L 21.925781 9.515625 C 20.324219 8.597656 18.570312 8.140625 16.664062 8.140625 C 13.355469 8.140625 11.707031 9.183594 11.707031 11.269531 C 11.707031 11.828125 11.996094 12.316406 12.578125 12.734375 C 13.160156 13.152344 13.875 13.484375 14.726562 13.734375 C 15.554688 13.976562 16.457031 14.285156 17.433594 14.667969 Z M 17.433594 14.667969 "/>
</g>
</svg>
