<?xml version="1.0" encoding="UTF-8"?>
<svg xmlns="http://www.w3.org/2000/svg" xmlns:xlink="http://www.w3.org/1999/xlink" width="32" height="32" viewBox="0 0 32 32" version="1.1">
<g id="surface1">
<path style=" stroke:none;fill-rule:nonzero;fill:rgb(0%,0%,0%);fill-opacity:1;" d="M 22.933594 26.667969 L 25.332031 28.667969 L 25.332031 29.332031 L 6.667969 29.332031 L 6.667969 28.667969 L 9.066406 26.667969 L 6.667969 26.667969 C 5.195312 26.667969 4 25.472656 4 24 L 4 9.332031 C 4 6.386719 6.386719 4 9.332031 4 L 22.667969 4 C 25.613281 4 28 6.386719 28 9.332031 L 28 24 C 28 25.472656 26.804688 26.667969 25.332031 26.667969 Z M 14.667969 16 L 14.667969 6.667969 L 9.332031 6.667969 C 7.859375 6.667969 6.667969 7.859375 6.667969 9.332031 L 6.667969 16 Z M 17.332031 16 L 25.332031 16 L 25.332031 9.332031 C 25.332031 7.859375 24.140625 6.667969 22.667969 6.667969 L 17.332031 6.667969 Z M 10 24 C 11.105469 24 12 23.105469 12 22 C 12 20.894531 11.105469 20 10 20 C 8.894531 20 8 20.894531 8 22 C 8 23.105469 8.894531 24 10 24 Z M 22 24 C 23.105469 24 24 23.105469 24 22 C 24 20.894531 23.105469 20 22 20 C 20.894531 20 20 20.894531 20 22 C 20 23.105469 20.894531 24 22 24 Z M 22 24 "/>
</g>
</svg>
