<?xml version="1.0" encoding="UTF-8"?>
<svg xmlns="http://www.w3.org/2000/svg" xmlns:xlink="http://www.w3.org/1999/xlink" width="32" height="32" viewBox="0 0 32 32" version="1.1">
<g id="surface1">
<path style=" stroke:none;fill-rule:nonzero;fill:rgb(0%,0%,0%);fill-opacity:1;" d="M 16 24 C 11.582031 24 8 20.417969 8 16 C 8 11.582031 11.582031 8 16 8 C 20.417969 8 24 11.582031 24 16 C 24 20.417969 20.417969 24 16 24 Z M 16 21.332031 C 18.945312 21.332031 21.332031 18.945312 21.332031 16 C 21.332031 13.054688 18.945312 10.667969 16 10.667969 C 13.054688 10.667969 10.667969 13.054688 10.667969 16 C 10.667969 18.945312 13.054688 21.332031 16 21.332031 Z M 14.667969 1.332031 L 17.332031 1.332031 L 17.332031 5.332031 L 14.667969 5.332031 Z M 14.667969 26.667969 L 17.332031 26.667969 L 17.332031 30.667969 L 14.667969 30.667969 Z M 4.6875 6.570312 L 6.570312 4.6875 L 9.398438 7.515625 L 7.515625 9.398438 L 4.6875 6.574219 Z M 22.601562 24.484375 L 24.484375 22.601562 L 27.3125 25.429688 L 25.429688 27.3125 Z M 25.429688 4.683594 L 27.3125 6.570312 L 24.484375 9.398438 L 22.601562 7.515625 L 25.429688 4.6875 Z M 7.515625 22.601562 L 9.398438 24.484375 L 6.570312 27.3125 L 4.6875 25.429688 Z M 30.667969 14.667969 L 30.667969 17.332031 L 26.667969 17.332031 L 26.667969 14.667969 Z M 5.332031 14.667969 L 5.332031 17.332031 L 1.332031 17.332031 L 1.332031 14.667969 Z M 5.332031 14.667969 "/>
</g>
</svg>
