<?xml version="1.0" encoding="UTF-8"?>
<svg xmlns="http://www.w3.org/2000/svg" xmlns:xlink="http://www.w3.org/1999/xlink" width="32" height="32" viewBox="0 0 32 32" version="1.1">
<defs>
<filter id="alpha" filterUnits="objectBoundingBox" x="0%" y="0%" width="100%" height="100%">
  <feColorMatrix type="matrix" in="SourceGraphic" values="0 0 0 0 1 0 0 0 0 1 0 0 0 0 1 0 0 0 1 0"/>
</filter>
<mask id="mask0">
  <g filter="url(#alpha)">
<rect x="0" y="0" width="32" height="32" style="fill:rgb(0%,0%,0%);fill-opacity:0.996078;stroke:none;"/>
  </g>
</mask>
<clipPath id="clip1">
  <rect x="0" y="0" width="32" height="32"/>
</clipPath>
<g id="surface5" clip-path="url(#clip1)">
<path style=" stroke:none;fill-rule:evenodd;fill:rgb(0%,0%,0%);fill-opacity:1;" d="M 18 0 C 18.160156 0.0195312 14.363281 5.355469 14.523438 5.332031 C 14.683594 5.308594 9.582031 1.207031 9.730469 1.144531 C 9.878906 1.082031 9.257812 7.597656 9.386719 7.5 C 9.515625 7.402344 3.046875 6.398438 3.144531 6.269531 C 3.242188 6.140625 5.960938 12.09375 6.023438 11.945312 C 6.085938 11.796875 -0.0195312 14.160156 0 14 C 0.0195312 13.839844 5.355469 17.636719 5.332031 17.476562 C 5.308594 17.316406 1.207031 22.417969 1.144531 22.269531 C 1.082031 22.121094 7.597656 22.742188 7.5 22.613281 C 7.402344 22.484375 6.398438 28.953125 6.269531 28.855469 C 6.140625 28.757812 12.09375 26.039062 11.945312 25.976562 C 11.796875 25.914062 14.160156 32.019531 14 32 C 13.839844 31.980469 17.636719 26.644531 17.476562 26.667969 C 17.316406 26.691406 22.417969 30.792969 22.269531 30.855469 C 22.121094 30.917969 22.742188 24.402344 22.613281 24.5 C 22.484375 24.597656 28.953125 25.601562 28.855469 25.730469 C 28.757812 25.859375 26.039062 19.90625 25.976562 20.054688 C 25.914062 20.203125 32.019531 17.839844 32 18 C 31.980469 18.160156 26.644531 14.363281 26.667969 14.523438 C 26.691406 14.683594 30.792969 9.582031 30.855469 9.730469 C 30.917969 9.878906 24.402344 9.257812 24.5 9.386719 C 24.597656 9.515625 25.601562 3.046875 25.730469 3.144531 C 25.859375 3.242188 19.90625 5.960938 20.054688 6.023438 C 20.203125 6.085938 17.839844 -0.0195312 18 0 Z M 15.878906 8 C 15.917969 8 15.960938 8 16 8 C 20.417969 8 24 11.582031 24 16 C 24 20.417969 20.417969 24 16 24 C 11.582031 24 8 20.417969 8 16 C 8 11.628906 11.507812 8.066406 15.878906 8 Z M 15.878906 8 "/>
</g>
<mask id="mask1">
  <g filter="url(#alpha)">
<rect x="0" y="0" width="32" height="32" style="fill:rgb(0%,0%,0%);fill-opacity:0.996078;stroke:none;"/>
  </g>
</mask>
<clipPath id="clip2">
  <rect x="0" y="0" width="32" height="32"/>
</clipPath>
<g id="surface8" clip-path="url(#clip2)">
<path style=" stroke:none;fill-rule:evenodd;fill:rgb(0%,0%,0%);fill-opacity:1;" d="M 22 16 C 22 19.3125 19.3125 22 16 22 C 12.6875 22 10 19.3125 10 16 C 10 12.6875 12.6875 10 16 10 C 19.3125 10 22 12.6875 22 16 Z M 22 16 "/>
</g>
</defs>
<g id="surface1">
<use xlink:href="#surface5" mask="url(#mask0)"/>
<use xlink:href="#surface8" mask="url(#mask1)"/>
</g>
</svg>
