<?xml version="1.0" encoding="UTF-8"?>
<svg xmlns="http://www.w3.org/2000/svg" xmlns:xlink="http://www.w3.org/1999/xlink" width="32" height="32" viewBox="0 0 32 32" version="1.1">
<g id="surface1">
<path style=" stroke:none;fill-rule:nonzero;fill:rgb(0%,0%,0%);fill-opacity:1;" d="M 4 4 L 28 4 C 28.738281 4 29.332031 4.597656 29.332031 5.332031 L 29.332031 26.667969 C 29.332031 27.402344 28.738281 28 28 28 L 4 28 C 3.261719 28 2.667969 27.402344 2.667969 26.667969 L 2.667969 5.332031 C 2.667969 4.597656 3.261719 4 4 4 Z M 9.398438 9.496094 C 7.648438 11.242188 6.664062 13.617188 6.667969 16.09375 C 6.667969 18.671875 7.710938 21.003906 9.398438 22.695312 L 11.285156 20.808594 C 10.03125 19.558594 9.332031 17.863281 9.332031 16.09375 C 9.332031 14.253906 10.078125 12.585938 11.285156 11.378906 L 9.398438 9.492188 Z M 22.601562 9.496094 L 20.714844 11.382812 C 21.964844 12.628906 22.667969 14.324219 22.667969 16.09375 C 22.667969 17.933594 21.921875 19.601562 20.714844 20.808594 L 22.601562 22.691406 C 24.351562 20.945312 25.335938 18.570312 25.332031 16.09375 C 25.335938 13.617188 24.351562 11.242188 22.601562 9.492188 Z M 16 20.09375 C 18.210938 20.09375 20 18.304688 20 16.09375 C 20 13.886719 18.210938 12.09375 16 12.09375 C 13.789062 12.09375 12 13.886719 12 16.09375 C 12 18.304688 13.789062 20.09375 16 20.09375 Z M 16 17.429688 C 15.261719 17.429688 14.667969 16.832031 14.667969 16.09375 C 14.667969 15.359375 15.261719 14.761719 16 14.761719 C 16.738281 14.761719 17.332031 15.359375 17.332031 16.09375 C 17.332031 16.832031 16.738281 17.429688 16 17.429688 Z M 16 17.429688 "/>
</g>
</svg>
