<?xml version="1.0" encoding="UTF-8"?>
<svg xmlns="http://www.w3.org/2000/svg" xmlns:xlink="http://www.w3.org/1999/xlink" width="32" height="32" viewBox="0 0 32 32" version="1.1">
<g id="surface1">
<path style=" stroke:none;fill-rule:nonzero;fill:rgb(0%,0%,0%);fill-opacity:1;" d="M 18.160156 28 C 18.046875 28 17.96875 27.925781 17.988281 27.832031 L 17.988281 4.167969 C 17.988281 4.09375 18.046875 4.019531 18.140625 4.019531 L 21.851562 4.019531 C 25.246094 4.019531 28 6.769531 28 10.164062 L 28 21.851562 C 28 25.246094 25.246094 28 21.851562 28 Z M 22.722656 14.765625 C 21.382812 14.765625 20.289062 15.859375 20.289062 17.199219 C 20.289062 18.535156 21.382812 19.628906 22.722656 19.628906 C 24.058594 19.628906 25.152344 18.535156 25.152344 17.199219 C 25.152344 15.859375 24.058594 14.765625 22.722656 14.765625 Z M 7.734375 11.199219 C 7.734375 9.957031 8.75 8.9375 9.996094 8.9375 C 11.238281 8.9375 12.257812 9.957031 12.257812 11.199219 C 12.257812 12.445312 11.238281 13.460938 9.996094 13.460938 C 8.746094 13.457031 7.738281 12.449219 7.734375 11.203125 Z M 15.386719 4 C 15.5 4 15.574219 4.074219 15.558594 4.167969 L 15.558594 27.8125 C 15.558594 27.90625 15.480469 27.984375 15.386719 27.984375 L 10.148438 27.984375 C 6.75 27.984375 4 25.230469 4 21.835938 L 4 10.148438 C 4 6.753906 6.753906 4 10.148438 4 Z M 13.632812 26.058594 L 13.632812 5.921875 L 10.148438 5.921875 C 9.015625 5.921875 7.960938 6.375 7.167969 7.167969 C 6.363281 7.949219 5.914062 9.023438 5.921875 10.148438 L 5.921875 21.835938 C 5.921875 22.964844 6.375 24.019531 7.167969 24.8125 C 7.949219 25.617188 9.023438 26.066406 10.148438 26.058594 Z M 13.632812 26.058594 "/>
</g>
</svg>
