<?xml version="1.0" encoding="UTF-8"?>
<svg xmlns="http://www.w3.org/2000/svg" xmlns:xlink="http://www.w3.org/1999/xlink" width="32" height="32" viewBox="0 0 32 32" version="1.1">
<g id="surface1">
<path style=" stroke:none;fill-rule:nonzero;fill:rgb(0%,0%,0%);fill-opacity:1;" d="M 9.398438 17.875 L 14.113281 22.589844 L 12.226562 24.476562 L 14.113281 26.363281 L 12.230469 28.246094 L 8.929688 24.945312 L 5.15625 28.71875 L 3.273438 26.832031 L 7.042969 23.058594 L 3.742188 19.761719 L 5.628906 17.875 L 7.515625 19.761719 Z M 4 4 L 8.726562 4.003906 L 24.484375 19.761719 L 26.371094 17.875 L 28.257812 19.761719 L 24.957031 23.0625 L 28.726562 26.832031 L 26.84375 28.71875 L 23.070312 24.945312 L 19.769531 28.246094 L 17.886719 26.363281 L 19.769531 24.476562 L 4.003906 8.707031 Z M 23.277344 4 L 28 4.003906 L 28.003906 8.703125 L 22.597656 14.105469 L 17.882812 9.390625 Z M 23.277344 4 "/>
</g>
</svg>
