<?xml version="1.0" encoding="UTF-8"?>
<svg xmlns="http://www.w3.org/2000/svg" xmlns:xlink="http://www.w3.org/1999/xlink" width="32" height="32" viewBox="0 0 32 32" version="1.1">
<g id="surface1">
<path style=" stroke:none;fill-rule:nonzero;fill:rgb(0%,0%,0%);fill-opacity:1;" d="M 28.902344 10.640625 L 27.015625 12.523438 L 24.191406 9.699219 L 21.363281 12.523438 L 26.074219 17.238281 L 24.1875 19.125 L 23.246094 18.179688 L 14.761719 26.667969 L 7.21875 26.667969 L 4.390625 29.496094 L 2.503906 27.609375 L 5.332031 24.78125 L 5.332031 17.238281 L 13.820312 8.753906 L 12.875 7.8125 L 14.761719 5.925781 L 19.476562 10.636719 L 22.300781 7.8125 L 19.476562 4.984375 L 21.363281 3.097656 L 28.902344 10.636719 Z M 21.363281 16.296875 L 15.703125 10.636719 L 13.820312 12.523438 L 16.648438 15.351562 L 14.761719 17.238281 L 11.933594 14.410156 L 10.046875 16.296875 L 12.875 19.125 L 10.992188 21.007812 L 8.160156 18.179688 L 8 18.34375 L 8 24 L 13.65625 24 Z M 21.363281 16.296875 "/>
</g>
</svg>
