<?xml version="1.0" encoding="UTF-8"?>
<svg xmlns="http://www.w3.org/2000/svg" xmlns:xlink="http://www.w3.org/1999/xlink" width="32" height="32" viewBox="0 0 32 32" version="1.1">
<g id="surface1">
<path style=" stroke:none;fill-rule:nonzero;fill:rgb(0%,0%,0%);fill-opacity:1;" d="M 4.769531 11.035156 L 3.175781 13.492188 L 6.109375 15.320312 C 6.109375 15.320312 8.0625 16.324219 7.128906 18.210938 C 6.261719 19.996094 2 23.90625 2 23.90625 L 5.816406 26.300781 C 8.460938 20.535156 8.28125 21.300781 8.945312 19.226562 C 9.628906 17.121094 9.777344 15.503906 8.621094 14.324219 C 7.136719 12.824219 6.972656 12.683594 4.769531 11.035156 Z M 6.851562 10.109375 C 8.238281 10.109375 9.363281 9.101562 9.363281 7.851562 C 9.363281 6.597656 8.238281 5.585938 6.851562 5.585938 C 5.457031 5.585938 4.335938 6.601562 4.335938 7.851562 C 4.34375 9.09375 5.457031 10.109375 6.851562 10.109375 Z M 29.527344 10.390625 C 29.527344 10.390625 28.695312 3.898438 14.585938 7.917969 C 15.191406 6.859375 15.476562 6.175781 15.476562 6.175781 L 11.957031 5.175781 C 11.957031 5.175781 10.53125 9.851562 7.992188 12.03125 C 7.992188 12.03125 10.453125 13.460938 10.429688 13.414062 C 11.097656 12.746094 11.722656 12.035156 12.304688 11.289062 C 12.871094 11.035156 13.410156 10.804688 13.9375 10.589844 C 13.28125 11.773438 12.234375 13.546875 11.179688 14.664062 L 12.664062 15.976562 C 12.664062 15.976562 13.679688 14.992188 14.78125 13.816406 L 16.039062 13.816406 L 16.039062 15.996094 L 11.125 15.996094 L 11.125 17.738281 L 16.039062 17.738281 L 16.039062 21.914062 L 15.851562 21.910156 C 15.308594 21.882812 14.46875 21.792969 14.136719 21.265625 C 13.738281 20.621094 14.035156 19.453125 14.050781 18.726562 L 10.660156 18.726562 L 10.535156 18.796875 C 10.535156 18.796875 9.289062 24.402344 14.121094 24.28125 C 18.636719 24.402344 21.226562 23.007812 22.476562 22.046875 L 22.96875 23.902344 L 25.753906 22.726562 L 23.867188 18.082031 L 21.609375 18.796875 L 22.027344 20.382812 C 21.457031 20.824219 20.789062 21.148438 20.070312 21.390625 L 20.070312 17.738281 L 24.863281 17.738281 L 24.863281 15.992188 L 20.070312 15.992188 L 20.070312 13.808594 L 24.878906 13.808594 L 24.878906 12.066406 L 16.332031 12.066406 C 16.949219 11.308594 17.425781 10.617188 17.558594 10.179688 L 16.0625 9.773438 C 22.457031 7.460938 26.019531 7.859375 25.996094 11.644531 L 25.996094 21.609375 C 25.996094 21.609375 26.371094 25.027344 22.480469 24.785156 L 20.375 24.328125 L 19.882812 26.34375 C 19.882812 26.34375 28.972656 28.96875 29.714844 21.925781 C 30.453125 14.882812 29.527344 10.390625 29.527344 10.390625 Z M 29.527344 10.390625 "/>
</g>
</svg>
