<?xml version="1.0" encoding="UTF-8"?>
<svg xmlns="http://www.w3.org/2000/svg" xmlns:xlink="http://www.w3.org/1999/xlink" width="32" height="32" viewBox="0 0 32 32" version="1.1">
<g id="surface1">
<path style=" stroke:none;fill-rule:nonzero;fill:rgb(0%,0%,0%);fill-opacity:1;" d="M 22.894531 18.667969 L 19.332031 18.667969 L 19.332031 20.5 C 20.066406 20.207031 20.871094 19.847656 21.75 19.421875 L 21.640625 19.101562 Z M 24 18.285156 L 24.160156 18.226562 C 25.015625 20.695312 25.539062 22.242188 25.738281 22.894531 L 23.191406 23.679688 C 23.09375 23.363281 22.902344 22.785156 22.621094 21.957031 C 14.511719 25.804688 11.058594 24.695312 10.609375 19.414062 L 13.269531 19.1875 C 13.402344 20.742188 13.726562 21.351562 14.464844 21.523438 C 14.988281 21.648438 15.71875 21.609375 16.667969 21.386719 L 16.667969 18.667969 L 12 18.667969 L 12 16 L 12.683594 16 L 11.128906 14.148438 C 12.519531 12.980469 13.605469 11.707031 14.390625 10.328125 C 13.703125 10.507812 13.007812 10.703125 12.324219 10.90625 C 11.640625 11.917969 10.855469 12.863281 9.984375 13.71875 L 8.117188 11.816406 C 9.816406 10.152344 11.230469 7.9375 12.351562 5.15625 L 14.824219 6.15625 C 14.625 6.652344 14.414062 7.140625 14.183594 7.625 C 19.121094 6.378906 23.886719 5.871094 26.371094 6.71875 C 28 7.277344 28.929688 8.574219 29.285156 10.164062 C 29.511719 11.171875 29.703125 13.75 29.703125 16.996094 C 29.703125 20.738281 29.628906 22.019531 29.25 23.15625 C 28.851562 24.34375 28.320312 25.046875 27.375 25.800781 C 26.496094 26.5 25.300781 26.820312 23.847656 26.898438 C 22.949219 26.949219 22.023438 26.902344 21.054688 26.792969 C 20.789062 26.765625 20.523438 26.730469 20.257812 26.691406 L 20.609375 24.050781 C 20.859375 24.082031 21.105469 24.113281 21.351562 24.144531 C 22.183594 24.238281 22.972656 24.277344 23.703125 24.238281 C 24.652344 24.183594 25.363281 23.996094 25.710938 23.71875 C 26.28125 23.265625 26.5 22.972656 26.71875 22.3125 C 26.96875 21.574219 27.035156 20.382812 27.035156 16.996094 C 27.035156 13.929688 26.859375 11.523438 26.683594 10.75 C 26.511719 9.980469 26.136719 9.457031 25.507812 9.242188 C 23.898438 8.691406 20.4375 8.984375 16.636719 9.796875 L 17.457031 10.148438 C 17.285156 10.550781 17.09375 10.945312 16.882812 11.332031 L 24 11.332031 L 24 14 L 19.332031 14 L 19.332031 16 L 24 16 Z M 16.667969 14 L 15.054688 14 C 14.445312 14.71875 13.777344 15.386719 13.0625 16 L 16.667969 16 Z M 3.28125 13.414062 L 4.71875 11.167969 C 6.136719 12.074219 8.632812 14.40625 9.171875 15.382812 C 10.824219 18.398438 9.433594 20.953125 5.007812 26.046875 L 2.996094 24.296875 C 6.578125 20.171875 7.660156 18.179688 6.832031 16.667969 C 6.546875 16.148438 4.355469 14.101562 3.28125 13.414062 Z M 6.855469 10.109375 C 5.457031 10.109375 4.34375 9.09375 4.335938 7.851562 C 4.335938 6.601562 5.457031 5.585938 6.851562 5.585938 C 8.238281 5.585938 9.363281 6.597656 9.363281 7.851562 C 9.363281 9.101562 8.238281 10.109375 6.851562 10.109375 Z M 6.855469 10.109375 "/>
</g>
</svg>
