<?xml version="1.0" encoding="UTF-8"?>
<svg xmlns="http://www.w3.org/2000/svg" xmlns:xlink="http://www.w3.org/1999/xlink" width="32" height="32" viewBox="0 0 32 32" version="1.1">
<g id="surface1">
<path style=" stroke:none;fill-rule:nonzero;fill:rgb(0%,0%,0%);fill-opacity:1;" d="M 10.667969 13.671875 L 10.667969 6.667969 C 10.667969 3.722656 13.054688 1.332031 16 1.332031 C 18.945312 1.332031 21.332031 3.722656 21.332031 6.667969 L 21.332031 13.671875 C 24.679688 16.003906 26.125 20.238281 24.90625 24.128906 C 23.683594 28.019531 20.078125 30.667969 16 30.667969 C 11.921875 30.667969 8.316406 28.019531 7.09375 24.128906 C 5.875 20.238281 7.320312 16.003906 10.667969 13.671875 Z M 10.667969 21.332031 C 10.667969 24.277344 13.054688 26.667969 16 26.667969 C 18.945312 26.667969 21.332031 24.277344 21.332031 21.332031 Z M 10.667969 21.332031 "/>
</g>
</svg>
