<?xml version="1.0" encoding="UTF-8"?>
<svg xmlns="http://www.w3.org/2000/svg" xmlns:xlink="http://www.w3.org/1999/xlink" width="32" height="32" viewBox="0 0 32 32" version="1.1">
<g id="surface1">
<path style=" stroke:none;fill-rule:evenodd;fill:rgb(0%,0%,0%);fill-opacity:1;" d="M 10 0 L 10 4.632812 L 6.71875 1.300781 L 5.285156 2.703125 L 10 7.492188 L 10 10 L 7.492188 10 L 2.703125 5.285156 L 1.300781 6.71875 L 4.632812 10 L 0 10 L 0 12 L 4.742188 12 L 1.3125 15.28125 L 2.6875 16.726562 L 7.621094 12 L 10 12 L 10 14.507812 L 5.285156 19.296875 L 6.71875 20.699219 L 10 17.367188 L 10 22 L 12 22 L 12 17.257812 L 15.28125 20.6875 L 16.726562 19.3125 L 12 14.378906 L 12 12 L 14.378906 12 L 19.3125 16.726562 L 20.6875 15.28125 L 17.257812 12 L 22 12 L 22 10 L 17.367188 10 L 20.699219 6.71875 L 19.296875 5.285156 L 14.507812 10 L 12 10 L 12 7.621094 L 16.726562 2.6875 L 15.28125 1.3125 L 12 4.742188 L 12 0 Z M 22 0 C 20.710938 0 19.578125 0.617188 18.847656 1.558594 L 19.191406 1.90625 L 20.292969 3.015625 C 20.636719 2.417969 21.257812 2 22 2 L 24 2 C 25.109375 2 26 2.890625 26 4 L 26 16.675781 C 28.441406 17.835938 30 20.296875 30 23 C 30 26.867188 26.867188 30 23 30 C 19.132812 30 16 26.867188 16 23 C 16 22.351562 16.09375 21.714844 16.265625 21.109375 L 14.046875 23.480469 C 14.300781 28.222656 18.195312 32 23 32 C 27.96875 32 32 27.96875 32 23 C 32 19.992188 30.5 17.1875 28 15.515625 L 28 4 C 28 1.785156 26.214844 0 24 0 Z M 22 16 L 22 18.105469 C 19.671875 18.582031 18.003906 20.625 18 23 C 18 25.761719 20.238281 28 23 28 C 25.761719 28 28 25.761719 28 23 C 28 20.625 26.328125 18.578125 24 18.101562 L 24 16 Z M 22 16 "/>
</g>
</svg>
