<?xml version="1.0" encoding="UTF-8"?>
<svg xmlns="http://www.w3.org/2000/svg" xmlns:xlink="http://www.w3.org/1999/xlink" width="32" height="32" viewBox="0 0 32 32" version="1.1">
<g id="surface1">
<path style=" stroke:none;fill-rule:nonzero;fill:rgb(0%,0%,0%);fill-opacity:1;" d="M 20 24 L 22 24 C 23.839844 24 25.332031 22.507812 25.332031 20.667969 C 25.332031 18.824219 23.839844 17.332031 22 17.332031 L 4 17.332031 L 4 14.667969 L 22 14.667969 C 25.3125 14.667969 28 17.351562 28 20.667969 C 28 23.980469 25.3125 26.667969 22 26.667969 L 20 26.667969 L 20 29.332031 L 14.667969 25.332031 L 20 21.332031 Z M 4 5.332031 L 28 5.332031 L 28 8 L 4 8 Z M 12 24 L 12 26.667969 L 4 26.667969 L 4 24 Z M 12 24 "/>
</g>
</svg>
