<?xml version="1.0" encoding="UTF-8"?>
<svg xmlns="http://www.w3.org/2000/svg" xmlns:xlink="http://www.w3.org/1999/xlink" width="32" height="32" viewBox="0 0 32 32" version="1.1">
<g id="surface1">
<path style=" stroke:none;fill-rule:nonzero;fill:rgb(0%,0%,0%);fill-opacity:1;" d="M 22.652344 24 L 24.273438 21.894531 C 24.738281 21.289062 24.816406 20.472656 24.480469 19.789062 C 24.144531 19.105469 23.449219 18.671875 22.6875 18.671875 L 20 18.671875 L 20 13.371094 C 20 12.515625 19.453125 11.753906 18.644531 11.476562 C 17.832031 11.203125 16.933594 11.472656 16.414062 12.152344 L 7.925781 23.195312 C 3.222656 21.25 0.550781 16.25 1.539062 11.257812 C 2.53125 6.265625 6.910156 2.667969 12 2.667969 C 16.398438 2.667969 20.347656 5.367188 21.945312 9.464844 C 24.679688 8.9375 27.476562 10.007812 29.164062 12.226562 C 30.851562 14.441406 31.136719 17.425781 29.902344 19.921875 C 28.664062 22.417969 26.121094 24 23.332031 24 Z M 17.332031 21.339844 L 21.332031 21.339844 L 14.667969 30.007812 L 14.667969 24.007812 L 10.667969 24.007812 L 17.332031 15.332031 Z M 17.332031 21.339844 "/>
</g>
</svg>
