<?xml version="1.0" encoding="UTF-8"?>
<svg xmlns="http://www.w3.org/2000/svg" xmlns:xlink="http://www.w3.org/1999/xlink" width="32" height="32" viewBox="0 0 32 32" version="1.1">
<g id="surface1">
<path style=" stroke:none;fill-rule:nonzero;fill:rgb(0%,0%,0%);fill-opacity:1;" d="M 8.507812 7.957031 C 10.632812 6.253906 13.277344 5.328125 16 5.332031 C 18.832031 5.332031 21.4375 6.316406 23.492188 7.957031 L 25.429688 6.019531 L 27.3125 7.90625 L 25.375 9.84375 C 29.296875 14.75 28.769531 21.851562 24.164062 26.125 C 19.558594 30.402344 12.441406 30.402344 7.835938 26.125 C 3.230469 21.851562 2.703125 14.75 6.625 9.84375 L 4.6875 7.90625 L 6.570312 6.019531 Z M 16 26.667969 C 21.15625 26.667969 25.332031 22.488281 25.332031 17.332031 C 25.332031 12.179688 21.15625 8 16 8 C 10.84375 8 6.667969 12.179688 6.667969 17.332031 C 6.667969 22.488281 10.84375 26.667969 16 26.667969 Z M 17.332031 16 L 21.332031 16 L 14.667969 24.667969 L 14.667969 18.667969 L 10.667969 18.667969 L 17.332031 9.992188 Z M 10.667969 1.332031 L 21.332031 1.332031 L 21.332031 4 L 10.667969 4 Z M 10.667969 1.332031 "/>
</g>
</svg>
