<?xml version="1.0" encoding="UTF-8"?>
<svg xmlns="http://www.w3.org/2000/svg" xmlns:xlink="http://www.w3.org/1999/xlink" width="32" height="32" viewBox="0 0 32 32" version="1.1">
<g id="surface1">
<path style=" stroke:none;fill-rule:nonzero;fill:rgb(0%,0%,0%);fill-opacity:1;" d="M 20 -0.0820312 C 16.515625 -0.117188 12 -0.0820312 12 -0.0820312 L 12 5.917969 L 20 5.917969 M 6.660156 6.921875 C 0.640625 12.113281 -0.0625 21.175781 5.09375 27.15625 C 10.253906 33.136719 19.304688 33.785156 25.339844 28.578125 C 31.359375 23.386719 32.0625 14.324219 26.90625 8.34375 C 21.746094 2.367188 12.683594 1.726562 6.660156 6.921875 Z M 23.265625 26.171875 C 18.574219 30.21875 11.535156 29.722656 7.519531 25.066406 C 3.503906 20.410156 4.046875 13.371094 8.734375 9.328125 C 13.425781 5.285156 20.464844 5.777344 24.480469 10.4375 C 28.496094 15.09375 27.953125 22.128906 23.265625 26.171875 Z M 23.265625 26.171875 "/>
<path style=" stroke:none;fill-rule:evenodd;fill:rgb(0%,0%,0%);fill-opacity:1;" d="M 16 9.453125 C 19.023438 9.453125 21.820312 11.066406 23.332031 13.6875 C 24.84375 16.304688 24.84375 19.53125 23.332031 22.152344 L 16 17.917969 Z M 16 9.453125 "/>
</g>
</svg>
