<?xml version="1.0" encoding="UTF-8"?>
<svg xmlns="http://www.w3.org/2000/svg" xmlns:xlink="http://www.w3.org/1999/xlink" width="32" height="32" viewBox="0 0 32 32" version="1.1">
<g id="surface1">
<path style=" stroke:none;fill-rule:nonzero;fill:rgb(0%,0%,0%);fill-opacity:1;" d="M 7.105469 4.363281 C 8.925781 3.710938 10.960938 4.25 12.21875 5.71875 C 13.476562 7.1875 13.699219 9.277344 12.777344 10.980469 L 27.058594 25.257812 L 25.171875 27.144531 L 10.890625 12.863281 C 9.191406 13.78125 7.101562 13.554688 5.636719 12.296875 C 4.171875 11.042969 3.628906 9.011719 4.277344 7.191406 L 7.257812 10.171875 C 7.761719 10.691406 8.503906 10.902344 9.203125 10.71875 C 9.902344 10.535156 10.449219 9.988281 10.632812 9.289062 C 10.816406 8.589844 10.605469 7.847656 10.085938 7.34375 L 7.105469 4.359375 Z M 20.929688 6.875 L 25.171875 4.515625 L 27.058594 6.402344 L 24.699219 10.644531 L 22.34375 11.117188 L 19.515625 13.945312 L 17.628906 12.058594 L 20.457031 9.230469 Z M 11.972656 17.714844 L 13.855469 19.601562 L 6.785156 26.671875 C 6.289062 27.171875 5.484375 27.195312 4.957031 26.726562 C 4.429688 26.257812 4.359375 25.457031 4.796875 24.902344 L 4.902344 24.785156 Z M 11.972656 17.714844 "/>
</g>
</svg>
