<?xml version="1.0" encoding="UTF-8"?>
<svg xmlns="http://www.w3.org/2000/svg" xmlns:xlink="http://www.w3.org/1999/xlink" width="32" height="32" viewBox="0 0 32 32" version="1.1">
<g id="surface1">
<path style=" stroke:none;fill-rule:nonzero;fill:rgb(0%,0%,0%);fill-opacity:1;" d="M 9.332031 5.332031 L 9.332031 4 C 9.332031 3.261719 9.929688 2.667969 10.667969 2.667969 L 21.332031 2.667969 C 22.070312 2.667969 22.667969 3.261719 22.667969 4 L 22.667969 5.332031 L 26.667969 5.332031 C 26.667969 8.667969 23.332031 10 22.667969 10 L 22.667969 13.332031 L 26.667969 13.332031 C 26.667969 16.667969 23.332031 18 22.667969 18 L 22.667969 21.332031 L 26.667969 21.332031 C 26.667969 24.667969 23.332031 26 22.667969 26 L 22.667969 28 C 22.667969 28.738281 22.070312 29.332031 21.332031 29.332031 L 10.667969 29.332031 C 9.929688 29.332031 9.332031 28.738281 9.332031 28 L 9.332031 26 C 8.667969 26 5.332031 24.667969 5.332031 21.332031 L 9.332031 21.332031 L 9.332031 18 C 8.667969 18 5.332031 16.667969 5.332031 13.332031 L 9.332031 13.332031 L 9.332031 10 C 8.667969 10 5.332031 8.667969 5.332031 5.332031 Z M 16 26.667969 C 17.472656 26.667969 18.667969 25.472656 18.667969 24 C 18.667969 22.527344 17.472656 21.332031 16 21.332031 C 14.527344 21.332031 13.332031 22.527344 13.332031 24 C 13.332031 25.472656 14.527344 26.667969 16 26.667969 Z M 16 18.667969 C 17.472656 18.667969 18.667969 17.472656 18.667969 16 C 18.667969 14.527344 17.472656 13.332031 16 13.332031 C 14.527344 13.332031 13.332031 14.527344 13.332031 16 C 13.332031 17.472656 14.527344 18.667969 16 18.667969 Z M 16 10.667969 C 17.472656 10.667969 18.667969 9.472656 18.667969 8 C 18.667969 6.527344 17.472656 5.332031 16 5.332031 C 14.527344 5.332031 13.332031 6.527344 13.332031 8 C 13.332031 9.472656 14.527344 10.667969 16 10.667969 Z M 16 10.667969 "/>
</g>
</svg>
