<?xml version="1.0" encoding="UTF-8"?>
<svg xmlns="http://www.w3.org/2000/svg" xmlns:xlink="http://www.w3.org/1999/xlink" width="32" height="32" viewBox="0 0 32 32" version="1.1">
<g id="surface1">
<path style=" stroke:none;fill-rule:nonzero;fill:rgb(0%,0%,0%);fill-opacity:1;" d="M 24.667969 13.332031 L 30.535156 28 L 27.660156 28 L 26.058594 24 L 20.605469 24 L 19.007812 28 L 16.132812 28 L 22 13.332031 Z M 13.332031 2.667969 L 13.332031 5.332031 L 21.332031 5.332031 L 21.332031 8 L 18.710938 8 C 17.679688 11.097656 16.039062 13.953125 13.882812 16.402344 C 14.84375 17.257812 15.886719 18.023438 16.996094 18.675781 L 15.996094 21.179688 C 14.5625 20.367188 13.222656 19.402344 12 18.300781 C 9.617188 20.457031 6.796875 22.070312 3.730469 23.03125 L 3.015625 20.457031 C 5.644531 19.621094 8.0625 18.238281 10.121094 16.402344 C 8.597656 14.679688 7.332031 12.75 6.355469 10.667969 L 9.34375 10.667969 C 10.085938 12.039062 10.976562 13.324219 12 14.503906 C 13.667969 12.582031 14.980469 10.378906 15.878906 8 L 2.667969 8 L 2.667969 5.332031 L 10.667969 5.332031 L 10.667969 2.667969 Z M 23.332031 17.179688 L 21.671875 21.332031 L 24.992188 21.332031 Z M 23.332031 17.179688 "/>
</g>
</svg>
