<?xml version="1.0" encoding="UTF-8"?>
<svg xmlns="http://www.w3.org/2000/svg" xmlns:xlink="http://www.w3.org/1999/xlink" width="32" height="32" viewBox="0 0 32 32" version="1.1">
<g id="surface1">
<path style=" stroke:none;fill-rule:nonzero;fill:rgb(0%,0%,0%);fill-opacity:1;" d="M 2.667969 6.667969 L 12 2.667969 L 20 6.667969 L 28.402344 3.066406 C 28.609375 2.976562 28.847656 3 29.035156 3.121094 C 29.222656 3.246094 29.332031 3.453125 29.332031 3.679688 L 29.332031 25.332031 L 20 29.332031 L 12 25.332031 L 3.597656 28.933594 C 3.390625 29.023438 3.152344 29 2.964844 28.878906 C 2.777344 28.753906 2.667969 28.546875 2.667969 28.320312 Z M 8 14.667969 L 8 17.332031 L 10.667969 17.332031 L 10.667969 14.667969 Z M 13.332031 14.667969 L 13.332031 17.332031 L 16 17.332031 L 16 14.667969 Z M 21.332031 14.585938 L 19.683594 12.9375 L 18.269531 14.347656 L 19.917969 16 L 18.269531 17.648438 L 19.683594 19.0625 L 21.332031 17.414062 L 22.984375 19.0625 L 24.398438 17.652344 L 22.746094 16 L 24.398438 14.351562 L 22.984375 12.9375 Z M 21.332031 14.585938 "/>
</g>
</svg>
