<?xml version="1.0" encoding="UTF-8"?>
<svg xmlns="http://www.w3.org/2000/svg" xmlns:xlink="http://www.w3.org/1999/xlink" width="32" height="32" viewBox="0 0 32 32" version="1.1">
<g id="surface1">
<path style=" stroke:none;fill-rule:nonzero;fill:rgb(0%,0%,0%);fill-opacity:1;" d="M 16.648438 0.207031 C 16.351562 0.210938 16.058594 0.242188 15.769531 0.296875 C 13.574219 0.714844 11.628906 2.355469 10.433594 4.390625 C 8.917969 5.117188 7.574219 6.058594 6.628906 7.425781 C 5.644531 8.847656 5.15625 10.714844 5.167969 13.023438 C 3.832031 14.808594 3.050781 16.578125 3.246094 18.160156 C 3.464844 19.914062 4.539062 21.347656 5.890625 22.351562 C 8.175781 24.050781 11.203125 24.113281 13.746094 23.472656 L 13.746094 28.375 L 10.320312 31.800781 L 23.148438 31.800781 L 19.738281 28.375 L 19.738281 23.828125 C 23.0625 24.742188 26.1875 23.652344 27.695312 21.128906 C 29.363281 18.332031 29.113281 14.363281 26.21875 11.351562 C 26.265625 9.148438 25.847656 7.410156 24.890625 6.261719 C 23.941406 5.125 22.65625 4.570312 21.394531 4.058594 C 20.851562 2.699219 20.175781 1.5625 19.238281 0.945312 C 18.441406 0.421875 17.539062 0.195312 16.648438 0.207031 Z M 16.648438 0.207031 "/>
</g>
</svg>
