<?xml version="1.0" encoding="UTF-8"?>
<svg xmlns="http://www.w3.org/2000/svg" xmlns:xlink="http://www.w3.org/1999/xlink" width="32" height="32" viewBox="0 0 32 32" version="1.1">
<g id="surface1">
<path style=" stroke:none;fill-rule:nonzero;fill:rgb(0%,0%,0%);fill-opacity:1;" d="M 11.953125 24 C 11.625 26.300781 9.65625 28.007812 7.332031 28.007812 C 5.011719 28.007812 3.042969 26.300781 2.714844 24 L 1.332031 24 L 1.332031 8 C 1.332031 7.261719 1.929688 6.667969 2.667969 6.667969 L 21.332031 6.667969 C 22.070312 6.667969 22.667969 7.261719 22.667969 8 L 22.667969 10.667969 L 26.667969 10.667969 L 30.667969 16.074219 L 30.667969 24 L 27.953125 24 C 27.625 26.300781 25.65625 28.007812 23.332031 28.007812 C 21.011719 28.007812 19.042969 26.300781 18.714844 24 Z M 20 9.332031 L 4 9.332031 L 4 20.066406 C 5.066406 18.976562 6.601562 18.476562 8.105469 18.730469 C 9.609375 18.980469 10.898438 19.953125 11.550781 21.332031 L 19.117188 21.332031 C 19.339844 20.863281 19.640625 20.433594 20 20.066406 Z M 22.667969 17.332031 L 28 17.332031 L 28 16.953125 L 25.324219 13.332031 L 22.667969 13.332031 Z M 23.332031 25.332031 C 24.4375 25.332031 25.335938 24.4375 25.335938 23.332031 C 25.335938 22.226562 24.4375 21.332031 23.332031 21.332031 C 22.226562 21.332031 21.332031 22.226562 21.332031 23.332031 C 21.332031 24.4375 22.226562 25.332031 23.332031 25.332031 Z M 9.332031 23.332031 C 9.332031 22.230469 8.4375 21.332031 7.332031 21.332031 C 6.230469 21.332031 5.332031 22.230469 5.332031 23.332031 C 5.332031 24.4375 6.230469 25.332031 7.332031 25.332031 C 8.4375 25.332031 9.332031 24.4375 9.332031 23.332031 Z M 9.332031 23.332031 "/>
</g>
</svg>
