<?xml version="1.0" encoding="UTF-8"?>
<svg xmlns="http://www.w3.org/2000/svg" xmlns:xlink="http://www.w3.org/1999/xlink" width="32" height="32" viewBox="0 0 32 32" version="1.1">
<g id="surface1">
<path style=" stroke:none;fill-rule:nonzero;fill:rgb(0%,0%,0%);fill-opacity:1;" d="M 22.667969 10.667969 L 26.667969 10.667969 L 30.667969 16.074219 L 30.667969 24 L 27.953125 24 C 27.625 26.300781 25.65625 28.007812 23.332031 28.007812 C 21.011719 28.007812 19.042969 26.300781 18.714844 24 L 11.953125 24 C 11.625 26.300781 9.65625 28.007812 7.332031 28.007812 C 5.011719 28.007812 3.042969 26.300781 2.714844 24 L 1.332031 24 L 1.332031 8 C 1.332031 7.261719 1.929688 6.667969 2.667969 6.667969 L 21.332031 6.667969 C 22.070312 6.667969 22.667969 7.261719 22.667969 8 Z M 22.667969 13.332031 L 22.667969 17.332031 L 28 17.332031 L 28 16.953125 L 25.324219 13.332031 Z M 22.667969 13.332031 "/>
</g>
</svg>
