<?xml version="1.0" encoding="UTF-8"?>
<svg xmlns="http://www.w3.org/2000/svg" xmlns:xlink="http://www.w3.org/1999/xlink" width="32" height="32" viewBox="0 0 32 32" version="1.1">
<g id="surface1">
<path style=" stroke:none;fill-rule:nonzero;fill:rgb(0%,0%,0%);fill-opacity:1;" d="M 16 1.332031 L 20 8 L 17.332031 8 L 17.332031 17.839844 L 21.332031 15.84375 L 21.332031 14.667969 L 20 14.667969 L 20 9.332031 L 25.332031 9.332031 L 25.332031 14.667969 L 24 14.667969 L 24 17.492188 L 17.332031 20.824219 L 17.332031 22.894531 C 18.886719 23.445312 20 24.925781 20 26.667969 C 20 28.875 18.210938 30.667969 16 30.667969 C 13.789062 30.667969 12 28.875 12 26.667969 C 12 25.085938 12.921875 23.714844 14.253906 23.066406 L 8 18.667969 L 8 15.644531 C 7.203125 15.179688 6.667969 14.320312 6.667969 13.332031 C 6.667969 11.859375 7.859375 10.667969 9.332031 10.667969 C 10.808594 10.667969 12 11.859375 12 13.332031 C 12 14.320312 11.464844 15.183594 10.667969 15.644531 L 10.667969 17.332031 L 14.667969 20.113281 L 14.667969 8 L 12 8 Z M 16 25.332031 C 15.265625 25.332031 14.667969 25.929688 14.667969 26.667969 C 14.667969 27.402344 15.265625 28 16 28 C 16.734375 28 17.332031 27.402344 17.332031 26.667969 C 17.332031 25.929688 16.734375 25.332031 16 25.332031 Z M 16 25.332031 "/>
</g>
</svg>
