<?xml version="1.0" encoding="UTF-8"?>
<svg xmlns="http://www.w3.org/2000/svg" xmlns:xlink="http://www.w3.org/1999/xlink" width="32" height="32" viewBox="0 0 32 32" version="1.1">
<g id="surface1">
<path style=" stroke:none;fill-rule:nonzero;fill:rgb(0%,0%,0%);fill-opacity:1;" d="M 23.789062 20.878906 L 24.023438 21.113281 L 24.261719 20.878906 C 25.429688 19.707031 27.332031 19.707031 28.503906 20.878906 C 29.675781 22.050781 29.675781 23.949219 28.503906 25.121094 L 24.023438 29.601562 L 19.546875 25.121094 C 18.375 23.949219 18.375 22.050781 19.546875 20.878906 C 20.71875 19.707031 22.617188 19.707031 23.789062 20.878906 Z M 16 18.667969 L 16 21.332031 C 11.582031 21.332031 8 24.914062 8 29.332031 L 5.332031 29.332031 C 5.332031 23.570312 9.910156 18.851562 15.667969 18.671875 Z M 16 1.332031 C 20.421875 1.332031 24 4.914062 24 9.332031 C 24 13.636719 20.597656 17.167969 16.300781 17.328125 L 16 17.332031 C 11.578125 17.332031 8 13.753906 8 9.332031 C 8 5.03125 11.402344 1.5 15.699219 1.339844 Z M 16 4 C 13.054688 4 10.667969 6.386719 10.667969 9.332031 C 10.667969 12.28125 13.054688 14.667969 16 14.667969 C 18.945312 14.667969 21.332031 12.28125 21.332031 9.332031 C 21.332031 6.386719 18.945312 4 16 4 Z M 16 4 "/>
</g>
</svg>
