<?xml version="1.0" encoding="UTF-8"?>
<svg xmlns="http://www.w3.org/2000/svg" xmlns:xlink="http://www.w3.org/1999/xlink" width="32" height="32" viewBox="0 0 32 32" version="1.1">
<g id="surface1">
<path style=" stroke:none;fill-rule:nonzero;fill:rgb(0%,0%,0%);fill-opacity:1;" d="M 16 22.667969 C 20.882812 22.667969 25.152344 24.765625 27.476562 27.898438 L 25.019531 29.0625 C 23.128906 26.820312 19.796875 25.332031 16 25.332031 C 12.203125 25.332031 8.871094 26.820312 6.980469 29.0625 L 4.523438 27.898438 C 6.847656 24.765625 11.117188 22.667969 16 22.667969 Z M 16 2.667969 C 19.683594 2.667969 22.667969 5.652344 22.667969 9.332031 L 22.667969 13.332031 C 22.667969 17.015625 19.683594 20 16 20 C 12.316406 20 9.332031 17.015625 9.332031 13.332031 L 9.332031 9.332031 C 9.332031 5.652344 12.316406 2.667969 16 2.667969 Z M 16 2.667969 "/>
</g>
</svg>
