<?xml version="1.0" encoding="UTF-8"?>
<svg xmlns="http://www.w3.org/2000/svg" xmlns:xlink="http://www.w3.org/1999/xlink" width="32" height="32" viewBox="0 0 32 32" version="1.1">
<g id="surface1">
<path style=" stroke:none;fill-rule:nonzero;fill:rgb(0%,0%,0%);fill-opacity:1;" d="M 6.667969 26.667969 L 25.332031 26.667969 L 25.332031 29.332031 L 6.667969 29.332031 Z M 16 24 C 10.109375 24 5.332031 19.222656 5.332031 13.332031 C 5.332031 7.441406 10.109375 2.667969 16 2.667969 C 21.890625 2.667969 26.667969 7.441406 26.667969 13.332031 C 26.667969 19.222656 21.890625 24 16 24 Z M 16 21.332031 C 20.417969 21.332031 24 17.75 24 13.332031 C 24 8.914062 20.417969 5.332031 16 5.332031 C 11.582031 5.332031 8 8.914062 8 13.332031 C 8 17.75 11.582031 21.332031 16 21.332031 Z M 16 21.332031 "/>
</g>
</svg>
