<?xml version="1.0" encoding="UTF-8"?>
<svg xmlns="http://www.w3.org/2000/svg" xmlns:xlink="http://www.w3.org/1999/xlink" width="32" height="32" viewBox="0 0 32 32" version="1.1">
<g id="surface1">
<path style=" stroke:none;fill-rule:nonzero;fill:rgb(0%,0%,0%);fill-opacity:1;" d="M 18.667969 19.003906 L 18.667969 29.332031 L 5.332031 29.332031 C 5.332031 26.035156 6.859375 22.917969 9.46875 20.898438 C 12.074219 18.878906 15.472656 18.179688 18.667969 19.003906 Z M 16 17.332031 C 11.578125 17.332031 8 13.753906 8 9.332031 C 8 4.914062 11.578125 1.332031 16 1.332031 C 20.421875 1.332031 24 4.914062 24 9.332031 C 24 13.753906 20.421875 17.332031 16 17.332031 Z M 26.667969 22.667969 L 30.667969 22.667969 L 30.667969 25.332031 L 26.667969 25.332031 L 26.667969 30 L 20 24 L 26.667969 18 Z M 26.667969 22.667969 "/>
</g>
</svg>
