<?xml version="1.0" encoding="UTF-8"?>
<svg xmlns="http://www.w3.org/2000/svg" xmlns:xlink="http://www.w3.org/1999/xlink" width="32" height="32" viewBox="0 0 32 32" version="1.1">
<g id="surface1">
<path style=" stroke:none;fill-rule:nonzero;fill:rgb(0%,0%,0%);fill-opacity:1;" d="M 9.851562 22.050781 C 6.054688 19.371094 4.425781 14.542969 5.832031 10.109375 C 7.238281 5.679688 11.351562 2.667969 16 2.667969 C 20.648438 2.667969 24.761719 5.679688 26.167969 10.109375 C 27.574219 14.542969 25.945312 19.371094 22.148438 22.050781 L 24.925781 28.398438 C 25.015625 28.605469 24.996094 28.84375 24.871094 29.03125 C 24.75 29.21875 24.539062 29.332031 24.3125 29.332031 L 7.6875 29.332031 C 7.460938 29.332031 7.25 29.21875 7.128906 29.03125 C 7.003906 28.84375 6.984375 28.605469 7.074219 28.398438 Z M 10.824219 14.625 C 11.421875 17 13.554688 18.660156 16 18.660156 C 18.445312 18.660156 20.578125 17 21.175781 14.625 L 18.589844 13.980469 C 18.292969 15.167969 17.226562 16.003906 16 16.003906 C 14.773438 16.003906 13.707031 15.167969 13.410156 13.980469 Z M 10.824219 14.625 "/>
</g>
</svg>
