<?xml version="1.0" encoding="UTF-8"?>
<svg xmlns="http://www.w3.org/2000/svg" xmlns:xlink="http://www.w3.org/1999/xlink" width="32" height="32" viewBox="0 0 32 32" version="1.1">
<g id="surface1">
<path style=" stroke:none;fill-rule:nonzero;fill:rgb(0%,0%,0%);fill-opacity:1;" d="M 15.882812 2.003906 C 11.511719 2.070312 8.003906 5.632812 8.003906 10.003906 C 8.003906 14.421875 11.585938 18.003906 16.003906 18.003906 C 20.421875 18.003906 24.003906 14.421875 24.003906 10.003906 C 24.003906 5.585938 20.421875 2.003906 16.003906 2.003906 C 15.964844 2.003906 15.921875 2.003906 15.882812 2.003906 Z M 7.992188 18.9375 C 6.234375 18.941406 4.765625 19.628906 3.679688 20.605469 C 2.589844 21.585938 1.835938 22.824219 1.304688 24.03125 C 0.242188 26.449219 0.00390625 28.832031 0.00390625 28.832031 L -0.113281 29.996094 L 32.113281 29.996094 L 31.996094 28.832031 C 31.996094 28.832031 31.761719 26.449219 30.699219 24.03125 C 30.167969 22.824219 29.425781 21.585938 28.335938 20.605469 C 27.246094 19.625 25.777344 18.9375 24.011719 18.9375 C 21.8125 20.910156 18.960938 22.003906 16.003906 22.003906 C 13.046875 22.003906 10.195312 20.910156 7.992188 18.9375 Z M 7.992188 18.9375 "/>
</g>
</svg>
