<?xml version="1.0" encoding="UTF-8"?>
<svg xmlns="http://www.w3.org/2000/svg" xmlns:xlink="http://www.w3.org/1999/xlink" width="32" height="32" viewBox="0 0 32 32" version="1.1">
<g id="surface1">
<path style=" stroke:none;fill-rule:nonzero;fill:rgb(0%,0%,0%);fill-opacity:1;" d="M 15.882812 2.003906 C 11.511719 2.070312 8.003906 5.632812 8.003906 10.003906 C 8.003906 14.421875 11.585938 18.003906 16.003906 18.003906 C 20.421875 18.003906 24.003906 14.421875 24.003906 10.003906 C 24.003906 5.585938 20.421875 2.003906 16.003906 2.003906 C 15.964844 2.003906 15.921875 2.003906 15.882812 2.003906 Z M 7.992188 18.9375 C 6.234375 18.941406 4.765625 19.628906 3.679688 20.605469 C 2.589844 21.585938 1.835938 22.824219 1.304688 24.03125 C 0.242188 26.449219 0.00390625 28.832031 0.00390625 28.832031 L -0.113281 29.996094 L 17.128906 29.996094 C 17.203125 29.738281 17.289062 29.484375 17.421875 29.253906 L 20.640625 23.496094 L 20.640625 21.039062 C 19.179688 21.652344 17.613281 22.003906 16.003906 22.003906 C 13.046875 22.003906 10.195312 20.910156 7.992188 18.9375 Z M 7.992188 18.9375 "/>
<path style=" stroke:none;fill-rule:nonzero;fill:rgb(0%,0%,0%);fill-opacity:1;" d="M 23.09375 18 C 22.609375 18 22.21875 18.324219 22.21875 18.730469 L 22.21875 19.019531 C 22.21875 19.425781 22.609375 19.75 23.09375 19.75 L 23.09375 24.125 L 19.570312 30.46875 C 19.390625 30.789062 19.398438 31.179688 19.582031 31.492188 C 19.765625 31.808594 20.105469 32 20.46875 32 L 30.96875 32 C 31.335938 32 31.671875 31.808594 31.859375 31.492188 C 32.042969 31.179688 32.046875 30.789062 31.871094 30.46875 L 28.34375 24.125 L 28.34375 19.75 C 28.828125 19.75 29.21875 19.425781 29.21875 19.019531 L 29.21875 18.730469 C 29.21875 18.324219 28.828125 18 28.34375 18 Z M 25.703125 19.09375 C 26.484375 19.09375 27.269531 19.3125 27.015625 19.75 L 27.015625 24.125 L 29.042969 27.625 L 22.398438 27.625 L 24.390625 24.125 L 24.390625 19.75 C 24.136719 19.3125 24.921875 19.09375 25.703125 19.09375 Z M 25.703125 19.09375 "/>
</g>
</svg>
