<?xml version="1.0" encoding="UTF-8"?>
<svg xmlns="http://www.w3.org/2000/svg" xmlns:xlink="http://www.w3.org/1999/xlink" width="32" height="32" viewBox="0 0 32 32" version="1.1">
<g id="surface1">
<path style=" stroke:none;fill-rule:nonzero;fill:rgb(0%,0%,0%);fill-opacity:1;" d="M 16.003906 0 C 9.390625 0 4.003906 5.390625 4 12.003906 C 4.003906 14.210938 5.792969 16 8 16 L 9.074219 16 C 10.359375 18.226562 12.632812 19.703125 15.191406 19.964844 C 15.339844 18.925781 16.007812 17.976562 17.039062 17.570312 C 19.109375 16.753906 20.671875 15.015625 21.246094 12.875 C 21.378906 12.382812 21.660156 11.976562 22 11.628906 L 22 15.992188 C 20.988281 17.527344 19.527344 18.742188 17.773438 19.433594 C 17.257812 19.636719 17.011719 20.214844 17.214844 20.730469 C 17.417969 21.246094 17.996094 21.496094 18.511719 21.292969 C 21.054688 20.289062 23.101562 18.382812 24.304688 15.988281 C 26.332031 15.832031 27.917969 14.183594 27.996094 12.152344 C 27.996094 12.148438 27.996094 12.148438 27.996094 12.144531 C 27.996094 12.128906 28 12.113281 28 12.097656 C 28.003906 12.066406 28.007812 12.035156 28.007812 12.003906 C 28.007812 5.386719 22.621094 0 16.003906 0 Z M 16.003906 1.992188 C 20.113281 1.992188 23.617188 4.464844 25.15625 8 L 22.921875 8 C 21.492188 5.53125 18.855469 4.011719 16.003906 4.007812 C 15.964844 4.007812 15.921875 4.007812 15.882812 4.007812 C 13.070312 4.050781 10.488281 5.566406 9.082031 8 L 6.839844 8 C 8.382812 4.464844 11.894531 1.992188 16.003906 1.992188 Z M 7.992188 20.941406 C 6.234375 20.945312 4.765625 21.632812 3.679688 22.609375 C 2.589844 23.589844 1.835938 24.828125 1.304688 26.035156 C 0.242188 28.453125 0.00390625 30.835938 0.00390625 30.835938 L -0.113281 32 L 32.113281 32 L 31.996094 30.835938 C 31.996094 30.835938 31.761719 28.453125 30.699219 26.035156 C 30.167969 24.828125 29.425781 23.589844 28.335938 22.609375 C 27.246094 21.628906 25.777344 20.941406 24.011719 20.941406 C 21.8125 22.914062 18.960938 24.007812 16.003906 24.007812 C 13.046875 24.007812 10.195312 22.914062 7.992188 20.941406 Z M 7.992188 20.941406 "/>
</g>
</svg>
