<?xml version="1.0" encoding="UTF-8"?>
<svg xmlns="http://www.w3.org/2000/svg" xmlns:xlink="http://www.w3.org/1999/xlink" width="32" height="32" viewBox="0 0 32 32" version="1.1">
<g id="surface1">
<path style=" stroke:none;fill-rule:nonzero;fill:rgb(0%,0%,0%);fill-opacity:1;" d="M 17.332031 8 L 17.332031 5.332031 L 6.667969 5.332031 L 6.667969 2.667969 L 20 2.667969 L 20 8 L 21.332031 8 C 22.070312 8 22.667969 8.597656 22.667969 9.332031 L 22.667969 12.265625 L 29.617188 7.398438 C 29.820312 7.257812 30.085938 7.238281 30.308594 7.355469 C 30.527344 7.46875 30.667969 7.699219 30.667969 7.945312 L 30.667969 24.054688 C 30.667969 24.300781 30.527344 24.53125 30.308594 24.644531 C 30.085938 24.761719 29.820312 24.742188 29.617188 24.601562 L 22.667969 19.734375 L 22.667969 25.332031 C 22.667969 26.070312 22.070312 26.667969 21.332031 26.667969 L 2.667969 26.667969 C 1.929688 26.667969 1.332031 26.070312 1.332031 25.332031 L 1.332031 9.332031 C 1.332031 8.597656 1.929688 8 2.667969 8 Z M 20 10.667969 L 4 10.667969 L 4 24 L 20 24 Z M 22.667969 16.480469 L 28 20.210938 L 28 11.785156 L 22.667969 15.519531 Z M 6.667969 13.332031 L 9.332031 13.332031 L 9.332031 16 L 6.667969 16 Z M 6.667969 13.332031 "/>
</g>
</svg>
