<?xml version="1.0" encoding="UTF-8"?>
<svg xmlns="http://www.w3.org/2000/svg" xmlns:xlink="http://www.w3.org/1999/xlink" width="32" height="32" viewBox="0 0 32 32" version="1.1">
<g id="surface1">
<path style=" stroke:none;fill-rule:nonzero;fill:rgb(0%,0%,0%);fill-opacity:1;" d="M 23.992188 4.003906 C 27.234375 4.003906 29.332031 6.019531 29.332031 10 C 29.332031 12.292969 28 15.253906 26.886719 16.980469 C 23.167969 22.757812 18.578125 28.632812 14.03125 28.632812 C 9.089844 28.632812 7.804688 19.523438 7.242188 17.390625 C 6.679688 15.257812 6.53125 14.445312 5.679688 13.078125 C 5.257812 13.375 4.667969 13.785156 3.90625 14.320312 C 3.609375 14.53125 3.199219 14.460938 2.984375 14.164062 L 1.234375 11.742188 C 1.050781 11.492188 1.066406 11.152344 1.269531 10.914062 C 5.039062 6.554688 8.171875 4.371094 10.667969 4.371094 C 13.855469 4.371094 14.832031 8.125 15.097656 10 C 15.5 12.824219 16.019531 16.320312 16.757812 17.832031 C 17.5 16.773438 19.664062 13.980469 19.378906 12.511719 C 19.253906 11.863281 17.625 12.753906 16.863281 12.613281 C 16.296875 12.507812 15.789062 12.078125 15.789062 11.246094 C 15.789062 9.5 18.257812 4.007812 23.992188 4.007812 Z M 24 6.671875 C 21.074219 6.671875 19.664062 8.714844 19.128906 9.617188 C 20.796875 9.675781 21.757812 10.707031 21.972656 12.019531 C 22.492188 15.125 19.417969 18.578125 18.855469 19.441406 C 18.328125 20.242188 14.773438 23.878906 13.1875 14.960938 C 13.039062 14.121094 12.699219 12.074219 12.300781 9.378906 C 12.074219 7.84375 11.136719 7.027344 10.660156 7.027344 C 9.539062 7.027344 8.101562 7.894531 5.519531 10.382812 C 8.0625 10.226562 8.914062 13.414062 9.410156 15.226562 C 10.496094 19.203125 11.503906 25.964844 14.234375 25.964844 C 16.539062 25.964844 20.15625 22.4375 24.0625 16.578125 C 24.339844 16.164062 26.683594 12.546875 26.683594 9.867188 C 26.683594 6.671875 24.726562 6.671875 24 6.671875 Z M 24 6.671875 "/>
</g>
</svg>
