<?xml version="1.0" encoding="UTF-8"?>
<svg xmlns="http://www.w3.org/2000/svg" xmlns:xlink="http://www.w3.org/1999/xlink" width="32" height="32" viewBox="0 0 32 32" version="1.1">
<g id="surface1">
<path style=" stroke:none;fill-rule:nonzero;fill:rgb(0%,0%,0%);fill-opacity:1;" d="M 1.5625 11.066406 C 1.1875 10.515625 1.226562 10.515625 2 9.839844 C 3.644531 8.394531 5.191406 6.816406 6.984375 5.554688 C 8.601562 4.421875 10.75 3.6875 12.21875 5.492188 C 13.570312 7.160156 13.601562 9.683594 13.945312 11.691406 C 14.289062 13.777344 14.617188 15.910156 15.347656 17.90625 C 15.550781 18.46875 15.9375 19.53125 16.636719 19.617188 C 17.542969 19.742188 18.460938 18.15625 18.882812 17.566406 C 19.96875 15.992188 21.449219 13.875 21.261719 11.851562 C 21.078125 9.703125 18.757812 10.105469 17.308594 10.617188 C 17.539062 8.207031 19.785156 5.496094 21.945312 4.578125 C 24.238281 3.625 27.648438 3.644531 28.800781 6.226562 C 30.03125 9.03125 28.925781 12.285156 27.585938 14.824219 C 26.121094 17.582031 24.238281 20.132812 22.226562 22.519531 C 20.453125 24.636719 18.351562 26.957031 15.707031 27.96875 C 12.683594 29.121094 10.894531 26.878906 9.863281 24.277344 C 8.738281 21.445312 8.179688 18.269531 7.371094 15.320312 C 7.03125 14.074219 6.625 12.660156 5.816406 11.628906 C 4.757812 10.304688 3.558594 11.550781 2.515625 12.265625 C 2.15625 11.910156 1.863281 11.457031 1.5625 11.066406 Z M 1.5625 11.066406 "/>
</g>
</svg>
