<?xml version="1.0" encoding="UTF-8"?>
<svg xmlns="http://www.w3.org/2000/svg" xmlns:xlink="http://www.w3.org/1999/xlink" width="32" height="32" viewBox="0 0 32 32" version="1.1">
<g id="surface1">
<path style=" stroke:none;fill-rule:nonzero;fill:rgb(0%,0%,0%);fill-opacity:1;" d="M 2.667969 25.332031 L 29.332031 25.332031 L 29.332031 28 L 2.667969 28 Z M 14.667969 10.667969 L 17.332031 10.667969 L 17.332031 21.332031 L 14.667969 21.332031 Z M 10.621094 10.667969 L 13.453125 10.667969 L 9.472656 21.285156 L 6.804688 21.285156 L 2.824219 10.667969 L 5.65625 10.667969 L 8.136719 17.484375 Z M 22.667969 18.667969 L 22.667969 21.332031 L 20 21.332031 L 20 10.667969 L 25.332031 10.667969 C 27.542969 10.667969 29.332031 12.457031 29.332031 14.667969 C 29.332031 16.875 27.542969 18.667969 25.332031 18.667969 Z M 22.667969 13.332031 L 22.667969 16 L 25.332031 16 C 26.070312 16 26.667969 15.402344 26.667969 14.667969 C 26.667969 13.929688 26.070312 13.332031 25.332031 13.332031 Z M 2.667969 4 L 29.332031 4 L 29.332031 6.667969 L 2.667969 6.667969 Z M 2.667969 4 "/>
</g>
</svg>
