<?xml version="1.0" encoding="UTF-8"?>
<svg xmlns="http://www.w3.org/2000/svg" xmlns:xlink="http://www.w3.org/1999/xlink" width="32" height="32" viewBox="0 0 32 32" version="1.1">
<g id="surface1">
<path style=" stroke:none;fill-rule:nonzero;fill:rgb(0%,0%,0%);fill-opacity:1;" d="M 1.332031 5.332031 L 30.667969 5.332031 L 30.667969 8 L 1.332031 8 Z M 1.332031 24 L 30.667969 24 L 30.667969 26.667969 L 1.332031 26.667969 Z M 26.164062 19.886719 L 25.929688 18.726562 L 23.332031 18.726562 L 22.917969 19.875 L 20.835938 19.878906 C 22.175781 16.671875 23.167969 14.292969 23.816406 12.75 C 23.988281 12.34375 24.289062 12.140625 24.730469 12.144531 C 25.070312 12.144531 25.621094 12.144531 26.390625 12.144531 L 28 19.882812 Z M 23.917969 17.136719 L 25.59375 17.136719 L 24.964844 14.230469 Z M 10.496094 12.140625 L 12.589844 12.144531 L 9.351562 19.886719 L 7.234375 19.882812 C 6.515625 17.125 5.992188 15.074219 5.65625 13.742188 C 5.550781 13.335938 5.347656 13.050781 4.953125 12.914062 C 4.601562 12.792969 4.019531 12.609375 3.199219 12.355469 L 3.199219 12.144531 L 6.546875 12.144531 C 7.125 12.144531 7.460938 12.421875 7.570312 12.996094 L 8.398438 17.382812 Z M 15.464844 12.144531 L 13.8125 19.882812 L 11.820312 19.882812 L 13.472656 12.140625 Z M 19.507812 12 C 20.101562 12 20.855469 12.183594 21.285156 12.355469 L 20.9375 13.960938 C 20.546875 13.804688 19.902344 13.59375 19.363281 13.601562 C 18.578125 13.613281 18.09375 13.941406 18.09375 14.257812 C 18.09375 14.769531 18.933594 15.03125 19.804688 15.589844 C 20.792969 16.230469 20.925781 16.804688 20.910156 17.429688 C 20.898438 18.722656 19.804688 20 17.492188 20 C 16.4375 19.984375 16.058594 19.894531 15.199219 19.59375 L 15.5625 17.917969 C 16.4375 18.28125 16.808594 18.398438 17.554688 18.398438 C 18.242188 18.398438 18.832031 18.121094 18.835938 17.640625 C 18.839844 17.296875 18.628906 17.128906 17.859375 16.707031 C 17.089844 16.28125 16.011719 15.699219 16.027344 14.519531 C 16.042969 13.011719 17.476562 12 19.507812 12 Z M 19.507812 12 "/>
</g>
</svg>
