<?xml version="1.0" encoding="UTF-8"?>
<svg xmlns="http://www.w3.org/2000/svg" xmlns:xlink="http://www.w3.org/1999/xlink" width="32" height="32" viewBox="0 0 32 32" version="1.1">
<g id="surface1">
<path style=" stroke:none;fill-rule:evenodd;fill:rgb(0%,0%,0%);fill-opacity:1;" d="M 8.929688 2 C 8.691406 2.003906 8.453125 2.015625 8.214844 2.039062 C 4.730469 2.34375 1.742188 4.636719 0.542969 7.925781 C 0.0117188 9.390625 -0.132812 10.964844 0.125 12.503906 L 8.417969 12.503906 L 11.59375 6.996094 C 11.792969 6.648438 12.171875 6.453125 12.566406 6.496094 C 12.960938 6.539062 13.292969 6.808594 13.410156 7.1875 L 17.203125 18.867188 L 20.113281 13.050781 C 20.285156 12.71875 20.625 12.507812 20.996094 12.503906 L 31.871094 12.503906 C 32.136719 10.941406 31.984375 9.339844 31.433594 7.859375 C 30.203125 4.558594 27.160156 2.277344 23.644531 2.027344 C 20.707031 1.816406 17.851562 3.058594 16 5.351562 C 14.277344 3.214844 11.675781 1.984375 8.929688 2.003906 Z M 12.214844 9.945312 L 9.867188 13.992188 C 9.6875 14.304688 9.355469 14.492188 8.996094 14.492188 L 0.707031 14.492188 C 1.160156 15.566406 1.816406 16.539062 2.636719 17.363281 L 16 30 L 29.363281 17.363281 C 30.1875 16.539062 30.84375 15.566406 31.292969 14.492188 L 21.617188 14.492188 L 17.898438 21.933594 C 17.71875 22.296875 17.335938 22.515625 16.929688 22.488281 C 16.527344 22.457031 16.179688 22.1875 16.050781 21.800781 Z M 12.214844 9.945312 "/>
</g>
</svg>
