<?xml version="1.0" encoding="UTF-8"?>
<svg xmlns="http://www.w3.org/2000/svg" xmlns:xlink="http://www.w3.org/1999/xlink" width="32" height="32" viewBox="0 0 32 32" version="1.1">
<defs>
<filter id="alpha" filterUnits="objectBoundingBox" x="0%" y="0%" width="100%" height="100%">
  <feColorMatrix type="matrix" in="SourceGraphic" values="0 0 0 0 1 0 0 0 0 1 0 0 0 0 1 0 0 0 1 0"/>
</filter>
<mask id="mask0">
  <g filter="url(#alpha)">
<rect x="0" y="0" width="32" height="32" style="fill:rgb(0%,0%,0%);fill-opacity:0.996078;stroke:none;"/>
  </g>
</mask>
<clipPath id="clip1">
  <rect x="0" y="0" width="32" height="32"/>
</clipPath>
<g id="surface5" clip-path="url(#clip1)">
<path style=" stroke:none;fill-rule:evenodd;fill:rgb(0%,0%,0%);fill-opacity:1;" d="M 6.863281 6 C 5.175781 6 4.226562 6.929688 3.4375 8.117188 C 3.808594 8.0625 4.179688 8.015625 4.566406 8.015625 L 27.433594 8.015625 C 27.824219 8.015625 28.199219 8.058594 28.570312 8.117188 C 27.78125 6.929688 26.832031 6 25.148438 6 Z M 6.863281 6 "/>
</g>
<mask id="mask1">
  <g filter="url(#alpha)">
<rect x="0" y="0" width="32" height="32" style="fill:rgb(0%,0%,0%);fill-opacity:0.996078;stroke:none;"/>
  </g>
</mask>
<clipPath id="clip2">
  <rect x="0" y="0" width="32" height="32"/>
</clipPath>
<g id="surface8" clip-path="url(#clip2)">
<path style=" stroke:none;fill-rule:evenodd;fill:rgb(0%,0%,0%);fill-opacity:1;" d="M 4.570312 10 C 2.039062 10 0 12.007812 0 14.5 L 0 23.5 C 0 25.992188 2.039062 28 4.570312 28 L 11.429688 28 C 11.429688 25.507812 13.46875 23.5 16 23.5 C 18.53125 23.5 20.570312 25.507812 20.570312 28 L 27.429688 28 C 29.960938 28 32 25.992188 32 23.5 L 32 14.5 C 32 12.007812 29.960938 10 27.429688 10 Z M 4.570312 10 "/>
</g>
</defs>
<g id="surface1">
<use xlink:href="#surface5" mask="url(#mask0)"/>
<use xlink:href="#surface8" mask="url(#mask1)"/>
</g>
</svg>
