<?xml version="1.0" encoding="UTF-8"?>
<svg xmlns="http://www.w3.org/2000/svg" xmlns:xlink="http://www.w3.org/1999/xlink" width="32" height="32" viewBox="0 0 32 32" version="1.1">
<g id="surface1">
<path style=" stroke:none;fill-rule:nonzero;fill:rgb(0%,0%,0%);fill-opacity:1;" d="M 0.00390625 0.00390625 L 0.00390625 31.996094 L 31.996094 31.996094 L 31.996094 0.00390625 Z M 1.996094 1.996094 L 30.003906 1.996094 L 30.003906 30.003906 L 10.855469 30.003906 C 10.855469 30.003906 10.871094 28.640625 11.195312 27.226562 C 11.355469 26.519531 11.59375 25.808594 11.902344 25.292969 C 12.210938 24.777344 12.558594 24.480469 12.953125 24.378906 C 13.976562 24.113281 16.863281 24.167969 19.316406 24.363281 C 21.769531 24.558594 23.890625 24.851562 23.890625 24.851562 C 24.152344 24.882812 24.417969 24.789062 24.601562 24.597656 L 28.601562 20.597656 C 28.78125 20.421875 28.871094 20.175781 28.851562 19.921875 C 28.832031 19.671875 28.699219 19.445312 28.496094 19.296875 L 14.722656 9.464844 L 12.816406 3.722656 C 12.695312 3.378906 12.371094 3.148438 12.007812 3.148438 C 11.75 3.148438 11.507812 3.261719 11.34375 3.457031 L 1.996094 14.726562 Z M 13.585938 11.488281 C 13.847656 11.472656 14.105469 11.539062 14.324219 11.679688 L 15.386719 12.359375 C 15.964844 12.722656 16.144531 13.488281 15.785156 14.070312 C 15.609375 14.351562 15.328125 14.554688 15.003906 14.628906 C 14.679688 14.707031 14.339844 14.648438 14.058594 14.472656 L 12.996094 13.792969 C 12.414062 13.425781 12.238281 12.660156 12.597656 12.078125 C 12.8125 11.730469 13.179688 11.511719 13.585938 11.488281 Z M 13.585938 11.488281 "/>
</g>
</svg>
