<?xml version="1.0" encoding="UTF-8"?>
<svg xmlns="http://www.w3.org/2000/svg" xmlns:xlink="http://www.w3.org/1999/xlink" width="32" height="32" viewBox="0 0 32 32" version="1.1">
<g id="surface1">
<path style=" stroke:none;fill-rule:nonzero;fill:rgb(0%,0%,0%);fill-opacity:1;" d="M 7.277344 24.246094 C 4.476562 22.234375 2.667969 19.199219 2.667969 15.878906 C 2.667969 9.765625 8.632812 4.800781 16 4.800781 C 23.367188 4.800781 29.332031 9.765625 29.332031 15.878906 C 29.332031 21.988281 23.367188 26.953125 16 26.953125 C 14.523438 26.960938 13.054688 26.753906 11.636719 26.339844 C 11.515625 26.296875 11.347656 26.296875 11.226562 26.296875 C 10.980469 26.296875 10.734375 26.378906 10.527344 26.503906 L 7.605469 28.183594 C 7.53125 28.230469 7.445312 28.257812 7.359375 28.265625 C 7.109375 28.265625 6.910156 28.066406 6.90625 27.816406 C 6.90625 27.691406 6.945312 27.609375 6.988281 27.488281 C 7.027344 27.445312 7.398438 26.09375 7.605469 25.273438 C 7.605469 25.1875 7.644531 25.066406 7.644531 24.984375 C 7.644531 24.65625 7.523438 24.410156 7.277344 24.246094 Z M 11.554688 14.015625 C 12.511719 14.015625 13.269531 13.257812 13.269531 12.300781 C 13.269531 11.34375 12.511719 10.585938 11.554688 10.585938 C 10.597656 10.585938 9.84375 11.34375 9.84375 12.300781 C 9.84375 13.257812 10.597656 14.015625 11.554688 14.015625 Z M 20.445312 14.015625 C 21.402344 14.015625 22.15625 13.257812 22.15625 12.300781 C 22.15625 11.34375 21.402344 10.585938 20.445312 10.585938 C 19.488281 10.585938 18.730469 11.34375 18.730469 12.300781 C 18.730469 13.257812 19.488281 14.015625 20.445312 14.015625 Z M 20.445312 14.015625 "/>
</g>
</svg>
