<?xml version="1.0" encoding="UTF-8"?>
<svg xmlns="http://www.w3.org/2000/svg" xmlns:xlink="http://www.w3.org/1999/xlink" width="32" height="32" viewBox="0 0 32 32" version="1.1">
<g id="surface1">
<path style=" stroke:none;fill-rule:nonzero;fill:rgb(0%,0%,0%);fill-opacity:1;" d="M 25.527344 11.992188 L 12.460938 19.46875 L 12.367188 19.53125 C 12.242188 19.589844 12.105469 19.621094 11.96875 19.621094 C 11.644531 19.621094 11.347656 19.445312 11.195312 19.160156 L 11.132812 19.039062 L 8.691406 13.773438 C 8.660156 13.710938 8.660156 13.648438 8.660156 13.589844 C 8.660156 13.34375 8.847656 13.160156 9.09375 13.160156 C 9.1875 13.160156 9.28125 13.191406 9.371094 13.253906 L 12.246094 15.273438 C 12.460938 15.394531 12.710938 15.488281 12.988281 15.488281 C 13.144531 15.484375 13.304688 15.453125 13.449219 15.394531 L 24.484375 10.53125 C 22.578125 8.363281 19.511719 6.933594 16 6.933594 C 10.105469 6.933594 5.464844 10.960938 5.464844 15.734375 C 5.464844 17.554688 6.132812 19.296875 7.375 20.773438 C 7.441406 20.851562 7.535156 20.957031 7.660156 21.089844 C 8.722656 22.191406 9.257812 23.699219 9.128906 25.222656 L 9.097656 25.621094 L 10.050781 25.039062 C 11.128906 24.378906 12.410156 24.128906 13.65625 24.324219 C 13.941406 24.367188 14.171875 24.402344 14.351562 24.425781 C 14.890625 24.496094 15.445312 24.535156 16 24.535156 C 21.894531 24.535156 26.535156 20.503906 26.535156 15.734375 C 26.535156 14.40625 26.171875 13.132812 25.527344 11.992188 Z M 8.257812 29.257812 C 7.828125 29.523438 7.285156 29.527344 6.855469 29.265625 C 6.425781 29 6.179688 28.515625 6.222656 28.015625 L 6.472656 25.003906 C 6.535156 24.238281 6.269531 23.488281 5.738281 22.933594 C 5.597656 22.792969 5.464844 22.644531 5.332031 22.492188 C 3.742188 20.597656 2.800781 18.261719 2.800781 15.734375 C 2.800781 9.398438 8.710938 4.265625 16 4.265625 C 23.289062 4.265625 29.199219 9.398438 29.199219 15.734375 C 29.199219 22.066406 23.289062 27.199219 16 27.199219 C 15.320312 27.199219 14.652344 27.15625 14 27.070312 C 13.746094 27.035156 13.496094 26.996094 13.242188 26.957031 C 12.617188 26.859375 11.980469 26.984375 11.4375 27.316406 Z M 8.257812 29.257812 "/>
</g>
</svg>
