<?xml version="1.0" encoding="UTF-8"?>
<svg xmlns="http://www.w3.org/2000/svg" xmlns:xlink="http://www.w3.org/1999/xlink" width="32" height="32" viewBox="0 0 32 32" version="1.1">
<g id="surface1">
<path style=" stroke:none;fill-rule:nonzero;fill:rgb(0%,0%,0%);fill-opacity:1;" d="M 9.671875 24.660156 L 10.636719 25.222656 C 12.265625 26.171875 14.117188 26.671875 16 26.667969 C 21.890625 26.667969 26.667969 21.890625 26.667969 16 C 26.667969 10.109375 21.890625 5.332031 16 5.332031 C 10.109375 5.332031 5.332031 10.109375 5.332031 16 C 5.332031 17.914062 5.835938 19.75 6.777344 21.367188 L 7.339844 22.332031 L 6.46875 25.53125 Z M 2.671875 29.332031 L 4.476562 22.710938 C 3.285156 20.671875 2.664062 18.355469 2.667969 16 C 2.667969 8.636719 8.636719 2.667969 16 2.667969 C 23.363281 2.667969 29.332031 8.636719 29.332031 16 C 29.332031 23.363281 23.363281 29.332031 16 29.332031 C 13.644531 29.335938 11.328125 28.714844 9.292969 27.527344 Z M 11.1875 9.742188 C 11.367188 9.730469 11.546875 9.730469 11.726562 9.738281 C 11.796875 9.742188 11.871094 9.753906 11.941406 9.761719 C 12.152344 9.785156 12.386719 9.914062 12.464844 10.09375 C 12.863281 10.992188 13.25 11.902344 13.621094 12.8125 C 13.707031 13.015625 13.65625 13.273438 13.5 13.527344 C 13.390625 13.699219 13.273438 13.863281 13.148438 14.023438 C 12.996094 14.21875 12.671875 14.570312 12.671875 14.570312 C 12.671875 14.570312 12.542969 14.730469 12.59375 14.925781 C 12.609375 15 12.671875 15.109375 12.726562 15.199219 L 12.808594 15.324219 C 13.148438 15.894531 13.605469 16.472656 14.167969 17.015625 C 14.328125 17.171875 14.484375 17.328125 14.652344 17.476562 C 15.273438 18.027344 15.980469 18.476562 16.742188 18.8125 L 16.75 18.8125 C 16.863281 18.863281 16.921875 18.890625 17.085938 18.960938 C 17.167969 18.996094 17.253906 19.023438 17.339844 19.046875 C 17.523438 19.09375 17.71875 19.027344 17.832031 18.875 C 18.796875 17.707031 18.882812 17.628906 18.890625 17.628906 L 18.890625 17.632812 C 19.027344 17.503906 19.210938 17.445312 19.394531 17.460938 C 19.476562 17.46875 19.558594 17.484375 19.632812 17.515625 C 20.339844 17.839844 21.5 18.34375 21.5 18.34375 L 22.273438 18.691406 C 22.40625 18.757812 22.523438 18.902344 22.527344 19.046875 C 22.535156 19.136719 22.542969 19.28125 22.511719 19.542969 C 22.46875 19.890625 22.363281 20.304688 22.261719 20.519531 C 22.1875 20.667969 22.09375 20.804688 21.980469 20.925781 C 21.84375 21.066406 21.699219 21.195312 21.539062 21.308594 C 21.484375 21.347656 21.429688 21.390625 21.375 21.429688 C 21.207031 21.535156 21.035156 21.632812 20.863281 21.722656 C 20.519531 21.902344 20.140625 22.007812 19.753906 22.027344 C 19.503906 22.042969 19.257812 22.058594 19.011719 22.046875 C 19 22.046875 18.253906 21.929688 18.253906 21.929688 C 16.359375 21.433594 14.605469 20.496094 13.132812 19.203125 C 12.832031 18.9375 12.554688 18.652344 12.269531 18.367188 C 11.082031 17.1875 10.183594 15.914062 9.640625 14.710938 C 9.363281 14.121094 9.210938 13.480469 9.199219 12.828125 C 9.195312 12.015625 9.460938 11.230469 9.953125 10.585938 C 10.050781 10.460938 10.140625 10.332031 10.300781 10.179688 C 10.46875 10.019531 10.574219 9.933594 10.691406 9.875 C 10.847656 9.796875 11.015625 9.753906 11.1875 9.742188 Z M 11.1875 9.742188 "/>
</g>
</svg>
