<?xml version="1.0" encoding="UTF-8"?>
<svg xmlns="http://www.w3.org/2000/svg" xmlns:xlink="http://www.w3.org/1999/xlink" width="32" height="32" viewBox="0 0 32 32" version="1.1">
<g id="surface1">
<path style=" stroke:none;fill-rule:nonzero;fill:rgb(0%,0%,0%);fill-opacity:1;" d="M 10.667969 13.789062 L 10.667969 16.714844 C 9.070312 17.636719 8 19.359375 8 21.332031 C 8 24.28125 10.386719 26.667969 13.332031 26.667969 C 15.308594 26.667969 17.03125 25.59375 17.953125 24 L 20.878906 24 C 19.78125 27.105469 16.816406 29.332031 13.332031 29.332031 C 8.914062 29.332031 5.332031 25.753906 5.332031 21.332031 C 5.332031 17.847656 7.558594 14.886719 10.667969 13.789062 Z M 16 22.667969 C 13.789062 22.667969 12 20.875 12 18.667969 L 12 13.332031 C 12 11.941406 12.710938 10.714844 13.789062 10 C 12.710938 9.285156 12 8.058594 12 6.667969 C 12 4.457031 13.789062 2.667969 16 2.667969 C 18.210938 2.667969 20 4.457031 20 6.667969 C 20 8.058594 19.289062 9.285156 18.210938 10 C 19.289062 10.714844 20 11.941406 20 13.332031 L 20 20 L 21.910156 20 C 22.777344 20 23.582031 20.417969 24.078125 21.113281 L 24.199219 21.292969 L 27.808594 27.316406 L 25.523438 28.683594 L 21.910156 22.667969 L 20 22.664062 Z M 16 12 C 15.265625 12 14.667969 12.597656 14.667969 13.332031 L 14.667969 18.667969 C 14.667969 19.402344 15.265625 20 16 20 L 17.332031 20 L 17.332031 13.332031 C 17.332031 12.597656 16.734375 12 16 12 Z M 16 5.332031 C 15.265625 5.332031 14.667969 5.929688 14.667969 6.667969 C 14.667969 7.402344 15.265625 8 16 8 C 16.734375 8 17.332031 7.402344 17.332031 6.667969 C 17.332031 5.929688 16.734375 5.332031 16 5.332031 Z M 16 5.332031 "/>
</g>
</svg>
