<?xml version="1.0" encoding="UTF-8"?>
<svg xmlns="http://www.w3.org/2000/svg" xmlns:xlink="http://www.w3.org/1999/xlink" width="32" height="32" viewBox="0 0 32 32" version="1.1">
<g id="surface1">
<path style=" stroke:none;fill-rule:nonzero;fill:rgb(0%,0%,0%);fill-opacity:1;" d="M 0.921875 9.328125 C 5.183594 5.875 10.511719 3.992188 16 4 C 21.714844 4 26.960938 5.996094 31.078125 9.328125 L 28.566406 12.441406 C 25.011719 9.5625 20.574219 7.992188 16 8 C 11.238281 8 6.867188 9.664062 3.433594 12.441406 Z M 5.109375 14.515625 C 8.1875 12.019531 12.035156 10.660156 16 10.667969 C 20.125 10.667969 23.914062 12.109375 26.890625 14.515625 L 24.378906 17.625 C 22.007812 15.707031 19.050781 14.660156 16 14.667969 C 12.828125 14.667969 9.910156 15.777344 7.621094 17.625 Z M 9.296875 19.703125 C 11.191406 18.167969 13.558594 17.328125 16 17.332031 C 18.539062 17.332031 20.871094 18.21875 22.703125 19.703125 L 20.1875 22.8125 C 19.003906 21.855469 17.523438 21.332031 16 21.332031 C 14.476562 21.332031 12.996094 21.855469 11.8125 22.8125 Z M 13.488281 24.890625 C 14.199219 24.3125 15.085938 24 16 24 C 16.953125 24 17.828125 24.332031 18.511719 24.886719 L 16 28 L 13.488281 24.886719 Z M 13.488281 24.890625 "/>
</g>
</svg>
