<?xml version="1.0" encoding="UTF-8"?>
<svg xmlns="http://www.w3.org/2000/svg" xmlns:xlink="http://www.w3.org/1999/xlink" width="32" height="32" viewBox="0 0 32 32" version="1.1">
<g id="surface1">
<path style=" stroke:none;fill-rule:nonzero;fill:rgb(0%,0%,0%);fill-opacity:1;" d="M 16 24 C 16.953125 24 17.828125 24.332031 18.515625 24.886719 L 16 28 L 13.484375 24.886719 C 14.195312 24.3125 15.085938 24 16 24 Z M 3.742188 1.855469 L 27.3125 25.429688 L 25.429688 27.3125 L 20.519531 22.40625 L 20.1875 22.816406 C 19.003906 21.855469 17.523438 21.332031 16 21.332031 C 14.476562 21.332031 12.996094 21.855469 11.8125 22.8125 L 9.296875 19.703125 C 11.050781 18.28125 13.210938 17.457031 15.460938 17.347656 L 13.097656 14.984375 C 11.09375 15.429688 9.21875 16.335938 7.621094 17.625 L 5.105469 14.515625 C 6.542969 13.351562 8.15625 12.425781 9.886719 11.773438 L 7.847656 9.734375 C 6.265625 10.441406 4.78125 11.351562 3.433594 12.441406 L 0.917969 9.328125 C 2.136719 8.34375 3.457031 7.476562 4.855469 6.738281 L 1.855469 3.742188 Z M 21.445312 15.828125 L 16.289062 10.671875 L 16 10.667969 C 20.125 10.667969 23.914062 12.109375 26.894531 14.515625 L 24.378906 17.628906 C 23.484375 16.902344 22.496094 16.296875 21.445312 15.824219 Z M 16 4 C 21.714844 4 26.960938 5.996094 31.078125 9.328125 L 28.566406 12.441406 C 25.011719 9.558594 20.574219 7.992188 16 8 C 15.238281 8 14.484375 8.042969 13.746094 8.125 L 10.296875 4.679688 C 12.125 4.234375 14.035156 4 16 4 Z M 16 4 "/>
</g>
</svg>
