<?xml version="1.0" encoding="UTF-8"?>
<svg xmlns="http://www.w3.org/2000/svg" xmlns:xlink="http://www.w3.org/1999/xlink" width="32" height="32" viewBox="0 0 32 32" version="1.1">
<g id="surface1">
<path style=" stroke:none;fill-rule:nonzero;fill:rgb(0%,0%,0%);fill-opacity:1;" d="M 14 22.667969 L 5.332031 22.667969 L 5.332031 20 L 14 20 C 16.363281 20 18.351562 21.765625 18.632812 24.109375 C 18.914062 26.457031 17.398438 28.640625 15.105469 29.199219 C 12.808594 29.761719 10.460938 28.519531 9.628906 26.308594 L 12.125 25.371094 C 12.480469 26.316406 13.488281 26.847656 14.472656 26.609375 C 15.457031 26.371094 16.105469 25.433594 15.984375 24.429688 C 15.863281 23.421875 15.011719 22.667969 14 22.667969 Z M 6.667969 14.667969 L 24.667969 14.667969 C 27.027344 14.667969 29.015625 16.433594 29.296875 18.777344 C 29.578125 21.121094 28.066406 23.308594 25.769531 23.867188 C 23.476562 24.425781 21.125 23.183594 20.296875 20.972656 L 22.792969 20.035156 C 23.148438 20.984375 24.15625 21.515625 25.140625 21.277344 C 26.121094 21.035156 26.773438 20.101562 26.652344 19.09375 C 26.53125 18.089844 25.679688 17.332031 24.667969 17.332031 L 6.667969 17.332031 C 4.457031 17.332031 2.667969 15.542969 2.667969 13.332031 C 2.667969 11.125 4.457031 9.332031 6.667969 9.332031 L 18 9.332031 C 19.011719 9.332031 19.863281 8.578125 19.984375 7.570312 C 20.105469 6.566406 19.457031 5.628906 18.472656 5.390625 C 17.488281 5.152344 16.480469 5.683594 16.125 6.628906 L 13.628906 5.695312 C 14.421875 3.582031 16.613281 2.34375 18.832031 2.746094 C 21.050781 3.148438 22.664062 5.078125 22.667969 7.332031 C 22.667969 9.910156 20.578125 12 18 12 L 6.667969 12 C 5.929688 12 5.332031 12.597656 5.332031 13.332031 C 5.332031 14.070312 5.929688 14.667969 6.667969 14.667969 Z M 6.667969 14.667969 "/>
</g>
</svg>
