<?xml version="1.0" encoding="UTF-8"?>
<svg xmlns="http://www.w3.org/2000/svg" xmlns:xlink="http://www.w3.org/1999/xlink" width="32" height="32" viewBox="0 0 32 32" version="1.1">
<g id="surface1">
<path style=" stroke:none;fill-rule:evenodd;fill:rgb(0%,0%,0%);fill-opacity:1;" d="M 6 0 C 3.785156 0 2 1.785156 2 4 L 2 28 C 2 30.214844 3.785156 32 6 32 L 26 32 C 28.214844 32 30 30.214844 30 28 L 30 4 C 30 1.785156 28.214844 0 26 0 Z M 8 4 L 24 4 C 25.109375 4 26 4.890625 26 6 L 26 26 C 26 27.109375 25.109375 28 24 28 L 8 28 C 6.890625 28 6 27.109375 6 26 L 6 6 C 6 4.890625 6.890625 4 8 4 Z M 8 4 "/>
<path style=" stroke:none;fill-rule:evenodd;fill:rgb(0%,0%,0%);fill-opacity:1;" d="M 6 14 L 26 14 L 26 18 L 6 18 Z M 6 14 "/>
</g>
</svg>
