<?xml version="1.0" encoding="UTF-8"?>
<svg xmlns="http://www.w3.org/2000/svg" xmlns:xlink="http://www.w3.org/1999/xlink" width="32" height="32" viewBox="0 0 32 32" version="1.1">
<g id="surface1">
<path style=" stroke:none;fill-rule:nonzero;fill:rgb(0%,0%,0%);fill-opacity:1;" d="M 7.222656 26.035156 C 9.652344 28.164062 12.769531 29.339844 16 29.332031 C 19.230469 29.335938 22.351562 28.164062 24.78125 26.035156 C 26.867188 23.910156 19.984375 16.359375 16 13.351562 C 12.019531 16.359375 5.132812 23.910156 7.222656 26.035156 Z M 19.625 10.03125 C 22.402344 13.320312 27.941406 21.488281 26.375 24.375 C 28.292969 22.007812 29.339844 19.050781 29.332031 16.003906 C 29.339844 12.4375 27.910156 9.019531 25.367188 6.519531 C 25.367188 6.519531 25.335938 6.496094 25.277344 6.472656 C 25.175781 6.4375 25.070312 6.421875 24.960938 6.421875 C 24.304688 6.421875 22.757812 6.90625 19.625 10.03125 Z M 6.726562 6.476562 C 6.664062 6.496094 6.636719 6.519531 6.628906 6.519531 C 4.089844 9.023438 2.664062 12.4375 2.667969 16.003906 C 2.667969 19.175781 3.777344 22.085938 5.625 24.375 C 4.066406 21.480469 9.601562 13.316406 12.378906 10.03125 C 9.246094 6.902344 7.695312 6.425781 7.039062 6.425781 C 6.933594 6.421875 6.828125 6.4375 6.726562 6.476562 L 6.726562 6.472656 Z M 16 6.613281 C 16 6.613281 12.726562 4.699219 10.171875 4.605469 C 9.167969 4.570312 8.558594 4.933594 8.484375 4.984375 C 10.867188 3.382812 13.398438 2.667969 15.984375 2.667969 L 16 2.667969 C 18.59375 2.667969 21.117188 3.382812 23.515625 4.984375 C 23.441406 4.933594 22.835938 4.570312 21.828125 4.605469 C 19.273438 4.699219 16 6.605469 16 6.605469 Z M 16 6.613281 "/>
</g>
</svg>
