<?xml version="1.0" encoding="UTF-8"?>
<svg xmlns="http://www.w3.org/2000/svg" xmlns:xlink="http://www.w3.org/1999/xlink" width="32" height="32" viewBox="0 0 32 32" version="1.1">
<g id="surface1">
<path style=" stroke:none;fill-rule:nonzero;fill:rgb(0%,0%,0%);fill-opacity:1;" d="M 6.394531 20.648438 C 7.894531 17.285156 10.664062 13.394531 12.378906 11.363281 C 10.714844 9.703125 9.496094 8.789062 8.621094 8.296875 C 6.519531 10.308594 5.328125 13.089844 5.332031 16 C 5.332031 17.667969 5.714844 19.242188 6.394531 20.648438 Z M 11.796875 6.191406 C 13.929688 6.734375 16 7.945312 16 7.945312 L 16 7.9375 C 16 7.9375 18.070312 6.734375 20.203125 6.191406 C 18.875 5.625 17.445312 5.332031 16 5.332031 C 14.507812 5.332031 13.085938 5.640625 11.796875 6.191406 Z M 23.378906 8.296875 C 22.503906 8.789062 21.289062 9.703125 19.625 11.363281 C 21.339844 13.394531 24.105469 17.285156 25.605469 20.644531 C 26.304688 19.195312 26.667969 17.609375 26.667969 16 C 26.667969 12.972656 25.40625 10.238281 23.378906 8.296875 Z M 23.921875 23.140625 C 22.050781 20.160156 18.46875 16.550781 16 14.683594 C 13.535156 16.550781 9.949219 20.160156 8.078125 23.144531 C 10.097656 25.390625 12.980469 26.671875 16 26.667969 C 19.023438 26.667969 21.902344 25.386719 23.921875 23.140625 Z M 16 29.332031 C 8.636719 29.332031 2.667969 23.363281 2.667969 16 C 2.667969 8.636719 8.636719 2.667969 16 2.667969 C 23.363281 2.667969 29.332031 8.636719 29.332031 16 C 29.332031 23.363281 23.363281 29.332031 16 29.332031 Z M 16 29.332031 "/>
</g>
</svg>
