<?xml version="1.0" encoding="UTF-8"?>
<svg xmlns="http://www.w3.org/2000/svg" xmlns:xlink="http://www.w3.org/1999/xlink" width="32" height="32" viewBox="0 0 32 32" version="1.1">
<g id="surface1">
<path style=" stroke:none;fill-rule:nonzero;fill:rgb(0%,0%,0%);fill-opacity:1;" d="M 28.722656 8.664062 C 29.332031 11.039062 29.332031 16 29.332031 16 C 29.332031 16 29.332031 20.960938 28.722656 23.335938 C 28.386719 24.648438 27.394531 25.683594 26.140625 26.03125 C 23.863281 26.667969 16 26.667969 16 26.667969 C 16 26.667969 8.144531 26.667969 5.859375 26.03125 C 4.601562 25.675781 3.609375 24.644531 3.277344 23.335938 C 2.667969 20.960938 2.667969 16 2.667969 16 C 2.667969 16 2.667969 11.039062 3.277344 8.664062 C 3.613281 7.351562 4.605469 6.316406 5.859375 5.96875 C 8.144531 5.332031 16 5.332031 16 5.332031 C 16 5.332031 23.863281 5.332031 26.140625 5.96875 C 27.398438 6.324219 28.390625 7.355469 28.722656 8.664062 Z M 13.332031 20.667969 L 21.332031 16 L 13.332031 11.332031 Z M 13.332031 20.667969 "/>
</g>
</svg>
