<?xml version="1.0" encoding="UTF-8"?>
<svg xmlns="http://www.w3.org/2000/svg" xmlns:xlink="http://www.w3.org/1999/xlink" width="32" height="32" viewBox="0 0 32 32" version="1.1">
<g id="surface1">
<path style=" stroke:none;fill-rule:nonzero;fill:rgb(0%,0%,0%);fill-opacity:1;" d="M 16.457031 23.949219 L 14.207031 25.382812 L 11.367188 20.914062 C 10.78125 22.785156 9.804688 24.46875 8.515625 26.015625 C 7.980469 26.660156 7.421875 27.238281 6.78125 27.847656 C 6.574219 28.046875 5.746094 28.804688 5.609375 28.941406 L 3.722656 27.058594 C 3.910156 26.871094 4.773438 26.078125 4.945312 25.914062 C 5.515625 25.371094 6.003906 24.863281 6.464844 24.308594 C 8.15625 22.285156 9.171875 20.027344 9.316406 17.332031 L 4 17.332031 L 4 14.667969 L 9.332031 14.667969 L 9.332031 9.332031 L 8.175781 9.332031 C 7.257812 11.019531 6.097656 12.296875 4.683594 13.144531 L 3.316406 10.855469 C 5.175781 9.738281 6.546875 7.386719 7.367188 3.710938 L 9.96875 4.289062 C 9.78125 5.132812 9.5625 5.925781 9.316406 6.667969 L 15.332031 6.667969 L 15.332031 9.332031 L 12 9.332031 L 12 14.667969 L 15.332031 14.667969 L 15.332031 17.332031 L 12.246094 17.332031 Z M 21.574219 23.855469 L 23.0625 22.667969 L 25.332031 22.667969 L 25.332031 9.332031 L 20 9.332031 L 20 22.667969 L 20.980469 22.667969 Z M 17.332031 6.667969 L 28 6.667969 L 28 25.332031 L 24 25.332031 L 20.667969 28 L 19.332031 25.332031 L 17.332031 25.332031 Z M 17.332031 6.667969 "/>
</g>
</svg>
