<?xml version="1.0" encoding="UTF-8"?>
<svg xmlns="http://www.w3.org/2000/svg" xmlns:xlink="http://www.w3.org/1999/xlink" width="32" height="32" viewBox="0 0 32 32" version="1.1">
<g id="surface1">
<path style=" stroke:none;fill-rule:nonzero;fill:rgb(0%,0%,0%);fill-opacity:1;" d="M 16 29.332031 C 8.636719 29.332031 2.667969 23.363281 2.667969 16 C 2.667969 8.636719 8.636719 2.667969 16 2.667969 C 23.363281 2.667969 29.332031 8.636719 29.332031 16 C 29.332031 23.363281 23.363281 29.332031 16 29.332031 Z M 9.351562 24.339844 C 11.238281 25.851562 13.582031 26.671875 16 26.667969 C 18.625 26.667969 21.03125 25.71875 22.890625 24.144531 C 21.136719 22.34375 18.726562 21.332031 16.214844 21.332031 C 13.605469 21.332031 11.117188 22.421875 9.351562 24.339844 Z M 7.488281 22.425781 C 9.753906 20.023438 12.910156 18.664062 16.214844 18.667969 C 19.394531 18.664062 22.449219 19.925781 24.695312 22.179688 C 27.863281 17.71875 27.144531 11.585938 23.03125 7.980469 C 18.921875 4.375 12.746094 4.464844 8.738281 8.1875 C 4.730469 11.910156 4.191406 18.0625 7.488281 22.429688 Z M 16 17.332031 C 13.054688 17.332031 10.667969 14.945312 10.667969 12 C 10.667969 9.054688 13.054688 6.667969 16 6.667969 C 18.945312 6.667969 21.332031 9.054688 21.332031 12 C 21.332031 14.945312 18.945312 17.332031 16 17.332031 Z M 16 14.667969 C 17.472656 14.667969 18.667969 13.472656 18.667969 12 C 18.667969 10.527344 17.472656 9.332031 16 9.332031 C 14.527344 9.332031 13.332031 10.527344 13.332031 12 C 13.332031 13.472656 14.527344 14.667969 16 14.667969 Z M 16 14.667969 "/>
</g>
</svg>
