<?xml version="1.0" encoding="UTF-8"?>
<svg xmlns="http://www.w3.org/2000/svg" xmlns:xlink="http://www.w3.org/1999/xlink" width="32" height="32" viewBox="0 0 32 32" version="1.1">
<g id="surface1">
<path style=" stroke:none;fill-rule:nonzero;fill:rgb(0%,0%,0%);fill-opacity:1;" d="M 16 2.667969 C 22.257812 2.667969 27.332031 7.742188 27.332031 14 C 27.332031 22.667969 20 30 16 30 C 12 30 4.667969 22.667969 4.667969 14 C 4.667969 7.742188 9.742188 2.667969 16 2.667969 Z M 23.332031 16 C 21.632812 16 20.011719 16.722656 18.871094 17.988281 C 17.734375 19.253906 17.1875 20.941406 17.367188 22.632812 C 19.167969 22.824219 20.960938 22.191406 22.242188 20.910156 C 23.523438 19.628906 24.15625 17.835938 23.964844 16.035156 C 23.757812 16.011719 23.542969 16 23.332031 16 Z M 8.667969 16 C 8.453125 16 8.242188 16.011719 8.035156 16.035156 C 7.84375 17.835938 8.476562 19.628906 9.757812 20.910156 C 11.039062 22.191406 12.832031 22.824219 14.632812 22.632812 C 14.8125 20.941406 14.265625 19.253906 13.128906 17.988281 C 11.988281 16.722656 10.367188 16 8.667969 16 Z M 8.667969 16 "/>
</g>
</svg>
