<?xml version="1.0" encoding="UTF-8"?>
<svg xmlns="http://www.w3.org/2000/svg" xmlns:xlink="http://www.w3.org/1999/xlink" width="32" height="32" viewBox="0 0 32 32" version="1.1">
<g id="surface1">
<path style=" stroke:none;fill-rule:nonzero;fill:rgb(0%,0%,0%);fill-opacity:1;" d="M 20.832031 19.492188 C 19.355469 21.652344 17.195312 22.671875 14.667969 22.671875 C 11.59375 22.671875 8.964844 20.308594 9.34375 17.171875 C 9.761719 13.695312 12.460938 12.199219 16.953125 11.648438 C 17.753906 11.550781 18.085938 11.523438 19.816406 11.394531 L 20 11.382812 L 20 11.097656 C 20 8.703125 18.574219 7.066406 16.667969 7.066406 C 14.75 7.066406 13.414062 8.0625 12.59375 10.433594 L 10.074219 9.566406 C 11.257812 6.136719 13.589844 4.398438 16.667969 4.398438 C 20.136719 4.398438 22.667969 7.304688 22.667969 11.097656 C 22.667969 14.628906 22.882812 17.4375 23.3125 18.503906 C 23.785156 19.695312 23.957031 19.996094 24.488281 20.65625 L 22.410156 22.324219 C 21.710938 21.453125 21.40625 20.925781 20.835938 19.496094 L 20.835938 19.492188 Z M 28.34375 27.394531 C 27.980469 27.660156 27.351562 27.5 27.636719 26.808594 C 27.992188 25.941406 28.367188 24.929688 27.988281 24.46875 C 27.707031 24.128906 27.363281 23.960938 26.617188 23.960938 C 26.003906 23.960938 25.699219 24.042969 25.289062 24.066406 C 25.019531 24.085938 24.898438 23.671875 25.167969 23.480469 C 25.523438 23.230469 25.914062 23.035156 26.328125 22.910156 C 27.863281 22.453125 29.667969 22.703125 29.890625 23.019531 C 30.375 23.726562 29.625 26.445312 28.34375 27.394531 Z M 26.765625 25.949219 C 26.421875 26.28125 26.050781 26.59375 25.660156 26.875 C 22.832031 29.03125 19.167969 30.15625 15.984375 30.15625 C 10.859375 30.15625 6.277344 27.765625 2.796875 23.761719 C 2.5 23.453125 2.746094 23.007812 3.097656 23.25 C 6.84375 26.019531 11.480469 27.691406 16.28125 27.691406 C 19.300781 27.691406 22.558594 26.976562 25.660156 25.4375 C 25.878906 25.335938 26.121094 25.195312 26.332031 25.097656 C 26.820312 24.816406 27.253906 25.503906 26.765625 25.949219 Z M 20.011719 14.054688 C 18.335938 14.179688 18.019531 14.207031 17.277344 14.296875 C 13.875 14.714844 12.214844 15.632812 11.992188 17.492188 C 11.824219 18.882812 13.070312 20.003906 14.667969 20.003906 C 17.386719 20.003906 19.355469 18.367188 20.03125 14.054688 Z M 20.011719 14.054688 "/>
</g>
</svg>
