<?xml version="1.0" encoding="UTF-8"?>
<svg xmlns="http://www.w3.org/2000/svg" xmlns:xlink="http://www.w3.org/1999/xlink" width="32" height="32" viewBox="0 0 32 32" version="1.1">
<g id="surface1">
<path style=" stroke:none;fill-rule:nonzero;fill:rgb(0%,0%,0%);fill-opacity:1;" d="M 25.203125 13.332031 C 26.296875 15.234375 28.722656 15.898438 30.632812 14.816406 C 30.855469 16.796875 29.796875 18.695312 28 19.550781 L 28 28 L 18.667969 28 L 18.667969 25.332031 C 18.667969 23.9375 17.589844 22.777344 16.199219 22.671875 L 16 22.667969 C 14.605469 22.667969 13.445312 23.742188 13.339844 25.132812 L 13.332031 25.332031 L 13.332031 28 L 4 28 L 4 19.550781 C 2.199219 18.699219 1.140625 16.796875 1.363281 14.816406 C 3.273438 15.898438 5.699219 15.238281 6.796875 13.332031 Z M 23.90625 16 L 8.09375 16 L 7.992188 16.105469 C 7.414062 16.664062 6.742188 17.117188 6.007812 17.441406 L 5.882812 17.492188 L 6.667969 17.867188 L 6.664062 25.332031 L 10.667969 25.332031 L 10.667969 25.234375 L 10.679688 24.9375 C 10.878906 22.25 13.054688 20.140625 15.820312 20.007812 L 16.097656 20 L 16.394531 20.015625 C 19.078125 20.214844 21.191406 22.378906 21.328125 25.0625 L 21.332031 25.332031 L 25.332031 25.332031 L 25.335938 17.867188 L 26.117188 17.492188 L 25.992188 17.441406 C 25.253906 17.117188 24.585938 16.664062 24.007812 16.105469 Z M 22.714844 4 C 22.90625 5.339844 23.671875 6.527344 24.808594 7.257812 C 25.945312 7.992188 27.34375 8.191406 28.644531 7.8125 C 28.40625 10.09375 26.546875 11.867188 24.257812 11.992188 L 24 12 L 8 12 C 5.609375 12 3.601562 10.191406 3.355469 7.8125 C 4.65625 8.191406 6.054688 7.992188 7.191406 7.257812 C 8.328125 6.527344 9.09375 5.339844 9.285156 4 Z M 20.800781 6.667969 L 11.199219 6.667969 C 10.71875 7.605469 10.039062 8.433594 9.210938 9.089844 L 8.882812 9.332031 L 23.117188 9.332031 L 23.101562 9.324219 C 22.242188 8.714844 21.527344 7.933594 20.996094 7.027344 Z M 20.800781 6.667969 "/>
</g>
</svg>
