<?xml version="1.0" encoding="UTF-8"?>
<svg xmlns="http://www.w3.org/2000/svg" xmlns:xlink="http://www.w3.org/1999/xlink" width="32" height="32" viewBox="0 0 32 32" version="1.1">
<g id="surface1">
<path style=" stroke:none;fill-rule:nonzero;fill:rgb(0%,0%,0%);fill-opacity:1;" d="M 4 3.988281 C 4 3.257812 4.59375 2.667969 5.324219 2.667969 L 26.675781 2.667969 C 27.40625 2.671875 27.996094 3.261719 28 3.988281 L 28 28.011719 C 28 28.742188 27.40625 29.332031 26.675781 29.332031 L 5.324219 29.332031 C 4.59375 29.328125 4.003906 28.738281 4 28.011719 Z M 25.332031 14.667969 L 25.332031 5.332031 L 6.667969 5.332031 L 6.667969 14.667969 Z M 25.332031 17.332031 L 6.667969 17.332031 L 6.667969 26.667969 L 25.332031 26.667969 Z M 12 8 L 20 8 L 20 10.667969 L 12 10.667969 Z M 12 20 L 20 20 L 20 22.667969 L 12 22.667969 Z M 12 20 "/>
</g>
</svg>
