<?xml version="1.0" encoding="UTF-8"?>
<svg xmlns="http://www.w3.org/2000/svg" xmlns:xlink="http://www.w3.org/1999/xlink" width="32" height="32" viewBox="0 0 32 32" version="1.1">
<g id="surface1">
<path style=" stroke:none;fill-rule:nonzero;fill:rgb(0%,0%,0%);fill-opacity:1;" d="M 8 8 L 24 8 L 24 24 L 8 24 Z M 8 2.667969 L 10.667969 2.667969 L 10.667969 6.667969 L 8 6.667969 Z M 8 25.332031 L 10.667969 25.332031 L 10.667969 29.332031 L 8 29.332031 Z M 2.667969 8 L 6.667969 8 L 6.667969 10.667969 L 2.667969 10.667969 Z M 2.667969 21.332031 L 6.667969 21.332031 L 6.667969 24 L 2.667969 24 Z M 25.332031 8 L 29.332031 8 L 29.332031 10.667969 L 25.332031 10.667969 Z M 25.332031 21.332031 L 29.332031 21.332031 L 29.332031 24 L 25.332031 24 Z M 21.332031 2.667969 L 24 2.667969 L 24 6.667969 L 21.332031 6.667969 Z M 21.332031 25.332031 L 24 25.332031 L 24 29.332031 L 21.332031 29.332031 Z M 21.332031 25.332031 "/>
</g>
</svg>
