<?xml version="1.0" encoding="UTF-8"?>
<svg xmlns="http://www.w3.org/2000/svg" xmlns:xlink="http://www.w3.org/1999/xlink" width="32" height="32" viewBox="0 0 32 32" version="1.1">
<g id="surface1">
<path style=" stroke:none;fill-rule:nonzero;fill:rgb(0%,0%,0%);fill-opacity:1;" d="M 0.996094 8.007812 C 0.441406 8.003906 -0.0117188 8.457031 -0.0078125 9.011719 L -0.0078125 25.003906 C -0.0117188 25.558594 0.441406 26.011719 0.996094 26.007812 L 29.003906 26.007812 C 29.558594 26.011719 30.011719 25.558594 30.007812 25.003906 L 30.007812 22.007812 L 31.011719 22.007812 C 31.5625 22 32.003906 21.554688 32 21.003906 L 32 13.011719 C 32.003906 12.460938 31.5625 12.015625 31.011719 12.007812 L 30.007812 12.007812 L 30.007812 9.011719 C 30.011719 8.457031 29.558594 8.003906 29.003906 8.007812 Z M 2 10 L 28 10 L 28 13.011719 C 28.007812 13.5625 28.453125 14.003906 29.003906 14 L 30.007812 14 L 30.007812 20 L 29.003906 20 C 28.449219 19.996094 27.996094 20.449219 28 21.003906 L 28 24 L 2 24 Z M 4 12 L 4 20.214844 L 14.269531 12 Z M 14.902344 12 L 16.921875 16.039062 L 25.722656 13.839844 L 15.519531 22 L 26 22 L 26 12 Z M 12.523438 18.238281 L 4 20.367188 L 4 22 L 14.40625 22 Z M 12.523438 18.238281 "/>
</g>
</svg>
