<?xml version="1.0" encoding="UTF-8"?>
<svg xmlns="http://www.w3.org/2000/svg" xmlns:xlink="http://www.w3.org/1999/xlink" width="32" height="32" viewBox="0 0 32 32" version="1.1">
<g id="surface1">
<path style=" stroke:none;fill-rule:nonzero;fill:rgb(0%,0%,0%);fill-opacity:1;" d="M 10.667969 25.332031 L 4 25.332031 C 3.261719 25.332031 2.667969 24.738281 2.667969 24 L 2.667969 8 C 2.667969 7.261719 3.261719 6.667969 4 6.667969 L 12.832031 6.667969 L 11.277344 9.332031 L 5.332031 9.332031 L 5.332031 22.667969 L 10.667969 22.667969 Z M 16.5 25.332031 L 18.054688 22.667969 L 24 22.667969 L 24 9.332031 L 18.667969 9.332031 L 18.667969 6.667969 L 25.332031 6.667969 C 26.070312 6.667969 26.667969 7.261719 26.667969 8 L 26.667969 24 C 26.667969 24.738281 26.070312 25.332031 25.332031 25.332031 Z M 28 12 L 30.667969 12 L 30.667969 20 L 28 20 Z M 16 14.667969 L 20 14.667969 L 13.332031 25.332031 L 13.332031 17.332031 L 9.332031 17.332031 L 16 6.667969 Z M 16 14.667969 "/>
</g>
</svg>
