<?xml version="1.0" encoding="UTF-8"?>
<svg xmlns="http://www.w3.org/2000/svg" xmlns:xlink="http://www.w3.org/1999/xlink" width="32" height="32" viewBox="0 0 32 32" version="1.1">
<g id="surface1">
<path style=" stroke:none;fill-rule:nonzero;fill:rgb(0%,0%,0%);fill-opacity:1;" d="M 18.667969 2.667969 C 19.402344 2.667969 20 3.261719 20 4 L 20 5.332031 L 24 5.332031 C 24.738281 5.332031 25.332031 5.929688 25.332031 6.667969 L 25.332031 28 C 25.332031 28.738281 24.738281 29.332031 24 29.332031 L 8 29.332031 C 7.261719 29.332031 6.667969 28.738281 6.667969 28 L 6.667969 6.667969 C 6.667969 5.929688 7.261719 5.332031 8 5.332031 L 12 5.332031 L 12 4 C 12 3.261719 12.597656 2.667969 13.332031 2.667969 Z M 17.332031 5.332031 L 14.667969 5.332031 L 14.667969 8 L 9.332031 8 L 9.332031 26.667969 L 22.667969 26.667969 L 22.667969 8 L 17.332031 8 Z M 17.332031 12 L 17.332031 16 L 21.332031 16 L 21.332031 18.667969 L 17.332031 18.667969 L 17.332031 22.667969 L 14.667969 22.667969 L 14.667969 18.667969 L 10.667969 18.667969 L 10.667969 16 L 14.667969 16 L 14.667969 12 Z M 17.332031 12 "/>
</g>
</svg>
