<?xml version="1.0" encoding="UTF-8"?>
<svg xmlns="http://www.w3.org/2000/svg" xmlns:xlink="http://www.w3.org/1999/xlink" width="32" height="32" viewBox="0 0 32 32" version="1.1">
<g id="surface1">
<path style=" stroke:none;fill-rule:nonzero;fill:rgb(0%,0%,0%);fill-opacity:1;" d="M 7.332031 16 L 5.332031 16 L 5.332031 9.332031 L 2.667969 9.332031 L 2.667969 6.667969 L 10.667969 6.667969 L 10.667969 9.332031 L 8 9.332031 L 8 13.058594 L 21.085938 9.554688 L 20.3125 6.667969 L 16 6.667969 L 16 4 L 21.304688 4 C 21.917969 3.988281 22.460938 4.394531 22.621094 4.988281 L 24.691406 12.714844 L 22.117188 13.40625 L 21.773438 12.128906 Z M 6.667969 25.332031 C 8.140625 25.332031 9.332031 24.140625 9.332031 22.667969 C 9.332031 21.195312 8.140625 20 6.667969 20 C 5.195312 20 4 21.195312 4 22.667969 C 4 24.140625 5.195312 25.332031 6.667969 25.332031 Z M 6.667969 28 C 3.722656 28 1.332031 25.613281 1.332031 22.667969 C 1.332031 19.722656 3.722656 17.332031 6.667969 17.332031 C 9.613281 17.332031 12 19.722656 12 22.667969 C 12 25.613281 9.613281 28 6.667969 28 Z M 24 25.332031 C 26.210938 25.332031 28 23.542969 28 21.332031 C 28 19.125 26.210938 17.332031 24 17.332031 C 21.789062 17.332031 20 19.125 20 21.332031 C 20 23.542969 21.789062 25.332031 24 25.332031 Z M 24 28 C 20.316406 28 17.332031 25.015625 17.332031 21.332031 C 17.332031 17.652344 20.316406 14.667969 24 14.667969 C 27.683594 14.667969 30.667969 17.652344 30.667969 21.332031 C 30.667969 25.015625 27.683594 28 24 28 Z M 24 28 "/>
</g>
</svg>
