<?xml version="1.0" encoding="UTF-8"?>
<svg xmlns="http://www.w3.org/2000/svg" xmlns:xlink="http://www.w3.org/1999/xlink" width="32" height="32" viewBox="0 0 32 32" version="1.1">
<g id="surface1">
<path style=" stroke:none;fill-rule:nonzero;fill:rgb(0%,0%,0%);fill-opacity:1;" d="M 19.121094 16.039062 L 24.910156 21.832031 L 17.371094 29.371094 L 14.703125 29.371094 L 14.703125 20.457031 L 8.886719 26.277344 L 7 24.390625 L 14.703125 16.6875 L 14.703125 15.394531 L 7 7.6875 L 8.886719 5.800781 L 14.703125 11.621094 L 14.703125 2.707031 L 17.371094 2.707031 L 24.910156 10.246094 Z M 17.371094 18.058594 L 17.371094 25.601562 L 21.140625 21.832031 Z M 17.371094 14.019531 L 21.140625 10.246094 L 17.371094 6.476562 Z M 26 18 C 24.894531 18 24 17.105469 24 16 C 24 14.894531 24.894531 14 26 14 C 27.105469 14 28 14.894531 28 16 C 28 17.105469 27.105469 18 26 18 Z M 8.667969 18 C 7.5625 18 6.667969 17.105469 6.667969 16 C 6.667969 14.894531 7.5625 14 8.667969 14 C 9.769531 14 10.667969 14.894531 10.667969 16 C 10.667969 17.105469 9.769531 18 8.667969 18 Z M 8.667969 18 "/>
</g>
</svg>
