<?xml version="1.0" encoding="UTF-8"?>
<svg xmlns="http://www.w3.org/2000/svg" xmlns:xlink="http://www.w3.org/1999/xlink" width="32" height="32" viewBox="0 0 32 32" version="1.1">
<g id="surface1">
<path style=" stroke:none;fill-rule:nonzero;fill:rgb(0%,0%,0%);fill-opacity:1;" d="M 28 24 L 8 24 C 7.261719 24 6.667969 24.597656 6.667969 25.332031 C 6.667969 26.070312 7.261719 26.667969 8 26.667969 L 28 26.667969 L 28 29.332031 L 8 29.332031 C 5.789062 29.332031 4 27.542969 4 25.332031 L 4 5.332031 C 4 3.859375 5.195312 2.667969 6.667969 2.667969 L 28 2.667969 Z M 6.667969 21.398438 C 6.882812 21.355469 7.105469 21.332031 7.332031 21.332031 L 25.332031 21.332031 L 25.332031 5.332031 L 6.667969 5.332031 Z M 21.332031 12 L 10.667969 12 L 10.667969 9.332031 L 21.332031 9.332031 Z M 21.332031 12 "/>
</g>
</svg>
