<?xml version="1.0" encoding="UTF-8"?>
<svg xmlns="http://www.w3.org/2000/svg" xmlns:xlink="http://www.w3.org/1999/xlink" width="32" height="32" viewBox="0 0 32 32" version="1.1">
<g id="surface1">
<path style=" stroke:none;fill-rule:nonzero;fill:rgb(0%,0%,0%);fill-opacity:1;" d="M 16.667969 0.0273438 C 15.6875 0.0273438 14.699219 0.222656 13.761719 0.609375 C 12.144531 1.277344 10.839844 2.472656 10.015625 3.953125 L 8.402344 0.179688 L 3.453125 2.15625 L 5.996094 8.847656 C 5.425781 9.070312 4.527344 9.410156 4.503906 9.421875 C 4.320312 9.523438 0.09375 15.566406 0.03125 15.820312 C -0.0429688 16.117188 0.09375 16.5 0.34375 16.671875 C 0.453125 16.746094 1.324219 17.011719 2.359375 17.289062 L 4.183594 17.777344 L 4.183594 22.441406 C 4.183594 27.515625 4.179688 27.421875 4.535156 27.664062 C 4.632812 27.726562 7.660156 28.722656 11.273438 29.875 L 11.277344 29.875 C 15.34375 31.167969 17.953125 31.96875 18.121094 31.972656 C 18.371094 31.976562 18.847656 31.71875 23.152344 29.238281 C 25.769531 27.730469 27.980469 26.433594 28.058594 26.359375 C 28.140625 26.285156 28.242188 26.167969 28.277344 26.097656 C 28.332031 26.003906 28.355469 24.648438 28.378906 21.230469 L 28.410156 16.492188 L 30.035156 15.6875 C 31.105469 15.15625 31.707031 14.820312 31.800781 14.703125 C 31.988281 14.46875 32.039062 14.152344 31.933594 13.882812 C 31.8125 13.570312 28.324219 8.433594 27.84375 7.847656 L 29.203125 1.09375 L 20.574219 1.109375 C 19.378906 0.398438 18.035156 0.0273438 16.667969 0.0273438 Z M 16 2.503906 C 17.269531 2.339844 18.5625 2.671875 19.632812 3.421875 L 18.199219 11.625 C 18.179688 11.632812 17.957031 11.742188 17.949219 11.742188 C 17.875 11.746094 15.394531 11.253906 12.9375 10.785156 C 12.929688 10.753906 12.914062 10.722656 12.902344 10.691406 L 11.441406 7.277344 C 11.492188 7.167969 11.527344 7.046875 11.546875 6.925781 C 11.800781 5.105469 12.988281 3.554688 14.691406 2.851562 C 15.113281 2.675781 15.554688 2.5625 16 2.503906 Z M 7.335938 2.761719 L 9.125 6.933594 C 9.15625 7.152344 9.242188 7.355469 9.378906 7.527344 L 10.582031 10.339844 C 9.800781 10.1875 8.683594 9.984375 8.492188 9.941406 C 8.492188 9.828125 8.472656 9.71875 8.433594 9.613281 L 6.027344 3.28125 Z M 26.765625 3.101562 L 25.835938 7.679688 L 20.433594 10.484375 L 21.71875 3.117188 Z M 26.863281 9.394531 C 26.960938 9.378906 27.285156 9.820312 28.441406 11.542969 C 29.25 12.746094 29.917969 13.765625 29.925781 13.804688 C 29.933594 13.84375 28.078125 14.804688 25.800781 15.9375 C 23.523438 17.070312 21.617188 18.015625 21.5625 18.035156 C 21.488281 18.0625 21.214844 17.5 20.359375 15.617188 C 19.800781 14.378906 19.414062 13.496094 19.339844 13.304688 L 19.5625 13.1875 Z M 5.277344 11.066406 C 5.308594 11.027344 16.695312 13.238281 16.707031 13.285156 C 16.714844 13.316406 15.976562 14.503906 15.0625 15.929688 C 14.152344 17.355469 13.390625 18.519531 13.375 18.519531 C 13.308594 18.511719 2.210938 15.515625 2.195312 15.5 C 2.1875 15.488281 2.871094 14.492188 3.71875 13.28125 C 4.570312 12.070312 5.273438 11.074219 5.277344 11.066406 Z M 17.3125 15.4375 L 17.3125 22.734375 C 17.3125 26.746094 17.300781 30.023438 17.269531 30.019531 C 17.175781 30.007812 5.859375 26.390625 5.835938 26.367188 C 5.820312 26.355469 5.820312 24.519531 5.828125 22.285156 L 5.84375 18.222656 L 9.660156 19.253906 C 11.757812 19.820312 13.59375 20.289062 13.742188 20.292969 C 13.917969 20.296875 14.066406 20.257812 14.179688 20.171875 C 14.273438 20.101562 15.015625 19.007812 15.832031 17.742188 Z M 19.023438 16.652344 C 19.03125 16.65625 19.046875 16.675781 19.0625 16.703125 C 19.125 16.828125 19.464844 17.574219 19.820312 18.355469 C 20.347656 19.511719 20.503906 19.800781 20.660156 19.898438 C 21.058594 20.152344 21.160156 20.113281 24.019531 18.6875 C 25.488281 17.953125 26.710938 17.355469 26.726562 17.355469 C 26.742188 17.355469 26.75 19.128906 26.742188 21.300781 L 26.726562 25.25 L 22.882812 27.472656 C 20.769531 28.695312 19.015625 29.695312 18.992188 29.699219 C 18.960938 29.703125 18.945312 26.726562 18.945312 23.089844 C 18.949219 17.453125 18.953125 16.625 19.03125 16.652344 Z M 19.023438 16.652344 "/>
</g>
</svg>
