<?xml version="1.0" encoding="UTF-8"?>
<svg xmlns="http://www.w3.org/2000/svg" xmlns:xlink="http://www.w3.org/1999/xlink" width="32" height="32" viewBox="0 0 32 32" version="1.1">
<g id="surface1">
<path style=" stroke:none;fill-rule:nonzero;fill:rgb(0%,0%,0%);fill-opacity:1;" d="M 11.210938 2 C 9.3125 2 7.625 2.53125 6.351562 3.601562 C 5.046875 4.691406 4.414062 6.3125 4.414062 8.183594 L 4.414062 10.164062 C 4.414062 11.5 4.085938 12.464844 3.507812 13.089844 C 2.964844 13.671875 2.136719 14 0.71875 14 L 0 14 L 0 18 L 0.71875 18 C 2.132812 18 2.964844 18.332031 3.507812 18.921875 C 4.082031 19.539062 4.414062 20.5 4.414062 21.835938 L 4.414062 23.816406 C 4.414062 25.6875 5.046875 27.308594 6.351562 28.398438 C 7.625 29.46875 9.3125 30 11.210938 30 L 14 30 L 14 26 L 11.722656 26 C 10.605469 26 10.007812 25.757812 9.699219 25.464844 C 9.402344 25.175781 9.140625 24.691406 9.140625 23.597656 L 9.140625 21.257812 C 9.140625 19.835938 8.699219 18.539062 7.804688 17.511719 C 7.238281 16.855469 6.339844 16.457031 5.515625 16 C 6.339844 15.546875 7.238281 15.148438 7.804688 14.496094 C 8.695312 13.464844 9.140625 12.164062 9.140625 10.742188 L 9.140625 8.417969 C 9.140625 7.324219 9.402344 6.824219 9.699219 6.535156 C 10.007812 6.242188 10.605469 5.957031 11.722656 6 L 14 6 L 14 2 Z M 18 2 L 18 6 L 20.277344 6 C 21.394531 6 21.992188 6.25 22.289062 6.535156 C 22.59375 6.824219 22.859375 7.324219 22.859375 8.417969 L 22.859375 10.742188 C 22.859375 12.164062 23.304688 13.464844 24.195312 14.496094 C 24.761719 15.148438 25.660156 15.546875 26.484375 16 C 25.660156 16.457031 24.761719 16.855469 24.195312 17.511719 C 23.300781 18.539062 22.859375 19.835938 22.859375 21.257812 L 22.859375 23.597656 C 22.859375 24.6875 22.59375 25.175781 22.289062 25.464844 C 21.992188 25.75 21.394531 26 20.277344 26 L 18 26 L 18 30 L 20.789062 30 C 22.679688 30 24.351562 29.464844 25.617188 28.398438 C 26.933594 27.308594 27.585938 25.691406 27.585938 23.816406 L 27.585938 21.835938 C 27.585938 20.5 27.917969 19.601562 28.492188 18.984375 C 29.035156 18.398438 29.867188 18.0625 31.28125 18.0625 L 32 18.0625 L 32 13.9375 L 31.28125 13.9375 C 29.863281 13.9375 29.035156 13.609375 28.492188 13.027344 C 27.914062 12.402344 27.585938 11.5 27.585938 10.164062 L 27.585938 8.183594 C 27.585938 6.308594 26.933594 4.691406 25.617188 3.601562 C 24.351562 2.535156 22.679688 2 20.789062 2 Z M 18 2 "/>
</g>
</svg>
