<?xml version="1.0" encoding="UTF-8"?>
<svg xmlns="http://www.w3.org/2000/svg" xmlns:xlink="http://www.w3.org/1999/xlink" width="32" height="32" viewBox="0 0 32 32" version="1.1">
<g id="surface1">
<path style=" stroke:none;fill-rule:nonzero;fill:rgb(0%,0%,0%);fill-opacity:1;" d="M 18.667969 4 C 19.402344 4 20 4.597656 20 5.332031 L 20 12 L 26.667969 12 C 27.402344 12 28 12.597656 28 13.332031 L 28 26.667969 C 28 27.402344 27.402344 28 26.667969 28 L 13.332031 28 C 12.597656 28 12 27.402344 12 26.667969 L 12 20 L 5.332031 20 C 4.597656 20 4 19.402344 4 18.667969 L 4 5.332031 C 4 4.597656 4.597656 4 5.332031 4 Z M 17.332031 6.667969 L 6.667969 6.667969 L 6.667969 17.332031 L 17.332031 17.332031 Z M 17.332031 6.667969 "/>
</g>
</svg>
