<?xml version="1.0" encoding="UTF-8"?>
<svg xmlns="http://www.w3.org/2000/svg" xmlns:xlink="http://www.w3.org/1999/xlink" width="32" height="32" viewBox="0 0 32 32" version="1.1">
<g id="surface1">
<path style=" stroke:none;fill-rule:nonzero;fill:rgb(0%,0%,0%);fill-opacity:1;" d="M 6.570312 3.90625 L 8.457031 5.789062 C 6.453125 7.789062 5.328125 10.503906 5.332031 13.332031 C 5.332031 16.28125 6.527344 18.945312 8.457031 20.875 L 6.574219 22.761719 C 4.070312 20.261719 2.664062 16.871094 2.667969 13.332031 C 2.664062 9.796875 4.066406 6.402344 6.570312 3.90625 Z M 25.429688 3.90625 C 27.933594 6.402344 29.335938 9.796875 29.332031 13.332031 C 29.335938 16.871094 27.933594 20.261719 25.429688 22.761719 L 23.542969 20.875 C 25.546875 18.878906 26.671875 16.164062 26.667969 13.332031 C 26.667969 10.386719 25.472656 7.71875 23.542969 5.789062 L 25.425781 3.90625 Z M 10.34375 7.675781 L 12.230469 9.5625 C 11.226562 10.5625 10.664062 11.917969 10.667969 13.332031 C 10.667969 14.808594 11.265625 16.140625 12.230469 17.105469 L 10.34375 18.992188 C 8.839844 17.492188 7.996094 15.457031 8 13.332031 C 8 11.125 8.894531 9.125 10.34375 7.675781 Z M 21.65625 7.675781 C 23.160156 9.175781 24.003906 11.210938 24 13.332031 C 24.003906 15.457031 23.160156 17.492188 21.65625 18.992188 L 19.769531 17.105469 C 20.773438 16.105469 21.335938 14.75 21.332031 13.332031 C 21.335938 11.917969 20.773438 10.5625 19.769531 9.5625 Z M 16 16 C 14.527344 16 13.332031 14.804688 13.332031 13.332031 C 13.332031 11.859375 14.527344 10.667969 16 10.667969 C 17.472656 10.667969 18.667969 11.859375 18.667969 13.332031 C 18.667969 14.804688 17.472656 16 16 16 Z M 16 18.667969 C 16.773438 18.667969 17.4375 19.21875 17.578125 19.976562 L 19.332031 29.332031 L 12.667969 29.332031 L 14.421875 19.976562 C 14.5625 19.21875 15.226562 18.667969 16 18.667969 Z M 16 18.667969 "/>
</g>
</svg>
