<?xml version="1.0" encoding="UTF-8"?>
<svg xmlns="http://www.w3.org/2000/svg" xmlns:xlink="http://www.w3.org/1999/xlink" width="32" height="32" viewBox="0 0 32 32" version="1.1">
<g id="surface1">
<path style=" stroke:none;fill-rule:nonzero;fill:rgb(0%,0%,0%);fill-opacity:1;" d="M 8.074219 11.066406 C 8.160156 10.929688 8.25 10.796875 8.339844 10.667969 L 23.660156 10.667969 C 23.753906 10.796875 23.839844 10.933594 23.925781 11.066406 L 26.617188 9.511719 L 27.953125 11.820312 L 25 13.523438 C 25.21875 14.3125 25.332031 15.144531 25.332031 16 L 25.332031 17.332031 L 29.332031 17.332031 L 29.332031 20 L 25.332031 20 C 25.332031 21.269531 25.078125 22.484375 24.617188 23.585938 L 27.953125 25.511719 L 26.617188 27.820312 L 23.25 25.878906 C 21.773438 27.703125 19.660156 28.902344 17.332031 29.238281 L 17.332031 18.667969 L 14.667969 18.667969 L 14.667969 29.238281 C 12.339844 28.90625 10.226562 27.703125 8.75 25.878906 L 5.382812 27.820312 L 4.046875 25.511719 L 7.382812 23.589844 C 6.90625 22.449219 6.664062 21.230469 6.667969 20 L 2.667969 20 L 2.667969 17.332031 L 6.667969 17.332031 L 6.667969 16 C 6.667969 15.144531 6.78125 14.3125 7 13.523438 L 4.046875 11.820312 L 5.382812 9.511719 Z M 10.667969 8 C 10.667969 5.054688 13.054688 2.667969 16 2.667969 C 18.945312 2.667969 21.332031 5.054688 21.332031 8 Z M 10.667969 8 "/>
</g>
</svg>
