<?xml version="1.0" encoding="UTF-8"?>
<svg xmlns="http://www.w3.org/2000/svg" xmlns:xlink="http://www.w3.org/1999/xlink" width="32" height="32" viewBox="0 0 32 32" version="1.1">
<g id="surface1">
<path style=" stroke:none;fill-rule:nonzero;fill:rgb(0%,0%,0%);fill-opacity:1;" d="M 22.667969 26.667969 L 9.332031 26.667969 L 9.332031 28 C 9.332031 28.738281 8.738281 29.332031 8 29.332031 L 5.332031 29.332031 C 4.597656 29.332031 4 28.738281 4 28 L 4 16 L 2.667969 16 L 2.667969 10.667969 L 4 10.667969 L 4 6.667969 C 4 5.195312 5.195312 4 6.667969 4 L 25.332031 4 C 26.804688 4 28 5.195312 28 6.667969 L 28 10.667969 L 29.332031 10.667969 L 29.332031 16 L 28 16 L 28 28 C 28 28.738281 27.402344 29.332031 26.667969 29.332031 L 24 29.332031 C 23.261719 29.332031 22.667969 28.738281 22.667969 28 Z M 6.667969 6.667969 L 6.667969 16 L 25.332031 16 L 25.332031 6.667969 Z M 10 24 C 11.105469 24 12 23.105469 12 22 C 12 20.894531 11.105469 20 10 20 C 8.894531 20 8 20.894531 8 22 C 8 23.105469 8.894531 24 10 24 Z M 22 24 C 23.105469 24 24 23.105469 24 22 C 24 20.894531 23.105469 20 22 20 C 20.894531 20 20 20.894531 20 22 C 20 23.105469 20.894531 24 22 24 Z M 22 24 "/>
</g>
</svg>
