<?xml version="1.0" encoding="UTF-8"?>
<svg xmlns="http://www.w3.org/2000/svg" xmlns:xlink="http://www.w3.org/1999/xlink" width="32" height="32" viewBox="0 0 32 32" version="1.1">
<g id="surface1">
<path style=" stroke:none;fill-rule:evenodd;fill:rgb(0%,0%,0%);fill-opacity:1;" d="M 4.335938 3.976562 C 1.953125 3.976562 0 5.796875 0 8.019531 L 0 23.976562 C 0 26.199219 1.953125 28.019531 4.335938 28.019531 L 27.660156 28.019531 C 30.042969 28.019531 31.996094 26.199219 31.996094 23.976562 L 31.996094 18.023438 C 31.996094 18.011719 32 18 32 17.988281 L 32 10.058594 C 32 10.046875 31.996094 10.035156 31.996094 10.023438 L 31.996094 8.019531 C 31.996094 5.796875 30.042969 3.976562 27.660156 3.976562 Z M 2.074219 22.402344 C 3.226562 23.402344 4.765625 24.023438 6.472656 24.023438 L 25.53125 24.023438 C 27.234375 24.023438 28.769531 23.402344 29.921875 22.40625 L 29.921875 23.976562 C 29.921875 25.167969 28.929688 26.101562 27.660156 26.101562 L 4.335938 26.101562 C 3.066406 26.101562 2.074219 25.167969 2.074219 23.976562 Z M 2.074219 22.402344 "/>
</g>
</svg>
