<?xml version="1.0" encoding="UTF-8"?>
<svg xmlns="http://www.w3.org/2000/svg" xmlns:xlink="http://www.w3.org/1999/xlink" width="32" height="32" viewBox="0 0 32 32" version="1.1">
<g id="surface1">
<path style=" stroke:none;fill-rule:nonzero;fill:rgb(0%,0%,0%);fill-opacity:1;" d="M 12 4 L 20 4 L 22.667969 6.667969 L 28 6.667969 C 28.738281 6.667969 29.332031 7.261719 29.332031 8 L 29.332031 26.667969 C 29.332031 27.402344 28.738281 28 28 28 L 4 28 C 3.261719 28 2.667969 27.402344 2.667969 26.667969 L 2.667969 8 C 2.667969 7.261719 3.261719 6.667969 4 6.667969 L 9.332031 6.667969 Z M 16 25.332031 C 20.417969 25.332031 24 21.75 24 17.332031 C 24 12.914062 20.417969 9.332031 16 9.332031 C 11.582031 9.332031 8 12.914062 8 17.332031 C 8 21.75 11.582031 25.332031 16 25.332031 Z M 16 22.667969 C 13.054688 22.667969 10.667969 20.277344 10.667969 17.332031 C 10.667969 14.386719 13.054688 12 16 12 C 18.945312 12 21.332031 14.386719 21.332031 17.332031 C 21.332031 20.277344 18.945312 22.667969 16 22.667969 Z M 16 22.667969 "/>
</g>
</svg>
