<?xml version="1.0" encoding="UTF-8"?>
<svg xmlns="http://www.w3.org/2000/svg" xmlns:xlink="http://www.w3.org/1999/xlink" width="32" height="32" viewBox="0 0 32 32" version="1.1">
<g id="surface1">
<path style=" stroke:none;fill-rule:evenodd;fill:rgb(0%,0%,0%);fill-opacity:0.996078;" d="M 16 0 C 14.9375 0 13.925781 0.105469 13 0.292969 L 13 2.078125 C 13 2.585938 12.585938 3 12.078125 3 L 10.921875 3 C 10.414062 3 10 2.585938 10 2.078125 L 10 1.375 C 8.769531 2.078125 8 2.988281 8 4 L 8 10 L 6 12 L 8 12 L 8 28 C 8 30.214844 11.566406 32 16 32 C 20.433594 32 24 30.214844 24 28 L 24 12 L 26 12 L 24 10 L 24 4 C 24 2.988281 23.230469 2.078125 22 1.375 L 22 2.210938 C 22 2.648438 21.648438 3 21.210938 3 L 19.789062 3 C 19.351562 3 19 2.648438 19 2.210938 L 19 0.292969 C 18.074219 0.105469 17.0625 0 16 0 Z M 16.164062 8.003906 C 18.160156 8.0625 20.097656 8.789062 22 10 L 20 14 C 17.066406 13.96875 14.472656 14.03125 12 14 L 10 10 C 12.117188 8.546875 14.167969 7.945312 16.164062 8.003906 Z M 12 22 L 20 22 L 22 26 C 17.949219 28.726562 13.949219 28.609375 10 26 Z M 12 22 "/>
</g>
</svg>
