<?xml version="1.0" encoding="UTF-8"?>
<svg xmlns="http://www.w3.org/2000/svg" xmlns:xlink="http://www.w3.org/1999/xlink" width="32" height="32" viewBox="0 0 32 32" version="1.1">
<g id="surface1">
<path style=" stroke:none;fill-rule:nonzero;fill:rgb(0%,0%,0%);fill-opacity:1;" d="M 0.988281 2 C 0.441406 2.007812 -0.00390625 2.453125 0 3.003906 L 0 28.996094 C -0.00390625 29.546875 0.441406 29.992188 0.988281 30 L 30.996094 30 C 31.550781 30.003906 32.003906 29.550781 32 28.996094 C 32.003906 28.441406 31.550781 27.988281 30.996094 27.992188 L 1.992188 27.992188 L 1.992188 3.003906 C 1.996094 2.449219 1.542969 1.996094 0.988281 2 Z M 0.988281 2 "/>
<path style=" stroke:none;fill-rule:nonzero;fill:rgb(0%,0%,0%);fill-opacity:1;" d="M 29.335938 22.703125 L 18.664062 19.558594 L 20.722656 17.390625 L 16.949219 13.457031 L 12.121094 18.652344 L 3.75 9.21875 L 6.746094 6.5625 L 12.179688 12.703125 L 16.917969 7.625 L 23.476562 14.492188 L 26.003906 11.828125 Z M 29.335938 22.703125 "/>
</g>
</svg>
