<?xml version="1.0" encoding="UTF-8"?>
<svg xmlns="http://www.w3.org/2000/svg" xmlns:xlink="http://www.w3.org/1999/xlink" width="32" height="32" viewBox="0 0 32 32" version="1.1">
<g id="surface1">
<path style=" stroke:none;fill-rule:nonzero;fill:rgb(0%,0%,0%);fill-opacity:1;" d="M 0.988281 2 C 0.4375 2.007812 -0.00390625 2.453125 0 3.003906 L 0 28.996094 C -0.00390625 29.546875 0.4375 29.992188 0.988281 30 L 30.996094 30 C 31.550781 30.003906 32.003906 29.550781 32 28.996094 C 32.003906 28.441406 31.550781 27.988281 30.996094 27.992188 L 29.996094 27.992188 L 29.996094 10.449219 L 27.679688 13.726562 C 27.679688 13.726562 26.820312 14.957031 25.511719 16.175781 C 24.203125 17.394531 22.484375 18.464844 21.09375 18.464844 C 20.671875 18.464844 20.019531 18.117188 19.25 17.269531 C 18.480469 16.421875 17.671875 15.183594 16.886719 13.902344 C 16.101562 12.621094 15.335938 11.308594 14.539062 10.226562 C 13.742188 9.144531 12.945312 8.09375 11.484375 8 C 10.136719 7.914062 9.125 8.617188 8.03125 9.429688 C 6.9375 10.242188 5.820312 11.28125 4.796875 12.324219 C 3.605469 13.535156 2.675781 14.601562 1.992188 15.40625 L 1.992188 3.003906 C 1.996094 2.449219 1.542969 1.996094 0.988281 2 Z M 0.988281 2 "/>
</g>
</svg>
