<?xml version="1.0" encoding="UTF-8"?>
<svg xmlns="http://www.w3.org/2000/svg" xmlns:xlink="http://www.w3.org/1999/xlink" width="32" height="32" viewBox="0 0 32 32" version="1.1">
<g id="surface1">
<path style=" stroke:none;fill-rule:evenodd;fill:rgb(0%,0%,0%);fill-opacity:1;" d="M 6 2 C 3.785156 2 2 3.785156 2 6 L 2 26 C 2 28.214844 3.785156 30 6 30 L 26 30 C 28.214844 30 30 28.214844 30 26 L 30 6 C 30 3.785156 28.214844 2 26 2 Z M 6 6 L 10 6 L 10 26 L 6 26 Z M 22 12 L 26 12 L 26 26 L 22 26 Z M 14 18 L 18 18 L 18 26 L 14 26 Z M 14 18 "/>
</g>
</svg>
