<?xml version="1.0" encoding="UTF-8"?>
<svg xmlns="http://www.w3.org/2000/svg" xmlns:xlink="http://www.w3.org/1999/xlink" width="32" height="32" viewBox="0 0 32 32" version="1.1">
<g id="surface1">
<path style=" stroke:none;fill-rule:nonzero;fill:rgb(0%,0%,0%);fill-opacity:1;" d="M 28 4 C 28.734375 4 29.332031 4.597656 29.332031 5.332031 L 29.332031 26.667969 C 29.332031 27.402344 28.734375 28 28 28 L 4 28 C 3.265625 28 2.667969 27.402344 2.667969 26.667969 L 2.667969 5.332031 C 2.667969 4.597656 3.265625 4 4 4 Z M 12 10.667969 C 9.054688 10.667969 6.667969 13.054688 6.667969 16 C 6.667969 18.945312 9.054688 21.332031 12 21.332031 C 13.464844 21.332031 14.800781 20.734375 15.769531 19.769531 L 13.886719 17.886719 C 13.402344 18.367188 12.738281 18.667969 12 18.667969 C 10.527344 18.667969 9.332031 17.472656 9.332031 16 C 9.332031 14.527344 10.527344 13.332031 12 13.332031 C 12.734375 13.332031 13.398438 13.625 13.886719 14.117188 L 15.773438 12.230469 C 14.808594 11.265625 13.472656 10.667969 12 10.667969 Z M 21.332031 10.667969 C 18.390625 10.667969 16 13.054688 16 16 C 16 18.945312 18.390625 21.332031 21.332031 21.332031 C 22.804688 21.332031 24.136719 20.734375 25.105469 19.769531 L 23.21875 17.886719 C 22.734375 18.367188 22.070312 18.667969 21.332031 18.667969 C 19.859375 18.667969 18.667969 17.472656 18.667969 16 C 18.667969 14.527344 19.859375 13.332031 21.332031 13.332031 C 22.070312 13.332031 22.738281 13.632812 23.21875 14.117188 L 25.105469 12.230469 C 24.140625 11.265625 22.808594 10.667969 21.332031 10.667969 Z M 21.332031 10.667969 "/>
</g>
</svg>
