<?xml version="1.0" encoding="UTF-8"?>
<svg xmlns="http://www.w3.org/2000/svg" xmlns:xlink="http://www.w3.org/1999/xlink" width="32" height="32" viewBox="0 0 32 32" version="1.1">
<defs>
<filter id="alpha" filterUnits="objectBoundingBox" x="0%" y="0%" width="100%" height="100%">
  <feColorMatrix type="matrix" in="SourceGraphic" values="0 0 0 0 1 0 0 0 0 1 0 0 0 0 1 0 0 0 1 0"/>
</filter>
<mask id="mask0">
  <g filter="url(#alpha)">
<rect x="0" y="0" width="32" height="32" style="fill:rgb(0%,0%,0%);fill-opacity:0.996078;stroke:none;"/>
  </g>
</mask>
<clipPath id="clip1">
  <rect x="0" y="0" width="32" height="32"/>
</clipPath>
<g id="surface5" clip-path="url(#clip1)">
<path style=" stroke:none;fill-rule:evenodd;fill:rgb(0%,0%,0%);fill-opacity:1;" d="M 20 0 C 17.824219 0 15.839844 1.472656 14.890625 3.785156 C 14.253906 3.503906 13.578125 3.355469 12.898438 3.355469 C 10.523438 3.355469 8.398438 5.101562 7.574219 7.734375 C 5.457031 7.902344 3.816406 9.976562 3.8125 12.484375 C 3.8125 13.441406 4.054688 14.375 4.511719 15.167969 C 6.152344 13.578125 8.230469 12.535156 10.542969 12.535156 C 10.546875 12.535156 10.550781 12.535156 10.554688 12.535156 C 10.910156 12.535156 11.238281 12.714844 11.589844 12.757812 C 13.414062 10.460938 15.84375 8.652344 18.765625 8.652344 C 22.46875 8.648438 25.328125 11.40625 27.019531 14.734375 C 27.972656 14.867188 28.894531 15.15625 29.765625 15.554688 C 30.785156 14.402344 31.359375 12.808594 31.359375 11.144531 C 31.359375 7.769531 29.046875 5.035156 26.191406 5.035156 C 25.960938 5.035156 25.734375 5.054688 25.507812 5.089844 C 24.878906 2.101562 22.605469 0 20 0 Z M 18.765625 12 C 16.242188 12 13.945312 13.703125 12.84375 16.386719 C 12.105469 16.058594 11.324219 15.890625 10.535156 15.890625 C 7.78125 15.890625 5.320312 17.914062 4.363281 20.964844 C 1.910156 21.160156 0.00390625 23.566406 0 26.472656 C 0 29.527344 2.09375 32 4.675781 32 C 4.691406 32 4.707031 32 4.722656 32 L 25.933594 32 C 25.9375 32 25.9375 32 25.941406 32 C 29.25 32 31.933594 28.828125 31.933594 24.917969 C 31.933594 21.007812 29.25 17.835938 25.941406 17.835938 C 25.675781 17.835938 25.414062 17.855469 25.152344 17.898438 C 24.421875 14.433594 21.789062 12 18.765625 12 Z M 18.765625 12 "/>
</g>
</defs>
<g id="surface1">
<use xlink:href="#surface5" mask="url(#mask0)"/>
</g>
</svg>
