<?xml version="1.0" encoding="UTF-8"?>
<svg xmlns="http://www.w3.org/2000/svg" xmlns:xlink="http://www.w3.org/1999/xlink" width="32" height="32" viewBox="0 0 32 32" version="1.1">
<g id="surface1">
<path style=" stroke:none;fill-rule:nonzero;fill:rgb(0%,0%,0%);fill-opacity:1;" d="M 16 5.332031 C 24.101562 5.332031 30.667969 8.914062 30.667969 13.332031 L 30.667969 18.667969 C 30.667969 23.085938 24.101562 26.667969 16 26.667969 C 8.042969 26.667969 1.566406 23.210938 1.339844 18.902344 L 1.332031 18.667969 L 1.332031 13.332031 C 1.332031 8.914062 7.898438 5.332031 16 5.332031 Z M 16 21.332031 C 11.039062 21.332031 6.652344 19.992188 4 17.933594 L 4 18.667969 C 4 21.175781 9.175781 24 16 24 C 22.679688 24 27.785156 21.292969 27.992188 18.824219 L 28 18.667969 L 28 17.933594 C 25.347656 19.988281 20.960938 21.332031 16 21.332031 Z M 16 8 C 9.175781 8 4 10.824219 4 13.332031 C 4 15.84375 9.175781 18.667969 16 18.667969 C 22.824219 18.667969 28 15.84375 28 13.332031 C 28 10.824219 22.824219 8 16 8 Z M 16 8 "/>
</g>
</svg>
