<?xml version="1.0" encoding="UTF-8"?>
<svg xmlns="http://www.w3.org/2000/svg" xmlns:xlink="http://www.w3.org/1999/xlink" width="32" height="32" viewBox="0 0 32 32" version="1.1">
<g id="surface1">
<path style=" stroke:none;fill-rule:nonzero;fill:rgb(0%,0%,0%);fill-opacity:1;" d="M 19.125 0.00390625 C 15.613281 -0.0703125 11.539062 0.957031 7.097656 3.636719 L 7.046875 3.675781 L 6.996094 3.71875 C 0.996094 8.265625 -0.730469 14.386719 0.265625 19.71875 C 1.261719 25.054688 4.863281 29.679688 9.570312 31.460938 L 9.671875 31.492188 L 9.789062 31.523438 C 14.3125 32.289062 16.914062 32.152344 18.589844 30.964844 C 19.425781 30.371094 19.890625 29.523438 20.105469 28.683594 C 20.316406 27.84375 20.324219 26.984375 20.324219 26.136719 C 20.316406 24.441406 20.269531 22.78125 20.929688 21.421875 C 21.585938 20.0625 22.90625 18.816406 26.316406 17.980469 C 29.566406 17.222656 31.496094 14.941406 31.90625 12.367188 C 32.316406 9.792969 31.386719 6.953125 29.429688 4.625 C 27.472656 2.296875 24.417969 0.53125 20.59375 0.101562 C 20.113281 0.046875 19.625 0.015625 19.125 0.00390625 Z M 18 4 C 19.101562 4 20 4.894531 20 6 C 20 7.105469 19.101562 8 18 8 C 16.894531 8 16 7.105469 16 6 C 16 4.894531 16.894531 4 18 4 Z M 10.882812 7.203125 C 11.984375 7.203125 12.882812 8.097656 12.882812 9.203125 C 12.882812 10.308594 11.984375 11.203125 10.882812 11.203125 C 9.777344 11.203125 8.882812 10.308594 8.882812 9.203125 C 8.882812 8.097656 9.777344 7.203125 10.882812 7.203125 Z M 26 8 C 27.101562 8 28 8.894531 28 10 C 28 11.105469 27.101562 12 26 12 C 24.894531 12 24 11.105469 24 10 C 24 8.894531 24.894531 8 26 8 Z M 6 14 C 7.101562 14 8 14.894531 8 16 C 8 17.105469 7.101562 18 6 18 C 4.894531 18 4 17.105469 4 16 C 4 14.894531 4.894531 14 6 14 Z M 6 14 "/>
</g>
</svg>
