<?xml version="1.0" encoding="UTF-8"?>
<svg xmlns="http://www.w3.org/2000/svg" xmlns:xlink="http://www.w3.org/1999/xlink" width="32" height="32" viewBox="0 0 32 32" version="1.1">
<g id="surface1">
<path style=" stroke:none;fill-rule:nonzero;fill:rgb(0%,0%,0%);fill-opacity:1;" d="M 13.332031 10.667969 L 18.667969 10.667969 L 18.667969 8.667969 C 18.667969 6.089844 20.757812 4 23.332031 4 C 25.910156 4 28 6.089844 28 8.667969 C 28 11.242188 25.910156 13.332031 23.332031 13.332031 L 21.332031 13.332031 L 21.332031 18.667969 L 23.332031 18.667969 C 25.910156 18.667969 28 20.757812 28 23.332031 C 28 25.910156 25.910156 28 23.332031 28 C 20.757812 28 18.667969 25.910156 18.667969 23.332031 L 18.667969 21.332031 L 13.332031 21.332031 L 13.332031 23.332031 C 13.332031 25.910156 11.242188 28 8.667969 28 C 6.089844 28 4 25.910156 4 23.332031 C 4 20.757812 6.089844 18.667969 8.667969 18.667969 L 10.667969 18.667969 L 10.667969 13.332031 L 8.667969 13.332031 C 6.089844 13.332031 4 11.242188 4 8.667969 C 4 6.089844 6.089844 4 8.667969 4 C 11.242188 4 13.332031 6.089844 13.332031 8.667969 Z M 10.667969 10.667969 L 10.667969 8.667969 C 10.667969 7.5625 9.769531 6.667969 8.667969 6.667969 C 7.5625 6.667969 6.667969 7.5625 6.667969 8.667969 C 6.667969 9.769531 7.5625 10.667969 8.667969 10.667969 Z M 10.667969 21.332031 L 8.667969 21.332031 C 7.5625 21.332031 6.667969 22.230469 6.667969 23.332031 C 6.667969 24.4375 7.5625 25.332031 8.667969 25.332031 C 9.769531 25.332031 10.667969 24.4375 10.667969 23.332031 Z M 21.332031 10.667969 L 23.332031 10.667969 C 24.4375 10.667969 25.332031 9.769531 25.332031 8.667969 C 25.332031 7.5625 24.4375 6.667969 23.332031 6.667969 C 22.230469 6.667969 21.332031 7.5625 21.332031 8.667969 Z M 21.332031 21.332031 L 21.332031 23.332031 C 21.332031 24.4375 22.230469 25.332031 23.332031 25.332031 C 24.4375 25.332031 25.332031 24.4375 25.332031 23.332031 C 25.332031 22.230469 24.4375 21.332031 23.332031 21.332031 Z M 13.332031 13.332031 L 13.332031 18.667969 L 18.667969 18.667969 L 18.667969 13.332031 Z M 13.332031 13.332031 "/>
</g>
</svg>
