<?xml version="1.0" encoding="UTF-8"?>
<svg xmlns="http://www.w3.org/2000/svg" xmlns:xlink="http://www.w3.org/1999/xlink" width="32" height="32" viewBox="0 0 32 32" version="1.1">
<g id="surface1">
<path style=" stroke:none;fill-rule:nonzero;fill:rgb(0%,0%,0%);fill-opacity:1;" d="M 16 29.332031 C 8.640625 29.332031 2.667969 23.359375 2.667969 16 C 2.667969 8.640625 8.640625 2.667969 16 2.667969 C 23.359375 2.667969 29.332031 8.640625 29.332031 16 C 29.332031 23.359375 23.359375 29.332031 16 29.332031 Z M 16 22.667969 C 19.679688 22.667969 22.667969 19.679688 22.667969 16 C 22.667969 12.320312 19.679688 9.332031 16 9.332031 C 13.574219 9.332031 11.449219 10.628906 10.28125 12.570312 L 12.570312 13.941406 C 13.269531 12.777344 14.542969 12 16 12 C 18.210938 12 20 13.789062 20 16 C 20 18.210938 18.210938 20 16 20 C 14.542969 20 13.265625 19.222656 12.566406 18.058594 L 10.28125 19.429688 C 11.449219 21.367188 13.574219 22.667969 16 22.667969 Z M 16 22.667969 "/>
</g>
</svg>
