<?xml version="1.0" encoding="UTF-8"?>
<svg xmlns="http://www.w3.org/2000/svg" xmlns:xlink="http://www.w3.org/1999/xlink" width="32" height="32" viewBox="0 0 32 32" version="1.1">
<g id="surface1">
<path style=" stroke:none;fill-rule:nonzero;fill:rgb(0%,0%,0%);fill-opacity:1;" d="M 12.558594 5.867188 C 7.773438 7.472656 4.769531 12.21875 5.363281 17.230469 C 5.957031 22.246094 9.984375 26.15625 15.011719 26.601562 C 20.039062 27.050781 24.695312 23.910156 26.164062 19.078125 C 21.628906 21.027344 16.5 21.71875 10.769531 21.167969 C 9.820312 15.664062 10.417969 10.566406 12.558594 5.867188 Z M 15.824219 5.316406 C 14.9375 6.898438 14.246094 8.585938 13.769531 10.339844 C 15.832031 10.382812 17.796875 11.21875 19.253906 12.679688 C 20.632812 14.054688 21.460938 15.886719 21.582031 17.828125 C 23.355469 17.375 25.035156 16.734375 26.621094 15.917969 C 26.605469 13.078125 25.457031 10.359375 23.429688 8.367188 C 21.402344 6.375 18.664062 5.277344 15.824219 5.316406 Z M 6.527344 25.410156 C 1.320312 20.203125 1.320312 11.761719 6.527344 6.554688 C 11.734375 1.347656 20.175781 1.347656 25.382812 6.554688 C 30.589844 11.761719 30.589844 20.203125 25.382812 25.410156 C 20.175781 30.617188 11.734375 30.617188 6.527344 25.410156 Z M 13.21875 13.019531 C 12.964844 14.886719 12.929688 16.78125 13.117188 18.65625 C 15.0625 18.742188 17.007812 18.644531 18.933594 18.363281 C 18.941406 16.941406 18.378906 15.570312 17.371094 14.566406 C 16.277344 13.472656 14.761719 12.90625 13.21875 13.019531 Z M 13.21875 13.019531 "/>
</g>
</svg>
