<?xml version="1.0" encoding="UTF-8"?>
<svg xmlns="http://www.w3.org/2000/svg" xmlns:xlink="http://www.w3.org/1999/xlink" width="32" height="32" viewBox="0 0 32 32" version="1.1">
<g id="surface1">
<path style=" stroke:none;fill-rule:nonzero;fill:rgb(0%,0%,0%);fill-opacity:1;" d="M 18.667969 4 L 18.667969 28 L 4 28 C 3.261719 28 2.667969 27.402344 2.667969 26.667969 L 2.667969 19.332031 C 4.507812 19.332031 6 17.839844 6 16 C 6 14.160156 4.507812 12.667969 2.667969 12.667969 L 2.667969 5.332031 C 2.667969 4.597656 3.261719 4 4 4 Z M 21.332031 4 L 28 4 C 28.738281 4 29.332031 4.597656 29.332031 5.332031 L 29.332031 12.667969 C 27.492188 12.667969 26 14.160156 26 16 C 26 17.839844 27.492188 19.332031 29.332031 19.332031 L 29.332031 26.667969 C 29.332031 27.402344 28.738281 28 28 28 L 21.332031 28 Z M 21.332031 4 "/>
</g>
</svg>
