<?xml version="1.0" encoding="UTF-8"?>
<svg xmlns="http://www.w3.org/2000/svg" xmlns:xlink="http://www.w3.org/1999/xlink" width="32" height="32" viewBox="0 0 32 32" version="1.1">
<g id="surface1">
<path style=" stroke:none;fill-rule:nonzero;fill:rgb(0%,0%,0%);fill-opacity:1;" d="M 16 2.667969 C 20.664062 2.667969 24.90625 5.367188 26.875 9.597656 C 28.847656 13.824219 28.191406 18.808594 25.191406 22.382812 C 26.867188 23.488281 27.902344 24.902344 27.992188 26.445312 L 28 26.667969 L 16 29.332031 L 4 26.667969 L 4.007812 26.445312 C 4.097656 24.898438 5.132812 23.488281 6.808594 22.378906 C 4.988281 20.222656 3.996094 17.488281 4 14.667969 C 4 8.039062 9.371094 2.667969 16 2.667969 Z M 16 17.332031 C 14.160156 17.332031 12.667969 18.230469 12.667969 19.332031 C 12.667969 20.4375 14.160156 21.332031 16 21.332031 C 17.839844 21.332031 19.332031 20.4375 19.332031 19.332031 C 19.332031 18.230469 17.839844 17.332031 16 17.332031 Z M 12 10.667969 C 10.527344 10.667969 9.332031 11.5625 9.332031 12.667969 C 9.332031 13.769531 10.527344 14.667969 12 14.667969 C 13.472656 14.667969 14.667969 13.769531 14.667969 12.667969 C 14.667969 11.5625 13.472656 10.667969 12 10.667969 Z M 20 10.667969 C 18.527344 10.667969 17.332031 11.5625 17.332031 12.667969 C 17.332031 13.769531 18.527344 14.667969 20 14.667969 C 21.472656 14.667969 22.667969 13.769531 22.667969 12.667969 C 22.667969 11.5625 21.472656 10.667969 20 10.667969 Z M 20 10.667969 "/>
</g>
</svg>
