<?xml version="1.0" encoding="UTF-8"?>
<svg xmlns="http://www.w3.org/2000/svg" xmlns:xlink="http://www.w3.org/1999/xlink" width="32" height="32" viewBox="0 0 32 32" version="1.1">
<g id="surface1">
<path style=" stroke:none;fill-rule:nonzero;fill:rgb(0%,0%,0%);fill-opacity:1;" d="M 6.667969 4 L 26.667969 4 C 28.140625 4 29.332031 5.195312 29.332031 6.667969 L 29.332031 10.667969 C 29.332031 12.140625 28.140625 13.332031 26.667969 13.332031 L 24 13.332031 L 24 17.332031 C 24 20.277344 21.613281 22.667969 18.667969 22.667969 L 10.667969 22.667969 C 7.722656 22.667969 5.332031 20.277344 5.332031 17.332031 L 5.332031 5.332031 C 5.332031 4.597656 5.929688 4 6.667969 4 Z M 24 6.667969 L 24 10.667969 L 26.667969 10.667969 L 26.667969 6.667969 Z M 2.667969 25.332031 L 26.667969 25.332031 L 26.667969 28 L 2.667969 28 Z M 2.667969 25.332031 "/>
</g>
</svg>
