<?xml version="1.0" encoding="UTF-8"?>
<svg xmlns="http://www.w3.org/2000/svg" xmlns:xlink="http://www.w3.org/1999/xlink" width="32" height="32" viewBox="0 0 32 32" version="1.1">
<g id="surface1">
<path style=" stroke:none;fill-rule:nonzero;fill:rgb(0%,0%,0%);fill-opacity:1;" d="M 17.332031 28 L 17.332031 14.667969 L 28 14.667969 L 28 28 Z M 4 17.332031 L 4 4 L 14.667969 4 L 14.667969 17.332031 Z M 12 14.667969 L 12 6.667969 L 6.667969 6.667969 L 6.667969 14.667969 Z M 4 28 L 4 20 L 14.667969 20 L 14.667969 28 Z M 6.667969 25.332031 L 12 25.332031 L 12 22.667969 L 6.667969 22.667969 Z M 20 25.332031 L 25.332031 25.332031 L 25.332031 17.332031 L 20 17.332031 Z M 17.332031 4 L 28 4 L 28 12 L 17.332031 12 Z M 20 6.667969 L 20 9.332031 L 25.332031 9.332031 L 25.332031 6.667969 Z M 20 6.667969 "/>
</g>
</svg>
