<?xml version="1.0" encoding="UTF-8"?>
<svg xmlns="http://www.w3.org/2000/svg" xmlns:xlink="http://www.w3.org/1999/xlink" width="32" height="32" viewBox="0 0 32 32" version="1.1">
<g id="surface1">
<path style=" stroke:none;fill-rule:nonzero;fill:rgb(0%,0%,0%);fill-opacity:1;" d="M 26.667969 6.667969 C 27.402344 6.667969 28 7.265625 28 8 L 28 16 C 28 16.734375 27.402344 17.332031 26.667969 17.332031 C 27.503906 18.445312 28 19.832031 28 21.332031 C 28 25.015625 25.015625 28 21.332031 28 C 17.652344 28 14.667969 25.015625 14.667969 21.332031 C 14.667969 19.832031 15.164062 18.445312 16 17.332031 L 5.332031 17.332031 C 4.597656 17.332031 4 16.734375 4 16 L 4 8 C 4 7.265625 4.597656 6.667969 5.332031 6.667969 Z M 17.332031 20 L 17.332031 22.667969 L 25.332031 22.667969 L 25.332031 20 Z M 25.332031 9.332031 L 6.667969 9.332031 L 6.667969 14.667969 L 25.332031 14.667969 Z M 25.332031 9.332031 "/>
</g>
</svg>
