<?xml version="1.0" encoding="UTF-8"?>
<svg xmlns="http://www.w3.org/2000/svg" xmlns:xlink="http://www.w3.org/1999/xlink" width="32" height="32" viewBox="0 0 32 32" version="1.1">
<defs>
<filter id="alpha" filterUnits="objectBoundingBox" x="0%" y="0%" width="100%" height="100%">
  <feColorMatrix type="matrix" in="SourceGraphic" values="0 0 0 0 1 0 0 0 0 1 0 0 0 0 1 0 0 0 1 0"/>
</filter>
<mask id="mask0">
  <g filter="url(#alpha)">
<rect x="0" y="0" width="32" height="32" style="fill:rgb(0%,0%,0%);fill-opacity:0.996078;stroke:none;"/>
  </g>
</mask>
<clipPath id="clip1">
  <rect x="0" y="0" width="32" height="32"/>
</clipPath>
<g id="surface5" clip-path="url(#clip1)">
<path style=" stroke:none;fill-rule:evenodd;fill:rgb(0%,0%,0%);fill-opacity:1;" d="M 2 0 C 0.890625 0 0 0.890625 0 2 L 0 30 C 0 31.109375 0.890625 32 2 32 L 12 32 C 13.109375 32 14 31.109375 14 30 L 14 28 L 18 28 L 18 30 L 16 30 L 16 32 L 24 32 L 24 30 L 22 30 L 22 28 L 30 28 C 31.109375 28 32 27.109375 32 26 L 32 10 C 32 8.890625 31.109375 8 30 8 L 14 8 L 14 2 C 14 0.890625 13.109375 0 12 0 Z M 2 4 L 12 4 L 12 6 L 2 6 Z M 12 10 L 28 10 C 29.109375 10 30 10.890625 30 12 L 30 24 C 30 25.109375 29.109375 26 28 26 L 12 26 C 10.890625 26 10 25.109375 10 24 L 10 12 C 10 10.890625 10.890625 10 12 10 Z M 4 16 C 5.105469 16 6 16.894531 6 18 C 6 19.105469 5.105469 20 4 20 C 2.894531 20 2 19.105469 2 18 C 2 16.894531 2.894531 16 4 16 Z M 4 28 L 10 28 L 10 30 L 4 30 Z M 4 28 "/>
</g>
</defs>
<g id="surface1">
<use xlink:href="#surface5" mask="url(#mask0)"/>
</g>
</svg>
