<?xml version="1.0" encoding="UTF-8"?>
<svg xmlns="http://www.w3.org/2000/svg" xmlns:xlink="http://www.w3.org/1999/xlink" width="32" height="32" viewBox="0 0 32 32" version="1.1">
<g id="surface1">
<path style=" stroke:none;fill-rule:nonzero;fill:rgb(0%,0%,0%);fill-opacity:1;" d="M 13.433594 14.667969 C 14.234375 14.667969 14.882812 15.265625 14.867188 16 C 14.867188 16.734375 14.234375 17.332031 13.433594 17.332031 C 12.648438 17.332031 12 16.734375 12 16 C 12 15.265625 12.632812 14.667969 13.433594 14.667969 Z M 18.566406 14.667969 C 19.367188 14.667969 20 15.265625 20 16 C 20 16.734375 19.367188 17.332031 18.566406 17.332031 C 17.777344 17.332031 17.132812 16.734375 17.132812 16 C 17.132812 15.265625 17.765625 14.667969 18.566406 14.667969 Z M 25.1875 2.667969 C 26.738281 2.667969 28 3.953125 28 5.550781 L 28 30.667969 L 25.050781 28.007812 L 23.390625 26.4375 L 21.636719 24.773438 L 22.363281 27.363281 L 6.8125 27.363281 C 5.261719 27.363281 4 26.074219 4 24.480469 L 4 5.550781 C 4 3.953125 5.261719 2.667969 6.8125 2.667969 Z M 19.894531 20.949219 C 22.925781 20.851562 24.09375 18.824219 24.09375 18.824219 C 24.09375 14.316406 22.117188 10.660156 22.117188 10.660156 C 20.144531 9.148438 18.261719 9.191406 18.261719 9.191406 L 18.070312 9.414062 C 20.402344 10.144531 21.484375 11.191406 21.484375 11.191406 C 20.210938 10.476562 18.808594 10.019531 17.355469 9.847656 C 16.4375 9.746094 15.507812 9.753906 14.589844 9.875 C 14.503906 9.875 14.4375 9.890625 14.355469 9.902344 C 13.875 9.945312 12.707031 10.128906 11.242188 10.785156 C 10.734375 11.023438 10.433594 11.191406 10.433594 11.191406 C 10.433594 11.191406 11.570312 10.085938 14.039062 9.359375 L 13.902344 9.191406 C 13.902344 9.191406 12.023438 9.148438 10.046875 10.660156 C 10.046875 10.660156 8.074219 14.316406 8.074219 18.824219 C 8.074219 18.824219 9.226562 20.851562 12.257812 20.949219 C 12.257812 20.949219 12.761719 20.320312 13.175781 19.789062 C 11.433594 19.257812 10.777344 18.136719 10.777344 18.136719 C 10.777344 18.136719 10.910156 18.234375 11.160156 18.375 C 11.171875 18.386719 11.183594 18.402344 11.214844 18.414062 C 11.253906 18.445312 11.296875 18.457031 11.335938 18.488281 C 11.679688 18.683594 12.023438 18.835938 12.335938 18.960938 C 12.898438 19.1875 13.570312 19.410156 14.355469 19.566406 C 15.527344 19.796875 16.734375 19.800781 17.90625 19.578125 C 18.589844 19.457031 19.257812 19.253906 19.894531 18.976562 C 20.375 18.792969 20.910156 18.527344 21.472656 18.152344 C 21.472656 18.152344 20.785156 19.296875 18.988281 19.816406 C 19.402344 20.347656 19.894531 20.949219 19.894531 20.949219 Z M 19.894531 20.949219 "/>
</g>
</svg>
