<?xml version="1.0" encoding="UTF-8"?>
<svg xmlns="http://www.w3.org/2000/svg" xmlns:xlink="http://www.w3.org/1999/xlink" width="32" height="32" viewBox="0 0 32 32" version="1.1">
<g id="surface1">
<path style=" stroke:none;fill-rule:nonzero;fill:rgb(0%,0%,0%);fill-opacity:1;" d="M 17.332031 12.226562 C 15.691406 11.644531 13.859375 12.195312 12.808594 13.585938 C 11.757812 14.972656 11.726562 16.882812 12.734375 18.304688 C 13.738281 19.730469 15.550781 20.335938 17.210938 19.808594 C 18.871094 19.285156 20 17.742188 20 16 L 20 3.277344 C 25.410156 4.976562 29.332031 10.03125 29.332031 16 C 29.332031 23.363281 23.363281 29.332031 16 29.332031 C 8.636719 29.332031 2.667969 23.363281 2.667969 16 C 2.667969 8.636719 8.636719 2.667969 16 2.667969 C 16.449219 2.667969 16.894531 2.6875 17.332031 2.734375 Z M 17.332031 12.226562 "/>
</g>
</svg>
