<?xml version="1.0" encoding="UTF-8"?>
<svg xmlns="http://www.w3.org/2000/svg" xmlns:xlink="http://www.w3.org/1999/xlink" width="32" height="32" viewBox="0 0 32 32" version="1.1">
<g id="surface1">
<path style=" stroke:none;fill-rule:nonzero;fill:rgb(0%,0%,0%);fill-opacity:1;" d="M 3.742188 1.855469 L 28.257812 26.371094 L 26.371094 28.257812 L 21.375 23.261719 L 16 28.648438 L 4.691406 17.324219 C 1.972656 14.277344 1.988281 9.652344 4.738281 6.625 L 1.855469 3.742188 Z M 6.640625 15.496094 L 16 24.871094 L 19.488281 21.375 L 6.628906 8.515625 C 4.902344 10.511719 4.894531 13.496094 6.640625 15.496094 Z M 26.992188 6.34375 C 30.007812 9.367188 30.109375 14.183594 27.304688 17.324219 L 25.125 19.503906 L 23.238281 17.621094 L 25.359375 15.496094 C 27.191406 13.394531 27.09375 10.21875 25.101562 8.226562 C 23.101562 6.222656 19.875 6.144531 17.78125 8.023438 L 16.003906 9.621094 L 14.222656 8.023438 C 13.753906 7.605469 13.234375 7.285156 12.679688 7.058594 L 9.679688 4.058594 C 11.90625 3.785156 14.222656 4.445312 16 6.039062 C 19.132812 3.226562 23.972656 3.320312 26.992188 6.34375 Z M 26.992188 6.34375 "/>
</g>
</svg>
