<?xml version="1.0" encoding="UTF-8"?>
<svg xmlns="http://www.w3.org/2000/svg" xmlns:xlink="http://www.w3.org/1999/xlink" width="32" height="32" viewBox="0 0 32 32" version="1.1">
<g id="surface1">
<path style=" stroke:none;fill-rule:nonzero;fill:rgb(0%,0%,0%);fill-opacity:1;" d="M 6.667969 14.667969 L 25.332031 14.667969 L 25.332031 17.332031 L 6.667969 17.332031 Z M 16 10.667969 C 14.894531 10.667969 14 9.769531 14 8.667969 C 14 7.5625 14.894531 6.667969 16 6.667969 C 17.105469 6.667969 18 7.5625 18 8.667969 C 18 9.769531 17.105469 10.667969 16 10.667969 Z M 16 25.332031 C 14.894531 25.332031 14 24.4375 14 23.332031 C 14 22.230469 14.894531 21.332031 16 21.332031 C 17.105469 21.332031 18 22.230469 18 23.332031 C 18 24.4375 17.105469 25.332031 16 25.332031 Z M 16 25.332031 "/>
</g>
</svg>
