<?xml version="1.0" encoding="UTF-8"?>
<svg xmlns="http://www.w3.org/2000/svg" xmlns:xlink="http://www.w3.org/1999/xlink" width="32" height="32" viewBox="0 0 32 32" version="1.1">
<g id="surface1">
<path style=" stroke:none;fill-rule:nonzero;fill:rgb(0%,0%,0%);fill-opacity:1;" d="M 14.152344 0 L 2.152344 2.820312 L 2.152344 28.820312 L 14.152344 32 Z M 11.902344 14 C 12.457031 14 12.902344 14.894531 12.902344 16 C 12.902344 17.105469 12.457031 18 11.902344 18 C 11.351562 18 10.902344 17.105469 10.902344 16 C 10.902344 14.894531 11.351562 14 11.902344 14 Z M 11.902344 14 "/>
<path style=" stroke:none;fill-rule:nonzero;fill:rgb(0%,0%,0%);fill-opacity:1;" d="M 16.160156 1.992188 L 16.160156 5.992188 L 18.152344 5.992188 L 18.152344 14.007812 C 18.214844 13.769531 18.316406 13.542969 18.453125 13.339844 C 18.46875 13.316406 18.453125 13.304688 18.46875 13.28125 C 18.472656 13.277344 18.480469 13.273438 18.484375 13.265625 C 18.492188 13.253906 18.503906 13.246094 18.511719 13.234375 C 18.707031 12.972656 18.960938 12.753906 19.25 12.601562 C 19.253906 12.597656 19.261719 12.59375 19.265625 12.585938 C 20.113281 11.675781 21.09375 10.953125 22.152344 10.46875 L 22.152344 1.992188 Z M 22.152344 21.902344 C 22.132812 21.914062 22.042969 21.976562 22.039062 21.976562 C 22.007812 22.007812 21.144531 23.289062 21.125 23.335938 C 21.105469 23.382812 20.785156 24.890625 20.785156 24.945312 L 20.785156 24.957031 C 20.785156 25.015625 20.933594 26.054688 20.949219 26.109375 C 20.964844 26.164062 21.394531 27.117188 21.421875 27.160156 C 21.449219 27.207031 22.109375 28.011719 22.144531 28.042969 C 22.144531 28.042969 22.152344 28.046875 22.152344 28.046875 Z M 22.152344 21.902344 "/>
<path style=" stroke:none;fill-rule:evenodd;fill:rgb(0%,0%,0%);fill-opacity:1;" d="M 25.25 12.003906 C 23.441406 11.921875 21.539062 12.792969 20.257812 14.542969 L 20.246094 14.550781 L 20.238281 14.5625 C 19.644531 15.402344 19.664062 16.082031 19.621094 16.839844 C 19.574219 17.59375 19.605469 18.386719 19.65625 19.140625 C 19.695312 19.722656 19.753906 20.1875 19.804688 20.636719 C 18.78125 20.960938 18.042969 21.898438 18.042969 23.019531 L 18.042969 29.316406 C 18.042969 30.710938 19.175781 31.835938 20.582031 31.835938 L 29.460938 31.835938 C 30.867188 31.835938 32 30.710938 32 29.316406 L 32 23.019531 C 32 21.910156 31.277344 20.980469 30.273438 20.644531 C 30.328125 20.222656 30.390625 19.808594 30.429688 19.28125 C 30.484375 18.542969 30.515625 17.75 30.464844 16.976562 C 30.417969 16.207031 30.351562 15.46875 29.894531 14.679688 L 29.855469 14.617188 L 29.808594 14.550781 C 28.730469 13.046875 27.058594 12.089844 25.25 12.003906 Z M 25.097656 15.144531 C 25.84375 15.179688 26.617188 15.613281 27.171875 16.347656 C 27.171875 16.382812 27.269531 16.671875 27.300781 17.164062 C 27.332031 17.710938 27.3125 18.398438 27.261719 19.046875 C 27.21875 19.597656 27.160156 20.082031 27.105469 20.503906 L 22.984375 20.503906 C 22.925781 20.035156 22.863281 19.503906 22.824219 18.929688 C 22.777344 18.253906 22.753906 17.554688 22.785156 17.023438 C 22.808594 16.628906 22.929688 16.328125 22.914062 16.304688 C 23.628906 15.386719 24.363281 15.113281 25.097656 15.144531 Z M 25.023438 22.9375 C 26.160156 22.9375 27.082031 23.855469 27.082031 24.984375 C 27.082031 25.75 26.65625 26.449219 25.972656 26.800781 L 25.972656 28.371094 C 25.972656 28.894531 25.550781 29.316406 25.023438 29.316406 C 24.496094 29.316406 24.070312 28.894531 24.070312 28.371094 L 24.070312 26.800781 C 23.386719 26.449219 22.960938 25.75 22.960938 24.984375 C 22.960938 23.855469 23.882812 22.9375 25.023438 22.9375 Z M 25.023438 22.9375 "/>
</g>
</svg>
