<?xml version="1.0" encoding="UTF-8"?>
<svg xmlns="http://www.w3.org/2000/svg" xmlns:xlink="http://www.w3.org/1999/xlink" width="32" height="32" viewBox="0 0 32 32" version="1.1">
<g id="surface1">
<path style=" stroke:none;fill-rule:nonzero;fill:rgb(0%,0%,0%);fill-opacity:1;" d="M 6.109375 23.09375 C 4.738281 21.636719 4 20 4 17.347656 C 4 12.679688 7.277344 8.5 12.039062 6.429688 L 13.230469 8.269531 C 8.785156 10.671875 7.914062 13.792969 7.566406 15.761719 C 8.285156 15.390625 9.222656 15.261719 10.140625 15.347656 C 12.546875 15.570312 14.441406 17.546875 14.441406 20 C 14.441406 22.578125 12.351562 24.667969 9.773438 24.667969 C 8.34375 24.667969 6.976562 24.011719 6.109375 23.09375 Z M 19.445312 23.09375 C 18.070312 21.636719 17.332031 20 17.332031 17.347656 C 17.332031 12.679688 20.609375 8.5 25.375 6.429688 L 26.5625 8.269531 C 22.117188 10.671875 21.246094 13.792969 20.902344 15.761719 C 21.617188 15.390625 22.554688 15.261719 23.472656 15.347656 C 25.878906 15.570312 27.773438 17.546875 27.773438 20 C 27.773438 22.578125 25.683594 24.667969 23.109375 24.667969 C 21.675781 24.667969 20.308594 24.011719 19.445312 23.09375 Z M 19.445312 23.09375 "/>
</g>
</svg>
