<?xml version="1.0" encoding="UTF-8"?>
<svg xmlns="http://www.w3.org/2000/svg" xmlns:xlink="http://www.w3.org/1999/xlink" width="32" height="32" viewBox="0 0 32 32" version="1.1">
<g id="surface1">
<path style=" stroke:none;fill-rule:nonzero;fill:rgb(0%,0%,0%);fill-opacity:1;" d="M 11.527344 23.011719 L 16.050781 25.894531 L 20.574219 23.015625 L 23.054688 24.59375 L 16.050781 29.054688 L 9.046875 24.59375 L 11.527344 23.015625 Z M 10.359375 11.972656 L 13.550781 9.902344 L 10.316406 7.804688 L 7.039062 9.828125 Z M 12.8125 13.558594 L 16 15.625 L 19.1875 13.5625 L 16 11.492188 L 12.8125 13.5625 Z M 18.453125 17.214844 L 21.683594 19.304688 L 24.953125 17.300781 L 21.636719 15.152344 L 18.453125 17.210938 Z M 16 8.3125 L 21.648438 4.648438 L 29.945312 9.773438 L 24.089844 13.5625 L 29.949219 17.363281 L 21.648438 22.457031 L 16 18.800781 L 10.351562 22.453125 L 2.046875 17.363281 L 7.90625 13.5625 L 2.050781 9.773438 L 10.351562 4.648438 Z M 18.449219 9.902344 L 21.640625 11.972656 L 24.957031 9.828125 L 21.683594 7.804688 Z M 13.546875 17.214844 L 10.359375 15.152344 L 7.046875 17.300781 L 10.3125 19.304688 Z M 13.546875 17.214844 "/>
</g>
</svg>
