<?xml version="1.0" encoding="UTF-8"?>
<svg xmlns="http://www.w3.org/2000/svg" xmlns:xlink="http://www.w3.org/1999/xlink" width="32" height="32" viewBox="0 0 32 32" version="1.1">
<g id="surface1">
<path style=" stroke:none;fill-rule:nonzero;fill:rgb(0%,0%,0%);fill-opacity:1;" d="M 14 11.332031 C 14 12.070312 13.402344 12.667969 12.667969 12.667969 L 8 12.667969 C 7.554688 12.667969 7.332031 13.015625 7.332031 13.375 C 7.332031 15.136719 7.671875 16.539062 8.21875 17.632812 C 8.507812 18.210938 8.75 18.527344 8.914062 18.6875 C 9.894531 19.699219 11.429688 20.234375 13.039062 20.136719 C 13.164062 20.128906 13.304688 20.054688 13.480469 19.863281 C 13.59375 19.742188 13.6875 19.613281 13.765625 19.46875 C 14.332031 18.171875 15.816406 17.546875 17.140625 18.039062 C 18.066406 18.382812 18.84375 18.617188 19.558594 18.785156 C 19.820312 18.847656 20.058594 18.898438 20.339844 18.949219 C 20.238281 18.929688 20.875 19.046875 21.03125 19.078125 C 21.484375 19.171875 21.828125 19.273438 22.207031 19.464844 C 23.136719 19.933594 23.945312 20.605469 24.574219 21.433594 C 24.632812 20.644531 24.675781 19.742188 24.691406 18.730469 C 24.734375 15.75 24.484375 12.769531 23.945312 9.835938 C 23.847656 9.304688 23.628906 9.085938 23.0625 8.878906 C 22.804688 8.789062 22.542969 8.71875 22.277344 8.671875 C 22.082031 8.632812 21.410156 8.523438 21.355469 8.511719 C 20.316406 8.332031 19.273438 8.152344 18.234375 7.96875 L 17.53125 7.84375 C 16.605469 7.683594 15.832031 7.042969 15.5 6.164062 C 15.484375 6.125 15.46875 6.085938 15.453125 6.046875 C 15.144531 6.011719 14.828125 5.996094 14.515625 6 C 14.15625 6 14 6.164062 14 6.617188 Z M 22.308594 26.851562 C 22.777344 26.378906 23.054688 25.746094 23.089844 25.082031 C 23.160156 23.703125 21.992188 21.777344 20 21.570312 C 19.175781 21.488281 17.886719 21.164062 16.210938 20.539062 C 16.210938 20.539062 15.277344 22.675781 13.199219 22.800781 C 10.976562 22.933594 8.625 22.222656 6.996094 20.539062 C 6.996094 20.539062 4.667969 18.351562 4.667969 13.375 C 4.667969 12.289062 5.054688 11.480469 5.53125 10.835938 C 6.8125 9.113281 8.871094 7.128906 11.042969 5.097656 C 12 4.199219 12.933594 3.332031 14.515625 3.332031 C 17.238281 3.332031 17.609375 4.21875 17.992188 5.21875 L 21.796875 5.882812 C 23.003906 6.105469 25.996094 6.304688 26.566406 9.34375 C 27.90625 16.570312 27.175781 22.503906 27.03125 23.574219 C 26.082031 30.402344 20.667969 30.070312 20.453125 30.070312 C 17.710938 30.070312 16.21875 28.238281 16.210938 26.5 C 16.207031 25.425781 16.722656 24.417969 17.59375 23.789062 C 18.1875 23.367188 18.902344 23.144531 19.628906 23.152344 C 20.039062 23.152344 20.546875 23.574219 20.546875 24.15625 C 20.546875 24.648438 20.207031 24.921875 20.039062 25.015625 C 19.738281 25.179688 18.542969 25.246094 18.542969 26.167969 C 18.542969 26.59375 19.007812 27.65625 20.390625 27.65625 C 21.171875 27.65625 21.847656 27.3125 22.304688 26.851562 Z M 19.910156 14.171875 C 20.132812 13.617188 20.746094 13.328125 21.476562 13.394531 C 22.199219 13.484375 22.75 13.929688 22.816406 14.527344 C 22.816406 14.636719 22.839844 14.769531 22.792969 14.835938 C 22.75 14.902344 22.707031 14.925781 22.660156 14.925781 C 22.375 14.96875 21.9375 14.925781 21.296875 14.859375 C 20.660156 14.792969 20.222656 14.726562 19.957031 14.59375 C 19.914062 14.570312 19.871094 14.550781 19.847656 14.484375 C 19.824219 14.414062 19.867188 14.28125 19.914062 14.171875 Z M 19.910156 14.171875 "/>
</g>
</svg>
