<?xml version="1.0" encoding="UTF-8"?>
<svg xmlns="http://www.w3.org/2000/svg" xmlns:xlink="http://www.w3.org/1999/xlink" width="32" height="32" viewBox="0 0 32 32" version="1.1">
<g id="surface1">
<path style=" stroke:none;fill-rule:nonzero;fill:rgb(0%,0%,0%);fill-opacity:1;" d="M 1.574219 16 C 2.828125 9.171875 8.8125 4 16 4 C 23.1875 4 29.171875 9.171875 30.425781 16 C 29.171875 22.828125 23.1875 28 16 28 C 8.8125 28 2.828125 22.828125 1.574219 16 Z M 16 22.667969 C 19.683594 22.667969 22.667969 19.683594 22.667969 16 C 22.667969 12.316406 19.683594 9.332031 16 9.332031 C 12.316406 9.332031 9.332031 12.316406 9.332031 16 C 9.332031 19.683594 12.316406 22.667969 16 22.667969 Z M 16 20 C 13.789062 20 12 18.210938 12 16 C 12 13.789062 13.789062 12 16 12 C 18.210938 12 20 13.789062 20 16 C 20 18.210938 18.210938 20 16 20 Z M 16 20 "/>
</g>
</svg>
