<?xml version="1.0" encoding="UTF-8"?>
<svg xmlns="http://www.w3.org/2000/svg" xmlns:xlink="http://www.w3.org/1999/xlink" width="32" height="32" viewBox="0 0 32 32" version="1.1">
<g id="surface1">
<path style=" stroke:none;fill-rule:nonzero;fill:rgb(0%,0%,0%);fill-opacity:1;" d="M 16 2.667969 C 23.363281 2.667969 29.332031 8.636719 29.332031 16 C 29.332031 23.363281 23.363281 29.332031 16 29.332031 C 8.636719 29.332031 2.667969 23.363281 2.667969 16 C 2.667969 8.636719 8.636719 2.667969 16 2.667969 Z M 16 5.332031 C 10.109375 5.332031 5.332031 10.109375 5.332031 16 C 5.332031 21.890625 10.109375 26.667969 16 26.667969 C 21.890625 26.667969 26.667969 21.890625 26.667969 16 C 26.667969 10.109375 21.890625 5.332031 16 5.332031 Z M 16 9.332031 C 18.878906 9.335938 21.429688 11.183594 22.332031 13.917969 C 23.230469 16.652344 22.273438 19.65625 19.957031 21.363281 C 17.640625 23.074219 14.488281 23.101562 12.140625 21.4375 C 9.792969 19.769531 8.777344 16.785156 9.625 14.035156 C 10.269531 15.472656 11.828125 16.261719 13.367188 15.933594 C 14.90625 15.601562 16.003906 14.242188 16 12.667969 C 16 11.355469 15.230469 10.164062 14.035156 9.625 C 14.65625 9.4375 15.316406 9.332031 16 9.332031 Z M 16 9.332031 "/>
</g>
</svg>
