<?xml version="1.0" encoding="UTF-8"?>
<svg xmlns="http://www.w3.org/2000/svg" xmlns:xlink="http://www.w3.org/1999/xlink" width="32" height="32" viewBox="0 0 32 32" version="1.1">
<g id="surface1">
<path style=" stroke:none;fill-rule:nonzero;fill:rgb(0%,0%,0%);fill-opacity:1;" d="M 16 7.496094 C 11.128906 7.496094 6.292969 10.230469 3.140625 15.484375 L 2.832031 16 L 3.140625 16.515625 C 6.292969 21.769531 11.128906 24.488281 16 24.488281 C 20.871094 24.488281 25.707031 21.769531 28.859375 16.515625 L 29.167969 16 L 28.859375 15.484375 C 25.707031 10.230469 20.871094 7.496094 16 7.496094 Z M 16 9.488281 C 19.828125 9.488281 23.507812 11.933594 26.320312 16 C 23.507812 20.066406 19.828125 22.496094 16 22.496094 C 12.175781 22.496094 8.492188 20.058594 5.679688 16 C 8.492188 11.941406 12.175781 9.488281 16 9.488281 Z M 19.273438 12.40625 L 12.441406 19.183594 C 13.652344 20.414062 15.425781 20.902344 17.09375 20.464844 C 18.761719 20.027344 20.066406 18.730469 20.515625 17.066406 C 20.964844 15.402344 20.492188 13.625 19.273438 12.40625 Z M 19.273438 12.40625 "/>
<path style=" stroke:none;fill-rule:evenodd;fill:rgb(0%,0%,0%);fill-opacity:1;" d="M 16 9.492188 C 12.421875 9.492188 9.503906 12.425781 9.503906 16.003906 C 9.503906 19.578125 12.421875 22.5 16 22.5 C 19.3125 22.5 21.824219 19.894531 22.214844 16.679688 C 22.390625 16.5 22.492188 16.253906 22.496094 16.003906 C 22.492188 15.742188 22.382812 15.492188 22.199219 15.308594 C 21.800781 12.105469 19.304688 9.492188 16 9.492188 Z M 16 11.5 C 18.496094 11.5 20.5 13.503906 20.5 16.003906 C 20.5 18.5 18.496094 20.488281 16 20.488281 C 13.5 20.488281 11.496094 18.5 11.496094 16.003906 C 11.496094 13.503906 13.5 11.5 16 11.5 Z M 16 11.5 "/>
</g>
</svg>
