<?xml version="1.0" encoding="UTF-8"?>
<svg xmlns="http://www.w3.org/2000/svg" xmlns:xlink="http://www.w3.org/1999/xlink" width="32" height="32" viewBox="0 0 32 32" version="1.1">
<g id="surface1">
<path style=" stroke:none;fill-rule:nonzero;fill:rgb(0%,0%,0%);fill-opacity:1;" d="M 17.332031 26.585938 C 22.914062 25.875 26.984375 20.949219 26.632812 15.332031 C 26.28125 9.71875 21.628906 5.339844 16 5.332031 C 10.367188 5.328125 5.699219 9.707031 5.347656 15.332031 C 4.992188 20.957031 9.074219 25.882812 14.667969 26.585938 L 14.667969 18.667969 L 12 18.667969 L 12 16 L 14.667969 16 L 14.667969 13.792969 C 14.667969 12.011719 14.851562 11.367188 15.199219 10.714844 C 15.542969 10.066406 16.070312 9.539062 16.714844 9.199219 C 17.222656 8.925781 17.855469 8.761719 18.964844 8.691406 C 19.402344 8.664062 19.96875 8.699219 20.667969 8.796875 L 20.667969 11.332031 L 20 11.332031 C 18.777344 11.332031 18.273438 11.390625 17.96875 11.550781 C 17.789062 11.644531 17.644531 11.789062 17.550781 11.96875 C 17.390625 12.269531 17.332031 12.570312 17.332031 13.792969 L 17.332031 16 L 20.667969 16 L 20 18.667969 L 17.332031 18.667969 Z M 16 29.332031 C 8.636719 29.332031 2.667969 23.363281 2.667969 16 C 2.667969 8.636719 8.636719 2.667969 16 2.667969 C 23.363281 2.667969 29.332031 8.636719 29.332031 16 C 29.332031 23.363281 23.363281 29.332031 16 29.332031 Z M 16 29.332031 "/>
</g>
</svg>
