<?xml version="1.0" encoding="UTF-8"?>
<svg xmlns="http://www.w3.org/2000/svg" xmlns:xlink="http://www.w3.org/1999/xlink" width="32" height="32" viewBox="0 0 32 32" version="1.1">
<g id="surface1">
<path style=" stroke:none;fill-rule:nonzero;fill:rgb(0%,0%,0%);fill-opacity:1;" d="M 5.003906 -0.00390625 C 4.449219 -0.0078125 3.996094 0.445312 4 1 L 4 31 C 3.996094 31.554688 4.449219 32.007812 5.003906 32.003906 L 26.996094 32.003906 C 27.550781 32.007812 28.003906 31.554688 28 31 L 28 6.992188 C 27.996094 6.730469 27.894531 6.484375 27.710938 6.300781 L 21.730469 0.292969 C 21.542969 0.105469 21.289062 -0.00390625 21.023438 -0.00390625 Z M 5.992188 2.003906 L 20.003906 2.003906 L 20.007812 6.996094 C 20.003906 7.546875 20.449219 7.992188 21 8 L 26 8 L 25.996094 29.996094 L 5.992188 29.996094 Z M 5.992188 2.003906 "/>
<path style=" stroke:none;fill-rule:nonzero;fill:rgb(0%,0%,0%);fill-opacity:1;" d="M 11.125 26 L 13.359375 26 C 13.589844 26 13.742188 25.878906 13.742188 25.421875 L 13.742188 20.628906 C 13.742188 20.460938 13.816406 20.425781 13.910156 20.425781 L 16.070312 20.425781 C 18.714844 20.425781 21.253906 19.859375 21.253906 15.246094 C 21.253906 10.351562 18.425781 9.972656 15.597656 9.972656 L 11.125 9.972656 C 10.894531 9.972656 10.746094 10.027344 10.746094 10.496094 L 10.746094 25.421875 C 10.746094 25.878906 10.894531 26 11.125 26 Z M 13.894531 18.644531 C 13.800781 18.644531 13.742188 18.609375 13.742188 18.445312 L 13.742188 11.96875 C 13.742188 11.800781 13.816406 11.746094 13.894531 11.746094 L 15.429688 11.746094 C 17.101562 11.746094 18.257812 11.96875 18.257812 15.257812 C 18.257812 18.1875 17.679688 18.644531 15.71875 18.644531 Z M 13.894531 18.644531 "/>
</g>
</svg>
