<?xml version="1.0" encoding="UTF-8"?>
<svg xmlns="http://www.w3.org/2000/svg" xmlns:xlink="http://www.w3.org/1999/xlink" width="32" height="32" viewBox="0 0 32 32" version="1.1">
<g id="surface1">
<path style=" stroke:none;fill-rule:nonzero;fill:rgb(0%,0%,0%);fill-opacity:1;" d="M 21.332031 2.667969 L 28 9.332031 L 28 27.992188 C 28 28.730469 27.40625 29.332031 26.675781 29.332031 L 5.324219 29.332031 C 4.59375 29.332031 4 28.726562 4 28.011719 L 4 3.988281 C 4 3.257812 4.597656 2.667969 5.332031 2.667969 Z M 20 5.332031 L 6.667969 5.332031 L 6.667969 26.667969 L 25.332031 26.667969 L 25.332031 10.667969 L 20 10.667969 Z M 17.332031 13.332031 L 17.332031 20 L 16 20 L 16 13.332031 Z M 14.667969 13.332031 L 14.667969 14.667969 L 12 14.667969 C 11.265625 14.667969 10.667969 15.265625 10.667969 16 L 10.667969 17.332031 C 10.667969 18.070312 11.265625 18.667969 12 18.667969 L 13.332031 18.667969 L 13.332031 17.332031 L 12 17.332031 L 12 16 L 14.667969 16 L 14.667969 18.667969 C 14.667969 19.402344 14.070312 20 13.332031 20 L 12 20 C 10.527344 20 9.332031 18.808594 9.332031 17.332031 L 9.332031 16 C 9.332031 14.527344 10.527344 13.332031 12 13.332031 Z M 22.667969 13.332031 L 22.667969 14.667969 L 20 14.667969 L 20 16 L 22.667969 16 L 22.667969 17.332031 L 20 17.332031 L 20 20 L 18.667969 20 L 18.667969 13.332031 Z M 22.667969 13.332031 "/>
</g>
</svg>
