<?xml version="1.0" encoding="UTF-8"?>
<svg xmlns="http://www.w3.org/2000/svg" xmlns:xlink="http://www.w3.org/1999/xlink" width="32" height="32" viewBox="0 0 32 32" version="1.1">
<g id="surface1">
<path style=" stroke:none;fill-rule:nonzero;fill:rgb(0%,0%,0%);fill-opacity:1;" d="M 21.332031 2.667969 L 28 9.332031 L 28 28.011719 C 28 28.742188 27.40625 29.332031 26.675781 29.332031 L 5.324219 29.332031 C 4.59375 29.328125 4.003906 28.738281 4 28.011719 L 4 3.988281 C 4 3.257812 4.59375 2.667969 5.324219 2.667969 Z M 11.460938 17.082031 L 10.136719 17.84375 L 11.46875 20.15625 L 12.792969 19.390625 C 13.316406 19.886719 13.957031 20.261719 14.667969 20.472656 L 14.667969 22 L 17.332031 22 L 17.332031 20.472656 C 18.035156 20.265625 18.675781 19.894531 19.207031 19.390625 L 20.53125 20.15625 L 21.863281 17.84375 L 20.539062 17.082031 C 20.707031 16.371094 20.707031 15.628906 20.539062 14.917969 L 21.863281 14.15625 L 20.53125 11.84375 L 19.207031 12.609375 C 18.675781 12.105469 18.035156 11.734375 17.332031 11.527344 L 17.332031 10 L 14.667969 10 L 14.667969 11.527344 C 13.964844 11.734375 13.324219 12.105469 12.792969 12.609375 L 11.46875 11.84375 L 10.136719 14.15625 L 11.460938 14.917969 C 11.289062 15.628906 11.289062 16.371094 11.460938 17.082031 Z M 16 18 C 14.894531 18 14 17.105469 14 16 C 14 14.894531 14.894531 14 16 14 C 17.105469 14 18 14.894531 18 16 C 18 17.105469 17.105469 18 16 18 Z M 16 18 "/>
</g>
</svg>
