<?xml version="1.0" encoding="UTF-8"?>
<svg xmlns="http://www.w3.org/2000/svg" xmlns:xlink="http://www.w3.org/1999/xlink" width="32" height="32" viewBox="0 0 32 32" version="1.1">
<g id="surface1">
<path style=" stroke:none;fill-rule:nonzero;fill:rgb(0%,0%,0%);fill-opacity:1;" d="M 20 5.332031 L 6.667969 5.332031 L 6.667969 26.667969 L 25.332031 26.667969 L 25.332031 10.667969 L 20 10.667969 Z M 4 3.988281 C 4 3.257812 4.597656 2.667969 5.332031 2.667969 L 21.332031 2.667969 L 28 9.332031 L 28 27.992188 C 28.003906 28.726562 27.414062 29.328125 26.675781 29.332031 L 5.324219 29.332031 C 4.59375 29.328125 4.003906 28.738281 4 28.011719 Z M 18.039062 19.261719 C 15.726562 20.613281 12.769531 20.039062 11.128906 17.921875 C 9.488281 15.804688 9.671875 12.796875 11.558594 10.894531 C 13.457031 8.996094 16.472656 8.808594 18.59375 10.453125 C 20.71875 12.097656 21.289062 15.0625 19.925781 17.375 L 22.871094 20.324219 L 20.984375 22.210938 Z M 17.214844 16.550781 C 17.90625 15.882812 18.1875 14.890625 17.941406 13.957031 C 17.699219 13.027344 16.96875 12.296875 16.039062 12.054688 C 15.105469 11.808594 14.113281 12.089844 13.445312 12.78125 C 12.433594 13.828125 12.449219 15.492188 13.476562 16.519531 C 14.503906 17.546875 16.167969 17.5625 17.214844 16.550781 Z M 17.214844 16.550781 "/>
</g>
</svg>
