<?xml version="1.0" encoding="UTF-8"?>
<svg xmlns="http://www.w3.org/2000/svg" xmlns:xlink="http://www.w3.org/1999/xlink" width="32" height="32" viewBox="0 0 32 32" version="1.1">
<g id="surface1">
<path style=" stroke:none;fill-rule:nonzero;fill:rgb(0%,0%,0%);fill-opacity:1;" d="M 5.003906 -0.00390625 C 4.449219 -0.0078125 3.996094 0.445312 4 1 L 4 31 C 3.996094 31.554688 4.449219 32.007812 5.003906 32.003906 L 26.996094 32.003906 C 27.550781 32.007812 28.003906 31.554688 28 31 L 28 6.992188 C 27.996094 6.730469 27.894531 6.484375 27.710938 6.300781 L 21.730469 0.292969 C 21.542969 0.105469 21.289062 -0.00390625 21.023438 -0.00390625 Z M 5.992188 2.003906 L 20.003906 2.003906 L 20.007812 6.996094 C 20.003906 7.546875 20.449219 7.992188 21 8 L 26 8 L 25.996094 29.996094 L 5.992188 29.996094 Z M 5.992188 2.003906 "/>
<path style=" stroke:none;fill-rule:nonzero;fill:rgb(0%,0%,0%);fill-opacity:1;" d="M 14.441406 26.273438 C 15.742188 25.820312 18.289062 23.734375 18.289062 19.007812 L 18.289062 16.027344 C 18.289062 15.175781 17.964844 14.757812 17.585938 14.757812 L 14.441406 14.757812 C 14.035156 14.757812 13.710938 15.09375 13.710938 15.949219 L 13.710938 18.867188 C 13.710938 19.621094 13.898438 20 14.277344 20 L 15.5 20 C 15.632812 20 15.660156 20.21875 15.660156 20.535156 C 15.660156 21.527344 15.226562 23.039062 14.386719 23.792969 C 13.84375 24.25 13.765625 24.230469 13.765625 25.105469 L 13.765625 25.460938 C 13.765625 26.058594 14.007812 26.316406 14.277344 26.316406 C 14.332031 26.316406 14.386719 26.296875 14.441406 26.273438 Z M 14.441406 26.273438 "/>
</g>
</svg>
