<?xml version="1.0" encoding="UTF-8"?>
<svg xmlns="http://www.w3.org/2000/svg" xmlns:xlink="http://www.w3.org/1999/xlink" width="32" height="32" viewBox="0 0 32 32" version="1.1">
<g id="surface1">
<path style=" stroke:none;fill-rule:nonzero;fill:rgb(0%,0%,0%);fill-opacity:1;" d="M 11.511719 26 L 13.183594 26 C 13.398438 25.964844 13.597656 25.675781 13.671875 25.230469 L 15.878906 14.820312 L 18.160156 25.21875 C 18.25 25.6875 18.464844 25.988281 18.707031 26 L 20.5625 26 C 20.792969 25.988281 20.988281 25.699219 21.082031 25.230469 L 23.773438 10.742188 C 23.804688 10.628906 23.820312 10.53125 23.820312 10.429688 C 23.820312 10.164062 23.710938 9.972656 23.574219 9.972656 L 21.855469 9.972656 C 21.628906 9.972656 21.386719 10.273438 21.324219 10.742188 L 19.621094 21.554688 L 17.445312 10.785156 C 17.339844 10.339844 17.140625 10.09375 16.914062 10.074219 L 15.269531 10.074219 C 15.042969 10.074219 14.796875 10.308594 14.707031 10.785156 L 12.652344 21.332031 L 10.964844 10.753906 C 10.875 10.273438 10.660156 9.972656 10.417969 9.972656 L 8.425781 9.972656 C 8.273438 9.972656 8.179688 10.164062 8.179688 10.429688 C 8.179688 10.53125 8.179688 10.628906 8.210938 10.742188 L 10.964844 25.230469 C 11.054688 25.699219 11.285156 25.988281 11.511719 26 Z M 11.511719 26 "/>
<path style=" stroke:none;fill-rule:nonzero;fill:rgb(0%,0%,0%);fill-opacity:1;" d="M 5.003906 -0.00390625 C 4.449219 -0.0078125 3.996094 0.445312 4 1 L 4 31 C 3.996094 31.554688 4.449219 32.007812 5.003906 32.003906 L 26.996094 32.003906 C 27.550781 32.007812 28.003906 31.554688 28 31 L 28 6.992188 C 27.996094 6.730469 27.894531 6.484375 27.710938 6.300781 L 21.730469 0.292969 C 21.542969 0.105469 21.289062 -0.00390625 21.023438 -0.00390625 Z M 5.992188 2.003906 L 20.003906 2.003906 L 20.007812 6.996094 C 20.003906 7.546875 20.449219 7.992188 21 8 L 26 8 L 25.996094 29.996094 L 5.992188 29.996094 Z M 5.992188 2.003906 "/>
</g>
</svg>
