<?xml version="1.0" encoding="UTF-8"?>
<svg xmlns="http://www.w3.org/2000/svg" xmlns:xlink="http://www.w3.org/1999/xlink" width="32" height="32" viewBox="0 0 32 32" version="1.1">
<g id="surface1">
<path style=" stroke:none;fill-rule:nonzero;fill:rgb(0%,0%,0%);fill-opacity:1;" d="M 9.238281 0.6875 L 28.09375 19.542969 L 26.207031 21.429688 L 21.109375 16.332031 L 20 18 L 20 29.332031 L 12 29.332031 L 12 18 L 5.332031 8 L 4 8 L 4 5.332031 L 10.113281 5.332031 L 7.351562 2.570312 Z M 12.78125 8 L 8.539062 8 L 14.667969 17.191406 L 14.667969 26.667969 L 17.332031 26.667969 L 17.332031 17.191406 L 19.1875 14.410156 Z M 28 5.332031 L 28 8 L 26.667969 8 L 24.113281 11.828125 L 22.191406 9.90625 L 23.460938 8 L 20.285156 8 L 17.617188 5.332031 Z M 28 5.332031 "/>
</g>
</svg>
