<?xml version="1.0" encoding="UTF-8"?>
<svg xmlns="http://www.w3.org/2000/svg" xmlns:xlink="http://www.w3.org/1999/xlink" width="32" height="32" viewBox="0 0 32 32" version="1.1">
<g id="surface1">
<path style=" stroke:none;fill-rule:nonzero;fill:rgb(0%,0%,0%);fill-opacity:1;" d="M 28 4 C 28.734375 4 29.332031 4.597656 29.332031 5.332031 L 29.332031 26.667969 C 29.332031 27.402344 28.734375 28 28 28 L 4 28 C 3.265625 28 2.667969 27.402344 2.667969 26.667969 L 2.667969 5.332031 C 2.667969 4.597656 3.265625 4 4 4 Z M 26.667969 6.667969 L 15.378906 6.667969 C 14.460938 9.300781 14 12.859375 14 17.332031 L 18 17.332031 C 17.847656 18.558594 17.800781 19.835938 17.855469 21.167969 C 19.492188 20.886719 21.460938 20.132812 23.226562 18.890625 L 24.738281 21.109375 C 22.550781 22.570312 20.335938 23.480469 18.105469 23.832031 C 18.175781 24.328125 18.257812 24.828125 18.351562 25.332031 L 26.667969 25.332031 Z M 8.738281 18.890625 L 7.261719 21.109375 C 10.136719 23.027344 13.054688 24 16 24 L 16 21.332031 C 13.609375 21.332031 11.199219 20.53125 8.738281 18.890625 Z M 22.667969 9.332031 C 23.402344 9.332031 24 9.929688 24 10.667969 L 24 12 C 24 12.734375 23.402344 13.332031 22.667969 13.332031 C 21.929688 13.332031 21.332031 12.734375 21.332031 12 L 21.332031 10.667969 C 21.332031 9.929688 21.929688 9.332031 22.667969 9.332031 Z M 9.332031 9.332031 C 8.597656 9.332031 8 9.9375 8 10.667969 L 8 12 C 8 12.734375 8.597656 13.332031 9.332031 13.332031 C 10.070312 13.332031 10.667969 12.734375 10.667969 12 L 10.667969 10.667969 C 10.667969 9.929688 10.070312 9.332031 9.332031 9.332031 Z M 9.332031 9.332031 "/>
</g>
</svg>
