<?xml version="1.0" encoding="UTF-8"?>
<svg xmlns="http://www.w3.org/2000/svg" xmlns:xlink="http://www.w3.org/1999/xlink" width="32" height="32" viewBox="0 0 32 32" version="1.1">
<g id="surface1">
<path style=" stroke:none;fill-rule:nonzero;fill:rgb(0%,0%,0%);fill-opacity:1;" d="M 24.042969 22.15625 L 29.75 27.867188 L 27.867188 29.753906 L 22.160156 24.042969 C 20.03125 25.746094 17.390625 26.671875 14.667969 26.667969 C 10.105469 26.667969 5.941406 24.085938 3.914062 20 L 12 20 L 10.261719 22.898438 C 11.617188 23.625 13.128906 24.003906 14.667969 24 C 17.09375 24.003906 19.425781 23.058594 21.167969 21.367188 L 21.367188 21.167969 C 23.058594 19.425781 24.003906 17.09375 24 14.667969 C 24 13.738281 23.867188 12.84375 23.613281 12 L 26.371094 12 C 26.5625 12.855469 26.667969 13.75 26.667969 14.667969 C 26.671875 17.390625 25.746094 20.03125 24.042969 22.15625 Z M 25.421875 9.332031 L 17.332031 9.332031 L 19.070312 6.4375 C 17.71875 5.710938 16.203125 5.332031 14.667969 5.332031 C 9.507812 5.332031 5.332031 9.507812 5.332031 14.667969 C 5.332031 15.59375 5.46875 16.488281 5.71875 17.332031 L 2.964844 17.332031 C 2.765625 16.457031 2.667969 15.5625 2.667969 14.667969 C 2.667969 8.035156 8.035156 2.667969 14.667969 2.667969 C 19.226562 2.664062 23.394531 5.25 25.421875 9.332031 Z M 25.421875 9.332031 "/>
</g>
</svg>
