<?xml version="1.0" encoding="UTF-8"?>
<svg xmlns="http://www.w3.org/2000/svg" xmlns:xlink="http://www.w3.org/1999/xlink" width="32" height="32" viewBox="0 0 32 32" version="1.1">
<g id="surface1">
<path style=" stroke:none;fill-rule:nonzero;fill:rgb(0%,0%,0%);fill-opacity:1;" d="M 16.277344 0.1875 C 15.621094 0.164062 14.957031 0.1875 14.296875 0.246094 C 13.75 0.304688 13.351562 0.792969 13.40625 1.339844 C 13.457031 1.890625 13.945312 2.292969 14.496094 2.242188 C 19.121094 1.808594 23.644531 3.746094 26.519531 7.398438 C 26.859375 7.832031 27.488281 7.910156 27.921875 7.570312 C 28.355469 7.230469 28.433594 6.601562 28.09375 6.167969 C 26.445312 4.074219 24.316406 2.472656 21.945312 1.453125 C 20.164062 0.691406 18.242188 0.25 16.277344 0.183594 Z M 10.34375 1.191406 C 10.207031 1.1875 10.074219 1.214844 9.949219 1.265625 C 5.417969 3.0625 1.984375 6.875 0.652344 11.5625 C 0.503906 12.089844 0.8125 12.640625 1.339844 12.792969 C 1.871094 12.941406 2.421875 12.636719 2.574219 12.105469 C 3.738281 8.011719 6.738281 4.695312 10.691406 3.128906 C 10.9375 3.03125 11.136719 2.839844 11.242188 2.59375 C 11.347656 2.351562 11.351562 2.074219 11.253906 1.828125 C 11.167969 1.609375 11.007812 1.425781 10.800781 1.3125 C 10.660156 1.234375 10.503906 1.195312 10.34375 1.191406 Z M 15.171875 4.894531 C 10.679688 5.058594 6.484375 7.78125 4.640625 12.160156 C 4.429688 12.664062 4.664062 13.246094 5.167969 13.464844 C 5.414062 13.570312 5.691406 13.574219 5.941406 13.472656 C 6.191406 13.375 6.390625 13.175781 6.492188 12.929688 C 8.546875 8.058594 14.035156 5.683594 18.996094 7.503906 C 23.957031 9.320312 26.605469 14.691406 25.023438 19.734375 C 24.863281 20.257812 25.152344 20.8125 25.675781 20.980469 C 26.199219 21.140625 26.753906 20.847656 26.921875 20.328125 C 28.816406 14.285156 25.628906 7.792969 19.683594 5.613281 C 18.195312 5.066406 16.667969 4.835938 15.171875 4.894531 Z M 14.765625 9.035156 C 14.25 9.054688 13.738281 9.121094 13.234375 9.242188 C 11.21875 9.726562 9.355469 11.128906 8.347656 13.464844 C 8.125 13.96875 8.355469 14.558594 8.863281 14.78125 C 9.109375 14.886719 9.382812 14.886719 9.632812 14.789062 C 9.878906 14.6875 10.074219 14.492188 10.179688 14.25 C 10.957031 12.445312 12.230469 11.542969 13.707031 11.191406 C 15.179688 10.835938 16.875 11.101562 18.296875 11.84375 C 18.785156 12.09375 19.386719 11.902344 19.640625 11.414062 C 19.894531 10.929688 19.710938 10.328125 19.230469 10.070312 C 17.863281 9.355469 16.308594 8.976562 14.765625 9.035156 Z M 30.011719 9.792969 C 29.878906 9.789062 29.746094 9.816406 29.621094 9.867188 C 29.375 9.964844 29.175781 10.15625 29.070312 10.402344 C 28.964844 10.644531 28.960938 10.921875 29.058594 11.167969 C 30.21875 14.085938 30.34375 17.324219 29.402344 20.320312 C 29.242188 20.84375 29.53125 21.398438 30.054688 21.566406 C 30.578125 21.726562 31.132812 21.4375 31.300781 20.914062 C 32.378906 17.480469 32.25 13.773438 30.921875 10.429688 C 30.835938 10.210938 30.675781 10.027344 30.46875 9.914062 C 30.328125 9.835938 30.171875 9.796875 30.011719 9.792969 Z M 21.886719 13.113281 C 21.75 13.113281 21.613281 13.140625 21.488281 13.199219 C 21.246094 13.308594 21.058594 13.511719 20.96875 13.761719 C 20.878906 14.007812 20.886719 14.285156 21 14.527344 C 21.574219 15.742188 21.683594 17.164062 20.925781 18.871094 C 17.363281 26.859375 18.863281 23.652344 15.804688 30.738281 C 15.648438 31.09375 15.328125 31.457031 14.941406 31.824219 L 17.472656 31.824219 C 17.523438 31.722656 17.585938 31.628906 17.632812 31.523438 C 20.695312 24.417969 19.183594 27.660156 22.742188 19.679688 C 23.707031 17.507812 23.625 15.398438 22.816406 13.6875 C 22.648438 13.328125 22.28125 13.101562 21.886719 13.113281 Z M 15.425781 13.441406 C 14.019531 13.433594 12.542969 14.242188 11.816406 15.929688 L 10.222656 19.609375 C 10.117188 19.851562 10.117188 20.128906 10.214844 20.375 C 10.316406 20.621094 10.507812 20.816406 10.753906 20.921875 C 11 21.023438 11.273438 21.027344 11.519531 20.925781 C 11.765625 20.828125 11.964844 20.632812 12.066406 20.390625 L 13.648438 16.714844 C 14.265625 15.289062 15.21875 15.210938 15.996094 15.546875 C 16.773438 15.878906 17.367188 16.632812 16.75 18.058594 L 12.777344 27.226562 C 12.175781 28.621094 10.304688 29.855469 8.496094 30.621094 C 6.6875 31.386719 5.070312 31.714844 5.070312 31.714844 C 4.96875 31.734375 4.871094 31.769531 4.78125 31.824219 L 10.636719 31.824219 C 12.257812 30.980469 13.855469 29.796875 14.621094 28.023438 L 18.578125 18.839844 C 19.546875 16.589844 18.464844 14.445312 16.777344 13.71875 C 16.355469 13.535156 15.894531 13.441406 15.425781 13.441406 Z M 3.984375 14.226562 C 3.949219 14.226562 3.910156 14.226562 3.875 14.230469 C 3.492188 14.269531 3.164062 14.519531 3.03125 14.882812 C 2.664062 15.847656 2.363281 16.550781 1.96875 17.054688 C 1.570312 17.554688 1.085938 17.925781 0.078125 18.25 C 0.046875 18.253906 0.0078125 18.253906 -0.0234375 18.269531 L -0.0234375 20.339844 C 0.214844 20.28125 0.449219 20.230469 0.683594 20.152344 C 1.96875 19.738281 2.910156 19.105469 3.550781 18.292969 C 4.1875 17.484375 4.53125 16.578125 4.90625 15.59375 C 5.003906 15.347656 4.996094 15.070312 4.890625 14.824219 C 4.78125 14.582031 4.582031 14.390625 4.332031 14.292969 C 4.21875 14.25 4.101562 14.226562 3.984375 14.226562 Z M 7.46875 17.125 C 7.4375 17.125 7.40625 17.125 7.375 17.128906 C 6.996094 17.144531 6.660156 17.371094 6.503906 17.714844 L 5.453125 20.148438 C 4.960938 21.289062 3.199219 22.148438 1.394531 22.570312 C 0.863281 22.695312 0.441406 22.734375 -0.0234375 22.800781 L -0.0234375 24.855469 C 0.546875 24.777344 1.171875 24.679688 1.851562 24.523438 C 3.894531 24.042969 6.347656 23.15625 7.300781 20.953125 L 8.347656 18.515625 C 8.453125 18.269531 8.453125 17.992188 8.355469 17.746094 C 8.253906 17.5 8.0625 17.304688 7.816406 17.203125 C 7.707031 17.15625 7.589844 17.128906 7.46875 17.125 Z M 9.515625 22.664062 C 9.132812 22.679688 8.792969 22.914062 8.644531 23.269531 C 7.972656 24.824219 6.882812 25.558594 5.410156 26.074219 C 3.9375 26.585938 2.117188 26.785156 0.359375 27.09375 C 0.222656 27.117188 0.09375 27.167969 -0.0234375 27.242188 L -0.0234375 28.898438 C 0.195312 29.046875 0.457031 29.101562 0.714844 29.054688 C 2.367188 28.761719 4.265625 28.589844 6.058594 27.964844 C 7.851562 27.339844 9.574219 26.179688 10.488281 24.066406 C 10.59375 23.820312 10.59375 23.542969 10.496094 23.296875 C 10.394531 23.050781 10.203125 22.855469 9.957031 22.753906 C 9.820312 22.6875 9.667969 22.65625 9.515625 22.664062 Z M 24.417969 22.878906 C 24.386719 22.878906 24.351562 22.882812 24.320312 22.886719 C 23.9375 22.902344 23.601562 23.136719 23.449219 23.492188 L 19.859375 31.820312 L 22.039062 31.820312 L 25.296875 24.269531 C 25.402344 24.027344 25.402344 23.75 25.304688 23.503906 C 25.203125 23.257812 25.011719 23.0625 24.765625 22.957031 C 24.65625 22.914062 24.539062 22.886719 24.417969 22.882812 Z M 28.855469 23.117188 C 28.480469 23.144531 28.148438 23.378906 28 23.722656 L 24.496094 31.820312 L 26.675781 31.820312 L 29.828125 24.519531 C 30.046875 24.015625 29.816406 23.429688 29.3125 23.207031 C 29.167969 23.144531 29.011719 23.113281 28.855469 23.117188 Z M 28.855469 23.117188 "/>
</g>
</svg>
