<?xml version="1.0" encoding="UTF-8"?>
<svg xmlns="http://www.w3.org/2000/svg" xmlns:xlink="http://www.w3.org/1999/xlink" width="32" height="32" viewBox="0 0 32 32" version="1.1">
<g id="surface1">
<path style=" stroke:none;fill-rule:nonzero;fill:rgb(0%,0%,0%);fill-opacity:1;" d="M 8 28.667969 C 5.421875 28.667969 3.332031 26.578125 3.332031 24 C 3.332031 21.421875 5.421875 19.332031 8 19.332031 C 10.113281 19.332031 11.898438 20.738281 12.472656 22.667969 L 20 22.667969 L 20 20 L 22.667969 20 L 22.667969 12.324219 L 19.675781 9.332031 L 12 9.332031 L 12 12 L 4 12 L 4 4 L 12 4 L 12 6.667969 L 19.675781 6.667969 L 24 2.339844 L 29.65625 8 L 25.332031 12.320312 L 25.332031 20 L 28 20 L 28 28 L 20 28 L 20 25.332031 L 12.472656 25.332031 C 11.898438 27.261719 10.113281 28.667969 8 28.667969 Z M 8 22 C 6.894531 22 6 22.894531 6 24 C 6 25.105469 6.894531 26 8 26 C 9.105469 26 10 25.105469 10 24 C 10 22.894531 9.105469 22 8 22 Z M 25.332031 22.667969 L 22.667969 22.667969 L 22.667969 25.332031 L 25.332031 25.332031 Z M 24 6.113281 L 22.113281 8 L 24 9.886719 L 25.886719 8 Z M 9.332031 6.667969 L 6.667969 6.667969 L 6.667969 9.332031 L 9.332031 9.332031 Z M 9.332031 6.667969 "/>
</g>
</svg>
