<?xml version="1.0" encoding="UTF-8"?>
<svg xmlns="http://www.w3.org/2000/svg" xmlns:xlink="http://www.w3.org/1999/xlink" width="32" height="32" viewBox="0 0 32 32" version="1.1">
<g id="surface1">
<path style=" stroke:none;fill-rule:nonzero;fill:rgb(0%,0%,0%);fill-opacity:1;" d="M 16.550781 6.667969 L 28 6.667969 C 28.738281 6.667969 29.332031 7.261719 29.332031 8 L 29.332031 26.667969 C 29.332031 27.402344 28.738281 28 28 28 L 4 28 C 3.261719 28 2.667969 27.402344 2.667969 26.667969 L 2.667969 5.332031 C 2.667969 4.597656 3.261719 4 4 4 L 13.886719 4 Z M 5.332031 6.667969 L 5.332031 25.332031 L 26.667969 25.332031 L 26.667969 9.332031 L 15.449219 9.332031 L 12.78125 6.667969 Z M 11.453125 18.410156 C 11.285156 17.699219 11.285156 16.960938 11.453125 16.25 L 10.132812 15.488281 L 11.464844 13.175781 L 12.789062 13.941406 C 13.320312 13.4375 13.960938 13.066406 14.660156 12.859375 L 14.660156 11.332031 L 17.328125 11.332031 L 17.328125 12.859375 C 18.035156 13.070312 18.671875 13.445312 19.199219 13.941406 L 20.519531 13.175781 L 21.851562 15.484375 L 20.53125 16.25 C 20.699219 16.960938 20.699219 17.699219 20.53125 18.410156 L 21.851562 19.175781 L 20.519531 21.484375 L 19.199219 20.71875 C 18.667969 21.222656 18.027344 21.59375 17.328125 21.800781 L 17.328125 23.328125 L 14.660156 23.328125 L 14.660156 21.800781 C 13.960938 21.589844 13.320312 21.222656 12.789062 20.71875 L 11.464844 21.480469 L 10.132812 19.175781 Z M 15.992188 19.328125 C 16.726562 19.355469 17.414062 18.980469 17.785156 18.351562 C 18.160156 17.722656 18.160156 16.9375 17.785156 16.308594 C 17.414062 15.679688 16.726562 15.304688 15.992188 15.332031 C 14.917969 15.371094 14.066406 16.253906 14.066406 17.332031 C 14.066406 18.40625 14.917969 19.289062 15.992188 19.328125 Z M 15.992188 19.328125 "/>
</g>
</svg>
