<?xml version="1.0" encoding="UTF-8"?>
<svg xmlns="http://www.w3.org/2000/svg" xmlns:xlink="http://www.w3.org/1999/xlink" width="32" height="32" viewBox="0 0 32 32" version="1.1">
<g id="surface1">
<path style=" stroke:none;fill-rule:evenodd;fill:rgb(0%,0%,0%);fill-opacity:1;" d="M 7.902344 0 C 5.730469 0.0546875 4 1.828125 4 4 C 4 5.425781 4.761719 6.742188 5.992188 7.457031 L 5.992188 24.542969 C 4.761719 25.257812 4 26.574219 4 28 C 4 30.210938 5.789062 32 8 32 C 10.210938 32 12 30.210938 12 28 C 12 26.570312 11.234375 25.25 9.996094 24.535156 L 9.996094 21.996094 C 9.996094 21.691406 10.042969 21.589844 10.230469 21.363281 C 10.417969 21.136719 10.808594 20.832031 11.398438 20.535156 C 12.582031 19.945312 14.492188 19.441406 16.492188 18.941406 C 18.492188 18.441406 20.582031 17.949219 22.398438 17.039062 C 23.308594 16.585938 24.175781 16.011719 24.863281 15.175781 C 25.550781 14.339844 26 13.199219 26 12.003906 L 26 9.460938 C 27.238281 8.746094 28 7.429688 28 6 C 28 3.789062 26.210938 2 24 2 C 21.789062 2 20 3.789062 20 6 C 20 7.425781 20.761719 8.746094 21.996094 9.460938 L 21.996094 12.003906 C 21.996094 12.308594 21.949219 12.410156 21.761719 12.636719 C 21.574219 12.863281 21.199219 13.167969 20.609375 13.464844 C 19.425781 14.054688 17.515625 14.558594 15.515625 15.058594 C 13.644531 15.527344 11.726562 16.042969 9.996094 16.84375 L 9.996094 7.464844 C 11.234375 6.75 12 5.429688 12 4 C 12 1.789062 10.210938 0 8 0 C 7.96875 0 7.933594 0 7.902344 0 Z M 7.902344 0 "/>
</g>
</svg>
