<?xml version="1.0" encoding="UTF-8"?>
<svg xmlns="http://www.w3.org/2000/svg" xmlns:xlink="http://www.w3.org/1999/xlink" width="32" height="32" viewBox="0 0 32 32" version="1.1">
<g id="surface1">
<path style=" stroke:none;fill-rule:nonzero;fill:rgb(0%,0%,0%);fill-opacity:1;" d="M 23.210938 25.332031 C 22.175781 22.132812 20.175781 20.152344 17.523438 17.863281 C 20.121094 15.789062 23.34375 14.660156 26.667969 14.667969 L 26.667969 4 L 28.011719 4 C 28.742188 4 29.332031 4.59375 29.332031 5.324219 L 29.332031 26.675781 C 29.328125 27.40625 28.738281 27.996094 28.011719 28 L 3.988281 28 C 3.257812 28 2.667969 27.40625 2.667969 26.675781 L 2.667969 5.324219 C 2.671875 4.59375 3.261719 4.003906 3.988281 4 L 8 4 L 8 1.332031 L 10.667969 1.332031 L 10.667969 6.667969 L 5.332031 6.667969 L 5.332031 16 C 12.292969 16 18.214844 19.28125 20.417969 25.332031 Z M 24 1.332031 L 24 6.667969 L 13.332031 6.667969 L 13.332031 4 L 21.332031 4 L 21.332031 1.332031 Z M 22 13.332031 C 20.894531 13.332031 20 12.4375 20 11.332031 C 20 10.230469 20.894531 9.332031 22 9.332031 C 23.105469 9.332031 24 10.230469 24 11.332031 C 24 12.4375 23.105469 13.332031 22 13.332031 Z M 22 13.332031 "/>
</g>
</svg>
