<?xml version="1.0" encoding="UTF-8"?>
<svg xmlns="http://www.w3.org/2000/svg" xmlns:xlink="http://www.w3.org/1999/xlink" width="32" height="32" viewBox="0 0 32 32" version="1.1">
<g id="surface1">
<path style=" stroke:none;fill-rule:nonzero;fill:rgb(0%,0%,0%);fill-opacity:1;" d="M 26.667969 17.332031 C 24.429688 17.332031 22.335938 17.945312 20.542969 19.011719 C 22.136719 20.875 23.375 23.019531 24.195312 25.332031 L 26.667969 25.332031 Z M 21.339844 25.332031 C 18.726562 19.070312 12.542969 14.667969 5.332031 14.667969 L 5.332031 25.332031 Z M 5.332031 12 C 10.441406 12 15.097656 13.914062 18.632812 17.0625 C 21.019531 15.496094 23.8125 14.664062 26.667969 14.667969 L 26.667969 4 L 28.011719 4 C 28.742188 4 29.332031 4.59375 29.332031 5.324219 L 29.332031 26.675781 C 29.328125 27.40625 28.738281 27.996094 28.011719 28 L 3.988281 28 C 3.257812 28 2.667969 27.40625 2.667969 26.675781 L 2.667969 5.324219 C 2.671875 4.59375 3.261719 4.003906 3.988281 4 L 8 4 L 8 1.332031 L 10.667969 1.332031 L 10.667969 6.667969 L 5.332031 6.667969 Z M 24 1.332031 L 24 6.667969 L 13.332031 6.667969 L 13.332031 4 L 21.332031 4 L 21.332031 1.332031 Z M 22 13.332031 C 20.894531 13.332031 20 12.4375 20 11.332031 C 20 10.230469 20.894531 9.332031 22 9.332031 C 23.105469 9.332031 24 10.230469 24 11.332031 C 24 12.4375 23.105469 13.332031 22 13.332031 Z M 22 13.332031 "/>
</g>
</svg>
