<?xml version="1.0" encoding="UTF-8"?>
<svg xmlns="http://www.w3.org/2000/svg" xmlns:xlink="http://www.w3.org/1999/xlink" width="32" height="32" viewBox="0 0 32 32" version="1.1">
<g id="surface1">
<path style=" stroke:none;fill-rule:nonzero;fill:rgb(0%,0%,0%);fill-opacity:1;" d="M 16 2.667969 C 22.628906 2.667969 28 8.039062 28 14.667969 L 28 24.667969 C 28 26.714844 26.667969 28.523438 24.710938 29.128906 C 22.757812 29.730469 20.632812 28.992188 19.480469 27.300781 C 18.769531 28.558594 17.441406 29.335938 15.996094 29.335938 C 14.554688 29.335938 13.226562 28.558594 12.515625 27.300781 C 11.386719 28.949219 9.335938 29.695312 7.410156 29.160156 C 5.488281 28.621094 4.117188 26.917969 4.007812 24.925781 L 4 24.664062 L 4 14.667969 C 4 8.039062 9.371094 2.667969 16 2.667969 Z M 16 16 C 14.527344 16 13.332031 17.492188 13.332031 19.332031 C 13.332031 21.171875 14.527344 22.667969 16 22.667969 C 17.472656 22.667969 18.667969 21.171875 18.667969 19.332031 C 18.667969 17.492188 17.472656 16 16 16 Z M 12.667969 10.667969 C 11.5625 10.667969 10.667969 11.5625 10.667969 12.667969 C 10.667969 13.769531 11.5625 14.667969 12.667969 14.667969 C 13.769531 14.667969 14.667969 13.769531 14.667969 12.667969 C 14.667969 11.5625 13.769531 10.667969 12.667969 10.667969 Z M 19.332031 10.667969 C 18.230469 10.667969 17.332031 11.5625 17.332031 12.667969 C 17.332031 13.769531 18.230469 14.667969 19.332031 14.667969 C 20.4375 14.667969 21.332031 13.769531 21.332031 12.667969 C 21.332031 11.5625 20.4375 10.667969 19.332031 10.667969 Z M 19.332031 10.667969 "/>
</g>
</svg>
