<?xml version="1.0" encoding="UTF-8"?>
<svg xmlns="http://www.w3.org/2000/svg" xmlns:xlink="http://www.w3.org/1999/xlink" width="32" height="32" viewBox="0 0 32 32" version="1.1">
<g id="surface1">
<path style=" stroke:none;fill-rule:nonzero;fill:rgb(0%,0%,0%);fill-opacity:1;" d="M 9.472656 11.71875 C 9.949219 13.460938 11.53125 14.667969 13.332031 14.667969 L 18.667969 14.667969 C 21.910156 14.667969 24.679688 17 25.234375 20.195312 C 27.105469 20.804688 28.253906 22.683594 27.945312 24.625 C 27.640625 26.566406 25.964844 27.996094 24 28 C 22.078125 28 20.429688 26.636719 20.066406 24.75 C 19.707031 22.863281 20.738281 20.984375 22.527344 20.28125 C 22.050781 18.539062 20.46875 17.332031 18.667969 17.332031 L 13.332031 17.332031 C 11.890625 17.335938 10.484375 16.867188 9.332031 16 L 9.332031 20.226562 C 11.171875 20.875 12.273438 22.753906 11.945312 24.675781 C 11.613281 26.597656 9.949219 28 8 28 C 6.050781 28 4.386719 26.597656 4.054688 24.675781 C 3.726562 22.753906 4.828125 20.875 6.667969 20.226562 L 6.667969 11.773438 C 4.84375 11.128906 3.738281 9.273438 4.046875 7.363281 C 4.355469 5.453125 5.988281 4.035156 7.921875 4 C 9.855469 3.964844 11.539062 5.316406 11.921875 7.210938 C 12.304688 9.109375 11.273438 11.007812 9.472656 11.71875 Z M 8 9.332031 C 8.738281 9.332031 9.332031 8.738281 9.332031 8 C 9.332031 7.261719 8.738281 6.667969 8 6.667969 C 7.261719 6.667969 6.667969 7.261719 6.667969 8 C 6.667969 8.738281 7.261719 9.332031 8 9.332031 Z M 8 25.332031 C 8.738281 25.332031 9.332031 24.738281 9.332031 24 C 9.332031 23.261719 8.738281 22.667969 8 22.667969 C 7.261719 22.667969 6.667969 23.261719 6.667969 24 C 6.667969 24.738281 7.261719 25.332031 8 25.332031 Z M 24 25.332031 C 24.738281 25.332031 25.332031 24.738281 25.332031 24 C 25.332031 23.261719 24.738281 22.667969 24 22.667969 C 23.261719 22.667969 22.667969 23.261719 22.667969 24 C 22.667969 24.738281 23.261719 25.332031 24 25.332031 Z M 24 25.332031 "/>
</g>
</svg>
