<?xml version="1.0" encoding="UTF-8"?>
<svg xmlns="http://www.w3.org/2000/svg" xmlns:xlink="http://www.w3.org/1999/xlink" width="32" height="32" viewBox="0 0 32 32" version="1.1">
<g id="surface1">
<path style=" stroke:none;fill-rule:evenodd;fill:rgb(0%,0%,0%);fill-opacity:1;" d="M 12 2 C 10.890625 2 10 2.890625 10 4 L 10 16 C 10 16 8 18 8 20 C 8 21.398438 9.953125 25.71875 11.128906 28.199219 C 11.601562 29.195312 12.894531 30 14 30 L 24 30 C 25.109375 30 26 29.109375 26 28 L 26 14 C 26 12.890625 25.109375 12 24 12 C 22.890625 12 22 12.890625 22 14 L 22 13 C 22 11.890625 21.109375 11 20 11 C 18.890625 11 18 11.890625 18 13 L 18 12 C 18 10.890625 17.109375 10 16 10 C 14.890625 10 14 10.890625 14 12 L 14 4 C 14 2.890625 13.109375 2 12 2 Z M 12 2 "/>
</g>
</svg>
