<?xml version="1.0" encoding="UTF-8"?>
<svg xmlns="http://www.w3.org/2000/svg" xmlns:xlink="http://www.w3.org/1999/xlink" width="32" height="32" viewBox="0 0 32 32" version="1.1">
<g id="surface1">
<path style=" stroke:none;fill-rule:nonzero;fill:rgb(0%,0%,0%);fill-opacity:1;" d="M 18.601562 2.667969 L 26.667969 2.667969 C 27.402344 2.667969 28 3.261719 28 4 L 28 28 C 28 28.738281 27.402344 29.332031 26.667969 29.332031 L 5.332031 29.332031 C 4.597656 29.332031 4 28.738281 4 28 L 4 17.265625 C 4.4375 17.3125 4.882812 17.332031 5.332031 17.332031 C 12.699219 17.332031 18.667969 11.363281 18.667969 4 C 18.667969 3.550781 18.644531 3.105469 18.601562 2.667969 Z M 20 21.332031 L 20 24 L 22.667969 24 L 22.667969 21.332031 Z M 15.917969 2.667969 C 16.328125 5.9375 15.207031 9.214844 12.875 11.542969 C 10.546875 13.875 7.269531 14.996094 4 14.585938 L 4 4 C 4 3.261719 4.597656 2.667969 5.332031 2.667969 Z M 15.917969 2.667969 "/>
</g>
</svg>
