<?xml version="1.0" encoding="UTF-8"?>
<svg xmlns="http://www.w3.org/2000/svg" xmlns:xlink="http://www.w3.org/1999/xlink" width="32" height="32" viewBox="0 0 32 32" version="1.1">
<g id="surface1">
<path style=" stroke:none;fill-rule:nonzero;fill:rgb(0%,0%,0%);fill-opacity:1;" d="M 5.332031 16 L 9.332031 16 C 10.804688 16 12 17.195312 12 18.667969 L 12 25.332031 C 12 26.804688 10.804688 28 9.332031 28 L 5.332031 28 C 3.859375 28 2.667969 26.804688 2.667969 25.332031 L 2.667969 16 C 2.667969 8.636719 8.636719 2.667969 16 2.667969 C 23.363281 2.667969 29.332031 8.636719 29.332031 16 L 29.332031 25.332031 C 29.332031 26.804688 28.140625 28 26.667969 28 L 22.667969 28 C 21.195312 28 20 26.804688 20 25.332031 L 20 18.667969 C 20 17.195312 21.195312 16 22.667969 16 L 26.667969 16 C 26.667969 10.109375 21.890625 5.332031 16 5.332031 C 10.109375 5.332031 5.332031 10.109375 5.332031 16 Z M 5.332031 16 "/>
</g>
</svg>
