<?xml version="1.0" encoding="UTF-8"?>
<svg xmlns="http://www.w3.org/2000/svg" xmlns:xlink="http://www.w3.org/1999/xlink" width="32" height="32" viewBox="0 0 32 32" version="1.1">
<g id="surface1">
<path style=" stroke:none;fill-rule:nonzero;fill:rgb(0%,0%,0%);fill-opacity:1;" d="M 25.332031 26.667969 C 25.332031 27.402344 24.738281 28 24 28 L 5.332031 28 C 4.597656 28 4 27.402344 4 26.667969 L 4 14.667969 L 0 14.667969 L 13.769531 2.148438 C 14.277344 1.6875 15.054688 1.6875 15.5625 2.148438 L 29.332031 14.667969 L 25.332031 14.667969 Z M 14.667969 20 C 16.507812 20 18 18.507812 18 16.667969 C 18 14.824219 16.507812 13.332031 14.667969 13.332031 C 12.824219 13.332031 11.332031 14.824219 11.332031 16.667969 C 11.332031 18.507812 12.824219 20 14.667969 20 Z M 14.667969 20 "/>
</g>
</svg>
