<?xml version="1.0" encoding="UTF-8"?>
<svg xmlns="http://www.w3.org/2000/svg" xmlns:xlink="http://www.w3.org/1999/xlink" width="32" height="32" viewBox="0 0 32 32" version="1.1">
<g id="surface1">
<path style=" stroke:none;fill-rule:nonzero;fill:rgb(0%,0%,0%);fill-opacity:1;" d="M 25.332031 25.332031 L 25.332031 13.066406 L 16 5.703125 L 6.667969 13.066406 L 6.667969 25.332031 Z M 28 26.667969 C 28 27.402344 27.402344 28 26.667969 28 L 5.332031 28 C 4.597656 28 4 27.402344 4 26.667969 L 4 12.417969 C 4 12.011719 4.1875 11.625 4.507812 11.371094 L 15.171875 2.957031 C 15.65625 2.574219 16.34375 2.574219 16.828125 2.957031 L 27.492188 11.371094 C 27.8125 11.625 28 12.011719 28 12.417969 Z M 9.332031 16 L 12 16 C 12 18.210938 13.789062 20 16 20 C 18.210938 20 20 18.210938 20 16 L 22.667969 16 C 22.667969 19.683594 19.683594 22.667969 16 22.667969 C 12.316406 22.667969 9.332031 19.683594 9.332031 16 Z M 9.332031 16 "/>
</g>
</svg>
