<?xml version="1.0" encoding="UTF-8"?>
<svg xmlns="http://www.w3.org/2000/svg" xmlns:xlink="http://www.w3.org/1999/xlink" width="32" height="32" viewBox="0 0 32 32" version="1.1">
<g id="surface1">
<path style=" stroke:none;fill-rule:nonzero;fill:rgb(0%,0%,0%);fill-opacity:1;" d="M 24.4375 5.675781 L 22.539062 7.570312 C 18.355469 4.316406 12.304688 4.613281 8.457031 8.457031 C 5.292969 11.621094 4.53125 16.28125 6.175781 20.164062 L 9.398438 16.941406 C 9.117188 14.9375 9.742188 12.828125 11.285156 11.285156 C 13.566406 9.003906 17.089844 8.722656 19.675781 10.4375 L 17.722656 12.390625 C 16.238281 11.679688 14.402344 11.941406 13.171875 13.171875 C 11.941406 14.402344 11.679688 16.238281 12.390625 17.722656 L 3.789062 26.324219 C 3.742188 21.65625 3 19.90625 2.738281 17.386719 C 2.335938 13.53125 3.613281 9.53125 6.570312 6.570312 C 11.460938 1.683594 19.199219 1.386719 24.4375 5.675781 Z M 28.210938 5.675781 C 28.257812 10.34375 29 12.09375 29.261719 14.613281 C 29.664062 18.46875 28.386719 22.46875 25.429688 25.429688 C 20.539062 30.316406 12.800781 30.613281 7.5625 26.324219 L 9.460938 24.429688 C 13.644531 27.683594 19.695312 27.386719 23.542969 23.542969 C 26.707031 20.378906 27.46875 15.71875 25.824219 11.835938 L 22.601562 15.058594 C 22.882812 17.0625 22.257812 19.171875 20.714844 20.714844 C 18.433594 22.996094 14.910156 23.277344 12.324219 21.5625 L 14.277344 19.609375 C 15.761719 20.320312 17.597656 20.058594 18.828125 18.828125 C 20.058594 17.597656 20.320312 15.761719 19.609375 14.277344 Z M 28.210938 5.675781 "/>
</g>
</svg>
