<?xml version="1.0" encoding="UTF-8"?>
<svg xmlns="http://www.w3.org/2000/svg" xmlns:xlink="http://www.w3.org/1999/xlink" width="32" height="32" viewBox="0 0 32 32" version="1.1">
<g id="surface1">
<path style=" stroke:none;fill-rule:nonzero;fill:rgb(0%,0%,0%);fill-opacity:1;" d="M 2.285156 0 L 11.714844 0 C 12.976562 0 14 1.023438 14 2.285156 L 14 19.714844 C 14 20.976562 12.976562 22 11.714844 22 L 2.285156 22 C 1.023438 22 0 20.976562 0 19.714844 L 0 2.285156 C 0 1.023438 1.023438 0 2.285156 0 Z M 2.285156 0 "/>
<path style=" stroke:none;fill-rule:nonzero;fill:rgb(0%,0%,0%);fill-opacity:1;" d="M 2.285156 26 L 11.714844 26 C 12.976562 26 14 27.023438 14 28.285156 L 14 29.714844 C 14 30.976562 12.976562 32 11.714844 32 L 2.285156 32 C 1.023438 32 0 30.976562 0 29.714844 L 0 28.285156 C 0 27.023438 1.023438 26 2.285156 26 Z M 2.285156 26 "/>
<path style=" stroke:none;fill-rule:nonzero;fill:rgb(0%,0%,0%);fill-opacity:1;" d="M 20.285156 0 L 29.714844 0 C 30.976562 0 32 1.023438 32 2.285156 L 32 3.714844 C 32 4.976562 30.976562 6 29.714844 6 L 20.285156 6 C 19.023438 6 18 4.976562 18 3.714844 L 18 2.285156 C 18 1.023438 19.023438 0 20.285156 0 Z M 20.285156 0 "/>
<path style=" stroke:none;fill-rule:nonzero;fill:rgb(0%,0%,0%);fill-opacity:1;" d="M 20.285156 10 L 29.714844 10 C 30.976562 10 32 11.023438 32 12.285156 L 32 29.714844 C 32 30.976562 30.976562 32 29.714844 32 L 20.285156 32 C 19.023438 32 18 30.976562 18 29.714844 L 18 12.285156 C 18 11.023438 19.023438 10 20.285156 10 Z M 20.285156 10 "/>
</g>
</svg>
