<?xml version="1.0" encoding="UTF-8"?>
<svg xmlns="http://www.w3.org/2000/svg" xmlns:xlink="http://www.w3.org/1999/xlink" width="32" height="32" viewBox="0 0 32 32" version="1.1">
<g id="surface1">
<path style=" stroke:none;fill-rule:nonzero;fill:rgb(0%,0%,0%);fill-opacity:1;" d="M 16.414062 0.0234375 C 16.226562 0.0273438 16.042969 0.046875 15.859375 0.0820312 C 14.464844 0.347656 13.222656 1.394531 12.464844 2.691406 C 11.511719 3.152344 10.667969 3.738281 10.070312 4.597656 C 9.445312 5.5 9.132812 6.675781 9.140625 8.140625 C 9.140625 8.164062 9.125 8.175781 9.125 8.199219 C 8.308594 9.308594 7.808594 10.421875 7.929688 11.40625 C 8.066406 12.519531 8.742188 13.410156 9.597656 14.046875 C 11.046875 15.121094 12.964844 15.164062 14.574219 14.757812 L 14.574219 17.871094 L 12.402344 20.027344 L 20.523438 20.027344 L 18.367188 17.871094 L 18.367188 14.652344 C 18.554688 14.699219 18.742188 14.699219 18.929688 14.730469 C 19.117188 14.765625 19.300781 14.800781 19.480469 14.808594 C 21.121094 14.957031 22.640625 14.554688 23.402344 13.28125 C 24.464844 11.503906 24.382812 8.949219 22.527344 7.039062 C 22.558594 5.636719 22.242188 4.589844 21.632812 3.859375 C 21.023438 3.132812 20.195312 2.769531 19.386719 2.441406 C 19.042969 1.601562 18.628906 0.878906 18.042969 0.496094 C 17.539062 0.164062 16.972656 0.015625 16.414062 0.0234375 Z M 16.414062 0.0234375 "/>
<path style=" stroke:none;fill-rule:evenodd;fill:rgb(0%,0%,0%);fill-opacity:1;" d="M 4 22 C 1.785156 22 0 23.785156 0 26 L 0 28 C 0 30.214844 1.785156 32 4 32 L 28 32 C 30.214844 32 32 30.214844 32 28 L 32 26 C 32 23.785156 30.214844 22 28 22 Z M 24 24 L 28 24 C 29.109375 24 30 24.890625 30 26 L 30 28 C 30 29.109375 29.109375 30 28 30 L 24 30 Z M 24 24 "/>
</g>
</svg>
