<?xml version="1.0" encoding="UTF-8"?>
<svg xmlns="http://www.w3.org/2000/svg" xmlns:xlink="http://www.w3.org/1999/xlink" width="32" height="32" viewBox="0 0 32 32" version="1.1">
<g id="surface1">
<path style=" stroke:none;fill-rule:nonzero;fill:rgb(0%,0%,0%);fill-opacity:1;" d="M 18 0 L 14 0.00390625 L 14 8.003906 L 12 8.003906 L 0 20.003906 L 32 20.003906 L 20 8.003906 L 18 8.003906 Z M 18 0 "/>
<path style=" stroke:none;fill-rule:evenodd;fill:rgb(0%,0%,0%);fill-opacity:1;" d="M 20 22.003906 C 20 23.433594 19.238281 24.753906 18 25.46875 C 16.761719 26.183594 15.238281 26.183594 14 25.46875 C 12.761719 24.753906 12 23.433594 12 22.003906 Z M 20 22.003906 "/>
<path style=" stroke:none;fill-rule:nonzero;fill:rgb(0%,0%,0%);fill-opacity:1;" d="M 15.5625 19.109375 L 13.71875 20.003906 L 16 20.003906 L 15.992188 20 Z M 16 20.003906 L 18.148438 20.003906 L 16.460938 19.121094 Z M 8.425781 22.574219 L 4.253906 24.601562 L 5.136719 26.402344 L 9.300781 24.378906 C 8.933594 23.816406 8.640625 23.210938 8.425781 22.574219 Z M 23.492188 22.800781 C 23.257812 23.429688 22.945312 24.023438 22.5625 24.574219 L 26.648438 26.710938 L 27.578125 24.941406 Z M 12.054688 26.964844 L 10.320312 31.183594 L 12.179688 31.9375 L 13.90625 27.726562 C 13.257812 27.550781 12.636719 27.296875 12.054688 26.964844 Z M 19.851562 27.015625 C 19.265625 27.335938 18.640625 27.582031 17.992188 27.75 L 19.695312 32.042969 L 21.554688 31.316406 Z M 19.851562 27.015625 "/>
</g>
</svg>
