<?xml version="1.0" encoding="UTF-8"?>
<svg xmlns="http://www.w3.org/2000/svg" xmlns:xlink="http://www.w3.org/1999/xlink" width="32" height="32" viewBox="0 0 32 32" version="1.1">
<g id="surface1">
<path style=" stroke:none;fill-rule:nonzero;fill:rgb(0%,0%,0%);fill-opacity:1;" d="M 21.332031 5.332031 C 22.070312 5.332031 22.667969 5.929688 22.667969 6.667969 L 22.667969 12.265625 L 29.617188 7.398438 C 29.820312 7.257812 30.085938 7.238281 30.308594 7.355469 C 30.527344 7.46875 30.667969 7.699219 30.667969 7.945312 L 30.667969 24.054688 C 30.667969 24.300781 30.527344 24.53125 30.308594 24.644531 C 30.085938 24.761719 29.820312 24.742188 29.617188 24.601562 L 22.667969 19.734375 L 22.667969 25.332031 C 22.667969 26.070312 22.070312 26.667969 21.332031 26.667969 L 2.667969 26.667969 C 1.929688 26.667969 1.332031 26.070312 1.332031 25.332031 L 1.332031 6.667969 C 1.332031 5.929688 1.929688 5.332031 2.667969 5.332031 Z M 9.867188 11.773438 C 9.613281 11.773438 9.394531 11.949219 9.34375 12.199219 L 9.332031 12.304688 L 9.332031 19.691406 C 9.332031 19.867188 9.417969 20.03125 9.5625 20.132812 C 9.707031 20.230469 9.890625 20.253906 10.054688 20.191406 L 10.152344 20.144531 L 15.960938 16.449219 C 16.097656 16.359375 16.1875 16.214844 16.203125 16.050781 C 16.21875 15.890625 16.160156 15.730469 16.042969 15.617188 L 15.960938 15.550781 L 10.152344 11.851562 C 10.066406 11.800781 9.96875 11.773438 9.867188 11.773438 Z M 9.867188 11.773438 "/>
</g>
</svg>
