<?xml version="1.0" encoding="UTF-8"?>
<svg xmlns="http://www.w3.org/2000/svg" xmlns:xlink="http://www.w3.org/1999/xlink" width="32" height="32" viewBox="0 0 32 32" version="1.1">
<g id="surface1">
<path style=" stroke:none;fill-rule:nonzero;fill:rgb(0%,0%,0%);fill-opacity:1;" d="M 20 4 C 20.734375 4 21.332031 4.597656 21.332031 5.332031 L 21.332031 8 L 26.667969 8 C 27.402344 8 28 8.597656 28 9.332031 L 28 25.332031 L 30.667969 25.332031 L 30.667969 28 L 1.332031 28 L 1.332031 25.332031 L 4 25.332031 L 4 9.332031 C 4 8.597656 4.597656 8 5.332031 8 L 10.667969 8 L 10.667969 5.332031 C 10.667969 4.597656 11.265625 4 12 4 Z M 10.667969 10.667969 L 6.667969 10.667969 L 6.667969 25.332031 L 10.667969 25.332031 Z M 18.667969 10.667969 L 13.332031 10.667969 L 13.332031 25.332031 L 18.667969 25.332031 Z M 25.332031 10.667969 L 21.332031 10.667969 L 21.332031 25.332031 L 25.332031 25.332031 Z M 18.667969 6.667969 L 13.332031 6.667969 L 13.332031 8 L 18.667969 8 Z M 18.667969 6.667969 "/>
</g>
</svg>
