<?xml version="1.0" encoding="UTF-8"?>
<svg xmlns="http://www.w3.org/2000/svg" xmlns:xlink="http://www.w3.org/1999/xlink" width="32" height="32" viewBox="0 0 32 32" version="1.1">
<g id="surface1">
<path style=" stroke:none;fill-rule:nonzero;fill:rgb(0%,0%,0%);fill-opacity:1;" d="M 26.667969 9.652344 L 16.097656 19.117188 L 5.332031 9.621094 L 5.332031 25.332031 L 14.761719 25.332031 C 14.890625 26.257812 15.164062 27.15625 15.566406 28 L 4 28 C 3.261719 28 2.667969 27.402344 2.667969 26.667969 L 2.667969 5.332031 C 2.667969 4.597656 3.261719 4 4 4 L 28 4 C 28.738281 4 29.332031 4.597656 29.332031 5.332031 L 29.332031 16.339844 C 28.519531 15.769531 27.617188 15.335938 26.667969 15.054688 Z M 26 6.667969 L 6.015625 6.667969 L 16.082031 15.550781 L 26.003906 6.667969 Z M 22.277344 27.609375 C 23.804688 28.34375 25.632812 28.03125 26.832031 26.832031 C 28.03125 25.632812 28.34375 23.804688 27.609375 22.277344 Z M 20.390625 25.722656 L 25.722656 20.390625 C 24.195312 19.660156 22.367188 19.972656 21.167969 21.171875 C 19.96875 22.371094 19.65625 24.195312 20.390625 25.726562 Z M 24 30.667969 C 20.316406 30.667969 17.332031 27.683594 17.332031 24 C 17.332031 20.316406 20.316406 17.332031 24 17.332031 C 27.683594 17.332031 30.667969 20.316406 30.667969 24 C 30.667969 27.683594 27.683594 30.667969 24 30.667969 Z M 24 30.667969 "/>
</g>
</svg>
