<?xml version="1.0" encoding="UTF-8"?>
<svg xmlns="http://www.w3.org/2000/svg" xmlns:xlink="http://www.w3.org/1999/xlink" width="32" height="32" viewBox="0 0 32 32" version="1.1">
<g id="surface1">
<path style=" stroke:none;fill-rule:nonzero;fill:rgb(0%,0%,0%);fill-opacity:1;" d="M 22.777344 21.082031 C 26.277344 17.386719 26.167969 11.570312 22.539062 8.007812 C 18.910156 4.441406 13.089844 4.441406 9.460938 8.007812 C 5.832031 11.570312 5.722656 17.386719 9.222656 21.082031 C 10.683594 18.75 13.246094 17.332031 16 17.332031 C 18.753906 17.332031 21.316406 18.75 22.777344 21.082031 Z M 16 31.636719 L 7.515625 23.152344 C 2.828125 18.464844 2.828125 10.867188 7.515625 6.179688 C 12.199219 1.496094 19.800781 1.496094 24.484375 6.179688 C 29.171875 10.867188 29.171875 18.464844 24.484375 23.152344 Z M 16 16 C 13.789062 16 12 14.210938 12 12 C 12 9.789062 13.789062 8 16 8 C 18.210938 8 20 9.789062 20 12 C 20 14.210938 18.210938 16 16 16 Z M 16 16 "/>
</g>
</svg>
