<?xml version="1.0" encoding="UTF-8"?>
<svg xmlns="http://www.w3.org/2000/svg" xmlns:xlink="http://www.w3.org/1999/xlink" width="32" height="32" viewBox="0 0 32 32" version="1.1">
<g id="surface1">
<path style=" stroke:none;fill-rule:nonzero;fill:rgb(0%,0%,0%);fill-opacity:1;" d="M 20.324219 6.019531 L 11.339844 15.003906 L 10.398438 17.832031 L 9.011719 19.21875 L 12.78125 22.992188 L 14.167969 21.601562 L 16.996094 20.660156 L 25.980469 11.675781 Z M 28.808594 10.734375 C 29.328125 11.253906 29.328125 12.097656 28.808594 12.617188 L 18.4375 22.992188 L 15.609375 23.933594 L 13.722656 25.820312 C 13.203125 26.339844 12.359375 26.339844 11.839844 25.820312 L 6.179688 20.160156 C 5.660156 19.640625 5.660156 18.796875 6.179688 18.277344 L 8.066406 16.390625 L 9.007812 13.5625 L 19.382812 3.191406 C 19.902344 2.671875 20.746094 2.671875 21.265625 3.191406 Z M 20.324219 9.789062 L 22.210938 11.675781 L 15.609375 18.277344 L 13.722656 16.390625 Z M 5.710938 22.519531 L 9.480469 26.292969 L 7.597656 28.175781 L 1.9375 26.292969 Z M 5.710938 22.519531 "/>
</g>
</svg>
