<?xml version="1.0" encoding="UTF-8"?>
<svg xmlns="http://www.w3.org/2000/svg" xmlns:xlink="http://www.w3.org/1999/xlink" width="32" height="32" viewBox="0 0 32 32" version="1.1">
<g id="surface1">
<path style=" stroke:none;fill-rule:nonzero;fill:rgb(0%,0%,0%);fill-opacity:1;" d="M 16 11.332031 L 18.820312 18.117188 L 26.144531 18.703125 L 20.566406 23.484375 L 22.269531 30.628906 L 16 26.800781 L 9.730469 30.628906 L 11.433594 23.484375 L 5.855469 18.703125 L 13.179688 18.117188 Z M 16 18.277344 L 15.015625 20.644531 L 12.460938 20.847656 L 14.40625 22.515625 L 13.8125 25.011719 L 16 23.675781 L 18.1875 25.011719 L 17.59375 22.519531 L 19.539062 20.847656 L 16.984375 20.644531 Z M 10.667969 2.667969 L 10.667969 14.667969 L 8 14.667969 L 8 2.667969 Z M 24 2.667969 L 24 14.667969 L 21.332031 14.667969 L 21.332031 2.667969 Z M 17.332031 2.667969 L 17.332031 9.332031 L 14.667969 9.332031 L 14.667969 2.667969 Z M 17.332031 2.667969 "/>
</g>
</svg>
