<?xml version="1.0" encoding="UTF-8"?>
<svg xmlns="http://www.w3.org/2000/svg" xmlns:xlink="http://www.w3.org/1999/xlink" width="32" height="32" viewBox="0 0 32 32" version="1.1">
<g id="surface1">
<path style=" stroke:none;fill-rule:nonzero;fill:rgb(0%,0%,0%);fill-opacity:1;" d="M 30 0 C 28.890625 0 28 0.890625 28 2 L 4 8 C 4 6.890625 3.132812 6 2.054688 6 L 1.945312 6 C 0.867188 6 0 6.890625 0 8 L 0 20 C 0 21.109375 0.867188 22 1.945312 22 L 2.054688 22 C 3.132812 22 4 21.109375 4 20 L 6.496094 20.625 L 6.496094 26 C 6.492188 26.691406 6.960938 27.292969 7.632812 27.460938 L 23.636719 31.460938 C 24.085938 31.570312 24.558594 31.46875 24.921875 31.183594 C 25.285156 30.898438 25.496094 30.460938 25.496094 30 L 25.496094 25.375 L 28 26 C 28 27.109375 28.890625 28 30 28 C 31.109375 28 32 27.109375 32 26 L 32 2 C 32 0.890625 31.109375 0 30 0 Z M 9.492188 21.375 L 22.5 24.625 L 22.5 28.082031 L 9.492188 24.832031 Z M 9.492188 21.375 "/>
</g>
</svg>
