<?xml version="1.0" encoding="UTF-8"?>
<svg xmlns="http://www.w3.org/2000/svg" xmlns:xlink="http://www.w3.org/1999/xlink" width="32" height="32" viewBox="0 0 32 32" version="1.1">
<g id="surface1">
<path style=" stroke:none;fill-rule:nonzero;fill:rgb(0%,0%,0%);fill-opacity:1;" d="M 14.667969 2.667969 C 20.089844 2.667969 24.566406 6.714844 25.246094 11.953125 L 28.246094 16.671875 C 28.441406 16.984375 28.402344 17.445312 27.945312 17.644531 L 25.332031 18.761719 L 25.332031 22.667969 C 25.332031 24.140625 24.140625 25.332031 22.667969 25.332031 L 20 25.332031 L 20 29.332031 L 8 29.332031 L 8 24.40625 C 8 22.835938 7.417969 21.34375 6.339844 20 C 4.875 18.175781 4 15.855469 4 13.332031 C 4 7.441406 8.777344 2.667969 14.667969 2.667969 Z M 14.667969 5.332031 C 10.246094 5.332031 6.667969 8.914062 6.667969 13.332031 C 6.667969 15.179688 7.289062 16.925781 8.421875 18.332031 C 9.878906 20.152344 10.667969 22.222656 10.667969 24.40625 L 10.667969 26.667969 L 17.332031 26.667969 L 17.335938 22.667969 L 22.667969 22.667969 L 22.667969 17.003906 L 24.734375 16.117188 L 22.675781 12.882812 L 22.601562 12.292969 C 22.089844 8.335938 18.699219 5.332031 14.667969 5.332031 Z M 13.960938 10.351562 L 14.667969 11.058594 L 15.375 10.351562 C 16.285156 9.4375 17.761719 9.4375 18.671875 10.351562 C 19.585938 11.261719 19.585938 12.738281 18.671875 13.648438 L 14.667969 17.65625 L 10.660156 13.648438 C 9.746094 12.738281 9.746094 11.261719 10.660156 10.351562 C 11.570312 9.4375 13.046875 9.4375 13.960938 10.351562 Z M 13.960938 10.351562 "/>
</g>
</svg>
