<?xml version="1.0" encoding="UTF-8"?>
<svg xmlns="http://www.w3.org/2000/svg" xmlns:xlink="http://www.w3.org/1999/xlink" width="32" height="32" viewBox="0 0 32 32" version="1.1">
<g id="surface1">
<path style=" stroke:none;fill-rule:nonzero;fill:rgb(0%,0%,0%);fill-opacity:1;" d="M 10.351562 25.632812 C 11.136719 25.285156 12.019531 25.222656 12.84375 25.449219 C 13.871094 25.726562 14.929688 25.871094 16 25.867188 C 22.113281 25.867188 26.667969 21.484375 26.667969 15.601562 C 26.667969 9.714844 22.113281 5.332031 16 5.332031 C 9.886719 5.332031 5.332031 9.714844 5.332031 15.601562 C 5.332031 18.625 6.527344 21.296875 8.621094 23.167969 C 9.390625 23.847656 9.84375 24.816406 9.878906 25.84375 Z M 16 2.667969 C 23.511719 2.667969 29.332031 8.167969 29.332031 15.601562 C 29.332031 23.03125 23.511719 28.535156 16 28.535156 C 14.695312 28.535156 13.398438 28.363281 12.140625 28.019531 C 11.902344 27.957031 11.652344 27.976562 11.429688 28.074219 L 8.78125 29.242188 C 8.457031 29.386719 8.082031 29.355469 7.78125 29.167969 C 7.484375 28.980469 7.296875 28.652344 7.285156 28.296875 L 7.210938 25.925781 C 7.203125 25.632812 7.074219 25.359375 6.855469 25.164062 C 4.261719 22.847656 2.667969 19.488281 2.667969 15.601562 C 2.667969 8.167969 8.488281 2.667969 16 2.667969 Z M 7.992188 19.382812 L 11.910156 13.167969 C 12.207031 12.695312 12.6875 12.371094 13.238281 12.269531 C 13.789062 12.167969 14.355469 12.300781 14.800781 12.636719 L 17.917969 14.96875 C 18.203125 15.183594 18.597656 15.183594 18.882812 14.96875 L 23.089844 11.773438 C 23.648438 11.347656 24.382812 12.019531 24.007812 12.617188 L 20.089844 18.832031 C 19.792969 19.304688 19.3125 19.632812 18.761719 19.734375 C 18.210938 19.835938 17.644531 19.699219 17.199219 19.367188 L 14.082031 17.03125 C 13.796875 16.816406 13.402344 16.816406 13.117188 17.03125 L 8.910156 20.226562 C 8.351562 20.652344 7.617188 19.980469 7.992188 19.382812 Z M 7.992188 19.382812 "/>
</g>
</svg>
