<?xml version="1.0" encoding="UTF-8"?>
<svg xmlns="http://www.w3.org/2000/svg" xmlns:xlink="http://www.w3.org/1999/xlink" width="32" height="32" viewBox="0 0 32 32" version="1.1">
<g id="surface1">
<path style=" stroke:none;fill-rule:nonzero;fill:rgb(0%,0%,0%);fill-opacity:1;" d="M 4 4 L 28 4 C 28.738281 4 29.332031 4.597656 29.332031 5.332031 L 29.332031 26.667969 C 29.332031 27.402344 28.738281 28 28 28 L 4 28 C 3.261719 28 2.667969 27.402344 2.667969 26.667969 L 2.667969 5.332031 C 2.667969 4.597656 3.261719 4 4 4 Z M 12 17.332031 L 12 20 L 10.667969 20 L 10.667969 22.667969 L 21.332031 22.667969 L 21.332031 20 L 14.667969 20 L 14.667969 17.332031 L 18.667969 17.332031 L 18.667969 14.667969 L 14.667969 14.667969 L 14.667969 13.332031 C 14.664062 12.445312 15.25 11.664062 16.101562 11.414062 C 16.949219 11.164062 17.867188 11.5 18.347656 12.246094 L 20.996094 11.585938 C 20.15625 9.515625 17.96875 8.328125 15.777344 8.753906 C 13.585938 9.179688 12.003906 11.101562 12 13.332031 L 12 14.667969 L 10.667969 14.667969 L 10.667969 17.332031 Z M 12 17.332031 "/>
</g>
</svg>
