<?xml version="1.0" encoding="UTF-8"?>
<svg xmlns="http://www.w3.org/2000/svg" xmlns:xlink="http://www.w3.org/1999/xlink" width="32" height="32" viewBox="0 0 32 32" version="1.1">
<g id="surface1">
<path style=" stroke:none;fill-rule:nonzero;fill:rgb(0%,0%,0%);fill-opacity:1;" d="M 1 2.003906 C 0.445312 2 -0.0078125 2.453125 -0.00390625 3.007812 L -0.00390625 28.992188 C -0.0078125 29.546875 0.445312 30 1 29.996094 L 31 29.996094 C 31.554688 30 32.007812 29.546875 32.003906 28.992188 L 32.003906 3.007812 C 32.007812 2.453125 31.554688 2 31 2.003906 Z M 11.578125 9.089844 C 12.03125 9.089844 12.425781 9.394531 12.542969 9.832031 L 14.949219 18.777344 L 16.660156 14.585938 C 16.8125 14.210938 17.175781 13.96875 17.578125 13.964844 L 29.992188 13.964844 L 29.992188 15.972656 L 18.253906 15.972656 L 15.671875 22.292969 C 15.304688 23.175781 14.023438 23.085938 13.78125 22.160156 L 11.316406 12.960938 L 9.605469 15.433594 C 9.441406 15.785156 9.089844 16.007812 8.703125 16.007812 L 1.984375 16.007812 L 1.984375 14 L 8.070312 14 L 10.679688 9.667969 C 10.832031 9.339844 11.148438 9.121094 11.507812 9.09375 C 11.53125 9.089844 11.554688 9.089844 11.578125 9.089844 Z M 11.578125 9.089844 "/>
</g>
</svg>
