<?xml version="1.0" encoding="UTF-8"?>
<svg xmlns="http://www.w3.org/2000/svg" xmlns:xlink="http://www.w3.org/1999/xlink" width="32" height="32" viewBox="0 0 32 32" version="1.1">
<g id="surface1">
<path style=" stroke:none;fill-rule:nonzero;fill:rgb(0%,0%,0%);fill-opacity:1;" d="M 1 2.003906 C 0.445312 2 -0.0078125 2.453125 -0.00390625 3.007812 L -0.00390625 28.992188 C -0.0078125 29.546875 0.445312 30 1 29.996094 L 31 29.996094 C 31.554688 30 32.007812 29.546875 32.003906 28.992188 L 32.003906 3.007812 C 32.007812 2.453125 31.554688 2 31 2.003906 Z M 1.988281 4.011719 L 29.996094 4.011719 L 29.996094 28.003906 L 1.988281 28.003906 Z M 1.988281 4.011719 "/>
<path style=" stroke:none;fill-rule:nonzero;fill:rgb(0%,0%,0%);fill-opacity:1;" d="M 11.507812 9.09375 C 11.148438 9.121094 10.832031 9.339844 10.679688 9.667969 L 8.070312 14 L 1.984375 14 L 1.984375 16.007812 L 8.703125 16.007812 C 9.089844 16.007812 9.441406 15.78125 9.605469 15.433594 L 11.316406 12.960938 L 13.78125 22.160156 C 14.023438 23.082031 15.300781 23.171875 15.671875 22.292969 L 18.253906 15.972656 L 29.992188 15.972656 L 29.992188 13.964844 L 17.578125 13.964844 C 17.175781 13.96875 16.8125 14.210938 16.660156 14.585938 L 14.949219 18.777344 L 12.542969 9.832031 C 12.417969 9.371094 11.984375 9.058594 11.507812 9.09375 Z M 11.507812 9.09375 "/>
</g>
</svg>
