<?xml version="1.0" encoding="UTF-8"?>
<svg xmlns="http://www.w3.org/2000/svg" xmlns:xlink="http://www.w3.org/1999/xlink" width="32" height="32" viewBox="0 0 32 32" version="1.1">
<g id="surface1">
<path style=" stroke:none;fill-rule:nonzero;fill:rgb(0%,0%,0%);fill-opacity:1;" d="M 2.667969 5.324219 C 2.671875 4.59375 3.261719 4.003906 3.988281 4 L 28.011719 4 C 28.742188 4 29.332031 4.59375 29.332031 5.324219 L 29.332031 26.675781 C 29.328125 27.40625 28.738281 27.996094 28.011719 28 L 3.988281 28 C 3.257812 28 2.667969 27.40625 2.667969 26.675781 Z M 16 16.226562 C 14.355469 15.648438 12.527344 16.195312 11.476562 17.585938 C 10.425781 18.976562 10.394531 20.886719 11.402344 22.308594 C 12.40625 23.730469 14.21875 24.339844 15.878906 23.8125 C 17.539062 23.285156 18.667969 21.742188 18.667969 20 L 18.667969 10.664062 L 22.667969 10.664062 L 22.667969 8 L 16 8 Z M 16 16.226562 "/>
</g>
</svg>
