<?xml version="1.0" encoding="UTF-8"?>
<svg xmlns="http://www.w3.org/2000/svg" xmlns:xlink="http://www.w3.org/1999/xlink" width="32" height="32" viewBox="0 0 32 32" version="1.1">
<g id="surface1">
<path style=" stroke:none;fill-rule:nonzero;fill:rgb(0%,0%,0%);fill-opacity:1;" d="M 15.902344 0 C 13.730469 0.0546875 12 1.828125 12 4 C 12 4.28125 12.03125 4.5625 12.089844 4.835938 L 7.015625 7.375 C 6.257812 6.503906 5.15625 6 4 6 C 1.789062 6 0 7.789062 0 10 C 0 12.210938 1.789062 14 4 14 C 4.449219 14 4.894531 13.921875 5.316406 13.773438 L 6.800781 16 L 5.320312 18.222656 C 4.894531 18.074219 4.449219 18 4 18 C 1.789062 18 0 19.789062 0 22 C 0 24.210938 1.789062 26 4 26 C 5.152344 26 6.25 25.5 7.007812 24.632812 L 12.089844 27.171875 C 12.03125 27.445312 12 27.722656 12 28 C 12 30.210938 13.789062 32 16 32 C 18.210938 32 20 30.210938 20 28 C 20 27.285156 19.804688 26.582031 19.441406 25.964844 L 25.964844 19.441406 C 26.582031 19.804688 27.285156 20 28 20 C 30.210938 20 32 18.210938 32 16 C 32 13.789062 30.210938 12 28 12 C 27.285156 12 26.582031 12.195312 25.96875 12.558594 L 19.445312 6.035156 C 19.808594 5.417969 20 4.714844 20 4 C 20 1.792969 18.210938 0 16 0 C 15.96875 0 15.933594 0 15.902344 0 Z M 12.984375 6.625 C 12.996094 6.636719 13.007812 6.652344 13.019531 6.664062 L 9.660156 11.707031 L 7.910156 10.832031 C 7.96875 10.558594 8 10.28125 8 10 C 8 9.71875 7.96875 9.4375 7.910156 9.160156 Z M 18.027344 7.445312 L 24.554688 13.96875 C 24.367188 14.289062 24.226562 14.632812 24.132812 14.992188 L 19.871094 14.992188 C 19.414062 13.230469 17.820312 12 16 12 C 14.847656 12 13.746094 12.5 12.988281 13.367188 L 11.460938 12.605469 L 14.683594 7.777344 C 15.105469 7.925781 15.550781 8 16 8 C 16.714844 8 17.414062 7.808594 18.027344 7.445312 Z M 7.015625 12.625 L 8.542969 13.386719 L 7.996094 14.207031 L 6.972656 12.671875 C 6.988281 12.65625 7 12.640625 7.015625 12.625 Z M 10.339844 14.289062 L 12.089844 15.164062 C 12.03125 15.4375 12 15.71875 12 16 C 12 16.28125 12.03125 16.5625 12.089844 16.839844 L 10.339844 17.71875 L 9.195312 16.003906 Z M 19.871094 17 L 24.128906 17 C 24.222656 17.363281 24.367188 17.710938 24.554688 18.03125 L 18.03125 24.554688 C 17.414062 24.191406 16.714844 24 16 24 C 15.550781 24 15.105469 24.078125 14.679688 24.226562 L 11.453125 19.386719 L 12.984375 18.625 C 13.742188 19.496094 14.84375 20 16 20 C 17.824219 20 19.414062 18.765625 19.871094 17 Z M 7.996094 17.796875 L 8.542969 18.617188 L 7.015625 19.378906 C 7.003906 19.363281 6.988281 19.347656 6.976562 19.332031 Z M 9.652344 20.285156 L 13.019531 25.335938 C 13.007812 25.347656 13 25.359375 12.988281 25.371094 L 7.910156 22.832031 C 7.96875 22.558594 8 22.28125 8 22 C 8 21.714844 7.96875 21.433594 7.910156 21.15625 Z M 9.652344 20.285156 "/>
</g>
</svg>
