<?xml version="1.0" encoding="UTF-8"?>
<svg xmlns="http://www.w3.org/2000/svg" xmlns:xlink="http://www.w3.org/1999/xlink" width="32" height="32" viewBox="0 0 32 32" version="1.1">
<g id="surface1">
<path style=" stroke:none;fill-rule:nonzero;fill:rgb(0%,0%,0%);fill-opacity:1;" d="M 24 2.667969 L 24 4.484375 L 17.078125 12.734375 C 21.417969 13.277344 24.675781 16.972656 24.667969 21.347656 C 24.660156 25.722656 21.394531 29.40625 17.054688 29.9375 C 12.710938 30.46875 8.652344 27.679688 7.589844 23.4375 L 10.175781 22.789062 C 10.917969 25.722656 13.726562 27.648438 16.730469 27.277344 C 19.734375 26.90625 21.992188 24.359375 22 21.332031 C 22 19.253906 20.925781 17.324219 19.160156 16.230469 C 17.394531 15.136719 15.1875 15.035156 13.328125 15.960938 L 13.023438 16.121094 L 12.101562 14.511719 L 19.808594 5.332031 L 8.667969 5.332031 L 8.667969 2.667969 Z M 24 2.667969 "/>
</g>
</svg>
