<?xml version="1.0" encoding="UTF-8"?>
<svg xmlns="http://www.w3.org/2000/svg" xmlns:xlink="http://www.w3.org/1999/xlink" width="32" height="32" viewBox="0 0 32 32" version="1.1">
<g id="surface1">
<path style=" stroke:none;fill-rule:nonzero;fill:rgb(0%,0%,0%);fill-opacity:1;" d="M 16 2 C 19.101562 2 21.96875 3.65625 23.515625 6.347656 C 25.0625 9.035156 25.050781 12.34375 23.492188 15.027344 L 15.230469 29.332031 L 12.152344 29.332031 L 18.070312 19.085938 C 14.820312 19.878906 11.40625 18.738281 9.289062 16.144531 C 7.175781 13.550781 6.742188 9.972656 8.175781 6.953125 C 9.609375 3.929688 12.65625 2.003906 16 2 Z M 16 4.667969 C 12.6875 4.667969 10 7.351562 10 10.667969 C 10 13.980469 12.6875 16.667969 16 16.667969 C 19.3125 16.667969 22 13.980469 22 10.667969 C 22 7.351562 19.3125 4.667969 16 4.667969 Z M 16 4.667969 "/>
</g>
</svg>
