<?xml version="1.0" encoding="UTF-8"?>
<svg xmlns="http://www.w3.org/2000/svg" xmlns:xlink="http://www.w3.org/1999/xlink" width="32" height="32" viewBox="0 0 32 32" version="1.1">
<g id="surface1">
<path style=" stroke:none;fill-rule:nonzero;fill:rgb(0%,0%,0%);fill-opacity:1;" d="M 5.332031 4 L 26.667969 4 C 27.402344 4 28 4.597656 28 5.332031 L 28 12 C 28 12.738281 27.402344 13.332031 26.667969 13.332031 L 5.332031 13.332031 C 4.597656 13.332031 4 12.738281 4 12 L 4 5.332031 C 4 4.597656 4.597656 4 5.332031 4 Z M 8 16 L 16 16 C 16.738281 16 17.332031 16.597656 17.332031 17.332031 L 17.332031 21.332031 L 18.667969 21.332031 L 18.667969 29.332031 L 13.332031 29.332031 L 13.332031 21.332031 L 14.667969 21.332031 L 14.667969 18.667969 L 6.667969 18.667969 C 5.929688 18.667969 5.332031 18.070312 5.332031 17.332031 L 5.332031 14.667969 L 8 14.667969 Z M 23.644531 18.308594 L 26 15.953125 L 28.355469 18.308594 C 29.660156 19.609375 29.660156 21.722656 28.355469 23.023438 C 27.054688 24.324219 24.945312 24.324219 23.644531 23.023438 C 22.339844 21.722656 22.339844 19.609375 23.644531 18.308594 Z M 23.644531 18.308594 "/>
</g>
</svg>
