<?xml version="1.0" encoding="UTF-8"?>
<svg xmlns="http://www.w3.org/2000/svg" xmlns:xlink="http://www.w3.org/1999/xlink" width="32" height="32" viewBox="0 0 32 32" version="1.1">
<g id="surface1">
<path style=" stroke:none;fill-rule:nonzero;fill:rgb(0%,0%,0%);fill-opacity:1;" d="M 22.246094 2.789062 C 21.433594 2.789062 20.621094 3.105469 20 3.722656 L 18.746094 4.976562 C 18.742188 4.984375 18.742188 4.984375 18.734375 4.992188 L 3.085938 20.648438 C 3.058594 20.671875 3.03125 20.695312 3.003906 20.71875 C 2.980469 20.738281 2.960938 20.769531 2.9375 20.792969 C 2.9375 20.796875 2.933594 20.800781 2.933594 20.800781 L 1.265625 22.46875 C 1.097656 22.632812 1.007812 22.859375 1.003906 23.089844 L 1.003906 28.332031 C 1.003906 28.816406 1.390625 29.207031 1.871094 29.210938 L 7.125 29.210938 C 7.359375 29.210938 7.582031 29.121094 7.746094 28.957031 L 25.234375 11.457031 L 26.996094 13.21875 L 18.996094 21.21875 L 20.996094 23.21875 L 30.996094 13.21875 L 27.023438 9.246094 C 27.515625 7.976562 27.257812 6.480469 26.234375 5.457031 L 24.496094 3.71875 C 23.875 3.097656 23.0625 2.785156 22.25 2.789062 Z M 10.972656 15.210938 L 14.992188 19.21875 L 8.867188 25.355469 L 4.863281 21.335938 Z M 10.972656 15.210938 "/>
</g>
</svg>
