<?xml version="1.0" encoding="UTF-8"?>
<svg xmlns="http://www.w3.org/2000/svg" xmlns:xlink="http://www.w3.org/1999/xlink" width="32" height="32" viewBox="0 0 32 32" version="1.1">
<g id="surface1">
<path style=" stroke:none;fill-rule:nonzero;fill:rgb(0%,0%,0%);fill-opacity:1;" d="M 24 2.667969 C 24.738281 2.667969 25.332031 3.261719 25.332031 4 L 25.332031 15.371094 C 22.980469 13.269531 19.613281 12.742188 16.734375 14.03125 C 13.855469 15.320312 12 18.179688 12 21.332031 C 12 25.652344 15.679688 29.332031 20 29.332031 L 8 29.332031 C 7.261719 29.332031 6.667969 28.738281 6.667969 28 L 6.667969 4 C 6.667969 3.261719 7.261719 2.667969 8 2.667969 Z M 20 16 C 21.914062 16 23.683594 17.027344 24.632812 18.6875 C 25.582031 20.351562 25.566406 22.394531 24.59375 24.042969 L 27.542969 26.988281 L 25.65625 28.875 L 22.710938 25.929688 C 20.773438 27.070312 18.328125 26.875 16.597656 25.4375 C 14.871094 24.003906 14.222656 21.640625 14.984375 19.527344 C 15.746094 17.410156 17.753906 16 20 16 Z M 20 18.667969 C 18.527344 18.667969 17.332031 19.859375 17.332031 21.332031 C 17.332031 22.804688 18.527344 24 20 24 C 21.472656 24 22.667969 22.804688 22.667969 21.332031 C 22.667969 19.859375 21.472656 18.667969 20 18.667969 Z M 20 18.667969 "/>
</g>
</svg>
