<?xml version="1.0" encoding="UTF-8"?>
<svg xmlns="http://www.w3.org/2000/svg" xmlns:xlink="http://www.w3.org/1999/xlink" width="32" height="32" viewBox="0 0 32 32" version="1.1">
<g id="surface1">
<path style=" stroke:none;fill-rule:nonzero;fill:rgb(0%,0%,0%);fill-opacity:1;" d="M 8 2.667969 C 11.585938 2.667969 14.699219 4.6875 16.261719 7.65625 C 17.832031 5.445312 20.414062 4 23.332031 4 L 28 4 L 28 7.332031 C 28 12.121094 24.121094 16 19.332031 16 L 17.332031 16 L 17.332031 17.332031 L 24 17.332031 L 24 26.667969 C 24 28.140625 22.808594 29.332031 21.332031 29.332031 L 10.667969 29.332031 C 9.191406 29.332031 8 28.140625 8 26.667969 L 8 17.332031 L 14.667969 17.332031 L 14.667969 14.667969 L 12 14.667969 C 6.84375 14.667969 2.667969 10.488281 2.667969 5.332031 L 2.667969 2.667969 Z M 21.332031 20 L 10.667969 20 L 10.667969 26.667969 L 21.332031 26.667969 Z M 25.332031 6.667969 L 23.332031 6.667969 C 20.019531 6.667969 17.332031 9.351562 17.332031 12.667969 L 17.332031 13.332031 L 19.332031 13.332031 C 22.648438 13.332031 25.332031 10.648438 25.332031 7.332031 Z M 8 5.332031 L 5.332031 5.332031 C 5.332031 9.015625 8.320312 12 12 12 L 14.667969 12 C 14.667969 8.320312 11.679688 5.332031 8 5.332031 Z M 8 5.332031 "/>
</g>
</svg>
