<?xml version="1.0" encoding="UTF-8"?>
<svg xmlns="http://www.w3.org/2000/svg" xmlns:xlink="http://www.w3.org/1999/xlink" width="32" height="32" viewBox="0 0 32 32" version="1.1">
<g id="surface1">
<path style=" stroke:none;fill-rule:nonzero;fill:rgb(0%,0%,0%);fill-opacity:1;" d="M 12 4 L 12 12 L 4 12 C 2.894531 12 2 12.894531 2 14 L 2 18 C 2 19.105469 2.894531 20 4 20 L 12 20 L 12 28 C 12 29.105469 12.894531 30 14 30 L 18 30 C 19.105469 30 20 29.105469 20 28 L 20 20 L 28 20 C 29.105469 20 30 19.105469 30 18 L 30 14 C 30 12.894531 29.105469 12 28 12 L 20 12 L 20 4 C 20 2.894531 19.105469 2 18 2 L 14 2 C 12.894531 2 12 2.894531 12 4 Z M 12 4 "/>
</g>
</svg>
