<?xml version="1.0" encoding="UTF-8"?>
<svg xmlns="http://www.w3.org/2000/svg" xmlns:xlink="http://www.w3.org/1999/xlink" width="32" height="32" viewBox="0 0 32 32" version="1.1">
<g id="surface1">
<path style=" stroke:none;fill-rule:nonzero;fill:rgb(0%,0%,0%);fill-opacity:1;" d="M 16 25.332031 C 17.105469 25.332031 18 26.230469 18 27.332031 C 18 28.4375 17.105469 29.332031 16 29.332031 C 14.894531 29.332031 14 28.4375 14 27.332031 C 14 26.230469 14.894531 25.332031 16 25.332031 Z M 16 2.667969 C 20.417969 2.667969 24 6.246094 24 10.667969 C 24 13.554688 22.996094 15.054688 20.433594 17.230469 C 17.867188 19.414062 17.332031 20.394531 17.332031 22.667969 L 14.667969 22.667969 C 14.667969 19.367188 15.714844 17.738281 18.707031 15.199219 C 20.730469 13.480469 21.332031 12.578125 21.332031 10.667969 C 21.332031 7.71875 18.945312 5.332031 16 5.332031 C 13.054688 5.332031 10.667969 7.71875 10.667969 10.667969 L 10.667969 12 L 8 12 L 8 10.667969 C 8 6.246094 11.582031 2.667969 16 2.667969 Z M 16 2.667969 "/>
</g>
</svg>
