<?xml version="1.0" encoding="UTF-8"?>
<svg xmlns="http://www.w3.org/2000/svg" xmlns:xlink="http://www.w3.org/1999/xlink" width="32" height="32" viewBox="0 0 32 32" version="1.1">
<g id="surface1">
<path style=" stroke:none;fill-rule:nonzero;fill:rgb(0%,0%,0%);fill-opacity:1;" d="M 8 4 L 8 1.332031 L 10.667969 1.332031 L 10.667969 4 L 28.011719 4 C 28.742188 4 29.332031 4.59375 29.332031 5.324219 L 29.332031 26.675781 C 29.328125 27.40625 28.738281 27.996094 28.011719 28 L 3.988281 28 C 3.257812 28 2.667969 27.40625 2.667969 26.675781 L 2.667969 5.324219 C 2.671875 4.59375 3.261719 4.003906 3.988281 4 Z M 12 20 C 14.210938 20 16 18.210938 16 16 C 16 13.789062 14.210938 12 12 12 C 9.789062 12 8 13.789062 8 16 C 8 18.210938 9.789062 20 12 20 Z M 18.667969 12 L 18.667969 14.667969 L 24 14.667969 L 24 12 Z M 18.667969 17.332031 L 18.667969 20 L 24 20 L 24 17.332031 Z M 18.667969 17.332031 "/>
</g>
</svg>
