<?xml version="1.0" encoding="UTF-8"?>
<svg xmlns="http://www.w3.org/2000/svg" xmlns:xlink="http://www.w3.org/1999/xlink" width="32" height="32" viewBox="0 0 32 32" version="1.1">
<defs>
<filter id="alpha" filterUnits="objectBoundingBox" x="0%" y="0%" width="100%" height="100%">
  <feColorMatrix type="matrix" in="SourceGraphic" values="0 0 0 0 1 0 0 0 0 1 0 0 0 0 1 0 0 0 1 0"/>
</filter>
<mask id="mask0">
  <g filter="url(#alpha)">
<rect x="0" y="0" width="32" height="32" style="fill:rgb(0%,0%,0%);fill-opacity:0.996078;stroke:none;"/>
  </g>
</mask>
<clipPath id="clip1">
  <rect x="0" y="0" width="32" height="32"/>
</clipPath>
<g id="surface5" clip-path="url(#clip1)">
<path style=" stroke:none;fill-rule:evenodd;fill:rgb(0%,0%,0%);fill-opacity:1;" d="M 18.800781 0 C 16.28125 0 13.980469 1.703125 12.878906 4.382812 C 12.140625 4.058594 11.359375 3.890625 10.570312 3.890625 C 7.816406 3.890625 5.355469 5.914062 4.398438 8.964844 C 1.945312 9.160156 0.0390625 11.566406 0.0351562 14.472656 C 0.0351562 17.375 1.9375 19.785156 4.386719 19.984375 L 3.054688 23.992188 C 2.886719 24.515625 3.167969 25.078125 3.691406 25.25 C 4.214844 25.417969 4.773438 25.132812 4.945312 24.613281 L 6.492188 20 L 14.90625 20 L 13.582031 23.992188 C 13.414062 24.515625 13.695312 25.078125 14.21875 25.25 C 14.742188 25.417969 15.300781 25.132812 15.472656 24.613281 L 17.019531 20 L 20.90625 20 L 20.582031 20.980469 C 20.40625 21.507812 20.6875 22.074219 21.214844 22.25 C 21.734375 22.417969 22.292969 22.136719 22.46875 21.617188 L 23.011719 20 L 25.972656 20 C 26.296875 20 26.621094 19.96875 26.941406 19.90625 L 25.585938 23.992188 C 25.414062 24.511719 25.691406 25.070312 26.207031 25.25 C 26.734375 25.425781 27.304688 25.140625 27.476562 24.613281 L 29.449219 18.683594 C 31.027344 17.355469 31.964844 15.207031 31.964844 12.917969 C 31.964844 9.007812 29.285156 5.839844 25.976562 5.835938 C 25.710938 5.835938 25.449219 5.855469 25.1875 5.898438 C 24.457031 2.433594 21.824219 0 18.800781 0 Z M 9.226562 22.144531 C 8.808594 22.160156 8.445312 22.433594 8.3125 22.828125 L 6.320312 28.835938 C 6.152344 29.351562 6.425781 29.910156 6.9375 30.089844 C 7.457031 30.269531 8.027344 29.992188 8.207031 29.472656 L 10.214844 23.460938 C 10.390625 22.933594 10.109375 22.367188 9.582031 22.191406 C 9.503906 22.167969 9.425781 22.152344 9.34375 22.148438 C 9.304688 22.144531 9.265625 22.144531 9.226562 22.144531 Z M 20.078125 24.558594 C 19.660156 24.574219 19.296875 24.847656 19.164062 25.242188 L 17.171875 31.25 C 17.085938 31.507812 17.117188 31.773438 17.226562 32 L 18.992188 32 C 19.011719 31.960938 19.042969 31.929688 19.058594 31.886719 L 21.066406 25.875 C 21.242188 25.347656 20.960938 24.78125 20.433594 24.605469 C 20.355469 24.582031 20.277344 24.566406 20.195312 24.5625 C 20.15625 24.558594 20.117188 24.558594 20.078125 24.558594 Z M 2.578125 27.625 C 2.160156 27.640625 1.796875 27.914062 1.664062 28.308594 L 0.441406 32 L 2.542969 32 L 3.566406 28.941406 C 3.742188 28.414062 3.460938 27.847656 2.933594 27.671875 C 2.855469 27.648438 2.777344 27.632812 2.695312 27.628906 C 2.65625 27.625 2.617188 27.625 2.578125 27.625 Z M 24.882812 27.878906 C 24.464844 27.894531 24.101562 28.167969 23.96875 28.5625 L 22.828125 32 L 24.933594 32 L 25.871094 29.195312 C 26.046875 28.667969 25.765625 28.101562 25.238281 27.925781 C 25.160156 27.902344 25.082031 27.886719 25 27.882812 C 24.960938 27.878906 24.921875 27.878906 24.882812 27.878906 Z M 12.78125 27.960938 C 12.363281 27.976562 12 28.25 11.867188 28.644531 L 10.753906 32 L 12.859375 32 L 13.769531 29.277344 C 13.945312 28.75 13.664062 28.183594 13.136719 28.007812 C 13.058594 27.984375 12.980469 27.96875 12.898438 27.964844 C 12.859375 27.960938 12.820312 27.960938 12.78125 27.960938 Z M 12.78125 27.960938 "/>
</g>
</defs>
<g id="surface1">
<use xlink:href="#surface5" mask="url(#mask0)"/>
</g>
</svg>
