<?xml version="1.0" encoding="UTF-8"?>
<svg xmlns="http://www.w3.org/2000/svg" xmlns:xlink="http://www.w3.org/1999/xlink" width="32" height="32" viewBox="0 0 32 32" version="1.1">
<g id="surface1">
<path style=" stroke:none;fill-rule:nonzero;fill:rgb(0%,0%,0%);fill-opacity:1;" d="M 16 5.332031 C 24.101562 5.332031 30.667969 11.898438 30.667969 20 L 30.667969 26.667969 L 28 26.667969 L 28 20 C 28 13.511719 22.839844 8.195312 16.351562 8.003906 L 16 8 C 9.511719 8 4.195312 13.160156 4.003906 19.648438 L 4 20 L 4 26.667969 L 1.332031 26.667969 L 1.332031 20 C 1.332031 11.898438 7.898438 5.332031 16 5.332031 Z M 16 10.667969 C 21.15625 10.667969 25.332031 14.84375 25.332031 20 L 25.332031 26.667969 L 22.667969 26.667969 L 22.667969 20 C 22.667969 16.429688 19.855469 13.496094 16.289062 13.339844 L 16 13.332031 C 12.429688 13.332031 9.496094 16.144531 9.339844 19.710938 L 9.332031 20 L 9.332031 26.667969 L 6.667969 26.667969 L 6.667969 20 C 6.667969 14.84375 10.84375 10.667969 16 10.667969 Z M 16 16 C 18.210938 16 20 17.789062 20 20 L 20 26.667969 L 17.332031 26.667969 L 17.332031 20 C 17.332031 19.324219 16.828125 18.753906 16.15625 18.675781 L 16 18.667969 C 15.324219 18.667969 14.753906 19.171875 14.675781 19.84375 L 14.667969 20 L 14.667969 26.667969 L 12 26.667969 L 12 20 C 12 17.789062 13.789062 16 16 16 Z M 16 16 "/>
</g>
</svg>
