<?xml version="1.0" encoding="UTF-8"?>
<svg xmlns="http://www.w3.org/2000/svg" xmlns:xlink="http://www.w3.org/1999/xlink" width="32" height="32" viewBox="0 0 32 32" version="1.1">
<g id="surface1">
<path style=" stroke:none;fill-rule:nonzero;fill:rgb(0%,0%,0%);fill-opacity:1;" d="M 16 18 C 14.894531 18 14 17.105469 14 16 C 14 14.894531 14.894531 14 16 14 C 17.105469 14 18 14.894531 18 16 C 18 17.105469 17.105469 18 16 18 Z M 15.296875 21.992188 C 15.53125 22.273438 15.765625 22.542969 16 22.804688 C 16.234375 22.542969 16.46875 22.273438 16.703125 21.992188 C 16.234375 22.003906 15.765625 22.003906 15.296875 21.992188 Z M 12.636719 21.824219 C 11.613281 21.71875 10.59375 21.554688 9.589844 21.335938 C 9.488281 21.800781 9.414062 22.253906 9.363281 22.6875 C 9.109375 24.800781 9.460938 26.082031 10 26.390625 C 10.539062 26.703125 11.824219 26.367188 13.527344 25.09375 C 13.878906 24.832031 14.230469 24.539062 14.585938 24.21875 C 13.890625 23.457031 13.242188 22.660156 12.636719 21.824219 Z M 22.410156 21.335938 C 21.453125 21.546875 20.433594 21.714844 19.363281 21.824219 C 18.757812 22.660156 18.109375 23.457031 17.414062 24.21875 C 17.769531 24.539062 18.121094 24.832031 18.472656 25.09375 C 20.175781 26.367188 21.460938 26.703125 22 26.390625 C 22.539062 26.082031 22.890625 24.800781 22.636719 22.6875 C 22.582031 22.234375 22.507812 21.78125 22.410156 21.335938 Z M 24.34375 20.820312 C 25.113281 24.335938 24.710938 27.136719 23 28.125 C 21.289062 29.113281 18.664062 28.0625 16 25.636719 C 13.335938 28.0625 10.710938 29.109375 9 28.125 C 7.289062 27.136719 6.886719 24.335938 7.65625 20.816406 C 4.222656 19.726562 2 17.972656 2 16 C 2 14.027344 4.222656 12.277344 7.65625 11.179688 C 6.886719 7.664062 7.289062 4.863281 9 3.875 C 10.710938 2.886719 13.335938 3.9375 16 6.363281 C 18.664062 3.9375 21.289062 2.890625 23 3.875 C 24.710938 4.863281 25.113281 7.664062 24.34375 11.183594 C 27.777344 12.273438 30 14.027344 30 16 C 30 17.972656 27.777344 19.722656 24.34375 20.820312 Z M 14.585938 7.78125 C 14.246094 7.472656 13.890625 7.183594 13.527344 6.90625 C 11.824219 5.632812 10.539062 5.296875 10 5.609375 C 9.460938 5.917969 9.109375 7.199219 9.363281 9.3125 C 9.414062 9.746094 9.488281 10.199219 9.589844 10.664062 C 10.59375 10.445312 11.613281 10.28125 12.636719 10.175781 C 13.269531 9.304688 13.921875 8.503906 14.585938 7.78125 Z M 19.363281 10.175781 C 20.433594 10.285156 21.453125 10.453125 22.410156 10.664062 C 22.511719 10.199219 22.585938 9.746094 22.636719 9.3125 C 22.890625 7.199219 22.539062 5.917969 22 5.609375 C 21.460938 5.296875 20.175781 5.632812 18.472656 6.90625 C 18.109375 7.179688 17.753906 7.472656 17.414062 7.78125 C 18.078125 8.503906 18.730469 9.304688 19.363281 10.175781 Z M 16.703125 10.007812 C 16.46875 9.726562 16.234375 9.457031 16 9.195312 C 15.765625 9.457031 15.53125 9.726562 15.296875 10.007812 C 15.765625 9.996094 16.234375 9.996094 16.703125 10.007812 Z M 11.164062 19.605469 C 10.917969 19.203125 10.683594 18.796875 10.457031 18.386719 C 10.332031 18.730469 10.214844 19.066406 10.109375 19.402344 C 10.449219 19.476562 10.800781 19.542969 11.160156 19.605469 Z M 13.738281 19.917969 C 15.246094 20.027344 16.753906 20.027344 18.261719 19.917969 C 19.109375 18.667969 19.867188 17.359375 20.523438 16 C 19.867188 14.640625 19.109375 13.332031 18.261719 12.082031 C 16.753906 11.972656 15.246094 11.972656 13.738281 12.082031 C 12.890625 13.332031 12.132812 14.640625 11.476562 16 C 12.132812 17.359375 12.890625 18.667969 13.738281 19.917969 Z M 21.542969 13.613281 C 21.667969 13.269531 21.785156 12.933594 21.890625 12.597656 C 21.542969 12.523438 21.191406 12.453125 20.839844 12.394531 C 21.082031 12.796875 21.316406 13.203125 21.542969 13.613281 Z M 8.171875 13.117188 C 7.71875 13.261719 7.289062 13.421875 6.886719 13.597656 C 4.933594 14.433594 4 15.378906 4 16 C 4 16.621094 4.933594 17.566406 6.886719 18.402344 C 7.289062 18.578125 7.71875 18.738281 8.171875 18.882812 C 8.46875 17.949219 8.835938 16.984375 9.273438 16 C 8.851562 15.058594 8.484375 14.097656 8.171875 13.117188 Z M 10.105469 12.597656 C 10.214844 12.933594 10.332031 13.269531 10.457031 13.613281 C 10.683594 13.203125 10.917969 12.796875 11.164062 12.394531 C 10.800781 12.457031 10.449219 12.523438 10.109375 12.597656 Z M 23.828125 18.882812 C 24.28125 18.738281 24.710938 18.578125 25.113281 18.402344 C 27.066406 17.566406 28 16.621094 28 16 C 28 15.378906 27.066406 14.433594 25.113281 13.597656 C 24.691406 13.417969 24.261719 13.257812 23.828125 13.117188 C 23.53125 14.050781 23.164062 15.015625 22.726562 16 C 23.164062 16.984375 23.53125 17.949219 23.828125 18.882812 Z M 21.894531 19.402344 C 21.785156 19.066406 21.667969 18.730469 21.542969 18.386719 C 21.316406 18.796875 21.082031 19.203125 20.835938 19.605469 C 21.199219 19.542969 21.550781 19.476562 21.890625 19.402344 Z M 21.894531 19.402344 "/>
</g>
</svg>
