<?xml version="1.0" encoding="UTF-8"?>
<svg xmlns="http://www.w3.org/2000/svg" xmlns:xlink="http://www.w3.org/1999/xlink" width="32" height="32" viewBox="0 0 32 32" version="1.1">
<g id="surface1">
<path style=" stroke:none;fill-rule:nonzero;fill:rgb(0%,0%,0%);fill-opacity:1;" d="M 28 2.667969 L 28 29.332031 L 25.332031 29.332031 L 25.332031 20 L 20 20 L 20 10.667969 C 20 6.25 23.582031 2.667969 28 2.667969 Z M 25.332031 6.039062 C 24.226562 6.667969 22.667969 8.226562 22.667969 10.667969 L 22.667969 17.332031 L 25.332031 17.332031 Z M 12 18.535156 L 12 29.332031 L 9.332031 29.332031 L 9.332031 18.535156 C 6.230469 17.898438 4 15.167969 4 12 L 4 4 L 6.667969 4 L 6.667969 13.332031 L 9.332031 13.332031 L 9.332031 4 L 12 4 L 12 13.332031 L 14.667969 13.332031 L 14.667969 4 L 17.332031 4 L 17.332031 12 C 17.332031 15.167969 15.105469 17.898438 12 18.535156 Z M 12 18.535156 "/>
</g>
</svg>
