<?xml version="1.0" encoding="UTF-8"?>
<svg xmlns="http://www.w3.org/2000/svg" xmlns:xlink="http://www.w3.org/1999/xlink" width="32" height="32" viewBox="0 0 32 32" version="1.1">
<g id="surface1">
<path style=" stroke:none;fill-rule:nonzero;fill:rgb(0%,0%,0%);fill-opacity:1;" d="M 11.332031 26.667969 L 20.667969 26.667969 C 19.789062 28.777344 18.109375 30.453125 16 31.335938 C 13.890625 30.453125 12.210938 28.777344 11.332031 26.667969 Z M 24 19.738281 L 26.667969 22.765625 L 26.667969 25.332031 L 5.332031 25.332031 L 5.332031 22.765625 L 8 19.738281 L 8 12 C 8 7.355469 11.339844 3.402344 16 1.941406 C 20.660156 3.402344 24 7.355469 24 12 Z M 16 14.667969 C 17.472656 14.667969 18.667969 13.472656 18.667969 12 C 18.667969 10.527344 17.472656 9.332031 16 9.332031 C 14.527344 9.332031 13.332031 10.527344 13.332031 12 C 13.332031 13.472656 14.527344 14.667969 16 14.667969 Z M 16 14.667969 "/>
</g>
</svg>
