<?xml version="1.0" encoding="UTF-8"?>
<svg xmlns="http://www.w3.org/2000/svg" xmlns:xlink="http://www.w3.org/1999/xlink" width="32" height="32" viewBox="0 0 32 32" version="1.1">
<g id="surface1">
<path style=" stroke:none;fill-rule:evenodd;fill:rgb(0%,0%,0%);fill-opacity:1;" d="M 32 0 C 14 0 8 8 4 20 L 12 28 C 24 24 32 18 32 0 Z M 21.902344 6 C 21.933594 6 21.96875 6 22 6 C 24.210938 6 26 7.789062 26 10 C 26 12.210938 24.210938 14 22 14 C 19.789062 14 18 12.210938 18 10 C 18 7.828125 19.730469 6.054688 21.902344 6 Z M 5.59375 12.269531 L 0 16 L 2.828125 18.828125 C 3.628906 16.503906 4.53125 14.304688 5.59375 12.269531 Z M 4.492188 22.609375 C 3.378906 22.976562 2.390625 23.730469 1.769531 24.734375 C 1.066406 25.921875 0.765625 27.28125 0.449219 28.597656 C 0.351562 29.046875 0.257812 29.492188 0.179688 29.945312 L 4.261719 28.140625 L 4.792969 31.027344 C 6.605469 30.898438 8.496094 30.050781 9.492188 28.441406 C 9.601562 28.269531 9.699219 28.089844 9.777344 27.902344 Z M 19.726562 26.410156 C 17.695312 27.476562 15.503906 28.378906 13.179688 29.179688 L 16 32 Z M 19.726562 26.410156 "/>
</g>
</svg>
