<?xml version="1.0" encoding="UTF-8"?>
<svg xmlns="http://www.w3.org/2000/svg" xmlns:xlink="http://www.w3.org/1999/xlink" width="32" height="32" viewBox="0 0 32 32" version="1.1">
<g id="surface1">
<path style=" stroke:none;fill-rule:evenodd;fill:rgb(0%,0%,0%);fill-opacity:1;" d="M 6 0 C 2.675781 0 0 2.675781 0 6 L 0 26 C 0 29.324219 2.675781 32 6 32 L 26 32 C 29.324219 32 32 29.324219 32 26 L 32 6 C 32 2.675781 29.324219 0 26 0 Z M 5.992188 5.992188 L 7.664062 5.992188 C 17.769531 5.992188 26 14.226562 26 24.332031 L 26 26 L 22.664062 26 L 22.664062 24.332031 C 22.664062 16.027344 15.96875 9.332031 7.664062 9.332031 L 5.992188 9.332031 Z M 5.992188 12.667969 L 7.664062 12.667969 C 14.089844 12.667969 19.339844 17.910156 19.339844 24.332031 L 19.339844 26 L 16.003906 26 L 16.003906 24.332031 C 16.003906 19.710938 12.285156 16.003906 7.664062 16.003906 L 5.992188 16.003906 Z M 9.308594 19.332031 C 9.316406 19.332031 9.324219 19.332031 9.332031 19.332031 C 10.21875 19.332031 11.066406 19.683594 11.691406 20.308594 C 12.316406 20.933594 12.667969 21.78125 12.667969 22.667969 C 12.667969 24.507812 11.171875 26 9.332031 26 C 7.492188 26 6 24.507812 6 22.667969 C 6 20.835938 7.476562 19.34375 9.308594 19.332031 Z M 9.308594 19.332031 "/>
</g>
</svg>
