<?xml version="1.0" encoding="UTF-8"?>
<svg xmlns="http://www.w3.org/2000/svg" xmlns:xlink="http://www.w3.org/1999/xlink" width="32" height="32" viewBox="0 0 32 32" version="1.1">
<g id="surface1">
<path style=" stroke:none;fill-rule:nonzero;fill:rgb(0%,0%,0%);fill-opacity:1;" d="M 0 19.320312 C 0 20.691406 1.140625 21.816406 2.507812 21.816406 L 29.503906 21.816406 C 30.871094 21.816406 32 20.691406 32 19.320312 L 32 12.691406 C 32 11.324219 30.871094 10.183594 29.503906 10.179688 L 26 10.179688 L 26 15.421875 L 24 15.421875 L 24 10.179688 L 20 10.179688 L 20 15.421875 L 18.148438 15.421875 L 18.148438 10.179688 L 14 10.179688 L 14 15.421875 L 12.148438 15.421875 L 12.148438 10.179688 L 8 10.179688 L 8 15.421875 L 6.007812 15.421875 L 6.007812 10.179688 L 2.507812 10.179688 C 1.140625 10.179688 0 11.324219 0 12.691406 Z M 0 19.320312 "/>
</g>
</svg>
