<?xml version="1.0" encoding="UTF-8"?>
<svg xmlns="http://www.w3.org/2000/svg" xmlns:xlink="http://www.w3.org/1999/xlink" width="32" height="32" viewBox="0 0 32 32" version="1.1">
<g id="surface1">
<path style=" stroke:none;fill-rule:nonzero;fill:rgb(0%,0%,0%);fill-opacity:1;" d="M 6.667969 6.667969 L 6.667969 25.332031 L 25.332031 25.332031 L 25.332031 10.4375 L 21.5625 6.667969 Z M 5.332031 4 L 22.667969 4 L 27.609375 8.941406 C 27.859375 9.191406 28 9.53125 28 9.886719 L 28 26.667969 C 28 27.402344 27.402344 28 26.667969 28 L 5.332031 28 C 4.597656 28 4 27.402344 4 26.667969 L 4 5.332031 C 4 4.597656 4.597656 4 5.332031 4 Z M 16 24 C 13.789062 24 12 22.210938 12 20 C 12 17.789062 13.789062 16 16 16 C 18.210938 16 20 17.789062 20 20 C 20 22.210938 18.210938 24 16 24 Z M 8 8 L 20 8 L 20 13.332031 L 8 13.332031 Z M 8 8 "/>
</g>
</svg>
