<?xml version="1.0" encoding="UTF-8"?>
<svg xmlns="http://www.w3.org/2000/svg" xmlns:xlink="http://www.w3.org/1999/xlink" width="32" height="32" viewBox="0 0 32 32" version="1.1">
<g id="surface1">
<path style=" stroke:none;fill-rule:nonzero;fill:rgb(0%,0%,0%);fill-opacity:1;" d="M 17.332031 2.667969 L 17.332031 4.371094 L 24 6.59375 L 28.84375 4.980469 L 29.6875 7.507812 L 25.644531 8.855469 L 29.773438 20.207031 C 28.316406 21.722656 26.265625 22.667969 24 22.667969 C 21.730469 22.667969 19.683594 21.722656 18.226562 20.207031 L 22.351562 8.855469 L 17.332031 7.183594 L 17.332031 25.332031 L 22.667969 25.332031 L 22.667969 28 L 9.332031 28 L 9.332031 25.332031 L 14.667969 25.332031 L 14.667969 7.183594 L 9.644531 8.855469 L 13.769531 20.207031 C 12.316406 21.722656 10.265625 22.667969 8 22.667969 C 5.730469 22.667969 3.683594 21.722656 2.226562 20.207031 L 6.351562 8.855469 L 2.3125 7.511719 L 3.15625 4.980469 L 8 6.59375 L 14.667969 4.371094 L 14.667969 2.667969 Z M 24 12.136719 L 21.390625 19.320312 C 22.171875 19.761719 23.066406 20 24 20 C 24.933594 20 25.828125 19.761719 26.609375 19.320312 Z M 8 12.136719 L 5.390625 19.320312 C 6.171875 19.761719 7.066406 20 8 20 C 8.933594 20 9.828125 19.761719 10.609375 19.320312 Z M 8 12.136719 "/>
</g>
</svg>
