<?xml version="1.0" encoding="UTF-8"?>
<svg xmlns="http://www.w3.org/2000/svg" xmlns:xlink="http://www.w3.org/1999/xlink" width="32" height="32" viewBox="0 0 32 32" version="1.1">
<g id="surface1">
<path style=" stroke:none;fill-rule:nonzero;fill:rgb(0%,0%,0%);fill-opacity:1;" d="M 17.332031 2.667969 L 17.332031 4 L 26.667969 4 L 26.667969 6.667969 L 17.332031 6.667969 L 17.332031 25.332031 L 22.667969 25.332031 L 22.667969 28 L 9.332031 28 L 9.332031 25.332031 L 14.667969 25.332031 L 14.667969 6.667969 L 5.332031 6.667969 L 5.332031 4 L 14.667969 4 L 14.667969 2.667969 Z M 6.667969 8.457031 L 10.4375 12.230469 C 11.402344 13.191406 12 14.527344 12 16 C 12 18.945312 9.613281 21.332031 6.667969 21.332031 C 3.71875 21.332031 1.332031 18.945312 1.332031 16 C 1.332031 14.527344 1.929688 13.191406 2.894531 12.230469 Z M 25.332031 8.457031 L 29.105469 12.230469 C 30.070312 13.191406 30.667969 14.527344 30.667969 16 C 30.667969 18.945312 28.28125 21.332031 25.332031 21.332031 C 22.386719 21.332031 20 18.945312 20 16 C 20 14.527344 20.597656 13.191406 21.5625 12.230469 Z M 6.667969 12.230469 L 4.78125 14.113281 C 4.28125 14.613281 4 15.28125 4 16 C 4 17.472656 5.191406 18.667969 6.667969 18.667969 C 8.140625 18.667969 9.332031 17.472656 9.332031 16 C 9.332031 15.28125 9.050781 14.613281 8.550781 14.113281 Z M 25.332031 12.230469 L 23.449219 14.113281 C 22.949219 14.613281 22.667969 15.28125 22.667969 16 C 22.667969 17.472656 23.859375 18.667969 25.332031 18.667969 C 26.808594 18.667969 28 17.472656 28 16 C 28 15.28125 27.71875 14.613281 27.21875 14.113281 Z M 25.332031 12.230469 "/>
</g>
</svg>
