<?xml version="1.0" encoding="UTF-8"?>
<svg xmlns="http://www.w3.org/2000/svg" xmlns:xlink="http://www.w3.org/1999/xlink" width="32" height="32" viewBox="0 0 32 32" version="1.1">
<g id="surface1">
<path style=" stroke:none;fill-rule:nonzero;fill:rgb(0%,0%,0%);fill-opacity:1;" d="M 7.5625 5.675781 L 17.886719 16 L 16 17.886719 L 11.40625 13.289062 C 10.191406 15.347656 10.492188 17.957031 12.144531 19.683594 C 13.792969 21.410156 16.386719 21.832031 18.496094 20.710938 C 20.605469 19.59375 21.714844 17.210938 21.210938 14.875 C 20.710938 12.542969 18.71875 10.828125 16.335938 10.675781 L 13.929688 8.269531 C 17.683594 7.265625 21.617188 9.101562 23.257812 12.628906 C 24.894531 16.152344 23.757812 20.347656 20.566406 22.566406 C 17.375 24.785156 13.050781 24.386719 10.3125 21.625 C 7.578125 18.863281 7.226562 14.53125 9.480469 11.363281 L 7.574219 9.457031 C 4.285156 13.699219 4.65625 19.722656 8.445312 23.527344 C 12.234375 27.328125 18.257812 27.722656 22.507812 24.449219 C 26.761719 21.171875 27.917969 15.25 25.210938 10.617188 C 22.503906 5.980469 16.773438 4.082031 11.835938 6.175781 L 9.832031 4.175781 C 11.734375 3.179688 13.851562 2.664062 16 2.667969 C 23.363281 2.667969 29.332031 8.636719 29.332031 16 C 29.332031 23.363281 23.363281 29.332031 16 29.332031 C 8.636719 29.332031 2.667969 23.363281 2.667969 16 C 2.664062 11.996094 4.460938 8.207031 7.5625 5.675781 Z M 7.5625 5.675781 "/>
</g>
</svg>
