<?xml version="1.0" encoding="UTF-8"?>
<svg xmlns="http://www.w3.org/2000/svg" xmlns:xlink="http://www.w3.org/1999/xlink" width="32" height="32" viewBox="0 0 32 32" version="1.1">
<g id="surface1">
<path style=" stroke:none;fill-rule:evenodd;fill:rgb(0%,0%,0%);fill-opacity:1;" d="M 21.519531 12.007812 C 21.570312 12.039062 21.617188 12.078125 21.660156 12.117188 C 21.851562 12.300781 21.964844 12.550781 21.972656 12.816406 C 21.976562 13.082031 21.878906 13.339844 21.695312 13.53125 C 20.234375 15.070312 18.226562 15.96875 16.105469 16.023438 C 13.988281 16.074219 11.933594 15.285156 10.394531 13.824219 C 10 13.445312 9.980469 12.820312 10.351562 12.421875 C 10.535156 12.226562 10.785156 12.117188 11.050781 12.109375 C 11.316406 12.101562 11.574219 12.199219 11.765625 12.382812 C 12.921875 13.480469 14.460938 14.066406 16.050781 14.023438 C 17.640625 13.984375 19.148438 13.308594 20.246094 12.15625 C 20.578125 11.804688 21.113281 11.742188 21.519531 12.007812 Z M 21.519531 12.007812 "/>
<path style=" stroke:none;fill-rule:evenodd;fill:rgb(0%,0%,0%);fill-opacity:1;" d="M 24.414062 14.777344 C 24.464844 14.808594 24.511719 14.84375 24.554688 14.886719 C 24.75 15.070312 24.863281 15.320312 24.867188 15.585938 C 24.875 15.851562 24.777344 16.109375 24.59375 16.300781 C 22.402344 18.609375 19.382812 19.941406 16.199219 20.023438 C 13.019531 20.101562 9.933594 18.910156 7.625 16.71875 C 7.234375 16.335938 7.222656 15.707031 7.601562 15.3125 C 7.984375 14.925781 8.601562 14.910156 8.996094 15.28125 C 10.921875 17.109375 13.492188 18.09375 16.144531 18.023438 C 18.796875 17.957031 21.3125 16.847656 23.140625 14.921875 C 23.472656 14.574219 24.011719 14.511719 24.414062 14.777344 Z M 24.414062 14.777344 "/>
<path style=" stroke:none;fill-rule:evenodd;fill:rgb(0%,0%,0%);fill-opacity:1;" d="M 27.304688 17.523438 C 27.363281 17.558594 27.414062 17.597656 27.460938 17.644531 C 27.652344 17.824219 27.765625 18.078125 27.773438 18.34375 C 27.78125 18.609375 27.679688 18.867188 27.496094 19.058594 C 24.574219 22.132812 20.546875 23.921875 16.304688 24.027344 C 12.066406 24.136719 7.945312 22.546875 4.871094 19.625 C 4.679688 19.441406 4.566406 19.1875 4.558594 18.921875 C 4.550781 18.660156 4.652344 18.402344 4.832031 18.207031 C 5.015625 18.015625 5.269531 17.902344 5.535156 17.898438 C 5.800781 17.890625 6.054688 17.988281 6.25 18.171875 C 8.941406 20.730469 12.539062 22.125 16.25 22.03125 C 19.960938 21.9375 23.488281 20.371094 26.046875 17.679688 C 26.375 17.332031 26.902344 17.269531 27.304688 17.523438 Z M 27.304688 17.523438 "/>
<path style=" stroke:none;fill-rule:evenodd;fill:rgb(0%,0%,0%);fill-opacity:1;" d="M 30.171875 21.949219 C 30.421875 21.554688 30.363281 21.042969 30.035156 20.710938 C 29.847656 20.523438 29.59375 20.417969 29.328125 20.417969 C 29.0625 20.417969 28.808594 20.523438 28.621094 20.710938 C 21.660156 27.671875 10.441406 27.765625 3.375 20.917969 C 3.183594 20.730469 2.925781 20.625 2.660156 20.625 C 2.390625 20.628906 2.136719 20.738281 1.949219 20.929688 C 1.765625 21.121094 1.667969 21.378906 1.671875 21.644531 C 1.679688 21.914062 1.792969 22.164062 1.984375 22.347656 C 9.820312 29.941406 22.320312 29.84375 30.035156 22.125 C 30.089844 22.074219 30.132812 22.015625 30.171875 21.949219 Z M 30.171875 21.949219 "/>
<path style=" stroke:none;fill-rule:evenodd;fill:rgb(0%,0%,0%);fill-opacity:1;" d="M 12.234375 8.023438 L 12.234375 6.023438 C 12.234375 4.917969 13.128906 4.023438 14.234375 4.023438 L 18.234375 4.023438 C 19.339844 4.023438 20.234375 4.917969 20.234375 6.023438 L 20.234375 8.023438 C 20.234375 9.125 19.339844 10.023438 18.234375 10.023438 L 14.234375 10.023438 C 13.128906 10.023438 12.234375 9.125 12.234375 8.023438 Z M 12.234375 8.023438 "/>
</g>
</svg>
