<?xml version="1.0" encoding="UTF-8"?>
<svg xmlns="http://www.w3.org/2000/svg" xmlns:xlink="http://www.w3.org/1999/xlink" width="32" height="32" viewBox="0 0 32 32" version="1.1">
<g id="surface1">
<path style=" stroke:none;fill-rule:nonzero;fill:rgb(0%,0%,0%);fill-opacity:1;" d="M 13.273438 2.945312 C 15.070312 2.570312 16.925781 2.570312 18.726562 2.945312 C 18.96875 4.546875 19.929688 5.949219 21.332031 6.761719 C 22.738281 7.570312 24.433594 7.699219 25.941406 7.109375 C 27.167969 8.480469 28.09375 10.089844 28.667969 11.835938 C 27.402344 12.847656 26.664062 14.378906 26.667969 16 C 26.667969 17.683594 27.449219 19.1875 28.667969 20.164062 C 28.09375 21.910156 27.164062 23.519531 25.941406 24.890625 C 24.433594 24.296875 22.734375 24.425781 21.332031 25.238281 C 19.929688 26.046875 18.972656 27.449219 18.726562 29.050781 C 16.929688 29.429688 15.074219 29.429688 13.273438 29.054688 C 13.03125 27.453125 12.070312 26.046875 10.667969 25.234375 C 9.261719 24.425781 7.566406 24.296875 6.058594 24.890625 C 4.832031 23.519531 3.90625 21.910156 3.332031 20.160156 C 4.597656 19.148438 5.335938 17.617188 5.332031 16 C 5.335938 14.378906 4.597656 12.84375 3.332031 11.832031 C 3.90625 10.089844 4.835938 8.480469 6.058594 7.109375 C 7.566406 7.699219 9.265625 7.574219 10.667969 6.761719 C 12.070312 5.953125 13.027344 4.550781 13.273438 2.949219 Z M 16 20 C 18.210938 20 20 18.210938 20 16 C 20 13.789062 18.210938 12 16 12 C 13.789062 12 12 13.789062 12 16 C 12 18.210938 13.789062 20 16 20 Z M 16 20 "/>
</g>
</svg>
