<?xml version="1.0" encoding="UTF-8"?>
<svg xmlns="http://www.w3.org/2000/svg" xmlns:xlink="http://www.w3.org/1999/xlink" width="32" height="32" viewBox="0 0 32 32" version="1.1">
<g id="surface1">
<path style=" stroke:none;fill-rule:nonzero;fill:rgb(0%,0%,0%);fill-opacity:1;" d="M 11.582031 5.332031 L 15.058594 1.855469 C 15.578125 1.335938 16.421875 1.335938 16.941406 1.855469 L 20.417969 5.332031 L 25.332031 5.332031 C 26.070312 5.332031 26.667969 5.929688 26.667969 6.667969 L 26.667969 11.582031 L 30.144531 15.058594 C 30.664062 15.578125 30.664062 16.421875 30.144531 16.941406 L 26.667969 20.417969 L 26.667969 25.332031 C 26.667969 26.070312 26.070312 26.667969 25.332031 26.667969 L 20.417969 26.667969 L 16.941406 30.144531 C 16.421875 30.664062 15.578125 30.664062 15.058594 30.144531 L 11.582031 26.667969 L 6.667969 26.667969 C 5.929688 26.667969 5.332031 26.070312 5.332031 25.332031 L 5.332031 20.417969 L 1.855469 16.941406 C 1.335938 16.421875 1.335938 15.578125 1.855469 15.058594 L 5.332031 11.582031 L 5.332031 6.667969 C 5.332031 5.929688 5.929688 5.332031 6.667969 5.332031 Z M 16 20 C 18.210938 20 20 18.210938 20 16 C 20 13.789062 18.210938 12 16 12 C 13.789062 12 12 13.789062 12 16 C 12 18.210938 13.789062 20 16 20 Z M 16 20 "/>
</g>
</svg>
