<?xml version="1.0" encoding="UTF-8"?>
<svg xmlns="http://www.w3.org/2000/svg" xmlns:xlink="http://www.w3.org/1999/xlink" width="32" height="32" viewBox="0 0 32 32" version="1.1">
<g id="surface1">
<path style=" stroke:none;fill-rule:nonzero;fill:rgb(0%,0%,0%);fill-opacity:1;" d="M 25.898438 0 C 22.625 0.0546875 20 2.726562 20 6 C 20 6.246094 20.015625 6.492188 20.046875 6.738281 L 10.167969 11.6875 C 9.050781 10.605469 7.554688 10 6 10 C 2.6875 10 0 12.6875 0 16 C 0 19.3125 2.6875 22 6 22 C 7.554688 22 9.046875 21.394531 10.164062 20.316406 L 20.046875 25.257812 C 20.015625 25.503906 20 25.753906 20 26 C 20 29.3125 22.6875 32 26 32 C 29.3125 32 32 29.3125 32 26 C 32 22.6875 29.3125 20 26 20 C 24.445312 20 22.953125 20.605469 21.835938 21.683594 L 11.953125 16.746094 C 11.984375 16.5 12 16.25 12 16 C 12 15.753906 11.984375 15.507812 11.953125 15.261719 L 21.84375 10.324219 C 22.960938 11.398438 24.449219 12 26 12 C 29.3125 12 32 9.3125 32 6 C 32 2.6875 29.3125 0 26 0 C 25.964844 0 25.933594 0 25.898438 0 Z M 25.898438 0 "/>
</g>
</svg>
