<?xml version="1.0" encoding="UTF-8"?>
<svg xmlns="http://www.w3.org/2000/svg" xmlns:xlink="http://www.w3.org/1999/xlink" width="32" height="32" viewBox="0 0 32 32" version="1.1">
<g id="surface1">
<path style=" stroke:none;fill-rule:nonzero;fill:rgb(0%,0%,0%);fill-opacity:1;" d="M 18.101562 23.027344 L 11.289062 19.3125 C 9.460938 21.125 6.511719 21.117188 4.695312 19.296875 C 2.878906 17.472656 2.878906 14.527344 4.695312 12.703125 C 6.511719 10.882812 9.460938 10.875 11.289062 12.6875 L 18.101562 8.972656 C 17.617188 6.707031 18.871094 4.429688 21.042969 3.625 C 23.21875 2.816406 25.652344 3.730469 26.761719 5.761719 C 27.871094 7.796875 27.320312 10.335938 25.46875 11.730469 C 23.617188 13.121094 21.023438 12.945312 19.378906 11.3125 L 12.566406 15.027344 C 12.703125 15.667969 12.703125 16.332031 12.566406 16.972656 L 19.378906 20.6875 C 21.023438 19.054688 23.617188 18.878906 25.46875 20.269531 C 27.320312 21.664062 27.871094 24.203125 26.761719 26.238281 C 25.652344 28.269531 23.21875 29.183594 21.042969 28.375 C 18.871094 27.570312 17.617188 25.292969 18.101562 23.027344 Z M 18.101562 23.027344 "/>
</g>
</svg>
