<?xml version="1.0" encoding="UTF-8"?>
<svg xmlns="http://www.w3.org/2000/svg" xmlns:xlink="http://www.w3.org/1999/xlink" width="32" height="32" viewBox="0 0 32 32" version="1.1">
<g id="surface1">
<path style=" stroke:none;fill-rule:nonzero;fill:rgb(0%,0%,0%);fill-opacity:1;" d="M 5.332031 13.867188 L 5.332031 5.332031 C 5.332031 4.597656 5.929688 4 6.667969 4 L 13.332031 4 L 13.332031 1.332031 L 18.667969 1.332031 L 18.667969 4 L 25.332031 4 C 26.070312 4 26.667969 4.597656 26.667969 5.332031 L 26.667969 13.867188 L 28.113281 14.300781 C 28.796875 14.507812 29.195312 15.210938 29.023438 15.902344 L 27.003906 23.992188 C 26.140625 24.035156 25.28125 23.914062 24.464844 23.628906 L 26.132812 16.492188 L 16 13.332031 L 5.867188 16.492188 L 7.535156 23.628906 C 6.71875 23.914062 5.859375 24.035156 4.996094 23.992188 L 2.976562 15.902344 C 2.804688 15.210938 3.203125 14.507812 3.886719 14.300781 Z M 8 13.066406 L 16 10.667969 L 24 13.066406 L 24 6.667969 L 8 6.667969 Z M 5.332031 26.667969 C 7.300781 26.667969 9.203125 25.945312 10.667969 24.628906 C 12.132812 25.945312 14.03125 26.667969 16 26.667969 C 17.96875 26.667969 19.867188 25.945312 21.332031 24.628906 C 22.796875 25.945312 24.699219 26.667969 26.667969 26.667969 L 29.332031 26.667969 L 29.332031 29.332031 L 26.667969 29.332031 C 24.792969 29.335938 22.953125 28.84375 21.332031 27.90625 C 19.710938 28.84375 17.871094 29.335938 16 29.332031 C 14.128906 29.335938 12.289062 28.84375 10.667969 27.90625 C 9.046875 28.84375 7.207031 29.335938 5.332031 29.332031 L 2.667969 29.332031 L 2.667969 26.667969 Z M 5.332031 26.667969 "/>
</g>
</svg>
