<?xml version="1.0" encoding="UTF-8"?>
<svg xmlns="http://www.w3.org/2000/svg" xmlns:xlink="http://www.w3.org/1999/xlink" width="32" height="32" viewBox="0 0 32 32" version="1.1">
<g id="surface1">
<path style=" stroke:none;fill-rule:nonzero;fill:rgb(0%,0%,0%);fill-opacity:1;" d="M 16 4 C 21.710938 4 26.960938 5.996094 31.078125 9.328125 L 16 28 L 0.921875 9.328125 C 5.039062 5.996094 10.285156 4 16 4 Z M 16 13.332031 C 13.46875 13.332031 11.089844 13.972656 9.011719 15.101562 L 16 23.757812 L 22.988281 15.101562 C 20.910156 13.972656 18.53125 13.332031 16 13.332031 Z M 16 6.667969 C 11.960938 6.667969 8.101562 7.789062 4.773438 9.855469 L 7.3125 13 C 9.867188 11.515625 12.832031 10.667969 16 10.667969 C 19.167969 10.667969 22.132812 11.515625 24.6875 13 L 27.226562 9.851562 C 23.894531 7.789062 20.035156 6.667969 16 6.667969 Z M 16 6.667969 "/>
</g>
</svg>
