<?xml version="1.0" encoding="UTF-8"?>
<svg xmlns="http://www.w3.org/2000/svg" xmlns:xlink="http://www.w3.org/1999/xlink" width="32" height="32" viewBox="0 0 32 32" version="1.1">
<g id="surface1">
<path style=" stroke:none;fill-rule:evenodd;fill:rgb(0%,0%,0%);fill-opacity:1;" d="M 12 0 L 10.183594 7.265625 C 7.363281 9.148438 5.5 12.359375 5.5 16 C 5.5 19.640625 7.363281 22.851562 10.183594 24.734375 L 12 32 L 20 32 L 21.816406 24.734375 C 24.636719 22.851562 26.5 19.640625 26.5 16 C 26.5 12.359375 24.636719 9.148438 21.816406 7.265625 L 20 0 Z M 15.882812 8.5 L 15.886719 8.5 C 15.921875 8.5 15.960938 8.5 15.996094 8.5 C 15.996094 8.5 16 8.5 16 8.5 C 20.148438 8.5 23.5 11.851562 23.5 16 C 23.5 20.148438 20.148438 23.5 16 23.5 C 11.851562 23.5 8.5 20.148438 8.5 16 C 8.5 11.898438 11.78125 8.5625 15.882812 8.5 Z M 15.882812 8.5 "/>
</g>
</svg>
