<?xml version="1.0" encoding="UTF-8"?>
<svg xmlns="http://www.w3.org/2000/svg" xmlns:xlink="http://www.w3.org/1999/xlink" width="32" height="32" viewBox="0 0 32 32" version="1.1">
<g id="surface1">
<path style=" stroke:none;fill-rule:nonzero;fill:rgb(0%,0%,0%);fill-opacity:1;" d="M 8.035156 23.238281 C 3.292969 21.335938 0.566406 16.335938 1.53125 11.320312 C 2.5 6.300781 6.890625 2.671875 12 2.667969 C 16.398438 2.667969 20.347656 5.367188 21.945312 9.464844 C 25.84375 9.097656 29.339844 11.859375 29.890625 15.738281 C 30.441406 19.613281 27.847656 23.238281 24 23.96875 C 23.984375 19.703125 20.628906 16.199219 16.367188 16.003906 C 12.105469 15.808594 8.441406 18.992188 8.035156 23.238281 Z M 17.332031 21.6875 L 19.953125 20.175781 L 21.285156 22.488281 L 18.667969 24 L 21.285156 25.511719 L 19.953125 27.820312 L 17.332031 26.308594 L 17.332031 29.332031 L 14.667969 29.332031 L 14.667969 26.308594 L 12.046875 27.820312 L 10.714844 25.511719 L 13.332031 24 L 10.714844 22.488281 L 12.046875 20.179688 L 14.667969 21.691406 L 14.667969 18.667969 L 17.332031 18.667969 L 17.332031 21.691406 Z M 17.332031 21.6875 "/>
</g>
</svg>
