<?xml version="1.0" encoding="UTF-8"?>
<svg xmlns="http://www.w3.org/2000/svg" xmlns:xlink="http://www.w3.org/1999/xlink" width="32" height="32" viewBox="0 0 32 32" version="1.1">
<g id="surface1">
<path style=" stroke:none;fill-rule:nonzero;fill:rgb(0%,0%,0%);fill-opacity:1;" d="M 6 0 L 2 8 L 4 8 L 4 32 L 8 32 L 8 8 L 10 8 Z M 6 0 "/>
<path style=" stroke:none;fill-rule:evenodd;fill:rgb(0%,0%,0%);fill-opacity:1;" d="M 14 22 L 18 22 C 19.105469 22 20 22.894531 20 24 L 20 28 C 20 29.105469 19.105469 30 18 30 L 14 30 C 12.894531 30 12 29.105469 12 28 L 12 24 C 12 22.894531 12.894531 22 14 22 Z M 14 22 "/>
<path style=" stroke:none;fill-rule:evenodd;fill:rgb(0%,0%,0%);fill-opacity:1;" d="M 14 2 L 28 2 C 29.105469 2 30 2.894531 30 4 L 30 18 C 30 19.105469 29.105469 20 28 20 L 14 20 C 12.894531 20 12 19.105469 12 18 L 12 4 C 12 2.894531 12.894531 2 14 2 Z M 14 2 "/>
</g>
</svg>
