<?xml version="1.0" encoding="UTF-8"?>
<svg xmlns="http://www.w3.org/2000/svg" xmlns:xlink="http://www.w3.org/1999/xlink" width="32" height="32" viewBox="0 0 32 32" version="1.1">
<g id="surface1">
<path style=" stroke:none;fill-rule:nonzero;fill:rgb(0%,0%,0%);fill-opacity:1;" d="M 5.332031 4 L 26.667969 4 C 27.402344 4 28 4.597656 28 5.332031 L 28 26.667969 C 28 27.402344 27.402344 28 26.667969 28 L 5.332031 28 C 4.597656 28 4 27.402344 4 26.667969 L 4 5.332031 C 4 4.597656 4.597656 4 5.332031 4 Z M 16 22.667969 C 12.316406 22.667969 9.332031 19.683594 9.332031 16 C 9.332031 12.316406 12.316406 9.332031 16 9.332031 C 19.683594 9.332031 22.667969 12.316406 22.667969 16 C 22.667969 19.683594 19.683594 22.667969 16 22.667969 Z M 16 25.332031 C 21.15625 25.332031 25.332031 21.15625 25.332031 16 C 25.332031 10.84375 21.15625 6.667969 16 6.667969 C 10.84375 6.667969 6.667969 10.84375 6.667969 16 C 6.667969 21.15625 10.84375 25.332031 16 25.332031 Z M 16 18.667969 C 17.472656 18.667969 18.667969 17.472656 18.667969 16 C 18.667969 14.527344 17.472656 13.332031 16 13.332031 C 14.527344 13.332031 13.332031 14.527344 13.332031 16 C 13.332031 17.472656 14.527344 18.667969 16 18.667969 Z M 16 18.667969 "/>
</g>
</svg>
