<?xml version="1.0" encoding="UTF-8"?>
<svg xmlns="http://www.w3.org/2000/svg" xmlns:xlink="http://www.w3.org/1999/xlink" width="32" height="32" viewBox="0 0 32 32" version="1.1">
<g id="surface1">
<path style=" stroke:none;fill-rule:nonzero;fill:rgb(0%,0%,0%);fill-opacity:1;" d="M 6.667969 6.667969 L 6.667969 25.332031 L 25.332031 25.332031 L 25.332031 6.667969 Z M 5.332031 4 L 26.667969 4 C 27.402344 4 28 4.597656 28 5.332031 L 28 26.667969 C 28 27.402344 27.402344 28 26.667969 28 L 5.332031 28 C 4.597656 28 4 27.402344 4 26.667969 L 4 5.332031 C 4 4.597656 4.597656 4 5.332031 4 Z M 9.332031 10.667969 C 8.597656 10.667969 8 10.070312 8 9.332031 C 8 8.597656 8.597656 8 9.332031 8 C 10.070312 8 10.667969 8.597656 10.667969 9.332031 C 10.667969 10.070312 10.070312 10.667969 9.332031 10.667969 Z M 22.667969 10.667969 C 21.929688 10.667969 21.332031 10.070312 21.332031 9.332031 C 21.332031 8.597656 21.929688 8 22.667969 8 C 23.402344 8 24 8.597656 24 9.332031 C 24 10.070312 23.402344 10.667969 22.667969 10.667969 Z M 22.667969 24 C 21.929688 24 21.332031 23.402344 21.332031 22.667969 C 21.332031 21.929688 21.929688 21.332031 22.667969 21.332031 C 23.402344 21.332031 24 21.929688 24 22.667969 C 24 23.402344 23.402344 24 22.667969 24 Z M 9.332031 24 C 8.597656 24 8 23.402344 8 22.667969 C 8 21.929688 8.597656 21.332031 9.332031 21.332031 C 10.070312 21.332031 10.667969 21.929688 10.667969 22.667969 C 10.667969 23.402344 10.070312 24 9.332031 24 Z M 16 20 C 18.210938 20 20 18.210938 20 16 C 20 13.789062 18.210938 12 16 12 C 13.789062 12 12 13.789062 12 16 C 12 18.210938 13.789062 20 16 20 Z M 16 22.667969 C 12.316406 22.667969 9.332031 19.683594 9.332031 16 C 9.332031 12.316406 12.316406 9.332031 16 9.332031 C 19.683594 9.332031 22.667969 12.316406 22.667969 16 C 22.667969 19.683594 19.683594 22.667969 16 22.667969 Z M 16 17.332031 C 15.261719 17.332031 14.667969 16.738281 14.667969 16 C 14.667969 15.261719 15.261719 14.667969 16 14.667969 C 16.738281 14.667969 17.332031 15.261719 17.332031 16 C 17.332031 16.738281 16.738281 17.332031 16 17.332031 Z M 16 17.332031 "/>
</g>
</svg>
