<?xml version="1.0" encoding="UTF-8"?>
<svg xmlns="http://www.w3.org/2000/svg" xmlns:xlink="http://www.w3.org/1999/xlink" width="32" height="32" viewBox="0 0 32 32" version="1.1">
<g id="surface1">
<path style=" stroke:none;fill-rule:nonzero;fill:rgb(0%,0%,0%);fill-opacity:1;" d="M 16 17.777344 L 3.703125 25.976562 C 3.5 26.113281 3.234375 26.125 3.019531 26.007812 C 2.800781 25.894531 2.667969 25.667969 2.667969 25.421875 L 2.667969 6.578125 C 2.667969 6.332031 2.800781 6.105469 3.019531 5.992188 C 3.234375 5.875 3.5 5.886719 3.703125 6.023438 L 16 14.222656 L 16 6.578125 C 16 6.332031 16.136719 6.105469 16.351562 5.992188 C 16.570312 5.875 16.832031 5.886719 17.035156 6.023438 L 31.167969 15.445312 C 31.351562 15.570312 31.464844 15.777344 31.464844 16 C 31.464844 16.222656 31.351562 16.429688 31.167969 16.554688 L 17.035156 25.976562 C 16.832031 26.113281 16.570312 26.125 16.351562 26.007812 C 16.136719 25.894531 16 25.667969 16 25.421875 Z M 13.859375 16 L 5.332031 10.316406 L 5.332031 21.683594 Z M 18.667969 10.316406 L 18.667969 21.683594 L 27.191406 16 Z M 18.667969 10.316406 "/>
</g>
</svg>
