<?xml version="1.0" encoding="UTF-8"?>
<svg xmlns="http://www.w3.org/2000/svg" xmlns:xlink="http://www.w3.org/1999/xlink" width="32" height="32" viewBox="0 0 32 32" version="1.1">
<g id="surface1">
<path style=" stroke:none;fill-rule:nonzero;fill:rgb(0%,0%,0%);fill-opacity:1;" d="M 26.777344 14 L 28.378906 14.960938 C 28.582031 15.082031 28.703125 15.300781 28.703125 15.535156 C 28.703125 15.769531 28.582031 15.984375 28.378906 16.105469 L 16 23.535156 L 3.621094 16.105469 C 3.417969 15.984375 3.296875 15.769531 3.296875 15.535156 C 3.296875 15.300781 3.417969 15.082031 3.621094 14.960938 L 5.222656 14 L 16 20.464844 Z M 26.777344 20.265625 L 28.378906 21.226562 C 28.582031 21.347656 28.703125 21.566406 28.703125 21.800781 C 28.703125 22.035156 28.582031 22.25 28.378906 22.371094 L 16.6875 29.386719 C 16.265625 29.640625 15.734375 29.640625 15.3125 29.386719 L 3.621094 22.371094 C 3.417969 22.25 3.296875 22.035156 3.296875 21.800781 C 3.296875 21.566406 3.417969 21.347656 3.621094 21.226562 L 5.222656 20.265625 L 16 26.734375 Z M 16.683594 1.746094 L 28.378906 8.761719 C 28.582031 8.882812 28.703125 9.097656 28.703125 9.332031 C 28.703125 9.566406 28.582031 9.785156 28.378906 9.90625 L 16 17.332031 L 3.621094 9.90625 C 3.417969 9.785156 3.296875 9.566406 3.296875 9.332031 C 3.296875 9.097656 3.417969 8.882812 3.621094 8.761719 L 15.3125 1.746094 C 15.734375 1.492188 16.265625 1.492188 16.6875 1.746094 Z M 16.683594 1.746094 "/>
</g>
</svg>
