<?xml version="1.0" encoding="UTF-8"?>
<svg xmlns="http://www.w3.org/2000/svg" xmlns:xlink="http://www.w3.org/1999/xlink" width="32" height="32" viewBox="0 0 32 32" version="1.1">
<g id="surface1">
<path style=" stroke:none;fill-rule:nonzero;fill:rgb(0%,0%,0%);fill-opacity:1;" d="M 13.3125 6.746094 C 14.785156 3.941406 17.671875 2.164062 20.839844 2.109375 C 24.007812 2.058594 26.949219 3.734375 28.519531 6.488281 C 30.085938 9.242188 30.023438 12.632812 28.359375 15.328125 C 30.546875 17.390625 31.257812 20.578125 30.148438 23.371094 C 29.039062 26.164062 26.339844 28 23.332031 28 L 12 28 C 8.035156 27.996094 4.398438 25.792969 2.558594 22.277344 C 0.71875 18.765625 0.980469 14.519531 3.238281 11.261719 C 5.496094 8 9.375 6.261719 13.3125 6.746094 Z M 16.074219 7.472656 C 18.765625 8.585938 20.882812 10.75 21.945312 13.464844 C 23.339844 13.199219 24.785156 13.339844 26.105469 13.875 C 27.382812 11.144531 26.4375 7.894531 23.898438 6.269531 C 21.359375 4.648438 18.011719 5.164062 16.074219 7.472656 Z M 23.332031 25.332031 C 25.453125 25.332031 27.304688 23.90625 27.84375 21.859375 C 28.386719 19.8125 27.480469 17.65625 25.640625 16.609375 C 23.796875 15.5625 21.484375 15.886719 20 17.398438 L 20 17.332031 C 20 12.914062 16.417969 9.332031 12 9.332031 C 7.582031 9.332031 4 12.914062 4 17.332031 C 4 21.75 7.582031 25.332031 12 25.332031 Z M 23.332031 25.332031 "/>
</g>
</svg>
