<?xml version="1.0" encoding="UTF-8"?>
<svg xmlns="http://www.w3.org/2000/svg" xmlns:xlink="http://www.w3.org/1999/xlink" width="32" height="32" viewBox="0 0 32 32" version="1.1">
<g id="surface1">
<path style=" stroke:none;fill-rule:nonzero;fill:rgb(0%,0%,0%);fill-opacity:1;" d="M 8 5.332031 L 8 26.667969 L 24 26.667969 L 24 5.332031 Z M 6.667969 2.667969 L 25.332031 2.667969 C 26.070312 2.667969 26.667969 3.261719 26.667969 4 L 26.667969 28 C 26.667969 28.738281 26.070312 29.332031 25.332031 29.332031 L 6.667969 29.332031 C 5.929688 29.332031 5.332031 28.738281 5.332031 28 L 5.332031 4 C 5.332031 3.261719 5.929688 2.667969 6.667969 2.667969 Z M 16 22.667969 C 16.738281 22.667969 17.332031 23.261719 17.332031 24 C 17.332031 24.738281 16.738281 25.332031 16 25.332031 C 15.261719 25.332031 14.667969 24.738281 14.667969 24 C 14.667969 23.261719 15.261719 22.667969 16 22.667969 Z M 16 22.667969 "/>
</g>
</svg>
