<?xml version="1.0" encoding="UTF-8"?>
<svg xmlns="http://www.w3.org/2000/svg" xmlns:xlink="http://www.w3.org/1999/xlink" width="32" height="32" viewBox="0 0 32 32" version="1.1">
<g id="surface1">
<path style=" stroke:none;fill-rule:nonzero;fill:rgb(0%,0%,0%);fill-opacity:1;" d="M 29.246094 11.15625 L 32 12.222656 C 31.570312 14.144531 30.855469 15.550781 29.855469 16.441406 C 28.855469 17.324219 27.625 17.765625 26.164062 17.765625 C 24.328125 17.765625 22.839844 17.058594 21.699219 15.644531 C 20.386719 14.011719 19.730469 11.808594 19.730469 9.035156 C 19.730469 6.105469 20.390625 3.8125 21.710938 2.15625 C 22.859375 0.71875 24.402344 0 26.339844 0 C 27.917969 0 29.238281 0.539062 30.300781 1.617188 C 31.058594 2.382812 31.613281 3.519531 31.964844 5.027344 L 29.152344 5.847656 C 28.972656 4.917969 28.613281 4.207031 28.074219 3.714844 C 27.542969 3.214844 26.914062 2.964844 26.1875 2.964844 C 25.148438 2.964844 24.300781 3.417969 23.644531 4.324219 C 22.988281 5.230469 22.660156 6.726562 22.660156 8.8125 C 22.660156 10.976562 22.980469 12.515625 23.621094 13.429688 C 24.261719 14.34375 25.09375 14.800781 26.117188 14.800781 C 26.867188 14.800781 27.515625 14.511719 28.0625 13.933594 C 28.609375 13.347656 29.003906 12.421875 29.246094 11.15625 Z M 29.246094 11.15625 "/>
<path style=" stroke:none;fill-rule:evenodd;fill:rgb(0%,0%,0%);fill-opacity:1;" d="M 8 0 C 5.785156 0 4 1.785156 4 4 L 4 15.519531 C 1.5 17.1875 0 19.996094 0 23 C 0 27.96875 4.03125 32 9 32 C 13.96875 32 18 27.96875 18 23 C 18 19.992188 16.5 17.1875 14 15.515625 L 14 4 C 14 1.785156 12.214844 0 10 0 Z M 8 2 L 10 2 C 11.109375 2 12 2.890625 12 4 L 12 16.675781 C 14.441406 17.835938 16 20.296875 16 23 C 16 26.867188 12.867188 30 9 30 C 5.132812 30 2 26.867188 2 23 C 2 20.296875 3.558594 17.835938 6 16.675781 L 6 4 C 6 2.890625 6.890625 2 8 2 Z M 8 4 L 8 18.105469 C 5.671875 18.582031 4.003906 20.625 4 23 C 4 25.761719 6.238281 28 9 28 C 11.761719 28 14 25.761719 14 23 C 14 20.625 12.328125 18.578125 10 18.101562 L 10 4 Z M 8 4 "/>
</g>
</svg>
