<?xml version="1.0" encoding="UTF-8"?>
<svg xmlns="http://www.w3.org/2000/svg" xmlns:xlink="http://www.w3.org/1999/xlink" width="32" height="32" viewBox="0 0 32 32" version="1.1">
<g id="surface1">
<path style=" stroke:none;fill-rule:nonzero;fill:rgb(0%,0%,0%);fill-opacity:1;" d="M 19.464844 10.667969 L 28 10.667969 C 29.472656 10.667969 30.667969 11.859375 30.667969 13.332031 L 30.667969 16.136719 C 30.667969 16.488281 30.597656 16.832031 30.464844 17.15625 L 26.339844 27.175781 C 26.132812 27.675781 25.648438 28 25.105469 28 L 2.667969 28 C 1.929688 28 1.332031 27.402344 1.332031 26.667969 L 1.332031 13.332031 C 1.332031 12.597656 1.929688 12 2.667969 12 L 7.308594 12 C 7.742188 12 8.148438 11.789062 8.398438 11.4375 L 15.667969 1.132812 C 15.859375 0.863281 16.21875 0.773438 16.511719 0.921875 L 18.929688 2.128906 C 20.332031 2.832031 21.058594 4.414062 20.671875 5.933594 Z M 9.332031 14.117188 L 9.332031 25.332031 L 24.214844 25.332031 L 28 16.136719 L 28 13.332031 L 19.464844 13.332031 C 18.644531 13.332031 17.867188 12.953125 17.363281 12.304688 C 16.855469 11.652344 16.679688 10.808594 16.882812 10.007812 L 18.085938 5.277344 C 18.164062 4.976562 18.019531 4.65625 17.738281 4.515625 L 16.855469 4.078125 L 10.578125 12.972656 C 10.242188 13.445312 9.816406 13.832031 9.332031 14.117188 Z M 6.667969 14.667969 L 4 14.667969 L 4 25.332031 L 6.667969 25.332031 Z M 6.667969 14.667969 "/>
</g>
</svg>
