<?xml version="1.0" encoding="UTF-8"?>
<svg xmlns="http://www.w3.org/2000/svg" xmlns:xlink="http://www.w3.org/1999/xlink" width="32" height="32" viewBox="0 0 32 32" version="1.1">
<g id="surface1">
<path style=" stroke:none;fill-rule:nonzero;fill:rgb(0%,0%,0%);fill-opacity:1;" d="M 11.933594 11.382812 C 16.117188 8.191406 22.0625 8.789062 25.527344 12.75 C 28.992188 16.710938 28.792969 22.683594 25.070312 26.402344 C 21.347656 30.125 15.378906 30.324219 11.417969 26.859375 C 7.453125 23.394531 6.855469 17.453125 10.050781 13.265625 L 6.214844 9.433594 L 2.914062 12.734375 L 1.03125 10.847656 L 9.515625 2.363281 L 11.398438 4.246094 L 8.101562 7.546875 Z M 18 26.667969 C 22.050781 26.667969 25.332031 23.382812 25.332031 19.332031 C 25.332031 15.285156 22.050781 12 18 12 C 13.949219 12 10.667969 15.285156 10.667969 19.332031 C 10.667969 23.382812 13.949219 26.667969 18 26.667969 Z M 18 26.667969 "/>
</g>
</svg>
