<?xml version="1.0" encoding="UTF-8"?>
<svg xmlns="http://www.w3.org/2000/svg" xmlns:xlink="http://www.w3.org/1999/xlink" width="32" height="32" viewBox="0 0 32 32" version="1.1">
<g id="surface1">
<path style=" stroke:none;fill-rule:nonzero;fill:rgb(0%,0%,0%);fill-opacity:1;" d="M 13.621094 5.917969 C 13.074219 5.917969 12.628906 6.363281 12.628906 6.910156 L 12.628906 11.910156 L 4.019531 11.910156 C 2.910156 11.910156 2.011719 12.808594 2.011719 13.917969 L 2.011719 16.90625 L 0.0195312 16.90625 L -0.0195312 20.910156 L 2.460938 20.910156 C 3.21875 19.027344 5.085938 17.566406 7.136719 17.519531 C 7.144531 17.519531 7.152344 17.519531 7.160156 17.519531 C 7.195312 17.519531 7.226562 17.519531 7.257812 17.519531 C 9.347656 17.519531 11.28125 18.988281 12.054688 20.90625 L 21.203125 20.90625 C 21.960938 19.023438 23.832031 17.566406 25.878906 17.519531 C 25.886719 17.519531 25.894531 17.519531 25.902344 17.519531 C 25.9375 17.519531 25.96875 17.519531 26 17.519531 C 28.089844 17.519531 30.019531 18.988281 30.792969 20.90625 L 32.019531 20.90625 L 32.019531 16.90625 L 30.019531 16.90625 L 30.019531 13.972656 C 30.019531 12.832031 29.097656 11.910156 27.957031 11.910156 L 26.433594 11.910156 L 20.789062 6.269531 C 20.5625 6.042969 20.257812 5.917969 19.9375 5.917969 Z M 15.582031 8.910156 L 19.582031 8.910156 L 23.113281 12.910156 L 15.582031 12.910156 Z M 7.183594 19.28125 C 5.335938 19.324219 3.859375 20.832031 3.859375 22.679688 C 3.859375 23.582031 4.21875 24.449219 4.855469 25.085938 C 5.492188 25.722656 6.359375 26.082031 7.261719 26.082031 C 9.140625 26.082031 10.660156 24.558594 10.660156 22.679688 C 10.660156 20.804688 9.136719 19.28125 7.261719 19.28125 C 7.234375 19.28125 7.210938 19.28125 7.183594 19.28125 Z M 25.921875 19.28125 C 24.074219 19.324219 22.601562 20.832031 22.601562 22.679688 C 22.601562 24.558594 24.121094 26.082031 26 26.082031 C 27.878906 26.082031 29.398438 24.558594 29.398438 22.679688 C 29.398438 20.804688 27.875 19.28125 26 19.28125 C 25.972656 19.28125 25.949219 19.28125 25.921875 19.28125 Z M 25.921875 19.28125 "/>
</g>
</svg>
