<?xml version="1.0" encoding="UTF-8"?>
<svg xmlns="http://www.w3.org/2000/svg" xmlns:xlink="http://www.w3.org/1999/xlink" width="32" height="32" viewBox="0 0 32 32" version="1.1">
<g id="surface1">
<path style=" stroke:none;fill-rule:nonzero;fill:rgb(0%,0%,0%);fill-opacity:1;" d="M 5.734375 4 L 28 4 L 28 19.601562 L 21.734375 25.867188 L 16.535156 25.867188 L 13.199219 29.066406 L 9.332031 29.066406 L 9.332031 25.867188 L 4 25.867188 L 4 8.265625 Z M 6.667969 23.199219 L 12 23.199219 L 12 26.398438 L 12.125 26.398438 L 15.460938 23.199219 L 20.628906 23.199219 L 25.332031 18.496094 L 25.332031 6.667969 L 6.667969 6.667969 Z M 20 10.667969 L 22.667969 10.667969 L 22.667969 16.933594 L 20 16.933594 Z M 20 10.667969 L 22.667969 10.667969 L 22.667969 16.933594 L 20 16.933594 Z M 13.332031 10.667969 L 16 10.667969 L 16 16.933594 L 13.332031 16.933594 Z M 13.332031 10.667969 "/>
</g>
</svg>
