<?xml version="1.0" encoding="UTF-8"?>
<svg xmlns="http://www.w3.org/2000/svg" xmlns:xlink="http://www.w3.org/1999/xlink" width="32" height="32" viewBox="0 0 32 32" version="1.1">
<g id="surface1">
<path style=" stroke:none;fill-rule:nonzero;fill:rgb(0%,0%,0%);fill-opacity:1;" d="M 23.539062 2.265625 L 19.828125 5.644531 C 21.554688 6.164062 23.144531 7.0625 24.484375 8.273438 C 29.164062 12.542969 29.164062 19.457031 24.484375 23.726562 C 21.027344 26.871094 15.683594 28.875 8.460938 29.734375 L 12.171875 26.355469 C 10.445312 25.835938 8.855469 24.9375 7.515625 23.726562 C 2.835938 19.457031 2.808594 12.566406 7.515625 8.273438 C 10.972656 5.128906 16.316406 3.125 23.539062 2.265625 Z M 16 10.667969 C 12.6875 10.667969 10 13.054688 10 16 C 10 18.945312 12.6875 21.332031 16 21.332031 C 19.3125 21.332031 22 18.945312 22 16 C 22 13.054688 19.3125 10.667969 16 10.667969 Z M 16 10.667969 "/>
</g>
</svg>
