<?xml version="1.0" encoding="UTF-8"?>
<svg xmlns="http://www.w3.org/2000/svg" xmlns:xlink="http://www.w3.org/1999/xlink" width="32" height="32" viewBox="0 0 32 32" version="1.1">
<g id="surface1">
<path style=" stroke:none;fill-rule:nonzero;fill:rgb(0%,0%,0%);fill-opacity:1;" d="M 17.332031 2.734375 C 24.070312 3.402344 29.332031 9.085938 29.332031 16 L 29.332031 17.332031 L 17.332031 17.332031 L 17.332031 25.332031 C 17.332031 26.804688 18.527344 28 20 28 C 21.472656 28 22.667969 26.804688 22.667969 25.332031 L 22.667969 24 L 25.332031 24 L 25.332031 25.332031 C 25.332031 28.277344 22.945312 30.667969 20 30.667969 C 17.054688 30.667969 14.667969 28.277344 14.667969 25.332031 L 14.667969 17.332031 L 2.667969 17.332031 L 2.667969 16 C 2.667969 9.085938 7.929688 3.402344 14.667969 2.734375 L 14.667969 2.667969 C 14.667969 1.929688 15.261719 1.332031 16 1.332031 C 16.738281 1.332031 17.332031 1.929688 17.332031 2.667969 Z M 17.332031 2.734375 "/>
</g>
</svg>
