<?xml version="1.0" encoding="UTF-8"?>
<svg xmlns="http://www.w3.org/2000/svg" xmlns:xlink="http://www.w3.org/1999/xlink" width="32" height="32" viewBox="0 0 32 32" version="1.1">
<defs>
<filter id="alpha" filterUnits="objectBoundingBox" x="0%" y="0%" width="100%" height="100%">
  <feColorMatrix type="matrix" in="SourceGraphic" values="0 0 0 0 1 0 0 0 0 1 0 0 0 0 1 0 0 0 1 0"/>
</filter>
<mask id="mask0">
  <g filter="url(#alpha)">
<rect x="0" y="0" width="32" height="32" style="fill:rgb(0%,0%,0%);fill-opacity:0.996078;stroke:none;"/>
  </g>
</mask>
<clipPath id="clip1">
  <rect x="0" y="0" width="32" height="32"/>
</clipPath>
<g id="surface5" clip-path="url(#clip1)">
<path style=" stroke:none;fill-rule:evenodd;fill:rgb(0%,0%,0%);fill-opacity:1;" d="M 16 0 L 12 8 L 14.5 8 L 14.5 20.082031 L 9.492188 18.824219 L 9.492188 17.660156 C 10.9375 17.046875 12.074219 15.664062 12 14 L 11.992188 13.726562 C 11.929688 10.671875 7.941406 8.851562 5.59375 10.804688 C 3.234375 12.425781 3.601562 16.417969 6.214844 17.578125 C 6.304688 17.628906 6.402344 17.640625 6.496094 17.683594 L 6.496094 21.171875 L 14.5 23.175781 L 14.5 24.328125 C 14.039062 24.515625 13.601562 24.753906 13.242188 25.105469 C 12.113281 26.15625 11.699219 27.882812 12.226562 29.328125 C 12.734375 30.828125 14.207031 31.9375 15.792969 31.996094 C 17.332031 32.09375 18.875 31.199219 19.5625 29.820312 C 19.851562 29.257812 20 28.628906 20 28 C 20.023438 26.425781 19.011719 24.910156 17.558594 24.3125 C 17.539062 24.304688 17.519531 24.304688 17.5 24.296875 L 17.5 23.175781 L 25.496094 21.171875 L 25.496094 18 L 28 18 L 28 10 L 20 10 L 20 18 L 22.5 18 L 22.5 18.824219 L 17.5 20.082031 L 17.5 8 L 20 8 Z M 16 0 "/>
</g>
</defs>
<g id="surface1">
<use xlink:href="#surface5" mask="url(#mask0)"/>
</g>
</svg>
