<?xml version="1.0" encoding="UTF-8"?>
<svg xmlns="http://www.w3.org/2000/svg" xmlns:xlink="http://www.w3.org/1999/xlink" width="32" height="32" viewBox="0 0 32 32" version="1.1">
<g id="surface1">
<path style=" stroke:none;fill-rule:nonzero;fill:rgb(0%,0%,0%);fill-opacity:1;" d="M 15.882812 2.003906 C 11.511719 2.070312 8.003906 5.632812 8.003906 10.003906 C 8.003906 14.421875 11.585938 18.003906 16.003906 18.003906 C 20.421875 18.003906 24.003906 14.421875 24.003906 10.003906 C 24.003906 5.585938 20.421875 2.003906 16.003906 2.003906 C 15.964844 2.003906 15.921875 2.003906 15.882812 2.003906 Z M 26 16 L 26 32 L 28 32 L 28 16 Z M 7.992188 18.9375 C 6.234375 18.941406 4.765625 19.628906 3.679688 20.605469 C 2.589844 21.585938 1.835938 22.824219 1.304688 24.03125 C 0.242188 26.449219 0.00390625 28.832031 0.00390625 28.832031 L -0.113281 29.996094 L 20.003906 29.996094 L 20.003906 21.3125 C 18.71875 21.769531 17.367188 22.003906 16.003906 22.003906 C 13.046875 22.003906 10.195312 20.910156 7.992188 18.9375 Z M 22 20 L 22 32 L 24 32 L 24 20 Z M 30 24 L 30 32 L 32 32 L 32 24 Z M 30 24 "/>
</g>
</svg>
