<?xml version="1.0" encoding="UTF-8"?>
<svg xmlns="http://www.w3.org/2000/svg" xmlns:xlink="http://www.w3.org/1999/xlink" width="32" height="32" viewBox="0 0 32 32" version="1.1">
<g id="surface1">
<path style=" stroke:none;fill-rule:nonzero;fill:rgb(0%,0%,0%);fill-opacity:1;" d="M 21.332031 5.332031 C 22.070312 5.332031 22.667969 5.929688 22.667969 6.667969 L 22.667969 12.265625 L 29.617188 7.398438 C 29.917969 7.1875 30.335938 7.261719 30.546875 7.566406 C 30.625 7.675781 30.667969 7.8125 30.667969 7.945312 L 30.667969 24.054688 C 30.667969 24.421875 30.367188 24.71875 30 24.71875 C 29.863281 24.71875 29.730469 24.675781 29.617188 24.601562 L 22.667969 19.734375 L 22.667969 25.332031 C 22.667969 26.070312 22.070312 26.667969 21.332031 26.667969 L 2.667969 26.667969 C 1.929688 26.667969 1.332031 26.070312 1.332031 25.332031 L 1.332031 6.667969 C 1.332031 5.929688 1.929688 5.332031 2.667969 5.332031 Z M 12 10.667969 L 6.667969 16 L 10.667969 16 L 10.667969 21.332031 L 13.332031 21.332031 L 13.332031 16 L 17.332031 16 Z M 12 10.667969 "/>
</g>
</svg>
