<?xml version="1.0" encoding="UTF-8"?>
<svg xmlns="http://www.w3.org/2000/svg" xmlns:xlink="http://www.w3.org/1999/xlink" width="32" height="32" viewBox="0 0 32 32" version="1.1">
<g id="surface1">
<path style=" stroke:none;fill-rule:nonzero;fill:rgb(0%,0%,0%);fill-opacity:1;" d="M 25.851562 4.214844 L 27.738281 6.101562 L 24.4375 9.398438 L 27.738281 12.699219 L 24.4375 16 L 27.738281 19.300781 L 24.4375 22.601562 L 27.738281 25.902344 L 25.851562 27.785156 L 20.667969 22.601562 L 23.964844 19.300781 L 20.667969 16 L 23.964844 12.699219 L 20.667969 9.398438 Z M 17.183594 4.984375 C 17.28125 5.105469 17.332031 5.253906 17.332031 5.40625 L 17.332031 26.59375 C 17.332031 26.851562 17.183594 27.085938 16.953125 27.195312 C 16.71875 27.304688 16.441406 27.273438 16.242188 27.109375 L 9.1875 21.332031 L 4 21.332031 C 3.261719 21.332031 2.667969 20.738281 2.667969 20 L 2.667969 12 C 2.667969 11.261719 3.261719 10.667969 4 10.667969 L 9.183594 10.667969 L 16.242188 4.890625 C 16.378906 4.777344 16.554688 4.726562 16.734375 4.742188 C 16.910156 4.761719 17.070312 4.847656 17.183594 4.984375 Z M 14.667969 9.625 L 10.136719 13.332031 L 5.332031 13.332031 L 5.332031 18.667969 L 10.136719 18.664062 L 14.667969 22.371094 Z M 14.667969 9.625 "/>
</g>
</svg>
