<?xml version="1.0" encoding="UTF-8"?>
<svg xmlns="http://www.w3.org/2000/svg" xmlns:xlink="http://www.w3.org/1999/xlink" width="32" height="32" viewBox="0 0 32 32" version="1.1">
<g id="surface1">
<path style=" stroke:none;fill-rule:nonzero;fill:rgb(0%,0%,0%);fill-opacity:1;" d="M 26.925781 18.929688 C 26.925781 23.410156 20.886719 27.496094 13.691406 27.496094 C 7.089844 27.492188 1.332031 24.253906 1.332031 19.378906 C 1.332031 16.78125 2.90625 13.929688 5.652344 11.261719 C 9.429688 7.601562 13.957031 5.882812 16.128906 7.996094 C 16.792969 8.640625 17.09375 9.492188 17.089844 10.476562 C 19.722656 9.707031 21.957031 9.9375 23.066406 11.476562 C 23.664062 12.308594 23.777344 13.316406 23.5 14.421875 C 25.515625 15.234375 26.925781 16.78125 26.925781 18.929688 Z M 21.003906 16.167969 C 20.492188 15.621094 20.472656 14.941406 20.742188 14.289062 C 21.019531 13.613281 21.023438 13.207031 20.902344 13.035156 C 20.550781 12.546875 18.855469 12.550781 16.644531 13.449219 C 16.425781 13.542969 16.199219 13.605469 15.964844 13.636719 C 15.503906 13.699219 15.070312 13.636719 14.652344 13.285156 C 14.09375 12.804688 14.019531 12.144531 14.222656 11.53125 C 14.511719 10.636719 14.464844 10.09375 14.273438 9.910156 C 14.023438 9.667969 13.238281 9.65625 12.0625 10.101562 C 10.636719 10.640625 8.996094 11.730469 7.507812 13.175781 C 5.234375 15.386719 4 17.625 4 19.378906 C 4 22.367188 8.367188 24.828125 13.691406 24.828125 C 19.585938 24.828125 24.257812 21.667969 24.257812 18.929688 C 24.257812 17.945312 23.410156 17.144531 22.027344 16.726562 C 21.503906 16.574219 21.3125 16.5 21.003906 16.171875 Z M 30.410156 14.011719 C 30.226562 14.726562 29.5 15.152344 28.785156 14.96875 C 28.074219 14.785156 27.644531 14.058594 27.828125 13.34375 C 28.296875 11.558594 27.804688 9.65625 26.53125 8.320312 C 25.253906 6.980469 23.378906 6.398438 21.570312 6.777344 C 21.101562 6.882812 20.613281 6.726562 20.292969 6.367188 C 19.972656 6.011719 19.867188 5.507812 20.019531 5.054688 C 20.171875 4.597656 20.558594 4.261719 21.03125 4.167969 C 23.738281 3.601562 26.550781 4.476562 28.460938 6.480469 C 30.371094 8.484375 31.109375 11.332031 30.410156 14.011719 Z M 30.410156 14.011719 "/>
</g>
</svg>
