<?xml version="1.0" encoding="UTF-8"?>
<svg xmlns="http://www.w3.org/2000/svg" xmlns:xlink="http://www.w3.org/1999/xlink" width="32" height="32" viewBox="0 0 32 32" version="1.1">
<g id="surface1">
<path style=" stroke:none;fill-rule:nonzero;fill:rgb(0%,0%,0%);fill-opacity:1;" d="M 0.921875 9.328125 C 5.183594 5.875 10.511719 3.992188 16 4 C 21.714844 4 26.960938 5.996094 31.078125 9.328125 L 29.40625 11.402344 C 25.613281 8.332031 20.878906 6.660156 16 6.667969 C 10.921875 6.667969 6.257812 8.441406 2.59375 11.402344 Z M 5.109375 14.515625 C 8.1875 12.019531 12.035156 10.660156 16 10.667969 C 20.125 10.667969 23.914062 12.109375 26.890625 14.515625 L 25.214844 16.589844 C 22.609375 14.476562 19.355469 13.328125 16 13.332031 C 12.507812 13.332031 9.300781 14.554688 6.785156 16.589844 Z M 9.296875 19.703125 C 11.191406 18.167969 13.558594 17.328125 16 17.332031 C 18.539062 17.332031 20.871094 18.21875 22.703125 19.703125 L 21.027344 21.777344 C 19.605469 20.625 17.828125 19.996094 16 20 C 14.097656 20 12.347656 20.664062 10.972656 21.777344 Z M 13.488281 24.890625 C 14.199219 24.3125 15.085938 24 16 24 C 16.953125 24 17.828125 24.332031 18.511719 24.886719 L 16 28 L 13.488281 24.886719 Z M 13.488281 24.890625 "/>
</g>
</svg>
