<?xml version="1.0" encoding="UTF-8"?>
<svg xmlns="http://www.w3.org/2000/svg" xmlns:xlink="http://www.w3.org/1999/xlink" width="32" height="32" viewBox="0 0 32 32" version="1.1">
<g id="surface1">
<path style=" stroke:none;fill-rule:nonzero;fill:rgb(0%,0%,0%);fill-opacity:1;" d="M 13.011719 4.003906 C 12.453125 4 12.003906 4.453125 12.007812 5.007812 L 12.007812 27.003906 C 12.003906 27.558594 12.453125 28.011719 13.011719 28.007812 L 15.664062 28.007812 L 15.664062 23.179688 C 15.664062 22.625 15.800781 22.125 16 21.652344 L 16 8 L 28 8 L 28 10.378906 C 29.488281 10.980469 30.789062 12.007812 31.742188 13.332031 L 31.753906 13.347656 C 31.804688 13.414062 31.847656 13.484375 31.886719 13.554688 L 31.929688 13.625 C 31.9375 13.636719 31.941406 13.644531 31.945312 13.65625 C 31.964844 13.6875 31.976562 13.722656 31.992188 13.753906 L 31.992188 5.007812 C 31.996094 4.457031 31.554688 4.011719 31.007812 4.003906 Z M 13.011719 4.003906 "/>
<path style=" stroke:none;fill-rule:nonzero;fill:rgb(0%,0%,0%);fill-opacity:1;" d="M 0.976562 -0.0078125 C 0.941406 -0.0078125 0.90625 -0.00390625 0.871094 0.00390625 C 0.375 0.0664062 0.00390625 0.492188 0 0.992188 L 0 31.007812 C 0 31.695312 0.679688 32.179688 1.328125 31.953125 L 13.183594 27.800781 C 13.585938 27.664062 13.859375 27.292969 13.863281 26.871094 L 13.953125 5.125 C 13.957031 4.699219 13.6875 4.320312 13.285156 4.179688 L 1.328125 0.046875 C 1.21875 0.0078125 1.097656 -0.0117188 0.976562 -0.0078125 Z M 3.996094 5.4375 L 12 8 L 11.996094 14 L 3.996094 14 Z M 11.996094 17.351562 L 12 24 L 3.996094 26.6875 L 3.996094 18 Z M 11.996094 17.351562 "/>
<path style=" stroke:none;fill-rule:evenodd;fill:rgb(0%,0%,0%);fill-opacity:1;" d="M 25.246094 12.171875 C 23.4375 12.085938 21.535156 12.960938 20.253906 14.707031 L 20.246094 14.71875 L 20.238281 14.726562 C 19.644531 15.566406 19.660156 16.25 19.617188 17.003906 C 19.574219 17.757812 19.601562 18.554688 19.65625 19.308594 C 19.695312 19.886719 19.75 20.355469 19.800781 20.800781 C 18.78125 21.128906 18.042969 22.0625 18.042969 23.1875 L 18.042969 29.480469 C 18.042969 30.875 19.171875 32 20.578125 32 L 29.460938 32 C 30.867188 32 32 30.875 32 29.480469 L 32 23.1875 C 32 22.074219 31.277344 21.148438 30.273438 20.8125 C 30.328125 20.386719 30.386719 19.972656 30.425781 19.449219 C 30.484375 18.707031 30.511719 17.917969 30.464844 17.144531 C 30.417969 16.371094 30.351562 15.636719 29.890625 14.847656 L 29.855469 14.785156 L 29.808594 14.71875 C 28.726562 13.210938 27.054688 12.257812 25.246094 12.171875 Z M 25.097656 15.3125 C 25.839844 15.347656 26.617188 15.78125 27.167969 16.511719 C 27.171875 16.546875 27.265625 16.839844 27.296875 17.328125 C 27.332031 17.875 27.308594 18.566406 27.261719 19.214844 C 27.21875 19.761719 27.160156 20.246094 27.105469 20.667969 L 22.980469 20.667969 C 22.925781 20.199219 22.863281 19.667969 22.820312 19.09375 C 22.773438 18.417969 22.753906 17.71875 22.785156 17.1875 C 22.808594 16.796875 22.925781 16.492188 22.910156 16.46875 C 23.628906 15.550781 24.363281 15.277344 25.097656 15.3125 Z M 25.019531 23.105469 C 26.160156 23.105469 27.082031 24.019531 27.082031 25.152344 C 27.082031 25.914062 26.652344 26.613281 25.972656 26.964844 L 25.972656 28.539062 C 25.972656 29.0625 25.546875 29.480469 25.019531 29.480469 C 24.492188 29.480469 24.066406 29.0625 24.066406 28.539062 L 24.066406 26.964844 C 23.386719 26.613281 22.957031 25.914062 22.957031 25.152344 C 22.957031 24.019531 23.882812 23.105469 25.019531 23.105469 Z M 25.019531 23.105469 "/>
</g>
</svg>
