<?xml version="1.0" encoding="UTF-8"?>
<svg xmlns="http://www.w3.org/2000/svg" xmlns:xlink="http://www.w3.org/1999/xlink" width="32" height="32" viewBox="0 0 32 32" version="1.1">
<g id="surface1">
<path style=" stroke:none;fill-rule:nonzero;fill:rgb(0%,0%,0%);fill-opacity:1;" d="M 27.28125 4.308594 C 27.488281 4.308594 27.691406 4.410156 27.792969 4.511719 C 27.898438 4.707031 27.898438 4.9375 27.792969 5.128906 L 19.691406 19.488281 L 24.820312 28.921875 C 24.921875 29.113281 24.921875 29.347656 24.820312 29.539062 C 24.679688 29.667969 24.496094 29.738281 24.308594 29.742188 L 20.613281 29.742188 C 20.101562 29.742188 19.792969 29.332031 19.589844 29.023438 L 14.359375 19.488281 C 14.667969 19.078125 22.5625 5.027344 22.5625 5.027344 C 22.769531 4.617188 23.078125 4.308594 23.589844 4.308594 Z M 11.898438 9.332031 C 12.410156 9.332031 12.71875 9.742188 12.925781 10.050781 L 15.488281 14.460938 C 15.28125 14.667969 11.488281 21.433594 11.488281 21.433594 C 11.28125 21.742188 10.976562 22.15625 10.460938 22.15625 L 6.871094 22.15625 C 6.679688 22.152344 6.5 22.078125 6.359375 21.949219 C 6.253906 21.757812 6.253906 21.527344 6.359375 21.332031 L 10.152344 14.460938 L 7.691406 10.15625 C 7.589844 9.960938 7.589844 9.730469 7.691406 9.539062 C 7.832031 9.410156 8.015625 9.335938 8.207031 9.332031 Z M 11.898438 9.332031 "/>
</g>
</svg>
