<?xml version="1.0" encoding="UTF-8"?>
<svg xmlns="http://www.w3.org/2000/svg" xmlns:xlink="http://www.w3.org/1999/xlink" width="32" height="32" viewBox="0 0 32 32" version="1.1">
<g id="surface1">
<path style=" stroke:none;fill-rule:nonzero;fill:rgb(0%,0%,0%);fill-opacity:1;" d="M 11.011719 11.011719 C 7.785156 11.738281 5.332031 14.945312 5.332031 18.578125 C 5.332031 22.640625 8.425781 26.035156 12.46875 26.417969 C 16.511719 26.796875 20.183594 24.035156 20.9375 20.042969 C 21.097656 19.195312 21.65625 18.476562 22.441406 18.113281 C 23.085938 17.816406 23.65625 17.484375 24.15625 17.121094 C 23.003906 16.320312 22.574219 14.640625 23.527344 13.34375 C 24.324219 12.269531 24.949219 11.074219 25.382812 9.808594 C 23.8125 10.535156 22.175781 11.101562 20.492188 11.496094 C 18.8125 11.898438 17.300781 10.644531 17.203125 9.078125 C 15.628906 9.839844 13.644531 10.425781 11.015625 11.011719 Z M 25.675781 14.925781 C 27.230469 14.925781 28.230469 14.359375 29.332031 14.144531 C 28.898438 16.074219 27.332031 18.796875 23.558594 20.535156 C 22.554688 25.886719 17.640625 29.589844 12.222656 29.082031 C 6.804688 28.574219 2.664062 24.023438 2.667969 18.582031 C 2.667969 13.71875 5.957031 9.414062 10.433594 8.410156 C 15.660156 7.238281 18.039062 6.324219 19.867188 2.667969 C 20.785156 4.445312 20.785156 6.523438 19.867188 8.902344 C 23.621094 8.007812 26.632812 6.433594 28.898438 4.171875 C 28.898438 10.574219 26.46875 13.753906 25.671875 14.925781 Z M 17.886719 20.167969 C 18.667969 20.363281 18.667969 21.277344 18.667969 21.527344 L 18.667969 22.890625 C 18.667969 23.636719 18.210938 23.921875 17.542969 23.921875 L 10.324219 23.921875 C 9.6875 23.804688 9.34375 23.460938 9.34375 22.882812 L 9.34375 21.617188 C 9.34375 20.984375 9.632812 20.523438 9.921875 20.175781 L 14.121094 15.683594 L 10.035156 15.683594 C 9.632812 15.683594 9.34375 15.398438 9.34375 14.878906 C 9.285156 13.898438 9.457031 12.347656 10.207031 12 C 10.324219 12 10.324219 12.171875 10.324219 12.230469 C 10.207031 12.460938 10.324219 12.632812 10.609375 12.632812 L 15.792969 12.632812 C 16.945312 12.632812 17.632812 12.632812 18.039062 12.519531 C 18.210938 12.460938 18.328125 12.519531 18.269531 12.691406 C 18.152344 13.09375 18.210938 13.554688 18.210938 13.957031 C 18.210938 15.28125 18.210938 15.800781 17.175781 16.835938 L 13.605469 20.753906 L 17.402344 20.75 C 17.824219 20.75 17.890625 20.554688 17.890625 20.167969 Z M 17.886719 20.167969 "/>
</g>
</svg>
