<?xml version="1.0" encoding="UTF-8"?>
<svg xmlns="http://www.w3.org/2000/svg" xmlns:xlink="http://www.w3.org/1999/xlink" width="32" height="32" viewBox="0 0 32 32" version="1.1">
<g id="surface1">
<path style=" stroke:none;fill-rule:nonzero;fill:rgb(0%,0%,0%);fill-opacity:1;" d="M 17.832031 25.195312 L 19.765625 25.195312 L 20.402344 27.378906 L 23.878906 25.195312 L 27.96875 25.195312 L 27.96875 7.191406 L 17.832031 7.191406 Z M 19.890625 9.148438 L 25.910156 9.148438 L 25.910156 23.238281 L 23.601562 23.238281 L 21.292969 24.6875 L 20.875 23.242188 L 19.890625 23.238281 Z M 16.117188 15.429688 L 11.792969 15.429688 C 11.921875 13.40625 11.980469 11.378906 11.976562 9.347656 L 16.207031 9.347656 C 16.207031 9.347656 16.367188 7.484375 15.496094 7.503906 L 8.179688 7.503906 C 8.46875 6.417969 8.832031 5.296875 9.265625 4.136719 C 9.265625 4.136719 7.273438 4.136719 6.597656 5.925781 C 6.316406 6.660156 5.503906 9.492188 4.058594 12.386719 C 4.546875 12.335938 6.15625 12.289062 7.105469 10.550781 C 7.277344 10.0625 7.3125 10 7.527344 9.347656 L 9.914062 9.347656 C 9.914062 10.214844 9.816406 14.882812 9.777344 15.425781 L 5.457031 15.425781 C 4.484375 15.425781 4.167969 17.378906 4.167969 17.378906 L 9.589844 17.378906 C 9.226562 21.507812 7.273438 24.988281 3.734375 27.734375 C 5.425781 28.21875 7.113281 27.65625 7.949219 26.914062 C 7.949219 26.914062 9.847656 25.183594 10.890625 21.183594 L 15.351562 26.558594 C 15.351562 26.558594 16.003906 24.332031 15.25 23.25 C 14.621094 22.511719 12.929688 20.511719 12.207031 19.789062 L 11 20.75 C 11.359375 19.59375 11.574219 18.46875 11.648438 17.382812 L 16.746094 17.382812 C 16.746094 17.382812 16.738281 15.429688 16.117188 15.429688 Z M 16.117188 15.429688 "/>
</g>
</svg>
