<?xml version="1.0" encoding="UTF-8"?>
<svg xmlns="http://www.w3.org/2000/svg" xmlns:xlink="http://www.w3.org/1999/xlink" width="32" height="32" viewBox="0 0 32 32" version="1.1">
<g id="surface1">
<path style=" stroke:none;fill-rule:nonzero;fill:rgb(0%,0%,0%);fill-opacity:1;" d="M 24.042969 22.15625 L 29.753906 27.867188 L 27.867188 29.753906 L 22.15625 24.042969 C 20.03125 25.746094 17.390625 26.671875 14.667969 26.667969 C 8.042969 26.667969 2.667969 21.289062 2.667969 14.667969 C 2.667969 8.042969 8.042969 2.667969 14.667969 2.667969 C 21.289062 2.667969 26.667969 8.042969 26.667969 14.667969 C 26.671875 17.390625 25.746094 20.03125 24.042969 22.15625 Z M 13.332031 13.332031 L 9.332031 13.332031 L 9.332031 16 L 13.332031 16 L 13.332031 20 L 16 20 L 16 16 L 20 16 L 20 13.332031 L 16 13.332031 L 16 9.332031 L 13.332031 9.332031 Z M 13.332031 13.332031 "/>
</g>
</svg>
