<?xml version="1.0" encoding="UTF-8"?>
<svg xmlns="http://www.w3.org/2000/svg" xmlns:xlink="http://www.w3.org/1999/xlink" width="32" height="32" viewBox="0 0 32 32" version="1.1">
<g id="surface1">
<path style=" stroke:none;fill-rule:nonzero;fill:rgb(100%,100%,100%);fill-opacity:1;" d="M 6.667969 20 L 6.667969 22.667969 C 6.667969 24.070312 7.933594 25.332031 9.332031 25.332031 L 13.332031 25.332031 L 13.332031 28 L 9.332031 28 C 6.386719 28 4 25.613281 4 22.667969 L 4 20 Z M 24 13.332031 L 29.867188 28 L 26.992188 28 L 25.390625 24 L 19.9375 24 L 18.339844 28 L 15.46875 28 L 21.332031 13.332031 Z M 22.667969 17.179688 L 21.003906 21.332031 L 24.328125 21.332031 Z M 4 4 L 12 4 C 13.578125 4 15.007812 4.929688 15.648438 6.367188 C 16.292969 7.808594 16.03125 9.492188 14.980469 10.667969 C 16.03125 11.84375 16.292969 13.527344 15.648438 14.964844 C 15.007812 16.40625 13.578125 17.332031 12 17.332031 L 4 17.332031 Z M 12 12 L 6.667969 12 L 6.667969 14.667969 L 12 14.667969 C 12.738281 14.667969 13.332031 14.070312 13.332031 13.332031 C 13.332031 12.597656 12.738281 12 12 12 Z M 22.667969 4 C 25.613281 4 28 6.386719 28 9.332031 L 28 12 L 25.332031 12 L 25.332031 9.332031 C 25.332031 7.859375 24.140625 6.667969 22.667969 6.667969 L 18.667969 6.667969 L 18.667969 4 Z M 12 6.667969 L 6.667969 6.667969 L 6.667969 9.332031 L 12 9.332031 C 12.738281 9.332031 13.332031 8.738281 13.332031 8 C 13.332031 7.261719 12.738281 6.667969 12 6.667969 Z M 12 6.667969 "/>
</g>
</svg>
