<?xml version="1.0" encoding="UTF-8"?>
<svg xmlns="http://www.w3.org/2000/svg" xmlns:xlink="http://www.w3.org/1999/xlink" width="32" height="32" viewBox="0 0 32 32" version="1.1">
<g id="surface1">
<path style=" stroke:none;fill-rule:nonzero;fill:rgb(100%,100%,100%);fill-opacity:1;" d="M 16 2.667969 C 23.359375 2.667969 29.332031 8.640625 29.332031 16 C 29.332031 23.359375 23.359375 29.332031 16 29.332031 C 8.640625 29.332031 2.667969 23.359375 2.667969 16 C 2.667969 8.640625 8.640625 2.667969 16 2.667969 Z M 8.03125 20.554688 C 9.988281 23.476562 12.925781 25.332031 16.214844 25.332031 C 19.5 25.332031 22.4375 23.476562 24.394531 20.554688 C 22.175781 18.480469 19.25 17.328125 16.214844 17.332031 C 13.175781 17.328125 10.25 18.480469 8.03125 20.554688 Z M 16 14.667969 C 18.210938 14.667969 20 12.875 20 10.667969 C 20 8.457031 18.210938 6.667969 16 6.667969 C 13.789062 6.667969 12 8.457031 12 10.667969 C 12 12.875 13.789062 14.667969 16 14.667969 Z M 16 14.667969 "/>
</g>
</svg>
