<?xml version="1.0" encoding="UTF-8"?>
<svg xmlns="http://www.w3.org/2000/svg" xmlns:xlink="http://www.w3.org/1999/xlink" width="32" height="32" viewBox="0 0 32 32" version="1.1">
<g id="surface1">
<path style=" stroke:none;fill-rule:nonzero;fill:rgb(100%,100%,100%);fill-opacity:1;" d="M 16 29.332031 C 9.371094 29.332031 4 23.960938 4 17.332031 C 4 10.707031 9.371094 5.332031 16 5.332031 C 22.628906 5.332031 28 10.707031 28 17.332031 C 28 23.960938 22.628906 29.332031 16 29.332031 Z M 16 26.667969 C 21.15625 26.667969 25.332031 22.488281 25.332031 17.332031 C 25.332031 12.179688 21.15625 8 16 8 C 10.84375 8 6.667969 12.179688 6.667969 17.332031 C 6.667969 22.488281 10.84375 26.667969 16 26.667969 Z M 17.332031 17.332031 L 21.332031 17.332031 L 21.332031 20 L 14.667969 20 L 14.667969 10.667969 L 17.332031 10.667969 Z M 2.328125 8.375 L 7.042969 3.664062 L 8.929688 5.546875 L 4.214844 10.261719 Z M 24.957031 3.664062 L 29.671875 8.375 L 27.785156 10.261719 L 23.070312 5.546875 Z M 24.957031 3.664062 "/>
</g>
</svg>
