<?xml version="1.0" encoding="UTF-8"?>
<svg xmlns="http://www.w3.org/2000/svg" xmlns:xlink="http://www.w3.org/1999/xlink" width="32" height="32" viewBox="0 0 32 32" version="1.1">
<g id="surface1">
<path style=" stroke:none;fill-rule:nonzero;fill:rgb(100%,100%,100%);fill-opacity:1;" d="M 16 2.667969 C 23.359375 2.667969 29.332031 8.640625 29.332031 16 C 29.332031 23.359375 23.359375 29.332031 16 29.332031 C 8.640625 29.332031 2.667969 23.359375 2.667969 16 C 2.667969 8.640625 8.640625 2.667969 16 2.667969 Z M 16 21.332031 C 18.949219 21.332031 21.332031 18.949219 21.332031 16 C 21.332031 13.050781 18.949219 10.667969 16 10.667969 C 13.050781 10.667969 10.667969 13.050781 10.667969 16 C 10.667969 18.949219 13.050781 21.332031 16 21.332031 Z M 16 14.667969 C 16.734375 14.667969 17.332031 15.265625 17.332031 16 C 17.332031 16.734375 16.734375 17.332031 16 17.332031 C 15.265625 17.332031 14.667969 16.734375 14.667969 16 C 14.667969 15.265625 15.265625 14.667969 16 14.667969 Z M 16 14.667969 "/>
</g>
</svg>
