<?xml version="1.0" encoding="UTF-8"?>
<svg xmlns="http://www.w3.org/2000/svg" xmlns:xlink="http://www.w3.org/1999/xlink" width="32" height="32" viewBox="0 0 32 32" version="1.1">
<g id="surface1">
<path style=" stroke:none;fill-rule:nonzero;fill:rgb(100%,100%,100%);fill-opacity:1;" d="M 17.15625 4 L 29.855469 26 C 30.09375 26.414062 30.09375 26.921875 29.855469 27.332031 C 29.617188 27.746094 29.175781 28 28.703125 28 L 3.296875 28 C 2.824219 28 2.382812 27.746094 2.144531 27.332031 C 1.90625 26.921875 1.90625 26.414062 2.144531 26 L 14.84375 4 C 15.082031 3.585938 15.523438 3.332031 16 3.332031 C 16.476562 3.332031 16.917969 3.585938 17.15625 4 Z M 5.609375 25.332031 L 26.390625 25.332031 L 16 7.332031 Z M 14.667969 21.332031 L 17.332031 21.332031 L 17.332031 24 L 14.667969 24 Z M 14.667969 12 L 17.332031 12 L 17.332031 18.667969 L 14.667969 18.667969 Z M 14.667969 12 "/>
</g>
</svg>
