<?xml version="1.0" encoding="UTF-8"?>
<svg xmlns="http://www.w3.org/2000/svg" xmlns:xlink="http://www.w3.org/1999/xlink" width="32" height="32" viewBox="0 0 32 32" version="1.1">
<g id="surface1">
<path style=" stroke:none;fill-rule:nonzero;fill:rgb(100%,100%,100%);fill-opacity:1;" d="M 29.328125 24.308594 C 29.328125 25.277344 28.789062 27.144531 27.574219 28.167969 C 27.332031 28.355469 27.089844 28.25 27.195312 27.976562 C 27.550781 27.113281 28.359375 25.113281 27.980469 24.65625 C 27.710938 24.304688 26.605469 24.332031 25.660156 24.410156 C 25.230469 24.464844 24.851562 24.492188 24.558594 24.550781 C 24.285156 24.574219 24.230469 24.335938 24.503906 24.148438 C 24.851562 23.902344 25.230469 23.714844 25.664062 23.578125 C 27.195312 23.117188 28.96875 23.394531 29.222656 23.6875 C 29.269531 23.742188 29.328125 23.902344 29.328125 24.304688 Z M 26.765625 26.03125 C 26.414062 26.300781 26.042969 26.546875 25.660156 26.765625 C 22.832031 28.464844 19.167969 29.355469 15.984375 29.355469 C 10.859375 29.355469 6.277344 27.464844 2.796875 24.304688 C 2.5 24.0625 2.746094 23.710938 3.097656 23.902344 C 6.84375 26.089844 11.480469 27.410156 16.28125 27.410156 C 19.300781 27.410156 22.558594 26.84375 25.660156 25.628906 C 25.878906 25.546875 26.121094 25.4375 26.332031 25.359375 C 26.820312 25.140625 27.253906 25.683594 26.765625 26.03125 Z M 18.539062 11.324219 C 18.539062 9.9375 18.59375 9.121094 18.132812 8.417969 C 17.726562 7.839844 17.023438 7.496094 16.042969 7.550781 C 14.980469 7.609375 13.835938 8.304688 13.546875 9.585938 C 13.488281 9.878906 13.316406 10.164062 12.964844 10.226562 L 9.714844 9.816406 C 9.484375 9.761719 9.132812 9.585938 9.246094 9.121094 C 9.945312 5.449219 13.078125 4.171875 16.042969 4 L 16.742188 4 C 18.367188 4 20.457031 4.464844 21.792969 5.683594 C 23.417969 7.199219 23.246094 9.234375 23.246094 11.445312 L 23.246094 16.679688 C 23.246094 18.253906 23.882812 18.949219 24.523438 19.765625 C 24.695312 20.058594 24.753906 20.402344 24.460938 20.640625 C 23.824219 21.21875 22.605469 22.265625 21.90625 22.84375 C 21.675781 23.023438 21.257812 23.042969 21.09375 22.90625 C 20.066406 22.046875 19.816406 21.566406 19.179688 20.695312 C 18.074219 21.855469 17.144531 22.496094 16.039062 22.84375 C 15.261719 23.042969 14.464844 23.140625 13.660156 23.132812 C 10.875 23.132812 8.667969 21.394531 8.667969 17.960938 C 8.667969 15.226562 10.121094 13.371094 12.265625 12.492188 C 14.414062 11.613281 17.535156 11.332031 18.539062 11.328125 Z M 17.902344 18.246094 C 18.597656 17.085938 18.539062 16.132812 18.539062 14 C 17.671875 14 16.796875 14.0625 16.042969 14.238281 C 14.652344 14.644531 13.546875 15.519531 13.546875 17.378906 C 13.546875 18.832031 14.300781 19.820312 15.578125 19.820312 C 15.753906 19.820312 15.910156 19.800781 16.042969 19.761719 C 16.9375 19.511719 17.496094 19.066406 17.902344 18.246094 Z M 17.902344 18.246094 "/>
</g>
</svg>
