<?xml version="1.0" encoding="UTF-8"?>
<svg xmlns="http://www.w3.org/2000/svg" xmlns:xlink="http://www.w3.org/1999/xlink" width="32" height="32" viewBox="0 0 32 32" version="1.1">
<g id="surface1">
<path style=" stroke:none;fill-rule:nonzero;fill:rgb(100%,100%,100%);fill-opacity:1;" d="M 2.734375 14.667969 L 9.332031 14.667969 L 9.332031 17.332031 L 5.414062 17.332031 C 6.027344 22.167969 9.832031 25.972656 14.667969 26.585938 L 14.667969 13.164062 C 12.074219 12.488281 10.382812 9.988281 10.722656 7.332031 C 11.058594 4.671875 13.320312 2.675781 16 2.667969 C 18.6875 2.664062 20.957031 4.660156 21.296875 7.328125 C 21.632812 9.996094 19.9375 12.496094 17.332031 13.164062 L 17.332031 26.585938 C 22.167969 25.972656 25.972656 22.167969 26.585938 17.332031 L 22.667969 17.332031 L 22.667969 14.667969 L 29.265625 14.667969 C 29.3125 15.105469 29.332031 15.550781 29.332031 16 C 29.332031 23.363281 23.363281 29.332031 16 29.332031 C 8.636719 29.332031 2.667969 23.363281 2.667969 16 C 2.667969 15.550781 2.6875 15.105469 2.734375 14.667969 Z M 16 10.667969 C 17.472656 10.667969 18.667969 9.472656 18.667969 8 C 18.667969 6.527344 17.472656 5.332031 16 5.332031 C 14.527344 5.332031 13.332031 6.527344 13.332031 8 C 13.332031 9.472656 14.527344 10.667969 16 10.667969 Z M 16 10.667969 "/>
</g>
</svg>
