<?xml version="1.0" encoding="UTF-8"?>
<svg xmlns="http://www.w3.org/2000/svg" xmlns:xlink="http://www.w3.org/1999/xlink" width="32" height="32" viewBox="0 0 32 32" version="1.1">
<g id="surface1">
<path style=" stroke:none;fill-rule:nonzero;fill:rgb(100%,100%,100%);fill-opacity:1;" d="M 16.683594 2.667969 C 18.628906 8.160156 24.230469 11.460938 29.976562 10.503906 C 29.757812 13.105469 27.878906 15.269531 25.332031 15.851562 L 25.332031 25.332031 L 28 25.335938 L 28 28 L 4 28 L 4 25.335938 L 6.667969 25.335938 L 6.667969 15.851562 C 4.121094 15.269531 2.242188 13.105469 2.019531 10.503906 C 7.765625 11.464844 13.375 8.160156 15.316406 2.667969 Z M 22.667969 16 L 9.332031 16 L 9.332031 25.332031 L 22.667969 25.332031 Z M 16 7.101562 L 15.851562 7.308594 C 13.753906 10.1875 10.675781 12.203125 7.199219 12.980469 L 6.722656 13.078125 L 7.621094 13.332031 L 24.382812 13.332031 L 25.273438 13.078125 L 25.261719 13.074219 C 21.601562 12.378906 18.339844 10.316406 16.144531 7.308594 Z M 16 7.101562 "/>
</g>
</svg>
