<?xml version="1.0" encoding="UTF-8"?>
<svg xmlns="http://www.w3.org/2000/svg" xmlns:xlink="http://www.w3.org/1999/xlink" width="32" height="32" viewBox="0 0 32 32" version="1.1">
<g id="surface1">
<path style=" stroke:none;fill-rule:nonzero;fill:rgb(100%,100%,100%);fill-opacity:1;" d="M 20.972656 10.945312 C 20.339844 10.894531 19.664062 11.046875 18.625 11.441406 C 18.714844 11.40625 17.636719 11.828125 17.335938 11.933594 C 16.667969 12.167969 16.117188 12.296875 15.5 12.296875 C 14.886719 12.296875 14.324219 12.171875 13.675781 11.957031 C 13.46875 11.886719 13.261719 11.808594 13.003906 11.707031 C 12.894531 11.664062 12.496094 11.503906 12.40625 11.472656 C 11.542969 11.132812 11.054688 11.003906 10.652344 11.015625 C 9.117188 11.035156 7.660156 11.921875 6.816406 13.390625 C 5.09375 16.382812 6.046875 21.789062 8.566406 25.433594 C 9.90625 27.359375 10.640625 28.046875 10.9375 28.039062 C 11.234375 28.023438 11.449219 27.960938 11.980469 27.738281 L 12.203125 27.644531 C 13.542969 27.070312 14.484375 26.820312 15.898438 26.820312 C 17.261719 26.820312 18.167969 27.066406 19.457031 27.621094 L 19.679688 27.71875 C 20.210938 27.945312 20.402344 27.996094 20.734375 27.988281 C 21.214844 27.980469 21.800781 27.429688 23.105469 25.515625 C 23.464844 24.992188 23.78125 24.445312 24.054688 23.886719 C 23.875 23.738281 23.699219 23.585938 23.53125 23.425781 C 21.8125 21.789062 20.75 19.578125 20.71875 16.851562 C 20.691406 14.832031 21.355469 12.867188 22.601562 11.277344 C 22.078125 11.085938 21.527344 10.972656 20.972656 10.945312 Z M 21.179688 8.285156 C 22.121094 8.347656 24.828125 8.636719 26.585938 11.214844 C 26.441406 11.292969 23.355469 13.085938 23.386719 16.828125 C 23.433594 21.308594 27.308594 22.796875 27.355469 22.8125 C 27.324219 22.925781 26.730469 24.941406 25.308594 27.019531 C 24.074219 28.828125 22.792969 30.621094 20.777344 30.652344 C 18.792969 30.703125 18.15625 29.484375 15.898438 29.484375 C 13.625 29.484375 12.921875 30.621094 11.050781 30.703125 C 9.097656 30.765625 7.625 28.75 6.378906 26.957031 C 3.835938 23.277344 1.898438 16.589844 4.507812 12.0625 C 5.800781 9.804688 8.105469 8.382812 10.617188 8.347656 C 12.523438 8.300781 14.332031 9.628906 15.5 9.628906 C 16.652344 9.628906 18.714844 8.09375 21.179688 8.285156 Z M 19.660156 5.851562 C 18.617188 7.101562 16.921875 8.078125 15.273438 7.949219 C 15.050781 6.253906 15.882812 4.476562 16.84375 3.375 C 17.914062 2.125 19.707031 1.199219 21.195312 1.132812 C 21.386719 2.863281 20.699219 4.605469 19.660156 5.851562 Z M 19.660156 5.851562 "/>
</g>
</svg>
