<?xml version="1.0" encoding="UTF-8"?>
<svg xmlns="http://www.w3.org/2000/svg" xmlns:xlink="http://www.w3.org/1999/xlink" width="32" height="32" viewBox="0 0 32 32" version="1.1">
<g id="surface1">
<path style=" stroke:none;fill-rule:nonzero;fill:rgb(100%,100%,100%);fill-opacity:1;" d="M 23.332031 2.667969 C 25.835938 2.667969 28.078125 4.222656 28.953125 6.566406 C 29.828125 8.910156 29.15625 11.554688 27.269531 13.195312 C 27.742188 14.484375 28 15.878906 28 17.332031 C 27.996094 22.125 25.144531 26.457031 20.742188 28.351562 C 16.335938 30.242188 11.230469 29.335938 7.75 26.039062 C 4.269531 22.746094 3.082031 17.695312 4.734375 13.195312 C 2.949219 11.644531 2.242188 9.191406 2.925781 6.929688 C 3.613281 4.664062 5.5625 3.015625 7.90625 2.714844 C 10.25 2.414062 12.554688 3.519531 13.789062 5.539062 C 15.25 5.265625 16.75 5.265625 18.214844 5.539062 C 19.304688 3.753906 21.242188 2.664062 23.332031 2.667969 Z M 13.332031 17.332031 L 10.667969 17.332031 C 10.667969 20.226562 12.972656 22.59375 15.867188 22.664062 C 18.757812 22.738281 21.183594 20.488281 21.328125 17.601562 L 21.332031 17.332031 L 18.667969 17.332031 C 18.671875 18.773438 17.539062 19.957031 16.101562 20.011719 C 14.664062 20.0625 13.441406 18.96875 13.339844 17.535156 Z M 13.332031 17.332031 "/>
</g>
</svg>
