<?xml version="1.0" encoding="UTF-8"?>
<svg xmlns="http://www.w3.org/2000/svg" xmlns:xlink="http://www.w3.org/1999/xlink" width="32" height="32" viewBox="0 0 32 32" version="1.1">
<g id="surface1">
<path style=" stroke:none;fill-rule:nonzero;fill:rgb(100%,100%,100%);fill-opacity:1;" d="M 9.5625 3.675781 L 13.886719 8 L 18.113281 8 L 22.4375 3.675781 C 22.957031 3.15625 23.804688 3.15625 24.324219 3.675781 C 24.84375 4.199219 24.84375 5.042969 24.324219 5.5625 L 21.886719 8 L 24.667969 8 C 27.242188 8 29.332031 10.089844 29.332031 12.667969 L 29.332031 23.332031 C 29.332031 25.910156 27.242188 28 24.667969 28 L 7.332031 28 C 4.757812 28 2.667969 25.910156 2.667969 23.332031 L 2.667969 12.667969 C 2.667969 10.089844 4.757812 8 7.332031 8 L 10.113281 8 L 7.675781 5.5625 C 7.15625 5.039062 7.15625 4.195312 7.675781 3.675781 C 8.195312 3.152344 9.042969 3.152344 9.5625 3.675781 Z M 24.667969 10.667969 L 7.332031 10.667969 C 6.304688 10.667969 5.441406 11.449219 5.34375 12.476562 L 5.332031 12.667969 L 5.332031 23.332031 C 5.332031 24.363281 6.117188 25.226562 7.140625 25.324219 L 7.332031 25.332031 L 24.667969 25.332031 C 25.695312 25.332031 26.558594 24.550781 26.65625 23.523438 L 26.667969 23.332031 L 26.667969 12.667969 C 26.667969 11.5625 25.769531 10.667969 24.667969 10.667969 Z M 10.667969 14.667969 C 11.402344 14.667969 12 15.261719 12 16 L 12 18.667969 C 12 19.402344 11.402344 20 10.667969 20 C 9.929688 20 9.332031 19.402344 9.332031 18.667969 L 9.332031 16 C 9.332031 15.261719 9.929688 14.667969 10.667969 14.667969 Z M 21.332031 14.667969 C 22.070312 14.667969 22.667969 15.261719 22.667969 16 L 22.667969 18.667969 C 22.667969 19.402344 22.070312 20 21.332031 20 C 20.597656 20 20 19.402344 20 18.667969 L 20 16 C 20 15.261719 20.597656 14.667969 21.332031 14.667969 Z M 21.332031 14.667969 "/>
</g>
</svg>
