<?xml version="1.0" encoding="UTF-8"?>
<svg xmlns="http://www.w3.org/2000/svg" xmlns:xlink="http://www.w3.org/1999/xlink" width="32" height="32" viewBox="0 0 32 32" version="1.1">
<g id="surface1">
<path style=" stroke:none;fill-rule:nonzero;fill:rgb(100%,100%,100%);fill-opacity:1;" d="M 10.667969 14.667969 L 16.667969 14.667969 C 18.507812 14.667969 20 13.175781 20 11.332031 C 20 9.492188 18.507812 8 16.667969 8 L 10.667969 8 Z M 24 20.667969 C 24 23.980469 21.3125 26.667969 18 26.667969 L 8 26.667969 L 8 5.332031 L 16.667969 5.332031 C 19.066406 5.332031 21.238281 6.765625 22.183594 8.972656 C 23.128906 11.179688 22.664062 13.738281 21.007812 15.476562 C 22.859375 16.546875 24 18.527344 24 20.667969 Z M 10.667969 17.332031 L 10.667969 24 L 18 24 C 19.839844 24 21.332031 22.507812 21.332031 20.667969 C 21.332031 18.824219 19.839844 17.332031 18 17.332031 Z M 10.667969 17.332031 "/>
</g>
</svg>
