<?xml version="1.0" encoding="UTF-8"?>
<svg xmlns="http://www.w3.org/2000/svg" xmlns:xlink="http://www.w3.org/1999/xlink" width="32" height="32" viewBox="0 0 32 32" version="1.1">
<g id="surface1">
<path style=" stroke:none;fill-rule:nonzero;fill:rgb(100%,100%,100%);fill-opacity:1;" d="M 22 2.667969 C 26.050781 2.667969 29.332031 5.949219 29.332031 10 L 29.332031 13.332031 C 29.332031 14.515625 28.820312 15.582031 28 16.3125 L 28 22.667969 C 28 24.363281 26.929688 25.875 25.332031 26.4375 L 25.332031 28 C 25.332031 28.738281 24.738281 29.332031 24 29.332031 L 8 29.332031 C 7.261719 29.332031 6.667969 28.738281 6.667969 28 L 6.667969 26.441406 C 5.066406 25.875 4 24.363281 4 22.667969 L 4 8 C 4 5.054688 6.386719 2.667969 9.332031 2.667969 Z M 12.667969 14.667969 L 6.667969 14.667969 L 6.667969 22.667969 C 6.667969 23.34375 7.171875 23.910156 7.84375 23.992188 L 8 24 L 24 24 C 24.675781 24 25.246094 23.492188 25.324219 22.824219 L 25.332031 22.667969 L 25.332031 17.332031 L 17.285156 17.332031 C 16.953125 19.628906 14.988281 21.332031 12.667969 21.332031 L 8 21.332031 L 8 18.667969 L 12.667969 18.667969 C 13.695312 18.667969 14.558594 17.882812 14.65625 16.859375 L 14.667969 16.667969 C 14.667969 15.636719 13.882812 14.773438 12.859375 14.675781 Z M 22 5.332031 L 9.332031 5.332031 C 7.9375 5.332031 6.777344 6.410156 6.671875 7.800781 L 6.667969 8 L 6.667969 12 L 12.667969 12 C 14.46875 12 16.113281 13.039062 16.882812 14.667969 L 25.332031 14.667969 C 26.007812 14.667969 26.578125 14.160156 26.65625 13.488281 L 26.667969 13.332031 L 26.667969 10 C 26.667969 7.523438 24.730469 5.476562 22.257812 5.339844 Z M 22 5.332031 "/>
</g>
</svg>
