<?xml version="1.0" encoding="UTF-8"?>
<svg xmlns="http://www.w3.org/2000/svg" xmlns:xlink="http://www.w3.org/1999/xlink" width="32" height="32" viewBox="0 0 32 32" version="1.1">
<g id="surface1">
<path style=" stroke:none;fill-rule:nonzero;fill:rgb(100%,100%,100%);fill-opacity:1;" d="M 26.667969 14.667969 L 26.667969 10.667969 L 18.667969 10.667969 L 18.667969 5.332031 L 13.332031 5.332031 L 13.332031 10.667969 L 5.332031 10.667969 L 5.332031 14.667969 Z M 28 17.332031 L 28 28 C 28 28.738281 27.402344 29.332031 26.667969 29.332031 L 13.332031 29.332031 L 13.332031 21.332031 L 10.667969 21.332031 L 10.667969 29.332031 L 5.332031 29.332031 C 4.597656 29.332031 4 28.738281 4 28 L 4 17.332031 L 2.667969 17.332031 L 2.667969 9.332031 C 2.667969 8.597656 3.261719 8 4 8 L 10.667969 8 L 10.667969 4 C 10.667969 3.261719 11.261719 2.667969 12 2.667969 L 20 2.667969 C 20.738281 2.667969 21.332031 3.261719 21.332031 4 L 21.332031 8 L 28 8 C 28.738281 8 29.332031 8.597656 29.332031 9.332031 L 29.332031 17.332031 Z M 28 17.332031 "/>
</g>
</svg>
