<?xml version="1.0" encoding="UTF-8"?>
<svg xmlns="http://www.w3.org/2000/svg" xmlns:xlink="http://www.w3.org/1999/xlink" width="32" height="32" viewBox="0 0 32 32" version="1.1">
<g id="surface1">
<path style=" stroke:none;fill-rule:nonzero;fill:rgb(100%,100%,100%);fill-opacity:1;" d="M 12 6.667969 L 12 15.03125 L 9.332031 15.03125 L 9.332031 6.667969 L 6.667969 6.667969 L 6.667969 18.667969 L 25.332031 18.667969 L 25.332031 6.667969 Z M 26.667969 21.332031 L 5.332031 21.332031 L 5.332031 24 L 26.667969 24 Z M 4 18.667969 L 4 5.332031 C 4 4.597656 4.597656 4 5.332031 4 L 26.667969 4 C 27.402344 4 28 4.597656 28 5.332031 L 28 18.667969 L 29.332031 18.667969 L 29.332031 25.332031 C 29.332031 26.070312 28.738281 26.667969 28 26.667969 L 17.332031 26.667969 L 17.332031 30.667969 L 14.667969 30.667969 L 14.667969 26.667969 L 4 26.667969 C 3.261719 26.667969 2.667969 26.070312 2.667969 25.332031 L 2.667969 18.667969 Z M 4 18.667969 "/>
</g>
</svg>
