<?xml version="1.0" encoding="UTF-8"?>
<svg xmlns="http://www.w3.org/2000/svg" xmlns:xlink="http://www.w3.org/1999/xlink" width="32" height="32" viewBox="0 0 32 32" version="1.1">
<g id="surface1">
<path style=" stroke:none;fill-rule:nonzero;fill:rgb(100%,100%,100%);fill-opacity:1;" d="M 21.332031 21.332031 C 23.542969 21.332031 25.332031 23.125 25.332031 25.332031 C 25.332031 27.542969 23.542969 29.332031 21.332031 29.332031 C 19.125 29.332031 17.332031 27.542969 17.332031 25.332031 C 17.332031 23.125 19.125 21.332031 21.332031 21.332031 Z M 8 16 C 10.945312 16 13.332031 18.386719 13.332031 21.332031 C 13.332031 24.28125 10.945312 26.667969 8 26.667969 C 5.054688 26.667969 2.667969 24.28125 2.667969 21.332031 C 2.667969 18.386719 5.054688 16 8 16 Z M 19.332031 2.667969 C 23.382812 2.667969 26.667969 5.949219 26.667969 10 C 26.667969 14.050781 23.382812 17.332031 19.332031 17.332031 C 15.28125 17.332031 12 14.050781 12 10 C 12 5.949219 15.28125 2.667969 19.332031 2.667969 Z M 19.332031 2.667969 "/>
</g>
</svg>
