<?xml version="1.0" encoding="UTF-8"?>
<svg xmlns="http://www.w3.org/2000/svg" xmlns:xlink="http://www.w3.org/1999/xlink" width="32" height="32" viewBox="0 0 32 32" version="1.1">
<g id="surface1">
<path style=" stroke:none;fill-rule:evenodd;fill:rgb(100%,100%,100%);fill-opacity:1;" d="M 16.074219 2.6875 C 10.574219 2.679688 6.09375 4.894531 6.046875 7.644531 C 6.046875 7.660156 6.042969 7.671875 6.042969 7.6875 L 6.042969 11.019531 L 5.5 11.300781 C 3.324219 12.402344 1.792969 13.820312 1.128906 15.507812 C 0.949219 16.066406 0.777344 16.835938 0.777344 17.226562 L 0.777344 20.097656 L 0.773438 20.097656 L 0.773438 21.089844 C 0.773438 22.730469 1.644531 24.25 3.019531 25.457031 C 4.394531 26.664062 6.308594 27.617188 8.613281 28.292969 C 13.226562 29.644531 18.777344 29.644531 23.390625 28.292969 C 25.695312 27.617188 27.597656 26.664062 28.972656 25.457031 C 30.347656 24.25 31.21875 22.730469 31.21875 21.089844 L 31.21875 20.097656 C 31.265625 19.210938 31.277344 18.046875 31.25 17.28125 C 31.261719 16.679688 31.105469 16.082031 30.878906 15.507812 C 30.214844 13.820312 28.683594 12.402344 26.507812 11.300781 L 26.042969 11.0625 L 26.042969 7.6875 C 26.042969 4.933594 21.59375 2.699219 16.089844 2.6875 Z M 8.042969 10.6875 C 9.902344 11.929688 12.8125 12.667969 15.914062 12.6875 C 19.105469 12.707031 22.128906 11.964844 24.042969 10.6875 L 24.042969 15.6875 L 24.066406 15.6875 C 24.050781 15.75 24.042969 15.816406 24.042969 15.878906 C 24.019531 16.597656 23.347656 17.476562 21.886719 18.195312 C 20.425781 18.914062 18.300781 19.386719 15.964844 19.375 C 13.628906 19.363281 11.535156 18.867188 10.105469 18.136719 C 8.675781 17.40625 8.039062 16.535156 8.039062 15.816406 C 8.039062 15.773438 8.035156 15.730469 8.027344 15.6875 L 8.042969 15.6875 Z M 6.042969 13.28125 L 6.042969 15.6875 L 6.054688 15.6875 C 6.046875 15.730469 6.042969 15.773438 6.042969 15.816406 C 6.042969 17.597656 7.394531 19.003906 9.191406 19.921875 C 10.988281 20.839844 13.359375 21.371094 15.964844 21.382812 C 18.570312 21.394531 20.953125 20.878906 22.773438 19.980469 C 24.59375 19.082031 25.988281 17.71875 26.050781 15.9375 C 26.054688 15.851562 26.046875 15.769531 26.027344 15.6875 L 26.042969 15.6875 L 26.042969 13.328125 C 27.648438 14.230469 28.640625 15.273438 29.015625 16.230469 C 29.425781 17.277344 29.292969 18.261719 28.367188 19.390625 C 26.519531 21.648438 21.542969 23.464844 15.996094 23.464844 C 10.449219 23.464844 5.484375 21.648438 3.636719 19.390625 C 2.710938 18.261719 2.578125 17.277344 2.988281 16.230469 C 3.371094 15.257812 4.386719 14.195312 6.042969 13.28125 Z M 2.824219 21.402344 C 5.585938 24.035156 10.542969 25.457031 15.996094 25.457031 C 21.445312 25.457031 26.417969 24.035156 29.183594 21.40625 C 29.085938 22.246094 28.617188 23.113281 27.660156 23.953125 C 26.582031 24.902344 24.925781 25.761719 22.832031 26.375 C 18.644531 27.601562 13.363281 27.601562 9.175781 26.375 C 7.082031 25.761719 5.425781 24.902344 4.347656 23.953125 C 3.386719 23.109375 2.921875 22.242188 2.824219 21.402344 Z M 2.824219 21.402344 "/>
</g>
</svg>
