<?xml version="1.0" encoding="UTF-8"?>
<svg xmlns="http://www.w3.org/2000/svg" xmlns:xlink="http://www.w3.org/1999/xlink" width="32" height="32" viewBox="0 0 32 32" version="1.1">
<g id="surface1">
<path style=" stroke:none;fill-rule:evenodd;fill:rgb(100%,100%,100%);fill-opacity:1;" d="M 4.335938 0.00390625 C 1.953125 0.00390625 0 1.824219 0 4.046875 L 0 20 C 0 22.222656 1.953125 24.042969 4.335938 24.042969 L 12.839844 24.042969 L 12.742188 25.558594 L 15.371094 24.042969 L 18.179688 24.042969 L 21.628906 30.019531 L 31.433594 24.363281 L 30.601562 22.925781 C 31.449219 22.191406 31.996094 21.160156 31.996094 20 L 31.996094 14.0625 C 31.996094 14.046875 32 14.03125 32 14.015625 L 32 6.082031 C 32 6.070312 31.996094 6.058594 31.996094 6.046875 L 31.996094 4.046875 C 31.996094 1.824219 30.042969 0.00390625 27.660156 0.00390625 Z M 16.726562 10.234375 L 25.628906 14.648438 L 23.179688 16.066406 L 27.328125 23.269531 L 22.722656 25.929688 L 18.574219 18.722656 L 17.273438 19.476562 L 16.09375 20.15625 Z M 2.074219 18.425781 C 3.230469 19.425781 4.765625 20.050781 6.472656 20.050781 L 13.097656 20.050781 L 12.964844 22.125 L 4.335938 22.125 C 3.066406 22.125 2.074219 21.191406 2.074219 20 Z M 29.921875 18.429688 L 29.921875 20 C 29.921875 20.421875 29.765625 20.785156 29.546875 21.105469 L 28.519531 19.324219 C 29.027344 19.078125 29.503906 18.789062 29.921875 18.429688 Z M 29.921875 18.429688 "/>
</g>
</svg>
