<?xml version="1.0" encoding="UTF-8"?>
<svg xmlns="http://www.w3.org/2000/svg" xmlns:xlink="http://www.w3.org/1999/xlink" width="32" height="32" viewBox="0 0 32 32" version="1.1">
<g id="surface1">
<path style=" stroke:none;fill-rule:nonzero;fill:rgb(100%,100%,100%);fill-opacity:1;" d="M 12 4 L 20 4 L 22.667969 6.667969 L 28 6.667969 C 28.738281 6.667969 29.332031 7.261719 29.332031 8 L 29.332031 26.667969 C 29.332031 27.402344 28.738281 28 28 28 L 4 28 C 3.261719 28 2.667969 27.402344 2.667969 26.667969 L 2.667969 8 C 2.667969 7.261719 3.261719 6.667969 4 6.667969 L 9.332031 6.667969 Z M 19.578125 24.492188 L 18.386719 22.105469 C 16.730469 22.929688 14.769531 22.84375 13.195312 21.871094 C 11.625 20.898438 10.667969 19.183594 10.667969 17.332031 L 13.335938 17.332031 L 10.453125 11.570312 C 7.601562 14.308594 7.179688 18.722656 9.460938 21.953125 C 11.746094 25.179688 16.042969 26.257812 19.578125 24.488281 Z M 12.421875 10.175781 L 13.613281 12.5625 C 15.269531 11.734375 17.230469 11.824219 18.804688 12.796875 C 20.375 13.769531 21.332031 15.484375 21.332031 17.332031 L 18.664062 17.332031 L 21.546875 23.097656 C 24.398438 20.355469 24.816406 15.945312 22.535156 12.714844 C 20.253906 9.484375 15.957031 8.40625 12.421875 10.175781 Z M 12.421875 10.175781 "/>
</g>
</svg>
