<?xml version="1.0" encoding="UTF-8"?>
<svg xmlns="http://www.w3.org/2000/svg" xmlns:xlink="http://www.w3.org/1999/xlink" width="32" height="32" viewBox="0 0 32 32" version="1.1">
<g id="surface1">
<path style=" stroke:none;fill-rule:evenodd;fill:rgb(100%,100%,100%);fill-opacity:1;" d="M 2.996094 2.003906 C 1.351562 2.003906 0 3.355469 0 5 L 0 27 C 0 28.644531 1.351562 29.996094 2.996094 29.996094 L 29.003906 29.996094 C 30.648438 29.996094 32 28.644531 32 27 L 32 5 C 32 3.355469 30.648438 2.003906 29.003906 2.003906 Z M 2.996094 3.996094 L 29.003906 3.996094 C 29.574219 3.996094 30.007812 4.429688 30.007812 5 L 30.007812 27 C 30.007812 27.570312 29.574219 28.003906 29.003906 28.003906 L 2.996094 28.003906 C 2.425781 28.003906 2.007812 27.570312 2.007812 27 L 2.007812 5 C 2.007812 4.429688 2.425781 3.996094 2.996094 3.996094 Z M 2.996094 3.996094 "/>
<path style=" stroke:none;fill-rule:evenodd;fill:rgb(100%,100%,100%);fill-opacity:1;" d="M 6.300781 16.417969 C 6.292969 16.367188 6.285156 16.3125 6.285156 16.261719 C 6.285156 16.027344 6.378906 15.800781 6.542969 15.636719 C 6.710938 15.46875 6.933594 15.378906 7.167969 15.378906 C 9.039062 15.378906 10.835938 16.117188 12.15625 17.4375 C 13.480469 18.761719 14.222656 20.558594 14.222656 22.429688 C 14.222656 22.910156 13.835938 23.300781 13.351562 23.308594 C 13.117188 23.308594 12.894531 23.21875 12.726562 23.050781 C 12.5625 22.886719 12.46875 22.660156 12.46875 22.425781 C 12.46875 21.023438 11.90625 19.683594 10.914062 18.6875 C 9.921875 17.695312 8.574219 17.144531 7.167969 17.144531 C 6.742188 17.144531 6.378906 16.839844 6.300781 16.417969 Z M 6.300781 16.417969 "/>
<path style=" stroke:none;fill-rule:evenodd;fill:rgb(100%,100%,100%);fill-opacity:1;" d="M 6.3125 12.882812 C 6.300781 12.832031 6.296875 12.777344 6.296875 12.726562 C 6.296875 12.492188 6.386719 12.265625 6.554688 12.101562 C 6.71875 11.933594 6.945312 11.839844 7.179688 11.839844 C 9.988281 11.839844 12.675781 12.960938 14.660156 14.949219 C 16.644531 16.933594 17.757812 19.632812 17.757812 22.4375 C 17.753906 22.921875 17.359375 23.3125 16.875 23.308594 C 16.394531 23.300781 16.011719 22.914062 16.003906 22.4375 C 16.003906 20.097656 15.070312 17.851562 13.417969 16.199219 C 11.761719 14.542969 9.519531 13.609375 7.179688 13.609375 C 6.753906 13.609375 6.386719 13.300781 6.3125 12.882812 Z M 6.3125 12.882812 "/>
<path style=" stroke:none;fill-rule:evenodd;fill:rgb(100%,100%,100%);fill-opacity:1;" d="M 6.3125 9.363281 C 6.300781 9.304688 6.292969 9.25 6.292969 9.191406 C 6.292969 8.957031 6.386719 8.734375 6.550781 8.566406 C 6.71875 8.402344 6.941406 8.308594 7.175781 8.308594 C 10.921875 8.308594 14.511719 9.796875 17.160156 12.445312 C 19.804688 15.089844 21.292969 18.691406 21.292969 22.4375 C 21.292969 22.671875 21.199219 22.894531 21.035156 23.0625 C 20.867188 23.226562 20.644531 23.320312 20.410156 23.320312 C 20.175781 23.320312 19.949219 23.226562 19.785156 23.0625 C 19.621094 22.898438 19.527344 22.671875 19.527344 22.4375 C 19.527344 19.160156 18.234375 16.011719 15.914062 13.695312 C 13.597656 11.378906 10.453125 10.074219 7.175781 10.074219 C 6.753906 10.074219 6.394531 9.777344 6.3125 9.363281 Z M 6.3125 9.363281 "/>
<path style=" stroke:none;fill-rule:evenodd;fill:rgb(100%,100%,100%);fill-opacity:1;" d="M 10 21.691406 C 10 22.796875 9.105469 23.691406 8 23.691406 C 6.894531 23.691406 6 22.796875 6 21.691406 C 6 20.585938 6.894531 19.691406 8 19.691406 C 9.105469 19.691406 10 20.585938 10 21.691406 Z M 10 21.691406 "/>
<path style=" stroke:none;fill-rule:evenodd;fill:rgb(100%,100%,100%);fill-opacity:1;" d="M 21.5 8 L 24.5 8 C 25.328125 8 26 8.449219 26 9 L 26 11 C 26 11.550781 25.328125 12 24.5 12 L 21.5 12 C 20.671875 12 20 11.550781 20 11 L 20 9 C 20 8.449219 20.671875 8 21.5 8 Z M 21.5 8 "/>
</g>
</svg>
