<?xml version="1.0" encoding="UTF-8"?>
<svg xmlns="http://www.w3.org/2000/svg" xmlns:xlink="http://www.w3.org/1999/xlink" width="32" height="32" viewBox="0 0 32 32" version="1.1">
<g id="surface1">
<path style=" stroke:none;fill-rule:nonzero;fill:rgb(100%,100%,100%);fill-opacity:1;" d="M 16 2.667969 L 21.722656 8.390625 L 23.136719 6.976562 L 21.496094 5.332031 L 26.667969 5.332031 L 26.667969 10.503906 L 25.023438 8.863281 L 23.609375 10.277344 L 29.332031 16 L 23.609375 21.722656 L 25.023438 23.136719 L 26.667969 21.496094 L 26.667969 26.667969 L 21.492188 26.667969 L 23.136719 25.023438 L 21.722656 23.609375 L 16 29.332031 L 10.277344 23.609375 L 8.863281 25.023438 L 10.503906 26.667969 L 5.332031 26.667969 L 5.332031 21.492188 L 6.976562 23.136719 L 8.390625 21.722656 L 2.667969 16 L 8.390625 10.277344 L 6.976562 8.863281 L 5.332031 10.503906 L 5.332031 5.332031 L 10.503906 5.332031 L 8.863281 6.972656 L 10.277344 8.390625 Z M 16 17.882812 L 12.160156 21.722656 L 16 25.5625 L 19.839844 21.722656 Z M 10.277344 12.160156 L 6.4375 16 L 10.273438 19.835938 L 14.113281 15.996094 Z M 21.722656 12.160156 L 17.886719 15.996094 L 21.722656 19.835938 L 25.5625 16 Z M 16 6.4375 L 12.164062 10.277344 L 16 14.113281 L 19.835938 10.273438 Z M 16 6.4375 "/>
</g>
</svg>
