<?xml version="1.0" encoding="UTF-8"?>
<svg xmlns="http://www.w3.org/2000/svg" xmlns:xlink="http://www.w3.org/1999/xlink" width="32" height="32" viewBox="0 0 32 32" version="1.1">
<g id="surface1">
<path style=" stroke:none;fill-rule:nonzero;fill:rgb(100%,100%,100%);fill-opacity:1;" d="M 9.199219 16.007812 L 20.167969 28.363281 C 20.433594 28.664062 20.804688 28.847656 21.203125 28.875 C 21.605469 28.898438 21.996094 28.761719 22.296875 28.496094 C 22.59375 28.230469 22.773438 27.859375 22.796875 27.460938 C 22.820312 27.058594 22.679688 26.667969 22.414062 26.371094 L 13.214844 16.007812 L 22.414062 5.628906 C 22.679688 5.332031 22.820312 4.941406 22.796875 4.539062 C 22.773438 4.140625 22.59375 3.769531 22.296875 3.503906 C 21.996094 3.238281 21.605469 3.101562 21.203125 3.125 C 20.804688 3.152344 20.433594 3.335938 20.167969 3.636719 Z M 9.199219 16.007812 "/>
</g>
</svg>
