<?xml version="1.0" encoding="UTF-8"?>
<svg xmlns="http://www.w3.org/2000/svg" xmlns:xlink="http://www.w3.org/1999/xlink" width="32" height="32" viewBox="0 0 32 32" version="1.1">
<g id="surface1">
<path style=" stroke:none;fill-rule:nonzero;fill:rgb(100%,100%,100%);fill-opacity:1;" d="M 14.113281 5.332031 L 11.675781 2.894531 L 13.5625 1.007812 L 19.21875 6.667969 L 13.5625 12.324219 L 11.675781 10.4375 L 14.113281 8 L 10.667969 8 C 8.457031 8 6.667969 9.789062 6.667969 12 L 6.667969 17.332031 L 4 17.332031 L 4 12 C 4 8.316406 6.984375 5.332031 10.667969 5.332031 Z M 12 14.667969 C 12 13.929688 12.597656 13.332031 13.332031 13.332031 L 26.667969 13.332031 C 27.402344 13.332031 28 13.929688 28 14.667969 L 28 28 C 28 28.738281 27.402344 29.332031 26.667969 29.332031 L 13.332031 29.332031 C 12.597656 29.332031 12 28.738281 12 28 Z M 14.667969 16 L 14.667969 26.667969 L 25.332031 26.667969 L 25.332031 16 Z M 14.667969 16 "/>
</g>
</svg>
