<?xml version="1.0" encoding="UTF-8"?>
<svg xmlns="http://www.w3.org/2000/svg" xmlns:xlink="http://www.w3.org/1999/xlink" width="32" height="32" viewBox="0 0 32 32" version="1.1">
<g id="surface1">
<path style=" stroke:none;fill-rule:nonzero;fill:rgb(100%,100%,100%);fill-opacity:1;" d="M 4.6875 2.800781 L 30.144531 28.257812 L 28.257812 30.144531 L 25.570312 27.457031 C 24.644531 27.816406 23.660156 28 22.667969 28 L 9.332031 28 C 5.433594 28.003906 2.097656 25.191406 1.441406 21.347656 C 0.785156 17.503906 2.996094 13.746094 6.675781 12.453125 C 6.621094 11.292969 6.78125 10.132812 7.148438 9.035156 L 2.800781 4.683594 Z M 22.667969 12 C 25.519531 12 28.160156 13.523438 29.589844 15.992188 C 31.019531 18.464844 31.023438 21.507812 29.605469 23.984375 L 18.679688 13.0625 C 19.851562 12.386719 21.214844 12 22.667969 12 Z M 16 2.667969 C 20.226562 2.667969 23.929688 5.507812 25.019531 9.59375 C 22.167969 8.953125 19.179688 9.507812 16.746094 11.125 L 10.257812 4.640625 C 11.898438 3.359375 13.917969 2.664062 16 2.667969 Z M 16 2.667969 "/>
</g>
</svg>
