<?xml version="1.0" encoding="UTF-8"?>
<svg xmlns="http://www.w3.org/2000/svg" xmlns:xlink="http://www.w3.org/1999/xlink" width="32" height="32" viewBox="0 0 32 32" version="1.1">
<g id="surface1">
<path style=" stroke:none;fill-rule:evenodd;fill:rgb(100%,100%,100%);fill-opacity:1;" d="M 2.582031 0 C 2.632812 0.15625 2.707031 0.300781 2.804688 0.433594 L 26.496094 32 L 30.242188 32 L 6.222656 0 Z M 15.53125 5.0625 C 14.609375 5.0625 13.695312 5.199219 12.8125 5.460938 L 27.480469 25.007812 C 30.261719 23.535156 32 20.644531 32 17.5 C 32 12.804688 28.195312 9 23.5 9 C 23.417969 9 23.332031 9 23.25 9.003906 C 21.457031 6.527344 18.585938 5.0625 15.53125 5.0625 Z M 7.3125 9.765625 C 6.554688 11.054688 6.113281 12.507812 6.019531 14 C 6.011719 14 6.007812 14 6 14 C 2.6875 14 0 16.6875 0 20 C 0 23.3125 2.6875 26 6 26 C 6.035156 26 6.066406 26 6.101562 26 L 19.5 26 Z M 7.3125 9.765625 "/>
</g>
</svg>
