<?xml version="1.0" encoding="UTF-8"?>
<svg xmlns="http://www.w3.org/2000/svg" xmlns:xlink="http://www.w3.org/1999/xlink" width="32" height="32" viewBox="0 0 32 32" version="1.1">
<g id="surface1">
<path style=" stroke:none;fill-rule:nonzero;fill:rgb(100%,100%,100%);fill-opacity:1;" d="M 4 4 L 28 4 C 28.738281 4 29.332031 4.597656 29.332031 5.332031 L 29.332031 26.667969 C 29.332031 27.402344 28.738281 28 28 28 L 4 28 C 3.261719 28 2.667969 27.402344 2.667969 26.667969 L 2.667969 5.332031 C 2.667969 4.597656 3.261719 4 4 4 Z M 5.332031 6.667969 L 5.332031 25.332031 L 26.667969 25.332031 L 26.667969 6.667969 Z M 26.667969 16 L 21.953125 20.714844 L 20.066406 18.828125 L 22.894531 16 L 20.066406 13.171875 L 21.953125 11.285156 Z M 9.105469 16 L 11.933594 18.828125 L 10.046875 20.714844 L 5.332031 16 L 10.046875 11.285156 L 11.933594 13.171875 Z M 14.992188 22.667969 L 12.15625 22.667969 L 17.007812 9.332031 L 19.84375 9.332031 Z M 14.992188 22.667969 "/>
</g>
</svg>
