<?xml version="1.0" encoding="UTF-8"?>
<svg xmlns="http://www.w3.org/2000/svg" xmlns:xlink="http://www.w3.org/1999/xlink" width="32" height="32" viewBox="0 0 32 32" version="1.1">
<g id="surface1">
<path style=" stroke:none;fill-rule:nonzero;fill:rgb(100%,100%,100%);fill-opacity:1;" d="M 9.332031 2.667969 L 9.332031 29.332031 L 4 29.332031 L 4 2.667969 Z M 12 2.667969 L 25.339844 2.667969 C 26.808594 2.667969 28 3.863281 28 5.320312 L 28 26.679688 C 28 28.144531 26.808594 29.332031 25.339844 29.332031 L 12 29.332031 Z M 29.332031 8 L 32 8 L 32 13.332031 L 29.332031 13.332031 Z M 29.332031 16 L 32 16 L 32 21.332031 L 29.332031 21.332031 Z M 20 16 C 21.472656 16 22.667969 14.804688 22.667969 13.332031 C 22.667969 11.859375 21.472656 10.667969 20 10.667969 C 18.527344 10.667969 17.332031 11.859375 17.332031 13.332031 C 17.332031 14.804688 18.527344 16 20 16 Z M 16 21.332031 L 24 21.332031 C 24 19.125 22.210938 17.332031 20 17.332031 C 17.789062 17.332031 16 19.125 16 21.332031 Z M 16 21.332031 "/>
</g>
</svg>
