<?xml version="1.0" encoding="UTF-8"?>
<svg xmlns="http://www.w3.org/2000/svg" xmlns:xlink="http://www.w3.org/1999/xlink" width="32" height="32" viewBox="0 0 32 32" version="1.1">
<g id="surface1">
<path style=" stroke:none;fill-rule:evenodd;fill:rgb(100%,100%,100%);fill-opacity:1;" d="M 17.636719 2.390625 C 17.621094 2.390625 17.601562 2.394531 17.585938 2.398438 C 17.457031 2.421875 17.398438 2.578125 17.472656 2.691406 C 17.746094 3.09375 17.917969 3.535156 18.035156 3.992188 L 8 3.992188 L 8 6 L 18.042969 6 C 17.929688 6.453125 17.761719 6.890625 17.488281 7.285156 C 17.378906 7.429688 17.515625 7.636719 17.683594 7.578125 L 23.898438 5.15625 C 24.035156 5.089844 24.035156 4.882812 23.898438 4.816406 L 17.683594 2.398438 C 17.667969 2.394531 17.652344 2.390625 17.636719 2.390625 Z M 7 12 C 5.890625 12 5 12.890625 5 14 L 5 20 C 5 21.109375 5.890625 22 7 22 L 13 22 C 14.109375 22 15 21.109375 15 20 L 15 14 C 15 12.890625 14.109375 12 13 12 Z M 19 12 C 17.890625 12 17 12.890625 17 14 L 17 20 C 17 21.109375 17.890625 22 19 22 L 25 22 C 26.109375 22 27 21.109375 27 20 L 27 14 C 27 12.890625 26.109375 12 25 12 Z M 5 24 C 3.34375 24 2 25.34375 2 27 C 2 28.65625 3.34375 30 5 30 L 27 30 C 28.65625 30 30 28.65625 30 27 C 30 25.34375 28.65625 24 27 24 Z M 7.824219 25.992188 L 24.175781 25.992188 C 24.058594 26.316406 24 26.65625 24 27 C 24 27.34375 24.058594 27.683594 24.175781 28.007812 L 7.824219 28.007812 C 7.941406 27.683594 8 27.34375 8 27 C 8 26.65625 7.941406 26.316406 7.824219 25.992188 Z M 7.824219 25.992188 "/>
</g>
</svg>
