<?xml version="1.0" encoding="UTF-8"?>
<svg xmlns="http://www.w3.org/2000/svg" xmlns:xlink="http://www.w3.org/1999/xlink" width="32" height="32" viewBox="0 0 32 32" version="1.1">
<g id="surface1">
<path style=" stroke:none;fill-rule:nonzero;fill:rgb(100%,100%,100%);fill-opacity:1;" d="M 16 2.667969 C 23.359375 2.667969 29.332031 8.640625 29.332031 16 C 29.332031 23.359375 23.359375 29.332031 16 29.332031 C 8.640625 29.332031 2.667969 23.359375 2.667969 16 C 2.667969 8.640625 8.640625 2.667969 16 2.667969 Z M 16 5.332031 C 10.105469 5.332031 5.332031 10.105469 5.332031 16 C 5.332031 21.894531 10.105469 26.667969 16 26.667969 C 21.894531 26.667969 26.667969 21.894531 26.667969 16 C 26.667969 10.105469 21.894531 5.332031 16 5.332031 Z M 16 9.332031 C 18.425781 9.332031 20.550781 10.628906 21.71875 12.570312 L 19.433594 13.941406 C 18.4375 12.285156 16.402344 11.574219 14.59375 12.257812 C 12.785156 12.9375 11.71875 14.8125 12.066406 16.714844 C 12.410156 18.617188 14.066406 20 16 20 C 17.40625 20 18.707031 19.265625 19.429688 18.058594 L 21.71875 19.429688 C 20.175781 22 17.109375 23.230469 14.21875 22.429688 C 11.332031 21.628906 9.332031 19 9.332031 16 C 9.332031 12.320312 12.320312 9.332031 16 9.332031 Z M 16 9.332031 "/>
</g>
</svg>
