<?xml version="1.0" encoding="UTF-8"?>
<svg xmlns="http://www.w3.org/2000/svg" xmlns:xlink="http://www.w3.org/1999/xlink" width="32" height="32" viewBox="0 0 32 32" version="1.1">
<g id="surface1">
<path style=" stroke:none;fill-rule:nonzero;fill:rgb(100%,100%,100%);fill-opacity:1;" d="M 2.667969 12.667969 L 2.667969 5.332031 C 2.667969 4.597656 3.261719 4 4 4 L 28 4 C 28.738281 4 29.332031 4.597656 29.332031 5.332031 L 29.332031 12.667969 C 27.492188 12.667969 26 14.160156 26 16 C 26 17.839844 27.492188 19.332031 29.332031 19.332031 L 29.332031 26.667969 C 29.332031 27.402344 28.738281 28 28 28 L 4 28 C 3.261719 28 2.667969 27.402344 2.667969 26.667969 L 2.667969 19.332031 C 4.507812 19.332031 6 17.839844 6 16 C 6 14.160156 4.507812 12.667969 2.667969 12.667969 Z M 18.667969 6.667969 L 5.332031 6.667969 L 5.332031 10.625 C 7.375 11.636719 8.667969 13.71875 8.667969 16 C 8.667969 18.28125 7.375 20.363281 5.332031 21.375 L 5.332031 25.332031 L 18.667969 25.332031 Z M 21.332031 6.667969 L 21.332031 25.332031 L 26.667969 25.332031 L 26.667969 21.375 C 24.625 20.363281 23.332031 18.28125 23.332031 16 C 23.332031 13.71875 24.625 11.636719 26.667969 10.625 L 26.667969 6.667969 Z M 21.332031 6.667969 "/>
</g>
</svg>
