<?xml version="1.0" encoding="UTF-8"?>
<svg xmlns="http://www.w3.org/2000/svg" xmlns:xlink="http://www.w3.org/1999/xlink" width="32" height="32" viewBox="0 0 32 32" version="1.1">
<g id="surface1">
<path style=" stroke:none;fill-rule:nonzero;fill:rgb(100%,100%,100%);fill-opacity:1;" d="M 16 2.667969 C 23.359375 2.667969 29.332031 8.640625 29.332031 16 C 29.332031 23.359375 23.359375 29.332031 16 29.332031 C 8.640625 29.332031 2.667969 23.359375 2.667969 16 C 2.667969 8.640625 8.640625 2.667969 16 2.667969 Z M 16 8 C 12.320312 8 9.332031 11.582031 9.332031 16 C 9.332031 20.417969 12.320312 24 16 24 C 19.679688 24 22.667969 20.417969 22.667969 16 C 22.667969 11.582031 19.679688 8 16 8 Z M 19.101562 12.628906 C 19.664062 13.550781 20 14.722656 20 16 C 20 18.945312 18.210938 21.332031 16 21.332031 C 15.496094 21.332031 15.011719 21.210938 14.570312 20.984375 L 14.351562 20.859375 Z M 16 10.667969 C 16.503906 10.667969 16.988281 10.789062 17.429688 11.015625 L 17.648438 11.140625 L 12.898438 19.371094 C 12.335938 18.449219 12 17.277344 12 16 C 12 13.054688 13.789062 10.667969 16 10.667969 Z M 16 10.667969 "/>
</g>
</svg>
