<?xml version="1.0" encoding="UTF-8"?>
<svg xmlns="http://www.w3.org/2000/svg" xmlns:xlink="http://www.w3.org/1999/xlink" width="32" height="32" viewBox="0 0 32 32" version="1.1">
<g id="surface1">
<path style=" stroke:none;fill-rule:nonzero;fill:rgb(100%,100%,100%);fill-opacity:1;" d="M 16 2.667969 C 23.359375 2.667969 29.332031 8.640625 29.332031 16 C 29.332031 23.359375 23.359375 29.332031 16 29.332031 C 8.640625 29.332031 2.667969 23.359375 2.667969 16 C 2.667969 8.640625 8.640625 2.667969 16 2.667969 Z M 16 8 C 13.191406 8 10.792969 10.078125 9.808594 13.027344 L 9.710938 13.332031 L 8 13.332031 L 11.332031 17.332031 L 14.667969 13.332031 L 12.535156 13.332031 C 13.226562 11.738281 14.519531 10.667969 16 10.667969 C 18.210938 10.667969 20 13.054688 20 16 C 20 18.945312 18.210938 21.332031 16 21.332031 C 14.601562 21.332031 13.371094 20.378906 12.65625 18.929688 L 12.535156 18.667969 L 9.714844 18.667969 C 10.625 21.773438 13.097656 24 16 24 C 19.679688 24 22.667969 20.417969 22.667969 16 C 22.667969 11.582031 19.679688 8 16 8 Z M 16 8 "/>
</g>
</svg>
