<?xml version="1.0" encoding="UTF-8"?>
<svg xmlns="http://www.w3.org/2000/svg" xmlns:xlink="http://www.w3.org/1999/xlink" width="32" height="32" viewBox="0 0 32 32" version="1.1">
<g id="surface1">
<path style=" stroke:none;fill-rule:nonzero;fill:rgb(100%,100%,100%);fill-opacity:1;" d="M 16 0.109375 C 12.945312 0.109375 10.175781 0.554688 8.085938 1.296875 C 7.039062 1.671875 6.164062 2.105469 5.484375 2.675781 C 4.804688 3.25 4.289062 4.019531 4.289062 4.925781 L 4.289062 10.722656 C 4.46875 10.945312 4.757812 11.207031 5.214844 11.488281 C 6.167969 12.078125 7.703125 12.644531 9.648438 13.042969 C 13.539062 13.84375 18.460938 13.84375 22.351562 13.042969 C 24.296875 12.644531 25.832031 12.078125 26.785156 11.488281 C 27.25 11.203125 27.535156 10.9375 27.710938 10.714844 L 27.710938 4.925781 C 27.707031 4.601562 27.617188 4.007812 27.367188 3.644531 C 27.117188 3.285156 26.949219 3.042969 26.515625 2.675781 C 25.835938 2.105469 24.953125 1.671875 23.90625 1.296875 C 21.816406 0.554688 19.054688 0.109375 16 0.109375 Z M 27.710938 13.777344 C 26.429688 14.496094 24.808594 15.054688 22.847656 15.457031 C 18.566406 16.339844 13.433594 16.339844 9.152344 15.457031 C 7.199219 15.054688 5.570312 14.5 4.289062 13.78125 L 4.289062 19.453125 C 4.46875 19.675781 4.757812 19.9375 5.214844 20.21875 C 6.167969 20.808594 7.703125 21.375 9.648438 21.773438 C 13.539062 22.574219 18.460938 22.574219 22.351562 21.773438 C 24.296875 21.375 25.832031 20.808594 26.785156 20.21875 C 27.25 19.933594 27.535156 19.667969 27.710938 19.445312 Z M 27.710938 22.507812 C 26.429688 23.226562 24.808594 23.785156 22.847656 24.1875 C 18.566406 25.070312 13.433594 25.070312 9.152344 24.1875 C 7.199219 23.785156 5.570312 23.230469 4.289062 22.511719 L 4.289062 27.039062 C 4.289062 27.050781 4.289062 27.058594 4.289062 27.070312 L 4.289062 27.609375 L 4.386719 27.609375 C 4.597656 28.527344 5.289062 29.273438 6.191406 29.828125 C 7.265625 30.492188 8.707031 30.996094 10.445312 31.351562 C 13.917969 32.066406 18.082031 32.066406 21.554688 31.351562 C 23.292969 30.996094 24.71875 30.492188 25.796875 29.828125 C 26.699219 29.273438 27.398438 28.527344 27.613281 27.609375 L 27.710938 27.609375 Z M 27.710938 22.507812 "/>
</g>
</svg>
