<?xml version="1.0" encoding="UTF-8"?>
<svg xmlns="http://www.w3.org/2000/svg" xmlns:xlink="http://www.w3.org/1999/xlink" width="32" height="32" viewBox="0 0 32 32" version="1.1">
<g id="surface1">
<path style=" stroke:none;fill-rule:nonzero;fill:rgb(100%,100%,100%);fill-opacity:1;" d="M 22.398438 25.332031 L 18.667969 30 L 14.933594 25.332031 L 8 25.332031 C 7.261719 25.332031 6.667969 24.738281 6.667969 24 L 6.667969 9.46875 C 6.667969 8.734375 7.261719 8.136719 8 8.136719 L 29.332031 8.136719 C 30.070312 8.136719 30.667969 8.734375 30.667969 9.46875 L 30.667969 24 C 30.667969 24.738281 30.070312 25.332031 29.332031 25.332031 Z M 2.667969 2.667969 L 25.332031 2.667969 L 25.332031 5.332031 L 4 5.332031 L 4 20 L 1.332031 20 L 1.332031 4 C 1.332031 3.261719 1.929688 2.667969 2.667969 2.667969 Z M 2.667969 2.667969 "/>
</g>
</svg>
