<?xml version="1.0" encoding="UTF-8"?>
<svg xmlns="http://www.w3.org/2000/svg" xmlns:xlink="http://www.w3.org/1999/xlink" width="32" height="32" viewBox="0 0 32 32" version="1.1">
<g id="surface1">
<path style=" stroke:none;fill-rule:nonzero;fill:rgb(100%,100%,100%);fill-opacity:1;" d="M 16 2.667969 C 23.363281 2.667969 29.332031 8.636719 29.332031 16 C 29.332031 23.363281 23.363281 29.332031 16 29.332031 C 12.625 29.332031 9.546875 28.078125 7.199219 26.015625 L 2 26.667969 L 3.898438 21.605469 C 3.105469 19.898438 2.667969 18 2.667969 16 C 2.667969 8.636719 8.636719 2.667969 16 2.667969 Z M 10.667969 9.332031 L 10.667969 22.667969 L 15.644531 22.667969 L 15.996094 22.660156 C 20.496094 22.523438 23.109375 19.714844 23.109375 15.960938 L 23.109375 15.925781 L 23.105469 15.636719 C 22.972656 11.941406 20.28125 9.332031 15.71875 9.332031 Z M 15.773438 12.609375 C 17.945312 12.609375 19.386719 13.847656 19.386719 15.984375 L 19.386719 16.019531 L 19.378906 16.265625 C 19.273438 18.265625 17.863281 19.390625 15.773438 19.390625 L 14.296875 19.390625 L 14.296875 12.609375 Z M 15.773438 12.609375 "/>
</g>
</svg>
