<?xml version="1.0" encoding="UTF-8"?>
<svg xmlns="http://www.w3.org/2000/svg" xmlns:xlink="http://www.w3.org/1999/xlink" width="32" height="32" viewBox="0 0 32 32" version="1.1">
<g id="surface1">
<path style=" stroke:none;fill-rule:evenodd;fill:rgb(100%,100%,100%);fill-opacity:1;" d="M 8 16 C 8 18.210938 6.210938 20 4 20 C 1.789062 20 0 18.210938 0 16 C 0 13.789062 1.789062 12 4 12 C 6.210938 12 8 13.789062 8 16 Z M 8 16 "/>
<path style=" stroke:none;fill-rule:evenodd;fill:rgb(100%,100%,100%);fill-opacity:1;" d="M 20 16 C 20 18.210938 18.210938 20 16 20 C 13.789062 20 12 18.210938 12 16 C 12 13.789062 13.789062 12 16 12 C 18.210938 12 20 13.789062 20 16 Z M 20 16 "/>
<path style=" stroke:none;fill-rule:evenodd;fill:rgb(100%,100%,100%);fill-opacity:1;" d="M 32 16 C 32 18.210938 30.210938 20 28 20 C 25.789062 20 24 18.210938 24 16 C 24 13.789062 25.789062 12 28 12 C 30.210938 12 32 13.789062 32 16 Z M 32 16 "/>
</g>
</svg>
