<?xml version="1.0" encoding="UTF-8"?>
<svg xmlns="http://www.w3.org/2000/svg" xmlns:xlink="http://www.w3.org/1999/xlink" width="32" height="32" viewBox="0 0 32 32" version="1.1">
<g id="surface1">
<path style=" stroke:none;fill-rule:nonzero;fill:rgb(100%,100%,100%);fill-opacity:1;" d="M 1.332031 19.332031 C 1.332031 16.339844 2.875 13.554688 5.417969 11.976562 C 6.101562 6.652344 10.632812 2.664062 16 2.664062 C 21.367188 2.664062 25.898438 6.652344 26.582031 11.976562 C 29.761719 13.953125 31.3125 17.753906 30.421875 21.394531 C 29.53125 25.03125 26.402344 27.6875 22.667969 27.976562 L 9.332031 28 C 4.859375 27.632812 1.332031 23.894531 1.332031 19.332031 Z M 22.464844 25.316406 C 25.050781 25.117188 27.21875 23.277344 27.832031 20.757812 C 28.449219 18.238281 27.375 15.605469 25.171875 14.238281 L 24.09375 13.566406 L 23.933594 12.3125 C 23.417969 8.320312 20.023438 5.335938 16 5.335938 C 11.976562 5.335938 8.578125 8.320312 8.0625 12.3125 L 7.902344 13.566406 L 6.832031 14.238281 C 4.628906 15.605469 3.554688 18.238281 4.167969 20.757812 C 4.785156 23.277344 6.949219 25.117188 9.535156 25.316406 L 9.765625 25.332031 L 22.234375 25.332031 Z M 17.332031 16 L 21.332031 16 L 16 22.667969 L 10.667969 16 L 14.667969 16 L 14.667969 10.667969 L 17.332031 10.667969 Z M 17.332031 16 "/>
</g>
</svg>
