<?xml version="1.0" encoding="UTF-8"?>
<svg xmlns="http://www.w3.org/2000/svg" xmlns:xlink="http://www.w3.org/1999/xlink" width="32" height="32" viewBox="0 0 32 32" version="1.1">
<g id="surface1">
<path style=" stroke:none;fill-rule:nonzero;fill:rgb(100%,100%,100%);fill-opacity:1;" d="M 20 2.667969 L 26.277344 8.941406 C 26.527344 9.191406 26.667969 9.53125 26.667969 9.886719 L 26.667969 28 C 26.667969 28.738281 26.070312 29.332031 25.332031 29.332031 L 6.667969 29.332031 C 5.929688 29.332031 5.332031 28.738281 5.332031 28 L 5.332031 4 C 5.332031 3.261719 5.929688 2.667969 6.667969 2.667969 Z M 18.894531 5.332031 L 8 5.332031 L 8 26.667969 L 24 26.667969 L 24 10.4375 Z M 16 10 C 17.65625 10 19.140625 11.019531 19.734375 12.566406 C 20.328125 14.109375 19.90625 15.863281 18.679688 16.96875 L 18.667969 16.960938 L 18.675781 16.972656 L 16.792969 18.667969 L 20 18.667969 L 20 21.332031 L 12 21.332031 L 12 19.394531 L 16.894531 14.992188 C 17.347656 14.582031 17.464844 13.914062 17.175781 13.375 C 16.890625 12.835938 16.269531 12.558594 15.675781 12.707031 C 15.082031 12.855469 14.667969 13.386719 14.667969 14 L 12 14 C 12 11.789062 13.789062 10 16 10 Z M 16 10 "/>
</g>
</svg>
