<?xml version="1.0" encoding="UTF-8"?>
<svg xmlns="http://www.w3.org/2000/svg" xmlns:xlink="http://www.w3.org/1999/xlink" width="32" height="32" viewBox="0 0 32 32" version="1.1">
<g id="surface1">
<path style=" stroke:none;fill-rule:nonzero;fill:rgb(100%,100%,100%);fill-opacity:1;" d="M 5.332031 19.660156 C 1.988281 17.328125 0.539062 13.097656 1.761719 9.207031 C 2.984375 5.316406 6.589844 2.667969 10.667969 2.667969 C 14.746094 2.667969 18.351562 5.316406 19.570312 9.207031 C 20.792969 13.097656 19.347656 17.328125 16 19.660156 L 16 28 C 16 28.738281 15.402344 29.332031 14.667969 29.332031 L 6.667969 29.332031 C 5.929688 29.332031 5.332031 28.738281 5.332031 28 Z M 10.667969 18.667969 C 14.347656 18.667969 17.332031 15.683594 17.332031 12 C 17.332031 8.316406 14.347656 5.332031 10.667969 5.332031 C 6.984375 5.332031 4 8.316406 4 12 C 4 15.683594 6.984375 18.667969 10.667969 18.667969 Z M 9.332031 24 L 9.332031 26.667969 L 12 26.667969 L 12 24 Z M 10.667969 16 C 8.457031 16 6.667969 14.210938 6.667969 12 C 6.667969 9.789062 8.457031 8 10.667969 8 C 12.875 8 14.667969 9.789062 14.667969 12 C 14.667969 14.210938 12.875 16 10.667969 16 Z M 18.667969 22.667969 L 18.667969 20.945312 C 21.214844 18.667969 22.671875 15.414062 22.667969 12 C 22.671875 9.046875 21.582031 6.199219 19.609375 4 L 28 4 C 28.738281 4 29.332031 4.597656 29.332031 5.332031 L 29.332031 21.332031 C 29.332031 22.070312 28.738281 22.667969 28 22.667969 Z M 24 9.332031 L 24 12 L 26.667969 12 L 26.667969 9.332031 Z M 24 9.332031 "/>
</g>
</svg>
