<?xml version="1.0" encoding="UTF-8"?>
<svg xmlns="http://www.w3.org/2000/svg" xmlns:xlink="http://www.w3.org/1999/xlink" width="32" height="32" viewBox="0 0 32 32" version="1.1">
<g id="surface1">
<path style=" stroke:none;fill-rule:nonzero;fill:rgb(100%,100%,100%);fill-opacity:1;" d="M 6.667969 28 C 5.992188 28 5.421875 27.492188 5.34375 26.824219 L 5.332031 26.667969 L 5.332031 14.667969 L 1.332031 14.667969 L 15.101562 2.148438 C 15.5625 1.730469 16.253906 1.6875 16.765625 2.042969 L 16.898438 2.148438 L 30.667969 14.667969 L 26.667969 14.667969 L 26.667969 26.667969 C 26.667969 27.34375 26.160156 27.910156 25.488281 27.992188 L 25.332031 28 Z M 16 4.9375 L 8 12.207031 L 8 25.332031 L 13.808594 25.332031 L 15.667969 23.332031 L 10.667969 18.667969 L 17.332031 14.667969 L 14 12 L 18 8 L 17.332031 12 L 20.667969 14.667969 L 15.332031 18.667969 L 20 22.667969 L 18.332031 25.332031 L 24 25.332031 L 24 12.210938 Z M 16 4.9375 "/>
</g>
</svg>
