<?xml version="1.0" encoding="UTF-8"?>
<svg xmlns="http://www.w3.org/2000/svg" xmlns:xlink="http://www.w3.org/1999/xlink" width="32" height="32" viewBox="0 0 32 32" version="1.1">
<g id="surface1">
<path style=" stroke:none;fill-rule:nonzero;fill:rgb(100%,100%,100%);fill-opacity:1;" d="M 16 29.332031 C 8.636719 29.332031 2.667969 23.363281 2.667969 16 C 2.667969 8.636719 8.636719 2.667969 16 2.667969 C 23.363281 2.667969 29.332031 8.636719 29.332031 16 C 29.332031 23.363281 23.363281 29.332031 16 29.332031 Z M 9.332031 22.667969 L 12 22.667969 C 12 20.457031 13.789062 18.667969 16 18.667969 C 18.210938 18.667969 20 20.457031 20 22.667969 L 22.667969 22.667969 C 22.667969 18.984375 19.683594 16 16 16 C 12.316406 16 9.332031 18.984375 9.332031 22.667969 Z M 10.667969 14.667969 C 11.769531 14.667969 12.667969 13.769531 12.667969 12.667969 C 12.667969 11.5625 11.769531 10.667969 10.667969 10.667969 C 9.5625 10.667969 8.667969 11.5625 8.667969 12.667969 C 8.667969 13.769531 9.5625 14.667969 10.667969 14.667969 Z M 21.332031 14.667969 C 22.4375 14.667969 23.332031 13.769531 23.332031 12.667969 C 23.332031 11.5625 22.4375 10.667969 21.332031 10.667969 C 20.230469 10.667969 19.332031 11.5625 19.332031 12.667969 C 19.332031 13.769531 20.230469 14.667969 21.332031 14.667969 Z M 21.332031 14.667969 "/>
</g>
</svg>
