<?xml version="1.0" encoding="UTF-8"?>
<svg xmlns="http://www.w3.org/2000/svg" xmlns:xlink="http://www.w3.org/1999/xlink" width="32" height="32" viewBox="0 0 32 32" version="1.1">
<g id="surface1">
<path style=" stroke:none;fill-rule:nonzero;fill:rgb(100%,100%,100%);fill-opacity:1;" d="M 16 25.332031 C 17.105469 25.332031 18 26.230469 18 27.332031 C 18 28.4375 17.105469 29.332031 16 29.332031 C 14.894531 29.332031 14 28.4375 14 27.332031 C 14 26.230469 14.894531 25.332031 16 25.332031 Z M 8.667969 25.332031 C 9.769531 25.332031 10.667969 26.230469 10.667969 27.332031 C 10.667969 28.4375 9.769531 29.332031 8.667969 29.332031 C 7.5625 29.332031 6.667969 28.4375 6.667969 27.332031 C 6.667969 26.230469 7.5625 25.332031 8.667969 25.332031 Z M 23.332031 25.332031 C 24.4375 25.332031 25.332031 26.230469 25.332031 27.332031 C 25.332031 28.4375 24.4375 29.332031 23.332031 29.332031 C 22.230469 29.332031 21.332031 28.4375 21.332031 27.332031 C 21.332031 26.230469 22.230469 25.332031 23.332031 25.332031 Z M 24 4 L 24 6.667969 L 10.667969 6.667969 L 10.667969 12 L 22.667969 12 L 22.667969 14.667969 L 10.667969 14.667969 L 10.667969 20 L 24 20 L 24 22.667969 L 8 22.667969 L 8 4 Z M 24 4 "/>
</g>
</svg>
