<?xml version="1.0" encoding="UTF-8"?>
<svg xmlns="http://www.w3.org/2000/svg" xmlns:xlink="http://www.w3.org/1999/xlink" width="32" height="32" viewBox="0 0 32 32" version="1.1">
<g id="surface1">
<path style=" stroke:none;fill-rule:nonzero;fill:rgb(100%,100%,100%);fill-opacity:1;" d="M 16 7.496094 C 15.363281 7.496094 14.730469 7.546875 14.101562 7.640625 L 15.515625 9.527344 C 15.675781 9.519531 15.835938 9.488281 16 9.488281 C 19.828125 9.488281 23.507812 11.933594 26.320312 16 C 25.335938 17.421875 24.242188 18.628906 23.078125 19.613281 L 24.484375 21.492188 C 26.132812 20.222656 27.628906 18.570312 28.859375 16.515625 L 29.167969 16 L 28.859375 15.484375 C 25.707031 10.230469 20.871094 7.496094 16 7.496094 Z M 16 9.492188 C 15.835938 9.492188 15.683594 9.527344 15.523438 9.539062 L 17.113281 11.65625 C 17.828125 11.84375 18.480469 12.1875 19.011719 12.667969 L 18.355469 13.316406 L 21.894531 18.039062 C 22.039062 17.601562 22.15625 17.152344 22.214844 16.679688 C 22.390625 16.496094 22.492188 16.257812 22.496094 16.003906 C 22.492188 15.742188 22.382812 15.492188 22.199219 15.308594 C 21.800781 12.105469 19.304688 9.492188 16 9.492188 Z M 7.511719 10.507812 C 5.863281 11.777344 4.371094 13.433594 3.140625 15.484375 L 2.832031 16 L 3.140625 16.515625 C 6.292969 21.769531 11.128906 24.488281 16 24.488281 C 16.632812 24.488281 17.261719 24.4375 17.886719 24.347656 L 16.464844 22.453125 C 16.371094 22.457031 16.273438 22.480469 16.179688 22.480469 C 16.277344 22.476562 16.367188 22.453125 16.460938 22.445312 L 13.34375 18.289062 L 12.644531 18.980469 C 11.9375 18.1875 11.496094 17.15625 11.496094 16.003906 C 11.496094 15.949219 11.511719 15.898438 11.511719 15.84375 L 9.933594 13.738281 C 9.667969 14.445312 9.503906 15.207031 9.503906 16.003906 C 9.503906 19.523438 12.328125 22.382812 15.824219 22.480469 C 12.0625 22.40625 8.449219 19.996094 5.679688 16 C 6.660156 14.582031 7.753906 13.375 8.917969 12.386719 Z M 7.511719 10.507812 "/>
<path style=" stroke:none;fill-rule:nonzero;fill:rgb(100%,100%,100%);fill-opacity:1;" d="M 2.128906 0 L 26.132812 32 L 29.871094 32 L 5.871094 0 Z M 2.128906 0 "/>
</g>
</svg>
