<?xml version="1.0" encoding="UTF-8"?>
<svg xmlns="http://www.w3.org/2000/svg" xmlns:xlink="http://www.w3.org/1999/xlink" width="32" height="32" viewBox="0 0 32 32" version="1.1">
<g id="surface1">
<path style=" stroke:none;fill-rule:nonzero;fill:rgb(100%,100%,100%);fill-opacity:1;" d="M 16 16 L 25.332031 16 L 25.332031 18.667969 L 16 18.667969 L 16 28 L 13.332031 28 L 13.332031 10.667969 C 13.332031 7.722656 15.722656 5.332031 18.667969 5.332031 L 28 5.332031 L 28 8 L 18.667969 8 C 17.195312 8 16 9.195312 16 10.667969 Z M 6 13.332031 C 3.421875 13.332031 1.332031 11.242188 1.332031 8.667969 C 1.332031 6.089844 3.421875 4 6 4 C 8.578125 4 10.667969 6.089844 10.667969 8.667969 C 10.667969 11.242188 8.578125 13.332031 6 13.332031 Z M 6 10.667969 C 7.105469 10.667969 8 9.769531 8 8.667969 C 8 7.5625 7.105469 6.667969 6 6.667969 C 4.894531 6.667969 4 7.5625 4 8.667969 C 4 9.769531 4.894531 10.667969 6 10.667969 Z M 6 10.667969 "/>
</g>
</svg>
