<?xml version="1.0" encoding="UTF-8"?>
<svg xmlns="http://www.w3.org/2000/svg" xmlns:xlink="http://www.w3.org/1999/xlink" width="32" height="32" viewBox="0 0 32 32" version="1.1">
<g id="surface1">
<path style=" stroke:none;fill-rule:nonzero;fill:rgb(100%,100%,100%);fill-opacity:1;" d="M 20 5.332031 L 6.667969 5.332031 L 6.667969 26.667969 L 25.332031 26.667969 L 25.332031 10.667969 L 20 10.667969 Z M 4 3.988281 C 4 3.257812 4.597656 2.667969 5.332031 2.667969 L 21.332031 2.667969 L 28 9.332031 L 28 27.992188 C 28.003906 28.726562 27.414062 29.328125 26.675781 29.332031 L 5.324219 29.332031 C 4.59375 29.328125 4.003906 28.738281 4 28.011719 Z M 16 15.332031 C 14.160156 15.332031 12.667969 13.839844 12.667969 12 C 12.667969 10.160156 14.160156 8.667969 16 8.667969 C 17.839844 8.667969 19.332031 10.160156 19.332031 12 C 19.332031 13.839844 17.839844 15.332031 16 15.332031 Z M 10.035156 22.667969 C 10.371094 19.625 12.941406 17.324219 16 17.324219 C 19.058594 17.324219 21.628906 19.625 21.964844 22.667969 Z M 10.035156 22.667969 "/>
</g>
</svg>
