<?xml version="1.0" encoding="UTF-8"?>
<svg xmlns="http://www.w3.org/2000/svg" xmlns:xlink="http://www.w3.org/1999/xlink" width="32" height="32" viewBox="0 0 32 32" version="1.1">
<g id="surface1">
<path style=" stroke:none;fill-rule:nonzero;fill:rgb(100%,100%,100%);fill-opacity:1;" d="M 19.996094 2.667969 L 28 10.667969 L 28 16.347656 C 26.691406 15.257812 25.039062 14.664062 23.332031 14.667969 L 23.039062 14.671875 C 19.761719 14.804688 16.972656 17.09375 16.203125 20.277344 L 16.179688 20.378906 L 16.140625 20.402344 C 14.722656 21.355469 13.746094 22.839844 13.4375 24.523438 C 13.128906 26.203125 13.515625 27.941406 14.503906 29.332031 L 5.324219 29.332031 C 4.652344 29.332031 4.089844 28.832031 4.007812 28.164062 L 4 28.011719 L 4 3.988281 C 4 3.324219 4.515625 2.753906 5.179688 2.675781 L 5.335938 2.667969 Z M 23.332031 17.332031 C 25.910156 17.332031 28 19.421875 28 22 L 28 22.136719 C 29.722656 22.621094 30.839844 24.28125 30.648438 26.058594 C 30.457031 27.839844 29.011719 29.21875 27.222656 29.328125 L 27 29.332031 L 19.667969 29.332031 L 19.441406 29.328125 C 17.65625 29.21875 16.210938 27.835938 16.019531 26.058594 C 15.828125 24.28125 16.949219 22.621094 18.671875 22.136719 L 18.667969 22 C 18.667969 19.421875 20.757812 17.332031 23.332031 17.332031 Z M 23.332031 17.332031 "/>
</g>
</svg>
