<?xml version="1.0" encoding="UTF-8"?>
<svg xmlns="http://www.w3.org/2000/svg" xmlns:xlink="http://www.w3.org/1999/xlink" width="32" height="32" viewBox="0 0 32 32" version="1.1">
<g id="surface1">
<path style=" stroke:none;fill-rule:nonzero;fill:rgb(100%,100%,100%);fill-opacity:1;" d="M 25.332031 29.332031 L 6.667969 29.332031 C 4.457031 29.332031 2.667969 27.542969 2.667969 25.332031 L 2.667969 4 C 2.667969 3.261719 3.261719 2.667969 4 2.667969 L 22.667969 2.667969 C 23.402344 2.667969 24 3.261719 24 4 L 24 20 L 29.332031 20 L 29.332031 25.332031 C 29.332031 27.542969 27.542969 29.332031 25.332031 29.332031 Z M 24 22.667969 L 24 25.332031 C 24 26.070312 24.597656 26.667969 25.332031 26.667969 C 26.070312 26.667969 26.667969 26.070312 26.667969 25.332031 L 26.667969 22.667969 Z M 21.332031 26.667969 L 21.332031 5.332031 L 5.332031 5.332031 L 5.332031 25.332031 C 5.332031 26.070312 5.929688 26.667969 6.667969 26.667969 Z M 8 9.332031 L 18.667969 9.332031 L 18.667969 12 L 8 12 Z M 8 14.667969 L 18.667969 14.667969 L 18.667969 17.332031 L 8 17.332031 Z M 8 20 L 14.667969 20 L 14.667969 22.667969 L 8 22.667969 Z M 8 20 "/>
</g>
</svg>
