<?xml version="1.0" encoding="UTF-8"?>
<svg xmlns="http://www.w3.org/2000/svg" xmlns:xlink="http://www.w3.org/1999/xlink" width="32" height="32" viewBox="0 0 32 32" version="1.1">
<g id="surface1">
<path style=" stroke:none;fill-rule:nonzero;fill:rgb(100%,100%,100%);fill-opacity:1;" d="M 21.332031 2.667969 L 28 9.332031 L 28 28.011719 C 28 28.742188 27.40625 29.332031 26.675781 29.332031 L 5.324219 29.332031 C 4.59375 29.328125 4.003906 28.738281 4 28.011719 L 4 3.988281 C 4 3.257812 4.59375 2.667969 5.324219 2.667969 Z M 14.667969 20 L 14.667969 22.667969 L 17.332031 22.667969 L 17.332031 20 Z M 17.332031 17.808594 C 19.546875 17.140625 20.941406 14.949219 20.605469 12.660156 C 20.273438 10.375 18.3125 8.671875 16 8.667969 C 13.777344 8.667969 11.859375 10.234375 11.421875 12.417969 L 14.039062 12.941406 C 14.246094 11.910156 15.21875 11.210938 16.261719 11.351562 C 17.304688 11.488281 18.066406 12.414062 17.996094 13.464844 C 17.925781 14.515625 17.054688 15.332031 16 15.332031 C 15.261719 15.332031 14.667969 15.929688 14.667969 16.667969 L 14.667969 18.667969 L 17.332031 18.667969 Z M 17.332031 17.808594 "/>
</g>
</svg>
