<?xml version="1.0" encoding="UTF-8"?>
<svg xmlns="http://www.w3.org/2000/svg" xmlns:xlink="http://www.w3.org/1999/xlink" width="32" height="32" viewBox="0 0 32 32" version="1.1">
<g id="surface1">
<path style=" stroke:none;fill-rule:nonzero;fill:rgb(100%,100%,100%);fill-opacity:1;" d="M 9.332031 8 L 9.332031 4 C 9.332031 3.261719 9.929688 2.667969 10.667969 2.667969 L 26.667969 2.667969 C 27.402344 2.667969 28 3.261719 28 4 L 28 22.667969 C 28 23.402344 27.402344 24 26.667969 24 L 22.667969 24 L 22.667969 28 C 22.667969 28.734375 22.066406 29.332031 21.324219 29.332031 L 5.34375 29.332031 C 4.988281 29.335938 4.644531 29.195312 4.394531 28.945312 C 4.140625 28.695312 4 28.355469 4 28 L 4.003906 9.332031 C 4.003906 8.597656 4.605469 8 5.34375 8 Z M 6.667969 10.667969 L 6.667969 26.667969 L 20 26.667969 L 20 10.667969 Z M 12 8 L 22.667969 8 L 22.667969 21.332031 L 25.332031 21.332031 L 25.332031 5.332031 L 12 5.332031 Z M 9.332031 14.667969 L 17.332031 14.667969 L 17.332031 17.332031 L 9.332031 17.332031 Z M 9.332031 20 L 17.332031 20 L 17.332031 22.667969 L 9.332031 22.667969 Z M 9.332031 20 "/>
</g>
</svg>
