<?xml version="1.0" encoding="UTF-8"?>
<svg xmlns="http://www.w3.org/2000/svg" xmlns:xlink="http://www.w3.org/1999/xlink" width="32" height="32" viewBox="0 0 32 32" version="1.1">
<g id="surface1">
<path style=" stroke:none;fill-rule:nonzero;fill:rgb(100%,100%,100%);fill-opacity:1;" d="M 20 5.332031 L 6.667969 5.332031 L 6.667969 26.667969 L 25.332031 26.667969 L 25.332031 10.667969 L 20 10.667969 Z M 4 3.988281 C 4 3.257812 4.597656 2.667969 5.332031 2.667969 L 21.332031 2.667969 L 28 9.332031 L 28 27.992188 C 28.003906 28.726562 27.414062 29.328125 26.675781 29.332031 L 5.324219 29.332031 C 4.59375 29.328125 4.003906 28.738281 4 28.011719 Z M 23.542969 16 L 18.828125 20.714844 L 16.941406 18.828125 L 19.769531 16 L 16.945312 13.171875 L 18.828125 11.285156 Z M 8.457031 16 L 13.171875 11.285156 L 15.058594 13.171875 L 12.230469 16 L 15.054688 18.828125 L 13.171875 20.714844 Z M 8.457031 16 "/>
</g>
</svg>
