<?xml version="1.0" encoding="UTF-8"?>
<svg xmlns="http://www.w3.org/2000/svg" xmlns:xlink="http://www.w3.org/1999/xlink" width="32" height="32" viewBox="0 0 32 32" version="1.1">
<g id="surface1">
<path style=" stroke:none;fill-rule:nonzero;fill:rgb(100%,100%,100%);fill-opacity:1;" d="M 24.042969 22.15625 L 29.753906 27.867188 L 27.867188 29.753906 L 22.15625 24.042969 C 20.03125 25.746094 17.390625 26.671875 14.667969 26.667969 C 8.042969 26.667969 2.667969 21.289062 2.667969 14.667969 C 2.667969 8.042969 8.042969 2.667969 14.667969 2.667969 C 21.289062 2.667969 26.667969 8.042969 26.667969 14.667969 C 26.671875 17.390625 25.746094 20.03125 24.042969 22.15625 Z M 22.210938 12 C 21.082031 8.800781 18.058594 6.664062 14.667969 6.667969 C 10.246094 6.667969 6.667969 10.246094 6.667969 14.667969 L 9.332031 14.667969 C 9.332031 12.785156 10.324219 11.042969 11.941406 10.082031 C 13.558594 9.121094 15.5625 9.082031 17.214844 9.980469 L 16 12 Z M 22.667969 14.667969 L 20 14.667969 C 20 16.546875 19.007812 18.289062 17.390625 19.25 C 15.777344 20.210938 13.773438 20.25 12.121094 19.351562 L 13.332031 17.332031 L 7.121094 17.332031 C 8.25 20.53125 11.273438 22.667969 14.667969 22.667969 C 19.085938 22.667969 22.667969 19.085938 22.667969 14.667969 Z M 22.667969 14.667969 "/>
</g>
</svg>
