<?xml version="1.0" encoding="UTF-8"?>
<svg xmlns="http://www.w3.org/2000/svg" xmlns:xlink="http://www.w3.org/1999/xlink" width="32" height="32" viewBox="0 0 32 32" version="1.1">
<g id="surface1">
<path style=" stroke:none;fill-rule:nonzero;fill:rgb(100%,100%,100%);fill-opacity:1;" d="M 16 1.332031 C 22.628906 1.332031 28 6.707031 28 13.332031 L 28 18.667969 C 28.003906 22.566406 26.109375 26.226562 22.921875 28.472656 C 23.550781 26.441406 23.921875 24.296875 23.988281 22.074219 L 24 21.332031 L 24 18.664062 L 21.332031 18.664062 L 21.332031 21.332031 L 21.328125 21.753906 C 21.277344 24.660156 20.628906 27.527344 19.421875 30.171875 C 17.875 30.628906 16.257812 30.773438 14.65625 30.59375 C 16.308594 27.984375 17.226562 24.984375 17.324219 21.898438 L 17.332031 21.332031 L 17.332031 12 L 14.667969 12 L 14.667969 21.332031 L 14.660156 21.71875 C 14.589844 24.675781 13.617188 27.542969 11.878906 29.941406 C 10.605469 29.472656 9.421875 28.796875 8.378906 27.933594 C 9.769531 26.171875 10.570312 24.015625 10.65625 21.769531 L 10.667969 21.332031 L 10.667969 13.332031 L 10.671875 13.066406 C 10.710938 12.3125 10.90625 11.574219 11.253906 10.898438 L 11.40625 10.625 L 9.480469 8.699219 C 8.59375 9.941406 8.082031 11.414062 8.007812 12.9375 L 8 13.332031 L 8 21.332031 L 7.996094 21.632812 C 7.9375 23.203125 7.417969 24.722656 6.5 25.996094 C 4.875 23.898438 3.996094 21.320312 4 18.667969 L 4 13.332031 C 4 6.707031 9.371094 1.332031 16 1.332031 Z M 16 5.332031 C 14.40625 5.332031 12.921875 5.800781 11.671875 6.605469 L 11.367188 6.8125 L 13.289062 8.738281 C 14.015625 8.308594 14.832031 8.058594 15.671875 8.007812 L 16 8 L 16.265625 8.007812 C 19 8.144531 21.1875 10.324219 21.328125 13.058594 L 21.332031 13.332031 L 21.332031 16 L 24 16 L 24 13.332031 C 24 8.914062 20.417969 5.332031 16 5.332031 Z M 16 5.332031 "/>
</g>
</svg>
