<?xml version="1.0" encoding="UTF-8"?>
<svg xmlns="http://www.w3.org/2000/svg" xmlns:xlink="http://www.w3.org/1999/xlink" width="32" height="32" viewBox="0 0 32 32" version="1.1">
<g id="surface1">
<path style=" stroke:none;fill-rule:evenodd;fill:rgb(100%,100%,100%);fill-opacity:1;" d="M 0 2 L 0 8 L 4 8 L 4 2 Z M 6 2 L 6 8 L 20 8 L 20 2 Z M 22 2 L 22 8 L 32 8 L 32 2 Z M 0 10 L 0 16 L 12 16 L 12 10 Z M 14 10 L 14 16 L 28 16 L 28 10 Z M 30 10 L 30 16 L 32 16 L 32 10 Z M 0 18 L 0 24 L 4 24 L 4 18 Z M 6 18 L 6 24 L 20 24 L 20 18 Z M 22 18 L 22 24 L 32 24 L 32 18 Z M 0 26 L 0 32 L 12 32 L 12 26 Z M 14 26 L 14 32 L 28 32 L 28 26 Z M 30 26 L 30 32 L 32 32 L 32 26 Z M 30 26 "/>
</g>
</svg>
