<?xml version="1.0" encoding="UTF-8"?>
<svg xmlns="http://www.w3.org/2000/svg" xmlns:xlink="http://www.w3.org/1999/xlink" width="32" height="32" viewBox="0 0 32 32" version="1.1">
<g id="surface1">
<path style=" stroke:none;fill-rule:nonzero;fill:rgb(100%,100%,100%);fill-opacity:1;" d="M 16 30.667969 C 21.523438 30.667969 26 26.191406 26 20.667969 C 26 19.511719 25.691406 18.402344 25.332031 17.375 C 23.109375 19.570312 21.421875 20.667969 20.265625 20.667969 C 25.59375 11.332031 22.667969 7.332031 14.667969 2 C 15.332031 8.667969 10.9375 11.699219 9.148438 13.382812 C 6.164062 16.191406 5.195312 20.539062 6.703125 24.351562 C 8.214844 28.164062 11.898438 30.667969 16 30.667969 Z M 16.945312 6.980469 C 21.269531 10.648438 21.289062 13.496094 17.949219 19.34375 C 16.9375 21.121094 18.21875 23.332031 20.265625 23.332031 C 21.183594 23.332031 22.113281 23.066406 23.09375 22.539062 C 22.296875 25.550781 19.6875 27.726562 16.582031 27.972656 C 13.480469 28.21875 10.558594 26.480469 9.296875 23.636719 C 8.039062 20.789062 8.710938 17.457031 10.976562 15.324219 C 11.144531 15.167969 11.996094 14.410156 12.035156 14.378906 C 12.597656 13.871094 13.0625 13.421875 13.523438 12.929688 C 15.164062 11.171875 16.34375 9.222656 16.945312 6.980469 Z M 16.945312 6.980469 "/>
</g>
</svg>
