<?xml version="1.0" encoding="UTF-8"?>
<svg xmlns="http://www.w3.org/2000/svg" xmlns:xlink="http://www.w3.org/1999/xlink" width="32" height="32" viewBox="0 0 32 32" version="1.1">
<g id="surface1">
<path style=" stroke:none;fill-rule:evenodd;fill:rgb(100%,100%,100%);fill-opacity:1;" d="M 10.902344 0 C 8.730469 0.0546875 7 1.828125 7 4 L 5 4 L 5 10 L 7 10 L 7 6 L 7.539062 6 C 8.253906 7.238281 9.570312 8 11 8 C 11.703125 8 12.390625 7.8125 13 7.460938 L 13 8.011719 C 9.667969 8.078125 7 10.773438 7 14.125 L 7 25.875 C 7 29.269531 9.730469 32 13.125 32 L 16.875 32 C 20.269531 32 23 29.269531 23 25.875 L 23 14.125 C 23 10.730469 20.269531 8 16.875 8 L 15 8 L 15 6 L 27 8 L 27 0 L 15 2 L 14.460938 2 C 13.746094 0.761719 12.429688 0 11 0 C 10.96875 0 10.933594 0 10.902344 0 Z M 11 2 C 12.105469 2 13 2.894531 13 4 C 13 5.105469 12.105469 6 11 6 C 9.894531 6 9 5.105469 9 4 C 9 2.894531 9.894531 2 11 2 Z M 11 2 "/>
</g>
</svg>
