<?xml version="1.0" encoding="UTF-8"?>
<svg xmlns="http://www.w3.org/2000/svg" xmlns:xlink="http://www.w3.org/1999/xlink" width="32" height="32" viewBox="0 0 32 32" version="1.1">
<g id="surface1">
<path style=" stroke:none;fill-rule:nonzero;fill:rgb(100%,100%,100%);fill-opacity:1;" d="M 16 2.667969 C 20.003906 2.664062 23.792969 4.460938 26.324219 7.5625 L 17.886719 16 L 26.324219 24.4375 C 23.792969 27.539062 20.003906 29.335938 16 29.332031 C 8.636719 29.332031 2.667969 23.363281 2.667969 16 C 2.667969 8.636719 8.636719 2.667969 16 2.667969 Z M 16 5.332031 C 11.378906 5.335938 7.285156 8.308594 5.859375 12.703125 C 4.429688 17.09375 5.992188 21.90625 9.726562 24.625 C 13.460938 27.34375 18.523438 27.347656 22.261719 24.636719 L 22.539062 24.425781 L 14.113281 16 L 22.539062 7.570312 L 22.261719 7.363281 C 20.554688 6.121094 18.515625 5.417969 16.402344 5.339844 Z M 16 6.667969 C 17.105469 6.667969 18 7.5625 18 8.667969 C 18 9.769531 17.105469 10.667969 16 10.667969 C 14.894531 10.667969 14 9.769531 14 8.667969 C 14 7.5625 14.894531 6.667969 16 6.667969 Z M 16 6.667969 "/>
</g>
</svg>
