<?xml version="1.0" encoding="UTF-8"?>
<svg xmlns="http://www.w3.org/2000/svg" xmlns:xlink="http://www.w3.org/1999/xlink" width="32" height="32" viewBox="0 0 32 32" version="1.1">
<g id="surface1">
<path style=" stroke:none;fill-rule:nonzero;fill:rgb(100%,100%,100%);fill-opacity:1;" d="M 16 2.667969 C 20.667969 2.667969 24 6.667969 25.332031 10.667969 C 29.332031 12 30.667969 15.640625 30.667969 18.667969 L 26.964844 19.722656 C 26.394531 19.886719 26 20.410156 26 21.003906 L 26 23 C 26 24.289062 24.957031 25.332031 23.667969 25.332031 L 22.871094 25.332031 C 21.976562 25.332031 21.140625 25.78125 20.648438 26.527344 C 19.410156 28.398438 17.863281 29.332031 16 29.332031 C 14.136719 29.332031 12.589844 28.398438 11.351562 26.527344 C 10.859375 25.78125 10.023438 25.332031 9.128906 25.332031 L 8.332031 25.332031 C 7.042969 25.332031 6 24.289062 6 23 L 6 21.003906 C 6 20.410156 5.605469 19.886719 5.035156 19.722656 L 1.332031 18.667969 C 1.332031 15.644531 2.667969 12 6.667969 10.667969 C 8 6.667969 11.332031 2.667969 16 2.667969 Z M 16 16 C 14.894531 16 14 17.492188 14 19.332031 C 14 21.171875 14.894531 22.667969 16 22.667969 C 17.105469 22.667969 18 21.171875 18 19.332031 C 18 17.492188 17.105469 16 16 16 Z M 12.667969 10.667969 C 11.5625 10.667969 10.667969 11.5625 10.667969 12.667969 C 10.667969 13.769531 11.5625 14.667969 12.667969 14.667969 C 13.769531 14.667969 14.667969 13.769531 14.667969 12.667969 C 14.667969 11.5625 13.769531 10.667969 12.667969 10.667969 Z M 19.332031 10.667969 C 18.230469 10.667969 17.332031 11.5625 17.332031 12.667969 C 17.332031 13.769531 18.230469 14.667969 19.332031 14.667969 C 20.4375 14.667969 21.332031 13.769531 21.332031 12.667969 C 21.332031 11.5625 20.4375 10.667969 19.332031 10.667969 Z M 19.332031 10.667969 "/>
</g>
</svg>
