<?xml version="1.0" encoding="UTF-8"?>
<svg xmlns="http://www.w3.org/2000/svg" xmlns:xlink="http://www.w3.org/1999/xlink" width="32" height="32" viewBox="0 0 32 32" version="1.1">
<g id="surface1">
<path style=" stroke:none;fill-rule:nonzero;fill:rgb(100%,100%,100%);fill-opacity:1;" d="M 18.667969 13.332031 L 18.667969 18.667969 L 13.332031 18.667969 L 13.332031 13.332031 Z M 21.332031 13.332031 L 28 13.332031 L 28 18.667969 L 21.332031 18.667969 Z M 18.667969 28 L 13.332031 28 L 13.332031 21.332031 L 18.667969 21.332031 Z M 21.332031 28 L 21.332031 21.332031 L 28 21.332031 L 28 26.667969 C 28 27.402344 27.402344 28 26.667969 28 Z M 18.667969 4 L 18.667969 10.667969 L 13.332031 10.667969 L 13.332031 4 Z M 21.332031 4 L 26.667969 4 C 27.402344 4 28 4.597656 28 5.332031 L 28 10.667969 L 21.332031 10.667969 Z M 10.667969 13.332031 L 10.667969 18.667969 L 4 18.667969 L 4 13.332031 Z M 10.667969 28 L 5.332031 28 C 4.597656 28 4 27.402344 4 26.667969 L 4 21.332031 L 10.667969 21.332031 Z M 10.667969 4 L 10.667969 10.667969 L 4 10.667969 L 4 5.332031 C 4 4.597656 4.597656 4 5.332031 4 Z M 10.667969 4 "/>
</g>
</svg>
