<?xml version="1.0" encoding="UTF-8"?>
<svg xmlns="http://www.w3.org/2000/svg" xmlns:xlink="http://www.w3.org/1999/xlink" width="32" height="32" viewBox="0 0 32 32" version="1.1">
<g id="surface1">
<path style=" stroke:none;fill-rule:nonzero;fill:rgb(100%,100%,100%);fill-opacity:1;" d="M 13.332031 26.332031 L 13.332031 21.867188 C 13.332031 20.15625 14.660156 18.8125 16.621094 18.042969 C 15.355469 17.570312 14.015625 17.332031 12.667969 17.332031 C 10.148438 17.332031 7.820312 18.15625 5.9375 19.546875 C 7.121094 22.898438 9.894531 25.4375 13.332031 26.332031 Z M 25.171875 21.449219 C 24.648438 20.738281 22.894531 20 20.667969 20 C 17.992188 20 16 21.0625 16 21.867188 L 16 26.667969 C 19.765625 26.667969 23.25 24.683594 25.171875 21.449219 Z M 12.734375 15.332031 C 14.390625 15.332031 15.734375 13.988281 15.734375 12.332031 C 15.734375 10.675781 14.390625 9.332031 12.734375 9.332031 C 11.078125 9.332031 9.734375 10.675781 9.734375 12.332031 C 9.734375 13.988281 11.078125 15.332031 12.734375 15.332031 Z M 20.667969 16.667969 C 22.140625 16.667969 23.332031 15.472656 23.332031 14 C 23.332031 12.527344 22.140625 11.332031 20.667969 11.332031 C 19.195312 11.332031 18 12.527344 18 14 C 18 15.472656 19.195312 16.667969 20.667969 16.667969 Z M 16 29.332031 C 8.636719 29.332031 2.667969 23.363281 2.667969 16 C 2.667969 8.636719 8.636719 2.667969 16 2.667969 C 23.363281 2.667969 29.332031 8.636719 29.332031 16 C 29.332031 23.363281 23.363281 29.332031 16 29.332031 Z M 16 29.332031 "/>
</g>
</svg>
