<?xml version="1.0" encoding="UTF-8"?>
<svg xmlns="http://www.w3.org/2000/svg" xmlns:xlink="http://www.w3.org/1999/xlink" width="32" height="32" viewBox="0 0 32 32" version="1.1">
<g id="surface1">
<path style=" stroke:none;fill-rule:nonzero;fill:rgb(100%,100%,100%);fill-opacity:1;" d="M 29.332031 10.667969 L 29.332031 13.332031 L 25.992188 17.175781 C 28.109375 17.757812 29.667969 19.699219 29.667969 22 C 29.667969 24.761719 27.429688 27 24.667969 27 C 22.230469 27 20.203125 25.261719 19.757812 22.957031 L 22.375 22.445312 C 22.585938 23.519531 23.53125 24.332031 24.667969 24.332031 C 25.953125 24.332031 27 23.289062 27 22 C 27 20.710938 25.953125 19.667969 24.667969 19.667969 C 24.285156 19.667969 23.925781 19.757812 23.609375 19.921875 L 21.867188 17.855469 L 25.800781 13.332031 L 20 13.332031 L 20 10.667969 Z M 5.332031 5.332031 L 5.332031 14.667969 L 14.667969 14.667969 L 14.667969 5.332031 L 17.332031 5.332031 L 17.332031 26.667969 L 14.667969 26.667969 L 14.667969 17.332031 L 5.332031 17.332031 L 5.332031 26.667969 L 2.667969 26.667969 L 2.667969 5.332031 Z M 5.332031 5.332031 "/>
</g>
</svg>
