<?xml version="1.0" encoding="UTF-8"?>
<svg xmlns="http://www.w3.org/2000/svg" xmlns:xlink="http://www.w3.org/1999/xlink" width="32" height="32" viewBox="0 0 32 32" version="1.1">
<g id="surface1">
<path style=" stroke:none;fill-rule:nonzero;fill:rgb(100%,100%,100%);fill-opacity:1;" d="M 25.328125 23.726562 C 25.242188 22.105469 24.425781 20.609375 23.105469 19.664062 C 21.789062 18.71875 20.109375 18.425781 18.546875 18.867188 C 17.964844 16.207031 15.472656 14.410156 12.765625 14.699219 C 10.054688 14.992188 8.003906 17.277344 8 20 C 8 21.441406 8.570312 22.746094 9.496094 23.703125 C 4.574219 22.515625 1.167969 18.027344 1.34375 12.96875 C 1.515625 7.910156 5.222656 3.671875 10.214844 2.820312 C 15.203125 1.972656 20.105469 4.746094 21.941406 9.464844 C 25.8125 8.691406 29.601562 11.125 30.511719 14.964844 C 31.421875 18.804688 29.128906 22.675781 25.324219 23.726562 Z M 13.332031 22.667969 C 11.859375 22.667969 10.667969 21.472656 10.667969 20 C 10.667969 18.527344 11.859375 17.332031 13.332031 17.332031 C 14.804688 17.332031 16 18.527344 16 20 C 16 21.472656 14.804688 22.667969 13.332031 22.667969 Z M 20 26.667969 C 18.527344 26.667969 17.332031 25.472656 17.332031 24 C 17.332031 22.527344 18.527344 21.332031 20 21.332031 C 21.472656 21.332031 22.667969 22.527344 22.667969 24 C 22.667969 25.472656 21.472656 26.667969 20 26.667969 Z M 13.332031 30.667969 C 11.859375 30.667969 10.667969 29.472656 10.667969 28 C 10.667969 26.527344 11.859375 25.332031 13.332031 25.332031 C 14.804688 25.332031 16 26.527344 16 28 C 16 29.472656 14.804688 30.667969 13.332031 30.667969 Z M 13.332031 30.667969 "/>
</g>
</svg>
