<?xml version="1.0" encoding="UTF-8"?>
<svg xmlns="http://www.w3.org/2000/svg" xmlns:xlink="http://www.w3.org/1999/xlink" width="32" height="32" viewBox="0 0 32 32" version="1.1">
<g id="surface1">
<path style=" stroke:none;fill-rule:nonzero;fill:rgb(100%,100%,100%);fill-opacity:1;" d="M 28 26.667969 C 28 27.402344 27.402344 28 26.667969 28 L 5.332031 28 C 4.597656 28 4 27.402344 4 26.667969 L 4 12.417969 C 4 12.011719 4.1875 11.625 4.507812 11.371094 L 15.171875 2.957031 C 15.65625 2.574219 16.34375 2.574219 16.828125 2.957031 L 27.492188 11.371094 C 27.8125 11.625 28 12.011719 28 12.417969 Z M 9.332031 16 C 9.332031 19.683594 12.316406 22.667969 16 22.667969 C 19.683594 22.667969 22.667969 19.683594 22.667969 16 L 20 16 C 20 18.210938 18.210938 20 16 20 C 13.789062 20 12 18.210938 12 16 Z M 9.332031 16 "/>
</g>
</svg>
