<?xml version="1.0" encoding="UTF-8"?>
<svg xmlns="http://www.w3.org/2000/svg" xmlns:xlink="http://www.w3.org/1999/xlink" width="32" height="32" viewBox="0 0 32 32" version="1.1">
<g id="surface1">
<path style=" stroke:none;fill-rule:nonzero;fill:rgb(100%,100%,100%);fill-opacity:1;" d="M 29.332031 14.667969 L 29.332031 26.667969 L 26.667969 26.667969 L 26.667969 22.667969 L 5.332031 22.667969 L 5.332031 26.667969 L 2.667969 26.667969 L 2.667969 5.332031 L 5.332031 5.332031 L 5.332031 18.667969 L 16 18.667969 L 16 9.332031 L 24 9.332031 C 26.945312 9.332031 29.332031 11.722656 29.332031 14.667969 Z M 10.667969 17.332031 C 8.457031 17.332031 6.667969 15.542969 6.667969 13.332031 C 6.667969 11.125 8.457031 9.332031 10.667969 9.332031 C 12.875 9.332031 14.667969 11.125 14.667969 13.332031 C 14.667969 15.542969 12.875 17.332031 10.667969 17.332031 Z M 10.667969 17.332031 "/>
</g>
</svg>
