<?xml version="1.0" encoding="UTF-8"?>
<svg xmlns="http://www.w3.org/2000/svg" xmlns:xlink="http://www.w3.org/1999/xlink" width="32" height="32" viewBox="0 0 32 32" version="1.1">
<g id="surface1">
<path style=" stroke:none;fill-rule:nonzero;fill:rgb(100%,100%,100%);fill-opacity:1;" d="M 11.484375 26.828125 C 7.824219 28.8125 4.664062 29.226562 2.921875 27.480469 C 1.128906 25.691406 2.082031 21.011719 4.671875 16.316406 C 5.984375 13.925781 7.609375 11.722656 9.503906 9.761719 C 9.753906 9.511719 11.003906 8.261719 11.085938 8.261719 C 11.085938 8.261719 10.417969 8.679688 10.335938 8.679688 C 7.734375 10.136719 5.453125 12.785156 4.953125 13.378906 C 6.257812 7.5625 11.632812 3.582031 17.578125 4.035156 C 21.703125 2.164062 25.542969 1.730469 27.167969 3.351562 C 28.667969 4.851562 28.582031 7.347656 27.332031 10.34375 C 27.320312 10.371094 27.308594 10.398438 27.296875 10.429688 C 28.199219 12.148438 28.667969 14.058594 28.667969 16 C 28.667969 16.507812 28.636719 17.003906 28.574219 17.492188 L 27.503906 17.492188 C 27.441406 17.496094 27.375 17.496094 27.3125 17.496094 L 11.585938 17.496094 L 11.585938 17.746094 C 11.667969 20.410156 14 22.738281 16.835938 22.738281 C 18.835938 22.738281 20.75 21.65625 21.585938 20.074219 L 27.957031 20.074219 C 26.804688 23.265625 24.355469 25.820312 21.21875 27.105469 C 18.078125 28.394531 14.542969 28.292969 11.484375 26.828125 Z M 10.671875 26.398438 C 8.21875 24.980469 6.34375 22.742188 5.378906 20.074219 C 3.828125 23.117188 3.429688 25.664062 4.753906 26.984375 C 5.835938 28.066406 8.003906 27.816406 10.667969 26.402344 Z M 26.894531 9.722656 C 26.902344 9.707031 26.910156 9.691406 26.914062 9.675781 C 27.914062 7.515625 28 5.683594 27.082031 4.601562 C 25.925781 3.445312 23.695312 3.601562 21.054688 4.828125 C 23.480469 5.78125 25.53125 7.5 26.894531 9.722656 Z M 22.085938 14.335938 L 22.085938 14.253906 C 21.917969 11.507812 19.75 9.429688 17.085938 9.429688 C 14.25 9.429688 11.835938 11.675781 11.667969 14.253906 L 11.667969 14.335938 Z M 22.085938 14.335938 "/>
</g>
</svg>
