<?xml version="1.0" encoding="UTF-8"?>
<svg xmlns="http://www.w3.org/2000/svg" xmlns:xlink="http://www.w3.org/1999/xlink" width="32" height="32" viewBox="0 0 32 32" version="1.1">
<g id="surface1">
<path style=" stroke:none;fill-rule:nonzero;fill:rgb(100%,100%,100%);fill-opacity:1;" d="M 7 3.996094 C 6.585938 4 6.214844 4.257812 6.070312 4.648438 L 0.0625 20.652344 C 0.0273438 20.765625 0.00390625 20.886719 0.00390625 21.007812 L 0.00390625 27 C 0 27.554688 0.453125 28.007812 1.007812 28.003906 L 31.007812 28.003906 C 31.558594 27.996094 32 27.550781 31.996094 27 L 31.996094 21.007812 C 32 20.886719 31.980469 20.765625 31.933594 20.652344 L 25.945312 4.648438 C 25.796875 4.253906 25.417969 3.992188 25 3.996094 Z M 8.699219 7 L 23.332031 7 L 28.003906 19 L 19.839844 19 C 19.285156 18.996094 18.835938 19.449219 18.835938 20.003906 L 18.835938 20.992188 L 12.84375 20.992188 L 12.84375 20.003906 C 12.847656 19.449219 12.398438 18.996094 11.839844 19 L 4.148438 19 Z M 8.699219 7 "/>
</g>
</svg>
