<?xml version="1.0" encoding="UTF-8"?>
<svg xmlns="http://www.w3.org/2000/svg" xmlns:xlink="http://www.w3.org/1999/xlink" width="32" height="32" viewBox="0 0 32 32" version="1.1">
<g id="surface1">
<path style=" stroke:none;fill-rule:nonzero;fill:rgb(100%,100%,100%);fill-opacity:1;" d="M 5.332031 4 L 26.667969 4 C 27.402344 4 28 4.597656 28 5.332031 L 28 26.667969 C 28 27.402344 27.402344 28 26.667969 28 L 5.332031 28 C 4.597656 28 4 27.402344 4 26.667969 L 4 5.332031 C 4 4.597656 4.597656 4 5.332031 4 Z M 9.316406 18.753906 C 9.238281 19.109375 9.199219 19.492188 9.199219 19.808594 C 9.199219 21.042969 9.839844 21.863281 11.207031 21.863281 C 12.34375 21.863281 13.261719 21.160156 13.925781 20.03125 L 13.519531 21.71875 L 15.773438 21.71875 L 17.0625 16.34375 C 17.382812 14.984375 18.007812 14.277344 18.953125 14.277344 C 19.699219 14.277344 20.160156 14.757812 20.160156 15.554688 C 20.160156 15.785156 20.140625 16.035156 20.0625 16.308594 L 19.398438 18.777344 C 19.300781 19.117188 19.253906 19.46875 19.257812 19.824219 C 19.257812 20.996094 19.921875 21.855469 21.308594 21.855469 C 22.496094 21.855469 23.441406 21.058594 23.964844 19.15625 L 23.078125 18.796875 C 22.636719 20.074219 22.253906 20.304688 21.953125 20.304688 C 21.652344 20.304688 21.488281 20.097656 21.488281 19.679688 C 21.488281 19.492188 21.53125 19.28125 21.589844 19.03125 L 22.234375 16.621094 C 22.394531 16.058594 22.457031 15.554688 22.457031 15.097656 C 22.457031 13.296875 21.410156 12.355469 20.140625 12.355469 C 18.953125 12.355469 17.746094 13.46875 17.144531 14.644531 L 17.585938 12.539062 L 14.144531 12.539062 L 13.660156 14.390625 L 15.273438 14.390625 L 14.28125 18.519531 C 13.503906 20.320312 12.070312 20.351562 11.894531 20.308594 C 11.597656 20.238281 11.410156 20.121094 11.410156 19.722656 C 11.410156 19.496094 11.449219 19.164062 11.550781 18.765625 L 13.058594 12.539062 L 9.234375 12.539062 L 8.753906 14.390625 L 10.34375 14.390625 Z M 11.5 11.5 C 12.328125 11.5 13 10.828125 13 10 C 13 9.171875 12.328125 8.5 11.5 8.5 C 10.671875 8.5 10 9.171875 10 10 C 10 10.828125 10.671875 11.5 11.5 11.5 Z M 11.5 11.5 "/>
</g>
</svg>
