<?xml version="1.0" encoding="UTF-8"?>
<svg xmlns="http://www.w3.org/2000/svg" xmlns:xlink="http://www.w3.org/1999/xlink" width="32" height="32" viewBox="0 0 32 32" version="1.1">
<g id="surface1">
<path style=" stroke:none;fill-rule:nonzero;fill:rgb(100%,100%,100%);fill-opacity:1;" d="M 7.570312 24.164062 C 4.121094 22.089844 2 18.816406 2 15.207031 C 2 8.933594 8.332031 4 16 4 C 23.667969 4 30 8.933594 30 15.207031 C 30 21.480469 23.667969 26.414062 16 26.414062 C 15.410156 26.414062 14.824219 26.382812 14.242188 26.328125 L 9.222656 29.605469 C 8.402344 30.039062 7.945312 30.171875 7.242188 29.691406 C 6.414062 29.125 6.449219 28.503906 6.734375 27.613281 Z M 4.667969 15.207031 C 4.667969 18.050781 6.558594 20.703125 9.707031 22.300781 L 10.648438 22.777344 L 10.402344 23.804688 L 9.867188 26.003906 L 13.601562 23.5625 L 14.089844 23.625 C 14.71875 23.707031 15.355469 23.746094 16 23.746094 C 22.320312 23.746094 27.332031 19.839844 27.332031 15.207031 C 27.332031 10.574219 22.320312 6.667969 16 6.667969 C 9.679688 6.667969 4.667969 10.574219 4.667969 15.207031 Z M 23.875 14.746094 L 25.894531 17.617188 C 26.09375 17.902344 26.027344 18.296875 25.742188 18.496094 C 25.457031 18.695312 25.0625 18.628906 24.863281 18.34375 L 22.960938 15.632812 L 22.390625 16.183594 L 22.390625 18 C 22.390625 18.347656 22.109375 18.628906 21.761719 18.628906 C 21.414062 18.628906 21.132812 18.347656 21.132812 18 L 21.132812 16.082031 C 21.109375 15.984375 21.109375 15.882812 21.132812 15.785156 L 21.132812 12.375 C 21.132812 12.027344 21.414062 11.746094 21.761719 11.746094 C 22.109375 11.746094 22.390625 12.027344 22.390625 12.375 L 22.390625 14.433594 L 24.960938 11.945312 C 25.214844 11.71875 25.597656 11.730469 25.835938 11.972656 C 26.070312 12.21875 26.070312 12.605469 25.835938 12.847656 Z M 19.933594 17.3125 C 20.28125 17.3125 20.5625 17.59375 20.5625 17.941406 C 20.5625 18.289062 20.28125 18.570312 19.933594 18.570312 L 17.355469 18.570312 C 17.007812 18.570312 16.726562 18.289062 16.726562 17.941406 L 16.726562 12.394531 C 16.71875 12.164062 16.835938 11.945312 17.035156 11.828125 C 17.234375 11.707031 17.480469 11.707031 17.679688 11.828125 C 17.878906 11.945312 17.996094 12.164062 17.984375 12.394531 L 17.984375 17.3125 Z M 12.121094 15.855469 L 13.902344 15.855469 L 13.050781 13.578125 Z M 15.488281 16.507812 L 15.945312 17.738281 C 16.03125 17.953125 15.996094 18.195312 15.851562 18.375 C 15.710938 18.550781 15.480469 18.636719 15.253906 18.597656 C 15.027344 18.558594 14.839844 18.398438 14.769531 18.179688 L 14.371094 17.113281 L 11.609375 17.113281 L 11.167969 18.199219 C 11.039062 18.519531 10.671875 18.675781 10.347656 18.542969 C 10.027344 18.410156 9.871094 18.042969 10.003906 17.722656 L 12.21875 12.289062 C 12.355469 11.929688 12.703125 11.691406 13.089844 11.691406 C 13.472656 11.710938 13.804688 11.960938 13.925781 12.324219 L 15.320312 16.058594 C 15.429688 16.175781 15.488281 16.328125 15.488281 16.484375 Z M 11.058594 12.402344 C 11.058594 12.75 10.777344 13.03125 10.429688 13.03125 L 8.910156 13.03125 L 8.910156 18.011719 C 8.910156 18.359375 8.628906 18.644531 8.28125 18.644531 C 7.929688 18.644531 7.648438 18.359375 7.648438 18.011719 L 7.648438 13.03125 L 6.101562 13.03125 C 5.753906 13.03125 5.472656 12.75 5.472656 12.402344 C 5.472656 12.054688 5.753906 11.773438 6.101562 11.773438 L 10.429688 11.773438 C 10.777344 11.773438 11.058594 12.054688 11.058594 12.402344 Z M 11.058594 12.402344 "/>
</g>
</svg>
