<?xml version="1.0" encoding="UTF-8"?>
<svg xmlns="http://www.w3.org/2000/svg" xmlns:xlink="http://www.w3.org/1999/xlink" width="32" height="32" viewBox="0 0 32 32" version="1.1">
<g id="surface1">
<path style=" stroke:none;fill-rule:nonzero;fill:rgb(100%,100%,100%);fill-opacity:1;" d="M 15.339844 0 C 14.992188 3.015625 13.703125 5.769531 12.433594 7.847656 C 11.164062 9.925781 9.839844 11.785156 9.867188 14.097656 C 9.890625 16.355469 11.1875 17.839844 12.523438 18.617188 C 13.832031 19.386719 15.15625 19.605469 16 19.515625 C 16.84375 19.605469 18.167969 19.386719 19.476562 18.617188 C 20.8125 17.839844 22.109375 16.355469 22.132812 14.097656 C 22.160156 11.785156 20.835938 9.925781 19.566406 7.847656 C 18.296875 5.769531 17.007812 3.015625 16.660156 0 Z M 15.339844 0 "/>
<path style=" stroke:none;fill-rule:evenodd;fill:rgb(100%,100%,100%);fill-opacity:1;" d="M 4 22 C 1.785156 22 0 23.785156 0 26 L 0 28 C 0 30.214844 1.785156 32 4 32 L 28 32 C 30.214844 32 32 30.214844 32 28 L 32 26 C 32 23.785156 30.214844 22 28 22 Z M 24 24 L 28 24 C 29.109375 24 30 24.890625 30 26 L 30 28 C 30 29.109375 29.109375 30 28 30 L 24 30 Z M 24 24 "/>
</g>
</svg>
