<?xml version="1.0" encoding="UTF-8"?>
<svg xmlns="http://www.w3.org/2000/svg" xmlns:xlink="http://www.w3.org/1999/xlink" width="32" height="32" viewBox="0 0 32 32" version="1.1">
<g id="surface1">
<path style=" stroke:none;fill-rule:nonzero;fill:rgb(100%,100%,100%);fill-opacity:1;" d="M 13.296875 24 L 18.703125 24 C 18.878906 22.398438 19.695312 21.074219 21.023438 19.628906 C 21.171875 19.46875 22.132812 18.476562 22.246094 18.332031 C 24.863281 15.0625 24.515625 10.324219 21.445312 7.472656 C 18.375 4.621094 13.625 4.621094 10.554688 7.472656 C 7.484375 10.320312 7.136719 15.058594 9.753906 18.332031 C 9.867188 18.472656 10.828125 19.46875 10.976562 19.628906 C 12.304688 21.074219 13.121094 22.398438 13.296875 24 Z M 18.667969 26.667969 L 13.332031 26.667969 L 13.332031 28 L 18.667969 28 Z M 7.671875 20 C 4.179688 15.636719 4.648438 9.320312 8.742188 5.519531 C 12.835938 1.714844 19.167969 1.71875 23.261719 5.519531 C 27.355469 9.324219 27.816406 15.640625 24.324219 20.003906 C 23.5 21.03125 21.332031 22.667969 21.332031 24.667969 L 21.332031 28 C 21.332031 29.472656 20.140625 30.667969 18.667969 30.667969 L 13.332031 30.667969 C 11.859375 30.667969 10.667969 29.472656 10.667969 28 L 10.667969 24.667969 C 10.667969 22.667969 8.5 21.03125 7.671875 20 Z M 17.332031 13.339844 L 20.667969 13.339844 L 14.667969 21.339844 L 14.667969 16.003906 L 11.332031 16.003906 L 17.332031 8 Z M 17.332031 13.339844 "/>
</g>
</svg>
