<?xml version="1.0" encoding="UTF-8"?>
<svg xmlns="http://www.w3.org/2000/svg" xmlns:xlink="http://www.w3.org/1999/xlink" width="32" height="32" viewBox="0 0 32 32" version="1.1">
<g id="surface1">
<path style=" stroke:none;fill-rule:nonzero;fill:rgb(100%,100%,100%);fill-opacity:1;" d="M 24.445312 24.453125 L 20.894531 24.453125 L 20.894531 18.882812 C 20.894531 17.554688 20.867188 15.84375 19.039062 15.84375 C 17.1875 15.84375 16.90625 17.289062 16.90625 18.785156 L 16.90625 24.453125 L 13.351562 24.453125 L 13.351562 13 L 16.765625 13 L 16.765625 14.558594 L 16.8125 14.558594 C 17.289062 13.660156 18.449219 12.710938 20.179688 12.710938 C 23.78125 12.710938 24.449219 15.082031 24.449219 18.164062 L 24.449219 24.453125 Z M 9.335938 11.433594 C 8.789062 11.433594 8.265625 11.214844 7.875 10.828125 C 7.488281 10.441406 7.273438 9.914062 7.273438 9.367188 C 7.273438 8.226562 8.199219 7.304688 9.339844 7.304688 C 10.480469 7.304688 11.402344 8.230469 11.402344 9.371094 C 11.402344 10.511719 10.476562 11.433594 9.335938 11.433594 Z M 11.117188 24.453125 L 7.554688 24.453125 L 7.554688 13 L 11.121094 13 L 11.121094 24.453125 Z M 26.226562 4 L 5.773438 4 C 4.789062 4 4 4.773438 4 5.730469 L 4 26.269531 C 4 27.226562 4.792969 28 5.769531 28 L 26.222656 28 C 27.199219 28 28 27.226562 28 26.269531 L 28 5.730469 C 28 4.773438 27.199219 4 26.222656 4 Z M 26.226562 4 "/>
</g>
</svg>
