<?xml version="1.0" encoding="UTF-8"?>
<svg xmlns="http://www.w3.org/2000/svg" xmlns:xlink="http://www.w3.org/1999/xlink" width="32" height="32" viewBox="0 0 32 32" version="1.1">
<g id="surface1">
<path style=" stroke:none;fill-rule:nonzero;fill:rgb(100%,100%,100%);fill-opacity:1;" d="M 23.542969 19.769531 L 21.65625 17.886719 L 23.542969 16 C 25.625 13.917969 25.625 10.539062 23.542969 8.457031 C 21.460938 6.375 18.082031 6.375 16 8.457031 L 14.113281 10.34375 L 12.230469 8.457031 L 14.113281 6.570312 C 17.246094 3.492188 22.277344 3.511719 25.382812 6.617188 C 28.488281 9.722656 28.507812 14.753906 25.429688 17.886719 Z M 19.769531 23.542969 L 17.886719 25.429688 C 15.871094 27.476562 12.910156 28.285156 10.132812 27.550781 C 7.355469 26.8125 5.1875 24.644531 4.449219 21.867188 C 3.714844 19.089844 4.523438 16.128906 6.570312 14.113281 L 8.457031 12.230469 L 10.34375 14.113281 L 8.457031 16 C 6.375 18.082031 6.375 21.460938 8.457031 23.542969 C 10.539062 25.625 13.917969 25.625 16 23.542969 L 17.886719 21.65625 Z M 19.769531 10.34375 L 21.65625 12.230469 L 12.230469 21.65625 L 10.34375 19.769531 Z M 19.769531 10.34375 "/>
</g>
</svg>
