<?xml version="1.0" encoding="UTF-8"?>
<svg xmlns="http://www.w3.org/2000/svg" xmlns:xlink="http://www.w3.org/1999/xlink" width="32" height="32" viewBox="0 0 32 32" version="1.1">
<defs>
<filter id="alpha" filterUnits="objectBoundingBox" x="0%" y="0%" width="100%" height="100%">
  <feColorMatrix type="matrix" in="SourceGraphic" values="0 0 0 0 1 0 0 0 0 1 0 0 0 0 1 0 0 0 1 0"/>
</filter>
<mask id="mask0">
  <g filter="url(#alpha)">
<rect x="0" y="0" width="32" height="32" style="fill:rgb(100%,100%,100%);fill-opacity:0.992157;stroke:none;"/>
  </g>
</mask>
<clipPath id="clip1">
  <rect x="0" y="0" width="32" height="32"/>
</clipPath>
<g id="surface5" clip-path="url(#clip1)">
<path style=" stroke:none;fill-rule:evenodd;fill:rgb(100%,100%,100%);fill-opacity:1;" d="M 16 0 C 14.730469 0 13.59375 0.800781 13.171875 2 L 8 2 C 5.785156 2 4 3.785156 4 6 L 4 28 C 4 30.214844 5.785156 32 8 32 L 24 32 C 26.214844 32 28 30.214844 28 28 L 28 6 C 28 3.785156 26.214844 2 24 2 L 18.824219 2 C 18.402344 0.804688 17.269531 0 16 0 Z M 8 4 L 12 4 L 12 6 L 20 6 L 20 4 L 24 4 C 25.109375 4 26 4.890625 26 6 L 26 28 C 26 29.109375 25.109375 30 24 30 L 8 30 C 6.890625 30 6 29.109375 6 28 L 6 6 C 6 4.890625 6.890625 4 8 4 Z M 8 10 L 8 12 L 24 12 L 24 10 Z M 8 14 L 8 16 L 24 16 L 24 14 Z M 8 18 L 8 20 L 24 20 L 24 18 Z M 8 22 L 8 24 L 24 24 L 24 22 Z M 8 22 "/>
</g>
</defs>
<g id="surface1">
<use xlink:href="#surface5" mask="url(#mask0)"/>
</g>
</svg>
