<?xml version="1.0" encoding="UTF-8"?>
<svg xmlns="http://www.w3.org/2000/svg" xmlns:xlink="http://www.w3.org/1999/xlink" width="32" height="32" viewBox="0 0 32 32" version="1.1">
<g id="surface1">
<path style=" stroke:none;fill-rule:nonzero;fill:rgb(100%,100%,100%);fill-opacity:1;" d="M 9.332031 13.332031 L 26.667969 13.332031 C 27.402344 13.332031 28 13.929688 28 14.667969 L 28 28 C 28 28.738281 27.402344 29.332031 26.667969 29.332031 L 5.332031 29.332031 C 4.597656 29.332031 4 28.738281 4 28 L 4 14.667969 C 4 13.929688 4.597656 13.332031 5.332031 13.332031 L 6.667969 13.332031 L 6.667969 12 C 6.664062 7.671875 9.640625 3.90625 13.855469 2.914062 C 18.070312 1.917969 22.414062 3.953125 24.347656 7.824219 L 21.964844 9.015625 C 20.582031 6.25 17.476562 4.796875 14.46875 5.507812 C 11.457031 6.21875 9.332031 8.90625 9.332031 12 Z M 13.332031 20 L 13.332031 22.667969 L 18.667969 22.667969 L 18.667969 20 Z M 13.332031 20 "/>
</g>
</svg>
