<?xml version="1.0" encoding="UTF-8"?>
<svg xmlns="http://www.w3.org/2000/svg" xmlns:xlink="http://www.w3.org/1999/xlink" width="32" height="32" viewBox="0 0 32 32" version="1.1">
<g id="surface1">
<path style=" stroke:none;fill-rule:nonzero;fill:rgb(100%,100%,100%);fill-opacity:1;" d="M 7.332031 26.667969 C 8.4375 26.667969 9.332031 27.5625 9.332031 28.667969 C 9.332031 29.769531 8.4375 30.667969 7.332031 30.667969 C 6.230469 30.667969 5.332031 29.769531 5.332031 28.667969 C 5.332031 27.5625 6.230469 26.667969 7.332031 26.667969 Z M 24.667969 26.667969 C 25.769531 26.667969 26.667969 27.5625 26.667969 28.667969 C 26.667969 29.769531 25.769531 30.667969 24.667969 30.667969 C 23.5625 30.667969 22.667969 29.769531 22.667969 28.667969 C 22.667969 27.5625 23.5625 26.667969 24.667969 26.667969 Z M 2.894531 2.34375 L 8 7.445312 L 8 22.667969 L 26.667969 22.667969 L 26.667969 25.332031 L 6.667969 25.332031 C 5.929688 25.332031 5.332031 24.734375 5.332031 24 L 5.332031 8.550781 L 1.007812 4.230469 Z M 21.332031 4 C 22.070312 4 22.667969 4.597656 22.667969 5.332031 L 22.667969 8 L 26.65625 8 C 27.398438 8 28 8.609375 28 9.328125 L 28 20.007812 C 28 20.738281 27.398438 21.332031 26.65625 21.332031 L 10.675781 21.332031 C 9.933594 21.332031 9.332031 20.726562 9.332031 20.007812 L 9.332031 9.328125 C 9.332031 8.59375 9.933594 8 10.675781 8 L 14.664062 8 L 14.667969 5.332031 C 14.667969 4.597656 15.265625 4 16 4 Z M 13.332031 10.667969 L 12 10.667969 L 12 18.667969 L 13.332031 18.667969 Z M 21.332031 10.667969 L 16 10.667969 L 16 18.667969 L 21.332031 18.667969 Z M 25.332031 10.667969 L 24 10.667969 L 24 18.667969 L 25.332031 18.667969 Z M 20 6.667969 L 17.332031 6.667969 L 17.332031 8 L 20 8 Z M 20 6.667969 "/>
</g>
</svg>
