<?xml version="1.0" encoding="UTF-8"?>
<svg xmlns="http://www.w3.org/2000/svg" xmlns:xlink="http://www.w3.org/1999/xlink" width="32" height="32" viewBox="0 0 32 32" version="1.1">
<g id="surface1">
<path style=" stroke:none;fill-rule:nonzero;fill:rgb(100%,100%,100%);fill-opacity:1;" d="M 11.332031 7.332031 C 13.214844 7.960938 14.0625 10.210938 14.4375 12.699219 L 8.40625 16.179688 L 9.738281 18.488281 L 14.683594 15.632812 C 14.746094 17.4375 14.667969 19.078125 14.667969 20 C 14.667969 24 13.332031 28 8 28 C 2.667969 28 2.667969 28 2.667969 22.667969 C 2.667969 12.667969 7.332031 6 11.332031 7.332031 Z M 29.335938 22.667969 L 29.335938 23.246094 C 29.328125 28 29.132812 28 24 28 C 18.667969 28 17.335938 24 17.335938 20 C 17.335938 19.078125 17.253906 17.441406 17.316406 15.632812 L 22.261719 18.488281 L 23.597656 16.179688 L 17.566406 12.699219 C 17.9375 10.210938 18.785156 7.960938 20.667969 7.332031 C 24.667969 6 29.335938 12.667969 29.335938 22.667969 Z M 17.332031 2.667969 L 17.332031 14.667969 L 14.667969 14.667969 L 14.667969 2.667969 Z M 17.332031 2.667969 "/>
</g>
</svg>
