<?xml version="1.0" encoding="UTF-8"?>
<svg xmlns="http://www.w3.org/2000/svg" xmlns:xlink="http://www.w3.org/1999/xlink" width="32" height="32" viewBox="0 0 32 32" version="1.1">
<g id="surface1">
<path style=" stroke:none;fill-rule:nonzero;fill:rgb(100%,100%,100%);fill-opacity:1;" d="M 20.265625 13.261719 C 19.6875 12.710938 19.316406 11.980469 19.210938 11.191406 L 18.675781 7.082031 L 15.035156 9.0625 C 14.335938 9.445312 13.523438 9.574219 12.742188 9.425781 L 8.667969 8.667969 L 9.425781 12.742188 C 9.574219 13.523438 9.445312 14.335938 9.0625 15.035156 L 7.082031 18.675781 L 11.191406 19.210938 C 11.980469 19.316406 12.710938 19.6875 13.257812 20.265625 L 16.109375 23.273438 L 17.890625 19.53125 C 18.234375 18.8125 18.8125 18.234375 19.53125 17.890625 L 23.273438 16.109375 Z M 20.296875 20.675781 L 17.347656 26.878906 C 17.234375 27.117188 17.011719 27.28125 16.75 27.324219 C 16.492188 27.363281 16.226562 27.273438 16.046875 27.085938 L 11.324219 22.097656 C 11.195312 21.964844 11.027344 21.878906 10.847656 21.855469 L 4.039062 20.964844 C 3.777344 20.929688 3.546875 20.769531 3.429688 20.535156 C 3.308594 20.300781 3.3125 20.023438 3.4375 19.789062 L 6.722656 13.757812 C 6.808594 13.597656 6.835938 13.410156 6.804688 13.230469 L 5.546875 6.480469 C 5.5 6.21875 5.582031 5.953125 5.765625 5.765625 C 5.953125 5.582031 6.21875 5.5 6.480469 5.546875 L 13.230469 6.804688 C 13.410156 6.835938 13.597656 6.808594 13.757812 6.722656 L 19.789062 3.4375 C 20.023438 3.3125 20.300781 3.308594 20.535156 3.429688 C 20.769531 3.550781 20.929688 3.777344 20.964844 4.039062 L 21.855469 10.847656 C 21.878906 11.027344 21.964844 11.195312 22.097656 11.324219 L 27.085938 16.046875 C 27.273438 16.226562 27.363281 16.492188 27.324219 16.75 C 27.28125 17.011719 27.117188 17.234375 26.878906 17.347656 L 20.675781 20.296875 C 20.511719 20.378906 20.378906 20.511719 20.296875 20.675781 Z M 21.363281 23.246094 L 23.246094 21.363281 L 28.902344 27.015625 L 27.015625 28.902344 Z M 21.363281 23.246094 "/>
</g>
</svg>
