<?xml version="1.0" encoding="UTF-8"?>
<svg xmlns="http://www.w3.org/2000/svg" xmlns:xlink="http://www.w3.org/1999/xlink" width="32" height="32" viewBox="0 0 32 32" version="1.1">
<g id="surface1">
<path style=" stroke:none;fill-rule:evenodd;fill:rgb(100%,100%,100%);fill-opacity:1;" d="M 15.933594 0.015625 C 15.390625 0.0273438 14.957031 0.472656 14.957031 1.015625 C 14.957031 1.082031 14.964844 1.148438 14.980469 1.210938 C 15.070312 1.679688 15.480469 2.015625 15.960938 2.015625 C 19.671875 2.015625 23.234375 3.496094 25.863281 6.121094 C 28.488281 8.746094 29.957031 12.3125 29.957031 16.027344 C 29.957031 16.578125 30.402344 17.027344 30.957031 17.027344 C 31.507812 17.027344 31.957031 16.578125 31.957031 16.027344 C 31.957031 11.785156 30.273438 7.703125 27.273438 4.703125 C 24.269531 1.703125 20.199219 0.015625 15.957031 0.015625 C 15.949219 0.015625 15.941406 0.015625 15.933594 0.015625 Z M 15.933594 4.019531 C 15.390625 4.035156 14.960938 4.476562 14.960938 5.019531 C 14.960938 5.078125 14.96875 5.140625 14.984375 5.199219 C 15.070312 5.675781 15.484375 6.019531 15.96875 6.019531 C 18.621094 6.019531 21.15625 7.082031 23.035156 8.957031 C 24.910156 10.832031 25.96875 13.375 25.96875 16.027344 C 25.972656 16.570312 26.410156 17.007812 26.953125 17.015625 C 27.5 17.019531 27.945312 16.578125 27.957031 16.03125 C 27.957031 12.847656 26.695312 9.789062 24.445312 7.539062 C 22.195312 5.289062 19.144531 4.019531 15.964844 4.019531 C 15.957031 4.019531 15.949219 4.019531 15.933594 4.019531 Z M 15.917969 8.027344 C 15.375 8.042969 14.945312 8.484375 14.945312 9.027344 C 14.945312 9.085938 14.953125 9.148438 14.96875 9.207031 C 15.054688 9.683594 15.46875 10.027344 15.953125 10.027344 C 17.542969 10.027344 19.070312 10.65625 20.195312 11.78125 C 21.320312 12.90625 21.957031 14.425781 21.957031 16.015625 C 21.957031 16.570312 22.40625 17.019531 22.960938 17.015625 C 23.503906 17.007812 23.941406 16.5625 23.945312 16.019531 C 23.945312 13.898438 23.105469 11.863281 21.605469 10.363281 C 20.105469 8.863281 18.070312 8.027344 15.949219 8.027344 C 15.941406 8.027344 15.933594 8.027344 15.917969 8.027344 Z M 15.917969 8.027344 "/>
<path style=" stroke:none;fill-rule:nonzero;fill:rgb(100%,100%,100%);fill-opacity:1;" d="M 9.289062 31.875 C 6.210938 31.433594 3.492188 29.664062 1.742188 26.96875 C 0.511719 25.070312 0.0390625 23.425781 0.0429688 21.050781 C 0.0507812 19.1875 0.296875 18.03125 1.011719 16.515625 C 1.746094 14.972656 2.34375 14.257812 5.742188 10.871094 L 9.042969 7.582031 L 11.167969 9.707031 L 13.292969 11.835938 L 10.089844 15.066406 C 6.246094 18.945312 6.160156 19.078125 6.160156 21.054688 C 6.160156 22.21875 6.1875 22.371094 6.566406 23.136719 C 7.066406 24.152344 7.835938 24.886719 8.957031 25.414062 C 9.695312 25.765625 9.914062 25.808594 10.855469 25.800781 C 11.65625 25.796875 12.109375 25.722656 12.675781 25.503906 C 13.359375 25.242188 13.71875 24.925781 16.75 21.914062 L 20.074219 18.613281 L 22.234375 20.777344 L 24.394531 22.9375 L 20.851562 26.445312 C 17.835938 29.429688 17.164062 30.035156 16.332031 30.5 C 14.121094 31.742188 11.667969 32.21875 9.292969 31.875 Z M 9.289062 31.875 "/>
</g>
</svg>
