<?xml version="1.0" encoding="UTF-8"?>
<svg xmlns="http://www.w3.org/2000/svg" xmlns:xlink="http://www.w3.org/1999/xlink" width="32" height="32" viewBox="0 0 32 32" version="1.1">
<g id="surface1">
<path style=" stroke:none;fill-rule:nonzero;fill:rgb(100%,100%,100%);fill-opacity:1;" d="M 15.34375 31.921875 C 15.167969 31.878906 14.894531 31.777344 14.730469 31.699219 C 14.027344 31.359375 14.105469 31.484375 9.894531 24.1875 C 7.738281 20.457031 5.835938 17.109375 5.667969 16.753906 C 4.804688 14.917969 4.367188 12.894531 4.453125 11.148438 C 4.613281 8.050781 5.722656 5.5 7.835938 3.386719 C 12.351562 -1.128906 19.667969 -1.128906 24.167969 3.386719 C 25.460938 4.683594 26.367188 6.140625 26.941406 7.835938 C 27.925781 10.753906 27.726562 13.847656 26.367188 16.699219 C 26.058594 17.34375 18.890625 29.816406 18.285156 30.757812 C 17.660156 31.734375 16.484375 32.199219 15.34375 31.921875 Z M 17 14.859375 C 17.15625 14.824219 17.546875 14.667969 17.871094 14.515625 C 19.757812 13.613281 20.679688 11.367188 19.980469 9.363281 C 19.765625 8.746094 19.484375 8.292969 19.003906 7.804688 C 18.535156 7.324219 18.011719 6.988281 17.367188 6.75 C 16.949219 6.597656 16.832031 6.585938 16.003906 6.585938 C 15.171875 6.585938 15.054688 6.597656 14.636719 6.753906 C 13.246094 7.265625 12.273438 8.328125 11.902344 9.742188 C 11.746094 10.347656 11.765625 11.269531 11.949219 11.898438 C 12.414062 13.484375 13.757812 14.675781 15.375 14.933594 C 15.769531 14.996094 16.582031 14.957031 17 14.859375 Z M 17 14.859375 "/>
</g>
</svg>
