<?xml version="1.0" encoding="UTF-8"?>
<svg xmlns="http://www.w3.org/2000/svg" xmlns:xlink="http://www.w3.org/1999/xlink" width="32" height="32" viewBox="0 0 32 32" version="1.1">
<g id="surface1">
<path style=" stroke:none;fill-rule:evenodd;fill:rgb(100%,100%,100%);fill-opacity:1;" d="M 22.957031 3.65625 C 22.988281 3.605469 23.027344 3.558594 23.070312 3.515625 C 23.257812 3.328125 23.511719 3.222656 23.777344 3.222656 C 24.042969 3.222656 24.296875 3.328125 24.484375 3.515625 C 26.734375 5.765625 27.992188 8.820312 27.992188 12 C 27.992188 15.183594 26.722656 18.238281 24.472656 20.488281 C 24.078125 20.871094 23.449219 20.867188 23.0625 20.476562 C 22.6875 20.085938 22.6875 19.46875 23.070312 19.082031 C 24.945312 17.203125 25.992188 14.660156 25.992188 12.007812 C 25.992188 9.355469 24.945312 6.808594 23.070312 4.933594 C 22.730469 4.589844 22.679688 4.050781 22.957031 3.65625 Z M 22.957031 3.65625 "/>
<path style=" stroke:none;fill-rule:evenodd;fill:rgb(100%,100%,100%);fill-opacity:1;" d="M 25.777344 0.835938 C 25.8125 0.78125 25.855469 0.730469 25.898438 0.683594 C 26.085938 0.496094 26.339844 0.390625 26.605469 0.390625 C 26.871094 0.390625 27.128906 0.496094 27.316406 0.683594 C 30.316406 3.683594 32 7.753906 32 11.996094 C 32 16.238281 30.304688 20.316406 27.304688 23.316406 C 27.117188 23.503906 26.863281 23.609375 26.597656 23.609375 C 26.332031 23.609375 26.078125 23.503906 25.890625 23.316406 C 25.703125 23.128906 25.597656 22.875 25.597656 22.609375 C 25.597656 22.34375 25.703125 22.089844 25.890625 21.902344 C 28.515625 19.277344 30.003906 15.714844 30.003906 12.003906 C 30.003906 8.289062 28.527344 4.726562 25.898438 2.097656 C 25.5625 1.761719 25.511719 1.230469 25.777344 0.835938 Z M 25.777344 0.835938 "/>
<path style=" stroke:none;fill-rule:nonzero;fill:rgb(100%,100%,100%);fill-opacity:1;" d="M 10.898438 31.921875 C 10.726562 31.878906 10.449219 31.777344 10.285156 31.699219 C 9.582031 31.359375 9.664062 31.484375 5.449219 24.1875 C 3.296875 20.457031 1.394531 17.109375 1.226562 16.753906 C 0.359375 14.917969 -0.078125 12.894531 0.0117188 11.148438 C 0.167969 8.046875 1.277344 5.5 3.394531 3.386719 C 7.910156 -1.128906 15.222656 -1.128906 19.722656 3.386719 C 21.015625 4.683594 21.921875 6.140625 22.496094 7.835938 C 23.484375 10.75 23.28125 13.847656 21.921875 16.699219 C 21.617188 17.34375 14.449219 29.816406 13.84375 30.757812 C 13.214844 31.734375 12.042969 32.199219 10.898438 31.921875 Z M 12.558594 14.859375 C 12.714844 14.824219 13.105469 14.667969 13.425781 14.511719 C 15.316406 13.613281 16.234375 11.367188 15.539062 9.363281 C 15.324219 8.746094 15.039062 8.292969 14.5625 7.804688 C 14.089844 7.324219 13.566406 6.988281 12.921875 6.75 C 12.503906 6.597656 12.386719 6.582031 11.558594 6.582031 C 10.726562 6.582031 10.613281 6.597656 10.191406 6.753906 C 8.800781 7.265625 7.828125 8.328125 7.460938 9.742188 C 7.300781 10.347656 7.324219 11.269531 7.507812 11.898438 C 7.972656 13.484375 9.316406 14.675781 10.929688 14.933594 C 11.324219 14.992188 12.140625 14.957031 12.558594 14.859375 Z M 12.558594 14.859375 "/>
</g>
</svg>
