<?xml version="1.0" encoding="UTF-8"?>
<svg xmlns="http://www.w3.org/2000/svg" xmlns:xlink="http://www.w3.org/1999/xlink" width="32" height="32" viewBox="0 0 32 32" version="1.1">
<g id="surface1">
<path style=" stroke:none;fill-rule:nonzero;fill:rgb(100%,100%,100%);fill-opacity:1;" d="M 14.667969 23.917969 C 9.085938 23.207031 5.015625 18.28125 5.367188 12.667969 C 5.71875 7.050781 10.371094 2.671875 16 2.667969 C 21.632812 2.664062 26.300781 7.042969 26.652344 12.664062 C 27.007812 18.289062 22.925781 23.21875 17.332031 23.917969 L 17.332031 26.683594 C 22.59375 26.804688 26.667969 27.648438 26.667969 28.667969 C 26.667969 29.769531 21.890625 30.667969 16 30.667969 C 10.109375 30.667969 5.332031 29.769531 5.332031 28.667969 C 5.332031 27.648438 9.40625 26.804688 14.667969 26.683594 Z M 16 16 C 17.472656 16 18.667969 14.804688 18.667969 13.332031 C 18.667969 11.859375 17.472656 10.667969 16 10.667969 C 14.527344 10.667969 13.332031 11.859375 13.332031 13.332031 C 13.332031 14.804688 14.527344 16 16 16 Z M 16 16 "/>
</g>
</svg>
