<?xml version="1.0" encoding="UTF-8"?>
<svg xmlns="http://www.w3.org/2000/svg" xmlns:xlink="http://www.w3.org/1999/xlink" width="32" height="32" viewBox="0 0 32 32" version="1.1">
<g id="surface1">
<path style=" stroke:none;fill-rule:nonzero;fill:rgb(100%,100%,100%);fill-opacity:1;" d="M 24.484375 23.152344 L 16 31.636719 L 7.515625 23.152344 C 2.828125 18.464844 2.828125 10.867188 7.515625 6.179688 C 12.199219 1.496094 19.800781 1.496094 24.484375 6.179688 C 29.171875 10.867188 29.171875 18.464844 24.484375 23.152344 Z M 16 20 C 18.945312 20 21.332031 17.613281 21.332031 14.667969 C 21.332031 11.722656 18.945312 9.332031 16 9.332031 C 13.054688 9.332031 10.667969 11.722656 10.667969 14.667969 C 10.667969 17.613281 13.054688 20 16 20 Z M 16 17.332031 C 14.527344 17.332031 13.332031 16.140625 13.332031 14.667969 C 13.332031 13.195312 14.527344 12 16 12 C 17.472656 12 18.667969 13.195312 18.667969 14.667969 C 18.667969 16.140625 17.472656 17.332031 16 17.332031 Z M 16 17.332031 "/>
</g>
</svg>
