<?xml version="1.0" encoding="UTF-8"?>
<svg xmlns="http://www.w3.org/2000/svg" xmlns:xlink="http://www.w3.org/1999/xlink" width="32" height="32" viewBox="0 0 32 32" version="1.1">
<g id="surface1">
<path style=" stroke:none;fill-rule:nonzero;fill:rgb(100%,100%,100%);fill-opacity:1;" d="M 16 27.867188 L 22.601562 21.265625 C 26.246094 17.621094 26.246094 11.710938 22.597656 8.066406 C 18.953125 4.421875 13.046875 4.421875 9.402344 8.066406 C 5.753906 11.710938 5.753906 17.621094 9.398438 21.265625 Z M 16 31.636719 L 7.515625 23.152344 C 2.828125 18.464844 2.828125 10.867188 7.515625 6.179688 C 12.199219 1.496094 19.800781 1.496094 24.484375 6.179688 C 29.171875 10.867188 29.171875 18.464844 24.484375 23.152344 Z M 16 17.332031 C 17.472656 17.332031 18.667969 16.140625 18.667969 14.667969 C 18.667969 13.195312 17.472656 12 16 12 C 14.527344 12 13.332031 13.195312 13.332031 14.667969 C 13.332031 16.140625 14.527344 17.332031 16 17.332031 Z M 16 20 C 13.054688 20 10.667969 17.613281 10.667969 14.667969 C 10.667969 11.722656 13.054688 9.332031 16 9.332031 C 18.945312 9.332031 21.332031 11.722656 21.332031 14.667969 C 21.332031 17.613281 18.945312 20 16 20 Z M 16 20 "/>
</g>
</svg>
