<?xml version="1.0" encoding="UTF-8"?>
<svg xmlns="http://www.w3.org/2000/svg" xmlns:xlink="http://www.w3.org/1999/xlink" width="32" height="32" viewBox="0 0 32 32" version="1.1">
<g id="surface1">
<path style=" stroke:none;fill-rule:nonzero;fill:rgb(100%,100%,100%);fill-opacity:1;" d="M 16 9.332031 C 21.890625 9.332031 26.667969 14.109375 26.667969 20 C 26.667969 25.890625 21.890625 30.667969 16 30.667969 C 10.109375 30.667969 5.332031 25.890625 5.332031 20 C 5.332031 14.109375 10.109375 9.332031 16 9.332031 Z M 16 14 L 14.234375 17.574219 L 10.292969 18.148438 L 13.148438 20.925781 L 12.472656 24.855469 L 16 23 L 19.527344 24.851562 L 18.851562 20.925781 L 21.707031 18.144531 L 17.765625 17.570312 Z M 17.332031 2.664062 L 24 2.667969 L 24 6.667969 L 22.183594 8.183594 C 20.675781 7.394531 19.027344 6.898438 17.332031 6.730469 Z M 14.667969 2.664062 L 14.667969 6.730469 C 12.972656 6.898438 11.328125 7.390625 9.820312 8.183594 L 8 6.667969 L 8 2.667969 Z M 14.667969 2.664062 "/>
</g>
</svg>
