<?xml version="1.0" encoding="UTF-8"?>
<svg xmlns="http://www.w3.org/2000/svg" xmlns:xlink="http://www.w3.org/1999/xlink" width="32" height="32" viewBox="0 0 32 32" version="1.1">
<g id="surface1">
<path style=" stroke:none;fill-rule:nonzero;fill:rgb(100%,100%,100%);fill-opacity:1;" d="M 14.667969 2.667969 C 20.089844 2.667969 24.566406 6.714844 25.246094 11.953125 L 28.246094 16.671875 C 28.441406 16.984375 28.402344 17.445312 27.945312 17.644531 L 25.332031 18.761719 L 25.332031 22.667969 C 25.332031 24.140625 24.140625 25.332031 22.667969 25.332031 L 20 25.332031 L 20 29.332031 L 8 29.332031 L 8 24.40625 C 8 22.835938 7.417969 21.34375 6.339844 20 C 4.875 18.175781 4 15.855469 4 13.332031 C 4 7.441406 8.777344 2.667969 14.667969 2.667969 Z M 13.960938 10.351562 C 13.046875 9.4375 11.570312 9.4375 10.660156 10.351562 C 9.746094 11.261719 9.746094 12.738281 10.660156 13.648438 L 14.667969 17.65625 L 18.671875 13.648438 C 19.585938 12.738281 19.585938 11.261719 18.671875 10.351562 C 17.761719 9.4375 16.285156 9.4375 15.375 10.351562 L 14.667969 11.058594 Z M 13.960938 10.351562 "/>
</g>
</svg>
