<?xml version="1.0" encoding="UTF-8"?>
<svg xmlns="http://www.w3.org/2000/svg" xmlns:xlink="http://www.w3.org/1999/xlink" width="32" height="32" viewBox="0 0 32 32" version="1.1">
<g id="surface1">
<path style=" stroke:none;fill-rule:nonzero;fill:rgb(100%,100%,100%);fill-opacity:1;" d="M 27.296875 29.234375 C 31.859375 24.671875 33.21875 17.789062 30.75 11.828125 C 28.28125 5.867188 22.457031 1.972656 16.003906 1.972656 C 9.554688 1.972656 3.714844 5.878906 1.246094 11.839844 C -1.222656 17.800781 0.148438 24.671875 4.710938 29.234375 C 5.769531 30.289062 7.480469 30.289062 8.539062 29.234375 C 9.050781 28.726562 9.339844 28.039062 9.339844 27.316406 C 9.34375 26.597656 9.058594 25.90625 8.546875 25.394531 C 5.527344 22.375 4.625 17.859375 6.261719 13.910156 C 7.894531 9.964844 11.726562 7.386719 16 7.386719 C 20.273438 7.386719 24.105469 9.964844 25.742188 13.910156 C 27.375 17.859375 26.476562 22.375 23.453125 25.394531 C 22.398438 26.453125 22.398438 28.164062 23.453125 29.222656 C 23.960938 29.734375 24.648438 30.023438 25.371094 30.027344 C 26.089844 30.027344 26.78125 29.742188 27.292969 29.234375 Z M 27.296875 29.234375 "/>
<path style=" stroke:none;fill-rule:evenodd;fill:rgb(100%,100%,100%);fill-opacity:1;" d="M 11 14 L 11 25 L 17 25 L 17 30 L 20 30 L 20 14 L 17 14 L 17 22 L 14 22 L 14 14 Z M 11 14 "/>
</g>
</svg>
