<?xml version="1.0" encoding="UTF-8"?>
<svg xmlns="http://www.w3.org/2000/svg" xmlns:xlink="http://www.w3.org/1999/xlink" width="32" height="32" viewBox="0 0 32 32" version="1.1">
<g id="surface1">
<path style=" stroke:none;fill-rule:nonzero;fill:rgb(100%,100%,100%);fill-opacity:1;" d="M 24.667969 2.667969 C 27.753906 2.664062 30.335938 5.003906 30.640625 8.074219 C 30.945312 11.144531 28.871094 13.945312 25.84375 14.550781 C 27.707031 19.011719 26.335938 24.167969 22.5 27.117188 C 18.667969 30.0625 13.332031 30.0625 9.5 27.117188 C 5.664062 24.167969 4.292969 19.011719 6.15625 14.550781 C 3.128906 13.949219 1.050781 11.148438 1.355469 8.074219 C 1.660156 5.003906 4.246094 2.664062 7.332031 2.667969 C 10.519531 2.667969 13.148438 5.15625 13.324219 8.339844 C 14.199219 8.113281 15.097656 8 16 8 C 16.925781 8 17.820312 8.117188 18.675781 8.339844 C 18.847656 5.15625 21.480469 2.667969 24.667969 2.667969 Z M 24.667969 2.667969 "/>
</g>
</svg>
