<?xml version="1.0" encoding="UTF-8"?>
<svg xmlns="http://www.w3.org/2000/svg" xmlns:xlink="http://www.w3.org/1999/xlink" width="32" height="32" viewBox="0 0 32 32" version="1.1">
<g id="surface1">
<path style=" stroke:none;fill-rule:evenodd;fill:rgb(100%,100%,100%);fill-opacity:1;" d="M 2 4 C 0.890625 4 0 4.890625 0 6 L 0 26 C 0 27.109375 0.890625 28 2 28 L 30 28 C 31.109375 28 32 27.109375 32 26 L 32 6 C 32 4.890625 31.109375 4 30 4 Z M 4 8 L 22 8 L 22 24 L 4 24 Z M 24 8 L 28 8 L 28 12 L 24 12 Z M 9.847656 12.003906 C 9.0625 12.003906 8.472656 12.472656 7.914062 13.050781 C 7.355469 13.628906 6.757812 14.414062 5.964844 15.441406 L 7.398438 16.550781 C 8.191406 15.523438 8.777344 14.753906 9.210938 14.304688 C 9.644531 13.855469 9.84375 13.820312 9.847656 13.820312 C 9.851562 13.820312 10.046875 13.859375 10.480469 14.304688 C 10.914062 14.753906 11.503906 15.523438 12.296875 16.550781 C 13.089844 17.578125 13.6875 18.347656 14.246094 18.925781 C 14.804688 19.503906 15.394531 19.976562 16.179688 19.976562 C 16.964844 19.976562 17.554688 19.503906 18.113281 18.925781 C 18.671875 18.347656 19.269531 17.578125 20.0625 16.550781 L 18.632812 15.441406 C 17.839844 16.46875 17.25 17.238281 16.816406 17.6875 C 16.382812 18.136719 16.183594 18.175781 16.179688 18.175781 C 16.175781 18.175781 15.980469 18.136719 15.546875 17.6875 C 15.113281 17.238281 14.523438 16.46875 13.730469 15.441406 C 12.9375 14.414062 12.339844 13.628906 11.78125 13.050781 C 11.222656 12.472656 10.632812 12.003906 9.847656 12.003906 Z M 24 14 L 28 14 L 28 16 L 24 16 Z M 26 20 C 27.105469 20 28 20.894531 28 22 C 28 23.105469 27.105469 24 26 24 C 24.894531 24 24 23.105469 24 22 C 24 20.894531 24.894531 20 26 20 Z M 26 20 "/>
</g>
</svg>
