<?xml version="1.0" encoding="UTF-8"?>
<svg xmlns="http://www.w3.org/2000/svg" xmlns:xlink="http://www.w3.org/1999/xlink" width="32" height="32" viewBox="0 0 32 32" version="1.1">
<defs>
<filter id="alpha" filterUnits="objectBoundingBox" x="0%" y="0%" width="100%" height="100%">
  <feColorMatrix type="matrix" in="SourceGraphic" values="0 0 0 0 1 0 0 0 0 1 0 0 0 0 1 0 0 0 1 0"/>
</filter>
<mask id="mask0">
  <g filter="url(#alpha)">
<rect x="0" y="0" width="32" height="32" style="fill:rgb(100%,100%,100%);fill-opacity:0.996078;stroke:none;"/>
  </g>
</mask>
<clipPath id="clip1">
  <rect x="0" y="0" width="32" height="32"/>
</clipPath>
<g id="surface5" clip-path="url(#clip1)">
<path style=" stroke:none;fill-rule:evenodd;fill:rgb(100%,100%,100%);fill-opacity:1;" d="M 1.105469 2 C 0.492188 2 0 2.492188 0 3.105469 L 0 28.894531 C 0 29.507812 0.492188 30 1.105469 30 L 30.894531 30 C 31.507812 30 32 29.507812 32 28.894531 L 32 3.105469 C 32 2.492188 31.507812 2 30.894531 2 Z M 12.988281 6 C 13.542969 5.996094 13.996094 6.449219 13.992188 7.003906 L 13.992188 23.992188 L 16 23.992188 L 16 14 L 18 14 L 18 23.992188 L 20 23.992188 L 20 8 L 22 8 L 22 23.992188 L 24 23.992188 L 24 12 L 26 12 L 26 23.992188 L 26.996094 23.992188 C 27.550781 23.988281 28.003906 24.441406 28 24.996094 C 28.003906 25.550781 27.550781 26.003906 26.996094 26 L 12.988281 26 C 12.4375 25.992188 11.996094 25.546875 12 24.996094 L 12 7.003906 C 11.996094 6.453125 12.4375 6.007812 12.988281 6 Z M 4 8 L 10 8 L 10 10 L 4 10 Z M 4 13 L 10 13 L 10 15 L 4 15 Z M 7 18 C 8.65625 18 10 19.34375 10 21 C 10 22.65625 8.65625 24 7 24 C 5.34375 24 4 22.65625 4 21 C 4 19.34375 5.34375 18 7 18 Z M 7 18 "/>
</g>
</defs>
<g id="surface1">
<use xlink:href="#surface5" mask="url(#mask0)"/>
</g>
</svg>
