<?xml version="1.0" encoding="UTF-8"?>
<svg xmlns="http://www.w3.org/2000/svg" xmlns:xlink="http://www.w3.org/1999/xlink" width="32" height="32" viewBox="0 0 32 32" version="1.1">
<g id="surface1">
<path style=" stroke:none;fill-rule:nonzero;fill:rgb(100%,100%,100%);fill-opacity:1;" d="M 13.332031 9.332031 C 13.332031 13.125 15.628906 16.542969 19.136719 17.976562 C 22.648438 19.410156 26.679688 18.574219 29.332031 15.867188 L 29.332031 16 C 29.332031 23.363281 23.363281 29.332031 16 29.332031 C 8.636719 29.332031 2.667969 23.363281 2.667969 16 C 2.667969 8.636719 8.636719 2.667969 16 2.667969 L 16.132812 2.667969 C 14.339844 4.421875 13.328125 6.824219 13.332031 9.332031 Z M 5.332031 16 C 5.332031 20.898438 8.664062 25.167969 13.414062 26.351562 C 18.167969 27.539062 23.113281 25.339844 25.414062 21.015625 C 21.371094 21.96875 17.117188 20.761719 14.179688 17.820312 C 11.238281 14.882812 10.03125 10.628906 10.984375 6.585938 C 7.503906 8.4375 5.332031 12.058594 5.332031 16 Z M 5.332031 16 "/>
</g>
</svg>
