<?xml version="1.0" encoding="UTF-8"?>
<svg xmlns="http://www.w3.org/2000/svg" xmlns:xlink="http://www.w3.org/1999/xlink" width="32" height="32" viewBox="0 0 32 32" version="1.1">
<g id="surface1">
<path style=" stroke:none;fill-rule:evenodd;fill:rgb(100%,100%,100%);fill-opacity:1;" d="M 19.996094 14.921875 C 19.996094 17.089844 18.207031 18.847656 16 18.847656 C 13.792969 18.847656 12.003906 17.089844 12.003906 14.921875 C 12.003906 12.753906 13.792969 11 16 11 C 18.207031 11 19.996094 12.753906 19.996094 14.921875 "/>
<path style=" stroke:none;fill-rule:evenodd;fill:rgb(100%,100%,100%);fill-opacity:1;" d="M 7.8125 1 C 4.050781 3.132812 1.308594 6.644531 0.183594 10.761719 L 10.390625 13.445312 C 10.789062 11.964844 11.734375 10.691406 13.039062 9.890625 Z M 24.1875 1 L 19.054688 9.730469 C 20.464844 10.5 21.507812 11.808594 21.949219 13.355469 L 31.816406 10.761719 C 30.691406 6.644531 27.949219 3.132812 24.1875 1 Z M 13.628906 20.429688 L 9.628906 29.734375 C 13.628906 31.394531 18.136719 31.421875 22.160156 29.820312 L 18.34375 20.59375 C 17.65625 20.859375 16.921875 21 16.183594 21 C 15.300781 21 14.429688 20.804688 13.628906 20.429688 Z M 13.628906 20.429688 "/>
</g>
</svg>
