<?xml version="1.0" encoding="UTF-8"?>
<svg xmlns="http://www.w3.org/2000/svg" xmlns:xlink="http://www.w3.org/1999/xlink" width="32" height="32" viewBox="0 0 32 32" version="1.1">
<g id="surface1">
<path style=" stroke:none;fill-rule:nonzero;fill:rgb(100%,100%,100%);fill-opacity:1;" d="M 16 2 C 17.761719 2 19.3125 2.464844 20.597656 3.324219 C 21.878906 4.183594 22.898438 5.441406 23.59375 7.03125 C 24.289062 8.617188 24.667969 10.53125 24.667969 12.707031 L 24.667969 19.292969 C 24.667969 21.46875 24.289062 23.386719 23.59375 24.96875 C 22.898438 26.558594 21.878906 27.816406 20.59375 28.675781 C 19.3125 29.535156 17.761719 30 16 30 C 14.238281 30 12.6875 29.535156 11.402344 28.675781 C 10.121094 27.816406 9.101562 26.558594 8.40625 24.96875 C 7.710938 23.382812 7.332031 21.46875 7.332031 19.292969 L 7.332031 12.707031 C 7.332031 10.53125 7.710938 8.613281 8.40625 7.03125 C 9.101562 5.441406 10.121094 4.183594 11.40625 3.324219 C 12.6875 2.464844 14.238281 2 16 2 Z M 16 4.667969 C 14.777344 4.667969 13.742188 4.96875 12.890625 5.539062 C 12.039062 6.109375 11.34375 6.964844 10.847656 8.101562 C 10.296875 9.351562 10 10.910156 10 12.707031 L 10 19.292969 C 10 21.089844 10.296875 22.648438 10.847656 23.898438 C 11.34375 25.035156 12.039062 25.890625 12.890625 26.460938 C 13.742188 27.03125 14.777344 27.332031 16 27.332031 C 17.222656 27.332031 18.257812 27.03125 19.109375 26.460938 C 19.960938 25.890625 20.65625 25.035156 21.152344 23.898438 C 21.703125 22.648438 22 21.089844 22 19.292969 L 22 12.707031 C 22 10.910156 21.703125 9.351562 21.152344 8.101562 C 20.65625 6.964844 19.960938 6.109375 19.109375 5.539062 C 18.257812 4.96875 17.222656 4.667969 16 4.667969 Z M 16 4.667969 "/>
</g>
</svg>
