<?xml version="1.0" encoding="UTF-8"?>
<svg xmlns="http://www.w3.org/2000/svg" xmlns:xlink="http://www.w3.org/1999/xlink" width="32" height="32" viewBox="0 0 32 32" version="1.1">
<g id="surface1">
<path style=" stroke:none;fill-rule:nonzero;fill:rgb(100%,100%,100%);fill-opacity:1;" d="M 19.6875 26.011719 C 23.882812 24.46875 26.671875 20.472656 26.671875 16 C 26.671875 11.527344 23.882812 7.53125 19.6875 5.988281 C 22.28125 7.96875 24 11.914062 24 16 C 24 20.085938 22.28125 24.03125 19.6875 26.011719 Z M 12.3125 5.988281 C 8.117188 7.53125 5.328125 11.527344 5.328125 16 C 5.328125 20.472656 8.117188 24.46875 12.3125 26.011719 C 9.71875 24.03125 8 20.085938 8 16 C 8 11.914062 9.71875 7.96875 12.3125 5.988281 Z M 16 29.332031 C 8.636719 29.332031 2.667969 23.363281 2.667969 16 C 2.667969 8.636719 8.636719 2.667969 16 2.667969 C 23.363281 2.667969 29.332031 8.636719 29.332031 16 C 29.332031 23.363281 23.363281 29.332031 16 29.332031 Z M 16 24.667969 C 18.667969 24.667969 21.332031 20.621094 21.332031 16 C 21.332031 11.378906 18.667969 7.332031 16 7.332031 C 13.332031 7.332031 10.667969 11.378906 10.667969 16 C 10.667969 20.621094 13.332031 24.667969 16 24.667969 Z M 16 24.667969 "/>
</g>
</svg>
