<?xml version="1.0" encoding="UTF-8"?>
<svg xmlns="http://www.w3.org/2000/svg" xmlns:xlink="http://www.w3.org/1999/xlink" width="32" height="32" viewBox="0 0 32 32" version="1.1">
<g id="surface1">
<path style=" stroke:none;fill-rule:nonzero;fill:rgb(100%,100%,100%);fill-opacity:1;" d="M 22.667969 28 L 22.667969 22.667969 L 9.332031 22.667969 L 9.332031 28 L 6.667969 28 L 6.667969 21.332031 C 6.667969 20.597656 7.261719 20 8 20 L 24 20 C 24.738281 20 25.332031 20.597656 25.332031 21.332031 L 25.332031 28 Z M 9.332031 4 L 9.332031 9.332031 L 22.667969 9.332031 L 22.667969 4 L 25.332031 4 L 25.332031 10.667969 C 25.332031 11.402344 24.738281 12 24 12 L 8 12 C 7.261719 12 6.667969 11.402344 6.667969 10.667969 L 6.667969 4 Z M 2.667969 12 L 8 16 L 2.667969 20 Z M 29.332031 12 L 29.332031 20 L 24 16 Z M 29.332031 12 "/>
</g>
</svg>
