<?xml version="1.0" encoding="UTF-8"?>
<svg xmlns="http://www.w3.org/2000/svg" xmlns:xlink="http://www.w3.org/1999/xlink" width="32" height="32" viewBox="0 0 32 32" version="1.1">
<defs>
<filter id="alpha" filterUnits="objectBoundingBox" x="0%" y="0%" width="100%" height="100%">
  <feColorMatrix type="matrix" in="SourceGraphic" values="0 0 0 0 1 0 0 0 0 1 0 0 0 0 1 0 0 0 1 0"/>
</filter>
<mask id="mask0">
  <g filter="url(#alpha)">
<rect x="0" y="0" width="32" height="32" style="fill:rgb(100%,100%,100%);fill-opacity:0.996078;stroke:none;"/>
  </g>
</mask>
<clipPath id="clip1">
  <rect x="0" y="0" width="32" height="32"/>
</clipPath>
<g id="surface5" clip-path="url(#clip1)">
<path style=" stroke:none;fill-rule:evenodd;fill:rgb(100%,100%,100%);fill-opacity:1;" d="M 11.25 2 C 11.351562 2.011719 8.976562 5.347656 9.078125 5.332031 C 9.179688 5.316406 5.988281 2.753906 6.082031 2.714844 C 6.175781 2.675781 5.789062 6.75 5.867188 6.6875 C 5.945312 6.625 1.902344 6 1.964844 5.917969 C 2.027344 5.835938 3.726562 9.558594 3.765625 9.464844 C 3.804688 9.371094 -0.0117188 10.851562 0 10.75 C 0.0117188 10.648438 3.347656 13.023438 3.332031 12.921875 C 3.316406 12.820312 0.753906 16.011719 0.714844 15.917969 C 0.675781 15.824219 4.75 16.210938 4.6875 16.132812 C 4.640625 16.074219 4.339844 17.867188 4.125 18.996094 C 1.789062 19.34375 0.0390625 21.691406 0.0351562 24.472656 C 0.0351562 27.527344 2.128906 30 4.710938 30 C 4.726562 30 4.738281 30 4.753906 30 L 25.964844 30 C 25.96875 30 25.96875 30 25.972656 30 C 29.28125 30 31.964844 26.828125 31.964844 22.917969 C 31.964844 19.007812 29.28125 15.835938 25.972656 15.835938 C 25.707031 15.835938 25.445312 15.855469 25.183594 15.898438 C 24.453125 12.433594 21.820312 10 18.796875 10 C 18.347656 10 17.898438 10.054688 17.460938 10.164062 C 18.222656 9.265625 19.257812 8.015625 19.285156 8.082031 C 19.324219 8.175781 15.25 7.789062 15.3125 7.867188 C 15.375 7.945312 16 3.902344 16.082031 3.964844 C 16.164062 4.027344 12.441406 5.726562 12.535156 5.765625 C 12.628906 5.804688 11.148438 1.988281 11.25 2 Z M 9.855469 7 C 9.878906 7 9.902344 7 9.925781 7 C 9.949219 7 9.976562 7 10 7 C 12.550781 7 14.691406 8.917969 14.96875 11.453125 C 14.457031 11.886719 14 12.402344 13.613281 12.988281 C 13.703125 12.667969 13.75 12.335938 13.75 12 C 13.75 9.929688 12.070312 8.25 10 8.25 C 7.929688 8.25 6.25 9.929688 6.25 12 C 6.25 13.0625 6.703125 14.078125 7.496094 14.789062 C 7.140625 15.011719 6.804688 15.269531 6.492188 15.5625 C 5.539062 14.621094 5 13.339844 5 12 C 5 9.292969 7.152344 7.078125 9.855469 7 Z M 9.855469 7 "/>
</g>
</defs>
<g id="surface1">
<use xlink:href="#surface5" mask="url(#mask0)"/>
</g>
</svg>
