<?xml version="1.0" encoding="UTF-8"?>
<svg xmlns="http://www.w3.org/2000/svg" xmlns:xlink="http://www.w3.org/1999/xlink" width="32" height="32" viewBox="0 0 32 32" version="1.1">
<g id="surface1">
<path style=" stroke:none;fill-rule:nonzero;fill:rgb(100%,100%,100%);fill-opacity:1;" d="M 26.667969 2.667969 C 27.402344 2.667969 28 3.261719 28 4 L 28 28 C 28 28.738281 27.402344 29.332031 26.667969 29.332031 L 5.332031 29.332031 C 4.597656 29.332031 4 28.738281 4 28 L 4 4 C 4 3.261719 4.597656 2.667969 5.332031 2.667969 Z M 21.332031 21.332031 L 10.667969 21.332031 L 10.667969 24 L 21.332031 24 Z M 16 8 C 13.054688 8 10.667969 10.386719 10.667969 13.332031 C 10.667969 16.277344 13.054688 18.667969 16 18.667969 C 18.945312 18.667969 21.332031 16.277344 21.332031 13.332031 C 21.332031 10.386719 18.945312 8 16 8 Z M 16 10.667969 C 17.472656 10.667969 18.667969 11.859375 18.667969 13.332031 C 18.667969 14.804688 17.472656 16 16 16 C 14.527344 16 13.332031 14.804688 13.332031 13.332031 C 13.332031 11.859375 14.527344 10.667969 16 10.667969 Z M 16 10.667969 "/>
</g>
</svg>
