<?xml version="1.0" encoding="UTF-8"?>
<svg xmlns="http://www.w3.org/2000/svg" xmlns:xlink="http://www.w3.org/1999/xlink" width="32" height="32" viewBox="0 0 32 32" version="1.1">
<g id="surface1">
<path style=" stroke:none;fill-rule:nonzero;fill:rgb(100%,100%,100%);fill-opacity:1;" d="M 9.398438 18.828125 L 6.574219 21.65625 L 10.34375 25.429688 L 25.429688 10.34375 L 21.65625 6.574219 L 18.828125 9.398438 L 20.714844 11.285156 L 18.828125 13.171875 L 16.941406 11.285156 L 15.054688 13.171875 L 16.941406 15.058594 L 15.054688 16.945312 L 13.171875 15.058594 L 11.285156 16.945312 L 13.171875 18.828125 L 11.285156 20.714844 Z M 22.601562 3.742188 L 28.257812 9.398438 C 28.777344 9.921875 28.777344 10.765625 28.257812 11.285156 L 11.285156 28.257812 C 10.765625 28.777344 9.921875 28.777344 9.398438 28.257812 L 3.742188 22.601562 C 3.222656 22.078125 3.222656 21.234375 3.742188 20.714844 L 20.714844 3.742188 C 21.234375 3.222656 22.078125 3.222656 22.601562 3.742188 Z M 18.828125 24.484375 L 20.714844 22.597656 L 23.703125 25.589844 L 25.589844 25.589844 L 25.589844 23.703125 L 22.597656 20.714844 L 24.484375 18.828125 L 28 22.34375 L 28 28 L 22.34375 28 Z M 7.515625 13.171875 L 3.742188 9.398438 C 3.492188 9.148438 3.351562 8.808594 3.351562 8.457031 C 3.351562 8.101562 3.492188 7.761719 3.742188 7.511719 L 7.515625 3.742188 C 8.035156 3.222656 8.878906 3.222656 9.398438 3.742188 L 13.171875 7.511719 L 11.285156 9.398438 L 8.457031 6.570312 L 6.570312 8.457031 L 9.398438 11.285156 Z M 7.515625 13.171875 "/>
</g>
</svg>
