<?xml version="1.0" encoding="UTF-8"?>
<svg xmlns="http://www.w3.org/2000/svg" xmlns:xlink="http://www.w3.org/1999/xlink" width="32" height="32" viewBox="0 0 32 32" version="1.1">
<g id="surface1">
<path style=" stroke:none;fill-rule:nonzero;fill:rgb(100%,100%,100%);fill-opacity:1;" d="M 5.996094 0 C 4.351562 0 3 1.351562 3 2.996094 L 3 15 C 3 16.546875 3.621094 18.023438 4.714844 19.117188 L 6.292969 20.714844 C 7.121094 21.542969 8.25 21.996094 9.421875 21.996094 L 22 21.996094 C 23.546875 21.996094 25.027344 21.394531 26.121094 20.300781 L 27.300781 19.117188 C 28.394531 18.023438 29 16.546875 29 15 L 29 2.996094 C 29 1.351562 27.648438 0 26.003906 0 Z M 16 4 L 18 4 L 18 8 L 22 8 L 22 4 L 24 4 L 24 14 L 22 14 L 22 10 L 18 10 L 18 14 L 16 14 Z M 8 8 L 14 8 L 14 14 L 10 14 L 10 18 L 8 18 Z M 10 10 L 10 12 L 12 12 L 12 10 Z M 10.003906 22 L 10.003906 26 L 12.003906 26 L 12.003906 32 L 20.003906 32 L 20.003906 26 L 22.003906 26 L 22.003906 22 L 20.003906 22 L 20.003906 24 L 12.003906 24 L 12.003906 22 Z M 10.003906 22 "/>
</g>
</svg>
