<?xml version="1.0" encoding="UTF-8"?>
<svg xmlns="http://www.w3.org/2000/svg" xmlns:xlink="http://www.w3.org/1999/xlink" width="32" height="32" viewBox="0 0 32 32" version="1.1">
<g id="surface1">
<path style=" stroke:none;fill-rule:evenodd;fill:rgb(100%,100%,100%);fill-opacity:1;" d="M 29.015625 0.00390625 C 26.324219 0.0195312 23.609375 0.0117188 20.914062 0.0117188 L 17.207031 7.234375 L 20.714844 13.015625 C 20.328125 13.53125 19.910156 14.019531 19.503906 14.515625 L 23.027344 19.210938 C 26.945312 14.769531 29.980469 9.527344 31.855469 3.734375 C 32.34375 2.238281 31.523438 0.628906 30.03125 0.140625 C 29.703125 0.03125 29.359375 -0.0117188 29.015625 0.00390625 Z M 17.464844 16.792969 C 17.136719 17.128906 16.796875 17.453125 16.460938 17.777344 L 19.910156 22.382812 C 20.253906 22.0625 20.597656 21.746094 20.933594 21.417969 Z M 6.785156 16.933594 L 0.0195312 21.089844 L 0.0195312 28.691406 L 0.046875 28.675781 C -0.03125 29.125 0 29.589844 0.144531 30.027344 C 0.625 31.519531 2.230469 32.34375 3.726562 31.863281 C 8.851562 30.203125 13.546875 27.632812 17.640625 24.347656 L 14.199219 19.761719 C 13.761719 20.113281 13.332031 20.476562 12.882812 20.8125 Z M 6.785156 16.933594 "/>
<path style=" stroke:none;fill-rule:nonzero;fill:rgb(100%,100%,100%);fill-opacity:1;" d="M 2.496094 0 C 2.496094 0.324219 2.597656 0.640625 2.792969 0.902344 L 26.117188 32 L 29.5 32 C 29.5 31.675781 29.394531 31.359375 29.199219 31.097656 L 5.878906 0 Z M 2.496094 0 "/>
</g>
</svg>
