<?xml version="1.0" encoding="UTF-8"?>
<svg xmlns="http://www.w3.org/2000/svg" xmlns:xlink="http://www.w3.org/1999/xlink" width="32" height="32" viewBox="0 0 32 32" version="1.1">
<g id="surface1">
<path style=" stroke:none;fill-rule:nonzero;fill:rgb(100%,100%,100%);fill-opacity:1;" d="M 13.300781 11.964844 C 15.121094 10.144531 15.121094 7.191406 13.300781 5.367188 C 11.476562 3.542969 8.523438 3.542969 6.699219 5.367188 C 4.878906 7.191406 4.878906 10.144531 6.699219 11.964844 L 10 15.265625 Z M 10 19.039062 L 4.8125 13.851562 C 1.949219 10.988281 1.953125 6.347656 4.816406 3.484375 C 7.679688 0.621094 12.320312 0.621094 15.183594 3.484375 C 18.046875 6.347656 18.050781 10.988281 15.1875 13.851562 Z M 10 10.667969 C 8.894531 10.667969 8 9.769531 8 8.667969 C 8 7.5625 8.894531 6.667969 10 6.667969 C 11.105469 6.667969 12 7.5625 12 8.667969 C 12 9.769531 11.105469 10.667969 10 10.667969 Z M 22 27.265625 L 25.300781 23.964844 C 27.121094 22.144531 27.121094 19.191406 25.300781 17.367188 C 23.476562 15.542969 20.523438 15.542969 18.699219 17.367188 C 16.878906 19.191406 16.878906 22.144531 18.699219 23.964844 Z M 27.1875 25.851562 L 22 31.039062 L 16.8125 25.851562 C 13.949219 22.988281 13.953125 18.34375 16.816406 15.480469 C 19.679688 12.617188 24.320312 12.617188 27.183594 15.480469 C 30.046875 18.34375 30.050781 22.988281 27.1875 25.851562 Z M 22 22.667969 C 20.894531 22.667969 20 21.769531 20 20.667969 C 20 19.5625 20.894531 18.667969 22 18.667969 C 23.105469 18.667969 24 19.5625 24 20.667969 C 24 21.769531 23.105469 22.667969 22 22.667969 Z M 22 22.667969 "/>
</g>
</svg>
