<?xml version="1.0" encoding="UTF-8"?>
<svg xmlns="http://www.w3.org/2000/svg" xmlns:xlink="http://www.w3.org/1999/xlink" width="32" height="32" viewBox="0 0 32 32" version="1.1">
<g id="surface1">
<path style=" stroke:none;fill-rule:nonzero;fill:rgb(100%,100%,100%);fill-opacity:1;" d="M 17.332031 24 L 17.332031 26.667969 L 25.332031 26.667969 L 25.332031 29.332031 L 17.332031 29.332031 C 15.859375 29.332031 14.667969 28.140625 14.667969 26.667969 L 14.667969 24 L 10.667969 24 C 7.722656 24 5.332031 21.613281 5.332031 18.667969 L 5.332031 9.332031 C 5.332031 8.597656 5.929688 8 6.667969 8 L 10.667969 8 L 10.667969 2.667969 L 13.332031 2.667969 L 13.332031 8 L 18.667969 8 L 18.667969 2.667969 L 21.332031 2.667969 L 21.332031 8 L 25.332031 8 C 26.070312 8 26.667969 8.597656 26.667969 9.332031 L 26.667969 18.667969 C 26.667969 21.613281 24.277344 24 21.332031 24 Z M 10.667969 21.332031 L 21.332031 21.332031 C 22.804688 21.332031 24 20.140625 24 18.667969 L 24 14.667969 L 8 14.667969 L 8 18.667969 C 8 20.140625 9.195312 21.332031 10.667969 21.332031 Z M 24 10.667969 L 8 10.667969 L 8 12 L 24 12 Z M 16 19.332031 C 15.261719 19.332031 14.667969 18.738281 14.667969 18 C 14.667969 17.261719 15.261719 16.667969 16 16.667969 C 16.738281 16.667969 17.332031 17.261719 17.332031 18 C 17.332031 18.738281 16.738281 19.332031 16 19.332031 Z M 16 19.332031 "/>
</g>
</svg>
