<?xml version="1.0" encoding="UTF-8"?>
<svg xmlns="http://www.w3.org/2000/svg" xmlns:xlink="http://www.w3.org/1999/xlink" width="32" height="32" viewBox="0 0 32 32" version="1.1">
<g id="surface1">
<path style=" stroke:none;fill-rule:nonzero;fill:rgb(100%,100%,100%);fill-opacity:1;" d="M 4 4 L 28 4 C 28.738281 4 29.332031 4.597656 29.332031 5.332031 L 29.332031 26.667969 C 29.332031 27.402344 28.738281 28 28 28 L 4 28 C 3.261719 28 2.667969 27.402344 2.667969 26.667969 L 2.667969 5.332031 C 2.667969 4.597656 3.261719 4 4 4 Z M 14.835938 16 L 5.332031 16 L 5.332031 25.332031 L 26.667969 25.332031 L 26.667969 16 L 25.164062 16 C 24.554688 18.355469 22.429688 19.996094 20 19.996094 C 17.570312 19.996094 15.445312 18.355469 14.835938 16 Z M 14.835938 13.332031 C 15.445312 10.980469 17.570312 9.335938 20 9.335938 C 22.429688 9.335938 24.554688 10.980469 25.164062 13.332031 L 26.667969 13.332031 L 26.667969 6.667969 L 5.332031 6.667969 L 5.332031 13.332031 Z M 20 17.332031 C 21.472656 17.332031 22.667969 16.140625 22.667969 14.667969 C 22.667969 13.195312 21.472656 12 20 12 C 18.527344 12 17.332031 13.195312 17.332031 14.667969 C 17.332031 16.140625 18.527344 17.332031 20 17.332031 Z M 8 20 L 10.667969 20 L 10.667969 22.667969 L 8 22.667969 Z M 8 20 "/>
</g>
</svg>
