<?xml version="1.0" encoding="UTF-8"?>
<svg xmlns="http://www.w3.org/2000/svg" xmlns:xlink="http://www.w3.org/1999/xlink" width="32" height="32" viewBox="0 0 32 32" version="1.1">
<g id="surface1">
<path style=" stroke:none;fill-rule:nonzero;fill:rgb(100%,100%,100%);fill-opacity:1;" d="M 21.332031 24 L 21.332031 21.332031 L 22.667969 21.332031 C 24.9375 21.332031 26.960938 19.890625 27.703125 17.746094 C 28.445312 15.601562 27.75 13.21875 25.964844 11.8125 C 24.183594 10.40625 21.703125 10.28125 19.789062 11.507812 C 18.875 7.605469 15.210938 4.980469 11.222656 5.375 C 7.230469 5.765625 4.148438 9.046875 4.007812 13.054688 C 3.867188 17.0625 6.714844 20.554688 10.667969 21.222656 L 10.667969 23.917969 C 5.078125 23.214844 1.003906 18.285156 1.355469 12.667969 C 1.707031 7.046875 6.367188 2.667969 12 2.667969 C 15.859375 2.664062 19.417969 4.75 21.308594 8.117188 C 24.285156 7.601562 27.296875 8.8125 29.09375 11.238281 C 30.890625 13.667969 31.167969 16.902344 29.808594 19.597656 C 28.449219 22.296875 25.6875 24 22.667969 24 Z M 13.644531 24.976562 L 16 22.617188 L 18.355469 24.976562 C 19.660156 26.277344 19.660156 28.386719 18.355469 29.691406 C 17.054688 30.992188 14.945312 30.992188 13.644531 29.691406 C 12.339844 28.386719 12.339844 26.277344 13.644531 24.976562 Z M 13.644531 24.976562 "/>
</g>
</svg>
