<?xml version="1.0" encoding="UTF-8"?>
<svg xmlns="http://www.w3.org/2000/svg" xmlns:xlink="http://www.w3.org/1999/xlink" width="32" height="32" viewBox="0 0 32 32" version="1.1">
<g id="surface1">
<path style=" stroke:none;fill-rule:nonzero;fill:rgb(100%,100%,100%);fill-opacity:1;" d="M 26.082031 16.128906 L 28.125 19.667969 C 29.414062 21.898438 28.648438 24.753906 26.417969 26.042969 C 25.707031 26.449219 24.902344 26.667969 24.085938 26.667969 L 21.332031 26.667969 L 21.332031 30 L 14.667969 25.332031 L 21.332031 20.667969 L 21.332031 24 L 24.082031 24 C 24.433594 24 24.777344 23.90625 25.082031 23.730469 C 26.039062 23.179688 26.367188 21.957031 25.816406 21 L 23.773438 17.460938 Z M 9.738281 12.179688 L 10.445312 20.285156 L 7.558594 18.617188 L 6.183594 21 C 6.007812 21.304688 5.917969 21.648438 5.917969 22 C 5.917969 23.105469 6.8125 24 7.917969 24 L 12 24 L 12 26.667969 L 7.917969 26.667969 C 5.339844 26.667969 3.25 24.578125 3.25 22 C 3.25 21.179688 3.464844 20.375 3.875 19.667969 L 5.25 17.285156 L 2.363281 15.617188 Z M 18.332031 3.957031 C 19.042969 4.367188 19.632812 4.957031 20.042969 5.667969 L 21.414062 8.046875 L 24.300781 6.378906 L 23.597656 14.488281 L 16.21875 11.046875 L 19.105469 9.382812 L 17.730469 7 C 17.554688 6.695312 17.304688 6.445312 17 6.269531 C 16.042969 5.714844 14.820312 6.042969 14.269531 7 L 12.226562 10.539062 L 9.914062 9.203125 L 11.960938 5.667969 C 13.246094 3.433594 16.101562 2.667969 18.335938 3.957031 Z M 18.332031 3.957031 "/>
</g>
</svg>
