<?xml version="1.0" encoding="UTF-8"?>
<svg xmlns="http://www.w3.org/2000/svg" xmlns:xlink="http://www.w3.org/1999/xlink" width="32" height="32" viewBox="0 0 32 32" version="1.1">
<g id="surface1">
<path style=" stroke:none;fill-rule:nonzero;fill:rgb(100%,100%,100%);fill-opacity:1;" d="M 22.667969 16 C 23.402344 16 24 16.597656 24 17.332031 L 24 29.332031 L 21.332031 29.332031 L 21.332031 18.667969 L 10.667969 18.667969 L 10.667969 29.332031 L 8 29.332031 L 8 17.332031 C 8 16.597656 8.597656 16 9.332031 16 Z M 16 21.332031 L 16 24 L 13.332031 24 L 13.332031 21.332031 Z M 16 8 C 19.03125 8 21.800781 9.710938 23.15625 12.421875 L 20.769531 13.613281 C 19.867188 11.808594 18.019531 10.664062 16 10.664062 C 13.976562 10.664062 12.132812 11.808594 11.226562 13.613281 L 8.84375 12.421875 C 10.199219 9.710938 12.96875 8 16 8 Z M 16 2.667969 C 21.050781 2.664062 25.667969 5.519531 27.929688 10.035156 L 25.542969 11.230469 C 23.734375 7.613281 20.039062 5.332031 16 5.332031 C 11.960938 5.332031 8.265625 7.613281 6.457031 11.230469 L 4.070312 10.035156 C 6.332031 5.519531 10.949219 2.664062 16 2.667969 Z M 16 2.667969 "/>
</g>
</svg>
