<?xml version="1.0" encoding="UTF-8"?>
<svg xmlns="http://www.w3.org/2000/svg" xmlns:xlink="http://www.w3.org/1999/xlink" width="32" height="32" viewBox="0 0 32 32" version="1.1">
<g id="surface1">
<path style=" stroke:none;fill-rule:nonzero;fill:rgb(100%,100%,100%);fill-opacity:1;" d="M 12 13.148438 L 7.957031 16 L 12 18.851562 Z M 14.542969 23.097656 C 14.332031 23.398438 13.917969 23.46875 13.617188 23.257812 L 4.105469 16.542969 C 3.929688 16.417969 3.824219 16.214844 3.824219 16 C 3.824219 15.785156 3.929688 15.582031 4.105469 15.457031 L 13.617188 8.742188 C 13.820312 8.597656 14.085938 8.578125 14.308594 8.695312 C 14.527344 8.808594 14.667969 9.039062 14.667969 9.285156 L 14.667969 22.714844 C 14.667969 22.851562 14.625 22.984375 14.542969 23.097656 Z M 24 18.851562 L 24 13.148438 L 19.957031 16 Z M 16.105469 16.542969 C 15.929688 16.417969 15.824219 16.214844 15.824219 16 C 15.824219 15.785156 15.929688 15.582031 16.105469 15.457031 L 25.617188 8.742188 C 25.820312 8.597656 26.085938 8.578125 26.308594 8.695312 C 26.527344 8.808594 26.667969 9.039062 26.667969 9.285156 L 26.667969 22.714844 C 26.667969 22.960938 26.527344 23.191406 26.308594 23.304688 C 26.085938 23.421875 25.820312 23.402344 25.617188 23.257812 Z M 16.105469 16.542969 "/>
</g>
</svg>
