<?xml version="1.0" encoding="UTF-8"?>
<svg xmlns="http://www.w3.org/2000/svg" xmlns:xlink="http://www.w3.org/1999/xlink" width="32" height="32" viewBox="0 0 32 32" version="1.1">
<g id="surface1">
<path style=" stroke:none;fill-rule:nonzero;fill:rgb(100%,100%,100%);fill-opacity:1;" d="M 9.15625 0.078125 C 4.160156 0.078125 0.0859375 4.203125 0.0859375 9.269531 L 0.0859375 23.5625 C 0.0859375 28.078125 3.730469 31.765625 8.183594 31.765625 L 21.632812 31.765625 C 21.796875 31.855469 21.980469 31.921875 22.191406 31.921875 L 27.480469 31.921875 C 29.917969 31.921875 31.914062 29.898438 31.914062 27.429688 L 31.914062 22.609375 C 31.914062 21.9375 31.359375 21.398438 30.699219 21.429688 C 30.421875 21.441406 30.160156 21.554688 29.957031 21.742188 L 21.542969 29.753906 L 8.183594 29.753906 C 4.804688 29.753906 2.070312 26.988281 2.070312 23.5625 L 2.070312 9.269531 C 2.070312 5.292969 5.230469 2.089844 9.15625 2.089844 L 22.835938 2.089844 C 26.667969 2.089844 29.753906 5.21875 29.753906 9.097656 L 29.753906 15.792969 L 19.789062 25.554688 L 9.277344 25.554688 C 7.992188 25.554688 6.984375 24.519531 6.984375 23.214844 L 6.984375 9.636719 C 6.984375 7.894531 8.347656 6.496094 10.066406 6.496094 L 22.613281 6.496094 C 23.902344 6.496094 24.925781 7.53125 24.925781 8.835938 L 24.925781 14.265625 L 18.179688 21.082031 L 12.289062 21.082031 C 11.867188 21.082031 11.539062 20.765625 11.539062 20.335938 L 11.539062 15.308594 C 11.539062 14.976562 11.796875 14.734375 12.121094 14.734375 L 12.964844 14.734375 L 12.964844 15.53125 C 12.964844 16.140625 13.449219 16.632812 14.054688 16.632812 L 17.820312 16.632812 C 18.421875 16.632812 18.90625 16.140625 18.90625 15.53125 L 18.90625 11.714844 C 18.90625 11.105469 18.421875 10.613281 17.820312 10.613281 L 14.054688 10.613281 C 13.449219 10.613281 12.964844 11.105469 12.964844 11.714844 L 12.964844 12.722656 L 12.125 12.722656 C 10.722656 12.722656 9.550781 13.890625 9.550781 15.308594 L 9.550781 20.335938 C 9.550781 21.851562 10.792969 23.09375 12.292969 23.09375 L 19.003906 23.09375 L 26.910156 15.097656 L 26.910156 8.835938 C 26.910156 6.445312 24.976562 4.484375 22.613281 4.484375 L 10.070312 4.484375 C 7.277344 4.484375 5 6.808594 5 9.636719 L 5 23.214844 C 5 25.605469 6.917969 27.570312 9.28125 27.570312 L 20.597656 27.570312 L 31.742188 16.640625 L 31.742188 9.097656 C 31.742188 4.128906 27.742188 0.078125 22.839844 0.078125 Z M 9.15625 0.078125 "/>
</g>
</svg>
