<?xml version="1.0" encoding="UTF-8"?>
<svg xmlns="http://www.w3.org/2000/svg" xmlns:xlink="http://www.w3.org/1999/xlink" width="32" height="32" viewBox="0 0 32 32" version="1.1">
<g id="surface1">
<path style=" stroke:none;fill-rule:nonzero;fill:rgb(100%,100%,100%);fill-opacity:1;" d="M 29.332031 18 L 29.332031 28 C 29.332031 28.738281 28.738281 29.332031 28 29.332031 L 26.667969 29.332031 C 25.929688 29.332031 25.332031 28.738281 25.332031 28 L 25.332031 26.667969 L 6.667969 26.667969 L 6.667969 28 C 6.667969 28.738281 6.070312 29.332031 5.332031 29.332031 L 4 29.332031 C 3.261719 29.332031 2.667969 28.738281 2.667969 28 L 2.667969 18 L 1.007812 17.585938 C 0.417969 17.4375 0 16.90625 0 16.292969 L 0 15.332031 C 0 14.964844 0.296875 14.667969 0.667969 14.667969 L 3.167969 14.667969 L 6.015625 7.0625 C 6.40625 6.023438 7.402344 5.332031 8.515625 5.332031 L 23.484375 5.332031 C 24.597656 5.332031 25.59375 6.023438 25.984375 7.0625 L 28.832031 14.667969 L 31.332031 14.667969 C 31.703125 14.667969 32 14.964844 32 15.332031 L 32 16.292969 C 32 16.90625 31.582031 17.4375 30.992188 17.585938 Z M 5.332031 20 L 5.332031 22.667969 C 5.332031 23.402344 5.929688 24 6.667969 24 L 10.992188 24 C 11.226562 24 11.445312 23.875 11.566406 23.675781 C 11.683594 23.472656 11.691406 23.226562 11.578125 23.019531 C 10.507812 21.003906 8.425781 20 5.332031 20 Z M 26.667969 20 C 23.578125 20 21.496094 21.007812 20.417969 23.019531 C 20.308594 23.226562 20.3125 23.476562 20.433594 23.675781 C 20.554688 23.878906 20.773438 24 21.007812 24 L 25.332031 24 C 26.070312 24 26.667969 23.402344 26.667969 22.667969 Z M 8 8 L 5.917969 14.246094 C 5.785156 14.652344 5.851562 15.097656 6.101562 15.445312 C 6.351562 15.792969 6.753906 16 7.183594 16 L 24.816406 16 C 25.246094 16 25.648438 15.792969 25.898438 15.445312 C 26.148438 15.097656 26.214844 14.652344 26.082031 14.246094 L 24 8 Z M 8 8 "/>
</g>
</svg>
