<?xml version="1.0" encoding="UTF-8"?>
<svg xmlns="http://www.w3.org/2000/svg" xmlns:xlink="http://www.w3.org/1999/xlink" width="32" height="32" viewBox="0 0 32 32" version="1.1">
<g id="surface1">
<path style=" stroke:none;fill-rule:nonzero;fill:rgb(100%,100%,100%);fill-opacity:1;" d="M 28 25.332031 L 28 28 L 25.332031 28 L 25.332031 25.332031 Z M 22.667969 25.332031 L 22.667969 28 L 20 28 L 20 25.332031 Z M 17.332031 25.332031 L 17.332031 28 L 14.667969 28 L 14.667969 25.332031 Z M 12 25.332031 L 12 28 L 9.332031 28 L 9.332031 25.332031 Z M 6.667969 25.332031 L 6.667969 28 L 4 28 L 4 25.332031 Z M 28 20 L 28 22.667969 L 25.332031 22.667969 L 25.332031 20 Z M 6.667969 20 L 6.667969 22.667969 L 4 22.667969 L 4 20 Z M 6.667969 14.667969 L 6.667969 17.332031 L 4 17.332031 L 4 14.667969 Z M 21.332031 4 C 24.914062 4 27.84375 6.832031 27.992188 10.378906 L 28 10.667969 L 28 17.332031 L 25.332031 17.332031 L 25.332031 10.667969 C 25.332031 8.546875 23.660156 6.796875 21.566406 6.671875 L 21.332031 6.667969 L 14.667969 6.667969 L 14.667969 4 Z M 6.667969 9.332031 L 6.667969 12 L 4 12 L 4 9.332031 Z M 6.667969 4 L 6.667969 6.667969 L 4 6.667969 L 4 4 Z M 12 4 L 12 6.667969 L 9.332031 6.667969 L 9.332031 4 Z M 12 4 "/>
</g>
</svg>
