<?xml version="1.0" encoding="UTF-8"?>
<svg xmlns="http://www.w3.org/2000/svg" xmlns:xlink="http://www.w3.org/1999/xlink" width="32" height="32" viewBox="0 0 32 32" version="1.1">
<g id="surface1">
<path style=" stroke:none;fill-rule:evenodd;fill:rgb(100%,100%,100%);fill-opacity:1;" d="M 2.121094 4 C 0.945312 4 0 4.945312 0 6.121094 L 0 25.878906 C 0 27.054688 0.945312 28 2.121094 28 L 6 28 L 6 4 Z M 8 4 L 8 28 L 29.878906 28 C 31.054688 28 32 27.054688 32 25.878906 L 32 6.121094 C 32 4.945312 31.054688 4 29.878906 4 Z M 14 9 L 26 9 L 26 15 L 14 15 Z M 14 22 C 15.105469 22 16 22.894531 16 24 C 16 25.105469 15.105469 26 14 26 C 12.894531 26 12 25.105469 12 24 C 12 22.894531 12.894531 22 14 22 Z M 20 22 C 21.105469 22 22 22.894531 22 24 C 22 25.105469 21.105469 26 20 26 C 18.894531 26 18 25.105469 18 24 C 18 22.894531 18.894531 22 20 22 Z M 26 22 C 27.105469 22 28 22.894531 28 24 C 28 25.105469 27.105469 26 26 26 C 24.894531 26 24 25.105469 24 24 C 24 22.894531 24.894531 22 26 22 Z M 26 22 "/>
</g>
</svg>
