<?xml version="1.0" encoding="UTF-8"?>
<svg xmlns="http://www.w3.org/2000/svg" xmlns:xlink="http://www.w3.org/1999/xlink" width="32" height="32" viewBox="0 0 32 32" version="1.1">
<g id="surface1">
<path style=" stroke:none;fill-rule:nonzero;fill:rgb(100%,100%,100%);fill-opacity:1;" d="M 1 2.003906 C 0.445312 2 -0.0078125 2.453125 -0.00390625 3.007812 L -0.00390625 28.992188 C -0.0078125 29.546875 0.445312 30 1 29.996094 L 31 29.996094 C 31.554688 30 32.007812 29.546875 32.003906 28.992188 L 32.003906 3.007812 C 32.007812 2.453125 31.554688 2 31 2.003906 Z M 1.988281 4.011719 L 29.996094 4.011719 L 29.996094 28.003906 L 1.988281 28.003906 Z M 1.988281 4.011719 "/>
<path style=" stroke:none;fill-rule:nonzero;fill:rgb(100%,100%,100%);fill-opacity:1;" d="M 5.527344 24.679688 L 5.527344 7.320312 L 7.929688 7.320312 L 7.929688 14.152344 L 12.632812 14.152344 L 12.632812 7.320312 L 15.03125 7.320312 L 15.03125 24.679688 L 12.632812 24.679688 L 12.632812 17.089844 L 7.929688 17.089844 L 7.929688 24.679688 Z M 5.527344 24.679688 "/>
<path style=" stroke:none;fill-rule:nonzero;fill:rgb(100%,100%,100%);fill-opacity:1;" d="M 17.511719 7.320312 L 21.898438 7.320312 C 22.886719 7.320312 23.640625 7.429688 24.160156 7.652344 C 24.859375 7.949219 25.457031 8.484375 25.953125 9.25 C 26.449219 10.015625 26.828125 10.953125 27.085938 12.066406 C 27.347656 13.171875 27.476562 14.539062 27.476562 16.164062 C 27.476562 17.59375 27.355469 18.828125 27.113281 19.859375 C 26.816406 21.125 26.390625 22.148438 25.839844 22.929688 C 25.421875 23.519531 24.859375 23.980469 24.152344 24.3125 C 23.621094 24.558594 22.914062 24.679688 22.027344 24.679688 L 17.511719 24.679688 Z M 19.910156 10.257812 L 19.910156 21.753906 L 21.703125 21.753906 C 22.375 21.753906 22.859375 21.699219 23.15625 21.589844 C 23.542969 21.449219 23.867188 21.207031 24.121094 20.867188 C 24.378906 20.527344 24.589844 19.972656 24.753906 19.199219 C 24.914062 18.414062 24.996094 17.355469 24.996094 16.011719 C 24.996094 14.667969 24.914062 13.640625 24.753906 12.921875 C 24.589844 12.203125 24.363281 11.640625 24.070312 11.238281 C 23.78125 10.835938 23.410156 10.5625 22.960938 10.421875 C 22.625 10.3125 21.96875 10.257812 20.992188 10.257812 Z M 19.910156 10.257812 "/>
</g>
</svg>
