<?xml version="1.0" encoding="UTF-8"?>
<svg xmlns="http://www.w3.org/2000/svg" xmlns:xlink="http://www.w3.org/1999/xlink" width="32" height="32" viewBox="0 0 32 32" version="1.1">
<g id="surface1">
<path style=" stroke:none;fill-rule:nonzero;fill:rgb(100%,100%,100%);fill-opacity:1;" d="M 23.75 8.671875 L 17.886719 17.886719 L 8.671875 23.75 C 10.316406 25.308594 12.417969 26.300781 14.667969 26.585938 L 14.667969 24 L 17.332031 24 L 17.332031 26.585938 C 19.230469 26.347656 21.03125 25.601562 22.542969 24.425781 L 20.714844 22.601562 L 22.601562 20.714844 L 24.425781 22.542969 C 25.601562 21.03125 26.347656 19.230469 26.585938 17.332031 L 24 17.332031 L 24 14.667969 L 26.585938 14.667969 C 26.300781 12.417969 25.308594 10.316406 23.75 8.671875 Z M 23.328125 8.25 C 21.683594 6.691406 19.582031 5.699219 17.332031 5.414062 L 17.332031 8 L 14.667969 8 L 14.667969 5.414062 C 12.769531 5.652344 10.96875 6.398438 9.457031 7.574219 L 11.285156 9.398438 L 9.398438 11.285156 L 7.574219 9.457031 C 6.398438 10.96875 5.652344 12.769531 5.414062 14.667969 L 8 14.667969 L 8 17.332031 L 5.414062 17.332031 C 5.699219 19.582031 6.691406 21.683594 8.25 23.328125 L 14.113281 14.113281 Z M 16 29.332031 C 8.636719 29.332031 2.667969 23.363281 2.667969 16 C 2.667969 8.636719 8.636719 2.667969 16 2.667969 C 23.363281 2.667969 29.332031 8.636719 29.332031 16 C 29.332031 23.363281 23.363281 29.332031 16 29.332031 Z M 16 29.332031 "/>
</g>
</svg>
