<?xml version="1.0" encoding="UTF-8"?>
<svg xmlns="http://www.w3.org/2000/svg" xmlns:xlink="http://www.w3.org/1999/xlink" width="32" height="32" viewBox="0 0 32 32" version="1.1">
<g id="surface1">
<path style=" stroke:none;fill-rule:nonzero;fill:rgb(100%,100%,100%);fill-opacity:1;" d="M 7.195312 2.003906 C 6.691406 2.003906 6.253906 2.359375 6.136719 2.867188 C 6.003906 3.46875 6.371094 4.070312 6.953125 4.207031 L 14.457031 6.015625 C 14.542969 6.289062 14.667969 6.558594 14.878906 6.789062 C 14.921875 6.828125 14.976562 6.847656 15.023438 6.882812 L 15.023438 29.757812 L 5.847656 29.757812 C 5.558594 29.757812 5.28125 29.875 5.078125 30.085938 C 4.875 30.296875 4.761719 30.585938 4.761719 30.882812 C 4.769531 31.496094 5.253906 31.992188 5.847656 31.992188 L 26.023438 31.992188 C 26.621094 31.996094 27.105469 31.5 27.113281 30.882812 C 27.113281 30.582031 27 30.296875 26.796875 30.085938 C 26.589844 29.875 26.3125 29.757812 26.023438 29.757812 L 17.183594 29.757812 L 17.183594 7.003906 C 17.304688 6.933594 17.417969 6.851562 17.519531 6.753906 L 24.679688 8.480469 C 24.960938 8.550781 25.261719 8.5 25.507812 8.339844 C 25.753906 8.183594 25.929688 7.925781 25.992188 7.632812 C 26.125 7.03125 25.757812 6.429688 25.175781 6.292969 L 17.894531 4.539062 C 17.589844 3.882812 16.957031 3.4375 16.191406 3.414062 C 15.722656 3.410156 15.335938 3.582031 15.03125 3.847656 L 7.433594 2.019531 C 7.355469 2.003906 7.273438 2 7.195312 2.003906 Z M 7.195312 2.003906 "/>
<path style=" stroke:none;fill-rule:nonzero;fill:rgb(100%,100%,100%);fill-opacity:1;" d="M 25.867188 9.457031 C 25.445312 9.476562 25.0625 9.722656 24.859375 10.105469 L 20.003906 18.777344 C 19.917969 18.929688 19.867188 19.101562 19.851562 19.273438 L 19.828125 19.273438 L 19.828125 20.335938 C 19.828125 22.445312 21.035156 24.371094 22.90625 25.386719 C 24.773438 26.402344 27.039062 26.402344 28.90625 25.386719 C 30.777344 24.371094 31.980469 22.445312 31.980469 20.335938 L 31.980469 19.644531 C 32.03125 19.347656 31.980469 19.039062 31.835938 18.777344 L 26.984375 10.105469 C 26.757812 9.6875 26.328125 9.4375 25.867188 9.457031 Z M 25.929688 13.265625 L 28.648438 18.148438 L 23.191406 18.148438 Z M 25.929688 13.265625 "/>
<path style=" stroke:none;fill-rule:nonzero;fill:rgb(100%,100%,100%);fill-opacity:1;" d="M 6.039062 5.183594 C 5.617188 5.207031 5.234375 5.453125 5.027344 5.832031 L 0.171875 14.507812 C 0.0898438 14.660156 0.0390625 14.828125 0.0195312 15.003906 L 0 15.003906 L 0 16.0625 C 0 18.175781 1.207031 20.097656 3.074219 21.113281 C 4.945312 22.128906 7.210938 22.128906 9.078125 21.113281 C 10.949219 20.097656 12.148438 18.175781 12.148438 16.0625 L 12.148438 15.375 C 12.203125 15.078125 12.152344 14.769531 12.007812 14.507812 L 7.15625 5.832031 C 6.929688 5.417969 6.5 5.167969 6.035156 5.183594 Z M 6.101562 8.996094 L 8.820312 13.878906 L 3.363281 13.878906 Z M 6.101562 8.996094 "/>
</g>
</svg>
