<?xml version="1.0" encoding="UTF-8"?>
<svg xmlns="http://www.w3.org/2000/svg" xmlns:xlink="http://www.w3.org/1999/xlink" width="32" height="32" viewBox="0 0 32 32" version="1.1">
<g id="surface1">
<path style=" stroke:none;fill-rule:nonzero;fill:rgb(100%,100%,100%);fill-opacity:1;" d="M 14.667969 2.667969 C 21.289062 2.667969 26.667969 8.042969 26.667969 14.667969 C 26.667969 21.289062 21.289062 26.667969 14.667969 26.667969 C 8.042969 26.667969 2.667969 21.289062 2.667969 14.667969 C 2.667969 8.042969 8.042969 2.667969 14.667969 2.667969 Z M 14.667969 24 C 19.824219 24 24 19.824219 24 14.667969 C 24 9.507812 19.824219 5.332031 14.667969 5.332031 C 9.507812 5.332031 5.332031 9.507812 5.332031 14.667969 C 5.332031 19.824219 9.507812 24 14.667969 24 Z M 25.980469 24.09375 L 29.753906 27.867188 L 27.867188 29.753906 L 24.09375 25.980469 Z M 25.980469 24.09375 "/>
</g>
</svg>
