<?xml version="1.0" encoding="UTF-8"?>
<svg xmlns="http://www.w3.org/2000/svg" xmlns:xlink="http://www.w3.org/1999/xlink" width="32" height="32" viewBox="0 0 32 32" version="1.1">
<g id="surface1">
<path style=" stroke:none;fill-rule:nonzero;fill:rgb(100%,100%,100%);fill-opacity:1;" d="M 16.203125 0.0078125 C 9.230469 -0.179688 2.632812 4.652344 0.703125 11.359375 C 0.703125 11.363281 0.707031 11.367188 0.703125 11.375 C -1.429688 18.054688 1.40625 25.757812 7.359375 29.460938 C 13.1875 33.328125 21.363281 32.714844 26.554688 28.03125 C 31.886719 23.484375 33.546875 15.433594 30.449219 9.148438 C 27.917969 3.699219 22.246094 0.0429688 16.234375 0.0078125 Z M 14.214844 7.507812 C 17.847656 7.507812 20.8125 10.476562 20.8125 14.109375 C 20.8125 15.617188 20.296875 17.003906 19.4375 18.121094 L 24.042969 22.464844 C 24.519531 22.914062 24.539062 23.664062 24.089844 24.140625 C 23.640625 24.609375 22.894531 24.628906 22.421875 24.183594 L 17.6875 19.714844 C 16.675781 20.34375 15.492188 20.71875 14.21875 20.71875 C 10.585938 20.71875 7.605469 17.742188 7.605469 14.109375 C 7.605469 10.476562 10.585938 7.507812 14.21875 7.507812 Z M 14.214844 9.875 C 11.859375 9.875 9.96875 11.753906 9.96875 14.109375 C 9.96875 16.464844 11.859375 18.351562 14.214844 18.351562 C 16.570312 18.351562 18.449219 16.464844 18.449219 14.109375 C 18.449219 11.753906 16.570312 9.875 14.214844 9.875 Z M 14.214844 9.875 "/>
</g>
</svg>
