<?xml version="1.0" encoding="UTF-8"?>
<svg xmlns="http://www.w3.org/2000/svg" xmlns:xlink="http://www.w3.org/1999/xlink" width="32" height="32" viewBox="0 0 32 32" version="1.1">
<g id="surface1">
<path style=" stroke:none;fill-rule:nonzero;fill:rgb(100%,100%,100%);fill-opacity:1;" d="M 14.667969 2.667969 L 24.398438 5.707031 C 24.953125 5.878906 25.332031 6.394531 25.332031 6.980469 L 25.332031 9.332031 L 28 9.332031 C 28.738281 9.332031 29.332031 9.929688 29.332031 10.667969 L 29.332031 13.332031 L 12 13.332031 L 12 10.667969 C 12 9.929688 12.597656 9.332031 13.332031 9.332031 L 22.667969 9.332031 L 22.667969 7.960938 L 14.667969 5.457031 L 6.667969 7.960938 L 6.667969 17.832031 C 6.667969 19.488281 7.433594 21.046875 8.742188 22.058594 L 8.996094 22.238281 L 14.667969 26.105469 L 19.710938 22.667969 L 13.332031 22.667969 C 12.597656 22.667969 12 22.070312 12 21.332031 L 12 16 L 29.332031 16 L 29.332031 21.332031 C 29.332031 22.070312 28.738281 22.667969 28 22.667969 L 23.707031 22.667969 C 23.191406 23.347656 22.5625 23.949219 21.839844 24.441406 L 14.667969 29.332031 L 7.492188 24.441406 C 5.308594 22.953125 4 20.476562 4 17.832031 L 4 6.980469 C 4 6.398438 4.378906 5.882812 4.9375 5.707031 Z M 14.667969 2.667969 "/>
</g>
</svg>
