<?xml version="1.0" encoding="UTF-8"?>
<svg xmlns="http://www.w3.org/2000/svg" xmlns:xlink="http://www.w3.org/1999/xlink" width="32" height="32" viewBox="0 0 32 32" version="1.1">
<g id="surface1">
<path style=" stroke:none;fill-rule:nonzero;fill:rgb(100%,100%,100%);fill-opacity:1;" d="M 8 4 C 12.652344 4 16.511719 7.40625 17.21875 11.859375 C 18.785156 10.296875 20.945312 9.332031 23.332031 9.332031 L 29.332031 9.332031 L 29.332031 12.667969 C 29.332031 17.453125 25.453125 21.332031 20.667969 21.332031 L 17.332031 21.332031 L 17.332031 28 L 14.667969 28 L 14.667969 17.332031 L 12 17.332031 C 6.84375 17.332031 2.667969 13.15625 2.667969 8 L 2.667969 4 Z M 26.667969 12 L 23.332031 12 C 20.019531 12 17.332031 14.6875 17.332031 18 L 17.332031 18.667969 L 20.667969 18.667969 C 23.980469 18.667969 26.667969 15.980469 26.667969 12.667969 Z M 8 6.667969 L 5.332031 6.667969 L 5.332031 8 C 5.332031 11.679688 8.320312 14.667969 12 14.667969 L 14.667969 14.667969 L 14.667969 13.332031 C 14.667969 9.652344 11.679688 6.667969 8 6.667969 Z M 8 6.667969 "/>
</g>
</svg>
