<?xml version="1.0" encoding="UTF-8"?>
<svg xmlns="http://www.w3.org/2000/svg" xmlns:xlink="http://www.w3.org/1999/xlink" width="32" height="32" viewBox="0 0 32 32" version="1.1">
<g id="surface1">
<path style=" stroke:none;fill-rule:nonzero;fill:rgb(100%,100%,100%);fill-opacity:1;" d="M 11.582031 5.332031 L 15.058594 1.855469 C 15.578125 1.335938 16.421875 1.335938 16.941406 1.855469 L 20.417969 5.332031 L 25.332031 5.332031 C 26.070312 5.332031 26.667969 5.929688 26.667969 6.667969 L 26.667969 11.582031 L 30.144531 15.058594 C 30.664062 15.578125 30.664062 16.421875 30.144531 16.941406 L 26.667969 20.417969 L 26.667969 25.332031 C 26.667969 26.070312 26.070312 26.667969 25.332031 26.667969 L 20.417969 26.667969 L 16.941406 30.144531 C 16.421875 30.664062 15.578125 30.664062 15.058594 30.144531 L 11.582031 26.667969 L 6.667969 26.667969 C 5.929688 26.667969 5.332031 26.070312 5.332031 25.332031 L 5.332031 20.417969 L 1.855469 16.941406 C 1.335938 16.421875 1.335938 15.578125 1.855469 15.058594 L 5.332031 11.582031 L 5.332031 6.667969 C 5.332031 5.929688 5.929688 5.332031 6.667969 5.332031 Z M 8 8 L 8 12.6875 L 4.6875 16 L 8 19.3125 L 8 24 L 12.6875 24 L 16 27.3125 L 19.3125 24 L 24 24 L 24 19.3125 L 27.3125 16 L 24 12.6875 L 24 8 L 19.3125 8 L 16 4.6875 L 12.6875 8 Z M 16 21.332031 C 13.054688 21.332031 10.667969 18.945312 10.667969 16 C 10.667969 13.054688 13.054688 10.667969 16 10.667969 C 18.945312 10.667969 21.332031 13.054688 21.332031 16 C 21.332031 18.945312 18.945312 21.332031 16 21.332031 Z M 16 18.667969 C 17.472656 18.667969 18.667969 17.472656 18.667969 16 C 18.667969 14.527344 17.472656 13.332031 16 13.332031 C 14.527344 13.332031 13.332031 14.527344 13.332031 16 C 13.332031 17.472656 14.527344 18.667969 16 18.667969 Z M 16 18.667969 "/>
</g>
</svg>
