<?xml version="1.0" encoding="UTF-8"?>
<svg xmlns="http://www.w3.org/2000/svg" xmlns:xlink="http://www.w3.org/1999/xlink" width="32" height="32" viewBox="0 0 32 32" version="1.1">
<g id="surface1">
<path style=" stroke:none;fill-rule:nonzero;fill:rgb(100%,100%,100%);fill-opacity:1;" d="M 7.113281 6.058594 C 8.480469 4.832031 10.089844 3.902344 11.835938 3.328125 C 12.847656 4.597656 14.378906 5.332031 16 5.332031 C 17.621094 5.332031 19.152344 4.597656 20.164062 3.328125 C 21.910156 3.902344 23.519531 4.832031 24.886719 6.058594 C 24.296875 7.566406 24.425781 9.261719 25.238281 10.664062 C 26.046875 12.070312 27.453125 13.03125 29.054688 13.273438 C 29.429688 15.070312 29.429688 16.925781 29.054688 18.726562 C 27.507812 18.960938 26.082031 19.871094 25.238281 21.332031 C 24.425781 22.734375 24.296875 24.429688 24.886719 25.9375 C 23.519531 27.164062 21.910156 28.09375 20.164062 28.667969 C 19.152344 27.402344 17.621094 26.664062 16 26.667969 C 14.378906 26.664062 12.847656 27.402344 11.835938 28.667969 C 10.089844 28.09375 8.480469 27.164062 7.113281 25.941406 C 7.703125 24.429688 7.574219 22.734375 6.761719 21.332031 C 5.953125 19.929688 4.546875 18.96875 2.945312 18.726562 C 2.570312 16.929688 2.570312 15.074219 2.945312 13.273438 C 4.546875 13.03125 5.953125 12.070312 6.761719 10.667969 C 7.574219 9.265625 7.703125 7.570312 7.113281 6.0625 Z M 18 19.460938 C 19.246094 18.753906 20.019531 17.429688 20.023438 15.996094 C 20.027344 14.558594 19.261719 13.230469 18.015625 12.515625 C 16.769531 11.800781 15.238281 11.808594 14 12.535156 C 12.101562 13.648438 11.460938 16.082031 12.558594 17.984375 C 13.660156 19.890625 16.089844 20.550781 18 19.460938 Z M 18 19.460938 "/>
</g>
</svg>
