<?xml version="1.0" encoding="UTF-8"?>
<svg xmlns="http://www.w3.org/2000/svg" xmlns:xlink="http://www.w3.org/1999/xlink" width="32" height="32" viewBox="0 0 32 32" version="1.1">
<g id="surface1">
<path style=" stroke:none;fill-rule:nonzero;fill:rgb(100%,100%,100%);fill-opacity:1;" d="M 12 5.332031 L 19.261719 5.332031 C 19.722656 5.332031 20.148438 5.570312 20.390625 5.960938 L 25 13.332031 L 30.878906 13.332031 C 31.113281 13.332031 31.332031 13.457031 31.453125 13.660156 C 31.570312 13.863281 31.574219 14.113281 31.460938 14.320312 L 26.214844 23.941406 C 23.824219 24.261719 21.445312 23.265625 20 21.332031 C 18.742188 23.011719 16.765625 24 14.667969 24 C 12.566406 24 10.589844 23.011719 9.332031 21.332031 C 7.917969 23.222656 5.613281 24.222656 3.265625 23.960938 L 1.617188 14.90625 C 1.546875 14.515625 1.652344 14.117188 1.90625 13.8125 C 2.160156 13.507812 2.535156 13.332031 2.929688 13.332031 L 4 13.332031 L 4 6.667969 C 4 5.929688 4.597656 5.332031 5.332031 5.332031 L 6.667969 5.332031 L 6.667969 1.332031 L 12 1.332031 Z M 6.667969 13.332031 L 21.855469 13.332031 L 18.523438 8 L 6.667969 8 Z M 4 26.667969 C 5.96875 26.667969 7.867188 25.945312 9.332031 24.628906 C 10.796875 25.945312 12.699219 26.667969 14.667969 26.667969 C 16.636719 26.667969 18.535156 25.945312 20 24.628906 C 21.464844 25.945312 23.363281 26.667969 25.332031 26.667969 L 28 26.667969 L 28 29.332031 L 25.332031 29.332031 C 23.460938 29.335938 21.621094 28.84375 20 27.90625 C 18.378906 28.84375 16.539062 29.335938 14.667969 29.332031 C 12.792969 29.335938 10.953125 28.84375 9.332031 27.90625 C 7.710938 28.84375 5.871094 29.335938 4 29.332031 L 1.332031 29.332031 L 1.332031 26.667969 Z M 4 26.667969 "/>
</g>
</svg>
