<?xml version="1.0" encoding="UTF-8"?>
<svg xmlns="http://www.w3.org/2000/svg" xmlns:xlink="http://www.w3.org/1999/xlink" width="32" height="32" viewBox="0 0 32 32" version="1.1">
<g id="surface1">
<path style=" stroke:none;fill-rule:nonzero;fill:rgb(100%,100%,100%);fill-opacity:1;" d="M 20.488281 4.585938 L 24.769531 12 L 29.332031 12 L 29.332031 14.667969 L 27.777344 14.667969 L 26.769531 26.777344 C 26.710938 27.46875 26.132812 28 25.441406 28 L 6.558594 28 C 5.867188 28 5.289062 27.46875 5.230469 26.777344 L 4.222656 14.667969 L 2.667969 14.667969 L 2.667969 12 L 7.230469 12 L 11.511719 4.585938 L 13.820312 5.917969 L 10.308594 12 L 21.6875 12 L 18.179688 5.917969 Z M 17.332031 17.332031 L 14.667969 17.332031 L 14.667969 22.667969 L 17.332031 22.667969 Z M 12 17.332031 L 9.332031 17.332031 L 9.332031 22.667969 L 12 22.667969 Z M 22.667969 17.332031 L 20 17.332031 L 20 22.667969 L 22.667969 22.667969 Z M 22.667969 17.332031 "/>
</g>
</svg>
