<?xml version="1.0" encoding="UTF-8"?>
<svg xmlns="http://www.w3.org/2000/svg" xmlns:xlink="http://www.w3.org/1999/xlink" width="32" height="32" viewBox="0 0 32 32" version="1.1">
<g id="surface1">
<path style=" stroke:none;fill-rule:nonzero;fill:rgb(100%,100%,100%);fill-opacity:1;" d="M 5.332031 8.550781 L 1.007812 4.230469 L 2.894531 2.34375 L 7.21875 6.667969 L 27.542969 6.667969 C 27.960938 6.667969 28.359375 6.867188 28.609375 7.203125 C 28.863281 7.542969 28.941406 7.980469 28.820312 8.382812 L 25.617188 19.050781 C 25.449219 19.613281 24.929688 20 24.339844 20 L 8 20 L 8 22.667969 L 22.667969 22.667969 L 22.667969 25.332031 L 6.667969 25.332031 C 5.929688 25.332031 5.332031 24.738281 5.332031 24 Z M 8 9.332031 L 8 17.332031 L 23.347656 17.332031 L 25.75 9.332031 Z M 7.332031 30.667969 C 6.230469 30.667969 5.332031 29.769531 5.332031 28.667969 C 5.332031 27.5625 6.230469 26.667969 7.332031 26.667969 C 8.4375 26.667969 9.332031 27.5625 9.332031 28.667969 C 9.332031 29.769531 8.4375 30.667969 7.332031 30.667969 Z M 23.332031 30.667969 C 22.230469 30.667969 21.332031 29.769531 21.332031 28.667969 C 21.332031 27.5625 22.230469 26.667969 23.332031 26.667969 C 24.4375 26.667969 25.332031 27.5625 25.332031 28.667969 C 25.332031 29.769531 24.4375 30.667969 23.332031 30.667969 Z M 23.332031 30.667969 "/>
</g>
</svg>
