<?xml version="1.0" encoding="UTF-8"?>
<svg xmlns="http://www.w3.org/2000/svg" xmlns:xlink="http://www.w3.org/1999/xlink" width="32" height="32" viewBox="0 0 32 32" version="1.1">
<g id="surface1">
<path style=" stroke:none;fill-rule:nonzero;fill:rgb(100%,100%,100%);fill-opacity:1;" d="M 23.507812 0.878906 C 23.144531 0.902344 22.800781 1.058594 22.542969 1.320312 L 18.542969 5.320312 C 17.960938 5.902344 17.960938 6.847656 18.542969 7.433594 L 19.472656 8.378906 L 13.242188 14.609375 L 9.597656 10.960938 L 8.886719 11.667969 L 2.894531 17.664062 C 0.65625 19.898438 0.652344 22.859375 1.179688 25.058594 C 1.707031 27.253906 2.761719 28.914062 2.761719 28.914062 L 2.863281 29.089844 L 3.054688 29.207031 C 3.054688 29.207031 4.675781 30.285156 6.867188 30.832031 C 9.058594 31.375 12.019531 31.359375 14.304688 29.074219 L 21.007812 22.371094 L 17.371094 18.734375 L 23.609375 12.496094 L 24.539062 13.441406 C 25.125 14.027344 26.078125 14.027344 26.664062 13.441406 L 30.664062 9.441406 C 31.253906 8.851562 31.253906 7.898438 30.664062 7.3125 L 24.65625 1.320312 C 24.390625 1.050781 24.03125 0.890625 23.652344 0.878906 C 23.605469 0.875 23.554688 0.875 23.507812 0.878906 Z M 23.601562 4.375 L 27.601562 8.375 L 25.601562 10.375 L 21.601562 6.375 Z M 23.601562 4.375 "/>
</g>
</svg>
