<?xml version="1.0" encoding="UTF-8"?>
<svg xmlns="http://www.w3.org/2000/svg" xmlns:xlink="http://www.w3.org/1999/xlink" width="32" height="32" viewBox="0 0 32 32" version="1.1">
<g id="surface1">
<path style=" stroke:none;fill-rule:nonzero;fill:rgb(100%,100%,100%);fill-opacity:1;" d="M 24 24 L 24 28 C 24 28.738281 23.402344 29.332031 22.667969 29.332031 L 9.332031 29.332031 C 8.597656 29.332031 8 28.738281 8 28 L 8 24 L 4 24 C 3.261719 24 2.667969 23.402344 2.667969 22.667969 L 2.667969 16 C 2.667969 8.636719 8.636719 2.667969 16 2.667969 C 23.363281 2.667969 29.332031 8.636719 29.332031 16 L 29.332031 22.667969 C 29.332031 23.402344 28.738281 24 28 24 Z M 10 18.667969 C 11.105469 18.667969 12 17.769531 12 16.667969 C 12 15.5625 11.105469 14.667969 10 14.667969 C 8.894531 14.667969 8 15.5625 8 16.667969 C 8 17.769531 8.894531 18.667969 10 18.667969 Z M 22 18.667969 C 23.105469 18.667969 24 17.769531 24 16.667969 C 24 15.5625 23.105469 14.667969 22 14.667969 C 20.894531 14.667969 20 15.5625 20 16.667969 C 20 17.769531 20.894531 18.667969 22 18.667969 Z M 22 18.667969 "/>
</g>
</svg>
