<?xml version="1.0" encoding="UTF-8"?>
<svg xmlns="http://www.w3.org/2000/svg" xmlns:xlink="http://www.w3.org/1999/xlink" width="32" height="32" viewBox="0 0 32 32" version="1.1">
<g id="surface1">
<path style=" stroke:none;fill-rule:nonzero;fill:rgb(100%,100%,100%);fill-opacity:1;" d="M 16 2.667969 C 23.363281 2.667969 29.332031 8.636719 29.332031 16 L 29.332031 21.019531 C 29.332031 22.027344 28.761719 22.953125 27.859375 23.402344 L 24 25.332031 L 24 26.667969 C 24 28.785156 22.347656 30.535156 20.234375 30.660156 L 19.933594 30.667969 C 19.960938 30.519531 19.980469 30.375 19.992188 30.226562 L 20 30 L 20 29.332031 C 20 27.9375 18.925781 26.777344 17.535156 26.671875 L 17.332031 26.667969 L 14.667969 26.667969 C 13.269531 26.667969 12.113281 27.742188 12.007812 29.132812 L 12 29.332031 L 12 30 C 12 30.226562 12.023438 30.453125 12.066406 30.667969 L 12 30.667969 C 9.789062 30.667969 8 28.875 8 26.667969 L 8 25.332031 L 4.140625 23.402344 C 3.238281 22.953125 2.667969 22.027344 2.667969 21.015625 L 2.667969 16 C 2.667969 8.636719 8.636719 2.667969 16 2.667969 Z M 16 5.332031 C 10.238281 5.332031 5.519531 9.910156 5.339844 15.667969 L 5.332031 16 L 5.332031 21.019531 L 10.667969 23.683594 L 10.667969 25.808594 L 10.765625 25.695312 C 11.710938 24.679688 13.011719 24.074219 14.398438 24.007812 L 14.667969 24 L 17.429688 24 L 17.726562 24.015625 C 19.058594 24.113281 20.246094 24.695312 21.128906 25.585938 L 21.332031 25.808594 L 21.332031 23.683594 L 26.667969 21.019531 L 26.667969 16 C 26.667969 10.109375 21.890625 5.332031 16 5.332031 Z M 10.667969 14.667969 C 12.140625 14.667969 13.332031 15.859375 13.332031 17.332031 C 13.332031 18.804688 12.140625 20 10.667969 20 C 9.195312 20 8 18.804688 8 17.332031 C 8 15.859375 9.195312 14.667969 10.667969 14.667969 Z M 21.332031 14.667969 C 22.804688 14.667969 24 15.859375 24 17.332031 C 24 18.804688 22.804688 20 21.332031 20 C 19.859375 20 18.667969 18.804688 18.667969 17.332031 C 18.667969 15.859375 19.859375 14.667969 21.332031 14.667969 Z M 21.332031 14.667969 "/>
</g>
</svg>
