<?xml version="1.0" encoding="UTF-8"?>
<svg xmlns="http://www.w3.org/2000/svg" xmlns:xlink="http://www.w3.org/1999/xlink" width="32" height="32" viewBox="0 0 32 32" version="1.1">
<g id="surface1">
<path style=" stroke:none;fill-rule:nonzero;fill:rgb(100%,100%,100%);fill-opacity:1;" d="M 6 32 L 2 24 L 4 24 L 4 0 L 8 0 L 8 24 L 10 24 Z M 6 32 "/>
<path style=" stroke:none;fill-rule:evenodd;fill:rgb(100%,100%,100%);fill-opacity:1;" d="M 14 12 L 28 12 C 29.105469 12 30 12.894531 30 14 L 30 28 C 30 29.105469 29.105469 30 28 30 L 14 30 C 12.894531 30 12 29.105469 12 28 L 12 14 C 12 12.894531 12.894531 12 14 12 Z M 14 12 "/>
<path style=" stroke:none;fill-rule:evenodd;fill:rgb(100%,100%,100%);fill-opacity:1;" d="M 14 2 L 18 2 C 19.105469 2 20 2.894531 20 4 L 20 8 C 20 9.105469 19.105469 10 18 10 L 14 10 C 12.894531 10 12 9.105469 12 8 L 12 4 C 12 2.894531 12.894531 2 14 2 Z M 14 2 "/>
</g>
</svg>
