<?xml version="1.0" encoding="UTF-8"?>
<svg xmlns="http://www.w3.org/2000/svg" xmlns:xlink="http://www.w3.org/1999/xlink" width="32" height="32" viewBox="0 0 32 32" version="1.1">
<g id="surface1">
<path style=" stroke:none;fill-rule:nonzero;fill:rgb(100%,100%,100%);fill-opacity:1;" d="M 6.667969 6.667969 L 6.667969 25.332031 L 25.332031 25.332031 L 25.332031 6.667969 Z M 5.332031 4 L 26.667969 4 C 27.402344 4 28 4.597656 28 5.332031 L 28 26.667969 C 28 27.402344 27.402344 28 26.667969 28 L 5.332031 28 C 4.597656 28 4 27.402344 4 26.667969 L 4 5.332031 C 4 4.597656 4.597656 4 5.332031 4 Z M 16 21.332031 C 18.945312 21.332031 21.332031 18.945312 21.332031 16 C 21.332031 13.054688 18.945312 10.667969 16 10.667969 C 13.054688 10.667969 10.667969 13.054688 10.667969 16 C 10.667969 18.945312 13.054688 21.332031 16 21.332031 Z M 16 24 C 11.582031 24 8 20.417969 8 16 C 8 11.582031 11.582031 8 16 8 C 20.417969 8 24 11.582031 24 16 C 24 20.417969 20.417969 24 16 24 Z M 16 18 C 14.894531 18 14 17.105469 14 16 C 14 14.894531 14.894531 14 16 14 C 17.105469 14 18 14.894531 18 16 C 18 17.105469 17.105469 18 16 18 Z M 16 18 "/>
</g>
</svg>
