<?xml version="1.0" encoding="UTF-8"?>
<svg xmlns="http://www.w3.org/2000/svg" xmlns:xlink="http://www.w3.org/1999/xlink" width="32" height="32" viewBox="0 0 32 32" version="1.1">
<g id="surface1">
<path style=" stroke:none;fill-rule:nonzero;fill:rgb(100%,100%,100%);fill-opacity:1;" d="M 16 0.667969 L 21.632812 8.910156 L 31.21875 11.722656 L 25.117188 19.628906 L 25.402344 29.609375 L 16 26.253906 L 6.597656 29.609375 L 6.882812 19.628906 L 0.78125 11.722656 L 10.367188 8.910156 Z M 16 5.390625 L 12.03125 11.203125 L 5.277344 13.183594 L 9.574219 18.753906 L 9.371094 25.785156 L 16 23.421875 L 22.625 25.785156 L 22.425781 18.753906 L 26.722656 13.183594 L 19.96875 11.203125 Z M 13.332031 16 C 13.332031 17.472656 14.527344 18.667969 16 18.667969 C 17.472656 18.667969 18.667969 17.472656 18.667969 16 L 21.332031 16 C 21.332031 18.945312 18.945312 21.332031 16 21.332031 C 13.054688 21.332031 10.667969 18.945312 10.667969 16 Z M 13.332031 16 "/>
</g>
</svg>
