<?xml version="1.0" encoding="UTF-8"?>
<svg xmlns="http://www.w3.org/2000/svg" xmlns:xlink="http://www.w3.org/1999/xlink" width="32" height="32" viewBox="0 0 32 32" version="1.1">
<g id="surface1">
<path style=" stroke:none;fill-rule:nonzero;fill:rgb(100%,100%,100%);fill-opacity:1;" d="M 29.066406 18.667969 C 27.933594 24.195312 23.453125 28.410156 17.867188 29.203125 L 17.867188 26.503906 C 21.976562 25.769531 25.285156 22.710938 26.332031 18.667969 Z M 5.667969 18.667969 C 6.703125 22.660156 9.945312 25.703125 14 26.480469 L 14 29.183594 C 8.472656 28.34375 4.054688 24.144531 2.933594 18.667969 Z M 24 14.667969 L 24 17.332031 L 22.667969 17.332031 C 19.824219 17.332031 17.480469 19.5625 17.339844 22.398438 L 17.332031 22.667969 L 17.332031 24 L 14.667969 24 L 14.667969 22.667969 C 14.667969 19.824219 12.4375 17.480469 9.601562 17.339844 L 9.332031 17.332031 L 8 17.332031 L 8 14.667969 Z M 16 2.667969 C 22.914062 2.667969 28.597656 7.929688 29.265625 14.667969 L 26.585938 14.667969 C 25.910156 9.332031 21.375 5.335938 16 5.335938 C 10.625 5.335938 6.089844 9.332031 5.414062 14.667969 L 2.730469 14.667969 C 3.402344 7.929688 9.085938 2.667969 16 2.667969 Z M 16 2.667969 "/>
</g>
</svg>
