<?xml version="1.0" encoding="UTF-8"?>
<svg xmlns="http://www.w3.org/2000/svg" xmlns:xlink="http://www.w3.org/1999/xlink" width="32" height="32" viewBox="0 0 32 32" version="1.1">
<g id="surface1">
<path style=" stroke:none;fill-rule:nonzero;fill:rgb(100%,100%,100%);fill-opacity:1;" d="M 29.332031 26.667969 L 29.332031 29.332031 L 2.667969 29.332031 L 2.667969 26.667969 L 4 26.667969 L 4 17.65625 C 2.332031 16.542969 1.332031 14.671875 1.332031 12.667969 C 1.332031 11.5625 1.632812 10.5 2.175781 9.597656 L 5.792969 3.332031 C 6.03125 2.921875 6.472656 2.667969 6.949219 2.667969 L 25.054688 2.667969 C 25.53125 2.667969 25.96875 2.921875 26.207031 3.332031 L 29.8125 9.574219 C 31.464844 12.320312 30.664062 15.878906 28 17.65625 L 28 26.667969 Z M 7.71875 5.332031 L 4.476562 10.949219 C 3.820312 12.566406 4.523438 14.414062 6.082031 15.1875 C 7.644531 15.960938 9.539062 15.402344 10.429688 13.90625 C 10.875 12.789062 12.457031 12.789062 12.902344 13.90625 C 13.410156 15.171875 14.636719 16.003906 16 16.003906 C 17.363281 16.003906 18.589844 15.171875 19.097656 13.90625 C 19.542969 12.789062 21.121094 12.789062 21.570312 13.90625 C 22.042969 15.066406 23.125 15.863281 24.375 15.972656 C 25.625 16.078125 26.828125 15.476562 27.488281 14.414062 C 28.152344 13.347656 28.160156 12.003906 27.511719 10.929688 L 24.28125 5.332031 Z M 7.71875 5.332031 "/>
</g>
</svg>
