<?xml version="1.0" encoding="UTF-8"?>
<svg xmlns="http://www.w3.org/2000/svg" xmlns:xlink="http://www.w3.org/1999/xlink" width="32" height="32" viewBox="0 0 32 32" version="1.1">
<g id="surface1">
<path style=" stroke:none;fill-rule:nonzero;fill:rgb(100%,100%,100%);fill-opacity:1;" d="M 14.667969 8 L 14.667969 25.332031 L 12 25.332031 L 12 8 L 4 8 L 4 5.332031 L 22.667969 5.332031 L 22.667969 8 Z M 26.066406 22.105469 C 26.445312 21.746094 26.507812 21.164062 26.214844 20.730469 C 25.917969 20.300781 25.351562 20.144531 24.878906 20.367188 C 24.40625 20.589844 24.164062 21.125 24.308594 21.625 L 22.769531 22.066406 C 22.539062 21.261719 22.699219 20.394531 23.203125 19.726562 C 23.707031 19.058594 24.496094 18.667969 25.332031 18.667969 C 26.425781 18.667969 27.40625 19.332031 27.8125 20.347656 C 28.214844 21.363281 27.957031 22.523438 27.164062 23.273438 L 24.992188 25.332031 L 28 25.332031 L 28 26.667969 L 22.667969 26.667969 L 22.667969 25.332031 Z M 26.066406 22.105469 "/>
</g>
</svg>
