<?xml version="1.0" encoding="UTF-8"?>
<svg xmlns="http://www.w3.org/2000/svg" xmlns:xlink="http://www.w3.org/1999/xlink" width="32" height="32" viewBox="0 0 32 32" version="1.1">
<defs>
<filter id="alpha" filterUnits="objectBoundingBox" x="0%" y="0%" width="100%" height="100%">
  <feColorMatrix type="matrix" in="SourceGraphic" values="0 0 0 0 1 0 0 0 0 1 0 0 0 0 1 0 0 0 1 0"/>
</filter>
<mask id="mask0">
  <g filter="url(#alpha)">
<rect x="0" y="0" width="32" height="32" style="fill:rgb(100%,100%,100%);fill-opacity:0.996078;stroke:none;"/>
  </g>
</mask>
<clipPath id="clip1">
  <rect x="0" y="0" width="32" height="32"/>
</clipPath>
<g id="surface5" clip-path="url(#clip1)">
<path style=" stroke:none;fill-rule:evenodd;fill:rgb(100%,100%,100%);fill-opacity:1;" d="M 12 0 C 5.371094 0 0 5.371094 0 12 L 0 32 L 6 32 L 8.277344 27.722656 C 5.804688 26.980469 4 24.71875 4 22 L 4 12 C 4 8.675781 6.675781 6 10 6 L 22 6 C 25.324219 6 28 8.675781 28 12 L 28 22 C 28 24.71875 26.195312 26.980469 23.722656 27.722656 L 26 32 L 32 32 L 32 12 C 32 5.371094 26.628906 0 20 0 Z M 8 10 L 8 18 L 18 18 L 18 10 Z M 18 10 L 18 18 L 24 18 L 24 10 Z M 10 22 C 8.894531 22 8 22.894531 8 24 C 8 25.105469 8.894531 26 10 26 C 11.105469 26 12 25.105469 12 24 C 12 22.894531 11.105469 22 10 22 Z M 22 22 C 20.894531 22 20 22.894531 20 24 C 20 25.105469 20.894531 26 22 26 C 23.105469 26 24 25.105469 24 24 C 24 22.894531 23.105469 22 22 22 Z M 12 28 L 10 32 L 22 32 L 20 28 Z M 12 28 "/>
</g>
</defs>
<g id="surface1">
<use xlink:href="#surface5" mask="url(#mask0)"/>
</g>
</svg>
