<?xml version="1.0" encoding="UTF-8"?>
<svg xmlns="http://www.w3.org/2000/svg" xmlns:xlink="http://www.w3.org/1999/xlink" width="32" height="32" viewBox="0 0 32 32" version="1.1">
<g id="surface1">
<path style=" stroke:none;fill-rule:nonzero;fill:rgb(100%,100%,100%);fill-opacity:1;" d="M 20 1.332031 C 20.734375 1.332031 21.332031 1.929688 21.332031 2.667969 L 21.332031 9.332031 L 22.667969 9.332031 L 22.667969 8 L 25.332031 8 L 25.332031 9.332031 L 26.667969 9.332031 C 27.402344 9.332031 28 9.929688 28 10.667969 L 28 26.667969 C 28 27.402344 27.402344 28 26.667969 28 L 25.332031 28 L 25.332031 29.332031 L 22.667969 29.332031 L 22.667969 28 L 9.332031 28 L 9.332031 29.332031 L 6.667969 29.332031 L 6.667969 28 L 5.332031 28 C 4.597656 28 4 27.402344 4 26.667969 L 4 10.667969 C 4 9.929688 4.597656 9.332031 5.332031 9.332031 L 6.667969 9.332031 L 6.667969 8 L 9.332031 8 L 9.332031 9.332031 L 10.667969 9.332031 L 10.667969 2.667969 C 10.667969 1.929688 11.265625 1.332031 12 1.332031 Z M 12 13.332031 L 9.332031 13.332031 L 9.332031 24 L 12 24 Z M 17.332031 13.332031 L 14.667969 13.332031 L 14.667969 24 L 17.332031 24 Z M 22.667969 13.332031 L 20 13.332031 L 20 24 L 22.667969 24 Z M 18.667969 4 L 13.332031 4 L 13.332031 9.332031 L 18.667969 9.332031 Z M 18.667969 4 "/>
</g>
</svg>
