<?xml version="1.0" encoding="UTF-8"?>
<svg xmlns="http://www.w3.org/2000/svg" xmlns:xlink="http://www.w3.org/1999/xlink" width="32" height="32" viewBox="0 0 32 32" version="1.1">
<g id="surface1">
<path style=" stroke:none;fill-rule:nonzero;fill:rgb(100%,100%,100%);fill-opacity:1;" d="M 14.667969 9.332031 L 14.667969 26.667969 L 12 26.667969 L 12 9.332031 L 4 9.332031 L 4 6.667969 L 20 6.667969 L 20 9.332031 Z M 26.066406 8.773438 C 26.445312 8.414062 26.507812 7.832031 26.214844 7.398438 C 25.917969 6.964844 25.351562 6.8125 24.878906 7.035156 C 24.40625 7.257812 24.164062 7.789062 24.308594 8.292969 L 22.769531 8.734375 C 22.539062 7.929688 22.699219 7.0625 23.203125 6.394531 C 23.707031 5.726562 24.496094 5.332031 25.332031 5.332031 C 26.425781 5.332031 27.40625 6 27.8125 7.015625 C 28.214844 8.03125 27.957031 9.1875 27.164062 9.9375 L 24.992188 12 L 28 12 L 28 13.332031 L 22.667969 13.332031 L 22.667969 12 Z M 26.066406 8.773438 "/>
</g>
</svg>
