<?xml version="1.0" encoding="UTF-8"?>
<svg xmlns="http://www.w3.org/2000/svg" xmlns:xlink="http://www.w3.org/1999/xlink" width="32" height="32" viewBox="0 0 32 32" version="1.1">
<g id="surface1">
<path style=" stroke:none;fill-rule:evenodd;fill:rgb(100%,100%,100%);fill-opacity:1;" d="M 3.921875 4 L 3.921875 18.804688 L 1.105469 20.210938 C 0.628906 20.449219 0.265625 20.863281 0.0976562 21.367188 C -0.0703125 21.871094 -0.03125 22.421875 0.207031 22.898438 C 0.445312 23.371094 0.863281 23.734375 1.367188 23.898438 C 1.871094 24.066406 2.421875 24.023438 2.894531 23.785156 L 3.921875 23.273438 L 3.921875 28 L 7.921875 28 L 7.921875 21.273438 L 10.613281 19.929688 L 10.613281 28 L 14.613281 28 L 14.613281 17.929688 L 17.308594 16.582031 L 17.308594 28 L 21.308594 28 L 21.308594 14.582031 L 24 13.238281 L 24 28 L 28 28 L 28 11.238281 L 30.902344 9.789062 C 31.886719 9.289062 32.285156 8.085938 31.785156 7.101562 C 31.4375 6.398438 30.710938 5.964844 29.925781 5.992188 C 29.636719 6.003906 29.355469 6.082031 29.097656 6.214844 L 28 6.765625 L 28 4 L 24 4 L 24 8.765625 L 21.308594 10.109375 L 21.308594 4 L 17.308594 4 L 17.308594 12.109375 L 14.613281 13.457031 L 14.613281 4 L 10.613281 4 L 10.613281 15.457031 L 7.921875 16.804688 L 7.921875 4 Z M 3.921875 4 "/>
</g>
</svg>
