<?xml version="1.0" encoding="UTF-8"?>
<svg xmlns="http://www.w3.org/2000/svg" xmlns:xlink="http://www.w3.org/1999/xlink" width="32" height="32" viewBox="0 0 32 32" version="1.1">
<g id="surface1">
<path style=" stroke:none;fill-rule:nonzero;fill:rgb(100%,100%,100%);fill-opacity:1;" d="M 16 14.667969 C 19.683594 14.667969 22.667969 17.652344 22.667969 21.332031 L 22.667969 29.332031 L 20 29.332031 L 20 21.332031 C 20 19.214844 18.347656 17.464844 16.234375 17.339844 L 16 17.332031 C 13.882812 17.332031 12.132812 18.984375 12.007812 21.097656 L 12 21.332031 L 12 29.332031 L 9.332031 29.332031 L 9.332031 21.332031 C 9.332031 17.652344 12.316406 14.667969 16 14.667969 Z M 7.332031 18.667969 C 7.707031 18.667969 8.066406 18.710938 8.414062 18.792969 C 8.183594 19.46875 8.050781 20.175781 8.011719 20.890625 L 8 21.332031 L 8 21.449219 C 7.847656 21.394531 7.6875 21.355469 7.523438 21.339844 L 7.332031 21.332031 C 6.304688 21.332031 5.441406 22.117188 5.34375 23.140625 L 5.332031 23.332031 L 5.332031 29.332031 L 2.667969 29.332031 L 2.667969 23.332031 C 2.667969 20.757812 4.757812 18.667969 7.332031 18.667969 Z M 24.667969 18.667969 C 27.242188 18.667969 29.332031 20.757812 29.332031 23.332031 L 29.332031 29.332031 L 26.667969 29.332031 L 26.667969 23.332031 C 26.667969 22.304688 25.882812 21.441406 24.859375 21.34375 L 24.667969 21.332031 C 24.433594 21.332031 24.210938 21.375 24 21.445312 L 24 21.332031 C 24 20.445312 23.855469 19.59375 23.589844 18.792969 C 23.933594 18.710938 24.292969 18.667969 24.667969 18.667969 Z M 7.332031 10.667969 C 9.175781 10.667969 10.667969 12.160156 10.667969 14 C 10.667969 15.839844 9.175781 17.332031 7.332031 17.332031 C 5.492188 17.332031 4 15.839844 4 14 C 4 12.160156 5.492188 10.667969 7.332031 10.667969 Z M 24.667969 10.667969 C 26.507812 10.667969 28 12.160156 28 14 C 28 15.839844 26.507812 17.332031 24.667969 17.332031 C 22.824219 17.332031 21.332031 15.839844 21.332031 14 C 21.332031 12.160156 22.824219 10.667969 24.667969 10.667969 Z M 7.332031 13.332031 C 6.964844 13.332031 6.667969 13.632812 6.667969 14 C 6.667969 14.367188 6.964844 14.667969 7.332031 14.667969 C 7.703125 14.667969 8 14.367188 8 14 C 8 13.632812 7.703125 13.332031 7.332031 13.332031 Z M 24.667969 13.332031 C 24.296875 13.332031 24 13.632812 24 14 C 24 14.367188 24.296875 14.667969 24.667969 14.667969 C 25.035156 14.667969 25.332031 14.367188 25.332031 14 C 25.332031 13.632812 25.035156 13.332031 24.667969 13.332031 Z M 16 2.667969 C 18.945312 2.667969 21.332031 5.054688 21.332031 8 C 21.332031 10.945312 18.945312 13.332031 16 13.332031 C 13.054688 13.332031 10.667969 10.945312 10.667969 8 C 10.667969 5.054688 13.054688 2.667969 16 2.667969 Z M 16 5.332031 C 14.527344 5.332031 13.332031 6.527344 13.332031 8 C 13.332031 9.472656 14.527344 10.667969 16 10.667969 C 17.472656 10.667969 18.667969 9.472656 18.667969 8 C 18.667969 6.527344 17.472656 5.332031 16 5.332031 Z M 16 5.332031 "/>
</g>
</svg>
