<?xml version="1.0" encoding="UTF-8"?>
<svg xmlns="http://www.w3.org/2000/svg" xmlns:xlink="http://www.w3.org/1999/xlink" width="32" height="32" viewBox="0 0 32 32" version="1.1">
<g id="surface1">
<path style=" stroke:none;fill-rule:nonzero;fill:rgb(100%,100%,100%);fill-opacity:1;" d="M 22.34375 17.179688 L 22.34375 0 L 32 0 L 32 2.90625 L 25.179688 2.90625 L 25.179688 6.972656 L 31.074219 6.972656 L 31.074219 9.878906 L 25.179688 9.878906 L 25.179688 17.179688 Z M 22.34375 17.179688 "/>
<path style=" stroke:none;fill-rule:evenodd;fill:rgb(100%,100%,100%);fill-opacity:1;" d="M 8 0 C 5.785156 0 4 1.785156 4 4 L 4 15.519531 C 1.5 17.1875 0 19.996094 0 23 C 0 27.96875 4.03125 32 9 32 C 13.96875 32 18 27.96875 18 23 C 18 19.992188 16.5 17.1875 14 15.515625 L 14 4 C 14 1.785156 12.214844 0 10 0 Z M 8 2 L 10 2 C 11.109375 2 12 2.890625 12 4 L 12 16.675781 C 14.441406 17.835938 16 20.296875 16 23 C 16 26.867188 12.867188 30 9 30 C 5.132812 30 2 26.867188 2 23 C 2 20.296875 3.558594 17.835938 6 16.675781 L 6 4 C 6 2.890625 6.890625 2 8 2 Z M 8 4 L 8 18.105469 C 5.671875 18.582031 4.003906 20.625 4 23 C 4 25.761719 6.238281 28 9 28 C 11.761719 28 14 25.761719 14 23 C 14 20.625 12.328125 18.578125 10 18.101562 L 10 4 Z M 8 4 "/>
</g>
</svg>
