<?xml version="1.0" encoding="UTF-8"?>
<svg xmlns="http://www.w3.org/2000/svg" xmlns:xlink="http://www.w3.org/1999/xlink" width="32" height="32" viewBox="0 0 32 32" version="1.1">
<g id="surface1">
<path style=" stroke:none;fill-rule:nonzero;fill:rgb(100%,100%,100%);fill-opacity:1;" d="M 10.667969 6.667969 C 10.667969 3.722656 13.054688 1.332031 16 1.332031 C 18.945312 1.332031 21.332031 3.722656 21.332031 6.667969 L 21.332031 13.671875 C 24.679688 16.003906 26.125 20.238281 24.90625 24.128906 C 23.683594 28.019531 20.078125 30.667969 16 30.667969 C 11.921875 30.667969 8.316406 28.019531 7.09375 24.128906 C 5.875 20.238281 7.320312 16.003906 10.667969 13.671875 Z M 12.191406 15.859375 C 9.800781 17.523438 8.765625 20.546875 9.640625 23.328125 C 10.511719 26.105469 13.085938 28 16 28 C 18.914062 28 21.488281 26.105469 22.359375 23.328125 C 23.234375 20.546875 22.199219 17.523438 19.808594 15.859375 L 18.667969 15.0625 L 18.667969 6.667969 C 18.667969 5.195312 17.472656 4 16 4 C 14.527344 4 13.332031 5.195312 13.332031 6.667969 L 13.332031 15.0625 Z M 14.667969 16.167969 L 14.667969 6.667969 L 17.332031 6.667969 L 17.332031 16.167969 C 19.925781 16.847656 21.617188 19.34375 21.277344 22.003906 C 20.941406 24.664062 18.679688 26.660156 16 26.667969 C 13.3125 26.667969 11.042969 24.671875 10.703125 22.003906 C 10.367188 19.339844 12.0625 16.835938 14.667969 16.167969 Z M 16 24 C 17.472656 24 18.667969 22.804688 18.667969 21.332031 C 18.667969 19.859375 17.472656 18.667969 16 18.667969 C 14.527344 18.667969 13.332031 19.859375 13.332031 21.332031 C 13.332031 22.804688 14.527344 24 16 24 Z M 16 24 "/>
</g>
</svg>
