<?xml version="1.0" encoding="UTF-8"?>
<svg xmlns="http://www.w3.org/2000/svg" xmlns:xlink="http://www.w3.org/1999/xlink" width="32" height="32" viewBox="0 0 32 32" version="1.1">
<g id="surface1">
<path style=" stroke:none;fill-rule:nonzero;fill:rgb(100%,100%,100%);fill-opacity:1;" d="M 16 0 C 22.703125 0 26.054688 5.335938 26.054688 16.011719 C 26.054688 26.671875 22.703125 32 16 32 C 12.886719 32 10.429688 30.796875 8.628906 28.386719 C 6.839844 25.964844 5.945312 21.8125 5.945312 15.925781 C 5.945312 5.308594 9.296875 0 16 0 Z M 19.929688 13.539062 C 19.816406 10.019531 19.429688 7.6875 18.765625 6.546875 C 18.121094 5.40625 17.195312 4.835938 16 4.835938 C 14.816406 4.835938 13.894531 5.414062 13.234375 6.570312 C 12.570312 7.710938 12.191406 10.03125 12.09375 13.539062 Z M 19.929688 18.460938 L 12.09375 18.460938 C 12.191406 21.980469 12.5625 24.3125 13.210938 25.453125 C 13.875 26.59375 14.804688 27.164062 16 27.164062 C 17.195312 27.164062 18.121094 26.59375 18.765625 25.453125 C 19.429688 24.296875 19.816406 21.96875 19.929688 18.460938 Z M 19.929688 18.460938 "/>
</g>
</svg>
