<?xml version="1.0" encoding="UTF-8"?>
<svg xmlns="http://www.w3.org/2000/svg" xmlns:xlink="http://www.w3.org/1999/xlink" width="32" height="32" viewBox="0 0 32 32" version="1.1">
<g id="surface1">
<path style=" stroke:none;fill-rule:nonzero;fill:rgb(100%,100%,100%);fill-opacity:1;" d="M 6.660156 5.167969 C 0.640625 10.363281 -0.0625 19.421875 5.09375 25.402344 C 10.253906 31.382812 19.304688 32.03125 25.339844 26.828125 C 31.359375 21.632812 32.0625 12.574219 26.90625 6.59375 C 21.746094 0.613281 12.683594 -0.0234375 6.660156 5.167969 Z M 23.265625 24.421875 C 18.574219 28.464844 11.535156 27.96875 7.519531 23.3125 C 3.503906 18.65625 4.046875 11.621094 8.734375 7.574219 C 13.425781 3.53125 20.464844 4.027344 24.480469 8.683594 C 28.496094 13.339844 27.953125 20.375 23.265625 24.421875 Z M 23.265625 24.421875 "/>
<path style=" stroke:none;fill-rule:nonzero;fill:rgb(100%,100%,100%);fill-opacity:1;" d="M 13.996094 8.242188 L 13.996094 18.253906 L 24.007812 18.253906 L 24.007812 14.25 L 17.996094 14.25 L 17.996094 8.242188 Z M 13.996094 8.242188 "/>
</g>
</svg>
