<?xml version="1.0" encoding="UTF-8"?>
<svg xmlns="http://www.w3.org/2000/svg" xmlns:xlink="http://www.w3.org/1999/xlink" width="32" height="32" viewBox="0 0 32 32" version="1.1">
<g id="surface1">
<path style=" stroke:none;fill-rule:nonzero;fill:rgb(100%,100%,100%);fill-opacity:1;" d="M 16.664062 4 C 15.960938 5.6875 15.8125 7.554688 16.230469 9.332031 L 6.667969 9.332031 L 6.667969 14.667969 L 20.046875 14.667969 C 21.429688 15.539062 23.03125 16.003906 24.667969 16 C 25.8125 16 26.945312 15.777344 28 15.335938 L 28 24 C 28 25.472656 26.804688 26.667969 25.332031 26.667969 L 22.933594 26.667969 L 25.332031 28.667969 L 25.332031 29.332031 L 6.667969 29.332031 L 6.667969 28.667969 L 9.066406 26.667969 L 6.667969 26.667969 C 5.195312 26.667969 4 25.472656 4 24 L 4 9.332031 C 4 6.386719 6.386719 4 9.332031 4 Z M 16 18.667969 C 14.527344 18.667969 13.332031 19.859375 13.332031 21.332031 C 13.332031 22.804688 14.527344 24 16 24 C 17.472656 24 18.667969 22.804688 18.667969 21.332031 C 18.667969 19.859375 17.472656 18.667969 16 18.667969 Z M 24.667969 1.332031 C 27.980469 1.332031 30.667969 4.019531 30.667969 7.332031 C 30.667969 10.648438 27.980469 13.332031 24.667969 13.332031 C 21.351562 13.332031 18.667969 10.648438 18.667969 7.332031 C 18.667969 4.019531 21.351562 1.332031 24.667969 1.332031 Z M 24.667969 8.222656 C 24.011719 8.222656 23.414062 8.457031 22.949219 8.847656 L 22.78125 9.003906 L 24.667969 10.890625 L 26.550781 9 C 26.050781 8.5 25.375 8.222656 24.667969 8.222656 Z M 24.667969 4.667969 C 23.125 4.664062 21.636719 5.234375 20.496094 6.269531 L 20.265625 6.492188 L 21.523438 7.746094 C 22.355469 6.910156 23.488281 6.441406 24.667969 6.445312 C 25.746094 6.441406 26.789062 6.835938 27.601562 7.550781 L 27.808594 7.746094 L 29.066406 6.488281 C 27.902344 5.320312 26.316406 4.664062 24.667969 4.667969 Z M 24.667969 4.667969 "/>
</g>
</svg>
