<?xml version="1.0" encoding="UTF-8"?>
<svg xmlns="http://www.w3.org/2000/svg" xmlns:xlink="http://www.w3.org/1999/xlink" width="32" height="32" viewBox="0 0 32 32" version="1.1">
<g id="surface1">
<path style=" stroke:none;fill-rule:nonzero;fill:rgb(100%,100%,100%);fill-opacity:1;" d="M 29.550781 7.542969 C 28.53125 7.992188 27.453125 8.289062 26.347656 8.417969 C 27.511719 7.722656 28.382812 6.625 28.800781 5.332031 C 27.707031 5.984375 26.507812 6.441406 25.257812 6.6875 C 23.53125 4.839844 20.78125 4.386719 18.554688 5.578125 C 16.324219 6.769531 15.179688 9.3125 15.757812 11.773438 C 11.273438 11.546875 7.09375 9.429688 4.265625 5.945312 C 3.769531 6.796875 3.507812 7.765625 3.507812 8.75 C 3.507812 10.683594 4.492188 12.390625 5.988281 13.390625 C 5.105469 13.363281 4.238281 13.125 3.464844 12.691406 L 3.464844 12.761719 C 3.464844 15.417969 5.335938 17.703125 7.9375 18.230469 C 7.117188 18.453125 6.253906 18.484375 5.417969 18.328125 C 6.148438 20.597656 8.242188 22.15625 10.625 22.199219 C 8.289062 24.035156 5.320312 24.867188 2.371094 24.507812 C 4.921875 26.148438 7.886719 27.019531 10.917969 27.015625 C 21.175781 27.015625 26.785156 18.519531 26.785156 11.148438 C 26.785156 10.910156 26.777344 10.667969 26.769531 10.429688 C 27.859375 9.640625 28.800781 8.664062 29.550781 7.542969 Z M 29.550781 7.542969 "/>
</g>
</svg>
