<?xml version="1.0" encoding="UTF-8"?>
<svg xmlns="http://www.w3.org/2000/svg" xmlns:xlink="http://www.w3.org/1999/xlink" width="32" height="32" viewBox="0 0 32 32" version="1.1">
<g id="surface1">
<path style=" stroke:none;fill-rule:nonzero;fill:rgb(100%,100%,100%);fill-opacity:1;" d="M 25.332031 16 L 6.667969 16 L 6.667969 26.667969 L 25.332031 26.667969 Z M 6.667969 13.332031 L 6.667969 2.667969 L 25.332031 2.667969 L 25.332031 13.332031 L 26.667969 13.332031 C 27.402344 13.332031 28 13.929688 28 14.667969 L 28 28 C 28 28.738281 27.402344 29.332031 26.667969 29.332031 L 5.332031 29.332031 C 4.597656 29.332031 4 28.738281 4 28 L 4 14.667969 C 4 13.929688 4.597656 13.332031 5.332031 13.332031 Z M 9.332031 13.332031 L 22.667969 13.332031 L 22.667969 5.332031 L 9.332031 5.332031 Z M 12 8 L 14.667969 8 L 14.667969 10.667969 L 12 10.667969 Z M 17.332031 8 L 20 8 L 20 10.667969 L 17.332031 10.667969 Z M 17.332031 8 "/>
</g>
</svg>
