<?xml version="1.0" encoding="UTF-8"?>
<svg xmlns="http://www.w3.org/2000/svg" xmlns:xlink="http://www.w3.org/1999/xlink" width="32" height="32" viewBox="0 0 32 32" version="1.1">
<g id="surface1">
<path style=" stroke:none;fill-rule:evenodd;fill:rgb(100%,100%,100%);fill-opacity:1;" d="M 2 20 C 0.890625 20 0 20.890625 0 22 L 0 30 C 0 31.109375 0.890625 32 2 32 L 30 32 C 31.109375 32 32 31.109375 32 30 L 32 22 C 32 20.890625 31.109375 20 30 20 Z M 20 24 C 21.105469 24 22 24.894531 22 26 C 22 27.105469 21.105469 28 20 28 C 18.894531 28 18 27.105469 18 26 C 18 24.894531 18.894531 24 20 24 Z M 26 24 C 27.105469 24 28 24.894531 28 26 C 28 27.105469 27.105469 28 26 28 C 24.894531 28 24 27.105469 24 26 C 24 24.894531 24.894531 24 26 24 Z M 26 24 "/>
<path style=" stroke:none;fill-rule:nonzero;fill:rgb(100%,100%,100%);fill-opacity:1;" d="M 14 18 L 18 18 L 18 8 L 22 8 L 16 0 L 10 8 L 14 8 Z M 14 18 "/>
</g>
</svg>
