<?xml version="1.0" encoding="UTF-8"?>
<svg xmlns="http://www.w3.org/2000/svg" xmlns:xlink="http://www.w3.org/1999/xlink" width="32" height="32" viewBox="0 0 32 32" version="1.1">
<g id="surface1">
<path style=" stroke:none;fill-rule:nonzero;fill:rgb(100%,100%,100%);fill-opacity:1;" d="M 15.882812 2.003906 C 11.511719 2.066406 8.003906 5.628906 8.003906 10.003906 C 8.003906 14.421875 11.585938 18.003906 16.003906 18.003906 C 20.421875 18.003906 24.003906 14.421875 24.003906 10.003906 C 24.003906 5.582031 20.421875 2.003906 16.003906 2.003906 C 15.964844 2 15.921875 2 15.882812 2.003906 Z M 25.613281 19.160156 L 22 29.996094 L 32.113281 29.996094 L 31.996094 28.832031 C 31.996094 28.832031 31.761719 26.445312 30.699219 24.03125 C 30.167969 22.820312 29.425781 21.585938 28.335938 20.605469 C 27.597656 19.941406 26.671875 19.429688 25.613281 19.160156 Z M 6.386719 19.164062 C 5.332031 19.4375 4.414062 19.945312 3.679688 20.605469 C 2.589844 21.585938 1.835938 22.820312 1.304688 24.03125 C 0.242188 26.445312 0.00390625 28.832031 0.00390625 28.832031 L -0.113281 29.996094 L 10 29.996094 Z M 6.386719 19.164062 "/>
<path style=" stroke:none;fill-rule:nonzero;fill:rgb(100%,100%,100%);fill-opacity:1;" d="M 14 20 L 12 23 L 14 26 L 12 30 L 20 30 L 18 26 L 20 23 L 18 20 Z M 14 20 "/>
</g>
</svg>
