<?xml version="1.0" encoding="UTF-8"?>
<svg xmlns="http://www.w3.org/2000/svg" xmlns:xlink="http://www.w3.org/1999/xlink" width="32" height="32" viewBox="0 0 32 32" version="1.1">
<g id="surface1">
<path style=" stroke:none;fill-rule:nonzero;fill:rgb(100%,100%,100%);fill-opacity:1;" d="M 16 18.667969 L 16 29.332031 L 5.332031 29.332031 C 5.332031 23.441406 10.109375 18.667969 16 18.667969 Z M 16 17.332031 C 11.578125 17.332031 8 13.753906 8 9.332031 C 8 4.914062 11.578125 1.332031 16 1.332031 C 20.421875 1.332031 24 4.914062 24 9.332031 C 24 13.753906 20.421875 17.332031 16 17.332031 Z M 19.460938 25.082031 C 19.289062 24.371094 19.289062 23.628906 19.460938 22.917969 L 18.136719 22.15625 L 19.46875 19.84375 L 20.792969 20.609375 C 21.324219 20.105469 21.964844 19.734375 22.667969 19.527344 L 22.667969 18 L 25.332031 18 L 25.332031 19.527344 C 26.042969 19.738281 26.683594 20.113281 27.207031 20.609375 L 28.53125 19.84375 L 29.863281 22.15625 L 28.539062 22.917969 C 28.707031 23.628906 28.707031 24.371094 28.539062 25.082031 L 29.863281 25.84375 L 28.53125 28.15625 L 27.207031 27.390625 C 26.675781 27.894531 26.035156 28.265625 25.332031 28.472656 L 25.332031 30 L 22.667969 30 L 22.667969 28.472656 C 21.964844 28.265625 21.324219 27.894531 20.792969 27.390625 L 19.46875 28.15625 L 18.136719 25.84375 Z M 24 22.667969 C 23.261719 22.667969 22.667969 23.261719 22.667969 24 C 22.667969 24.738281 23.261719 25.332031 24 25.332031 C 24.738281 25.332031 25.332031 24.738281 25.332031 24 C 25.332031 23.261719 24.738281 22.667969 24 22.667969 Z M 24 22.667969 "/>
</g>
</svg>
