<?xml version="1.0" encoding="UTF-8"?>
<svg xmlns="http://www.w3.org/2000/svg" xmlns:xlink="http://www.w3.org/1999/xlink" width="32" height="32" viewBox="0 0 32 32" version="1.1">
<g id="surface1">
<path style=" stroke:none;fill-rule:evenodd;fill:rgb(100%,100%,100%);fill-opacity:1;" d="M 10 0 L 10 6 L 9.75 6 C 7.671875 6 6 7.671875 6 9.75 L 6 20.25 C 6 21.691406 6.8125 22.921875 8 23.550781 L 8 27.625 C 8 30.046875 9.953125 32 12.375 32 L 19.625 32 C 22.046875 32 24 30.046875 24 27.625 L 24 23.550781 C 25.1875 22.921875 26 21.691406 26 20.25 L 26 9.75 C 26 7.671875 24.328125 6 22.25 6 L 22 6 L 22 4 L 18 4 L 18 6 L 14 6 L 14 0 Z M 10 10 L 22 10 L 22 12 L 10 12 Z M 10 14 L 22 14 L 22 16 L 10 16 Z M 10 18 L 22 18 L 22 20 L 10 20 Z M 10 18 "/>
</g>
</svg>
