<?xml version="1.0" encoding="UTF-8"?>
<svg xmlns="http://www.w3.org/2000/svg" xmlns:xlink="http://www.w3.org/1999/xlink" width="32" height="32" viewBox="0 0 32 32" version="1.1">
<g id="surface1">
<path style=" stroke:none;fill-rule:nonzero;fill:rgb(100%,100%,100%);fill-opacity:1;" d="M 0 0.00390625 L 0 32.003906 L 2.007812 32.003906 L 2.007812 0.00390625 Z M 0 0.00390625 "/>
<path style=" stroke:none;fill-rule:nonzero;fill:rgb(100%,100%,100%);fill-opacity:1;" d="M 2.023438 11.996094 L 2.023438 14.003906 L 30.007812 14.003906 L 30.007812 11.996094 Z M 2.023438 11.996094 "/>
<path style=" stroke:none;fill-rule:nonzero;fill:rgb(100%,100%,100%);fill-opacity:1;" d="M 2 28.011719 L 2 30.003906 L 30 30.003906 L 30 28.011719 Z M 2 28.011719 "/>
<path style=" stroke:none;fill-rule:nonzero;fill:rgb(100%,100%,100%);fill-opacity:1;" d="M 29.992188 0.00390625 L 29.992188 32.003906 L 32 32.003906 L 32 0.00390625 Z M 29.992188 0.00390625 "/>
<path style=" stroke:none;fill-rule:evenodd;fill:rgb(100%,100%,100%);fill-opacity:1;" d="M 20.007812 -0.00390625 L 26.007812 -0.00390625 C 27.117188 -0.00390625 28.007812 0.886719 28.007812 1.996094 L 28.007812 7.996094 C 28.007812 9.105469 27.117188 9.996094 26.007812 9.996094 L 20.007812 9.996094 C 18.898438 9.996094 18.007812 9.105469 18.007812 7.996094 L 18.007812 1.996094 C 18.007812 0.886719 18.898438 -0.00390625 20.007812 -0.00390625 Z M 20.007812 -0.00390625 "/>
<path style=" stroke:none;fill-rule:evenodd;fill:rgb(100%,100%,100%);fill-opacity:1;" d="M 20.007812 15.996094 L 26.007812 15.996094 C 27.117188 15.996094 28.007812 16.886719 28.007812 17.996094 L 28.007812 23.996094 C 28.007812 25.105469 27.117188 25.996094 26.007812 25.996094 L 20.007812 25.996094 C 18.898438 25.996094 18.007812 25.105469 18.007812 23.996094 L 18.007812 17.996094 C 18.007812 16.886719 18.898438 15.996094 20.007812 15.996094 Z M 20.007812 15.996094 "/>
<path style=" stroke:none;fill-rule:evenodd;fill:rgb(100%,100%,100%);fill-opacity:1;" d="M 6.007812 15.996094 L 12.007812 15.996094 C 13.117188 15.996094 14.007812 16.886719 14.007812 17.996094 L 14.007812 23.996094 C 14.007812 25.105469 13.117188 25.996094 12.007812 25.996094 L 6.007812 25.996094 C 4.898438 25.996094 4.007812 25.105469 4.007812 23.996094 L 4.007812 17.996094 C 4.007812 16.886719 4.898438 15.996094 6.007812 15.996094 Z M 6.007812 15.996094 "/>
</g>
</svg>
