<?xml version="1.0" encoding="UTF-8"?>
<svg xmlns="http://www.w3.org/2000/svg" xmlns:xlink="http://www.w3.org/1999/xlink" width="32" height="32" viewBox="0 0 32 32" version="1.1">
<g id="surface1">
<path style=" stroke:none;fill-rule:nonzero;fill:rgb(100%,100%,100%);fill-opacity:1;" d="M 16.101562 1.472656 C 14.925781 1.472656 13.824219 2.207031 13.132812 3.363281 C 9.894531 8.785156 3.769531 19.394531 0.597656 25.066406 C -0.0976562 26.316406 -0.191406 27.707031 0.421875 28.773438 C 1.039062 29.84375 2.285156 30.4375 3.714844 30.457031 C 9.9375 30.542969 21.429688 30.550781 27.941406 30.46875 C 29.519531 30.449219 30.875 29.796875 31.542969 28.640625 C 32.210938 27.484375 32.109375 25.984375 31.335938 24.609375 C 28.101562 18.839844 22.207031 8.640625 19.054688 3.363281 C 18.363281 2.207031 17.277344 1.472656 16.101562 1.472656 Z M 14 10.527344 L 18 10.527344 L 18 20.527344 L 14 20.527344 Z M 14 22.527344 L 18 22.527344 L 18 26.527344 L 14 26.527344 Z M 14 22.527344 "/>
</g>
</svg>
