<?xml version="1.0" encoding="UTF-8"?>
<svg xmlns="http://www.w3.org/2000/svg" xmlns:xlink="http://www.w3.org/1999/xlink" width="32" height="32" viewBox="0 0 32 32" version="1.1">
<g id="surface1">
<path style=" stroke:none;fill-rule:nonzero;fill:rgb(100%,100%,100%);fill-opacity:1;" d="M 22.03125 22.507812 C 21.628906 22.488281 21.234375 22.628906 20.9375 22.902344 C 20.640625 23.171875 20.464844 23.554688 20.449219 23.957031 C 20.449219 23.972656 20.464844 23.984375 20.464844 24 L 20.449219 24 C 20.449219 25.75 20.039062 26.78125 19.386719 27.425781 C 18.734375 28.074219 17.667969 28.488281 15.875 28.488281 C 14.167969 28.488281 13.148438 28.085938 12.507812 27.441406 C 11.867188 26.792969 11.460938 25.75 11.460938 24 C 11.460938 23.167969 10.785156 22.496094 9.953125 22.496094 C 9.121094 22.496094 8.449219 23.167969 8.449219 24 C 8.449219 25.75 8.046875 26.792969 7.398438 27.441406 C 6.753906 28.085938 5.710938 28.488281 3.960938 28.488281 C 3.558594 28.488281 3.175781 28.644531 2.894531 28.929688 C 2.609375 29.210938 2.453125 29.59375 2.453125 29.996094 C 2.453125 30.394531 2.609375 30.777344 2.894531 31.0625 C 3.175781 31.34375 3.558594 31.503906 3.960938 31.5 C 6.210938 31.5 8.15625 30.90625 9.511719 29.550781 C 9.8125 29.25 9.726562 28.671875 9.953125 28.3125 C 10.179688 28.671875 10.082031 29.25 10.382812 29.550781 C 11.722656 30.90625 13.660156 31.5 15.875 31.5 C 18.160156 31.5 20.132812 30.921875 21.5 29.566406 C 21.808594 29.257812 21.707031 28.664062 21.941406 28.296875 C 22.171875 28.660156 22.0625 29.25 22.371094 29.550781 C 23.738281 30.90625 25.707031 31.5 27.964844 31.5 C 28.792969 31.496094 29.460938 30.820312 29.457031 29.996094 C 29.460938 29.167969 28.792969 28.492188 27.964844 28.488281 C 26.214844 28.488281 25.136719 28.078125 24.480469 27.425781 C 23.824219 26.777344 23.410156 25.75 23.449219 24.03125 L 23.433594 24.03125 C 23.433594 24.019531 23.449219 24.011719 23.449219 24 C 23.445312 23.207031 22.824219 22.554688 22.03125 22.507812 Z M 22.03125 22.507812 "/>
<path style=" stroke:none;fill-rule:nonzero;fill:rgb(100%,100%,100%);fill-opacity:1;" d="M 10.027344 11.511719 C 9.933594 11.507812 9.839844 11.511719 9.746094 11.527344 C 9.367188 11.582031 9.023438 11.785156 8.789062 12.085938 C 8.726562 12.160156 8.671875 12.238281 8.625 12.324219 C 8.511719 12.53125 8.453125 12.765625 8.449219 13 C 8.449219 14.75 8.046875 15.78125 7.398438 16.425781 C 6.753906 17.074219 5.710938 17.488281 3.960938 17.488281 C 3.558594 17.488281 3.175781 17.648438 2.894531 17.929688 C 2.609375 18.210938 2.453125 18.597656 2.453125 18.996094 C 2.453125 19.394531 2.609375 19.78125 2.894531 20.0625 C 3.175781 20.34375 3.558594 20.503906 3.960938 20.5 C 6.210938 20.5 8.15625 19.90625 9.511719 18.554688 C 9.8125 18.25 9.726562 17.671875 9.953125 17.3125 C 10.179688 17.671875 10.082031 18.25 10.382812 18.554688 C 11.722656 19.90625 13.660156 20.5 15.875 20.5 C 18.160156 20.5 20.132812 19.921875 21.5 18.566406 C 21.808594 18.257812 21.707031 17.667969 21.941406 17.296875 C 22.171875 17.660156 22.0625 18.25 22.371094 18.554688 C 23.738281 19.910156 25.707031 20.5 27.964844 20.5 C 28.792969 20.496094 29.460938 19.824219 29.457031 18.996094 C 29.460938 18.167969 28.792969 17.496094 27.964844 17.488281 C 26.214844 17.488281 25.136719 17.078125 24.480469 16.425781 C 23.824219 15.777344 23.410156 14.753906 23.449219 13.03125 L 23.433594 13.03125 C 23.433594 13.019531 23.449219 13.015625 23.449219 13 C 23.425781 12.199219 22.773438 11.558594 21.96875 11.546875 C 21.167969 11.535156 20.496094 12.15625 20.449219 12.957031 C 20.449219 12.976562 20.464844 12.984375 20.464844 13 L 20.449219 13 C 20.449219 14.75 20.039062 15.78125 19.386719 16.425781 C 18.734375 17.074219 17.667969 17.488281 15.875 17.488281 C 14.167969 17.488281 13.148438 17.089844 12.507812 16.441406 C 11.867188 15.796875 11.460938 14.75 11.460938 13 C 11.460938 12.902344 11.449219 12.804688 11.429688 12.707031 C 11.410156 12.617188 11.378906 12.527344 11.339844 12.441406 C 11.304688 12.351562 11.261719 12.269531 11.207031 12.191406 C 11.15625 12.109375 11.097656 12.035156 11.03125 11.96875 C 10.765625 11.695312 10.40625 11.53125 10.027344 11.511719 Z M 10.027344 11.511719 "/>
<path style=" stroke:none;fill-rule:nonzero;fill:rgb(100%,100%,100%);fill-opacity:1;" d="M 10.074219 0.0195312 C 9.980469 0.015625 9.882812 0.0234375 9.792969 0.0351562 C 9.410156 0.09375 9.070312 0.292969 8.832031 0.597656 C 8.769531 0.667969 8.714844 0.75 8.667969 0.832031 C 8.558594 1.042969 8.496094 1.273438 8.492188 1.511719 C 8.492188 3.261719 8.089844 4.289062 7.445312 4.9375 C 6.796875 5.582031 5.753906 6 4.003906 6 C 3.605469 6 3.21875 6.15625 2.9375 6.4375 C 2.65625 6.722656 2.496094 7.105469 2.5 7.507812 C 2.496094 7.90625 2.65625 8.289062 2.9375 8.574219 C 3.21875 8.855469 3.605469 9.011719 4.003906 9.011719 C 6.253906 9.011719 8.203125 8.417969 9.554688 7.0625 C 9.859375 6.761719 9.769531 6.183594 10 5.824219 C 10.222656 6.179688 10.128906 6.761719 10.425781 7.0625 C 11.765625 8.417969 13.703125 9.011719 15.917969 9.011719 C 18.203125 9.011719 20.175781 8.429688 21.542969 7.078125 C 21.855469 6.769531 21.753906 6.175781 21.988281 5.808594 C 22.21875 6.171875 22.109375 6.757812 22.414062 7.0625 C 23.78125 8.417969 25.753906 9.011719 28.011719 9.011719 C 28.835938 9.007812 29.503906 8.332031 29.5 7.507812 C 29.503906 6.679688 28.835938 6.003906 28.011719 6 C 26.257812 6 25.183594 5.585938 24.527344 4.9375 C 23.871094 4.285156 23.453125 3.261719 23.492188 1.542969 L 23.476562 1.542969 C 23.476562 1.527344 23.492188 1.523438 23.492188 1.511719 C 23.46875 0.710938 22.816406 0.0664062 22.015625 0.0546875 C 21.210938 0.0429688 20.542969 0.667969 20.496094 1.46875 C 20.496094 1.484375 20.511719 1.492188 20.511719 1.511719 L 20.496094 1.511719 C 20.496094 3.261719 20.085938 4.289062 19.433594 4.9375 C 18.78125 5.582031 17.714844 6 15.917969 6 C 14.214844 6 13.191406 5.597656 12.550781 4.953125 C 11.914062 4.304688 11.503906 3.261719 11.503906 1.511719 C 11.503906 1.414062 11.496094 1.3125 11.476562 1.214844 C 11.453125 1.125 11.425781 1.035156 11.386719 0.949219 C 11.351562 0.863281 11.304688 0.777344 11.253906 0.699219 C 11.203125 0.621094 11.140625 0.546875 11.078125 0.476562 C 10.8125 0.203125 10.453125 0.0390625 10.074219 0.0195312 Z M 10.074219 0.0195312 "/>
</g>
</svg>
