<?xml version="1.0" encoding="UTF-8"?>
<svg xmlns="http://www.w3.org/2000/svg" xmlns:xlink="http://www.w3.org/1999/xlink" width="32" height="32" viewBox="0 0 32 32" version="1.1">
<g id="surface1">
<path style=" stroke:none;fill-rule:nonzero;fill:rgb(100%,100%,100%);fill-opacity:1;" d="M 16 24 C 16.953125 24 17.828125 24.332031 18.515625 24.886719 L 16 28 L 13.484375 24.886719 C 14.195312 24.3125 15.085938 24 16 24 Z M 3.742188 1.855469 L 27.3125 25.429688 L 25.429688 27.3125 L 18.519531 20.40625 C 17.707031 20.136719 16.855469 20 16 20 C 14.097656 20 12.347656 20.664062 10.972656 21.777344 L 9.296875 19.703125 C 11.050781 18.28125 13.210938 17.457031 15.460938 17.347656 L 12 13.886719 C 10.097656 14.425781 8.320312 15.34375 6.785156 16.589844 L 5.105469 14.515625 C 6.542969 13.351562 8.15625 12.425781 9.886719 11.773438 L 6.84375 8.726562 C 5.328125 9.449219 3.902344 10.347656 2.597656 11.402344 L 0.917969 9.328125 C 2.136719 8.34375 3.457031 7.476562 4.855469 6.738281 L 1.855469 3.742188 Z M 19.332031 13.714844 L 16.289062 10.667969 L 16 10.667969 C 20.125 10.667969 23.914062 12.109375 26.894531 14.515625 L 25.214844 16.589844 C 23.496094 15.199219 21.488281 14.214844 19.332031 13.714844 Z M 16 4 C 21.714844 4 26.960938 5.996094 31.078125 9.328125 L 29.402344 11.402344 C 25.613281 8.332031 20.878906 6.660156 16 6.667969 C 14.828125 6.667969 13.679688 6.761719 12.558594 6.941406 L 10.300781 4.679688 C 12.125 4.234375 14.035156 4 16 4 Z M 16 4 "/>
</g>
</svg>
