<?xml version="1.0" encoding="UTF-8"?>
<svg xmlns="http://www.w3.org/2000/svg" xmlns:xlink="http://www.w3.org/1999/xlink" width="32" height="32" viewBox="0 0 32 32" version="1.1">
<g id="surface1">
<path style=" stroke:none;fill-rule:evenodd;fill:rgb(100%,100%,100%);fill-opacity:1;" d="M 10.480469 16.15625 C 10.429688 16.125 10.382812 16.085938 10.339844 16.046875 C 10.148438 15.863281 10.035156 15.609375 10.027344 15.347656 C 10.023438 15.082031 10.121094 14.824219 10.304688 14.628906 C 11.765625 13.09375 13.773438 12.195312 15.894531 12.140625 C 18.011719 12.085938 20.066406 12.878906 21.605469 14.339844 C 22 14.71875 22.019531 15.339844 21.648438 15.742188 C 21.464844 15.933594 21.214844 16.046875 20.949219 16.054688 C 20.683594 16.0625 20.425781 15.960938 20.234375 15.78125 C 19.078125 14.683594 17.539062 14.097656 15.949219 14.136719 C 14.359375 14.179688 12.851562 14.855469 11.753906 16.007812 C 11.421875 16.359375 10.886719 16.421875 10.480469 16.15625 Z M 10.480469 16.15625 "/>
<path style=" stroke:none;fill-rule:evenodd;fill:rgb(100%,100%,100%);fill-opacity:1;" d="M 7.585938 13.386719 C 7.535156 13.355469 7.488281 13.316406 7.445312 13.277344 C 7.25 13.09375 7.136719 12.84375 7.132812 12.578125 C 7.125 12.3125 7.222656 12.054688 7.40625 11.863281 C 9.597656 9.554688 12.617188 8.222656 15.800781 8.140625 C 18.980469 8.058594 22.066406 9.25 24.375 11.445312 C 24.765625 11.828125 24.777344 12.457031 24.398438 12.851562 C 24.015625 13.238281 23.398438 13.253906 23.003906 12.882812 C 21.078125 11.054688 18.507812 10.070312 15.855469 10.136719 C 13.203125 10.207031 10.6875 11.316406 8.859375 13.238281 C 8.527344 13.589844 7.988281 13.652344 7.585938 13.386719 Z M 7.585938 13.386719 "/>
<path style=" stroke:none;fill-rule:evenodd;fill:rgb(100%,100%,100%);fill-opacity:1;" d="M 4.695312 10.636719 C 4.636719 10.605469 4.585938 10.566406 4.539062 10.519531 C 4.347656 10.335938 4.234375 10.085938 4.226562 9.820312 C 4.21875 9.554688 4.320312 9.296875 4.503906 9.105469 C 7.425781 6.03125 11.453125 4.242188 15.695312 4.132812 C 19.933594 4.027344 24.054688 5.617188 27.128906 8.539062 C 27.320312 8.722656 27.433594 8.972656 27.441406 9.238281 C 27.449219 9.503906 27.347656 9.761719 27.167969 9.953125 C 26.984375 10.148438 26.730469 10.257812 26.464844 10.265625 C 26.199219 10.273438 25.945312 10.175781 25.75 9.992188 C 23.058594 7.433594 19.460938 6.035156 15.75 6.132812 C 12.039062 6.226562 8.511719 7.792969 5.953125 10.484375 C 5.625 10.828125 5.097656 10.894531 4.695312 10.636719 Z M 4.695312 10.636719 "/>
<path style=" stroke:none;fill-rule:evenodd;fill:rgb(100%,100%,100%);fill-opacity:1;" d="M 1.828125 6.214844 C 1.578125 6.605469 1.636719 7.121094 1.964844 7.453125 C 2.152344 7.640625 2.40625 7.746094 2.671875 7.746094 C 2.9375 7.746094 3.191406 7.636719 3.378906 7.449219 C 10.339844 0.492188 21.558594 0.398438 28.625 7.246094 C 28.816406 7.433594 29.074219 7.539062 29.339844 7.535156 C 29.609375 7.535156 29.863281 7.425781 30.050781 7.234375 C 30.234375 7.039062 30.332031 6.78125 30.328125 6.515625 C 30.320312 6.25 30.207031 5.996094 30.015625 5.816406 C 22.179688 -1.777344 9.679688 -1.679688 1.964844 6.035156 C 1.910156 6.089844 1.867188 6.148438 1.828125 6.214844 Z M 1.828125 6.214844 "/>
<path style=" stroke:none;fill-rule:nonzero;fill:rgb(100%,100%,100%);fill-opacity:1;" d="M 3.070312 31.816406 L 0.457031 18.453125 L 2.726562 18.453125 L 4.367188 27.632812 L 6.371094 18.453125 L 9.003906 18.453125 L 10.929688 27.785156 L 12.613281 18.453125 L 14.839844 18.453125 L 12.175781 31.816406 L 9.824219 31.816406 L 7.636719 21.824219 L 5.46875 31.816406 Z M 3.070312 31.816406 "/>
<path style=" stroke:none;fill-rule:nonzero;fill:rgb(100%,100%,100%);fill-opacity:1;" d="M 15.8125 20.824219 L 15.8125 18.453125 L 17.917969 18.453125 L 17.917969 20.824219 Z M 15.8125 31.816406 L 15.8125 22.136719 L 17.917969 22.136719 L 17.917969 31.816406 Z M 15.8125 31.816406 "/>
<path style=" stroke:none;fill-rule:nonzero;fill:rgb(100%,100%,100%);fill-opacity:1;" d="M 20.097656 31.816406 L 20.097656 18.453125 L 27.605469 18.453125 L 27.605469 20.714844 L 22.300781 20.714844 L 22.300781 23.875 L 26.886719 23.875 L 26.886719 26.136719 L 22.300781 26.136719 L 22.300781 31.816406 Z M 20.097656 31.816406 "/>
<path style=" stroke:none;fill-rule:nonzero;fill:rgb(100%,100%,100%);fill-opacity:1;" d="M 29.4375 20.824219 L 29.4375 18.453125 L 31.542969 18.453125 L 31.542969 20.824219 Z M 29.4375 31.816406 L 29.4375 22.136719 L 31.542969 22.136719 L 31.542969 31.816406 Z M 29.4375 31.816406 "/>
</g>
</svg>
