<?xml version="1.0" encoding="UTF-8"?>
<svg xmlns="http://www.w3.org/2000/svg" xmlns:xlink="http://www.w3.org/1999/xlink" width="32" height="32" viewBox="0 0 32 32" version="1.1">
<g id="surface1">
<path style=" stroke:none;fill-rule:nonzero;fill:rgb(100%,100%,100%);fill-opacity:1;" d="M 13.011719 4.003906 C 12.457031 4 12.003906 4.453125 12.007812 5.007812 L 12.007812 27.003906 C 12.003906 27.558594 12.457031 28.007812 13.011719 28.007812 L 31.007812 28.007812 C 31.558594 28 32 27.550781 31.996094 27.003906 L 31.996094 5.007812 C 32 4.457031 31.558594 4.011719 31.007812 4.003906 Z M 16 8 L 28 8 L 28 24 L 16 24 Z M 16 8 "/>
<path style=" stroke:none;fill-rule:nonzero;fill:rgb(100%,100%,100%);fill-opacity:1;" d="M 0.980469 -0.0078125 C 0.945312 -0.0078125 0.910156 -0.00390625 0.875 0.00390625 C 0.378906 0.0664062 0.00390625 0.492188 0.00390625 0.992188 L 0.00390625 31.007812 C 0.00390625 31.695312 0.683594 32.179688 1.332031 31.953125 L 13.1875 27.800781 C 13.585938 27.664062 13.859375 27.292969 13.867188 26.871094 L 13.957031 5.125 C 13.957031 4.699219 13.691406 4.320312 13.289062 4.179688 L 1.332031 0.046875 C 1.21875 0.0078125 1.101562 -0.0117188 0.980469 -0.0078125 Z M 4 5.4375 L 12 8 L 12 14 L 4 14 Z M 12 17.351562 L 12 24 L 4 26.6875 L 4 18 Z M 12 17.351562 "/>
</g>
</svg>
